<?xml version="1.0" encoding="UTF-8"?>
<svg xmlns="http://www.w3.org/2000/svg" xmlns:xlink="http://www.w3.org/1999/xlink" width="566.893424pt" height="235.260771pt" viewBox="0 0 566.893424 235.260771" version="1.1">
<g id="surface6">
<path style="fill:none;stroke-width:0.708617;stroke-linecap:round;stroke-linejoin:round;stroke:rgb(0%,0%,0%);stroke-opacity:1;stroke-miterlimit:10;" d="M 448.257812 120.847656 L 446.957031 153.546875 L 445.246094 167.875 "/>
<path style="fill:none;stroke-width:0.708617;stroke-linecap:round;stroke-linejoin:round;stroke:rgb(0%,0%,0%);stroke-opacity:1;stroke-miterlimit:10;" d="M 422.695312 221.347656 L 415.867188 225.839844 L 408.152344 228.535156 L 400.019531 229.378906 "/>
<path style="fill:none;stroke-width:0.708617;stroke-linecap:round;stroke-linejoin:round;stroke:rgb(0%,0%,0%);stroke-opacity:1;stroke-miterlimit:10;" d="M 122.597656 114.414062 L 118.636719 114.414062 L 119.9375 81.710938 L 121.644531 67.382812 "/>
<path style="fill:none;stroke-width:0.708617;stroke-linecap:round;stroke-linejoin:round;stroke:rgb(0%,0%,0%);stroke-opacity:1;stroke-miterlimit:10;" d="M 428.378906 19.796875 L 432.953125 26.582031 L 436.589844 33.910156 L 439.984375 44.070312 "/>
<path style="fill:none;stroke-width:0.708617;stroke-linecap:round;stroke-linejoin:round;stroke:rgb(0%,0%,0%);stroke-opacity:1;stroke-miterlimit:10;" d="M 440.566406 117.628906 L 440.566406 114.414062 L 448.257812 114.414062 L 446.957031 81.714844 L 445.246094 67.382812 "/>
<path style="fill:none;stroke-width:0.708617;stroke-linecap:round;stroke-linejoin:round;stroke:rgb(0%,0%,0%);stroke-opacity:1;stroke-miterlimit:10;" d="M 126.324219 114.414062 L 126.324219 120.847656 L 118.636719 120.847656 "/>
<path style="fill:none;stroke-width:0.708617;stroke-linecap:round;stroke-linejoin:round;stroke:rgb(0%,0%,0%);stroke-opacity:1;stroke-miterlimit:10;" d="M 121.644531 167.875 L 119.9375 153.546875 L 118.636719 120.847656 L 118.636719 114.414062 "/>
<path style="fill:none;stroke-width:0.708617;stroke-linecap:round;stroke-linejoin:round;stroke:rgb(0%,0%,0%);stroke-opacity:1;stroke-miterlimit:10;" d="M 428.378906 215.464844 L 422.695312 221.347656 "/>
<path style="fill:none;stroke-width:0.708617;stroke-linecap:round;stroke-linejoin:round;stroke:rgb(0%,0%,0%);stroke-opacity:1;stroke-miterlimit:10;" d="M 400.019531 5.882812 L 408.148438 6.726562 L 415.863281 9.417969 L 422.695312 13.914062 L 428.378906 19.796875 "/>
<path style="fill:none;stroke-width:0.708617;stroke-linecap:round;stroke-linejoin:round;stroke:rgb(0%,0%,0%);stroke-opacity:1;stroke-miterlimit:10;" d="M 400.019531 227.265625 L 400.019531 229.378906 L 166.875 229.378906 L 166.875 228.484375 "/>
<path style="fill:none;stroke-width:0.708617;stroke-linecap:round;stroke-linejoin:round;stroke:rgb(0%,0%,0%);stroke-opacity:1;stroke-miterlimit:10;" d="M 400.019531 6.777344 L 400.019531 5.882812 L 166.875 5.882812 L 166.875 6.777344 "/>
<path style="fill:none;stroke-width:0.708617;stroke-linecap:round;stroke-linejoin:round;stroke:rgb(0%,0%,0%);stroke-opacity:1;stroke-miterlimit:10;" d="M 144.199219 13.914062 L 151.027344 9.421875 L 158.742188 6.726562 L 166.875 5.882812 "/>
<path style="fill:none;stroke-width:0.708617;stroke-linecap:round;stroke-linejoin:round;stroke:rgb(0%,0%,0%);stroke-opacity:1;stroke-miterlimit:10;" d="M 166.875 229.378906 L 158.742188 228.535156 L 151.027344 225.839844 L 144.199219 221.347656 L 138.515625 215.464844 L 133.941406 208.679688 L 130.304688 201.347656 "/>
<path style="fill:none;stroke-width:0.708617;stroke-linecap:round;stroke-linejoin:round;stroke:rgb(0%,0%,0%);stroke-opacity:1;stroke-miterlimit:10;" d="M 133.945312 26.578125 L 130.304688 33.910156 L 126.910156 44.070312 "/>
<path style="fill:none;stroke-width:0.708617;stroke-linecap:round;stroke-linejoin:round;stroke:rgb(0%,0%,0%);stroke-opacity:1;stroke-miterlimit:10;" d="M 144.199219 13.914062 L 138.515625 19.792969 L 133.945312 26.578125 "/>
<path style="fill:none;stroke-width:0.708617;stroke-linecap:round;stroke-linejoin:round;stroke:rgb(0%,0%,0%);stroke-opacity:1;stroke-miterlimit:10;" d="M 428.378906 215.464844 L 432.949219 208.683594 L 436.585938 201.351562 L 439.984375 191.1875 "/>
<path style="fill:none;stroke-width:0.708617;stroke-linecap:round;stroke-linejoin:round;stroke:rgb(0%,0%,0%);stroke-opacity:1;stroke-miterlimit:10;" d="M 130.304688 201.347656 L 126.910156 191.1875 "/>
<path style="fill:none;stroke-width:0.708617;stroke-linecap:round;stroke-linejoin:round;stroke:rgb(0%,0%,0%);stroke-opacity:1;stroke-miterlimit:10;" d="M 444.296875 120.847656 L 448.257812 120.847656 L 448.257812 114.414062 "/>
<path style="fill:none;stroke-width:0.708617;stroke-linecap:round;stroke-linejoin:round;stroke:rgb(0%,0%,0%);stroke-opacity:1;stroke-miterlimit:10;" d="M 359.019531 6.175781 L 207.875 6.175781 L 207.875 11.691406 "/>
<path style="fill:none;stroke-width:0.708617;stroke-linecap:round;stroke-linejoin:round;stroke:rgb(0%,0%,0%);stroke-opacity:1;stroke-miterlimit:10;" d="M 359.019531 6.175781 L 359.019531 11.691406 L 207.875 11.691406 "/>
<path style="fill:none;stroke-width:0.708617;stroke-linecap:round;stroke-linejoin:round;stroke:rgb(0%,0%,0%);stroke-opacity:1;stroke-miterlimit:10;" d="M 293.09375 226.636719 L 273.398438 226.636719 "/>
<path style="fill:none;stroke-width:0.708617;stroke-linecap:round;stroke-linejoin:round;stroke:rgb(0%,0%,0%);stroke-opacity:1;stroke-miterlimit:10;" d="M 229.179688 226.636719 L 215.214844 226.636719 L 215.214844 229.046875 L 207.175781 228.625 L 207.175781 227.265625 "/>
<path style="fill:none;stroke-width:0.708617;stroke-linecap:round;stroke-linejoin:round;stroke:rgb(0%,0%,0%);stroke-opacity:1;stroke-miterlimit:10;" d="M 215.214844 226.636719 L 207.175781 226.214844 "/>
<path style="fill:none;stroke-width:0.708617;stroke-linecap:round;stroke-linejoin:round;stroke:rgb(0%,0%,0%);stroke-opacity:1;stroke-miterlimit:10;" d="M 337.3125 226.636719 L 350.578125 226.636719 "/>
<path style="fill:none;stroke-width:0.708617;stroke-linecap:round;stroke-linejoin:round;stroke:rgb(0%,0%,0%);stroke-opacity:1;stroke-miterlimit:10;" d="M 358.617188 226.214844 L 350.578125 226.636719 L 350.578125 229.046875 L 215.214844 229.046875 "/>
<path style="fill:none;stroke-width:0.708617;stroke-linecap:round;stroke-linejoin:round;stroke:rgb(0%,0%,0%);stroke-opacity:1;stroke-miterlimit:10;" d="M 350.578125 229.046875 L 358.617188 228.625 L 358.617188 225.261719 L 358.617188 225.417969 "/>
<path style="fill:none;stroke-width:0.708617;stroke-linecap:round;stroke-linejoin:round;stroke:rgb(0%,0%,0%);stroke-opacity:1;stroke-miterlimit:10;" d="M 266.9375 228.398438 L 255.613281 228.75 L 251.289062 228.773438 "/>
<path style="fill:none;stroke-width:0.708617;stroke-linecap:round;stroke-linejoin:round;stroke:rgb(0%,0%,0%);stroke-opacity:1;stroke-miterlimit:10;" d="M 242.808594 228.679688 L 246.964844 228.75 L 251.289062 228.773438 "/>
<path style="fill:none;stroke-width:0.708617;stroke-linecap:round;stroke-linejoin:round;stroke:rgb(0%,0%,0%);stroke-opacity:1;stroke-miterlimit:10;" d="M 263.59375 228.5625 L 266.9375 228.398438 L 235.640625 228.398438 L 232.898438 228.1875 L 269.679688 228.1875 L 266.9375 228.398438 L 251.289062 228.773438 "/>
<path style="fill:none;stroke-width:0.708617;stroke-linecap:round;stroke-linejoin:round;stroke:rgb(0%,0%,0%);stroke-opacity:1;stroke-miterlimit:10;" d="M 242.808594 228.679688 L 238.984375 228.5625 L 251.289062 228.773438 L 235.640625 228.398438 L 238.984375 228.5625 L 246.964844 228.75 "/>
<path style="fill:none;stroke-width:0.708617;stroke-linecap:round;stroke-linejoin:round;stroke:rgb(0%,0%,0%);stroke-opacity:1;stroke-miterlimit:10;" d="M 263.59375 228.5625 L 259.769531 228.679688 L 255.613281 228.75 Z M 263.59375 228.5625 "/>
<path style="fill:none;stroke-width:0.708617;stroke-linecap:round;stroke-linejoin:round;stroke:rgb(0%,0%,0%);stroke-opacity:1;stroke-miterlimit:10;" d="M 465.953125 46.820312 L 437.511719 43.808594 L 437.992188 43.859375 L 439.46875 44.015625 L 465.804688 46.804688 "/>
<path style="fill:none;stroke-width:0.708617;stroke-linecap:round;stroke-linejoin:round;stroke:rgb(0%,0%,0%);stroke-opacity:1;stroke-miterlimit:10;" d="M 444.546875 67.382812 L 454.800781 67.382812 L 442.722656 67.382812 "/>
<path style="fill:none;stroke-width:0.708617;stroke-linecap:round;stroke-linejoin:round;stroke:rgb(0%,0%,0%);stroke-opacity:1;stroke-miterlimit:10;" d="M 462.726562 117.628906 L 462.21875 130.484375 L 460.707031 143.21875 L 458.21875 155.71875 L 454.800781 167.878906 L 444.546875 167.878906 "/>
<path style="fill:none;stroke-width:0.708617;stroke-linecap:round;stroke-linejoin:round;stroke:rgb(0%,0%,0%);stroke-opacity:1;stroke-miterlimit:10;" d="M 465.800781 188.457031 L 439.46875 191.242188 L 437.992188 191.398438 "/>
<path style="fill:none;stroke-width:0.708617;stroke-linecap:round;stroke-linejoin:round;stroke:rgb(0%,0%,0%);stroke-opacity:1;stroke-miterlimit:10;" d="M 128.902344 191.398438 L 127.425781 191.246094 L 101.09375 188.457031 "/>
<path style="fill:none;stroke-width:0.708617;stroke-linecap:round;stroke-linejoin:round;stroke:rgb(0%,0%,0%);stroke-opacity:1;stroke-miterlimit:10;" d="M 97.855469 55.199219 L 94.769531 63.578125 L 92.496094 72.355469 "/>
<path style="fill:none;stroke-width:0.708617;stroke-linecap:round;stroke-linejoin:round;stroke:rgb(0%,0%,0%);stroke-opacity:1;stroke-miterlimit:10;" d="M 122.347656 167.878906 L 112.09375 167.878906 "/>
<path style="fill:none;stroke-width:0.708617;stroke-linecap:round;stroke-linejoin:round;stroke:rgb(0%,0%,0%);stroke-opacity:1;stroke-miterlimit:10;" d="M 469.039062 180.0625 L 472.125 171.683594 L 473.261719 167.292969 "/>
<path style="fill:none;stroke-width:0.708617;stroke-linecap:round;stroke-linejoin:round;stroke:rgb(0%,0%,0%);stroke-opacity:1;stroke-miterlimit:10;" d="M 124.171875 167.878906 L 112.09375 167.878906 L 108.671875 155.71875 L 106.183594 143.21875 L 104.671875 130.484375 L 104.167969 117.628906 L 104.546875 107.988281 "/>
<path style="fill:none;stroke-width:0.708617;stroke-linecap:round;stroke-linejoin:round;stroke:rgb(0%,0%,0%);stroke-opacity:1;stroke-miterlimit:10;" d="M 104.167969 117.628906 L 104.546875 127.269531 "/>
<path style="fill:none;stroke-width:0.708617;stroke-linecap:round;stroke-linejoin:round;stroke:rgb(0%,0%,0%);stroke-opacity:1;stroke-miterlimit:10;" d="M 100.941406 188.441406 L 94.769531 171.683594 L 92.496094 162.90625 "/>
<path style="fill:none;stroke-width:0.708617;stroke-linecap:round;stroke-linejoin:round;stroke:rgb(0%,0%,0%);stroke-opacity:1;stroke-miterlimit:10;" d="M 469.039062 55.199219 L 472.125 63.578125 L 476.671875 81.132812 L 479.453125 99.238281 L 480.390625 117.628906 L 479.453125 136.019531 L 476.671875 154.128906 "/>
<path style="fill:none;stroke-width:0.708617;stroke-linecap:round;stroke-linejoin:round;stroke:rgb(0%,0%,0%);stroke-opacity:1;stroke-miterlimit:10;" d="M 122.347656 67.382812 L 112.09375 67.382812 "/>
<path style="fill:none;stroke-width:0.708617;stroke-linecap:round;stroke-linejoin:round;stroke:rgb(0%,0%,0%);stroke-opacity:1;stroke-miterlimit:10;" d="M 87.441406 99.238281 L 86.503906 117.628906 L 87.441406 136.019531 L 90.222656 154.128906 L 94.769531 171.683594 L 97.855469 180.0625 "/>
<path style="fill:none;stroke-width:0.708617;stroke-linecap:round;stroke-linejoin:round;stroke:rgb(0%,0%,0%);stroke-opacity:1;stroke-miterlimit:10;" d="M 127.425781 44.015625 L 101.09375 46.804688 "/>
<path style="fill:none;stroke-width:0.708617;stroke-linecap:round;stroke-linejoin:round;stroke:rgb(0%,0%,0%);stroke-opacity:1;stroke-miterlimit:10;" d="M 465.953125 46.820312 L 472.125 63.578125 L 473.261719 67.96875 "/>
<path style="fill:none;stroke-width:0.708617;stroke-linecap:round;stroke-linejoin:round;stroke:rgb(0%,0%,0%);stroke-opacity:1;stroke-miterlimit:10;" d="M 124.402344 65.851562 L 127.597656 50.058594 L 129.378906 43.808594 L 128.902344 43.859375 L 127.425781 44.015625 "/>
<path style="fill:none;stroke-width:0.708617;stroke-linecap:round;stroke-linejoin:round;stroke:rgb(0%,0%,0%);stroke-opacity:1;stroke-miterlimit:10;" d="M 166.875 228.484375 L 166.875 227.265625 "/>
<path style="fill:none;stroke-width:0.708617;stroke-linecap:round;stroke-linejoin:round;stroke:rgb(0%,0%,0%);stroke-opacity:1;stroke-miterlimit:10;" d="M 400.019531 6.777344 L 400.019531 9.839844 "/>
<path style="fill:none;stroke-width:0.708617;stroke-linecap:round;stroke-linejoin:round;stroke:rgb(0%,0%,0%);stroke-opacity:1;stroke-miterlimit:10;" d="M 166.875 9.839844 L 166.875 6.777344 "/>
<path style="fill:none;stroke-width:0.708617;stroke-linecap:round;stroke-linejoin:round;stroke:rgb(0%,0%,0%);stroke-opacity:1;stroke-miterlimit:10;" d="M 293.09375 225.6875 L 337.3125 225.6875 L 337.3125 223.75 L 337.3125 228.425781 "/>
<path style="fill:none;stroke-width:0.708617;stroke-linecap:round;stroke-linejoin:round;stroke:rgb(0%,0%,0%);stroke-opacity:1;stroke-miterlimit:10;" d="M 337.3125 225.6875 L 337.3125 228.425781 L 293.09375 228.425781 L 293.09375 223.75 "/>
<path style="fill:none;stroke-width:0.708617;stroke-linecap:round;stroke-linejoin:round;stroke:rgb(0%,0%,0%);stroke-opacity:1;stroke-miterlimit:10;" d="M 232.898438 228.1875 L 230.859375 227.9375 L 229.601562 227.652344 L 229.179688 227.339844 L 273.398438 227.339844 L 272.976562 226.992188 "/>
<path style="fill:none;stroke-width:0.708617;stroke-linecap:round;stroke-linejoin:round;stroke:rgb(0%,0%,0%);stroke-opacity:1;stroke-miterlimit:10;" d="M 269.679688 228.1875 L 271.71875 227.9375 L 230.859375 227.9375 "/>
<path style="fill:none;stroke-width:0.708617;stroke-linecap:round;stroke-linejoin:round;stroke:rgb(0%,0%,0%);stroke-opacity:1;stroke-miterlimit:10;" d="M 229.601562 227.652344 L 272.976562 227.652344 L 271.71875 227.9375 "/>
<path style="fill:none;stroke-width:0.708617;stroke-linecap:round;stroke-linejoin:round;stroke:rgb(0%,0%,0%);stroke-opacity:1;stroke-miterlimit:10;" d="M 299.320312 6.683594 L 295.324219 6.683594 L 296.675781 6.683594 "/>
<path style="fill:none;stroke-width:0.708617;stroke-linecap:round;stroke-linejoin:round;stroke:rgb(0%,0%,0%);stroke-opacity:1;stroke-miterlimit:10;" d="M 296.675781 6.683594 L 300.671875 6.683594 L 299.320312 6.683594 "/>
<path style="fill:none;stroke-width:0.708617;stroke-linecap:round;stroke-linejoin:round;stroke:rgb(0%,0%,0%);stroke-opacity:1;stroke-miterlimit:10;" d="M 274.035156 6.683594 L 274.976562 6.683594 L 266.21875 6.683594 "/>
<path style="fill:none;stroke-width:0.708617;stroke-linecap:round;stroke-linejoin:round;stroke:rgb(0%,0%,0%);stroke-opacity:1;stroke-miterlimit:10;" d="M 274.035156 6.683594 L 270.21875 6.683594 "/>
<path style="fill:none;stroke-width:0.708617;stroke-linecap:round;stroke-linejoin:round;stroke:rgb(0%,0%,0%);stroke-opacity:1;stroke-miterlimit:10;" d="M 294.019531 6.683594 L 295.324219 6.683594 L 294.019531 6.683594 "/>
<path style="fill:none;stroke-width:0.708617;stroke-linecap:round;stroke-linejoin:round;stroke:rgb(0%,0%,0%);stroke-opacity:1;stroke-miterlimit:10;" d="M 301.976562 6.683594 L 300.671875 6.683594 L 301.976562 6.683594 "/>
<path style="fill:none;stroke-width:0.708617;stroke-linecap:round;stroke-linejoin:round;stroke:rgb(0%,0%,0%);stroke-opacity:1;stroke-miterlimit:10;" d="M 294.019531 6.683594 L 291.242188 6.683594 "/>
<path style="fill:none;stroke-width:0.708617;stroke-linecap:round;stroke-linejoin:round;stroke:rgb(0%,0%,0%);stroke-opacity:1;stroke-miterlimit:10;" d="M 263.757812 6.683594 L 264.917969 6.683594 L 261.75 6.683594 Z M 263.757812 6.683594 "/>
<path style="fill:none;stroke-width:0.708617;stroke-linecap:round;stroke-linejoin:round;stroke:rgb(0%,0%,0%);stroke-opacity:1;stroke-miterlimit:10;" d="M 270.21875 6.683594 L 264.917969 6.683594 L 266.21875 6.683594 "/>
<path style="fill:none;stroke-width:0.708617;stroke-linecap:round;stroke-linejoin:round;stroke:rgb(0%,0%,0%);stroke-opacity:1;stroke-miterlimit:10;" d="M 304.082031 6.683594 L 301.976562 6.683594 L 303.136719 6.683594 "/>
<path style="fill:none;stroke-width:0.708617;stroke-linecap:round;stroke-linejoin:round;stroke:rgb(0%,0%,0%);stroke-opacity:1;stroke-miterlimit:10;" d="M 304.082031 6.683594 L 305.144531 6.683594 L 303.136719 6.683594 "/>
<path style="fill:none;stroke-width:0.708617;stroke-linecap:round;stroke-linejoin:round;stroke:rgb(0%,0%,0%);stroke-opacity:1;stroke-miterlimit:10;" d="M 276.042969 6.683594 L 276.164062 6.683594 L 274.976562 6.683594 Z M 276.042969 6.683594 "/>
<path style="fill:none;stroke-width:0.708617;stroke-linecap:round;stroke-linejoin:round;stroke:rgb(0%,0%,0%);stroke-opacity:1;stroke-miterlimit:10;" d="M 272.976562 227.652344 L 273.398438 227.339844 L 273.398438 224.933594 L 273.386719 224.886719 L 272.925781 224.566406 L 271.734375 224.207031 L 269.675781 223.789062 L 269.425781 223.75 "/>
<path style="fill:none;stroke-width:0.708617;stroke-linecap:round;stroke-linejoin:round;stroke:rgb(0%,0%,0%);stroke-opacity:1;stroke-miterlimit:10;" d="M 305.265625 6.683594 L 305.144531 6.683594 L 305.265625 6.683594 L 305.265625 11.691406 "/>
<path style="fill:none;stroke-width:0.708617;stroke-linecap:round;stroke-linejoin:round;stroke:rgb(0%,0%,0%);stroke-opacity:1;stroke-miterlimit:10;" d="M 261.628906 11.691406 L 261.628906 6.683594 L 261.75 6.683594 L 261.628906 6.683594 "/>
<path style="fill:none;stroke-width:0.708617;stroke-linecap:round;stroke-linejoin:round;stroke:rgb(0%,0%,0%);stroke-opacity:1;stroke-miterlimit:10;" d="M 290.730469 6.683594 L 291.242188 6.683594 L 290.730469 6.683594 L 290.730469 11.691406 "/>
<path style="fill:none;stroke-width:0.708617;stroke-linecap:round;stroke-linejoin:round;stroke:rgb(0%,0%,0%);stroke-opacity:1;stroke-miterlimit:10;" d="M 276.164062 6.683594 L 276.164062 11.691406 "/>
<path style="fill:none;stroke-width:0.708617;stroke-linecap:round;stroke-linejoin:round;stroke:rgb(0%,0%,0%);stroke-opacity:1;stroke-miterlimit:10;" d="M 266.960938 225.757812 L 269.691406 226.1875 L 271.726562 226.605469 L 230.851562 226.605469 L 229.601562 226.992188 L 229.179688 227.339844 L 229.179688 224.933594 L 229.1875 224.886719 L 229.652344 224.566406 "/>
<path style="fill:none;stroke-width:0.708617;stroke-linecap:round;stroke-linejoin:round;stroke:rgb(0%,0%,0%);stroke-opacity:1;stroke-miterlimit:10;" d="M 166.875 221.691406 L 166.875 227.265625 "/>
<path style="fill:none;stroke-width:0.708617;stroke-linecap:round;stroke-linejoin:round;stroke:rgb(0%,0%,0%);stroke-opacity:1;stroke-miterlimit:10;" d="M 283.445312 221.691406 L 400.019531 221.691406 L 400.019531 227.265625 "/>
<path style="fill:none;stroke-width:0.708617;stroke-linecap:round;stroke-linejoin:round;stroke:rgb(0%,0%,0%);stroke-opacity:1;stroke-miterlimit:10;" d="M 124.402344 65.851562 L 124.171875 67.382812 L 123.71875 67.386719 "/>
<path style="fill:none;stroke-width:0.708617;stroke-linecap:round;stroke-linejoin:round;stroke:rgb(0%,0%,0%);stroke-opacity:1;stroke-miterlimit:10;" d="M 123.71875 167.875 L 124.171875 167.878906 L 124.402344 169.402344 L 127.597656 185.199219 L 129.378906 191.449219 L 100.941406 188.441406 "/>
<path style="fill:none;stroke-width:0.708617;stroke-linecap:round;stroke-linejoin:round;stroke:rgb(0%,0%,0%);stroke-opacity:1;stroke-miterlimit:10;" d="M 207.175781 227.265625 L 207.175781 225.417969 L 207.171875 225.261719 L 215.214844 223.75 L 350.578125 223.75 L 358.617188 225.261719 "/>
<path style="fill:none;stroke-width:0.708617;stroke-linecap:round;stroke-linejoin:round;stroke:rgb(0%,0%,0%);stroke-opacity:1;stroke-miterlimit:10;" d="M 443.171875 67.386719 L 442.722656 67.382812 L 442.488281 65.855469 "/>
<path style="fill:none;stroke-width:0.708617;stroke-linecap:round;stroke-linejoin:round;stroke:rgb(0%,0%,0%);stroke-opacity:1;stroke-miterlimit:10;" d="M 454.800781 167.878906 L 442.722656 167.878906 L 443.171875 167.875 "/>
<path style="fill:none;stroke-width:0.708617;stroke-linecap:round;stroke-linejoin:round;stroke:rgb(0%,0%,0%);stroke-opacity:1;stroke-miterlimit:10;" d="M 439.292969 185.203125 L 437.511719 191.449219 L 437.992188 191.398438 "/>
<path style="fill:none;stroke-width:0.708617;stroke-linecap:round;stroke-linejoin:round;stroke:rgb(0%,0%,0%);stroke-opacity:1;stroke-miterlimit:10;" d="M 129.378906 191.449219 L 128.902344 191.398438 "/>
<path style="fill:none;stroke-width:0.708617;stroke-linecap:round;stroke-linejoin:round;stroke:rgb(0%,0%,0%);stroke-opacity:1;stroke-miterlimit:10;" d="M 291.242188 6.683594 L 294.019531 6.683594 "/>
<path style="fill:none;stroke-width:0.708617;stroke-linecap:round;stroke-linejoin:round;stroke:rgb(0%,0%,0%);stroke-opacity:1;stroke-miterlimit:10;" d="M 271.726562 226.605469 L 272.976562 226.992188 L 229.601562 226.992188 "/>
<path style="fill:none;stroke-width:0.708617;stroke-linecap:round;stroke-linejoin:round;stroke:rgb(0%,0%,0%);stroke-opacity:1;stroke-miterlimit:10;" d="M 233.152344 223.75 L 232.894531 223.789062 L 230.839844 224.207031 L 229.652344 224.566406 "/>
<path style="fill:none;stroke-width:0.708617;stroke-linecap:round;stroke-linejoin:round;stroke:rgb(0%,0%,0%);stroke-opacity:1;stroke-miterlimit:10;" d="M 439.292969 185.203125 L 442.488281 169.40625 L 442.722656 167.878906 "/>
<path style="fill:none;stroke-width:0.708617;stroke-linecap:round;stroke-linejoin:round;stroke:rgb(0%,0%,0%);stroke-opacity:1;stroke-miterlimit:10;" d="M 437.511719 43.808594 L 439.296875 50.0625 L 442.488281 65.855469 "/>
<path style="fill:none;stroke-width:0.708617;stroke-linecap:round;stroke-linejoin:round;stroke:rgb(0%,0%,0%);stroke-opacity:1;stroke-miterlimit:10;" d="M 476.671875 154.128906 L 472.125 171.683594 L 465.953125 188.441406 L 437.511719 191.449219 "/>
<path style="fill:none;stroke-width:0.708617;stroke-linecap:round;stroke-linejoin:round;stroke:rgb(0%,0%,0%);stroke-opacity:1;stroke-miterlimit:10;" d="M 124.171875 67.382812 L 112.09375 67.382812 L 108.671875 79.539062 "/>
<path style="fill:none;stroke-width:0.708617;stroke-linecap:round;stroke-linejoin:round;stroke:rgb(0%,0%,0%);stroke-opacity:1;stroke-miterlimit:10;" d="M 87.441406 99.238281 L 90.222656 81.132812 L 94.769531 63.578125 L 100.941406 46.820312 "/>
<path style="fill:none;stroke-width:0.708617;stroke-linecap:round;stroke-linejoin:round;stroke:rgb(0%,0%,0%);stroke-opacity:1;stroke-miterlimit:10;" d="M 104.167969 117.628906 L 104.671875 104.777344 L 106.183594 92.039062 L 108.671875 79.539062 "/>
<path style="fill:none;stroke-width:0.708617;stroke-linecap:round;stroke-linejoin:round;stroke:rgb(0%,0%,0%);stroke-opacity:1;stroke-miterlimit:10;" d="M 454.800781 67.382812 L 458.21875 79.539062 L 460.707031 92.039062 L 462.21875 104.777344 L 462.726562 117.628906 "/>
<path style="fill:none;stroke-width:0.708617;stroke-linecap:round;stroke-linejoin:round;stroke:rgb(0%,0%,0%);stroke-opacity:1;stroke-miterlimit:10;" d="M 100.941406 46.820312 L 129.378906 43.808594 "/>
<path style="fill:none;stroke-width:0.708617;stroke-linecap:round;stroke-linejoin:round;stroke:rgb(0%,0%,0%);stroke-opacity:1;stroke-miterlimit:10;" d="M 263.625 225.351562 L 266.960938 225.757812 L 235.617188 225.757812 L 232.886719 226.1875 L 230.851562 226.605469 "/>
<path style="fill:none;stroke-width:0.708617;stroke-linecap:round;stroke-linejoin:round;stroke:rgb(0%,0%,0%);stroke-opacity:1;stroke-miterlimit:10;" d="M 269.691406 226.1875 L 232.886719 226.1875 "/>
<path style="fill:none;stroke-width:0.708617;stroke-linecap:round;stroke-linejoin:round;stroke:rgb(0%,0%,0%);stroke-opacity:1;stroke-miterlimit:10;" d="M 263.625 225.351562 L 238.953125 225.351562 L 251.289062 224.710938 L 242.769531 225.011719 L 238.953125 225.351562 L 235.617188 225.757812 "/>
<path style="fill:none;stroke-width:0.708617;stroke-linecap:round;stroke-linejoin:round;stroke:rgb(0%,0%,0%);stroke-opacity:1;stroke-miterlimit:10;" d="M 444.296875 120.847656 L 440.566406 120.847656 L 440.277344 136.921875 "/>
<path style="fill:none;stroke-width:0.708617;stroke-linecap:round;stroke-linejoin:round;stroke:rgb(0%,0%,0%);stroke-opacity:1;stroke-miterlimit:10;" d="M 412.449219 16.308594 L 406.515625 14.238281 L 400.019531 13.570312 L 400.019531 9.839844 "/>
<path style="fill:none;stroke-width:0.708617;stroke-linecap:round;stroke-linejoin:round;stroke:rgb(0%,0%,0%);stroke-opacity:1;stroke-miterlimit:10;" d="M 166.875 9.839844 L 166.875 13.570312 L 160.378906 14.238281 L 154.441406 16.308594 L 149.148438 19.800781 "/>
<path style="fill:none;stroke-width:0.708617;stroke-linecap:round;stroke-linejoin:round;stroke:rgb(0%,0%,0%);stroke-opacity:1;stroke-miterlimit:10;" d="M 126.617188 98.339844 L 126.324219 114.414062 L 122.597656 114.414062 "/>
<path style="fill:none;stroke-width:0.708617;stroke-linecap:round;stroke-linejoin:round;stroke:rgb(0%,0%,0%);stroke-opacity:1;stroke-miterlimit:10;" d="M 255.636719 224.789062 L 259.808594 225.011719 L 251.289062 224.710938 L 263.625 225.351562 L 259.808594 225.011719 "/>
<path style="fill:none;stroke-width:0.708617;stroke-linecap:round;stroke-linejoin:round;stroke:rgb(0%,0%,0%);stroke-opacity:1;stroke-miterlimit:10;" d="M 242.769531 225.011719 L 246.941406 224.789062 L 251.289062 224.710938 L 255.636719 224.789062 "/>
<path style="fill:none;stroke-width:0.708617;stroke-linecap:round;stroke-linejoin:round;stroke:rgb(0%,0%,0%);stroke-opacity:1;stroke-miterlimit:10;" d="M 409.828125 55.117188 L 406.089844 56.195312 L 402.429688 56.53125 L 398.773438 56.195312 "/>
<path style="fill:none;stroke-width:0.708617;stroke-linecap:round;stroke-linejoin:round;stroke:rgb(0%,0%,0%);stroke-opacity:1;stroke-miterlimit:10;" d="M 419.253906 47.429688 L 416.644531 50.644531 L 413.429688 53.253906 L 409.828125 55.117188 "/>
<path style="fill:none;stroke-width:0.708617;stroke-linecap:round;stroke-linejoin:round;stroke:rgb(0%,0%,0%);stroke-opacity:1;stroke-miterlimit:10;" d="M 409.828125 17.742188 L 413.429688 19.609375 L 416.644531 22.21875 L 419.253906 25.433594 "/>
<path style="fill:none;stroke-width:0.708617;stroke-linecap:round;stroke-linejoin:round;stroke:rgb(0%,0%,0%);stroke-opacity:1;stroke-miterlimit:10;" d="M 395.03125 180.140625 L 398.773438 179.066406 L 402.429688 178.730469 L 406.089844 179.066406 L 409.828125 180.140625 "/>
<path style="fill:none;stroke-width:0.708617;stroke-linecap:round;stroke-linejoin:round;stroke:rgb(0%,0%,0%);stroke-opacity:1;stroke-miterlimit:10;" d="M 413.429688 215.652344 L 409.828125 217.515625 "/>
<path style="fill:none;stroke-width:0.708617;stroke-linecap:round;stroke-linejoin:round;stroke:rgb(0%,0%,0%);stroke-opacity:1;stroke-miterlimit:10;" d="M 426.28125 204.859375 L 429.523438 198.3125 L 434.328125 183.921875 L 437.421875 168.621094 L 439.296875 152.878906 L 440.277344 136.921875 "/>
<path style="fill:none;stroke-width:0.708617;stroke-linecap:round;stroke-linejoin:round;stroke:rgb(0%,0%,0%);stroke-opacity:1;stroke-miterlimit:10;" d="M 409.828125 180.140625 L 413.429688 182.007812 L 416.644531 184.617188 L 419.253906 187.832031 "/>
<path style="fill:none;stroke-width:0.708617;stroke-linecap:round;stroke-linejoin:round;stroke:rgb(0%,0%,0%);stroke-opacity:1;stroke-miterlimit:10;" d="M 409.828125 217.515625 L 406.089844 218.59375 L 402.429688 218.929688 L 398.773438 218.59375 L 395.03125 217.515625 "/>
<path style="fill:none;stroke-width:0.708617;stroke-linecap:round;stroke-linejoin:round;stroke:rgb(0%,0%,0%);stroke-opacity:1;stroke-miterlimit:10;" d="M 409.828125 17.742188 L 406.089844 16.667969 L 402.429688 16.332031 L 398.773438 16.667969 "/>
<path style="fill:none;stroke-width:0.708617;stroke-linecap:round;stroke-linejoin:round;stroke:rgb(0%,0%,0%);stroke-opacity:1;stroke-miterlimit:10;" d="M 132.566406 51.335938 L 137.367188 36.945312 L 140.613281 30.402344 L 144.527344 24.585938 L 149.148438 19.800781 "/>
<path style="fill:none;stroke-width:0.708617;stroke-linecap:round;stroke-linejoin:round;stroke:rgb(0%,0%,0%);stroke-opacity:1;stroke-miterlimit:10;" d="M 283.445312 221.691406 L 166.875 221.691406 L 160.378906 221.023438 L 154.441406 218.953125 L 149.144531 215.460938 "/>
<path style="fill:none;stroke-width:0.708617;stroke-linecap:round;stroke-linejoin:round;stroke:rgb(0%,0%,0%);stroke-opacity:1;stroke-miterlimit:10;" d="M 422.367188 24.589844 L 426.28125 30.40625 L 429.527344 36.949219 L 434.328125 51.339844 L 437.421875 66.644531 L 439.296875 82.382812 "/>
<path style="fill:none;stroke-width:0.708617;stroke-linecap:round;stroke-linejoin:round;stroke:rgb(0%,0%,0%);stroke-opacity:1;stroke-miterlimit:10;" d="M 419.253906 47.429688 L 421.117188 43.828125 L 422.195312 40.089844 L 422.53125 36.429688 L 420.96875 36.429688 L 420.65625 39.804688 "/>
<path style="fill:none;stroke-width:0.708617;stroke-linecap:round;stroke-linejoin:round;stroke:rgb(0%,0%,0%);stroke-opacity:1;stroke-miterlimit:10;" d="M 150.25 50.644531 L 147.640625 47.429688 L 145.773438 43.828125 L 144.699219 40.089844 "/>
<path style="fill:none;stroke-width:0.708617;stroke-linecap:round;stroke-linejoin:round;stroke:rgb(0%,0%,0%);stroke-opacity:1;stroke-miterlimit:10;" d="M 422.195312 32.773438 L 421.117188 29.035156 L 419.253906 25.433594 "/>
<path style="fill:none;stroke-width:0.708617;stroke-linecap:round;stroke-linejoin:round;stroke:rgb(0%,0%,0%);stroke-opacity:1;stroke-miterlimit:10;" d="M 132.566406 183.921875 L 129.472656 168.617188 L 127.597656 152.878906 L 126.617188 136.917969 L 126.324219 120.847656 "/>
<path style="fill:none;stroke-width:0.708617;stroke-linecap:round;stroke-linejoin:round;stroke:rgb(0%,0%,0%);stroke-opacity:1;stroke-miterlimit:10;" d="M 426.28125 204.859375 L 422.363281 210.675781 L 417.746094 215.460938 L 412.453125 218.953125 L 406.515625 221.023438 "/>
<path style="fill:none;stroke-width:0.708617;stroke-linecap:round;stroke-linejoin:round;stroke:rgb(0%,0%,0%);stroke-opacity:1;stroke-miterlimit:10;" d="M 422.53125 198.828125 L 422.195312 195.171875 L 421.117188 191.429688 L 419.253906 187.832031 "/>
<path style="fill:none;stroke-width:0.708617;stroke-linecap:round;stroke-linejoin:round;stroke:rgb(0%,0%,0%);stroke-opacity:1;stroke-miterlimit:10;" d="M 413.429688 215.652344 L 416.644531 213.042969 L 419.253906 209.828125 L 421.117188 206.226562 L 422.195312 202.488281 "/>
<path style="fill:none;stroke-width:0.708617;stroke-linecap:round;stroke-linejoin:round;stroke:rgb(0%,0%,0%);stroke-opacity:1;stroke-miterlimit:10;" d="M 422.53125 36.429688 L 422.195312 32.773438 "/>
<path style="fill:none;stroke-width:0.708617;stroke-linecap:round;stroke-linejoin:round;stroke:rgb(0%,0%,0%);stroke-opacity:1;stroke-miterlimit:10;" d="M 168.121094 56.195312 L 164.460938 56.53125 L 160.804688 56.195312 L 157.0625 55.117188 "/>
<path style="fill:none;stroke-width:0.708617;stroke-linecap:round;stroke-linejoin:round;stroke:rgb(0%,0%,0%);stroke-opacity:1;stroke-miterlimit:10;" d="M 183.148438 206.226562 L 181.285156 209.828125 "/>
<path style="fill:none;stroke-width:0.708617;stroke-linecap:round;stroke-linejoin:round;stroke:rgb(0%,0%,0%);stroke-opacity:1;stroke-miterlimit:10;" d="M 422.195312 202.488281 L 422.53125 198.828125 L 420.96875 198.828125 L 420.65625 202.203125 "/>
<path style="fill:none;stroke-width:0.708617;stroke-linecap:round;stroke-linejoin:round;stroke:rgb(0%,0%,0%);stroke-opacity:1;stroke-miterlimit:10;" d="M 144.363281 198.828125 L 144.699219 195.171875 L 145.773438 191.429688 "/>
<path style="fill:none;stroke-width:0.708617;stroke-linecap:round;stroke-linejoin:round;stroke:rgb(0%,0%,0%);stroke-opacity:1;stroke-miterlimit:10;" d="M 157.0625 180.140625 L 160.804688 179.066406 L 164.460938 178.730469 L 168.121094 179.066406 L 171.859375 180.140625 "/>
<path style="fill:none;stroke-width:0.708617;stroke-linecap:round;stroke-linejoin:round;stroke:rgb(0%,0%,0%);stroke-opacity:1;stroke-miterlimit:10;" d="M 145.925781 198.828125 L 144.363281 198.828125 L 144.699219 202.488281 L 145.773438 206.226562 "/>
<path style="fill:none;stroke-width:0.708617;stroke-linecap:round;stroke-linejoin:round;stroke:rgb(0%,0%,0%);stroke-opacity:1;stroke-miterlimit:10;" d="M 183.148438 206.226562 L 184.226562 202.488281 L 184.5625 198.828125 "/>
<path style="fill:none;stroke-width:0.708617;stroke-linecap:round;stroke-linejoin:round;stroke:rgb(0%,0%,0%);stroke-opacity:1;stroke-miterlimit:10;" d="M 178.675781 22.21875 L 175.460938 19.609375 L 171.859375 17.742188 L 168.121094 16.667969 L 164.460938 16.332031 L 160.804688 16.667969 L 157.0625 17.742188 L 153.464844 19.609375 "/>
<path style="fill:none;stroke-width:0.708617;stroke-linecap:round;stroke-linejoin:round;stroke:rgb(0%,0%,0%);stroke-opacity:1;stroke-miterlimit:10;" d="M 181.285156 209.828125 L 178.675781 213.042969 L 175.460938 215.652344 L 171.859375 217.515625 L 168.121094 218.59375 L 164.460938 218.929688 L 160.804688 218.59375 L 157.0625 217.515625 "/>
<path style="fill:none;stroke-width:0.708617;stroke-linecap:round;stroke-linejoin:round;stroke:rgb(0%,0%,0%);stroke-opacity:1;stroke-miterlimit:10;" d="M 168.121094 56.195312 L 171.859375 55.117188 L 175.460938 53.253906 L 178.675781 50.644531 "/>
<path style="fill:none;stroke-width:0.708617;stroke-linecap:round;stroke-linejoin:round;stroke:rgb(0%,0%,0%);stroke-opacity:1;stroke-miterlimit:10;" d="M 178.675781 22.21875 L 181.285156 25.433594 L 183.148438 29.035156 L 184.226562 32.773438 L 184.5625 36.429688 L 183 36.429688 "/>
<path style="fill:none;stroke-width:0.708617;stroke-linecap:round;stroke-linejoin:round;stroke:rgb(0%,0%,0%);stroke-opacity:1;stroke-miterlimit:10;" d="M 132.566406 183.921875 L 137.367188 198.3125 L 140.613281 204.855469 L 144.527344 210.671875 L 149.144531 215.460938 "/>
<path style="fill:none;stroke-width:0.708617;stroke-linecap:round;stroke-linejoin:round;stroke:rgb(0%,0%,0%);stroke-opacity:1;stroke-miterlimit:10;" d="M 183.148438 191.429688 L 184.226562 195.171875 L 184.5625 198.828125 L 183 198.828125 L 182.6875 195.457031 L 181.695312 192.007812 "/>
<path style="fill:none;stroke-width:0.708617;stroke-linecap:round;stroke-linejoin:round;stroke:rgb(0%,0%,0%);stroke-opacity:1;stroke-miterlimit:10;" d="M 184.226562 40.089844 L 184.5625 36.429688 "/>
<path style="fill:none;stroke-width:0.708617;stroke-linecap:round;stroke-linejoin:round;stroke:rgb(0%,0%,0%);stroke-opacity:1;stroke-miterlimit:10;" d="M 184.226562 40.089844 L 183.148438 43.828125 L 181.285156 47.429688 L 178.675781 50.644531 "/>
<path style="fill:none;stroke-width:0.708617;stroke-linecap:round;stroke-linejoin:round;stroke:rgb(0%,0%,0%);stroke-opacity:1;stroke-miterlimit:10;" d="M 171.859375 180.140625 L 175.460938 182.007812 L 178.675781 184.617188 L 181.285156 187.832031 L 183.148438 191.429688 "/>
<path style="fill:none;stroke-width:0.708617;stroke-linecap:round;stroke-linejoin:round;stroke:rgb(0%,0%,0%);stroke-opacity:1;stroke-miterlimit:10;" d="M 422.367188 24.589844 L 417.746094 19.800781 L 412.449219 16.308594 "/>
<path style="fill:none;stroke-width:0.708617;stroke-linecap:round;stroke-linejoin:round;stroke:rgb(0%,0%,0%);stroke-opacity:1;stroke-miterlimit:10;" d="M 147.226562 43.253906 L 146.234375 39.804688 L 145.925781 36.429688 L 144.363281 36.429688 L 144.699219 40.089844 "/>
<path style="fill:none;stroke-width:0.708617;stroke-linecap:round;stroke-linejoin:round;stroke:rgb(0%,0%,0%);stroke-opacity:1;stroke-miterlimit:10;" d="M 153.464844 19.609375 L 150.25 22.21875 L 147.640625 25.433594 L 145.773438 29.035156 L 144.699219 32.773438 L 144.363281 36.429688 "/>
<path style="fill:none;stroke-width:0.708617;stroke-linecap:round;stroke-linejoin:round;stroke:rgb(0%,0%,0%);stroke-opacity:1;stroke-miterlimit:10;" d="M 150.25 50.644531 L 153.464844 53.253906 L 157.0625 55.117188 "/>
<path style="fill:none;stroke-width:0.708617;stroke-linecap:round;stroke-linejoin:round;stroke:rgb(0%,0%,0%);stroke-opacity:1;stroke-miterlimit:10;" d="M 385.609375 25.433594 L 388.21875 22.21875 L 391.433594 19.609375 L 395.03125 17.742188 L 398.773438 16.667969 "/>
<path style="fill:none;stroke-width:0.708617;stroke-linecap:round;stroke-linejoin:round;stroke:rgb(0%,0%,0%);stroke-opacity:1;stroke-miterlimit:10;" d="M 400.019531 221.691406 L 406.515625 221.023438 "/>
<path style="fill:none;stroke-width:0.708617;stroke-linecap:round;stroke-linejoin:round;stroke:rgb(0%,0%,0%);stroke-opacity:1;stroke-miterlimit:10;" d="M 400.019531 13.570312 L 166.875 13.570312 "/>
<path style="fill:none;stroke-width:0.708617;stroke-linecap:round;stroke-linejoin:round;stroke:rgb(0%,0%,0%);stroke-opacity:1;stroke-miterlimit:10;" d="M 385.609375 25.433594 L 383.742188 29.035156 L 382.667969 32.773438 "/>
<path style="fill:none;stroke-width:0.708617;stroke-linecap:round;stroke-linejoin:round;stroke:rgb(0%,0%,0%);stroke-opacity:1;stroke-miterlimit:10;" d="M 382.332031 198.828125 L 382.667969 195.171875 L 383.742188 191.429688 L 385.609375 187.832031 L 388.21875 184.617188 "/>
<path style="fill:none;stroke-width:0.708617;stroke-linecap:round;stroke-linejoin:round;stroke:rgb(0%,0%,0%);stroke-opacity:1;stroke-miterlimit:10;" d="M 398.773438 56.195312 L 395.03125 55.117188 L 391.433594 53.253906 "/>
<path style="fill:none;stroke-width:0.708617;stroke-linecap:round;stroke-linejoin:round;stroke:rgb(0%,0%,0%);stroke-opacity:1;stroke-miterlimit:10;" d="M 382.332031 36.429688 L 382.667969 40.089844 L 383.742188 43.828125 "/>
<path style="fill:none;stroke-width:0.708617;stroke-linecap:round;stroke-linejoin:round;stroke:rgb(0%,0%,0%);stroke-opacity:1;stroke-miterlimit:10;" d="M 383.742188 206.226562 L 385.609375 209.828125 L 388.21875 213.042969 L 391.433594 215.652344 L 395.03125 217.515625 "/>
<path style="fill:none;stroke-width:0.708617;stroke-linecap:round;stroke-linejoin:round;stroke:rgb(0%,0%,0%);stroke-opacity:1;stroke-miterlimit:10;" d="M 153.464844 182.007812 L 157.0625 180.140625 "/>
<path style="fill:none;stroke-width:0.708617;stroke-linecap:round;stroke-linejoin:round;stroke:rgb(0%,0%,0%);stroke-opacity:1;stroke-miterlimit:10;" d="M 440.566406 114.414062 L 440.277344 98.339844 L 439.296875 82.382812 "/>
<path style="fill:none;stroke-width:0.708617;stroke-linecap:round;stroke-linejoin:round;stroke:rgb(0%,0%,0%);stroke-opacity:1;stroke-miterlimit:10;" d="M 383.742188 43.828125 L 385.609375 47.429688 L 388.21875 50.644531 L 391.433594 53.253906 "/>
<path style="fill:none;stroke-width:0.708617;stroke-linecap:round;stroke-linejoin:round;stroke:rgb(0%,0%,0%);stroke-opacity:1;stroke-miterlimit:10;" d="M 132.566406 51.335938 L 129.472656 66.640625 L 127.597656 82.378906 L 126.617188 98.339844 "/>
<path style="fill:none;stroke-width:0.708617;stroke-linecap:round;stroke-linejoin:round;stroke:rgb(0%,0%,0%);stroke-opacity:1;stroke-miterlimit:10;" d="M 157.0625 217.515625 L 153.464844 215.652344 L 150.25 213.042969 L 147.640625 209.828125 L 145.773438 206.226562 "/>
<path style="fill:none;stroke-width:0.708617;stroke-linecap:round;stroke-linejoin:round;stroke:rgb(0%,0%,0%);stroke-opacity:1;stroke-miterlimit:10;" d="M 383.742188 206.226562 L 382.667969 202.488281 L 382.332031 198.828125 L 383.894531 198.828125 L 384.203125 195.457031 "/>
<path style="fill:none;stroke-width:0.708617;stroke-linecap:round;stroke-linejoin:round;stroke:rgb(0%,0%,0%);stroke-opacity:1;stroke-miterlimit:10;" d="M 382.667969 32.773438 L 382.332031 36.429688 L 383.894531 36.429688 L 384.203125 33.058594 "/>
<path style="fill:none;stroke-width:0.708617;stroke-linecap:round;stroke-linejoin:round;stroke:rgb(0%,0%,0%);stroke-opacity:1;stroke-miterlimit:10;" d="M 145.773438 191.429688 L 147.640625 187.832031 L 150.25 184.617188 L 153.464844 182.007812 "/>
<path style="fill:none;stroke-width:0.708617;stroke-linecap:round;stroke-linejoin:round;stroke:rgb(0%,0%,0%);stroke-opacity:1;stroke-miterlimit:10;" d="M 395.03125 180.140625 L 391.433594 182.007812 L 388.21875 184.617188 "/>
<path style="fill:none;stroke-width:0.708617;stroke-linecap:round;stroke-linejoin:round;stroke:rgb(0%,0%,0%);stroke-opacity:1;stroke-miterlimit:10;" d="M 440.566406 117.628906 L 440.566406 120.847656 "/>
<path style="fill:none;stroke-width:0.708617;stroke-linecap:round;stroke-linejoin:round;stroke:rgb(0%,0%,0%);stroke-opacity:1;stroke-miterlimit:10;" d="M 145.925781 36.429688 L 146.234375 33.058594 L 147.226562 29.609375 L 148.949219 26.289062 L 151.355469 23.324219 L 154.320312 20.917969 "/>
<path style="fill:none;stroke-width:0.708617;stroke-linecap:round;stroke-linejoin:round;stroke:rgb(0%,0%,0%);stroke-opacity:1;stroke-miterlimit:10;" d="M 145.925781 198.828125 L 146.234375 202.203125 L 147.226562 205.652344 L 148.949219 208.972656 L 151.355469 211.9375 "/>
<path style="fill:none;stroke-width:0.708617;stroke-linecap:round;stroke-linejoin:round;stroke:rgb(0%,0%,0%);stroke-opacity:1;stroke-miterlimit:10;" d="M 148.949219 188.6875 L 147.226562 192.007812 L 146.234375 195.457031 L 145.925781 198.828125 "/>
<path style="fill:none;stroke-width:0.708617;stroke-linecap:round;stroke-linejoin:round;stroke:rgb(0%,0%,0%);stroke-opacity:1;stroke-miterlimit:10;" d="M 151.355469 49.539062 L 148.949219 46.574219 L 147.226562 43.253906 "/>
<path style="fill:none;stroke-width:0.708617;stroke-linecap:round;stroke-linejoin:round;stroke:rgb(0%,0%,0%);stroke-opacity:1;stroke-miterlimit:10;" d="M 412.574219 51.945312 L 415.539062 49.539062 L 417.945312 46.574219 L 419.664062 43.253906 L 420.65625 39.804688 "/>
<path style="fill:none;stroke-width:0.708617;stroke-linecap:round;stroke-linejoin:round;stroke:rgb(0%,0%,0%);stroke-opacity:1;stroke-miterlimit:10;" d="M 420.96875 36.429688 L 420.65625 33.058594 L 419.664062 29.609375 "/>
<path style="fill:none;stroke-width:0.708617;stroke-linecap:round;stroke-linejoin:round;stroke:rgb(0%,0%,0%);stroke-opacity:1;stroke-miterlimit:10;" d="M 167.835938 18.203125 L 164.460938 17.894531 L 161.089844 18.203125 L 157.640625 19.195312 L 154.320312 20.917969 "/>
<path style="fill:none;stroke-width:0.708617;stroke-linecap:round;stroke-linejoin:round;stroke:rgb(0%,0%,0%);stroke-opacity:1;stroke-miterlimit:10;" d="M 164.460938 54.96875 L 167.835938 54.65625 L 171.285156 53.667969 L 174.605469 51.945312 L 177.570312 49.539062 L 179.976562 46.574219 "/>
<path style="fill:none;stroke-width:0.708617;stroke-linecap:round;stroke-linejoin:round;stroke:rgb(0%,0%,0%);stroke-opacity:1;stroke-miterlimit:10;" d="M 171.285156 216.0625 L 167.835938 217.054688 L 164.460938 217.367188 L 161.089844 217.054688 L 157.640625 216.0625 L 154.320312 214.34375 L 151.355469 211.9375 "/>
<path style="fill:none;stroke-width:0.708617;stroke-linecap:round;stroke-linejoin:round;stroke:rgb(0%,0%,0%);stroke-opacity:1;stroke-miterlimit:10;" d="M 157.640625 181.59375 L 161.089844 180.601562 L 164.460938 180.292969 L 167.835938 180.601562 "/>
<path style="fill:none;stroke-width:0.708617;stroke-linecap:round;stroke-linejoin:round;stroke:rgb(0%,0%,0%);stroke-opacity:1;stroke-miterlimit:10;" d="M 151.355469 49.539062 L 154.320312 51.945312 L 157.640625 53.667969 L 161.089844 54.65625 L 164.460938 54.96875 "/>
<path style="fill:none;stroke-width:0.708617;stroke-linecap:round;stroke-linejoin:round;stroke:rgb(0%,0%,0%);stroke-opacity:1;stroke-miterlimit:10;" d="M 419.664062 29.609375 L 417.945312 26.289062 L 415.539062 23.324219 L 412.574219 20.917969 L 409.253906 19.195312 "/>
<path style="fill:none;stroke-width:0.708617;stroke-linecap:round;stroke-linejoin:round;stroke:rgb(0%,0%,0%);stroke-opacity:1;stroke-miterlimit:10;" d="M 383.894531 36.429688 L 384.203125 39.804688 L 385.195312 43.253906 L 386.917969 46.574219 L 389.324219 49.539062 L 392.289062 51.945312 L 395.609375 53.667969 L 399.058594 54.65625 L 402.429688 54.96875 L 405.804688 54.65625 L 409.253906 53.667969 L 412.574219 51.945312 "/>
<path style="fill:none;stroke-width:0.708617;stroke-linecap:round;stroke-linejoin:round;stroke:rgb(0%,0%,0%);stroke-opacity:1;stroke-miterlimit:10;" d="M 148.949219 188.6875 L 151.355469 185.722656 L 154.320312 183.316406 L 157.640625 181.59375 "/>
<path style="fill:none;stroke-width:0.708617;stroke-linecap:round;stroke-linejoin:round;stroke:rgb(0%,0%,0%);stroke-opacity:1;stroke-miterlimit:10;" d="M 420.65625 202.203125 L 419.664062 205.652344 L 417.945312 208.972656 L 415.539062 211.9375 L 412.574219 214.34375 L 409.253906 216.0625 "/>
<path style="fill:none;stroke-width:0.708617;stroke-linecap:round;stroke-linejoin:round;stroke:rgb(0%,0%,0%);stroke-opacity:1;stroke-miterlimit:10;" d="M 386.917969 188.6875 L 389.324219 185.722656 L 392.289062 183.316406 L 395.609375 181.59375 "/>
<path style="fill:none;stroke-width:0.708617;stroke-linecap:round;stroke-linejoin:round;stroke:rgb(0%,0%,0%);stroke-opacity:1;stroke-miterlimit:10;" d="M 392.289062 20.917969 L 395.609375 19.195312 L 399.058594 18.203125 L 402.429688 17.894531 L 405.804688 18.203125 L 409.253906 19.195312 "/>
<path style="fill:none;stroke-width:0.708617;stroke-linecap:round;stroke-linejoin:round;stroke:rgb(0%,0%,0%);stroke-opacity:1;stroke-miterlimit:10;" d="M 399.058594 217.054688 L 402.429688 217.367188 L 405.804688 217.054688 L 409.253906 216.0625 "/>
<path style="fill:none;stroke-width:0.708617;stroke-linecap:round;stroke-linejoin:round;stroke:rgb(0%,0%,0%);stroke-opacity:1;stroke-miterlimit:10;" d="M 392.289062 20.917969 L 389.324219 23.324219 L 386.917969 26.289062 L 385.195312 29.609375 L 384.203125 33.058594 "/>
<path style="fill:none;stroke-width:0.708617;stroke-linecap:round;stroke-linejoin:round;stroke:rgb(0%,0%,0%);stroke-opacity:1;stroke-miterlimit:10;" d="M 415.539062 185.722656 L 412.574219 183.316406 L 409.253906 181.59375 L 405.804688 180.601562 L 402.429688 180.292969 L 399.058594 180.601562 L 395.609375 181.59375 "/>
<path style="fill:none;stroke-width:0.708617;stroke-linecap:round;stroke-linejoin:round;stroke:rgb(0%,0%,0%);stroke-opacity:1;stroke-miterlimit:10;" d="M 174.605469 20.917969 L 171.285156 19.195312 L 167.835938 18.203125 "/>
<path style="fill:none;stroke-width:0.708617;stroke-linecap:round;stroke-linejoin:round;stroke:rgb(0%,0%,0%);stroke-opacity:1;stroke-miterlimit:10;" d="M 383.894531 198.828125 L 384.203125 202.203125 L 385.195312 205.652344 L 386.917969 208.972656 "/>
<path style="fill:none;stroke-width:0.708617;stroke-linecap:round;stroke-linejoin:round;stroke:rgb(0%,0%,0%);stroke-opacity:1;stroke-miterlimit:10;" d="M 420.65625 195.457031 L 419.664062 192.007812 L 417.945312 188.6875 L 415.539062 185.722656 "/>
<path style="fill:none;stroke-width:0.708617;stroke-linecap:round;stroke-linejoin:round;stroke:rgb(0%,0%,0%);stroke-opacity:1;stroke-miterlimit:10;" d="M 181.695312 192.007812 L 179.976562 188.6875 L 177.570312 185.722656 L 174.605469 183.316406 L 171.285156 181.59375 L 167.835938 180.601562 "/>
<path style="fill:none;stroke-width:0.708617;stroke-linecap:round;stroke-linejoin:round;stroke:rgb(0%,0%,0%);stroke-opacity:1;stroke-miterlimit:10;" d="M 386.917969 208.972656 L 389.324219 211.9375 L 392.289062 214.34375 "/>
<path style="fill:none;stroke-width:0.708617;stroke-linecap:round;stroke-linejoin:round;stroke:rgb(0%,0%,0%);stroke-opacity:1;stroke-miterlimit:10;" d="M 420.96875 198.828125 L 420.65625 195.457031 "/>
<path style="fill:none;stroke-width:0.708617;stroke-linecap:round;stroke-linejoin:round;stroke:rgb(0%,0%,0%);stroke-opacity:1;stroke-miterlimit:10;" d="M 181.695312 205.652344 L 179.976562 208.972656 L 177.570312 211.9375 L 174.605469 214.34375 L 171.285156 216.0625 "/>
<path style="fill:none;stroke-width:0.708617;stroke-linecap:round;stroke-linejoin:round;stroke:rgb(0%,0%,0%);stroke-opacity:1;stroke-miterlimit:10;" d="M 392.289062 214.34375 L 395.609375 216.0625 L 399.058594 217.054688 "/>
<path style="fill:none;stroke-width:0.708617;stroke-linecap:round;stroke-linejoin:round;stroke:rgb(0%,0%,0%);stroke-opacity:1;stroke-miterlimit:10;" d="M 179.976562 46.574219 L 181.695312 43.253906 L 182.6875 39.804688 L 183 36.429688 "/>
<path style="fill:none;stroke-width:0.708617;stroke-linecap:round;stroke-linejoin:round;stroke:rgb(0%,0%,0%);stroke-opacity:1;stroke-miterlimit:10;" d="M 384.203125 195.457031 L 385.195312 192.007812 L 386.917969 188.6875 "/>
<path style="fill:none;stroke-width:0.708617;stroke-linecap:round;stroke-linejoin:round;stroke:rgb(0%,0%,0%);stroke-opacity:1;stroke-miterlimit:10;" d="M 183 198.828125 L 182.6875 202.203125 L 181.695312 205.652344 "/>
<path style="fill:none;stroke-width:0.708617;stroke-linecap:round;stroke-linejoin:round;stroke:rgb(0%,0%,0%);stroke-opacity:1;stroke-miterlimit:10;" d="M 174.605469 20.917969 L 177.570312 23.324219 L 179.976562 26.289062 L 181.695312 29.609375 L 182.6875 33.058594 L 183 36.429688 "/>
</g>
</svg>
