<?xml version="1.0" encoding="UTF-8"?>
<svg xmlns="http://www.w3.org/2000/svg" xmlns:xlink="http://www.w3.org/1999/xlink" width="566.893424pt" height="235.260771pt" viewBox="0 0 566.893424 235.260771" version="1.1">
<g id="surface6">
<path style="fill:none;stroke-width:0.708617;stroke-linecap:round;stroke-linejoin:round;stroke:rgb(0%,0%,0%);stroke-opacity:1;stroke-miterlimit:10;" d="M 424.648438 163.488281 L 426.902344 163.367188 L 430.886719 142.480469 "/>
<path style="fill:none;stroke-width:0.708617;stroke-linecap:round;stroke-linejoin:round;stroke:rgb(0%,0%,0%);stroke-opacity:1;stroke-miterlimit:10;" d="M 134.460938 138.34375 L 139.992188 163.367188 L 142.246094 163.488281 L 137.886719 138.394531 "/>
<path style="fill:none;stroke-width:0.708617;stroke-linecap:round;stroke-linejoin:round;stroke:rgb(0%,0%,0%);stroke-opacity:1;stroke-miterlimit:10;" d="M 424.648438 70.972656 L 426.902344 71.09375 L 430.707031 88.308594 "/>
<path style="fill:none;stroke-width:0.708617;stroke-linecap:round;stroke-linejoin:round;stroke:rgb(0%,0%,0%);stroke-opacity:1;stroke-miterlimit:10;" d="M 134.195312 101.472656 L 139.992188 71.09375 L 142.246094 70.972656 L 137.472656 100.394531 "/>
<path style="fill:none;stroke-width:0.708617;stroke-linecap:round;stroke-linejoin:round;stroke:rgb(0%,0%,0%);stroke-opacity:1;stroke-miterlimit:10;" d="M 424.648438 70.972656 L 429.007812 96.070312 L 429.910156 107.902344 L 430.0625 122.1875 L 429.417969 134.066406 L 424.648438 163.488281 "/>
<path style="fill:none;stroke-width:0.708617;stroke-linecap:round;stroke-linejoin:round;stroke:rgb(0%,0%,0%);stroke-opacity:1;stroke-miterlimit:10;" d="M 413.03125 164.09375 L 419.089844 163.777344 L 424.648438 163.488281 "/>
<path style="fill:none;stroke-width:0.708617;stroke-linecap:round;stroke-linejoin:round;stroke:rgb(0%,0%,0%);stroke-opacity:1;stroke-miterlimit:10;" d="M 154.105469 70.351562 L 147.804688 70.683594 L 142.246094 70.972656 "/>
<path style="fill:none;stroke-width:0.708617;stroke-linecap:round;stroke-linejoin:round;stroke:rgb(0%,0%,0%);stroke-opacity:1;stroke-miterlimit:10;" d="M 142.246094 163.488281 L 147.804688 163.777344 "/>
<path style="fill:none;stroke-width:0.708617;stroke-linecap:round;stroke-linejoin:round;stroke:rgb(0%,0%,0%);stroke-opacity:1;stroke-miterlimit:10;" d="M 424.648438 70.972656 L 419.089844 70.683594 L 419.664062 93.523438 L 413 77.976562 "/>
<path style="fill:none;stroke-width:0.708617;stroke-linecap:round;stroke-linejoin:round;stroke:rgb(0%,0%,0%);stroke-opacity:1;stroke-miterlimit:10;" d="M 419.089844 163.777344 L 419.664062 140.9375 L 413.410156 155.523438 "/>
<path style="fill:none;stroke-width:0.708617;stroke-linecap:round;stroke-linejoin:round;stroke:rgb(0%,0%,0%);stroke-opacity:1;stroke-miterlimit:10;" d="M 147.230469 140.9375 L 147.804688 163.777344 L 154.054688 164.105469 "/>
<path style="fill:none;stroke-width:0.708617;stroke-linecap:round;stroke-linejoin:round;stroke:rgb(0%,0%,0%);stroke-opacity:1;stroke-miterlimit:10;" d="M 419.089844 70.683594 L 412.78125 70.351562 "/>
<path style="fill:none;stroke-width:0.708617;stroke-linecap:round;stroke-linejoin:round;stroke:rgb(0%,0%,0%);stroke-opacity:1;stroke-miterlimit:10;" d="M 153.878906 78.007812 L 147.230469 93.523438 L 147.804688 70.683594 "/>
<path style="fill:none;stroke-width:0.708617;stroke-linecap:round;stroke-linejoin:round;stroke:rgb(0%,0%,0%);stroke-opacity:1;stroke-miterlimit:10;" d="M 137.886719 138.394531 L 136.984375 126.5625 L 136.828125 112.273438 L 137.472656 100.394531 "/>
<path style="fill:none;stroke-width:0.708617;stroke-linecap:round;stroke-linejoin:round;stroke:rgb(0%,0%,0%);stroke-opacity:1;stroke-miterlimit:10;" d="M 147.230469 140.9375 L 153.800781 156.269531 "/>
<path style="fill:none;stroke-width:0.708617;stroke-linecap:round;stroke-linejoin:round;stroke:rgb(0%,0%,0%);stroke-opacity:1;stroke-miterlimit:10;" d="M 416.386719 124.757812 L 418.183594 117.230469 L 413.363281 90.621094 "/>
<path style="fill:none;stroke-width:0.708617;stroke-linecap:round;stroke-linejoin:round;stroke:rgb(0%,0%,0%);stroke-opacity:1;stroke-miterlimit:10;" d="M 153.507812 90.738281 L 148.707031 117.230469 L 153.371094 142.972656 "/>
<path style="fill:none;stroke-width:0.708617;stroke-linecap:round;stroke-linejoin:round;stroke:rgb(0%,0%,0%);stroke-opacity:1;stroke-miterlimit:10;" d="M 413.914062 140.796875 L 418.183594 117.230469 L 416.386719 109.703125 L 413.410156 92.210938 "/>
<path style="fill:none;stroke-width:0.708617;stroke-linecap:round;stroke-linejoin:round;stroke:rgb(0%,0%,0%);stroke-opacity:1;stroke-miterlimit:10;" d="M 152.777344 115.710938 L 150.507812 109.703125 L 153.460938 92.347656 "/>
<path style="fill:none;stroke-width:0.708617;stroke-linecap:round;stroke-linejoin:round;stroke:rgb(0%,0%,0%);stroke-opacity:1;stroke-miterlimit:10;" d="M 150.507812 124.757812 L 150.507812 109.703125 L 148.707031 117.230469 L 150.507812 124.757812 L 153.316406 141.269531 "/>
<path style="fill:none;stroke-width:0.708617;stroke-linecap:round;stroke-linejoin:round;stroke:rgb(0%,0%,0%);stroke-opacity:1;stroke-miterlimit:10;" d="M 413.722656 103.15625 L 416.386719 124.757812 L 413.929688 139.1875 "/>
<path style="fill:none;stroke-width:0.708617;stroke-linecap:round;stroke-linejoin:round;stroke:rgb(0%,0%,0%);stroke-opacity:1;stroke-miterlimit:10;" d="M 152.933594 129.390625 L 150.507812 109.703125 "/>
<path style="fill:none;stroke-width:0.708617;stroke-linecap:round;stroke-linejoin:round;stroke:rgb(0%,0%,0%);stroke-opacity:1;stroke-miterlimit:10;" d="M 414.085938 121.964844 L 416.386719 124.757812 L 416.386719 109.703125 "/>
<path style="fill:none;stroke-width:0.708617;stroke-linecap:round;stroke-linejoin:round;stroke:rgb(0%,0%,0%);stroke-opacity:1;stroke-miterlimit:10;" d="M 412.324219 179.980469 L 422.859375 186.0625 "/>
<path style="fill:none;stroke-width:0.708617;stroke-linecap:round;stroke-linejoin:round;stroke:rgb(0%,0%,0%);stroke-opacity:1;stroke-miterlimit:10;" d="M 422.859375 186.0625 L 430.417969 152.082031 L 432.125 117.230469 "/>
<path style="fill:none;stroke-width:0.708617;stroke-linecap:round;stroke-linejoin:round;stroke:rgb(0%,0%,0%);stroke-opacity:1;stroke-miterlimit:10;" d="M 154.566406 179.980469 L 142.851562 186.746094 L 135.15625 152.433594 L 133.417969 117.230469 "/>
<path style="fill:none;stroke-width:0.708617;stroke-linecap:round;stroke-linejoin:round;stroke:rgb(0%,0%,0%);stroke-opacity:1;stroke-miterlimit:10;" d="M 142.851562 47.714844 L 135.15625 82.027344 L 133.417969 117.230469 L 135.15625 152.433594 L 142.851562 186.746094 "/>
<path style="fill:none;stroke-width:0.708617;stroke-linecap:round;stroke-linejoin:round;stroke:rgb(0%,0%,0%);stroke-opacity:1;stroke-miterlimit:10;" d="M 234.578125 229.230469 L 230.816406 228.585938 "/>
<path style="fill:none;stroke-width:0.708617;stroke-linecap:round;stroke-linejoin:round;stroke:rgb(0%,0%,0%);stroke-opacity:1;stroke-miterlimit:10;" d="M 267.976562 228.585938 L 264.210938 229.230469 "/>
<path style="fill:none;stroke-width:0.708617;stroke-linecap:round;stroke-linejoin:round;stroke:rgb(0%,0%,0%);stroke-opacity:1;stroke-miterlimit:10;" d="M 237.402344 229.117188 L 234.578125 229.230469 L 234.527344 228.585938 "/>
<path style="fill:none;stroke-width:0.708617;stroke-linecap:round;stroke-linejoin:round;stroke:rgb(0%,0%,0%);stroke-opacity:1;stroke-miterlimit:10;" d="M 261.390625 229.117188 L 264.210938 229.230469 L 264.261719 228.585938 "/>
<path style="fill:none;stroke-width:0.708617;stroke-linecap:round;stroke-linejoin:round;stroke:rgb(0%,0%,0%);stroke-opacity:1;stroke-miterlimit:10;" d="M 249.398438 228.585938 L 249.394531 229.378906 L 261.230469 229.316406 "/>
<path style="fill:none;stroke-width:0.708617;stroke-linecap:round;stroke-linejoin:round;stroke:rgb(0%,0%,0%);stroke-opacity:1;stroke-miterlimit:10;" d="M 236.964844 228.585938 L 237.5625 229.316406 L 249.394531 229.378906 "/>
<path style="fill:none;stroke-width:0.708617;stroke-linecap:round;stroke-linejoin:round;stroke:rgb(0%,0%,0%);stroke-opacity:1;stroke-miterlimit:10;" d="M 261.828125 228.585938 L 261.230469 229.316406 "/>
<path style="fill:none;stroke-width:0.708617;stroke-linecap:round;stroke-linejoin:round;stroke:rgb(0%,0%,0%);stroke-opacity:1;stroke-miterlimit:10;" d="M 206.707031 5.882812 L 175.316406 6.445312 "/>
<path style="fill:none;stroke-width:0.708617;stroke-linecap:round;stroke-linejoin:round;stroke:rgb(0%,0%,0%);stroke-opacity:1;stroke-miterlimit:10;" d="M 206.707031 5.882812 L 213.085938 5.914062 L 353.808594 5.914062 L 360.1875 5.882812 "/>
<path style="fill:none;stroke-width:0.708617;stroke-linecap:round;stroke-linejoin:round;stroke:rgb(0%,0%,0%);stroke-opacity:1;stroke-miterlimit:10;" d="M 391.574219 6.445312 L 360.1875 5.882812 "/>
<path style="fill:none;stroke-width:0.708617;stroke-linecap:round;stroke-linejoin:round;stroke:rgb(0%,0%,0%);stroke-opacity:1;stroke-miterlimit:10;" d="M 359.785156 228.546875 L 359.785156 228.585938 L 359.785156 228.550781 L 207.105469 228.550781 "/>
<path style="fill:none;stroke-width:0.708617;stroke-linecap:round;stroke-linejoin:round;stroke:rgb(0%,0%,0%);stroke-opacity:1;stroke-miterlimit:10;" d="M 359.785156 228.585938 L 207.105469 228.585938 "/>
<path style="fill:none;stroke-width:0.708617;stroke-linecap:round;stroke-linejoin:round;stroke:rgb(0%,0%,0%);stroke-opacity:1;stroke-miterlimit:10;" d="M 207.105469 228.550781 L 207.105469 228.546875 L 207.105469 228.585938 Z M 207.105469 228.550781 "/>
<path style="fill:none;stroke-width:0.708617;stroke-linecap:round;stroke-linejoin:round;stroke:rgb(0%,0%,0%);stroke-opacity:1;stroke-miterlimit:10;" d="M 446.464844 158.820312 L 448.867188 117.230469 L 446.464844 75.644531 L 442.578125 55.175781 L 435.503906 35.605469 "/>
<path style="fill:none;stroke-width:0.708617;stroke-linecap:round;stroke-linejoin:round;stroke:rgb(0%,0%,0%);stroke-opacity:1;stroke-miterlimit:10;" d="M 435.503906 198.855469 L 442.578125 179.285156 L 446.464844 158.820312 "/>
<path style="fill:none;stroke-width:0.708617;stroke-linecap:round;stroke-linejoin:round;stroke:rgb(0%,0%,0%);stroke-opacity:1;stroke-miterlimit:10;" d="M 131.390625 35.605469 L 124.316406 55.175781 L 120.429688 75.640625 L 118.027344 117.230469 L 120.429688 158.820312 L 124.316406 179.285156 L 131.390625 198.855469 "/>
<path style="fill:none;stroke-width:0.708617;stroke-linecap:round;stroke-linejoin:round;stroke:rgb(0%,0%,0%);stroke-opacity:1;stroke-miterlimit:10;" d="M 427.6875 211.179688 L 435.503906 198.855469 L 435.503906 193.363281 L 422.859375 186.0625 L 430.417969 152.082031 L 432.125 117.230469 L 430.414062 82.382812 L 422.859375 48.398438 "/>
<path style="fill:none;stroke-width:0.708617;stroke-linecap:round;stroke-linejoin:round;stroke:rgb(0%,0%,0%);stroke-opacity:1;stroke-miterlimit:10;" d="M 435.503906 193.363281 L 412.160156 179.886719 L 412.386719 176.230469 L 414.128906 117.230469 L 412.386719 58.230469 L 412.160156 54.574219 L 435.503906 41.097656 L 435.503906 35.605469 "/>
<path style="fill:none;stroke-width:0.708617;stroke-linecap:round;stroke-linejoin:round;stroke:rgb(0%,0%,0%);stroke-opacity:1;stroke-miterlimit:10;" d="M 142.851562 186.746094 L 131.390625 193.363281 L 131.390625 198.855469 L 139.203125 211.179688 L 149.355469 220.566406 "/>
<path style="fill:none;stroke-width:0.708617;stroke-linecap:round;stroke-linejoin:round;stroke:rgb(0%,0%,0%);stroke-opacity:1;stroke-miterlimit:10;" d="M 131.390625 193.363281 L 154.730469 179.886719 L 154.507812 176.230469 "/>
<path style="fill:none;stroke-width:0.708617;stroke-linecap:round;stroke-linejoin:round;stroke:rgb(0%,0%,0%);stroke-opacity:1;stroke-miterlimit:10;" d="M 152.765625 117.230469 L 154.507812 58.230469 L 154.730469 54.574219 L 131.390625 41.097656 L 131.390625 35.605469 "/>
<path style="fill:none;stroke-width:0.708617;stroke-linecap:round;stroke-linejoin:round;stroke:rgb(0%,0%,0%);stroke-opacity:1;stroke-miterlimit:10;" d="M 131.390625 35.605469 L 139.207031 23.28125 L 149.355469 13.894531 "/>
<path style="fill:none;stroke-width:0.708617;stroke-linecap:round;stroke-linejoin:round;stroke:rgb(0%,0%,0%);stroke-opacity:1;stroke-miterlimit:10;" d="M 391.945312 6.445312 L 405.785156 8.367188 L 417.539062 13.894531 L 427.6875 23.28125 L 435.503906 35.605469 "/>
<path style="fill:none;stroke-width:0.708617;stroke-linecap:round;stroke-linejoin:round;stroke:rgb(0%,0%,0%);stroke-opacity:1;stroke-miterlimit:10;" d="M 412.324219 179.980469 L 413.878906 145.035156 L 414.128906 117.230469 "/>
<path style="fill:none;stroke-width:0.708617;stroke-linecap:round;stroke-linejoin:round;stroke:rgb(0%,0%,0%);stroke-opacity:1;stroke-miterlimit:10;" d="M 154.566406 179.980469 L 154.507812 176.230469 "/>
<path style="fill:none;stroke-width:0.708617;stroke-linecap:round;stroke-linejoin:round;stroke:rgb(0%,0%,0%);stroke-opacity:1;stroke-miterlimit:10;" d="M 152.765625 117.230469 L 152.640625 120.367188 L 154.507812 176.230469 "/>
<path style="fill:none;stroke-width:0.708617;stroke-linecap:round;stroke-linejoin:round;stroke:rgb(0%,0%,0%);stroke-opacity:1;stroke-miterlimit:10;" d="M 412.324219 54.480469 L 412.386719 58.230469 "/>
<path style="fill:none;stroke-width:0.708617;stroke-linecap:round;stroke-linejoin:round;stroke:rgb(0%,0%,0%);stroke-opacity:1;stroke-miterlimit:10;" d="M 154.507812 58.230469 L 154.566406 54.480469 "/>
<path style="fill:none;stroke-width:0.708617;stroke-linecap:round;stroke-linejoin:round;stroke:rgb(0%,0%,0%);stroke-opacity:1;stroke-miterlimit:10;" d="M 391.726562 228.015625 L 391.945312 228.015625 L 405.785156 226.097656 L 417.539062 220.566406 L 427.6875 211.179688 "/>
<path style="fill:none;stroke-width:0.708617;stroke-linecap:round;stroke-linejoin:round;stroke:rgb(0%,0%,0%);stroke-opacity:1;stroke-miterlimit:10;" d="M 175.316406 228.015625 L 206.707031 228.546875 "/>
<path style="fill:none;stroke-width:0.708617;stroke-linecap:round;stroke-linejoin:round;stroke:rgb(0%,0%,0%);stroke-opacity:1;stroke-miterlimit:10;" d="M 360.1875 228.546875 L 391.574219 228.015625 "/>
<path style="fill:none;stroke-width:0.708617;stroke-linecap:round;stroke-linejoin:round;stroke:rgb(0%,0%,0%);stroke-opacity:1;stroke-miterlimit:10;" d="M 206.707031 228.546875 L 360.1875 228.546875 "/>
<path style="fill:none;stroke-width:0.708617;stroke-linecap:round;stroke-linejoin:round;stroke:rgb(0%,0%,0%);stroke-opacity:1;stroke-miterlimit:10;" d="M 149.355469 13.894531 L 161.109375 8.363281 L 174.949219 6.445312 L 175.167969 6.445312 "/>
<path style="fill:none;stroke-width:0.708617;stroke-linecap:round;stroke-linejoin:round;stroke:rgb(0%,0%,0%);stroke-opacity:1;stroke-miterlimit:10;" d="M 175.167969 228.015625 L 174.953125 228.015625 L 161.109375 226.097656 L 149.355469 220.566406 "/>
<path style="fill:none;stroke-width:0.708617;stroke-linecap:round;stroke-linejoin:round;stroke:rgb(0%,0%,0%);stroke-opacity:1;stroke-miterlimit:10;" d="M 152.765625 117.230469 L 154.507812 176.230469 "/>
<path style="fill:none;stroke-width:0.708617;stroke-linecap:round;stroke-linejoin:round;stroke:rgb(0%,0%,0%);stroke-opacity:1;stroke-miterlimit:10;" d="M 174.109375 176.230469 L 409.769531 176.230469 "/>
<path style="fill:none;stroke-width:0.708617;stroke-linecap:round;stroke-linejoin:round;stroke:rgb(0%,0%,0%);stroke-opacity:1;stroke-miterlimit:10;" d="M 157.125 176.230469 L 174.109375 176.230469 L 174.109375 58.230469 L 392.785156 58.230469 "/>
<path style="fill:none;stroke-width:0.708617;stroke-linecap:round;stroke-linejoin:round;stroke:rgb(0%,0%,0%);stroke-opacity:1;stroke-miterlimit:10;" d="M 392.785156 176.230469 L 392.785156 58.230469 L 409.769531 58.230469 L 157.125 58.230469 L 174.109375 58.230469 "/>
<path style="fill:none;stroke-width:0.708617;stroke-linecap:round;stroke-linejoin:round;stroke:rgb(0%,0%,0%);stroke-opacity:1;stroke-miterlimit:10;" d="M 403.589844 207.425781 L 407.730469 202.984375 L 409.335938 196.859375 L 407.730469 190.734375 L 403.589844 186.289062 "/>
<path style="fill:none;stroke-width:0.708617;stroke-linecap:round;stroke-linejoin:round;stroke:rgb(0%,0%,0%);stroke-opacity:1;stroke-miterlimit:10;" d="M 409.335938 196.859375 L 406.878906 196.859375 "/>
<path style="fill:none;stroke-width:0.708617;stroke-linecap:round;stroke-linejoin:round;stroke:rgb(0%,0%,0%);stroke-opacity:1;stroke-miterlimit:10;" d="M 163.304688 186.289062 L 159.164062 190.730469 L 157.558594 196.859375 "/>
<path style="fill:none;stroke-width:0.708617;stroke-linecap:round;stroke-linejoin:round;stroke:rgb(0%,0%,0%);stroke-opacity:1;stroke-miterlimit:10;" d="M 160.015625 196.859375 L 157.558594 196.859375 L 159.164062 202.984375 L 163.304688 207.425781 L 168.988281 209.574219 L 175.316406 209.03125 L 181.734375 204.386719 L 179.410156 204.941406 L 171.398438 208.238281 L 168.988281 209.574219 "/>
<path style="fill:none;stroke-width:0.708617;stroke-linecap:round;stroke-linejoin:round;stroke:rgb(0%,0%,0%);stroke-opacity:1;stroke-miterlimit:10;" d="M 395.496094 26.222656 L 403.507812 29.519531 L 403.589844 27.035156 L 407.730469 31.476562 L 409.335938 37.605469 L 406.878906 37.605469 "/>
<path style="fill:none;stroke-width:0.708617;stroke-linecap:round;stroke-linejoin:round;stroke:rgb(0%,0%,0%);stroke-opacity:1;stroke-miterlimit:10;" d="M 409.335938 37.605469 L 407.730469 43.730469 L 403.589844 48.171875 "/>
<path style="fill:none;stroke-width:0.708617;stroke-linecap:round;stroke-linejoin:round;stroke:rgb(0%,0%,0%);stroke-opacity:1;stroke-miterlimit:10;" d="M 159.164062 43.730469 L 157.558594 37.605469 L 159.164062 31.476562 "/>
<path style="fill:none;stroke-width:0.708617;stroke-linecap:round;stroke-linejoin:round;stroke:rgb(0%,0%,0%);stroke-opacity:1;stroke-miterlimit:10;" d="M 163.347656 45.652344 L 160.015625 37.605469 L 157.558594 37.605469 "/>
<path style="fill:none;stroke-width:0.708617;stroke-linecap:round;stroke-linejoin:round;stroke:rgb(0%,0%,0%);stroke-opacity:1;stroke-miterlimit:10;" d="M 168.988281 24.886719 L 163.304688 27.035156 L 159.164062 31.476562 "/>
<path style="fill:none;stroke-width:0.708617;stroke-linecap:round;stroke-linejoin:round;stroke:rgb(0%,0%,0%);stroke-opacity:1;stroke-miterlimit:10;" d="M 159.164062 43.730469 L 163.304688 48.171875 L 168.988281 50.320312 "/>
<path style="fill:none;stroke-width:0.708617;stroke-linecap:round;stroke-linejoin:round;stroke:rgb(0%,0%,0%);stroke-opacity:1;stroke-miterlimit:10;" d="M 163.304688 186.289062 L 163.347656 188.808594 L 171.398438 185.476562 "/>
<path style="fill:none;stroke-width:0.708617;stroke-linecap:round;stroke-linejoin:round;stroke:rgb(0%,0%,0%);stroke-opacity:1;stroke-miterlimit:10;" d="M 179.445312 188.808594 L 171.398438 185.476562 L 168.988281 184.140625 L 163.304688 186.289062 "/>
<path style="fill:none;stroke-width:0.708617;stroke-linecap:round;stroke-linejoin:round;stroke:rgb(0%,0%,0%);stroke-opacity:1;stroke-miterlimit:10;" d="M 397.902344 184.140625 L 403.589844 186.289062 L 403.542969 188.808594 "/>
<path style="fill:none;stroke-width:0.708617;stroke-linecap:round;stroke-linejoin:round;stroke:rgb(0%,0%,0%);stroke-opacity:1;stroke-miterlimit:10;" d="M 163.304688 207.425781 L 163.386719 204.941406 L 160.015625 196.859375 L 163.347656 188.808594 "/>
<path style="fill:none;stroke-width:0.708617;stroke-linecap:round;stroke-linejoin:round;stroke:rgb(0%,0%,0%);stroke-opacity:1;stroke-miterlimit:10;" d="M 163.304688 27.035156 L 163.386719 29.519531 L 171.398438 26.222656 "/>
<path style="fill:none;stroke-width:0.708617;stroke-linecap:round;stroke-linejoin:round;stroke:rgb(0%,0%,0%);stroke-opacity:1;stroke-miterlimit:10;" d="M 387.445312 45.652344 L 395.496094 48.984375 L 403.542969 45.652344 L 403.589844 48.171875 L 397.902344 50.320312 "/>
<path style="fill:none;stroke-width:0.708617;stroke-linecap:round;stroke-linejoin:round;stroke:rgb(0%,0%,0%);stroke-opacity:1;stroke-miterlimit:10;" d="M 385.160156 30.074219 L 387.484375 29.519531 L 395.496094 26.222656 L 397.902344 24.886719 L 403.589844 27.035156 "/>
<path style="fill:none;stroke-width:0.708617;stroke-linecap:round;stroke-linejoin:round;stroke:rgb(0%,0%,0%);stroke-opacity:1;stroke-miterlimit:10;" d="M 163.304688 48.171875 L 163.347656 45.652344 L 171.398438 48.984375 L 168.988281 50.320312 L 175.316406 49.777344 "/>
<path style="fill:none;stroke-width:0.708617;stroke-linecap:round;stroke-linejoin:round;stroke:rgb(0%,0%,0%);stroke-opacity:1;stroke-miterlimit:10;" d="M 403.507812 204.941406 L 403.589844 207.425781 L 397.902344 209.574219 "/>
<path style="fill:none;stroke-width:0.708617;stroke-linecap:round;stroke-linejoin:round;stroke:rgb(0%,0%,0%);stroke-opacity:1;stroke-miterlimit:10;" d="M 397.902344 184.140625 L 391.574219 184.683594 L 385.160156 189.328125 L 387.445312 188.808594 L 395.496094 185.476562 Z M 397.902344 184.140625 "/>
<path style="fill:none;stroke-width:0.708617;stroke-linecap:round;stroke-linejoin:round;stroke:rgb(0%,0%,0%);stroke-opacity:1;stroke-miterlimit:10;" d="M 395.496094 185.476562 L 403.542969 188.808594 L 406.878906 196.859375 L 403.507812 204.941406 L 395.496094 208.238281 L 397.902344 209.574219 L 391.574219 209.03125 L 385.160156 204.386719 L 382.707031 196.859375 "/>
<path style="fill:none;stroke-width:0.708617;stroke-linecap:round;stroke-linejoin:round;stroke:rgb(0%,0%,0%);stroke-opacity:1;stroke-miterlimit:10;" d="M 168.988281 184.140625 L 175.316406 184.683594 L 181.734375 189.328125 L 179.445312 188.808594 L 182.78125 196.859375 "/>
<path style="fill:none;stroke-width:0.708617;stroke-linecap:round;stroke-linejoin:round;stroke:rgb(0%,0%,0%);stroke-opacity:1;stroke-miterlimit:10;" d="M 395.496094 48.984375 L 397.902344 50.320312 L 391.574219 49.777344 L 385.160156 45.132812 "/>
<path style="fill:none;stroke-width:0.708617;stroke-linecap:round;stroke-linejoin:round;stroke:rgb(0%,0%,0%);stroke-opacity:1;stroke-miterlimit:10;" d="M 168.988281 24.886719 L 175.316406 25.429688 L 181.734375 30.074219 L 179.410156 29.519531 L 171.398438 26.222656 Z M 168.988281 24.886719 "/>
<path style="fill:none;stroke-width:0.708617;stroke-linecap:round;stroke-linejoin:round;stroke:rgb(0%,0%,0%);stroke-opacity:1;stroke-miterlimit:10;" d="M 382.707031 37.605469 L 384.113281 37.605469 L 387.445312 45.652344 L 385.160156 45.132812 L 382.707031 37.605469 L 385.160156 30.074219 L 391.574219 25.429688 L 397.902344 24.886719 "/>
<path style="fill:none;stroke-width:0.708617;stroke-linecap:round;stroke-linejoin:round;stroke:rgb(0%,0%,0%);stroke-opacity:1;stroke-miterlimit:10;" d="M 175.636719 228.023438 L 175.167969 228.015625 "/>
<path style="fill:none;stroke-width:0.708617;stroke-linecap:round;stroke-linejoin:round;stroke:rgb(0%,0%,0%);stroke-opacity:1;stroke-miterlimit:10;" d="M 391.574219 6.445312 L 391.945312 6.445312 "/>
<path style="fill:none;stroke-width:0.708617;stroke-linecap:round;stroke-linejoin:round;stroke:rgb(0%,0%,0%);stroke-opacity:1;stroke-miterlimit:10;" d="M 391.726562 228.015625 L 175.167969 228.015625 "/>
<path style="fill:none;stroke-width:0.708617;stroke-linecap:round;stroke-linejoin:round;stroke:rgb(0%,0%,0%);stroke-opacity:1;stroke-miterlimit:10;" d="M 391.574219 6.445312 L 175.167969 6.445312 "/>
<path style="fill:none;stroke-width:0.708617;stroke-linecap:round;stroke-linejoin:round;stroke:rgb(0%,0%,0%);stroke-opacity:1;stroke-miterlimit:10;" d="M 387.445312 188.808594 L 384.113281 196.859375 L 382.707031 196.859375 L 385.160156 189.328125 "/>
<path style="fill:none;stroke-width:0.708617;stroke-linecap:round;stroke-linejoin:round;stroke:rgb(0%,0%,0%);stroke-opacity:1;stroke-miterlimit:10;" d="M 391.574219 176.230469 L 175.316406 176.230469 "/>
<path style="fill:none;stroke-width:0.708617;stroke-linecap:round;stroke-linejoin:round;stroke:rgb(0%,0%,0%);stroke-opacity:1;stroke-miterlimit:10;" d="M 181.734375 189.328125 L 184.1875 196.859375 L 181.734375 204.386719 "/>
<path style="fill:none;stroke-width:0.708617;stroke-linecap:round;stroke-linejoin:round;stroke:rgb(0%,0%,0%);stroke-opacity:1;stroke-miterlimit:10;" d="M 384.113281 196.859375 L 387.484375 204.941406 L 385.160156 204.386719 "/>
<path style="fill:none;stroke-width:0.708617;stroke-linecap:round;stroke-linejoin:round;stroke:rgb(0%,0%,0%);stroke-opacity:1;stroke-miterlimit:10;" d="M 184.1875 196.859375 L 182.78125 196.859375 L 179.410156 204.941406 "/>
<path style="fill:none;stroke-width:0.708617;stroke-linecap:round;stroke-linejoin:round;stroke:rgb(0%,0%,0%);stroke-opacity:1;stroke-miterlimit:10;" d="M 181.734375 30.074219 L 184.1875 37.605469 L 181.734375 45.132812 L 175.316406 49.777344 "/>
<path style="fill:none;stroke-width:0.708617;stroke-linecap:round;stroke-linejoin:round;stroke:rgb(0%,0%,0%);stroke-opacity:1;stroke-miterlimit:10;" d="M 182.78125 37.605469 L 179.445312 45.652344 L 181.734375 45.132812 "/>
<path style="fill:none;stroke-width:0.708617;stroke-linecap:round;stroke-linejoin:round;stroke:rgb(0%,0%,0%);stroke-opacity:1;stroke-miterlimit:10;" d="M 184.1875 37.605469 L 182.78125 37.605469 L 179.410156 29.519531 "/>
<path style="fill:none;stroke-width:0.708617;stroke-linecap:round;stroke-linejoin:round;stroke:rgb(0%,0%,0%);stroke-opacity:1;stroke-miterlimit:10;" d="M 387.484375 204.941406 L 395.496094 208.238281 "/>
<path style="fill:none;stroke-width:0.708617;stroke-linecap:round;stroke-linejoin:round;stroke:rgb(0%,0%,0%);stroke-opacity:1;stroke-miterlimit:10;" d="M 171.398438 208.238281 L 163.386719 204.941406 "/>
<path style="fill:none;stroke-width:0.708617;stroke-linecap:round;stroke-linejoin:round;stroke:rgb(0%,0%,0%);stroke-opacity:1;stroke-miterlimit:10;" d="M 384.113281 37.605469 L 387.484375 29.519531 "/>
<path style="fill:none;stroke-width:0.708617;stroke-linecap:round;stroke-linejoin:round;stroke:rgb(0%,0%,0%);stroke-opacity:1;stroke-miterlimit:10;" d="M 163.386719 29.519531 L 160.015625 37.605469 "/>
<path style="fill:none;stroke-width:0.708617;stroke-linecap:round;stroke-linejoin:round;stroke:rgb(0%,0%,0%);stroke-opacity:1;stroke-miterlimit:10;" d="M 403.542969 45.652344 L 406.878906 37.605469 L 403.507812 29.519531 "/>
<path style="fill:none;stroke-width:0.708617;stroke-linecap:round;stroke-linejoin:round;stroke:rgb(0%,0%,0%);stroke-opacity:1;stroke-miterlimit:10;" d="M 179.445312 45.652344 L 171.398438 48.984375 "/>
</g>
</svg>
