<?xml version="1.0" encoding="utf-8"?>
<!-- Generator: SVG Export - SVG Version: 6.00 Build 1  -->
<!-- FXGUID: [4FF42B85-82B9-11ED-9BEA-525400685065] SYMID: [18483]  -->
<svg xmlns="http://www.w3.org/2000/svg" version="1.1" ch_offset="0" color_bar_width="66" width="331.639926" height="173.473872" origin_x="160.95472" origin_y="57.99074" ch_offset_x="161.6735654" ch_offset_y="40" color_offset_x="160.95472" color_offset_y="-4">
  <g>
    <title>Layer 1</title>
    <g>
      <g>
        <polyline style="fill: gray;stroke: black;stroke-width: 1;" points="19.215608 68.714874, 17.131284 68.714874 17.131284 68.714874, 15.04696 68.714874 15.04696 68.714874, 12.96162 68.714874 12.96162 68.714874, 10.877296 68.714874 10.877296 68.714874, 8.792972 68.714874 8.792972 68.714874, 6.708648 68.714874 6.708648 68.714874, 4.624324 68.714874 4.624324 68.714874, 2.54 68.714874 2.54 68.714874, 2.54 66.077084 2.54 66.077084, 2.54 63.440056 2.54 63.440056, 2.54 60.803028 2.54 60.803028, 2.54 58.166 2.54 58.166, 2.54 55.52821 2.54 55.52821, 2.54 52.891182 2.54 52.891182, 2.54 50.254154 2.54 50.254154, 2.54 47.616364 2.54 47.616364, 4.624324 47.616364 4.624324 47.616364, 6.708648 47.616364 6.708648 47.616364, 8.792972 47.616364 8.792972 47.616364, 10.877296 47.616364 10.877296 47.616364, 12.96162 47.616364 12.96162 47.616364, 15.04696 47.616364 15.04696 47.616364, 17.131284 47.616364 17.131284 47.616364, 19.215608 47.616364 19.215608 47.616364, 19.215608 50.254154 19.215608 50.254154, 19.215608 52.891182 19.215608 52.891182, 19.215608 55.52821 19.215608 55.52821, 19.215608 58.166 19.215608 58.166, 19.215608 60.803028 19.215608 60.803028, 19.215608 63.440056 19.215608 63.440056, 19.215608 66.077084 19.215608 66.077084, 19.215608 68.714874 19.215608 68.714874, 19.215608 68.714874"/>
      </g>
      <g>
        <polyline style="fill: gray;stroke: black;stroke-width: 1;" points="302.264318 68.714874, 304.348642 68.714874 304.348642 68.714874, 306.432966 68.714874 306.432966 68.714874, 308.51729 68.714874 308.51729 68.714874, 310.601614 68.714874 310.601614 68.714874, 312.686192 68.714874 312.686192 68.714874, 314.771278 68.714874 314.771278 68.714874, 316.855602 68.714874 316.855602 68.714874, 318.939926 68.714874 318.939926 68.714874, 318.939926 66.077084 318.939926 66.077084, 318.939926 63.440056 318.939926 63.440056, 318.939926 60.803028 318.939926 60.803028, 318.939926 58.166 318.939926 58.166, 318.939926 55.52821 318.939926 55.52821, 318.939926 52.891182 318.939926 52.891182, 318.939926 50.254154 318.939926 50.254154, 318.939926 47.616364 318.939926 47.616364, 316.855602 47.616364 316.855602 47.616364, 314.771278 47.616364 314.771278 47.616364, 312.686192 47.616364 312.686192 47.616364, 310.601614 47.616364 310.601614 47.616364, 308.51729 47.616364 308.51729 47.616364, 306.432966 47.616364 306.432966 47.616364, 304.348642 47.616364 304.348642 47.616364, 302.264318 47.616364 302.264318 47.616364, 302.264318 50.254154 302.264318 50.254154, 302.264318 52.891182 302.264318 52.891182, 302.264318 55.52821 302.264318 55.52821, 302.264318 58.166 302.264318 58.166, 302.264318 60.803028 302.264318 60.803028, 302.264318 63.440056 302.264318 63.440056, 302.264318 66.077084 302.264318 66.077084, 302.264318 68.714874 302.264318 68.714874, 302.264318 68.714874"/>
      </g>
      <g>
        <polyline style="fill: gray;stroke: black;stroke-width: 1;" points="293.926006 64.936116, 294.968676 64.936116 294.968676 64.936116, 296.01033 64.936116 296.01033 64.936116, 297.053 64.936116 297.053 64.936116, 298.094654 64.936116 298.094654 64.936116, 299.137324 64.936116 299.137324 64.936116, 300.179994 64.936116 300.179994 64.936116, 301.221648 64.936116 301.221648 64.936116, 302.264318 64.936116 302.264318 64.936116, 302.264318 63.164974 302.264318 63.164974, 302.264318 61.393832 302.264318 61.393832, 302.264318 59.622436 302.264318 59.622436, 302.264318 57.851294 302.264318 57.851294, 302.264318 56.080152 302.264318 56.080152, 302.264318 54.308756 302.264318 54.308756, 302.264318 52.537614 302.264318 52.537614, 302.264318 50.766472 302.264318 50.766472, 301.221648 50.766472 301.221648 50.766472, 300.179994 50.766472 300.179994 50.766472, 299.137324 50.766472 299.137324 50.766472, 298.094654 50.766472 298.094654 50.766472, 297.053 50.766472 297.053 50.766472, 296.01033 50.766472 296.01033 50.766472, 294.968676 50.766472 294.968676 50.766472, 293.926006 50.766472 293.926006 50.766472, 293.926006 52.537614 293.926006 52.537614, 293.926006 54.308756 293.926006 54.308756, 293.926006 56.080152 293.926006 56.080152, 293.926006 57.851294 293.926006 57.851294, 293.926006 59.622436 293.926006 59.622436, 293.926006 61.393832 293.926006 61.393832, 293.926006 63.164974 293.926006 63.164974, 293.926006 64.936116 293.926006 64.936116, 293.926006 64.936116"/>
      </g>
      <g>
        <polyline style="fill: gray;stroke: black;stroke-width: 1;" points="293.926006 73.753472, 260.629654 73.753472 260.629654 73.753472, 227.333048 73.753472 227.333048 73.753472, 194.035934 73.753472 194.035934 73.753472, 160.739582 73.753472 160.739582 73.753472, 127.44323 73.753472 127.44323 73.753472, 94.146624 73.753472 94.146624 73.753472, 60.850272 73.753472 60.850272 73.753472, 27.553158 73.753472 27.553158 73.753472, 27.553158 69.856096 27.553158 69.856096, 27.553158 65.959228 27.553158 65.959228, 27.553158 62.062614 27.553158 62.062614, 27.553158 58.166 27.553158 58.166, 27.553158 54.268624 27.553158 54.268624, 27.553158 50.37201 27.553158 50.37201, 27.553158 46.475142 27.553158 46.475142, 27.553158 42.577766 27.553158 42.577766, 60.850272 42.577766 60.850272 42.577766, 94.146624 42.577766 94.146624 42.577766, 127.44323 42.577766 127.44323 42.577766, 160.739582 42.577766 160.739582 42.577766, 194.035934 42.577766 194.035934 42.577766, 227.333048 42.577766 227.333048 42.577766, 260.629654 42.577766 260.629654 42.577766, 293.926006 42.577766 293.926006 42.577766, 293.926006 46.475142 293.926006 46.475142, 293.926006 50.37201 293.926006 50.37201, 293.926006 54.268624 293.926006 54.268624, 293.926006 58.166 293.926006 58.166, 293.926006 62.062614 293.926006 62.062614, 293.926006 65.959228 293.926006 65.959228, 293.926006 69.856096 293.926006 69.856096, 293.926006 73.753472 293.926006 73.753472, 293.926006 73.753472"/>
      </g>
      <g>
        <polyline style="fill: gray;stroke: black;stroke-width: 1;" points="27.553158 64.936116, 26.51125 64.936116 26.51125 64.936116, 25.468834 64.936116 25.468834 64.936116, 24.426926 64.936116 24.426926 64.936116, 23.384256 64.936116 23.384256 64.936116, 22.342602 64.936116 22.342602 64.936116, 21.299932 64.936116 21.299932 64.936116, 20.257516 64.936116 20.257516 64.936116, 19.215608 64.936116 19.215608 64.936116, 19.215608 63.164974 19.215608 63.164974, 19.215608 61.393832 19.215608 61.393832, 19.215608 59.622436 19.215608 59.622436, 19.215608 57.851294 19.215608 57.851294, 19.215608 56.080152 19.215608 56.080152, 19.215608 54.308756 19.215608 54.308756, 19.215608 52.537614 19.215608 52.537614, 19.215608 50.766472 19.215608 50.766472, 20.257516 50.766472 20.257516 50.766472, 21.299932 50.766472 21.299932 50.766472, 22.342602 50.766472 22.342602 50.766472, 23.384256 50.766472 23.384256 50.766472, 24.426926 50.766472 24.426926 50.766472, 25.468834 50.766472 25.468834 50.766472, 26.51125 50.766472 26.51125 50.766472, 27.553158 50.766472 27.553158 50.766472, 27.553158 52.537614 27.553158 52.537614, 27.553158 54.308756 27.553158 54.308756, 27.553158 56.080152 27.553158 56.080152, 27.553158 57.851294 27.553158 57.851294, 27.553158 59.622436 27.553158 59.622436, 27.553158 61.393832 27.553158 61.393832, 27.553158 63.164974 27.553158 63.164974, 27.553158 64.936116 27.553158 64.936116, 27.553158 64.936116"/>
      </g>
      <g>
        <polyline style="fill: gray;stroke: black;stroke-width: 1;" points="163.42233 57.851294, 163.278058 59.279028 163.278058 59.279028, 162.865816 60.609226 162.865816 60.609226, 162.212274 61.81217 162.212274 61.81217, 161.34715 62.860936 161.34715 62.860936, 160.298384 63.72606 160.298384 63.72606, 159.09544 64.379602 159.09544 64.379602, 157.765242 64.791844 157.765242 64.791844, 156.337508 64.936116 156.337508 64.936116, 154.909774 64.791844 154.909774 64.791844, 153.579576 64.379602 153.579576 64.379602, 152.375616 63.72606 152.375616 63.72606, 151.327612 62.860936 151.327612 62.860936, 150.462742 61.81217 150.462742 61.81217, 149.808438 60.609226 149.808438 60.609226, 149.395942 59.279028 149.395942 59.279028, 149.251924 57.851294 149.251924 57.851294, 149.395942 56.42356 149.395942 56.42356, 149.808438 55.093362 149.808438 55.093362, 150.462742 53.889402 150.462742 53.889402, 151.327612 52.841398 151.327612 52.841398, 152.375616 51.976528 152.375616 51.976528, 153.579576 51.322986 153.579576 51.322986, 154.909774 50.909728 154.909774 50.909728, 156.337508 50.766472 156.337508 50.766472, 157.765242 50.909728 157.765242 50.909728, 159.09544 51.322986 159.09544 51.322986, 160.298384 51.976528 160.298384 51.976528, 161.34715 52.841398 161.34715 52.841398, 162.212274 53.889402 162.212274 53.889402, 162.865816 55.093362 162.865816 55.093362, 163.278058 56.42356 163.278058 56.42356, 163.42233 57.851294 163.42233 57.851294, 163.42233 57.851294"/>
      </g>
      <g>
        <polyline style="fill: transparent;stroke: black;stroke-width: 1;" points="291.2491 42.587926, 291.648134 42.587926 291.648134 42.587926, 292.047422 42.587926 292.047422 42.587926, 292.44671 42.587926 292.44671 42.587926, 292.845744 42.587926 292.845744 42.587926, 293.245794 42.587926 293.245794 42.587926, 293.64432 42.587926 293.64432 42.587926, 294.044116 42.587926 294.044116 42.587926, 294.442642 42.587926 294.442642 42.587926, 294.442642 46.485302 294.442642 46.485302, 294.442642 50.38217 294.442642 50.38217, 294.442642 54.278784 294.442642 54.278784, 294.442642 58.17616 294.442642 58.17616, 294.442642 62.072774 294.442642 62.072774, 294.442642 65.969388 294.442642 65.969388, 294.442642 69.866256 294.442642 69.866256, 294.442642 73.763632 294.442642 73.763632, 294.044116 73.763632 294.044116 73.763632, 293.64432 73.763632 293.64432 73.763632, 293.245794 73.763632 293.245794 73.763632, 292.845744 73.763632 292.845744 73.763632, 292.44671 73.763632 292.44671 73.763632, 292.047422 73.763632 292.047422 73.763632, 291.648134 73.763632 291.648134 73.763632, 291.2491 73.763632"/>
      </g>
      <g>
        <polyline style="fill: transparent;stroke: black;stroke-width: 1;" points="31.664148 42.587926, 31.26486 42.587926 31.26486 42.587926, 30.865572 42.587926 30.865572 42.587926, 30.466538 42.587926 30.466538 42.587926, 30.06725 42.587926 30.06725 42.587926, 29.667962 42.587926 29.667962 42.587926, 29.268928 42.587926 29.268928 42.587926, 28.86964 42.587926 28.86964 42.587926, 28.46959 42.587926 28.46959 42.587926, 28.46959 46.485302 28.46959 46.485302, 28.46959 50.38217 28.46959 50.38217, 28.46959 54.278784 28.46959 54.278784, 28.46959 58.17616 28.46959 58.17616, 28.46959 62.072774 28.46959 62.072774, 28.46959 65.969388 28.46959 65.969388, 28.46959 69.866256 28.46959 69.866256, 28.46959 73.763632 28.46959 73.763632, 28.86964 73.763632 28.86964 73.763632, 29.268928 73.763632 29.268928 73.763632, 29.667962 73.763632 29.667962 73.763632, 30.06725 73.763632 30.06725 73.763632, 30.466538 73.763632 30.466538 73.763632, 30.865572 73.763632 30.865572 73.763632, 31.26486 73.763632 31.26486 73.763632, 31.664148 73.763632"/>
      </g>
      <g>
        <polyline style="fill: gray;stroke: black;stroke-width: 1;" points="257.190748 160.773872, 266.118848 157.13837 266.118848 157.13837, 273.458686 147.335748 273.458686 147.335748, 279.334976 133.01726 279.334976 133.01726, 283.867352 115.834668 283.867352 115.834668, 287.180274 97.44202 287.180274 97.44202, 289.3949 79.491078 289.3949 79.491078, 290.63442 63.634112 290.63442 63.634112, 291.019484 51.5239 291.019484 51.5239, 291.019484 42.00271 291.019484 42.00271, 291.019484 32.97301 291.019484 32.97301, 291.019484 24.67356 291.019484 24.67356, 291.019484 17.345406 291.019484 17.345406, 291.019484 11.227816 291.019484 11.227816, 291.019484 6.561582 291.019484 6.561582, 291.019484 3.585718 291.019484 3.585718, 291.019484 2.54 291.019484 2.54, 287.91281 2.54 287.91281 2.54, 284.805882 2.54 284.805882 2.54, 281.699208 2.54 281.699208 2.54, 278.592534 2.54 278.592534 2.54, 275.485606 2.54 275.485606 2.54, 272.378932 2.54 272.378932 2.54, 269.272004 2.54 269.272004 2.54, 266.164568 2.54 266.164568 2.54, 266.164568 3.453892 266.164568 3.453892, 266.164568 4.368546 266.164568 4.368546, 266.164568 5.282438 266.164568 5.282438, 266.164568 6.19633 266.164568 6.19633, 266.164568 7.110984 266.164568 7.110984, 266.164568 8.024876 266.164568 8.024876, 266.164568 8.938768 266.164568 8.938768, 266.164568 9.85266 266.164568 9.85266, 267.946632 9.85266 267.946632 9.85266, 269.728696 9.85266 269.728696 9.85266, 271.51076 9.85266 271.51076 9.85266, 273.292062 9.85266 273.292062 9.85266, 275.074888 9.85266 275.074888 9.85266, 276.85619 9.85266 276.85619 9.85266, 278.638254 9.85266 278.638254 9.85266, 280.420318 9.85266 280.420318 9.85266, 280.420318 10.812272 280.420318 10.812272, 280.420318 11.772138 280.420318 11.772138, 280.420318 12.73175 280.420318 12.73175, 280.420318 13.691362 280.420318 13.691362, 280.420318 14.650974 280.420318 14.650974, 280.420318 15.609824 280.420318 15.609824, 280.420318 16.569436 280.420318 16.569436, 280.420318 17.529048 280.420318 17.529048, 269.774416 17.529048 269.774416 17.529048, 259.127752 17.529048 259.127752 17.529048, 248.48185 17.529048 248.48185 17.529048, 237.835186 17.529048 237.835186 17.529048, 227.189284 17.529048 227.189284 17.529048, 216.543382 17.529048 216.543382 17.529048, 205.896972 17.529048 205.896972 17.529048, 195.250308 17.529048 195.250308 17.529048, 195.250308 15.884144 195.250308 15.884144, 195.250308 14.23924 195.250308 14.23924, 195.250308 12.594336 195.250308 12.594336, 195.250308 10.949686 195.250308 10.949686, 195.250308 9.304782 195.250308 9.304782, 195.250308 7.659878 195.250308 7.659878, 195.250308 6.014974 195.250308 6.014974, 195.250308 4.37007 195.250308 4.37007, 191.713104 4.37007 191.713104 4.37007, 188.17463 4.37007 188.17463 4.37007, 184.636918 4.37007 184.636918 4.37007, 181.099206 4.37007 181.099206 4.37007, 177.56124 4.37007 177.56124 4.37007, 174.023528 4.37007 174.023528 4.37007, 170.485816 4.37007 170.485816 4.37007, 166.947342 4.37007 166.947342 4.37007, 165.45814 4.37007 165.45814 4.37007, 163.969192 4.37007 163.969192 4.37007, 162.479228 4.37007 162.479228 4.37007, 160.99028 4.37007 160.99028 4.37007, 159.50057 4.37007 159.50057 4.37007, 158.010606 4.37007 158.010606 4.37007, 156.521658 4.37007 156.521658 4.37007, 155.032456 4.37007 155.032456 4.37007, 151.493982 4.37007 151.493982 4.37007, 147.957032 4.37007 147.957032 4.37007, 144.418304 4.37007 144.418304 4.37007, 140.881354 4.37007 140.881354 4.37007, 137.34288 4.37007 137.34288 4.37007, 133.805168 4.37007 133.805168 4.37007, 130.267456 4.37007 130.267456 4.37007, 126.72949 4.37007 126.72949 4.37007, 126.72949 6.014974 126.72949 6.014974, 126.72949 7.659878 126.72949 7.659878, 126.72949 9.304782 126.72949 9.304782, 126.72949 10.949686 126.72949 10.949686, 126.72949 12.594336 126.72949 12.594336, 126.72949 14.23924 126.72949 14.23924, 126.72949 15.884144 126.72949 15.884144, 126.72949 17.529048 126.72949 17.529048, 116.082826 17.529048 116.082826 17.529048, 105.437178 17.529048 105.437178 17.529048, 94.791276 17.529048 94.791276 17.529048, 84.144612 17.529048 84.144612 17.529048, 73.49871 17.529048 73.49871 17.529048, 62.852046 17.529048 62.852046 17.529048, 52.206144 17.529048 52.206144 17.529048, 41.560496 17.529048 41.560496 17.529048, 41.560496 16.569436 41.560496 16.569436, 41.560496 15.609824 41.560496 15.609824, 41.560496 14.650974 41.560496 14.650974, 41.560496 13.691362 41.560496 13.691362, 41.560496 12.73175 41.560496 12.73175, 41.560496 11.772138 41.560496 11.772138, 41.560496 10.812272 41.560496 10.812272, 41.560496 9.85266 41.560496 9.85266, 43.34256 9.85266 43.34256 9.85266, 45.123608 9.85266 45.123608 9.85266, 46.905672 9.85266 46.905672 9.85266, 48.687736 9.85266 48.687736 9.85266, 50.4698 9.85266 50.4698 9.85266, 52.251102 9.85266 52.251102 9.85266, 54.033928 9.85266 54.033928 9.85266, 55.81523 9.85266 55.81523 9.85266, 55.81523 8.938768 55.81523 8.938768, 55.81523 8.024876 55.81523 8.024876, 55.81523 7.110984 55.81523 7.110984, 55.81523 6.19633 55.81523 6.19633, 55.81523 5.282438 55.81523 5.282438, 55.81523 4.368546 55.81523 4.368546, 55.81523 3.453892 55.81523 3.453892, 55.81523 2.54 55.81523 2.54, 52.708556 2.54 52.708556 2.54, 49.601628 2.54 49.601628 2.54, 46.494954 2.54 46.494954 2.54, 43.38828 2.54 43.38828 2.54, 40.281352 2.54 40.281352 2.54, 37.173916 2.54 37.173916 2.54, 34.066988 2.54 34.066988 2.54, 30.960314 2.54 30.960314 2.54, 30.960314 3.585718 30.960314 3.585718, 30.960314 6.561582 30.960314 6.561582, 30.960314 11.227816 30.960314 11.227816, 30.960314 17.345406 30.960314 17.345406, 30.960314 24.67356 30.960314 24.67356, 30.960314 32.97301 30.960314 32.97301, 30.960314 42.00271 30.960314 42.00271, 30.960314 51.5239 30.960314 51.5239, 31.34614 63.634112 31.34614 63.634112, 32.584898 79.491078 32.584898 79.491078, 34.800286 97.44202 34.800286 97.44202, 38.112446 115.834668 38.112446 115.834668, 42.645584 133.01726 42.645584 133.01726, 48.521112 147.335748 48.521112 147.335748, 55.861712 157.13837 55.861712 157.13837, 64.789304 160.773872 64.789304 160.773872, 88.839548 160.773872 88.839548 160.773872, 112.889284 160.773872 112.889284 160.773872, 136.939782 160.773872 136.939782 160.773872, 160.99028 160.773872 160.99028 160.773872, 185.040016 160.773872 185.040016 160.773872, 209.089752 160.773872 209.089752 160.773872, 233.14025 160.773872 233.14025 160.773872, 257.190748 160.773872 257.190748 160.773872, 257.190748 160.773872"/>
      </g>
      <g>
        <polyline style="fill: transparent;stroke: black;stroke-width: 1;" points="31.227014 51.803046, 32.705802 51.803046 32.705802 51.803046, 34.184082 51.803046 34.184082 51.803046, 35.663124 51.803046 35.663124 51.803046, 37.141912 51.803046 37.141912 51.803046, 38.620192 51.803046 38.620192 51.803046, 40.098472 51.803046 40.098472 51.803046, 41.577514 51.803046 41.577514 51.803046, 43.05554 51.803046 43.05554 51.803046, 43.05554 61.920882 43.05554 61.920882, 43.05554 72.038972 43.05554 72.038972, 43.05554 82.15757 43.05554 82.15757, 43.05554 92.27566 43.05554 92.27566, 43.05554 102.394512 43.05554 102.394512, 43.05554 112.512348 43.05554 112.512348, 43.05554 122.630438 43.05554 122.630438, 43.05554 132.749036"/>
      </g>
      <g>
        <polyline style="fill: transparent;stroke: black;stroke-width: 1;" points="291.2491 51.803046, 289.770058 51.803046 289.770058 51.803046, 288.291016 51.803046 288.291016 51.803046, 286.812736 51.803046 286.812736 51.803046, 285.33471 51.803046 285.33471 51.803046, 283.85643 51.803046 283.85643 51.803046, 282.377388 51.803046 282.377388 51.803046, 280.899362 51.803046 280.899362 51.803046, 279.42032 51.803046 279.42032 51.803046, 279.42032 61.920882 279.42032 61.920882, 279.42032 72.038972 279.42032 72.038972, 279.42032 82.15757 279.42032 82.15757, 279.42032 92.27566 279.42032 92.27566, 279.42032 102.394512 279.42032 102.394512, 279.42032 112.512348 279.42032 112.512348, 279.42032 122.630438 279.42032 122.630438, 279.42032 132.749036"/>
      </g>
      <g>
        <polyline style="fill: gray;stroke: black;stroke-width: 1;" points="194.983608 147.093178, 186.48553 147.093178 186.48553 147.093178, 177.986944 147.093178 177.986944 147.093178, 169.488104 147.093178 169.488104 147.093178, 160.99028 147.093178 160.99028 147.093178, 152.491694 147.093178 152.491694 147.093178, 143.993616 147.093178 143.993616 147.093178, 135.494268 147.093178 135.494268 147.093178, 126.99619 147.093178 126.99619 147.093178, 126.99619 129.288032 126.99619 129.288032, 126.99619 111.482124 126.99619 111.482124, 126.99619 93.67647 126.99619 93.67647, 126.99619 75.871324 126.99619 75.871324, 126.99619 58.065416 126.99619 58.065416, 126.99619 40.26027 126.99619 40.26027, 126.99619 22.454362 126.99619 22.454362, 126.99619 4.649216 126.99619 4.649216, 135.494268 4.649216 135.494268 4.649216, 143.993616 4.649216 143.993616 4.649216, 152.491694 4.649216 152.491694 4.649216, 160.99028 4.649216 160.99028 4.649216, 169.488104 4.649216 169.488104 4.649216, 177.986944 4.649216 177.986944 4.649216, 186.48553 4.649216 186.48553 4.649216, 194.983608 4.649216 194.983608 4.649216, 194.983608 22.454362 194.983608 22.454362, 194.983608 40.26027 194.983608 40.26027, 194.983608 58.065416 194.983608 58.065416, 194.983608 75.871324 194.983608 75.871324, 194.983608 93.67647 194.983608 93.67647, 194.983608 111.482124 194.983608 111.482124, 194.983608 129.288032 194.983608 129.288032, 194.983608 147.093178 194.983608 147.093178, 194.983608 147.093178"/>
      </g>
      <g>
        <polyline style="fill: gray;stroke: black;stroke-width: 1;" points="202.555856 146.815048, 201.276966 146.815048 201.276966 146.815048, 199.998076 146.815048 199.998076 146.815048, 198.719694 146.815048 198.719694 146.815048, 197.440042 146.815048 197.440042 146.815048, 196.160898 146.815048 196.160898 146.815048, 194.882008 146.815048 194.882008 146.815048, 193.60388 146.815048 193.60388 146.815048, 192.323974 146.815048 192.323974 146.815048, 192.323974 134.938262 192.323974 134.938262, 192.323974 123.061476 192.323974 123.061476, 192.323974 111.185452 192.323974 111.185452, 192.323974 99.308666 192.323974 99.308666, 192.323974 87.43188 192.323974 87.43188, 192.323974 75.555856 192.323974 75.555856, 192.323974 63.67907 192.323974 63.67907, 192.323974 51.803046 192.323974 51.803046, 193.60388 51.803046 193.60388 51.803046, 194.882008 51.803046 194.882008 51.803046, 196.160898 51.803046 196.160898 51.803046, 197.440042 51.803046 197.440042 51.803046, 198.719694 51.803046 198.719694 51.803046, 199.998076 51.803046 199.998076 51.803046, 201.276966 51.803046 201.276966 51.803046, 202.555856 51.803046 202.555856 51.803046, 202.555856 63.67907 202.555856 63.67907, 202.555856 75.555856 202.555856 75.555856, 202.555856 87.43188 202.555856 87.43188, 202.555856 99.308666 202.555856 99.308666, 202.555856 111.185452 202.555856 111.185452, 202.555856 123.061476 202.555856 123.061476, 202.555856 134.938262 202.555856 134.938262, 202.555856 146.815048 202.555856 146.815048, 202.555856 146.815048"/>
      </g>
      <g>
        <polyline style="fill: gray;stroke: black;stroke-width: 1;" points="155.87345 146.815048, 154.593798 146.815048 154.593798 146.815048, 153.314654 146.815048 153.314654 146.815048, 152.035764 146.815048 152.035764 146.815048, 150.756874 146.815048 150.756874 146.815048, 149.476968 146.815048 149.476968 146.815048, 148.19884 146.815048 148.19884 146.815048, 146.918934 146.815048 146.918934 146.815048, 145.640044 146.815048 145.640044 146.815048, 145.640044 134.938262 145.640044 134.938262, 145.640044 123.061476 145.640044 123.061476, 145.640044 111.185452 145.640044 111.185452, 145.640044 99.308666 145.640044 99.308666, 145.640044 87.43188 145.640044 87.43188, 145.640044 75.555856 145.640044 75.555856, 145.640044 63.67907 145.640044 63.67907, 145.640044 51.803046 145.640044 51.803046, 146.918934 51.803046 146.918934 51.803046, 148.19884 51.803046 148.19884 51.803046, 149.476968 51.803046 149.476968 51.803046, 150.756874 51.803046 150.756874 51.803046, 152.035764 51.803046 152.035764 51.803046, 153.314654 51.803046 153.314654 51.803046, 154.593798 51.803046 154.593798 51.803046, 155.87345 51.803046 155.87345 51.803046, 155.87345 63.67907 155.87345 63.67907, 155.87345 75.555856 155.87345 75.555856, 155.87345 87.43188 155.87345 87.43188, 155.87345 99.308666 155.87345 99.308666, 155.87345 111.185452 155.87345 111.185452, 155.87345 123.061476 155.87345 123.061476, 155.87345 134.938262 155.87345 134.938262, 155.87345 146.815048 155.87345 146.815048, 155.87345 146.815048"/>
      </g>
      <g>
        <polyline style="fill: gray;stroke: black;stroke-width: 1;" points="111.355378 146.815048, 110.076234 146.815048 110.076234 146.815048, 108.796582 146.815048 108.796582 146.815048, 107.518454 146.815048 107.518454 146.815048, 106.238548 146.815048 106.238548 146.815048, 104.959658 146.815048 104.959658 146.815048, 103.680514 146.815048 103.680514 146.815048, 102.401624 146.815048 102.401624 146.815048, 101.121972 146.815048 101.121972 146.815048, 101.121972 134.938262 101.121972 134.938262, 101.121972 123.061476 101.121972 123.061476, 101.121972 111.185452 101.121972 111.185452, 101.121972 99.308666 101.121972 99.308666, 101.121972 87.43188 101.121972 87.43188, 101.121972 75.555856 101.121972 75.555856, 101.121972 63.67907 101.121972 63.67907, 101.121972 51.803046 101.121972 51.803046, 102.401624 51.803046 102.401624 51.803046, 103.680514 51.803046 103.680514 51.803046, 104.959658 51.803046 104.959658 51.803046, 106.238548 51.803046 106.238548 51.803046, 107.518454 51.803046 107.518454 51.803046, 108.796582 51.803046 108.796582 51.803046, 110.076234 51.803046 110.076234 51.803046, 111.355378 51.803046 111.355378 51.803046, 111.355378 63.67907 111.355378 63.67907, 111.355378 75.555856 111.355378 75.555856, 111.355378 87.43188 111.355378 87.43188, 111.355378 99.308666 111.355378 99.308666, 111.355378 111.185452 111.355378 111.185452, 111.355378 123.061476 111.355378 123.061476, 111.355378 134.938262 111.355378 134.938262, 111.355378 146.815048 111.355378 146.815048, 111.355378 146.815048"/>
      </g>
      <g>
        <polyline style="fill: gray;stroke: black;stroke-width: 1;" points="163.672266 57.861454, 163.52901 59.289188 163.52901 59.289188, 163.115752 60.619386 163.115752 60.619386, 162.46221 61.822584 162.46221 61.822584, 161.59734 62.87135 161.59734 62.87135, 160.549336 63.73622 160.549336 63.73622, 159.345376 64.389762 159.345376 64.389762, 158.01594 64.802258 158.01594 64.802258, 156.587444 64.946276 156.587444 64.946276, 155.15971 64.802258 155.15971 64.802258, 153.829512 64.389762 153.829512 64.389762, 152.626568 63.73622 152.626568 63.73622, 151.577548 62.87135 151.577548 62.87135, 150.712678 61.822584 150.712678 61.822584, 150.059136 60.619386 150.059136 60.619386, 149.646132 59.289188 149.646132 59.289188, 149.50186 57.861454 149.50186 57.861454, 149.646132 56.43372 149.646132 56.43372, 150.059136 55.103522 150.059136 55.103522, 150.712678 53.899816 150.712678 53.899816, 151.577548 52.851812 151.577548 52.851812, 152.626568 51.986688 152.626568 51.986688, 153.829512 51.333146 153.829512 51.333146, 155.15971 50.920142 155.15971 50.920142, 156.587444 50.776632 156.587444 50.776632, 158.01594 50.920142 158.01594 50.920142, 159.345376 51.333146 159.345376 51.333146, 160.549336 51.986688 160.549336 51.986688, 161.59734 52.851812 161.59734 52.851812, 162.46221 53.899816 162.46221 53.899816, 163.115752 55.103522 163.115752 55.103522, 163.52901 56.43372 163.52901 56.43372, 163.672266 57.861454 163.672266 57.861454, 163.672266 57.861454"/>
      </g>
      <g>
        <polyline style="fill: gray;stroke: black;stroke-width: 1;" points="245.920768 146.815048, 244.641878 146.815048 244.641878 146.815048, 243.363496 146.815048 243.363496 146.815048, 242.083844 146.815048 242.083844 146.815048, 240.8047 146.815048 240.8047 146.815048, 239.52581 146.815048 239.52581 146.815048, 238.24692 146.815048 238.24692 146.815048, 236.967776 146.815048 236.967776 146.815048, 235.688886 146.815048 235.688886 146.815048, 235.688886 134.938262 235.688886 134.938262, 235.688886 123.061476 235.688886 123.061476, 235.688886 111.185452 235.688886 111.185452, 235.688886 99.308666 235.688886 99.308666, 235.688886 87.43188 235.688886 87.43188, 235.688886 75.555856 235.688886 75.555856, 235.688886 63.67907 235.688886 63.67907, 235.688886 51.803046 235.688886 51.803046, 236.967776 51.803046 236.967776 51.803046, 238.24692 51.803046 238.24692 51.803046, 239.52581 51.803046 239.52581 51.803046, 240.8047 51.803046 240.8047 51.803046, 242.083844 51.803046 242.083844 51.803046, 243.363496 51.803046 243.363496 51.803046, 244.641878 51.803046 244.641878 51.803046, 245.920768 51.803046 245.920768 51.803046, 245.920768 63.67907 245.920768 63.67907, 245.920768 75.555856 245.920768 75.555856, 245.920768 87.43188 245.920768 87.43188, 245.920768 99.308666 245.920768 99.308666, 245.920768 111.185452 245.920768 111.185452, 245.920768 123.061476 245.920768 123.061476, 245.920768 134.938262 245.920768 134.938262, 245.920768 146.815048 245.920768 146.815048, 245.920768 146.815048"/>
      </g>
      <g>
        <polyline style="fill: gray;stroke: black;stroke-width: 1;" points="73.998582 146.815048, 72.719692 146.815048 72.719692 146.815048, 71.440802 146.815048 71.440802 146.815048, 70.161658 146.815048 70.161658 146.815048, 68.882768 146.815048 68.882768 146.815048, 67.602862 146.815048 67.602862 146.815048, 66.324734 146.815048 66.324734 146.815048, 65.045082 146.815048 65.045082 146.815048, 63.765938 146.815048 63.765938 146.815048, 63.765938 134.938262 63.765938 134.938262, 63.765938 123.061476 63.765938 123.061476, 63.765938 111.185452 63.765938 111.185452, 63.765938 99.308666 63.765938 99.308666, 63.765938 87.43188 63.765938 87.43188, 63.765938 75.555856 63.765938 75.555856, 63.765938 63.67907 63.765938 63.67907, 63.765938 51.803046 63.765938 51.803046, 65.045082 51.803046 65.045082 51.803046, 66.324734 51.803046 66.324734 51.803046, 67.602862 51.803046 67.602862 51.803046, 68.882768 51.803046 68.882768 51.803046, 70.161658 51.803046 70.161658 51.803046, 71.440802 51.803046 71.440802 51.803046, 72.719692 51.803046 72.719692 51.803046, 73.998582 51.803046 73.998582 51.803046, 73.998582 63.67907 73.998582 63.67907, 73.998582 75.555856 73.998582 75.555856, 73.998582 87.43188 73.998582 87.43188, 73.998582 99.308666 73.998582 99.308666, 73.998582 111.185452 73.998582 111.185452, 73.998582 123.061476 73.998582 123.061476, 73.998582 134.938262 73.998582 134.938262, 73.998582 146.815048 73.998582 146.815048, 73.998582 146.815048"/>
      </g>
    </g>
  </g>
</svg>
