<?xml version="1.0" encoding="utf-8"?>
<!-- Generator: SVG Export - SVG Version: 6.00 Build 1  -->
<!-- FXGUID: [8817538C-E9C2-11E4-BB62-2AA6C0D2DCD6] SYMID: [14142]  -->
<svg xmlns="http://www.w3.org/2000/svg" version="1.1" ch_offset="0" color_bar_width="66" width="313.18073" height="120.252236" origin_x="151.960326" origin_y="67.984116" ch_offset_x="152.607137" ch_offset_y="40" color_offset_x="151.960326" color_offset_y="-4" fxtype_offset_x="153.7696188" fxtype_offset_y="145.429478" fxtype_offset_value="ParQ18">
  <g>
    <title>Layer 1</title>
    <g>
      <g>
        <polyline style="fill: gray;stroke: black;stroke-width: 1;" points="296.694352 40.15232, 287.437322 40.15232 287.437322 40.15232, 287.437322 60.460382 287.437322 60.460382, 281.547062 60.460382 281.547062 60.460382, 281.547062 47.018702 281.547062 47.018702, 276.497796 47.018702 276.497796 47.018702, 276.497796 60.460382 276.497796 60.460382, 270.185896 60.460382 270.185896 60.460382, 270.185896 76.12761 270.185896 76.12761, 276.497796 76.12761 276.497796 76.12761, 276.497796 89.569544 276.497796 89.569544, 281.547062 89.569544 281.547062 89.569544, 281.547062 76.12761 281.547062 76.12761, 287.437322 76.12761 287.437322 76.12761, 287.437322 96.435672 287.437322 96.435672, 296.694352 96.435672 296.694352 96.435672, 300.48073 76.12761 300.48073 76.12761, 300.48073 60.460382 300.48073 60.460382, 296.694352 40.15232"/>
      </g>
      <g>
        <polyline style="fill: gray;stroke: black;stroke-width: 1;" points="6.326632 40.15232, 15.583408 40.15232 15.583408 40.15232, 15.583408 60.460382 15.583408 60.460382, 21.474684 60.460382 21.474684 60.460382, 21.474684 47.018702 21.474684 47.018702, 26.523188 47.018702 26.523188 47.018702, 26.523188 60.460382 26.523188 60.460382, 32.835088 60.460382 32.835088 60.460382, 32.835088 76.12761 32.835088 76.12761, 26.523188 76.12761 26.523188 76.12761, 26.523188 89.569544 26.523188 89.569544, 21.474684 89.569544 21.474684 89.569544, 21.474684 76.12761 21.474684 76.12761, 15.583408 76.12761 15.583408 76.12761, 15.583408 96.435672 15.583408 96.435672, 6.326632 96.435672 6.326632 96.435672, 2.54 76.12761 2.54 76.12761, 2.54 60.460382 2.54 60.460382, 6.326632 40.15232"/>
      </g>
      <g>
        <polyline style="fill: gray;stroke: black;stroke-width: 1;" points="281.547062 89.569544, 21.474684 89.569544 21.474684 89.569544, 21.474684 47.018702 21.474684 47.018702, 281.547062 47.018702 281.547062 47.018702, 281.547062 89.569544"/>
      </g>
      <g>
        <polyline style="fill: gray;stroke: black;stroke-width: 1;" points="270.077184 107.552236, 270.077184 31.646622 270.077184 31.646622, 273.216624 29.363924 273.216624 29.363924, 273.216624 12.81303 273.216624 12.81303, 270.077184 9.674352 270.077184 9.674352, 270.077184 2.54 270.077184 2.54, 32.943546 2.54 32.943546 2.54, 32.943546 9.674352 32.943546 9.674352, 29.805122 12.81303 29.805122 12.81303, 29.805122 29.363924 29.805122 29.363924, 32.943546 31.646622 32.943546 31.646622, 32.943546 107.552236 32.943546 107.552236, 270.077184 107.552236"/>
      </g>
      <g>
        <polyline style="fill: gray;stroke: black;stroke-width: 1;" points="46.034198 12.81303, 50.671222 2.61112 50.671222 2.61112, 39.970456 2.61112 39.970456 2.61112, 29.769308 12.81303 29.769308 12.81303, 46.034198 12.81303"/>
      </g>
      <g>
        <polyline style="fill: gray;stroke: black;stroke-width: 1;" points="256.986532 12.81303, 252.349762 2.61112 252.349762 2.61112, 263.050528 2.61112 263.050528 2.61112, 273.252184 12.81303 273.252184 12.81303, 256.986532 12.81303"/>
      </g>
      <g>
        <polyline style="fill: gray;stroke: black;stroke-width: 1;" points="213.648036 2.54, 211.50707 12.81303 211.50707 12.81303, 91.51366 12.81303 91.51366 12.81303, 89.373456 2.54 89.373456 2.54, 213.648036 2.54"/>
      </g>
      <g>
        <polyline style="fill: gray;stroke: black;stroke-width: 1;" points="270.077184 107.552236, 32.943546 107.552236 32.943546 107.552236, 32.943546 31.646622 32.943546 31.646622, 270.077184 31.646622 270.077184 31.646622, 270.077184 107.552236"/>
      </g>
      <g>
        <polyline style="fill: gray;stroke: black;stroke-width: 1;" points="49.127156 104.654604, 41.49344 104.654604 41.49344 104.654604, 41.49344 34.87674 41.49344 34.87674, 49.127156 34.87674 49.127156 34.87674, 49.127156 104.654604"/>
      </g>
      <g>
        <polyline style="fill: gray;stroke: black;stroke-width: 1;" points="68.435982 104.654604, 60.80252 104.654604 60.80252 104.654604, 60.80252 34.87674 60.80252 34.87674, 68.435982 34.87674 68.435982 34.87674, 68.435982 104.654604"/>
      </g>
      <g>
        <polyline style="fill: gray;stroke: black;stroke-width: 1;" points="87.745824 104.654604, 80.112108 104.654604 80.112108 104.654604, 80.112108 34.87674 80.112108 34.87674, 87.745824 34.87674 87.745824 34.87674, 87.745824 104.654604"/>
      </g>
      <g>
        <polyline style="fill: gray;stroke: black;stroke-width: 1;" points="107.05465 104.654604, 99.420934 104.654604 99.420934 104.654604, 99.420934 34.87674 99.420934 34.87674, 107.05465 34.87674 107.05465 34.87674, 107.05465 104.654604"/>
      </g>
      <g>
        <polyline style="fill: gray;stroke: black;stroke-width: 1;" points="126.363476 104.654604, 118.72976 104.654604 118.72976 104.654604, 118.72976 34.87674 118.72976 34.87674, 126.363476 34.87674 126.363476 34.87674, 126.363476 104.654604"/>
      </g>
      <g>
        <polyline style="fill: gray;stroke: black;stroke-width: 1;" points="145.673318 104.654604, 138.03884 104.654604 138.03884 104.654604, 138.03884 34.87674 138.03884 34.87674, 145.673318 34.87674 145.673318 34.87674, 145.673318 104.654604"/>
      </g>
      <g>
        <polyline style="fill: gray;stroke: black;stroke-width: 1;" points="164.982144 104.654604, 157.348428 104.654604 157.348428 104.654604, 157.348428 34.87674 157.348428 34.87674, 164.982144 34.87674 164.982144 34.87674, 164.982144 104.654604"/>
      </g>
      <g>
        <polyline style="fill: gray;stroke: black;stroke-width: 1;" points="184.29097 104.654604, 176.657254 104.654604 176.657254 104.654604, 176.657254 34.87674 176.657254 34.87674, 184.29097 34.87674 184.29097 34.87674, 184.29097 104.654604"/>
      </g>
      <g>
        <polyline style="fill: gray;stroke: black;stroke-width: 1;" points="203.599796 104.654604, 195.966334 104.654604 195.966334 104.654604, 195.966334 34.87674 195.966334 34.87674, 203.599796 34.87674 203.599796 34.87674, 203.599796 104.654604"/>
      </g>
      <g>
        <polyline style="fill: gray;stroke: black;stroke-width: 1;" points="222.909638 104.654604, 215.27516 104.654604 215.27516 104.654604, 215.27516 34.87674 215.27516 34.87674, 222.909638 34.87674 222.909638 34.87674, 222.909638 104.654604"/>
      </g>
      <g>
        <polyline style="fill: gray;stroke: black;stroke-width: 1;" points="242.218464 104.654604, 234.584748 104.654604 234.584748 104.654604, 234.584748 34.87674 234.584748 34.87674, 242.218464 34.87674 242.218464 34.87674, 242.218464 104.654604"/>
      </g>
      <g>
        <polyline style="fill: gray;stroke: black;stroke-width: 1;" points="261.52729 104.654604, 253.893828 104.654604 253.893828 104.654604, 253.893828 34.87674 253.893828 34.87674, 261.52729 34.87674 261.52729 34.87674, 261.52729 104.654604"/>
      </g>
    </g>
  </g>
</svg>
