<?xml version="1.0" encoding="utf-8"?>
<!-- Generator: SVG Export - SVG Version: 6.00 Build 1  -->
<!-- FXGUID: [DA65BA59-C8D0-11E7-BBED-525400685065] SYMID: [14199]  -->
<svg xmlns="http://www.w3.org/2000/svg" version="1.1" ch_offset="0" color_bar_width="66" width="373.815864" height="296.662602" origin_x="182.556658" origin_y="154.25293" ch_offset_x="181.966108" ch_offset_y="40" color_offset_x="182.556658" color_offset_y="-4" fxtype_offset_x="184.3284858" fxtype_offset_y="321.504056" fxtype_offset_value="RR1XSpot">
  <g>
    <title>Layer 1</title>
    <g>
      <g>
        <polyline style="fill: gray;stroke: black;stroke-width: 1;" points="357.968804 115.892834, 348.603316 89.116154 348.603316 89.116154, 332.924658 64.327786 332.924658 64.327786, 326.494648 21.608034 326.494648 21.608034, 37.161216 21.608034 37.161216 21.608034, 30.73146 64.327786 30.73146 64.327786, 15.051786 89.116154 15.051786 89.116154, 5.686298 115.892834 5.686298 115.892834, 2.54 143.538448 2.54 143.538448, 2.54 160.448244 2.54 160.448244, 5.686298 188.093858 5.686298 188.093858, 15.051786 214.869776 15.051786 214.869776, 30.73146 239.658144 30.73146 239.658144, 37.161216 282.378912 37.161216 282.378912, 326.494648 282.378912 326.494648 282.378912, 332.924658 239.658144 332.924658 239.658144, 348.603316 214.869776 348.603316 214.869776, 357.968804 188.093858 357.968804 188.093858, 361.115864 160.448244 361.115864 160.448244, 361.115864 143.538448 361.115864 143.538448, 357.968804 115.892834 357.968804 115.892834, 357.968804 115.892834"/>
      </g>
      <g>
        <polyline style="fill: gray;stroke: black;stroke-width: 1;" points="62.300612 208.05775, 60.651898 212.803994 60.651898 212.803994, 40.54094 212.803994 40.54094 212.803994, 23.396194 174.834296 23.396194 174.834296, 23.396194 129.15265 23.396194 129.15265, 40.54094 91.182698 40.54094 91.182698, 60.651898 91.182698 60.651898 91.182698, 62.300612 95.928942 62.300612 95.928942, 62.300612 208.05775"/>
      </g>
      <g>
        <polyline style="fill: gray;stroke: black;stroke-width: 1;" points="340.258908 174.834296, 323.114416 212.803994 323.114416 212.803994, 303.003204 212.803994 303.003204 212.803994, 301.355252 208.05775 301.355252 208.05775, 301.355252 95.928942 301.355252 95.928942, 303.003204 91.182698 303.003204 91.182698, 323.114416 91.182698 323.114416 91.182698, 340.258908 129.15265 340.258908 129.15265, 340.258908 174.834296"/>
      </g>
      <g>
        <polyline style="fill: gray;stroke: black;stroke-width: 1;" points="334.47482 105.272586, 29.180282 105.272586 29.180282 105.272586, 17.971008 132.267198 17.971008 132.267198, 17.971008 171.719748 17.971008 171.719748, 29.180282 198.714106 29.180282 198.714106, 334.47482 198.714106 334.47482 198.714106, 345.68511 171.719748 345.68511 171.719748, 345.68511 132.267198 345.68511 132.267198, 334.47482 105.272586"/>
      </g>
      <g>
        <polyline style="fill: gray;stroke: black;stroke-width: 1;" points="285.461456 165.93566, 279.691338 165.93566 279.691338 165.93566, 279.691338 138.051286 279.691338 138.051286, 285.461456 138.051286 285.461456 138.051286, 285.461456 165.93566"/>
      </g>
      <g>
        <polyline style="fill: gray;stroke: black;stroke-width: 1;" points="285.461456 198.714106, 334.255364 198.714106 334.255364 198.714106, 345.464892 171.719748 345.464892 171.719748, 345.464892 132.267198 345.464892 132.267198, 334.255364 105.272586 334.255364 105.272586, 285.461456 105.272586 285.461456 105.272586, 285.461456 198.714106"/>
      </g>
      <g>
        <polyline style="fill: gray;stroke: black;stroke-width: 1;" points="77.754734 165.93566, 83.525106 165.93566 83.525106 165.93566, 83.525106 138.051286 83.525106 138.051286, 77.754734 138.051286 77.754734 138.051286, 77.754734 165.93566"/>
      </g>
      <g>
        <polyline style="fill: gray;stroke: black;stroke-width: 1;" points="77.754734 198.714106, 28.960064 198.714106 28.960064 198.714106, 17.75079 171.719748 17.75079 171.719748, 17.75079 132.267198 17.75079 132.267198, 28.960064 105.272586 28.960064 105.272586, 77.754734 105.272586 77.754734 105.272586, 77.754734 198.714106"/>
      </g>
      <g>
        <polyline style="fill: gray;stroke: black;stroke-width: 1;" points="255.6129 2.602992, 269.13078 31.786322 269.13078 31.786322, 274.735798 66.582036 274.735798 66.582036, 279.680416 66.582036 279.680416 66.582036, 279.680416 173.587918 279.680416 173.587918, 276.05355 173.587918 276.05355 173.587918, 276.05355 206.513684 276.05355 206.513684, 259.769356 235.336842 259.769356 235.336842, 229.153466 277.866856 229.153466 277.866856, 218.687396 283.962602 218.687396 283.962602, 144.506696 283.962602 144.506696 283.962602, 134.040626 277.866856 134.040626 277.866856, 103.425244 235.336842 103.425244 235.336842, 87.140288 206.513684 87.140288 206.513684, 87.140288 173.587918 87.140288 173.587918, 83.514184 173.587918 83.514184 173.587918, 83.514184 66.582036 83.514184 66.582036, 88.458802 66.582036 88.458802 66.582036, 94.06382 31.786322 94.06382 31.786322, 107.5817 2.602992 107.5817 2.602992, 255.6129 2.602992 255.6129 2.602992, 255.6129 2.602992"/>
      </g>
      <g>
        <polyline style="fill: gray;stroke: black;stroke-width: 1;" points="236.751368 3.024632, 244.175026 30.287976 244.175026 30.287976, 256.485136 93.631512 256.485136 93.631512, 262.304022 149.111716 262.304022 149.111716, 263.404858 187.688474 263.404858 187.688474, 216.776554 271.140682 216.776554 271.140682, 144.90573 270.587216 144.90573 270.587216, 99.221798 186.425078 99.221798 186.425078, 100.757228 147.867624 100.757228 147.867624, 107.20197 92.481908 107.20197 92.481908, 120.223534 29.333698 120.223534 29.333698, 127.954786 2.54 127.954786 2.54, 236.751368 3.024632 236.751368 3.024632, 236.751368 3.024632"/>
      </g>
      <g>
        <polyline style="fill: gray;stroke: black;stroke-width: 1;" points="217.450924 265.208512, 145.742914 265.208512 145.742914 265.208512, 145.742914 185.514996 145.742914 185.514996, 217.450924 185.514996 217.450924 185.514996, 217.450924 265.208512 217.450924 265.208512, 217.450924 265.208512"/>
      </g>
      <g>
        <polyline style="fill: gray;stroke: black;stroke-width: 1;" points="213.49462 199.077834, 149.699218 199.077834 149.699218 199.077834, 149.699218 192.529968 149.699218 192.529968, 213.49462 192.529968 213.49462 192.529968, 213.49462 199.077834 213.49462 199.077834, 213.49462 199.077834"/>
      </g>
      <g>
        <polyline style="fill: gray;stroke: black;stroke-width: 1;" points="213.49462 213.85657, 149.699218 213.85657 149.699218 213.85657, 149.699218 207.308196 149.699218 207.308196, 213.49462 207.308196 213.49462 207.308196, 213.49462 213.85657 213.49462 213.85657, 213.49462 213.85657"/>
      </g>
      <g>
        <polyline style="fill: gray;stroke: black;stroke-width: 1;" points="213.49462 228.634798, 149.699218 228.634798 149.699218 228.634798, 149.699218 222.087186 149.699218 222.087186, 213.49462 222.087186 213.49462 222.087186, 213.49462 228.634798 213.49462 228.634798, 213.49462 228.634798"/>
      </g>
      <g>
        <polyline style="fill: gray;stroke: black;stroke-width: 1;" points="213.49462 243.413788, 149.699218 243.413788 149.699218 243.413788, 149.699218 236.866938 149.699218 236.866938, 213.49462 236.866938 213.49462 236.866938, 213.49462 243.413788 213.49462 243.413788, 213.49462 243.413788"/>
      </g>
      <g>
        <polyline style="fill: gray;stroke: black;stroke-width: 1;" points="213.49462 258.192778, 149.699218 258.192778 149.699218 258.192778, 149.699218 251.645166 149.699218 251.645166, 213.49462 251.645166 213.49462 251.645166, 213.49462 258.192778 213.49462 258.192778, 213.49462 258.192778"/>
      </g>
    </g>
  </g>
</svg>
