<?xml version="1.0" encoding="utf-8"?>
<!-- Generator: SVG Export - SVG Version: 6.00 Build 1  -->
<!-- FXGUID: [10619CEC-81AB-11ED-B8DB-525400685065] SYMID: [18474]  -->
<svg xmlns="http://www.w3.org/2000/svg" version="1.1" ch_offset="0" color_bar_width="66" width="318.240156" height="202.06716" origin_x="154.2288" origin_y="86.615778" ch_offset_x="156.5724326" ch_offset_y="40" color_offset_x="154.2288" color_offset_y="-4">
  <g>
    <title>Layer 1</title>
    <g>
      <g>
        <polyline style="fill: transparent;stroke: black;stroke-width: 1;" points="42.353738 152.803098, 37.8587 152.803098 37.8587 152.803098, 33.363662 152.803098 33.363662 152.803098, 28.868624 152.803098 28.868624 152.803098, 24.373586 152.803098 24.373586 152.803098, 24.373586 151.358092 24.373586 151.358092, 24.373586 149.91334 24.373586 149.91334, 24.373586 148.468334 24.373586 148.468334, 24.373586 147.023582 24.373586 147.023582, 20.962112 144.30756 20.962112 144.30756, 13.456412 135.286242 13.456412 135.286242, 5.951474 118.647718 5.951474 118.647718, 2.54 93.082618 2.54 93.082618, 5.951474 67.516756 5.951474 67.516756, 13.456412 50.878994 13.456412 50.878994, 20.962112 41.857168 20.962112 41.857168, 24.373586 39.141654 24.373586 39.141654, 24.373586 37.696902 24.373586 37.696902, 24.373586 36.251896 24.373586 36.251896, 24.373586 34.807144 24.373586 34.807144, 24.373586 33.362138 24.373586 33.362138, 28.868624 33.362138 28.868624 33.362138, 33.363662 33.362138 33.363662 33.362138, 37.8587 33.362138 37.8587 33.362138, 42.353738 33.362138"/>
      </g>
      <g>
        <polyline style="fill: transparent;stroke: black;stroke-width: 1;" points="42.900346 134.43585, 41.70807 134.43585 41.70807 134.43585, 38.657022 134.43585 38.657022 134.43585, 34.541206 134.43585 34.541206 134.43585, 30.151324 134.43585 30.151324 134.43585, 24.474932 132.216652 24.474932 132.216652, 17.52981 125.070616 17.52981 125.070616, 11.650218 112.269016 11.650218 112.269016, 9.171432 93.082618 9.171432 93.082618, 9.171432 92.765626 9.171432 92.765626, 9.171432 92.448634 9.171432 92.448634, 9.171432 92.13088 9.171432 92.13088, 9.171432 91.81465 9.171432 91.81465, 11.650218 72.627236 11.650218 72.627236, 17.52981 59.82589 17.52981 59.82589, 24.474932 52.680362 24.474932 52.680362, 30.151324 50.460402 30.151324 50.460402, 34.541206 50.460402 34.541206 50.460402, 38.657022 50.460402 38.657022 50.460402, 41.70807 50.460402 41.70807 50.460402, 42.900346 50.460402"/>
      </g>
      <g>
        <polyline style="fill: transparent;stroke: black;stroke-width: 1;" points="265.726164 152.803098, 270.221202 152.803098 270.221202 152.803098, 274.716494 152.803098 274.716494 152.803098, 279.211532 152.803098 279.211532 152.803098, 283.70657 152.803098 283.70657 152.803098, 283.70657 151.358092 283.70657 151.358092, 283.70657 149.91334 283.70657 149.91334, 283.70657 148.468334 283.70657 148.468334, 283.70657 147.023582 283.70657 147.023582, 287.118044 144.30756 287.118044 144.30756, 294.623744 135.286242 294.623744 135.286242, 302.128682 118.647718 302.128682 118.647718, 305.540156 93.082618 305.540156 93.082618, 302.128682 67.516756 302.128682 67.516756, 294.623744 50.878994 294.623744 50.878994, 287.118044 41.857168 287.118044 41.857168, 283.70657 39.141654 283.70657 39.141654, 283.70657 37.696902 283.70657 37.696902, 283.70657 36.251896 283.70657 36.251896, 283.70657 34.807144 283.70657 34.807144, 283.70657 33.362138 283.70657 33.362138, 279.211532 33.362138 279.211532 33.362138, 274.716494 33.362138 274.716494 33.362138, 270.221202 33.362138 270.221202 33.362138, 265.726164 33.362138"/>
      </g>
      <g>
        <polyline style="fill: transparent;stroke: black;stroke-width: 1;" points="265.17981 134.43585, 266.371832 134.43585 266.371832 134.43585, 269.422118 134.43585 269.422118 134.43585, 273.538188 134.43585 273.538188 134.43585, 277.928578 134.43585 277.928578 134.43585, 283.604208 132.216652 283.604208 132.216652, 290.549584 125.070616 290.549584 125.070616, 296.429684 112.269016 296.429684 112.269016, 298.908724 93.082618 298.908724 93.082618, 298.908724 92.765626 298.908724 92.765626, 298.908724 92.448634 298.908724 92.448634, 298.908724 92.13088 298.908724 92.13088, 298.908724 91.81465 298.908724 91.81465, 296.429684 72.627236 296.429684 72.627236, 290.549584 59.82589 290.549584 59.82589, 283.604208 52.680362 283.604208 52.680362, 277.928578 50.460402 277.928578 50.460402, 273.538188 50.460402 273.538188 50.460402, 269.422118 50.460402 269.422118 50.460402, 266.371832 50.460402 266.371832 50.460402, 265.17981 50.460402"/>
      </g>
      <g>
        <polyline style="fill: gray;stroke: black;stroke-width: 1;" points="265.17981 184.266332, 209.794094 184.266332 209.794094 184.266332, 154.408124 184.266332 154.408124 184.266332, 99.02317 184.266332 99.02317 184.266332, 43.637454 184.266332 43.637454 184.266332, 43.637454 138.834876 43.637454 138.834876, 43.637454 93.402912 43.637454 93.402912, 43.637454 47.971456 43.637454 47.971456, 43.637454 2.54 43.637454 2.54, 99.02317 2.54 99.02317 2.54, 154.408124 2.54 154.408124 2.54, 209.794094 2.54 209.794094 2.54, 265.17981 2.54 265.17981 2.54, 265.17981 47.971456 265.17981 47.971456, 265.17981 93.402912 265.17981 93.402912, 265.17981 138.834876 265.17981 138.834876, 265.17981 184.266332 265.17981 184.266332, 265.17981 184.266332"/>
      </g>
      <g>
        <polyline style="fill: transparent;stroke: black;stroke-width: 1;" points="267.980668 48.65243, 260.176518 47.15637 260.176518 47.15637, 252.372368 45.66031 252.372368 45.66031, 244.56898 44.163488 244.56898 44.163488, 236.76483 42.667428 236.76483 42.667428, 196.630798 42.667428 196.630798 42.667428, 156.496004 42.667428 156.496004 42.667428, 116.361972 42.667428 116.361972 42.667428, 76.228194 42.667428 76.228194 42.667428, 68.42379 44.163488 68.42379 44.163488, 60.61964 45.66031 60.61964 45.66031, 52.816252 47.15637 52.816252 47.15637, 45.012102 48.65243"/>
      </g>
      <g>
        <polyline style="fill: transparent;stroke: black;stroke-width: 1;" points="267.980668 131.489196, 260.176518 132.985256 260.176518 132.985256, 252.372368 134.482078 252.372368 134.482078, 244.56898 135.978138 244.56898 135.978138, 236.76483 137.474198 236.76483 137.474198, 196.630798 137.474198 196.630798 137.474198, 156.496004 137.474198 156.496004 137.474198, 116.361972 137.474198 116.361972 137.474198, 76.228194 137.474198 76.228194 137.474198, 68.42379 135.978138 68.42379 135.978138, 60.61964 134.482078 60.61964 134.482078, 52.816252 132.985256 52.816252 132.985256, 45.012102 131.489196"/>
      </g>
      <g>
        <polyline style="fill: gray;stroke: black;stroke-width: 1;" points="33.094168 131.26212, 26.731214 131.447286 26.731214 131.447286, 20.770342 128.61036 20.770342 128.61036, 16.35506 117.665246 16.35506 117.665246, 14.629384 93.528642 14.629384 93.528642, 14.629384 91.742768 14.629384 91.742768, 14.629384 89.957656 14.629384 89.957656, 14.629384 88.172544 14.629384 88.172544, 14.629384 86.386416 14.629384 86.386416, 16.35506 62.249304 16.35506 62.249304, 20.770342 51.304952 20.770342 51.304952, 26.731214 48.467772 26.731214 48.467772, 33.094168 48.65243 33.094168 48.65243, 36.07308 48.65243 36.07308 48.65243, 39.052754 48.65243 39.052754 48.65243, 42.032428 48.65243 42.032428 48.65243, 45.012102 48.65243 45.012102 48.65243, 45.012102 69.362066 45.012102 69.362066, 45.012102 90.070686 45.012102 90.070686, 45.012102 110.77956 45.012102 110.77956, 45.012102 131.489196 45.012102 131.489196, 42.224706 131.489196 42.224706 131.489196, 39.438072 131.489196 39.438072 131.489196, 36.650676 131.489196 36.650676 131.489196, 33.86328 131.489196 33.86328 131.489196, 33.671002 131.431792 33.671002 131.431792, 33.478724 131.375912 33.478724 131.375912, 33.286446 131.319524 33.286446 131.319524, 33.094168 131.26212 33.094168 131.26212, 33.094168 131.26212"/>
      </g>
      <g>
        <polyline style="fill: gray;stroke: black;stroke-width: 1;" points="279.899364 131.26212, 286.26181 131.447286 286.26181 131.447286, 292.22192 128.61036 292.22192 128.61036, 296.637202 117.665246 296.637202 117.665246, 298.363386 93.528642 298.363386 93.528642, 298.363386 91.742768 298.363386 91.742768, 298.363386 89.957656 298.363386 89.957656, 298.363386 88.172544 298.363386 88.172544, 298.363386 86.386416 298.363386 86.386416, 296.637202 62.249304 296.637202 62.249304, 292.22192 51.304952 292.22192 51.304952, 286.26181 48.467772 286.26181 48.467772, 279.899364 48.65243 279.899364 48.65243, 276.91969 48.65243 276.91969 48.65243, 273.940016 48.65243 273.940016 48.65243, 270.960342 48.65243 270.960342 48.65243, 267.980668 48.65243 267.980668 48.65243, 267.980668 69.362066 267.980668 69.362066, 267.980668 90.070686 267.980668 90.070686, 267.980668 110.77956 267.980668 110.77956, 267.980668 131.489196 267.980668 131.489196, 270.767302 131.489196 270.767302 131.489196, 273.554698 131.489196 273.554698 131.489196, 276.342348 131.489196 276.342348 131.489196, 279.128982 131.489196 279.128982 131.489196, 279.322022 131.431792 279.322022 131.431792, 279.514046 131.375912 279.514046 131.375912, 279.706324 131.319524 279.706324 131.319524, 279.899364 131.26212 279.899364 131.26212, 279.899364 131.26212"/>
      </g>
      <g>
        <polyline style="fill: transparent;stroke: black;stroke-width: 1;" points="263.884664 78.27391, 264.366756 78.27391 264.366756 78.27391, 264.847324 78.27391 264.847324 78.27391, 265.32967 78.27391 265.32967 78.27391, 265.811762 78.27391 265.811762 78.27391, 265.811762 85.177376 265.811762 85.177376, 265.811762 92.08008 265.811762 92.08008, 265.811762 98.983546 265.811762 98.983546, 265.811762 105.887012 265.811762 105.887012, 265.32967 105.887012 265.32967 105.887012, 264.847324 105.887012 264.847324 105.887012, 264.366756 105.887012 264.366756 105.887012, 263.884664 105.887012"/>
      </g>
      <g>
        <polyline style="fill: transparent;stroke: black;stroke-width: 1;" points="45.487082 78.27391, 45.00499 78.27391 45.00499 78.27391, 44.52366 78.27391 44.52366 78.27391, 44.041568 78.27391 44.041568 78.27391, 43.560238 78.27391 43.560238 78.27391, 43.560238 85.177376 43.560238 85.177376, 43.560238 92.08008 43.560238 92.08008, 43.560238 98.983546 43.560238 98.983546, 43.560238 105.887012 43.560238 105.887012, 44.041568 105.887012 44.041568 105.887012, 44.52366 105.887012 44.52366 105.887012, 45.00499 105.887012 45.00499 105.887012, 45.487082 105.887012"/>
      </g>
      <g>
        <polyline style="fill: gray;stroke: black;stroke-width: 1;" points="259.390388 9.564116, 260.092698 15.565374 260.092698 15.565374, 261.636764 32.513016 261.636764 32.513016, 263.182354 58.825384 263.182354 58.825384, 263.884664 92.91955 263.884664 92.91955, 263.407144 122.510042 263.407144 122.510042, 261.757668 140.745972 261.757668 140.745972, 258.60121 154.204162 258.60121 154.204162, 253.610872 169.460672 253.610872 169.460672, 250.173998 172.571156 250.173998 172.571156, 242.4938 179.41417 242.4938 179.41417, 234.512866 186.257184 234.512866 186.257184, 230.172006 189.36716 230.172006 189.36716, 192.589912 189.36716 192.589912 189.36716, 155.006802 189.36716 155.006802 189.36716, 117.423946 189.36716 117.423946 189.36716, 79.841598 189.36716 79.841598 189.36716, 75.500738 186.257184 75.500738 186.257184, 67.520058 179.41417 67.520058 179.41417, 59.83986 172.571156 59.83986 172.571156, 56.403494 169.460672 56.403494 169.460672, 51.411632 154.204162 51.411632 154.204162, 48.255936 140.745972 48.255936 140.745972, 46.605698 122.510042 46.605698 122.510042, 46.129702 92.91955 46.129702 92.91955, 46.832012 58.825384 46.832012 58.825384, 48.37684 32.513016 48.37684 32.513016, 49.920906 15.565374 49.920906 15.565374, 50.623216 9.564116 50.623216 9.564116, 102.81539 9.564116 102.81539 9.564116, 155.00604 9.564116 155.00604 9.564116, 207.198214 9.564116 207.198214 9.564116, 259.390388 9.564116 259.390388 9.564116, 259.390388 9.564116"/>
      </g>
      <g>
        <polyline style="fill: transparent;stroke: black;stroke-width: 1;" points="64.861948 177.062384, 110.086394 177.062384 110.086394 177.062384, 155.309824 177.062384 155.309824 177.062384, 200.533508 177.062384 200.533508 177.062384, 245.758716 177.062384"/>
      </g>
      <g>
        <polyline style="fill: transparent;stroke: black;stroke-width: 1;" points="46.221904 108.227876, 100.63734 108.227876 100.63734 108.227876, 155.053284 108.227876 155.053284 108.227876, 209.469482 108.227876 209.469482 108.227876, 263.884664 108.227876"/>
      </g>
      <g>
        <polyline style="fill: transparent;stroke: black;stroke-width: 1;" points="50.233326 12.769342, 102.67823 12.769342 102.67823 12.769342, 155.123896 12.769342 155.123896 12.769342, 207.5688 12.769342 207.5688 12.769342, 260.013704 12.769342"/>
      </g>
      <g>
        <polyline style="fill: gray;stroke: black;stroke-width: 1;" points="98.02495 189.36716, 94.201996 184.551066 94.201996 184.551066, 90.37828 179.734464 90.37828 179.734464, 86.55431 174.91837 86.55431 174.91837, 82.731356 170.101514 82.731356 170.101514, 95.253048 170.101514 95.253048 170.101514, 107.77474 170.101514 107.77474 170.101514, 120.297448 170.101514 120.297448 170.101514, 132.818378 170.101514 132.818378 170.101514, 134.302754 174.91837 134.302754 174.91837, 135.786368 179.734464 135.786368 179.734464, 137.269982 184.551066 137.269982 184.551066, 138.753596 189.36716 138.753596 189.36716, 128.571244 189.36716 128.571244 189.36716, 118.388892 189.36716 118.388892 189.36716, 108.207302 189.36716 108.207302 189.36716, 98.02495 189.36716 98.02495 189.36716, 98.02495 189.36716"/>
      </g>
      <g>
        <polyline style="fill: gray;stroke: black;stroke-width: 1;" points="73.05294 164.963094, 70.656958 164.963094 70.656958 164.963094, 68.259452 164.963094 68.259452 164.963094, 65.86347 164.963094 65.86347 164.963094, 63.466726 164.963094 63.466726 164.963094, 63.466726 151.799544 63.466726 151.799544, 63.466726 138.635232 63.466726 138.635232, 63.466726 125.47092 63.466726 125.47092, 63.466726 112.30737 63.466726 112.30737, 65.86347 112.30737 65.86347 112.30737, 68.259452 112.30737 68.259452 112.30737, 70.656958 112.30737 70.656958 112.30737, 73.05294 112.30737 73.05294 112.30737, 73.05294 125.47092 73.05294 125.47092, 73.05294 138.635232 73.05294 138.635232, 73.05294 151.799544 73.05294 151.799544, 73.05294 164.963094 73.05294 164.963094, 73.05294 164.963094"/>
      </g>
      <g>
        <polyline style="fill: gray;stroke: black;stroke-width: 1;" points="87.524844 164.963094, 85.1281 164.963094 85.1281 164.963094, 82.731356 164.963094 82.731356 164.963094, 80.335374 164.963094 80.335374 164.963094, 77.93863 164.963094 77.93863 164.963094, 77.93863 151.799544 77.93863 151.799544, 77.93863 138.635232 77.93863 138.635232, 77.93863 125.47092 77.93863 125.47092, 77.93863 112.30737 77.93863 112.30737, 80.335374 112.30737 80.335374 112.30737, 82.731356 112.30737 82.731356 112.30737, 85.1281 112.30737 85.1281 112.30737, 87.524844 112.30737 87.524844 112.30737, 87.524844 125.47092 87.524844 125.47092, 87.524844 138.635232 87.524844 138.635232, 87.524844 151.799544 87.524844 151.799544, 87.524844 164.963094 87.524844 164.963094, 87.524844 164.963094"/>
      </g>
      <g>
        <polyline style="fill: gray;stroke: black;stroke-width: 1;" points="101.997002 164.963094, 99.600258 164.963094 99.600258 164.963094, 97.204276 164.963094 97.204276 164.963094, 94.807532 164.963094 94.807532 164.963094, 92.41155 164.963094 92.41155 164.963094, 92.41155 151.799544 92.41155 151.799544, 92.41155 138.635232 92.41155 138.635232, 92.41155 125.47092 92.41155 125.47092, 92.41155 112.30737 92.41155 112.30737, 94.807532 112.30737 94.807532 112.30737, 97.204276 112.30737 97.204276 112.30737, 99.600258 112.30737 99.600258 112.30737, 101.997002 112.30737 101.997002 112.30737, 101.997002 125.47092 101.997002 125.47092, 101.997002 138.635232 101.997002 138.635232, 101.997002 151.799544 101.997002 151.799544, 101.997002 164.963094 101.997002 164.963094, 101.997002 164.963094"/>
      </g>
      <g>
        <polyline style="fill: gray;stroke: black;stroke-width: 1;" points="116.468906 164.963094, 114.072162 164.963094 114.072162 164.963094, 111.67618 164.963094 111.67618 164.963094, 109.279436 164.963094 109.279436 164.963094, 106.883454 164.963094 106.883454 164.963094, 106.883454 151.799544 106.883454 151.799544, 106.883454 138.635232 106.883454 138.635232, 106.883454 125.47092 106.883454 125.47092, 106.883454 112.30737 106.883454 112.30737, 109.279436 112.30737 109.279436 112.30737, 111.67618 112.30737 111.67618 112.30737, 114.072162 112.30737 114.072162 112.30737, 116.468906 112.30737 116.468906 112.30737, 116.468906 125.47092 116.468906 125.47092, 116.468906 138.635232 116.468906 138.635232, 116.468906 151.799544 116.468906 151.799544, 116.468906 164.963094 116.468906 164.963094, 116.468906 164.963094"/>
      </g>
      <g>
        <polyline style="fill: gray;stroke: black;stroke-width: 1;" points="130.94081 164.963094, 128.544828 164.963094 128.544828 164.963094, 126.148084 164.963094 126.148084 164.963094, 123.752102 164.963094 123.752102 164.963094, 121.355358 164.963094 121.355358 164.963094, 121.355358 151.799544 121.355358 151.799544, 121.355358 138.635232 121.355358 138.635232, 121.355358 125.47092 121.355358 125.47092, 121.355358 112.30737 121.355358 112.30737, 123.752102 112.30737 123.752102 112.30737, 126.148084 112.30737 126.148084 112.30737, 128.544828 112.30737 128.544828 112.30737, 130.94081 112.30737 130.94081 112.30737, 130.94081 125.47092 130.94081 125.47092, 130.94081 138.635232 130.94081 138.635232, 130.94081 151.799544 130.94081 151.799544, 130.94081 164.963094 130.94081 164.963094, 130.94081 164.963094"/>
      </g>
      <g>
        <polyline style="fill: gray;stroke: black;stroke-width: 1;" points="145.412968 164.963094, 143.016986 164.963094 143.016986 164.963094, 140.620242 164.963094 140.620242 164.963094, 138.22426 164.963094 138.22426 164.963094, 135.826754 164.963094 135.826754 164.963094, 135.826754 151.799544 135.826754 151.799544, 135.826754 138.635232 135.826754 138.635232, 135.826754 125.47092 135.826754 125.47092, 135.826754 112.30737 135.826754 112.30737, 138.22426 112.30737 138.22426 112.30737, 140.620242 112.30737 140.620242 112.30737, 143.016986 112.30737 143.016986 112.30737, 145.412968 112.30737 145.412968 112.30737, 145.412968 125.47092 145.412968 125.47092, 145.412968 138.635232 145.412968 138.635232, 145.412968 151.799544 145.412968 151.799544, 145.412968 164.963094 145.412968 164.963094, 145.412968 164.963094"/>
      </g>
      <g>
        <polyline style="fill: gray;stroke: black;stroke-width: 1;" points="159.884872 164.963094, 157.489652 164.963094 157.489652 164.963094, 155.092146 164.963094 155.092146 164.963094, 152.695402 164.963094 152.695402 164.963094, 150.29942 164.963094 150.29942 164.963094, 150.29942 151.799544 150.29942 151.799544, 150.29942 138.635232 150.29942 138.635232, 150.29942 125.47092 150.29942 125.47092, 150.29942 112.30737 150.29942 112.30737, 152.695402 112.30737 152.695402 112.30737, 155.092146 112.30737 155.092146 112.30737, 157.489652 112.30737 157.489652 112.30737, 159.884872 112.30737 159.884872 112.30737, 159.884872 125.47092 159.884872 125.47092, 159.884872 138.635232 159.884872 138.635232, 159.884872 151.799544 159.884872 151.799544, 159.884872 164.963094 159.884872 164.963094, 159.884872 164.963094"/>
      </g>
      <g>
        <polyline style="fill: gray;stroke: black;stroke-width: 1;" points="174.356776 164.963094, 171.961556 164.963094 171.961556 164.963094, 169.563288 164.963094 169.563288 164.963094, 167.168068 164.963094 167.168068 164.963094, 164.771324 164.963094 164.771324 164.963094, 164.771324 151.799544 164.771324 151.799544, 164.771324 138.635232 164.771324 138.635232, 164.771324 125.47092 164.771324 125.47092, 164.771324 112.30737 164.771324 112.30737, 167.168068 112.30737 167.168068 112.30737, 169.563288 112.30737 169.563288 112.30737, 171.961556 112.30737 171.961556 112.30737, 174.356776 112.30737 174.356776 112.30737, 174.356776 125.47092 174.356776 125.47092, 174.356776 138.635232 174.356776 138.635232, 174.356776 151.799544 174.356776 151.799544, 174.356776 164.963094 174.356776 164.963094, 174.356776 164.963094"/>
      </g>
      <g>
        <polyline style="fill: gray;stroke: black;stroke-width: 1;" points="188.828934 164.963094, 186.43219 164.963094 186.43219 164.963094, 184.03697 164.963094 184.03697 164.963094, 181.640226 164.963094 181.640226 164.963094, 179.243482 164.963094 179.243482 164.963094, 179.243482 151.799544 179.243482 151.799544, 179.243482 138.635232 179.243482 138.635232, 179.243482 125.47092 179.243482 125.47092, 179.243482 112.30737 179.243482 112.30737, 181.640226 112.30737 181.640226 112.30737, 184.03697 112.30737 184.03697 112.30737, 186.43219 112.30737 186.43219 112.30737, 188.828934 112.30737 188.828934 112.30737, 188.828934 125.47092 188.828934 125.47092, 188.828934 138.635232 188.828934 138.635232, 188.828934 151.799544 188.828934 151.799544, 188.828934 164.963094 188.828934 164.963094, 188.828934 164.963094"/>
      </g>
      <g>
        <polyline style="fill: gray;stroke: black;stroke-width: 1;" points="211.627466 189.36716, 215.451944 184.551066 215.451944 184.551066, 219.275152 179.734464 219.275152 179.734464, 223.098106 174.91837 223.098106 174.91837, 226.922584 170.101514 226.922584 170.101514, 214.399368 170.101514 214.399368 170.101514, 201.877676 170.101514 201.877676 170.101514, 189.355984 170.101514 189.355984 170.101514, 176.834292 170.101514 176.834292 170.101514, 175.350678 174.91837 175.350678 174.91837, 173.867064 179.734464 173.867064 179.734464, 172.383196 184.551066 172.383196 184.551066, 170.899582 189.36716 170.899582 189.36716, 181.081934 189.36716 181.081934 189.36716, 191.262762 189.36716 191.262762 189.36716, 201.445114 189.36716 201.445114 189.36716, 211.627466 189.36716 211.627466 189.36716, 211.627466 189.36716"/>
      </g>
      <g>
        <polyline style="fill: gray;stroke: black;stroke-width: 1;" points="217.772742 164.963094, 215.377522 164.963094 215.377522 164.963094, 212.980778 164.963094 212.980778 164.963094, 210.584034 164.963094 210.584034 164.963094, 208.18729 164.963094 208.18729 164.963094, 208.18729 151.799544 208.18729 151.799544, 208.18729 138.635232 208.18729 138.635232, 208.18729 125.47092 208.18729 125.47092, 208.18729 112.30737 208.18729 112.30737, 210.584034 112.30737 210.584034 112.30737, 212.980778 112.30737 212.980778 112.30737, 215.377522 112.30737 215.377522 112.30737, 217.772742 112.30737 217.772742 112.30737, 217.772742 125.47092 217.772742 125.47092, 217.772742 138.635232 217.772742 138.635232, 217.772742 151.799544 217.772742 151.799544, 217.772742 164.963094 217.772742 164.963094, 217.772742 164.963094"/>
      </g>
      <g>
        <polyline style="fill: gray;stroke: black;stroke-width: 1;" points="232.246424 164.963094, 229.84968 164.963094 229.84968 164.963094, 227.452936 164.963094 227.452936 164.963094, 225.056192 164.963094 225.056192 164.963094, 222.659448 164.963094 222.659448 164.963094, 222.659448 151.799544 222.659448 151.799544, 222.659448 138.635232 222.659448 138.635232, 222.659448 125.47092 222.659448 125.47092, 222.659448 112.30737 222.659448 112.30737, 225.056192 112.30737 225.056192 112.30737, 227.452936 112.30737 227.452936 112.30737, 229.84968 112.30737 229.84968 112.30737, 232.246424 112.30737 232.246424 112.30737, 232.246424 125.47092 232.246424 125.47092, 232.246424 138.635232 232.246424 138.635232, 232.246424 151.799544 232.246424 151.799544, 232.246424 164.963094 232.246424 164.963094, 232.246424 164.963094"/>
      </g>
      <g>
        <polyline style="fill: gray;stroke: black;stroke-width: 1;" points="246.718328 164.963094, 244.321584 164.963094 244.321584 164.963094, 241.92484 164.963094 241.92484 164.963094, 239.528096 164.963094 239.528096 164.963094, 237.131352 164.963094 237.131352 164.963094, 237.131352 151.799544 237.131352 151.799544, 237.131352 138.635232 237.131352 138.635232, 237.131352 125.47092 237.131352 125.47092, 237.131352 112.30737 237.131352 112.30737, 239.528096 112.30737 239.528096 112.30737, 241.92484 112.30737 241.92484 112.30737, 244.321584 112.30737 244.321584 112.30737, 246.718328 112.30737 246.718328 112.30737, 246.718328 125.47092 246.718328 125.47092, 246.718328 138.635232 246.718328 138.635232, 246.718328 151.799544 246.718328 151.799544, 246.718328 164.963094 246.718328 164.963094, 246.718328 164.963094"/>
      </g>
      <g>
        <polyline style="fill: gray;stroke: black;stroke-width: 1;" points="114.078258 100.796598, 113.245138 100.796598 113.245138 100.796598, 112.41024 100.796598 112.41024 100.796598, 111.576104 100.796598 111.576104 100.796598, 110.742222 100.796598 110.742222 100.796598, 110.742222 80.432656 110.742222 80.432656, 110.742222 60.068714 110.742222 60.068714, 110.742222 39.704264 110.742222 39.704264, 110.742222 19.340322 110.742222 19.340322, 111.576104 19.340322 111.576104 19.340322, 112.41024 19.340322 112.41024 19.340322, 113.245138 19.340322 113.245138 19.340322, 114.078258 19.340322 114.078258 19.340322, 114.078258 39.704264 114.078258 39.704264, 114.078258 60.068714 114.078258 60.068714, 114.078258 80.432656 114.078258 80.432656, 114.078258 100.796598 114.078258 100.796598, 114.078258 100.796598"/>
      </g>
      <g>
        <polyline style="fill: gray;stroke: black;stroke-width: 1;" points="100.541074 100.796598, 99.70643 100.796598 99.70643 100.796598, 98.872294 100.796598 98.872294 100.796598, 98.037396 100.796598 98.037396 100.796598, 97.203514 100.796598 97.203514 100.796598, 97.203514 80.432656 97.203514 80.432656, 97.203514 60.068714 97.203514 60.068714, 97.203514 39.704264 97.203514 39.704264, 97.203514 19.340322 97.203514 19.340322, 98.037396 19.340322 98.037396 19.340322, 98.872294 19.340322 98.872294 19.340322, 99.70643 19.340322 99.70643 19.340322, 100.541074 19.340322 100.541074 19.340322, 100.541074 39.704264 100.541074 39.704264, 100.541074 60.068714 100.541074 60.068714, 100.541074 80.432656 100.541074 80.432656, 100.541074 100.796598 100.541074 100.796598, 100.541074 100.796598"/>
      </g>
      <g>
        <polyline style="fill: gray;stroke: black;stroke-width: 1;" points="87.002366 100.796598, 86.167722 100.796598 86.167722 100.796598, 85.333586 100.796598 85.333586 100.796598, 84.498688 100.796598 84.498688 100.796598, 83.664806 100.796598 83.664806 100.796598, 83.664806 80.432656 83.664806 80.432656, 83.664806 60.068714 83.664806 60.068714, 83.664806 39.704264 83.664806 39.704264, 83.664806 19.340322 83.664806 19.340322, 84.498688 19.340322 84.498688 19.340322, 85.333586 19.340322 85.333586 19.340322, 86.167722 19.340322 86.167722 19.340322, 87.002366 19.340322 87.002366 19.340322, 87.002366 39.704264 87.002366 39.704264, 87.002366 60.068714 87.002366 60.068714, 87.002366 80.432656 87.002366 80.432656, 87.002366 100.796598 87.002366 100.796598, 87.002366 100.796598"/>
      </g>
      <g>
        <polyline style="fill: gray;stroke: black;stroke-width: 1;" points="73.463658 100.796598, 72.629776 100.796598 72.629776 100.796598, 71.794878 100.796598 71.794878 100.796598, 70.960742 100.796598 70.960742 100.796598, 70.126098 100.796598 70.126098 100.796598, 70.126098 80.432656 70.126098 80.432656, 70.126098 60.068714 70.126098 60.068714, 70.126098 39.704264 70.126098 39.704264, 70.126098 19.340322 70.126098 19.340322, 70.960742 19.340322 70.960742 19.340322, 71.794878 19.340322 71.794878 19.340322, 72.629776 19.340322 72.629776 19.340322, 73.463658 19.340322 73.463658 19.340322, 73.463658 39.704264 73.463658 39.704264, 73.463658 60.068714 73.463658 60.068714, 73.463658 80.432656 73.463658 80.432656, 73.463658 100.796598 73.463658 100.796598, 73.463658 100.796598"/>
      </g>
      <g>
        <polyline style="fill: gray;stroke: black;stroke-width: 1;" points="59.925712 100.796598, 59.09183 100.796598 59.09183 100.796598, 58.256932 100.796598 58.256932 100.796598, 57.422796 100.796598 57.422796 100.796598, 56.588152 100.796598 56.588152 100.796598, 56.588152 80.432656 56.588152 80.432656, 56.588152 60.068714 56.588152 60.068714, 56.588152 39.704264 56.588152 39.704264, 56.588152 19.340322 56.588152 19.340322, 57.422796 19.340322 57.422796 19.340322, 58.256932 19.340322 58.256932 19.340322, 59.09183 19.340322 59.09183 19.340322, 59.925712 19.340322 59.925712 19.340322, 59.925712 39.704264 59.925712 39.704264, 59.925712 60.068714 59.925712 60.068714, 59.925712 80.432656 59.925712 80.432656, 59.925712 100.796598 59.925712 100.796598, 59.925712 100.796598"/>
      </g>
      <g>
        <polyline style="fill: gray;stroke: black;stroke-width: 1;" points="198.175626 100.796598, 199.011032 100.796598 199.011032 100.796598, 199.845168 100.796598 199.845168 100.796598, 200.679304 100.796598 200.679304 100.796598, 201.51344 100.796598 201.51344 100.796598, 201.51344 80.432656 201.51344 80.432656, 201.51344 60.068714 201.51344 60.068714, 201.51344 39.704264 201.51344 39.704264, 201.51344 19.340322 201.51344 19.340322, 200.679304 19.340322 200.679304 19.340322, 199.845168 19.340322 199.845168 19.340322, 199.011032 19.340322 199.011032 19.340322, 198.175626 19.340322 198.175626 19.340322, 198.175626 39.704264 198.175626 39.704264, 198.175626 60.068714 198.175626 60.068714, 198.175626 80.432656 198.175626 80.432656, 198.175626 100.796598 198.175626 100.796598, 198.175626 100.796598"/>
      </g>
      <g>
        <polyline style="fill: gray;stroke: black;stroke-width: 1;" points="211.714334 100.796598, 212.54974 100.796598 212.54974 100.796598, 213.383876 100.796598 213.383876 100.796598, 214.218012 100.796598 214.218012 100.796598, 215.052148 100.796598 215.052148 100.796598, 215.052148 80.432656 215.052148 80.432656, 215.052148 60.068714 215.052148 60.068714, 215.052148 39.704264 215.052148 39.704264, 215.052148 19.340322 215.052148 19.340322, 214.218012 19.340322 214.218012 19.340322, 213.383876 19.340322 213.383876 19.340322, 212.54974 19.340322 212.54974 19.340322, 211.714334 19.340322 211.714334 19.340322, 211.714334 39.704264 211.714334 39.704264, 211.714334 60.068714 211.714334 60.068714, 211.714334 80.432656 211.714334 80.432656, 211.714334 100.796598 211.714334 100.796598, 211.714334 100.796598"/>
      </g>
      <g>
        <polyline style="fill: gray;stroke: black;stroke-width: 1;" points="225.253042 100.796598, 226.088448 100.796598 226.088448 100.796598, 226.922584 100.796598 226.922584 100.796598, 227.75672 100.796598 227.75672 100.796598, 228.590856 100.796598 228.590856 100.796598, 228.590856 80.432656 228.590856 80.432656, 228.590856 60.068714 228.590856 60.068714, 228.590856 39.704264 228.590856 39.704264, 228.590856 19.340322 228.590856 19.340322, 227.75672 19.340322 227.75672 19.340322, 226.922584 19.340322 226.922584 19.340322, 226.088448 19.340322 226.088448 19.340322, 225.253042 19.340322 225.253042 19.340322, 225.253042 39.704264 225.253042 39.704264, 225.253042 60.068714 225.253042 60.068714, 225.253042 80.432656 225.253042 80.432656, 225.253042 100.796598 225.253042 100.796598, 225.253042 100.796598"/>
      </g>
      <g>
        <polyline style="fill: gray;stroke: black;stroke-width: 1;" points="238.79175 100.796598, 239.625632 100.796598 239.625632 100.796598, 240.461292 100.796598 240.461292 100.796598, 241.295428 100.796598 241.295428 100.796598, 242.129564 100.796598 242.129564 100.796598, 242.129564 80.432656 242.129564 80.432656, 242.129564 60.068714 242.129564 60.068714, 242.129564 39.704264 242.129564 39.704264, 242.129564 19.340322 242.129564 19.340322, 241.295428 19.340322 241.295428 19.340322, 240.461292 19.340322 240.461292 19.340322, 239.625632 19.340322 239.625632 19.340322, 238.79175 19.340322 238.79175 19.340322, 238.79175 39.704264 238.79175 39.704264, 238.79175 60.068714 238.79175 60.068714, 238.79175 80.432656 238.79175 80.432656, 238.79175 100.796598 238.79175 100.796598, 238.79175 100.796598"/>
      </g>
      <g>
        <polyline style="fill: gray;stroke: black;stroke-width: 1;" points="252.330458 100.796598, 253.16434 100.796598 253.16434 100.796598, 253.998476 100.796598 253.998476 100.796598, 254.832612 100.796598 254.832612 100.796598, 255.668272 100.796598 255.668272 100.796598, 255.668272 80.432656 255.668272 80.432656, 255.668272 60.068714 255.668272 60.068714, 255.668272 39.704264 255.668272 39.704264, 255.668272 19.340322 255.668272 19.340322, 254.832612 19.340322 254.832612 19.340322, 253.998476 19.340322 253.998476 19.340322, 253.16434 19.340322 253.16434 19.340322, 252.330458 19.340322 252.330458 19.340322, 252.330458 39.704264 252.330458 39.704264, 252.330458 60.068714 252.330458 60.068714, 252.330458 80.432656 252.330458 80.432656, 252.330458 100.796598 252.330458 100.796598, 252.330458 100.796598"/>
      </g>
      <g>
        <polyline style="fill: gray;stroke: black;stroke-width: 1;" points="127.038862 51.946048, 126.102364 51.946048 126.102364 51.946048, 125.16612 51.946048 125.16612 51.946048, 124.229622 51.946048 124.229622 51.946048, 123.293378 51.946048 123.293378 51.946048, 123.293378 43.79468 123.293378 43.79468, 123.293378 35.643058 123.293378 35.643058, 123.293378 27.49169 123.293378 27.49169, 123.293378 19.340322 123.293378 19.340322, 124.229622 19.340322 124.229622 19.340322, 125.16612 19.340322 125.16612 19.340322, 126.102364 19.340322 126.102364 19.340322, 127.038862 19.340322 127.038862 19.340322, 127.038862 27.49169 127.038862 27.49169, 127.038862 35.643058 127.038862 35.643058, 127.038862 43.79468 127.038862 43.79468, 127.038862 51.946048 127.038862 51.946048, 127.038862 51.946048"/>
      </g>
      <g>
        <polyline style="fill: gray;stroke: black;stroke-width: 1;" points="140.625576 51.946048, 139.68984 51.946048 139.68984 51.946048, 138.753596 51.946048 138.753596 51.946048, 137.817098 51.946048 137.817098 51.946048, 136.880854 51.946048 136.880854 51.946048, 136.880854 43.79468 136.880854 43.79468, 136.880854 35.643058 136.880854 35.643058, 136.880854 27.49169 136.880854 27.49169, 136.880854 19.340322 136.880854 19.340322, 137.817098 19.340322 137.817098 19.340322, 138.753596 19.340322 138.753596 19.340322, 139.68984 19.340322 139.68984 19.340322, 140.625576 19.340322 140.625576 19.340322, 140.625576 27.49169 140.625576 27.49169, 140.625576 35.643058 140.625576 35.643058, 140.625576 43.79468 140.625576 43.79468, 140.625576 51.946048 140.625576 51.946048, 140.625576 51.946048"/>
      </g>
      <g>
        <polyline style="fill: gray;stroke: black;stroke-width: 1;" points="154.213052 51.946048, 153.276808 51.946048 153.276808 51.946048, 152.34031 51.946048 152.34031 51.946048, 151.404066 51.946048 151.404066 51.946048, 150.467568 51.946048 150.467568 51.946048, 150.467568 43.79468 150.467568 43.79468, 150.467568 35.643058 150.467568 35.643058, 150.467568 27.49169 150.467568 27.49169, 150.467568 19.340322 150.467568 19.340322, 151.404066 19.340322 151.404066 19.340322, 152.34031 19.340322 152.34031 19.340322, 153.276808 19.340322 153.276808 19.340322, 154.213052 19.340322 154.213052 19.340322, 154.213052 27.49169 154.213052 27.49169, 154.213052 35.643058 154.213052 35.643058, 154.213052 43.79468 154.213052 43.79468, 154.213052 51.946048 154.213052 51.946048, 154.213052 51.946048"/>
      </g>
      <g>
        <polyline style="fill: gray;stroke: black;stroke-width: 1;" points="167.800528 51.946048, 166.864284 51.946048 166.864284 51.946048, 165.927786 51.946048 165.927786 51.946048, 164.991542 51.946048 164.991542 51.946048, 164.055044 51.946048 164.055044 51.946048, 164.055044 43.79468 164.055044 43.79468, 164.055044 35.643058 164.055044 35.643058, 164.055044 27.49169 164.055044 27.49169, 164.055044 19.340322 164.055044 19.340322, 164.991542 19.340322 164.991542 19.340322, 165.927786 19.340322 165.927786 19.340322, 166.864284 19.340322 166.864284 19.340322, 167.800528 19.340322 167.800528 19.340322, 167.800528 27.49169 167.800528 27.49169, 167.800528 35.643058 167.800528 35.643058, 167.800528 43.79468 167.800528 43.79468, 167.800528 51.946048 167.800528 51.946048, 167.800528 51.946048"/>
      </g>
      <g>
        <polyline style="fill: gray;stroke: black;stroke-width: 1;" points="181.387496 51.946048, 180.450998 51.946048 180.450998 51.946048, 179.514754 51.946048 179.514754 51.946048, 178.578256 51.946048 178.578256 51.946048, 177.643536 51.946048 177.643536 51.946048, 177.643536 43.79468 177.643536 43.79468, 177.643536 35.643058 177.643536 35.643058, 177.643536 27.49169 177.643536 27.49169, 177.643536 19.340322 177.643536 19.340322, 178.578256 19.340322 178.578256 19.340322, 179.514754 19.340322 179.514754 19.340322, 180.450998 19.340322 180.450998 19.340322, 181.387496 19.340322 181.387496 19.340322, 181.387496 27.49169 181.387496 27.49169, 181.387496 35.643058 181.387496 35.643058, 181.387496 43.79468 181.387496 43.79468, 181.387496 51.946048 181.387496 51.946048, 181.387496 51.946048"/>
      </g>
      <g>
        <polyline style="fill: gray;stroke: black;stroke-width: 1;" points="203.300838 164.963094, 200.904094 164.963094 200.904094 164.963094, 198.508874 164.963094 198.508874 164.963094, 196.11213 164.963094 196.11213 164.963094, 193.715386 164.963094 193.715386 164.963094, 193.715386 151.799544 193.715386 151.799544, 193.715386 138.635232 193.715386 138.635232, 193.715386 125.47092 193.715386 125.47092, 193.715386 112.30737 193.715386 112.30737, 196.11213 112.30737 196.11213 112.30737, 198.508874 112.30737 198.508874 112.30737, 200.904094 112.30737 200.904094 112.30737, 203.300838 112.30737 203.300838 112.30737, 203.300838 125.47092 203.300838 125.47092, 203.300838 138.635232 203.300838 138.635232, 203.300838 151.799544 203.300838 151.799544, 203.300838 164.963094 203.300838 164.963094, 203.300838 164.963094"/>
      </g>
    </g>
  </g>
</svg>
