<?xml version="1.0" encoding="utf-8"?>
<!-- Generator: SVG Export - SVG Version: 6.00 Build 1  -->
<!-- FXGUID: [D86D61AA-BC7C-11ED-8CD6-525400685065] SYMID: [18707]  -->
<svg xmlns="http://www.w3.org/2000/svg" version="1.1" ch_offset="0" color_bar_width="66" width="381.24003" height="454.526396" origin_x="186.190128" origin_y="235.391198" ch_offset_x="183.275224" ch_offset_y="40" color_offset_x="186.190128" color_offset_y="-4">
  <g>
    <title>Layer 1</title>
    <g>
      <g>
        <polyline style="fill: transparent;stroke: black;stroke-width: 1;" points="31.854394 310.046116, 27.274012 306.34178 27.274012 306.34178, 17.19707 297.619674 17.19707 297.619674, 7.120382 287.462976 7.120382 287.462976, 2.54 279.45715 2.54 279.45715, 2.54 257.471672 2.54 257.471672, 2.54 235.486194 2.54 235.486194, 2.54 213.500716 2.54 213.500716, 2.54 191.515238 2.54 191.515238, 7.120382 183.509666 7.120382 183.509666, 17.19707 173.35373 17.19707 173.35373, 27.274012 164.631624 27.274012 164.631624, 31.854394 160.927288"/>
      </g>
      <g>
        <polyline style="fill: transparent;stroke: black;stroke-width: 1;" points="31.854394 291.77742, 29.563822 289.135058 29.563822 289.135058, 24.525478 282.748482 24.525478 282.748482, 19.48688 274.928076 19.48688 274.928076, 17.19707 267.984224 17.19707 267.984224, 17.19707 252.69063 17.19707 252.69063, 17.19707 237.397036 17.19707 237.397036, 17.19707 222.103442 17.19707 222.103442, 17.19707 206.809848 17.19707 206.809848, 19.48688 199.865996 19.48688 199.865996, 24.525478 192.04559 24.525478 192.04559, 29.563822 185.659014 29.563822 185.659014, 31.854394 183.017414"/>
      </g>
      <g>
        <polyline style="fill: transparent;stroke: black;stroke-width: 1;" points="339.226398 310.046116, 343.80678 306.34178 343.80678 306.34178, 353.883722 297.619674 353.883722 297.619674, 363.959648 287.462976 363.959648 287.462976, 368.54003 279.45715 368.54003 279.45715, 368.54003 257.471672 368.54003 257.471672, 368.54003 235.486194 368.54003 235.486194, 368.54003 213.500716 368.54003 213.500716, 368.54003 191.515238 368.54003 191.515238, 363.959648 183.509666 363.959648 183.509666, 353.883722 173.35373 353.883722 173.35373, 343.80678 164.631624 343.80678 164.631624, 339.226398 160.927288"/>
      </g>
      <g>
        <polyline style="fill: transparent;stroke: black;stroke-width: 1;" points="339.226398 291.77742, 341.51697 289.135058 341.51697 289.135058, 346.554552 282.748482 346.554552 282.748482, 351.59315 274.928076 351.59315 274.928076, 353.883722 267.984224 353.883722 267.984224, 353.883722 252.69063 353.883722 252.69063, 353.883722 237.397036 353.883722 237.397036, 353.883722 222.103442 353.883722 222.103442, 353.883722 206.809848 353.883722 206.809848, 351.59315 199.865996 351.59315 199.865996, 346.554552 192.04559 346.554552 192.04559, 341.51697 185.659014 341.51697 185.659014, 339.226398 183.017414"/>
      </g>
      <g>
        <polyline style="fill: gray;stroke: black;stroke-width: 1;" points="31.854394 325.621142, 36.852606 330.799186 36.852606 330.799186, 48.900588 342.190578 48.900588 342.190578, 63.577216 353.581462 63.577216 353.581462, 76.462636 358.759506 76.462636 358.759506, 131.001008 358.370378 131.001008 358.370378, 185.540396 357.98125 185.540396 357.98125, 240.079022 357.592122 240.079022 357.592122, 294.618156 357.203756 294.618156 357.203756, 307.502814 352.025712 307.502814 352.025712, 322.179442 340.634066 322.179442 340.634066, 334.228186 329.243436 334.228186 329.243436, 339.226398 324.065392 339.226398 324.065392, 339.226398 280.165048 339.226398 280.165048, 339.226398 236.26445 339.226398 236.26445, 339.226398 192.364106 339.226398 192.364106, 339.226398 148.463 339.226398 148.463, 334.228186 143.285718 334.228186 143.285718, 322.179442 131.894072 322.179442 131.894072, 307.502814 120.503442 307.502814 120.503442, 294.618156 115.32616 294.618156 115.32616, 240.079022 114.937032 240.079022 114.937032, 185.540396 114.547904 185.540396 114.547904, 131.001008 114.158776 131.001008 114.158776, 76.462636 113.769648 76.462636 113.769648, 63.577216 118.947692 63.577216 118.947692, 48.900588 130.338322 48.900588 130.338322, 36.852606 141.729206 36.852606 141.729206, 31.854394 146.90725 31.854394 146.90725, 31.854394 191.58585 31.854394 191.58585, 31.854394 236.26445 31.854394 236.26445, 31.854394 280.943304 31.854394 280.943304, 31.854394 325.621142 31.854394 325.621142, 31.854394 325.621142"/>
      </g>
      <g>
        <polyline style="fill: gray;stroke: black;stroke-width: 1;" points="317.97879 292.813994, 322.830444 292.813994 322.830444 292.813994, 333.856076 292.813994 333.856076 292.813994, 345.757754 292.813994 345.757754 292.813994, 353.239324 292.813994 353.239324 292.813994, 356.638352 291.894006 356.638352 291.894006, 359.558336 289.600386 359.558336 289.600386, 361.60329 286.629856 361.60329 286.629856, 362.37291 283.680408 362.37291 283.680408, 362.37291 260.420612 362.37291 260.420612, 362.37291 237.160816 362.37291 237.160816, 362.37291 213.900258 362.37291 213.900258, 362.37291 190.640462 362.37291 190.640462, 361.60329 187.691014 361.60329 187.691014, 359.558336 184.719976 359.558336 184.719976, 356.638352 182.426864 356.638352 182.426864, 353.239324 181.506876 353.239324 181.506876, 345.757754 181.506876 345.757754 181.506876, 333.856076 181.506876 333.856076 181.506876, 322.830444 181.506876 322.830444 181.506876, 317.97879 181.506876 317.97879 181.506876, 317.97879 209.333846 317.97879 209.333846, 317.97879 237.160816 317.97879 237.160816, 317.97879 264.987024 317.97879 264.987024, 317.97879 292.813994 317.97879 292.813994, 317.97879 292.813994"/>
      </g>
      <g>
        <polyline style="fill: gray;stroke: black;stroke-width: 1;" points="53.728112 292.813994, 56.27751 293.982902 56.27751 293.982902, 58.8264 295.151048 58.8264 295.151048, 61.375798 296.319956 61.375798 296.319956, 63.924434 297.488102 63.924434 297.488102, 124.889006 297.488102 124.889006 297.488102, 185.853324 297.488102 185.853324 297.488102, 246.817896 297.488102 246.817896 297.488102, 307.782468 297.488102 307.782468 297.488102, 310.331104 296.319956 310.331104 296.319956, 312.880502 295.151048 312.880502 295.151048, 315.429138 293.982902 315.429138 293.982902, 317.97879 292.813994 317.97879 292.813994, 317.97879 264.987024 317.97879 264.987024, 317.97879 237.160816 317.97879 237.160816, 317.97879 209.333846 317.97879 209.333846, 317.97879 181.506876 317.97879 181.506876, 315.429138 180.33873 315.429138 180.33873, 312.880502 179.169822 312.880502 179.169822, 310.331104 178.000914 310.331104 178.000914, 307.782468 176.832006 307.782468 176.832006, 246.817896 176.832006 246.817896 176.832006, 185.853324 176.832006 185.853324 176.832006, 124.889006 176.832006 124.889006 176.832006, 63.924434 176.832006 63.924434 176.832006, 61.375798 178.000914 61.375798 178.000914, 58.8264 179.169822 58.8264 179.169822, 56.27751 180.33873 56.27751 180.33873, 53.728112 181.506876 53.728112 181.506876, 53.728112 209.333846 53.728112 209.333846, 53.728112 237.160816 53.728112 237.160816, 53.728112 264.987024 53.728112 264.987024, 53.728112 292.813994 53.728112 292.813994, 53.728112 292.813994"/>
      </g>
      <g>
        <polyline style="fill: gray;stroke: black;stroke-width: 1;" points="53.728112 292.813994, 48.875696 292.813994 48.875696 292.813994, 37.850064 292.813994 37.850064 292.813994, 25.948386 292.813994 25.948386 292.813994, 18.467578 292.813994 18.467578 292.813994, 15.06855 291.894006 15.06855 291.894006, 12.147804 289.600386 12.147804 289.600386, 10.103612 286.629856 10.103612 286.629856, 9.333992 283.680408 9.333992 283.680408, 9.333992 260.420612 9.333992 260.420612, 9.333992 237.160816 9.333992 237.160816, 9.333992 213.900258 9.333992 213.900258, 9.333992 190.640462 9.333992 190.640462, 10.103612 187.691014 10.103612 187.691014, 12.147804 184.719976 12.147804 184.719976, 15.06855 182.426864 15.06855 182.426864, 18.467578 181.506876 18.467578 181.506876, 25.948386 181.506876 25.948386 181.506876, 37.850064 181.506876 37.850064 181.506876, 48.875696 181.506876 48.875696 181.506876, 53.728112 181.506876 53.728112 181.506876, 53.728112 209.333846 53.728112 209.333846, 53.728112 237.160816 53.728112 237.160816, 53.728112 264.987024 53.728112 264.987024, 53.728112 292.813994 53.728112 292.813994, 53.728112 292.813994"/>
      </g>
      <g>
        <polyline style="fill: gray;stroke: black;stroke-width: 1;" points="53.712618 260.844538, 55.624222 260.844538 55.624222 260.844538, 57.535572 260.844538 57.535572 260.844538, 59.447938 260.844538 59.447938 260.844538, 61.359542 260.844538 61.359542 260.844538, 61.359542 248.523506 61.359542 248.523506, 61.359542 236.202474 61.359542 236.202474, 61.359542 223.881696 61.359542 223.881696, 61.359542 211.561426 61.359542 211.561426, 59.447938 211.561426 59.447938 211.561426, 57.535572 211.561426 57.535572 211.561426, 55.624222 211.561426 55.624222 211.561426, 53.712618 211.561426 53.712618 211.561426, 53.712618 223.881696 53.712618 223.881696, 53.712618 236.202474 53.712618 236.202474, 53.712618 248.523506 53.712618 248.523506, 53.712618 260.844538 53.712618 260.844538, 53.712618 260.844538"/>
      </g>
      <g>
        <polyline style="fill: gray;stroke: black;stroke-width: 1;" points="226.696778 441.826396, 241.100356 441.202572 241.100356 441.202572, 250.805188 439.383932 250.805188 439.383932, 257.164586 436.449216 257.164586 436.449216, 261.533386 432.478942 261.533386 432.478942, 271.250664 417.051236 271.250664 417.051236, 287.660334 387.446012 287.660334 387.446012, 303.113694 355.29139 303.113694 355.29139, 309.964582 332.217522 309.964582 332.217522, 309.964582 299.14596 309.964582 299.14596, 309.964582 245.442994 309.964582 245.442994, 309.964582 195.404232 309.964582 195.404232, 309.964582 173.32579 309.964582 173.32579, 308.052978 173.32579 308.052978 173.32579, 306.141374 173.32579 306.141374 173.32579, 304.230024 173.32579 304.230024 173.32579, 302.316896 173.32579 302.316896 173.32579, 296.078402 122.624088 296.078402 122.624088, 282.350718 66.585084 282.350718 66.585084, 268.62278 21.219668 268.62278 21.219668, 262.382762 2.54 262.382762 2.54, 247.089168 2.54 247.089168 2.54, 231.79405 2.54 231.79405 2.54, 216.500456 2.54 216.500456 2.54, 201.205084 2.54 201.205084 2.54, 193.4337 2.54 193.4337 2.54, 185.662062 2.54 185.662062 2.54, 177.890424 2.54 177.890424 2.54, 170.118786 2.54 170.118786 2.54, 154.824176 2.54 154.824176 2.54, 139.52982 2.54 139.52982 2.54, 124.235464 2.54 124.235464 2.54, 108.941108 2.54 108.941108 2.54, 102.701852 21.219668 102.701852 21.219668, 88.974168 66.585084 88.974168 66.585084, 75.246992 122.624088 75.246992 122.624088, 69.006974 173.32579 69.006974 173.32579, 67.095624 173.32579 67.095624 173.32579, 65.183258 173.32579 65.183258 173.32579, 63.271654 173.32579 63.271654 173.32579, 61.359542 173.32579 61.359542 173.32579, 61.359542 195.404232 61.359542 195.404232, 61.359542 245.442994 61.359542 245.442994, 61.359542 299.14596 61.359542 299.14596, 61.359542 332.217522 61.359542 332.217522, 68.210176 355.29139 68.210176 355.29139, 83.664298 387.446012 83.664298 387.446012, 100.07346 417.051236 100.07346 417.051236, 109.7915 432.478942 109.7915 432.478942, 114.159284 436.449216 114.159284 436.449216, 120.518682 439.383932 120.518682 439.383932, 130.223514 441.202572 130.223514 441.202572, 144.628108 441.826396 144.628108 441.826396, 165.145466 441.826396 165.145466 441.826396, 185.662062 441.826396 185.662062 441.826396, 206.180182 441.826396 206.180182 441.826396, 226.696778 441.826396 226.696778 441.826396, 226.696778 441.826396"/>
      </g>
      <g>
        <polyline style="fill: gray;stroke: black;stroke-width: 1;" points="309.964582 260.844538, 311.875932 260.844538 311.875932 260.844538, 313.78906 260.844538 313.78906 260.844538, 315.700664 260.844538 315.700664 260.844538, 317.612014 260.844538 317.612014 260.844538, 317.612014 248.523506 317.612014 248.523506, 317.612014 236.202474 317.612014 236.202474, 317.612014 223.881696 317.612014 223.881696, 317.612014 211.561426 317.612014 211.561426, 315.700664 211.561426 315.700664 211.561426, 313.78906 211.561426 313.78906 211.561426, 311.875932 211.561426 311.875932 211.561426, 309.964582 211.561426 309.964582 211.561426, 309.964582 223.881696 309.964582 223.881696, 309.964582 236.202474 309.964582 236.202474, 309.964582 248.523506 309.964582 248.523506, 309.964582 260.844538 309.964582 260.844538, 309.964582 260.844538"/>
      </g>
      <g>
        <polyline style="fill: transparent;stroke: black;stroke-width: 1;" points="93.779086 49.965864, 139.87018 49.965864 139.87018 49.965864, 185.961274 49.965864 185.961274 49.965864, 232.052876 49.965864 232.052876 49.965864, 278.144732 49.965864"/>
      </g>
      <g>
        <polyline style="fill: gray;stroke: black;stroke-width: 1;" points="139.954 197.966838, 138.679428 197.966838 138.679428 197.966838, 137.40511 197.966838 137.40511 197.966838, 136.130792 197.966838 136.130792 197.966838, 134.855712 197.966838 134.855712 197.966838, 134.855712 162.121088 134.855712 162.121088, 134.855712 126.275084 134.855712 126.275084, 134.855712 90.429334 134.855712 90.429334, 134.855712 54.58333 134.855712 54.58333, 136.130792 54.58333 136.130792 54.58333, 137.40511 54.58333 137.40511 54.58333, 138.679428 54.58333 138.679428 54.58333, 139.954 54.58333 139.954 54.58333, 139.954 90.429334 139.954 90.429334, 139.954 126.275084 139.954 126.275084, 139.954 162.121088 139.954 162.121088, 139.954 197.966838 139.954 197.966838, 139.954 197.966838"/>
      </g>
      <g>
        <polyline style="fill: gray;stroke: black;stroke-width: 1;" points="125.297438 197.966838, 124.022358 197.966838 124.022358 197.966838, 122.74804 197.966838 122.74804 197.966838, 121.473722 197.966838 121.473722 197.966838, 120.199404 197.966838 120.199404 197.966838, 120.199404 162.121088 120.199404 162.121088, 120.199404 126.275084 120.199404 126.275084, 120.199404 90.429334 120.199404 90.429334, 120.199404 54.58333 120.199404 54.58333, 121.473722 54.58333 121.473722 54.58333, 122.74804 54.58333 122.74804 54.58333, 124.022358 54.58333 124.022358 54.58333, 125.297438 54.58333 125.297438 54.58333, 125.297438 90.429334 125.297438 90.429334, 125.297438 126.275084 125.297438 126.275084, 125.297438 162.121088 125.297438 162.121088, 125.297438 197.966838 125.297438 197.966838, 125.297438 197.966838"/>
      </g>
      <g>
        <polyline style="fill: gray;stroke: black;stroke-width: 1;" points="169.268394 197.966838, 167.994076 197.966838 167.994076 197.966838, 166.718996 197.966838 166.718996 197.966838, 165.444678 197.966838 165.444678 197.966838, 164.17036 197.966838 164.17036 197.966838, 164.17036 162.121088 164.17036 162.121088, 164.17036 126.275084 164.17036 126.275084, 164.17036 90.429334 164.17036 90.429334, 164.17036 54.58333 164.17036 54.58333, 165.444678 54.58333 165.444678 54.58333, 166.718996 54.58333 166.718996 54.58333, 167.994076 54.58333 167.994076 54.58333, 169.268394 54.58333 169.268394 54.58333, 169.268394 90.429334 169.268394 90.429334, 169.268394 126.275084 169.268394 126.275084, 169.268394 162.121088 169.268394 162.121088, 169.268394 197.966838 169.268394 197.966838, 169.268394 197.966838"/>
      </g>
      <g>
        <polyline style="fill: gray;stroke: black;stroke-width: 1;" points="183.925718 197.966838, 182.6514 197.966838 182.6514 197.966838, 181.376828 197.966838 181.376828 197.966838, 180.10251 197.966838 180.10251 197.966838, 178.826668 197.966838 178.826668 197.966838, 178.826668 162.121088 178.826668 162.121088, 178.826668 126.275084 178.826668 126.275084, 178.826668 90.429334 178.826668 90.429334, 178.826668 54.58333 178.826668 54.58333, 180.10251 54.58333 180.10251 54.58333, 181.376828 54.58333 181.376828 54.58333, 182.6514 54.58333 182.6514 54.58333, 183.925718 54.58333 183.925718 54.58333, 183.925718 90.429334 183.925718 90.429334, 183.925718 126.275084 183.925718 126.275084, 183.925718 162.121088 183.925718 162.121088, 183.925718 197.966838 183.925718 197.966838, 183.925718 197.966838"/>
      </g>
      <g>
        <polyline style="fill: gray;stroke: black;stroke-width: 1;" points="198.582026 197.966838, 197.307708 197.966838 197.307708 197.966838, 196.03339 197.966838 196.03339 197.966838, 194.759072 197.966838 194.759072 197.966838, 193.484754 197.966838 193.484754 197.966838, 193.484754 162.121088 193.484754 162.121088, 193.484754 126.275084 193.484754 126.275084, 193.484754 90.429334 193.484754 90.429334, 193.484754 54.58333 193.484754 54.58333, 194.759072 54.58333 194.759072 54.58333, 196.03339 54.58333 196.03339 54.58333, 197.307708 54.58333 197.307708 54.58333, 198.582026 54.58333 198.582026 54.58333, 198.582026 90.429334 198.582026 90.429334, 198.582026 126.275084 198.582026 126.275084, 198.582026 162.121088 198.582026 162.121088, 198.582026 197.966838 198.582026 197.966838, 198.582026 197.966838"/>
      </g>
      <g>
        <polyline style="fill: gray;stroke: black;stroke-width: 1;" points="213.238588 197.966838, 211.96427 197.966838 211.96427 197.966838, 210.689952 197.966838 210.689952 197.966838, 209.415634 197.966838 209.415634 197.966838, 208.141316 197.966838 208.141316 197.966838, 208.141316 162.121088 208.141316 162.121088, 208.141316 126.275084 208.141316 126.275084, 208.141316 90.429334 208.141316 90.429334, 208.141316 54.58333 208.141316 54.58333, 209.415634 54.58333 209.415634 54.58333, 210.689952 54.58333 210.689952 54.58333, 211.96427 54.58333 211.96427 54.58333, 213.238588 54.58333 213.238588 54.58333, 213.238588 90.429334 213.238588 90.429334, 213.238588 126.275084 213.238588 126.275084, 213.238588 162.121088 213.238588 162.121088, 213.238588 197.966838 213.238588 197.966838, 213.238588 197.966838"/>
      </g>
      <g>
        <polyline style="fill: gray;stroke: black;stroke-width: 1;" points="154.61107 197.966838, 153.336752 197.966838 153.336752 197.966838, 152.062434 197.966838 152.062434 197.966838, 150.787354 197.966838 150.787354 197.966838, 149.513036 197.966838 149.513036 197.966838, 149.513036 162.121088 149.513036 162.121088, 149.513036 126.275084 149.513036 126.275084, 149.513036 90.429334 149.513036 90.429334, 149.513036 54.58333 149.513036 54.58333, 150.787354 54.58333 150.787354 54.58333, 152.062434 54.58333 152.062434 54.58333, 153.336752 54.58333 153.336752 54.58333, 154.61107 54.58333 154.61107 54.58333, 154.61107 90.429334 154.61107 90.429334, 154.61107 126.275084 154.61107 126.275084, 154.61107 162.121088 154.61107 162.121088, 154.61107 197.966838 154.61107 197.966838, 154.61107 197.966838"/>
      </g>
      <g>
        <polyline style="fill: gray;stroke: black;stroke-width: 1;" points="242.552982 197.966838, 241.278664 197.966838 241.278664 197.966838, 240.004346 197.966838 240.004346 197.966838, 238.730028 197.966838 238.730028 197.966838, 237.454186 197.966838 237.454186 197.966838, 237.454186 162.121088 237.454186 162.121088, 237.454186 126.275084 237.454186 126.275084, 237.454186 90.429334 237.454186 90.429334, 237.454186 54.58333 237.454186 54.58333, 238.730028 54.58333 238.730028 54.58333, 240.004346 54.58333 240.004346 54.58333, 241.278664 54.58333 241.278664 54.58333, 242.552982 54.58333 242.552982 54.58333, 242.552982 90.429334 242.552982 90.429334, 242.552982 126.275084 242.552982 126.275084, 242.552982 162.121088 242.552982 162.121088, 242.552982 197.966838 242.552982 197.966838, 242.552982 197.966838"/>
      </g>
      <g>
        <polyline style="fill: gray;stroke: black;stroke-width: 1;" points="257.209544 197.966838, 255.935226 197.966838 255.935226 197.966838, 254.660908 197.966838 254.660908 197.966838, 253.38659 197.966838 253.38659 197.966838, 252.112272 197.966838 252.112272 197.966838, 252.112272 162.121088 252.112272 162.121088, 252.112272 126.275084 252.112272 126.275084, 252.112272 90.429334 252.112272 90.429334, 252.112272 54.58333 252.112272 54.58333, 253.38659 54.58333 253.38659 54.58333, 254.660908 54.58333 254.660908 54.58333, 255.935226 54.58333 255.935226 54.58333, 257.209544 54.58333 257.209544 54.58333, 257.209544 90.429334 257.209544 90.429334, 257.209544 126.275084 257.209544 126.275084, 257.209544 162.121088 257.209544 162.121088, 257.209544 197.966838 257.209544 197.966838, 257.209544 197.966838"/>
      </g>
      <g>
        <polyline style="fill: gray;stroke: black;stroke-width: 1;" points="112.55248 422.920668, 111.118396 422.920668 111.118396 422.920668, 109.684312 422.920668 109.684312 422.920668, 108.250482 422.920668 108.250482 422.920668, 106.81716 422.920668 106.81716 422.920668, 106.81716 385.95935 106.81716 385.95935, 106.81716 348.998032 106.81716 348.998032, 106.81716 312.036714 106.81716 312.036714, 106.81716 275.075396 106.81716 275.075396, 108.250482 275.075396 108.250482 275.075396, 109.684312 275.075396 109.684312 275.075396, 111.118396 275.075396 111.118396 275.075396, 112.55248 275.075396 112.55248 275.075396, 112.55248 312.036714 112.55248 312.036714, 112.55248 348.998032 112.55248 348.998032, 112.55248 385.95935 112.55248 385.95935, 112.55248 422.920668 112.55248 422.920668, 112.55248 422.920668"/>
      </g>
      <g>
        <polyline style="fill: gray;stroke: black;stroke-width: 1;" points="123.067318 422.920668, 121.633234 422.920668 121.633234 422.920668, 120.199404 422.920668 120.199404 422.920668, 118.76532 422.920668 118.76532 422.920668, 117.331236 422.920668 117.331236 422.920668, 117.331236 385.95935 117.331236 385.95935, 117.331236 348.998032 117.331236 348.998032, 117.331236 312.036714 117.331236 312.036714, 117.331236 275.075396 117.331236 275.075396, 118.76532 275.075396 118.76532 275.075396, 120.199404 275.075396 120.199404 275.075396, 121.633234 275.075396 121.633234 275.075396, 123.067318 275.075396 123.067318 275.075396, 123.067318 312.036714 123.067318 312.036714, 123.067318 348.998032 123.067318 348.998032, 123.067318 385.95935 123.067318 385.95935, 123.067318 422.920668 123.067318 422.920668, 123.067318 422.920668"/>
      </g>
      <g>
        <polyline style="fill: gray;stroke: black;stroke-width: 1;" points="133.581394 422.920668, 132.148072 422.920668 132.148072 422.920668, 130.714242 422.920668 130.714242 422.920668, 129.280158 422.920668 129.280158 422.920668, 127.846074 422.920668 127.846074 422.920668, 127.846074 385.95935 127.846074 385.95935, 127.846074 348.998032 127.846074 348.998032, 127.846074 312.036714 127.846074 312.036714, 127.846074 275.075396 127.846074 275.075396, 129.280158 275.075396 129.280158 275.075396, 130.714242 275.075396 130.714242 275.075396, 132.148072 275.075396 132.148072 275.075396, 133.581394 275.075396 133.581394 275.075396, 133.581394 312.036714 133.581394 312.036714, 133.581394 348.998032 133.581394 348.998032, 133.581394 385.95935 133.581394 385.95935, 133.581394 422.920668 133.581394 422.920668, 133.581394 422.920668"/>
      </g>
      <g>
        <polyline style="fill: gray;stroke: black;stroke-width: 1;" points="144.096232 422.920668, 142.66291 422.920668 142.66291 422.920668, 141.22908 422.920668 141.22908 422.920668, 139.794996 422.920668 139.794996 422.920668, 138.360912 422.920668 138.360912 422.920668, 138.360912 385.95935 138.360912 385.95935, 138.360912 348.998032 138.360912 348.998032, 138.360912 312.036714 138.360912 312.036714, 138.360912 275.075396 138.360912 275.075396, 139.794996 275.075396 139.794996 275.075396, 141.22908 275.075396 141.22908 275.075396, 142.66291 275.075396 142.66291 275.075396, 144.096232 275.075396 144.096232 275.075396, 144.096232 312.036714 144.096232 312.036714, 144.096232 348.998032 144.096232 348.998032, 144.096232 385.95935 144.096232 385.95935, 144.096232 422.920668 144.096232 422.920668, 144.096232 422.920668"/>
      </g>
      <g>
        <polyline style="fill: gray;stroke: black;stroke-width: 1;" points="154.61107 422.920668, 153.176986 422.920668 153.176986 422.920668, 151.743918 422.920668 151.743918 422.920668, 150.309834 422.920668 150.309834 422.920668, 148.87575 422.920668 148.87575 422.920668, 148.87575 385.95935 148.87575 385.95935, 148.87575 348.998032 148.87575 348.998032, 148.87575 312.036714 148.87575 312.036714, 148.87575 275.075396 148.87575 275.075396, 150.309834 275.075396 150.309834 275.075396, 151.743918 275.075396 151.743918 275.075396, 153.176986 275.075396 153.176986 275.075396, 154.61107 275.075396 154.61107 275.075396, 154.61107 312.036714 154.61107 312.036714, 154.61107 348.998032 154.61107 348.998032, 154.61107 385.95935 154.61107 385.95935, 154.61107 422.920668 154.61107 422.920668, 154.61107 422.920668"/>
      </g>
      <g>
        <polyline style="fill: gray;stroke: black;stroke-width: 1;" points="165.125908 422.920668, 163.692078 422.920668 163.692078 422.920668, 162.258756 422.920668 162.258756 422.920668, 160.824672 422.920668 160.824672 422.920668, 159.390588 422.920668 159.390588 422.920668, 159.390588 385.95935 159.390588 385.95935, 159.390588 348.998032 159.390588 348.998032, 159.390588 312.036714 159.390588 312.036714, 159.390588 275.075396 159.390588 275.075396, 160.824672 275.075396 160.824672 275.075396, 162.258756 275.075396 162.258756 275.075396, 163.692078 275.075396 163.692078 275.075396, 165.125908 275.075396 165.125908 275.075396, 165.125908 312.036714 165.125908 312.036714, 165.125908 348.998032 165.125908 348.998032, 165.125908 385.95935 165.125908 385.95935, 165.125908 422.920668 165.125908 422.920668, 165.125908 422.920668"/>
      </g>
      <g>
        <polyline style="fill: gray;stroke: black;stroke-width: 1;" points="175.640746 422.920668, 174.206916 422.920668 174.206916 422.920668, 172.772832 422.920668 172.772832 422.920668, 171.33951 422.920668 171.33951 422.920668, 169.90568 422.920668 169.90568 422.920668, 169.90568 385.95935 169.90568 385.95935, 169.90568 348.998032 169.90568 348.998032, 169.90568 312.036714 169.90568 312.036714, 169.90568 275.075396 169.90568 275.075396, 171.33951 275.075396 171.33951 275.075396, 172.772832 275.075396 172.772832 275.075396, 174.206916 275.075396 174.206916 275.075396, 175.640746 275.075396 175.640746 275.075396, 175.640746 312.036714 175.640746 312.036714, 175.640746 348.998032 175.640746 348.998032, 175.640746 385.95935 175.640746 385.95935, 175.640746 422.920668 175.640746 422.920668, 175.640746 422.920668"/>
      </g>
      <g>
        <polyline style="fill: gray;stroke: black;stroke-width: 1;" points="186.155076 422.920668, 184.722516 422.920668 184.722516 422.920668, 183.288432 422.920668 183.288432 422.920668, 181.854348 422.920668 181.854348 422.920668, 180.420518 422.920668 180.420518 422.920668, 180.420518 385.95935 180.420518 385.95935, 180.420518 348.998032 180.420518 348.998032, 180.420518 312.036714 180.420518 312.036714, 180.420518 275.075396 180.420518 275.075396, 181.854348 275.075396 181.854348 275.075396, 183.288432 275.075396 183.288432 275.075396, 184.722516 275.075396 184.722516 275.075396, 186.155076 275.075396 186.155076 275.075396, 186.155076 312.036714 186.155076 312.036714, 186.155076 348.998032 186.155076 348.998032, 186.155076 385.95935 186.155076 385.95935, 186.155076 422.920668 186.155076 422.920668, 186.155076 422.920668"/>
      </g>
      <g>
        <polyline style="fill: gray;stroke: black;stroke-width: 1;" points="196.670676 422.920668, 195.236592 422.920668 195.236592 422.920668, 193.802508 422.920668 193.802508 422.920668, 192.368424 422.920668 192.368424 422.920668, 190.934594 422.920668 190.934594 422.920668, 190.934594 385.95935 190.934594 385.95935, 190.934594 348.998032 190.934594 348.998032, 190.934594 312.036714 190.934594 312.036714, 190.934594 275.075396 190.934594 275.075396, 192.368424 275.075396 192.368424 275.075396, 193.802508 275.075396 193.802508 275.075396, 195.236592 275.075396 195.236592 275.075396, 196.670676 275.075396 196.670676 275.075396, 196.670676 312.036714 196.670676 312.036714, 196.670676 348.998032 196.670676 348.998032, 196.670676 385.95935 196.670676 385.95935, 196.670676 422.920668 196.670676 422.920668, 196.670676 422.920668"/>
      </g>
      <g>
        <polyline style="fill: gray;stroke: black;stroke-width: 1;" points="207.184752 422.920668, 205.750668 422.920668 205.750668 422.920668, 204.318108 422.920668 204.318108 422.920668, 202.884278 422.920668 202.884278 422.920668, 201.450194 422.920668 201.450194 422.920668, 201.450194 385.95935 201.450194 385.95935, 201.450194 348.998032 201.450194 348.998032, 201.450194 312.036714 201.450194 312.036714, 201.450194 275.075396 201.450194 275.075396, 202.884278 275.075396 202.884278 275.075396, 204.318108 275.075396 204.318108 275.075396, 205.750668 275.075396 205.750668 275.075396, 207.184752 275.075396 207.184752 275.075396, 207.184752 312.036714 207.184752 312.036714, 207.184752 348.998032 207.184752 348.998032, 207.184752 385.95935 207.184752 385.95935, 207.184752 422.920668 207.184752 422.920668, 207.184752 422.920668"/>
      </g>
      <g>
        <polyline style="fill: gray;stroke: black;stroke-width: 1;" points="217.700352 422.920668, 216.266268 422.920668 216.266268 422.920668, 214.832184 422.920668 214.832184 422.920668, 213.398354 422.920668 213.398354 422.920668, 211.96427 422.920668 211.96427 422.920668, 211.96427 385.95935 211.96427 385.95935, 211.96427 348.998032 211.96427 348.998032, 211.96427 312.036714 211.96427 312.036714, 211.96427 275.075396 211.96427 275.075396, 213.398354 275.075396 213.398354 275.075396, 214.832184 275.075396 214.832184 275.075396, 216.266268 275.075396 216.266268 275.075396, 217.700352 275.075396 217.700352 275.075396, 217.700352 312.036714 217.700352 312.036714, 217.700352 348.998032 217.700352 348.998032, 217.700352 385.95935 217.700352 385.95935, 217.700352 422.920668 217.700352 422.920668, 217.700352 422.920668"/>
      </g>
      <g>
        <polyline style="fill: gray;stroke: black;stroke-width: 1;" points="228.214428 422.920668, 226.781868 422.920668 226.781868 422.920668, 225.348038 422.920668 225.348038 422.920668, 223.913954 422.920668 223.913954 422.920668, 222.47987 422.920668 222.47987 422.920668, 222.47987 385.95935 222.47987 385.95935, 222.47987 348.998032 222.47987 348.998032, 222.47987 312.036714 222.47987 312.036714, 222.47987 275.075396 222.47987 275.075396, 223.913954 275.075396 223.913954 275.075396, 225.348038 275.075396 225.348038 275.075396, 226.781868 275.075396 226.781868 275.075396, 228.214428 275.075396 228.214428 275.075396, 228.214428 312.036714 228.214428 312.036714, 228.214428 348.998032 228.214428 348.998032, 228.214428 385.95935 228.214428 385.95935, 228.214428 422.920668 228.214428 422.920668, 228.214428 422.920668"/>
      </g>
      <g>
        <polyline style="fill: gray;stroke: black;stroke-width: 1;" points="238.730028 422.920668, 237.295944 422.920668 237.295944 422.920668, 235.862114 422.920668 235.862114 422.920668, 234.42803 422.920668 234.42803 422.920668, 232.993946 422.920668 232.993946 422.920668, 232.993946 385.95935 232.993946 385.95935, 232.993946 348.998032 232.993946 348.998032, 232.993946 312.036714 232.993946 312.036714, 232.993946 275.075396 232.993946 275.075396, 234.42803 275.075396 234.42803 275.075396, 235.862114 275.075396 235.862114 275.075396, 237.295944 275.075396 237.295944 275.075396, 238.730028 275.075396 238.730028 275.075396, 238.730028 312.036714 238.730028 312.036714, 238.730028 348.998032 238.730028 348.998032, 238.730028 385.95935 238.730028 385.95935, 238.730028 422.920668 238.730028 422.920668, 238.730028 422.920668"/>
      </g>
      <g>
        <polyline style="fill: gray;stroke: black;stroke-width: 1;" points="249.244104 422.920668, 247.81002 422.920668 247.81002 422.920668, 246.377714 422.920668 246.377714 422.920668, 244.94363 422.920668 244.94363 422.920668, 243.509546 422.920668 243.509546 422.920668, 243.509546 385.95935 243.509546 385.95935, 243.509546 348.998032 243.509546 348.998032, 243.509546 312.036714 243.509546 312.036714, 243.509546 275.075396 243.509546 275.075396, 244.94363 275.075396 244.94363 275.075396, 246.377714 275.075396 246.377714 275.075396, 247.81002 275.075396 247.81002 275.075396, 249.244104 275.075396 249.244104 275.075396, 249.244104 312.036714 249.244104 312.036714, 249.244104 348.998032 249.244104 348.998032, 249.244104 385.95935 249.244104 385.95935, 249.244104 422.920668 249.244104 422.920668, 249.244104 422.920668"/>
      </g>
      <g>
        <polyline style="fill: gray;stroke: black;stroke-width: 1;" points="259.759704 422.920668, 258.325874 422.920668 258.325874 422.920668, 256.89179 422.920668 256.89179 422.920668, 255.457706 422.920668 255.457706 422.920668, 254.023622 422.920668 254.023622 422.920668, 254.023622 385.95935 254.023622 385.95935, 254.023622 348.998032 254.023622 348.998032, 254.023622 312.036714 254.023622 312.036714, 254.023622 275.075396 254.023622 275.075396, 255.457706 275.075396 255.457706 275.075396, 256.89179 275.075396 256.89179 275.075396, 258.325874 275.075396 258.325874 275.075396, 259.759704 275.075396 259.759704 275.075396, 259.759704 312.036714 259.759704 312.036714, 259.759704 348.998032 259.759704 348.998032, 259.759704 385.95935 259.759704 385.95935, 259.759704 422.920668 259.759704 422.920668, 259.759704 422.920668"/>
      </g>
      <g>
        <polyline style="fill: gray;stroke: black;stroke-width: 1;" points="249.244104 254.683514, 217.619834 254.683514 217.619834 254.683514, 185.996834 254.683514 185.996834 254.683514, 154.37231 254.683514 154.37231 254.683514, 122.74804 254.683514 122.74804 254.683514, 122.74804 245.124478 122.74804 245.124478, 122.74804 235.565442 122.74804 235.565442, 122.74804 226.007168 122.74804 226.007168, 122.74804 216.447878 122.74804 216.447878, 154.37231 216.447878 154.37231 216.447878, 185.996834 216.447878 185.996834 216.447878, 217.619834 216.447878 217.619834 216.447878, 249.244104 216.447878 249.244104 216.447878, 249.244104 226.007168 249.244104 226.007168, 249.244104 235.565442 249.244104 235.565442, 249.244104 245.124478 249.244104 245.124478, 249.244104 254.683514 249.244104 254.683514, 249.244104 254.683514"/>
      </g>
      <g>
        <polyline style="fill: gray;stroke: black;stroke-width: 1;" points="227.896674 197.966838, 226.620832 197.966838 226.620832 197.966838, 225.34626 197.966838 225.34626 197.966838, 224.071942 197.966838 224.071942 197.966838, 222.797624 197.966838 222.797624 197.966838, 222.797624 162.121088 222.797624 162.121088, 222.797624 126.275084 222.797624 126.275084, 222.797624 90.429334 222.797624 90.429334, 222.797624 54.58333 222.797624 54.58333, 224.071942 54.58333 224.071942 54.58333, 225.34626 54.58333 225.34626 54.58333, 226.620832 54.58333 226.620832 54.58333, 227.896674 54.58333 227.896674 54.58333, 227.896674 90.429334 227.896674 90.429334, 227.896674 126.275084 227.896674 126.275084, 227.896674 162.121088 227.896674 162.121088, 227.896674 197.966838 227.896674 197.966838, 227.896674 197.966838"/>
      </g>
    </g>
  </g>
</svg>
