<?xml version="1.0" encoding="utf-8"?>
<!-- Generator: SVG Export - SVG Version: 6.00 Build 1  -->
<!-- FXGUID: [B4647ADF-A391-11E7-AC16-525400685065] SYMID: [14147]  -->
<svg xmlns="http://www.w3.org/2000/svg" version="1.1" ch_offset="0" color_bar_width="66" width="409.851606" height="489.004356" origin_x="197.903846" origin_y="282.68168" ch_offset_x="198.1452222" ch_offset_y="40" color_offset_x="197.903846" color_offset_y="-4" fxtype_offset_x="196.9640206" fxtype_offset_y="509.759458" fxtype_offset_value="MK2Profile">
  <g>
    <title>Layer 1</title>
    <g>
      <g>
        <polyline style="fill: gray;stroke: black;stroke-width: 1;" points="381.471932 185.322972, 361.218226 160.388046 361.218226 160.388046, 38.472618 160.388046 38.472618 160.388046, 18.219674 185.322972 18.219674 185.322972, 2.54 246.101362 2.54 246.101362, 2.54 320.90614 2.54 320.90614, 18.219674 381.685292 18.219674 381.685292, 38.472618 406.620218 38.472618 406.620218, 361.218226 406.620218 361.218226 406.620218, 381.471932 381.685292 381.471932 381.685292, 397.151606 320.90614 397.151606 320.90614, 397.151606 246.101362 397.151606 246.101362, 381.471932 185.322972 381.471932 185.322972, 381.471932 185.322972"/>
      </g>
      <g>
        <polyline style="fill: gray;stroke: black;stroke-width: 1;" points="50.633122 304.83429, 44.263056 353.922584 44.263056 353.922584, 34.95421 353.922584 34.95421 353.922584, 23.715472 326.665336 23.715472 326.665336, 17.80413 298.405042 17.80413 298.405042, 17.80413 268.602206 17.80413 268.602206, 23.715472 240.341912 23.715472 240.341912, 34.953448 213.085426 34.953448 213.085426, 44.263056 213.085426 44.263056 213.085426, 50.633122 262.173212 50.633122 262.173212, 50.633122 304.83429 50.633122 304.83429, 50.633122 304.83429"/>
      </g>
      <g>
        <polyline style="fill: gray;stroke: black;stroke-width: 1;" points="381.886714 298.405042, 375.975372 326.665336 375.975372 326.665336, 364.737142 353.922584 364.737142 353.922584, 355.427788 353.922584 355.427788 353.922584, 349.057722 304.83429 349.057722 304.83429, 349.057722 262.173212 349.057722 262.173212, 355.427788 213.085426 355.427788 213.085426, 364.737142 213.085426 364.737142 213.085426, 375.975372 240.341912 375.975372 240.341912, 381.886714 268.602206 381.886714 268.602206, 381.886714 298.405042 381.886714 298.405042, 381.886714 298.405042"/>
      </g>
      <g>
        <polyline style="fill: gray;stroke: black;stroke-width: 1;" points="376.913394 210.163918, 22.77745 210.163918 22.77745 210.163918, 5.628132 238.214154 5.628132 238.214154, 5.628132 328.793094 5.628132 328.793094, 22.77745 356.84333 22.77745 356.84333, 376.913394 356.84333 376.913394 356.84333, 394.062712 328.793094 394.062712 328.793094, 394.062712 238.214154 394.062712 238.214154, 376.913394 210.163918"/>
      </g>
      <g>
        <polyline style="fill: gray;stroke: black;stroke-width: 1;" points="345.065604 320.027808, 337.225894 320.027808 337.225894 320.027808, 337.225894 246.980456 337.225894 246.980456, 345.065604 246.980456 345.065604 246.980456, 345.065604 320.027808"/>
      </g>
      <g>
        <polyline style="fill: gray;stroke: black;stroke-width: 1;" points="345.065604 356.84333, 376.913394 356.84333 376.913394 356.84333, 394.062712 328.793094 394.062712 328.793094, 394.062712 238.214154 394.062712 238.214154, 376.913394 210.163918 376.913394 210.163918, 345.065604 210.163918 345.065604 210.163918, 345.065604 356.84333"/>
      </g>
      <g>
        <polyline style="fill: gray;stroke: black;stroke-width: 1;" points="54.62524 320.027808, 62.46495 320.027808 62.46495 320.027808, 62.46495 246.980456 62.46495 246.980456, 54.62524 246.980456 54.62524 246.980456, 54.62524 320.027808"/>
      </g>
      <g>
        <polyline style="fill: gray;stroke: black;stroke-width: 1;" points="54.62524 356.84333, 22.77745 356.84333 22.77745 356.84333, 5.628132 328.793094 5.628132 328.793094, 5.628132 238.214154 5.628132 238.214154, 22.77745 210.163918 22.77745 210.163918, 54.62524 210.163918 54.62524 210.163918, 54.62524 356.84333"/>
      </g>
      <g>
        <polyline style="fill: gray;stroke: black;stroke-width: 1;" points="300.458124 476.304356, 332.471776 424.096688 332.471776 424.096688, 332.471776 336.824574 332.471776 336.824574, 337.045046 336.824574 337.045046 336.824574, 337.045046 199.682354 337.045046 199.682354, 323.324982 199.682354 323.324982 199.682354, 316.798452 159.449262 316.798452 159.449262, 302.460406 95.436944 302.460406 95.436944, 291.312346 49.294034 291.312346 49.294034, 276.285198 43.060112 276.285198 43.060112, 268.445488 2.54 268.445488 2.54, 131.246118 2.54 131.246118 2.54, 123.406154 43.060112 123.406154 43.060112, 108.37926 49.294034 108.37926 49.294034, 96.763586 97.422716 96.763586 97.422716, 83.00339 158.9151 83.00339 158.9151, 76.36637 199.682354 76.36637 199.682354, 62.646306 199.682354 62.646306 199.682354, 62.646306 336.824574 62.646306 336.824574, 67.21983 336.824574 67.21983 336.824574, 67.21983 424.096688 67.21983 424.096688, 99.232466 476.304356 99.232466 476.304356, 300.458124 476.304356 300.458124 476.304356, 300.458124 476.304356"/>
      </g>
      <g>
        <polyline style="fill: gray;stroke: black;stroke-width: 1;" points="294.578786 63.319406, 291.312346 49.294034 291.312346 49.294034, 276.61235 43.060112 276.61235 43.060112, 260.278626 43.060112 260.278626 43.060112, 260.278626 52.799996 260.278626 52.799996, 140.06576 52.799996 140.06576 52.799996, 140.06576 43.060112 140.06576 43.060112, 123.732544 43.060112 123.732544 43.060112, 108.37926 49.294034 108.37926 49.294034, 105.11282 63.319406 105.11282 63.319406, 294.578786 63.319406"/>
      </g>
      <g>
        <polyline style="fill: gray;stroke: black;stroke-width: 1;" points="279.710642 63.369952, 286.970724 94.40672 286.970724 94.40672, 300.939708 162.799522 300.939708 162.799522, 307.971698 208.90357 307.971698 208.90357, 310.08955 239.26927 310.08955 239.26927, 310.08955 405.818848 310.08955 405.818848, 290.980622 464.257136 290.980622 464.257136, 265.992102 408.740356 265.992102 408.740356, 261.092442 371.339364 261.092442 371.339364, 138.599164 371.339364 138.599164 371.339364, 133.699504 408.740356 133.699504 408.740356, 108.710984 464.257136 108.710984 464.257136, 89.601294 405.818848 89.601294 405.818848, 89.601294 239.26927 89.601294 239.26927, 91.719146 208.90357 91.719146 208.90357, 98.751136 162.799522 98.751136 162.799522, 112.72012 94.40672 112.72012 94.40672, 119.980202 63.369952 119.980202 63.369952, 279.710642 63.369952 279.710642 63.369952, 279.710642 63.369952"/>
      </g>
      <g>
        <polyline style="fill: gray;stroke: black;stroke-width: 1;" points="162.729418 469.905588, 149.500844 469.905588 149.500844 469.905588, 149.500844 417.311078 149.500844 417.311078, 162.729418 417.311078 162.729418 417.311078, 162.729418 469.905588"/>
      </g>
      <g>
        <polyline style="fill: gray;stroke: black;stroke-width: 1;" points="186.24804 469.905588, 173.019466 469.905588 173.019466 469.905588, 173.019466 417.311078 173.019466 417.311078, 186.24804 417.311078 186.24804 417.311078, 186.24804 469.905588"/>
      </g>
      <g>
        <polyline style="fill: gray;stroke: black;stroke-width: 1;" points="204.867256 469.905588, 191.638428 469.905588 191.638428 469.905588, 191.638428 417.311078 191.638428 417.311078, 204.867256 417.311078 204.867256 417.311078, 204.867256 469.905588"/>
      </g>
      <g>
        <polyline style="fill: gray;stroke: black;stroke-width: 1;" points="218.586558 469.905588, 215.157304 469.905588 215.157304 469.905588, 215.157304 417.311078 215.157304 417.311078, 218.586558 417.311078 218.586558 417.311078, 218.586558 469.905588"/>
      </g>
      <g>
        <polyline style="fill: gray;stroke: black;stroke-width: 1;" points="229.121462 469.905588, 225.691446 469.905588 225.691446 469.905588, 225.691446 417.311078 225.691446 417.311078, 229.121462 417.311078 229.121462 417.311078, 229.121462 469.905588"/>
      </g>
      <g>
        <polyline style="fill: gray;stroke: black;stroke-width: 1;" points="239.655858 469.905588, 236.226604 469.905588 236.226604 469.905588, 236.226604 417.311078 236.226604 417.311078, 239.655858 417.311078 239.655858 417.311078, 239.655858 469.905588"/>
      </g>
      <g>
        <polyline style="fill: gray;stroke: black;stroke-width: 1;" points="250.190762 469.905588, 246.760746 469.905588 246.760746 469.905588, 246.760746 417.311078 246.760746 417.311078, 250.190762 417.311078 250.190762 417.311078, 250.190762 469.905588"/>
      </g>
      <g>
        <polyline style="fill: gray;stroke: black;stroke-width: 1;" points="126.807468 99.163886, 115.047776 113.969038 115.047776 113.969038, 105.400348 161.042858 105.400348 161.042858, 96.553528 250.93041 96.553528 250.93041, 95.121222 323.967094 95.121222 323.967094, 138.162792 371.339364 138.162792 371.339364, 260.65607 371.339364 260.65607 371.339364, 310.066944 318.902334 310.066944 318.902334, 310.066944 294.746426 310.066944 294.746426, 275.862034 271.522952 275.862034 271.522952, 236.567472 235.526834 236.567472 235.526834, 191.543178 174.839122 191.543178 174.839122, 157.51429 107.73537 157.51429 107.73537, 126.807468 99.163886 126.807468 99.163886, 126.807468 99.163886"/>
      </g>
    </g>
  </g>
</svg>
