<?xml version="1.0" encoding="utf-8"?>
<!-- Generator: SVG Export - SVG Version: 6.00 Build 1  -->
<!-- FXGUID: [1A5DDD43-46F7-11EE-95BE-525400685065] SYMID: [19079]  -->
<svg xmlns="http://www.w3.org/2000/svg" version="1.1" ch_offset="0" color_bar_width="66" width="510.23901" height="1066.4317" origin_x="250.544076" origin_y="562.69636" ch_offset_x="252.3693454" ch_offset_y="40" color_offset_x="250.544076" color_offset_y="-4">
  <g>
    <title>Layer 1</title>
    <g>
      <g>
        <polyline style="fill: gray;stroke: black;stroke-width: 1;" points="45.804836 581.115678, 40.728392 581.115678 40.728392 581.115678, 35.651186 581.115678 35.651186 581.115678, 30.574742 581.115678 30.574742 581.115678, 25.497536 581.115678 25.497536 581.115678, 25.497536 572.156336 25.497536 572.156336, 25.497536 563.197248 25.497536 563.197248, 25.497536 554.23816 25.497536 554.23816, 25.497536 545.279834 25.497536 545.279834, 30.574742 545.279834 30.574742 545.279834, 35.651186 545.279834 35.651186 545.279834, 40.728392 545.279834 40.728392 545.279834, 45.804836 545.279834 45.804836 545.279834, 45.804836 554.23816 45.804836 554.23816, 45.804836 563.197248 45.804836 563.197248, 45.804836 572.156336 45.804836 572.156336, 45.804836 581.115678 45.804836 581.115678, 45.804836 581.115678"/>
      </g>
      <g>
        <polyline style="fill: gray;stroke: black;stroke-width: 1;" points="75.071224 594.85276, 71.785988 594.85276 71.785988 594.85276, 68.501006 594.85276 68.501006 594.85276, 65.216024 594.85276 65.216024 594.85276, 61.930788 594.85276 61.930788 594.85276, 61.930788 579.17461 61.930788 579.17461, 61.930788 563.49646 61.930788 563.49646, 61.930788 547.817548 61.930788 547.817548, 61.930788 532.139398 61.930788 532.139398, 65.216024 532.139398 65.216024 532.139398, 68.501006 532.139398 68.501006 532.139398, 71.785988 532.139398 71.785988 532.139398, 75.071224 532.139398 75.071224 532.139398, 75.071224 547.817548 75.071224 547.817548, 75.071224 563.49646 75.071224 563.49646, 75.071224 579.17461 75.071224 579.17461, 75.071224 594.85276 75.071224 594.85276, 75.071224 594.85276"/>
      </g>
      <g>
        <polyline style="fill: gray;stroke: black;stroke-width: 1;" points="61.930788 572.156336, 57.8993 572.156336 57.8993 572.156336, 53.867812 572.156336 53.867812 572.156336, 49.836324 572.156336 49.836324 572.156336, 45.804836 572.156336 45.804836 572.156336, 45.804836 567.378342 45.804836 567.378342, 45.804836 562.600348 45.804836 562.600348, 45.804836 557.822354 45.804836 557.822354, 45.804836 553.04436 45.804836 553.04436, 49.836324 553.04436 49.836324 553.04436, 53.867812 553.04436 53.867812 553.04436, 57.8993 553.04436 57.8993 553.04436, 61.930788 553.04436 61.930788 553.04436, 61.930788 557.822354 61.930788 557.822354, 61.930788 562.600348 61.930788 562.600348, 61.930788 567.378342 61.930788 567.378342, 61.930788 572.156336 61.930788 572.156336, 61.930788 572.156336"/>
      </g>
      <g>
        <polyline style="fill: gray;stroke: black;stroke-width: 1;" points="438.807098 572.156336, 442.838586 572.156336 442.838586 572.156336, 446.870074 572.156336 446.870074 572.156336, 450.901816 572.156336 450.901816 572.156336, 454.933304 572.156336 454.933304 572.156336, 454.933304 567.378342 454.933304 567.378342, 454.933304 562.600348 454.933304 562.600348, 454.933304 557.822354 454.933304 557.822354, 454.933304 553.04436 454.933304 553.04436, 450.901816 553.04436 450.901816 553.04436, 446.870074 553.04436 446.870074 553.04436, 442.838586 553.04436 442.838586 553.04436, 438.807098 553.04436 438.807098 553.04436, 438.807098 557.822354 438.807098 557.822354, 438.807098 562.600348 438.807098 562.600348, 438.807098 567.378342 438.807098 567.378342, 438.807098 572.156336 438.807098 572.156336, 438.807098 572.156336"/>
      </g>
      <g>
        <polyline style="fill: gray;stroke: black;stroke-width: 1;" points="425.667678 594.85276, 428.95266 594.85276 428.95266 594.85276, 432.237642 594.85276 432.237642 594.85276, 435.522878 594.85276 435.522878 594.85276, 438.807098 594.85276 438.807098 594.85276, 438.807098 579.17461 438.807098 579.17461, 438.807098 563.49646 438.807098 563.49646, 438.807098 547.817548 438.807098 547.817548, 438.807098 532.139398 438.807098 532.139398, 435.522878 532.139398 435.522878 532.139398, 432.237642 532.139398 432.237642 532.139398, 428.95266 532.139398 428.95266 532.139398, 425.667678 532.139398 425.667678 532.139398, 425.667678 547.817548 425.667678 547.817548, 425.667678 563.49646 425.667678 563.49646, 425.667678 579.17461 425.667678 579.17461, 425.667678 594.85276 425.667678 594.85276, 425.667678 594.85276"/>
      </g>
      <g>
        <polyline style="fill: gray;stroke: black;stroke-width: 1;" points="425.667678 616.951522, 338.018628 616.951522 338.018628 616.951522, 250.36907 616.951522 250.36907 616.951522, 162.72002 616.951522 162.72002 616.951522, 75.071224 616.951522 75.071224 616.951522, 75.071224 592.015834 75.071224 592.015834, 75.071224 567.080146 75.071224 567.080146, 75.071224 542.143442 75.071224 542.143442, 75.071224 517.207754 75.071224 517.207754, 162.72002 517.207754 162.72002 517.207754, 250.36907 517.207754 250.36907 517.207754, 338.018628 517.207754 338.018628 517.207754, 425.667678 517.207754 425.667678 517.207754, 425.667678 542.143442 425.667678 542.143442, 425.667678 567.080146 425.667678 567.080146, 425.667678 592.015834 425.667678 592.015834, 425.667678 616.951522 425.667678 616.951522, 425.667678 616.951522"/>
      </g>
      <g>
        <polyline style="fill: gray;stroke: black;stroke-width: 1;" points="454.933304 581.115678, 460.01051 581.115678 460.01051 581.115678, 465.087716 581.115678 465.087716 581.115678, 470.16416 581.115678 470.16416 581.115678, 475.240604 581.115678 475.240604 581.115678, 475.240604 572.156336 475.240604 572.156336, 475.240604 563.197248 475.240604 563.197248, 475.240604 554.23816 475.240604 554.23816, 475.240604 545.279834 475.240604 545.279834, 470.16416 545.279834 470.16416 545.279834, 465.087716 545.279834 465.087716 545.279834, 460.01051 545.279834 460.01051 545.279834, 454.933304 545.279834 454.933304 545.279834, 454.933304 554.23816 454.933304 554.23816, 454.933304 563.197248 454.933304 563.197248, 454.933304 572.156336 454.933304 572.156336, 454.933304 581.115678 454.933304 581.115678, 454.933304 581.115678"/>
      </g>
      <g>
        <polyline style="fill: gray;stroke: black;stroke-width: 1;" points="264.405364 567.080146, 263.302242 572.542416 263.302242 572.542416, 260.293104 577.00418 260.293104 577.00418, 255.832102 580.012556 255.832102 580.012556, 250.36907 581.115678 250.36907 581.115678, 244.906546 580.012556 244.906546 580.012556, 240.444782 577.00418 240.444782 577.00418, 237.436406 572.542416 237.436406 572.542416, 236.333538 567.080146 236.333538 567.080146, 237.436406 561.61686 237.436406 561.61686, 240.444782 557.155858 240.444782 557.155858, 244.906546 554.147482 244.906546 554.147482, 250.36907 553.04436 250.36907 553.04436, 255.832102 554.147482 255.832102 554.147482, 260.293104 557.155858 260.293104 557.155858, 263.302242 561.61686 263.302242 561.61686, 264.405364 567.080146 264.405364 567.080146, 264.405364 567.080146"/>
      </g>
      <g>
        <polyline style="fill: gray;stroke: black;stroke-width: 1;" points="309.596536 1053.7317, 328.111612 1053.7317 328.111612 1053.7317, 346.628466 1053.7317 346.628466 1053.7317, 365.143542 1053.7317 365.143542 1053.7317, 383.658618 1053.7317 383.658618 1053.7317, 390.42721 1046.3657 390.42721 1046.3657, 397.197326 1038.9997 397.197326 1038.9997, 403.965918 1031.63116 403.965918 1031.63116, 410.736034 1024.26516 410.736034 1024.26516, 411.332934 890.0795 411.332934 890.0795, 411.929834 755.893332 411.929834 755.893332, 412.528258 621.707926 412.528258 621.707926, 413.125158 487.521504 413.125158 487.521504, 406.55494 487.521504 406.55494 487.521504, 399.984722 487.521504 399.984722 487.521504, 393.414758 487.521504 393.414758 487.521504, 386.84454 487.521504 386.84454 487.521504, 386.84454 484.733854 386.84454 484.733854, 386.84454 481.946458 386.84454 481.946458, 386.84454 479.159062 386.84454 479.159062, 386.84454 476.371666 386.84454 476.371666, 392.617706 476.371666 392.617706 476.371666, 398.391126 476.371666 398.391126 476.371666, 404.164292 476.371666 404.164292 476.371666, 409.937712 476.371666 409.937712 476.371666, 409.937712 473.982796 409.937712 473.982796, 409.937712 471.593672 409.937712 471.593672, 409.937712 469.204802 409.937712 469.204802, 409.937712 466.815678 409.937712 466.815678, 411.332934 466.815678 411.332934 466.815678, 412.726632 466.815678 412.726632 466.815678, 414.12033 466.815678 414.12033 466.815678, 415.514028 466.815678 415.514028 466.815678, 415.514028 469.204802 415.514028 469.204802, 415.514028 471.593672 415.514028 471.593672, 415.514028 473.982796 415.514028 473.982796, 415.514028 476.371666 415.514028 476.371666, 436.019956 476.371666 436.019956 476.371666, 456.527154 476.371666 456.527154 476.371666, 477.034352 476.371666 477.034352 476.371666, 497.540026 476.371666 497.540026 476.371666, 497.540026 470.797636 497.540026 470.797636, 497.540026 465.222844 497.540026 465.222844, 497.540026 459.64856 497.540026 459.64856, 497.540026 454.07453 497.540026 454.07453, 476.63608 454.07453 476.63608 454.07453, 455.73188 454.07453 455.73188 454.07453, 434.82768 454.07453 434.82768 454.07453, 413.92348 454.07453 413.92348 454.07453, 413.92348 455.865992 413.92348 455.865992, 413.92348 457.658216 413.92348 457.658216, 413.92348 459.450186 413.92348 459.450186, 413.92348 461.241648 413.92348 461.241648, 412.926784 461.241648 412.926784 461.241648, 411.929834 461.241648 411.929834 461.241648, 410.934662 461.241648 410.934662 461.241648, 409.937712 461.241648 409.937712 461.241648, 409.937712 448.300602 409.937712 448.300602, 409.937712 435.359556 409.937712 435.359556, 409.937712 422.41851 409.937712 422.41851, 409.937712 409.47721 409.937712 409.47721, 407.947114 406.292304 407.947114 406.292304, 405.95804 403.107144 405.95804 403.107144, 403.967442 399.921984 403.967442 399.921984, 401.976844 396.737078 401.976844 396.737078, 401.976844 352.738182 401.976844 352.738182, 401.976844 308.738524 401.976844 308.738524, 401.976844 264.73912 401.976844 264.73912, 401.976844 220.74124 401.976844 220.74124, 398.791176 208.5975 398.791176 208.5975, 395.605254 196.45122 395.605254 196.45122, 392.419332 184.30748 392.419332 184.30748, 389.233664 172.16374 389.233664 172.16374, 384.655568 172.16374 384.655568 172.16374, 380.077472 172.16374 380.077472 172.16374, 375.497852 172.16374 375.497852 172.16374, 370.92001 172.16374 370.92001 172.16374, 381.671322 146.67992 381.671322 146.67992, 392.420856 121.1961 392.420856 121.1961, 403.172168 95.71228 403.172168 95.71228, 413.92348 70.22846 413.92348 70.22846, 413.92348 53.30698 413.92348 53.30698, 413.92348 36.38296 413.92348 36.38296, 413.92348 19.46148 413.92348 19.46148, 413.92348 2.54 413.92348 2.54, 405.95804 2.54 405.95804 2.54, 397.994124 2.54 397.994124 2.54, 390.030462 2.54 390.030462 2.54, 382.066546 2.54 382.066546 2.54, 382.066546 5.92328 382.066546 5.92328, 382.066546 9.3091000000001 382.066546 9.3091000000001, 382.066546 12.69238 382.066546 12.69238, 382.066546 16.07566 382.066546 16.07566, 386.049266 16.07566 386.049266 16.07566, 390.030462 16.07566 390.030462 16.07566, 394.011658 16.07566 394.011658 16.07566, 397.9926 16.07566 397.9926 16.07566, 397.9926 20.05838 397.9926 20.05838, 397.9926 24.03856 397.9926 24.03856, 397.9926 28.02128 397.9926 28.02128, 397.9926 32.004 397.9926 32.004, 394.011658 32.004 394.011658 32.004, 390.030462 32.004 390.030462 32.004, 386.049266 32.004 386.049266 32.004, 382.066546 32.004 382.066546 32.004, 382.066546 34.19348 382.066546 34.19348, 382.066546 36.3855 382.066546 36.3855, 382.066546 38.57498 382.066546 38.57498, 382.066546 40.76446 382.066546 40.76446, 386.049266 40.76446 386.049266 40.76446, 390.030462 40.76446 390.030462 40.76446, 394.011658 40.76446 394.011658 40.76446, 397.9926 40.76446 397.9926 40.76446, 397.9926 41.9608 397.9926 41.9608, 397.9926 43.1546 397.9926 43.1546, 397.9926 44.3484 397.9926 44.3484, 397.9926 45.5422 397.9926 45.5422, 381.66802 45.5422 381.66802 45.5422, 365.34344 45.5422 365.34344 45.5422, 349.01886 45.5422 349.01886 45.5422, 332.69428 45.5422 332.69428 45.5422, 332.69428 34.79292 332.69428 34.79292, 332.69428 24.0411 332.69428 24.0411, 332.69428 13.28928 332.69428 13.28928, 332.69428 2.54 332.69428 2.54, 327.716388 2.54 327.716388 2.54, 322.738496 2.54 322.738496 2.54, 317.761874 2.54 317.761874 2.54, 312.783982 2.54 312.783982 2.54, 312.783982 4.3307 312.783982 4.3307, 312.783982 6.1239400000001 312.783982 6.1239400000001, 312.783982 7.9146400000001 312.783982 7.9146400000001, 312.783982 9.70534 312.783982 9.70534, 309.199788 9.70534 309.199788 9.70534, 305.616864 9.70534 305.616864 9.70534, 302.03267 9.70534 302.03267 9.70534, 298.45 9.70534 298.45 9.70534, 274.245324 9.70534 274.245324 9.70534, 250.040394 9.70534 250.040394 9.70534, 225.835718 9.70534 225.835718 9.70534, 201.631042 9.70534 201.631042 9.70534, 198.04761 9.70534 198.04761 9.70534, 194.463924 9.70534 194.463924 9.70534, 190.880492 9.70534 190.880492 9.70534, 187.29706 9.70534 187.29706 9.70534, 187.29706 7.9146400000001 187.29706 7.9146400000001, 187.29706 6.1239400000001 187.29706 6.1239400000001, 187.29706 4.3307 187.29706 4.3307, 187.29706 2.54 187.29706 2.54, 182.318914 2.54 182.318914 2.54, 177.341022 2.54 177.341022 2.54, 172.363892 2.54 172.363892 2.54, 167.385746 2.54 167.385746 2.54, 167.385746 13.28928 167.385746 13.28928, 167.385746 24.0411 167.385746 24.0411, 167.385746 34.79292 167.385746 34.79292, 167.385746 45.5422 167.385746 45.5422, 151.061928 45.5422 151.061928 45.5422, 134.737348 45.5422 134.737348 45.5422, 118.412768 45.5422 118.412768 45.5422, 102.088188 45.5422 102.088188 45.5422, 102.088188 44.3484 102.088188 44.3484, 102.088188 43.1546 102.088188 43.1546, 102.088188 41.9608 102.088188 41.9608, 102.088188 40.76446 102.088188 40.76446, 106.069384 40.76446 106.069384 40.76446, 110.05058 40.76446 110.05058 40.76446, 114.032538 40.76446 114.032538 40.76446, 118.013734 40.76446 118.013734 40.76446, 118.013734 38.57498 118.013734 38.57498, 118.013734 36.3855 118.013734 36.3855, 118.013734 34.19348 118.013734 34.19348, 118.013734 32.004 118.013734 32.004, 114.032538 32.004 114.032538 32.004, 110.05058 32.004 110.05058 32.004, 106.069384 32.004 106.069384 32.004, 102.088188 32.004 102.088188 32.004, 102.088188 28.02128 102.088188 28.02128, 102.088188 24.03856 102.088188 24.03856, 102.088188 20.05838 102.088188 20.05838, 102.088188 16.07566 102.088188 16.07566, 106.069384 16.07566 106.069384 16.07566, 110.05058 16.07566 110.05058 16.07566, 114.032538 16.07566 114.032538 16.07566, 118.013734 16.07566 118.013734 16.07566, 118.013734 12.69238 118.013734 12.69238, 118.013734 9.3091000000001 118.013734 9.3091000000001, 118.013734 5.92328 118.013734 5.92328, 118.013734 2.54 118.013734 2.54, 110.049818 2.54 110.049818 2.54, 102.085902 2.54 102.085902 2.54, 94.121224 2.54 94.121224 2.54, 86.157562 2.54 86.157562 2.54, 86.157562 19.46148 86.157562 19.46148, 86.157562 36.38296 86.157562 36.38296, 86.157562 53.30698 86.157562 53.30698, 86.157562 70.22846 86.157562 70.22846, 96.90862 95.71228 96.90862 95.71228, 107.65917 121.1961 107.65917 121.1961, 118.410482 146.67992 118.410482 146.67992, 129.161032 172.16374 129.161032 172.16374, 124.582174 172.16374 124.582174 172.16374, 120.003316 172.16374 120.003316 172.16374, 115.425474 172.16374 115.425474 172.16374, 110.846616 172.16374 110.846616 172.16374, 107.660694 184.30748 107.660694 184.30748, 104.475026 196.45122 104.475026 196.45122, 101.289104 208.5975 101.289104 208.5975, 98.103182 220.74124 98.103182 220.74124, 98.103182 264.73912 98.103182 264.73912, 98.103182 308.738524 98.103182 308.738524, 98.103182 352.738182 98.103182 352.738182, 98.103182 396.737078 98.103182 396.737078, 96.112584 399.921984 96.112584 399.921984, 94.122748 403.107144 94.122748 403.107144, 92.133166 406.292304 92.133166 406.292304, 90.142568 409.47721 90.142568 409.47721, 90.142568 422.41851 90.142568 422.41851, 90.142568 435.359556 90.142568 435.359556, 90.142568 448.300602 90.142568 448.300602, 90.142568 461.241648 90.142568 461.241648, 89.14638 461.241648 89.14638 461.241648, 88.150446 461.241648 88.150446 461.241648, 87.154258 461.241648 87.154258 461.241648, 86.157562 461.241648 86.157562 461.241648, 86.157562 459.450186 86.157562 459.450186, 86.157562 457.658216 86.157562 457.658216, 86.157562 455.865992 86.157562 455.865992, 86.157562 454.07453 86.157562 454.07453, 65.253362 454.07453 65.253362 454.07453, 44.349162 454.07453 44.349162 454.07453, 23.4442 454.07453 23.4442 454.07453, 2.54 454.07453 2.54 454.07453, 2.54 459.64856 2.54 459.64856, 2.54 465.222844 2.54 465.222844, 2.54 470.797636 2.54 470.797636, 2.54 476.371666 2.54 476.371666, 23.04669 476.371666 23.04669 476.371666, 43.553888 476.371666 43.553888 476.371666, 64.060324 476.371666 64.060324 476.371666, 84.56676 476.371666 84.56676 476.371666, 84.56676 473.982796 84.56676 473.982796, 84.56676 471.593672 84.56676 471.593672, 84.56676 469.204802 84.56676 469.204802, 84.56676 466.815678 84.56676 466.815678, 85.960458 466.815678 85.960458 466.815678, 87.354156 466.815678 87.354156 466.815678, 88.747854 466.815678 88.747854 466.815678, 90.142568 466.815678 90.142568 466.815678, 90.142568 469.204802 90.142568 469.204802, 90.142568 471.593672 90.142568 471.593672, 90.142568 473.982796 90.142568 473.982796, 90.142568 476.371666 90.142568 476.371666, 95.915734 476.371666 95.915734 476.371666, 101.689154 476.371666 101.689154 476.371666, 107.46232 476.371666 107.46232 476.371666, 113.23574 476.371666 113.23574 476.371666, 113.23574 479.159062 113.23574 479.159062, 113.23574 481.946458 113.23574 481.946458, 113.23574 484.733854 113.23574 484.733854, 113.23574 487.521504 113.23574 487.521504, 106.665522 487.521504 106.665522 487.521504, 100.095304 487.521504 100.095304 487.521504, 93.526102 487.521504 93.526102 487.521504, 86.955884 487.521504 86.955884 487.521504, 87.552784 621.707926 87.552784 621.707926, 88.150446 755.893332 88.150446 755.893332, 88.747854 890.0795 88.747854 890.0795, 89.344754 1024.26516 89.344754 1024.26516, 96.114108 1031.63116 96.114108 1031.63116, 102.883462 1038.9997 102.883462 1038.9997, 109.652816 1046.3657 109.652816 1046.3657, 116.42217 1053.7317 116.42217 1053.7317, 134.9375 1053.7317 134.9375 1053.7317, 153.453338 1053.7317 153.453338 1053.7317, 171.968414 1053.7317 171.968414 1053.7317, 190.483744 1053.7317 190.483744 1053.7317, 220.26245 1053.7317 220.26245 1053.7317, 250.040394 1053.7317 250.040394 1053.7317, 279.818592 1053.7317 279.818592 1053.7317, 309.596536 1053.7317 309.596536 1053.7317, 309.596536 1053.7317"/>
      </g>
      <g>
        <polyline style="fill: transparent;stroke: black;stroke-width: 1;" points="129.161032 172.16374, 189.60084 172.16374 189.60084 172.16374, 250.040394 172.16374 250.040394 172.16374, 310.480202 172.16374 310.480202 172.16374, 370.92001 172.16374"/>
      </g>
      <g>
        <polyline style="fill: transparent;stroke: black;stroke-width: 1;" points="113.23574 476.371666, 181.637686 476.371666 181.637686 476.371666, 250.040394 476.371666 250.040394 476.371666, 318.442594 476.371666 318.442594 476.371666, 386.84454 476.371666"/>
      </g>
      <g>
        <polyline style="fill: transparent;stroke: black;stroke-width: 1;" points="113.23574 487.521504, 181.637686 487.521504 181.637686 487.521504, 250.040394 487.521504 250.040394 487.521504, 318.442594 487.521504 318.442594 487.521504, 386.84454 487.521504"/>
      </g>
      <g>
        <polyline style="fill: transparent;stroke: black;stroke-width: 1;" points="90.142568 409.47721, 170.0911 409.47721 170.0911 409.47721, 250.040394 409.47721 250.040394 409.47721, 329.98918 409.47721 329.98918 409.47721, 409.937712 409.47721"/>
      </g>
      <g>
        <polyline style="fill: transparent;stroke: black;stroke-width: 1;" points="89.088214 966.92212, 169.566336 966.92212 169.566336 966.92212, 250.04522 966.92212 250.04522 966.92212, 330.52385 966.92212 330.52385 966.92212, 411.00121 966.92212"/>
      </g>
      <g>
        <polyline style="fill: gray;stroke: black;stroke-width: 1;" points="332.232254 172.16374, 290.82238 172.16374 290.82238 172.16374, 249.412506 172.16374 249.412506 172.16374, 208.002632 172.16374 208.002632 172.16374, 166.592758 172.16374 166.592758 172.16374, 166.592758 141.70406 166.592758 141.70406, 166.592758 111.24184 166.592758 111.24184, 166.592758 80.78216 166.592758 80.78216, 166.592758 50.31994 166.592758 50.31994, 208.002632 50.31994 208.002632 50.31994, 249.412506 50.31994 249.412506 50.31994, 290.82238 50.31994 290.82238 50.31994, 332.232254 50.31994 332.232254 50.31994, 332.232254 80.78216 332.232254 80.78216, 332.232254 111.24184 332.232254 111.24184, 332.232254 141.70406 332.232254 141.70406, 332.232254 172.16374 332.232254 172.16374, 332.232254 172.16374"/>
      </g>
      <g>
        <polyline style="fill: gray;stroke: black;stroke-width: 1;" points="263.747504 362.491782, 256.18186 362.491782 256.18186 362.491782, 248.617232 362.491782 248.617232 362.491782, 241.051842 362.491782 241.051842 362.491782, 233.487214 362.491782 233.487214 362.491782, 233.487214 316.900814 233.487214 316.900814, 233.487214 271.3101 233.487214 271.3101, 233.487214 225.7171 233.487214 225.7171, 233.487214 180.12664 233.487214 180.12664, 241.051842 180.12664 241.051842 180.12664, 248.617232 180.12664 248.617232 180.12664, 256.18186 180.12664 256.18186 180.12664, 263.747504 180.12664 263.747504 180.12664, 263.747504 225.7171 263.747504 225.7171, 263.747504 271.3101 263.747504 271.3101, 263.747504 316.900814 263.747504 316.900814, 263.747504 362.491782 263.747504 362.491782, 263.747504 362.491782"/>
      </g>
      <g>
        <polyline style="fill: gray;stroke: black;stroke-width: 1;" points="365.67999 933.48048, 307.545486 933.48048 307.545486 933.48048, 249.412506 933.48048 249.412506 933.48048, 191.279018 933.48048 191.279018 933.48048, 133.146038 933.48048 133.146038 933.48048, 133.146038 897.4455 133.146038 897.4455, 133.146038 861.41052 133.146038 861.41052, 133.146038 825.37808 133.146038 825.37808, 133.146038 789.342592 133.146038 789.342592, 191.279018 789.342592 191.279018 789.342592, 249.412506 789.342592 249.412506 789.342592, 307.545486 789.342592 307.545486 789.342592, 365.67999 789.342592 365.67999 789.342592, 365.67999 825.37808 365.67999 825.37808, 365.67999 861.41052 365.67999 861.41052, 365.67999 897.4455 365.67999 897.4455, 365.67999 933.48048 365.67999 933.48048, 365.67999 933.48048"/>
      </g>
    </g>
  </g>
</svg>
