<?xml version="1.0" encoding="utf-8"?>
<!-- Generator: SVG Export - SVG Version: 6.00 Build 1  -->
<!-- FXGUID: [732F40CF-40D2-11EE-B40E-525400685065] SYMID: [19063]  -->
<svg xmlns="http://www.w3.org/2000/svg" version="1.1" ch_offset="0" color_bar_width="66" width="560.24018" height="933.40428" origin_x="274.06092" origin_y="523.06474" ch_offset_x="272.2647336" ch_offset_y="40" color_offset_x="274.06092" color_offset_y="-4">
  <g>
    <title>Layer 1</title>
    <g>
      <g>
        <polyline style="fill: gray;stroke: black;stroke-width: 1;" points="413.388556 486.428796, 420.725346 486.428796 420.725346 486.428796, 428.062136 486.428796 428.062136 486.428796, 435.398926 486.428796 435.398926 486.428796, 442.734954 486.428796 442.734954 486.428796, 443.588394 487.818684 443.588394 487.818684, 444.441072 489.208572 444.441072 489.208572, 445.294512 490.597698 445.294512 490.597698, 446.14719 491.987332 446.14719 491.987332, 446.14719 495.794284 446.14719 495.794284, 446.14719 499.601744 446.14719 499.601744, 446.14719 503.408442 446.14719 503.408442, 446.14719 507.21514 446.14719 507.21514, 449.72986 508.66548 449.72986 508.66548, 453.313292 510.11582 453.313292 510.11582, 456.896978 511.56616 456.896978 511.56616, 460.479648 513.0165 460.479648 513.0165, 460.479648 515.554214 460.479648 515.554214, 460.479648 518.092944 460.479648 518.092944, 460.479648 520.629896 460.479648 520.629896, 460.479648 523.168626 460.479648 523.168626, 460.479648 525.70634 460.479648 525.70634, 460.479648 528.244054 460.479648 528.244054, 460.479648 530.782022 460.479648 530.782022, 460.479648 533.320498 460.479648 533.320498, 456.896978 534.770076 456.896978 534.770076, 453.313292 536.220416 453.313292 536.220416, 449.72986 537.670756 449.72986 537.670756, 446.14719 539.121858 446.14719 539.121858, 446.14719 542.928556 446.14719 542.928556, 446.14719 546.735254 446.14719 546.735254, 446.14719 550.541952 446.14719 550.541952, 446.14719 554.348904 446.14719 554.348904, 445.294512 555.738538 445.294512 555.738538, 444.441072 557.128426 444.441072 557.128426, 443.588394 558.518314 443.588394 558.518314, 442.734954 559.90744 442.734954 559.90744, 435.398926 559.90744 435.398926 559.90744, 428.062136 559.90744 428.062136 559.90744, 420.725346 559.90744 420.725346 559.90744, 413.388556 559.90744 413.388556 559.90744, 344.391234 559.90744 344.391234 559.90744, 275.393912 559.90744 275.393912 559.90744, 206.39659 559.90744 206.39659 559.90744, 137.40003 559.90744 137.40003 559.90744, 130.06324 559.90744 130.06324 559.90744, 122.72645 559.90744 122.72645 559.90744, 115.38966 559.90744 115.38966 559.90744, 108.053124 559.90744 108.053124 559.90744, 107.200446 558.518314 107.200446 558.518314, 106.347006 557.128426 106.347006 557.128426, 105.494328 555.738538 105.494328 555.738538, 104.640888 554.348904 104.640888 554.348904, 104.640888 550.541952 104.640888 550.541952, 104.640888 546.735254 104.640888 546.735254, 104.640888 542.928556 104.640888 542.928556, 104.640888 539.121858 104.640888 539.121858, 101.058218 537.670756 101.058218 537.670756, 97.474532 536.220416 97.474532 536.220416, 93.891862 534.770076 93.891862 534.770076, 90.30843 533.320498 90.30843 533.320498, 90.30843 530.782022 90.30843 530.782022, 90.30843 528.244054 90.30843 528.244054, 90.30843 525.70634 90.30843 525.70634, 90.30843 523.168626 90.30843 523.168626, 90.30843 520.629896 90.30843 520.629896, 90.30843 518.092944 90.30843 518.092944, 90.30843 515.554214 90.30843 515.554214, 90.30843 513.0165 90.30843 513.0165, 93.891862 511.56616 93.891862 511.56616, 97.474532 510.11582 97.474532 510.11582, 101.058218 508.66548 101.058218 508.66548, 104.640888 507.21514 104.640888 507.21514, 104.640888 503.408442 104.640888 503.408442, 104.640888 499.601744 104.640888 499.601744, 104.640888 495.794284 104.640888 495.794284, 104.640888 491.987332 104.640888 491.987332, 105.494328 490.597698 105.494328 490.597698, 106.347006 489.208572 106.347006 489.208572, 107.200446 487.818684 107.200446 487.818684, 108.053124 486.428796 108.053124 486.428796, 115.38966 486.428796 115.38966 486.428796, 122.72645 486.428796 122.72645 486.428796, 130.06324 486.428796 130.06324 486.428796, 137.40003 486.428796 137.40003 486.428796, 206.39659 486.428796 206.39659 486.428796, 275.393912 486.428796 275.393912 486.428796, 344.391234 486.428796 344.391234 486.428796, 413.388556 486.428796 413.388556 486.428796, 413.388556 486.428796"/>
      </g>
      <g>
        <polyline style="fill: gray;stroke: black;stroke-width: 1;" points="479.322638 540.798512, 482.308408 540.798512 482.308408 540.798512, 485.294432 540.798512 485.294432 540.798512, 488.280202 540.798512 488.280202 540.798512, 491.265972 540.798512 491.265972 540.798512, 492.203994 538.560518 492.203994 538.560518, 493.142778 536.32354 493.142778 536.32354, 494.081308 534.086562 494.081308 534.086562, 495.01933 531.848568 495.01933 531.848568, 501.673876 531.848568 501.673876 531.848568, 508.327914 531.848568 508.327914 531.848568, 514.98246 531.848568 514.98246 531.848568, 521.636244 531.848568 521.636244 531.848568, 521.636244 527.195288 521.636244 527.195288, 521.636244 522.5415 521.636244 522.5415, 521.636244 517.88822 521.636244 517.88822, 521.636244 513.23494 521.636244 513.23494, 514.98246 513.23494 514.98246 513.23494, 508.327914 513.23494 508.327914 513.23494, 501.673876 513.23494 501.673876 513.23494, 495.01933 513.23494 495.01933 513.23494, 494.081308 510.997962 494.081308 510.997962, 493.142778 508.759968 493.142778 508.759968, 492.203994 506.522228 492.203994 506.522228, 491.265972 504.28525 491.265972 504.28525, 488.280202 504.28525 488.280202 504.28525, 485.294432 504.28525 485.294432 504.28525, 482.308408 504.28525 482.308408 504.28525, 479.322638 504.28525 479.322638 504.28525, 479.322638 513.413248 479.322638 513.413248, 479.322638 522.5415 479.322638 522.5415, 479.322638 531.669498 479.322638 531.669498, 479.322638 540.798512 479.322638 540.798512, 479.322638 540.798512"/>
      </g>
      <g>
        <polyline style="fill: gray;stroke: black;stroke-width: 1;" points="479.322638 539.092394, 474.611192 539.092394 474.611192 539.092394, 469.900762 539.092394 469.900762 539.092394, 465.190078 539.092394 465.190078 539.092394, 460.479648 539.092394 460.479648 539.092394, 460.479648 530.987508 460.479648 530.987508, 460.479648 522.88313 460.479648 522.88313, 460.479648 514.779006 460.479648 514.779006, 460.479648 506.67412 460.479648 506.67412, 465.190078 506.67412 465.190078 506.67412, 469.900762 506.67412 469.900762 506.67412, 474.611192 506.67412 474.611192 506.67412, 479.322638 506.67412 479.322638 506.67412, 479.322638 514.779006 479.322638 514.779006, 479.322638 522.88313 479.322638 522.88313, 479.322638 530.987508 479.322638 530.987508, 479.322638 539.092394 479.322638 539.092394, 479.322638 539.092394"/>
      </g>
      <g>
        <polyline style="fill: gray;stroke: black;stroke-width: 1;" points="332.785212 920.70428, 340.74735 920.70428 340.74735 920.70428, 348.709742 920.70428 348.709742 920.70428, 356.672134 920.70428 356.672134 920.70428, 364.635034 920.70428 364.635034 920.70428, 370.549424 915.01722 370.549424 915.01722, 376.463814 909.32762 376.463814 909.32762, 382.378204 903.64056 382.378204 903.64056, 388.292594 897.9535 388.292594 897.9535, 393.069826 795.12668 393.069826 795.12668, 397.847058 692.299352 397.847058 692.299352, 402.625052 589.47304 402.625052 589.47304, 407.402284 486.646728 407.402284 486.646728, 401.401788 486.646728 401.401788 486.646728, 395.40307 486.646728 395.40307 486.646728, 389.402574 486.646728 389.402574 486.646728, 383.40284 486.646728 383.40284 486.646728, 383.40284 484.201216 383.40284 484.201216, 383.40284 481.754688 383.40284 481.754688, 383.40284 479.309176 383.40284 479.309176, 383.40284 476.862902 383.40284 476.862902, 386.901182 476.862902 386.901182 476.862902, 390.398762 476.862902 390.398762 476.862902, 393.89685 476.862902 393.89685 476.862902, 397.39443 476.862902 397.39443 476.862902, 397.39443 474.218 397.39443 474.218, 397.39443 471.573352 397.39443 471.573352, 397.39443 468.929212 397.39443 468.929212, 397.39443 466.28431 397.39443 466.28431, 415.65068 466.28431 415.65068 466.28431, 433.90693 466.28431 433.90693 466.28431, 452.16318 466.28431 452.16318 466.28431, 470.41943 466.28431 470.41943 466.28431, 470.41943 467.223094 470.41943 467.223094, 470.41943 468.161878 470.41943 468.161878, 470.41943 469.099646 470.41943 469.099646, 470.41943 470.03843 470.41943 470.03843, 489.698792 470.03843 489.698792 470.03843, 508.979678 470.03843 508.979678 470.03843, 528.25904 470.03843 528.25904 470.03843, 547.54018 470.03843 547.54018 470.03843, 547.54018 466.966554 547.54018 466.966554, 547.54018 463.896202 547.54018 463.896202, 547.54018 460.825088 547.54018 460.825088, 547.54018 457.753974 547.54018 457.753974, 528.08886 457.753974 528.08886 457.753974, 508.63881 457.753974 508.63881 457.753974, 489.18876 457.753974 489.18876 457.753974, 469.737186 457.753974 469.737186 457.753974, 469.737186 458.606652 469.737186 458.606652, 469.737186 459.460092 469.737186 459.460092, 469.737186 460.31277 469.737186 460.31277, 469.737186 461.16621 469.737186 461.16621, 452.333614 461.16621 452.333614 461.16621, 434.930042 461.16621 434.930042 461.16621, 417.527232 461.16621 417.527232 461.16621, 400.12366 461.16621 400.12366 461.16621, 400.12366 451.951852 400.12366 451.951852, 400.12366 442.73851 400.12366 442.73851, 400.12366 433.525168 400.12366 433.525168, 400.12366 424.311826 400.12366 424.311826, 397.564864 421.581834 397.564864 421.581834, 395.005306 418.85235 395.005306 418.85235, 392.445748 416.122358 392.445748 416.122358, 389.88619 413.392366 389.88619 413.392366, 389.88619 373.125746 389.88619 373.125746, 389.88619 332.859888 389.88619 332.859888, 389.88619 292.593522 389.88619 292.593522, 389.88619 252.32614 389.88619 252.32614, 386.815076 246.6975 386.815076 246.6975, 383.744724 241.06632 383.744724 241.06632, 380.672848 235.43514 380.672848 235.43514, 377.601734 229.80396 377.601734 229.80396, 375.725182 229.80396 375.725182 229.80396, 373.848376 229.80396 373.848376 229.80396, 371.971062 229.80396 371.971062 229.80396, 370.095272 229.80396 370.095272 229.80396, 370.095272 202.84694 370.095272 202.84694, 370.095272 175.88992 370.095272 175.88992, 370.095272 148.93036 370.095272 148.93036, 370.095272 121.97334 370.095272 121.97334, 371.62994 121.97334 371.62994 121.97334, 373.166386 121.97334 373.166386 121.97334, 374.701816 121.97334 374.701816 121.97334, 376.236738 121.97334 376.236738 121.97334, 376.236738 119.9261 376.236738 119.9261, 376.236738 117.87886 376.236738 117.87886, 376.236738 115.83162 376.236738 115.83162, 376.236738 113.78438 376.236738 113.78438, 375.042938 113.78438 375.042938 113.78438, 373.848376 113.78438 373.848376 113.78438, 372.654068 113.78438 372.654068 113.78438, 371.460268 113.78438 371.460268 113.78438, 371.460268 109.86008 371.460268 109.86008, 371.460268 105.93578 371.460268 105.93578, 371.460268 102.01148 371.460268 102.01148, 371.460268 98.08718 371.460268 98.08718, 374.360186 98.08718 374.360186 98.08718, 377.260612 98.08718 377.260612 98.08718, 380.161292 98.08718 380.161292 98.08718, 383.061972 98.08718 383.061972 98.08718, 383.061972 96.72066 383.061972 96.72066, 383.061972 95.35668 383.061972 95.35668, 383.061972 93.9927 383.061972 93.9927, 383.061972 92.62618 383.061972 92.62618, 380.502414 92.62618 380.502414 92.62618, 377.942856 92.62618 377.942856 92.62618, 375.38406 92.62618 375.38406 92.62618, 372.825264 92.62618 372.825264 92.62618, 375.38406 89.21496 375.38406 89.21496, 377.942856 85.8012 377.942856 85.8012, 380.502414 82.38998 380.502414 82.38998, 383.061972 78.97622 383.061972 78.97622, 386.473954 78.97622 386.473954 78.97622, 389.88619 78.97622 389.88619 78.97622, 393.299188 78.97622 393.299188 78.97622, 396.711424 78.97622 396.711424 78.97622, 396.711424 76.92898 396.711424 76.92898, 396.711424 74.88174 396.711424 74.88174, 396.711424 72.8345 396.711424 72.8345, 396.711424 70.78726 396.711424 70.78726, 394.664184 70.78726 394.664184 70.78726, 392.616436 70.78726 392.616436 70.78726, 390.569196 70.78726 390.569196 70.78726, 388.521194 70.78726 388.521194 70.78726, 391.422636 66.5226 391.422636 66.5226, 394.323316 62.2554 394.323316 62.2554, 397.22298 57.99074 397.22298 57.99074, 400.12366 53.72608 400.12366 53.72608, 400.12366 40.92956 400.12366 40.92956, 400.12366 28.13304 400.12366 28.13304, 400.12366 15.33652 400.12366 15.33652, 400.12366 2.54 400.12366 2.54, 394.151866 2.54 394.151866 2.54, 388.180072 2.54 388.180072 2.54, 382.208532 2.54 382.208532 2.54, 376.236738 2.54 376.236738 2.54, 376.236738 5.09778 376.236738 5.09778, 376.236738 7.6581 376.236738 7.6581, 376.236738 10.21588 376.236738 10.21588, 376.236738 12.7762 376.236738 12.7762, 379.479048 12.7762 379.479048 12.7762, 382.72085 12.7762 382.72085 12.7762, 385.962398 12.7762 385.962398 12.7762, 389.2042 12.7762 389.2042 12.7762, 389.2042 15.5067 389.2042 15.5067, 389.2042 18.2372 389.2042 18.2372, 389.2042 20.96516 389.2042 20.96516, 389.2042 23.69566 389.2042 23.69566, 385.962398 23.69566 385.962398 23.69566, 382.72085 23.69566 382.72085 23.69566, 379.479048 23.69566 379.479048 23.69566, 376.236738 23.69566 376.236738 23.69566, 376.236738 25.40254 376.236738 25.40254, 376.236738 27.10942 376.236738 27.10942, 376.236738 28.81376 376.236738 28.81376, 376.236738 30.52064 376.236738 30.52064, 379.479048 30.52064 379.479048 30.52064, 382.72085 30.52064 382.72085 30.52064, 385.962398 30.52064 385.962398 30.52064, 389.2042 30.52064 389.2042 30.52064, 389.2042 32.56788 389.2042 32.56788, 389.2042 34.61512 389.2042 34.61512, 389.2042 36.66236 389.2042 36.66236, 389.2042 38.7096 389.2042 38.7096, 375.553732 38.7096 375.553732 38.7096, 361.905042 38.7096 361.905042 38.7096, 348.25559 38.7096 348.25559 38.7096, 334.605884 38.7096 334.605884 38.7096, 334.605884 29.6672 334.605884 29.6672, 334.605884 20.6248 334.605884 20.6248, 334.605884 11.5824 334.605884 11.5824, 334.605884 2.54 334.605884 2.54, 331.023214 2.54 331.023214 2.54, 327.439782 2.54 327.439782 2.54, 323.856096 2.54 323.856096 2.54, 320.273426 2.54 320.273426 2.54, 320.273426 3.56362 320.273426 3.56362, 320.273426 4.58724 320.273426 4.58724, 320.273426 5.61086 320.273426 5.61086, 320.273426 6.63448 320.273426 6.63448, 313.277758 6.63448 313.277758 6.63448, 306.282852 6.63448 306.282852 6.63448, 299.287184 6.63448 299.287184 6.63448, 292.291516 6.63448 292.291516 6.63448, 283.665676 6.63448 283.665676 6.63448, 275.039074 6.63448 275.039074 6.63448, 266.413234 6.63448 266.413234 6.63448, 257.786632 6.63448 257.786632 6.63448, 250.791726 6.63448 250.791726 6.63448, 243.796058 6.63448 243.796058 6.63448, 236.800898 6.63448 236.800898 6.63448, 229.80523 6.63448 229.80523 6.63448, 229.80523 5.61086 229.80523 5.61086, 229.80523 4.58724 229.80523 4.58724, 229.80523 3.56362 229.80523 3.56362, 229.80523 2.54 229.80523 2.54, 226.22256 2.54 226.22256 2.54, 222.639128 2.54 222.639128 2.54, 219.056458 2.54 219.056458 2.54, 215.472772 2.54 215.472772 2.54, 215.472772 11.5824 215.472772 11.5824, 215.472772 20.6248 215.472772 20.6248, 215.472772 29.6672 215.472772 29.6672, 215.472772 38.7096 215.472772 38.7096, 201.82332 38.7096 201.82332 38.7096, 188.173868 38.7096 188.173868 38.7096, 174.524162 38.7096 174.524162 38.7096, 160.87471 38.7096 160.87471 38.7096, 160.87471 36.66236 160.87471 36.66236, 160.87471 34.61512 160.87471 34.61512, 160.87471 32.56788 160.87471 32.56788, 160.87471 30.52064 160.87471 30.52064, 164.116258 30.52064 164.116258 30.52064, 167.35806 30.52064 167.35806 30.52064, 170.599608 30.52064 170.599608 30.52064, 173.84141 30.52064 173.84141 30.52064, 173.84141 28.81376 173.84141 28.81376, 173.84141 27.10942 173.84141 27.10942, 173.84141 25.40254 173.84141 25.40254, 173.84141 23.69566 173.84141 23.69566, 170.599608 23.69566 170.599608 23.69566, 167.35806 23.69566 167.35806 23.69566, 164.116258 23.69566 164.116258 23.69566, 160.87471 23.69566 160.87471 23.69566, 160.87471 20.96516 160.87471 20.96516, 160.87471 18.2372 160.87471 18.2372, 160.87471 15.5067 160.87471 15.5067, 160.87471 12.7762 160.87471 12.7762, 164.116258 12.7762 164.116258 12.7762, 167.35806 12.7762 167.35806 12.7762, 170.599608 12.7762 170.599608 12.7762, 173.84141 12.7762 173.84141 12.7762, 173.84141 10.21588 173.84141 10.21588, 173.84141 7.6581 173.84141 7.6581, 173.84141 5.09778 173.84141 5.09778, 173.84141 2.54 173.84141 2.54, 167.869616 2.54 167.869616 2.54, 161.897822 2.54 161.897822 2.54, 155.926028 2.54 155.926028 2.54, 149.95525 2.54 149.95525 2.54, 149.95525 15.33652 149.95525 15.33652, 149.95525 28.13304 149.95525 28.13304, 149.95525 40.92956 149.95525 40.92956, 149.95525 53.72608 149.95525 53.72608, 152.855676 57.99074 152.855676 57.99074, 155.756356 62.2554 155.756356 62.2554, 158.656274 66.5226 158.656274 66.5226, 161.5567 70.78726 161.5567 70.78726, 159.509714 70.78726 159.509714 70.78726, 157.462474 70.78726 157.462474 70.78726, 155.414472 70.78726 155.414472 70.78726, 153.367232 70.78726 153.367232 70.78726, 153.367232 72.8345 153.367232 72.8345, 153.367232 74.88174 153.367232 74.88174, 153.367232 76.92898 153.367232 76.92898, 153.367232 78.97622 153.367232 78.97622, 156.78023 78.97622 156.78023 78.97622, 160.191704 78.97622 160.191704 78.97622, 163.604702 78.97622 163.604702 78.97622, 167.016938 78.97622 167.016938 78.97622, 169.576496 82.38998 169.576496 82.38998, 172.135292 85.8012 172.135292 85.8012, 174.69485 89.21496 174.69485 89.21496, 177.254154 92.62618 177.254154 92.62618, 174.69485 92.62618 174.69485 92.62618, 172.135292 92.62618 172.135292 92.62618, 169.576496 92.62618 169.576496 92.62618, 167.016938 92.62618 167.016938 92.62618, 167.016938 93.9927 167.016938 93.9927, 167.016938 95.35668 167.016938 95.35668, 167.016938 96.72066 167.016938 96.72066, 167.016938 98.08718 167.016938 98.08718, 169.917618 98.08718 169.917618 98.08718, 172.818044 98.08718 172.818044 98.08718, 175.718724 98.08718 175.718724 98.08718, 178.619404 98.08718 178.619404 98.08718, 178.619404 102.01148 178.619404 102.01148, 178.619404 105.93578 178.619404 105.93578, 178.619404 109.86008 178.619404 109.86008, 178.619404 113.78438 178.619404 113.78438, 177.424842 113.78438 177.424842 113.78438, 176.23028 113.78438 176.23028 113.78438, 175.03648 113.78438 175.03648 113.78438, 173.84141 113.78438 173.84141 113.78438, 173.84141 115.83162 173.84141 115.83162, 173.84141 117.87886 173.84141 117.87886, 173.84141 119.9261 173.84141 119.9261, 173.84141 121.97334 173.84141 121.97334, 175.377602 121.97334 175.377602 121.97334, 176.913286 121.97334 176.913286 121.97334, 178.447954 121.97334 178.447954 121.97334, 179.9844 121.97334 179.9844 121.97334, 179.9844 148.93036 179.9844 148.93036, 179.9844 175.88992 179.9844 175.88992, 179.9844 202.84694 179.9844 202.84694, 179.9844 229.80396 179.9844 229.80396, 178.106832 229.80396 178.106832 229.80396, 176.23028 229.80396 176.23028 229.80396, 174.353728 229.80396 174.353728 229.80396, 172.47616 229.80396 172.47616 229.80396, 169.405808 235.43514 169.405808 235.43514, 166.334694 241.06632 166.334694 241.06632, 163.262818 246.6975 163.262818 246.6975, 160.191704 252.32614 160.191704 252.32614, 160.191704 292.593522 160.191704 292.593522, 160.191704 332.859888 160.191704 332.859888, 160.191704 373.125746 160.191704 373.125746, 160.191704 413.392366 160.191704 413.392366, 157.632908 416.122358 157.632908 416.122358, 155.07335 418.85235 155.07335 418.85235, 152.514808 421.581834 152.514808 421.581834, 149.95525 424.311826 149.95525 424.311826, 149.95525 433.525168 149.95525 433.525168, 149.95525 442.73851 149.95525 442.73851, 149.95525 451.951852 149.95525 451.951852, 149.95525 461.16621 149.95525 461.16621, 132.55244 461.16621 132.55244 461.16621, 115.148868 461.16621 115.148868 461.16621, 97.746058 461.16621 97.746058 461.16621, 80.342232 461.16621 80.342232 461.16621, 80.342232 460.31277 80.342232 460.31277, 80.342232 459.460092 80.342232 459.460092, 80.342232 458.606652 80.342232 458.606652, 80.342232 457.753974 80.342232 457.753974, 60.891674 457.753974 60.891674 457.753974, 41.440862 457.753974 41.440862 457.753974, 21.99005 457.753974 21.99005 457.753974, 2.54 457.753974 2.54 457.753974, 2.54 460.825088 2.54 460.825088, 2.54 463.896202 2.54 463.896202, 2.54 466.966554 2.54 466.966554, 2.54 470.03843 2.54 470.03843, 21.818854 470.03843 21.818854 470.03843, 41.098978 470.03843 41.098978 470.03843, 60.379356 470.03843 60.379356 470.03843, 79.65948 470.03843 79.65948 470.03843, 79.65948 469.099646 79.65948 469.099646, 79.65948 468.161878 79.65948 468.161878, 79.65948 467.223094 79.65948 467.223094, 79.65948 466.28431 79.65948 466.28431, 97.91573 466.28431 97.91573 466.28431, 116.17198 466.28431 116.17198 466.28431, 134.42823 466.28431 134.42823 466.28431, 152.685242 466.28431 152.685242 466.28431, 152.685242 468.929212 152.685242 468.929212, 152.685242 471.573352 152.685242 471.573352, 152.685242 474.218 152.685242 474.218, 152.685242 476.862902 152.685242 476.862902, 156.182568 476.862902 156.182568 476.862902, 159.680148 476.862902 159.680148 476.862902, 163.17849 476.862902 163.17849 476.862902, 166.675816 476.862902 166.675816 476.862902, 166.675816 479.309176 166.675816 479.309176, 166.675816 481.754688 166.675816 481.754688, 166.675816 484.201216 166.675816 484.201216, 166.675816 486.646728 166.675816 486.646728, 160.67532 486.646728 160.67532 486.646728, 154.676602 486.646728 154.676602 486.646728, 148.676106 486.646728 148.676106 486.646728, 142.676626 486.646728 142.676626 486.646728, 147.45462 589.47304 147.45462 589.47304, 152.231852 692.299352 152.231852 692.299352, 157.009084 795.12668 157.009084 795.12668, 161.786316 897.9535 161.786316 897.9535, 167.700706 903.64056 167.700706 903.64056, 173.614842 909.32762 173.614842 909.32762, 179.529232 915.01722 179.529232 915.01722, 185.443622 920.70428 185.443622 920.70428, 193.406014 920.70428 193.406014 920.70428, 201.369168 920.70428 201.369168 920.70428, 209.331306 920.70428 209.331306 920.70428, 217.293698 920.70428 217.293698 920.70428, 246.166386 920.70428 246.166386 920.70428, 275.039074 920.70428 275.039074 920.70428, 303.911762 920.70428 303.911762 920.70428, 332.785212 920.70428 332.785212 920.70428, 332.785212 920.70428"/>
      </g>
      <g>
        <polyline style="fill: transparent;stroke: black;stroke-width: 1;" points="161.14903 884.24766, 218.115388 884.24766 218.115388 884.24766, 275.080984 884.24766 275.080984 884.24766, 332.046326 884.24766 332.046326 884.24766, 389.011922 884.24766"/>
      </g>
      <g>
        <polyline style="fill: transparent;stroke: black;stroke-width: 1;" points="179.9844 229.80396, 227.512372 229.80396 227.512372 229.80396, 275.039074 229.80396 275.039074 229.80396, 322.567046 229.80396 322.567046 229.80396, 370.095272 229.80396"/>
      </g>
      <g>
        <polyline style="fill: transparent;stroke: black;stroke-width: 1;" points="179.9844 136.30402, 227.512372 136.30402 227.512372 136.30402, 275.039074 136.30402 275.039074 136.30402, 322.567046 136.30402 322.567046 136.30402, 370.095272 136.30402"/>
      </g>
      <g>
        <polyline style="fill: transparent;stroke: black;stroke-width: 1;" points="166.675816 486.646728, 220.857826 486.646728 220.857826 486.646728, 275.039074 486.646728 275.039074 486.646728, 329.221084 486.646728 329.221084 486.646728, 383.40284 486.646728"/>
      </g>
      <g>
        <polyline style="fill: transparent;stroke: black;stroke-width: 1;" points="147.201128 584.01204, 211.10956 584.01204 211.10956 584.01204, 275.017992 584.01204 275.017992 584.01204, 338.926678 584.01204 338.926678 584.01204, 402.83511 584.01204"/>
      </g>
      <g>
        <polyline style="fill: transparent;stroke: black;stroke-width: 1;" points="166.675816 902.65504, 220.857826 902.65504 220.857826 902.65504, 275.039074 902.65504 275.039074 902.65504, 329.221084 902.65504 329.221084 902.65504, 383.40284 902.65504"/>
      </g>
      <g>
        <polyline style="fill: transparent;stroke: black;stroke-width: 1;" points="160.191704 413.392366, 217.615262 413.392366 217.615262 413.392366, 275.039074 413.392366 275.039074 413.392366, 332.462632 413.392366 332.462632 413.392366, 389.88619 413.392366"/>
      </g>
      <g>
        <polyline style="fill: transparent;stroke: black;stroke-width: 1;" points="166.675816 476.862902, 220.857826 476.862902 220.857826 476.862902, 275.039074 476.862902 275.039074 476.862902, 329.221084 476.862902 329.221084 476.862902, 383.40284 476.862902"/>
      </g>
    </g>
  </g>
</svg>
