<?xml version="1.0" encoding="utf-8"?>
<!-- Generator: www.crescit.com, SVG Export - SVG Version: 6.00 Build 1  -->
<!-- FXGUID: [F685839C-647C-11EB-A38B-525400685065] SYMID: [15399]  -->
<svg xmlns="http://www.w3.org/2000/svg" version="1.1" ch_offset="0" color_bar_width="66" width="407.204418" height="467.10854" origin_x="197.470014" origin_y="243.636292" ch_offset_x="196.8512954" ch_offset_y="40" color_offset_x="197.470014" color_offset_y="-4">
  <g>
    <title>Layer 1</title>
    <g>
      <g>
        <polyline style="fill: gray;stroke: black;stroke-width: 1;" points="346.346272 135.379968, 346.346272 122.658124 346.346272 122.658124, 50.6984 122.658124 50.6984 122.658124, 50.6984 135.379968 50.6984 135.379968, 2.986532 168.247568 2.986532 168.247568, 2.986532 319.043812 2.986532 319.043812, 50.6984 351.912428 50.6984 351.912428, 50.6984 364.634018 50.6984 364.634018, 346.346272 364.634018 346.346272 364.634018, 346.346272 351.912428 346.346272 351.912428, 394.057886 319.043812 394.057886 319.043812, 394.057886 168.247568 394.057886 168.247568, 346.346272 135.379968"/>
      </g>
      <g>
        <polyline style="fill: gray;stroke: black;stroke-width: 1;" points="64.193674 331.6478, 54.651656 331.6478 54.651656 331.6478, 21.78304 312.563002 21.78304 312.563002, 21.78304 174.728632 21.78304 174.728632, 54.651656 155.644596 54.651656 155.644596, 64.193674 155.644596 64.193674 155.644596, 64.193674 331.6478"/>
      </g>
      <g>
        <polyline style="fill: gray;stroke: black;stroke-width: 1;" points="375.260616 312.563002, 342.393016 331.6478 342.393016 331.6478, 332.850236 331.6478 332.850236 331.6478, 332.850236 155.644596 332.850236 155.644596, 342.393016 155.644596 342.393016 155.644596, 375.260616 174.728632 375.260616 174.728632, 375.260616 312.563002"/>
      </g>
      <g>
        <polyline style="fill: gray;stroke: black;stroke-width: 1;" points="384.21056 183.895492, 296.895774 183.895492 296.895774 183.895492, 264.512298 170.124374 264.512298 170.124374, 132.53212 170.124374 132.53212 170.124374, 100.148898 183.895492 100.148898 183.895492, 12.833096 183.895492 12.833096 183.895492, 2.54 207.191864 2.54 207.191864, 2.54 280.100532 2.54 280.100532, 12.833096 303.395126 12.833096 303.395126, 100.148898 303.395126 100.148898 303.395126, 132.53212 317.16726 132.53212 317.16726, 264.512298 317.16726 264.512298 317.16726, 296.895774 303.395126 296.895774 303.395126, 384.21056 303.395126 384.21056 303.395126, 394.504418 280.100532 394.504418 280.100532, 394.504418 207.191864 394.504418 207.191864, 384.21056 183.895492"/>
      </g>
      <g>
        <polyline style="fill: gray;stroke: black;stroke-width: 1;" points="349.628206 259.362956, 341.96655 259.362956 341.96655 259.362956, 341.96655 227.929186 341.96655 227.929186, 349.628206 227.929186 349.628206 227.929186, 349.628206 259.362956"/>
      </g>
      <g>
        <polyline style="fill: gray;stroke: black;stroke-width: 1;" points="349.628206 303.395126, 384.21056 303.395126 384.21056 303.395126, 394.504418 280.100532 394.504418 280.100532, 394.504418 207.191864 394.504418 207.191864, 384.21056 183.895492 384.21056 183.895492, 349.628206 183.895492 349.628206 183.895492, 349.628206 303.395126"/>
      </g>
      <g>
        <polyline style="fill: gray;stroke: black;stroke-width: 1;" points="47.416466 259.362956, 55.07863 259.362956 55.07863 259.362956, 55.07863 227.929186 55.07863 227.929186, 47.416466 227.929186 47.416466 227.929186, 47.416466 259.362956"/>
      </g>
      <g>
        <polyline style="fill: gray;stroke: black;stroke-width: 1;" points="47.416466 303.395126, 12.833096 303.395126 12.833096 303.395126, 2.54 280.100532 2.54 280.100532, 2.54 207.191864 2.54 207.191864, 12.833096 183.895492 12.833096 183.895492, 47.416466 183.895492 47.416466 183.895492, 47.416466 303.395126"/>
      </g>
      <g>
        <polyline style="fill: gray;stroke: black;stroke-width: 1;" points="296.453814 454.40854, 308.873398 452.752714 308.873398 452.752714, 318.397382 444.655702 318.397382 444.655702, 341.965788 401.581366 341.965788 401.581366, 341.965788 195.965318 341.965788 195.965318, 328.149712 195.965318 328.149712 195.965318, 323.96303 161.854134 323.96303 161.854134, 312.831226 108.165138 312.831226 108.165138, 298.079414 47.239428 298.079414 47.239428, 284.263084 40.737536 284.263084 40.737536, 276.9489 2.54 276.9489 2.54, 120.094756 2.54 120.094756 2.54, 112.780572 40.737536 112.780572 40.737536, 98.964242 47.239428 98.964242 47.239428, 84.21243 108.165138 84.21243 108.165138, 73.081388 161.854134 73.081388 161.854134, 68.89496 195.965318 68.89496 195.965318, 55.077868 195.965318 55.077868 195.965318, 55.077868 401.581366 55.077868 401.581366, 78.646274 444.655702 78.646274 444.655702, 88.170512 452.752714 88.170512 452.752714, 100.590604 454.40854 100.590604 454.40854, 296.453814 454.40854 296.453814 454.40854, 296.453814 454.40854"/>
      </g>
      <g>
        <polyline style="fill: gray;stroke: black;stroke-width: 1;" points="285.43758 447.190368, 299.045884 445.426084 299.045884 445.426084, 309.814214 437.8452 309.814214 437.8452, 330.129388 394.777214 330.129388 394.777214, 317.12789 201.787506 317.12789 201.787506, 284.228286 40.08247 284.228286 40.08247, 269.91056 40.08247 269.91056 40.08247, 269.91056 54.708806 269.91056 54.708806, 127.133858 54.728872 127.133858 54.728872, 127.133858 40.102028 127.133858 40.102028, 112.81537 40.102028 112.81537 40.102028, 79.916782 201.80681 79.916782 201.80681, 66.91503 394.79728 66.91503 394.79728, 87.230204 437.864504 87.230204 437.864504, 97.998534 445.445388 97.998534 445.445388, 111.607854 447.209672 111.607854 447.209672, 285.43758 447.190368 285.43758 447.190368, 285.43758 447.190368"/>
      </g>
      <g>
        <polyline style="fill: gray;stroke: black;stroke-width: 1;" points="68.89496 195.965318, 55.077868 401.581366 55.077868 401.581366, 55.077868 195.965318 55.077868 195.965318, 68.89496 195.965318"/>
      </g>
      <g>
        <polyline style="fill: gray;stroke: black;stroke-width: 1;" points="328.149712 195.965318, 341.965788 401.581366 341.965788 401.581366, 341.965788 195.965318 341.965788 195.965318, 328.149712 195.965318"/>
      </g>
      <g>
        <polyline style="fill: gray;stroke: black;stroke-width: 1;" points="312.02503 325.005446, 302.814736 395.433804 302.814736 395.433804, 285.479236 429.02251 285.479236 429.02251, 111.320072 429.02251 111.320072 429.02251, 93.984064 395.433804 93.984064 395.433804, 84.77377 325.005446 84.77377 325.005446, 132.714238 286.833564 132.714238 286.833564, 187.944252 225.91395 187.944252 225.91395, 226.248976 162.29076 226.248976 162.29076, 242.424712 119.138954 242.424712 119.138954, 272.220436 100.178108 272.220436 100.178108, 290.09848 114.263424 290.09848 114.263424, 301.873666 189.586616 301.873666 189.586616, 310.591708 270.37411 310.591708 270.37411, 312.02503 325.005446 312.02503 325.005446, 312.02503 325.005446"/>
      </g>
      <g>
        <polyline style="fill: gray;stroke: black;stroke-width: 1;" points="146.265392 447.205862, 131.592574 447.205862 131.592574 447.205862, 131.592574 311.461404 131.592574 311.461404, 146.265392 311.461404 146.265392 311.461404, 146.265392 447.205862"/>
      </g>
      <g>
        <polyline style="fill: gray;stroke: black;stroke-width: 1;" points="176.061878 447.205862, 161.389314 447.205862 161.389314 447.205862, 161.389314 311.461404 161.389314 311.461404, 176.061878 311.461404 176.061878 311.461404, 176.061878 447.205862"/>
      </g>
      <g>
        <polyline style="fill: gray;stroke: black;stroke-width: 1;" points="205.858618 447.205862, 191.1858 447.205862 191.1858 447.205862, 191.1858 311.461404 191.1858 311.461404, 205.858618 311.461404 205.858618 311.461404, 205.858618 447.205862"/>
      </g>
      <g>
        <polyline style="fill: gray;stroke: black;stroke-width: 1;" points="235.655358 447.205862, 220.98254 447.205862 220.98254 447.205862, 220.98254 311.461404 220.98254 311.461404, 235.655358 311.461404 235.655358 311.461404, 235.655358 447.205862"/>
      </g>
      <g>
        <polyline style="fill: gray;stroke: black;stroke-width: 1;" points="265.451082 447.205862, 250.779026 447.205862 250.779026 447.205862, 250.779026 311.461404 250.779026 311.461404, 265.451082 311.461404 265.451082 311.461404, 265.451082 447.205862"/>
      </g>
    </g>
  </g>
</svg>
