<?xml version="1.0" encoding="utf-8"?>
<!-- Generator: SVG Export - SVG Version: 6.00 Build 1  -->
<!-- FXGUID: [2DE19C64-EB5B-11EE-AD86-525400685065] SYMID: [19436]  -->
<svg xmlns="http://www.w3.org/2000/svg" version="1.1" ch_offset="0" color_bar_width="66" width="341.24011" height="47.20082" origin_x="165.71468" origin_y="17.348454" ch_offset_x="166.5407896" ch_offset_y="40" color_offset_x="165.71468" color_offset_y="-4">
  <g>
    <title>Layer 1</title>
    <g>
      <g>
        <polyline style="fill: gray;stroke: black;stroke-width: 1;" points="328.54011 34.50082, 247.0404 34.50082 247.0404 34.50082, 165.539928 34.50082 165.539928 34.50082, 84.039456 34.50082 84.039456 34.50082, 2.54 34.50082 2.54 34.50082, 2.54 26.510742 2.54 26.510742, 2.54 18.52041 2.54 18.52041, 2.54 10.530332 2.54 10.530332, 2.54 2.54 2.54 2.54, 84.039456 2.54 84.039456 2.54, 165.539928 2.54 165.539928 2.54, 247.0404 2.54 247.0404 2.54, 328.54011 2.54 328.54011 2.54, 328.54011 10.530332 328.54011 10.530332, 328.54011 18.52041 328.54011 18.52041, 328.54011 26.510742 328.54011 26.510742, 328.54011 34.50082 328.54011 34.50082, 328.54011 34.50082"/>
      </g>
      <g>
        <polyline style="fill: gray;stroke: black;stroke-width: 1;" points="311.60085 13.72616, 238.171228 13.72616 238.171228 13.72616, 164.740844 13.72616 164.740844 13.72616, 91.311222 13.72616 91.311222 13.72616, 17.880838 13.72616 17.880838 13.72616, 17.880838 13.326872 17.880838 13.326872, 17.880838 12.927076 17.880838 12.927076, 17.880838 12.527788 17.880838 12.527788, 17.880838 12.1285 17.880838 12.1285, 91.311222 12.1285 91.311222 12.1285, 164.740844 12.1285 164.740844 12.1285, 238.171228 12.1285 238.171228 12.1285, 311.60085 12.1285 311.60085 12.1285, 311.60085 12.527788 311.60085 12.527788, 311.60085 12.927076 311.60085 12.927076, 311.60085 13.326872 311.60085 13.326872, 311.60085 13.72616 311.60085 13.72616, 311.60085 13.72616"/>
      </g>
      <g>
        <polyline style="fill: gray;stroke: black;stroke-width: 1;" points="316.3951 32.263842, 316.3951 24.833326 316.3951 24.833326, 316.3951 17.402048 316.3951 17.402048, 316.3951 9.970516 316.3951 9.970516, 316.3951 2.54 316.3951 2.54, 240.96726 2.54 240.96726 2.54, 165.539928 2.54 165.539928 2.54, 90.112088 2.54 90.112088 2.54, 14.684756 2.54 14.684756 2.54, 14.684756 9.970516 14.684756 9.970516, 14.684756 17.402048 14.684756 17.402048, 14.684756 24.833326 14.684756 24.833326, 14.684756 32.263842 14.684756 32.263842, 90.112088 32.263842 90.112088 32.263842, 165.539928 32.263842 165.539928 32.263842, 240.96726 32.263842 240.96726 32.263842, 316.3951 32.263842 316.3951 32.263842, 316.3951 32.263842"/>
      </g>
      <g>
        <polyline style="fill: gray;stroke: black;stroke-width: 1;" points="311.60085 20.188682, 238.171228 20.188682 238.171228 20.188682, 164.740844 20.188682 164.740844 20.188682, 91.311222 20.188682 91.311222 20.188682, 17.880838 20.188682 17.880838 20.188682, 17.880838 19.788632 17.880838 19.788632, 17.880838 19.389344 17.880838 19.389344, 17.880838 18.99031 17.880838 18.99031, 17.880838 18.59026 17.880838 18.59026, 91.311222 18.59026 91.311222 18.59026, 164.740844 18.59026 164.740844 18.59026, 238.171228 18.59026 238.171228 18.59026, 311.60085 18.59026 311.60085 18.59026, 311.60085 18.99031 311.60085 18.99031, 311.60085 19.389344 311.60085 19.389344, 311.60085 19.788632 311.60085 19.788632, 311.60085 20.188682 311.60085 20.188682, 311.60085 20.188682"/>
      </g>
      <g>
        <polyline style="fill: gray;stroke: black;stroke-width: 1;" points="311.60085 23.419308, 238.171228 23.419308 238.171228 23.419308, 164.740844 23.419308 164.740844 23.419308, 91.311222 23.419308 91.311222 23.419308, 17.880838 23.419308 17.880838 23.419308, 17.880838 23.020274 17.880838 23.020274, 17.880838 22.620224 17.880838 22.620224, 17.880838 22.220936 17.880838 22.220936, 17.880838 21.82114 17.880838 21.82114, 91.311222 21.82114 91.311222 21.82114, 164.740844 21.82114 164.740844 21.82114, 238.171228 21.82114 238.171228 21.82114, 311.60085 21.82114 311.60085 21.82114, 311.60085 22.220936 311.60085 22.220936, 311.60085 22.620224 311.60085 22.620224, 311.60085 23.020274 311.60085 23.020274, 311.60085 23.419308 311.60085 23.419308, 311.60085 23.419308"/>
      </g>
      <g>
        <polyline style="fill: gray;stroke: black;stroke-width: 1;" points="311.60085 26.650188, 238.171228 26.650188 238.171228 26.650188, 164.740844 26.650188 164.740844 26.650188, 91.311222 26.650188 91.311222 26.650188, 17.880838 26.650188 17.880838 26.650188, 17.880838 26.2509 17.880838 26.2509, 17.880838 25.851104 17.880838 25.851104, 17.880838 25.451816 17.880838 25.451816, 17.880838 25.052528 17.880838 25.052528, 91.311222 25.052528 91.311222 25.052528, 164.740844 25.052528 164.740844 25.052528, 238.171228 25.052528 238.171228 25.052528, 311.60085 25.052528 311.60085 25.052528, 311.60085 25.451816 311.60085 25.451816, 311.60085 25.851104 311.60085 25.851104, 311.60085 26.2509 311.60085 26.2509, 311.60085 26.650188 311.60085 26.650188, 311.60085 26.650188"/>
      </g>
      <g>
        <polyline style="fill: gray;stroke: black;stroke-width: 1;" points="311.60085 29.881068, 238.171228 29.881068 238.171228 29.881068, 164.740844 29.881068 164.740844 29.881068, 91.311222 29.881068 91.311222 29.881068, 17.880838 29.881068 17.880838 29.881068, 17.880838 29.48178 17.880838 29.48178, 17.880838 29.082492 17.880838 29.082492, 17.880838 28.683458 17.880838 28.683458, 17.880838 28.283408 17.880838 28.283408, 91.311222 28.283408 91.311222 28.283408, 164.740844 28.283408 164.740844 28.283408, 238.171228 28.283408 238.171228 28.283408, 311.60085 28.283408 311.60085 28.283408, 311.60085 28.683458 311.60085 28.683458, 311.60085 29.082492 311.60085 29.082492, 311.60085 29.48178 311.60085 29.48178, 311.60085 29.881068 311.60085 29.881068, 311.60085 29.881068"/>
      </g>
      <g>
        <polyline style="fill: gray;stroke: black;stroke-width: 1;" points="311.60085 16.957802, 238.171228 16.957802 238.171228 16.957802, 164.740844 16.957802 164.740844 16.957802, 91.311222 16.957802 91.311222 16.957802, 17.880838 16.957802 17.880838 16.957802, 17.880838 16.557752 17.880838 16.557752, 17.880838 16.158464 17.880838 16.158464, 17.880838 15.758668 17.880838 15.758668, 17.880838 15.35938 17.880838 15.35938, 91.311222 15.35938 91.311222 15.35938, 164.740844 15.35938 164.740844 15.35938, 238.171228 15.35938 238.171228 15.35938, 311.60085 15.35938 311.60085 15.35938, 311.60085 15.758668 311.60085 15.758668, 311.60085 16.158464 311.60085 16.158464, 311.60085 16.557752 311.60085 16.557752, 311.60085 16.957802 311.60085 16.957802, 311.60085 16.957802"/>
      </g>
    </g>
  </g>
</svg>
