<?xml version="1.0" encoding="utf-8"?>
<!-- Generator: SVG Export - SVG Version: 6.00 Build 1  -->
<!-- FXGUID: [952EC67D-82E5-11ED-9BEA-525400685065] SYMID: [18487]  -->
<svg xmlns="http://www.w3.org/2000/svg" version="1.1" ch_offset="0" color_bar_width="66" width="403.598" height="448.472" origin_x="199.743" origin_y="212.066" ch_offset_x="199.73846" ch_offset_y="40" color_offset_x="199.743" color_offset_y="-4">
  <g>
    <title>Layer 1</title>
    <g>
      <g>
        <polyline style="fill: gray;stroke: black;stroke-width: 1;" points="31.034 137.5885, 26.341 142.3035 26.341 142.3035, 16.017 156.5381 16.017 156.5381, 5.693 180.4266 5.693 180.4266, 1 214.1034 1 214.1034, 5.916 247.8921 5.916 247.8921, 16.732 272.0273 16.732 272.0273, 27.548 286.5082 27.548 286.5082, 32.465 291.3351 32.465 291.3351, 32.107 252.8986 32.107 252.8986, 31.749 214.4617 31.749 214.4617, 31.392 176.0251 31.392 176.0251, 31.034 137.5885 31.034 137.5885, 31.034 137.5885"/>
      </g>
      <g>
        <polyline style="fill: gray;stroke: black;stroke-width: 1;" points="31.751 157.6086, 28.175 160.9839 28.175 160.9839, 20.308 171.1981 20.308 171.1981, 12.442 188.3841 12.442 188.3841, 8.866 212.6745 8.866 212.6745, 12.442 236.7413 12.442 236.7413, 20.308 253.4344 20.308 253.4344, 28.175 263.1561 28.175 263.1561, 31.751 266.3077 31.751 266.3077, 31.751 239.1327 31.751 239.1327, 31.751 211.958 31.751 211.958, 31.751 184.7833 31.751 184.7833, 31.751 157.6086 31.751 157.6086, 31.751 157.6086"/>
      </g>
      <g>
        <polyline style="fill: gray;stroke: black;stroke-width: 1;" points="368.564 137.5885, 373.257 142.3035 373.257 142.3035, 383.581 156.5381 383.581 156.5381, 393.905 180.4266 393.905 180.4266, 398.598 214.1034 398.598 214.1034, 393.682 247.8921 393.682 247.8921, 382.865 272.0273 382.865 272.0273, 372.049 286.5082 372.049 286.5082, 367.133 291.3351 367.133 291.3351, 367.49 252.8986 367.49 252.8986, 367.848 214.4617 367.848 214.4617, 368.206 176.0251 368.206 176.0251, 368.564 137.5885 368.564 137.5885, 368.564 137.5885"/>
      </g>
      <g>
        <polyline style="fill: gray;stroke: black;stroke-width: 1;" points="367.847 157.6086, 371.423 160.9839 371.423 160.9839, 379.289 171.1981 379.289 171.1981, 387.156 188.3841 387.156 188.3841, 390.731 212.6745 390.731 212.6745, 387.156 236.7413 387.156 236.7413, 379.289 253.4344 379.289 253.4344, 371.423 263.1561 371.423 263.1561, 367.847 266.3077 367.847 266.3077, 367.847 239.1327 367.847 239.1327, 367.847 211.958 367.847 211.958, 367.847 184.7833 367.847 184.7833, 367.847 157.6086 367.847 157.6086, 367.847 157.6086"/>
      </g>
      <g>
        <polyline style="fill: gray;stroke: black;stroke-width: 1;" points="362.132 346.397, 363.562 333.704 363.562 333.704, 364.992 321.011 364.992 321.011, 366.422 308.3185 366.422 308.3185, 367.851 295.6256 367.851 295.6256, 367.851 254.1492 367.851 254.1492, 367.851 212.6727 367.851 212.6727, 367.851 171.196 367.851 171.196, 367.851 129.7195 367.851 129.7195, 366.064 116.8475 366.064 116.8475, 364.276 103.976 364.276 103.976, 362.488 91.104 362.488 91.104, 360.701 78.232 360.701 78.232, 280.251 78.232 280.251 78.232, 199.8008 78.232 199.8008 78.232, 119.351 78.232 119.351 78.232, 38.901 78.232 38.901 78.232, 37.113 91.104 37.113 91.104, 35.326 103.976 35.326 103.976, 33.538 116.8475 33.538 116.8475, 31.751 129.7195 31.751 129.7195, 31.751 171.196 31.751 171.196, 31.751 212.6727 31.751 212.6727, 31.751 254.1492 31.751 254.1492, 31.751 295.6256 31.751 295.6256, 33.18 308.3185 33.18 308.3185, 34.61 321.011 34.61 321.011, 36.04 333.704 36.04 333.704, 37.47 346.397 37.47 346.397, 118.6354 346.397 118.6354 346.397, 199.8008 346.397 199.8008 346.397, 280.9666 346.397 280.9666 346.397, 362.132 346.397 362.132 346.397, 362.132 346.397"/>
      </g>
      <g>
        <polyline style="fill: gray;stroke: black;stroke-width: 1;" points="363.138 274.5462, 367.026 274.5462 367.026 274.5462, 370.915 274.5462 370.915 274.5462, 374.803 274.5462 374.803 274.5462, 378.691 274.5462 378.691 274.5462, 380.786 271.7303 380.786 271.7303, 385.396 262.4786 385.396 262.4786, 390.005 245.5844 390.005 245.5844, 392.1 219.8404 392.1 219.8404, 392.1 216.8906 392.1 216.8906, 392.1 213.9407 392.1 213.9407, 392.1 210.9909 392.1 210.9909, 392.1 208.0411 392.1 208.0411, 390.005 182.2973 390.005 182.2973, 385.396 165.4028 385.396 165.4028, 380.786 156.1511 380.786 156.1511, 378.691 153.3356 378.691 153.3356, 374.803 153.3356 374.803 153.3356, 370.915 153.3356 370.915 153.3356, 367.026 153.3356 367.026 153.3356, 363.138 153.3356 363.138 153.3356, 357.149 153.3356 357.149 153.3356, 351.16 153.3356 351.16 153.3356, 345.172 153.3356 345.172 153.3356, 339.183 153.3356 339.183 153.3356, 339.183 183.4601 339.183 183.4601, 339.183 213.5846 339.183 213.5846, 339.183 243.7091 339.183 243.7091, 339.183 273.8339 339.183 273.8339, 345.172 274.0118 345.172 274.0118, 351.16 274.1901 351.16 274.1901, 357.149 274.368 357.149 274.368, 363.138 274.5462 363.138 274.5462, 363.138 274.5462"/>
      </g>
      <g>
        <polyline style="fill: gray;stroke: black;stroke-width: 1;" points="59.575 273.8339, 69.945 275.7111 69.945 275.7111, 80.314 277.5882 80.314 277.5882, 90.683 279.4653 90.683 279.4653, 101.0527 281.3425 101.0527 281.3425, 150.2159 281.3425 150.2159 281.3425, 199.3791 281.3425 199.3791 281.3425, 248.5426 281.3425 248.5426 281.3425, 297.7058 281.3425 297.7058 281.3425, 308.075 279.4653 308.075 279.4653, 318.444 277.5882 318.444 277.5882, 328.814 275.7111 328.814 275.7111, 339.183 273.8339 339.183 273.8339, 339.183 243.7091 339.183 243.7091, 339.183 213.5846 339.183 213.5846, 339.183 183.4601 339.183 183.4601, 339.183 153.3356 339.183 153.3356, 328.814 151.4584 328.814 151.4584, 318.444 149.5813 318.444 149.5813, 308.075 147.7041 308.075 147.7041, 297.7058 145.827 297.7058 145.827, 248.5426 145.827 248.5426 145.827, 199.3791 145.827 199.3791 145.827, 150.2159 145.827 150.2159 145.827, 101.0527 145.827 101.0527 145.827, 90.683 147.7041 90.683 147.7041, 80.314 149.5813 80.314 149.5813, 69.945 151.4584 69.945 151.4584, 59.575 153.3356 59.575 153.3356, 59.575 183.4601 59.575 183.4601, 59.575 213.5846 59.575 213.5846, 59.575 243.7091 59.575 243.7091, 59.575 273.8339 59.575 273.8339, 59.575 273.8339"/>
      </g>
      <g>
        <polyline style="fill: gray;stroke: black;stroke-width: 1;" points="35.62 274.5462, 31.732 274.5462 31.732 274.5462, 27.844 274.5462 27.844 274.5462, 23.955 274.5462 23.955 274.5462, 20.067 274.5462 20.067 274.5462, 17.972 271.7303 17.972 271.7303, 13.363 262.4786 13.363 262.4786, 8.754 245.5844 8.754 245.5844, 6.659 219.8404 6.659 219.8404, 6.659 216.8906 6.659 216.8906, 6.659 213.9407 6.659 213.9407, 6.659 210.9909 6.659 210.9909, 6.659 208.0411 6.659 208.0411, 8.754 182.2973 8.754 182.2973, 13.363 165.4028 13.363 165.4028, 17.972 156.1511 17.972 156.1511, 20.067 153.3356 20.067 153.3356, 23.955 153.3356 23.955 153.3356, 27.844 153.3356 27.844 153.3356, 31.732 153.3356 31.732 153.3356, 35.62 153.3356 35.62 153.3356, 41.609 153.3356 41.609 153.3356, 47.598 153.3356 47.598 153.3356, 53.586 153.3356 53.586 153.3356, 59.575 153.3356 59.575 153.3356, 59.575 183.4601 59.575 183.4601, 59.575 213.5846 59.575 213.5846, 59.575 243.7091 59.575 243.7091, 59.575 273.8339 59.575 273.8339, 53.586 274.0118 53.586 274.0118, 47.598 274.1901 47.598 274.1901, 41.609 274.368 41.609 274.368, 35.62 274.5462 35.62 274.5462, 35.62 274.5462"/>
      </g>
      <g>
        <polyline style="fill: gray;stroke: black;stroke-width: 1;" points="64.342 240.2027, 63.135 240.2027 63.135 240.2027, 61.928 240.2027 61.928 240.2027, 60.721 240.2027 60.721 240.2027, 59.514 240.2027 59.514 240.2027, 59.514 226.5263 59.514 226.5263, 59.514 212.8498 59.514 212.8498, 59.514 199.1734 59.514 199.1734, 59.514 185.4969 59.514 185.4969, 60.721 185.4969 60.721 185.4969, 61.928 185.4969 61.928 185.4969, 63.135 185.4969 63.135 185.4969, 64.342 185.4969 64.342 185.4969, 64.342 199.1734 64.342 199.1734, 64.342 212.8498 64.342 212.8498, 64.342 226.5263 64.342 226.5263, 64.342 240.2027 64.342 240.2027, 64.342 240.2027"/>
      </g>
      <g>
        <polyline style="fill: gray;stroke: black;stroke-width: 1;" points="260.8728 443.472, 271.2647 441.293 271.2647 441.293, 278.4375 436.499 278.4375 436.499, 282.5946 431.706 282.5946 431.706, 283.9356 429.527 283.9356 429.527, 306.017 394.456 306.017 394.456, 322.216 360.944 322.216 360.944, 332.28 335.175 332.28 335.175, 335.959 323.334 335.959 323.334, 336.27 315.884 336.27 315.884, 336.428 303.1544 336.428 303.1544, 336.487 291.129 336.487 291.129, 336.495 285.7908 336.495 285.7908, 334.28 253.2392 334.28 253.2392, 334.634 210.9098 334.634 210.9098, 335.994 174.2118 335.994 174.2118, 336.795 158.5548 336.795 158.5548, 331.387 154.6617 331.387 154.6617, 328.549 151.2812 328.549 151.2812, 327.452 148.8978 327.452 148.8978, 327.271 147.9957 327.271 147.9957, 321.934 110.948 321.934 110.948, 312.951 62.076 312.951 62.076, 304.499 19.48 304.499 19.48, 300.754 1.259 300.754 1.259, 279.3872 1.259 279.3872 1.259, 258.0194 1.259 258.0194 1.259, 236.6523 1.259 236.6523 1.259, 215.2851 1.259 215.2851 1.259, 207.7179 1.259 207.7179 1.259, 200.1502 1.259 200.1502 1.259, 192.583 1.259 192.583 1.259, 185.0159 1.259 185.0159 1.259, 163.6487 1.259 163.6487 1.259, 142.2809 1.259 142.2809 1.259, 120.9137 1.259 120.9137 1.259, 99.546 1.259 99.546 1.259, 95.801 19.48 95.801 19.48, 87.349 62.076 87.349 62.076, 78.367 110.948 78.367 110.948, 73.029 147.9957 73.029 147.9957, 72.848 148.8978 72.848 148.8978, 71.752 151.2812 71.752 151.2812, 68.914 154.6617 68.914 154.6617, 63.505 158.5548 63.505 158.5548, 64.307 174.2118 64.307 174.2118, 65.667 210.9098 65.667 210.9098, 66.021 253.2392 66.021 253.2392, 63.805 285.7908 63.805 285.7908, 63.814 291.129 63.814 291.129, 63.872 303.1544 63.872 303.1544, 64.031 315.884 64.031 315.884, 64.342 323.334 64.342 323.334, 68.021 335.175 68.021 335.175, 78.085 360.944 78.085 360.944, 94.284 394.456 94.284 394.456, 116.3654 429.527 116.3654 429.527, 117.7063 431.706 117.7063 431.706, 121.8628 436.499 121.8628 436.499, 129.0363 441.293 129.0363 441.293, 139.4275 443.472 139.4275 443.472, 169.7888 443.472 169.7888 443.472, 200.1502 443.472 200.1502 443.472, 230.5115 443.472 230.5115 443.472, 260.8728 443.472 260.8728 443.472, 260.8728 443.472"/>
      </g>
      <g>
        <polyline style="fill: gray;stroke: black;stroke-width: 1;" points="339.479 240.2027, 338.272 240.2027 338.272 240.2027, 337.066 240.2027 337.066 240.2027, 335.859 240.2027 335.859 240.2027, 334.652 240.2027 334.652 240.2027, 334.652 226.5263 334.652 226.5263, 334.652 212.8498 334.652 212.8498, 334.652 199.1734 334.652 199.1734, 334.652 185.4969 334.652 185.4969, 335.859 185.4969 335.859 185.4969, 337.066 185.4969 337.066 185.4969, 338.272 185.4969 338.272 185.4969, 339.479 185.4969 339.479 185.4969, 339.479 199.1734 339.479 199.1734, 339.479 212.8498 339.479 212.8498, 339.479 226.5263 339.479 226.5263, 339.479 240.2027 339.479 240.2027, 339.479 240.2027"/>
      </g>
      <g>
        <polyline style="fill: transparent;stroke: black;stroke-width: 1;" points="87.94 58.923, 143.9868 58.923 143.9868 58.923, 200.033 58.923 200.033 58.923, 256.0791 58.923 256.0791 58.923, 312.126 58.923"/>
      </g>
      <g>
        <polyline style="fill: transparent;stroke: black;stroke-width: 1;" points="135.1367 397.884, 167.049 397.884 167.049 397.884, 198.9606 397.884 198.9606 397.884, 230.8722 397.884 230.8722 397.884, 262.7839 397.884"/>
      </g>
      <g>
        <polyline style="fill: transparent;stroke: black;stroke-width: 1;" points="135.1367 383.403, 167.049 383.403 167.049 383.403, 198.9606 383.403 198.9606 383.403, 230.8722 383.403 230.8722 383.403, 262.7839 383.403"/>
      </g>
      <g>
        <polyline style="fill: transparent;stroke: black;stroke-width: 1;" points="135.1367 290.0813, 167.1826 290.0813 167.1826 290.0813, 199.2285 290.0813 199.2285 290.0813, 231.2745 290.0813 231.2745 290.0813, 263.3204 290.0813"/>
      </g>
      <g>
        <polyline style="fill: transparent;stroke: black;stroke-width: 1;" points="134.6009 296.5174, 166.6468 296.5174 166.6468 296.5174, 198.6921 296.5174 198.6921 296.5174, 230.738 296.5174 230.738 296.5174, 262.7839 296.5174"/>
      </g>
      <g>
        <polyline style="fill: transparent;stroke: black;stroke-width: 1;" points="134.6009 304.026, 166.6468 304.026 166.6468 304.026, 198.6921 304.026 198.6921 304.026, 230.738 304.026 230.738 304.026, 262.7839 304.026"/>
      </g>
      <g>
        <polyline style="fill: transparent;stroke: black;stroke-width: 1;" points="135.1367 310.9983, 167.1826 310.9983 167.1826 310.9983, 199.2285 310.9983 199.2285 310.9983, 231.2745 310.9983 231.2745 310.9983, 263.3204 310.9983"/>
      </g>
      <g>
        <polyline style="fill: transparent;stroke: black;stroke-width: 1;" points="134.6009 318.507, 166.7804 318.507 166.7804 318.507, 198.9606 318.507 198.9606 318.507, 231.1402 318.507 231.1402 318.507, 263.3204 318.507"/>
      </g>
      <g>
        <polyline style="fill: transparent;stroke: black;stroke-width: 1;" points="135.1367 326.015, 167.049 326.015 167.049 326.015, 198.9606 326.015 198.9606 326.015, 230.8722 326.015 230.8722 326.015, 262.7839 326.015"/>
      </g>
      <g>
        <polyline style="fill: transparent;stroke: black;stroke-width: 1;" points="135.1367 333.524, 167.049 333.524 167.049 333.524, 198.9606 333.524 198.9606 333.524, 230.8722 333.524 230.8722 333.524, 262.7839 333.524"/>
      </g>
      <g>
        <polyline style="fill: transparent;stroke: black;stroke-width: 1;" points="135.1367 340.496, 167.1826 340.496 167.1826 340.496, 199.2285 340.496 199.2285 340.496, 231.2745 340.496 231.2745 340.496, 263.3204 340.496"/>
      </g>
      <g>
        <polyline style="fill: transparent;stroke: black;stroke-width: 1;" points="135.1367 347.469, 167.049 347.469 167.049 347.469, 198.9606 347.469 198.9606 347.469, 230.8722 347.469 230.8722 347.469, 262.7839 347.469"/>
      </g>
      <g>
        <polyline style="fill: transparent;stroke: black;stroke-width: 1;" points="135.1367 354.441, 167.049 354.441 167.049 354.441, 198.9606 354.441 198.9606 354.441, 230.8722 354.441 230.8722 354.441, 262.7839 354.441"/>
      </g>
      <g>
        <polyline style="fill: transparent;stroke: black;stroke-width: 1;" points="135.1367 361.95, 167.049 361.95 167.049 361.95, 198.9606 361.95 198.9606 361.95, 230.8722 361.95 230.8722 361.95, 262.7839 361.95"/>
      </g>
      <g>
        <polyline style="fill: transparent;stroke: black;stroke-width: 1;" points="135.1367 368.922, 167.1826 368.922 167.1826 368.922, 199.2285 368.922 199.2285 368.922, 231.2745 368.922 231.2745 368.922, 263.3204 368.922"/>
      </g>
      <g>
        <polyline style="fill: transparent;stroke: black;stroke-width: 1;" points="134.6009 375.894, 166.6468 375.894 166.6468 375.894, 198.6921 375.894 198.6921 375.894, 230.738 375.894 230.738 375.894, 262.7839 375.894"/>
      </g>
      <g>
        <polyline style="fill: transparent;stroke: black;stroke-width: 1;" points="135.6732 404.856, 167.5849 404.856 167.5849 404.856, 199.4965 404.856 199.4965 404.856, 231.4081 404.856 231.4081 404.856, 263.3204 404.856"/>
      </g>
      <g>
        <polyline style="fill: transparent;stroke: black;stroke-width: 1;" points="135.1367 390.375, 167.049 390.375 167.049 390.375, 198.9606 390.375 198.9606 390.375, 230.8722 390.375 230.8722 390.375, 262.7839 390.375"/>
      </g>
      <g>
        <polyline style="fill: transparent;stroke: black;stroke-width: 1;" points="134.6009 411.828, 166.5125 411.828 166.5125 411.828, 198.4241 411.828 198.4241 411.828, 230.3357 411.828 230.3357 411.828, 262.2474 411.828"/>
      </g>
      <g>
        <polyline style="fill: transparent;stroke: black;stroke-width: 1;" points="335.959 323.334, 332.445 320.744 332.445 320.744, 323.707 313.479 323.707 313.479, 312.456 302.2914 312.456 302.2914, 301.4 287.9359 301.4 287.9359, 291.8128 287.0982 291.8128 287.0982, 267.7448 285.2543 267.7448 285.2543, 236.2354 283.4108 236.2354 283.4108, 204.3238 282.5727 204.3238 282.5727, 201.5076 282.5727 201.5076 282.5727, 198.6921 282.5727 198.6921 282.5727, 195.8765 282.5727 195.8765 282.5727, 193.0609 282.5727 193.0609 282.5727, 161.1493 283.4108 161.1493 283.4108, 129.6399 285.2543 129.6399 285.2543, 105.5719 287.0982 105.5719 287.0982, 95.985 287.9359 95.985 287.9359, 85.3 301.8724 85.3 301.8724, 74.867 312.138 74.867 312.138, 66.948 318.482 66.948 318.482, 63.805 320.652"/>
      </g>
      <g>
        <polyline style="fill: gray;stroke: black;stroke-width: 1;" points="286.4722 1, 289.087 15.217 289.087 15.217, 295.3217 49.849 295.3217 49.849, 302.763 92.863 302.763 92.863, 308.998 132.2242 308.998 132.2242, 313.627 175.8485 313.627 175.8485, 317.534 229.7557 317.534 229.7557, 320.236 279.0544 320.236 279.0544, 321.244 308.853 321.244 308.853, 316.379 331.777 316.379 331.777, 304.852 364.129 304.852 364.129, 291.2635 396.53 291.2635 396.53, 280.2143 419.605 280.2143 419.605, 271.7463 430.759 271.7463 430.759, 263.5547 435.427 263.5547 435.427, 256.7206 436.273 256.7206 436.273, 252.3255 435.963 252.3255 435.963, 225.9778 435.963 225.9778 435.963, 199.6308 435.963 199.6308 435.963, 173.2837 435.963 173.2837 435.963, 146.9361 435.963 146.9361 435.963, 142.5409 436.273 142.5409 436.273, 135.7068 435.427 135.7068 435.427, 127.5153 430.759 127.5153 430.759, 119.0473 419.605 119.0473 419.605, 107.9981 396.53 107.9981 396.53, 94.409 364.129 94.409 364.129, 82.883 331.777 82.883 331.777, 78.018 308.853 78.018 308.853, 79.026 279.0544 79.026 279.0544, 81.727 229.7557 81.727 229.7557, 85.635 175.8485 85.635 175.8485, 90.264 132.2242 90.264 132.2242, 96.498 92.863 96.498 92.863, 103.9398 49.849 103.9398 49.849, 110.1746 15.217 110.1746 15.217, 112.7893 1 112.7893 1, 156.2097 1 156.2097 1, 199.6308 1 199.6308 1, 243.0512 1 243.0512 1, 286.4722 1 286.4722 1, 286.4722 1"/>
      </g>
      <g>
        <polyline style="fill: gray;stroke: black;stroke-width: 1;" points="263.3204 418.801, 231.2745 418.801 231.2745 418.801, 199.2285 418.801 199.2285 418.801, 167.1826 418.801 167.1826 418.801, 135.1367 418.801 135.1367 418.801, 135.1367 385.682 135.1367 385.682, 135.1367 352.564 135.1367 352.564, 135.1367 319.445 135.1367 319.445, 135.1367 286.327 135.1367 286.327, 167.1826 286.327 167.1826 286.327, 199.2285 286.327 199.2285 286.327, 231.2745 286.327 231.2745 286.327, 263.3204 286.327 263.3204 286.327, 263.3204 319.445 263.3204 319.445, 263.3204 352.564 263.3204 352.564, 263.3204 385.682 263.3204 385.682, 263.3204 418.801 263.3204 418.801, 263.3204 418.801"/>
      </g>
      <g>
        <polyline style="fill: gray;stroke: black;stroke-width: 1;" points="272.4378 2.608, 274.8261 16.101 274.8261 16.101, 280.2814 47.392 280.2814 47.392, 286.2397 82.706 286.2397 82.706, 290.1368 108.266 290.1368 108.266, 293.5303 141.786 293.5303 141.786, 298.3826 196.2235 298.3826 196.2235, 302.732 250.6611 302.732 250.6611, 304.617 284.1816 304.617 284.1816, 300.587 310.5122 300.587 310.5122, 291.2763 348.81 291.2763 348.81, 280.8594 386.302 280.8594 386.302, 273.5102 410.219 273.5102 410.219, 266.3202 419.89 266.3202 419.89, 255.0068 424.432 255.0068 424.432, 241.6822 425.756 241.6822 425.756, 228.4583 425.773 228.4583 425.773, 214.112 425.773 214.112 425.773, 199.765 425.773 199.765 425.773, 185.4181 425.773 185.4181 425.773, 171.0712 425.773 171.0712 425.773, 157.8473 425.756 157.8473 425.756, 144.5227 424.432 144.5227 424.432, 133.2099 419.89 133.2099 419.89, 126.0193 410.219 126.0193 410.219, 118.6701 386.302 118.6701 386.302, 108.2538 348.81 108.2538 348.81, 98.943 310.5122 98.943 310.5122, 94.912 284.1816 94.912 284.1816, 96.798 250.6611 96.798 250.6611, 101.1475 196.2235 101.1475 196.2235, 105.9992 141.786 105.9992 141.786, 109.3933 108.266 109.3933 108.266, 113.2898 82.706 113.2898 82.706, 119.2481 47.392 119.2481 47.392, 124.704 16.101 124.704 16.101, 127.0923 2.608 127.0923 2.608, 163.4284 2.608 163.4284 2.608, 199.765 2.608 199.765 2.608, 236.1011 2.608 236.1011 2.608, 272.4378 2.608 272.4378 2.608, 272.4378 2.608"/>
      </g>
    </g>
  </g>
</svg>
