<?xml version="1.0" encoding="utf-8"?>
<!-- Generator: SVG Export - SVG Version: 6.00 Build 1  -->
<!-- FXGUID: [287165FF-8246-11F0-BA60-42010A37C005] SYMID: [34305]  -->
<svg xmlns="http://www.w3.org/2000/svg" version="1.1" ch_offset="0" color_bar_width="66" width="372.359936" height="316.133226" origin_x="181.189884" origin_y="177.558954" ch_offset_x="183.925845" ch_offset_y="40" color_offset_x="181.189884" color_offset_y="-4">
  <g>
    <title>Layer 1</title>
    <g>
      <g>
        <polyline style="fill: gray;stroke: black;stroke-width: 1;" points="44.509436 137.35304, 44.509436 136.124442 44.509436 136.124442, 44.509436 134.895844 44.509436 134.895844, 44.509436 133.668008 44.509436 133.668008, 44.509436 132.43941 44.509436 132.43941, 41.43756 132.43941 41.43756 132.43941, 38.365684 132.43941 38.365684 132.43941, 35.293046 132.43941 35.293046 132.43941, 32.220916 132.43941 32.220916 132.43941, 31.323534 133.668008 31.323534 133.668008, 30.425898 134.895844 30.425898 134.895844, 29.5275 136.124442 29.5275 136.124442, 28.629864 137.35304 28.629864 137.35304, 28.629864 144.678146 28.629864 144.678146, 28.629864 152.004014 28.629864 152.004014, 28.629864 159.329882 28.629864 159.329882, 28.629864 166.65575 28.629864 166.65575, 27.873198 166.65575 27.873198 166.65575, 27.117548 166.65575 27.117548 166.65575, 26.360882 166.65575 26.360882 166.65575, 25.60447 166.65575 25.60447 166.65575, 25.60447 165.9001 25.60447 165.9001, 25.60447 165.144196 25.60447 165.144196, 25.60447 164.388546 25.60447 164.388546, 25.60447 163.63188 25.60447 163.63188, 23.85568 163.63188 23.85568 163.63188, 22.10689 163.63188 22.10689 163.63188, 20.358862 163.63188 20.358862 163.63188, 18.610326 163.63188 18.610326 163.63188, 18.610326 159.103568 18.610326 159.103568, 18.610326 148.815044 18.610326 148.815044, 18.610326 137.71118 18.610326 137.71118, 18.610326 130.735578 18.610326 130.735578, 18.344388 128.163574 18.344388 128.163574, 17.759172 126.74346 17.759172 126.74346, 17.173194 126.138178 17.173194 126.138178, 16.907256 126.010924 16.907256 126.010924, 16.124428 125.984762 16.124428 125.984762, 14.189456 125.940566 14.189456 125.940566, 11.723878 125.931168 11.723878 125.931168, 9.345676 126.010924 9.345676 126.010924, 7.086092 128.335786 7.086092 128.335786, 4.880102 133.266434 4.880102 133.266434, 3.204972 138.16076 3.204972 138.16076, 2.54 140.379958 2.54 140.379958, 2.54 146.192748 2.54 146.192748, 2.54 152.005538 2.54 152.005538, 2.54 157.81909 2.54 157.81909, 2.54 163.63188 2.54 163.63188, 2.54 170.508168 2.54 170.508168, 2.54 177.383948 2.54 177.383948, 2.54 184.260236 2.54 184.260236, 2.54 191.136524 2.54 191.136524, 2.54 196.949314 2.54 196.949314, 2.54 202.762866 2.54 202.762866, 2.54 208.575656 2.54 208.575656, 2.54 214.389462 2.54 214.389462, 3.204972 216.607898 3.204972 216.607898, 4.880102 221.502986 4.880102 221.502986, 7.086092 226.432872 7.086092 226.432872, 9.345676 228.75748 9.345676 228.75748, 11.723878 228.836474 11.723878 228.836474, 14.189456 228.828092 14.189456 228.828092, 16.124428 228.783896 16.124428 228.783896, 16.907256 228.75748 16.907256 228.75748, 17.173194 228.630226 17.173194 228.630226, 17.759172 228.024944 17.759172 228.024944, 18.344388 226.60483 18.344388 226.60483, 18.610326 224.032826 18.610326 224.032826, 18.610326 217.057478 18.610326 217.057478, 18.610326 205.952598 18.610326 205.952598, 18.610326 195.664074 18.610326 195.664074, 18.610326 191.136524 18.610326 191.136524, 20.358862 191.136524 20.358862 191.136524, 22.10689 191.136524 22.10689 191.136524, 23.85568 191.136524 23.85568 191.136524, 25.60447 191.136524 25.60447 191.136524, 25.60447 190.38062 25.60447 190.38062, 25.60447 189.624208 25.60447 189.624208, 25.60447 188.868304 25.60447 188.868304, 25.60447 188.112654 25.60447 188.112654, 26.360882 188.112654 26.360882 188.112654, 27.117548 188.112654 27.117548 188.112654, 27.873198 188.112654 27.873198 188.112654, 28.629864 188.112654 28.629864 188.112654, 28.629864 195.438522 28.629864 195.438522, 28.629864 202.76439 28.629864 202.76439, 28.629864 210.089496 28.629864 210.089496, 28.629864 217.415618 28.629864 217.415618, 29.5275 218.644216 29.5275 218.644216, 30.425898 219.872814 30.425898 219.872814, 31.323534 221.10065 31.323534 221.10065, 32.220916 222.329248 32.220916 222.329248, 35.293046 222.329248 35.293046 222.329248, 38.365684 222.329248 38.365684 222.329248, 41.43756 222.329248 41.43756 222.329248, 44.509436 222.329248 44.509436 222.329248, 44.509436 221.10065 44.509436 221.10065, 44.509436 219.872814 44.509436 219.872814, 44.509436 218.644216 44.509436 218.644216, 44.509436 217.415618 44.509436 217.415618, 112.80521 217.415618 112.80521 217.415618, 181.100222 217.415618 181.100222 217.415618, 249.39625 217.415618 249.39625 217.415618, 317.692024 217.415618 317.692024 217.415618, 317.692024 218.644216 317.692024 218.644216, 317.692024 219.872814 317.692024 219.872814, 317.692024 221.10065 317.692024 221.10065, 317.692024 222.329248 317.692024 222.329248, 320.763138 222.329248 320.763138 222.329248, 323.835014 222.329248 323.835014 222.329248, 326.90689 222.329248 326.90689 222.329248, 329.979528 222.329248 329.979528 222.329248, 330.877164 221.10065 330.877164 221.10065, 331.7748 219.872814 331.7748 219.872814, 332.673198 218.644216 332.673198 218.644216, 333.570834 217.415618 333.570834 217.415618, 333.570834 210.089496 333.570834 210.089496, 333.570834 202.76439 333.570834 202.76439, 333.570834 195.438522 333.570834 195.438522, 333.570834 188.112654 333.570834 188.112654, 334.3275 188.112654 334.3275 188.112654, 335.083912 188.112654 335.083912 188.112654, 335.839816 188.112654 335.839816 188.112654, 336.596228 188.112654 336.596228 188.112654, 336.596228 188.868304 336.596228 188.868304, 336.596228 189.624208 336.596228 189.624208, 336.596228 190.38062 336.596228 190.38062, 336.596228 191.136524 336.596228 191.136524, 338.345018 191.136524 338.345018 191.136524, 340.093046 191.136524 340.093046 191.136524, 341.841582 191.136524 341.841582 191.136524, 343.590372 191.136524 343.590372 191.136524, 343.590372 195.664074 343.590372 195.664074, 343.590372 205.952598 343.590372 205.952598, 343.590372 217.057478 343.590372 217.057478, 343.590372 224.032826 343.590372 224.032826, 343.85631 226.60483 343.85631 226.60483, 344.442288 228.024944 344.442288 228.024944, 345.027504 228.630226 345.027504 228.630226, 345.293442 228.75748 345.293442 228.75748, 346.07627 228.783896 346.07627 228.783896, 348.010988 228.828092 348.010988 228.828092, 350.47682 228.836474 350.47682 228.836474, 352.855022 228.75748 352.855022 228.75748, 355.113844 226.432872 355.113844 226.432872, 357.320596 221.502986 357.320596 221.502986, 358.995726 216.607898 358.995726 216.607898, 359.659936 214.389462 359.659936 214.389462, 359.659936 208.575656 359.659936 208.575656, 359.659936 202.762866 359.659936 202.762866, 359.659936 196.949314 359.659936 196.949314, 359.659936 191.136524 359.659936 191.136524, 359.659936 184.260236 359.659936 184.260236, 359.659936 177.383948 359.659936 177.383948, 359.659936 170.508168 359.659936 170.508168, 359.659936 163.63188 359.659936 163.63188, 359.659936 157.81909 359.659936 157.81909, 359.659936 152.005538 359.659936 152.005538, 359.659936 146.192748 359.659936 146.192748, 359.659936 140.379958 359.659936 140.379958, 358.995726 138.16076 358.995726 138.16076, 357.320596 133.266434 357.320596 133.266434, 355.113844 128.335786 355.113844 128.335786, 352.855022 126.010924 352.855022 126.010924, 350.47682 125.931168 350.47682 125.931168, 348.010988 125.940566 348.010988 125.940566, 346.07627 125.984762 346.07627 125.984762, 345.293442 126.010924 345.293442 126.010924, 345.027504 126.138178 345.027504 126.138178, 344.442288 126.74346 344.442288 126.74346, 343.85631 128.163574 343.85631 128.163574, 343.590372 130.735578 343.590372 130.735578, 343.590372 137.71118 343.590372 137.71118, 343.590372 148.815044 343.590372 148.815044, 343.590372 159.103568 343.590372 159.103568, 343.590372 163.63188 343.590372 163.63188, 341.841582 163.63188 341.841582 163.63188, 340.093046 163.63188 340.093046 163.63188, 338.345018 163.63188 338.345018 163.63188, 336.596228 163.63188 336.596228 163.63188, 336.596228 164.388546 336.596228 164.388546, 336.596228 165.144196 336.596228 165.144196, 336.596228 165.9001 336.596228 165.9001, 336.596228 166.65575 336.596228 166.65575, 335.839816 166.65575 335.839816 166.65575, 335.083912 166.65575 335.083912 166.65575, 334.3275 166.65575 334.3275 166.65575, 333.570834 166.65575 333.570834 166.65575, 333.570834 159.329882 333.570834 159.329882, 333.570834 152.004014 333.570834 152.004014, 333.570834 144.678146 333.570834 144.678146, 333.570834 137.35304 333.570834 137.35304, 332.673198 136.124442 332.673198 136.124442, 331.7748 134.895844 331.7748 134.895844, 330.877164 133.668008 330.877164 133.668008, 329.979528 132.43941 329.979528 132.43941, 326.90689 132.43941 326.90689 132.43941, 323.835014 132.43941 323.835014 132.43941, 320.763138 132.43941 320.763138 132.43941, 317.692024 132.43941 317.692024 132.43941, 317.692024 133.668008 317.692024 133.668008, 317.692024 134.895844 317.692024 134.895844, 317.692024 136.124442 317.692024 136.124442, 317.692024 137.35304 317.692024 137.35304, 249.39625 137.35304 249.39625 137.35304, 181.100222 137.35304 181.100222 137.35304, 112.80521 137.35304 112.80521 137.35304, 44.509436 137.35304 44.509436 137.35304, 44.509436 137.35304"/>
      </g>
      <g>
        <polyline style="fill: transparent;stroke: black;stroke-width: 1;" points="276.288246 137.35304, 276.288246 157.368748 276.288246 157.368748, 276.288246 177.383948 276.288246 177.383948, 276.288246 197.399656 276.288246 197.399656, 276.288246 217.415618"/>
      </g>
      <g>
        <polyline style="fill: transparent;stroke: black;stroke-width: 1;" points="28.629864 166.65575, 28.629864 172.019722 28.629864 172.019722, 28.629864 177.383948 28.629864 177.383948, 28.629864 182.74792 28.629864 182.74792, 28.629864 188.112654"/>
      </g>
      <g>
        <polyline style="fill: transparent;stroke: black;stroke-width: 1;" points="333.570834 166.65575, 333.570834 172.019722 333.570834 172.019722, 333.570834 177.383948 333.570834 177.383948, 333.570834 182.74792 333.570834 182.74792, 333.570834 188.112654"/>
      </g>
      <g>
        <polyline style="fill: transparent;stroke: black;stroke-width: 1;" points="336.596228 166.65575, 336.596228 172.019722 336.596228 172.019722, 336.596228 177.383948 336.596228 177.383948, 336.596228 182.74792 336.596228 182.74792, 336.596228 188.112654"/>
      </g>
      <g>
        <polyline style="fill: transparent;stroke: black;stroke-width: 1;" points="343.590372 163.63188, 343.590372 170.508168 343.590372 170.508168, 343.590372 177.383948 343.590372 177.383948, 343.590372 184.260236 343.590372 184.260236, 343.590372 191.136524"/>
      </g>
      <g>
        <polyline style="fill: transparent;stroke: black;stroke-width: 1;" points="18.610326 163.63188, 18.610326 170.508168 18.610326 170.508168, 18.610326 177.383948 18.610326 177.383948, 18.610326 184.260236 18.610326 184.260236, 18.610326 191.136524"/>
      </g>
      <g>
        <polyline style="fill: transparent;stroke: black;stroke-width: 1;" points="347.37167 125.926596, 347.37167 151.655272 347.37167 151.655272, 347.37167 177.38471 347.37167 177.38471, 347.37167 203.113386 347.37167 203.113386, 347.37167 228.842062"/>
      </g>
      <g>
        <polyline style="fill: transparent;stroke: black;stroke-width: 1;" points="13.883386 125.926596, 13.883386 151.63419 13.883386 151.63419, 13.883386 177.342038 13.883386 177.342038, 13.883386 203.049632 13.883386 203.049632, 13.883386 228.75748"/>
      </g>
      <g>
        <polyline style="fill: transparent;stroke: black;stroke-width: 1;" points="84.967318 137.35304, 84.967318 157.368748 84.967318 157.368748, 84.967318 177.383948 84.967318 177.383948, 84.967318 197.399656 84.967318 197.399656, 84.967318 217.415618"/>
      </g>
      <g>
        <polyline style="fill: transparent;stroke: black;stroke-width: 1;" points="25.60447 166.65575, 25.60447 172.019722 25.60447 172.019722, 25.60447 177.383948 25.60447 177.383948, 25.60447 182.74792 25.60447 182.74792, 25.60447 188.112654"/>
      </g>
      <g>
        <polyline style="fill: gray;stroke: black;stroke-width: 1;" points="329.223116 180.520848, 255.114552 180.520848 255.114552 180.520848, 181.005734 180.520848 181.005734 180.520848, 106.89717 180.520848 106.89717 180.520848, 32.788352 180.520848 32.788352 180.520848, 32.788352 178.757326 32.788352 178.757326, 32.788352 176.993296 32.788352 176.993296, 32.788352 175.229012 32.788352 175.229012, 32.788352 173.46549 32.788352 173.46549, 106.89717 173.46549 106.89717 173.46549, 181.005734 173.46549 181.005734 173.46549, 255.114552 173.46549 255.114552 173.46549, 329.223116 173.46549 329.223116 173.46549, 329.223116 175.229012 329.223116 175.229012, 329.223116 176.993296 329.223116 176.993296, 329.223116 178.757326 329.223116 178.757326, 329.223116 180.520848 329.223116 180.520848, 329.223116 180.520848"/>
      </g>
      <g>
        <polyline style="fill: gray;stroke: black;stroke-width: 1;" points="234.20832 2.54, 253.568454 2.54 253.568454 2.54, 272.929096 2.54 272.929096 2.54, 292.28923 2.54 292.28923 2.54, 311.650888 2.54 311.650888 2.54, 313.007248 3.403346 313.007248 3.403346, 314.363862 4.266184 314.363862 4.266184, 315.720222 5.129784 315.720222 5.129784, 317.076836 5.99313 317.076836 5.99313, 317.076836 74.926952 317.076836 74.926952, 317.076836 143.860774 317.076836 143.860774, 317.076836 212.795358 317.076836 212.795358, 317.076836 281.72918 317.076836 281.72918, 315.835792 284.658308 315.835792 284.658308, 312.699654 291.101526 312.699654 291.101526, 308.544722 297.54449 308.544722 297.54449, 304.252122 300.473618 304.252122 300.473618, 297.03014 300.473618 297.03014 300.473618, 286.433006 300.473618 286.433006 300.473618, 276.852888 300.473618 276.852888 300.473618, 272.682716 300.473618 272.682716 300.473618, 272.189702 301.214028 272.189702 301.214028, 271.696688 301.953422 271.696688 301.953422, 271.203674 302.69307 271.203674 302.69307, 270.709898 303.433226 270.709898 303.433226, 267.50391 303.433226 267.50391 303.433226, 264.29716 303.433226 264.29716 303.433226, 261.091172 303.433226 261.091172 303.433226, 257.885184 303.433226 257.885184 303.433226, 257.021584 302.200056 257.021584 302.200056, 256.158746 300.966632 256.158746 300.966632, 255.2954 299.733462 255.2954 299.733462, 254.4318 298.501054 254.4318 298.501054, 241.853466 298.501054 241.853466 298.501054, 229.275894 298.501054 229.275894 298.501054, 216.697052 298.501054 216.697052 298.501054, 204.118718 298.501054 204.118718 298.501054, 202.02271 299.733462 202.02271 299.733462, 199.92594 300.966632 199.92594 300.966632, 197.82917 302.200056 197.82917 302.200056, 195.733162 303.433226 195.733162 303.433226, 188.21019 303.433226 188.21019 303.433226, 180.688234 303.433226 180.688234 303.433226, 173.166278 303.433226 173.166278 303.433226, 165.64356 303.433226 165.64356 303.433226, 163.547552 302.200056 163.547552 302.200056, 161.450782 300.966632 161.450782 300.966632, 159.354774 299.733462 159.354774 299.733462, 157.258004 298.501054 157.258004 298.501054, 144.67967 298.501054 144.67967 298.501054, 132.101336 298.501054 132.101336 298.501054, 119.523764 298.501054 119.523764 298.501054, 106.944668 298.501054 106.944668 298.501054, 106.08183 299.733462 106.08183 299.733462, 105.218484 300.966632 105.218484 300.966632, 104.355646 302.200056 104.355646 302.200056, 103.492046 303.433226 103.492046 303.433226, 100.286058 303.433226 100.286058 303.433226, 97.079308 303.433226 97.079308 303.433226, 93.87332 303.433226 93.87332 303.433226, 90.667332 303.433226 90.667332 303.433226, 90.173556 302.69307 90.173556 302.69307, 89.680542 301.953422 89.680542 301.953422, 89.187528 301.214028 89.187528 301.214028, 88.693752 300.473618 88.693752 300.473618, 84.524342 300.473618 84.524342 300.473618, 74.944224 300.473618 74.944224 300.473618, 64.346582 300.473618 64.346582 300.473618, 57.124346 300.473618 57.124346 300.473618, 52.831746 297.54449 52.831746 297.54449, 48.677576 291.101526 48.677576 291.101526, 45.540676 284.658308 45.540676 284.658308, 44.299632 281.72918 44.299632 281.72918, 44.299632 212.795358 44.299632 212.795358, 44.299632 143.860774 44.299632 143.860774, 44.299632 74.926952 44.299632 74.926952, 44.299632 5.99313 44.299632 5.99313, 45.656246 5.129784 45.656246 5.129784, 47.012606 4.266184 47.012606 4.266184, 48.36922 3.403346 48.36922 3.403346, 49.72558 2.54 49.72558 2.54, 69.086476 2.54 69.086476 2.54, 88.447372 2.54 88.447372 2.54, 107.808268 2.54 107.808268 2.54, 127.169164 2.54 127.169164 2.54, 153.928572 2.54 153.928572 2.54, 180.688234 2.54 180.688234 2.54, 207.447896 2.54 207.447896 2.54, 234.20832 2.54 234.20832 2.54, 234.20832 2.54"/>
      </g>
      <g>
        <polyline style="fill: transparent;stroke: black;stroke-width: 1;" points="44.299632 258.546092, 112.49406 258.546092 112.49406 258.546092, 180.688234 258.546092 180.688234 258.546092, 248.882662 258.546092 248.882662 258.546092, 317.076836 258.546092"/>
      </g>
      <g>
        <polyline style="fill: transparent;stroke: black;stroke-width: 1;" points="44.299632 31.642812, 112.49406 31.642812 112.49406 31.642812, 180.688234 31.642812 180.688234 31.642812, 248.882662 31.642812 248.882662 31.642812, 317.076836 31.642812"/>
      </g>
      <g>
        <polyline style="fill: transparent;stroke: black;stroke-width: 1;" points="44.299632 281.72918, 112.49406 281.72918 112.49406 281.72918, 180.688234 281.72918 180.688234 281.72918, 248.882662 281.72918 248.882662 281.72918, 317.076836 281.72918"/>
      </g>
      <g>
        <polyline style="fill: gray;stroke: black;stroke-width: 1;" points="200.666096 281.72918, 190.92418 281.72918 190.92418 281.72918, 181.18201 281.72918 181.18201 281.72918, 171.440094 281.72918 171.440094 281.72918, 161.697924 281.72918 161.697924 281.72918, 161.697924 277.536402 161.697924 277.536402, 161.697924 273.343624 161.697924 273.343624, 161.697924 269.151608 161.697924 269.151608, 161.697924 264.958068 161.697924 264.958068, 171.440094 264.958068 171.440094 264.958068, 181.18201 264.958068 181.18201 264.958068, 190.92418 264.958068 190.92418 264.958068, 200.666096 264.958068 200.666096 264.958068, 200.666096 269.151608 200.666096 269.151608, 200.666096 273.343624 200.666096 273.343624, 200.666096 277.536402 200.666096 277.536402, 200.666096 281.72918 200.666096 281.72918, 200.666096 281.72918"/>
      </g>
    </g>
  </g>
</svg>
