<?xml version="1.0" encoding="utf-8"?>
<!-- Generator: www.crescit.com, SVG Export - SVG Version: 6.00 Build 1  -->
<!-- FXGUID: [182DA7D6-B79A-11EA-B13D-525400685065] SYMID: [13613]  -->
<svg xmlns="http://www.w3.org/2000/svg" version="1.1" ch_offset="0" color_bar_width="66" width="442.20384" height="523.90802" origin_x="214.557864" origin_y="259.69468" ch_offset_x="214.3081312" ch_offset_y="40" color_offset_x="214.557864" color_offset_y="-4">
  <g>
    <title>Layer 1</title>
    <g>
      <g>
        <polyline style="fill: gray;stroke: black;stroke-width: 1;" points="371.34546 132.122926, 60.698634 132.122926 60.698634 132.122926, 43.750738 161.007298 43.750738 161.007298, 27.172666 198.049896 27.172666 198.049896, 20.232878 231.937814 20.232878 231.937814, 20.232878 281.810714 20.232878 281.810714, 26.5557 313.909456 26.5557 313.909456, 44.822872 354.751386 44.822872 354.751386, 60.698634 381.625602 60.698634 381.625602, 371.34546 381.625602 371.34546 381.625602, 389.498586 350.446086 389.498586 350.446086, 405.165814 314.853574 405.165814 314.853574, 411.811216 281.810714 411.811216 281.810714, 411.811216 231.937814 411.811216 231.937814, 404.65883 197.447662 404.65883 197.447662, 389.073898 162.489388 389.073898 162.489388, 371.34546 132.122926 371.34546 132.122926, 371.34546 132.122926"/>
      </g>
      <g>
        <polyline style="fill: gray;stroke: black;stroke-width: 1;" points="71.524876 349.424498, 45.950632 311.166256 45.950632 311.166256, 37.128704 280.634186 37.128704 280.634186, 37.128704 233.114596 37.128704 233.114596, 47.209456 200.11644 47.209456 200.11644, 71.524876 164.32403 71.524876 164.32403, 71.524876 349.424498 71.524876 349.424498, 71.524876 349.424498"/>
      </g>
      <g>
        <polyline style="fill: gray;stroke: black;stroke-width: 1;" points="394.91539 280.634186, 386.094224 311.166256 386.094224 311.166256, 360.519726 349.424498 360.519726 349.424498, 360.519726 164.32403 360.519726 164.32403, 384.032252 198.604124 384.032252 198.604124, 394.91539 233.114596 394.91539 233.114596, 394.91539 280.634186 394.91539 280.634186, 394.91539 280.634186"/>
      </g>
      <g>
        <polyline style="fill: gray;stroke: black;stroke-width: 1;" points="424.155362 205.75016, 407.72842 202.582272 407.72842 202.582272, 24.31542 202.582272 24.31542 202.582272, 7.888478 205.75016 7.888478 205.75016, 2.54 214.722456 2.54 214.722456, 2.54 299.026072 2.54 299.026072, 7.080758 307.487574 7.080758 307.487574, 24.31542 311.165494 24.31542 311.165494, 407.72842 311.165494 407.72842 311.165494, 424.963082 307.487574 424.963082 307.487574, 429.50384 299.026072 429.50384 299.026072, 429.50384 214.722456 429.50384 214.722456, 424.155362 205.75016"/>
      </g>
      <g>
        <polyline style="fill: gray;stroke: black;stroke-width: 1;" points="367.403888 311.165494, 407.72842 311.165494 407.72842 311.165494, 424.963082 307.487574 424.963082 307.487574, 429.50384 299.026072 429.50384 299.026072, 429.50384 214.722456 429.50384 214.722456, 424.155362 205.75016 424.155362 205.75016, 407.72842 202.582272 407.72842 202.582272, 367.403888 202.582272 367.403888 202.582272, 367.403888 311.165494 367.403888 311.165494, 367.403888 311.165494"/>
      </g>
      <g>
        <polyline style="fill: gray;stroke: black;stroke-width: 1;" points="367.403888 287.560766, 356.918514 287.560766 356.918514 287.560766, 356.918514 226.187762 356.918514 226.187762, 367.403888 226.187762 367.403888 226.187762, 367.403888 287.560766 367.403888 287.560766, 367.403888 287.560766"/>
      </g>
      <g>
        <polyline style="fill: gray;stroke: black;stroke-width: 1;" points="64.640968 311.165494, 24.31542 311.165494 24.31542 311.165494, 7.080758 307.487574 7.080758 307.487574, 2.54 299.026072 2.54 299.026072, 2.54 214.722456 2.54 214.722456, 7.888478 205.75016 7.888478 205.75016, 24.31542 202.582272 24.31542 202.582272, 64.640968 202.582272 64.640968 202.582272, 64.640968 311.165494 64.640968 311.165494, 64.640968 311.165494"/>
      </g>
      <g>
        <polyline style="fill: gray;stroke: black;stroke-width: 1;" points="64.640968 287.560766, 75.12558 287.560766 75.12558 287.560766, 75.12558 226.187762 75.12558 226.187762, 64.640968 226.187762 64.640968 226.187762, 64.640968 287.560766 64.640968 287.560766, 64.640968 287.560766"/>
      </g>
      <g>
        <polyline style="fill: gray;stroke: black;stroke-width: 1;" points="313.755278 2.54, 118.288816 2.54 118.288816 2.54, 106.757724 45.498004 106.757724 45.498004, 87.00389 129.113026 87.00389 129.113026, 75.12558 212.288628 75.12558 212.288628, 75.12558 465.200238 75.12558 465.200238, 99.818698 488.734608 99.818698 488.734608, 114.916966 493.526572 114.916966 493.526572, 119.761508 499.05412 119.761508 499.05412, 119.761508 511.207512 119.761508 511.207512, 130.213608 511.207512 130.213608 511.207512, 130.213608 502.930668 130.213608 502.930668, 139.991338 504.15063 139.991338 504.15063, 139.991338 511.207512 139.991338 511.207512, 150.443438 511.207512 150.443438 511.207512, 150.443438 504.317254 150.443438 504.317254, 160.221168 504.317254 160.221168 504.317254, 160.221168 511.207512 160.221168 511.207512, 170.673268 511.207512 170.673268 511.207512, 170.673268 504.317254 170.673268 504.317254, 180.450998 504.317254 180.450998 504.317254, 180.450998 511.207512 180.450998 511.207512, 190.903098 511.207512 190.903098 511.207512, 190.903098 504.317254 190.903098 504.317254, 200.680574 504.317254 200.680574 504.317254, 200.680574 511.207512 200.680574 511.207512, 211.132674 511.207512 211.132674 511.207512, 211.132674 504.317254 211.132674 504.317254, 220.910404 504.317254 220.910404 504.317254, 220.910404 511.207512 220.910404 511.207512, 231.363266 511.207512 231.363266 511.207512, 231.363266 504.317254 231.363266 504.317254, 241.140996 504.317254 241.140996 504.317254, 241.140996 511.207512 241.140996 511.207512, 251.593096 511.207512 251.593096 511.207512, 251.593096 504.317254 251.593096 504.317254, 261.370826 504.317254 261.370826 504.317254, 261.370826 511.207512 261.370826 511.207512, 271.822926 511.207512 271.822926 511.207512, 271.822926 504.317254 271.822926 504.317254, 281.600656 504.317254 281.600656 504.317254, 281.600656 511.207512 281.600656 511.207512, 292.052756 511.207512 292.052756 511.207512, 292.052756 504.15063 292.052756 504.15063, 301.830232 502.930668 301.830232 502.930668, 301.830232 511.207512 301.830232 511.207512, 312.282332 511.207512 312.282332 511.207512, 312.282332 499.05412 312.282332 499.05412, 317.127128 493.526572 317.127128 493.526572, 330.710032 489.593382 330.710032 489.593382, 356.918514 465.200238 356.918514 465.200238, 356.918514 212.288628 356.918514 212.288628, 344.736166 127.661162 344.736166 127.661162, 325.552054 46.531276 325.552054 46.531276, 313.755278 2.54 313.755278 2.54, 313.755278 2.54"/>
      </g>
      <g>
        <polyline style="fill: gray;stroke: black;stroke-width: 1;" points="130.213608 511.207512, 119.761508 511.207512 119.761508 511.207512, 119.761508 388.40664 119.761508 388.40664, 130.213608 377.28017 130.213608 377.28017, 130.213608 511.207512 130.213608 511.207512, 130.213608 511.207512"/>
      </g>
      <g>
        <polyline style="fill: gray;stroke: black;stroke-width: 1;" points="150.443438 511.207512, 139.991338 511.207512 139.991338 511.207512, 139.991338 377.28017 139.991338 377.28017, 150.443438 377.28017 150.443438 377.28017, 150.443438 511.207512 150.443438 511.207512, 150.443438 511.207512"/>
      </g>
      <g>
        <polyline style="fill: gray;stroke: black;stroke-width: 1;" points="170.673268 511.207512, 160.221168 511.207512 160.221168 511.207512, 160.221168 377.28017 160.221168 377.28017, 170.673268 377.28017 170.673268 377.28017, 170.673268 511.207512 170.673268 511.207512, 170.673268 511.207512"/>
      </g>
      <g>
        <polyline style="fill: gray;stroke: black;stroke-width: 1;" points="190.903098 511.207512, 180.450998 511.207512 180.450998 511.207512, 180.450998 377.28017 180.450998 377.28017, 190.903098 377.28017 190.903098 377.28017, 190.903098 511.207512 190.903098 511.207512, 190.903098 511.207512"/>
      </g>
      <g>
        <polyline style="fill: gray;stroke: black;stroke-width: 1;" points="211.132674 511.207512, 200.680574 511.207512 200.680574 511.207512, 200.680574 377.28017 200.680574 377.28017, 211.132674 377.28017 211.132674 377.28017, 211.132674 511.207512 211.132674 511.207512, 211.132674 511.207512"/>
      </g>
      <g>
        <polyline style="fill: gray;stroke: black;stroke-width: 1;" points="231.363266 511.207512, 220.910404 511.207512 220.910404 511.207512, 220.910404 377.28017 220.910404 377.28017, 231.363266 377.28017 231.363266 377.28017, 231.363266 511.207512 231.363266 511.207512, 231.363266 511.207512"/>
      </g>
      <g>
        <polyline style="fill: gray;stroke: black;stroke-width: 1;" points="251.593096 511.207512, 241.140996 511.207512 241.140996 511.207512, 241.140996 377.28017 241.140996 377.28017, 251.593096 377.28017 251.593096 377.28017, 251.593096 511.207512 251.593096 511.207512, 251.593096 511.207512"/>
      </g>
      <g>
        <polyline style="fill: gray;stroke: black;stroke-width: 1;" points="271.822926 511.207512, 261.370826 511.207512 261.370826 511.207512, 261.370826 377.28017 261.370826 377.28017, 271.822926 377.28017 271.822926 377.28017, 271.822926 511.207512 271.822926 511.207512, 271.822926 511.207512"/>
      </g>
      <g>
        <polyline style="fill: gray;stroke: black;stroke-width: 1;" points="292.052756 511.207512, 281.600656 511.207512 281.600656 511.207512, 281.600656 377.28017 281.600656 377.28017, 292.052756 377.28017 292.052756 377.28017, 292.052756 511.207512 292.052756 511.207512, 292.052756 511.207512"/>
      </g>
      <g>
        <polyline style="fill: gray;stroke: black;stroke-width: 1;" points="312.282332 511.207512, 301.830232 511.207512 301.830232 511.207512, 301.830232 377.28017 301.830232 377.28017, 312.282332 388.40664 312.282332 388.40664, 312.282332 511.207512 312.282332 511.207512, 312.282332 511.207512"/>
      </g>
      <g>
        <line x1="107.376468" y1="38.147752" x2="323.397372" y2="38.147752" style="stroke-width: 1;stroke: black;"/>
      </g>
    </g>
  </g>
</svg>
