<?xml version="1.0" encoding="utf-8"?>
<!-- Generator: SVG Export - SVG Version: 6.00 Build 1  -->
<!-- FXGUID: [89289B34-53A7-11E6-BF2E-F0761CCEA3DE] SYMID: [14207]  -->
<svg xmlns="http://www.w3.org/2000/svg" version="1.1" ch_offset="0" color_bar_width="66" width="392.228578" height="202.818238" origin_x="193.059304" origin_y="99.751896" ch_offset_x="193.7319976" ch_offset_y="40" color_offset_x="193.059304" color_offset_y="-4">
  <g>
    <title>Layer 1</title>
    <g>
      <g>
        <polyline style="fill: gray;stroke: black;stroke-width: 1;" points="379.528578 80.084676, 368.050826 80.084676 368.050826 80.084676, 368.050826 89.797382 368.050826 89.797382, 368.050826 95.882968 368.050826 95.882968, 363.215682 95.882968 363.215682 95.882968, 363.215682 86.129368 363.215682 86.129368, 359.546906 86.129368 359.546906 86.129368, 359.546906 74.290428 359.546906 74.290428, 343.374218 74.290428 343.374218 74.290428, 343.374218 80.37703 343.374218 80.37703, 340.039452 80.37703 340.039452 80.37703, 340.039452 123.728734 340.039452 123.728734, 343.374218 123.728734 343.374218 123.728734, 343.374218 129.81432 343.374218 129.81432, 359.546906 129.81432 359.546906 129.81432, 359.546906 117.97538 359.546906 117.97538, 363.215682 117.97538 363.215682 117.97538, 363.215682 108.22178 363.215682 108.22178, 368.050826 108.22178 368.050826 108.22178, 368.050826 114.30762 368.050826 114.30762, 368.050826 124.020834 368.050826 124.020834, 379.528578 124.020834 379.528578 124.020834, 379.528578 80.084676"/>
      </g>
      <g>
        <polyline style="fill: gray;stroke: black;stroke-width: 1;" points="2.54 80.084676, 14.017498 80.084676 14.017498 80.084676, 14.017498 89.797382 14.017498 89.797382, 14.017498 95.882968 14.017498 95.882968, 18.852896 95.882968 18.852896 95.882968, 18.852896 86.129368 18.852896 86.129368, 22.521672 86.129368 22.521672 86.129368, 22.521672 74.290428 22.521672 74.290428, 38.69436 74.290428 38.69436 74.290428, 38.69436 80.37703 38.69436 80.37703, 42.028872 80.37703 42.028872 80.37703, 42.028872 123.728734 42.028872 123.728734, 38.69436 123.728734 38.69436 123.728734, 38.69436 129.81432 38.69436 129.81432, 22.521672 129.81432 22.521672 129.81432, 22.521672 117.97538 22.521672 117.97538, 18.852896 117.97538 18.852896 117.97538, 18.852896 108.22178 18.852896 108.22178, 14.017498 108.22178 14.017498 108.22178, 14.017498 114.30762 14.017498 114.30762, 14.017498 124.020834 14.017498 124.020834, 2.54 124.020834 2.54 124.020834, 2.54 80.084676"/>
      </g>
      <g>
        <polyline style="fill: gray;stroke: black;stroke-width: 1;" points="357.310436 129.900426, 22.521672 129.900426 22.521672 129.900426, 22.521672 74.290428 22.521672 74.290428, 357.310436 74.290428 357.310436 74.290428, 357.310436 129.900426"/>
      </g>
      <g>
        <polyline style="fill: gray;stroke: black;stroke-width: 1;" points="306.332128 2.54, 318.594994 15.646908 318.594994 15.646908, 325.644256 26.30678 325.644256 26.30678, 329.60437 34.100008 329.60437 34.100008, 334.005682 46.121066 334.005682 46.121066, 336.53349 58.12409 336.53349 58.12409, 337.345782 70.06844 337.345782 70.06844, 339.846412 70.06844 339.846412 70.06844, 339.846412 123.590558 339.846412 123.590558, 332.34376 123.590558 332.34376 123.590558, 323.839586 153.102818 323.839586 153.102818, 265.315446 153.102818 265.315446 153.102818, 265.315446 190.118492 265.315446 190.118492, 116.753132 190.118492 116.753132 190.118492, 116.753132 153.102818 116.753132 153.102818, 58.228738 153.102818 58.228738 153.102818, 49.725326 123.590558 49.725326 123.590558, 42.221912 123.590558 42.221912 123.590558, 42.221912 70.06844 42.221912 70.06844, 44.723304 70.06844 44.723304 70.06844, 45.500036 58.386218 45.500036 58.386218, 48.06188 46.124876 48.06188 46.124876, 52.46243 34.103056 52.46243 34.103056, 56.72328 25.785064 56.72328 25.785064, 63.26632 15.918942 63.26632 15.918942, 75.736196 2.54 75.736196 2.54, 306.332128 2.54 306.332128 2.54, 306.332128 2.54"/>
      </g>
      <g>
        <polyline style="fill: gray;stroke: black;stroke-width: 1;" points="127.191262 190.118492, 116.628164 190.118492 116.628164 190.118492, 116.628164 93.077792 116.628164 93.077792, 127.191262 93.077792 127.191262 93.077792, 127.191262 190.118492 127.191262 190.118492, 127.191262 190.118492"/>
      </g>
      <g>
        <polyline style="fill: gray;stroke: black;stroke-width: 1;" points="150.316184 190.118492, 139.753086 190.118492 139.753086 190.118492, 139.753086 93.077792 139.753086 93.077792, 150.316184 93.077792 150.316184 93.077792, 150.316184 190.118492 150.316184 190.118492, 150.316184 190.118492"/>
      </g>
      <g>
        <polyline style="fill: gray;stroke: black;stroke-width: 1;" points="173.441106 190.118492, 162.878262 190.118492 162.878262 190.118492, 162.878262 93.077792 162.878262 93.077792, 173.441106 93.077792 173.441106 93.077792, 173.441106 190.118492 173.441106 190.118492, 173.441106 190.118492"/>
      </g>
      <g>
        <polyline style="fill: gray;stroke: black;stroke-width: 1;" points="197.8025 190.118492, 187.503816 190.118492 187.503816 190.118492, 187.503816 93.077792 187.503816 93.077792, 197.8025 93.077792 197.8025 93.077792, 197.8025 190.118492 197.8025 190.118492, 197.8025 190.118492"/>
      </g>
      <g>
        <polyline style="fill: gray;stroke: black;stroke-width: 1;" points="220.348302 190.118492, 210.049618 190.118492 210.049618 190.118492, 210.049618 93.077792 210.049618 93.077792, 220.348302 93.077792 220.348302 93.077792, 220.348302 190.118492 220.348302 190.118492, 220.348302 190.118492"/>
      </g>
      <g>
        <polyline style="fill: gray;stroke: black;stroke-width: 1;" points="242.894104 190.118492, 232.595674 190.118492 232.595674 190.118492, 232.595674 93.077792 232.595674 93.077792, 242.894104 93.077792 242.894104 93.077792, 242.894104 190.118492 242.894104 190.118492, 242.894104 190.118492"/>
      </g>
      <g>
        <polyline style="fill: gray;stroke: black;stroke-width: 1;" points="265.44016 190.118492, 255.141476 190.118492 255.141476 190.118492, 255.141476 93.077792 255.141476 93.077792, 265.44016 93.077792 265.44016 93.077792, 265.44016 190.118492 265.44016 190.118492, 265.44016 190.118492"/>
      </g>
      <g>
        <polyline style="fill: gray;stroke: black;stroke-width: 1;" points="62.980316 139.847066, 58.479182 116.337588 58.479182 116.337588, 57.478422 93.077792 57.478422 93.077792, 49.975008 93.077792 49.975008 93.077792, 51.404266 107.804712 51.404266 107.804712, 55.112666 123.378214 55.112666 123.378214, 62.980316 139.847066 62.980316 139.847066, 62.980316 139.847066"/>
      </g>
      <g>
        <polyline style="fill: gray;stroke: black;stroke-width: 1;" points="319.088008 139.847066, 323.590158 116.337588 323.590158 116.337588, 324.589902 93.077792 324.589902 93.077792, 332.093316 93.077792 332.093316 93.077792, 330.664058 107.804712 330.664058 107.804712, 326.95642 123.378214 326.95642 123.378214, 319.088008 139.847066 319.088008 139.847066, 319.088008 139.847066"/>
      </g>
      <g>
        <line x1="44.395898" y1="69.674232" x2="337.018376" y2="69.674232" style="stroke-width: 1;stroke: black;"/>
      </g>
    </g>
  </g>
</svg>
