<?xml version="1.0" encoding="utf-8"?>
<!-- Generator: SVG Export - SVG Version: 6.00 Build 1  -->
<!-- FXGUID: [13C5B9FA-81E0-11ED-B8DB-525400685065] SYMID: [18475]  -->
<svg xmlns="http://www.w3.org/2000/svg" version="1.1" ch_offset="0" color_bar_width="66" width="289.240214" height="265.592814" origin_x="139.218416" origin_y="130.800856" ch_offset_x="142.106396" ch_offset_y="40" color_offset_x="139.218416" color_offset_y="-4">
  <g>
    <title>Layer 1</title>
    <g>
      <g>
        <polyline style="fill: gray;stroke: black;stroke-width: 1;" points="264.721594 98.627438, 264.721594 114.754914 264.721594 114.754914, 264.721594 130.883406 264.721594 130.883406, 264.721594 147.011136 264.721594 147.011136, 264.721594 163.138866 264.721594 163.138866, 266.720828 163.138866 266.720828 163.138866, 268.719046 163.138866 268.719046 163.138866, 270.71828 163.138866 270.71828 163.138866, 272.71726 163.138866 272.71726 163.138866, 273.31416 159.850074 273.31416 159.850074, 274.628864 151.69388 274.628864 151.69388, 275.942552 141.236446 275.942552 141.236446, 276.540214 131.04241 276.540214 131.04241, 275.843492 120.756934 275.843492 120.756934, 274.310094 110.09884 274.310094 110.09884, 272.77695 101.74097 272.77695 101.74097, 272.080228 98.360738 272.080228 98.360738, 270.24076 98.427286 270.24076 98.427286, 268.401292 98.494088 268.401292 98.494088, 266.561062 98.560636 266.561062 98.560636, 264.721594 98.627438 264.721594 98.627438, 264.721594 98.627438"/>
      </g>
      <g>
        <polyline style="fill: gray;stroke: black;stroke-width: 1;" points="14.652498 121.31675, 18.159984 121.31675 18.159984 121.31675, 21.66747 121.31675 21.66747 121.31675, 25.174956 121.31675 25.174956 121.31675, 28.682442 121.31675 28.682442 121.31675, 28.682442 126.031752 28.682442 126.031752, 28.682442 130.746246 28.682442 130.746246, 28.682442 135.461502 28.682442 135.461502, 28.682442 140.175996 28.682442 140.175996, 25.174956 140.175996 25.174956 140.175996, 21.66747 140.175996 21.66747 140.175996, 18.159984 140.175996 18.159984 140.175996, 14.652498 140.175996 14.652498 140.175996, 14.652498 135.461502 14.652498 135.461502, 14.652498 130.746246 14.652498 130.746246, 14.652498 126.031752 14.652498 126.031752, 14.652498 121.31675 14.652498 121.31675, 14.652498 121.31675"/>
      </g>
      <g>
        <polyline style="fill: gray;stroke: black;stroke-width: 1;" points="14.35862 98.627438, 14.35862 114.754914 14.35862 114.754914, 14.35862 130.883406 14.35862 130.883406, 14.35862 147.011136 14.35862 147.011136, 14.35862 163.138866 14.35862 163.138866, 12.359386 163.138866 12.359386 163.138866, 10.361168 163.138866 10.361168 163.138866, 8.362188 163.138866 8.362188 163.138866, 6.362954 163.138866 6.362954 163.138866, 5.765292 159.850074 5.765292 159.850074, 4.45135 151.69388 4.45135 151.69388, 3.137662 141.236446 3.137662 141.236446, 2.54 131.04241 2.54 131.04241, 3.236722 120.756934 3.236722 120.756934, 4.77012 110.09884 4.77012 110.09884, 6.302502 101.74097 6.302502 101.74097, 6.999478 98.360738 6.999478 98.360738, 8.839454 98.427286 8.839454 98.427286, 10.678922 98.494088 10.678922 98.494088, 12.519152 98.560636 12.519152 98.560636, 14.35862 98.627438 14.35862 98.627438, 14.35862 98.627438"/>
      </g>
      <g>
        <polyline style="fill: gray;stroke: black;stroke-width: 1;" points="28.682442 121.31675, 84.11083 121.31675 84.11083 121.31675, 139.540234 121.31675 139.540234 121.31675, 194.968622 121.31675 194.968622 121.31675, 250.397772 121.31675 250.397772 121.31675, 250.397772 126.031752 250.397772 126.031752, 250.397772 130.746246 250.397772 130.746246, 250.397772 135.461502 250.397772 135.461502, 250.397772 140.175996 250.397772 140.175996, 194.968622 140.175996 194.968622 140.175996, 139.540234 140.175996 139.540234 140.175996, 84.11083 140.175996 84.11083 140.175996, 28.682442 140.175996 28.682442 140.175996, 28.682442 135.461502 28.682442 135.461502, 28.682442 130.746246 28.682442 130.746246, 28.682442 126.031752 28.682442 126.031752, 28.682442 121.31675 28.682442 121.31675, 28.682442 121.31675"/>
      </g>
      <g>
        <polyline style="fill: gray;stroke: black;stroke-width: 1;" points="264.427208 121.31675, 260.919468 121.31675 260.919468 121.31675, 257.412744 121.31675 257.412744 121.31675, 253.905258 121.31675 253.905258 121.31675, 250.397772 121.31675 250.397772 121.31675, 250.397772 126.031752 250.397772 126.031752, 250.397772 130.746246 250.397772 130.746246, 250.397772 135.461502 250.397772 135.461502, 250.397772 140.175996 250.397772 140.175996, 253.905258 140.175996 253.905258 140.175996, 257.412744 140.175996 257.412744 140.175996, 260.919468 140.175996 260.919468 140.175996, 264.427208 140.175996 264.427208 140.175996, 264.427208 135.461502 264.427208 135.461502, 264.427208 130.746246 264.427208 130.746246, 264.427208 126.031752 264.427208 126.031752, 264.427208 121.31675 264.427208 121.31675, 264.427208 121.31675"/>
      </g>
      <g>
        <polyline style="fill: transparent;stroke: black;stroke-width: 1;" points="239.87633 150.489158, 242.586256 150.489158 242.586256 150.489158, 245.296182 150.489158 245.296182 150.489158, 248.006108 150.489158 248.006108 150.489158, 250.716034 150.489158 250.716034 150.489158, 250.716034 140.365734 250.716034 140.365734, 250.716034 130.24231 250.716034 130.24231, 250.716034 120.118886 250.716034 120.118886, 250.716034 109.995462 250.716034 109.995462, 249.055636 109.995462 249.055636 109.995462, 247.393714 109.995462 247.393714 109.995462, 245.733316 109.995462 245.733316 109.995462, 244.073172 109.995462"/>
      </g>
      <g>
        <polyline style="fill: transparent;stroke: black;stroke-width: 1;" points="39.8399 150.489158, 37.129974 150.489158 37.129974 150.489158, 34.420048 150.489158 34.420048 150.489158, 31.710122 150.489158 31.710122 150.489158, 29.000196 150.489158 29.000196 150.489158, 29.000196 140.365734 29.000196 140.365734, 29.000196 130.24231 29.000196 130.24231, 29.000196 120.118886 29.000196 120.118886, 29.000196 109.995462 29.000196 109.995462, 30.661356 109.995462 30.661356 109.995462, 32.321754 109.995462 32.321754 109.995462, 33.982914 109.995462 33.982914 109.995462, 35.643058 109.995462"/>
      </g>
      <g>
        <polyline style="fill: gray;stroke: black;stroke-width: 1;" points="123.702826 252.893068, 105.52811 252.893068 105.52811 252.893068, 87.352378 252.893068 87.352378 252.893068, 69.176646 252.893068 69.176646 252.893068, 51.00193 252.893068 51.00193 252.893068, 51.00193 250.090178 51.00193 250.090178, 51.00193 247.28805 51.00193 247.28805, 51.00193 244.485922 51.00193 244.485922, 51.00193 241.682778 51.00193 241.682778, 50.842164 236.740446 50.842164 236.740446, 50.683414 231.798114 50.683414 231.798114, 50.52441 226.855782 50.52441 226.855782, 50.364644 221.91345 50.364644 221.91345, 47.654718 204.217778 47.654718 204.217778, 44.944792 186.52109 44.944792 186.52109, 42.23512 168.825418 42.23512 168.825418, 39.525194 151.129492 39.525194 151.129492, 38.408864 140.288264 38.408864 140.288264, 37.291772 129.447036 37.291772 129.447036, 36.174934 118.605046 36.174934 118.605046, 35.058604 107.763818 35.058604 107.763818, 35.058604 100.748846 35.058604 100.748846, 35.058604 93.734636 35.058604 93.734636, 35.058604 86.71941 35.058604 86.71941, 35.058604 79.7052 35.058604 79.7052, 34.899854 79.226156 34.899854 79.226156, 34.740088 78.747874 34.740088 78.747874, 34.581084 78.269592 34.581084 78.269592, 34.422334 77.79131 34.422334 77.79131, 34.900616 60.572904 34.900616 60.572904, 35.378898 43.35399 35.378898 43.35399, 35.85718 26.135584 35.85718 26.135584, 36.335462 8.917178 36.335462 8.917178, 37.291772 7.32282 37.291772 7.32282, 38.248336 5.72897 38.248336 5.72897, 39.2049 4.134612 39.2049 4.134612, 40.162226 2.54 40.162226 2.54, 42.39387 2.54 42.39387 2.54, 44.624752 2.54 44.624752 2.54, 46.856396 2.54 46.856396 2.54, 49.08804 2.54 49.08804 2.54, 49.08804 3.497326 49.08804 3.497326, 49.08804 4.45389 49.08804 4.45389, 49.08804 5.410454 49.08804 5.410454, 49.08804 6.367018 49.08804 6.367018, 47.494444 6.367018 47.494444 6.367018, 45.899832 6.367018 45.899832 6.367018, 44.306236 6.367018 44.306236 6.367018, 42.711624 6.367018 42.711624 6.367018, 42.711624 7.960614 42.711624 7.960614, 42.711624 9.555226 42.711624 9.555226, 42.711624 11.149584 42.711624 11.149584, 42.711624 12.743434 42.711624 12.743434, 43.588432 12.265152 43.588432 12.265152, 44.466002 11.78687 44.466002 11.78687, 45.343318 11.308588 45.343318 11.308588, 46.220126 10.830306 46.220126 10.830306, 65.112646 10.830306 65.112646 10.830306, 84.004658 10.830306 84.004658 10.830306, 102.897178 10.830306 102.897178 10.830306, 121.78919 10.830306 121.78919 10.830306, 121.78919 8.757666 121.78919 8.757666, 121.78919 6.685534 121.78919 6.685534, 121.78919 4.612894 121.78919 4.612894, 121.78919 2.54 121.78919 2.54, 125.929136 2.54 125.929136 2.54, 130.06832 2.54 130.06832 2.54, 134.20852 2.54 134.20852 2.54, 138.347704 2.54 138.347704 2.54, 138.864848 2.54 138.864848 2.54, 139.380976 2.54 139.380976 2.54, 139.897358 2.54 139.897358 2.54, 140.413486 2.54 140.413486 2.54, 144.552924 2.54 144.552924 2.54, 148.69287 2.54 148.69287 2.54, 152.832054 2.54 152.832054 2.54, 156.972254 2.54 156.972254 2.54, 156.972254 4.612894 156.972254 4.612894, 156.972254 6.685534 156.972254 6.685534, 156.972254 8.757666 156.972254 8.757666, 156.972254 10.830306 156.972254 10.830306, 175.864774 10.830306 175.864774 10.830306, 194.757548 10.830306 194.757548 10.830306, 213.649306 10.830306 213.649306 10.830306, 232.54208 10.830306 232.54208 10.830306, 233.418634 11.308588 233.418634 11.308588, 234.296204 11.78687 234.296204 11.78687, 235.172758 12.265152 235.172758 12.265152, 236.050328 12.743434 236.050328 12.743434, 236.050328 11.149584 236.050328 11.149584, 236.050328 9.555226 236.050328 9.555226, 236.050328 7.960614 236.050328 7.960614, 236.050328 6.367018 236.050328 6.367018, 234.455716 6.367018 234.455716 6.367018, 232.861358 6.367018 232.861358 6.367018, 231.267762 6.367018 231.267762 6.367018, 229.67315 6.367018 229.67315 6.367018, 229.67315 5.410454 229.67315 5.410454, 229.67315 4.45389 229.67315 4.45389, 229.67315 3.497326 229.67315 3.497326, 229.67315 2.54 229.67315 2.54, 231.904794 2.54 231.904794 2.54, 234.136438 2.54 234.136438 2.54, 236.368082 2.54 236.368082 2.54, 238.599726 2.54 238.599726 2.54, 239.55629 4.134612 239.55629 4.134612, 240.512854 5.72897 240.512854 5.72897, 241.47018 7.32282 241.47018 7.32282, 242.426744 8.917178 242.426744 8.917178, 242.904264 26.135584 242.904264 26.135584, 243.382546 43.35399 243.382546 43.35399, 243.861336 60.572904 243.861336 60.572904, 244.339618 77.79131 244.339618 77.79131, 244.180868 78.269592 244.180868 78.269592, 244.021102 78.747874 244.021102 78.747874, 243.862352 79.226156 243.862352 79.226156, 243.703348 79.7052 243.703348 79.7052, 243.703348 86.71941 243.703348 86.71941, 243.703348 93.734636 243.703348 93.734636, 243.703348 100.748846 243.703348 100.748846, 243.703348 107.763818 243.703348 107.763818, 242.586256 118.605046 242.586256 118.605046, 241.47018 129.447036 241.47018 129.447036, 240.353088 140.288264 240.353088 140.288264, 239.23625 151.129492 239.23625 151.129492, 236.526324 168.825418 236.526324 168.825418, 233.816398 186.52109 233.816398 186.52109, 231.106472 204.217778 231.106472 204.217778, 228.396546 221.91345 228.396546 221.91345, 228.237542 226.855782 228.237542 226.855782, 228.07803 231.798114 228.07803 231.798114, 227.919026 236.740446 227.919026 236.740446, 227.760022 241.682778 227.760022 241.682778, 227.760022 244.485922 227.760022 244.485922, 227.760022 247.28805 227.760022 247.28805, 227.760022 250.090178 227.760022 250.090178, 227.760022 252.893068 227.760022 252.893068, 209.585306 252.893068 209.585306 252.893068, 191.409574 252.893068 191.409574 252.893068, 173.234096 252.893068 173.234096 252.893068, 155.059126 252.893068 155.059126 252.893068, 147.220178 252.893068 147.220178 252.893068, 139.380976 252.893068 139.380976 252.893068, 131.542028 252.893068 131.542028 252.893068, 123.702826 252.893068 123.702826 252.893068, 123.702826 252.893068"/>
      </g>
      <g>
        <polyline style="fill: transparent;stroke: black;stroke-width: 1;" points="244.073172 68.225162, 191.726566 68.225162 191.726566 68.225162, 139.380976 68.225162 139.380976 68.225162, 87.034624 68.225162 87.034624 68.225162, 34.688272 68.225162"/>
      </g>
      <g>
        <polyline style="fill: transparent;stroke: black;stroke-width: 1;" points="242.682522 18.054574, 191.282574 18.054574 191.282574 18.054574, 139.883388 18.054574 139.883388 18.054574, 88.482678 18.054574 88.482678 18.054574, 37.08273 18.054574"/>
      </g>
      <g>
        <polyline style="fill: transparent;stroke: black;stroke-width: 1;" points="227.760022 241.682778, 183.570626 241.682778 183.570626 241.682778, 139.380976 241.682778 139.380976 241.682778, 95.19158 241.682778 95.19158 241.682778, 51.00193 241.682778"/>
      </g>
      <g>
        <polyline style="fill: transparent;stroke: black;stroke-width: 1;" points="244.26291 75.017122, 191.869314 75.017122 191.869314 75.017122, 139.475718 75.017122 139.475718 75.017122, 87.081868 75.017122 87.081868 75.017122, 34.688272 75.017122"/>
      </g>
      <g>
        <polyline style="fill: gray;stroke: black;stroke-width: 1;" points="101.144578 75.017122, 100.07092 75.017122 100.07092 75.017122, 98.995992 75.017122 98.995992 75.017122, 97.921572 75.017122 97.921572 75.017122, 96.847152 75.017122 96.847152 75.017122, 96.847152 111.262922 96.847152 111.262922, 96.847152 147.508722 96.847152 147.508722, 96.847152 183.754522 96.847152 183.754522, 96.847152 220.000576 96.847152 220.000576, 97.921572 220.000576 97.921572 220.000576, 98.995992 220.000576 98.995992 220.000576, 100.07092 220.000576 100.07092 220.000576, 101.144578 220.000576 101.144578 220.000576, 101.144578 183.754522 101.144578 183.754522, 101.144578 147.508722 101.144578 147.508722, 101.144578 111.262922 101.144578 111.262922, 101.144578 75.017122 101.144578 75.017122, 101.144578 75.017122"/>
      </g>
      <g>
        <polyline style="fill: gray;stroke: black;stroke-width: 1;" points="88.450674 75.017122, 87.376508 75.017122 87.376508 75.017122, 86.302088 75.017122 86.302088 75.017122, 85.227668 75.017122 85.227668 75.017122, 84.153502 75.017122 84.153502 75.017122, 84.153502 111.262922 84.153502 111.262922, 84.153502 147.508722 84.153502 147.508722, 84.153502 183.754522 84.153502 183.754522, 84.153502 220.000576 84.153502 220.000576, 85.227668 220.000576 85.227668 220.000576, 86.302088 220.000576 86.302088 220.000576, 87.376508 220.000576 87.376508 220.000576, 88.450674 220.000576 88.450674 220.000576, 88.450674 183.754522 88.450674 183.754522, 88.450674 147.508722 88.450674 147.508722, 88.450674 111.262922 88.450674 111.262922, 88.450674 75.017122 88.450674 75.017122, 88.450674 75.017122"/>
      </g>
      <g>
        <polyline style="fill: gray;stroke: black;stroke-width: 1;" points="63.062358 75.017122, 61.987938 75.017122 61.987938 75.017122, 60.913772 75.017122 60.913772 75.017122, 59.839352 75.017122 59.839352 75.017122, 58.765694 75.017122 58.765694 75.017122, 58.765694 111.262922 58.765694 111.262922, 58.765694 147.508722 58.765694 147.508722, 58.765694 183.754522 58.765694 183.754522, 58.765694 220.000576 58.765694 220.000576, 59.839352 220.000576 59.839352 220.000576, 60.913772 220.000576 60.913772 220.000576, 61.987938 220.000576 61.987938 220.000576, 63.062358 220.000576 63.062358 220.000576, 63.062358 183.754522 63.062358 183.754522, 63.062358 147.508722 63.062358 147.508722, 63.062358 111.262922 63.062358 111.262922, 63.062358 75.017122 63.062358 75.017122, 63.062358 75.017122"/>
      </g>
      <g>
        <polyline style="fill: gray;stroke: black;stroke-width: 1;" points="75.757024 75.017122, 74.681842 75.017122 74.681842 75.017122, 73.608184 75.017122 73.608184 75.017122, 72.534018 75.017122 72.534018 75.017122, 71.459598 75.017122 71.459598 75.017122, 71.459598 111.262922 71.459598 111.262922, 71.459598 147.508722 71.459598 147.508722, 71.459598 183.754522 71.459598 183.754522, 71.459598 220.000576 71.459598 220.000576, 72.534018 220.000576 72.534018 220.000576, 73.608184 220.000576 73.608184 220.000576, 74.681842 220.000576 74.681842 220.000576, 75.757024 220.000576 75.757024 220.000576, 75.757024 183.754522 75.757024 183.754522, 75.757024 147.508722 75.757024 147.508722, 75.757024 111.262922 75.757024 111.262922, 75.757024 75.017122 75.757024 75.017122, 75.757024 75.017122"/>
      </g>
      <g>
        <polyline style="fill: gray;stroke: black;stroke-width: 1;" points="151.920448 75.017122, 150.847044 75.017122 150.847044 75.017122, 149.772624 75.017122 149.772624 75.017122, 148.698204 75.017122 148.698204 75.017122, 147.624038 75.017122 147.624038 75.017122, 147.624038 111.262922 147.624038 111.262922, 147.624038 147.508722 147.624038 147.508722, 147.624038 183.754522 147.624038 183.754522, 147.624038 220.000576 147.624038 220.000576, 148.698204 220.000576 148.698204 220.000576, 149.772624 220.000576 149.772624 220.000576, 150.847044 220.000576 150.847044 220.000576, 151.920448 220.000576 151.920448 220.000576, 151.920448 183.754522 151.920448 183.754522, 151.920448 147.508722 151.920448 147.508722, 151.920448 111.262922 151.920448 111.262922, 151.920448 75.017122 151.920448 75.017122, 151.920448 75.017122"/>
      </g>
      <g>
        <polyline style="fill: gray;stroke: black;stroke-width: 1;" points="164.615114 75.017122, 163.540694 75.017122 163.540694 75.017122, 162.466528 75.017122 162.466528 75.017122, 161.392108 75.017122 161.392108 75.017122, 160.317688 75.017122 160.317688 75.017122, 160.317688 111.262922 160.317688 111.262922, 160.317688 147.508722 160.317688 147.508722, 160.317688 183.754522 160.317688 183.754522, 160.317688 220.000576 160.317688 220.000576, 161.392108 220.000576 161.392108 220.000576, 162.466528 220.000576 162.466528 220.000576, 163.540694 220.000576 163.540694 220.000576, 164.615114 220.000576 164.615114 220.000576, 164.615114 183.754522 164.615114 183.754522, 164.615114 147.508722 164.615114 147.508722, 164.615114 111.262922 164.615114 111.262922, 164.615114 75.017122 164.615114 75.017122, 164.615114 75.017122"/>
      </g>
      <g>
        <polyline style="fill: gray;stroke: black;stroke-width: 1;" points="177.309018 75.017122, 176.23536 75.017122 176.23536 75.017122, 175.16094 75.017122 175.16094 75.017122, 174.086774 75.017122 174.086774 75.017122, 173.011592 75.017122 173.011592 75.017122, 173.011592 111.262922 173.011592 111.262922, 173.011592 147.508722 173.011592 147.508722, 173.011592 183.754522 173.011592 183.754522, 173.011592 220.000576 173.011592 220.000576, 174.086774 220.000576 174.086774 220.000576, 175.16094 220.000576 175.16094 220.000576, 176.23536 220.000576 176.23536 220.000576, 177.309018 220.000576 177.309018 220.000576, 177.309018 183.754522 177.309018 183.754522, 177.309018 147.508722 177.309018 147.508722, 177.309018 111.262922 177.309018 111.262922, 177.309018 75.017122 177.309018 75.017122, 177.309018 75.017122"/>
      </g>
      <g>
        <polyline style="fill: gray;stroke: black;stroke-width: 1;" points="190.002668 75.017122, 188.929264 75.017122 188.929264 75.017122, 187.854844 75.017122 187.854844 75.017122, 186.780424 75.017122 186.780424 75.017122, 185.706004 75.017122 185.706004 75.017122, 185.706004 111.262922 185.706004 111.262922, 185.706004 147.508722 185.706004 147.508722, 185.706004 183.754522 185.706004 183.754522, 185.706004 220.000576 185.706004 220.000576, 186.780424 220.000576 186.780424 220.000576, 187.854844 220.000576 187.854844 220.000576, 188.929264 220.000576 188.929264 220.000576, 190.002668 220.000576 190.002668 220.000576, 190.002668 183.754522 190.002668 183.754522, 190.002668 147.508722 190.002668 147.508722, 190.002668 111.262922 190.002668 111.262922, 190.002668 75.017122 190.002668 75.017122, 190.002668 75.017122"/>
      </g>
      <g>
        <polyline style="fill: gray;stroke: black;stroke-width: 1;" points="202.697334 75.017122, 201.622914 75.017122 201.622914 75.017122, 200.548494 75.017122 200.548494 75.017122, 199.474328 75.017122 199.474328 75.017122, 198.399908 75.017122 198.399908 75.017122, 198.399908 111.262922 198.399908 111.262922, 198.399908 147.508722 198.399908 147.508722, 198.399908 183.754522 198.399908 183.754522, 198.399908 220.000576 198.399908 220.000576, 199.474328 220.000576 199.474328 220.000576, 200.548494 220.000576 200.548494 220.000576, 201.622914 220.000576 201.622914 220.000576, 202.697334 220.000576 202.697334 220.000576, 202.697334 183.754522 202.697334 183.754522, 202.697334 147.508722 202.697334 147.508722, 202.697334 111.262922 202.697334 111.262922, 202.697334 75.017122 202.697334 75.017122, 202.697334 75.017122"/>
      </g>
      <g>
        <polyline style="fill: gray;stroke: black;stroke-width: 1;" points="215.390984 75.017122, 214.316818 75.017122 214.316818 75.017122, 213.24316 75.017122 213.24316 75.017122, 212.16874 75.017122 212.16874 75.017122, 211.093812 75.017122 211.093812 75.017122, 211.093812 111.262922 211.093812 111.262922, 211.093812 147.508722 211.093812 147.508722, 211.093812 183.754522 211.093812 183.754522, 211.093812 220.000576 211.093812 220.000576, 212.16874 220.000576 212.16874 220.000576, 213.24316 220.000576 213.24316 220.000576, 214.316818 220.000576 214.316818 220.000576, 215.390984 220.000576 215.390984 220.000576, 215.390984 183.754522 215.390984 183.754522, 215.390984 147.508722 215.390984 147.508722, 215.390984 111.262922 215.390984 111.262922, 215.390984 75.017122 215.390984 75.017122, 215.390984 75.017122"/>
      </g>
      <g>
        <polyline style="fill: gray;stroke: black;stroke-width: 1;" points="228.084888 75.017122, 227.010468 75.017122 227.010468 75.017122, 225.937064 75.017122 225.937064 75.017122, 224.862644 75.017122 224.862644 75.017122, 223.788224 75.017122 223.788224 75.017122, 223.788224 111.262922 223.788224 111.262922, 223.788224 147.508722 223.788224 147.508722, 223.788224 183.754522 223.788224 183.754522, 223.788224 220.000576 223.788224 220.000576, 224.862644 220.000576 224.862644 220.000576, 225.937064 220.000576 225.937064 220.000576, 227.010468 220.000576 227.010468 220.000576, 228.084888 220.000576 228.084888 220.000576, 228.084888 183.754522 228.084888 183.754522, 228.084888 147.508722 228.084888 147.508722, 228.084888 111.262922 228.084888 111.262922, 228.084888 75.017122 228.084888 75.017122, 228.084888 75.017122"/>
      </g>
      <g>
        <polyline style="fill: gray;stroke: black;stroke-width: 1;" points="113.838482 75.017122, 112.764824 75.017122 112.764824 75.017122, 111.690404 75.017122 111.690404 75.017122, 110.615984 75.017122 110.615984 75.017122, 109.541056 75.017122 109.541056 75.017122, 109.541056 111.262922 109.541056 111.262922, 109.541056 147.508722 109.541056 147.508722, 109.541056 183.754522 109.541056 183.754522, 109.541056 220.000576 109.541056 220.000576, 110.615984 220.000576 110.615984 220.000576, 111.690404 220.000576 111.690404 220.000576, 112.764824 220.000576 112.764824 220.000576, 113.838482 220.000576 113.838482 220.000576, 113.838482 183.754522 113.838482 183.754522, 113.838482 147.508722 113.838482 147.508722, 113.838482 111.262922 113.838482 111.262922, 113.838482 75.017122 113.838482 75.017122, 113.838482 75.017122"/>
      </g>
      <g>
        <polyline style="fill: gray;stroke: black;stroke-width: 1;" points="126.532132 75.017122, 125.458728 75.017122 125.458728 75.017122, 124.384308 75.017122 124.384308 75.017122, 123.309888 75.017122 123.309888 75.017122, 122.235468 75.017122 122.235468 75.017122, 122.235468 111.262922 122.235468 111.262922, 122.235468 147.508722 122.235468 147.508722, 122.235468 183.754522 122.235468 183.754522, 122.235468 220.000576 122.235468 220.000576, 123.309888 220.000576 123.309888 220.000576, 124.384308 220.000576 124.384308 220.000576, 125.458728 220.000576 125.458728 220.000576, 126.532132 220.000576 126.532132 220.000576, 126.532132 183.754522 126.532132 183.754522, 126.532132 147.508722 126.532132 147.508722, 126.532132 111.262922 126.532132 111.262922, 126.532132 75.017122 126.532132 75.017122, 126.532132 75.017122"/>
      </g>
      <g>
        <polyline style="fill: gray;stroke: black;stroke-width: 1;" points="139.226798 75.017122, 138.15314 75.017122 138.15314 75.017122, 137.07872 75.017122 137.07872 75.017122, 136.003792 75.017122 136.003792 75.017122, 134.929372 75.017122 134.929372 75.017122, 134.929372 111.262922 134.929372 111.262922, 134.929372 147.508722 134.929372 147.508722, 134.929372 183.754522 134.929372 183.754522, 134.929372 220.000576 134.929372 220.000576, 136.003792 220.000576 136.003792 220.000576, 137.07872 220.000576 137.07872 220.000576, 138.15314 220.000576 138.15314 220.000576, 139.226798 220.000576 139.226798 220.000576, 139.226798 183.754522 139.226798 183.754522, 139.226798 147.508722 139.226798 147.508722, 139.226798 111.262922 139.226798 111.262922, 139.226798 75.017122 139.226798 75.017122, 139.226798 75.017122"/>
      </g>
    </g>
  </g>
</svg>
