<?xml version="1.0" encoding="utf-8"?>
<!-- Generator: www.crescit.com, SVG Export - SVG Version: 6.00 Build 1  -->
<!-- FXGUID: [2BA1638D-D44F-11ED-A52A-525400685065] SYMID: [18881]  -->
<svg xmlns="http://www.w3.org/2000/svg" version="1.1" ch_offset="0" color_bar_width="66" width="192.33388" height="71.314056" origin_x="90.810334" origin_y="30.442916" ch_offset_x="91.7421584" ch_offset_y="40" color_offset_x="90.810334" color_offset_y="-4">
  <g>
    <title>Layer 1</title>
    <g>
      <g>
        <polyline style="fill: gray;stroke: black;stroke-width: 1;" points="88.970358 2.54, 75.329288 2.54 75.329288 2.54, 75.329288 37.817806 75.329288 37.817806, 88.970358 37.817806 88.970358 37.817806, 88.970358 2.54"/>
      </g>
      <g>
        <polyline style="fill: gray;stroke: black;stroke-width: 1;" points="179.63388 58.61431, 2.54 58.61431 2.54 58.61431, 2.54 41.345612 2.54 41.345612, 179.63388 41.345612 179.63388 41.345612, 179.63388 58.61431"/>
      </g>
      <g>
        <polyline style="fill: gray;stroke: black;stroke-width: 1;" points="74.153522 2.54, 60.512452 2.54 60.512452 2.54, 60.512452 37.817806 60.512452 37.817806, 74.153522 37.817806 74.153522 37.817806, 74.153522 2.54"/>
      </g>
      <g>
        <polyline style="fill: gray;stroke: black;stroke-width: 1;" points="16.062452 37.817806, 29.703268 37.817806 29.703268 37.817806, 29.703268 2.54 29.703268 2.54, 16.062452 2.54 16.062452 2.54, 16.062452 37.817806"/>
      </g>
      <g>
        <polyline style="fill: gray;stroke: black;stroke-width: 1;" points="44.520358 2.54, 30.879288 2.54 30.879288 2.54, 30.879288 37.817806 30.879288 37.817806, 44.520358 37.817806 44.520358 37.817806, 44.520358 2.54"/>
      </g>
      <g>
        <polyline style="fill: gray;stroke: black;stroke-width: 1;" points="59.337194 2.54, 45.696124 2.54 45.696124 2.54, 45.696124 37.817806 45.696124 37.817806, 59.337194 37.817806 59.337194 37.817806, 59.337194 2.54"/>
      </g>
      <g>
        <polyline style="fill: gray;stroke: black;stroke-width: 1;" points="103.787194 2.54, 90.146124 2.54 90.146124 2.54, 90.146124 37.817806 90.146124 37.817806, 103.787194 37.817806 103.787194 37.817806, 103.787194 2.54"/>
      </g>
      <g>
        <polyline style="fill: gray;stroke: black;stroke-width: 1;" points="14.886432 2.54, 2.892552 2.54 2.892552 2.54, 2.892552 37.817806 2.892552 37.817806, 14.886432 37.817806 14.886432 37.817806, 14.886432 2.54"/>
      </g>
      <g>
        <polyline style="fill: gray;stroke: black;stroke-width: 1;" points="118.603522 2.54, 104.962452 2.54 104.962452 2.54, 104.962452 37.817806 104.962452 37.817806, 118.603522 37.817806 118.603522 37.817806, 118.603522 2.54"/>
      </g>
      <g>
        <polyline style="fill: gray;stroke: black;stroke-width: 1;" points="164.229288 2.54, 164.229288 37.817806 164.229288 37.817806, 179.281074 37.817806 179.281074 37.817806, 179.281074 2.54 179.281074 2.54, 164.229288 2.54"/>
      </g>
      <g>
        <polyline style="fill: gray;stroke: black;stroke-width: 1;" points="148.237194 2.54, 134.596378 2.54 134.596378 2.54, 134.596378 37.817806 134.596378 37.817806, 148.237194 37.817806 148.237194 37.817806, 148.237194 2.54"/>
      </g>
      <g>
        <polyline style="fill: gray;stroke: black;stroke-width: 1;" points="133.420358 2.54, 119.779288 2.54 119.779288 2.54, 119.779288 37.817806 119.779288 37.817806, 133.420358 37.817806 133.420358 37.817806, 133.420358 2.54"/>
      </g>
      <g>
        <polyline style="fill: gray;stroke: black;stroke-width: 1;" points="163.053522 2.54, 149.412452 2.54 149.412452 2.54, 149.412452 37.817806 149.412452 37.817806, 163.053522 37.817806 163.053522 37.817806, 163.053522 2.54"/>
      </g>
      <g>
        <polyline style="fill: gray;stroke: black;stroke-width: 1;" points="84.14893 37.11321, 83.443572 37.11321 83.443572 37.11321, 83.443572 30.410404 83.443572 30.410404, 84.14893 30.410404 84.14893 30.410404, 84.14893 37.11321"/>
      </g>
      <g>
        <polyline style="fill: gray;stroke: black;stroke-width: 1;" points="87.441786 37.11321, 86.736428 37.11321 86.736428 37.11321, 86.736428 30.410404 86.736428 30.410404, 87.441786 30.410404 87.441786 30.410404, 87.441786 37.11321"/>
      </g>
      <g>
        <polyline style="fill: gray;stroke: black;stroke-width: 1;" points="85.795358 37.11321, 85.09 37.11321 85.09 37.11321, 85.09 30.410404 85.09 30.410404, 85.795358 30.410404 85.795358 30.410404, 85.795358 37.11321"/>
      </g>
      <g>
        <polyline style="fill: gray;stroke: black;stroke-width: 1;" points="94.026736 37.11321, 93.320362 37.11321 93.320362 37.11321, 93.320362 30.410404 93.320362 30.410404, 94.026736 30.410404 94.026736 30.410404, 94.026736 37.11321"/>
      </g>
      <g>
        <polyline style="fill: gray;stroke: black;stroke-width: 1;" points="95.67291 37.11321, 94.96679 37.11321 94.96679 37.11321, 94.96679 30.410404 94.96679 30.410404, 95.67291 30.410404 95.67291 30.410404, 95.67291 37.11321"/>
      </g>
      <g>
        <polyline style="fill: gray;stroke: black;stroke-width: 1;" points="97.319338 37.11321, 96.613218 37.11321 96.613218 37.11321, 96.613218 30.410404 96.613218 30.410404, 97.319338 30.410404 97.319338 30.410404, 97.319338 37.11321"/>
      </g>
      <g>
        <polyline style="fill: gray;stroke: black;stroke-width: 1;" points="98.965766 37.11321, 98.259646 37.11321 98.259646 37.11321, 98.259646 30.410404 98.259646 30.410404, 98.965766 30.410404 98.965766 30.410404, 98.965766 37.11321"/>
      </g>
      <g>
        <polyline style="fill: gray;stroke: black;stroke-width: 1;" points="100.612194 37.11321, 99.906074 37.11321 99.906074 37.11321, 99.906074 30.410404 99.906074 30.410404, 100.612194 30.410404 100.612194 30.410404, 100.612194 37.11321"/>
      </g>
      <g>
        <polyline style="fill: gray;stroke: black;stroke-width: 1;" points="102.258622 37.11321, 101.552502 37.11321 101.552502 37.11321, 101.552502 30.410404 101.552502 30.410404, 102.258622 30.410404 102.258622 30.410404, 102.258622 37.11321"/>
      </g>
      <g>
        <polyline style="fill: gray;stroke: black;stroke-width: 1;" points="107.197144 37.11321, 106.491024 37.11321 106.491024 37.11321, 106.491024 30.410404 106.491024 30.410404, 107.197144 30.410404 107.197144 30.410404, 107.197144 37.11321"/>
      </g>
      <g>
        <polyline style="fill: gray;stroke: black;stroke-width: 1;" points="108.843572 37.11321, 108.137452 37.11321 108.137452 37.11321, 108.137452 30.410404 108.137452 30.410404, 108.843572 30.410404 108.843572 30.410404, 108.843572 37.11321"/>
      </g>
      <g>
        <polyline style="fill: gray;stroke: black;stroke-width: 1;" points="4.186428 37.11321, 3.480308 37.11321 3.480308 37.11321, 3.480308 30.410404 3.480308 30.410404, 4.186428 30.410404 4.186428 30.410404, 4.186428 37.11321"/>
      </g>
      <g>
        <polyline style="fill: gray;stroke: black;stroke-width: 1;" points="92.380308 37.11321, 91.673934 37.11321 91.673934 37.11321, 91.673934 30.410404 91.673934 30.410404, 92.380308 30.410404 92.380308 30.410404, 92.380308 37.11321"/>
      </g>
      <g>
        <polyline style="fill: gray;stroke: black;stroke-width: 1;" points="15.24 41.345612, 14.886432 41.345612 14.886432 41.345612, 14.886432 37.817806 14.886432 37.817806, 15.24 37.817806 15.24 37.817806, 15.24 41.345612"/>
      </g>
      <g>
        <polyline style="fill: gray;stroke: black;stroke-width: 1;" points="16.062452 41.345612, 15.709646 41.345612 15.709646 41.345612, 15.709646 37.817806 15.709646 37.817806, 16.062452 37.817806 16.062452 37.817806, 16.062452 41.345612"/>
      </g>
      <g>
        <polyline style="fill: gray;stroke: black;stroke-width: 1;" points="30.056074 41.345612, 29.703268 41.345612 29.703268 41.345612, 29.703268 37.817806 29.703268 37.817806, 30.056074 37.817806 30.056074 37.817806, 30.056074 41.345612"/>
      </g>
      <g>
        <polyline style="fill: gray;stroke: black;stroke-width: 1;" points="30.879288 41.345612, 30.526482 41.345612 30.526482 41.345612, 30.526482 37.817806 30.526482 37.817806, 30.879288 37.817806 30.879288 37.817806, 30.879288 41.345612"/>
      </g>
      <g>
        <polyline style="fill: gray;stroke: black;stroke-width: 1;" points="44.87291 41.345612, 44.520358 41.345612 44.520358 41.345612, 44.520358 37.817806 44.520358 37.817806, 44.87291 37.817806 44.87291 37.817806, 44.87291 41.345612"/>
      </g>
      <g>
        <polyline style="fill: gray;stroke: black;stroke-width: 1;" points="45.696124 41.345612, 45.343572 41.345612 45.343572 41.345612, 45.343572 37.817806 45.343572 37.817806, 45.696124 37.817806 45.696124 37.817806, 45.696124 41.345612"/>
      </g>
      <g>
        <polyline style="fill: gray;stroke: black;stroke-width: 1;" points="59.69 41.345612, 59.337194 41.345612 59.337194 41.345612, 59.337194 37.817806 59.337194 37.817806, 59.69 37.817806 59.69 37.817806, 59.69 41.345612"/>
      </g>
      <g>
        <polyline style="fill: gray;stroke: black;stroke-width: 1;" points="60.512452 41.345612, 60.159646 41.345612 60.159646 41.345612, 60.159646 37.817806 60.159646 37.817806, 60.512452 37.817806 60.512452 37.817806, 60.512452 41.345612"/>
      </g>
      <g>
        <polyline style="fill: gray;stroke: black;stroke-width: 1;" points="74.506074 41.345612, 74.153522 41.345612 74.153522 41.345612, 74.153522 37.817806 74.153522 37.817806, 74.506074 37.817806 74.506074 37.817806, 74.506074 41.345612"/>
      </g>
      <g>
        <polyline style="fill: gray;stroke: black;stroke-width: 1;" points="75.329288 41.345612, 74.976736 41.345612 74.976736 41.345612, 74.976736 37.817806 74.976736 37.817806, 75.329288 37.817806 75.329288 37.817806, 75.329288 41.345612"/>
      </g>
      <g>
        <polyline style="fill: gray;stroke: black;stroke-width: 1;" points="89.32291 41.345612, 88.970358 41.345612 88.970358 41.345612, 88.970358 37.817806 88.970358 37.817806, 89.32291 37.817806 89.32291 37.817806, 89.32291 41.345612"/>
      </g>
      <g>
        <polyline style="fill: gray;stroke: black;stroke-width: 1;" points="90.146124 41.345612, 89.793572 41.345612 89.793572 41.345612, 89.793572 37.817806 89.793572 37.817806, 90.146124 37.817806 90.146124 37.817806, 90.146124 41.345612"/>
      </g>
      <g>
        <polyline style="fill: gray;stroke: black;stroke-width: 1;" points="104.14 41.345612, 103.787194 41.345612 103.787194 41.345612, 103.787194 37.817806 103.787194 37.817806, 104.14 37.817806 104.14 37.817806, 104.14 41.345612"/>
      </g>
      <g>
        <polyline style="fill: gray;stroke: black;stroke-width: 1;" points="104.962452 41.345612, 104.609646 41.345612 104.609646 41.345612, 104.609646 37.817806 104.609646 37.817806, 104.962452 37.817806 104.962452 37.817806, 104.962452 41.345612"/>
      </g>
      <g>
        <polyline style="fill: gray;stroke: black;stroke-width: 1;" points="118.956074 41.345612, 118.603522 41.345612 118.603522 41.345612, 118.603522 37.817806 118.603522 37.817806, 118.956074 37.817806 118.956074 37.817806, 118.956074 41.345612"/>
      </g>
      <g>
        <polyline style="fill: gray;stroke: black;stroke-width: 1;" points="119.779288 41.345612, 119.426736 41.345612 119.426736 41.345612, 119.426736 37.817806 119.426736 37.817806, 119.779288 37.817806 119.779288 37.817806, 119.779288 41.345612"/>
      </g>
      <g>
        <polyline style="fill: gray;stroke: black;stroke-width: 1;" points="133.773164 41.345612, 133.420358 41.345612 133.420358 41.345612, 133.420358 37.817806 133.420358 37.817806, 133.773164 37.817806 133.773164 37.817806, 133.773164 41.345612"/>
      </g>
      <g>
        <polyline style="fill: gray;stroke: black;stroke-width: 1;" points="134.596378 41.345612, 134.243572 41.345612 134.243572 41.345612, 134.243572 37.817806 134.243572 37.817806, 134.596378 37.817806 134.596378 37.817806, 134.596378 41.345612"/>
      </g>
      <g>
        <polyline style="fill: gray;stroke: black;stroke-width: 1;" points="148.59 41.345612, 148.237194 41.345612 148.237194 41.345612, 148.237194 37.817806 148.237194 37.817806, 148.59 37.817806 148.59 37.817806, 148.59 41.345612"/>
      </g>
      <g>
        <polyline style="fill: gray;stroke: black;stroke-width: 1;" points="149.412452 41.345612, 149.059646 41.345612 149.059646 41.345612, 149.059646 37.817806 149.059646 37.817806, 149.412452 37.817806 149.412452 37.817806, 149.412452 41.345612"/>
      </g>
      <g>
        <polyline style="fill: gray;stroke: black;stroke-width: 1;" points="163.406074 41.345612, 163.053522 41.345612 163.053522 41.345612, 163.053522 37.817806 163.053522 37.817806, 163.406074 37.817806 163.406074 37.817806, 163.406074 41.345612"/>
      </g>
      <g>
        <polyline style="fill: gray;stroke: black;stroke-width: 1;" points="164.229288 41.345612, 163.876736 41.345612 163.876736 41.345612, 163.876736 37.817806 163.876736 37.817806, 164.229288 37.817806 164.229288 37.817806, 164.229288 41.345612"/>
      </g>
      <g>
        <polyline style="fill: gray;stroke: black;stroke-width: 1;" points="179.63388 41.345612, 179.281074 41.345612 179.281074 41.345612, 179.281074 37.817806 179.281074 37.817806, 179.63388 37.817806 179.63388 37.817806, 179.63388 41.345612"/>
      </g>
      <g>
        <polyline style="fill: gray;stroke: black;stroke-width: 1;" points="5.832856 37.11321, 5.126482 37.11321 5.126482 37.11321, 5.126482 30.410404 5.126482 30.410404, 5.832856 30.410404 5.832856 30.410404, 5.832856 37.11321"/>
      </g>
      <g>
        <polyline style="fill: gray;stroke: black;stroke-width: 1;" points="7.479284 37.11321, 6.77291 37.11321 6.77291 37.11321, 6.77291 30.410404 6.77291 30.410404, 7.479284 30.410404 7.479284 30.410404, 7.479284 37.11321"/>
      </g>
      <g>
        <polyline style="fill: gray;stroke: black;stroke-width: 1;" points="9.125458 37.11321, 8.419338 37.11321 8.419338 37.11321, 8.419338 30.410404 8.419338 30.410404, 9.125458 30.410404 9.125458 30.410404, 9.125458 37.11321"/>
      </g>
      <g>
        <polyline style="fill: gray;stroke: black;stroke-width: 1;" points="10.771886 37.11321, 10.065766 37.11321 10.065766 37.11321, 10.065766 30.410404 10.065766 30.410404, 10.771886 30.410404 10.771886 30.410404, 10.771886 37.11321"/>
      </g>
      <g>
        <polyline style="fill: gray;stroke: black;stroke-width: 1;" points="12.418314 37.11321, 11.712194 37.11321 11.712194 37.11321, 11.712194 30.410404 11.712194 30.410404, 12.418314 30.410404 12.418314 30.410404, 12.418314 37.11321"/>
      </g>
      <g>
        <polyline style="fill: gray;stroke: black;stroke-width: 1;" points="14.064742 37.11321, 13.358622 37.11321 13.358622 37.11321, 13.358622 30.410404 13.358622 30.410404, 14.064742 30.410404 14.064742 30.410404, 14.064742 37.11321"/>
      </g>
      <g>
        <polyline style="fill: gray;stroke: black;stroke-width: 1;" points="18.296382 37.11321, 17.591024 37.11321 17.591024 37.11321, 17.591024 30.410404 17.591024 30.410404, 18.296382 30.410404 18.296382 30.410404, 18.296382 37.11321"/>
      </g>
      <g>
        <polyline style="fill: gray;stroke: black;stroke-width: 1;" points="19.94281 37.11321, 19.237452 37.11321 19.237452 37.11321, 19.237452 30.410404 19.237452 30.410404, 19.94281 30.410404 19.94281 30.410404, 19.94281 37.11321"/>
      </g>
      <g>
        <polyline style="fill: gray;stroke: black;stroke-width: 1;" points="21.589238 37.11321, 20.88388 37.11321 20.88388 37.11321, 20.88388 30.410404 20.88388 30.410404, 21.589238 30.410404 21.589238 30.410404, 21.589238 37.11321"/>
      </g>
      <g>
        <polyline style="fill: gray;stroke: black;stroke-width: 1;" points="23.235666 37.11321, 22.530308 37.11321 22.530308 37.11321, 22.530308 30.410404 22.530308 30.410404, 23.235666 30.410404 23.235666 30.410404, 23.235666 37.11321"/>
      </g>
      <g>
        <polyline style="fill: gray;stroke: black;stroke-width: 1;" points="24.882094 37.11321, 24.176482 37.11321 24.176482 37.11321, 24.176482 30.410404 24.176482 30.410404, 24.882094 30.410404 24.882094 30.410404, 24.882094 37.11321"/>
      </g>
      <g>
        <polyline style="fill: gray;stroke: black;stroke-width: 1;" points="26.528268 37.11321, 25.82291 37.11321 25.82291 37.11321, 25.82291 30.410404 25.82291 30.410404, 26.528268 30.410404 26.528268 30.410404, 26.528268 37.11321"/>
      </g>
      <g>
        <polyline style="fill: gray;stroke: black;stroke-width: 1;" points="28.174696 37.11321, 27.469338 37.11321 27.469338 37.11321, 27.469338 30.410404 27.469338 30.410404, 28.174696 30.410404 28.174696 30.410404, 28.174696 37.11321"/>
      </g>
      <g>
        <polyline style="fill: gray;stroke: black;stroke-width: 1;" points="33.113218 37.11321, 32.40786 37.11321 32.40786 37.11321, 32.40786 30.410404 32.40786 30.410404, 33.113218 30.410404 33.113218 30.410404, 33.113218 37.11321"/>
      </g>
      <g>
        <polyline style="fill: gray;stroke: black;stroke-width: 1;" points="2.892552 41.345612, 2.54 41.345612 2.54 41.345612, 2.54 37.817806 2.54 37.817806, 2.892552 37.817806 2.892552 37.817806, 2.892552 41.345612"/>
      </g>
      <g>
        <polyline style="fill: gray;stroke: black;stroke-width: 1;" points="36.406074 37.11321, 35.700716 37.11321 35.700716 37.11321, 35.700716 30.410404 35.700716 30.410404, 36.406074 30.410404 36.406074 30.410404, 36.406074 37.11321"/>
      </g>
      <g>
        <polyline style="fill: gray;stroke: black;stroke-width: 1;" points="38.052502 37.11321, 37.347144 37.11321 37.347144 37.11321, 37.347144 30.410404 37.347144 30.410404, 38.052502 30.410404 38.052502 30.410404, 38.052502 37.11321"/>
      </g>
      <g>
        <polyline style="fill: gray;stroke: black;stroke-width: 1;" points="39.69893 37.11321, 38.993572 37.11321 38.993572 37.11321, 38.993572 30.410404 38.993572 30.410404, 39.69893 30.410404 39.69893 30.410404, 39.69893 37.11321"/>
      </g>
      <g>
        <polyline style="fill: gray;stroke: black;stroke-width: 1;" points="41.345358 37.11321, 40.64 37.11321 40.64 37.11321, 40.64 30.410404 40.64 30.410404, 41.345358 30.410404 41.345358 30.410404, 41.345358 37.11321"/>
      </g>
      <g>
        <polyline style="fill: gray;stroke: black;stroke-width: 1;" points="42.991786 37.11321, 42.286428 37.11321 42.286428 37.11321, 42.286428 30.410404 42.286428 30.410404, 42.991786 30.410404 42.991786 30.410404, 42.991786 37.11321"/>
      </g>
      <g>
        <polyline style="fill: gray;stroke: black;stroke-width: 1;" points="47.930308 37.11321, 47.223934 37.11321 47.223934 37.11321, 47.223934 30.410404 47.223934 30.410404, 47.930308 30.410404 47.930308 30.410404, 47.930308 37.11321"/>
      </g>
      <g>
        <polyline style="fill: gray;stroke: black;stroke-width: 1;" points="49.576482 37.11321, 48.870362 37.11321 48.870362 37.11321, 48.870362 30.410404 48.870362 30.410404, 49.576482 30.410404 49.576482 30.410404, 49.576482 37.11321"/>
      </g>
      <g>
        <polyline style="fill: gray;stroke: black;stroke-width: 1;" points="51.22291 37.11321, 50.51679 37.11321 50.51679 37.11321, 50.51679 30.410404 50.51679 30.410404, 51.22291 30.410404 51.22291 30.410404, 51.22291 37.11321"/>
      </g>
      <g>
        <polyline style="fill: gray;stroke: black;stroke-width: 1;" points="52.869338 37.11321, 52.16398 37.11321 52.16398 37.11321, 52.16398 30.410404 52.16398 30.410404, 52.869338 30.410404 52.869338 30.410404, 52.869338 37.11321"/>
      </g>
      <g>
        <polyline style="fill: gray;stroke: black;stroke-width: 1;" points="54.515766 37.11321, 53.810408 37.11321 53.810408 37.11321, 53.810408 30.410404 53.810408 30.410404, 54.515766 30.410404 54.515766 30.410404, 54.515766 37.11321"/>
      </g>
      <g>
        <polyline style="fill: gray;stroke: black;stroke-width: 1;" points="56.162194 37.11321, 55.456836 37.11321 55.456836 37.11321, 55.456836 30.410404 55.456836 30.410404, 56.162194 30.410404 56.162194 30.410404, 56.162194 37.11321"/>
      </g>
      <g>
        <polyline style="fill: gray;stroke: black;stroke-width: 1;" points="57.808622 37.11321, 57.103264 37.11321 57.103264 37.11321, 57.103264 30.410404 57.103264 30.410404, 57.808622 30.410404 57.808622 30.410404, 57.808622 37.11321"/>
      </g>
      <g>
        <polyline style="fill: gray;stroke: black;stroke-width: 1;" points="62.746382 37.11321, 62.041024 37.11321 62.041024 37.11321, 62.041024 30.410404 62.041024 30.410404, 62.746382 30.410404 62.746382 30.410404, 62.746382 37.11321"/>
      </g>
      <g>
        <polyline style="fill: gray;stroke: black;stroke-width: 1;" points="64.39281 37.11321, 63.687452 37.11321 63.687452 37.11321, 63.687452 30.410404 63.687452 30.410404, 64.39281 30.410404 64.39281 30.410404, 64.39281 37.11321"/>
      </g>
      <g>
        <polyline style="fill: gray;stroke: black;stroke-width: 1;" points="66.039238 37.11321, 65.33388 37.11321 65.33388 37.11321, 65.33388 30.410404 65.33388 30.410404, 66.039238 30.410404 66.039238 30.410404, 66.039238 37.11321"/>
      </g>
      <g>
        <polyline style="fill: gray;stroke: black;stroke-width: 1;" points="67.685666 37.11321, 66.980308 37.11321 66.980308 37.11321, 66.980308 30.410404 66.980308 30.410404, 67.685666 30.410404 67.685666 30.410404, 67.685666 37.11321"/>
      </g>
      <g>
        <polyline style="fill: gray;stroke: black;stroke-width: 1;" points="69.332094 37.11321, 68.626736 37.11321 68.626736 37.11321, 68.626736 30.410404 68.626736 30.410404, 69.332094 30.410404 69.332094 30.410404, 69.332094 37.11321"/>
      </g>
      <g>
        <polyline style="fill: gray;stroke: black;stroke-width: 1;" points="70.978522 37.11321, 70.27291 37.11321 70.27291 37.11321, 70.27291 30.410404 70.27291 30.410404, 70.978522 30.410404 70.978522 30.410404, 70.978522 37.11321"/>
      </g>
      <g>
        <polyline style="fill: gray;stroke: black;stroke-width: 1;" points="72.624696 37.11321, 71.919338 37.11321 71.919338 37.11321, 71.919338 30.410404 71.919338 30.410404, 72.624696 30.410404 72.624696 30.410404, 72.624696 37.11321"/>
      </g>
      <g>
        <polyline style="fill: gray;stroke: black;stroke-width: 1;" points="77.563218 37.11321, 76.85786 37.11321 76.85786 37.11321, 76.85786 30.410404 76.85786 30.410404, 77.563218 30.410404 77.563218 30.410404, 77.563218 37.11321"/>
      </g>
      <g>
        <polyline style="fill: gray;stroke: black;stroke-width: 1;" points="79.209646 37.11321, 78.504288 37.11321 78.504288 37.11321, 78.504288 30.410404 78.504288 30.410404, 79.209646 30.410404 79.209646 30.410404, 79.209646 37.11321"/>
      </g>
      <g>
        <polyline style="fill: gray;stroke: black;stroke-width: 1;" points="80.856074 37.11321, 80.150716 37.11321 80.150716 37.11321, 80.150716 30.410404 80.150716 30.410404, 80.856074 30.410404 80.856074 30.410404, 80.856074 37.11321"/>
      </g>
      <g>
        <polyline style="fill: gray;stroke: black;stroke-width: 1;" points="82.502502 37.11321, 81.797144 37.11321 81.797144 37.11321, 81.797144 30.410404 81.797144 30.410404, 82.502502 30.410404 82.502502 30.410404, 82.502502 37.11321"/>
      </g>
      <g>
        <polyline style="fill: gray;stroke: black;stroke-width: 1;" points="167.110664 37.11321, 166.40429 37.11321 166.40429 37.11321, 166.40429 30.410404 166.40429 30.410404, 167.110664 30.410404 167.110664 30.410404, 167.110664 37.11321"/>
      </g>
      <g>
        <polyline style="fill: gray;stroke: black;stroke-width: 1;" points="168.757092 37.11321, 168.050718 37.11321 168.050718 37.11321, 168.050718 30.410404 168.050718 30.410404, 168.757092 30.410404 168.757092 30.410404, 168.757092 37.11321"/>
      </g>
      <g>
        <polyline style="fill: gray;stroke: black;stroke-width: 1;" points="170.403266 37.11321, 169.697146 37.11321 169.697146 37.11321, 169.697146 30.410404 169.697146 30.410404, 170.403266 30.410404 170.403266 30.410404, 170.403266 37.11321"/>
      </g>
      <g>
        <polyline style="fill: gray;stroke: black;stroke-width: 1;" points="172.049694 37.11321, 171.343574 37.11321 171.343574 37.11321, 171.343574 30.410404 171.343574 30.410404, 172.049694 30.410404 172.049694 30.410404, 172.049694 37.11321"/>
      </g>
      <g>
        <polyline style="fill: gray;stroke: black;stroke-width: 1;" points="173.696122 37.11321, 172.990002 37.11321 172.990002 37.11321, 172.990002 30.410404 172.990002 30.410404, 173.696122 30.410404 173.696122 30.410404, 173.696122 37.11321"/>
      </g>
      <g>
        <polyline style="fill: gray;stroke: black;stroke-width: 1;" points="175.34255 37.11321, 174.63643 37.11321 174.63643 37.11321, 174.63643 30.410404 174.63643 30.410404, 175.34255 30.410404 175.34255 30.410404, 175.34255 37.11321"/>
      </g>
      <g>
        <polyline style="fill: gray;stroke: black;stroke-width: 1;" points="176.988978 37.11321, 176.282858 37.11321 176.282858 37.11321, 176.282858 30.410404 176.282858 30.410404, 176.988978 30.410404 176.988978 30.410404, 176.988978 37.11321"/>
      </g>
      <g>
        <polyline style="fill: gray;stroke: black;stroke-width: 1;" points="140.123164 37.11321, 139.41679 37.11321 139.41679 37.11321, 139.41679 30.410404 139.41679 30.410404, 140.123164 30.410404 140.123164 30.410404, 140.123164 37.11321"/>
      </g>
      <g>
        <polyline style="fill: gray;stroke: black;stroke-width: 1;" points="141.769592 37.11321, 141.063218 37.11321 141.063218 37.11321, 141.063218 30.410404 141.063218 30.410404, 141.769592 30.410404 141.769592 30.410404, 141.769592 37.11321"/>
      </g>
      <g>
        <polyline style="fill: gray;stroke: black;stroke-width: 1;" points="56.162194 57.397904, 36.406074 57.397904 36.406074 57.397904, 36.406074 51.40071 36.406074 51.40071, 56.162194 51.40071 56.162194 51.40071, 56.162194 57.397904"/>
      </g>
      <g>
        <polyline style="fill: gray;stroke: black;stroke-width: 1;" points="149.294596 57.397904, 129.539238 57.397904 129.539238 57.397904, 129.539238 51.40071 129.539238 51.40071, 149.294596 51.40071 149.294596 51.40071, 149.294596 57.397904"/>
      </g>
      <g>
        <polyline style="fill: gray;stroke: black;stroke-width: 1;" points="123.307094 58.61431, 62.041024 58.61431 62.041024 58.61431, 62.041024 49.979834 62.041024 49.979834, 123.307094 49.979834 123.307094 49.979834, 123.307094 58.61431"/>
      </g>
      <g>
        <polyline style="fill: gray;stroke: black;stroke-width: 1;" points="110.49 37.11321, 109.78388 37.11321 109.78388 37.11321, 109.78388 30.410404 109.78388 30.410404, 110.49 30.410404 110.49 30.410404, 110.49 37.11321"/>
      </g>
      <g>
        <polyline style="fill: gray;stroke: black;stroke-width: 1;" points="112.136428 37.11321, 111.430308 37.11321 111.430308 37.11321, 111.430308 30.410404 111.430308 30.410404, 112.136428 30.410404 112.136428 30.410404, 112.136428 37.11321"/>
      </g>
      <g>
        <polyline style="fill: gray;stroke: black;stroke-width: 1;" points="113.782856 37.11321, 113.076736 37.11321 113.076736 37.11321, 113.076736 30.410404 113.076736 30.410404, 113.782856 30.410404 113.782856 30.410404, 113.782856 37.11321"/>
      </g>
      <g>
        <polyline style="fill: gray;stroke: black;stroke-width: 1;" points="115.429284 37.11321, 114.723164 37.11321 114.723164 37.11321, 114.723164 30.410404 114.723164 30.410404, 115.429284 30.410404 115.429284 30.410404, 115.429284 37.11321"/>
      </g>
      <g>
        <polyline style="fill: gray;stroke: black;stroke-width: 1;" points="117.075712 37.11321, 116.369592 37.11321 116.369592 37.11321, 116.369592 30.410404 116.369592 30.410404, 117.075712 30.410404 117.075712 30.410404, 117.075712 37.11321"/>
      </g>
      <g>
        <polyline style="fill: gray;stroke: black;stroke-width: 1;" points="122.013218 37.11321, 121.30786 37.11321 121.30786 37.11321, 121.30786 30.410404 121.30786 30.410404, 122.013218 30.410404 122.013218 30.410404, 122.013218 37.11321"/>
      </g>
      <g>
        <polyline style="fill: gray;stroke: black;stroke-width: 1;" points="123.659646 37.11321, 122.954288 37.11321 122.954288 37.11321, 122.954288 30.410404 122.954288 30.410404, 123.659646 30.410404 123.659646 30.410404, 123.659646 37.11321"/>
      </g>
      <g>
        <polyline style="fill: gray;stroke: black;stroke-width: 1;" points="125.306074 37.11321, 124.600716 37.11321 124.600716 37.11321, 124.600716 30.410404 124.600716 30.410404, 125.306074 30.410404 125.306074 30.410404, 125.306074 37.11321"/>
      </g>
      <g>
        <polyline style="fill: gray;stroke: black;stroke-width: 1;" points="126.952502 37.11321, 126.247144 37.11321 126.247144 37.11321, 126.247144 30.410404 126.247144 30.410404, 126.952502 30.410404 126.952502 30.410404, 126.952502 37.11321"/>
      </g>
      <g>
        <polyline style="fill: gray;stroke: black;stroke-width: 1;" points="128.59893 37.11321, 127.893572 37.11321 127.893572 37.11321, 127.893572 30.410404 127.893572 30.410404, 128.59893 30.410404 128.59893 30.410404, 128.59893 37.11321"/>
      </g>
      <g>
        <polyline style="fill: gray;stroke: black;stroke-width: 1;" points="130.245358 37.11321, 129.54 37.11321 129.54 37.11321, 129.54 30.410404 129.54 30.410404, 130.245358 30.410404 130.245358 30.410404, 130.245358 37.11321"/>
      </g>
      <g>
        <polyline style="fill: gray;stroke: black;stroke-width: 1;" points="131.891786 37.11321, 131.186428 37.11321 131.186428 37.11321, 131.186428 30.410404 131.186428 30.410404, 131.891786 30.410404 131.891786 30.410404, 131.891786 37.11321"/>
      </g>
      <g>
        <polyline style="fill: gray;stroke: black;stroke-width: 1;" points="136.830308 37.11321, 136.124188 37.11321 136.124188 37.11321, 136.124188 30.410404 136.124188 30.410404, 136.830308 30.410404 136.830308 30.410404, 136.830308 37.11321"/>
      </g>
      <g>
        <polyline style="fill: gray;stroke: black;stroke-width: 1;" points="138.476736 37.11321, 137.770616 37.11321 137.770616 37.11321, 137.770616 30.410404 137.770616 30.410404, 138.476736 30.410404 138.476736 30.410404, 138.476736 37.11321"/>
      </g>
      <g>
        <polyline style="fill: gray;stroke: black;stroke-width: 1;" points="159.879284 37.11321, 159.173164 37.11321 159.173164 37.11321, 159.173164 30.410404 159.173164 30.410404, 159.879284 30.410404 159.879284 30.410404, 159.879284 37.11321"/>
      </g>
      <g>
        <polyline style="fill: gray;stroke: black;stroke-width: 1;" points="161.525712 37.11321, 160.819592 37.11321 160.819592 37.11321, 160.819592 30.410404 160.819592 30.410404, 161.525712 30.410404 161.525712 30.410404, 161.525712 37.11321"/>
      </g>
      <g>
        <polyline style="fill: gray;stroke: black;stroke-width: 1;" points="143.415766 37.11321, 142.709646 37.11321 142.709646 37.11321, 142.709646 30.410404 142.709646 30.410404, 143.415766 30.410404 143.415766 30.410404, 143.415766 37.11321"/>
      </g>
      <g>
        <polyline style="fill: gray;stroke: black;stroke-width: 1;" points="145.062194 37.11321, 144.356074 37.11321 144.356074 37.11321, 144.356074 30.410404 144.356074 30.410404, 145.062194 30.410404 145.062194 30.410404, 145.062194 37.11321"/>
      </g>
      <g>
        <polyline style="fill: gray;stroke: black;stroke-width: 1;" points="146.708622 37.11321, 146.002502 37.11321 146.002502 37.11321, 146.002502 30.410404 146.002502 30.410404, 146.708622 30.410404 146.708622 30.410404, 146.708622 37.11321"/>
      </g>
      <g>
        <polyline style="fill: gray;stroke: black;stroke-width: 1;" points="151.647144 37.11321, 150.941024 37.11321 150.941024 37.11321, 150.941024 30.410404 150.941024 30.410404, 151.647144 30.410404 151.647144 30.410404, 151.647144 37.11321"/>
      </g>
      <g>
        <polyline style="fill: gray;stroke: black;stroke-width: 1;" points="153.293572 37.11321, 152.587452 37.11321 152.587452 37.11321, 152.587452 30.410404 152.587452 30.410404, 153.293572 30.410404 153.293572 30.410404, 153.293572 37.11321"/>
      </g>
      <g>
        <polyline style="fill: gray;stroke: black;stroke-width: 1;" points="154.94 37.11321, 154.23388 37.11321 154.23388 37.11321, 154.23388 30.410404 154.23388 30.410404, 154.94 30.410404 154.94 30.410404, 154.94 37.11321"/>
      </g>
      <g>
        <polyline style="fill: gray;stroke: black;stroke-width: 1;" points="156.586428 37.11321, 155.880308 37.11321 155.880308 37.11321, 155.880308 30.410404 155.880308 30.410404, 156.586428 30.410404 156.586428 30.410404, 156.586428 37.11321"/>
      </g>
      <g>
        <polyline style="fill: gray;stroke: black;stroke-width: 1;" points="158.232856 37.11321, 157.526736 37.11321 157.526736 37.11321, 157.526736 30.410404 157.526736 30.410404, 158.232856 30.410404 158.232856 30.410404, 158.232856 37.11321"/>
      </g>
      <g>
        <polyline style="fill: gray;stroke: black;stroke-width: 1;" points="34.759646 37.11321, 34.054288 37.11321 34.054288 37.11321, 34.054288 30.410404 34.054288 30.410404, 34.759646 30.410404 34.759646 30.410404, 34.759646 37.11321"/>
      </g>
      <g>
        <polyline style="fill: gray;stroke: black;stroke-width: 1;" points="117.075712 58.61431, 68.979288 58.61431 68.979288 58.61431, 68.979288 51.40071 68.979288 51.40071, 117.075712 51.40071 117.075712 51.40071, 117.075712 58.61431"/>
      </g>
      <g>
        <line x1="149.412452" y1="7.0088506" x2="163.053522" y2="7.0088506" style="stroke-width: 1;stroke: black;"/>
      </g>
      <g>
        <line x1="16.062452" y1="7.0088506" x2="29.703268" y2="7.0088506" style="stroke-width: 1;stroke: black;"/>
      </g>
      <g>
        <line x1="2.892552" y1="7.0088506" x2="14.886432" y2="7.0088506" style="stroke-width: 1;stroke: black;"/>
      </g>
      <g>
        <line x1="104.9623758" y1="7.0088506" x2="118.603522" y2="7.0088506" style="stroke-width: 1;stroke: black;"/>
      </g>
      <g>
        <line x1="60.512452" y1="7.0088506" x2="74.153395" y2="7.0088506" style="stroke-width: 1;stroke: black;"/>
      </g>
      <g>
        <line x1="75.3293134" y1="7.0088506" x2="88.9703326" y2="7.0088506" style="stroke-width: 1;stroke: black;"/>
      </g>
      <g>
        <line x1="90.1462256" y1="7.0088506" x2="103.7872448" y2="7.0088506" style="stroke-width: 1;stroke: black;"/>
      </g>
      <g>
        <line x1="2.54" y1="47.1668602" x2="179.457858" y2="47.1668602" style="stroke-width: 1;stroke: black;"/>
      </g>
      <g>
        <line x1="2.54" y1="49.9798594" x2="179.63388" y2="49.9798594" style="stroke-width: 1;stroke: black;"/>
      </g>
      <g>
        <line x1="134.596378" y1="7.0088506" x2="148.237194" y2="7.0088506" style="stroke-width: 1;stroke: black;"/>
      </g>
      <g>
        <line x1="30.879288" y1="7.0088506" x2="44.520358" y2="7.0088506" style="stroke-width: 1;stroke: black;"/>
      </g>
      <g>
        <line x1="164.229288" y1="7.0088506" x2="179.16398" y2="7.0088506" style="stroke-width: 1;stroke: black;"/>
      </g>
      <g>
        <line x1="45.696124" y1="7.0088506" x2="59.337194" y2="7.0088506" style="stroke-width: 1;stroke: black;"/>
      </g>
      <g>
        <line x1="119.779288" y1="7.0088506" x2="133.420358" y2="7.0088506" style="stroke-width: 1;stroke: black;"/>
      </g>
    </g>
  </g>
</svg>
