<?xml version="1.0" encoding="utf-8"?>
<!-- Generator: www.crescit.com, SVG Export - SVG Version: 6.00 Build 1  -->
<!-- FXGUID: [4E02F434-744E-11EE-BE49-525400685065] SYMID: [19252]  -->
<svg xmlns="http://www.w3.org/2000/svg" version="1.1" ch_offset="0" color_bar_width="66" width="403.24024" height="442.518546" origin_x="195.966334" origin_y="223.819466" ch_offset_x="195.4595532" ch_offset_y="40" color_offset_x="195.966334" color_offset_y="-4">
  <g>
    <title>Layer 1</title>
    <g>
      <g>
        <polyline style="fill: gray;stroke: black;stroke-width: 1;" points="204.131418 91.919806, 230.24846 93.246194 230.24846 93.246194, 252.27661 96.1644 252.27661 96.1644, 267.49121 99.082098 267.49121 99.082098, 273.168364 100.409248 273.168364 100.409248, 293.693596 101.045518 293.693596 101.045518, 314.218574 101.682804 314.218574 101.682804, 334.743806 102.319836 334.743806 102.319836, 355.269546 102.957122 355.269546 102.957122, 357.127556 102.525322 357.127556 102.525322, 361.724194 102.41915 361.724194 102.41915, 367.59134 104.42448 367.59134 104.42448, 373.263922 110.327186 373.263922 110.327186, 378.823982 127.037846 378.823982 127.037846, 384.444494 155.847796 384.444494 155.847796, 388.794752 190.109856 388.794752 190.109856, 390.54024 223.17837 390.54024 223.17837, 390.54024 224.470722 390.54024 224.470722, 390.54024 225.762058 390.54024 225.762058, 390.54024 227.054156 390.54024 227.054156, 390.54024 228.346254 390.54024 228.346254, 388.794752 261.414006 388.794752 261.414006, 384.444494 295.67632 384.444494 295.67632, 378.823982 324.48627 378.823982 324.48627, 373.263922 341.197692 373.263922 341.197692, 367.59134 347.100398 367.59134 347.100398, 361.724194 349.105728 361.724194 349.105728, 357.127556 348.999556 357.127556 348.999556, 355.269546 348.567756 355.269546 348.567756, 334.743806 349.204026 334.743806 349.204026, 314.218574 349.841312 314.218574 349.841312, 293.693596 350.478344 293.693596 350.478344, 273.168364 351.11563 273.168364 351.11563, 267.49121 352.44278 267.49121 352.44278, 252.27661 355.360224 252.27661 355.360224, 230.24846 358.278684 230.24846 358.278684, 204.131418 359.605072 204.131418 359.605072, 200.336404 359.605072 200.336404 359.605072, 196.54139 359.605072 196.54139 359.605072, 192.74536 359.605072 192.74536 359.605072, 188.950346 359.605072 188.950346 359.605072, 162.833304 358.278684 162.833304 358.278684, 140.805154 355.360224 140.805154 355.360224, 125.590554 352.44278 125.590554 352.44278, 119.9134 351.11563 119.9134 351.11563, 99.388422 350.478344 99.388422 350.478344, 78.86319 349.841312 78.86319 349.841312, 58.338212 349.204026 58.338212 349.204026, 37.81298 348.567756 37.81298 348.567756, 35.95497 348.999556 35.95497 348.999556, 31.358332 349.105728 31.358332 349.105728, 25.490424 347.100398 25.490424 347.100398, 19.817842 341.197692 19.817842 341.197692, 14.25702 324.48627 14.25702 324.48627, 8.636508 295.67632 8.636508 295.67632, 4.28625 261.414006 4.28625 261.414006, 2.54 228.346254 2.54 228.346254, 2.54 227.054156 2.54 227.054156, 2.54 225.762058 2.54 225.762058, 2.54 224.470722 2.54 224.470722, 2.54 223.17837 2.54 223.17837, 4.28625 190.109856 4.28625 190.109856, 8.636508 155.847796 8.636508 155.847796, 14.25702 127.037846 14.25702 127.037846, 19.817842 110.327186 19.817842 110.327186, 25.490424 104.42448 25.490424 104.42448, 31.358332 102.41915 31.358332 102.41915, 35.95497 102.525322 35.95497 102.525322, 37.81298 102.957122 37.81298 102.957122, 58.338212 102.319836 58.338212 102.319836, 78.86319 101.682804 78.86319 101.682804, 99.388422 101.045518 99.388422 101.045518, 119.9134 100.409248 119.9134 100.409248, 125.590554 99.082098 125.590554 99.082098, 140.805154 96.1644 140.805154 96.1644, 162.833304 93.246194 162.833304 93.246194, 188.950346 91.919806 188.950346 91.919806, 192.74536 91.919806 192.74536 91.919806, 196.54139 91.919806 196.54139 91.919806, 200.336404 91.919806 200.336404 91.919806, 204.131418 91.919806 204.131418 91.919806, 204.131418 91.919806"/>
      </g>
      <g>
        <polyline style="fill: gray;stroke: black;stroke-width: 1;" points="323.39026 262.571484, 323.39026 268.958568 323.39026 268.958568, 323.39026 275.345906 323.39026 275.345906, 323.39026 281.732228 323.39026 281.732228, 323.39026 288.119566 323.39026 288.119566, 327.937114 288.119566 327.937114 288.119566, 338.525612 288.119566 338.525612 288.119566, 350.580706 288.119566 350.580706 288.119566, 359.5243 288.119566 359.5243 288.119566, 365.041942 287.543494 365.041942 287.543494, 369.559332 284.091126 369.559332 284.091126, 372.611142 275.177504 372.611142 275.177504, 373.732044 258.218178 373.732044 258.218178, 373.732044 242.324636 373.732044 242.324636, 373.732044 226.431094 373.732044 226.431094, 373.732044 210.537298 373.732044 210.537298, 373.732044 194.643756 373.732044 194.643756, 372.611142 177.68443 372.611142 177.68443, 369.559332 168.77157 369.559332 168.77157, 365.041942 165.320726 365.041942 165.320726, 359.5243 164.744908 359.5243 164.744908, 350.580706 164.744908 350.580706 164.744908, 338.525612 164.744908 338.525612 164.744908, 327.937114 164.744908 327.937114 164.744908, 323.39026 164.744908 323.39026 164.744908, 323.39026 171.13123 323.39026 171.13123, 323.39026 177.517552 323.39026 177.517552, 323.39026 183.90489 323.39026 183.90489, 323.39026 190.291212 323.39026 190.291212, 323.39026 208.361534 323.39026 208.361534, 323.39026 226.431094 323.39026 226.431094, 323.39026 244.501162 323.39026 244.501162, 323.39026 262.571484 323.39026 262.571484, 323.39026 262.571484"/>
      </g>
      <g>
        <polyline style="fill: gray;stroke: black;stroke-width: 1;" points="68.82892 262.571484, 68.82892 268.958568 68.82892 268.958568, 68.82892 275.345906 68.82892 275.345906, 68.82892 281.732228 68.82892 281.732228, 68.82892 288.119566 68.82892 288.119566, 64.282574 288.119566 64.282574 288.119566, 53.694076 288.119566 53.694076 288.119566, 41.639998 288.119566 41.639998 288.119566, 32.695388 288.119566 32.695388 288.119566, 27.177238 287.543494 27.177238 287.543494, 22.658832 284.091126 22.658832 284.091126, 19.607022 275.177504 19.607022 275.177504, 18.486374 258.218178 18.486374 258.218178, 18.486374 242.324636 18.486374 242.324636, 18.486374 226.431094 18.486374 226.431094, 18.486374 210.537298 18.486374 210.537298, 18.486374 194.643756 18.486374 194.643756, 19.607022 177.68443 19.607022 177.68443, 22.658832 168.77157 22.658832 168.77157, 27.177238 165.320726 27.177238 165.320726, 32.695388 164.744908 32.695388 164.744908, 41.639998 164.744908 41.639998 164.744908, 53.694076 164.744908 53.694076 164.744908, 64.282574 164.744908 64.282574 164.744908, 68.82892 164.744908 68.82892 164.744908, 68.82892 171.13123 68.82892 171.13123, 68.82892 177.517552 68.82892 177.517552, 68.82892 183.90489 68.82892 183.90489, 68.82892 190.291212 68.82892 190.291212, 68.82892 208.361534 68.82892 208.361534, 68.82892 226.431094 68.82892 226.431094, 68.82892 244.501162 68.82892 244.501162, 68.82892 262.571484 68.82892 262.571484, 68.82892 262.571484"/>
      </g>
      <g>
        <polyline style="fill: gray;stroke: black;stroke-width: 1;" points="329.761596 292.020752, 334.315562 292.020752 334.315562 292.020752, 344.466926 292.020752 344.466926 292.020752, 354.94849 292.020752 354.94849 292.020752, 360.493056 292.020752 360.493056 292.020752, 362.80217 290.873688 362.80217 290.873688, 366.163352 287.558226 366.163352 287.558226, 369.194842 282.261056 369.194842 282.261056, 370.512594 275.16836 370.512594 275.16836, 370.512594 250.60783 370.512594 250.60783, 370.512594 226.048062 370.512594 226.048062, 370.512594 201.488294 370.512594 201.488294, 370.512594 176.928526 370.512594 176.928526, 369.194842 169.836084 369.194842 169.836084, 366.163352 164.53866 366.163352 164.53866, 362.80217 161.22269 362.80217 161.22269, 360.493056 160.076134 360.493056 160.076134, 354.94849 160.076134 354.94849 160.076134, 344.466926 160.076134 344.466926 160.076134, 334.315562 160.076134 334.315562 160.076134, 329.761596 160.076134 329.761596 160.076134, 329.761596 193.062606 329.761596 193.062606, 329.761596 226.048062 329.761596 226.048062, 329.761596 259.034534 329.761596 259.034534, 329.761596 292.020752 329.761596 292.020752, 329.761596 292.020752"/>
      </g>
      <g>
        <polyline style="fill: gray;stroke: black;stroke-width: 1;" points="61.309758 292.020752, 70.97522 293.874952 70.97522 293.874952, 80.640428 295.729914 80.640428 295.729914, 90.305636 297.584876 90.305636 297.584876, 99.970336 299.439076 99.970336 299.439076, 147.73021 299.439076 147.73021 299.439076, 195.489322 299.439076 195.489322 299.439076, 243.247672 299.439076 243.247672 299.439076, 291.006784 299.439076 291.006784 299.439076, 300.671992 297.584876 300.671992 297.584876, 310.3372 295.729914 310.3372 295.729914, 320.002662 293.874952 320.002662 293.874952, 329.66787 292.020752 329.66787 292.020752, 329.66787 259.034534 329.66787 259.034534, 329.66787 226.048062 329.66787 226.048062, 329.66787 193.062606 329.66787 193.062606, 329.66787 160.076134 329.66787 160.076134, 320.002662 158.221172 320.002662 158.221172, 310.3372 156.366972 310.3372 156.366972, 300.671992 154.513026 300.671992 154.513026, 291.006784 152.658064 291.006784 152.658064, 243.247672 152.658064 243.247672 152.658064, 195.489322 152.658064 195.489322 152.658064, 147.73021 152.658064 147.73021 152.658064, 99.970336 152.658064 99.970336 152.658064, 90.305636 154.513026 90.305636 154.513026, 80.640428 156.366972 80.640428 156.366972, 70.97522 158.221172 70.97522 158.221172, 61.309758 160.076134 61.309758 160.076134, 61.309758 193.062606 61.309758 193.062606, 61.309758 226.048062 61.309758 226.048062, 61.309758 259.034534 61.309758 259.034534, 61.309758 292.020752 61.309758 292.020752, 61.309758 292.020752"/>
      </g>
      <g>
        <polyline style="fill: gray;stroke: black;stroke-width: 1;" points="61.309758 292.020752, 56.755792 292.020752 56.755792 292.020752, 46.604428 292.020752 46.604428 292.020752, 36.122864 292.020752 36.122864 292.020752, 30.578298 292.020752 30.578298 292.020752, 28.269946 290.873688 28.269946 290.873688, 24.908256 287.558226 24.908256 287.558226, 21.876512 282.261056 21.876512 282.261056, 20.55876 275.16836 20.55876 275.16836, 20.55876 250.60783 20.55876 250.60783, 20.55876 226.048062 20.55876 226.048062, 20.55876 201.488294 20.55876 201.488294, 20.55876 176.928526 20.55876 176.928526, 21.876512 169.836084 21.876512 169.836084, 24.908256 164.53866 24.908256 164.53866, 28.269946 161.22269 28.269946 161.22269, 30.578298 160.076134 30.578298 160.076134, 36.122864 160.076134 36.122864 160.076134, 46.604428 160.076134 46.604428 160.076134, 56.755792 160.076134 56.755792 160.076134, 61.309758 160.076134 61.309758 160.076134, 61.309758 193.062606 61.309758 193.062606, 61.309758 226.048062 61.309758 226.048062, 61.309758 259.034534 61.309758 259.034534, 61.309758 292.020752 61.309758 292.020752, 61.309758 292.020752"/>
      </g>
      <g>
        <polyline style="fill: gray;stroke: black;stroke-width: 1;" points="61.653166 250.583954, 63.179452 250.583954 63.179452 250.583954, 64.7065 250.583954 64.7065 250.583954, 66.232786 250.583954 66.232786 250.583954, 67.759072 250.583954 67.759072 250.583954, 67.759072 237.33887 67.759072 237.33887, 67.759072 224.09404 67.759072 224.09404, 67.759072 210.848194 67.759072 210.848194, 67.759072 197.603364 67.759072 197.603364, 66.232786 197.603364 66.232786 197.603364, 64.7065 197.603364 64.7065 197.603364, 63.179452 197.603364 63.179452 197.603364, 61.653166 197.603364 61.653166 197.603364, 61.653166 210.848194 61.653166 210.848194, 61.653166 224.09404 61.653166 224.09404, 61.653166 237.33887 61.653166 237.33887, 61.653166 250.583954 61.653166 250.583954, 61.653166 250.583954"/>
      </g>
      <g>
        <polyline style="fill: gray;stroke: black;stroke-width: 1;" points="323.756528 250.583954, 325.283576 250.583954 325.283576 250.583954, 326.8091 250.583954 326.8091 250.583954, 328.336148 250.583954 328.336148 250.583954, 329.863196 250.583954 329.863196 250.583954, 329.863196 237.33887 329.863196 237.33887, 329.863196 224.09404 329.863196 224.09404, 329.863196 210.848194 329.863196 210.848194, 329.863196 197.603364 329.863196 197.603364, 328.336148 197.603364 328.336148 197.603364, 326.8091 197.603364 326.8091 197.603364, 325.283576 197.603364 325.283576 197.603364, 323.756528 197.603364 323.756528 197.603364, 323.756528 210.848194 323.756528 210.848194, 323.756528 224.09404 323.756528 224.09404, 323.756528 237.33887 323.756528 237.33887, 323.756528 250.583954 323.756528 250.583954, 323.756528 250.583954"/>
      </g>
      <g>
        <polyline style="fill: gray;stroke: black;stroke-width: 1;" points="268.297914 429.818546, 276.133052 429.176688 276.133052 429.176688, 280.776172 427.763686 280.776172 427.763686, 282.996386 426.350684 282.996386 426.350684, 283.565346 425.708064 283.565346 425.708064, 292.346126 411.845252 292.346126 411.845252, 305.365404 388.787894 305.365404 388.787894, 317.174118 367.16208 317.174118 367.16208, 322.32092 357.592884 322.32092 357.592884, 323.054218 339.68309 323.054218 339.68309, 323.78904 321.773296 323.78904 321.773296, 324.522338 303.863502 324.522338 303.863502, 325.257414 285.953708 325.257414 285.953708, 324.74408 254.832358 324.74408 254.832358, 324.232524 223.71177 324.232524 223.71177, 323.719444 192.59042 323.719444 192.59042, 323.206364 161.469832 323.206364 161.469832, 321.508628 160.690814 321.508628 160.690814, 319.811146 159.912558 319.811146 159.912558, 318.113664 159.134302 318.113664 159.134302, 316.415928 158.356046 316.415928 158.356046, 306.717446 95.87611 306.717446 95.87611, 298.517818 53.050948 298.517818 53.050948, 292.842188 28.424378 292.842188 28.424378, 290.723066 20.538948 290.723066 20.538948, 289.254946 19.285458 289.254946 19.285458, 287.786826 18.03146 287.786826 18.03146, 286.316928 16.777208 286.316928 16.777208, 284.848808 15.522956 284.848808 15.522956, 284.03042 12.277344 284.03042 12.277344, 283.211778 9.031224 283.211778 9.031224, 282.393136 5.785612 282.393136 5.785612, 281.574748 2.54 281.574748 2.54, 264.605262 2.54 264.605262 2.54, 247.633236 2.54 247.633236 2.54, 230.662988 2.54 230.662988 2.54, 213.69274 2.54 213.69274 2.54, 204.7367 2.54 204.7367 2.54, 195.779898 2.54 195.779898 2.54, 186.823858 2.54 186.823858 2.54, 177.86858 2.54 177.86858 2.54, 160.89757 2.54 160.89757 2.54, 143.92656 2.54 143.92656 2.54, 126.956312 2.54 126.956312 2.54, 109.985048 2.54 109.985048 2.54, 109.16666 5.785612 109.16666 5.785612, 108.34878 9.031224 108.34878 9.031224, 107.530138 12.277344 107.530138 12.277344, 106.712512 15.522956 106.712512 15.522956, 105.24363 16.777208 105.24363 16.777208, 103.77551 18.03146 103.77551 18.03146, 102.306628 19.285458 102.306628 19.285458, 100.837746 20.538948 100.837746 20.538948, 98.717608 28.424378 98.717608 28.424378, 93.04274 53.050948 93.04274 53.050948, 84.843366 95.87611 84.843366 95.87611, 75.145392 158.356046 75.145392 158.356046, 73.44791 159.134302 73.44791 159.134302, 71.750174 159.912558 71.750174 159.912558, 70.052692 160.690814 70.052692 160.690814, 68.354448 161.469832 68.354448 161.469832, 67.841876 192.59042 67.841876 192.59042, 67.329558 223.71177 67.329558 223.71177, 66.816478 254.832358 66.816478 254.832358, 66.30416 285.953708 66.30416 285.953708, 67.03822 303.863502 67.03822 303.863502, 67.77228 321.773296 67.77228 321.773296, 68.50634 339.68309 68.50634 339.68309, 69.2404 357.592884 69.2404 357.592884, 74.387202 367.16208 74.387202 367.16208, 86.195916 388.787894 86.195916 388.787894, 99.215194 411.845252 99.215194 411.845252, 107.995212 425.708064 107.995212 425.708064, 108.564172 426.350684 108.564172 426.350684, 110.784386 427.763686 110.784386 427.763686, 115.427506 429.176688 115.427506 429.176688, 123.262644 429.818546 123.262644 429.818546, 159.521652 429.818546 159.521652 429.818546, 195.779898 429.818546 195.779898 429.818546, 232.038906 429.818546 232.038906 429.818546, 268.297914 429.818546 268.297914 429.818546, 268.297914 429.818546"/>
      </g>
      <g>
        <polyline style="fill: transparent;stroke: black;stroke-width: 1;" points="97.804478 32.09163, 146.935698 32.09163 146.935698 32.09163, 196.065902 32.09163 196.065902 32.09163, 245.19636 32.09163 245.19636 32.09163, 294.327326 32.09163"/>
      </g>
      <g>
        <polyline style="fill: transparent;stroke: black;stroke-width: 1;" points="323.426328 214.1474, 313.781948 214.1474 313.781948 214.1474, 304.137568 214.1474 304.137568 214.1474, 294.493188 214.1474 294.493188 214.1474, 284.848808 214.1474 284.848808 214.1474, 279.453848 217.71229 279.453848 217.71229, 274.060412 221.27718 274.060412 221.27718, 268.666976 224.84207 268.666976 224.84207, 263.272016 228.407722 263.272016 228.407722, 255.201166 228.407722 255.201166 228.407722, 247.131078 228.407722 247.131078 228.407722, 239.06099 228.407722 239.06099 228.407722, 230.989378 228.407722 230.989378 228.407722, 213.29904 228.407722 213.29904 228.407722, 195.608702 228.407722 195.608702 228.407722, 177.91811 228.407722 177.91811 228.407722, 160.22701 228.407722 160.22701 228.407722, 152.15616 228.407722 152.15616 228.407722, 144.08531 228.407722 144.08531 228.407722, 136.015222 228.407722 136.015222 228.407722, 127.944626 228.407722 127.944626 228.407722, 122.550174 224.84207 122.550174 224.84207, 117.155976 221.27718 117.155976 221.27718, 111.76254 217.71229 111.76254 217.71229, 106.368342 214.1474 106.368342 214.1474, 96.7232 214.1474 96.7232 214.1474, 87.07882 214.1474 87.07882 214.1474, 77.43444 214.1474 77.43444 214.1474, 67.789298 214.1474"/>
      </g>
      <g>
        <polyline style="fill: transparent;stroke: black;stroke-width: 1;" points="154.972258 209.61731, 157.744922 166.75481 157.744922 166.75481, 160.517586 123.893072 160.517586 123.893072, 163.289742 81.031334 163.289742 81.031334, 166.062406 38.169596 166.062406 38.169596, 164.616638 38.169596 164.616638 38.169596, 163.170362 38.169596 163.170362 38.169596, 161.724594 38.169596 161.724594 38.169596, 160.278064 38.169596 160.278064 38.169596, 157.043628 81.177892 157.043628 81.177892, 153.807922 124.18695 153.807922 124.18695, 150.573232 167.194992 150.573232 167.194992, 147.338796 210.20405"/>
      </g>
      <g>
        <polyline style="fill: transparent;stroke: black;stroke-width: 1;" points="173.175168 210.053682, 174.607474 166.952422 174.607474 166.952422, 176.040034 123.851162 176.040034 123.851162, 177.472594 80.749902 177.472594 80.749902, 178.9049 37.648642 178.9049 37.648642, 177.428398 37.648642 177.428398 37.648642, 175.951642 37.648642 175.951642 37.648642, 174.474124 37.648642 174.474124 37.648642, 172.997622 37.648642 172.997622 37.648642, 170.986958 80.93456 170.986958 80.93456, 168.97604 124.220224 168.97604 124.220224, 166.965376 167.505888 166.965376 167.505888, 164.954712 210.791552"/>
      </g>
      <g>
        <polyline style="fill: transparent;stroke: black;stroke-width: 1;" points="200.561702 210.053682, 200.404476 166.90213 200.404476 166.90213, 200.246996 123.749562 200.246996 123.749562, 200.089008 80.59801 200.089008 80.59801, 199.93229 37.445696 199.93229 37.445696, 201.270362 37.445696 201.270362 37.445696, 202.60818 37.445696 202.60818 37.445696, 203.945998 37.445696 203.945998 37.445696, 205.284832 37.445696 205.284832 37.445696, 206.1591 80.48879 206.1591 80.48879, 207.033368 123.531122 207.033368 123.531122, 207.90789 166.574216 207.90789 166.574216, 208.782158 209.61731"/>
      </g>
      <g>
        <polyline style="fill: transparent;stroke: black;stroke-width: 1;" points="323.426328 195.79336, 313.781948 195.79336 313.781948 195.79336, 304.137568 195.79336 304.137568 195.79336, 294.493188 195.79336 294.493188 195.79336, 284.848808 195.79336 284.848808 195.79336, 279.453848 199.359012 279.453848 199.359012, 274.060412 202.923902 274.060412 202.923902, 268.666976 206.488792 268.666976 206.488792, 263.272016 210.053682 263.272016 210.053682, 255.201166 210.053682 255.201166 210.053682, 247.131078 210.053682 247.131078 210.053682, 239.06099 210.053682 239.06099 210.053682, 230.989378 210.053682 230.989378 210.053682, 213.29904 210.053682 213.29904 210.053682, 195.608702 210.053682 195.608702 210.053682, 177.91811 210.053682 177.91811 210.053682, 160.22701 210.053682 160.22701 210.053682, 152.15616 210.053682 152.15616 210.053682, 144.08531 210.053682 144.08531 210.053682, 136.015222 210.053682 136.015222 210.053682, 127.944626 210.053682 127.944626 210.053682, 122.550174 206.488792 122.550174 206.488792, 117.155976 202.923902 117.155976 202.923902, 111.76254 199.359012 111.76254 199.359012, 106.368342 195.79336 106.368342 195.79336, 96.7232 195.79336 96.7232 195.79336, 87.07882 195.79336 87.07882 195.79336, 77.43444 195.79336 77.43444 195.79336, 67.789298 195.79336"/>
      </g>
      <g>
        <polyline style="fill: transparent;stroke: black;stroke-width: 1;" points="138.529822 209.61731, 142.10792 166.695882 142.10792 166.695882, 145.685256 123.775216 145.685256 123.775216, 149.263354 80.85455 149.263354 80.85455, 152.84069 37.933884 152.84069 37.933884, 151.184102 37.933884 151.184102 37.933884, 149.526244 37.933884 149.526244 37.933884, 147.868894 37.933884 147.868894 37.933884, 146.211544 37.933884 146.211544 37.933884, 142.089378 81.00187 142.089378 81.00187, 137.967212 124.069094 137.967212 124.069094, 133.845046 167.13708 133.845046 167.13708, 129.722626 210.20405"/>
      </g>
      <g>
        <polyline style="fill: transparent;stroke: black;stroke-width: 1;" points="236.96803 209.61731, 234.196128 166.75481 234.196128 166.75481, 231.423464 123.893072 231.423464 123.893072, 228.6508 81.031334 228.6508 81.031334, 225.878898 38.169596 225.878898 38.169596, 227.32365 38.169596 227.32365 38.169596, 228.77018 38.169596 228.77018 38.169596, 230.215694 38.169596 230.215694 38.169596, 231.662224 38.169596 231.662224 38.169596, 234.896914 81.177892 234.896914 81.177892, 238.132366 124.18695 238.132366 124.18695, 241.367056 167.194992 241.367056 167.194992, 244.601746 210.20405"/>
      </g>
      <g>
        <polyline style="fill: transparent;stroke: black;stroke-width: 1;" points="218.765374 210.053682, 217.332814 166.952422 217.332814 166.952422, 215.900508 123.851162 215.900508 123.851162, 214.467948 80.749902 214.467948 80.749902, 213.035388 37.648642 213.035388 37.648642, 214.512144 37.648642 214.512144 37.648642, 215.988646 37.648642 215.988646 37.648642, 217.465402 37.648642 217.465402 37.648642, 218.94292 37.648642 218.94292 37.648642, 220.953584 80.93456 220.953584 80.93456, 222.964248 124.220224 222.964248 124.220224, 224.975166 167.505888 224.975166 167.505888, 226.98583 210.791552"/>
      </g>
      <g>
        <polyline style="fill: transparent;stroke: black;stroke-width: 1;" points="191.378586 210.053682, 191.536066 166.90213 191.536066 166.90213, 191.693292 123.749562 191.693292 123.749562, 191.850772 80.59801 191.850772 80.59801, 192.007998 37.445696 192.007998 37.445696, 190.67018 37.445696 190.67018 37.445696, 189.332362 37.445696 189.332362 37.445696, 187.99429 37.445696 187.99429 37.445696, 186.65571 37.445696 186.65571 37.445696, 185.781188 80.48879 185.781188 80.48879, 184.90692 123.531122 184.90692 123.531122, 184.032652 166.574216 184.032652 166.574216, 183.15813 209.61731"/>
      </g>
      <g>
        <polyline style="fill: transparent;stroke: black;stroke-width: 1;" points="271.659096 204.989684, 266.950698 163.02863 266.950698 163.02863, 262.242554 121.068338 262.242554 121.068338, 257.53441 79.1083 257.53441 79.1083, 252.826012 37.147246 252.826012 37.147246, 254.252222 37.147246 254.252222 37.147246, 255.68021 37.147246 255.68021 37.147246, 257.10642 37.147246 257.10642 37.147246, 258.534154 37.147246 258.534154 37.147246, 263.701276 77.861668 263.701276 77.861668, 268.866874 118.576344 268.866874 118.576344, 274.033996 159.29102 274.033996 159.29102, 279.199594 200.00468"/>
      </g>
      <g>
        <polyline style="fill: transparent;stroke: black;stroke-width: 1;" points="253.410466 209.61731, 249.832368 166.695882 249.832368 166.695882, 246.255032 123.775216 246.255032 123.775216, 242.677188 80.85455 242.677188 80.85455, 239.099852 37.933884 239.099852 37.933884, 240.756186 37.933884 240.756186 37.933884, 242.413536 37.933884 242.413536 37.933884, 244.071648 37.933884 244.071648 37.933884, 245.728744 37.933884 245.728744 37.933884, 249.851164 81.00187 249.851164 81.00187, 253.97333 124.069094 253.97333 124.069094, 258.095496 167.13708 258.095496 167.13708, 262.217662 210.20405"/>
      </g>
      <g>
        <polyline style="fill: transparent;stroke: black;stroke-width: 1;" points="323.426328 327.224898, 313.781948 327.224898 313.781948 327.224898, 304.137568 327.224898 304.137568 327.224898, 294.493188 327.224898 294.493188 327.224898, 284.848808 327.224898 284.848808 327.224898, 279.453848 323.660008 279.453848 323.660008, 274.060412 320.095118 274.060412 320.095118, 268.666976 316.530228 268.666976 316.530228, 263.272016 312.965338 263.272016 312.965338, 255.201166 312.965338 255.201166 312.965338, 247.131078 312.965338 247.131078 312.965338, 239.06099 312.965338 239.06099 312.965338, 230.989378 312.965338 230.989378 312.965338, 213.29904 312.965338 213.29904 312.965338, 195.608702 312.965338 195.608702 312.965338, 177.91811 312.965338 177.91811 312.965338, 160.22701 312.965338 160.22701 312.965338, 152.15616 312.965338 152.15616 312.965338, 144.08531 312.965338 144.08531 312.965338, 136.015222 312.965338 136.015222 312.965338, 127.944626 312.965338 127.944626 312.965338, 122.550174 316.530228 122.550174 316.530228, 117.155976 320.095118 117.155976 320.095118, 111.76254 323.660008 111.76254 323.660008, 106.368342 327.224898 106.368342 327.224898, 96.7232 327.224898 96.7232 327.224898, 87.07882 327.224898 87.07882 327.224898, 77.43444 327.224898 77.43444 327.224898, 67.789298 327.224898"/>
      </g>
      <g>
        <polyline style="fill: transparent;stroke: black;stroke-width: 1;" points="323.426328 308.873398, 313.781948 308.873398 313.781948 308.873398, 304.137568 308.873398 304.137568 308.873398, 294.493188 308.873398 294.493188 308.873398, 284.848808 308.873398 284.848808 308.873398, 279.453848 305.307492 279.453848 305.307492, 274.060412 301.74184 274.060412 301.74184, 268.666976 298.176188 268.666976 298.176188, 263.272016 294.610536 263.272016 294.610536, 255.201166 294.610536 255.201166 294.610536, 247.131078 294.610536 247.131078 294.610536, 239.06099 294.610536 239.06099 294.610536, 230.989378 294.610536 230.989378 294.610536, 213.29904 294.610536 213.29904 294.610536, 195.608702 294.610536 195.608702 294.610536, 177.91811 294.610536 177.91811 294.610536, 160.22701 294.610536 160.22701 294.610536, 152.15616 294.610536 152.15616 294.610536, 144.08531 294.610536 144.08531 294.610536, 136.015222 294.610536 136.015222 294.610536, 127.944626 294.610536 127.944626 294.610536, 122.550174 298.176188 122.550174 298.176188, 117.155976 301.74184 117.155976 301.74184, 111.76254 305.307492 111.76254 305.307492, 106.368342 308.873398 106.368342 308.873398, 96.7232 308.873398 96.7232 308.873398, 87.07882 308.873398 87.07882 308.873398, 77.43444 308.873398 77.43444 308.873398, 67.789298 308.873398"/>
      </g>
      <g>
        <polyline style="fill: transparent;stroke: black;stroke-width: 1;" points="120.280684 204.989684, 124.98959 163.02863 124.98959 163.02863, 129.697988 121.068338 129.697988 121.068338, 134.406132 79.1083 134.406132 79.1083, 139.115038 37.147246 139.115038 37.147246, 137.688066 37.147246 137.688066 37.147246, 136.260332 37.147246 136.260332 37.147246, 134.833106 37.147246 134.833106 37.147246, 133.406134 37.147246 133.406134 37.147246, 128.239774 77.861668 128.239774 77.861668, 123.073414 118.576344 123.073414 118.576344, 117.906292 159.29102 117.906292 159.29102, 112.739932 200.00468"/>
      </g>
      <g>
        <polyline style="fill: gray;stroke: black;stroke-width: 1;" points="274.837144 276.461982, 235.21162 276.461982 235.21162 276.461982, 195.585334 276.461982 195.585334 276.461982, 155.95981 276.461982 155.95981 276.461982, 116.333524 276.461982 116.333524 276.461982, 116.333524 268.871954 116.333524 268.871954, 116.333524 261.281672 116.333524 261.281672, 116.333524 253.69139 116.333524 253.69139, 116.333524 246.10187 116.333524 246.10187, 155.95981 246.10187 155.95981 246.10187, 195.585334 246.10187 195.585334 246.10187, 235.21162 246.10187 235.21162 246.10187, 274.837144 246.10187 274.837144 246.10187, 274.837144 253.69139 274.837144 253.69139, 274.837144 261.281672 274.837144 261.281672, 274.837144 268.871954 274.837144 268.871954, 274.837144 276.461982 274.837144 276.461982, 274.837144 276.461982"/>
      </g>
    </g>
  </g>
</svg>
