<?xml version="1.0" encoding="utf-8"?>
<!-- Generator: www.crescit.com, SVG Export - SVG Version: 6.00 Build 1  -->
<!-- FXGUID: [F66F237B-1320-11EC-9CFA-525400685065] SYMID: [17065]  -->
<svg xmlns="http://www.w3.org/2000/svg" version="1.1" ch_offset="0" color_bar_width="66" width="316.409324" height="231.14" origin_x="153.412698" origin_y="113.862866" ch_offset_x="154.9032462" ch_offset_y="40" color_offset_x="153.412698" color_offset_y="-4">
  <g>
    <title>Layer 1</title>
    <g>
      <g>
        <polyline style="fill: gray;stroke: black;stroke-width: 1;" points="299.621194 88.557354, 290.505388 73.277476 290.505388 73.277476, 277.57374 58.992516 277.57374 58.992516, 277.57374 25.806908 277.57374 25.806908, 28.675584 25.806908 28.675584 25.806908, 28.675584 58.992516 28.675584 58.992516, 15.743936 73.277476 15.743936 73.277476, 6.628892 88.557354 6.628892 88.557354, 2.54 106.28249 2.54 106.28249, 2.54 123.290838 2.54 123.290838, 6.628892 141.016228 6.628892 141.016228, 15.743936 156.295852 15.743936 156.295852, 28.675584 170.580304 28.675584 170.580304, 28.675584 203.766674 28.675584 203.766674, 277.57374 203.766674 277.57374 203.766674, 277.57374 170.580304 277.57374 170.580304, 290.505388 156.295852 290.505388 156.295852, 299.621194 141.016228 299.621194 141.016228, 303.709324 123.290838 303.709324 123.290838, 303.709324 106.28249 303.709324 106.28249, 299.621194 88.557354 299.621194 88.557354, 299.621194 88.557354"/>
      </g>
      <g>
        <polyline style="fill: gray;stroke: black;stroke-width: 1;" points="47.470568 155.598876, 32.224218 155.598876 32.224218 155.598876, 21.638006 140.287502 21.638006 140.287502, 17.911826 119.005096 17.911826 119.005096, 17.911826 110.568232 17.911826 110.568232, 21.638006 89.285826 21.638006 89.285826, 32.224218 73.974452 32.224218 73.974452, 47.470568 73.974452 47.470568 73.974452, 47.470568 155.598876 47.470568 155.598876, 47.470568 155.598876"/>
      </g>
      <g>
        <polyline style="fill: gray;stroke: black;stroke-width: 1;" points="288.338006 119.005096, 284.611064 140.287502 284.611064 140.287502, 274.025106 155.598876 274.025106 155.598876, 258.778756 155.598876 258.778756 155.598876, 258.778756 73.974452 258.778756 73.974452, 274.025106 73.974452 274.025106 73.974452, 284.611064 89.285826 284.611064 89.285826, 288.338006 110.568232 288.338006 110.568232, 288.338006 119.005096 288.338006 119.005096, 288.338006 119.005096"/>
      </g>
      <g>
        <polyline style="fill: gray;stroke: black;stroke-width: 1;" points="283.484066 91.224608, 280.317702 76.155804 280.317702 76.155804, 25.931622 76.155804 25.931622 76.155804, 22.765004 91.224608 22.765004 91.224608, 21.641054 107.998768 21.641054 107.998768, 21.641054 121.575322 21.641054 121.575322, 22.765004 138.349482 22.765004 138.349482, 25.931622 153.41854 25.931622 153.41854, 280.317702 153.41854 280.317702 153.41854, 283.484066 138.349482 283.484066 138.349482, 284.608778 121.575322 284.608778 121.575322, 284.608778 107.998768 284.608778 107.998768, 283.484066 91.224608 283.484066 91.224608, 283.484066 91.224608"/>
      </g>
      <g>
        <polyline style="fill: gray;stroke: black;stroke-width: 1;" points="248.474738 100.785168, 248.474738 94.182438 248.474738 94.182438, 241.24793 94.182438 241.24793 94.182438, 241.24793 135.39089 241.24793 135.39089, 248.474738 135.39089 248.474738 135.39089, 248.474738 128.788922 248.474738 128.788922, 252.088396 128.788922 252.088396 128.788922, 252.088396 100.785168 252.088396 100.785168, 248.474738 100.785168 248.474738 100.785168, 248.474738 100.785168"/>
      </g>
      <g>
        <polyline style="fill: gray;stroke: black;stroke-width: 1;" points="252.088396 153.41854, 280.317702 153.41854 280.317702 153.41854, 283.484066 138.349482 283.484066 138.349482, 284.608778 121.575322 284.608778 121.575322, 284.608778 107.998768 284.608778 107.998768, 283.484066 91.224608 283.484066 91.224608, 280.317702 76.155804 280.317702 76.155804, 252.088396 76.155804 252.088396 76.155804, 252.088396 153.41854 252.088396 153.41854, 252.088396 153.41854"/>
      </g>
      <g>
        <polyline style="fill: gray;stroke: black;stroke-width: 1;" points="57.774586 100.785168, 57.774586 94.182438 57.774586 94.182438, 65.001394 94.182438 65.001394 94.182438, 65.001394 135.39089 65.001394 135.39089, 57.774586 135.39089 57.774586 135.39089, 57.774586 128.788922 57.774586 128.788922, 54.16169 128.788922 54.16169 128.788922, 54.16169 100.785168 54.16169 100.785168, 57.774586 100.785168 57.774586 100.785168, 57.774586 100.785168"/>
      </g>
      <g>
        <polyline style="fill: gray;stroke: black;stroke-width: 1;" points="54.16169 153.41854, 25.931622 153.41854 25.931622 153.41854, 22.765004 138.349482 22.765004 138.349482, 21.641054 121.575322 21.641054 121.575322, 21.641054 107.998768 21.641054 107.998768, 22.765004 91.224608 22.765004 91.224608, 25.931622 76.155804 25.931622 76.155804, 54.16169 76.155804 54.16169 76.155804, 54.16169 153.41854 54.16169 153.41854, 54.16169 153.41854"/>
      </g>
      <g>
        <polyline style="fill: gray;stroke: black;stroke-width: 1;" points="255.250188 2.54, 255.250188 19.252184 255.250188 19.252184, 241.24793 67.581018 241.24793 67.581018, 241.24793 148.882354 241.24793 148.882354, 238.17072 173.580806 238.17072 173.580806, 231.679496 193.936874 231.679496 193.936874, 222.821246 208.074768 222.821246 208.074768, 216.40292 213.918546 216.40292 213.918546, 207.372458 218.44 207.372458 218.44, 98.877628 218.44 98.877628 218.44, 89.847166 213.918546 89.847166 213.918546, 83.42884 208.074768 83.42884 208.074768, 74.57059 193.936874 74.57059 193.936874, 68.078604 173.580806 68.078604 173.580806, 65.001394 148.882354 65.001394 148.882354, 65.001394 67.581018 65.001394 67.581018, 50.999898 19.252184 50.999898 19.252184, 50.999898 2.54 50.999898 2.54, 255.250188 2.54 255.250188 2.54, 255.250188 2.54"/>
      </g>
      <g>
        <polyline style="fill: gray;stroke: black;stroke-width: 1;" points="255.250188 19.252184, 50.999898 19.252184 50.999898 19.252184, 50.999898 2.54 50.999898 2.54, 255.250188 2.54 255.250188 2.54, 255.250188 19.252184"/>
      </g>
      <g>
        <polyline style="fill: gray;stroke: black;stroke-width: 1;" points="185.982356 141.885924, 120.266968 141.885924 120.266968 141.885924, 120.266968 26.037032 120.266968 26.037032, 185.982356 26.037032 185.982356 26.037032, 185.982356 141.885924"/>
      </g>
      <g>
        <polyline style="fill: gray;stroke: black;stroke-width: 1;" points="177.740818 198.340472, 177.740818 207.373982 177.740818 207.373982, 175.506888 214.26424 175.506888 214.26424, 169.836846 218.44 169.836846 218.44, 136.412478 218.44 136.412478 218.44, 130.742944 214.26424 130.742944 214.26424, 128.508252 207.373982 128.508252 207.373982, 128.508252 198.340472 128.508252 198.340472, 177.740818 198.340472 177.740818 198.340472, 177.740818 198.340472"/>
      </g>
      <g>
        <polyline style="fill: gray;stroke: black;stroke-width: 1;" points="104.974136 187.614814, 95.489268 187.614814 95.489268 187.614814, 95.489268 148.321776 95.489268 148.321776, 104.974136 148.321776 104.974136 148.321776, 104.974136 187.614814"/>
      </g>
      <g>
        <polyline style="fill: gray;stroke: black;stroke-width: 1;" points="126.131574 187.614814, 116.64696 187.614814 116.64696 187.614814, 116.64696 148.321776 116.64696 148.321776, 126.131574 148.321776 126.131574 148.321776, 126.131574 187.614814"/>
      </g>
      <g>
        <polyline style="fill: gray;stroke: black;stroke-width: 1;" points="147.288504 187.614814, 137.80389 187.614814 137.80389 187.614814, 137.80389 148.321776 137.80389 148.321776, 147.288504 148.321776 147.288504 148.321776, 147.288504 187.614814"/>
      </g>
      <g>
        <polyline style="fill: gray;stroke: black;stroke-width: 1;" points="168.445434 187.614814, 158.960566 187.614814 158.960566 187.614814, 158.960566 148.321776 158.960566 148.321776, 168.445434 148.321776 168.445434 148.321776, 168.445434 187.614814"/>
      </g>
      <g>
        <polyline style="fill: gray;stroke: black;stroke-width: 1;" points="189.602364 187.614814, 180.117496 187.614814 180.117496 187.614814, 180.117496 148.321776 180.117496 148.321776, 189.602364 148.321776 189.602364 148.321776, 189.602364 187.614814"/>
      </g>
      <g>
        <polyline style="fill: gray;stroke: black;stroke-width: 1;" points="210.759802 187.614814, 201.275188 187.614814 201.275188 187.614814, 201.275188 148.321776 201.275188 148.321776, 210.759802 148.321776 210.759802 148.321776, 210.759802 187.614814"/>
      </g>
      <g>
        <polyline style="fill: gray;stroke: black;stroke-width: 1;" points="200.217786 114.786664, 200.217786 70.073012 200.217786 70.073012, 206.315056 33.489392 206.315056 33.489392, 200.217786 33.489392 200.217786 33.489392, 194.119754 70.073012 194.119754 70.073012, 194.119754 114.786664 194.119754 114.786664, 200.217786 114.786664"/>
      </g>
      <g>
        <polyline style="fill: gray;stroke: black;stroke-width: 1;" points="213.679786 114.786664, 213.679786 70.073012 213.679786 70.073012, 219.777818 33.489392 219.777818 33.489392, 213.679786 33.489392 213.679786 33.489392, 207.582516 70.073012 207.582516 70.073012, 207.582516 114.786664 207.582516 114.786664, 213.679786 114.786664"/>
      </g>
      <g>
        <polyline style="fill: gray;stroke: black;stroke-width: 1;" points="227.142548 114.786664, 227.142548 70.073012 227.142548 70.073012, 233.239818 33.489392 233.239818 33.489392, 227.142548 33.489392 227.142548 33.489392, 221.045278 70.073012 221.045278 70.073012, 221.045278 114.786664 221.045278 114.786664, 227.142548 114.786664"/>
      </g>
      <g>
        <polyline style="fill: gray;stroke: black;stroke-width: 1;" points="106.032046 114.786664, 106.032046 70.073012 106.032046 70.073012, 99.934776 33.489392 99.934776 33.489392, 106.032046 33.489392 106.032046 33.489392, 112.129316 70.073012 112.129316 70.073012, 112.129316 114.786664 112.129316 114.786664, 106.032046 114.786664"/>
      </g>
      <g>
        <polyline style="fill: gray;stroke: black;stroke-width: 1;" points="92.569284 114.786664, 92.569284 70.073012 92.569284 70.073012, 86.472014 33.489392 86.472014 33.489392, 92.569284 33.489392 92.569284 33.489392, 98.666808 70.073012 98.666808 70.073012, 98.666808 114.786664 98.666808 114.786664, 92.569284 114.786664"/>
      </g>
      <g>
        <polyline style="fill: gray;stroke: black;stroke-width: 1;" points="79.106522 114.786664, 79.106522 70.073012 79.106522 70.073012, 73.009252 33.489392 73.009252 33.489392, 79.106522 33.489392 79.106522 33.489392, 85.204046 70.073012 85.204046 70.073012, 85.204046 114.786664 85.204046 114.786664, 79.106522 114.786664"/>
      </g>
      <g>
        <line x1="65.046352" y1="148.22297" x2="241.292888" y2="148.22297" style="stroke-width: 1;stroke: black;"/>
      </g>
    </g>
  </g>
</svg>
