<?xml version="1.0" encoding="utf-8"?>
<!-- Generator: SVG Export - SVG Version: 6.00 Build 1  -->
<!-- FXGUID: [95E9FD65-B735-11ED-9CD2-525400685065] SYMID: [18685]  -->
<svg xmlns="http://www.w3.org/2000/svg" version="1.1" ch_offset="0" color_bar_width="66" width="381.240284" height="375.296938" origin_x="185.735468" origin_y="206.696564" ch_offset_x="184.6991734" ch_offset_y="40" color_offset_x="185.735468" color_offset_y="-4">
  <g>
    <title>Layer 1</title>
    <g>
      <g>
        <polyline style="fill: transparent;stroke: black;stroke-width: 1;" points="343.540842 302.6283, 347.446854 298.596812 347.446854 298.596812, 356.040182 288.940748 356.040182 288.940748, 364.634272 277.31593 364.634272 277.31593, 368.540284 267.378434 368.540284 267.378434, 368.540284 239.339882 368.540284 239.339882, 368.540284 211.302092 368.540284 211.302092, 368.540284 183.264302 368.540284 183.264302, 368.540284 155.226258 368.540284 155.226258, 364.634272 145.288254 364.634272 145.288254, 356.040182 133.663436 356.040182 133.663436, 347.446854 124.007372 347.446854 124.007372, 343.540842 119.975884"/>
      </g>
      <g>
        <polyline style="fill: transparent;stroke: black;stroke-width: 1;" points="343.540842 270.545052, 346.04071 269.197836 346.04071 269.197836, 351.540572 265.951462 351.540572 265.951462, 357.04018 262.002016 357.04018 262.002016, 359.540048 258.544822 359.540048 258.544822, 359.540048 234.77728 359.540048 234.77728, 359.540048 211.0105 359.540048 211.0105, 359.540048 187.242958 359.540048 187.242958, 359.540048 163.476178 359.540048 163.476178, 357.04018 160.018984 357.04018 160.018984, 351.540572 156.069792 351.540572 156.069792, 346.04071 152.823418 346.04071 152.823418, 343.540842 151.476202"/>
      </g>
      <g>
        <polyline style="fill: transparent;stroke: black;stroke-width: 1;" points="27.539188 302.6283, 23.63343 298.596812 23.63343 298.596812, 15.03934 288.940748 15.03934 288.940748, 6.446012 277.31593 6.446012 277.31593, 2.54 267.378434 2.54 267.378434, 2.54 239.339882 2.54 239.339882, 2.54 211.302092 2.54 211.302092, 2.54 183.264302 2.54 183.264302, 2.54 155.226258 2.54 155.226258, 6.446012 145.288254 6.446012 145.288254, 15.03934 133.663436 15.03934 133.663436, 23.63343 124.007372 23.63343 124.007372, 27.539188 119.975884"/>
      </g>
      <g>
        <polyline style="fill: transparent;stroke: black;stroke-width: 1;" points="27.539188 270.545052, 25.039574 269.197836 25.039574 269.197836, 19.539712 265.951462 19.539712 265.951462, 14.040104 262.002016 14.040104 262.002016, 11.539474 258.544822 11.539474 258.544822, 11.539474 234.77728 11.539474 234.77728, 11.539474 211.0105 11.539474 211.0105, 11.539474 187.242958 11.539474 187.242958, 11.539474 163.476178 11.539474 163.476178, 14.040104 160.018984 14.040104 160.018984, 19.539712 156.069792 19.539712 156.069792, 25.039574 152.823418 25.039574 152.823418, 27.539188 151.476202"/>
      </g>
      <g>
        <polyline style="fill: gray;stroke: black;stroke-width: 1;" points="27.539188 315.474858, 29.18714 324.334632 29.18714 324.334632, 33.03905 330.66228 33.03905 330.66228, 37.452554 334.45958 37.452554 334.45958, 40.788844 335.725516 40.788844 335.725516, 113.164366 335.725516 113.164366 335.725516, 185.539634 335.725516 185.539634 335.725516, 257.915918 335.725516 257.915918 335.725516, 330.29144 335.725516 330.29144 335.725516, 333.62773 334.45958 333.62773 334.45958, 338.041234 330.66228 338.041234 330.66228, 341.892128 324.334632 341.892128 324.334632, 343.540842 315.474858 343.540842 315.474858, 343.540842 265.100308 343.540842 265.100308, 343.540842 214.725758 343.540842 214.725758, 343.540842 164.3507 343.540842 164.3507, 343.540842 113.97615 343.540842 113.97615, 341.892128 105.116122 341.892128 105.116122, 338.041234 98.788728 338.041234 98.788728, 333.62773 94.991174 333.62773 94.991174, 330.29144 93.726254 330.29144 93.726254, 257.915918 93.726254 257.915918 93.726254, 185.539634 93.726254 185.539634 93.726254, 113.164366 93.726254 113.164366 93.726254, 40.788844 93.726254 40.788844 93.726254, 37.452554 94.991174 37.452554 94.991174, 33.03905 98.788728 33.03905 98.788728, 29.18714 105.116122 29.18714 105.116122, 27.539188 113.97615 27.539188 113.97615, 27.539188 164.3507 27.539188 164.3507, 27.539188 214.725758 27.539188 214.725758, 27.539188 265.100308 27.539188 265.100308, 27.539188 315.474858 27.539188 315.474858, 27.539188 315.474858"/>
      </g>
      <g>
        <polyline style="fill: gray;stroke: black;stroke-width: 1;" points="302.50384 254.49276, 306.553108 254.49276 306.553108 254.49276, 315.769498 254.49276 315.769498 254.49276, 325.759572 254.49276 325.759572 254.49276, 332.12913 254.49276 332.12913 254.49276, 335.686146 254.364236 335.686146 254.364236, 339.488272 253.743206 339.488272 253.743206, 342.518238 252.278134 342.518238 252.278134, 343.75471 249.617992 343.75471 249.617992, 343.75471 228.379782 343.75471 228.379782, 343.75471 207.141318 343.75471 207.141318, 343.75471 185.903108 343.75471 185.903108, 343.75471 164.664898 343.75471 164.664898, 342.518238 162.005518 342.518238 162.005518, 339.488272 160.540446 339.488272 160.540446, 335.686146 159.919416 335.686146 159.919416, 332.12913 159.79013 332.12913 159.79013, 325.759572 159.79013 325.759572 159.79013, 315.769498 159.79013 315.769498 159.79013, 306.553108 159.79013 306.553108 159.79013, 302.50384 159.79013 302.50384 159.79013, 302.50384 183.466232 302.50384 183.466232, 302.50384 207.141318 302.50384 207.141318, 302.50384 230.81742 302.50384 230.81742, 302.50384 254.49276 302.50384 254.49276, 302.50384 254.49276"/>
      </g>
      <g>
        <polyline style="fill: gray;stroke: black;stroke-width: 1;" points="69.252846 254.49276, 69.252846 255.430782 69.252846 255.430782, 69.252846 256.367788 69.252846 256.367788, 69.252846 257.30581 69.252846 257.30581, 69.252846 258.24307 69.252846 258.24307, 73.471278 258.80568 73.471278 258.80568, 77.690218 259.367782 77.690218 259.367782, 81.909412 259.930392 81.909412 259.930392, 86.127844 260.493256 86.127844 260.493256, 136.00303 260.493256 136.00303 260.493256, 185.878216 260.493256 185.878216 260.493256, 235.754418 260.493256 235.754418 260.493256, 285.628842 260.493256 285.628842 260.493256, 289.847274 259.930392 289.847274 259.930392, 294.066214 259.367782 294.066214 259.367782, 298.285408 258.80568 298.285408 258.80568, 302.50384 258.24307 302.50384 258.24307, 302.50384 257.30581 302.50384 257.30581, 302.50384 256.367788 302.50384 256.367788, 302.50384 255.430782 302.50384 255.430782, 302.50384 254.49276 302.50384 254.49276, 302.50384 230.81742 302.50384 230.81742, 302.50384 207.141318 302.50384 207.141318, 302.50384 183.466232 302.50384 183.466232, 302.50384 159.79013 302.50384 159.79013, 302.50384 158.85287 302.50384 158.85287, 302.50384 157.915864 302.50384 157.915864, 302.50384 156.977842 302.50384 156.977842, 302.50384 156.040582 302.50384 156.040582, 298.285408 155.477972 298.285408 155.477972, 294.066214 154.915108 294.066214 154.915108, 289.847274 154.35326 289.847274 154.35326, 285.628842 153.790396 285.628842 153.790396, 235.754418 153.790396 235.754418 153.790396, 185.878216 153.790396 185.878216 153.790396, 136.00303 153.790396 136.00303 153.790396, 86.127844 153.790396 86.127844 153.790396, 81.909412 154.35326 81.909412 154.35326, 77.690218 154.915108 77.690218 154.915108, 73.471278 155.477972 73.471278 155.477972, 69.252846 156.040582 69.252846 156.040582, 69.252846 156.977842 69.252846 156.977842, 69.252846 157.915864 69.252846 157.915864, 69.252846 158.85287 69.252846 158.85287, 69.252846 159.79013 69.252846 159.79013, 69.252846 183.466232 69.252846 183.466232, 69.252846 207.141318 69.252846 207.141318, 69.252846 230.81742 69.252846 230.81742, 69.252846 254.49276 69.252846 254.49276, 69.252846 254.49276"/>
      </g>
      <g>
        <polyline style="fill: gray;stroke: black;stroke-width: 1;" points="69.252846 254.49276, 65.20434 254.49276 65.20434 254.49276, 55.986934 254.49276 55.986934 254.49276, 45.99686 254.49276 45.99686 254.49276, 39.627556 254.49276 39.627556 254.49276, 36.071048 254.364236 36.071048 254.364236, 32.26816 253.743206 32.26816 253.743206, 29.238956 252.278134 29.238956 252.278134, 28.002738 249.617992 28.002738 249.617992, 28.002738 228.379782 28.002738 228.379782, 28.002738 207.141318 28.002738 207.141318, 28.002738 185.903108 28.002738 185.903108, 28.002738 164.664898 28.002738 164.664898, 29.238956 162.005518 29.238956 162.005518, 32.26816 160.540446 32.26816 160.540446, 36.071048 159.919416 36.071048 159.919416, 39.627556 159.79013 39.627556 159.79013, 45.99686 159.79013 45.99686 159.79013, 55.986934 159.79013 55.986934 159.79013, 65.20434 159.79013 65.20434 159.79013, 69.252846 159.79013 69.252846 159.79013, 69.252846 183.466232 69.252846 183.466232, 69.252846 207.141318 69.252846 207.141318, 69.252846 230.81742 69.252846 230.81742, 69.252846 254.49276 69.252846 254.49276, 69.252846 254.49276"/>
      </g>
      <g>
        <polyline style="fill: transparent;stroke: black;stroke-width: 1;" points="73.16978 162.393122, 72.10552 162.860482 72.10552 162.860482, 71.040498 163.328096 71.040498 163.328096, 69.976238 163.795456 69.976238 163.795456, 68.911978 164.262054 68.911978 164.262054, 68.911978 184.78627 68.911978 184.78627, 68.911978 205.31074 68.911978 205.31074, 68.911978 225.834194 68.911978 225.834194, 68.911978 246.358664 68.911978 246.358664, 70.562978 247.489472 70.562978 247.489472, 72.213978 248.620534 72.213978 248.620534, 73.865994 249.75058 73.865994 249.75058, 75.516994 250.882404"/>
      </g>
      <g>
        <polyline style="fill: transparent;stroke: black;stroke-width: 1;" points="298.205652 162.393122, 299.270674 162.860482 299.270674 162.860482, 300.33595 163.328096 300.33595 163.328096, 301.399448 163.795456 301.399448 163.795456, 302.46447 164.262054 302.46447 164.262054, 302.46447 184.78627 302.46447 184.78627, 302.46447 205.31074 302.46447 205.31074, 302.46447 225.834194 302.46447 225.834194, 302.46447 246.358664 302.46447 246.358664, 300.813216 247.489472 300.813216 247.489472, 299.162216 248.620534 299.162216 248.620534, 297.511216 249.75058 297.511216 249.75058, 295.860216 250.882404"/>
      </g>
      <g>
        <polyline style="fill: gray;stroke: black;stroke-width: 1;" points="241.475768 362.597192, 261.764526 349.676974 261.764526 349.676974, 278.724868 320.897504 278.724868 320.897504, 290.525708 291.227256 290.525708 291.227256, 295.337738 275.637498 295.337738 275.637498, 296.326814 253.55804 296.326814 253.55804, 297.58259 209.60588 297.58259 209.60588, 298.661582 166.542466 298.661582 166.542466, 299.118782 147.129754 299.118782 147.129754, 295.322244 144.1577 295.322244 144.1577, 293.695882 140.393674 293.695882 140.393674, 293.364158 137.162794 293.364158 137.162794, 293.449502 135.791702 293.449502 135.791702, 289.939476 92.041726 289.939476 92.041726, 283.504386 48.783748 283.504386 48.783748, 277.3172 15.71752 277.3172 15.71752, 274.548346 2.54 274.548346 2.54, 256.541524 2.54 256.541524 2.54, 238.533432 2.54 238.533432 2.54, 220.52534 2.54 220.52534 2.54, 202.516994 2.54 202.516994 2.54, 194.24142 2.54 194.24142 2.54, 185.964576 2.54 185.964576 2.54, 177.689002 2.54 177.689002 2.54, 169.412158 2.54 169.412158 2.54, 151.403812 2.54 151.403812 2.54, 133.396482 2.54 133.396482 2.54, 115.388898 2.54 115.388898 2.54, 97.381568 2.54 97.381568 2.54, 94.613476 15.71752 94.613476 15.71752, 88.42629 48.783748 88.42629 48.783748, 81.990946 92.041726 81.990946 92.041726, 78.481174 135.791702 78.481174 135.791702, 78.565756 137.162794 78.565756 137.162794, 78.233016 140.393674 78.233016 140.393674, 76.608432 144.1577 76.608432 144.1577, 72.810878 147.129754 72.810878 147.129754, 73.269094 166.542466 73.269094 166.542466, 74.347324 209.60588 74.347324 209.60588, 75.6031 253.55804 75.6031 253.55804, 76.592176 275.637498 76.592176 275.637498, 81.404968 291.227256 81.404968 291.227256, 93.205808 320.897504 93.205808 320.897504, 110.16615 349.676974 110.16615 349.676974, 130.453892 362.597192 130.453892 362.597192, 158.209742 362.597192 158.209742 362.597192, 185.964576 362.597192 185.964576 362.597192, 213.71941 362.597192 213.71941 362.597192, 241.475768 362.597192 241.475768 362.597192, 241.475768 362.597192"/>
      </g>
      <g>
        <polyline style="fill: transparent;stroke: black;stroke-width: 1;" points="282.608274 38.452552, 234.47629 38.452552 234.47629 38.452552, 186.34583 38.452552 186.34583 38.452552, 138.213846 38.452552 138.213846 38.452552, 90.08364 38.452552"/>
      </g>
      <g>
        <polyline style="fill: transparent;stroke: black;stroke-width: 1;" points="77.661008 279.563576, 131.717542 279.563576 131.717542 279.563576, 185.772298 279.563576 185.772298 279.563576, 239.82934 279.563576 239.82934 279.563576, 293.885112 279.563576"/>
      </g>
      <g>
        <polyline style="fill: gray;stroke: black;stroke-width: 1;" points="153.287476 141.46022, 152.25649 141.46022 152.25649 141.46022, 151.22398 141.46022 151.22398 141.46022, 150.192994 141.46022 150.192994 141.46022, 149.162008 141.46022 149.162008 141.46022, 149.162008 116.78666 149.162008 116.78666, 149.162008 92.112846 149.162008 92.112846, 149.162008 67.438524 149.162008 67.438524, 149.162008 42.76471 149.162008 42.76471, 150.192994 42.76471 150.192994 42.76471, 151.22398 42.76471 151.22398 42.76471, 152.25649 42.76471 152.25649 42.76471, 153.287476 42.76471 153.287476 42.76471, 153.287476 67.438524 153.287476 67.438524, 153.287476 92.112846 153.287476 92.112846, 153.287476 116.78666 153.287476 116.78666, 153.287476 141.46022 153.287476 141.46022, 153.287476 141.46022"/>
      </g>
      <g>
        <polyline style="fill: gray;stroke: black;stroke-width: 1;" points="199.411844 141.46022, 198.380858 141.46022 198.380858 141.46022, 197.349872 141.46022 197.349872 141.46022, 196.318886 141.46022 196.318886 141.46022, 195.2879 141.46022 195.2879 141.46022, 195.2879 116.78666 195.2879 116.78666, 195.2879 92.112846 195.2879 92.112846, 195.2879 67.438524 195.2879 67.438524, 195.2879 42.76471 195.2879 42.76471, 196.318886 42.76471 196.318886 42.76471, 197.349872 42.76471 197.349872 42.76471, 198.380858 42.76471 198.380858 42.76471, 199.411844 42.76471 199.411844 42.76471, 199.411844 67.438524 199.411844 67.438524, 199.411844 92.112846 199.411844 92.112846, 199.411844 116.78666 199.411844 116.78666, 199.411844 141.46022 199.411844 141.46022, 199.411844 141.46022"/>
      </g>
      <g>
        <polyline style="fill: gray;stroke: black;stroke-width: 1;" points="214.78748 141.46022, 213.756748 141.46022 213.756748 141.46022, 212.725762 141.46022 212.725762 141.46022, 211.693252 141.46022 211.693252 141.46022, 210.662266 141.46022 210.662266 141.46022, 210.662266 116.78666 210.662266 116.78666, 210.662266 92.112846 210.662266 92.112846, 210.662266 67.438524 210.662266 67.438524, 210.662266 42.76471 210.662266 42.76471, 211.693252 42.76471 211.693252 42.76471, 212.725762 42.76471 212.725762 42.76471, 213.756748 42.76471 213.756748 42.76471, 214.78748 42.76471 214.78748 42.76471, 214.78748 67.438524 214.78748 67.438524, 214.78748 92.112846 214.78748 92.112846, 214.78748 116.78666 214.78748 116.78666, 214.78748 141.46022 214.78748 141.46022, 214.78748 141.46022"/>
      </g>
      <g>
        <polyline style="fill: gray;stroke: black;stroke-width: 1;" points="230.161846 141.46022, 229.13086 141.46022 229.13086 141.46022, 228.099874 141.46022 228.099874 141.46022, 227.068888 141.46022 227.068888 141.46022, 226.038156 141.46022 226.038156 141.46022, 226.038156 116.78666 226.038156 116.78666, 226.038156 92.112846 226.038156 92.112846, 226.038156 67.438524 226.038156 67.438524, 226.038156 42.76471 226.038156 42.76471, 227.068888 42.76471 227.068888 42.76471, 228.099874 42.76471 228.099874 42.76471, 229.13086 42.76471 229.13086 42.76471, 230.161846 42.76471 230.161846 42.76471, 230.161846 67.438524 230.161846 67.438524, 230.161846 92.112846 230.161846 92.112846, 230.161846 116.78666 230.161846 116.78666, 230.161846 141.46022 230.161846 141.46022, 230.161846 141.46022"/>
      </g>
      <g>
        <polyline style="fill: gray;stroke: black;stroke-width: 1;" points="168.661588 141.46022, 167.630856 141.46022 167.630856 141.46022, 166.59987 141.46022 166.59987 141.46022, 165.568884 141.46022 165.568884 141.46022, 164.537898 141.46022 164.537898 141.46022, 164.537898 116.78666 164.537898 116.78666, 164.537898 92.112846 164.537898 92.112846, 164.537898 67.438524 164.537898 67.438524, 164.537898 42.76471 164.537898 42.76471, 165.568884 42.76471 165.568884 42.76471, 166.59987 42.76471 166.59987 42.76471, 167.630856 42.76471 167.630856 42.76471, 168.661588 42.76471 168.661588 42.76471, 168.661588 67.438524 168.661588 67.438524, 168.661588 92.112846 168.661588 92.112846, 168.661588 116.78666 168.661588 116.78666, 168.661588 141.46022 168.661588 141.46022, 168.661588 141.46022"/>
      </g>
      <g>
        <polyline style="fill: gray;stroke: black;stroke-width: 1;" points="184.037478 141.46022, 183.004968 141.46022 183.004968 141.46022, 181.975506 141.46022 181.975506 141.46022, 180.94325 141.46022 180.94325 141.46022, 179.912264 141.46022 179.912264 141.46022, 179.912264 116.78666 179.912264 116.78666, 179.912264 92.112846 179.912264 92.112846, 179.912264 67.438524 179.912264 67.438524, 179.912264 42.76471 179.912264 42.76471, 180.94325 42.76471 180.94325 42.76471, 181.975506 42.76471 181.975506 42.76471, 183.004968 42.76471 183.004968 42.76471, 184.037478 42.76471 184.037478 42.76471, 184.037478 67.438524 184.037478 67.438524, 184.037478 92.112846 184.037478 92.112846, 184.037478 116.78666 184.037478 116.78666, 184.037478 141.46022 184.037478 141.46022, 184.037478 141.46022"/>
      </g>
      <g>
        <polyline style="fill: gray;stroke: black;stroke-width: 1;" points="155.766262 350.312736, 153.876502 350.312736 153.876502 350.312736, 151.985218 350.312736 151.985218 350.312736, 150.095458 350.312736 150.095458 350.312736, 148.20392 350.312736 148.20392 350.312736, 148.20392 317.471298 148.20392 317.471298, 148.20392 284.629098 148.20392 284.629098, 148.20392 251.786898 148.20392 251.786898, 148.20392 218.94546 148.20392 218.94546, 150.095458 218.94546 150.095458 218.94546, 151.985218 218.94546 151.985218 218.94546, 153.876502 218.94546 153.876502 218.94546, 155.766262 218.94546 155.766262 218.94546, 155.766262 251.786898 155.766262 251.786898, 155.766262 284.629098 155.766262 284.629098, 155.766262 317.471298 155.766262 317.471298, 155.766262 350.312736 155.766262 350.312736, 155.766262 350.312736"/>
      </g>
      <g>
        <polyline style="fill: gray;stroke: black;stroke-width: 1;" points="169.839894 350.312736, 167.94861 350.312736 167.94861 350.312736, 166.05885 350.312736 166.05885 350.312736, 164.167312 350.312736 164.167312 350.312736, 162.277552 350.312736 162.277552 350.312736, 162.277552 317.471298 162.277552 317.471298, 162.277552 284.629098 162.277552 284.629098, 162.277552 251.786898 162.277552 251.786898, 162.277552 218.94546 162.277552 218.94546, 164.167312 218.94546 164.167312 218.94546, 166.05885 218.94546 166.05885 218.94546, 167.94861 218.94546 167.94861 218.94546, 169.839894 218.94546 169.839894 218.94546, 169.839894 251.786898 169.839894 251.786898, 169.839894 284.629098 169.839894 284.629098, 169.839894 317.471298 169.839894 317.471298, 169.839894 350.312736 169.839894 350.312736, 169.839894 350.312736"/>
      </g>
      <g>
        <polyline style="fill: gray;stroke: black;stroke-width: 1;" points="183.912002 350.312736, 182.022242 350.312736 182.022242 350.312736, 180.130704 350.312736 180.130704 350.312736, 178.240944 350.312736 178.240944 350.312736, 176.34966 350.312736 176.34966 350.312736, 176.34966 317.471298 176.34966 317.471298, 176.34966 284.629098 176.34966 284.629098, 176.34966 251.786898 176.34966 251.786898, 176.34966 218.94546 176.34966 218.94546, 178.240944 218.94546 178.240944 218.94546, 180.130704 218.94546 180.130704 218.94546, 182.022242 218.94546 182.022242 218.94546, 183.912002 218.94546 183.912002 218.94546, 183.912002 251.786898 183.912002 251.786898, 183.912002 284.629098 183.912002 284.629098, 183.912002 317.471298 183.912002 317.471298, 183.912002 350.312736 183.912002 350.312736, 183.912002 350.312736"/>
      </g>
      <g>
        <polyline style="fill: gray;stroke: black;stroke-width: 1;" points="197.98538 350.312736, 196.094096 350.312736 196.094096 350.312736, 194.204336 350.312736 194.204336 350.312736, 192.313052 350.312736 192.313052 350.312736, 190.421514 350.312736 190.421514 350.312736, 190.421514 317.471298 190.421514 317.471298, 190.421514 284.629098 190.421514 284.629098, 190.421514 251.786898 190.421514 251.786898, 190.421514 218.94546 190.421514 218.94546, 192.313052 218.94546 192.313052 218.94546, 194.204336 218.94546 194.204336 218.94546, 196.094096 218.94546 196.094096 218.94546, 197.98538 218.94546 197.98538 218.94546, 197.98538 251.786898 197.98538 251.786898, 197.98538 284.629098 197.98538 284.629098, 197.98538 317.471298 197.98538 317.471298, 197.98538 350.312736 197.98538 350.312736, 197.98538 350.312736"/>
      </g>
      <g>
        <polyline style="fill: gray;stroke: black;stroke-width: 1;" points="212.057488 350.312736, 210.167728 350.312736 210.167728 350.312736, 208.276444 350.312736 208.276444 350.312736, 206.38643 350.312736 206.38643 350.312736, 204.495146 350.312736 204.495146 350.312736, 204.495146 317.471298 204.495146 317.471298, 204.495146 284.629098 204.495146 284.629098, 204.495146 251.786898 204.495146 251.786898, 204.495146 218.94546 204.495146 218.94546, 206.38643 218.94546 206.38643 218.94546, 208.276444 218.94546 208.276444 218.94546, 210.167728 218.94546 210.167728 218.94546, 212.057488 218.94546 212.057488 218.94546, 212.057488 251.786898 212.057488 251.786898, 212.057488 284.629098 212.057488 284.629098, 212.057488 317.471298 212.057488 317.471298, 212.057488 350.312736 212.057488 350.312736, 212.057488 350.312736"/>
      </g>
      <g>
        <polyline style="fill: gray;stroke: black;stroke-width: 1;" points="226.13112 350.312736, 224.239836 350.312736 224.239836 350.312736, 222.349822 350.312736 222.349822 350.312736, 220.458538 350.312736 220.458538 350.312736, 218.568778 350.312736 218.568778 350.312736, 218.568778 317.471298 218.568778 317.471298, 218.568778 284.629098 218.568778 284.629098, 218.568778 251.786898 218.568778 251.786898, 218.568778 218.94546 218.568778 218.94546, 220.458538 218.94546 220.458538 218.94546, 222.349822 218.94546 222.349822 218.94546, 224.239836 218.94546 224.239836 218.94546, 226.13112 218.94546 226.13112 218.94546, 226.13112 251.786898 226.13112 251.786898, 226.13112 284.629098 226.13112 284.629098, 226.13112 317.471298 226.13112 317.471298, 226.13112 350.312736 226.13112 350.312736, 226.13112 350.312736"/>
      </g>
      <g>
        <polyline style="fill: gray;stroke: black;stroke-width: 1;" points="240.204752 350.312736, 238.313214 350.312736 238.313214 350.312736, 236.42193 350.312736 236.42193 350.312736, 234.530646 350.312736 234.530646 350.312736, 232.640632 350.312736 232.640632 350.312736, 232.640632 317.471298 232.640632 317.471298, 232.640632 284.629098 232.640632 284.629098, 232.640632 251.786898 232.640632 251.786898, 232.640632 218.94546 232.640632 218.94546, 234.530646 218.94546 234.530646 218.94546, 236.42193 218.94546 236.42193 218.94546, 238.313214 218.94546 238.313214 218.94546, 240.204752 218.94546 240.204752 218.94546, 240.204752 251.786898 240.204752 251.786898, 240.204752 284.629098 240.204752 284.629098, 240.204752 317.471298 240.204752 317.471298, 240.204752 350.312736 240.204752 350.312736, 240.204752 350.312736"/>
      </g>
      <g>
        <polyline style="fill: gray;stroke: black;stroke-width: 1;" points="254.276606 350.312736, 252.385322 350.312736 252.385322 350.312736, 250.495562 350.312736 250.495562 350.312736, 248.604024 350.312736 248.604024 350.312736, 246.714264 350.312736 246.714264 350.312736, 246.714264 317.471298 246.714264 317.471298, 246.714264 284.629098 246.714264 284.629098, 246.714264 251.786898 246.714264 251.786898, 246.714264 218.94546 246.714264 218.94546, 248.604024 218.94546 248.604024 218.94546, 250.495562 218.94546 250.495562 218.94546, 252.385322 218.94546 252.385322 218.94546, 254.276606 218.94546 254.276606 218.94546, 254.276606 251.786898 254.276606 251.786898, 254.276606 284.629098 254.276606 284.629098, 254.276606 317.471298 254.276606 317.471298, 254.276606 350.312736 254.276606 350.312736, 254.276606 350.312736"/>
      </g>
      <g>
        <polyline style="fill: gray;stroke: black;stroke-width: 1;" points="127.621538 350.312736, 125.731016 350.312736 125.731016 350.312736, 123.839732 350.312736 123.839732 350.312736, 121.948956 350.312736 121.948956 350.312736, 120.058434 350.312736 120.058434 350.312736, 120.058434 317.471298 120.058434 317.471298, 120.058434 284.629098 120.058434 284.629098, 120.058434 251.786898 120.058434 251.786898, 120.058434 218.94546 120.058434 218.94546, 121.948956 218.94546 121.948956 218.94546, 123.839732 218.94546 123.839732 218.94546, 125.731016 218.94546 125.731016 218.94546, 127.621538 218.94546 127.621538 218.94546, 127.621538 251.786898 127.621538 251.786898, 127.621538 284.629098 127.621538 284.629098, 127.621538 317.471298 127.621538 317.471298, 127.621538 350.312736 127.621538 350.312736, 127.621538 350.312736"/>
      </g>
      <g>
        <polyline style="fill: gray;stroke: black;stroke-width: 1;" points="141.694408 350.312736, 139.80287 350.312736 139.80287 350.312736, 137.91311 350.312736 137.91311 350.312736, 136.021826 350.312736 136.021826 350.312736, 134.131304 350.312736 134.131304 350.312736, 134.131304 317.471298 134.131304 317.471298, 134.131304 284.629098 134.131304 284.629098, 134.131304 251.786898 134.131304 251.786898, 134.131304 218.94546 134.131304 218.94546, 136.021826 218.94546 136.021826 218.94546, 137.91311 218.94546 137.91311 218.94546, 139.80287 218.94546 139.80287 218.94546, 141.694408 218.94546 141.694408 218.94546, 141.694408 251.786898 141.694408 251.786898, 141.694408 284.629098 141.694408 284.629098, 141.694408 317.471298 141.694408 317.471298, 141.694408 350.312736 141.694408 350.312736, 141.694408 350.312736"/>
      </g>
      <g>
        <polyline style="fill: gray;stroke: black;stroke-width: 1;" points="137.911586 141.46022, 136.8806 141.46022 136.8806 141.46022, 135.849614 141.46022 135.849614 141.46022, 134.818882 141.46022 134.818882 141.46022, 133.787134 141.46022 133.787134 141.46022, 133.787134 116.78666 133.787134 116.78666, 133.787134 92.112846 133.787134 92.112846, 133.787134 67.438524 133.787134 67.438524, 133.787134 42.76471 133.787134 42.76471, 134.818882 42.76471 134.818882 42.76471, 135.849614 42.76471 135.849614 42.76471, 136.8806 42.76471 136.8806 42.76471, 137.911586 42.76471 137.911586 42.76471, 137.911586 67.438524 137.911586 67.438524, 137.911586 92.112846 137.911586 92.112846, 137.911586 116.78666 137.911586 116.78666, 137.911586 141.46022 137.911586 141.46022, 137.911586 141.46022"/>
      </g>
    </g>
  </g>
</svg>
