<?xml version="1.0" encoding="utf-8"?>
<!-- Generator: SVG Export - SVG Version: 6.00 Build 1  -->
<!-- FXGUID: [B976F36E-8C14-11ED-B8F4-525400685065] SYMID: [18509]  -->
<svg xmlns="http://www.w3.org/2000/svg" version="1.1" ch_offset="0" color_bar_width="66" width="1015.24562" height="888.97714" origin_x="500.54764" origin_y="559.77282" ch_offset_x="505.1926142" ch_offset_y="40" color_offset_x="500.54764" color_offset_y="-4">
  <g>
    <title>Layer 1</title>
    <g>
      <g>
        <polyline style="fill: gray;stroke: black;stroke-width: 1;" points="1002.54562 812.51679, 993.2543 828.45656 993.2543 828.45656, 983.96044 844.3976 983.96044 844.3976, 974.66658 860.3361 974.66658 860.3361, 965.37526 876.27714 965.37526 876.27714, 863.61524 820.66384 863.61524 820.66384, 761.85776 765.052318 761.85776 765.052318, 660.097994 709.439526 660.097994 709.439526, 558.339244 653.827242 558.339244 653.827242, 572.07785 630.265186 572.07785 630.265186, 585.815694 606.70313 585.815694 606.70313, 599.553792 583.14082 599.553792 583.14082, 613.291636 559.578764 613.291636 559.578764, 710.605132 622.813842 710.605132 622.813842, 807.91812 686.047904 807.91812 686.047904, 905.23314 749.282728 905.23314 749.282728, 1002.54562 812.51679 1002.54562 812.51679, 1002.54562 812.51679"/>
      </g>
      <g>
        <polyline style="fill: gray;stroke: black;stroke-width: 1;" points="40.64254 873.36376, 31.11754 857.56242 31.11754 857.56242, 21.59 841.76108 21.59 841.76108, 12.065 825.95974 12.065 825.95974, 2.54 810.157384 2.54 810.157384, 100.16236 747.564926 100.16236 747.564926, 197.78472 684.973484 197.78472 684.973484, 295.404794 622.382042 295.404794 622.382042, 393.026646 559.790346 393.026646 559.790346, 407.106374 583.148694 407.106374 583.148694, 421.186356 606.507804 421.186356 606.507804, 435.266846 629.865898 435.266846 629.865898, 449.346574 653.225008 449.346574 653.225008, 347.170502 708.259696 347.170502 708.259696, 244.9957 763.294384 244.9957 763.294384, 142.81912 818.32958 142.81912 818.32958, 40.64254 873.36376 40.64254 873.36376, 40.64254 873.36376"/>
      </g>
      <g>
        <polyline style="fill: gray;stroke: black;stroke-width: 1;" points="466.436964 2.54, 484.88854 2.54 484.88854 2.54, 503.340116 2.54 503.340116 2.54, 521.791692 2.54 521.791692 2.54, 540.243268 2.54 540.243268 2.54, 543.45078 118.45798 543.45078 118.45798, 546.659308 234.37596 546.659308 234.37596, 549.867582 350.296226 549.867582 350.296226, 553.075094 466.214714 553.075094 466.214714, 525.800828 466.214714 525.800828 466.214714, 498.526562 466.214714 498.526562 466.214714, 471.253058 466.214714 471.253058 466.214714, 443.978538 466.214714 443.978538 466.214714, 449.592954 350.296226 449.592954 350.296226, 455.208132 234.37596 455.208132 234.37596, 460.822548 118.45798 460.822548 118.45798, 466.436964 2.54 466.436964 2.54, 466.436964 2.54"/>
      </g>
      <g>
        <polyline style="fill: transparent;stroke: black;stroke-width: 1;" points="462.000092 522.272514, 462.882234 522.272514 462.882234 522.272514, 463.764376 522.272514 463.764376 522.272514, 464.645502 522.272514 464.645502 522.272514, 465.527644 522.272514"/>
      </g>
      <g>
        <polyline style="fill: transparent;stroke: black;stroke-width: 1;" points="462.000092 521.567156, 462.882234 521.567156 462.882234 521.567156, 463.764376 521.567156 463.764376 521.567156, 464.645502 521.567156 464.645502 521.567156, 465.527644 521.567156"/>
      </g>
      <g>
        <polyline style="fill: gray;stroke: black;stroke-width: 1;" points="533.822148 438.938924, 528.606766 438.938924 528.606766 438.938924, 523.391638 438.938924 523.391638 438.938924, 518.17651 438.938924 518.17651 438.938924, 512.962144 438.938924 512.962144 438.938924, 512.962144 422.091866 512.962144 422.091866, 512.962144 405.24557 512.962144 405.24557, 512.962144 388.400036 512.962144 388.400036, 512.962144 371.55374 512.962144 371.55374, 518.17651 371.55374 518.17651 371.55374, 523.391638 371.55374 523.391638 371.55374, 528.606766 371.55374 528.606766 371.55374, 533.822148 371.55374 533.822148 371.55374, 533.822148 388.400036 533.822148 388.400036, 533.822148 405.24557 533.822148 405.24557, 533.822148 422.091866 533.822148 422.091866, 533.822148 438.938924 533.822148 438.938924, 533.822148 438.938924"/>
      </g>
      <g>
        <polyline style="fill: gray;stroke: black;stroke-width: 1;" points="487.29773 252.82652, 484.690166 252.82652 484.690166 252.82652, 482.082602 252.82652 482.082602 252.82652, 479.475038 252.82652 479.475038 252.82652, 476.867474 252.82652 476.867474 252.82652, 476.867474 235.67898 476.867474 235.67898, 476.867474 218.53144 476.867474 218.53144, 476.867474 201.38644 476.867474 201.38644, 476.867474 184.2389 476.867474 184.2389, 479.475038 184.2389 479.475038 184.2389, 482.082602 184.2389 482.082602 184.2389, 484.690166 184.2389 484.690166 184.2389, 487.29773 184.2389 487.29773 184.2389, 487.29773 201.38644 487.29773 201.38644, 487.29773 218.53144 487.29773 218.53144, 487.29773 235.67898 487.29773 235.67898, 487.29773 252.82652 487.29773 252.82652, 487.29773 252.82652"/>
      </g>
      <g>
        <polyline style="fill: gray;stroke: black;stroke-width: 1;" points="528.60448 252.82652, 525.996916 252.82652 525.996916 252.82652, 523.389352 252.82652 523.389352 252.82652, 520.781788 252.82652 520.781788 252.82652, 518.174224 252.82652 518.174224 252.82652, 518.174224 235.67898 518.174224 235.67898, 518.174224 218.53144 518.174224 218.53144, 518.174224 201.38644 518.174224 201.38644, 518.174224 184.2389 518.174224 184.2389, 520.781788 184.2389 520.781788 184.2389, 523.389352 184.2389 523.389352 184.2389, 525.996916 184.2389 525.996916 184.2389, 528.60448 184.2389 528.60448 184.2389, 528.60448 201.38644 528.60448 201.38644, 528.60448 218.53144 528.60448 218.53144, 528.60448 235.67898 528.60448 235.67898, 528.60448 252.82652 528.60448 252.82652, 528.60448 252.82652"/>
      </g>
      <g>
        <polyline style="fill: gray;stroke: black;stroke-width: 1;" points="487.29773 156.56306, 485.993186 156.56306 485.993186 156.56306, 484.688642 156.56306 484.688642 156.56306, 483.38486 156.56306 483.38486 156.56306, 482.080316 156.56306 482.080316 156.56306, 482.080316 141.8209 482.080316 141.8209, 482.080316 127.08128 482.080316 127.08128, 482.080316 112.34166 482.080316 112.34166, 482.080316 97.5995 482.080316 97.5995, 483.38486 97.5995 483.38486 97.5995, 484.688642 97.5995 484.688642 97.5995, 485.993186 97.5995 485.993186 97.5995, 487.29773 97.5995 487.29773 97.5995, 487.29773 112.34166 487.29773 112.34166, 487.29773 127.08128 487.29773 127.08128, 487.29773 141.8209 487.29773 141.8209, 487.29773 156.56306 487.29773 156.56306, 487.29773 156.56306"/>
      </g>
      <g>
        <polyline style="fill: gray;stroke: black;stroke-width: 1;" points="487.29773 438.938924, 482.082602 438.938924 482.082602 438.938924, 476.867474 438.938924 476.867474 438.938924, 471.652092 438.938924 471.652092 438.938924, 466.436964 438.938924 466.436964 438.938924, 466.436964 422.091866 466.436964 422.091866, 466.436964 405.24557 466.436964 405.24557, 466.436964 388.400036 466.436964 388.400036, 466.436964 371.55374 466.436964 371.55374, 471.652092 371.55374 471.652092 371.55374, 476.867474 371.55374 476.867474 371.55374, 482.082602 371.55374 482.082602 371.55374, 487.29773 371.55374 487.29773 371.55374, 487.29773 388.400036 487.29773 388.400036, 487.29773 405.24557 487.29773 405.24557, 487.29773 422.091866 487.29773 422.091866, 487.29773 438.938924 487.29773 438.938924, 487.29773 438.938924"/>
      </g>
      <g>
        <polyline style="fill: gray;stroke: black;stroke-width: 1;" points="533.822148 342.674194, 528.606766 342.674194 528.606766 342.674194, 523.391638 342.674194 523.391638 342.674194, 518.17651 342.674194 518.17651 342.674194, 512.962144 342.674194 512.962144 342.674194, 512.962144 327.030842 512.962144 327.030842, 512.962144 311.388506 512.962144 311.388506, 512.962144 295.7449 512.962144 295.7449, 512.962144 280.10358 512.962144 280.10358, 518.17651 280.10358 518.17651 280.10358, 523.391638 280.10358 523.391638 280.10358, 528.606766 280.10358 528.606766 280.10358, 533.822148 280.10358 533.822148 280.10358, 533.822148 295.7449 533.822148 295.7449, 533.822148 311.388506 533.822148 311.388506, 533.822148 327.030842 533.822148 327.030842, 533.822148 342.674194 533.822148 342.674194, 533.822148 342.674194"/>
      </g>
      <g>
        <polyline style="fill: gray;stroke: black;stroke-width: 1;" points="403.621494 630.20702, 406.313386 634.674118 406.313386 634.674118, 409.005532 639.140708 409.005532 639.140708, 411.697678 643.607044 411.697678 643.607044, 414.389824 648.07338 414.389824 648.07338, 399.962624 656.770594 399.962624 656.770594, 385.535678 665.467046 385.535678 665.467046, 371.109494 674.164006 371.109494 674.164006, 356.682548 682.86122 356.682548 682.86122, 353.990402 678.394122 353.990402 678.394122, 351.298256 673.927532 351.298256 673.927532, 348.60611 669.461196 348.60611 669.461196, 345.914218 664.99486 345.914218 664.99486, 360.341164 656.297646 360.341164 656.297646, 374.767348 647.601448 374.767348 647.601448, 389.194294 638.904234 389.194294 638.904234, 403.621494 630.20702 403.621494 630.20702, 403.621494 630.20702"/>
      </g>
      <g>
        <polyline style="fill: gray;stroke: black;stroke-width: 1;" points="379.606556 590.362294, 382.29794 594.82863 382.29794 594.82863, 384.988562 599.294966 384.988562 599.294966, 387.679692 603.761302 387.679692 603.761302, 390.370314 608.228654 390.370314 608.228654, 375.94413 616.923328 375.94413 616.923328, 361.51693 625.61978 361.51693 625.61978, 347.090746 634.315216 347.090746 634.315216, 332.6638 643.010906 332.6638 643.010906, 329.97013 638.545332 329.97013 638.545332, 327.277222 634.079758 327.277222 634.079758, 324.583552 629.614946 324.583552 629.614946, 321.890644 625.149118 321.890644 625.149118, 336.319368 616.452158 336.319368 616.452158, 350.7486 607.755706 350.7486 607.755706, 365.177324 599.058492 365.177324 599.058492, 379.606556 590.362294 379.606556 590.362294, 379.606556 590.362294"/>
      </g>
      <g>
        <polyline style="fill: gray;stroke: black;stroke-width: 1;" points="321.180714 679.904152, 323.871336 684.37125 323.871336 684.37125, 326.562466 688.837586 326.562466 688.837586, 329.25385 693.303922 329.25385 693.303922, 331.945234 697.770258 331.945234 697.770258, 318.548258 705.845934 318.548258 705.845934, 305.152298 713.921356 305.152298 713.921356, 291.756084 721.996778 291.756084 721.996778, 278.360124 730.071438 278.360124 730.071438, 275.667978 725.605102 275.667978 725.605102, 272.975832 721.138766 272.975832 721.138766, 270.28394 716.67243 270.28394 716.67243, 267.591794 712.205078 267.591794 712.205078, 280.988516 704.130418 280.988516 704.130418, 294.386254 696.054996 294.386254 696.054996, 307.782976 687.979574 307.782976 687.979574, 321.180714 679.904152 321.180714 679.904152, 321.180714 679.904152"/>
      </g>
      <g>
        <polyline style="fill: gray;stroke: black;stroke-width: 1;" points="297.156632 640.0546, 299.850302 644.520936 299.850302 644.520936, 302.543972 648.987272 302.543972 648.987272, 305.236626 653.45437 305.236626 653.45437, 307.930296 657.920198 307.930296 657.920198, 294.532812 665.997144 294.532812 665.997144, 281.135836 674.073328 281.135836 674.073328, 267.738352 682.149512 267.738352 682.149512, 254.340614 690.226712 254.340614 690.226712, 251.647706 685.760376 251.647706 685.760376, 248.954036 681.293024 248.954036 681.293024, 246.26062 676.826688 246.26062 676.826688, 243.56822 672.360352 243.56822 672.360352, 256.965196 664.284168 256.965196 664.284168, 270.362172 656.20773 270.362172 656.20773, 283.759656 648.131546 283.759656 648.131546, 297.156632 640.0546 297.156632 640.0546, 297.156632 640.0546"/>
      </g>
      <g>
        <polyline style="fill: gray;stroke: black;stroke-width: 1;" points="244.22608 726.28887, 245.57482 728.521276 245.57482 728.521276, 246.921782 730.753682 246.921782 730.753682, 248.26976 732.986088 248.26976 732.986088, 249.617738 735.218494 249.617738 735.218494, 234.93222 744.070648 234.93222 744.070648, 220.2434 752.922802 220.2434 752.922802, 205.55712 761.774956 205.55712 761.774956, 190.87084 770.62711 190.87084 770.62711, 189.52464 768.394704 189.52464 768.394704, 188.17844 766.161536 188.17844 766.161536, 186.83224 763.92913 186.83224 763.92913, 185.48604 761.696724 185.48604 761.696724, 200.16978 752.84457 200.16978 752.84457, 214.85606 743.992416 214.85606 743.992416, 229.5398 735.140262 229.5398 735.140262, 244.22608 726.28887 244.22608 726.28887, 244.22608 726.28887"/>
      </g>
      <g>
        <polyline style="fill: gray;stroke: black;stroke-width: 1;" points="222.90532 690.912766, 224.25152 693.145934 224.25152 693.145934, 225.59772 695.37834 225.59772 695.37834, 226.94392 697.610746 226.94392 697.610746, 228.29266 699.843914 228.29266 699.843914, 213.60384 708.695306 213.60384 708.695306, 198.91756 717.54746 198.91756 717.54746, 184.23128 726.400376 184.23128 726.400376, 169.545 735.251768 169.545 735.251768, 168.1988 733.019362 168.1988 733.019362, 166.8526 730.786194 166.8526 730.786194, 165.5064 728.553788 165.5064 728.553788, 164.1602 726.32062 164.1602 726.32062, 178.84394 717.469228 178.84394 717.469228, 193.53276 708.617074 193.53276 708.617074, 208.21904 699.76492 208.21904 699.76492, 222.90532 690.912766 222.90532 690.912766, 222.90532 690.912766"/>
      </g>
      <g>
        <polyline style="fill: gray;stroke: black;stroke-width: 1;" points="161.7853 775.980414, 162.4584 777.099538 162.4584 777.099538, 163.1315 778.218154 163.1315 778.218154, 163.8046 779.33677 163.8046 779.33677, 164.4777 780.455894 164.4777 780.455894, 151.8539 788.065734 151.8539 788.065734, 139.2301 795.67532 139.2301 795.67532, 126.6063 803.285668 126.6063 803.285668, 113.9825 810.895254 113.9825 810.895254, 113.3094 809.776638 113.3094 809.776638, 112.6363 808.658276 112.6363 808.658276, 111.9632 807.53966 111.9632 807.53966, 111.2901 806.420282 111.2901 806.420282, 123.9139 798.810696 123.9139 798.810696, 136.5377 791.200348 136.5377 791.200348, 149.1615 783.590762 149.1615 783.590762, 161.7853 775.980414 161.7853 775.980414, 161.7853 775.980414"/>
      </g>
      <g>
        <polyline style="fill: gray;stroke: black;stroke-width: 1;" points="144.49806 747.308386, 145.17116 748.424716 145.17116 748.424716, 145.84426 749.540792 145.84426 749.540792, 146.51736 750.657884 146.51736 750.657884, 147.19046 751.77396 147.19046 751.77396, 134.56666 759.3838 134.56666 759.3838, 121.94286 766.993386 121.94286 766.993386, 109.31906 774.603734 109.31906 774.603734, 96.69526 782.21332 96.69526 782.21332, 96.01962 781.095466 96.01962 781.095466, 95.34398 779.978628 95.34398 779.978628, 94.67088 778.861536 94.67088 778.861536, 93.99524 777.743682 93.99524 777.743682, 106.62158 770.134858 106.62158 770.134858, 119.24538 762.526034 119.24538 762.526034, 131.87172 754.91721 131.87172 754.91721, 144.49806 747.308386 144.49806 747.308386, 144.49806 747.308386"/>
      </g>
      <g>
        <polyline style="fill: gray;stroke: black;stroke-width: 1;" points="487.29773 342.674194, 482.082602 342.674194 482.082602 342.674194, 476.867474 342.674194 476.867474 342.674194, 471.652092 342.674194 471.652092 342.674194, 466.436964 342.674194 466.436964 342.674194, 466.436964 327.030842 466.436964 327.030842, 466.436964 311.388506 466.436964 311.388506, 466.436964 295.7449 466.436964 295.7449, 466.436964 280.10358 466.436964 280.10358, 471.652092 280.10358 471.652092 280.10358, 476.867474 280.10358 476.867474 280.10358, 482.082602 280.10358 482.082602 280.10358, 487.29773 280.10358 487.29773 280.10358, 487.29773 295.7449 487.29773 295.7449, 487.29773 311.388506 487.29773 311.388506, 487.29773 327.030842 487.29773 327.030842, 487.29773 342.674194 487.29773 342.674194, 487.29773 342.674194"/>
      </g>
      <g>
        <polyline style="fill: gray;stroke: black;stroke-width: 1;" points="615.0356 610.738428, 617.66196 606.232468 617.66196 606.232468, 620.288066 601.727524 620.288066 601.727524, 622.914172 597.222326 622.914172 597.222326, 625.541294 592.717128 625.541294 592.717128, 640.094732 601.200982 640.094732 601.200982, 654.647916 609.68509 654.647916 609.68509, 669.202116 618.169706 669.202116 618.169706, 683.755554 626.653052 683.755554 626.653052, 681.129194 631.159774 681.129194 631.159774, 678.503088 635.666496 678.503088 635.666496, 675.876982 640.173218 675.876982 640.173218, 673.24986 644.67994 673.24986 644.67994, 658.696676 636.194308 658.696676 636.194308, 644.142476 627.708676 644.142476 627.708676, 629.589038 619.22406 629.589038 619.22406, 615.0356 610.738428 615.0356 610.738428, 615.0356 610.738428"/>
      </g>
      <g>
        <polyline style="fill: gray;stroke: black;stroke-width: 1;" points="591.603846 650.931388, 594.230714 646.425428 594.230714 646.425428, 596.85682 641.92023 596.85682 641.92023, 599.48318 637.415032 599.48318 637.415032, 602.109286 632.910088 602.109286 632.910088, 616.661962 641.394704 616.661962 641.394704, 631.214638 649.880336 631.214638 649.880336, 645.76706 658.366476 645.76706 658.366476, 660.318974 666.851346 660.318974 666.851346, 657.692868 671.355782 657.692868 671.355782, 655.066508 675.859964 655.066508 675.859964, 652.440402 680.363638 652.440402 680.363638, 649.81328 684.868074 649.81328 684.868074, 635.26162 676.383966 635.26162 676.383966, 620.708944 667.89935 620.708944 667.89935, 606.156268 659.415242 606.156268 659.415242, 591.603846 650.931388 591.603846 650.931388, 591.603846 650.931388"/>
      </g>
      <g>
        <polyline style="fill: gray;stroke: black;stroke-width: 1;" points="698.194946 659.222456, 700.822576 654.718782 700.822576 654.718782, 703.45046 650.214346 703.45046 650.214346, 706.077328 645.70991 706.077328 645.70991, 708.705212 641.20649 708.705212 641.20649, 722.217504 649.0843 722.217504 649.0843, 735.729796 656.96211 735.729796 656.96211, 749.243104 664.83992 749.243104 664.83992, 762.75438 672.71773 762.75438 672.71773, 760.12802 677.22369 760.12802 677.22369, 757.50166 681.728634 757.50166 681.728634, 754.8753 686.233832 754.8753 686.233832, 752.249702 690.73903 752.249702 690.73903, 738.735886 682.860458 738.735886 682.860458, 725.222832 674.981124 725.222832 674.981124, 711.708762 667.10179 711.708762 667.10179, 698.194946 659.222456 698.194946 659.222456, 698.194946 659.222456"/>
      </g>
      <g>
        <polyline style="fill: gray;stroke: black;stroke-width: 1;" points="674.7637 699.415924, 677.39006 694.909964 677.39006 694.909964, 680.016166 690.40502 680.016166 690.40502, 682.642526 685.899822 682.642526 685.899822, 685.269394 681.394624 685.269394 681.394624, 698.78321 689.273196 698.78321 689.273196, 712.296518 697.15253 712.296518 697.15253, 725.809572 705.031102 725.809572 705.031102, 739.323388 712.910436 739.323388 712.910436, 736.697282 717.415634 736.697282 717.415634, 734.070922 721.921594 734.070922 721.921594, 731.444816 726.426792 731.444816 726.426792, 728.817948 730.932752 728.817948 730.932752, 715.303878 723.053418 715.303878 723.053418, 701.790824 715.174084 701.790824 715.174084, 688.27777 707.294496 688.27777 707.294496, 674.7637 699.415924 674.7637 699.415924, 674.7637 699.415924"/>
      </g>
      <g>
        <polyline style="fill: gray;stroke: black;stroke-width: 1;" points="775.81252 704.478398, 777.12824 702.225926 777.12824 702.225926, 778.44396 699.973454 778.44396 699.973454, 779.75714 697.719966 779.75714 697.719966, 781.07286 695.468256 781.07286 695.468256, 795.88614 704.104764 795.88614 704.104764, 810.69688 712.741526 810.69688 712.741526, 825.50762 721.378288 825.50762 721.378288, 840.3209 730.015812 840.3209 730.015812, 839.00772 732.268284 839.00772 732.268284, 837.69708 734.520756 837.69708 734.520756, 836.3839 736.773482 836.3839 736.773482, 835.07072 739.025954 835.07072 739.025954, 820.25744 730.389446 820.25744 730.389446, 805.44162 721.752684 805.44162 721.752684, 790.62834 713.11516 790.62834 713.11516, 775.81252 704.478398 775.81252 704.478398, 775.81252 704.478398"/>
      </g>
      <g>
        <polyline style="fill: gray;stroke: black;stroke-width: 1;" points="755.00992 740.159302, 756.3231 737.907592 756.3231 737.907592, 757.63628 735.655628 757.63628 735.655628, 758.94946 733.40468 758.94946 733.40468, 760.26264 731.152716 760.26264 731.152716, 775.07592 739.789478 775.07592 739.789478, 789.8892 748.427002 789.8892 748.427002, 804.70502 757.064526 804.70502 757.064526, 819.51576 765.701034 819.51576 765.701034, 818.20258 767.95376 818.20258 767.95376, 816.8894 770.206232 816.8894 770.206232, 815.57622 772.458958 815.57622 772.458958, 814.26304 774.71143 814.26304 774.71143, 799.44722 766.073144 799.44722 766.073144, 784.63648 757.434858 784.63648 757.434858, 769.8232 748.797588 769.8232 748.797588, 755.00992 740.159302 755.00992 740.159302, 755.00992 740.159302"/>
      </g>
      <g>
        <polyline style="fill: gray;stroke: black;stroke-width: 1;" points="858.9772 752.966998, 859.63252 751.839238 859.63252 751.839238, 860.29038 750.711224 860.29038 750.711224, 860.94824 749.582702 860.94824 749.582702, 861.60356 748.454942 861.60356 748.454942, 874.33658 755.879362 874.33658 755.879362, 887.07214 763.303528 887.07214 763.303528, 899.80516 770.727948 899.80516 770.727948, 912.53818 778.152368 912.53818 778.152368, 911.88032 779.280128 911.88032 779.280128, 911.225 780.40865 911.225 780.40865, 910.56714 781.536664 910.56714 781.536664, 909.91182 782.664424 909.91182 782.664424, 897.17626 775.240766 897.17626 775.240766, 884.44324 767.815584 884.44324 767.815584, 871.71022 760.391418 871.71022 760.391418, 858.9772 752.966998 858.9772 752.966998, 858.9772 752.966998"/>
      </g>
      <g>
        <polyline style="fill: gray;stroke: black;stroke-width: 1;" points="842.1116 781.888454, 842.76946 780.76298 842.76946 780.76298, 843.42478 779.637506 843.42478 779.637506, 844.08264 778.512032 844.08264 778.512032, 844.7405 777.386558 844.7405 777.386558, 857.47352 784.809962 857.47352 784.809962, 870.20654 792.235144 870.20654 792.235144, 882.93956 799.659564 882.93956 799.659564, 895.67258 807.08373 895.67258 807.08373, 895.01726 808.21022 895.01726 808.21022, 894.36194 809.337218 894.36194 809.337218, 893.70662 810.464216 893.70662 810.464216, 893.04876 811.591214 893.04876 811.591214, 880.31574 804.165524 880.31574 804.165524, 867.58018 796.740342 867.58018 796.740342, 854.84716 789.314398 854.84716 789.314398, 842.1116 781.888454 842.1116 781.888454, 842.1116 781.888454"/>
      </g>
      <g>
        <polyline style="fill: gray;stroke: black;stroke-width: 1;" points="520.783312 156.56306, 519.478768 156.56306 519.478768 156.56306, 518.174224 156.56306 518.174224 156.56306, 516.870442 156.56306 516.870442 156.56306, 515.565644 156.56306 515.565644 156.56306, 515.565644 141.8209 515.565644 141.8209, 515.565644 127.08128 515.565644 127.08128, 515.565644 112.34166 515.565644 112.34166, 515.565644 97.5995 515.565644 97.5995, 516.870442 97.5995 516.870442 97.5995, 518.174224 97.5995 518.174224 97.5995, 519.478768 97.5995 519.478768 97.5995, 520.783312 97.5995 520.783312 97.5995, 520.783312 112.34166 520.783312 112.34166, 520.783312 127.08128 520.783312 127.08128, 520.783312 141.8209 520.783312 141.8209, 520.783312 156.56306 520.783312 156.56306, 520.783312 156.56306"/>
      </g>
      <g>
        <polyline style="fill: gray;stroke: black;stroke-width: 1;" points="598.091768 563.629048, 590.574384 601.036898 590.574384 601.036898, 570.074806 631.583192 570.074806 631.583192, 539.665926 652.177258 539.665926 652.177258, 502.4247 659.72944 502.4247 659.72944, 465.189824 652.177258 465.189824 652.177258, 434.783738 631.583192 434.783738 631.583192, 414.284414 601.036898 414.284414 601.036898, 406.76703 563.629048 406.76703 563.629048, 414.284414 526.2245 414.284414 526.2245, 434.783738 495.67973 434.783738 495.67973, 465.189824 475.085664 465.189824 475.085664, 502.4247 467.534244 502.4247 467.534244, 539.665926 475.085664 539.665926 475.085664, 570.074806 495.67973 570.074806 495.67973, 590.574384 526.2245 590.574384 526.2245, 598.091768 563.629048 598.091768 563.629048, 598.091768 563.629048"/>
      </g>
      <g>
        <polyline style="fill: gray;stroke: black;stroke-width: 1;" points="598.091768 736.571298, 550.26052 736.571298 550.26052 736.571298, 502.429272 736.571298 502.429272 736.571298, 454.598024 736.571298 454.598024 736.571298, 406.76703 736.571298 406.76703 736.571298, 406.76703 726.62542 406.76703 726.62542, 406.76703 716.679542 406.76703 716.679542, 406.76703 706.733664 406.76703 706.733664, 406.76703 696.787786 406.76703 696.787786, 454.598024 696.787786 454.598024 696.787786, 502.429272 696.787786 502.429272 696.787786, 550.26052 696.787786 550.26052 696.787786, 598.091768 696.787786 598.091768 696.787786, 598.091768 706.733664 598.091768 706.733664, 598.091768 716.679542 598.091768 716.679542, 598.091768 726.62542 598.091768 726.62542, 598.091768 736.571298 598.091768 736.571298, 598.091768 736.571298"/>
      </g>
      <g>
        <polyline style="fill: gray;stroke: black;stroke-width: 1;" points="540.333946 696.787786, 521.983208 696.787786 521.983208 696.787786, 503.632216 696.787786 503.632216 696.787786, 485.283002 696.787786 485.283002 696.787786, 466.932264 696.787786 466.932264 696.787786, 466.932264 687.054252 466.932264 687.054252, 466.932264 677.320718 466.932264 677.320718, 466.932264 667.587184 466.932264 667.587184, 466.932264 657.85365 466.932264 657.85365, 485.283002 657.85365 485.283002 657.85365, 503.632216 657.85365 503.632216 657.85365, 521.983208 657.85365 521.983208 657.85365, 540.333946 657.85365 540.333946 657.85365, 540.333946 667.587184 540.333946 667.587184, 540.333946 677.320718 540.333946 677.320718, 540.333946 687.054252 540.333946 687.054252, 540.333946 696.787786 540.333946 696.787786, 540.333946 696.787786"/>
      </g>
      <g>
        <polyline style="fill: transparent;stroke: black;stroke-width: 1;" points="462.495392 523.592044, 463.377534 523.592044 463.377534 523.592044, 464.259422 523.592044 464.259422 523.592044, 465.14004 523.592044 465.14004 523.592044, 466.022182 523.592044"/>
      </g>
      <g>
        <polyline style="fill: transparent;stroke: black;stroke-width: 1;" points="462.495392 522.886686, 463.377534 522.886686 463.377534 522.886686, 464.259422 522.886686 464.259422 522.886686, 465.14004 522.886686 465.14004 522.886686, 466.022182 522.886686"/>
      </g>
    </g>
  </g>
</svg>
