<?xml version="1.0" encoding="utf-8"?>
<!-- Generator: SVG Export - SVG Version: 6.00 Build 1  -->
<!-- FXGUID: [9E5A2164-8C94-11ED-AFEA-525400685065] SYMID: [18510]  -->
<svg xmlns="http://www.w3.org/2000/svg" version="1.1" ch_offset="0" color_bar_width="66" width="1516.2403" height="1326.71312" origin_x="751.85016" origin_y="839.73924" ch_offset_x="757.9918038" ch_offset_y="40" color_offset_x="751.85016" color_offset_y="-4">
  <g>
    <title>Layer 1</title>
    <g>
      <g>
        <polyline style="fill: gray;stroke: black;stroke-width: 1;" points="1503.5403 1218.311, 1489.59316 1242.23526 1489.59316 1242.23526, 1475.64348 1266.16206 1475.64348 1266.16206, 1461.69634 1290.08886 1461.69634 1290.08886, 1447.74666 1314.01566 1447.74666 1314.01566, 1295.00884 1230.5411 1295.00884 1230.5411, 1142.26848 1147.06654 1142.26848 1147.06654, 989.529644 1063.591726 989.529644 1063.591726, 836.790046 980.117674 836.790046 980.117674, 857.410528 944.750968 857.410528 944.750968, 878.03101 909.38477 878.03101 909.38477, 898.651492 874.018064 898.651492 874.018064, 919.272736 838.651866 919.272736 838.651866, 1065.3395 933.566332 1065.3395 933.566332, 1211.40728 1028.480544 1211.40728 1028.480544, 1357.47506 1123.39628 1357.47506 1123.39628, 1503.5403 1218.311 1503.5403 1218.311, 1503.5403 1218.311"/>
      </g>
      <g>
        <polyline style="fill: gray;stroke: black;stroke-width: 1;" points="59.73064 1309.63924, 45.43298 1285.92326 45.43298 1285.92326, 31.13532 1262.20474 31.13532 1262.20474, 16.83766 1238.48622 16.83766 1238.48622, 2.54 1214.7677 2.54 1214.7677, 149.06752 1120.81818 149.06752 1120.81818, 295.59758 1026.868406 295.59758 1026.868406, 442.12764 932.918378 442.12764 932.918378, 588.655668 838.968858 588.655668 838.968858, 609.789992 874.029748 609.789992 874.029748, 630.923554 909.091908 630.923554 909.091908, 652.057878 944.152544 652.057878 944.152544, 673.192456 979.213942 673.192456 979.213942, 519.826494 1061.820584 519.826494 1061.820584, 366.46104 1144.42748 366.46104 1144.42748, 213.09584 1227.03336 213.09584 1227.03336, 59.73064 1309.63924 59.73064 1309.63924, 59.73064 1309.63924"/>
      </g>
      <g>
        <polyline style="fill: gray;stroke: black;stroke-width: 1;" points="698.844932 2.54, 726.54033 2.54 726.54033 2.54, 754.236236 2.54 754.236236 2.54, 781.93138 2.54 781.93138 2.54, 809.62754 2.54 809.62754 2.54, 814.442618 176.53254 814.442618 176.53254, 819.25795 350.52508 819.25795 350.52508, 824.072266 524.52016 824.072266 524.52016, 828.887598 698.513208 828.887598 698.513208, 787.949656 698.513208 787.949656 698.513208, 747.011206 698.513208 747.011206 698.513208, 706.073264 698.513208 706.073264 698.513208, 665.134814 698.513208 665.134814 698.513208, 673.562026 524.52016 673.562026 524.52016, 681.989492 350.52508 681.989492 350.52508, 690.41772 176.53254 690.41772 176.53254, 698.844932 2.54 698.844932 2.54, 698.844932 2.54"/>
      </g>
      <g>
        <polyline style="fill: transparent;stroke: black;stroke-width: 1;" points="692.185052 782.65528, 693.508138 782.65528 693.508138 782.65528, 694.83224 782.65528 694.83224 782.65528, 696.156088 782.65528 696.156088 782.65528, 697.479936 782.65528"/>
      </g>
      <g>
        <polyline style="fill: transparent;stroke: black;stroke-width: 1;" points="692.185052 781.595592, 693.508138 781.595592 693.508138 781.595592, 694.83224 781.595592 694.83224 781.595592, 696.156088 781.595592 696.156088 781.595592, 697.479936 781.595592"/>
      </g>
      <g>
        <polyline style="fill: gray;stroke: black;stroke-width: 1;" points="799.989256 657.571456, 792.161738 657.571456 792.161738 657.571456, 784.333712 657.571456 784.333712 657.571456, 776.506194 657.571456 776.506194 657.571456, 768.677914 657.571456 768.677914 657.571456, 768.677914 632.285502 768.677914 632.285502, 768.677914 606.999294 768.677914 606.999294, 768.677914 581.71334 768.677914 581.71334, 768.677914 556.42764 768.677914 556.42764, 776.506194 556.42764 776.506194 556.42764, 784.333712 556.42764 784.333712 556.42764, 792.161738 556.42764 792.161738 556.42764, 799.989256 556.42764 799.989256 556.42764, 799.989256 581.71334 799.989256 581.71334, 799.989256 606.999294 799.989256 606.999294, 799.989256 632.285502 799.989256 632.285502, 799.989256 657.571456 799.989256 657.571456, 799.989256 657.571456"/>
      </g>
      <g>
        <polyline style="fill: gray;stroke: black;stroke-width: 1;" points="730.156274 378.2187, 726.242642 378.2187 726.242642 378.2187, 722.32901 378.2187 722.32901 378.2187, 718.414362 378.2187 718.414362 378.2187, 714.50073 378.2187 714.50073 378.2187, 714.50073 352.48088 714.50073 352.48088, 714.50073 326.74306 714.50073 326.74306, 714.50073 301.00524 714.50073 301.00524, 714.50073 275.26742 714.50073 275.26742, 718.414362 275.26742 718.414362 275.26742, 722.32901 275.26742 722.32901 275.26742, 726.242642 275.26742 726.242642 275.26742, 730.156274 275.26742 730.156274 275.26742, 730.156274 301.00524 730.156274 301.00524, 730.156274 326.74306 730.156274 326.74306, 730.156274 352.48088 730.156274 352.48088, 730.156274 378.2187 730.156274 378.2187, 730.156274 378.2187"/>
      </g>
      <g>
        <polyline style="fill: gray;stroke: black;stroke-width: 1;" points="792.157928 378.2187, 788.244296 378.2187 788.244296 378.2187, 784.330664 378.2187 784.330664 378.2187, 780.416016 378.2187 780.416016 378.2187, 776.502384 378.2187 776.502384 378.2187, 776.502384 352.48088 776.502384 352.48088, 776.502384 326.74306 776.502384 326.74306, 776.502384 301.00524 776.502384 301.00524, 776.502384 275.26742 776.502384 275.26742, 780.416016 275.26742 780.416016 275.26742, 784.330664 275.26742 784.330664 275.26742, 788.244296 275.26742 788.244296 275.26742, 792.157928 275.26742 792.157928 275.26742, 792.157928 301.00524 792.157928 301.00524, 792.157928 326.74306 792.157928 326.74306, 792.157928 352.48088 792.157928 352.48088, 792.157928 378.2187 792.157928 378.2187, 792.157928 378.2187"/>
      </g>
      <g>
        <polyline style="fill: gray;stroke: black;stroke-width: 1;" points="730.156274 233.72572, 728.198188 233.72572 728.198188 233.72572, 726.241118 233.72572 726.241118 233.72572, 724.283032 233.72572 724.283032 233.72572, 722.324946 233.72572 722.324946 233.72572, 722.324946 211.59978 722.324946 211.59978, 722.324946 189.47638 722.324946 189.47638, 722.324946 167.35044 722.324946 167.35044, 722.324946 145.2245 722.324946 145.2245, 724.283032 145.2245 724.283032 145.2245, 726.241118 145.2245 726.241118 145.2245, 728.198188 145.2245 728.198188 145.2245, 730.156274 145.2245 730.156274 145.2245, 730.156274 167.35044 730.156274 167.35044, 730.156274 189.47638 730.156274 189.47638, 730.156274 211.59978 730.156274 211.59978, 730.156274 233.72572 730.156274 233.72572, 730.156274 233.72572"/>
      </g>
      <g>
        <polyline style="fill: gray;stroke: black;stroke-width: 1;" points="730.156274 657.571456, 722.32901 657.571456 722.32901 657.571456, 714.50073 657.571456 714.50073 657.571456, 706.673212 657.571456 706.673212 657.571456, 698.844932 657.571456 698.844932 657.571456, 698.844932 632.285502 698.844932 632.285502, 698.844932 606.999294 698.844932 606.999294, 698.844932 581.71334 698.844932 581.71334, 698.844932 556.42764 698.844932 556.42764, 706.673212 556.42764 706.673212 556.42764, 714.50073 556.42764 714.50073 556.42764, 722.32901 556.42764 722.32901 556.42764, 730.156274 556.42764 730.156274 556.42764, 730.156274 581.71334 730.156274 581.71334, 730.156274 606.999294 730.156274 606.999294, 730.156274 632.285502 730.156274 632.285502, 730.156274 657.571456 730.156274 657.571456, 730.156274 657.571456"/>
      </g>
      <g>
        <polyline style="fill: gray;stroke: black;stroke-width: 1;" points="799.989256 513.08, 792.161738 513.08 792.161738 513.08, 784.333712 513.08 784.333712 513.08, 776.506194 513.08 776.506194 513.08, 768.677914 513.08 768.677914 513.08, 768.677914 489.60024 768.677914 489.60024, 768.677914 466.12048 768.677914 466.12048, 768.677914 442.64072 768.677914 442.64072, 768.677914 419.15842 768.677914 419.15842, 776.506194 419.15842 776.506194 419.15842, 784.333712 419.15842 784.333712 419.15842, 792.161738 419.15842 792.161738 419.15842, 799.989256 419.15842 799.989256 419.15842, 799.989256 442.64072 799.989256 442.64072, 799.989256 466.12048 799.989256 466.12048, 799.989256 489.60024 799.989256 489.60024, 799.989256 513.08 799.989256 513.08, 799.989256 513.08"/>
      </g>
      <g>
        <polyline style="fill: gray;stroke: black;stroke-width: 1;" points="604.558608 944.664862, 608.599494 951.369192 608.599494 951.369192, 612.640126 958.073268 612.640126 958.073268, 616.681012 964.777598 616.681012 964.777598, 620.721898 971.481928 620.721898 971.481928, 599.067382 984.536004 599.067382 984.536004, 577.412866 997.589572 577.412866 997.589572, 555.75835 1010.642886 555.75835 1010.642886, 534.104596 1023.697216 534.104596 1023.697216, 530.063202 1016.992886 530.063202 1016.992886, 526.023078 1010.28881 526.023078 1010.28881, 521.982192 1003.58448 521.982192 1003.58448, 517.941306 996.88015 517.941306 996.88015, 539.59506 983.826074 539.59506 983.826074, 561.249576 970.772506 561.249576 970.772506, 582.904092 957.71843 582.904092 957.71843, 604.558608 944.664862 604.558608 944.664862, 604.558608 944.664862"/>
      </g>
      <g>
        <polyline style="fill: gray;stroke: black;stroke-width: 1;" points="568.512706 884.856752, 572.552068 891.561082 572.552068 891.561082, 576.591176 898.265412 576.591176 898.265412, 580.630538 904.969488 580.630538 904.969488, 584.6699 911.67458 584.6699 911.67458, 563.015384 924.725862 563.015384 924.725862, 541.360868 937.778414 541.360868 937.778414, 519.706352 950.830458 519.706352 950.830458, 498.051836 963.882248 498.051836 963.882248, 494.00968 957.179696 494.00968 957.179696, 489.966 950.477652 489.966 950.477652, 485.92486 943.7751 485.92486 943.7751, 481.88118 937.072294 481.88118 937.072294, 503.539252 924.018726 503.539252 924.018726, 525.197578 910.96465 525.197578 910.96465, 546.855142 897.911082 546.855142 897.911082, 568.512706 884.856752 568.512706 884.856752, 568.512706 884.856752"/>
      </g>
      <g>
        <polyline style="fill: gray;stroke: black;stroke-width: 1;" points="480.81692 1019.259582, 484.85552 1025.963658 484.85552 1025.963658, 488.89412 1032.667988 488.89412 1032.667988, 492.93272 1039.372318 492.93272 1039.372318, 496.97386 1046.076394 496.97386 1046.076394, 476.86468 1058.197528 476.86468 1058.197528, 456.75804 1070.318408 456.75804 1070.318408, 436.6514 1082.439288 436.6514 1082.439288, 416.54222 1094.55966 416.54222 1094.55966, 412.50108 1087.856092 412.50108 1087.856092, 408.45994 1081.151762 408.45994 1081.151762, 404.42134 1074.447686 404.42134 1074.447686, 400.37766 1067.743356 400.37766 1067.743356, 420.48938 1055.622476 420.48938 1055.622476, 440.59856 1043.501342 440.59856 1043.501342, 460.70774 1031.380462 460.70774 1031.380462, 480.81692 1019.259582 480.81692 1019.259582, 480.81692 1019.259582"/>
      </g>
      <g>
        <polyline style="fill: gray;stroke: black;stroke-width: 1;" points="444.75654 959.445376, 448.80022 966.149706 448.80022 966.149706, 452.84136 972.853782 452.84136 972.853782, 456.88504 979.55735 456.88504 979.55735, 460.92872 986.261426 460.92872 986.261426, 440.81954 998.384084 440.81954 998.384084, 420.70782 1010.50725 420.70782 1010.50725, 400.59864 1022.629908 400.59864 1022.629908, 380.48946 1034.753074 380.48946 1034.753074, 376.44832 1028.048998 376.44832 1028.048998, 372.40464 1021.344668 372.40464 1021.344668, 368.3635 1014.640338 368.3635 1014.640338, 364.31982 1007.936262 364.31982 1007.936262, 384.429 995.813604 384.429 995.813604, 404.53818 983.6912 404.53818 983.6912, 424.64736 971.568542 424.64736 971.568542, 444.75654 959.445376 444.75654 959.445376, 444.75654 959.445376"/>
      </g>
      <g>
        <polyline style="fill: gray;stroke: black;stroke-width: 1;" points="365.30788 1088.881744, 367.32972 1092.232512 367.32972 1092.232512, 369.3541 1095.58328 369.3541 1095.58328, 371.37594 1098.93608 371.37594 1098.93608, 373.40032 1102.28634 373.40032 1102.28634, 351.35566 1115.57308 351.35566 1115.57308, 329.311 1128.85982 329.311 1128.85982, 307.26634 1142.14656 307.26634 1142.14656, 285.22422 1155.4333 285.22422 1155.4333, 283.20238 1152.08304 283.20238 1152.08304, 281.18054 1148.73024 281.18054 1148.73024, 279.1587 1145.37998 279.1587 1145.37998, 277.13686 1142.02972 277.13686 1142.02972, 299.17898 1128.74298 299.17898 1128.74298, 321.22364 1115.45624 321.22364 1115.45624, 343.26322 1102.1695 343.26322 1102.1695, 365.30788 1088.881744 365.30788 1088.881744, 365.30788 1088.881744"/>
      </g>
      <g>
        <polyline style="fill: gray;stroke: black;stroke-width: 1;" points="333.30388 1035.782536, 335.32572 1039.13432 335.32572 1039.13432, 337.34756 1042.486104 337.34756 1042.486104, 339.3694 1045.836872 339.3694 1045.836872, 341.39124 1049.188656 341.39124 1049.188656, 319.34658 1062.475396 319.34658 1062.475396, 297.30192 1075.761374 297.30192 1075.761374, 275.25726 1089.04913 275.25726 1089.04913, 253.2126 1102.33714 253.2126 1102.33714, 251.19076 1098.98434 251.19076 1098.98434, 249.16892 1095.63408 249.16892 1095.63408, 247.14962 1092.281534 247.14962 1092.281534, 245.12778 1088.92975 245.12778 1088.92975, 267.17244 1075.643772 267.17244 1075.643772, 289.2171 1062.356016 289.2171 1062.356016, 311.25922 1049.069276 311.25922 1049.069276, 333.30388 1035.782536 333.30388 1035.782536, 333.30388 1035.782536"/>
      </g>
      <g>
        <polyline style="fill: gray;stroke: black;stroke-width: 1;" points="241.56416 1163.46986, 242.57508 1165.1488 242.57508 1165.1488, 243.586 1166.82774 243.586 1166.82774, 244.59692 1168.50668 244.59692 1168.50668, 245.60784 1170.18562 245.60784 1170.18562, 226.65944 1181.608 226.65944 1181.608, 207.71104 1193.03038 207.71104 1193.03038, 188.76264 1204.45276 188.76264 1204.45276, 169.8117 1215.87514 169.8117 1215.87514, 168.80332 1214.1962 168.80332 1214.1962, 167.7924 1212.51726 167.7924 1212.51726, 166.78148 1210.83832 166.78148 1210.83832, 165.77056 1209.15938 165.77056 1209.15938, 184.71896 1197.737 184.71896 1197.737, 203.66736 1186.31462 203.66736 1186.31462, 222.61576 1174.89224 222.61576 1174.89224, 241.56416 1163.46986 241.56416 1163.46986, 241.56416 1163.46986"/>
      </g>
      <g>
        <polyline style="fill: gray;stroke: black;stroke-width: 1;" points="215.61552 1120.4321, 216.62644 1122.1085 216.62644 1122.1085, 217.63736 1123.78236 217.63736 1123.78236, 218.64828 1125.45876 218.64828 1125.45876, 219.6592 1127.13516 219.6592 1127.13516, 200.70826 1138.55754 200.70826 1138.55754, 181.75986 1149.97992 181.75986 1149.97992, 162.81146 1161.4023 162.81146 1161.4023, 143.86306 1172.82468 143.86306 1172.82468, 142.85214 1171.14828 142.85214 1171.14828, 141.83868 1169.47188 141.83868 1169.47188, 140.82776 1167.79294 140.82776 1167.79294, 139.8143 1166.11654 139.8143 1166.11654, 158.76524 1154.69416 158.76524 1154.69416, 177.71364 1143.27432 177.71364 1143.27432, 196.66458 1131.85448 196.66458 1131.85448, 215.61552 1120.4321 215.61552 1120.4321, 215.61552 1120.4321"/>
      </g>
      <g>
        <polyline style="fill: gray;stroke: black;stroke-width: 1;" points="730.156274 513.08, 722.32901 513.08 722.32901 513.08, 714.50073 513.08 714.50073 513.08, 706.673212 513.08 706.673212 513.08, 698.844932 513.08 698.844932 513.08, 698.844932 489.60024 698.844932 489.60024, 698.844932 466.12048 698.844932 466.12048, 698.844932 442.64072 698.844932 442.64072, 698.844932 419.15842 698.844932 419.15842, 706.673212 419.15842 706.673212 419.15842, 714.50073 419.15842 714.50073 419.15842, 722.32901 419.15842 722.32901 419.15842, 730.156274 419.15842 730.156274 419.15842, 730.156274 442.64072 730.156274 442.64072, 730.156274 466.12048 730.156274 466.12048, 730.156274 489.60024 730.156274 489.60024, 730.156274 513.08 730.156274 513.08, 730.156274 513.08"/>
      </g>
      <g>
        <polyline style="fill: gray;stroke: black;stroke-width: 1;" points="921.889698 915.441908, 925.832032 908.679412 925.832032 908.679412, 929.774366 901.91717 929.774366 901.91717, 933.7167 895.154674 933.7167 895.154674, 937.659288 888.392432 937.659288 888.392432, 959.503542 901.126468 959.503542 901.126468, 981.348812 913.860504 981.348812 913.860504, 1003.193828 926.595302 1003.193828 926.595302, 1025.03732 939.330354 1025.03732 939.330354, 1021.09524 946.09412 1021.09524 946.09412, 1017.15316 952.858902 1017.15316 952.858902, 1013.21108 959.622922 1013.21108 959.622922, 1009.269 966.38745 1009.269 966.38745, 987.424238 953.651128 987.424238 953.651128, 965.579984 940.914806 965.579984 940.914806, 943.734714 928.17823 943.734714 928.17823, 921.889698 915.441908 921.889698 915.441908, 921.889698 915.441908"/>
      </g>
      <g>
        <polyline style="fill: gray;stroke: black;stroke-width: 1;" points="886.719588 975.770718, 890.661922 969.008222 890.661922 969.008222, 894.60451 962.24598 894.60451 962.24598, 898.546082 955.482722 898.546082 955.482722, 902.488416 948.72048 902.488416 948.72048, 924.3314 961.457564 924.3314 961.457564, 946.17413 974.19414 946.17413 974.19414, 968.017876 986.930462 968.017876 986.930462, 989.860606 999.667038 989.860606 999.667038, 985.918272 1006.427756 985.918272 1006.427756, 981.9767 1013.188474 981.9767 1013.188474, 978.034112 1019.949446 978.034112 1019.949446, 974.091778 1026.710164 974.091778 1026.710164, 952.249048 1013.975366 952.249048 1013.975366, 930.405302 1001.240568 930.405302 1001.240568, 908.562572 988.505516 908.562572 988.505516, 886.719588 975.770718 886.719588 975.770718, 886.719588 975.770718"/>
      </g>
      <g>
        <polyline style="fill: gray;stroke: black;stroke-width: 1;" points="1046.71114 988.216464, 1050.65576 981.455746 1050.65576 981.455746, 1054.60038 974.694774 1054.60038 974.694774, 1058.54246 967.934818 1058.54246 967.934818, 1062.48708 961.173846 1062.48708 961.173846, 1082.76898 972.998816 1082.76898 972.998816, 1103.05088 984.82277 1103.05088 984.82277, 1123.33278 996.64774 1123.33278 996.64774, 1143.61722 1008.472456 1143.61722 1008.472456, 1139.67514 1015.234952 1139.67514 1015.234952, 1135.73306 1021.997448 1135.73306 1021.997448, 1131.79098 1028.75969 1131.79098 1028.75969, 1127.8489 1035.522186 1127.8489 1035.522186, 1107.56446 1023.696454 1107.56446 1023.696454, 1087.28002 1011.869198 1087.28002 1011.869198, 1066.99558 1000.042958 1066.99558 1000.042958, 1046.71114 988.216464 1046.71114 988.216464, 1046.71114 988.216464"/>
      </g>
      <g>
        <polyline style="fill: gray;stroke: black;stroke-width: 1;" points="1011.5423 1048.546036, 1015.48438 1041.783794 1015.48438 1041.783794, 1019.42646 1035.021298 1019.42646 1035.021298, 1023.36854 1028.259056 1023.36854 1028.259056, 1027.31062 1021.49656 1027.31062 1021.49656, 1047.59506 1033.322292 1047.59506 1033.322292, 1067.87696 1045.148532 1067.87696 1045.148532, 1088.1614 1056.975026 1088.1614 1056.975026, 1108.44584 1068.80152 1108.44584 1068.80152, 1104.50376 1075.563762 1104.50376 1075.563762, 1100.56168 1082.32702 1100.56168 1082.32702, 1096.6196 1089.089262 1096.6196 1089.089262, 1092.67752 1095.85252 1092.67752 1095.85252, 1072.39308 1084.026026 1072.39308 1084.026026, 1052.10864 1072.199024 1052.10864 1072.199024, 1031.8242 1060.37253 1031.8242 1060.37253, 1011.5423 1048.546036 1011.5423 1048.546036, 1011.5423 1048.546036"/>
      </g>
      <g>
        <polyline style="fill: gray;stroke: black;stroke-width: 1;" points="1163.21586 1056.144954, 1165.18944 1052.763706 1165.18944 1052.763706, 1167.16302 1049.382458 1167.16302 1049.382458, 1169.1366 1046.00121 1169.1366 1046.00121, 1171.11018 1042.620216 1171.11018 1042.620216, 1193.3428 1055.583614 1193.3428 1055.583614, 1215.57796 1068.548028 1215.57796 1068.548028, 1237.81058 1081.511426 1237.81058 1081.511426, 1260.0432 1094.47584 1260.0432 1094.47584, 1258.07216 1097.85658 1258.07216 1097.85658, 1256.10366 1101.23732 1256.10366 1101.23732, 1254.13262 1104.6206 1254.13262 1104.6206, 1252.16158 1108.00134 1252.16158 1108.00134, 1229.92388 1095.03718 1229.92388 1095.03718, 1207.68872 1082.072766 1207.68872 1082.072766, 1185.45356 1069.108352 1185.45356 1069.108352, 1163.21586 1056.144954 1163.21586 1056.144954, 1163.21586 1056.144954"/>
      </g>
      <g>
        <polyline style="fill: gray;stroke: black;stroke-width: 1;" points="1131.9891 1109.7006, 1133.96014 1106.3224 1133.96014 1106.3224, 1135.93372 1102.94166 1135.93372 1102.94166, 1137.90476 1099.56346 1137.90476 1099.56346, 1139.8758 1096.18272 1139.8758 1096.18272, 1162.11096 1109.14688 1162.11096 1109.14688, 1184.34612 1122.11104 1184.34612 1122.11104, 1206.58128 1135.0752 1206.58128 1135.0752, 1228.81644 1148.03936 1228.81644 1148.03936, 1226.84286 1151.4201 1226.84286 1151.4201, 1224.87182 1154.80084 1224.87182 1154.80084, 1222.90078 1158.18412 1222.90078 1158.18412, 1220.9272 1161.56486 1220.9272 1161.56486, 1198.69204 1148.59816 1198.69204 1148.59816, 1176.45942 1135.634 1176.45942 1135.634, 1154.22426 1122.6673 1154.22426 1122.6673, 1131.9891 1109.7006 1131.9891 1109.7006, 1131.9891 1109.7006"/>
      </g>
      <g>
        <polyline style="fill: gray;stroke: black;stroke-width: 1;" points="1288.04416 1128.92586, 1289.02968 1127.23168 1289.02968 1127.23168, 1290.01774 1125.54004 1290.01774 1125.54004, 1291.00326 1123.84586 1291.00326 1123.84586, 1291.98878 1122.15422 1291.98878 1122.15422, 1311.10228 1133.2972 1311.10228 1133.2972, 1330.21324 1144.44018 1330.21324 1144.44018, 1349.32674 1155.5857 1349.32674 1155.5857, 1368.44024 1166.72868 1368.44024 1166.72868, 1367.45218 1168.42286 1367.45218 1168.42286, 1366.46666 1170.1145 1366.46666 1170.1145, 1365.48114 1171.80868 1365.48114 1171.80868, 1364.49562 1173.50286 1364.49562 1173.50286, 1345.38212 1162.35734 1345.38212 1162.35734, 1326.27116 1151.21436 1326.27116 1151.21436, 1307.15766 1140.06884 1307.15766 1140.06884, 1288.04416 1128.92586 1288.04416 1128.92586, 1288.04416 1128.92586"/>
      </g>
      <g>
        <polyline style="fill: gray;stroke: black;stroke-width: 1;" points="1262.73052 1172.337, 1263.71604 1170.6479 1263.71604 1170.6479, 1264.70156 1168.9588 1264.70156 1168.9588, 1265.68708 1167.26716 1265.68708 1167.26716, 1266.67514 1165.5806 1266.67514 1165.5806, 1285.7861 1176.72358 1285.7861 1176.72358, 1304.8996 1187.86656 1304.8996 1187.86656, 1324.0131 1199.00954 1324.0131 1199.00954, 1343.12406 1210.15506 1343.12406 1210.15506, 1342.14108 1211.8467 1342.14108 1211.8467, 1341.15556 1213.53834 1341.15556 1213.53834, 1340.17258 1215.22998 1340.17258 1215.22998, 1339.18706 1216.92162 1339.18706 1216.92162, 1320.07356 1205.77356 1320.07356 1205.77356, 1300.96006 1194.62804 1300.96006 1194.62804, 1281.84402 1183.48252 1281.84402 1183.48252, 1262.73052 1172.337 1262.73052 1172.337, 1262.73052 1172.337"/>
      </g>
      <g>
        <polyline style="fill: gray;stroke: black;stroke-width: 1;" points="780.418302 233.72572, 778.46047 233.72572 778.46047 233.72572, 776.502384 233.72572 776.502384 233.72572, 774.54506 233.72572 774.54506 233.72572, 772.586974 233.72572 772.586974 233.72572, 772.586974 211.59978 772.586974 211.59978, 772.586974 189.47638 772.586974 189.47638, 772.586974 167.35044 772.586974 167.35044, 772.586974 145.2245 772.586974 145.2245, 774.54506 145.2245 774.54506 145.2245, 776.502384 145.2245 776.502384 145.2245, 778.46047 145.2245 778.46047 145.2245, 780.418302 145.2245 780.418302 145.2245, 780.418302 167.35044 780.418302 167.35044, 780.418302 189.47638 780.418302 189.47638, 780.418302 211.59978 780.418302 211.59978, 780.418302 233.72572 780.418302 233.72572, 780.418302 233.72572"/>
      </g>
      <g>
        <polyline style="fill: gray;stroke: black;stroke-width: 1;" points="895.901688 844.849466, 884.6185 900.998198 884.6185 900.998198, 853.846908 946.84723 853.846908 946.84723, 808.204632 977.760046 808.204632 977.760046, 752.305836 989.09505 752.305836 989.09505, 696.416184 977.760046 696.416184 977.760046, 650.776956 946.84723 650.776956 946.84723, 620.006888 900.998198 620.006888 900.998198, 608.7237 844.849466 608.7237 844.849466, 620.006888 788.705814 620.006888 788.705814, 650.776956 742.858052 650.776956 742.858052, 696.416184 711.945998 696.416184 711.945998, 752.305836 700.611756 752.305836 700.611756, 808.204632 711.945998 808.204632 711.945998, 853.846908 742.858052 853.846908 742.858052, 884.6185 788.705814 884.6185 788.705814, 895.901688 844.849466 895.901688 844.849466, 895.901688 844.849466"/>
      </g>
      <g>
        <polyline style="fill: gray;stroke: black;stroke-width: 1;" points="895.901688 1104.43518, 824.107572 1104.43518 824.107572 1104.43518, 752.313456 1104.43518 752.313456 1104.43518, 680.51934 1104.43518 680.51934 1104.43518, 608.7237 1104.43518 608.7237 1104.43518, 608.7237 1089.506076 608.7237 1089.506076, 608.7237 1074.576718 608.7237 1074.576718, 608.7237 1059.64736 608.7237 1059.64736, 608.7237 1044.718764 608.7237 1044.718764, 680.51934 1044.718764 680.51934 1044.718764, 752.313456 1044.718764 752.313456 1044.718764, 824.107572 1044.718764 824.107572 1044.718764, 895.901688 1044.718764 895.901688 1044.718764, 895.901688 1059.64736 895.901688 1059.64736, 895.901688 1074.576718 895.901688 1074.576718, 895.901688 1089.506076 895.901688 1089.506076, 895.901688 1104.43518 895.901688 1104.43518, 895.901688 1104.43518"/>
      </g>
      <g>
        <polyline style="fill: gray;stroke: black;stroke-width: 1;" points="809.207678 1044.718764, 781.663664 1044.718764 781.663664 1044.718764, 754.11965 1044.718764 754.11965 1044.718764, 726.575636 1044.718764 726.575636 1044.718764, 699.031368 1044.718764 699.031368 1044.718764, 699.031368 1030.108684 699.031368 1030.108684, 699.031368 1015.498858 699.031368 1015.498858, 699.031368 1000.88954 699.031368 1000.88954, 699.031368 986.279714 699.031368 986.279714, 726.575636 986.279714 726.575636 986.279714, 754.11965 986.279714 754.11965 986.279714, 781.663664 986.279714 781.663664 986.279714, 809.207678 986.279714 809.207678 986.279714, 809.207678 1000.88954 809.207678 1000.88954, 809.207678 1015.498858 809.207678 1015.498858, 809.207678 1030.108684 809.207678 1030.108684, 809.207678 1044.718764 809.207678 1044.718764, 809.207678 1044.718764"/>
      </g>
      <g>
        <polyline style="fill: transparent;stroke: black;stroke-width: 1;" points="692.371488 784.754082, 693.695336 784.754082 693.695336 784.754082, 695.019438 784.754082 695.019438 784.754082, 696.343286 784.754082 696.343286 784.754082, 697.667134 784.754082"/>
      </g>
      <g>
        <polyline style="fill: transparent;stroke: black;stroke-width: 1;" points="692.371488 783.694394, 693.695336 783.694394 693.695336 783.694394, 695.019438 783.694394 695.019438 783.694394, 696.343286 783.694394 696.343286 783.694394, 697.667134 783.694394"/>
      </g>
    </g>
  </g>
</svg>
