<?xml version="1.0" encoding="utf-8"?>
<!-- Generator: www.crescit.com, SVG Export - SVG Version: 6.00 Build 1  -->
<!-- FXGUID: [F94F3AE7-79C6-11EE-99B7-525400685065] SYMID: [19248]  -->
<svg xmlns="http://www.w3.org/2000/svg" version="1.1" ch_offset="0" color_bar_width="66" width="364.640114" height="216.817448" origin_x="177.026316" origin_y="169.45483" ch_offset_x="177.862357" ch_offset_y="40" color_offset_x="177.026316" color_offset_y="-4">
  <g>
    <title>Layer 1</title>
    <g>
      <g>
        <polyline style="fill: gray;stroke: black;stroke-width: 1;" points="56.844438 176.210976, 54.694074 176.210976 54.694074 176.210976, 52.54371 176.210976 52.54371 176.210976, 50.392838 176.210976 50.392838 176.210976, 48.242474 176.210976 48.242474 176.210976, 48.242474 172.851318 48.242474 172.851318, 48.242474 169.491914 48.242474 169.491914, 48.242474 166.131748 48.242474 166.131748, 48.242474 162.77209 48.242474 162.77209, 50.392838 162.77209 50.392838 162.77209, 52.54371 162.77209 52.54371 162.77209, 54.694074 162.77209 54.694074 162.77209, 56.844438 162.77209 56.844438 162.77209, 56.844438 166.131748 56.844438 166.131748, 56.844438 169.491914 56.844438 169.491914, 56.844438 172.851318 56.844438 172.851318, 56.844438 176.210976 56.844438 176.210976, 56.844438 176.210976"/>
      </g>
      <g>
        <polyline style="fill: gray;stroke: black;stroke-width: 1;" points="307.198776 179.436268, 310.021224 179.436268 310.021224 179.436268, 312.842656 179.436268 312.842656 179.436268, 315.664342 179.436268 315.664342 179.436268, 318.486536 179.436268 318.486536 179.436268, 318.486536 174.598584 318.486536 174.598584, 318.486536 169.7609 318.486536 169.7609, 318.486536 164.923216 318.486536 164.923216, 318.486536 160.085532 318.486536 160.085532, 315.664342 160.085532 315.664342 160.085532, 312.842656 160.085532 312.842656 160.085532, 310.021224 160.085532 310.021224 160.085532, 307.198776 160.085532 307.198776 160.085532, 307.198776 164.923216 307.198776 164.923216, 307.198776 169.7609 307.198776 169.7609, 307.198776 174.598584 307.198776 174.598584, 307.198776 179.436268 307.198776 179.436268, 307.198776 179.436268"/>
      </g>
      <g>
        <polyline style="fill: gray;stroke: black;stroke-width: 1;" points="298.464478 176.210976, 300.614842 176.210976 300.614842 176.210976, 302.764952 176.210976 302.764952 176.210976, 304.916078 176.210976 304.916078 176.210976, 307.066188 176.210976 307.066188 176.210976, 307.066188 172.851318 307.066188 172.851318, 307.066188 169.491914 307.066188 169.491914, 307.066188 166.131748 307.066188 166.131748, 307.066188 162.77209 307.066188 162.77209, 304.916078 162.77209 304.916078 162.77209, 302.764952 162.77209 302.764952 162.77209, 300.614842 162.77209 300.614842 162.77209, 298.464478 162.77209 298.464478 162.77209, 298.464478 166.131748 298.464478 166.131748, 298.464478 169.491914 298.464478 169.491914, 298.464478 172.851318 298.464478 172.851318, 298.464478 176.210976 298.464478 176.210976, 298.464478 176.210976"/>
      </g>
      <g>
        <polyline style="fill: gray;stroke: black;stroke-width: 1;" points="298.328842 197.845934, 237.95736 197.845934 237.95736 197.845934, 177.585116 197.845934 177.585116 197.845934, 117.212872 197.845934 117.212872 197.845934, 56.841136 197.845934 56.841136 197.845934, 56.841136 185.046112 56.841136 185.046112, 56.841136 172.246036 56.841136 172.246036, 56.841136 159.44596 56.841136 159.44596, 56.841136 146.646138 56.841136 146.646138, 117.212872 146.646138 117.212872 146.646138, 177.585116 146.646138 177.585116 146.646138, 237.95736 146.646138 237.95736 146.646138, 298.328842 146.646138 298.328842 146.646138, 298.328842 159.44596 298.328842 159.44596, 298.328842 172.246036 298.328842 172.246036, 298.328842 185.046112 298.328842 185.046112, 298.328842 197.845934 298.328842 197.845934, 298.328842 197.845934"/>
      </g>
      <g>
        <polyline style="fill: gray;stroke: black;stroke-width: 1;" points="48.110648 179.436268, 45.288454 179.436268 45.288454 179.436268, 42.46626 179.436268 42.46626 179.436268, 39.644574 179.436268 39.644574 179.436268, 36.82238 179.436268 36.82238 179.436268, 36.82238 174.598584 36.82238 174.598584, 36.82238 169.7609 36.82238 169.7609, 36.82238 164.923216 36.82238 164.923216, 36.82238 160.085532 36.82238 160.085532, 39.644574 160.085532 39.644574 160.085532, 42.46626 160.085532 42.46626 160.085532, 45.288454 160.085532 45.288454 160.085532, 48.110648 160.085532 48.110648 160.085532, 48.110648 164.923216 48.110648 164.923216, 48.110648 169.7609 48.110648 169.7609, 48.110648 174.598584 48.110648 174.598584, 48.110648 179.436268 48.110648 179.436268, 48.110648 179.436268"/>
      </g>
      <g>
        <polyline style="fill: transparent;stroke: black;stroke-width: 1;" points="60.872878 147.048982, 60.872878 159.74822 60.872878 159.74822, 60.872878 172.447458 60.872878 172.447458, 60.872878 185.146696 60.872878 185.146696, 60.872878 197.845934"/>
      </g>
      <g>
        <polyline style="fill: transparent;stroke: black;stroke-width: 1;" points="295.10355 147.048982, 295.10355 159.74822 295.10355 159.74822, 295.10355 172.447458 295.10355 172.447458, 295.10355 185.146696 295.10355 185.146696, 295.10355 197.845934"/>
      </g>
      <g>
        <polyline style="fill: gray;stroke: black;stroke-width: 1;" points="275.070824 2.54, 293.885112 2.54 293.885112 2.54, 312.6994 2.54 312.6994 2.54, 331.513942 2.54 331.513942 2.54, 350.32823 2.54 350.32823 2.54, 350.731328 4.287012 350.731328 4.287012, 351.134426 6.034278 351.134426 6.034278, 351.537524 7.780782 351.537524 7.780782, 351.940622 9.527794 351.940622 9.527794, 351.940622 40.301926 351.940622 40.301926, 351.940622 71.076058 351.940622 71.076058, 351.940622 101.85019 351.940622 101.85019, 351.940622 132.624322 351.940622 132.624322, 351.40265 133.834124 351.40265 133.834124, 350.864678 135.043418 350.864678 135.043418, 350.327468 136.252712 350.327468 136.252712, 349.789496 137.462768 349.789496 137.462768, 333.395066 137.462768 333.395066 137.462768, 317.000128 137.462768 317.000128 137.462768, 300.605698 137.462768 300.605698 137.462768, 284.211268 137.462768 284.211268 137.462768, 281.523186 153.722832 281.523186 153.722832, 278.83485 169.983912 278.83485 169.983912, 276.146768 186.24423 276.146768 186.24423, 273.458432 202.50531 273.458432 202.50531, 272.896584 202.757278 272.896584 202.757278, 271.377156 203.311506 271.377156 203.311506, 269.151862 203.865734 269.151862 203.865734, 266.472924 204.117448 266.472924 204.117448, 257.91287 204.117448 257.91287 204.117448, 242.752626 204.117448 242.752626 204.117448, 228.29774 204.117448 228.29774 204.117448, 221.855538 204.117448 221.855538 204.117448, 199.681592 204.117448 199.681592 204.117448, 177.508408 204.117448 177.508408 204.117448, 155.334716 204.117448 155.334716 204.117448, 133.161532 204.117448 133.161532 204.117448, 126.71933 204.117448 126.71933 204.117448, 112.264444 204.117448 112.264444 204.117448, 97.103438 204.117448 97.103438 204.117448, 88.544146 204.117448 88.544146 204.117448, 85.864446 203.865734 85.864446 203.865734, 83.639914 203.311506 83.639914 203.311506, 82.120486 202.757278 82.120486 202.757278, 81.558638 202.50531 81.558638 202.50531, 78.870302 186.24423 78.870302 186.24423, 76.18222 169.983912 76.18222 169.983912, 73.493884 153.722832 73.493884 153.722832, 70.805802 137.462768 70.805802 137.462768, 54.41061 137.462768 54.41061 137.462768, 38.01618 137.462768 38.01618 137.462768, 21.622004 137.462768 21.622004 137.462768, 5.226812 137.462768 5.226812 137.462768, 4.68884 136.252712 4.68884 136.252712, 4.15163 135.043418 4.15163 135.043418, 3.613658 133.834124 3.613658 133.834124, 3.075686 132.624322 3.075686 132.624322, 3.075686 101.85019 3.075686 101.85019, 3.075686 71.076058 3.075686 71.076058, 3.075686 40.301926 3.075686 40.301926, 3.075686 9.527794 3.075686 9.527794, 3.478784 7.780782 3.478784 7.780782, 3.881882 6.034278 3.881882 6.034278, 4.285742 4.287012 4.285742 4.287012, 4.68884 2.54 4.68884 2.54, 23.503128 2.54 23.503128 2.54, 42.316654 2.54 42.316654 2.54, 61.131196 2.54 61.131196 2.54, 79.945484 2.54 79.945484 2.54, 128.726946 2.54 128.726946 2.54, 177.508408 2.54 177.508408 2.54, 226.289362 2.54 226.289362 2.54, 275.070824 2.54 275.070824 2.54, 275.070824 2.54"/>
      </g>
      <g>
        <polyline style="fill: transparent;stroke: black;stroke-width: 1;" points="2.54 131.548378, 89.889838 131.548378 89.889838 131.548378, 177.239422 131.548378 177.239422 131.548378, 264.588498 131.548378 264.588498 131.548378, 351.93732 131.548378"/>
      </g>
      <g>
        <polyline style="fill: transparent;stroke: black;stroke-width: 1;" points="3.61442 8.990584, 90.695272 8.990584 90.695272 8.990584, 177.77587 8.990584 177.77587 8.990584, 264.857484 8.990584 264.857484 8.990584, 351.93732 8.990584"/>
      </g>
      <g>
        <polyline style="fill: gray;stroke: black;stroke-width: 1;" points="250.34367 117.035326, 213.924896 117.035326 213.924896 117.035326, 177.506884 117.035326 177.506884 117.035326, 141.08811 117.035326 141.08811 117.035326, 104.670352 117.035326 104.670352 117.035326, 104.670352 107.763056 104.670352 107.763056, 104.670352 98.490532 104.670352 98.490532, 104.670352 89.2175 104.670352 89.2175, 104.670352 79.94523 104.670352 79.94523, 141.08811 79.94523 141.08811 79.94523, 177.506884 79.94523 177.506884 79.94523, 213.924896 79.94523 213.924896 79.94523, 250.34367 79.94523 250.34367 79.94523, 250.34367 89.2175 250.34367 89.2175, 250.34367 98.490532 250.34367 98.490532, 250.34367 107.763056 250.34367 107.763056, 250.34367 117.035326 250.34367 117.035326, 250.34367 117.035326"/>
      </g>
      <g>
        <polyline style="fill: gray;stroke: black;stroke-width: 1;" points="62.742572 105.210356, 51.992022 105.210356 51.992022 105.210356, 41.241726 105.210356 41.241726 105.210356, 30.491176 105.210356 30.491176 105.210356, 19.740626 105.210356 19.740626 105.210356, 19.740626 104.53751 19.740626 104.53751, 19.740626 103.865426 19.740626 103.865426, 19.740626 103.193342 19.740626 103.193342, 19.740626 102.522274 19.740626 102.522274, 30.491176 102.522274 30.491176 102.522274, 41.241726 102.522274 41.241726 102.522274, 51.992022 102.522274 51.992022 102.522274, 62.742572 102.522274 62.742572 102.522274, 62.742572 103.193342 62.742572 103.193342, 62.742572 103.865426 62.742572 103.865426, 62.742572 104.53751 62.742572 104.53751, 62.742572 105.210356 62.742572 105.210356, 62.742572 105.210356"/>
      </g>
      <g>
        <polyline style="fill: gray;stroke: black;stroke-width: 1;" points="62.742572 111.660432, 51.992022 111.660432 51.992022 111.660432, 41.241726 111.660432 41.241726 111.660432, 30.491176 111.660432 30.491176 111.660432, 19.740626 111.660432 19.740626 111.660432, 19.740626 110.988348 19.740626 110.988348, 19.740626 110.316264 19.740626 110.316264, 19.740626 109.64418 19.740626 109.64418, 19.740626 108.972096 19.740626 108.972096, 30.491176 108.972096 30.491176 108.972096, 41.241726 108.972096 41.241726 108.972096, 51.992022 108.972096 51.992022 108.972096, 62.742572 108.972096 62.742572 108.972096, 62.742572 109.64418 62.742572 109.64418, 62.742572 110.316264 62.742572 110.316264, 62.742572 110.988348 62.742572 110.988348, 62.742572 111.660432 62.742572 111.660432, 62.742572 111.660432"/>
      </g>
      <g>
        <polyline style="fill: gray;stroke: black;stroke-width: 1;" points="62.742572 118.11127, 51.992022 118.11127 51.992022 118.11127, 41.241726 118.11127 41.241726 118.11127, 30.491176 118.11127 30.491176 118.11127, 19.740626 118.11127 19.740626 118.11127, 19.740626 117.439186 19.740626 117.439186, 19.740626 116.767102 19.740626 116.767102, 19.740626 116.095018 19.740626 116.095018, 19.740626 115.422934 19.740626 115.422934, 30.491176 115.422934 30.491176 115.422934, 41.241726 115.422934 41.241726 115.422934, 51.992022 115.422934 51.992022 115.422934, 62.742572 115.422934 62.742572 115.422934, 62.742572 116.095018 62.742572 116.095018, 62.742572 116.767102 62.742572 116.767102, 62.742572 117.439186 62.742572 117.439186, 62.742572 118.11127 62.742572 118.11127, 62.742572 118.11127"/>
      </g>
      <g>
        <polyline style="fill: gray;stroke: black;stroke-width: 1;" points="62.742572 124.561092, 51.992022 124.561092 51.992022 124.561092, 41.241726 124.561092 41.241726 124.561092, 30.491176 124.561092 30.491176 124.561092, 19.740626 124.561092 19.740626 124.561092, 19.740626 123.889008 19.740626 123.889008, 19.740626 123.216924 19.740626 123.216924, 19.740626 122.545094 19.740626 122.545094, 19.740626 121.87301 19.740626 121.87301, 30.491176 121.87301 30.491176 121.87301, 41.241726 121.87301 41.241726 121.87301, 51.992022 121.87301 51.992022 121.87301, 62.742572 121.87301 62.742572 121.87301, 62.742572 122.545094 62.742572 122.545094, 62.742572 123.216924 62.742572 123.216924, 62.742572 123.889008 62.742572 123.889008, 62.742572 124.561092 62.742572 124.561092, 62.742572 124.561092"/>
      </g>
      <g>
        <polyline style="fill: gray;stroke: black;stroke-width: 1;" points="337.959954 98.759518, 327.209404 98.759518 327.209404 98.759518, 316.458854 98.759518 316.458854 98.759518, 305.708558 98.759518 305.708558 98.759518, 294.958008 98.759518 294.958008 98.759518, 294.958008 98.087688 294.958008 98.087688, 294.958008 97.415604 294.958008 97.415604, 294.958008 96.74352 294.958008 96.74352, 294.958008 96.071436 294.958008 96.071436, 305.708558 96.071436 305.708558 96.071436, 316.458854 96.071436 316.458854 96.071436, 327.209404 96.071436 327.209404 96.071436, 337.959954 96.071436 337.959954 96.071436, 337.959954 96.74352 337.959954 96.74352, 337.959954 97.415604 337.959954 97.415604, 337.959954 98.087688 337.959954 98.087688, 337.959954 98.759518 337.959954 98.759518, 337.959954 98.759518"/>
      </g>
      <g>
        <polyline style="fill: gray;stroke: black;stroke-width: 1;" points="337.959954 105.210356, 327.209404 105.210356 327.209404 105.210356, 316.458854 105.210356 316.458854 105.210356, 305.708558 105.210356 305.708558 105.210356, 294.958008 105.210356 294.958008 105.210356, 294.958008 104.53751 294.958008 104.53751, 294.958008 103.865426 294.958008 103.865426, 294.958008 103.193342 294.958008 103.193342, 294.958008 102.522274 294.958008 102.522274, 305.708558 102.522274 305.708558 102.522274, 316.458854 102.522274 316.458854 102.522274, 327.209404 102.522274 327.209404 102.522274, 337.959954 102.522274 337.959954 102.522274, 337.959954 103.193342 337.959954 103.193342, 337.959954 103.865426 337.959954 103.865426, 337.959954 104.53751 337.959954 104.53751, 337.959954 105.210356 337.959954 105.210356, 337.959954 105.210356"/>
      </g>
      <g>
        <polyline style="fill: gray;stroke: black;stroke-width: 1;" points="337.959954 111.660432, 327.209404 111.660432 327.209404 111.660432, 316.458854 111.660432 316.458854 111.660432, 305.708558 111.660432 305.708558 111.660432, 294.958008 111.660432 294.958008 111.660432, 294.958008 110.988348 294.958008 110.988348, 294.958008 110.316264 294.958008 110.316264, 294.958008 109.64418 294.958008 109.64418, 294.958008 108.972096 294.958008 108.972096, 305.708558 108.972096 305.708558 108.972096, 316.458854 108.972096 316.458854 108.972096, 327.209404 108.972096 327.209404 108.972096, 337.959954 108.972096 337.959954 108.972096, 337.959954 109.64418 337.959954 109.64418, 337.959954 110.316264 337.959954 110.316264, 337.959954 110.988348 337.959954 110.988348, 337.959954 111.660432 337.959954 111.660432, 337.959954 111.660432"/>
      </g>
      <g>
        <polyline style="fill: gray;stroke: black;stroke-width: 1;" points="337.959954 118.11127, 327.209404 118.11127 327.209404 118.11127, 316.458854 118.11127 316.458854 118.11127, 305.708558 118.11127 305.708558 118.11127, 294.958008 118.11127 294.958008 118.11127, 294.958008 117.439186 294.958008 117.439186, 294.958008 116.767102 294.958008 116.767102, 294.958008 116.095018 294.958008 116.095018, 294.958008 115.422934 294.958008 115.422934, 305.708558 115.422934 305.708558 115.422934, 316.458854 115.422934 316.458854 115.422934, 327.209404 115.422934 327.209404 115.422934, 337.959954 115.422934 337.959954 115.422934, 337.959954 116.095018 337.959954 116.095018, 337.959954 116.767102 337.959954 116.767102, 337.959954 117.439186 337.959954 117.439186, 337.959954 118.11127 337.959954 118.11127, 337.959954 118.11127"/>
      </g>
      <g>
        <polyline style="fill: gray;stroke: black;stroke-width: 1;" points="337.959954 124.561092, 327.209404 124.561092 327.209404 124.561092, 316.458854 124.561092 316.458854 124.561092, 305.708558 124.561092 305.708558 124.561092, 294.958008 124.561092 294.958008 124.561092, 294.958008 123.889008 294.958008 123.889008, 294.958008 123.216924 294.958008 123.216924, 294.958008 122.545094 294.958008 122.545094, 294.958008 121.87301 294.958008 121.87301, 305.708558 121.87301 305.708558 121.87301, 316.458854 121.87301 316.458854 121.87301, 327.209404 121.87301 327.209404 121.87301, 337.959954 121.87301 337.959954 121.87301, 337.959954 122.545094 337.959954 122.545094, 337.959954 123.216924 337.959954 123.216924, 337.959954 123.889008 337.959954 123.889008, 337.959954 124.561092 337.959954 124.561092, 337.959954 124.561092"/>
      </g>
      <g>
        <polyline style="fill: gray;stroke: black;stroke-width: 1;" points="62.742572 98.759518, 51.992022 98.759518 51.992022 98.759518, 41.241726 98.759518 41.241726 98.759518, 30.491176 98.759518 30.491176 98.759518, 19.740626 98.759518 19.740626 98.759518, 19.740626 98.087688 19.740626 98.087688, 19.740626 97.415604 19.740626 97.415604, 19.740626 96.74352 19.740626 96.74352, 19.740626 96.071436 19.740626 96.071436, 30.491176 96.071436 30.491176 96.071436, 41.241726 96.071436 41.241726 96.071436, 51.992022 96.071436 51.992022 96.071436, 62.742572 96.071436 62.742572 96.071436, 62.742572 96.74352 62.742572 96.74352, 62.742572 97.415604 62.742572 97.415604, 62.742572 98.087688 62.742572 98.087688, 62.742572 98.759518 62.742572 98.759518, 62.742572 98.759518"/>
      </g>
    </g>
  </g>
</svg>
