<?xml version="1.0" encoding="utf-8"?>
<!-- Generator: www.crescit.com, SVG Export - SVG Version: 6.00 Build 1  -->
<!-- FXGUID: [35886040-D05F-11EC-9A42-525400685065] SYMID: [18627]  -->
<svg xmlns="http://www.w3.org/2000/svg" version="1.1" ch_offset="0" color_bar_width="66" width="515.3025" height="121.46915" origin_x="252.327918" origin_y="48.04664" ch_offset_x="250.9402398" ch_offset_y="40" color_offset_x="252.327918" color_offset_y="-4">
  <g>
    <title>Layer 1</title>
    <g>
      <g>
        <polyline style="fill: gray;stroke: black;stroke-width: 1;" points="285.036768 86.757764, 268.732254 86.757764 268.732254 86.757764, 252.428502 86.757764 252.428502 86.757764, 236.125004 86.757764 236.125004 86.757764, 219.821252 86.757764 219.821252 86.757764, 219.821252 69.33946 219.821252 69.33946, 219.821252 51.921156 219.821252 51.921156, 219.821252 34.502852 219.821252 34.502852, 219.821252 17.084548 219.821252 17.084548, 236.125004 17.084548 236.125004 17.084548, 252.428502 17.084548 252.428502 17.084548, 268.732254 17.084548 268.732254 17.084548, 285.036768 17.084548 285.036768 17.084548, 285.036768 34.502852 285.036768 34.502852, 285.036768 51.921156 285.036768 51.921156, 285.036768 69.33946 285.036768 69.33946, 285.036768 86.757764 285.036768 86.757764, 285.036768 86.757764"/>
      </g>
      <g>
        <polyline style="fill: gray;stroke: black;stroke-width: 1;" points="82.706464 86.757764, 167.329104 86.757764 167.329104 86.757764, 251.950982 86.757764 251.950982 86.757764, 336.573114 86.757764 336.573114 86.757764, 421.195754 86.757764 421.195754 86.757764, 412.447486 90.25763 412.447486 90.25763, 403.698456 93.757242 403.698456 93.757242, 394.950188 97.256346 394.950188 97.256346, 386.201158 100.756212 386.201158 100.756212, 319.115948 100.756212 319.115948 100.756212, 252.031754 100.756212 252.031754 100.756212, 184.946544 100.756212 184.946544 100.756212, 117.861588 100.756212 117.861588 100.756212, 109.072934 97.256346 109.072934 97.256346, 100.283518 93.757242 100.283518 93.757242, 91.494864 90.25763 91.494864 90.25763, 82.706464 86.757764 82.706464 86.757764, 82.706464 86.757764"/>
      </g>
      <g>
        <polyline style="fill: gray;stroke: black;stroke-width: 1;" points="502.31802 86.757764, 377.37288 86.757764 377.37288 86.757764, 252.428502 86.757764 252.428502 86.757764, 127.484378 86.757764 127.484378 86.757764, 2.54 86.757764 2.54 86.757764, 2.54 69.33946 2.54 69.33946, 2.54 51.921156 2.54 51.921156, 2.54 34.502852 2.54 34.502852, 2.54 17.084548 2.54 17.084548, 127.484378 17.084548 127.484378 17.084548, 252.428502 17.084548 252.428502 17.084548, 377.37288 17.084548 377.37288 17.084548, 502.31802 17.084548 502.31802 17.084548, 502.31802 34.502852 502.31802 34.502852, 502.31802 51.921156 502.31802 51.921156, 502.31802 69.33946 502.31802 69.33946, 502.31802 86.757764 502.31802 86.757764, 502.31802 86.757764"/>
      </g>
      <g>
        <polyline style="fill: gray;stroke: black;stroke-width: 1;" points="502.540524 86.757764, 499.040658 86.757764 499.040658 86.757764, 495.540792 86.757764 495.540792 86.757764, 492.041942 86.757764 492.041942 86.757764, 488.542076 86.757764 488.542076 86.757764, 488.542076 69.33946 488.542076 69.33946, 488.542076 51.921156 488.542076 51.921156, 488.542076 34.502852 488.542076 34.502852, 488.542076 17.084548 488.542076 17.084548, 492.041942 17.084548 492.041942 17.084548, 495.540792 17.084548 495.540792 17.084548, 499.040658 17.084548 499.040658 17.084548, 502.540524 17.084548 502.540524 17.084548, 502.540524 34.502852 502.540524 34.502852, 502.540524 51.921156 502.540524 51.921156, 502.540524 69.33946 502.540524 69.33946, 502.540524 86.757764 502.540524 86.757764, 502.540524 86.757764"/>
      </g>
      <g>
        <polyline style="fill: gray;stroke: black;stroke-width: 1;" points="16.538448 86.757764, 13.038582 86.757764 13.038582 86.757764, 9.539478 86.757764 9.539478 86.757764, 6.039866 86.757764 6.039866 86.757764, 2.54 86.757764 2.54 86.757764, 2.54 69.33946 2.54 69.33946, 2.54 51.921156 2.54 51.921156, 2.54 34.502852 2.54 34.502852, 2.54 17.084548 2.54 17.084548, 6.039866 17.084548 6.039866 17.084548, 9.539478 17.084548 9.539478 17.084548, 13.038582 17.084548 13.038582 17.084548, 16.538448 17.084548 16.538448 17.084548, 16.538448 34.502852 16.538448 34.502852, 16.538448 51.921156 16.538448 51.921156, 16.538448 69.33946 16.538448 69.33946, 16.538448 86.757764 16.538448 86.757764, 16.538448 86.757764"/>
      </g>
      <g>
        <polyline style="fill: gray;stroke: black;stroke-width: 1;" points="2.600706 101.131624, 7.667244 101.131624 7.667244 101.131624, 12.732766 101.131624 12.732766 101.131624, 17.79905 101.131624 17.79905 101.131624, 22.864572 101.131624 22.864572 101.131624, 22.864572 76.483464 22.864572 76.483464, 22.864572 51.835304 22.864572 51.835304, 22.864572 27.187144 22.864572 27.187144, 22.864572 2.54 22.864572 2.54, 17.79905 2.54 17.79905 2.54, 12.732766 2.54 12.732766 2.54, 7.667244 2.54 7.667244 2.54, 2.600706 2.54 2.600706 2.54, 2.600706 27.187144 2.600706 27.187144, 2.600706 51.835304 2.600706 51.835304, 2.600706 76.483464 2.600706 76.483464, 2.600706 101.131624 2.600706 101.131624, 2.600706 101.131624"/>
      </g>
      <g>
        <polyline style="fill: gray;stroke: black;stroke-width: 1;" points="482.337364 101.131624, 487.403902 101.131624 487.403902 101.131624, 492.470186 101.131624 492.470186 101.131624, 497.534946 101.131624 497.534946 101.131624, 502.60123 101.131624 502.60123 101.131624, 502.60123 76.483464 502.60123 76.483464, 502.60123 51.835304 502.60123 51.835304, 502.60123 27.187144 502.60123 27.187144, 502.60123 2.54 502.60123 2.54, 497.534946 2.54 497.534946 2.54, 492.470186 2.54 492.470186 2.54, 487.403902 2.54 487.403902 2.54, 482.337364 2.54 482.337364 2.54, 482.337364 27.187144 482.337364 27.187144, 482.337364 51.835304 482.337364 51.835304, 482.337364 76.483464 482.337364 76.483464, 482.337364 101.131624 482.337364 101.131624, 482.337364 101.131624"/>
      </g>
      <g>
        <polyline style="fill: gray;stroke: black;stroke-width: 1;" points="482.337364 108.76915, 367.469166 108.76915 367.469166 108.76915, 252.600968 108.76915 252.600968 108.76915, 137.73277 108.76915 137.73277 108.76915, 22.864572 108.76915 22.864572 108.76915, 22.864572 82.211926 22.864572 82.211926, 22.864572 55.654448 22.864572 55.654448, 22.864572 29.097224 22.864572 29.097224, 22.864572 2.54 22.864572 2.54, 137.73277 2.54 137.73277 2.54, 252.600968 2.54 252.600968 2.54, 367.469166 2.54 367.469166 2.54, 482.337364 2.54 482.337364 2.54, 482.337364 29.097224 482.337364 29.097224, 482.337364 55.654448 482.337364 55.654448, 482.337364 82.211926 482.337364 82.211926, 482.337364 108.76915 482.337364 108.76915, 482.337364 108.76915"/>
      </g>
      <g>
        <polyline style="fill: transparent;stroke: black;stroke-width: 1;" points="2.600706 22.23643, 7.667244 22.23643 7.667244 22.23643, 12.732766 22.23643 12.732766 22.23643, 17.79905 22.23643 17.79905 22.23643, 22.864572 22.23643"/>
      </g>
      <g>
        <polyline style="fill: transparent;stroke: black;stroke-width: 1;" points="2.600706 8.317738, 7.667244 8.317738 7.667244 8.317738, 12.732766 8.317738 12.732766 8.317738, 17.79905 8.317738 17.79905 8.317738, 22.864572 8.317738"/>
      </g>
      <g>
        <polyline style="fill: transparent;stroke: black;stroke-width: 1;" points="482.337364 8.317738, 487.403902 8.317738 487.403902 8.317738, 492.470186 8.317738 492.470186 8.317738, 497.534946 8.317738 497.534946 8.317738, 502.60123 8.317738"/>
      </g>
      <g>
        <polyline style="fill: transparent;stroke: black;stroke-width: 1;" points="22.864572 16.934434, 137.73277 16.934434 137.73277 16.934434, 252.600968 16.934434 252.600968 16.934434, 367.469166 16.934434 367.469166 16.934434, 482.337364 16.934434"/>
      </g>
      <g>
        <polyline style="fill: transparent;stroke: black;stroke-width: 1;" points="22.864572 91.826842, 137.73277 91.826842 137.73277 91.826842, 252.600968 91.826842 252.600968 91.826842, 367.469166 91.826842 367.469166 91.826842, 482.337364 91.826842"/>
      </g>
      <g>
        <polyline style="fill: transparent;stroke: black;stroke-width: 1;" points="482.337364 22.23643, 487.403902 22.23643 487.403902 22.23643, 492.470186 22.23643 492.470186 22.23643, 497.534946 22.23643 497.534946 22.23643, 502.60123 22.23643"/>
      </g>
    </g>
  </g>
</svg>
