<?xml version="1.0" encoding="utf-8"?>
<!-- Generator: SVG Export - SVG Version: 6.00 Build 1  -->
<!-- FXGUID: [01059234-FB05-11E5-B97E-F0761CCEA3DE] SYMID: [14196]  -->
<svg xmlns="http://www.w3.org/2000/svg" version="1.1" ch_offset="0" color_bar_width="66" width="656.53666" height="204.079602" origin_x="321.7418" origin_y="93.604842" ch_offset_x="323.1337962" ch_offset_y="40" color_offset_x="321.7418" color_offset_y="-4">
  <g>
    <title>Layer 1</title>
    <g>
      <g>
        <polyline style="fill: gray;stroke: black;stroke-width: 1;" points="110.953296 149.196806, 106.137202 149.196806 106.137202 149.196806, 106.137202 154.553158 106.137202 154.553158, 110.65256 158.571438 110.65256 158.571438, 110.65256 163.92779 110.65256 163.92779, 106.739436 171.293282 106.739436 171.293282, 106.739436 184.683908 106.739436 184.683908, 123.595892 191.379602 123.595892 191.379602, 524.503904 191.379602 524.503904 191.379602, 541.36036 184.683908 541.36036 184.683908, 541.36036 171.293282 541.36036 171.293282, 537.447236 163.92779 537.447236 163.92779, 537.447236 158.571438 537.447236 158.571438, 541.962594 154.553158 541.962594 154.553158, 541.962594 149.196806 541.962594 149.196806, 537.1465 149.196806 537.1465 149.196806, 537.1465 44.722542 537.1465 44.722542, 541.962594 44.722542 541.962594 44.722542, 541.962594 39.366444 541.962594 39.366444, 537.447236 35.348926 537.447236 35.348926, 537.447236 29.992574 537.447236 29.992574, 541.36036 22.627082 541.36036 22.627082, 541.36036 9.235694 541.36036 9.235694, 524.503904 2.54 524.503904 2.54, 123.595892 2.54 123.595892 2.54, 106.739436 9.235694 106.739436 9.235694, 106.739436 22.627082 106.739436 22.627082, 110.65256 29.992574 110.65256 29.992574, 110.65256 35.348926 110.65256 35.348926, 106.137202 39.366444 106.137202 39.366444, 106.137202 44.722542 106.137202 44.722542, 110.953296 44.722542 110.953296 44.722542, 110.953296 149.196806"/>
      </g>
      <g>
        <polyline style="fill: gray;stroke: black;stroke-width: 1;" points="643.83666 61.50229, 636.32842 50.78984 636.32842 50.78984, 10.0457 50.78984 10.0457 50.78984, 2.54 61.50229 2.54 61.50229, 2.54 123.772168 2.54 123.772168, 10.0457 134.48538 10.0457 134.48538, 636.32842 134.48538 636.32842 134.48538, 643.83666 123.772168 643.83666 123.772168, 643.83666 61.50229"/>
      </g>
      <g>
        <polyline style="fill: gray;stroke: black;stroke-width: 1;" points="121.141744 123.977654, 129.272284 134.690866 129.272284 134.690866, 151.419052 134.690866 151.419052 134.690866, 159.549338 123.977654 159.549338 123.977654, 159.549338 61.707776 159.549338 61.707776, 151.419052 50.99431 151.419052 50.99431, 129.272284 50.99431 129.272284 50.99431, 121.141744 61.707776 121.141744 61.707776, 121.141744 123.977654 121.141744 123.977654, 121.141744 123.977654"/>
      </g>
      <g>
        <polyline style="fill: gray;stroke: black;stroke-width: 1;" points="121.120916 104.784144, 117.548152 104.784144 117.548152 104.784144, 117.548152 80.901794 117.548152 80.901794, 121.120916 80.901794 121.120916 80.901794, 121.120916 104.784144 121.120916 104.784144, 121.120916 104.784144"/>
      </g>
      <g>
        <polyline style="fill: gray;stroke: black;stroke-width: 1;" points="163.14293 104.784144, 159.569658 104.784144 159.569658 104.784144, 159.569658 80.901794 159.569658 80.901794, 163.14293 80.901794 163.14293 80.901794, 163.14293 104.784144 163.14293 104.784144, 163.14293 104.784144"/>
      </g>
      <g>
        <polyline style="fill: gray;stroke: black;stroke-width: 1;" points="151.419052 134.690866, 129.272284 134.690866 129.272284 134.690866, 129.272284 50.99431 129.272284 50.99431, 151.419052 50.99431 151.419052 50.99431, 151.419052 134.690866 151.419052 134.690866, 151.419052 134.690866"/>
      </g>
      <g>
        <polyline style="fill: gray;stroke: black;stroke-width: 1;" points="243.15674 123.977654, 251.286518 134.690866 251.286518 134.690866, 273.434048 134.690866 273.434048 134.690866, 281.563826 123.977654 281.563826 123.977654, 281.563826 61.707776 281.563826 61.707776, 273.434048 50.99431 273.434048 50.99431, 251.286518 50.99431 251.286518 50.99431, 243.15674 61.707776 243.15674 61.707776, 243.15674 123.977654 243.15674 123.977654, 243.15674 123.977654"/>
      </g>
      <g>
        <polyline style="fill: gray;stroke: black;stroke-width: 1;" points="243.135912 104.784144, 239.429036 104.784144 239.429036 104.784144, 239.429036 80.901794 239.429036 80.901794, 243.135912 80.901794 243.135912 80.901794, 243.135912 104.784144 243.135912 104.784144, 243.135912 104.784144"/>
      </g>
      <g>
        <polyline style="fill: gray;stroke: black;stroke-width: 1;" points="285.12389 104.784144, 281.584654 104.784144 281.584654 104.784144, 281.584654 80.901794 281.584654 80.901794, 285.12389 80.901794 285.12389 80.901794, 285.12389 104.784144 285.12389 104.784144, 285.12389 104.784144"/>
      </g>
      <g>
        <polyline style="fill: gray;stroke: black;stroke-width: 1;" points="273.434048 134.690866, 251.286518 134.690866 251.286518 134.690866, 251.286518 50.99431 251.286518 50.99431, 273.434048 50.99431 273.434048 50.99431, 273.434048 134.690866 273.434048 134.690866, 273.434048 134.690866"/>
      </g>
      <g>
        <polyline style="fill: gray;stroke: black;stroke-width: 1;" points="365.021368 123.977654, 373.151146 134.690866 373.151146 134.690866, 395.298676 134.690866 395.298676 134.690866, 403.428454 123.977654 403.428454 123.977654, 403.428454 61.707776 403.428454 61.707776, 395.298676 50.99431 395.298676 50.99431, 373.151146 50.99431 373.151146 50.99431, 365.021368 61.707776 365.021368 61.707776, 365.021368 123.977654 365.021368 123.977654, 365.021368 123.977654"/>
      </g>
      <g>
        <polyline style="fill: gray;stroke: black;stroke-width: 1;" points="365.00054 104.784144, 361.427014 104.784144 361.427014 104.784144, 361.427014 80.901794 361.427014 80.901794, 365.00054 80.901794 365.00054 80.901794, 365.00054 104.784144 365.00054 104.784144, 365.00054 104.784144"/>
      </g>
      <g>
        <polyline style="fill: gray;stroke: black;stroke-width: 1;" points="407.022046 104.784144, 403.44852 104.784144 403.44852 104.784144, 403.44852 80.901794 403.44852 80.901794, 407.022046 80.901794 407.022046 80.901794, 407.022046 104.784144 407.022046 104.784144, 407.022046 104.784144"/>
      </g>
      <g>
        <polyline style="fill: gray;stroke: black;stroke-width: 1;" points="395.298676 134.690866, 373.151146 134.690866 373.151146 134.690866, 373.151146 50.99431 373.151146 50.99431, 395.298676 50.99431 395.298676 50.99431, 395.298676 134.690866 395.298676 134.690866, 395.298676 134.690866"/>
      </g>
      <g>
        <polyline style="fill: gray;stroke: black;stroke-width: 1;" points="486.98531 123.977654, 495.11585 134.690866 495.11585 134.690866, 517.262618 134.690866 517.262618 134.690866, 525.393158 123.977654 525.393158 123.977654, 525.393158 61.707776 525.393158 61.707776, 517.262618 50.99431 517.262618 50.99431, 495.11585 50.99431 495.11585 50.99431, 486.98531 61.707776 486.98531 61.707776, 486.98531 123.977654 486.98531 123.977654, 486.98531 123.977654"/>
      </g>
      <g>
        <polyline style="fill: gray;stroke: black;stroke-width: 1;" points="486.965244 104.784144, 483.391718 104.784144 483.391718 104.784144, 483.391718 80.901794 483.391718 80.901794, 486.965244 80.901794 486.965244 80.901794, 486.965244 104.784144 486.965244 104.784144, 486.965244 104.784144"/>
      </g>
      <g>
        <polyline style="fill: gray;stroke: black;stroke-width: 1;" points="528.98675 104.784144, 525.413224 104.784144 525.413224 104.784144, 525.413224 80.901794 525.413224 80.901794, 528.98675 80.901794 528.98675 80.901794, 528.98675 104.784144 528.98675 104.784144, 528.98675 104.784144"/>
      </g>
      <g>
        <polyline style="fill: gray;stroke: black;stroke-width: 1;" points="517.262618 134.690866, 495.11585 134.690866 495.11585 134.690866, 495.11585 50.99431 495.11585 50.99431, 517.262618 50.99431 517.262618 50.99431, 517.262618 134.690866 517.262618 134.690866, 517.262618 134.690866"/>
      </g>
      <g>
        <polyline style="fill: gray;stroke: black;stroke-width: 1;" points="2.54 123.977654, 10.0457 134.690866 10.0457 134.690866, 30.50032 134.690866 30.50032 134.690866, 38.00856 123.977654 38.00856 123.977654, 38.00856 61.707776 38.00856 61.707776, 30.50032 50.99431 30.50032 50.99431, 10.0457 50.99431 10.0457 50.99431, 2.54 61.707776 2.54 61.707776, 2.54 123.977654"/>
      </g>
      <g>
        <polyline style="fill: gray;stroke: black;stroke-width: 1;" points="41.32834 104.784144, 38.02888 104.784144 38.02888 104.784144, 38.02888 80.901794 38.02888 80.901794, 41.32834 80.901794 41.32834 80.901794, 41.32834 104.784144"/>
      </g>
      <g>
        <polyline style="fill: gray;stroke: black;stroke-width: 1;" points="30.50032 134.554468, 10.0457 134.554468 10.0457 134.554468, 4.15798 126.65964 4.15798 126.65964, 9.37514 118.177818 9.37514 118.177818, 9.37514 67.37096 9.37514 67.37096, 4.15798 58.889138 4.15798 58.889138, 10.0457 50.99431 10.0457 50.99431, 30.50032 50.99431 30.50032 50.99431, 30.50032 134.554468"/>
      </g>
      <g>
        <polyline style="fill: gray;stroke: black;stroke-width: 1;" points="643.83666 123.977654, 636.32842 134.690866 636.32842 134.690866, 615.8738 134.690866 615.8738 134.690866, 608.36556 123.977654 608.36556 123.977654, 608.36556 61.707776 608.36556 61.707776, 615.8738 50.99431 615.8738 50.99431, 636.32842 50.99431 636.32842 50.99431, 643.83666 61.707776 643.83666 61.707776, 643.83666 123.977654"/>
      </g>
      <g>
        <polyline style="fill: gray;stroke: black;stroke-width: 1;" points="605.04832 104.784144, 608.34778 104.784144 608.34778 104.784144, 608.34778 80.901794 608.34778 80.901794, 605.04832 80.901794 605.04832 80.901794, 605.04832 104.784144"/>
      </g>
      <g>
        <polyline style="fill: gray;stroke: black;stroke-width: 1;" points="615.8738 134.554468, 636.32842 134.554468 636.32842 134.554468, 642.21868 126.65964 642.21868 126.65964, 637.00152 118.177818 637.00152 118.177818, 637.00152 67.37096 637.00152 67.37096, 642.21868 58.889138 642.21868 58.889138, 636.32842 50.99431 636.32842 50.99431, 615.8738 50.99431 615.8738 50.99431, 615.8738 134.554468"/>
      </g>
      <g>
        <polyline style="fill: gray;stroke: black;stroke-width: 1;" points="117.542818 134.469124, 117.542818 67.955414 117.542818 67.955414, 113.929668 62.599062 113.929668 62.599062, 113.929668 51.216052 113.929668 51.216052, 44.8945 51.216052 44.8945 51.216052, 44.8945 62.599062 44.8945 62.599062, 41.28262 67.955414 41.28262 67.955414, 41.28262 134.469124 41.28262 134.469124, 117.542818 134.469124 117.542818 134.469124, 117.542818 134.469124"/>
      </g>
      <g>
        <polyline style="fill: gray;stroke: black;stroke-width: 1;" points="117.542818 67.955414, 113.929668 62.599062 113.929668 62.599062, 107.106974 51.216052 107.106974 51.216052, 100.936044 51.216052 100.936044 51.216052, 96.665796 55.67172 96.665796 55.67172, 89.800176 60.707016 89.800176 60.707016, 85.93455 61.761878 85.93455 61.761878, 72.89038 61.761878 72.89038 61.761878, 69.025516 60.707016 69.025516 60.707016, 62.15888 55.67172 62.15888 55.67172, 57.88914 51.216052 57.88914 51.216052, 51.71948 51.216052 51.71948 51.216052, 44.8945 62.599062 44.8945 62.599062, 41.28262 67.955414 41.28262 67.955414, 117.542818 67.955414 117.542818 67.955414, 117.542818 67.955414"/>
      </g>
      <g>
        <polyline style="fill: gray;stroke: black;stroke-width: 1;" points="239.45088 134.469124, 239.45088 67.955414 239.45088 67.955414, 235.838492 62.599062 235.838492 62.599062, 235.838492 51.216052 235.838492 51.216052, 166.804086 51.216052 166.804086 51.216052, 166.804086 62.599062 166.804086 62.599062, 163.191952 67.955414 163.191952 67.955414, 163.191952 134.469124 163.191952 134.469124, 239.45088 134.469124 239.45088 134.469124, 239.45088 134.469124"/>
      </g>
      <g>
        <polyline style="fill: gray;stroke: black;stroke-width: 1;" points="239.45088 67.955414, 235.838492 62.599062 235.838492 62.599062, 229.015036 51.216052 229.015036 51.216052, 222.844106 51.216052 222.844106 51.216052, 218.573858 55.67172 218.573858 55.67172, 211.708238 60.707016 211.708238 60.707016, 207.843374 61.761878 207.843374 61.761878, 194.799204 61.761878 194.799204 61.761878, 190.933578 60.707016 190.933578 60.707016, 184.068212 55.67172 184.068212 55.67172, 179.79771 51.216052 179.79771 51.216052, 173.62678 51.216052 173.62678 51.216052, 166.804086 62.599062 166.804086 62.599062, 163.191952 67.955414 163.191952 67.955414, 239.45088 67.955414 239.45088 67.955414, 239.45088 67.955414"/>
      </g>
      <g>
        <polyline style="fill: gray;stroke: black;stroke-width: 1;" points="361.358942 134.469124, 361.358942 67.955414 361.358942 67.955414, 357.746808 62.599062 357.746808 62.599062, 357.746808 51.216052 357.746808 51.216052, 288.712148 51.216052 288.712148 51.216052, 288.712148 62.599062 288.712148 62.599062, 285.100014 67.955414 285.100014 67.955414, 285.100014 134.469124 285.100014 134.469124, 361.358942 134.469124 361.358942 134.469124, 361.358942 134.469124"/>
      </g>
      <g>
        <polyline style="fill: gray;stroke: black;stroke-width: 1;" points="361.358942 67.955414, 357.746808 62.599062 357.746808 62.599062, 350.92386 51.216052 350.92386 51.216052, 344.75293 51.216052 344.75293 51.216052, 340.482682 55.67172 340.482682 55.67172, 333.617062 60.707016 333.617062 60.707016, 329.751436 61.761878 329.751436 61.761878, 316.707266 61.761878 316.707266 61.761878, 312.84164 60.707016 312.84164 60.707016, 305.976274 55.67172 305.976274 55.67172, 301.706788 51.216052 301.706788 51.216052, 295.534842 51.216052 295.534842 51.216052, 288.712148 62.599062 288.712148 62.599062, 285.100014 67.955414 285.100014 67.955414, 361.358942 67.955414 361.358942 67.955414, 361.358942 67.955414"/>
      </g>
      <g>
        <polyline style="fill: gray;stroke: black;stroke-width: 1;" points="483.267766 134.469124, 483.267766 67.955414 483.267766 67.955414, 479.655632 62.599062 479.655632 62.599062, 479.655632 51.216052 479.655632 51.216052, 410.62021 51.216052 410.62021 51.216052, 410.62021 62.599062 410.62021 62.599062, 407.008076 67.955414 407.008076 67.955414, 407.008076 134.469124 407.008076 134.469124, 483.267766 134.469124 483.267766 134.469124, 483.267766 134.469124"/>
      </g>
      <g>
        <polyline style="fill: gray;stroke: black;stroke-width: 1;" points="483.267766 67.955414, 479.655632 62.599062 479.655632 62.599062, 472.831922 51.216052 472.831922 51.216052, 466.660992 51.216052 466.660992 51.216052, 462.390744 55.67172 462.390744 55.67172, 455.525124 60.707016 455.525124 60.707016, 451.659498 61.761878 451.659498 61.761878, 438.615328 61.761878 438.615328 61.761878, 434.750464 60.707016 434.750464 60.707016, 427.885098 55.67172 427.885098 55.67172, 423.61485 51.216052 423.61485 51.216052, 417.44392 51.216052 417.44392 51.216052, 410.62021 62.599062 410.62021 62.599062, 407.008076 67.955414 407.008076 67.955414, 483.267766 67.955414 483.267766 67.955414, 483.267766 67.955414"/>
      </g>
      <g>
        <polyline style="fill: gray;stroke: black;stroke-width: 1;" points="605.17532 134.469124, 605.17532 67.955414 605.17532 67.955414, 601.56344 62.599062 601.56344 62.599062, 601.56344 51.216052 601.56344 51.216052, 532.529034 51.216052 532.529034 51.216052, 532.529034 62.599062 532.529034 62.599062, 528.9169 67.955414 528.9169 67.955414, 528.9169 134.469124 528.9169 134.469124, 605.17532 134.469124 605.17532 134.469124, 605.17532 134.469124"/>
      </g>
      <g>
        <polyline style="fill: gray;stroke: black;stroke-width: 1;" points="605.17532 67.955414, 601.56344 62.599062 601.56344 62.599062, 594.741 51.216052 594.741 51.216052, 588.5688 51.216052 588.5688 51.216052, 584.29906 55.67172 584.29906 55.67172, 577.43344 60.707016 577.43344 60.707016, 573.568322 61.761878 573.568322 61.761878, 560.524152 61.761878 560.524152 61.761878, 556.658526 60.707016 556.658526 60.707016, 549.79316 55.67172 549.79316 55.67172, 545.522912 51.216052 545.522912 51.216052, 539.351982 51.216052 539.351982 51.216052, 532.529034 62.599062 532.529034 62.599062, 528.9169 67.955414 528.9169 67.955414, 605.17532 67.955414 605.17532 67.955414, 605.17532 67.955414"/>
      </g>
    </g>
  </g>
</svg>
