<?xml version="1.0" encoding="utf-8"?>
<!-- Generator: SVG Export - SVG Version: 6.00 Build 1  -->
<!-- FXGUID: [A0A10D18-82CE-11ED-9BEA-525400685065] SYMID: [18480]  -->
<svg xmlns="http://www.w3.org/2000/svg" version="1.1" ch_offset="0" color_bar_width="66" width="258.639818" height="200.370694" origin_x="124.28982" origin_y="67.476624" ch_offset_x="123.7966536" ch_offset_y="40" color_offset_x="124.28982" color_offset_y="-4">
  <g>
    <title>Layer 1</title>
    <g>
      <g>
        <polyline style="fill: gray;stroke: black;stroke-width: 1;" points="15.368016 82.236818, 12.161266 82.236818 12.161266 82.236818, 8.9535 82.236818 8.9535 82.236818, 5.74675 82.236818 5.74675 82.236818, 2.54 82.236818 2.54 82.236818, 2.54 75.085956 2.54 75.085956, 2.54 67.935348 2.54 67.935348, 2.54 60.785248 2.54 60.785248, 2.54 53.63464 2.54 53.63464, 5.74675 53.63464 5.74675 53.63464, 8.9535 53.63464 8.9535 53.63464, 12.161266 53.63464 12.161266 53.63464, 15.368016 53.63464 15.368016 53.63464, 15.368016 60.785248 15.368016 60.785248, 15.368016 67.935348 15.368016 67.935348, 15.368016 75.085956 15.368016 75.085956, 15.368016 82.236818 15.368016 82.236818, 15.368016 82.236818"/>
      </g>
      <g>
        <polyline style="fill: gray;stroke: black;stroke-width: 1;" points="233.111294 82.236818, 236.318806 82.236818 236.318806 82.236818, 239.525556 82.236818 239.525556 82.236818, 242.733068 82.236818 242.733068 82.236818, 245.939818 82.236818 245.939818 82.236818, 245.939818 75.085956 245.939818 75.085956, 245.939818 67.935348 245.939818 67.935348, 245.939818 60.785248 245.939818 60.785248, 245.939818 53.63464 245.939818 53.63464, 242.733068 53.63464 242.733068 53.63464, 239.525556 53.63464 239.525556 53.63464, 236.318806 53.63464 236.318806 53.63464, 233.111294 53.63464 233.111294 53.63464, 233.111294 60.785248 233.111294 60.785248, 233.111294 67.935348 233.111294 67.935348, 233.111294 75.085956 233.111294 75.085956, 233.111294 82.236818 233.111294 82.236818, 233.111294 82.236818"/>
      </g>
      <g>
        <polyline style="fill: gray;stroke: black;stroke-width: 1;" points="226.697032 77.113892, 228.300788 77.113892 228.300788 77.113892, 229.904544 77.113892 229.904544 77.113892, 231.507538 77.113892 231.507538 77.113892, 233.111294 77.113892 233.111294 77.113892, 233.111294 72.311006 233.111294 72.311006, 233.111294 67.50812 233.111294 67.50812, 233.111294 62.70625 233.111294 62.70625, 233.111294 57.903364 233.111294 57.903364, 231.507538 57.903364 231.507538 57.903364, 229.904544 57.903364 229.904544 57.903364, 228.300788 57.903364 228.300788 57.903364, 226.697032 57.903364 226.697032 57.903364, 226.697032 62.70625 226.697032 62.70625, 226.697032 67.50812 226.697032 67.50812, 226.697032 72.311006 226.697032 72.311006, 226.697032 77.113892 226.697032 77.113892, 226.697032 77.113892"/>
      </g>
      <g>
        <polyline style="fill: gray;stroke: black;stroke-width: 1;" points="226.697032 89.066624, 175.46828 89.066624 175.46828 89.066624, 124.239528 89.066624 124.239528 89.066624, 73.01103 89.066624 73.01103 89.066624, 21.782278 89.066624 21.782278 89.066624, 21.782278 78.50124 21.782278 78.50124, 21.782278 67.935348 21.782278 67.935348, 21.782278 57.369964 21.782278 57.369964, 21.782278 46.804072 21.782278 46.804072, 73.01103 46.804072 73.01103 46.804072, 124.239528 46.804072 124.239528 46.804072, 175.46828 46.804072 175.46828 46.804072, 226.697032 46.804072 226.697032 46.804072, 226.697032 57.369964 226.697032 57.369964, 226.697032 67.935348 226.697032 67.935348, 226.697032 78.50124 226.697032 78.50124, 226.697032 89.066624 226.697032 89.066624, 226.697032 89.066624"/>
      </g>
      <g>
        <polyline style="fill: gray;stroke: black;stroke-width: 1;" points="21.782278 77.113892, 20.179284 77.113892 20.179284 77.113892, 18.575528 77.113892 18.575528 77.113892, 16.971772 77.113892 16.971772 77.113892, 15.368016 77.113892 15.368016 77.113892, 15.368016 72.311006 15.368016 72.311006, 15.368016 67.50812 15.368016 67.50812, 15.368016 62.70625 15.368016 62.70625, 15.368016 57.903364 15.368016 57.903364, 16.971772 57.903364 16.971772 57.903364, 18.575528 57.903364 18.575528 57.903364, 20.179284 57.903364 20.179284 57.903364, 21.782278 57.903364 21.782278 57.903364, 21.782278 62.70625 21.782278 62.70625, 21.782278 67.50812 21.782278 67.50812, 21.782278 72.311006 21.782278 72.311006, 21.782278 77.113892 21.782278 77.113892, 21.782278 77.113892"/>
      </g>
      <g>
        <polyline style="fill: gray;stroke: black;stroke-width: 1;" points="133.328156 67.93611, 132.614162 71.507858 132.614162 71.507858, 130.666236 74.425556 130.666236 74.425556, 127.77724 76.39304 127.77724 76.39304, 124.239528 77.113892 124.239528 77.113892, 120.702578 76.39304 120.702578 76.39304, 117.813582 74.425556 117.813582 74.425556, 115.865656 71.507858 115.865656 71.507858, 115.1509 67.93611 115.1509 67.93611, 115.865656 64.362584 115.865656 64.362584, 117.813582 61.445648 117.813582 61.445648, 120.702578 59.478418 120.702578 59.478418, 124.239528 58.757566 124.239528 58.757566, 127.77724 59.478418 127.77724 59.478418, 130.666236 61.445648 130.666236 61.445648, 132.614162 64.362584 132.614162 64.362584, 133.328156 67.93611 133.328156 67.93611, 133.328156 67.93611"/>
      </g>
      <g>
        <polyline style="fill: transparent;stroke: black;stroke-width: 1;" points="25.527508 39.678864, 25.527508 30.394148 25.527508 30.394148, 25.527508 21.109432 25.527508 21.109432, 25.527508 11.824716 25.527508 11.824716, 25.527508 2.54 25.527508 2.54, 30.237938 2.54 30.237938 2.54, 34.949384 2.54 34.949384 2.54, 39.66083 2.54 39.66083 2.54, 44.372022 2.54 44.372022 2.54, 44.372022 3.925824 44.372022 3.925824, 44.372022 5.311902 44.372022 5.311902, 44.372022 6.698742 44.372022 6.698742, 44.372022 8.084566 44.372022 8.084566, 41.66997 8.084566 41.66997 8.084566, 38.967664 8.084566 38.967664 8.084566, 36.265612 8.084566 36.265612 8.084566, 33.563306 8.084566 33.563306 8.084566, 33.563306 9.539478 33.563306 9.539478, 33.563306 10.99439 33.563306 10.99439, 33.563306 12.449556 33.563306 12.449556, 33.563306 13.904468 33.563306 13.904468, 49.707292 13.904468 49.707292 13.904468, 65.850516 13.904468 65.850516 13.904468, 81.99374 13.904468 81.99374 13.904468, 98.137726 13.904468 98.137726 13.904468, 98.137726 11.409934 98.137726 11.409934, 98.137726 8.915654 98.137726 8.915654, 98.137726 6.421882 98.137726 6.421882, 98.137726 3.927602 98.137726 3.927602, 102.087172 3.927602 102.087172 3.927602, 106.036618 3.927602 106.036618 3.927602, 109.985048 3.927602 109.985048 3.927602, 113.935256 3.927602 113.935256 3.927602, 119.017034 3.927602 119.017034 3.927602, 124.099066 3.927602 124.099066 3.927602, 129.181606 3.927602 129.181606 3.927602, 134.264146 3.927602 134.264146 3.927602, 138.213592 3.927602 138.213592 3.927602, 142.163038 3.927602 142.163038 3.927602, 146.112484 3.927602 146.112484 3.927602, 150.061676 3.927602 150.061676 3.927602, 150.061676 6.421882 150.061676 6.421882, 150.061676 8.915654 150.061676 8.915654, 150.061676 11.409934 150.061676 11.409934, 150.061676 13.904468 150.061676 13.904468, 166.205662 13.904468 166.205662 13.904468, 182.348124 13.904468 182.348124 13.904468, 198.49211 13.904468 198.49211 13.904468, 214.636096 13.904468 214.636096 13.904468, 214.636096 12.449556 214.636096 12.449556, 214.636096 10.99439 214.636096 10.99439, 214.636096 9.539478 214.636096 9.539478, 214.636096 8.084566 214.636096 8.084566, 211.934044 8.084566 211.934044 8.084566, 209.231738 8.084566 209.231738 8.084566, 206.529686 8.084566 206.529686 8.084566, 203.82738 8.084566 203.82738 8.084566, 203.82738 6.698742 203.82738 6.698742, 203.82738 5.311902 203.82738 5.311902, 203.82738 3.925824 203.82738 3.925824, 203.82738 2.54 203.82738 2.54, 208.538064 2.54 208.538064 2.54, 213.248494 2.54 213.248494 2.54, 217.95994 2.54 217.95994 2.54, 222.670624 2.54 222.670624 2.54, 222.670624 11.824716 222.670624 11.824716, 222.670624 21.109432 222.670624 21.109432, 222.670624 30.394148 222.670624 30.394148, 222.670624 39.678864"/>
      </g>
      <g>
        <polyline style="fill: transparent;stroke: black;stroke-width: 1;" points="221.838774 98.708464, 220.721682 111.137192 220.721682 111.137192, 216.851484 138.479022 216.851484 138.479022, 209.446622 165.820852 209.446622 165.820852, 197.727824 178.248564 197.727824 178.248564, 194.59702 178.248564 194.59702 178.248564, 190.141606 178.248564 190.141606 178.248564, 186.153298 178.248564 186.153298 178.248564, 184.424828 178.248564 184.424828 178.248564, 184.424828 180.604414 184.424828 180.604414, 184.424828 182.959248 184.424828 182.959248, 184.424828 185.314844 184.424828 185.314844, 184.424828 187.670694 184.424828 187.670694, 170.569128 187.670694 170.569128 187.670694, 156.712412 187.670694 156.712412 187.670694, 142.85595 187.670694 142.85595 187.670694, 128.999488 187.670694 128.999488 187.670694, 126.54915 187.670694 126.54915 187.670694, 124.099828 187.670694 124.099828 187.670694, 121.64949 187.670694 121.64949 187.670694, 119.200168 187.670694 119.200168 187.670694, 105.34269 187.670694 105.34269 187.670694, 91.486228 187.670694 91.486228 187.670694, 77.629004 187.670694 77.629004 187.670694, 63.772542 187.670694 63.772542 187.670694, 63.772542 185.314844 63.772542 185.314844, 63.772542 182.959248 63.772542 182.959248, 63.772542 180.604414 63.772542 180.604414, 63.772542 178.248564 63.772542 178.248564, 62.04458 178.248564 62.04458 178.248564, 58.056526 178.248564 58.056526 178.248564, 53.600858 178.248564 53.600858 178.248564, 50.470054 178.248564 50.470054 178.248564, 38.752272 165.820852 38.752272 165.820852, 31.347156 138.479022 31.347156 138.479022, 27.475434 111.137192 27.475434 111.137192, 26.358342 98.708464"/>
      </g>
      <g>
        <polyline style="fill: transparent;stroke: black;stroke-width: 1;" points="26.358342 98.708464, 25.982422 86.507828 25.982422 86.507828, 25.723596 66.546984 25.723596 66.546984, 25.574752 47.909226 25.574752 47.909226, 25.527508 39.678864 25.527508 39.678864, 74.812906 39.678864 74.812906 39.678864, 124.099066 39.678864 124.099066 39.678864, 173.385226 39.678864 173.385226 39.678864, 222.670624 39.678864 222.670624 39.678864, 222.641922 47.7139 222.641922 47.7139, 222.523304 66.026792 222.523304 66.026792, 222.271336 85.922612 222.271336 85.922612, 221.838774 98.708464"/>
      </g>
      <g>
        <polyline style="fill: gray;stroke: black;stroke-width: 1;" points="21.828506 89.198196, 22.75332 89.198196 22.75332 89.198196, 23.67788 89.198196 23.67788 89.198196, 24.602694 89.198196 24.602694 89.198196, 25.527508 89.198196 25.527508 89.198196, 25.527508 78.633066 25.527508 78.633066, 25.527508 68.06692 25.527508 68.06692, 25.527508 57.50179 25.527508 57.50179, 25.527508 46.935644 25.527508 46.935644, 24.602694 46.935644 24.602694 46.935644, 23.67788 46.935644 23.67788 46.935644, 22.75332 46.935644 22.75332 46.935644, 21.828506 46.935644 21.828506 46.935644, 21.828506 57.50179 21.828506 57.50179, 21.828506 68.06692 21.828506 68.06692, 21.828506 78.633066 21.828506 78.633066, 21.828506 89.198196 21.828506 89.198196, 21.828506 89.198196"/>
      </g>
      <g>
        <polyline style="fill: gray;stroke: black;stroke-width: 1;" points="222.670624 89.198196, 223.595184 89.198196 223.595184 89.198196, 224.519998 89.198196 224.519998 89.198196, 225.444812 89.198196 225.444812 89.198196, 226.369626 89.198196 226.369626 89.198196, 226.369626 78.633066 226.369626 78.633066, 226.369626 68.06692 226.369626 68.06692, 226.369626 57.50179 226.369626 57.50179, 226.369626 46.935644 226.369626 46.935644, 225.444812 46.935644 225.444812 46.935644, 224.519998 46.935644 224.519998 46.935644, 223.595184 46.935644 223.595184 46.935644, 222.670624 46.935644 222.670624 46.935644, 222.670624 57.50179 222.670624 57.50179, 222.670624 68.06692 222.670624 68.06692, 222.670624 78.633066 222.670624 78.633066, 222.670624 89.198196 222.670624 89.198196, 222.670624 89.198196"/>
      </g>
      <g>
        <polyline style="fill: transparent;stroke: black;stroke-width: 1;" points="212.535516 155.106624, 212.535516 146.379184 212.535516 146.379184, 212.535516 137.651998 212.535516 137.651998, 212.535516 128.923796 212.535516 128.923796, 212.535516 120.196356 212.535516 120.196356, 214.319104 120.196356 214.319104 120.196356, 216.101168 120.196356 216.101168 120.196356, 217.883994 120.196356 217.883994 120.196356, 219.66682 120.196356"/>
      </g>
      <g>
        <polyline style="fill: transparent;stroke: black;stroke-width: 1;" points="63.772542 178.248564, 93.935804 178.248564 93.935804 178.248564, 124.099066 178.248564 124.099066 178.248564, 154.262328 178.248564 154.262328 178.248564, 184.424828 178.248564"/>
      </g>
      <g>
        <polyline style="fill: transparent;stroke: black;stroke-width: 1;" points="28.53182 120.196356, 30.313884 120.196356 30.313884 120.196356, 32.096964 120.196356 32.096964 120.196356, 33.879028 120.196356 33.879028 120.196356, 35.661854 120.196356 35.661854 120.196356, 35.661854 129.402078 35.661854 129.402078, 35.661854 138.6078 35.661854 138.6078, 35.661854 147.81403 35.661854 147.81403, 35.661854 157.019752"/>
      </g>
      <g>
        <polyline style="fill: gray;stroke: black;stroke-width: 1;" points="188.304424 111.714788, 186.36488 111.714788 186.36488 111.714788, 184.424828 111.714788 184.424828 111.714788, 182.485284 111.714788 182.485284 111.714788, 180.545994 111.714788 180.545994 111.714788, 180.545994 93.70568 180.545994 93.70568, 180.545994 75.696826 180.545994 75.696826, 180.545994 57.687718 180.545994 57.687718, 180.545994 39.678864 180.545994 39.678864, 182.485284 39.678864 182.485284 39.678864, 184.424828 39.678864 184.424828 39.678864, 186.36488 39.678864 186.36488 39.678864, 188.304424 39.678864 188.304424 39.678864, 188.304424 57.687718 188.304424 57.687718, 188.304424 75.696826 188.304424 75.696826, 188.304424 93.70568 188.304424 93.70568, 188.304424 111.714788 188.304424 111.714788, 188.304424 111.714788"/>
      </g>
      <g>
        <polyline style="fill: gray;stroke: black;stroke-width: 1;" points="57.95645 111.714788, 56.016398 111.714788 56.016398 111.714788, 54.076854 111.714788 54.076854 111.714788, 52.137564 111.714788 52.137564 111.714788, 50.19802 111.714788 50.19802 111.714788, 50.19802 93.70568 50.19802 93.70568, 50.19802 75.696826 50.19802 75.696826, 50.19802 57.687718 50.19802 57.687718, 50.19802 39.678864 50.19802 39.678864, 52.137564 39.678864 52.137564 39.678864, 54.076854 39.678864 54.076854 39.678864, 56.016398 39.678864 56.016398 39.678864, 57.95645 39.678864 57.95645 39.678864, 57.95645 57.687718 57.95645 57.687718, 57.95645 75.696826 57.95645 75.696826, 57.95645 93.70568 57.95645 93.70568, 57.95645 111.714788 57.95645 111.714788, 57.95645 111.714788"/>
      </g>
      <g>
        <polyline style="fill: gray;stroke: black;stroke-width: 1;" points="120.031764 111.714788, 118.092474 111.714788 118.092474 111.714788, 116.152168 111.714788 116.152168 111.714788, 114.212878 111.714788 114.212878 111.714788, 112.273334 111.714788 112.273334 111.714788, 112.273334 93.70568 112.273334 93.70568, 112.273334 75.696826 112.273334 75.696826, 112.273334 57.687718 112.273334 57.687718, 112.273334 39.678864 112.273334 39.678864, 114.212878 39.678864 114.212878 39.678864, 116.152168 39.678864 116.152168 39.678864, 118.092474 39.678864 118.092474 39.678864, 120.031764 39.678864 120.031764 39.678864, 120.031764 57.687718 120.031764 57.687718, 120.031764 75.696826 120.031764 75.696826, 120.031764 93.70568 120.031764 93.70568, 120.031764 111.714788 120.031764 111.714788, 120.031764 111.714788"/>
      </g>
      <g>
        <polyline style="fill: gray;stroke: black;stroke-width: 1;" points="86.27872 111.714788, 84.33943 111.714788 84.33943 111.714788, 82.399886 111.714788 82.399886 111.714788, 80.459834 111.714788 80.459834 111.714788, 78.52029 111.714788 78.52029 111.714788, 78.52029 93.70568 78.52029 93.70568, 78.52029 75.696826 78.52029 75.696826, 78.52029 57.687718 78.52029 57.687718, 78.52029 39.678864 78.52029 39.678864, 80.459834 39.678864 80.459834 39.678864, 82.399886 39.678864 82.399886 39.678864, 84.33943 39.678864 84.33943 39.678864, 86.27872 39.678864 86.27872 39.678864, 86.27872 57.687718 86.27872 57.687718, 86.27872 75.696826 86.27872 75.696826, 86.27872 93.70568 86.27872 93.70568, 86.27872 111.714788 86.27872 111.714788, 86.27872 111.714788"/>
      </g>
      <g>
        <polyline style="fill: gray;stroke: black;stroke-width: 1;" points="155.425648 111.714788, 153.48712 111.714788 153.48712 111.714788, 151.546814 111.714788 151.546814 111.714788, 149.607524 111.714788 149.607524 111.714788, 147.66798 111.714788 147.66798 111.714788, 147.66798 93.70568 147.66798 93.70568, 147.66798 75.696826 147.66798 75.696826, 147.66798 57.687718 147.66798 57.687718, 147.66798 39.678864 147.66798 39.678864, 149.607524 39.678864 149.607524 39.678864, 151.546814 39.678864 151.546814 39.678864, 153.48712 39.678864 153.48712 39.678864, 155.425648 39.678864 155.425648 39.678864, 155.425648 57.687718 155.425648 57.687718, 155.425648 75.696826 155.425648 75.696826, 155.425648 93.70568 155.425648 93.70568, 155.425648 111.714788 155.425648 111.714788, 155.425648 111.714788"/>
      </g>
      <g>
        <polyline style="fill: gray;stroke: black;stroke-width: 1;" points="35.661854 111.714788, 33.72231 111.714788 33.72231 111.714788, 31.782004 111.714788 31.782004 111.714788, 29.842714 111.714788 29.842714 111.714788, 27.903424 111.714788 27.903424 111.714788, 27.903424 93.70568 27.903424 93.70568, 27.903424 75.696826 27.903424 75.696826, 27.903424 57.687718 27.903424 57.687718, 27.903424 39.678864 27.903424 39.678864, 29.842714 39.678864 29.842714 39.678864, 31.782004 39.678864 31.782004 39.678864, 33.72231 39.678864 33.72231 39.678864, 35.661854 39.678864 35.661854 39.678864, 35.661854 57.687718 35.661854 57.687718, 35.661854 75.696826 35.661854 75.696826, 35.661854 93.70568 35.661854 93.70568, 35.661854 111.714788 35.661854 111.714788, 35.661854 111.714788"/>
      </g>
      <g>
        <polyline style="fill: gray;stroke: black;stroke-width: 1;" points="57.95645 178.248564, 56.016398 178.248564 56.016398 178.248564, 54.076854 178.248564 54.076854 178.248564, 52.137564 178.248564 52.137564 178.248564, 50.19802 178.248564 50.19802 178.248564, 50.19802 163.735512 50.19802 163.735512, 50.19802 149.22246 50.19802 149.22246, 50.19802 134.709408 50.19802 134.709408, 50.19802 120.196356 50.19802 120.196356, 52.137564 120.196356 52.137564 120.196356, 54.076854 120.196356 54.076854 120.196356, 56.016398 120.196356 56.016398 120.196356, 57.95645 120.196356 57.95645 120.196356, 57.95645 134.709408 57.95645 134.709408, 57.95645 149.22246 57.95645 149.22246, 57.95645 163.735512 57.95645 163.735512, 57.95645 178.248564 57.95645 178.248564, 57.95645 178.248564"/>
      </g>
      <g>
        <polyline style="fill: gray;stroke: black;stroke-width: 1;" points="86.27872 178.248564, 84.33943 178.248564 84.33943 178.248564, 82.399886 178.248564 82.399886 178.248564, 80.460596 178.248564 80.460596 178.248564, 78.52029 178.248564 78.52029 178.248564, 78.52029 163.735512 78.52029 163.735512, 78.52029 149.22246 78.52029 149.22246, 78.52029 134.709408 78.52029 134.709408, 78.52029 120.196356 78.52029 120.196356, 80.460596 120.196356 80.460596 120.196356, 82.399886 120.196356 82.399886 120.196356, 84.33943 120.196356 84.33943 120.196356, 86.27872 120.196356 86.27872 120.196356, 86.27872 134.709408 86.27872 134.709408, 86.27872 149.22246 86.27872 149.22246, 86.27872 163.735512 86.27872 163.735512, 86.27872 178.248564 86.27872 178.248564, 86.27872 178.248564"/>
      </g>
      <g>
        <polyline style="fill: gray;stroke: black;stroke-width: 1;" points="120.031002 178.248564, 118.091712 178.248564 118.091712 178.248564, 116.152168 178.248564 116.152168 178.248564, 114.212878 178.248564 114.212878 178.248564, 112.273334 178.248564 112.273334 178.248564, 112.273334 163.735512 112.273334 163.735512, 112.273334 149.22246 112.273334 149.22246, 112.273334 134.709408 112.273334 134.709408, 112.273334 120.196356 112.273334 120.196356, 114.212878 120.196356 114.212878 120.196356, 116.152168 120.196356 116.152168 120.196356, 118.091712 120.196356 118.091712 120.196356, 120.031002 120.196356 120.031002 120.196356, 120.031002 134.709408 120.031002 134.709408, 120.031002 149.22246 120.031002 149.22246, 120.031002 163.735512 120.031002 163.735512, 120.031002 178.248564 120.031002 178.248564, 120.031002 178.248564"/>
      </g>
      <g>
        <polyline style="fill: gray;stroke: black;stroke-width: 1;" points="155.426664 178.248564, 153.48712 178.248564 153.48712 178.248564, 151.546814 178.248564 151.546814 178.248564, 149.607524 178.248564 149.607524 178.248564, 147.66798 178.248564 147.66798 178.248564, 147.66798 163.735512 147.66798 163.735512, 147.66798 149.22246 147.66798 149.22246, 147.66798 134.709408 147.66798 134.709408, 147.66798 120.196356 147.66798 120.196356, 149.607524 120.196356 149.607524 120.196356, 151.546814 120.196356 151.546814 120.196356, 153.48712 120.196356 153.48712 120.196356, 155.426664 120.196356 155.426664 120.196356, 155.426664 134.709408 155.426664 134.709408, 155.426664 149.22246 155.426664 149.22246, 155.426664 163.735512 155.426664 163.735512, 155.426664 178.248564 155.426664 178.248564, 155.426664 178.248564"/>
      </g>
      <g>
        <polyline style="fill: gray;stroke: black;stroke-width: 1;" points="188.304424 178.248564, 186.36488 178.248564 186.36488 178.248564, 184.424828 178.248564 184.424828 178.248564, 182.485284 178.248564 182.485284 178.248564, 180.545994 178.248564 180.545994 178.248564, 180.545994 163.735512 180.545994 163.735512, 180.545994 149.22246 180.545994 149.22246, 180.545994 134.709408 180.545994 134.709408, 180.545994 120.196356 180.545994 120.196356, 182.485284 120.196356 182.485284 120.196356, 184.424828 120.196356 184.424828 120.196356, 186.36488 120.196356 186.36488 120.196356, 188.304424 120.196356 188.304424 120.196356, 188.304424 134.709408 188.304424 134.709408, 188.304424 149.22246 188.304424 149.22246, 188.304424 163.735512 188.304424 163.735512, 188.304424 178.248564 188.304424 178.248564, 188.304424 178.248564"/>
      </g>
      <g>
        <polyline style="fill: gray;stroke: black;stroke-width: 1;" points="220.294708 111.714788, 218.355164 111.714788 218.355164 111.714788, 216.415874 111.714788 216.415874 111.714788, 214.47633 111.714788 214.47633 111.714788, 212.535516 111.714788 212.535516 111.714788, 212.535516 93.70568 212.535516 93.70568, 212.535516 75.696826 212.535516 75.696826, 212.535516 57.687718 212.535516 57.687718, 212.535516 39.678864 212.535516 39.678864, 214.47633 39.678864 214.47633 39.678864, 216.415874 39.678864 216.415874 39.678864, 218.355164 39.678864 218.355164 39.678864, 220.294708 39.678864 220.294708 39.678864, 220.294708 57.687718 220.294708 57.687718, 220.294708 75.696826 220.294708 75.696826, 220.294708 93.70568 220.294708 93.70568, 220.294708 111.714788 220.294708 111.714788, 220.294708 111.714788"/>
      </g>
      <g>
        <polyline style="fill: gray;stroke: black;stroke-width: 1;" points="219.66682 120.196356, 171.882816 120.196356 171.882816 120.196356, 124.099066 120.196356 124.099066 120.196356, 76.315824 120.196356 76.315824 120.196356, 28.53182 120.196356 28.53182 120.196356, 28.374594 118.076472 28.374594 118.076472, 28.217114 115.955572 28.217114 115.955572, 28.059888 113.835434 28.059888 113.835434, 27.903424 111.714788 27.903424 111.714788, 76.001118 111.714788 76.001118 111.714788, 124.099066 111.714788 124.099066 111.714788, 172.19676 111.714788 172.19676 111.714788, 220.294708 111.714788 220.294708 111.714788, 220.13799 113.835434 220.13799 113.835434, 219.980764 115.955572 219.980764 115.955572, 219.823284 118.076472 219.823284 118.076472, 219.66682 120.196356 219.66682 120.196356, 219.66682 120.196356"/>
      </g>
      <g>
        <polyline style="fill: gray;stroke: black;stroke-width: 1;" points="149.684994 178.248564, 136.798304 178.248564 136.798304 178.248564, 123.91136 178.248564 123.91136 178.248564, 111.02467 178.248564 111.02467 178.248564, 98.137726 178.248564 98.137726 178.248564, 98.137726 134.66826 98.137726 134.66826, 98.137726 91.087956 98.137726 91.087956, 98.137726 47.507906 98.137726 47.507906, 98.137726 3.927602 98.137726 3.927602, 111.02467 3.927602 111.02467 3.927602, 123.91136 3.927602 123.91136 3.927602, 136.798304 3.927602 136.798304 3.927602, 149.684994 3.927602 149.684994 3.927602, 149.684994 47.507906 149.684994 47.507906, 149.684994 91.087956 149.684994 91.087956, 149.684994 134.66826 149.684994 134.66826, 149.684994 178.248564 149.684994 178.248564, 149.684994 178.248564"/>
      </g>
    </g>
  </g>
</svg>
