<?xml version="1.0" encoding="utf-8"?>
<!-- Generator: www.crescit.com, SVG Export - SVG Version: 6.00 Build 1  -->
<!-- FXGUID: [1414ED07-EEB4-11EF-BE97-42010A37C002] SYMID: [24609]  -->
<svg xmlns="http://www.w3.org/2000/svg" version="1.1" ch_offset="0" color_bar_width="66" width="401.159726" height="509.315212" origin_x="195.7959" origin_y="265.5443" ch_offset_x="193.9088578" ch_offset_y="40" color_offset_x="195.7959" color_offset_y="-4">
  <g>
    <title>Layer 1</title>
    <g>
      <g>
        <polyline style="fill: transparent;stroke: black;stroke-width: 1;" points="313.286902 391.29843, 319.815972 383.44094 319.815972 383.44094, 334.18018 365.428022 334.18018 365.428022, 348.544388 345.60129 348.544388 345.60129, 355.073458 332.30439 355.073458 332.30439, 355.073458 300.553628 355.073458 300.553628, 355.073458 268.802866 355.073458 268.802866, 355.073458 237.052866 355.073458 237.052866, 355.073458 205.302104 355.073458 205.302104, 348.544388 192.004442 348.544388 192.004442, 334.18018 172.178472 334.18018 172.178472, 319.815972 154.165554 319.815972 154.165554, 313.286902 146.308064"/>
      </g>
      <g>
        <polyline style="fill: transparent;stroke: black;stroke-width: 1;" points="313.286902 332.30439, 316.551056 329.37196 316.551056 329.37196, 323.733414 322.369434 323.733414 322.369434, 330.916026 313.983878 330.916026 313.983878, 334.18018 306.903628 334.18018 306.903628, 334.18018 287.853628 334.18018 287.853628, 334.18018 268.803628 334.18018 268.803628, 334.18018 249.752866 334.18018 249.752866, 334.18018 230.702866 334.18018 230.702866, 330.916026 223.623378 330.916026 223.623378, 323.733414 215.23706 323.733414 215.23706, 316.551056 208.234534 316.551056 208.234534, 313.286902 205.302104"/>
      </g>
      <g>
        <polyline style="fill: transparent;stroke: black;stroke-width: 1;" points="79.768446 391.29843, 73.239376 383.44094 73.239376 383.44094, 58.874406 365.428022 58.874406 365.428022, 44.510198 345.60129 44.510198 345.60129, 37.981128 332.30439 37.981128 332.30439, 37.981128 300.553628 37.981128 300.553628, 37.981128 268.802866 37.981128 268.802866, 37.981128 237.052866 37.981128 237.052866, 37.981128 205.302104 37.981128 205.302104, 44.510198 192.004442 44.510198 192.004442, 58.874406 172.178472 58.874406 172.178472, 73.239376 154.165554 73.239376 154.165554, 79.768446 146.308064"/>
      </g>
      <g>
        <polyline style="fill: transparent;stroke: black;stroke-width: 1;" points="79.768446 332.30439, 76.50353 329.37196 76.50353 329.37196, 69.321934 322.369434 69.321934 322.369434, 62.139322 313.983878 62.139322 313.983878, 58.874406 306.903628 58.874406 306.903628, 58.874406 287.853628 58.874406 287.853628, 58.874406 268.803628 58.874406 268.803628, 58.874406 249.752866 58.874406 249.752866, 58.874406 230.702866 58.874406 230.702866, 62.139322 223.623378 62.139322 223.623378, 69.321934 215.23706 69.321934 215.23706, 76.50353 208.234534 76.50353 208.234534, 79.768446 205.302104"/>
      </g>
      <g>
        <polyline style="fill: gray;stroke: black;stroke-width: 1;" points="79.768446 410.957014, 82.314034 412.109666 82.314034 412.109666, 88.94699 414.645094 88.94699 414.645094, 98.160332 417.180522 98.160332 417.180522, 108.447332 418.333936 108.447332 418.333936, 152.487376 418.333936 152.487376 418.333936, 196.527166 418.333936 196.527166 418.333936, 240.567972 418.333936 240.567972 418.333936, 284.608016 418.333936 284.608016 418.333936, 294.895016 417.180522 294.895016 417.180522, 304.108358 414.645094 304.108358 414.645094, 310.741314 412.109666 310.741314 412.109666, 313.286902 410.957014 313.286902 410.957014, 313.286902 340.288372 313.286902 340.288372, 313.286902 269.618968 313.286902 269.618968, 313.286902 198.95058 313.286902 198.95058, 313.286902 128.281938 313.286902 128.281938, 310.741314 127.129286 310.741314 127.129286, 304.108358 124.593858 304.108358 124.593858, 294.895016 122.057414 294.895016 122.057414, 284.608016 120.904762 284.608016 120.904762, 240.567972 120.904762 240.567972 120.904762, 196.527166 120.904762 196.527166 120.904762, 152.487376 120.904762 152.487376 120.904762, 108.447332 120.904762 108.447332 120.904762, 98.160332 122.057414 98.160332 122.057414, 88.94699 124.593858 88.94699 124.593858, 82.314034 127.129286 82.314034 127.129286, 79.768446 128.281938 79.768446 128.281938, 79.768446 198.95058 79.768446 198.95058, 79.768446 269.618968 79.768446 269.618968, 79.768446 340.288372 79.768446 340.288372, 79.768446 410.957014 79.768446 410.957014, 79.768446 410.957014"/>
      </g>
      <g>
        <polyline style="fill: transparent;stroke: black;stroke-width: 1;" points="341.756492 213.935564, 334.641444 212.400134 334.641444 212.400134, 318.448436 209.02041 318.448436 209.02041, 300.901608 205.640686 300.901608 205.640686, 289.725608 204.104494 289.725608 204.104494, 242.612926 204.104494 242.612926 204.104494, 195.499482 204.104494 195.499482 204.104494, 148.3868 204.104494 148.3868 204.104494, 101.273356 204.104494 101.273356 204.104494, 90.098118 205.640686 90.098118 205.640686, 72.551036 209.02041 72.551036 209.02041, 56.35752 212.400134 56.35752 212.400134, 49.243234 213.935564"/>
      </g>
      <g>
        <polyline style="fill: transparent;stroke: black;stroke-width: 1;" points="341.756492 325.369174, 334.641444 326.90562 334.641444 326.90562, 318.448436 330.28509 318.448436 330.28509, 300.901608 333.664814 300.901608 333.664814, 289.725608 335.200244 289.725608 335.200244, 242.612926 335.200244 242.612926 335.200244, 195.499482 335.200244 195.499482 335.200244, 148.3868 335.200244 148.3868 335.200244, 101.273356 335.200244 101.273356 335.200244, 90.098118 333.664814 90.098118 333.664814, 72.551036 330.28509 72.551036 330.28509, 56.35752 326.90562 56.35752 326.90562, 49.243234 325.369174"/>
      </g>
      <g>
        <polyline style="fill: gray;stroke: black;stroke-width: 1;" points="49.243234 325.369174, 48.46193 325.369174 48.46193 325.369174, 45.76064 325.369174 45.76064 325.369174, 40.601138 325.369174 40.601138 325.369174, 32.445706 325.369174 32.445706 325.369174, 22.242526 322.850002 22.242526 322.850002, 12.576556 316.396116 12.576556 316.396116, 5.369306 307.669438 5.369306 307.669438, 2.54 298.329604 2.54 298.329604, 2.54 283.99105 2.54 283.99105, 2.54 269.652496 2.54 269.652496, 2.54 255.31445 2.54 255.31445, 2.54 240.975896 2.54 240.975896, 5.369306 231.636062 5.369306 231.636062, 12.576556 222.908622 12.576556 222.908622, 22.242526 216.455752 22.242526 216.455752, 32.445706 213.935564 32.445706 213.935564, 40.601138 213.935564 40.601138 213.935564, 45.76064 213.935564 45.76064 213.935564, 48.46193 213.935564 48.46193 213.935564, 49.243234 213.935564 49.243234 213.935564, 49.243234 241.794284 49.243234 241.794284, 49.243234 269.652496 49.243234 269.652496, 49.243234 297.511216 49.243234 297.511216, 49.243234 325.369174 49.243234 325.369174, 49.243234 325.369174"/>
      </g>
      <g>
        <polyline style="fill: gray;stroke: black;stroke-width: 1;" points="341.756492 325.369174, 342.537034 325.369174 342.537034 325.369174, 345.238324 325.369174 345.238324 325.369174, 350.397826 325.369174 350.397826 325.369174, 358.553004 325.369174 358.553004 325.369174, 368.7572 322.850002 368.7572 322.850002, 378.42317 316.396116 378.42317 316.396116, 385.63042 307.669438 385.63042 307.669438, 388.459726 298.329604 388.459726 298.329604, 388.459726 283.99105 388.459726 283.99105, 388.459726 269.652496 388.459726 269.652496, 388.459726 255.31445 388.459726 255.31445, 388.459726 240.975896 388.459726 240.975896, 385.63042 231.636062 385.63042 231.636062, 378.42317 222.908622 378.42317 222.908622, 368.7572 216.455752 368.7572 216.455752, 358.553004 213.935564 358.553004 213.935564, 350.397826 213.935564 350.397826 213.935564, 345.238324 213.935564 345.238324 213.935564, 342.537034 213.935564 342.537034 213.935564, 341.756492 213.935564 341.756492 213.935564, 341.756492 241.794284 341.756492 241.794284, 341.756492 269.652496 341.756492 269.652496, 341.756492 297.511216 341.756492 297.511216, 341.756492 325.369174 341.756492 325.369174, 341.756492 325.369174"/>
      </g>
      <g>
        <polyline style="fill: gray;stroke: black;stroke-width: 1;" points="54.980078 284.400244, 53.43906 284.400244 53.43906 284.400244, 51.898804 284.400244 51.898804 284.400244, 50.358548 284.400244 50.358548 284.400244, 48.818546 284.400244 48.818546 284.400244, 48.818546 274.773136 48.818546 274.773136, 48.818546 265.145774 48.818546 265.145774, 48.818546 255.518412 48.818546 255.518412, 48.818546 245.89105 48.818546 245.89105, 50.358548 245.89105 50.358548 245.89105, 51.898804 245.89105 51.898804 245.89105, 53.43906 245.89105 53.43906 245.89105, 54.980078 245.89105 54.980078 245.89105, 54.980078 255.518412 54.980078 255.518412, 54.980078 265.145774 54.980078 265.145774, 54.980078 274.773136 54.980078 274.773136, 54.980078 284.400244 54.980078 284.400244, 54.980078 284.400244"/>
      </g>
      <g>
        <polyline style="fill: gray;stroke: black;stroke-width: 1;" points="341.756492 284.400244, 340.215474 284.400244 340.215474 284.400244, 338.674456 284.400244 338.674456 284.400244, 337.134962 284.400244 337.134962 284.400244, 335.593944 284.400244 335.593944 284.400244, 335.593944 274.773136 335.593944 274.773136, 335.593944 265.145774 335.593944 265.145774, 335.593944 255.518412 335.593944 255.518412, 335.593944 245.89105 335.593944 245.89105, 337.134962 245.89105 337.134962 245.89105, 338.674456 245.89105 338.674456 245.89105, 340.215474 245.89105 340.215474 245.89105, 341.756492 245.89105 341.756492 245.89105, 341.756492 255.518412 341.756492 255.518412, 341.756492 265.145774 341.756492 265.145774, 341.756492 274.773136 341.756492 274.773136, 341.756492 284.400244 341.756492 284.400244, 341.756492 284.400244"/>
      </g>
      <g>
        <polyline style="fill: gray;stroke: black;stroke-width: 1;" points="256.935224 496.615212, 267.100558 496.615212 267.100558 496.615212, 274.962112 496.001294 274.962112 496.001294, 281.594052 493.850422 281.594052 493.850422, 288.071306 489.241338 288.071306 489.241338, 299.298614 476.182436 299.298614 476.182436, 315.212222 455.442574 315.212222 455.442574, 329.436222 436.238396 329.436222 436.238396, 335.593944 427.78934 335.593944 427.78934, 335.593944 375.554494 335.593944 375.554494, 335.593944 323.32041 335.593944 323.32041, 335.593944 271.086326 335.593944 271.086326, 335.593944 218.851734 335.593944 218.851734, 334.570832 218.851734 334.570832 218.851734, 333.545942 218.851734 333.545942 218.851734, 332.521306 218.851734 332.521306 218.851734, 331.498194 218.851734 331.498194 218.851734, 325.557388 172.762926 325.557388 172.762926, 319.616582 126.67361 319.616582 126.67361, 313.67603 80.584802 313.67603 80.584802, 307.736748 34.495486 307.736748 34.495486, 301.386748 26.506678 301.386748 26.506678, 295.036748 18.518124 295.036748 18.518124, 288.686748 10.5283 288.686748 10.5283, 282.336748 2.54 282.336748 2.54, 273.732752 2.54 273.732752 2.54, 265.128502 2.54 265.128502 2.54, 256.52603 2.54 256.52603 2.54, 247.923304 2.54 247.923304 2.54, 221.605602 2.54 221.605602 2.54, 195.287138 2.54 195.287138 2.54, 168.969182 2.54 168.969182 2.54, 142.65148 2.54 142.65148 2.54, 134.047992 2.54 134.047992 2.54, 125.444758 2.54 125.444758 2.54, 116.841524 2.54 116.841524 2.54, 108.238798 2.54 108.238798 2.54, 101.888798 10.5283 101.888798 10.5283, 95.538798 18.518124 95.538798 18.518124, 89.188798 26.506678 89.188798 26.506678, 82.838798 34.495486 82.838798 34.495486, 76.897992 80.584802 76.897992 80.584802, 70.95744 126.67361 70.95744 126.67361, 65.016634 172.762926 65.016634 172.762926, 59.07659 218.851734 59.07659 218.851734, 58.051954 218.851734 58.051954 218.851734, 57.02808 218.851734 57.02808 218.851734, 56.003952 218.851734 56.003952 218.851734, 54.980078 218.851734 54.980078 218.851734, 54.980078 271.086326 54.980078 271.086326, 54.980078 323.32041 54.980078 323.32041, 54.980078 375.554494 54.980078 375.554494, 54.980078 427.78934 54.980078 427.78934, 61.138562 436.238396 61.138562 436.238396, 75.361038 455.442574 75.361038 455.442574, 91.274646 476.182436 91.274646 476.182436, 102.502716 489.241338 102.502716 489.241338, 108.981494 493.850422 108.981494 493.850422, 115.612672 496.001294 115.612672 496.001294, 123.473464 496.615212 123.473464 496.615212, 133.638798 496.615212 133.638798 496.615212, 164.46246 496.615212 164.46246 496.615212, 195.287138 496.615212 195.287138 496.615212, 226.1108 496.615212 226.1108 496.615212, 256.935224 496.615212 256.935224 496.615212, 256.935224 496.615212"/>
      </g>
      <g>
        <polyline style="fill: transparent;stroke: black;stroke-width: 1;" points="76.809854 81.267808, 136.102344 81.267808 136.102344 81.267808, 195.394834 81.267808 195.394834 81.267808, 254.687324 81.267808 254.687324 81.267808, 313.979814 81.267808"/>
      </g>
      <g>
        <polyline style="fill: transparent;stroke: black;stroke-width: 1;" points="335.593944 427.78934, 326.5805 435.573424 326.5805 435.573424, 317.568834 443.357254 317.568834 443.357254, 308.55539 451.140576 308.55539 451.140576, 299.541946 458.92466 299.541946 458.92466, 295.445942 444.585852 295.445942 444.585852, 291.348668 430.247298 291.348668 430.247298, 287.25114 415.90849 287.25114 415.90849, 283.15539 401.569936 283.15539 401.569936, 277.214584 399.905728 277.214584 399.905728, 260.828028 396.24381 260.828028 396.24381, 236.144308 392.582146 236.144308 392.582146, 205.316582 390.917938 205.316582 390.917938, 200.301352 390.917938 200.301352 390.917938, 195.287138 390.917938 195.287138 390.917938, 190.273432 390.917938 190.273432 390.917938, 185.258202 390.917938 185.258202 390.917938, 154.429714 392.582146 154.429714 392.582146, 129.746756 396.24381 129.746756 396.24381, 113.359438 399.905728 113.359438 399.905728, 107.418632 401.569936 107.418632 401.569936, 103.32212 415.90849 103.32212 415.90849, 99.225354 430.247298 99.225354 430.247298, 95.12808 444.585852 95.12808 444.585852, 91.031314 458.92466 91.031314 458.92466, 82.018632 451.140576 82.018632 451.140576, 73.006204 443.357254 73.006204 443.357254, 63.99276 435.573424 63.99276 435.573424, 54.980078 427.78934"/>
      </g>
      <g>
        <polyline style="fill: gray;stroke: black;stroke-width: 1;" points="257.274822 313.07913, 264.240264 313.07913 264.240264 313.07913, 271.204182 313.07913 271.204182 313.07913, 278.169624 313.07913 278.169624 313.07913, 285.133542 313.07913 285.133542 313.07913, 291.137848 288.664396 291.137848 288.664396, 298.754292 248.656856 298.754292 248.656856, 305.29657 207.880204 305.29657 207.880204, 308.074822 181.160928 308.074822 181.160928, 306.705762 153.814526 306.705762 153.814526, 303.261014 111.720122 303.261014 111.720122, 298.741846 70.546722 298.741846 70.546722, 294.146986 45.966126 294.146986 45.966126, 282.764738 33.855152 282.764738 33.855152, 263.317736 21.590762 263.317736 21.590762, 244.946678 12.091416 244.946678 12.091416, 236.790738 8.27532 236.790738 8.27532, 231.05618 8.27532 231.05618 8.27532, 225.320098 8.27532 225.320098 8.27532, 219.584016 8.27532 219.584016 8.27532, 213.849458 8.27532 213.849458 8.27532, 204.44841 8.27532 204.44841 8.27532, 195.0466 8.27532 195.0466 8.27532, 185.646568 8.27532 185.646568 8.27532, 176.24552 8.27532 176.24552 8.27532, 170.5102 8.27532 170.5102 8.27532, 164.774118 8.27532 164.774118 8.27532, 159.038798 8.27532 159.038798 8.27532, 153.303478 8.27532 153.303478 8.27532, 145.1483 12.091416 145.1483 12.091416, 126.77648 21.590762 126.77648 21.590762, 107.328716 33.855152 107.328716 33.855152, 95.947992 45.966126 95.947992 45.966126, 91.351608 70.546722 91.351608 70.546722, 86.83244 111.720122 86.83244 111.720122, 83.388454 153.814526 83.388454 153.814526, 82.018632 181.160928 82.018632 181.160928, 84.796884 207.880204 84.796884 207.880204, 91.339162 248.656856 91.339162 248.656856, 98.956368 288.664396 98.956368 288.664396, 104.960674 313.07913 104.960674 313.07913, 111.925354 313.07913 111.925354 313.07913, 118.889272 313.07913 118.889272 313.07913, 125.853952 313.07913 125.853952 313.07913, 132.818632 313.07913 132.818632 313.07913, 163.933124 313.07913 163.933124 313.07913, 195.0466 313.07913 195.0466 313.07913, 226.16033 313.07913 226.16033 313.07913, 257.274822 313.07913 257.274822 313.07913, 257.274822 313.07913"/>
      </g>
      <g>
        <polyline style="fill: gray;stroke: black;stroke-width: 1;" points="249.988324 374.531382, 222.129604 374.531382 222.129604 374.531382, 194.271646 374.531382 194.271646 374.531382, 166.413688 374.531382 166.413688 374.531382, 138.554714 374.531382 138.554714 374.531382, 138.554714 363.265212 138.554714 363.265212, 138.554714 351.998534 138.554714 351.998534, 138.554714 340.731856 138.554714 340.731856, 138.554714 329.465686 138.554714 329.465686, 166.413688 329.465686 166.413688 329.465686, 194.271646 329.465686 194.271646 329.465686, 222.129604 329.465686 222.129604 329.465686, 249.988324 329.465686 249.988324 329.465686, 249.988324 340.731856 249.988324 340.731856, 249.988324 351.998534 249.988324 351.998534, 249.988324 363.265212 249.988324 363.265212, 249.988324 374.531382 249.988324 374.531382, 249.988324 374.531382"/>
      </g>
    </g>
  </g>
</svg>
