<?xml version="1.0" encoding="utf-8"?>
<!-- Generator: SVG Export - SVG Version: 6.00 Build 1  -->
<!-- FXGUID: [C93742AE-50DC-11F0-AFEE-42010A37C004] SYMID: [32673]  -->
<svg xmlns="http://www.w3.org/2000/svg" version="1.1" ch_offset="0" color_bar_width="66" width="535.08148" height="696.29528" origin_x="261.78256" origin_y="378.06122" ch_offset_x="261.3856342" ch_offset_y="40" color_offset_x="261.78256" color_offset_y="-4">
  <g>
    <title>Layer 1</title>
    <g>
      <g>
        <polyline style="fill: transparent;stroke: black;stroke-width: 1;" points="451.35165 550.044112, 483.156006 521.89634 483.156006 521.89634, 514.960108 474.006926 514.960108 474.006926, 514.960108 377.496578 514.960108 377.496578, 514.960108 280.98623 514.960108 280.98623, 483.156006 233.096816 483.156006 233.096816, 451.35165 204.949044"/>
      </g>
      <g>
        <polyline style="fill: transparent;stroke: black;stroke-width: 1;" points="451.35165 474.006926, 475.112334 461.120998 475.112334 461.120998, 498.873526 443.298834 498.873526 443.298834, 498.873526 377.496578 498.873526 377.496578, 498.873526 311.69356 498.873526 311.69356, 475.112334 293.872158 475.112334 293.872158, 451.35165 280.98623"/>
      </g>
      <g>
        <polyline style="fill: transparent;stroke: black;stroke-width: 1;" points="70.426834 550.044112, 38.621716 521.89634 38.621716 521.89634, 6.81736 474.006926 6.81736 474.006926, 6.81736 377.496578 6.81736 377.496578, 6.81736 280.98623 6.81736 280.98623, 38.621716 233.096816 38.621716 233.096816, 70.426834 204.949044"/>
      </g>
      <g>
        <polyline style="fill: transparent;stroke: black;stroke-width: 1;" points="70.426834 474.006926, 46.665388 461.120998 46.665388 461.120998, 22.904196 443.298834 22.904196 443.298834, 22.904196 377.496578 22.904196 377.496578, 22.904196 311.69356 22.904196 311.69356, 46.665388 293.872158 46.665388 293.872158, 70.426834 280.98623"/>
      </g>
      <g>
        <polyline style="fill: gray;stroke: black;stroke-width: 1;" points="418.44976 179.360576, 437.985154 185.757058 437.985154 185.757058, 451.35165 192.152778 451.35165 192.152778, 451.35165 377.325382 451.35165 377.325382, 451.35165 562.497732 451.35165 562.497732, 437.985154 568.893452 437.985154 568.893452, 418.44976 575.289934 418.44976 575.289934, 260.888988 575.289934 260.888988 575.289934, 103.327962 575.289934 103.327962 575.289934, 83.792568 568.893452 83.792568 568.893452, 70.426834 562.497732 70.426834 562.497732, 70.426834 377.325382 70.426834 377.325382, 70.426834 192.152778 70.426834 192.152778, 83.792568 185.757058 83.792568 185.757058, 103.327962 179.360576 103.327962 179.360576, 260.888988 179.360576 260.888988 179.360576, 418.44976 179.360576 418.44976 179.360576, 418.44976 179.360576"/>
      </g>
      <g>
        <polyline style="fill: transparent;stroke: black;stroke-width: 1;" points="465.718906 296.642536, 420.935658 289.23996 420.935658 289.23996, 376.15241 281.837384 376.15241 281.837384, 262.46074 281.837384 262.46074 281.837384, 148.769324 281.837384 148.769324 281.837384, 103.986584 289.23996 103.986584 289.23996, 59.203336 296.642536"/>
      </g>
      <g>
        <polyline style="fill: transparent;stroke: black;stroke-width: 1;" points="465.718906 457.490068, 420.935658 464.892898 420.935658 464.892898, 376.15241 472.296236 376.15241 472.296236, 262.46074 472.296236 262.46074 472.296236, 148.769324 472.296236 148.769324 472.296236, 103.986584 464.892898 103.986584 464.892898, 59.203336 457.490068"/>
      </g>
      <g>
        <polyline style="fill: gray;stroke: black;stroke-width: 1;" points="59.203336 457.490068, 52.302918 457.490068 52.302918 457.490068, 39.647114 457.490068 39.647114 457.490068, 18.215864 448.85356 18.215864 448.85356, 2.54 426.233844 2.54 426.233844, 2.54 377.066302 2.54 377.066302, 2.54 327.897998 2.54 327.897998, 18.215864 305.279298 18.215864 305.279298, 39.647114 296.642536 39.647114 296.642536, 52.302918 296.642536 52.302918 296.642536, 59.203336 296.642536 59.203336 296.642536, 59.203336 377.066302 59.203336 377.066302, 59.203336 457.490068 59.203336 457.490068, 59.203336 457.490068"/>
      </g>
      <g>
        <polyline style="fill: gray;stroke: black;stroke-width: 1;" points="465.718906 457.490068, 472.618562 457.490068 472.618562 457.490068, 485.274366 457.490068 485.274366 457.490068, 506.705616 448.85356 506.705616 448.85356, 522.38148 426.233844 522.38148 426.233844, 522.38148 377.066302 522.38148 377.066302, 522.38148 327.897998 522.38148 327.897998, 506.705616 305.279298 506.705616 305.279298, 485.274366 296.642536 485.274366 296.642536, 472.618562 296.642536 472.618562 296.642536, 465.718906 296.642536 465.718906 296.642536, 465.718906 377.066302 465.718906 377.066302, 465.718906 457.490068 465.718906 457.490068, 465.718906 457.490068"/>
      </g>
      <g>
        <polyline style="fill: gray;stroke: black;stroke-width: 1;" points="67.977258 402.838412, 63.590678 402.838412 63.590678 402.838412, 59.203336 402.838412 59.203336 402.838412, 59.203336 377.066302 59.203336 377.066302, 59.203336 351.29343 59.203336 351.29343, 63.590678 351.29343 63.590678 351.29343, 67.977258 351.29343 67.977258 351.29343, 67.977258 377.066302 67.977258 377.066302, 67.977258 402.838412 67.977258 402.838412, 67.977258 402.838412"/>
      </g>
      <g>
        <polyline style="fill: gray;stroke: black;stroke-width: 1;" points="464.98637 402.838412, 460.599028 402.838412 460.599028 402.838412, 456.211686 402.838412 456.211686 402.838412, 456.211686 377.066302 456.211686 377.066302, 456.211686 351.29343 456.211686 351.29343, 460.599028 351.29343 460.599028 351.29343, 464.98637 351.29343 464.98637 351.29343, 464.98637 377.066302 464.98637 377.066302, 464.98637 402.838412 464.98637 402.838412, 464.98637 402.838412"/>
      </g>
      <g>
        <polyline style="fill: gray;stroke: black;stroke-width: 1;" points="347.63837 683.59528, 372.725442 683.59528 372.725442 683.59528, 403.569932 683.59528 403.569932 683.59528, 432.769772 639.72694 432.769772 639.72694, 456.211686 595.859108 456.211686 595.859108, 456.211686 441.771786 456.211686 441.771786, 456.211686 287.68421 456.211686 287.68421, 439.487056 157.998414 439.487056 157.998414, 417.827968 52.98948 417.827968 52.98948, 396.167356 43.66768 396.167356 43.66768, 379.442726 40.92448 379.442726 40.92448, 379.442726 21.73224 379.442726 21.73224, 379.442726 2.54 379.442726 2.54, 356.960424 2.54 356.960424 2.54, 334.478122 2.54 334.478122 2.54, 262.094726 2.54 262.094726 2.54, 189.711584 2.54 189.711584 2.54, 167.229282 2.54 167.229282 2.54, 144.74698 2.54 144.74698 2.54, 144.74698 21.73224 144.74698 21.73224, 144.74698 40.92448 144.74698 40.92448, 128.02235 43.66768 128.02235 43.66768, 106.361738 52.98948 106.361738 52.98948, 84.701888 157.998414 84.701888 157.998414, 67.977258 287.68421 67.977258 287.68421, 67.977258 441.771786 67.977258 441.771786, 67.977258 595.859108 67.977258 595.859108, 91.419172 639.72694 91.419172 639.72694, 120.619774 683.59528 120.619774 683.59528, 151.464264 683.59528 151.464264 683.59528, 176.551336 683.59528 176.551336 683.59528, 262.094726 683.59528 262.094726 683.59528, 347.63837 683.59528 347.63837 683.59528, 347.63837 683.59528"/>
      </g>
      <g>
        <polyline style="fill: transparent;stroke: black;stroke-width: 1;" points="144.74698 40.92448, 262.094726 40.92448 262.094726 40.92448, 379.442726 40.92448"/>
      </g>
      <g>
        <polyline style="fill: transparent;stroke: black;stroke-width: 1;" points="99.318826 79.21244, 261.705598 79.21244 261.705598 79.21244, 424.092624 79.21244"/>
      </g>
      <g>
        <polyline style="fill: gray;stroke: black;stroke-width: 1;" points="229.19309 672.6301, 225.903282 672.6301 225.903282 672.6301, 222.613474 672.6301 222.613474 672.6301, 222.613474 645.2108 222.613474 645.2108, 222.613474 617.793532 222.613474 617.793532, 225.903282 617.793532 225.903282 617.793532, 229.19309 617.793532 229.19309 617.793532, 229.19309 645.2108 229.19309 645.2108, 229.19309 672.6301 229.19309 672.6301, 229.19309 672.6301"/>
      </g>
      <g>
        <polyline style="fill: gray;stroke: black;stroke-width: 1;" points="183.132222 672.6301, 179.842414 672.6301 179.842414 672.6301, 176.551336 672.6301 176.551336 672.6301, 176.551336 645.2108 176.551336 645.2108, 176.551336 617.793532 176.551336 617.793532, 179.842414 617.793532 179.842414 617.793532, 183.132222 617.793532 183.132222 617.793532, 183.132222 645.2108 183.132222 645.2108, 183.132222 672.6301 183.132222 672.6301, 183.132222 672.6301"/>
      </g>
      <g>
        <polyline style="fill: gray;stroke: black;stroke-width: 1;" points="167.778176 672.6301, 164.488368 672.6301 164.488368 672.6301, 161.197036 672.6301 161.197036 672.6301, 161.197036 645.2108 161.197036 645.2108, 161.197036 617.793532 161.197036 617.793532, 164.488368 617.793532 164.488368 617.793532, 167.778176 617.793532 167.778176 617.793532, 167.778176 645.2108 167.778176 645.2108, 167.778176 672.6301 167.778176 672.6301, 167.778176 672.6301"/>
      </g>
      <g>
        <polyline style="fill: gray;stroke: black;stroke-width: 1;" points="198.486268 672.6301, 195.194936 672.6301 195.194936 672.6301, 191.905382 672.6301 191.905382 672.6301, 191.905382 645.2108 191.905382 645.2108, 191.905382 617.793532 191.905382 617.793532, 195.194936 617.793532 195.194936 617.793532, 198.486268 617.793532 198.486268 617.793532, 198.486268 645.2108 198.486268 645.2108, 198.486268 672.6301 198.486268 672.6301, 198.486268 672.6301"/>
      </g>
      <g>
        <polyline style="fill: gray;stroke: black;stroke-width: 1;" points="213.83879 672.6301, 210.549236 672.6301 210.549236 672.6301, 207.259428 672.6301 207.259428 672.6301, 207.259428 645.2108 207.259428 645.2108, 207.259428 617.793532 207.259428 617.793532, 210.549236 617.793532 210.549236 617.793532, 213.83879 617.793532 213.83879 617.793532, 213.83879 645.2108 213.83879 645.2108, 213.83879 672.6301 213.83879 672.6301, 213.83879 672.6301"/>
      </g>
      <g>
        <polyline style="fill: gray;stroke: black;stroke-width: 1;" points="305.963574 672.6301, 302.673766 672.6301 302.673766 672.6301, 299.382434 672.6301 299.382434 672.6301, 299.382434 645.2108 299.382434 645.2108, 299.382434 617.793532 299.382434 617.793532, 302.673766 617.793532 302.673766 617.793532, 305.963574 617.793532 305.963574 617.793532, 305.963574 645.2108 305.963574 645.2108, 305.963574 672.6301 305.963574 672.6301, 305.963574 672.6301"/>
      </g>
      <g>
        <polyline style="fill: gray;stroke: black;stroke-width: 1;" points="321.316096 672.6301, 318.026288 672.6301 318.026288 672.6301, 314.736734 672.6301 314.736734 672.6301, 314.736734 645.2108 314.736734 645.2108, 314.736734 617.793532 314.736734 617.793532, 318.026288 617.793532 318.026288 617.793532, 321.316096 617.793532 321.316096 617.793532, 321.316096 645.2108 321.316096 645.2108, 321.316096 672.6301 321.316096 672.6301, 321.316096 672.6301"/>
      </g>
      <g>
        <polyline style="fill: gray;stroke: black;stroke-width: 1;" points="336.670142 672.6301, 333.380334 672.6301 333.380334 672.6301, 330.09078 672.6301 330.09078 672.6301, 330.09078 645.2108 330.09078 645.2108, 330.09078 617.793532 330.09078 617.793532, 333.380334 617.793532 333.380334 617.793532, 336.670142 617.793532 336.670142 617.793532, 336.670142 645.2108 336.670142 645.2108, 336.670142 672.6301 336.670142 672.6301, 336.670142 672.6301"/>
      </g>
      <g>
        <polyline style="fill: gray;stroke: black;stroke-width: 1;" points="352.024188 672.6301, 348.734634 672.6301 348.734634 672.6301, 345.444826 672.6301 345.444826 672.6301, 345.444826 645.2108 345.444826 645.2108, 345.444826 617.793532 345.444826 617.793532, 348.734634 617.793532 348.734634 617.793532, 352.024188 617.793532 352.024188 617.793532, 352.024188 645.2108 352.024188 645.2108, 352.024188 672.6301 352.024188 672.6301, 352.024188 672.6301"/>
      </g>
      <g>
        <polyline style="fill: gray;stroke: black;stroke-width: 1;" points="367.378234 672.6301, 364.08868 672.6301 364.08868 672.6301, 360.798872 672.6301 360.798872 672.6301, 360.798872 645.2108 360.798872 645.2108, 360.798872 617.793532 360.798872 617.793532, 364.08868 617.793532 364.08868 617.793532, 367.378234 617.793532 367.378234 617.793532, 367.378234 645.2108 367.378234 645.2108, 367.378234 672.6301 367.378234 672.6301, 367.378234 672.6301"/>
      </g>
      <g>
        <polyline style="fill: gray;stroke: black;stroke-width: 1;" points="314.736734 485.092248, 262.642096 485.092248 262.642096 485.092248, 210.549236 485.092248 210.549236 485.092248, 210.549236 454.93305 210.549236 454.93305, 210.549236 424.772836 210.549236 424.772836, 262.642096 424.772836 262.642096 424.772836, 314.736734 424.772836 314.736734 424.772836, 314.736734 454.93305 314.736734 454.93305, 314.736734 485.092248 314.736734 485.092248, 314.736734 485.092248"/>
      </g>
      <g>
        <polyline style="fill: gray;stroke: black;stroke-width: 1;" points="244.547136 672.6301, 241.257328 672.6301 241.257328 672.6301, 237.96752 672.6301 237.96752 672.6301, 237.96752 645.2108 237.96752 645.2108, 237.96752 617.793532 237.96752 617.793532, 241.257328 617.793532 241.257328 617.793532, 244.547136 617.793532 244.547136 617.793532, 244.547136 645.2108 244.547136 645.2108, 244.547136 672.6301 244.547136 672.6301, 244.547136 672.6301"/>
      </g>
      <g>
        <polyline style="fill: gray;stroke: black;stroke-width: 1;" points="259.901182 672.6301, 256.611374 672.6301 256.611374 672.6301, 253.32182 672.6301 253.32182 672.6301, 253.32182 645.2108 253.32182 645.2108, 253.32182 617.793532 253.32182 617.793532, 256.611374 617.793532 256.611374 617.793532, 259.901182 617.793532 259.901182 617.793532, 259.901182 645.2108 259.901182 645.2108, 259.901182 672.6301 259.901182 672.6301, 259.901182 672.6301"/>
      </g>
      <g>
        <polyline style="fill: gray;stroke: black;stroke-width: 1;" points="275.255228 672.6301, 271.965674 672.6301 271.965674 672.6301, 268.675866 672.6301 268.675866 672.6301, 268.675866 645.2108 268.675866 645.2108, 268.675866 617.793532 268.675866 617.793532, 271.965674 617.793532 271.965674 617.793532, 275.255228 617.793532 275.255228 617.793532, 275.255228 645.2108 275.255228 645.2108, 275.255228 672.6301 275.255228 672.6301, 275.255228 672.6301"/>
      </g>
      <g>
        <polyline style="fill: gray;stroke: black;stroke-width: 1;" points="290.609274 672.6301, 287.31972 672.6301 287.31972 672.6301, 284.028388 672.6301 284.028388 672.6301, 284.028388 645.2108 284.028388 645.2108, 284.028388 617.793532 284.028388 617.793532, 287.31972 617.793532 287.31972 617.793532, 290.609274 617.793532 290.609274 617.793532, 290.609274 645.2108 290.609274 645.2108, 290.609274 672.6301 290.609274 672.6301, 290.609274 672.6301"/>
      </g>
    </g>
  </g>
</svg>
