<?xml version="1.0" encoding="utf-8"?>
<!-- Generator: www.crescit.com, SVG Export - SVG Version: 6.00 Build 1  -->
<!-- FXGUID: [C4037F23-7BA5-11ED-A8D1-525400685065] SYMID: [18453]  -->
<svg xmlns="http://www.w3.org/2000/svg" version="1.1" ch_offset="0" color_bar_width="66" width="480.24034" height="563.3466" origin_x="235.339128" origin_y="273.04746" ch_offset_x="237.0614766" ch_offset_y="40" color_offset_x="235.339128" color_offset_y="-4">
  <g>
    <title>Layer 1</title>
    <g>
      <g>
        <polyline style="fill: gray;stroke: black;stroke-width: 1;" points="34.934144 185.579766, 29.971492 186.005978 29.971492 186.005978, 25.679654 187.19038 25.679654 187.19038, 22.325584 188.994288 22.325584 188.994288, 20.17776 191.275462 20.17776 191.275462, 20.17776 191.2747 20.17776 191.2747, 20.17776 191.2747 20.17776 191.2747, 20.17776 191.273938 20.17776 191.273938, 20.17776 191.273938 20.17776 191.273938, 14.9352 204.21727 14.9352 204.21727, 11.856466 223.45269 11.856466 223.45269, 10.403078 247.08358 10.403078 247.08358, 10.037826 273.214592 10.037826 273.214592, 10.403078 299.344842 10.403078 299.344842, 11.856466 322.975986 11.856466 322.975986, 14.9352 342.211152 14.9352 342.211152, 20.17776 355.153976 20.17776 355.153976, 20.17776 355.153976 20.17776 355.153976, 20.17776 355.153976 20.17776 355.153976, 20.17776 355.153214 20.17776 355.153214, 20.17776 355.153214 20.17776 355.153214, 22.325584 357.434388 22.325584 357.434388, 25.679654 359.23728 25.679654 359.23728, 29.971492 360.421682 29.971492 360.421682, 34.934144 360.848148 34.934144 360.848148, 34.934144 317.03137 34.934144 317.03137, 34.934144 273.21383 34.934144 273.21383, 34.934144 229.397306 34.934144 229.397306, 34.934144 185.579766 34.934144 185.579766, 34.934144 185.579766"/>
      </g>
      <g>
        <polyline style="fill: gray;stroke: black;stroke-width: 1;" points="435.145434 185.579766, 440.107832 186.005978 440.107832 186.005978, 444.399924 187.19038 444.399924 187.19038, 447.753994 188.994288 447.753994 188.994288, 449.90258 191.275462 449.90258 191.275462, 449.90258 191.2747 449.90258 191.2747, 449.90258 191.2747 449.90258 191.2747, 449.90258 191.273938 449.90258 191.273938, 449.90258 191.273938 449.90258 191.273938, 455.144886 204.21727 455.144886 204.21727, 458.223874 223.45269 458.223874 223.45269, 459.6765 247.08358 459.6765 247.08358, 460.041498 273.214592 460.041498 273.214592, 459.6765 299.344842 459.6765 299.344842, 458.223874 322.975986 458.223874 322.975986, 455.144886 342.211152 455.144886 342.211152, 449.90258 355.153976 449.90258 355.153976, 449.90258 355.153976 449.90258 355.153976, 449.90258 355.153976 449.90258 355.153976, 449.90258 355.153214 449.90258 355.153214, 449.90258 355.153214 449.90258 355.153214, 447.753994 357.434388 447.753994 357.434388, 444.399924 359.23728 444.399924 359.23728, 440.107832 360.421682 440.107832 360.421682, 435.145434 360.848148 435.145434 360.848148, 435.145434 317.03137 435.145434 317.03137, 435.145434 273.21383 435.145434 273.21383, 435.145434 229.397306 435.145434 229.397306, 435.145434 185.579766 435.145434 185.579766, 435.145434 185.579766"/>
      </g>
      <g>
        <polyline style="fill: gray;stroke: black;stroke-width: 1;" points="353.199954 110.105952, 375.56059 110.105952 375.56059 110.105952, 397.921988 110.105952 397.921988 110.105952, 420.282624 110.105952 420.282624 110.105952, 442.644022 110.105952 442.644022 110.105952, 447.606674 110.89894 447.606674 110.89894, 451.898512 113.104168 451.898512 113.104168, 455.252582 116.460778 455.252582 116.460778, 457.40066 120.706896 457.40066 120.706896, 457.40066 120.706134 457.40066 120.706134, 457.40066 120.705372 457.40066 120.705372, 457.40066 120.70461 457.40066 120.70461, 457.40066 120.703848 457.40066 120.703848, 462.642966 144.795494 462.642966 144.795494, 465.7217 180.596286 465.7217 180.596286, 467.175088 224.578926 467.175088 224.578926, 467.54034 273.214592 467.54034 273.214592, 467.175088 321.850512 467.175088 321.850512, 465.7217 365.833152 465.7217 365.833152, 462.642966 401.634706 462.642966 401.634706, 457.40066 425.72559 457.40066 425.72559, 457.40066 425.724828 457.40066 425.724828, 457.40066 425.723304 457.40066 425.723304, 457.40066 425.722542 457.40066 425.722542, 457.40066 425.72178 457.40066 425.72178, 455.252582 429.967898 455.252582 429.967898, 451.898512 433.323492 451.898512 433.323492, 447.606674 435.52872 447.606674 435.52872, 442.644022 436.321708 442.644022 436.321708, 392.621516 436.321708 392.621516 436.321708, 342.598248 436.321708 342.598248 436.321708, 292.575742 436.321708 292.575742 436.321708, 242.553236 436.321708 242.553236 436.321708, 238.79683 436.321708 238.79683 436.321708, 235.039662 436.321708 235.039662 436.321708, 231.283256 436.321708 231.283256 436.321708, 227.526342 436.321708 227.526342 436.321708, 177.503582 436.321708 177.503582 436.321708, 127.481076 436.321708 127.481076 436.321708, 77.45857 436.321708 77.45857 436.321708, 27.436064 436.321708 27.436064 436.321708, 22.473666 435.52872 22.473666 435.52872, 18.181574 433.323492 18.181574 433.323492, 14.827504 429.967898 14.827504 429.967898, 12.678918 425.72178 12.678918 425.72178, 12.678918 425.722542 12.678918 425.722542, 12.678918 425.723304 12.678918 425.723304, 12.678918 425.724828 12.678918 425.724828, 12.678918 425.72559 12.678918 425.72559, 7.437374 401.634706 7.437374 401.634706, 4.357624 365.833152 4.357624 365.833152, 2.904998 321.850512 2.904998 321.850512, 2.54 273.214592 2.54 273.214592, 2.904998 224.578926 2.904998 224.578926, 4.357624 180.596286 4.357624 180.596286, 7.437374 144.795494 7.437374 144.795494, 12.678918 120.703848 12.678918 120.703848, 12.678918 120.70461 12.678918 120.70461, 12.678918 120.705372 12.678918 120.705372, 12.678918 120.706134 12.678918 120.706134, 12.678918 120.706896 12.678918 120.706896, 14.827504 116.460778 14.827504 116.460778, 18.181574 113.104168 18.181574 113.104168, 22.473666 110.89894 22.473666 110.89894, 27.436064 110.105952 27.436064 110.105952, 49.7967 110.105952 49.7967 110.105952, 72.158098 110.105952 72.158098 110.105952, 94.518734 110.105952 94.518734 110.105952, 116.880386 110.105952 116.880386 110.105952, 175.959516 110.105952 175.959516 110.105952, 235.039662 110.105952 235.039662 110.105952, 294.119808 110.105952 294.119808 110.105952, 353.199954 110.105952 353.199954 110.105952, 353.199954 110.105952"/>
      </g>
      <g>
        <polyline style="fill: gray;stroke: black;stroke-width: 1;" points="76.662534 326.537828, 76.662534 330.378562 76.662534 330.378562, 76.662534 334.220312 76.662534 334.220312, 76.662534 338.061046 76.662534 338.061046, 76.662534 341.902796 76.662534 341.902796, 71.079868 341.902796 71.079868 341.902796, 58.183018 341.902796 58.183018 341.902796, 43.750484 341.902796 43.750484 341.902796, 33.558226 341.902796 33.558226 341.902796, 28.74137 336.468974 28.74137 336.468974, 26.132282 322.63334 26.132282 322.63334, 25.060148 304.091848 25.060148 304.091848, 24.852376 284.542738 24.852376 284.542738, 24.852376 278.525224 24.852376 278.525224, 24.852376 272.50771 24.852376 272.50771, 24.852376 266.490958 24.852376 266.490958, 24.852376 260.473444 24.852376 260.473444, 25.060148 240.923572 25.060148 240.923572, 26.132282 222.382842 26.132282 222.382842, 28.74137 208.547208 28.74137 208.547208, 33.558226 203.113386 33.558226 203.113386, 43.750484 203.113386 43.750484 203.113386, 58.183018 203.113386 58.183018 203.113386, 71.079868 203.113386 71.079868 203.113386, 76.662534 203.113386 76.662534 203.113386, 76.662534 206.954374 76.662534 206.954374, 76.662534 210.79587 76.662534 210.79587, 76.662534 214.636858 76.662534 214.636858, 76.662534 218.478354 76.662534 218.478354, 76.662534 245.493032 76.662534 245.493032, 76.662534 272.50771 76.662534 272.50771, 76.662534 299.52315 76.662534 299.52315, 76.662534 326.537828 76.662534 326.537828, 76.662534 326.537828"/>
      </g>
      <g>
        <polyline style="fill: gray;stroke: black;stroke-width: 1;" points="397.962374 203.113386, 397.962374 237.810548 397.962374 237.810548, 397.962374 272.50771 397.962374 272.50771, 397.962374 307.205634 397.962374 307.205634, 397.962374 341.902796 397.962374 341.902796, 317.637668 341.902796 317.637668 341.902796, 237.312454 341.902796 237.312454 341.902796, 156.987748 341.902796 156.987748 341.902796, 76.662534 341.902796 76.662534 341.902796, 76.662534 307.205634 76.662534 307.205634, 76.662534 272.50771 76.662534 272.50771, 76.662534 237.810548 76.662534 237.810548, 76.662534 203.113386 76.662534 203.113386, 156.987748 203.113386 156.987748 203.113386, 237.312454 203.113386 237.312454 203.113386, 317.637668 203.113386 317.637668 203.113386, 397.962374 203.113386 397.962374 203.113386, 397.962374 203.113386"/>
      </g>
      <g>
        <polyline style="fill: gray;stroke: black;stroke-width: 1;" points="397.962374 326.537828, 397.962374 330.378562 397.962374 330.378562, 397.962374 334.220312 397.962374 334.220312, 397.962374 338.061046 397.962374 338.061046, 397.962374 341.902796 397.962374 341.902796, 403.544786 341.902796 403.544786 341.902796, 416.440874 341.902796 416.440874 341.902796, 430.874932 341.902796 430.874932 341.902796, 441.066682 341.902796 441.066682 341.902796, 445.884046 336.468974 445.884046 336.468974, 448.492626 322.63334 448.492626 322.63334, 449.564506 304.091848 449.564506 304.091848, 449.77304 284.542738 449.77304 284.542738, 449.77304 278.525224 449.77304 278.525224, 449.77304 272.50771 449.77304 272.50771, 449.77304 266.490958 449.77304 266.490958, 449.77304 260.473444 449.77304 260.473444, 449.564506 240.923572 449.564506 240.923572, 448.492626 222.382842 448.492626 222.382842, 445.884046 208.547208 445.884046 208.547208, 441.066682 203.113386 441.066682 203.113386, 430.874932 203.113386 430.874932 203.113386, 416.440874 203.113386 416.440874 203.113386, 403.544786 203.113386 403.544786 203.113386, 397.962374 203.113386 397.962374 203.113386, 397.962374 206.954374 397.962374 206.954374, 397.962374 210.79587 397.962374 210.79587, 397.962374 214.636858 397.962374 214.636858, 397.962374 218.478354 397.962374 218.478354, 397.962374 245.493032 397.962374 245.493032, 397.962374 272.50771 397.962374 272.50771, 397.962374 299.52315 397.962374 299.52315, 397.962374 326.537828 397.962374 326.537828, 397.962374 326.537828"/>
      </g>
      <g>
        <polyline style="fill: gray;stroke: black;stroke-width: 1;" points="391.656062 212.681058, 389.871712 195.968874 389.871712 195.968874, 384.850386 154.303984 384.850386 154.303984, 377.095766 100.391976 377.095766 100.391976, 367.10874 46.936152 367.10874 46.936152, 301.706534 46.936152 301.706534 46.936152, 236.304328 46.936152 236.304328 46.936152, 170.900598 46.936152 170.900598 46.936152, 105.498392 46.936152 105.498392 46.936152, 95.75165 100.391976 95.75165 100.391976, 88.524334 154.303984 88.524334 154.303984, 84.030058 195.968874 84.030058 195.968874, 82.484214 212.681058 82.484214 212.681058, 80.137254 214.157814 80.137254 214.157814, 78.076806 218.080844 78.076806 218.080844, 76.611734 226.835208 76.611734 226.835208, 76.053696 242.807236 76.053696 242.807236, 76.053696 248.732548 76.053696 248.732548, 76.053696 258.201668 76.053696 258.201668, 76.053696 273.461226 76.053696 273.461226, 76.053696 296.758868 76.053696 296.758868, 76.856844 318.332104 76.856844 318.332104, 79.011526 329.40117 79.011526 329.40117, 82.14487 333.688436 82.14487 333.688436, 85.877908 334.91551 85.877908 334.91551, 86.305644 350.396048 86.305644 350.396048, 87.432896 386.820156 87.432896 386.820156, 89.026492 429.163226 89.026492 429.163226, 90.852752 462.400904 90.852752 462.400904, 94.272608 483.968552 94.272608 483.968552, 99.662996 500.869712 99.662996 500.869712, 105.309162 512.426458 105.309162 512.426458, 109.502702 517.960102 109.502702 517.960102, 113.201704 520.71905 113.201704 520.71905, 117.865144 524.338804 117.865144 524.338804, 122.529854 528.72386 122.529854 528.72386, 126.228856 533.77846 126.228856 533.77846, 130.4163 538.4673 130.4163 538.4673, 136.25322 541.81756 136.25322 541.81756, 142.33017 543.8267 142.33017 543.8267, 147.241514 544.49472 147.241514 544.49472, 159.633158 545.52342 159.633158 545.52342, 182.999126 547.74846 182.999126 547.74846, 208.216246 549.87698 208.216246 549.87698, 226.152964 550.61866 226.152964 550.61866, 231.611678 550.61866 231.611678 550.61866, 237.070138 550.61866 237.070138 550.61866, 242.528852 550.61866 242.528852 550.61866, 247.987312 550.61866 247.987312 550.61866, 265.924284 549.87698 265.924284 549.87698, 291.141404 547.74846 291.141404 547.74846, 314.507372 545.52342 314.507372 545.52342, 326.898762 544.49472 326.898762 544.49472, 331.810106 543.8267 331.810106 543.8267, 337.88731 541.81756 337.88731 541.81756, 343.72423 538.4673 343.72423 538.4673, 347.91142 533.77846 347.91142 533.77846, 351.610422 528.72386 351.610422 528.72386, 356.275386 524.338804 356.275386 524.338804, 360.938572 520.71905 360.938572 520.71905, 364.637574 517.960102 364.637574 517.960102, 368.82959 512.426458 368.82959 512.426458, 374.47728 500.869712 374.47728 500.869712, 379.867668 483.968552 379.867668 483.968552, 383.287778 462.400904 383.287778 462.400904, 385.114038 429.163226 385.114038 429.163226, 386.707634 386.820156 386.707634 386.820156, 387.834632 350.396048 387.834632 350.396048, 388.262622 334.91551 388.262622 334.91551, 391.99566 333.688436 391.99566 333.688436, 395.12875 329.40117 395.12875 329.40117, 397.283686 318.332104 397.283686 318.332104, 398.086834 296.758868 398.086834 296.758868, 398.086834 273.461226 398.086834 273.461226, 398.086834 258.201668 398.086834 258.201668, 398.086834 248.732548 398.086834 248.732548, 398.086834 242.807236 398.086834 242.807236, 397.528542 226.835208 397.528542 226.835208, 396.063724 218.080844 396.063724 218.080844, 394.003276 214.157814 394.003276 214.157814, 391.656062 212.681058 391.656062 212.681058, 391.656062 212.681058"/>
      </g>
      <g>
        <polyline style="fill: transparent;stroke: black;stroke-width: 1;" points="115.584478 500.843296, 117.26037 498.307106 117.26037 498.307106, 123.119134 492.883444 123.119134 492.883444, 134.397496 487.844846 134.397496 487.844846, 152.33904 486.469944 152.33904 486.469944, 173.743874 487.770678 173.743874 487.770678, 194.336416 488.619292 194.336416 488.619292, 213.735158 489.08208 213.735158 489.08208, 231.563672 489.221526 231.563672 489.221526, 252.726698 488.8357 252.726698 488.8357, 278.549862 487.947208 278.549862 487.947208, 303.290986 486.96372 303.290986 486.96372, 321.200018 486.290112 321.200018 486.290112, 334.343248 488.037886 334.343248 488.037886, 346.90685 492.381032 346.90685 492.381032, 356.32644 496.819682 356.32644 496.819682, 360.036364 498.854476"/>
      </g>
      <g>
        <polyline style="fill: transparent;stroke: black;stroke-width: 1;" points="102.38232 61.868558, 169.348658 61.868558 169.348658 61.868558, 236.31525 61.868558 236.31525 61.868558, 303.281588 61.868558 303.281588 61.868558, 370.24818 61.868558"/>
      </g>
      <g>
        <polyline style="fill: transparent;stroke: black;stroke-width: 1;" points="143.663416 61.868558, 138.96467 126.470918 138.96467 126.470918, 128.628648 269.524988 128.628648 269.524988, 118.291356 414.900618 118.291356 414.900618, 113.592356 486.469944 113.592356 486.469944, 115.088416 498.41023 115.088416 498.41023, 118.378224 512.604766 118.378224 512.604766, 121.669556 524.476726 121.669556 524.476726, 123.165616 529.4503"/>
      </g>
      <g>
        <polyline style="fill: transparent;stroke: black;stroke-width: 1;" points="331.030326 61.868558, 335.385156 125.868684 335.385156 125.868684, 345.054428 268.318742 345.054428 268.318742, 354.939092 414.898332 354.939092 414.898332, 359.944924 491.28426 359.944924 491.28426, 359.031794 506.538484 359.031794 506.538484, 355.893878 518.62609 355.893878 518.62609, 352.539046 526.584418 352.539046 526.584418, 350.974914 529.4503"/>
      </g>
      <g>
        <polyline style="fill: transparent;stroke: black;stroke-width: 1;" points="120.106694 389.020812, 122.716036 392.557762 122.716036 392.557762, 129.870454 400.52625 129.870454 400.52625, 140.553694 408.962098 140.553694 408.962098, 153.755852 413.899858 153.755852 413.899858, 169.116248 415.340038 169.116248 415.340038, 186.92749 416.079686 186.92749 416.079686, 207.158844 416.352482 207.158844 416.352482, 229.777544 416.39109 229.777544 416.39109, 255.222502 416.099752 255.222502 416.099752, 281.126438 415.302192 281.126438 415.302192, 303.238408 414.11525 303.238408 414.11525, 317.307214 412.655766 317.307214 412.655766, 326.492616 410.248862 326.492616 410.248862, 336.161888 405.824436 336.161888 405.824436, 345.378278 398.906238 345.378278 398.906238, 353.202748 389.020812"/>
      </g>
      <g>
        <polyline style="fill: transparent;stroke: black;stroke-width: 1;" points="355.390196 46.936152, 352.923602 35.83686 352.923602 35.83686, 350.458786 24.73833 350.458786 24.73833, 347.992192 13.6398 347.992192 13.6398, 345.525598 2.54 345.525598 2.54, 291.023548 2.54 291.023548 2.54, 236.519974 2.54 236.519974 2.54, 182.01767 2.54 182.01767 2.54, 127.51562 2.54 127.51562 2.54, 125.049026 13.6398 125.049026 13.6398, 122.582686 24.73833 122.582686 24.73833, 120.116092 35.83686 120.116092 35.83686, 117.651022 46.936152"/>
      </g>
      <g>
        <polyline style="fill: gray;stroke: black;stroke-width: 1;" points="128.628648 503.772678, 128.628648 512.052062 128.628648 512.052062, 128.628648 520.331446 128.628648 520.331446, 128.628648 528.60956 128.628648 528.60956, 128.628648 536.88996 128.628648 536.88996, 130.056636 538.16504 130.056636 538.16504, 131.633214 539.32074 131.633214 539.32074, 133.327648 540.36214 133.327648 540.36214, 135.104378 541.2867 135.104378 541.2867, 135.104378 531.90902 135.104378 531.90902, 135.104378 522.529562 135.104378 522.529562, 135.104378 513.15112 135.104378 513.15112, 135.104378 503.772678 135.104378 503.772678, 133.48589 503.772678 133.48589 503.772678, 131.865878 503.772678 131.865878 503.772678, 130.24739 503.772678 130.24739 503.772678, 128.628648 503.772678 128.628648 503.772678, 128.628648 503.772678"/>
      </g>
      <g>
        <polyline style="fill: gray;stroke: black;stroke-width: 1;" points="161.012886 503.772678, 161.012886 514.24332 161.012886 514.24332, 161.012886 524.713962 161.012886 524.713962, 161.012886 535.18562 161.012886 535.18562, 161.012886 545.6555 161.012886 545.6555, 162.553904 545.80282 162.553904 545.80282, 164.149024 545.95776 164.149024 545.95776, 165.795452 546.11524 165.795452 546.11524, 167.489886 546.2778 167.489886 546.2778, 167.489886 535.65298 167.489886 535.65298, 167.489886 525.02562 167.489886 525.02562, 167.489886 514.399276 167.489886 514.399276, 167.489886 503.772678 167.489886 503.772678, 165.869874 503.772678 165.869874 503.772678, 164.251386 503.772678 164.251386 503.772678, 162.631374 503.772678 162.631374 503.772678, 161.012886 503.772678 161.012886 503.772678, 161.012886 503.772678"/>
      </g>
      <g>
        <polyline style="fill: gray;stroke: black;stroke-width: 1;" points="177.895504 503.772678, 177.895504 514.64718 177.895504 514.64718, 177.895504 525.521682 177.895504 525.521682, 177.895504 536.3972 177.895504 536.3972, 177.895504 547.27094 177.895504 547.27094, 179.498498 547.42334 179.498498 547.42334, 181.113938 547.5732 181.113938 547.5732, 182.738522 547.7256 182.738522 547.7256, 184.372758 547.878 184.372758 547.878, 184.372758 536.85186 184.372758 536.85186, 184.372758 525.823942 184.372758 525.823942, 184.372758 514.79831 184.372758 514.79831, 184.372758 503.772678 184.372758 503.772678, 182.752492 503.772678 182.752492 503.772678, 181.134004 503.772678 181.134004 503.772678, 179.513992 503.772678 179.513992 503.772678, 177.895504 503.772678 177.895504 503.772678, 177.895504 503.772678"/>
      </g>
      <g>
        <polyline style="fill: gray;stroke: black;stroke-width: 1;" points="193.091562 503.772678, 193.091562 514.993636 193.091562 514.993636, 193.091562 526.21561 193.091562 526.21561, 193.091562 537.4386 193.091562 537.4386, 193.091562 548.66032 193.091562 548.66032, 194.727068 548.80256 194.727068 548.80256, 196.351652 548.93972 196.351652 548.93972, 197.967092 549.07688 197.967092 549.07688, 199.567038 549.20896 199.567038 549.20896, 199.567038 537.85008 199.567038 537.85008, 199.567038 526.490692 199.567038 526.490692, 199.567038 515.131558 199.567038 515.131558, 199.567038 503.772678 199.567038 503.772678, 197.94855 503.772678 197.94855 503.772678, 196.328538 503.772678 196.328538 503.772678, 194.71005 503.772678 194.71005 503.772678, 193.091562 503.772678 193.091562 503.772678, 193.091562 503.772678"/>
      </g>
      <g>
        <polyline style="fill: gray;stroke: black;stroke-width: 1;" points="209.206846 503.772678, 209.206846 515.316216 209.206846 515.316216, 209.206846 526.859754 209.206846 526.859754, 209.206846 538.4038 209.206846 538.4038, 209.206846 549.9481 209.206846 549.9481, 210.90128 550.0624 210.90128 550.0624, 212.549232 550.16908 212.549232 550.16908, 214.144606 550.26814 214.144606 550.26814, 215.683846 550.35704 215.683846 550.35704, 215.683846 538.71114 215.683846 538.71114, 215.683846 527.06524 215.683846 527.06524, 215.683846 515.418578 215.683846 515.418578, 215.683846 503.772678 215.683846 503.772678, 214.063834 503.772678 214.063834 503.772678, 212.445346 503.772678 212.445346 503.772678, 210.826858 503.772678 210.826858 503.772678, 209.206846 503.772678 209.206846 503.772678, 209.206846 503.772678"/>
      </g>
      <g>
        <polyline style="fill: gray;stroke: black;stroke-width: 1;" points="224.861628 503.772678, 224.861628 515.489698 224.861628 515.489698, 224.861628 527.20748 224.861628 527.20748, 224.861628 538.9245 224.861628 538.9245, 224.861628 550.64406 224.861628 550.64406, 225.201226 550.64152 225.201226 550.64152, 225.529902 550.63644 225.529902 550.63644, 225.84918 550.62882 225.84918 550.62882, 226.152964 550.61866 226.152964 550.61866, 227.45065 550.61866 227.45065 550.61866, 228.746812 550.61866 228.746812 550.61866, 230.04272 550.61866 230.04272 550.61866, 231.338882 550.61866 231.338882 550.61866, 231.338882 538.90672 231.338882 538.90672, 231.338882 527.19478 231.338882 527.19478, 231.338882 515.484364 231.338882 515.484364, 231.338882 503.772678 231.338882 503.772678, 229.720394 503.772678 229.720394 503.772678, 228.100128 503.772678 228.100128 503.772678, 226.48164 503.772678 226.48164 503.772678, 224.861628 503.772678 224.861628 503.772678, 224.861628 503.772678"/>
      </g>
      <g>
        <polyline style="fill: gray;stroke: black;stroke-width: 1;" points="240.67008 503.772678, 240.67008 515.484364 240.67008 515.484364, 240.67008 527.19478 240.67008 527.19478, 240.67008 538.90672 240.67008 538.90672, 240.67008 550.61866 240.67008 550.61866, 242.290092 550.61866 242.290092 550.61866, 243.90858 550.61866 243.90858 550.61866, 245.528592 550.61866 245.528592 550.61866, 247.14708 550.61866 247.14708 550.61866, 247.14708 538.90672 247.14708 538.90672, 247.14708 527.19478 247.14708 527.19478, 247.14708 515.484364 247.14708 515.484364, 247.14708 503.772678 247.14708 503.772678, 245.528592 503.772678 245.528592 503.772678, 243.90858 503.772678 243.90858 503.772678, 242.290092 503.772678 242.290092 503.772678, 240.67008 503.772678 240.67008 503.772678, 240.67008 503.772678"/>
      </g>
      <g>
        <polyline style="fill: gray;stroke: black;stroke-width: 1;" points="256.634996 503.772678, 256.634996 515.441692 256.634996 515.441692, 256.634996 527.11096 256.634996 527.11096, 256.634996 538.77972 256.634996 538.77972, 256.634996 550.44848 256.634996 550.44848, 258.16052 550.37228 258.16052 550.37228, 259.752592 550.28338 259.752592 550.28338, 261.403592 550.18178 261.403592 550.18178, 263.111996 550.07256 263.111996 550.07256, 263.111996 538.49778 263.111996 538.49778, 263.111996 526.922492 263.111996 526.922492, 263.111996 515.347204 263.111996 515.347204, 263.111996 503.772678 263.111996 503.772678, 261.491984 503.772678 261.491984 503.772678, 259.873496 503.772678 259.873496 503.772678, 258.253484 503.772678 258.253484 503.772678, 256.634996 503.772678 256.634996 503.772678, 256.634996 503.772678"/>
      </g>
      <g>
        <polyline style="fill: gray;stroke: black;stroke-width: 1;" points="272.751804 503.772678, 272.751804 515.168896 272.751804 515.168896, 272.751804 526.565114 272.751804 526.565114, 272.751804 537.96184 272.751804 537.96184, 272.751804 549.35882 272.751804 549.35882, 274.346924 549.22928 274.346924 549.22928, 275.96084 549.09466 275.96084 549.09466, 277.588726 548.9575 277.588726 548.9575, 279.22728 548.81526 279.22728 548.81526, 279.22728 537.55544 279.22728 537.55544, 279.22728 526.294604 279.22728 526.294604, 279.22728 515.03326 279.22728 515.03326, 279.22728 503.772678 279.22728 503.772678, 277.608792 503.772678 277.608792 503.772678, 275.98878 503.772678 275.98878 503.772678, 274.370292 503.772678 274.370292 503.772678, 272.751804 503.772678 272.751804 503.772678, 272.751804 503.772678"/>
      </g>
      <g>
        <polyline style="fill: gray;stroke: black;stroke-width: 1;" points="288.867088 503.772678, 288.867088 514.81863 288.867088 514.81863, 288.867088 525.86509 288.867088 525.86509, 288.867088 536.91282 288.867088 536.91282, 288.867088 547.95928 288.867088 547.95928, 290.498022 547.80688 290.498022 547.80688, 292.122606 547.65702 292.122606 547.65702, 293.73957 547.50716 293.73957 547.50716, 295.344088 547.3573 295.344088 547.3573, 295.344088 536.4607 295.344088 536.4607, 295.344088 525.564354 295.344088 525.564354, 295.344088 514.668262 295.344088 514.668262, 295.344088 503.772678 295.344088 503.772678, 293.724076 503.772678 293.724076 503.772678, 292.105588 503.772678 292.105588 503.772678, 290.4871 503.772678 290.4871 503.772678, 288.867088 503.772678 288.867088 503.772678, 288.867088 503.772678"/>
      </g>
      <g>
        <polyline style="fill: gray;stroke: black;stroke-width: 1;" points="304.828956 503.772678, 304.828956 514.442456 304.828956 514.442456, 304.828956 525.112488 304.828956 525.112488, 304.828956 535.78252 304.828956 535.78252, 304.828956 546.45306 304.828956 546.45306, 306.512468 546.2905 306.512468 546.2905, 308.154324 546.13302 308.154324 546.13302, 309.752746 545.97808 309.752746 545.97808, 311.305956 545.83076 311.305956 545.83076, 311.305956 535.31516 311.305956 535.31516, 311.305956 524.80083 311.305956 524.80083, 311.305956 514.286754 311.305956 514.286754, 311.305956 503.772678 311.305956 503.772678, 309.687468 503.772678 309.687468 503.772678, 308.067456 503.772678 308.067456 503.772678, 306.448968 503.772678 306.448968 503.772678, 304.828956 503.772678 304.828956 503.772678, 304.828956 503.772678"/>
      </g>
      <g>
        <polyline style="fill: gray;stroke: black;stroke-width: 1;" points="320.483738 503.772678, 320.483738 514.072124 320.483738 514.072124, 320.483738 524.371316 320.483738 524.371316, 320.483738 534.67 320.483738 534.67, 320.483738 544.9697 320.483738 544.9697, 322.755006 544.77158 322.755006 544.77158, 324.607428 544.62172 324.607428 544.62172, 326.002904 544.52774 326.002904 544.52774, 326.898762 544.49472 326.898762 544.49472, 326.912732 544.49472 326.912732 544.49472, 326.92975 544.49472 326.92975 544.49472, 326.945244 544.49218 326.945244 544.49218, 326.960992 544.49218 326.960992 544.49218, 326.960992 534.3144 326.960992 534.3144, 326.960992 524.132556 326.960992 524.132556, 326.960992 513.952744 326.960992 513.952744, 326.960992 503.772678 326.960992 503.772678, 325.34225 503.772678 325.34225 503.772678, 323.722238 503.772678 323.722238 503.772678, 322.10375 503.772678 322.10375 503.772678, 320.483738 503.772678 320.483738 503.772678, 320.483738 503.772678"/>
      </g>
      <g>
        <polyline style="fill: gray;stroke: black;stroke-width: 1;" points="336.907632 503.772678, 336.907632 513.383022 336.907632 513.383022, 336.907632 522.993874 336.907632 522.993874, 336.907632 532.60498 336.907632 532.60498, 336.907632 542.21634 336.907632 542.21634, 338.600542 541.4899 338.600542 541.4899, 340.263988 540.66186 340.263988 540.66186, 341.866982 539.7373 341.866982 539.7373, 343.384632 538.7086 343.384632 538.7086, 343.384632 529.97354 343.384632 529.97354, 343.384632 521.240512 343.384632 521.240512, 343.384632 512.506214 343.384632 512.506214, 343.384632 503.772678 343.384632 503.772678, 341.76462 503.772678 341.76462 503.772678, 340.146132 503.772678 340.146132 503.772678, 338.52612 503.772678 338.52612 503.772678, 336.907632 503.772678 336.907632 503.772678, 336.907632 503.772678"/>
      </g>
      <g>
        <polyline style="fill: gray;stroke: black;stroke-width: 1;" points="328.649076 507.790196, 328.649076 516.937752 328.649076 516.937752, 328.649076 526.085308 328.649076 526.085308, 328.649076 535.23388 328.649076 535.23388, 328.649076 544.38042 328.649076 544.38042, 330.103226 544.1696 330.103226 544.1696, 331.689202 543.84956 331.689202 543.84956, 333.372968 543.41522 333.372968 543.41522, 335.12633 542.87166 335.12633 542.87166, 335.12633 534.10104 335.12633 534.10104, 335.12633 525.331182 335.12633 525.331182, 335.12633 516.560308 335.12633 516.560308, 335.12633 507.790196 335.12633 507.790196, 333.507842 507.790196 333.507842 507.790196, 331.88783 507.790196 331.88783 507.790196, 330.269088 507.790196 330.269088 507.790196, 328.649076 507.790196 328.649076 507.790196, 328.649076 507.790196"/>
      </g>
      <g>
        <polyline style="fill: gray;stroke: black;stroke-width: 1;" points="312.687208 507.790196, 312.687208 517.26719 312.687208 517.26719, 312.687208 526.744184 312.687208 526.744184, 312.687208 536.22194 312.687208 536.22194, 312.687208 545.69868 312.687208 545.69868, 314.439046 545.53104 314.439046 545.53104, 316.107318 545.37356 316.107318 545.37356, 317.683896 545.22624 317.683896 545.22624, 319.162938 545.09162 319.162938 545.09162, 319.162938 535.76474 319.162938 535.76474, 319.162938 526.4404 319.162938 526.4404, 319.162938 517.115298 319.162938 517.115298, 319.162938 507.790196 319.162938 507.790196, 317.54445 507.790196 317.54445 507.790196, 315.925962 507.790196 315.925962 507.790196, 314.30595 507.790196 314.30595 507.790196, 312.687208 507.790196 312.687208 507.790196, 312.687208 507.790196"/>
      </g>
      <g>
        <polyline style="fill: gray;stroke: black;stroke-width: 1;" points="296.725594 507.790196, 296.725594 517.64946 296.725594 517.64946, 296.725594 527.50974 296.725594 527.50974, 296.725594 537.36748 296.725594 537.36748, 296.725594 547.22522 296.725594 547.22522, 298.37507 547.07028 298.37507 547.07028, 300.007528 546.91534 300.007528 546.91534, 301.616618 546.7604 301.616618 546.7604, 303.202594 546.608 303.202594 546.608, 303.202594 536.9052 303.202594 536.9052, 303.202594 527.19986 303.202594 527.19986, 303.202594 517.495028 303.202594 517.495028, 303.202594 507.790196 303.202594 507.790196, 301.582582 507.790196 301.582582 507.790196, 299.96257 507.790196 299.96257 507.790196, 298.344082 507.790196 298.344082 507.790196, 296.725594 507.790196 296.725594 507.790196, 296.725594 507.790196"/>
      </g>
      <g>
        <polyline style="fill: gray;stroke: black;stroke-width: 1;" points="280.455116 507.790196, 280.455116 518.020554 280.455116 518.020554, 280.455116 528.24888 280.455116 528.24888, 280.455116 538.48 280.455116 538.48, 280.455116 548.71112 280.455116 548.71112, 282.069032 548.56888 282.069032 548.56888, 283.68752 548.42664 283.68752 548.42664, 285.309056 548.28186 285.309056 548.28186, 286.93237 548.13454 286.93237 548.13454, 286.93237 538.05074 286.93237 538.05074, 286.93237 527.9644 286.93237 527.9644, 286.93237 517.876536 286.93237 517.876536, 286.93237 507.790196 286.93237 507.790196, 285.313882 507.790196 285.313882 507.790196, 283.69387 507.790196 283.69387 507.790196, 282.075128 507.790196 282.075128 507.790196, 280.455116 507.790196 280.455116 507.790196, 280.455116 507.790196"/>
      </g>
      <g>
        <polyline style="fill: gray;stroke: black;stroke-width: 1;" points="264.47623 507.790196, 264.47623 518.3378 264.47623 518.3378, 264.47623 528.88388 264.47623 528.88388, 264.47623 539.4325 264.47623 539.4325, 264.47623 549.98112 264.47623 549.98112, 266.046712 549.86936 266.046712 549.86936, 267.652754 549.75252 267.652754 549.75252, 269.288514 549.62806 269.288514 549.62806, 270.953484 549.50106 270.953484 549.50106, 270.953484 539.07182 270.953484 539.07182, 270.953484 528.64512 270.953484 528.64512, 270.953484 518.217658 270.953484 518.217658, 270.953484 507.790196 270.953484 507.790196, 269.333472 507.790196 269.333472 507.790196, 267.714984 507.790196 267.714984 507.790196, 266.094718 507.790196 266.094718 507.790196, 264.47623 507.790196 264.47623 507.790196, 264.47623 507.790196"/>
      </g>
      <g>
        <polyline style="fill: gray;stroke: black;stroke-width: 1;" points="248.512838 507.790196, 248.512838 518.50036 248.512838 518.50036, 248.512838 529.21154 248.512838 529.21154, 248.512838 539.92272 248.512838 539.92272, 248.512838 550.6339 248.512838 550.6339, 249.884946 550.6466 249.884946 550.6466, 251.430536 550.63136 251.430536 550.63136, 253.134368 550.59072 253.134368 550.59072, 254.990092 550.52214 254.990092 550.52214, 254.990092 539.8389 254.990092 539.8389, 254.990092 529.15566 254.990092 529.15566, 254.990092 518.473436 254.990092 518.473436, 254.990092 507.790196 254.990092 507.790196, 253.371604 507.790196 253.371604 507.790196, 251.751592 507.790196 251.751592 507.790196, 250.133104 507.790196 250.133104 507.790196, 248.512838 507.790196 248.512838 507.790196, 248.512838 507.790196"/>
      </g>
      <g>
        <polyline style="fill: gray;stroke: black;stroke-width: 1;" points="232.701592 507.790196, 232.701592 518.497312 232.701592 518.497312, 232.701592 529.20392 232.701592 529.20392, 232.701592 539.91256 232.701592 539.91256, 232.701592 550.61866 232.701592 550.61866, 234.321604 550.61866 234.321604 550.61866, 235.941616 550.61866 235.941616 550.61866, 237.560104 550.61866 237.560104 550.61866, 239.178592 550.61866 239.178592 550.61866, 239.178592 539.91256 239.178592 539.91256, 239.178592 529.20392 239.178592 529.20392, 239.178592 518.497312 239.178592 518.497312, 239.178592 507.790196 239.178592 507.790196, 237.560104 507.790196 237.560104 507.790196, 235.941616 507.790196 235.941616 507.790196, 234.321604 507.790196 234.321604 507.790196, 232.701592 507.790196 232.701592 507.790196, 232.701592 507.790196"/>
      </g>
      <g>
        <polyline style="fill: gray;stroke: black;stroke-width: 1;" points="216.89314 507.790196, 216.89314 518.447782 216.89314 518.447782, 216.89314 529.10486 216.89314 529.10486, 216.89314 539.7627 216.89314 539.7627, 216.89314 550.42054 216.89314 550.42054, 218.679014 550.50436 218.679014 550.50436, 220.359732 550.5704 220.359732 550.5704, 221.925388 550.61612 221.925388 550.61612, 223.368616 550.64152 223.368616 550.64152, 223.368616 539.9278 223.368616 539.9278, 223.368616 529.21662 223.368616 529.21662, 223.368616 518.5029 223.368616 518.5029, 223.368616 507.790196 223.368616 507.790196, 221.750128 507.790196 221.750128 507.790196, 220.13164 507.790196 220.13164 507.790196, 218.511628 507.790196 218.511628 507.790196, 216.89314 507.790196 216.89314 507.790196, 216.89314 507.790196"/>
      </g>
      <g>
        <polyline style="fill: gray;stroke: black;stroke-width: 1;" points="201.083164 507.790196, 201.083164 518.17651 201.083164 518.17651, 201.083164 528.5613 201.083164 528.5613, 201.083164 538.94736 201.083164 538.94736, 201.083164 549.33342 201.083164 549.33342, 202.740514 549.4655 202.740514 549.4655, 204.372972 549.5925 204.372972 549.5925, 205.980538 549.71442 205.980538 549.71442, 207.560418 549.83126 207.560418 549.83126, 207.560418 539.32074 207.560418 539.32074, 207.560418 528.81022 207.560418 528.81022, 207.560418 518.300462 207.560418 518.300462, 207.560418 507.790196 207.560418 507.790196, 205.940406 507.790196 205.940406 507.790196, 204.321918 507.790196 204.321918 507.790196, 202.701652 507.790196 202.701652 507.790196, 201.083164 507.790196 201.083164 507.790196, 201.083164 507.790196"/>
      </g>
      <g>
        <polyline style="fill: gray;stroke: black;stroke-width: 1;" points="185.426858 507.790196, 185.426858 517.83615 185.426858 517.83615, 185.426858 527.88058 185.426858 527.88058, 185.426858 537.92628 185.426858 537.92628, 185.426858 547.97198 185.426858 547.97198, 187.045346 548.1193 187.045346 548.1193, 188.666882 548.26662 188.666882 548.26662, 190.286894 548.4114 190.286894 548.4114, 191.903858 548.55618 191.903858 548.55618, 191.903858 538.36316 191.903858 538.36316, 191.903858 528.17268 191.903858 528.17268, 191.903858 517.981184 191.903858 517.981184, 191.903858 507.790196 191.903858 507.790196, 190.283846 507.790196 190.283846 507.790196, 188.665358 507.790196 188.665358 507.790196, 187.045346 507.790196 187.045346 507.790196, 185.426858 507.790196 185.426858 507.790196, 185.426858 507.790196"/>
      </g>
      <g>
        <polyline style="fill: gray;stroke: black;stroke-width: 1;" points="169.31005 507.790196, 169.31005 517.45642 169.31005 517.45642, 169.31005 527.12112 169.31005 527.12112, 169.31005 536.78836 169.31005 536.78836, 169.31005 546.45306 169.31005 546.45306, 170.889676 546.60546 170.889676 546.60546, 172.49902 546.75786 172.49902 546.75786, 174.131478 546.91534 174.131478 546.91534, 175.78705 547.07282 175.78705 547.07282, 175.78705 537.25064 175.78705 537.25064, 175.78705 527.431 175.78705 527.431, 175.78705 517.610598 175.78705 517.610598, 175.78705 507.790196 175.78705 507.790196, 174.167038 507.790196 174.167038 507.790196, 172.54855 507.790196 172.54855 507.790196, 170.930062 507.790196 170.930062 507.790196, 169.31005 507.790196 169.31005 507.790196, 169.31005 507.790196"/>
      </g>
      <g>
        <polyline style="fill: gray;stroke: black;stroke-width: 1;" points="153.194766 507.790196, 153.194766 517.07415 153.194766 517.07415, 153.194766 526.358866 153.194766 526.358866, 153.194766 535.64282 153.194766 535.64282, 153.194766 544.92652 153.194766 544.92652, 154.641042 545.0586 154.641042 545.0586, 156.206952 545.20338 156.206952 545.20338, 157.885892 545.35832 157.885892 545.35832, 159.671766 545.5285 159.671766 545.5285, 159.671766 536.0924 159.671766 536.0924, 159.671766 526.65884 159.671766 526.65884, 159.671766 517.224518 159.671766 517.224518, 159.671766 507.790196 159.671766 507.790196, 158.053278 507.790196 158.053278 507.790196, 156.433266 507.790196 156.433266 507.790196, 154.814778 507.790196 154.814778 507.790196, 153.194766 507.790196 153.194766 507.790196, 153.194766 507.790196"/>
      </g>
      <g>
        <polyline style="fill: gray;stroke: black;stroke-width: 1;" points="136.46404 507.790196, 136.46404 516.3185 136.46404 516.3185, 136.46404 524.84655 136.46404 524.84655, 136.46404 533.3746 136.46404 533.3746, 136.46404 541.90138 136.46404 541.90138, 138.132058 542.56178 138.132058 542.56178, 139.784582 543.12312 139.784582 543.12312, 141.39545 543.5854 141.39545 543.5854, 142.94104 543.95624 142.94104 543.95624, 142.94104 534.91384 142.94104 534.91384, 142.94104 525.872964 142.94104 525.872964, 142.94104 516.83158 142.94104 516.83158, 142.94104 507.790196 142.94104 507.790196, 141.322552 507.790196 141.322552 507.790196, 139.70254 507.790196 139.70254 507.790196, 138.084052 507.790196 138.084052 507.790196, 136.46404 507.790196 136.46404 507.790196, 136.46404 507.790196"/>
      </g>
      <g>
        <polyline style="fill: gray;stroke: black;stroke-width: 1;" points="158.189676 383.030476, 161.743136 304.099722 161.743136 304.099722, 165.296342 225.168714 165.296342 225.168714, 168.849548 146.238722 168.849548 146.238722, 172.402754 67.307714 172.402754 67.307714, 173.360842 67.307714 173.360842 67.307714, 174.317406 67.307714 174.317406 67.307714, 175.27397 67.307714 175.27397 67.307714, 176.230534 67.307714 176.230534 67.307714, 172.7454 146.238722 172.7454 146.238722, 169.26052 225.168714 169.26052 225.168714, 165.773862 304.099722 165.773862 304.099722, 162.288728 383.030476 162.288728 383.030476, 161.264092 383.030476 161.264092 383.030476, 160.239202 383.030476 160.239202 383.030476, 159.214566 383.030476 159.214566 383.030476, 158.189676 383.030476 158.189676 383.030476, 158.189676 383.030476"/>
      </g>
      <g>
        <polyline style="fill: gray;stroke: black;stroke-width: 1;" points="141.719554 383.030476, 146.092926 304.099722 146.092926 304.099722, 150.466298 225.168714 150.466298 225.168714, 154.83967 146.238722 154.83967 146.238722, 159.213042 67.307714 159.213042 67.307714, 160.17113 67.307714 160.17113 67.307714, 161.12744 67.307714 161.12744 67.307714, 162.084004 67.307714 162.084004 67.307714, 163.040568 67.307714 163.040568 67.307714, 158.735522 146.238722 158.735522 146.238722, 154.428698 225.168714 154.428698 225.168714, 150.123652 304.099722 150.123652 304.099722, 145.818352 383.030476 145.818352 383.030476, 144.793716 383.030476 144.793716 383.030476, 143.768826 383.030476 143.768826 383.030476, 142.74419 383.030476 142.74419 383.030476, 141.719554 383.030476 141.719554 383.030476, 141.719554 383.030476"/>
      </g>
      <g>
        <polyline style="fill: gray;stroke: black;stroke-width: 1;" points="174.996602 384.141218, 177.320448 305.210464 177.320448 305.210464, 179.644294 226.279456 179.644294 226.279456, 181.966616 147.348702 181.966616 147.348702, 184.290462 68.41871 184.290462 68.41871, 185.247026 68.41871 185.247026 68.41871, 186.20359 68.41871 186.20359 68.41871, 187.161678 68.41871 187.161678 68.41871, 188.118242 68.41871 188.118242 68.41871, 185.862468 147.348702 185.862468 147.348702, 183.606694 226.279456 183.606694 226.279456, 181.351174 305.210464 181.351174 305.210464, 179.096924 384.141218 179.096924 384.141218, 178.070764 384.141218 178.070764 384.141218, 177.045874 384.141218 177.045874 384.141218, 176.021238 384.141218 176.021238 384.141218, 174.996602 384.141218 174.996602 384.141218, 174.996602 384.141218"/>
      </g>
      <g>
        <polyline style="fill: gray;stroke: black;stroke-width: 1;" points="191.285368 384.141218, 192.514728 305.210464 192.514728 305.210464, 193.745612 226.279456 193.745612 226.279456, 194.975226 147.348702 194.975226 147.348702, 196.20611 68.41871 196.20611 68.41871, 197.162674 68.41871 197.162674 68.41871, 198.118984 68.41871 198.118984 68.41871, 199.075548 68.41871 199.075548 68.41871, 200.032112 68.41871 200.032112 68.41871, 198.871078 147.348702 198.871078 147.348702, 197.708266 226.279456 197.708266 226.279456, 196.546978 305.210464 196.546978 305.210464, 195.385944 384.141218 195.385944 384.141218, 194.35953 384.141218 194.35953 384.141218, 193.334894 384.141218 193.334894 384.141218, 192.310258 384.141218 192.310258 384.141218, 191.285368 384.141218 191.285368 384.141218, 191.285368 384.141218"/>
      </g>
      <g>
        <polyline style="fill: gray;stroke: black;stroke-width: 1;" points="208.904586 384.141218, 208.768188 305.210464 208.768188 305.210464, 208.630012 226.279456 208.630012 226.279456, 208.493614 147.348702 208.493614 147.348702, 208.355692 68.41871 208.355692 68.41871, 209.31378 68.41871 209.31378 68.41871, 210.270344 68.41871 210.270344 68.41871, 211.226908 68.41871 211.226908 68.41871, 212.183472 68.41871 212.183472 68.41871, 212.389466 147.348702 212.389466 147.348702, 212.59419 226.279456 212.59419 226.279456, 212.798914 305.210464 212.798914 305.210464, 213.003384 384.141218 213.003384 384.141218, 211.978748 384.141218 211.978748 384.141218, 210.954112 384.141218 210.954112 384.141218, 209.929222 384.141218 209.929222 384.141218, 208.904586 384.141218 208.904586 384.141218, 208.904586 384.141218"/>
      </g>
      <g>
        <polyline style="fill: gray;stroke: black;stroke-width: 1;" points="226.00412 384.141218, 225.37166 305.210464 225.37166 305.210464, 224.737676 226.279456 224.737676 226.279456, 224.105216 147.348702 224.105216 147.348702, 223.470978 68.41871 223.470978 68.41871, 224.427542 68.41871 224.427542 68.41871, 225.384106 68.41871 225.384106 68.41871, 226.342194 68.41871 226.342194 68.41871, 227.298758 68.41871 227.298758 68.41871, 227.999544 147.348702 227.999544 147.348702, 228.701854 226.279456 228.701854 226.279456, 229.402386 305.210464 229.402386 305.210464, 230.103172 384.141218 230.103172 384.141218, 229.078536 384.141218 229.078536 384.141218, 228.053646 384.141218 228.053646 384.141218, 227.02901 384.141218 227.02901 384.141218, 226.00412 384.141218 226.00412 384.141218, 226.00412 384.141218"/>
      </g>
      <g>
        <polyline style="fill: gray;stroke: black;stroke-width: 1;" points="242.671346 384.141218, 241.440462 305.210464 241.440462 305.210464, 240.209578 226.279456 240.209578 226.279456, 238.980218 147.348702 238.980218 147.348702, 237.749334 68.41871 237.749334 68.41871, 238.705898 68.41871 238.705898 68.41871, 239.662208 68.41871 239.662208 68.41871, 240.620296 68.41871 240.620296 68.41871, 241.57686 68.41871 241.57686 68.41871, 242.874546 147.348702 242.874546 147.348702, 244.173756 226.279456 244.173756 226.279456, 245.472712 305.210464 245.472712 305.210464, 246.770398 384.141218 246.770398 384.141218, 245.745762 384.141218 245.745762 384.141218, 244.720872 384.141218 244.720872 384.141218, 243.696236 384.141218 243.696236 384.141218, 242.671346 384.141218 242.671346 384.141218, 242.671346 384.141218"/>
      </g>
      <g>
        <polyline style="fill: gray;stroke: black;stroke-width: 1;" points="260.164834 384.141218, 258.388358 305.210464 258.388358 305.210464, 256.611628 226.279456 256.611628 226.279456, 254.835152 147.348702 254.835152 147.348702, 253.056898 68.41871 253.056898 68.41871, 254.014986 68.41871 254.014986 68.41871, 254.97155 68.41871 254.97155 68.41871, 255.928114 68.41871 255.928114 68.41871, 256.884424 68.41871 256.884424 68.41871, 258.72948 147.348702 258.72948 147.348702, 260.574282 226.279456 260.574282 226.279456, 262.420608 305.210464 262.420608 305.210464, 264.26541 384.141218 264.26541 384.141218, 263.240774 384.141218 263.240774 384.141218, 262.215884 384.141218 262.215884 384.141218, 261.189724 384.141218 261.189724 384.141218, 260.164834 384.141218 260.164834 384.141218, 260.164834 384.141218"/>
      </g>
      <g>
        <polyline style="fill: gray;stroke: black;stroke-width: 1;" points="276.839934 384.141218, 274.925282 305.210464 274.925282 305.210464, 273.012154 226.279456 273.012154 226.279456, 271.09928 147.348702 271.09928 147.348702, 269.186152 68.41871 269.186152 68.41871, 270.142716 68.41871 270.142716 68.41871, 271.09928 68.41871 271.09928 68.41871, 272.05559 68.41871 272.05559 68.41871, 273.012154 68.41871 273.012154 68.41871, 274.993608 147.348702 274.993608 147.348702, 276.974808 226.279456 276.974808 226.279456, 278.957532 305.210464 278.957532 305.210464, 280.938986 384.141218 280.938986 384.141218, 279.914096 384.141218 279.914096 384.141218, 278.88946 384.141218 278.88946 384.141218, 277.86457 384.141218 277.86457 384.141218, 276.839934 384.141218 276.839934 384.141218, 276.839934 384.141218"/>
      </g>
      <g>
        <polyline style="fill: gray;stroke: black;stroke-width: 1;" points="292.149022 384.141218, 290.440618 305.210464 290.440618 305.210464, 288.732214 226.279456 288.732214 226.279456, 287.022286 147.348702 287.022286 147.348702, 285.313882 68.41871 285.313882 68.41871, 286.270446 68.41871 286.270446 68.41871, 287.226756 68.41871 287.226756 68.41871, 288.184844 68.41871 288.184844 68.41871, 289.141408 68.41871 289.141408 68.41871, 290.918138 147.348702 290.918138 147.348702, 292.694868 226.279456 292.694868 226.279456, 294.471344 305.210464 294.471344 305.210464, 296.248074 384.141218 296.248074 384.141218, 295.223184 384.141218 295.223184 384.141218, 294.198548 384.141218 294.198548 384.141218, 293.173912 384.141218 293.173912 384.141218, 292.149022 384.141218 292.149022 384.141218, 292.149022 384.141218"/>
      </g>
      <g>
        <polyline style="fill: gray;stroke: black;stroke-width: 1;" points="310.462676 384.141218, 308.41315 305.210464 308.41315 305.210464, 306.3621 226.279456 306.3621 226.279456, 304.31105 147.348702 304.31105 147.348702, 302.261524 68.41871 302.261524 68.41871, 303.218088 68.41871 303.218088 68.41871, 304.174652 68.41871 304.174652 68.41871, 305.131216 68.41871 305.131216 68.41871, 306.08778 68.41871 306.08778 68.41871, 308.206902 147.348702 308.206902 147.348702, 310.326278 226.279456 310.326278 226.279456, 312.443876 305.210464 312.443876 305.210464, 314.563252 384.141218 314.563252 384.141218, 313.538362 384.141218 313.538362 384.141218, 312.512202 384.141218 312.512202 384.141218, 311.487312 384.141218 311.487312 384.141218, 310.462676 384.141218 310.462676 384.141218, 310.462676 384.141218"/>
      </g>
      <g>
        <polyline style="fill: gray;stroke: black;stroke-width: 1;" points="326.931528 384.141218, 324.265036 305.210464 324.265036 305.210464, 321.600068 226.279456 321.600068 226.279456, 318.9351 147.348702 318.9351 147.348702, 316.268608 68.41871 316.268608 68.41871, 317.224918 68.41871 317.224918 68.41871, 318.183006 68.41871 318.183006 68.41871, 319.13957 68.41871 319.13957 68.41871, 320.096134 68.41871 320.096134 68.41871, 322.829428 147.348702 322.829428 147.348702, 325.562468 226.279456 325.562468 226.279456, 328.297286 305.210464 328.297286 305.210464, 331.030326 384.141218 331.030326 384.141218, 330.00569 384.141218 330.00569 384.141218, 328.9808 384.141218 328.9808 384.141218, 327.956164 384.141218 327.956164 384.141218, 326.931528 384.141218 326.931528 384.141218, 326.931528 384.141218"/>
      </g>
      <g>
        <polyline style="fill: gray;stroke: black;stroke-width: 1;" points="145.20291 503.772678, 145.20291 513.916168 145.20291 513.916168, 145.20291 524.060674 145.20291 524.060674, 145.20291 534.20518 145.20291 534.20518, 145.20291 544.3474 145.20291 544.3474, 145.756376 544.41344 145.756376 544.41344, 146.281902 544.45662 146.281902 544.45662, 146.779488 544.4871 146.779488 544.4871, 147.241514 544.49472 147.241514 544.49472, 147.901914 544.51504 147.901914 544.51504, 148.873972 544.576 148.873972 544.576, 150.14067 544.66998 150.14067 544.66998, 151.680164 544.79698 151.680164 544.79698, 151.680164 534.54046 151.680164 534.54046, 151.680164 524.284702 151.680164 524.284702, 151.680164 514.02869 151.680164 514.02869, 151.680164 503.772678 151.680164 503.772678, 150.059898 503.772678 150.059898 503.772678, 148.44141 503.772678 148.44141 503.772678, 146.822922 503.772678 146.822922 503.772678, 145.20291 503.772678 145.20291 503.772678, 145.20291 503.772678"/>
      </g>
    </g>
  </g>
</svg>
