<?xml version="1.0" encoding="utf-8"?>
<!-- Generator: SVG Export - SVG Version: 6.00 Build 1  -->
<!-- FXGUID: [49F89603-8243-11ED-9BEA-525400685065] SYMID: [18929]  -->
<svg xmlns="http://www.w3.org/2000/svg" version="1.1" ch_offset="0" color_bar_width="66" width="152.23998" height="27.565604" origin_x="70.85838" origin_y="8.78332" ch_offset_x="71.2873352" ch_offset_y="40" color_offset_x="70.85838" color_offset_y="-4">
  <g>
    <title>Layer 1</title>
    <g>
      <g>
        <polyline style="fill: gray;stroke: black;stroke-width: 1;" points="24.075136 11.041126, 21.77288 11.041126 21.77288 11.041126, 19.470624 11.041126 19.470624 11.041126, 17.168622 11.041126 17.168622 11.041126, 14.866366 11.041126 14.866366 11.041126, 14.866366 9.907016 14.866366 9.907016, 14.866366 8.773668 14.866366 8.773668, 14.866366 7.640574 14.866366 7.640574, 14.866366 6.507226 14.866366 6.507226, 17.168622 6.507226 17.168622 6.507226, 19.470624 6.507226 19.470624 6.507226, 21.77288 6.507226 21.77288 6.507226, 24.075136 6.507226 24.075136 6.507226, 24.075136 7.640574 24.075136 7.640574, 24.075136 8.773668 24.075136 8.773668, 24.075136 9.907016 24.075136 9.907016, 24.075136 11.041126 24.075136 11.041126, 24.075136 11.041126"/>
      </g>
      <g>
        <polyline style="fill: gray;stroke: black;stroke-width: 1;" points="139.53998 14.865604, 105.290366 14.865604 105.290366 14.865604, 71.040498 14.865604 71.040498 14.865604, 36.79063 14.865604 36.79063 14.865604, 2.54 14.865604 2.54 14.865604, 2.54 11.78433 2.54 11.78433, 2.54 8.70331 2.54 8.70331, 2.54 5.621274 2.54 5.621274, 2.54 2.54 2.54 2.54, 36.79063 2.54 36.79063 2.54, 71.040498 2.54 71.040498 2.54, 105.290366 2.54 105.290366 2.54, 139.53998 2.54 139.53998 2.54, 139.53998 5.621274 139.53998 5.621274, 139.53998 8.70331 139.53998 8.70331, 139.53998 11.78433 139.53998 11.78433, 139.53998 14.865604 139.53998 14.865604, 139.53998 14.865604"/>
      </g>
      <g>
        <polyline style="fill: transparent;stroke: black;stroke-width: 1;" points="8.773668 2.54, 8.773668 5.621274 8.773668 5.621274, 8.773668 8.70331 8.773668 8.70331, 8.773668 11.78433 8.773668 11.78433, 8.773668 14.865604"/>
      </g>
      <g>
        <polyline style="fill: gray;stroke: black;stroke-width: 1;" points="43.13047 6.507226, 42.95775 7.361428 42.95775 7.361428, 42.487088 8.059928 42.487088 8.059928, 41.788588 8.530336 41.788588 8.530336, 40.934386 8.70331 40.934386 8.70331, 40.079422 8.530336 40.079422 8.530336, 39.381938 8.059928 39.381938 8.059928, 38.911276 7.361428 38.911276 7.361428, 38.738556 6.507226 38.738556 6.507226, 38.911276 5.652262 38.911276 5.652262, 39.381938 4.953762 39.381938 4.953762, 40.079422 4.483354 40.079422 4.483354, 40.934386 4.311142 40.934386 4.311142, 41.788588 4.483354 41.788588 4.483354, 42.487088 4.953762 42.487088 4.953762, 42.95775 5.652262 42.95775 5.652262, 43.13047 6.507226 43.13047 6.507226, 43.13047 6.507226"/>
      </g>
      <g>
        <polyline style="fill: gray;stroke: black;stroke-width: 1;" points="33.567624 8.773668, 33.322514 9.986772 33.322514 9.986772, 32.654494 10.977372 32.654494 10.977372, 31.66364 11.645646 31.66364 11.645646, 30.450536 11.890502 30.450536 11.890502, 29.237432 11.645646 29.237432 11.645646, 28.24607 10.977372 28.24607 10.977372, 27.578812 9.986772 27.578812 9.986772, 27.333702 8.773668 27.333702 8.773668, 27.578812 7.560564 27.578812 7.560564, 28.24607 6.569964 28.24607 6.569964, 29.237432 5.901944 29.237432 5.901944, 30.450536 5.656834 30.450536 5.656834, 31.66364 5.901944 31.66364 5.901944, 32.654494 6.569964 32.654494 6.569964, 33.322514 7.560564 33.322514 7.560564, 33.567624 8.773668 33.567624 8.773668, 33.567624 8.773668"/>
      </g>
      <g>
        <polyline style="fill: gray;stroke: black;stroke-width: 1;" points="64.948562 8.70331, 64.698118 9.9441 64.698118 9.9441, 64.01435 10.957306 64.01435 10.957306, 63.001398 11.640312 63.001398 11.640312, 61.760354 11.890502 61.760354 11.890502, 60.520072 11.640312 60.520072 11.640312, 59.506866 10.957306 59.506866 10.957306, 58.823352 9.9441 58.823352 9.9441, 58.572908 8.70331 58.572908 8.70331, 58.823352 7.462266 58.823352 7.462266, 59.506866 6.44906 59.506866 6.44906, 60.520072 5.765292 60.520072 5.765292, 61.760354 5.515102 61.760354 5.515102, 63.001398 5.765292 63.001398 5.765292, 64.01435 6.44906 64.01435 6.44906, 64.698118 7.462266 64.698118 7.462266, 64.948562 8.70331 64.948562 8.70331, 64.948562 8.70331"/>
      </g>
      <g>
        <polyline style="fill: gray;stroke: black;stroke-width: 1;" points="66.506598 8.70331, 66.133726 10.550398 66.133726 10.550398, 65.11671 12.058904 65.11671 12.058904, 63.608204 13.07592 63.608204 13.07592, 61.760354 13.448538 61.760354 13.448538, 59.913266 13.07592 59.913266 13.07592, 58.40476 12.058904 58.40476 12.058904, 57.387744 10.550398 57.387744 10.550398, 57.01411 8.70331 57.01411 8.70331, 57.387744 6.855206 57.387744 6.855206, 58.40476 5.3467 58.40476 5.3467, 59.913266 4.329938 59.913266 4.329938, 61.760354 3.957066 61.760354 3.957066, 63.608204 4.329938 63.608204 4.329938, 65.11671 5.3467 65.11671 5.3467, 66.133726 6.855206 66.133726 6.855206, 66.506598 8.70331 66.506598 8.70331, 66.506598 8.70331"/>
      </g>
      <g>
        <polyline style="fill: gray;stroke: black;stroke-width: 1;" points="53.96865 4.983988, 53.795676 5.246116 53.795676 5.246116, 53.325268 5.459984 53.325268 5.459984, 52.626768 5.604256 52.626768 5.604256, 51.772566 5.656834 51.772566 5.656834, 50.917602 5.604256 50.917602 5.604256, 50.219864 5.459984 50.219864 5.459984, 49.749456 5.246116 49.749456 5.246116, 49.576736 4.983988 49.576736 4.983988, 49.749456 4.722114 49.749456 4.722114, 50.219864 4.507992 50.219864 4.507992, 50.917602 4.363974 50.917602 4.363974, 51.772566 4.311142 51.772566 4.311142, 52.626768 4.363974 52.626768 4.363974, 53.325268 4.507992 53.325268 4.507992, 53.795676 4.722114 53.795676 4.722114, 53.96865 4.983988 53.96865 4.983988, 53.96865 4.983988"/>
      </g>
      <g>
        <polyline style="fill: gray;stroke: black;stroke-width: 1;" points="49.576736 6.507226, 49.403762 6.7691 49.403762 6.7691, 48.933354 6.983222 48.933354 6.983222, 48.235616 7.12724 48.235616 7.12724, 47.380652 7.180072 47.380652 7.180072, 46.525688 7.12724 46.525688 7.12724, 45.82795 6.983222 45.82795 6.983222, 45.357542 6.7691 45.357542 6.7691, 45.184568 6.507226 45.184568 6.507226, 45.357542 6.245098 45.357542 6.245098, 45.82795 6.03123 45.82795 6.03123, 46.525688 5.887212 46.525688 5.887212, 47.380652 5.83438 47.380652 5.83438, 48.235616 5.887212 48.235616 5.887212, 48.933354 6.03123 48.933354 6.03123, 49.403762 6.245098 49.403762 6.245098, 49.576736 6.507226 49.576736 6.507226, 49.576736 6.507226"/>
      </g>
      <g>
        <polyline style="fill: gray;stroke: black;stroke-width: 1;" points="53.96865 6.507226, 53.795676 6.7691 53.795676 6.7691, 53.325268 6.983222 53.325268 6.983222, 52.626768 7.12724 52.626768 7.12724, 51.772566 7.180072 51.772566 7.180072, 50.917602 7.12724 50.917602 7.12724, 50.219864 6.983222 50.219864 6.983222, 49.749456 6.7691 49.749456 6.7691, 49.576736 6.507226 49.576736 6.507226, 49.749456 6.245098 49.749456 6.245098, 50.219864 6.03123 50.219864 6.03123, 50.917602 5.887212 50.917602 5.887212, 51.772566 5.83438 51.772566 5.83438, 52.626768 5.887212 52.626768 5.887212, 53.325268 6.03123 53.325268 6.03123, 53.795676 6.245098 53.795676 6.245098, 53.96865 6.507226 53.96865 6.507226, 53.96865 6.507226"/>
      </g>
      <g>
        <polyline style="fill: gray;stroke: black;stroke-width: 1;" points="37.250878 11.041126, 37.18433 11.371326 37.18433 11.371326, 37.002212 11.641836 37.002212 11.641836, 36.731702 11.823954 36.731702 11.823954, 36.40074 11.890502 36.40074 11.890502, 36.069778 11.823954 36.069778 11.823954, 35.80003 11.641836 35.80003 11.641836, 35.617658 11.371326 35.617658 11.371326, 35.550348 11.041126 35.550348 11.041126, 35.617658 10.710164 35.617658 10.710164, 35.80003 10.439654 35.80003 10.439654, 36.069778 10.257282 36.069778 10.257282, 36.40074 10.190734 36.40074 10.190734, 36.731702 10.257282 36.731702 10.257282, 37.002212 10.439654 37.002212 10.439654, 37.18433 10.710164 37.18433 10.710164, 37.250878 11.041126 37.250878 11.041126, 37.250878 11.041126"/>
      </g>
      <g>
        <polyline style="fill: gray;stroke: black;stroke-width: 1;" points="49.576736 4.983988, 49.403762 5.246116 49.403762 5.246116, 48.933354 5.459984 48.933354 5.459984, 48.235616 5.604256 48.235616 5.604256, 47.380652 5.656834 47.380652 5.656834, 46.525688 5.604256 46.525688 5.604256, 45.82795 5.459984 45.82795 5.459984, 45.357542 5.246116 45.357542 5.246116, 45.184568 4.983988 45.184568 4.983988, 45.357542 4.722114 45.357542 4.722114, 45.82795 4.507992 45.82795 4.507992, 46.525688 4.363974 46.525688 4.363974, 47.380652 4.311142 47.380652 4.311142, 48.235616 4.363974 48.235616 4.363974, 48.933354 4.507992 48.933354 4.507992, 49.403762 4.722114 49.403762 4.722114, 49.576736 4.983988 49.576736 4.983988, 49.576736 4.983988"/>
      </g>
    </g>
  </g>
</svg>
