<?xml version="1.0" encoding="utf-8"?>
<!-- Generator: SVG Export - SVG Version: 6.00 Build 1  -->
<!-- FXGUID: [58A4912C-68C5-11EA-8495-525400685065] SYMID: [13315]  -->
<svg xmlns="http://www.w3.org/2000/svg" version="1.1" ch_offset="0" color_bar_width="66" width="425.288456" height="325.184516" origin_x="208.049876" origin_y="158.980124" ch_offset_x="208.4599336" ch_offset_y="40" color_offset_x="208.049876" color_offset_y="-4">
  <g>
    <title>Layer 1</title>
    <g>
      <g>
        <polyline style="fill: gray;stroke: black;stroke-width: 1;" points="377.04268 81.24825, 370.628418 40.776398 370.628418 40.776398, 44.500038 40.776398 44.500038 40.776398, 38.085776 81.24825 38.085776 81.24825, 18.53184 95.973646 18.53184 95.973646, 7.873746 113.161826 7.873746 113.161826, 2.54 141.767052 2.54 141.767052, 2.54 173.257464 2.54 173.257464, 5.894832 196.40169 5.894832 196.40169, 16.625824 216.76868 16.625824 216.76868, 38.085776 233.775504 38.085776 233.775504, 44.500038 274.248118 44.500038 274.248118, 370.628418 274.248118 370.628418 274.248118, 377.04268 233.775504 377.04268 233.775504, 395.92123 219.808044 395.92123 219.808044, 407.96337 200.073514 407.96337 200.073514, 412.588456 173.257464 412.588456 173.257464, 412.588456 141.767052 412.588456 141.767052, 408.124406 115.380262 408.124406 115.380262, 396.267178 95.600774 396.267178 95.600774, 377.04268 81.24825 377.04268 81.24825, 377.04268 81.24825"/>
      </g>
      <g>
        <polyline style="fill: gray;stroke: black;stroke-width: 1;" points="60.25896 219.432886, 39.62527 219.432886 39.62527 219.432886, 23.10765 200.38822 23.10765 200.38822, 16.489426 167.75684 16.489426 167.75684, 16.489426 147.26666 16.489426 147.26666, 22.758908 115.377214 22.758908 115.377214, 39.62527 95.590868 39.62527 95.590868, 60.25896 95.590868 60.25896 95.590868, 60.25896 219.432886 60.25896 219.432886, 60.25896 219.432886"/>
      </g>
      <g>
        <polyline style="fill: gray;stroke: black;stroke-width: 1;" points="398.63903 167.75684, 393.130786 197.924928 393.130786 197.924928, 375.503948 219.432886 375.503948 219.432886, 354.870258 219.432886 354.870258 219.432886, 354.870258 95.590868 354.870258 95.590868, 375.503948 95.590868 375.503948 95.590868, 392.729974 116.17325 392.729974 116.17325, 398.63903 147.26666 398.63903 147.26666, 398.63903 167.75684 398.63903 167.75684, 398.63903 167.75684"/>
      </g>
      <g>
        <polyline style="fill: gray;stroke: black;stroke-width: 1;" points="382.382522 111.10468, 341.121492 103.255318 341.121492 103.255318, 74.007726 103.255318 74.007726 103.255318, 32.745934 111.10468 32.745934 111.10468, 23.993602 148.606256 23.993602 148.606256, 23.993602 166.41826 23.993602 166.41826, 32.745934 203.919836 32.745934 203.919836, 74.007726 211.768944 74.007726 211.768944, 341.121492 211.768944 341.121492 211.768944, 382.382522 203.919836 382.382522 203.919836, 391.135616 166.41826 391.135616 166.41826, 391.135616 148.606256 391.135616 148.606256, 382.382522 111.10468"/>
      </g>
      <g>
        <polyline style="fill: gray;stroke: black;stroke-width: 1;" points="333.780892 186.29376, 321.544442 186.29376 321.544442 186.29376, 321.544442 128.730502 321.544442 128.730502, 333.780892 128.730502 333.780892 128.730502, 333.780892 186.29376"/>
      </g>
      <g>
        <polyline style="fill: gray;stroke: black;stroke-width: 1;" points="382.382522 111.10468, 341.121492 103.255318 341.121492 103.255318, 341.121492 136.580626 341.121492 136.580626, 333.780892 136.580626 333.780892 136.580626, 333.780892 178.443128 333.780892 178.443128, 341.121492 178.443128 341.121492 178.443128, 341.121492 211.768944 341.121492 211.768944, 382.382522 203.919836 382.382522 203.919836, 391.135616 166.41826 391.135616 166.41826, 391.135616 148.606256 391.135616 148.606256, 382.382522 111.10468"/>
      </g>
      <g>
        <polyline style="fill: gray;stroke: black;stroke-width: 1;" points="81.347564 186.29376, 93.584014 186.29376 93.584014 186.29376, 93.584014 128.730502 93.584014 128.730502, 81.347564 128.730502 81.347564 128.730502, 81.347564 186.29376"/>
      </g>
      <g>
        <polyline style="fill: gray;stroke: black;stroke-width: 1;" points="32.745934 111.10468, 74.007726 103.255318 74.007726 103.255318, 74.007726 136.580626 74.007726 136.580626, 81.347564 136.580626 81.347564 136.580626, 81.347564 178.443128 81.347564 178.443128, 74.007726 178.443128 74.007726 178.443128, 74.007726 211.768944 74.007726 211.768944, 32.745934 203.919836 32.745934 203.919836, 23.993602 166.41826 23.993602 166.41826, 23.993602 148.606256 23.993602 148.606256, 32.745934 111.10468"/>
      </g>
      <g>
        <polyline style="fill: gray;stroke: black;stroke-width: 1;" points="302.059594 312.484516, 321.442842 255.496568 321.442842 255.496568, 321.442842 90.928952 321.442842 90.928952, 316.600586 63.727584 316.600586 63.727584, 301.699168 27.239976 301.699168 27.239976, 288.30397 2.54 288.30397 2.54, 126.622302 2.54 126.622302 2.54, 114.067336 25.544018 114.067336 25.544018, 98.660458 62.644782 98.660458 62.644782, 93.482414 90.928952 93.482414 90.928952, 93.482414 255.496568 93.482414 255.496568, 112.865662 312.484516 112.865662 312.484516, 302.059594 312.484516 302.059594 312.484516, 302.059594 312.484516"/>
      </g>
      <g>
        <polyline style="fill: gray;stroke: black;stroke-width: 1;" points="160.817814 80.831944, 157.635194 19.585432 157.635194 19.585432, 153.811224 19.585432 153.811224 19.585432, 150.628604 80.831944 150.628604 80.831944, 160.817814 80.831944"/>
      </g>
      <g>
        <polyline style="fill: gray;stroke: black;stroke-width: 1;" points="178.06416 80.831944, 174.881286 19.585432 174.881286 19.585432, 171.058332 19.585432 171.058332 19.585432, 167.874696 80.831944 167.874696 80.831944, 178.06416 80.831944"/>
      </g>
      <g>
        <polyline style="fill: gray;stroke: black;stroke-width: 1;" points="195.311014 80.831944, 192.127632 19.585432 192.127632 19.585432, 188.304678 19.585432 188.304678 19.585432, 185.121804 80.831944 185.121804 80.831944, 195.311014 80.831944"/>
      </g>
      <g>
        <polyline style="fill: gray;stroke: black;stroke-width: 1;" points="212.558122 80.831944, 209.374486 19.585432 209.374486 19.585432, 205.551532 19.585432 205.551532 19.585432, 202.36815 80.831944 202.36815 80.831944, 212.558122 80.831944"/>
      </g>
      <g>
        <polyline style="fill: gray;stroke: black;stroke-width: 1;" points="229.804468 80.831944, 226.620832 19.585432 226.620832 19.585432, 222.797878 19.585432 222.797878 19.585432, 219.615004 80.831944 219.615004 80.831944, 229.804468 80.831944"/>
      </g>
      <g>
        <polyline style="fill: gray;stroke: black;stroke-width: 1;" points="247.05056 80.831944, 243.867178 19.585432 243.867178 19.585432, 240.044732 19.585432 240.044732 19.585432, 236.86135 80.831944 236.86135 80.831944, 247.05056 80.831944"/>
      </g>
      <g>
        <polyline style="fill: gray;stroke: black;stroke-width: 1;" points="264.297668 80.831944, 261.114032 19.585432 261.114032 19.585432, 257.291078 19.585432 257.291078 19.585432, 254.107442 80.831944 254.107442 80.831944, 264.297668 80.831944"/>
      </g>
      <g>
        <polyline style="fill: gray;stroke: black;stroke-width: 1;" points="171.035726 312.484516, 155.72359 312.484516 155.72359 312.484516, 155.72359 231.492552 155.72359 231.492552, 171.035726 231.492552 171.035726 231.492552, 171.035726 312.484516"/>
      </g>
      <g>
        <polyline style="fill: gray;stroke: black;stroke-width: 1;" points="200.424796 312.484516, 185.111644 312.484516 185.111644 312.484516, 185.111644 231.492552 185.111644 231.492552, 200.424796 231.492552 200.424796 231.492552, 200.424796 312.484516"/>
      </g>
      <g>
        <polyline style="fill: gray;stroke: black;stroke-width: 1;" points="229.813612 312.484516, 214.500714 312.484516 214.500714 312.484516, 214.500714 231.492552 214.500714 231.492552, 229.813612 231.492552 229.813612 231.492552, 229.813612 312.484516"/>
      </g>
      <g>
        <polyline style="fill: gray;stroke: black;stroke-width: 1;" points="259.202682 312.484516, 243.88953 312.484516 243.88953 312.484516, 243.88953 231.492552 243.88953 231.492552, 259.202682 231.492552 259.202682 231.492552, 259.202682 312.484516"/>
      </g>
      <g>
        <polyline style="fill: gray;stroke: black;stroke-width: 1;" points="150.628604 172.959776, 115.419124 172.959776 115.419124 172.959776, 115.419124 214.823802 115.419124 214.823802, 150.628604 197.89775 150.628604 197.89775, 150.628604 172.959776"/>
      </g>
      <g>
        <polyline style="fill: gray;stroke: black;stroke-width: 1;" points="264.297668 172.959776, 299.507148 172.959776 299.507148 172.959776, 299.507148 214.823802 299.507148 214.823802, 264.297668 197.89775 264.297668 197.89775, 264.297668 172.959776"/>
      </g>
      <g>
        <polyline style="fill: gray;stroke: black;stroke-width: 1;" points="168.481756 129.156968, 158.263844 129.156968 158.263844 129.156968, 158.263844 105.511092 158.263844 105.511092, 168.481756 105.511092 168.481756 105.511092, 168.481756 129.156968"/>
      </g>
      <g>
        <polyline style="fill: gray;stroke: black;stroke-width: 1;" points="256.662428 129.156968, 246.444516 129.156968 246.444516 129.156968, 246.444516 105.511092 246.444516 105.511092, 256.662428 105.511092 256.662428 105.511092, 256.662428 129.156968"/>
      </g>
      <g>
        <polyline style="fill: gray;stroke: black;stroke-width: 1;" points="190.51524 129.156968, 180.297328 129.156968 180.297328 129.156968, 180.297328 97.371408 180.297328 97.371408, 190.51524 97.371408 190.51524 97.371408, 190.51524 129.156968"/>
      </g>
      <g>
        <polyline style="fill: gray;stroke: black;stroke-width: 1;" points="205.219808 129.156968, 195.001896 129.156968 195.001896 129.156968, 195.001896 97.371408 195.001896 97.371408, 205.219808 97.371408 205.219808 97.371408, 205.219808 129.156968"/>
      </g>
      <g>
        <polyline style="fill: gray;stroke: black;stroke-width: 1;" points="219.923614 129.156968, 209.706464 129.156968 209.706464 129.156968, 209.706464 97.371408 209.706464 97.371408, 219.923614 97.371408 219.923614 97.371408, 219.923614 129.156968"/>
      </g>
      <g>
        <polyline style="fill: gray;stroke: black;stroke-width: 1;" points="234.628182 129.156968, 224.410016 129.156968 224.410016 129.156968, 224.410016 97.371408 224.410016 97.371408, 234.628182 97.371408 234.628182 97.371408, 234.628182 129.156968"/>
      </g>
      <g>
        <polyline style="fill: gray;stroke: black;stroke-width: 1;" points="168.481756 205.13294, 158.263844 205.13294 158.263844 205.13294, 158.263844 168.30802 158.263844 168.30802, 168.481756 168.30802 168.481756 168.30802, 168.481756 205.13294"/>
      </g>
      <g>
        <polyline style="fill: gray;stroke: black;stroke-width: 1;" points="256.662428 205.13294, 246.444516 205.13294 246.444516 205.13294, 246.444516 168.30802 246.444516 168.30802, 256.662428 168.30802 256.662428 168.30802, 256.662428 205.13294"/>
      </g>
      <g>
        <polyline style="fill: gray;stroke: black;stroke-width: 1;" points="190.51524 215.987376, 180.297328 215.987376 180.297328 215.987376, 180.297328 168.30802 180.297328 168.30802, 190.51524 168.30802 190.51524 168.30802, 190.51524 215.987376"/>
      </g>
      <g>
        <polyline style="fill: gray;stroke: black;stroke-width: 1;" points="205.219808 215.987376, 195.001896 215.987376 195.001896 215.987376, 195.001896 168.30802 195.001896 168.30802, 205.219808 168.30802 205.219808 168.30802, 205.219808 215.987376"/>
      </g>
      <g>
        <polyline style="fill: gray;stroke: black;stroke-width: 1;" points="219.923614 215.987376, 209.706464 215.987376 209.706464 215.987376, 209.706464 168.30802 209.706464 168.30802, 219.923614 168.30802 219.923614 168.30802, 219.923614 215.987376"/>
      </g>
      <g>
        <polyline style="fill: gray;stroke: black;stroke-width: 1;" points="234.628182 215.987376, 224.410016 215.987376 224.410016 215.987376, 224.410016 168.30802 224.410016 168.30802, 234.628182 168.30802 234.628182 168.30802, 234.628182 215.987376"/>
      </g>
    </g>
  </g>
</svg>
