<?xml version="1.0" encoding="utf-8"?>
<!-- Generator: SVG Export - SVG Version: 6.00 Build 1  -->
<!-- FXGUID: [857109C9-CB7F-11E8-8FDA-525400685065] SYMID: [14135]  -->
<svg xmlns="http://www.w3.org/2000/svg" version="1.1" ch_offset="0" color_bar_width="66" width="1014.83414" height="173.981364" origin_x="502.6152" origin_y="49.667414" ch_offset_x="501.8769236" ch_offset_y="40" color_offset_x="502.6152" color_offset_y="-4">
  <g>
    <title>Layer 1</title>
    <g>
      <g>
        <polyline style="fill: gray;stroke: black;stroke-width: 1;" points="41.88206 161.281364, 41.88206 9.812528 41.88206 9.812528, 106.02214 9.812528 106.02214 9.812528, 106.02214 161.281364 106.02214 161.281364, 41.88206 161.281364"/>
      </g>
      <g>
        <polyline style="fill: gray;stroke: black;stroke-width: 1;" points="962.60412 161.281364, 962.60412 9.812528 962.60412 9.812528, 898.46404 9.812528 898.46404 9.812528, 898.46404 161.281364 898.46404 161.281364, 962.60412 161.281364"/>
      </g>
      <g>
        <polyline style="fill: gray;stroke: black;stroke-width: 1;" points="962.48728 112.713008, 972.06308 112.713008 972.06308 112.713008, 972.06308 93.544644 972.06308 93.544644, 981.05468 93.544644 981.05468 93.544644, 987.14814 108.707174 987.14814 108.707174, 987.14814 132.739892 987.14814 132.739892, 981.05468 147.902422 981.05468 147.902422, 972.06308 147.902422 972.06308 147.902422, 972.06308 128.733042 972.06308 128.733042, 962.48728 128.733042 962.48728 128.733042, 962.48728 112.713008"/>
      </g>
      <g>
        <polyline style="fill: gray;stroke: black;stroke-width: 1;" points="42.18686 112.713008, 32.61106 112.713008 32.61106 112.713008, 32.61106 93.544644 32.61106 93.544644, 23.61692 93.544644 23.61692 93.544644, 17.526 108.707174 17.526 108.707174, 17.526 132.739892 17.526 132.739892, 23.61692 147.902422 23.61692 147.902422, 32.61106 147.902422 32.61106 147.902422, 32.61106 128.733042 32.61106 128.733042, 42.18686 128.733042 42.18686 128.733042, 42.18686 112.713008"/>
      </g>
      <g>
        <polyline style="fill: gray;stroke: black;stroke-width: 1;" points="1002.13414 84.629498, 2.54 84.629498 2.54 84.629498, 2.54 2.54 2.54 2.54, 1002.13414 2.54 1002.13414 2.54, 1002.13414 84.629498"/>
      </g>
      <g>
        <polyline style="fill: gray;stroke: black;stroke-width: 1;" points="1002.13414 84.629498, 2.54 84.629498 2.54 84.629498, 2.54 17.198848 2.54 17.198848, 1002.13414 17.198848 1002.13414 17.198848, 1002.13414 84.629498"/>
      </g>
      <g>
        <polyline style="fill: gray;stroke: black;stroke-width: 1;" points="1002.13414 84.629498, 2.54 84.629498 2.54 84.629498, 2.54 2.54 2.54 2.54, 1002.13414 2.54 1002.13414 2.54, 1002.13414 84.629498"/>
      </g>
      <g>
        <polyline style="fill: gray;stroke: black;stroke-width: 1;" points="1002.13414 84.629498, 2.54 84.629498 2.54 84.629498, 2.54 2.54 2.54 2.54, 1002.13414 2.54 1002.13414 2.54, 1002.13414 84.629498"/>
      </g>
    </g>
  </g>
</svg>
