<?xml version="1.0" encoding="utf-8"?>
<!-- Generator: www.crescit.com, SVG Export - SVG Version: 6.00 Build 1  -->
<!-- FXGUID: [90418BD9-388D-11ED-A6E6-525400685065] SYMID: [18732]  -->
<svg xmlns="http://www.w3.org/2000/svg" version="1.1" ch_offset="0" color_bar_width="66" width="574.23812" height="178.381914" origin_x="281.41422" origin_y="95.224854" ch_offset_x="282.3440886" ch_offset_y="40" color_offset_x="281.41422" color_offset_y="-4">
  <g>
    <title>Layer 1</title>
    <g>
      <g>
        <polyline style="fill: gray;stroke: black;stroke-width: 1;" points="27.13228 140.263372, 20.98548 140.263372 20.98548 140.263372, 14.83614 140.263372 14.83614 140.263372, 8.6868 140.263372 8.6868 140.263372, 2.54 140.263372 2.54 140.263372, 2.54 117.855492 2.54 117.855492, 2.54 95.447358 2.54 95.447358, 2.54 73.038716 2.54 73.038716, 2.54 50.630836 2.54 50.630836, 8.6868 50.630836 8.6868 50.630836, 14.83614 50.630836 14.83614 50.630836, 20.98548 50.630836 20.98548 50.630836, 27.13228 50.630836 27.13228 50.630836, 27.13228 73.038716 27.13228 73.038716, 27.13228 95.447358 27.13228 95.447358, 27.13228 117.855492 27.13228 117.855492, 27.13228 140.263372 27.13228 140.263372, 27.13228 140.263372"/>
      </g>
      <g>
        <polyline style="fill: gray;stroke: black;stroke-width: 1;" points="536.94584 125.506988, 530.413976 125.506988 530.413976 125.506988, 523.88262 125.506988 523.88262 125.506988, 517.352026 125.506988 517.352026 125.506988, 510.82067 125.506988 510.82067 125.506988, 510.82067 111.0234 510.82067 111.0234, 510.82067 96.54032 510.82067 96.54032, 510.82067 82.056732 510.82067 82.056732, 510.82067 67.573144 510.82067 67.573144, 517.352026 67.573144 517.352026 67.573144, 523.88262 67.573144 523.88262 67.573144, 530.413976 67.573144 530.413976 67.573144, 536.94584 67.573144 536.94584 67.573144, 536.94584 82.056732 536.94584 82.056732, 536.94584 96.54032 536.94584 96.54032, 536.94584 111.0234 536.94584 111.0234, 536.94584 125.506988 536.94584 125.506988, 536.94584 125.506988"/>
      </g>
      <g>
        <polyline style="fill: gray;stroke: black;stroke-width: 1;" points="536.94584 140.263372, 543.09518 140.263372 543.09518 140.263372, 549.24198 140.263372 549.24198 140.263372, 555.39132 140.263372 555.39132 140.263372, 561.53812 140.263372 561.53812 140.263372, 561.53812 117.855492 561.53812 117.855492, 561.53812 95.447358 561.53812 95.447358, 561.53812 73.038716 561.53812 73.038716, 561.53812 50.630836 561.53812 50.630836, 555.39132 50.630836 555.39132 50.630836, 549.24198 50.630836 549.24198 50.630836, 543.09518 50.630836 543.09518 50.630836, 536.94584 50.630836 536.94584 50.630836, 536.94584 73.038716 536.94584 73.038716, 536.94584 95.447358 536.94584 95.447358, 536.94584 117.855492 536.94584 117.855492, 536.94584 140.263372 536.94584 140.263372, 536.94584 140.263372"/>
      </g>
      <g>
        <polyline style="fill: gray;stroke: black;stroke-width: 1;" points="510.82067 140.263372, 396.429992 140.263372 396.429992 140.263372, 282.039314 140.263372 282.039314 140.263372, 167.649398 140.263372 167.649398 140.263372, 53.25872 140.263372 53.25872 140.263372, 53.25872 117.855492 53.25872 117.855492, 53.25872 95.447358 53.25872 95.447358, 53.25872 73.038716 53.25872 73.038716, 53.25872 50.630836 53.25872 50.630836, 167.649398 50.630836 167.649398 50.630836, 282.039314 50.630836 282.039314 50.630836, 396.429992 50.630836 396.429992 50.630836, 510.82067 50.630836 510.82067 50.630836, 510.82067 73.038716 510.82067 73.038716, 510.82067 95.447358 510.82067 95.447358, 510.82067 117.855492 510.82067 117.855492, 510.82067 140.263372 510.82067 140.263372, 510.82067 140.263372"/>
      </g>
      <g>
        <polyline style="fill: gray;stroke: black;stroke-width: 1;" points="27.13228 125.506988, 33.664398 125.506988 33.664398 125.506988, 40.195754 125.506988 40.195754 125.506988, 46.727364 125.506988 46.727364 125.506988, 53.25872 125.506988 53.25872 125.506988, 53.25872 111.0234 53.25872 111.0234, 53.25872 96.54032 53.25872 96.54032, 53.25872 82.056732 53.25872 82.056732, 53.25872 67.573144 53.25872 67.573144, 46.727364 67.573144 46.727364 67.573144, 40.195754 67.573144 40.195754 67.573144, 33.664398 67.573144 33.664398 67.573144, 27.13228 67.573144 27.13228 67.573144, 27.13228 82.056732 27.13228 82.056732, 27.13228 96.54032 27.13228 96.54032, 27.13228 111.0234 27.13228 111.0234, 27.13228 125.506988 27.13228 125.506988, 27.13228 125.506988"/>
      </g>
      <g>
        <polyline style="fill: gray;stroke: black;stroke-width: 1;" points="328.701908 2.54, 376.78741 2.54 376.78741 2.54, 424.872658 2.54 424.872658 2.54, 472.95816 2.54 472.95816 2.54, 521.043662 2.54 521.043662 2.54, 521.043662 12.172696 521.043662 12.172696, 521.043662 21.805392 521.043662 21.805392, 521.043662 31.438342 521.043662 31.438342, 521.043662 41.071038 521.043662 41.071038, 518.38479 43.325796 518.38479 43.325796, 515.727696 45.580046 515.727696 45.580046, 513.070602 47.834042 513.070602 47.834042, 510.413254 50.089054 510.413254 50.089054, 510.413254 70.17385 510.413254 70.17385, 510.413254 90.259408 510.413254 90.259408, 510.413254 110.344966 510.413254 110.344966, 510.413254 130.430016 510.413254 130.430016, 469.091772 139.243308 469.091772 139.243308, 427.771814 148.055838 427.771814 148.055838, 386.451856 156.868622 386.451856 156.868622, 345.131898 165.681914 345.131898 165.681914, 341.023702 163.837112 341.023702 163.837112, 336.916776 161.99231 336.916776 161.99231, 332.80858 160.14827 332.80858 160.14827, 328.701908 158.303468 328.701908 158.303468, 322.902326 158.303468 322.902326 158.303468, 317.10249 158.303468 317.10249 158.303468, 311.302908 158.303468 311.302908 158.303468, 305.503326 158.303468 305.503326 158.303468, 305.503326 156.869384 305.503326 156.869384, 305.503326 155.434538 305.503326 155.434538, 305.503326 153.99893 305.503326 153.99893, 305.503326 152.5651 305.503326 152.5651, 302.362362 152.5651 302.362362 152.5651, 299.221398 152.5651 299.221398 152.5651, 296.080688 152.5651 296.080688 152.5651, 292.939724 152.5651 292.939724 152.5651, 292.939724 153.589736 292.939724 153.589736, 292.939724 154.614372 292.939724 154.614372, 292.939724 155.639262 292.939724 155.639262, 292.939724 156.663898 292.939724 156.663898, 290.764722 156.663898 290.764722 156.663898, 288.58972 156.663898 288.58972 156.663898, 286.415226 156.663898 286.415226 156.663898, 284.240224 156.663898 284.240224 156.663898, 282.93568 156.663898 282.93568 156.663898, 281.631898 156.663898 281.631898 156.663898, 280.328116 156.663898 280.328116 156.663898, 279.023572 156.663898 279.023572 156.663898, 276.849332 156.663898 276.849332 156.663898, 274.674076 156.663898 274.674076 156.663898, 272.499074 156.663898 272.499074 156.663898, 270.324072 156.663898 270.324072 156.663898, 270.324072 155.639262 270.324072 155.639262, 270.324072 154.614372 270.324072 154.614372, 270.324072 153.589736 270.324072 153.589736, 270.324072 152.5651 270.324072 152.5651, 267.183108 152.5651 267.183108 152.5651, 264.042144 152.5651 264.042144 152.5651, 260.901434 152.5651 260.901434 152.5651, 257.759708 152.5651 257.759708 152.5651, 257.759708 153.99893 257.759708 153.99893, 257.759708 155.434538 257.759708 155.434538, 257.759708 156.869384 257.759708 156.869384, 257.759708 158.303468 257.759708 158.303468, 251.960126 158.303468 251.960126 158.303468, 246.16029 158.303468 246.16029 158.303468, 240.36147 158.303468 240.36147 158.303468, 234.561888 158.303468 234.561888 158.303468, 230.453692 160.14827 230.453692 160.14827, 226.346004 161.99231 226.346004 161.99231, 222.237808 163.837112 222.237808 163.837112, 218.130374 165.681914 218.130374 165.681914, 176.810416 156.868622 176.810416 156.868622, 135.490458 148.055838 135.490458 148.055838, 94.1705 139.243308 94.1705 139.243308, 52.850542 130.430016 52.850542 130.430016, 52.850542 110.344966 52.850542 110.344966, 52.850542 90.259408 52.850542 90.259408, 52.850542 70.17385 52.850542 70.17385, 52.850542 50.089054 52.850542 50.089054, 50.193194 47.834042 50.193194 47.834042, 47.5361 45.580046 47.5361 45.580046, 44.87799 43.325796 44.87799 43.325796, 42.220896 41.071038 42.220896 41.071038, 42.220896 31.438342 42.220896 31.438342, 42.220896 21.805392 42.220896 21.805392, 42.220896 12.172696 42.220896 12.172696, 42.220896 2.54 42.220896 2.54, 90.305636 2.54 90.305636 2.54, 138.390884 2.54 138.390884 2.54, 186.476386 2.54 186.476386 2.54, 234.561888 2.54 234.561888 2.54, 258.096766 2.54 258.096766 2.54, 281.631898 2.54 281.631898 2.54, 305.166776 2.54 305.166776 2.54, 328.701908 2.54 328.701908 2.54, 328.701908 2.54"/>
      </g>
      <g>
        <polyline style="fill: transparent;stroke: black;stroke-width: 1;" points="52.850542 50.089054, 167.24122 50.089054 167.24122 50.089054, 281.631898 50.089054 281.631898 50.089054, 396.021814 50.089054 396.021814 50.089054, 510.413254 50.089054"/>
      </g>
      <g>
        <polyline style="fill: transparent;stroke: black;stroke-width: 1;" points="42.220896 41.071038, 161.926016 41.071038 161.926016 41.071038, 281.631898 41.071038 281.631898 41.071038, 401.33778 41.071038 401.33778 41.071038, 521.043662 41.071038"/>
      </g>
      <g>
        <polyline style="fill: gray;stroke: black;stroke-width: 1;" points="373.821706 118.953026, 327.475596 118.953026 327.475596 118.953026, 281.129486 118.953026 281.129486 118.953026, 234.78363 118.953026 234.78363 118.953026, 188.438282 118.953026 188.438282 118.953026, 188.438282 107.475528 188.438282 107.475528, 188.438282 95.998538 188.438282 95.998538, 188.438282 84.52104 188.438282 84.52104, 188.438282 73.043542 188.438282 73.043542, 234.78363 73.043542 234.78363 73.043542, 281.129486 73.043542 281.129486 73.043542, 327.475596 73.043542 327.475596 73.043542, 373.821706 73.043542 373.821706 73.043542, 373.821706 84.52104 373.821706 84.52104, 373.821706 95.998538 373.821706 95.998538, 373.821706 107.475528 373.821706 107.475528, 373.821706 118.953026 373.821706 118.953026, 373.821706 118.953026"/>
      </g>
    </g>
  </g>
</svg>
