<?xml version="1.0" encoding="utf-8"?>
<!-- Generator: SVG Export - SVG Version: 6.00 Build 1  -->
<!-- FXGUID: [A18A7C96-E669-11EE-8C28-525400685065] SYMID: [19435]  -->
<svg xmlns="http://www.w3.org/2000/svg" version="1.1" ch_offset="0" color_bar_width="66" width="422.139872" height="484.694992" origin_x="204.732636" origin_y="267.4874" ch_offset_x="208.829656" ch_offset_y="40" color_offset_x="204.732636" color_offset_y="-4">
  <g>
    <title>Layer 1</title>
    <g>
      <g>
        <polyline style="fill: gray;stroke: black;stroke-width: 1;" points="341.936578 299.32757, 347.15323 299.32757 347.15323 299.32757, 352.36912 299.32757 352.36912 299.32757, 357.585264 299.32757 357.585264 299.32757, 362.801154 299.32757 362.801154 299.32757, 362.801154 293.190676 362.801154 293.190676, 362.801154 287.053782 362.801154 287.053782, 362.801154 280.917142 362.801154 280.917142, 362.801154 274.780248 362.801154 274.780248, 366.4839 274.780248 366.4839 274.780248, 370.165884 274.780248 370.165884 274.780248, 373.847614 274.780248 373.847614 274.780248, 377.529598 274.780248 377.529598 274.780248, 377.529598 276.467824 377.529598 276.467824, 377.529598 278.155908 377.529598 278.155908, 377.529598 279.843484 377.529598 279.843484, 377.529598 281.53106 377.529598 281.53106, 379.37059 281.53106 379.37059 281.53106, 381.211582 281.53106 381.211582 281.53106, 383.052574 281.53106 383.052574 281.53106, 384.893566 281.53106 384.893566 281.53106, 384.893566 279.9969 384.893566 279.9969, 384.893566 278.462994 384.893566 278.462994, 384.893566 276.928072 384.893566 276.928072, 384.893566 275.394166 384.893566 275.394166, 391.03046 274.627594 391.03046 274.627594, 397.1671 273.860006 397.1671 273.860006, 403.303994 273.092672 403.303994 273.092672, 409.440126 272.3261 409.440126 272.3261, 409.440126 269.257272 409.440126 269.257272, 409.440126 266.189206 409.440126 266.189206, 409.440126 263.120378 409.440126 263.120378, 409.440126 260.052312 409.440126 260.052312, 403.45741 259.284978 403.45741 259.284978, 397.474186 258.518406 397.474186 258.518406, 391.490708 257.751072 391.490708 257.751072, 385.507484 256.9845 385.507484 256.9845, 385.507484 254.989838 385.507484 254.989838, 385.507484 252.99543 385.507484 252.99543, 385.507484 251.00026 385.507484 251.00026, 385.507484 249.006614 385.507484 249.006614, 383.513076 249.006614 383.513076 249.006614, 381.518668 249.006614 381.518668 249.006614, 379.524006 249.006614 379.524006 249.006614, 377.529598 249.006614 377.529598 249.006614, 377.529598 251.00026 377.529598 251.00026, 377.529598 252.99543 377.529598 252.99543, 377.529598 254.989838 377.529598 254.989838, 377.529598 256.9845 377.529598 256.9845, 373.540782 256.9845 373.540782 256.9845, 369.551966 256.9845 369.551966 256.9845, 365.562896 256.9845 365.562896 256.9845, 361.57408 256.9845 361.57408 256.9845, 361.57408 250.69419 361.57408 250.69419, 361.57408 244.40388 361.57408 244.40388, 361.57408 238.114332 361.57408 238.114332, 361.57408 231.824022 361.57408 231.824022, 346.539312 231.824022 346.539312 231.824022, 331.504544 231.824022 331.504544 231.824022, 316.469776 231.824022 316.469776 231.824022, 301.434246 231.824022 301.434246 231.824022, 253.712472 231.824022 253.712472 231.824022, 205.990444 231.824022 205.990444 231.824022, 158.267908 231.824022 158.267908 231.824022, 110.54588 231.824022 110.54588 231.824022, 95.511112 231.824022 95.511112 231.824022, 80.475582 231.824022 80.475582 231.824022, 65.440814 231.824022 65.440814 231.824022, 50.4063 231.824022 50.4063 231.824022, 50.4063 238.114332 50.4063 238.114332, 50.4063 244.40388 50.4063 244.40388, 50.4063 250.69419 50.4063 250.69419, 50.4063 256.9845 50.4063 256.9845, 46.41723 256.9845 46.41723 256.9845, 42.428414 256.9845 42.428414 256.9845, 38.439598 256.9845 38.439598 256.9845, 34.45129 256.9845 34.45129 256.9845, 34.45129 254.989838 34.45129 254.989838, 34.45129 252.99543 34.45129 252.99543, 34.45129 251.00026 34.45129 251.00026, 34.45129 249.006614 34.45129 249.006614, 32.456882 249.006614 32.456882 249.006614, 30.461712 249.006614 30.461712 249.006614, 28.468066 249.006614 28.468066 249.006614, 26.473658 249.006614 26.473658 249.006614, 26.473658 251.00026 26.473658 251.00026, 26.473658 252.99543 26.473658 252.99543, 26.473658 254.989838 26.473658 254.989838, 26.473658 256.9845 26.473658 256.9845, 20.49018 257.751072 20.49018 257.751072, 14.506956 258.518406 14.506956 258.518406, 8.523478 259.284978 8.523478 259.284978, 2.54 260.052312 2.54 260.052312, 2.54 263.120378 2.54 263.120378, 2.54 266.189206 2.54 266.189206, 2.54 269.257272 2.54 269.257272, 2.54 272.3261 2.54 272.3261, 8.676894 273.092672 8.676894 273.092672, 14.813788 273.860006 14.813788 273.860006, 20.950682 274.627594 20.950682 274.627594, 27.08656 275.394166 27.08656 275.394166, 27.08656 276.928072 27.08656 276.928072, 27.08656 278.462994 27.08656 278.462994, 27.08656 279.9969 27.08656 279.9969, 27.08656 281.53106 27.08656 281.53106, 28.927552 281.53106 28.927552 281.53106, 30.768544 281.53106 30.768544 281.53106, 32.610298 281.53106 32.610298 281.53106, 34.45129 281.53106 34.45129 281.53106, 34.45129 279.843484 34.45129 279.843484, 34.45129 278.155908 34.45129 278.155908, 34.45129 276.467824 34.45129 276.467824, 34.45129 274.780248 34.45129 274.780248, 38.132512 274.780248 38.132512 274.780248, 41.815258 274.780248 41.815258 274.780248, 45.49648 274.780248 45.49648 274.780248, 49.179226 274.780248 49.179226 274.780248, 49.179226 280.917142 49.179226 280.917142, 49.179226 287.053782 49.179226 287.053782, 49.179226 293.190676 49.179226 293.190676, 49.179226 299.32757 49.179226 299.32757, 54.395116 299.32757 54.395116 299.32757, 59.611006 299.32757 59.611006 299.32757, 64.827912 299.32757 64.827912 299.32757, 70.043802 299.32757 70.043802 299.32757, 138.016996 299.32757 138.016996 299.32757, 205.990444 299.32757 205.990444 299.32757, 273.963892 299.32757 273.963892 299.32757, 341.936578 299.32757 341.936578 299.32757, 341.936578 299.32757"/>
      </g>
      <g>
        <polyline style="fill: transparent;stroke: black;stroke-width: 1;" points="385.468622 256.9845, 385.468622 261.586472 385.468622 261.586472, 385.468622 266.189206 385.468622 266.189206, 385.468622 270.792194 385.468622 270.792194, 385.468622 275.394166"/>
      </g>
      <g>
        <polyline style="fill: transparent;stroke: black;stroke-width: 1;" points="26.473658 256.9845, 26.473658 261.586472 26.473658 261.586472, 26.473658 266.189206 26.473658 266.189206, 26.473658 270.792194 26.473658 270.792194, 26.473658 275.394166"/>
      </g>
      <g>
        <polyline style="fill: transparent;stroke: black;stroke-width: 1;" points="12.358878 260.052312, 12.358878 263.46531 12.358878 263.46531, 12.358878 266.878308 12.358878 266.878308, 12.358878 270.291306 12.358878 270.291306, 12.358878 273.704304"/>
      </g>
      <g>
        <polyline style="fill: transparent;stroke: black;stroke-width: 1;" points="377.49099 256.9845, 377.49099 261.586472 377.49099 261.586472, 377.49099 266.189206 377.49099 266.189206, 377.49099 270.792194 377.49099 270.792194, 377.49099 275.394166"/>
      </g>
      <g>
        <polyline style="fill: transparent;stroke: black;stroke-width: 1;" points="34.45129 256.9845, 34.45129 261.433056 34.45129 261.433056, 34.45129 265.882374 34.45129 265.882374, 34.45129 270.331692 34.45129 270.331692, 34.45129 274.780248"/>
      </g>
      <g>
        <polyline style="fill: transparent;stroke: black;stroke-width: 1;" points="399.583402 260.052312, 399.583402 263.46531 399.583402 263.46531, 399.583402 266.878308 399.583402 266.878308, 399.583402 270.291306 399.583402 270.291306, 399.583402 273.704304"/>
      </g>
      <g>
        <polyline style="fill: gray;stroke: black;stroke-width: 1;" points="215.80856 269.87119, 215.037162 273.69262 215.037162 273.69262, 212.932772 276.81428 212.932772 276.81428, 209.811874 278.91867 209.811874 278.91867, 205.990444 279.690068 205.990444 279.690068, 202.168252 278.91867 202.168252 278.91867, 199.047608 276.81428 199.047608 276.81428, 196.942964 273.69262 196.942964 273.69262, 196.17182 269.87119 196.17182 269.87119, 196.942964 266.04976 196.942964 266.04976, 199.047608 262.9281 199.047608 262.9281, 202.168252 260.824472 202.168252 260.824472, 205.990444 260.052312 205.990444 260.052312, 209.811874 260.824472 209.811874 260.824472, 212.932772 262.9281 212.932772 262.9281, 215.037162 266.04976 215.037162 266.04976, 215.80856 269.87119 215.80856 269.87119, 215.80856 269.87119"/>
      </g>
      <g>
        <polyline style="fill: gray;stroke: black;stroke-width: 1;" points="310.922924 269.87119, 310.150764 273.69262 310.150764 273.69262, 308.046374 276.81428 308.046374 276.81428, 304.925476 278.91867 304.925476 278.91867, 301.104046 279.690068 301.104046 279.690068, 297.281854 278.91867 297.281854 278.91867, 294.16121 276.81428 294.16121 276.81428, 292.056566 273.69262 292.056566 273.69262, 291.285422 269.87119 291.285422 269.87119, 292.056566 266.04976 292.056566 266.04976, 294.16121 262.9281 294.16121 262.9281, 297.281854 260.824472 297.281854 260.824472, 301.104046 260.052312 301.104046 260.052312, 304.925476 260.824472 304.925476 260.824472, 308.046374 262.9281 308.046374 262.9281, 310.150764 266.04976 310.150764 266.04976, 310.922924 269.87119 310.922924 269.87119, 310.922924 269.87119"/>
      </g>
      <g>
        <polyline style="fill: gray;stroke: black;stroke-width: 1;" points="121.228104 269.87119, 120.45696 273.69262 120.45696 273.69262, 118.352316 276.81428 118.352316 276.81428, 115.231672 278.91867 115.231672 278.91867, 111.40948 279.690068 111.40948 279.690068, 107.58805 278.91867 107.58805 278.91867, 104.467152 276.81428 104.467152 276.81428, 102.362762 273.69262 102.362762 273.69262, 101.591364 269.87119 101.591364 269.87119, 102.362762 266.04976 102.362762 266.04976, 104.467152 262.9281 104.467152 262.9281, 107.58805 260.824472 107.58805 260.824472, 111.40948 260.052312 111.40948 260.052312, 115.231672 260.824472 115.231672 260.824472, 118.352316 262.9281 118.352316 262.9281, 120.45696 266.04976 120.45696 266.04976, 121.228104 269.87119 121.228104 269.87119, 121.228104 269.87119"/>
      </g>
      <g>
        <polyline style="fill: gray;stroke: black;stroke-width: 1;" points="240.312702 471.994992, 251.665486 471.994992 251.665486 471.994992, 263.019032 471.994992 263.019032 471.994992, 274.371054 471.994992 274.371054 471.994992, 285.724854 471.994992 285.724854 471.994992, 286.18434 470.921588 286.18434 470.921588, 286.644842 469.84793 286.644842 469.84793, 287.105344 468.77351 287.105344 468.77351, 287.565846 467.700106 287.565846 467.700106, 289.099752 467.700106 289.099752 467.700106, 290.633658 467.700106 290.633658 467.700106, 292.167818 467.700106 292.167818 467.700106, 293.702486 467.700106 293.702486 467.700106, 293.702486 466.01253 293.702486 466.01253, 293.702486 464.324954 293.702486 464.324954, 293.702486 462.637632 293.702486 462.637632, 293.702486 460.950056 293.702486 460.950056, 297.38447 460.950056 297.38447 460.950056, 301.066454 460.950056 301.066454 460.950056, 304.748438 460.950056 304.748438 460.950056, 308.430422 460.950056 308.430422 460.950056, 314.106814 448.21602 314.106814 448.21602, 319.783206 435.482492 319.783206 435.482492, 325.459598 422.748456 325.459598 422.748456, 331.13599 410.015182 331.13599 410.015182, 331.442822 363.990128 331.442822 363.990128, 331.749908 317.965074 331.749908 317.965074, 332.05674 271.939766 332.05674 271.939766, 332.363064 225.914712 332.363064 225.914712, 336.505296 225.914712 336.505296 225.914712, 340.647782 225.914712 340.647782 225.914712, 344.790014 225.914712 344.790014 225.914712, 348.9325 225.914712 348.9325 225.914712, 352.153982 229.136194 352.153982 229.136194, 355.376226 232.358438 355.376226 232.358438, 358.596946 235.57992 358.596946 235.57992, 361.820206 238.801656 361.820206 238.801656, 361.820206 233.739182 361.820206 233.739182, 361.820206 228.676708 361.820206 228.676708, 361.820206 223.613218 361.820206 223.613218, 361.820206 218.550744 361.820206 218.550744, 363.506766 218.550744 363.506766 218.550744, 365.195104 218.550744 365.195104 218.550744, 366.881918 218.550744 366.881918 218.550744, 368.570002 218.550744 368.570002 218.550744, 368.570002 212.414104 368.570002 212.414104, 368.570002 206.27721 368.570002 206.27721, 368.570002 200.140316 368.570002 200.140316, 368.570002 194.003422 368.570002 194.003422, 367.18875 194.003422 367.18875 194.003422, 365.807498 194.003422 365.807498 194.003422, 364.42777 194.003422 364.42777 194.003422, 363.046264 194.003422 363.046264 194.003422, 363.046264 188.787532 363.046264 188.787532, 363.046264 183.571642 363.046264 183.571642, 363.046264 178.355752 363.046264 178.355752, 363.046264 173.138846 363.046264 173.138846, 361.359704 173.138846 361.359704 173.138846, 359.671366 173.138846 359.671366 173.138846, 357.984806 173.138846 357.984806 173.138846, 356.296468 173.138846 356.296468 173.138846, 353.994974 175.44034 353.994974 175.44034, 351.69348 177.741834 351.69348 177.741834, 349.393002 180.043074 349.393002 180.043074, 347.091508 182.344568 347.091508 182.344568, 344.636598 182.344568 344.636598 182.344568, 342.181688 182.344568 342.181688 182.344568, 339.726778 182.344568 339.726778 182.344568, 337.272884 182.344568 337.272884 182.344568, 339.726778 152.734772 339.726778 152.734772, 342.181688 123.125738 342.181688 123.125738, 344.636598 93.515942 344.636598 93.515942, 347.091508 63.906908 347.091508 63.906908, 347.091508 48.565054 347.091508 48.565054, 347.091508 33.223454 347.091508 33.223454, 347.091508 17.8816 347.091508 17.8816, 347.091508 2.54 347.091508 2.54, 342.029034 2.54 342.029034 2.54, 336.965798 2.54 336.965798 2.54, 331.903324 2.54 331.903324 2.54, 326.840088 2.54 326.840088 2.54, 326.840088 3.76682 326.840088 3.76682, 326.840088 4.99364 326.840088 4.99364, 326.840088 6.223 326.840088 6.223, 326.840088 7.44982 326.840088 7.44982, 330.215748 7.44982 330.215748 7.44982, 333.5909 7.44982 333.5909 7.44982, 336.965798 7.44982 336.965798 7.44982, 340.340696 7.44982 340.340696 7.44982, 340.340696 8.7528399999999 340.340696 8.7528399999999, 340.340696 10.0584 340.340696 10.0584, 340.340696 11.36142 340.340696 11.36142, 340.340696 12.66444 340.340696 12.66444, 337.4263 12.66444 337.4263 12.66444, 334.510888 12.66444 334.510888 12.66444, 331.596492 12.66444 331.596492 12.66444, 328.68108 12.66444 328.68108 12.66444, 328.68108 13.969492 328.68108 13.969492, 328.68108 15.273274 328.68108 15.273274, 328.68108 16.577056 328.68108 16.577056, 328.68108 17.8816 328.68108 17.8816, 331.596492 17.8816 331.596492 17.8816, 334.510888 17.8816 334.510888 17.8816, 337.4263 17.8816 337.4263 17.8816, 340.340696 17.8816 340.340696 17.8816, 340.340696 19.108674 340.340696 19.108674, 340.340696 20.335748 340.340696 20.335748, 340.340696 21.563584 340.340696 21.563584, 340.340696 22.790658 340.340696 22.790658, 322.852034 22.790658 322.852034 22.790658, 305.362356 22.790658 305.362356 22.790658, 287.872678 22.790658 287.872678 22.790658, 270.383 22.790658 270.383 22.790658, 270.383 17.728184 270.383 17.728184, 270.383 12.66444 270.383 12.66444, 270.383 7.60222 270.383 7.60222, 270.383 2.54 270.383 2.54, 262.865616 2.54 262.865616 2.54, 255.348232 2.54 255.348232 2.54, 247.830086 2.54 247.830086 2.54, 240.312702 2.54 240.312702 2.54, 223.055688 2.54 223.055688 2.54, 205.797912 2.54 205.797912 2.54, 188.539882 2.54 188.539882 2.54, 171.282868 2.54 171.282868 2.54, 163.765484 2.54 163.765484 2.54, 156.2481 2.54 156.2481 2.54, 148.730716 2.54 148.730716 2.54, 141.21257 2.54 141.21257 2.54, 141.21257 7.60222 141.21257 7.60222, 141.21257 12.66444 141.21257 12.66444, 141.21257 17.728184 141.21257 17.728184, 141.21257 22.790658 141.21257 22.790658, 123.723654 22.790658 123.723654 22.790658, 106.23423 22.790658 106.23423 22.790658, 88.744552 22.790658 88.744552 22.790658, 71.254874 22.790658 71.254874 22.790658, 71.254874 21.563584 71.254874 21.563584, 71.254874 20.335748 71.254874 20.335748, 71.254874 19.108674 71.254874 19.108674, 71.254874 17.8816 71.254874 17.8816, 74.170286 17.8816 74.170286 17.8816, 77.084682 17.8816 77.084682 17.8816, 80.000094 17.8816 80.000094 17.8816, 82.914744 17.8816 82.914744 17.8816, 82.914744 16.577056 82.914744 16.577056, 82.914744 15.273274 82.914744 15.273274, 82.914744 13.969492 82.914744 13.969492, 82.914744 12.66444 82.914744 12.66444, 80.000094 12.66444 80.000094 12.66444, 77.084682 12.66444 77.084682 12.66444, 74.170286 12.66444 74.170286 12.66444, 71.254874 12.66444 71.254874 12.66444, 71.254874 11.36142 71.254874 11.36142, 71.254874 10.0584 71.254874 10.0584, 71.254874 8.7528399999999 71.254874 8.7528399999999, 71.254874 7.44982 71.254874 7.44982, 74.629772 7.44982 74.629772 7.44982, 78.005686 7.44982 78.005686 7.44982, 81.380584 7.44982 81.380584 7.44982, 84.755482 7.44982 84.755482 7.44982, 84.755482 6.223 84.755482 6.223, 84.755482 4.99364 84.755482 4.99364, 84.755482 3.76682 84.755482 3.76682, 84.755482 2.54 84.755482 2.54, 79.693008 2.54 79.693008 2.54, 74.629772 2.54 74.629772 2.54, 69.567298 2.54 69.567298 2.54, 64.504062 2.54 64.504062 2.54, 64.504062 17.8816 64.504062 17.8816, 64.504062 33.223454 64.504062 33.223454, 64.504062 48.565054 64.504062 48.565054, 64.504062 63.906908 64.504062 63.906908, 66.958972 93.515942 66.958972 93.515942, 69.413882 123.125738 69.413882 123.125738, 71.868792 152.734772 71.868792 152.734772, 74.32294 182.344568 74.32294 182.344568, 71.868792 182.344568 71.868792 182.344568, 69.413882 182.344568 69.413882 182.344568, 66.958972 182.344568 66.958972 182.344568, 64.504062 182.344568 64.504062 182.344568, 62.203584 180.043074 62.203584 180.043074, 59.90209 177.741834 59.90209 177.741834, 57.600596 175.44034 57.600596 175.44034, 55.299356 173.138846 55.299356 173.138846, 53.61178 173.138846 53.61178 173.138846, 51.924204 173.138846 51.924204 173.138846, 50.236882 173.138846 50.236882 173.138846, 48.549306 173.138846 48.549306 173.138846, 48.549306 178.355752 48.549306 178.355752, 48.549306 183.571642 48.549306 183.571642, 48.549306 188.787532 48.549306 188.787532, 48.549306 194.003422 48.549306 194.003422, 47.168816 194.003422 47.168816 194.003422, 45.788326 194.003422 45.788326 194.003422, 44.40682 194.003422 44.40682 194.003422, 43.02633 194.003422 43.02633 194.003422, 43.02633 200.140316 43.02633 200.140316, 43.02633 206.27721 43.02633 206.27721, 43.02633 212.414104 43.02633 212.414104, 43.02633 218.550744 43.02633 218.550744, 44.713906 218.550744 44.713906 218.550744, 46.401228 218.550744 46.401228 218.550744, 48.088804 218.550744 48.088804 218.550744, 49.77638 218.550744 49.77638 218.550744, 49.77638 223.613218 49.77638 223.613218, 49.77638 228.676708 49.77638 228.676708, 49.77638 233.739182 49.77638 233.739182, 49.77638 238.801656 49.77638 238.801656, 52.998624 235.57992 52.998624 235.57992, 56.220106 232.358438 56.220106 232.358438, 59.441588 229.136194 59.441588 229.136194, 62.663832 225.914712 62.663832 225.914712, 66.805556 225.914712 66.805556 225.914712, 70.947788 225.914712 70.947788 225.914712, 75.090274 225.914712 75.090274 225.914712, 79.23276 225.914712 79.23276 225.914712, 79.539592 271.939766 79.539592 271.939766, 79.846678 317.965074 79.846678 317.965074, 80.152748 363.990128 80.152748 363.990128, 80.459834 410.015182 80.459834 410.015182, 86.136226 422.748456 86.136226 422.748456, 91.812618 435.482492 91.812618 435.482492, 97.48901 448.21602 97.48901 448.21602, 103.165402 460.950056 103.165402 460.950056, 106.848148 460.950056 106.848148 460.950056, 110.529116 460.950056 110.529116 460.950056, 114.211862 460.950056 114.211862 460.950056, 117.893846 460.950056 117.893846 460.950056, 117.893846 462.637632 117.893846 462.637632, 117.893846 464.324954 117.893846 464.324954, 117.893846 466.01253 117.893846 466.01253, 117.893846 467.700106 117.893846 467.700106, 119.428006 467.700106 119.428006 467.700106, 120.961912 467.700106 120.961912 467.700106, 122.49658 467.700106 122.49658 467.700106, 124.03074 467.700106 124.03074 467.700106, 124.49048 468.77351 124.49048 468.77351, 124.950728 469.84793 124.950728 469.84793, 125.41123 470.921588 125.41123 470.921588, 125.87097 471.994992 125.87097 471.994992, 137.224516 471.994992 137.224516 471.994992, 148.5773 471.994992 148.5773 471.994992, 159.930084 471.994992 159.930084 471.994992, 171.282868 471.994992 171.282868 471.994992, 188.539882 471.994992 188.539882 471.994992, 205.797912 471.994992 205.797912 471.994992, 223.055688 471.994992 223.055688 471.994992, 240.312702 471.994992 240.312702 471.994992, 240.312702 471.994992"/>
      </g>
      <g>
        <polyline style="fill: transparent;stroke: black;stroke-width: 1;" points="79.270606 231.636824, 142.534132 231.636824 142.534132 231.636824, 205.797912 231.636824 205.797912 231.636824, 269.061438 231.636824 269.061438 231.636824, 332.324964 231.636824"/>
      </g>
      <g>
        <polyline style="fill: transparent;stroke: black;stroke-width: 1;" points="141.21257 7.44982, 173.290484 7.44982 173.290484 7.44982, 205.366874 7.44982 205.366874 7.44982, 237.444026 7.44982 237.444026 7.44982, 269.521178 7.44982"/>
      </g>
      <g>
        <polyline style="fill: transparent;stroke: black;stroke-width: 1;" points="141.21257 22.790658, 141.21257 33.479232 141.21257 33.479232, 141.21257 44.167044 141.21257 44.167044, 141.21257 54.855364 141.21257 54.855364, 141.21257 65.543938 141.21257 65.543938, 139.678664 103.79583 139.678664 103.79583, 138.144504 142.04696 138.144504 142.04696, 136.610598 180.298852 136.610598 180.298852, 135.076438 218.550744 135.076438 218.550744, 135.076438 264.372852 135.076438 264.372852, 135.076438 310.19496 135.076438 310.19496, 135.076438 356.016052 135.076438 356.016052, 135.076438 401.83816 135.076438 401.83816, 134.053326 416.56508 134.053326 416.56508, 133.030976 431.292254 133.030976 431.292254, 132.008626 446.019174 132.008626 446.019174, 130.98526 460.745332"/>
      </g>
      <g>
        <polyline style="fill: transparent;stroke: black;stroke-width: 1;" points="80.404716 401.83816, 143.103854 401.83816 143.103854 401.83816, 205.803246 401.83816 205.803246 401.83816, 268.502638 401.83816 268.502638 401.83816, 331.201776 401.83816"/>
      </g>
      <g>
        <polyline style="fill: transparent;stroke: black;stroke-width: 1;" points="330.273914 410.015182, 323.485256 404.51786 323.485256 404.51786, 307.107844 392.423904 307.107844 392.423904, 287.126172 380.32944 287.126172 380.32944, 269.521178 374.832118 269.521178 374.832118, 237.444026 374.832118 237.444026 374.832118, 205.366874 374.832118 205.366874 374.832118, 173.290484 374.832118 173.290484 374.832118, 141.21257 374.832118 141.21257 374.832118, 123.608338 380.32944 123.608338 380.32944, 103.62565 392.423904 103.62565 392.423904, 87.248492 404.51786 87.248492 404.51786, 80.459834 410.015182"/>
      </g>
      <g>
        <polyline style="fill: transparent;stroke: black;stroke-width: 1;" points="64.504062 49.17821, 135.15086 49.17821 135.15086 49.17821, 205.797912 49.17821 205.797912 49.17821, 276.44471 49.17821 276.44471 49.17821, 347.091508 49.17821"/>
      </g>
      <g>
        <polyline style="fill: transparent;stroke: black;stroke-width: 1;" points="269.521178 22.790658, 269.521178 33.479232 269.521178 33.479232, 269.521178 44.167044 269.521178 44.167044, 269.521178 54.855364 269.521178 54.855364, 269.521178 65.543938 269.521178 65.543938, 271.055084 103.79583 271.055084 103.79583, 272.589244 142.04696 272.589244 142.04696, 274.12315 180.298852 274.12315 180.298852, 275.657056 218.550744 275.657056 218.550744, 275.657056 264.372852 275.657056 264.372852, 275.657056 310.19496 275.657056 310.19496, 275.657056 356.016052 275.657056 356.016052, 275.657056 401.83816 275.657056 401.83816, 276.680422 416.56508 276.680422 416.56508, 277.703534 431.292254 277.703534 431.292254, 278.725884 446.019174 278.725884 446.019174, 279.748488 460.745332"/>
      </g>
      <g>
        <polyline style="fill: gray;stroke: black;stroke-width: 1;" points="178.264566 291.37356, 173.968664 291.37356 173.968664 291.37356, 169.673016 291.37356 169.673016 291.37356, 165.377876 291.37356 165.377876 291.37356, 161.081212 291.37356 161.081212 291.37356, 161.081212 235.734352 161.081212 235.734352, 161.081212 180.094382 161.081212 180.094382, 161.081212 124.45492 161.081212 124.45492, 161.081212 68.815712 161.081212 68.815712, 165.377876 68.815712 165.377876 68.815712, 169.673016 68.815712 169.673016 68.815712, 173.968664 68.815712 173.968664 68.815712, 178.264566 68.815712 178.264566 68.815712, 178.264566 124.45492 178.264566 124.45492, 178.264566 180.094382 178.264566 180.094382, 178.264566 235.734352 178.264566 235.734352, 178.264566 291.37356 178.264566 291.37356, 178.264566 291.37356"/>
      </g>
      <g>
        <polyline style="fill: gray;stroke: black;stroke-width: 1;" points="250.512834 291.37356, 246.217186 291.37356 246.217186 291.37356, 241.922046 291.37356 241.922046 291.37356, 237.626144 291.37356 237.626144 291.37356, 233.330242 291.37356 233.330242 291.37356, 233.330242 235.734352 233.330242 235.734352, 233.330242 180.094382 233.330242 180.094382, 233.330242 124.45492 233.330242 124.45492, 233.330242 68.815712 233.330242 68.815712, 237.626144 68.815712 237.626144 68.815712, 241.922046 68.815712 241.922046 68.815712, 246.217186 68.815712 246.217186 68.815712, 250.512834 68.815712 250.512834 68.815712, 250.512834 124.45492 250.512834 124.45492, 250.512834 180.094382 250.512834 180.094382, 250.512834 235.734352 250.512834 235.734352, 250.512834 291.37356 250.512834 291.37356, 250.512834 291.37356"/>
      </g>
      <g>
        <polyline style="fill: gray;stroke: black;stroke-width: 1;" points="202.346814 291.37356, 198.051674 291.37356 198.051674 291.37356, 193.756026 291.37356 193.756026 291.37356, 189.460124 291.37356 189.460124 291.37356, 185.164222 291.37356 185.164222 291.37356, 185.164222 235.734352 185.164222 235.734352, 185.164222 180.094382 185.164222 180.094382, 185.164222 124.45492 185.164222 124.45492, 185.164222 68.815712 185.164222 68.815712, 189.460124 68.815712 189.460124 68.815712, 193.756026 68.815712 193.756026 68.815712, 198.051674 68.815712 198.051674 68.815712, 202.346814 68.815712 202.346814 68.815712, 202.346814 124.45492 202.346814 124.45492, 202.346814 180.094382 202.346814 180.094382, 202.346814 235.734352 202.346814 235.734352, 202.346814 291.37356 202.346814 291.37356, 202.346814 291.37356"/>
      </g>
      <g>
        <polyline style="fill: gray;stroke: black;stroke-width: 1;" points="226.429824 291.37356, 222.134938 291.37356 222.134938 291.37356, 217.839036 291.37356 217.839036 291.37356, 213.543134 291.37356 213.543134 291.37356, 209.247232 291.37356 209.247232 291.37356, 209.247232 235.734352 209.247232 235.734352, 209.247232 180.094382 209.247232 180.094382, 209.247232 124.45492 209.247232 124.45492, 209.247232 68.815712 209.247232 68.815712, 213.543134 68.815712 213.543134 68.815712, 217.839036 68.815712 217.839036 68.815712, 222.134938 68.815712 222.134938 68.815712, 226.429824 68.815712 226.429824 68.815712, 226.429824 124.45492 226.429824 124.45492, 226.429824 180.094382 226.429824 180.094382, 226.429824 235.734352 226.429824 235.734352, 226.429824 291.37356 226.429824 291.37356, 226.429824 291.37356"/>
      </g>
    </g>
  </g>
</svg>
