<?xml version="1.0" encoding="utf-8"?>
<!-- Generator: SVG Export - SVG Version: 6.00 Build 1  -->
<!-- FXGUID: [019421B7-682D-11EA-B113-525400685065] SYMID: [13314]  -->
<svg xmlns="http://www.w3.org/2000/svg" version="1.1" ch_offset="0" color_bar_width="66" width="425.175426" height="464.314794" origin_x="208.639918" origin_y="227.16617" ch_offset_x="208.5905912" ch_offset_y="40" color_offset_x="208.639918" color_offset_y="-4">
  <g>
    <title>Layer 1</title>
    <g>
      <g>
        <polyline style="fill: gray;stroke: black;stroke-width: 1;" points="390.073642 159.33674, 390.073642 99.828096 390.073642 99.828096, 24.941784 99.828096 24.941784 99.828096, 24.941784 159.33674 24.941784 159.33674, 9.449562 182.493412 9.449562 182.493412, 2.54 212.624162 2.54 212.624162, 2.54 241.530886 2.54 241.530886, 8.796274 270.202914 8.796274 270.202914, 24.941784 294.818308 24.941784 294.818308, 24.941784 354.327206 24.941784 354.327206, 390.073642 354.327206 390.073642 354.327206, 390.073642 294.818308 390.073642 294.818308, 405.710136 271.345406 405.710136 271.345406, 412.475426 241.530886 412.475426 241.530886, 412.475426 212.624162 412.475426 212.624162, 405.219408 181.750208 405.219408 181.750208, 390.073642 159.33674 390.073642 159.33674, 390.073642 159.33674"/>
      </g>
      <g>
        <polyline style="fill: gray;stroke: black;stroke-width: 1;" points="44.390056 279.343358, 27.107388 279.343358 27.107388 279.343358, 13.281152 247.04929 13.281152 247.04929, 13.281152 207.10525 13.281152 207.10525, 27.107388 174.81169 27.107388 174.81169, 44.390056 174.81169 44.390056 174.81169, 44.390056 279.343358 44.390056 279.343358, 44.390056 279.343358"/>
      </g>
      <g>
        <polyline style="fill: gray;stroke: black;stroke-width: 1;" points="401.734274 247.04929, 387.908038 279.343358 387.908038 279.343358, 370.62537 279.343358 370.62537 279.343358, 370.62537 174.81169 370.62537 174.81169, 387.908038 174.81169 387.908038 174.81169, 401.734274 207.10525 401.734274 207.10525, 401.734274 247.04929 401.734274 247.04929, 401.734274 247.04929"/>
      </g>
      <g>
        <polyline style="fill: gray;stroke: black;stroke-width: 1;" points="391.85977 159.053022, 350.499426 155.368752 350.499426 155.368752, 64.516 155.368752 64.516 155.368752, 23.155148 159.053022 23.155148 159.053022, 13.885164 200.813162 13.885164 200.813162, 13.885164 253.341886 13.885164 253.341886, 23.155148 295.102026 23.155148 295.102026, 64.516 298.786296 64.516 298.786296, 350.499426 298.786296 350.499426 298.786296, 391.85977 295.102026 391.85977 295.102026, 401.130516 253.341886 401.130516 253.341886, 401.130516 200.813162 401.130516 200.813162, 391.85977 159.053022"/>
      </g>
      <g>
        <polyline style="fill: gray;stroke: black;stroke-width: 1;" points="350.499426 249.80011, 332.981046 249.80011 332.981046 249.80011, 332.62443 204.354938 332.62443 204.354938, 350.499426 204.354938 350.499426 204.354938, 350.499426 249.80011"/>
      </g>
      <g>
        <polyline style="fill: gray;stroke: black;stroke-width: 1;" points="350.499426 298.786296, 391.85977 295.102026 391.85977 295.102026, 401.130516 253.341886 401.130516 253.341886, 401.130516 200.813162 401.130516 200.813162, 391.85977 159.053022 391.85977 159.053022, 350.499426 155.368752 350.499426 155.368752, 350.499426 298.786296"/>
      </g>
      <g>
        <polyline style="fill: gray;stroke: black;stroke-width: 1;" points="64.516 249.80011, 82.212688 249.80011 82.212688 249.80011, 82.390234 204.354938 82.390234 204.354938, 64.516 204.354938 64.516 204.354938, 64.516 249.80011"/>
      </g>
      <g>
        <polyline style="fill: gray;stroke: black;stroke-width: 1;" points="64.516 298.786296, 23.155148 295.102026 23.155148 295.102026, 13.885164 253.341886 13.885164 253.341886, 13.885164 200.813162 13.885164 200.813162, 23.155148 159.053022 23.155148 159.053022, 64.516 155.368752 64.516 155.368752, 64.516 298.786296"/>
      </g>
      <g>
        <polyline style="fill: gray;stroke: black;stroke-width: 1;" points="317.327788 58.859928, 310.909716 58.859928 310.909716 58.859928, 300.925738 32.922718 300.925738 32.922718, 296.646854 32.922718 296.646854 32.922718, 283.811218 2.54 283.811218 2.54, 131.204208 2.54 131.204208 2.54, 118.36781 32.922718 118.36781 32.922718, 114.089688 32.922718 114.089688 32.922718, 104.105964 58.859928 104.105964 58.859928, 97.687638 58.859928 97.687638 58.859928, 89.843102 90.447114 89.843102 90.447114, 83.217258 146.546062 83.217258 146.546062, 81.999582 187.061348 81.999582 187.061348, 84.097114 283.054806 84.097114 283.054806, 89.843102 401.965414 89.843102 401.965414, 103.221536 421.735504 103.221536 421.735504, 122.643646 440.341258 122.643646 440.341258, 139.521692 449.11137 139.521692 449.11137, 154.737054 451.615048 154.737054 451.615048, 155.806648 451.615048 155.806648 451.615048, 155.806648 436.794148 155.806648 436.794148, 167.929052 436.794148 167.929052 436.794148, 167.929052 451.615048 167.929052 451.615048, 178.626262 451.615048 178.626262 451.615048, 178.626262 436.794148 178.626262 436.794148, 190.749428 436.794148 190.749428 436.794148, 190.749428 451.615048 190.749428 451.615048, 201.446384 451.615048 201.446384 451.615048, 201.446384 436.794148 201.446384 436.794148, 213.569042 436.794148 213.569042 436.794148, 213.569042 451.615048 213.569042 451.615048, 224.265998 451.615048 224.265998 451.615048, 224.265998 436.794148 224.265998 436.794148, 236.389418 436.794148 236.389418 436.794148, 236.389418 451.615048 236.389418 451.615048, 247.085612 451.615048 247.085612 451.615048, 247.085612 436.794148 247.085612 436.794148, 259.208016 436.794148 259.208016 436.794148, 259.208016 451.615048 259.208016 451.615048, 260.278626 451.615048 260.278626 451.615048, 276.893782 448.626992 276.893782 448.626992, 299.01261 435.072536 299.01261 435.072536, 312.744358 420.55796 312.744358 420.55796, 325.171562 401.965414 325.171562 401.965414, 330.898246 283.610558 330.898246 283.610558, 333.016098 187.061348 333.016098 187.061348, 331.403706 140.702284 331.403706 140.702284, 324.739762 88.151208 324.739762 88.151208, 317.327788 58.859928 317.327788 58.859928, 317.327788 58.859928"/>
      </g>
      <g>
        <polyline style="fill: gray;stroke: black;stroke-width: 1;" points="310.667654 58.859928, 300.684692 32.922718 300.684692 32.922718, 113.974372 32.922718 113.974372 32.922718, 103.991156 58.859928 103.991156 58.859928, 310.667654 58.859928"/>
      </g>
      <g>
        <polyline style="fill: gray;stroke: black;stroke-width: 1;" points="136.294622 58.859928, 148.899372 32.922718 148.899372 32.922718, 127.4191 32.922718 127.4191 32.922718, 114.814604 58.859928 114.814604 58.859928, 136.294622 58.859928"/>
      </g>
      <g>
        <polyline style="fill: gray;stroke: black;stroke-width: 1;" points="278.720042 58.859928, 266.116308 32.922718 266.116308 32.922718, 287.595564 32.922718 287.595564 32.922718, 300.200822 58.859928 300.200822 58.859928, 278.720042 58.859928"/>
      </g>
      <g>
        <polyline style="fill: gray;stroke: black;stroke-width: 1;" points="155.112212 260.19506, 133.86308 260.19506 133.86308 260.19506, 133.86308 58.859928 133.86308 58.859928, 155.112212 58.859928 155.112212 58.859928, 155.112212 260.19506"/>
      </g>
      <g>
        <polyline style="fill: gray;stroke: black;stroke-width: 1;" points="197.125844 260.19506, 175.87595 260.19506 175.87595 260.19506, 175.87595 58.859928 175.87595 58.859928, 197.125844 58.859928 197.125844 58.859928, 197.125844 260.19506"/>
      </g>
      <g>
        <polyline style="fill: gray;stroke: black;stroke-width: 1;" points="239.138714 260.19506, 217.889582 260.19506 217.889582 260.19506, 217.889582 58.859928 217.889582 58.859928, 239.138714 58.859928 239.138714 58.859928, 239.138714 260.19506"/>
      </g>
      <g>
        <polyline style="fill: gray;stroke: black;stroke-width: 1;" points="281.1526 260.19506, 259.903468 260.19506 259.903468 260.19506, 259.903468 58.859928 259.903468 58.859928, 281.1526 58.859928 281.1526 58.859928, 281.1526 260.19506"/>
      </g>
      <g>
        <polyline style="fill: gray;stroke: black;stroke-width: 1;" points="150.906226 366.916462, 133.86308 366.916462 133.86308 366.916462, 133.86308 311.211976 133.86308 311.211976, 150.906226 311.211976 150.906226 311.211976, 150.906226 366.916462"/>
      </g>
      <g>
        <polyline style="fill: gray;stroke: black;stroke-width: 1;" points="184.604152 366.916462, 167.561006 366.916462 167.561006 366.916462, 167.561006 311.211976 167.561006 311.211976, 184.604152 311.211976 184.604152 311.211976, 184.604152 366.916462"/>
      </g>
      <g>
        <polyline style="fill: gray;stroke: black;stroke-width: 1;" points="218.30284 366.916462, 201.259694 366.916462 201.259694 366.916462, 201.259694 311.211976 201.259694 311.211976, 218.30284 311.211976 218.30284 311.211976, 218.30284 366.916462"/>
      </g>
      <g>
        <polyline style="fill: gray;stroke: black;stroke-width: 1;" points="252.000766 366.916462, 234.95762 366.916462 234.95762 366.916462, 234.95762 311.211976 234.95762 311.211976, 252.000766 311.211976 252.000766 311.211976, 252.000766 366.916462"/>
      </g>
      <g>
        <polyline style="fill: gray;stroke: black;stroke-width: 1;" points="281.1526 366.916462, 264.108692 366.916462 264.108692 366.916462, 264.108692 311.211976 264.108692 311.211976, 281.1526 311.211976 281.1526 311.211976, 281.1526 366.916462"/>
      </g>
      <g>
        <line x1="84.235036" y1="137.597896" x2="332.61681" y2="137.597896" style="stroke-width: 1;stroke: black;"/>
      </g>
    </g>
  </g>
</svg>
