<?xml version="1.0" encoding="utf-8"?>
<!-- Generator: SVG Export - SVG Version: 6.00 Build 1  -->
<!-- FXGUID: [0C95AEB2-824A-11ED-9BEA-525400685065] SYMID: [18499]  -->
<svg xmlns="http://www.w3.org/2000/svg" version="1.1" ch_offset="0" color_bar_width="66" width="1212.2404" height="175.11395" origin_x="598.93454" origin_y="82.868516" ch_offset_x="602.0828954" ch_offset_y="40" color_offset_x="598.93454" color_offset_y="-4">
  <g>
    <title>Layer 1</title>
    <g>
      <g>
        <polyline style="fill: gray;stroke: black;stroke-width: 1;" points="1159.00962 2.54, 1167.8285 15.29969 1167.8285 15.29969, 1176.64738 28.05938 1176.64738 28.05938, 1185.4688 40.819832 1185.4688 40.819832, 1194.28768 53.579522 1194.28768 53.579522, 1195.1081 60.428632 1195.1081 60.428632, 1196.91404 76.284328 1196.91404 76.284328, 1198.71998 94.111064 1198.71998 94.111064, 1199.5404 106.870754 1199.5404 106.870754, 1198.69712 119.982488 1198.69712 119.982488, 1196.1622 138.58367 1196.1622 138.58367, 1191.94072 155.212796 1191.94072 155.212796, 1186.03014 162.41395 1186.03014 162.41395, 1171.22956 162.41395 1171.22956 162.41395, 1147.0005 162.41395 1147.0005 162.41395, 1123.33532 162.41395 1123.33532 162.41395, 1110.2213 162.41395 1110.2213 162.41395, 1106.03538 161.007044 1106.03538 161.007044, 1102.06028 157.910276 1102.06028 157.910276, 1097.66354 154.814524 1097.66354 154.814524, 1092.20762 153.407618 1092.20762 153.407618, 1018.0066 153.407618 1018.0066 153.407618, 862.81514 153.407618 862.81514 153.407618, 709.171048 153.407618 709.171048 153.407618, 639.614164 153.407618 639.614164 153.407618, 620.326928 153.407618 620.326928 153.407618, 601.040454 153.407618 601.040454 153.407618, 581.753218 153.407618 581.753218 153.407618, 562.466744 153.407618 562.466744 153.407618, 492.90986 153.407618 492.90986 153.407618, 339.26526 153.407618 339.26526 153.407618, 184.0738 153.407618 184.0738 153.407618, 109.87024 153.407618 109.87024 153.407618, 104.41686 154.814524 104.41686 154.814524, 100.02012 157.910276 100.02012 157.910276, 96.04502 161.007044 96.04502 161.007044, 91.85656 162.41395 91.85656 162.41395, 78.74508 162.41395 78.74508 162.41395, 55.0799 162.41395 55.0799 162.41395, 30.85084 162.41395 30.85084 162.41395, 16.05026 162.41395 16.05026 162.41395, 10.13968 155.212796 10.13968 155.212796, 5.9182 138.58367 5.9182 138.58367, 3.3858200000001 119.982488 3.3858200000001 119.982488, 2.54 106.870754 2.54 106.870754, 3.36042 94.111064 3.36042 94.111064, 5.1663600000001 76.284328 5.1663600000001 76.284328, 6.9748400000001 60.428632 6.9748400000001 60.428632, 7.7952600000001 53.579522 7.7952600000001 53.579522, 16.61414 40.819832 16.61414 40.819832, 25.43302 28.05938 25.43302 28.05938, 34.2519 15.29969 34.2519 15.29969, 43.07078 2.54 43.07078 2.54, 322.05422 2.54 322.05422 2.54, 601.040454 2.54 601.040454 2.54, 880.02618 2.54 880.02618 2.54, 1159.00962 2.54 1159.00962 2.54, 1159.00962 2.54"/>
      </g>
      <g>
        <polyline style="fill: transparent;stroke: black;stroke-width: 1;" points="666.044896 41.434512, 666.044896 56.292496 666.044896 56.292496, 666.044896 71.149718 666.044896 71.149718, 666.044896 86.007702 666.044896 86.007702, 666.044896 100.865686"/>
      </g>
      <g>
        <polyline style="fill: transparent;stroke: black;stroke-width: 1;" points="2.54 100.865686, 301.7901 100.865686 301.7901 100.865686, 601.040454 100.865686 601.040454 100.865686, 900.2903 100.865686 900.2903 100.865686, 1199.5404 100.865686"/>
      </g>
      <g>
        <polyline style="fill: transparent;stroke: black;stroke-width: 1;" points="151.52624 41.434512, 151.52624 56.292496 151.52624 56.292496, 151.52624 71.149718 151.52624 71.149718, 151.52624 86.007702 151.52624 86.007702, 151.52624 100.865686"/>
      </g>
      <g>
        <polyline style="fill: transparent;stroke: black;stroke-width: 1;" points="407.097992 41.434512, 407.097992 56.292496 407.097992 56.292496, 407.097992 71.149718 407.097992 71.149718, 407.097992 86.007702 407.097992 86.007702, 407.097992 100.865686"/>
      </g>
      <g>
        <polyline style="fill: transparent;stroke: black;stroke-width: 1;" points="923.86658 41.434512, 923.86658 56.292496 923.86658 56.292496, 923.86658 71.149718 923.86658 71.149718, 923.86658 86.007702 923.86658 86.007702, 923.86658 100.865686"/>
      </g>
      <g>
        <polyline style="fill: transparent;stroke: black;stroke-width: 1;" points="16.18742 41.434512, 309.25262 41.434512 309.25262 41.434512, 602.316296 41.434512 602.316296 41.434512, 895.38048 41.434512 895.38048 41.434512, 1188.44314 41.434512"/>
      </g>
    </g>
  </g>
</svg>
