<?xml version="1.0" encoding="utf-8"?>
<!-- Generator: www.crescit.com, SVG Export - SVG Version: 6.00 Build 1  -->
<!-- FXGUID: [9541F0B2-3756-11EE-B8F9-525400685065] SYMID: [19037]  -->
<svg xmlns="http://www.w3.org/2000/svg" version="1.1" ch_offset="0" color_bar_width="66" width="440.24042" height="603.16618" origin_x="214.860886" origin_y="297.37812" ch_offset_x="217.1955016" ch_offset_y="40" color_offset_x="214.860886" color_offset_y="-4">
  <g>
    <title>Layer 1</title>
    <g>
      <g>
        <polyline style="fill: transparent;stroke: black;stroke-width: 1;" points="379.324616 390.759442, 385.24434 384.819398 385.24434 384.819398, 398.269206 371.1829 398.269206 371.1829, 411.294072 356.125018 411.294072 356.125018, 417.214558 345.9226 417.214558 345.9226, 417.214558 321.609974 417.214558 321.609974, 417.214558 297.29684 417.214558 297.29684, 417.214558 272.984468 417.214558 272.984468, 417.214558 248.67108 417.214558 248.67108, 411.294072 238.468662 411.294072 238.468662, 398.269206 223.411288 398.269206 223.411288, 385.24434 209.775044 385.24434 209.775044, 379.324616 203.835"/>
      </g>
      <g>
        <polyline style="fill: transparent;stroke: black;stroke-width: 1;" points="379.324616 373.077486, 383.07391 366.920526 383.07391 366.920526, 391.323068 352.711258 391.323068 352.711258, 399.571464 336.844894 399.571464 336.844894, 403.32152 325.71436 403.32152 325.71436, 403.32152 312.453274 403.32152 312.453274, 403.32152 299.191172 403.32152 299.191172, 403.32152 285.930086 403.32152 285.930086, 403.32152 272.667984 403.32152 272.667984, 399.571464 261.538466 399.571464 261.538466, 391.323068 245.672102 391.323068 245.672102, 383.07391 231.462834 383.07391 231.462834, 379.324616 225.305874"/>
      </g>
      <g>
        <polyline style="fill: transparent;stroke: black;stroke-width: 1;" points="48.417734 390.759442, 42.496994 384.819398 42.496994 384.819398, 29.472382 371.1829 29.472382 371.1829, 16.447516 356.125018 16.447516 356.125018, 10.527792 345.9226 10.527792 345.9226, 10.527792 321.609974 10.527792 321.609974, 10.527792 297.29684 10.527792 297.29684, 10.527792 272.984468 10.527792 272.984468, 10.527792 248.67108 10.527792 248.67108, 16.447516 238.468662 16.447516 238.468662, 29.472382 223.411288 29.472382 223.411288, 42.496994 209.775044 42.496994 209.775044, 48.417734 203.835"/>
      </g>
      <g>
        <polyline style="fill: transparent;stroke: black;stroke-width: 1;" points="48.417734 373.077486, 44.668186 366.920526 44.668186 366.920526, 36.419282 352.711258 36.419282 352.711258, 28.170124 336.844894 28.170124 336.844894, 24.42083 325.71436 24.42083 325.71436, 24.42083 312.453274 24.42083 312.453274, 24.42083 299.191172 24.42083 299.191172, 24.42083 285.930086 24.42083 285.930086, 24.42083 272.667984 24.42083 272.667984, 28.170124 261.538466 28.170124 261.538466, 36.419282 245.672102 36.419282 245.672102, 44.668186 231.462834 44.668186 231.462834, 48.417734 225.305874"/>
      </g>
      <g>
        <polyline style="fill: gray;stroke: black;stroke-width: 1;" points="48.417734 405.915114, 51.08194 409.86202 51.08194 409.86202, 57.416446 418.545264 57.416446 418.545264, 64.935354 427.228508 64.935354 427.228508, 71.152004 431.175414 71.152004 431.175414, 142.511272 431.175414 142.511272 431.175414, 213.870286 431.175414 213.870286 431.175414, 285.229554 431.175414 285.229554 431.175414, 356.588822 431.175414 356.588822 431.175414, 362.806234 427.228508 362.806234 427.228508, 370.325142 418.545264 370.325142 418.545264, 376.66041 409.86202 376.66041 409.86202, 379.324616 405.915114 379.324616 405.915114, 379.324616 352.55327 379.324616 352.55327, 379.324616 299.191172 379.324616 299.191172, 379.324616 245.829328 379.324616 245.829328, 379.324616 192.467484 379.324616 192.467484, 376.66041 188.520578 376.66041 188.520578, 370.325142 179.838096 370.325142 179.838096, 362.806234 171.154852 362.806234 171.154852, 356.588822 167.207946 356.588822 167.207946, 285.229554 167.207946 285.229554 167.207946, 213.870286 167.207946 213.870286 167.207946, 142.511272 167.207946 142.511272 167.207946, 71.152004 167.207946 71.152004 167.207946, 64.935354 171.154852 64.935354 171.154852, 57.416446 179.838096 57.416446 179.838096, 51.08194 188.520578 51.08194 188.520578, 48.417734 192.467484 48.417734 192.467484, 48.417734 245.829328 48.417734 245.829328, 48.417734 299.191172 48.417734 299.191172, 48.417734 352.55327 48.417734 352.55327, 48.417734 405.915114 48.417734 405.915114, 48.417734 405.915114"/>
      </g>
      <g>
        <polyline style="fill: gray;stroke: black;stroke-width: 1;" points="379.546612 366.85601, 382.733042 366.85601 382.733042 366.85601, 390.834118 366.85601 390.834118 366.85601, 401.658328 366.85601 401.658328 366.85601, 413.015684 366.85601 413.015684 366.85601, 421.412924 364.487968 421.412924 364.487968, 425.725082 358.804464 425.725082 358.804464, 427.313344 351.937574 427.313344 351.937574, 427.54042 346.017088 427.54042 346.017088, 427.54042 323.125338 427.54042 323.125338, 427.54042 300.233588 427.54042 300.233588, 427.54042 277.342092 427.54042 277.342092, 427.54042 254.450342 427.54042 254.450342, 427.313344 248.529856 427.313344 248.529856, 425.725082 241.662966 425.725082 241.662966, 421.412924 235.9787 421.412924 235.9787, 413.015684 233.610658 413.015684 233.610658, 401.658328 233.610658 401.658328 233.610658, 390.834118 233.610658 390.834118 233.610658, 382.733042 233.610658 382.733042 233.610658, 379.546612 233.610658 379.546612 233.610658, 379.546612 266.921742 379.546612 266.921742, 379.546612 300.233588 379.546612 300.233588, 379.546612 333.544926 379.546612 333.544926, 379.546612 366.85601 379.546612 366.85601, 379.546612 366.85601"/>
      </g>
      <g>
        <polyline style="fill: gray;stroke: black;stroke-width: 1;" points="379.546612 366.85601, 377.293124 368.237262 377.293124 368.237262, 371.883432 371.276626 371.883432 371.276626, 365.341154 374.31599 365.341154 374.31599, 359.69194 375.697242 359.69194 375.697242, 287.366202 375.697242 287.366202 375.697242, 215.039448 375.697242 215.039448 375.697242, 142.712948 375.697242 142.712948 375.697242, 70.38721 375.697242 70.38721 375.697242, 64.738504 374.31599 64.738504 374.31599, 58.197242 371.276626 58.197242 371.276626, 52.787296 368.237262 52.787296 368.237262, 50.534062 366.85601 50.534062 366.85601, 50.534062 333.544926 50.534062 333.544926, 50.534062 300.233588 50.534062 300.233588, 50.534062 266.921742 50.534062 266.921742, 50.534062 233.610658 50.534062 233.610658, 52.787296 232.229406 52.787296 232.229406, 58.197242 229.190804 58.197242 229.190804, 64.738504 226.15144 64.738504 226.15144, 70.38721 224.770188 70.38721 224.770188, 142.712948 224.770188 142.712948 224.770188, 215.039448 224.770188 215.039448 224.770188, 287.366202 224.770188 287.366202 224.770188, 359.69194 224.770188 359.69194 224.770188, 365.341154 226.15144 365.341154 226.15144, 371.883432 229.190804 371.883432 229.190804, 377.293124 232.229406 377.293124 232.229406, 379.546612 233.610658 379.546612 233.610658, 379.546612 266.921742 379.546612 266.921742, 379.546612 300.233588 379.546612 300.233588, 379.546612 333.544926 379.546612 333.544926, 379.546612 366.85601 379.546612 366.85601, 379.546612 366.85601"/>
      </g>
      <g>
        <polyline style="fill: gray;stroke: black;stroke-width: 1;" points="50.534062 366.85601, 47.347378 366.85601 47.347378 366.85601, 39.246302 366.85601 39.246302 366.85601, 28.422092 366.85601 28.422092 366.85601, 17.064736 366.85601 17.064736 366.85601, 8.667496 364.487968 8.667496 364.487968, 4.356354 358.804464 4.356354 358.804464, 2.767076 351.937574 2.767076 351.937574, 2.54 346.017088 2.54 346.017088, 2.54 323.125338 2.54 323.125338, 2.54 300.233588 2.54 300.233588, 2.54 277.342092 2.54 277.342092, 2.54 254.450342 2.54 254.450342, 2.767076 248.529856 2.767076 248.529856, 4.356354 241.662966 4.356354 241.662966, 8.667496 235.9787 8.667496 235.9787, 17.064736 233.610658 17.064736 233.610658, 28.422092 233.610658 28.422092 233.610658, 39.246302 233.610658 39.246302 233.610658, 47.347378 233.610658 47.347378 233.610658, 50.534062 233.610658 50.534062 233.610658, 50.534062 266.921742 50.534062 266.921742, 50.534062 300.233588 50.534062 300.233588, 50.534062 333.544926 50.534062 333.544926, 50.534062 366.85601 50.534062 366.85601, 50.534062 366.85601"/>
      </g>
      <g>
        <polyline style="fill: gray;stroke: black;stroke-width: 1;" points="239.632744 590.46618, 259.237734 590.24012 259.237734 590.24012, 283.284422 589.5975 283.284422 589.5975, 305.081432 588.60182 305.081432 588.60182, 317.93815 587.30896 317.93815 587.30896, 329.689206 571.11646 329.689206 571.11646, 347.53931 537.341318 347.53931 537.341318, 363.84992 503.92076 363.84992 503.92076, 370.984526 488.794552 370.984526 488.794552, 370.984526 423.908474 370.984526 423.908474, 370.984526 359.021888 370.984526 359.021888, 370.984526 294.135048 370.984526 294.135048, 370.984526 229.249224 370.984526 229.249224, 368.615468 227.828348 368.615468 227.828348, 366.248188 226.407472 366.248188 226.407472, 363.879384 224.986596 363.879384 224.986596, 361.512104 223.56572 361.512104 223.56572, 353.934268 175.571658 353.934268 175.571658, 346.356432 127.577088 346.356432 127.577088, 338.778596 79.583026 338.778596 79.583026, 331.199236 31.58998 331.199236 31.58998, 325.990204 29.53766 325.990204 29.53766, 320.779648 27.4828 320.779648 27.4828, 315.570616 25.43302 315.570616 25.43302, 310.360314 23.3807 310.360314 23.3807, 308.938676 18.17116 308.938676 18.17116, 307.518562 12.95908 307.518562 12.95908, 306.098448 7.74954 306.098448 7.74954, 304.67681 2.54 304.67681 2.54, 287.468564 2.54 287.468564 2.54, 270.260318 2.54 270.260318 2.54, 253.052072 2.54 253.052072 2.54, 235.843826 2.54 235.843826 2.54, 225.580956 2.54 225.580956 2.54, 215.319356 2.54 215.319356 2.54, 205.05801 2.54 205.05801 2.54, 194.79514 2.54 194.79514 2.54, 177.586894 2.54 177.586894 2.54, 160.378648 2.54 160.378648 2.54, 143.170402 2.54 143.170402 2.54, 125.962156 2.54 125.962156 2.54, 124.54128 7.74954 124.54128 7.74954, 123.119642 12.95908 123.119642 12.95908, 121.698766 18.17116 121.698766 18.17116, 120.27789 23.3807 120.27789 23.3807, 115.06835 25.43302 115.06835 25.43302, 109.858556 27.4828 109.858556 27.4828, 104.648762 29.53766 104.648762 29.53766, 99.438968 31.58998 99.438968 31.58998, 91.861132 79.583026 91.861132 79.583026, 84.282534 127.577088 84.282534 127.577088, 76.704698 175.571658 76.704698 175.571658, 69.126862 223.56572 69.126862 223.56572, 66.75882 224.986596 66.75882 224.986596, 64.390778 226.407472 64.390778 226.407472, 62.021974 227.828348 62.021974 227.828348, 59.653678 229.249224 59.653678 229.249224, 59.653678 294.135048 59.653678 294.135048, 59.653678 359.021888 59.653678 359.021888, 59.653678 423.908474 59.653678 423.908474, 59.653678 488.794552 59.653678 488.794552, 66.788284 503.92076 66.788284 503.92076, 83.098894 537.341318 83.098894 537.341318, 100.948236 571.11646 100.948236 571.11646, 112.700054 587.30896 112.700054 587.30896, 125.557534 588.60182 125.557534 588.60182, 147.353782 589.5975 147.353782 589.5975, 171.40047 590.24012 171.40047 590.24012, 191.006222 590.46618 191.006222 590.46618, 203.163678 590.46618 203.163678 590.46618, 215.319356 590.46618 215.319356 590.46618, 227.475288 590.46618 227.475288 590.46618, 239.632744 590.46618 239.632744 590.46618, 239.632744 590.46618"/>
      </g>
      <g>
        <polyline style="fill: gray;stroke: black;stroke-width: 1;" points="370.984526 348.601538, 373.195088 348.601538 373.195088 348.601538, 375.40438 348.601538 375.40438 348.601538, 377.614942 348.601538 377.614942 348.601538, 379.825758 348.601538 379.825758 348.601538, 379.825758 324.289166 379.825758 324.289166, 379.825758 299.97654 379.825758 299.97654, 379.825758 275.664168 379.825758 275.664168, 379.825758 251.351542 379.825758 251.351542, 377.614942 251.351542 377.614942 251.351542, 375.40438 251.351542 375.40438 251.351542, 373.195088 251.351542 373.195088 251.351542, 370.984526 251.351542 370.984526 251.351542, 370.984526 275.664168 370.984526 275.664168, 370.984526 299.97654 370.984526 299.97654, 370.984526 324.289166 370.984526 324.289166, 370.984526 348.601538 370.984526 348.601538, 370.984526 348.601538"/>
      </g>
      <g>
        <polyline style="fill: gray;stroke: black;stroke-width: 1;" points="50.813208 348.601538, 53.024024 348.601538 53.024024 348.601538, 55.233824 348.601538 55.233824 348.601538, 57.443878 348.601538 57.443878 348.601538, 59.653678 348.601538 59.653678 348.601538, 59.653678 324.289166 59.653678 324.289166, 59.653678 299.97654 59.653678 299.97654, 59.653678 275.664168 59.653678 275.664168, 59.653678 251.351542 59.653678 251.351542, 57.443878 251.351542 57.443878 251.351542, 55.233824 251.351542 55.233824 251.351542, 53.024024 251.351542 53.024024 251.351542, 50.813208 251.351542 50.813208 251.351542, 50.813208 275.664168 50.813208 275.664168, 50.813208 299.97654 50.813208 299.97654, 50.813208 324.289166 50.813208 324.289166, 50.813208 348.601538 50.813208 348.601538, 50.813208 348.601538"/>
      </g>
      <g>
        <polyline style="fill: transparent;stroke: black;stroke-width: 1;" points="120.27789 23.3807, 167.798242 23.3807 167.798242 23.3807, 215.319356 23.3807 215.319356 23.3807, 262.8392 23.3807 262.8392 23.3807, 310.360314 23.3807"/>
      </g>
      <g>
        <polyline style="fill: transparent;stroke: black;stroke-width: 1;" points="96.474026 50.364644, 155.847796 50.364644 155.847796 50.364644, 215.22182 50.364644 215.22182 50.364644, 274.596606 50.364644 274.596606 50.364644, 333.969614 50.364644"/>
      </g>
      <g>
        <polyline style="fill: gray;stroke: black;stroke-width: 1;" points="137.01268 563.9435, 134.960868 563.9435 134.960868 563.9435, 132.908294 563.9435 132.908294 563.9435, 130.85572 563.9435 130.85572 563.9435, 128.803146 563.9435 128.803146 563.9435, 128.803146 518.31748 128.803146 518.31748, 128.803146 472.691714 128.803146 472.691714, 128.803146 427.064932 128.803146 427.064932, 128.803146 381.439928 128.803146 381.439928, 130.85572 381.439928 130.85572 381.439928, 132.908294 381.439928 132.908294 381.439928, 134.960868 381.439928 134.960868 381.439928, 137.01268 381.439928 137.01268 381.439928, 137.01268 427.064932 137.01268 427.064932, 137.01268 472.691714 137.01268 472.691714, 137.01268 518.31748 137.01268 518.31748, 137.01268 563.9435 137.01268 563.9435, 137.01268 563.9435"/>
      </g>
      <g>
        <polyline style="fill: gray;stroke: black;stroke-width: 1;" points="309.339996 571.52032, 317.372238 556.02886 317.372238 556.02886, 327.65365 521.94841 327.65365 521.94841, 336.515202 487.867452 336.515202 487.867452, 340.284054 472.375484 340.284054 472.375484, 339.494876 447.90487 339.494876 447.90487, 338.704174 423.434256 338.704174 423.434256, 337.914996 398.963642 337.914996 398.963642, 337.126072 374.493028 337.126072 374.493028, 327.120504 265.237722 327.120504 265.237722, 312.497978 160.330896 312.497978 160.330896, 299.29582 81.472786 299.29582 81.472786, 293.553388 50.364644 293.553388 50.364644, 253.865888 50.364644 253.865888 50.364644, 214.178388 50.364644 214.178388 50.364644, 174.490888 50.364644 174.490888 50.364644, 134.802626 50.364644 134.802626 50.364644, 129.059686 81.472786 129.059686 81.472786, 115.857274 160.330896 115.857274 160.330896, 101.235002 265.237722 101.235002 265.237722, 91.229434 374.493028 91.229434 374.493028, 90.439494 398.963642 90.439494 398.963642, 89.650316 423.434256 89.650316 423.434256, 88.861392 447.90487 88.861392 447.90487, 88.072214 472.375484 88.072214 472.375484, 91.841066 487.867452 91.841066 487.867452, 100.701602 521.94841 100.701602 521.94841, 110.983268 556.02886 110.983268 556.02886, 119.015256 571.52032 119.015256 571.52032, 166.59606 571.52032 166.59606 571.52032, 214.178388 571.52032 214.178388 571.52032, 261.75843 571.52032 261.75843 571.52032, 309.339996 571.52032 309.339996 571.52032, 309.339996 571.52032"/>
      </g>
      <g>
        <polyline style="fill: gray;stroke: black;stroke-width: 1;" points="169.850816 563.9435, 167.798242 563.9435 167.798242 563.9435, 165.74643 563.9435 165.74643 563.9435, 163.693856 563.9435 163.693856 563.9435, 161.641282 563.9435 161.641282 563.9435, 161.641282 518.31748 161.641282 518.31748, 161.641282 472.691714 161.641282 472.691714, 161.641282 427.064932 161.641282 427.064932, 161.641282 381.439928 161.641282 381.439928, 163.693856 381.439928 163.693856 381.439928, 165.74643 381.439928 165.74643 381.439928, 167.798242 381.439928 167.798242 381.439928, 169.850816 381.439928 169.850816 381.439928, 169.850816 427.064932 169.850816 427.064932, 169.850816 472.691714 169.850816 472.691714, 169.850816 518.31748 169.850816 518.31748, 169.850816 563.9435 169.850816 563.9435, 169.850816 563.9435"/>
      </g>
      <g>
        <polyline style="fill: gray;stroke: black;stroke-width: 1;" points="186.270138 563.9435, 184.217564 563.9435 184.217564 563.9435, 182.16499 563.9435 182.16499 563.9435, 180.11394 563.9435 180.11394 563.9435, 178.061366 563.9435 178.061366 563.9435, 178.061366 518.31748 178.061366 518.31748, 178.061366 472.691714 178.061366 472.691714, 178.061366 427.064932 178.061366 427.064932, 178.061366 381.439928 178.061366 381.439928, 180.11394 381.439928 180.11394 381.439928, 182.16499 381.439928 182.16499 381.439928, 184.217564 381.439928 184.217564 381.439928, 186.270138 381.439928 186.270138 381.439928, 186.270138 427.064932 186.270138 427.064932, 186.270138 472.691714 186.270138 472.691714, 186.270138 518.31748 186.270138 518.31748, 186.270138 563.9435 186.270138 563.9435, 186.270138 563.9435"/>
      </g>
      <g>
        <polyline style="fill: gray;stroke: black;stroke-width: 1;" points="202.689206 563.9435, 200.636632 563.9435 200.636632 563.9435, 198.584058 563.9435 198.584058 563.9435, 196.531484 563.9435 196.531484 563.9435, 194.480434 563.9435 194.480434 563.9435, 194.480434 518.31748 194.480434 518.31748, 194.480434 472.691714 194.480434 472.691714, 194.480434 427.064932 194.480434 427.064932, 194.480434 381.439928 194.480434 381.439928, 196.531484 381.439928 196.531484 381.439928, 198.584058 381.439928 198.584058 381.439928, 200.636632 381.439928 200.636632 381.439928, 202.689206 381.439928 202.689206 381.439928, 202.689206 427.064932 202.689206 427.064932, 202.689206 472.691714 202.689206 472.691714, 202.689206 518.31748 202.689206 518.31748, 202.689206 563.9435 202.689206 563.9435, 202.689206 563.9435"/>
      </g>
      <g>
        <polyline style="fill: gray;stroke: black;stroke-width: 1;" points="219.108274 563.9435, 217.0557 563.9435 217.0557 563.9435, 215.003126 563.9435 215.003126 563.9435, 212.950552 563.9435 212.950552 563.9435, 210.897978 563.9435 210.897978 563.9435, 210.897978 518.31748 210.897978 518.31748, 210.897978 472.691714 210.897978 472.691714, 210.897978 427.064932 210.897978 427.064932, 210.897978 381.439928 210.897978 381.439928, 212.950552 381.439928 212.950552 381.439928, 215.003126 381.439928 215.003126 381.439928, 217.0557 381.439928 217.0557 381.439928, 219.108274 381.439928 219.108274 381.439928, 219.108274 427.064932 219.108274 427.064932, 219.108274 472.691714 219.108274 472.691714, 219.108274 518.31748 219.108274 518.31748, 219.108274 563.9435 219.108274 563.9435, 219.108274 563.9435"/>
      </g>
      <g>
        <polyline style="fill: gray;stroke: black;stroke-width: 1;" points="235.527596 563.9435, 233.475022 563.9435 233.475022 563.9435, 231.422448 563.9435 231.422448 563.9435, 229.369874 563.9435 229.369874 563.9435, 227.318824 563.9435 227.318824 563.9435, 227.318824 518.31748 227.318824 518.31748, 227.318824 472.691714 227.318824 472.691714, 227.318824 427.064932 227.318824 427.064932, 227.318824 381.439928 227.318824 381.439928, 229.369874 381.439928 229.369874 381.439928, 231.422448 381.439928 231.422448 381.439928, 233.475022 381.439928 233.475022 381.439928, 235.527596 381.439928 235.527596 381.439928, 235.527596 427.064932 235.527596 427.064932, 235.527596 472.691714 235.527596 472.691714, 235.527596 518.31748 235.527596 518.31748, 235.527596 563.9435 235.527596 563.9435, 235.527596 563.9435"/>
      </g>
      <g>
        <polyline style="fill: gray;stroke: black;stroke-width: 1;" points="251.946664 563.9435, 249.89409 563.9435 249.89409 563.9435, 247.841516 563.9435 247.841516 563.9435, 245.788942 563.9435 245.788942 563.9435, 243.736368 563.9435 243.736368 563.9435, 243.736368 518.31748 243.736368 518.31748, 243.736368 472.691714 243.736368 472.691714, 243.736368 427.064932 243.736368 427.064932, 243.736368 381.439928 243.736368 381.439928, 245.788942 381.439928 245.788942 381.439928, 247.841516 381.439928 247.841516 381.439928, 249.89409 381.439928 249.89409 381.439928, 251.946664 381.439928 251.946664 381.439928, 251.946664 427.064932 251.946664 427.064932, 251.946664 472.691714 251.946664 472.691714, 251.946664 518.31748 251.946664 518.31748, 251.946664 563.9435 251.946664 563.9435, 251.946664 563.9435"/>
      </g>
      <g>
        <polyline style="fill: gray;stroke: black;stroke-width: 1;" points="268.365986 563.9435, 266.313158 563.9435 266.313158 563.9435, 264.260584 563.9435 264.260584 563.9435, 262.20801 563.9435 262.20801 563.9435, 260.155436 563.9435 260.155436 563.9435, 260.155436 518.31748 260.155436 518.31748, 260.155436 472.691714 260.155436 472.691714, 260.155436 427.064932 260.155436 427.064932, 260.155436 381.439928 260.155436 381.439928, 262.20801 381.439928 262.20801 381.439928, 264.260584 381.439928 264.260584 381.439928, 266.313158 381.439928 266.313158 381.439928, 268.365986 381.439928 268.365986 381.439928, 268.365986 427.064932 268.365986 427.064932, 268.365986 472.691714 268.365986 472.691714, 268.365986 518.31748 268.365986 518.31748, 268.365986 563.9435 268.365986 563.9435, 268.365986 563.9435"/>
      </g>
      <g>
        <polyline style="fill: gray;stroke: black;stroke-width: 1;" points="284.785054 563.9435, 282.73248 563.9435 282.73248 563.9435, 280.679906 563.9435 280.679906 563.9435, 278.627332 563.9435 278.627332 563.9435, 276.574758 563.9435 276.574758 563.9435, 276.574758 518.31748 276.574758 518.31748, 276.574758 472.691714 276.574758 472.691714, 276.574758 427.064932 276.574758 427.064932, 276.574758 381.439928 276.574758 381.439928, 278.627332 381.439928 278.627332 381.439928, 280.679906 381.439928 280.679906 381.439928, 282.73248 381.439928 282.73248 381.439928, 284.785054 381.439928 284.785054 381.439928, 284.785054 427.064932 284.785054 427.064932, 284.785054 472.691714 284.785054 472.691714, 284.785054 518.31748 284.785054 518.31748, 284.785054 563.9435 284.785054 563.9435, 284.785054 563.9435"/>
      </g>
      <g>
        <polyline style="fill: gray;stroke: black;stroke-width: 1;" points="301.204122 563.9435, 299.151548 563.9435 299.151548 563.9435, 297.098974 563.9435 297.098974 563.9435, 295.0464 563.9435 295.0464 563.9435, 292.993826 563.9435 292.993826 563.9435, 292.993826 518.31748 292.993826 518.31748, 292.993826 472.691714 292.993826 472.691714, 292.993826 427.064932 292.993826 427.064932, 292.993826 381.439928 292.993826 381.439928, 295.0464 381.439928 295.0464 381.439928, 297.098974 381.439928 297.098974 381.439928, 299.151548 381.439928 299.151548 381.439928, 301.204122 381.439928 301.204122 381.439928, 301.204122 427.064932 301.204122 427.064932, 301.204122 472.691714 301.204122 472.691714, 301.204122 518.31748 301.204122 518.31748, 301.204122 563.9435 301.204122 563.9435, 301.204122 563.9435"/>
      </g>
      <g>
        <polyline style="fill: gray;stroke: black;stroke-width: 1;" points="153.43251 563.9435, 151.379936 563.9435 151.379936 563.9435, 149.327362 563.9435 149.327362 563.9435, 147.274788 563.9435 147.274788 563.9435, 145.222976 563.9435 145.222976 563.9435, 145.222976 518.31748 145.222976 518.31748, 145.222976 472.691714 145.222976 472.691714, 145.222976 427.064932 145.222976 427.064932, 145.222976 381.439928 145.222976 381.439928, 147.274788 381.439928 147.274788 381.439928, 149.327362 381.439928 149.327362 381.439928, 151.379936 381.439928 151.379936 381.439928, 153.43251 381.439928 153.43251 381.439928, 153.43251 427.064932 153.43251 427.064932, 153.43251 472.691714 153.43251 472.691714, 153.43251 518.31748 153.43251 518.31748, 153.43251 563.9435 153.43251 563.9435, 153.43251 563.9435"/>
      </g>
    </g>
  </g>
</svg>
