<?xml version="1.0" encoding="utf-8"?>
<!-- Generator: www.crescit.com, SVG Export - SVG Version: 6.00 Build 1  -->
<!-- FXGUID: [0ACCD8A8-68D6-11EA-8495-525400685065] SYMID: [13316]  -->
<svg xmlns="http://www.w3.org/2000/svg" version="1.1" ch_offset="0" color_bar_width="66" width="323.435218" height="233.239818" origin_x="156.214572" origin_y="110.869984" ch_offset_x="155.2864306" ch_offset_y="40" color_offset_x="156.214572" color_offset_y="-4">
  <g>
    <title>Layer 1</title>
    <g>
      <g>
        <polyline style="fill: gray;stroke: black;stroke-width: 1;" points="267.989558 52.954682, 267.989558 13.826998 267.989558 13.826998, 45.286168 13.826998 45.286168 13.826998, 45.286168 52.954682 45.286168 52.954682, 25.261062 71.978266 25.261062 71.978266, 18.487898 95.352108 18.487898 95.352108, 18.487898 127.72771 18.487898 127.72771, 24.815292 150.372064 24.815292 150.372064, 45.286168 170.125136 45.286168 170.125136, 45.286168 209.253074 45.286168 209.253074, 267.989558 209.253074 267.989558 209.253074, 267.989558 170.125136 267.989558 170.125136, 289.186874 149.114002 289.186874 149.114002, 294.78732 127.72771 294.78732 127.72771, 294.78732 95.352108 294.78732 95.352108, 287.415478 71.039736 287.415478 71.039736, 267.989558 52.954682 267.989558 52.954682, 267.989558 52.954682"/>
      </g>
      <g>
        <polyline style="fill: gray;stroke: black;stroke-width: 1;" points="63.301372 164.20465, 49.155604 164.20465 49.155604 164.20465, 31.045912 146.32813 31.045912 146.32813, 26.884884 120.441212 26.884884 120.441212, 26.884884 102.638606 26.884884 102.638606, 34.961322 69.25691 34.961322 69.25691, 49.155604 58.874406 49.155604 58.874406, 63.301372 58.874406 63.301372 58.874406, 63.301372 164.20465 63.301372 164.20465, 63.301372 164.20465"/>
      </g>
      <g>
        <polyline style="fill: gray;stroke: black;stroke-width: 1;" points="286.39008 120.441212, 280.936954 149.273768 280.936954 149.273768, 264.11936 164.20465 264.11936 164.20465, 249.973592 164.20465 249.973592 164.20465, 249.973592 58.874406 249.973592 58.874406, 264.11936 58.874406 264.11936 58.874406, 281.505152 75.025504 281.505152 75.025504, 286.39008 102.638606 286.39008 102.638606, 286.39008 120.441212 286.39008 120.441212, 286.39008 120.441212"/>
      </g>
      <g>
        <polyline style="fill: gray;stroke: black;stroke-width: 1;" points="310.735218 57.676034, 272.366232 53.372512 272.366232 53.372512, 272.366232 53.372512 272.366232 53.372512, 40.908986 53.372512 40.908986 53.372512, 40.908986 53.372512 40.908986 53.372512, 2.54 57.676034 2.54 57.676034, 2.54 165.403784 2.54 165.403784, 40.908986 169.706544 40.908986 169.706544, 272.366232 169.706544 272.366232 169.706544, 310.735218 165.403784 310.735218 165.403784, 310.735218 57.676034"/>
      </g>
      <g>
        <polyline style="fill: gray;stroke: black;stroke-width: 1;" points="272.366232 144.427448, 262.18388 144.427448 262.18388 144.427448, 262.18388 78.65237 262.18388 78.65237, 272.366232 78.65237 272.366232 78.65237, 272.366232 144.427448"/>
      </g>
      <g>
        <polyline style="fill: gray;stroke: black;stroke-width: 1;" points="272.366232 169.706544, 310.735218 165.403784 310.735218 165.403784, 310.735218 57.676034 310.735218 57.676034, 272.366232 53.372512 272.366232 53.372512, 272.366232 169.706544"/>
      </g>
      <g>
        <polyline style="fill: gray;stroke: black;stroke-width: 1;" points="40.908986 144.427448, 51.091338 144.427448 51.091338 144.427448, 51.091338 78.65237 51.091338 78.65237, 40.908986 78.65237 40.908986 78.65237, 40.908986 144.427448"/>
      </g>
      <g>
        <polyline style="fill: gray;stroke: black;stroke-width: 1;" points="40.908986 169.706544, 2.54 165.403784 2.54 165.403784, 2.54 57.676034 2.54 57.676034, 40.908986 53.372512 40.908986 53.372512, 40.908986 169.706544"/>
      </g>
      <g>
        <polyline style="fill: gray;stroke: black;stroke-width: 1;" points="250.929394 2.54, 258.413504 41.880282 258.413504 41.880282, 262.18388 82.245962 262.18388 82.245962, 262.18388 193.97091 262.18388 193.97091, 251.74575 204.838554 251.74575 204.838554, 237.236508 215.053418 237.236508 215.053418, 221.186248 220.539818 221.186248 220.539818, 92.089478 220.539818 92.089478 220.539818, 76.319126 215.2015 76.319126 215.2015, 62.847982 205.977998 62.847982 205.977998, 51.091338 193.97091 51.091338 193.97091, 51.091338 82.245962 51.091338 82.245962, 54.573932 43.777662 54.573932 43.777662, 62.34557 2.54 62.34557 2.54, 250.929394 2.54 250.929394 2.54, 250.929394 2.54"/>
      </g>
      <g>
        <polyline style="fill: gray;stroke: black;stroke-width: 1;" points="262.18388 111.539528, 51.091338 111.539528 51.091338 111.539528, 51.091338 193.97091 51.091338 193.97091, 262.18388 193.97091 262.18388 193.97091, 262.18388 111.539528"/>
      </g>
      <g>
        <polyline style="fill: gray;stroke: black;stroke-width: 1;" points="82.820256 193.97091, 63.394336 193.97091 63.394336 193.97091, 63.394336 111.539528 63.394336 111.539528, 82.820256 111.539528 82.820256 111.539528, 82.820256 193.97091"/>
      </g>
      <g>
        <polyline style="fill: gray;stroke: black;stroke-width: 1;" points="124.585222 193.97091, 105.159302 193.97091 105.159302 193.97091, 105.159302 111.539528 105.159302 111.539528, 124.585222 111.539528 124.585222 111.539528, 124.585222 193.97091"/>
      </g>
      <g>
        <polyline style="fill: gray;stroke: black;stroke-width: 1;" points="166.35095 193.97091, 146.92503 193.97091 146.92503 193.97091, 146.92503 111.539528 146.92503 111.539528, 166.35095 111.539528 166.35095 111.539528, 166.35095 193.97091"/>
      </g>
      <g>
        <polyline style="fill: gray;stroke: black;stroke-width: 1;" points="208.115662 193.97091, 188.689742 193.97091 188.689742 193.97091, 188.689742 111.539528 188.689742 111.539528, 208.115662 111.539528 208.115662 111.539528, 208.115662 193.97091"/>
      </g>
      <g>
        <polyline style="fill: gray;stroke: black;stroke-width: 1;" points="249.880628 193.97091, 230.45547 193.97091 230.45547 193.97091, 230.45547 111.539528 230.45547 111.539528, 249.880628 111.539528 249.880628 111.539528, 249.880628 193.97091"/>
      </g>
    </g>
  </g>
</svg>
