<?xml version="1.0" encoding="utf-8"?>
<!-- Generator: SVG Export - SVG Version: 6.00 Build 1  -->
<!-- FXGUID: [FD751FC3-E68B-11EE-8C28-525400685065] SYMID: [19429]  -->
<svg xmlns="http://www.w3.org/2000/svg" version="1.1" ch_offset="0" color_bar_width="66" width="493.240314" height="566.726832" origin_x="241.643154" origin_y="313.61888" ch_offset_x="243.665121" ch_offset_y="40" color_offset_x="241.643154" color_offset_y="-4">
  <g>
    <title>Layer 1</title>
    <g>
      <g>
        <polyline style="fill: gray;stroke: black;stroke-width: 1;" points="401.242022 351.43694, 407.369518 351.43694 407.369518 351.43694, 413.497014 351.43694 413.497014 351.43694, 419.62451 351.43694 419.62451 351.43694, 425.752006 351.43694 425.752006 351.43694, 425.752006 344.228166 425.752006 344.228166, 425.752006 337.019392 425.752006 337.019392, 425.752006 329.810364 425.752006 329.810364, 425.752006 322.600828 425.752006 322.600828, 430.077372 322.600828 430.077372 322.600828, 434.402738 322.600828 434.402738 322.600828, 438.728104 322.600828 438.728104 322.600828, 443.05347 322.600828 443.05347 322.600828, 443.05347 324.583552 443.05347 324.583552, 443.05347 326.56653 443.05347 326.56653, 443.05347 328.548492 443.05347 328.548492, 443.05347 330.53147 443.05347 330.53147, 445.216788 330.53147 445.216788 330.53147, 447.379598 330.53147 447.379598 330.53147, 449.542154 330.53147 449.542154 330.53147, 451.70471 330.53147 451.70471 330.53147, 451.70471 328.729086 451.70471 328.729086, 451.70471 326.926956 451.70471 326.926956, 451.70471 325.124826 451.70471 325.124826, 451.70471 323.322442 451.70471 323.322442, 458.913738 322.420996 458.913738 322.420996, 466.122512 321.520312 466.122512 321.520312, 473.331286 320.618866 473.331286 320.618866, 480.540314 319.717166 480.540314 319.717166, 480.540314 316.113668 480.540314 316.113668, 480.540314 312.508392 480.540314 312.508392, 480.540314 308.903878 480.540314 308.903878, 480.540314 305.299618 480.540314 305.299618, 473.512134 304.398934 473.512134 304.398934, 466.482938 303.497234 466.482938 303.497234, 459.454758 302.595788 459.454758 302.595788, 452.425816 301.695104 452.425816 301.695104, 452.425816 299.352716 452.425816 299.352716, 452.425816 297.009312 452.425816 297.009312, 452.425816 294.666924 452.425816 294.666924, 452.425816 292.32352 452.425816 292.32352, 450.082412 292.32352 450.082412 292.32352, 447.740024 292.32352 447.740024 292.32352, 445.39662 292.32352 445.39662 292.32352, 443.05347 292.32352 443.05347 292.32352, 443.05347 294.666924 443.05347 294.666924, 443.05347 297.009312 443.05347 297.009312, 443.05347 299.352716 443.05347 299.352716, 443.05347 301.695104 443.05347 301.695104, 438.367678 301.695104 438.367678 301.695104, 433.681886 301.695104 433.681886 301.695104, 428.996094 301.695104 428.996094 301.695104, 424.310302 301.695104 424.310302 301.695104, 424.310302 294.305736 424.310302 294.305736, 424.310302 286.916876 424.310302 286.916876, 424.310302 279.527508 424.310302 279.527508, 424.310302 272.138648 424.310302 272.138648, 406.648666 272.138648 406.648666 272.138648, 388.986268 272.138648 388.986268 272.138648, 371.324378 272.138648 371.324378 272.138648, 353.66198 272.138648 353.66198 272.138648, 297.601132 272.138648 297.601132 272.138648, 241.54003 272.138648 241.54003 272.138648, 185.479182 272.138648 185.479182 272.138648, 129.418334 272.138648 129.418334 272.138648, 111.756444 272.138648 111.756444 272.138648, 94.094046 272.138648 94.094046 272.138648, 76.43241 272.138648 76.43241 272.138648, 58.769758 272.138648 58.769758 272.138648, 58.769758 279.527508 58.769758 279.527508, 58.769758 286.916876 58.769758 286.916876, 58.769758 294.305736 58.769758 294.305736, 58.769758 301.695104 58.769758 301.695104, 54.083966 301.695104 54.083966 301.695104, 49.398428 301.695104 49.398428 301.695104, 44.712636 301.695104 44.712636 301.695104, 40.026844 301.695104 40.026844 301.695104, 40.026844 299.352716 40.026844 299.352716, 40.026844 297.009312 40.026844 297.009312, 40.026844 294.666924 40.026844 294.666924, 40.026844 292.32352 40.026844 292.32352, 37.68344 292.32352 37.68344 292.32352, 35.341052 292.32352 35.341052 292.32352, 32.997902 292.32352 32.997902 292.32352, 30.65526 292.32352 30.65526 292.32352, 30.65526 294.666924 30.65526 294.666924, 30.65526 297.009312 30.65526 297.009312, 30.65526 299.352716 30.65526 299.352716, 30.65526 301.695104 30.65526 301.695104, 23.626318 302.595788 23.626318 302.595788, 16.597122 303.497234 16.597122 303.497234, 9.568942 304.398934 9.568942 304.398934, 2.54 305.299618 2.54 305.299618, 2.54 308.903878 2.54 308.903878, 2.54 312.508392 2.54 312.508392, 2.54 316.113668 2.54 316.113668, 2.54 319.717166 2.54 319.717166, 9.748774 320.618866 9.748774 320.618866, 16.958564 321.520312 16.958564 321.520312, 24.167338 322.420996 24.167338 322.420996, 31.376112 323.322442 31.376112 323.322442, 31.376112 325.124826 31.376112 325.124826, 31.376112 326.926956 31.376112 326.926956, 31.376112 328.729086 31.376112 328.729086, 31.376112 330.53147 31.376112 330.53147, 33.538922 330.53147 33.538922 330.53147, 35.701478 330.53147 35.701478 330.53147, 37.864034 330.53147 37.864034 330.53147, 40.026844 330.53147 40.026844 330.53147, 40.026844 328.548492 40.026844 328.548492, 40.026844 326.56653 40.026844 326.56653, 40.026844 324.583552 40.026844 324.583552, 40.026844 322.600828 40.026844 322.600828, 44.35221 322.600828 44.35221 322.600828, 48.677322 322.600828 48.677322 322.600828, 53.002688 322.600828 53.002688 322.600828, 57.328054 322.600828 57.328054 322.600828, 57.328054 329.810364 57.328054 329.810364, 57.328054 337.019392 57.328054 337.019392, 57.328054 344.228166 57.328054 344.228166, 57.328054 351.43694 57.328054 351.43694, 63.45555 351.43694 63.45555 351.43694, 69.583046 351.43694 69.583046 351.43694, 75.711558 351.43694 75.711558 351.43694, 81.839054 351.43694 81.839054 351.43694, 161.689034 351.43694 161.689034 351.43694, 241.54003 351.43694 241.54003 351.43694, 321.391026 351.43694 321.391026 351.43694, 401.242022 351.43694 401.242022 351.43694, 401.242022 351.43694"/>
      </g>
      <g>
        <polyline style="fill: transparent;stroke: black;stroke-width: 1;" points="452.379842 301.695104, 452.379842 307.101748 452.379842 307.101748, 452.379842 312.508392 452.379842 312.508392, 452.379842 317.915798 452.379842 317.915798, 452.379842 323.322442"/>
      </g>
      <g>
        <polyline style="fill: transparent;stroke: black;stroke-width: 1;" points="30.65526 301.695104, 30.65526 307.101748 30.65526 307.101748, 30.65526 312.508392 30.65526 312.508392, 30.65526 317.915798 30.65526 317.915798, 30.65526 323.322442"/>
      </g>
      <g>
        <polyline style="fill: transparent;stroke: black;stroke-width: 1;" points="14.07414 305.299618, 14.07414 309.309262 14.07414 309.309262, 14.07414 313.318398 14.07414 313.318398, 14.07414 317.327534 14.07414 317.327534, 14.07414 321.33667"/>
      </g>
      <g>
        <polyline style="fill: transparent;stroke: black;stroke-width: 1;" points="443.009274 301.695104, 443.009274 307.101748 443.009274 307.101748, 443.009274 312.508392 443.009274 312.508392, 443.009274 317.915798 443.009274 317.915798, 443.009274 323.322442"/>
      </g>
      <g>
        <polyline style="fill: transparent;stroke: black;stroke-width: 1;" points="40.026844 301.695104, 40.026844 306.921916 40.026844 306.921916, 40.026844 312.147966 40.026844 312.147966, 40.026844 317.374778 40.026844 317.374778, 40.026844 322.600828"/>
      </g>
      <g>
        <polyline style="fill: transparent;stroke: black;stroke-width: 1;" points="468.961216 305.299618, 468.961216 309.309262 468.961216 309.309262, 468.961216 313.318398 468.961216 313.318398, 468.961216 317.327534 468.961216 317.327534, 468.961216 321.33667"/>
      </g>
      <g>
        <polyline style="fill: gray;stroke: black;stroke-width: 1;" points="253.07417 316.833758, 252.168152 321.323462 252.168152 321.323462, 249.696224 324.989698 249.696224 324.989698, 246.029734 327.462642 246.029734 327.462642, 241.54003 328.36866 241.54003 328.36866, 237.050326 327.462642 237.050326 327.462642, 233.38409 324.989698 233.38409 324.989698, 230.912162 321.323462 230.912162 321.323462, 230.00589 316.833758 230.00589 316.833758, 230.912162 312.344816 230.912162 312.344816, 233.38409 308.678326 233.38409 308.678326, 237.050326 306.206398 237.050326 306.206398, 241.54003 305.299618 241.54003 305.299618, 246.029734 306.206398 246.029734 306.206398, 249.696224 308.678326 249.696224 308.678326, 252.168152 312.344816 252.168152 312.344816, 253.07417 316.833758 253.07417 316.833758, 253.07417 316.833758"/>
      </g>
      <g>
        <polyline style="fill: gray;stroke: black;stroke-width: 1;" points="364.808516 316.833758, 363.901736 321.323462 363.901736 321.323462, 361.429808 324.989698 361.429808 324.989698, 357.763318 327.462642 357.763318 327.462642, 353.273614 328.36866 353.273614 328.36866, 348.78391 327.462642 348.78391 327.462642, 345.11742 324.989698 345.11742 324.989698, 342.645492 321.323462 342.645492 321.323462, 341.739474 316.833758 341.739474 316.833758, 342.645492 312.344816 342.645492 312.344816, 345.11742 308.678326 345.11742 308.678326, 348.78391 306.206398 348.78391 306.206398, 353.273614 305.299618 353.273614 305.299618, 357.763318 306.206398 357.763318 306.206398, 361.429808 308.678326 361.429808 308.678326, 363.901736 312.344816 363.901736 312.344816, 364.808516 316.833758 364.808516 316.833758, 364.808516 316.833758"/>
      </g>
      <g>
        <polyline style="fill: gray;stroke: black;stroke-width: 1;" points="141.967966 316.833758, 141.060932 321.323462 141.060932 321.323462, 138.589004 324.989698 138.589004 324.989698, 134.922514 327.462642 134.922514 327.462642, 130.433572 328.36866 130.433572 328.36866, 125.944122 327.462642 125.944122 327.462642, 122.277632 324.989698 122.277632 324.989698, 119.805704 321.323462 119.805704 321.323462, 118.89867 316.833758 118.89867 316.833758, 119.805704 312.344816 119.805704 312.344816, 122.277632 308.678326 122.277632 308.678326, 125.944122 306.206398 125.944122 306.206398, 130.433572 305.299618 130.433572 305.299618, 134.922514 306.206398 134.922514 306.206398, 138.589004 308.678326 138.589004 308.678326, 141.060932 312.344816 141.060932 312.344816, 141.967966 316.833758 141.967966 316.833758, 141.967966 316.833758"/>
      </g>
      <g>
        <polyline style="fill: gray;stroke: black;stroke-width: 1;" points="283.285438 554.026832, 296.621962 554.026832 296.621962 554.026832, 309.958994 554.026832 309.958994 554.026832, 323.295518 554.026832 323.295518 554.026832, 336.631788 554.026832 336.631788 554.026832, 337.172808 552.765468 337.172808 552.765468, 337.713828 551.504358 337.713828 551.504358, 338.254086 550.242486 338.254086 550.242486, 338.795106 548.981376 338.795106 548.981376, 340.59749 548.981376 340.59749 548.981376, 342.398858 548.981376 342.398858 548.981376, 344.202004 548.981376 344.202004 548.981376, 346.004134 548.981376 346.004134 548.981376, 346.004134 546.998398 346.004134 546.998398, 346.004134 545.015674 346.004134 545.015674, 346.004134 543.033712 346.004134 543.033712, 346.004134 541.050734 346.004134 541.050734, 350.3295 541.050734 350.3295 541.050734, 354.654612 541.050734 354.654612 541.050734, 358.979978 541.050734 358.979978 541.050734, 363.305344 541.050734 363.305344 541.050734, 369.97386 526.092674 369.97386 526.092674, 376.641868 511.134106 376.641868 511.134106, 383.310384 496.175284 383.310384 496.175284, 389.9789 481.216462 389.9789 481.216462, 390.339326 427.14926 390.339326 427.14926, 390.699752 373.082058 390.699752 373.082058, 391.059416 319.014602 391.059416 319.014602, 391.419842 264.9474 391.419842 264.9474, 396.286228 264.9474 396.286228 264.9474, 401.151852 264.9474 401.151852 264.9474, 406.018238 264.9474 406.018238 264.9474, 410.884624 264.9474 410.884624 264.9474, 414.66897 268.731746 414.66897 268.731746, 418.453316 272.516854 418.453316 272.516854, 422.238932 276.300946 422.238932 276.300946, 426.023278 280.086054 426.023278 280.086054, 426.023278 274.13839 426.023278 274.13839, 426.023278 268.190726 426.023278 268.190726, 426.023278 262.243824 426.023278 262.243824, 426.023278 256.296922 426.023278 256.296922, 428.006002 256.296922 428.006002 256.296922, 429.98898 256.296922 429.98898 256.296922, 431.971704 256.296922 431.971704 256.296922, 433.953158 256.296922 433.953158 256.296922, 433.953158 249.087132 433.953158 249.087132, 433.953158 241.878358 433.953158 241.878358, 433.953158 234.669584 433.953158 234.669584, 433.953158 227.459794 433.953158 227.459794, 432.331368 227.459794 432.331368 227.459794, 430.709832 227.459794 430.709832 227.459794, 429.088296 227.459794 429.088296 227.459794, 427.464982 227.459794 427.464982 227.459794, 427.464982 221.332298 427.464982 221.332298, 427.464982 215.204802 427.464982 215.204802, 427.464982 209.077306 427.464982 209.077306, 427.464982 202.94981 427.464982 202.94981, 425.482258 202.94981 425.482258 202.94981, 423.501058 202.94981 423.501058 202.94981, 421.51808 202.94981 421.51808 202.94981, 419.535356 202.94981 419.535356 202.94981, 416.831526 205.653386 416.831526 205.653386, 414.12795 208.356454 414.12795 208.356454, 411.425644 211.06003 411.425644 211.06003, 408.722068 213.763098 408.722068 213.763098, 405.838406 213.763098 405.838406 213.763098, 402.954998 213.763098 402.954998 213.763098, 400.071336 213.763098 400.071336 213.763098, 397.187674 213.763098 397.187674 213.763098, 400.071336 178.97983 400.071336 178.97983, 402.954998 144.196562 402.954998 144.196562, 405.838406 109.413548 405.838406 109.413548, 408.722068 74.63028 408.722068 74.63028, 408.722068 56.60644 408.722068 56.60644, 408.722068 38.58514 408.722068 38.58514, 408.722068 20.5613 408.722068 20.5613, 408.722068 2.54 408.722068 2.54, 402.775166 2.54 402.775166 2.54, 396.826486 2.54 396.826486 2.54, 390.879584 2.54 390.879584 2.54, 384.932682 2.54 384.932682 2.54, 384.932682 3.98272 384.932682 3.98272, 384.932682 5.4229 384.932682 5.4229, 384.932682 6.86562 384.932682 6.86562, 384.932682 8.30834 384.932682 8.30834, 388.897622 8.30834 388.897622 8.30834, 392.862562 8.30834 392.862562 8.30834, 396.827248 8.30834 396.827248 8.30834, 400.792188 8.30834 400.792188 8.30834, 400.792188 9.83996 400.792188 9.83996, 400.792188 11.37158 400.792188 11.37158, 400.792188 12.9032 400.792188 12.9032, 400.792188 14.43482 400.792188 14.43482, 397.367506 14.43482 397.367506 14.43482, 393.94384 14.43482 393.94384 14.43482, 390.51992 14.43482 390.51992 14.43482, 387.095492 14.43482 387.095492 14.43482, 387.095492 15.96644 387.095492 15.96644, 387.095492 17.49806 387.095492 17.49806, 387.095492 19.02968 387.095492 19.02968, 387.095492 20.5613 387.095492 20.5613, 390.51992 20.5613 390.51992 20.5613, 393.94384 20.5613 393.94384 20.5613, 397.367506 20.5613 397.367506 20.5613, 400.792188 20.5613 400.792188 20.5613, 400.792188 22.00402 400.792188 22.00402, 400.792188 23.44674 400.792188 23.44674, 400.792188 24.88692 400.792188 24.88692, 400.792188 26.32964 400.792188 26.32964, 380.24689 26.32964 380.24689 26.32964, 359.70083 26.32964 359.70083 26.32964, 339.155786 26.32964 339.155786 26.32964, 318.609726 26.32964 318.609726 26.32964, 318.609726 20.3835 318.609726 20.3835, 318.609726 14.43482 318.609726 14.43482, 318.609726 8.48614 318.609726 8.48614, 318.609726 2.54 318.609726 2.54, 309.779162 2.54 309.779162 2.54, 300.947836 2.54 300.947836 2.54, 292.116764 2.54 292.116764 2.54, 283.285438 2.54 283.285438 2.54, 263.012174 2.54 263.012174 2.54, 242.739164 2.54 242.739164 2.54, 222.466662 2.54 222.466662 2.54, 202.193398 2.54 202.193398 2.54, 193.362326 2.54 193.362326 2.54, 184.531 2.54 184.531 2.54, 175.699674 2.54 175.699674 2.54, 166.869364 2.54 166.869364 2.54, 166.869364 8.48614 166.869364 8.48614, 166.869364 14.43482 166.869364 14.43482, 166.869364 20.3835 166.869364 20.3835, 166.869364 26.32964 166.869364 26.32964, 146.323304 26.32964 146.323304 26.32964, 125.778006 26.32964 125.778006 26.32964, 105.232708 26.32964 105.232708 26.32964, 84.686648 26.32964 84.686648 26.32964, 84.686648 24.88692 84.686648 24.88692, 84.686648 23.44674 84.686648 23.44674, 84.686648 22.00402 84.686648 22.00402, 84.686648 20.5613 84.686648 20.5613, 88.11133 20.5613 88.11133 20.5613, 91.534996 20.5613 91.534996 20.5613, 94.959678 20.5613 94.959678 20.5613, 98.383598 20.5613 98.383598 20.5613, 98.383598 19.02968 98.383598 19.02968, 98.383598 17.49806 98.383598 17.49806, 98.383598 15.96644 98.383598 15.96644, 98.383598 14.43482 98.383598 14.43482, 94.959678 14.43482 94.959678 14.43482, 91.534996 14.43482 91.534996 14.43482, 88.11133 14.43482 88.11133 14.43482, 84.686648 14.43482 84.686648 14.43482, 84.686648 12.9032 84.686648 12.9032, 84.686648 11.37158 84.686648 11.37158, 84.686648 9.83996 84.686648 9.83996, 84.686648 8.30834 84.686648 8.30834, 88.651588 8.30834 88.651588 8.30834, 92.616528 8.30834 92.616528 8.30834, 96.581214 8.30834 96.581214 8.30834, 100.546916 8.30834 100.546916 8.30834, 100.546916 6.86562 100.546916 6.86562, 100.546916 5.4229 100.546916 5.4229, 100.546916 3.98272 100.546916 3.98272, 100.546916 2.54 100.546916 2.54, 94.599252 2.54 94.599252 2.54, 88.651588 2.54 88.651588 2.54, 82.704686 2.54 82.704686 2.54, 76.757022 2.54 76.757022 2.54, 76.757022 20.5613 76.757022 20.5613, 76.757022 38.58514 76.757022 38.58514, 76.757022 56.60644 76.757022 56.60644, 76.757022 74.63028 76.757022 74.63028, 79.64043 109.413548 79.64043 109.413548, 82.524092 144.196562 82.524092 144.196562, 85.4075 178.97983 85.4075 178.97983, 88.291162 213.763098 88.291162 213.763098, 85.4075 213.763098 85.4075 213.763098, 82.524092 213.763098 82.524092 213.763098, 79.64043 213.763098 79.64043 213.763098, 76.757022 213.763098 76.757022 213.763098, 74.053192 211.06003 74.053192 211.06003, 71.350378 208.356454 71.350378 208.356454, 68.646548 205.653386 68.646548 205.653386, 65.943734 202.94981 65.943734 202.94981, 63.960756 202.94981 63.960756 202.94981, 61.978794 202.94981 61.978794 202.94981, 59.99607 202.94981 59.99607 202.94981, 58.013854 202.94981 58.013854 202.94981, 58.013854 209.077306 58.013854 209.077306, 58.013854 215.204802 58.013854 215.204802, 58.013854 221.332298 58.013854 221.332298, 58.013854 227.459794 58.013854 227.459794, 56.391556 227.459794 56.391556 227.459794, 54.77002 227.459794 54.77002 227.459794, 53.147468 227.459794 53.147468 227.459794, 51.52517 227.459794 51.52517 227.459794, 51.52517 234.669584 51.52517 234.669584, 51.52517 241.878358 51.52517 241.878358, 51.52517 249.087132 51.52517 249.087132, 51.52517 256.296922 51.52517 256.296922, 53.507894 256.296922 53.507894 256.296922, 55.490872 256.296922 55.490872 256.296922, 57.472834 256.296922 57.472834 256.296922, 59.455558 256.296922 59.455558 256.296922, 59.455558 262.243824 59.455558 262.243824, 59.455558 268.190726 59.455558 268.190726, 59.455558 274.13839 59.455558 274.13839, 59.455558 280.086054 59.455558 280.086054, 63.239904 276.300946 63.239904 276.300946, 67.025012 272.516854 67.025012 272.516854, 70.809358 268.731746 70.809358 268.731746, 74.594212 264.9474 74.594212 264.9474, 79.459836 264.9474 79.459836 264.9474, 84.326222 264.9474 84.326222 264.9474, 89.192608 264.9474 89.192608 264.9474, 94.058232 264.9474 94.058232 264.9474, 94.418658 319.014602 94.418658 319.014602, 94.779084 373.082058 94.779084 373.082058, 95.13951 427.14926 95.13951 427.14926, 95.499936 481.216462 95.499936 481.216462, 102.168452 496.175284 102.168452 496.175284, 108.83646 511.134106 108.83646 511.134106, 115.504976 526.092674 115.504976 526.092674, 122.173492 541.050734 122.173492 541.050734, 126.498858 541.050734 126.498858 541.050734, 130.824224 541.050734 130.824224 541.050734, 135.14959 541.050734 135.14959 541.050734, 139.474702 541.050734 139.474702 541.050734, 139.474702 543.033712 139.474702 543.033712, 139.474702 545.015674 139.474702 545.015674, 139.474702 546.998398 139.474702 546.998398, 139.474702 548.981376 139.474702 548.981376, 141.277086 548.981376 141.277086 548.981376, 143.079216 548.981376 143.079216 548.981376, 144.881346 548.981376 144.881346 548.981376, 146.68373 548.981376 146.68373 548.981376, 147.22475 550.242486 147.22475 550.242486, 147.765008 551.504358 147.765008 551.504358, 148.306028 552.765468 148.306028 552.765468, 148.846286 554.026832 148.846286 554.026832, 162.183572 554.026832 162.183572 554.026832, 175.519842 554.026832 175.519842 554.026832, 188.856366 554.026832 188.856366 554.026832, 202.193398 554.026832 202.193398 554.026832, 222.466662 554.026832 222.466662 554.026832, 242.739164 554.026832 242.739164 554.026832, 263.012174 554.026832 263.012174 554.026832, 283.285438 554.026832 283.285438 554.026832, 283.285438 554.026832"/>
      </g>
      <g>
        <polyline style="fill: transparent;stroke: black;stroke-width: 1;" points="94.10319 271.668748, 168.42105 271.668748 168.42105 271.668748, 242.739164 271.668748 242.739164 271.668748, 317.057786 271.668748 317.057786 271.668748, 391.375646 271.668748"/>
      </g>
      <g>
        <polyline style="fill: transparent;stroke: black;stroke-width: 1;" points="166.869364 8.30834, 204.551534 8.30834 204.551534 8.30834, 242.232942 8.30834 242.232942 8.30834, 279.915112 8.30834 279.915112 8.30834, 317.597282 8.30834"/>
      </g>
      <g>
        <polyline style="fill: transparent;stroke: black;stroke-width: 1;" points="166.869364 26.32964, 166.869364 38.88486 166.869364 38.88486, 166.869364 51.44008 166.869364 51.44008, 166.869364 63.996824 166.869364 63.996824, 166.869364 76.552806 166.869364 76.552806, 165.06698 121.488708 165.06698 121.488708, 163.26485 166.424864 163.26485 166.424864, 161.46272 211.360766 161.46272 211.360766, 159.660336 256.296922 159.660336 256.296922, 159.660336 310.125364 159.660336 310.125364, 159.660336 363.953806 159.660336 363.953806, 159.660336 417.782248 159.660336 417.782248, 159.660336 471.610944 159.660336 471.610944, 158.458916 488.911392 158.458916 488.911392, 157.257496 506.211078 157.257496 506.211078, 156.056076 523.511526 156.056076 523.511526, 154.854402 540.811212"/>
      </g>
      <g>
        <polyline style="fill: transparent;stroke: black;stroke-width: 1;" points="95.435674 471.610944, 169.090086 471.610944 169.090086 471.610944, 242.74526 471.610944 242.74526 471.610944, 316.400434 471.610944 316.400434 471.610944, 390.055608 471.610944"/>
      </g>
      <g>
        <polyline style="fill: transparent;stroke: black;stroke-width: 1;" points="388.96671 481.216462, 380.991872 474.758766 380.991872 474.758766, 361.752642 460.551022 361.752642 460.551022, 338.278216 446.343278 338.278216 446.343278, 317.597282 439.885582 317.597282 439.885582, 279.915112 439.885582 279.915112 439.885582, 242.232942 439.885582 242.232942 439.885582, 204.551534 439.885582 204.551534 439.885582, 166.869364 439.885582 166.869364 439.885582, 146.18843 446.343278 146.18843 446.343278, 122.71375 460.551022 122.71375 460.551022, 103.475536 474.758766 103.475536 474.758766, 95.499936 481.216462"/>
      </g>
      <g>
        <polyline style="fill: transparent;stroke: black;stroke-width: 1;" points="76.757022 57.3278, 159.747966 57.3278 159.747966 57.3278, 242.739164 57.3278 242.739164 57.3278, 325.730108 57.3278 325.730108 57.3278, 408.722068 57.3278"/>
      </g>
      <g>
        <polyline style="fill: transparent;stroke: black;stroke-width: 1;" points="317.597282 26.32964, 317.597282 38.88486 317.597282 38.88486, 317.597282 51.44008 317.597282 51.44008, 317.597282 63.996824 317.597282 63.996824, 317.597282 76.552806 317.597282 76.552806, 319.399412 121.488708 319.399412 121.488708, 321.201796 166.424864 321.201796 166.424864, 323.003926 211.360766 323.003926 211.360766, 324.806056 256.296922 324.806056 256.296922, 324.806056 310.125364 324.806056 310.125364, 324.806056 363.953806 324.806056 363.953806, 324.806056 417.782248 324.806056 417.782248, 324.806056 471.610944 324.806056 471.610944, 326.00773 488.911392 326.00773 488.911392, 327.20915 506.211078 327.20915 506.211078, 328.41057 523.511526 328.41057 523.511526, 329.61199 540.811212"/>
      </g>
      <g>
        <polyline style="fill: gray;stroke: black;stroke-width: 1;" points="210.39455 341.843614, 205.348332 341.843614 205.348332 341.843614, 200.302114 341.843614 200.302114 341.843614, 195.255896 341.843614 195.255896 341.843614, 190.209678 341.843614 190.209678 341.843614, 190.209678 276.482302 190.209678 276.482302, 190.209678 211.120482 190.209678 211.120482, 190.209678 145.758662 190.209678 145.758662, 190.209678 80.39735 190.209678 80.39735, 195.255896 80.39735 195.255896 80.39735, 200.302114 80.39735 200.302114 80.39735, 205.348332 80.39735 205.348332 80.39735, 210.39455 80.39735 210.39455 80.39735, 210.39455 145.758662 210.39455 145.758662, 210.39455 211.120482 210.39455 211.120482, 210.39455 276.482302 210.39455 276.482302, 210.39455 341.843614 210.39455 341.843614, 210.39455 341.843614"/>
      </g>
      <g>
        <polyline style="fill: gray;stroke: black;stroke-width: 1;" points="295.267634 341.843614, 290.222178 341.843614 290.222178 341.843614, 285.175198 341.843614 285.175198 341.843614, 280.12898 341.843614 280.12898 341.843614, 275.082762 341.843614 275.082762 341.843614, 275.082762 276.482302 275.082762 276.482302, 275.082762 211.120482 275.082762 211.120482, 275.082762 145.758662 275.082762 145.758662, 275.082762 80.39735 275.082762 80.39735, 280.12898 80.39735 280.12898 80.39735, 285.175198 80.39735 285.175198 80.39735, 290.222178 80.39735 290.222178 80.39735, 295.267634 80.39735 295.267634 80.39735, 295.267634 145.758662 295.267634 145.758662, 295.267634 211.120482 295.267634 211.120482, 295.267634 276.482302 295.267634 276.482302, 295.267634 341.843614 295.267634 341.843614, 295.267634 341.843614"/>
      </g>
      <g>
        <polyline style="fill: gray;stroke: black;stroke-width: 1;" points="238.685832 341.843614, 233.639614 341.843614 233.639614 341.843614, 228.593396 341.843614 228.593396 341.843614, 223.546416 341.843614 223.546416 341.843614, 218.500198 341.843614 218.500198 341.843614, 218.500198 276.482302 218.500198 276.482302, 218.500198 211.120482 218.500198 211.120482, 218.500198 145.758662 218.500198 145.758662, 218.500198 80.39735 218.500198 80.39735, 223.546416 80.39735 223.546416 80.39735, 228.593396 80.39735 228.593396 80.39735, 233.639614 80.39735 233.639614 80.39735, 238.685832 80.39735 238.685832 80.39735, 238.685832 145.758662 238.685832 145.758662, 238.685832 211.120482 238.685832 211.120482, 238.685832 276.482302 238.685832 276.482302, 238.685832 341.843614 238.685832 341.843614, 238.685832 341.843614"/>
      </g>
      <g>
        <polyline style="fill: gray;stroke: black;stroke-width: 1;" points="266.977114 341.843614, 261.930896 341.843614 261.930896 341.843614, 256.883916 341.843614 256.883916 341.843614, 251.837698 341.843614 251.837698 341.843614, 246.79148 341.843614 246.79148 341.843614, 246.79148 276.482302 246.79148 276.482302, 246.79148 211.120482 246.79148 211.120482, 246.79148 145.758662 246.79148 145.758662, 246.79148 80.39735 246.79148 80.39735, 251.837698 80.39735 251.837698 80.39735, 256.883916 80.39735 256.883916 80.39735, 261.930896 80.39735 261.930896 80.39735, 266.977114 80.39735 266.977114 80.39735, 266.977114 145.758662 266.977114 145.758662, 266.977114 211.120482 266.977114 211.120482, 266.977114 276.482302 266.977114 276.482302, 266.977114 341.843614 266.977114 341.843614, 266.977114 341.843614"/>
      </g>
    </g>
  </g>
</svg>
