<?xml version="1.0" encoding="UTF-8"?>
<svg id="EXT_Dot-x_Pro_-_Thumbnail" xmlns="http://www.w3.org/2000/svg" viewBox="0 0 1024 1024">
  <defs>
    <style>
      .cls-1 {
        fill: none;
        stroke-linecap: round;
        stroke-linejoin: round;
      }

      .cls-1, .cls-2, .cls-3 {
        stroke: #1d1d1b;
      }

      .cls-2 {
        fill: #ccc;
        fill-rule: evenodd;
      }

      .cls-2, .cls-3 {
        stroke-miterlimit: 10;
      }

      .cls-3 {
        fill: #fff;
      }
    </style>
  </defs>
  <g id="Exterior_Dot-9_Pro">
    <path class="cls-2" d="M5.6,235.72v552.5c0,16.87,13.87,30.8,30.73,30.8h951.32c16.87,0,30.73-13.93,30.73-30.8V235.72c0-16.87-13.87-30.73-30.73-30.73H36.34c-16.87,0-30.73,13.87-30.73,30.73"/>
    <rect class="cls-1" x="124.7" y="225.82" width="774.54" height="576.92"/>
    <path class="cls-1" d="M727.34,512c0-118.18-97.22-215.33-215.34-215.33s-215.33,97.15-215.33,215.33,97.21,215.33,215.33,215.33,215.34-97.21,215.34-215.33"/>
    <rect class="cls-3" x="265.87" y="465.83" width="492.2" height="92.29"/>
    <path d="M356.59,529.64v-5.5h-28.61v-15.86h25.78v-5.47h-25.78v-14.28h27.53v-5.5h-33.7v46.61h34.78ZM360.27,529.64l8.87-13.32,1.84,2.83,6.93,10.49h7.03l-12.56-17.87,11.67-15.9h-6.84l-5.69,7.98c-.79,1.08-1.64,2.32-2.57,3.72-.6-1.02-1.38-2.28-2.36-3.78l-5.18-7.92h-7.15l11.42,16.22-12.34,17.55h6.93ZM394.22,524.75c-.85,0-1.5-.14-1.95-.41-.46-.28-.79-.65-.99-1.11-.2-.46-.3-1.52-.3-3.15v-19.74h5.76v-4.45h-5.76v-11.79l-5.69,3.43v8.36h-4.2v4.45h4.2v19.42c0,3.43.23,5.69.7,6.76.46,1.07,1.27,1.93,2.41,2.59,1.15.65,2.76.98,4.84.98,1.27,0,2.71-.17,4.32-.51l-.82-5.05c-1.04.15-1.88.22-2.51.22h0ZM418.92,524.05c-1.48,1.1-3.27,1.65-5.37,1.65-2.82,0-5.17-.99-7.06-2.96-1.88-1.97-2.94-4.81-3.15-8.52h25.18c.02-.68.03-1.19.03-1.53,0-5.57-1.43-9.9-4.29-12.97-2.86-3.08-6.55-4.61-11.06-4.61s-8.46,1.57-11.38,4.71c-2.92,3.13-4.38,7.54-4.38,13.23s1.44,9.75,4.34,12.8c2.89,3.04,6.81,4.56,11.75,4.56,3.92,0,7.14-.95,9.66-2.86,2.53-1.91,4.25-4.59,5.18-8.04l-5.91-.73c-.87,2.42-2.05,4.18-3.53,5.28h0ZM406.63,502.46c1.79-1.76,4-2.64,6.63-2.64,2.91,0,5.27,1.1,7.09,3.3,1.18,1.42,1.91,3.55,2.16,6.39h-18.85c.19-2.95,1.18-5.3,2.97-7.06h0ZM435.15,529.64v-17.68c0-2.41.32-4.64.96-6.67.42-1.34,1.13-2.38,2.13-3.13,1-.75,2.12-1.13,3.37-1.13,1.4,0,2.8.41,4.2,1.24l1.97-5.31c-1.99-1.23-3.95-1.84-5.88-1.84-1.34,0-2.56.38-3.68,1.14-1.11.77-2.32,2.34-3.64,4.74v-5.12h-5.15v33.76h5.72ZM453.35,489.61v-6.58h-5.72v6.58h5.72ZM453.35,529.64v-33.76h-5.72v33.76h5.72ZM461.88,525.86c2.91,3.03,6.74,4.54,11.46,4.54,2.95,0,5.67-.69,8.16-2.06,2.49-1.38,4.39-3.31,5.69-5.8,1.3-2.49,1.95-5.91,1.95-10.25,0-5.36-1.47-9.56-4.42-12.61-2.95-3.04-6.74-4.56-11.38-4.56-4.17,0-7.71,1.25-10.62,3.75-3.47,3.01-5.21,7.64-5.21,13.89,0,5.7,1.46,10.07,4.37,13.1h0ZM466.22,503.06c1.89-2.14,4.26-3.21,7.12-3.21s5.18,1.08,7.08,3.23c1.9,2.15,2.85,5.32,2.85,9.49,0,4.43-.94,7.73-2.83,9.89s-4.25,3.24-7.09,3.24-5.23-1.08-7.12-3.22c-1.89-2.15-2.83-5.39-2.83-9.72s.94-7.56,2.83-9.7h0ZM495.45,529.64v-17.68c0-2.41.32-4.64.96-6.67.42-1.34,1.13-2.38,2.13-3.13,1-.75,2.12-1.13,3.37-1.13,1.4,0,2.8.41,4.2,1.24l1.97-5.31c-1.99-1.23-3.95-1.84-5.88-1.84-1.34,0-2.56.38-3.68,1.14-1.11.77-2.32,2.34-3.64,4.74v-5.12h-5.15v33.76h5.72ZM540.48,529.64c2.82,0,5.31-.26,7.48-.79,2.17-.53,4.03-1.31,5.56-2.33,1.54-1.03,2.95-2.44,4.25-4.23,1.29-1.79,2.35-4.06,3.18-6.79.82-2.74,1.24-5.87,1.24-9.41,0-4.16-.61-7.85-1.83-11.08-1.22-3.23-3.06-5.89-5.52-7.97-1.89-1.61-4.16-2.72-6.83-3.34-1.91-.45-4.67-.67-8.3-.67h-16.05v46.61h16.82ZM529.82,488.53h9.79c3.67,0,6.33.32,7.98.96,2.29.89,4.24,2.64,5.83,5.26,1.6,2.62,2.4,6.36,2.4,11.24,0,3.52-.41,6.51-1.23,8.98-.82,2.47-1.95,4.44-3.42,5.9-1.04,1.04-2.43,1.84-4.18,2.41-1.75.58-4.16.86-7.23.86h-9.95v-35.61h0ZM564.38,525.86c2.91,3.03,6.74,4.54,11.46,4.54,2.95,0,5.67-.69,8.16-2.06,2.49-1.38,4.39-3.31,5.69-5.8,1.3-2.49,1.95-5.91,1.95-10.25,0-5.36-1.47-9.56-4.42-12.61-2.95-3.04-6.74-4.56-11.38-4.56-4.17,0-7.71,1.25-10.62,3.75-3.47,3.01-5.21,7.64-5.21,13.89,0,5.7,1.46,10.07,4.37,13.1h0ZM568.72,503.06c1.89-2.14,4.26-3.21,7.12-3.21s5.18,1.08,7.08,3.23c1.9,2.15,2.85,5.32,2.85,9.49,0,4.43-.94,7.73-2.83,9.89s-4.25,3.24-7.09,3.24-5.23-1.08-7.12-3.22c-1.89-2.15-2.83-5.39-2.83-9.72s.94-7.56,2.83-9.7h0ZM602.34,524.75c-.85,0-1.5-.14-1.95-.41-.46-.28-.79-.65-.99-1.11-.2-.46-.3-1.52-.3-3.15v-19.74h5.76v-4.45h-5.76v-11.79l-5.69,3.43v8.36h-4.2v4.45h4.2v19.42c0,3.43.23,5.69.7,6.76.46,1.07,1.27,1.93,2.41,2.59,1.15.65,2.76.98,4.84.98,1.27,0,2.71-.17,4.32-.51l-.82-5.05c-1.04.15-1.88.22-2.51.22h0ZM622.74,515.65v-5.75h-17.58v5.75h17.58ZM628.92,527.4c2.31,2.02,5.29,3.03,8.93,3.03,3.43,0,6.43-.92,8.98-2.77,2.55-1.84,4.48-4.53,5.77-8.06,1.3-3.53,1.94-8.27,1.94-14.22s-.65-10.1-1.95-13.12c-1.3-3.02-3.21-5.35-5.73-6.98s-5.28-2.45-8.31-2.45c-4.2,0-7.69,1.44-10.48,4.32s-4.18,6.69-4.18,11.41,1.34,8.27,4.01,11.07,5.94,4.2,9.79,4.2c2.31,0,4.46-.57,6.44-1.7,1.98-1.13,3.54-2.61,4.69-4.44.02.51.03.89.03,1.15,0,2.37-.29,4.7-.86,6.99-.57,2.29-1.28,4.11-2.13,5.45-.85,1.35-1.93,2.42-3.26,3.23-1.32.81-2.87,1.21-4.62,1.21-2.06,0-3.74-.58-5.06-1.75-1.31-1.16-2.2-3.04-2.67-5.63l-5.5.51c.46,3.67,1.85,6.51,4.16,8.54h0ZM645.63,506c-1.71,1.85-3.89,2.78-6.54,2.78s-4.84-.93-6.63-2.78-2.69-4.26-2.69-7.23c0-3.31.94-6,2.83-8.08,1.88-2.07,4.1-3.11,6.64-3.11s4.56.96,6.31,2.89c1.75,1.93,2.62,4.53,2.62,7.82s-.85,5.85-2.56,7.71h0ZM677.63,529.64v-18.95h11.96c6.59,0,11.15-1.37,13.67-4.12,2.52-2.74,3.78-6.1,3.78-10.06,0-2.31-.47-4.43-1.42-6.36-.94-1.93-2.19-3.43-3.73-4.5-1.55-1.07-3.47-1.8-5.75-2.18-1.64-.3-4-.44-7.09-.44h-17.58v46.61h6.17ZM677.63,488.53h11.92c2.8,0,4.72.14,5.75.41,1.61.45,2.91,1.36,3.9,2.75.99,1.39,1.48,3.06,1.48,5.01,0,2.69-.84,4.78-2.51,6.26-1.67,1.48-4.5,2.23-8.49,2.23h-12.05v-16.66h0ZM712.61,529.64v-17.68c0-2.41.32-4.64.96-6.67.42-1.34,1.13-2.38,2.13-3.13,1-.75,2.12-1.13,3.37-1.13,1.4,0,2.8.41,4.2,1.24l1.97-5.31c-1.99-1.23-3.95-1.84-5.88-1.84-1.34,0-2.56.38-3.68,1.14-1.11.77-2.32,2.34-3.64,4.74v-5.12h-5.15v33.76h5.72ZM727.22,525.86c2.91,3.03,6.74,4.54,11.46,4.54,2.95,0,5.67-.69,8.16-2.06,2.49-1.38,4.39-3.31,5.69-5.8s1.95-5.91,1.95-10.25c0-5.36-1.47-9.56-4.42-12.61-2.95-3.04-6.74-4.56-11.38-4.56-4.17,0-7.71,1.25-10.62,3.75-3.47,3.01-5.21,7.64-5.21,13.89,0,5.7,1.46,10.07,4.37,13.1h0ZM731.56,503.06c1.89-2.14,4.26-3.21,7.12-3.21s5.18,1.08,7.08,3.23c1.9,2.15,2.85,5.32,2.85,9.49,0,4.43-.94,7.73-2.83,9.89s-4.25,3.24-7.09,3.24-5.23-1.08-7.12-3.22c-1.89-2.15-2.83-5.39-2.83-9.72s.94-7.56,2.83-9.7h0Z"/>
  </g>
</svg>