<?xml version="1.0" encoding="UTF-8"?>
<svg id="EXT_Linear_Pro_Cove_QUAD_-_Thumbnail" data-name="EXT Linear Pro Cove QUAD - Thumbnail" xmlns="http://www.w3.org/2000/svg" viewBox="0 0 1024 1024">
  <defs>
    <style>
      .cls-1, .cls-2 {
        fill: #fff;
      }

      .cls-2, .cls-3 {
        fill-rule: evenodd;
      }

      .cls-4, .cls-5 {
        fill: none;
        stroke: #000;
        stroke-linecap: round;
        stroke-linejoin: round;
      }

      .cls-5 {
        stroke-width: .16px;
      }

      .cls-6, .cls-3 {
        fill: #ccc;
      }
    </style>
  </defs>
  <g id="_1FT" data-name="1FT">
    <rect class="cls-6" x="33.81" y="450.55" width="956.12" height="122.63"/>
    <rect class="cls-4" x="33.81" y="450.55" width="956.12" height="122.63"/>
    <path class="cls-3" d="M838.38,511.87c0-19.01-15.64-34.64-34.65-34.64s-34.64,15.64-34.64,34.64,15.64,34.64,34.64,34.64,34.65-15.64,34.65-34.64"/>
    <path class="cls-5" d="M838.38,511.87c0-19.01-15.64-34.64-34.65-34.64s-34.64,15.64-34.64,34.64,15.64,34.64,34.64,34.64,34.65-15.64,34.65-34.64"/>
    <path class="cls-3" d="M721.63,511.87c0-19.01-15.64-34.64-34.64-34.64s-34.65,15.64-34.65,34.64,15.64,34.64,34.65,34.64,34.64-15.64,34.64-34.64"/>
    <path class="cls-5" d="M721.63,511.87c0-19.01-15.64-34.64-34.64-34.64s-34.65,15.64-34.65,34.64,15.64,34.64,34.65,34.64,34.64-15.64,34.64-34.64"/>
    <path class="cls-3" d="M604.89,511.86c0-19.01-15.64-34.64-34.64-34.64s-34.64,15.64-34.64,34.64,15.64,34.64,34.64,34.64,34.64-15.64,34.64-34.64"/>
    <path class="cls-5" d="M604.89,511.86c0-19.01-15.64-34.64-34.64-34.64s-34.64,15.64-34.64,34.64,15.64,34.64,34.64,34.64,34.64-15.64,34.64-34.64"/>
    <path class="cls-3" d="M488.14,511.86c0-19.01-15.64-34.64-34.64-34.64s-34.65,15.64-34.65,34.64,15.64,34.64,34.65,34.64,34.64-15.64,34.64-34.64"/>
    <path class="cls-5" d="M488.14,511.86c0-19.01-15.64-34.64-34.64-34.64s-34.65,15.64-34.65,34.64,15.64,34.64,34.65,34.64,34.64-15.64,34.64-34.64"/>
    <path class="cls-3" d="M371.4,511.86c0-19.01-15.64-34.64-34.64-34.64s-34.64,15.64-34.64,34.64,15.64,34.64,34.64,34.64,34.64-15.64,34.64-34.64"/>
    <path class="cls-5" d="M371.4,511.86c0-19.01-15.64-34.64-34.64-34.64s-34.64,15.64-34.64,34.64,15.64,34.64,34.64,34.64,34.64-15.64,34.64-34.64"/>
    <path class="cls-3" d="M254.65,511.86c0-19.01-15.64-34.64-34.64-34.64s-34.64,15.64-34.64,34.64,15.64,34.64,34.64,34.64,34.64-15.64,34.64-34.64"/>
    <path class="cls-5" d="M254.65,511.86c0-19.01-15.64-34.64-34.64-34.64s-34.64,15.64-34.64,34.64,15.64,34.64,34.64,34.64,34.64-15.64,34.64-34.64"/>
    <path class="cls-3" d="M137.91,511.85c0-19.01-15.64-34.64-34.64-34.64s-34.64,15.64-34.64,34.64,15.64,34.64,34.64,34.64,34.64-15.64,34.64-34.64"/>
    <path class="cls-5" d="M137.91,511.85c0-19.01-15.64-34.64-34.64-34.64s-34.64,15.64-34.64,34.64,15.64,34.64,34.64,34.64,34.64-15.64,34.64-34.64"/>
    <path class="cls-3" d="M955.5,511.87c0-19.01-15.64-34.64-34.64-34.64s-34.65,15.64-34.65,34.64,15.64,34.64,34.65,34.64,34.64-15.64,34.64-34.64"/>
    <path class="cls-5" d="M955.5,511.87c0-19.01-15.64-34.64-34.64-34.64s-34.65,15.64-34.65,34.64,15.64,34.64,34.65,34.64,34.64-15.64,34.64-34.64"/>
    <rect class="cls-1" x="205.42" y="465.9" width="612.9" height="91.93"/>
    <rect class="cls-4" x="205.42" y="465.9" width="612.9" height="91.93"/>
    <polyline class="cls-2" points="239.39 493.21 784.35 493.21 784.35 530.51 239.39 530.51 239.39 493.21"/>
    <path d="M259.28,522.4v-2.74h-14.25v-7.9h12.84v-2.72h-12.84v-7.11h13.71v-2.74h-16.79v23.22h17.32Zm5.43,0l4.42-6.64,.92,1.41,3.45,5.23h3.5l-6.26-8.9,5.81-7.92h-3.4l-2.83,3.97c-.39,.54-.82,1.16-1.28,1.85-.3-.51-.69-1.13-1.17-1.88l-2.58-3.94h-3.56l5.69,8.08-6.14,8.74h3.45Zm19.64-2.44c-.42,0-.75-.07-.97-.21-.23-.14-.39-.32-.49-.55-.1-.23-.15-.75-.15-1.57v-9.83h2.87v-2.22h-2.87v-5.88l-2.83,1.71v4.16h-2.09v2.22h2.09v9.68c0,1.71,.12,2.83,.35,3.37,.23,.53,.63,.96,1.2,1.29,.57,.33,1.37,.49,2.41,.49,.63,0,1.35-.08,2.15-.25l-.41-2.52c-.52,.07-.93,.11-1.25,.11h0Zm13.79-.35c-.74,.55-1.63,.82-2.68,.82-1.4,0-2.58-.49-3.52-1.47-.94-.98-1.46-2.4-1.57-4.24h12.54c.01-.34,.02-.59,.02-.76,0-2.78-.71-4.93-2.14-6.46-1.43-1.53-3.26-2.3-5.51-2.3s-4.21,.78-5.67,2.34c-1.46,1.56-2.19,3.76-2.19,6.59s.72,4.86,2.16,6.37c1.44,1.52,3.39,2.27,5.85,2.27,1.95,0,3.56-.48,4.81-1.43,1.26-.95,2.12-2.29,2.58-4.01l-2.95-.36c-.43,1.2-1.02,2.08-1.76,2.63h0Zm-6.12-10.75c.89-.88,1.99-1.31,3.3-1.31,1.45,0,2.62,.55,3.53,1.65,.59,.71,.95,1.77,1.08,3.18h-9.39c.1-1.47,.59-2.64,1.48-3.52h0Zm17.22,13.54v-8.8c0-1.2,.16-2.31,.48-3.33,.21-.67,.56-1.18,1.06-1.56,.5-.37,1.06-.56,1.68-.56,.7,0,1.39,.21,2.09,.62l.98-2.64c-.99-.61-1.97-.92-2.93-.92-.67,0-1.27,.19-1.83,.57s-1.16,1.17-1.81,2.36v-2.55h-2.57v16.82h2.85Zm10.85-19.94v-3.28h-2.85v3.28h2.85Zm0,19.94v-16.82h-2.85v16.82h2.85Zm5.46-1.88c1.45,1.51,3.35,2.26,5.71,2.26,1.47,0,2.82-.34,4.06-1.03,1.24-.69,2.19-1.65,2.83-2.89,.65-1.24,.97-2.94,.97-5.11,0-2.67-.73-4.76-2.2-6.28-1.47-1.51-3.36-2.27-5.67-2.27-2.08,0-3.84,.62-5.29,1.87-1.73,1.5-2.6,3.81-2.6,6.92,0,2.84,.73,5.01,2.18,6.52h0Zm2.16-11.35c.94-1.07,2.12-1.6,3.55-1.6s2.58,.54,3.52,1.61c.94,1.07,1.42,2.65,1.42,4.73,0,2.21-.47,3.85-1.41,4.93-.94,1.08-2.12,1.62-3.53,1.62s-2.61-.54-3.55-1.61c-.94-1.07-1.41-2.68-1.41-4.84s.47-3.76,1.41-4.83h0Zm17.58,13.24v-8.8c0-1.2,.16-2.31,.48-3.33,.21-.67,.56-1.18,1.06-1.56,.5-.37,1.06-.56,1.68-.56,.7,0,1.39,.21,2.09,.62l.98-2.64c-.99-.61-1.97-.92-2.93-.92-.67,0-1.27,.19-1.83,.57s-1.16,1.17-1.81,2.36v-2.55h-2.57v16.82h2.85Zm31.74,0v-2.74h-11.43v-20.48h-3.07v23.22h14.51Zm6.16-19.94v-3.28h-2.85v3.28h2.85Zm0,19.94v-16.82h-2.85v16.82h2.85Zm7.19,0v-9.18c0-2.15,.44-3.62,1.32-4.39,.88-.77,1.93-1.16,3.14-1.16,.76,0,1.42,.17,1.99,.51,.56,.34,.96,.8,1.18,1.38,.22,.58,.33,1.44,.33,2.61v10.23h2.85v-10.34c0-1.32-.05-2.24-.16-2.77-.17-.81-.46-1.51-.89-2.11-.42-.59-1.06-1.07-1.91-1.43-.85-.36-1.78-.55-2.8-.55-2.33,0-4.12,.92-5.35,2.77v-2.39h-2.57v16.82h2.85Zm24.94-2.79c-.74,.55-1.63,.82-2.68,.82-1.4,0-2.58-.49-3.52-1.47-.94-.98-1.46-2.4-1.57-4.24h12.54c.01-.34,.02-.59,.02-.76,0-2.78-.71-4.93-2.14-6.46-1.43-1.53-3.26-2.3-5.51-2.3s-4.21,.78-5.67,2.34c-1.46,1.56-2.19,3.76-2.19,6.59s.72,4.86,2.16,6.37c1.44,1.52,3.39,2.27,5.85,2.27,1.95,0,3.56-.48,4.81-1.43,1.26-.95,2.12-2.29,2.58-4.01l-2.95-.36c-.43,1.2-1.02,2.08-1.76,2.63h0Zm-6.12-10.75c.89-.88,1.99-1.31,3.3-1.31,1.45,0,2.62,.55,3.53,1.65,.59,.71,.95,1.77,1.08,3.18h-9.39c.1-1.47,.59-2.64,1.48-3.52h0Zm25.95,13.54h2.98c-.36-.64-.6-1.32-.72-2.02-.12-.7-.18-2.38-.18-5.03v-3.8c0-1.27-.05-2.14-.14-2.63-.17-.78-.46-1.43-.89-1.94-.42-.51-1.08-.94-1.98-1.27-.9-.34-2.06-.51-3.5-.51s-2.72,.2-3.82,.59c-1.1,.4-1.94,.96-2.52,1.69-.58,.73-1,1.7-1.25,2.89l2.79,.38c.31-1.19,.78-2.02,1.42-2.49,.64-.47,1.63-.7,2.97-.7,1.44,0,2.52,.32,3.25,.97,.54,.48,.81,1.29,.81,2.45,0,.11,0,.35-.02,.74-1.09,.38-2.78,.71-5.08,.98-1.13,.14-1.97,.28-2.53,.43-.76,.21-1.44,.52-2.05,.93-.61,.41-1.1,.96-1.47,1.64-.37,.68-.56,1.43-.56,2.26,0,1.4,.5,2.56,1.49,3.46,.99,.9,2.41,1.35,4.26,1.35,1.12,0,2.17-.18,3.14-.55,.98-.37,1.99-1,3.05-1.9,.08,.79,.27,1.48,.57,2.07h0Zm-.81-7.4c0,1.26-.15,2.21-.46,2.85-.4,.83-1.03,1.49-1.88,1.97-.86,.48-1.83,.72-2.93,.72s-1.95-.25-2.53-.76c-.58-.51-.86-1.14-.86-1.9,0-.5,.13-.95,.4-1.35,.26-.41,.64-.72,1.12-.93,.49-.21,1.31-.4,2.49-.57,2.07-.3,3.62-.65,4.66-1.08v1.05h0Zm10.12,7.4v-8.8c0-1.2,.16-2.31,.48-3.33,.21-.67,.56-1.18,1.06-1.56,.5-.37,1.06-.56,1.68-.56,.7,0,1.39,.21,2.09,.62l.98-2.64c-.99-.61-1.97-.92-2.93-.92-.67,0-1.27,.19-1.83,.57s-1.16,1.17-1.81,2.36v-2.55h-2.57v16.82h2.85Zm20.43,0v-9.44h5.95c3.28,0,5.55-.68,6.81-2.05,1.26-1.37,1.88-3.04,1.88-5.01,0-1.15-.24-2.21-.7-3.17-.47-.96-1.09-1.71-1.86-2.24-.77-.53-1.73-.89-2.87-1.08-.81-.15-1.99-.22-3.53-.22h-8.76v23.22h3.07Zm0-20.48h5.94c1.39,0,2.35,.07,2.87,.21,.8,.22,1.45,.68,1.94,1.37,.49,.69,.74,1.52,.74,2.49,0,1.34-.42,2.38-1.25,3.12-.83,.74-2.24,1.11-4.23,1.11h-6v-8.3h0Zm21.01,20.48v-8.8c0-1.2,.16-2.31,.48-3.33,.21-.67,.56-1.18,1.06-1.56,.5-.37,1.06-.56,1.68-.56,.7,0,1.39,.21,2.09,.62l.98-2.64c-.99-.61-1.97-.92-2.93-.92-.67,0-1.27,.19-1.83,.57s-1.16,1.17-1.81,2.36v-2.55h-2.57v16.82h2.85Zm9.1-1.88c1.45,1.51,3.35,2.26,5.71,2.26,1.47,0,2.82-.34,4.06-1.03,1.24-.69,2.19-1.65,2.83-2.89,.65-1.24,.97-2.94,.97-5.11,0-2.67-.73-4.76-2.2-6.28-1.47-1.51-3.36-2.27-5.67-2.27-2.08,0-3.84,.62-5.29,1.87-1.73,1.5-2.6,3.81-2.6,6.92,0,2.84,.73,5.01,2.18,6.52h0Zm2.16-11.35c.94-1.07,2.12-1.6,3.55-1.6s2.58,.54,3.52,1.61c.94,1.07,1.42,2.65,1.42,4.73,0,2.21-.47,3.85-1.41,4.93-.94,1.08-2.12,1.62-3.53,1.62s-2.61-.54-3.55-1.61c-.94-1.07-1.41-2.68-1.41-4.84s.47-3.76,1.41-4.83h0Zm38.28,9.52c-1.19,.99-2.65,1.49-4.37,1.49-1.41,0-2.73-.36-3.94-1.09-1.21-.73-2.11-1.83-2.68-3.3-.58-1.47-.86-3.2-.86-5.17,0-1.53,.24-3.02,.73-4.46,.49-1.44,1.33-2.59,2.53-3.44,1.2-.86,2.69-1.28,4.47-1.28,1.55,0,2.84,.39,3.86,1.16,1.02,.77,1.81,2,2.34,3.69l3.02-.71c-.62-2.14-1.73-3.81-3.31-4.99-1.58-1.18-3.54-1.77-5.86-1.77-2.05,0-3.92,.47-5.63,1.4-1.71,.93-3.02,2.3-3.94,4.1-.92,1.8-1.39,3.91-1.39,6.33,0,2.22,.41,4.29,1.23,6.22,.82,1.93,2.01,3.41,3.58,4.43,1.57,1.02,3.6,1.53,6.1,1.53s4.46-.66,6.14-1.99c1.67-1.32,2.83-3.25,3.48-5.77l-3.07-.78c-.42,1.95-1.23,3.43-2.42,4.42h0Zm10.03,1.84c1.45,1.51,3.35,2.26,5.71,2.26,1.47,0,2.82-.34,4.06-1.03,1.24-.69,2.19-1.65,2.83-2.89,.65-1.24,.97-2.94,.97-5.11,0-2.67-.73-4.76-2.2-6.28-1.47-1.51-3.36-2.27-5.67-2.27-2.08,0-3.84,.62-5.29,1.87-1.73,1.5-2.6,3.81-2.6,6.92,0,2.84,.73,5.01,2.18,6.52h0Zm2.16-11.35c.94-1.07,2.12-1.6,3.55-1.6s2.58,.54,3.52,1.61c.94,1.07,1.42,2.65,1.42,4.73,0,2.21-.47,3.85-1.41,4.93-.94,1.08-2.12,1.62-3.53,1.62s-2.61-.54-3.55-1.61c-.94-1.07-1.41-2.68-1.41-4.84s.47-3.76,1.41-4.83h0Zm22.09,13.24l6.37-16.82h-2.93l-3.74,10.26c-.45,1.25-.81,2.31-1.06,3.2-.33-1.17-.69-2.3-1.08-3.39l-3.61-10.07h-3.01l6.4,16.82h2.66Zm18.64-2.79c-.74,.55-1.63,.82-2.68,.82-1.4,0-2.58-.49-3.52-1.47-.94-.98-1.46-2.4-1.57-4.24h12.54c.01-.34,.02-.59,.02-.76,0-2.78-.71-4.93-2.14-6.46-1.43-1.53-3.26-2.3-5.51-2.3s-4.21,.78-5.67,2.34c-1.46,1.56-2.19,3.76-2.19,6.59s.72,4.86,2.16,6.37c1.44,1.52,3.39,2.27,5.85,2.27,1.95,0,3.56-.48,4.81-1.43,1.26-.95,2.12-2.29,2.58-4.01l-2.95-.36c-.43,1.2-1.02,2.08-1.76,2.63h0Zm-6.12-10.75c.89-.88,1.99-1.31,3.3-1.31,1.45,0,2.62,.55,3.53,1.65,.59,.71,.95,1.77,1.08,3.18h-9.39c.1-1.47,.59-2.64,1.48-3.52h0Zm44,7.07c.58-1.53,.87-3.24,.87-5.15,0-2.3-.45-4.37-1.35-6.2-.9-1.83-2.21-3.26-3.94-4.28-1.72-1.02-3.65-1.53-5.8-1.53s-4.04,.49-5.76,1.47c-1.72,.98-3.04,2.41-3.97,4.29-.93,1.88-1.39,3.96-1.39,6.26s.46,4.37,1.39,6.21c.92,1.84,2.24,3.26,3.95,4.28s3.62,1.52,5.72,1.52,3.98-.48,5.7-1.44c1.66,1.3,3.32,2.25,4.99,2.85l.9-2.14c-1.2-.45-2.52-1.17-3.94-2.15,1.17-1.13,2.05-2.46,2.63-3.98h0Zm-10.14,2.29c1.07,.26,2.08,.71,3.04,1.33-.97,.41-2.01,.62-3.1,.62-2.32,0-4.23-.81-5.72-2.42-1.49-1.62-2.24-3.93-2.24-6.95s.75-5.46,2.26-7.02c1.51-1.57,3.41-2.35,5.7-2.35,1.53,0,2.91,.39,4.14,1.16,1.23,.78,2.16,1.87,2.8,3.27,.64,1.4,.96,3.05,.96,4.93,0,3.3-.9,5.78-2.71,7.43-1.15-.98-2.61-1.72-4.39-2.22l-.74,2.23h0Zm30.37-5.64c0,2.91-.48,4.88-1.44,5.91-.96,1.02-2.57,1.54-4.83,1.54-1.32,0-2.44-.26-3.35-.78-.91-.52-1.56-1.25-1.93-2.21-.37-.96-.56-2.44-.56-4.46v-13.4h-3.07v13.41c0,2.46,.3,4.4,.89,5.82,.59,1.42,1.58,2.5,2.96,3.25,1.38,.75,3.16,1.12,5.34,1.12s4.05-.43,5.42-1.29c1.38-.86,2.33-1.98,2.86-3.35,.53-1.37,.79-3.23,.79-5.56v-13.41h-3.07v13.4h0Zm8.9,9.82l2.55-7.03h9.71l2.71,7.03h3.5l-9.5-23.22h-3.31l-8.92,23.22h3.26Zm5.99-16.34c.54-1.47,.96-2.95,1.25-4.43,.36,1.26,.91,2.86,1.65,4.81l2.42,6.43h-7.87l2.55-6.81h0Zm23.31,16.34c1.4,0,2.65-.13,3.73-.4,1.08-.26,2.01-.65,2.77-1.16,.77-.51,1.47-1.21,2.11-2.11,.64-.89,1.17-2.02,1.58-3.38s.62-2.92,.62-4.69c0-2.07-.3-3.91-.91-5.52-.61-1.61-1.52-2.93-2.75-3.97-.94-.8-2.07-1.36-3.4-1.66-.95-.22-2.33-.33-4.13-.33h-8v23.22h8.38Zm-5.31-20.48h4.88c1.83,0,3.15,.16,3.97,.48,1.14,.44,2.11,1.32,2.91,2.62,.8,1.3,1.2,3.17,1.2,5.6,0,1.75-.2,3.24-.61,4.47-.41,1.23-.97,2.21-1.7,2.94-.52,.52-1.21,.92-2.08,1.2s-2.07,.43-3.6,.43h-4.96v-17.74h0Zm36.64,13.51v-2.87h-8.76v2.87h8.76Zm22.11-16.34h-1.84c-.5,1-1.34,2.04-2.53,3.1-1.19,1.07-2.59,1.97-4.18,2.72v2.76c.89-.33,1.89-.82,3-1.47,1.11-.65,2.01-1.31,2.7-1.96v18.16h2.85v-23.31h0Zm11.69,23.31v-10.55h10.9v-2.74h-10.9v-7.19h12.59v-2.74h-15.66v23.22h3.07Zm25.56,0v-20.48h7.68v-2.74h-18.4v2.74h7.65v20.48h3.07Z"/>
  </g>
</svg>