<?xml version="1.0" encoding="utf-8"?>
<!-- Generator: Adobe Illustrator 27.9.0, SVG Export Plug-In . SVG Version: 6.00 Build 0)  -->
<svg version="1.1" id="EXT_Wash_Pro_-_Thumbnail" xmlns="http://www.w3.org/2000/svg" xmlns:xlink="http://www.w3.org/1999/xlink"
	 x="0px" y="0px" viewBox="0 0 1024 1024" style="enable-background:new 0 0 1024 1024;" xml:space="preserve">
<style type="text/css">
	.st0{fill-rule:evenodd;clip-rule:evenodd;fill:#BBBBBB;stroke:#1D1D1B;stroke-miterlimit:10;}
	.st1{fill:none;stroke:#1D1D1B;stroke-linecap:round;stroke-linejoin:round;stroke-miterlimit:10;}
	.st2{fill-rule:evenodd;clip-rule:evenodd;fill:#FFFFFF;stroke:#1D1D1B;stroke-miterlimit:10;}
	.st3{stroke:#1D1D1B;stroke-miterlimit:10;}
</style>
<g id="Ext_Washo_Pro_S_CTC">
	<path class="st0" d="M9.5,241.7v540.5c0,127.4,104.8,232.3,232.2,232.3h540.5c127.4,0,232.2-104.8,232.2-232.3V241.7
		c0-127.4-104.8-232.3-232.2-232.3H241.7C114.3,9.5,9.5,114.3,9.5,241.7"/>
	<path class="st1" d="M9.5,241.7v540.5c0,127.4,104.8,232.3,232.2,232.3h540.5c127.4,0,232.2-104.8,232.2-232.3V241.7
		c0-127.4-104.8-232.3-232.2-232.3H241.7C114.3,9.5,9.5,114.3,9.5,241.7"/>
	<path class="st0" d="M97.3,263.2v497.7c0,91,74.9,165.9,165.9,165.9h497.7c91,0,165.9-74.9,165.9-165.9V263.2
		c0-91-74.9-165.9-165.9-165.9H263.2C172.2,97.3,97.3,172.2,97.3,263.2"/>
	<path class="st1" d="M97.3,263.2v497.7c0,91,74.9,165.9,165.9,165.9h497.7c91,0,165.9-74.9,165.9-165.9V263.2
		c0-91-74.9-165.9-165.9-165.9H263.2C172.2,97.3,97.3,172.2,97.3,263.2"/>
	<path class="st0" d="M374.1,263.2c0-61.3-50.4-111.7-111.7-111.7c-61.3,0-111.7,50.4-111.7,111.7c0,61.3,50.4,111.7,111.7,111.7
		C323.6,374.9,374.1,324.5,374.1,263.2"/>
	<path class="st1" d="M374.1,263.2c0-61.3-50.4-111.7-111.7-111.7c-61.3,0-111.7,50.4-111.7,111.7c0,61.3,50.4,111.7,111.7,111.7
		C323.6,374.9,374.1,324.5,374.1,263.2"/>
	<path class="st0" d="M374.1,512c0-61.3-50.4-111.7-111.7-111.7c-61.3,0-111.7,50.4-111.7,111.7c0,61.3,50.4,111.7,111.7,111.7
		C323.6,623.7,374.1,573.3,374.1,512"/>
	<path class="st1" d="M374.1,512c0-61.3-50.4-111.7-111.7-111.7c-61.3,0-111.7,50.4-111.7,111.7c0,61.3,50.4,111.7,111.7,111.7
		C323.6,623.7,374.1,573.3,374.1,512"/>
	<path class="st0" d="M374.1,760.8c0-61.3-50.4-111.7-111.7-111.7c-61.3,0-111.7,50.4-111.7,111.7c0,61.3,50.4,111.7,111.7,111.7
		C323.6,872.5,374.1,822.1,374.1,760.8"/>
	<path class="st1" d="M374.1,760.8c0-61.3-50.4-111.7-111.7-111.7c-61.3,0-111.7,50.4-111.7,111.7c0,61.3,50.4,111.7,111.7,111.7
		C323.6,872.5,374.1,822.1,374.1,760.8"/>
	<path class="st0" d="M623.7,263.2c0-61.3-50.4-111.7-111.7-111.7s-111.7,50.4-111.7,111.7c0,61.3,50.4,111.7,111.7,111.7
		S623.7,324.5,623.7,263.2"/>
	<path class="st1" d="M623.7,263.2c0-61.3-50.4-111.7-111.7-111.7s-111.7,50.4-111.7,111.7c0,61.3,50.4,111.7,111.7,111.7
		S623.7,324.5,623.7,263.2"/>
	<path class="st0" d="M623.7,512c0-61.3-50.4-111.7-111.7-111.7S400.3,450.7,400.3,512c0,61.3,50.4,111.7,111.7,111.7
		S623.7,573.3,623.7,512"/>
	<path class="st1" d="M623.7,512c0-61.3-50.4-111.7-111.7-111.7S400.3,450.7,400.3,512c0,61.3,50.4,111.7,111.7,111.7
		S623.7,573.3,623.7,512"/>
	<path class="st0" d="M623.7,760.8c0-61.3-50.4-111.7-111.7-111.7s-111.7,50.4-111.7,111.7c0,61.3,50.4,111.7,111.7,111.7
		S623.7,822.1,623.7,760.8"/>
	<path class="st1" d="M623.7,760.8c0-61.3-50.4-111.7-111.7-111.7s-111.7,50.4-111.7,111.7c0,61.3,50.4,111.7,111.7,111.7
		S623.7,822.1,623.7,760.8"/>
	<path class="st0" d="M873.3,263.2c0-61.3-50.4-111.7-111.7-111.7s-111.7,50.4-111.7,111.7c0,61.3,50.4,111.7,111.7,111.7
		S873.3,324.5,873.3,263.2"/>
	<path class="st1" d="M873.3,263.2c0-61.3-50.4-111.7-111.7-111.7s-111.7,50.4-111.7,111.7c0,61.3,50.4,111.7,111.7,111.7
		S873.3,324.5,873.3,263.2"/>
	<path class="st0" d="M873.3,512c0-61.3-50.4-111.7-111.7-111.7S649.9,450.7,649.9,512c0,61.3,50.4,111.7,111.7,111.7
		S873.3,573.3,873.3,512"/>
	<path class="st1" d="M873.3,512c0-61.3-50.4-111.7-111.7-111.7S649.9,450.7,649.9,512c0,61.3,50.4,111.7,111.7,111.7
		S873.3,573.3,873.3,512"/>
	<path class="st0" d="M873.3,760.8c0-61.3-50.4-111.7-111.7-111.7s-111.7,50.4-111.7,111.7c0,61.3,50.4,111.7,111.7,111.7
		S873.3,822.1,873.3,760.8"/>
	<path class="st1" d="M873.3,760.8c0-61.3-50.4-111.7-111.7-111.7s-111.7,50.4-111.7,111.7c0,61.3,50.4,111.7,111.7,111.7
		S873.3,822.1,873.3,760.8"/>
	<rect x="113.9" y="312.9" class="st2" width="796.3" height="398.1"/>
	<path class="st3" d="M212.9,488.6v-10.2h-33.7V462h30.3v-10.2h-30.3v-13.4h32.5v-10.2H167v60.3H212.9L212.9,488.6z M237.7,488.6
		l13.4-20.9l13.4,20.9h14.7l-20.6-31l18.8-29.3h-14.1l-11.9,19.4l-12.1-19.4H225l18.7,28.8l-20.6,31.5H237.7L237.7,488.6z
		 M317.1,488.6v-50.1H335v-10.2h-47.9v10.2H305v50.1H317.1L317.1,488.6z"/>
	<path class="st3" d="M396.9,488.6l12-45.1l12,45.1h12.9l14.6-60.3h-12.3l-9.3,42.1l-10.6-42.1h-14.5l-11,41.4l-9.1-41.4h-12.5
		l14.4,60.3H396.9L396.9,488.6z M493.8,428.3h-12.9l-23.5,60.3h12.9l5-13.7h24.1l5.3,13.7h13.3L493.8,428.3L493.8,428.3z M479,464.7
		l8.1-22.4l8.3,22.4H479L479,464.7z"/>
	<path class="st3" d="M535.4,484.4c4.1,3.5,9.9,5.3,17.6,5.3c5.2,0,9.6-0.7,13.1-2.2c3.5-1.5,6.2-3.7,8.1-6.7c1.9-3,2.9-6.3,2.9-9.7
		c0-3.8-0.8-7-2.4-9.6c-1.6-2.6-3.8-4.6-6.7-6.1c-2.8-1.5-7.2-2.9-13.1-4.3c-5.9-1.4-9.7-2.7-11.2-4c-1.2-1-1.8-2.2-1.8-3.7
		c0-1.6,0.6-2.8,1.9-3.7c2-1.5,4.8-2.2,8.3-2.2c3.4,0,6,0.7,7.7,2c1.7,1.4,2.8,3.6,3.4,6.7l12.2-0.5c-0.2-5.5-2.2-10-6-13.3
		c-3.8-3.3-9.5-5-17.1-5c-4.6,0-8.6,0.7-11.9,2.1c-3.3,1.4-5.8,3.4-7.5,6.1c-1.7,2.7-2.6,5.5-2.6,8.6c0,4.8,1.9,8.8,5.6,12.1
		c2.6,2.4,7.2,4.3,13.7,6c5.1,1.3,8.3,2.1,9.8,2.6c2.1,0.7,3.5,1.6,4.4,2.6c0.8,1,1.3,2.2,1.3,3.6c0,2.2-1,4.2-3,5.8
		c-2,1.7-4.9,2.5-8.9,2.5c-3.7,0-6.6-0.9-8.8-2.8c-2.2-1.9-3.6-4.8-4.3-8.8L528,469C528.8,475.7,531.3,480.8,535.4,484.4
		L535.4,484.4z M605.8,488.6v-26.4h23.9v26.4h12.2v-60.3h-12.2V452h-23.9v-23.7h-12.2v60.3H605.8L605.8,488.6z"/>
	<path class="st3" d="M699.4,488.6v-22.8h7.9c5.5,0,9.7-0.3,12.6-0.9c2.1-0.5,4.2-1.4,6.3-2.9c2.1-1.4,3.8-3.4,5.1-5.9
		c1.3-2.5,2-5.6,2-9.3c0-4.8-1.2-8.7-3.5-11.7c-2.3-3-5.2-5-8.7-5.9c-2.3-0.6-7.1-0.9-14.5-0.9h-19.5v60.3H699.4L699.4,488.6z
		 M705.3,438.5c4.4,0,7.3,0.1,8.8,0.4c2,0.4,3.6,1.2,4.9,2.7c1.3,1.4,1.9,3.2,1.9,5.4c0,1.8-0.5,3.3-1.4,4.7c-0.9,1.3-2.2,2.3-3.8,3
		c-1.6,0.6-4.8,0.9-9.6,0.9h-6.7v-17.1H705.3L705.3,438.5z"/>
	<path class="st3" d="M761.9,488.6v-25.2h2.5c2.8,0,4.8,0.2,6.1,0.7c1.3,0.5,2.5,1.3,3.7,2.5c1.2,1.2,3.3,4.2,6.4,8.9l8.8,13.1h14.6
		l-7.4-11.8c-2.9-4.7-5.2-8-6.9-9.8s-3.9-3.5-6.5-5.1c5.3-0.8,9.3-2.6,11.9-5.6c2.7-2.9,4-6.7,4-11.2c0-3.6-0.9-6.7-2.6-9.5
		c-1.8-2.8-4.1-4.7-7-5.8c-2.9-1.1-7.6-1.6-14.1-1.6h-25.6v60.3H761.9L761.9,488.6z M761.9,438.5h9.5c4.9,0,7.9,0.1,8.9,0.2
		c2,0.3,3.5,1.1,4.6,2.4s1.6,2.9,1.6,4.9c0,1.8-0.4,3.3-1.2,4.5c-0.8,1.2-2,2.1-3.4,2.6c-1.5,0.5-5.1,0.7-10.9,0.7h-9V438.5
		L761.9,438.5z M822.7,481.4c5.3,5.5,12.4,8.2,21.4,8.2c8.9,0,15.9-2.7,21.2-8.2c5.3-5.5,7.9-13.1,7.9-22.9c0-9.8-2.7-17.5-8-23
		c-5.3-5.5-12.4-8.3-21.3-8.3c-4.9,0-9.2,0.8-13,2.4c-2.8,1.2-5.4,3-7.8,5.4c-2.4,2.4-4.2,5.2-5.6,8.3c-1.8,4.2-2.8,9.3-2.8,15.5
		C814.8,468.4,817.4,475.9,822.7,481.4L822.7,481.4z M832,442.8c3.1-3.4,7.1-5.2,12.1-5.2c5,0,9,1.7,12.1,5.1
		c3,3.4,4.5,8.6,4.5,15.5c0,7-1.6,12.2-4.7,15.7c-3.1,3.5-7.1,5.2-12,5.2c-4.9,0-8.9-1.8-12-5.3c-3.2-3.5-4.7-8.7-4.7-15.5
		C827.3,451.4,828.9,446.2,832,442.8L832,442.8z"/>
	<path class="st3" d="M381.9,594.9c4.1,3.5,9.9,5.3,17.6,5.3c5.2,0,9.6-0.7,13.1-2.2c3.5-1.5,6.2-3.7,8.1-6.7s2.9-6.3,2.9-9.7
		c0-3.8-0.8-7-2.4-9.6c-1.6-2.6-3.8-4.6-6.7-6.1c-2.8-1.5-7.2-2.9-13.1-4.3c-5.9-1.4-9.7-2.7-11.2-4c-1.2-1-1.8-2.2-1.8-3.7
		c0-1.6,0.6-2.8,1.9-3.7c2-1.5,4.8-2.2,8.3-2.2c3.4,0,6,0.7,7.7,2s2.8,3.6,3.4,6.7l12.2-0.5c-0.2-5.5-2.2-10-6-13.3
		c-3.8-3.3-9.5-5-17.1-5c-4.6,0-8.6,0.7-11.9,2.1c-3.3,1.4-5.8,3.4-7.5,6.1c-1.7,2.7-2.6,5.5-2.6,8.6c0,4.8,1.9,8.8,5.6,12.1
		c2.6,2.4,7.2,4.3,13.7,6c5.1,1.3,8.3,2.1,9.8,2.6c2.1,0.7,3.5,1.6,4.4,2.6c0.8,1,1.3,2.2,1.3,3.6c0,2.2-1,4.2-3,5.8
		c-2,1.7-4.9,2.5-8.9,2.5c-3.7,0-6.6-0.9-8.8-2.8c-2.2-1.9-3.6-4.8-4.3-8.8l-11.9,1.2C375.4,586.2,377.8,591.3,381.9,594.9
		L381.9,594.9z"/>
	<path class="st3" d="M499.7,586.6c-2.3,2.1-5.1,3.1-8.4,3.1c-4.4,0-8-1.6-10.7-4.9c-2.7-3.2-4.1-8.7-4.1-16.3
		c0-7.2,1.4-12.4,4.2-15.6c2.8-3.2,6.4-4.8,10.9-4.8c3.2,0,6,0.9,8.3,2.7c2.3,1.8,3.8,4.3,4.5,7.4l12.1-2.9
		c-1.4-4.8-3.4-8.5-6.2-11.1c-4.6-4.4-10.6-6.5-18-6.5c-8.4,0-15.3,2.8-20.5,8.3c-5.2,5.6-7.8,13.4-7.8,23.4c0,9.5,2.6,17,7.7,22.4
		c5.2,5.5,11.7,8.2,19.8,8.2c6.5,0,11.8-1.6,16-4.8c4.2-3.2,7.2-8.1,9-14.7l-11.8-3.7C503.7,581.3,502,584.5,499.7,586.6
		L499.7,586.6z M559.6,599.1V549h17.9v-10.2h-47.9V549h17.9v50.1H559.6L559.6,599.1z"/>
	<path class="st3" d="M624.5,586.6c-2.3,2.1-5.1,3.1-8.4,3.1c-4.4,0-8-1.6-10.7-4.9c-2.7-3.2-4.1-8.7-4.1-16.3
		c0-7.2,1.4-12.4,4.2-15.6c2.8-3.2,6.4-4.8,10.9-4.8c3.2,0,6,0.9,8.3,2.7c2.3,1.8,3.8,4.3,4.5,7.4l12.1-2.9
		c-1.4-4.8-3.4-8.5-6.2-11.1c-4.6-4.4-10.6-6.5-18-6.5c-8.4,0-15.3,2.8-20.5,8.3c-5.2,5.6-7.8,13.4-7.8,23.4c0,9.5,2.6,17,7.7,22.4
		c5.2,5.5,11.7,8.2,19.8,8.2c6.5,0,11.8-1.6,16-4.8c4.2-3.2,7.2-8.1,9-14.7l-11.8-3.7C628.6,581.3,626.9,584.5,624.5,586.6
		L624.5,586.6z"/>
</g>
</svg>
