<?xml version="1.0" encoding="UTF-8"?>
<svg id="EXT_Linear_Pro_Graze_CTC_-_Thumbnail" data-name="EXT Linear Pro Graze CTC - Thumbnail" xmlns="http://www.w3.org/2000/svg" viewBox="0 0 1024 1024">
  <defs>
    <style>
      .cls-1, .cls-2 {
        fill: #fff;
      }

      .cls-2, .cls-3 {
        fill-rule: evenodd;
      }

      .cls-4 {
        stroke-width: .14px;
      }

      .cls-4, .cls-5 {
        fill: none;
        stroke: #000;
        stroke-linecap: round;
        stroke-linejoin: round;
      }

      .cls-6, .cls-3 {
        fill: #ccc;
      }
    </style>
  </defs>
  <g id="_1FT" data-name="1FT">
    <rect class="cls-6" x="12" y="447.87" width="1000" height="128.26"/>
    <rect class="cls-5" x="12" y="447.87" width="1000" height="128.26"/>
    <path class="cls-3" d="M971.52,512.15c0-19.88-16.36-36.23-36.23-36.23s-36.24,16.36-36.24,36.23,16.36,36.23,36.24,36.23,36.23-16.36,36.23-36.23"/>
    <path class="cls-4" d="M971.52,512.15c0-19.88-16.36-36.23-36.23-36.23s-36.24,16.36-36.24,36.23,16.36,36.23,36.24,36.23,36.23-16.36,36.23-36.23"/>
    <path class="cls-3" d="M892.4,512.15c0-19.88-16.36-36.23-36.23-36.23s-36.24,16.36-36.24,36.23,16.36,36.23,36.24,36.23,36.23-16.36,36.23-36.23"/>
    <path class="cls-4" d="M892.4,512.15c0-19.88-16.36-36.23-36.23-36.23s-36.24,16.36-36.24,36.23,16.36,36.23,36.24,36.23,36.23-16.36,36.23-36.23"/>
    <path class="cls-3" d="M813.28,512.15c0-19.88-16.36-36.23-36.24-36.23s-36.23,16.36-36.23,36.23,16.36,36.23,36.23,36.23,36.24-16.36,36.24-36.23"/>
    <path class="cls-4" d="M813.28,512.15c0-19.88-16.36-36.23-36.24-36.23s-36.23,16.36-36.23,36.23,16.36,36.23,36.23,36.23,36.24-16.36,36.24-36.23"/>
    <path class="cls-3" d="M734.15,512.15c0-19.88-16.36-36.23-36.24-36.23s-36.23,16.36-36.23,36.23,16.36,36.23,36.23,36.23,36.24-16.36,36.24-36.23"/>
    <path class="cls-4" d="M734.15,512.15c0-19.88-16.36-36.23-36.24-36.23s-36.23,16.36-36.23,36.23,16.36,36.23,36.23,36.23,36.24-16.36,36.24-36.23"/>
    <path class="cls-3" d="M655.03,512.15c0-19.88-16.36-36.23-36.24-36.23s-36.23,16.36-36.23,36.23,16.36,36.23,36.23,36.23,36.24-16.36,36.24-36.23"/>
    <path class="cls-4" d="M655.03,512.15c0-19.88-16.36-36.23-36.24-36.23s-36.23,16.36-36.23,36.23,16.36,36.23,36.23,36.23,36.24-16.36,36.24-36.23"/>
    <path class="cls-3" d="M575.91,512.15c0-19.88-16.36-36.23-36.24-36.23s-36.23,16.36-36.23,36.23,16.36,36.23,36.23,36.23,36.24-16.36,36.24-36.23"/>
    <path class="cls-4" d="M575.91,512.15c0-19.88-16.36-36.23-36.24-36.23s-36.23,16.36-36.23,36.23,16.36,36.23,36.23,36.23,36.24-16.36,36.24-36.23"/>
    <path class="cls-3" d="M496.79,512.15c0-19.88-16.36-36.23-36.24-36.23s-36.23,16.36-36.23,36.23,16.36,36.23,36.23,36.23,36.24-16.36,36.24-36.23"/>
    <path class="cls-4" d="M496.79,512.15c0-19.88-16.36-36.23-36.24-36.23s-36.23,16.36-36.23,36.23,16.36,36.23,36.23,36.23,36.24-16.36,36.24-36.23"/>
    <path class="cls-3" d="M417.66,512.15c0-19.88-16.36-36.23-36.24-36.23s-36.23,16.36-36.23,36.23,16.36,36.23,36.23,36.23,36.24-16.36,36.24-36.23"/>
    <path class="cls-4" d="M417.66,512.15c0-19.88-16.36-36.23-36.24-36.23s-36.23,16.36-36.23,36.23,16.36,36.23,36.23,36.23,36.24-16.36,36.24-36.23"/>
    <path class="cls-3" d="M338.54,512.15c0-19.88-16.36-36.23-36.24-36.23s-36.23,16.36-36.23,36.23,16.36,36.23,36.23,36.23,36.24-16.36,36.24-36.23"/>
    <path class="cls-4" d="M338.54,512.15c0-19.88-16.36-36.23-36.24-36.23s-36.23,16.36-36.23,36.23,16.36,36.23,36.23,36.23,36.24-16.36,36.24-36.23"/>
    <path class="cls-3" d="M259.42,512.15c0-19.88-16.36-36.23-36.23-36.23s-36.23,16.36-36.23,36.23,16.36,36.23,36.23,36.23,36.23-16.36,36.23-36.23"/>
    <path class="cls-4" d="M259.42,512.15c0-19.88-16.36-36.23-36.23-36.23s-36.23,16.36-36.23,36.23,16.36,36.23,36.23,36.23,36.23-16.36,36.23-36.23"/>
    <path class="cls-3" d="M180.29,512.15c0-19.88-16.36-36.23-36.23-36.23s-36.23,16.36-36.23,36.23,16.36,36.23,36.23,36.23,36.23-16.36,36.23-36.23"/>
    <path class="cls-4" d="M180.29,512.15c0-19.88-16.36-36.23-36.23-36.23s-36.23,16.36-36.23,36.23,16.36,36.23,36.23,36.23,36.23-16.36,36.23-36.23"/>
    <path class="cls-3" d="M101.17,512.15c0-19.88-16.36-36.23-36.23-36.23s-36.23,16.36-36.23,36.23,16.36,36.23,36.23,36.23,36.23-16.36,36.23-36.23"/>
    <path class="cls-4" d="M101.17,512.15c0-19.88-16.36-36.23-36.23-36.23s-36.23,16.36-36.23,36.23,16.36,36.23,36.23,36.23,36.23-16.36,36.23-36.23"/>
    <rect class="cls-1" x="179.78" y="464.08" width="641.02" height="96.15"/>
    <rect class="cls-5" x="179.78" y="464.08" width="641.02" height="96.15"/>
    <polyline class="cls-2" points="222.87 492.65 777.72 492.65 777.72 531.66 222.87 531.66 222.87 492.65"/>
    <path d="M243.67,523.18v-2.87h-14.91v-8.26h13.43v-2.85h-13.43v-7.44h14.34v-2.87h-17.56v24.28h18.12Zm5.68,0l4.62-6.94,.96,1.47,3.61,5.47h3.66l-6.54-9.31,6.08-8.28h-3.56l-2.96,4.16c-.41,.56-.86,1.21-1.34,1.94-.31-.53-.72-1.19-1.23-1.97l-2.7-4.12h-3.73l5.95,8.45-6.43,9.14h3.61Zm20.54-2.55c-.44,0-.78-.07-1.02-.22-.24-.14-.41-.34-.51-.58-.11-.24-.16-.79-.16-1.64v-10.29h3v-2.32h-3v-6.14l-2.96,1.79v4.36h-2.19v2.32h2.19v10.12c0,1.79,.12,2.96,.36,3.52,.24,.56,.66,1.01,1.26,1.35,.6,.34,1.44,.51,2.52,.51,.66,0,1.41-.09,2.25-.26l-.43-2.63c-.54,.08-.98,.12-1.31,.12h0Zm14.43-.36c-.77,.57-1.71,.86-2.8,.86-1.47,0-2.69-.51-3.68-1.54-.98-1.03-1.53-2.51-1.64-4.44h13.12c.01-.35,.02-.62,.02-.8,0-2.9-.75-5.16-2.24-6.76-1.49-1.6-3.41-2.4-5.76-2.4s-4.41,.82-5.93,2.45c-1.52,1.63-2.29,3.93-2.29,6.89s.75,5.08,2.26,6.67c1.51,1.58,3.55,2.38,6.12,2.38,2.04,0,3.72-.5,5.04-1.49,1.31-.99,2.21-2.39,2.7-4.19l-3.08-.38c-.45,1.26-1.07,2.18-1.84,2.75h0Zm-6.4-11.25c.93-.92,2.08-1.37,3.45-1.37,1.51,0,2.74,.57,3.69,1.72,.62,.74,.99,1.85,1.13,3.33h-9.82c.1-1.53,.62-2.76,1.55-3.68h0Zm18.01,14.16v-9.21c0-1.26,.17-2.42,.5-3.48,.22-.7,.59-1.24,1.11-1.63,.52-.39,1.1-.59,1.76-.59,.73,0,1.46,.22,2.19,.65l1.03-2.77c-1.04-.64-2.06-.96-3.06-.96-.7,0-1.33,.2-1.91,.6s-1.21,1.22-1.9,2.47v-2.67h-2.68v17.59h2.98Zm11.35-20.85v-3.43h-2.98v3.43h2.98Zm0,20.85v-17.59h-2.98v17.59h2.98Zm5.71-1.97c1.52,1.58,3.51,2.37,5.97,2.37,1.53,0,2.95-.36,4.25-1.08,1.3-.72,2.29-1.73,2.96-3.02,.68-1.3,1.02-3.08,1.02-5.34,0-2.79-.77-4.98-2.3-6.57-1.53-1.58-3.51-2.38-5.93-2.38-2.18,0-4.02,.65-5.53,1.95-1.81,1.57-2.72,3.98-2.72,7.24,0,2.97,.76,5.25,2.28,6.82h0Zm2.26-11.88c.98-1.12,2.22-1.67,3.71-1.67s2.7,.56,3.69,1.68c.99,1.12,1.48,2.77,1.48,4.94,0,2.31-.49,4.02-1.47,5.15-.98,1.13-2.21,1.69-3.69,1.69s-2.73-.56-3.71-1.68c-.98-1.12-1.47-2.81-1.47-5.06s.49-3.94,1.47-5.05h0Zm18.38,13.85v-9.21c0-1.26,.17-2.42,.5-3.48,.22-.7,.59-1.24,1.11-1.63,.52-.39,1.1-.59,1.76-.59,.73,0,1.46,.22,2.19,.65l1.03-2.77c-1.04-.64-2.06-.96-3.06-.96-.7,0-1.33,.2-1.91,.6s-1.21,1.22-1.9,2.47v-2.67h-2.68v17.59h2.98Zm33.19,0v-2.87h-11.96v-21.42h-3.21v24.28h15.17Zm6.44-20.85v-3.43h-2.98v3.43h2.98Zm0,20.85v-17.59h-2.98v17.59h2.98Zm7.52,0v-9.61c0-2.25,.46-3.78,1.38-4.59,.92-.81,2.02-1.21,3.29-1.21,.8,0,1.49,.18,2.08,.54,.59,.36,1,.84,1.23,1.44,.23,.6,.35,1.51,.35,2.72v10.7h2.98v-10.82c0-1.38-.06-2.35-.17-2.9-.18-.85-.49-1.58-.93-2.2-.44-.62-1.11-1.12-2-1.5-.89-.38-1.86-.57-2.92-.57-2.44,0-4.31,.97-5.6,2.9v-2.5h-2.68v17.59h2.98Zm26.09-2.92c-.77,.57-1.71,.86-2.8,.86-1.47,0-2.69-.51-3.68-1.54-.98-1.03-1.53-2.51-1.64-4.44h13.12c.01-.35,.02-.62,.02-.8,0-2.9-.75-5.16-2.24-6.76-1.49-1.6-3.41-2.4-5.76-2.4s-4.41,.82-5.93,2.45c-1.52,1.63-2.29,3.93-2.29,6.89s.75,5.08,2.26,6.67c1.51,1.58,3.55,2.38,6.12,2.38,2.04,0,3.72-.5,5.04-1.49,1.31-.99,2.21-2.39,2.7-4.19l-3.08-.38c-.45,1.26-1.07,2.18-1.84,2.75h0Zm-6.4-11.25c.93-.92,2.08-1.37,3.45-1.37,1.51,0,2.74,.57,3.69,1.72,.62,.74,.99,1.85,1.13,3.33h-9.82c.1-1.53,.62-2.76,1.55-3.68h0Zm27.14,14.16h3.11c-.38-.67-.63-1.38-.75-2.11-.13-.73-.19-2.49-.19-5.26v-3.98c0-1.33-.05-2.24-.15-2.75-.18-.82-.49-1.49-.93-2.03-.44-.54-1.13-.98-2.07-1.33-.94-.35-2.16-.53-3.66-.53s-2.84,.21-3.99,.62c-1.15,.41-2.03,1-2.63,1.77-.61,.77-1.04,1.78-1.31,3.02l2.92,.4c.32-1.25,.81-2.12,1.48-2.61,.67-.49,1.7-.74,3.11-.74,1.5,0,2.63,.34,3.4,1.01,.56,.5,.84,1.35,.84,2.57,0,.11,0,.37-.02,.78-1.14,.4-2.91,.74-5.32,1.03-1.18,.14-2.06,.29-2.65,.45-.8,.22-1.51,.55-2.14,.98-.64,.43-1.15,1-1.54,1.71-.39,.71-.59,1.5-.59,2.36,0,1.47,.52,2.67,1.56,3.62,1.04,.94,2.52,1.42,4.46,1.42,1.17,0,2.27-.19,3.29-.58,1.02-.39,2.08-1.05,3.19-1.99,.09,.83,.29,1.55,.6,2.17h0Zm-.84-7.73c0,1.31-.16,2.31-.48,2.98-.42,.87-1.08,1.56-1.97,2.06-.89,.5-1.92,.75-3.06,.75s-2.04-.27-2.64-.8c-.6-.53-.9-1.19-.9-1.99,0-.52,.14-.99,.41-1.42,.28-.42,.67-.75,1.18-.97,.51-.22,1.37-.42,2.6-.6,2.16-.31,3.79-.68,4.87-1.13v1.09h0Zm10.58,7.73v-9.21c0-1.26,.17-2.42,.5-3.48,.22-.7,.59-1.24,1.11-1.63,.52-.39,1.1-.59,1.76-.59,.73,0,1.46,.22,2.19,.65l1.03-2.77c-1.04-.64-2.06-.96-3.06-.96-.7,0-1.33,.2-1.91,.6s-1.21,1.22-1.9,2.47v-2.67h-2.68v17.59h2.98Zm21.37,0v-9.87h6.23c3.43,0,5.81-.71,7.12-2.14,1.31-1.43,1.97-3.18,1.97-5.24,0-1.2-.25-2.31-.74-3.31-.49-1-1.14-1.79-1.95-2.34-.81-.56-1.81-.94-3-1.13-.85-.15-2.08-.23-3.69-.23h-9.16v24.28h3.21Zm0-21.42h6.21c1.46,0,2.46,.07,3,.22,.84,.23,1.52,.71,2.03,1.43,.51,.72,.77,1.59,.77,2.61,0,1.4-.44,2.49-1.31,3.26-.87,.77-2.35,1.16-4.42,1.16h-6.28v-8.68h0Zm21.98,21.42v-9.21c0-1.26,.17-2.42,.5-3.48,.22-.7,.59-1.24,1.11-1.63,.52-.39,1.1-.59,1.76-.59,.73,0,1.46,.22,2.19,.65l1.03-2.77c-1.04-.64-2.06-.96-3.06-.96-.7,0-1.33,.2-1.91,.6s-1.21,1.22-1.9,2.47v-2.67h-2.68v17.59h2.98Zm9.52-1.97c1.52,1.58,3.51,2.37,5.97,2.37,1.53,0,2.95-.36,4.25-1.08,1.3-.72,2.29-1.73,2.96-3.02,.68-1.3,1.02-3.08,1.02-5.34,0-2.79-.77-4.98-2.3-6.57-1.53-1.58-3.51-2.38-5.93-2.38-2.18,0-4.02,.65-5.53,1.95-1.81,1.57-2.72,3.98-2.72,7.24,0,2.97,.76,5.25,2.28,6.82h0Zm2.26-11.88c.98-1.12,2.22-1.67,3.71-1.67s2.7,.56,3.69,1.68c.99,1.12,1.48,2.77,1.48,4.94,0,2.31-.49,4.02-1.47,5.15-.98,1.13-2.21,1.69-3.69,1.69s-2.73-.56-3.71-1.68c-.98-1.12-1.47-2.81-1.47-5.06s.49-3.94,1.47-5.05h0Zm43.74,4.32v4.52c-.68,.61-1.69,1.18-3.01,1.71-1.33,.54-2.68,.8-4.07,.8-1.6,0-3.11-.35-4.54-1.06-1.42-.71-2.51-1.79-3.25-3.25s-1.12-3.27-1.12-5.43c0-1.76,.31-3.38,.93-4.89,.36-.87,.87-1.67,1.53-2.4,.66-.73,1.52-1.32,2.59-1.76,1.07-.45,2.34-.67,3.81-.67,1.23,0,2.34,.21,3.35,.64,1,.43,1.78,.99,2.32,1.7,.54,.71,.99,1.68,1.36,2.92l2.9-.8c-.42-1.63-1.03-2.96-1.84-3.98-.81-1.02-1.92-1.81-3.34-2.38-1.42-.57-3.01-.85-4.76-.85-2.42,0-4.55,.5-6.41,1.49s-3.28,2.51-4.26,4.56c-.99,2.05-1.48,4.25-1.48,6.62s.5,4.54,1.49,6.48c.99,1.93,2.47,3.41,4.41,4.43,1.95,1.02,4.12,1.53,6.5,1.53,1.77,0,3.49-.32,5.17-.95,1.68-.63,3.31-1.58,4.89-2.84v-9.01l-10.29,.02v2.85h7.14Zm10.45,9.52v-9.21c0-1.26,.17-2.42,.5-3.48,.22-.7,.59-1.24,1.11-1.63,.52-.39,1.1-.59,1.76-.59,.73,0,1.46,.22,2.19,.65l1.03-2.77c-1.04-.64-2.06-.96-3.06-.96-.7,0-1.33,.2-1.91,.6s-1.21,1.22-1.9,2.47v-2.67h-2.68v17.59h2.98Zm20.42,0h3.11c-.38-.67-.63-1.38-.75-2.11-.13-.73-.19-2.49-.19-5.26v-3.98c0-1.33-.05-2.24-.15-2.75-.18-.82-.49-1.49-.93-2.03-.44-.54-1.13-.98-2.07-1.33-.94-.35-2.16-.53-3.66-.53s-2.84,.21-3.99,.62c-1.15,.41-2.03,1-2.63,1.77-.61,.77-1.04,1.78-1.31,3.02l2.92,.4c.32-1.25,.81-2.12,1.48-2.61,.67-.49,1.7-.74,3.11-.74,1.5,0,2.63,.34,3.4,1.01,.56,.5,.84,1.35,.84,2.57,0,.11,0,.37-.02,.78-1.14,.4-2.91,.74-5.32,1.03-1.18,.14-2.06,.29-2.65,.45-.8,.22-1.51,.55-2.14,.98-.64,.43-1.15,1-1.54,1.71-.39,.71-.59,1.5-.59,2.36,0,1.47,.52,2.67,1.56,3.62,1.04,.94,2.52,1.42,4.46,1.42,1.17,0,2.27-.19,3.29-.58,1.02-.39,2.08-1.05,3.19-1.99,.09,.83,.29,1.55,.6,2.17h0Zm-.84-7.73c0,1.31-.16,2.31-.48,2.98-.42,.87-1.08,1.56-1.97,2.06-.89,.5-1.92,.75-3.06,.75s-2.04-.27-2.64-.8c-.6-.53-.9-1.19-.9-1.99,0-.52,.14-.99,.41-1.42,.28-.42,.67-.75,1.18-.97,.51-.22,1.37-.42,2.6-.6,2.16-.31,3.79-.68,4.87-1.13v1.09h0Zm21.63,7.73v-2.57h-8.13c-1.17,0-2.42,.05-3.76,.15l1.84-2.04,9.52-11.16v-1.97h-14.38v2.42h7.17c.97,0,2.09-.03,3.36-.1l-11.2,12.85v2.42h15.57Zm13.17-2.92c-.77,.57-1.71,.86-2.8,.86-1.47,0-2.69-.51-3.68-1.54-.98-1.03-1.53-2.51-1.64-4.44h13.12c.01-.35,.02-.62,.02-.8,0-2.9-.75-5.16-2.24-6.76-1.49-1.6-3.41-2.4-5.76-2.4s-4.41,.82-5.93,2.45c-1.52,1.63-2.29,3.93-2.29,6.89s.75,5.08,2.26,6.67c1.51,1.58,3.55,2.38,6.12,2.38,2.04,0,3.72-.5,5.04-1.49,1.31-.99,2.21-2.39,2.7-4.19l-3.08-.38c-.45,1.26-1.07,2.18-1.84,2.75h0Zm-6.4-11.25c.93-.92,2.08-1.37,3.45-1.37,1.51,0,2.74,.57,3.69,1.72,.62,.74,.99,1.85,1.13,3.33h-9.82c.1-1.53,.62-2.76,1.55-3.68h0Zm39.66,10.27c-1.25,1.04-2.77,1.56-4.57,1.56-1.48,0-2.85-.38-4.12-1.14-1.27-.76-2.21-1.91-2.81-3.45-.6-1.54-.9-3.34-.9-5.41,0-1.6,.25-3.16,.76-4.66,.51-1.51,1.39-2.71,2.64-3.6,1.25-.89,2.81-1.34,4.68-1.34,1.62,0,2.97,.4,4.04,1.21,1.07,.81,1.89,2.09,2.45,3.86l3.16-.75c-.65-2.24-1.81-3.98-3.46-5.22-1.66-1.24-3.7-1.86-6.13-1.86-2.14,0-4.11,.49-5.89,1.47-1.78,.98-3.16,2.41-4.12,4.29-.97,1.88-1.45,4.09-1.45,6.62,0,2.32,.43,4.49,1.28,6.51,.86,2.02,2.1,3.56,3.74,4.63,1.64,1.07,3.77,1.6,6.39,1.6s4.67-.69,6.42-2.08c1.75-1.39,2.96-3.4,3.64-6.04l-3.21-.81c-.44,2.04-1.29,3.58-2.53,4.62h0Zm19.1,3.89v-21.42h8.03v-2.87h-19.25v2.87h8v21.42h3.21Zm26.12-3.89c-1.25,1.04-2.77,1.56-4.57,1.56-1.48,0-2.85-.38-4.12-1.14-1.27-.76-2.21-1.91-2.81-3.45-.6-1.54-.9-3.34-.9-5.41,0-1.6,.25-3.16,.76-4.66,.51-1.51,1.39-2.71,2.64-3.6,1.25-.89,2.81-1.34,4.68-1.34,1.62,0,2.97,.4,4.04,1.21,1.07,.81,1.89,2.09,2.45,3.86l3.16-.75c-.65-2.24-1.81-3.98-3.46-5.22-1.66-1.24-3.7-1.86-6.13-1.86-2.14,0-4.11,.49-5.89,1.47-1.78,.98-3.16,2.41-4.12,4.29-.97,1.88-1.45,4.09-1.45,6.62,0,2.32,.43,4.49,1.28,6.51,.86,2.02,2.1,3.56,3.74,4.63,1.64,1.07,3.77,1.6,6.39,1.6s4.67-.69,6.42-2.08c1.75-1.39,2.96-3.4,3.64-6.04l-3.21-.81c-.44,2.04-1.29,3.58-2.53,4.62h0Zm26.75-3.4v-3h-9.16v3h9.16Zm23.12-17.09h-1.92c-.52,1.05-1.4,2.13-2.65,3.25-1.25,1.12-2.71,2.06-4.37,2.85v2.88c.93-.34,1.97-.86,3.14-1.54,1.16-.68,2.11-1.37,2.82-2.05v19h2.98v-24.38h0Zm12.22,24.38v-11.03h11.4v-2.87h-11.4v-7.52h13.17v-2.87h-16.38v24.28h3.21Zm26.73,0v-21.42h8.03v-2.87h-19.25v2.87h8v21.42h3.21Z"/>
  </g>
</svg>