<?xml version="1.0" encoding="utf-8"?>
<!-- Generator: Adobe Illustrator 25.4.1, SVG Export Plug-In . SVG Version: 6.00 Build 0)  -->
<svg version="1.1" id="MAC_Viper_Wash-_Thumbnail" xmlns="http://www.w3.org/2000/svg" xmlns:xlink="http://www.w3.org/1999/xlink"
	 x="0px" y="0px" viewBox="0 0 1024 1024" style="enable-background:new 0 0 1024 1024;" xml:space="preserve">
<style type="text/css">
	.st0{fill-rule:evenodd;clip-rule:evenodd;fill:#CCCCCC;stroke:#1D1D1B;stroke-miterlimit:10;}
	.st1{fill:none;stroke:#1D1D1B;stroke-linecap:round;stroke-linejoin:round;stroke-miterlimit:10;}
	.st2{fill:none;stroke:#1D1D1B;stroke-miterlimit:10;}
	.st3{fill-rule:evenodd;clip-rule:evenodd;fill:#FFFFFF;stroke:#1D1D1B;stroke-miterlimit:10;}
	.st4{stroke:#1D1D1B;stroke-miterlimit:10;}
</style>
<g>
	<path class="st0" d="M808.3,268.2l-27.8,24.1l-17.3-1.8H260.7l-17.3,1.8l-27.8-24.1l-58.8,12.3l-17.2,38.1l-18.8,53.7l-11.8,93.5
		l-6.6,90l6.6,90l11.8,93.5l18.8,53.7l17.2,38.1l58.8,12.3l27.8-24.1l17.3,1.8h502.5l17.3-1.8l27.8,24.1l58.8-12.3l17.2-38.1
		l18.8-53.7l11.8-93.5l6.6-90l-6.6-90l-11.8-93.5l-18.8-53.7l-17.2-38.1L808.3,268.2 M130.5,457.9c0-4.1,0.4-9.7,1.2-16.8
		c0.8-7.1,1.9-12.7,3.2-16.8c1.4-4.1,2.4-6.2,3.2-6.2h36.4c1.6,0,3,2.1,4.4,6.2c1.4,4.1,2.4,9.7,3.2,16.8c0.8,7.1,1.2,12.7,1.2,16.8
		v196.1c0,4.1-0.4,9.7-1.2,16.8c-0.8,7.1-1.9,12.7-3.2,16.8c-1.4,4.1-2.4,6.2-3.2,6.2h-37.6c-0.8,0-1.9-2.1-3.2-6.2
		c-1.4-4.1-2.4-9.7-3.2-16.8c-0.8-7.1-1.2-12.7-1.2-16.8V457.9 M889.5,686.5c-1.4,4.1-2.4,6.2-3.2,6.2l-36.4,0.1c-1.6,0-3-2-4.4-6.1
		c-1.4-4.1-2.5-9.7-3.3-16.8c-0.8-7.1-1.2-12.7-1.2-16.8l-0.6-196.1c0-4.1,0.4-9.7,1.1-16.8c0.8-7.1,1.8-12.7,3.2-16.8
		c1.4-4.1,2.4-6.2,3.2-6.2l37.6-0.1c0.8,0,1.9,2,3.2,6.1c1.4,4.1,2.5,9.7,3.3,16.8c0.8,7.1,1.2,12.7,1.2,16.8l0.6,196
		c0,4.1-0.4,9.7-1.1,16.8C891.9,676.7,890.8,682.3,889.5,686.5"/>
	<polyline class="st0" points="234.7,812.9 198.9,807.2 162.3,792.8 138.1,693.7 	"/>
	<polyline class="st0" points="234.9,299.1 199.1,304.7 162.5,319.1 138.1,418.1 	"/>
	<polyline class="st0" points="788.5,813.7 824.4,808.2 860.9,793.8 885.5,694.8 	"/>
	<polyline class="st0" points="789.8,299.9 825.7,305.6 862.2,320.1 886.3,419.2 	"/>
	<polyline class="st0" points="227.8,422.4 511.7,422 795.5,422.4 851.3,428.6 911,465.8 918.9,555.4 911,647 850.4,684.1 
		797.5,690.3 225.9,690.3 173,684.1 112.4,647 104.5,555.4 112.3,465.8 172,428.6 227.8,422.4 	"/>
	<polyline class="st0" points="815,673.4 833.2,655.9 836.9,638.3 843.7,555.5 837.3,471.8 829,450.6 810.6,440.3 831.1,435.8 
		850.9,449.2 858.7,469.1 864.5,554.6 858.7,640.1 848.3,667.8 832.2,678.6 813.7,672.8 815.8,675.6 814.3,673.1 	"/>
	<polyline class="st0" points="208.4,673.4 190.2,655.9 186.4,638.3 179.7,555.5 186.1,471.8 194.3,450.6 212.8,440.3 192.3,435.8 
		172.4,449.2 164.6,469.1 158.9,554.6 164.6,640.1 175,667.8 191.1,678.6 209.6,672.8 207.5,675.6 209,673.1 	"/>
	<path class="st1" d="M208.4,673.4l-18.2-17.5l-3.7-17.7l-6.8-82.8l6.4-83.7l8.3-21.2l18.5-10.2l-20.5-4.5l-19.9,13.3l-7.8,19.9
		l-5.7,85.5l5.7,85.5l10.4,27.7l16.1,10.8l18.5-5.8l-2.1,2.8l1.5-2.5 M771.2,422.4v267.9 M252.1,422.4l0.4,267.9 M227.8,422.4
		l0.4,267.9 M795.5,422.4l2,267.9"/>
	<polyline class="st0" points="699.6,0.5 696.5,19.2 510.5,21 324.5,19.8 321.3,1.1 699.6,0.5 	"/>
	<polyline class="st0" points="512.4,1001 422.3,996.1 375.5,987.6 365.1,977.3 354.6,941 287,917 274.8,896.3 243.3,823.7 
		236.4,794.2 233.5,784.1 228.2,689.8 229.1,421.8 260.3,292.2 273.9,210.8 320.4,144.8 342.8,122.2 678.5,121.6 701,144.1 
		747.8,209.8 761.6,291.2 795.6,421.8 796.6,689.8 791.2,784.1 788.4,794.2 780.7,822.7 749.5,895.4 737.4,916.1 711.4,928.3 
		669.9,940.4 659.5,976.7 649.1,987.1 602.4,995.8 512.4,1001 	"/>
	<rect x="365.6" y="821.5" class="st0" width="292.2" height="87.3"/>
	<path class="st2" d="M365.6,821.5h292.2v87.3H365.6V821.5z M645.9,893.3H379 M645.9,880.8H379 M645.9,868.2H379 M645.9,855.6H379
		 M645.9,843H379 M645.9,830.5H379"/>
	<polyline class="st0" points="665.8,888.5 688.8,891.9 732.4,859.9 762.4,784.6 740.4,374.2 667.5,168.1 	"/>
	<polyline class="st0" points="358.9,888.5 335.9,891.9 292.3,859.9 262.2,784.6 284.3,374.2 357.2,168.1 	"/>
	<path class="st2" d="M358.9,888.5l-23,3.4l-43.7-32l-30-75.3l22.1-410.4l72.9-206.1 M650.8,161.4l72.7,202.5 M370.7,161.4
		L298,363.9"/>
	<polyline class="st0" points="342.8,122.1 316.9,20.1 704.1,19.4 678.5,121.5 342.8,122.1 	"/>
	<rect x="278.1" y="436.1" class="st3" width="467.1" height="239.2"/>
	<path class="st4" d="M360.2,541v-35.7l12.1,35.7h5l12.2-35.1V541h5.4v-42h-7.5l-10,29.2c-1,3-1.8,5.2-2.2,6.7
		c-0.4-1.4-1.1-3.4-2-6.2l-9.9-29.7h-8.4v42H360.2L360.2,541z M405.1,541l4.6-12.7h17.5l4.9,12.7h6.3l-17.2-42h-6l-16.1,42H405.1
		L405.1,541z M415.9,511.5c1-2.7,1.7-5.3,2.3-8c0.6,2.3,1.6,5.2,3,8.7l4.4,11.6h-14.2L415.9,511.5L415.9,511.5z M468.5,534.3
		c-2.2,1.8-4.8,2.7-7.9,2.7c-2.6,0-4.9-0.7-7.1-2c-2.2-1.3-3.8-3.3-4.9-6c-1-2.7-1.6-5.8-1.6-9.3c0-2.8,0.4-5.5,1.3-8.1
		c0.9-2.6,2.4-4.7,4.6-6.2c2.2-1.5,4.9-2.3,8.1-2.3c2.8,0,5.1,0.7,7,2.1c1.9,1.4,3.3,3.6,4.2,6.7l5.5-1.3c-1.1-3.9-3.1-6.9-6-9
		c-2.9-2.1-6.4-3.2-10.6-3.2c-3.7,0-7.1,0.8-10.2,2.5c-3.1,1.7-5.5,4.2-7.1,7.4c-1.7,3.3-2.5,7.1-2.5,11.4c0,4,0.7,7.8,2.2,11.3
		c1.5,3.5,3.6,6.2,6.5,8c2.8,1.8,6.5,2.8,11,2.8c4.4,0,8.1-1.2,11.1-3.6c3-2.4,5.1-5.9,6.3-10.4l-5.6-1.4
		C472.1,529.8,470.6,532.5,468.5,534.3L468.5,534.3z M519.2,541l16.4-42H530l-11.3,30.5c-0.9,2.3-1.6,4.6-2.3,6.9
		c-0.6-2.1-1.3-4.4-2.2-6.9l-10.9-30.5h-6l16.3,42H519.2L519.2,541z M547.2,541v-42h-5.6v42H547.2L547.2,541z M562.5,541V524h10.8
		c5.9,0,10-1.2,12.3-3.7c2.3-2.5,3.4-5.5,3.4-9.1c0-2.1-0.4-4-1.3-5.7c-0.8-1.7-2-3.1-3.4-4.1c-1.4-1-3.1-1.6-5.2-2
		c-1.5-0.3-3.6-0.4-6.4-0.4h-15.8v42H562.5L562.5,541z M562.5,504h10.7c2.5,0,4.2,0.1,5.2,0.4c1.5,0.4,2.6,1.2,3.5,2.5
		c0.9,1.3,1.3,2.8,1.3,4.5c0,2.4-0.8,4.3-2.3,5.6c-1.5,1.3-4.1,2-7.6,2h-10.8V504L562.5,504z M627.5,541v-5h-25.8v-14.3h23.2v-4.9
		h-23.2V504h24.8v-5h-30.3v42H627.5L627.5,541z M640.8,541v-18.6h6.4c1.4,0,2.5,0.1,3.1,0.2c0.9,0.2,1.7,0.6,2.5,1.1
		c0.8,0.5,1.8,1.5,2.8,2.8c1,1.3,2.4,3.3,4,5.8l5.6,8.7h7l-7.3-11.4c-1.5-2.2-3-4.1-4.6-5.6c-0.8-0.7-1.9-1.4-3.3-2.1
		c4-0.6,7-1.9,8.9-3.9c1.9-2,2.9-4.6,2.9-7.5c0-2.3-0.6-4.4-1.7-6.3c-1.2-1.9-2.7-3.2-4.7-4c-1.9-0.8-4.8-1.1-8.5-1.1h-18.6v42
		H640.8L640.8,541z M640.8,503.7h13.3c3.1,0,5.4,0.6,6.8,1.9c1.4,1.3,2.2,2.9,2.2,4.9c0,1.4-0.4,2.6-1.1,3.8c-0.7,1.2-1.8,2-3.3,2.5
		c-1.4,0.5-3.4,0.8-6,0.8h-11.9V503.7L640.8,503.7z"/>
	<path class="st4" d="M392.9,608l8.9-31.8c0.4-1.3,0.8-3,1.2-4.9c0.1,0.6,0.6,2.2,1.3,4.9l8.8,31.8h5.3l11.5-41.8h-5.6l-6.6,26.9
		c-0.9,3.4-1.5,6.5-2.1,9.1c-0.7-4.6-1.7-9.6-3.3-14.8l-6-21.2h-6.7l-8,28.2c-0.2,0.7-0.8,3.3-1.9,7.7c-0.5-2.8-1.1-5.7-1.8-8.6
		l-6.4-27.4h-5.7l11.1,41.8H392.9L392.9,608z M436.3,608l4.6-12.7h17.5l4.9,12.7h6.3l-17.1-41.8h-6L430.5,608H436.3L436.3,608z
		 M447.1,578.6c1-2.6,1.7-5.3,2.3-8c0.6,2.3,1.6,5.2,3,8.7l4.4,11.6h-14.2L447.1,578.6L447.1,578.6z M474.4,602.1
		c1.5,2.2,3.5,3.9,6,5c2.6,1.1,5.7,1.7,9.5,1.7c3,0,5.7-0.5,8.1-1.6c2.4-1.1,4.2-2.6,5.5-4.6c1.3-2,1.9-4.1,1.9-6.3
		c0-2.2-0.6-4.2-1.7-5.9c-1.2-1.7-3-3.1-5.4-4.3c-1.7-0.8-4.8-1.6-9.3-2.7c-4.5-1-7.3-2-8.3-3c-1.1-1-1.6-2.2-1.6-3.7
		c0-1.7,0.8-3.2,2.3-4.4c1.5-1.2,4-1.8,7.3-1.8c3.2,0,5.6,0.7,7.3,2c1.6,1.3,2.6,3.3,2.9,6l5.3-0.4c-0.1-2.5-0.8-4.6-2.1-6.6
		c-1.3-1.9-3.1-3.4-5.5-4.4c-2.4-1-5.1-1.5-8.2-1.5c-2.8,0-5.4,0.5-7.7,1.4c-2.3,1-4,2.3-5.2,4.2c-1.2,1.8-1.8,3.8-1.8,5.9
		c0,1.9,0.5,3.7,1.5,5.2c1,1.5,2.5,2.8,4.5,3.9c1.5,0.8,4.2,1.7,8.1,2.6c3.8,0.9,6.3,1.6,7.4,2c1.7,0.7,3,1.5,3.8,2.5
		c0.8,1,1.1,2.1,1.1,3.4c0,1.3-0.4,2.5-1.2,3.6c-0.8,1.1-2,2-3.6,2.6c-1.6,0.6-3.5,0.9-5.6,0.9c-2.4,0-4.5-0.4-6.4-1.2
		c-1.9-0.8-3.3-1.9-4.2-3.3c-0.9-1.3-1.5-3.1-1.7-5.1l-5.2,0.5C472.2,597.4,473,599.9,474.4,602.1L474.4,602.1z M518.7,608v-19.7
		h21.7V608h5.5v-41.8h-5.5v17.2h-21.7v-17.2h-5.5V608H518.7L518.7,608z M586.4,608c2.5,0,4.8-0.2,6.7-0.7c1.9-0.5,3.6-1.2,5-2.1
		c1.4-0.9,2.6-2.2,3.8-3.8c1.2-1.6,2.1-3.6,2.9-6.1c0.7-2.5,1.1-5.3,1.1-8.4c0-3.7-0.5-7-1.6-9.9c-1.1-2.9-2.7-5.3-4.9-7.1
		c-1.7-1.4-3.7-2.4-6.1-3c-1.7-0.4-4.2-0.6-7.4-0.6h-14.4V608H586.4L586.4,608z M576.9,571.1h8.8c3.3,0,5.7,0.3,7.2,0.9
		c2.1,0.8,3.8,2.4,5.2,4.7c1.4,2.3,2.2,5.7,2.2,10.1c0,3.2-0.4,5.8-1.1,8.1c-0.7,2.2-1.8,4-3.1,5.3c-0.9,0.9-2.2,1.7-3.7,2.2
		c-1.6,0.5-3.7,0.8-6.5,0.8h-8.9V571.1L576.9,571.1z M615.9,608l10.5-14.6c0.4-0.6,1.1-1.6,2-3.1c0.6,1,1.2,1.9,1.8,2.8l10.5,14.9
		h6.8l-15.8-22.1l14.7-19.7h-6l-8.4,11.1c-1.3,1.7-2.4,3.2-3.3,4.8c-0.7-1.2-1.8-2.9-3.4-5.1l-7.6-10.7h-6.6l14.3,20L609.3,608
		H615.9L615.9,608z"/>
</g>
</svg>
