<?xml version="1.0" encoding="utf-8"?>
<!-- Generator: Adobe Illustrator 25.0.1, SVG Export Plug-In . SVG Version: 6.00 Build 0)  -->
<svg version="1.1" id="Layer_1" xmlns="http://www.w3.org/2000/svg" xmlns:xlink="http://www.w3.org/1999/xlink" x="0px" y="0px"
	 viewBox="0 0 1024 1024" style="enable-background:new 0 0 1024 1024;" xml:space="preserve">
<style type="text/css">
	.st0{fill-rule:evenodd;clip-rule:evenodd;fill:#CCCCCC;stroke:#000000;stroke-miterlimit:10;}
	.st1{fill:none;stroke:#000000;stroke-linecap:round;stroke-linejoin:round;stroke-miterlimit:10;}
	.st2{fill-rule:evenodd;clip-rule:evenodd;fill:#FFFFFF;stroke:#000000;stroke-miterlimit:10;}
	.st3{stroke:#000000;stroke-miterlimit:10;}
</style>
<g id="Bold">
	<polyline class="st0" points="858.9,217.1 875.2,307.3 874.8,603.8 847.8,631 792.7,631 792.7,652.8 232.6,652.8 232.6,631 
		177.6,631 150.6,603.8 150.2,307.3 166.4,217.1 858.9,217.1 	"/>
	<path class="st1" d="M858.9,217.1l16.2,90.2l-0.4,296.5l-27,27.2h-55v21.8H232.6V631h-55l-27-27.2l-0.4-296.5l16.2-90.2
		L858.9,217.1L858.9,217.1z M232.6,631h560.1 M150.6,603.8h724.2 M350.7,603.8V307.3 M373.9,217.1l-23.2,90.2 M674.7,603.8V307.3
		 M651.5,217.1l23.2,90.2"/>
	<rect x="875" y="388.2" class="st0" width="25.9" height="74.9"/>
	<rect x="875" y="388.2" class="st1" width="25.9" height="74.9"/>
	<rect x="124.5" y="388.2" class="st0" width="25.9" height="74.9"/>
	<rect x="124.5" y="388.2" class="st1" width="25.9" height="74.9"/>
	<rect x="231.8" y="301.8" class="st2" width="571.4" height="130.7"/>
	<rect x="231.8" y="301.8" class="st1" width="571.4" height="130.7"/>
	<polyline class="st2" points="248.4,327.4 786.5,327.4 786.5,406.9 248.4,406.9 248.4,327.4 	"/>
	<path class="st3" d="M274.6,389.6l19.4-49.5h-6.7l-13.4,36c-1,2.7-1.9,5.4-2.7,8.1c-0.7-2.5-1.6-5.2-2.6-8.1l-12.9-36h-7.1
		l19.2,49.5H274.6L274.6,389.6z M317.7,389.6c3,0,5.6-0.3,8-0.8c2.3-0.6,4.3-1.4,5.9-2.5s3.1-2.6,4.5-4.5s2.5-4.3,3.4-7.2
		c0.9-2.9,1.3-6.2,1.3-10c0-4.4-0.6-8.3-1.9-11.8c-1.3-3.4-3.2-6.3-5.9-8.5c-2-1.7-4.4-2.9-7.3-3.5c-2-0.5-5-0.7-8.8-0.7h-17.1v49.5
		H317.7L317.7,389.6z M306.4,346h10.4c3.9,0,6.7,0.3,8.5,1c2.4,0.9,4.5,2.8,6.2,5.6c1.7,2.8,2.6,6.8,2.6,11.9c0,3.7-0.4,6.9-1.3,9.5
		s-2.1,4.7-3.6,6.3c-1.1,1.1-2.6,2-4.4,2.6c-1.9,0.6-4.4,0.9-7.7,0.9h-10.6V346H306.4z M350.6,377.9c1.9,3.9,4.7,7,8.3,9.2
		c3.7,2.3,7.8,3.4,12.5,3.4c4.3,0,8.3-1,12-3.1c3.7-2,6.6-5,8.6-9s3-8.5,3-13.5s-1-9.4-2.9-13.3s-4.7-7-8.4-9.1
		c-3.7-2.2-7.8-3.3-12.4-3.3c-7,0-12.7,2.3-17.1,7c-4.4,4.6-6.6,11.1-6.6,19.3C347.8,369.9,348.7,374,350.6,377.9L350.6,377.9z
		 M359.6,349.7c3.3-3.2,7.3-4.8,12-4.8c3.3,0,6.2,0.8,8.8,2.5c2.6,1.7,4.6,4,6,7s2,6.5,2,10.6c0,6.4-1.6,11.3-4.8,14.8
		c-3.2,3.5-7.2,5.2-12.2,5.2c-4.8,0-8.9-1.7-12.1-5.2c-3.2-3.4-4.8-8.1-4.8-14.1C354.6,358.2,356.2,352.8,359.6,349.7L359.6,349.7z
		 M424.3,389.6l5.4-15h20.7l5.8,15h7.5l-20.3-49.5h-7.1l-19,49.5H424.3L424.3,389.6z M437.1,354.8c1.1-3.1,2-6.3,2.7-9.5
		c0.8,2.7,1.9,6.1,3.5,10.3l5.2,13.7h-16.8L437.1,354.8L437.1,354.8z M478.8,384.4c-0.9,0-1.6-0.1-2.1-0.4s-0.8-0.7-1-1.2
		s-0.3-1.6-0.3-3.3v-21h6.1v-4.7h-6.1v-12.5l-6,3.6v8.9h-4.5v4.7h4.5v20.6c0,3.6,0.2,6,0.7,7.2c0.5,1.1,1.4,2.1,2.6,2.8
		c1.2,0.7,2.9,1,5.1,1c1.4,0,2.9-0.2,4.6-0.5l-0.9-5.4C480.3,384.3,479.5,384.4,478.8,384.4L478.8,384.4L478.8,384.4z M489.8,385.6
		c3.1,3.2,7.2,4.8,12.2,4.8c3.1,0,6-0.7,8.7-2.2c2.6-1.5,4.7-3.5,6-6.2c1.4-2.6,2.1-6.3,2.1-10.9c0-5.7-1.6-10.2-4.7-13.4
		c-3.1-3.2-7.2-4.8-12.1-4.8c-4.4,0-8.2,1.3-11.3,4c-3.7,3.2-5.5,8.1-5.5,14.8C485.1,377.7,486.7,382.4,489.8,385.6L489.8,385.6z
		 M494.4,361.4c2-2.3,4.5-3.4,7.6-3.4c3,0,5.5,1.1,7.5,3.4s3,5.6,3,10.1c0,4.7-1,8.2-3,10.5s-4.5,3.4-7.5,3.4s-5.6-1.1-7.6-3.4
		s-3-5.7-3-10.3C491.4,367.1,492.4,363.7,494.4,361.4L494.4,361.4z M531.9,389.6V371c0-3.3,0.3-5.8,1-7.5s1.7-3.1,3.2-4
		s3-1.4,4.7-1.4c2.3,0,3.9,0.7,4.9,2c1,1.4,1.5,3.4,1.5,6.1v23.3h6.1v-20.8c0-3.7,0.8-6.4,2.5-8.1s3.8-2.5,6.3-2.5
		c1.4,0,2.6,0.3,3.6,1s1.8,1.5,2.1,2.6c0.4,1.1,0.6,2.8,0.6,5.3v22.6h6V365c0-4.1-1-7.1-2.9-9.1s-4.6-3-8.2-3
		c-4.5,0-8.2,2.1-11.1,6.3c-0.7-2-1.9-3.5-3.6-4.6c-1.7-1.1-3.9-1.7-6.5-1.7c-2.4,0-4.5,0.5-6.4,1.6s-3.4,2.5-4.5,4.2v-5h-5.4v35.9
		L531.9,389.6L531.9,389.6z M589.6,347.1v-7h-6.1v7H589.6L589.6,347.1z M589.6,389.6v-35.9h-6.1v35.9H589.6L589.6,389.6z
		 M619.2,383.2c-1.6,1.5-3.6,2.2-6,2.2c-3,0-5.4-1.1-7.2-3.3c-1.8-2.2-2.8-5.7-2.8-10.5s1-8.2,2.9-10.4c1.9-2.2,4.4-3.3,7.5-3.3
		c2,0,3.8,0.6,5.2,1.8c1.4,1.2,2.4,3,3,5.4l5.9-0.9c-0.7-3.6-2.3-6.4-4.8-8.4s-5.7-3-9.6-3c-3.1,0-5.9,0.7-8.6,2.2
		c-2.6,1.5-4.6,3.6-5.9,6.5c-1.3,2.9-1.9,6.3-1.9,10.2c0,6,1.5,10.6,4.5,13.8c3,3.2,6.9,4.8,11.8,4.8c3.9,0,7.2-1.2,9.9-3.5
		s4.4-5.6,5-9.7l-6-0.8C621.8,379.5,620.8,381.8,619.2,383.2L619.2,383.2z M672,389.6c3.2,0,5.8-0.3,8-0.8c2.2-0.6,4-1.4,5.4-2.4
		c1.4-1.1,2.7-2.6,3.6-4.6c1-2,1.5-4.1,1.5-6.5c0-2.9-0.8-5.4-2.4-7.5c-1.6-2.1-3.9-3.6-6.9-4.5c2.3-1.1,4.1-2.7,5.2-4.5
		c1.1-1.9,1.7-3.9,1.7-6c0-2.3-0.6-4.5-1.9-6.5c-1.3-2.1-3.1-3.6-5.4-4.6c-2.3-1-5.3-1.5-9.1-1.5h-18.6v49.5H672V389.6z M659.7,346
		h9.9c3.6,0,6.1,0.2,7.5,0.7c1.5,0.5,2.6,1.3,3.4,2.6c0.8,1.2,1.2,2.7,1.2,4.3c0,1.7-0.4,3.2-1.3,4.3c-0.8,1.1-2.1,2-3.8,2.5
		c-1.3,0.4-3.3,0.6-6.2,0.6h-10.7L659.7,346L659.7,346z M659.7,366.8h11.4c3.2,0,5.6,0.3,7.2,0.8c1.7,0.6,3,1.5,3.9,2.9
		s1.4,3,1.4,4.8c0,1.6-0.3,3-1,4.2s-1.5,2.1-2.5,2.8c-1,0.6-2.3,1.1-3.8,1.4c-0.9,0.2-2.3,0.2-4.5,0.2h-12.3v-17.1H659.7z
		 M701.2,385.6c3.1,3.2,7.2,4.8,12.2,4.8c3.1,0,6-0.7,8.7-2.2c2.6-1.5,4.7-3.5,6-6.2c1.4-2.6,2.1-6.3,2.1-10.9
		c0-5.7-1.6-10.2-4.7-13.4c-3.1-3.2-7.2-4.8-12.1-4.8c-4.4,0-8.2,1.3-11.3,4c-3.7,3.2-5.5,8.1-5.5,14.8
		C696.5,377.7,698.1,382.4,701.2,385.6L701.2,385.6z M705.8,361.4c2-2.3,4.5-3.4,7.6-3.4c3,0,5.5,1.1,7.5,3.4s3,5.6,3,10.1
		c0,4.7-1,8.2-3,10.5s-4.5,3.4-7.5,3.4s-5.6-1.1-7.6-3.4s-3-5.7-3-10.3C702.8,367.1,703.8,363.7,705.8,361.4L705.8,361.4z
		 M743.2,389.6v-49.5h-6.1v49.5H743.2L743.2,389.6z M781.5,389.6v-49.5h-6v17.8c-1.1-1.5-2.4-2.7-4.1-3.6s-3.6-1.4-5.8-1.4
		c-3,0-5.6,0.8-8,2.3c-2.4,1.6-4.2,3.8-5.4,6.7c-1.2,2.9-1.8,6.2-1.8,9.7c0,3.7,0.7,6.9,2,9.7c1.3,2.8,3.2,5,5.6,6.6
		c2.4,1.6,5,2.4,7.9,2.4c4.4,0,7.8-1.8,10-5.3v4.5L781.5,389.6L781.5,389.6z M759.4,361.3c1.8-2.2,4.1-3.3,6.8-3.3
		c2.8,0,5.1,1.1,7,3.4s2.8,5.9,2.8,10.8c0,4.5-0.9,7.8-2.8,9.9c-1.9,2.2-4.1,3.3-6.8,3.3c-2.6,0-4.9-1.1-6.9-3.4
		c-1.9-2.3-2.9-5.7-2.9-10.3C756.7,367,757.6,363.5,759.4,361.3L759.4,361.3z"/>
	<path class="st1" d="M980.7,501v47.5 M933.4,501v47.5"/>
	<polyline class="st0" points="1018.9,456.3 1018.8,583.8 980.7,583.8 980.7,548.6 933.4,548.6 933.4,593.8 931,594.1 512,596.4 
		93,594.1 90.6,593.8 90.6,548.6 43.3,548.6 43.3,583.8 5.2,583.8 5.1,456.3 43.3,456.3 43.3,501 90.6,501 90.6,463.7 93,463.4 
		512,460.9 931,463.4 933.4,463.7 933.4,501 980.7,501 980.7,456.3 1018.9,456.3 	"/>
	<path class="st1" d="M1018.9,456.3v127.5h-38.1v-35.3h-47.3v45.3L931,594l-419,2.3L93,594l-2.5-0.2v-45.3H43.3v35.3H5.2V456.3h38.1
		V501h47.3v-37.3l2.5-0.3l419-2.6l419,2.6l2.5,0.3V501h47.3v-44.7H1018.9L1018.9,456.3z M43.3,501v47.5 M90.6,501v47.5 M980.7,501
		v47.5 M933.4,501v47.5"/>
</g>
</svg>
