<svg id="MAC_Allure" data-name="MAC Allure" xmlns="http://www.w3.org/2000/svg" viewBox="0 0 1024 1024"><defs><style>.cls-1{fill:#ccc;fill-rule:evenodd;}.cls-1,.cls-2,.cls-3,.cls-4{stroke:#000;stroke-width:2.83px;}.cls-1,.cls-3,.cls-4{stroke-miterlimit:10;}.cls-2{fill:none;stroke-linecap:round;stroke-linejoin:round;}.cls-3{fill:#fff;}</style></defs><g id="Wash_PC" data-name="Wash PC"><path class="cls-1" d="M512,310.28l334.87-.21,5.7-4.49h20.26a121.68,121.68,0,0,1,58.95,15.21q12.35,31.27,21.68,63.62T969,449.79q6.22,33,9.32,66.58t3,67.15q.09,33.62-3,67.15T969,717.23q-6.24,33-15.56,65.39t-21.68,63.63a122.67,122.67,0,0,1-28.51,11.33,121.05,121.05,0,0,1-30.44,3.86H852.57l-5.7-4.49L512,856.76,177.13,857l-5.7,4.49H151.18a121.05,121.05,0,0,1-30.45-3.86,123.14,123.14,0,0,1-28.51-11.33Q79.89,815,70.55,782.62T55,717.23q-6.26-33-9.33-66.56t-3-67.15q-.09-33.63,3-67.15T55,449.79q6.21-33,15.56-65.38t21.67-63.62a121.91,121.91,0,0,1,59-15.21h20.25l5.7,4.49,334.87.21M148.19,759.78l2.68-14q1.5-17.07,2.25-34.19t.75-34.26q0-17.11-.75-34.25t-2.25-34.18l-2.68-3.28V561.38l2.68-3.29q1.5-17.05,2.25-34.19t.75-34.25q0-17.13-.75-34.25t-2.25-34.19l-2.68-14-4-4.78-27-4.77-3.17-.55-3.16.64-3.16.64-2.7,1.74-2.71,1.76-1.87,2.62-1.88,2.61-.8,3.13q-5.91,21.09-10.25,42.58t-7.08,43.23q-2.73,21.74-3.86,43.63t-.64,43.8q-.49,21.88.64,43.79t3.86,43.63q2.74,21.75,7.08,43.23t10.25,42.58l.8,3.13,1.88,2.62,1.87,2.61,2.71,1.75,2.7,1.75,3.16.64,3.16.64,3.17-.56,27-4.77,4-4.78M875.82,605.66l-2.69,3.28q-1.49,17.07-2.25,34.18t-.74,34.25q0,17.14.74,34.26t2.25,34.19l2.69,14,4,4.78,27,4.77,3.17.56,3.16-.64,3.16-.64,2.7-1.75,2.72-1.75,1.88-2.61,1.87-2.62.79-3.13q5.91-21.09,10.25-42.58t7.08-43.23q2.75-21.74,3.87-43.63t.63-43.79q.5-21.91-.63-43.8t-3.87-43.63q-2.75-21.73-7.08-43.23t-10.25-42.58l-.79-3.13-1.87-2.61-1.88-2.62-2.72-1.76-2.7-1.74-3.16-.64-3.16-.64-3.17.55-27,4.77-4,4.78-2.69,14q-1.49,17.06-2.25,34.19t-.74,34.25q0,17.13.74,34.25t2.25,34.19l2.69,3.29v44.28"/><path class="cls-2" d="M512,310.28l334.87-.21,5.7-4.49h20.26a121.68,121.68,0,0,1,58.95,15.21q12.35,31.27,21.68,63.62T969,449.79q6.22,33,9.32,66.58t3,67.15q.09,33.62-3,67.15T969,717.23q-6.24,33-15.56,65.39t-21.68,63.63a122.67,122.67,0,0,1-28.51,11.33,121.05,121.05,0,0,1-30.44,3.86H852.57l-5.7-4.49L512,856.76,177.13,857l-5.7,4.49H151.18a121.05,121.05,0,0,1-30.45-3.86,123.14,123.14,0,0,1-28.51-11.33Q79.89,815,70.55,782.62T55,717.23q-6.26-33-9.33-66.56t-3-67.15q-.09-33.63,3-67.15T55,449.79q6.21-33,15.56-65.38t21.67-63.62a121.91,121.91,0,0,1,59-15.21h20.25l5.7,4.49,334.87.21M148.19,759.78l2.68-14q1.5-17.07,2.25-34.19t.75-34.26q0-17.11-.75-34.25t-2.25-34.18l-2.68-3.28V561.38l2.68-3.29q1.5-17.05,2.25-34.19t.75-34.25q0-17.13-.75-34.25t-2.25-34.19l-2.68-14-4-4.78-27-4.77-3.17-.55-3.16.64-3.16.64-2.7,1.74-2.71,1.76-1.87,2.62-1.88,2.61-.8,3.13q-5.91,21.09-10.25,42.58t-7.08,43.23q-2.73,21.74-3.86,43.63t-.64,43.8q-.49,21.88.64,43.79t3.86,43.63q2.74,21.75,7.08,43.23t10.25,42.58l.8,3.13,1.88,2.62,1.87,2.61,2.71,1.75,2.7,1.75,3.16.64,3.16.64,3.17-.56,27-4.77,4-4.78M875.82,605.66l-2.69,3.28q-1.49,17.07-2.25,34.18t-.74,34.25q0,17.14.74,34.26t2.25,34.19l2.69,14,4,4.78,27,4.77,3.17.56,3.16-.64,3.16-.64,2.7-1.75,2.72-1.75,1.88-2.61,1.87-2.62.79-3.13q5.91-21.09,10.25-42.58t7.08-43.23q2.75-21.74,3.87-43.63t.63-43.79q.5-21.91-.63-43.8t-3.87-43.63q-2.75-21.73-7.08-43.23t-10.25-42.58l-.79-3.13-1.87-2.61-1.88-2.62-2.72-1.76-2.7-1.74-3.16-.64-3.16-.64-3.17.55-27,4.77-4,4.78-2.69,14q-1.49,17.06-2.25,34.19t-.74,34.25q0,17.13.74,34.25t2.25,34.19l2.69,3.29v44.28"/><polyline class="cls-1" points="46.76 443.99 169.56 433.25 174.53 583.52 170.88 732.63 46.76 723.03"/><polyline class="cls-2" points="46.76 443.99 169.56 433.25 174.53 583.52 170.88 732.63 46.76 723.03"/><path class="cls-1" d="M34.23,451.77h0A20.89,20.89,0,0,1,36.78,449a20.67,20.67,0,0,1,3-2.26,22.16,22.16,0,0,1,3.37-1.7A21.08,21.08,0,0,1,46.76,444a50.81,50.81,0,0,1,18.3,11.43,51.29,51.29,0,0,1,6.9,8.37,50.29,50.29,0,0,1,4.94,9.66q3.45,13.5,6.15,27.16t4.61,27.47q1.92,13.8,3,27.69t1.5,27.81c-.26,9.29-.76,18.56-1.55,27.81s-1.8,18.49-3.09,27.69-2.85,18.35-4.66,27.46S79,684.69,76.71,693.7A50.56,50.56,0,0,1,56.3,718.39a49.71,49.71,0,0,1-9.78,4.7A19.45,19.45,0,0,1,42.91,722a21.66,21.66,0,0,1-3.37-1.69,21.2,21.2,0,0,1-3-2.27A20.84,20.84,0,0,1,34,715.3L12.4,583.52,34.23,451.77"/><path class="cls-2" d="M34.23,451.77h0A20.89,20.89,0,0,1,36.78,449a20.67,20.67,0,0,1,3-2.26,22.16,22.16,0,0,1,3.37-1.7A21.08,21.08,0,0,1,46.76,444a50.81,50.81,0,0,1,18.3,11.43,51.29,51.29,0,0,1,6.9,8.37,50.29,50.29,0,0,1,4.94,9.66q3.45,13.5,6.15,27.16t4.61,27.47q1.92,13.8,3,27.69t1.5,27.81c-.26,9.29-.76,18.56-1.55,27.81s-1.8,18.49-3.09,27.69-2.85,18.35-4.66,27.46S79,684.69,76.71,693.7A50.56,50.56,0,0,1,56.3,718.39a49.71,49.71,0,0,1-9.78,4.7A19.45,19.45,0,0,1,42.91,722a21.66,21.66,0,0,1-3.37-1.69,21.2,21.2,0,0,1-3-2.27A20.84,20.84,0,0,1,34,715.3L12.4,583.52,34.23,451.77"/><polyline class="cls-1" points="977.24 443.99 854.44 433.25 849.46 583.52 853.12 732.63 977.24 723.03"/><polyline class="cls-2" points="977.24 443.99 854.44 433.25 849.46 583.52 853.12 732.63 977.24 723.03"/><path class="cls-1" d="M989.77,451.77h0a20.79,20.79,0,0,0-5.55-5,20.49,20.49,0,0,0-7-2.75A50.65,50.65,0,0,0,959,455.42a50,50,0,0,0-11.85,18Q943.65,487,941,500.61t-4.62,27.47q-1.92,13.8-3.05,27.69t-1.5,27.81q.39,13.93,1.55,27.81t3.1,27.69q1.93,13.77,4.66,27.46t6.18,27.16a52.33,52.33,0,0,0,5,9.64,50.6,50.6,0,0,0,15.46,15,49.44,49.44,0,0,0,9.78,4.7,19.57,19.57,0,0,0,3.6-1.06,20.81,20.81,0,0,0,3.37-1.69,20.81,20.81,0,0,0,5.54-5l21.6-131.78L989.77,451.77"/><path class="cls-2" d="M989.77,451.77h0a20.79,20.79,0,0,0-5.55-5,20.49,20.49,0,0,0-7-2.75A50.65,50.65,0,0,0,959,455.42a50,50,0,0,0-11.85,18Q943.65,487,941,500.61t-4.62,27.47q-1.92,13.8-3.05,27.69t-1.5,27.81q.39,13.93,1.55,27.81t3.1,27.69q1.93,13.77,4.66,27.46t6.18,27.16a52.33,52.33,0,0,0,5,9.64,50.6,50.6,0,0,0,15.46,15,49.44,49.44,0,0,0,9.78,4.7,19.57,19.57,0,0,0,3.6-1.06,20.81,20.81,0,0,0,3.37-1.69,20.81,20.81,0,0,0,5.54-5l21.6-131.78L989.77,451.77"/><path class="cls-1" d="M510.25,1016.71h-.55q-32.15,0-64.22-2.55t-63.83-7.48q-31.77-5-63.08-12.37t-61.94-17.18L201,946.7l-2.51-3.87-2.14-30.35-5.75-6.74q-1.23-20.85-1.74-41.72t-.35-41.75q.18-20.88,1-41.74T192,738.85L180,734.66V432.37l55.69-13.06,5.63-113.89c.27-5.82.71-11.62,1.27-17.41l11.29-116L327.77,44.6l33.38-3L363.3,39h10.42l2.82-31.69H644L646.79,39H657.2l2.15,2.6,33.38,3,73.85,127.45,11.29,116q.86,8.69,1.28,17.41l5.63,113.89,55.68,13.06V734.66l-11.92,4.19q1.56,20.8,2.42,41.68t1,41.74q.16,20.87-.35,41.75t-1.74,41.72l-5.76,6.74L822,942.83l-2.52,3.87-55.64,30.43q-30.61,9.79-61.93,17.18t-63.07,12.37q-31.77,5-63.83,7.48t-64.22,2.55h-.56"/><path class="cls-2" d="M510.25,1016.71h-.55q-32.15,0-64.22-2.55t-63.83-7.48q-31.77-5-63.08-12.37t-61.94-17.18L201,946.7l-2.51-3.87-2.14-30.35-5.75-6.74q-1.23-20.85-1.74-41.72t-.35-41.75q.18-20.88,1-41.74T192,738.85L180,734.66V432.37l55.69-13.06,5.63-113.89c.27-5.82.71-11.62,1.27-17.41l11.29-116L327.77,44.6l33.38-3L363.3,39h10.42l2.82-31.69H644L646.79,39H657.2l2.15,2.6,33.38,3,73.85,127.45,11.29,116q.86,8.69,1.28,17.41l5.63,113.89,55.68,13.06V734.66l-11.92,4.19q1.56,20.8,2.42,41.68t1,41.74q.16,20.87-.35,41.75t-1.74,41.72l-5.76,6.74L822,942.83l-2.52,3.87-55.64,30.43q-30.61,9.79-61.93,17.18t-63.07,12.37q-31.77,5-63.83,7.48t-64.22,2.55h-.56"/><path class="cls-1" d="M512.41,725.18l86.29-580.5a586.75,586.75,0,0,0-176.11.52l89.82,580"/><path class="cls-2" d="M598.7,144.68h0a586.75,586.75,0,0,0-176.11.52"/><path class="cls-1" d="M512.41,701.28,598.7,120.77a586.42,586.42,0,0,0-176.11.54l89.82,580"/><path class="cls-2" d="M598.7,120.77h0a586.42,586.42,0,0,0-176.11.54"/><path class="cls-1" d="M512.41,749.56l86.29-580.5a586.42,586.42,0,0,0-176.11.54l89.82,580"/><path class="cls-2" d="M598.7,169.06h0a586.42,586.42,0,0,0-176.11.54m-94.82-125H693.83"/><polyline class="cls-1" points="180.19 734.23 191.9 739.6 212.84 694.92 250.88 535.92 315.5 504.29 315.86 497.46 268.3 472.51 236.42 419.63"/><polyline class="cls-2" points="180.19 734.23 191.9 739.6 212.84 694.92 250.88 535.92 315.5 504.29 315.86 497.46 268.3 472.51 236.42 419.63"/><path class="cls-1" d="M707,498.72h0a150.39,150.39,0,0,1-37.6,77.84L511.85,577.7l-157.6-.25a151.16,151.16,0,0,1-13.68-17.12,151.41,151.41,0,0,1-19.22-39.22,151.06,151.06,0,0,1-5.14-21.29L335,260.05A33.51,33.51,0,0,1,363.39,226q18.19-3.47,36.57-6t36.82-4.23q18.47-1.67,37-2.43t37.06-.59q18.54-.25,37.06.39t37,2.21q18.48,1.56,36.85,4t36.6,5.83a33.53,33.53,0,0,1,28.58,33.91L707,498.72"/><path class="cls-2" d="M707,498.72h0a150.39,150.39,0,0,1-37.6,77.84L511.85,577.7l-157.6-.25a151.16,151.16,0,0,1-13.68-17.12,151.41,151.41,0,0,1-19.22-39.22,151.06,151.06,0,0,1-5.14-21.29L335,260.05A33.51,33.51,0,0,1,363.39,226q18.19-3.47,36.57-6t36.82-4.23q18.47-1.67,37-2.43t37.06-.59q18.54-.25,37.06.39t37,2.21q18.48,1.56,36.85,4t36.6,5.83a33.53,33.53,0,0,1,28.58,33.91L707,498.72"/><path class="cls-1" d="M268.3,472.51h0q-.39-37.69.81-75.39t4-75.3q2.79-37.6,7.16-75.07t10.34-74.7q11.24-13.91,23.23-27.19T338.57,119q12.71-12.59,26.12-24.44t27.43-23l118.69-.51"/><path class="cls-2" d="M268.3,472.51h0q-.39-37.69.81-75.39t4-75.3q2.79-37.6,7.16-75.07t10.34-74.7q11.24-13.91,23.23-27.19T338.57,119q12.71-12.59,26.12-24.44t27.43-23l118.69-.51"/><path class="cls-1" d="M753.31,472.51h0q.39-37.69-.81-75.39t-4-75.3q-2.81-37.6-7.18-75.07T731,172.05q-11.25-13.91-23.25-27.19T683.05,119q-12.72-12.59-26.12-24.44t-27.45-23L510.81,71.1"/><path class="cls-2" d="M753.31,472.51h0q.39-37.69-.81-75.39t-4-75.3q-2.81-37.6-7.18-75.07T731,172.05q-11.25-13.91-23.25-27.19T683.05,119q-12.72-12.59-26.12-24.44t-27.45-23L510.81,71.1"/><polyline class="cls-1" points="840.32 734.23 828.61 739.6 807.67 694.92 769.63 535.92 705 504.29 704.64 497.46 752.21 472.51 784.09 419.63"/><polyline class="cls-2" points="840.32 734.23 828.61 739.6 807.67 694.92 769.63 535.92 705 504.29 704.64 497.46 752.21 472.51 784.09 419.63"/><rect class="cls-3" x="292.38" y="527.56" width="438.93" height="321.86"/><rect class="cls-2" x="292.38" y="527.56" width="438.93" height="321.86"/><path class="cls-4" d="M430.29,621.59V562.34h11.86l14.16,41.92q2,5.85,2.86,8.76,1-3.22,3.2-9.49l14.4-41.19h10.57v59.25h-7.62V572L462.3,621.59h-7.12l-17.27-50.46v50.46Zm63.37,0,22.81-59.25h8.65l24.35,59.25h-9l-6.94-18h-25l-6.5,18Zm17.14-24.36h20.28l-6.21-16.36q-2.86-7.47-4.29-12.39a82.43,82.43,0,0,1-3.24,11.43l-6.54,17.32Zm87.63,3.55,7.87,2q-2.47,9.65-8.92,14.73a24.66,24.66,0,0,1-15.75,5.07q-9.63,0-15.67-3.9a24.4,24.4,0,0,1-9.19-11.29,40.08,40.08,0,0,1-3.15-15.88,34.73,34.73,0,0,1,3.56-16.14,24.24,24.24,0,0,1,10.12-10.46,29.58,29.58,0,0,1,14.44-3.58q8.94,0,15,4.53a23.48,23.48,0,0,1,8.49,12.73l-7.75,1.82q-2.07-6.46-6-9.41a16.12,16.12,0,0,0-9.91-3,19.36,19.36,0,0,0-11.48,3.27,17.32,17.32,0,0,0-6.48,8.79,35.28,35.28,0,0,0-1.87,11.36A35.87,35.87,0,0,0,564,604.64a16.45,16.45,0,0,0,6.89,8.42A19.49,19.49,0,0,0,581,615.84a17,17,0,0,0,11.22-3.79q4.59-3.81,6.21-11.27Z"/><path class="cls-4" d="M408.55,715.73l22.64-59.24h8.58l24.16,59.24H455l-6.89-18H423.27l-6.44,18Zm17-24.35h20.12L439.53,675q-2.85-7.47-4.26-12.38a83.58,83.58,0,0,1-3.21,11.42l-6.5,17.33ZM469,715.73V656.49h7.3v59.24Zm18.29,0V656.49h7.3v59.24Zm46.52,0v-6.31a15.64,15.64,0,0,1-13.59,7.28,17.31,17.31,0,0,1-7.08-1.45,11.71,11.71,0,0,1-4.88-3.66,13.77,13.77,0,0,1-2.24-5.4,37.76,37.76,0,0,1-.44-6.8V672.77h7.3V696.6a43.4,43.4,0,0,0,.44,7.69,7.65,7.65,0,0,0,2.9,4.51,9,9,0,0,0,5.47,1.64,11.9,11.9,0,0,0,6.12-1.68,9.36,9.36,0,0,0,4-4.57,23.1,23.1,0,0,0,1.19-8.4v-23h7.3v43Zm17.71,0v-43h6.59v6.49q2.5-4.56,4.62-6a8.1,8.1,0,0,1,4.65-1.45,14.12,14.12,0,0,1,7.46,2.34l-2.52,6.75A10.32,10.32,0,0,0,567,679.3a6.91,6.91,0,0,0-4.27,1.43,7.83,7.83,0,0,0-2.7,4,28.41,28.41,0,0,0-1.21,8.51v22.51h-7.3Zm56.9-13.82,7.53,1a18.34,18.34,0,0,1-6.58,10.2q-4.82,3.61-12.28,3.62-9.42,0-14.92-5.8t-5.52-16.28q0-10.85,5.58-16.83a18.84,18.84,0,0,1,14.46-6,18.32,18.32,0,0,1,14.05,5.86q5.44,5.87,5.45,16.49c0,.43,0,1.08,0,1.94h-32q.4,7.08,4,10.84a11.86,11.86,0,0,0,9,3.76,11.2,11.2,0,0,0,6.83-2.09,13.94,13.94,0,0,0,4.48-6.69Zm-23.89-11.83h24q-.48-5.39-2.75-8.09a11.15,11.15,0,0,0-9-4.18,11.58,11.58,0,0,0-8.43,3.34,13.16,13.16,0,0,0-3.78,8.93Z"/><path class="cls-4" d="M358.19,809.88l-15.64-59.24h8.09l8.93,38.85q1.44,6.1,2.53,12.11,2.25-9.48,2.66-10.94l11.3-40h9.44l8.45,30a163.06,163.06,0,0,1,4.65,21q1.14-5.6,3-12.86l9.29-38.1h7.87l-16.23,59.24H394.9l-12.41-45.13q-1.62-5.64-1.91-7-.94,4.14-1.78,7l-12.49,45.1ZM453,804.52a27.49,27.49,0,0,1-7.83,4.9,22.52,22.52,0,0,1-8.06,1.43q-7.09,0-10.92-3.46a11.39,11.39,0,0,1-3.81-8.84,11.72,11.72,0,0,1,1.44-5.76,12,12,0,0,1,3.78-4.19,17.82,17.82,0,0,1,5.25-2.38,53.6,53.6,0,0,1,6.5-1.1,67.12,67.12,0,0,0,13-2.5c0-1,0-1.64,0-1.91,0-3-.69-5.07-2.08-6.28Q447.57,772,442,772c-3.45,0-6,.59-7.64,1.79s-2.86,3.31-3.64,6.35l-7.11-1a17.64,17.64,0,0,1,3.2-7.36,14.05,14.05,0,0,1,6.46-4.31,28.87,28.87,0,0,1,9.78-1.51,26.05,26.05,0,0,1,9,1.29,11.89,11.89,0,0,1,5.07,3.24,11.4,11.4,0,0,1,2.27,4.94,41.15,41.15,0,0,1,.37,6.72v9.73a107.55,107.55,0,0,0,.44,12.86,16.62,16.62,0,0,0,1.75,5.15h-7.62a17.35,17.35,0,0,1-1.29-5.36Zm-.57-16.22a54.43,54.43,0,0,1-12,2.76,27.69,27.69,0,0,0-6.4,1.46,6.39,6.39,0,0,0-2.9,2.37,6.46,6.46,0,0,0,1.2,8.33q2.22,1.93,6.49,1.94a15.1,15.1,0,0,0,7.52-1.84,11.39,11.39,0,0,0,4.84-5.05,17.52,17.52,0,0,0,1.18-7.3l0-2.67Zm15.37,8.79,7.17-1.16a10,10,0,0,0,3.38,6.61c1.85,1.54,4.43,2.3,7.75,2.3s5.82-.68,7.44-2A6.07,6.07,0,0,0,496,798a4.41,4.41,0,0,0-2.13-3.87q-1.49-1-7.42-2.46a68.3,68.3,0,0,1-11.1-3.5,10.62,10.62,0,0,1-6.29-9.86,11.15,11.15,0,0,1,1.31-5.32,11.87,11.87,0,0,1,3.58-4.07,15.17,15.17,0,0,1,4.63-2.12,22,22,0,0,1,6.28-.87,24.81,24.81,0,0,1,8.87,1.45,12.08,12.08,0,0,1,5.64,3.93,15.46,15.46,0,0,1,2.51,6.64l-7.11,1A7.69,7.69,0,0,0,492,773.8,10.33,10.33,0,0,0,485.4,772c-3.35,0-5.73.55-7.16,1.65a4.8,4.8,0,0,0-2.14,3.87A4,4,0,0,0,477,780a6.37,6.37,0,0,0,2.79,1.93q1.1.4,6.42,1.86A87.18,87.18,0,0,1,497,787.2a10.93,10.93,0,0,1,4.79,3.82,10.74,10.74,0,0,1,1.73,6.23,12.18,12.18,0,0,1-2.12,6.86,13.67,13.67,0,0,1-6.12,5,22.36,22.36,0,0,1-9.06,1.76q-8.37,0-12.76-3.47t-5.6-10.29ZM512,809.88V750.64h7.3v21.21A16.18,16.18,0,0,1,532.1,766a17.12,17.12,0,0,1,8.25,1.88,11,11,0,0,1,5,5.2c1,2.21,1.51,5.42,1.51,9.62v27.23h-7.3V782.65c0-3.64-.79-6.29-2.35-7.95a8.72,8.72,0,0,0-6.65-2.49,11.68,11.68,0,0,0-6.05,1.68,9.51,9.51,0,0,0-4,4.55,21.15,21.15,0,0,0-1.2,7.93v23.51Z"/><path class="cls-4" d="M578.86,809.88V750.64h22.32a54.7,54.7,0,0,1,9,.56,17.88,17.88,0,0,1,7.3,2.77,14.42,14.42,0,0,1,4.74,5.72,19.27,19.27,0,0,1-3,20.86q-4.82,5.24-17.36,5.24H586.68v24.09Zm7.82-31.07H602q7.59,0,10.78-2.83a10.13,10.13,0,0,0,3.18-8,10.75,10.75,0,0,0-1.87-6.37,8.85,8.85,0,0,0-5-3.5,33.49,33.49,0,0,0-7.3-.52H586.68v21.19Zm89.41,10.26,7.82,2q-2.46,9.66-8.85,14.73a24.38,24.38,0,0,1-15.63,5.07q-9.55,0-15.55-3.9a24.31,24.31,0,0,1-9.11-11.29,40.25,40.25,0,0,1-3.13-15.88,35,35,0,0,1,3.53-16.14,24.12,24.12,0,0,1,10-10.46,29.26,29.26,0,0,1,14.32-3.58q8.88,0,14.92,4.53a23.48,23.48,0,0,1,8.42,12.73l-7.68,1.82q-2.06-6.46-6-9.41a15.9,15.9,0,0,0-9.83-2.94A19.07,19.07,0,0,0,648,759.6a17.26,17.26,0,0,0-6.43,8.78,35.27,35.27,0,0,0-1.85,11.37,36.29,36.29,0,0,0,2.19,13.18,16.46,16.46,0,0,0,6.84,8.42,19.12,19.12,0,0,0,10,2.78,16.82,16.82,0,0,0,11.13-3.79q4.56-3.8,6.17-11.27Z"/></g></svg>