<?xml version="1.0" encoding="UTF-8"?>
<svg id="VDO_Sceptron_XB_320mm_No_Diffuser" xmlns="http://www.w3.org/2000/svg" version="1.1" viewBox="0 0 1024 1024">
  <!-- Generator: Adobe Illustrator 29.1.0, SVG Export Plug-In . SVG Version: 2.1.0 Build 142)  -->
  <defs>
    <style>
      .st0 {
        fill: #39ff46;
      }

      .st1 {
        fill: #fff;
      }

      .st2 {
        fill: #bbb;
      }

      .st3 {
        fill: none;
        stroke: #000;
        stroke-linecap: round;
        stroke-linejoin: round;
      }
    </style>
  </defs>
  <rect class="st2" x="10.6" y="469.7" width="1002.8" height="84.6"/>
  <rect class="st3" x="10.6" y="469.7" width="1002.8" height="84.6"/>
  <polyline class="st1" points="923.9 481.5 923.9 542.5 100.1 542.5 100.1 481.5 923.9 481.5"/>
  <path d="M120.9,529.2l14.9-38h-5.2l-10.3,27.6c-.8,2.1-1.4,4.1-2,6.2-.6-1.9-1.2-4-2-6.2l-9.9-27.6h-5.5l14.7,38h5.2ZM154,529.2c2.3,0,4.4-.2,6.1-.6,1.8-.4,3.3-1.1,4.6-1.9s2.4-2,3.5-3.5c1.1-1.5,1.9-3.3,2.6-5.5s1-4.8,1-7.7-.5-6.4-1.5-9-2.5-4.8-4.5-6.5c-1.5-1.3-3.4-2.2-5.6-2.8-1.5-.4-3.8-.5-6.7-.5h-13.1v38h13.7ZM145.3,495.7h8c3,0,5.2.3,6.5.8,1.9.7,3.5,2.1,4.7,4.3,1.3,2.1,2,5.2,2,9.2s-.3,5.3-1,7.3c-.6,2-1.6,3.6-2.8,4.8-.9.9-2,1.5-3.4,2-1.4.5-3.4.7-5.9.7h-8.1v-29.1ZM179.2,520.2c1.4,3,3.6,5.4,6.4,7.1,2.8,1.8,6,2.6,9.6,2.6s6.4-.8,9.2-2.3c2.9-1.6,5.1-3.9,6.6-6.9s2.3-6.5,2.3-10.4-.7-7.2-2.2-10.2c-1.5-3-3.6-5.3-6.4-7-2.8-1.6-6-2.5-9.5-2.5-5.4,0-9.7,1.8-13.1,5.4-3.4,3.6-5.1,8.5-5.1,14.8s.7,6.5,2.2,9.5h0ZM186,498.6c2.6-2.4,5.6-3.7,9.2-3.7s4.8.6,6.8,1.9c2,1.3,3.6,3,4.6,5.4,1.1,2.3,1.6,5,1.6,8.1,0,4.9-1.2,8.7-3.7,11.3s-5.6,4-9.4,4-6.8-1.3-9.2-3.9c-2.5-2.7-3.7-6.3-3.7-10.8s1.3-9.8,3.8-12.2h0ZM235,523.9c1.3,2,3.1,3.5,5.5,4.5s5.2,1.5,8.7,1.5,5.2-.5,7.3-1.5c2.2-1,3.9-2.4,5-4.1,1.2-1.8,1.8-3.7,1.8-5.7s-.5-3.8-1.6-5.4c-1.1-1.5-2.7-2.8-4.9-3.8-1.5-.7-4.3-1.5-8.4-2.4s-6.6-1.8-7.6-2.7c-1-.9-1.5-2-1.5-3.4s.7-2.9,2.1-4c1.4-1.1,3.6-1.7,6.7-1.7s5.1.6,6.6,1.9c1.5,1.2,2.4,3,2.7,5.4l4.8-.4c-.1-2.2-.7-4.3-1.9-6-1.2-1.8-2.8-3.1-5-4-2.1-.9-4.6-1.4-7.4-1.4s-4.9.4-7,1.3c-2.1.9-3.7,2.2-4.8,3.8-1.1,1.7-1.6,3.5-1.6,5.4s.4,3.3,1.3,4.7c.9,1.4,2.2,2.6,4,3.6,1.4.7,3.9,1.5,7.4,2.3,3.5.9,5.7,1.5,6.7,1.9,1.6.6,2.7,1.4,3.4,2.2.7.9,1.1,2,1.1,3.1s-.4,2.3-1.1,3.2c-.7,1-1.8,1.8-3.3,2.4s-3.2.9-5.1.9-4.1-.4-5.8-1.1c-1.8-.8-3-1.8-3.8-3-.9-1.2-1.4-2.8-1.6-4.7l-4.7.4c0,2.6.7,4.8,2.1,6.9h0ZM293.2,523.1c-2,1.6-4.4,2.4-7.2,2.4s-4.5-.6-6.4-1.8c-2-1.2-3.5-3-4.4-5.4-1-2.4-1.4-5.3-1.4-8.5s.4-4.9,1.2-7.3c.8-2.4,2.2-4.3,4.1-5.6,2-1.4,4.4-2.1,7.3-2.1s4.6.6,6.3,1.9c1.6,1.2,2.9,3.2,3.8,6l4.9-1.2c-1-3.5-2.8-6.2-5.4-8.1-2.6-2-5.8-2.9-9.6-2.9s-6.4.7-9.2,2.3c-2.8,1.5-4.9,3.8-6.4,6.7-1.5,2.9-2.3,6.4-2.3,10.4s.7,7,2,10.1c1.3,3.2,3.3,5.6,5.8,7.3,2.6,1.6,5.9,2.5,10,2.5s7.3-1.1,10-3.2c2.7-2.2,4.6-5.3,5.7-9.5l-5-1.3c-.7,3.2-2,5.6-3.9,7.2h0ZM336.8,529.2v-4.5h-23.3v-13h21v-4.5h-21v-11.7h22.4v-4.5h-27.5v38h28.4ZM348.7,529.2v-15.5h9.8c5.4,0,9.1-1.1,11.2-3.3s3.1-5,3.1-8.2-.4-3.6-1.2-5.2c-.7-1.5-1.8-2.8-3-3.7-1.3-.9-2.8-1.4-4.7-1.8-1.3-.3-3.2-.4-5.8-.4h-14.3v38h5ZM348.7,495.7h9.7c2.3,0,3.9.1,4.7.3,1.3.4,2.4,1.1,3.2,2.3.8,1.1,1.2,2.5,1.2,4.1s-.7,3.9-2.1,5.1c-1.3,1.2-3.7,1.8-6.9,1.8h-9.8v-13.6ZM393.8,529.2v-33.6h12.5v-4.5h-30.1v4.5h12.5v33.6h5ZM416.7,529.2v-16.9h5.8c1.3,0,2.2,0,2.8.2.8.2,1.5.5,2.3,1,.7.5,1.6,1.3,2.6,2.6.9,1.2,2.1,3,3.6,5.3l5,7.9h6.3l-6.6-10.4c-1.3-2-2.7-3.7-4.1-5-.7-.6-1.7-1.3-3-1.9,3.6-.5,6.3-1.7,8.1-3.5,1.8-1.9,2.6-4.1,2.6-6.9s-.5-4-1.6-5.7c-1.1-1.7-2.4-2.9-4.2-3.6s-4.4-1-7.8-1h-16.8v38h5ZM416.7,495.4h12c2.8,0,4.9.6,6.2,1.8,1.3,1.2,2,2.6,2,4.4s-.3,2.4-1,3.5c-.7,1-1.6,1.8-2.9,2.3-1.3.5-3.1.7-5.4.7h-10.8v-12.6ZM450.5,520.2c1.4,3,3.6,5.4,6.4,7.1,2.8,1.8,6,2.6,9.6,2.6s6.4-.8,9.2-2.3c2.9-1.6,5.1-3.9,6.6-6.9s2.3-6.5,2.3-10.4-.7-7.2-2.2-10.2c-1.5-3-3.6-5.3-6.4-7-2.8-1.6-6-2.5-9.5-2.5-5.4,0-9.7,1.8-13.1,5.4-3.4,3.6-5.1,8.5-5.1,14.8s.7,6.5,2.2,9.5h0ZM457.3,498.6c2.6-2.4,5.6-3.7,9.2-3.7s4.8.6,6.8,1.9c2,1.3,3.6,3,4.6,5.4,1.1,2.3,1.6,5,1.6,8.1,0,4.9-1.2,8.7-3.7,11.3s-5.6,4-9.4,4-6.8-1.3-9.2-3.9c-2.5-2.7-3.7-6.3-3.7-10.8s1.3-9.8,3.8-12.2h0ZM495.9,529.2v-29.9l20,29.9h5.2v-38h-4.8v29.9l-20-29.9h-5.2v38h4.8ZM546.4,529.2l9.7-13.2c.4-.5,1-1.4,1.8-2.7.5.8,1,1.5,1.5,2.3l9.6,13.5h6.2l-14.2-20,13.2-18.1h-5.5l-7.7,10.1c-1.1,1.5-2.1,2.9-3,4.3-.6-1.1-1.6-2.6-3-4.6l-7-9.7h-6l13,18.3-14.7,19.8h6.1ZM593.9,529.2c2.4,0,4.5-.2,6.2-.6,1.6-.4,3-1.1,4.1-1.9,1.1-.9,2.1-2,2.8-3.6s1.1-3.2,1.1-5-.6-4.1-1.9-5.7-3-2.8-5.3-3.5c1.8-.9,3.1-2,4-3.5.9-1.4,1.3-3,1.3-4.6s-.5-3.4-1.5-5-2.4-2.8-4.1-3.6c-1.8-.8-4.1-1.2-7-1.2h-14.3v38h14.5ZM584.4,495.7h7.6c2.8,0,4.7.2,5.8.5s2,1,2.6,2,.9,2.1.9,3.3-.3,2.4-1,3.3c-.7.9-1.6,1.5-2.9,1.9-1,.3-2.6.4-4.8.4h-8.2v-11.5ZM584.4,511.7h8.8c2.4,0,4.3.2,5.5.6,1.3.4,2.3,1.2,3,2.2.7,1,1.1,2.3,1.1,3.7s-.3,2.3-.7,3.2c-.5,1-1.2,1.6-1.9,2.1-.8.5-1.8.9-2.9,1.1-.6.1-1.8.2-3.5.2h-9.5v-13.1ZM641.7,517.8v-4.7h-14.5v4.7h14.5ZM666.9,529.2v-29.9l20,29.9h5.2v-38h-4.8v29.9l-20-29.9h-5.2v38h4.8ZM701.7,526.1c2.4,2.5,5.5,3.7,9.4,3.7s4.6-.6,6.7-1.7c2-1.1,3.6-2.7,4.6-4.7,1.1-2,1.6-4.8,1.6-8.3s-1.2-7.8-3.6-10.3-5.5-3.7-9.3-3.7-6.3,1-8.7,3.1c-2.8,2.4-4.3,6.2-4.3,11.3s1.2,8.2,3.6,10.7h0ZM705.2,507.6c1.5-1.8,3.5-2.6,5.8-2.6s4.3.9,5.8,2.6,2.3,4.4,2.3,7.8-.8,6.3-2.3,8-3.5,2.7-5.8,2.7-4.3-.9-5.8-2.6-2.3-4.4-2.3-7.9.8-6.2,2.3-7.9h0ZM758.4,529.2c2.3,0,4.4-.2,6.1-.6,1.8-.4,3.3-1.1,4.6-1.9s2.4-2,3.5-3.5c1.1-1.5,1.9-3.3,2.6-5.5s1-4.8,1-7.7-.5-6.4-1.5-9-2.5-4.8-4.5-6.5c-1.5-1.3-3.4-2.2-5.6-2.8-1.5-.4-3.8-.5-6.7-.5h-13.1v38h13.7ZM749.7,495.7h8c3,0,5.2.3,6.5.8,1.9.7,3.5,2.1,4.7,4.3,1.3,2.1,2,5.2,2,9.2s-.3,5.3-1,7.3c-.6,2-1.6,3.6-2.8,4.8-.9.9-2,1.5-3.4,2-1.4.5-3.4.7-5.9.7h-8.1v-29.1ZM787.1,496.5v-5.3h-4.7v5.3h4.7ZM787.1,529.2v-27.6h-4.7v27.6h4.7ZM800,529.2v-24h5.3v-3.6h-5.4v-2.6c0-1.6.3-2.8.9-3.3.6-.6,1.5-.9,3-.9s1.8.1,2.8.3l.7-4.1c-1.6-.3-3-.5-4.4-.5-2,0-3.6.4-4.7,1.1-1.2.7-1.9,1.8-2.4,2.9-.3.9-.5,2.3-.5,4.1v2.9h-4.1v3.6h4.1v24h4.7ZM814.8,529.2v-24h5.3v-3.6h-5.4v-2.6c0-1.6.3-2.8.9-3.3.6-.6,1.5-.9,3-.9s1.8.1,2.8.3l.7-4.1c-1.6-.3-3-.5-4.4-.5-2,0-3.6.4-4.7,1.1-1.2.7-1.9,1.8-2.4,2.9-.3.9-.5,2.3-.5,4.1v2.9h-4.1v3.6h4.1v24h4.7ZM845.9,529.2v-27.6h-4.7v14.7c0,2.4-.3,4.1-.7,5.4-.5,1.2-1.4,2.2-2.6,2.9-1.2.7-2.6,1.1-3.9,1.1s-2.6-.4-3.6-1.1c-.9-.7-1.5-1.6-1.9-2.9-.2-.9-.3-2.5-.3-4.9v-15.2h-4.7v17.1c0,2,.1,3.5.3,4.4.3,1.4.8,2.6,1.4,3.5.7,1,1.8,1.8,3.1,2.3,1.4.6,2.9,1,4.6,1,3.7,0,6.6-1.5,8.7-4.7v4.1h4.2ZM855,527.6c1.9,1.5,4.6,2.2,8.2,2.2s4.1-.4,5.8-1.1c1.8-.7,3-1.8,3.9-3.2s1.4-2.8,1.4-4.4-.4-2.9-1.1-4-1.8-1.9-3.1-2.4c-1.3-.5-3.6-1.3-6.9-2.2-2.3-.6-3.7-1-4.1-1.2-.8-.3-1.4-.7-1.8-1.2-.4-.5-.6-1.1-.6-1.6,0-1,.5-1.8,1.4-2.5s2.4-1.1,4.6-1.1,3.2.4,4.2,1.2,1.6,1.9,1.8,3.3l4.6-.6c-.3-1.8-.9-3.2-1.6-4.3-.8-1.1-2-1.9-3.6-2.5-1.6-.6-3.6-1-5.7-1s-2.8.2-4,.5c-1.3.4-2.2.9-3,1.4-1,.7-1.8,1.5-2.3,2.6-.6,1.1-.9,2.2-.9,3.4s.3,2.6,1,3.7c.7,1.1,1.7,2,3,2.6s3.7,1.4,7.1,2.2c2.5.6,4.1,1.2,4.8,1.6.9.6,1.4,1.4,1.4,2.5s-.5,2.2-1.5,3c-1.1.9-2.7,1.3-4.8,1.3s-3.8-.5-5-1.5c-1.2-1-1.9-2.4-2.2-4.3l-4.6.7c.5,2.9,1.7,5.1,3.6,6.6h0ZM895.7,524.6c-1.2.9-2.7,1.4-4.4,1.4s-4.3-.8-5.8-2.4c-1.5-1.6-2.4-3.9-2.6-7h20.6v-1.2c0-4.6-1.2-8.1-3.5-10.6s-5.3-3.8-9-3.8-6.9,1.3-9.3,3.8-3.6,6.2-3.6,10.8,1.2,7.9,3.6,10.4c2.3,2.5,5.5,3.7,9.6,3.7s5.8-.8,7.9-2.3c2-1.5,3.5-3.7,4.2-6.5l-4.8-.6c-.7,2-1.6,3.4-2.9,4.3h0ZM885.7,507.1c1.4-1.4,3.2-2.2,5.4-2.2s4.3.9,5.8,2.7c1,1.2,1.5,2.9,1.8,5.2h-15.4c.2-2.4,1-4.3,2.4-5.7h0ZM913.9,529.2v-14.4c0-2,.3-3.8.8-5.5.3-1.1.9-1.9,1.7-2.6.8-.6,1.8-.9,2.8-.9s2.2.3,3.4,1l1.6-4.3c-1.6-1-3.2-1.5-4.8-1.5s-2.1.3-3,1c-.9.6-1.9,1.9-3,3.8v-4.2h-4.2v27.6h4.7Z"/>
  <rect class="st0" x="10.6" y="469.7" width="44.8" height="48.1"/>
  <rect class="st3" x="10.6" y="469.7" width="44.8" height="48.1"/>
</svg>