<?xml version="1.0" encoding="UTF-8"?>
<svg id="EXT_Linear_Pro_Graze_CTC_-_Thumbnail" data-name="EXT Linear Pro Graze CTC - Thumbnail" xmlns="http://www.w3.org/2000/svg" viewBox="0 0 1024 1024">
  <defs>
    <style>
      .cls-1, .cls-2 {
        fill: #fff;
      }

      .cls-2, .cls-3 {
        fill-rule: evenodd;
      }

      .cls-4 {
        stroke-width: .14px;
      }

      .cls-4, .cls-5 {
        fill: none;
        stroke: #000;
        stroke-linecap: round;
        stroke-linejoin: round;
      }

      .cls-6, .cls-3 {
        fill: #ccc;
      }
    </style>
  </defs>
  <g id="_4FT" data-name="4FT">
    <rect class="cls-6" x="26.25" y="496.16" width="971.5" height="31.68"/>
    <rect class="cls-5" x="26.25" y="496.16" width="971.5" height="31.68"/>
    <path class="cls-3" d="M980.28,512c0-4.91-4.04-8.95-8.96-8.95s-8.95,4.04-8.95,8.95,4.04,8.95,8.95,8.95,8.96-4.04,8.96-8.95"/>
    <path class="cls-4" d="M980.28,512c0-4.91-4.04-8.95-8.96-8.95s-8.95,4.04-8.95,8.95,4.04,8.95,8.95,8.95,8.96-4.04,8.96-8.95"/>
    <path class="cls-3" d="M960.73,512c0-4.91-4.04-8.95-8.95-8.95s-8.95,4.04-8.95,8.95,4.04,8.95,8.95,8.95,8.95-4.04,8.95-8.95"/>
    <path class="cls-4" d="M960.73,512c0-4.91-4.04-8.95-8.95-8.95s-8.95,4.04-8.95,8.95,4.04,8.95,8.95,8.95,8.95-4.04,8.95-8.95"/>
    <path class="cls-3" d="M941.18,512c0-4.91-4.04-8.95-8.95-8.95s-8.95,4.04-8.95,8.95,4.04,8.95,8.95,8.95,8.95-4.04,8.95-8.95"/>
    <path class="cls-4" d="M941.18,512c0-4.91-4.04-8.95-8.95-8.95s-8.95,4.04-8.95,8.95,4.04,8.95,8.95,8.95,8.95-4.04,8.95-8.95"/>
    <path class="cls-3" d="M921.64,512c0-4.91-4.04-8.95-8.96-8.95s-8.95,4.04-8.95,8.95,4.04,8.95,8.95,8.95,8.96-4.04,8.96-8.95"/>
    <path class="cls-4" d="M921.64,512c0-4.91-4.04-8.95-8.96-8.95s-8.95,4.04-8.95,8.95,4.04,8.95,8.95,8.95,8.96-4.04,8.96-8.95"/>
    <path class="cls-3" d="M902.1,512c0-4.91-4.04-8.95-8.95-8.95s-8.96,4.04-8.96,8.95,4.04,8.95,8.96,8.95,8.95-4.04,8.95-8.95"/>
    <path class="cls-4" d="M902.1,512c0-4.91-4.04-8.95-8.95-8.95s-8.96,4.04-8.96,8.95,4.04,8.95,8.96,8.95,8.95-4.04,8.95-8.95"/>
    <path class="cls-3" d="M882.55,512c0-4.91-4.04-8.95-8.95-8.95s-8.95,4.04-8.95,8.95,4.04,8.95,8.95,8.95,8.95-4.04,8.95-8.95"/>
    <path class="cls-4" d="M882.55,512c0-4.91-4.04-8.95-8.95-8.95s-8.95,4.04-8.95,8.95,4.04,8.95,8.95,8.95,8.95-4.04,8.95-8.95"/>
    <path class="cls-3" d="M863,512c0-4.91-4.04-8.95-8.95-8.95s-8.95,4.04-8.95,8.95,4.04,8.95,8.95,8.95,8.95-4.04,8.95-8.95"/>
    <path class="cls-4" d="M863,512c0-4.91-4.04-8.95-8.95-8.95s-8.95,4.04-8.95,8.95,4.04,8.95,8.95,8.95,8.95-4.04,8.95-8.95"/>
    <path class="cls-3" d="M843.46,512c0-4.91-4.04-8.95-8.95-8.95s-8.96,4.04-8.96,8.95,4.04,8.95,8.96,8.95,8.95-4.04,8.95-8.95"/>
    <path class="cls-4" d="M843.46,512c0-4.91-4.04-8.95-8.95-8.95s-8.96,4.04-8.96,8.95,4.04,8.95,8.96,8.95,8.95-4.04,8.95-8.95"/>
    <path class="cls-3" d="M823.91,512c0-4.91-4.04-8.95-8.95-8.95s-8.95,4.04-8.95,8.95,4.04,8.95,8.95,8.95,8.95-4.04,8.95-8.95"/>
    <path class="cls-4" d="M823.91,512c0-4.91-4.04-8.95-8.95-8.95s-8.95,4.04-8.95,8.95,4.04,8.95,8.95,8.95,8.95-4.04,8.95-8.95"/>
    <path class="cls-3" d="M804.36,512c0-4.91-4.04-8.95-8.95-8.95s-8.95,4.04-8.95,8.95,4.04,8.95,8.95,8.95,8.95-4.04,8.95-8.95"/>
    <path class="cls-4" d="M804.36,512c0-4.91-4.04-8.95-8.95-8.95s-8.95,4.04-8.95,8.95,4.04,8.95,8.95,8.95,8.95-4.04,8.95-8.95"/>
    <path class="cls-3" d="M784.82,512c0-4.91-4.04-8.95-8.96-8.95s-8.95,4.04-8.95,8.95,4.04,8.95,8.95,8.95,8.96-4.04,8.96-8.95"/>
    <path class="cls-4" d="M784.82,512c0-4.91-4.04-8.95-8.96-8.95s-8.95,4.04-8.95,8.95,4.04,8.95,8.95,8.95,8.96-4.04,8.96-8.95"/>
    <path class="cls-3" d="M765.27,512c0-4.91-4.04-8.95-8.95-8.95s-8.96,4.04-8.96,8.95,4.04,8.95,8.96,8.95,8.95-4.04,8.95-8.95"/>
    <path class="cls-4" d="M765.27,512c0-4.91-4.04-8.95-8.95-8.95s-8.96,4.04-8.96,8.95,4.04,8.95,8.96,8.95,8.95-4.04,8.95-8.95"/>
    <path class="cls-3" d="M745.73,512c0-4.91-4.04-8.95-8.95-8.95s-8.95,4.04-8.95,8.95,4.04,8.95,8.95,8.95,8.95-4.04,8.95-8.95"/>
    <path class="cls-4" d="M745.73,512c0-4.91-4.04-8.95-8.95-8.95s-8.95,4.04-8.95,8.95,4.04,8.95,8.95,8.95,8.95-4.04,8.95-8.95"/>
    <path class="cls-3" d="M726.19,512c0-4.91-4.04-8.95-8.96-8.95s-8.95,4.04-8.95,8.95,4.04,8.95,8.95,8.95,8.96-4.04,8.96-8.95"/>
    <path class="cls-4" d="M726.19,512c0-4.91-4.04-8.95-8.96-8.95s-8.95,4.04-8.95,8.95,4.04,8.95,8.95,8.95,8.96-4.04,8.96-8.95"/>
    <path class="cls-3" d="M706.64,512c0-4.91-4.04-8.95-8.95-8.95s-8.96,4.04-8.96,8.95,4.04,8.95,8.96,8.95,8.95-4.04,8.95-8.95"/>
    <path class="cls-4" d="M706.64,512c0-4.91-4.04-8.95-8.95-8.95s-8.96,4.04-8.96,8.95,4.04,8.95,8.96,8.95,8.95-4.04,8.95-8.95"/>
    <path class="cls-3" d="M687.09,512c0-4.91-4.04-8.95-8.95-8.95s-8.95,4.04-8.95,8.95,4.04,8.95,8.95,8.95,8.95-4.04,8.95-8.95"/>
    <path class="cls-4" d="M687.09,512c0-4.91-4.04-8.95-8.95-8.95s-8.95,4.04-8.95,8.95,4.04,8.95,8.95,8.95,8.95-4.04,8.95-8.95"/>
    <path class="cls-3" d="M667.54,512c0-4.91-4.04-8.95-8.95-8.95s-8.95,4.04-8.95,8.95,4.04,8.95,8.95,8.95,8.95-4.04,8.95-8.95"/>
    <path class="cls-4" d="M667.54,512c0-4.91-4.04-8.95-8.95-8.95s-8.95,4.04-8.95,8.95,4.04,8.95,8.95,8.95,8.95-4.04,8.95-8.95"/>
    <path class="cls-3" d="M648,512c0-4.91-4.04-8.95-8.95-8.95s-8.95,4.04-8.95,8.95,4.04,8.95,8.95,8.95,8.95-4.04,8.95-8.95"/>
    <path class="cls-4" d="M648,512c0-4.91-4.04-8.95-8.95-8.95s-8.95,4.04-8.95,8.95,4.04,8.95,8.95,8.95,8.95-4.04,8.95-8.95"/>
    <path class="cls-3" d="M628.45,512c0-4.91-4.04-8.95-8.95-8.95s-8.95,4.04-8.95,8.95,4.04,8.95,8.95,8.95,8.95-4.04,8.95-8.95"/>
    <path class="cls-4" d="M628.45,512c0-4.91-4.04-8.95-8.95-8.95s-8.95,4.04-8.95,8.95,4.04,8.95,8.95,8.95,8.95-4.04,8.95-8.95"/>
    <path class="cls-3" d="M608.91,512c0-4.91-4.04-8.95-8.95-8.95s-8.95,4.04-8.95,8.95,4.04,8.95,8.95,8.95,8.95-4.04,8.95-8.95"/>
    <path class="cls-4" d="M608.91,512c0-4.91-4.04-8.95-8.95-8.95s-8.95,4.04-8.95,8.95,4.04,8.95,8.95,8.95,8.95-4.04,8.95-8.95"/>
    <path class="cls-3" d="M589.36,512c0-4.91-4.04-8.95-8.95-8.95s-8.95,4.04-8.95,8.95,4.04,8.95,8.95,8.95,8.95-4.04,8.95-8.95"/>
    <path class="cls-4" d="M589.36,512c0-4.91-4.04-8.95-8.95-8.95s-8.95,4.04-8.95,8.95,4.04,8.95,8.95,8.95,8.95-4.04,8.95-8.95"/>
    <path class="cls-3" d="M569.82,512c0-4.91-4.04-8.95-8.95-8.95s-8.95,4.04-8.95,8.95,4.04,8.95,8.95,8.95,8.95-4.04,8.95-8.95"/>
    <path class="cls-4" d="M569.82,512c0-4.91-4.04-8.95-8.95-8.95s-8.95,4.04-8.95,8.95,4.04,8.95,8.95,8.95,8.95-4.04,8.95-8.95"/>
    <path class="cls-3" d="M550.27,512c0-4.91-4.04-8.95-8.95-8.95s-8.95,4.04-8.95,8.95,4.04,8.95,8.95,8.95,8.95-4.04,8.95-8.95"/>
    <path class="cls-4" d="M550.27,512c0-4.91-4.04-8.95-8.95-8.95s-8.95,4.04-8.95,8.95,4.04,8.95,8.95,8.95,8.95-4.04,8.95-8.95"/>
    <path class="cls-3" d="M530.72,512c0-4.91-4.04-8.95-8.95-8.95s-8.95,4.04-8.95,8.95,4.04,8.95,8.95,8.95,8.95-4.04,8.95-8.95"/>
    <path class="cls-4" d="M530.72,512c0-4.91-4.04-8.95-8.95-8.95s-8.95,4.04-8.95,8.95,4.04,8.95,8.95,8.95,8.95-4.04,8.95-8.95"/>
    <path class="cls-3" d="M511.18,512c0-4.91-4.04-8.95-8.95-8.95s-8.95,4.04-8.95,8.95,4.04,8.95,8.95,8.95,8.95-4.04,8.95-8.95"/>
    <path class="cls-4" d="M511.18,512c0-4.91-4.04-8.95-8.95-8.95s-8.95,4.04-8.95,8.95,4.04,8.95,8.95,8.95,8.95-4.04,8.95-8.95"/>
    <path class="cls-3" d="M491.63,512c0-4.91-4.04-8.95-8.95-8.95s-8.95,4.04-8.95,8.95,4.04,8.95,8.95,8.95,8.95-4.04,8.95-8.95"/>
    <path class="cls-4" d="M491.63,512c0-4.91-4.04-8.95-8.95-8.95s-8.95,4.04-8.95,8.95,4.04,8.95,8.95,8.95,8.95-4.04,8.95-8.95"/>
    <path class="cls-3" d="M472.09,512c0-4.91-4.04-8.95-8.95-8.95s-8.95,4.04-8.95,8.95,4.04,8.95,8.95,8.95,8.95-4.04,8.95-8.95"/>
    <path class="cls-4" d="M472.09,512c0-4.91-4.04-8.95-8.95-8.95s-8.95,4.04-8.95,8.95,4.04,8.95,8.95,8.95,8.95-4.04,8.95-8.95"/>
    <path class="cls-3" d="M452.54,512c0-4.91-4.04-8.95-8.95-8.95s-8.95,4.04-8.95,8.95,4.04,8.95,8.95,8.95,8.95-4.04,8.95-8.95"/>
    <path class="cls-4" d="M452.54,512c0-4.91-4.04-8.95-8.95-8.95s-8.95,4.04-8.95,8.95,4.04,8.95,8.95,8.95,8.95-4.04,8.95-8.95"/>
    <path class="cls-3" d="M433,512c0-4.91-4.04-8.95-8.95-8.95s-8.95,4.04-8.95,8.95,4.04,8.95,8.95,8.95,8.95-4.04,8.95-8.95"/>
    <path class="cls-4" d="M433,512c0-4.91-4.04-8.95-8.95-8.95s-8.95,4.04-8.95,8.95,4.04,8.95,8.95,8.95,8.95-4.04,8.95-8.95"/>
    <path class="cls-3" d="M413.45,512c0-4.91-4.04-8.95-8.95-8.95s-8.95,4.04-8.95,8.95,4.04,8.95,8.95,8.95,8.95-4.04,8.95-8.95"/>
    <path class="cls-4" d="M413.45,512c0-4.91-4.04-8.95-8.95-8.95s-8.95,4.04-8.95,8.95,4.04,8.95,8.95,8.95,8.95-4.04,8.95-8.95"/>
    <path class="cls-3" d="M393.9,512c0-4.91-4.04-8.95-8.95-8.95s-8.95,4.04-8.95,8.95,4.04,8.95,8.95,8.95,8.95-4.04,8.95-8.95"/>
    <path class="cls-4" d="M393.9,512c0-4.91-4.04-8.95-8.95-8.95s-8.95,4.04-8.95,8.95,4.04,8.95,8.95,8.95,8.95-4.04,8.95-8.95"/>
    <path class="cls-3" d="M374.36,512c0-4.91-4.04-8.95-8.95-8.95s-8.95,4.04-8.95,8.95,4.04,8.95,8.95,8.95,8.95-4.04,8.95-8.95"/>
    <path class="cls-4" d="M374.36,512c0-4.91-4.04-8.95-8.95-8.95s-8.95,4.04-8.95,8.95,4.04,8.95,8.95,8.95,8.95-4.04,8.95-8.95"/>
    <path class="cls-3" d="M354.81,512c0-4.91-4.04-8.95-8.95-8.95s-8.95,4.04-8.95,8.95,4.04,8.95,8.95,8.95,8.95-4.04,8.95-8.95"/>
    <path class="cls-4" d="M354.81,512c0-4.91-4.04-8.95-8.95-8.95s-8.95,4.04-8.95,8.95,4.04,8.95,8.95,8.95,8.95-4.04,8.95-8.95"/>
    <path class="cls-3" d="M335.27,512c0-4.91-4.04-8.95-8.95-8.95s-8.95,4.04-8.95,8.95,4.04,8.95,8.95,8.95,8.95-4.04,8.95-8.95"/>
    <path class="cls-4" d="M335.27,512c0-4.91-4.04-8.95-8.95-8.95s-8.95,4.04-8.95,8.95,4.04,8.95,8.95,8.95,8.95-4.04,8.95-8.95"/>
    <path class="cls-3" d="M315.72,512c0-4.91-4.04-8.95-8.95-8.95s-8.95,4.04-8.95,8.95,4.04,8.95,8.95,8.95,8.95-4.04,8.95-8.95"/>
    <path class="cls-4" d="M315.72,512c0-4.91-4.04-8.95-8.95-8.95s-8.95,4.04-8.95,8.95,4.04,8.95,8.95,8.95,8.95-4.04,8.95-8.95"/>
    <path class="cls-3" d="M296.17,512c0-4.91-4.04-8.95-8.95-8.95s-8.95,4.04-8.95,8.95,4.04,8.95,8.95,8.95,8.95-4.04,8.95-8.95"/>
    <path class="cls-4" d="M296.17,512c0-4.91-4.04-8.95-8.95-8.95s-8.95,4.04-8.95,8.95,4.04,8.95,8.95,8.95,8.95-4.04,8.95-8.95"/>
    <path class="cls-3" d="M276.63,512c0-4.91-4.04-8.95-8.95-8.95s-8.95,4.04-8.95,8.95,4.04,8.95,8.95,8.95,8.95-4.04,8.95-8.95"/>
    <path class="cls-4" d="M276.63,512c0-4.91-4.04-8.95-8.95-8.95s-8.95,4.04-8.95,8.95,4.04,8.95,8.95,8.95,8.95-4.04,8.95-8.95"/>
    <path class="cls-3" d="M257.08,512c0-4.91-4.04-8.95-8.95-8.95s-8.95,4.04-8.95,8.95,4.04,8.95,8.95,8.95,8.95-4.04,8.95-8.95"/>
    <path class="cls-4" d="M257.08,512c0-4.91-4.04-8.95-8.95-8.95s-8.95,4.04-8.95,8.95,4.04,8.95,8.95,8.95,8.95-4.04,8.95-8.95"/>
    <path class="cls-3" d="M237.54,512c0-4.91-4.04-8.95-8.95-8.95s-8.95,4.04-8.95,8.95,4.04,8.95,8.95,8.95,8.95-4.04,8.95-8.95"/>
    <path class="cls-4" d="M237.54,512c0-4.91-4.04-8.95-8.95-8.95s-8.95,4.04-8.95,8.95,4.04,8.95,8.95,8.95,8.95-4.04,8.95-8.95"/>
    <path class="cls-3" d="M217.99,512c0-4.91-4.04-8.95-8.95-8.95s-8.95,4.04-8.95,8.95,4.04,8.95,8.95,8.95,8.95-4.04,8.95-8.95"/>
    <path class="cls-4" d="M217.99,512c0-4.91-4.04-8.95-8.95-8.95s-8.95,4.04-8.95,8.95,4.04,8.95,8.95,8.95,8.95-4.04,8.95-8.95"/>
    <path class="cls-3" d="M198.45,512c0-4.91-4.04-8.95-8.95-8.95s-8.95,4.04-8.95,8.95,4.04,8.95,8.95,8.95,8.95-4.04,8.95-8.95"/>
    <path class="cls-4" d="M198.45,512c0-4.91-4.04-8.95-8.95-8.95s-8.95,4.04-8.95,8.95,4.04,8.95,8.95,8.95,8.95-4.04,8.95-8.95"/>
    <path class="cls-3" d="M178.9,512c0-4.91-4.04-8.95-8.95-8.95s-8.95,4.04-8.95,8.95,4.04,8.95,8.95,8.95,8.95-4.04,8.95-8.95"/>
    <path class="cls-4" d="M178.9,512c0-4.91-4.04-8.95-8.95-8.95s-8.95,4.04-8.95,8.95,4.04,8.95,8.95,8.95,8.95-4.04,8.95-8.95"/>
    <path class="cls-3" d="M159.35,512c0-4.91-4.04-8.95-8.95-8.95s-8.95,4.04-8.95,8.95,4.04,8.95,8.95,8.95,8.95-4.04,8.95-8.95"/>
    <path class="cls-4" d="M159.35,512c0-4.91-4.04-8.95-8.95-8.95s-8.95,4.04-8.95,8.95,4.04,8.95,8.95,8.95,8.95-4.04,8.95-8.95"/>
    <path class="cls-3" d="M139.81,512c0-4.91-4.04-8.95-8.95-8.95s-8.95,4.04-8.95,8.95,4.04,8.95,8.95,8.95,8.95-4.04,8.95-8.95"/>
    <path class="cls-4" d="M139.81,512c0-4.91-4.04-8.95-8.95-8.95s-8.95,4.04-8.95,8.95,4.04,8.95,8.95,8.95,8.95-4.04,8.95-8.95"/>
    <path class="cls-3" d="M120.26,512c0-4.91-4.04-8.95-8.95-8.95s-8.95,4.04-8.95,8.95,4.04,8.95,8.95,8.95,8.95-4.04,8.95-8.95"/>
    <path class="cls-4" d="M120.26,512c0-4.91-4.04-8.95-8.95-8.95s-8.95,4.04-8.95,8.95,4.04,8.95,8.95,8.95,8.95-4.04,8.95-8.95"/>
    <path class="cls-3" d="M100.72,512c0-4.91-4.04-8.95-8.95-8.95s-8.95,4.04-8.95,8.95,4.04,8.95,8.95,8.95,8.95-4.04,8.95-8.95"/>
    <path class="cls-4" d="M100.72,512c0-4.91-4.04-8.95-8.95-8.95s-8.95,4.04-8.95,8.95,4.04,8.95,8.95,8.95,8.95-4.04,8.95-8.95"/>
    <path class="cls-3" d="M81.17,512c0-4.91-4.04-8.95-8.95-8.95s-8.95,4.04-8.95,8.95,4.04,8.95,8.95,8.95,8.95-4.04,8.95-8.95"/>
    <path class="cls-4" d="M81.17,512c0-4.91-4.04-8.95-8.95-8.95s-8.95,4.04-8.95,8.95,4.04,8.95,8.95,8.95,8.95-4.04,8.95-8.95"/>
    <path class="cls-3" d="M61.63,512c0-4.91-4.04-8.95-8.95-8.95s-8.95,4.04-8.95,8.95,4.04,8.95,8.95,8.95,8.95-4.04,8.95-8.95"/>
    <path class="cls-4" d="M61.63,512c0-4.91-4.04-8.95-8.95-8.95s-8.95,4.04-8.95,8.95,4.04,8.95,8.95,8.95,8.95-4.04,8.95-8.95"/>
    <rect class="cls-1" x="432.82" y="500.12" width="158.35" height="23.75"/>
    <rect class="cls-5" x="432.82" y="500.12" width="158.35" height="23.75"/>
    <polyline class="cls-2" points="446.26 507.18 583.32 507.18 583.32 516.82 446.26 516.82 446.26 507.18"/>
    <path d="M451.4,514.72v-.71h-3.68v-2.04h3.32v-.7h-3.32v-1.84h3.54v-.71h-4.34v6h4.48Zm1.4,0l1.14-1.71,.24,.36,.89,1.35h.9l-1.62-2.3,1.5-2.05h-.88l-.73,1.03c-.1,.14-.21,.3-.33,.48-.08-.13-.18-.29-.3-.49l-.67-1.02h-.92l1.47,2.09-1.59,2.26h.89Zm5.07-.63c-.11,0-.19-.02-.25-.05-.06-.04-.1-.08-.13-.14-.03-.06-.04-.19-.04-.41v-2.54h.74v-.57h-.74v-1.52l-.73,.44v1.08h-.54v.57h.54v2.5c0,.44,.03,.73,.09,.87,.06,.14,.16,.25,.31,.33,.15,.08,.35,.13,.62,.13,.16,0,.35-.02,.56-.07l-.11-.65c-.13,.02-.24,.03-.32,.03h0Zm3.56-.09c-.19,.14-.42,.21-.69,.21-.36,0-.67-.13-.91-.38-.24-.25-.38-.62-.41-1.1h3.24c0-.09,0-.15,0-.2,0-.72-.18-1.27-.55-1.67-.37-.4-.84-.59-1.42-.59s-1.09,.2-1.46,.61c-.38,.4-.56,.97-.56,1.7s.19,1.26,.56,1.65c.37,.39,.88,.59,1.51,.59,.5,0,.92-.12,1.24-.37,.32-.25,.55-.59,.67-1.04l-.76-.09c-.11,.31-.26,.54-.45,.68h0Zm-1.58-2.78c.23-.23,.51-.34,.85-.34,.37,0,.68,.14,.91,.43,.15,.18,.25,.46,.28,.82h-2.43c.02-.38,.15-.68,.38-.91h0Zm4.45,3.5v-2.27c0-.31,.04-.6,.12-.86,.05-.17,.15-.31,.27-.4,.13-.1,.27-.15,.43-.15,.18,0,.36,.05,.54,.16l.25-.68c-.26-.16-.51-.24-.76-.24-.17,0-.33,.05-.47,.15s-.3,.3-.47,.61v-.66h-.66v4.35h.74Zm2.8-5.15v-.85h-.74v.85h.74Zm0,5.15v-4.35h-.74v4.35h.74Zm1.41-.49c.38,.39,.87,.59,1.48,.59,.38,0,.73-.09,1.05-.27,.32-.18,.56-.43,.73-.75,.17-.32,.25-.76,.25-1.32,0-.69-.19-1.23-.57-1.62-.38-.39-.87-.59-1.46-.59-.54,0-.99,.16-1.37,.48-.45,.39-.67,.98-.67,1.79,0,.73,.19,1.3,.56,1.69h0Zm.56-2.93c.24-.28,.55-.41,.92-.41s.67,.14,.91,.42c.24,.28,.37,.68,.37,1.22,0,.57-.12,.99-.36,1.27-.24,.28-.55,.42-.91,.42s-.67-.14-.92-.42c-.24-.28-.36-.69-.36-1.25s.12-.97,.36-1.25h0Zm4.54,3.42v-2.27c0-.31,.04-.6,.12-.86,.05-.17,.15-.31,.27-.4,.13-.1,.27-.15,.43-.15,.18,0,.36,.05,.54,.16l.25-.68c-.26-.16-.51-.24-.76-.24-.17,0-.33,.05-.47,.15s-.3,.3-.47,.61v-.66h-.66v4.35h.74Zm8.2,0v-.71h-2.95v-5.29h-.79v6h3.75Zm1.59-5.15v-.85h-.74v.85h.74Zm0,5.15v-4.35h-.74v4.35h.74Zm1.86,0v-2.37c0-.56,.11-.93,.34-1.13,.23-.2,.5-.3,.81-.3,.2,0,.37,.04,.51,.13,.15,.09,.25,.21,.3,.36,.06,.15,.09,.37,.09,.67v2.64h.74v-2.67c0-.34-.01-.58-.04-.72-.04-.21-.12-.39-.23-.54-.11-.15-.27-.28-.49-.37-.22-.09-.46-.14-.72-.14-.6,0-1.06,.24-1.38,.72v-.62h-.66v4.35h.74Zm6.44-.72c-.19,.14-.42,.21-.69,.21-.36,0-.67-.13-.91-.38-.24-.25-.38-.62-.41-1.1h3.24c0-.09,0-.15,0-.2,0-.72-.18-1.27-.55-1.67-.37-.4-.84-.59-1.42-.59s-1.09,.2-1.46,.61c-.38,.4-.56,.97-.56,1.7s.19,1.26,.56,1.65c.37,.39,.88,.59,1.51,.59,.5,0,.92-.12,1.24-.37,.32-.25,.55-.59,.67-1.04l-.76-.09c-.11,.31-.26,.54-.45,.68h0Zm-1.58-2.78c.23-.23,.51-.34,.85-.34,.37,0,.68,.14,.91,.43,.15,.18,.25,.46,.28,.82h-2.43c.02-.38,.15-.68,.38-.91h0Zm6.7,3.5h.77c-.09-.17-.15-.34-.19-.52-.03-.18-.05-.61-.05-1.3v-.98c0-.33-.01-.55-.04-.68-.04-.2-.12-.37-.23-.5-.11-.13-.28-.24-.51-.33-.23-.09-.53-.13-.9-.13s-.7,.05-.99,.15c-.28,.1-.5,.25-.65,.44-.15,.19-.26,.44-.32,.75l.72,.1c.08-.31,.2-.52,.37-.64,.16-.12,.42-.18,.77-.18,.37,0,.65,.08,.84,.25,.14,.12,.21,.33,.21,.63,0,.03,0,.09,0,.19-.28,.1-.72,.18-1.31,.25-.29,.04-.51,.07-.65,.11-.2,.05-.37,.14-.53,.24-.16,.11-.28,.25-.38,.42-.1,.18-.15,.37-.15,.58,0,.36,.13,.66,.38,.89,.26,.23,.62,.35,1.1,.35,.29,0,.56-.05,.81-.14,.25-.1,.51-.26,.79-.49,.02,.2,.07,.38,.15,.54h0Zm-.21-1.91c0,.32-.04,.57-.12,.74-.1,.22-.27,.39-.49,.51-.22,.12-.47,.19-.76,.19s-.5-.07-.65-.2c-.15-.13-.22-.29-.22-.49,0-.13,.03-.24,.1-.35,.07-.1,.16-.18,.29-.24,.13-.05,.34-.1,.64-.15,.53-.08,.94-.17,1.2-.28v.27h0Zm2.61,1.91v-2.27c0-.31,.04-.6,.12-.86,.05-.17,.15-.31,.27-.4,.13-.1,.27-.15,.43-.15,.18,0,.36,.05,.54,.16l.25-.68c-.26-.16-.51-.24-.76-.24-.17,0-.33,.05-.47,.15s-.3,.3-.47,.61v-.66h-.66v4.35h.74Zm5.28,0v-2.44h1.54c.85,0,1.43-.18,1.76-.53,.32-.35,.49-.78,.49-1.29,0-.3-.06-.57-.18-.82-.12-.25-.28-.44-.48-.58-.2-.14-.45-.23-.74-.28-.21-.04-.51-.06-.91-.06h-2.26v6h.79Zm0-5.29h1.53c.36,0,.61,.02,.74,.05,.21,.06,.37,.18,.5,.35,.13,.18,.19,.39,.19,.64,0,.35-.11,.62-.32,.81-.22,.19-.58,.29-1.09,.29h-1.55v-2.14h0Zm5.43,5.29v-2.27c0-.31,.04-.6,.12-.86,.05-.17,.15-.31,.27-.4,.13-.1,.27-.15,.43-.15,.18,0,.36,.05,.54,.16l.25-.68c-.26-.16-.51-.24-.76-.24-.17,0-.33,.05-.47,.15s-.3,.3-.47,.61v-.66h-.66v4.35h.74Zm2.35-.49c.38,.39,.87,.59,1.48,.59,.38,0,.73-.09,1.05-.27,.32-.18,.56-.43,.73-.75,.17-.32,.25-.76,.25-1.32,0-.69-.19-1.23-.57-1.62-.38-.39-.87-.59-1.46-.59-.54,0-.99,.16-1.37,.48-.45,.39-.67,.98-.67,1.79,0,.73,.19,1.3,.56,1.69h0Zm.56-2.93c.24-.28,.55-.41,.92-.41s.67,.14,.91,.42c.24,.28,.37,.68,.37,1.22,0,.57-.12,.99-.36,1.27-.24,.28-.55,.42-.91,.42s-.67-.14-.92-.42c-.24-.28-.36-.69-.36-1.25s.12-.97,.36-1.25h0Zm10.81,1.07v1.12c-.17,.15-.42,.29-.74,.42-.33,.13-.66,.2-1.01,.2-.4,0-.77-.09-1.12-.26-.35-.17-.62-.44-.8-.8s-.28-.81-.28-1.34c0-.43,.08-.84,.23-1.21,.09-.22,.22-.41,.38-.59,.16-.18,.38-.33,.64-.44,.26-.11,.58-.17,.94-.17,.3,0,.58,.05,.83,.16,.25,.11,.44,.24,.57,.42,.13,.17,.25,.41,.34,.72l.72-.2c-.1-.4-.26-.73-.45-.98-.2-.25-.47-.45-.82-.59-.35-.14-.74-.21-1.18-.21-.6,0-1.13,.12-1.58,.37s-.81,.62-1.05,1.13c-.24,.51-.37,1.05-.37,1.63s.12,1.12,.37,1.6c.25,.48,.61,.84,1.09,1.09,.48,.25,1.02,.38,1.61,.38,.44,0,.86-.08,1.28-.24,.41-.16,.82-.39,1.21-.7v-2.23h-2.54v.71h1.76Zm2.58,2.35v-2.27c0-.31,.04-.6,.12-.86,.05-.17,.15-.31,.27-.4,.13-.1,.27-.15,.43-.15,.18,0,.36,.05,.54,.16l.25-.68c-.26-.16-.51-.24-.76-.24-.17,0-.33,.05-.47,.15s-.3,.3-.47,.61v-.66h-.66v4.35h.74Zm5.04,0h.77c-.09-.17-.15-.34-.19-.52-.03-.18-.05-.61-.05-1.3v-.98c0-.33-.01-.55-.04-.68-.04-.2-.12-.37-.23-.5-.11-.13-.28-.24-.51-.33-.23-.09-.53-.13-.9-.13s-.7,.05-.99,.15c-.28,.1-.5,.25-.65,.44-.15,.19-.26,.44-.32,.75l.72,.1c.08-.31,.2-.52,.37-.64,.16-.12,.42-.18,.77-.18,.37,0,.65,.08,.84,.25,.14,.12,.21,.33,.21,.63,0,.03,0,.09,0,.19-.28,.1-.72,.18-1.31,.25-.29,.04-.51,.07-.65,.11-.2,.05-.37,.14-.53,.24-.16,.11-.28,.25-.38,.42-.1,.18-.15,.37-.15,.58,0,.36,.13,.66,.38,.89,.26,.23,.62,.35,1.1,.35,.29,0,.56-.05,.81-.14,.25-.1,.51-.26,.79-.49,.02,.2,.07,.38,.15,.54h0Zm-.21-1.91c0,.32-.04,.57-.12,.74-.1,.22-.27,.39-.49,.51-.22,.12-.47,.19-.76,.19s-.5-.07-.65-.2c-.15-.13-.22-.29-.22-.49,0-.13,.03-.24,.1-.35,.07-.1,.16-.18,.29-.24,.13-.05,.34-.1,.64-.15,.53-.08,.94-.17,1.2-.28v.27h0Zm5.34,1.91v-.63h-2.01c-.29,0-.6,.01-.93,.04l.45-.5,2.35-2.76v-.49h-3.55v.6h1.77c.24,0,.52,0,.83-.02l-2.77,3.18v.6h3.85Zm3.25-.72c-.19,.14-.42,.21-.69,.21-.36,0-.67-.13-.91-.38-.24-.25-.38-.62-.41-1.1h3.24c0-.09,0-.15,0-.2,0-.72-.18-1.27-.55-1.67-.37-.4-.84-.59-1.42-.59s-1.09,.2-1.46,.61c-.38,.4-.56,.97-.56,1.7s.19,1.26,.56,1.65c.37,.39,.88,.59,1.51,.59,.5,0,.92-.12,1.24-.37,.32-.25,.55-.59,.67-1.04l-.76-.09c-.11,.31-.26,.54-.45,.68h0Zm-1.58-2.78c.23-.23,.51-.34,.85-.34,.37,0,.68,.14,.91,.43,.15,.18,.25,.46,.28,.82h-2.43c.02-.38,.15-.68,.38-.91h0Zm9.8,2.54c-.31,.26-.68,.38-1.13,.38-.37,0-.71-.09-1.02-.28-.31-.19-.54-.47-.69-.85-.15-.38-.22-.83-.22-1.34,0-.4,.06-.78,.19-1.15,.13-.37,.34-.67,.65-.89,.31-.22,.69-.33,1.16-.33,.4,0,.73,.1,1,.3,.26,.2,.47,.52,.61,.95l.78-.18c-.16-.55-.45-.98-.86-1.29-.41-.31-.91-.46-1.51-.46-.53,0-1.01,.12-1.45,.36-.44,.24-.78,.59-1.02,1.06-.24,.47-.36,1.01-.36,1.63,0,.57,.11,1.11,.32,1.61,.21,.5,.52,.88,.92,1.14,.41,.26,.93,.39,1.58,.39s1.15-.17,1.59-.51c.43-.34,.73-.84,.9-1.49l-.79-.2c-.11,.5-.32,.89-.63,1.14h0Zm4.72,.96v-5.29h1.98v-.71h-4.75v.71h1.98v5.29h.79Zm6.45-.96c-.31,.26-.68,.38-1.13,.38-.37,0-.71-.09-1.02-.28-.31-.19-.54-.47-.69-.85-.15-.38-.22-.83-.22-1.34,0-.4,.06-.78,.19-1.15,.13-.37,.34-.67,.65-.89,.31-.22,.69-.33,1.16-.33,.4,0,.73,.1,1,.3,.26,.2,.47,.52,.61,.95l.78-.18c-.16-.55-.45-.98-.86-1.29-.41-.31-.91-.46-1.51-.46-.53,0-1.01,.12-1.45,.36-.44,.24-.78,.59-1.02,1.06-.24,.47-.36,1.01-.36,1.63,0,.57,.11,1.11,.32,1.61,.21,.5,.52,.88,.92,1.14,.41,.26,.93,.39,1.58,.39s1.15-.17,1.59-.51c.43-.34,.73-.84,.9-1.49l-.79-.2c-.11,.5-.32,.89-.63,1.14h0Zm6.61-.84v-.74h-2.26v.74h2.26Zm6.04,1.8v-1.44h.81v-.68h-.81v-3.89h-.6l-2.74,3.89v.68h2.6v1.44h.74Zm-2.61-2.11l1.88-2.7v2.7h-1.88Zm5.31,2.11v-2.72h2.82v-.71h-2.82v-1.86h3.25v-.71h-4.05v6h.79Zm6.6,0v-5.29h1.98v-.71h-4.75v.71h1.98v5.29h.79Z"/>
  </g>
</svg>