<?xml version="1.0" encoding="UTF-8"?>
<svg id="ELP_PAR_IP_-_Thumbnail" data-name="ELP PAR IP - Thumbnail" xmlns="http://www.w3.org/2000/svg" viewBox="0 0 1024 1024">
  <defs>
    <style>
      .cls-1 {
        fill: #fff;
      }

      .cls-1, .cls-2 {
        fill-rule: evenodd;
      }

      .cls-3 {
        fill: none;
        stroke: #000;
        stroke-linecap: round;
        stroke-linejoin: round;
      }

      .cls-4, .cls-2 {
        fill: #ccc;
      }
    </style>
  </defs>
  <polyline class="cls-2" points="198.36 28.17 211.99 8.41 815.21 8.41 828.85 28.17 845.15 355.86 860.99 374.22 860.8 439.85 880.56 444.79 880.56 796.12 810.41 875.01 768.48 880.23 764 992.01 738.92 1014.54 288.29 1014.54 263.2 992.01 258.73 880.23 216.8 875.01 146.65 796.12 146.65 444.79 166.41 439.85 166.22 374.22 182.05 355.86 198.36 28.17"/>
  <path class="cls-3" d="M198.36,28.17l13.63-19.75H815.21l13.63,19.75,16.31,327.7,15.84,18.36-.2,65.62,19.76,4.94v351.34l-70.15,78.88-41.92,5.23-4.48,111.77-25.08,22.53H288.29l-25.08-22.53-4.48-111.77-41.93-5.23-70.15-78.88V444.79l19.76-4.94-.19-65.62,15.84-18.36L198.36,28.17h0ZM842.66,355.86H180.41m495.24-.02l-13.86-347.12M346.13,355.86L360.15,8.41m501.15,361.75H166.43m699.11,41.69l-704-.71m98.82,571.91h507.01m1.11-102.81H258.73"/>
  <rect class="cls-4" x="115.48" y="471.56" width="791.7" height="155.04"/>
  <rect class="cls-3" x="115.48" y="471.56" width="791.7" height="155.04"/>
  <polyline class="cls-2" points="962.93 502.73 972.82 502.73 972.82 525.82 980.08 526.15 980.08 756.73 950.39 756.73 936.54 588.49 907.18 580.91 907.12 526.15 907.12 525.49 962.93 502.73"/>
  <polygon class="cls-3" points="962.93 502.73 972.82 502.73 972.82 525.82 980.08 526.15 980.08 756.73 950.39 756.73 936.54 588.49 907.18 580.91 907.12 526.15 907.12 525.49 962.93 502.73 962.93 502.73"/>
  <polyline class="cls-2" points="59.74 502.73 49.84 502.73 49.84 525.82 42.58 526.15 42.58 756.73 72.27 756.73 86.13 588.49 115.49 580.91 115.55 526.15 115.55 525.49 59.74 502.73"/>
  <polygon class="cls-3" points="59.74 502.73 49.84 502.73 49.84 525.82 42.58 526.15 42.58 756.73 72.27 756.73 86.13 588.49 115.49 580.91 115.55 526.15 115.55 525.49 59.74 502.73 59.74 502.73"/>
  <polyline class="cls-1" points="281.53 512.29 755.68 512.29 755.68 769.25 281.53 769.25 281.53 512.29"/>
  <path d="M350.14,612.84v-9.44h-49.09v-27.22h44.24v-9.38h-44.24v-24.49h47.24v-9.44h-57.82v79.97h59.68Zm64.15,0v-9.44h-39.38v-70.53h-10.58v79.97h49.97Zm23.18,0v-32.51h20.51c11.31,0,19.13-2.35,23.46-7.06,4.33-4.71,6.49-10.46,6.49-17.27,0-3.96-.81-7.6-2.43-10.91-1.62-3.31-3.76-5.88-6.41-7.72-2.66-1.84-5.95-3.08-9.87-3.74-2.8-.51-6.86-.76-12.16-.76h-30.17v79.97h10.58Zm0-70.53h20.46c4.8,0,8.09,.24,9.87,.71,2.76,.76,4.99,2.34,6.68,4.72,1.69,2.38,2.54,5.25,2.54,8.59,0,4.62-1.44,8.2-4.31,10.75-2.87,2.55-7.73,3.82-14.56,3.82h-20.67v-28.58h0Zm105.55,70.53v-32.51h20.51c11.31,0,19.13-2.35,23.46-7.06,4.33-4.71,6.49-10.46,6.49-17.27,0-3.96-.81-7.6-2.43-10.91-1.62-3.31-3.76-5.88-6.41-7.72-2.66-1.84-5.95-3.08-9.87-3.74-2.8-.51-6.86-.76-12.16-.76h-30.17v79.97h10.58Zm0-70.53h20.46c4.8,0,8.09,.24,9.87,.71,2.76,.76,4.99,2.34,6.68,4.72,1.69,2.38,2.54,5.25,2.54,8.59,0,4.62-1.44,8.2-4.31,10.75-2.87,2.55-7.73,3.82-14.56,3.82h-20.67v-28.58h0Zm66.39,70.53l8.78-24.22h33.44l9.33,24.22h12.06l-32.73-79.97h-11.4l-30.71,79.97h11.24Zm20.62-56.3c1.85-5.05,3.29-10.15,4.31-15.27,1.24,4.33,3.13,9.86,5.67,16.58l8.35,22.15h-27.11l8.78-23.46h0Zm62.19,56.3v-35.51h12.27c2.73,0,4.69,.13,5.89,.38,1.64,.4,3.25,1.11,4.83,2.13,1.58,1.02,3.37,2.8,5.37,5.35,2,2.55,4.55,6.22,7.64,11.02l10.58,16.64h13.31l-13.91-21.77c-2.76-4.25-5.69-7.8-8.78-10.64-1.45-1.31-3.58-2.64-6.38-3.98,7.67-1.05,13.35-3.53,17.02-7.42,3.67-3.89,5.51-8.67,5.51-14.35,0-4.4-1.11-8.42-3.33-12.06-2.22-3.64-5.18-6.17-8.89-7.61-3.71-1.44-9.13-2.15-16.26-2.15h-35.46v79.97h10.58Zm0-71.13h25.31c5.93,0,10.26,1.22,13.01,3.65,2.75,2.44,4.12,5.55,4.12,9.33,0,2.58-.71,4.97-2.13,7.17-1.42,2.2-3.49,3.8-6.22,4.8-2.73,1-6.51,1.5-11.35,1.5h-22.75v-26.46h0Z"/>
  <path d="M485.84,741.32v-79.97h-10.58v79.97h10.58Zm29.24,0v-32.51h20.51c11.31,0,19.13-2.35,23.46-7.06,4.33-4.71,6.49-10.46,6.49-17.27,0-3.96-.81-7.6-2.43-10.91-1.62-3.31-3.76-5.88-6.41-7.72-2.66-1.84-5.95-3.08-9.87-3.74-2.8-.51-6.86-.76-12.16-.76h-30.17v79.97h10.58Zm0-70.53h20.46c4.8,0,8.09,.24,9.87,.71,2.76,.76,4.99,2.34,6.68,4.72,1.69,2.38,2.54,5.25,2.54,8.59,0,4.62-1.44,8.2-4.31,10.75-2.87,2.55-7.73,3.82-14.56,3.82h-20.67v-28.58h0Z"/>
</svg>