<?xml version="1.0" encoding="utf-8"?>
<!-- Generator: Adobe Illustrator 25.3.0, SVG Export Plug-In . SVG Version: 6.00 Build 0)  -->
<svg version="1.1" id="MAC_Encore_Performance_-_Thumbnail"
	 xmlns="http://www.w3.org/2000/svg" xmlns:xlink="http://www.w3.org/1999/xlink" x="0px" y="0px" viewBox="0 0 1024 1024"
	 style="enable-background:new 0 0 1024 1024;" xml:space="preserve">
<style type="text/css">
	.st0{fill-rule:evenodd;clip-rule:evenodd;fill:#CCCCCC;stroke:#1D1D1B;stroke-miterlimit:10;}
	.st1{fill:none;stroke:#1D1D1B;stroke-linecap:round;stroke-linejoin:round;stroke-miterlimit:10;}
	.st2{fill-rule:evenodd;clip-rule:evenodd;fill:#FFFFFF;stroke:#1D1D1B;stroke-miterlimit:10;}
	.st3{stroke:#1D1D1B;stroke-miterlimit:10;}
</style>
<g>
	<path class="st0" d="M892.9,353.1l-28.7-12.8c-4.3-1.9-8.8-3.1-13.4-3.7l-31.2-3.7H204.3l-31.2,3.7c-4.6,0.6-9.1,1.8-13.4,3.7
		l-28.7,12.8c-13.3,30.4-23.3,62.1-30.1,94.5c-6.8,32.5-10.2,65.5-10.2,98.7c0,33.2,3.4,66.2,10.2,98.7
		c6.8,32.5,16.9,64.1,30.1,94.5l37.5,11.9c1.9,0.6,3.8,1.1,5.7,1.4l30.1,5.5h615.3l30.1-5.5c1.9-0.4,3.9-0.8,5.7-1.4l37.5-11.9
		c13.3-30.4,23.3-62.1,30.1-94.5c6.8-32.5,10.2-65.5,10.2-98.7c0-33.2-3.4-66.2-10.2-98.7C916.3,415.1,906.2,383.5,892.9,353.1
		 M851.7,425l23.5,0.1c7.2,19.3,12.7,39.3,16.4,59.6c3.7,20.3,5.5,40.9,5.5,61.6c0,20.6-1.9,41.3-5.5,61.6
		c-3.7,20.3-9.2,40.3-16.4,59.6h-23.5V425 M148.8,667.5L148.8,667.5c-7.2-19.3-12.7-39.3-16.4-59.6c-3.7-20.3-5.5-40.9-5.5-61.6
		c0-20.6,1.9-41.3,5.5-61.6c3.7-20.3,9.2-40.3,16.4-59.6l23.5-0.1v242.4H148.8"/>
	<path class="st1" d="M892.9,353.1l-28.7-12.8c-4.3-1.9-8.8-3.1-13.4-3.7l-31.2-3.7H204.3l-31.2,3.7c-4.6,0.6-9.1,1.8-13.4,3.7
		l-28.7,12.8c-13.3,30.4-23.3,62.1-30.1,94.5c-6.8,32.5-10.2,65.5-10.2,98.7c0,33.2,3.4,66.2,10.2,98.7
		c6.8,32.5,16.9,64.1,30.1,94.5l37.5,11.9c1.9,0.6,3.8,1.1,5.7,1.4l30.1,5.5h615.3l30.1-5.5c1.9-0.4,3.9-0.8,5.7-1.4l37.5-11.9
		c13.3-30.4,23.3-62.1,30.1-94.5c6.8-32.5,10.2-65.5,10.2-98.7c0-33.2-3.4-66.2-10.2-98.7C916.3,415.1,906.2,383.5,892.9,353.1
		 M851.7,425l23.5,0.1c7.2,19.3,12.7,39.3,16.4,59.6c3.7,20.3,5.5,40.9,5.5,61.6c0,20.6-1.9,41.3-5.5,61.6
		c-3.7,20.3-9.2,40.3-16.4,59.6h-23.5V425 M148.8,667.5L148.8,667.5c-7.2-19.3-12.7-39.3-16.4-59.6c-3.7-20.3-5.5-40.9-5.5-61.6
		c0-20.6,1.9-41.3,5.5-61.6c3.7-20.3,9.2-40.3,16.4-59.6l23.5-0.1v242.4H148.8 M172.3,425v242.4h-23.5
		c-7.2-19.3-12.7-39.3-16.4-59.6c-3.7-20.3-5.5-40.9-5.5-61.6c0-20.6,1.9-41.3,5.5-61.6c3.7-20.3,9.2-40.3,16.4-59.6L172.3,425
		 M851.7,425v242.4h23.5c7.2-19.3,12.7-39.3,16.4-59.6c3.7-20.3,5.5-40.9,5.5-61.6c0-20.6-1.9-41.3-5.5-61.6
		c-3.7-20.3-9.2-40.3-16.4-59.6L851.7,425"/>
	<path class="st0" d="M199.9,410.4v270.4l-99.7-26.5L100,654c-7.6-7.1-12.6-16.7-14.2-27l-12.2-81.1l12.2-83.6
		c1.6-10.8,7.8-20.5,17.1-26.3L199.9,410.4"/>
	<path class="st1" d="M199.9,410.4v270.4l-99.7-26.5L100,654c-7.6-7.1-12.6-16.7-14.2-27l-12.2-81.1l12.2-83.6
		c1.6-10.8,7.8-20.5,17.1-26.3L199.9,410.4"/>
	<path class="st0" d="M824.1,410.4v270.4l99.7-26.5l0.2-0.2c7.6-7.1,12.6-16.7,14.2-27l12.2-81.1l-12.2-83.6
		c-1.6-10.8-7.8-20.5-17.1-26.3L824.1,410.4"/>
	<path class="st1" d="M824.1,410.4v270.4l99.7-26.5l0.2-0.2c7.6-7.1,12.6-16.7,14.2-27l12.2-81.1l-12.2-83.6
		c-1.6-10.8-7.8-20.5-17.1-26.3L824.1,410.4"/>
	<rect x="199.9" y="410.4" class="st0" width="624.1" height="270.4"/>
	<rect x="199.9" y="410.4" class="st1" width="624.1" height="270.4"/>
	<polyline class="st0" points="681.2,998.3 651.9,1014.8 369.8,1014.8 340.5,998.3 254.4,937.9 248.9,915.9 240.4,780.4 
		221.5,780.4 216,765.7 214.1,644.8 205,639.7 205,419.5 219.6,410.3 221.5,395.7 252.6,366.4 261.4,235 324,174 336.9,71.5 
		362.5,34.8 375.3,34.8 378,9.2 643.7,9.2 646.4,34.8 659.3,34.8 684.9,71.5 697.7,174 760.4,235 769.2,366.4 800.3,395.7 
		802.1,410.3 816.8,419.5 816.8,639.7 807.6,644.8 805.8,765.7 800.3,780.4 781.4,780.4 772.8,915.9 767.3,937.9 681.2,998.3 	"/>
	<polygon class="st1" points="681.2,998.3 651.9,1014.8 369.8,1014.8 340.5,998.3 254.4,937.9 248.9,915.9 240.4,780.4 221.5,780.4 
		216,765.7 214.1,644.8 205,639.7 205,419.5 219.6,410.3 221.5,395.7 252.6,366.4 261.4,235 324,174 336.9,71.5 362.5,34.8 
		375.3,34.8 378,9.2 643.7,9.2 646.4,34.8 659.3,34.8 684.9,71.5 697.7,174 760.4,235 769.2,366.4 800.3,395.7 802.1,410.3 
		816.8,419.5 816.8,639.7 807.6,644.8 805.8,765.7 800.3,780.4 781.4,780.4 772.8,915.9 767.3,937.9 681.2,998.3 	"/>
	<path class="st0" d="M510.9,34.8H396.3l-11.8,159.4L316.7,251l-7.3,115.4l44,56.8h-45.8l-9.2,14.7l-14.5,193.3
		c-0.1,1.8-0.2,3.6-0.1,5.4l12.7,299.5l42.1,31.1l172.2,9.2"/>
	<path class="st1" d="M510.9,34.8H396.3l-11.8,159.4L316.7,251l-7.3,115.4l44,56.8h-45.8l-9.2,14.7l-14.5,193.3
		c-0.1,1.8-0.2,3.6-0.1,5.4l12.7,299.5l42.1,31.1l172.2,9.2"/>
	<path class="st0" d="M510.9,34.8h115.4l11,159.4L705,251l7.3,115.4l-44,56.8h45.8l9.2,14.7l14.5,193.3c0.1,1.8,0.2,3.6,0.1,5.4
		l-12.7,299.5l-42.1,31.1l-172.2,9.2"/>
	<path class="st1" d="M510.9,34.8h115.4l11,159.4L705,251l7.3,115.4l-44,56.8h45.8l9.2,14.7l14.5,193.3c0.1,1.8,0.2,3.6,0.1,5.4
		l-12.7,299.5l-42.1,31.1l-172.2,9.2 M375.3,34.8h271.1 M333.2,100.8h355.4 M384.5,194.2h256.9"/>
	<path class="st0" d="M664,423.2v53.1c-12.6-1.8-25.2-3.6-37.9-5.2c-12.6-1.6-25.3-3.1-38-4.5c-12.7-1.4-25.4-2.6-38.1-3.8
		c-12.7-1.1-25.4-2.2-38.1-3.1c-12.7,0.9-25.4,1.9-38.1,3.1c-12.7,1.1-25.4,2.4-38.1,3.8c-12.7,1.4-25.3,2.9-38,4.5
		c-12.6,1.6-25.3,3.3-37.9,5.2v-53.1c-0.7-15.1-1-30.3-1-45.4c0-15.2,0.4-30.3,1.2-45.4c0.8-15.1,1.9-30.3,3.4-45.3
		c1.5-15.1,3.3-30.1,5.6-45.1c11.2-5.2,22.7-9.8,34.3-14c11.6-4.1,23.5-7.8,35.4-10.8c12-3.1,24.1-5.6,36.3-7.6
		c12.2-2,24.5-3.4,36.8-4.3c12.3,0.9,24.6,2.3,36.8,4.3c12.2,2,24.3,4.5,36.3,7.6c12,3.1,23.8,6.7,35.5,10.8
		c11.6,4.1,23.1,8.8,34.3,14c2.2,15,4.1,30,5.6,45.1c1.5,15.1,2.6,30.2,3.4,45.3c0.8,15.1,1.2,30.3,1.2,45.4
		C665.1,392.9,664.7,408,664,423.2"/>
	<path class="st1" d="M664,423.2v53.1c-12.6-1.8-25.2-3.6-37.9-5.2c-12.6-1.6-25.3-3.1-38-4.5c-12.7-1.4-25.4-2.6-38.1-3.8
		c-12.7-1.1-25.4-2.2-38.1-3.1c-12.7,0.9-25.4,1.9-38.1,3.1c-12.7,1.1-25.4,2.4-38.1,3.8c-12.7,1.4-25.3,2.9-38,4.5
		c-12.6,1.6-25.3,3.3-37.9,5.2v-53.1c-0.7-15.1-1-30.3-1-45.4c0-15.2,0.4-30.3,1.2-45.4c0.8-15.1,1.9-30.3,3.4-45.3
		c1.5-15.1,3.3-30.1,5.6-45.1c11.2-5.2,22.7-9.8,34.3-14c11.6-4.1,23.5-7.8,35.4-10.8c12-3.1,24.1-5.6,36.3-7.6
		c12.2-2,24.5-3.4,36.8-4.3c12.3,0.9,24.6,2.3,36.8,4.3c12.2,2,24.3,4.5,36.3,7.6c12,3.1,23.8,6.7,35.5,10.8
		c11.6,4.1,23.1,8.8,34.3,14c2.2,15,4.1,30,5.6,45.1c1.5,15.1,2.6,30.2,3.4,45.3c0.8,15.1,1.2,30.3,1.2,45.4
		C665.1,392.9,664.7,408,664,423.2"/>
	<rect x="266.7" y="495.2" class="st2" width="488.3" height="275.4"/>
	<path class="st3" d="M310.9,581.7v-37.8l12.8,37.8h5.3l12.9-37.2v37.2h5.7v-44.4h-7.9l-10.6,30.9c-1.1,3.1-1.9,5.5-2.4,7.1
		c-0.4-1.5-1.2-3.6-2.1-6.6l-10.5-31.4h-8.8v44.4H310.9L310.9,581.7z M358.5,581.7l4.9-13.4h18.6l5.2,13.4h6.7l-18.2-44.4h-6.3
		l-17.1,44.4H358.5L358.5,581.7z M369.9,550.4c1-2.8,1.8-5.6,2.4-8.5c0.7,2.4,1.7,5.5,3.2,9.2l4.6,12.3h-15.1L369.9,550.4
		L369.9,550.4z M425.5,574.6c-2.3,1.9-5.1,2.8-8.4,2.8c-2.7,0-5.2-0.7-7.5-2.1c-2.3-1.4-4-3.5-5.1-6.3c-1.1-2.8-1.7-6.1-1.7-9.9
		c0-2.9,0.5-5.8,1.4-8.5c0.9-2.8,2.5-5,4.8-6.6c2.3-1.6,5.1-2.5,8.6-2.5c3,0,5.4,0.7,7.4,2.2c2,1.5,3.5,3.8,4.5,7.1l5.8-1.4
		c-1.2-4.1-3.3-7.3-6.3-9.5c-3-2.3-6.8-3.4-11.2-3.4c-3.9,0-7.5,0.9-10.8,2.7c-3.3,1.8-5.8,4.4-7.5,7.8c-1.8,3.4-2.7,7.5-2.7,12.1
		c0,4.2,0.8,8.2,2.3,11.9c1.6,3.7,3.8,6.5,6.8,8.5c3,1.9,6.9,2.9,11.7,2.9c4.6,0,8.5-1.3,11.7-3.8c3.2-2.5,5.4-6.2,6.6-11l-5.9-1.5
		C429.4,569.9,427.8,572.7,425.5,574.6L425.5,574.6z M438.5,581.7L438.5,581.7L438.5,581.7z M493.8,581.7v-5.2h-27.3v-15.1h24.6
		v-5.2h-24.6v-13.6h26.2v-5.2h-32.1v44.4H493.8L493.8,581.7z M507.5,581.7v-34.9l23.3,34.9h6v-44.4h-5.6v34.9l-23.3-34.9h-6v44.4
		H507.5L507.5,581.7z M573.8,574.6c-2.3,1.9-5.1,2.8-8.4,2.8c-2.7,0-5.2-0.7-7.5-2.1c-2.3-1.4-4-3.5-5.1-6.3
		c-1.1-2.8-1.7-6.1-1.7-9.9c0-2.9,0.5-5.8,1.4-8.5c0.9-2.8,2.5-5,4.8-6.6c2.3-1.6,5.1-2.5,8.6-2.5c3,0,5.4,0.7,7.4,2.2
		c2,1.5,3.5,3.8,4.5,7.1l5.8-1.4c-1.2-4.1-3.3-7.3-6.3-9.5c-3-2.3-6.8-3.4-11.2-3.4c-3.9,0-7.5,0.9-10.8,2.7
		c-3.3,1.8-5.8,4.4-7.5,7.8c-1.8,3.4-2.7,7.5-2.7,12.1c0,4.2,0.8,8.2,2.3,11.9c1.6,3.7,3.8,6.5,6.8,8.5c3,1.9,6.9,2.9,11.7,2.9
		c4.6,0,8.5-1.3,11.7-3.8c3.2-2.5,5.4-6.2,6.6-11l-5.9-1.5C577.6,569.9,576,572.7,573.8,574.6L573.8,574.6z M592.3,571.2
		c1.7,3.5,4.2,6.3,7.5,8.3c3.3,2,7,3,11.2,3c3.9,0,7.5-0.9,10.8-2.7c3.3-1.8,5.9-4.5,7.7-8.1c1.8-3.6,2.7-7.6,2.7-12.1
		c0-4.4-0.9-8.4-2.6-11.9c-1.7-3.5-4.2-6.2-7.5-8.2c-3.3-2-7-2.9-11.1-2.9c-6.3,0-11.4,2.1-15.3,6.3c-4,4.2-5.9,9.9-5.9,17.3
		C589.7,564,590.6,567.7,592.3,571.2L592.3,571.2z M600.3,545.9c3-2.9,6.6-4.3,10.7-4.3c2.9,0,5.6,0.7,7.9,2.2
		c2.4,1.5,4.1,3.6,5.4,6.3c1.2,2.7,1.8,5.9,1.8,9.5c0,5.7-1.4,10.1-4.3,13.2c-2.9,3.1-6.5,4.7-10.9,4.7c-4.3,0-8-1.5-10.8-4.6
		c-2.9-3.1-4.3-7.3-4.3-12.6C595.8,553.5,597.3,548.7,600.3,545.9L600.3,545.9z M645.7,581.7V562h6.8c1.5,0,2.6,0.1,3.3,0.2
		c0.9,0.2,1.8,0.6,2.7,1.2c0.9,0.6,1.9,1.6,3,3c1.1,1.4,2.5,3.5,4.2,6.1l5.9,9.2h7.4l-7.7-12.1c-1.5-2.4-3.2-4.3-4.9-5.9
		c-0.8-0.7-2-1.5-3.5-2.2c4.3-0.6,7.4-2,9.5-4.1c2-2.2,3.1-4.8,3.1-8c0-2.4-0.6-4.7-1.8-6.7c-1.2-2-2.9-3.4-4.9-4.2
		c-2.1-0.8-5.1-1.2-9-1.2h-19.7v44.4H645.7L645.7,581.7z M645.7,542.2h14.1c3.3,0,5.7,0.7,7.2,2c1.5,1.4,2.3,3.1,2.3,5.2
		c0,1.4-0.4,2.8-1.2,4c-0.8,1.2-1.9,2.1-3.5,2.7c-1.5,0.6-3.6,0.8-6.3,0.8h-12.6V542.2L645.7,542.2z M717.8,581.7v-5.2h-27.3v-15.1
		h24.6v-5.2h-24.6v-13.6h26.2v-5.2h-32.1v44.4H717.8L717.8,581.7z"/>
	<path class="st3" d="M344,653V635h11.4c6.3,0,10.6-1.3,13-3.9c2.4-2.6,3.6-5.8,3.6-9.6c0-2.2-0.4-4.2-1.3-6.1
		c-0.9-1.8-2.1-3.3-3.6-4.3c-1.5-1-3.3-1.7-5.5-2.1c-1.6-0.3-3.8-0.4-6.8-0.4h-16.8V653H344L344,653z M344,613.9h11.4
		c2.7,0,4.5,0.1,5.5,0.4c1.5,0.4,2.8,1.3,3.7,2.6c0.9,1.3,1.4,2.9,1.4,4.8c0,2.6-0.8,4.6-2.4,6c-1.6,1.4-4.3,2.1-8.1,2.1H344V613.9
		L344,613.9z M397.5,647.7c-1.4,1.1-3.1,1.6-5.1,1.6c-2.7,0-4.9-0.9-6.7-2.8c-1.8-1.9-2.8-4.6-3-8.1h24c0-0.6,0-1.1,0-1.5
		c0-5.3-1.4-9.4-4.1-12.4c-2.7-2.9-6.2-4.4-10.5-4.4c-4.4,0-8.1,1.5-10.8,4.5c-2.8,3-4.2,7.2-4.2,12.6c0,5.2,1.4,9.3,4.1,12.2
		c2.8,2.9,6.5,4.3,11.2,4.3c3.7,0,6.8-0.9,9.2-2.7c2.4-1.8,4-4.4,4.9-7.7l-5.6-0.7C400,645,398.9,646.7,397.5,647.7L397.5,647.7z
		 M385.8,627.1c1.7-1.7,3.8-2.5,6.3-2.5c2.8,0,5,1.1,6.8,3.2c1.1,1.4,1.8,3.4,2.1,6.1h-18C383.1,631.1,384.1,628.8,385.8,627.1
		L385.8,627.1z M418.7,653v-16.8c0-2.3,0.3-4.4,0.9-6.4c0.4-1.3,1.1-2.3,2-3c0.9-0.7,2-1.1,3.2-1.1c1.3,0,2.7,0.4,4,1.2l1.9-5.1
		c-1.9-1.2-3.8-1.8-5.6-1.8c-1.3,0-2.4,0.4-3.5,1.1c-1.1,0.7-2.2,2.2-3.5,4.5v-4.9h-4.9V653H418.7L418.7,653z M440.7,653v-27.9h6.3
		v-4.2h-6.3v-3c0-1.9,0.3-3.3,1-4c0.7-0.7,1.9-1.1,3.5-1.1c1,0,2.1,0.1,3.2,0.3l0.8-4.8c-1.9-0.4-3.6-0.5-5.1-0.5
		c-2.4,0-4.2,0.4-5.6,1.3c-1.3,0.9-2.2,2-2.8,3.4c-0.4,1.1-0.6,2.7-0.6,4.8v3.4h-4.8v4.2h4.8V653H440.7L440.7,653z M453.4,649.4
		c2.8,2.9,6.4,4.3,10.9,4.3c2.8,0,5.4-0.7,7.8-2c2.4-1.3,4.2-3.2,5.4-5.5c1.2-2.4,1.9-5.6,1.9-9.8c0-5.1-1.4-9.1-4.2-12
		c-2.8-2.9-6.4-4.3-10.8-4.3c-4,0-7.4,1.2-10.1,3.6c-3.3,2.9-5,7.3-5,13.2C449.2,642.4,450.6,646.6,453.4,649.4L453.4,649.4z
		 M457.5,627.7c1.8-2,4.1-3.1,6.8-3.1c2.7,0,4.9,1,6.7,3.1c1.8,2,2.7,5.1,2.7,9c0,4.2-0.9,7.4-2.7,9.4c-1.8,2.1-4,3.1-6.8,3.1
		c-2.7,0-5-1-6.8-3.1c-1.8-2-2.7-5.1-2.7-9.3S455.7,629.8,457.5,627.7L457.5,627.7z M491.1,653v-16.8c0-2.3,0.3-4.4,0.9-6.4
		c0.4-1.3,1.1-2.3,2-3c0.9-0.7,2-1.1,3.2-1.1c1.3,0,2.7,0.4,4,1.2l1.9-5.1c-1.9-1.2-3.8-1.8-5.6-1.8c-1.3,0-2.4,0.4-3.5,1.1
		c-1.1,0.7-2.2,2.2-3.5,4.5v-4.9h-4.9V653H491.1L491.1,653z M511.9,653v-16.7c0-2.9,0.3-5.2,0.9-6.7c0.6-1.6,1.5-2.7,2.8-3.5
		c1.3-0.8,2.7-1.2,4.3-1.2c2,0,3.5,0.6,4.4,1.8c0.9,1.2,1.3,3,1.3,5.5V653h5.5v-18.7c0-3.3,0.7-5.7,2.2-7.2c1.5-1.5,3.4-2.3,5.6-2.3
		c1.3,0,2.3,0.3,3.3,0.9c0.9,0.6,1.6,1.4,1.9,2.3c0.4,1,0.5,2.5,0.5,4.7V653h5.4V631c0-3.7-0.9-6.4-2.6-8.2
		c-1.7-1.8-4.2-2.7-7.4-2.7c-4.1,0-7.4,1.9-9.9,5.6c-0.6-1.8-1.7-3.2-3.2-4.1c-1.5-1-3.5-1.5-5.9-1.5c-2.1,0-4,0.5-5.7,1.4
		c-1.7,1-3,2.2-4,3.8v-4.5h-4.9V653H511.9L511.9,653z M580.2,653h5.7c-0.7-1.2-1.1-2.5-1.4-3.9c-0.2-1.3-0.3-4.5-0.3-9.6v-7.3
		c0-2.4-0.1-4.1-0.3-5c-0.3-1.5-0.9-2.7-1.7-3.7c-0.8-1-2.1-1.8-3.8-2.4c-1.7-0.6-3.9-1-6.7-1c-2.8,0-5.2,0.4-7.3,1.1
		c-2.1,0.8-3.7,1.8-4.8,3.2c-1.1,1.4-1.9,3.2-2.4,5.5l5.3,0.7c0.6-2.3,1.5-3.9,2.7-4.8c1.2-0.9,3.1-1.3,5.7-1.3
		c2.7,0,4.8,0.6,6.2,1.8c1,0.9,1.5,2.5,1.5,4.7c0,0.2,0,0.7,0,1.4c-2.1,0.7-5.3,1.4-9.7,1.9c-2.2,0.3-3.8,0.5-4.8,0.8
		c-1.5,0.4-2.8,1-3.9,1.8c-1.2,0.8-2.1,1.8-2.8,3.1c-0.7,1.3-1.1,2.7-1.1,4.3c0,2.7,0.9,4.9,2.8,6.6c1.9,1.7,4.6,2.6,8.1,2.6
		c2.1,0,4.1-0.4,6-1.1c1.9-0.7,3.8-1.9,5.8-3.6C579.2,650.6,579.6,651.9,580.2,653L580.2,653L580.2,653z M578.6,638.9
		c0,2.4-0.3,4.2-0.9,5.5c-0.8,1.6-2,2.9-3.6,3.8c-1.6,0.9-3.5,1.4-5.6,1.4c-2.1,0-3.7-0.5-4.8-1.5c-1.1-1-1.7-2.2-1.7-3.6
		c0-0.9,0.3-1.8,0.8-2.6c0.5-0.8,1.2-1.4,2.2-1.8c0.9-0.4,2.5-0.8,4.8-1.1c4-0.6,6.9-1.3,8.9-2.1V638.9L578.6,638.9z M598,653v-17.6
		c0-4.1,0.8-6.9,2.5-8.4c1.7-1.5,3.7-2.2,6-2.2c1.5,0,2.7,0.3,3.8,1c1.1,0.7,1.8,1.5,2.3,2.6c0.4,1.1,0.6,2.8,0.6,5V653h5.5v-19.8
		c0-2.5-0.1-4.3-0.3-5.3c-0.3-1.6-0.9-2.9-1.7-4c-0.8-1.1-2-2-3.7-2.7c-1.6-0.7-3.4-1-5.3-1c-4.5,0-7.9,1.8-10.2,5.3v-4.6h-4.9V653
		H598L598,653z M645.3,647.3c-1.4,1.3-3.2,2-5.4,2c-2.7,0-4.8-1-6.5-2.9c-1.7-2-2.5-5.1-2.5-9.4c0-4.3,0.9-7.4,2.6-9.3
		c1.7-2,3.9-3,6.7-3c1.8,0,3.4,0.5,4.6,1.6c1.3,1.1,2.2,2.7,2.7,4.9l5.3-0.8c-0.6-3.3-2-5.8-4.3-7.5c-2.2-1.8-5.1-2.7-8.6-2.7
		c-2.8,0-5.3,0.7-7.7,2c-2.4,1.3-4.1,3.3-5.3,5.9c-1.2,2.6-1.7,5.6-1.7,9.1c0,5.4,1.3,9.5,4,12.4c2.7,2.9,6.2,4.3,10.6,4.3
		c3.5,0,6.5-1,8.9-3.1c2.4-2.1,3.9-5,4.5-8.7l-5.4-0.7C647.7,644,646.8,646,645.3,647.3L645.3,647.3z M676.8,647.7
		c-1.4,1.1-3.1,1.6-5.1,1.6c-2.7,0-4.9-0.9-6.7-2.8c-1.8-1.9-2.8-4.6-3-8.1h24c0-0.6,0-1.1,0-1.5c0-5.3-1.4-9.4-4.1-12.4
		c-2.7-2.9-6.2-4.4-10.5-4.4c-4.4,0-8.1,1.5-10.8,4.5c-2.8,3-4.2,7.2-4.2,12.6c0,5.2,1.4,9.3,4.1,12.2c2.8,2.9,6.5,4.3,11.2,4.3
		c3.7,0,6.8-0.9,9.2-2.7c2.4-1.8,4-4.4,4.9-7.7l-5.6-0.7C679.3,645,678.2,646.7,676.8,647.7L676.8,647.7z M665.1,627.1
		c1.7-1.7,3.8-2.5,6.3-2.5c2.8,0,5,1.1,6.8,3.2c1.1,1.4,1.8,3.4,2.1,6.1h-18C662.4,631.1,663.3,628.8,665.1,627.1L665.1,627.1z"/>
	<path class="st3" d="M480.7,717.3c-2.3,1.9-5.1,2.8-8.4,2.8c-2.7,0-5.2-0.7-7.5-2.1c-2.3-1.4-4-3.5-5.1-6.3
		c-1.1-2.8-1.7-6.1-1.7-9.9c0-2.9,0.5-5.8,1.4-8.5c0.9-2.8,2.5-5,4.8-6.6c2.3-1.6,5.1-2.5,8.6-2.5c3,0,5.4,0.7,7.4,2.2
		c2,1.5,3.5,3.8,4.5,7.1l5.8-1.4c-1.2-4.1-3.3-7.3-6.3-9.5c-3-2.3-6.8-3.4-11.2-3.4c-3.9,0-7.5,0.9-10.8,2.7
		c-3.3,1.8-5.8,4.4-7.5,7.8c-1.8,3.4-2.7,7.5-2.7,12.1c0,4.2,0.8,8.2,2.3,11.9c1.6,3.7,3.8,6.5,6.8,8.5c3,1.9,6.9,2.9,11.7,2.9
		c4.6,0,8.5-1.3,11.7-3.8c3.2-2.5,5.4-6.2,6.6-11l-5.9-1.5C484.5,712.6,483,715.4,480.7,717.3L480.7,717.3z M525.9,724.4v-5.2h-21.9
		V680h-5.9v44.4H525.9L525.9,724.4z M549,724.4c2.7,0,5.1-0.3,7.1-0.8c2.1-0.5,3.8-1.2,5.3-2.2c1.5-1,2.8-2.3,4-4
		c1.2-1.7,2.2-3.9,3-6.5c0.8-2.6,1.2-5.6,1.2-9c0-4-0.6-7.5-1.7-10.6c-1.2-3.1-2.9-5.6-5.3-7.6c-1.8-1.5-4-2.6-6.5-3.2
		c-1.8-0.4-4.5-0.6-7.9-0.6h-15.3v44.4H549L549,724.4z M538.8,685.2h9.3c3.5,0,6,0.3,7.6,0.9c2.2,0.8,4,2.5,5.6,5
		c1.5,2.5,2.3,6.1,2.3,10.7c0,3.4-0.4,6.2-1.2,8.6c-0.8,2.4-1.9,4.2-3.3,5.6c-1,1-2.3,1.8-4,2.3c-1.7,0.5-4,0.8-6.9,0.8h-9.5V685.2
		L538.8,685.2z"/>
</g>
</svg>
