<?xml version="1.0" encoding="utf-8"?>
<!-- Generator: Adobe Illustrator 25.0.1, SVG Export Plug-In . SVG Version: 6.00 Build 0)  -->
<svg version="1.1" xmlns="http://www.w3.org/2000/svg" xmlns:xlink="http://www.w3.org/1999/xlink" x="0px" y="0px"
	 viewBox="0 0 1024 1024" style="enable-background:new 0 0 1024 1024;" xml:space="preserve">
<style type="text/css">
	.st0{fill-rule:evenodd;clip-rule:evenodd;fill:#CCCCCC;stroke:#000000;stroke-miterlimit:10;}
	.st1{fill:none;stroke:#000000;stroke-linecap:round;stroke-linejoin:round;stroke-miterlimit:10;}
	.st2{fill-rule:evenodd;clip-rule:evenodd;fill:#FFFFFF;stroke:#000000;stroke-miterlimit:10;}
	.st3{display:none;}
	.st4{display:inline;}
	.st5{fill-rule:evenodd;clip-rule:evenodd;fill:#CCCCCC;stroke:#1D1D1B;stroke-width:1.85;stroke-miterlimit:10;}
	.st6{fill:none;stroke:#1D1D1B;stroke-width:1.85;stroke-linecap:round;stroke-linejoin:round;}
	.st7{display:inline;fill-rule:evenodd;clip-rule:evenodd;fill:#CCCCCC;stroke:#1D1D1B;stroke-width:1.85;stroke-miterlimit:10;}
	.st8{display:inline;fill:none;stroke:#1D1D1B;stroke-width:1.85;stroke-linecap:round;stroke-linejoin:round;}
</style>
<g id="MAC_Aura_XB_-_Thumbnail">
	<g>
		<polyline class="st0" points="706.7,779.6 314.8,779.6 180.2,665.9 54.4,666.7 20.3,643 9.2,520.7 20.7,397.3 50.2,374.8 
			154.9,374.8 174.7,244.4 849.4,244.4 867,374.4 973.8,374.4 1002.6,396.3 1014.8,513 1003.1,643.4 971.8,666 843,666.7 708.7,779 
					"/>
		<path class="st1" d="M706.7,779.6H314.8L180.2,665.9l-125.8,0.8L20.3,643L9.2,520.7l11.5-123.4l29.4-22.4h104.7l19.8-130.4h674.7
			l17.6,130h106.8l28.8,21.9l12.2,116.7l-11.6,130.4L971.8,666L843,666.7L708.7,779 M847.5,520.7l-0.4-10.7 M862.2,389l4.1-14.3
			 M638.2,537h190.6 M828.8,537l0.6,0.8 M829.4,537.8l0.6,0.1 M830.1,537.9h17.2 M645.7,776.3l-3.5,3.1 M635.5,779.5l3.6-3
			 M658.9,766.4l2.4-0.4 M661.4,766l2.4-0.1 M669.3,773.9l-1.1,2.6 M668.2,776.5l-1.8,3 M603.6,734.7l12.5,16.3 M616.1,751l-9.8,3.9
			 M617.4,709.4L617.4,709.4 M617.4,709.4l1.2,0.3 M843.7,541.2l3.6-3.3 M847.2,537.9l-0.2-17.2 M666.9,776.8l-0.1,0.1 M616.1,751
			l1.3-0.5 M617.4,750.4l1.3-1.1 M619.7,747l-11.4-14.8 M608.3,710.4l-0.1,21.8 M619.4,748.3l0.2-1.3 M619.7,747l0.1-17.2
			 M619.7,729.9l-0.1-18.6 M619.7,711.2l-0.3-0.9 M619.4,710.3l-0.7-0.5 M667,776.3l0.1-0.2 M666.9,776.9l-0.5,2.7 M667,776.7
			l-0.1,0.3 M666.9,776.9l0.3-1 M667.2,775.9l-0.1,0.2 M619.4,748.3l-0.7,1"/>
		<polyline class="st0" points="667,776.7 667.4,774.3 667.3,772.3 666.7,770.8 665.7,769.8 662.6,768.8 658.5,769.4 		"/>
		<polyline class="st1" points="667,776.7 667.4,774.3 667.3,772.3 666.7,770.8 665.7,769.8 662.6,768.8 658.5,769.4 		"/>
		<polyline class="st0" points="663.8,765.9 667.4,766.7 669.4,768.7 669.9,771 669.3,773.9 		"/>
		<polyline class="st1" points="663.8,765.9 667.4,766.7 669.4,768.7 669.9,771 669.3,773.9 		"/>
		<path class="st0" d="M509.7,512.4l-107,238c64.4,29,138,30.6,203.6,4.4L509.7,512.4"/>
		<path class="st1" d="M402.7,750.4L402.7,750.4c64.4,29,138,30.6,203.6,4.4 M160.4,389l-4.1-14.3 M384.4,537H193.8 M193.8,537
			l-0.6,0.8 M193.2,537.8l-0.6,0.1 M192.5,537.9h-17.2 M178.9,541.2l-3.6-3.3 M416.4,734.7L404,751 M402.6,709.5l-1.2,0.3 M404,751
			l-1.3-0.5 M402.7,750.5l-1.3-1.1 M400.4,747.1l11.4-14.9 M411.6,710.4l0.1,21.9 M400.7,748.4l-0.2-1.3 M400.4,747.1l-0.1-17.2
			 M400.3,729.9l0-18.6 M400.3,711.3l0.3-0.9 M400.6,710.3l0.7-0.5 M400.7,748.4l0.7,1 M412,710.4L412,710.4 M375.8,776.3l3.5,3.1
			 M386,779.5l-3.6-3 M362.5,766.4l-2.4-0.4 M360.1,766l-2.4-0.1 M352.2,773.9l1.1,2.6 M353.2,776.5l1.8,3 M354.6,776.8l0.1,0.1
			 M354.5,776.3l-0.1-0.2 M354.6,776.9l0.5,2.7 M354.5,776.7l0.1,0.3 M354.6,776.9l-0.3-1 M354.3,775.9l0.1,0.2"/>
		<polyline class="st0" points="354.5,776.7 354.1,774.3 354.2,772.3 354.8,770.8 355.8,769.8 358.9,768.8 363,769.4 		"/>
		<polyline class="st1" points="354.5,776.7 354.1,774.3 354.2,772.3 354.8,770.8 355.8,769.8 358.9,768.8 363,769.4 		"/>
		<polyline class="st0" points="357.7,765.9 354.1,766.7 352.1,768.7 351.6,771 352.2,773.9 		"/>
		<polyline class="st1" points="357.7,765.9 354.1,766.7 352.1,768.7 351.6,771 352.2,773.9 		"/>
		<polyline class="st0" points="1003.1,643.4 980.1,513 1002.6,396.3 		"/>
		<polyline class="st1" points="1003.1,643.4 980.1,513 1002.6,396.3 		"/>
		<polyline class="st0" points="20.3,643 41.9,520.7 20.7,397.3 		"/>
		<path class="st1" d="M20.3,643l21.6-122.4L20.7,397.3 M867,374.4v292.2 M154.9,374.8V666 M511.2,681.4h295.5"/>
		<polyline class="st0" points="806.8,681.4 823.8,664.9 838.8,615.6 		"/>
		<polyline class="st1" points="806.8,681.4 823.8,664.9 838.8,615.6 		"/>
		<polyline class="st0" points="788.1,681.5 805.2,664.3 829,541.2 828.6,541.9 828.8,541.6 		"/>
		<polyline class="st1" points="788.1,681.5 805.2,664.3 829,541.2 828.6,541.9 828.8,541.6 		"/>
		<polyline class="st0" points="760.6,681.5 777.7,664.4 801.5,541.3 801.1,542 801.3,541.6 		"/>
		<polyline class="st1" points="760.6,681.5 777.7,664.4 801.5,541.3 801.1,542 801.3,541.6 		"/>
		<polyline class="st0" points="729.9,681.6 747.1,664.5 770.8,541.3 770.5,542 770.7,541.7 		"/>
		<polyline class="st1" points="729.9,681.6 747.1,664.5 770.8,541.3 770.5,542 770.7,541.7 		"/>
		<polyline class="st0" points="689.7,681.7 706.8,664.5 730.6,541.4 730.2,542.1 730.4,541.8 		"/>
		<polyline class="st1" points="689.7,681.7 706.8,664.5 730.6,541.4 730.2,542.1 730.4,541.8 		"/>
		<polyline class="st0" points="644.5,681.7 661.6,664.6 685.4,541.5 685,542.2 685.2,541.8 		"/>
		<polyline class="st1" points="644.5,681.7 661.6,664.6 685.4,541.5 685,542.2 685.2,541.8 		"/>
		<polyline class="st0" points="594.6,681.8 611.7,664.7 635.5,541.5 635.1,542.2 635.3,541.9 		"/>
		<polyline class="st1" points="594.6,681.8 611.7,664.7 635.5,541.5 635.1,542.2 635.3,541.9 		"/>
		<polyline class="st0" points="556.6,681.5 564.1,664.7 573.5,541.2 		"/>
		<polyline class="st1" points="556.6,681.5 564.1,664.7 573.5,541.2 		"/>
		<polyline class="st0" points="511.5,681.3 518.6,541.5 519.2,541.4 518.9,541.4 517.3,541.6 		"/>
		<polyline class="st1" points="511.5,681.3 518.6,541.5 519.2,541.4 518.9,541.4 517.3,541.6 		"/>
		<polyline class="st0" points="821.9,668.4 840.2,662 841.4,616 838.8,615.6 839.3,541.2 829,541.2 		"/>
		<path class="st1" d="M821.9,668.4l18.3-6.4l1.2-46l-2.6-0.4l0.6-74.4H829 M508.1,681.4H212.5"/>
		<polyline class="st0" points="212.5,681.4 195.5,664.9 180.5,615.6 		"/>
		<polyline class="st1" points="212.5,681.4 195.5,664.9 180.5,615.6 		"/>
		<polyline class="st0" points="231.2,681.5 214.1,664.3 190.3,541.2 190.7,541.9 190.5,541.6 		"/>
		<polyline class="st1" points="231.2,681.5 214.1,664.3 190.3,541.2 190.7,541.9 190.5,541.6 		"/>
		<polyline class="st0" points="258.7,681.5 241.6,664.4 217.8,541.3 218.2,542 218,541.6 		"/>
		<polyline class="st1" points="258.7,681.5 241.6,664.4 217.8,541.3 218.2,542 218,541.6 		"/>
		<polyline class="st0" points="289.4,681.6 272.3,664.5 248.5,541.3 248.9,542 248.7,541.7 		"/>
		<polyline class="st1" points="289.4,681.6 272.3,664.5 248.5,541.3 248.9,542 248.7,541.7 		"/>
		<polyline class="st0" points="329.7,681.7 312.5,664.5 288.8,541.4 289.1,542.1 289,541.8 		"/>
		<polyline class="st1" points="329.7,681.7 312.5,664.5 288.8,541.4 289.1,542.1 289,541.8 		"/>
		<polyline class="st0" points="374.8,681.7 357.7,664.6 333.9,541.5 334.3,542.2 334.1,541.8 		"/>
		<polyline class="st1" points="374.8,681.7 357.7,664.6 333.9,541.5 334.3,542.2 334.1,541.8 		"/>
		<polyline class="st0" points="424.7,681.8 407.6,664.7 383.8,541.5 384.2,542.2 384,541.9 		"/>
		<polyline class="st1" points="424.7,681.8 407.6,664.7 383.8,541.5 384.2,542.2 384,541.9 		"/>
		<polyline class="st0" points="462.7,681.5 455.2,664.7 445.9,541.2 		"/>
		<polyline class="st1" points="462.7,681.5 455.2,664.7 445.9,541.2 		"/>
		<polyline class="st0" points="507.8,681.3 500.7,541.5 500.1,541.4 500.4,541.4 502,541.6 		"/>
		<polyline class="st1" points="507.8,681.3 500.7,541.5 500.1,541.4 500.4,541.4 502,541.6 		"/>
		<polyline class="st0" points="197.5,668.4 179.1,662 177.9,616 180.5,615.6 180,541.2 190.3,541.2 		"/>
		<path class="st1" d="M197.5,668.4l-18.3-6.4l-1.2-46l2.6-0.4l-0.6-74.4h10.3 M843.7,541.2H178.9 M862.2,389l-15,121"/>
		<polyline class="st0" points="828.8,537 820.3,374.4 806.6,244.4 		"/>
		<path class="st1" d="M828.8,537l-8.5-162.6l-13.7-130 M175.1,520.7l0.4-10.7 M175.4,537.9l0.2-17.2 M160.4,389l15,121"/>
		<polyline class="st0" points="193.8,537 202.3,374.4 216,244.4 		"/>
		<polyline class="st1" points="193.8,537 202.3,374.4 216,244.4 		"/>
		<polyline class="st0" points="617.4,709.4 608.3,710.4 411.6,710.4 402.6,709.5 		"/>
		<path class="st1" d="M617.4,709.4l-9.1,0.9l-196.7,0l-9.1-0.9 M658.5,769.4l-12.8,6.9 M658.9,766.4l-19.8,10.1 M382.4,776.5
			l-19.8-10.1 M375.8,776.3l-12.8-6.9"/>
		<rect x="198.1" y="333.1" class="st2" width="626.5" height="285.7"/>
		<rect x="198.1" y="333.1" class="st1" width="626.5" height="285.7"/>
		<path d="M398.2,446.9v-67.3l16.9,67.3h16.6l17-67.3v67.3h16v-85.5h-25.9l-15.3,58.3L408,361.4h-25.8v85.5H398.2L398.2,446.9z
			 M524.7,361.4h-18.3l-33.3,85.5h18.3l7.1-19.4h34.2l7.5,19.4H559L524.7,361.4L524.7,361.4z M503.8,413l11.5-31.7l11.8,31.7H503.8
			L503.8,413z M615.7,429.2c-3.3,2.9-7.3,4.4-11.8,4.4c-6.2,0-11.3-2.3-15.2-6.9c-3.9-4.6-5.8-12.3-5.8-23.1c0-10.2,2-17.6,5.9-22.1
			c3.9-4.5,9.1-6.8,15.4-6.8c4.6,0,8.5,1.3,11.7,3.8s5.3,6.1,6.3,10.5l17.1-4.1c-1.9-6.8-4.9-12.1-8.7-15.7
			c-6.5-6.2-15-9.3-25.5-9.3c-12,0-21.6,3.9-29,11.8c-7.3,7.9-11,18.9-11,33.2c0,13.5,3.7,24.1,11,31.8c7.3,7.8,16.6,11.6,28,11.6
			c9.2,0,16.7-2.3,22.7-6.8c6-4.5,10.2-11.5,12.8-20.8l-16.7-5.3C621.4,421.7,619,426.3,615.7,429.2L615.7,429.2z"/>
		<path d="M289.2,502.3H271l-33.3,85.5H256l7.1-19.4h34.2l7.5,19.4h18.8L289.2,502.3L289.2,502.3z M268.3,554l11.5-31.7l11.8,31.7
			H268.3L268.3,554z M332.5,547.9c0,9.6,0.6,16.8,1.7,21.7c0.8,3.3,2.4,6.5,4.8,9.5c2.4,3,5.8,5.5,10,7.3c4.2,1.9,10.4,2.8,18.6,2.8
			c6.8,0,12.2-0.9,16.4-2.6c4.2-1.7,7.6-4.1,10.1-7s4.2-6.5,5.2-10.7c0.9-4.2,1.4-11.5,1.4-21.8v-44.9h-17.3v47.3
			c0,6.8-0.3,11.6-0.8,14.5c-0.5,2.9-2,5.4-4.5,7.4c-2.5,2-6.2,3-11.1,3c-4.8,0-8.6-1.1-11.4-3.2c-2.8-2.1-4.5-4.9-5.3-8.4
			c-0.4-2.2-0.6-6.9-0.6-14.3v-46.3h-17.3V547.9L332.5,547.9z M436.2,587.8v-35.7h3.5c4,0,6.9,0.3,8.7,1c1.8,0.6,3.6,1.8,5.2,3.6
			c1.6,1.7,4.7,5.9,9.1,12.6l12.5,18.6h20.6l-10.4-16.7c-4.1-6.6-7.4-11.3-9.8-13.9c-2.4-2.6-5.5-5-9.2-7.2
			c7.5-1.1,13.1-3.7,16.9-7.9c3.8-4.2,5.7-9.5,5.7-15.9c0-5.1-1.2-9.5-3.7-13.5c-2.5-3.9-5.8-6.7-9.9-8.2
			c-4.1-1.5-10.8-2.3-19.9-2.3h-36.3v85.5H436.2L436.2,587.8z M436.2,516.8h13.5c7,0,11.2,0.1,12.6,0.3c2.8,0.5,5,1.6,6.5,3.4
			c1.5,1.8,2.3,4.1,2.3,7c0,2.6-0.6,4.7-1.7,6.4c-1.2,1.7-2.8,2.9-4.8,3.6c-2.1,0.7-7.2,1-15.5,1h-12.8V516.8L436.2,516.8z
			 M548,502.3h-18.3l-33.3,85.5h18.3l7.1-19.4h34.2l7.5,19.4h18.8L548,502.3L548,502.3z M527.1,554l11.5-31.7l11.8,31.7H527.1
			L527.1,554z M636.5,587.8l19-29.6l19,29.6h20.8l-29.2-44l26.6-41.5h-20l-16.8,27.5l-17.1-27.5h-20.2l26.5,40.9l-29.2,44.6H636.5
			L636.5,587.8z M704.3,587.8h29.1c11-0.1,17.9-0.3,20.8-0.6c4.6-0.5,8.4-1.9,11.6-4.1c3.1-2.2,5.6-5.1,7.4-8.8s2.7-7.5,2.7-11.3
			c0-4.9-1.4-9.2-4.2-12.9c-2.8-3.7-6.8-6.2-12-7.8c3.7-1.7,6.6-4.2,8.8-7.5c2.2-3.3,3.2-7,3.2-11c0-3.7-0.9-7-2.6-10
			c-1.7-3-3.9-5.4-6.6-7.1c-2.6-1.8-5.6-3-8.9-3.5c-3.3-0.6-8.4-0.8-15.1-0.8h-34.2V587.8L704.3,587.8z M731.4,516.5
			c8.1,0,13,0.1,14.8,0.3c2.9,0.3,5,1.4,6.5,3c1.5,1.7,2.2,3.8,2.2,6.4c0,2.8-0.8,5-2.5,6.7s-4,2.7-7,3.1c-1.6,0.2-5.8,0.3-12.5,0.3
			h-11.3v-19.8H731.4L731.4,516.5z M735.5,550.5c7.9,0,13,0.4,15.3,1.2c2.4,0.8,4.1,2.1,5.4,3.9c1.2,1.8,1.9,4,1.9,6.5
			c0,3-0.8,5.5-2.4,7.3c-1.6,1.8-3.7,2.9-6.3,3.4c-1.7,0.3-5.6,0.5-11.8,0.5h-16v-22.9H735.5L735.5,550.5z"/>
	</g>
</g>
<g id="ERA_600_Profile_-_Parts" class="st3">
	<g id="BASE" class="st4">
		<path class="st5" d="M822.6,412.1l-12.9-64.6l16.1,7.2l43.2,40.8l8.2,17.3c3.3,10.9,6.2,22,8.6,33.1s4.5,22.4,6.1,33.7
			c1.6,11.3,2.8,22.7,3.5,34.1s1,22.8,0.9,34.2c0.1,11.4-0.2,22.8-0.9,34.2s-1.9,22.8-3.5,34.1c-1.6,11.3-3.6,22.6-6.1,33.7
			c-2.4,11.1-5.3,22.2-8.6,33.2l-8.2,17.3l-43.2,40.8l-16,7.1l12.9-64.4l-21.7,108l-20.1,16.3L512,816.1l-268.8-7.8L223.1,792
			l-21.6-108l12.9,64.4l-16.1-7.1l-43.2-40.8l-8.2-17.3c-3.3-10.9-6.2-22-8.6-33.2s-4.5-22.4-6.1-33.7c-1.6-11.3-2.8-22.7-3.5-34.1
			c-0.7-11.4-1-22.8-0.9-34.2c-0.1-11.4,0.2-22.8,0.9-34.2c0.7-11.4,1.9-22.8,3.5-34.1c1.6-11.3,3.6-22.5,6.1-33.7
			c2.4-11.2,5.3-22.2,8.6-33.1l8.2-17.3l43.2-40.8l16.1-7.3l-12.9,64.6l21.7-108l20.1-16.3l268.8-7.8l268.8,7.8l20.1,16.3
			L822.6,412.1 M163.6,547.9L163.6,547.9c0,9.3,0.2,18.6,0.7,27.9s1.3,18.6,2.3,27.8c1,9.2,2.3,18.5,3.9,27.6s3.4,18.3,5.5,27.3
			c1.4,6.2,4.6,11.9,9.1,16.4c2.3,2.2,4.8,4.1,7.6,5.6c2.8,1.5,5.8,2.6,8.9,3.3l0,0l29.9-5.5l9.8-13.6L240.5,548l0.7-116.8
			l-9.8-13.6l-29.9-5.5l0,0c-12.7,2.8-22.6,12.6-25.6,25.2c-2.1,9.1-3.9,18.2-5.5,27.4c-1.6,9.2-2.9,18.4-3.9,27.6
			c-1,9.2-1.8,18.5-2.3,27.8C163.7,529.4,163.5,538.7,163.6,547.9 M822.6,683.9L822.6,683.9c3.1-0.7,6.1-1.8,8.9-3.3
			c2.8-1.5,5.3-3.4,7.6-5.6c4.5-4.5,7.7-10.1,9.1-16.3c2.1-9.1,3.9-18.2,5.5-27.3c1.6-9.2,2.9-18.4,3.9-27.6
			c1-9.2,1.8-18.5,2.3-27.8c0.5-9.3,0.7-18.6,0.7-27.9l0,0c0-9.3-0.2-18.6-0.7-27.9c-0.5-9.3-1.3-18.6-2.3-27.8
			c-1-9.2-2.3-18.5-3.9-27.6s-3.4-18.3-5.5-27.4c-2.9-12.6-12.9-22.5-25.6-25.2l0,0l-29.9,5.5l-9.8,13.6l0.7,116.8l-0.7,116.8
			l9.8,13.6L822.6,683.9L822.6,683.9"/>
		<path class="st6" d="M822.6,412.1l-12.9-64.6l16.1,7.2l43.2,40.8l8.2,17.3c3.3,10.9,6.2,22,8.6,33.1s4.5,22.4,6.1,33.7
			c1.6,11.3,2.8,22.7,3.5,34.1s1,22.8,0.9,34.2c0.1,11.4-0.2,22.8-0.9,34.2s-1.9,22.8-3.5,34.1c-1.6,11.3-3.6,22.6-6.1,33.7
			c-2.4,11.1-5.3,22.2-8.6,33.2l-8.2,17.3l-43.2,40.8l-16,7.1l12.9-64.4l-21.7,108l-20.1,16.3L512,816.1l-268.8-7.8L223.1,792
			l-21.6-108l12.9,64.4l-16.1-7.1l-43.2-40.8l-8.2-17.3c-3.3-10.9-6.2-22-8.6-33.2s-4.5-22.4-6.1-33.7c-1.6-11.3-2.8-22.7-3.5-34.1
			c-0.7-11.4-1-22.8-0.9-34.2c-0.1-11.4,0.2-22.8,0.9-34.2c0.7-11.4,1.9-22.8,3.5-34.1c1.6-11.3,3.6-22.5,6.1-33.7
			c2.4-11.2,5.3-22.2,8.6-33.1l8.2-17.3l43.2-40.8l16.1-7.3l-12.9,64.6l21.7-108l20.1-16.3l268.8-7.8l268.8,7.8l20.1,16.3
			L822.6,412.1 M163.6,547.9L163.6,547.9c0,9.3,0.2,18.6,0.7,27.9s1.3,18.6,2.3,27.8c1,9.2,2.3,18.5,3.9,27.6s3.4,18.3,5.5,27.3
			c1.4,6.2,4.6,11.9,9.1,16.4c2.3,2.2,4.8,4.1,7.6,5.6c2.8,1.5,5.8,2.6,8.9,3.3l0,0l29.9-5.5l9.8-13.6L240.5,548l0.7-116.8
			l-9.8-13.6l-29.9-5.5l0,0c-12.7,2.8-22.6,12.6-25.6,25.2c-2.1,9.1-3.9,18.2-5.5,27.4c-1.6,9.2-2.9,18.4-3.9,27.6
			c-1,9.2-1.8,18.5-2.3,27.8C163.7,529.4,163.5,538.7,163.6,547.9 M822.6,683.9L822.6,683.9c3.1-0.7,6.1-1.8,8.9-3.3
			c2.8-1.5,5.3-3.4,7.6-5.6c4.5-4.5,7.7-10.1,9.1-16.3c2.1-9.1,3.9-18.2,5.5-27.3c1.6-9.2,2.9-18.4,3.9-27.6
			c1-9.2,1.8-18.5,2.3-27.8c0.5-9.3,0.7-18.6,0.7-27.9l0,0c0-9.3-0.2-18.6-0.7-27.9c-0.5-9.3-1.3-18.6-2.3-27.8
			c-1-9.2-2.3-18.5-3.9-27.6s-3.4-18.3-5.5-27.4c-2.9-12.6-12.9-22.5-25.6-25.2l0,0l-29.9,5.5l-9.8,13.6l0.7,116.8l-0.7,116.8
			l9.8,13.6L822.6,683.9L822.6,683.9"/>
	</g>
	<g id="YOKE">
		<polyline class="st7" points="253.4,442.5 770.6,442.5 770.6,651.5 253.4,651.5 253.4,442.5 		"/>
		<polygon class="st8" points="253.4,442.5 770.6,442.5 770.6,651.5 253.4,651.5 253.4,442.5 		"/>
		<path class="st7" d="M176,442l77.4,0.5l5.1,104.5l-5.1,104.5L176,652c-16.6-32.5-24.9-68.5-24.3-105
			C151.1,510.5,159.4,474.5,176,442"/>
		<path class="st8" d="M176,442l77.4,0.5l5.1,104.5l-5.1,104.5L176,652c-16.6-32.5-24.9-68.5-24.3-105
			C151.1,510.5,159.4,474.5,176,442"/>
		<path class="st7" d="M176,442L176,442c0.7,0.2,1.4,0.4,2,0.7c2,1,3.5,2.7,4.2,4.7c1.7,5.1,3.1,10.4,4.3,15.6
			c1.2,5.3,2.2,10.6,2.9,16c0.8,5.4,1.3,10.7,1.6,16.1s0.4,10.8,0.2,16.2v71.1c0.2,5.4,0.1,10.8-0.2,16.2s-0.8,10.8-1.6,16.2
			c-0.7,5.3-1.7,10.7-2.9,16c-1.2,5.3-2.6,10.5-4.3,15.7c-0.2,0.7-0.6,1.3-1,1.9c-0.8,1.2-1.9,2.1-3.2,2.8c-0.6,0.3-1.3,0.6-2,0.7"
			/>
		<path class="st8" d="M176,442L176,442c0.7,0.2,1.4,0.4,2,0.7c2,1,3.5,2.7,4.2,4.7c1.7,5.1,3.1,10.4,4.3,15.6
			c1.2,5.3,2.2,10.6,2.9,16c0.8,5.4,1.3,10.7,1.6,16.1s0.4,10.8,0.2,16.2v71.1c0.2,5.4,0.1,10.8-0.2,16.2s-0.8,10.8-1.6,16.2
			c-0.7,5.3-1.7,10.7-2.9,16c-1.2,5.3-2.6,10.5-4.3,15.7c-0.2,0.7-0.6,1.3-1,1.9c-0.8,1.2-1.9,2.1-3.2,2.8c-0.6,0.3-1.3,0.6-2,0.7"
			/>
		<path class="st7" d="M175.4,444.4L175.4,444.4c0.5,0.1,1,0.3,1.4,0.5c0.9,0.5,1.7,1.2,2.3,2c0.3,0.4,0.5,0.9,0.7,1.4
			c1.6,5.1,3,10.2,4.2,15.5s2.2,10.5,2.9,15.8c0.7,5.3,1.3,10.6,1.5,16c0.3,5.3,0.3,10.7,0.2,16v71.3c0.2,5.3,0.1,10.7-0.2,16
			c-0.3,5.3-0.8,10.7-1.6,15.9s-1.7,10.5-2.9,15.8c-1.2,5.2-2.6,10.4-4.2,15.5c-0.2,0.5-0.4,0.9-0.7,1.3c-0.6,0.8-1.3,1.5-2.3,2
			c-0.5,0.2-0.9,0.4-1.4,0.5"/>
		<path class="st8" d="M175.4,444.4L175.4,444.4c0.5,0.1,1,0.3,1.4,0.5c0.9,0.5,1.7,1.2,2.3,2c0.3,0.4,0.5,0.9,0.7,1.4
			c1.6,5.1,3,10.2,4.2,15.5s2.2,10.5,2.9,15.8c0.7,5.3,1.3,10.6,1.5,16c0.3,5.3,0.3,10.7,0.2,16v71.3c0.2,5.3,0.1,10.7-0.2,16
			c-0.3,5.3-0.8,10.7-1.6,15.9s-1.7,10.5-2.9,15.8c-1.2,5.2-2.6,10.4-4.2,15.5c-0.2,0.5-0.4,0.9-0.7,1.3c-0.6,0.8-1.3,1.5-2.3,2
			c-0.5,0.2-0.9,0.4-1.4,0.5"/>
		<path class="st7" d="M848,442l-77.4,0.5L765.5,547l5.1,104.5L848,652c8.3-16.2,14.5-33.3,18.6-51c2-8.8,3.5-17.8,4.5-26.8
			c1-9,1.3-18.1,1.2-27.2c0.2-9.1-0.2-18.1-1.2-27.2c-1-9-2.5-18-4.5-26.8C862.5,475.3,856.3,458.2,848,442"/>
		<path class="st8" d="M848,442l-77.4,0.5L765.5,547l5.1,104.5L848,652c8.3-16.2,14.5-33.3,18.6-51c2-8.8,3.5-17.8,4.5-26.8
			c1-9,1.3-18.1,1.2-27.2c0.2-9.1-0.2-18.1-1.2-27.2c-1-9-2.5-18-4.5-26.8C862.5,475.3,856.3,458.2,848,442"/>
		<path class="st7" d="M848,442L848,442c-0.7,0.2-1.4,0.4-2,0.7c-0.6,0.3-1.2,0.7-1.8,1.2c-0.5,0.5-1,1-1.4,1.6
			c-0.4,0.6-0.7,1.2-1,1.9c-1.7,5.1-3.1,10.4-4.3,15.6c-1.2,5.3-2.2,10.6-2.9,16c-0.8,5.4-1.3,10.7-1.6,16.1s-0.3,10.8-0.2,16.2
			v71.1c-0.2,5.4-0.1,10.8,0.2,16.2c0.3,5.4,0.8,10.8,1.6,16.2c0.8,5.3,1.7,10.7,2.9,16c1.2,5.3,2.6,10.5,4.3,15.7
			c0.3,0.7,0.6,1.3,1,1.9c0.8,1.2,1.9,2.1,3.2,2.8c0.6,0.3,1.3,0.6,2,0.7"/>
		<path class="st8" d="M848,442L848,442c-0.7,0.2-1.4,0.4-2,0.7c-0.6,0.3-1.2,0.7-1.8,1.2c-0.5,0.5-1,1-1.4,1.6
			c-0.4,0.6-0.7,1.2-1,1.9c-1.7,5.1-3.1,10.4-4.3,15.6c-1.2,5.3-2.2,10.6-2.9,16c-0.8,5.4-1.3,10.7-1.6,16.1s-0.3,10.8-0.2,16.2
			v71.1c-0.2,5.4-0.1,10.8,0.2,16.2c0.3,5.4,0.8,10.8,1.6,16.2c0.8,5.3,1.7,10.7,2.9,16c1.2,5.3,2.6,10.5,4.3,15.7
			c0.3,0.7,0.6,1.3,1,1.9c0.8,1.2,1.9,2.1,3.2,2.8c0.6,0.3,1.3,0.6,2,0.7"/>
		<path class="st7" d="M848.6,444.4L848.6,444.4c-0.5,0.1-1,0.3-1.4,0.5c-0.9,0.5-1.7,1.2-2.3,2c-0.3,0.4-0.5,0.9-0.7,1.4
			c-1.6,5.1-3,10.2-4.2,15.5c-1.2,5.2-2.2,10.5-2.9,15.8c-0.7,5.2-1.2,10.6-1.5,15.9c-0.3,5.4-0.4,10.7-0.2,16v71.3
			c-0.2,5.3-0.1,10.7,0.2,16c0.3,5.3,0.8,10.7,1.5,15.9s1.7,10.5,2.9,15.8c1.2,5.2,2.6,10.4,4.2,15.5c0.2,0.5,0.4,0.9,0.7,1.3
			c0.6,0.8,1.3,1.5,2.3,2c0.5,0.2,0.9,0.4,1.4,0.5"/>
		<path class="st8" d="M848.6,444.4L848.6,444.4c-0.5,0.1-1,0.3-1.4,0.5c-0.9,0.5-1.7,1.2-2.3,2c-0.3,0.4-0.5,0.9-0.7,1.4
			c-1.6,5.1-3,10.2-4.2,15.5c-1.2,5.2-2.2,10.5-2.9,15.8c-0.7,5.2-1.2,10.6-1.5,15.9c-0.3,5.4-0.4,10.7-0.2,16v71.3
			c-0.2,5.3-0.1,10.7,0.2,16c0.3,5.3,0.8,10.7,1.5,15.9s1.7,10.5,2.9,15.8c1.2,5.2,2.6,10.4,4.2,15.5c0.2,0.5,0.4,0.9,0.7,1.3
			c0.6,0.8,1.3,1.5,2.3,2c0.5,0.2,0.9,0.4,1.4,0.5"/>
	</g>
	<g id="HEAD">
		<path class="st7" d="M654.6,997.9L654.6,997.9c-11.7,2.8-23.4,5.2-35.2,7.3c-11.8,2.1-23.7,3.8-35.6,5.2
			c-11.9,1.4-23.9,2.4-35.8,3.1s-24,1-36,1c-12,0-24-0.3-36-1c-12-0.7-23.9-1.7-35.8-3.1c-11.9-1.4-23.8-3.1-35.6-5.2
			c-11.8-2.1-23.6-4.5-35.2-7.3l-83.5-86.4l-27.3-116.2l15.1-602.9l3.7-19.7l51-85.6l10,0.9l18-58.7l11.5-1.3V9.5h288.5v18.5
			l11.4,1.3l18,58.7l10-0.9l51,85.6l3.7,19.7l15.1,602.9l-27.4,116.2L654.6,997.9"/>
		<path class="st8" d="M654.6,997.9L654.6,997.9c-11.7,2.8-23.4,5.2-35.2,7.3c-11.8,2.1-23.7,3.8-35.6,5.2
			c-11.9,1.4-23.9,2.4-35.8,3.1s-24,1-36,1c-12,0-24-0.3-36-1c-12-0.7-23.9-1.7-35.8-3.1c-11.9-1.4-23.8-3.1-35.6-5.2
			c-11.8-2.1-23.6-4.5-35.2-7.3l-83.5-86.4l-27.3-116.2l15.1-602.9l3.7-19.7l51-85.6l10,0.9l18-58.7l11.5-1.3V9.5h288.5v18.5
			l11.4,1.3l18,58.7l10-0.9l51,85.6l3.7,19.7l15.1,602.9l-27.4,116.2L654.6,997.9 M367.8,27.9h288.5 M338.3,88h347.4 M376.8,88.5
			l-81.1,562.6 M295.7,651.1l28.5,226.5 M286.3,911.7l38-34.1 M647.2,88.5l81.1,562.6 M728.3,651.1l-28.5,226.5 M738.1,911.5
			l-38.4-33.9"/>
	</g>
</g>
</svg>
