<svg id="Atomic_Dots-Thumbnails" data-name="Atomic Dots-Thumbnails" xmlns="http://www.w3.org/2000/svg" viewBox="0 0 1024 1024"><defs><style>.cls-1,.cls-3{fill:#ccc;}.cls-1,.cls-2,.cls-3,.cls-4,.cls-5,.cls-6{stroke:#000;}.cls-1,.cls-3,.cls-5,.cls-6{stroke-miterlimit:10;}.cls-1,.cls-5{fill-rule:evenodd;}.cls-2{fill:none;}.cls-2,.cls-4{stroke-linecap:round;stroke-linejoin:round;}.cls-4,.cls-5{fill:#fff;}</style></defs><g id="CLD"><polyline class="cls-1" points="628.92 256.11 750.25 256.11 750.25 256.4 832.75 256.4 836.76 371.21 881.58 373.96 890.48 577.87 886.83 750.1 865.2 773.06 858.34 857.28 885.06 859.66 890.8 867.77 890.8 922.31 882.19 930.92 813.3 930.92 813.3 922.33 592.21 922.33 592.21 922.31 432.49 922.31 432.49 922.33 211.4 922.33 211.4 930.92 142.51 930.92 133.9 922.31 133.9 867.77 139.64 859.66 166.36 857.28 159.5 773.06 137.87 750.1 134.21 577.87 143.12 373.96 187.94 371.21 191.95 256.4 274.45 256.4 395.78 256.4 628.92 256.4 628.92 256.11"/><path class="cls-2" d="M628.92,256.11H750.25v.29h82.5l4,114.81L881.58,374l8.9,203.91L886.83,750.1l-21.63,23-6.86,84.22,26.72,2.38,5.74,8.12v54.53l-8.61,8.61H813.3v-8.59H592.21v0H432.49v0H211.4v8.59H142.51l-8.61-8.61V867.78l5.74-8.12,26.72-2.38-6.86-84.22-21.63-23-3.66-172.23L143.12,374l44.82-2.75,4-114.81h437v-.29ZM512.35,773.06H159.5m13,0,21,84.22m89.34-84.22L307,857.28M174.47,773.06l-.84-23"/><path class="cls-1" d="M400.2,124.65l2.63,5.76V187.8h8.32v14.35H396.8v13.77h11.48v32.16H270.87V215.92h11.18V202.15H267.64V187.8h8.85V130.41l2.63-5.76a33.19,33.19,0,0,1,23-31.57h75.16a33.21,33.21,0,0,1,23,31.57"/><path class="cls-2" d="M400.2,124.65l2.63,5.76V187.8h8.32v14.35H396.8v13.77h11.48v32.16H270.87V215.92h11.18V202.15H267.64V187.8h8.85V130.41l2.63-5.76a33.19,33.19,0,0,1,23-31.57h75.16a33.21,33.21,0,0,1,23,31.57"/><polyline class="cls-1" points="724.91 256.11 549.3 256.11 549.3 243.48 567.87 243.48 567.87 224.54 553.45 224.54 553.45 129.82 724.02 129.82 724.02 224.54 707.95 224.54 707.95 243.48 724.91 243.48 724.91 256.11"/><path class="cls-2" d="M724.91,256.11H549.3V243.48h18.57V224.54H553.45V129.82H724v94.72H708v18.94h17v12.63ZM512.35,773.06H865.2m-13,0-21,84.22m-89.33-84.22-24.15,84.22m132.55-84.22.84-23"/><rect class="cls-3" x="166.36" y="857.28" width="692.47" height="12.83"/><rect class="cls-2" x="166.36" y="857.28" width="692.47" height="12.83"/><rect class="cls-3" x="157.7" y="909.26" width="709.29" height="14.05"/><rect class="cls-2" x="157.7" y="909.26" width="709.29" height="14.05"/><rect class="cls-3" x="282.74" y="248.08" width="113.05" height="8.32"/><rect class="cls-2" x="282.74" y="248.08" width="113.05" height="8.32"/><rect class="cls-4" x="252.61" y="278.97" width="518.89" height="275.52"/><polyline class="cls-5" points="274.32 304.93 749.68 304.93 749.68 528.51 274.32 528.51 274.32 304.93"/><path class="cls-6" d="M284,392.42l7.64-21.08h29.1l8.12,21.08H339.3l-28.47-69.58h-9.92l-26.73,69.58Zm17.94-49a87.38,87.38,0,0,0,3.75-13.29q1.62,5.64,4.94,14.42l7.26,19.28H294.26l7.64-20.41Zm58.57,41.67a5.67,5.67,0,0,1-2.91-.62,3.5,3.5,0,0,1-1.48-1.66,14.88,14.88,0,0,1-.45-4.7V348.66h8.59V342h-8.59V324.4l-8.49,5.13V342h-6.27v6.65h6.27v29c0,5.12.34,8.49,1,10.08a8.25,8.25,0,0,0,3.61,3.87,14.61,14.61,0,0,0,7.21,1.47,31.51,31.51,0,0,0,6.46-.76l-1.24-7.54a28,28,0,0,1-3.75.33Zm15.45,1.66q6.52,6.8,17.12,6.79a24.72,24.72,0,0,0,12.17-3.09,20.63,20.63,0,0,0,8.5-8.66q2.91-5.58,2.92-15.31,0-12-6.6-18.82t-17-6.81a23.49,23.49,0,0,0-15.86,5.6q-7.79,6.75-7.78,20.75,0,12.76,6.52,19.55Zm6.48-34a14.08,14.08,0,0,1,21.2,0q4.25,4.82,4.24,14.17,0,9.92-4.22,14.76a14.08,14.08,0,0,1-21.22,0q-4.22-4.83-4.22-14.5t4.22-14.48Zm52.78,39.68V366.27q0-6.88,1.38-10.54a10.74,10.74,0,0,1,4.44-5.55,12.37,12.37,0,0,1,6.67-1.9q4.74,0,6.83,2.84t2.09,8.55v32.75h8.54V363.13q0-7.78,3.52-11.32a11.94,11.94,0,0,1,8.82-3.53,9.45,9.45,0,0,1,5.13,1.37,7.19,7.19,0,0,1,3,3.63,23.58,23.58,0,0,1,.83,7.39v31.75h8.49v-34.6q0-8.64-4-12.79t-11.54-4.16q-9.58,0-15.56,8.83a12.51,12.51,0,0,0-5.06-6.5,16.58,16.58,0,0,0-9.18-2.33,17.7,17.7,0,0,0-9,2.26,18,18,0,0,0-6.31,5.95V342h-7.64v50.41Zm81-59.76v-9.82h-8.55v9.82Zm0,59.76V342h-8.55v50.41Zm41.62-9a11.93,11.93,0,0,1-8.4,3.08,12.67,12.67,0,0,1-10.16-4.6q-3.88-4.6-3.89-14.76t4-14.64a13.24,13.24,0,0,1,10.49-4.63,10.86,10.86,0,0,1,7.28,2.56,13.8,13.8,0,0,1,4.2,7.64l8.31-1.28Q568.23,349.19,563,345t-13.44-4.16a24.46,24.46,0,0,0-12,3.06,18.93,18.93,0,0,0-8.23,9.19,35,35,0,0,0-2.71,14.29q0,12.61,6.29,19.38t16.64,6.77a20.56,20.56,0,0,0,13.93-4.91q5.67-4.92,7-13.6L562.1,374q-.9,6.41-4.27,9.49Zm73.19,9a47.44,47.44,0,0,0,11.18-1.19,25.8,25.8,0,0,0,8.31-3.49,25.07,25.07,0,0,0,6.33-6.31,34,34,0,0,0,4.75-10.13,48.76,48.76,0,0,0,1.85-14.05,46.64,46.64,0,0,0-2.73-16.54,28.28,28.28,0,0,0-8.23-11.89,23.57,23.57,0,0,0-10.21-5,58.5,58.5,0,0,0-12.39-1h-24v69.58Zm-15.9-61.37h14.62q8.22,0,11.92,1.42,5.12,2,8.71,7.86T654,357.11a42.91,42.91,0,0,1-1.83,13.4,22,22,0,0,1-5.1,8.81,15.52,15.52,0,0,1-6.24,3.61,36.21,36.21,0,0,1-10.8,1.28H615.12V331.05Zm63.25,55.72q6.52,6.8,17.11,6.79a24.73,24.73,0,0,0,12.18-3.09,20.61,20.61,0,0,0,8.49-8.66q2.93-5.58,2.92-15.31,0-12-6.6-18.82t-17-6.81a23.46,23.46,0,0,0-15.85,5.6q-7.78,6.75-7.79,20.75,0,12.76,6.53,19.55Zm6.48-34a14.07,14.07,0,0,1,21.19,0q4.25,4.82,4.25,14.17,0,9.92-4.22,14.76a14.08,14.08,0,0,1-21.22,0q-4.23-4.83-4.23-14.5t4.23-14.48ZM744,385.11a5.69,5.69,0,0,1-2.92-.62,3.53,3.53,0,0,1-1.47-1.66,14.88,14.88,0,0,1-.45-4.7V348.66h8.59V342h-8.59V324.4l-8.5,5.13V342h-6.26v6.65h6.26v29c0,5.12.35,8.49,1.05,10.08a8.18,8.18,0,0,0,3.6,3.87,14.65,14.65,0,0,0,7.22,1.47,31.34,31.34,0,0,0,6.45-.76l-1.23-7.54a28,28,0,0,1-3.75.33Z"/><path class="cls-6" d="M464.68,493.05a19.8,19.8,0,0,1-13.1,4.47,22.61,22.61,0,0,1-11.82-3.28,19.27,19.27,0,0,1-8.05-9.9,42.53,42.53,0,0,1-2.58-15.49,41.43,41.43,0,0,1,2.18-13.36,20.32,20.32,0,0,1,7.57-10.33q5.39-3.84,13.41-3.84a18.72,18.72,0,0,1,11.58,3.46q4.61,3.47,7,11.06l9.07-2.13a27.62,27.62,0,0,0-9.92-15q-7.12-5.31-17.56-5.31a34.56,34.56,0,0,0-16.88,4.2,28.41,28.41,0,0,0-11.81,12.29,41,41,0,0,0-4.16,19,47.39,47.39,0,0,0,3.68,18.66A28.55,28.55,0,0,0,434,500.81q7.05,4.59,18.3,4.58,10.86,0,18.39-5.95t10.42-17.3l-9.21-2.33q-1.9,8.79-7.26,13.24Zm70.91,11.16V496H501.32V434.63h-9.21v69.58Zm36.07,0A47.44,47.44,0,0,0,582.84,503a25.8,25.8,0,0,0,8.31-3.49,25.23,25.23,0,0,0,6.33-6.31,34,34,0,0,0,4.75-10.13,48.81,48.81,0,0,0,1.85-14,46.64,46.64,0,0,0-2.73-16.54,28.28,28.28,0,0,0-8.23-11.89,23.57,23.57,0,0,0-10.21-5,58.57,58.57,0,0,0-12.39-1h-24v69.58Zm-15.9-61.37h14.62c5.47,0,9.45.47,11.91,1.42q5.13,2,8.71,7.86t3.59,16.77a42.94,42.94,0,0,1-1.83,13.41,22,22,0,0,1-5.1,8.81,15.52,15.52,0,0,1-6.24,3.61,36.21,36.21,0,0,1-10.8,1.28H555.76V442.84Z"/><polyline class="cls-1" points="33.52 549.17 44.87 552.52 57.91 618.06 89.49 618.06 95.23 623.8 95.23 704.17 89.49 709.91 57.91 709.91 44.87 775.45 33.52 778.8 9.17 719.35 9.12 663.98 9.76 598.8 33.52 549.17"/><polyline class="cls-2" points="33.52 549.17 44.87 552.52 57.91 618.06 89.49 618.06 95.23 623.8 95.23 704.17 89.49 709.91 57.91 709.91 44.87 775.45 33.52 778.8 9.17 719.35 9.12 663.98 9.76 598.8 33.52 549.17"/><polyline class="cls-1" points="990.48 549.17 979.13 552.52 966.09 618.06 934.51 618.06 928.77 623.8 928.77 704.17 934.51 709.91 966.09 709.91 979.13 775.45 990.48 778.8 1014.83 719.35 1014.88 663.98 1014.24 598.8 990.48 549.17"/><polyline class="cls-2" points="990.48 549.17 979.13 552.52 966.09 618.06 934.51 618.06 928.77 623.8 928.77 704.17 934.51 709.91 966.09 709.91 979.13 775.45 990.48 778.8 1014.83 719.35 1014.88 663.98 1014.24 598.8 990.48 549.17"/><rect class="cls-3" x="95.23" y="577.87" width="833.54" height="172.22"/><rect class="cls-2" x="95.23" y="577.87" width="833.54" height="172.22"/><path class="cls-1" d="M550.75,664A38.75,38.75,0,1,0,512,702.73,38.92,38.92,0,0,0,550.75,664"/><path class="cls-2" d="M550.75,664A38.75,38.75,0,1,0,512,702.73,38.92,38.92,0,0,0,550.75,664"/></g></svg>