<?xml version="1.0" encoding="utf-8"?>
<!-- Generator: Adobe Illustrator 28.0.0, SVG Export Plug-In . SVG Version: 6.00 Build 0)  -->
<svg version="1.1" id="ERA_700_Performance_IP" xmlns="http://www.w3.org/2000/svg" xmlns:xlink="http://www.w3.org/1999/xlink"
	 x="0px" y="0px" viewBox="0 0 1024 1024" style="enable-background:new 0 0 1024 1024;" xml:space="preserve">
<style type="text/css">
	.st0{fill-rule:evenodd;clip-rule:evenodd;fill:#CCCCCC;stroke:#000000;stroke-miterlimit:10;}
	.st1{fill:none;stroke:#000000;stroke-linecap:round;stroke-linejoin:round;stroke-miterlimit:10;}
	.st2{fill-rule:evenodd;clip-rule:evenodd;fill:#FFFFFF;stroke:#000000;stroke-miterlimit:10;}
	.st3{stroke:#000000;stroke-miterlimit:10;}
</style>
<g>
	<path class="st0" d="M885,788.9L885,788.9c-12.8,8.3-25.9,16-39.3,23.2c-13.4,7.2-27.2,13.7-41.1,19.7c-14,6-28.2,11.3-42.7,16.1
		c-14.5,4.8-29.1,8.9-43.9,12.4l-205.6,2v0l-0.3,0l-0.3,0v0l-205.6-2c-14.8-3.5-29.5-7.6-43.9-12.4c-14.5-4.8-28.7-10.1-42.7-16.1
		c-14-6-27.7-12.6-41.1-19.7c-13.4-7.2-26.5-14.9-39.3-23.2c-13.4-35-23.5-71.1-30.3-107.9c-6.8-36.8-10.3-74.1-10.3-111.6
		c0-37.4,3.3-74.8,10.1-111.6c6.7-36.8,16.8-72.9,30.1-107.9c12.3-8.3,24.9-16.2,37.9-23.4c12.9-7.3,26.2-14,39.7-20.1
		c13.5-6.1,27.3-11.7,41.3-16.6c14-5,28.2-9.3,42.6-13.1l212,1l212-1c14.4,3.7,28.6,8.1,42.6,13.1c14,5,27.8,10.5,41.3,16.6
		c13.5,6.1,26.8,12.8,39.7,20.1c12.9,7.3,25.6,15.1,37.9,23.4c13.3,35,23.4,71.1,30.1,107.9c6.7,36.8,10.1,74.2,10.1,111.6
		c0,37.4-3.5,74.8-10.3,111.6C908.5,717.8,898.4,753.9,885,788.9 M197.5,461.6l-47.9-2.9c-3.3,19-5.8,38.2-7.5,57.4
		c-1.7,19.2-2.5,38.5-2.4,57.9c0,19.3,0.9,38.6,2.6,57.8c1.7,19.2,4.3,38.4,7.7,57.4l47.5-4.6V461.6 M874.1,689.2L874.1,689.2
		c3.4-19,6-38.2,7.7-57.4c1.7-19.2,2.6-38.5,2.7-57.8c0-19.3-0.8-38.6-2.4-57.9c-1.7-19.2-4.1-38.4-7.5-57.4l-47.9,2.9v223
		L874.1,689.2"/>
	<path class="st1" d="M885,788.9L885,788.9c-12.8,8.3-25.9,16-39.3,23.2c-13.4,7.2-27.2,13.7-41.1,19.7c-14,6-28.2,11.3-42.7,16.1
		c-14.5,4.8-29.1,8.9-43.9,12.4l-205.6,2v0l-0.3,0l-0.3,0v0l-205.6-2c-14.8-3.5-29.5-7.6-43.9-12.4c-14.5-4.8-28.7-10.1-42.7-16.1
		c-14-6-27.7-12.6-41.1-19.7c-13.4-7.2-26.5-14.9-39.3-23.2c-13.4-35-23.5-71.1-30.3-107.9c-6.8-36.8-10.3-74.1-10.3-111.6
		c0-37.4,3.3-74.8,10.1-111.6c6.7-36.8,16.8-72.9,30.1-107.9c12.3-8.3,24.9-16.2,37.9-23.4c12.9-7.3,26.2-14,39.7-20.1
		c13.5-6.1,27.3-11.7,41.3-16.6c14-5,28.2-9.3,42.6-13.1l212,1l212-1c14.4,3.7,28.6,8.1,42.6,13.1c14,5,27.8,10.5,41.3,16.6
		c13.5,6.1,26.8,12.8,39.7,20.1c12.9,7.3,25.6,15.1,37.9,23.4c13.3,35,23.4,71.1,30.1,107.9c6.7,36.8,10.1,74.2,10.1,111.6
		c0,37.4-3.5,74.8-10.3,111.6C908.5,717.8,898.4,753.9,885,788.9 M197.5,461.6l-47.9-2.9c-3.3,19-5.8,38.2-7.5,57.4
		c-1.7,19.2-2.5,38.5-2.4,57.9c0,19.3,0.9,38.6,2.6,57.8c1.7,19.2,4.3,38.4,7.7,57.4l47.5-4.6V461.6 M874.1,689.2L874.1,689.2
		c3.4-19,6-38.2,7.7-57.4c1.7-19.2,2.6-38.5,2.7-57.8c0-19.3-0.8-38.6-2.4-57.9c-1.7-19.2-4.1-38.4-7.5-57.4l-47.9,2.9v223
		L874.1,689.2"/>
	<path class="st0" d="M931.9,667.9l-15.3,19.2l-404.6-3.3l-404.6,3.3l-15.3-19.2c-2.8-15.1-5-30.3-6.5-45.6
		c-1.5-15.3-2.2-30.7-2.3-46c-0.1-15.4,0.5-30.7,1.9-46.1c1.3-15.3,3.3-30.6,6-45.7l16.2-22l404.6,3.3l404.6-3.3l16.2,22
		c2.7,15.1,4.7,30.4,6,45.7c1.3,15.3,1.9,30.7,1.9,46.1c-0.1,15.4-0.8,30.7-2.3,46C936.9,637.5,934.8,652.7,931.9,667.9"/>
	<path class="st1" d="M931.9,667.9l-15.3,19.2l-404.6-3.3l-404.6,3.3l-15.3-19.2c-2.8-15.1-5-30.3-6.5-45.6
		c-1.5-15.3-2.2-30.7-2.3-46c-0.1-15.4,0.5-30.7,1.9-46.1c1.3-15.3,3.3-30.6,6-45.7l16.2-22l404.6,3.3l404.6-3.3l16.2,22
		c2.7,15.1,4.7,30.4,6,45.7c1.3,15.3,1.9,30.7,1.9,46.1c-0.1,15.4-0.8,30.7-2.3,46C936.9,637.5,934.8,652.7,931.9,667.9
		 M209.7,462.1v225.2 M814.4,462.1v225.2"/>
	<path class="st0" d="M703.1,999.2L703.1,999.2c-15.8,2.7-31.7,5-47.7,7c-15.9,2-31.9,3.7-47.9,5c-16,1.3-32.1,2.3-48.1,2.9
		c-16.1,0.6-32.1,0.9-48.2,0.9c-16.1,0-32.1-0.2-48.2-0.9c-16.1-0.6-32.1-1.6-48.1-2.9c-16-1.3-32-3-47.9-5c-15.9-2-31.8-4.4-47.7-7
		c-4.1-4.8-7.9-9.8-11.4-15.1c-3.5-5.3-6.6-10.8-9.3-16.5c-2.7-5.7-5.1-11.6-7-17.6c-1.9-6-3.5-12.2-4.6-18.4l-6.6-74l-37.9-19
		c-5.8-23.6-11-47.4-15.4-71.3c-4.5-23.9-8.2-47.9-11.3-72.1c-3.1-24.1-5.4-48.3-7.1-72.6c-1.7-24.3-2.6-48.6-2.9-72.9
		c1.2-40.5,4.5-80.8,9.8-120.9c5.3-40.1,12.7-79.9,22.1-119.3c9.4-39.4,20.8-78.2,34.2-116.4c13.4-38.2,28.7-75.7,45.9-112.3
		l25-22.1l22.7-5.2l145.5-0.6l145.5,0.6l22.7,5.2l25,22.1c17.2,36.6,32.5,74.1,45.9,112.3c13.4,38.2,24.8,77.1,34.2,116.4
		c9.4,39.4,16.8,79.2,22.1,119.3c5.3,40.1,8.6,80.5,9.8,120.9c-0.2,24.3-1.2,48.6-2.9,72.9c-1.7,24.3-4,48.5-7.1,72.6
		c-3.1,24.1-6.8,48.2-11.3,72.1c-4.5,23.9-9.6,47.7-15.4,71.3l-37.9,19l-6.6,74c-1.1,6.2-2.6,12.4-4.6,18.4c-1.9,6-4.3,11.9-7,17.6
		c-2.7,5.7-5.8,11.2-9.3,16.5C711,989.4,707.2,994.4,703.1,999.2"/>
	<path class="st1" d="M703.1,999.2L703.1,999.2c-15.8,2.7-31.7,5-47.7,7c-15.9,2-31.9,3.7-47.9,5c-16,1.3-32.1,2.3-48.1,2.9
		c-16.1,0.6-32.1,0.9-48.2,0.9c-16.1,0-32.1-0.2-48.2-0.9c-16.1-0.6-32.1-1.6-48.1-2.9c-16-1.3-32-3-47.9-5c-15.9-2-31.8-4.4-47.7-7
		c-4.1-4.8-7.9-9.8-11.4-15.1c-3.5-5.3-6.6-10.8-9.3-16.5c-2.7-5.7-5.1-11.6-7-17.6c-1.9-6-3.5-12.2-4.6-18.4l-6.6-74l-37.9-19
		c-5.8-23.6-11-47.4-15.4-71.3c-4.5-23.9-8.2-47.9-11.3-72.1c-3.1-24.1-5.4-48.3-7.1-72.6c-1.7-24.3-2.6-48.6-2.9-72.9
		c1.2-40.5,4.5-80.8,9.8-120.9c5.3-40.1,12.7-79.9,22.1-119.3c9.4-39.4,20.8-78.2,34.2-116.4c13.4-38.2,28.7-75.7,45.9-112.3
		l25-22.1l22.7-5.2l145.5-0.6l145.5,0.6l22.7,5.2l25,22.1c17.2,36.6,32.5,74.1,45.9,112.3c13.4,38.2,24.8,77.1,34.2,116.4
		c9.4,39.4,16.8,79.2,22.1,119.3c5.3,40.1,8.6,80.5,9.8,120.9c-0.2,24.3-1.2,48.6-2.9,72.9c-1.7,24.3-4,48.5-7.1,72.6
		c-3.1,24.1-6.8,48.2-11.3,72.1c-4.5,23.9-9.6,47.7-15.4,71.3l-37.9,19l-6.6,74c-1.1,6.2-2.6,12.4-4.6,18.4c-1.9,6-4.3,11.9-7,17.6
		c-2.7,5.7-5.8,11.2-9.3,16.5C711,989.4,707.2,994.4,703.1,999.2"/>
	<polyline class="st0" points="365.7,53.5 368.9,32.5 384.1,32.4 384.5,9.2 636.9,8.3 638.3,32.4 655.3,34.2 656.7,53.5 365.7,53.5 
			"/>
	<polygon class="st1" points="365.7,53.5 368.9,32.5 384.1,32.4 384.5,9.2 636.9,8.3 638.3,32.4 655.3,34.2 656.7,53.5 365.7,53.5 	
		"/>
	<path class="st0" d="M619.5,142.6L619.5,142.6c-8.9-1.9-17.8-3.4-26.8-4.7c-9-1.3-18-2.2-27.1-2.8c-9-0.6-18.1-1-27.2-1
		c-9.1,0-18.1,0.3-27.2,0.9c-9-0.6-18.1-0.9-27.2-0.9c-9.1,0-18.1,0.3-27.2,1c-9,0.6-18.1,1.6-27,2.9c-9,1.3-17.9,2.8-26.8,4.7
		l-5,96.2c-12.2,34.7-23.2,69.9-32.8,105.5c-9.7,35.5-18.1,71.4-25.2,107.5C333,488,327.2,524.4,322.7,561
		c-4.5,36.6-7.7,73.3-9.5,110l-42.8,163.8l-7.5,0.1c-3.3-59.8-3.1-119.8,0.6-179.6c3.7-59.8,10.9-119.3,21.6-178.3
		c10.7-58.9,24.8-117.2,42.2-174.5c17.5-57.3,38.3-113.5,62.3-168.4c9.8-2.9,19.8-5.5,29.8-7.7c10-2.2,20.2-4,30.3-5.4
		c10.2-1.4,20.4-2.4,30.7-3c10.3-0.6,20.5-0.8,30.8-0.7l0,0c10.3-0.2,20.6,0,30.8,0.6c10.3,0.6,20.5,1.6,30.7,3
		c10.2,1.4,20.3,3.2,30.3,5.4c10,2.2,20,4.7,29.8,7.7c24.1,54.9,44.9,111.1,62.4,168.4c17.5,57.3,31.6,115.6,42.3,174.5
		c10.7,58.9,17.9,118.5,21.7,178.2c3.7,59.8,4,119.7,0.7,179.6l-7.5-0.1l-42.9-163.8c-1.9-36.8-5.1-73.5-9.6-110
		c-4.5-36.6-10.3-72.9-17.5-109.1c-7.1-36.1-15.5-72-25.2-107.5c-9.7-35.5-20.7-70.7-32.9-105.4L619.5,142.6"/>
	<path class="st1" d="M619.5,142.6L619.5,142.6c-8.9-1.9-17.8-3.4-26.8-4.7c-9-1.3-18-2.2-27.1-2.8c-9-0.6-18.1-1-27.2-1
		c-9.1,0-18.1,0.3-27.2,0.9c-9-0.6-18.1-0.9-27.2-0.9c-9.1,0-18.1,0.3-27.2,1c-9,0.6-18.1,1.6-27,2.9c-9,1.3-17.9,2.8-26.8,4.7
		l-5,96.2c-12.2,34.7-23.2,69.9-32.8,105.5c-9.7,35.5-18.1,71.4-25.2,107.5C333,488,327.2,524.4,322.7,561
		c-4.5,36.6-7.7,73.3-9.5,110l-42.8,163.8l-7.5,0.1c-3.3-59.8-3.1-119.8,0.6-179.6c3.7-59.8,10.9-119.3,21.6-178.3
		c10.7-58.9,24.8-117.2,42.2-174.5c17.5-57.3,38.3-113.5,62.3-168.4c9.8-2.9,19.8-5.5,29.8-7.7c10-2.2,20.2-4,30.3-5.4
		c10.2-1.4,20.4-2.4,30.7-3c10.3-0.6,20.5-0.8,30.8-0.7l0,0c10.3-0.2,20.6,0,30.8,0.6c10.3,0.6,20.5,1.6,30.7,3
		c10.2,1.4,20.3,3.2,30.3,5.4c10,2.2,20,4.7,29.8,7.7c24.1,54.9,44.9,111.1,62.4,168.4c17.5,57.3,31.6,115.6,42.3,174.5
		c10.7,58.9,17.9,118.5,21.7,178.2c3.7,59.8,4,119.7,0.7,179.6l-7.5-0.1l-42.9-163.8c-1.9-36.8-5.1-73.5-9.6-110
		c-4.5-36.6-10.3-72.9-17.5-109.1c-7.1-36.1-15.5-72-25.2-107.5c-9.7-35.5-20.7-70.7-32.9-105.4L619.5,142.6 M271.3,834H753"/>
	<rect x="321.6" y="849.1" class="st0" width="377.8" height="141.8"/>
	<rect x="321.6" y="849.1" class="st1" width="377.8" height="141.8"/>
	<rect x="214.5" y="491" class="st2" width="595.2" height="167.4"/>
	<path class="st3" d="M424.1,559v-5.3h-27.7v-15.3h24.9V533h-24.9v-13.8h26.6v-5.3h-32.6V559H424.1L424.1,559z M438.4,559v-20h6.9
		c1.5,0,2.6,0.1,3.3,0.2c0.9,0.2,1.8,0.6,2.7,1.2c0.9,0.6,1.9,1.6,3,3c1.1,1.4,2.6,3.5,4.3,6.2l6,9.4h7.5l-7.8-12.3
		c-1.6-2.4-3.2-4.4-5-6c-0.8-0.7-2-1.5-3.6-2.2c4.3-0.6,7.5-2,9.6-4.2c2.1-2.2,3.1-4.9,3.1-8.1c0-2.5-0.6-4.7-1.9-6.8
		c-1.3-2.1-2.9-3.5-5-4.3c-2.1-0.8-5.1-1.2-9.2-1.2h-20V559H438.4L438.4,559z M438.4,518.9h14.3c3.3,0,5.8,0.7,7.3,2.1
		c1.5,1.4,2.3,3.1,2.3,5.3c0,1.5-0.4,2.8-1.2,4c-0.8,1.2-2,2.1-3.5,2.7c-1.5,0.6-3.7,0.8-6.4,0.8h-12.8V518.9L438.4,518.9z
		 M479.2,559l5-13.7H503l5.3,13.7h6.8l-18.5-45.1h-6.4L472.9,559H479.2L479.2,559z M490.8,527.2c1-2.8,1.9-5.7,2.4-8.6
		c0.7,2.4,1.8,5.6,3.2,9.3l4.7,12.5h-15.3L490.8,527.2L490.8,527.2z M557.6,519.8c-2.8,3.2-5.5,7.1-8,11.8
		c-2.5,4.7-4.4,9.5-5.7,14.5c-1.3,5-2,9.3-2.1,12.9h5.7c0.3-4.5,1-8.6,2.1-12.4c1.5-5.4,3.7-10.6,6.5-15.6c2.8-5.1,5.7-9.1,8.5-12.2
		v-4.3h-29.2v5.3H557.6L557.6,519.8z M574.6,555.1c2.5,3.1,5.9,4.7,10.2,4.7c3.3,0,6-0.9,8.2-2.7c2.2-1.8,3.8-4.3,4.9-7.5
		c1.1-3.2,1.6-7.5,1.6-12.8c0-4.5-0.3-8-1-10.7c-0.7-2.6-1.6-4.9-2.8-6.7c-1.2-1.8-2.7-3.2-4.5-4.2c-1.8-1-3.9-1.5-6.4-1.5
		c-3.3,0-6,0.9-8.2,2.6c-2.2,1.8-3.8,4.3-4.9,7.5c-1.1,3.3-1.6,7.5-1.6,12.9C570.1,545.2,571.6,551.3,574.6,555.1L574.6,555.1
		L574.6,555.1z M578.7,521.5c1.5-2.2,3.5-3.2,6.1-3.2c2.6,0,4.7,1.2,6.5,3.7c1.7,2.4,2.6,7.4,2.6,14.8c0,7.4-0.9,12.3-2.6,14.8
		c-1.7,2.5-3.9,3.7-6.4,3.7c-2.5,0-4.7-1.2-6.4-3.7c-1.7-2.4-2.6-7.4-2.6-14.8C575.8,529.3,576.8,524.3,578.7,521.5L578.7,521.5
		L578.7,521.5z M609.6,555.1c2.5,3.1,5.9,4.7,10.2,4.7c3.3,0,6-0.9,8.2-2.7c2.2-1.8,3.8-4.3,4.9-7.5c1.1-3.2,1.6-7.5,1.6-12.8
		c0-4.5-0.3-8-1-10.7c-0.7-2.6-1.6-4.9-2.8-6.7c-1.2-1.8-2.7-3.2-4.5-4.2c-1.8-1-3.9-1.5-6.4-1.5c-3.3,0-6,0.9-8.2,2.6
		c-2.2,1.8-3.8,4.3-4.9,7.5c-1.1,3.3-1.6,7.5-1.6,12.9C605.2,545.2,606.7,551.3,609.6,555.1L609.6,555.1L609.6,555.1z M613.7,521.5
		c1.5-2.2,3.5-3.2,6.1-3.2c2.6,0,4.7,1.2,6.5,3.7c1.7,2.4,2.6,7.4,2.6,14.8c0,7.4-0.9,12.3-2.6,14.8c-1.7,2.5-3.9,3.7-6.4,3.7
		c-2.5,0-4.7-1.2-6.4-3.7c-1.7-2.4-2.6-7.4-2.6-14.8C610.9,529.3,611.8,524.3,613.7,521.5L613.7,521.5L613.7,521.5z"/>
	<path class="st3" d="M238.8,631.4v-18.3h11.6c6.4,0,10.8-1.3,13.2-4c2.4-2.7,3.7-5.9,3.7-9.7c0-2.2-0.5-4.3-1.4-6.2
		c-0.9-1.9-2.1-3.3-3.6-4.4c-1.5-1-3.4-1.7-5.6-2.1c-1.6-0.3-3.9-0.4-6.9-0.4h-17v45.1H238.8L238.8,631.4z M238.8,591.7h11.5
		c2.7,0,4.6,0.1,5.6,0.4c1.6,0.4,2.8,1.3,3.8,2.7c1,1.3,1.4,3,1.4,4.8c0,2.6-0.8,4.6-2.4,6.1c-1.6,1.4-4.4,2.2-8.2,2.2h-11.7V591.7
		L238.8,591.7z M308.6,631.4v-5.3H281v-15.3h24.9v-5.3H281v-13.8h26.6v-5.3H275v45.1H308.6L308.6,631.4z M322.9,631.4v-20h6.9
		c1.5,0,2.6,0.1,3.3,0.2c0.9,0.2,1.8,0.6,2.7,1.2c0.9,0.6,1.9,1.6,3,3c1.1,1.4,2.6,3.5,4.3,6.2l6,9.4h7.5l-7.8-12.3
		c-1.6-2.4-3.2-4.4-5-6c-0.8-0.7-2-1.5-3.6-2.2c4.3-0.6,7.5-2,9.6-4.2c2.1-2.2,3.1-4.9,3.1-8.1c0-2.5-0.6-4.7-1.9-6.8
		c-1.3-2.1-2.9-3.5-5-4.3c-2.1-0.8-5.1-1.2-9.2-1.2h-20v45.1H322.9L322.9,631.4z M322.9,591.3h14.3c3.3,0,5.8,0.7,7.3,2.1
		c1.5,1.4,2.3,3.1,2.3,5.3c0,1.5-0.4,2.8-1.2,4c-0.8,1.2-2,2.1-3.5,2.7c-1.5,0.6-3.7,0.8-6.4,0.8h-12.8V591.3L322.9,591.3z
		 M368.7,631.4v-20.5h21.2v-5.3h-21.2v-14h24.5v-5.3h-30.4v45.1H368.7L368.7,631.4z M401.6,620.7c1.7,3.5,4.3,6.3,7.6,8.4
		c3.3,2.1,7.1,3.1,11.4,3.1c3.9,0,7.6-0.9,10.9-2.8c3.4-1.9,6-4.6,7.8-8.2c1.8-3.6,2.8-7.7,2.8-12.3c0-4.5-0.9-8.5-2.6-12.1
		c-1.8-3.6-4.3-6.3-7.6-8.3c-3.3-2-7.1-3-11.3-3c-6.4,0-11.5,2.1-15.6,6.4c-4,4.2-6,10.1-6,17.6C399,613.4,399.9,617.2,401.6,620.7
		L401.6,620.7z M409.8,595c3-2.9,6.7-4.4,10.9-4.4c3,0,5.7,0.8,8,2.3c2.4,1.5,4.2,3.6,5.4,6.4c1.2,2.7,1.9,5.9,1.9,9.6
		c0,5.8-1.5,10.3-4.4,13.4c-2.9,3.2-6.6,4.7-11.1,4.7c-4.4,0-8.1-1.6-11-4.7c-2.9-3.1-4.4-7.4-4.4-12.8
		C405.2,602.8,406.7,597.9,409.8,595L409.8,595z M455.9,631.4v-20h6.9c1.5,0,2.6,0.1,3.3,0.2c0.9,0.2,1.8,0.6,2.7,1.2
		c0.9,0.6,1.9,1.6,3,3c1.1,1.4,2.6,3.5,4.3,6.2l6,9.4h7.5l-7.8-12.3c-1.6-2.4-3.2-4.4-5-6c-0.8-0.7-2-1.5-3.6-2.2
		c4.3-0.6,7.5-2,9.6-4.2c2.1-2.2,3.1-4.9,3.1-8.1c0-2.5-0.6-4.7-1.9-6.8c-1.3-2.1-2.9-3.5-5-4.3c-2.1-0.8-5.1-1.2-9.2-1.2h-20v45.1
		H455.9L455.9,631.4z M455.9,591.3h14.3c3.3,0,5.8,0.7,7.3,2.1c1.5,1.4,2.3,3.1,2.3,5.3c0,1.5-0.4,2.8-1.2,4c-0.8,1.2-2,2.1-3.5,2.7
		c-1.5,0.6-3.7,0.8-6.4,0.8h-12.8V591.3L455.9,591.3z M500.9,631.4V593l13,38.4h5.4l13.1-37.7v37.7h5.8v-45.1h-8l-10.8,31.4
		c-1.1,3.2-1.9,5.6-2.4,7.2c-0.5-1.5-1.2-3.7-2.2-6.7l-10.7-31.9h-9v45.1H500.9L500.9,631.4z M549.2,631.4l5-13.7H573l5.3,13.7h6.8
		l-18.5-45.1h-6.4l-17.3,45.1H549.2L549.2,631.4z M560.8,599.7c1-2.8,1.9-5.7,2.4-8.6c0.7,2.4,1.8,5.6,3.2,9.3l4.7,12.5h-15.3
		L560.8,599.7L560.8,599.7z M595.5,631.4V596l23.7,35.4h6.1v-45.1h-5.7v35.4l-23.7-35.4h-6.1v45.1H595.5L595.5,631.4z M662.8,624.2
		c-2.3,1.9-5.1,2.9-8.5,2.9c-2.7,0-5.3-0.7-7.7-2.1c-2.4-1.4-4.1-3.6-5.2-6.4c-1.1-2.9-1.7-6.2-1.7-10c0-3,0.5-5.9,1.4-8.7
		c0.9-2.8,2.6-5,4.9-6.7c2.3-1.7,5.2-2.5,8.7-2.5c3,0,5.5,0.7,7.5,2.2c2,1.5,3.5,3.9,4.6,7.2l5.9-1.4c-1.2-4.2-3.4-7.4-6.4-9.7
		c-3.1-2.3-6.9-3.4-11.4-3.4c-4,0-7.6,0.9-10.9,2.7c-3.3,1.8-5.9,4.5-7.7,8c-1.8,3.5-2.7,7.6-2.7,12.3c0,4.3,0.8,8.3,2.4,12.1
		c1.6,3.8,3.9,6.6,7,8.6c3,2,7,3,11.9,3c4.7,0,8.7-1.3,11.9-3.9c3.2-2.6,5.5-6.3,6.8-11.2l-6-1.5
		C666.7,619.4,665.1,622.3,662.8,624.2L662.8,624.2z M714.6,631.4v-5.3h-27.7v-15.3h24.9v-5.3h-24.9v-13.8h26.6v-5.3h-32.6v45.1
		H714.6L714.6,631.4z M747.3,631.4v-45.1h-6v45.1H747.3L747.3,631.4z M763.8,631.4v-18.3h11.6c6.4,0,10.8-1.3,13.2-4
		c2.4-2.7,3.7-5.9,3.7-9.7c0-2.2-0.5-4.3-1.4-6.2c-0.9-1.9-2.1-3.3-3.6-4.4c-1.5-1-3.4-1.7-5.6-2.1c-1.6-0.3-3.9-0.4-6.9-0.4h-17
		v45.1H763.8L763.8,631.4z M763.8,591.7h11.5c2.7,0,4.6,0.1,5.6,0.4c1.6,0.4,2.8,1.3,3.8,2.7c1,1.3,1.4,3,1.4,4.8
		c0,2.6-0.8,4.6-2.4,6.1c-1.6,1.4-4.4,2.2-8.2,2.2h-11.7V591.7L763.8,591.7z"/>
</g>
</svg>
