<?xml version="1.0" encoding="UTF-8"?>
<svg xmlns="http://www.w3.org/2000/svg" version="1.1" viewBox="0 0 1024 1024">
  <defs>
    <style>
      .cls-1 {
        fill: none;
        stroke-linecap: round;
        stroke-linejoin: round;
      }

      .cls-1, .cls-2, .cls-3 {
        stroke: #1d1d1b;
      }

      .cls-2 {
        fill: #ccc;
        fill-rule: evenodd;
      }

      .cls-2, .cls-3 {
        stroke-miterlimit: 10;
      }

      .cls-3 {
        fill: #fff;
      }
    </style>
  </defs>
  <!-- Generator: Adobe Illustrator 28.6.0, SVG Export Plug-In . SVG Version: 1.2.0 Build 709)  -->
  <g>
    <g id="EXT_Dot-HP_Pro_-_Thumbnail">
      <g id="Exterior_Dot-HP_Pro_Clear_Lens">
        <path class="cls-2" d="M1012.1,513.9c0-274.1-225.6-499.7-499.7-499.7S12.8,239.8,12.8,513.9s225.6,499.7,499.7,499.7,499.7-225.6,499.7-499.7"/>
        <path class="cls-2" d="M965.1,513.9c0-248.3-204.3-452.6-452.6-452.6S59.8,265.6,59.8,513.9s204.3,452.6,452.6,452.6,452.6-204.3,452.6-452.6"/>
        <path class="cls-1" d="M965.1,513.9c0-248.3-204.3-452.6-452.6-452.6S59.8,265.6,59.8,513.9s204.3,452.6,452.6,452.6,452.6-204.3,452.6-452.6"/>
        <rect class="cls-3" x="141.6" y="193.5" width="741.6" height="640.9"/>
        <path d="M330.6,379.6v-13.8h-71.5v-39.7h64.5v-13.7h-64.5v-35.7h68.8v-13.8h-84.3v116.5h87ZM357.9,379.6l22.2-33.3,4.6,7.1,17.3,26.2h17.6l-31.4-44.7,29.2-39.7h-17.1l-14.2,20c-2,2.7-4.1,5.8-6.4,9.3-1.5-2.5-3.4-5.7-5.9-9.5l-13-19.8h-17.9l28.5,40.5-30.8,43.9h17.3ZM456.5,367.4c-2.1,0-3.7-.3-4.9-1-1.1-.7-2-1.6-2.5-2.8-.5-1.2-.8-3.8-.8-7.9v-49.4h14.4v-11.1h-14.4v-29.5l-14.2,8.6v20.9h-10.5v11.1h10.5v48.6c0,8.6.6,14.2,1.7,16.9,1.2,2.7,3.2,4.8,6,6.5,2.9,1.6,6.9,2.5,12.1,2.5s6.8-.4,10.8-1.3l-2.1-12.6c-2.6.4-4.7.6-6.3.6h0ZM525.7,365.7c-3.7,2.8-8.2,4.1-13.4,4.1s-12.9-2.5-17.6-7.4c-4.7-4.9-7.3-12-7.9-21.3h63c0-1.7,0-3,0-3.8,0-13.9-3.6-24.7-10.7-32.4-7.2-7.7-16.4-11.5-27.7-11.5s-21.1,3.9-28.5,11.8c-7.3,7.8-11,18.9-11,33.1s3.6,24.4,10.8,32c7.2,7.6,17,11.4,29.4,11.4s17.9-2.4,24.2-7.2c6.3-4.8,10.6-11.5,13-20.1l-14.8-1.8c-2.2,6-5.1,10.4-8.8,13.2h0ZM495,311.7c4.5-4.4,10-6.6,16.6-6.6s13.2,2.8,17.7,8.3c3,3.6,4.8,8.9,5.4,16h-47.1c.5-7.4,3-13.2,7.4-17.6h0ZM581.4,379.6v-44.2c0-6,.8-11.6,2.4-16.7,1.1-3.3,2.8-5.9,5.3-7.8,2.5-1.9,5.3-2.8,8.4-2.8s7,1,10.5,3.1l4.9-13.3c-5-3.1-9.9-4.6-14.7-4.6s-6.4,1-9.2,2.9-5.8,5.9-9.1,11.8v-12.8h-12.9v84.4h14.3ZM635.9,279.6v-16.5h-14.3v16.5h14.3ZM635.9,379.6v-84.4h-14.3v84.4h14.3ZM663.2,370.2c7.3,7.6,16.8,11.4,28.7,11.4s14.2-1.7,20.4-5.2c6.2-3.4,11-8.3,14.2-14.5,3.3-6.2,4.9-14.8,4.9-25.6s-3.7-23.9-11-31.5c-7.4-7.6-16.9-11.4-28.5-11.4s-19.3,3.1-26.5,9.4c-8.7,7.5-13,19.1-13,34.7s3.6,25.2,10.9,32.7h0ZM674.1,313.2c4.7-5.4,10.7-8,17.8-8s12.9,2.7,17.7,8.1c4.7,5.4,7.1,13.3,7.1,23.7s-2.4,19.3-7.1,24.7c-4.7,5.4-10.6,8.1-17.7,8.1s-13.1-2.7-17.8-8.1c-4.7-5.4-7.1-13.5-7.1-24.3s2.4-18.9,7.1-24.2h0ZM762.3,379.6v-44.2c0-6,.8-11.6,2.4-16.7,1.1-3.3,2.8-5.9,5.3-7.8,2.5-1.9,5.3-2.8,8.4-2.8s7,1,10.5,3.1l4.9-13.3c-5-3.1-9.9-4.6-14.7-4.6s-6.4,1-9.2,2.9-5.8,5.9-9.1,11.8v-12.8h-12.9v84.4h14.3Z"/>
        <path d="M439,566.8c7,0,13.3-.7,18.7-2,5.4-1.3,10.1-3.3,13.9-5.8,3.8-2.6,7.4-6.1,10.6-10.6,3.2-4.5,5.9-10.1,7.9-17s3.1-14.7,3.1-23.5-1.5-19.6-4.6-27.7c-3-8.1-7.6-14.7-13.8-19.9-4.7-4-10.4-6.8-17.1-8.3-4.8-1.1-11.7-1.7-20.7-1.7h-40.1v116.5h42ZM412.3,464.1h24.5c9.2,0,15.8.8,20,2.4,5.7,2.2,10.6,6.6,14.6,13.2,4,6.5,6,15.9,6,28.1s-1,16.3-3.1,22.5c-2,6.2-4.9,11.1-8.5,14.7-2.6,2.6-6.1,4.6-10.5,6s-10.4,2.1-18.1,2.1h-24.9v-89h0ZM518.3,557.4c7.3,7.6,16.8,11.4,28.7,11.4s14.2-1.7,20.4-5.2c6.2-3.4,11-8.3,14.2-14.5,3.3-6.2,4.9-14.8,4.9-25.6s-3.7-23.9-11-31.5c-7.4-7.6-16.9-11.4-28.5-11.4s-19.3,3.1-26.5,9.4c-8.7,7.5-13,19.1-13,34.7s3.6,25.2,10.9,32.7h0ZM529.1,500.4c4.7-5.4,10.7-8,17.8-8s12.9,2.7,17.7,8.1c4.7,5.4,7.1,13.3,7.1,23.7s-2.4,19.3-7.1,24.7c-4.7,5.4-10.6,8.1-17.7,8.1s-13.1-2.7-17.8-8.1c-4.7-5.4-7.1-13.5-7.1-24.3s2.4-18.9,7.1-24.2h0ZM628.1,554.6c-2.1,0-3.7-.3-4.9-1-1.1-.7-2-1.6-2.5-2.8-.5-1.2-.8-3.8-.8-7.9v-49.4h14.4v-11.1h-14.4v-29.5l-14.2,8.6v20.9h-10.5v11.1h10.5v48.6c0,8.6.6,14.2,1.7,16.9,1.2,2.7,3.2,4.8,6,6.5,2.9,1.6,6.9,2.5,12.1,2.5s6.8-.4,10.8-1.3l-2.1-12.6c-2.6.4-4.7.6-6.3.6h0Z"/>
        <path d="M277.2,754v-54.9h60.6v54.9h15.4v-116.5h-15.4v47.8h-60.6v-47.8h-15.4v116.5h15.4ZM394.3,754v-47.4h29.9c16.5,0,27.9-3.4,34.2-10.3,6.3-6.9,9.5-15.2,9.5-25.2s-1.2-11.1-3.5-15.9c-2.4-4.8-5.5-8.6-9.3-11.2-3.9-2.7-8.7-4.5-14.4-5.4-4.1-.7-10-1.1-17.7-1.1h-44v116.5h15.4ZM394.3,651.3h29.8c7,0,11.8.3,14.4,1,4,1.1,7.3,3.4,9.7,6.9,2.5,3.5,3.7,7.6,3.7,12.5s-2.1,12-6.3,15.7c-4.2,3.7-11.3,5.6-21.2,5.6h-30.1v-41.7h0ZM548.1,754v-47.4h29.9c16.5,0,27.9-3.4,34.2-10.3,6.3-6.9,9.5-15.2,9.5-25.2s-1.2-11.1-3.5-15.9c-2.4-4.8-5.5-8.6-9.3-11.2-3.9-2.7-8.7-4.5-14.4-5.4-4.1-.7-10-1.1-17.7-1.1h-44v116.5h15.4ZM548.1,651.3h29.8c7,0,11.8.3,14.4,1,4,1.1,7.3,3.4,9.7,6.9,2.5,3.5,3.7,7.6,3.7,12.5s-2.1,12-6.3,15.7c-4.2,3.7-11.3,5.6-21.2,5.6h-30.1v-41.7h0ZM653.5,754v-44.2c0-6,.8-11.6,2.4-16.7,1.1-3.3,2.8-5.9,5.3-7.8,2.5-1.9,5.3-2.8,8.4-2.8s7,1,10.5,3.1l4.9-13.3c-5-3.1-9.9-4.6-14.7-4.6s-6.4,1-9.2,2.9-5.8,5.9-9.1,11.8v-12.8h-12.9v84.4h14.3ZM699.2,744.6c7.3,7.6,16.8,11.4,28.7,11.4s14.2-1.7,20.4-5.2c6.2-3.4,11-8.3,14.2-14.5,3.3-6.2,4.9-14.8,4.9-25.6s-3.7-23.9-11-31.5c-7.4-7.6-16.9-11.4-28.5-11.4s-19.3,3.1-26.5,9.4c-8.7,7.5-13,19.1-13,34.7s3.6,25.2,10.9,32.7h0ZM710,687.6c4.7-5.4,10.7-8,17.8-8s12.9,2.7,17.7,8.1c4.7,5.4,7.1,13.3,7.1,23.7s-2.4,19.3-7.1,24.7c-4.7,5.4-10.6,8.1-17.7,8.1s-13.1-2.7-17.8-8.1c-4.7-5.4-7.1-13.5-7.1-24.3s2.4-18.9,7.1-24.2h0Z"/>
      </g>
    </g>
  </g>
</svg>