<?xml version="1.0" encoding="UTF-8"?>
<svg id="MAC_Viper_XIP" data-name="MAC Viper XIP" xmlns="http://www.w3.org/2000/svg" viewBox="0 0 1024 1024">
  <defs>
    <style>
      .cls-1 {
        fill: #000;
      }

      .cls-1, .cls-2, .cls-3, .cls-4 {
        stroke: #000;
        stroke-width: 1.19px;
      }

      .cls-1, .cls-2, .cls-4 {
        stroke-miterlimit: 10;
      }

      .cls-2 {
        fill: #ccc;
        fill-rule: evenodd;
      }

      .cls-3 {
        fill: none;
        stroke-linecap: round;
        stroke-linejoin: round;
      }

      .cls-4 {
        fill: #fff;
      }
    </style>
  </defs>
  <path class="cls-2" d="M851.03,745.79l-11.58,39.34c-2.13,7.22-8.76,12.16-16.28,12.13l-311.17-1.28-311.17,1.28c-7.52.03-14.16-4.91-16.28-12.13l-11.58-39.34-13.55-46.02c-1-3.41-.15-7.1,2.25-9.72l3.27-3.56-4.48-12.78c-.26-.73-.43-1.49-.51-2.26l-1.91-17.55c-5.96-54.76-5.87-110.01.27-164.75l2.85-25.45,4.34-8.22-3.94-4.82c-2.12-2.59-2.82-6.05-1.88-9.26l13.17-45.13,11.12-38.09c2.1-7.21,8.71-12.16,16.22-12.16h623.61c7.51,0,14.12,4.96,16.22,12.16l11.12,38.09,13.17,45.13c.94,3.21.23,6.67-1.88,9.26l-3.94,4.82,4.34,8.22,2.85,25.45c6.14,54.74,6.23,109.99.27,164.75l-1.91,17.55c-.08.77-.26,1.53-.51,2.26l-4.48,12.78,3.27,3.56c2.4,2.62,3.26,6.31,2.25,9.72l-13.55,46.02M221.81,570.77v-87.17c.01-1.97-.32-3.93-.98-5.79-.66-1.86-1.64-3.58-2.9-5.1-1.26-1.52-2.77-2.8-4.48-3.8-1.7-1-3.57-1.69-5.51-2.04l-10.81-1.87c-1.77.14-3.5.6-5.1,1.34-1.61.75-3.07,1.78-4.31,3.04-1.25,1.26-2.25,2.74-2.98,4.36-.73,1.62-1.16,3.35-1.27,5.12-3.5,15.48-6.13,31.14-7.86,46.91-1.73,15.77-2.57,31.63-2.51,47.5.06,15.87,1.02,31.72,2.87,47.48,1.85,15.76,4.6,31.4,8.22,46.85.43,1.57,1.11,3.06,2.03,4.41.91,1.35,2.04,2.54,3.34,3.52,1.3.98,2.75,1.74,4.3,2.25,1.55.51,3.17.76,4.79.74l9.3-2.36c1.86-.36,3.66-1.02,5.3-1.97,1.65-.95,3.12-2.16,4.37-3.59,1.25-1.43,2.25-3.06,2.96-4.82.71-1.76,1.12-3.63,1.22-5.52l.02-89.47M816.05,466.87h0c-1.94.35-3.8,1.04-5.51,2.04-1.7,1-3.22,2.28-4.47,3.8-1.26,1.52-2.24,3.25-2.9,5.1-.66,1.86-.99,3.82-.98,5.79v176.64c.11,1.9.53,3.76,1.24,5.52.71,1.76,1.71,3.39,2.96,4.82,1.25,1.43,2.72,2.64,4.37,3.59,1.65.95,3.44,1.61,5.3,1.97l9.3,2.36c1.63.02,3.25-.23,4.79-.74,1.55-.51,3-1.26,4.3-2.25,1.3-.98,2.43-2.17,3.34-3.52s1.6-2.84,2.03-4.41c3.62-15.45,6.36-31.09,8.22-46.85,1.85-15.76,2.81-31.61,2.87-47.48.06-15.87-.78-31.73-2.51-47.5-1.73-15.77-4.36-31.43-7.86-46.91-.11-1.77-.55-3.5-1.27-5.12-.73-1.62-1.73-3.09-2.98-4.36-1.24-1.26-2.71-2.29-4.31-3.04-1.61-.75-3.34-1.2-5.1-1.34l-10.81,1.87"/>
  <polyline class="cls-2" points="798.22 436.05 798.22 435.42 798.32 434.37 798.64 433.37 799.16 432.46 799.86 431.68 800.7 431.05 801.66 430.61 802.68 430.38 803.73 430.36 843.85 433.88 886.27 437.59 887.66 437.92 888.91 438.62 889.91 439.64 890.59 440.9 893.35 448.74 895.95 456.63 898.37 464.57 900.62 472.57 902.69 480.61 904.59 488.7 906.32 496.82 907.86 504.98 909.23 513.18 910.42 521.4 911.43 529.64 912.26 537.91 912.91 546.19 913.39 554.48 913.68 562.78 913.79 571.09 913.72 579.4 913.46 587.7 913.03 595.99 912.42 604.28 911.63 612.55 910.66 620.8 909.51 629.02 908.18 637.22 906.67 645.39 904.99 653.52 903.12 661.62 901.09 669.67 898.88 677.68 896.49 685.64 893.93 693.54 891.2 701.38 890.53 702.65 889.53 703.68 888.28 704.39 886.89 704.72 844.16 708.54 803.74 712.16 802.69 712.15 801.66 711.91 800.71 711.48 799.86 710.85 799.17 710.07 798.65 709.15 798.32 708.15 798.22 707.11 798.22 706.48 225.79 706.48 225.79 707.11 225.68 708.15 225.35 709.15 224.83 710.07 224.14 710.85 223.29 711.48 222.34 711.91 221.31 712.15 220.26 712.16 179.84 708.54 137.11 704.72 135.72 704.39 134.47 703.68 133.47 702.65 132.8 701.38 130.07 693.54 127.51 685.64 125.12 677.68 122.91 669.67 120.88 661.62 119.02 653.52 117.33 645.39 115.82 637.22 114.49 629.02 113.34 620.8 112.37 612.55 111.58 604.28 110.97 595.99 110.54 587.7 110.28 579.4 110.21 571.09 110.32 562.78 110.61 554.48 111.09 546.19 111.74 537.91 112.57 529.64 113.58 521.4 114.77 513.18 116.14 504.98 117.68 496.82 119.41 488.7 121.31 480.61 123.38 472.57 125.63 464.57 128.05 456.63 130.65 448.74 133.41 440.9 134.09 439.64 135.09 438.62 136.34 437.92 137.73 437.59 180.15 433.88 220.27 430.36 221.32 430.38 222.34 430.61 223.3 431.05 224.14 431.68 224.83 432.46 225.36 433.37 225.68 434.37 225.79 435.42 225.79 436.05 798.22 436.05"/>
  <path class="cls-3" d="M133.1,571.09h.15M133.26,571.09h.15M132.8,701.38l2.66-7.86M135.45,693.53l2.49-7.91M137.95,685.62l2.33-7.96M140.27,677.66l2.16-8.01M142.43,669.65l1.99-8.05M144.43,661.6l1.82-8.09M146.25,653.51l1.65-8.13M147.91,645.38l1.48-8.16M149.39,637.22l1.31-8.19M150.7,629.03l1.14-8.21M151.85,620.82l.97-8.24M152.82,612.58l.8-8.25M153.62,604.33l.63-8.27M154.24,596.06l.45-8.28M154.69,587.78l.28-8.29M154.97,579.49l.11-8.29M155.08,571.2l-.07-8.29M155.01,562.9l-.24-8.29M154.77,554.61l-.41-8.28M154.36,546.33l-.59-8.27M153.77,538.06l-.76-8.26M153.01,529.8l-.93-8.24M152.08,521.56l-1.1-8.22M150.98,513.34l-1.27-8.19M149.7,505.14l-1.45-8.17M148.26,496.98l-1.62-8.14M146.64,488.84l-1.79-8.1M144.86,480.74l-1.95-8.06M142.9,472.68l-2.12-8.02M140.78,464.66l-2.29-7.97M138.49,456.69l-2.46-7.92M136.03,448.77l-2.62-7.87M890.59,440.9h0c-29.09,84.41-28.88,176.21.62,260.48M225.79,436.05v270.42M798.22,436.05v270.42"/>
  <polyline class="cls-2" points="671.6 1006.93 651.71 1008.58 631.79 1010.02 611.87 1011.26 591.93 1012.29 571.98 1013.12 552.02 1013.75 532.06 1014.17 512.1 1014.38 492.13 1014.17 472.17 1013.75 452.21 1013.12 432.27 1012.29 412.33 1011.26 392.4 1010.02 372.49 1008.58 352.59 1006.93 252.72 833.95 252.3 833.02 252.08 832.04 238.36 720.92 234.44 720.26 234.44 432.53 247.47 428.88 248.84 428.26 249.97 427.26 250.76 425.98 251.14 424.52 253.27 404.79 255.59 385.09 258.1 365.41 260.8 345.75 263.68 326.12 266.75 306.52 270 286.95 273.45 267.41 277.07 247.91 280.89 228.44 284.88 209.01 289.07 189.61 293.43 170.26 297.98 150.95 302.72 131.68 307.64 112.46 319.03 92.8 320.9 14.57 321.02 13.59 321.32 12.66 321.8 11.8 322.43 11.05 323.2 10.44 324.07 9.99 325.01 9.71 325.99 9.62 512.1 10.4 698.2 9.62 699.18 9.71 700.12 9.99 700.99 10.44 701.76 11.05 702.39 11.8 702.87 12.66 703.18 13.59 703.29 14.57 705.16 92.8 716.56 112.46 721.47 131.68 726.21 150.95 730.76 170.26 735.13 189.61 739.31 209.01 743.31 228.44 747.12 247.91 750.75 267.41 754.19 286.95 757.44 306.52 760.51 326.12 763.4 345.75 766.09 365.41 768.6 385.09 770.92 404.79 773.05 424.52 773.43 425.98 774.22 427.26 775.35 428.26 776.72 428.88 789.75 432.53 789.75 720.26 785.83 720.92 772.12 832.04 771.89 833.02 771.47 833.95 671.6 1006.93"/>
  <polyline class="cls-2" points="366.96 194.37 336.15 551.09 382.43 578.71 398.57 576.99 414.73 575.5 430.91 574.23 447.11 573.19 463.32 572.37 479.54 571.78 495.77 571.42 512 571.29 528.23 571.38 544.46 571.7 560.68 572.24 576.9 573.02 593.1 574.01 609.28 575.24 625.45 576.69 641.59 578.37 688.05 551.09 657.58 194.34 609.28 104.19 597.29 101.7 585.24 99.54 573.13 97.7 560.98 96.2 548.79 95.03 536.58 94.2 524.34 93.69 512.1 93.53 499.85 93.69 487.62 94.2 475.4 95.03 463.21 96.2 451.06 97.7 438.95 99.54 426.9 101.7 414.91 104.19 366.96 194.37"/>
  <polyline class="cls-2" points="688.05 551.09 666.36 547.85 644.61 545.06 622.8 542.73 600.95 540.86 579.06 539.45 557.15 538.49 535.23 537.99 513.3 537.95 491.37 538.37 469.46 539.25 447.57 540.58 425.71 542.38 403.9 544.63 382.14 547.33 360.43 550.49 338.8 554.1"/>
  <path class="cls-3" d="M688.05,551.09l-21.69-3.24M666.36,547.85l-21.75-2.78M644.61,545.06l-21.81-2.33M622.8,542.73l-21.85-1.87M600.95,540.86l-21.88-1.41M579.06,539.45l-21.91-.96M557.15,538.49l-21.92-.5M535.23,537.99l-21.93-.04M513.3,537.95l-21.93.42M491.37,538.37l-21.91.88M469.46,539.25l-21.89,1.34M447.57,540.58l-21.86,1.79M425.71,542.38l-21.81,2.25M403.9,544.63l-21.76,2.7M382.14,547.33l-21.7,3.16M360.43,550.49l-21.63,3.61"/>
  <polyline class="cls-2" points="382.43 578.71 382.01 718.53 333.35 868.41 371.79 1008.52"/>
  <polyline class="cls-3" points="382.43 578.71 382.01 718.53 333.35 868.41 371.79 1008.52"/>
  <polyline class="cls-2" points="641.77 578.71 642.18 718.53 690.84 868.41 652.4 1008.52"/>
  <path class="cls-3" d="M641.77,578.71l.42,139.81,48.65,149.88-38.44,140.12M366.96,194.37h-78.94M355.51,564.02l-121.07,50.71M367.19,570.73l-132.75,108.45M657.58,194.34h78.7M671.55,560.78l118.65,49.7M662.16,566.29l127.6,104.24M319.03,92.8h386.13M333.35,868.41l10.7,4.04M344.05,872.44l10.79,3.79M354.84,876.23l10.87,3.53M365.71,879.77l10.95,3.28M376.67,883.05l11.03,3.02M387.69,886.07l11.09,2.77M398.79,888.84l11.15,2.51M409.94,891.35l11.21,2.25M421.15,893.59l11.26,1.99M432.41,895.58l11.3,1.72M443.72,897.3l11.34,1.46M455.06,898.76l11.37,1.19M466.43,899.96l11.4.93M477.82,900.89l11.41.67M489.24,901.55l11.43.4M500.66,901.95l11.43.13M512.1,902.09l11.43-.13M523.53,901.95l11.43-.4M534.96,901.55l11.41-.67M546.37,900.89l11.4-.93M557.77,899.96l11.37-1.19M569.14,898.76l11.34-1.46M580.48,897.3l11.3-1.72M591.78,895.58l11.26-1.99M603.04,893.59l11.21-2.25M614.25,891.35l11.15-2.51M625.41,888.84l11.09-2.77M636.5,886.07l11.03-3.02M647.53,883.05l10.95-3.28M658.48,879.77l10.87-3.53M669.35,876.23l10.79-3.79M680.14,872.44l10.7-4.04"/>
  <rect class="cls-4" x="317.63" y="486.78" width="388.74" height="169.02"/>
  <path class="cls-1" d="M363.49,556.98v-34.88l11.85,34.88h4.89l11.91-34.29v34.29h5.23v-40.97h-7.29l-9.81,28.51c-.99,2.89-1.71,5.08-2.18,6.57-.41-1.34-1.06-3.36-1.96-6.06l-9.7-29.01h-8.16v40.97h5.23ZM407.37,556.98l4.5-12.41h17.13l4.78,12.41h6.18l-16.77-40.97h-5.84l-15.74,40.97h5.76ZM417.94,528.13c.95-2.59,1.69-5.2,2.21-7.83.63,2.22,1.6,5.05,2.91,8.5l4.28,11.35h-13.89l4.5-12.02h0ZM469.25,550.41c-2.11,1.75-4.68,2.63-7.71,2.63-2.5,0-4.82-.64-6.96-1.93-2.14-1.29-3.72-3.23-4.74-5.83-1.02-2.6-1.52-5.64-1.52-9.13,0-2.7.43-5.32,1.29-7.87.86-2.54,2.34-4.57,4.46-6.08,2.11-1.51,4.75-2.26,7.9-2.26,2.74,0,5.01.68,6.82,2.04,1.81,1.36,3.19,3.53,4.14,6.51l5.34-1.26c-1.1-3.78-3.05-6.72-5.84-8.8-2.79-2.09-6.24-3.13-10.34-3.13-3.62,0-6.93.82-9.94,2.47-3.01,1.65-5.33,4.06-6.96,7.24-1.63,3.18-2.45,6.9-2.45,11.17,0,3.91.72,7.57,2.17,10.98,1.44,3.41,3.55,6.01,6.32,7.81,2.77,1.8,6.36,2.7,10.77,2.7s7.88-1.17,10.83-3.51c2.95-2.34,5-5.73,6.13-10.19l-5.42-1.37c-.75,3.45-2.17,6.05-4.28,7.8h0ZM518.81,556.98l16.04-40.97h-5.53l-11.07,29.77c-.84,2.24-1.57,4.47-2.21,6.71-.58-2.09-1.3-4.32-2.15-6.71l-10.65-29.77h-5.87l15.88,40.97h5.56ZM546.06,556.98v-40.97h-5.42v40.97h5.42ZM561.04,556.98v-16.66h10.51c5.79,0,9.8-1.21,12.02-3.62,2.22-2.41,3.33-5.36,3.33-8.85,0-2.03-.41-3.89-1.24-5.59-.83-1.7-1.92-3.01-3.28-3.95-1.36-.94-3.05-1.58-5.06-1.91-1.44-.26-3.51-.39-6.23-.39h-15.46v40.97h5.42ZM561.04,520.84h10.48c2.46,0,4.15.12,5.06.36,1.42.39,2.56,1.2,3.42,2.42.87,1.22,1.3,2.69,1.3,4.4,0,2.37-.74,4.2-2.21,5.51-1.47,1.3-3.96,1.96-7.46,1.96h-10.59v-14.65h0ZM624.48,556.98v-4.84h-25.15v-13.95h22.67v-4.81h-22.67v-12.55h24.2v-4.84h-29.63v40.97h30.58ZM637.48,556.98v-18.19h6.29c1.4,0,2.4.07,3.02.2.84.21,1.66.57,2.47,1.09.81.52,1.73,1.44,2.75,2.74,1.02,1.3,2.33,3.19,3.91,5.65l5.42,8.52h6.82l-7.13-11.15c-1.42-2.18-2.92-4-4.5-5.45-.75-.67-1.84-1.35-3.27-2.04,3.93-.54,6.84-1.81,8.72-3.8,1.88-1.99,2.82-4.44,2.82-7.35,0-2.25-.57-4.31-1.7-6.18-1.14-1.86-2.66-3.16-4.56-3.9-1.9-.74-4.68-1.1-8.33-1.1h-18.17v40.97h5.42ZM637.48,520.53h12.97c3.04,0,5.26.62,6.67,1.87,1.41,1.25,2.11,2.84,2.11,4.78,0,1.32-.36,2.55-1.09,3.68-.73,1.13-1.79,1.95-3.19,2.46-1.4.51-3.34.77-5.81.77h-11.65v-13.56h0Z"/>
  <path class="cls-1" d="M472.11,622.8l10.29-14.28c.39-.56,1.04-1.58,1.96-3.07.61.99,1.21,1.9,1.79,2.74l10.31,14.62h6.71l-15.51-21.66,14.39-19.31h-5.9l-8.25,10.87c-1.25,1.62-2.33,3.18-3.24,4.67-.65-1.17-1.75-2.85-3.3-5.03l-7.43-10.51h-6.46l13.97,19.62-15.85,21.35h6.51ZM514.29,622.8v-40.97h-5.42v40.97h5.42ZM529.27,622.8v-16.66h10.51c5.79,0,9.8-1.21,12.02-3.62,2.22-2.41,3.33-5.36,3.33-8.85,0-2.03-.41-3.89-1.24-5.59-.83-1.7-1.92-3.01-3.28-3.95-1.36-.94-3.05-1.58-5.06-1.91-1.44-.26-3.51-.39-6.23-.39h-15.46v40.97h5.42ZM529.27,586.66h10.48c2.46,0,4.15.12,5.06.36,1.42.39,2.56,1.2,3.42,2.42.87,1.22,1.3,2.69,1.3,4.4,0,2.37-.74,4.2-2.21,5.51-1.47,1.3-3.96,1.96-7.46,1.96h-10.59v-14.65h0Z"/>
</svg>