<?xml version="1.0" encoding="UTF-8"?>
<svg id="EXT_Linear_Pro_Graze_QUAD_-_Thumbnail" data-name="EXT Linear Pro Graze QUAD - Thumbnail" xmlns="http://www.w3.org/2000/svg" viewBox="0 0 1024 1024">
  <defs>
    <style>
      .cls-1, .cls-2 {
        fill: #fff;
      }

      .cls-2, .cls-3 {
        fill-rule: evenodd;
      }

      .cls-4, .cls-5 {
        fill: none;
        stroke: #000;
        stroke-linecap: round;
        stroke-linejoin: round;
      }

      .cls-6, .cls-3 {
        fill: #ccc;
      }

      .cls-5 {
        stroke-width: .04px;
      }
    </style>
  </defs>
  <g id="_4FT" data-name="4FT">
    <rect class="cls-6" x="17.64" y="495.79" width="988.66" height="32.24"/>
    <rect class="cls-4" x="17.64" y="495.79" width="988.66" height="32.24"/>
    <path class="cls-3" d="M996.87,511.92c0-5-4.11-9.11-9.11-9.11s-9.11,4.11-9.11,9.11,4.11,9.11,9.11,9.11,9.11-4.11,9.11-9.11"/>
    <path class="cls-5" d="M996.87,511.92c0-5-4.11-9.11-9.11-9.11s-9.11,4.11-9.11,9.11,4.11,9.11,9.11,9.11,9.11-4.11,9.11-9.11"/>
    <path class="cls-3" d="M966.18,511.92c0-5-4.11-9.11-9.11-9.11s-9.11,4.11-9.11,9.11,4.11,9.11,9.11,9.11,9.11-4.11,9.11-9.11"/>
    <path class="cls-5" d="M966.18,511.92c0-5-4.11-9.11-9.11-9.11s-9.11,4.11-9.11,9.11,4.11,9.11,9.11,9.11,9.11-4.11,9.11-9.11"/>
    <path class="cls-3" d="M935.48,511.92c0-5-4.11-9.11-9.11-9.11s-9.11,4.11-9.11,9.11,4.11,9.11,9.11,9.11,9.11-4.11,9.11-9.11"/>
    <path class="cls-5" d="M935.48,511.92c0-5-4.11-9.11-9.11-9.11s-9.11,4.11-9.11,9.11,4.11,9.11,9.11,9.11,9.11-4.11,9.11-9.11"/>
    <path class="cls-3" d="M904.79,511.92c0-5-4.11-9.11-9.11-9.11s-9.11,4.11-9.11,9.11,4.11,9.11,9.11,9.11,9.11-4.11,9.11-9.11"/>
    <path class="cls-5" d="M904.79,511.92c0-5-4.11-9.11-9.11-9.11s-9.11,4.11-9.11,9.11,4.11,9.11,9.11,9.11,9.11-4.11,9.11-9.11"/>
    <path class="cls-3" d="M874.09,511.92c0-5-4.11-9.11-9.11-9.11s-9.11,4.11-9.11,9.11,4.11,9.11,9.11,9.11,9.11-4.11,9.11-9.11"/>
    <path class="cls-5" d="M874.09,511.92c0-5-4.11-9.11-9.11-9.11s-9.11,4.11-9.11,9.11,4.11,9.11,9.11,9.11,9.11-4.11,9.11-9.11"/>
    <path class="cls-3" d="M843.4,511.92c0-5-4.11-9.11-9.11-9.11s-9.11,4.11-9.11,9.11,4.11,9.11,9.11,9.11,9.11-4.11,9.11-9.11"/>
    <path class="cls-5" d="M843.4,511.92c0-5-4.11-9.11-9.11-9.11s-9.11,4.11-9.11,9.11,4.11,9.11,9.11,9.11,9.11-4.11,9.11-9.11"/>
    <path class="cls-3" d="M812.7,511.92c0-5-4.11-9.11-9.11-9.11s-9.11,4.11-9.11,9.11,4.11,9.11,9.11,9.11,9.11-4.11,9.11-9.11"/>
    <path class="cls-5" d="M812.7,511.92c0-5-4.11-9.11-9.11-9.11s-9.11,4.11-9.11,9.11,4.11,9.11,9.11,9.11,9.11-4.11,9.11-9.11"/>
    <path class="cls-3" d="M782.01,511.91c0-5-4.11-9.11-9.11-9.11s-9.11,4.11-9.11,9.11,4.11,9.11,9.11,9.11,9.11-4.11,9.11-9.11"/>
    <path class="cls-5" d="M782.01,511.91c0-5-4.11-9.11-9.11-9.11s-9.11,4.11-9.11,9.11,4.11,9.11,9.11,9.11,9.11-4.11,9.11-9.11"/>
    <path class="cls-3" d="M751.31,511.91c0-5-4.11-9.11-9.11-9.11s-9.11,4.11-9.11,9.11,4.11,9.11,9.11,9.11,9.11-4.11,9.11-9.11"/>
    <path class="cls-5" d="M751.31,511.91c0-5-4.11-9.11-9.11-9.11s-9.11,4.11-9.11,9.11,4.11,9.11,9.11,9.11,9.11-4.11,9.11-9.11"/>
    <path class="cls-3" d="M720.61,511.91c0-5-4.11-9.11-9.11-9.11s-9.11,4.11-9.11,9.11,4.11,9.11,9.11,9.11,9.11-4.11,9.11-9.11"/>
    <path class="cls-5" d="M720.61,511.91c0-5-4.11-9.11-9.11-9.11s-9.11,4.11-9.11,9.11,4.11,9.11,9.11,9.11,9.11-4.11,9.11-9.11"/>
    <path class="cls-3" d="M689.91,511.91c0-5-4.11-9.11-9.11-9.11s-9.11,4.11-9.11,9.11,4.11,9.11,9.11,9.11,9.11-4.11,9.11-9.11"/>
    <path class="cls-5" d="M689.91,511.91c0-5-4.11-9.11-9.11-9.11s-9.11,4.11-9.11,9.11,4.11,9.11,9.11,9.11,9.11-4.11,9.11-9.11"/>
    <path class="cls-3" d="M659.22,511.91c0-5-4.11-9.11-9.11-9.11s-9.11,4.11-9.11,9.11,4.11,9.11,9.11,9.11,9.11-4.11,9.11-9.11"/>
    <path class="cls-5" d="M659.22,511.91c0-5-4.11-9.11-9.11-9.11s-9.11,4.11-9.11,9.11,4.11,9.11,9.11,9.11,9.11-4.11,9.11-9.11"/>
    <path class="cls-3" d="M628.52,511.91c0-5-4.11-9.11-9.11-9.11s-9.11,4.11-9.11,9.11,4.11,9.11,9.11,9.11,9.11-4.11,9.11-9.11"/>
    <path class="cls-5" d="M628.52,511.91c0-5-4.11-9.11-9.11-9.11s-9.11,4.11-9.11,9.11,4.11,9.11,9.11,9.11,9.11-4.11,9.11-9.11"/>
    <path class="cls-3" d="M597.82,511.91c0-5-4.11-9.11-9.11-9.11s-9.11,4.11-9.11,9.11,4.11,9.11,9.11,9.11,9.11-4.11,9.11-9.11"/>
    <path class="cls-5" d="M597.82,511.91c0-5-4.11-9.11-9.11-9.11s-9.11,4.11-9.11,9.11,4.11,9.11,9.11,9.11,9.11-4.11,9.11-9.11"/>
    <path class="cls-3" d="M567.13,511.91c0-5-4.11-9.11-9.11-9.11s-9.11,4.11-9.11,9.11,4.11,9.11,9.11,9.11,9.11-4.11,9.11-9.11"/>
    <path class="cls-5" d="M567.13,511.91c0-5-4.11-9.11-9.11-9.11s-9.11,4.11-9.11,9.11,4.11,9.11,9.11,9.11,9.11-4.11,9.11-9.11"/>
    <path class="cls-3" d="M536.43,511.91c0-5-4.11-9.11-9.11-9.11s-9.11,4.11-9.11,9.11,4.11,9.11,9.11,9.11,9.11-4.11,9.11-9.11"/>
    <path class="cls-5" d="M536.43,511.91c0-5-4.11-9.11-9.11-9.11s-9.11,4.11-9.11,9.11,4.11,9.11,9.11,9.11,9.11-4.11,9.11-9.11"/>
    <path class="cls-3" d="M505.74,511.91c0-5-4.11-9.11-9.11-9.11s-9.11,4.11-9.11,9.11,4.11,9.11,9.11,9.11,9.11-4.11,9.11-9.11"/>
    <path class="cls-5" d="M505.74,511.91c0-5-4.11-9.11-9.11-9.11s-9.11,4.11-9.11,9.11,4.11,9.11,9.11,9.11,9.11-4.11,9.11-9.11"/>
    <path class="cls-3" d="M475.04,511.91c0-5-4.11-9.11-9.11-9.11s-9.11,4.11-9.11,9.11,4.11,9.11,9.11,9.11,9.11-4.11,9.11-9.11"/>
    <path class="cls-5" d="M475.04,511.91c0-5-4.11-9.11-9.11-9.11s-9.11,4.11-9.11,9.11,4.11,9.11,9.11,9.11,9.11-4.11,9.11-9.11"/>
    <path class="cls-3" d="M444.34,511.91c0-5-4.11-9.11-9.11-9.11s-9.11,4.11-9.11,9.11,4.11,9.11,9.11,9.11,9.11-4.11,9.11-9.11"/>
    <path class="cls-5" d="M444.34,511.91c0-5-4.11-9.11-9.11-9.11s-9.11,4.11-9.11,9.11,4.11,9.11,9.11,9.11,9.11-4.11,9.11-9.11"/>
    <path class="cls-3" d="M413.65,511.91c0-5-4.11-9.11-9.11-9.11s-9.11,4.11-9.11,9.11,4.11,9.11,9.11,9.11,9.11-4.11,9.11-9.11"/>
    <path class="cls-5" d="M413.65,511.91c0-5-4.11-9.11-9.11-9.11s-9.11,4.11-9.11,9.11,4.11,9.11,9.11,9.11,9.11-4.11,9.11-9.11"/>
    <path class="cls-3" d="M382.95,511.9c0-5-4.11-9.11-9.11-9.11s-9.11,4.11-9.11,9.11,4.11,9.11,9.11,9.11,9.11-4.11,9.11-9.11"/>
    <path class="cls-5" d="M382.95,511.9c0-5-4.11-9.11-9.11-9.11s-9.11,4.11-9.11,9.11,4.11,9.11,9.11,9.11,9.11-4.11,9.11-9.11"/>
    <path class="cls-3" d="M352.25,511.9c0-5-4.11-9.11-9.11-9.11s-9.11,4.11-9.11,9.11,4.11,9.11,9.11,9.11,9.11-4.11,9.11-9.11"/>
    <path class="cls-5" d="M352.25,511.9c0-5-4.11-9.11-9.11-9.11s-9.11,4.11-9.11,9.11,4.11,9.11,9.11,9.11,9.11-4.11,9.11-9.11"/>
    <path class="cls-3" d="M321.56,511.9c0-5-4.11-9.11-9.11-9.11s-9.11,4.11-9.11,9.11,4.11,9.11,9.11,9.11,9.11-4.11,9.11-9.11"/>
    <path class="cls-5" d="M321.56,511.9c0-5-4.11-9.11-9.11-9.11s-9.11,4.11-9.11,9.11,4.11,9.11,9.11,9.11,9.11-4.11,9.11-9.11"/>
    <path class="cls-3" d="M290.86,511.9c0-5-4.11-9.11-9.11-9.11s-9.11,4.11-9.11,9.11,4.11,9.11,9.11,9.11,9.11-4.11,9.11-9.11"/>
    <path class="cls-5" d="M290.86,511.9c0-5-4.11-9.11-9.11-9.11s-9.11,4.11-9.11,9.11,4.11,9.11,9.11,9.11,9.11-4.11,9.11-9.11"/>
    <path class="cls-3" d="M260.17,511.9c0-5-4.11-9.11-9.11-9.11s-9.11,4.11-9.11,9.11,4.11,9.11,9.11,9.11,9.11-4.11,9.11-9.11"/>
    <path class="cls-5" d="M260.17,511.9c0-5-4.11-9.11-9.11-9.11s-9.11,4.11-9.11,9.11,4.11,9.11,9.11,9.11,9.11-4.11,9.11-9.11"/>
    <path class="cls-3" d="M229.47,511.9c0-5-4.11-9.11-9.11-9.11s-9.11,4.11-9.11,9.11,4.11,9.11,9.11,9.11,9.11-4.11,9.11-9.11"/>
    <path class="cls-5" d="M229.47,511.9c0-5-4.11-9.11-9.11-9.11s-9.11,4.11-9.11,9.11,4.11,9.11,9.11,9.11,9.11-4.11,9.11-9.11"/>
    <path class="cls-3" d="M198.77,511.9c0-5-4.11-9.11-9.11-9.11s-9.11,4.11-9.11,9.11,4.11,9.11,9.11,9.11,9.11-4.11,9.11-9.11"/>
    <path class="cls-5" d="M198.77,511.9c0-5-4.11-9.11-9.11-9.11s-9.11,4.11-9.11,9.11,4.11,9.11,9.11,9.11,9.11-4.11,9.11-9.11"/>
    <path class="cls-3" d="M168.08,511.9c0-5-4.11-9.11-9.11-9.11s-9.11,4.11-9.11,9.11,4.11,9.11,9.11,9.11,9.11-4.11,9.11-9.11"/>
    <path class="cls-5" d="M168.08,511.9c0-5-4.11-9.11-9.11-9.11s-9.11,4.11-9.11,9.11,4.11,9.11,9.11,9.11,9.11-4.11,9.11-9.11"/>
    <path class="cls-3" d="M137.38,511.9c0-5-4.11-9.11-9.11-9.11s-9.11,4.11-9.11,9.11,4.11,9.11,9.11,9.11,9.11-4.11,9.11-9.11"/>
    <path class="cls-5" d="M137.38,511.9c0-5-4.11-9.11-9.11-9.11s-9.11,4.11-9.11,9.11,4.11,9.11,9.11,9.11,9.11-4.11,9.11-9.11"/>
    <path class="cls-3" d="M106.68,511.9c0-5-4.11-9.11-9.11-9.11s-9.11,4.11-9.11,9.11,4.11,9.11,9.11,9.11,9.11-4.11,9.11-9.11"/>
    <path class="cls-5" d="M106.68,511.9c0-5-4.11-9.11-9.11-9.11s-9.11,4.11-9.11,9.11,4.11,9.11,9.11,9.11,9.11-4.11,9.11-9.11"/>
    <path class="cls-3" d="M75.99,511.9c0-5-4.11-9.11-9.11-9.11s-9.11,4.11-9.11,9.11,4.11,9.11,9.11,9.11,9.11-4.11,9.11-9.11"/>
    <path class="cls-5" d="M75.99,511.9c0-5-4.11-9.11-9.11-9.11s-9.11,4.11-9.11,9.11,4.11,9.11,9.11,9.11,9.11-4.11,9.11-9.11"/>
    <path class="cls-3" d="M45.29,511.9c0-5-4.11-9.11-9.11-9.11s-9.11,4.11-9.11,9.11,4.11,9.11,9.11,9.11,9.11-4.11,9.11-9.11"/>
    <path class="cls-5" d="M45.29,511.9c0-5-4.11-9.11-9.11-9.11s-9.11,4.11-9.11,9.11,4.11,9.11,9.11,9.11,9.11-4.11,9.11-9.11"/>
    <rect class="cls-1" x="431.4" y="499.86" width="161.15" height="24.17"/>
    <rect class="cls-4" x="431.4" y="499.86" width="161.15" height="24.17"/>
    <polyline class="cls-2" points="441.51 507.04 588.12 507.04 588.12 516.85 441.51 516.85 441.51 507.04"/>
    <path d="M446.74,514.72v-.72h-3.75v-2.08h3.38v-.72h-3.38v-1.87h3.61v-.72h-4.41v6.1h4.56Zm1.43,0l1.16-1.74,.24,.37,.91,1.37h.92l-1.64-2.34,1.53-2.08h-.9l-.75,1.05c-.1,.14-.22,.3-.34,.49-.08-.13-.18-.3-.31-.5l-.68-1.04h-.94l1.49,2.12-1.62,2.3h.91Zm5.16-.64c-.11,0-.2-.02-.26-.05-.06-.04-.1-.08-.13-.15-.03-.06-.04-.2-.04-.41v-2.59h.75v-.58h-.75v-1.54l-.75,.45v1.1h-.55v.58h.55v2.54c0,.45,.03,.74,.09,.88,.06,.14,.17,.25,.32,.34,.15,.09,.36,.13,.63,.13,.17,0,.36-.02,.57-.07l-.11-.66c-.14,.02-.25,.03-.33,.03h0Zm3.63-.09c-.19,.14-.43,.22-.7,.22-.37,0-.68-.13-.92-.39-.25-.26-.38-.63-.41-1.12h3.3c0-.09,0-.16,0-.2,0-.73-.19-1.3-.56-1.7-.37-.4-.86-.6-1.45-.6s-1.11,.21-1.49,.62c-.38,.41-.57,.99-.57,1.73s.19,1.28,.57,1.68c.38,.4,.89,.6,1.54,.6,.51,0,.94-.12,1.27-.37,.33-.25,.56-.6,.68-1.05l-.77-.1c-.11,.32-.27,.55-.46,.69h0Zm-1.61-2.83c.23-.23,.52-.35,.87-.35,.38,0,.69,.14,.93,.43,.16,.19,.25,.46,.28,.84h-2.47c.02-.39,.15-.69,.39-.92h0Zm4.53,3.56v-2.32c0-.32,.04-.61,.12-.87,.06-.17,.15-.31,.28-.41,.13-.1,.28-.15,.44-.15,.18,0,.37,.05,.55,.16l.26-.7c-.26-.16-.52-.24-.77-.24-.17,0-.34,.05-.48,.15s-.3,.31-.48,.62v-.67h-.67v4.42h.75Zm2.85-5.24v-.86h-.75v.86h.75Zm0,5.24v-4.42h-.75v4.42h.75Zm1.43-.5c.38,.4,.88,.6,1.5,.6,.39,0,.74-.09,1.07-.27,.33-.18,.57-.43,.75-.76,.17-.33,.26-.77,.26-1.34,0-.7-.19-1.25-.58-1.65-.39-.4-.88-.6-1.49-.6-.55,0-1.01,.16-1.39,.49-.46,.39-.68,1-.68,1.82,0,.75,.19,1.32,.57,1.72h0Zm.57-2.99c.25-.28,.56-.42,.93-.42s.68,.14,.93,.42c.25,.28,.37,.7,.37,1.24,0,.58-.12,1.01-.37,1.29-.25,.28-.56,.42-.93,.42s-.69-.14-.93-.42c-.25-.28-.37-.71-.37-1.27s.12-.99,.37-1.27h0Zm4.62,3.48v-2.32c0-.32,.04-.61,.12-.87,.06-.17,.15-.31,.28-.41,.13-.1,.28-.15,.44-.15,.18,0,.37,.05,.55,.16l.26-.7c-.26-.16-.52-.24-.77-.24-.17,0-.34,.05-.48,.15s-.3,.31-.48,.62v-.67h-.67v4.42h.75Zm8.34,0v-.72h-3.01v-5.38h-.81v6.1h3.81Zm1.62-5.24v-.86h-.75v.86h.75Zm0,5.24v-4.42h-.75v4.42h.75Zm1.89,0v-2.42c0-.57,.12-.95,.35-1.15,.23-.2,.51-.3,.83-.3,.2,0,.37,.05,.52,.14,.15,.09,.25,.21,.31,.36,.06,.15,.09,.38,.09,.68v2.69h.75v-2.72c0-.35-.01-.59-.04-.73-.04-.21-.12-.4-.23-.55-.11-.16-.28-.28-.5-.38-.22-.1-.47-.14-.73-.14-.61,0-1.08,.24-1.41,.73v-.63h-.67v4.42h.75Zm6.56-.73c-.19,.14-.43,.22-.7,.22-.37,0-.68-.13-.92-.39-.25-.26-.38-.63-.41-1.12h3.3c0-.09,0-.16,0-.2,0-.73-.19-1.3-.56-1.7-.37-.4-.86-.6-1.45-.6s-1.11,.21-1.49,.62c-.38,.41-.57,.99-.57,1.73s.19,1.28,.57,1.68c.38,.4,.89,.6,1.54,.6,.51,0,.94-.12,1.27-.37,.33-.25,.56-.6,.68-1.05l-.77-.1c-.11,.32-.27,.55-.46,.69h0Zm-1.61-2.83c.23-.23,.52-.35,.87-.35,.38,0,.69,.14,.93,.43,.16,.19,.25,.46,.28,.84h-2.47c.02-.39,.15-.69,.39-.92h0Zm6.82,3.56h.78c-.09-.17-.16-.35-.19-.53-.03-.18-.05-.63-.05-1.32v-1c0-.33-.01-.56-.04-.69-.04-.21-.12-.38-.23-.51-.11-.13-.28-.25-.52-.34-.24-.09-.54-.13-.92-.13s-.71,.05-1,.16c-.29,.1-.51,.25-.66,.45-.15,.19-.26,.45-.33,.76l.73,.1c.08-.31,.2-.53,.37-.66,.17-.12,.43-.19,.78-.19,.38,0,.66,.08,.85,.25,.14,.12,.21,.34,.21,.65,0,.03,0,.09,0,.2-.29,.1-.73,.19-1.34,.26-.3,.04-.52,.07-.67,.11-.2,.06-.38,.14-.54,.25-.16,.11-.29,.25-.39,.43-.1,.18-.15,.38-.15,.59,0,.37,.13,.67,.39,.91,.26,.24,.63,.36,1.12,.36,.29,0,.57-.05,.83-.15,.26-.1,.52-.26,.8-.5,.02,.21,.07,.39,.15,.55h0Zm-.21-1.94c0,.33-.04,.58-.12,.75-.11,.22-.27,.39-.5,.52-.22,.13-.48,.19-.77,.19s-.51-.07-.66-.2c-.15-.13-.23-.3-.23-.5,0-.13,.03-.25,.1-.36,.07-.11,.17-.19,.3-.24,.13-.06,.35-.11,.65-.15,.54-.08,.95-.17,1.22-.28v.27h0Zm2.66,1.94v-2.32c0-.32,.04-.61,.12-.87,.06-.17,.15-.31,.28-.41,.13-.1,.28-.15,.44-.15,.18,0,.37,.05,.55,.16l.26-.7c-.26-.16-.52-.24-.77-.24-.17,0-.34,.05-.48,.15s-.3,.31-.48,.62v-.67h-.67v4.42h.75Zm5.37,0v-2.48h1.57c.86,0,1.46-.18,1.79-.54,.33-.36,.5-.8,.5-1.32,0-.3-.06-.58-.19-.83-.12-.25-.29-.45-.49-.59-.2-.14-.45-.24-.75-.29-.21-.04-.52-.06-.93-.06h-2.3v6.1h.81Zm0-5.38h1.56c.37,0,.62,.02,.75,.05,.21,.06,.38,.18,.51,.36,.13,.18,.19,.4,.19,.66,0,.35-.11,.63-.33,.82-.22,.19-.59,.29-1.11,.29h-1.58v-2.18h0Zm5.53,5.38v-2.32c0-.32,.04-.61,.12-.87,.06-.17,.15-.31,.28-.41,.13-.1,.28-.15,.44-.15,.18,0,.37,.05,.55,.16l.26-.7c-.26-.16-.52-.24-.77-.24-.17,0-.34,.05-.48,.15s-.3,.31-.48,.62v-.67h-.67v4.42h.75Zm2.39-.5c.38,.4,.88,.6,1.5,.6,.39,0,.74-.09,1.07-.27,.33-.18,.57-.43,.75-.76,.17-.33,.26-.77,.26-1.34,0-.7-.19-1.25-.58-1.65-.39-.4-.88-.6-1.49-.6-.55,0-1.01,.16-1.39,.49-.46,.39-.68,1-.68,1.82,0,.75,.19,1.32,.57,1.72h0Zm.57-2.99c.25-.28,.56-.42,.93-.42s.68,.14,.93,.42c.25,.28,.37,.7,.37,1.24,0,.58-.12,1.01-.37,1.29-.25,.28-.56,.42-.93,.42s-.69-.14-.93-.42c-.25-.28-.37-.71-.37-1.27s.12-.99,.37-1.27h0Zm11,1.09v1.14c-.17,.15-.42,.3-.76,.43-.33,.13-.67,.2-1.02,.2-.4,0-.78-.09-1.14-.27-.36-.18-.63-.45-.82-.82s-.28-.82-.28-1.37c0-.44,.08-.85,.23-1.23,.09-.22,.22-.42,.39-.6,.17-.18,.38-.33,.65-.44,.27-.11,.59-.17,.96-.17,.31,0,.59,.05,.84,.16,.25,.11,.45,.25,.58,.43,.14,.18,.25,.42,.34,.73l.73-.2c-.11-.41-.26-.74-.46-1-.2-.26-.48-.45-.84-.6-.36-.14-.76-.21-1.2-.21-.61,0-1.15,.12-1.61,.37s-.82,.63-1.07,1.15c-.25,.51-.37,1.07-.37,1.66s.12,1.14,.37,1.63c.25,.49,.62,.86,1.11,1.11,.49,.26,1.03,.39,1.63,.39,.44,0,.88-.08,1.3-.24,.42-.16,.83-.4,1.23-.71v-2.27h-2.59v.72h1.79Zm2.63,2.39v-2.32c0-.32,.04-.61,.12-.87,.06-.17,.15-.31,.28-.41,.13-.1,.28-.15,.44-.15,.18,0,.37,.05,.55,.16l.26-.7c-.26-.16-.52-.24-.77-.24-.17,0-.34,.05-.48,.15s-.3,.31-.48,.62v-.67h-.67v4.42h.75Zm5.13,0h.78c-.09-.17-.16-.35-.19-.53-.03-.18-.05-.63-.05-1.32v-1c0-.33-.01-.56-.04-.69-.04-.21-.12-.38-.23-.51-.11-.13-.28-.25-.52-.34-.24-.09-.54-.13-.92-.13s-.71,.05-1,.16c-.29,.1-.51,.25-.66,.45-.15,.19-.26,.45-.33,.76l.73,.1c.08-.31,.2-.53,.37-.66,.17-.12,.43-.19,.78-.19,.38,0,.66,.08,.85,.25,.14,.12,.21,.34,.21,.65,0,.03,0,.09,0,.2-.29,.1-.73,.19-1.34,.26-.3,.04-.52,.07-.67,.11-.2,.06-.38,.14-.54,.25-.16,.11-.29,.25-.39,.43-.1,.18-.15,.38-.15,.59,0,.37,.13,.67,.39,.91,.26,.24,.63,.36,1.12,.36,.29,0,.57-.05,.83-.15,.26-.1,.52-.26,.8-.5,.02,.21,.07,.39,.15,.55h0Zm-.21-1.94c0,.33-.04,.58-.12,.75-.11,.22-.27,.39-.5,.52-.22,.13-.48,.19-.77,.19s-.51-.07-.66-.2c-.15-.13-.23-.3-.23-.5,0-.13,.03-.25,.1-.36,.07-.11,.17-.19,.3-.24,.13-.06,.35-.11,.65-.15,.54-.08,.95-.17,1.22-.28v.27h0Zm5.44,1.94v-.65h-2.04c-.29,0-.61,.01-.95,.04l.46-.51,2.39-2.81v-.5h-3.61v.61h1.8c.24,0,.53,0,.85-.02l-2.81,3.23v.61h3.91Zm3.31-.73c-.19,.14-.43,.22-.7,.22-.37,0-.68-.13-.92-.39-.25-.26-.38-.63-.41-1.12h3.3c0-.09,0-.16,0-.2,0-.73-.19-1.3-.56-1.7-.37-.4-.86-.6-1.45-.6s-1.11,.21-1.49,.62c-.38,.41-.57,.99-.57,1.73s.19,1.28,.57,1.68c.38,.4,.89,.6,1.54,.6,.51,0,.94-.12,1.27-.37,.33-.25,.56-.6,.68-1.05l-.77-.1c-.11,.32-.27,.55-.46,.69h0Zm-1.61-2.83c.23-.23,.52-.35,.87-.35,.38,0,.69,.14,.93,.43,.16,.19,.25,.46,.28,.84h-2.47c.02-.39,.15-.69,.39-.92h0Zm11.57,1.86c.15-.4,.23-.85,.23-1.36,0-.61-.12-1.15-.36-1.63-.24-.48-.58-.86-1.03-1.12-.45-.27-.96-.4-1.52-.4s-1.06,.13-1.51,.39c-.45,.26-.8,.63-1.04,1.13-.24,.49-.37,1.04-.37,1.64s.12,1.15,.36,1.63c.24,.48,.59,.86,1.04,1.12s.95,.4,1.5,.4,1.05-.13,1.5-.38c.44,.34,.87,.59,1.31,.75l.24-.56c-.32-.12-.66-.31-1.04-.57,.31-.3,.54-.65,.69-1.05h0Zm-2.66,.6c.28,.07,.55,.19,.8,.35-.26,.11-.53,.16-.82,.16-.61,0-1.11-.21-1.51-.64-.39-.42-.59-1.03-.59-1.83s.2-1.43,.6-1.85c.4-.41,.9-.62,1.5-.62,.4,0,.77,.1,1.09,.31,.32,.2,.57,.49,.74,.86,.17,.37,.25,.8,.25,1.29,0,.87-.24,1.52-.71,1.95-.3-.26-.69-.45-1.15-.58l-.2,.59h0Zm7.99-1.48c0,.77-.13,1.28-.38,1.55-.25,.27-.68,.4-1.27,.4-.35,0-.64-.07-.88-.2-.24-.14-.41-.33-.51-.58-.1-.25-.15-.64-.15-1.17v-3.52h-.81v3.53c0,.65,.08,1.16,.23,1.53,.16,.37,.41,.66,.78,.86,.36,.2,.83,.3,1.4,.3s1.06-.11,1.43-.34c.36-.23,.61-.52,.75-.88,.14-.36,.21-.85,.21-1.46v-3.53h-.81v3.52h0Zm2.34,2.58l.67-1.85h2.55l.71,1.85h.92l-2.5-6.1h-.87l-2.34,6.1h.86Zm1.57-4.3c.14-.39,.25-.77,.33-1.17,.09,.33,.24,.75,.43,1.27l.64,1.69h-2.07l.67-1.79h0Zm6.13,4.3c.37,0,.7-.03,.98-.1,.28-.07,.53-.17,.73-.31,.2-.13,.39-.32,.56-.55,.17-.23,.31-.53,.42-.89s.16-.77,.16-1.23c0-.54-.08-1.03-.24-1.45-.16-.42-.4-.77-.72-1.04-.25-.21-.55-.36-.9-.44-.25-.06-.61-.09-1.09-.09h-2.1v6.1h2.2Zm-1.39-5.38h1.28c.48,0,.83,.04,1.05,.12,.3,.12,.55,.35,.76,.69,.21,.34,.31,.83,.31,1.47,0,.46-.05,.85-.16,1.18-.11,.32-.26,.58-.45,.77-.14,.14-.32,.24-.55,.32s-.54,.11-.95,.11h-1.3v-4.66h0Zm9.64,3.55v-.75h-2.3v.75h2.3Zm6.14,1.83v-1.46h.82v-.69h-.82v-3.96h-.61l-2.79,3.96v.69h2.65v1.46h.75Zm-2.66-2.15l1.91-2.75v2.75h-1.91Zm5.4,2.15v-2.77h2.86v-.72h-2.86v-1.89h3.31v-.72h-4.12v6.1h.81Zm6.72,0v-5.38h2.02v-.72h-4.84v.72h2.01v5.38h.81Z"/>
  </g>
</svg>