<?xml version="1.0" encoding="utf-8"?>
<!-- Generator: Adobe Illustrator 26.2.0, SVG Export Plug-In . SVG Version: 6.00 Build 0)  -->
<svg version="1.1" id="ERA_150_Wash_-_Thumbnail_00000135692384968299763830000007088186559570623919_"
	 xmlns="http://www.w3.org/2000/svg" xmlns:xlink="http://www.w3.org/1999/xlink" x="0px" y="0px" viewBox="0 0 1024 1024"
	 style="enable-background:new 0 0 1024 1024;" xml:space="preserve">
<style type="text/css">
	.st0{fill-rule:evenodd;clip-rule:evenodd;fill:#CCCCCC;stroke:#000000;stroke-miterlimit:10;}
	.st1{fill:none;stroke:#000000;stroke-linecap:round;stroke-linejoin:round;stroke-miterlimit:10;}
	.st2{fill-rule:evenodd;clip-rule:evenodd;fill:#FFFFFF;stroke:#000000;stroke-miterlimit:10;}
	.st3{stroke:#000000;stroke-miterlimit:10;}
</style>
<g id="ERA_150_Wash_-_Thumbnail">
	<path class="st0" d="M1009.2,512L1009.2,512c-0.2,22.8-1.4,45.6-3.7,68.3c-2.3,22.7-5.7,45.3-10.2,67.7
		c-4.5,22.4-10,44.5-16.6,66.4c-6.6,21.9-14.2,43.4-22.8,64.5l-58.6,26.2l-21.5,19.4H149.2l-21.5-19.4l-58.6-26.2
		c-8.6-21.1-16.2-42.7-22.8-64.5c-6.6-21.9-12.1-44-16.6-66.4c-4.5-22.4-7.9-45-10.2-67.7c-2.3-22.7-3.6-45.5-3.7-68.3
		c0.2-22.8,1.4-45.6,3.7-68.3c2.3-22.7,5.7-45.3,10.2-67.7c4.5-22.4,10-44.5,16.6-66.4c6.6-21.9,14.2-43.4,22.8-64.5l58.6-26.2
		l21.5-19.4h726.5l21.5,19.4l58.6,26.2c8.6,21.1,16.3,42.7,22.8,64.5c6.6,21.9,12.1,44,16.6,66.4c4.5,22.4,7.9,45,10.2,67.7
		C1007.8,466.4,1009.1,489.2,1009.2,512 M62.9,369.6L62.9,369.6c-2.7,11.7-5.3,23.5-7.7,35.3c-2.4,11.8-4.7,23.6-6.8,35.5
		c-2.1,11.9-4,23.8-5.8,35.7c-1.8,11.9-3.4,23.9-4.8,35.8c1.4,12,3,23.9,4.8,35.8c1.8,11.9,3.7,23.8,5.8,35.7
		c2.1,11.9,4.4,23.7,6.8,35.5c2.4,11.8,5,23.6,7.7,35.3l58.1,2.1l4.2-144.5L121,367.5L62.9,369.6 M904,656.5l58.1-2.1
		c2.7-11.7,5.3-23.5,7.7-35.3c2.4-11.8,4.7-23.7,6.8-35.5c2.1-11.9,4-23.8,5.8-35.7c1.8-11.9,3.4-23.9,4.8-35.8
		c-1.4-12-3-23.9-4.8-35.8c-1.8-11.9-3.7-23.8-5.8-35.7c-2.1-11.9-4.4-23.7-6.8-35.5c-2.4-11.8-5-23.6-7.7-35.3l-58.1-2.1L899.8,512
		L904,656.5"/>
	<path class="st1" d="M1009.2,512L1009.2,512c-0.2,22.8-1.4,45.6-3.7,68.3c-2.3,22.7-5.7,45.3-10.2,67.7
		c-4.5,22.4-10,44.5-16.6,66.4c-6.6,21.9-14.2,43.4-22.8,64.5l-58.6,26.2l-21.5,19.4H149.2l-21.5-19.4l-58.6-26.2
		c-8.6-21.1-16.2-42.7-22.8-64.5c-6.6-21.9-12.1-44-16.6-66.4c-4.5-22.4-7.9-45-10.2-67.7c-2.3-22.7-3.6-45.5-3.7-68.3
		c0.2-22.8,1.4-45.6,3.7-68.3c2.3-22.7,5.7-45.3,10.2-67.7c4.5-22.4,10-44.5,16.6-66.4c6.6-21.9,14.2-43.4,22.8-64.5l58.6-26.2
		l21.5-19.4h726.5l21.5,19.4l58.6,26.2c8.6,21.1,16.3,42.7,22.8,64.5c6.6,21.9,12.1,44,16.6,66.4c4.5,22.4,7.9,45,10.2,67.7
		C1007.8,466.4,1009.1,489.2,1009.2,512 M62.9,369.6L62.9,369.6c-2.7,11.7-5.3,23.5-7.7,35.3c-2.4,11.8-4.7,23.6-6.8,35.5
		c-2.1,11.9-4,23.8-5.8,35.7c-1.8,11.9-3.4,23.9-4.8,35.8c1.4,12,3,23.9,4.8,35.8c1.8,11.9,3.7,23.8,5.8,35.7
		c2.1,11.9,4.4,23.7,6.8,35.5c2.4,11.8,5,23.6,7.7,35.3l58.1,2.1l4.2-144.5L121,367.5L62.9,369.6 M904,656.5l58.1-2.1
		c2.7-11.7,5.3-23.5,7.7-35.3c2.4-11.8,4.7-23.7,6.8-35.5c2.1-11.9,4-23.8,5.8-35.7c1.8-11.9,3.4-23.9,4.8-35.8
		c-1.4-12-3-23.9-4.8-35.8c-1.8-11.9-3.7-23.8-5.8-35.7c-2.1-11.9-4.4-23.7-6.8-35.5c-2.4-11.8-5-23.6-7.7-35.3l-58.1-2.1L899.8,512
		L904,656.5"/>
	<polyline class="st0" points="149.7,367.4 875.3,367.4 875.3,656.6 149.7,656.6 149.7,367.4 	"/>
	<polygon class="st1" points="149.7,367.4 875.3,367.4 875.3,656.6 149.7,656.6 149.7,367.4 	"/>
	<path class="st0" d="M41.1,366.8l108.6,0.7l7.1,144.6l-7.1,144.6l-108.6,0.7c-5.8-11.2-10.9-22.7-15.2-34.4
		c-4.4-11.8-8-23.8-10.9-36.1c-2.9-12.2-5-24.6-6.3-37.1C7.4,537.1,6.8,524.6,7,512c-0.2-12.6,0.3-25.1,1.7-37.6
		c1.3-12.5,3.4-24.9,6.3-37.1c2.9-12.2,6.5-24.3,10.9-36.1C30.3,389.4,35.3,377.9,41.1,366.8"/>
	<path class="st1" d="M41.1,366.8l108.6,0.7l7.1,144.6l-7.1,144.6l-108.6,0.7c-5.8-11.2-10.9-22.7-15.2-34.4
		c-4.4-11.8-8-23.8-10.9-36.1c-2.9-12.2-5-24.6-6.3-37.1C7.4,537.1,6.8,524.6,7,512c-0.2-12.6,0.3-25.1,1.7-37.6
		c1.3-12.5,3.4-24.9,6.3-37.1c2.9-12.2,6.5-24.3,10.9-36.1C30.3,389.4,35.3,377.9,41.1,366.8"/>
	<path class="st0" d="M41.1,366.8L41.1,366.8c1,0.2,1.9,0.5,2.8,1c0.9,0.4,1.7,1,2.5,1.7c0.8,0.7,1.4,1.4,2,2.2
		c0.6,0.8,1,1.7,1.4,2.7c2.3,7.1,4.3,14.3,6,21.6c1.7,7.3,3.1,14.7,4.1,22.1c1.1,7.4,1.8,14.9,2.2,22.3c0.4,7.5,0.5,15,0.3,22.5V512
		l0,49.2c0.2,7.5,0.2,15-0.3,22.5c-0.4,7.5-1.1,14.9-2.2,22.3c-1.1,7.4-2.4,14.8-4.1,22.1c-1.7,7.3-3.7,14.5-6,21.6
		c-0.3,0.9-0.8,1.8-1.4,2.7c-0.6,0.8-1.2,1.6-2,2.2c-0.8,0.7-1.6,1.2-2.5,1.7c-0.9,0.4-1.9,0.8-2.8,1"/>
	<path class="st1" d="M41.1,366.8L41.1,366.8c1,0.2,1.9,0.5,2.8,1c0.9,0.4,1.7,1,2.5,1.7c0.8,0.7,1.4,1.4,2,2.2
		c0.6,0.8,1,1.7,1.4,2.7c2.3,7.1,4.3,14.3,6,21.6c1.7,7.3,3.1,14.7,4.1,22.1c1.1,7.4,1.8,14.9,2.2,22.3c0.4,7.5,0.5,15,0.3,22.5V512
		l0,49.2c0.2,7.5,0.2,15-0.3,22.5c-0.4,7.5-1.1,14.9-2.2,22.3c-1.1,7.4-2.4,14.8-4.1,22.1c-1.7,7.3-3.7,14.5-6,21.6
		c-0.3,0.9-0.8,1.8-1.4,2.7c-0.6,0.8-1.2,1.6-2,2.2c-0.8,0.7-1.6,1.2-2.5,1.7c-0.9,0.4-1.9,0.8-2.8,1"/>
	<path class="st0" d="M40.3,370L40.3,370c0.7,0.1,1.4,0.4,2,0.7c0.6,0.3,1.2,0.7,1.8,1.2c0.5,0.5,1,1,1.4,1.6c0.4,0.6,0.7,1.2,1,1.9
		c2.3,7,4.3,14.2,5.9,21.4c1.7,7.2,3,14.5,4.1,21.8c1,7.3,1.8,14.7,2.2,22.1c0.4,7.4,0.5,14.8,0.2,22.2l0,0.1V512l0,49.2l0,0.1
		c0.2,7.4,0.2,14.8-0.2,22.2c-0.4,7.4-1.1,14.7-2.2,22.1c-1,7.3-2.4,14.6-4.1,21.8c-1.7,7.2-3.6,14.3-5.9,21.4
		c-0.2,0.7-0.6,1.3-1,1.9c-0.4,0.6-0.9,1.1-1.4,1.6c-0.5,0.5-1.1,0.9-1.8,1.2c-0.6,0.3-1.3,0.5-2,0.7"/>
	<path class="st1" d="M40.3,370L40.3,370c0.7,0.1,1.4,0.4,2,0.7c0.6,0.3,1.2,0.7,1.8,1.2c0.5,0.5,1,1,1.4,1.6c0.4,0.6,0.7,1.2,1,1.9
		c2.3,7,4.3,14.2,5.9,21.4c1.7,7.2,3,14.5,4.1,21.8c1,7.3,1.8,14.7,2.2,22.1c0.4,7.4,0.5,14.8,0.2,22.2l0,0.1V512l0,49.2l0,0.1
		c0.2,7.4,0.2,14.8-0.2,22.2c-0.4,7.4-1.1,14.7-2.2,22.1c-1,7.3-2.4,14.6-4.1,21.8c-1.7,7.2-3.6,14.3-5.9,21.4
		c-0.2,0.7-0.6,1.3-1,1.9c-0.4,0.6-0.9,1.1-1.4,1.6c-0.5,0.5-1.1,0.9-1.8,1.2c-0.6,0.3-1.3,0.5-2,0.7"/>
	<path class="st0" d="M983.9,366.8l-108.6,0.7L868.2,512l7.1,144.6l108.6,0.7c5.8-11.2,10.9-22.7,15.2-34.4
		c4.4-11.8,8-23.8,10.9-36.1c2.9-12.2,5-24.6,6.3-37.1c1.3-12.5,1.9-25.1,1.7-37.6c0.2-12.6-0.3-25.1-1.7-37.6
		c-1.3-12.5-3.4-24.9-6.3-37.1c-2.9-12.2-6.5-24.3-10.9-36.1C994.7,389.4,989.7,377.9,983.9,366.8"/>
	<path class="st1" d="M983.9,366.8l-108.6,0.7L868.2,512l7.1,144.6l108.6,0.7c5.8-11.2,10.9-22.7,15.2-34.4
		c4.4-11.8,8-23.8,10.9-36.1c2.9-12.2,5-24.6,6.3-37.1c1.3-12.5,1.9-25.1,1.7-37.6c0.2-12.6-0.3-25.1-1.7-37.6
		c-1.3-12.5-3.4-24.9-6.3-37.1c-2.9-12.2-6.5-24.3-10.9-36.1C994.7,389.4,989.7,377.9,983.9,366.8"/>
	<path class="st0" d="M983.9,366.8L983.9,366.8c-1,0.2-1.9,0.5-2.8,1c-0.9,0.4-1.7,1-2.5,1.7c-0.8,0.7-1.4,1.4-2,2.2
		c-0.6,0.8-1,1.7-1.4,2.7c-2.3,7.1-4.3,14.3-6,21.6c-1.7,7.3-3.1,14.7-4.1,22.1c-1.1,7.4-1.8,14.9-2.2,22.3
		c-0.4,7.5-0.5,15-0.3,22.5V512l0,49.2c-0.2,7.5-0.2,15,0.3,22.5c0.4,7.5,1.1,14.9,2.2,22.3c1.1,7.4,2.4,14.8,4.1,22.1
		c1.7,7.3,3.7,14.5,6,21.6c0.3,0.9,0.8,1.8,1.4,2.7c0.6,0.8,1.2,1.6,2,2.2c0.8,0.7,1.6,1.2,2.5,1.7c0.9,0.4,1.9,0.8,2.8,1"/>
	<path class="st1" d="M983.9,366.8L983.9,366.8c-1,0.2-1.9,0.5-2.8,1c-0.9,0.4-1.7,1-2.5,1.7c-0.8,0.7-1.4,1.4-2,2.2
		c-0.6,0.8-1,1.7-1.4,2.7c-2.3,7.1-4.3,14.3-6,21.6c-1.7,7.3-3.1,14.7-4.1,22.1c-1.1,7.4-1.8,14.9-2.2,22.3
		c-0.4,7.5-0.5,15-0.3,22.5V512l0,49.2c-0.2,7.5-0.2,15,0.3,22.5c0.4,7.5,1.1,14.9,2.2,22.3c1.1,7.4,2.4,14.8,4.1,22.1
		c1.7,7.3,3.7,14.5,6,21.6c0.3,0.9,0.8,1.8,1.4,2.7c0.6,0.8,1.2,1.6,2,2.2c0.8,0.7,1.6,1.2,2.5,1.7c0.9,0.4,1.9,0.8,2.8,1"/>
	<path class="st0" d="M984.7,370L984.7,370c-0.7,0.1-1.4,0.4-2,0.7c-0.6,0.3-1.2,0.7-1.8,1.2c-0.5,0.5-1,1-1.4,1.6
		c-0.4,0.6-0.7,1.2-1,1.9c-2.3,7-4.3,14.2-5.9,21.4c-1.7,7.2-3,14.5-4.1,21.8c-1,7.3-1.8,14.7-2.2,22.1c-0.4,7.4-0.5,14.8-0.2,22.2
		v0.1V512l0,49.2v0.1c-0.2,7.4-0.2,14.8,0.2,22.2c0.4,7.4,1.1,14.7,2.2,22.1c1,7.3,2.4,14.6,4.1,21.8c1.7,7.2,3.7,14.3,5.9,21.4
		c0.2,0.7,0.6,1.3,1,1.9c0.4,0.6,0.9,1.1,1.4,1.6c0.5,0.5,1.1,0.9,1.8,1.2c0.6,0.3,1.3,0.5,2,0.7"/>
	<path class="st1" d="M984.7,370L984.7,370c-0.7,0.1-1.4,0.4-2,0.7c-0.6,0.3-1.2,0.7-1.8,1.2c-0.5,0.5-1,1-1.4,1.6
		c-0.4,0.6-0.7,1.2-1,1.9c-2.3,7-4.3,14.2-5.9,21.4c-1.7,7.2-3,14.5-4.1,21.8c-1,7.3-1.8,14.7-2.2,22.1c-0.4,7.4-0.5,14.8-0.2,22.2
		v0.1V512l0,49.2v0.1c-0.2,7.4-0.2,14.8,0.2,22.2c0.4,7.4,1.1,14.7,2.2,22.1c1,7.3,2.4,14.6,4.1,21.8c1.7,7.2,3.7,14.3,5.9,21.4
		c0.2,0.7,0.6,1.3,1,1.9c0.4,0.6,0.9,1.1,1.4,1.6c0.5,0.5,1.1,0.9,1.8,1.2c0.6,0.3,1.3,0.5,2,0.7"/>
	<path class="st0" d="M834,512c0-176.4-145.1-321.5-321.5-321.5S191,335.6,191,512c0,176.4,145.1,321.5,321.5,321.5
		S834,688.4,834,512"/>
	<path class="st1" d="M834,512c0-176.4-145.1-321.5-321.5-321.5S191,335.6,191,512c0,176.4,145.1,321.5,321.5,321.5
		S834,688.4,834,512"/>
	<path class="st0" d="M817.7,512c0-167.4-137.8-305.2-305.2-305.2c-167.4,0-305.2,137.8-305.2,305.2
		c0,167.4,137.8,305.2,305.2,305.2C679.9,817.2,817.7,679.4,817.7,512"/>
	<path class="st1" d="M817.7,512c0-167.4-137.8-305.2-305.2-305.2c-167.4,0-305.2,137.8-305.2,305.2
		c0,167.4,137.8,305.2,305.2,305.2C679.9,817.2,817.7,679.4,817.7,512"/>
	<path class="st0" d="M766.1,512c0-139.1-114.5-253.6-253.6-253.6c-139.1,0-253.6,114.5-253.6,253.6
		c0,139.1,114.5,253.6,253.6,253.6C651.6,765.6,766.1,651.1,766.1,512"/>
	<path class="st1" d="M766.1,512c0-139.1-114.5-253.6-253.6-253.6c-139.1,0-253.6,114.5-253.6,253.6
		c0,139.1,114.5,253.6,253.6,253.6C651.6,765.6,766.1,651.1,766.1,512"/>
	<polyline class="st0" points="512.5,417.3 594.2,464.4 594.2,558.6 512.5,605.7 430.8,558.6 430.8,464.4 512.5,417.3 	"/>
	<path class="st1" d="M512.5,417.3l81.7,47.1v94.2l-81.7,47.1l-81.7-47.1v-94.2L512.5,417.3L512.5,417.3z M430.8,464.4l-138.2-79.6
		 M430.8,558.6l-138.2,80.1 M512.5,605.7v159.6 M594.2,558.6l137.7,80.1 M594.2,464.4l137.7-79.6 M512.5,417.3V258.1"/>
	<rect x="153.2" y="331.8" class="st2" width="722" height="355.9"/>
	<rect x="153.2" y="331.8" class="st1" width="722" height="355.9"/>
	<polyline class="st2" points="274.1,371.8 754.3,371.8 754.3,647.7 274.1,647.7 274.1,371.8 	"/>
	<path class="st3" d="M347.9,479.8v-10.1h-52.7v-29.2h47.5v-10.1h-47.5V404h50.7v-10.1h-62.1v85.9H347.9L347.9,479.8z M375.1,479.8
		v-38.1h13.2c2.9,0,5,0.1,6.3,0.4c1.8,0.4,3.5,1.2,5.2,2.3c1.7,1.1,3.6,3,5.8,5.7c2.1,2.7,4.9,6.7,8.2,11.8l11.4,17.9h14.3
		l-14.9-23.4c-3-4.6-6.1-8.4-9.4-11.4c-1.6-1.4-3.8-2.8-6.9-4.3c8.2-1.1,14.3-3.8,18.3-8c3.9-4.2,5.9-9.3,5.9-15.4
		c0-4.7-1.2-9-3.6-12.9c-2.4-3.9-5.6-6.6-9.5-8.2c-4-1.5-9.8-2.3-17.5-2.3h-38.1v85.9H375.1L375.1,479.8z M375.1,403.4h27.2
		c6.4,0,11,1.3,14,3.9c2.9,2.6,4.4,6,4.4,10c0,2.8-0.8,5.3-2.3,7.7c-1.5,2.4-3.7,4.1-6.7,5.2c-2.9,1.1-7,1.6-12.2,1.6h-24.4V403.4
		L375.1,403.4z M452.8,479.8l9.4-26h35.9l10,26h12.9L486,393.9h-12.2l-33,85.9H452.8L452.8,479.8z M475,419.3
		c2-5.4,3.5-10.9,4.6-16.4c1.3,4.6,3.4,10.6,6.1,17.8l9,23.8h-29.1L475,419.3L475,419.3z M599,393.5h-6.8c-1.8,3.7-5,7.5-9.4,11.5
		c-4.4,3.9-9.6,7.3-15.5,10.1v10.2c3.3-1.2,7-3,11.1-5.4c4.1-2.4,7.4-4.8,10-7.3v67.2H599V393.5L599,393.5z M634.5,474.7
		c4.9,4.4,11.3,6.6,19.1,6.6c9.5,0,17-3.5,22.6-10.4c4.5-5.7,6.8-12.4,6.8-20.2c0-8.2-2.6-14.8-7.7-20c-5.2-5.2-11.5-7.8-19-7.8
		c-5.7,0-11.1,1.8-16.2,5.4l4.6-23.1h34.3V395h-42.7l-8.3,44.1l9.9,1.3c1.6-2.5,3.7-4.5,6.4-6c2.7-1.5,5.8-2.3,9.2-2.3
		c5.5,0,9.9,1.7,13.3,5.2c3.4,3.5,5.1,8.2,5.1,14.2c0,6.3-1.8,11.4-5.3,15.2c-3.5,3.8-7.8,5.7-12.9,5.7c-4.2,0-7.8-1.4-10.8-4.1
		c-3-2.7-4.9-6.8-5.7-12.2l-11.1,0.9C626.7,464.5,629.5,470.3,634.5,474.7L634.5,474.7z M701.2,472.3c4.7,5.9,11.2,8.9,19.5,8.9
		c6.3,0,11.5-1.7,15.6-5.1c4.1-3.4,7.2-8.2,9.3-14.4c2.1-6.2,3.1-14.3,3.1-24.4c0-8.5-0.6-15.3-1.9-20.3c-1.3-5-3.1-9.3-5.3-12.8
		c-2.3-3.5-5.1-6.2-8.6-8c-3.5-1.9-7.5-2.8-12.1-2.8c-6.2,0-11.4,1.7-15.6,5c-4.1,3.4-7.2,8.1-9.3,14.3c-2.1,6.2-3.1,14.4-3.1,24.5
		C692.7,453.5,695.6,465.2,701.2,472.3L701.2,472.3L701.2,472.3z M709,408.4c2.9-4.1,6.8-6.2,11.6-6.2c4.9,0,9,2.3,12.3,7
		c3.3,4.6,5,14,5,28.2c0,14.1-1.7,23.4-5,28.1c-3.3,4.7-7.4,7-12.2,7c-4.8,0-8.9-2.3-12.2-7c-3.3-4.7-5-14-5-28.1
		C703.6,423.3,705.4,413.6,709,408.4L709,408.4L709,408.4z"/>
	<path class="st3" d="M396.8,617.7l18.2-65.4c0.8-2.8,1.6-6.1,2.5-10.1c0.3,1.3,1.2,4.6,2.7,10.1l18.1,65.4h11l23.5-85.9h-11.4
		L448,587c-1.8,7-3.2,13.3-4.3,18.7c-1.4-9.5-3.6-19.6-6.7-30.4l-12.3-43.5H411l-16.3,58c-0.4,1.4-1.7,6.7-3.9,15.9
		c-1-5.8-2.2-11.7-3.6-17.6l-13.1-56.3h-11.7l22.8,85.9H396.8L396.8,617.7z M524.8,617.7h11c-1.3-2.4-2.2-4.9-2.7-7.5
		c-0.4-2.6-0.7-8.8-0.7-18.6v-14.1c0-4.7-0.2-7.9-0.5-9.7c-0.6-2.9-1.7-5.3-3.3-7.2c-1.6-1.9-4-3.5-7.3-4.7
		c-3.3-1.2-7.6-1.9-12.9-1.9c-5.4,0-10.1,0.7-14.1,2.2c-4.1,1.5-7.2,3.6-9.3,6.3c-2.1,2.7-3.7,6.3-4.6,10.7l10.3,1.4
		c1.1-4.4,2.9-7.5,5.2-9.2c2.4-1.7,6-2.6,11-2.6c5.3,0,9.3,1.2,12,3.6c2,1.8,3,4.8,3,9.1c0,0.4,0,1.3-0.1,2.8
		c-4,1.4-10.3,2.6-18.8,3.6c-4.2,0.5-7.3,1-9.4,1.6c-2.8,0.8-5.3,1.9-7.6,3.5c-2.2,1.5-4.1,3.5-5.4,6.1c-1.4,2.5-2.1,5.3-2.1,8.3
		c0,5.2,1.8,9.5,5.5,12.8c3.7,3.3,8.9,5,15.8,5c4.1,0,8-0.7,11.6-2.1c3.6-1.4,7.4-3.7,11.3-7C523,613,523.7,615.5,524.8,617.7
		L524.8,617.7L524.8,617.7z M521.8,590.4c0,4.6-0.6,8.2-1.7,10.5c-1.5,3.1-3.8,5.5-7,7.3c-3.2,1.8-6.8,2.7-10.8,2.7
		c-4.1,0-7.2-0.9-9.3-2.8c-2.1-1.9-3.2-4.2-3.2-7c0-1.8,0.5-3.5,1.5-5c1-1.5,2.4-2.6,4.2-3.4c1.8-0.8,4.9-1.5,9.2-2.1
		c7.7-1.1,13.4-2.4,17.2-4V590.4L521.8,590.4z M552.7,614.1c4.2,3.4,10.4,5,18.5,5c4.9,0,9.3-0.8,13.1-2.5c3.9-1.7,6.8-4.1,8.9-7.2
		c2.1-3.1,3.1-6.4,3.1-9.9c0-3.6-0.8-6.6-2.5-9c-1.7-2.4-4-4.3-6.9-5.5c-2.9-1.3-8.2-2.9-15.6-4.9c-5.2-1.4-8.3-2.3-9.3-2.7
		c-1.8-0.7-3.2-1.7-4-2.8c-0.9-1.1-1.3-2.3-1.3-3.7c0-2.1,1-4,3.1-5.6c2.1-1.6,5.5-2.4,10.4-2.4c4.1,0,7.3,0.9,9.5,2.7
		c2.2,1.8,3.6,4.3,4.1,7.5l10.3-1.4c-0.7-4-1.9-7.2-3.6-9.6c-1.8-2.4-4.5-4.3-8.2-5.7s-8-2.1-12.9-2.1c-3.2,0-6.3,0.4-9.1,1.3
		c-2.8,0.8-5.1,1.9-6.7,3.1c-2.2,1.6-3.9,3.5-5.2,5.9c-1.3,2.4-1.9,4.9-1.9,7.7c0,3,0.8,5.8,2.3,8.3c1.5,2.5,3.8,4.5,6.8,5.9
		c3,1.4,8.3,3.1,16.1,5.1c5.7,1.4,9.3,2.6,10.8,3.6c2.1,1.4,3.1,3.2,3.1,5.6c0,2.7-1.2,5-3.5,6.9c-2.3,2-5.9,3-10.8,3
		c-4.8,0-8.5-1.1-11.2-3.3c-2.7-2.2-4.3-5.4-4.9-9.6l-10.4,1.6C545.8,605.8,548.5,610.7,552.7,614.1L552.7,614.1z M619.4,617.7v-34
		c0-4.9,0.6-8.7,1.8-11.5c1.2-2.8,3.1-5,5.9-6.6c2.8-1.6,5.7-2.4,8.8-2.4c4.2,0,7.4,1.2,9.7,3.6c2.3,2.4,3.4,6.2,3.4,11.5v39.4h10.5
		v-39.4c0-6.1-0.7-10.7-2.2-13.9c-1.5-3.2-3.9-5.7-7.3-7.5s-7.4-2.7-12-2.7c-7.5,0-13.7,2.9-18.6,8.6v-30.8h-10.5v85.9H619.4
		L619.4,617.7z"/>
</g>
</svg>
