<?xml version="1.0" encoding="UTF-8"?>
<svg id="EXT_Projection_Pro_Compact_-_Thumbnail" xmlns="http://www.w3.org/2000/svg" version="1.1" viewBox="0 0 1024 1024">
  <!-- Generator: Adobe Illustrator 29.2.1, SVG Export Plug-In . SVG Version: 2.1.0 Build 116)  -->
  <defs>
    <style>
      .st0 {
        fill: #fff;
      }

      .st1 {
        fill: #bbb;
      }

      .st2 {
        fill: none;
        stroke: #000;
        stroke-linecap: round;
        stroke-linejoin: round;
      }
    </style>
  </defs>
  <g id="EXT_Projection_Pro_Compact">
    <path class="st1" d="M344.3,15.6h332l20.9,36.2,68,1.6,18.4,6.1c24.4,54.3,45.5,110,63.2,166.8,17.7,56.8,31.8,114.7,42.4,173.2,10.6,58.5,17.7,117.7,21.1,177.1,3.4,59.4,3.2,119-.6,178.3l-4.1,13.3-66.4,12.3-25,218c-25.3,2.6-50.6,4.8-75.9,6.7-25.3,1.9-50.7,3.5-76.1,4.7-25.4,1.2-50.8,2.1-76.2,2.7-25.4.6-50.8.8-76.2.7-25.4.1-50.8-.1-76.2-.7s-50.8-1.5-76.2-2.7c-25.4-1.2-50.7-2.8-76.1-4.7-25.3-1.9-50.6-4.1-75.9-6.7l-25-218-66.4-12.3-4.1-13.3c-3.8-59.4-4-118.9-.6-178.3,3.4-59.4,10.5-118.5,21.1-177.1,10.6-58.5,24.8-116.4,42.4-173.2,17.7-56.8,38.7-112.5,63.2-166.8l18.4-6.1,68.7-1.6,20.9-36.2"/>
    <path class="st2" d="M344.3,15.6h332l20.9,36.2,68,1.6,18.4,6.1c24.4,54.3,45.5,110,63.2,166.8,17.7,56.8,31.8,114.7,42.4,173.2,10.6,58.5,17.7,117.7,21.1,177.1,3.4,59.4,3.2,119-.6,178.3l-4.1,13.3-66.4,12.3-25,218c-25.3,2.6-50.6,4.8-75.9,6.7-25.3,1.9-50.7,3.5-76.1,4.7-25.4,1.2-50.8,2.1-76.2,2.7-25.4.6-50.8.8-76.2.7-25.4.1-50.8-.1-76.2-.7s-50.8-1.5-76.2-2.7c-25.4-1.2-50.7-2.8-76.1-4.7-25.3-1.9-50.6-4.1-75.9-6.7l-25-218-66.4-12.3-4.1-13.3c-3.8-59.4-4-118.9-.6-178.3,3.4-59.4,10.5-118.5,21.1-177.1,10.6-58.5,24.8-116.4,42.4-173.2,17.7-56.8,38.7-112.5,63.2-166.8l18.4-6.1,68.7-1.6,20.9-36.2M912.1,704.3H107.8M879.6,351.1H140.3M839.2,780.6c-5.6-251-52.9-494-142.1-728.7M181.3,780.6c5.6-251,52.9-494,142.1-728.7"/>
    <rect class="st0" x="127.3" y="407" width="765.2" height="235.4"/>
    <rect class="st2" x="127.3" y="407" width="765.2" height="235.4"/>
    <path d="M231.9,506v-9h-29.7v-14.4h26.7v-9h-26.7v-11.8h28.7v-9h-39.5v53.3h40.5ZM248.8,506l11.8-18,11.8,18h13l-18.4-27.8,16.8-25.5h-12.7l-10.5,15.9-10.5-15.9h-12.5l16.7,25.5-18.4,27.8h12.9ZM313.9,506v-44.3h15.7v-9h-42.3v9h15.8v44.3h10.8ZM368.4,506v-20.1h7c4.8,0,8.6-.2,11.2-.7,1.9-.4,3.7-1.3,5.5-2.5,1.9-1.3,3.4-3.1,4.5-5.3s1.8-5,1.8-8.3-1-7.7-3.1-10.3c-2.1-2.7-4.6-4.5-7.7-5.2-2-.5-6.3-.8-12.8-.8h-17.3v53.3h10.8ZM373.6,461.7c3.8,0,6.4.1,7.7.4,1.8.3,3.2,1.1,4.3,2.4s1.7,2.8,1.7,4.8-.4,2.9-1.2,4.1-1.9,2.1-3.4,2.7c-1.4.5-4.2.8-8.5.8h-5.9v-15.2h5.2ZM418.3,506v-22.3h2.2c2.5,0,4.3.2,5.4.6,1.2.4,2.2,1.1,3.3,2.2,1,1,2.9,3.6,5.7,7.8l7.7,11.6h12.9l-6.5-10.4c-2.6-4.1-4.6-7-6.1-8.6-1.6-1.6-3.4-3.1-5.7-4.5,4.6-.7,8.1-2.3,10.5-4.9,2.3-2.6,3.5-6,3.5-9.9s-.7-6-2.3-8.4-3.6-4.2-6.3-5.1c-2.5-1-6.7-1.4-12.4-1.4h-22.6v53.3h10.8ZM418.3,461.7h8.4c4.3,0,7,0,7.8.1,1.8.3,3.1,1,4.1,2.2,1,1,1.4,2.5,1.4,4.3s-.4,3-1.1,4c-.7,1-1.7,1.8-3,2.2s-4.5.7-9.7.7h-8v-13.6ZM466.2,499.7c4.7,4.8,11,7.3,18.9,7.3s14.1-2.5,18.8-7.3c4.7-4.9,7-11.6,7-20.3s-2.4-15.5-7.1-20.4c-4.7-4.8-11-7.3-18.8-7.3s-8.2.7-11.5,2.1c-2.5,1-4.8,2.7-6.9,4.8-2.1,2.2-3.7,4.6-4.9,7.3-1.6,3.7-2.5,8.3-2.5,13.7,0,8.6,2.3,15.2,7,20h0ZM474.4,465.5c2.7-3.1,6.3-4.5,10.7-4.5s8,1.5,10.7,4.5c2.7,3,4,7.5,4,13.7s-1.4,10.8-4.2,13.9c-2.8,3.1-6.3,4.6-10.6,4.6s-7.8-1.6-10.6-4.7c-2.8-3.1-4.2-7.7-4.2-13.7s1.3-10.8,4.1-13.8h0ZM538.7,487.2c0,4.3-.5,7.1-1.5,8.5-1,1.4-2.7,2.1-5.1,2.1s-4.1-1-5.2-2.8c-.7-1.3-1.2-3.4-1.3-6.5l-10.2,1.2c0,5.7,1.5,10,4.3,13,2.8,2.9,6.9,4.4,12.1,4.4s8-1,10.8-2.8c2.8-1.9,4.6-4.4,5.7-7.4.8-2.4,1.2-5.8,1.2-10.2v-33.8h-10.8v34.5ZM601.7,506v-9h-29.7v-14.4h26.7v-9h-26.7v-11.8h28.7v-9h-39.5v53.3h40.5ZM640.7,494.9c-2,1.9-4.5,2.8-7.4,2.8s-7-1.4-9.5-4.3c-2.5-2.8-3.6-7.6-3.6-14.4s1.3-10.9,3.7-13.8,5.7-4.2,9.6-4.2,5.3.8,7.3,2.4c2,1.6,3.4,3.8,3.9,6.6l10.6-2.5c-1.2-4.2-3.1-7.5-5.4-9.8-4.1-3.9-9.4-5.8-15.9-5.8s-13.5,2.5-18.1,7.4c-4.5,4.9-6.9,11.8-6.9,20.7s2.3,15,6.9,19.8c4.5,4.8,10.3,7.3,17.4,7.3s10.5-1.4,14.2-4.2c3.7-2.9,6.4-7.2,8-13.1l-10.4-3.2c-.9,3.9-2.4,6.8-4.5,8.6h0ZM687.8,506v-44.3h15.7v-9h-42.3v9h15.8v44.3h10.8ZM721.1,506v-53.3h-10.8v53.3h10.8ZM736.2,499.7c4.7,4.8,11,7.3,18.9,7.3s14.1-2.5,18.8-7.3c4.7-4.9,7-11.6,7-20.3s-2.4-15.5-7.1-20.4c-4.7-4.8-11-7.3-18.8-7.3s-8.2.7-11.5,2.1c-2.5,1-4.8,2.7-6.9,4.8-2.1,2.2-3.7,4.6-4.9,7.3-1.6,3.7-2.5,8.3-2.5,13.7,0,8.6,2.3,15.2,7,20h0ZM744.4,465.5c2.7-3.1,6.3-4.5,10.7-4.5s8,1.5,10.7,4.5c2.7,3,4,7.5,4,13.7s-1.4,10.8-4.2,13.9c-2.8,3.1-6.3,4.6-10.6,4.6s-7.8-1.6-10.6-4.7c-2.8-3.1-4.2-7.7-4.2-13.7s1.3-10.8,4.1-13.8h0ZM799.6,506v-35.1l21.6,35.1h10.8v-53.3h-10v35.7l-22-35.7h-10.4v53.3h10Z"/>
    <path d="M245.8,594.2v-20.1h7c4.8,0,8.6-.2,11.2-.7,1.9-.4,3.7-1.3,5.5-2.5,1.9-1.3,3.4-3.1,4.5-5.3s1.8-5,1.8-8.3-1-7.7-3.1-10.3c-2.1-2.7-4.6-4.5-7.7-5.2-2-.5-6.3-.8-12.8-.8h-17.3v53.3h10.8ZM251,549.9c3.8,0,6.4.1,7.7.4,1.8.3,3.2,1.1,4.3,2.4s1.7,2.8,1.7,4.8-.4,2.9-1.2,4.1-1.9,2.1-3.4,2.7c-1.4.5-4.2.8-8.5.8h-5.9v-15.2h5.2ZM295.7,594.2v-22.3h2.2c2.5,0,4.3.2,5.4.6,1.2.4,2.2,1.1,3.3,2.2,1,1,2.9,3.6,5.7,7.8l7.7,11.6h12.9l-6.5-10.4c-2.6-4.1-4.6-7-6.1-8.6-1.6-1.6-3.4-3.1-5.7-4.5,4.6-.7,8.1-2.3,10.5-4.9,2.3-2.6,3.5-6,3.5-9.9s-.7-6-2.3-8.4c-1.6-2.5-3.6-4.2-6.3-5.1-2.5-1-6.7-1.4-12.4-1.4h-22.6v53.3h10.8ZM295.7,549.9h8.4c4.3,0,7,0,7.8.1,1.8.3,3.1,1,4.1,2.2,1,1,1.4,2.5,1.4,4.3s-.4,3-1.1,4c-.7,1-1.7,1.8-3,2.2s-4.5.7-9.7.7h-8v-13.6ZM343.6,587.9c4.7,4.8,11,7.3,18.9,7.3s14.1-2.5,18.8-7.3c4.7-4.9,7-11.6,7-20.3s-2.4-15.5-7.1-20.4c-4.7-4.8-11-7.3-18.8-7.3s-8.2.7-11.5,2.1c-2.5,1-4.8,2.7-6.9,4.8-2.1,2.2-3.7,4.6-4.9,7.3-1.6,3.7-2.5,8.3-2.5,13.7,0,8.6,2.3,15.2,7,20h0ZM351.8,553.7c2.7-3.1,6.3-4.5,10.7-4.5s8,1.5,10.7,4.5c2.7,3,4,7.5,4,13.7s-1.4,10.8-4.2,13.9c-2.8,3.1-6.3,4.6-10.6,4.6s-7.8-1.6-10.6-4.7c-2.8-3.1-4.2-7.7-4.2-13.7s1.3-10.8,4.1-13.8h0ZM447.5,583.1c-2,1.9-4.5,2.8-7.4,2.8s-7-1.4-9.5-4.3c-2.5-2.8-3.6-7.6-3.6-14.4s1.3-10.9,3.7-13.8c2.5-2.8,5.7-4.2,9.6-4.2s5.3.8,7.3,2.4c2,1.6,3.4,3.8,3.9,6.6l10.6-2.5c-1.2-4.2-3.1-7.5-5.4-9.8-4.1-3.9-9.4-5.8-15.9-5.8s-13.5,2.5-18.1,7.4c-4.5,4.9-6.9,11.8-6.9,20.7s2.3,15,6.9,19.8c4.5,4.8,10.3,7.3,17.4,7.3s10.5-1.4,14.2-4.2c3.7-2.9,6.4-7.2,8-13.1l-10.4-3.2c-.9,3.9-2.4,6.8-4.5,8.6h0ZM476.6,587.9c4.7,4.8,11,7.3,18.9,7.3s14.1-2.5,18.8-7.3c4.7-4.9,7-11.6,7-20.3s-2.4-15.5-7.1-20.4c-4.7-4.8-11-7.3-18.8-7.3s-8.2.7-11.5,2.1c-2.5,1-4.8,2.7-6.9,4.8-2.1,2.2-3.7,4.6-4.9,7.3-1.6,3.7-2.5,8.3-2.5,13.7,0,8.6,2.3,15.2,7,20h0ZM484.7,553.7c2.7-3.1,6.3-4.5,10.7-4.5s8,1.5,10.7,4.5c2.7,3,4,7.5,4,13.7s-1.4,10.8-4.2,13.9c-2.8,3.1-6.3,4.6-10.6,4.6s-7.8-1.6-10.6-4.7c-2.8-3.1-4.2-7.7-4.2-13.7s1.3-10.8,4.1-13.8h0ZM539.8,594.2v-42c0,0,10.5,42,10.5,42h10.3l10.6-42v42h10v-53.3h-16.2l-9.4,36.3-9.6-36.3h-16.2v53.3h10ZM603,594.2v-20.1h7c4.8,0,8.6-.2,11.2-.7,1.9-.4,3.7-1.3,5.5-2.5,1.9-1.3,3.4-3.1,4.5-5.3s1.8-5,1.8-8.3-1-7.7-3.1-10.3c-2.1-2.7-4.6-4.5-7.7-5.2-2-.5-6.3-.8-12.8-.8h-17.3v53.3h10.8ZM608.2,549.9c3.8,0,6.4.1,7.7.4,1.8.3,3.2,1.1,4.3,2.4s1.7,2.8,1.7,4.8-.4,2.9-1.2,4.1-1.9,2.1-3.4,2.7c-1.4.5-4.2.8-8.5.8h-5.9v-15.2h5.2ZM668.7,540.9h-11.4l-20.7,53.3h11.4l4.5-12.1h21.4l4.6,12.1h11.6l-21.4-53.3ZM655.8,573.1l7.2-19.7,7.4,19.7h-14.6ZM725.7,583.1c-2,1.9-4.5,2.8-7.4,2.8s-7-1.4-9.5-4.3c-2.5-2.8-3.6-7.6-3.6-14.4s1.3-10.9,3.7-13.8c2.5-2.8,5.7-4.2,9.6-4.2s5.3.8,7.3,2.4c2,1.6,3.4,3.8,3.9,6.6l10.6-2.5c-1.2-4.2-3.1-7.5-5.4-9.8-4.1-3.9-9.4-5.8-15.9-5.8s-13.5,2.5-18.1,7.4c-4.5,4.9-6.9,11.8-6.9,20.7s2.3,15,6.9,19.8c4.5,4.8,10.3,7.3,17.4,7.3s10.5-1.4,14.2-4.2c3.7-2.9,6.4-7.2,8-13.1l-10.4-3.2c-.9,3.9-2.4,6.8-4.5,8.6h0ZM772.8,594.2v-44.3h15.7v-9h-42.3v9h15.8v44.3h10.8Z"/>
  </g>
</svg>