<?xml version="1.0" encoding="utf-8"?>
<!-- Generator: Adobe Illustrator 27.9.0, SVG Export Plug-In . SVG Version: 6.00 Build 0)  -->
<svg version="1.1" id="EXT_Wash_Pro_-_Thumbnail" xmlns="http://www.w3.org/2000/svg" xmlns:xlink="http://www.w3.org/1999/xlink"
	 x="0px" y="0px" viewBox="0 0 1024 1024" style="enable-background:new 0 0 1024 1024;" xml:space="preserve">
<style type="text/css">
	.st0{fill-rule:evenodd;clip-rule:evenodd;fill:#BBBBBB;stroke:#1D1D1B;stroke-miterlimit:10;}
	.st1{fill:none;stroke:#1D1D1B;stroke-linecap:round;stroke-linejoin:round;stroke-miterlimit:10;}
	.st2{fill-rule:evenodd;clip-rule:evenodd;fill:#FFFFFF;stroke:#1D1D1B;stroke-miterlimit:10;}
	.st3{stroke:#1D1D1B;stroke-miterlimit:10;}
</style>
<g id="Ext_Washo_Pro_L_CTC_00000116952820177306079800000012275474985514049413_">
	<path class="st0" d="M9.5,177v670c0,91.9,75.6,167.5,167.5,167.5h670c91.9,0,167.5-75.6,167.5-167.5V177
		c0-91.9-75.6-167.5-167.5-167.5H177C85.1,9.5,9.5,85.1,9.5,177"/>
	<path class="st1" d="M9.5,177v670c0,91.9,75.6,167.5,167.5,167.5h670c91.9,0,167.5-75.6,167.5-167.5V177
		c0-91.9-75.6-167.5-167.5-167.5H177C85.1,9.5,9.5,85.1,9.5,177"/>
	<path class="st0" d="M58.3,152.5v719.1c0,49.2,40.5,89.7,89.7,89.7H876c49.2,0,89.7-40.5,89.7-89.7V152.5
		c0-49.2-40.5-89.7-89.7-89.7H148C98.8,62.7,58.3,103.2,58.3,152.5"/>
	<path class="st1" d="M58.3,152.5v719.1c0,49.2,40.5,89.7,89.7,89.7H876c49.2,0,89.7-40.5,89.7-89.7V152.5
		c0-49.2-40.5-89.7-89.7-89.7H148C98.8,62.7,58.3,103.2,58.3,152.5"/>
	<path class="st0" d="M236.2,169.8c0-37.1-30.5-67.7-67.7-67.7c-37.1,0-67.7,30.5-67.7,67.7c0,37.1,30.5,67.7,67.7,67.7
		C205.7,237.5,236.2,206.9,236.2,169.8"/>
	<path class="st1" d="M236.2,169.8c0-37.1-30.5-67.7-67.7-67.7c-37.1,0-67.7,30.5-67.7,67.7c0,37.1,30.5,67.7,67.7,67.7
		C205.7,237.5,236.2,206.9,236.2,169.8"/>
	<path class="st0" d="M236.2,306.7c0-37.1-30.5-67.7-67.7-67.7c-37.1,0-67.7,30.5-67.7,67.7s30.5,67.7,67.7,67.7
		C205.7,374.3,236.2,343.8,236.2,306.7"/>
	<path class="st1" d="M236.2,306.7c0-37.1-30.5-67.7-67.7-67.7c-37.1,0-67.7,30.5-67.7,67.7s30.5,67.7,67.7,67.7
		C205.7,374.3,236.2,343.8,236.2,306.7"/>
	<path class="st0" d="M236.2,443.6c0-37.1-30.5-67.7-67.7-67.7c-37.1,0-67.7,30.5-67.7,67.7c0,37.1,30.5,67.7,67.7,67.7
		C205.7,511.2,236.2,480.7,236.2,443.6"/>
	<path class="st1" d="M236.2,443.6c0-37.1-30.5-67.7-67.7-67.7c-37.1,0-67.7,30.5-67.7,67.7c0,37.1,30.5,67.7,67.7,67.7
		C205.7,511.2,236.2,480.7,236.2,443.6"/>
	<path class="st0" d="M236.2,580.4c0-37.1-30.5-67.7-67.7-67.7c-37.1,0-67.7,30.5-67.7,67.7c0,37.1,30.5,67.7,67.7,67.7
		C205.7,648.1,236.2,617.5,236.2,580.4"/>
	<path class="st1" d="M236.2,580.4c0-37.1-30.5-67.7-67.7-67.7c-37.1,0-67.7,30.5-67.7,67.7c0,37.1,30.5,67.7,67.7,67.7
		C205.7,648.1,236.2,617.5,236.2,580.4"/>
	<path class="st0" d="M236.2,717.3c0-37.1-30.5-67.7-67.7-67.7c-37.1,0-67.7,30.5-67.7,67.7s30.5,67.7,67.7,67.7
		C205.7,785,236.2,754.4,236.2,717.3"/>
	<path class="st1" d="M236.2,717.3c0-37.1-30.5-67.7-67.7-67.7c-37.1,0-67.7,30.5-67.7,67.7s30.5,67.7,67.7,67.7
		C205.7,785,236.2,754.4,236.2,717.3"/>
	<path class="st0" d="M236.2,854.2c0-37.1-30.5-67.7-67.7-67.7c-37.1,0-67.7,30.5-67.7,67.7c0,37.1,30.5,67.7,67.7,67.7
		C205.7,921.8,236.2,891.3,236.2,854.2"/>
	<path class="st1" d="M236.2,854.2c0-37.1-30.5-67.7-67.7-67.7c-37.1,0-67.7,30.5-67.7,67.7c0,37.1,30.5,67.7,67.7,67.7
		C205.7,921.8,236.2,891.3,236.2,854.2"/>
	<path class="st0" d="M373.6,169.8c0-37.1-30.6-67.7-67.7-67.7s-67.7,30.5-67.7,67.7c0,37.1,30.5,67.7,67.7,67.7
		S373.6,206.9,373.6,169.8"/>
	<path class="st1" d="M373.6,169.8c0-37.1-30.6-67.7-67.7-67.7s-67.7,30.5-67.7,67.7c0,37.1,30.5,67.7,67.7,67.7
		S373.6,206.9,373.6,169.8"/>
	<path class="st0" d="M373.6,306.7c0-37.1-30.6-67.7-67.7-67.7s-67.7,30.5-67.7,67.7s30.5,67.7,67.7,67.7S373.6,343.8,373.6,306.7"
		/>
	<path class="st1" d="M373.6,306.7c0-37.1-30.6-67.7-67.7-67.7s-67.7,30.5-67.7,67.7s30.5,67.7,67.7,67.7S373.6,343.8,373.6,306.7"
		/>
	<path class="st0" d="M373.6,443.6c0-37.1-30.6-67.7-67.7-67.7s-67.7,30.5-67.7,67.7c0,37.1,30.5,67.7,67.7,67.7
		S373.6,480.7,373.6,443.6"/>
	<path class="st1" d="M373.6,443.6c0-37.1-30.6-67.7-67.7-67.7s-67.7,30.5-67.7,67.7c0,37.1,30.5,67.7,67.7,67.7
		S373.6,480.7,373.6,443.6"/>
	<path class="st0" d="M373.6,580.4c0-37.1-30.6-67.7-67.7-67.7s-67.7,30.5-67.7,67.7c0,37.1,30.5,67.7,67.7,67.7
		S373.6,617.5,373.6,580.4"/>
	<path class="st1" d="M373.6,580.4c0-37.1-30.6-67.7-67.7-67.7s-67.7,30.5-67.7,67.7c0,37.1,30.5,67.7,67.7,67.7
		S373.6,617.5,373.6,580.4"/>
	<path class="st0" d="M373.6,717.3c0-37.1-30.6-67.7-67.7-67.7s-67.7,30.5-67.7,67.7s30.5,67.7,67.7,67.7S373.6,754.4,373.6,717.3"
		/>
	<path class="st1" d="M373.6,717.3c0-37.1-30.6-67.7-67.7-67.7s-67.7,30.5-67.7,67.7s30.5,67.7,67.7,67.7S373.6,754.4,373.6,717.3"
		/>
	<path class="st0" d="M373.6,854.2c0-37.1-30.6-67.7-67.7-67.7s-67.7,30.5-67.7,67.7c0,37.1,30.5,67.7,67.7,67.7
		S373.6,891.3,373.6,854.2"/>
	<path class="st1" d="M373.6,854.2c0-37.1-30.6-67.7-67.7-67.7s-67.7,30.5-67.7,67.7c0,37.1,30.5,67.7,67.7,67.7
		S373.6,891.3,373.6,854.2"/>
	<path class="st0" d="M511,169.8c0-37.1-30.5-67.7-67.7-67.7c-37.1,0-67.7,30.5-67.7,67.7c0,37.1,30.5,67.7,67.7,67.7
		C480.4,237.5,511,206.9,511,169.8"/>
	<path class="st1" d="M511,169.8c0-37.1-30.5-67.7-67.7-67.7c-37.1,0-67.7,30.5-67.7,67.7c0,37.1,30.5,67.7,67.7,67.7
		C480.4,237.5,511,206.9,511,169.8"/>
	<path class="st0" d="M511,306.7c0-37.1-30.5-67.7-67.7-67.7c-37.1,0-67.7,30.5-67.7,67.7s30.5,67.7,67.7,67.7
		C480.4,374.3,511,343.8,511,306.7"/>
	<path class="st1" d="M511,306.7c0-37.1-30.5-67.7-67.7-67.7c-37.1,0-67.7,30.5-67.7,67.7s30.5,67.7,67.7,67.7
		C480.4,374.3,511,343.8,511,306.7"/>
	<path class="st0" d="M511,443.6c0-37.1-30.5-67.7-67.7-67.7c-37.1,0-67.7,30.5-67.7,67.7c0,37.1,30.5,67.7,67.7,67.7
		C480.4,511.2,511,480.7,511,443.6"/>
	<path class="st1" d="M511,443.6c0-37.1-30.5-67.7-67.7-67.7c-37.1,0-67.7,30.5-67.7,67.7c0,37.1,30.5,67.7,67.7,67.7
		C480.4,511.2,511,480.7,511,443.6"/>
	<path class="st0" d="M511,580.4c0-37.1-30.5-67.7-67.7-67.7c-37.1,0-67.7,30.5-67.7,67.7c0,37.1,30.5,67.7,67.7,67.7
		C480.4,648.1,511,617.5,511,580.4"/>
	<path class="st1" d="M511,580.4c0-37.1-30.5-67.7-67.7-67.7c-37.1,0-67.7,30.5-67.7,67.7c0,37.1,30.5,67.7,67.7,67.7
		C480.4,648.1,511,617.5,511,580.4"/>
	<path class="st0" d="M511,717.3c0-37.1-30.5-67.7-67.7-67.7c-37.1,0-67.7,30.5-67.7,67.7s30.5,67.7,67.7,67.7
		C480.4,785,511,754.4,511,717.3"/>
	<path class="st1" d="M511,717.3c0-37.1-30.5-67.7-67.7-67.7c-37.1,0-67.7,30.5-67.7,67.7s30.5,67.7,67.7,67.7
		C480.4,785,511,754.4,511,717.3"/>
	<path class="st0" d="M511,854.2c0-37.1-30.5-67.7-67.7-67.7c-37.1,0-67.7,30.5-67.7,67.7c0,37.1,30.5,67.7,67.7,67.7
		C480.4,921.8,511,891.3,511,854.2"/>
	<path class="st1" d="M511,854.2c0-37.1-30.5-67.7-67.7-67.7c-37.1,0-67.7,30.5-67.7,67.7c0,37.1,30.5,67.7,67.7,67.7
		C480.4,921.8,511,891.3,511,854.2"/>
	<path class="st0" d="M648.3,169.8c0-37.1-30.5-67.7-67.7-67.7S513,132.7,513,169.8c0,37.1,30.6,67.7,67.7,67.7
		S648.3,206.9,648.3,169.8"/>
	<path class="st1" d="M648.3,169.8c0-37.1-30.5-67.7-67.7-67.7S513,132.7,513,169.8c0,37.1,30.6,67.7,67.7,67.7
		S648.3,206.9,648.3,169.8"/>
	<path class="st0" d="M648.3,306.7c0-37.1-30.5-67.7-67.7-67.7S513,269.6,513,306.7s30.6,67.7,67.7,67.7S648.3,343.8,648.3,306.7"/>
	<path class="st1" d="M648.3,306.7c0-37.1-30.5-67.7-67.7-67.7S513,269.6,513,306.7s30.6,67.7,67.7,67.7S648.3,343.8,648.3,306.7"/>
	<path class="st0" d="M648.3,443.6c0-37.1-30.5-67.7-67.7-67.7S513,406.4,513,443.6c0,37.1,30.6,67.7,67.7,67.7
		S648.3,480.7,648.3,443.6"/>
	<path class="st1" d="M648.3,443.6c0-37.1-30.5-67.7-67.7-67.7S513,406.4,513,443.6c0,37.1,30.6,67.7,67.7,67.7
		S648.3,480.7,648.3,443.6"/>
	<path class="st0" d="M648.3,580.4c0-37.1-30.5-67.7-67.7-67.7S513,543.3,513,580.4c0,37.1,30.6,67.7,67.7,67.7
		S648.3,617.5,648.3,580.4"/>
	<path class="st1" d="M648.3,580.4c0-37.1-30.5-67.7-67.7-67.7S513,543.3,513,580.4c0,37.1,30.6,67.7,67.7,67.7
		S648.3,617.5,648.3,580.4"/>
	<path class="st0" d="M648.3,717.3c0-37.1-30.5-67.7-67.7-67.7S513,680.2,513,717.3s30.6,67.7,67.7,67.7S648.3,754.4,648.3,717.3"/>
	<path class="st1" d="M648.3,717.3c0-37.1-30.5-67.7-67.7-67.7S513,680.2,513,717.3s30.6,67.7,67.7,67.7S648.3,754.4,648.3,717.3"/>
	<path class="st0" d="M648.3,854.2c0-37.1-30.5-67.7-67.7-67.7S513,817.1,513,854.2c0,37.1,30.6,67.7,67.7,67.7
		S648.3,891.3,648.3,854.2"/>
	<path class="st1" d="M648.3,854.2c0-37.1-30.5-67.7-67.7-67.7S513,817.1,513,854.2c0,37.1,30.6,67.7,67.7,67.7
		S648.3,891.3,648.3,854.2"/>
	<path class="st0" d="M785.7,169.8c0-37.1-30.5-67.7-67.7-67.7c-37.1,0-67.7,30.5-67.7,67.7c0,37.1,30.5,67.7,67.7,67.7
		C755.2,237.5,785.7,206.9,785.7,169.8"/>
	<path class="st1" d="M785.7,169.8c0-37.1-30.5-67.7-67.7-67.7c-37.1,0-67.7,30.5-67.7,67.7c0,37.1,30.5,67.7,67.7,67.7
		C755.2,237.5,785.7,206.9,785.7,169.8"/>
	<path class="st0" d="M785.7,306.7c0-37.1-30.5-67.7-67.7-67.7c-37.1,0-67.7,30.5-67.7,67.7s30.5,67.7,67.7,67.7
		C755.2,374.3,785.7,343.8,785.7,306.7"/>
	<path class="st1" d="M785.7,306.7c0-37.1-30.5-67.7-67.7-67.7c-37.1,0-67.7,30.5-67.7,67.7s30.5,67.7,67.7,67.7
		C755.2,374.3,785.7,343.8,785.7,306.7"/>
	<path class="st0" d="M785.7,443.6c0-37.1-30.5-67.7-67.7-67.7c-37.1,0-67.7,30.5-67.7,67.7c0,37.1,30.5,67.7,67.7,67.7
		C755.2,511.2,785.7,480.7,785.7,443.6"/>
	<path class="st1" d="M785.7,443.6c0-37.1-30.5-67.7-67.7-67.7c-37.1,0-67.7,30.5-67.7,67.7c0,37.1,30.5,67.7,67.7,67.7
		C755.2,511.2,785.7,480.7,785.7,443.6"/>
	<path class="st0" d="M785.7,580.4c0-37.1-30.5-67.7-67.7-67.7c-37.1,0-67.7,30.5-67.7,67.7c0,37.1,30.5,67.7,67.7,67.7
		C755.2,648.1,785.7,617.5,785.7,580.4"/>
	<path class="st1" d="M785.7,580.4c0-37.1-30.5-67.7-67.7-67.7c-37.1,0-67.7,30.5-67.7,67.7c0,37.1,30.5,67.7,67.7,67.7
		C755.2,648.1,785.7,617.5,785.7,580.4"/>
	<path class="st0" d="M785.7,717.3c0-37.1-30.5-67.7-67.7-67.7c-37.1,0-67.7,30.5-67.7,67.7s30.5,67.7,67.7,67.7
		C755.2,785,785.7,754.4,785.7,717.3"/>
	<path class="st1" d="M785.7,717.3c0-37.1-30.5-67.7-67.7-67.7c-37.1,0-67.7,30.5-67.7,67.7s30.5,67.7,67.7,67.7
		C755.2,785,785.7,754.4,785.7,717.3"/>
	<path class="st0" d="M785.7,854.2c0-37.1-30.5-67.7-67.7-67.7c-37.1,0-67.7,30.5-67.7,67.7c0,37.1,30.5,67.7,67.7,67.7
		C755.2,921.8,785.7,891.3,785.7,854.2"/>
	<path class="st1" d="M785.7,854.2c0-37.1-30.5-67.7-67.7-67.7c-37.1,0-67.7,30.5-67.7,67.7c0,37.1,30.5,67.7,67.7,67.7
		C755.2,921.8,785.7,891.3,785.7,854.2"/>
	<path class="st0" d="M923.1,169.8c0-37.1-30.5-67.7-67.7-67.7s-67.7,30.5-67.7,67.7c0,37.1,30.5,67.7,67.7,67.7
		S923.1,206.9,923.1,169.8"/>
	<path class="st1" d="M923.1,169.8c0-37.1-30.5-67.7-67.7-67.7s-67.7,30.5-67.7,67.7c0,37.1,30.5,67.7,67.7,67.7
		S923.1,206.9,923.1,169.8"/>
	<path class="st0" d="M923.1,306.7c0-37.1-30.5-67.7-67.7-67.7s-67.7,30.5-67.7,67.7s30.5,67.7,67.7,67.7S923.1,343.8,923.1,306.7"
		/>
	<path class="st1" d="M923.1,306.7c0-37.1-30.5-67.7-67.7-67.7s-67.7,30.5-67.7,67.7s30.5,67.7,67.7,67.7S923.1,343.8,923.1,306.7"
		/>
	<path class="st0" d="M923.1,443.6c0-37.1-30.5-67.7-67.7-67.7s-67.7,30.5-67.7,67.7c0,37.1,30.5,67.7,67.7,67.7
		S923.1,480.7,923.1,443.6"/>
	<path class="st1" d="M923.1,443.6c0-37.1-30.5-67.7-67.7-67.7s-67.7,30.5-67.7,67.7c0,37.1,30.5,67.7,67.7,67.7
		S923.1,480.7,923.1,443.6"/>
	<path class="st0" d="M923.1,580.4c0-37.1-30.5-67.7-67.7-67.7s-67.7,30.5-67.7,67.7c0,37.1,30.5,67.7,67.7,67.7
		S923.1,617.5,923.1,580.4"/>
	<path class="st1" d="M923.1,580.4c0-37.1-30.5-67.7-67.7-67.7s-67.7,30.5-67.7,67.7c0,37.1,30.5,67.7,67.7,67.7
		S923.1,617.5,923.1,580.4"/>
	<path class="st0" d="M923.1,717.3c0-37.1-30.5-67.7-67.7-67.7s-67.7,30.5-67.7,67.7s30.5,67.7,67.7,67.7S923.1,754.4,923.1,717.3"
		/>
	<path class="st1" d="M923.1,717.3c0-37.1-30.5-67.7-67.7-67.7s-67.7,30.5-67.7,67.7s30.5,67.7,67.7,67.7S923.1,754.4,923.1,717.3"
		/>
	<path class="st0" d="M923.1,854.2c0-37.1-30.5-67.7-67.7-67.7s-67.7,30.5-67.7,67.7c0,37.1,30.5,67.7,67.7,67.7
		S923.1,891.3,923.1,854.2"/>
	<path class="st1" d="M923.1,854.2c0-37.1-30.5-67.7-67.7-67.7s-67.7,30.5-67.7,67.7c0,37.1,30.5,67.7,67.7,67.7
		S923.1,891.3,923.1,854.2"/>
	<rect x="73.5" y="347.5" class="st2" width="877.1" height="328.9"/>
	<path class="st3" d="M174.8,486.2V475h-37.1v-18.1H171v-11.2h-33.4V431h35.9v-11.2h-49.3v66.4H174.8L174.8,486.2z M202.1,486.2
		l14.8-23l14.7,23h16.2L225.1,452l20.7-32.3h-15.5l-13.1,21.3l-13.3-21.3h-15.7l20.6,31.8L186,486.2H202.1L202.1,486.2z
		 M289.6,486.2V431h19.7v-11.2h-52.8V431h19.7v55.2H289.6L289.6,486.2z"/>
	<path class="st3" d="M377.5,486.2l13.2-49.7l13.2,49.7h14.2l16.1-66.4h-13.5l-10.2,46.4l-11.6-46.4h-16l-12.1,45.6l-10-45.6h-13.7
		l15.9,66.4H377.5L377.5,486.2z M484.2,419.8H470l-25.9,66.4h14.2l5.5-15.1h26.6l5.8,15.1h14.6L484.2,419.8L484.2,419.8z
		 M467.9,459.9l9-24.7l9.2,24.7H467.9L467.9,459.9z"/>
	<path class="st3" d="M530,481.6c4.5,3.9,11,5.8,19.4,5.8c5.8,0,10.6-0.8,14.5-2.4c3.9-1.6,6.9-4.1,9-7.4c2.1-3.3,3.2-6.9,3.2-10.7
		c0-4.2-0.9-7.7-2.7-10.6c-1.8-2.9-4.2-5.1-7.3-6.8c-3.1-1.6-8-3.2-14.5-4.8c-6.5-1.5-10.6-3-12.3-4.4c-1.3-1.1-2-2.5-2-4
		c0-1.7,0.7-3.1,2.1-4.1c2.2-1.6,5.3-2.4,9.2-2.4c3.8,0,6.6,0.7,8.5,2.2c1.9,1.5,3.1,4,3.7,7.4l13.4-0.6c-0.2-6.1-2.4-11-6.6-14.6
		c-4.2-3.7-10.5-5.5-18.8-5.5c-5.1,0-9.5,0.8-13.1,2.3c-3.6,1.5-6.4,3.8-8.3,6.7c-1.9,2.9-2.9,6.1-2.9,9.5c0,5.3,2,9.7,6.1,13.4
		c2.9,2.6,7.9,4.8,15.1,6.6c5.6,1.4,9.2,2.4,10.7,2.9c2.3,0.8,3.9,1.8,4.8,2.9c0.9,1.1,1.4,2.4,1.4,4c0,2.4-1.1,4.6-3.3,6.4
		c-2.2,1.8-5.4,2.7-9.8,2.7c-4.1,0-7.3-1-9.7-3.1c-2.4-2.1-4-5.3-4.8-9.7l-13.1,1.3C522.8,472,525.5,477.7,530,481.6L530,481.6z
		 M607.6,486.2v-29.1h26.3v29.1h13.4v-66.4h-13.4v26.2h-26.3v-26.2h-13.4v66.4H607.6L607.6,486.2z"/>
	<path class="st3" d="M710.7,486.2v-25.1h8.7c6.1,0,10.7-0.3,13.9-1c2.4-0.5,4.7-1.6,7-3.2s4.2-3.8,5.6-6.5
		c1.5-2.8,2.2-6.2,2.2-10.3c0-5.3-1.3-9.6-3.9-12.9c-2.6-3.3-5.8-5.5-9.6-6.5c-2.5-0.7-7.8-1-16-1h-21.5v66.4H710.7L710.7,486.2z
		 M717.2,431c4.8,0,8.1,0.2,9.7,0.5c2.2,0.4,4,1.4,5.4,2.9c1.4,1.6,2.1,3.6,2.1,6c0,2-0.5,3.7-1.5,5.2c-1,1.5-2.4,2.6-4.2,3.3
		c-1.8,0.7-5.3,1-10.6,1h-7.3V431H717.2L717.2,431z"/>
	<path class="st3" d="M779.5,486.2v-27.7h2.7c3.1,0,5.3,0.2,6.8,0.7c1.4,0.5,2.8,1.4,4,2.8c1.3,1.3,3.6,4.6,7.1,9.8l9.7,14.5h16
		l-8.1-13c-3.2-5.2-5.7-8.8-7.6-10.8c-1.9-2-4.3-3.9-7.2-5.6c5.8-0.8,10.2-2.9,13.1-6.1c2.9-3.2,4.4-7.4,4.4-12.4
		c0-3.9-1-7.4-2.9-10.5c-1.9-3.1-4.5-5.2-7.7-6.4c-3.2-1.2-8.4-1.8-15.5-1.8h-28.2v66.4H779.5L779.5,486.2z M779.5,431H790
		c5.4,0,8.7,0.1,9.8,0.2c2.2,0.4,3.9,1.2,5.1,2.6c1.2,1.4,1.8,3.2,1.8,5.4c0,2-0.5,3.7-1.4,5c-0.9,1.3-2.2,2.3-3.8,2.8
		c-1.6,0.5-5.6,0.8-12.1,0.8h-9.9V431L779.5,431z M846.5,478.3c5.8,6,13.7,9,23.6,9c9.8,0,17.6-3,23.4-9.1
		c5.8-6.1,8.7-14.5,8.7-25.2c0-10.8-2.9-19.3-8.8-25.3c-5.9-6.1-13.7-9.1-23.5-9.1c-5.4,0-10.2,0.9-14.3,2.6c-3.1,1.3-6,3.3-8.6,6
		c-2.6,2.7-4.7,5.7-6.2,9.1c-2,4.6-3,10.3-3,17C837.8,464,840.7,472.3,846.5,478.3L846.5,478.3z M856.7,435.8
		c3.4-3.8,7.8-5.7,13.4-5.7c5.5,0,10,1.9,13.3,5.6c3.3,3.7,5,9.4,5,17c0,7.7-1.7,13.5-5.1,17.3c-3.4,3.9-7.8,5.8-13.2,5.8
		c-5.3,0-9.8-1.9-13.2-5.8c-3.5-3.9-5.2-9.6-5.2-17.1C851.6,445.3,853.3,439.6,856.7,435.8L856.7,435.8z"/>
	<polygon class="st3" points="418.9,607.9 418.9,596.7 385.6,596.7 385.6,542 372.1,542 372.1,607.9 418.9,607.9 	"/>
	<path class="st3" d="M500.4,594.2c-2.6,2.3-5.6,3.4-9.2,3.4c-4.8,0-8.8-1.8-11.8-5.3c-3-3.6-4.5-9.5-4.5-17.9
		c0-7.9,1.5-13.6,4.6-17.2c3.1-3.5,7.1-5.3,12-5.3c3.6,0,6.6,1,9.1,3c2.5,2,4.1,4.7,4.9,8.2l13.3-3.2c-1.5-5.3-3.8-9.4-6.8-12.2
		c-5.1-4.8-11.7-7.2-19.8-7.2c-9.3,0-16.8,3.1-22.5,9.2c-5.7,6.1-8.6,14.7-8.6,25.8c0,10.5,2.8,18.7,8.5,24.7c5.7,6,12.9,9,21.8,9
		c7.1,0,13-1.8,17.7-5.3c4.6-3.5,8-8.9,9.9-16.2l-13-4.1C504.8,588.4,503,591.9,500.4,594.2L500.4,594.2z M566.3,607.9v-55.2H586
		v-11.2h-52.8v11.2h19.7v55.2H566.3L566.3,607.9z"/>
	<path class="st3" d="M637.9,594.2c-2.6,2.3-5.6,3.4-9.2,3.4c-4.8,0-8.8-1.8-11.8-5.3c-3-3.6-4.5-9.5-4.5-17.9
		c0-7.9,1.5-13.6,4.6-17.2c3.1-3.5,7.1-5.3,12-5.3c3.6,0,6.6,1,9.1,3c2.5,2,4.1,4.7,4.9,8.2l13.3-3.2c-1.5-5.3-3.8-9.4-6.8-12.2
		c-5.1-4.8-11.7-7.2-19.8-7.2c-9.3,0-16.8,3.1-22.5,9.2c-5.7,6.1-8.6,14.7-8.6,25.8c0,10.5,2.8,18.7,8.5,24.7c5.7,6,12.9,9,21.8,9
		c7.1,0,13-1.8,17.7-5.3c4.6-3.5,8-8.9,9.9-16.2l-13-4.1C642.3,588.4,640.5,591.9,637.9,594.2L637.9,594.2z"/>
</g>
</svg>
