<?xml version="1.0" encoding="UTF-8"?>
<svg id="MAC_Encore_Two" xmlns="http://www.w3.org/2000/svg" version="1.1" viewBox="0 0 1024 1024">
  <!-- Generator: Adobe Illustrator 30.0.0, SVG Export Plug-In . SVG Version: 2.1.1 Build 123)  -->
  <defs>
    <style>
      .st0 {
        fill: #fff;
      }

      .st1 {
        fill: none;
        stroke: #000;
        stroke-linecap: round;
        stroke-linejoin: round;
      }

      .st2 {
        fill: #ccc;
      }
    </style>
  </defs>
  <polyline class="st2" points="799.6 552.6 800.3 642.1 806.9 648.6 813.6 655.1 822.7 654.5 831.9 653.9 847.4 552.8 871.1 552.8 862.9 665.7 863.9 685.2 850 730.8 836 776.4 516.2 776.4 196.3 776.4 182.4 730.8 168.5 685.2 169.5 665.7 161.3 552.8 185 552.8 200.5 653.9 209.6 654.5 218.8 655.1 225.4 648.6 232.1 642.1 232.8 552.6 232.1 463.2 225.4 456.7 218.8 450.2 209.6 450.8 200.5 451.4 185 552.5 161.3 552.5 169.5 439.6 168.5 420.1 182.4 374.5 196.3 328.9 516.2 328.9 836 328.9 850 374.5 863.9 420.1 862.9 439.6 871.1 552.5 847.4 552.5 831.9 451.4 822.7 450.8 813.6 450.2 806.9 456.7 800.3 463.2 799.6 552.6"/>
  <polyline class="st1" points="799.6 552.6 800.3 642.1 806.9 648.6 813.6 655.1 822.7 654.5 831.9 653.9 847.4 552.8 871.1 552.8 862.9 665.7 863.9 685.2 850 730.8 836 776.4 516.2 776.4 196.3 776.4 182.4 730.8 168.5 685.2 169.5 665.7 161.3 552.8 185 552.8 200.5 653.9 209.6 654.5 218.8 655.1 225.4 648.6 232.1 642.1 232.8 552.6 232.1 463.2 225.4 456.7 218.8 450.2 209.6 450.8 200.5 451.4 185 552.5 161.3 552.5 169.5 439.6 168.5 420.1 182.4 374.5 196.3 328.9 516.2 328.9 836 328.9 850 374.5 863.9 420.1 862.9 439.6 871.1 552.5 847.4 552.5 831.9 451.4 822.7 450.8 813.6 450.2 806.9 456.7 800.3 463.2 799.6 552.6"/>
  <path class="st2" d="M798.7,690.4v-26.3H233.7v26.3s-92.1-8.6-92.1-8.6c-6.7-20.8-11.8-42.1-15.3-63.6s-5.2-43.4-5.3-65.2c0-21.9,1.6-43.7,4.9-65.3,3.3-21.6,8.3-42.9,14.9-63.7l93.3-9v26.3s564.2,0,564.2,0v-26.3s93.2,9,93.2,9c6.6,20.8,11.6,42.1,14.9,63.7,3.3,21.6,4.9,43.4,4.9,65.3,0,21.9-1.8,43.7-5.3,65.2-3.4,21.6-8.6,42.9-15.3,63.6l-92,8.6"/>
  <path class="st1" d="M798.7,690.4v-26.3H233.7v26.3s-92.1-8.6-92.1-8.6c-6.7-20.8-11.8-42.1-15.3-63.6s-5.2-43.4-5.3-65.2c0-21.9,1.6-43.7,4.9-65.3,3.3-21.6,8.3-42.9,14.9-63.7l93.3-9v26.3s564.2,0,564.2,0v-26.3s93.2,9,93.2,9c6.6,20.8,11.6,42.1,14.9,63.7,3.3,21.6,4.9,43.4,4.9,65.3,0,21.9-1.8,43.7-5.3,65.2-3.4,21.6-8.6,42.9-15.3,63.6l-92,8.6M234.1,441.2l-.3,223M798.3,441.2l.3,223"/>
  <path class="st2" d="M675.2,994h0c-13.3,1.5-26.6,2.7-39.9,3.8-13.3,1.1-26.7,1.9-40,2.6-13.4.7-26.7,1.1-40.1,1.4-13.4.3-26.7.3-40.1.2h0c-13.4.1-26.7,0-40.1-.2-13.4-.3-26.7-.7-40.1-1.4-13.4-.7-26.7-1.5-40-2.6-13.3-1.1-26.6-2.3-39.9-3.8l-5.9-15.5-38.4-66.5c-7.6-6.4-14.5-13.6-20.6-21.4-6.1-7.8-11.5-16.2-15.9-25.1-4.5-8.9-8-18.2-10.6-27.7-2.6-9.6-4.2-19.4-4.9-29.3l-12.9-98.1v-279.7l4.8-12.7,10.9-14.2-4.7-22.4,31.3-175.4,7.3-12.1,19.8-76.3,11-18.8,5.1-80.6h367.4l5.1,80.6,11,18.8,19.8,76.3,7.3,12.1,31.3,175.4-4.7,22.4,10.9,14.2,4.8,12.7v279.7l-12.9,98.1c-.6,9.9-2.3,19.7-4.9,29.3-2.6,9.6-6.2,18.9-10.6,27.7-4.5,8.9-9.8,17.3-15.9,25.1-6.1,7.8-13,15-20.6,21.4l-38.4,66.5-5.9,15.5"/>
  <path class="st1" d="M675.2,994h0c-13.3,1.5-26.6,2.7-39.9,3.8-13.3,1.1-26.7,1.9-40,2.6-13.4.7-26.7,1.1-40.1,1.4-13.4.3-26.7.3-40.1.2h0c-13.4.1-26.7,0-40.1-.2-13.4-.3-26.7-.7-40.1-1.4-13.4-.7-26.7-1.5-40-2.6-13.3-1.1-26.6-2.3-39.9-3.8l-5.9-15.5-38.4-66.5c-7.6-6.4-14.5-13.6-20.6-21.4-6.1-7.8-11.5-16.2-15.9-25.1-4.5-8.9-8-18.2-10.6-27.7-2.6-9.6-4.2-19.4-4.9-29.3l-12.9-98.1v-279.7l4.8-12.7,10.9-14.2-4.7-22.4,31.3-175.4,7.3-12.1,19.8-76.3,11-18.8,5.1-80.6h367.4l5.1,80.6,11,18.8,19.8,76.3,7.3,12.1,31.3,175.4-4.7,22.4,10.9,14.2,4.8,12.7v279.7l-12.9,98.1c-.6,9.9-2.3,19.7-4.9,29.3-2.6,9.6-6.2,18.9-10.6,27.7-4.5,8.9-9.8,17.3-15.9,25.1-6.1,7.8-13,15-20.6,21.4l-38.4,66.5-5.9,15.5M515.2,271h0c11.8-.5,23.5-.4,35.3.5,11.7.8,23.4,2.4,35,4.5,11.6,2.2,23,5,34.2,8.5,11.2,3.5,22.3,7.6,33,12.4,5.1,19.8,9.7,39.7,13.9,59.6,4.2,20,7.8,40.1,11,60.2,3.2,20.2,5.9,40.4,8.1,60.7,2.2,20.3,3.9,40.6,5.2,61l39.1-3.3c-1,10.3-1.2,20.6-.7,30.9.5,10.3,1.8,20.5,3.8,30.6,2,10.1,4.8,20.1,8.2,29.8,3.5,9.7,7.6,19.1,12.5,28.2l-7.1,91.9-38.6,5.1-1.8,28.6,48.6,20.7,15.9-3.3M515.2,271h0c11.8-.5,23.5-.4,35.3.5,11.7.8,23.4,2.4,35,4.5,11.6,2.2,23,5,34.2,8.5,11.2,3.5,22.3,7.6,33,12.4,5.1,19.8,9.7,39.7,13.9,59.6,4.2,20,7.8,40.1,11,60.2,3.2,20.2,5.9,40.4,8.1,60.7,2.2,20.3,3.9,40.6,5.2,61l39.1-3.3c-1,10.3-1.2,20.6-.7,30.9.5,10.3,1.8,20.5,3.8,30.6,2,10.1,4.8,20.1,8.2,29.8,3.5,9.7,7.6,19.1,12.5,28.2l-7.1,91.9-38.6,5.1-1.8,28.6,48.6,20.7,15.9-3.3M515.1,848.8l186.8-4.3,9.6,18.6-40.8,103.1,10.4,12.2M515.6,98.6h187.1M515.6,98.6h187.1M515,271h0c-11.8-.5-23.5-.4-35.3.5-11.7.8-23.4,2.4-35,4.5-11.6,2.2-23,5-34.2,8.5-11.2,3.5-22.3,7.6-33,12.4-5.1,19.8-9.7,39.7-13.9,59.6-4.2,20-7.8,40.1-11,60.2-3.2,20.2-5.9,40.4-8.1,60.7-2.2,20.3-3.9,40.6-5.2,61l-39.1-3.3c1,10.3,1.2,20.6.7,30.9-.5,10.3-1.8,20.5-3.8,30.6-2,10.1-4.8,20.1-8.2,29.8-3.5,9.7-7.6,19.1-12.5,28.2l7.1,91.9,38.6,5.1,1.8,28.6-48.6,20.7-15.9-3.3M515,271h0c-11.8-.5-23.5-.4-35.3.5-11.7.8-23.4,2.4-35,4.5-11.6,2.2-23,5-34.2,8.5-11.2,3.5-22.3,7.6-33,12.4-5.1,19.8-9.7,39.7-13.9,59.6-4.2,20-7.8,40.1-11,60.2-3.2,20.2-5.9,40.4-8.1,60.7-2.2,20.3-3.9,40.6-5.2,61l-39.1-3.3c1,10.3,1.2,20.6.7,30.9-.5,10.3-1.8,20.5-3.8,30.6-2,10.1-4.8,20.1-8.2,29.8-3.5,9.7-7.6,19.1-12.5,28.2l7.1,91.9,38.6,5.1,1.8,28.6-48.6,20.7-15.9-3.3M515.1,848.8l-186.8-4.3-9.6,18.6,40.8,103.1-10.4,12.2M514.6,98.6h-187.1M514.6,98.6h-187.1M322,751.7h386.2M323.8,780.3h382.7"/>
  <rect class="st0" x="334.4" y="453.5" width="363.6" height="198.3"/>
  <rect class="st1" x="334.4" y="453.5" width="363.6" height="198.3"/>
  <path d="M368.1,538.6v-34.2l11.6,34.2h4.8l11.7-33.6v33.6h5.1v-40.1h-7.1l-9.6,27.9c-1,2.9-1.7,5-2.1,6.4-.4-1.3-1.1-3.3-2-5.9l-9.5-28.4h-8v40.1h5.1ZM410.9,538.6l4.4-12.2h16.9l4.7,12.2h6.1l-16.4-40.1h-5.8l-15.4,40.1h5.7ZM421.3,510.4c.9-2.5,1.7-5.1,2.2-7.7.6,2.2,1.6,5,2.9,8.4l4.2,11.1h-13.7l4.4-11.8ZM471.5,532.2c-2.1,1.7-4.6,2.6-7.6,2.6s-4.7-.6-6.8-1.9c-2.1-1.2-3.6-3.1-4.6-5.7-1-2.6-1.5-5.5-1.5-9s.4-5.2,1.2-7.7c.8-2.5,2.3-4.5,4.4-5.9,2.1-1.5,4.7-2.2,7.7-2.2s4.9.7,6.7,2c1.7,1.3,3.1,3.4,4,6.3l5.2-1.2c-1.1-3.7-3-6.6-5.7-8.6-2.7-2.1-6.1-3.1-10.1-3.1s-6.8.8-9.8,2.4c-2.9,1.6-5.2,4-6.8,7.1-1.6,3.1-2.4,6.7-2.4,10.9s.7,7.4,2.1,10.7c1.4,3.4,3.5,5.9,6.2,7.7,2.7,1.7,6.2,2.6,10.5,2.6s7.7-1.1,10.6-3.4c2.9-2.3,4.9-5.6,6-10l-5.3-1.3c-.7,3.4-2.1,5.9-4.1,7.6h0ZM533.1,538.6v-4.7h-24.6v-13.7h22.1v-4.7h-22.1v-12.3h23.7v-4.7h-29v40.1h29.9ZM544.7,538.6v-15.9c0-3.8.8-6.3,2.3-7.6,1.5-1.3,3.3-2,5.4-2s2.5.3,3.4.9c1,.6,1.7,1.4,2.1,2.4.4,1,.6,2.5.6,4.5v17.7h4.9v-17.9c0-2.2-.1-3.9-.3-4.8-.3-1.4-.8-2.6-1.5-3.6s-1.8-1.8-3.3-2.5-3.1-1-4.8-1c-4,0-7.1,1.6-9.2,4.8v-4.1h-4.4v29.1h4.9ZM587.4,533.4c-1.3,1.2-2.9,1.8-4.8,1.8s-4.4-.9-5.9-2.6c-1.5-1.8-2.2-4.6-2.2-8.5s.8-6.7,2.4-8.4c1.5-1.8,3.5-2.7,6.1-2.7s3,.5,4.2,1.5c1.1,1,2,2.5,2.4,4.4l4.8-.7c-.6-2.9-1.8-5.2-3.9-6.8-2-1.6-4.6-2.4-7.7-2.4s-4.8.6-6.9,1.7c-2.1,1.2-3.7,3-4.7,5.3-1.1,2.4-1.6,5.1-1.6,8.2,0,4.9,1.2,8.6,3.6,11.2,2.4,2.6,5.6,3.9,9.6,3.9s5.8-1,8-2.8c2.1-1.9,3.5-4.5,4-7.8l-4.8-.7c-.3,2.5-1.2,4.3-2.5,5.4h0ZM600.7,535.3c2.5,2.6,5.8,3.9,9.9,3.9s4.9-.6,7.1-1.8c2.1-1.2,3.8-2.8,4.9-5,1.1-2.1,1.7-5,1.7-8.8s-1.3-8.2-3.8-10.8-5.8-3.9-9.8-3.9-6.6,1.1-9.1,3.3c-3,2.6-4.5,6.6-4.5,11.9s1.2,8.7,3.8,11.3h0ZM604.5,515.8c1.6-1.8,3.6-2.7,6.1-2.7s4.5.9,6.1,2.7,2.5,4.6,2.5,8.2-.8,6.6-2.5,8.5-3.6,2.8-6.1,2.8-4.5-.9-6.1-2.7-2.5-4.7-2.5-8.4.8-6.5,2.5-8.4h0ZM634.8,538.6v-15.2c0-2.1.3-4,.8-5.8.3-1.1,1-2,1.8-2.7.8-.6,1.8-1,2.9-1s2.4.3,3.6,1l1.7-4.5c-1.7-1.1-3.4-1.6-5-1.6s-2.2.3-3.2,1c-1,.6-2,2-3.1,4v-4.4h-4.4v29.1h4.9ZM665.4,533.8c-1.3,1-2.8,1.5-4.6,1.5s-4.5-.8-6.1-2.5c-1.6-1.7-2.5-4.1-2.7-7.3h21.7v-1.3c0-4.8-1.2-8.5-3.7-11.2s-5.6-4-9.5-4-7.3,1.3-9.8,4-3.8,6.5-3.8,11.4,1.2,8.4,3.8,11c2.5,2.6,5.8,3.9,10.1,3.9s6.1-.8,8.3-2.5c2.1-1.6,3.6-3.9,4.4-6.9l-5.1-.7c-.7,2.1-1.7,3.6-3,4.5h0ZM654.9,515.3c1.5-1.5,3.4-2.3,5.7-2.3s4.5,1,6.1,2.9c1,1.2,1.6,3,1.8,5.5h-16.2c.2-2.5,1-4.5,2.6-6.1h0Z"/>
  <path d="M483.6,603v-35.4h13.2v-4.7h-31.8v4.7h13.2v35.4h5.3ZM512.1,603l5.9-22.4,1.1,4.9,4.7,17.4h5.1l9.1-29.1h-4.8l-5,16.8-1.6,5.6-1.5-5.5-4.4-16.9h-5l-4.6,17c-1,3.7-1.5,5.7-1.5,6l-1.7-6.3-4.7-16.8h-5.1l8.7,29.1h5.3ZM543.9,599.7c2.5,2.6,5.8,3.9,9.9,3.9s4.9-.6,7.1-1.8c2.1-1.2,3.8-2.8,4.9-5,1.1-2.1,1.7-5,1.7-8.8s-1.3-8.2-3.8-10.8-5.8-3.9-9.8-3.9-6.6,1.1-9.1,3.3c-3,2.6-4.5,6.6-4.5,11.9s1.2,8.7,3.8,11.3h0ZM547.7,580.1c1.6-1.8,3.6-2.7,6.1-2.7s4.5.9,6.1,2.7,2.5,4.6,2.5,8.2-.8,6.6-2.5,8.5-3.6,2.8-6.1,2.8-4.5-.9-6.1-2.7-2.5-4.7-2.5-8.4.8-6.5,2.5-8.4h0Z"/>
</svg>