<svg id="MAC_Allure" data-name="MAC Allure" xmlns="http://www.w3.org/2000/svg" viewBox="0 0 1024 1024"><defs><style>.cls-1{fill:#ccc;fill-rule:evenodd;}.cls-1,.cls-2,.cls-3,.cls-4{stroke:#000;stroke-width:2.83px;}.cls-1,.cls-3,.cls-4{stroke-miterlimit:10;}.cls-2{fill:none;stroke-linecap:round;stroke-linejoin:round;}.cls-3{fill:#fff;}</style></defs><g id="Profile"><path class="cls-1" d="M512.12,315.07l332.45-.2,5.65-4.46h20.11a119.2,119.2,0,0,1,15.23,1,120.7,120.7,0,0,1,43.3,14.13q12.25,31.06,21.52,63.16t15.45,64.92q6.18,32.81,9.25,66.09t3,66.67q.09,33.36-3,66.66t-9.25,66.08q-6.2,32.8-15.45,64.92t-21.52,63.17a122.13,122.13,0,0,1-28.31,11.25,123.1,123.1,0,0,1-15,2.88,121,121,0,0,1-15.23,1H850.22l-5.65-4.46-332.45-.19-332.46.19L174,862.25H153.9a121,121,0,0,1-15.23-1,122.89,122.89,0,0,1-15-2.88,122.29,122.29,0,0,1-28.3-11.25Q83.13,816.11,73.86,784T58.4,719.08q-6.19-32.8-9.25-66.08t-3-66.66q-.09-33.39,3-66.67t9.25-66.09q6.18-32.81,15.46-64.92T95.37,325.5a120.82,120.82,0,0,1,43.3-14.13,119.2,119.2,0,0,1,15.23-1H174l5.66,4.46,332.46.2M150.93,761.33l2.66-13.87q1.49-16.94,2.23-33.94t.75-34q0-17-.75-34t-2.23-33.93l-2.66-3.26v-44l2.66-3.26q1.49-16.94,2.23-33.94t.75-34q0-17-.75-34t-2.23-33.94l-2.66-13.87-4-4.74-26.84-4.74L117,401.3l-3.14.64-3.13.63L108,404.3,105.32,406l-1.87,2.61-1.86,2.59-.79,3.11q-5.88,20.94-10.18,42.27t-7,42.92q-2.7,21.57-3.83,43.31t-.64,43.49q-.48,21.74.64,43.47t3.83,43.32q2.73,21.58,7,42.91t10.18,42.27l.79,3.11,1.86,2.6,1.87,2.59,2.68,1.75,2.69,1.73,3.13.63,3.14.64,3.15-.55L147,766.07l4-4.74m722.37-153-2.66,3.26q-1.49,16.93-2.24,33.93t-.74,34q0,17,.74,34t2.24,33.94l2.66,13.87,4,4.74,26.84,4.74,3.15.55,3.13-.64,3.14-.63,2.68-1.73,2.7-1.75,1.86-2.59,1.87-2.6.78-3.11Q929.3,737.37,933.6,716t7-42.91q2.73-21.58,3.85-43.32t.62-43.47q.49-21.76-.62-43.49t-3.85-43.31q-2.71-21.59-7-42.92t-10.17-42.27l-.78-3.11-1.87-2.59L918.92,406l-2.7-1.74-2.68-1.73-3.14-.63-3.13-.64-3.15.55-26.84,4.74-4,4.74-2.66,13.87q-1.49,16.94-2.24,33.94t-.74,34q0,17,.74,34t2.24,33.94l2.66,3.26v44"/><path class="cls-2" d="M512.12,315.07l332.45-.2,5.65-4.46h20.11a119.2,119.2,0,0,1,15.23,1,120.7,120.7,0,0,1,43.3,14.13q12.25,31.06,21.52,63.16t15.45,64.92q6.18,32.81,9.25,66.09t3,66.67q.09,33.36-3,66.66t-9.25,66.08q-6.2,32.8-15.45,64.92t-21.52,63.17a122.13,122.13,0,0,1-28.31,11.25,123.1,123.1,0,0,1-15,2.88,121,121,0,0,1-15.23,1H850.22l-5.65-4.46-332.45-.19-332.46.19L174,862.25H153.9a121,121,0,0,1-15.23-1,122.89,122.89,0,0,1-15-2.88,122.29,122.29,0,0,1-28.3-11.25Q83.13,816.11,73.86,784T58.4,719.08q-6.19-32.8-9.25-66.08t-3-66.66q-.09-33.39,3-66.67t9.25-66.09q6.18-32.81,15.46-64.92T95.37,325.5a120.82,120.82,0,0,1,43.3-14.13,119.2,119.2,0,0,1,15.23-1H174l5.66,4.46,332.46.2M150.93,761.33l2.66-13.87q1.49-16.94,2.23-33.94t.75-34q0-17-.75-34t-2.23-33.93l-2.66-3.26v-44l2.66-3.26q1.49-16.94,2.23-33.94t.75-34q0-17-.75-34t-2.23-33.94l-2.66-13.87-4-4.74-26.84-4.74L117,401.3l-3.14.64-3.13.63L108,404.3,105.32,406l-1.87,2.61-1.86,2.59-.79,3.11q-5.88,20.94-10.18,42.27t-7,42.92q-2.7,21.57-3.83,43.31t-.64,43.49q-.48,21.74.64,43.47t3.83,43.32q2.73,21.58,7,42.91t10.18,42.27l.79,3.11,1.86,2.6,1.87,2.59,2.68,1.75,2.69,1.73,3.13.63,3.14.64,3.15-.55L147,766.07l4-4.74m722.37-153-2.66,3.26q-1.49,16.93-2.24,33.93t-.74,34q0,17,.74,34t2.24,33.94l2.66,13.87,4,4.74,26.84,4.74,3.15.55,3.13-.64,3.14-.63,2.68-1.73,2.7-1.75,1.86-2.59,1.87-2.6.78-3.11Q929.3,737.37,933.6,716t7-42.91q2.73-21.58,3.85-43.32t.62-43.47q.49-21.76-.62-43.49t-3.85-43.31q-2.71-21.59-7-42.92t-10.17-42.27l-.78-3.11-1.87-2.59L918.92,406l-2.7-1.74-2.68-1.73-3.14-.63-3.13-.64-3.15.55-26.84,4.74-4,4.74-2.66,13.87q-1.49,16.94-2.24,33.94t-.74,34q0,17,.74,34t2.24,33.94l2.66,3.26v44"/><polyline class="cls-1" points="50.23 447.82 172.15 437.15 177.09 586.34 173.46 734.37 50.23 724.84"/><polyline class="cls-2" points="50.23 447.82 172.15 437.15 177.09 586.34 173.46 734.37 50.23 724.84"/><path class="cls-1" d="M37.79,455.53h0a20.77,20.77,0,0,1,5.52-5,22.69,22.69,0,0,1,3.34-1.68,19.88,19.88,0,0,1,3.58-1,49.3,49.3,0,0,1,9.7,4.69,50,50,0,0,1,15.32,15,49.38,49.38,0,0,1,4.91,9.6q3.42,13.38,6.11,27t4.57,27.27q1.91,13.69,3,27.49t1.49,27.61Q95,600.23,93.82,614t-3.07,27.48q-1.95,13.68-4.63,27.26t-6.15,27A50.37,50.37,0,0,1,75,705.29,50,50,0,0,1,50,724.9a20.25,20.25,0,0,1-3.59-1,22.21,22.21,0,0,1-3.34-1.68,21.38,21.38,0,0,1-5.5-5L16.13,586.34,37.79,455.53"/><path class="cls-2" d="M37.79,455.53h0a20.77,20.77,0,0,1,5.52-5,22.69,22.69,0,0,1,3.34-1.68,19.88,19.88,0,0,1,3.58-1,49.3,49.3,0,0,1,9.7,4.69,50,50,0,0,1,15.32,15,49.38,49.38,0,0,1,4.91,9.6q3.42,13.38,6.11,27t4.57,27.27q1.91,13.69,3,27.49t1.49,27.61Q95,600.23,93.82,614t-3.07,27.48q-1.95,13.68-4.63,27.26t-6.15,27A50.37,50.37,0,0,1,75,705.29,50,50,0,0,1,50,724.9a20.25,20.25,0,0,1-3.59-1,22.21,22.21,0,0,1-3.34-1.68,21.38,21.38,0,0,1-5.5-5L16.13,586.34,37.79,455.53"/><polyline class="cls-1" points="973.99 447.82 852.08 437.15 847.14 586.34 850.76 734.37 973.99 724.84"/><polyline class="cls-2" points="973.99 447.82 852.08 437.15 847.14 586.34 850.76 734.37 973.99 724.84"/><path class="cls-1" d="M986.43,455.53h0a21.13,21.13,0,0,0-2.53-2.74,20.6,20.6,0,0,0-3-2.25,22.2,22.2,0,0,0-3.34-1.68,20.22,20.22,0,0,0-3.59-1,50.21,50.21,0,0,0-18.16,11.34,49.5,49.5,0,0,0-11.76,17.91q-3.44,13.38-6.1,27t-4.58,27.27q-1.9,13.69-3,27.49c-.74,9.19-1.25,18.39-1.48,27.61q.38,13.83,1.54,27.61t3.08,27.48q1.92,13.68,4.62,27.26t6.14,27a51,51,0,0,0,4.93,9.57,50.18,50.18,0,0,0,15.35,14.94,49.58,49.58,0,0,0,9.71,4.67,20,20,0,0,0,3.57-1,20.87,20.87,0,0,0,3.34-1.68,20.58,20.58,0,0,0,3-2.26,21.77,21.77,0,0,0,2.52-2.74l21.44-130.83L986.43,455.53"/><path class="cls-2" d="M986.43,455.53h0a21.13,21.13,0,0,0-2.53-2.74,20.6,20.6,0,0,0-3-2.25,22.2,22.2,0,0,0-3.34-1.68,20.22,20.22,0,0,0-3.59-1,50.21,50.21,0,0,0-18.16,11.34,49.5,49.5,0,0,0-11.76,17.91q-3.44,13.38-6.1,27t-4.58,27.27q-1.9,13.69-3,27.49c-.74,9.19-1.25,18.39-1.48,27.61q.38,13.83,1.54,27.61t3.08,27.48q1.92,13.68,4.62,27.26t6.14,27a51,51,0,0,0,4.93,9.57,50.18,50.18,0,0,0,15.35,14.94,49.58,49.58,0,0,0,9.71,4.67,20,20,0,0,0,3.57-1,20.87,20.87,0,0,0,3.34-1.68,20.58,20.58,0,0,0,3-2.26,21.77,21.77,0,0,0,2.52-2.74l21.44-130.83L986.43,455.53"/><path class="cls-1" d="M510.38,1016.4h-.55q-31.9,0-63.75-2.53t-63.38-7.43q-31.53-4.94-62.62-12.28T258.59,977.1l-55.23-30.21-2.5-3.84-2.12-30.13L193,906.23q-1.22-20.7-1.72-41.42T191,823.36q.18-20.73,1-41.43t2.4-41.39l-11.84-4.16V436.28l55.29-13,5.58-113.07q.42-8.65,1.27-17.28L255.9,177.85,329.21,51.31l33.15-3,2.13-2.58h10.34l2.8-31.46h265.5l2.8,31.46h10.33l2.14,2.58,33.14,3,73.31,126.54L776.07,293q.84,8.63,1.27,17.28l5.58,113.07,55.28,13v300.1l-11.84,4.16q1.56,20.67,2.41,41.39t1,41.43q.16,20.73-.35,41.45t-1.72,41.42L822,912.92l-2.12,30.13-2.5,3.84L762.16,977.1q-30.4,9.72-61.49,17.06t-62.61,12.28q-31.54,4.93-63.38,7.43t-63.75,2.53h-.55"/><path class="cls-2" d="M510.38,1016.4h-.55q-31.9,0-63.75-2.53t-63.38-7.43q-31.53-4.94-62.62-12.28T258.59,977.1l-55.23-30.21-2.5-3.84-2.12-30.13L193,906.23q-1.22-20.7-1.72-41.42T191,823.36q.18-20.73,1-41.43t2.4-41.39l-11.84-4.16V436.28l55.29-13,5.58-113.07q.42-8.65,1.27-17.28L255.9,177.85,329.21,51.31l33.15-3,2.13-2.58h10.34l2.8-31.46h265.5l2.8,31.46h10.33l2.14,2.58,33.14,3,73.31,126.54L776.07,293q.84,8.63,1.27,17.28l5.58,113.07,55.28,13v300.1l-11.84,4.16q1.56,20.67,2.41,41.39t1,41.43q.16,20.73-.35,41.45t-1.72,41.42L822,912.92l-2.12,30.13-2.5,3.84L762.16,977.1q-30.4,9.72-61.49,17.06t-62.61,12.28q-31.54,4.93-63.38,7.43t-63.75,2.53h-.55M329.21,51.31H692.63"/><polyline class="cls-1" points="182.71 735.96 194.32 741.29 215.11 696.94 252.88 539.08 317.03 507.68 317.39 500.9 270.17 476.13 238.53 423.63"/><polyline class="cls-2" points="182.71 735.96 194.32 741.29 215.11 696.94 252.88 539.08 317.03 507.68 317.39 500.9 270.17 476.13 238.53 423.63"/><path class="cls-1" d="M705.74,502.15h0a148.75,148.75,0,0,1-13,41.38,149.06,149.06,0,0,1-10.86,18.83,150.82,150.82,0,0,1-13.47,17.07L512,580.56l-156.46-.25a150.9,150.9,0,0,1-13.58-17,150.37,150.37,0,0,1-19.08-39,149.5,149.5,0,0,1-5.1-21.13l18.66-238a33.31,33.31,0,0,1,28.17-33.82q18.07-3.44,36.31-6t36.56-4.21q18.31-1.65,36.71-2.4t36.79-.59q18.41-.25,36.79.38t36.73,2.2q18.35,1.54,36.58,4t36.34,5.79a33.3,33.3,0,0,1,28.37,33.66l20,237.93"/><path class="cls-2" d="M705.74,502.15h0a148.75,148.75,0,0,1-13,41.38,149.06,149.06,0,0,1-10.86,18.83,150.82,150.82,0,0,1-13.47,17.07L512,580.56l-156.46-.25a150.9,150.9,0,0,1-13.58-17,150.37,150.37,0,0,1-19.08-39,149.5,149.5,0,0,1-5.1-21.13l18.66-238a33.31,33.31,0,0,1,28.17-33.82q18.07-3.44,36.31-6t36.56-4.21q18.31-1.65,36.71-2.4t36.79-.59q18.41-.25,36.79.38t36.73,2.2q18.35,1.54,36.58,4t36.34,5.79a33.3,33.3,0,0,1,28.37,33.66l20,237.93"/><path class="cls-1" d="M270.17,476.13h0q-.37-37.42.81-74.85t4-74.75q2.76-37.33,7.11-74.53t10.26-74.15q11.16-13.82,23.07-27t24.54-25.67q12.63-12.5,25.93-24.27T393.1,78.13l117.83-.51"/><path class="cls-2" d="M270.17,476.13h0q-.37-37.42.81-74.85t4-74.75q2.76-37.33,7.11-74.53t10.26-74.15q11.16-13.82,23.07-27t24.54-25.67q12.63-12.5,25.93-24.27T393.1,78.13l117.83-.51"/><path class="cls-1" d="M751.68,476.13h0q.39-37.42-.81-74.85t-4-74.75q-2.79-37.33-7.12-74.53t-10.25-74.15q-11.16-13.82-23.08-27t-24.54-25.67q-12.61-12.5-25.93-24.27T628.74,78.13l-117.81-.51"/><path class="cls-2" d="M751.68,476.13h0q.39-37.42-.81-74.85t-4-74.75q-2.79-37.33-7.12-74.53t-10.25-74.15q-11.16-13.82-23.08-27t-24.54-25.67q-12.61-12.5-25.93-24.27T628.74,78.13l-117.81-.51"/><polyline class="cls-1" points="838.06 735.96 826.44 741.29 805.64 696.94 767.88 539.08 703.72 507.68 703.36 500.9 750.59 476.13 782.23 423.63"/><polyline class="cls-2" points="838.06 735.96 826.44 741.29 805.64 696.94 767.88 539.08 703.72 507.68 703.36 500.9 750.59 476.13 782.23 423.63"/><rect class="cls-3" x="294.08" y="530.78" width="435.76" height="319.53"/><rect class="cls-2" x="294.08" y="530.78" width="435.76" height="319.53"/><path class="cls-4" d="M431,624.13V565.31h11.78l14.06,41.62c1.3,3.87,2.24,6.77,2.84,8.69q1-3.2,3.17-9.42l14.3-40.89h10.49v58.82h-7.57V574.87l-17.29,49.26H455.7L438.56,574v50.09Zm62.91,0,22.65-58.82h8.59l24.17,58.82h-8.93L533.5,606.3H508.62l-6.44,17.83Zm17-24.18h20.13l-6.16-16.25q-2.83-7.41-4.26-12.29a81.12,81.12,0,0,1-3.21,11.34l-6.5,17.2Zm87,3.52,7.83,2q-2.47,9.6-8.86,14.63a24.56,24.56,0,0,1-15.64,5q-9.57,0-15.56-3.87A24.22,24.22,0,0,1,556.56,610a39.86,39.86,0,0,1-3.12-15.76,34.52,34.52,0,0,1,3.52-16,24.19,24.19,0,0,1,10-10.39,29.42,29.42,0,0,1,14.34-3.55q8.86,0,14.92,4.49a23.28,23.28,0,0,1,8.43,12.64L597,583.23q-2.06-6.42-6-9.34A16,16,0,0,0,581.2,571a19.19,19.19,0,0,0-11.4,3.25,17.15,17.15,0,0,0-6.43,8.72,34.82,34.82,0,0,0-1.85,11.28,35.57,35.57,0,0,0,2.2,13.09,16.22,16.22,0,0,0,6.84,8.36,19.3,19.3,0,0,0,10,2.77,16.92,16.92,0,0,0,11.14-3.77c3-2.52,5.1-6.24,6.17-11.19Z"/><path class="cls-4" d="M409.41,717.6l22.47-58.82h8.53l24,58.82h-8.86l-6.83-17.83H424l-6.39,17.83Zm16.89-24.18h20l-6.11-16.25q-2.82-7.41-4.22-12.3a84,84,0,0,1-3.19,11.35l-6.45,17.2Zm43.08,24.18V658.78h7.25V717.6Zm18.16,0V658.78h7.25V717.6Zm46.19,0v-6.27a15.55,15.55,0,0,1-13.49,7.23,17,17,0,0,1-7-1.45,11.56,11.56,0,0,1-4.85-3.63,13.78,13.78,0,0,1-2.22-5.36,37.2,37.2,0,0,1-.44-6.75V674.94H513V698.6a41.63,41.63,0,0,0,.44,7.63,7.54,7.54,0,0,0,2.87,4.48,8.86,8.86,0,0,0,5.43,1.63,11.82,11.82,0,0,0,6.08-1.67,9.24,9.24,0,0,0,4-4.54A22.75,22.75,0,0,0,533,697.8V674.94h7.25V717.6Zm17.58,0V674.94h6.54v6.44q2.48-4.51,4.58-6a8,8,0,0,1,4.63-1.44,14,14,0,0,1,7.4,2.33L572,683a10.24,10.24,0,0,0-5.28-1.58,6.87,6.87,0,0,0-4.24,1.43,7.78,7.78,0,0,0-2.68,4,28.64,28.64,0,0,0-1.19,8.44V717.6Zm56.49-13.73,7.47,1A18.18,18.18,0,0,1,608.74,715q-4.79,3.6-12.19,3.6-9.34,0-14.82-5.76t-5.47-16.17q0-10.75,5.53-16.7A18.69,18.69,0,0,1,596.15,674a18.2,18.2,0,0,1,14,5.82q5.42,5.82,5.41,16.37c0,.43,0,1.07,0,1.93H583.7q.4,7,4,10.76a11.81,11.81,0,0,0,8.9,3.73,11,11,0,0,0,6.78-2.08,13.81,13.81,0,0,0,4.45-6.64Zm-23.72-11.74h23.8c-.32-3.57-1.23-6.24-2.73-8A11.08,11.08,0,0,0,596.2,680a11.5,11.5,0,0,0-8.37,3.31,13.1,13.1,0,0,0-3.75,8.87Z"/><path class="cls-4" d="M405.68,811.06V752.24h22.51a54.39,54.39,0,0,1,9.08.57,18,18,0,0,1,7.36,2.75,14.52,14.52,0,0,1,4.79,5.67,18.91,18.91,0,0,1-3,20.72q-4.85,5.19-17.5,5.19H413.57v23.92Zm7.89-30.85H429q7.65,0,10.87-2.81a10,10,0,0,0,3.21-7.91,10.53,10.53,0,0,0-1.89-6.32,8.86,8.86,0,0,0-5-3.47,34.08,34.08,0,0,0-7.37-.52H413.56v21Zm46.5,30.85V768.41h6.65v6.44c1.68-3,3.23-5,4.66-6a8.19,8.19,0,0,1,4.69-1.44,14.43,14.43,0,0,1,7.53,2.32l-2.56,6.7a10.39,10.39,0,0,0-5.36-1.58,6.93,6.93,0,0,0-4.3,1.43,7.74,7.74,0,0,0-2.73,4,27.94,27.94,0,0,0-1.21,8.44v22.34Zm25.05-21.33q0-11.84,6.67-17.54a20.24,20.24,0,0,1,13.58-4.74q8.91,0,14.56,5.76t5.65,15.92q0,8.24-2.5,13a17.56,17.56,0,0,1-7.28,7.33A21.38,21.38,0,0,1,505.37,812q-9.06,0-14.66-5.74t-5.59-16.55Zm7.56,0c0,5.47,1.2,9.55,3.61,12.27a12.09,12.09,0,0,0,18.13,0q3.6-4.1,3.61-12.49,0-7.9-3.63-12a12.11,12.11,0,0,0-18.11,0q-3.62,4-3.61,12.24Zm43.09,21.35v-37h-6.45v-5.64h6.45V763.9a19.6,19.6,0,0,1,.77-6.35,9.27,9.27,0,0,1,3.73-4.53,13.68,13.68,0,0,1,7.48-1.74,36.54,36.54,0,0,1,6.84.72l-1.1,6.29a24.69,24.69,0,0,0-4.31-.4c-2.23,0-3.8.46-4.73,1.4s-1.38,2.66-1.38,5.21v3.91h8.4v5.64h-8.34v37Zm21.37-50.61v-8.21h7.36v8.21Zm0,50.61V768.41h7.36v42.65Zm18.22,0V752.24h7.37v58.82Zm48.19-13.72,7.59,1a18.15,18.15,0,0,1-6.64,10.12q-4.85,3.6-12.38,3.6-9.5,0-15-5.76t-5.56-16.16q0-10.77,5.62-16.71t14.58-5.94a18.64,18.64,0,0,1,14.17,5.81q5.5,5.82,5.5,16.38c0,.42,0,1.07,0,1.92H599.06q.42,7,4,10.76a12.08,12.08,0,0,0,9,3.74A11.39,11.39,0,0,0,619,804a13.8,13.8,0,0,0,4.53-6.65Zm-24.1-11.74h24.18c-.33-3.57-1.25-6.25-2.78-8a11.32,11.32,0,0,0-9.09-4.16,11.8,11.8,0,0,0-8.5,3.32,13,13,0,0,0-3.81,8.87Z"/></g></svg>