<?xml version="1.0" encoding="UTF-8"?>
<svg id="MAC_Aura_Raven_XIP" xmlns="http://www.w3.org/2000/svg" version="1.1" viewBox="0 0 1024 1024">
  <!-- Generator: Adobe Illustrator 29.2.1, SVG Export Plug-In . SVG Version: 2.1.0 Build 116)  -->
  <defs>
    <style>
      .st0 {
        fill: #fff;
      }

      .st1 {
        fill: none;
        stroke: #000;
        stroke-linecap: round;
        stroke-linejoin: round;
      }

      .st2 {
        fill: #ccc;
      }
    </style>
  </defs>
  <path class="st2" d="M909.5,624.7v.3c-.4,1.8-1.4,3.5-2.7,4.8l-6,5.9,1.3.2c5.2.9,8.7,5.8,7.8,10.9-6.1,37.2-15.6,73.7-28.3,109.2-3.4,5.4-8.9,9.2-15.2,10.4l-353.8,1.3-354.8-1.3c-6.3-1.2-11.8-5-15.2-10.4-12.7-35.5-22.2-72-28.3-109.2-.9-5.2,2.6-10.1,7.8-10.9l1.3-.2-6-5.9c-1.3-1.3-2.3-3-2.6-4.8v-.3c-7.9-37.3-11.4-75.3-10.7-113.4-.6-38.1,3.1-76.1,11-113.4v-.3c.4-1.8,1.4-3.5,2.7-4.8l6-5.9-1.3-.2c-5.2-.9-8.6-5.8-7.8-11,6.3-37.2,15.9-73.7,28.7-109.1,3.4-5.4,8.9-9.2,15.2-10.4h706.8c6.3,1.2,11.8,4.9,15.2,10.4,12.8,35.4,22.4,72,28.7,109.1.9,5.2-2.6,10.1-7.8,11l-1.3.2,6,5.9c1.3,1.3,2.3,3,2.7,4.8v.3c8,37.3,11.7,75.3,11.1,113.4.8,38.1-2.8,76.1-10.6,113.4M133.1,511.5h0c-1.9,35.6,2.4,71.3,12.6,105.5,3.2,7.9,11.3,12.6,19.8,11.5l-42.1,7.2,56.6-9.6c5.7-4.9,9-12.1,8.7-19.6l-1.1-95.1,1.4-95.1c.3-7.5-2.9-14.7-8.7-19.6l-56.6-9.8,42,7.4c-8.4-1.1-16.5,3.6-19.8,11.4-10.4,34.1-14.8,69.8-13,105.5h0s0,0,0,0c0,0,0,0,0,0h0M900.8,635.7l-42.1-7.2c8.4,1.1,16.5-3.6,19.8-11.5,10.2-34.2,14.5-69.9,12.6-105.5h0s0,0,0,0c0,0,0,0,0,0h0c1.8-35.6-2.6-71.3-13-105.5-3.3-7.8-11.4-12.5-19.8-11.4l42-7.4-56.6,9.8c-5.7,4.9-8.9,12.1-8.7,19.6l1.4,95.1-1.1,95.1c-.2,7.5,3,14.7,8.7,19.6l56.6,9.6"/>
  <path class="st1" d="M909.5,624.7v.3c-.4,1.8-1.4,3.5-2.7,4.8l-6,5.9,1.3.2c5.2.9,8.7,5.8,7.8,10.9-6.1,37.2-15.6,73.7-28.3,109.2-3.4,5.4-8.9,9.2-15.2,10.4l-353.8,1.3-354.8-1.3c-6.3-1.2-11.8-5-15.2-10.4-12.7-35.5-22.2-72-28.3-109.2-.9-5.2,2.6-10.1,7.8-10.9l1.3-.2-6-5.9c-1.3-1.3-2.3-3-2.6-4.8v-.3c-7.9-37.3-11.4-75.3-10.7-113.4-.6-38.1,3.1-76.1,11-113.4v-.3c.4-1.8,1.4-3.5,2.7-4.8l6-5.9-1.3-.2c-5.2-.9-8.6-5.8-7.8-11,6.3-37.2,15.9-73.7,28.7-109.1,3.4-5.4,8.9-9.2,15.2-10.4h706.8c6.3,1.2,11.8,4.9,15.2,10.4,12.8,35.4,22.4,72,28.7,109.1.9,5.2-2.6,10.1-7.8,11l-1.3.2,6,5.9c1.3,1.3,2.3,3,2.7,4.8v.3c8,37.3,11.7,75.3,11.1,113.4.8,38.1-2.8,76.1-10.6,113.4M133.1,511.5h0c-1.9,35.6,2.4,71.3,12.6,105.5,3.2,7.9,11.3,12.6,19.8,11.5l-42.1,7.2,56.6-9.6c5.7-4.9,9-12.1,8.7-19.6l-1.1-95.1,1.4-95.1c.3-7.5-2.9-14.7-8.7-19.6l-56.6-9.8,42,7.4c-8.4-1.1-16.5,3.6-19.8,11.4-10.4,34.1-14.8,69.8-13,105.5h0s0,0,0,0c0,0,0,0,0,0h0M900.8,635.7l-42.1-7.2c8.4,1.1,16.5-3.6,19.8-11.5,10.2-34.2,14.5-69.9,12.6-105.5h0s0,0,0,0c0,0,0,0,0,0h0c1.8-35.6-2.6-71.3-13-105.5-3.3-7.8-11.4-12.5-19.8-11.4l42-7.4-56.6,9.8c-5.7,4.9-8.9,12.1-8.7,19.6l1.4,95.1-1.1,95.1c-.2,7.5,3,14.7,8.7,19.6l56.6,9.6"/>
  <path class="st2" d="M156.6,662.2h0c0,1.8-.7,3.5-2,4.7-1.3,1.2-3,1.8-4.8,1.7l-49.9-3.9-53.1-4.2c-2.2-.2-4.2-1.6-5-3.6h0c-37.9-92.7-38.1-196.5-.7-289.3h0c.8-2,2.8-3.5,5-3.6l53.4-4.3,50.3-4c1.8-.1,3.5.5,4.8,1.7,1.3,1.2,2,2.9,2,4.6h0s711,0,711,0h0c0-1.8.7-3.5,2-4.7,1.3-1.2,3-1.8,4.8-1.7l50.3,4,53.4,4.3c2.2.2,4.2,1.6,5,3.7h0c37.4,92.8,37.1,196.6-.7,289.2h0c-.8,2.1-2.8,3.5-5,3.7l-53.1,4.2-49.9,3.9c-1.8.1-3.5-.5-4.8-1.7-1.3-1.2-2-2.9-2-4.6h0s-711,0-711,0"/>
  <path class="st1" d="M156.6,662.2h0c0,1.8-.7,3.5-2,4.7-1.3,1.2-3,1.8-4.8,1.7l-49.9-3.9-53.1-4.2c-2.2-.2-4.2-1.6-5-3.6h0c-37.9-92.7-38.1-196.5-.7-289.3h0c.8-2,2.8-3.5,5-3.6l53.4-4.3,50.3-4c1.8-.1,3.5.5,4.8,1.7,1.3,1.2,2,2.9,2,4.6h0s711,0,711,0h0c0-1.8.7-3.5,2-4.7,1.3-1.2,3-1.8,4.8-1.7l50.3,4,53.4,4.3c2.2.2,4.2,1.6,5,3.7h0c37.4,92.8,37.1,196.6-.7,289.2h0c-.8,2.1-2.8,3.5-5,3.7l-53.1,4.2-49.9,3.9c-1.8.1-3.5-.5-4.8-1.7-1.3-1.2-2-2.9-2-4.6h0s-711,0-711,0"/>
  <path class="st2" d="M982.7,512.2h0c0,0-.1,0-.2,0s-.1,0-.2,0v144.6"/>
  <path class="st1" d="M982.7,512.2h0c0,0-.1,0-.2,0s-.1,0-.2,0M983.1,367.5c-9.1,23.2-16,47-20.6,71.3-4.6,24.3-7,48.7-7.1,73.3,0,24.6,2.2,49.1,6.7,73.4,4.5,24.3,11.3,48.1,20.2,71.3M41.9,656.8c9-23.3,15.7-47.1,20.2-71.3,4.5-24.3,6.7-48.7,6.7-73.4,0-24.6-2.4-49.1-7.1-73.3-4.7-24.3-11.5-48-20.6-71.3M867.6,662.2v-300.3M156.6,662.2v-300.3"/>
  <rect class="st0" x="196.8" y="770.3" width="114.2" height="57.5"/>
  <path class="st2" d="M796.7,785.2h0c.2,3.2.2,6.3.2,9.5,0,3.2-.2,6.3-.6,9.5-.3,3.1-.7,6.3-1.3,9.4-.6,3.1-1.2,6.2-2,9.3-10.8,9.9-22.1,19.1-33.9,27.8-11.8,8.7-24,16.7-36.6,24-12.6,7.4-25.6,14-39,20-13.3,6-27,11.2-40.9,15.8-3.2-.7-6.4-1.5-9.6-2.5-3.2-1-6.3-2.1-9.3-3.4-3-1.3-6-2.7-8.9-4.3-2.9-1.6-5.7-3.3-8.5-5.1-15.4,3.8-31,6.6-46.7,8.5-15.7,1.9-31.6,2.9-47.4,2.9s-31.7-1-47.4-2.9c-15.7-1.9-31.3-4.8-46.7-8.5-2.7,1.8-5.6,3.6-8.5,5.1-2.9,1.6-5.9,3-8.9,4.3-3,1.3-6.2,2.4-9.3,3.4-3.2,1-6.4,1.8-9.6,2.5-13.9-4.5-27.6-9.8-40.9-15.8-13.3-6-26.4-12.7-39-20-12.6-7.4-24.9-15.4-36.6-24-11.8-8.7-23.1-17.9-33.9-27.8-.8-3.1-1.5-6.2-2-9.3-.6-3.1-1-6.2-1.3-9.4-.3-3.1-.5-6.3-.6-9.5,0-3.2,0-6.3.2-9.5-34.9-36.4-62.6-79.1-81.4-125.9-18.8-46.8-28.5-96.8-28.5-147.2s9.7-100.4,28.5-147.2c18.8-46.8,46.5-89.6,81.4-125.9-.2-3.2-.2-6.3-.2-9.5,0-3.2.2-6.3.6-9.5.3-3.1.7-6.3,1.3-9.4.6-3.1,1.2-6.2,2-9.3,10.8-9.9,22.1-19.1,33.9-27.8,11.8-8.7,24-16.7,36.6-24,12.6-7.4,25.6-14,39-20s27-11.2,40.9-15.8c3.2.7,6.4,1.5,9.6,2.5,3.2,1,6.3,2.1,9.3,3.4,3,1.3,6,2.7,8.9,4.3,2.9,1.6,5.7,3.3,8.5,5.1,15.4-3.8,31-6.6,46.7-8.5,15.7-1.9,31.6-2.9,47.4-2.9s31.7,1,47.4,2.9c15.7,1.9,31.3,4.8,46.7,8.5,2.7-1.8,5.6-3.6,8.5-5.1,2.9-1.6,5.9-3,8.9-4.3,3-1.3,6.2-2.4,9.3-3.4,3.2-1,6.4-1.8,9.6-2.5,13.9,4.5,27.6,9.8,40.9,15.8,13.3,6,26.4,12.7,39,20,12.6,7.4,24.9,15.4,36.6,24,11.8,8.7,23.1,17.9,33.9,27.8.8,3.1,1.5,6.2,2,9.3.6,3.1,1,6.2,1.3,9.4.3,3.1.5,6.3.6,9.5,0,3.2,0,6.3-.2,9.5,34.9,36.4,62.6,79.1,81.4,125.9,18.8,46.8,28.5,96.8,28.5,147.2s-9.7,100.4-28.5,147.2c-18.8,46.8-46.5,89.6-81.4,125.9"/>
  <path class="st1" d="M796.7,785.2h0c.2,3.2.2,6.3.2,9.5,0,3.2-.2,6.3-.6,9.5-.3,3.1-.7,6.3-1.3,9.4-.6,3.1-1.2,6.2-2,9.3-10.8,9.9-22.1,19.1-33.9,27.8-11.8,8.7-24,16.7-36.6,24-12.6,7.4-25.6,14-39,20-13.3,6-27,11.2-40.9,15.8-3.2-.7-6.4-1.5-9.6-2.5-3.2-1-6.3-2.1-9.3-3.4-3-1.3-6-2.7-8.9-4.3-2.9-1.6-5.7-3.3-8.5-5.1-15.4,3.8-31,6.6-46.7,8.5-15.7,1.9-31.6,2.9-47.4,2.9s-31.7-1-47.4-2.9c-15.7-1.9-31.3-4.8-46.7-8.5-2.7,1.8-5.6,3.6-8.5,5.1-2.9,1.6-5.9,3-8.9,4.3-3,1.3-6.2,2.4-9.3,3.4-3.2,1-6.4,1.8-9.6,2.5-13.9-4.5-27.6-9.8-40.9-15.8-13.3-6-26.4-12.7-39-20-12.6-7.4-24.9-15.4-36.6-24-11.8-8.7-23.1-17.9-33.9-27.8-.8-3.1-1.5-6.2-2-9.3-.6-3.1-1-6.2-1.3-9.4-.3-3.1-.5-6.3-.6-9.5,0-3.2,0-6.3.2-9.5-34.9-36.4-62.6-79.1-81.4-125.9-18.8-46.8-28.5-96.8-28.5-147.2s9.7-100.4,28.5-147.2c18.8-46.8,46.5-89.6,81.4-125.9-.2-3.2-.2-6.3-.2-9.5,0-3.2.2-6.3.6-9.5.3-3.1.7-6.3,1.3-9.4.6-3.1,1.2-6.2,2-9.3,10.8-9.9,22.1-19.1,33.9-27.8,11.8-8.7,24-16.7,36.6-24,12.6-7.4,25.6-14,39-20s27-11.2,40.9-15.8c3.2.7,6.4,1.5,9.6,2.5,3.2,1,6.3,2.1,9.3,3.4,3,1.3,6,2.7,8.9,4.3,2.9,1.6,5.7,3.3,8.5,5.1,15.4-3.8,31-6.6,46.7-8.5,15.7-1.9,31.6-2.9,47.4-2.9s31.7,1,47.4,2.9c15.7,1.9,31.3,4.8,46.7,8.5,2.7-1.8,5.6-3.6,8.5-5.1,2.9-1.6,5.9-3,8.9-4.3,3-1.3,6.2-2.4,9.3-3.4,3.2-1,6.4-1.8,9.6-2.5,13.9,4.5,27.6,9.8,40.9,15.8,13.3,6,26.4,12.7,39,20,12.6,7.4,24.9,15.4,36.6,24,11.8,8.7,23.1,17.9,33.9,27.8.8,3.1,1.5,6.2,2,9.3.6,3.1,1,6.2,1.3,9.4.3,3.1.5,6.3.6,9.5,0,3.2,0,6.3-.2,9.5,34.9,36.4,62.6,79.1,81.4,125.9,18.8,46.8,28.5,96.8,28.5,147.2s-9.7,100.4-28.5,147.2c-18.8,46.8-46.5,89.6-81.4,125.9"/>
  <path class="st2" d="M906.6,512c0-216.4-178.1-394.5-394.5-394.5S117.6,295.6,117.6,512s178.1,394.5,394.5,394.5,394.5-178.1,394.5-394.5"/>
  <path class="st1" d="M906.6,512c0-216.4-178.1-394.5-394.5-394.5S117.6,295.6,117.6,512s178.1,394.5,394.5,394.5,394.5-178.1,394.5-394.5"/>
  <path class="st2" d="M848.4,512c0-184.5-151.8-336.3-336.3-336.3s-336.3,151.8-336.3,336.3,151.8,336.3,336.3,336.3,336.3-151.8,336.3-336.3"/>
  <path class="st1" d="M848.4,512c0-184.5-151.8-336.3-336.3-336.3s-336.3,151.8-336.3,336.3,151.8,336.3,336.3,336.3,336.3-151.8,336.3-336.3"/>
  <path class="st2" d="M610,781.5h0c.4,6-.3,12.1-2.1,17.9-1.8,5.8-4.5,11.2-8.2,16-3.7,4.8-8.2,8.9-13.3,12.1-5.1,3.2-10.8,5.4-16.8,6.6-5.9,1.2-12,1.3-18,.3-6-1-11.7-3-17-6.1-5.2-3-9.9-7-13.8-11.6-3.8-4.7-6.8-10-8.8-15.7-2,5.7-4.9,11.1-8.8,15.7-3.8,4.7-8.5,8.6-13.8,11.6-5.2,3-11,5.1-17,6.1s-12.1.9-18-.3-11.6-3.4-16.8-6.6-9.7-7.3-13.3-12.1c-3.7-4.8-6.5-10.2-8.2-16-1.8-5.8-2.5-11.9-2.1-17.9-3.7,4.8-8.3,8.9-13.6,12.1-5.2,3.2-11,5.4-17,6.5-6,1.1-12.2,1.1-18.2,0-6-1.1-11.8-3.3-17-6.4-5.2-3.2-9.9-7.2-13.6-12-3.8-4.8-6.6-10.3-8.5-16.1-1.8-5.8-2.6-12-2.2-18.1.4-6.1,1.9-12.1,4.4-17.7-5,3.5-10.6,6-16.5,7.5-5.9,1.5-12,1.9-18,1.2-6-.7-11.9-2.5-17.3-5.3-5.4-2.8-10.2-6.5-14.3-11-4.1-4.5-7.3-9.7-9.5-15.4-2.2-5.7-3.4-11.7-3.5-17.7,0-6.1,1-12.1,3-17.8,2.1-5.7,5.2-11,9.1-15.6-5.9,1.2-11.9,1.3-17.9.4-5.9-.9-11.7-2.9-16.9-5.9-5.2-3-9.9-6.8-13.8-11.4-3.9-4.6-6.9-9.9-8.9-15.5-2-5.7-3-11.6-2.9-17.6,0-6,1.3-12,3.4-17.5,2.2-5.6,5.4-10.8,9.4-15.2,4-4.5,8.8-8.2,14.1-11-5.9-.9-11.6-2.8-16.9-5.7-5.2-2.9-9.9-6.7-13.8-11.3-3.9-4.5-7-9.7-9-15.4-2.1-5.6-3.1-11.6-3.1-17.5,0-6,1.1-11.9,3.2-17.5,2.1-5.6,5.2-10.8,9.1-15.3,3.9-4.5,8.6-8.3,13.9-11.2,5.2-2.9,11-4.8,16.9-5.7-5.3-2.8-10.1-6.5-14.2-11-4-4.5-7.2-9.6-9.4-15.2-2.2-5.6-3.4-11.5-3.5-17.6-.1-6,.9-12,2.9-17.7,2-5.7,5-10.9,8.9-15.6,3.9-4.6,8.5-8.5,13.8-11.5,5.2-3,11-5,16.9-5.9,5.9-.9,12-.8,17.9.4-4-4.6-7.1-9.9-9.1-15.6-2.1-5.7-3.1-11.7-3-17.8s1.2-12.1,3.5-17.7c2.2-5.7,5.4-10.9,9.5-15.4,4.1-4.5,8.9-8.2,14.3-11,5.4-2.8,11.3-4.6,17.3-5.3s12.1-.3,18,1.2c5.9,1.5,11.5,4,16.5,7.5-2.5-5.6-4-11.6-4.4-17.7-.4-6.1.4-12.2,2.2-18.1,1.8-5.8,4.7-11.3,8.5-16.1,3.8-4.8,8.4-8.9,13.6-12,5.2-3.2,11-5.3,17-6.4,6-1.1,12.2-1.1,18.2,0,6,1.1,11.8,3.3,17,6.5,5.2,3.2,9.8,7.3,13.6,12.1-.4-6,.3-12.1,2.1-17.9,1.8-5.8,4.5-11.2,8.2-16,3.7-4.8,8.2-8.9,13.3-12.1,5.1-3.2,10.8-5.4,16.8-6.6,5.9-1.2,12-1.3,18-.3s11.7,3,17,6.1c5.2,3,9.9,7,13.8,11.6,3.8,4.7,6.8,10,8.8,15.7,2-5.7,4.9-11.1,8.8-15.7s8.5-8.6,13.8-11.6c5.2-3,11-5.1,17-6.1,6-1,12.1-.9,18,.3,5.9,1.2,11.6,3.4,16.8,6.6,5.1,3.2,9.7,7.3,13.3,12.1,3.7,4.8,6.5,10.2,8.2,16,1.8,5.8,2.5,11.9,2.1,17.9,3.7-4.8,8.3-8.9,13.6-12.1,5.2-3.2,11-5.4,17-6.5,6-1.1,12.2-1.1,18.2,0,6,1.1,11.8,3.3,17,6.4,5.2,3.2,9.9,7.2,13.6,12s6.6,10.3,8.5,16.1,2.6,12,2.2,18.1c-.4,6.1-1.9,12.1-4.4,17.7,5-3.5,10.6-6,16.5-7.5,5.9-1.5,12-1.9,18-1.2,6,.7,11.9,2.5,17.3,5.3s10.2,6.5,14.3,11c4.1,4.5,7.3,9.7,9.5,15.4,2.2,5.7,3.4,11.7,3.5,17.7,0,6.1-1,12.1-3,17.8-2.1,5.7-5.2,11-9.1,15.6,5.9-1.2,12-1.3,17.9-.4,5.9.9,11.7,3,16.9,5.9,5.2,3,9.9,6.9,13.8,11.5,3.9,4.6,6.9,9.9,8.9,15.6,2,5.7,3,11.7,2.9,17.7-.1,6-1.3,12-3.5,17.6-2.2,5.6-5.4,10.8-9.4,15.2s-8.8,8.2-14.2,11c5.9.9,11.6,2.8,16.9,5.7,5.2,2.9,9.9,6.7,13.9,11.2,3.9,4.5,7,9.7,9.1,15.3,2.1,5.6,3.2,11.5,3.2,17.5,0,6-1,11.9-3.1,17.5-2.1,5.6-5.1,10.8-9,15.4-3.9,4.5-8.6,8.4-13.8,11.3-5.2,2.9-10.9,4.8-16.9,5.7,5.3,2.8,10.1,6.5,14.1,11,4,4.5,7.2,9.6,9.4,15.2,2.2,5.6,3.4,11.5,3.4,17.5,0,6-.9,12-2.9,17.6-2,5.7-5,10.9-8.9,15.5-3.9,4.6-8.5,8.5-13.8,11.4-5.2,3-10.9,5-16.9,5.9s-12,.8-17.9-.4c4,4.6,7.1,9.9,9.1,15.6,2.1,5.7,3.1,11.7,3,17.8,0,6.1-1.2,12.1-3.5,17.7-2.2,5.7-5.4,10.9-9.5,15.4-4.1,4.5-8.9,8.2-14.3,11-5.4,2.8-11.3,4.6-17.3,5.3-6,.7-12.1.3-18-1.2s-11.5-4-16.5-7.5c2.5,5.6,4,11.6,4.4,17.7.4,6.1-.4,12.2-2.2,18.1s-4.7,11.3-8.5,16.1c-3.8,4.8-8.4,8.9-13.6,12-5.2,3.2-11,5.3-17,6.4-6,1.1-12.2,1.1-18.2,0-6-1.1-11.8-3.3-17-6.5-5.2-3.2-9.8-7.3-13.6-12.1M343.7,413.8h0c-2.5-2.4-4.7-5-6.6-7.8-1.9-2.8-3.6-5.9-4.9-9-1.3-3.2-2.3-6.5-2.9-9.8s-.9-6.8-.9-10.2c-2.8,1.9-5.7,3.5-8.8,4.9-3.1,1.3-6.3,2.3-9.6,3-3.3.7-6.7,1-10,1-3.4,0-6.7-.3-10-1,2,2.4,3.9,4.9,5.4,7.7s2.9,5.6,3.9,8.5,1.8,6,2.3,9.1c.5,3.1.6,6.2.5,9.4,3.1-1.9,6.3-3.6,9.7-4.8,3.4-1.2,6.9-2.1,10.5-2.6,3.6-.5,7.2-.6,10.8-.3,3.6.3,7.2,1,10.6,2M441.1,283.8h0c-1.6-.8-3.1-1.8-4.6-2.8-1.5-1-2.9-2.1-4.3-3.2-1.4-1.2-2.7-2.4-4-3.7-1.3-1.3-2.4-2.7-3.5-4.1.3,4.7,0,9.4-1,14-1,4.6-2.6,9-4.9,13.2-2.2,4.1-5,8-8.3,11.3-3.3,3.4-7.1,6.3-11.2,8.6-4.1,2.3-8.5,4.1-13.1,5.2-4.6,1.1-9.3,1.5-14,1.3-4.7-.2-9.4-1.1-13.8-2.6-4.5-1.5-8.7-3.6-12.6-6.3.8,1.7,1.4,3.4,2,5.2.6,1.8,1,3.5,1.4,5.3.4,1.8.7,3.6.8,5.5.2,1.8.2,3.7.2,5.5,4.9-3.4,10.4-5.9,16.2-7.3,5.8-1.5,11.8-1.9,17.7-1.3s11.7,2.3,17.1,5c5.3,2.7,10.2,6.2,14.3,10.6-1.7-5.6-2.4-11.5-2-17.4s1.7-11.6,4-17c2.3-5.4,5.6-10.3,9.6-14.6,4-4.3,8.8-7.8,14-10.4M482.8,471.1h0c-3.3,1.5-6.7,2.6-10.2,3.4-3.5.7-7.1,1.1-10.7,1.1-3.6,0-7.2-.4-10.7-1.2-3.5-.8-6.9-2-10.2-3.5,3,2.1,5.7,4.5,8.1,7.1,2.4,2.7,4.6,5.6,6.4,8.7,1.8,3.1,3.3,6.4,4.4,9.9,1.1,3.4,1.8,7,2.2,10.6.3-3.6,1.1-7.1,2.2-10.5,1.1-3.4,2.5-6.7,4.3-9.8,1.8-3.1,3.9-6,6.3-8.6,2.4-2.7,5.1-5,8-7.1M433.1,466.4h0c-4-2.8-7.6-6.2-10.6-10.1-3-3.9-5.5-8.1-7.3-12.7-1.8-4.6-2.9-9.4-3.3-14.3-.4-4.9,0-9.8.9-14.6-3.2,3-6.8,5.5-10.7,7.5-3.9,2-8,3.6-12.2,4.5-4.3,1-8.6,1.4-13,1.2-4.4-.2-8.7-.9-12.9-2.2,3.2,3.1,6,6.6,8.3,10.5,2.3,3.8,4,8,5.2,12.3,1.2,4.3,1.8,8.8,1.8,13.2,0,4.5-.6,8.9-1.7,13.3,3.6-3.4,7.8-6.2,12.2-8.4,4.5-2.2,9.2-3.7,14.2-4.4,4.9-.8,9.9-.8,14.8-.1,4.9.7,9.7,2.1,14.2,4.2M428,388.2h0c1.4-1.3,3-2.6,4.6-3.7,1.6-1.2,3.2-2.2,5-3.2,1.7-1,3.5-1.8,5.3-2.6,1.8-.8,3.7-1.4,5.6-1.9-2-.6-4-1.4-5.9-2.3-1.9-.9-3.8-1.9-5.6-3.1-1.8-1.1-3.5-2.4-5.2-3.7-1.6-1.4-3.2-2.8-4.7-4.4.6,2,1.1,4.1,1.4,6.1.3,2.1.6,4.2.6,6.2,0,2.1,0,4.2-.1,6.3-.2,2.1-.5,4.2-.9,6.2M695.8,376.9h0c0,3.4-.2,6.9-.9,10.2s-1.6,6.7-2.9,9.8c-1.3,3.2-2.9,6.2-4.9,9-1.9,2.8-4.1,5.5-6.6,7.8,3.5-1.1,7-1.7,10.6-2s7.2-.2,10.8.3c3.6.5,7.1,1.4,10.5,2.6,3.4,1.2,6.7,2.9,9.7,4.8-.1-3.1,0-6.3.5-9.4.5-3.1,1.2-6.2,2.3-9.1,1-3,2.3-5.8,3.9-8.5,1.6-2.7,3.4-5.3,5.4-7.7-3.3.7-6.7,1-10,1-3.4,0-6.7-.3-10-1-3.3-.7-6.5-1.7-9.6-3-3.1-1.3-6.1-2.9-8.8-4.9M512.1,419.5h0c.6-4.8,1.8-9.5,3.7-13.9,1.9-4.4,4.4-8.6,7.5-12.3,3.1-3.7,6.6-7,10.6-9.7,4-2.7,8.3-4.8,12.9-6.3-4.1-1.2-8.1-2.9-11.8-5-3.7-2.2-7.1-4.8-10.1-7.8-3-3-5.6-6.4-7.8-10.1-2.2-3.7-3.9-7.6-5-11.8-1.2,4.1-2.9,8.1-5,11.8s-4.8,7.1-7.8,10.1c-3,3-6.4,5.7-10.1,7.8-3.7,2.2-7.6,3.9-11.8,5,4.6,1.5,8.9,3.6,12.9,6.3,4,2.7,7.6,6,10.6,9.7,3.1,3.7,5.6,7.9,7.5,12.3,1.9,4.4,3.1,9.1,3.7,13.9M599.6,270h0c-1.1,1.4-2.3,2.8-3.5,4.1-1.3,1.3-2.6,2.5-4,3.7-1.4,1.2-2.8,2.2-4.3,3.2-1.5,1-3,1.9-4.6,2.8,5.2,2.6,10,6.2,14,10.4,4,4.3,7.3,9.2,9.6,14.6,2.3,5.4,3.7,11.1,4,17,.3,5.9-.3,11.7-2,17.4,4.1-4.3,8.9-7.9,14.3-10.6,5.3-2.7,11.1-4.3,17.1-5,5.9-.6,11.9-.2,17.7,1.3,5.8,1.5,11.3,4,16.2,7.3,0-1.8,0-3.7.2-5.5.2-1.8.5-3.7.8-5.5.4-1.8.9-3.6,1.4-5.3.6-1.8,1.2-3.5,2-5.2-3.9,2.7-8.1,4.8-12.6,6.3-4.5,1.5-9.1,2.4-13.8,2.6-4.7.2-9.4-.2-14-1.3-4.6-1.1-9-2.8-13.1-5.2-4.1-2.3-7.9-5.2-11.2-8.6-3.3-3.4-6.1-7.2-8.3-11.3-2.2-4.1-3.9-8.6-4.9-13.2s-1.4-9.3-1-14M537.2,284.2h0c-2.9-1.5-5.7-3.2-8.3-5.2-2.6-2-5-4.2-7.1-6.7-2.1-2.5-4-5.1-5.7-8-1.6-2.8-3-5.8-4-8.9-1.1,3.1-2.4,6.1-4,8.9-1.6,2.8-3.5,5.5-5.7,8-2.1,2.5-4.5,4.7-7.1,6.7-2.6,2-5.3,3.7-8.3,5.2,3,1.6,5.9,3.5,8.5,5.6,2.6,2.2,5.1,4.6,7.2,7.2,2.2,2.6,4,5.5,5.6,8.5,1.6,3,2.8,6.2,3.8,9.5.9-3.3,2.2-6.5,3.8-9.5,1.6-3,3.4-5.9,5.6-8.5,2.2-2.6,4.6-5.1,7.2-7.2,2.6-2.2,5.5-4,8.5-5.6M575.9,376.8h0c1.9.5,3.7,1.2,5.6,1.9,1.8.8,3.6,1.6,5.3,2.6s3.4,2,5,3.2c1.6,1.2,3.1,2.4,4.6,3.7-.4-2.1-.7-4.1-.9-6.2-.2-2.1-.2-4.2-.1-6.3,0-2.1.3-4.2.6-6.2.3-2.1.8-4.1,1.4-6.1-1.5,1.5-3,3-4.7,4.4-1.6,1.4-3.4,2.6-5.2,3.7-1.8,1.1-3.7,2.2-5.6,3.1-1.9.9-3.9,1.7-5.9,2.3M611.4,414.7h0c1,4.8,1.3,9.7.9,14.6-.4,4.9-1.5,9.7-3.3,14.3-1.8,4.6-4.2,8.8-7.3,12.7-3,3.9-6.6,7.3-10.6,10.1,4.5-2.1,9.3-3.5,14.2-4.2,4.9-.7,9.9-.6,14.8.1,4.9.8,9.7,2.3,14.2,4.4,4.5,2.2,8.6,5,12.2,8.4-1.2-4.3-1.8-8.8-1.7-13.3,0-4.5.6-8.9,1.8-13.2s2.9-8.5,5.2-12.3c2.3-3.8,5.1-7.4,8.3-10.5-4.2,1.3-8.5,2-12.9,2.2-4.4.2-8.7-.3-13-1.2-4.3-1-8.4-2.5-12.2-4.5-3.9-2-7.5-4.6-10.7-7.5M583.3,470.9h0c-3.3,1.5-6.7,2.7-10.2,3.5-3.5.8-7.1,1.2-10.7,1.2-3.6,0-7.2-.3-10.7-1.1-3.5-.7-7-1.9-10.2-3.4,2.9,2.1,5.6,4.5,8,7.1s4.5,5.5,6.3,8.6c1.8,3.1,3.2,6.4,4.3,9.8,1.1,3.4,1.8,6.9,2.2,10.5.4-3.6,1.1-7.1,2.2-10.6,1.1-3.4,2.6-6.7,4.4-9.9,1.8-3.1,4-6,6.4-8.7,2.4-2.7,5.2-5.1,8.1-7.1M532.8,466.1h0c-2.8-2-5.5-4.4-7.8-7-2.4-2.6-4.5-5.4-6.2-8.4-1.8-3-3.2-6.2-4.3-9.5-1.1-3.3-1.9-6.8-2.3-10.2-.4,3.5-1.2,6.9-2.3,10.2s-2.6,6.5-4.3,9.5c-1.8,3-3.9,5.8-6.2,8.4-2.4,2.6-5,4.9-7.8,7,3.2-1.5,6.6-2.6,10.1-3.3,3.5-.7,7-1.1,10.6-1.1s7.1.4,10.6,1.1c3.5.7,6.9,1.9,10.1,3.3M334.7,512h0c2.7.3,5.3.8,7.9,1.5,2.6.7,5.1,1.6,7.5,2.7,2.4,1.1,4.8,2.4,7,3.9,2.2,1.5,4.3,3.1,6.3,5-.6-2.1-1-4.3-1.3-6.5-.3-2.2-.4-4.4-.4-6.6s.1-4.4.4-6.6c.3-2.2.7-4.4,1.3-6.5-2,1.8-4.1,3.5-6.3,5-2.2,1.5-4.6,2.8-7,3.9-2.4,1.1-4.9,2-7.5,2.7s-5.2,1.2-7.9,1.5M259.2,556.7h0c1.7.3,3.4.6,5.1,1.1s3.4,1,5,1.6c1.6.6,3.2,1.3,4.8,2.1,1.6.8,3.1,1.6,4.6,2.6-.2-6.3.7-12.6,2.8-18.5,2.1-5.9,5.3-11.4,9.4-16.2s9.1-8.7,14.6-11.7c5.6-2.9,11.6-4.8,17.9-5.5-6.3-.7-12.3-2.6-17.9-5.5-5.6-2.9-10.5-6.9-14.6-11.7s-7.3-10.3-9.4-16.2c-2.1-5.9-3-12.2-2.8-18.5-1.5.9-3,1.8-4.6,2.6-1.6.8-3.2,1.5-4.9,2.1-1.7.6-3.3,1.1-5.1,1.6-1.7.4-3.4.8-5.2,1,4.1,2.1,7.8,4.8,11.2,7.9,3.3,3.1,6.2,6.7,8.6,10.6,2.4,3.9,4.2,8.1,5.5,12.5,1.2,4.4,1.9,9,1.9,13.5,0,4.6-.6,9.1-1.8,13.5-1.2,4.4-3,8.6-5.4,12.6-2.4,3.9-5.2,7.5-8.6,10.6-3.3,3.1-7.1,5.8-11.1,7.9M328.4,647.1h0c0-3.4.2-6.9.9-10.2.6-3.4,1.6-6.7,2.9-9.8,1.3-3.2,2.9-6.2,4.9-9,1.9-2.8,4.1-5.5,6.6-7.8-3.5,1.1-7,1.7-10.6,2-3.6.3-7.2.2-10.8-.3-3.6-.5-7.1-1.4-10.5-2.6-3.4-1.2-6.7-2.9-9.7-4.8.1,3.1,0,6.3-.5,9.4s-1.2,6.2-2.3,9.1-2.3,5.8-3.9,8.5c-1.6,2.7-3.4,5.3-5.4,7.7,3.3-.7,6.7-1,10-1,3.4,0,6.7.3,10,1,3.3.7,6.5,1.7,9.6,3,3.1,1.3,6.1,2.9,8.8,4.9M424.6,754h0c1.1-1.4,2.3-2.8,3.5-4.1,1.3-1.3,2.6-2.5,4-3.7,1.4-1.2,2.8-2.2,4.3-3.2,1.5-1,3-1.9,4.6-2.8-5.2-2.6-10-6.2-14-10.4-4-4.3-7.3-9.2-9.6-14.6s-3.7-11.1-4-17c-.3-5.9.3-11.7,2-17.4-4.1,4.3-8.9,7.9-14.3,10.6-5.3,2.7-11.1,4.3-17.1,5-5.9.6-11.9.2-17.7-1.3-5.8-1.5-11.3-4-16.2-7.3,0,1.8,0,3.7-.2,5.5-.2,1.8-.5,3.7-.8,5.5s-.8,3.6-1.4,5.3-1.2,3.5-2,5.2c3.9-2.7,8.1-4.8,12.6-6.3,4.5-1.5,9.1-2.4,13.8-2.6,4.7-.2,9.4.2,14,1.3,4.6,1.1,9,2.8,13.1,5.2,4.1,2.3,7.9,5.2,11.2,8.6,3.3,3.4,6.1,7.2,8.3,11.3,2.2,4.1,3.9,8.6,4.9,13.2,1,4.6,1.4,9.3,1,14M448.3,647.3h0c-1.9-.5-3.7-1.2-5.6-1.9-1.8-.8-3.6-1.6-5.3-2.6-1.7-1-3.4-2-5-3.2-1.6-1.2-3.1-2.4-4.6-3.7.4,2.1.7,4.1.9,6.2.2,2.1.2,4.2.1,6.3,0,2.1-.3,4.2-.6,6.2-.3,2.1-.8,4.1-1.4,6.1,1.5-1.5,3-3,4.7-4.4,1.6-1.4,3.4-2.6,5.2-3.7,1.8-1.1,3.7-2.2,5.6-3.1,1.9-.9,3.9-1.7,5.9-2.3M412.8,609.3h0c-1-4.8-1.3-9.7-.9-14.6.4-4.9,1.5-9.7,3.3-14.3,1.8-4.6,4.2-8.8,7.3-12.7,3-3.9,6.6-7.3,10.6-10.1-4.5,2.1-9.3,3.5-14.2,4.2-4.9.7-9.9.6-14.8-.1-4.9-.8-9.7-2.3-14.2-4.4-4.5-2.2-8.6-5-12.2-8.4,1.2,4.3,1.8,8.8,1.7,13.3,0,4.5-.6,8.9-1.8,13.2-1.2,4.3-2.9,8.5-5.2,12.3-2.3,3.8-5.1,7.4-8.3,10.5,4.2-1.3,8.5-2,12.9-2.2,4.4-.2,8.7.3,13,1.2,4.3,1,8.4,2.5,12.2,4.5,3.9,2,7.5,4.6,10.7,7.5M440.9,553.2h0c3.3-1.5,6.7-2.7,10.2-3.5,3.5-.8,7.1-1.2,10.7-1.2,3.6,0,7.2.3,10.7,1.1,3.5.7,7,1.9,10.2,3.4-2.9-2.1-5.6-4.5-8-7.1-2.4-2.7-4.5-5.5-6.3-8.6-1.8-3.1-3.2-6.4-4.3-9.8-1.1-3.4-1.8-6.9-2.2-10.5-.4,3.6-1.1,7.1-2.2,10.6s-2.6,6.7-4.4,9.9c-1.8,3.1-4,6-6.4,8.7-2.4,2.7-5.2,5.1-8.1,7.1M660.9,525.2h0c2-1.8,4.1-3.5,6.3-5,2.2-1.5,4.6-2.8,7-3.9,2.4-1.1,4.9-2,7.5-2.7,2.6-.7,5.2-1.2,7.9-1.5-2.7-.3-5.3-.8-7.9-1.5-2.6-.7-5.1-1.6-7.5-2.7-2.4-1.1-4.8-2.4-7-3.9-2.2-1.5-4.3-3.1-6.3-5,.6,2.1,1,4.3,1.3,6.5.3,2.2.4,4.4.4,6.6s-.1,4.4-.4,6.6c-.3,2.2-.7,4.4-1.3,6.5M745.5,564h0c1.5-.9,3-1.8,4.6-2.6,1.6-.8,3.2-1.5,4.8-2.1,1.6-.6,3.3-1.1,5-1.6,1.7-.4,3.4-.8,5.1-1.1-4-2.1-7.8-4.8-11.1-7.9-3.3-3.1-6.2-6.7-8.6-10.6-2.4-3.9-4.2-8.1-5.4-12.6-1.2-4.4-1.8-9-1.8-13.5,0-4.6.6-9.1,1.9-13.5,1.2-4.4,3.1-8.6,5.5-12.5,2.4-3.9,5.3-7.5,8.6-10.6,3.3-3.1,7.1-5.8,11.2-7.9-1.7-.3-3.5-.6-5.2-1-1.7-.4-3.4-1-5.1-1.6-1.7-.6-3.3-1.3-4.9-2.1-1.6-.8-3.1-1.7-4.6-2.6.2,6.3-.7,12.6-2.8,18.5-2.1,5.9-5.3,11.4-9.4,16.2-4.1,4.8-9.1,8.7-14.6,11.7-5.6,2.9-11.6,4.8-17.9,5.5,6.3.7,12.3,2.6,17.9,5.5,5.6,2.9,10.5,6.9,14.6,11.7,4.1,4.8,7.3,10.3,9.4,16.2,2.1,5.9,3,12.2,2.8,18.5M680.5,610.2h0c2.5,2.4,4.7,5,6.6,7.8,1.9,2.8,3.6,5.9,4.9,9,1.3,3.2,2.3,6.5,2.9,9.8.6,3.4.9,6.8.9,10.2,2.8-1.9,5.7-3.5,8.8-4.9,3.1-1.3,6.3-2.3,9.6-3,3.3-.7,6.7-1,10-1,3.4,0,6.7.3,10,1-2-2.4-3.9-4.9-5.4-7.7-1.6-2.7-2.9-5.6-3.9-8.5-1-3-1.8-6-2.3-9.1s-.6-6.2-.5-9.4c-3.1,1.9-6.3,3.6-9.7,4.8-3.4,1.2-6.9,2.1-10.5,2.6-3.6.5-7.2.6-10.8.3-3.6-.3-7.2-1-10.6-2M546.8,646.8h0c-4.6-1.5-8.9-3.6-12.9-6.3-4-2.7-7.6-6-10.6-9.7-3.1-3.7-5.6-7.9-7.5-12.3-1.9-4.4-3.1-9.1-3.7-13.9-.6,4.8-1.8,9.5-3.7,13.9-1.9,4.4-4.4,8.6-7.5,12.3-3.1,3.7-6.6,7-10.6,9.7-4,2.7-8.3,4.8-12.9,6.3,4.1,1.2,8.1,2.9,11.8,5,3.7,2.2,7.1,4.8,10.1,7.8,3,3,5.6,6.4,7.8,10.1s3.9,7.6,5,11.8c1.2-4.1,2.9-8.1,5-11.8,2.2-3.7,4.8-7.1,7.8-10.1,3-3,6.4-5.7,10.1-7.8,3.7-2.2,7.6-3.9,11.8-5M512.1,768.6h0c1.1-3.1,2.4-6.1,4-8.9,1.6-2.8,3.5-5.5,5.7-8,2.1-2.5,4.5-4.7,7.1-6.7,2.6-2,5.3-3.7,8.3-5.2-3-1.6-5.9-3.5-8.5-5.6-2.6-2.2-5.1-4.6-7.2-7.2-2.2-2.6-4-5.5-5.6-8.5-1.6-3-2.8-6.2-3.8-9.5-.9,3.3-2.2,6.5-3.8,9.5-1.6,3-3.4,5.9-5.6,8.5-2.2,2.6-4.6,5.1-7.2,7.2-2.6,2.2-5.5,4-8.5,5.6,2.9,1.5,5.7,3.2,8.3,5.2,2.6,2,5,4.2,7.1,6.7,2.1,2.5,4,5.1,5.7,8,1.6,2.8,3,5.8,4,8.9M583.1,740.2h0c1.6.8,3.1,1.8,4.6,2.8,1.5,1,2.9,2.1,4.3,3.2,1.4,1.2,2.7,2.4,4,3.7,1.3,1.3,2.4,2.7,3.5,4.1-.3-4.7,0-9.4,1-14,1-4.6,2.6-9,4.9-13.2,2.2-4.1,5-8,8.3-11.3,3.3-3.4,7.1-6.3,11.2-8.6,4.1-2.3,8.5-4.1,13.1-5.2,4.6-1.1,9.3-1.5,14-1.3,4.7.2,9.4,1.1,13.8,2.6,4.5,1.5,8.7,3.6,12.6,6.3-.8-1.7-1.4-3.4-2-5.2-.6-1.8-1-3.5-1.4-5.3-.4-1.8-.7-3.6-.8-5.5-.2-1.8-.2-3.7-.2-5.5-4.9,3.4-10.4,5.9-16.2,7.3-5.8,1.5-11.8,1.9-17.7,1.3-5.9-.6-11.7-2.3-17.1-5-5.3-2.7-10.2-6.2-14.3-10.6,1.7,5.6,2.4,11.5,2,17.4-.3,5.9-1.7,11.6-4,17-2.3,5.4-5.6,10.3-9.6,14.6-4,4.3-8.8,7.8-14,10.4M512.1,593.1h0c.4-3.5,1.2-6.9,2.3-10.2,1.1-3.3,2.6-6.5,4.3-9.5,1.8-3,3.9-5.8,6.2-8.4,2.4-2.6,5-4.9,7.8-7-3.2,1.5-6.6,2.6-10.1,3.3s-7,1.1-10.6,1.1-7.1-.4-10.6-1.1-6.9-1.9-10.1-3.3c2.8,2,5.5,4.4,7.8,7,2.4,2.6,4.5,5.4,6.2,8.4,1.8,3,3.2,6.2,4.3,9.5,1.1,3.3,1.9,6.8,2.3,10.2M541.4,553h0c3.3-1.5,6.7-2.6,10.2-3.4,3.5-.7,7.1-1.1,10.7-1.1,3.6,0,7.2.4,10.7,1.2,3.5.8,6.9,2,10.2,3.5-3-2.1-5.7-4.5-8.1-7.1-2.4-2.7-4.6-5.6-6.4-8.7-1.8-3.1-3.3-6.4-4.4-9.9-1.1-3.4-1.8-7-2.2-10.6-.3,3.6-1.1,7.1-2.2,10.5-1.1,3.4-2.5,6.7-4.3,9.8-1.8,3.1-3.9,6-6.3,8.6-2.4,2.7-5.1,5-8,7.1M591.1,557.7h0c4,2.8,7.6,6.2,10.6,10.1,3,3.9,5.5,8.1,7.3,12.7,1.8,4.6,2.9,9.4,3.3,14.3.4,4.9,0,9.8-.9,14.6,3.2-3,6.8-5.5,10.7-7.5,3.9-2,8-3.6,12.2-4.5,4.3-1,8.6-1.4,13-1.2,4.4.2,8.7.9,12.9,2.2-3.2-3.1-6-6.6-8.3-10.5-2.3-3.8-4-8-5.2-12.3-1.2-4.3-1.8-8.8-1.8-13.2,0-4.5.6-8.9,1.7-13.3-3.6,3.4-7.8,6.2-12.2,8.4-4.5,2.2-9.2,3.7-14.2,4.4-4.9.8-9.9.8-14.8.1-4.9-.7-9.7-2.1-14.2-4.2M596.2,635.9h0c-1.4,1.3-3,2.6-4.6,3.7-1.6,1.2-3.2,2.2-5,3.2-1.7,1-3.5,1.8-5.3,2.6-1.8.8-3.7,1.4-5.6,1.9,2,.6,4,1.4,5.9,2.3,1.9.9,3.8,1.9,5.6,3.1,1.8,1.1,3.5,2.4,5.2,3.7,1.6,1.4,3.2,2.8,4.7,4.4-.6-2-1.1-4.1-1.4-6.1-.3-2.1-.6-4.2-.6-6.2,0-2.1,0-4.2.1-6.3.2-2.1.5-4.2.9-6.2"/>
  <path class="st1" d="M610,781.5h0c.4,6-.3,12.1-2.1,17.9-1.8,5.8-4.5,11.2-8.2,16-3.7,4.8-8.2,8.9-13.3,12.1-5.1,3.2-10.8,5.4-16.8,6.6-5.9,1.2-12,1.3-18,.3-6-1-11.7-3-17-6.1-5.2-3-9.9-7-13.8-11.6-3.8-4.7-6.8-10-8.8-15.7-2,5.7-4.9,11.1-8.8,15.7-3.8,4.7-8.5,8.6-13.8,11.6-5.2,3-11,5.1-17,6.1s-12.1.9-18-.3-11.6-3.4-16.8-6.6-9.7-7.3-13.3-12.1c-3.7-4.8-6.5-10.2-8.2-16-1.8-5.8-2.5-11.9-2.1-17.9-3.7,4.8-8.3,8.9-13.6,12.1-5.2,3.2-11,5.4-17,6.5-6,1.1-12.2,1.1-18.2,0-6-1.1-11.8-3.3-17-6.4-5.2-3.2-9.9-7.2-13.6-12-3.8-4.8-6.6-10.3-8.5-16.1-1.8-5.8-2.6-12-2.2-18.1.4-6.1,1.9-12.1,4.4-17.7-5,3.5-10.6,6-16.5,7.5-5.9,1.5-12,1.9-18,1.2-6-.7-11.9-2.5-17.3-5.3-5.4-2.8-10.2-6.5-14.3-11-4.1-4.5-7.3-9.7-9.5-15.4-2.2-5.7-3.4-11.7-3.5-17.7,0-6.1,1-12.1,3-17.8,2.1-5.7,5.2-11,9.1-15.6-5.9,1.2-11.9,1.3-17.9.4-5.9-.9-11.7-2.9-16.9-5.9-5.2-3-9.9-6.8-13.8-11.4-3.9-4.6-6.9-9.9-8.9-15.5-2-5.7-3-11.6-2.9-17.6,0-6,1.3-12,3.4-17.5,2.2-5.6,5.4-10.8,9.4-15.2,4-4.5,8.8-8.2,14.1-11-5.9-.9-11.6-2.8-16.9-5.7-5.2-2.9-9.9-6.7-13.8-11.3-3.9-4.5-7-9.7-9-15.4-2.1-5.6-3.1-11.6-3.1-17.5,0-6,1.1-11.9,3.2-17.5,2.1-5.6,5.2-10.8,9.1-15.3,3.9-4.5,8.6-8.3,13.9-11.2,5.2-2.9,11-4.8,16.9-5.7-5.3-2.8-10.1-6.5-14.2-11-4-4.5-7.2-9.6-9.4-15.2-2.2-5.6-3.4-11.5-3.5-17.6-.1-6,.9-12,2.9-17.7,2-5.7,5-10.9,8.9-15.6,3.9-4.6,8.5-8.5,13.8-11.5,5.2-3,11-5,16.9-5.9,5.9-.9,12-.8,17.9.4-4-4.6-7.1-9.9-9.1-15.6-2.1-5.7-3.1-11.7-3-17.8s1.2-12.1,3.5-17.7c2.2-5.7,5.4-10.9,9.5-15.4,4.1-4.5,8.9-8.2,14.3-11,5.4-2.8,11.3-4.6,17.3-5.3s12.1-.3,18,1.2c5.9,1.5,11.5,4,16.5,7.5-2.5-5.6-4-11.6-4.4-17.7-.4-6.1.4-12.2,2.2-18.1,1.8-5.8,4.7-11.3,8.5-16.1,3.8-4.8,8.4-8.9,13.6-12,5.2-3.2,11-5.3,17-6.4,6-1.1,12.2-1.1,18.2,0,6,1.1,11.8,3.3,17,6.5,5.2,3.2,9.8,7.3,13.6,12.1-.4-6,.3-12.1,2.1-17.9,1.8-5.8,4.5-11.2,8.2-16,3.7-4.8,8.2-8.9,13.3-12.1,5.1-3.2,10.8-5.4,16.8-6.6,5.9-1.2,12-1.3,18-.3s11.7,3,17,6.1c5.2,3,9.9,7,13.8,11.6,3.8,4.7,6.8,10,8.8,15.7,2-5.7,4.9-11.1,8.8-15.7s8.5-8.6,13.8-11.6c5.2-3,11-5.1,17-6.1,6-1,12.1-.9,18,.3,5.9,1.2,11.6,3.4,16.8,6.6,5.1,3.2,9.7,7.3,13.3,12.1,3.7,4.8,6.5,10.2,8.2,16,1.8,5.8,2.5,11.9,2.1,17.9,3.7-4.8,8.3-8.9,13.6-12.1,5.2-3.2,11-5.4,17-6.5,6-1.1,12.2-1.1,18.2,0,6,1.1,11.8,3.3,17,6.4,5.2,3.2,9.9,7.2,13.6,12s6.6,10.3,8.5,16.1,2.6,12,2.2,18.1c-.4,6.1-1.9,12.1-4.4,17.7,5-3.5,10.6-6,16.5-7.5,5.9-1.5,12-1.9,18-1.2,6,.7,11.9,2.5,17.3,5.3s10.2,6.5,14.3,11c4.1,4.5,7.3,9.7,9.5,15.4,2.2,5.7,3.4,11.7,3.5,17.7,0,6.1-1,12.1-3,17.8-2.1,5.7-5.2,11-9.1,15.6,5.9-1.2,12-1.3,17.9-.4,5.9.9,11.7,3,16.9,5.9,5.2,3,9.9,6.9,13.8,11.5,3.9,4.6,6.9,9.9,8.9,15.6,2,5.7,3,11.7,2.9,17.7-.1,6-1.3,12-3.5,17.6-2.2,5.6-5.4,10.8-9.4,15.2s-8.8,8.2-14.2,11c5.9.9,11.6,2.8,16.9,5.7,5.2,2.9,9.9,6.7,13.9,11.2,3.9,4.5,7,9.7,9.1,15.3,2.1,5.6,3.2,11.5,3.2,17.5,0,6-1,11.9-3.1,17.5-2.1,5.6-5.1,10.8-9,15.4-3.9,4.5-8.6,8.4-13.8,11.3-5.2,2.9-10.9,4.8-16.9,5.7,5.3,2.8,10.1,6.5,14.1,11,4,4.5,7.2,9.6,9.4,15.2,2.2,5.6,3.4,11.5,3.4,17.5,0,6-.9,12-2.9,17.6-2,5.7-5,10.9-8.9,15.5-3.9,4.6-8.5,8.5-13.8,11.4-5.2,3-10.9,5-16.9,5.9s-12,.8-17.9-.4c4,4.6,7.1,9.9,9.1,15.6,2.1,5.7,3.1,11.7,3,17.8,0,6.1-1.2,12.1-3.5,17.7-2.2,5.7-5.4,10.9-9.5,15.4-4.1,4.5-8.9,8.2-14.3,11-5.4,2.8-11.3,4.6-17.3,5.3-6,.7-12.1.3-18-1.2s-11.5-4-16.5-7.5c2.5,5.6,4,11.6,4.4,17.7.4,6.1-.4,12.2-2.2,18.1s-4.7,11.3-8.5,16.1c-3.8,4.8-8.4,8.9-13.6,12-5.2,3.2-11,5.3-17,6.4-6,1.1-12.2,1.1-18.2,0-6-1.1-11.8-3.3-17-6.5-5.2-3.2-9.8-7.3-13.6-12.1M343.7,413.8h0c-2.5-2.4-4.7-5-6.6-7.8-1.9-2.8-3.6-5.9-4.9-9-1.3-3.2-2.3-6.5-2.9-9.8s-.9-6.8-.9-10.2c-2.8,1.9-5.7,3.5-8.8,4.9-3.1,1.3-6.3,2.3-9.6,3-3.3.7-6.7,1-10,1-3.4,0-6.7-.3-10-1,2,2.4,3.9,4.9,5.4,7.7s2.9,5.6,3.9,8.5,1.8,6,2.3,9.1c.5,3.1.6,6.2.5,9.4,3.1-1.9,6.3-3.6,9.7-4.8,3.4-1.2,6.9-2.1,10.5-2.6,3.6-.5,7.2-.6,10.8-.3,3.6.3,7.2,1,10.6,2M441.1,283.8h0c-1.6-.8-3.1-1.8-4.6-2.8-1.5-1-2.9-2.1-4.3-3.2-1.4-1.2-2.7-2.4-4-3.7-1.3-1.3-2.4-2.7-3.5-4.1.3,4.7,0,9.4-1,14-1,4.6-2.6,9-4.9,13.2-2.2,4.1-5,8-8.3,11.3-3.3,3.4-7.1,6.3-11.2,8.6-4.1,2.3-8.5,4.1-13.1,5.2-4.6,1.1-9.3,1.5-14,1.3-4.7-.2-9.4-1.1-13.8-2.6-4.5-1.5-8.7-3.6-12.6-6.3.8,1.7,1.4,3.4,2,5.2.6,1.8,1,3.5,1.4,5.3.4,1.8.7,3.6.8,5.5.2,1.8.2,3.7.2,5.5,4.9-3.4,10.4-5.9,16.2-7.3,5.8-1.5,11.8-1.9,17.7-1.3s11.7,2.3,17.1,5c5.3,2.7,10.2,6.2,14.3,10.6-1.7-5.6-2.4-11.5-2-17.4s1.7-11.6,4-17c2.3-5.4,5.6-10.3,9.6-14.6,4-4.3,8.8-7.8,14-10.4M482.8,471.1h0c-3.3,1.5-6.7,2.6-10.2,3.4-3.5.7-7.1,1.1-10.7,1.1-3.6,0-7.2-.4-10.7-1.2-3.5-.8-6.9-2-10.2-3.5,3,2.1,5.7,4.5,8.1,7.1,2.4,2.7,4.6,5.6,6.4,8.7,1.8,3.1,3.3,6.4,4.4,9.9,1.1,3.4,1.8,7,2.2,10.6.3-3.6,1.1-7.1,2.2-10.5,1.1-3.4,2.5-6.7,4.3-9.8,1.8-3.1,3.9-6,6.3-8.6,2.4-2.7,5.1-5,8-7.1M433.1,466.4h0c-4-2.8-7.6-6.2-10.6-10.1-3-3.9-5.5-8.1-7.3-12.7-1.8-4.6-2.9-9.4-3.3-14.3-.4-4.9,0-9.8.9-14.6-3.2,3-6.8,5.5-10.7,7.5-3.9,2-8,3.6-12.2,4.5-4.3,1-8.6,1.4-13,1.2-4.4-.2-8.7-.9-12.9-2.2,3.2,3.1,6,6.6,8.3,10.5,2.3,3.8,4,8,5.2,12.3,1.2,4.3,1.8,8.8,1.8,13.2,0,4.5-.6,8.9-1.7,13.3,3.6-3.4,7.8-6.2,12.2-8.4,4.5-2.2,9.2-3.7,14.2-4.4,4.9-.8,9.9-.8,14.8-.1,4.9.7,9.7,2.1,14.2,4.2M428,388.2h0c1.4-1.3,3-2.6,4.6-3.7,1.6-1.2,3.2-2.2,5-3.2,1.7-1,3.5-1.8,5.3-2.6,1.8-.8,3.7-1.4,5.6-1.9-2-.6-4-1.4-5.9-2.3-1.9-.9-3.8-1.9-5.6-3.1-1.8-1.1-3.5-2.4-5.2-3.7-1.6-1.4-3.2-2.8-4.7-4.4.6,2,1.1,4.1,1.4,6.1.3,2.1.6,4.2.6,6.2,0,2.1,0,4.2-.1,6.3-.2,2.1-.5,4.2-.9,6.2M695.8,376.9h0c0,3.4-.2,6.9-.9,10.2s-1.6,6.7-2.9,9.8c-1.3,3.2-2.9,6.2-4.9,9-1.9,2.8-4.1,5.5-6.6,7.8,3.5-1.1,7-1.7,10.6-2s7.2-.2,10.8.3c3.6.5,7.1,1.4,10.5,2.6,3.4,1.2,6.7,2.9,9.7,4.8-.1-3.1,0-6.3.5-9.4.5-3.1,1.2-6.2,2.3-9.1,1-3,2.3-5.8,3.9-8.5,1.6-2.7,3.4-5.3,5.4-7.7-3.3.7-6.7,1-10,1-3.4,0-6.7-.3-10-1-3.3-.7-6.5-1.7-9.6-3-3.1-1.3-6.1-2.9-8.8-4.9M512.1,419.5h0c.6-4.8,1.8-9.5,3.7-13.9,1.9-4.4,4.4-8.6,7.5-12.3,3.1-3.7,6.6-7,10.6-9.7,4-2.7,8.3-4.8,12.9-6.3-4.1-1.2-8.1-2.9-11.8-5-3.7-2.2-7.1-4.8-10.1-7.8-3-3-5.6-6.4-7.8-10.1-2.2-3.7-3.9-7.6-5-11.8-1.2,4.1-2.9,8.1-5,11.8s-4.8,7.1-7.8,10.1c-3,3-6.4,5.7-10.1,7.8-3.7,2.2-7.6,3.9-11.8,5,4.6,1.5,8.9,3.6,12.9,6.3,4,2.7,7.6,6,10.6,9.7,3.1,3.7,5.6,7.9,7.5,12.3,1.9,4.4,3.1,9.1,3.7,13.9M599.6,270h0c-1.1,1.4-2.3,2.8-3.5,4.1-1.3,1.3-2.6,2.5-4,3.7-1.4,1.2-2.8,2.2-4.3,3.2-1.5,1-3,1.9-4.6,2.8,5.2,2.6,10,6.2,14,10.4,4,4.3,7.3,9.2,9.6,14.6,2.3,5.4,3.7,11.1,4,17,.3,5.9-.3,11.7-2,17.4,4.1-4.3,8.9-7.9,14.3-10.6,5.3-2.7,11.1-4.3,17.1-5,5.9-.6,11.9-.2,17.7,1.3,5.8,1.5,11.3,4,16.2,7.3,0-1.8,0-3.7.2-5.5.2-1.8.5-3.7.8-5.5.4-1.8.9-3.6,1.4-5.3.6-1.8,1.2-3.5,2-5.2-3.9,2.7-8.1,4.8-12.6,6.3-4.5,1.5-9.1,2.4-13.8,2.6-4.7.2-9.4-.2-14-1.3-4.6-1.1-9-2.8-13.1-5.2-4.1-2.3-7.9-5.2-11.2-8.6-3.3-3.4-6.1-7.2-8.3-11.3-2.2-4.1-3.9-8.6-4.9-13.2s-1.4-9.3-1-14M537.2,284.2h0c-2.9-1.5-5.7-3.2-8.3-5.2-2.6-2-5-4.2-7.1-6.7-2.1-2.5-4-5.1-5.7-8-1.6-2.8-3-5.8-4-8.9-1.1,3.1-2.4,6.1-4,8.9-1.6,2.8-3.5,5.5-5.7,8-2.1,2.5-4.5,4.7-7.1,6.7-2.6,2-5.3,3.7-8.3,5.2,3,1.6,5.9,3.5,8.5,5.6,2.6,2.2,5.1,4.6,7.2,7.2,2.2,2.6,4,5.5,5.6,8.5,1.6,3,2.8,6.2,3.8,9.5.9-3.3,2.2-6.5,3.8-9.5,1.6-3,3.4-5.9,5.6-8.5,2.2-2.6,4.6-5.1,7.2-7.2,2.6-2.2,5.5-4,8.5-5.6M575.9,376.8h0c1.9.5,3.7,1.2,5.6,1.9,1.8.8,3.6,1.6,5.3,2.6s3.4,2,5,3.2c1.6,1.2,3.1,2.4,4.6,3.7-.4-2.1-.7-4.1-.9-6.2-.2-2.1-.2-4.2-.1-6.3,0-2.1.3-4.2.6-6.2.3-2.1.8-4.1,1.4-6.1-1.5,1.5-3,3-4.7,4.4-1.6,1.4-3.4,2.6-5.2,3.7-1.8,1.1-3.7,2.2-5.6,3.1-1.9.9-3.9,1.7-5.9,2.3M611.4,414.7h0c1,4.8,1.3,9.7.9,14.6-.4,4.9-1.5,9.7-3.3,14.3-1.8,4.6-4.2,8.8-7.3,12.7-3,3.9-6.6,7.3-10.6,10.1,4.5-2.1,9.3-3.5,14.2-4.2,4.9-.7,9.9-.6,14.8.1,4.9.8,9.7,2.3,14.2,4.4,4.5,2.2,8.6,5,12.2,8.4-1.2-4.3-1.8-8.8-1.7-13.3,0-4.5.6-8.9,1.8-13.2s2.9-8.5,5.2-12.3c2.3-3.8,5.1-7.4,8.3-10.5-4.2,1.3-8.5,2-12.9,2.2-4.4.2-8.7-.3-13-1.2-4.3-1-8.4-2.5-12.2-4.5-3.9-2-7.5-4.6-10.7-7.5M583.3,470.9h0c-3.3,1.5-6.7,2.7-10.2,3.5-3.5.8-7.1,1.2-10.7,1.2-3.6,0-7.2-.3-10.7-1.1-3.5-.7-7-1.9-10.2-3.4,2.9,2.1,5.6,4.5,8,7.1s4.5,5.5,6.3,8.6c1.8,3.1,3.2,6.4,4.3,9.8,1.1,3.4,1.8,6.9,2.2,10.5.4-3.6,1.1-7.1,2.2-10.6,1.1-3.4,2.6-6.7,4.4-9.9,1.8-3.1,4-6,6.4-8.7,2.4-2.7,5.2-5.1,8.1-7.1M532.8,466.1h0c-2.8-2-5.5-4.4-7.8-7-2.4-2.6-4.5-5.4-6.2-8.4-1.8-3-3.2-6.2-4.3-9.5-1.1-3.3-1.9-6.8-2.3-10.2-.4,3.5-1.2,6.9-2.3,10.2s-2.6,6.5-4.3,9.5c-1.8,3-3.9,5.8-6.2,8.4-2.4,2.6-5,4.9-7.8,7,3.2-1.5,6.6-2.6,10.1-3.3,3.5-.7,7-1.1,10.6-1.1s7.1.4,10.6,1.1c3.5.7,6.9,1.9,10.1,3.3M334.7,512h0c2.7.3,5.3.8,7.9,1.5,2.6.7,5.1,1.6,7.5,2.7,2.4,1.1,4.8,2.4,7,3.9,2.2,1.5,4.3,3.1,6.3,5-.6-2.1-1-4.3-1.3-6.5-.3-2.2-.4-4.4-.4-6.6s.1-4.4.4-6.6c.3-2.2.7-4.4,1.3-6.5-2,1.8-4.1,3.5-6.3,5-2.2,1.5-4.6,2.8-7,3.9-2.4,1.1-4.9,2-7.5,2.7s-5.2,1.2-7.9,1.5M259.2,556.7h0c1.7.3,3.4.6,5.1,1.1s3.4,1,5,1.6c1.6.6,3.2,1.3,4.8,2.1,1.6.8,3.1,1.6,4.6,2.6-.2-6.3.7-12.6,2.8-18.5,2.1-5.9,5.3-11.4,9.4-16.2s9.1-8.7,14.6-11.7c5.6-2.9,11.6-4.8,17.9-5.5-6.3-.7-12.3-2.6-17.9-5.5-5.6-2.9-10.5-6.9-14.6-11.7s-7.3-10.3-9.4-16.2c-2.1-5.9-3-12.2-2.8-18.5-1.5.9-3,1.8-4.6,2.6-1.6.8-3.2,1.5-4.9,2.1-1.7.6-3.3,1.1-5.1,1.6-1.7.4-3.4.8-5.2,1,4.1,2.1,7.8,4.8,11.2,7.9,3.3,3.1,6.2,6.7,8.6,10.6,2.4,3.9,4.2,8.1,5.5,12.5,1.2,4.4,1.9,9,1.9,13.5,0,4.6-.6,9.1-1.8,13.5-1.2,4.4-3,8.6-5.4,12.6-2.4,3.9-5.2,7.5-8.6,10.6-3.3,3.1-7.1,5.8-11.1,7.9M328.4,647.1h0c0-3.4.2-6.9.9-10.2.6-3.4,1.6-6.7,2.9-9.8,1.3-3.2,2.9-6.2,4.9-9,1.9-2.8,4.1-5.5,6.6-7.8-3.5,1.1-7,1.7-10.6,2-3.6.3-7.2.2-10.8-.3-3.6-.5-7.1-1.4-10.5-2.6-3.4-1.2-6.7-2.9-9.7-4.8.1,3.1,0,6.3-.5,9.4s-1.2,6.2-2.3,9.1-2.3,5.8-3.9,8.5c-1.6,2.7-3.4,5.3-5.4,7.7,3.3-.7,6.7-1,10-1,3.4,0,6.7.3,10,1,3.3.7,6.5,1.7,9.6,3,3.1,1.3,6.1,2.9,8.8,4.9M424.6,754h0c1.1-1.4,2.3-2.8,3.5-4.1,1.3-1.3,2.6-2.5,4-3.7,1.4-1.2,2.8-2.2,4.3-3.2,1.5-1,3-1.9,4.6-2.8-5.2-2.6-10-6.2-14-10.4-4-4.3-7.3-9.2-9.6-14.6s-3.7-11.1-4-17c-.3-5.9.3-11.7,2-17.4-4.1,4.3-8.9,7.9-14.3,10.6-5.3,2.7-11.1,4.3-17.1,5-5.9.6-11.9.2-17.7-1.3-5.8-1.5-11.3-4-16.2-7.3,0,1.8,0,3.7-.2,5.5-.2,1.8-.5,3.7-.8,5.5s-.8,3.6-1.4,5.3-1.2,3.5-2,5.2c3.9-2.7,8.1-4.8,12.6-6.3,4.5-1.5,9.1-2.4,13.8-2.6,4.7-.2,9.4.2,14,1.3,4.6,1.1,9,2.8,13.1,5.2,4.1,2.3,7.9,5.2,11.2,8.6,3.3,3.4,6.1,7.2,8.3,11.3,2.2,4.1,3.9,8.6,4.9,13.2,1,4.6,1.4,9.3,1,14M448.3,647.3h0c-1.9-.5-3.7-1.2-5.6-1.9-1.8-.8-3.6-1.6-5.3-2.6-1.7-1-3.4-2-5-3.2-1.6-1.2-3.1-2.4-4.6-3.7.4,2.1.7,4.1.9,6.2.2,2.1.2,4.2.1,6.3,0,2.1-.3,4.2-.6,6.2-.3,2.1-.8,4.1-1.4,6.1,1.5-1.5,3-3,4.7-4.4,1.6-1.4,3.4-2.6,5.2-3.7,1.8-1.1,3.7-2.2,5.6-3.1,1.9-.9,3.9-1.7,5.9-2.3M412.8,609.3h0c-1-4.8-1.3-9.7-.9-14.6.4-4.9,1.5-9.7,3.3-14.3,1.8-4.6,4.2-8.8,7.3-12.7,3-3.9,6.6-7.3,10.6-10.1-4.5,2.1-9.3,3.5-14.2,4.2-4.9.7-9.9.6-14.8-.1-4.9-.8-9.7-2.3-14.2-4.4-4.5-2.2-8.6-5-12.2-8.4,1.2,4.3,1.8,8.8,1.7,13.3,0,4.5-.6,8.9-1.8,13.2-1.2,4.3-2.9,8.5-5.2,12.3-2.3,3.8-5.1,7.4-8.3,10.5,4.2-1.3,8.5-2,12.9-2.2,4.4-.2,8.7.3,13,1.2,4.3,1,8.4,2.5,12.2,4.5,3.9,2,7.5,4.6,10.7,7.5M440.9,553.2h0c3.3-1.5,6.7-2.7,10.2-3.5,3.5-.8,7.1-1.2,10.7-1.2,3.6,0,7.2.3,10.7,1.1,3.5.7,7,1.9,10.2,3.4-2.9-2.1-5.6-4.5-8-7.1-2.4-2.7-4.5-5.5-6.3-8.6-1.8-3.1-3.2-6.4-4.3-9.8-1.1-3.4-1.8-6.9-2.2-10.5-.4,3.6-1.1,7.1-2.2,10.6s-2.6,6.7-4.4,9.9c-1.8,3.1-4,6-6.4,8.7-2.4,2.7-5.2,5.1-8.1,7.1M660.9,525.2h0c2-1.8,4.1-3.5,6.3-5,2.2-1.5,4.6-2.8,7-3.9,2.4-1.1,4.9-2,7.5-2.7,2.6-.7,5.2-1.2,7.9-1.5-2.7-.3-5.3-.8-7.9-1.5-2.6-.7-5.1-1.6-7.5-2.7-2.4-1.1-4.8-2.4-7-3.9-2.2-1.5-4.3-3.1-6.3-5,.6,2.1,1,4.3,1.3,6.5.3,2.2.4,4.4.4,6.6s-.1,4.4-.4,6.6c-.3,2.2-.7,4.4-1.3,6.5M745.5,564h0c1.5-.9,3-1.8,4.6-2.6,1.6-.8,3.2-1.5,4.8-2.1,1.6-.6,3.3-1.1,5-1.6,1.7-.4,3.4-.8,5.1-1.1-4-2.1-7.8-4.8-11.1-7.9-3.3-3.1-6.2-6.7-8.6-10.6-2.4-3.9-4.2-8.1-5.4-12.6-1.2-4.4-1.8-9-1.8-13.5,0-4.6.6-9.1,1.9-13.5,1.2-4.4,3.1-8.6,5.5-12.5,2.4-3.9,5.3-7.5,8.6-10.6,3.3-3.1,7.1-5.8,11.2-7.9-1.7-.3-3.5-.6-5.2-1-1.7-.4-3.4-1-5.1-1.6-1.7-.6-3.3-1.3-4.9-2.1-1.6-.8-3.1-1.7-4.6-2.6.2,6.3-.7,12.6-2.8,18.5-2.1,5.9-5.3,11.4-9.4,16.2-4.1,4.8-9.1,8.7-14.6,11.7-5.6,2.9-11.6,4.8-17.9,5.5,6.3.7,12.3,2.6,17.9,5.5,5.6,2.9,10.5,6.9,14.6,11.7,4.1,4.8,7.3,10.3,9.4,16.2,2.1,5.9,3,12.2,2.8,18.5M680.5,610.2h0c2.5,2.4,4.7,5,6.6,7.8,1.9,2.8,3.6,5.9,4.9,9,1.3,3.2,2.3,6.5,2.9,9.8.6,3.4.9,6.8.9,10.2,2.8-1.9,5.7-3.5,8.8-4.9,3.1-1.3,6.3-2.3,9.6-3,3.3-.7,6.7-1,10-1,3.4,0,6.7.3,10,1-2-2.4-3.9-4.9-5.4-7.7-1.6-2.7-2.9-5.6-3.9-8.5-1-3-1.8-6-2.3-9.1s-.6-6.2-.5-9.4c-3.1,1.9-6.3,3.6-9.7,4.8-3.4,1.2-6.9,2.1-10.5,2.6-3.6.5-7.2.6-10.8.3-3.6-.3-7.2-1-10.6-2M546.8,646.8h0c-4.6-1.5-8.9-3.6-12.9-6.3-4-2.7-7.6-6-10.6-9.7-3.1-3.7-5.6-7.9-7.5-12.3-1.9-4.4-3.1-9.1-3.7-13.9-.6,4.8-1.8,9.5-3.7,13.9-1.9,4.4-4.4,8.6-7.5,12.3-3.1,3.7-6.6,7-10.6,9.7-4,2.7-8.3,4.8-12.9,6.3,4.1,1.2,8.1,2.9,11.8,5,3.7,2.2,7.1,4.8,10.1,7.8,3,3,5.6,6.4,7.8,10.1s3.9,7.6,5,11.8c1.2-4.1,2.9-8.1,5-11.8,2.2-3.7,4.8-7.1,7.8-10.1,3-3,6.4-5.7,10.1-7.8,3.7-2.2,7.6-3.9,11.8-5M512.1,768.6h0c1.1-3.1,2.4-6.1,4-8.9,1.6-2.8,3.5-5.5,5.7-8,2.1-2.5,4.5-4.7,7.1-6.7,2.6-2,5.3-3.7,8.3-5.2-3-1.6-5.9-3.5-8.5-5.6-2.6-2.2-5.1-4.6-7.2-7.2-2.2-2.6-4-5.5-5.6-8.5-1.6-3-2.8-6.2-3.8-9.5-.9,3.3-2.2,6.5-3.8,9.5-1.6,3-3.4,5.9-5.6,8.5-2.2,2.6-4.6,5.1-7.2,7.2-2.6,2.2-5.5,4-8.5,5.6,2.9,1.5,5.7,3.2,8.3,5.2,2.6,2,5,4.2,7.1,6.7,2.1,2.5,4,5.1,5.7,8,1.6,2.8,3,5.8,4,8.9M583.1,740.2h0c1.6.8,3.1,1.8,4.6,2.8,1.5,1,2.9,2.1,4.3,3.2,1.4,1.2,2.7,2.4,4,3.7,1.3,1.3,2.4,2.7,3.5,4.1-.3-4.7,0-9.4,1-14,1-4.6,2.6-9,4.9-13.2,2.2-4.1,5-8,8.3-11.3,3.3-3.4,7.1-6.3,11.2-8.6,4.1-2.3,8.5-4.1,13.1-5.2,4.6-1.1,9.3-1.5,14-1.3,4.7.2,9.4,1.1,13.8,2.6,4.5,1.5,8.7,3.6,12.6,6.3-.8-1.7-1.4-3.4-2-5.2-.6-1.8-1-3.5-1.4-5.3-.4-1.8-.7-3.6-.8-5.5-.2-1.8-.2-3.7-.2-5.5-4.9,3.4-10.4,5.9-16.2,7.3-5.8,1.5-11.8,1.9-17.7,1.3-5.9-.6-11.7-2.3-17.1-5-5.3-2.7-10.2-6.2-14.3-10.6,1.7,5.6,2.4,11.5,2,17.4-.3,5.9-1.7,11.6-4,17-2.3,5.4-5.6,10.3-9.6,14.6-4,4.3-8.8,7.8-14,10.4M512.1,593.1h0c.4-3.5,1.2-6.9,2.3-10.2,1.1-3.3,2.6-6.5,4.3-9.5,1.8-3,3.9-5.8,6.2-8.4,2.4-2.6,5-4.9,7.8-7-3.2,1.5-6.6,2.6-10.1,3.3s-7,1.1-10.6,1.1-7.1-.4-10.6-1.1-6.9-1.9-10.1-3.3c2.8,2,5.5,4.4,7.8,7,2.4,2.6,4.5,5.4,6.2,8.4,1.8,3,3.2,6.2,4.3,9.5,1.1,3.3,1.9,6.8,2.3,10.2M541.4,553h0c3.3-1.5,6.7-2.6,10.2-3.4,3.5-.7,7.1-1.1,10.7-1.1,3.6,0,7.2.4,10.7,1.2,3.5.8,6.9,2,10.2,3.5-3-2.1-5.7-4.5-8.1-7.1-2.4-2.7-4.6-5.6-6.4-8.7-1.8-3.1-3.3-6.4-4.4-9.9-1.1-3.4-1.8-7-2.2-10.6-.3,3.6-1.1,7.1-2.2,10.5-1.1,3.4-2.5,6.7-4.3,9.8-1.8,3.1-3.9,6-6.3,8.6-2.4,2.7-5.1,5-8,7.1M591.1,557.7h0c4,2.8,7.6,6.2,10.6,10.1,3,3.9,5.5,8.1,7.3,12.7,1.8,4.6,2.9,9.4,3.3,14.3.4,4.9,0,9.8-.9,14.6,3.2-3,6.8-5.5,10.7-7.5,3.9-2,8-3.6,12.2-4.5,4.3-1,8.6-1.4,13-1.2,4.4.2,8.7.9,12.9,2.2-3.2-3.1-6-6.6-8.3-10.5-2.3-3.8-4-8-5.2-12.3-1.2-4.3-1.8-8.8-1.8-13.2,0-4.5.6-8.9,1.7-13.3-3.6,3.4-7.8,6.2-12.2,8.4-4.5,2.2-9.2,3.7-14.2,4.4-4.9.8-9.9.8-14.8.1-4.9-.7-9.7-2.1-14.2-4.2M596.2,635.9h0c-1.4,1.3-3,2.6-4.6,3.7-1.6,1.2-3.2,2.2-5,3.2-1.7,1-3.5,1.8-5.3,2.6-1.8.8-3.7,1.4-5.6,1.9,2,.6,4,1.4,5.9,2.3,1.9.9,3.8,1.9,5.6,3.1,1.8,1.1,3.5,2.4,5.2,3.7,1.6,1.4,3.2,2.8,4.7,4.4-.6-2-1.1-4.1-1.4-6.1-.3-2.1-.6-4.2-.6-6.2,0-2.1,0-4.2.1-6.3.2-2.1.5-4.2.9-6.2"/>
  <rect class="st0" x="293.2" y="416.9" width="437.7" height="190.3"/>
  <rect class="st1" x="293.2" y="416.9" width="437.7" height="190.3"/>
  <path d="M352.1,495.9v-39.3l13.3,39.3h5.5l13.5-38.6v38.6h5.9v-46.2h-8.2l-11.1,32.1c-1.2,3.3-1.9,5.7-2.4,7.4-.5-1.5-1.2-3.8-2.3-6.8l-10.9-32.7h-9.2v46.2h5.9ZM401.4,495.9l5-14h19.4l5.4,14h7l-18.8-46.2h-6.7l-17.7,46.2h6.5ZM413.3,463.4c1-2.9,1.9-5.9,2.6-8.9.7,2.5,1.8,5.7,3.3,9.7l4.8,12.8h-15.7l5-13.5ZM471.1,488.5c-2.4,2-5.3,3-8.7,3s-5.4-.7-7.8-2.2c-2.4-1.4-4.2-3.6-5.3-6.5-1.2-3-1.7-6.4-1.7-10.3s.5-6,1.4-8.8c1-2.9,2.6-5.2,5-6.8,2.4-1.7,5.4-2.6,8.9-2.6s5.6.8,7.7,2.3c2,1.5,3.5,3.9,4.6,7.3l6-1.4c-1.2-4.3-3.4-7.5-6.6-9.9-3.2-2.4-7-3.5-11.6-3.5s-7.8.9-11.2,2.8c-3.4,1.9-6,4.6-7.8,8.2-1.9,3.5-2.8,7.7-2.8,12.6s.8,8.5,2.4,12.3c1.6,3.9,4,6.8,7.1,8.8,3.1,2,7.2,3,12.1,3s8.8-1.3,12.2-3.9c3.3-2.6,5.6-6.4,6.9-11.5l-6.1-1.5c-.8,3.9-2.4,6.8-4.8,8.8h0ZM508.9,495.9l5-14h19.4l5.4,14h7l-18.8-46.2h-6.7l-17.7,46.2h6.5ZM520.8,463.4c1-2.9,1.9-5.9,2.6-8.9.7,2.5,1.8,5.7,3.3,9.7l4.8,12.8h-15.7l5-13.5ZM580.7,476.4c0,5.8-1,9.7-2.8,11.8-1.9,2-5.1,3-9.6,3s-4.8-.5-6.6-1.5-3.1-2.5-3.9-4.4c-.7-1.9-1.1-4.8-1.1-8.9v-26.6h-6.1v26.7c0,4.8.6,8.7,1.7,11.5s3.2,5,5.9,6.4c2.8,1.5,6.3,2.3,10.6,2.3s8-.8,10.8-2.6c2.7-1.7,4.6-3.9,5.7-6.6,1-2.7,1.5-6.4,1.5-11v-26.7h-6.1v26.6ZM603.3,495.9v-20.5h7.1c1.5,0,2.7,0,3.4.2,1,.3,1.9.6,2.8,1.2.9.6,1.9,1.6,3.1,3.1,1.1,1.5,2.6,3.6,4.4,6.4l6.1,9.6h7.6l-8-12.6c-1.6-2.4-3.3-4.5-5-6.1-.8-.8-2.1-1.5-3.7-2.3,4.4-.6,7.7-2.1,9.8-4.3,2.1-2.3,3.2-5,3.2-8.3s-.6-4.8-1.9-7c-1.3-2.1-3-3.5-5.1-4.4s-5.3-1.2-9.4-1.2h-20.4v46.2h6.1ZM603.3,454.9h14.6c3.4,0,5.9.7,7.5,2.1,1.6,1.4,2.4,3.2,2.4,5.4s-.4,2.9-1.2,4.2c-.8,1.2-2,2.2-3.5,2.8-1.6.6-3.7.8-6.6.8h-13.1v-15.3ZM645,495.9l5-14h19.4l5.4,14h7l-18.8-46.2h-6.7l-17.7,46.2h6.5ZM656.8,463.4c1-2.9,1.9-5.9,2.6-8.9.7,2.5,1.8,5.7,3.3,9.7l4.8,12.8h-15.7l5-13.5Z"/>
  <path d="M350.8,570v-20.5h7.1c1.5,0,2.7,0,3.4.2,1,.3,1.9.6,2.8,1.2.9.6,1.9,1.6,3.1,3.1,1.1,1.5,2.6,3.6,4.4,6.4l6.1,9.6h7.6l-8-12.6c-1.6-2.4-3.3-4.5-5-6.1-.8-.8-2.1-1.5-3.7-2.3,4.4-.6,7.7-2.1,9.8-4.3,2.1-2.3,3.2-5,3.2-8.3s-.6-4.8-1.9-7c-1.3-2.1-3-3.5-5.1-4.4s-5.3-1.2-9.4-1.2h-20.4v46.2h6.1ZM350.8,529h14.6c3.4,0,5.9.7,7.5,2.1,1.6,1.4,2.4,3.2,2.4,5.4s-.4,2.9-1.2,4.2c-.8,1.2-2,2.2-3.5,2.8-1.6.6-3.7.8-6.6.8h-13.1v-15.3ZM392.5,570l5-14h19.4l5.4,14h7l-18.8-46.2h-6.7l-17.7,46.2h6.5ZM404.4,537.6c1-2.9,1.9-5.9,2.6-8.9.7,2.5,1.8,5.7,3.3,9.7l4.8,12.8h-15.7l5-13.5ZM453.6,570l18-46.2h-6.3l-12.4,33.5c-1,2.5-1.7,5-2.4,7.5-.7-2.3-1.5-4.8-2.4-7.5l-12-33.5h-6.6l17.9,46.2h6.3ZM511.6,570v-5.4h-28.3v-15.7h25.5v-5.4h-25.5v-14.2h27.2v-5.4h-33.3v46.2h34.4ZM525.9,570v-36.2l24.2,36.2h6.3v-46.2h-5.9v36.2l-24.2-36.2h-6.3v46.2h5.9ZM587.2,570l11.7-16c.5-.6,1.2-1.7,2.2-3.3.6,1,1.2,1.9,1.9,2.8l11.7,16.4h7.5l-17.2-24.2,16-21.9h-6.6l-9.3,12.2c-1.4,1.9-2.6,3.5-3.6,5.2-.7-1.3-1.9-3.2-3.7-5.6l-8.4-11.8h-7.3l15.7,22.2-17.9,24h7.3ZM634.7,570v-46.2h-6.1v46.2h6.1ZM651.6,570v-18.8h11.9c6.5,0,11-1.4,13.5-4.1s3.7-6.1,3.7-9.9-.5-4.4-1.4-6.3c-.9-1.9-2.1-3.4-3.7-4.4-1.5-1-3.4-1.7-5.7-2.1-1.6-.3-3.9-.5-7-.5h-17.4v46.2h6.1ZM651.6,529.3h11.8c2.8,0,4.7.1,5.7.4,1.6.5,2.9,1.4,3.9,2.8,1,1.4,1.5,3,1.5,5s-.8,4.7-2.5,6.2c-1.6,1.5-4.4,2.2-8.4,2.2h-11.9v-16.5Z"/>
</svg>