<?xml version="1.0" encoding="UTF-8" standalone="no"?>
<svg
   id="svg2"
   version="1.1"
   viewBox="0 0 334.47919 289.00507"
   height="289.00507mm"
   width="334.47919mm"
   sodipodi:docname="thumbnail.svg"
   inkscape:version="1.2.1 (9c6d41e410, 2022-07-14)"
   xmlns:inkscape="http://www.inkscape.org/namespaces/inkscape"
   xmlns:sodipodi="http://sodipodi.sourceforge.net/DTD/sodipodi-0.dtd"
   xmlns:xlink="http://www.w3.org/1999/xlink"
   xmlns="http://www.w3.org/2000/svg"
   xmlns:svg="http://www.w3.org/2000/svg"
   xmlns:rdf="http://www.w3.org/1999/02/22-rdf-syntax-ns#"
   xmlns:cc="http://creativecommons.org/ns#"
   xmlns:dc="http://purl.org/dc/elements/1.1/">
  <sodipodi:namedview
     id="namedview668"
     pagecolor="#ffffff"
     bordercolor="#000000"
     borderopacity="0.25"
     inkscape:showpageshadow="2"
     inkscape:pageopacity="0.0"
     inkscape:pagecheckerboard="0"
     inkscape:deskcolor="#d1d1d1"
     inkscape:document-units="mm"
     showgrid="false"
     inkscape:zoom="0.55307694"
     inkscape:cx="816.34211"
     inkscape:cy="446.59247"
     inkscape:window-width="2400"
     inkscape:window-height="1434"
     inkscape:window-x="2391"
     inkscape:window-y="-9"
     inkscape:window-maximized="1"
     inkscape:current-layer="svg2" />
  <!-- Working space 10 10 410 287 -->
  <!-- Title block 220 227 410 287 -->
  <metadata
     id="metadata849">
    <rdf:RDF>
      <cc:Work
         rdf:about="">
        <dc:format>image/svg+xml</dc:format>
        <dc:type
           rdf:resource="http://purl.org/dc/dcmitype/StillImage" />
        <dc:title />
      </cc:Work>
    </rdf:RDF>
  </metadata>
  <defs
     id="defs847">
    <linearGradient
       gradientUnits="userSpaceOnUse"
       id="defitem29"
       y2="485.909"
       x2="655.35199"
       y1="807.466"
       x1="649.42902">
      <stop
         id="stop92"
         offset="0.0000000"
         style="stop-color:#ffffff;stop-opacity:1.0000000;" />
      <stop
         id="stop93"
         offset="1.0000000"
         style="stop-color:#ffffff;stop-opacity:0.13756600;" />
    </linearGradient>
    <linearGradient
       xlink:href="#defitem29"
       id="linearGradient3448"
       gradientUnits="userSpaceOnUse"
       x1="649.42902"
       y1="807.466"
       x2="655.35199"
       y2="485.909" />
    <radialGradient
       gradientUnits="userSpaceOnUse"
       id="defitem28"
       fy="345.56"
       fx="1049.72"
       r="1202.15"
       cy="345.56"
       cx="1049.72">
      <stop
         id="stop89"
         offset="0.0000000"
         style="stop-color:#ffffff;stop-opacity:1.0000000;" />
      <stop
         id="stop90"
         offset="1.0000000"
         style="stop-color:#a8a8a8;stop-opacity:1.0000000;" />
    </radialGradient>
    <radialGradient
       xlink:href="#defitem28"
       id="radialGradient3446"
       gradientUnits="userSpaceOnUse"
       cx="1092.7045"
       cy="64.845284"
       fx="1089.4004"
       fy="64.844765"
       r="1202.15" />
    <linearGradient
       gradientUnits="userSpaceOnUse"
       id="defitem30"
       y2="636.70697"
       x2="980"
       y1="636.70697"
       x1="287.5">
      <stop
         id="stop95"
         offset="0.0000000"
         style="stop-color:#464646;stop-opacity:1.0000000;" />
      <stop
         id="stop96"
         offset="1.0000000"
         style="stop-color:#c2c2c2;stop-opacity:1.0000000;" />
    </linearGradient>
    <linearGradient
       xlink:href="#defitem30"
       id="linearGradient3444"
       gradientUnits="userSpaceOnUse"
       gradientTransform="matrix(1,0,0,1.016038,0,-11.73855)"
       x1="287.5"
       y1="636.70697"
       x2="980"
       y2="636.70697" />
    <linearGradient
       gradientUnits="userSpaceOnUse"
       id="defitem27"
       y2="317.44699"
       x2="985.98199"
       y1="403.18799"
       x1="921.091">
      <stop
         id="stop86"
         offset="0.0000000"
         style="stop-color:#7e7e7e;stop-opacity:1.0000000;" />
      <stop
         id="stop87"
         offset="1.0000000"
         style="stop-color:#e5e5e5;stop-opacity:1.0000000;" />
    </linearGradient>
    <linearGradient
       xlink:href="#defitem27"
       id="linearGradient3442"
       gradientUnits="userSpaceOnUse"
       x1="921.091"
       y1="403.18799"
       x2="985.98199"
       y2="317.44699" />
    <linearGradient
       gradientUnits="userSpaceOnUse"
       id="defitem26"
       y2="360.27499"
       x2="293.37"
       y1="346.30399"
       x1="530.76099">
      <stop
         id="stop83"
         offset="0.0000000"
         style="stop-color:#5f5f5f;stop-opacity:1.0000000;" />
      <stop
         id="stop84"
         offset="1.0000000"
         style="stop-color:#e5e5e5;stop-opacity:1.0000000;" />
    </linearGradient>
    <linearGradient
       xlink:href="#defitem26"
       id="linearGradient3440"
       gradientUnits="userSpaceOnUse"
       x1="530.76099"
       y1="346.30399"
       x2="293.37"
       y2="360.27499" />
    <linearGradient
       gradientUnits="userSpaceOnUse"
       id="defitem25"
       y2="337.60999"
       x2="308.75"
       y1="412.91901"
       x1="164.013">
      <stop
         id="stop80"
         offset="0.0000000"
         style="stop-color:#ffffff;stop-opacity:1.0000000;" />
      <stop
         id="stop81"
         offset="1.0000000"
         style="stop-color:#bfbfbf;stop-opacity:1.0000000;" />
    </linearGradient>
    <linearGradient
       xlink:href="#defitem25"
       id="linearGradient3438"
       gradientUnits="userSpaceOnUse"
       x1="164.013"
       y1="412.91901"
       x2="308.75"
       y2="337.60999" />
    <linearGradient
       gradientUnits="userSpaceOnUse"
       id="defitem24"
       y2="380.47198"
       x2="992.48901"
       y1="270.854"
       x1="1094.25">
      <stop
         id="stop77"
         offset="0.0000000"
         style="stop-color:#6a6a6a;stop-opacity:1.0000000;" />
      <stop
         id="stop78"
         offset="1.0000000"
         style="stop-color:#e6e6e6;stop-opacity:1.0000000;" />
    </linearGradient>
    <linearGradient
       xlink:href="#defitem24"
       id="linearGradient3436"
       gradientUnits="userSpaceOnUse"
       x1="1094.25"
       y1="270.854"
       x2="992.48901"
       y2="380.47198" />
    <linearGradient
       gradientUnits="userSpaceOnUse"
       id="defitem23"
       y2="549.37799"
       x2="1049.84"
       y1="476.465"
       x1="1170.91">
      <stop
         id="stop74"
         offset="0.0000000"
         style="stop-color:#5f5f5f;stop-opacity:1.0000000;" />
      <stop
         id="stop75"
         offset="1.0000000"
         style="stop-color:#ebebeb;stop-opacity:1.0000000;" />
    </linearGradient>
    <linearGradient
       xlink:href="#defitem23"
       id="linearGradient3434"
       gradientUnits="userSpaceOnUse"
       x1="1170.91"
       y1="476.465"
       x2="1049.84"
       y2="549.37799" />
    <linearGradient
       gradientUnits="userSpaceOnUse"
       id="defitem22"
       y2="313.276"
       x2="576.14899"
       y1="105.486"
       x1="783.716">
      <stop
         id="stop71"
         offset="0.0000000"
         style="stop-color:#5a5a5a;stop-opacity:1.0000000;" />
      <stop
         id="stop72"
         offset="1.0000000"
         style="stop-color:#c7c7c7;stop-opacity:1.0000000;" />
    </linearGradient>
    <linearGradient
       xlink:href="#defitem22"
       id="linearGradient3432"
       gradientUnits="userSpaceOnUse"
       x1="783.716"
       y1="105.486"
       x2="576.14899"
       y2="313.276" />
    <linearGradient
       gradientUnits="userSpaceOnUse"
       id="defitem21"
       y2="484.716"
       x2="128.05499"
       y1="418.698"
       x1="280.04401">
      <stop
         id="stop68"
         offset="0.0000000"
         style="stop-color:#666666;stop-opacity:1.0000000;" />
      <stop
         id="stop69"
         offset="1.0000000"
         style="stop-color:#d8d8d8;stop-opacity:1.0000000;" />
    </linearGradient>
    <linearGradient
       xlink:href="#defitem21"
       id="linearGradient3430"
       gradientUnits="userSpaceOnUse"
       x1="280.04401"
       y1="418.698"
       x2="128.05499"
       y2="484.716" />
    <linearGradient
       gradientUnits="userSpaceOnUse"
       id="defitem20"
       y2="584.40997"
       x2="220"
       y1="636.95398"
       x1="129.687">
      <stop
         id="stop65"
         offset="0.0000000"
         style="stop-color:#ffffff;stop-opacity:1.0000000;" />
      <stop
         id="stop66"
         offset="1.0000000"
         style="stop-color:#bbbbbb;stop-opacity:1.0000000;" />
    </linearGradient>
    <linearGradient
       xlink:href="#defitem20"
       id="linearGradient3428"
       gradientUnits="userSpaceOnUse"
       x1="129.687"
       y1="636.95398"
       x2="220"
       y2="584.40997" />
    <linearGradient
       gradientUnits="userSpaceOnUse"
       id="defitem19"
       y2="583.75299"
       x2="1127.98"
       y1="629.02802"
       x1="1048.72">
      <stop
         id="stop62"
         offset="0.0000000"
         style="stop-color:#5e5e5e;stop-opacity:1.0000000;" />
      <stop
         id="stop63"
         offset="1.0000000"
         style="stop-color:#ededed;stop-opacity:1.0000000;" />
    </linearGradient>
    <linearGradient
       xlink:href="#defitem19"
       id="linearGradient3426"
       gradientUnits="userSpaceOnUse"
       x1="1048.72"
       y1="629.02802"
       x2="1127.98"
       y2="583.75299" />
    <linearGradient
       gradientUnits="userSpaceOnUse"
       id="defitem18"
       y2="291.97699"
       x2="581.32397"
       y1="387.27301"
       x1="370.022">
      <stop
         id="stop59"
         offset="0.0000000"
         style="stop-color:#636363;stop-opacity:1.0000000;" />
      <stop
         id="stop60"
         offset="1.0000000"
         style="stop-color:#d6d6d6;stop-opacity:1.0000000;" />
    </linearGradient>
    <linearGradient
       xlink:href="#defitem18"
       id="linearGradient3424"
       gradientUnits="userSpaceOnUse"
       x1="370.022"
       y1="387.27301"
       x2="581.32397"
       y2="291.97699" />
    <linearGradient
       gradientUnits="userSpaceOnUse"
       id="defitem17"
       y2="351.939"
       x2="909.59399"
       y1="351.939"
       x1="732.15601">
      <stop
         id="stop56"
         offset="0.0000000"
         style="stop-color:#676767;stop-opacity:1.0000000;" />
      <stop
         id="stop57"
         offset="1.0000000"
         style="stop-color:#d3d3d3;stop-opacity:1.0000000;" />
    </linearGradient>
    <linearGradient
       xlink:href="#defitem17"
       id="linearGradient3422"
       gradientUnits="userSpaceOnUse"
       x1="732.15601"
       y1="351.939"
       x2="909.59399"
       y2="351.939" />
    <linearGradient
       gradientUnits="userSpaceOnUse"
       id="defitem16"
       y2="494.71301"
       x2="1073.01"
       y1="494.71301"
       x1="1014.43">
      <stop
         id="stop53"
         offset="0.0000000"
         style="stop-color:#666666;stop-opacity:1.0000000;" />
      <stop
         id="stop54"
         offset="1.0000000"
         style="stop-color:#dcdcdc;stop-opacity:1.0000000;" />
    </linearGradient>
    <linearGradient
       xlink:href="#defitem16"
       id="linearGradient3420"
       gradientUnits="userSpaceOnUse"
       x1="1014.43"
       y1="494.71301"
       x2="1073.01"
       y2="494.71301" />
    <linearGradient
       gradientUnits="userSpaceOnUse"
       id="defitem15"
       y2="516.37"
       x2="193.27699"
       y1="452.388"
       x1="272.59201">
      <stop
         id="stop50"
         offset="0.0000000"
         style="stop-color:#6e6e6e;stop-opacity:1.0000000;" />
      <stop
         id="stop51"
         offset="1.0000000"
         style="stop-color:#d8d8d8;stop-opacity:1.0000000;" />
    </linearGradient>
    <linearGradient
       xlink:href="#defitem15"
       id="linearGradient3418"
       gradientUnits="userSpaceOnUse"
       x1="272.59201"
       y1="452.388"
       x2="193.27699"
       y2="516.37" />
    <radialGradient
       gradientUnits="userSpaceOnUse"
       id="defitem14"
       fy="211.088"
       fx="1037.22"
       r="1164.28"
       cy="211.088"
       cx="1037.22">
      <stop
         id="stop47"
         offset="0.0000000"
         style="stop-color:#ffffff;stop-opacity:1.0000000;" />
      <stop
         id="stop48"
         offset="1.0000000"
         style="stop-color:#aaaaaa;stop-opacity:1.0000000;" />
    </radialGradient>
    <radialGradient
       xlink:href="#defitem14"
       id="radialGradient3416"
       gradientUnits="userSpaceOnUse"
       cx="1037.22"
       cy="211.088"
       fx="1037.22"
       fy="211.088"
       r="1164.28" />
    <linearGradient
       gradientUnits="userSpaceOnUse"
       id="defitem13"
       y2="686.83002"
       x2="379.241"
       y1="732.12903"
       x1="342.64999">
      <stop
         id="stop44"
         offset="0.0000000"
         style="stop-color:#ffffff;stop-opacity:1.0000000;" />
      <stop
         id="stop45"
         offset="1.0000000"
         style="stop-color:#989898;stop-opacity:1.0000000;" />
    </linearGradient>
    <linearGradient
       xlink:href="#defitem13"
       id="linearGradient3414"
       gradientUnits="userSpaceOnUse"
       x1="342.64999"
       y1="732.12903"
       x2="379.241"
       y2="686.83002" />
    <radialGradient
       gradientUnits="userSpaceOnUse"
       id="defitem12"
       fy="484.409"
       fx="632.78101"
       r="540.27899"
       cy="484.409"
       cx="632.78101">
      <stop
         id="stop41"
         offset="0.0000000"
         style="stop-color:#ffffff;stop-opacity:1.0000000;" />
      <stop
         id="stop42"
         offset="1.0000000"
         style="stop-color:#ededed;stop-opacity:1.0000000;" />
    </radialGradient>
    <radialGradient
       xlink:href="#defitem12"
       id="radialGradient3412"
       gradientUnits="userSpaceOnUse"
       cx="632.78101"
       cy="484.409"
       fx="632.78101"
       fy="484.409"
       r="540.27899" />
    <radialGradient
       xlink:href="#linearGradient3682"
       id="radialGradient3817"
       gradientUnits="userSpaceOnUse"
       gradientTransform="matrix(1.1149219,0.2722306,-0.7507171,3.0745639,-471.08629,-148.32863)"
       cx="270.58316"
       cy="33.899986"
       fx="270.58316"
       fy="33.899986"
       r="19.571428" />
    <linearGradient
       id="linearGradient3682">
      <stop
         style="stop-color:#ff6d0f;stop-opacity:1;"
         offset="0"
         id="stop3684" />
      <stop
         style="stop-color:#ff1000;stop-opacity:1;"
         offset="1"
         id="stop3686" />
    </linearGradient>
    <radialGradient
       xlink:href="#linearGradient3864"
       id="radialGradient3661"
       gradientUnits="userSpaceOnUse"
       gradientTransform="matrix(0.6186598,0.9666542,-1.0332462,0.6612786,-327.27568,-255.84136)"
       cx="282.64584"
       cy="29.149046"
       fx="282.64584"
       fy="29.149046"
       r="19.571428" />
    <linearGradient
       id="linearGradient3864">
      <stop
         id="stop3866"
         offset="0"
         style="stop-color:#71b2f8;stop-opacity:1;" />
      <stop
         id="stop3868"
         offset="1"
         style="stop-color:#002795;stop-opacity:1;" />
    </linearGradient>
  </defs>
  <path
     style="color:#000000;fill:#c8c8c8;fill-opacity:1;stroke:#000000;stroke-opacity:1;-inkscape-stroke:none"
     d="m 289.41828,0.6335833 c -8e-5,5.3e-5 -0.005,0.005 -0.006,0.0059 -0.002,0.0018 -0.005,0.003 -0.006,0.0039 -0.002,0.0018 -0.005,0.0033 -0.008,0.0059 -0.006,0.005 -0.0149,0.01176 -0.0273,0.02148 -0.0249,0.01945 -0.0635,0.04902 -0.11328,0.08789 -0.0995,0.07774 -0.247,0.194608 -0.44531,0.349609 -0.39663,0.310002 -0.99142,0.772293 -1.77539,1.3847661 -1.56302,1.221017 -3.88936,3.040545 -6.90235,5.3945307 -0.57902,0.452016 -1.39219,1.086641 -2.36328,1.8457026 l -1.48632,1.1601563 -41.99218,32.810548 H 100.26594 L 61.613605,14.205914 c -0.5148,-0.392844 -1.00021,-0.764428 -1.43945,-1.099609 l -0.21094,0.279296 0.20898,-0.28125 c -0.0277,-0.02077 -0.063,-0.04774 -0.10546,-0.08008 l -0.002,-0.002 c -0.0409,-0.03145 -0.0798,-0.0587 -0.11328,-0.08398 l -0.002,-0.002 c -0.0739,-0.05692 -0.14449,-0.111295 -0.21289,-0.164063 l -0.002,-0.002 c -0.13951,-0.105634 -0.26947,-0.204759 -0.39062,-0.296875 v 0.002 c -0.17983,-0.138041 -0.31689,-0.24436 -0.45508,-0.349609 -0.0581,-0.04373 -0.10526,-0.0802 -0.15625,-0.119141 -0.0358,-0.02733 -0.0763,-0.05897 -0.10937,-0.08398 -10e-4,-8.36e-4 -0.003,-0.0011 -0.004,-0.002 l -0.004,-0.0039 -0.004,-0.002 c -0.0131,-0.0096 -0.0293,-0.02192 -0.0469,-0.03516 -0.002,-0.0012 -0.002,-0.0026 -0.004,-0.0039 -0.0143,-0.01095 -0.0253,-0.01954 -0.043,-0.0332 -7.4e-4,-5.67e-4 -10e-4,-0.0014 -0.002,-0.002 l -0.002,-0.002 c -0.003,-0.0019 -0.007,-0.0039 -0.01,-0.0059 l -0.002,-0.002 c -0.0414,-0.03109 -0.0933,-0.07078 -0.14062,-0.107422 -0.0557,-0.04307 -0.10646,-0.0816 -0.15235,-0.117187 l -0.002,-0.002 h -0.002 c -0.005,-0.0038 -0.0105,-0.0079 -0.0156,-0.01172 -0.02,-0.0152 -0.0387,-0.02979 -0.0586,-0.04492 -0.0761,-0.05792 -0.15178,-0.116376 -0.23047,-0.175781 -0.0986,-0.07523 -0.19804,-0.152224 -0.29492,-0.226564 -4.1e-4,-3.1e-4 -0.002,3.1e-4 -0.002,0 l -0.002,-0.002 c -0.005,-0.0041 -0.0103,-0.0077 -0.0156,-0.01172 -0.10825,-0.08255 -0.19827,-0.151252 -0.30469,-0.232422 -0.28132,-0.214552 -0.56298,-0.430086 -0.83203,-0.634765 -0.4086,-0.3118353 -0.71535,-0.5465713 -1.0918,-0.8339853 -0.75434,-0.5752816 -1.27649,-0.9744986 -1.89843,-1.4492176 -0.74696,-0.570113 -1.0288,-0.784674 -1.58985,-1.212891 -0.93654,-0.7150287 -1.64652,-1.2575737 -2.12304,-1.6210937 -0.18729,-0.14287 -0.30955,-0.235098 -0.42383,-0.322265 -0.0311,-0.02373 -0.0896,-0.06833 -0.11524,-0.08789 l -0.17383,-0.132812 c 3.6e-4,2.81e-4 -0.002,1.97e-4 -0.002,0 0,0 0,-0.002 0,-0.002 -8.1e-4,-6.31e-4 -10e-4,-0.0014 -0.002,-0.002 -4.4e-4,-3.49e-4 -0.002,0 -0.002,0 l -0.0176,-0.01172 c 0,0 -0.0972,0.136437 -0.19531,0.271484 l -0.0312,-0.330078 -7.6289,0.708984 0.0312,0.347656 -0.29297,-0.189453 C 31.486975,20.000773 23.457765,35.491715 16.947545,51.596539 12.252625,63.209174 8.3458355,75.141265 5.2639555,87.282086 l 0.33984,0.08594 -0.27734,0.214844 2.26367,2.908203 0.27539,-0.214844 v 0.34961 h 1.63476 3.6484395 c 0.0244,0.309055 0.0724,0.583981 0.0703,0.917969 -2.1e-4,0.02649 0.004,0.04959 0.004,0.07617 -0.0103,0.71397 -0.0797,1.454365 -0.21289,2.222651 -1.2e-4,6.7e-4 1.2e-4,0.001 0,0.002 -3.9243595,16.607501 -6.2602495,33.590261 -6.9628895,50.640621 -0.70173,17.05232 0.23058,34.17086 2.77734,51.04688 0.11895,1.07183 0.0805,2.08523 -0.0215,3.01953 -0.0137,0.12255 -0.0315,0.23353 -0.0488,0.35156 h -3.60351 -1.60546 v 0.34961 l -0.26758,-0.22461 -2.49414003,2.95703 0.0781,0.0645 v 0.002 l -0.16016,0.1582 c 0,0 0.0379,0.0396 0.0508,0.0527 l -0.0449,0.008 C 3.7162255,219.86376 8.4291655,237.16449 14.760155,253.85268 l 0.32227,-0.12305 -0.26953,0.2168 7.12109,8.93555 0.27539,-0.21875 -0.19531,0.29296 c 12.78303,8.51735 26.3149,15.9093 40.38867,22.0625 l 0.14063,-0.32031 0.1914,0.29297 2.748046,-1.79687 -0.1914,-0.29297 h 0.3496 v -2.60547 c 0.24032,-0.0142 0.47697,-0.03 0.74415,-0.0293 0.55349,0.002 1.16,0.0367 1.79882,0.10547 h 0.002 c 0.31724,0.0333 0.64532,0.0768 0.98437,0.12891 0.34298,0.0533 0.69244,0.11442 1.04688,0.18359 0.70397,0.1373 1.40243,0.30128 2.11914,0.49805 0.71799,0.19579 1.45145,0.42403 2.19922,0.68359 3.78771,1.48539 7.62633,2.88442 11.51367,4.19727 4.84509,1.63149 9.95706,2.44745 15.076169,2.4414 h 132.96874 c 5.11999,0.006 10.23411,-0.8099 15.07811,-2.4414 3.65903,-1.23608 7.27466,-2.5489 10.84571,-3.9375 0.74884,-0.25757 1.48208,-0.48285 2.20117,-0.67774 0.71815,-0.19396 1.41663,-0.35693 2.12109,-0.49219 0.3542,-0.0681 0.70412,-0.12941 1.04688,-0.18164 0.34003,-0.0513 0.6695,-0.0935 0.98828,-0.12695 0.63931,-0.0668 1.24736,-0.0996 1.80078,-0.0996 0.26643,0 0.50117,0.0167 0.74023,0.0312 v 2.60156 h 0.35157 l -0.19336,0.29297 2.75195,1.80469 0.19141,-0.29297 0.14062,0.32227 c 13.96662,-6.06108 27.40344,-13.34229 40.10938,-21.73047 l -0.19141,-0.28906 0.27149,0.21679 7.15039,-8.91015 -0.27344,-0.21875 0.32617,0.125 c 6.45616,-16.88835 11.25294,-34.40918 14.30078,-52.23047 l -0.3457,-0.0606 0.26758,-0.22461 -2.49414,-2.95703 -0.26758,0.22461 v -0.34961 h -1.60352 -3.60351 c -0.0168,-0.11481 -0.0353,-0.22269 -0.0488,-0.3418 -0.103,-0.93686 -0.14082,-1.95361 -0.0215,-3.02929 2.54677,-16.87602 3.47712,-33.99456 2.77539,-51.04688 -0.70264,-17.05036 -3.03657,-34.03312 -6.96093,-50.640621 -1.2e-4,-6.7e-4 1.1e-4,-0.001 0,-0.002 -0.13327,-0.767974 -0.20464,-1.507656 -0.21485,-2.222651 -4e-5,-0.0031 5e-5,-0.0067 0,-0.0098 -0.004,-0.35917 0.0499,-0.652415 0.0762,-0.984375 h 3.64843 1.63282 v -0.34961 l 0.27734,0.214844 2.26172,-2.908203 -0.0801,-0.0625 0.1543,-0.152344 c 0,0 -0.048,-0.04748 -0.0703,-0.07031 l 0.0586,-0.01563 C 326.21139,75.141 322.30561,63.209323 317.60968,51.596474 311.18657,35.705406 303.28405,20.413501 294.03937,5.9792864 l -0.29492,0.1874997 0.27539,-0.2148437 -4.12109,-5.2500001 -0.25391,0.199219 c -0.11347,-0.133835 -0.22652,-0.267605 -0.22656,-0.267578 z"
     id="path633" />
  <g
     id="g8890"
     transform="translate(22.616185,82.734538)">
    <path
       style="color:#000000;fill:#c8c8c8;fill-opacity:1;stroke:#000000;stroke-opacity:1;-inkscape-stroke:none"
       d="m 144.79136,0.50006944 c -5.4608,-0.004 -10.92232,0.1648 -16.38673,0.50585996 -5.46573,0.34145 -10.93839,0.85534 -16.38672,1.54297 -10.89655,1.37535 -21.70049,3.44325 -32.30664,6.17383 -2.28119,0.58718 -4.55283,1.20485 -6.8164,1.8535076 l 0.0254,0.0918 c -6.76376,1.93834 -13.47575,4.05862 -20.08203,6.54687 -2.21437,0.83422 -4.56145,1.26172 -6.92774,1.26172 h -4.28711 -23.185542 -1.81055 -1.89453 v 0.35156 l -0.22461,-0.26758 -10.5546898,8.86133 0.22656,0.26953 -0.34765,-0.0606 c -2.19449,12.47713 -3.30999999,25.14393 -3.33202999,37.8125 -0.023,12.924868 1.09346999,25.850574 3.33202999,38.580083 l 0.34765,-0.0605 -0.22656,0.26953 10.5546898,8.86133 0.22461,-0.26563 v 0.34961 h 1.89453 1.81055 23.185542 4.28711 c 2.36629,0 4.71337,0.4275 6.92774,1.26172 6.60628,2.48825 13.31827,4.60853 20.08203,6.54688 l -0.0254,0.0918 c 2.26363,0.64859 4.53522,1.26626 6.8164,1.85351 10.60615,2.73058 21.41009,4.79848 32.30664,6.17383 5.44833,0.68763 10.92099,1.20151 16.38672,1.54297 5.46441,0.34106 10.92593,0.50986 16.38673,0.50586 5.46269,-0.004 10.92625,-0.17958 16.38867,-0.52734 2.73038,-0.17384 5.46121,-0.39141 8.19336,-0.65235 2.73545,-0.26135 5.46601,-0.56484 8.18945,-0.91211 10.88302,-1.38845 21.53565,-3.44457 31.97266,-6.13086 2.28125,-0.58725 4.55283,-1.20492 6.8164,-1.85351 l -0.0254,-0.0918 c 6.76317,-1.93818 13.47436,-4.05889 20.08008,-6.54688 5.7e-4,-2.2e-4 0.001,2.2e-4 0.002,0 2.21437,-0.83422 4.55949,-1.26172 6.92578,-1.26172 h 4.28907 23.18554 1.81055 1.89453 v -0.35156 l 0.22461,0.26758 10.55469,-8.86133 -0.22656,-0.26953 0.34765,0.0605 c 2.23855,-12.729509 3.35507,-25.655225 3.33203,-38.580083 -0.022,-12.66858 -1.13755,-25.33537 -3.33203,-37.8125 l -0.34765,0.0606 0.22656,-0.26953 -10.55469,-8.86133 -0.22461,0.26758 v -0.35156 h -1.89453 -1.81055 -23.18554 -4.28907 c -2.36629,0 -4.71141,-0.4275 -6.92578,-1.26172 -5.7e-4,-2.1e-4 -0.001,2.2e-4 -0.002,0 -6.60572,-2.48798 -13.31691,-4.6087 -20.08008,-6.54687 l 0.0254,-0.0918 c -2.26363,-0.6485976 -4.53522,-1.2662576 -6.8164,-1.8535076 -10.43701,-2.68629 -21.08964,-4.74241 -31.97266,-6.13086 -2.72344,-0.34727 -5.454,-0.65076 -8.18945,-0.91211 -2.73215,-0.26094 -5.46298,-0.47851 -8.19336,-0.65235 -5.4624,-0.34775996 -10.92594,-0.52383996 -16.38867,-0.52733996 z"
       id="path1293" />
    <g
       id="g6687"
       transform="translate(-78.3058,-65.272514)">
      <path
         id="11"
         d="m 119.92946,153.59965 h 205.9995"
         style="fill:none;stroke:#000000;stroke-width:0.699998;stroke-linecap:butt;stroke-linejoin:miter" />
      <path
         id="12"
         d="m 119.92946,108.59975 h 205.9995"
         style="fill:none;stroke:#000000;stroke-width:0.699998;stroke-linecap:butt;stroke-linejoin:miter" />
      <path
         d="m 363.37387,92.963892 q -0.001,0 -3.45899,0"
         id="path1081"
         style="fill:none;stroke:#000000;stroke-width:0.699998;stroke-linecap:butt;stroke-linejoin:miter" />
      <path
         d="m 359.91488,92.963892 c -0.206,-5e-4 -0.334,0.463199 -0.377,1.458697 -0.021,0.500499 -0.023,1.124397 -0.005,1.871595 0.018,0.744098 0.051,1.602996 0.1,2.576594"
         id="path1083"
         style="fill:none;stroke:#000000;stroke-width:0.699998;stroke-linecap:butt;stroke-linejoin:miter" />
      <path
         d="m 359.63288,98.870778 c 0.092,1.863292 0.217,4.013592 0.351,6.427782 0.067,1.2071 0.136,2.4801 0.202,3.79089 0.067,1.3094 0.131,2.6608 0.192,4.05419 0.122,2.7898 0.226,5.76489 0.297,8.78036 0.036,1.506 0.063,3.02731 0.081,4.56397 0.018,1.5384 0.028,3.09736 0.028,4.65193 -0.001,1.55666 -0.01,3.10266 -0.029,4.63804 -0.018,1.5318 -0.045,3.05118 -0.081,4.55811 -0.071,3.01982 -0.176,5.99341 -0.298,8.76941 -0.061,1.38819 -0.125,2.73449 -0.191,4.03869 -0.067,1.30559 -0.135,2.57299 -0.202,3.77859 -0.134,2.41539 -0.259,4.56489 -0.35,6.40588"
         id="path1085"
         style="fill:none;stroke:#000000;stroke-width:0.699998;stroke-linecap:butt;stroke-linejoin:miter" />
      <path
         d="m 359.63288,163.32862 c -0.049,0.9734 -0.082,1.8315 -0.1,2.5742 -0.018,0.74549 -0.016,1.36849 0.005,1.86899 0.043,0.9981 0.171,1.4658 0.377,1.4637"
         id="path1087"
         style="fill:none;stroke:#000000;stroke-width:0.699998;stroke-linecap:butt;stroke-linejoin:miter" />
      <path
         d="m 359.91488,169.23551 q 3.45799,0 3.45899,0"
         id="path1089"
         style="fill:none;stroke:#000000;stroke-width:0.699998;stroke-linecap:butt;stroke-linejoin:miter" />
      <path
         d="m 96.795515,84.109614 c 0.222,0.108399 0.689999,1.092397 1.566996,2.916293"
         id="path1111"
         style="fill:none;stroke:#000000;stroke-width:0.699998;stroke-linecap:butt;stroke-linejoin:miter" />
      <path
         d="M 98.362511,175.17349 C 98.75751,174.3511 99.13451,173.37 99.494509,172.23 c 0.358999,-1.1361 0.703001,-2.44419 1.028001,-3.90249 0.324,-1.4572 0.62399,-3.04279 0.89999,-4.75669 0.276,-1.71059 0.529,-3.54629 0.758,-5.50729 0.114,-0.98369 0.222,-1.99189 0.324,-3.02469 0.101,-1.0299 0.195,-2.07769 0.281,-3.14329 0.174,-2.1314 0.32,-4.33879 0.438,-6.62238 0.118,-2.2839 0.208,-4.6451 0.268,-7.00996 0.06,-2.36485 0.09,-4.73334 0.09,-7.12737 0,-2.39403 -0.03,-4.8136 -0.089,-7.18324 -0.06,-2.36915 -0.148,-4.68987 -0.265,-6.96207 -0.059,-1.13619 -0.125,-2.26119 -0.198,-3.37489 -0.074,-1.11659 -0.154,-2.21449 -0.242,-3.29369 -0.175,-2.15219 -0.376,-4.20009 -0.602,-6.14358 -0.226,-1.9407 -0.481,-3.7963 -0.76,-5.528791 -0.278,-1.729496 -0.57799,-3.317292 -0.89999,-4.763289 -0.321,-1.446996 -0.663002,-2.745993 -1.025001,-3.896891 -0.361999,-1.149397 -0.744998,-2.146194 -1.137998,-2.963492"
         id="path1113"
         style="fill:none;stroke:#000000;stroke-width:0.699998;stroke-linecap:butt;stroke-linejoin:miter" />
      <path
         d="m 98.362511,175.17349 c -0.876997,1.8239 -1.344996,2.8079 -1.566996,2.9163"
         id="path1115"
         style="fill:none;stroke:#000000;stroke-width:0.699998;stroke-linecap:butt;stroke-linejoin:miter" />
      <path
         d="m 119.92946,178.09959 v -1.1784 -3.47609 -5.59939 -7.44208 -8.91148 -9.93398 -10.45847 -10.45847 -9.93398 -8.91148 -7.442081 -5.599387 -3.476091 -1.178397"
         id="path1120"
         style="fill:none;stroke:#000000;stroke-width:0.699998;stroke-linecap:butt;stroke-linejoin:miter" />
      <path
         d="m 85.943542,92.963892 q -3.457992,0 -3.458992,0"
         id="path1123"
         style="fill:none;stroke:#000000;stroke-width:0.699998;stroke-linecap:butt;stroke-linejoin:miter" />
      <path
         d="m 86.225541,98.867678 c 0.097,-1.942695 0.138999,-3.437792 0.096,-4.437389 -0.044,-0.999498 -0.172,-1.470397 -0.377999,-1.466797"
         id="path1125"
         style="fill:none;stroke:#000000;stroke-width:0.699998;stroke-linecap:butt;stroke-linejoin:miter" />
      <path
         d="m 86.225541,98.867678 c -0.046,0.924498 -0.099,1.924792 -0.159,3.000892 -0.06,1.0769 -0.125999,2.232 -0.191999,3.43819 -0.134,2.4125 -0.272,5.02949 -0.393999,7.83278 -0.061,1.4016 -0.118,2.8499 -0.168,4.31499 -0.051,1.4639 -0.094,2.9484 -0.129,4.45343 -0.036,1.50779 -0.063,3.03511 -0.081,4.58198 -0.019,1.54532 -0.028,3.10553 -0.028,4.65373 0,1.54675 0.01,3.08584 0.028,4.61728 0.019,1.53462 0.046,3.06076 0.082,4.57845 0.036,1.51597 0.08,3.01827 0.13,4.47977 0.051,1.46019 0.106,2.88369 0.167,4.27069 0.120999,2.77289 0.260999,5.43358 0.394999,7.84098 0.132999,2.40369 0.256999,4.53679 0.348999,6.40088"
         id="path1127"
         style="fill:none;stroke:#000000;stroke-width:0.699998;stroke-linecap:butt;stroke-linejoin:miter" />
      <path
         d="m 85.943542,169.23591 c 0.205999,0.001 0.333999,-0.4638 0.376999,-1.46 0.021,-0.5004 0.023,-1.1236 0.005,-1.86979 -0.017,-0.7432 -0.051,-1.6013 -0.1,-2.5744"
         id="path1129"
         style="fill:none;stroke:#000000;stroke-width:0.699998;stroke-linecap:butt;stroke-linejoin:miter" />
      <path
         d="m 82.48455,169.23551 q 0.001,0 3.458992,0"
         id="path1131"
         style="fill:none;stroke:#000000;stroke-width:0.699998;stroke-linecap:butt;stroke-linejoin:miter" />
      <path
         d="m 96.795515,178.08979 c -3.624991,-2.9567 -7.251982,-5.91929 -10.851973,-8.85418"
         id="path1137"
         style="fill:none;stroke:#000000;stroke-width:0.699998;stroke-linecap:butt;stroke-linejoin:miter" />
      <path
         d="m 85.943542,92.963792 c 3.599991,-2.934893 7.226982,-5.897485 10.851973,-8.854178"
         id="path1143"
         style="fill:none;stroke:#000000;stroke-width:0.699998;stroke-linecap:butt;stroke-linejoin:miter" />
      <path
         d="m 347.49491,87.027007 c -0.392,0.815798 -0.769,1.796195 -1.13,2.941193 -0.362,1.146997 -0.709,2.464194 -1.031,3.91349 -0.322,1.449597 -0.62099,3.030393 -0.89699,4.742289 -0.138,0.855198 -0.271,1.744691 -0.398,2.668291 -0.127,0.9267 -0.248,1.8817 -0.363,2.8652 -0.229,1.96119 -0.43,4.00819 -0.603,6.14098 -0.174,2.1365 -0.32,4.35189 -0.439,6.64618 -0.059,1.148 -0.111,2.3065 -0.156,3.4755 -0.044,1.1662 -0.081,2.33737 -0.111,3.51356 -0.059,2.35326 -0.089,4.73308 -0.09,7.13944 0,1.20625 0.008,2.41022 0.023,3.61192 0.015,1.19831 0.037,2.38651 0.067,3.56458 0.058,2.35713 0.147,4.67784 0.265,6.96234 0.118,2.28419 0.266,4.53138 0.44,6.67428 0.173,2.13979 0.374,4.18449 0.601,6.13408 0.228,1.9527 0.484,3.8196 0.762,5.54319 0.277,1.7224 0.57699,3.30499 0.89699,4.74779 0.32,1.4416 0.666,2.75739 1.03,3.91179 0.363,1.1507 0.741,2.1338 1.133,2.94929"
         id="path1157"
         style="fill:none;stroke:#000000;stroke-width:0.699998;stroke-linecap:butt;stroke-linejoin:miter" />
      <path
         d="m 347.49491,87.027007 c 0.877,-1.824496 1.345,-2.808794 1.56799,-2.917393"
         id="path1159"
         style="fill:none;stroke:#000000;stroke-width:0.699998;stroke-linecap:butt;stroke-linejoin:miter" />
      <path
         d="m 325.92896,84.099814 v 1.178397 3.476091 5.599387 7.442081 8.91148 9.93398 10.45847 10.45847 9.93398 8.91148 7.44208 5.59939 3.47609 1.1784"
         id="path1163"
         style="fill:none;stroke:#000000;stroke-width:0.699998;stroke-linecap:butt;stroke-linejoin:miter" />
      <path
         d="m 349.0629,178.08979 c -0.22299,-0.1086 -0.69099,-1.0929 -1.56799,-2.9174"
         id="path1167"
         style="fill:none;stroke:#000000;stroke-width:0.699998;stroke-linecap:butt;stroke-linejoin:miter" />
      <path
         d="m 359.91388,169.23551 c -3.59899,2.93489 -7.22698,5.89748 -10.85098,8.85428"
         id="path1255"
         style="fill:none;stroke:#000000;stroke-width:0.699998;stroke-linecap:butt;stroke-linejoin:miter" />
      <path
         d="m 349.0629,84.109614 c 3.624,2.956793 7.25199,5.919385 10.85098,8.854278"
         id="path1257"
         style="fill:none;stroke:#000000;stroke-width:0.699998;stroke-linecap:butt;stroke-linejoin:miter" />
    </g>
  </g>
  <g
     id="g8024"
     transform="translate(67.833386,49.664147)">
    <path
       style="color:#000000;fill:#c8c8c8;fill-opacity:1;stroke:#000000;stroke-opacity:1;-inkscape-stroke:none"
       d="m 105.38354,0.6191686 c -4.1851,-0.16699 -8.370375,-0.15844 -12.554685,0.0254 -11.54798,0.50968 -23.01879,2.3505 -34.09766,5.47851 -11.0718,3.11801 -21.74953,7.5220104 -31.52344,12.8906304 -2.79264,1.53153 -5.53401,3.14852 -8.14648,4.80078 -2.61258,1.65111 -5.09193,3.33253 -7.36719,4.96289 -2.2764701,1.63071 -4.3459701,3.2073 -6.1757801,4.66016 -1.83232,1.4549 -3.42247,2.78323 -4.81250005,3.97461 l 0.45508005,0.53125 c 0.82109,-0.70375 1.87238,-1.54864 2.8418,-2.34571 -0.006,0.11778 -0.008,0.14648 -0.0156,0.28711 l -0.0234,0.44141 c -0.0122,0.23301 -0.0223,0.42767 -0.0371,0.71094 -0.003,0.0516 -0.007,0.12639 -0.01,0.17968 l -0.44336,8.47852 c -0.0238,0.45478 -0.0412,0.77202 -0.0664,1.25391 -0.0113,0.21637 -0.0236,0.46505 -0.0352,0.68554 l -0.25391,4.84375 c -0.0348,0.66438 -0.0708,1.34579 -0.10742,2.04492 -0.0369,0.70469 -0.0746,1.42628 -0.11328,2.16407 -0.0384,0.73201 -0.0772,1.48022 -0.11719,2.24414 l -0.17578,3.34961 c -0.004,0.0709 -0.008,0.142 -0.0117,0.21289 -0.004,0.0677 -0.006,0.13889 -0.01,0.20703 l -0.1211,2.29687 -0.0156,0.28321 c -0.0177,0.33685 -0.0351,0.674819 -0.0527,1.011719 -0.005,0.0984 -0.0105,0.19655 -0.0156,0.29492 l -0.10547,2.02344 c -0.005,0.098 -0.0104,0.19117 -0.0156,0.29101 -0.0235,0.4491 -0.0479,0.91939 -0.0723,1.38477 -0.0244,0.46445 -0.0481,0.9277 -0.0723,1.38867 -0.0242,0.46171 -0.0479,0.92472 -0.0723,1.39062 -0.0122,0.23373 -0.025,0.46645 -0.0371,0.69727 l -0.0352,0.64453 c -9.7e-4,0.0186 -9.7e-4,0.0361 -0.002,0.0547 -0.0128,0.24437 -0.0258,0.49307 -0.0391,0.74804 -0.0132,0.2509 -0.0261,0.4994 -0.0391,0.7461 l -0.0293,0.55664 -0.008,0.14062 -0.0215,0.41797 c -0.007,0.12369 -0.013,0.24741 -0.0195,0.3711 l -0.0156,0.32226 c -0.0119,0.227 -0.0233,0.45465 -0.0352,0.68164 l -0.0156,0.27735 c -0.003,0.0657 -0.006,0.13157 -0.01,0.19726 -0.0129,0.24719 -0.0264,0.4916 -0.0391,0.73438 l -0.0156,0.27929 c -0.008,0.14924 -0.0152,0.2958 -0.0234,0.45313 -0.0133,0.25424 -0.0271,0.52637 -0.041,0.79297 l -0.0117,0.20508 -0.0293,0.58398 -0.0566,1.08398 c -0.008,0.16005 -0.017,0.32075 -0.0254,0.48047 l -0.0742,1.38867 c -0.003,0.0532 -0.005,0.10698 -0.008,0.16016 l -0.0664,1.27344 c -0.005,0.0868 -0.009,0.16995 -0.0137,0.25976 l -0.0176,0.35157 c -0.008,0.15634 -0.0172,0.31021 -0.0254,0.46679 -0.0144,0.27362 -0.0289,0.54535 -0.043,0.8125 -0.0281,0.53735 -0.0563,1.06907 -0.084,1.59766 -0.0552,1.05488 -0.1083,2.07935 -0.16210005,3.10547 l -0.0488,0.94336 c -0.037,0.706828 -0.0754,1.418268 -0.11133,2.103508 -0.002,0.047 -0.005,0.0898 -0.008,0.13672 l -0.0117,0.23438 c -0.0448,0.8564 -0.0884,1.70057 -0.13086,2.50976 l 0.34961005,0.0176 -0.34961005,0.0195 0.13281,2.529304 c 0.006,0.11942 0.0113,0.22927 0.0176,0.34961 l 0.11328,2.14844 c 0.0158,0.30196 0.031,0.59586 0.0469,0.89843 0.0538001,1.02613 0.10691005,2.05058 0.16211005,3.10547 l 0.041,0.77734 c 0.0143,0.27361 0.0285,0.54437 0.043,0.82031 v 0.002 c 0.0141,0.26706 0.0286,0.53694 0.043,0.81055 l 0.0312,0.58985 c 0.004,0.0758 0.008,0.15478 0.0117,0.22851 0.0138,0.26405 0.0278,0.51103 0.041,0.76367 l 0.008,0.15235 c 0.0107,0.20418 0.0203,0.40973 0.0312,0.61718 0.027,0.51446 0.0548,1.03059 0.082,1.54883 l 0.0352,0.6543 c 0.0159,0.30338 0.0309,0.60558 0.0469,0.91016 l 0.041,0.7832 c 10e-5,0.002 -10e-5,0.004 0,0.006 0.0139,0.2666 0.0277,0.53864 0.041,0.79297 0.004,0.0807 0.008,0.15456 0.0117,0.23242 l 0.0234,0.43945 c 0.001,0.0199 0.003,0.0405 0.004,0.0606 l 0.0606,1.16797 0.0156,0.29688 c 0.0131,0.24943 0.026,0.49863 0.0391,0.74804 0.011,0.21032 0.0222,0.42059 0.0332,0.63086 0.009,0.17382 0.0182,0.34768 0.0273,0.52149 8.2e-4,0.0156 10e-4,0.0313 0.002,0.0469 0.005,0.0957 0.0106,0.19141 0.0156,0.28711 0.013,0.2468 0.0259,0.4952 0.0391,0.74609 0.0133,0.25486 0.0263,0.50553 0.0391,0.75 0.0125,0.23819 0.0252,0.47018 0.0371,0.69727 l 0.10938,2.08789 0.14062,2.69336 c 0.001,0.0261 0.002,0.0541 0.004,0.0801 2.5e-4,0.005 -2.4e-4,0.009 0,0.0137 l 0.13086,2.48632 c 0.002,0.0371 0.004,0.0743 0.006,0.11133 0.006,0.11525 0.0115,0.23044 0.0176,0.3457 l 0.0508,0.94727 0.12891,2.47656 c 5e-4,0.01 10e-4,0.0197 0.002,0.0293 l 0.002,0.0312 0.18554,3.5293 c 0.04,0.76401 0.0788,1.51203 0.11719,2.24414 0.0387,0.73779 0.0764,1.45937 0.11328,2.16406 l 0.10742,2.04492 0.26758,5.09766 c 0.007,0.13791 0.0143,0.29533 0.0215,0.43164 0.0173,0.33013 0.0283,0.54195 0.0449,0.85938 l 0.46094,8.79687 c 0.004,0.0774 0.01,0.18384 0.0137,0.25781 0.024,0.45908 0.0437,0.82789 0.0606,1.1504 0.008,0.15277 0.011,0.18686 0.0176,0.3125 -1.00632,-0.82669 -1.99228,-1.64292 -2.84375,-2.3711 l -0.45508005,0.53125 c 1.07820005,0.92208 2.27030005,1.92543 3.60352005,3.00586 1.33229,1.07984 2.80517,2.23738 4.41601,3.44922 1.6098201,1.21112 3.3573101,2.47834 5.2168001,3.76172 v -0.002 c 1.85858,1.2829 3.82888,2.58407 5.85547,3.8457 5.18567,3.23957 10.75145,6.2695 16.56055,8.95704 5.81061,2.6902 11.86403,5.03873 18.06054,6.98633 6.19763,1.94906 12.53811,3.49941 18.95703,4.63085 6.41975,1.13174 12.9185,1.8489 19.45313,2.13477 4.18432,0.18383 8.369595,0.19238 12.554685,0.0254 5.96555,-0.24215 11.907,-0.83391 17.78906,-1.77734 5.88157,-0.94262 11.70196,-2.23837 17.41406,-3.8711 5.7116,-1.63193 11.31381,-3.59976 16.74024,-5.86914 5.42593,-2.26868 10.6765,-4.83815 15.67187,-7.65039 2.64378,-1.47911 5.25137,-3.0569 7.72461,-4.64844 2.47464,-1.59212 4.81463,-3.19729 6.96094,-4.74804 2.14763,-1.55126 4.10005,-3.04678 5.83789,-4.4336 1.73923,-1.38742 3.26193,-2.66691 4.58594,-3.79688 l -0.45313,-0.53125 c -0.82201,0.70155 -1.86531,1.54815 -2.84375,2.35352 0.003,-0.0492 0.003,-0.0677 0.006,-0.12109 v -0.002 c 0.002,-0.0449 0.007,-0.12344 0.01,-0.17188 0.0165,-0.31422 0.0352,-0.66865 0.0586,-1.11523 0.0268,-0.5111 0.0582,-1.09944 0.0937,-1.77735 0.0356,-0.67805 0.0738,-1.42983 0.11719,-2.25781 0.0866,-1.653 0.19029,-3.60958 0.30859,-5.86719 0.0296,-0.56452 0.0586,-1.14376 0.0899,-1.74023 0.0311,-0.5934 0.0643,-1.20875 0.0976,-1.84375 0.0334,-0.63752 0.0684,-1.30134 0.10352,-1.97071 0.0351,-0.66941 0.0707,-1.34441 0.10742,-2.04492 0.0367,-0.70038 0.075,-1.42751 0.11328,-2.16015 0.0384,-0.73249 0.0768,-1.46983 0.11719,-2.24024 0.0404,-0.77247 0.0813,-1.56818 0.12304,-2.36328 0.0209,-0.39825 0.0412,-0.79933 0.0625,-1.20508 0.0106,-0.20298 0.0226,-0.40626 0.0332,-0.60937 0.0104,-0.19843 0.0202,-0.40308 0.0312,-0.61328 0.0113,-0.2164 0.0232,-0.43853 0.0351,-0.66602 0.0117,-0.22382 0.0236,-0.44715 0.0352,-0.66797 0.0233,-0.44395 0.0468,-0.88869 0.0703,-1.33594 0.0468,-0.893 0.0936,-1.78833 0.14063,-2.68554 0.0471,-0.8985 0.0934,-1.79924 0.14062,-2.70117 0.0236,-0.44981 0.0485,-0.90116 0.0723,-1.35547 0.012,-0.22859 0.0234,-0.45519 0.0351,-0.67969 0.0117,-0.22322 0.0226,-0.44046 0.0352,-0.67969 0.0125,-0.23923 0.0277,-0.5013 0.041,-0.75586 0.0133,-0.25344 0.0261,-0.50234 0.0391,-0.75 0.0261,-0.49868 0.052,-0.99726 0.0781,-1.49414 0.0259,-0.49467 0.0523,-0.98815 0.0781,-1.48047 0.0129,-0.24749 0.0244,-0.49171 0.0371,-0.73437 0.0127,-0.24171 0.0257,-0.47815 0.0391,-0.73242 0.0133,-0.25436 0.027,-0.52803 0.041,-0.79493 0.0139,-0.26586 0.0273,-0.52849 0.041,-0.78906 0.0274,-0.52386 0.0547,-1.046 0.082,-1.5664 0.0271,-0.51856 0.055,-1.03639 0.082,-1.55079 0.0135,-0.25838 0.0277,-0.5138 0.041,-0.76757 0.0131,-0.24967 0.0255,-0.50403 0.0391,-0.76368 0.0139,-0.26616 0.0285,-0.53705 0.043,-0.8125 0.0142,-0.27136 0.0291,-0.54089 0.043,-0.80664 0.028,-0.53418 0.0544,-1.06361 0.082,-1.58984 0.055,-1.05053 0.10841,-2.07352 0.16211,-3.09766 0.0537,-1.02415 0.10816,-2.04995 0.16016,-3.04297 0.0521,-0.99286 0.10169,-1.953035 0.15039,-2.882805 l -0.34961,-0.0195 0.34961,-0.0176 -0.13086,-2.50976 -0.0195,-0.375 c -0.0359,-0.68563 -0.0744,-1.39429 -0.11133,-2.099608 l -0.0469,-0.89063 c -8.9e-4,-0.0171 -0.001,-0.0337 -0.002,-0.0508 -0.0255,-0.48592 -0.0506,-0.98218 -0.0762,-1.4707 l -0.0859,-1.62891 c -0.012,-0.22819 -0.0231,-0.45976 -0.0351,-0.68945 l -0.0469,-0.90039 c -0.0139,-0.26585 -0.0288,-0.53333 -0.043,-0.80469 -0.009,-0.16619 -0.0169,-0.32741 -0.0254,-0.49023 l -0.0176,-0.32227 c -0.008,-0.14577 -0.014,-0.28707 -0.0215,-0.42969 l -0.0176,-0.33593 c -0.0133,-0.25378 -0.0275,-0.5091 -0.041,-0.76758 -0.003,-0.0628 -0.006,-0.12656 -0.01,-0.18946 l -0.0977,-1.86914 -0.0566,-1.05859 c -0.0106,-0.20115 -0.0206,-0.40497 -0.0312,-0.60937 l -0.01,-0.17969 c -0.008,-0.14662 -0.0158,-0.28947 -0.0234,-0.43555 l -0.0176,-0.35742 v -0.002 c -0.009,-0.16589 -0.0172,-0.31953 -0.0254,-0.47657 l -0.0137,-0.2539 c -9.8e-4,-0.0186 -9.8e-4,-0.038 -0.002,-0.0566 -0.0118,-0.22436 -0.0233,-0.45123 -0.0352,-0.67969 -0.0206,-0.3923 -0.0419,-0.78589 -0.0625,-1.17969 l -0.0156,-0.30078 c -0.007,-0.13071 -0.0146,-0.26173 -0.0215,-0.39258 l -0.0215,-0.41797 -0.008,-0.14062 c -0.009,-0.18055 -0.0179,-0.36023 -0.0273,-0.54102 -0.013,-0.24755 -0.0258,-0.49851 -0.0391,-0.75195 -0.0133,-0.25456 -0.0285,-0.51663 -0.041,-0.75586 -0.0126,-0.23934 -0.0234,-0.45637 -0.0352,-0.67969 -0.0117,-0.22438 -0.0231,-0.451 -0.0351,-0.67968 -0.0238,-0.45421 -0.0487,-0.90576 -0.0723,-1.35547 -0.0472,-0.90194 -0.0935,-1.80258 -0.14062,-2.70117 -0.047,-0.89712 -0.0938,-1.79255 -0.14063,-2.68555 -0.0235,-0.44736 -0.047,-0.891988 -0.0703,-1.335938 -0.0116,-0.22082 -0.0235,-0.44424 -0.0352,-0.66797 -0.012,-0.2276 -0.0238,-0.44962 -0.0351,-0.66601 -0.0111,-0.21022 -0.0208,-0.41478 -0.0312,-0.61328 -0.0106,-0.20312 -0.0226,-0.40454 -0.0332,-0.60743 -0.0213,-0.40574 -0.0416,-0.80887 -0.0625,-1.20703 -0.0417,-0.7951 -0.0826,-1.59081 -0.12304,-2.36328 -0.0404,-0.77042 -0.0788,-1.50765 -0.11719,-2.24023 -0.0383,-0.73265 -0.0766,-1.45968 -0.11328,-2.16016 -0.0367,-0.70051 -0.0723,-1.37366 -0.10742,-2.04297 -0.0351,-0.66936 -0.0701,-1.33523 -0.10352,-1.97265 -0.0333,-0.63511 -0.0666,-1.25046 -0.0976,-1.84375 -0.0313,-0.59648 -0.0602,-1.17563 -0.0899,-1.74024 -0.1183,-2.25751 -0.22199,-4.21233 -0.30859,-5.86523 -0.0434,-0.82808 -0.0816,-1.58172 -0.11719,-2.25977 -0.0355,-0.67791 -0.067,-1.26623 -0.0937,-1.77734 -0.0234,-0.44658 -0.0421,-0.80102 -0.0586,-1.11524 -0.004,-0.0839 -0.006,-0.0959 -0.01,-0.17187 -0.003,-0.063 -0.003,-0.0855 -0.006,-0.14258 1.00806,0.82805 1.99035,1.64319 2.84375,2.37305 l 0.45313,-0.53125 c -1.05977,-0.90636 -2.22866,-1.89074 -3.53321,-2.94922 -1.30456,-1.06177 -2.74222,-2.18752 -4.31445,-3.37696 -1.57204,-1.18617 -3.27848,-2.42642 -5.09375,-3.68554 -1.81428,-1.25843 -3.73788,-2.53487 -5.71875,-3.77735 -5.23781,-3.29682 -10.87393,-6.38513 -16.76172,-9.12109 -5.8893,-2.73872 -12.02816,-5.1284504 -18.3164,-7.1035204 -6.28935,-1.97652 -12.72664,-3.54142 -19.24219,-4.67578 -6.51637,-1.13463 -13.11173,-1.84019 -19.74414,-2.10351 z"
       id="path1789" />
    <g
       id="g7641"
       transform="translate(-116.04478,-57.194264)">
      <path
         d="m 266.05536,231.45012 a 107.45741,107.45741 0 0 0 0,-150.716677"
         id="path1707"
         style="fill:none;stroke:#000000;stroke-width:0.700003;stroke-linecap:butt;stroke-linejoin:miter" />
      <path
         d="M 266.05526,80.733543 C 249.8539,74.970221 232.65214,72.00031 215.45021,72.00041 c -17.20191,1e-4 -34.40407,2.970211 -50.60413,8.733033"
         id="path1709"
         style="fill:none;stroke:#000000;stroke-width:0.700003;stroke-linecap:butt;stroke-linejoin:miter" />
      <path
         d="m 164.84598,80.733443 a 107.45741,107.45741 0 0 0 0,150.716677"
         id="path1711"
         style="fill:none;stroke:#000000;stroke-width:0.700003;stroke-linecap:butt;stroke-linejoin:miter" />
      <path
         d="m 266.05526,231.45012 c -16.20136,5.76322 -33.40312,8.73313 -50.60505,8.73303 -17.20191,-1e-4 -34.40407,-2.97011 -50.60413,-8.73303"
         id="path1713"
         style="fill:none;stroke:#000000;stroke-width:0.700003;stroke-linecap:butt;stroke-linejoin:miter" />
      <path
         d="m 304.98981,221.49938 c -2.04451,0.9581 -4.45042,2.03031 -7.17923,3.10031 -2.73041,1.07 -5.77652,2.13701 -9.04353,3.03881 -3.26851,0.9019 -6.76533,1.63941 -10.53134,2.25981 -3.76592,0.6204 -7.80103,1.1236 -12.18045,1.55171"
         id="path1715"
         style="fill:none;stroke:#000000;stroke-width:0.700003;stroke-linecap:butt;stroke-linejoin:miter" />
      <path
         d="m 310.47253,220.00557 c 10e-4,-0.0287 0.002,-0.0491 10e-4,-0.0612 -7e-4,-0.0241 -0.003,-0.0457 -0.006,-0.0647 -0.009,-0.0495 -0.0287,-0.0909 -0.0587,-0.1241 -0.037,-0.0408 -0.0921,-0.0703 -0.1653,-0.0887 -0.0846,-0.0211 -0.196,-0.0262 -0.3342,-0.0152 -0.1556,0.0129 -0.3484,0.0473 -0.5798,0.1056 -0.1261,0.0317 -0.2657,0.0713 -0.419,0.1188 -0.0765,0.0238 -0.15671,0.0496 -0.24061,0.0777 -0.0835,0.0279 -0.171,0.058 -0.2624,0.0905 -0.1957,0.0694 -0.4094,0.1494 -0.6401,0.2399 -0.1151,0.0451 -0.2351,0.0932 -0.3599,0.1441 -0.1276,0.0521 -0.2496,0.1028 -0.3876,0.161 -0.1427,0.0603 -0.3016,0.12841 -0.4564,0.19601 -0.1573,0.0686 -0.3206,0.1408 -0.49001,0.2167 -0.3381,0.1515 -0.6993,0.3174 -1.0836,0.4974"
         id="path1717"
         style="fill:none;stroke:#000000;stroke-width:0.700003;stroke-linecap:butt;stroke-linejoin:miter" />
      <path
         d="m 125.91993,221.50338 c -0.3828,-0.1794 -0.7429,-0.3447 -1.0801,-0.4959 -0.1689,-0.0757 -0.33191,-0.1478 -0.48881,-0.2163 -0.1545,-0.0674 -0.3132,-0.13551 -0.4557,-0.19581 -0.1377,-0.0582 -0.2595,-0.1088 -0.3868,-0.1609 -0.1247,-0.0509 -0.2446,-0.099 -0.3595,-0.1442 -0.2306,-0.0906 -0.4439,-0.1707 -0.6398,-0.2404 -0.1831,-0.0652 -0.3502,-0.1212 -0.50411,-0.1693 -0.1536,-0.0479 -0.2937,-0.0879 -0.4203,-0.1201 -0.2325,-0.0592 -0.4263,-0.0945 -0.5831,-0.1082 -0.1393,-0.0118 -0.2518,-0.007 -0.3376,0.0128 -0.0743,0.0178 -0.1305,0.0467 -0.1685,0.0867 -0.0309,0.0329 -0.0513,0.0739 -0.0611,0.123 -0.004,0.0191 -0.006,0.0406 -0.007,0.0646 -6e-4,0.0138 -3e-4,0.0343 9e-4,0.0614"
         id="path1723"
         style="fill:none;stroke:#000000;stroke-width:0.700003;stroke-linecap:butt;stroke-linejoin:miter" />
      <path
         d="m 164.84608,231.45002 c -4.38262,-0.42841 -8.41643,-0.93151 -12.17895,-1.55151 -3.76261,-0.6199 -7.25403,-1.35681 -10.51534,-2.25521 -3.26131,-0.8984 -6.29252,-1.95841 -9.02163,-3.02821 -2.72921,-1.0698 -5.15622,-2.14941 -7.21023,-3.11171"
         id="path1725"
         style="fill:none;stroke:#000000;stroke-width:0.700003;stroke-linecap:butt;stroke-linejoin:miter" />
      <path
         d="m 121.16561,156.0918 c 0.0235,2.53227 0.0836,5.01578 0.1805,7.45055 0.0479,1.21923 0.1033,2.42427 0.1661,3.61512 0.0312,0.5933 0.0644,1.18691 0.0994,1.78091 0.0352,0.5955 0.0726,1.1961 0.1095,1.76361 0.0368,0.5675 0.0732,1.102 0.1111,1.6406 0.0381,0.5402 0.0775,1.08001 0.1181,1.61931 0.0811,1.074 0.16581,2.13241 0.25401,3.17551 0.0885,1.0461 0.1796,2.07711 0.2734,3.09291 0.0474,0.5053 0.0949,1.01071 0.1423,1.51601 0.0485,0.5068 0.0983,1.018 0.1454,1.4962 0.0472,0.4781 0.0918,0.92311 0.1374,1.37331 0.0464,0.4516 0.0927,0.9031 0.139,1.3547 0.0931,0.89891 0.1859,1.77451 0.2805,2.65451 0.0239,0.2214 0.0473,0.4388 0.0704,0.65231 0.0229,0.2106 0.0453,0.4171 0.0673,0.6194 0.0445,0.4083 0.0889,0.8139 0.1331,1.2167 0.0441,0.3999 0.0881,0.79991 0.1322,1.19981 0.0443,0.4009 0.0892,0.8061 0.1309,1.1829 0.0418,0.3767 0.0804,0.725 0.1196,1.07781 0.0393,0.3544 0.0786,0.7089 0.1179,1.0633 0.0783,0.7055 0.155,1.40001 0.2302,2.08351 0.0754,0.686 0.1491,1.3613 0.221,2.02601 0.0355,0.3305 0.0711,0.6611 0.1066,0.9916 0.0354,0.3317 0.071,0.6668 0.10371,0.9773 0.0328,0.3104 0.0627,0.59621 0.0927,0.88551 0.03,0.2905 0.06,0.581 0.0899,0.8715 0.0591,0.5775 0.1159,1.1445 0.1705,1.70101 0.0547,0.5586 0.1071,1.1069 0.157,1.6449 0.0244,0.2671 0.0488,0.5343 0.0731,0.80141 0.024,0.2678 0.0478,0.5385 0.0693,0.7872 0.0215,0.2488 0.0407,0.4758 0.0598,0.7063 0.0189,0.2319 0.0378,0.4639 0.0567,0.6958 0.0367,0.46161 0.0712,0.91511 0.1034,1.36041 0.0323,0.4472 0.0623,0.8866 0.09,1.3183 0.0133,0.2144 0.0266,0.42881 0.0399,0.64321 0.013,0.218 0.0252,0.4289 0.0365,0.6325 0.0109,0.1974 0.021,0.3877 0.0303,0.5709 0.009,0.1872 0.0182,0.3744 0.0273,0.5616 0.0173,0.3721 0.0325,0.73711 0.0455,1.09481 0.0131,0.3589 0.0242,0.7111 0.0332,1.0566 0.009,0.3413 0.016,0.691 0.0208,1.0177 0.005,0.31961 0.007,0.61601 0.008,0.92061 0.001,0.3008 4e-4,0.5942 -0.002,0.8802 -0.005,0.5731 -0.0175,1.11881 -0.0375,1.63721"
         id="path1746"
         style="fill:none;stroke:#000000;stroke-width:0.700003;stroke-linecap:butt;stroke-linejoin:miter" />
      <path
         d="m 121.16561,156.0918 c 0.0235,-2.53226 0.0836,-5.01578 0.1805,-7.45054 0.0479,-1.21924 0.1033,-2.42427 0.1661,-3.61507 0.0312,-0.5934 0.0644,-1.18701 0.0994,-1.78101 0.0352,-0.5955 0.0726,-1.196 0.1095,-1.76351 0.0368,-0.5675 0.0732,-1.102 0.1111,-1.6407 0.0381,-0.5402 0.0775,-1.07991 0.1181,-1.61931 0.0811,-1.0739 0.16581,-2.13241 0.25401,-3.17541 0.0885,-1.0462 0.1796,-2.07711 0.2734,-3.09291 0.0474,-0.5054 0.0949,-1.01071 0.1423,-1.51611 0.0485,-0.5067 0.0983,-1.018 0.1454,-1.4961 0.0472,-0.47811 0.0918,-0.92321 0.1374,-1.37331 0.0464,-0.4516 0.0927,-0.9032 0.139,-1.3548 0.0931,-0.89881 0.1859,-1.77451 0.2805,-2.65451 0.0239,-0.2214 0.0473,-0.43881 0.0704,-0.65221 0.0229,-0.2106 0.0453,-0.4171 0.0673,-0.6195 0.0445,-0.4083 0.0889,-0.8138 0.1331,-1.2167 0.0441,-0.39991 0.0881,-0.79981 0.1322,-1.19971 0.0443,-0.401 0.0892,-0.8062 0.1309,-1.1829 0.0418,-0.3767 0.0804,-0.72511 0.1196,-1.07781 0.0393,-0.3545 0.0786,-0.7089 0.1179,-1.0634 0.0783,-0.7055 0.155,-1.39991 0.2302,-2.08341 0.0754,-0.686 0.1491,-1.3614 0.221,-2.02611 0.0355,-0.3305 0.0711,-0.661 0.1066,-0.9915 0.0354,-0.3317 0.071,-0.6669 0.10371,-0.9773 0.0328,-0.31051 0.0627,-0.59621 0.0927,-0.88551 0.03,-0.2905 0.06,-0.581 0.0899,-0.8715 0.0591,-0.5776 0.1159,-1.1446 0.1705,-1.70101 0.0547,-0.5587 0.1071,-1.107 0.157,-1.645 0.0244,-0.2671 0.0488,-0.53421 0.0731,-0.80131 0.024,-0.2679 0.0478,-0.5385 0.0693,-0.7873 0.0215,-0.2488 0.0407,-0.4757 0.0598,-0.7062 0.0189,-0.232 0.0378,-0.4639 0.0567,-0.6959 0.0367,-0.46161 0.0712,-0.91501 0.1034,-1.36031 0.0323,-0.4472 0.0623,-0.8866 0.09,-1.318305 0.0133,-0.214401 0.0266,-0.428801 0.0399,-0.643202 0.013,-0.218101 0.0252,-0.428902 0.0365,-0.632503 0.0109,-0.1974 0.021,-0.387701 0.0303,-0.571002 0.009,-0.187201 0.0182,-0.374301 0.0273,-0.561502 0.0173,-0.372201 0.0325,-0.737103 0.0455,-1.094804 0.0131,-0.359001 0.0242,-0.711203 0.0332,-1.056604 0.009,-0.341401 0.016,-0.691103 0.0208,-1.017804 0.005,-0.319601 0.007,-0.616002 0.008,-0.920604 0.001,-0.300801 4e-4,-0.594202 -0.002,-0.880203 -0.005,-0.573002 -0.0175,-1.118704 -0.0375,-1.637106"
         id="path1748"
         style="fill:none;stroke:#000000;stroke-width:0.700003;stroke-linecap:butt;stroke-linejoin:miter" />
      <path
         d="m 164.84608,80.733543 c -4.38262,0.428402 -8.41643,0.931504 -12.17895,1.551506 -3.76261,0.620002 -7.25403,1.356805 -10.51534,2.255209 -3.26131,0.898503 -6.29252,1.958507 -9.02163,3.028311 -2.72921,1.069804 -5.15622,2.149408 -7.21023,3.111712"
         id="path1750"
         style="fill:none;stroke:#000000;stroke-width:0.700003;stroke-linecap:butt;stroke-linejoin:miter" />
      <path
         d="m 304.98981,90.684181 c -2.04451,-0.958004 -4.45042,-2.030308 -7.17923,-3.100212 -2.73041,-1.070104 -5.77652,-2.137108 -9.04353,-3.038811 -3.26851,-0.902004 -6.76533,-1.639507 -10.53134,-2.259809 -3.76592,-0.620402 -7.80103,-1.123704 -12.18045,-1.551806"
         id="path1752"
         style="fill:none;stroke:#000000;stroke-width:0.700003;stroke-linecap:butt;stroke-linejoin:miter" />
      <path
         d="m 304.98981,90.684181 c -0.0417,1.087204 -0.0526,2.275909 -0.0327,3.566113 0.0101,0.644303 0.0279,1.313205 0.0536,2.006508 0.0128,0.346901 0.0275,0.699303 0.0442,1.057104 0.008,0.178501 0.0171,0.359101 0.0264,0.541802 0.01,0.186901 0.0186,0.359002 0.0292,0.550602 0.0111,0.199201 0.0236,0.417902 0.0359,0.622303 0.0124,0.2086 0.0255,0.419401 0.0391,0.632202 0.0271,0.422705 0.0565,0.854105 0.0884,1.294305 0.0318,0.4414 0.0671,0.9048 0.1059,1.39021 0.0387,0.4829 0.0795,0.9708 0.1223,1.4635 0.0211,0.2439 0.0433,0.4943 0.0664,0.7513 0.0234,0.261 0.0479,0.52891 0.0733,0.80381 0.0505,0.5452 0.1031,1.0976 0.1577,1.6571 0.0547,0.56081 0.1114,1.12931 0.1701,1.70561 0.0292,0.2873 0.059,0.5776 0.0894,0.8708 0.0152,0.1467 0.0305,0.2934 0.0458,0.44 0.0148,0.14261 0.0303,0.29031 0.0464,0.44301 0.0166,0.1579 0.0338,0.321 0.0517,0.4892 0.0174,0.1643 0.0349,0.3285 0.0524,0.4928 0.0351,0.3289 0.0708,0.6611 0.1071,0.9967 0.0724,0.66971 0.1465,1.34871 0.2223,2.03721 0.076,0.6895 0.1533,1.38811 0.2319,2.09591 0.0392,0.353 0.0789,0.7097 0.119,1.0701 0.0201,0.1814 0.0402,0.3616 0.0601,0.54061 0.0198,0.1781 0.0392,0.3524 0.0605,0.5444 0.0213,0.1919 0.0446,0.4015 0.0674,0.6074 0.0227,0.205 0.0453,0.4088 0.0677,0.6116 0.0451,0.408 0.0904,0.82001 0.136,1.23621 0.0911,0.8304 0.1822,1.6718 0.2734,2.52411 0.0914,0.8537 0.1824,1.7183 0.2729,2.59391 0.0451,0.4368 0.0902,0.8779 0.1352,1.3235 0.0226,0.2241 0.045,0.4469 0.0671,0.6684 0.022,0.2205 0.0435,0.43671 0.0667,0.67291 0.0233,0.2361 0.0483,0.4921 0.0728,0.744 0.0243,0.251 0.0484,0.5008 0.0721,0.7495 0.0477,0.4999 0.0951,1.00491 0.1421,1.51491 0.0939,1.0185 0.185,2.05031 0.2733,3.09531 0.0883,1.0444 0.17301,2.10571 0.25421,3.18391 0.0407,0.5408 0.0801,1.08271 0.1182,1.62581 0.038,0.5418 0.0744,1.0811 0.1111,1.6486 0.0366,0.56761 0.0734,1.16351 0.1082,1.75551 0.0346,0.5908 0.0674,1.18181 0.0983,1.77291 0.0621,1.18574 0.1169,2.38533 0.1643,3.59872 0.0958,2.42363 0.1554,4.89602 0.1787,7.41719"
         id="path1754"
         style="fill:none;stroke:#000000;stroke-width:0.700003;stroke-linecap:butt;stroke-linejoin:miter" />
      <path
         d="m 304.98981,221.49938 c -0.0417,-1.08721 -0.0526,-2.27591 -0.0327,-3.56602 0.0101,-0.6444 0.0279,-1.3132 0.0536,-2.0065 0.0128,-0.347 0.0275,-0.69941 0.0442,-1.05721 0.008,-0.1784 0.0171,-0.359 0.0264,-0.5418 0.01,-0.1869 0.0186,-0.359 0.0292,-0.5506 0.0111,-0.1992 0.0236,-0.4179 0.0359,-0.6222 0.0124,-0.2087 0.0255,-0.41941 0.0391,-0.63231 0.0271,-0.4226 0.0565,-0.854 0.0884,-1.2943 0.0318,-0.4413 0.0671,-0.9047 0.1059,-1.39021 0.0387,-0.4829 0.0795,-0.9707 0.1223,-1.4635 0.0211,-0.2438 0.0433,-0.4943 0.0664,-0.7513 0.0234,-0.26101 0.0479,-0.52891 0.0733,-0.80371 0.0505,-0.5452 0.1031,-1.0976 0.1577,-1.6572 0.0547,-0.56081 0.1114,-1.12931 0.1701,-1.70551 0.0292,-0.2874 0.059,-0.5777 0.0894,-0.8709 0.0152,-0.1467 0.0305,-0.2933 0.0458,-0.44001 0.0148,-0.1426 0.0303,-0.2902 0.0464,-0.4429 0.0166,-0.158 0.0338,-0.321 0.0517,-0.4892 0.0174,-0.1643 0.0349,-0.3286 0.0524,-0.4929 0.0351,-0.3288 0.0708,-0.6611 0.1071,-0.9966 0.0724,-0.66971 0.1465,-1.34881 0.2223,-2.03721 0.076,-0.68951 0.1533,-1.38821 0.2319,-2.09601 0.0392,-0.3529 0.0789,-0.7096 0.119,-1.0701 0.0201,-0.18141 0.0402,-0.36161 0.0601,-0.54061 0.0198,-0.1781 0.0392,-0.3524 0.0605,-0.5443 0.0213,-0.1919 0.0446,-0.4015 0.0674,-0.6074 0.0227,-0.205 0.0453,-0.4089 0.0677,-0.6117 0.0451,-0.4079 0.0904,-0.82001 0.136,-1.23611 0.0911,-0.8305 0.1822,-1.6718 0.2734,-2.52421 0.0914,-0.8536 0.1824,-1.7182 0.2729,-2.59391 0.0451,-0.4367 0.0902,-0.8779 0.1352,-1.3234 0.0226,-0.2241 0.045,-0.4469 0.0671,-0.6684 0.022,-0.22051 0.0435,-0.43681 0.0667,-0.67291 0.0233,-0.2361 0.0483,-0.4922 0.0728,-0.7441 0.0243,-0.2509 0.0484,-0.5008 0.0721,-0.7494 0.0477,-0.49991 0.0951,-1.00491 0.1421,-1.51501 0.0939,-1.0185 0.185,-2.05021 0.2733,-3.09521 0.0883,-1.0445 0.17301,-2.10581 0.25421,-3.18391 0.0407,-0.5408 0.0801,-1.08271 0.1182,-1.62581 0.038,-0.5419 0.0744,-1.0811 0.1111,-1.64871 0.0366,-0.5676 0.0734,-1.1634 0.1082,-1.7555 0.0346,-0.5908 0.0674,-1.18171 0.0983,-1.77281 0.0621,-1.18579 0.1169,-2.38538 0.1643,-3.59878 0.0958,-2.42362 0.1554,-4.89602 0.1787,-7.41719"
         id="path1756"
         style="fill:none;stroke:#000000;stroke-width:0.700003;stroke-linecap:butt;stroke-linejoin:miter" />
      <path
         d="m 310.47253,92.178087 c 10e-4,0.0286 0.002,0.049 10e-4,0.0612 -7e-4,0.0241 -0.003,0.0456 -0.006,0.0647 -0.009,0.0495 -0.0287,0.0909 -0.0587,0.124101 -0.037,0.0407 -0.0921,0.0702 -0.1653,0.0886 -0.0846,0.0211 -0.196,0.0262 -0.3342,0.0152 -0.1556,-0.0128 -0.3484,-0.0472 -0.5798,-0.1055 -0.1261,-0.0318 -0.2657,-0.0714 -0.419,-0.118901 -0.0765,-0.0237 -0.15671,-0.0496 -0.24061,-0.0776 -0.0835,-0.0279 -0.171,-0.0581 -0.2624,-0.0905 -0.1957,-0.0694 -0.4094,-0.1494 -0.6401,-0.2399 -0.1151,-0.0452 -0.2351,-0.0932 -0.3599,-0.144201 -0.1276,-0.0521 -0.2496,-0.1027 -0.3876,-0.161001 -0.1427,-0.0602 -0.3016,-0.1284 -0.4564,-0.1959 -0.1573,-0.0686 -0.3206,-0.140901 -0.49001,-0.216801 -0.3381,-0.151501 -0.6993,-0.317301 -1.0836,-0.497402"
         id="path1762"
         style="fill:none;stroke:#000000;stroke-width:0.700003;stroke-linecap:butt;stroke-linejoin:miter" />
      <path
         d="m 125.91993,90.680281 c -0.3828,0.179401 -0.7429,0.344601 -1.0801,0.495802 -0.1689,0.0758 -0.33191,0.1479 -0.48881,0.216301 -0.1545,0.0675 -0.3132,0.1356 -0.4557,0.1958 -0.1377,0.0582 -0.2595,0.108801 -0.3868,0.160901 -0.1247,0.051 -0.2446,0.0991 -0.3595,0.144201 -0.2306,0.0906 -0.4439,0.1708 -0.6398,0.2405 -0.1831,0.0652 -0.3502,0.121201 -0.50411,0.169201 -0.1536,0.0479 -0.2937,0.088 -0.4203,0.120101 -0.2325,0.0592 -0.4263,0.0945 -0.5831,0.1083 -0.1393,0.0118 -0.2518,0.0075 -0.3376,-0.0129 -0.0743,-0.0177 -0.1305,-0.0466 -0.1685,-0.0867 -0.0309,-0.0328 -0.0513,-0.0738 -0.0611,-0.122901 -0.004,-0.0192 -0.006,-0.0407 -0.007,-0.0646 -6e-4,-0.0139 -3e-4,-0.0344 9e-4,-0.0615"
         id="path1768"
         style="fill:none;stroke:#000000;stroke-width:0.700003;stroke-linecap:butt;stroke-linejoin:miter" />
    </g>
  </g>
</svg>
