<?xml version="1.0" encoding="UTF-8" standalone="no"?>
<svg
   id="svg2"
   version="1.1"
   viewBox="0 0 300.00001 300.00001"
   height="300mm"
   width="300mm"
   sodipodi:docname="thumbnail.svg"
   inkscape:version="1.2.1 (9c6d41e410, 2022-07-14)"
   xmlns:inkscape="http://www.inkscape.org/namespaces/inkscape"
   xmlns:sodipodi="http://sodipodi.sourceforge.net/DTD/sodipodi-0.dtd"
   xmlns:xlink="http://www.w3.org/1999/xlink"
   xmlns="http://www.w3.org/2000/svg"
   xmlns:svg="http://www.w3.org/2000/svg"
   xmlns:rdf="http://www.w3.org/1999/02/22-rdf-syntax-ns#"
   xmlns:cc="http://creativecommons.org/ns#"
   xmlns:dc="http://purl.org/dc/elements/1.1/">
  <sodipodi:namedview
     id="namedview343"
     pagecolor="#ffffff"
     bordercolor="#000000"
     borderopacity="0.25"
     inkscape:showpageshadow="2"
     inkscape:pageopacity="0.0"
     inkscape:pagecheckerboard="0"
     inkscape:deskcolor="#d1d1d1"
     inkscape:document-units="mm"
     showgrid="false"
     inkscape:zoom="0.40801066"
     inkscape:cx="85.782072"
     inkscape:cy="486.5069"
     inkscape:window-width="2400"
     inkscape:window-height="1471"
     inkscape:window-x="2391"
     inkscape:window-y="-9"
     inkscape:window-maximized="1"
     inkscape:current-layer="svg2" />
  <!-- Working space 10 10 410 287 -->
  <!-- Title block 220 227 410 287 -->
  <circle
     style="fill:#ff0000;fill-opacity:0;stroke:#ff0000;stroke-width:0.994031;stroke-linejoin:bevel;stroke-opacity:0"
     id="path9909"
     cx="150"
     cy="150"
     r="149.50299"
     inkscape:label="circle" />
  <metadata
     id="metadata849">
    <rdf:RDF>
      <cc:Work
         rdf:about="">
        <dc:format>image/svg+xml</dc:format>
        <dc:type
           rdf:resource="http://purl.org/dc/dcmitype/StillImage" />
      </cc:Work>
    </rdf:RDF>
  </metadata>
  <defs
     id="defs847">
    <linearGradient
       gradientUnits="userSpaceOnUse"
       id="defitem29"
       y2="485.909"
       x2="655.35199"
       y1="807.466"
       x1="649.42902">
      <stop
         id="stop92"
         offset="0.0000000"
         style="stop-color:#ffffff;stop-opacity:1.0000000;" />
      <stop
         id="stop93"
         offset="1.0000000"
         style="stop-color:#ffffff;stop-opacity:0.13756600;" />
    </linearGradient>
    <linearGradient
       xlink:href="#defitem29"
       id="linearGradient3448"
       gradientUnits="userSpaceOnUse"
       x1="649.42902"
       y1="807.466"
       x2="655.35199"
       y2="485.909" />
    <radialGradient
       gradientUnits="userSpaceOnUse"
       id="defitem28"
       fy="345.56"
       fx="1049.72"
       r="1202.15"
       cy="345.56"
       cx="1049.72">
      <stop
         id="stop89"
         offset="0.0000000"
         style="stop-color:#ffffff;stop-opacity:1.0000000;" />
      <stop
         id="stop90"
         offset="1.0000000"
         style="stop-color:#a8a8a8;stop-opacity:1.0000000;" />
    </radialGradient>
    <radialGradient
       xlink:href="#defitem28"
       id="radialGradient3446"
       gradientUnits="userSpaceOnUse"
       cx="1092.7045"
       cy="64.845284"
       fx="1089.4004"
       fy="64.844765"
       r="1202.15" />
    <linearGradient
       gradientUnits="userSpaceOnUse"
       id="defitem30"
       y2="636.70697"
       x2="980"
       y1="636.70697"
       x1="287.5">
      <stop
         id="stop95"
         offset="0.0000000"
         style="stop-color:#464646;stop-opacity:1.0000000;" />
      <stop
         id="stop96"
         offset="1.0000000"
         style="stop-color:#c2c2c2;stop-opacity:1.0000000;" />
    </linearGradient>
    <linearGradient
       xlink:href="#defitem30"
       id="linearGradient3444"
       gradientUnits="userSpaceOnUse"
       gradientTransform="matrix(1,0,0,1.016038,0,-11.73855)"
       x1="287.5"
       y1="636.70697"
       x2="980"
       y2="636.70697" />
    <linearGradient
       gradientUnits="userSpaceOnUse"
       id="defitem27"
       y2="317.44699"
       x2="985.98199"
       y1="403.18799"
       x1="921.091">
      <stop
         id="stop86"
         offset="0.0000000"
         style="stop-color:#7e7e7e;stop-opacity:1.0000000;" />
      <stop
         id="stop87"
         offset="1.0000000"
         style="stop-color:#e5e5e5;stop-opacity:1.0000000;" />
    </linearGradient>
    <linearGradient
       xlink:href="#defitem27"
       id="linearGradient3442"
       gradientUnits="userSpaceOnUse"
       x1="921.091"
       y1="403.18799"
       x2="985.98199"
       y2="317.44699" />
    <linearGradient
       gradientUnits="userSpaceOnUse"
       id="defitem26"
       y2="360.27499"
       x2="293.37"
       y1="346.30399"
       x1="530.76099">
      <stop
         id="stop83"
         offset="0.0000000"
         style="stop-color:#5f5f5f;stop-opacity:1.0000000;" />
      <stop
         id="stop84"
         offset="1.0000000"
         style="stop-color:#e5e5e5;stop-opacity:1.0000000;" />
    </linearGradient>
    <linearGradient
       xlink:href="#defitem26"
       id="linearGradient3440"
       gradientUnits="userSpaceOnUse"
       x1="530.76099"
       y1="346.30399"
       x2="293.37"
       y2="360.27499" />
    <linearGradient
       gradientUnits="userSpaceOnUse"
       id="defitem25"
       y2="337.60999"
       x2="308.75"
       y1="412.91901"
       x1="164.013">
      <stop
         id="stop80"
         offset="0.0000000"
         style="stop-color:#ffffff;stop-opacity:1.0000000;" />
      <stop
         id="stop81"
         offset="1.0000000"
         style="stop-color:#bfbfbf;stop-opacity:1.0000000;" />
    </linearGradient>
    <linearGradient
       xlink:href="#defitem25"
       id="linearGradient3438"
       gradientUnits="userSpaceOnUse"
       x1="164.013"
       y1="412.91901"
       x2="308.75"
       y2="337.60999" />
    <linearGradient
       gradientUnits="userSpaceOnUse"
       id="defitem24"
       y2="380.47198"
       x2="992.48901"
       y1="270.854"
       x1="1094.25">
      <stop
         id="stop77"
         offset="0.0000000"
         style="stop-color:#6a6a6a;stop-opacity:1.0000000;" />
      <stop
         id="stop78"
         offset="1.0000000"
         style="stop-color:#e6e6e6;stop-opacity:1.0000000;" />
    </linearGradient>
    <linearGradient
       xlink:href="#defitem24"
       id="linearGradient3436"
       gradientUnits="userSpaceOnUse"
       x1="1094.25"
       y1="270.854"
       x2="992.48901"
       y2="380.47198" />
    <linearGradient
       gradientUnits="userSpaceOnUse"
       id="defitem23"
       y2="549.37799"
       x2="1049.84"
       y1="476.465"
       x1="1170.91">
      <stop
         id="stop74"
         offset="0.0000000"
         style="stop-color:#5f5f5f;stop-opacity:1.0000000;" />
      <stop
         id="stop75"
         offset="1.0000000"
         style="stop-color:#ebebeb;stop-opacity:1.0000000;" />
    </linearGradient>
    <linearGradient
       xlink:href="#defitem23"
       id="linearGradient3434"
       gradientUnits="userSpaceOnUse"
       x1="1170.91"
       y1="476.465"
       x2="1049.84"
       y2="549.37799" />
    <linearGradient
       gradientUnits="userSpaceOnUse"
       id="defitem22"
       y2="313.276"
       x2="576.14899"
       y1="105.486"
       x1="783.716">
      <stop
         id="stop71"
         offset="0.0000000"
         style="stop-color:#5a5a5a;stop-opacity:1.0000000;" />
      <stop
         id="stop72"
         offset="1.0000000"
         style="stop-color:#c7c7c7;stop-opacity:1.0000000;" />
    </linearGradient>
    <linearGradient
       xlink:href="#defitem22"
       id="linearGradient3432"
       gradientUnits="userSpaceOnUse"
       x1="783.716"
       y1="105.486"
       x2="576.14899"
       y2="313.276" />
    <linearGradient
       gradientUnits="userSpaceOnUse"
       id="defitem21"
       y2="484.716"
       x2="128.05499"
       y1="418.698"
       x1="280.04401">
      <stop
         id="stop68"
         offset="0.0000000"
         style="stop-color:#666666;stop-opacity:1.0000000;" />
      <stop
         id="stop69"
         offset="1.0000000"
         style="stop-color:#d8d8d8;stop-opacity:1.0000000;" />
    </linearGradient>
    <linearGradient
       xlink:href="#defitem21"
       id="linearGradient3430"
       gradientUnits="userSpaceOnUse"
       x1="280.04401"
       y1="418.698"
       x2="128.05499"
       y2="484.716" />
    <linearGradient
       gradientUnits="userSpaceOnUse"
       id="defitem20"
       y2="584.40997"
       x2="220"
       y1="636.95398"
       x1="129.687">
      <stop
         id="stop65"
         offset="0.0000000"
         style="stop-color:#ffffff;stop-opacity:1.0000000;" />
      <stop
         id="stop66"
         offset="1.0000000"
         style="stop-color:#bbbbbb;stop-opacity:1.0000000;" />
    </linearGradient>
    <linearGradient
       xlink:href="#defitem20"
       id="linearGradient3428"
       gradientUnits="userSpaceOnUse"
       x1="129.687"
       y1="636.95398"
       x2="220"
       y2="584.40997" />
    <linearGradient
       gradientUnits="userSpaceOnUse"
       id="defitem19"
       y2="583.75299"
       x2="1127.98"
       y1="629.02802"
       x1="1048.72">
      <stop
         id="stop62"
         offset="0.0000000"
         style="stop-color:#5e5e5e;stop-opacity:1.0000000;" />
      <stop
         id="stop63"
         offset="1.0000000"
         style="stop-color:#ededed;stop-opacity:1.0000000;" />
    </linearGradient>
    <linearGradient
       xlink:href="#defitem19"
       id="linearGradient3426"
       gradientUnits="userSpaceOnUse"
       x1="1048.72"
       y1="629.02802"
       x2="1127.98"
       y2="583.75299" />
    <linearGradient
       gradientUnits="userSpaceOnUse"
       id="defitem18"
       y2="291.97699"
       x2="581.32397"
       y1="387.27301"
       x1="370.022">
      <stop
         id="stop59"
         offset="0.0000000"
         style="stop-color:#636363;stop-opacity:1.0000000;" />
      <stop
         id="stop60"
         offset="1.0000000"
         style="stop-color:#d6d6d6;stop-opacity:1.0000000;" />
    </linearGradient>
    <linearGradient
       xlink:href="#defitem18"
       id="linearGradient3424"
       gradientUnits="userSpaceOnUse"
       x1="370.022"
       y1="387.27301"
       x2="581.32397"
       y2="291.97699" />
    <linearGradient
       gradientUnits="userSpaceOnUse"
       id="defitem17"
       y2="351.939"
       x2="909.59399"
       y1="351.939"
       x1="732.15601">
      <stop
         id="stop56"
         offset="0.0000000"
         style="stop-color:#676767;stop-opacity:1.0000000;" />
      <stop
         id="stop57"
         offset="1.0000000"
         style="stop-color:#d3d3d3;stop-opacity:1.0000000;" />
    </linearGradient>
    <linearGradient
       xlink:href="#defitem17"
       id="linearGradient3422"
       gradientUnits="userSpaceOnUse"
       x1="732.15601"
       y1="351.939"
       x2="909.59399"
       y2="351.939" />
    <linearGradient
       gradientUnits="userSpaceOnUse"
       id="defitem16"
       y2="494.71301"
       x2="1073.01"
       y1="494.71301"
       x1="1014.43">
      <stop
         id="stop53"
         offset="0.0000000"
         style="stop-color:#666666;stop-opacity:1.0000000;" />
      <stop
         id="stop54"
         offset="1.0000000"
         style="stop-color:#dcdcdc;stop-opacity:1.0000000;" />
    </linearGradient>
    <linearGradient
       xlink:href="#defitem16"
       id="linearGradient3420"
       gradientUnits="userSpaceOnUse"
       x1="1014.43"
       y1="494.71301"
       x2="1073.01"
       y2="494.71301" />
    <linearGradient
       gradientUnits="userSpaceOnUse"
       id="defitem15"
       y2="516.37"
       x2="193.27699"
       y1="452.388"
       x1="272.59201">
      <stop
         id="stop50"
         offset="0.0000000"
         style="stop-color:#6e6e6e;stop-opacity:1.0000000;" />
      <stop
         id="stop51"
         offset="1.0000000"
         style="stop-color:#d8d8d8;stop-opacity:1.0000000;" />
    </linearGradient>
    <linearGradient
       xlink:href="#defitem15"
       id="linearGradient3418"
       gradientUnits="userSpaceOnUse"
       x1="272.59201"
       y1="452.388"
       x2="193.27699"
       y2="516.37" />
    <radialGradient
       gradientUnits="userSpaceOnUse"
       id="defitem14"
       fy="211.088"
       fx="1037.22"
       r="1164.28"
       cy="211.088"
       cx="1037.22">
      <stop
         id="stop47"
         offset="0.0000000"
         style="stop-color:#ffffff;stop-opacity:1.0000000;" />
      <stop
         id="stop48"
         offset="1.0000000"
         style="stop-color:#aaaaaa;stop-opacity:1.0000000;" />
    </radialGradient>
    <radialGradient
       xlink:href="#defitem14"
       id="radialGradient3416"
       gradientUnits="userSpaceOnUse"
       cx="1037.22"
       cy="211.088"
       fx="1037.22"
       fy="211.088"
       r="1164.28" />
    <linearGradient
       gradientUnits="userSpaceOnUse"
       id="defitem13"
       y2="686.83002"
       x2="379.241"
       y1="732.12903"
       x1="342.64999">
      <stop
         id="stop44"
         offset="0.0000000"
         style="stop-color:#ffffff;stop-opacity:1.0000000;" />
      <stop
         id="stop45"
         offset="1.0000000"
         style="stop-color:#989898;stop-opacity:1.0000000;" />
    </linearGradient>
    <linearGradient
       xlink:href="#defitem13"
       id="linearGradient3414"
       gradientUnits="userSpaceOnUse"
       x1="342.64999"
       y1="732.12903"
       x2="379.241"
       y2="686.83002" />
    <radialGradient
       gradientUnits="userSpaceOnUse"
       id="defitem12"
       fy="484.409"
       fx="632.78101"
       r="540.27899"
       cy="484.409"
       cx="632.78101">
      <stop
         id="stop41"
         offset="0.0000000"
         style="stop-color:#ffffff;stop-opacity:1.0000000;" />
      <stop
         id="stop42"
         offset="1.0000000"
         style="stop-color:#ededed;stop-opacity:1.0000000;" />
    </radialGradient>
    <radialGradient
       xlink:href="#defitem12"
       id="radialGradient3412"
       gradientUnits="userSpaceOnUse"
       cx="632.78101"
       cy="484.409"
       fx="632.78101"
       fy="484.409"
       r="540.27899" />
    <radialGradient
       xlink:href="#linearGradient3682"
       id="radialGradient3817"
       gradientUnits="userSpaceOnUse"
       gradientTransform="matrix(1.1149219,0.2722306,-0.7507171,3.0745639,-471.08629,-148.32863)"
       cx="270.58316"
       cy="33.899986"
       fx="270.58316"
       fy="33.899986"
       r="19.571428" />
    <linearGradient
       id="linearGradient3682">
      <stop
         style="stop-color:#ff6d0f;stop-opacity:1;"
         offset="0"
         id="stop3684" />
      <stop
         style="stop-color:#ff1000;stop-opacity:1;"
         offset="1"
         id="stop3686" />
    </linearGradient>
    <radialGradient
       xlink:href="#linearGradient3864"
       id="radialGradient3661"
       gradientUnits="userSpaceOnUse"
       gradientTransform="matrix(0.6186598,0.9666542,-1.0332462,0.6612786,-327.27568,-255.84136)"
       cx="282.64584"
       cy="29.149046"
       fx="282.64584"
       fy="29.149046"
       r="19.571428" />
    <linearGradient
       id="linearGradient3864">
      <stop
         id="stop3866"
         offset="0"
         style="stop-color:#71b2f8;stop-opacity:1;" />
      <stop
         id="stop3868"
         offset="1"
         style="stop-color:#002795;stop-opacity:1;" />
    </linearGradient>
  </defs>
  <path
     style="color:#000000;fill:#c8c8c8;fill-opacity:1;stroke:#000000;stroke-opacity:1;-inkscape-stroke:none"
     d="m 40.826413,62.284268 -3,0.0039 v 0.0059 c -0.002,-3.7e-5 -0.002,-0.002 -0.004,-0.002 v -0.0039 c -0.002,7.3e-5 -0.002,0.0018 -0.004,0.002 -0.0903,0.0056 -0.13554,0.06425 -0.1543,0.09375 -0.0192,0.03021 -0.0274,0.05185 -0.0352,0.07617 -0.0156,0.04865 -0.0263,0.102113 -0.0371,0.169921 -0.0216,0.135618 -0.0419,0.325737 -0.0605,0.56836 -0.0372,0.485245 -0.07,1.180765 -0.0977,2.044922 -0.0554,1.728313 -0.0879,4.124 -0.0879,6.800781 v 7.626953 h -3.03125 v 0.173828 l -0.17383,-0.0039 -0.0742,3.138672 0.17578,0.0039 h -0.17578 V 224.57919 h 0.17578 l -0.17578,0.004 0.0742,3.13672 0.17383,-0.004 v 0.17578 H 265.68555 v -0.17578 l 0.17383,0.004 0.0742,-3.13672 -0.17578,-0.004 h 0.17578 V 82.983487 h -0.17578 l 0.17578,-0.0039 -0.0742,-3.138672 -0.17383,0.0039 V 79.670987 H 41.625243 v -6.412109 c 1e-5,-2.761923 -0.0375,-5.308419 -0.0957,-7.195313 -0.0291,-0.943447 -0.0629,-1.721808 -0.10156,-2.28125 -0.0193,-0.279721 -0.0388,-0.505469 -0.0605,-0.671875 -0.0109,-0.0832 -0.0224,-0.15031 -0.0351,-0.207031 -0.0126,-0.05591 -0.0131,-0.09497 -0.0645,-0.162109 l -0.002,-0.002 -0.28711,-0.376953 c -0.0208,-0.02725 -0.0667,-0.07461 -0.14453,-0.07813 l -0.008,0.175782 z"
     id="path312-7" />
  <g
     id="g6000"
     transform="translate(-40.65064,29.6842)"
     style="fill:#c8c8c8;fill-opacity:1">
    <path
       style="color:#000000;fill:#c8c8c8;fill-opacity:1;stroke:#000000;stroke-opacity:1;-inkscape-stroke:none"
       d="m 50.780445,75.534804 v 0.17383 h -0.17382 v 94.999996 h 0.17382 v 0.17578 h 0.0156 0.0391 0.0684 0.0957 0.1211 0.14843 0.17383 0.20313 0.23047 0.25586 0.28515 0.31055 0.33594 0.36523 40.36133 11.867195 12.75976 13.51562 14.13281 14.59961 14.91406 15.07031 15.07227 14.91406 14.59961 14.13281 13.51563 12.75976 11.86719 40.36133 0.36328 0.33789 0.31055 0.28516 0.25585 0.22852 0.20313 0.17578 0.14843 0.1211 0.0957 0.0684 0.0391 0.0137 v -0.17578 h 0.17579 V 75.708634 h -0.17579 v -0.17383 h -0.0137 -0.0391 -0.0684 -0.0957 -0.1211 -0.14843 -0.17578 -0.20313 -0.22852 -0.25585 -0.28516 -0.31055 -0.33789 -0.36328 -40.36133 -11.86719 -12.75976 -13.51563 -14.13281 -14.59961 -14.91406 -15.07227 -15.07031 -14.91406 -14.59961 -14.13281 -13.51563 -12.75976 -11.867185 -40.36133 -0.36523 -0.33594 -0.31055 -0.28515 -0.25586 -0.23047 -0.20313 -0.17383 -0.14843 -0.1211 -0.0957 -0.0684 -0.0391 z"
       id="32-1" />
    <g
       id="g5971"
       style="fill:#c8c8c8;fill-opacity:1;stroke:#000000;stroke-width:1;stroke-dasharray:none;stroke-opacity:1">
      <g
         id="g5495"
         style="fill:#c8c8c8;fill-opacity:1;stroke:#000000;stroke-width:1;stroke-dasharray:none;stroke-opacity:1">
        <path
           id="3"
           d="m 93.79035,148.20961 h 193.7206"
           style="fill:#c8c8c8;fill-opacity:1;stroke:#000000;stroke-width:1;stroke-linecap:butt;stroke-linejoin:miter;stroke-dasharray:none;stroke-opacity:1" />
        <path
           d="m 326.01465,85.38221 q 0.227,-2.351 0.462,-4.1452 0.236,-1.7997 0.475,-3.039 0.241,-1.2415 0.471,-1.8626 0.231,-0.6237 0.449,-0.6258"
           id="path1240"
           style="fill:#c8c8c8;fill-opacity:1;stroke:#000000;stroke-width:1;stroke-linecap:butt;stroke-linejoin:miter;stroke-dasharray:none;stroke-opacity:1" />
        <path
           id="path1242"
           d="M 326.01465,161.03701 V 85.38221"
           style="fill:#c8c8c8;fill-opacity:1;stroke:#000000;stroke-width:1;stroke-linecap:butt;stroke-linejoin:miter;stroke-dasharray:none;stroke-opacity:1" />
        <path
           d="m 327.87165,170.70961 c -0.291,-0.003 -0.599,-0.8345 -0.918,-2.4781 -0.159,-0.8253 -0.32,-1.8485 -0.476,-3.0454 -0.157,-1.1979 -0.312,-2.581 -0.463,-4.1491"
           id="path1244"
           style="fill:#c8c8c8;fill-opacity:1;stroke:#000000;stroke-width:1;stroke-linecap:butt;stroke-linejoin:miter;stroke-dasharray:none;stroke-opacity:1" />
        <path
           d="m 304.35765,115.27935 0.592,-2.50804 0.752,-2.4778 0.91,-2.4403 1.066,-2.3959 1.219,-2.3445 1.368,-2.2863 1.513,-2.2215 1.653,-2.1502 1.79,-2.0727 1.92,-1.9892 2.046,-1.8999 2.165,-1.8052 2.278,-1.7053 2.385,-1.6003"
           id="path1248"
           style="fill:#c8c8c8;fill-opacity:1;stroke:#000000;stroke-width:1;stroke-linecap:butt;stroke-linejoin:miter;stroke-dasharray:none;stroke-opacity:1" />
        <path
           id="7"
           d="M 304.35765,131.13987 V 115.27935"
           style="fill:#c8c8c8;fill-opacity:1;stroke:#000000;stroke-width:1;stroke-linecap:butt;stroke-linejoin:miter;stroke-dasharray:none;stroke-opacity:1" />
        <path
           d="m 326.01465,161.03701 -2.385,-1.6003 -2.278,-1.7053 -2.165,-1.8052 -2.046,-1.8999 -1.92,-1.9892 -1.79,-2.0727 -1.653,-2.1502 -1.513,-2.2215 -1.368,-2.2863 -1.219,-2.3445 -1.066,-2.3959 -0.91,-2.4403 -0.752,-2.4778 -0.592,-2.50804"
           id="path1251"
           style="fill:#c8c8c8;fill-opacity:1;stroke:#000000;stroke-width:1;stroke-linecap:butt;stroke-linejoin:miter;stroke-dasharray:none;stroke-opacity:1" />
        <path
           d="m 287.51095,121.72265 0.4385,-0.46258 0.5564,-0.4624 0.6744,-0.46216 0.7924,-0.46189 0.91,-0.46157 1.028,-0.46122 1.145,-0.46081 1.263,-0.46036 1.381,-0.45987 1.498,-0.45933 1.614,-0.45875 1.732,-0.45814 1.849,-0.45746 1.965,-0.45676"
           id="path1253"
           style="fill:#c8c8c8;fill-opacity:1;stroke:#000000;stroke-width:1;stroke-linecap:butt;stroke-linejoin:miter;stroke-dasharray:none;stroke-opacity:1" />
        <path
           id="10"
           d="m 287.51095,124.69657 v -2.97392"
           style="fill:#c8c8c8;fill-opacity:1;stroke:#000000;stroke-width:1;stroke-linecap:butt;stroke-linejoin:miter;stroke-dasharray:none;stroke-opacity:1" />
        <path
           d="m 304.35765,131.13987 -1.965,-0.45676 -1.849,-0.45746 -1.732,-0.45814 -1.614,-0.45875 -1.498,-0.45933 -1.381,-0.45987 -1.263,-0.46036 -1.145,-0.46081 -1.028,-0.46122 -0.91,-0.46157 -0.7924,-0.46189 -0.6744,-0.46216 -0.5564,-0.4624 -0.4385,-0.46258"
           id="path1256"
           style="fill:#c8c8c8;fill-opacity:1;stroke:#000000;stroke-width:1;stroke-linecap:butt;stroke-linejoin:miter;stroke-dasharray:none;stroke-opacity:1" />
        <path
           d="m 287.51095,124.69657 v 5.20121 5.12043 4.9777 4.775 4.5146 4.1995 3.8338 3.4218 2.9685 2.4792 1.96 1.4172 0.8572 0.2869"
           id="path1258"
           style="fill:#c8c8c8;fill-opacity:1;stroke:#000000;stroke-width:1;stroke-linecap:butt;stroke-linejoin:miter;stroke-dasharray:none;stroke-opacity:1" />
        <path
           d="m 287.51095,75.70961 v 0.2869 0.8572 1.4172 1.96 2.4792 2.9685 3.4218 3.8338 4.1995 4.5146 4.775 4.9777 5.12043 5.20121"
           id="path1260"
           style="fill:#c8c8c8;fill-opacity:1;stroke:#000000;stroke-width:1;stroke-linecap:butt;stroke-linejoin:miter;stroke-dasharray:none;stroke-opacity:1" />
        <path
           id="16"
           d="m 93.79035,124.69657 v -2.97392"
           style="fill:#c8c8c8;fill-opacity:1;stroke:#000000;stroke-width:1;stroke-linecap:butt;stroke-linejoin:miter;stroke-dasharray:none;stroke-opacity:1" />
        <path
           d="m 76.94365,115.27935 1.965,0.45676 1.849,0.45746 1.732,0.45814 1.614,0.45875 1.498,0.45933 1.381,0.45987 1.263,0.46036 1.145,0.46081 1.028,0.46122 0.91,0.46157 0.7924,0.46189 0.6744,0.46216 0.5564,0.4624 0.4385,0.46258"
           id="path1267"
           style="fill:#c8c8c8;fill-opacity:1;stroke:#000000;stroke-width:1;stroke-linecap:butt;stroke-linejoin:miter;stroke-dasharray:none;stroke-opacity:1" />
        <path
           id="18"
           d="M 76.94365,131.13987 V 115.27935"
           style="fill:#c8c8c8;fill-opacity:1;stroke:#000000;stroke-width:1;stroke-linecap:butt;stroke-linejoin:miter;stroke-dasharray:none;stroke-opacity:1" />
        <path
           d="m 93.79035,124.69657 -0.4385,0.46258 -0.5564,0.4624 -0.6744,0.46216 -0.7924,0.46189 -0.91,0.46157 -1.028,0.46122 -1.145,0.46081 -1.263,0.46036 -1.381,0.45987 -1.498,0.45933 -1.614,0.45875 -1.732,0.45814 -1.849,0.45746 -1.965,0.45676"
           id="path1270"
           style="fill:#c8c8c8;fill-opacity:1;stroke:#000000;stroke-width:1;stroke-linecap:butt;stroke-linejoin:miter;stroke-dasharray:none;stroke-opacity:1" />
        <path
           d="m 55.28665,85.38221 2.385,1.6003 2.278,1.7053 2.165,1.8052 2.046,1.8999 1.92,1.9892 1.79,2.0727 1.653,2.1502 1.513,2.2215 1.368,2.2863 1.219,2.3445 1.066,2.3959 0.91,2.4403 0.752,2.4778 0.592,2.50804"
           id="path1272"
           style="fill:#c8c8c8;fill-opacity:1;stroke:#000000;stroke-width:1;stroke-linecap:butt;stroke-linejoin:miter;stroke-dasharray:none;stroke-opacity:1" />
        <path
           id="21"
           d="M 55.28665,161.03701 V 85.38221"
           style="fill:#c8c8c8;fill-opacity:1;stroke:#000000;stroke-width:1;stroke-linecap:butt;stroke-linejoin:miter;stroke-dasharray:none;stroke-opacity:1" />
        <path
           d="m 76.94365,131.13987 -0.592,2.50804 -0.752,2.4778 -0.91,2.4403 -1.066,2.3959 -1.219,2.3445 -1.368,2.2863 -1.513,2.2215 -1.653,2.1502 -1.79,2.0727 -1.92,1.9892 -2.046,1.8999 -2.165,1.8052 -2.278,1.7053 -2.385,1.6003"
           id="path1275"
           style="fill:#c8c8c8;fill-opacity:1;stroke:#000000;stroke-width:1;stroke-linecap:butt;stroke-linejoin:miter;stroke-dasharray:none;stroke-opacity:1" />
        <path
           d="m 93.79035,121.72265 v -5.20121 -5.12043 -4.9777 -4.775 -4.5146 -4.1995 -3.8338 -3.4218 -2.9685 -2.4792 -1.96 -1.4172 -0.8572 -0.2869"
           id="path1277"
           style="fill:#c8c8c8;fill-opacity:1;stroke:#000000;stroke-width:1;stroke-linecap:butt;stroke-linejoin:miter;stroke-dasharray:none;stroke-opacity:1" />
        <path
           d="m 93.79035,170.70961 v -0.2869 -0.8572 -1.4172 -1.96 -2.4792 -2.9685 -3.4218 -3.8338 -4.1995 -4.5146 -4.775 -4.9777 -5.12043 -5.20121"
           id="path1279"
           style="fill:#c8c8c8;fill-opacity:1;stroke:#000000;stroke-width:1;stroke-linecap:butt;stroke-linejoin:miter;stroke-dasharray:none;stroke-opacity:1" />
        <path
           d="m 55.28665,85.38221 q -0.227,-2.351 -0.462,-4.1452 -0.236,-1.7997 -0.475,-3.039 -0.241,-1.2415 -0.471,-1.8626 -0.231,-0.6237 -0.449,-0.6258"
           id="path1281"
           style="fill:#c8c8c8;fill-opacity:1;stroke:#000000;stroke-width:1;stroke-linecap:butt;stroke-linejoin:miter;stroke-dasharray:none;stroke-opacity:1" />
        <path
           d="m 53.42965,170.70961 c 0.291,-0.003 0.599,-0.8345 0.918,-2.4781 0.159,-0.8253 0.32,-1.8485 0.476,-3.0454 0.157,-1.1979 0.312,-2.581 0.463,-4.1491"
           id="path1287"
           style="fill:#c8c8c8;fill-opacity:1;stroke:#000000;stroke-width:1;stroke-linecap:butt;stroke-linejoin:miter;stroke-dasharray:none;stroke-opacity:1" />
        <path
           d="m 93.79035,98.20961 h 193.7206"
           id="path1293"
           style="fill:#c8c8c8;fill-opacity:1;stroke:#000000;stroke-width:1;stroke-linecap:butt;stroke-linejoin:miter;stroke-dasharray:none;stroke-opacity:1" />
      </g>
    </g>
  </g>
  <path
     style="color:#000000;fill:#c8c8c8;fill-opacity:1;stroke:#000000;stroke-opacity:1"
     d="m 79.856503,53.433133 v 0.17578 l -0.1211,-0.12695 -18.9414,17.97656 0.11914,0.125 -0.17383,-0.008 -1.59375,30.388677 -1.94336,0.17969 0.006,0.0586 -0.0742,-0.004 -0.52344,9.98829 -0.78515,15.01171 0.17578,0.01 h -0.17578 v 30.5 5.31837 5.25196 5.11914 4.91992 4.66211 4.34375 3.97265 3.54883 3.08399 2.57617 2.03906 1.47266 0.89258 0.29882 h 0.17383 l -0.01,0.17383 3.08789,0.16406 0.7832,48.86524 0.17383,-0.002 v 0.17382 h 2.25586 6.6543 10.7168 14.24609 17.058597 19.01368 20.01953 20.01952 19.01562 17.05664 14.2461 10.71875 6.65234 2.25586 v -0.17578 l 0.17578,0.004 0.78125,-48.86524 3.08789,-0.16406 -0.01,-0.17383 h 0.17578 v -0.29882 -0.89258 -1.47266 -2.03906 -2.57617 -3.08399 -3.54883 -3.97265 -4.34375 -4.66211 -4.91992 -5.11914 -5.25196 -5.31837 -30.5 h -0.17383 l 0.17383,-0.01 -0.78711,-15.01171 -0.52344,-9.98829 -0.0566,0.004 0.008,-0.0742 -1.96679,-0.22851 -1.58985,-30.324227 -0.17383,0.008 0.11914,-0.125 -18.9414,-17.97657 -0.1211,0.12891 v -0.17773 h -1.75781 -5.1875 -8.35742 -11.10547 -13.30078 -14.82422 -15.60936 -15.60743 -14.82617 -13.29884 -11.107417 -8.35547 -5.18945 z"
     id="33-3" />
  <rect
     style="fill:#00ff00;fill-opacity:0;stroke:#00ff00;stroke-width:1;stroke-linejoin:bevel;stroke-opacity:0"
     id="rect9595"
     width="127.47375"
     height="27.97086"
     x="86.263138"
     y="66.071022"
     inkscape:label="pigtail" />
</svg>
