<?xml version="1.0" encoding="UTF-8" standalone="no"?>
<svg
   id="svg2"
   version="1.1"
   viewBox="0 0 470.88934 322.29987"
   height="322.29987mm"
   width="470.88934mm"
   sodipodi:docname="thumbnail.svg"
   inkscape:version="1.2.1 (9c6d41e410, 2022-07-14)"
   xmlns:inkscape="http://www.inkscape.org/namespaces/inkscape"
   xmlns:sodipodi="http://sodipodi.sourceforge.net/DTD/sodipodi-0.dtd"
   xmlns:xlink="http://www.w3.org/1999/xlink"
   xmlns="http://www.w3.org/2000/svg"
   xmlns:svg="http://www.w3.org/2000/svg"
   xmlns:rdf="http://www.w3.org/1999/02/22-rdf-syntax-ns#"
   xmlns:cc="http://creativecommons.org/ns#"
   xmlns:dc="http://purl.org/dc/elements/1.1/">
  <sodipodi:namedview
     id="namedview367"
     pagecolor="#ffffff"
     bordercolor="#000000"
     borderopacity="0.25"
     inkscape:showpageshadow="2"
     inkscape:pageopacity="0.0"
     inkscape:pagecheckerboard="0"
     inkscape:deskcolor="#d1d1d1"
     inkscape:document-units="mm"
     showgrid="false"
     inkscape:zoom="0.52032068"
     inkscape:cx="1033.0168"
     inkscape:cy="859.0856"
     inkscape:window-width="2400"
     inkscape:window-height="1434"
     inkscape:window-x="2391"
     inkscape:window-y="-9"
     inkscape:window-maximized="1"
     inkscape:current-layer="svg2" />
  <!-- Working space 10 10 410 287 -->
  <!-- Title block 220 227 410 287 -->
  <path
     id="path1678"
     style="color:#000000;fill:#c8c8c8;fill-opacity:1;stroke:#000000;stroke-width:1;stroke-dasharray:none;stroke-opacity:1"
     d="M 35.096971,0.5 C 20.284611,27.918428 9.251311,57.212499 2.281449,87.586033 h 8.171067 v 0.371036 l 0.250114,0.05788 C 5.032559,112.23442 2.047499,137.08315 1.827732,161.95657 1.607962,186.23132 4.019721,210.53034 9.00351,234.289 l -0.250114,0.0538 v 0.36794 H 0.61333696 C 6.838669,264.97036 17.081412,294.26024 31.081718,321.79988 H 439.80762 c 14.0003,-27.53962 24.24305,-56.82952 30.46838,-87.08915 h -8.14005 v -0.37104 l -0.24598,-0.0516 c 5.10663,-24.34456 7.50961,-49.25685 7.15199,-74.1287 -0.3436,-24.27326 -3.31792,-48.50773 -8.85111,-72.144321 l 0.24598,-0.05788 v -0.371036 h 8.17519 C 461.64215,57.212499 450.60887,27.918428 435.79651,0.5 Z M 32.453209,88.284696 H 47.874467 V 234.01098 H 32.453209 c -12.07418,-47.82644 -12.07418,-97.89981 0,-145.726284 z m 390.565801,0 h 15.41815 c 12.07419,47.826514 12.07419,97.899784 0,145.726294 h -15.41815 z" />
  <metadata
     id="metadata849">
    <rdf:RDF>
      <cc:Work
         rdf:about="">
        <dc:format>image/svg+xml</dc:format>
        <dc:type
           rdf:resource="http://purl.org/dc/dcmitype/StillImage" />
      </cc:Work>
    </rdf:RDF>
  </metadata>
  <defs
     id="defs847">
    <linearGradient
       gradientUnits="userSpaceOnUse"
       id="defitem29"
       y2="485.909"
       x2="655.35199"
       y1="807.466"
       x1="649.42902">
      <stop
         id="stop92"
         offset="0.0000000"
         style="stop-color:#ffffff;stop-opacity:1.0000000;" />
      <stop
         id="stop93"
         offset="1.0000000"
         style="stop-color:#ffffff;stop-opacity:0.13756600;" />
    </linearGradient>
    <linearGradient
       xlink:href="#defitem29"
       id="linearGradient3448"
       gradientUnits="userSpaceOnUse"
       x1="649.42902"
       y1="807.466"
       x2="655.35199"
       y2="485.909" />
    <radialGradient
       gradientUnits="userSpaceOnUse"
       id="defitem28"
       fy="345.56"
       fx="1049.72"
       r="1202.15"
       cy="345.56"
       cx="1049.72">
      <stop
         id="stop89"
         offset="0.0000000"
         style="stop-color:#ffffff;stop-opacity:1.0000000;" />
      <stop
         id="stop90"
         offset="1.0000000"
         style="stop-color:#a8a8a8;stop-opacity:1.0000000;" />
    </radialGradient>
    <radialGradient
       xlink:href="#defitem28"
       id="radialGradient3446"
       gradientUnits="userSpaceOnUse"
       cx="1092.7045"
       cy="64.845284"
       fx="1089.4004"
       fy="64.844765"
       r="1202.15" />
    <linearGradient
       gradientUnits="userSpaceOnUse"
       id="defitem30"
       y2="636.70697"
       x2="980"
       y1="636.70697"
       x1="287.5">
      <stop
         id="stop95"
         offset="0.0000000"
         style="stop-color:#464646;stop-opacity:1.0000000;" />
      <stop
         id="stop96"
         offset="1.0000000"
         style="stop-color:#c2c2c2;stop-opacity:1.0000000;" />
    </linearGradient>
    <linearGradient
       xlink:href="#defitem30"
       id="linearGradient3444"
       gradientUnits="userSpaceOnUse"
       gradientTransform="matrix(1,0,0,1.016038,0,-11.73855)"
       x1="287.5"
       y1="636.70697"
       x2="980"
       y2="636.70697" />
    <linearGradient
       gradientUnits="userSpaceOnUse"
       id="defitem27"
       y2="317.44699"
       x2="985.98199"
       y1="403.18799"
       x1="921.091">
      <stop
         id="stop86"
         offset="0.0000000"
         style="stop-color:#7e7e7e;stop-opacity:1.0000000;" />
      <stop
         id="stop87"
         offset="1.0000000"
         style="stop-color:#e5e5e5;stop-opacity:1.0000000;" />
    </linearGradient>
    <linearGradient
       xlink:href="#defitem27"
       id="linearGradient3442"
       gradientUnits="userSpaceOnUse"
       x1="921.091"
       y1="403.18799"
       x2="985.98199"
       y2="317.44699" />
    <linearGradient
       gradientUnits="userSpaceOnUse"
       id="defitem26"
       y2="360.27499"
       x2="293.37"
       y1="346.30399"
       x1="530.76099">
      <stop
         id="stop83"
         offset="0.0000000"
         style="stop-color:#5f5f5f;stop-opacity:1.0000000;" />
      <stop
         id="stop84"
         offset="1.0000000"
         style="stop-color:#e5e5e5;stop-opacity:1.0000000;" />
    </linearGradient>
    <linearGradient
       xlink:href="#defitem26"
       id="linearGradient3440"
       gradientUnits="userSpaceOnUse"
       x1="530.76099"
       y1="346.30399"
       x2="293.37"
       y2="360.27499" />
    <linearGradient
       gradientUnits="userSpaceOnUse"
       id="defitem25"
       y2="337.60999"
       x2="308.75"
       y1="412.91901"
       x1="164.013">
      <stop
         id="stop80"
         offset="0.0000000"
         style="stop-color:#ffffff;stop-opacity:1.0000000;" />
      <stop
         id="stop81"
         offset="1.0000000"
         style="stop-color:#bfbfbf;stop-opacity:1.0000000;" />
    </linearGradient>
    <linearGradient
       xlink:href="#defitem25"
       id="linearGradient3438"
       gradientUnits="userSpaceOnUse"
       x1="164.013"
       y1="412.91901"
       x2="308.75"
       y2="337.60999" />
    <linearGradient
       gradientUnits="userSpaceOnUse"
       id="defitem24"
       y2="380.47198"
       x2="992.48901"
       y1="270.854"
       x1="1094.25">
      <stop
         id="stop77"
         offset="0.0000000"
         style="stop-color:#6a6a6a;stop-opacity:1.0000000;" />
      <stop
         id="stop78"
         offset="1.0000000"
         style="stop-color:#e6e6e6;stop-opacity:1.0000000;" />
    </linearGradient>
    <linearGradient
       xlink:href="#defitem24"
       id="linearGradient3436"
       gradientUnits="userSpaceOnUse"
       x1="1094.25"
       y1="270.854"
       x2="992.48901"
       y2="380.47198" />
    <linearGradient
       gradientUnits="userSpaceOnUse"
       id="defitem23"
       y2="549.37799"
       x2="1049.84"
       y1="476.465"
       x1="1170.91">
      <stop
         id="stop74"
         offset="0.0000000"
         style="stop-color:#5f5f5f;stop-opacity:1.0000000;" />
      <stop
         id="stop75"
         offset="1.0000000"
         style="stop-color:#ebebeb;stop-opacity:1.0000000;" />
    </linearGradient>
    <linearGradient
       xlink:href="#defitem23"
       id="linearGradient3434"
       gradientUnits="userSpaceOnUse"
       x1="1170.91"
       y1="476.465"
       x2="1049.84"
       y2="549.37799" />
    <linearGradient
       gradientUnits="userSpaceOnUse"
       id="defitem22"
       y2="313.276"
       x2="576.14899"
       y1="105.486"
       x1="783.716">
      <stop
         id="stop71"
         offset="0.0000000"
         style="stop-color:#5a5a5a;stop-opacity:1.0000000;" />
      <stop
         id="stop72"
         offset="1.0000000"
         style="stop-color:#c7c7c7;stop-opacity:1.0000000;" />
    </linearGradient>
    <linearGradient
       xlink:href="#defitem22"
       id="linearGradient3432"
       gradientUnits="userSpaceOnUse"
       x1="783.716"
       y1="105.486"
       x2="576.14899"
       y2="313.276" />
    <linearGradient
       gradientUnits="userSpaceOnUse"
       id="defitem21"
       y2="484.716"
       x2="128.05499"
       y1="418.698"
       x1="280.04401">
      <stop
         id="stop68"
         offset="0.0000000"
         style="stop-color:#666666;stop-opacity:1.0000000;" />
      <stop
         id="stop69"
         offset="1.0000000"
         style="stop-color:#d8d8d8;stop-opacity:1.0000000;" />
    </linearGradient>
    <linearGradient
       xlink:href="#defitem21"
       id="linearGradient3430"
       gradientUnits="userSpaceOnUse"
       x1="280.04401"
       y1="418.698"
       x2="128.05499"
       y2="484.716" />
    <linearGradient
       gradientUnits="userSpaceOnUse"
       id="defitem20"
       y2="584.40997"
       x2="220"
       y1="636.95398"
       x1="129.687">
      <stop
         id="stop65"
         offset="0.0000000"
         style="stop-color:#ffffff;stop-opacity:1.0000000;" />
      <stop
         id="stop66"
         offset="1.0000000"
         style="stop-color:#bbbbbb;stop-opacity:1.0000000;" />
    </linearGradient>
    <linearGradient
       xlink:href="#defitem20"
       id="linearGradient3428"
       gradientUnits="userSpaceOnUse"
       x1="129.687"
       y1="636.95398"
       x2="220"
       y2="584.40997" />
    <linearGradient
       gradientUnits="userSpaceOnUse"
       id="defitem19"
       y2="583.75299"
       x2="1127.98"
       y1="629.02802"
       x1="1048.72">
      <stop
         id="stop62"
         offset="0.0000000"
         style="stop-color:#5e5e5e;stop-opacity:1.0000000;" />
      <stop
         id="stop63"
         offset="1.0000000"
         style="stop-color:#ededed;stop-opacity:1.0000000;" />
    </linearGradient>
    <linearGradient
       xlink:href="#defitem19"
       id="linearGradient3426"
       gradientUnits="userSpaceOnUse"
       x1="1048.72"
       y1="629.02802"
       x2="1127.98"
       y2="583.75299" />
    <linearGradient
       gradientUnits="userSpaceOnUse"
       id="defitem18"
       y2="291.97699"
       x2="581.32397"
       y1="387.27301"
       x1="370.022">
      <stop
         id="stop59"
         offset="0.0000000"
         style="stop-color:#636363;stop-opacity:1.0000000;" />
      <stop
         id="stop60"
         offset="1.0000000"
         style="stop-color:#d6d6d6;stop-opacity:1.0000000;" />
    </linearGradient>
    <linearGradient
       xlink:href="#defitem18"
       id="linearGradient3424"
       gradientUnits="userSpaceOnUse"
       x1="370.022"
       y1="387.27301"
       x2="581.32397"
       y2="291.97699" />
    <linearGradient
       gradientUnits="userSpaceOnUse"
       id="defitem17"
       y2="351.939"
       x2="909.59399"
       y1="351.939"
       x1="732.15601">
      <stop
         id="stop56"
         offset="0.0000000"
         style="stop-color:#676767;stop-opacity:1.0000000;" />
      <stop
         id="stop57"
         offset="1.0000000"
         style="stop-color:#d3d3d3;stop-opacity:1.0000000;" />
    </linearGradient>
    <linearGradient
       xlink:href="#defitem17"
       id="linearGradient3422"
       gradientUnits="userSpaceOnUse"
       x1="732.15601"
       y1="351.939"
       x2="909.59399"
       y2="351.939" />
    <linearGradient
       gradientUnits="userSpaceOnUse"
       id="defitem16"
       y2="494.71301"
       x2="1073.01"
       y1="494.71301"
       x1="1014.43">
      <stop
         id="stop53"
         offset="0.0000000"
         style="stop-color:#666666;stop-opacity:1.0000000;" />
      <stop
         id="stop54"
         offset="1.0000000"
         style="stop-color:#dcdcdc;stop-opacity:1.0000000;" />
    </linearGradient>
    <linearGradient
       xlink:href="#defitem16"
       id="linearGradient3420"
       gradientUnits="userSpaceOnUse"
       x1="1014.43"
       y1="494.71301"
       x2="1073.01"
       y2="494.71301" />
    <linearGradient
       gradientUnits="userSpaceOnUse"
       id="defitem15"
       y2="516.37"
       x2="193.27699"
       y1="452.388"
       x1="272.59201">
      <stop
         id="stop50"
         offset="0.0000000"
         style="stop-color:#6e6e6e;stop-opacity:1.0000000;" />
      <stop
         id="stop51"
         offset="1.0000000"
         style="stop-color:#d8d8d8;stop-opacity:1.0000000;" />
    </linearGradient>
    <linearGradient
       xlink:href="#defitem15"
       id="linearGradient3418"
       gradientUnits="userSpaceOnUse"
       x1="272.59201"
       y1="452.388"
       x2="193.27699"
       y2="516.37" />
    <radialGradient
       gradientUnits="userSpaceOnUse"
       id="defitem14"
       fy="211.088"
       fx="1037.22"
       r="1164.28"
       cy="211.088"
       cx="1037.22">
      <stop
         id="stop47"
         offset="0.0000000"
         style="stop-color:#ffffff;stop-opacity:1.0000000;" />
      <stop
         id="stop48"
         offset="1.0000000"
         style="stop-color:#aaaaaa;stop-opacity:1.0000000;" />
    </radialGradient>
    <radialGradient
       xlink:href="#defitem14"
       id="radialGradient3416"
       gradientUnits="userSpaceOnUse"
       cx="1037.22"
       cy="211.088"
       fx="1037.22"
       fy="211.088"
       r="1164.28" />
    <linearGradient
       gradientUnits="userSpaceOnUse"
       id="defitem13"
       y2="686.83002"
       x2="379.241"
       y1="732.12903"
       x1="342.64999">
      <stop
         id="stop44"
         offset="0.0000000"
         style="stop-color:#ffffff;stop-opacity:1.0000000;" />
      <stop
         id="stop45"
         offset="1.0000000"
         style="stop-color:#989898;stop-opacity:1.0000000;" />
    </linearGradient>
    <linearGradient
       xlink:href="#defitem13"
       id="linearGradient3414"
       gradientUnits="userSpaceOnUse"
       x1="342.64999"
       y1="732.12903"
       x2="379.241"
       y2="686.83002" />
    <radialGradient
       gradientUnits="userSpaceOnUse"
       id="defitem12"
       fy="484.409"
       fx="632.78101"
       r="540.27899"
       cy="484.409"
       cx="632.78101">
      <stop
         id="stop41"
         offset="0.0000000"
         style="stop-color:#ffffff;stop-opacity:1.0000000;" />
      <stop
         id="stop42"
         offset="1.0000000"
         style="stop-color:#ededed;stop-opacity:1.0000000;" />
    </radialGradient>
    <radialGradient
       xlink:href="#defitem12"
       id="radialGradient3412"
       gradientUnits="userSpaceOnUse"
       cx="632.78101"
       cy="484.409"
       fx="632.78101"
       fy="484.409"
       r="540.27899" />
    <radialGradient
       xlink:href="#linearGradient3682"
       id="radialGradient3817"
       gradientUnits="userSpaceOnUse"
       gradientTransform="matrix(1.1149219,0.2722306,-0.7507171,3.0745639,-471.08629,-148.32863)"
       cx="270.58316"
       cy="33.899986"
       fx="270.58316"
       fy="33.899986"
       r="19.571428" />
    <linearGradient
       id="linearGradient3682">
      <stop
         style="stop-color:#ff6d0f;stop-opacity:1;"
         offset="0"
         id="stop3684" />
      <stop
         style="stop-color:#ff1000;stop-opacity:1;"
         offset="1"
         id="stop3686" />
    </linearGradient>
    <radialGradient
       xlink:href="#linearGradient3864"
       id="radialGradient3661"
       gradientUnits="userSpaceOnUse"
       gradientTransform="matrix(0.6186598,0.9666542,-1.0332462,0.6612786,-327.27568,-255.84136)"
       cx="282.64584"
       cy="29.149046"
       fx="282.64584"
       fy="29.149046"
       r="19.571428" />
    <linearGradient
       id="linearGradient3864">
      <stop
         id="stop3866"
         offset="0"
         style="stop-color:#71b2f8;stop-opacity:1;" />
      <stop
         id="stop3868"
         offset="1"
         style="stop-color:#002795;stop-opacity:1;" />
    </linearGradient>
  </defs>
  <path
     style="color:#000000;fill:#c8c8c8;fill-opacity:1;stroke:#000000;stroke-width:1;stroke-dasharray:none;stroke-opacity:1"
     d="m 4.6409565,93.449748 h 0.31055 0.62891 0.81054 0.98828 1.16993 1.34765 1.5292995 1.70703 1.88672 2.06641 2.24414 2.42187 25.876954 26.294922 3.890625 36.490243 242.27929 36.49024 3.89062 26.29297 25.87891 2.42187 2.24414 2.06641 1.88672 1.70703 1.5293 1.34765 1.16992 0.98828 0.81055 0.62891 0.31054 V 228.85014 h -0.31054 -0.62891 -0.81055 -0.98828 -1.16992 -1.34765 -1.5293 -1.70703 -1.88672 -2.06641 -2.24414 -2.42187 -25.87891 -26.29297 -3.89062 -36.49024 -242.27929 -36.490243 -3.890625 -26.292968 -25.878908 -2.42187 -2.24414 -2.06641 -1.88672 -1.70703 -1.5292995 -1.34765 -1.16993 -0.98828 -0.81054 -0.62891 -0.31055 z"
     id="path4212" />
  <g
     id="g3840"
     style="stroke-width:1;stroke-dasharray:none"
     transform="translate(3.7906792,92.600081)">
    <g
       id="g3820"
       style="stroke-width:1;stroke-dasharray:none">
      <path
         id="3"
         d="M 393.175,101.05 H 364.224"
         style="fill:none;stroke:#000000;stroke-width:1;stroke-linecap:butt;stroke-linejoin:miter;stroke-dasharray:none" />
      <path
         id="4"
         d="M 70.133,101.05 H 99.084"
         style="fill:none;stroke:#000000;stroke-width:1;stroke-linecap:butt;stroke-linejoin:miter;stroke-dasharray:none" />
      <path
         d="m 445.346,136.75 c -0.511,-0.9365 -1.015,-2.168 -1.513,-3.6945 -0.497,-1.5225 -0.986,-3.34 -1.465,-5.4526 -0.48,-2.1201 -0.937,-4.4863 -1.367,-7.0833 -0.431,-2.5963 -0.835,-5.4307 -1.211,-8.5032 -0.188,-1.5398 -0.367,-3.1318 -0.535,-4.7546 -0.168,-1.6247 -0.326,-3.2873 -0.473,-4.9878 -0.295,-3.3998 -0.547,-6.9524 -0.754,-10.6577 -0.104,-1.8559 -0.196,-3.7466 -0.274,-5.6381 -0.079,-1.894 -0.144,-3.7997 -0.197,-5.7172 -0.105,-3.83454 -0.159,-7.71614 -0.16,-11.644758 0,-1.966992 0.013,-3.943632 0.04,-5.891692 0.026,-1.95061 0.066,-3.8851 0.118,-5.80345 0.105,-3.8371 0.26,-7.6098 0.466,-11.3182 0.103,-1.8566 0.219,-3.6933 0.345,-5.4767 0.126,-1.7858 0.263,-3.53 0.41,-5.2326 0.295,-3.4062 0.629,-6.647 1.004,-9.7225 0.187,-1.5397 0.384,-3.0333 0.586,-4.4558 0.203,-1.4243 0.412,-2.787 0.627,-4.0883 0.431,-2.6039 0.885,-4.9629 1.363,-7.0771 0.239,-1.0578 0.483,-2.0518 0.729,-2.9654 0.245,-0.9147 0.493,-1.7554 0.743,-2.5222 0.499,-1.5331 1.006,-2.7757 1.518,-3.7123"
         id="path3126"
         style="fill:none;stroke:#000000;stroke-width:1;stroke-linecap:butt;stroke-linejoin:miter;stroke-dasharray:none" />
      <path
         d="m 393.175,136.75 v -5.972 -7.6236 -9.073 V 103.8 92.583 80.7281 68.55 56.3719 44.517 33.3 23.0186 13.9456 6.322 0.35"
         id="path3130"
         style="fill:none;stroke:#000000;stroke-width:1;stroke-linecap:butt;stroke-linejoin:miter;stroke-dasharray:none" />
      <path
         d="m 70.133,0.35 v 5.972 7.6236 9.073 V 33.3 44.517 56.3719 68.55 80.7281 92.583 103.8 v 10.2814 9.073 7.6236 5.972"
         id="path3132"
         style="fill:none;stroke:#000000;stroke-width:1;stroke-linecap:butt;stroke-linejoin:miter;stroke-dasharray:none" />
      <path
         id="10"
         d="M 115.112,45.7203 H 99.084"
         style="fill:none;stroke:#000000;stroke-width:1;stroke-linecap:butt;stroke-linejoin:miter;stroke-dasharray:none" />
      <path
         id="13"
         d="M 348.196,45.7203 H 115.112"
         style="fill:none;stroke:#000000;stroke-width:1;stroke-linecap:butt;stroke-linejoin:miter;stroke-dasharray:none" />
      <path
         id="18"
         d="m 99.084,91.3797 h 16.028"
         style="fill:none;stroke:#000000;stroke-width:1;stroke-linecap:butt;stroke-linejoin:miter;stroke-dasharray:none" />
      <path
         id="21"
         d="M 115.112,91.3797 H 348.196"
         style="fill:none;stroke:#000000;stroke-width:1;stroke-linecap:butt;stroke-linejoin:miter;stroke-dasharray:none" />
      <path
         d="m 17.962,0.35 c 0.511,0.9367 1.016,2.1685 1.513,3.6954 0.498,1.5228 0.986,3.3409 1.465,5.4541 0.481,2.1207 0.937,4.4876 1.368,7.0853 0.431,2.5971 0.835,5.4323 1.211,8.5058 0.187,1.5402 0.367,3.1326 0.534,4.7559 0.169,1.6251 0.326,3.2881 0.474,4.9891 0.295,3.4008 0.546,6.9543 0.754,10.6607 0.104,1.8564 0.196,3.7476 0.274,5.6395 0.078,1.8944 0.144,3.8005 0.196,5.7184 0.106,3.83541 0.159,7.71787 0.16,11.647373 0,1.967487 -0.013,3.944347 -0.04,5.892667 -0.027,1.95088 -0.066,3.88563 -0.118,5.80426 -0.105,3.8376 -0.261,7.6108 -0.467,11.3196 -0.103,1.8569 -0.219,3.6935 -0.346,5.477 -0.126,1.7857 -0.263,3.5299 -0.41,5.2326 -0.295,3.4061 -0.63,6.6468 -1.004,9.7221 -0.188,1.5396 -0.384,3.0329 -0.587,4.4551 -0.203,1.4239 -0.412,2.7864 -0.627,4.0873 -0.432,2.6032 -0.886,4.9614 -1.364,7.0746 -0.239,1.0575 -0.483,2.0508 -0.729,2.9631 -0.245,0.9135 -0.492,1.7527 -0.742,2.5177 -0.499,1.532 -1.004,2.7662 -1.515,3.7024"
         id="path3150"
         style="fill:none;stroke:#000000;stroke-width:1;stroke-linecap:butt;stroke-linejoin:miter;stroke-dasharray:none" />
      <path
         id="32"
         d="m 348.196,91.3797 h 16.028"
         style="fill:none;stroke:#000000;stroke-width:1;stroke-linecap:butt;stroke-linejoin:miter;stroke-dasharray:none" />
      <path
         id="33"
         d="M 364.224,45.7203 H 348.196"
         style="fill:none;stroke:#000000;stroke-width:1;stroke-linecap:butt;stroke-linejoin:miter;stroke-dasharray:none" />
      <path
         d="m 364.224,36.05 v 0.8148 2.4037 3.872 5.1461 6.1622 6.86927 7.23193 7.23193 6.86927 6.1622 5.1461 3.872 2.4037 0.8148"
         id="path3172"
         style="fill:none;stroke:#000000;stroke-width:1;stroke-linecap:butt;stroke-linejoin:miter;stroke-dasharray:none" />
      <path
         d="M 393.175,36.05 H 364.224"
         id="path3174"
         style="fill:none;stroke:#000000;stroke-width:1;stroke-linecap:butt;stroke-linejoin:miter;stroke-dasharray:none" />
      <path
         id="39"
         d="M 115.112,91.3797 V 45.7203"
         style="fill:none;stroke:#000000;stroke-width:1;stroke-linecap:butt;stroke-linejoin:miter;stroke-dasharray:none" />
      <path
         d="M 99.084,101.05 V 100.2352 97.8315 93.9595 88.8134 82.6512 75.78193 68.55 61.31807 54.4488 48.2866 43.1405 39.2685 36.8648 36.05"
         id="path3178"
         style="fill:none;stroke:#000000;stroke-width:1;stroke-linecap:butt;stroke-linejoin:miter;stroke-dasharray:none" />
      <path
         d="M 70.133,36.05 H 99.084"
         id="path3180"
         style="fill:none;stroke:#000000;stroke-width:1;stroke-linecap:butt;stroke-linejoin:miter;stroke-dasharray:none" />
    </g>
  </g>
  <g
     id="g7426"
     transform="translate(76.908508,5.116925)">
    <path
       style="color:#000000;fill:#c8c8c8;fill-opacity:1;stroke:#000000;stroke-opacity:1;-inkscape-stroke:none"
       d="m 159.34773,0.50079092 c 26.59028,0.04781 53.17437,2.54101798 79.31055,7.43359298 l 5.1289,8.4648441 0.42774,-0.259765 -0.084,0.49414 22.98828,3.859375 c 16.46346,16.587945 32.94679,33.155187 49.45313,49.701172 v 0.234375 0.34375 0.443359 0.539063 0.638672 0.736328 0.833984 0.931641 1.03125 1.126953 1.224609 1.322266 152.86328 1.32226 1.22656 1.12696 1.02929 0.9336 0.83398 0.73633 0.63672 0.54101 0.44141 0.34375 0.23633 c -16.50634,16.54598 -32.98967,33.11323 -49.45313,49.70117 l -22.98828,3.85938 0.082,0.49218 -0.42578,-0.25781 -5.1289,8.46289 c -26.13618,4.89258 -52.72027,7.38774 -79.31055,7.43555 -27.1316,0.0518 -54.26734,-2.44313 -80.93555,-7.43555 l -5.12695,-8.46289 -0.42578,0.25781 0.082,-0.49218 -22.98828,-3.85938 C 33.48967,274.98511 17.00634,258.41786 0.5,241.87188 v -0.23633 -0.34375 -0.44141 -0.54101 -0.63672 -0.73633 -0.83398 -0.9336 -1.02929 -1.12696 -1.22656 -1.32226 V 79.6004 78.278134 77.053525 75.926572 74.895322 73.963681 73.129697 72.393369 71.754697 71.215634 70.772275 70.428525 70.19415 C 17.00634,53.648165 33.48967,37.080923 49.95313,20.492978 l 22.98828,-3.859375 -0.084,-0.49414 0.42773,0.259765 5.12695,-8.4648441 c 26.66821,-4.992419 53.80395,-7.48539498 80.93555,-7.43359298 z"
       id="path7120" />
    <g
       id="g7111"
       transform="translate(-0.35084,-0.34978208)">
      <path
         d="m 267.711,241.6632 v 6.9396 6.4392 5.9358 5.429 4.92 4.409 3.895 3.38 2.863 2.344 1.824 1.304 0.782 0.261"
         id="path5245"
         style="fill:none;stroke:#000000;stroke-width:0.7;stroke-linecap:butt;stroke-linejoin:miter" />
      <path
         d="m 267.711,241.6632 -23.1458,4.0812"
         id="path5247"
         style="fill:none;stroke:#000000;stroke-width:0.7;stroke-linecap:butt;stroke-linejoin:miter" />
      <path
         d="m 244.5652,245.7444 v 6.9134 6.415 5.913 5.408 4.902 4.392 3.88 3.367 2.851 2.335 1.817 1.299 0.779 0.26"
         id="path5249"
         style="fill:none;stroke:#000000;stroke-width:0.7;stroke-linecap:butt;stroke-linejoin:miter" />
      <path
         id="4-8"
         d="M 273.97,77.7204 V 235.0452"
         style="fill:none;stroke:#000000;stroke-width:0.7;stroke-linecap:butt;stroke-linejoin:miter" />
      <path
         d="m 273.845,77.599 0.125,0.1214"
         id="path5252"
         style="fill:none;stroke:#000000;stroke-width:0.7;stroke-linecap:butt;stroke-linejoin:miter" />
      <path
         d="m 270.665,78.8753 3.18,-1.2763"
         id="path5254"
         style="fill:none;stroke:#000000;stroke-width:0.7;stroke-linecap:butt;stroke-linejoin:miter" />
      <path
         id="7"
         d="M 270.665,233.8903 V 78.8753"
         style="fill:none;stroke:#000000;stroke-width:0.7;stroke-linecap:butt;stroke-linejoin:miter" />
      <path
         d="m 270.665,233.8903 3.18,1.2763"
         id="path5257"
         style="fill:none;stroke:#000000;stroke-width:0.7;stroke-linecap:butt;stroke-linejoin:miter" />
      <path
         d="m 273.97,235.0452 -0.125,0.1214"
         id="path5259"
         style="fill:none;stroke:#000000;stroke-width:0.7;stroke-linecap:butt;stroke-linejoin:miter" />
      <path
         d="m 266.211,238.6015 1.576,2.9741"
         id="path5261"
         style="fill:none;stroke:#000000;stroke-width:0.7;stroke-linecap:butt;stroke-linejoin:miter" />
      <path
         d="m 273.845,235.1666 -6.058,6.409"
         id="path5263"
         style="fill:none;stroke:#000000;stroke-width:0.7;stroke-linecap:butt;stroke-linejoin:miter" />
      <path
         d="m 266.211,238.6015 4.454,-4.7112"
         id="path5265"
         style="fill:none;stroke:#000000;stroke-width:0.7;stroke-linecap:butt;stroke-linejoin:miter" />
      <path
         d="m 267.787,241.5756 -0.076,0.0876"
         id="path5267"
         style="fill:none;stroke:#000000;stroke-width:0.7;stroke-linecap:butt;stroke-linejoin:miter" />
      <path
         d="m 242.6679,242.7516 23.5431,-4.1501"
         id="path5269"
         style="fill:none;stroke:#000000;stroke-width:0.7;stroke-linecap:butt;stroke-linejoin:miter" />
      <path
         d="m 242.6679,242.7516 1.9915,2.8162"
         id="path5271"
         style="fill:none;stroke:#000000;stroke-width:0.7;stroke-linecap:butt;stroke-linejoin:miter" />
      <path
         d="m 244.5652,245.7444 0.0942,-0.1766"
         id="path5273"
         style="fill:none;stroke:#000000;stroke-width:0.7;stroke-linecap:butt;stroke-linejoin:miter" />
      <path
         d="m 78.4555,7.8288 v 0.258 0.773 1.287 1.802 2.315 2.827 3.338 3.847 4.355 4.86 5.363 5.863 6.361 6.8561"
         id="path5275"
         style="fill:none;stroke:#000000;stroke-width:0.7;stroke-linecap:butt;stroke-linejoin:miter" />
      <path
         d="m 78.3498,58.1312 0.1043,-0.1953"
         id="path5277"
         style="fill:none;stroke:#000000;stroke-width:0.7;stroke-linecap:butt;stroke-linejoin:miter" />
      <path
         d="m 73.2088,67.0346 5.141,-8.9034"
         id="path5279"
         style="fill:none;stroke:#000000;stroke-width:0.7;stroke-linecap:butt;stroke-linejoin:miter" />
      <path
         d="m 73.1146,67.1978 0.0942,-0.1632"
         id="path5281"
         style="fill:none;stroke:#000000;stroke-width:0.7;stroke-linecap:butt;stroke-linejoin:miter" />
      <path
         d="m 73.2088,67.0212 -0.0942,0.1766"
         id="path5283"
         style="fill:none;stroke:#000000;stroke-width:0.7;stroke-linecap:butt;stroke-linejoin:miter" />
      <path
         d="m 73.2088,16.4898 v 0.26 0.779 1.299 1.817 2.335 2.851 3.367 3.88 4.392 4.902 5.408 5.913 6.415 6.9134"
         id="path5285"
         style="fill:none;stroke:#000000;stroke-width:0.7;stroke-linecap:butt;stroke-linejoin:miter" />
      <path
         d="m 78.4541,254.8297 -0.1043,-0.1953"
         id="path5287"
         style="fill:none;stroke:#000000;stroke-width:0.7;stroke-linecap:butt;stroke-linejoin:miter" />
      <path
         d="m 78.3498,254.6344 -5.141,-8.9034"
         id="path5289"
         style="fill:none;stroke:#000000;stroke-width:0.7;stroke-linecap:butt;stroke-linejoin:miter" />
      <path
         d="m 73.2088,245.731 -0.0942,-0.1632"
         id="path5291"
         style="fill:none;stroke:#000000;stroke-width:0.7;stroke-linecap:butt;stroke-linejoin:miter" />
      <path
         d="m 73.1146,245.5678 0.0942,0.1766"
         id="path5293"
         style="fill:none;stroke:#000000;stroke-width:0.7;stroke-linecap:butt;stroke-linejoin:miter" />
      <path
         d="m 73.2088,245.7444 v 6.9134 6.415 5.913 5.408 4.902 4.392 3.88 3.367 2.851 2.335 1.817 1.299 0.779 0.26"
         id="path5295"
         style="fill:none;stroke:#000000;stroke-width:0.7;stroke-linecap:butt;stroke-linejoin:miter" />
      <path
         d="m 78.4555,254.8317 v 6.8561 6.361 5.863 5.363 4.86 4.355 3.847 3.338 2.827 2.315 1.802 1.287 0.773 0.258"
         id="path5297"
         style="fill:none;stroke:#000000;stroke-width:0.7;stroke-linecap:butt;stroke-linejoin:miter" />
      <path
         d="m 49.987,241.5756 -6.058,-6.409"
         id="path5299"
         style="fill:none;stroke:#000000;stroke-width:0.7;stroke-linecap:butt;stroke-linejoin:miter" />
      <path
         d="m 43.929,235.1666 -0.125,-0.1214"
         id="path5301"
         style="fill:none;stroke:#000000;stroke-width:0.7;stroke-linecap:butt;stroke-linejoin:miter" />
      <path
         d="m 43.804,235.0452 c -4.477,-0.5503 -8.601,-0.9035 -12.348,-1.0856 -3.75,-0.1824 -7.132,-0.1951 -10.151,-0.0622 -6.036,0.2674 -10.619,1.11 -13.73,2.4039"
         id="path5303"
         style="fill:none;stroke:#000000;stroke-width:0.7;stroke-linecap:butt;stroke-linejoin:miter" />
      <path
         d="M 7.575,236.3013 Q 3.957,234.7044 0.35,232.8144"
         id="path5305"
         style="fill:none;stroke:#000000;stroke-width:0.7;stroke-linecap:butt;stroke-linejoin:miter" />
      <path
         d="m 50.063,241.6632 v 6.9396 6.4392 5.9358 5.429 4.92 4.409 3.895 3.38 2.863 2.344 1.824 1.304 0.782 0.261"
         id="path5309"
         style="fill:none;stroke:#000000;stroke-width:0.7;stroke-linecap:butt;stroke-linejoin:miter" />
      <path
         d="m 50.063,241.6632 -0.076,-0.0876"
         id="path5311"
         style="fill:none;stroke:#000000;stroke-width:0.7;stroke-linecap:butt;stroke-linejoin:miter" />
      <path
         d="m 43.929,235.1666 3.18,-1.2763"
         id="path5313"
         style="fill:none;stroke:#000000;stroke-width:0.7;stroke-linecap:butt;stroke-linejoin:miter" />
      <path
         id="37"
         d="m 47.109,78.8753 v 155.015"
         style="fill:none;stroke:#000000;stroke-width:0.7;stroke-linecap:butt;stroke-linejoin:miter" />
      <path
         d="m 43.929,77.599 3.18,1.2763"
         id="path5316"
         style="fill:none;stroke:#000000;stroke-width:0.7;stroke-linecap:butt;stroke-linejoin:miter" />
      <path
         d="M 43.804,77.7204 43.929,77.599"
         id="path5318"
         style="fill:none;stroke:#000000;stroke-width:0.7;stroke-linecap:butt;stroke-linejoin:miter" />
      <path
         id="40"
         d="M 43.804,77.7204 V 235.0452"
         style="fill:none;stroke:#000000;stroke-width:0.7;stroke-linecap:butt;stroke-linejoin:miter" />
      <path
         d="m 49.987,71.19 1.576,2.9741"
         id="path5321"
         style="fill:none;stroke:#000000;stroke-width:0.7;stroke-linecap:butt;stroke-linejoin:miter" />
      <path
         d="M 75.1061,70.014 51.563,74.1641"
         id="path5323"
         style="fill:none;stroke:#000000;stroke-width:0.7;stroke-linecap:butt;stroke-linejoin:miter" />
      <path
         d="m 73.1146,67.1978 1.9915,2.8162"
         id="path5325"
         style="fill:none;stroke:#000000;stroke-width:0.7;stroke-linecap:butt;stroke-linejoin:miter" />
      <path
         d="M 50.063,71.1024 73.2088,67.0212"
         id="path5327"
         style="fill:none;stroke:#000000;stroke-width:0.7;stroke-linecap:butt;stroke-linejoin:miter" />
      <path
         d="m 49.987,71.19 0.076,-0.0876"
         id="path5329"
         style="fill:none;stroke:#000000;stroke-width:0.7;stroke-linecap:butt;stroke-linejoin:miter" />
      <path
         d="m 51.563,74.1641 -4.454,4.7112"
         id="path5331"
         style="fill:none;stroke:#000000;stroke-width:0.7;stroke-linecap:butt;stroke-linejoin:miter" />
      <path
         d="M 43.929,77.599 49.987,71.19"
         id="path5333"
         style="fill:none;stroke:#000000;stroke-width:0.7;stroke-linecap:butt;stroke-linejoin:miter" />
      <path
         d="m 242.6679,70.014 -5.2618,-9.1115"
         id="path5335"
         style="fill:none;stroke:#000000;stroke-width:0.7;stroke-linecap:butt;stroke-linejoin:miter" />
      <path
         d="m 237.4035,60.907 q -8.4328,-1.6164 -15.6903,-2.7275 -8.036,-1.2303 -15.7812,-2.1207 -15.7724,-1.812 -31.7584,-2.404"
         id="path5337"
         style="fill:none;stroke:#000000;stroke-width:0.7;stroke-linecap:butt;stroke-linejoin:miter" />
      <path
         d="m 174.1736,53.6548 a 103.859,103.859 0 0 1 0,205.456"
         id="path5339"
         style="fill:none;stroke:#000000;stroke-width:0.7;stroke-linecap:butt;stroke-linejoin:miter" />
      <path
         d="m 174.1736,259.1108 q 15.985,-0.592 31.7584,-2.404 7.7432,-0.8902 15.7812,-2.1207 7.2567,-1.1109 15.6903,-2.7275"
         id="path5341"
         style="fill:none;stroke:#000000;stroke-width:0.7;stroke-linecap:butt;stroke-linejoin:miter" />
      <path
         d="m 237.4085,251.8588 5.2594,-9.1072"
         id="path5343"
         style="fill:none;stroke:#000000;stroke-width:0.7;stroke-linecap:butt;stroke-linejoin:miter" />
      <path
         d="m 270.665,78.8753 -4.454,-4.7112"
         id="path5345"
         style="fill:none;stroke:#000000;stroke-width:0.7;stroke-linecap:butt;stroke-linejoin:miter" />
      <path
         d="M 266.211,74.1641 242.6679,70.014"
         id="path5347"
         style="fill:none;stroke:#000000;stroke-width:0.7;stroke-linecap:butt;stroke-linejoin:miter" />
      <path
         d="m 239.3185,7.8288 v 0.258 0.773 1.287 1.802 2.315 2.827 3.338 3.847 4.355 4.86 5.363 5.863 6.361 6.8561"
         id="path5349"
         style="fill:none;stroke:#000000;stroke-width:0.7;stroke-linecap:butt;stroke-linejoin:miter" />
      <path
         d="m 244.5652,16.4898 v 0.26 0.779 1.299 1.817 2.335 2.851 3.367 3.88 4.392 4.902 5.408 5.913 6.415 6.9134"
         id="path5351"
         style="fill:none;stroke:#000000;stroke-width:0.7;stroke-linecap:butt;stroke-linejoin:miter" />
      <path
         d="m 244.6594,67.1978 -0.0942,-0.1766"
         id="path5353"
         style="fill:none;stroke:#000000;stroke-width:0.7;stroke-linecap:butt;stroke-linejoin:miter" />
      <path
         d="m 244.5652,67.0346 0.0942,0.1632"
         id="path5355"
         style="fill:none;stroke:#000000;stroke-width:0.7;stroke-linecap:butt;stroke-linejoin:miter" />
      <path
         d="m 239.4242,58.1312 5.141,8.9034"
         id="path5357"
         style="fill:none;stroke:#000000;stroke-width:0.7;stroke-linecap:butt;stroke-linejoin:miter" />
      <path
         d="m 239.3199,57.9359 0.1043,0.1953"
         id="path5359"
         style="fill:none;stroke:#000000;stroke-width:0.7;stroke-linecap:butt;stroke-linejoin:miter" />
      <path
         d="M 143.6685,258.6538 A 103.397,103.397 0 1 0 158.887,52.9858"
         id="path5361"
         style="fill:none;stroke:#000000;stroke-width:0.7;stroke-linecap:butt;stroke-linejoin:miter" />
      <path
         d="m 143.6005,259.1108 c 5.0555,0.766 10.17094,1.152 15.2865,1.152 2.55818,0 5.1126,-0.096 7.66326,-0.288 1.27548,-0.096 2.54864,-0.216 3.81944,-0.36 1.2716,-0.141 2.5387,-0.316 3.8039,-0.504"
         id="path5363"
         style="fill:none;stroke:#000000;stroke-width:0.7;stroke-linecap:butt;stroke-linejoin:miter" />
      <path
         d="m 174.1736,53.6548 c -10.11091,-1.535 -20.46219,-1.535 -30.5731,0"
         id="path5365"
         style="fill:none;stroke:#000000;stroke-width:0.7;stroke-linecap:butt;stroke-linejoin:miter" />
      <path
         d="m 143.6005,259.1108 a 103.859,103.859 0 0 1 0,-205.456"
         id="path5367"
         style="fill:none;stroke:#000000;stroke-width:0.7;stroke-linecap:butt;stroke-linejoin:miter" />
      <path
         d="m 158.887,52.9858 a 103.397,103.397 0 0 0 -15.2185,205.668"
         id="path5369"
         style="fill:none;stroke:#000000;stroke-width:0.7;stroke-linecap:butt;stroke-linejoin:miter" />
      <circle
         cx="156.3828"
         cy="158.88699"
         r="71.568901"
         id="circle5371"
         transform="matrix(0,1,1,0,0,0)"
         style="fill:none;stroke:#000000;stroke-width:0.7;stroke-linecap:butt;stroke-linejoin:miter" />
      <circle
         cx="156.3828"
         cy="158.88699"
         r="73.455002"
         id="circle5373"
         transform="matrix(0,1,1,0,0,0)"
         style="fill:none;stroke:#000000;stroke-width:0.7;stroke-linecap:butt;stroke-linejoin:miter" />
      <circle
         cx="156.3828"
         cy="158.88699"
         r="77.9104"
         id="circle5375"
         transform="matrix(0,1,1,0,0,0)"
         style="fill:none;stroke:#000000;stroke-width:0.7;stroke-linecap:butt;stroke-linejoin:miter" />
      <circle
         cx="156.3828"
         cy="158.88699"
         r="80.253799"
         id="circle5377"
         transform="matrix(0,1,1,0,0,0)"
         style="fill:none;stroke:#000000;stroke-width:0.7;stroke-linecap:butt;stroke-linejoin:miter" />
      <path
         d="m 43.804,77.7204 c -4.477,0.5503 -8.601,0.9035 -12.348,1.0856 -3.75,0.1824 -7.132,0.1951 -10.151,0.0622 -6.036,-0.2674 -10.619,-1.11 -13.73,-2.4039"
         id="path5379"
         style="fill:none;stroke:#000000;stroke-width:0.7;stroke-linecap:butt;stroke-linejoin:miter" />
      <path
         id="71"
         d="m 7.575,76.4643 v 159.837"
         style="fill:none;stroke:#000000;stroke-width:0.7;stroke-linecap:butt;stroke-linejoin:miter" />
      <path
         d="m 310.199,76.4643 c -3.111,1.2939 -7.694,2.1365 -13.73,2.4039 -3.019,0.1329 -6.401,0.1202 -10.151,-0.0622 -3.747,-0.1821 -7.871,-0.5353 -12.348,-1.0856"
         id="path5382"
         style="fill:none;stroke:#000000;stroke-width:0.7;stroke-linecap:butt;stroke-linejoin:miter" />
      <path
         d="m 310.199,236.3013 c -3.111,-1.2939 -7.694,-2.1365 -13.73,-2.4039 -3.019,-0.1329 -6.401,-0.1202 -10.151,0.0622 -3.747,0.1821 -7.871,0.5353 -12.348,1.0856"
         id="path5384"
         style="fill:none;stroke:#000000;stroke-width:0.7;stroke-linecap:butt;stroke-linejoin:miter" />
      <path
         id="74"
         d="m 310.199,76.4643 v 159.837"
         style="fill:none;stroke:#000000;stroke-width:0.7;stroke-linecap:butt;stroke-linejoin:miter" />
      <path
         d="m 317.424,79.9512 q -3.607,-1.89 -7.225,-3.4869"
         id="path5389"
         style="fill:none;stroke:#000000;stroke-width:0.7;stroke-linecap:butt;stroke-linejoin:miter" />
      <path
         d="m 267.787,71.19 6.058,6.409"
         id="path5391"
         style="fill:none;stroke:#000000;stroke-width:0.7;stroke-linecap:butt;stroke-linejoin:miter" />
      <path
         d="m 267.711,71.1024 0.076,0.0876"
         id="path5393"
         style="fill:none;stroke:#000000;stroke-width:0.7;stroke-linecap:butt;stroke-linejoin:miter" />
      <path
         d="m 267.711,20.3768 v 0.261 0.782 1.304 1.824 2.344 2.863 3.38 3.895 4.409 4.92 5.429 5.9358 6.4392 6.9396"
         id="path5395"
         style="fill:none;stroke:#000000;stroke-width:0.7;stroke-linecap:butt;stroke-linejoin:miter" />
      <path
         d="m 75.1061,242.7516 5.2612,9.1104"
         id="path5397"
         style="fill:none;stroke:#000000;stroke-width:0.7;stroke-linecap:butt;stroke-linejoin:miter" />
      <path
         d="m 80.3705,251.8587 q 8.4405,1.6179 15.7094,2.7303 8.0422,1.2309 15.7937,2.1208 15.7562,1.81 31.7269,2.401"
         id="path5399"
         style="fill:none;stroke:#000000;stroke-width:0.7;stroke-linecap:butt;stroke-linejoin:miter" />
      <path
         d="m 143.6005,53.6548 q -15.9696,0.591 -31.7269,2.401 -7.7495,0.8897 -15.7937,2.1208 -7.268,1.1122 -15.7094,2.7303"
         id="path5401"
         style="fill:none;stroke:#000000;stroke-width:0.7;stroke-linecap:butt;stroke-linejoin:miter" />
      <path
         d="M 80.3679,60.9025 75.1061,70.014"
         id="path5403"
         style="fill:none;stroke:#000000;stroke-width:0.7;stroke-linecap:butt;stroke-linejoin:miter" />
      <path
         d="m 47.109,233.8903 4.454,4.7112"
         id="path5405"
         style="fill:none;stroke:#000000;stroke-width:0.7;stroke-linecap:butt;stroke-linejoin:miter" />
      <path
         d="m 51.563,238.6015 23.5431,4.1501"
         id="path5407"
         style="fill:none;stroke:#000000;stroke-width:0.7;stroke-linecap:butt;stroke-linejoin:miter" />
      <path
         d="M 7.575,76.4643 Q 3.957,78.0612 0.35,79.9512"
         id="path5415"
         style="fill:none;stroke:#000000;stroke-width:0.7;stroke-linecap:butt;stroke-linejoin:miter" />
      <path
         d="m 317.424,232.8144 q -3.607,1.89 -7.225,3.4869"
         id="path5417"
         style="fill:none;stroke:#000000;stroke-width:0.7;stroke-linecap:butt;stroke-linejoin:miter" />
      <circle
         cx="156.3828"
         cy="158.88699"
         r="96.274803"
         id="circle5419"
         transform="matrix(0,1,1,0,0,0)"
         style="fill:none;stroke:#000000;stroke-width:0.7;stroke-linecap:butt;stroke-linejoin:miter" />
      <circle
         cx="156.3828"
         cy="158.88699"
         r="94.138199"
         id="circle5421"
         transform="matrix(0,1,1,0,0,0)"
         style="fill:none;stroke:#000000;stroke-width:0.7;stroke-linecap:butt;stroke-linejoin:miter" />
      <circle
         cx="156.3828"
         cy="158.88699"
         r="89.702599"
         id="circle5423"
         transform="matrix(0,1,1,0,0,0)"
         style="fill:none;stroke:#000000;stroke-width:0.7;stroke-linecap:butt;stroke-linejoin:miter" />
      <circle
         cx="156.3828"
         cy="158.88699"
         r="83.630501"
         id="circle5425"
         transform="matrix(0,1,1,0,0,0)"
         style="fill:none;stroke:#000000;stroke-width:0.7;stroke-linecap:butt;stroke-linejoin:miter" />
      <path
         d="m 50.063,20.3768 v 0.261 0.782 1.304 1.824 2.344 2.863 3.38 3.895 4.409 4.92 5.429 5.9358 6.4392 6.9396"
         id="path5427"
         style="fill:none;stroke:#000000;stroke-width:0.7;stroke-linecap:butt;stroke-linejoin:miter" />
      <path
         d="m 244.5652,67.0212 23.1458,4.0812"
         id="path5429"
         style="fill:none;stroke:#000000;stroke-width:0.7;stroke-linecap:butt;stroke-linejoin:miter" />
      <path
         d="m 78.4556,57.9338 c 26.4627,-5.206 53.4315,-7.838 80.40214,-7.837 11.89706,-0.001 23.79426,0.508 35.64756,1.526 8.6037,0.738 17.1762,1.743 25.7173,3.014 3.9054,0.582 7.8018,1.218 11.6891,1.9101 2.4735,0.4377 4.9415,0.9053 7.4067,1.3869"
         id="path5431"
         style="fill:none;stroke:#000000;stroke-width:0.7;stroke-linecap:butt;stroke-linejoin:miter" />
      <path
         d="M 73.2088,245.7444 50.063,241.6632"
         id="path5433"
         style="fill:none;stroke:#000000;stroke-width:0.7;stroke-linecap:butt;stroke-linejoin:miter" />
      <path
         d="m 244.5652,245.731 -5.141,8.9034"
         id="path5435"
         style="fill:none;stroke:#000000;stroke-width:0.7;stroke-linecap:butt;stroke-linejoin:miter" />
      <path
         d="m 239.4242,254.6344 -0.1043,0.1953"
         id="path5437"
         style="fill:none;stroke:#000000;stroke-width:0.7;stroke-linecap:butt;stroke-linejoin:miter" />
      <path
         d="m 239.3185,254.8317 v 6.8561 6.361 5.863 5.363 4.86 4.355 3.847 3.338 2.827 2.315 1.802 1.287 0.773 0.258"
         id="path5439"
         style="fill:none;stroke:#000000;stroke-width:0.7;stroke-linecap:butt;stroke-linejoin:miter" />
      <path
         d="m 244.6594,245.5678 -0.0942,0.1632"
         id="path5441"
         style="fill:none;stroke:#000000;stroke-width:0.7;stroke-linecap:butt;stroke-linejoin:miter" />
      <path
         d="m 239.3184,254.8318 c -26.4819,5.209 -53.4705,7.842 -80.46066,7.837 -11.88654,0 -23.77304,-0.511 -35.61584,-1.528 -8.5972,-0.738 -17.1631,-1.743 -25.6978,-3.013 -3.9033,-0.582 -7.7976,-1.218 -11.6828,-1.9093 -2.4732,-0.4376 -4.9408,-0.9052 -7.4057,-1.3867"
         id="path5443"
         style="fill:none;stroke:#000000;stroke-width:0.7;stroke-linecap:butt;stroke-linejoin:miter" />
      <path
         d="m 239.4242,254.6344 q -1.0111,-1.3871 -2.0159,-2.7767"
         id="path5445"
         style="fill:none;stroke:#000000;stroke-width:0.7;stroke-linecap:butt;stroke-linejoin:miter" />
      <path
         d="m 78.3498,254.6344 2.013,-2.7741"
         id="path5447"
         style="fill:none;stroke:#000000;stroke-width:0.7;stroke-linecap:butt;stroke-linejoin:miter" />
      <path
         d="m 73.1146,245.5678 1.9915,-2.8162"
         id="path5449"
         style="fill:none;stroke:#000000;stroke-width:0.7;stroke-linecap:butt;stroke-linejoin:miter" />
      <path
         d="m 49.987,241.5756 1.576,-2.9741"
         id="path5451"
         style="fill:none;stroke:#000000;stroke-width:0.7;stroke-linecap:butt;stroke-linejoin:miter" />
      <path
         d="M 266.211,74.1641 267.787,71.19"
         id="path5453"
         style="fill:none;stroke:#000000;stroke-width:0.7;stroke-linecap:butt;stroke-linejoin:miter" />
      <path
         d="m 242.6679,70.014 1.9915,-2.8162"
         id="path5455"
         style="fill:none;stroke:#000000;stroke-width:0.7;stroke-linecap:butt;stroke-linejoin:miter" />
      <path
         d="m 237.4113,60.9053 q 1.0033,-1.3883 2.0129,-2.7741"
         id="path5457"
         style="fill:none;stroke:#000000;stroke-width:0.7;stroke-linecap:butt;stroke-linejoin:miter" />
      <path
         d="m 80.3628,60.9053 -2.013,-2.7741"
         id="path5459"
         style="fill:none;stroke:#000000;stroke-width:0.7;stroke-linecap:butt;stroke-linejoin:miter" />
    </g>
  </g>
</svg>
