<?xml version="1.0" encoding="UTF-8" standalone="no"?>
<svg
   id="svg2"
   version="1.1"
   viewBox="0 0 271.79673 494.95995"
   height="494.95996mm"
   width="271.79672mm"
   sodipodi:docname="thumbnail.svg"
   inkscape:version="1.2.1 (9c6d41e410, 2022-07-14)"
   xmlns:inkscape="http://www.inkscape.org/namespaces/inkscape"
   xmlns:sodipodi="http://sodipodi.sourceforge.net/DTD/sodipodi-0.dtd"
   xmlns:xlink="http://www.w3.org/1999/xlink"
   xmlns="http://www.w3.org/2000/svg"
   xmlns:svg="http://www.w3.org/2000/svg"
   xmlns:rdf="http://www.w3.org/1999/02/22-rdf-syntax-ns#"
   xmlns:cc="http://creativecommons.org/ns#"
   xmlns:dc="http://purl.org/dc/elements/1.1/">
  <sodipodi:namedview
     id="namedview2236"
     pagecolor="#ffffff"
     bordercolor="#000000"
     borderopacity="0.25"
     inkscape:showpageshadow="2"
     inkscape:pageopacity="0.0"
     inkscape:pagecheckerboard="0"
     inkscape:deskcolor="#d1d1d1"
     inkscape:document-units="mm"
     showgrid="false"
     inkscape:zoom="0.34168383"
     inkscape:cx="-342.42182"
     inkscape:cy="908.73483"
     inkscape:window-width="1920"
     inkscape:window-height="1051"
     inkscape:window-x="-9"
     inkscape:window-y="132"
     inkscape:window-maximized="1"
     inkscape:current-layer="svg2" />
  <!-- Working space 10 10 410 287 -->
  <!-- Title block 220 227 410 287 -->
  <metadata
     id="metadata849">
    <rdf:RDF>
      <cc:Work
         rdf:about="">
        <dc:format>image/svg+xml</dc:format>
        <dc:type
           rdf:resource="http://purl.org/dc/dcmitype/StillImage" />
      </cc:Work>
    </rdf:RDF>
  </metadata>
  <defs
     id="defs847">
    <linearGradient
       gradientUnits="userSpaceOnUse"
       id="defitem29"
       y2="485.909"
       x2="655.35199"
       y1="807.466"
       x1="649.42902">
      <stop
         id="stop92"
         offset="0.0000000"
         style="stop-color:#ffffff;stop-opacity:1.0000000;" />
      <stop
         id="stop93"
         offset="1.0000000"
         style="stop-color:#ffffff;stop-opacity:0.13756600;" />
    </linearGradient>
    <linearGradient
       xlink:href="#defitem29"
       id="linearGradient3448"
       gradientUnits="userSpaceOnUse"
       x1="649.42902"
       y1="807.466"
       x2="655.35199"
       y2="485.909" />
    <radialGradient
       gradientUnits="userSpaceOnUse"
       id="defitem28"
       fy="345.56"
       fx="1049.72"
       r="1202.15"
       cy="345.56"
       cx="1049.72">
      <stop
         id="stop89"
         offset="0.0000000"
         style="stop-color:#ffffff;stop-opacity:1.0000000;" />
      <stop
         id="stop90"
         offset="1.0000000"
         style="stop-color:#a8a8a8;stop-opacity:1.0000000;" />
    </radialGradient>
    <radialGradient
       xlink:href="#defitem28"
       id="radialGradient3446"
       gradientUnits="userSpaceOnUse"
       cx="1092.7045"
       cy="64.845284"
       fx="1089.4004"
       fy="64.844765"
       r="1202.15" />
    <linearGradient
       gradientUnits="userSpaceOnUse"
       id="defitem30"
       y2="636.70697"
       x2="980"
       y1="636.70697"
       x1="287.5">
      <stop
         id="stop95"
         offset="0.0000000"
         style="stop-color:#464646;stop-opacity:1.0000000;" />
      <stop
         id="stop96"
         offset="1.0000000"
         style="stop-color:#c2c2c2;stop-opacity:1.0000000;" />
    </linearGradient>
    <linearGradient
       xlink:href="#defitem30"
       id="linearGradient3444"
       gradientUnits="userSpaceOnUse"
       gradientTransform="matrix(1,0,0,1.016038,0,-11.73855)"
       x1="287.5"
       y1="636.70697"
       x2="980"
       y2="636.70697" />
    <linearGradient
       gradientUnits="userSpaceOnUse"
       id="defitem27"
       y2="317.44699"
       x2="985.98199"
       y1="403.18799"
       x1="921.091">
      <stop
         id="stop86"
         offset="0.0000000"
         style="stop-color:#7e7e7e;stop-opacity:1.0000000;" />
      <stop
         id="stop87"
         offset="1.0000000"
         style="stop-color:#e5e5e5;stop-opacity:1.0000000;" />
    </linearGradient>
    <linearGradient
       xlink:href="#defitem27"
       id="linearGradient3442"
       gradientUnits="userSpaceOnUse"
       x1="921.091"
       y1="403.18799"
       x2="985.98199"
       y2="317.44699" />
    <linearGradient
       gradientUnits="userSpaceOnUse"
       id="defitem26"
       y2="360.27499"
       x2="293.37"
       y1="346.30399"
       x1="530.76099">
      <stop
         id="stop83"
         offset="0.0000000"
         style="stop-color:#5f5f5f;stop-opacity:1.0000000;" />
      <stop
         id="stop84"
         offset="1.0000000"
         style="stop-color:#e5e5e5;stop-opacity:1.0000000;" />
    </linearGradient>
    <linearGradient
       xlink:href="#defitem26"
       id="linearGradient3440"
       gradientUnits="userSpaceOnUse"
       x1="530.76099"
       y1="346.30399"
       x2="293.37"
       y2="360.27499" />
    <linearGradient
       gradientUnits="userSpaceOnUse"
       id="defitem25"
       y2="337.60999"
       x2="308.75"
       y1="412.91901"
       x1="164.013">
      <stop
         id="stop80"
         offset="0.0000000"
         style="stop-color:#ffffff;stop-opacity:1.0000000;" />
      <stop
         id="stop81"
         offset="1.0000000"
         style="stop-color:#bfbfbf;stop-opacity:1.0000000;" />
    </linearGradient>
    <linearGradient
       xlink:href="#defitem25"
       id="linearGradient3438"
       gradientUnits="userSpaceOnUse"
       x1="164.013"
       y1="412.91901"
       x2="308.75"
       y2="337.60999" />
    <linearGradient
       gradientUnits="userSpaceOnUse"
       id="defitem24"
       y2="380.47198"
       x2="992.48901"
       y1="270.854"
       x1="1094.25">
      <stop
         id="stop77"
         offset="0.0000000"
         style="stop-color:#6a6a6a;stop-opacity:1.0000000;" />
      <stop
         id="stop78"
         offset="1.0000000"
         style="stop-color:#e6e6e6;stop-opacity:1.0000000;" />
    </linearGradient>
    <linearGradient
       xlink:href="#defitem24"
       id="linearGradient3436"
       gradientUnits="userSpaceOnUse"
       x1="1094.25"
       y1="270.854"
       x2="992.48901"
       y2="380.47198" />
    <linearGradient
       gradientUnits="userSpaceOnUse"
       id="defitem23"
       y2="549.37799"
       x2="1049.84"
       y1="476.465"
       x1="1170.91">
      <stop
         id="stop74"
         offset="0.0000000"
         style="stop-color:#5f5f5f;stop-opacity:1.0000000;" />
      <stop
         id="stop75"
         offset="1.0000000"
         style="stop-color:#ebebeb;stop-opacity:1.0000000;" />
    </linearGradient>
    <linearGradient
       xlink:href="#defitem23"
       id="linearGradient3434"
       gradientUnits="userSpaceOnUse"
       x1="1170.91"
       y1="476.465"
       x2="1049.84"
       y2="549.37799" />
    <linearGradient
       gradientUnits="userSpaceOnUse"
       id="defitem22"
       y2="313.276"
       x2="576.14899"
       y1="105.486"
       x1="783.716">
      <stop
         id="stop71"
         offset="0.0000000"
         style="stop-color:#5a5a5a;stop-opacity:1.0000000;" />
      <stop
         id="stop72"
         offset="1.0000000"
         style="stop-color:#c7c7c7;stop-opacity:1.0000000;" />
    </linearGradient>
    <linearGradient
       xlink:href="#defitem22"
       id="linearGradient3432"
       gradientUnits="userSpaceOnUse"
       x1="783.716"
       y1="105.486"
       x2="576.14899"
       y2="313.276" />
    <linearGradient
       gradientUnits="userSpaceOnUse"
       id="defitem21"
       y2="484.716"
       x2="128.05499"
       y1="418.698"
       x1="280.04401">
      <stop
         id="stop68"
         offset="0.0000000"
         style="stop-color:#666666;stop-opacity:1.0000000;" />
      <stop
         id="stop69"
         offset="1.0000000"
         style="stop-color:#d8d8d8;stop-opacity:1.0000000;" />
    </linearGradient>
    <linearGradient
       xlink:href="#defitem21"
       id="linearGradient3430"
       gradientUnits="userSpaceOnUse"
       x1="280.04401"
       y1="418.698"
       x2="128.05499"
       y2="484.716" />
    <linearGradient
       gradientUnits="userSpaceOnUse"
       id="defitem20"
       y2="584.40997"
       x2="220"
       y1="636.95398"
       x1="129.687">
      <stop
         id="stop65"
         offset="0.0000000"
         style="stop-color:#ffffff;stop-opacity:1.0000000;" />
      <stop
         id="stop66"
         offset="1.0000000"
         style="stop-color:#bbbbbb;stop-opacity:1.0000000;" />
    </linearGradient>
    <linearGradient
       xlink:href="#defitem20"
       id="linearGradient3428"
       gradientUnits="userSpaceOnUse"
       x1="129.687"
       y1="636.95398"
       x2="220"
       y2="584.40997" />
    <linearGradient
       gradientUnits="userSpaceOnUse"
       id="defitem19"
       y2="583.75299"
       x2="1127.98"
       y1="629.02802"
       x1="1048.72">
      <stop
         id="stop62"
         offset="0.0000000"
         style="stop-color:#5e5e5e;stop-opacity:1.0000000;" />
      <stop
         id="stop63"
         offset="1.0000000"
         style="stop-color:#ededed;stop-opacity:1.0000000;" />
    </linearGradient>
    <linearGradient
       xlink:href="#defitem19"
       id="linearGradient3426"
       gradientUnits="userSpaceOnUse"
       x1="1048.72"
       y1="629.02802"
       x2="1127.98"
       y2="583.75299" />
    <linearGradient
       gradientUnits="userSpaceOnUse"
       id="defitem18"
       y2="291.97699"
       x2="581.32397"
       y1="387.27301"
       x1="370.022">
      <stop
         id="stop59"
         offset="0.0000000"
         style="stop-color:#636363;stop-opacity:1.0000000;" />
      <stop
         id="stop60"
         offset="1.0000000"
         style="stop-color:#d6d6d6;stop-opacity:1.0000000;" />
    </linearGradient>
    <linearGradient
       xlink:href="#defitem18"
       id="linearGradient3424"
       gradientUnits="userSpaceOnUse"
       x1="370.022"
       y1="387.27301"
       x2="581.32397"
       y2="291.97699" />
    <linearGradient
       gradientUnits="userSpaceOnUse"
       id="defitem17"
       y2="351.939"
       x2="909.59399"
       y1="351.939"
       x1="732.15601">
      <stop
         id="stop56"
         offset="0.0000000"
         style="stop-color:#676767;stop-opacity:1.0000000;" />
      <stop
         id="stop57"
         offset="1.0000000"
         style="stop-color:#d3d3d3;stop-opacity:1.0000000;" />
    </linearGradient>
    <linearGradient
       xlink:href="#defitem17"
       id="linearGradient3422"
       gradientUnits="userSpaceOnUse"
       x1="732.15601"
       y1="351.939"
       x2="909.59399"
       y2="351.939" />
    <linearGradient
       gradientUnits="userSpaceOnUse"
       id="defitem16"
       y2="494.71301"
       x2="1073.01"
       y1="494.71301"
       x1="1014.43">
      <stop
         id="stop53"
         offset="0.0000000"
         style="stop-color:#666666;stop-opacity:1.0000000;" />
      <stop
         id="stop54"
         offset="1.0000000"
         style="stop-color:#dcdcdc;stop-opacity:1.0000000;" />
    </linearGradient>
    <linearGradient
       xlink:href="#defitem16"
       id="linearGradient3420"
       gradientUnits="userSpaceOnUse"
       x1="1014.43"
       y1="494.71301"
       x2="1073.01"
       y2="494.71301" />
    <linearGradient
       gradientUnits="userSpaceOnUse"
       id="defitem15"
       y2="516.37"
       x2="193.27699"
       y1="452.388"
       x1="272.59201">
      <stop
         id="stop50"
         offset="0.0000000"
         style="stop-color:#6e6e6e;stop-opacity:1.0000000;" />
      <stop
         id="stop51"
         offset="1.0000000"
         style="stop-color:#d8d8d8;stop-opacity:1.0000000;" />
    </linearGradient>
    <linearGradient
       xlink:href="#defitem15"
       id="linearGradient3418"
       gradientUnits="userSpaceOnUse"
       x1="272.59201"
       y1="452.388"
       x2="193.27699"
       y2="516.37" />
    <radialGradient
       gradientUnits="userSpaceOnUse"
       id="defitem14"
       fy="211.088"
       fx="1037.22"
       r="1164.28"
       cy="211.088"
       cx="1037.22">
      <stop
         id="stop47"
         offset="0.0000000"
         style="stop-color:#ffffff;stop-opacity:1.0000000;" />
      <stop
         id="stop48"
         offset="1.0000000"
         style="stop-color:#aaaaaa;stop-opacity:1.0000000;" />
    </radialGradient>
    <radialGradient
       xlink:href="#defitem14"
       id="radialGradient3416"
       gradientUnits="userSpaceOnUse"
       cx="1037.22"
       cy="211.088"
       fx="1037.22"
       fy="211.088"
       r="1164.28" />
    <linearGradient
       gradientUnits="userSpaceOnUse"
       id="defitem13"
       y2="686.83002"
       x2="379.241"
       y1="732.12903"
       x1="342.64999">
      <stop
         id="stop44"
         offset="0.0000000"
         style="stop-color:#ffffff;stop-opacity:1.0000000;" />
      <stop
         id="stop45"
         offset="1.0000000"
         style="stop-color:#989898;stop-opacity:1.0000000;" />
    </linearGradient>
    <linearGradient
       xlink:href="#defitem13"
       id="linearGradient3414"
       gradientUnits="userSpaceOnUse"
       x1="342.64999"
       y1="732.12903"
       x2="379.241"
       y2="686.83002" />
    <radialGradient
       gradientUnits="userSpaceOnUse"
       id="defitem12"
       fy="484.409"
       fx="632.78101"
       r="540.27899"
       cy="484.409"
       cx="632.78101">
      <stop
         id="stop41"
         offset="0.0000000"
         style="stop-color:#ffffff;stop-opacity:1.0000000;" />
      <stop
         id="stop42"
         offset="1.0000000"
         style="stop-color:#ededed;stop-opacity:1.0000000;" />
    </radialGradient>
    <radialGradient
       xlink:href="#defitem12"
       id="radialGradient3412"
       gradientUnits="userSpaceOnUse"
       cx="632.78101"
       cy="484.409"
       fx="632.78101"
       fy="484.409"
       r="540.27899" />
    <radialGradient
       xlink:href="#linearGradient3682"
       id="radialGradient3817"
       gradientUnits="userSpaceOnUse"
       gradientTransform="matrix(1.1149219,0.2722306,-0.7507171,3.0745639,-471.08629,-148.32863)"
       cx="270.58316"
       cy="33.899986"
       fx="270.58316"
       fy="33.899986"
       r="19.571428" />
    <linearGradient
       id="linearGradient3682">
      <stop
         style="stop-color:#ff6d0f;stop-opacity:1;"
         offset="0"
         id="stop3684" />
      <stop
         style="stop-color:#ff1000;stop-opacity:1;"
         offset="1"
         id="stop3686" />
    </linearGradient>
    <radialGradient
       xlink:href="#linearGradient3864"
       id="radialGradient3661"
       gradientUnits="userSpaceOnUse"
       gradientTransform="matrix(0.6186598,0.9666542,-1.0332462,0.6612786,-327.27568,-255.84136)"
       cx="282.64584"
       cy="29.149046"
       fx="282.64584"
       fy="29.149046"
       r="19.571428" />
    <linearGradient
       id="linearGradient3864">
      <stop
         id="stop3866"
         offset="0"
         style="stop-color:#71b2f8;stop-opacity:1;" />
      <stop
         id="stop3868"
         offset="1"
         style="stop-color:#002795;stop-opacity:1;" />
    </linearGradient>
  </defs>
  <g
     id="g9349"
     transform="matrix(0,-1.8439091,1.9933524,0,161.84226,614.61737)"
     style="stroke-width:0.5;stroke-dasharray:none">
    <path
       style="color:#000000;fill:#c8c8c8;fill-opacity:1;stroke:#000000;stroke-width:0.5;stroke-dasharray:none;stroke-opacity:1"
       d="m 113.89727,-80.940992 v 0.175782 h -0.17383 v 0.0078 0.02734 0.04297 0.06055 0.07617 0.0957 0.111328 0.128906 0.146484 0.16211 0.179687 0.197266 0.214844 0.230468 0.892578 H 83.60821 v 0.173829 l -0.09961,-0.140625 -2.908203,2.035156 v -0.392578 -1.5 h -0.175782 l 0.123047,-0.123047 -2.5,-2.5 -0.123047,0.123047 v -0.175782 H 72.114069 71.576959 71.06524 70.584772 70.135553 69.72149 69.344537 69.0086 h -0.296875 -0.253906 -0.210938 -0.164062 -0.117188 -0.07031 -0.02539 v 0.175782 l -0.123047,-0.123047 -2.5,2.5 0.123047,0.123047 h -0.173828 v 0.21289 7.28711 h 0.173828 v 0.175798 h 0.02539 0.07617 0.123047 0.171875 0.216797 0.259766 0.298828 0.333984 0.367188 0.392578 0.414062 0.431641 0.441406 0.447266 3.353516 v 0.06641 0.722656 1.199219 1.664063 2.115234 2.548828 2.96093 3.34766 3.70898 4.03516 4.32813 4.58789 4.80468 4.8086 h -3.353516 c -0.388355,1.5e-4 -0.776666,0.0552 -1.150391,0.16211 -0.860806,0.2469 -1.631041,0.77373 -2.175781,1.49218 -0.272164,0.3593 -0.486796,0.76566 -0.630859,1.19336 -0.144104,0.42783 -0.216797,0.87598 -0.216797,1.32813 v 1.74219 21.0156196 1.74219005 c 0,0.45255 0.07416,0.9048 0.21875,1.33398 0.144631,0.4293 0.359134,0.83444995 0.632812,1.19335995 0.2731,0.3589 0.603223,0.67085 0.970703,0.92188 0.367415,0.25103 0.771426,0.44116 1.201172,0.56445 0.373752,0.10701 0.762052,0.16195 1.150391,0.16211 h 3.353516 v 4.80859 4.8046904 4.58789 4.32813 4.03711 3.70703 3.34765 2.96094 2.54883 2.11523 1.66407 1.19921 0.72266 0.0664 h -3.353516 -0.447266 -0.441406 -0.431641 -0.414062 -0.392578 -0.367188 -0.333984 -0.298828 -0.259766 -0.216797 -0.171875 -0.123047 -0.07617 -0.02539 v 0.17578 h -0.173828 v 7.28711 0.21289 h 0.173828 l -0.123047,0.12305 2.5,2.5 0.123047,-0.12305 v 0.17579 h 0.02539 0.07031 0.117188 0.164062 0.210938 0.253906 0.296875 0.335937 0.376953 0.414063 0.449219 0.480468 0.511719 0.53711 5.810546 v -0.17578 l 0.123047,0.12305 2.5,-2.5 -0.123047,-0.12305 h 0.175782 v -1.5 -0.39258 l 2.908203,2.03516 0.09961,-0.14063 v 0.17383 h 30.11523 v 0.89258 0.23047 0.002 0.21289 0.19727 0.17968 0.16211 0.002 0.14453 0.1289 0.11133 0.002 0.0937 0.0762 0.002 0.0586 0.002 0.041 0.002 0.0254 0.008 h 0.17383 v 0.17534 h 1.5 v -0.17578 h 0.17578 v -0.008 -0.0234 -0.041 -0.0566 -0.0723 -0.0879 -0.10352 -0.12109 -0.13672 -0.15235 -0.16796 -0.1836 -0.19922 -0.21484 c 0,-3.6e-4 -10e-6,-0.002 0,-0.002 0,-3.1e-4 0.002,-0.002 0.002,-0.002 7.5e-4,-0.0529 0.0779,-0.18637 0.32618,-0.33984 0.24848,-0.15341 0.63566,-0.3145 1.1289,-0.45508 0.49273,-0.14057 1.09134,-0.26366 1.75195,-0.34766 0.66071,-0.084 1.38366,-0.1289 2.11524,-0.1289 h 58.42573 c 0.54495,-5.2e-4 1.07522,-0.0786 1.58984,-0.23242 0.51107,-0.15153 1.0043,-0.37505 1.45899,-0.66016 7.3e-4,-4.6e-4 0.001,-10e-4 0.002,-0.002 10e-4,-7.8e-4 0.003,-0.001 0.004,-0.002 0.4559,-0.28744 0.87235,-0.63612 1.23633,-1.02734 0.3468,-0.37322 0.64,-0.79041 0.89257,-1.23828 l 1.00196,-0.36524 1.10547,-0.40234 1.1582,-0.42187 1.21289,-0.44141 1.26562,-0.45898 1.31836,-0.48047 1.3711,-0.5 1.42187,-0.51758 1.47461,-0.53516 1.52344,-0.55469 1.57617,-0.57421 1.62305,-0.5918 1.66406,-0.60547 v 4.70508 h 0.17383 v 0.1761 h 0.008 0.0234 0.0391 0.0527 0.0703 0.084 0.0996 0.11719 0.12891 0.14648 0.16016 0.17578 0.18945 0.20508 2.00195 2.74414 3.38086 3.88672 4.23633 4.42187 4.43555 4.27539 3.94727 3.46484 2.8457 2.11524 1.30469 0.43945 v -0.17578 h 0.17549 v -5.32422 h 55.32422 c 0.4521,-5.1e-4 0.89557,-0.0298 1.33008,-0.0879 0.43433,-0.0575 0.86013,-0.14313 1.26562,-0.25 0.002,-5.6e-4 0.004,-10e-4 0.006,-0.002 0.80813,-0.21306 1.53532,-0.51042 2.18555,-0.85743 0.74405,-0.39669 1.45318,-0.89211 2.10937,-1.49804 0.65802,-0.60615 1.25588,-1.31873 1.74414,-2.10547 0.24529,-0.39336 0.46253,-0.80585 0.6543,-1.23633 0.005,-0.012 0.008,-0.0251 0.0137,-0.0371 0.053,-0.01 0.10246,-0.02 0.23047,-0.0449 0.18007,-0.0351 0.39502,-0.0793 0.62109,-0.12891 0.45348,-0.0995 0.94429,-0.21862 1.43946,-0.35742 l -0.008,-0.0293 c 0.31795,-0.0861 0.6303,-0.16546 0.96093,-0.26953 0.25152,-0.0791 0.48713,-0.15954 0.66992,-0.22265 0.18278,-0.0631 0.3125,-0.10938 0.3125,-0.10938 9.98397,-3.59776 16.64064,-13.07117 16.64063,-23.68359 v -47.51172 c 10e-6,-10.61242 -6.65666,-20.08584 -16.64063,-23.68359 0,0 -0.12979,-0.0463 -0.3125,-0.10938 -0.18269,-0.0631 -0.41818,-0.1435 -0.66992,-0.22266 -0.34281,-0.10781 -0.66413,-0.18949 -0.99023,-0.27734 l 0.004,-0.0117 c -0.49512,-0.14554 -0.97831,-0.27084 -1.42968,-0.375 -0.22569,-0.052 -0.44331,-0.0995 -0.625,-0.13672 -0.11532,-0.0236 -0.14886,-0.0298 -0.20703,-0.041 -0.004,-0.008 -0.006,-0.0171 -0.01,-0.0254 -0.1918,-0.430345 -0.40957,-0.841686 -0.6543,-1.234378 -0.24448,-0.392995 -0.51386,-0.76646 -0.80664,-1.119141 -0.29235,-0.352597 -0.60687,-0.684995 -0.93554,-0.988281 -0.65715,-0.606936 -1.36722,-1.101352 -2.11133,-1.498047 -0.65211,-0.347731 -1.38032,-0.645312 -2.18555,-0.857422 -10e-4,-3.93e-4 -0.002,-0.0016 -0.004,-0.002 -0.005,-0.0014 -0.0121,-5.28e-4 -0.0176,-0.002 -0.40098,-0.104815 -0.82065,-0.1915 -1.25,-0.248047 -0.43451,-0.05806 -0.87798,-0.08738 -1.33008,-0.08789 h -55.32395 v -5.324218 h -0.17578 v -0.175782 h -0.43945 -1.30469 -2.11524 -2.8457 -3.46484 -3.94727 -4.27539 -4.43555 -4.42187 -4.23633 -3.88672 -3.38086 -2.74414 -2.00195 -0.20508 -0.18945 -0.17578 -0.16016 -0.14648 -0.12891 -0.11719 -0.0996 -0.084 -0.0703 -0.0527 -0.0391 -0.0234 -0.008 v 0.175782 h -0.17383 v 4.705078 l -1.66406,-0.605469 -1.62305,-0.591797 -1.57617,-0.572265 -1.52344,-0.556641 -1.47461,-0.535156 -1.42187,-0.517578 -1.3711,-0.5 -1.31836,-0.480469 -1.26562,-0.458985 -1.21289,-0.441406 -1.1582,-0.421875 -1.10547,-0.402344 -1.00196,-0.365234 c -0.25237,-0.447507 -0.54623,-0.863572 -0.89257,-1.236328 l -0.14844,0.136719 c -0.36567,-0.393165 -0.63333,-0.878693 -1.08985,-1.166016 -0.4544,-0.286126 -0.94789,-0.51142 -1.46093,-0.664062 -6.2e-4,-1.85e-4 -0.001,1.84e-4 -0.002,0 -0.5149,-0.153186 -1.04589,-0.231288 -1.58965,-0.232319 h -58.42578 c -0.52863,0 -1.04563,-0.031 -1.54492,-0.07617 -0.18902,-0.01717 -0.38332,-0.02985 -0.56446,-0.05273 -7e-4,-8.9e-5 -0.001,9e-5 -0.002,0 -0.66179,-0.08399 -1.26224,-0.20676 -1.75586,-0.347656 -0.49122,-0.140348 -0.88011,-0.30027 -1.1289,-0.453125 -0.24878,-0.152667 -0.32813,-0.290602 -0.32813,-0.34375 v -0.214844 -0.201171 -0.183594 -0.167969 -0.152344 -0.136718 -0.121094 -0.103516 -0.08789 -0.07227 -0.05664 -0.04102 -0.02344 -0.0078 h -0.17578 v -0.175791 z"
       id="path2203" />
    <g
       id="g4510"
       transform="translate(89.292772,-285.42988)"
       style="stroke:#000000;stroke-width:0.5;stroke-dasharray:none;stroke-opacity:1">
      <path
         id="9"
         d="m 231.42405,293.4953 -3,-0.52895"
         style="fill:none;stroke:#000000;stroke-width:0.5;stroke-linecap:butt;stroke-linejoin:miter;stroke-dasharray:none;stroke-opacity:1" />
      <path
         id="10"
         d="m 231.42405,303.1741 -3,0.52895"
         style="fill:none;stroke:#000000;stroke-width:0.5;stroke-linecap:butt;stroke-linejoin:miter;stroke-dasharray:none;stroke-opacity:1" />
      <path
         id="11"
         d="m 231.42405,241.4953 -3,-0.52895"
         style="fill:none;stroke:#000000;stroke-width:0.5;stroke-linecap:butt;stroke-linejoin:miter;stroke-dasharray:none;stroke-opacity:1" />
      <path
         id="12"
         d="m 231.42405,251.1741 -3,0.52895"
         style="fill:none;stroke:#000000;stroke-width:0.5;stroke-linecap:butt;stroke-linejoin:miter;stroke-dasharray:none;stroke-opacity:1" />
      <path
         d="m -5.864945,234.01045 c -2.0875,6.9779 -3.669,14.3225 -4.621,22.07425"
         id="path1935"
         style="fill:none;stroke:#000000;stroke-width:0.5;stroke-linecap:butt;stroke-linejoin:miter;stroke-dasharray:none;stroke-opacity:1" />
      <path
         d="m -5.864945,310.65895 v 3.43685 3.2485 3.0456 2.8288 2.5995 2.3585 2.1065 1.8455 1.5755 1.299 1.0165 0.7295 0.439 0.1465"
         id="path1939"
         style="fill:none;stroke:#000000;stroke-width:0.5;stroke-linecap:butt;stroke-linejoin:miter;stroke-dasharray:none;stroke-opacity:1" />
      <path
         d="m -5.864945,310.65895 c -2.0875,-6.9779 -3.669,-14.3225 -4.621,-22.07425"
         id="path1941"
         style="fill:none;stroke:#000000;stroke-width:0.5;stroke-linecap:butt;stroke-linejoin:miter;stroke-dasharray:none;stroke-opacity:1" />
      <path
         d="m -10.485945,256.0847 c 0.9545,-7.7696 2.538,-15.1118 4.621,-22.07425"
         id="path1947"
         style="fill:none;stroke:#000000;stroke-width:0.5;stroke-linecap:butt;stroke-linejoin:miter;stroke-dasharray:none;stroke-opacity:1" />
      <path
         d="m -5.864945,207.3347 v 0.1465 0.439 0.7295 1.0165 1.299 1.5755 1.8455 2.1065 2.3585 2.5995 2.8288 3.0456 3.2485 3.43685"
         id="path1949"
         style="fill:none;stroke:#000000;stroke-width:0.5;stroke-linecap:butt;stroke-linejoin:miter;stroke-dasharray:none;stroke-opacity:1" />
      <path
         id="path1959"
         d="m 170.7138,310.65895 h 37.12165"
         style="fill:none;stroke:#000000;stroke-width:0.5;stroke-linecap:butt;stroke-linejoin:miter;stroke-dasharray:none;stroke-opacity:1" />
      <path
         d="m 218.1286,325.6587 c -1.95774,-1.9875 -3.81394,-4.2394 -5.5375,-6.7411 -1.7236,-2.5017 -3.3145,-5.25315 -4.75565,-8.25865"
         id="path1973"
         style="fill:none;stroke:#000000;stroke-width:0.5;stroke-linecap:butt;stroke-linejoin:miter;stroke-dasharray:none;stroke-opacity:1" />
      <path
         id="22"
         d="M -5.864945,310.65895 H 207.83546"
         style="fill:none;stroke:#000000;stroke-width:0.5;stroke-linecap:butt;stroke-linejoin:miter;stroke-dasharray:none;stroke-opacity:1" />
      <path
         id="25"
         d="M -5.864945,234.01045 H 207.83546"
         style="fill:none;stroke:#000000;stroke-width:0.5;stroke-linecap:butt;stroke-linejoin:miter;stroke-dasharray:none;stroke-opacity:1" />
      <path
         d="m 207.83546,234.01045 c 1.44115,-3.0055 3.03205,-5.75695 4.75565,-8.25865 1.72355,-2.5017 3.57975,-4.7536 5.5375,-6.7411"
         id="path1980"
         style="fill:none;stroke:#000000;stroke-width:0.5;stroke-linecap:butt;stroke-linejoin:miter;stroke-dasharray:none;stroke-opacity:1" />
      <path
         d="m 228.42405,226.5847 q 0,0.008 0,0.0157 0,0.0235 0,0.047 0,0.0388 0,0.0776 0,0.0537 0,0.1073 0,0.0678 0,0.1356 0,0.0811 0,0.1622 0,0.0934 0,0.18685 0,0.1045 0,0.20905 0,0.1143 0,0.2286 0,0.1227 0,0.2454 0,0.1295 0,0.259 0,0.1347 0,0.2694 0,0.2754 0,0.5563"
         id="path1992"
         style="fill:none;stroke:#000000;stroke-width:0.5;stroke-linecap:butt;stroke-linejoin:miter;stroke-dasharray:none;stroke-opacity:1" />
      <path
         id="34"
         d="m 228.42405,229.0847 v 86.5"
         style="fill:none;stroke:#000000;stroke-width:0.5;stroke-linecap:butt;stroke-linejoin:miter;stroke-dasharray:none;stroke-opacity:1" />
      <path
         d="m 228.42405,315.5847 v 0.2799 0.2764 0.2694 0.259 0.2454 0.2286 0.20905 0.18685 0.1622 0.1356 0.1073 0.0776 0.047 0.0157"
         id="path1995"
         style="fill:none;stroke:#000000;stroke-width:0.5;stroke-linecap:butt;stroke-linejoin:miter;stroke-dasharray:none;stroke-opacity:1" />
      <path
         id="36"
         d="m 226.8994,319.60935 1.52465,-1.52465"
         style="fill:none;stroke:#000000;stroke-width:0.5;stroke-linecap:butt;stroke-linejoin:miter;stroke-dasharray:none;stroke-opacity:1" />
      <path
         id="37"
         d="m 226.8994,225.06005 1.52465,1.52465"
         style="fill:none;stroke:#000000;stroke-width:0.5;stroke-linecap:butt;stroke-linejoin:miter;stroke-dasharray:none;stroke-opacity:1" />
      <path
         d="m 223.42405,227.8347 q 0,1.54015 0,3.1643"
         id="path1999"
         style="fill:none;stroke:#000000;stroke-width:0.5;stroke-linecap:butt;stroke-linejoin:miter;stroke-dasharray:none;stroke-opacity:1" />
      <path
         d="m 223.42405,230.999 q 0,2.929 0,5.85805 0,2.93985 0,5.8797 0,2.94895 0,5.89785 0,2.9562 0,5.91235 0,2.9616 0,5.9232 0,5.92945 0,11.86455 0,2.96704 0,5.9341 0,2.9652 0,5.93045 0,2.9616 0,5.9232 0,2.95615 0,5.91235 0,2.9489 0,5.89785 0,2.93985 0,5.8797 0,2.92905 0,5.85805"
         id="path2001"
         style="fill:none;stroke:#000000;stroke-width:0.5;stroke-linecap:butt;stroke-linejoin:miter;stroke-dasharray:none;stroke-opacity:1" />
      <path
         d="m 223.42405,313.6704 q 0,1.62415 0,3.1643"
         id="path2003"
         style="fill:none;stroke:#000000;stroke-width:0.5;stroke-linecap:butt;stroke-linejoin:miter;stroke-dasharray:none;stroke-opacity:1" />
      <path
         d="m 223.42405,315.5847 c 0,0.42115 0,0.8422 0,1.25"
         id="path2005"
         style="fill:none;stroke:#000000;stroke-width:0.5;stroke-linecap:butt;stroke-linejoin:miter;stroke-dasharray:none;stroke-opacity:1" />
      <path
         id="42"
         d="m 223.42405,229.0847 v 1.9143"
         style="fill:none;stroke:#000000;stroke-width:0.5;stroke-linecap:butt;stroke-linejoin:miter;stroke-dasharray:none;stroke-opacity:1" />
      <path
         id="43"
         d="m 223.42405,313.6704 v 1.9143"
         style="fill:none;stroke:#000000;stroke-width:0.5;stroke-linecap:butt;stroke-linejoin:miter;stroke-dasharray:none;stroke-opacity:1" />
      <path
         d="m 223.42405,227.8347 c 0,0.4078 0,0.82885 0,1.25"
         id="path2009"
         style="fill:none;stroke:#000000;stroke-width:0.5;stroke-linecap:butt;stroke-linejoin:miter;stroke-dasharray:none;stroke-opacity:1" />
      <path
         d="m 207.83546,310.65895 c 0.2294,10e-4 0.4529,-0.0257 0.67055,-0.0799 0.21749,-0.0552 0.42874,-0.14085 0.6197,-0.25145 0.38195,-0.22115 0.6829,-0.542 0.918,-0.89585 0.2351,-0.35385 0.40435,-0.74075 0.53715,-1.13605 0.13285,-0.39525 0.22915,-0.7989 0.3038,-1.21125"
         id="path2011"
         style="fill:none;stroke:#000000;stroke-width:0.5;stroke-linecap:butt;stroke-linejoin:miter;stroke-dasharray:none;stroke-opacity:1" />
      <path
         id="46"
         d="m 170.92405,307.0844 h 39.9606"
         style="fill:none;stroke:#000000;stroke-width:0.5;stroke-linecap:butt;stroke-linejoin:miter;stroke-dasharray:none;stroke-opacity:1" />
      <path
         d="m 170.92405,237.585 v 4.7546 4.85085 4.9314 4.99625 5.045 5.07765 5.09395 5.09395 5.07765 5.045 4.99625 4.9314 4.85085 4.7546"
         id="path2014"
         style="fill:none;stroke:#000000;stroke-width:0.5;stroke-linecap:butt;stroke-linejoin:miter;stroke-dasharray:none;stroke-opacity:1" />
      <path
         id="48"
         d="m 170.92405,237.585 h 39.9606"
         style="fill:none;stroke:#000000;stroke-width:0.5;stroke-linecap:butt;stroke-linejoin:miter;stroke-dasharray:none;stroke-opacity:1" />
      <path
         d="m 210.88465,237.585 c -0.0747,-0.4123 -0.17245,-0.8198 -0.30509,-1.21525 -0.1327,-0.39545 -0.30025,-0.77885 -0.53625,-1.13265 -0.236,-0.3538 -0.54046,-0.67795 -0.91915,-0.89615 -0.37876,-0.21825 -0.83175,-0.3305 -1.2887,-0.3305"
         id="path2017"
         style="fill:none;stroke:#000000;stroke-width:0.5;stroke-linecap:butt;stroke-linejoin:miter;stroke-dasharray:none;stroke-opacity:1" />
      <path
         d="m 213.42405,246.92675 c 0,1.20655 0,2.41315 0,3.6197 0,2.4155 0,4.833 0,7.2525 0,4.8403 0,9.68767 0,14.53575 0,3.6364 0,7.27125 0,10.9045 0,2.4214 0,4.8412 0,7.2594 0,1.2081 0,2.41625 0,3.62435 0,1.20655 0,2.41315 0,3.6197"
         id="path2023"
         style="fill:none;stroke:#000000;stroke-width:0.5;stroke-linecap:butt;stroke-linejoin:miter;stroke-dasharray:none;stroke-opacity:1" />
      <path
         d="m 213.42405,246.92675 c 0,-1.654 -0.0949,-3.29755 -0.44045,-4.90825 -0.17275,-0.80535 -0.40814,-1.6025 -0.7452,-2.35845 -0.337,-0.756 -0.77564,-1.4708 -1.35375,-2.07505"
         id="path2025"
         style="fill:none;stroke:#000000;stroke-width:0.5;stroke-linecap:butt;stroke-linejoin:miter;stroke-dasharray:none;stroke-opacity:1" />
      <path
         d="m 170.92405,237.585 c 1.45585,5.6729 2.597,11.40005 3.37138,17.18975 0.38808,2.89485 0.6818,5.80525 0.88115,8.7312 0.19848,2.92415 0.29981,5.87222 0.29979,8.82875 2e-5,2.95653 -0.10131,5.9046 -0.29979,8.82875 -0.19935,2.92595 -0.49307,5.83635 -0.88115,8.7312 -0.77438,5.7897 -1.91553,11.51685 -3.37138,17.18975"
         id="path2027"
         style="fill:none;stroke:#000000;stroke-width:0.5;stroke-linecap:butt;stroke-linejoin:miter;stroke-dasharray:none;stroke-opacity:1" />
      <path
         d="m 210.88465,307.0844 c 0.5795,-0.6057 1.01185,-1.309 1.3485,-2.06325 0.1679,-0.37865 0.31316,-0.76545 0.4357,-1.1604 0.12196,-0.3933 0.22555,-0.79035 0.31075,-1.19115 0.3449,-1.6035 0.44445,-3.27005 0.44445,-4.92695"
         id="path2029"
         style="fill:none;stroke:#000000;stroke-width:0.5;stroke-linecap:butt;stroke-linejoin:miter;stroke-dasharray:none;stroke-opacity:1" />
      <path
         d="m 223.42405,316.8347 v 0.4496 0.43455 0.41565 0.39305 0.36695 0.3377 0.30535 0.27035 0.23295 0.19345 0.15225 0.10975 0.0662 0.0222"
         id="path2039"
         style="fill:none;stroke:#000000;stroke-width:0.5;stroke-linecap:butt;stroke-linejoin:miter;stroke-dasharray:none;stroke-opacity:1" />
      <path
         d="m 223.42405,224.0847 v 0.0221 0.0662 0.10975 0.15225 0.19345 0.23295 0.27035 0.30535 0.3377 0.36695 0.39305 0.41565 0.43455 0.4496"
         id="path2041"
         style="fill:none;stroke:#000000;stroke-width:0.5;stroke-linecap:butt;stroke-linejoin:miter;stroke-dasharray:none;stroke-opacity:1" />
      <path
         id="62"
         d="m 225.92405,315.5847 v -86.5"
         style="fill:none;stroke:#000000;stroke-width:0.5;stroke-linecap:butt;stroke-linejoin:miter;stroke-dasharray:none;stroke-opacity:1" />
      <path
         d="m 223.42405,230.999 c -1.00029,1.0731 -1.9685,2.2159 -2.8928,3.4185 -0.9244,1.20235 -1.80475,2.4652 -2.6411,3.7886 -1.6726,2.6474 -3.1686,5.5401 -4.4661,8.72065"
         id="path2044"
         style="fill:none;stroke:#000000;stroke-width:0.5;stroke-linecap:butt;stroke-linejoin:miter;stroke-dasharray:none;stroke-opacity:1" />
      <path
         d="m 213.42405,297.74265 c 0.64916,1.58865 1.34751,3.10985 2.09506,4.56365 0.74655,1.4524 1.538,2.8398 2.37435,4.16215 0.83629,1.3232 1.71645,2.58545 2.64035,3.7868 0.9238,1.2016 1.8909,2.3431 2.89024,3.41515"
         id="path2046"
         style="fill:none;stroke:#000000;stroke-width:0.5;stroke-linecap:butt;stroke-linejoin:miter;stroke-dasharray:none;stroke-opacity:1" />
      <path
         d="m 225.92405,224.7311 q 0,0.0989 0,0.1978 0,0.11075 0,0.2215 0,0.12195 0,0.24385 0,0.13245 0,0.2649 0,0.1422 0,0.2844 0,0.1511 0,0.30225 0,0.15925 0,0.31845 0,0.1664 0,0.3328 0,0.1726 0,0.34525 0,0.17785 0,0.3557 0,0.1821 0,0.3642 0,0.1853 0,0.3706 0,0.3743 0,0.7519"
         id="path2048"
         style="fill:none;stroke:#000000;stroke-width:0.5;stroke-linecap:butt;stroke-linejoin:miter;stroke-dasharray:none;stroke-opacity:1" />
      <path
         d="m 225.92405,315.5847 v 0.377 0.3749 0.3706 0.3642 0.3557 0.34525 0.3328 0.31845 0.30225 0.2844 0.2649 0.24385 0.2215 0.1978"
         id="path2054"
         style="fill:none;stroke:#000000;stroke-width:0.5;stroke-linecap:butt;stroke-linejoin:miter;stroke-dasharray:none;stroke-opacity:1" />
      <path
         d="m 231.42405,298.3347 v 0.54185 0.535 0.5215 0.5014 0.47495 0.4426 0.40465 0.36165 0.314 0.26255 0.20765 0.15025 0.0909 0.0304"
         id="path2060"
         style="fill:none;stroke:#000000;stroke-width:0.5;stroke-linecap:butt;stroke-linejoin:miter;stroke-dasharray:none;stroke-opacity:1" />
      <path
         d="m 231.42405,293.4953 v 0.0305 0.0909 0.15025 0.20765 0.26255 0.314 0.36165 0.40465 0.4426 0.47495 0.5014 0.5215 0.535 0.54185"
         id="path2062"
         style="fill:none;stroke:#000000;stroke-width:0.5;stroke-linecap:butt;stroke-linejoin:miter;stroke-dasharray:none;stroke-opacity:1" />
      <path
         d="m 231.42405,251.1741 v -0.0305 -0.0909 -0.15025 -0.20765 -0.26255 -0.314 -0.36165 -0.40465 -0.4426 -0.47495 -0.5014 -0.5215 -0.535 -0.54185"
         id="path2064"
         style="fill:none;stroke:#000000;stroke-width:0.5;stroke-linecap:butt;stroke-linejoin:miter;stroke-dasharray:none;stroke-opacity:1" />
      <path
         d="m 231.42405,246.3347 v -0.54185 -0.535 -0.5215 -0.5014 -0.47495 -0.4426 -0.40465 -0.36165 -0.314 -0.26255 -0.20765 -0.15025 -0.0909 -0.0304"
         id="path2066"
         style="fill:none;stroke:#000000;stroke-width:0.5;stroke-linecap:butt;stroke-linejoin:miter;stroke-dasharray:none;stroke-opacity:1" />
      <path
         id="106"
         d="m -20.102945,256.0847 h 3.527"
         style="fill:none;stroke:#000000;stroke-width:0.5;stroke-linecap:butt;stroke-linejoin:miter;stroke-dasharray:none;stroke-opacity:1" />
      <path
         d="m -23.894945,258.8119 a 4,4 0 0 1 0.604,-1.1432"
         id="path2125"
         style="fill:none;stroke:#000000;stroke-width:0.5;stroke-linecap:butt;stroke-linejoin:miter;stroke-dasharray:none;stroke-opacity:1" />
      <path
         d="m -23.248445,257.6139 a 4,4 0 0 1 2.043,-1.3743"
         id="path2127"
         style="fill:none;stroke:#000000;stroke-width:0.5;stroke-linecap:butt;stroke-linejoin:miter;stroke-dasharray:none;stroke-opacity:1" />
      <path
         id="109"
         d="M -24.102945,261.82735 V 260.0847"
         style="fill:none;stroke:#000000;stroke-width:0.5;stroke-linecap:butt;stroke-linejoin:miter;stroke-dasharray:none;stroke-opacity:1" />
      <path
         d="m -21.205445,288.4298 a 4,4 0 0 1 -2.081,-1.42375"
         id="path2130"
         style="fill:none;stroke:#000000;stroke-width:0.5;stroke-linecap:butt;stroke-linejoin:miter;stroke-dasharray:none;stroke-opacity:1" />
      <path
         d="m -23.479945,286.72805 a 4,4 0 0 1 -0.3605,-0.71915"
         id="path2132"
         style="fill:none;stroke:#000000;stroke-width:0.5;stroke-linecap:butt;stroke-linejoin:miter;stroke-dasharray:none;stroke-opacity:1" />
      <path
         d="m -23.892945,285.86355 a 4,4 0 0 1 -0.21,-1.27885"
         id="path2134"
         style="fill:none;stroke:#000000;stroke-width:0.5;stroke-linecap:butt;stroke-linejoin:miter;stroke-dasharray:none;stroke-opacity:1" />
      <path
         id="113"
         d="m -20.102945,288.5847 h 3.527"
         style="fill:none;stroke:#000000;stroke-width:0.5;stroke-linecap:butt;stroke-linejoin:miter;stroke-dasharray:none;stroke-opacity:1" />
      <path
         id="127"
         d="m -21.602945,264.32735 v 16.0147"
         style="fill:none;stroke:#000000;stroke-width:0.5;stroke-linecap:butt;stroke-linejoin:miter;stroke-dasharray:none;stroke-opacity:1" />
      <path
         d="m -21.602945,280.34205 a 6,10.3923 45 0 0 4.243,4.24265"
         id="path2157"
         style="fill:none;stroke:#000000;stroke-width:0.5;stroke-linecap:butt;stroke-linejoin:miter;stroke-dasharray:none;stroke-opacity:1" />
      <path
         id="129"
         d="m -17.359945,284.5847 h 5.811"
         style="fill:none;stroke:#000000;stroke-width:0.5;stroke-linecap:butt;stroke-linejoin:miter;stroke-dasharray:none;stroke-opacity:1" />
      <path
         id="130"
         d="m -11.548945,284.5847 v -24.5"
         style="fill:none;stroke:#000000;stroke-width:0.5;stroke-linecap:butt;stroke-linejoin:miter;stroke-dasharray:none;stroke-opacity:1" />
      <path
         id="131"
         d="m -11.548945,260.0847 h -5.811"
         style="fill:none;stroke:#000000;stroke-width:0.5;stroke-linecap:butt;stroke-linejoin:miter;stroke-dasharray:none;stroke-opacity:1" />
      <path
         d="m -17.359945,260.0847 a 10.3923,6 45 0 0 -4.243,4.24265"
         id="path2162"
         style="fill:none;stroke:#000000;stroke-width:0.5;stroke-linecap:butt;stroke-linejoin:miter;stroke-dasharray:none;stroke-opacity:1" />
      <path
         id="135"
         d="m -9.048945,257.5847 v -1.5"
         style="fill:none;stroke:#000000;stroke-width:0.5;stroke-linecap:butt;stroke-linejoin:miter;stroke-dasharray:none;stroke-opacity:1" />
      <path
         id="136"
         d="m -9.048945,257.5847 v 29.5"
         style="fill:none;stroke:#000000;stroke-width:0.5;stroke-linecap:butt;stroke-linejoin:miter;stroke-dasharray:none;stroke-opacity:1" />
      <path
         id="137"
         d="m -9.048945,288.5847 v -1.5"
         style="fill:none;stroke:#000000;stroke-width:0.5;stroke-linecap:butt;stroke-linejoin:miter;stroke-dasharray:none;stroke-opacity:1" />
      <path
         id="149"
         d="m -9.048945,287.0847 -2.5,-2.5"
         style="fill:none;stroke:#000000;stroke-width:0.5;stroke-linecap:butt;stroke-linejoin:miter;stroke-dasharray:none;stroke-opacity:1" />
      <path
         id="151"
         d="m -11.548945,260.0847 2.5,-2.5"
         style="fill:none;stroke:#000000;stroke-width:0.5;stroke-linecap:butt;stroke-linejoin:miter;stroke-dasharray:none;stroke-opacity:1" />
    </g>
  </g>
  <path
     id="14"
     style="color:#000000;fill:#c8c8c8;fill-opacity:1;stroke:#000000;stroke-width:0.997378;stroke-opacity:1;-inkscape-stroke:none"
     d="m 9.5697608,177.93759 v 0.17571 h -0.17271 v 45.00244 h 0.17271 v 0.17416 h 0.28169 0.8414612 1.38891 1.92144 2.42878 2.90426 3.34529 3.74213 4.09526 4.39237 4.63756 4.82416 4.94803 5.01075 163.131478 5.01229 4.94855 4.82364 4.63756 4.39237 4.09578 3.74161 3.3453 2.90477 2.42827 1.92143 1.38943 0.84094 0.27963 v -0.17416 h 0.17477 V 178.1133 h -0.17477 v -0.17571 h -0.27963 -0.84094 -1.38943 -1.92143 -2.42827 -2.90477 -3.3453 -3.74161 -4.09578 -4.39237 -4.63756 -4.82364 -4.94855 -5.01229 -163.131478 -5.01075 -4.94803 -4.82416 -4.63756 -4.39237 -4.09526 -3.74213 -3.34529 -2.90426 -2.42878 -1.92144 -1.38891 -0.8414612 z m 61.5733812,15.90435 c 0.23649,0.002 0.47192,0.018 0.70577,0.0455 0.62359,0.0732 1.23372,0.23202 1.81092,0.47235 2.308759,0.96135 4.099377,3.20214 4.099377,6.16846 0,3.68464 -2.97584,6.67439 -6.640737,6.67439 -2.95045,0 -5.17719,-1.79818 -6.13339,-4.11936 -0.95619,-2.32116 -0.64625,-5.17869 1.4398,-7.27595 1.36896,-1.37632 3.06291,-1.98256 4.71826,-1.96536 z m 64.655498,0 c 0.23648,0.002 0.47244,0.018 0.70628,0.0455 0.62359,0.0732 1.23322,0.23202 1.8104,0.47235 2.30877,0.96135 4.09938,3.20214 4.09938,6.16846 0,3.68464 -2.97531,6.67439 -6.64021,6.67439 -2.95046,0 -5.17721,-1.79818 -6.13338,-4.11936 -0.95619,-2.32117 -0.64676,-5.17869 1.43928,-7.27595 1.36895,-1.37632 3.06291,-1.98256 4.71825,-1.96536 z m 64.91406,0.18346 c 0.23648,0.002 0.47242,0.0175 0.70627,0.045 0.62359,0.0732 1.23322,0.23253 1.81041,0.47286 2.30875,0.96135 4.09937,3.20162 4.09937,6.16795 0,3.68463 -2.97581,6.67439 -6.64073,6.67439 -2.95045,0 -5.17719,-1.79818 -6.13338,-4.11936 -0.9562,-2.32119 -0.64624,-5.17869 1.43979,-7.27595 1.36897,-1.37633 3.06291,-1.98205 4.71827,-1.96485 z" />
</svg>
