<?xml version="1.0" encoding="UTF-8" standalone="no"?>
<svg
   version="1.2"
   height="592.15137mm"
   width="592.15137mm"
   viewBox="0 0 592.15138 592.15136"
   id="svg86"
   sodipodi:docname="thumbnail.svg"
   inkscape:version="1.4 (86a8ad7, 2024-10-11)"
   xmlns:inkscape="http://www.inkscape.org/namespaces/inkscape"
   xmlns:sodipodi="http://sodipodi.sourceforge.net/DTD/sodipodi-0.dtd"
   xmlns="http://www.w3.org/2000/svg"
   xmlns:svg="http://www.w3.org/2000/svg"
   xmlns:rdf="http://www.w3.org/1999/02/22-rdf-syntax-ns#"
   xmlns:cc="http://creativecommons.org/ns#"
   xmlns:dc="http://purl.org/dc/elements/1.1/">
  <sodipodi:namedview
     id="namedview86"
     pagecolor="#505050"
     bordercolor="#ffffff"
     borderopacity="1"
     inkscape:showpageshadow="0"
     inkscape:pageopacity="0"
     inkscape:pagecheckerboard="1"
     inkscape:deskcolor="#505050"
     inkscape:document-units="mm"
     inkscape:zoom="0.34433224"
     inkscape:cx="403.67989"
     inkscape:cy="1633.5967"
     inkscape:window-width="1920"
     inkscape:window-height="991"
     inkscape:window-x="-9"
     inkscape:window-y="-9"
     inkscape:window-maximized="1"
     inkscape:current-layer="Page" />
  <title
     id="title1">FreeCAD SVG Export</title>
  <desc
     id="desc1">Drawing page: Page exported from FreeCAD document: Unnamed</desc>
  <defs
     id="defs1" />
  <g
     inkscape:label="TechDraw"
     inkscape:groupmode="layer"
     id="Page"
     transform="translate(1656.2008,-735.64709)">
    <circle
       style="fill:#ff0000;fill-opacity:0;stroke:#ff0000;stroke-width:1;stroke-dasharray:none;stroke-opacity:0"
       id="path142"
       cx="-1360.1251"
       cy="1031.7228"
       r="295.57568"
       inkscape:label="movement_circle" />
    <path
       id="path1"
       style="font-style:normal;font-weight:400;font-size:27.5167px;font-family:'MS Shell Dlg 2';fill:#c8c8c8;fill-opacity:1;stroke:#000000;stroke-width:1;stroke-linecap:square;stroke-linejoin:bevel;stroke-dasharray:none;stroke-opacity:1"
       d="m -1471.8864,922.16145 -4.185,6.205 -24.095,2.53204 -10.278,1.07999 c -0.232,0.319 -0.463,0.63901 -0.693,0.95901 -3.035,4.2244 -5.88,8.58186 -8.527,13.05946 -2.361,3.9936 -4.417,7.84293 -6.122,11.27843 -1.704,3.4354 -3.056,6.45698 -3.894,8.39598 -19.169,44.36454 -19.169,94.67574 0,139.04024 0.838,1.9415 2.186,4.9559 3.892,8.3903 1.704,3.4344 3.762,7.2885 6.124,11.2841 2.647,4.4776 5.492,8.8351 8.527,13.0595 0.23,0.32 0.461,0.64 0.693,0.959 l 10.278,1.08 24.095,2.532 4.185,6.205 h 223.449 l 4.185,-6.205 24.095,-2.532 10.348,-1.088 c 0.209,-0.286 0.417,-0.573 0.623,-0.86 3.035,-4.2172 5.88,-8.5669 8.527,-13.0365 2.363,-3.9888 4.422,-7.8362 6.126,-11.262 1.706,-3.4258 3.052,-6.4293 3.89,-8.3649 19.267,-44.4567 19.267,-94.9065 0,-139.36323 -0.838,-1.9348 -2.185,-4.94032 -3.891,-8.36652 -1.704,-3.4261 -3.763,-7.2722 -6.125,-11.2604 -2.647,-4.4696 -5.492,-8.81926 -8.527,-13.03646 -0.206,-0.287 -0.414,-0.574 -0.623,-0.86 l -10.348,-1.088 -24.095,-2.53204 -4.185,-6.205 z m -37.2483,55.17328 v 115.73287 l -1.9659,-0.051 -8.5271,-0.2233 -1.6279,-0.043 c -1.986,-4.0761 -3.686,-8.1098 -5.097,-11.9166 -0.705,-1.9033 -1.338,-3.75 -1.89,-5.4692 -0.552,-1.7192 -1.023,-3.311 -1.401,-4.6548 -6.521,-23.2232 -6.521,-47.7938 0,-71.01696 0.378,-1.346 0.849,-2.9359 1.4,-4.6533 0.552,-1.7174 1.184,-3.56241 1.889,-5.46541 1.411,-3.806 3.112,-7.84441 5.099,-11.92191 l 1.6279,-0.0426 8.5271,-0.22334 z m 298.0191,0 1.966,0.0515 8.527,0.22334 1.628,0.0426 c 1.986,4.0744 3.686,8.10861 5.096,11.91401 0.705,1.9027 1.338,3.74821 1.89,5.46881 0.553,1.7207 1.025,3.3165 1.402,4.6578 6.521,23.22311 6.521,47.79371 0,71.01691 -0.378,1.346 -0.849,2.9359 -1.4,4.6533 -0.552,1.7174 -1.184,3.5623 -1.889,5.4654 -1.41,3.806 -3.112,7.8444 -5.099,11.9219 l -1.628,0.043 -8.527,0.2233 -1.966,0.051 z"
       inkscape:label="base" />
    <path
       vector-effect="non-scaling-stroke"
       fill-rule="evenodd"
       d="m -1158.7011,1048.2046 c 0.279,-4.3321 0.419,-8.672 0.419,-13.0131 v 0 c 0,-4.3411 -0.14,-8.681 -0.419,-13.0131 l -0.265,-3.5964 -0.329,-3.591 -0.393,-3.5847 -0.457,-3.577 -0.521,-3.5684 -0.584,-3.5584 -0.648,-3.5474 -0.711,-3.53535 -0.774,-3.522 -0.837,-3.5077 -0.9,-3.4921 -0.962,-3.4755 -1.023,-3.4577 -1.086,-3.4389 h -42.136 -299.596 -42.136 l -1.086,3.4389 -1.023,3.4577 -0.962,3.4755 -0.9,3.4921 -0.837,3.5077 -0.774,3.522 -0.711,3.53535 -0.648,3.5474 -0.584,3.5584 -0.521,3.5684 -0.457,3.577 -0.393,3.5847 -0.329,3.591 -0.265,3.5964 v 0 c -0.279,4.3321 -0.419,8.672 -0.419,13.0131 v 0 c 0,4.3411 0.14,8.681 0.419,13.0131 l 0.265,3.5964 0.329,3.591 0.393,3.5847 0.457,3.577 0.521,3.5684 0.584,3.5584 0.648,3.5474 0.711,3.5353 0.774,3.522 0.837,3.5077 0.9,3.4921 0.962,3.4755 1.023,3.4577 1.086,3.4389 h 42.136 299.596 42.136 l 1.086,-3.4389 1.023,-3.4577 0.962,-3.4755 0.9,-3.4921 0.837,-3.5077 0.774,-3.522 0.711,-3.5353 0.648,-3.5474 0.584,-3.5584 0.521,-3.5684 0.457,-3.577 0.393,-3.5847 0.329,-3.591 0.265,-3.5964"
       id="path1-9"
       style="font-style:normal;font-weight:400;font-size:27.5167px;font-family:'MS Shell Dlg 2';fill:#c8c8c8;fill-opacity:1;stroke:#000000;stroke-width:1;stroke-linecap:square;stroke-linejoin:bevel;stroke-dasharray:none;stroke-opacity:1"
       inkscape:label="yoke" />
    <g
       id="g142"
       inkscape:label="head">
      <g
         id="g191"
         style="fill:#c8c8c8;fill-opacity:1;stroke:#000000;stroke-width:1;stroke-dasharray:none;stroke-opacity:1"
         transform="translate(1669.5605,1550.3713)">
        <path
           vector-effect="non-scaling-stroke"
           fill-rule="evenodd"
           d="m -2874.6856,-490.1816 v -24.9234 -24.9235 h -13.132 v -19.5987 l -2.025,-0.2845 -0.135,-30.1887 c -0.695,-19.929 -1.414,-39.857 -2.156,-59.784 l -45.8898,-42.05 c -6.8684,-6.294 -15.8582,-9.765 -25.1741,-9.72 l -5.3499,-4.489 h -122.2764 l -5.3499,4.489 c -9.3159,-0.045 -18.3057,3.426 -25.1741,9.72 l -45.8898,42.05 c -0.742,19.927 -1.461,39.855 -2.156,59.784 l -0.135,30.1887 -2.025,0.2845 v 19.5987 h -13.132 v 24.9235 24.9234 h 13.132 v 19.59872 l 2.175,0.30557 v 27.34891 l 9.999,2.9619 c 0.89,34.6967 2.715,69.3631 5.474,103.9611 l 0.606,0.65 2.393,30.67 c 0.087,1.107 0.157,2.013 0.206,2.631 0.048,0.619 0.074,0.95 0.074,0.95 l 4.25,0.749 5.233,34.5 9.59,23.5 h 0.163 0.489 0.812 1.1329 0.7688 v 0.2 l 2.5,2.5 h 192.0046 l 2.5,-2.5 v -0.2 h 0.7688 1.1329 0.812 0.489 0.163 l 9.59,-23.5 5.233,-34.5 4.25,-0.749 c 0,0 0.026,-0.331 0.074,-0.95 0.049,-0.618 0.119,-1.524 0.206,-2.631 l 2.393,-30.67 0.606,-0.65 c 2.759,-34.598 4.584,-69.2644 5.474,-103.9611 l 9.999,-2.9619 v -27.34891 l 2.175,-0.30557 v -19.59872 h 13.132"
           id="path1-5"
           style="font-style:normal;font-weight:400;font-size:27.5167px;font-family:'MS Shell Dlg 2';fill:#c8c8c8;fill-opacity:1;stroke:#000000;stroke-width:1;stroke-linecap:square;stroke-linejoin:bevel;stroke-dasharray:none;stroke-opacity:1" />
      </g>
      <rect
         style="fill:#c8c8c8;fill-opacity:1;stroke:#000000;stroke-width:0.640187;stroke-dasharray:none;stroke-opacity:1"
         id="rect142"
         width="221.73695"
         height="0.11144943"
         x="-1471.0956"
         y="1284.7368" />
    </g>
    <rect
       style="fill:#00ff00;fill-opacity:0;stroke:#00ff00;stroke-width:1;stroke-dasharray:none;stroke-opacity:0"
       id="rect143"
       width="107.58085"
       height="17.930141"
       x="-1413.9155"
       y="922.51184"
       inkscape:label="pigtail" />
  </g>
  <metadata
     id="metadata143">
    <rdf:RDF>
      <cc:Work
         rdf:about="">
        <dc:title>FreeCAD SVG Export</dc:title>
      </cc:Work>
    </rdf:RDF>
  </metadata>
</svg>
