<?xml version="1.0" encoding="UTF-8" standalone="no"?>
<svg
   id="svg2"
   version="1.1"
   viewBox="0 0 392.99997 262"
   height="262mm"
   width="392.99997mm"
   sodipodi:docname="combine.svg"
   inkscape:version="1.2.1 (9c6d41e410, 2022-07-14)"
   xmlns:inkscape="http://www.inkscape.org/namespaces/inkscape"
   xmlns:sodipodi="http://sodipodi.sourceforge.net/DTD/sodipodi-0.dtd"
   xmlns:xlink="http://www.w3.org/1999/xlink"
   xmlns="http://www.w3.org/2000/svg"
   xmlns:svg="http://www.w3.org/2000/svg"
   xmlns:rdf="http://www.w3.org/1999/02/22-rdf-syntax-ns#"
   xmlns:cc="http://creativecommons.org/ns#"
   xmlns:dc="http://purl.org/dc/elements/1.1/">
  <sodipodi:namedview
     id="namedview909"
     pagecolor="#ffffff"
     bordercolor="#000000"
     borderopacity="0.25"
     inkscape:showpageshadow="2"
     inkscape:pageopacity="0.0"
     inkscape:pagecheckerboard="0"
     inkscape:deskcolor="#d1d1d1"
     inkscape:document-units="mm"
     showgrid="false"
     inkscape:zoom="0.70710678"
     inkscape:cx="861.25606"
     inkscape:cy="516.89506"
     inkscape:window-width="2400"
     inkscape:window-height="1421"
     inkscape:window-x="2391"
     inkscape:window-y="-9"
     inkscape:window-maximized="1"
     inkscape:current-layer="svg2" />
  <!-- Working space 10 10 410 287 -->
  <!-- Title block 220 227 410 287 -->
  <g
     id="g17897"
     transform="translate(-12.820336,-13.040377)">
    <path
       id="path3712"
       style="color:#000000;fill:#c8c8c8;fill-opacity:1;stroke:#000000;stroke-width:1.33152;stroke-dasharray:none;stroke-opacity:1"
       d="m 117.57097,29.7076 -52.635907,6.677718 h -0.002 l -0.624922,0.08593 -0.62148,0.101056 -0.618728,0.114801 -0.616663,0.129925 -0.61391,0.142299 -0.608405,0.158797 -0.606339,0.17117 -0.603586,0.187669 -0.598081,0.197294 -0.593262,0.213104 -0.585005,0.226164 -0.585693,0.241289 -0.574681,0.252289 -0.572615,0.26741 c -2.608735,1.254308 -5.00034,2.91509 -7.088183,4.918579 -0.774777,0.743661 -1.503077,1.529838 -2.185162,2.35858 -0.0016,0.0018 -0.0032,0.0036 -0.0049,0.0055 -2.666813,3.979701 -5.169941,8.066876 -7.504569,12.250046 -1.492327,2.675764 -2.858402,5.286447 -4.094341,7.789295 -1.235939,2.502756 -2.342475,4.898123 -3.309055,7.098431 -5.641997,12.835783 -9.725606,26.300166 -12.163267,40.105494 -0.894756,5.07614 -1.559839,10.15751 -2.002779,15.24105 -0.196874,2.25321 -0.34344,4.5092 -0.452861,6.76503 -0.07933,1.6421 -0.144941,3.2867 -0.178943,4.93163 -5.31e-4,0.0199 -0.0023,0.0399 -0.0027,0.0598 -0.0079,0.39001 -0.01532,0.77923 -0.02065,1.16932 v 0.11136 c -5.33e-4,0.0312 -0.0023,0.0622 -0.0027,0.0935 -0.0014,0.1412 -0.0014,0.28225 -0.0027,0.42347 -0.0012,0.1187 -0.0016,0.23742 -0.0027,0.35608 -6.66e-4,0.0564 -0.0022,0.11284 -0.0027,0.16912 -1.52e-4,0.0242 1.12e-4,0.0487 0,0.0729 l -0.0027,0.17666 c -2.36e-4,0.0747 4.76e-4,0.14839 0,0.22342 -5.7e-5,0.007 5.2e-5,0.014 0,0.0206 -9.76e-4,0.081 0,0.16392 0,0.24679 v 0.0859 c 0,0.0372 -0.0018,0.0752 -0.0027,0.11411 v 0.008 0.0151 0.0832 0.27841 0.0488 0.0344 0.0151 0.008 c 6.64e-4,0.0278 0.0027,0.0563 0.0027,0.0832 v 0.0337 c 0,0.0288 -1.5e-5,0.0572 0,0.0859 0,0.083 -9.76e-4,0.16302 0,0.24403 5.2e-5,0.007 -5.8e-5,0.014 0,0.0207 4.76e-4,0.0751 -2.36e-4,0.14878 0,0.22342 h 0.0027 l 0.0027,0.41864 c 0.0012,0.11958 0.0016,0.23856 0.0027,0.35815 l 0.0076,0.62625 h -0.0027 c 0.0053,0.38695 0.01348,0.77488 0.02134,1.16176 4e-4,0.0174 0.0024,0.0343 0.0027,0.0516 0.03295,1.62643 0.09885,3.25086 0.176876,4.87459 0.109742,2.2826 0.255651,4.56345 0.454927,6.84339 0.442941,5.08273 1.108174,10.16033 2.002779,15.23555 2.437661,13.80533 6.52127,27.26972 12.163267,40.10549 0.96658,2.20032 2.073114,4.59557 3.309055,7.09843 1.23594,2.50278 2.602014,5.11355 4.094341,7.7893 2.581705,4.62596 5.372609,9.13468 8.360051,13.51011 0.0012,10e-4 0.0016,0.004 0.0027,0.005 0.428036,0.47191 0.872384,0.92819 1.331743,1.36936 2.087843,2.0035 4.479448,3.66359 7.088183,4.91791 v -0.003 l 0.572615,0.26811 0.574681,0.25433 0.585693,0.23923 0.585005,0.22617 0.593262,0.21311 0.598081,0.20002 0.603586,0.18426 0.605651,0.17116 0.609093,0.15878 0.61391,0.143 0.616663,0.12992 0.618728,0.11412 0.62148,0.10109 0.624234,0.0859 h 0.0027 l 52.664823,6.67978 h 183.44073 l 52.66413,-6.67978 h 0.003 l 0.62425,-0.0859 0.62149,-0.10109 0.61939,-0.11412 0.61667,-0.12992 0.6139,-0.143 0.61118,-0.15878 0.60633,-0.17116 0.60289,-0.18426 0.59603,-0.20002 0.59325,-0.21311 0.58778,-0.22617 0.58224,-0.23923 0.57742,-0.25433 0.56988,-0.26535 c 10e-4,0 0.002,-0.002 0.003,-0.003 2.60748,-1.25414 5.00119,-2.91316 7.08818,-4.91584 0.46335,-0.44499 0.90854,-0.90548 1.34001,-1.38175 2.98547,-4.373 5.77504,-8.87929 8.35524,-13.50253 1.49234,-2.67575 2.85839,-5.28653 4.09433,-7.7893 1.23595,-2.50286 2.34177,-4.89812 3.30836,-7.09843 5.64201,-12.83578 9.72561,-26.30017 12.16328,-40.10549 1.18817,-6.7354 1.9361,-13.48124 2.33312,-20.25037 0.0515,-0.87857 0.13658,-1.75504 0.17481,-2.63424 0.003,-0.0719 0.005,-0.14402 0.007,-0.21587 0.0469,-1.11991 0.0833,-2.24039 0.10943,-3.36154 v -0.0138 c 0.003,-0.0788 0.007,-0.15758 0.008,-0.23647 0.0133,-0.63758 0.0216,-1.27453 0.0283,-1.91177 10e-4,-0.32058 0.007,-0.64093 0.008,-0.95895 9.9e-4,-0.15851 0,-0.31686 0,-0.4757 v -0.11962 c 0,-0.0379 0.003,-0.0732 0.003,-0.10655 1e-5,-0.004 0,-0.008 0,-0.0103 v -0.0729 -0.27772 -0.0832 c 0,-0.0334 -0.003,-0.0688 -0.003,-0.10654 v -0.11688 c 0,-0.15882 9.9e-4,-0.31995 0,-0.47844 -10e-4,-0.31801 -0.007,-0.63562 -0.008,-0.95621 -0.007,-0.63808 -0.0176,-1.27608 -0.031,-1.9145 -0.0263,-1.20443 -0.0639,-2.40878 -0.11424,-3.61177 -0.003,-0.0709 -0.006,-0.14207 -0.008,-0.21312 -0.0383,-0.88064 -0.12257,-1.75977 -0.17411,-2.63973 -0.39709,-6.76831 -1.14511,-13.51228 -2.33313,-20.24694 -2.43767,-13.805318 -6.52196,-27.269726 -12.16397,-40.105499 -0.9666,-2.200308 -2.07518,-4.595674 -3.31113,-7.098432 -1.23593,-2.502858 -2.59923,-5.113531 -4.09157,-7.789295 -2.33732,-4.187977 -4.84738,-8.279081 -7.51766,-12.263106 -10e-4,-0.0014 -0.002,-0.004 -0.003,-0.0055 -0.67904,-0.824027 -1.40337,-1.606383 -2.17415,-2.346207 -2.08728,-2.002966 -4.48091,-3.6637 -7.08886,-4.917892 h -0.003 l -0.56919,-0.268098 -0.57743,-0.251601 -0.58292,-0.241976 -0.58778,-0.226164 -0.59325,-0.213104 -0.59534,-0.197294 -0.60359,-0.186981 -0.60633,-0.171171 -0.61117,-0.158796 -0.6139,-0.142986 -0.61667,-0.129926 -0.61872,-0.114114 -0.62217,-0.101055 -0.62425,-0.08593 h -0.003 l -52.63246,-6.677728 h -0.0111 -183.48203 z m -76.592853,57.33942 8.238234,1.616145 12.748267,2.50157 V 196.9159 l -12.748267,2.50156 -8.368311,1.64228 c -0.378339,-0.78835 -0.750949,-1.57873 -1.113572,-2.37439 -3.115931,-6.84075 -5.564299,-13.77462 -7.399957,-20.66903 -5.902796,-22.16647 -5.902796,-45.48924 0,-67.65573 1.835658,-6.89431 4.284026,-13.828178 7.399957,-20.669015 0.40416,-0.88719 0.819997,-1.76657 1.243649,-2.644555 z m 336.686313,0 c 0.42365,0.877985 0.8395,1.757365 1.24367,2.644555 3.11592,6.840837 5.56222,13.774695 7.39788,20.669015 5.90281,22.1665 5.90281,45.48925 0,67.65573 -1.83566,6.89442 -4.28196,13.82828 -7.39788,20.66903 -0.36263,0.79566 -0.73525,1.58604 -1.11358,2.37439 l -8.36762,-1.64228 -12.75172,-2.50156 V 91.164735 l 12.75172,-2.50157 z" />
  </g>
  <metadata
     id="metadata849">
    <rdf:RDF>
      <cc:Work
         rdf:about="">
        <dc:format>image/svg+xml</dc:format>
        <dc:type
           rdf:resource="http://purl.org/dc/dcmitype/StillImage" />
      </cc:Work>
    </rdf:RDF>
  </metadata>
  <defs
     id="defs847">
    <linearGradient
       gradientUnits="userSpaceOnUse"
       id="defitem29"
       y2="485.909"
       x2="655.35199"
       y1="807.466"
       x1="649.42902">
      <stop
         id="stop92"
         offset="0.0000000"
         style="stop-color:#ffffff;stop-opacity:1.0000000;" />
      <stop
         id="stop93"
         offset="1.0000000"
         style="stop-color:#ffffff;stop-opacity:0.13756600;" />
    </linearGradient>
    <linearGradient
       xlink:href="#defitem29"
       id="linearGradient3448"
       gradientUnits="userSpaceOnUse"
       x1="649.42902"
       y1="807.466"
       x2="655.35199"
       y2="485.909" />
    <radialGradient
       gradientUnits="userSpaceOnUse"
       id="defitem28"
       fy="345.56"
       fx="1049.72"
       r="1202.15"
       cy="345.56"
       cx="1049.72">
      <stop
         id="stop89"
         offset="0.0000000"
         style="stop-color:#ffffff;stop-opacity:1.0000000;" />
      <stop
         id="stop90"
         offset="1.0000000"
         style="stop-color:#a8a8a8;stop-opacity:1.0000000;" />
    </radialGradient>
    <radialGradient
       xlink:href="#defitem28"
       id="radialGradient3446"
       gradientUnits="userSpaceOnUse"
       cx="1092.7045"
       cy="64.845284"
       fx="1089.4004"
       fy="64.844765"
       r="1202.15" />
    <linearGradient
       gradientUnits="userSpaceOnUse"
       id="defitem30"
       y2="636.70697"
       x2="980"
       y1="636.70697"
       x1="287.5">
      <stop
         id="stop95"
         offset="0.0000000"
         style="stop-color:#464646;stop-opacity:1.0000000;" />
      <stop
         id="stop96"
         offset="1.0000000"
         style="stop-color:#c2c2c2;stop-opacity:1.0000000;" />
    </linearGradient>
    <linearGradient
       xlink:href="#defitem30"
       id="linearGradient3444"
       gradientUnits="userSpaceOnUse"
       gradientTransform="matrix(1,0,0,1.016038,0,-11.73855)"
       x1="287.5"
       y1="636.70697"
       x2="980"
       y2="636.70697" />
    <linearGradient
       gradientUnits="userSpaceOnUse"
       id="defitem27"
       y2="317.44699"
       x2="985.98199"
       y1="403.18799"
       x1="921.091">
      <stop
         id="stop86"
         offset="0.0000000"
         style="stop-color:#7e7e7e;stop-opacity:1.0000000;" />
      <stop
         id="stop87"
         offset="1.0000000"
         style="stop-color:#e5e5e5;stop-opacity:1.0000000;" />
    </linearGradient>
    <linearGradient
       xlink:href="#defitem27"
       id="linearGradient3442"
       gradientUnits="userSpaceOnUse"
       x1="921.091"
       y1="403.18799"
       x2="985.98199"
       y2="317.44699" />
    <linearGradient
       gradientUnits="userSpaceOnUse"
       id="defitem26"
       y2="360.27499"
       x2="293.37"
       y1="346.30399"
       x1="530.76099">
      <stop
         id="stop83"
         offset="0.0000000"
         style="stop-color:#5f5f5f;stop-opacity:1.0000000;" />
      <stop
         id="stop84"
         offset="1.0000000"
         style="stop-color:#e5e5e5;stop-opacity:1.0000000;" />
    </linearGradient>
    <linearGradient
       xlink:href="#defitem26"
       id="linearGradient3440"
       gradientUnits="userSpaceOnUse"
       x1="530.76099"
       y1="346.30399"
       x2="293.37"
       y2="360.27499" />
    <linearGradient
       gradientUnits="userSpaceOnUse"
       id="defitem25"
       y2="337.60999"
       x2="308.75"
       y1="412.91901"
       x1="164.013">
      <stop
         id="stop80"
         offset="0.0000000"
         style="stop-color:#ffffff;stop-opacity:1.0000000;" />
      <stop
         id="stop81"
         offset="1.0000000"
         style="stop-color:#bfbfbf;stop-opacity:1.0000000;" />
    </linearGradient>
    <linearGradient
       xlink:href="#defitem25"
       id="linearGradient3438"
       gradientUnits="userSpaceOnUse"
       x1="164.013"
       y1="412.91901"
       x2="308.75"
       y2="337.60999" />
    <linearGradient
       gradientUnits="userSpaceOnUse"
       id="defitem24"
       y2="380.47198"
       x2="992.48901"
       y1="270.854"
       x1="1094.25">
      <stop
         id="stop77"
         offset="0.0000000"
         style="stop-color:#6a6a6a;stop-opacity:1.0000000;" />
      <stop
         id="stop78"
         offset="1.0000000"
         style="stop-color:#e6e6e6;stop-opacity:1.0000000;" />
    </linearGradient>
    <linearGradient
       xlink:href="#defitem24"
       id="linearGradient3436"
       gradientUnits="userSpaceOnUse"
       x1="1094.25"
       y1="270.854"
       x2="992.48901"
       y2="380.47198" />
    <linearGradient
       gradientUnits="userSpaceOnUse"
       id="defitem23"
       y2="549.37799"
       x2="1049.84"
       y1="476.465"
       x1="1170.91">
      <stop
         id="stop74"
         offset="0.0000000"
         style="stop-color:#5f5f5f;stop-opacity:1.0000000;" />
      <stop
         id="stop75"
         offset="1.0000000"
         style="stop-color:#ebebeb;stop-opacity:1.0000000;" />
    </linearGradient>
    <linearGradient
       xlink:href="#defitem23"
       id="linearGradient3434"
       gradientUnits="userSpaceOnUse"
       x1="1170.91"
       y1="476.465"
       x2="1049.84"
       y2="549.37799" />
    <linearGradient
       gradientUnits="userSpaceOnUse"
       id="defitem22"
       y2="313.276"
       x2="576.14899"
       y1="105.486"
       x1="783.716">
      <stop
         id="stop71"
         offset="0.0000000"
         style="stop-color:#5a5a5a;stop-opacity:1.0000000;" />
      <stop
         id="stop72"
         offset="1.0000000"
         style="stop-color:#c7c7c7;stop-opacity:1.0000000;" />
    </linearGradient>
    <linearGradient
       xlink:href="#defitem22"
       id="linearGradient3432"
       gradientUnits="userSpaceOnUse"
       x1="783.716"
       y1="105.486"
       x2="576.14899"
       y2="313.276" />
    <linearGradient
       gradientUnits="userSpaceOnUse"
       id="defitem21"
       y2="484.716"
       x2="128.05499"
       y1="418.698"
       x1="280.04401">
      <stop
         id="stop68"
         offset="0.0000000"
         style="stop-color:#666666;stop-opacity:1.0000000;" />
      <stop
         id="stop69"
         offset="1.0000000"
         style="stop-color:#d8d8d8;stop-opacity:1.0000000;" />
    </linearGradient>
    <linearGradient
       xlink:href="#defitem21"
       id="linearGradient3430"
       gradientUnits="userSpaceOnUse"
       x1="280.04401"
       y1="418.698"
       x2="128.05499"
       y2="484.716" />
    <linearGradient
       gradientUnits="userSpaceOnUse"
       id="defitem20"
       y2="584.40997"
       x2="220"
       y1="636.95398"
       x1="129.687">
      <stop
         id="stop65"
         offset="0.0000000"
         style="stop-color:#ffffff;stop-opacity:1.0000000;" />
      <stop
         id="stop66"
         offset="1.0000000"
         style="stop-color:#bbbbbb;stop-opacity:1.0000000;" />
    </linearGradient>
    <linearGradient
       xlink:href="#defitem20"
       id="linearGradient3428"
       gradientUnits="userSpaceOnUse"
       x1="129.687"
       y1="636.95398"
       x2="220"
       y2="584.40997" />
    <linearGradient
       gradientUnits="userSpaceOnUse"
       id="defitem19"
       y2="583.75299"
       x2="1127.98"
       y1="629.02802"
       x1="1048.72">
      <stop
         id="stop62"
         offset="0.0000000"
         style="stop-color:#5e5e5e;stop-opacity:1.0000000;" />
      <stop
         id="stop63"
         offset="1.0000000"
         style="stop-color:#ededed;stop-opacity:1.0000000;" />
    </linearGradient>
    <linearGradient
       xlink:href="#defitem19"
       id="linearGradient3426"
       gradientUnits="userSpaceOnUse"
       x1="1048.72"
       y1="629.02802"
       x2="1127.98"
       y2="583.75299" />
    <linearGradient
       gradientUnits="userSpaceOnUse"
       id="defitem18"
       y2="291.97699"
       x2="581.32397"
       y1="387.27301"
       x1="370.022">
      <stop
         id="stop59"
         offset="0.0000000"
         style="stop-color:#636363;stop-opacity:1.0000000;" />
      <stop
         id="stop60"
         offset="1.0000000"
         style="stop-color:#d6d6d6;stop-opacity:1.0000000;" />
    </linearGradient>
    <linearGradient
       xlink:href="#defitem18"
       id="linearGradient3424"
       gradientUnits="userSpaceOnUse"
       x1="370.022"
       y1="387.27301"
       x2="581.32397"
       y2="291.97699" />
    <linearGradient
       gradientUnits="userSpaceOnUse"
       id="defitem17"
       y2="351.939"
       x2="909.59399"
       y1="351.939"
       x1="732.15601">
      <stop
         id="stop56"
         offset="0.0000000"
         style="stop-color:#676767;stop-opacity:1.0000000;" />
      <stop
         id="stop57"
         offset="1.0000000"
         style="stop-color:#d3d3d3;stop-opacity:1.0000000;" />
    </linearGradient>
    <linearGradient
       xlink:href="#defitem17"
       id="linearGradient3422"
       gradientUnits="userSpaceOnUse"
       x1="732.15601"
       y1="351.939"
       x2="909.59399"
       y2="351.939" />
    <linearGradient
       gradientUnits="userSpaceOnUse"
       id="defitem16"
       y2="494.71301"
       x2="1073.01"
       y1="494.71301"
       x1="1014.43">
      <stop
         id="stop53"
         offset="0.0000000"
         style="stop-color:#666666;stop-opacity:1.0000000;" />
      <stop
         id="stop54"
         offset="1.0000000"
         style="stop-color:#dcdcdc;stop-opacity:1.0000000;" />
    </linearGradient>
    <linearGradient
       xlink:href="#defitem16"
       id="linearGradient3420"
       gradientUnits="userSpaceOnUse"
       x1="1014.43"
       y1="494.71301"
       x2="1073.01"
       y2="494.71301" />
    <linearGradient
       gradientUnits="userSpaceOnUse"
       id="defitem15"
       y2="516.37"
       x2="193.27699"
       y1="452.388"
       x1="272.59201">
      <stop
         id="stop50"
         offset="0.0000000"
         style="stop-color:#6e6e6e;stop-opacity:1.0000000;" />
      <stop
         id="stop51"
         offset="1.0000000"
         style="stop-color:#d8d8d8;stop-opacity:1.0000000;" />
    </linearGradient>
    <linearGradient
       xlink:href="#defitem15"
       id="linearGradient3418"
       gradientUnits="userSpaceOnUse"
       x1="272.59201"
       y1="452.388"
       x2="193.27699"
       y2="516.37" />
    <radialGradient
       gradientUnits="userSpaceOnUse"
       id="defitem14"
       fy="211.088"
       fx="1037.22"
       r="1164.28"
       cy="211.088"
       cx="1037.22">
      <stop
         id="stop47"
         offset="0.0000000"
         style="stop-color:#ffffff;stop-opacity:1.0000000;" />
      <stop
         id="stop48"
         offset="1.0000000"
         style="stop-color:#aaaaaa;stop-opacity:1.0000000;" />
    </radialGradient>
    <radialGradient
       xlink:href="#defitem14"
       id="radialGradient3416"
       gradientUnits="userSpaceOnUse"
       cx="1037.22"
       cy="211.088"
       fx="1037.22"
       fy="211.088"
       r="1164.28" />
    <linearGradient
       gradientUnits="userSpaceOnUse"
       id="defitem13"
       y2="686.83002"
       x2="379.241"
       y1="732.12903"
       x1="342.64999">
      <stop
         id="stop44"
         offset="0.0000000"
         style="stop-color:#ffffff;stop-opacity:1.0000000;" />
      <stop
         id="stop45"
         offset="1.0000000"
         style="stop-color:#989898;stop-opacity:1.0000000;" />
    </linearGradient>
    <linearGradient
       xlink:href="#defitem13"
       id="linearGradient3414"
       gradientUnits="userSpaceOnUse"
       x1="342.64999"
       y1="732.12903"
       x2="379.241"
       y2="686.83002" />
    <radialGradient
       gradientUnits="userSpaceOnUse"
       id="defitem12"
       fy="484.409"
       fx="632.78101"
       r="540.27899"
       cy="484.409"
       cx="632.78101">
      <stop
         id="stop41"
         offset="0.0000000"
         style="stop-color:#ffffff;stop-opacity:1.0000000;" />
      <stop
         id="stop42"
         offset="1.0000000"
         style="stop-color:#ededed;stop-opacity:1.0000000;" />
    </radialGradient>
    <radialGradient
       xlink:href="#defitem12"
       id="radialGradient3412"
       gradientUnits="userSpaceOnUse"
       cx="632.78101"
       cy="484.409"
       fx="632.78101"
       fy="484.409"
       r="540.27899" />
    <radialGradient
       xlink:href="#linearGradient3682"
       id="radialGradient3817"
       gradientUnits="userSpaceOnUse"
       gradientTransform="matrix(1.1149219,0.2722306,-0.7507171,3.0745639,-471.08629,-148.32863)"
       cx="270.58316"
       cy="33.899986"
       fx="270.58316"
       fy="33.899986"
       r="19.571428" />
    <linearGradient
       id="linearGradient3682">
      <stop
         style="stop-color:#ff6d0f;stop-opacity:1;"
         offset="0"
         id="stop3684" />
      <stop
         style="stop-color:#ff1000;stop-opacity:1;"
         offset="1"
         id="stop3686" />
    </linearGradient>
    <radialGradient
       xlink:href="#linearGradient3864"
       id="radialGradient3661"
       gradientUnits="userSpaceOnUse"
       gradientTransform="matrix(0.6186598,0.9666542,-1.0332462,0.6612786,-327.27568,-255.84136)"
       cx="282.64584"
       cy="29.149046"
       fx="282.64584"
       fy="29.149046"
       r="19.571428" />
    <linearGradient
       id="linearGradient3864">
      <stop
         id="stop3866"
         offset="0"
         style="stop-color:#71b2f8;stop-opacity:1;" />
      <stop
         id="stop3868"
         offset="1"
         style="stop-color:#002795;stop-opacity:1;" />
    </linearGradient>
  </defs>
  <g
     id="g17894"
     transform="translate(-73.375006,312.50416)">
    <path
       style="color:#000000;fill:#c8c8c8;fill-opacity:1;stroke-width:1.32491;-inkscape-stroke:none"
       d="m 73.807468,-243.57696 v 0.22946 h -0.233762 v 124.14405 h 0.233762 v 0.22946 h 0.04157 0.127273 0.215581 0.296099 0.384412 0.470122 0.55324 0.638953 0.724666 0.812976 0.896092 0.979208 1.06492 1.150634 45.048756 2.82334 35.82807 208.02323 35.82548 2.82594 45.04615 1.15323 1.06491 0.97923 0.8961 0.81036 0.72467 0.63896 0.55583 0.46753 0.38441 0.2987 0.21298 0.12994 0.0415 v -0.22946 h 0.23376 V -243.3475 h -0.23376 v -0.22946 h -0.0415 -0.12994 -0.21298 -0.2987 -0.38441 -0.46753 -0.55583 -0.63896 -0.72467 -0.81036 -0.8961 -0.97923 -1.06491 -1.15323 -45.04615 -2.82594 -35.82548 -208.02321 -35.82806 -2.82335 -45.048771 -1.150634 -1.06492 -0.979208 -0.896092 -0.812976 -0.724665 -0.638954 -0.553239 -0.470123 -0.384411 -0.296099 -0.215582 -0.12726 z"
       id="34" />
    <g
       id="g33213"
       transform="matrix(1.3298525,0,0,1.3199958,-17.857551,-375.84982)">
      <g
         id="g33207">
        <path
           style="color:#000000;fill:none;fill-opacity:0.434783;stroke:#000000;stroke-opacity:1;-inkscape-stroke:none"
           d="m 357.66602,100.55664 h 0.71679 0.80078 0.73633 0.67383 0.60937 0.54493 0.48047 0.41796 0.35157 0.28906 0.22461 0.11328 v 93.69727 h -0.11328 -0.22461 -0.28906 -0.35157 -0.41796 -0.48047 -0.54493 -0.60937 -0.67383 -0.73633 -0.80078 -0.71679 c -0.20429,-0.89554 -0.40725,-2.08047 -0.60352,-3.625 -0.20356,-1.60208 -0.40401,-3.55136 -0.58984,-5.8086 -0.22503,-0.19101 -0.78557,-0.8096 -1.22848,-1.23044 l -1.13672,-1.16015 -1.10156,-1.20508 -1.05859,-1.24609 -1.02149,-1.28516 -0.97851,-1.32617 -0.93555,-1.36133 -0.89063,-1.39844 -0.84765,-1.43164 -0.79883,-1.46289 -0.75391,-1.49414 -0.70508,-1.52344 -0.65429,-1.54883 -0.60742,-1.57421 c -0.44781,-0.53389 -2.01048,-0.99003 -2.80666,-1.33985 l -2.51954,-1.2539 -2.32617,-1.26563 -2.12695,-1.27539 -1.92774,-1.28516 -1.72656,-1.29297 -1.52539,-1.29882 -1.32226,-1.30274 -1.11914,-1.30664 -0.91407,-1.31055 -0.71093,-1.30859 -0.50586,-1.31055 -0.30469,-1.30859 -0.10156,-1.30664 0.10156,-1.30859 0.30469,-1.3086 0.50586,-1.30859 0.71093,-1.31055 0.91407,-1.30859 1.11914,-1.3086 1.32226,-1.30273 1.52539,-1.29883 1.72656,-1.29297 1.92774,-1.28515 2.12695,-1.27539 2.32617,-1.26563 2.51954,-1.25391 2.71679,-1.24218 c 0.11083,-0.29961 0.46928,-1.08024 0.69732,-1.67197 l 0.65429,-1.54883 0.70508,-1.52343 0.75391,-1.49414 0.79883,-1.46289 0.84765,-1.43164 0.89063,-1.39844 0.93555,-1.36133 0.97851,-1.32617 1.02149,-1.28516 1.05859,-1.24609 1.10156,-1.20508 1.13672,-1.16016 c 0.36312,-0.35167 1.14128,-1.08328 1.22852,-1.22848 0.18583,-2.25725 0.38628,-4.20846 0.58984,-5.81055 0.19627,-1.54452 0.39923,-2.72946 0.60352,-3.625 z"
           id="path33202"
           sodipodi:nodetypes="ccccccccccccccccccccccccccscccccccccccccccccccccccccccccccccccccccccccccccccccccccccssc" />
        <path
           style="color:#000000;fill:none;fill-opacity:0.434783;stroke:#000000;stroke-opacity:1;-inkscape-stroke:none"
           d="m 75.417969,100.55664 h 33.669921 2.12305 26.9414 156.42578 26.93946 2.125 33.66797 c -0.20386,0.908 -0.40283,2.06417 -0.59571,3.58203 -0.20196,1.58953 -0.39779,3.52736 -0.58203,5.75391 l -1.13476,1.08008 -1.14649,1.16797 -1.10742,1.21289 -1.06836,1.25586 -1.02734,1.29492 -0.98633,1.33593 -0.94141,1.3711 -0.89843,1.4082 -0.85157,1.44141 -0.80664,1.47461 -0.75781,1.5039 -0.70898,1.53321 -0.66016,1.56054 -0.58399,1.51367 -2.65625,1.2168 -2.53125,1.25781 -2.33789,1.27344 -2.14062,1.2832 -1.94141,1.29493 -1.74414,1.30468 -1.54492,1.31446 -1.3418,1.32226 -1.13867,1.33203 -0.93555,1.33985 -0.73046,1.3457 -0.52344,1.35352 -0.31445,1.35937 -0.10352,1.34766 0.17383,0.0137 -0.17383,0.0117 0.10352,1.34765 0.31445,1.35938 0.52344,1.35352 0.73046,1.3457 0.93555,1.33984 1.13867,1.33203 1.3418,1.32422 1.54492,1.3125 1.74414,1.30469 1.94141,1.29492 2.14062,1.2832 2.33789,1.27344 2.53125,1.25977 2.65625,1.21484 0.58399,1.51563 0.66016,1.55859 0.70898,1.5332 0.75781,1.50391 0.80664,1.47461 0.85157,1.44141 0.89843,1.4082 0.94141,1.37109 0.98633,1.33594 1.02734,1.29492 1.06836,1.25586 1.10742,1.21289 1.14649,1.16992 1.13476,1.07813 c 0.18424,2.22654 0.38007,4.16439 0.58203,5.7539 0.19288,1.51787 0.39185,2.67404 0.59571,3.58204 h -33.66797 -2.125 -26.93946 -156.42578 -26.9414 -2.12305 -33.669921 c 0.204318,-0.91128 0.405947,-2.09079 0.599609,-3.60938 0.202025,-1.58998 0.395891,-3.50182 0.580078,-5.72851 l 1.134766,-1.07618 1.144531,-1.16992 1.109375,-1.21289 1.068359,-1.25586 1.027344,-1.29492 0.986328,-1.33594 0.941407,-1.37109 0.898437,-1.4082 0.851563,-1.44141 0.80664,-1.47461 0.757813,-1.50391 0.708984,-1.5332 0.660156,-1.55859 0.583985,-1.51563 2.65625,-1.21484 2.53125,-1.25977 2.335937,-1.27344 2.140625,-1.2832 1.943364,-1.29492 1.74414,-1.30469 1.54297,-1.3125 1.34179,-1.32422 1.14063,-1.33203 0.93554,-1.33984 0.72852,-1.3457 0.52539,-1.35352 0.31445,-1.35938 0.10352,-1.34765 -0.17578,-0.0117 0.17578,-0.0137 -0.10352,-1.34766 -0.31445,-1.35937 -0.52539,-1.35352 -0.72852,-1.3457 -0.93554,-1.33985 -1.14063,-1.33203 -1.34179,-1.32226 -1.54297,-1.31446 -1.74414,-1.30468 -1.943364,-1.29493 -2.140625,-1.2832 -2.335937,-1.27344 -2.53125,-1.25781 -2.65625,-1.2168 -0.583985,-1.51367 -0.660156,-1.56054 -0.708984,-1.53321 -0.757813,-1.5039 -0.80664,-1.47461 -0.851563,-1.44141 -0.898437,-1.4082 -0.941407,-1.3711 -0.986328,-1.33593 -1.027344,-1.29492 -1.068359,-1.25586 -1.109375,-1.21289 -1.144531,-1.16797 -1.134766,-1.07813 c -0.184187,-2.2267 -0.378053,-4.13853 -0.580078,-5.72851 -0.193662,-1.51858 -0.395291,-2.6981 -0.599609,-3.60938 z"
           id="path33200" />
        <path
           style="color:#000000;fill:none;fill-opacity:0.434783;stroke:#000000;stroke-opacity:1;-inkscape-stroke:none"
           d="m 69.103516,100.55664 h 0.115234 0.222656 0.289063 0.353515 0.416016 0.480469 0.544922 0.611328 0.673828 0.736328 0.800781 0.716797 c 0.204471,0.89722 0.410367,2.10912 0.607422,3.6543 0.20356,1.60207 0.398142,3.52386 0.583984,5.78125 0.229008,0.1861 0.787873,0.80794 1.230469,1.22848 l 1.136719,1.16016 1.099609,1.20508 1.060547,1.24609 1.021484,1.28516 0.978516,1.32617 0.935547,1.36133 0.890625,1.39844 0.845703,1.43164 0.800781,1.46289 0.751953,1.49414 0.705079,1.52343 0.65625,1.54883 0.607421,1.57617 c 0.564636,0.2985 1.910701,0.92834 2.806637,1.33798 l 2.519531,1.25391 2.324219,1.26563 2.126953,1.27539 1.929688,1.28515 1.72657,1.29297 1.52539,1.29883 1.32226,1.30273 1.11914,1.3086 0.91407,1.30859 0.70898,1.31055 0.50781,1.30859 0.30274,1.3086 0.0996,1.30859 -0.0996,1.30664 -0.30274,1.30859 -0.50781,1.31055 -0.70898,1.30859 -0.91407,1.31055 -1.11914,1.30664 -1.32226,1.30274 -1.52539,1.29882 -1.72657,1.29297 -1.929688,1.28516 -2.126953,1.27539 -2.324219,1.26563 -2.519531,1.2539 -2.716797,1.24219 c -0.109692,0.30231 -0.468954,1.08022 -0.697261,1.67191 l -0.65625,1.54883 -0.705079,1.52344 -0.751953,1.49414 -0.800781,1.46289 -0.845703,1.43164 -0.890625,1.39844 -0.935547,1.36133 -0.978516,1.32617 -1.021484,1.28516 -1.060547,1.24609 -1.099609,1.20508 -1.136719,1.16015 -1.175781,1.11719 c -0.166285,1.58789 -0.417919,4.14092 -0.638672,5.8945 -0.197052,1.54517 -0.402955,2.75513 -0.607422,3.65235 H 74.347656 73.546875 72.810547 72.136719 71.525391 70.980469 70.5 70.083984 69.730469 69.441406 69.21875 69.103516 Z"
           id="path33198"
           sodipodi:nodetypes="cccccccccccccccccccccccccccccccccccccccccccccccccccccccccccccccccccccccccccccccccccccc" />
      </g>
    </g>
  </g>
  <g
     id="g17901"
     transform="translate(327.43836,166.63223)">
    <path
       style="color:#000000;fill:#c8c8c8;fill-opacity:1;stroke:#000000;stroke-width:1.78856;stroke-dasharray:none;stroke-opacity:1"
       d="m -130.93831,-165.73795 c 16.20967,0 32.41922,1.59505 48.38916,4.7871 2.41267,0.48208 4.81661,1.00173 7.21361,1.55571 3.96254,0.91623 7.9032,1.92704 11.81504,3.0379 6.26241,1.77799 12.44942,3.80464 18.54981,6.07191 3.91155,1.45373 7.78468,3.00535 11.61652,4.65553 2.66843,1.14922 5.31592,2.34855 7.94158,3.5913 l 8.07394,17.07798 0.0351,0.0697 c 1.967215,4.83847 4.495365,9.04931 7.5912349,12.60435 0.096994,-0.11984 0.015467,0.0193 0.031,0.0387 l 11.55033,3.39391 5.29829,1.55572 v 3.1269 5.166374 126.744004 5.16636 3.12689 l -5.29439,1.5596 h -0.004 l -11.76444,3.34748 -0.0388,-0.031 c -0.014,0.0159 -0.0216,0.038 -0.035,0.0541 l -0.0622,0.0159 0.016,0.0503 c -2.96137,3.564594 -5.39451,7.765134 -7.283675,12.596644 h -0.004 l -8.10898,17.14763 c -2.62565,1.24277 -5.27314,2.44208 -7.94157,3.5913 -3.83184,1.65019 -7.70497,3.2018 -11.61652,4.65553 -6.10039,2.26727 -12.2874,4.29393 -18.54982,6.07192 -3.91183,1.11085 -7.85249,2.12553 -11.81503,3.04176 -2.397,0.55398 -4.80094,1.06976 -7.21361,1.55185 -31.93991,6.3841 -64.83841,6.3841 -96.7783,0 -5.38486,-1.07612 -10.73097,-2.33274 -16.0311,-3.76547 -3.92569,-1.0613 -7.82659,-2.21735 -11.69437,-3.47131 -6.19191,-2.00759 -12.30061,-4.25854 -18.31236,-6.74915 -1.05655,-0.43752 -2.11078,-0.88296 -3.16105,-1.33513 -2.66729,-1.14876 -5.31313,-2.34909 -7.9377,-3.5913 l -11.97074,-25.30945 h 0.004 c -0.006,-0.0119 -0.014,-0.0199 -0.02,-0.0308 -0.66554,-1.3541 -1.41745,-2.63067 -2.23842,-3.838964 l 0.0466,-0.15479 -18.40188,-5.40631 v -8.42916 -126.469244 -8.432584 c 5.37463,-2.24578 13.54778,-2.98493 18.39788,-5.52239 0.80739,-1.21762 1.53077,-2.5182 2.18393,-3.8854 l 0.012,0.008 11.98633,-25.34028 c 2.62457,-1.2422 5.27041,-2.44254 7.9377,-3.5913 1.05027,-0.45217 2.10451,-0.8976 3.16105,-1.33512 6.01175,-2.49059 12.12045,-4.74156 18.31236,-6.74915 3.86779,-1.25394 7.76868,-2.41002 11.69437,-3.47133 5.30013,-1.4327 10.64624,-2.68934 16.0311,-3.76544 15.96994,-3.19206 32.17949,-4.7871 48.38914,-4.7871 z"
       id="path46409"
       sodipodi:nodetypes="ccccccccccccccccccccccccccccccccccccccccccccccccccccccccccc" />
    <path
       style="color:#000000;fill:#c8c8c8;fill-opacity:1;stroke:#000000;stroke-width:1.98728;stroke-opacity:1"
       d="m -130.93834,-132.74421 c -11.98486,0 -23.97206,1.51751 -35.66314,4.55103 l 0.0895,0.33669 -0.12456,-0.32508 c -11.87416,4.52609 -22.76774,11.26915 -32.09335,19.86436 l 0.23748,0.25153 -0.30366,-0.17029 -9.24182,16.013791 c -0.94638,0.429462 -5.67602,0.750475 -5.46184,1.63309 -6.95379,3.970001 -12.56296,24.648319 -14.21699,31.094936 -9.9e-4,0.006 -0.002,0.01 -0.004,0.0159 -0.67437,2.2652 -1.25136,4.55681 -1.73236,6.8691 l 0.3426,0.0697 h -0.35036 v 33.811551 h 0.35813 l -0.35037,0.0735 c 0.481,2.3123 1.05799,4.60005 1.73236,6.86523 0.001,0.006 0.002,0.01 0.004,0.0159 2.78225,11.15219953 7.49439,21.7368195 13.92501,31.2845 1.1519,0.264522 3.9207,1.014764 5.75382,1.44346 l 9.24182,16.01764 0.30366,-0.17426 -0.23748,0.25543 c 9.32561,8.595194 20.21919,15.334394 32.09335,19.860464 l 0.12456,-0.32893 -0.0895,0.34443 c 23.38218,6.06703 47.94024,6.06703 71.32241,0 l -0.0934,-0.35993 0.13234,0.34443 c 11.87416,-4.52607 22.76772,-11.26527 32.09333,-19.860464 l -0.23358,-0.25156 0.29588,0.17029 9.2457,-16.01764 5.54354,-1.29642 c 5.732304,-6.37528 12.200632,-23.9063605 14.13139,-31.43154 0.001,-0.006 0.002,-0.01 0.004,-0.0159 0.67436,-2.26518 1.25532,-4.55293 1.73624,-6.86523 l -0.35037,-0.0735 h 0.35427 v -33.811551 h -0.34648 l 0.34258,-0.0697 c -0.48092,-2.31229 -1.06188,-4.6039 -1.73624,-6.8691 -0.001,-0.006 -0.002,-0.01 -0.004,-0.0159 -2.78225,-11.152199 -7.4944,-21.736821 -13.92501,-31.284486 -1.158726,-0.281899 -3.922381,-1.016149 -5.74992,-1.44354 l -9.2457,-16.013781 -0.29588,0.17028 0.23358,-0.25153 c -9.32555,-8.59511 -20.21911,-15.33817 -32.09327,-19.86426 l -0.13234,0.34056 0.0935,-0.35217 c -11.69109,-3.03352 -23.67439,-4.55103 -35.65927,-4.55103 z"
       id="path46411"
       sodipodi:nodetypes="sccccccccccccccccccccccccccccccccccccccccccccccccccccss" />
  </g>
</svg>
