<?xml version="1.0" encoding="UTF-8" standalone="no"?>
<svg
   id="svg2"
   version="1.1"
   viewBox="0 0 687.26617 687.26616"
   height="687.26617mm"
   width="687.26617mm"
   sodipodi:docname="thumbnail.svg"
   inkscape:version="1.2.1 (9c6d41e410, 2022-07-14)"
   xmlns:inkscape="http://www.inkscape.org/namespaces/inkscape"
   xmlns:sodipodi="http://sodipodi.sourceforge.net/DTD/sodipodi-0.dtd"
   xmlns:xlink="http://www.w3.org/1999/xlink"
   xmlns="http://www.w3.org/2000/svg"
   xmlns:svg="http://www.w3.org/2000/svg"
   xmlns:rdf="http://www.w3.org/1999/02/22-rdf-syntax-ns#"
   xmlns:cc="http://creativecommons.org/ns#"
   xmlns:dc="http://purl.org/dc/elements/1.1/">
  <sodipodi:namedview
     id="namedview389"
     pagecolor="#ffffff"
     bordercolor="#000000"
     borderopacity="0.25"
     inkscape:showpageshadow="2"
     inkscape:pageopacity="0.0"
     inkscape:pagecheckerboard="0"
     inkscape:deskcolor="#d1d1d1"
     inkscape:document-units="mm"
     showgrid="false"
     inkscape:zoom="0.20424285"
     inkscape:cx="-372.10605"
     inkscape:cy="1559.4181"
     inkscape:window-width="2400"
     inkscape:window-height="1471"
     inkscape:window-x="2391"
     inkscape:window-y="-9"
     inkscape:window-maximized="1"
     inkscape:current-layer="svg2" />
  <circle
     style="fill:#ff0000;fill-opacity:0;stroke:#ff0000;stroke-width:0.992066;stroke-linejoin:bevel;stroke-opacity:0"
     id="path4595"
     cx="343.63309"
     cy="343.63309"
     r="343.13705"
     inkscape:label="circle" />
  <circle
     style="fill:#d3d3d3;fill-opacity:0;stroke:#ff0000;stroke-width:0.997989;stroke-linejoin:bevel;stroke-dasharray:none;stroke-opacity:0.01"
     id="path14535"
     cx="-343.78308"
     cy="-344.3208"
     r="340.75101"
     transform="scale(-1)" />
  <path
     id="path1270"
     style="color:#000000;fill:#c8c8c8;fill-opacity:1;stroke:#000000;stroke-width:1;stroke-dasharray:none;stroke-opacity:1"
     d="m 470.36603,510.98892 c 6.67498,-7.14763 16.8239,-3.92811 25.96144,-5.60296 12.93312,-0.90462 25.86624,-1.80923 38.79935,-2.71385 57.64517,-85.84523 63.27398,-202.95398 14.23734,-293.96741 -6.43932,-12.26426 -11.70142,-28.07566 -28.07489,-24.7916 -14.6787,-1.05644 -30.75,-2.08886 -44.56394,-3.16654 -7.54906,-7.80738 -18.99932,-3.29538 -28.6465,-4.47726 -77.05811,0 -154.11621,0 -231.17433,0 -7.09506,7.57092 -17.89416,4.29062 -27.60082,6.01232 -12.45592,0.87118 -24.91184,1.74234 -37.36776,2.61352 -57.460439,85.81739 -63.008289,202.75357 -14.03376,293.65838 6.55166,12.27992 11.7671,28.40639 28.27852,25.10071 14.75558,1.06346 30.94498,2.10009 44.82546,3.18611 7.10212,7.39233 17.94568,2.96166 27.01154,4.14858 77.44945,0 154.89888,0 232.34835,0 z m 62.88193,-83.02954 c 0,-56.22019 0,-112.44035 0,-168.66052 13.79924,-0.79082 26.77924,0.2017 27.41566,17.50573 16.12704,48.72024 13.8599,103.20822 -6.28206,150.41271 -7.04462,0.24468 -14.08916,0.49224 -21.1336,0.74208 z m -379.23058,0 c -13.79904,0.78564 -26.77846,-0.20482 -27.41462,-17.50939 -16.12704,-48.72002 -13.86,-103.20794 6.28206,-150.41215 6.9916,2.15581 24.45632,-6.53798 21.13256,6.29875 0,53.87426 0,107.74852 0,161.62279 z" />
  <path
     style="color:#000000;fill:#c8c8c8;fill-opacity:1;stroke:#000000;stroke-width:1;stroke-dasharray:none;stroke-opacity:1"
     d="m 614.38309,411.32643 h -0.0703 -0.52734 -0.73437 -0.94532 -1.15625 -1.36328 -1.57421 -1.78516 -1.99219 -2.20312 -2.41407 -2.61718 -2.82813 -47.43749 -48.14452 -55.58593 -2.83594 -193.07419 -2.83202 -55.58593 -48.14453 -47.437495 -2.828119 -2.6211 -2.410139 -2.20314 -1.99218 -1.78516 -1.574219 -1.36718 -1.15234 -0.94532 -0.73828 -0.52344 -0.0704 v -135.3867 h 0.0704 0.52344 0.73828 0.94532 1.15234 1.36718 1.574219 1.78516 1.99218 2.20314 2.410139 2.6211 2.828119 47.437495 48.14453 55.58593 2.83202 193.07419 2.83594 55.58593 48.14452 47.43749 2.82813 2.61718 2.41407 2.20312 1.99219 1.78516 1.57421 1.36328 1.15625 0.94532 0.73437 0.52734 0.0703 z"
     id="path12780" />
  <path
     d="m 546.73272,411.67589 c 0,-0.261 0,-0.5162 0,-0.7809 0,-0.2671 0,-0.5529 0,-0.8573 0,-0.6089 0,-1.2911 0,-2.0466 0,-1.5092 0,-3.3124 0,-5.4096 0,-1.0476 0,-2.18 0,-3.3636 0,-1.1845 0,-2.4257 0,-3.7236 0,-2.595 0,-5.4139 0,-8.4565 0,-1.5211 0,-3.09979 0,-4.73609 0,-1.6373 0,-3.3084 0,-5.0134 0,-3.4086 0,-6.9476 0,-10.617 0,-1.8345 0,-3.7022 0,-5.6032 0,-1.904 0,-3.8149 0,-5.7328 0,-3.8349 0,-7.69498 0,-11.58026 0,-1.9426 0,-3.89162 0,-5.84704 0,-1.95796 0,-3.9013 0,-5.8189 0,-3.8375 0,-7.5921 0,-11.2639 0,-1.8361 0,-3.65099 0,-5.44489 0,-1.7966 0,-3.5551 0,-5.2616 0,-3.416 0,-6.6503 0,-9.7031 0,-1.5266 0,-3.0072 0,-4.4417 0,-1.4368 0,-2.8154 0,-4.1224 0,-2.6164 0,-4.9731 0,-7.0699 0,-1.0489 0,-2.0319 0,-2.949 0,-0.9197 0,-1.763 0,-2.53 0,-0.7663 0,-1.456 0,-2.069 0,-0.3066 0,-0.5939 0,-0.8619 0,-0.1328 0,-0.2637 0,-0.3926 0,-0.1302 0,-0.2603 0,-0.3904"
     id="path12169"
     style="fill:none;stroke:#000000;stroke-width:1;stroke-linecap:butt;stroke-linejoin:miter;stroke-dasharray:none" />
  <path
     d="m 140.53278,411.67589 c 0,-0.261 0,-0.5162 0,-0.7809 0,-0.2671 0,-0.5529 0,-0.8573 0,-0.6089 0,-1.2911 0,-2.0466 0,-1.5092 0,-3.3124 0,-5.4096 0,-1.0476 0,-2.18 0,-3.3636 0,-1.1845 0,-2.4257 0,-3.7236 0,-2.595 0,-5.4139 0,-8.4565 0,-1.5211 0,-3.09979 0,-4.73609 0,-1.6373 0,-3.3084 0,-5.0134 0,-3.4086 0,-6.9476 0,-10.617 0,-1.8345 0,-3.7022 0,-5.6032 0,-1.904 0,-3.8149 0,-5.7328 0,-3.8349 0,-7.69498 0,-11.58026 0,-1.9426 0,-3.89162 0,-5.84704 0,-1.95796 0,-3.9013 0,-5.8189 0,-3.8375 0,-7.5921 0,-11.2639 0,-1.8361 0,-3.65099 0,-5.44489 0,-1.7966 0,-3.5551 0,-5.2616 0,-3.416 0,-6.6503 0,-9.7031 0,-1.5266 0,-3.0072 0,-4.4417 0,-1.4368 0,-2.8154 0,-4.1224 0,-2.6164 0,-4.9731 0,-7.0699 0,-1.0489 0,-2.0319 0,-2.949 0,-0.9197 0,-1.763 0,-2.53 0,-0.7663 0,-1.456 0,-2.069 0,-0.3066 0,-0.5939 0,-0.8619 0,-0.1328 0,-0.2637 0,-0.3926 0,-0.1302 0,-0.2603 0,-0.3904"
     id="path12187"
     style="fill:none;stroke:#000000;stroke-width:1;stroke-linecap:butt;stroke-linejoin:miter;stroke-dasharray:none" />
  <path
     style="color:#000000;fill:#c8c8c8;fill-opacity:1;stroke:#000000;stroke-width:1;stroke-dasharray:none;stroke-opacity:1"
     d="m 532.99488,625.11321 h -0.0704 -0.26564 -0.37108 -0.47658 -0.58592 -0.68751 -0.79298 -0.89844 -1 -1.10546 -1.20705 -1.3125 -1.41016 -17.44144 -13.34769 -17.59768 -21.35163 -24.48834 -26.92584 -28.58991 -29.43367 -29.43364 -28.58991 -26.92584 -24.48836 -21.35161 -17.6016 -13.34377 -17.44146 -1.41406 -1.30858 -1.20705 -1.10546 -1 -0.89844 -0.79299 -0.6875 -0.58594 -0.47656 -0.37108 -0.26564 -0.0704 l -2.94143,-2.79298 c -1.7982,-28.94457 -3.60673,-57.88579 -4.85157,-86.85566 -0.90886,-21.13569 -1.515,-42.28486 -1.91796,-63.43765 -0.40196,-21.1528 -0.6037,-42.30834 -0.67971,-63.46498 h -0.34764 v -0.35157 h -0.5547 v -1.27736 -4.80859 -7.74222 -10.29298 -12.32425 -13.73831 -14.46487 -14.46488 -13.73833 -12.32423 -10.293 -7.7422 -4.80861 -1.28124 h 1.20705 v -0.34766 l 0.35156,0.004 c 0.44798,-32.515 1.1817,-65.02555 2.5625,-97.51195 1.46773,-34.53764 3.69243,-69.04138 5.90236,-103.543195 8e-5,-0.0013 -8e-5,-0.002 0,-0.004 l 0.65234,-3.445308 14.84769,-20.546927 2.55861,-2.488286 3.17188,-1.589844 c 53.75231,-17.4978 110.21634,-26.37016 169.39881,-26.613341 29.31425,0.117 58.62856,2.370706 87.58225,6.968756 27.72662,4.39673 55.11514,10.946785 81.80878,19.640665 0.002,9e-4 0.006,0.004 0.008,0.004 l 3.16407,1.585944 2.56643,2.492186 14.84769,20.546927 0.65234,3.476568 0.004,0.012 c 2.20911,34.488775 4.43127,68.979555 5.89846,103.504135 1.3798,32.48642 2.11552,64.99697 2.5625,97.51195 l 0.34766,-0.004 v 0.34766 h 1.20703 v 1.28124 4.80861 7.7422 10.293 12.32423 13.73833 14.46488 14.46487 13.73831 12.32425 10.29298 7.74222 4.80859 1.27736 h -0.55079 v 0.35157 h -0.34766 c -0.099,27.2493 -0.4021,54.49867 -1.08202,81.73846 -0.33896,13.62035 -0.77502,27.23487 -1.33594,40.84775 -0.5569,13.61176 -1.24688,27.22053 -2.00783,40.82431 -0.93944,16.78729 -1.98408,33.56891 -3.02734,50.35168 z"
     id="path10150" />
  <path
     d="m 153.17531,75.823343 h 0.052 0.156 0.26 0.363 0.467 0.571 0.673 0.776 0.87801 0.98 1.081 1.181 1.28201 1.38"
     id="path9328"
     style="fill:none;stroke:#000000;stroke-width:1;stroke-linecap:butt;stroke-linejoin:miter;stroke-dasharray:none" />
  <path
     d="m 162.16533,605.94356 q -0.258,7.43402 -0.463,14.87403"
     id="path9299"
     style="fill:none;stroke:#000000;stroke-width:1;stroke-linecap:butt;stroke-linejoin:miter;stroke-dasharray:none" />
  <path
     d="m 164.97733,623.8006 -3.275,-2.98301"
     id="path9301"
     style="fill:none;stroke:#000000;stroke-width:1;stroke-linecap:butt;stroke-linejoin:miter;stroke-dasharray:none" />
  <path
     d="m 162.16533,605.94356 q 10.09602,8.96302 20.25504,17.85704"
     id="path9304"
     style="fill:none;stroke:#000000;stroke-width:1;stroke-linecap:butt;stroke-linejoin:miter;stroke-dasharray:none" />
  <path
     d="m 162.16533,605.94356 h 14.23403 19.34404 23.86406 27.65806 30.60867 32.62788 33.65298 33.65297 32.62788 30.60907 27.65806 23.86406 19.34404 14.23403"
     id="path9306"
     style="fill:none;stroke:#000000;stroke-width:1;stroke-linecap:butt;stroke-linejoin:miter;stroke-dasharray:none" />
  <path
     d="m 526.14516,605.94356 q -10.09702,8.96302 -20.25604,17.85704"
     id="path9310"
     style="fill:none;stroke:#000000;stroke-width:1;stroke-linecap:butt;stroke-linejoin:miter;stroke-dasharray:none" />
  <path
     d="m 526.14516,605.94356 q 0.258,7.43402 0.46301,14.87403"
     id="path9312"
     style="fill:none;stroke:#000000;stroke-width:1;stroke-linecap:butt;stroke-linejoin:miter;stroke-dasharray:none" />
  <path
     d="m 523.33216,623.8006 3.27601,-2.98301"
     id="path9316"
     style="fill:none;stroke:#000000;stroke-width:1;stroke-linecap:butt;stroke-linejoin:miter;stroke-dasharray:none" />
  <path
     d="m 151.5143,620.81759 h 0.052 0.157 0.263 0.366 0.47101 0.576 0.679 0.782 0.886 0.988 1.09101 1.192 1.292 1.39301"
     id="path9320"
     style="fill:none;stroke:#000000;stroke-width:1;stroke-linecap:butt;stroke-linejoin:miter;stroke-dasharray:none" />
  <path
     d="m 526.60817,620.81759 h 1.392 1.293 1.192 1.09001 0.988 0.886 0.783 0.679 0.57501 0.471 0.367 0.262 0.157 0.053"
     id="path9322"
     style="fill:none;stroke:#000000;stroke-width:1;stroke-linecap:butt;stroke-linejoin:miter;stroke-dasharray:none" />
  <path
     d="m 154.77431,331.51593 c 0.063,1.309 0.114,2.62901 0.151,3.95901 0.06,2.138 0.084,4.30201 0.073,6.44801 -0.02,3.42401 -0.128,6.80302 -0.324,10.16103"
     id="path9324"
     style="fill:none;stroke:#000000;stroke-width:1;stroke-linecap:butt;stroke-linejoin:miter;stroke-dasharray:none" />
  <path
     d="m 163.27533,75.823343 h 15.88404 22.53105 28.27106 32.87248 36.14888 37.96899 38.25909 37.00788 34.26548 30.14277 24.80506 18.46804 11.38703 3.847"
     id="path9326"
     style="fill:none;stroke:#000000;stroke-width:1;stroke-linecap:butt;stroke-linejoin:miter;stroke-dasharray:none" />
  <path
     d="m 145.34629,402.76809 c 0.54,-1.782 1.213,-4.06001 1.976,-6.85701 0.322,-1.182 0.66,-2.45601 1.00401,-3.80301 0.688,-2.69701 1.398,-5.67001 2.093,-8.92702 0.35,-1.63201 0.692,-3.33201 1.026,-5.09901 0.334,-1.76501 0.656,-3.59101 0.958,-5.45602 0.60501,-3.732 1.13401,-7.61901 1.55601,-11.70502 0.211,-2.04301 0.396,-4.13701 0.546,-6.23702 0.151,-2.101 0.267,-4.21001 0.35,-6.32601 0.083,-2.14201 0.131,-4.29601 0.143,-6.46102"
     id="path9332"
     style="fill:none;stroke:#000000;stroke-width:1;stroke-linecap:butt;stroke-linejoin:miter;stroke-dasharray:none" />
  <path
     d="m 144.71129,276.8998 c 0.001,-0.002 0.131,0.41801 0.39,1.26001 0.259,0.844 0.636,2.085 1.11,3.71601 0.474,1.633 1.048,3.67 1.669,6.02701 0.31,1.178 0.63101,2.436 0.96001,3.77401 0.33,1.337 0.665,2.757 1.005,4.25701 0.339,1.501 0.68,3.085 1.014,4.72401 0.666,3.27901 1.3,6.76801 1.86801,10.50902 0.57,3.74601 1.069,7.73302 1.443,11.79603 0.261,2.80101 0.462,5.65201 0.604,8.55302"
     id="path9338"
     style="fill:none;stroke:#000000;stroke-width:1;stroke-linecap:butt;stroke-linejoin:miter;stroke-dasharray:none" />
  <path
     d="m 544.25421,406.9001 c 0.001,10e-4 -0.137,-0.424 -0.40001,-1.255 -0.263,-0.834 -0.65,-2.071 -1.141,-3.71001 -0.247,-0.821 -0.516,-1.735 -0.805,-2.741 -0.289,-1.00401 -0.594,-2.09101 -0.914,-3.26301 -0.321,-1.17 -0.653,-2.42801 -0.997,-3.77301 -0.344,-1.345 -0.69801,-2.78001 -1.05101,-4.27601 -0.706,-2.99301 -1.408,-6.23302 -2.072,-9.74602 -0.663,-3.51301 -1.287,-7.29802 -1.81201,-11.21203 -0.523,-3.91401 -0.949,-7.95502 -1.251,-12.15603 -0.151,-2.101 -0.271,-4.24101 -0.355,-6.37601 -0.083,-2.13501 -0.131,-4.26601 -0.144,-6.39402 -0.012,-2.127 0.01,-4.25501 0.069,-6.38601 0.058,-2.13101 0.152,-4.26801 0.279,-6.37402 0.127,-2.109 0.286,-4.18101 0.474,-6.21901 0.188,-2.035 0.403,-4.03301 0.644,-5.99401 0.48101,-3.92601 1.06601,-7.72402 1.69501,-11.24703 0.628,-3.51901 1.3,-6.77402 1.978,-9.78302 0.339,-1.50201 0.68,-2.94001 1.011,-4.28801 0.33101,-1.347 0.65201,-2.60601 0.96101,-3.77901 0.31,-1.174 0.604,-2.26301 0.885,-3.26901 0.281,-1.009 0.541,-1.926 0.781,-2.751 0.478,-1.64701 0.857,-2.89101 1.113,-3.73001 0.26,-0.844 0.396,-1.27701 0.396,-1.27801"
     id="path9348"
     style="fill:none;stroke:#000000;stroke-width:1;stroke-linecap:butt;stroke-linejoin:miter;stroke-dasharray:none" />
  <path
     d="m 153.84831,72.260334 h 4.77101 14.07503 22.67305 30.13307 36.08339 40.22389 42.34728 42.34731 40.2239 36.08378 30.13307 22.67305 14.07503 4.77101"
     id="path9372"
     style="fill:none;stroke:#000000;stroke-width:1;stroke-linecap:butt;stroke-linejoin:miter;stroke-dasharray:none" />
  <!-- Working space 10 10 410 287 -->
  <!-- Title block 220 227 410 287 -->
  <metadata
     id="metadata849">
    <rdf:RDF>
      <cc:Work
         rdf:about="">
        <dc:format>image/svg+xml</dc:format>
        <dc:type
           rdf:resource="http://purl.org/dc/dcmitype/StillImage" />
      </cc:Work>
    </rdf:RDF>
  </metadata>
  <defs
     id="defs847">
    <linearGradient
       gradientUnits="userSpaceOnUse"
       id="defitem29"
       y2="485.909"
       x2="655.35199"
       y1="807.466"
       x1="649.42902">
      <stop
         id="stop92"
         offset="0.0000000"
         style="stop-color:#ffffff;stop-opacity:1.0000000;" />
      <stop
         id="stop93"
         offset="1.0000000"
         style="stop-color:#ffffff;stop-opacity:0.13756600;" />
    </linearGradient>
    <linearGradient
       xlink:href="#defitem29"
       id="linearGradient3448"
       gradientUnits="userSpaceOnUse"
       x1="649.42902"
       y1="807.466"
       x2="655.35199"
       y2="485.909" />
    <radialGradient
       gradientUnits="userSpaceOnUse"
       id="defitem28"
       fy="345.56"
       fx="1049.72"
       r="1202.15"
       cy="345.56"
       cx="1049.72">
      <stop
         id="stop89"
         offset="0.0000000"
         style="stop-color:#ffffff;stop-opacity:1.0000000;" />
      <stop
         id="stop90"
         offset="1.0000000"
         style="stop-color:#a8a8a8;stop-opacity:1.0000000;" />
    </radialGradient>
    <radialGradient
       xlink:href="#defitem28"
       id="radialGradient3446"
       gradientUnits="userSpaceOnUse"
       cx="1092.7045"
       cy="64.845284"
       fx="1089.4004"
       fy="64.844765"
       r="1202.15" />
    <linearGradient
       gradientUnits="userSpaceOnUse"
       id="defitem30"
       y2="636.70697"
       x2="980"
       y1="636.70697"
       x1="287.5">
      <stop
         id="stop95"
         offset="0.0000000"
         style="stop-color:#464646;stop-opacity:1.0000000;" />
      <stop
         id="stop96"
         offset="1.0000000"
         style="stop-color:#c2c2c2;stop-opacity:1.0000000;" />
    </linearGradient>
    <linearGradient
       xlink:href="#defitem30"
       id="linearGradient3444"
       gradientUnits="userSpaceOnUse"
       gradientTransform="matrix(1,0,0,1.016038,0,-11.73855)"
       x1="287.5"
       y1="636.70697"
       x2="980"
       y2="636.70697" />
    <linearGradient
       gradientUnits="userSpaceOnUse"
       id="defitem27"
       y2="317.44699"
       x2="985.98199"
       y1="403.18799"
       x1="921.091">
      <stop
         id="stop86"
         offset="0.0000000"
         style="stop-color:#7e7e7e;stop-opacity:1.0000000;" />
      <stop
         id="stop87"
         offset="1.0000000"
         style="stop-color:#e5e5e5;stop-opacity:1.0000000;" />
    </linearGradient>
    <linearGradient
       xlink:href="#defitem27"
       id="linearGradient3442"
       gradientUnits="userSpaceOnUse"
       x1="921.091"
       y1="403.18799"
       x2="985.98199"
       y2="317.44699" />
    <linearGradient
       gradientUnits="userSpaceOnUse"
       id="defitem26"
       y2="360.27499"
       x2="293.37"
       y1="346.30399"
       x1="530.76099">
      <stop
         id="stop83"
         offset="0.0000000"
         style="stop-color:#5f5f5f;stop-opacity:1.0000000;" />
      <stop
         id="stop84"
         offset="1.0000000"
         style="stop-color:#e5e5e5;stop-opacity:1.0000000;" />
    </linearGradient>
    <linearGradient
       xlink:href="#defitem26"
       id="linearGradient3440"
       gradientUnits="userSpaceOnUse"
       x1="530.76099"
       y1="346.30399"
       x2="293.37"
       y2="360.27499" />
    <linearGradient
       gradientUnits="userSpaceOnUse"
       id="defitem25"
       y2="337.60999"
       x2="308.75"
       y1="412.91901"
       x1="164.013">
      <stop
         id="stop80"
         offset="0.0000000"
         style="stop-color:#ffffff;stop-opacity:1.0000000;" />
      <stop
         id="stop81"
         offset="1.0000000"
         style="stop-color:#bfbfbf;stop-opacity:1.0000000;" />
    </linearGradient>
    <linearGradient
       xlink:href="#defitem25"
       id="linearGradient3438"
       gradientUnits="userSpaceOnUse"
       x1="164.013"
       y1="412.91901"
       x2="308.75"
       y2="337.60999" />
    <linearGradient
       gradientUnits="userSpaceOnUse"
       id="defitem24"
       y2="380.47198"
       x2="992.48901"
       y1="270.854"
       x1="1094.25">
      <stop
         id="stop77"
         offset="0.0000000"
         style="stop-color:#6a6a6a;stop-opacity:1.0000000;" />
      <stop
         id="stop78"
         offset="1.0000000"
         style="stop-color:#e6e6e6;stop-opacity:1.0000000;" />
    </linearGradient>
    <linearGradient
       xlink:href="#defitem24"
       id="linearGradient3436"
       gradientUnits="userSpaceOnUse"
       x1="1094.25"
       y1="270.854"
       x2="992.48901"
       y2="380.47198" />
    <linearGradient
       gradientUnits="userSpaceOnUse"
       id="defitem23"
       y2="549.37799"
       x2="1049.84"
       y1="476.465"
       x1="1170.91">
      <stop
         id="stop74"
         offset="0.0000000"
         style="stop-color:#5f5f5f;stop-opacity:1.0000000;" />
      <stop
         id="stop75"
         offset="1.0000000"
         style="stop-color:#ebebeb;stop-opacity:1.0000000;" />
    </linearGradient>
    <linearGradient
       xlink:href="#defitem23"
       id="linearGradient3434"
       gradientUnits="userSpaceOnUse"
       x1="1170.91"
       y1="476.465"
       x2="1049.84"
       y2="549.37799" />
    <linearGradient
       gradientUnits="userSpaceOnUse"
       id="defitem22"
       y2="313.276"
       x2="576.14899"
       y1="105.486"
       x1="783.716">
      <stop
         id="stop71"
         offset="0.0000000"
         style="stop-color:#5a5a5a;stop-opacity:1.0000000;" />
      <stop
         id="stop72"
         offset="1.0000000"
         style="stop-color:#c7c7c7;stop-opacity:1.0000000;" />
    </linearGradient>
    <linearGradient
       xlink:href="#defitem22"
       id="linearGradient3432"
       gradientUnits="userSpaceOnUse"
       x1="783.716"
       y1="105.486"
       x2="576.14899"
       y2="313.276" />
    <linearGradient
       gradientUnits="userSpaceOnUse"
       id="defitem21"
       y2="484.716"
       x2="128.05499"
       y1="418.698"
       x1="280.04401">
      <stop
         id="stop68"
         offset="0.0000000"
         style="stop-color:#666666;stop-opacity:1.0000000;" />
      <stop
         id="stop69"
         offset="1.0000000"
         style="stop-color:#d8d8d8;stop-opacity:1.0000000;" />
    </linearGradient>
    <linearGradient
       xlink:href="#defitem21"
       id="linearGradient3430"
       gradientUnits="userSpaceOnUse"
       x1="280.04401"
       y1="418.698"
       x2="128.05499"
       y2="484.716" />
    <linearGradient
       gradientUnits="userSpaceOnUse"
       id="defitem20"
       y2="584.40997"
       x2="220"
       y1="636.95398"
       x1="129.687">
      <stop
         id="stop65"
         offset="0.0000000"
         style="stop-color:#ffffff;stop-opacity:1.0000000;" />
      <stop
         id="stop66"
         offset="1.0000000"
         style="stop-color:#bbbbbb;stop-opacity:1.0000000;" />
    </linearGradient>
    <linearGradient
       xlink:href="#defitem20"
       id="linearGradient3428"
       gradientUnits="userSpaceOnUse"
       x1="129.687"
       y1="636.95398"
       x2="220"
       y2="584.40997" />
    <linearGradient
       gradientUnits="userSpaceOnUse"
       id="defitem19"
       y2="583.75299"
       x2="1127.98"
       y1="629.02802"
       x1="1048.72">
      <stop
         id="stop62"
         offset="0.0000000"
         style="stop-color:#5e5e5e;stop-opacity:1.0000000;" />
      <stop
         id="stop63"
         offset="1.0000000"
         style="stop-color:#ededed;stop-opacity:1.0000000;" />
    </linearGradient>
    <linearGradient
       xlink:href="#defitem19"
       id="linearGradient3426"
       gradientUnits="userSpaceOnUse"
       x1="1048.72"
       y1="629.02802"
       x2="1127.98"
       y2="583.75299" />
    <linearGradient
       gradientUnits="userSpaceOnUse"
       id="defitem18"
       y2="291.97699"
       x2="581.32397"
       y1="387.27301"
       x1="370.022">
      <stop
         id="stop59"
         offset="0.0000000"
         style="stop-color:#636363;stop-opacity:1.0000000;" />
      <stop
         id="stop60"
         offset="1.0000000"
         style="stop-color:#d6d6d6;stop-opacity:1.0000000;" />
    </linearGradient>
    <linearGradient
       xlink:href="#defitem18"
       id="linearGradient3424"
       gradientUnits="userSpaceOnUse"
       x1="370.022"
       y1="387.27301"
       x2="581.32397"
       y2="291.97699" />
    <linearGradient
       gradientUnits="userSpaceOnUse"
       id="defitem17"
       y2="351.939"
       x2="909.59399"
       y1="351.939"
       x1="732.15601">
      <stop
         id="stop56"
         offset="0.0000000"
         style="stop-color:#676767;stop-opacity:1.0000000;" />
      <stop
         id="stop57"
         offset="1.0000000"
         style="stop-color:#d3d3d3;stop-opacity:1.0000000;" />
    </linearGradient>
    <linearGradient
       xlink:href="#defitem17"
       id="linearGradient3422"
       gradientUnits="userSpaceOnUse"
       x1="732.15601"
       y1="351.939"
       x2="909.59399"
       y2="351.939" />
    <linearGradient
       gradientUnits="userSpaceOnUse"
       id="defitem16"
       y2="494.71301"
       x2="1073.01"
       y1="494.71301"
       x1="1014.43">
      <stop
         id="stop53"
         offset="0.0000000"
         style="stop-color:#666666;stop-opacity:1.0000000;" />
      <stop
         id="stop54"
         offset="1.0000000"
         style="stop-color:#dcdcdc;stop-opacity:1.0000000;" />
    </linearGradient>
    <linearGradient
       xlink:href="#defitem16"
       id="linearGradient3420"
       gradientUnits="userSpaceOnUse"
       x1="1014.43"
       y1="494.71301"
       x2="1073.01"
       y2="494.71301" />
    <linearGradient
       gradientUnits="userSpaceOnUse"
       id="defitem15"
       y2="516.37"
       x2="193.27699"
       y1="452.388"
       x1="272.59201">
      <stop
         id="stop50"
         offset="0.0000000"
         style="stop-color:#6e6e6e;stop-opacity:1.0000000;" />
      <stop
         id="stop51"
         offset="1.0000000"
         style="stop-color:#d8d8d8;stop-opacity:1.0000000;" />
    </linearGradient>
    <linearGradient
       xlink:href="#defitem15"
       id="linearGradient3418"
       gradientUnits="userSpaceOnUse"
       x1="272.59201"
       y1="452.388"
       x2="193.27699"
       y2="516.37" />
    <radialGradient
       gradientUnits="userSpaceOnUse"
       id="defitem14"
       fy="211.088"
       fx="1037.22"
       r="1164.28"
       cy="211.088"
       cx="1037.22">
      <stop
         id="stop47"
         offset="0.0000000"
         style="stop-color:#ffffff;stop-opacity:1.0000000;" />
      <stop
         id="stop48"
         offset="1.0000000"
         style="stop-color:#aaaaaa;stop-opacity:1.0000000;" />
    </radialGradient>
    <radialGradient
       xlink:href="#defitem14"
       id="radialGradient3416"
       gradientUnits="userSpaceOnUse"
       cx="1037.22"
       cy="211.088"
       fx="1037.22"
       fy="211.088"
       r="1164.28" />
    <linearGradient
       gradientUnits="userSpaceOnUse"
       id="defitem13"
       y2="686.83002"
       x2="379.241"
       y1="732.12903"
       x1="342.64999">
      <stop
         id="stop44"
         offset="0.0000000"
         style="stop-color:#ffffff;stop-opacity:1.0000000;" />
      <stop
         id="stop45"
         offset="1.0000000"
         style="stop-color:#989898;stop-opacity:1.0000000;" />
    </linearGradient>
    <linearGradient
       xlink:href="#defitem13"
       id="linearGradient3414"
       gradientUnits="userSpaceOnUse"
       x1="342.64999"
       y1="732.12903"
       x2="379.241"
       y2="686.83002" />
    <radialGradient
       gradientUnits="userSpaceOnUse"
       id="defitem12"
       fy="484.409"
       fx="632.78101"
       r="540.27899"
       cy="484.409"
       cx="632.78101">
      <stop
         id="stop41"
         offset="0.0000000"
         style="stop-color:#ffffff;stop-opacity:1.0000000;" />
      <stop
         id="stop42"
         offset="1.0000000"
         style="stop-color:#ededed;stop-opacity:1.0000000;" />
    </radialGradient>
    <radialGradient
       xlink:href="#defitem12"
       id="radialGradient3412"
       gradientUnits="userSpaceOnUse"
       cx="632.78101"
       cy="484.409"
       fx="632.78101"
       fy="484.409"
       r="540.27899" />
    <radialGradient
       xlink:href="#linearGradient3682"
       id="radialGradient3817"
       gradientUnits="userSpaceOnUse"
       gradientTransform="matrix(1.1149219,0.2722306,-0.7507171,3.0745639,-471.08629,-148.32863)"
       cx="270.58316"
       cy="33.899986"
       fx="270.58316"
       fy="33.899986"
       r="19.571428" />
    <linearGradient
       id="linearGradient3682">
      <stop
         style="stop-color:#ff6d0f;stop-opacity:1;"
         offset="0"
         id="stop3684" />
      <stop
         style="stop-color:#ff1000;stop-opacity:1;"
         offset="1"
         id="stop3686" />
    </linearGradient>
    <radialGradient
       xlink:href="#linearGradient3864"
       id="radialGradient3661"
       gradientUnits="userSpaceOnUse"
       gradientTransform="matrix(0.6186598,0.9666542,-1.0332462,0.6612786,-327.27568,-255.84136)"
       cx="282.64584"
       cy="29.149046"
       fx="282.64584"
       fy="29.149046"
       r="19.571428" />
    <linearGradient
       id="linearGradient3864">
      <stop
         id="stop3866"
         offset="0"
         style="stop-color:#71b2f8;stop-opacity:1;" />
      <stop
         id="stop3868"
         offset="1"
         style="stop-color:#002795;stop-opacity:1;" />
    </linearGradient>
  </defs>
  <rect
     style="fill:#00ff00;fill-opacity:0;stroke:#00ff00;stroke-width:1;stroke-linejoin:bevel;stroke-dasharray:none;stroke-opacity:0"
     id="rect16144-0"
     width="186.19354"
     height="30.398943"
     x="-435.98175"
     y="-184.81046"
     transform="scale(-1)"
     inkscape:label="pigtail" />
</svg>
