<?xml version="1.0" encoding="UTF-8" standalone="no"?>
<!-- Created with Inkscape (http://www.inkscape.org/) -->

<svg
   width="695mm"
   height="548.55176mm"
   viewBox="0 0 695.00002 548.55174"
   version="1.1"
   id="svg5"
   inkscape:version="1.2.1 (9c6d41e410, 2022-07-14)"
   sodipodi:docname="thumbnail.svg"
   xmlns:inkscape="http://www.inkscape.org/namespaces/inkscape"
   xmlns:sodipodi="http://sodipodi.sourceforge.net/DTD/sodipodi-0.dtd"
   xmlns="http://www.w3.org/2000/svg"
   xmlns:svg="http://www.w3.org/2000/svg">
  <sodipodi:namedview
     id="namedview7"
     pagecolor="#ffffff"
     bordercolor="#000000"
     borderopacity="0.25"
     inkscape:showpageshadow="2"
     inkscape:pageopacity="0.0"
     inkscape:pagecheckerboard="0"
     inkscape:deskcolor="#d1d1d1"
     inkscape:document-units="mm"
     showgrid="false"
     inkscape:zoom="0.26016034"
     inkscape:cx="334.40916"
     inkscape:cy="1120.4629"
     inkscape:window-width="1920"
     inkscape:window-height="1013"
     inkscape:window-x="-9"
     inkscape:window-y="131"
     inkscape:window-maximized="1"
     inkscape:current-layer="layer1" />
  <defs
     id="defs2">
    <pattern
       id="EMFhbasepattern"
       patternUnits="userSpaceOnUse"
       width="6"
       height="6"
       x="0"
       y="0" />
    <pattern
       id="EMFhbasepattern-1"
       patternUnits="userSpaceOnUse"
       width="6"
       height="6"
       x="0"
       y="0" />
    <pattern
       id="EMFhbasepattern-6"
       patternUnits="userSpaceOnUse"
       width="6"
       height="6"
       x="0"
       y="0" />
    <pattern
       id="EMFhbasepattern-5"
       patternUnits="userSpaceOnUse"
       width="6"
       height="6"
       x="0"
       y="0" />
    <pattern
       id="EMFhbasepattern-2"
       patternUnits="userSpaceOnUse"
       width="6"
       height="6"
       x="0"
       y="0" />
  </defs>
  <g
     inkscape:label="Layer 1"
     inkscape:groupmode="layer"
     id="layer1"
     transform="translate(-302.5514,-149.43319)">
    <g
       id="g1112">
      <g
         id="g964">
        <path
           style="fill:#c8c8c8;fill-opacity:1;fill-rule:evenodd;stroke:none;stroke-width:1.06116"
           d="m 404.48577,472.45856 h -30.52836 v -92.42424 h 61.01678 v 92.42424 z"
           id="path497" />
        <path
           style="fill:#000000;fill-opacity:1;fill-rule:evenodd;stroke:none;stroke-width:1.06116"
           d="m 404.48577,471.73932 v 0.71924 0.71924 h -30.52836 v -0.71924 -0.71924 z"
           id="path499" />
        <path
           style="fill:#000000;fill-opacity:1;fill-rule:evenodd;stroke:none;stroke-width:1.06116"
           d="m 373.95741,473.1778 c -0.11992,0 -0.23984,-0.0401 -0.35976,-0.0798 -0.11992,-0.0798 -0.19973,-0.16002 -0.27954,-0.27954 -0.0401,-0.11992 -0.0798,-0.23984 -0.0798,-0.35976 h 0.71923 z"
           id="path501" />
        <path
           style="fill:#000000;fill-opacity:1;fill-rule:evenodd;stroke:none;stroke-width:1.06116"
           d="m 374.67665,472.45856 h -0.71924 -0.71927 v -92.42424 h 0.71927 0.71924 z"
           id="path503" />
        <path
           style="fill:#000000;fill-opacity:1;fill-rule:evenodd;stroke:none;stroke-width:1.06116"
           d="m 373.23814,380.03432 c 0,-0.11992 0.0401,-0.23984 0.0798,-0.35976 0.0798,-0.11992 0.16003,-0.19973 0.27954,-0.27955 0.11992,-0.0401 0.23984,-0.0798 0.35976,-0.0798 v 0.71928 z"
           id="path505" />
        <path
           style="fill:#000000;fill-opacity:1;fill-rule:evenodd;stroke:none;stroke-width:1.06116"
           d="m 373.95741,380.75355 v -0.71923 -0.71928 h 61.01678 v 0.71928 0.71923 z"
           id="path507" />
        <path
           style="fill:#000000;fill-opacity:1;fill-rule:evenodd;stroke:none;stroke-width:1.06116"
           d="m 434.97419,379.31504 c 0.11992,0 0.23984,0.0401 0.35976,0.0798 0.11992,0.0798 0.19973,0.16003 0.27954,0.27955 0.0401,0.11992 0.0798,0.23984 0.0798,0.35976 v 0 h -0.71924 z"
           id="path509" />
        <path
           style="fill:#000000;fill-opacity:1;fill-rule:evenodd;stroke:none;stroke-width:1.06116"
           d="m 434.25496,380.03432 h 0.71923 0.71928 v 92.42424 h -0.71928 -0.71923 z"
           id="path511" />
        <path
           style="fill:#000000;fill-opacity:1;fill-rule:evenodd;stroke:none;stroke-width:1.06116"
           d="m 435.69347,472.45856 c 0,0.11992 -0.0401,0.23984 -0.0798,0.35976 -0.0798,0.11992 -0.16002,0.19973 -0.27954,0.27954 -0.11992,0.0401 -0.23984,0.0798 -0.35976,0.0798 v -0.71924 z"
           id="path513" />
        <path
           style="fill:#000000;fill-opacity:1;fill-rule:evenodd;stroke:none;stroke-width:1.06116"
           d="m 434.97419,471.73932 v 0.71924 0.71924 h -30.48842 v -0.71924 -0.71924 z"
           id="path515" />
        <path
           style="fill:#c8c8c8;fill-opacity:1;fill-rule:evenodd;stroke:none;stroke-width:1.06116"
           d="M 913.31866,470.46064 H 882.7903 V 378.0364 h 61.01678 v 92.42424 z"
           id="path517" />
        <path
           style="fill:#000000;fill-opacity:1;fill-rule:evenodd;stroke:none;stroke-width:1.06116"
           d="m 913.31866,469.74136 v 0.71928 0.71923 H 882.7903 v -0.71923 -0.71928 z"
           id="path519" />
        <path
           style="fill:#000000;fill-opacity:1;fill-rule:evenodd;stroke:none;stroke-width:1.06116"
           d="m 882.7903,471.17987 c -0.11992,0 -0.23984,-0.0401 -0.35976,-0.0798 -0.11992,-0.0798 -0.19973,-0.16002 -0.27954,-0.27954 -0.0401,-0.11992 -0.0798,-0.23984 -0.0798,-0.35976 h 0.71928 z"
           id="path521" />
        <path
           style="fill:#000000;fill-opacity:1;fill-rule:evenodd;stroke:none;stroke-width:1.06116"
           d="m 883.50954,470.46064 h -0.71924 -0.71928 V 378.0364 h 0.71928 0.71924 z"
           id="path523" />
        <path
           style="fill:#000000;fill-opacity:1;fill-rule:evenodd;stroke:none;stroke-width:1.06116"
           d="m 882.07102,378.0364 c 0,-0.11992 0.0401,-0.23984 0.0798,-0.35976 0.0798,-0.11992 0.16002,-0.19973 0.27954,-0.27955 0.11992,-0.0401 0.23984,-0.0798 0.35976,-0.0798 v 0.71928 z"
           id="path525" />
        <path
           style="fill:#000000;fill-opacity:1;fill-rule:evenodd;stroke:none;stroke-width:1.06116"
           d="m 882.7903,378.75563 v -0.71923 -0.71928 h 61.01678 v 0.71928 0.71923 z"
           id="path527" />
        <path
           style="fill:#000000;fill-opacity:1;fill-rule:evenodd;stroke:none;stroke-width:1.06116"
           d="m 943.80708,377.31712 c 0.11992,0 0.23984,0.0401 0.35976,0.0798 0.11992,0.0798 0.19973,0.16003 0.27954,0.27955 0.0401,0.11992 0.0798,0.23984 0.0798,0.35976 v 0 h -0.71923 z"
           id="path529" />
        <path
           style="fill:#000000;fill-opacity:1;fill-rule:evenodd;stroke:none;stroke-width:1.06116"
           d="m 943.08784,378.0364 h 0.71924 0.71923 v 92.42424 h -0.71923 -0.71924 z"
           id="path531" />
        <path
           style="fill:#000000;fill-opacity:1;fill-rule:evenodd;stroke:none;stroke-width:1.06116"
           d="m 944.52631,470.46064 c 0,0.11992 -0.0401,0.23984 -0.0798,0.35976 -0.0798,0.11992 -0.16003,0.19973 -0.27954,0.27954 -0.11992,0.0401 -0.23984,0.0798 -0.35976,0.0798 v -0.71923 z"
           id="path533" />
        <path
           style="fill:#000000;fill-opacity:1;fill-rule:evenodd;stroke:none;stroke-width:1.06116"
           d="m 943.80708,469.74136 v 0.71928 0.71923 h -30.48842 v -0.71923 -0.71928 z"
           id="path535" />
        <path
           id="path537"
           style="fill:#c8c8c8;fill-opacity:1;fill-rule:evenodd;stroke:none;stroke-width:1.06116"
           d="m 659.26193,150.15253 c -50.34779,0 -93.18341,11.46833 -136.77822,36.6422 -43.5948,25.17392 -74.96261,56.5412 -100.13652,100.13601 -25.17387,43.5948 -36.64221,86.43043 -36.64221,136.77821 0,50.34779 11.46834,93.18342 36.64221,136.77822 25.17391,43.59481 56.54172,74.96261 100.13652,100.13652 43.59481,25.17388 86.43043,36.64221 136.77822,36.64221 50.34778,0 93.1834,-11.46833 136.77821,-36.64221 43.59477,-25.17391 74.96261,-56.54171 100.13652,-100.13652 25.17388,-43.5948 36.6417,-86.43043 36.6417,-136.77822 0,-50.34778 -11.46782,-93.18341 -36.6417,-136.77821 -25.17391,-43.59481 -56.54175,-74.96209 -100.13652,-100.13601 -43.59481,-25.17387 -86.43043,-36.6422 -136.77821,-36.6422 z m 0,74.52258 c 36.68195,0 67.80947,8.35158 99.53656,26.65264 31.72711,18.34096 54.54395,41.15735 72.88495,72.88444 18.30102,31.72711 26.65212,62.85475 26.65212,99.49676 0,36.68196 -8.3511,67.80999 -26.65212,99.53708 -18.341,31.72713 -41.15784,54.54348 -72.88495,72.88444 -31.72709,18.30101 -62.85476,26.65212 -99.49677,26.65212 -36.68196,0 -67.80947,-8.35111 -99.53656,-26.65212 -31.72712,-18.34096 -54.54396,-41.15731 -72.88496,-72.88444 -18.30101,-31.72709 -26.65212,-62.85476 -26.65212,-99.49677 0,-36.68196 8.35111,-67.80996 26.65212,-99.53707 18.341,-31.72709 41.15784,-54.54348 72.88496,-72.88444 31.72709,-18.30106 62.85475,-26.65264 99.49677,-26.65264 z" />
        <path
           style="fill:#000000;fill-opacity:1;fill-rule:evenodd;stroke:none;stroke-width:1.06116"
           d="m 659.26186,697.26569 v 0.71924 c -25.25384,0 -48.58968,-2.87703 -71.12631,-8.91078 l 0.19973,-0.67929 0.19973,-0.71924 c 22.37681,5.99377 45.63272,8.87079 70.72673,8.87079 z"
           id="path539" />
        <path
           style="fill:#000000;fill-opacity:1;fill-rule:evenodd;stroke:none;stroke-width:1.06116"
           d="m 588.33532,688.39486 -0.19973,0.67929 C 565.6389,683.0404 543.98133,673.84991 522.12398,661.26298 l 0.35976,-0.63934 0.35976,-0.63934 c 21.73747,12.58697 43.27516,21.69752 65.69195,27.69132 z"
           id="path541" />
        <path
           style="fill:#000000;fill-opacity:1;fill-rule:evenodd;stroke:none;stroke-width:1.06116"
           d="m 522.48354,660.62364 -0.35976,0.63934 c -21.85734,-12.62691 -40.63789,-26.81222 -57.14081,-43.27515 l 0.51946,-0.51951 0.51947,-0.51946 c 16.38304,16.38304 35.08365,30.48842 56.82112,43.03544 z"
           id="path543" />
        <path
           style="fill:#000000;fill-opacity:1;fill-rule:evenodd;stroke:none;stroke-width:1.06116"
           d="m 465.50259,617.46832 -0.51946,0.51951 c -16.46297,-16.50292 -30.64828,-35.28347 -43.2752,-57.14082 l 0.63934,-0.35976 0.63935,-0.35975 c 12.54702,21.7375 26.6524,40.43812 43.0354,56.82112 z"
           id="path545" />
        <path
           style="fill:#000000;fill-opacity:1;fill-rule:evenodd;stroke:none;stroke-width:1.06116"
           d="m 422.34727,560.48737 -0.63934,0.35976 C 409.121,538.98975 399.93052,517.33222 393.89677,494.83549 l 0.67929,-0.19973 0.71923,-0.19974 c 5.99381,22.4168 15.10436,43.95449 27.69133,65.69196 z"
           id="path547" />
        <path
           style="fill:#000000;fill-opacity:1;fill-rule:evenodd;stroke:none;stroke-width:1.06116"
           d="m 394.57606,494.6356 -0.67929,0.19973 c -6.03376,-22.5366 -8.91078,-45.87244 -8.91078,-71.12627 h 0.71924 0.71927 c 0,25.09401 2.87703,48.34992 8.87079,70.72672 z"
           id="path549" />
        <path
           style="fill:#000000;fill-opacity:1;fill-rule:evenodd;stroke:none;stroke-width:1.06116"
           d="m 385.70523,423.70906 h -0.71924 c 0,-25.25383 2.87702,-48.58963 8.91078,-71.12631 l 0.67929,0.19973 0.71923,0.19974 c -5.99376,22.3768 -8.87079,45.63271 -8.87079,70.72672 z"
           id="path551" />
        <path
           style="fill:#000000;fill-opacity:1;fill-rule:evenodd;stroke:none;stroke-width:1.06116"
           d="m 394.57606,352.78252 -0.67929,-0.19973 c 6.03375,-22.49669 15.22423,-44.15426 27.81116,-66.0116 l 0.63934,0.35976 0.63935,0.35975 c -12.58697,21.73751 -21.69752,43.2752 -27.69133,65.69196 z"
           id="path553" />
        <path
           style="fill:#000000;fill-opacity:1;fill-rule:evenodd;stroke:none;stroke-width:1.06116"
           d="m 422.34727,286.93075 -0.63934,-0.35976 c 12.62692,-21.85739 26.81223,-40.63794 43.2752,-57.14082 l 0.51946,0.51943 0.51943,0.51946 c -16.383,16.38304 -30.48838,35.0837 -43.0354,56.82116 z"
           id="path555" />
        <path
           style="fill:#000000;fill-opacity:1;fill-rule:evenodd;stroke:none;stroke-width:1.06116"
           d="m 465.50259,229.94976 -0.51946,-0.51943 c 16.50288,-16.46297 35.28343,-30.64828 57.14077,-43.27519 l 0.35976,0.63934 0.35976,0.63934 c -21.73746,12.54698 -40.43808,26.6524 -56.82112,43.0354 z"
           id="path557" />
        <path
           style="fill:#000000;fill-opacity:1;fill-rule:evenodd;stroke:none;stroke-width:1.06116"
           d="m 522.48354,186.79448 -0.35976,-0.63934 c 21.85735,-12.58697 43.51492,-21.77742 66.01161,-27.81117 l 0.19973,0.67929 0.19973,0.71924 c -22.41679,5.9938 -43.95445,15.10435 -65.69195,27.69132 z"
           id="path559" />
        <path
           style="fill:#000000;fill-opacity:1;fill-rule:evenodd;stroke:none;stroke-width:1.06116"
           d="m 588.33532,159.02326 -0.19973,-0.67929 c 22.53667,-6.03375 45.87251,-8.91078 71.12635,-8.91078 v 0.71924 0.71928 c -25.09401,0 -48.34996,2.87702 -70.72677,8.87079 z"
           id="path561" />
        <path
           style="fill:#000000;fill-opacity:1;fill-rule:evenodd;stroke:none;stroke-width:1.06116"
           d="m 659.26186,150.15243 v -0.71924 c 25.25383,0 48.58967,2.87703 71.12631,8.91078 l -0.19974,0.67929 -0.19973,0.71924 c -22.37681,-5.99377 -45.63272,-8.87079 -70.72672,-8.87079 z"
           id="path563" />
        <path
           style="fill:#000000;fill-opacity:1;fill-rule:evenodd;stroke:none;stroke-width:1.06116"
           d="m 730.18839,159.02326 0.19973,-0.67929 c 22.49669,6.03375 44.15426,15.2242 66.01161,27.81117 l -0.35976,0.63934 -0.35976,0.63934 C 773.94271,174.84685 752.40505,165.7363 729.98826,159.7425 Z"
           id="path565" />
        <path
           style="fill:#000000;fill-opacity:1;fill-rule:evenodd;stroke:none;stroke-width:1.06116"
           d="m 796.04017,186.79448 0.35976,-0.63934 c 21.85738,12.62691 40.63793,26.81222 57.14081,43.27519 l -0.51946,0.51943 -0.51946,0.51946 c -16.38305,-16.383 -35.08366,-30.48842 -56.82113,-43.0354 z"
           id="path567" />
        <path
           style="fill:#000000;fill-opacity:1;fill-rule:evenodd;stroke:none;stroke-width:1.06116"
           d="m 853.02112,229.94976 0.51946,-0.51943 c 16.46294,16.50288 30.64824,35.28343 43.27516,57.14082 l -0.6393,0.35976 -0.63935,0.35975 C 882.99007,265.5532 868.8847,246.85254 852.50166,230.4695 Z"
           id="path569" />
        <path
           style="fill:#000000;fill-opacity:1;fill-rule:evenodd;stroke:none;stroke-width:1.06116"
           d="m 896.17644,286.93075 0.6393,-0.35976 c 12.58697,21.85734 21.77745,43.51491 27.81121,66.0116 l -0.67929,0.19973 -0.71928,0.19973 C 917.23461,330.5653 908.12402,309.02761 895.53709,287.2901 Z"
           id="path571" />
        <path
           style="fill:#000000;fill-opacity:1;fill-rule:evenodd;stroke:none;stroke-width:1.06116"
           d="m 923.94766,352.78252 0.67929,-0.19973 c 6.03375,22.53668 8.91077,45.87248 8.91077,71.12631 h -0.71927 -0.71924 c 0,-25.09401 -2.87702,-48.34992 -8.87083,-70.72672 z"
           id="path573" />
        <path
           style="fill:#000000;fill-opacity:1;fill-rule:evenodd;stroke:none;stroke-width:1.06116"
           d="m 932.81845,423.70906 h 0.71927 c 0,25.25383 -2.87702,48.58967 -8.91077,71.12631 l -0.67929,-0.19973 -0.71928,-0.19974 c 5.99381,-22.3768 8.87083,-45.63271 8.87083,-70.72672 z"
           id="path575" />
        <path
           style="fill:#000000;fill-opacity:1;fill-rule:evenodd;stroke:none;stroke-width:1.06116"
           d="m 923.94766,494.6356 0.67929,0.19973 c -6.03376,22.49673 -15.22424,44.15426 -27.81121,66.01164 l -0.6393,-0.35976 -0.63935,-0.35975 c 12.58693,-21.73747 21.69752,-43.27516 27.69129,-65.69196 z"
           id="path577" />
        <path
           style="fill:#000000;fill-opacity:1;fill-rule:evenodd;stroke:none;stroke-width:1.06116"
           d="m 896.17644,560.48737 0.6393,0.35976 c -12.62692,21.85735 -26.81222,40.6379 -43.27516,57.14082 l -0.51946,-0.51951 -0.51946,-0.51946 c 16.38304,-16.383 30.48841,-35.08362 43.03543,-56.82112 z"
           id="path579" />
        <path
           style="fill:#000000;fill-opacity:1;fill-rule:evenodd;stroke:none;stroke-width:1.06116"
           d="m 853.02112,617.46832 0.51946,0.51951 c -16.50288,16.46293 -35.28343,30.64824 -57.14081,43.27515 l -0.35976,-0.63934 -0.35976,-0.63934 c 21.73747,-12.54702 40.43808,-26.6524 56.82112,-43.03544 z"
           id="path581" />
        <path
           style="fill:#000000;fill-opacity:1;fill-rule:evenodd;stroke:none;stroke-width:1.06116"
           d="m 796.04017,660.62364 0.35976,0.63934 c -21.85734,12.58693 -43.51492,21.77742 -66.0116,27.81117 l -0.19974,-0.67929 -0.19973,-0.71924 c 22.4168,-5.9938 43.95445,-15.10435 65.69195,-27.69132 z"
           id="path583" />
        <path
           style="fill:#000000;fill-opacity:1;fill-rule:evenodd;stroke:none;stroke-width:1.06116"
           d="m 730.18839,688.39486 0.19973,0.67929 c -22.53663,6.03375 -45.87247,8.91078 -71.1263,8.91078 v -0.71924 -0.71928 c 25.094,0 48.34991,-2.87702 70.72672,-8.87079 z"
           id="path585" />
        <path
           style="fill:#c8c8c8;fill-opacity:1;fill-rule:evenodd;stroke:none;stroke-width:1.06116"
           d="m 996.63236,436.1362 c -12.50704,8.1915 -25.05406,16.42299 -37.5611,24.61449 -5.03477,0.0401 -10.10953,0.0798 -15.1443,0.11992 0,-24.57454 0,-49.18903 0,-73.76357 4.79501,0.0401 9.55012,0.0401 14.34513,0.0798 13.0265,8.23149 25.69336,16.98244 38.56004,25.45365 -0.0798,7.8319 -0.11992,15.66376 -0.19973,23.49566 z"
           id="path587" />
        <path
           style="fill:#000000;fill-opacity:1;fill-rule:evenodd;stroke:none;stroke-width:1.06116"
           d="m 997.35159,436.1362 c 0,0.11992 -0.0401,0.23984 -0.0798,0.35976 -0.0798,0.11992 -0.16003,0.16003 -0.23984,0.23984 l -0.39946,-0.59936 z"
           id="path589" />
        <path
           style="fill:#000000;fill-opacity:1;fill-rule:evenodd;stroke:none;stroke-width:1.06116"
           d="m 996.63236,436.1362 0.39946,0.59936 c -12.50704,8.1915 -25.05406,16.42299 -37.5611,24.61453 l -0.39946,-0.5994 -0.39946,-0.59939 c 12.50703,-8.1915 25.05405,-16.42295 37.56109,-24.61449 z"
           id="path591" />
        <path
           style="fill:#000000;fill-opacity:1;fill-rule:evenodd;stroke:none;stroke-width:1.06116"
           d="m 959.47084,461.35009 c 0,0 -0.0401,0 -0.0401,0.0401 -0.11992,0.0401 -0.23984,0.0798 -0.35976,0.0798 v -0.71928 z"
           id="path593" />
        <path
           style="fill:#000000;fill-opacity:1;fill-rule:evenodd;stroke:none;stroke-width:1.06116"
           d="m 959.07126,460.75069 v 0.71928 c -5.03477,0.0401 -10.10953,0.0798 -15.1443,0.11992 v -0.71924 -0.71927 c 5.03477,-0.0401 10.10953,-0.0798 15.1443,-0.11992 z"
           id="path595" />
        <path
           style="fill:#000000;fill-opacity:1;fill-rule:evenodd;stroke:none;stroke-width:1.06116"
           d="m 943.92696,461.58981 c 0,0 0,0 0,0 -0.11992,0 -0.23984,-0.0401 -0.35976,-0.0798 -0.11992,-0.0798 -0.19973,-0.16003 -0.27955,-0.27955 -0.0401,-0.11992 -0.0798,-0.23984 -0.0798,-0.35976 h 0.71928 z"
           id="path597" />
        <path
           style="fill:#000000;fill-opacity:1;fill-rule:evenodd;stroke:none;stroke-width:1.06116"
           d="m 944.64619,460.87057 h -0.71923 -0.71928 V 387.107 h 0.71928 0.71923 z"
           id="path599" />
        <path
           style="fill:#000000;fill-opacity:1;fill-rule:evenodd;stroke:none;stroke-width:1.06116"
           d="m 943.20768,387.107 c 0,-0.11992 0.0401,-0.23984 0.0798,-0.35976 0.0798,-0.11992 0.16003,-0.19973 0.27955,-0.27954 0.11992,-0.0401 0.23984,-0.0798 0.35976,-0.0798 0,0 0,0 0,0 v 0.71928 z"
           id="path601" />
        <path
           style="fill:#000000;fill-opacity:1;fill-rule:evenodd;stroke:none;stroke-width:1.06116"
           d="m 943.92696,387.107 v -0.71928 c 4.79501,0.0401 9.55012,0.0401 14.34513,0.0798 v 0.71924 0.71928 c -4.79501,-0.0401 -9.55012,-0.0401 -14.34513,-0.0798 z"
           id="path603" />
        <path
           style="fill:#000000;fill-opacity:1;fill-rule:evenodd;stroke:none;stroke-width:1.06116"
           d="m 958.27209,386.46766 c 0.11992,0 0.23984,0.0401 0.35976,0.0798 0,0.0401 0,0.0401 0.0401,0.0401 l -0.39947,0.59936 z"
           id="path605" />
        <path
           style="fill:#000000;fill-opacity:1;fill-rule:evenodd;stroke:none;stroke-width:1.06116"
           d="m 958.27209,387.18689 0.39946,-0.59936 c 13.0265,8.23145 25.69341,16.9824 38.56004,25.45361 l -0.39946,0.5994 -0.39947,0.59939 c -12.86667,-8.47124 -25.53353,-17.22216 -38.56003,-25.45364 z"
           id="path607" />
        <path
           style="fill:#000000;fill-opacity:1;fill-rule:evenodd;stroke:none;stroke-width:1.06116"
           d="m 997.23171,412.04114 c 0.0798,0.0798 0.16003,0.11992 0.23984,0.23984 0.0401,0.11992 0.0798,0.23984 0.0798,0.35976 0,0 0,0 0,0 h -0.71927 z"
           id="path609" />
        <path
           style="fill:#000000;fill-opacity:1;fill-rule:evenodd;stroke:none;stroke-width:1.06116"
           d="m 996.83213,412.64054 h 0.71927 c -0.0798,7.8319 -0.11992,15.66376 -0.19973,23.49566 h -0.71923 -0.71928 c 0.0798,-7.8319 0.11992,-15.66376 0.19973,-23.49566 z"
           id="path611" />
        <path
           style="fill:#000000;fill-opacity:1;fill-rule:evenodd;stroke:none;stroke-width:1.06116"
           d="m 659.3018,622.78284 v 0.71924 c -18.42091,0 -35.40331,-2.07782 -51.82629,-6.47329 l 0.19973,-0.71923 0.19973,-0.67929 c 16.26312,4.35548 33.16563,6.43333 51.42671,6.43333 z"
           id="path615" />
        <path
           style="fill:#000000;fill-opacity:1;fill-rule:evenodd;stroke:none;stroke-width:1.06116"
           d="m 607.67528,616.30956 -0.19973,0.71923 c -16.38301,-4.39543 -32.16665,-11.06852 -48.07021,-20.259 l 0.35975,-0.63935 0.35976,-0.63934 c 15.82363,9.15053 31.44745,15.78364 47.75056,20.13917 z"
           id="path617" />
        <path
           style="fill:#000000;fill-opacity:1;fill-rule:evenodd;stroke:none;stroke-width:1.06116"
           d="m 559.76493,596.13044 -0.35976,0.63935 C 543.50165,587.5793 529.79582,577.23001 517.7683,565.24244 l 0.51946,-0.51946 0.51947,-0.51947 c 11.90764,11.90768 25.49359,22.17704 41.31718,31.28759 z"
           id="path619" />
        <path
           style="fill:#000000;fill-opacity:1;fill-rule:evenodd;stroke:none;stroke-width:1.06116"
           d="m 518.28788,564.72298 -0.51946,0.51946 c -11.98757,-12.02752 -22.33686,-25.73335 -31.52734,-41.63687 l 0.63934,-0.35976 0.63934,-0.35976 c 9.11055,15.82359 19.37991,29.4095 31.28759,41.31718 z"
           id="path621" />
        <path
           style="fill:#000000;fill-opacity:1;fill-rule:evenodd;stroke:none;stroke-width:1.06116"
           d="m 486.88042,523.24593 -0.63934,0.35976 c -9.19048,-15.90353 -15.86354,-31.68717 -20.25901,-48.07021 l 0.71928,-0.19974 0.67929,-0.16002 c 4.35548,16.26316 10.98859,31.88694 20.13912,47.71057 z"
           id="path623" />
        <path
           style="fill:#000000;fill-opacity:1;fill-rule:evenodd;stroke:none;stroke-width:1.06116"
           d="m 466.70135,475.33558 -0.71928,0.19974 c -4.39543,-16.38301 -6.47328,-33.40539 -6.47328,-51.78635 h 0.71923 0.71928 c 0,18.26112 2.07785,35.16359 6.43334,51.42675 z"
           id="path625" />
        <path
           style="fill:#000000;fill-opacity:1;fill-rule:evenodd;stroke:none;stroke-width:1.06116"
           d="m 460.22802,423.74901 h -0.71923 c 0,-18.38093 2.07785,-35.40331 6.47328,-51.78631 l 0.71928,0.16002 0.67929,0.19973 c -4.35549,16.26317 -6.43334,33.16563 -6.43334,51.42672 z"
           id="path627" />
        <path
           style="fill:#000000;fill-opacity:1;fill-rule:evenodd;stroke:none;stroke-width:1.06116"
           d="m 466.70135,372.12252 -0.71928,-0.16002 c 4.39547,-16.42299 11.06853,-32.20668 20.25901,-48.1102 l 0.63934,0.35976 0.63934,0.35975 c -9.15053,15.8236 -15.78364,31.48736 -20.13912,47.75052 z"
           id="path629" />
        <path
           style="fill:#000000;fill-opacity:1;fill-rule:evenodd;stroke:none;stroke-width:1.06116"
           d="m 486.88042,324.21214 -0.63934,-0.35976 c 9.19048,-15.90353 19.53977,-29.60932 31.52734,-41.63684 l 0.51946,0.51943 0.51947,0.5195 c -11.90768,11.90764 -22.17704,25.49355 -31.28759,41.31718 z"
           id="path631" />
        <path
           style="fill:#000000;fill-opacity:1;fill-rule:evenodd;stroke:none;stroke-width:1.06116"
           d="m 518.28788,282.73509 -0.51946,-0.51943 c 12.02756,-11.98757 25.73335,-22.33686 41.63687,-31.52734 l 0.35976,0.63934 0.35976,0.63931 c -15.82363,9.11059 -29.40954,19.37994 -41.31718,31.28762 z"
           id="path633" />
        <path
           style="fill:#000000;fill-opacity:1;fill-rule:evenodd;stroke:none;stroke-width:1.06116"
           d="m 559.76493,251.32766 -0.35976,-0.63934 c 15.90353,-9.19052 31.68717,-15.86358 48.07018,-20.25905 l 0.19973,0.71928 0.16002,0.67929 c -16.26312,4.35548 -31.88694,10.98859 -47.71057,20.13913 z"
           id="path635" />
        <path
           style="fill:#000000;fill-opacity:1;fill-rule:evenodd;stroke:none;stroke-width:1.06116"
           d="m 607.67528,231.14855 -0.19973,-0.71928 c 16.38304,-4.39542 33.40542,-6.47328 51.78639,-6.47328 v 0.71924 0.71927 c -18.26109,0 -35.16359,2.07786 -51.42676,6.43334 z"
           id="path637" />
        <path
           style="fill:#000000;fill-opacity:1;fill-rule:evenodd;stroke:none;stroke-width:1.06116"
           d="m 659.26186,224.67523 v -0.71924 c 18.38096,0 35.4033,2.07786 51.78635,6.47328 l -0.16003,0.71928 -0.19973,0.67929 c -16.26312,-4.35548 -33.16563,-6.43334 -51.42671,-6.43334 z"
           id="path639" />
        <path
           style="fill:#000000;fill-opacity:1;fill-rule:evenodd;stroke:none;stroke-width:1.06116"
           d="m 710.88838,231.14855 0.16003,-0.71928 c 16.42299,4.39547 32.20663,11.06853 48.11015,20.25905 l -0.35975,0.63934 -0.35976,0.63931 c -15.82363,-9.15054 -31.4874,-15.78365 -47.75056,-20.13913 z"
           id="path641" />
        <path
           style="fill:#000000;fill-opacity:1;fill-rule:evenodd;stroke:none;stroke-width:1.06116"
           d="m 758.79873,251.32766 0.35975,-0.63934 c 15.90353,9.19048 29.60932,19.53977 41.63688,31.52734 l -0.51947,0.51943 -0.51946,0.5195 c -11.90768,-11.90768 -25.49359,-22.17703 -41.31718,-31.28762 z"
           id="path643" />
        <path
           style="fill:#000000;fill-opacity:1;fill-rule:evenodd;stroke:none;stroke-width:1.06116"
           d="m 800.27577,282.73509 0.51947,-0.51943 c 11.98757,12.02752 22.33686,25.73331 31.52734,41.63684 l -0.63934,0.35976 -0.63934,0.35976 c -9.11055,-15.82364 -19.37991,-29.40955 -31.28759,-41.31719 z"
           id="path645" />
        <path
           style="fill:#000000;fill-opacity:1;fill-rule:evenodd;stroke:none;stroke-width:1.06116"
           d="m 831.68324,324.21214 0.63934,-0.35976 c 9.19048,15.90352 15.86354,31.68721 20.25901,48.07021 l -0.71928,0.19973 -0.67929,0.19973 c -4.35548,-16.30311 -10.98863,-31.92692 -20.13912,-47.75052 z"
           id="path647" />
        <path
           style="fill:#000000;fill-opacity:1;fill-rule:evenodd;stroke:none;stroke-width:1.06116"
           d="m 851.86231,372.12252 0.71928,-0.19973 c 4.39543,16.38304 6.47328,33.40539 6.47328,51.78635 h -0.71923 -0.71928 c 0,-18.26108 -2.07786,-35.1236 -6.43334,-51.38677 z"
           id="path649" />
        <path
           style="fill:#000000;fill-opacity:1;fill-rule:evenodd;stroke:none;stroke-width:1.06116"
           d="m 858.33564,423.70906 h 0.71923 c 0,18.42091 -2.07785,35.40335 -6.47328,51.8263 l -0.71928,-0.19974 -0.67929,-0.19973 c 4.35548,-16.26316 6.43334,-33.16567 6.43334,-51.42675 z"
           id="path651" />
        <path
           style="fill:#000000;fill-opacity:1;fill-rule:evenodd;stroke:none;stroke-width:1.06116"
           d="m 851.86231,475.33558 0.71928,0.19974 c -4.39547,16.38304 -11.06853,32.16668 -20.25901,48.07021 l -0.63934,-0.35976 -0.63934,-0.35976 c 9.15049,-15.82363 15.78364,-31.44741 20.13912,-47.75052 z"
           id="path653" />
        <path
           style="fill:#000000;fill-opacity:1;fill-rule:evenodd;stroke:none;stroke-width:1.06116"
           d="m 831.68324,523.24593 0.63934,0.35976 c -9.19048,15.90352 -19.53977,29.60935 -31.52734,41.63687 l -0.51947,-0.51946 -0.51946,-0.51947 c 11.90768,-11.90768 22.17704,-25.49359 31.28759,-41.31718 z"
           id="path655" />
        <path
           style="fill:#000000;fill-opacity:1;fill-rule:evenodd;stroke:none;stroke-width:1.06116"
           d="m 800.27577,564.72298 0.51947,0.51946 c -12.02756,11.98757 -25.73335,22.33686 -41.63688,31.52735 l -0.35975,-0.63935 -0.35976,-0.63934 c 15.82359,-9.11055 29.4095,-19.37991 41.31718,-31.28759 z"
           id="path657" />
        <path
           style="fill:#000000;fill-opacity:1;fill-rule:evenodd;stroke:none;stroke-width:1.06116"
           d="m 758.79873,596.13044 0.35975,0.63935 c -15.90352,9.19048 -31.68716,15.86357 -48.07021,20.259 l -0.19973,-0.71923 -0.19973,-0.67929 c 16.30311,-4.35553 31.92693,-10.98864 47.75056,-20.13917 z"
           id="path659" />
        <path
           style="fill:#000000;fill-opacity:1;fill-rule:evenodd;stroke:none;stroke-width:1.06116"
           d="m 710.88838,616.30956 0.19973,0.71923 c -16.383,4.39547 -33.40538,6.47329 -51.78635,6.47329 v -0.71924 -0.71924 c 18.26109,0 35.12365,-2.07785 51.38677,-6.43333 z"
           id="path661" />
        <path
           style="fill:#c8c8c8;fill-opacity:1;fill-rule:evenodd;stroke:none;stroke-width:1.06116"
           d="m 303.27063,436.01632 c 0,-7.51221 0,-15.02442 0,-22.53667 5.91388,-0.23984 11.62798,-0.27954 17.46192,-0.39946 12.50704,-8.31138 25.05406,-16.42299 37.5611,-24.61449 5.03477,-0.0401 10.10953,-0.0798 15.1443,-0.11992 0,24.57454 0,49.18903 0,73.76357 -4.79501,-0.0401 -9.55012,-0.0401 -14.34513,-0.0798 -13.0265,-8.23149 -25.69341,-16.98244 -38.56008,-25.45364 -5.75401,-0.19974 -11.66788,-0.11992 -17.26211,-0.55942 z"
           id="path663" />
        <path
           style="fill:#000000;fill-opacity:1;fill-rule:evenodd;stroke:none;stroke-width:1.06116"
           d="m 303.23069,436.73556 c -0.11992,0 -0.23984,-0.0401 -0.31965,-0.0798 -0.11992,-0.0798 -0.19974,-0.16003 -0.27955,-0.27955 -0.0401,-0.11992 -0.0798,-0.23984 -0.0798,-0.35976 h 0.71924 z"
           id="path665" />
        <path
           style="fill:#000000;fill-opacity:1;fill-rule:evenodd;stroke:none;stroke-width:1.06116"
           d="m 303.98991,436.01632 h -0.71928 -0.71923 v -22.53667 h 0.71923 0.71928 z"
           id="path667" />
        <path
           style="fill:#000000;fill-opacity:1;fill-rule:evenodd;stroke:none;stroke-width:1.06116"
           d="m 302.5514,413.47965 c 0,-0.11992 0.0401,-0.23984 0.0798,-0.35976 0.0798,-0.11992 0.16003,-0.19973 0.27955,-0.27954 0.11992,-0.0401 0.19973,-0.0798 0.31965,-0.0798 l 0.0401,0.71924 z"
           id="path669" />
        <path
           style="fill:#000000;fill-opacity:1;fill-rule:evenodd;stroke:none;stroke-width:1.06116"
           d="m 303.27063,413.47965 -0.0401,-0.71924 c 5.91387,-0.23983 11.66792,-0.27954 17.50186,-0.39946 v 0.71924 0.71927 c -5.83394,0.11992 -11.50806,0.16003 -17.42193,0.39947 z"
           id="path671" />
        <path
           style="fill:#000000;fill-opacity:1;fill-rule:evenodd;stroke:none;stroke-width:1.06116"
           d="m 321.13213,413.67946 c 0,0 -0.0401,0 -0.0401,0.0401 -0.11992,0.0401 -0.19973,0.0798 -0.35976,0.0798 v -0.71927 z"
           id="path673" />
        <path
           style="fill:#000000;fill-opacity:1;fill-rule:evenodd;stroke:none;stroke-width:1.06116"
           d="m 320.73255,413.08007 -0.39946,-0.59936 c 12.50703,-8.31138 25.05406,-16.42299 37.56109,-24.61453 l 0.39947,0.5994 0.39946,0.59939 c -12.50704,8.1915 -25.05406,16.30311 -37.5611,24.61449 z"
           id="path675" />
        <path
           style="fill:#000000;fill-opacity:1;fill-rule:evenodd;stroke:none;stroke-width:1.06116"
           d="m 357.89406,387.86618 c 0,0 0.0401,0 0.0401,-0.0401 0.11992,-0.0401 0.23984,-0.0798 0.35976,-0.0798 v 0.71924 z"
           id="path677" />
        <path
           style="fill:#000000;fill-opacity:1;fill-rule:evenodd;stroke:none;stroke-width:1.06116"
           d="m 358.29365,388.46558 v -0.71924 c 5.03477,-0.0401 10.10953,-0.0798 15.1443,-0.11992 v 0.71924 0.71927 c -5.03477,0.0401 -10.10953,0.0798 -15.1443,0.11992 z"
           id="path679" />
        <path
           style="fill:#000000;fill-opacity:1;fill-rule:evenodd;stroke:none;stroke-width:1.06116"
           d="m 373.43795,387.62646 c 0,0 0,0 0,0 0.11992,0 0.23984,0.0401 0.35976,0.0798 0.11992,0.0798 0.19973,0.16003 0.27954,0.27955 0.0401,0.11992 0.0798,0.23984 0.0798,0.35976 v 0 h -0.71923 z"
           id="path681" />
        <path
           style="fill:#000000;fill-opacity:1;fill-rule:evenodd;stroke:none;stroke-width:1.06116"
           d="m 372.71871,388.3457 h 0.71924 0.71923 v 73.76357 h -0.71923 -0.71924 z"
           id="path683" />
        <path
           style="fill:#000000;fill-opacity:1;fill-rule:evenodd;stroke:none;stroke-width:1.06116"
           d="m 374.15718,462.10927 c 0,0.11992 -0.0401,0.23984 -0.0798,0.35976 -0.0798,0.11992 -0.16002,0.19973 -0.27954,0.27954 -0.11992,0.0401 -0.23984,0.0798 -0.35976,0.0798 0,0 0,0 0,0 v -0.71928 z"
           id="path685" />
        <path
           style="fill:#000000;fill-opacity:1;fill-rule:evenodd;stroke:none;stroke-width:1.06116"
           d="m 373.43795,462.10927 v 0.71928 c -4.79501,-0.0401 -9.55012,-0.0401 -14.34513,-0.0798 v -0.71924 -0.71928 c 4.79501,0.0401 9.55012,0.0401 14.34513,0.0798 z"
           id="path687" />
        <path
           style="fill:#000000;fill-opacity:1;fill-rule:evenodd;stroke:none;stroke-width:1.06116"
           d="m 359.09282,462.74861 c -0.11992,0 -0.23984,-0.0401 -0.35976,-0.0798 0,-0.0401 0,-0.0401 -0.0401,-0.0401 l 0.39946,-0.59936 z"
           id="path689" />
        <path
           style="fill:#000000;fill-opacity:1;fill-rule:evenodd;stroke:none;stroke-width:1.06116"
           d="m 359.09282,462.02938 -0.39947,0.59936 c -13.0265,-8.23145 -25.6934,-16.9824 -38.56008,-25.45361 l 0.39947,-0.5994 0.39946,-0.59939 c 12.86668,8.47124 25.53358,17.2222 38.56008,25.45364 z"
           id="path691" />
        <path
           style="fill:#000000;fill-opacity:1;fill-rule:evenodd;stroke:none;stroke-width:1.06116"
           d="m 320.57272,435.8565 c 0.11992,0 0.19974,0.0401 0.31966,0.0798 0,0.0401 0.0401,0.0401 0.0401,0.0401 l -0.39946,0.59939 z"
           id="path693" />
        <path
           style="fill:#000000;fill-opacity:1;fill-rule:evenodd;stroke:none;stroke-width:1.06116"
           d="m 320.53274,436.57573 -0.0401,0.71928 c -5.75401,-0.19973 -11.66788,-0.11992 -17.2621,-0.55945 l 0.0401,-0.71924 0.0401,-0.71927 c 5.59422,0.43957 11.5081,0.35976 17.2621,0.55945 z"
           id="path695" />
        <path
           style="fill:#c8c8c8;fill-opacity:1;fill-rule:evenodd;stroke:none;stroke-width:1.24147"
           d="M 660.21692,496.15992 H 645.32984 V 468.36149 H 675.104 v 27.79843 z"
           id="path2481" />
        <path
           style="fill:#000000;fill-opacity:1;fill-rule:evenodd;stroke:none;stroke-width:1.24147"
           d="m 660.21692,495.33287 v 0.82705 0.82709 h -14.88708 v -0.82709 -0.82705 z"
           id="path2483" />
        <path
           style="fill:#000000;fill-opacity:1;fill-rule:evenodd;stroke:none;stroke-width:1.24147"
           d="m 645.32984,496.98701 c -0.13795,0 -0.2759,-0.0469 -0.41338,-0.092 -0.13795,-0.092 -0.22992,-0.18393 -0.32142,-0.32188 -0.0469,-0.13795 -0.092,-0.2759 -0.092,-0.41338 h 0.82705 z"
           id="path2485" />
        <path
           style="fill:#000000;fill-opacity:1;fill-rule:evenodd;stroke:none;stroke-width:1.24147"
           d="m 646.15688,496.15992 h -0.82704 -0.82709 v -27.79843 h 0.82709 0.82704 z"
           id="path2487" />
        <path
           style="fill:#000000;fill-opacity:1;fill-rule:evenodd;stroke:none;stroke-width:1.24147"
           d="m 644.50275,468.36149 c 0,-0.13795 0.0469,-0.2759 0.092,-0.41338 0.092,-0.13795 0.18394,-0.22992 0.32189,-0.32188 0.13795,-0.0469 0.27543,-0.092 0.41338,-0.092 v 0.82709 z"
           id="path2489" />
        <path
           style="fill:#000000;fill-opacity:1;fill-rule:evenodd;stroke:none;stroke-width:1.24147"
           d="m 645.32984,469.18858 v -0.82709 -0.82704 H 675.104 v 0.82704 0.82709 z"
           id="path2491" />
        <path
           style="fill:#000000;fill-opacity:1;fill-rule:evenodd;stroke:none;stroke-width:1.24147"
           d="m 675.104,467.53445 c 0.13795,0 0.2759,0.0469 0.41338,0.092 0.13795,0.092 0.22992,0.18393 0.32189,0.32188 0.0469,0.13795 0.092,0.2759 0.092,0.41338 v 0 h -0.82704 z"
           id="path2493" />
        <path
           style="fill:#000000;fill-opacity:1;fill-rule:evenodd;stroke:none;stroke-width:1.24147"
           d="m 674.27691,468.36149 h 0.82709 0.82704 v 27.79843 h -0.82704 -0.82709 z"
           id="path2495" />
        <path
           style="fill:#000000;fill-opacity:1;fill-rule:evenodd;stroke:none;stroke-width:1.24147"
           d="m 675.93104,496.15992 c 0,0.13795 -0.0469,0.2759 -0.092,0.41338 -0.092,0.13795 -0.18394,0.22992 -0.32189,0.32188 -0.13795,0.0469 -0.2759,0.092 -0.41338,0.092 v -0.82709 z"
           id="path2497" />
        <path
           style="fill:#000000;fill-opacity:1;fill-rule:evenodd;stroke:none;stroke-width:1.24147"
           d="m 675.104,495.33287 v 0.82705 0.82709 h -14.88708 v -0.82709 -0.82705 z"
           id="path2499" />
        <path
           style="fill:#c8c8c8;fill-opacity:1;fill-rule:evenodd;stroke:none;stroke-width:1.24147"
           d="m 660.26286,482.23774 c -11.53292,0 -21.27385,-2.61904 -31.24451,-8.36251 -9.92472,-5.74347 -17.0926,-12.91134 -22.83606,-22.83606 -5.74347,-9.97066 -8.36251,-19.71159 -8.36251,-31.19852 0,-11.53292 2.61904,-21.27385 8.36251,-31.24456 5.74346,-9.92472 12.91134,-17.09254 22.83606,-22.83601 9.97066,-5.74352 19.71159,-8.36251 31.19857,-8.36251 11.53287,0 21.2738,2.61899 31.2445,8.36251 9.92472,5.74347 17.09255,12.91129 22.83607,22.83601 5.74347,9.97071 8.36246,19.71164 8.36246,31.19857 0,11.53292 -2.61899,21.27385 -8.36246,31.24451 -5.74352,9.92472 -12.91135,17.09259 -22.83607,22.83606 -9.9707,5.74347 -19.71163,8.36251 -31.19856,8.36251 z"
           id="path2501" />
        <path
           style="fill:#000000;fill-opacity:1;fill-rule:evenodd;stroke:none;stroke-width:1.24147"
           d="m 660.26286,482.23774 v 0.82709 c -5.83539,0 -11.25721,-0.6433 -16.4493,-2.06771 l 0.22992,-0.7811 0.22991,-0.82705 c 5.05424,1.37842 10.29231,2.02172 15.98984,2.02172 z"
           id="path2503" />
        <path
           style="fill:#000000;fill-opacity:1;fill-rule:evenodd;stroke:none;stroke-width:1.24147"
           d="m 644.04329,480.21602 -0.22992,0.7811 c -5.19209,-1.37842 -10.1545,-3.49201 -15.20873,-6.38672 l 0.41338,-0.73517 0.41338,-0.73517 c 4.91643,2.84877 9.78687,4.91642 14.84115,6.24891 z"
           id="path2505" />
        <path
           style="fill:#000000;fill-opacity:1;fill-rule:evenodd;stroke:none;stroke-width:1.24147"
           d="m 629.01835,473.87523 -0.41338,0.73517 c -5.05428,-2.94064 -9.37334,-6.20292 -13.18701,-9.97065 l 0.59732,-0.59732 0.59731,-0.59736 c 3.67581,3.72179 7.903,6.89221 12.81942,9.69499 z"
           id="path2507" />
        <path
           style="fill:#000000;fill-opacity:1;fill-rule:evenodd;stroke:none;stroke-width:1.24147"
           d="m 616.01513,464.04243 -0.59736,0.59732 c -3.76768,-3.81367 -7.02997,-8.13278 -9.97065,-13.18706 l 0.73517,-0.41338 0.73517,-0.41338 c 2.80283,4.91642 5.9732,9.14361 9.69499,12.81947 z"
           id="path2509" />
        <path
           style="fill:#000000;fill-opacity:1;fill-rule:evenodd;stroke:none;stroke-width:1.24147"
           d="m 606.18229,451.03917 -0.73517,0.41338 c -2.89471,-5.05423 -5.0083,-10.01659 -6.38672,-15.20868 l 0.7811,-0.22992 0.82705,-0.18393 c 1.33248,5.00829 3.40014,9.87878 6.24891,14.79516 z"
           id="path2511" />
        <path
           style="fill:#000000;fill-opacity:1;fill-rule:evenodd;stroke:none;stroke-width:1.24147"
           d="m 599.8415,436.01423 -0.7811,0.22992 c -1.42441,-5.19209 -2.06766,-10.56797 -2.06766,-16.40336 h 0.82704 0.82705 c 0,5.69753 0.64329,10.9356 2.02172,15.98984 z"
           id="path2513" />
        <path
           style="fill:#000000;fill-opacity:1;fill-rule:evenodd;stroke:none;stroke-width:1.24147"
           d="m 597.81978,419.84065 h -0.82704 c 0,-5.83539 0.64325,-11.21127 2.06766,-16.40341 l 0.7811,0.18393 0.82705,0.22992 c -1.37843,5.05428 -2.02172,10.29235 -2.02172,15.98984 z"
           id="path2515" />
        <path
           style="fill:#000000;fill-opacity:1;fill-rule:evenodd;stroke:none;stroke-width:1.24147"
           d="m 599.8415,403.62103 -0.7811,-0.18393 c 1.37842,-5.23803 3.49201,-10.20039 6.38672,-15.25467 l 0.73517,0.41338 0.73517,0.41338 c -2.84877,4.91643 -4.91643,9.78692 -6.24891,14.84115 z"
           id="path2517" />
        <path
           style="fill:#000000;fill-opacity:1;fill-rule:evenodd;stroke:none;stroke-width:1.24147"
           d="m 606.18229,388.59609 -0.73517,-0.41338 c 2.94068,-5.05423 6.20297,-9.37334 9.97065,-13.18701 l 0.59736,0.59732 0.59732,0.59731 c -3.72179,3.67586 -6.89216,7.90305 -9.69499,12.81947 z"
           id="path2519" />
        <path
           style="fill:#000000;fill-opacity:1;fill-rule:evenodd;stroke:none;stroke-width:1.24147"
           d="m 616.01513,375.59288 -0.59736,-0.59732 c 3.81372,-3.76773 8.13278,-7.03002 13.18706,-9.97065 l 0.41338,0.73517 0.41338,0.73512 c -4.91642,2.80283 -9.14361,5.97325 -12.81947,9.69499 z"
           id="path2521" />
        <path
           style="fill:#000000;fill-opacity:1;fill-rule:evenodd;stroke:none;stroke-width:1.24147"
           d="m 629.01835,365.76008 -0.41338,-0.73517 c 5.05423,-2.89471 10.01659,-5.00835 15.20873,-6.38677 l 0.22992,0.78111 0.18393,0.82709 c -5.00834,1.33248 -9.87878,3.4001 -14.79521,6.24886 z"
           id="path2523" />
        <path
           style="fill:#000000;fill-opacity:1;fill-rule:evenodd;stroke:none;stroke-width:1.24147"
           d="m 644.04329,359.41925 -0.22992,-0.78111 c 5.19209,-1.42436 10.56797,-2.06766 16.40336,-2.06766 v 0.82709 0.82705 c -5.69753,0 -10.9356,0.64325 -15.98984,2.02172 z"
           id="path2525" />
        <path
           style="fill:#000000;fill-opacity:1;fill-rule:evenodd;stroke:none;stroke-width:1.24147"
           d="m 660.21692,357.39757 v -0.82709 c 5.83534,0 11.21127,0.6433 16.40336,2.06766 l -0.18393,0.78111 -0.22992,0.82709 c -5.05428,-1.37847 -10.29231,-2.02172 -15.98984,-2.02172 z"
           id="path2527" />
        <path
           style="fill:#000000;fill-opacity:1;fill-rule:evenodd;stroke:none;stroke-width:1.24147"
           d="m 676.43649,359.41925 0.18393,-0.78111 c 5.23803,1.37842 10.20039,3.49206 15.25467,6.38677 l -0.41338,0.73517 -0.41339,0.73512 c -4.91642,-2.84876 -9.78691,-4.91638 -14.84114,-6.24886 z"
           id="path2529" />
        <path
           style="fill:#000000;fill-opacity:1;fill-rule:evenodd;stroke:none;stroke-width:1.24147"
           d="m 691.46142,365.76008 0.41339,-0.73517 c 5.05423,2.94063 9.37334,6.20292 13.187,9.97065 l -0.59731,0.59732 -0.59732,0.59731 c -3.67585,-3.72174 -7.90304,-6.89216 -12.81947,-9.69499 z"
           id="path2531" />
        <path
           style="fill:#000000;fill-opacity:1;fill-rule:evenodd;stroke:none;stroke-width:1.24147"
           d="m 704.46464,375.59288 0.59732,-0.59732 c 3.76773,3.81367 7.03001,8.13278 9.97065,13.18701 l -0.73512,0.41338 -0.73517,0.41338 c -2.80283,-4.91637 -5.97325,-9.14361 -9.69499,-12.81942 z"
           id="path2533" />
        <path
           style="fill:#000000;fill-opacity:1;fill-rule:evenodd;stroke:none;stroke-width:1.24147"
           d="m 714.29749,388.59609 0.73512,-0.41338 c 2.89475,5.05428 5.00835,10.01664 6.38677,15.20873 l -0.78111,0.22992 -0.82704,0.22992 c -1.33249,-5.05424 -3.40015,-9.92472 -6.24891,-14.84115 z"
           id="path2535" />
        <path
           style="fill:#000000;fill-opacity:1;fill-rule:evenodd;stroke:none;stroke-width:1.24147"
           d="m 720.63827,403.62103 0.78111,-0.22992 c 1.42441,5.19214 2.06766,10.56802 2.06766,16.40337 h -0.82709 -0.82705 c 0,-5.65155 -0.64325,-10.88963 -2.02167,-15.94386 z"
           id="path2537" />
        <path
           style="fill:#000000;fill-opacity:1;fill-rule:evenodd;stroke:none;stroke-width:1.24147"
           d="m 722.65995,419.79466 h 0.82709 c 0,5.83539 -0.64325,11.25721 -2.06766,16.44935 l -0.78111,-0.22992 -0.82704,-0.22992 c 1.37842,-5.05428 2.02167,-10.2923 2.02167,-15.98984 z"
           id="path2539" />
        <path
           style="fill:#000000;fill-opacity:1;fill-rule:evenodd;stroke:none;stroke-width:1.24147"
           d="m 720.63827,436.01423 0.78111,0.22992 c -1.37842,5.19213 -3.49202,10.15449 -6.38677,15.20873 l -0.73512,-0.41338 -0.73517,-0.41338 c 2.84876,-4.91643 4.91642,-9.78687 6.24891,-14.84115 z"
           id="path2541" />
        <path
           style="fill:#000000;fill-opacity:1;fill-rule:evenodd;stroke:none;stroke-width:1.24147"
           d="m 714.29749,451.03917 0.73512,0.41338 c -2.94064,5.05428 -6.20292,9.37339 -9.97065,13.18706 l -0.59732,-0.59732 -0.59731,-0.59736 c 3.72174,-3.67581 6.89216,-7.903 9.69499,-12.81942 z"
           id="path2543" />
        <path
           style="fill:#000000;fill-opacity:1;fill-rule:evenodd;stroke:none;stroke-width:1.24147"
           d="m 704.46464,464.04243 0.59732,0.59732 c -3.81367,3.76773 -8.13278,7.03001 -13.18701,9.97065 l -0.41339,-0.73517 -0.41338,-0.73517 c 4.91643,-2.80278 9.14362,-5.9732 12.81943,-9.69499 z"
           id="path2545" />
        <path
           style="fill:#000000;fill-opacity:1;fill-rule:evenodd;stroke:none;stroke-width:1.24147"
           d="m 691.46142,473.87523 0.41339,0.73517 c -5.05428,2.89471 -10.01665,5.0083 -15.20873,6.38672 l -0.22992,-0.7811 -0.22992,-0.82705 c 5.05423,-1.33249 9.92472,-3.40014 14.84115,-6.24891 z"
           id="path2547" />
        <path
           style="fill:#000000;fill-opacity:1;fill-rule:evenodd;stroke:none;stroke-width:1.24147"
           d="m 676.43649,480.21602 0.22991,0.7811 c -5.19209,1.42441 -10.56802,2.06771 -16.40336,2.06771 v -0.82709 -0.82705 c 5.65155,0 10.88962,-0.6433 15.94386,-2.02172 z"
           id="path2549" />
        <g
           id="g990"
           transform="matrix(4.0106838,0,0,5.0322262,-109.38851,-1090.0444)">
          <path
             style="fill:#c8c8c8;fill-opacity:1;fill-rule:evenodd;stroke:none;stroke-width:0.264583"
             d="m 191.90163,343.97901 h -5.83345 v -29.5958 h 11.65717 v 29.5958 z"
             id="path945" />
          <path
             style="fill:#000000;fill-opacity:1;fill-rule:evenodd;stroke:none;stroke-width:0.264583"
             d="m 191.90163,343.80371 v 0.1753 0.17529 h -5.83345 v -0.17529 -0.1753 z"
             id="path947" />
          <path
             style="fill:#000000;fill-opacity:1;fill-rule:evenodd;stroke:none;stroke-width:0.264583"
             d="m 186.06818,344.1543 c -0.0292,0 -0.0584,-0.01 -0.0877,-0.0195 -0.0292,-0.0195 -0.0487,-0.0389 -0.0682,-0.0682 -0.01,-0.0292 -0.0195,-0.0584 -0.0195,-0.0876 h 0.17529 z"
             id="path949" />
          <path
             style="fill:#000000;fill-opacity:1;fill-rule:evenodd;stroke:none;stroke-width:0.264583"
             d="m 186.24347,343.97901 h -0.17529 -0.1753 v -29.5958 h 0.1753 0.17529 z"
             id="path951" />
          <path
             style="fill:#000000;fill-opacity:1;fill-rule:evenodd;stroke:none;stroke-width:0.264583"
             d="m 185.89288,314.38321 c 0,-0.0292 0.01,-0.0584 0.0195,-0.0876 0.0195,-0.0292 0.039,-0.0487 0.0682,-0.0682 0.0292,-0.01 0.0584,-0.0195 0.0877,-0.0195 v 0.1753 z"
             id="path953" />
          <path
             style="fill:#000000;fill-opacity:1;fill-rule:evenodd;stroke:none;stroke-width:0.264583"
             d="m 186.06818,314.55851 v -0.1753 -0.17529 h 11.65717 v 0.17529 0.1753 z"
             id="path955" />
          <path
             style="fill:#000000;fill-opacity:1;fill-rule:evenodd;stroke:none;stroke-width:0.264583"
             d="m 197.72535,314.20792 c 0.0292,0 0.0584,0.01 0.0876,0.0195 0.0292,0.0195 0.0487,0.0389 0.0682,0.0682 0.01,0.0292 0.0195,0.0584 0.0195,0.0876 v 0 h -0.1753 z"
             id="path957" />
          <path
             style="fill:#000000;fill-opacity:1;fill-rule:evenodd;stroke:none;stroke-width:0.264583"
             d="m 197.55006,314.38321 h 0.17529 0.1753 v 29.5958 h -0.1753 -0.17529 z"
             id="path959" />
          <path
             style="fill:#000000;fill-opacity:1;fill-rule:evenodd;stroke:none;stroke-width:0.264583"
             d="m 197.90065,343.97901 c 0,0.0292 -0.01,0.0584 -0.0195,0.0876 -0.0195,0.0292 -0.0389,0.0487 -0.0682,0.0682 -0.0292,0.01 -0.0584,0.0195 -0.0876,0.0195 v -0.17529 z"
             id="path961" />
          <path
             style="fill:#000000;fill-opacity:1;fill-rule:evenodd;stroke:none;stroke-width:0.264583"
             d="m 197.72535,343.80371 v 0.1753 0.17529 h -5.82372 v -0.17529 -0.1753 z"
             id="path963" />
        </g>
      </g>
    </g>
  </g>
</svg>
