<?xml version="1.0" encoding="UTF-8" standalone="no"?>
<svg
   width="294.00003mm"
   height="208.99989mm"
   viewBox="0 0 294.00003 208.99989"
   version="1.1"
   id="svg2"
   sodipodi:version="0.32"
   inkscape:version="1.2.1 (9c6d41e410, 2022-07-14)"
   sodipodi:docname="thumbnail.svg"
   inkscape:output_extension="org.inkscape.output.svg.inkscape"
   xmlns:inkscape="http://www.inkscape.org/namespaces/inkscape"
   xmlns:sodipodi="http://sodipodi.sourceforge.net/DTD/sodipodi-0.dtd"
   xmlns:xlink="http://www.w3.org/1999/xlink"
   xmlns="http://www.w3.org/2000/svg"
   xmlns:svg="http://www.w3.org/2000/svg"
   xmlns:rdf="http://www.w3.org/1999/02/22-rdf-syntax-ns#"
   xmlns:cc="http://creativecommons.org/ns#"
   xmlns:dc="http://purl.org/dc/elements/1.1/">
  <path
     id="path4578"
     style="color:#000000;fill:#c8c8c8;fill-opacity:1;stroke:#000000;stroke-width:1.99614;stroke-miterlimit:4;stroke-dasharray:none;stroke-opacity:1"
     d="m 39.306026,0.99807 c -1.28179,0.24598 -2.44789,0.51314 -3.53996,0.788 l 0.17013,0.38518 0.34846,0.78074 0.36076,0.7849 0.36794,0.78903 0.37203,0.788002 0.38331,0.79321 0.39151,0.79629 0.39458,0.79631 0.40688,0.80047 0.41098,0.80462 0.42123,0.80876 0.43045,0.81189 0.43353,0.81188 0.36077,0.65927 c 2.26392,0.36396 4.76713,0.68443 7.44481,0.94165 2.73179,0.26239 5.6322,0.46351 8.67263,0.58867 0.006,2.3e-4 0.0105,-2.2e-4 0.0164,0 h 179.924804 0.0163 c 6.00806,-0.24727 11.55524,-0.79929 16.11747,-1.53344 l 0.35661,-0.65615 0.43764,-0.81188 0.42635,-0.81189 0.42227,-0.80876 0.41407,-0.80462 0.4028,-0.80047 0.3997,-0.79631 0.39046,-0.79629 0.38023,-0.79321 0.37513,-0.792162 0.36486,-0.78487 0.35971,-0.7849 0.34849,-0.78074 0.17012,-0.38518 c -1.08754,-0.27389 -2.24774,-0.53871 -3.53998,-0.788 H 39.307056 Z m -4.04319,1.36526 c -1.91296,3.473832 -3.59726,6.913882 -4.92358,10.190062 -1.41005,3.48537 -2.47772,6.80044 -3.0716,9.60243 l -0.34026,-0.0748 0.30952,0.16398 c -5.51116,10.74969 -9.92474,22.06494 -13.17396,33.76166 -0.002,0.004 -0.003,0.008 -0.004,0.0121 -0.14326,1.03777 -0.26259,2.05576 -0.36077,3.04922 -0.15003,1.54101 -0.24295,3.02383 -0.24391,4.31172 -10e-4,0.3927 0.0115,0.76515 0.0318,1.11502 v 0.004 c 0.0437,0.73983 0.15663,1.37751 0.28594,1.64037 v 0.004 c 0.0607,0.12566 0.0891,0.12264 0.0851,0.12143 -0.008,-0.001 0.031,0.006 0.14759,-0.0976 0.12223,-0.1069 0.28806,-0.30768 0.46119,-0.56895 0.17511,-0.2673 0.35846,-0.57966 0.54628,-0.9375 0.3788,-0.71301 0.7746,-1.57282 1.18067,-2.48861 0.40259,-0.90793 0.81154,-1.87126 1.23192,-2.87168 l 0.6549,-2.43254 0.68975,-2.44499 0.72768,-2.43253 0.75944,-2.42111 0.7943,-2.41385 0.82914,-2.40139 0.86397,-2.38583 0.89884,-2.37334 0.92957,-2.36298 0.96032,-2.34636 0.99927,-2.33079 1.02694,-2.31937 1.06487,-2.29859 1.09253,-2.28823 0.30951,0.1537 -0.23982,-0.25125 c 1.39852,-1.37651 3.04708,-3.40866 4.86926,-5.7486 0.91083,-1.17136 1.86552,-2.42216 2.84714,-3.71265 0.93459,-1.23169 1.8991,-2.50183 2.88508,-3.79777 l -0.33617,-0.61672 -0.43762,-0.81603 -0.43046,-0.81602 -0.42226,-0.80878 -0.41405,-0.80773 -0.41099,-0.80876 -0.39867,-0.80047 -0.39152,-0.80047 -0.38331,-0.79631 -0.37613,-0.79214 -0.36793,-0.793202 -0.35974,-0.78905 -0.35257,-0.78488 z m 223.705094,0.004 -0.043,0.0934 -0.35252,0.78487 -0.35977,0.78905 -0.36895,0.793212 -0.37923,0.79214 -0.38327,0.79631 -0.39151,0.80047 -0.3987,0.80047 -0.40689,0.80875 -0.41408,0.80773 -0.42221,0.80878 -0.43459,0.81602 -0.43759,0.81604 -0.3331,0.61256 c 0.98547,1.29461 1.9457,2.56226 2.8779,3.79051 0.97756,1.28579 1.92808,2.53076 2.83997,3.70434 0.9129,1.17352 1.78744,2.27463 2.60631,3.25272 0.81886,0.97823 1.58157,1.83516 2.28242,2.52703 l -0.24086,0.25124 0.31055,-0.15269 1.09152,2.28302 1.06177,2.29965 1.03002,2.31937 0.99618,2.33078 0.96442,2.34636 0.92959,2.3578 0.89473,2.37437 0.864,2.38584 0.8291,2.40138 0.79021,2.40969 0.7625,2.42422 0.72462,2.43358 0.69388,2.44394 0.64973,2.42944 c 0.41801,0.99719 0.82338,1.9466 1.22066,2.84885 0.40011,0.90525 0.79032,1.75036 1.16939,2.46782 0.37908,0.71759 0.76775,1.31163 1.01874,1.53865 v 0.004 c 0.1198,0.10993 0.16692,0.10488 0.16298,0.10589 -0.005,0.002 0.0172,0.008 0.0779,-0.11416 h 0.004 c 0.0647,-0.12768 0.13124,-0.35987 0.18141,-0.64371 0.0976,-0.55406 0.13843,-1.30108 0.13943,-2.13041 -8.5e-4,-0.45041 -0.0133,-0.92105 -0.0349,-1.40885 -0.0413,-0.92833 -0.11324,-1.89401 -0.2132,-2.89974 -0.0987,-0.99999 -0.21824,-2.02552 -0.36386,-3.07623 -3.2488,-11.69119 -7.66526,-23.00115 -13.17392,-33.74608 l 0.30949,-0.165 -0.34024,0.0748 c -0.29931,-1.41368 -0.72483,-2.97237 -1.24731,-4.59929 -0.52249,-1.62712 -1.1407,-3.32041 -1.84375,-5.05401 -1.32078,-3.25654 -2.98931,-6.66582 -4.9,-10.135052 z m -5.69841,10.723712 c -4.59241,0.73687 -10.14441,1.29146 -16.1646,1.53862 l -0.0122,-0.30211 v 0.30211 H 57.137096 v -0.34882 l -0.0164,0.34882 c -3.05821,-0.12546 -5.97294,-0.32452 -8.72285,-0.58865 -2.67421,-0.25689 -5.17205,-0.57783 -7.44174,-0.94166 -0.99245,1.30447 -1.96426,2.57832 -2.90454,3.81751 -0.98183,1.29076 -1.93743,2.5447 -2.85125,3.71992 -1.80778,2.32144 -3.44394,4.33424 -4.88053,5.75689 l -1.07306,2.24462 -1.05769,2.29133 -1.02283,2.30691 -0.99518,2.32352 -0.95725,2.3391 -0.92547,2.34948 -0.89474,2.36712 -0.85988,2.3775 -0.82504,2.38999 -0.79019,2.40138 -0.75944,2.4128 -0.7246,2.42527 -0.68872,2.43668 -0.64364,2.4014 v 90.074338 l 0.64364,2.40554 0.68872,2.4367 0.7246,2.42111 0.75944,2.41696 0.79019,2.40138 0.82504,2.38997 0.85988,2.37752 0.89474,2.36296 0.92547,2.35364 0.95725,2.33494 0.99518,2.32353 1.02283,2.31106 1.05769,2.29133 1.06896,2.23631 c 0.70984,0.70145 1.46713,1.54321 2.27731,2.51144 0.82836,0.98886 1.70794,2.09943 2.6227,3.2766 0.91575,1.17727 1.86701,2.42337 2.84304,3.70851 0.93744,1.23422 1.90633,2.50436 2.89737,3.80608 2.25581,-0.36161 4.75126,-0.68408 7.42944,-0.94166 2.75374,-0.26474 5.67734,-0.46309 8.73515,-0.58865 l 0.0164,0.34883 v -0.34883 H 237.09265 v 0.30211 l 0.0122,-0.30211 c 6.03672,0.24785 11.59769,0.80571 16.1646,1.53863 0.99512,-1.30726 1.96668,-2.58799 2.90865,-3.82999 0.9819,-1.29128 1.93756,-2.54387 2.85125,-3.71991 1.80842,-2.32641 3.44138,-4.33041 4.88049,-5.76105 l 1.0731,-2.24462 1.05768,-2.29133 1.02692,-2.30691 0.99108,-2.32352 0.96034,-2.33807 0.92649,-2.35049 0.89065,-2.36195 0.85985,-2.37855 0.82505,-2.38995 0.79016,-2.4014 0.75946,-2.41281 0.72053,-2.42526 0.68973,-2.43255 0.6426,-2.40554 V 59.460772 l -0.6426,-2.4014 -0.68973,-2.43668 -0.72053,-2.42111 -0.75946,-2.41385 -0.79016,-2.40139 -0.82505,-2.38892 -0.85985,-2.37855 -0.89065,-2.36195 -0.92649,-2.35466 -0.96034,-2.33495 -0.99108,-2.32247 -1.02692,-2.30691 -1.05768,-2.29238 -1.06901,-2.23631 c -0.71165,-0.70696 -1.46776,-1.55168 -2.27728,-2.51869 -0.82731,-0.9882 -1.70699,-2.09639 -2.62267,-3.2735 -0.91474,-1.17719 -1.86516,-2.42123 -2.84307,-3.70747 -0.93908,-1.23732 -1.90844,-2.51397 -2.90146,-3.81854 z M 39.550986,48.296862 c 1.80029,0.35999 3.74104,0.7636 5.82957,1.21679 2.08329,0.45204 4.30772,0.95116 6.59723,1.47945 V 158.00283 c -4.59162,1.05946 -8.8627,1.9875 -12.4268,2.70039 -1.7617,-2.60131 -3.40195,-5.12864 -4.92359,-7.47514 -0.78135,-1.20342 -1.53377,-2.36201 -2.25783,-3.44166 -0.71013,-1.06035 -1.39034,-2.04179 -2.03031,-2.87275 -1.24928,-3.37718 -2.34762,-6.79949 -3.29195,-10.26897 -0.94821,-3.48516 -1.74508,-7.01882 -2.38286,-10.57836 -0.63677,-3.55983 -1.11344,-7.14249 -1.43281,-10.74759 -0.31936,-3.60463 -0.47658,-7.23188 -0.47658,-10.85036 0,-3.61817 0.15941,-7.229738 0.48068,-10.833758 0.32135,-3.60417 0.80423,-7.20038 1.44099,-10.75588 1.27066,-7.0984 3.16073,-14.0319 5.66664,-20.80476 0.63962,-0.83155 1.31033,-1.78766 2.01083,-2.83328 h -0.004 c 0.71614,-1.0674 1.46419,-2.21987 2.24656,-3.42508 1.52481,-2.35031 3.1894,-4.91247 4.95432,-7.51873 z m 215.124684,0 c 1.76262,2.60174 3.40397,5.13159 4.92662,7.47928 0.78144,1.20406 1.53492,2.36185 2.25886,3.44168 0.70751,1.05514 1.38754,2.02563 2.02625,2.86028 1.25115,3.38232 2.35095,6.8097 3.29603,10.28454 0.94821,3.48406 1.74198,7.01677 2.37877,10.57525 0.63677,3.55873 1.11445,7.14368 1.43281,10.74757 0.31936,3.60353 0.48066,7.228858 0.48066,10.846228 0,3.61702 -0.1634,7.22668 -0.48476,10.8296 -0.32035,3.60303 -0.80112,7.19718 -1.4369,10.75173 -1.27088,7.09765 -3.16201,14.03267 -5.66661,20.80476 -0.63966,0.83664 -1.30714,1.79425 -2.00678,2.83745 -0.71607,1.06773 -1.46414,2.21971 -2.24654,3.42506 -1.52485,2.3504 -3.19248,4.91542 -4.95841,7.52289 -1.7993,-0.35998 -3.73933,-0.76386 -5.8265,-1.21679 -2.08333,-0.45214 -4.31046,-0.95096 -6.60034,-1.47945 V 50.993142 c 2.30793,-0.5326 4.55027,-1.0361 6.63209,-1.48776 2.08686,-0.45245 4.00674,-0.85096 5.79475,-1.20848 z m 22.14174,12.80428 V 147.8989 c 0.19448,-0.45335 0.3944,-0.92976 0.5852,-1.36111 0.40904,-0.92252 0.81156,-1.79201 1.20423,-2.53116 h -0.004 c 0.19684,-0.37475 0.39135,-0.70682 0.58116,-0.99669 0.19284,-0.29324 0.38343,-0.53292 0.58519,-0.71012 0.20172,-0.1773 0.44467,-0.32178 0.73585,-0.26371 h 0.004 c 0.1261,0.026 0.17611,0.15793 0.26752,0.23983 V 66.719952 c -0.0984,0.0883 -0.15874,0.225 -0.29518,0.24709 h -0.007 -0.004 c -0.27527,0.0351 -0.51713,-0.10166 -0.72047,-0.28654 -0.40546,-0.36666 -0.77804,-0.991 -1.17044,-1.73382 -0.39241,-0.74268 -0.7858,-1.59947 -1.18886,-2.51144 -0.18623,-0.42293 -0.38233,-0.89071 -0.57292,-1.3341 z m -259.408184,0.004 c -0.19378,0.452 -0.39032,0.92671 -0.58111,1.35695 -0.40856,0.92135 -0.81204,1.78844 -1.20425,2.52701 v 0.004 c -0.19627,0.37352 -0.3919,0.70359 -0.58111,0.99253 v 0.004 c -0.19117,0.28849 -0.37688,0.52802 -0.58111,0.70703 -0.20504,0.18134 -0.45313,0.31384 -0.7287,0.26682 h -0.007 -0.004 c -0.12565,-0.0258 -0.17626,-0.15834 -0.26748,-0.23983 v 75.555988 c 0.098,-0.0877 0.15827,-0.22521 0.29413,-0.24711 h 0.004 l 0.008,-0.004 c 0.27658,-0.0353 0.51652,0.10448 0.7205,0.29069 0.40473,0.36691 0.77451,0.98802 1.16633,1.72967 0.39241,0.7427 0.78987,1.59938 1.19297,2.51143 0.18546,0.42114 0.37901,0.88958 0.56881,1.331 z M 280.36967,142.72637 c 0.0316,0.006 -0.0236,-0.002 -0.14755,0.10589 -0.12311,0.10811 -0.28636,0.3071 -0.45711,0.56582 l -0.004,0.004 c -0.17438,0.26657 -0.35515,0.57734 -0.54217,0.93335 l -0.004,0.004 c -0.37876,0.71301 -0.77457,1.56764 -1.18067,2.4834 -0.40243,0.90998 -0.81498,1.87903 -1.23599,2.88104 l -0.64669,2.42424 -0.69387,2.44499 -0.72462,2.43253 -0.7625,2.42111 -0.79021,2.41385 -0.8291,2.39725 -0.864,2.38581 -0.89473,2.37439 -0.92959,2.36193 -0.96442,2.34636 -0.99518,2.33079 -1.03102,2.31521 -1.06078,2.3038 -1.09252,2.28303 -0.31054,-0.1527 0.24086,0.25125 c -1.40343,1.3867 -3.05045,3.41086 -4.87335,5.75587 -0.91095,1.17255 -1.86562,2.42498 -2.84716,3.71575 -0.93519,1.23307 -1.89858,2.50157 -2.8861,3.79882 l 0.33411,0.61567 0.43764,0.81706 0.43354,0.81189 0.42221,0.81188 0.41408,0.80878 0.40689,0.8046 0.3987,0.8036 0.39151,0.80045 0.38327,0.79734 0.38023,0.79216 0.36795,0.7932 0.35977,0.78801 0.35252,0.78489 0.0543,0.12143 c 0.90372,-1.64051 1.76535,-3.271 2.54071,-4.88065 0.87632,-1.81625 1.67272,-3.61038 2.37877,-5.35302 1.41015,-3.4852 2.46241,-6.76584 3.06036,-9.58583 l 0.34024,0.0748 -0.30949,-0.16096 c 5.50866,-10.74493 9.92512,-22.05488 13.17392,-33.74609 0.14499,-1.04745 0.26593,-2.07379 0.3649,-3.07623 0.14992,-1.54101 0.24601,-3.02487 0.247,-4.31274 9.4e-4,-0.39399 -0.0104,-0.76719 -0.0308,-1.11816 -0.0435,-0.74203 -0.15627,-1.38103 -0.28598,-1.64452 h -0.004 c -0.0641,-0.13131 -0.093,-0.1305 -0.0851,-0.12869 z m -266.516814,0.004 c 0.007,-0.002 -0.0147,-0.006 -0.0769,0.11739 -0.0647,0.12768 -0.13635,0.35993 -0.18653,0.64368 l 0.004,-0.004 c -0.0968,0.55491 -0.13842,1.30566 -0.13938,2.13457 5.9e-4,0.45045 0.009,0.91788 0.0308,1.40574 0.0414,0.92827 0.11323,1.89714 0.21318,2.90285 0.0978,0.99112 0.21698,2.00846 0.36077,3.04924 0.002,0.004 0.003,0.008 0.004,0.0121 3.24922,11.69674 7.6628,23.01199 13.17396,33.76168 l -0.30952,0.16096 0.34026,-0.0748 c 0.59388,2.80216 1.66153,6.11672 3.0716,9.60243 1.32634,3.27641 3.0113,6.72149 4.92358,10.19422 l 0.043,-0.0986 0.35257,-0.78489 0.35974,-0.78801 0.36793,-0.7932 0.37613,-0.79216 0.38331,-0.79629 0.39152,-0.8015 0.39867,-0.8036 0.411,-0.8046 0.41405,-0.80878 0.42226,-0.81188 0.42942,-0.81189 0.43865,-0.81706 0.33617,-0.61982 c -0.98471,-1.29344 -1.94642,-2.55585 -2.8779,-3.7822 -0.9755,-1.28444 -1.92202,-2.53082 -2.83485,-3.70436 -0.91185,-1.17342 -1.79166,-2.27409 -2.61141,-3.25273 -0.81879,-0.97851 -1.58,-1.83497 -2.27732,-2.51972 l 0.23982,-0.25126 -0.30951,0.1537 -1.09253,-2.28408 -1.06486,-2.30275 -1.02695,-2.31521 -0.99927,-2.33494 -0.96031,-2.34636 -0.93061,-2.35883 -0.8978,-2.37334 -0.86398,-2.38999 -0.82914,-2.39826 -0.7943,-2.41282 -0.75944,-2.42111 -0.72768,-2.43668 -0.68975,-2.44499 -0.65081,-2.42424 c -0.41872,-0.99903 -0.82579,-1.95352 -1.22372,-2.85716 -0.40014,-0.90535 -0.79133,-1.7462 -1.17042,-2.46367 -0.37908,-0.7176 -0.76773,-1.3158 -1.01873,-1.5428 -0.11999,-0.10953 -0.16789,-0.10892 -0.16194,-0.11013 z m 43.28424,52.34258 c -3.04009,0.12505 -5.94943,0.32466 -8.68493,0.58763 -2.68165,0.25792 -5.18368,0.58099 -7.43354,0.94269 l -0.35973,0.65822 -0.43354,0.81293 -0.43045,0.81189 -0.42226,0.8046 -0.41098,0.80462 -0.40585,0.80463 -0.39561,0.79629 -0.39151,0.79631 -0.38331,0.79321 -0.37203,0.788 -0.36794,0.78903 -0.35974,0.78075 -0.34846,0.78074 -0.17115,0.38517 c 1.09551,0.276 2.26587,0.54525 3.55227,0.79216 H 254.90829 c 1.2916,-0.24846 2.45543,-0.51616 3.55231,-0.79216 l -0.17018,-0.38517 -0.34843,-0.78074 -0.36076,-0.78075 -0.36386,-0.78903 -0.37613,-0.788 -0.37918,-0.79321 -0.39151,-0.79631 -0.39871,-0.79629 -0.40279,-0.80463 -0.41507,-0.80462 -0.42227,-0.8046 -0.4253,-0.81189 -0.43763,-0.81293 -0.35667,-0.6551 c -4.53642,-0.73013 -10.09404,-1.28547 -16.11847,-1.53344 h -0.0153 -179.924774 z" />
  <!-- Working space 10 10 410 287 -->
  <!-- Title block 220 227 410 287 -->
  <metadata
     id="metadata849">
    <rdf:RDF>
      <cc:Work
         rdf:about="">
        <dc:format>image/svg+xml</dc:format>
        <dc:type
           rdf:resource="http://purl.org/dc/dcmitype/StillImage" />
      </cc:Work>
    </rdf:RDF>
  </metadata>
  <defs
     id="defs847">
    <linearGradient
       x1="649.42902"
       y1="807.466"
       x2="655.35199"
       y2="485.909"
       id="defitem29"
       gradientUnits="userSpaceOnUse">
      <stop
         style="stop-color:#ffffff;stop-opacity:1.0000000;"
         offset="0.0000000"
         id="stop92" />
      <stop
         style="stop-color:#ffffff;stop-opacity:0.13756600;"
         offset="1.0000000"
         id="stop93" />
    </linearGradient>
    <linearGradient
       y2="485.909"
       x2="655.35199"
       y1="807.466"
       x1="649.42902"
       gradientUnits="userSpaceOnUse"
       id="linearGradient3448"
       xlink:href="#defitem29"
       inkscape:collect="always" />
    <radialGradient
       cx="1049.72"
       cy="345.56"
       r="1202.15"
       fx="1049.72"
       fy="345.56"
       id="defitem28"
       gradientUnits="userSpaceOnUse">
      <stop
         style="stop-color:#ffffff;stop-opacity:1.0000000;"
         offset="0.0000000"
         id="stop89" />
      <stop
         style="stop-color:#a8a8a8;stop-opacity:1.0000000;"
         offset="1.0000000"
         id="stop90" />
    </radialGradient>
    <radialGradient
       r="1202.15"
       fy="64.844765"
       fx="1089.4004"
       cy="64.845284"
       cx="1092.7045"
       gradientUnits="userSpaceOnUse"
       id="radialGradient3446"
       xlink:href="#defitem28"
       inkscape:collect="always" />
    <linearGradient
       x1="287.5"
       y1="636.70697"
       x2="980"
       y2="636.70697"
       id="defitem30"
       gradientUnits="userSpaceOnUse">
      <stop
         style="stop-color:#464646;stop-opacity:1.0000000;"
         offset="0.0000000"
         id="stop95" />
      <stop
         style="stop-color:#c2c2c2;stop-opacity:1.0000000;"
         offset="1.0000000"
         id="stop96" />
    </linearGradient>
    <linearGradient
       y2="636.70697"
       x2="980"
       y1="636.70697"
       x1="287.5"
       gradientTransform="matrix(1,0,0,1.016038,0,-11.73855)"
       gradientUnits="userSpaceOnUse"
       id="linearGradient3444"
       xlink:href="#defitem30"
       inkscape:collect="always" />
    <linearGradient
       x1="921.091"
       y1="403.18799"
       x2="985.98199"
       y2="317.44699"
       id="defitem27"
       gradientUnits="userSpaceOnUse">
      <stop
         style="stop-color:#7e7e7e;stop-opacity:1.0000000;"
         offset="0.0000000"
         id="stop86" />
      <stop
         style="stop-color:#e5e5e5;stop-opacity:1.0000000;"
         offset="1.0000000"
         id="stop87" />
    </linearGradient>
    <linearGradient
       y2="317.44699"
       x2="985.98199"
       y1="403.18799"
       x1="921.091"
       gradientUnits="userSpaceOnUse"
       id="linearGradient3442"
       xlink:href="#defitem27"
       inkscape:collect="always" />
    <linearGradient
       x1="530.76099"
       y1="346.30399"
       x2="293.37"
       y2="360.27499"
       id="defitem26"
       gradientUnits="userSpaceOnUse">
      <stop
         style="stop-color:#5f5f5f;stop-opacity:1.0000000;"
         offset="0.0000000"
         id="stop83" />
      <stop
         style="stop-color:#e5e5e5;stop-opacity:1.0000000;"
         offset="1.0000000"
         id="stop84" />
    </linearGradient>
    <linearGradient
       y2="360.27499"
       x2="293.37"
       y1="346.30399"
       x1="530.76099"
       gradientUnits="userSpaceOnUse"
       id="linearGradient3440"
       xlink:href="#defitem26"
       inkscape:collect="always" />
    <linearGradient
       x1="164.013"
       y1="412.91901"
       x2="308.75"
       y2="337.60999"
       id="defitem25"
       gradientUnits="userSpaceOnUse">
      <stop
         style="stop-color:#ffffff;stop-opacity:1.0000000;"
         offset="0.0000000"
         id="stop80" />
      <stop
         style="stop-color:#bfbfbf;stop-opacity:1.0000000;"
         offset="1.0000000"
         id="stop81" />
    </linearGradient>
    <linearGradient
       y2="337.60999"
       x2="308.75"
       y1="412.91901"
       x1="164.013"
       gradientUnits="userSpaceOnUse"
       id="linearGradient3438"
       xlink:href="#defitem25"
       inkscape:collect="always" />
    <linearGradient
       x1="1094.25"
       y1="270.854"
       x2="992.48901"
       y2="380.47198"
       id="defitem24"
       gradientUnits="userSpaceOnUse">
      <stop
         style="stop-color:#6a6a6a;stop-opacity:1.0000000;"
         offset="0.0000000"
         id="stop77" />
      <stop
         style="stop-color:#e6e6e6;stop-opacity:1.0000000;"
         offset="1.0000000"
         id="stop78" />
    </linearGradient>
    <linearGradient
       y2="380.47198"
       x2="992.48901"
       y1="270.854"
       x1="1094.25"
       gradientUnits="userSpaceOnUse"
       id="linearGradient3436"
       xlink:href="#defitem24"
       inkscape:collect="always" />
    <linearGradient
       x1="1170.91"
       y1="476.465"
       x2="1049.84"
       y2="549.37799"
       id="defitem23"
       gradientUnits="userSpaceOnUse">
      <stop
         style="stop-color:#5f5f5f;stop-opacity:1.0000000;"
         offset="0.0000000"
         id="stop74" />
      <stop
         style="stop-color:#ebebeb;stop-opacity:1.0000000;"
         offset="1.0000000"
         id="stop75" />
    </linearGradient>
    <linearGradient
       y2="549.37799"
       x2="1049.84"
       y1="476.465"
       x1="1170.91"
       gradientUnits="userSpaceOnUse"
       id="linearGradient3434"
       xlink:href="#defitem23"
       inkscape:collect="always" />
    <linearGradient
       x1="783.716"
       y1="105.486"
       x2="576.14899"
       y2="313.276"
       id="defitem22"
       gradientUnits="userSpaceOnUse">
      <stop
         style="stop-color:#5a5a5a;stop-opacity:1.0000000;"
         offset="0.0000000"
         id="stop71" />
      <stop
         style="stop-color:#c7c7c7;stop-opacity:1.0000000;"
         offset="1.0000000"
         id="stop72" />
    </linearGradient>
    <linearGradient
       y2="313.276"
       x2="576.14899"
       y1="105.486"
       x1="783.716"
       gradientUnits="userSpaceOnUse"
       id="linearGradient3432"
       xlink:href="#defitem22"
       inkscape:collect="always" />
    <linearGradient
       x1="280.04401"
       y1="418.698"
       x2="128.05499"
       y2="484.716"
       id="defitem21"
       gradientUnits="userSpaceOnUse">
      <stop
         style="stop-color:#666666;stop-opacity:1.0000000;"
         offset="0.0000000"
         id="stop68" />
      <stop
         style="stop-color:#d8d8d8;stop-opacity:1.0000000;"
         offset="1.0000000"
         id="stop69" />
    </linearGradient>
    <linearGradient
       y2="484.716"
       x2="128.05499"
       y1="418.698"
       x1="280.04401"
       gradientUnits="userSpaceOnUse"
       id="linearGradient3430"
       xlink:href="#defitem21"
       inkscape:collect="always" />
    <linearGradient
       x1="129.687"
       y1="636.95398"
       x2="220"
       y2="584.40997"
       id="defitem20"
       gradientUnits="userSpaceOnUse">
      <stop
         style="stop-color:#ffffff;stop-opacity:1.0000000;"
         offset="0.0000000"
         id="stop65" />
      <stop
         style="stop-color:#bbbbbb;stop-opacity:1.0000000;"
         offset="1.0000000"
         id="stop66" />
    </linearGradient>
    <linearGradient
       y2="584.40997"
       x2="220"
       y1="636.95398"
       x1="129.687"
       gradientUnits="userSpaceOnUse"
       id="linearGradient3428"
       xlink:href="#defitem20"
       inkscape:collect="always" />
    <linearGradient
       x1="1048.72"
       y1="629.02802"
       x2="1127.98"
       y2="583.75299"
       id="defitem19"
       gradientUnits="userSpaceOnUse">
      <stop
         style="stop-color:#5e5e5e;stop-opacity:1.0000000;"
         offset="0.0000000"
         id="stop62" />
      <stop
         style="stop-color:#ededed;stop-opacity:1.0000000;"
         offset="1.0000000"
         id="stop63" />
    </linearGradient>
    <linearGradient
       y2="583.75299"
       x2="1127.98"
       y1="629.02802"
       x1="1048.72"
       gradientUnits="userSpaceOnUse"
       id="linearGradient3426"
       xlink:href="#defitem19"
       inkscape:collect="always" />
    <linearGradient
       x1="370.022"
       y1="387.27301"
       x2="581.32397"
       y2="291.97699"
       id="defitem18"
       gradientUnits="userSpaceOnUse">
      <stop
         style="stop-color:#636363;stop-opacity:1.0000000;"
         offset="0.0000000"
         id="stop59" />
      <stop
         style="stop-color:#d6d6d6;stop-opacity:1.0000000;"
         offset="1.0000000"
         id="stop60" />
    </linearGradient>
    <linearGradient
       y2="291.97699"
       x2="581.32397"
       y1="387.27301"
       x1="370.022"
       gradientUnits="userSpaceOnUse"
       id="linearGradient3424"
       xlink:href="#defitem18"
       inkscape:collect="always" />
    <linearGradient
       x1="732.15601"
       y1="351.939"
       x2="909.59399"
       y2="351.939"
       id="defitem17"
       gradientUnits="userSpaceOnUse">
      <stop
         style="stop-color:#676767;stop-opacity:1.0000000;"
         offset="0.0000000"
         id="stop56" />
      <stop
         style="stop-color:#d3d3d3;stop-opacity:1.0000000;"
         offset="1.0000000"
         id="stop57" />
    </linearGradient>
    <linearGradient
       y2="351.939"
       x2="909.59399"
       y1="351.939"
       x1="732.15601"
       gradientUnits="userSpaceOnUse"
       id="linearGradient3422"
       xlink:href="#defitem17"
       inkscape:collect="always" />
    <linearGradient
       x1="1014.43"
       y1="494.71301"
       x2="1073.01"
       y2="494.71301"
       id="defitem16"
       gradientUnits="userSpaceOnUse">
      <stop
         style="stop-color:#666666;stop-opacity:1.0000000;"
         offset="0.0000000"
         id="stop53" />
      <stop
         style="stop-color:#dcdcdc;stop-opacity:1.0000000;"
         offset="1.0000000"
         id="stop54" />
    </linearGradient>
    <linearGradient
       y2="494.71301"
       x2="1073.01"
       y1="494.71301"
       x1="1014.43"
       gradientUnits="userSpaceOnUse"
       id="linearGradient3420"
       xlink:href="#defitem16"
       inkscape:collect="always" />
    <linearGradient
       x1="272.59201"
       y1="452.388"
       x2="193.27699"
       y2="516.37"
       id="defitem15"
       gradientUnits="userSpaceOnUse">
      <stop
         style="stop-color:#6e6e6e;stop-opacity:1.0000000;"
         offset="0.0000000"
         id="stop50" />
      <stop
         style="stop-color:#d8d8d8;stop-opacity:1.0000000;"
         offset="1.0000000"
         id="stop51" />
    </linearGradient>
    <linearGradient
       y2="516.37"
       x2="193.27699"
       y1="452.388"
       x1="272.59201"
       gradientUnits="userSpaceOnUse"
       id="linearGradient3418"
       xlink:href="#defitem15"
       inkscape:collect="always" />
    <radialGradient
       cx="1037.22"
       cy="211.088"
       r="1164.28"
       fx="1037.22"
       fy="211.088"
       id="defitem14"
       gradientUnits="userSpaceOnUse">
      <stop
         style="stop-color:#ffffff;stop-opacity:1.0000000;"
         offset="0.0000000"
         id="stop47" />
      <stop
         style="stop-color:#aaaaaa;stop-opacity:1.0000000;"
         offset="1.0000000"
         id="stop48" />
    </radialGradient>
    <radialGradient
       r="1164.28"
       fy="211.088"
       fx="1037.22"
       cy="211.088"
       cx="1037.22"
       gradientUnits="userSpaceOnUse"
       id="radialGradient3416"
       xlink:href="#defitem14"
       inkscape:collect="always" />
    <linearGradient
       x1="342.64999"
       y1="732.12903"
       x2="379.241"
       y2="686.83002"
       id="defitem13"
       gradientUnits="userSpaceOnUse">
      <stop
         style="stop-color:#ffffff;stop-opacity:1.0000000;"
         offset="0.0000000"
         id="stop44" />
      <stop
         style="stop-color:#989898;stop-opacity:1.0000000;"
         offset="1.0000000"
         id="stop45" />
    </linearGradient>
    <linearGradient
       y2="686.83002"
       x2="379.241"
       y1="732.12903"
       x1="342.64999"
       gradientUnits="userSpaceOnUse"
       id="linearGradient3414"
       xlink:href="#defitem13"
       inkscape:collect="always" />
    <radialGradient
       cx="632.78101"
       cy="484.409"
       r="540.27899"
       fx="632.78101"
       fy="484.409"
       id="defitem12"
       gradientUnits="userSpaceOnUse">
      <stop
         style="stop-color:#ffffff;stop-opacity:1.0000000;"
         offset="0.0000000"
         id="stop41" />
      <stop
         style="stop-color:#ededed;stop-opacity:1.0000000;"
         offset="1.0000000"
         id="stop42" />
    </radialGradient>
    <radialGradient
       r="540.27899"
       fy="484.409"
       fx="632.78101"
       cy="484.409"
       cx="632.78101"
       gradientUnits="userSpaceOnUse"
       id="radialGradient3412"
       xlink:href="#defitem12"
       inkscape:collect="always" />
    <inkscape:perspective
       id="perspective3148"
       inkscape:persp3d-origin="32.000002 : 144.33333 : 1"
       inkscape:vp_z="64.000003 : 155 : 1"
       inkscape:vp_y="0 : 999.99995 : 0"
       inkscape:vp_x="0 : 155 : 1"
       sodipodi:type="inkscape:persp3d" />
    <linearGradient
       id="linearGradient3682">
      <stop
         id="stop3684"
         offset="0"
         style="stop-color:#ff6d0f;stop-opacity:1;" />
      <stop
         id="stop3686"
         offset="1"
         style="stop-color:#ff1000;stop-opacity:1;" />
    </linearGradient>
    <linearGradient
       id="linearGradient3864">
      <stop
         style="stop-color:#71b2f8;stop-opacity:1;"
         offset="0"
         id="stop3866" />
      <stop
         style="stop-color:#002795;stop-opacity:1;"
         offset="1"
         id="stop3868" />
    </linearGradient>
  </defs>
  <sodipodi:namedview
     inkscape:window-height="1013"
     inkscape:window-width="1920"
     inkscape:pageshadow="2"
     inkscape:pageopacity="0.0"
     guidetolerance="10.0"
     gridtolerance="10.0"
     objecttolerance="10.0"
     borderopacity="1.0"
     bordercolor="#666666"
     pagecolor="#ffffff"
     id="base"
     inkscape:window-x="-9"
     inkscape:window-y="135"
     inkscape:current-layer="svg2"
     inkscape:document-units="mm"
     showgrid="false"
     inkscape:window-maximized="1"
     inkscape:pagecheckerboard="0"
     inkscape:zoom="0.45291835"
     inkscape:cx="712.04886"
     inkscape:cy="455.93206"
     inkscape:showpageshadow="2"
     inkscape:deskcolor="#d1d1d1" />
  <path
     id="path7198"
     style="color:#000000;fill:#c8c8c8;fill-opacity:1;stroke:#000000;stroke-width:1.96885;stroke-miterlimit:4;stroke-dasharray:none;stroke-opacity:1"
     d="m 0.98455649,62.362156 h 0.14356001 0.38393 0.49251 0.60109 0.70967 0.81827 0.93072 1.03545 1.14401 1.25648 1.36119 1.4736395 c 0.078,-4.6e-4 0.20645,0.0439 0.38393,0.24023 0.1775,0.19641 0.37922,0.52699 0.5817,0.97614 0.40059,0.89197 0.79756,2.26185 1.14402,4.03036 0.34551,1.76997 0.63799,3.90966 0.83766,6.29535 0.0999,1.19501 0.17731,2.45747 0.2288,3.73678 0.0524,1.27789 0.0814,2.57692 0.0814,3.90073 v 47.830784 c 0,1.32688 -0.0291,2.65557 -0.0814,3.93888 -0.0524,1.28338 -0.13185,2.52188 -0.23267,3.71387 -0.0999,1.19164 -0.22433,2.33798 -0.36455,3.39362 -0.14117,1.05508 -0.29613,2.02144 -0.46924,2.89791 -0.17215,0.87744 -0.35742,1.66559 -0.55067,2.34121 -0.19339,0.67578 -0.39233,1.24056 -0.59335,1.68536 h -0.004 c -0.20201,0.44753 -0.40495,0.77322 -0.58171,0.9685 -0.17671,0.19542 -0.30107,0.24441 -0.38005,0.24405 h -1.4736395 -1.36119 -1.25648 -1.14401 -1.03545 -0.93072 -0.81827 -0.70967 -0.60109 -0.49251 -0.38393 -0.14356001 z m 11.38202951,0 h 30.3417 v 0.1487 0.60248 0.83887 1.06002 1.26593 1.46039 1.63198 1.7845 1.91797 2.02091 2.10478 2.1582 2.18486 47.830784 2.18487 2.15818 2.1048 2.02471 1.91415 1.78452 1.6358 1.45656 1.26595 1.06001 0.83885 0.6063 0.1487 h -30.34559 c 0.19888,-0.25864 0.39038,-0.5399 0.57007,-0.93801 0.21992,-0.48664 0.42847,-1.07483 0.62825,-1.77307 0.19988,-0.69878 0.39096,-1.5057 0.56618,-2.39839 0.17632,-0.89288 0.33428,-1.8734 0.47701,-2.93985 0.14177,-1.06707 0.26769,-2.22188 0.36841,-3.42411 0.10167,-1.20226 0.1799,-2.45177 0.23268,-3.74442 0.0528,-1.29255 0.0814,-2.62933 0.0814,-3.96555 V 81.541746 c 0,-1.33156 -0.0287,-2.64142 -0.0814,-3.92743 v -0.004 c -0.0518,-1.28758 -0.12827,-2.55957 -0.2288,-3.7635 -0.20141,-2.40634 -0.49786,-4.56738 -0.8493,-6.36774 -0.35243,-1.79907 -0.75322,-3.20148 -1.19053,-4.17531 v -0.004 c -0.17969,-0.39853 -0.37131,-0.67872 -0.57008,-0.93801 z m 31.03587,0 h 13.9415 10.16819 11.350996 12.36703 13.196938 13.83292 14.26339 14.47669 14.47667 14.25951 13.83293 13.20083 12.36701 11.351 10.16432 13.9415 v 19.17959 47.830784 19.1834 h -13.9415 -10.16432 -11.351 -12.36701 -13.20083 -13.83293 -14.25951 -14.47667 -14.47669 -14.26339 -13.83292 -13.196938 -12.36703 -11.350996 -10.16819 -13.9415 v -0.1487 -19.0347 -47.830784 -2.18486 z m 207.889484,0 h 30.34171 c -0.19816,0.25828 -0.39092,0.53727 -0.57008,0.93419 -0.21992,0.48664 -0.42458,1.07867 -0.62437,1.77689 -0.19986,0.69879 -0.39096,1.5057 -0.56618,2.3984 -0.17632,0.89287 -0.33817,1.86957 -0.48089,2.93604 -0.14176,1.06708 -0.26381,2.22567 -0.36452,3.42793 -0.10165,1.20226 -0.17989,2.44795 -0.23269,3.74058 -0.0528,1.29255 -0.0814,2.62935 -0.0814,3.96556 v 47.830784 c 0,1.33286 0.0249,2.64404 0.0776,3.93124 0.0518,1.28891 0.13204,2.55836 0.23266,3.76348 0.20142,2.40638 0.494,4.56738 0.84544,6.36778 0.35243,1.79903 0.75595,3.20504 1.19442,4.17907 0.17989,0.39978 0.37073,0.68214 0.57008,0.94183 h -30.34171 v -19.1834 -47.830784 z m 31.37326,0 h 1.46977 1.36506 1.2526 1.14791 1.03543 0.92685 0.82214 0.70967 0.60111 0.49249 0.38006 0.14733 v 86.193774 h -0.14733 -0.38006 -0.49249 -0.60111 -0.70967 -0.82214 -0.92685 -1.03543 -1.14791 -1.2526 -1.36506 -1.46977 -0.004 c -0.078,4.4e-4 -0.20274,-0.0479 -0.38006,-0.24405 -0.17731,-0.19621 -0.37971,-0.52705 -0.5817,-0.97614 -0.40106,-0.89095 -0.80165,-2.26028 -1.14789,-4.02657 v -0.004 c -0.34523,-1.76933 -0.63422,-3.91107 -0.83379,-6.29532 -0.0999,-1.19502 -0.18128,-2.45366 -0.23267,-3.73299 -0.0524,-1.27787 -0.0776,-2.58072 -0.0776,-3.90454 V 81.541536 c 0,-1.32687 0.029,-2.65558 0.0814,-3.93886 0.0524,-1.28339 0.12807,-2.52188 0.2288,-3.7139 0.0999,-1.19164 0.22433,-2.33416 0.36454,-3.3898 0.14118,-1.05506 0.30003,-2.02144 0.47312,-2.89791 0.17215,-0.87744 0.35742,-1.66939 0.55067,-2.34503 0.19339,-0.67577 0.39233,-1.23673 0.59335,-1.68154 0.20201,-0.44751 0.40495,-0.77704 0.5817,-0.97232 0.17672,-0.19522 0.30495,-0.24059 0.38393,-0.24023 z" />
  <path
     id="path8772"
     style="color:#000000;fill:#c8c8c8;fill-opacity:1;stroke:#000000;stroke-width:1.98348;stroke-miterlimit:4;stroke-dasharray:none;stroke-opacity:1"
     d="m 147.00305,3.9926704 c 7.10433,-9.9e-4 14.2118,0.75852 21.15961,2.25427 6.94828,1.494862 13.73803,3.726772 20.2142,6.6504816 6.47667,2.92262 12.64151,6.53455 18.35824,10.75619 5.71724,4.22055 10.98356,9.05361 15.68083,14.38161 5.92562,6.71651 10.94901,14.23135 14.88651,22.27543 3.90498,7.97064 6.7299,16.46504 8.40807,25.18042 -0.006,0.01 -0.008,0.0159 -0.0119,0.0233 -0.0282,0.0575 -0.0345,0.0862 -0.0387,0.1123 -0.008,0.0524 -0.004,0.086 -0.004,0.12385 0.001,0.0759 0.008,0.16347 0.0198,0.27887 0.028,0.28068 0.0855,0.71998 0.16665,1.31306 0.082,0.59056 0.18053,1.32525 0.29448,2.20004 0.11267,0.87218 0.23506,1.88207 0.35258,2.98632 0.0593,0.55162 0.11804,1.13051 0.17438,1.73524 0.0553,0.60797 0.10951,1.23682 0.1589,1.88633 0.0988,1.29171 0.17617,2.64308 0.2325,4.051458 0.0278,0.70733 0.0482,1.42068 0.0619,2.14195 0.0139,0.71787 0.0199,1.43444 0.0199,2.15356 -0.001,1.4406 -0.027,2.89537 -0.0814,4.29938 -0.0563,1.40621 -0.13272,2.75992 -0.23249,4.05536 -0.0494,0.65003 -0.10256,1.27611 -0.1589,1.88243 -0.0553,0.60381 -0.11506,1.18372 -0.17438,1.73524 -0.11764,1.10539 -0.23975,2.11738 -0.35258,2.9902 -0.11507,0.87519 -0.21246,1.60676 -0.29449,2.19617 -0.0808,0.59225 -0.13886,1.03197 -0.16664,1.31304 -0.0119,0.1135 -0.0179,0.20378 -0.0198,0.2789 -4.6e-4,0.038 -0.004,0.0719 0.004,0.12405 0.004,0.0259 0.01,0.0554 0.0387,0.1123 0.002,0.006 0.006,0.01 0.0119,0.0199 -2.09231,10.91713 -6.02792,21.51539 -11.59304,31.16469 -5.59962,9.72337 -12.83728,18.48881 -21.31463,25.81952 -8.47247,7.33633 -18.18907,13.24023 -28.61838,17.3873 -10.42435,4.15259 -21.56069,6.54987 -32.74493,7.03006 h -0.004 c -11.91423,0.54541 -23.97481,-1.09593 -35.35645,-4.77966 h -0.004 c -11.38761,-3.67593 -22.093218,-9.39683 -31.458518,-16.8102 -9.371316,-7.40584 -17.403536,-16.50495 -23.600646,-26.73747 -6.16194,-10.15705 -10.49408,-21.4369 -12.72058,-33.07424 0.006,-0.008 0.008,-0.0139 0.0119,-0.0199 0.0282,-0.0575 0.0307,-0.09 0.0349,-0.11628 0.008,-0.0522 0.008,-0.082 0.008,-0.12007 -0.001,-0.0761 -0.008,-0.16347 -0.0199,-0.2789 v -0.004 c -0.0279,-0.28067 -0.0894,-0.71611 -0.17041,-1.30918 v -0.004 c -0.0818,-0.59067 -0.18033,-1.32134 -0.29448,-2.19617 -0.11287,-0.87294 -0.2349,-1.88454 -0.35259,-2.9902 -0.0593,-0.55163 -0.11804,-1.13051 -0.17438,-1.73524 -0.0553,-0.60798 -0.10653,-1.2333 -0.15494,-1.88243 v -0.004 c -0.0998,-1.29154 -0.17992,-2.63924 -0.23635,-4.04762 -0.0278,-0.70733 -0.0482,-1.42066 -0.0619,-2.14193 v -0.004 c -0.0159,-0.7166 -0.0198,-1.43385 -0.0198,-2.15358 9.9e-4,-1.44062 0.0299,-2.89555 0.0853,-4.29938 0.0554,-1.405888 0.13371,-2.755688 0.23249,-4.051478 0.0494,-0.65005 0.10257,-1.27999 0.1589,-1.88631 0.0554,-0.6038 0.1111,-1.17985 0.17042,-1.73138 0.11863,-1.10578 0.23979,-2.11762 0.35258,-2.99018 0.11507,-0.87519 0.21624,-1.60681 0.29835,-2.19617 v -0.004 c 0.0808,-0.59232 0.13887,-1.02828 0.16664,-1.30919 0.0119,-0.11589 0.0178,-0.20272 0.0198,-0.27888 4.6e-4,-0.038 6.4e-4,-0.0719 -0.008,-0.12385 -0.004,-0.0261 -0.006,-0.0554 -0.0349,-0.1123 -0.002,-0.004 -0.008,-0.008 -0.0119,-0.0159 2.23179,-11.60938 6.51974,-22.82484 12.63533,-32.94254 6.14763,-10.1892 14.12716,-19.27469 23.441786,-26.68325 8.81217,-7.01879 18.821548,-12.53998 29.459188,-16.2524296 10.63509,-3.719662 21.90391,-5.631872 33.17116,-5.627922 z m 0,4.899742 c -52.815658,0 -95.638714,42.8079496 -95.638714,95.6049976 0,52.79705 42.823056,95.60499 95.638714,95.60499 52.81564,0 95.6387,-42.80794 95.6387,-95.60499 0,-52.797048 -42.82306,-95.6049976 -95.6387,-95.6049976 z m 0,0.69332 c 52.4404,0 94.94127,42.4897596 94.94127,94.9116776 0,52.42192 -42.50087,94.91168 -94.94127,94.91168 -52.440418,0 -94.945154,-42.48976 -94.945154,-94.91168 0,-52.421918 42.504736,-94.9116776 94.945154,-94.9116776 z M 43.494856,86.006222 h 4.13429 c -0.0268,0.25938 -0.0772,0.6699 -0.15494,1.23945 -0.0826,0.59238 -0.17934,1.32779 -0.29445,2.20393 -0.11329,0.87676 -0.23713,1.89412 -0.35648,3.00567 -0.0597,0.55547 -0.11864,1.13591 -0.17438,1.74301 -0.0567,0.6108 -0.10911,1.24076 -0.15891,1.89406 -0.0996,1.30459 -0.17676,2.66453 -0.23248,4.078578 -0.0558,1.41329 -0.0844,2.877 -0.0854,4.32649 0,0.72354 0.004,1.44609 0.0198,2.16906 0.0139,0.72581 0.0341,1.44541 0.0619,2.15744 0.0567,1.41594 0.13589,2.7735 0.23635,4.07474 0.0488,0.65373 0.10316,1.28703 0.15891,1.89791 0.0567,0.60734 0.11466,1.18742 0.17437,1.74297 0.11844,1.11229 0.24316,2.12913 0.35647,3.00571 0.11428,0.87666 0.21242,1.61142 0.29447,2.20392 0.0782,0.57214 0.13212,0.98378 0.15891,1.24333 h -4.13816 v -0.12763 -1.39052 -2.24654 -2.98244 -3.5712 -3.98177 -4.1948 -4.19092 -3.981768 -3.57119 -2.98632 -2.24265 -1.39439 z m 202.878214,0 h 4.13427 v 0.12405 1.39439 2.24265 2.98632 3.57119 3.981768 4.19092 4.1948 3.98177 3.5712 2.98244 2.24654 1.39052 0.12763 h -4.13814 c 0.0266,-0.25817 0.0812,-0.67048 0.15891,-1.23947 v -0.004 c 0.0824,-0.59181 0.1835,-1.32542 0.29836,-2.20005 0.11329,-0.87648 0.23809,-1.89374 0.35646,-3.00567 0.0597,-0.55547 0.11487,-1.13591 0.17041,-1.74301 0.0568,-0.61081 0.10912,-1.24465 0.15891,-1.89792 0.10058,-1.30498 0.17974,-2.661 0.23635,-4.07474 v -0.004 c 0.0548,-1.41311 0.0843,-2.87314 0.0854,-4.32263 v -0.004 c 0,-0.72419 -0.01,-1.44345 -0.0232,-2.16518 -0.0139,-0.7258 -0.0341,-1.44544 -0.0619,-2.15743 -0.0567,-1.415938 -0.13292,-2.777578 -0.23248,-4.078598 -0.0498,-0.65341 -0.10713,-1.28317 -0.16268,-1.89405 -0.0567,-0.60734 -0.1107,-1.19131 -0.17041,-1.74687 -0.11843,-1.11226 -0.24316,-2.12523 -0.35646,-3.00181 v -0.004 c -0.11387,-0.8752 -0.21617,-1.60798 -0.29836,-2.20005 v -0.004 c -0.0776,-0.56762 -0.12816,-0.98046 -0.15494,-1.23947 z" />
  <g
     id="g754"
     transform="translate(0.22949649,-0.22397777)">
    <circle
       style="fill:#c8c8c8;stroke:#000000;stroke-width:0.975886"
       id="path427"
       cx="-146.77052"
       cy="104.22392"
       r="14.512057"
       transform="scale(-1,1)" />
    <circle
       style="fill:#c8c8c8;stroke:#000000;stroke-width:0.975886"
       id="path427-70"
       cx="-169.77052"
       cy="133.22392"
       r="14.512057"
       transform="scale(-1,1)" />
    <circle
       style="fill:#c8c8c8;stroke:#000000;stroke-width:0.975886"
       id="path427-7"
       cx="158.77052"
       cy="69.223923"
       r="14.512057" />
    <circle
       style="fill:#c8c8c8;stroke:#000000;stroke-width:0.975886"
       id="path427-7-5"
       cx="75.770515"
       cy="97.223923"
       r="14.512057" />
    <circle
       style="fill:#c8c8c8;stroke:#000000;stroke-width:0.975886"
       id="path427-7-1"
       cx="123.77052"
       cy="75.223923"
       r="14.512057" />
    <circle
       style="fill:#c8c8c8;stroke:#000000;stroke-width:0.975886"
       id="path427-7-1-2"
       cx="86.770515"
       cy="64.223923"
       r="14.512057" />
    <circle
       style="fill:#c8c8c8;stroke:#000000;stroke-width:0.975886"
       id="path427-7-67"
       cx="111.77052"
       cy="111.22392"
       r="14.512057" />
    <circle
       style="fill:#c8c8c8;stroke:#000000;stroke-width:0.975886"
       id="path427-7-6"
       cx="181.77052"
       cy="97.223923"
       r="14.512057" />
    <circle
       style="fill:#c8c8c8;stroke:#000000;stroke-width:0.975886"
       id="path427-7-6-8"
       cx="134.77052"
       cy="139.22392"
       r="14.512057" />
    <circle
       style="fill:#c8c8c8;stroke:#000000;stroke-width:0.975886"
       id="path427-7-1-4"
       cx="116.77052"
       cy="40.223923"
       r="14.512057" />
    <circle
       style="fill:#c8c8c8;stroke:#000000;stroke-width:0.975886"
       id="path427-7-1-8"
       cx="153.77052"
       cy="34.223923"
       r="14.512057" />
    <circle
       style="fill:#c8c8c8;stroke:#000000;stroke-width:0.975886"
       id="path427-7-1-9"
       cx="186.77052"
       cy="44.223923"
       r="14.512057" />
    <circle
       style="fill:#c8c8c8;stroke:#000000;stroke-width:0.975886"
       id="path427-7-1-41"
       cx="210.77052"
       cy="74.223923"
       r="14.512057" />
    <circle
       style="fill:#c8c8c8;stroke:#000000;stroke-width:0.975886"
       id="path427-7-1-7"
       cx="217.77052"
       cy="111.22392"
       r="14.512057" />
    <circle
       style="fill:#c8c8c8;stroke:#000000;stroke-width:0.975886"
       id="path427-7-1-89"
       cx="206.77052"
       cy="144.22392"
       r="14.512057" />
    <circle
       style="fill:#c8c8c8;stroke:#000000;stroke-width:0.975886"
       id="path427-7-1-91"
       cx="176.77052"
       cy="168.22392"
       r="14.512057" />
    <circle
       style="fill:#c8c8c8;stroke:#000000;stroke-width:0.975886"
       id="path427-7-1-98"
       cx="139.77052"
       cy="175.22392"
       r="14.512057" />
    <circle
       style="fill:#c8c8c8;stroke:#000000;stroke-width:0.975886"
       id="path427-7-1-20"
       cx="106.77052"
       cy="164.22392"
       r="14.512057" />
    <circle
       style="fill:#c8c8c8;stroke:#000000;stroke-width:0.975886"
       id="path427-7-1-1"
       cx="82.770515"
       cy="134.22392"
       r="14.512057" />
  </g>
</svg>
