<?xml version="1.0" encoding="UTF-8" standalone="no"?>
<svg
   id="svg2"
   version="1.1"
   viewBox="0 0 371.54288 255.25406"
   height="255.25406mm"
   width="371.54288mm"
   sodipodi:docname="head.svg"
   inkscape:version="1.2.1 (9c6d41e410, 2022-07-14)"
   xmlns:inkscape="http://www.inkscape.org/namespaces/inkscape"
   xmlns:sodipodi="http://sodipodi.sourceforge.net/DTD/sodipodi-0.dtd"
   xmlns:xlink="http://www.w3.org/1999/xlink"
   xmlns="http://www.w3.org/2000/svg"
   xmlns:svg="http://www.w3.org/2000/svg"
   xmlns:rdf="http://www.w3.org/1999/02/22-rdf-syntax-ns#"
   xmlns:cc="http://creativecommons.org/ns#"
   xmlns:dc="http://purl.org/dc/elements/1.1/">
  <sodipodi:namedview
     id="namedview913"
     pagecolor="#ffffff"
     bordercolor="#000000"
     borderopacity="0.25"
     inkscape:showpageshadow="2"
     inkscape:pageopacity="0.0"
     inkscape:pagecheckerboard="0"
     inkscape:deskcolor="#d1d1d1"
     inkscape:document-units="mm"
     showgrid="false"
     inkscape:zoom="0.70710678"
     inkscape:cx="980.7571"
     inkscape:cy="755.19004"
     inkscape:window-width="2400"
     inkscape:window-height="1434"
     inkscape:window-x="2391"
     inkscape:window-y="-9"
     inkscape:window-maximized="1"
     inkscape:current-layer="svg2" />
  <!-- Working space 10 10 410 287 -->
  <!-- Title block 220 227 410 287 -->
  <path
     style="color:#000000;fill:#c8c8c8;fill-opacity:1;stroke:#000000;stroke-opacity:1;-inkscape-stroke:none"
     d="m 186.42966,0.50012668 c -14.8162,0.008 -29.63312,0.82757002 -44.35937,2.45899002 v 0.002 C 112.45091,6.2390967 83.00725,11.117697 53.91404,17.570487 l 0.0762,0.33789 -0.16016,-0.30664 -0.38867,0.20118 0.16211,0.31054 -0.25977,-0.23437 c -3.85066,4.27602 -7.70206,8.5521 -11.55273,12.82812 l 0.25977,0.23438 -0.32618,-0.12305 -0.12304,0.32422 0.32812,0.12305 -0.34961,-0.0176 c -0.51159,9.75885 -1.02356,19.51849 -1.53515,29.27734 h -2.09766 v 0.36524 0.33398 0.67773 H 20.82032 v -12.21484 h -0.35157 v -0.34961 H 0.84961 v 0.34961 H 0.5 v 17.78906 32.597653 h 0.34961 v 0.34961 h 19.61914 v -0.34961 h 0.35157 V 87.859533 h 17.12695 v 51.031247 h 0.34961 v 0.35156 h 1.64453 c 0.54653,10.43091 1.09214,20.86206 1.63867,31.29297 l 0.34766,-0.0176 -0.32422,0.12109 0.12109,0.32422 0.32813,-0.12305 -0.26172,0.23438 c 3.85067,4.27623 7.70207,8.55385 11.55273,12.83008 l 0.25782,-0.23242 -0.16016,0.30859 0.38867,0.20117 0.16016,-0.30664 -0.0762,0.33789 c 11.36506,2.52061 22.78481,4.79513 34.24609,6.83399 0.93404,17.82237 1.86869,35.64444 2.80274,53.4668 l 0.34765,-0.0176 -0.32812,0.11719 0.51562,1.44727 0.33008,-0.11719 -0.25195,0.24219 4.22461,4.39062 0.25195,-0.24414 -0.13867,0.32227 1.13281,0.48828 0.21289,-0.49414 -0.0469,0.52539 c 26.68372,2.39796 53.47838,3.56784 80.26953,3.50781 v 0.002 c 5.36683,-0.012 10.73292,0.003 16.09961,0.0449 26.92763,0.21109 53.86558,-0.89358 80.68554,-3.3086 l -0.0469,-0.5332 0.21484,0.50195 1.13281,-0.48828 -0.13867,-0.32226 0.25196,0.24218 c 1.40766,-1.46333 2.81498,-2.92534 4.22265,-4.38867 l -0.30078,-0.29101 0.30469,0.28906 c 0.45491,-0.48112 0.58206,-1.11369 0.61133,-1.67188 l 2.80273,-53.45899 c 11.49601,-2.05786 22.94784,-4.36937 34.33984,-6.94141 l -0.0781,-0.34179 0.16406,0.31054 0.38672,-0.20312 -0.16406,-0.31055 0.26172,0.23438 c 3.83766,-4.27733 7.67405,-8.55471 11.51172,-12.83204 l -0.25977,-0.23437 0.32812,0.125 0.1211,-0.32227 -0.33203,-0.125 0.35351,0.0195 c 0.54908,-10.48264 1.09741,-20.96464 1.64649,-31.44727 h 1.9707 v -0.33984 h 0.0234 v -38 -13.031247 h 17.12695 v 12.214837 h 0.35156 v 0.34961 h 19.61915 v -0.34961 h 0.34961 V 67.476657 49.687597 h -0.34961 v -0.34961 h -19.61907 v 0.34961 h -0.35156 v 12.21484 h -17.12695 v -1.01171 h -0.34961 v -0.34961 h -1.74805 c -0.51353,-9.79799 -1.02749,-19.59655 -1.54101,-29.39453 l -0.47657,0.0254 0.45313,-0.17188 -0.1211,-0.32226 -0.32812,0.12304 0.25977,-0.23242 c -3.83533,-4.27477 -7.67054,-8.54945 -11.50586,-12.82422 l -0.28125,0.25195 0.17773,-0.33593 -0.38672,-0.20313 -0.16406,0.3086 0.0781,-0.33985 C 289.00923,10.956387 259.99056,6.1075967 230.79097,2.9102667 v -0.002 C 216.06286,1.2938267 201.24585,0.49157668 186.42964,0.50006668 Z"
     id="284" />
  <metadata
     id="metadata849">
    <rdf:RDF>
      <cc:Work
         rdf:about="">
        <dc:format>image/svg+xml</dc:format>
        <dc:type
           rdf:resource="http://purl.org/dc/dcmitype/StillImage" />
        <dc:title />
      </cc:Work>
    </rdf:RDF>
  </metadata>
  <defs
     id="defs847">
    <linearGradient
       gradientUnits="userSpaceOnUse"
       id="defitem29"
       y2="485.909"
       x2="655.35199"
       y1="807.466"
       x1="649.42902">
      <stop
         id="stop92"
         offset="0.0000000"
         style="stop-color:#ffffff;stop-opacity:1.0000000;" />
      <stop
         id="stop93"
         offset="1.0000000"
         style="stop-color:#ffffff;stop-opacity:0.13756600;" />
    </linearGradient>
    <linearGradient
       xlink:href="#defitem29"
       id="linearGradient3448"
       gradientUnits="userSpaceOnUse"
       x1="649.42902"
       y1="807.466"
       x2="655.35199"
       y2="485.909" />
    <radialGradient
       gradientUnits="userSpaceOnUse"
       id="defitem28"
       fy="345.56"
       fx="1049.72"
       r="1202.15"
       cy="345.56"
       cx="1049.72">
      <stop
         id="stop89"
         offset="0.0000000"
         style="stop-color:#ffffff;stop-opacity:1.0000000;" />
      <stop
         id="stop90"
         offset="1.0000000"
         style="stop-color:#a8a8a8;stop-opacity:1.0000000;" />
    </radialGradient>
    <radialGradient
       xlink:href="#defitem28"
       id="radialGradient3446"
       gradientUnits="userSpaceOnUse"
       cx="1092.7045"
       cy="64.845284"
       fx="1089.4004"
       fy="64.844765"
       r="1202.15" />
    <linearGradient
       gradientUnits="userSpaceOnUse"
       id="defitem30"
       y2="636.70697"
       x2="980"
       y1="636.70697"
       x1="287.5">
      <stop
         id="stop95"
         offset="0.0000000"
         style="stop-color:#464646;stop-opacity:1.0000000;" />
      <stop
         id="stop96"
         offset="1.0000000"
         style="stop-color:#c2c2c2;stop-opacity:1.0000000;" />
    </linearGradient>
    <linearGradient
       xlink:href="#defitem30"
       id="linearGradient3444"
       gradientUnits="userSpaceOnUse"
       gradientTransform="matrix(1,0,0,1.016038,0,-11.73855)"
       x1="287.5"
       y1="636.70697"
       x2="980"
       y2="636.70697" />
    <linearGradient
       gradientUnits="userSpaceOnUse"
       id="defitem27"
       y2="317.44699"
       x2="985.98199"
       y1="403.18799"
       x1="921.091">
      <stop
         id="stop86"
         offset="0.0000000"
         style="stop-color:#7e7e7e;stop-opacity:1.0000000;" />
      <stop
         id="stop87"
         offset="1.0000000"
         style="stop-color:#e5e5e5;stop-opacity:1.0000000;" />
    </linearGradient>
    <linearGradient
       xlink:href="#defitem27"
       id="linearGradient3442"
       gradientUnits="userSpaceOnUse"
       x1="921.091"
       y1="403.18799"
       x2="985.98199"
       y2="317.44699" />
    <linearGradient
       gradientUnits="userSpaceOnUse"
       id="defitem26"
       y2="360.27499"
       x2="293.37"
       y1="346.30399"
       x1="530.76099">
      <stop
         id="stop83"
         offset="0.0000000"
         style="stop-color:#5f5f5f;stop-opacity:1.0000000;" />
      <stop
         id="stop84"
         offset="1.0000000"
         style="stop-color:#e5e5e5;stop-opacity:1.0000000;" />
    </linearGradient>
    <linearGradient
       xlink:href="#defitem26"
       id="linearGradient3440"
       gradientUnits="userSpaceOnUse"
       x1="530.76099"
       y1="346.30399"
       x2="293.37"
       y2="360.27499" />
    <linearGradient
       gradientUnits="userSpaceOnUse"
       id="defitem25"
       y2="337.60999"
       x2="308.75"
       y1="412.91901"
       x1="164.013">
      <stop
         id="stop80"
         offset="0.0000000"
         style="stop-color:#ffffff;stop-opacity:1.0000000;" />
      <stop
         id="stop81"
         offset="1.0000000"
         style="stop-color:#bfbfbf;stop-opacity:1.0000000;" />
    </linearGradient>
    <linearGradient
       xlink:href="#defitem25"
       id="linearGradient3438"
       gradientUnits="userSpaceOnUse"
       x1="164.013"
       y1="412.91901"
       x2="308.75"
       y2="337.60999" />
    <linearGradient
       gradientUnits="userSpaceOnUse"
       id="defitem24"
       y2="380.47198"
       x2="992.48901"
       y1="270.854"
       x1="1094.25">
      <stop
         id="stop77"
         offset="0.0000000"
         style="stop-color:#6a6a6a;stop-opacity:1.0000000;" />
      <stop
         id="stop78"
         offset="1.0000000"
         style="stop-color:#e6e6e6;stop-opacity:1.0000000;" />
    </linearGradient>
    <linearGradient
       xlink:href="#defitem24"
       id="linearGradient3436"
       gradientUnits="userSpaceOnUse"
       x1="1094.25"
       y1="270.854"
       x2="992.48901"
       y2="380.47198" />
    <linearGradient
       gradientUnits="userSpaceOnUse"
       id="defitem23"
       y2="549.37799"
       x2="1049.84"
       y1="476.465"
       x1="1170.91">
      <stop
         id="stop74"
         offset="0.0000000"
         style="stop-color:#5f5f5f;stop-opacity:1.0000000;" />
      <stop
         id="stop75"
         offset="1.0000000"
         style="stop-color:#ebebeb;stop-opacity:1.0000000;" />
    </linearGradient>
    <linearGradient
       xlink:href="#defitem23"
       id="linearGradient3434"
       gradientUnits="userSpaceOnUse"
       x1="1170.91"
       y1="476.465"
       x2="1049.84"
       y2="549.37799" />
    <linearGradient
       gradientUnits="userSpaceOnUse"
       id="defitem22"
       y2="313.276"
       x2="576.14899"
       y1="105.486"
       x1="783.716">
      <stop
         id="stop71"
         offset="0.0000000"
         style="stop-color:#5a5a5a;stop-opacity:1.0000000;" />
      <stop
         id="stop72"
         offset="1.0000000"
         style="stop-color:#c7c7c7;stop-opacity:1.0000000;" />
    </linearGradient>
    <linearGradient
       xlink:href="#defitem22"
       id="linearGradient3432"
       gradientUnits="userSpaceOnUse"
       x1="783.716"
       y1="105.486"
       x2="576.14899"
       y2="313.276" />
    <linearGradient
       gradientUnits="userSpaceOnUse"
       id="defitem21"
       y2="484.716"
       x2="128.05499"
       y1="418.698"
       x1="280.04401">
      <stop
         id="stop68"
         offset="0.0000000"
         style="stop-color:#666666;stop-opacity:1.0000000;" />
      <stop
         id="stop69"
         offset="1.0000000"
         style="stop-color:#d8d8d8;stop-opacity:1.0000000;" />
    </linearGradient>
    <linearGradient
       xlink:href="#defitem21"
       id="linearGradient3430"
       gradientUnits="userSpaceOnUse"
       x1="280.04401"
       y1="418.698"
       x2="128.05499"
       y2="484.716" />
    <linearGradient
       gradientUnits="userSpaceOnUse"
       id="defitem20"
       y2="584.40997"
       x2="220"
       y1="636.95398"
       x1="129.687">
      <stop
         id="stop65"
         offset="0.0000000"
         style="stop-color:#ffffff;stop-opacity:1.0000000;" />
      <stop
         id="stop66"
         offset="1.0000000"
         style="stop-color:#bbbbbb;stop-opacity:1.0000000;" />
    </linearGradient>
    <linearGradient
       xlink:href="#defitem20"
       id="linearGradient3428"
       gradientUnits="userSpaceOnUse"
       x1="129.687"
       y1="636.95398"
       x2="220"
       y2="584.40997" />
    <linearGradient
       gradientUnits="userSpaceOnUse"
       id="defitem19"
       y2="583.75299"
       x2="1127.98"
       y1="629.02802"
       x1="1048.72">
      <stop
         id="stop62"
         offset="0.0000000"
         style="stop-color:#5e5e5e;stop-opacity:1.0000000;" />
      <stop
         id="stop63"
         offset="1.0000000"
         style="stop-color:#ededed;stop-opacity:1.0000000;" />
    </linearGradient>
    <linearGradient
       xlink:href="#defitem19"
       id="linearGradient3426"
       gradientUnits="userSpaceOnUse"
       x1="1048.72"
       y1="629.02802"
       x2="1127.98"
       y2="583.75299" />
    <linearGradient
       gradientUnits="userSpaceOnUse"
       id="defitem18"
       y2="291.97699"
       x2="581.32397"
       y1="387.27301"
       x1="370.022">
      <stop
         id="stop59"
         offset="0.0000000"
         style="stop-color:#636363;stop-opacity:1.0000000;" />
      <stop
         id="stop60"
         offset="1.0000000"
         style="stop-color:#d6d6d6;stop-opacity:1.0000000;" />
    </linearGradient>
    <linearGradient
       xlink:href="#defitem18"
       id="linearGradient3424"
       gradientUnits="userSpaceOnUse"
       x1="370.022"
       y1="387.27301"
       x2="581.32397"
       y2="291.97699" />
    <linearGradient
       gradientUnits="userSpaceOnUse"
       id="defitem17"
       y2="351.939"
       x2="909.59399"
       y1="351.939"
       x1="732.15601">
      <stop
         id="stop56"
         offset="0.0000000"
         style="stop-color:#676767;stop-opacity:1.0000000;" />
      <stop
         id="stop57"
         offset="1.0000000"
         style="stop-color:#d3d3d3;stop-opacity:1.0000000;" />
    </linearGradient>
    <linearGradient
       xlink:href="#defitem17"
       id="linearGradient3422"
       gradientUnits="userSpaceOnUse"
       x1="732.15601"
       y1="351.939"
       x2="909.59399"
       y2="351.939" />
    <linearGradient
       gradientUnits="userSpaceOnUse"
       id="defitem16"
       y2="494.71301"
       x2="1073.01"
       y1="494.71301"
       x1="1014.43">
      <stop
         id="stop53"
         offset="0.0000000"
         style="stop-color:#666666;stop-opacity:1.0000000;" />
      <stop
         id="stop54"
         offset="1.0000000"
         style="stop-color:#dcdcdc;stop-opacity:1.0000000;" />
    </linearGradient>
    <linearGradient
       xlink:href="#defitem16"
       id="linearGradient3420"
       gradientUnits="userSpaceOnUse"
       x1="1014.43"
       y1="494.71301"
       x2="1073.01"
       y2="494.71301" />
    <linearGradient
       gradientUnits="userSpaceOnUse"
       id="defitem15"
       y2="516.37"
       x2="193.27699"
       y1="452.388"
       x1="272.59201">
      <stop
         id="stop50"
         offset="0.0000000"
         style="stop-color:#6e6e6e;stop-opacity:1.0000000;" />
      <stop
         id="stop51"
         offset="1.0000000"
         style="stop-color:#d8d8d8;stop-opacity:1.0000000;" />
    </linearGradient>
    <linearGradient
       xlink:href="#defitem15"
       id="linearGradient3418"
       gradientUnits="userSpaceOnUse"
       x1="272.59201"
       y1="452.388"
       x2="193.27699"
       y2="516.37" />
    <radialGradient
       gradientUnits="userSpaceOnUse"
       id="defitem14"
       fy="211.088"
       fx="1037.22"
       r="1164.28"
       cy="211.088"
       cx="1037.22">
      <stop
         id="stop47"
         offset="0.0000000"
         style="stop-color:#ffffff;stop-opacity:1.0000000;" />
      <stop
         id="stop48"
         offset="1.0000000"
         style="stop-color:#aaaaaa;stop-opacity:1.0000000;" />
    </radialGradient>
    <radialGradient
       xlink:href="#defitem14"
       id="radialGradient3416"
       gradientUnits="userSpaceOnUse"
       cx="1037.22"
       cy="211.088"
       fx="1037.22"
       fy="211.088"
       r="1164.28" />
    <linearGradient
       gradientUnits="userSpaceOnUse"
       id="defitem13"
       y2="686.83002"
       x2="379.241"
       y1="732.12903"
       x1="342.64999">
      <stop
         id="stop44"
         offset="0.0000000"
         style="stop-color:#ffffff;stop-opacity:1.0000000;" />
      <stop
         id="stop45"
         offset="1.0000000"
         style="stop-color:#989898;stop-opacity:1.0000000;" />
    </linearGradient>
    <linearGradient
       xlink:href="#defitem13"
       id="linearGradient3414"
       gradientUnits="userSpaceOnUse"
       x1="342.64999"
       y1="732.12903"
       x2="379.241"
       y2="686.83002" />
    <radialGradient
       gradientUnits="userSpaceOnUse"
       id="defitem12"
       fy="484.409"
       fx="632.78101"
       r="540.27899"
       cy="484.409"
       cx="632.78101">
      <stop
         id="stop41"
         offset="0.0000000"
         style="stop-color:#ffffff;stop-opacity:1.0000000;" />
      <stop
         id="stop42"
         offset="1.0000000"
         style="stop-color:#ededed;stop-opacity:1.0000000;" />
    </radialGradient>
    <radialGradient
       xlink:href="#defitem12"
       id="radialGradient3412"
       gradientUnits="userSpaceOnUse"
       cx="632.78101"
       cy="484.409"
       fx="632.78101"
       fy="484.409"
       r="540.27899" />
    <radialGradient
       xlink:href="#linearGradient3682"
       id="radialGradient3817"
       gradientUnits="userSpaceOnUse"
       gradientTransform="matrix(1.1149219,0.2722306,-0.7507171,3.0745639,-471.08629,-148.32863)"
       cx="270.58316"
       cy="33.899986"
       fx="270.58316"
       fy="33.899986"
       r="19.571428" />
    <linearGradient
       id="linearGradient3682">
      <stop
         style="stop-color:#ff6d0f;stop-opacity:1;"
         offset="0"
         id="stop3684" />
      <stop
         style="stop-color:#ff1000;stop-opacity:1;"
         offset="1"
         id="stop3686" />
    </linearGradient>
    <radialGradient
       xlink:href="#linearGradient3864"
       id="radialGradient3661"
       gradientUnits="userSpaceOnUse"
       gradientTransform="matrix(0.6186598,0.9666542,-1.0332462,0.6612786,-327.27568,-255.84136)"
       cx="282.64584"
       cy="29.149046"
       fx="282.64584"
       fy="29.149046"
       r="19.571428" />
    <linearGradient
       id="linearGradient3864">
      <stop
         id="stop3866"
         offset="0"
         style="stop-color:#71b2f8;stop-opacity:1;" />
      <stop
         id="stop3868"
         offset="1"
         style="stop-color:#002795;stop-opacity:1;" />
    </linearGradient>
  </defs>
  <g
     id="g6200"
     transform="translate(0.50019,-0.41151967)">
    <g
       id="g5967">
      <path
         d="m 332.761,100.39181 -0.016,0.29805"
         id="path266"
         style="fill:none;stroke:#000000;stroke-width:0.7;stroke-linecap:butt;stroke-linejoin:miter" />
      <path
         d="m 332.745,100.09259 0.016,0.29922"
         id="path273"
         style="fill:none;stroke:#000000;stroke-width:0.7;stroke-linecap:butt;stroke-linejoin:miter" />
      <path
         d="m 332.761,100.39184 v -3e-5"
         id="path275"
         style="fill:none;stroke:#000000;stroke-width:0.7;stroke-linecap:butt;stroke-linejoin:miter" />
      <path
         d="m 141.6093,2.8079 v -1e-4"
         id="path291"
         style="fill:none;stroke:#000000;stroke-width:0.7;stroke-linecap:butt;stroke-linejoin:miter" />
      <path
         d="m 37.781,100.39182 0.016,-0.29941"
         id="path293"
         style="fill:none;stroke:#000000;stroke-width:0.7;stroke-linecap:butt;stroke-linejoin:miter" />
      <path
         d="M 37.797,100.69086 37.781,100.3918"
         id="path300"
         style="fill:none;stroke:#000000;stroke-width:0.7;stroke-linecap:butt;stroke-linejoin:miter" />
      <path
         d="m 273.5629,226.0578 0.494,0.382"
         id="path308"
         style="fill:none;stroke:#000000;stroke-width:0.7;stroke-linecap:butt;stroke-linejoin:miter" />
      <path
         d="m 277.4241,229.0398 0.004,0.003"
         id="path310"
         style="fill:none;stroke:#000000;stroke-width:0.7;stroke-linecap:butt;stroke-linejoin:miter" />
      <path
         d="m 277.4283,229.0428 h -10e-5"
         id="path312"
         style="fill:none;stroke:#000000;stroke-width:0.7;stroke-linecap:butt;stroke-linejoin:miter" />
      <path
         d="m 93.0649,229.0438 0.0056,-0.005"
         id="path314"
         style="fill:none;stroke:#000000;stroke-width:0.7;stroke-linecap:butt;stroke-linejoin:miter" />
      <path
         d="m 96.3708,226.4908 0.489,-0.378"
         id="path316"
         style="fill:none;stroke:#000000;stroke-width:0.7;stroke-linecap:butt;stroke-linejoin:miter" />
      <path
         d="m 268.3835,248.3918 1.8776,-1.935"
         id="path318"
         style="fill:none;stroke:#000000;stroke-width:0.7;stroke-linecap:butt;stroke-linejoin:miter" />
      <path
         d="m 99.6133,245.6518 2.4082,2.485"
         id="path322"
         style="fill:none;stroke:#000000;stroke-width:0.7;stroke-linecap:butt;stroke-linejoin:miter" />
      <path
         d="m 97.5688,239.6418 q -0.2356,0.584 -0.4498,1.126"
         id="path334"
         style="fill:none;stroke:#000000;stroke-width:0.7;stroke-linecap:butt;stroke-linejoin:miter" />
      <path
         d="m 96.6846,250.3218 c 1.0891,0.096 2.7159,-0.408 4.8736,-1.634"
         id="path338"
         style="fill:none;stroke:#000000;stroke-width:0.7;stroke-linecap:butt;stroke-linejoin:miter" />
      <path
         d="m 101.5582,248.6878 q 0.4162,-0.237 0.4722,-0.543"
         id="path340"
         style="fill:none;stroke:#000000;stroke-width:0.7;stroke-linecap:butt;stroke-linejoin:miter" />
      <path
         d="m 118.56,249.3218 q -8.2775,-0.514 -16.5268,-1.177"
         id="path342"
         style="fill:none;stroke:#000000;stroke-width:0.7;stroke-linecap:butt;stroke-linejoin:miter" />
      <path
         d="m 118.5599,249.3218 q -0.005,0.136 -0.009,0.264"
         id="path344"
         style="fill:none;stroke:#000000;stroke-width:0.7;stroke-linecap:butt;stroke-linejoin:miter" />
      <path
         d="m 129.5881,250.2348 q -5.5207,-0.289 -11.0375,-0.649"
         id="path346"
         style="fill:none;stroke:#000000;stroke-width:0.7;stroke-linecap:butt;stroke-linejoin:miter" />
      <path
         d="m 129.2514,250.8178 q 0.1554,-0.269 0.3367,-0.583"
         id="path348"
         style="fill:none;stroke:#000000;stroke-width:0.7;stroke-linecap:butt;stroke-linejoin:miter" />
      <path
         d="m 130.6975,251.0138 c -0.9737,-0.085 -1.4706,-0.153 -1.4461,-0.196"
         id="path350"
         style="fill:none;stroke:#000000;stroke-width:0.7;stroke-linecap:butt;stroke-linejoin:miter" />
      <path
         d="m 150.916,252.4468 q -10.1874,-0.562 -20.2185,-1.433"
         id="path352"
         style="fill:none;stroke:#000000;stroke-width:0.7;stroke-linecap:butt;stroke-linejoin:miter" />
      <path
         d="m 157.9466,252.6818 c -0.7015,-0.014 -1.388,-0.03 -2.0596,-0.047 -0.6712,-0.018 -1.3264,-0.038 -1.9357,-0.059 -1.2187,-0.041 -2.2536,-0.086 -3.0353,-0.129"
         id="path354"
         style="fill:none;stroke:#000000;stroke-width:0.7;stroke-linecap:butt;stroke-linejoin:miter" />
      <path
         d="m 176.98082,252.8478 q -9.51892,0.022 -19.03422,-0.166"
         id="path356"
         style="fill:none;stroke:#000000;stroke-width:0.7;stroke-linecap:butt;stroke-linejoin:miter" />
      <path
         d="m 115.271,250.2458 c 0.7412,0.051 1.4826,0.094 2.0069,0.116 0.5242,0.023 0.8315,0.026 0.8314,0.009"
         id="path358"
         style="fill:none;stroke:#000000;stroke-width:0.7;stroke-linecap:butt;stroke-linejoin:miter" />
      <path
         d="m 118.1093,250.3708 c -1e-4,-0.017 -0.308,-0.054 -0.8324,-0.101 -0.5242,-0.047 -1.2647,-0.104 -2.0053,-0.155 -0.7405,-0.051 -1.481,-0.095 -2.0055,-0.12 -0.5246,-0.025 -0.8331,-0.03 -0.8334,-0.013"
         id="path360"
         style="fill:none;stroke:#000000;stroke-width:0.7;stroke-linecap:butt;stroke-linejoin:miter" />
      <path
         d="m 112.4327,249.9818 c -3e-4,0.017 0.3074,0.057 0.8316,0.106 0.5244,0.049 1.2655,0.107 2.0067,0.158"
         id="path362"
         style="fill:none;stroke:#000000;stroke-width:0.7;stroke-linecap:butt;stroke-linejoin:miter" />
      <path
         d="m 133.8102,242.9218 h 1.3579"
         id="path364"
         style="fill:none;stroke:#000000;stroke-width:0.7;stroke-linecap:butt;stroke-linejoin:miter" />
      <path
         d="m 118.5506,249.5858 c -0.002,-0.021 0.1088,-0.144 0.3119,-0.35 0.0999,-0.101 0.2204,-0.22 0.3615,-0.358 0.0703,-0.069 0.147,-0.143 0.2303,-0.224 0.0853,-0.082 0.173,-0.166 0.2632,-0.253 0.1742,-0.166 0.3503,-0.334 0.5529,-0.526 0.1996,-0.189 0.4135,-0.39 0.6417,-0.604 0.4572,-0.429 0.9739,-0.911 1.5501,-1.445"
         id="path366"
         style="fill:none;stroke:#000000;stroke-width:0.7;stroke-linecap:butt;stroke-linejoin:miter" />
      <path
         d="m 129.5881,250.2348 c 0.0183,-0.032 0.1461,-0.253 0.3698,-0.64 0.2237,-0.388 0.5433,-0.941 0.9313,-1.613 0.3879,-0.672 0.8442,-1.463 1.3386,-2.319 0.4943,-0.856 1.0267,-1.778 1.5824,-2.741"
         id="path368"
         style="fill:none;stroke:#000000;stroke-width:0.7;stroke-linecap:butt;stroke-linejoin:miter" />
      <path
         id="19"
         d="M 135.1681,242.9218 H 239.7222"
         style="fill:none;stroke:#000000;stroke-width:0.7;stroke-linecap:butt;stroke-linejoin:miter" />
      <path
         d="m 239.7222,242.9218 q 4.1214,-0.204 8.2405,-0.45"
         id="path371"
         style="fill:none;stroke:#000000;stroke-width:0.7;stroke-linecap:butt;stroke-linejoin:miter" />
      <path
         d="m 245.5487,173.3428 c -0.0373,-1.0528 -0.2417,-2.0992 -0.6034,-3.0887"
         id="path373"
         style="fill:none;stroke:#000000;stroke-width:0.7;stroke-linecap:butt;stroke-linejoin:miter" />
      <path
         d="m 244.6962,169.6379 q -0.1195,-0.2692 -0.2545,-0.531"
         id="path375"
         style="fill:none;stroke:#000000;stroke-width:0.7;stroke-linecap:butt;stroke-linejoin:miter" />
      <path
         d="m 244.1727,168.6192 q -0.2585,-0.4389 -0.5601,-0.8495"
         id="path377"
         style="fill:none;stroke:#000000;stroke-width:0.7;stroke-linecap:butt;stroke-linejoin:miter" />
      <path
         d="m 243.3977,167.4879 -0.0665,-0.0832"
         id="path379"
         style="fill:none;stroke:#000000;stroke-width:0.7;stroke-linecap:butt;stroke-linejoin:miter" />
      <path
         d="m 243.0544,167.077 q -0.1313,-0.1488 -0.2684,-0.2924"
         id="path381"
         style="fill:none;stroke:#000000;stroke-width:0.7;stroke-linecap:butt;stroke-linejoin:miter" />
      <path
         d="m 242.6559,166.651 q -0.2529,-0.255 -0.5233,-0.4913"
         id="path383"
         style="fill:none;stroke:#000000;stroke-width:0.7;stroke-linecap:butt;stroke-linejoin:miter" />
      <path
         d="m 241.7229,165.8207 q -0.4101,-0.3212 -0.8512,-0.5983"
         id="path385"
         style="fill:none;stroke:#000000;stroke-width:0.7;stroke-linecap:butt;stroke-linejoin:miter" />
      <path
         d="m 239.8398,164.6564 q -0.2519,-0.1194 -0.5099,-0.2247"
         id="path387"
         style="fill:none;stroke:#000000;stroke-width:0.7;stroke-linecap:butt;stroke-linejoin:miter" />
      <path
         d="m 237.2928,163.844 q -0.8624,-0.1517 -1.738,-0.1522"
         id="path389"
         style="fill:none;stroke:#000000;stroke-width:0.7;stroke-linecap:butt;stroke-linejoin:miter" />
      <path
         d="m 134.9872,163.6918 -0.082,3e-4"
         id="path391"
         style="fill:none;stroke:#000000;stroke-width:0.7;stroke-linecap:butt;stroke-linejoin:miter" />
      <path
         d="m 129.3698,165.4187 -0.325,0.2303 -0.3156,0.243 -0.3057,0.2554 -0.2952,0.2674 -0.2843,0.2789 -0.2731,0.29 -0.2612,0.3007 -0.2491,0.3108 -0.2365,0.3205 -0.2235,0.3297 -0.2103,0.3383 -0.1966,0.3464 -0.1826,0.354 -0.1684,0.3609"
         id="path393"
         style="fill:none;stroke:#000000;stroke-width:0.7;stroke-linecap:butt;stroke-linejoin:miter" />
      <path
         d="m 125.5975,170.252 c -0.3622,0.9901 -0.5669,2.0372 -0.6042,3.0908"
         id="path395"
         style="fill:none;stroke:#000000;stroke-width:0.7;stroke-linecap:butt;stroke-linejoin:miter" />
      <path
         d="m 236.7318,242.9218 h 2.9904"
         id="path397"
         style="fill:none;stroke:#000000;stroke-width:0.7;stroke-linecap:butt;stroke-linejoin:miter" />
      <path
         d="m 241.0743,250.4438 c -0.0187,-0.033 -0.151,-0.262 -0.3823,-0.662 -0.2313,-0.401 -0.5616,-0.973 -0.9615,-1.666 -0.3998,-0.692 -0.8692,-1.505 -1.3769,-2.385 -0.5078,-0.879 -1.0539,-1.825 -1.6218,-2.809"
         id="path399"
         style="fill:none;stroke:#000000;stroke-width:0.7;stroke-linecap:butt;stroke-linejoin:miter" />
      <path
         d="m 251.9952,249.8178 q -5.4583,0.349 -10.9209,0.626"
         id="path401"
         style="fill:none;stroke:#000000;stroke-width:0.7;stroke-linecap:butt;stroke-linejoin:miter" />
      <path
         d="m 248.0879,246.0578 c 0.5782,0.536 1.0964,1.02 1.5546,1.45 0.2288,0.215 0.443,0.417 0.6428,0.606 0.2027,0.192 0.3793,0.361 0.5532,0.527 0.09,0.087 0.1773,0.171 0.2621,0.253 0.0827,0.08 0.1591,0.154 0.2291,0.222 0.1409,0.138 0.2606,0.257 0.359,0.357 0.1965,0.199 0.3057,0.321 0.3065,0.345"
         id="path403"
         style="fill:none;stroke:#000000;stroke-width:0.7;stroke-linecap:butt;stroke-linejoin:miter" />
      <path
         d="m 251.9952,249.8178 q -0.005,-0.129 -0.009,-0.264"
         id="path405"
         style="fill:none;stroke:#000000;stroke-width:0.7;stroke-linecap:butt;stroke-linejoin:miter" />
      <path
         d="m 268.3771,248.3978 q -8.1809,0.656 -16.3898,1.156"
         id="path407"
         style="fill:none;stroke:#000000;stroke-width:0.7;stroke-linecap:butt;stroke-linejoin:miter" />
      <path
         d="m 268.3771,248.3978 q 0.0853,0.273 0.4618,0.489"
         id="path409"
         style="fill:none;stroke:#000000;stroke-width:0.7;stroke-linecap:butt;stroke-linejoin:miter" />
      <path
         d="m 268.8389,248.8868 c 2.1992,1.261 3.8542,1.777 4.9575,1.68"
         id="path411"
         style="fill:none;stroke:#000000;stroke-width:0.7;stroke-linecap:butt;stroke-linejoin:miter" />
      <path
         d="m 273.2897,240.8318 q -0.2163,-0.545 -0.4537,-1.132"
         id="path415"
         style="fill:none;stroke:#000000;stroke-width:0.7;stroke-linecap:butt;stroke-linejoin:miter" />
      <path
         d="m 213.3853,252.8028 q -10.149,0.171 -20.30075,0.091"
         id="path417"
         style="fill:none;stroke:#000000;stroke-width:0.7;stroke-linecap:butt;stroke-linejoin:miter" />
      <path
         d="m 220.1741,252.5988 c -0.7952,0.039 -1.8135,0.079 -2.9796,0.115 -1.166,0.035 -2.4799,0.067 -3.8092,0.089"
         id="path419"
         style="fill:none;stroke:#000000;stroke-width:0.7;stroke-linecap:butt;stroke-linejoin:miter" />
      <path
         d="m 239.7722,251.3288 q -9.7281,0.78 -19.5981,1.27"
         id="path421"
         style="fill:none;stroke:#000000;stroke-width:0.7;stroke-linecap:butt;stroke-linejoin:miter" />
      <path
         d="m 241.4649,251.1198 c 0.0257,0.045 -0.5602,0.119 -1.6927,0.209"
         id="path423"
         style="fill:none;stroke:#000000;stroke-width:0.7;stroke-linecap:butt;stroke-linejoin:miter" />
      <path
         d="m 241.0743,250.4438 q 0.213,0.369 0.3906,0.676"
         id="path425"
         style="fill:none;stroke:#000000;stroke-width:0.7;stroke-linecap:butt;stroke-linejoin:miter" />
      <path
         d="m 255.271,250.4798 c 0.7413,-0.05 1.4812,-0.109 2.0052,-0.157 0.5251,-0.049 0.8335,-0.088 0.8331,-0.105"
         id="path427"
         style="fill:none;stroke:#000000;stroke-width:0.7;stroke-linecap:butt;stroke-linejoin:miter" />
      <path
         d="m 258.1093,250.2178 c -4e-4,-0.017 -0.3069,-0.012 -0.8302,0.012 -0.5243,0.024 -1.2661,0.068 -2.0067,0.118 -0.7406,0.05 -1.48,0.106 -2.0045,0.153 -0.5257,0.046 -0.8353,0.083 -0.8352,0.101"
         id="path429"
         style="fill:none;stroke:#000000;stroke-width:0.7;stroke-linecap:butt;stroke-linejoin:miter" />
      <path
         d="m 252.4327,250.6018 c 10e-5,0.017 0.3065,0.014 0.8298,-0.008 0.5246,-0.022 1.2672,-0.064 2.0085,-0.114"
         id="path431"
         style="fill:none;stroke:#000000;stroke-width:0.7;stroke-linecap:butt;stroke-linejoin:miter" />
      <path
         id="51"
         d="m 236.7318,242.9218 4.3425,7.522"
         style="fill:none;stroke:#000000;stroke-width:0.7;stroke-linecap:butt;stroke-linejoin:miter" />
      <path
         d="m 193.08455,252.8938 q -8.05171,-0.064 -16.10372,-0.046"
         id="path434"
         style="fill:none;stroke:#000000;stroke-width:0.7;stroke-linecap:butt;stroke-linejoin:miter" />
      <path
         d="M 235.5547,163.6918 H 134.9873"
         id="path436"
         style="fill:none;stroke:#000000;stroke-width:0.7;stroke-linecap:butt;stroke-linejoin:miter" />
      <path
         d="m 248.0879,246.0578 -10e-4,-0.036"
         id="path438"
         style="fill:none;stroke:#000000;stroke-width:0.7;stroke-linecap:butt;stroke-linejoin:miter" />
      <path
         d="m 248.0867,246.0218 c -0.001,-0.036 -0.0171,-0.487 -0.0443,-1.266 -0.0272,-0.779 -0.0658,-1.886 -0.1094,-3.134"
         id="path440"
         style="fill:none;stroke:#000000;stroke-width:0.7;stroke-linecap:butt;stroke-linejoin:miter" />
      <path
         d="m 247.933,241.6218 q -1.1588,-33.184 -2.3843,-68.279"
         id="path442"
         style="fill:none;stroke:#000000;stroke-width:0.7;stroke-linecap:butt;stroke-linejoin:miter" />
      <path
         d="m 122.6172,241.3878 c -0.0432,1.237 -0.082,2.347 -0.1093,3.128 -0.0273,0.782 -0.0431,1.235 -0.0445,1.274"
         id="path444"
         style="fill:none;stroke:#000000;stroke-width:0.7;stroke-linecap:butt;stroke-linejoin:miter" />
      <path
         d="m 122.4634,245.7898 -10e-4,0.036"
         id="path446"
         style="fill:none;stroke:#000000;stroke-width:0.7;stroke-linecap:butt;stroke-linejoin:miter" />
      <path
         d="m 124.9933,173.3434 q -1.221,34.9664 -2.3761,68.0444"
         id="path448"
         style="fill:none;stroke:#000000;stroke-width:0.7;stroke-linecap:butt;stroke-linejoin:miter" />
      <path
         d="m 245.5487,173.3428 c -0.0133,-0.3532 -0.0456,-0.8475 -0.1618,-1.4757 -0.0574,-0.3162 -0.1404,-0.6605 -0.2491,-1.0328 -0.054,-0.1838 -0.1182,-0.3772 -0.1925,-0.5802 -0.0753,-0.2043 -0.1637,-0.4222 -0.2491,-0.6162 -0.0854,-0.1939 -0.1679,-0.3639 -0.2545,-0.531 -0.087,-0.168 -0.1767,-0.3305 -0.269,-0.4877 -0.1845,-0.3115 -0.3712,-0.5947 -0.5601,-0.8495 -0.1893,-0.2558 -0.3753,-0.4867 -0.5582,-0.6927 -0.0897,-0.1018 -0.1792,-0.1992 -0.2684,-0.2924 -0.0461,-0.048 -0.0894,-0.0925 -0.1301,-0.1336 -0.0395,-0.0401 -0.0731,-0.0737 -0.1267,-0.1256 -0.0537,-0.0519 -0.1274,-0.1221 -0.1966,-0.1862 -0.0682,-0.063 -0.1348,-0.1228 -0.2,-0.1795 -0.1331,-0.1159 -0.2696,-0.2289 -0.4097,-0.339 -0.2785,-0.2181 -0.5622,-0.4175 -0.8512,-0.5983 -0.5786,-0.3631 -1.1785,-0.657 -1.7796,-0.8841 -1.2039,-0.4553 -2.4141,-0.647 -3.5368,-0.6465"
         id="path450"
         style="fill:none;stroke:#000000;stroke-width:0.7;stroke-linecap:butt;stroke-linejoin:miter" />
      <path
         d="m 134.9873,163.6918 c -1.1278,-6e-4 -2.3409,0.1928 -3.5454,0.6496 -0.6014,0.2277 -1.2009,0.5222 -1.7788,0.8855 -0.2886,0.1809 -0.5718,0.3804 -0.8497,0.5983 -0.1398,0.11 -0.2761,0.2229 -0.4088,0.3388 -0.0651,0.0566 -0.1316,0.1164 -0.1996,0.1793 -0.069,0.0639 -0.1424,0.1339 -0.196,0.1858 -0.0537,0.052 -0.0876,0.086 -0.1273,0.1263 -0.0408,0.0413 -0.0843,0.086 -0.1304,0.1342 -0.0896,0.0936 -0.1793,0.1914 -0.269,0.2935 -0.1823,0.2059 -0.3685,0.4373 -0.5584,0.6941 -0.1891,0.2555 -0.3756,0.5388 -0.5593,0.85 -0.0919,0.1568 -0.1814,0.3193 -0.2683,0.4873 -0.0855,0.1644 -0.1701,0.3413 -0.2536,0.5305 -0.0846,0.1923 -0.1711,0.4059 -0.2452,0.607 -0.0733,0.1999 -0.1368,0.391 -0.1905,0.5731 -0.1081,0.3684 -0.191,0.7103 -0.2488,1.0255 -0.1171,0.6267 -0.1513,1.1266 -0.1649,1.4922"
         id="path452"
         style="fill:none;stroke:#000000;stroke-width:0.7;stroke-linecap:butt;stroke-linejoin:miter" />
      <path
         d="m 101.6832,243.8948 q -0.0345,-1.269 -0.0459,-2.742"
         id="path454"
         style="fill:none;stroke:#000000;stroke-width:0.7;stroke-linecap:butt;stroke-linejoin:miter" />
      <path
         d="m 102.0304,248.1448 -0.009,-0.008"
         id="path457"
         style="fill:none;stroke:#000000;stroke-width:0.7;stroke-linecap:butt;stroke-linejoin:miter" />
      <path
         d="m 102.0215,248.1368 c -0.1407,-0.145 -0.2712,-1.751 -0.3383,-4.242"
         id="path459"
         style="fill:none;stroke:#000000;stroke-width:0.7;stroke-linecap:butt;stroke-linejoin:miter" />
      <path
         d="m 118.5731,242.3538 c -0.0674,1.958 -0.1053,3.71 -0.1077,4.946 -0.002,1.235 0.0304,1.955 0.0945,2.022"
         id="path461"
         style="fill:none;stroke:#000000;stroke-width:0.7;stroke-linecap:butt;stroke-linejoin:miter" />
      <path
         d="m 101.6373,241.1528 q 8.4533,0.679 16.9364,1.202"
         id="path463"
         style="fill:none;stroke:#000000;stroke-width:0.7;stroke-linecap:butt;stroke-linejoin:miter" />
      <path
         d="m 249.5792,173.9353 c 0.256,7.3198 0.5839,16.6086 0.9836,28.0395 0.1998,5.716 0.4176,11.964 0.6533,18.743 0.2358,6.778 0.4894,14.082 0.761,21.872"
         id="path465"
         style="fill:none;stroke:#000000;stroke-width:0.7;stroke-linecap:butt;stroke-linejoin:miter" />
      <path
         d="m 235.8408,160.6688 c 0.8874,-0.003 1.7633,0.0812 2.6279,0.2514 0.4314,0.0848 0.8613,0.1917 1.2895,0.321 0.4309,0.1306 0.8553,0.2811 1.2733,0.4517 0.8302,0.3379 1.612,0.7467 2.3453,1.2263 0.7346,0.4807 1.4246,1.0356 2.0516,1.6452 1.253,1.2158 2.2594,2.6668 2.9756,4.2801 0.3576,0.805 0.6414,1.6465 0.8387,2.4978 0.1966,0.8499 0.3087,1.7142 0.3365,2.593"
         id="path467"
         style="fill:none;stroke:#000000;stroke-width:0.7;stroke-linecap:butt;stroke-linejoin:miter" />
      <path
         d="m 134.7012,160.6688 c 33.6105,5e-4 67.5291,5e-4 101.1396,0"
         id="path469"
         style="fill:none;stroke:#000000;stroke-width:0.7;stroke-linecap:butt;stroke-linejoin:miter" />
      <path
         d="m 120.9628,173.9353 c 0.0314,-0.8847 0.1447,-1.7511 0.3397,-2.5991 0.1968,-0.852 0.4727,-1.6799 0.8278,-2.4834 0.7072,-1.6041 1.7173,-3.0603 2.978,-4.2832 0.6301,-0.613 1.3223,-1.1714 2.0566,-1.6538 0.734,-0.4818 1.511,-0.8896 2.331,-1.2233 0.8204,-0.3343 1.6847,-0.5964 2.5564,-0.7689 0.8695,-0.1715 1.7525,-0.2564 2.6489,-0.2548"
         id="path471"
         style="fill:none;stroke:#000000;stroke-width:0.7;stroke-linecap:butt;stroke-linejoin:miter" />
      <path
         d="m 118.5731,242.3538 c 0.2702,-7.751 0.5227,-15.02 0.7574,-21.768 0.2348,-6.75 0.4517,-12.973 0.6508,-18.67 0.3983,-11.3919 0.7255,-20.662 0.9815,-27.9805"
         id="path473"
         style="fill:none;stroke:#000000;stroke-width:0.7;stroke-linecap:butt;stroke-linejoin:miter" />
      <path
         d="m 94.2735,100.39179 c 0.3722,7.16309 0.8684,16.61551 1.4889,28.50911 0.3103,5.946 0.6516,12.4918 1.024,19.6374 0.3724,7.1427 0.7759,14.8795 1.2106,23.1698 0.3966,7.561 0.8982,17.0388 1.5048,28.6094 0.3034,5.7843 0.633,12.0843 0.9889,18.8993 0.3559,6.813 0.7381,14.139 1.1466,21.936"
         id="path475"
         style="fill:none;stroke:#000000;stroke-width:0.7;stroke-linecap:butt;stroke-linejoin:miter" />
      <path
         d="m 94.2735,100.39178 q 25.2529,1e-5 50.758,2e-5"
         id="path477"
         style="fill:none;stroke:#000000;stroke-width:0.7;stroke-linecap:butt;stroke-linejoin:miter" />
      <path
         d="m 225.5105,100.3918 q -40.23762,0.0286 -80.479,0"
         id="path479"
         style="fill:none;stroke:#000000;stroke-width:0.7;stroke-linecap:butt;stroke-linejoin:miter" />
      <path
         d="m 225.5105,100.3918 q 25.504,2e-5 50.758,-2e-5"
         id="path481"
         style="fill:none;stroke:#000000;stroke-width:0.7;stroke-linecap:butt;stroke-linejoin:miter" />
      <path
         d="m 268.9963,236.8678 c 0.3954,-7.407 0.7668,-14.392 1.1143,-20.92 0.3475,-6.529 0.6712,-12.6 0.9709,-18.2107 0.5993,-11.2239 1.1031,-20.5835 1.5115,-28.2262 0.4268,-7.9934 0.8235,-15.4585 1.1901,-22.3589 0.3665,-6.9031 0.7029,-13.2362 1.0091,-18.9994 0.6125,-11.5278 1.1045,-20.73764 1.4762,-27.7608"
         id="path483"
         style="fill:none;stroke:#000000;stroke-width:0.7;stroke-linecap:butt;stroke-linejoin:miter" />
      <path
         d="m 268.7556,241.4108 0.2407,-4.543"
         id="path485"
         style="fill:none;stroke:#000000;stroke-width:0.7;stroke-linecap:butt;stroke-linejoin:miter" />
      <path
         d="m 251.9777,242.5898 q 8.4085,-0.508 16.7876,-1.179"
         id="path487"
         style="fill:none;stroke:#000000;stroke-width:0.7;stroke-linecap:butt;stroke-linejoin:miter" />
      <path
         d="m 276.2671,100.39152 0.1084,-0.838277"
         id="path489"
         style="fill:none;stroke:#000000;stroke-width:0.7;stroke-linecap:butt;stroke-linejoin:miter" />
      <path
         d="m 276.3754,99.552774 c -0.0283,-4.204594 -0.346,-8.367834 -0.9532,-12.489774 -0.3033,-2.06 -0.6792,-4.1111 -1.1278,-6.1531 -0.4493,-2.0451 -0.9697,-4.0758 -1.5613,-6.0921 -1.1824,-4.0306 -2.6391,-7.9617 -4.3613,-11.7626 -0.861,-1.9013 -1.7903,-3.7752 -2.7878,-5.6215 -0.9996,-1.8494 -2.0638,-3.6655 -3.1928,-5.4482 -2.2562,-3.5629 -4.7456,-6.9511 -7.4521,-10.1395 -1.3533,-1.5951 -2.7641,-3.1442 -4.2324,-4.6473 -1.4709,-1.5053 -2.9946,-2.9606 -4.5711,-4.3657 -3.1515,-2.8087 -6.4767,-5.3858 -9.9549,-7.7127 -3.4814,-2.3292 -7.1265,-4.4173 -10.9352,-6.2642"
         id="path491"
         style="fill:none;stroke:#000000;stroke-width:0.7;stroke-linecap:butt;stroke-linejoin:miter" />
      <path
         d="m 225.2453,18.8565 c -6.2181,-3.0148 -12.6987,-5.2966 -19.4416,-6.8454 -3.3747,-0.7751 -6.7934,-1.3607 -10.2149,-1.7473 -1.71237,-0.1939 -3.43168,-0.3392 -5.15794,-0.4359 -1.72896,-0.0966 -3.45948,-0.1446 -5.19156,-0.1441 -3.45897,5e-4 -6.89935,0.1952 -10.3211,0.584 -3.4225,0.3892 -6.8285,0.9733 -10.1878,1.7451 -3.3593,0.7718 -6.6718,1.7312 -9.9135,2.8724 -3.2402,1.141 -6.4136,2.4647 -9.5202,3.9712"
         id="path493"
         style="fill:none;stroke:#000000;stroke-width:0.7;stroke-linecap:butt;stroke-linejoin:miter" />
      <path
         d="m 145.0315,100.3918 c 26.7925,0 53.6865,0 80.479,0"
         id="path495"
         style="fill:none;stroke:#000000;stroke-width:0.7;stroke-linecap:butt;stroke-linejoin:miter" />
      <path
         d="m 145.2967,18.8565 c -7.6303,3.6996 -14.5814,8.3487 -20.8691,13.9562 -1.5724,1.4022 -3.1039,2.8647 -4.5741,4.3691 -1.4693,1.5037 -2.8801,3.0517 -4.2324,4.6441 -2.7078,3.1879 -5.1887,6.559 -7.4426,10.1133 -1.1262,1.776 -2.1943,3.5957 -3.193,5.4417 -0.9982,1.8454 -1.9283,3.7189 -2.7905,5.6204 -0.8626,1.9018 -1.6587,3.8348 -2.3884,5.7991 -0.7304,1.9673 -1.3925,3.9599 -1.9863,5.9779 -1.1871,4.0341 -2.0888,8.1266 -2.6969,12.2509 -0.6091,4.12707 -0.9281,8.29887 -0.9571,12.51541"
         id="path497"
         style="fill:none;stroke:#000000;stroke-width:0.7;stroke-linecap:butt;stroke-linejoin:miter" />
      <path
         d="m 94.1663,99.544695 0.1086,0.846815"
         id="path499"
         style="fill:none;stroke:#000000;stroke-width:0.7;stroke-linecap:butt;stroke-linejoin:miter" />
      <path
         d="m 268.7556,241.4108 c -0.0155,1.972 -0.0633,3.727 -0.1313,4.965 -0.0664,1.208 -0.1521,1.925 -0.2408,2.016"
         id="path501"
         style="fill:none;stroke:#000000;stroke-width:0.7;stroke-linecap:butt;stroke-linejoin:miter" />
      <path
         d="m 268.3835,248.3918 -0.006,0.006"
         id="path503"
         style="fill:none;stroke:#000000;stroke-width:0.7;stroke-linecap:butt;stroke-linejoin:miter" />
      <path
         d="m 251.9859,249.5538 c 0.064,-0.061 0.0977,-0.779 0.0962,-2.01 -0.001,-1.232 -0.0381,-2.977 -0.105,-4.954"
         id="path505"
         style="fill:none;stroke:#000000;stroke-width:0.7;stroke-linecap:butt;stroke-linejoin:miter" />
      <path
         d="m 251.9859,249.5538 -3.8992,-3.532"
         id="path507"
         style="fill:none;stroke:#000000;stroke-width:0.7;stroke-linecap:butt;stroke-linejoin:miter" />
      <path
         d="m 249.5792,173.9353 -4.0305,-0.5925"
         id="path509"
         style="fill:none;stroke:#000000;stroke-width:0.7;stroke-linecap:butt;stroke-linejoin:miter" />
      <path
         d="m 235.8408,160.6688 -0.2861,3.023"
         id="path511"
         style="fill:none;stroke:#000000;stroke-width:0.7;stroke-linecap:butt;stroke-linejoin:miter" />
      <path
         d="m 134.7012,160.6688 0.2861,3.023"
         id="path513"
         style="fill:none;stroke:#000000;stroke-width:0.7;stroke-linecap:butt;stroke-linejoin:miter" />
      <path
         d="m 120.9628,173.9353 4.0305,-0.5925"
         id="path515"
         style="fill:none;stroke:#000000;stroke-width:0.7;stroke-linecap:butt;stroke-linejoin:miter" />
      <path
         d="m 118.56,249.3218 3.9034,-3.532"
         id="path517"
         style="fill:none;stroke:#000000;stroke-width:0.7;stroke-linecap:butt;stroke-linejoin:miter" />
      <path
         d="m 332.745,100.39181 q 0.016,0 0.016,0"
         id="path519"
         style="fill:none;stroke:#000000;stroke-width:0.7;stroke-linecap:butt;stroke-linejoin:miter" />
      <path
         d="m 332.761,100.39181 v 0"
         id="path521"
         style="fill:none;stroke:#000000;stroke-width:0.7;stroke-linecap:butt;stroke-linejoin:miter" />
      <path
         d="m 329.773,100.39181 c -1.398,0 -3.367,0 -6.064,0"
         id="path523"
         style="fill:none;stroke:#000000;stroke-width:0.7;stroke-linecap:butt;stroke-linejoin:miter" />
      <path
         d="m 329.773,100.39194 -0.001,0.008"
         id="path529"
         style="fill:none;stroke:#000000;stroke-width:0.7;stroke-linecap:butt;stroke-linejoin:miter" />
      <path
         d="m 329.464,106.28854 c -0.234,4.65596 -0.438,9.22866 -0.613,13.71826 -0.088,2.2487 -0.167,4.4675 -0.238,6.6565 -0.071,2.1857 -0.134,4.3316 -0.187,6.4013 -0.053,2.068 -0.097,4.065 -0.133,5.9912 -0.035,1.9305 -0.062,3.7878 -0.081,5.5722 -0.019,1.7818 -0.029,3.483 -0.032,5.0706 -0.002,1.5849 0.002,3.0647 0.013,4.4394 0.022,2.758 0.069,5.1159 0.129,7.0387 0.061,1.9256 0.134,3.4294 0.21,4.6116 0.153,2.3659 0.313,3.4385 0.432,3.734"
         id="path531"
         style="fill:none;stroke:#000000;stroke-width:0.7;stroke-linecap:butt;stroke-linejoin:miter" />
      <path
         d="m 328.964,169.5223 q 0.154,0.3793 0.141,0.6379"
         id="path533"
         style="fill:none;stroke:#000000;stroke-width:0.7;stroke-linecap:butt;stroke-linejoin:miter" />
      <path
         d="m 328.964,31.2615 c -0.063,0.1563 -0.136,0.5287 -0.214,1.1817 -0.078,0.6529 -0.161,1.5865 -0.241,2.9123 -0.08,1.3277 -0.155,3.0388 -0.214,5.1887 -0.029,1.0729 -0.054,2.2667 -0.074,3.5816 -0.019,1.3179 -0.032,2.766 -0.038,4.3123 -0.012,3.0926 0.007,6.5782 0.064,10.508 0.029,1.9649 0.068,4.0409 0.116,6.1765 0.048,2.1364 0.107,4.3303 0.174,6.5817 0.068,2.2514 0.145,4.5559 0.232,6.9136 0.087,2.3569 0.184,4.7647 0.288,7.1794 0.209,4.8294 0.448,9.68657 0.716,14.59423"
         id="path545"
         style="fill:none;stroke:#000000;stroke-width:0.7;stroke-linecap:butt;stroke-linejoin:miter" />
      <path
         d="m 328.964,31.2615 q 0.154,-0.3787 0.142,-0.6371"
         id="path547"
         style="fill:none;stroke:#000000;stroke-width:0.7;stroke-linecap:butt;stroke-linejoin:miter" />
      <path
         d="m 328.964,169.5223 c -1.861,1.9355 -3.757,3.8968 -5.703,5.9043 -1.946,2.0075 -3.942,4.0611 -6.021,6.2033"
         id="path555"
         style="fill:none;stroke:#000000;stroke-width:0.7;stroke-linecap:butt;stroke-linejoin:miter" />
      <path
         d="m 317.24,181.6299 q 0.324,0.6609 0.369,1.097 0.043,0.3814 -0.138,0.5867"
         id="path557"
         style="fill:none;stroke:#000000;stroke-width:0.7;stroke-linecap:butt;stroke-linejoin:miter" />
      <path
         d="m 317.24,181.6299 q -0.177,-0.3541 -1.439,-0.5345"
         id="path569"
         style="fill:none;stroke:#000000;stroke-width:0.7;stroke-linecap:butt;stroke-linejoin:miter" />
      <path
         d="m 315.801,181.0954 c -10.661,1.7274 -21.437,3.1343 -32.435,4.2437"
         id="path571"
         style="fill:none;stroke:#000000;stroke-width:0.7;stroke-linecap:butt;stroke-linejoin:miter" />
      <path
         d="m 285.386,127.0967 -1.3318,24.5615"
         id="path573"
         style="fill:none;stroke:#000000;stroke-width:0.7;stroke-linecap:butt;stroke-linejoin:miter" />
      <path
         d="m 284.0542,151.6582 q -0.1861,3.4287 -0.3712,6.889"
         id="path575"
         style="fill:none;stroke:#000000;stroke-width:0.7;stroke-linecap:butt;stroke-linejoin:miter" />
      <path
         d="m 283.683,158.5472 c -0.1068,1.9973 -0.2138,3.9607 -0.3209,5.89 -0.1072,1.9311 -0.2149,3.8336 -0.3208,5.6632 -0.1059,1.8297 -0.2099,3.5864 -0.3105,5.2389 -0.1006,1.6542 -0.1975,3.1991 -0.2907,4.6348"
         id="path577"
         style="fill:none;stroke:#000000;stroke-width:0.7;stroke-linecap:butt;stroke-linejoin:miter" />
      <path
         d="m 282.4401,179.9741 q -1.26,19.4033 -2.619,38.8067"
         id="path579"
         style="fill:none;stroke:#000000;stroke-width:0.7;stroke-linecap:butt;stroke-linejoin:miter" />
      <path
         d="m 279.8211,218.7808 c -0.23,3.288 -0.4323,5.821 -0.6071,7.597 -0.0875,0.888 -0.1661,1.564 -0.2339,2.006 -0.068,0.446 -0.1263,0.668 -0.1748,0.667"
         id="path581"
         style="fill:none;stroke:#000000;stroke-width:0.7;stroke-linecap:butt;stroke-linejoin:miter" />
      <path
         d="m 277.4485,229.0508 q 0.7785,0 1.3568,0"
         id="path583"
         style="fill:none;stroke:#000000;stroke-width:0.7;stroke-linecap:butt;stroke-linejoin:miter" />
      <path
         d="m 277.4485,229.0508 q -0.0104,0 -0.0203,-0.007"
         id="path585"
         style="fill:none;stroke:#000000;stroke-width:0.7;stroke-linecap:butt;stroke-linejoin:miter" />
      <path
         d="m 277.4282,229.0438 c -0.1193,-0.089 -0.1961,-0.976 -0.2294,-2.659 -0.0176,-0.888 -0.0226,-1.974 -0.0144,-3.239 0.008,-1.267 0.0294,-2.722 0.064,-4.365"
         id="path587"
         style="fill:none;stroke:#000000;stroke-width:0.7;stroke-linecap:butt;stroke-linejoin:miter" />
      <path
         d="m 277.2484,218.7808 q 0.4427,-21.0568 0.7689,-42.1134"
         id="path589"
         style="fill:none;stroke:#000000;stroke-width:0.7;stroke-linecap:butt;stroke-linejoin:miter" />
      <path
         d="m 278.0172,176.6681 c 0.0408,-2.6366 0.045,-4.8171 0.0146,-6.5917 -0.0153,-0.8894 -0.0388,-1.6711 -0.0707,-2.3451 -0.0319,-0.6703 -0.0715,-1.2319 -0.1189,-1.6847"
         id="path591"
         style="fill:none;stroke:#000000;stroke-width:0.7;stroke-linecap:butt;stroke-linejoin:miter" />
      <path
         d="m 277.8422,166.0466 c -0.0312,-0.2964 -0.0623,-0.5928 -0.0934,-0.8892 -0.0316,-0.2984 -0.0631,-0.5941 -0.095,-0.8907 -0.007,-0.0687 -0.0177,-0.1635 -0.0264,-0.2497 -0.009,-0.086 -0.0166,-0.1672 -0.0236,-0.2438 -0.007,-0.0799 -0.0127,-0.144 -0.0189,-0.2248 -0.007,-0.0862 -0.0141,-0.1893 -0.0204,-0.2845 -0.0262,-0.3945 -0.0484,-0.8512 -0.0667,-1.3701"
         id="path593"
         style="fill:none;stroke:#000000;stroke-width:0.7;stroke-linecap:butt;stroke-linejoin:miter" />
      <path
         d="m 277.4978,161.8938 -4.4033,82.598"
         id="path595"
         style="fill:none;stroke:#000000;stroke-width:0.7;stroke-linecap:butt;stroke-linejoin:miter" />
      <path
         d="m 273.0945,244.4928 c 1.512,0.871 2.8007,1.405 3.8264,1.604 0.2566,0.049 0.4963,0.078 0.7194,0.086 0.1124,0.003 0.2187,0.002 0.3187,-0.005 0.1001,-0.006 0.1958,-0.017 0.2871,-0.034 0.377,-0.067 0.6791,-0.219 0.9064,-0.455"
         id="path597"
         style="fill:none;stroke:#000000;stroke-width:0.7;stroke-linecap:butt;stroke-linejoin:miter" />
      <path
         d="m 283.384,173.3605 c 0.0617,-1.178 0.128,-2.4488 0.1987,-3.8126 0.0752,-1.4468 0.1554,-2.9961 0.2421,-4.6727"
         id="path601"
         style="fill:none;stroke:#000000;stroke-width:0.7;stroke-linecap:butt;stroke-linejoin:miter" />
      <path
         d="m 283.8248,164.8752 c 0.501,-9.6771 1.0138,-19.7187 1.5662,-30.4698 0.137,-2.6853 0.278,-5.4232 0.422,-8.2138 0.144,-2.7934 0.292,-5.6478 0.44,-8.5106 0.297,-5.7234 0.598,-11.48653 0.904,-17.2892"
         id="path603"
         style="fill:none;stroke:#000000;stroke-width:0.7;stroke-linecap:butt;stroke-linejoin:miter" />
      <path
         d="m 287.157,100.3918 q -0.055,0 -0.169,0"
         id="path605"
         style="fill:none;stroke:#000000;stroke-width:0.7;stroke-linecap:butt;stroke-linejoin:miter" />
      <path
         d="m 286.988,100.3918 q -0.266,4.28312 -0.54,8.55945"
         id="path607"
         style="fill:none;stroke:#000000;stroke-width:0.7;stroke-linecap:butt;stroke-linejoin:miter" />
      <path
         d="m 286.448,108.95125 c -0.072,1.13017 -0.149,2.36105 -0.231,3.69265 -0.082,1.3348 -0.168,2.7798 -0.259,4.3124 -0.09,1.5344 -0.183,3.151 -0.279,4.8498 -0.096,1.6971 -0.195,3.4711 -0.293,5.2906"
         id="path609"
         style="fill:none;stroke:#000000;stroke-width:0.7;stroke-linecap:butt;stroke-linejoin:miter" />
      <path
         d="m 287.157,100.3918 c -0.656,-6.20887 -1.304,-12.3685 -1.9437,-18.4788 -0.3199,-3.0543 -0.6381,-6.0983 -0.9546,-9.132 -0.3166,-3.0345 -0.6319,-6.0608 -0.9417,-9.038"
         id="path611"
         style="fill:none;stroke:#000000;stroke-width:0.7;stroke-linecap:butt;stroke-linejoin:miter" />
      <path
         d="m 283.317,63.743 c 0.2191,2.1056 0.4252,4.0949 0.6225,6.0076 0.1975,1.9146 0.3855,3.7471 0.5642,5.4975 0.357,3.4989 0.6733,6.6399 0.9583,9.5131"
         id="path613"
         style="fill:none;stroke:#000000;stroke-width:0.7;stroke-linecap:butt;stroke-linejoin:miter" />
      <path
         d="m 285.462,84.7612 q 0.774,7.81847 1.526,15.6306"
         id="path615"
         style="fill:none;stroke:#000000;stroke-width:0.7;stroke-linecap:butt;stroke-linejoin:miter" />
      <path
         d="m 87.1821,63.6843 c -0.6198,5.9582 -1.2498,11.9949 -1.89,18.11 -0.3201,3.0567 -0.6431,6.1379 -0.9701,9.24351 -0.327,3.10697 -0.657,6.24244 -0.986,9.35399"
         id="path617"
         style="fill:none;stroke:#000000;stroke-width:0.7;stroke-linecap:butt;stroke-linejoin:miter" />
      <path
         d="m 87.1821,63.6843 q 4.2849,2.4363 8.5966,4.8308"
         id="path619"
         style="fill:none;stroke:#000000;stroke-width:0.7;stroke-linecap:butt;stroke-linejoin:miter" />
      <path
         d="m 274.773,68.5424 q 4.2853,-2.379 8.544,-4.7994"
         id="path621"
         style="fill:none;stroke:#000000;stroke-width:0.7;stroke-linecap:butt;stroke-linejoin:miter" />
      <path
         d="m 283.8248,164.8752 c 4.4162,-0.9841 8.7502,-1.9532 13.0252,-2.9196"
         id="path623"
         style="fill:none;stroke:#000000;stroke-width:0.7;stroke-linecap:butt;stroke-linejoin:miter" />
      <path
         d="m 296.85,161.9556 c 6.177,-9.6891 11.361,-19.8688 15.747,-30.2608 2.193,-5.196 4.187,-10.4451 6.022,-15.6802 1.835,-5.2351 3.511,-10.4562 5.09,-15.62309"
         id="path625"
         style="fill:none;stroke:#000000;stroke-width:0.7;stroke-linecap:butt;stroke-linejoin:miter" />
      <path
         d="m 323.709,100.39151 c -2.187,-7.15628 -4.562,-14.41741 -7.283,-21.67351 -1.36,-3.6281 -2.807,-7.255 -4.348,-10.8517 -1.54,-3.5987 -3.179,-7.1618 -4.918,-10.6894 -1.738,-3.5261 -3.587,-7.0103 -5.547,-10.4526 -1.963,-3.442 -4.044,-6.8412 -6.232,-10.1643 -4.376,-6.6463 -9.182,-12.9887 -14.4429,-19.0118"
         id="path627"
         style="fill:none;stroke:#000000;stroke-width:0.7;stroke-linecap:butt;stroke-linejoin:miter" />
      <path
         d="m 230.2521,14.0491 c 4.673,0.2394 9.1704,0.4794 13.5512,0.7313 4.3808,0.2519 8.6449,0.5156 12.8316,0.7992 8.3734,0.5671 16.437,1.2133 24.3032,1.9686"
         id="path629"
         style="fill:none;stroke:#000000;stroke-width:0.7;stroke-linecap:butt;stroke-linejoin:miter" />
      <path
         d="m 230.2521,14.0491 q -2.9589,-0.1515 -5.9676,-0.2768"
         id="path631"
         style="fill:none;stroke:#000000;stroke-width:0.7;stroke-linecap:butt;stroke-linejoin:miter" />
      <path
         d="m 145.7665,13.9951 q -2.0921,0.0991 -4.1574,0.2105"
         id="path633"
         style="fill:none;stroke:#000000;stroke-width:0.7;stroke-linecap:butt;stroke-linejoin:miter" />
      <path
         d="m 89.6186,17.8112 c 8.0353,-0.7602 16.2995,-1.4155 24.8896,-1.9981 4.2951,-0.2913 8.6717,-0.5645 13.171,-0.8286 4.4992,-0.2642 9.1211,-0.5193 13.9299,-0.7789"
         id="path635"
         style="fill:none;stroke:#000000;stroke-width:0.7;stroke-linecap:butt;stroke-linejoin:miter" />
      <path
         d="M 89.6186,17.8112 C 84.379,23.8184 79.59,30.1459 75.231,36.7734 c -2.179,3.3138 -4.251,6.7025 -6.206,10.1333 -1.952,3.431 -3.793,6.9033 -5.524,10.4168 -1.731,3.5149 -3.364,7.0655 -4.897,10.6517 -1.536,3.5846 -2.978,7.1999 -4.334,10.8159 -2.712,7.2318 -5.08,14.46592 -7.264,21.60043"
         id="path637"
         style="fill:none;stroke:#000000;stroke-width:0.7;stroke-linecap:butt;stroke-linejoin:miter" />
      <path
         d="m 47.006,100.39153 c 1.573,5.1372 3.241,10.33057 5.067,15.53887 1.826,5.2082 3.809,10.4313 5.988,15.6 4.358,10.3374 9.501,20.4571 15.636,30.108"
         id="path639"
         style="fill:none;stroke:#000000;stroke-width:0.7;stroke-linecap:butt;stroke-linejoin:miter" />
      <path
         d="m 73.697,161.6384 c 4.252,0.9561 8.562,1.9177 12.9537,2.897"
         id="path641"
         style="fill:none;stroke:#000000;stroke-width:0.7;stroke-linecap:butt;stroke-linejoin:miter" />
      <path
         d="m 83.336,100.3918 c 0.303,5.75654 0.6,11.4322 0.89,17.027 0.145,2.7958 0.289,5.5762 0.432,8.341 0.142,2.7664 0.284,5.522 0.423,8.2316 0.2786,5.4216 0.5462,10.6486 0.8064,15.7195 0.2603,5.0732 0.5137,10.0014 0.7633,14.8245"
         id="path643"
         style="fill:none;stroke:#000000;stroke-width:0.7;stroke-linecap:butt;stroke-linejoin:miter" />
      <path
         d="m 53.334,19.2929 c 0.164,0.3268 1.01,0.5479 2.545,0.6621 0.77,0.0566 1.717,0.0857 2.862,0.0837 1.148,-0.002 2.485,-0.0349 4.009,-0.0988 3.045,-0.128 6.789,-0.378 11.287,-0.74 2.25,-0.1811 4.693,-0.3907 7.297,-0.6236 2.606,-0.2336 5.3672,-0.4887 8.2846,-0.7651"
         id="path647"
         style="fill:none;stroke:#000000;stroke-width:0.7;stroke-linecap:butt;stroke-linejoin:miter" />
      <path
         d="m 53.334,19.2928 q -0.382,-0.7884 -0.373,-1.2556 0.001,-0.2653 0.142,-0.4235"
         id="path649"
         style="fill:none;stroke:#000000;stroke-width:0.7;stroke-linecap:butt;stroke-linejoin:miter" />
      <path
         d="m 317.471,17.4701 q 0.144,0.1626 0.146,0.436 0.006,0.4665 -0.377,1.2476"
         id="path671"
         style="fill:none;stroke:#000000;stroke-width:0.7;stroke-linecap:butt;stroke-linejoin:miter" />
      <path
         d="m 280.9381,17.5482 c 5.8099,0.558 10.9499,1.0352 15.4429,1.4108 2.249,0.1885 4.329,0.3497 6.242,0.4835 1.914,0.1335 3.639,0.2366 5.156,0.3071 3.04,0.1418 5.313,0.1568 6.879,0.0526 1.562,-0.1062 2.423,-0.3224 2.582,-0.6485"
         id="path673"
         style="fill:none;stroke:#000000;stroke-width:0.7;stroke-linecap:butt;stroke-linejoin:miter" />
      <path
         d="m 88.0531,179.9741 c -0.0933,-1.4363 -0.1898,-2.9755 -0.2897,-4.6175 -0.1,-1.6436 -0.2038,-3.3948 -0.3093,-5.2177 -0.1056,-1.8228 -0.2129,-3.7173 -0.3204,-5.6545 -0.1076,-1.9371 -0.2155,-3.9171 -0.3237,-5.94"
         id="path675"
         style="fill:none;stroke:#000000;stroke-width:0.7;stroke-linecap:butt;stroke-linejoin:miter" />
      <path
         d="m 86.81,158.5444 q -0.1851,-3.4594 -0.3711,-6.8872"
         id="path677"
         style="fill:none;stroke:#000000;stroke-width:0.7;stroke-linecap:butt;stroke-linejoin:miter" />
      <path
         d="M 86.4389,151.6572 85.107,127.0967"
         id="path679"
         style="fill:none;stroke:#000000;stroke-width:0.7;stroke-linecap:butt;stroke-linejoin:miter" />
      <path
         d="m 85.107,127.0967 c -0.098,-1.8203 -0.195,-3.5711 -0.29,-5.2523 -0.095,-1.6778 -0.189,-3.3093 -0.28,-4.8555 -0.091,-1.5405 -0.177,-2.9801 -0.26,-4.3188 -0.082,-1.3425 -0.159,-2.58214 -0.232,-3.71886"
         id="path681"
         style="fill:none;stroke:#000000;stroke-width:0.7;stroke-linecap:butt;stroke-linejoin:miter" />
      <path
         d="m 84.045,108.95124 q -0.274,-4.27632 -0.54,-8.55944"
         id="path683"
         style="fill:none;stroke:#000000;stroke-width:0.7;stroke-linecap:butt;stroke-linejoin:miter" />
      <path
         d="m 83.505,100.3918 q -0.114,0 -0.169,0"
         id="path685"
         style="fill:none;stroke:#000000;stroke-width:0.7;stroke-linecap:butt;stroke-linejoin:miter" />
      <path
         d="m 86.6507,164.5354 c 0.0873,1.6864 0.1678,3.2427 0.243,4.6924 0.0736,1.4179 0.1423,2.7362 0.2061,3.955"
         id="path687"
         style="fill:none;stroke:#000000;stroke-width:0.7;stroke-linecap:butt;stroke-linejoin:miter" />
      <path
         d="m 91.3278,245.4438 c 0.2216,0.23 0.5145,0.38 0.8786,0.45 0.0902,0.018 0.1847,0.03 0.2836,0.037 0.0989,0.008 0.2038,0.01 0.3148,0.008 0.2203,-0.006 0.4572,-0.032 0.7108,-0.079 1.0139,-0.188 2.2895,-0.71 3.7882,-1.566"
         id="path691"
         style="fill:none;stroke:#000000;stroke-width:0.7;stroke-linecap:butt;stroke-linejoin:miter" />
      <path
         d="m 92.9913,162.0018 c -0.0185,0.5035 -0.0409,0.9469 -0.0671,1.3302 -0.0068,0.0981 -0.0131,0.1848 -0.0204,0.2762 -0.002,0.0247 -0.0035,0.0436 -0.0046,0.0566 -0.0014,0.0155 -0.0027,0.031 -0.004,0.0466 -0.0028,0.0322 -0.0059,0.066 -0.0092,0.1015 -0.0067,0.0715 -0.0144,0.1504 -0.0232,0.2365 -0.0044,0.0428 -0.0091,0.0878 -0.0141,0.1351 -0.0053,0.0501 -0.0097,0.0914 -0.0132,0.1238 -0.0152,0.1415 -0.0316,0.2961 -0.0468,0.4391 -0.0155,0.1467 -0.031,0.2935 -0.0466,0.4403 -0.0306,0.2926 -0.0611,0.5853 -0.0917,0.8779"
         id="path693"
         style="fill:none;stroke:#000000;stroke-width:0.7;stroke-linecap:butt;stroke-linejoin:miter" />
      <path
         d="m 92.6504,166.0656 c -0.0944,0.9097 -0.158,2.2182 -0.1883,3.9889 -0.0305,1.7737 -0.0269,3.995 0.014,6.6244"
         id="path695"
         style="fill:none;stroke:#000000;stroke-width:0.7;stroke-linecap:butt;stroke-linejoin:miter" />
      <path
         d="m 92.4761,176.6781 q 0.3261,21.0513 0.7687,42.1027"
         id="path697"
         style="fill:none;stroke:#000000;stroke-width:0.7;stroke-linecap:butt;stroke-linejoin:miter" />
      <path
         d="m 93.2448,218.7808 c 0.0691,3.289 0.0849,5.823 0.0497,7.599 -0.0176,0.887 -0.0475,1.563 -0.0891,2.005 -0.0372,0.398 -0.084,0.617 -0.1403,0.659"
         id="path699"
         style="fill:none;stroke:#000000;stroke-width:0.7;stroke-linecap:butt;stroke-linejoin:miter" />
      <path
         d="m 93.0651,229.0438 q -0.01,0.007 -0.0204,0.007"
         id="path701"
         style="fill:none;stroke:#000000;stroke-width:0.7;stroke-linecap:butt;stroke-linejoin:miter" />
      <path
         d="m 91.6878,229.0508 q 0.5783,0 1.3569,0"
         id="path703"
         style="fill:none;stroke:#000000;stroke-width:0.7;stroke-linecap:butt;stroke-linejoin:miter" />
      <path
         d="m 91.6878,229.0508 c -0.0486,0 -0.1069,-0.223 -0.1748,-0.668 -0.0681,-0.445 -0.1458,-1.111 -0.2334,-2 -0.0875,-0.888 -0.1825,-1.974 -0.2834,-3.238 -0.1011,-1.267 -0.2091,-2.721 -0.3242,-4.364"
         id="path705"
         style="fill:none;stroke:#000000;stroke-width:0.7;stroke-linecap:butt;stroke-linejoin:miter" />
      <path
         d="M 90.672,218.7808 Q 89.3131,199.3774 88.0531,179.9741"
         id="path707"
         style="fill:none;stroke:#000000;stroke-width:0.7;stroke-linecap:butt;stroke-linejoin:miter" />
      <path
         d="m 53.103,183.1701 q -0.179,-0.2026 -0.134,-0.5806 0.044,-0.4362 0.365,-1.0987"
         id="path711"
         style="fill:none;stroke:#000000;stroke-width:0.7;stroke-linecap:butt;stroke-linejoin:miter" />
      <path
         d="M 87.7268,185.1453 C 76.548,184.0474 65.6,182.6564 54.77,180.9469"
         id="path713"
         style="fill:none;stroke:#000000;stroke-width:0.7;stroke-linecap:butt;stroke-linejoin:miter" />
      <path
         d="m 54.77,180.9469 q -1.263,0.1893 -1.436,0.5438"
         id="path715"
         style="fill:none;stroke:#000000;stroke-width:0.7;stroke-linecap:butt;stroke-linejoin:miter" />
      <path
         d="m 83.505,100.3918 q 0.756,-7.84652 1.533,-15.6994"
         id="path723"
         style="fill:none;stroke:#000000;stroke-width:0.7;stroke-linecap:butt;stroke-linejoin:miter" />
      <path
         d="m 85.038,84.6924 c 0.2852,-2.8757 0.5986,-5.9869 0.9528,-9.4584 0.177,-1.7341 0.3647,-3.5633 0.5632,-5.4877 0.1989,-1.9291 0.4083,-3.9498 0.6281,-6.062"
         id="path725"
         style="fill:none;stroke:#000000;stroke-width:0.7;stroke-linecap:butt;stroke-linejoin:miter" />
      <path
         d="m 37.781,100.3918 v 0"
         id="path727"
         style="fill:none;stroke:#000000;stroke-width:0.7;stroke-linecap:butt;stroke-linejoin:miter" />
      <path
         d="m 37.781,100.3918 q 0,0 0.016,0"
         id="path729"
         style="fill:none;stroke:#000000;stroke-width:0.7;stroke-linecap:butt;stroke-linejoin:miter" />
      <path
         d="m 41.566,31.3986 q -0.15,-0.3733 -0.137,-0.6311"
         id="path731"
         style="fill:none;stroke:#000000;stroke-width:0.7;stroke-linecap:butt;stroke-linejoin:miter" />
      <path
         d="m 41.566,31.3986 c 0.063,0.1559 0.135,0.5271 0.213,1.1767 0.077,0.6496 0.16,1.5776 0.239,2.8953 0.08,1.3193 0.156,3.0203 0.215,5.158 0.03,1.0664 0.055,2.2537 0.075,3.5616 0.02,1.3112 0.034,2.7527 0.04,4.293 0.013,3.0805 -0.004,6.556 -0.061,10.4772 -0.028,1.9606 -0.066,4.0327 -0.114,6.1664 -0.048,2.1349 -0.106,4.328 -0.173,6.5793 -0.067,2.2505 -0.144,4.5546 -0.231,6.9123 -0.086,2.3573 -0.183,4.7668 -0.287,7.1825 -0.208,4.83136 -0.447,9.68747 -0.714,14.59078"
         id="path735"
         style="fill:none;stroke:#000000;stroke-width:0.7;stroke-linecap:butt;stroke-linejoin:miter" />
      <path
         d="m 41.566,169.385 q -0.15,0.3738 -0.136,0.6317"
         id="path750"
         style="fill:none;stroke:#000000;stroke-width:0.7;stroke-linecap:butt;stroke-linejoin:miter" />
      <path
         d="m 41.566,169.385 c 0.06,-0.1483 0.128,-0.4906 0.201,-1.0845 0.074,-0.5942 0.152,-1.4387 0.229,-2.6225 0.076,-1.1857 0.15,-2.705 0.211,-4.6105 0.03,-0.9505 0.057,-2.0085 0.079,-3.1741 0.023,-1.1686 0.04,-2.454 0.052,-3.8353 0.022,-2.7625 0.02,-5.9088 -0.017,-9.4713 -0.018,-1.7813 -0.045,-3.6666 -0.08,-5.6133 -0.036,-1.9467 -0.08,-3.9546 -0.133,-6.0237 -0.053,-2.0694 -0.115,-4.1988 -0.186,-6.3881 -0.072,-2.189 -0.152,-4.4368 -0.24,-6.7008 -0.176,-4.5256 -0.382,-9.1228 -0.617,-13.79175"
         id="path754"
         style="fill:none;stroke:#000000;stroke-width:0.7;stroke-linecap:butt;stroke-linejoin:miter" />
      <path
         d="m 53.334,181.4908 c -2.084,-2.1388 -4.087,-4.191 -6.041,-6.1984 -1.953,-2.0074 -3.857,-3.9699 -5.727,-5.9074"
         id="path756"
         style="fill:none;stroke:#000000;stroke-width:0.7;stroke-linecap:butt;stroke-linejoin:miter" />
      <path
         d="m 329.773,100.39153 q -2.941,-1e-5 -6.064,-2e-5"
         id="path762"
         style="fill:none;stroke:#000000;stroke-width:0.7;stroke-linecap:butt;stroke-linejoin:miter" />
      <path
         d="m 54.77,180.9469 c 0.894,-0.134 1.807,-0.7092 2.883,-1.6774 1.076,-0.9681 2.316,-2.3291 3.817,-4.04 1.503,-1.7138 3.257,-3.7639 5.279,-6.0488 1.012,-1.1456 2.095,-2.3481 3.249,-3.6075 0.576,-0.6281 1.173,-1.2711 1.791,-1.9291 0.619,-0.6586 1.261,-1.3343 1.908,-2.0057"
         id="path764"
         style="fill:none;stroke:#000000;stroke-width:0.7;stroke-linecap:butt;stroke-linejoin:miter" />
      <path
         d="m 40.768,100.39157 q 3.023,-2e-5 6.238,-4e-5"
         id="path766"
         style="fill:none;stroke:#000000;stroke-width:0.7;stroke-linecap:butt;stroke-linejoin:miter" />
      <path
         d="m 41.065,106.06915 q -0.142,-2.82046 -0.297,-5.67748"
         id="path768"
         style="fill:none;stroke:#000000;stroke-width:0.7;stroke-linecap:butt;stroke-linejoin:miter" />
      <path
         d="m 329.772,100.40024 q -0.16,2.93952 -0.308,5.8883"
         id="path770"
         style="fill:none;stroke:#000000;stroke-width:0.7;stroke-linecap:butt;stroke-linejoin:miter" />
      <path
         d="m 315.801,181.0954 c -0.897,-0.1288 -1.815,-0.6965 -2.897,-1.6542 -1.082,-0.9577 -2.327,-2.3054 -3.833,-4.0007 -1.507,-1.6982 -3.263,-3.7307 -5.285,-5.9976 -1.011,-1.1367 -2.093,-2.33 -3.245,-3.5801 -0.575,-0.6235 -1.171,-1.2619 -1.787,-1.9152 -0.618,-0.6541 -1.258,-1.325 -1.904,-1.992"
         id="path772"
         style="fill:none;stroke:#000000;stroke-width:0.7;stroke-linecap:butt;stroke-linejoin:miter" />
      <path
         d="m 272.8056,240.2768 q 0.1184,-2.252 0.239,-4.51"
         id="path774"
         style="fill:none;stroke:#000000;stroke-width:0.7;stroke-linecap:butt;stroke-linejoin:miter" />
      <path
         d="m 280.271,100.39982 q -3.597,67.38058 -7.2264,135.36698"
         id="path776"
         style="fill:none;stroke:#000000;stroke-width:0.7;stroke-linecap:butt;stroke-linejoin:miter" />
      <path
         d="m 280.271,100.45088 q 0,-0.0512 0,-0.0511"
         id="path778"
         style="fill:none;stroke:#000000;stroke-width:0.7;stroke-linecap:butt;stroke-linejoin:miter" />
      <path
         d="m 280.271,100.45088 -0.1048,1.96976"
         id="path780"
         style="fill:none;stroke:#000000;stroke-width:0.7;stroke-linecap:butt;stroke-linejoin:miter" />
      <path
         d="M 280.1662,102.42064 278.6319,131.336"
         id="path782"
         style="fill:none;stroke:#000000;stroke-width:0.7;stroke-linecap:butt;stroke-linejoin:miter" />
      <path
         d="m 278.6319,131.336 c -0.1719,3.2506 -0.336,6.3894 -0.4893,9.4537 -0.0766,1.5322 -0.1506,3.0457 -0.2188,4.498 -0.0684,1.4514 -0.1305,2.8442 -0.1866,4.1783 -0.1118,2.6684 -0.197,5.1206 -0.2407,7.2159 -0.0222,1.0456 -0.0334,2.0035 -0.0338,2.8736 -10e-5,0.8714 0.0112,1.6586 0.0351,2.3383"
         id="path784"
         style="fill:none;stroke:#000000;stroke-width:0.7;stroke-linecap:butt;stroke-linejoin:miter" />
      <path
         d="m 273.0945,244.4928 q -0.3714,-0.215 -0.4556,-0.486"
         id="path786"
         style="fill:none;stroke:#000000;stroke-width:0.7;stroke-linecap:butt;stroke-linejoin:miter" />
      <path
         d="m 272.6389,244.0068 c -0.0102,-0.028 0.002,-0.411 0.0324,-1.072 0.0303,-0.661 0.0787,-1.6 0.1343,-2.658"
         id="path788"
         style="fill:none;stroke:#000000;stroke-width:0.7;stroke-linecap:butt;stroke-linejoin:miter" />
      <path
         d="m 90.271,100.39179 0.0031,-0.768674"
         id="path790"
         style="fill:none;stroke:#000000;stroke-width:0.7;stroke-linecap:butt;stroke-linejoin:miter" />
      <path
         d="m 90.2741,99.62306 c 0.0351,-4.35003 0.3698,-8.7177 1.0089,-13.06056 0.3195,-2.1723 0.715,-4.3358 1.1865,-6.4903 0.2355,-1.0761 0.4903,-2.1497 0.7643,-3.221 0.1373,-0.5365 0.2789,-1.0707 0.4249,-1.6027 0.0727,-0.2649 0.147,-0.5313 0.2231,-0.7992 0.0763,-0.2688 0.1552,-0.5417 0.2302,-0.7977 0.075,-0.2559 0.1463,-0.4949 0.22,-0.7387 0.0739,-0.2446 0.1495,-0.4913 0.2269,-0.7402 0.154,-0.4952 0.3124,-0.99 0.4751,-1.4843 0.326,-0.9905 0.6717,-1.9847 1.0371,-2.9828 0.73,-1.9957 1.5417,-3.9968 2.4351,-6.0033 0.8937,-2.0072 1.8741,-4.0126 2.9411,-6.016 0.5338,-1.0013 1.09,-2.0004 1.6687,-2.9973 0.2886,-0.4971 0.5836,-0.9948 0.8853,-1.493 0.1516,-0.2505 0.3034,-0.4987 0.4555,-0.7448 0.0748,-0.1212 0.1518,-0.2452 0.231,-0.3719 0.0799,-0.128 0.1646,-0.2627 0.2331,-0.3715 0.0686,-0.1088 0.1211,-0.1915 0.1782,-0.2814 0.0581,-0.0912 0.1182,-0.1855 0.1806,-0.2829 0.1223,-0.191 0.245,-0.3811 0.3681,-0.5701 0.2477,-0.3806 0.5027,-0.7663 0.765,-1.1569 0.5228,-0.779 1.0727,-1.5713 1.6498,-2.3768 1.1548,-1.6109 2.4217,-3.2717 3.8149,-4.967 2.7858,-3.389 6.0777,-6.9187 9.9772,-10.4154 0.0182,-0.0163 0.0154,-0.0138 0.0182,-0.0164 0.004,-0.0035 0.0104,-0.0092 0.0192,-0.0171 0.0147,-0.0132 0.0284,-0.0255 0.0411,-0.0369 0.0276,-0.0246 0.0587,-0.0524 0.0933,-0.0833 0.0672,-0.06 0.1442,-0.1284 0.231,-0.2054 0.1737,-0.1543 0.3876,-0.3421 0.6416,-0.5636 0.5067,-0.4447 1.1811,-1.0154 2.0233,-1.7121 0.8442,-0.6942 1.8618,-1.5076 3.068,-2.4194 0.6027,-0.4564 1.2537,-0.9355 1.9531,-1.4374 0.3497,-0.2506 0.7119,-0.5063 1.0869,-0.7672 0.1893,-0.1316 0.3799,-0.2631 0.5717,-0.3945 0.0939,-0.0643 0.1916,-0.131 0.293,-0.1998 0.1029,-0.0699 0.2138,-0.1448 0.2979,-0.2015 0.0841,-0.0567 0.1413,-0.0951 0.2054,-0.138 0.0655,-0.0439 0.1337,-0.0895 0.2047,-0.1368 0.1383,-0.0921 0.274,-0.182 0.4072,-0.2697 0.2691,-0.1772 0.5374,-0.352 0.805,-0.5245 0.5327,-0.3431 1.0567,-0.6734 1.5718,-0.9911 1.0308,-0.6348 2.0238,-1.2228 2.9788,-1.7638 1.909,-1.0837 3.6581,-1.9902 5.2243,-2.7551"
         id="path792"
         style="fill:none;stroke:#000000;stroke-width:0.7;stroke-linecap:butt;stroke-linejoin:miter" />
      <path
         d="m 143.5902,15.0237 c 7.2006,-3.5161 14.4646,-5.9333 21.4831,-7.46 3.51,-0.7639 6.9604,-1.3065 10.332,-1.6582 1.68773,-0.1752 3.35003,-0.3047 4.98692,-0.3883 1.63497,-0.0844 3.23877,-0.1249 4.84568,-0.1254 1.60691,-5e-4 3.21694,0.039 4.85573,0.1225 1.64021,0.0828 3.3049,0.2115 4.99408,0.3861 3.37549,0.3504 6.83179,0.8923 10.34749,1.656 7.0296,1.5264 14.3046,3.9458 21.5166,7.4673"
         id="path794"
         style="fill:none;stroke:#000000;stroke-width:0.7;stroke-linecap:butt;stroke-linejoin:miter" />
      <path
         d="m 226.9518,15.0237 c 3.1366,1.5343 7.022,3.6322 11.4305,6.6014 0.0433,0.0292 0.102,0.0689 0.1564,0.1057 0.0536,0.0363 0.1053,0.0714 0.1551,0.1053 0.1021,0.0697 0.2042,0.1394 0.3063,0.2091 0.2031,0.1393 0.402,0.2768 0.5966,0.4125 0.3906,0.2724 0.7675,0.5393 1.1306,0.8005 0.7259,0.5228 1.3985,1.02 2.0179,1.4916 1.2395,0.9419 2.2713,1.773 3.1127,2.4694 0.8392,0.6992 1.4941,1.2566 1.9646,1.6722 0.2361,0.2068 0.4279,0.3761 0.5756,0.5076 0.0738,0.0657 0.1367,0.1218 0.1889,0.1685 0.0271,0.0243 0.0505,0.0451 0.0699,0.0626 0.009,0.0076 0.0182,0.0162 0.0289,0.0258 0.007,0.0063 0.0113,0.0101 0.0129,0.0116 5e-4,4e-4 -0.005,-0.0047 0.0119,0.0107 3.8884,3.489 7.1773,7.0153 9.9652,10.4083 1.3942,1.6971 2.6634,3.3617 3.8216,4.9782 0.5787,0.8085 1.1305,1.6041 1.6554,2.387 0.2634,0.3925 0.5195,0.7802 0.7683,1.1631 0.1237,0.1901 0.247,0.3813 0.3699,0.5735 0.0626,0.0979 0.1231,0.1928 0.1814,0.2847 0.0576,0.0905 0.1105,0.1741 0.1792,0.2832 0.0687,0.1091 0.1531,0.2438 0.233,0.3719 0.0791,0.1267 0.156,0.2508 0.2309,0.3722 0.152,0.2463 0.3037,0.4947 0.4553,0.7453 0.3014,0.4986 0.5963,0.9966 0.8846,1.4941 0.5782,0.9976 1.1339,1.9972 1.6672,2.9988 1.0657,2.0042 2.0446,4.0096 2.9366,6.0164 0.8917,2.0061 1.7016,4.0061 2.4297,6.0001 0.3646,0.9971 0.7093,1.9903 1.0343,2.9796 0.1622,0.4938 0.3201,0.9879 0.4737,1.4825 0.0771,0.2485 0.1525,0.4948 0.2262,0.7391 0.0735,0.2433 0.1444,0.4819 0.2193,0.7376 0.0748,0.2557 0.1534,0.5285 0.2296,0.7972 0.0759,0.2677 0.1501,0.534 0.2226,0.7986 0.1456,0.5317 0.2869,1.0655 0.4238,1.6016 0.2733,1.0704 0.5274,2.1432 0.7622,3.2182 0.4702,2.1524 0.8644,4.3133 1.1828,6.4828 0.6368,4.33662 0.9698,8.69645 1.0045,13.037129"
         id="path796"
         style="fill:none;stroke:#000000;stroke-width:0.7;stroke-linecap:butt;stroke-linejoin:miter" />
      <path
         d="m 280.2679,99.629358 0.003,0.770452"
         id="path798"
         style="fill:none;stroke:#000000;stroke-width:0.7;stroke-linecap:butt;stroke-linejoin:miter" />
      <path
         d="m 90.271,100.3918 q -1e-4,-8.9e-4 1e-4,0.14392"
         id="path800"
         style="fill:none;stroke:#000000;stroke-width:0.7;stroke-linecap:butt;stroke-linejoin:miter" />
      <path
         d="m 280.271,100.39982 c -0.2575,4.82323 -0.5391,10.09778 -0.8447,15.82358 -0.1529,2.863 -0.3117,5.8387 -0.4766,8.9273 -0.0824,1.5443 -0.1664,3.1168 -0.2518,4.7175 -0.0428,0.8002 -0.0859,1.6076 -0.1293,2.4222 -0.0219,0.409 -0.0437,0.818 -0.0655,1.227 -0.0108,0.2019 -0.0218,0.4077 -0.033,0.6174 -0.0113,0.2115 -0.0231,0.4319 -0.0331,0.6201 -0.0101,0.1883 -0.0184,0.3443 -0.0272,0.509 -0.009,0.1663 -0.0179,0.3362 -0.0272,0.5096 -0.0183,0.3424 -0.0364,0.6829 -0.0545,1.0216 -0.0364,0.6819 -0.0729,1.3659 -0.1096,2.052 -0.0732,1.3719 -0.1469,2.7517 -0.2209,4.1395 -0.1482,2.7753 -0.298,5.5821 -0.4496,8.4205 -0.1515,2.839 -0.3047,5.7088 -0.4596,8.6095 -0.0774,1.4497 -0.1552,2.9082 -0.2336,4.3756 -0.0392,0.7352 -0.0784,1.4704 -0.1177,2.2055 -0.0196,0.3666 -0.0393,0.7357 -0.0591,1.1072 -0.0199,0.3725 -0.0401,0.7503 -0.0593,1.1102 -0.0192,0.3598 -0.0374,0.7016 -0.0559,1.0483 -0.0186,0.3475 -0.0372,0.697 -0.056,1.0485 -0.0374,0.7005 -0.0747,1.3999 -0.112,2.098 -0.0746,1.3981 -0.1494,2.7979 -0.2242,4.1993 -0.1495,2.801 -0.2992,5.6049 -0.449,8.4117 -0.2997,5.6139 -0.6,11.2394 -0.9009,16.8759 -0.1506,2.821 -0.3007,5.633 -0.4504,8.437 -0.1495,2.8 -0.2982,5.586 -0.4462,8.357 -0.2959,5.544 -0.5891,11.036 -0.8795,16.476"
         id="path802"
         style="fill:none;stroke:#000000;stroke-width:0.7;stroke-linecap:butt;stroke-linejoin:miter" />
      <path
         d="m 90.271,100.3918 7.3174,139.625"
         id="path804"
         style="fill:none;stroke:#000000;stroke-width:0.7;stroke-linecap:butt;stroke-linejoin:miter" />
      <path
         d="m 97.6655,241.4868 q -0.0356,-0.679 -0.0771,-1.47"
         id="path806"
         style="fill:none;stroke:#000000;stroke-width:0.7;stroke-linecap:butt;stroke-linejoin:miter" />
      <path
         d="m 97.5884,240.0168 c -0.2931,-5.593 -0.5893,-11.246 -0.8888,-16.96 -0.1496,-2.855 -0.3002,-5.728 -0.4517,-8.62 -0.1517,-2.893 -0.3044,-5.808 -0.4567,-8.713 -0.3043,-5.8061 -0.6074,-11.5896 -0.911,-17.3829 -0.1517,-2.8944 -0.3033,-5.7875 -0.4548,-8.6792 -0.0759,-1.4467 -0.1516,-2.8922 -0.2273,-4.3364 -0.0378,-0.7213 -0.0757,-1.4437 -0.1136,-2.1675 -0.019,-0.3631 -0.038,-0.7242 -0.0568,-1.0835 -0.0188,-0.3584 -0.0373,-0.7121 -0.0568,-1.0834 -0.0194,-0.3713 -0.0398,-0.7601 -0.0599,-1.1437 -0.02,-0.3826 -0.04,-0.7629 -0.0598,-1.1407 -0.0397,-0.7575 -0.0794,-1.5151 -0.1191,-2.2726 -0.0792,-1.5122 -0.158,-3.0155 -0.2363,-4.5101 -0.1568,-2.9903 -0.3119,-5.9501 -0.4654,-8.8792 -0.1534,-2.9283 -0.3053,-5.8254 -0.4555,-8.6913 -0.0751,-1.4344 -0.1498,-2.8595 -0.224,-4.2752 -0.0371,-0.7067 -0.0741,-1.4134 -0.1111,-2.12 -0.0187,-0.3556 -0.0371,-0.7075 -0.0554,-1.0556 -0.0181,-0.3467 -0.0359,-0.6851 -0.0551,-1.0527 -0.0193,-0.3676 -0.0401,-0.7644 -0.0604,-1.1522 -0.0203,-0.3863 -0.0403,-0.7683 -0.0601,-1.146 -0.0398,-0.7597 -0.0795,-1.5176 -0.1191,-2.2737 -0.0791,-1.5089 -0.1573,-3.0001 -0.2345,-4.4735 -0.0773,-1.4747 -0.1537,-2.9331 -0.2293,-4.3753 -0.0378,-0.7221 -0.0754,-1.4391 -0.1127,-2.1507 -0.0186,-0.3554 -0.0372,-0.7108 -0.0559,-1.0662 -0.0094,-0.1797 -0.0187,-0.3566 -0.0278,-0.5308 -0.009,-0.173 -0.0178,-0.3397 -0.0277,-0.5292 -0.01,-0.1896 -0.0211,-0.4021 -0.0318,-0.6071 -0.0107,-0.2037 -0.0212,-0.4037 -0.0315,-0.6 -0.0207,-0.3958 -0.0413,-0.7889 -0.0618,-1.1791 -0.0408,-0.7786 -0.0805,-1.5367 -0.1192,-2.2745 -0.0386,-0.7369 -0.0764,-1.4578 -0.1133,-2.1626 -0.0186,-0.3547 -0.0368,-0.7012 -0.0545,-1.03947 -0.0176,-0.33657 -0.0346,-0.65987 -0.053,-1.01147 -0.0184,-0.35161 -0.0383,-0.73152 -0.0579,-1.10441 -0.0194,-0.37145 -0.0388,-0.74019 -0.058,-1.10623 -0.0385,-0.73599 -0.0773,-1.47529 -0.1162,-2.2179 -0.0777,-1.48207 -0.1555,-2.96795 -0.2336,-4.45762"
         id="path808"
         style="fill:none;stroke:#000000;stroke-width:0.7;stroke-linecap:butt;stroke-linejoin:miter" />
      <path
         d="m 92.9913,162.0018 c 0.0247,-0.6727 0.0369,-1.4566 0.0375,-2.3263 3e-4,-0.8687 -0.0102,-1.8259 -0.0316,-2.8717 -0.0422,-2.0932 -0.1259,-4.5533 -0.2363,-7.2358 -0.0552,-1.3398 -0.1165,-2.7389 -0.1839,-4.1973 -0.0673,-1.4597 -0.1404,-2.9828 -0.2162,-4.5251 -0.1515,-3.0846 -0.3137,-6.2458 -0.484,-9.518"
         id="path810"
         style="fill:none;stroke:#000000;stroke-width:0.7;stroke-linecap:butt;stroke-linejoin:miter" />
      <path
         d="M 91.8768,131.3276 90.3709,102.44579"
         id="path812"
         style="fill:none;stroke:#000000;stroke-width:0.7;stroke-linecap:butt;stroke-linejoin:miter" />
      <path
         d="m 90.2711,100.53572 0.0998,1.91007"
         id="path814"
         style="fill:none;stroke:#000000;stroke-width:0.7;stroke-linecap:butt;stroke-linejoin:miter" />
      <path
         d="m 97.6655,241.4868 c 0.0715,1.362 0.1139,2.225 0.1042,2.264"
         id="path816"
         style="fill:none;stroke:#000000;stroke-width:0.7;stroke-linecap:butt;stroke-linejoin:miter" />
      <path
         d="m 97.7697,243.7508 q -0.0551,0.307 -0.4659,0.543"
         id="path818"
         style="fill:none;stroke:#000000;stroke-width:0.7;stroke-linecap:butt;stroke-linejoin:miter" />
      <path
         d="m 285.386,127.0967 -6.5401,-9e-4"
         id="path820"
         style="fill:none;stroke:#000000;stroke-width:0.7;stroke-linecap:butt;stroke-linejoin:miter" />
      <path
         d="m 277.5138,152.0483 q 3.2676,-0.2204 6.5404,-0.3901"
         id="path822"
         style="fill:none;stroke:#000000;stroke-width:0.7;stroke-linecap:butt;stroke-linejoin:miter" />
      <path
         d="m 283.683,158.5472 q -3.0157,-0.164 -6.031,-0.34"
         id="path824"
         style="fill:none;stroke:#000000;stroke-width:0.7;stroke-linecap:butt;stroke-linejoin:miter" />
      <path
         d="m 91.6705,127.0958 -6.5635,9e-4"
         id="path826"
         style="fill:none;stroke:#000000;stroke-width:0.7;stroke-linecap:butt;stroke-linejoin:miter" />
      <path
         d="m 86.4389,151.6572 q 3.2722,0.1699 6.5393,0.3907"
         id="path828"
         style="fill:none;stroke:#000000;stroke-width:0.7;stroke-linecap:butt;stroke-linejoin:miter" />
      <path
         d="m 93.2995,158.1782 q -3.2446,0.1898 -6.4895,0.3662"
         id="path830"
         style="fill:none;stroke:#000000;stroke-width:0.7;stroke-linecap:butt;stroke-linejoin:miter" />
      <path
         d="M 91.0339,88.3765 Q 88.0312,86.5385 85.038,84.6924"
         id="path832"
         style="fill:none;stroke:#000000;stroke-width:0.7;stroke-linecap:butt;stroke-linejoin:miter" />
      <path
         d="m 84.045,108.95124 6.6745,-6.7e-4"
         id="path834"
         style="fill:none;stroke:#000000;stroke-width:0.7;stroke-linecap:butt;stroke-linejoin:miter" />
      <path
         d="m 285.462,84.7612 q -2.9698,1.8312 -5.9489,3.6543"
         id="path836"
         style="fill:none;stroke:#000000;stroke-width:0.7;stroke-linecap:butt;stroke-linejoin:miter" />
      <path
         d="m 279.8145,108.95058 6.6335,6.7e-4"
         id="path838"
         style="fill:none;stroke:#000000;stroke-width:0.7;stroke-linecap:butt;stroke-linejoin:miter" />
      <path
         d="m 280.2678,99.627123 -3.8923,-0.07315"
         id="path840"
         style="fill:none;stroke:#000000;stroke-width:0.7;stroke-linecap:butt;stroke-linejoin:miter" />
      <path
         d="m 268.7605,241.4098 4.0451,-1.133"
         id="path842"
         style="fill:none;stroke:#000000;stroke-width:0.7;stroke-linecap:butt;stroke-linejoin:miter" />
      <path
         d="m 268.3899,248.3848 1.8712,-1.928"
         id="path844"
         style="fill:none;stroke:#000000;stroke-width:0.7;stroke-linecap:butt;stroke-linejoin:miter" />
      <path
         d="m 270.2611,246.4568 2.3778,-2.45"
         id="path846"
         style="fill:none;stroke:#000000;stroke-width:0.7;stroke-linecap:butt;stroke-linejoin:miter" />
      <path
         d="m 94.1663,99.545549 -3.8923,0.07206"
         id="path848"
         style="fill:none;stroke:#000000;stroke-width:0.7;stroke-linecap:butt;stroke-linejoin:miter" />
      <path
         d="m 97.5884,240.0168 4.0489,1.136"
         id="path850"
         style="fill:none;stroke:#000000;stroke-width:0.7;stroke-linecap:butt;stroke-linejoin:miter" />
      <path
         d="m 97.7697,243.7508 1.8436,1.901"
         id="path852"
         style="fill:none;stroke:#000000;stroke-width:0.7;stroke-linecap:butt;stroke-linejoin:miter" />
      <path
         d="m 99.6133,245.6518 2.3993,2.474"
         id="path854"
         style="fill:none;stroke:#000000;stroke-width:0.7;stroke-linecap:butt;stroke-linejoin:miter" />
    </g>
  </g>
</svg>
