<?xml version="1.0" encoding="UTF-8" standalone="no"?>
<svg
   version="1.2"
   width="264mm"
   height="216.37373mm"
   viewBox="0 0 264 216.37373"
   preserveAspectRatio="xMidYMid"
   fill-rule="evenodd"
   stroke-width="28.222"
   stroke-linejoin="round"
   xml:space="preserve"
   id="svg472"
   sodipodi:docname="thumbnail.svg"
   inkscape:version="1.2.1 (9c6d41e410, 2022-07-14)"
   xmlns:inkscape="http://www.inkscape.org/namespaces/inkscape"
   xmlns:sodipodi="http://sodipodi.sourceforge.net/DTD/sodipodi-0.dtd"
   xmlns="http://www.w3.org/2000/svg"
   xmlns:svg="http://www.w3.org/2000/svg"><defs
   id="defs476" /><sodipodi:namedview
   id="namedview474"
   pagecolor="#ffffff"
   bordercolor="#000000"
   borderopacity="0.25"
   inkscape:showpageshadow="2"
   inkscape:pageopacity="0.0"
   inkscape:pagecheckerboard="0"
   inkscape:deskcolor="#d1d1d1"
   inkscape:document-units="mm"
   showgrid="false"
   inkscape:zoom="0.64"
   inkscape:cx="552.34375"
   inkscape:cy="646.875"
   inkscape:window-width="2400"
   inkscape:window-height="1434"
   inkscape:window-x="2391"
   inkscape:window-y="-9"
   inkscape:window-maximized="1"
   inkscape:current-layer="svg472" />
 <g
   visibility="visible"
   id="Slide_1"
   transform="matrix(0.01581217,0,0,0.01581217,94.596307,-138.61739)">
  <g
   id="g408">
   <path
   fill="#c8c8c8"
   stroke="none"
   d="m -103,21953 c -4,-3 -7,-6 -9,-10 -1,-1 -2,-2 -2,-3 l -165,-408 -83,-212 h -1 l -75,-204 -410,-225 h -1 c 0,-1 0,-1 -1,-1 l -384,-247 c -1,0 -1,0 -2,-1 l -356,-270 c 0,0 -1,0 -2,-1 l -333,-300 c 0,-1 -1,-1 -1,-2 l -316,-338 c -1,0 -1,-1 -2,-1 l -304,-383 c -1,0 -1,-1 -1,-1 l -299,-434 c 0,-1 -1,-1 -1,-2 l -295,-485 -565,-234 -356,-141 -366,-137 c -1,0 -2,-1 -4,-1 -4,-3 -7,-6 -9,-10 -3,-4 -4,-8 -4,-12 l -18,-494 -126,-4 c -5,0 -9,-1 -13,-3 -4,-3 -7,-6 -9,-10 -3,-4 -4,-8 -4,-13 l -10,-352 -77,4 c -1,0 -1,0 -1,0 l -52,1 c -1,0 -1,0 -1,0 l -26,-1 h -1 l -25,-3 c -4,0 -7,-1 -11,-3 -4,-3 -7,-6 -9,-10 -3,-4 -4,-8 -4,-13 l -20,-1033 -296,-5 c -5,0 -9,-1 -13,-3 -4,-3 -7,-6 -9,-10 -3,-4 -4,-8 -4,-13 l 1,761 h -771 l -7,-2122 760,7 c 0,0 1,445 8,664 115,-1 356,-2 356,-2 l -8,-968 c 0,-5 1,-9 4,-14 2,-4 5,-7 9,-9 4,-3 8,-4 13,-4 l 189,-3 6,-427 c 0,-4 1,-9 4,-13 2,-4 5,-7 9,-9 4,-3 8,-4 12,-4 l 141,-6 -2,-452 c 0,-5 1,-9 4,-14 2,-4 5,-7 9,-9 1,-1 2,-2 4,-2 l 1298,-515 274,-462 c 0,-1 0,-1 0,-2 l 291,-425 c 0,-1 0,-1 1,-2 l 305,-384 1,-1 323,-347 1,-1 343,-313 c 1,0 2,-1 2,-1 l 366,-283 c 1,-1 1,-1 2,-1 l 392,-257 1,-1 412,-229 69,-214 1,-1 42,-112 c 0,-1 0,-1 0,-1 l 47,-111 c 0,0 0,-1 1,-1 l 52,-108 c 0,-1 0,-1 0,-2 l 58,-104 h 1 c 0,-1 0,-1 0,-2 l 65,-99 1,-1 72,-93 c 2,-2 4,-5 7,-6 2,-1 3,-2 5,-3 l 565,-183 c 1,-1 2,-1 3,-1 l 574,-132 c 1,0 1,0 2,-1 l 583,-80 c 1,0 2,0 3,0 l 592,-27 h 1 1 l 601,26 c 1,0 1,1 2,1 l 609,80 c 1,0 2,1 3,1 l 618,135 c 0,1 1,1 2,1 l 626,191 c 2,1 4,2 6,3 4,2 7,5 9,9 l 69,112 c 0,1 1,1 1,1 l 57,109 c 1,0 1,0 1,1 l 49,105 c 0,1 0,1 0,1 l 44,104 c 0,1 0,1 0,1 l 79,207 85,203 235,117 c 1,0 1,0 2,0 v 1 l 258,153 c 1,1 1,1 2,1 l 267,183 c 0,1 1,1 1,1 l 271,208 c 0,0 1,0 1,1 l 269,228 c 1,1 1,1 1,1 l 263,245 c 1,1 1,1 1,1 l 251,258 c 1,0 1,1 1,1 l 189,215 10,-523 c 0,-5 1,-9 4,-13 2,-4 5,-7 9,-9 4,-3 9,-4 13,-4 1,0 1,0 1,0 l 663,5 c 5,0 9,1 13,4 4,2 7,5 9,9 3,5 4,9 4,14 l 6,1619 1289,501 c 1,0 3,1 4,2 4,2 7,5 9,9 3,5 4,9 4,14 l -4,116 v 119 l 2,215 h 156 c 4,0 9,1 13,4 4,2 7,5 9,9 3,5 4,9 4,14 v 1 l -1,446 9,-3 h 53 l 108,-2 h 1 c 4,0 9,1 13,4 4,2 7,5 9,9 3,4 4,8 4,13 l 10,238 v 1 l 4,240 5,458 c 0,0 309,-5 313,-2 4,2 -5,-630 -5,-630 l 738,2 16,2109 -725,-2 -21,-734 c 0,1 0,1 0,1 0,5 -1,9 -4,13 -2,4 -5,7 -9,10 -4,2 -9,3 -13,3 -1,0 -1,0 -1,0 l -163,-2 h -84 l -39,2 -14,1 -4,316 3,174 3,108 c 0,1 0,1 0,1 l -2,142 c 0,5 -1,9 -4,13 -2,4 -5,7 -9,10 -4,2 -9,3 -13,3 -1,0 -2,0 -3,0 l -26,-2 -27,-1 -55,1 h -56 c -1,0 -1,0 -1,0 l -28,-1 -2,648 c 0,5 -1,9 -4,13 -2,4 -5,7 -9,10 -4,2 -8,3 -12,3 l -20,1 c -1,0 -1,0 -2,0 h -20 -1 l -41,-1 -41,-2 h -14 l -1,477 c 0,5 -1,9 -4,13 -2,4 -5,7 -9,10 -1,0 -3,1 -4,1 l -1323,520 -332,543 c -1,1 -1,1 -1,2 l -329,462 c 0,1 0,2 -1,2 l -323,388 c -1,1 -1,1 -2,2 l -322,326 c 0,1 -1,1 -1,2 l -326,278 c 0,0 -1,0 -1,1 l -333,243 c -1,0 -1,0 -2,1 l -344,221 c 0,0 -1,0 -1,1 l -357,210 -6,8 -9,11 -21,33 -22,43 -23,50 -48,118 -49,132 -93,259 v 1 l -42,104 v 1 l -19,41 c 0,1 0,1 0,2 l -17,31 c 0,0 0,1 -1,1 -2,4 -5,7 -9,10 -2,1 -4,1 -6,2 l -648,195 c -1,0 -1,0 -2,1 l -619,142 c -1,0 -2,0 -3,0 l -600,89 c -1,0 -2,0 -3,0 l -591,32 h -1 c -1,0 -1,0 -1,0 l -592,-26 c -1,0 -2,0 -3,0 l -602,-86 c 0,0 -1,0 -2,0 l -622,-147 c -1,0 -1,0 -2,0 l -652,-210 c -2,-1 -3,-1 -5,-2 z"
   id="path405" />
   <path
   fill="none"
   stroke="#000000"
   id="Drawing_1_0"
   stroke-width="53"
   stroke-linejoin="round"
   d="m -103,21953 c -4,-3 -7,-6 -9,-10 -1,-1 -2,-2 -2,-3 l -165,-408 -83,-212 h -1 l -75,-204 -410,-225 h -1 c 0,-1 0,-1 -1,-1 l -384,-247 c -1,0 -1,0 -2,-1 l -356,-270 c 0,0 -1,0 -2,-1 l -333,-300 c 0,-1 -1,-1 -1,-2 l -316,-338 c -1,0 -1,-1 -2,-1 l -304,-383 c -1,0 -1,-1 -1,-1 l -299,-434 c 0,-1 -1,-1 -1,-2 l -295,-485 -565,-234 -356,-141 -366,-137 c -1,0 -2,-1 -4,-1 -4,-3 -7,-6 -9,-10 -3,-4 -4,-8 -4,-12 l -18,-494 -126,-4 c -5,0 -9,-1 -13,-3 -4,-3 -7,-6 -9,-10 -3,-4 -4,-8 -4,-13 l -10,-352 -77,4 c -1,0 -1,0 -1,0 l -52,1 c -1,0 -1,0 -1,0 l -26,-1 h -1 l -25,-3 c -4,0 -7,-1 -11,-3 -4,-3 -7,-6 -9,-10 -3,-4 -4,-8 -4,-13 l -20,-1033 -296,-5 c -5,0 -9,-1 -13,-3 -4,-3 -7,-6 -9,-10 -3,-4 -4,-8 -4,-13 l 1,761 h -771 l -7,-2122 760,7 c 0,0 1,445 8,664 115,-1 356,-2 356,-2 l -8,-968 c 0,-5 1,-9 4,-14 2,-4 5,-7 9,-9 4,-3 8,-4 13,-4 l 189,-3 6,-427 c 0,-4 1,-9 4,-13 2,-4 5,-7 9,-9 4,-3 8,-4 12,-4 l 141,-6 -2,-452 c 0,-5 1,-9 4,-14 2,-4 5,-7 9,-9 1,-1 2,-2 4,-2 l 1298,-515 274,-462 c 0,-1 0,-1 0,-2 l 291,-425 c 0,-1 0,-1 1,-2 l 305,-384 1,-1 323,-347 1,-1 343,-313 c 1,0 2,-1 2,-1 l 366,-283 c 1,-1 1,-1 2,-1 l 392,-257 1,-1 412,-229 69,-214 1,-1 42,-112 c 0,-1 0,-1 0,-1 l 47,-111 c 0,0 0,-1 1,-1 l 52,-108 c 0,-1 0,-1 0,-2 l 58,-104 h 1 c 0,-1 0,-1 0,-2 l 65,-99 1,-1 72,-93 c 2,-2 4,-5 7,-6 2,-1 3,-2 5,-3 l 565,-183 c 1,-1 2,-1 3,-1 l 574,-132 c 1,0 1,0 2,-1 l 583,-80 c 1,0 2,0 3,0 l 592,-27 h 1 1 l 601,26 c 1,0 1,1 2,1 l 609,80 c 1,0 2,1 3,1 l 618,135 c 0,1 1,1 2,1 l 626,191 c 2,1 4,2 6,3 4,2 7,5 9,9 l 69,112 c 0,1 1,1 1,1 l 57,109 c 1,0 1,0 1,1 l 49,105 c 0,1 0,1 0,1 l 44,104 c 0,1 0,1 0,1 l 79,207 85,203 235,117 c 1,0 1,0 2,0 v 1 l 258,153 c 1,1 1,1 2,1 l 267,183 c 0,1 1,1 1,1 l 271,208 c 0,0 1,0 1,1 l 269,228 c 1,1 1,1 1,1 l 263,245 c 1,1 1,1 1,1 l 251,258 c 1,0 1,1 1,1 l 189,215 10,-523 c 0,-5 1,-9 4,-13 2,-4 5,-7 9,-9 4,-3 9,-4 13,-4 1,0 1,0 1,0 l 663,5 c 5,0 9,1 13,4 4,2 7,5 9,9 3,5 4,9 4,14 l 6,1619 1289,501 c 1,0 3,1 4,2 4,2 7,5 9,9 3,5 4,9 4,14 l -4,116 v 119 l 2,215 h 156 c 4,0 9,1 13,4 4,2 7,5 9,9 3,5 4,9 4,14 v 1 l -1,446 9,-3 h 53 l 108,-2 h 1 c 4,0 9,1 13,4 4,2 7,5 9,9 3,4 4,8 4,13 l 10,238 v 1 l 4,240 5,458 c 0,0 309,-5 313,-2 4,2 -5,-630 -5,-630 l 738,2 16,2109 -725,-2 -21,-734 c 0,1 0,1 0,1 0,5 -1,9 -4,13 -2,4 -5,7 -9,10 -4,2 -9,3 -13,3 -1,0 -1,0 -1,0 l -163,-2 h -84 l -39,2 -14,1 -4,316 3,174 3,108 c 0,1 0,1 0,1 l -2,142 c 0,5 -1,9 -4,13 -2,4 -5,7 -9,10 -4,2 -9,3 -13,3 -1,0 -2,0 -3,0 l -26,-2 -27,-1 -55,1 h -56 c -1,0 -1,0 -1,0 l -28,-1 -2,648 c 0,5 -1,9 -4,13 -2,4 -5,7 -9,10 -4,2 -8,3 -12,3 l -20,1 c -1,0 -1,0 -2,0 h -20 -1 l -41,-1 -41,-2 h -14 l -1,477 c 0,5 -1,9 -4,13 -2,4 -5,7 -9,10 -1,0 -3,1 -4,1 l -1323,520 -332,543 c -1,1 -1,1 -1,2 l -329,462 c 0,1 0,2 -1,2 l -323,388 c -1,1 -1,1 -2,2 l -322,326 c 0,1 -1,1 -1,2 l -326,278 c 0,0 -1,0 -1,1 l -333,243 c -1,0 -1,0 -2,1 l -344,221 c 0,0 -1,0 -1,1 l -357,210 -6,8 -9,11 -21,33 -22,43 -23,50 -48,118 -49,132 -93,259 v 1 l -42,104 v 1 l -19,41 c 0,1 0,1 0,2 l -17,31 c 0,0 0,1 -1,1 -2,4 -5,7 -9,10 -2,1 -4,1 -6,2 l -648,195 c -1,0 -1,0 -2,1 l -619,142 c -1,0 -2,0 -3,0 l -600,89 c -1,0 -2,0 -3,0 l -591,32 h -1 c -1,0 -1,0 -1,0 l -592,-26 c -1,0 -2,0 -3,0 l -602,-86 c 0,0 -1,0 -2,0 l -622,-147 c -1,0 -1,0 -2,0 l -652,-210 c -2,-1 -3,-1 -5,-2 z" />
  </g>
  <g
   id="DrawingGroup_1">
   <g
   id="g411">
    <path
   fill="none"
   stroke="#000000"
   id="Drawing_2_0"
   stroke-width="53"
   stroke-linejoin="round"
   d="m 2365,21319 c -1051,0 -1945,-239 -2855,-765 -910,-526 -1564,-1180 -2090,-2090 -526,-911 -765,-1804 -765,-2855 0,-1052 239,-1945 765,-2856 526,-910 1180,-1564 2090,-2090 910,-526 1804,-765 2855,-765 1051,0 1945,239 2855,765 910,526 1564,1180 2090,2090 526,911 765,1804 765,2855 0,1052 -239,1945 -765,2856 -526,910 -1180,1564 -2090,2090 -910,526 -1804,765 -2855,765 z" />
   </g>
   <g
   id="g414">
    <path
   fill="none"
   stroke="#000000"
   id="Drawing_3_0"
   stroke-width="53"
   stroke-linejoin="round"
   d="m -1880,17746 c -179,0 -331,-41 -486,-130 -154,-89 -266,-201 -355,-355 -89,-155 -130,-307 -130,-486 0,-179 41,-331 130,-485 89,-155 201,-267 355,-356 155,-89 307,-130 486,-130 179,0 331,41 485,130 155,89 267,201 356,356 89,154 130,306 130,485 0,179 -41,331 -130,486 -89,154 -201,266 -355,355 -155,89 -307,130 -486,130 z" />
   </g>
   <g
   id="g417">
    <path
   fill="none"
   stroke="#000000"
   id="Drawing_4_0"
   stroke-width="53"
   stroke-linejoin="round"
   d="m 2360,15848 c -40,0 -74,-9 -108,-29 -34,-19 -59,-44 -78,-78 -20,-34 -29,-68 -29,-107 0,-40 9,-74 29,-108 19,-34 44,-59 78,-78 34,-20 68,-29 108,-29 39,0 73,9 107,29 34,19 59,44 78,78 20,34 29,68 29,108 0,39 -9,73 -29,107 -19,34 -44,59 -78,78 -34,20 -68,29 -107,29 z" />
   </g>
   <g
   id="g420">
    <path
   fill="none"
   stroke="#000000"
   id="Drawing_5_0"
   stroke-width="53"
   stroke-linejoin="round"
   d="m -744,19710 c -179,0 -331,-41 -486,-130 -154,-89 -266,-201 -355,-355 -89,-155 -130,-307 -130,-486 0,-179 41,-331 130,-485 89,-155 201,-267 355,-356 155,-89 307,-130 486,-130 179,0 331,41 485,130 155,89 267,201 356,356 89,154 130,306 130,485 0,179 -41,331 -130,486 -89,154 -201,266 -355,355 -155,89 -307,130 -486,130 z" />
   </g>
   <g
   id="g423">
    <path
   fill="none"
   stroke="#000000"
   id="Drawing_6_0"
   stroke-width="53"
   stroke-linejoin="round"
   d="m 1254,20846 c -179,0 -331,-41 -485,-130 -155,-89 -267,-201 -356,-355 -89,-155 -130,-307 -130,-486 0,-179 41,-331 130,-485 89,-155 201,-267 355,-356 155,-89 307,-130 486,-130 179,0 331,41 485,130 155,89 267,201 356,356 89,154 130,306 130,485 0,179 -41,331 -130,486 -89,154 -201,266 -355,355 -155,89 -307,130 -486,130 z" />
   </g>
   <g
   id="g426">
    <path
   fill="none"
   stroke="#000000"
   id="Drawing_7_0"
   stroke-width="53"
   stroke-linejoin="round"
   d="m 2389,18870 c -179,0 -331,-41 -485,-130 -155,-89 -267,-201 -356,-355 -89,-155 -130,-307 -130,-486 0,-179 41,-331 130,-485 89,-155 201,-267 355,-356 155,-89 307,-130 486,-130 179,0 331,41 485,130 155,89 267,201 356,356 89,154 130,306 130,485 0,179 -41,331 -130,486 -89,154 -201,266 -355,355 -155,89 -307,130 -486,130 z" />
   </g>
   <g
   id="g429">
    <path
   fill="none"
   stroke="#000000"
   id="Drawing_8_0"
   stroke-width="53"
   stroke-linejoin="round"
   d="m 3514,20846 c -179,0 -331,-41 -485,-130 -155,-89 -267,-201 -356,-355 -89,-155 -130,-307 -130,-486 0,-179 41,-331 130,-485 89,-155 201,-267 355,-356 155,-89 307,-130 486,-130 179,0 331,41 485,130 155,89 267,201 356,356 89,154 130,306 130,485 0,179 -41,331 -130,486 -89,154 -201,266 -355,355 -155,89 -307,130 -486,130 z" />
   </g>
   <g
   id="g432">
    <path
   fill="none"
   stroke="#000000"
   id="Drawing_9_0"
   stroke-width="53"
   stroke-linejoin="round"
   d="m -1880,15474 c -179,0 -331,-41 -486,-130 -154,-89 -266,-201 -355,-355 -89,-155 -130,-307 -130,-486 0,-179 41,-331 130,-485 89,-155 201,-267 355,-356 155,-89 307,-130 486,-130 179,0 331,41 485,130 155,89 267,201 356,356 89,154 130,306 130,485 0,179 -41,331 -130,486 -89,154 -201,266 -355,355 -155,89 -307,130 -486,130 z" />
   </g>
   <g
   id="g435">
    <path
   fill="none"
   stroke="#000000"
   id="Drawing_10_0"
   stroke-width="53"
   stroke-linejoin="round"
   d="m 1231,12353 c -179,0 -331,-41 -486,-130 -155,-89 -266,-201 -356,-355 -89,-155 -130,-307 -130,-486 0,-179 41,-331 130,-485 90,-155 201,-267 356,-356 155,-89 307,-130 486,-130 179,0 331,41 486,130 155,89 266,201 356,356 89,154 130,306 130,485 0,179 -41,331 -130,486 -90,154 -201,266 -356,355 -155,89 -307,130 -486,130 z" />
   </g>
   <g
   id="g438">
    <path
   fill="none"
   stroke="#000000"
   id="Drawing_11_0"
   stroke-width="53"
   stroke-linejoin="round"
   d="m 3515,12376 c -179,0 -331,-41 -485,-130 -155,-89 -267,-201 -356,-355 -89,-155 -130,-307 -130,-486 0,-179 41,-331 130,-485 89,-155 201,-267 355,-356 155,-89 307,-130 486,-130 179,0 331,41 485,130 155,89 267,201 356,356 89,154 130,306 130,485 0,179 -41,331 -130,486 -89,154 -201,266 -355,355 -155,89 -307,130 -486,130 z" />
   </g>
   <g
   id="g441">
    <path
   fill="none"
   stroke="#000000"
   id="Drawing_12_0"
   stroke-width="53"
   stroke-linejoin="round"
   d="m 5490,13477 c -179,0 -331,-41 -485,-130 -155,-89 -267,-201 -356,-355 -89,-155 -130,-307 -130,-486 0,-179 41,-331 130,-485 89,-155 201,-267 356,-356 154,-89 306,-130 485,-130 179,0 331,41 486,130 154,89 266,201 355,356 89,154 130,306 130,485 0,179 -41,331 -130,486 -89,154 -201,266 -355,355 -155,89 -307,130 -486,130 z" />
   </g>
   <g
   id="g444">
    <path
   fill="none"
   stroke="#000000"
   id="Drawing_13_0"
   stroke-width="53"
   stroke-linejoin="round"
   d="m 2379,14340 c -179,0 -331,-41 -485,-130 -155,-89 -267,-201 -356,-355 -89,-155 -130,-307 -130,-486 0,-179 41,-331 130,-485 89,-155 201,-267 355,-356 155,-89 307,-130 486,-130 179,0 331,41 485,130 155,89 267,201 356,356 89,154 130,306 130,485 0,179 -41,331 -130,486 -89,154 -201,266 -355,355 -155,89 -307,130 -486,130 z" />
   </g>
   <g
   id="g447">
    <path
   fill="none"
   stroke="#000000"
   id="Drawing_14_0"
   stroke-width="53"
   stroke-linejoin="round"
   d="m 414,15476 c -179,0 -331,-41 -486,-130 -154,-89 -266,-201 -355,-355 -89,-155 -130,-307 -130,-486 0,-179 41,-331 130,-485 89,-155 201,-267 355,-356 155,-89 307,-130 486,-130 179,0 331,41 485,130 155,89 267,201 356,356 89,154 130,306 130,485 0,179 -41,331 -130,486 -89,154 -201,266 -355,355 -155,89 -307,130 -486,130 z" />
   </g>
   <g
   id="g450">
    <path
   fill="none"
   stroke="#000000"
   id="Drawing_15_0"
   stroke-width="53"
   stroke-linejoin="round"
   d="m 4343,15498 c -179,0 -331,-41 -485,-130 -155,-89 -267,-201 -356,-355 -89,-155 -130,-307 -130,-486 0,-179 41,-331 130,-485 89,-155 201,-267 355,-356 155,-89 307,-130 486,-130 179,0 331,41 486,130 154,89 266,201 355,356 89,154 130,306 130,485 0,179 -41,331 -130,486 -89,154 -201,266 -355,355 -155,89 -307,130 -486,130 z" />
   </g>
   <g
   id="g453">
    <path
   fill="none"
   stroke="#000000"
   id="Drawing_16_0"
   stroke-width="53"
   stroke-linejoin="round"
   d="m 6626,15476 c -179,0 -331,-41 -485,-130 -155,-89 -267,-201 -356,-355 -89,-155 -130,-307 -130,-486 0,-179 41,-331 130,-485 89,-155 201,-267 356,-356 154,-89 306,-130 485,-130 179,0 331,41 486,130 154,89 266,201 355,356 89,154 130,306 130,485 0,179 -41,331 -130,486 -89,154 -201,266 -355,355 -155,89 -307,130 -486,130 z" />
   </g>
   <g
   id="g456">
    <path
   fill="none"
   stroke="#000000"
   id="Drawing_17_0"
   stroke-width="53"
   stroke-linejoin="round"
   d="m 6637,17747 c -179,0 -331,-41 -485,-130 -155,-89 -267,-201 -356,-355 -89,-155 -130,-307 -130,-486 0,-179 41,-331 130,-485 89,-155 201,-267 356,-356 154,-89 306,-130 485,-130 179,0 331,41 486,130 154,89 266,201 355,356 89,154 130,306 130,485 0,179 -41,331 -130,486 -89,154 -201,266 -355,355 -155,89 -307,130 -486,130 z" />
   </g>
   <g
   id="g459">
    <path
   fill="none"
   stroke="#000000"
   id="Drawing_18_0"
   stroke-width="53"
   stroke-linejoin="round"
   d="m 4343,17736 c -179,0 -331,-41 -485,-130 -155,-89 -267,-201 -356,-355 -89,-155 -130,-307 -130,-486 0,-179 41,-331 130,-485 89,-155 201,-267 355,-356 155,-89 307,-130 486,-130 179,0 331,41 486,130 154,89 266,201 355,356 89,154 130,306 130,485 0,179 -41,331 -130,486 -89,154 -201,266 -355,355 -155,89 -307,130 -486,130 z" />
   </g>
   <g
   id="g462">
    <path
   fill="none"
   stroke="#000000"
   id="Drawing_19_0"
   stroke-width="53"
   stroke-linejoin="round"
   d="m 5479,19723 c -179,0 -331,-41 -485,-130 -155,-89 -267,-201 -356,-355 -89,-155 -130,-307 -130,-486 0,-179 41,-331 130,-485 89,-155 201,-267 356,-356 154,-89 306,-130 485,-130 179,0 331,41 486,130 154,89 266,201 355,356 89,154 130,306 130,485 0,179 -41,331 -130,486 -89,154 -201,266 -355,355 -155,89 -307,130 -486,130 z" />
   </g>
   <g
   id="g465">
    <path
   fill="none"
   stroke="#000000"
   id="Drawing_20_0"
   stroke-width="53"
   stroke-linejoin="round"
   d="m -773,13502 c -179,0 -331,-41 -486,-130 -154,-89 -266,-201 -355,-355 -89,-155 -130,-307 -130,-486 0,-179 41,-331 130,-485 89,-155 201,-267 355,-356 155,-89 307,-130 486,-130 179,0 331,41 485,130 155,89 267,201 356,356 89,154 130,306 130,485 0,179 -41,331 -130,486 -89,154 -201,266 -355,355 -155,89 -307,130 -486,130 z" />
   </g>
   <g
   id="g468">
    <path
   fill="none"
   stroke="#000000"
   id="Drawing_21_0"
   stroke-width="53"
   stroke-linejoin="round"
   d="m 400,17763 c -179,0 -331,-41 -486,-130 -154,-89 -266,-201 -355,-355 -89,-155 -130,-307 -130,-486 0,-179 41,-331 130,-485 89,-155 201,-267 355,-356 155,-89 307,-130 486,-130 179,0 331,41 485,130 155,89 267,201 356,356 89,154 130,306 130,485 0,179 -41,331 -130,486 -89,154 -201,266 -355,355 -155,89 -307,130 -486,130 z" />
   </g>
  </g>
 </g>
</svg>
