<?xml version="1.0" encoding="UTF-8" standalone="no"?>
<svg
   id="svg2"
   version="1.1"
   viewBox="0 0 451.78904 337.20996"
   height="337.20996mm"
   width="451.78903mm"
   sodipodi:docname="thumbnail.svg"
   inkscape:version="1.2.1 (9c6d41e410, 2022-07-14)"
   xmlns:inkscape="http://www.inkscape.org/namespaces/inkscape"
   xmlns:sodipodi="http://sodipodi.sourceforge.net/DTD/sodipodi-0.dtd"
   xmlns:xlink="http://www.w3.org/1999/xlink"
   xmlns="http://www.w3.org/2000/svg"
   xmlns:svg="http://www.w3.org/2000/svg"
   xmlns:rdf="http://www.w3.org/1999/02/22-rdf-syntax-ns#"
   xmlns:cc="http://creativecommons.org/ns#"
   xmlns:dc="http://purl.org/dc/elements/1.1/">
  <sodipodi:namedview
     id="namedview844"
     pagecolor="#ffffff"
     bordercolor="#000000"
     borderopacity="0.25"
     inkscape:showpageshadow="2"
     inkscape:pageopacity="0.0"
     inkscape:pagecheckerboard="0"
     inkscape:deskcolor="#d1d1d1"
     inkscape:document-units="mm"
     showgrid="false"
     inkscape:zoom="0.37950337"
     inkscape:cx="2338.5827"
     inkscape:cy="1067.1842"
     inkscape:window-width="2400"
     inkscape:window-height="1434"
     inkscape:window-x="2391"
     inkscape:window-y="-9"
     inkscape:window-maximized="1"
     inkscape:current-layer="svg2" />
  <!-- Working space 10 10 410 287 -->
  <!-- Title block 220 227 410 287 -->
  <metadata
     id="metadata849">
    <rdf:RDF>
      <cc:Work
         rdf:about="">
        <dc:format>image/svg+xml</dc:format>
        <dc:type
           rdf:resource="http://purl.org/dc/dcmitype/StillImage" />
      </cc:Work>
    </rdf:RDF>
  </metadata>
  <defs
     id="defs847">
    <linearGradient
       gradientUnits="userSpaceOnUse"
       id="defitem29"
       y2="485.909"
       x2="655.35199"
       y1="807.466"
       x1="649.42902">
      <stop
         id="stop92"
         offset="0.0000000"
         style="stop-color:#ffffff;stop-opacity:1.0000000;" />
      <stop
         id="stop93"
         offset="1.0000000"
         style="stop-color:#ffffff;stop-opacity:0.13756600;" />
    </linearGradient>
    <linearGradient
       xlink:href="#defitem29"
       id="linearGradient3448"
       gradientUnits="userSpaceOnUse"
       x1="649.42902"
       y1="807.466"
       x2="655.35199"
       y2="485.909" />
    <radialGradient
       gradientUnits="userSpaceOnUse"
       id="defitem28"
       fy="345.56"
       fx="1049.72"
       r="1202.15"
       cy="345.56"
       cx="1049.72">
      <stop
         id="stop89"
         offset="0.0000000"
         style="stop-color:#ffffff;stop-opacity:1.0000000;" />
      <stop
         id="stop90"
         offset="1.0000000"
         style="stop-color:#a8a8a8;stop-opacity:1.0000000;" />
    </radialGradient>
    <radialGradient
       xlink:href="#defitem28"
       id="radialGradient3446"
       gradientUnits="userSpaceOnUse"
       cx="1092.7045"
       cy="64.845284"
       fx="1089.4004"
       fy="64.844765"
       r="1202.15" />
    <linearGradient
       gradientUnits="userSpaceOnUse"
       id="defitem30"
       y2="636.70697"
       x2="980"
       y1="636.70697"
       x1="287.5">
      <stop
         id="stop95"
         offset="0.0000000"
         style="stop-color:#464646;stop-opacity:1.0000000;" />
      <stop
         id="stop96"
         offset="1.0000000"
         style="stop-color:#c2c2c2;stop-opacity:1.0000000;" />
    </linearGradient>
    <linearGradient
       xlink:href="#defitem30"
       id="linearGradient3444"
       gradientUnits="userSpaceOnUse"
       gradientTransform="matrix(1,0,0,1.016038,0,-11.73855)"
       x1="287.5"
       y1="636.70697"
       x2="980"
       y2="636.70697" />
    <linearGradient
       gradientUnits="userSpaceOnUse"
       id="defitem27"
       y2="317.44699"
       x2="985.98199"
       y1="403.18799"
       x1="921.091">
      <stop
         id="stop86"
         offset="0.0000000"
         style="stop-color:#7e7e7e;stop-opacity:1.0000000;" />
      <stop
         id="stop87"
         offset="1.0000000"
         style="stop-color:#e5e5e5;stop-opacity:1.0000000;" />
    </linearGradient>
    <linearGradient
       xlink:href="#defitem27"
       id="linearGradient3442"
       gradientUnits="userSpaceOnUse"
       x1="921.091"
       y1="403.18799"
       x2="985.98199"
       y2="317.44699" />
    <linearGradient
       gradientUnits="userSpaceOnUse"
       id="defitem26"
       y2="360.27499"
       x2="293.37"
       y1="346.30399"
       x1="530.76099">
      <stop
         id="stop83"
         offset="0.0000000"
         style="stop-color:#5f5f5f;stop-opacity:1.0000000;" />
      <stop
         id="stop84"
         offset="1.0000000"
         style="stop-color:#e5e5e5;stop-opacity:1.0000000;" />
    </linearGradient>
    <linearGradient
       xlink:href="#defitem26"
       id="linearGradient3440"
       gradientUnits="userSpaceOnUse"
       x1="530.76099"
       y1="346.30399"
       x2="293.37"
       y2="360.27499" />
    <linearGradient
       gradientUnits="userSpaceOnUse"
       id="defitem25"
       y2="337.60999"
       x2="308.75"
       y1="412.91901"
       x1="164.013">
      <stop
         id="stop80"
         offset="0.0000000"
         style="stop-color:#ffffff;stop-opacity:1.0000000;" />
      <stop
         id="stop81"
         offset="1.0000000"
         style="stop-color:#bfbfbf;stop-opacity:1.0000000;" />
    </linearGradient>
    <linearGradient
       xlink:href="#defitem25"
       id="linearGradient3438"
       gradientUnits="userSpaceOnUse"
       x1="164.013"
       y1="412.91901"
       x2="308.75"
       y2="337.60999" />
    <linearGradient
       gradientUnits="userSpaceOnUse"
       id="defitem24"
       y2="380.47198"
       x2="992.48901"
       y1="270.854"
       x1="1094.25">
      <stop
         id="stop77"
         offset="0.0000000"
         style="stop-color:#6a6a6a;stop-opacity:1.0000000;" />
      <stop
         id="stop78"
         offset="1.0000000"
         style="stop-color:#e6e6e6;stop-opacity:1.0000000;" />
    </linearGradient>
    <linearGradient
       xlink:href="#defitem24"
       id="linearGradient3436"
       gradientUnits="userSpaceOnUse"
       x1="1094.25"
       y1="270.854"
       x2="992.48901"
       y2="380.47198" />
    <linearGradient
       gradientUnits="userSpaceOnUse"
       id="defitem23"
       y2="549.37799"
       x2="1049.84"
       y1="476.465"
       x1="1170.91">
      <stop
         id="stop74"
         offset="0.0000000"
         style="stop-color:#5f5f5f;stop-opacity:1.0000000;" />
      <stop
         id="stop75"
         offset="1.0000000"
         style="stop-color:#ebebeb;stop-opacity:1.0000000;" />
    </linearGradient>
    <linearGradient
       xlink:href="#defitem23"
       id="linearGradient3434"
       gradientUnits="userSpaceOnUse"
       x1="1170.91"
       y1="476.465"
       x2="1049.84"
       y2="549.37799" />
    <linearGradient
       gradientUnits="userSpaceOnUse"
       id="defitem22"
       y2="313.276"
       x2="576.14899"
       y1="105.486"
       x1="783.716">
      <stop
         id="stop71"
         offset="0.0000000"
         style="stop-color:#5a5a5a;stop-opacity:1.0000000;" />
      <stop
         id="stop72"
         offset="1.0000000"
         style="stop-color:#c7c7c7;stop-opacity:1.0000000;" />
    </linearGradient>
    <linearGradient
       xlink:href="#defitem22"
       id="linearGradient3432"
       gradientUnits="userSpaceOnUse"
       x1="783.716"
       y1="105.486"
       x2="576.14899"
       y2="313.276" />
    <linearGradient
       gradientUnits="userSpaceOnUse"
       id="defitem21"
       y2="484.716"
       x2="128.05499"
       y1="418.698"
       x1="280.04401">
      <stop
         id="stop68"
         offset="0.0000000"
         style="stop-color:#666666;stop-opacity:1.0000000;" />
      <stop
         id="stop69"
         offset="1.0000000"
         style="stop-color:#d8d8d8;stop-opacity:1.0000000;" />
    </linearGradient>
    <linearGradient
       xlink:href="#defitem21"
       id="linearGradient3430"
       gradientUnits="userSpaceOnUse"
       x1="280.04401"
       y1="418.698"
       x2="128.05499"
       y2="484.716" />
    <linearGradient
       gradientUnits="userSpaceOnUse"
       id="defitem20"
       y2="584.40997"
       x2="220"
       y1="636.95398"
       x1="129.687">
      <stop
         id="stop65"
         offset="0.0000000"
         style="stop-color:#ffffff;stop-opacity:1.0000000;" />
      <stop
         id="stop66"
         offset="1.0000000"
         style="stop-color:#bbbbbb;stop-opacity:1.0000000;" />
    </linearGradient>
    <linearGradient
       xlink:href="#defitem20"
       id="linearGradient3428"
       gradientUnits="userSpaceOnUse"
       x1="129.687"
       y1="636.95398"
       x2="220"
       y2="584.40997" />
    <linearGradient
       gradientUnits="userSpaceOnUse"
       id="defitem19"
       y2="583.75299"
       x2="1127.98"
       y1="629.02802"
       x1="1048.72">
      <stop
         id="stop62"
         offset="0.0000000"
         style="stop-color:#5e5e5e;stop-opacity:1.0000000;" />
      <stop
         id="stop63"
         offset="1.0000000"
         style="stop-color:#ededed;stop-opacity:1.0000000;" />
    </linearGradient>
    <linearGradient
       xlink:href="#defitem19"
       id="linearGradient3426"
       gradientUnits="userSpaceOnUse"
       x1="1048.72"
       y1="629.02802"
       x2="1127.98"
       y2="583.75299" />
    <linearGradient
       gradientUnits="userSpaceOnUse"
       id="defitem18"
       y2="291.97699"
       x2="581.32397"
       y1="387.27301"
       x1="370.022">
      <stop
         id="stop59"
         offset="0.0000000"
         style="stop-color:#636363;stop-opacity:1.0000000;" />
      <stop
         id="stop60"
         offset="1.0000000"
         style="stop-color:#d6d6d6;stop-opacity:1.0000000;" />
    </linearGradient>
    <linearGradient
       xlink:href="#defitem18"
       id="linearGradient3424"
       gradientUnits="userSpaceOnUse"
       x1="370.022"
       y1="387.27301"
       x2="581.32397"
       y2="291.97699" />
    <linearGradient
       gradientUnits="userSpaceOnUse"
       id="defitem17"
       y2="351.939"
       x2="909.59399"
       y1="351.939"
       x1="732.15601">
      <stop
         id="stop56"
         offset="0.0000000"
         style="stop-color:#676767;stop-opacity:1.0000000;" />
      <stop
         id="stop57"
         offset="1.0000000"
         style="stop-color:#d3d3d3;stop-opacity:1.0000000;" />
    </linearGradient>
    <linearGradient
       xlink:href="#defitem17"
       id="linearGradient3422"
       gradientUnits="userSpaceOnUse"
       x1="732.15601"
       y1="351.939"
       x2="909.59399"
       y2="351.939" />
    <linearGradient
       gradientUnits="userSpaceOnUse"
       id="defitem16"
       y2="494.71301"
       x2="1073.01"
       y1="494.71301"
       x1="1014.43">
      <stop
         id="stop53"
         offset="0.0000000"
         style="stop-color:#666666;stop-opacity:1.0000000;" />
      <stop
         id="stop54"
         offset="1.0000000"
         style="stop-color:#dcdcdc;stop-opacity:1.0000000;" />
    </linearGradient>
    <linearGradient
       xlink:href="#defitem16"
       id="linearGradient3420"
       gradientUnits="userSpaceOnUse"
       x1="1014.43"
       y1="494.71301"
       x2="1073.01"
       y2="494.71301" />
    <linearGradient
       gradientUnits="userSpaceOnUse"
       id="defitem15"
       y2="516.37"
       x2="193.27699"
       y1="452.388"
       x1="272.59201">
      <stop
         id="stop50"
         offset="0.0000000"
         style="stop-color:#6e6e6e;stop-opacity:1.0000000;" />
      <stop
         id="stop51"
         offset="1.0000000"
         style="stop-color:#d8d8d8;stop-opacity:1.0000000;" />
    </linearGradient>
    <linearGradient
       xlink:href="#defitem15"
       id="linearGradient3418"
       gradientUnits="userSpaceOnUse"
       x1="272.59201"
       y1="452.388"
       x2="193.27699"
       y2="516.37" />
    <radialGradient
       gradientUnits="userSpaceOnUse"
       id="defitem14"
       fy="211.088"
       fx="1037.22"
       r="1164.28"
       cy="211.088"
       cx="1037.22">
      <stop
         id="stop47"
         offset="0.0000000"
         style="stop-color:#ffffff;stop-opacity:1.0000000;" />
      <stop
         id="stop48"
         offset="1.0000000"
         style="stop-color:#aaaaaa;stop-opacity:1.0000000;" />
    </radialGradient>
    <radialGradient
       xlink:href="#defitem14"
       id="radialGradient3416"
       gradientUnits="userSpaceOnUse"
       cx="1037.22"
       cy="211.088"
       fx="1037.22"
       fy="211.088"
       r="1164.28" />
    <linearGradient
       gradientUnits="userSpaceOnUse"
       id="defitem13"
       y2="686.83002"
       x2="379.241"
       y1="732.12903"
       x1="342.64999">
      <stop
         id="stop44"
         offset="0.0000000"
         style="stop-color:#ffffff;stop-opacity:1.0000000;" />
      <stop
         id="stop45"
         offset="1.0000000"
         style="stop-color:#989898;stop-opacity:1.0000000;" />
    </linearGradient>
    <linearGradient
       xlink:href="#defitem13"
       id="linearGradient3414"
       gradientUnits="userSpaceOnUse"
       x1="342.64999"
       y1="732.12903"
       x2="379.241"
       y2="686.83002" />
    <radialGradient
       gradientUnits="userSpaceOnUse"
       id="defitem12"
       fy="484.409"
       fx="632.78101"
       r="540.27899"
       cy="484.409"
       cx="632.78101">
      <stop
         id="stop41"
         offset="0.0000000"
         style="stop-color:#ffffff;stop-opacity:1.0000000;" />
      <stop
         id="stop42"
         offset="1.0000000"
         style="stop-color:#ededed;stop-opacity:1.0000000;" />
    </radialGradient>
    <radialGradient
       xlink:href="#defitem12"
       id="radialGradient3412"
       gradientUnits="userSpaceOnUse"
       cx="632.78101"
       cy="484.409"
       fx="632.78101"
       fy="484.409"
       r="540.27899" />
    <radialGradient
       xlink:href="#linearGradient3682"
       id="radialGradient3817"
       gradientUnits="userSpaceOnUse"
       gradientTransform="matrix(1.1149219,0.2722306,-0.7507171,3.0745639,-471.08629,-148.32863)"
       cx="270.58316"
       cy="33.899986"
       fx="270.58316"
       fy="33.899986"
       r="19.571428" />
    <linearGradient
       id="linearGradient3682">
      <stop
         style="stop-color:#ff6d0f;stop-opacity:1;"
         offset="0"
         id="stop3684" />
      <stop
         style="stop-color:#ff1000;stop-opacity:1;"
         offset="1"
         id="stop3686" />
    </linearGradient>
    <radialGradient
       xlink:href="#linearGradient3864"
       id="radialGradient3661"
       gradientUnits="userSpaceOnUse"
       gradientTransform="matrix(0.6186598,0.9666542,-1.0332462,0.6612786,-327.27568,-255.84136)"
       cx="282.64584"
       cy="29.149046"
       fx="282.64584"
       fy="29.149046"
       r="19.571428" />
    <linearGradient
       id="linearGradient3864">
      <stop
         id="stop3866"
         offset="0"
         style="stop-color:#71b2f8;stop-opacity:1;" />
      <stop
         id="stop3868"
         offset="1"
         style="stop-color:#002795;stop-opacity:1;" />
    </linearGradient>
  </defs>
  <path
     id="path807"
     style="color:#000000;fill:#c8c8c8;fill-opacity:1;stroke:#000000;stroke-opacity:1;-inkscape-stroke:none"
     d="m 151.62973,30.210319 -5.31027,0.302824 -5.30872,0.322461 -5.30665,0.343648 -5.30666,0.365353 -5.30458,0.384472 -5.30304,0.406177 -5.30045,0.427881 -5.30097,0.447001 -5.29683,0.469222 -5.29684,0.489893 -5.29476,0.510046 -5.29115,0.531234 -5.28909,0.550871 -5.28908,0.572058 c -11.63631,1.282987 -23.25406,2.715885 -34.85369,4.298962 l -0.67541,0.09147 0.0465,0.347782 h -0.34933 v 7.187675 h 0.006 C 6.76997,124.71375 6.76997,212.4962 41.60471,288.9506 h -0.006 v 7.18767 h 0.34933 l -0.0465,0.34727 0.67541,0.092 c 11.59962,1.58307 23.21738,3.01597 34.85369,4.29896 l 5.28908,0.57206 5.28909,0.55087 5.29115,0.53124 5.29476,0.51159 5.29684,0.48834 5.29683,0.46871 5.30097,0.44752 5.30045,0.42788 5.30304,0.40617 5.30458,0.38448 5.30666,0.36535 5.30665,0.34365 5.30872,0.32246 5.31027,0.30282 0.0196,-0.34985 v 0.34985 h 148.89065 v -0.34985 l 0.0196,0.34985 5.31027,-0.30282 5.30872,-0.32246 5.30665,-0.34365 5.30665,-0.36535 5.30459,-0.38448 5.30304,-0.40617 5.30045,-0.42788 5.30097,-0.44752 5.29683,-0.46871 5.29683,-0.48834 5.29477,-0.51159 5.29115,-0.53124 5.29115,-0.55087 5.28495,-0.57206 -0.0372,-0.34778 0.0393,0.34778 c 11.50559,-1.26899 22.99343,-2.68311 34.46301,-4.24418 l 0.66404,-0.092 -0.047,-0.34571 h 0.34985 v -7.244 h -0.004 c 34.83471,-76.45437 34.83471,-164.23689 0,-240.691251 h 0.004 V 41.01484 h -0.34985 l 0.047,-0.345199 -0.66404,-0.09198 c -11.46957,-1.561083 -22.95741,-2.975214 -34.463,-4.244201 l -0.0393,0.347782 0.0372,-0.347782 -5.28495,-0.572058 -5.29115,-0.550871 -5.29115,-0.531234 -5.29477,-0.510046 -5.29683,-0.489893 -5.29683,-0.469222 -5.30097,-0.447001 -5.30045,-0.427881 -5.30304,-0.406177 -5.30459,-0.384472 -5.30665,-0.365353 -5.30665,-0.343648 -5.30872,-0.322461 -5.31027,-0.302824 -0.0196,0.34985 v -0.34985 H 151.64937 v 0.34985 z M 42.50977,87.409412 h 0.13281 19.90215 v 0.351916 l 0.34985,0.01344 -0.48266,11.542965 -0.41186,11.542967 -0.33435,11.54503 -0.26148,11.54865 -0.18965,11.54917 -0.11111,11.55071 -0.0408,11.55072 0.0351,11.55072 0.10904,11.55071 0.18397,11.54864 0.25579,11.5471 0.33177,11.5471 0.40462,11.54296 0.48008,11.54297 -0.34933,0.0134 v 0.3514 H 42.64257 42.50976 v -0.70073 h 0.13281 0.0232 c -20.81399,-51.64581 -20.81399,-109.3428 0,-160.988615 h -0.0232 -0.13281 z m 346.7344,0 h 19.90421 0.13074 v 0.701249 h -0.13074 -0.0253 c 20.814,51.645859 20.814,109.342759 0,160.988619 h 0.0253 0.13074 v 0.70073 h -0.13074 -19.87321 v -0.3514 l -0.34933,-0.0134 0.48059,-11.54297 0.40411,-11.54296 0.33228,-11.5471 0.25735,-11.5471 0.1819,-11.54865 0.10955,-11.55071 0.0351,-11.55072 -0.0393,-11.55072 -0.11317,-11.55071 -0.18759,-11.54917 -0.262,-11.54864 -0.33589,-11.54504 -0.4098,-11.542961 -0.48472,-11.542965 0.34985,-0.01344 z" />
  <path
     style="color:#000000;fill:#c8c8c8;fill-opacity:1;stroke:#000000;stroke-opacity:1;-inkscape-stroke:none"
     d="m 0.85156,103.75537 v 0.34961 H 0.5 v 129 h 0.35156 v 0.34961 h 0.0566 0.17383 0.28906 0.4043 0.51953 0.63672 0.75195 0.86719 0.98047 1.0957 1.21289 1.32618 1.44335 1.55665 53.92382 49.25782 46.20312 128.68945 46.20313 49.25586 53.92383 1.55859 1.44141 1.32617 1.21289 1.09766 0.98046 0.86719 0.75 0.63672 0.51953 0.4043 0.28906 0.17383 0.0586 v -0.34961 h 0.34961 v -129 h -0.34961 v -0.34961 h -0.0586 -0.17383 -0.28906 -0.4043 -0.51953 -0.63672 -0.75 -0.86719 -0.98046 -1.09766 -1.21289 -1.32617 -1.44141 -1.55859 H 385.69918 336.44332 290.24019 161.55074 115.34762 66.0898 12.16598 10.60933 9.16598 7.8398 6.62691 5.53121 4.55074 3.68355 2.9316 2.29488 1.77535 1.37105 1.08199 0.90816 Z"
     id="path317" />
  <g
     id="g2263"
     transform="translate(-63.88683,17.310251)"
     style="stroke-width:1;stroke-dasharray:none">
    <path
       d="m 76.05251,86.79473 c 0.626,0.0031 1.267,0.4558 1.921,1.3582 0.328,0.449 0.658,1.0101 0.991,1.6833 0.334,0.6768 0.667,1.459 0.999,2.3469 0.662,1.7666 1.306,3.9314 1.932,6.4946 0.628,2.5706 1.232,5.5308 1.785,8.8142"
       id="path266"
       style="fill:none;stroke:#000000;stroke-width:1;stroke-linecap:butt;stroke-linejoin:miter;stroke-dasharray:none" />
    <path
       d="m 83.68051,107.49193 1.194,1.2461 1.159,1.2749 1.123,1.3028 1.087,1.3298 1.05,1.356 1.012,1.3813 0.973,1.4055 0.935,1.4288 0.894,1.4513 0.854,1.4726 0.813,1.493 0.772,1.5124 0.729,1.5308 0.687,1.5481"
       id="path268"
       style="fill:none;stroke:#000000;stroke-width:1;stroke-linecap:butt;stroke-linejoin:miter;stroke-dasharray:none" />
    <path
       d="m 96.96251,127.22533 4.5,1.6434 4.18,1.6601 3.857,1.6756 3.532,1.6898 3.203,1.7029 2.873,1.7145 2.54,1.725 2.204,1.7341 1.869,1.74198 1.531,1.74853 1.191,1.75377 0.852,1.75772 0.511,1.76034 0.171,1.76166"
       id="path270"
       style="fill:none;stroke:#000000;stroke-width:1;stroke-linecap:butt;stroke-linejoin:miter;stroke-dasharray:none" />
    <path
       d="m 76.05251,215.79473 c 0.626,-0.003 1.267,-0.4558 1.921,-1.3582 0.328,-0.449 0.658,-1.0101 0.991,-1.6833 0.334,-0.6768 0.667,-1.459 0.999,-2.3469 0.662,-1.7666 1.306,-3.9314 1.932,-6.4946 0.628,-2.5706 1.232,-5.5308 1.785,-8.8142"
       id="path285"
       style="fill:none;stroke:#000000;stroke-width:1;stroke-linecap:butt;stroke-linejoin:miter;stroke-dasharray:none" />
    <path
       d="m 96.96251,175.36413 4.5,-1.6434 4.18,-1.6601 3.857,-1.6756 3.532,-1.6898 3.203,-1.7029 2.873,-1.7145 2.54,-1.725 2.204,-1.7341 1.869,-1.74198 1.531,-1.74853 1.191,-1.75377 0.852,-1.75772 0.511,-1.76034 0.171,-1.76166"
       id="path289"
       style="fill:none;stroke:#000000;stroke-width:1;stroke-linecap:butt;stroke-linejoin:miter;stroke-dasharray:none" />
    <path
       d="m 83.68051,195.09753 1.194,-1.2461 1.159,-1.2749 1.123,-1.3028 1.087,-1.3298 1.05,-1.356 1.012,-1.3813 0.973,-1.4055 0.935,-1.4288 0.894,-1.4513 0.854,-1.4726 0.813,-1.493 0.772,-1.5124 0.729,-1.5308 0.687,-1.5481"
       id="path291"
       style="fill:none;stroke:#000000;stroke-width:1;stroke-linecap:butt;stroke-linejoin:miter;stroke-dasharray:none" />
    <path
       d="m 495.88251,195.09753 c 0.554,3.2875 1.147,6.199 1.77,8.7544 0.621,2.5529 1.279,4.7615 1.942,6.5413 0.662,1.7751 1.321,3.1159 1.98,4.0223 0.659,0.9112 1.312,1.3819 1.936,1.3792"
       id="path295"
       style="fill:none;stroke:#000000;stroke-width:1;stroke-linecap:butt;stroke-linejoin:miter;stroke-dasharray:none" />
    <path
       d="m 482.60051,175.36413 0.687,1.5481 0.729,1.5308 0.772,1.5124 0.813,1.493 0.854,1.4726 0.894,1.4513 0.935,1.4288 0.973,1.4055 1.012,1.3813 1.05,1.356 1.087,1.3298 1.123,1.3028 1.159,1.2749 1.194,1.2461"
       id="path297"
       style="fill:none;stroke:#000000;stroke-width:1;stroke-linecap:butt;stroke-linejoin:miter;stroke-dasharray:none" />
    <path
       d="m 449.58651,151.29473 0.171,1.76166 0.511,1.76034 0.852,1.75772 1.191,1.75377 1.531,1.74853 1.869,1.74198 2.204,1.7341 2.54,1.725 2.873,1.7145 3.203,1.7029 3.532,1.6898 3.857,1.6756 4.18,1.6601 4.5,1.6434"
       id="path299"
       style="fill:none;stroke:#000000;stroke-width:1;stroke-linecap:butt;stroke-linejoin:miter;stroke-dasharray:none" />
    <path
       d="m 449.58651,151.29473 0.171,-1.76166 0.511,-1.76034 0.852,-1.75772 1.191,-1.75377 1.531,-1.74853 1.869,-1.74198 2.204,-1.7341 2.54,-1.725 2.873,-1.7145 3.203,-1.7029 3.532,-1.6898 3.857,-1.6756 4.18,-1.6601 4.5,-1.6434"
       id="path304"
       style="fill:none;stroke:#000000;stroke-width:1;stroke-linecap:butt;stroke-linejoin:miter;stroke-dasharray:none" />
    <path
       d="m 482.60051,127.22533 0.687,-1.5481 0.729,-1.5308 0.772,-1.5124 0.813,-1.493 0.854,-1.4726 0.894,-1.4513 0.935,-1.4288 0.973,-1.4055 1.012,-1.3813 1.05,-1.356 1.087,-1.3298 1.123,-1.3028 1.159,-1.2749 1.194,-1.2461"
       id="path306"
       style="fill:none;stroke:#000000;stroke-width:1;stroke-linecap:butt;stroke-linejoin:miter;stroke-dasharray:none" />
    <path
       d="m 495.88251,107.49193 c 0.554,-3.2875 1.147,-6.199 1.77,-8.7544 0.621,-2.5529 1.279,-4.7615 1.942,-6.5413 0.662,-1.7751 1.321,-3.1159 1.98,-4.0223 0.659,-0.9112 1.312,-1.3819 1.936,-1.3792"
       id="path308"
       style="fill:none;stroke:#000000;stroke-width:1;stroke-linecap:butt;stroke-linejoin:miter;stroke-dasharray:none" />
    <path
       id="35"
       d="m 495.88251,195.09753 v -87.6056"
       style="fill:none;stroke:#000000;stroke-width:1;stroke-linecap:butt;stroke-linejoin:miter;stroke-dasharray:none" />
    <path
       id="36"
       d="m 482.60051,175.36413 v -48.1388"
       style="fill:none;stroke:#000000;stroke-width:1;stroke-linecap:butt;stroke-linejoin:miter;stroke-dasharray:none" />
    <path
       id="37"
       d="m 83.68051,195.09753 v -87.6056"
       style="fill:none;stroke:#000000;stroke-width:1;stroke-linecap:butt;stroke-linejoin:miter;stroke-dasharray:none" />
    <path
       id="38"
       d="m 96.96251,175.36413 v -48.1388"
       style="fill:none;stroke:#000000;stroke-width:1;stroke-linecap:butt;stroke-linejoin:miter;stroke-dasharray:none" />
  </g>
  <path
     style="color:#000000;fill:#c8c8c8;fill-opacity:1;stroke:#000000;stroke-width:1;stroke-dasharray:none;stroke-opacity:1"
     d="m 57.78952,168.60499 c 0,19.75495 3.5835,38.63026 9.84372,56.23813 h -0.13672 v 1.42968 1.33398 1.23633 1.13476 1.0332 0.92773 0.82422 0.71485 0.60937 0.49804 0.38867 0.2793 0.16601 0.0566 h 0.34961 v 0.34961 h 4.01562 c 25.94639,59.35974 85.11015,100.88449 154.03277,100.88449 68.92261,0 128.08639,-41.52475 154.03277,-100.88449 h 4.01562 v -0.34961 h 0.34961 v -0.0566 -0.16601 -0.2793 -0.38867 -0.49804 -0.60937 -0.71485 -0.82421 -0.92774 -1.0332 -1.13476 -1.23633 -1.33398 -1.42968 h -0.13672 c 6.26023,-17.60787 9.84372,-36.48318 9.84372,-56.23813 0,-19.75493 -3.58349,-38.63024 -9.84372,-56.23811 h 0.13672 v -1.42969 -1.33398 -1.23632 -1.13477 -1.0332 -0.92773 -0.82422 -0.71484 -0.60937 -0.49805 -0.38867 -0.27929 -0.16602 -0.0566 h -0.34961 v -0.34961 h -4.01562 C 353.98091,42.024742 294.81713,0.5 225.89452,0.5 156.9719,0.5 97.80814,42.024742 71.86175,101.38448 h -4.01562 v 0.34961 h -0.34961 v 0.0566 0.16602 0.27929 0.38867 0.49805 0.60937 0.71484 0.82422 0.92773 1.0332 1.13476 1.23633 1.33398 1.42968 h 0.13672 c -6.26022,17.60788 -9.84372,36.48319 -9.84372,56.23812 z"
     id="path1236" />
</svg>
