<?xml version="1.0" encoding="UTF-8" standalone="no"?>
<svg
   id="svg2"
   version="1.1"
   viewBox="0 0 545.00001 502.27138"
   height="502.27139mm"
   width="545mm"
   sodipodi:docname="base.svg"
   inkscape:version="1.2.1 (9c6d41e410, 2022-07-14)"
   xmlns:inkscape="http://www.inkscape.org/namespaces/inkscape"
   xmlns:sodipodi="http://sodipodi.sourceforge.net/DTD/sodipodi-0.dtd"
   xmlns:xlink="http://www.w3.org/1999/xlink"
   xmlns="http://www.w3.org/2000/svg"
   xmlns:svg="http://www.w3.org/2000/svg"
   xmlns:rdf="http://www.w3.org/1999/02/22-rdf-syntax-ns#"
   xmlns:cc="http://creativecommons.org/ns#"
   xmlns:dc="http://purl.org/dc/elements/1.1/">
  <sodipodi:namedview
     id="namedview2561"
     pagecolor="#ffffff"
     bordercolor="#666666"
     borderopacity="1.0"
     inkscape:showpageshadow="2"
     inkscape:pageopacity="0.0"
     inkscape:pagecheckerboard="0"
     inkscape:deskcolor="#d1d1d1"
     inkscape:document-units="mm"
     showgrid="false"
     inkscape:zoom="0.21090438"
     inkscape:cx="237.07426"
     inkscape:cy="1586.0268"
     inkscape:window-width="1920"
     inkscape:window-height="1035"
     inkscape:window-x="0"
     inkscape:window-y="45"
     inkscape:window-maximized="1"
     inkscape:current-layer="svg2"
     showguides="true" />
  <!-- Working space 10 10 410 287 -->
  <!-- Title block 220 227 410 287 -->
  <metadata
     id="metadata849">
    <rdf:RDF>
      <cc:Work
         rdf:about="">
        <dc:format>image/svg+xml</dc:format>
        <dc:type
           rdf:resource="http://purl.org/dc/dcmitype/StillImage" />
      </cc:Work>
    </rdf:RDF>
  </metadata>
  <defs
     id="defs847">
    <linearGradient
       gradientUnits="userSpaceOnUse"
       id="defitem29"
       y2="485.909"
       x2="655.35199"
       y1="807.466"
       x1="649.42902">
      <stop
         id="stop92"
         offset="0.0000000"
         style="stop-color:#ffffff;stop-opacity:1.0000000;" />
      <stop
         id="stop93"
         offset="1.0000000"
         style="stop-color:#ffffff;stop-opacity:0.13756600;" />
    </linearGradient>
    <linearGradient
       xlink:href="#defitem29"
       id="linearGradient3448"
       gradientUnits="userSpaceOnUse"
       x1="649.42902"
       y1="807.466"
       x2="655.35199"
       y2="485.909" />
    <radialGradient
       gradientUnits="userSpaceOnUse"
       id="defitem28"
       fy="345.56"
       fx="1049.72"
       r="1202.15"
       cy="345.56"
       cx="1049.72">
      <stop
         id="stop89"
         offset="0.0000000"
         style="stop-color:#ffffff;stop-opacity:1.0000000;" />
      <stop
         id="stop90"
         offset="1.0000000"
         style="stop-color:#a8a8a8;stop-opacity:1.0000000;" />
    </radialGradient>
    <radialGradient
       xlink:href="#defitem28"
       id="radialGradient3446"
       gradientUnits="userSpaceOnUse"
       cx="1092.7045"
       cy="64.845284"
       fx="1089.4004"
       fy="64.844765"
       r="1202.15" />
    <linearGradient
       gradientUnits="userSpaceOnUse"
       id="defitem30"
       y2="636.70697"
       x2="980"
       y1="636.70697"
       x1="287.5">
      <stop
         id="stop95"
         offset="0.0000000"
         style="stop-color:#464646;stop-opacity:1.0000000;" />
      <stop
         id="stop96"
         offset="1.0000000"
         style="stop-color:#c2c2c2;stop-opacity:1.0000000;" />
    </linearGradient>
    <linearGradient
       xlink:href="#defitem30"
       id="linearGradient3444"
       gradientUnits="userSpaceOnUse"
       gradientTransform="matrix(1,0,0,1.016038,0,-11.73855)"
       x1="287.5"
       y1="636.70697"
       x2="980"
       y2="636.70697" />
    <linearGradient
       gradientUnits="userSpaceOnUse"
       id="defitem27"
       y2="317.44699"
       x2="985.98199"
       y1="403.18799"
       x1="921.091">
      <stop
         id="stop86"
         offset="0.0000000"
         style="stop-color:#7e7e7e;stop-opacity:1.0000000;" />
      <stop
         id="stop87"
         offset="1.0000000"
         style="stop-color:#e5e5e5;stop-opacity:1.0000000;" />
    </linearGradient>
    <linearGradient
       xlink:href="#defitem27"
       id="linearGradient3442"
       gradientUnits="userSpaceOnUse"
       x1="921.091"
       y1="403.18799"
       x2="985.98199"
       y2="317.44699" />
    <linearGradient
       gradientUnits="userSpaceOnUse"
       id="defitem26"
       y2="360.27499"
       x2="293.37"
       y1="346.30399"
       x1="530.76099">
      <stop
         id="stop83"
         offset="0.0000000"
         style="stop-color:#5f5f5f;stop-opacity:1.0000000;" />
      <stop
         id="stop84"
         offset="1.0000000"
         style="stop-color:#e5e5e5;stop-opacity:1.0000000;" />
    </linearGradient>
    <linearGradient
       xlink:href="#defitem26"
       id="linearGradient3440"
       gradientUnits="userSpaceOnUse"
       x1="530.76099"
       y1="346.30399"
       x2="293.37"
       y2="360.27499" />
    <linearGradient
       gradientUnits="userSpaceOnUse"
       id="defitem25"
       y2="337.60999"
       x2="308.75"
       y1="412.91901"
       x1="164.013">
      <stop
         id="stop80"
         offset="0.0000000"
         style="stop-color:#ffffff;stop-opacity:1.0000000;" />
      <stop
         id="stop81"
         offset="1.0000000"
         style="stop-color:#bfbfbf;stop-opacity:1.0000000;" />
    </linearGradient>
    <linearGradient
       xlink:href="#defitem25"
       id="linearGradient3438"
       gradientUnits="userSpaceOnUse"
       x1="164.013"
       y1="412.91901"
       x2="308.75"
       y2="337.60999" />
    <linearGradient
       gradientUnits="userSpaceOnUse"
       id="defitem24"
       y2="380.47198"
       x2="992.48901"
       y1="270.854"
       x1="1094.25">
      <stop
         id="stop77"
         offset="0.0000000"
         style="stop-color:#6a6a6a;stop-opacity:1.0000000;" />
      <stop
         id="stop78"
         offset="1.0000000"
         style="stop-color:#e6e6e6;stop-opacity:1.0000000;" />
    </linearGradient>
    <linearGradient
       xlink:href="#defitem24"
       id="linearGradient3436"
       gradientUnits="userSpaceOnUse"
       x1="1094.25"
       y1="270.854"
       x2="992.48901"
       y2="380.47198" />
    <linearGradient
       gradientUnits="userSpaceOnUse"
       id="defitem23"
       y2="549.37799"
       x2="1049.84"
       y1="476.465"
       x1="1170.91">
      <stop
         id="stop74"
         offset="0.0000000"
         style="stop-color:#5f5f5f;stop-opacity:1.0000000;" />
      <stop
         id="stop75"
         offset="1.0000000"
         style="stop-color:#ebebeb;stop-opacity:1.0000000;" />
    </linearGradient>
    <linearGradient
       xlink:href="#defitem23"
       id="linearGradient3434"
       gradientUnits="userSpaceOnUse"
       x1="1170.91"
       y1="476.465"
       x2="1049.84"
       y2="549.37799" />
    <linearGradient
       gradientUnits="userSpaceOnUse"
       id="defitem22"
       y2="313.276"
       x2="576.14899"
       y1="105.486"
       x1="783.716">
      <stop
         id="stop71"
         offset="0.0000000"
         style="stop-color:#5a5a5a;stop-opacity:1.0000000;" />
      <stop
         id="stop72"
         offset="1.0000000"
         style="stop-color:#c7c7c7;stop-opacity:1.0000000;" />
    </linearGradient>
    <linearGradient
       xlink:href="#defitem22"
       id="linearGradient3432"
       gradientUnits="userSpaceOnUse"
       x1="783.716"
       y1="105.486"
       x2="576.14899"
       y2="313.276" />
    <linearGradient
       gradientUnits="userSpaceOnUse"
       id="defitem21"
       y2="484.716"
       x2="128.05499"
       y1="418.698"
       x1="280.04401">
      <stop
         id="stop68"
         offset="0.0000000"
         style="stop-color:#666666;stop-opacity:1.0000000;" />
      <stop
         id="stop69"
         offset="1.0000000"
         style="stop-color:#d8d8d8;stop-opacity:1.0000000;" />
    </linearGradient>
    <linearGradient
       xlink:href="#defitem21"
       id="linearGradient3430"
       gradientUnits="userSpaceOnUse"
       x1="280.04401"
       y1="418.698"
       x2="128.05499"
       y2="484.716" />
    <linearGradient
       gradientUnits="userSpaceOnUse"
       id="defitem20"
       y2="584.40997"
       x2="220"
       y1="636.95398"
       x1="129.687">
      <stop
         id="stop65"
         offset="0.0000000"
         style="stop-color:#ffffff;stop-opacity:1.0000000;" />
      <stop
         id="stop66"
         offset="1.0000000"
         style="stop-color:#bbbbbb;stop-opacity:1.0000000;" />
    </linearGradient>
    <linearGradient
       xlink:href="#defitem20"
       id="linearGradient3428"
       gradientUnits="userSpaceOnUse"
       x1="129.687"
       y1="636.95398"
       x2="220"
       y2="584.40997" />
    <linearGradient
       gradientUnits="userSpaceOnUse"
       id="defitem19"
       y2="583.75299"
       x2="1127.98"
       y1="629.02802"
       x1="1048.72">
      <stop
         id="stop62"
         offset="0.0000000"
         style="stop-color:#5e5e5e;stop-opacity:1.0000000;" />
      <stop
         id="stop63"
         offset="1.0000000"
         style="stop-color:#ededed;stop-opacity:1.0000000;" />
    </linearGradient>
    <linearGradient
       xlink:href="#defitem19"
       id="linearGradient3426"
       gradientUnits="userSpaceOnUse"
       x1="1048.72"
       y1="629.02802"
       x2="1127.98"
       y2="583.75299" />
    <linearGradient
       gradientUnits="userSpaceOnUse"
       id="defitem18"
       y2="291.97699"
       x2="581.32397"
       y1="387.27301"
       x1="370.022">
      <stop
         id="stop59"
         offset="0.0000000"
         style="stop-color:#636363;stop-opacity:1.0000000;" />
      <stop
         id="stop60"
         offset="1.0000000"
         style="stop-color:#d6d6d6;stop-opacity:1.0000000;" />
    </linearGradient>
    <linearGradient
       xlink:href="#defitem18"
       id="linearGradient3424"
       gradientUnits="userSpaceOnUse"
       x1="370.022"
       y1="387.27301"
       x2="581.32397"
       y2="291.97699" />
    <linearGradient
       gradientUnits="userSpaceOnUse"
       id="defitem17"
       y2="351.939"
       x2="909.59399"
       y1="351.939"
       x1="732.15601">
      <stop
         id="stop56"
         offset="0.0000000"
         style="stop-color:#676767;stop-opacity:1.0000000;" />
      <stop
         id="stop57"
         offset="1.0000000"
         style="stop-color:#d3d3d3;stop-opacity:1.0000000;" />
    </linearGradient>
    <linearGradient
       xlink:href="#defitem17"
       id="linearGradient3422"
       gradientUnits="userSpaceOnUse"
       x1="732.15601"
       y1="351.939"
       x2="909.59399"
       y2="351.939" />
    <linearGradient
       gradientUnits="userSpaceOnUse"
       id="defitem16"
       y2="494.71301"
       x2="1073.01"
       y1="494.71301"
       x1="1014.43">
      <stop
         id="stop53"
         offset="0.0000000"
         style="stop-color:#666666;stop-opacity:1.0000000;" />
      <stop
         id="stop54"
         offset="1.0000000"
         style="stop-color:#dcdcdc;stop-opacity:1.0000000;" />
    </linearGradient>
    <linearGradient
       xlink:href="#defitem16"
       id="linearGradient3420"
       gradientUnits="userSpaceOnUse"
       x1="1014.43"
       y1="494.71301"
       x2="1073.01"
       y2="494.71301" />
    <linearGradient
       gradientUnits="userSpaceOnUse"
       id="defitem15"
       y2="516.37"
       x2="193.27699"
       y1="452.388"
       x1="272.59201">
      <stop
         id="stop50"
         offset="0.0000000"
         style="stop-color:#6e6e6e;stop-opacity:1.0000000;" />
      <stop
         id="stop51"
         offset="1.0000000"
         style="stop-color:#d8d8d8;stop-opacity:1.0000000;" />
    </linearGradient>
    <linearGradient
       xlink:href="#defitem15"
       id="linearGradient3418"
       gradientUnits="userSpaceOnUse"
       x1="272.59201"
       y1="452.388"
       x2="193.27699"
       y2="516.37" />
    <radialGradient
       gradientUnits="userSpaceOnUse"
       id="defitem14"
       fy="211.088"
       fx="1037.22"
       r="1164.28"
       cy="211.088"
       cx="1037.22">
      <stop
         id="stop47"
         offset="0.0000000"
         style="stop-color:#ffffff;stop-opacity:1.0000000;" />
      <stop
         id="stop48"
         offset="1.0000000"
         style="stop-color:#aaaaaa;stop-opacity:1.0000000;" />
    </radialGradient>
    <radialGradient
       xlink:href="#defitem14"
       id="radialGradient3416"
       gradientUnits="userSpaceOnUse"
       cx="1037.22"
       cy="211.088"
       fx="1037.22"
       fy="211.088"
       r="1164.28" />
    <linearGradient
       gradientUnits="userSpaceOnUse"
       id="defitem13"
       y2="686.83002"
       x2="379.241"
       y1="732.12903"
       x1="342.64999">
      <stop
         id="stop44"
         offset="0.0000000"
         style="stop-color:#ffffff;stop-opacity:1.0000000;" />
      <stop
         id="stop45"
         offset="1.0000000"
         style="stop-color:#989898;stop-opacity:1.0000000;" />
    </linearGradient>
    <linearGradient
       xlink:href="#defitem13"
       id="linearGradient3414"
       gradientUnits="userSpaceOnUse"
       x1="342.64999"
       y1="732.12903"
       x2="379.241"
       y2="686.83002" />
    <radialGradient
       gradientUnits="userSpaceOnUse"
       id="defitem12"
       fy="484.409"
       fx="632.78101"
       r="540.27899"
       cy="484.409"
       cx="632.78101">
      <stop
         id="stop41"
         offset="0.0000000"
         style="stop-color:#ffffff;stop-opacity:1.0000000;" />
      <stop
         id="stop42"
         offset="1.0000000"
         style="stop-color:#ededed;stop-opacity:1.0000000;" />
    </radialGradient>
    <radialGradient
       xlink:href="#defitem12"
       id="radialGradient3412"
       gradientUnits="userSpaceOnUse"
       cx="632.78101"
       cy="484.409"
       fx="632.78101"
       fy="484.409"
       r="540.27899" />
    <radialGradient
       xlink:href="#linearGradient3682"
       id="radialGradient3817"
       gradientUnits="userSpaceOnUse"
       gradientTransform="matrix(1.1149219,0.2722306,-0.7507171,3.0745639,-471.08629,-148.32863)"
       cx="270.58316"
       cy="33.899986"
       fx="270.58316"
       fy="33.899986"
       r="19.571428" />
    <linearGradient
       id="linearGradient3682">
      <stop
         style="stop-color:#ff6d0f;stop-opacity:1;"
         offset="0"
         id="stop3684" />
      <stop
         style="stop-color:#ff1000;stop-opacity:1;"
         offset="1"
         id="stop3686" />
    </linearGradient>
    <radialGradient
       xlink:href="#linearGradient3864"
       id="radialGradient3661"
       gradientUnits="userSpaceOnUse"
       gradientTransform="matrix(0.6186598,0.9666542,-1.0332462,0.6612786,-327.27568,-255.84136)"
       cx="282.64584"
       cy="29.149046"
       fx="282.64584"
       fy="29.149046"
       r="19.571428" />
    <linearGradient
       id="linearGradient3864">
      <stop
         id="stop3866"
         offset="0"
         style="stop-color:#71b2f8;stop-opacity:1;" />
      <stop
         id="stop3868"
         offset="1"
         style="stop-color:#002795;stop-opacity:1;" />
    </linearGradient>
  </defs>
  <g
     fill="none"
     stroke="#000000"
     stroke-linecap="butt"
     stroke-linejoin="miter"
     stroke-width="1.4"
     transform="matrix(-0.25,0,0,0.25,20.83417,-171.61007)"
     id="g2423" />
  <g
     id="g7328"
     style="stroke:#000000;stroke-width:2;stroke-dasharray:none;stroke-opacity:1"
     transform="translate(-305.0964,-169.05634)">
    <path
       style="color:#000000;fill:#c8c8c8;fill-opacity:1;stroke:#000000;stroke-width:2;stroke-dasharray:none;stroke-opacity:1"
       d="m 352.32887,170.05634 v 0.17578 l -0.17578,-0.006 c -0.0817,3.27841 -0.1527,6.55696 -0.21484,9.83594 h -0.11524 v 0.16797 c 0.004,-0.007 0.0879,-0.14453 0.0879,-0.14453 l -0.0742,0.13476 c -0.003,0.003 -0.0132,0.0113 -0.0137,0.0117 -2e-5,5e-5 10e-6,0.002 0,0.002 0,1e-5 -0.002,0 -0.002,0 h -0.17383 v 50.08594 h -45.37695 v 0.17383 h -0.17383 v 48.07031 293.64844 48.06836 h 0.17383 v 0.17578 h 45.37695 v 49.68164 h 0.18164 v 0.18946 h 49.61133 v -0.17383 h 0.17578 v -4.20508 h 77.46484 v 4.20508 h 0.17383 v 0.17383 h 22.31641 v -0.17383 h 0.17578 v -2.47656 h 150.28516 v 2.47656 h 0.17382 v 0.17383 h 27.01563 v -0.17383 h 0.17383 v -4.20508 h 75.4082 v 4.20508 h 0.17578 v 0.17383 h 48.38281 v -0.18946 h 0.1836 v -49.68164 h 45.37498 v -0.17578 h 0.1758 V 572.21259 278.56415 230.49384 h -0.1758 v -0.17383 h -45.37498 v -50.08593 h -0.16797 l -0.01,-0.0195 v -0.15235 h -0.11523 c -0.0621,-3.27898 -0.13318,-6.55752 -0.21484,-9.83593 l -0.17383,0.004 v -0.17383 z"
       id="path2522" />
    <path
       id="path2522-3"
       style="fill:none;fill-opacity:1;stroke:#000000;stroke-width:2;stroke-linecap:butt;stroke-linejoin:miter;stroke-dasharray:none;stroke-opacity:1"
       d="m 848.92125,278.56431 v 293.64734 m 0,48.0699 v -48.0699 m 0,48.0699 h -45.56641 m 45.56641,-389.78716 v 48.06992 m 0,-48.06992 h -45.56641 m 45.56641,48.06992 h -45.56641 m -497.08329,0 v 293.64734 m 0,0 v 48.0699 m 0,0 h 45.56641 M 306.27155,278.56431 v -48.06992 m 0,0 h 45.56641 m -45.56641,48.06992 h 45.56641 M 802.86394,170.23076 H 352.32887 m -0.49091,60.26363 v 48.06992 m 0.49091,-108.33355 q -0.13198,5.29788 -0.22996,10.59676 m -0.26075,391.38413 v 48.0699 m -45.56641,-48.0699 h 45.56641 M 803.35504,230.49439 v 48.06992 m -0.4909,-108.33355 q 0.13197,5.29788 0.22995,10.59676 m 0.27715,-0.59299 q -0.004,0.002 -0.27715,0.59299 m 0.26115,391.38413 v 48.0699 m 45.56641,-48.0699 h -45.56641 m -151.1481,97.94177 v -2.65094 m 0,0 v 2.65094 m 0,-2.65094 H 501.57205 m 0,0 v 2.65094 m -22.31643,0 v -4.3799 m 0,0 v 4.3799 m 0,-4.3799 h -77.81361 m 0,0 v 4.3799 m 353.53735,0 v -4.3799 m 0,0 v 4.3799 m 0,-4.3799 h -75.75772 m 0,0 v 4.3799 M 351.82196,180.23453 q 0.004,0.002 0.27675,0.59299 m 469.4827,97.73679 V 572.21165 M 333.61139,278.56431 V 572.21165 M 803.36884,180.23753 h -0.28595 M 351.82196,620.28155 v 49.85587 m 0,-391.57311 v 293.64734 m 0,-391.97712 v 50.25986 m 451.54888,389.78716 v 49.85587 m 0,-391.57311 v 293.64734 m 0,-391.97712 v 50.25986 M 401.44161,670.15342 h -49.61165 m 149.74169,0 h -22.31643 m 199.96602,0 h -27.0145 m 151.1561,0 H 754.97896 M 352.10991,180.23753 h -0.28595" />
  </g>
  <g
     id="path7487"
     transform="translate(-488.36652,-399.85858)" />
  <g
     id="path7485"
     transform="translate(-488.36652,-399.85858)" />
  <g
     id="path7483"
     transform="translate(-488.36652,-399.85858)" />
  <g
     id="path7481"
     transform="translate(-488.36652,-399.85858)" />
  <g
     id="path7479"
     transform="translate(-488.36652,-399.85858)" />
  <g
     id="path7477"
     transform="translate(-488.36652,-399.85858)" />
  <g
     id="path7465"
     transform="translate(-488.36652,-399.85858)" />
  <g
     id="path7461"
     transform="translate(-488.36652,-399.85858)" />
  <g
     id="path7451"
     transform="translate(-488.36652,-399.85858)" />
  <g
     id="path7449"
     transform="translate(-488.36652,-399.85858)" />
  <g
     id="path7447"
     transform="translate(-488.36652,-399.85858)" />
  <g
     id="path7445"
     transform="translate(-488.36652,-399.85858)" />
  <g
     id="path7443"
     transform="translate(-488.36652,-399.85858)" />
  <g
     id="path7433"
     transform="translate(-488.36652,-399.85858)" />
  <g
     id="path7431"
     transform="translate(-488.36652,-399.85858)" />
  <g
     id="path7421"
     transform="translate(-488.36652,-399.85858)" />
  <g
     id="path7419"
     transform="translate(-488.36652,-399.85858)" />
  <g
     id="path7417"
     transform="translate(-488.36652,-399.85858)" />
  <g
     id="path7415"
     transform="translate(-488.36652,-399.85858)" />
  <g
     id="path7413"
     transform="translate(-488.36652,-399.85858)" />
  <g
     id="path7409"
     transform="translate(-488.36652,-399.85858)" />
  <g
     id="path7407"
     transform="translate(-488.36652,-399.85858)" />
  <g
     id="path7405"
     transform="translate(-488.36652,-399.85858)" />
  <g
     id="path7397"
     transform="translate(-488.36652,-399.85858)" />
  <g
     id="path7395"
     transform="translate(-488.36652,-399.85858)" />
  <g
     id="path7393"
     transform="translate(-488.36652,-399.85858)" />
  <g
     id="path7391"
     transform="translate(-488.36652,-399.85858)" />
  <g
     id="g12758"
     transform="translate(78.85174,278.78785)"
     style="stroke-width:2;stroke-dasharray:none">
    <g
       id="g12753"
       style="stroke-width:2;stroke-dasharray:none">
      <path
         style="color:#000000;fill:#c8c8c8;fill-opacity:1;fill-rule:evenodd;stroke:none;stroke-width:2;stroke-dasharray:none"
         d="m -54.837606,-104.00569 h 78.26499 v 0.41445 0.67128 0.85214 1.02319 1.184428 1.33377 1.46967 1.58957 1.69447 1.78232 1.85157 1.90221 h 0.25011 v 0.0202 h 1.21078 1.48053 1.7384 1.98437 2.21279 2.42414 2.61689 2.78898 2.93781 3.06441 3.16776 3.24632 3.29695 3.32383 268.953606 3.32383 3.29902 3.24425 3.16776 3.06648 2.93729 2.78743 2.61689 2.42569 2.21124 1.98437 1.7384 1.48053 0.96066 v 0.0305 h 0.50023 v -1.8836 -1.83297 -1.76475 -1.67742 -1.57458 -1.45469 -1.32085 -1.172538 -1.01285 -0.84388 -0.66456 -0.48007 -0.13695 h 78.30168 l 9.4909,15.638328 v 0.15089 h 1.3379 1.24023 1.14257 1.04335 0.94309 0.84594 0.74621 0.64647 0.54674 0.447 0.34985 0.19741 v 121.12698 h -0.19741 -0.34985 -0.447 -0.54674 -0.64647 -0.74621 -0.84594 -0.94309 -1.04335 -1.14257 -1.24023 -1.3379 v 0.44131 l -9.54619,15.34945 h -78.24639 v -0.13126 -0.47335 -0.65578 -0.83147 -0.99942 -1.15652 -1.30225 -1.43453 -1.55236 -1.6552 -1.73995 -1.80712 -1.85777 h -0.25011 v -0.19378 h -1.21078 -1.48053 -1.7384 -1.98437 -2.21124 -2.42569 -2.61689 -2.78743 -2.93729 -3.06648 -3.16776 -3.24425 -3.29902 -3.32383 -268.953606 -3.32383 -3.29695 -3.24632 -3.16776 -3.06441 -2.93781 -2.78898 -2.61689 -2.42414 -2.21279 -1.98437 -1.7384 -1.48053 -1.21078 v 0.0879 h -0.25011 v 1.87017 1.81901 1.75183 1.66605 1.56269 1.44436 1.31051 1.16479 1.00614 0.83664 0.66042 0.47646 0.13384 h -78.30168 l -9.48934,-15.57941 v -0.21135 h -1.37046 -1.26918 -1.16685 -1.06712 -0.96686 -0.86352 -0.76326 -0.66146 -0.55965 -0.45941 -0.34054 v -121.12709 h 0.34158 0.4594 0.55966 0.66094 0.76326 0.86351 0.96687 1.06712 1.16685 1.26866 1.37046 v -0.20102 z"
         id="path12023" />
      <path
         id="path6911-6"
         d="M 358.61994,-61.417234 H 28.676618 M 425.74341,20.846276 V -76.150593 M 395.00569,-8.7875938 V -46.516714 M -7.7091322,-8.7875938 V -46.516714 m -30.7377198,67.36299 v -96.996869 m 402.065932,60.746839 v -24.4968 m 0,-48.565079 h -1.21079 -1.48075 -1.7387 -1.98366 -2.21262 -2.42458 -2.61655 -2.78852 -2.9375 -3.06547 -3.16746 -3.24544 -3.29843 -3.32343 m 0,0 H 59.171378 m 0,0 h -3.32343 -3.29843 -3.24545 -3.16745 -3.06548 -2.93749 -2.78852 -2.61655 -2.42459 -2.21262 -1.98366 -1.7387 -1.48074 -1.21079 m -97.7792,0 h 0.05 0.14898 0.24896 0.34894 0.44792 0.5469 0.64689 0.74588 0.84485 0.94384 1.04382 1.1408 1.24079 1.33877 m 516.025332,0 h 1.3388 1.2408 1.1408 1.0438 0.9438 0.8449 0.7459 0.6468 0.547 0.4479 0.3489 0.249 0.1489 0.05 m -48.5566,87.4111092 -1.47375,-0.54347 -1.44375,-0.54498 -1.41276,-0.54648 -1.38276,-0.54788 -1.35177,-0.54928 -1.32077,-0.55059 -1.28978,-0.55199 -1.25979,-0.55329 -1.22779,-0.5545 -1.19679,-0.55579 -1.1658,-0.557 -1.1348,-0.55811 -1.10381,-0.5593 -1.07182,-0.56041 m 17.83594,7.73307 c 1.1658,0.42460996 2.15563,1.12531996 3.04147,1.91361996 0.88585,0.78820004 1.66672,1.66409004 2.38259,2.57766004 0.71588,0.91347 1.36577,1.86472 1.96167,2.82499 0.59389,0.96087 1.1388,1.92875 1.63572,2.90356 0.99882,1.9484998 1.82668,3.9169398 2.48357,5.8756598 0.65589,1.95882 1.1398,3.90772 1.39676,5.80531 m 8.34956,21.58814 -0.68688,-1.07673 -0.67588,-1.15448 -0.66389,-1.23076 -0.65089,-1.30581 -0.63789,-1.37937 -0.62489,-1.45133 -0.60889,-1.52168 -0.5939,-1.59033 -0.5779,-1.65707 -0.56191,-1.72211 -0.5439,-1.78525 -0.52591,-1.84618 -0.50791,-1.90511 -0.48892,-1.96193 m 16.46517,28.10598 q 1.05682,3.1e-4 2.04465,-0.5115 1.1368,-0.58386 2.1846,-1.8558 0.5249,-0.63928 1.0228,-1.44622 1.4838,-2.41781 2.6936,-6.24205 0.8078,-2.54609 1.5067,-5.73536 m -17.56796,9.27309 c 1.7927,2.75293 3.5484,4.63549 5.2691,5.64737 0.97183,0.57303 1.93067,0.86957 2.84651,0.87047 m -78.5895,-64.35601 v 7.5420602 7.34141996 7.06633004 6.7196798 6.30479 5.82616 5.2883 4.69682 4.05785 3.37768 2.66334 1.92184 1.16091 0.38833 m 31.38661,-57.7393498 -2.68254,-0.46831 -2.61655,-0.46901 -2.54756,-0.4698102 -2.48058,-0.47042 -2.41258,-0.47111 -2.3446,-0.47182 -2.27661,-0.47242 -2.20862,-0.47302 -2.14063,-0.47362 -2.07165,-0.47422 -2.00365,-0.47482 -1.93567,-0.47533 -1.86668,-0.47582 -1.79869,-0.47643 m -427.983472,48.56508 h -1.33877 -1.24079 -1.1408 -1.04382 -0.94384 -0.84485 -0.74588 -0.64689 -0.5469 -0.44792 -0.34894 -0.24896 -0.14898 -0.05 m 97.7792,0 h 1.21079 1.48074 1.7387 1.98366 2.21262 2.42459 2.61655 2.78852 2.93749 3.06548 3.16745 3.24545 3.29843 3.32343 m 0,0 H 328.12519 m 0,0 h 3.32343 3.29843 3.24544 3.16746 3.06547 2.9375 2.78852 2.61655 2.42458 2.21262 1.98366 1.7387 1.48075 1.21079 m 97.77916,0 h -0.05 -0.1489 -0.249 -0.3489 -0.448 -0.5469 -0.6469 -0.7458 -0.8449 -0.9438 -1.0438 -1.1408 -1.2408 -1.3388 m -459.3700822,-79.67804 2.68254,0.46831 2.61655,0.46901 2.54755997,0.46981 2.48057003,0.47041 2.41259,0.47112 2.3446,0.47182 2.27661,0.47241 2.2086202,0.47302 2.14063,0.47362 2.07164,0.47423 2.00366,0.47482 1.93567,0.47532 1.86667,0.47583 1.7987,0.47643 m -49.22255,-14.34923 1.47375,0.54347 1.44375,0.54497 1.41276,0.54648 1.38276,0.54788 1.35177,0.54929 1.32077,0.55058 1.28978,0.55199 1.25978,0.5533 1.22779,0.55449 1.1968,0.5558 1.1658,0.557 1.1347998,0.5581 1.10381,0.55931 1.07182,0.56041 m -17.8359398,-7.73307 c -1.1658,-0.42462 -2.15563,-1.12533 -3.04148,-1.91363 -0.88584,-0.7882 -1.66671,-1.66408 -2.38259,-2.57765 -0.71587,-0.91347 -1.36576,-1.86472 -1.96166,-2.82499 -0.5939,-0.96087 -1.1388,-1.92876 -1.63572,-2.90356 -0.99883,-1.9485 -1.82669,-3.91694 -2.48357,-5.875659 -0.65589,-1.95883 -1.13981,-3.90773 -1.39676,-5.80532 m -8.34957,-21.58813 0.68688,1.07672 0.67589,1.15449 0.66388,1.23075 0.65089,1.30582 0.63789,1.37937 0.62489,1.45133 0.6089,1.52168 0.5939,1.59033 0.5779,1.65707 0.5619,1.72211 0.54391,1.78525 0.52591,1.84618 0.50791,1.9051 0.48892,1.96193 m -16.46516,-28.105977 q -1.05682,-3e-4 -2.04465,0.5115 -1.13681,0.58386 -2.18463,1.8558 -0.52491,0.63928 -1.02282,1.44622 -1.48375,2.417807 -2.69354,6.242057 -0.80786,2.54608 -1.50674,5.73536 m 17.56797,-9.27309 c -1.79269,-2.752927 -3.54839,-4.635487 -5.26909,-5.647367 -0.97183,-0.57304 -1.93066,-0.86958 -2.8465,-0.87048 m 16.46516,125.102846 -0.48892,1.96193 -0.50791,1.90511 -0.52591,1.84618 -0.54391,1.78525 -0.5619,1.72211 -0.5779,1.65707 -0.5939,1.59033 -0.6089,1.52168 -0.62489,1.45133 -0.63789,1.37937 -0.65089,1.30581 -0.66388,1.23076 -0.67589,1.15448 -0.68688,1.07673 m 8.34957,-21.58814 c 0.25695,-1.90099 0.73487,-3.82534 1.38576,-5.77194 0.32594,-0.9731 0.69588,-1.95231 1.11081,-2.93753 0.41493,-0.98813 0.87385,-1.97446 1.37676,-2.9590798 0.50092,-0.98231 1.04782,-1.95351 1.64172,-2.91358 0.5949,-0.95967 1.24179,-1.90701 1.95766,-2.82088 0.71588,-0.91387 1.49975,-1.79427 2.38759,-2.58447004 0.88785,-0.7902 1.88068,-1.49021 3.04148,-1.91331996 m 17.8359398,-7.73307 -1.07182,0.56041 -1.10381,0.5593 -1.1347998,0.55811 -1.1658,0.557 -1.1968,0.55579 -1.22779,0.5545 -1.25978,0.55329 -1.28978,0.55199 -1.32077,0.55059 -1.35177,0.54928 -1.38276,0.54788 -1.41276,0.54648 -1.44375,0.54498 -1.47375,0.54347 m 49.22255,-14.3492302 -1.7987,0.47643 -1.86667,0.47582 -1.93567,0.47533 -2.00366,0.47482 -2.07164,0.47422 -2.14063,0.47362 -2.2086202,0.47302 -2.27661,0.47242 -2.3446,0.47182 -2.41259,0.47111 -2.48057003,0.47042 -2.54755997,0.4698102 -2.61655,0.46901 -2.68254,0.46831 M -54.912012,48.951756 c 0.92084,4e-4 1.87667,-0.29463 2.8405,-0.86616 0.85285,-0.50439 1.7207,-1.22745 2.60255,-2.16938 0.88485,-0.94434 1.7757,-2.10494 2.67254,-3.4818 m -17.56797,-9.27309 c 0.93284,4.24655 2.00266,7.63846 3.24444,10.21522 0.6209,1.28687 1.28678,2.3665 1.98266,3.21282 0.69388,0.84432 1.42076,1.46105 2.17863,1.85019 0.65888,0.34043 1.34077,0.5111 2.04665,0.5122 M 363.61908,-104.25607 v 0.38834 1.1609 1.92184 2.663337 3.37769 4.05784 4.69683 5.28829 5.82616 6.304789 6.71969 7.06633 7.34142 7.54206 m 78.5895,-64.355516 c -0.92084,-4e-4 -1.87668,0.29464 -2.84051,0.86617 -0.85285,0.50439 -1.72071,1.22745 -2.60255,2.16938 -0.88485,0.94433 -1.7757,2.104927 -2.67255,3.481797 m 17.56798,9.27309 c -0.9328,-4.24656 -2.0027,-7.63847 -3.2444,-10.21522 -0.6209,-1.28687 -1.2868,-2.366497 -1.9827,-3.212827 -0.69388,-0.84432 -1.42075,-1.46104 -2.17862,-1.85018 -0.65889,-0.34044 -1.34077,-0.51111 -2.04665,-0.51221 m -16.46517,28.105477 0.48892,-1.96193 0.50791,-1.9051 0.52591,-1.84618 0.5439,-1.78525 0.56191,-1.72211 0.5779,-1.65707 0.5939,-1.59033 0.60889,-1.52168 0.62489,-1.45133 0.63789,-1.37937 0.65089,-1.30582 0.66389,-1.23075 0.67588,-1.15449 0.68688,-1.07672 m -8.34956,21.58813 c -0.25696,1.901 -0.73487,3.82535 -1.38576,5.77194 -0.32595,0.973099 -0.69588,1.952309 -1.11081,2.937529 -0.41493,0.98813 -0.87385,1.97446 -1.37677,2.95908 -0.50091,0.98232 -1.04782,1.95351 -1.64171,2.91358 -0.5949,0.95967 -1.24179,1.90701 -1.95767,2.82088 -0.71587,0.91387 -1.49974,1.79427 -2.38759,2.58447 -0.88784,0.79021 -1.88067,1.49022 -3.04147,1.91333 m -17.83594,7.73307 1.07182,-0.56041 1.10381,-0.55931 1.1348,-0.5581 1.1658,-0.557 1.19679,-0.5558 1.22779,-0.55449 1.25979,-0.5533 1.28978,-0.55199 1.32077,-0.55058 1.35177,-0.54929 1.38276,-0.54788 1.41276,-0.54648 1.44375,-0.54497 1.47375,-0.54347 m -49.22255,14.34923 1.79869,-0.47643 1.86668,-0.47583 1.93567,-0.47532 2.00365,-0.47482 2.07165,-0.47423 2.14063,-0.47362 2.20862,-0.47302 2.27661,-0.47241 2.3446,-0.47182 2.41258,-0.47112 2.48058,-0.47041 2.54756,-0.46981 2.61655,-0.46901 2.68254,-0.46831 M 23.677478,48.951756 v -0.38833 -1.16091 -1.92184 -2.66334 -3.37768 -4.05785 -4.69682 -5.2883 -5.82616 -6.30479 -6.7196798 -7.06633004 -7.34141996 -7.5420602 m 0,-24.4968 v 24.4968 m 0,-24.4968 v -7.54206 -7.34142 -7.06633 -6.71969 -6.304789 -5.82616 -5.28829 -4.69683 -4.05784 -3.37769 -2.663337 -1.92184 -1.1609 -0.38834 M 358.61994,7.4234462 v -0.22057 -0.65882 -1.08895 -1.50525 -1.9027 -2.27610004 -2.62104996 -2.93292 -3.20792 -3.4426202 -3.63393 -3.77971 -3.87784 -3.92722 m 0,0 v -3.92723 -3.87784 -3.7797 -3.63394 -3.44262 -3.20791 -2.93292 -2.62105 -2.27611 -1.9027 -1.50524 -1.08895 -0.65882 -0.22058 m -329.943322,35.07561 v 3.92722 3.87784 3.77971 3.63393 3.4426202 3.20792 2.93292 2.62104996 2.27610004 1.9027 1.50525 1.08895 0.65882 0.22057 m 0,-70.1512102 v 0.22058 0.65882 1.08895 1.50524 1.9027 2.27611 2.62105 2.93292 3.20791 3.44262 3.63394 3.7797 3.87784 3.92723 M 358.61994,6.1129262 H 28.676618 M 461.39825,33.161326 V -88.465633 M -74.101722,33.161326 V -88.465633 M 442.14459,48.951756 H 363.61908 M 23.677478,-104.25607 h -78.52551 m 78.52551,153.207826 h -78.58949 M 442.20858,-104.25607 h -78.5895 m 0,111.6795162 h -4.99914 m 4.99914,-70.1512102 h -4.99914 M 28.676618,7.4234462 h -4.99914 m 4.99914,-70.1512102 h -4.99914"
         style="stroke:#000000;stroke-width:2;stroke-dasharray:none;stroke-opacity:1" />
    </g>
  </g>
  <path
     style="color:#000000;fill:#000000;-inkscape-stroke:none"
     d="m 272.32507,251.06722 v 0.13694 h 0.34986 v -0.13694 z"
     id="path14586" />
  <path
     style="color:#000000;fill:#000000;-inkscape-stroke:none"
     d="m 272.3243,251.06722 v 0.13694 h 0.3514 v -0.13694 z"
     id="path14584" />
  <path
     style="color:#000000;fill:#000000;-inkscape-stroke:none"
     d="m 272.5411,250.95678 v 5.2e-4 c -0.0278,4.1e-4 -0.0373,0.002 -0.0594,0.004 -0.0127,0.001 -0.0259,0.003 -0.0351,0.004 -0.002,1.3e-4 -0.004,-4e-5 -0.006,0 v 0.34933 c 0.0258,0 0.0225,-0.001 0.0331,-0.002 0.0106,-8.1e-4 0.0227,-0.001 0.0351,-0.002 0.0171,-9.3e-4 0.0431,-0.003 0.0501,-0.004 -10e-4,-1e-5 -0.003,0 -0.005,0 v -0.34985 c -0.005,0 -0.009,-5e-5 -0.0129,0 z"
     id="path14582" />
  <path
     style="color:#000000;fill:#000000;-inkscape-stroke:none"
     d="m 272.49845,251.13543 v 5.2e-4 h 5.1e-4 5.2e-4 5.2e-4 5.1e-4 5.2e-4 5.2e-4 v -5.2e-4 h -5.2e-4 -5.2e-4 -5.1e-4 -5.2e-4 -5.2e-4 z"
     id="path14580" />
  <path
     style="color:#000000;fill:#000000;-inkscape-stroke:none"
     d="m 272.49974,251.13543 v 5.1e-4 h 5.2e-4 v -5.1e-4 z"
     id="path14578" />
  <path
     style="color:#000000;fill:#000000;-inkscape-stroke:none"
     d="m 272.463,250.95658 -0.0253,0.34985 c -1.1e-4,-1e-5 0.0287,0.002 0.0543,0.004 0.0128,0.001 0.0263,0.003 0.0372,0.004 0.0109,8.4e-4 0.009,1e-5 0.0331,0 v -0.34933 c -0.002,-5e-5 -0.004,-3.8e-4 -0.006,-5.2e-4 -0.009,-7e-4 -0.0213,-0.003 -0.0336,-0.004 -0.0242,-0.002 -0.0456,-0.003 -0.06,-0.004 z"
     id="path14576" />
  <g
     id="g15546"
     transform="translate(418.39891,-347.85345)"
     style="stroke-width:2;stroke-dasharray:none">
    <path
       style="color:#000000;fill:#c8c8c8;fill-opacity:1;stroke:none;stroke-width:2;stroke-dasharray:none"
       d="m -147.74803,482.03716 c 29.05453,0 58.108987,1.26696 87.052737,3.80079 l 63.1777302,5.52734 c 1.03654,0.0932 2.00923,0.22487 3.08008,0.46094 0.5299,0.1196 1.06998,0.25855 1.70898,0.47851 0.56297,0.19809 1.16124,0.42983 1.96094,0.875 0.3655,0.20604 0.76149,0.45281 1.2148398,0.79688 0.45338,0.3448 0.94899,0.77398 1.48243,1.38086 0.40549,0.46375 0.82486,1.02737 1.20507,1.71875 h 0.002 c 0.43884,0.79691 0.81893,1.77349 1.01953,2.86718 2.9e-4,0.002 0.002,0.002 0.002,0.004 v 0.004 c 0.10153,0.54337 0.15573,1.10905 0.15821,1.70117 v 0.56836 1.24414 1.5918 0.86328 0.87695 1.6875 1.43164 0.93164 l 0.3496,0.0449 v 0.10352 l -0.3496,-0.14453 v 0.0391 176.15039 0.97656 1.4336 0.82226 0.86328 1.74024 1.59375 1.24219 0.60156 c -9.7e-4,0.0866 -0.002,0.15169 -0.004,0.2168 -0.003,0.076 -0.005,0.14833 -0.008,0.21289 -0.006,0.1404 -0.0155,0.27714 -0.0273,0.41015 -0.0252,0.27477 -0.0609,0.53849 -0.10742,0.80078 -0.10544,0.59857 -0.26313,1.16524 -0.45703,1.6836 h -0.002 c -0.25742,0.69026 -0.57403,1.29695 -0.90821,1.82031 -0.33566,0.52254 -0.68365,0.95636 -1.02148,1.32617 -0.53951,0.58571 -1.03502,0.99693 -1.48633,1.32813 -0.4504898,0.3278 -0.8420098,0.56506 -1.2031198,0.76172 -0.77272,0.41568 -1.35774,0.63878 -1.90821,0.82812 -0.64171,0.21658 -1.18781,0.35323 -1.72461,0.4707 -1.02862,0.22077 -1.97539,0.34716 -2.97851,0.4375 l -63.1757802,5.5293 c -57.887517,5.06769 -116.217977,5.06769 -174.105467,0 l -62.85547,-5.50195 -0.19531,-0.0176 -0.30274,-0.0273 c -0.90515,-0.0803 -1.76995,-0.19223 -2.68554,-0.375 h -0.004 c -0.52985,-0.10765 -1.06625,-0.23414 -1.67969,-0.42383 -0.558,-0.17726 -1.14103,-0.38292 -1.91016,-0.76563 -0.33627,-0.16815 -0.70076,-0.36976 -1.11914,-0.64453 l -0.0137,-0.01 c -0.41391,-0.27437 -0.86646,-0.61018 -1.375,-1.0879 -0.46953,-0.44425 -0.97683,-1.00357 -1.4668,-1.74609 l -0.002,-0.002 c -0.41535,-0.63232 -0.81395,-1.40062 -1.10351,-2.28711 -0.28974,-0.88454 -0.47256,-1.89782 -0.4707,-2.95117 v -0.0156 -0.6289 -8.10352 -0.51563 -0.004 -0.54102 -174.31054 -1.20313 -0.93164 -1.43164 -0.82227 -0.86328 -1.73828 -1.5918 -1.24023 -0.63281 -0.0488 -0.01 -0.002 c 6.4e-4,-0.91273 0.13734,-1.79365 0.36328,-2.58594 0.22533,-0.79434 0.54281,-1.50803 0.88867,-2.11523 v -0.002 c 0.3774,-0.66122 0.7875,-1.20161 1.18359,-1.64844 0.52232,-0.58534 1.00909,-1.00237 1.45313,-1.33985 8.4e-4,-6.3e-4 0.001,-10e-4 0.002,-0.002 0.44439,-0.33409 0.83088,-0.57731 1.1875,-0.77734 0.79892,-0.44559 1.39939,-0.67665 1.96289,-0.875 l 0.004,-0.002 c 0.63705,-0.21948 1.17851,-0.36117 1.70703,-0.48046 l -0.002,0.002 c 1.06303,-0.23477 2.03023,-0.36284 3.06055,-0.45508 l 0.0156,-0.002 h 0.004 l 63.35351,-5.54492 c 28.94375,-2.53383 57.9982,-3.80079 87.05273,-3.80079 z"
       id="path14669" />
    <g
       id="Ortho_0_0"
       transform="matrix(0.9994966,0,0,0.99963378,-147.56628,598.98914)"
       style="stroke-width:2.00087;stroke-dasharray:none">
      <g
         fill="none"
         stroke="#000000"
         stroke-linecap="butt"
         stroke-linejoin="miter"
         stroke-width="0.350152"
         transform="scale(1,-1)"
         id="g278"
         style="stroke-width:2.00087;stroke-dasharray:none">
        <path
           d="m -87.1621,113.865 c 57.9562,5.073 116.3553,5.073 174.3115,0"
           id="path260"
           style="stroke-width:2.00087;stroke-dasharray:none" />
        <path
           d="m 87.1494,-113.865 c -57.9562,-5.073 -116.3553,-5.073 -174.3115,0"
           id="path262"
           style="stroke-width:2.00087;stroke-dasharray:none" />
        <path
           id="3"
           d="m 150.36,-108.335 -63.2106,-5.53"
           style="stroke-width:2.00087;stroke-dasharray:none" />
        <path
           id="4"
           d="m 150.36,108.335 -63.2106,5.53"
           style="stroke-width:2.00087;stroke-dasharray:none" />
        <path
           id="5"
           d="m -150.547,108.319 63.3849,5.546"
           style="stroke-width:2.00087;stroke-dasharray:none" />
        <path
           id="6"
           d="m -150.547,-108.319 63.3849,-5.546"
           style="stroke-width:2.00087;stroke-dasharray:none" />
        <path
           d="m -150.546,108.319 c -1.057,-0.094 -2.065,-0.228 -3.17,-0.472 -0.545,-0.123 -1.116,-0.271 -1.783,-0.501 -0.58,-0.204 -1.231,-0.456 -2.072,-0.925 -0.38,-0.213 -0.798,-0.474 -1.27,-0.829 -0.47,-0.357 -0.995,-0.807 -1.551,-1.43 -0.423,-0.477 -0.863,-1.057 -1.267,-1.765 -0.371,-0.651 -0.71,-1.413 -0.952,-2.266 -0.243,-0.852 -0.389,-1.7959 -0.389,-2.7785 0,-0.0036 0,-0.0051 0,-0.0046"
           id="path268"
           style="stroke-width:2.00087;stroke-dasharray:none" />
        <path
           d="m -163,-97.3479 v 0"
           id="path270"
           style="stroke-width:2.00087;stroke-dasharray:none" />
        <path
           d="m -163,-97.3479 c -0.002,-1.1325 0.194,-2.2128 0.505,-3.1621 0.311,-0.952 0.737,-1.774 1.182,-2.451 0.523,-0.793 1.069,-1.395 1.569,-1.868 0.546,-0.513 1.04,-0.879 1.482,-1.171 0.443,-0.291 0.833,-0.508 1.189,-0.686 0.806,-0.401 1.437,-0.622 2.01,-0.804 0.643,-0.199 1.207,-0.332 1.754,-0.443 0.946,-0.189 1.838,-0.304 2.762,-0.386"
           id="path272"
           style="stroke-width:2.00087;stroke-dasharray:none" />
        <path
           d="m 150.36,-108.335 c 1.022,0.092 2,0.221 3.062,0.449 0.553,0.121 1.129,0.267 1.801,0.494 0.567,0.195 1.201,0.436 2.013,0.873 0.382,0.208 0.803,0.462 1.281,0.81 0.477,0.35 1.011,0.794 1.584,1.416 0.361,0.395 0.735,0.862 1.094,1.421 0.357,0.559 0.698,1.209 0.974,1.949 0.208,0.556 0.378,1.1611 0.491,1.8025 0.05,0.2818 0.087,0.5649 0.114,0.8586 0.013,0.1452 0.023,0.2927 0.029,0.4427 0.003,0.0741 0.005,0.1482 0.008,0.2223 0.002,0.0741 0.002,0.1436 0.003,0.2338"
           id="path274"
           style="stroke-width:2.00087;stroke-dasharray:none" />
        <path
           d="m 150.36,108.335 c 1.057,-0.095 2.064,-0.229 3.17,-0.473 0.545,-0.123 1.115,-0.271 1.783,-0.501 0.58,-0.204 1.23,-0.456 2.072,-0.925 0.385,-0.217 0.811,-0.482 1.292,-0.847 0.48,-0.365 1.016,-0.829 1.583,-1.474 0.433,-0.495 0.883,-1.101 1.29,-1.841 0.472,-0.857 0.881,-1.9 1.096,-3.0754 0.11,-0.5886 0.166,-1.2005 0.168,-1.8355"
           id="path276"
           style="stroke-width:2.00087;stroke-dasharray:none" />
      </g>
      <g
         fill="none"
         stroke="#000000"
         stroke-linecap="butt"
         stroke-linejoin="miter"
         stroke-width="0.350152"
         transform="scale(1,-1)"
         id="g493"
         style="stroke-width:2.00087;stroke-dasharray:none">
        <path
           id="1"
           d="m 162.814,-87.9386 v 0"
           style="stroke-width:2.00087;stroke-dasharray:none" />
        <path
           d="m 162.814,97.2245 q 0,0.242 0,0.061 0,-0.1651 0,-0.6904 0,-0.4625 0,-1.2409 0,-0.6274 0,-1.5901 0,-0.3524 0,-0.863 0,-0.4364 0,-0.8748 0,-1.0133 0,-1.6843 0,-0.8706 0,-1.4296 0,-0.6548 0,-0.9738"
           id="path281"
           style="stroke-width:2.00087;stroke-dasharray:none" />
        <path
           id="path283"
           d="M 162.814,87.9386 V -87.9386"
           style="stroke-width:2.00087;stroke-dasharray:none" />
        <path
           d="m 162.814,-87.9386 c 0,-0.2126 0,-0.5372 0,-0.9738 0,-0.3726 0,-0.8492 0,-1.4296 0,-0.2431 0,-0.5174 0,-0.8229 0,-0.2358 0,-0.523 0,-0.8614 0,-0.58 0,-1.1736 0,-1.7378 0,-0.6417 0,-1.1717 0,-1.5901 0,-0.5189 0,-0.9325 0,-1.2409 0,-0.3502 0,-0.5803 0,-0.6904 0,-0.1207 0,-0.1003 0,0.061"
           id="path285"
           style="stroke-width:2.00087;stroke-dasharray:none" />
        <path
           d="m 87.1494,106.656 q -87.15576513,7.595 -174.3115,0"
           id="path287"
           style="stroke-width:2.00087;stroke-dasharray:none" />
        <path
           d="m 87.1494,-106.656 q -87.15576513,-7.595 -174.3115,0"
           id="path289"
           style="stroke-width:2.00087;stroke-dasharray:none" />
        <path
           d="m 5.59275,104.206 a 1007.87,1000 90 0 1 -11.19823,0"
           id="path291"
           style="stroke-width:2.00087;stroke-dasharray:none" />
        <path
           id="8"
           d="m -5.60548,104.071 v 0.135"
           style="stroke-width:2.00087;stroke-dasharray:none" />
        <path
           d="M -89.6875,53.0979 A 104.221,104.221 0 0 0 -5.60548,104.071"
           id="path294"
           style="stroke-width:2.00087;stroke-dasharray:none" />
        <path
           id="10"
           d="m -100.238,53.0979 h 10.5505"
           style="stroke-width:2.00087;stroke-dasharray:none" />
        <path
           d="m -100.238,-53.0979 a 113.427,113.427 0 0 0 0,106.1958"
           id="path297"
           style="stroke-width:2.00087;stroke-dasharray:none" />
        <path
           id="12"
           d="M -89.6875,-53.0979 H -100.238"
           style="stroke-width:2.00087;stroke-dasharray:none" />
        <path
           d="M -5.60548,-104.071 A 104.221,104.221 0 0 0 -89.6875,-53.0979"
           id="path300"
           style="stroke-width:2.00087;stroke-dasharray:none" />
        <path
           id="14"
           d="m -5.60548,-104.206 v 0.135"
           style="stroke-width:2.00087;stroke-dasharray:none" />
        <path
           d="m -5.60548,-104.206 a 1007.87,1000 90 0 1 11.19823,0"
           id="path303"
           style="stroke-width:2.00087;stroke-dasharray:none" />
        <path
           id="16"
           d="m 5.59275,-104.071 v -0.135"
           style="stroke-width:2.00087;stroke-dasharray:none" />
        <path
           d="M 89.6748,-53.0979 A 104.221,104.221 0 0 0 5.59275,-104.071"
           id="path306"
           style="stroke-width:2.00087;stroke-dasharray:none" />
        <path
           id="18"
           d="M 100.225,-53.0979 H 89.6748"
           style="stroke-width:2.00087;stroke-dasharray:none" />
        <path
           d="m 100.225,53.0979 a 113.427,113.427 0 0 0 0,-106.1958"
           id="path309"
           style="stroke-width:2.00087;stroke-dasharray:none" />
        <path
           id="20"
           d="M 89.6748,53.0979 H 100.225"
           style="stroke-width:2.00087;stroke-dasharray:none" />
        <path
           d="M 5.59275,104.071 A 104.221,104.221 0 0 0 89.6748,53.0979"
           id="path312"
           style="stroke-width:2.00087;stroke-dasharray:none" />
        <path
           id="22"
           d="m 5.59275,104.206 v -0.135"
           style="stroke-width:2.00087;stroke-dasharray:none" />
        <circle
           cx="-0.0063651302"
           cy="-1.04724e-08"
           r="91.903702"
           id="circle315"
           style="stroke-width:2.00087;stroke-dasharray:none" />
        <path
           id="24"
           d="M 117.066,-74.093 V 74.093"
           style="stroke-width:2.00087;stroke-dasharray:none" />
        <path
           d="m 117.066,74.093 c 10e-4,1.7899 -0.183,3.5509 -0.551,5.2828 -0.369,1.7341 -0.927,3.4458 -1.648,5.0657 -0.721,1.6191 -1.604,3.1489 -2.648,4.5894 -0.523,0.7228 -1.081,1.4177 -1.672,2.0847 -0.59,0.6644 -1.209,1.2964 -1.855,1.896 -0.647,0.5999 -1.322,1.1699 -2.026,1.7099 -0.707,0.5413 -1.437,1.0498 -2.19,1.5256 -1.501,0.9472 -3.07,1.7566 -4.7054,2.4282 -1.6355,0.6737 -3.3377,1.2161 -5.0645,1.6207 -1.7269,0.404 -3.4783,0.673 -5.2542,0.809"
           id="path318"
           style="stroke-width:2.00087;stroke-dasharray:none" />
        <path
           id="26"
           d="m 89.4519,101.105 -2.3025,0.178"
           style="stroke-width:2.00087;stroke-dasharray:none" />
        <path
           d="m 5.59275,104.206 5.83315,0.014 5.8328,-0.021 5.8322,-0.054 5.8314,-0.089 5.8304,-0.123 5.8292,-0.157 5.8279,-0.192 5.8262,-0.226 5.8245,-0.26 5.8225,-0.295 5.8204,-0.329 5.8179,-0.363 5.8154,-0.397 5.8127,-0.431"
           id="path321"
           style="stroke-width:2.00087;stroke-dasharray:none" />
        <path
           d="m 87.1494,-101.283 -5.8127,-0.431 -5.8154,-0.397 -5.8179,-0.363 -5.8204,-0.329 -5.8225,-0.295 -5.8245,-0.26 -5.8262,-0.226 -5.8279,-0.192 -5.8292,-0.157 -5.8304,-0.123 -5.8314,-0.089 -5.8322,-0.054 -5.8328,-0.021 -5.83315,0.014"
           id="path323"
           style="stroke-width:2.00087;stroke-dasharray:none" />
        <path
           id="29"
           d="m 89.4519,-101.105 -2.3025,-0.178"
           style="stroke-width:2.00087;stroke-dasharray:none" />
        <path
           d="m 89.4519,-101.105 c 1.7772,0.136 3.5264,0.405 5.2476,0.807 1.7232,0.4038 3.4243,0.944 5.0622,1.619 1.6383,0.6751 3.2123,1.4849 4.7013,2.4236 1.491,0.9364 2.891,2.0085 4.199,3.2161 0.655,0.6069 1.279,1.2433 1.872,1.9091 0.59,0.6634 1.143,1.3512 1.659,2.0634 1.032,1.4225 1.928,2.9599 2.66,4.5931 0.366,0.8175 0.687,1.6495 0.964,2.4961 0.276,0.8437 0.506,1.6984 0.69,2.5642 0.369,1.7335 0.559,3.5222 0.559,5.3204"
           id="path326"
           style="stroke-width:2.00087;stroke-dasharray:none" />
        <path
           id="31"
           d="M -117.258,74.0791 V -74.0791"
           style="stroke-width:2.00087;stroke-dasharray:none" />
        <path
           d="m -117.258,-74.0791 c -0.001,-1.79 0.182,-3.5509 0.551,-5.2828 0.369,-1.7341 0.926,-3.4459 1.647,-5.0658 0.722,-1.619 1.605,-3.1488 2.649,-4.5894 0.523,-0.7228 1.08,-1.4177 1.672,-2.0847 0.59,-0.6643 1.208,-1.2963 1.855,-1.8959 0.647,-0.6 1.322,-1.17 2.026,-1.7099 0.707,-0.5413 1.436,-1.0498 2.189,-1.5256 1.502,-0.9472 3.071,-1.7566 4.7061,-2.4282 1.6354,-0.6738 3.3377,-1.2161 5.0645,-1.6206 1.7269,-0.404 3.4783,-0.673 5.2542,-0.809"
           id="path329"
           style="stroke-width:2.00087;stroke-dasharray:none" />
        <path
           id="33"
           d="m -89.6442,-101.091 2.4821,-0.192"
           style="stroke-width:2.00087;stroke-dasharray:none" />
        <path
           d="m -5.60548,-104.206 -5.83312,-0.014 -5.8328,0.021 -5.8322,0.054 -5.8314,0.089 -5.8304,0.123 -5.8292,0.157 -5.8279,0.192 -5.8263,0.226 -5.8244,0.26 -5.8226,0.295 -5.8203,0.329 -5.818,0.363 -5.8154,0.397 -5.8126,0.431"
           id="path332"
           style="stroke-width:2.00087;stroke-dasharray:none" />
        <path
           d="m -87.1621,101.283 5.8126,0.431 5.8154,0.397 5.818,0.363 5.8203,0.329 5.8226,0.295 5.8244,0.26 5.8263,0.226 5.8279,0.192 5.8292,0.157 5.8304,0.123 5.8314,0.089 5.8322,0.054 5.8328,0.021 5.83312,-0.014"
           id="path334"
           style="stroke-width:2.00087;stroke-dasharray:none" />
        <path
           id="36"
           d="m -89.6442,101.091 2.4821,0.192"
           style="stroke-width:2.00087;stroke-dasharray:none" />
        <path
           d="m -89.6442,101.091 c -1.7772,-0.136 -3.5264,-0.405 -5.2476,-0.807 -1.7232,-0.4036 -3.4243,-0.9439 -5.0622,-1.6189 -1.638,-0.675 -3.213,-1.4848 -4.702,-2.4235 -1.49,-0.9365 -2.89,-2.0085 -4.198,-3.2161 -0.655,-0.607 -1.279,-1.2434 -1.872,-1.9092 -0.59,-0.6633 -1.143,-1.3511 -1.659,-2.0633 -1.032,-1.4226 -1.928,-2.9599 -2.66,-4.5932 -0.366,-0.8174 -0.688,-1.6494 -0.964,-2.4961 -0.276,-0.8436 -0.506,-1.6984 -0.69,-2.5642 -0.37,-1.7335 -0.559,-3.5222 -0.559,-5.3204"
           id="path337"
           style="stroke-width:2.00087;stroke-dasharray:none" />
        <path
           d="m 110.371,-105.118 c -0.017,0.002 -0.047,0.003 -0.088,0.006 -0.038,0.002 -0.102,0.006 -0.164,0.009 -0.056,0.004 -0.102,0.006 -0.139,0.009 -0.04,0.002 -0.075,0.005 -0.105,0.007"
           id="path339"
           style="stroke-width:2.00087;stroke-dasharray:none" />
        <path
           d="m 109.875,-105.087 q -0.774,0.06 -2.463,0.197"
           id="path341"
           style="stroke-width:2.00087;stroke-dasharray:none" />
        <path
           d="m 107.412,-104.89 -20.2626,-1.766"
           id="path343"
           style="stroke-width:2.00087;stroke-dasharray:none" />
        <path
           d="m 153.685,-107.184 c 0,-0.141 -0.094,-0.277 -0.281,-0.408 -0.021,-0.014 -0.043,-0.028 -0.064,-0.041 -0.022,-0.014 -0.044,-0.027 -0.064,-0.038 -0.044,-0.025 -0.091,-0.049 -0.142,-0.073 -0.135,-0.064 -0.296,-0.125 -0.484,-0.184 -0.07,-0.022 -0.144,-0.044 -0.222,-0.065 -0.038,-0.011 -0.082,-0.022 -0.114,-0.031 -0.036,-0.009 -0.073,-0.018 -0.109,-0.027 -0.174,-0.042 -0.367,-0.081 -0.579,-0.119 -0.046,-0.008 -0.092,-0.016 -0.138,-0.024 -0.024,-0.004 -0.048,-0.008 -0.071,-0.012 -0.02,-0.003 -0.04,-0.006 -0.06,-0.009 -0.108,-0.017 -0.223,-0.033 -0.346,-0.049 -0.198,-0.026 -0.415,-0.05 -0.651,-0.071"
           id="path345"
           style="stroke-width:2.00087;stroke-dasharray:none" />
        <path
           d="m 150.36,-108.335 c -0.208,-0.018 -0.525,-0.042 -0.95,-0.056 -0.178,-0.006 -0.333,-0.009 -0.466,-0.009 -0.083,0 -0.158,0 -0.223,0.001 -0.033,0 -0.063,0 -0.091,0.001 -0.006,0 -0.012,0 -0.017,0 -0.009,0 -0.018,0 -0.027,0 -0.027,10e-4 -0.054,10e-4 -0.081,0.002 -0.177,0.004 -0.341,0.011 -0.491,0.019 -0.06,0.004 -0.118,0.007 -0.174,0.011 -0.069,0.005 -0.137,0.011 -0.204,0.016 -0.332,0.03 -0.625,0.069 -0.879,0.117 -0.101,0.018 -0.197,0.038 -0.286,0.059 -0.107,0.025 -0.207,0.052 -0.301,0.08 -0.234,0.071 -0.428,0.152 -0.581,0.241 -0.03,0.018 -0.059,0.036 -0.086,0.054 -0.031,0.021 -0.06,0.042 -0.086,0.063 -0.054,0.044 -0.1,0.088 -0.138,0.135 -0.096,0.117 -0.144,0.243 -0.144,0.379"
           id="path347"
           style="stroke-width:2.00087;stroke-dasharray:none" />
        <path
           d="m 145.135,-107.222 c -0.01,0 -0.099,-0.008 -0.113,-0.009"
           id="path349"
           style="stroke-width:2.00087;stroke-dasharray:none" />
        <path
           d="m 145.022,-107.231 c -0.284,0.047 -0.613,0.094 -0.985,0.139 -0.187,0.023 -0.384,0.046 -0.592,0.068 -0.205,0.023 -0.431,0.046 -0.658,0.068 -0.222,0.021 -0.444,0.041 -0.686,0.063 -0.239,0.021 -0.488,0.042 -0.747,0.062 -0.26,0.021 -0.529,0.042 -0.808,0.063 -0.276,0.02 -0.575,0.042 -0.87,0.062 -0.287,0.02 -0.569,0.039 -0.874,0.059 -0.302,0.019 -0.613,0.039 -0.932,0.059 -0.32,0.019 -0.65,0.039 -0.989,0.059 -0.17,0.01 -0.342,0.02 -0.516,0.03 -0.172,0.01 -0.356,0.02 -0.531,0.03 -0.17,0.009 -0.331,0.018 -0.505,0.028 -0.172,0.009 -0.345,0.019 -0.52,0.028 -0.35,0.019 -0.711,0.038 -1.08,0.058 -0.369,0.019 -0.748,0.039 -1.136,0.058 -0.195,0.01 -0.391,0.02 -0.589,0.03 -0.194,0.01 -0.405,0.021 -0.602,0.031 -0.191,0.009 -0.368,0.018 -0.561,0.028 -0.19,0.009 -0.382,0.019 -0.576,0.028 -0.387,0.019 -0.785,0.039 -1.193,0.059 -0.407,0.02 -0.824,0.04 -1.25,0.061 -0.212,0.01 -0.428,0.021 -0.646,0.031 -0.109,0.006 -0.219,0.011 -0.328,0.016 -0.107,0.006 -0.225,0.011 -0.332,0.017 -0.102,0.005 -0.193,0.009 -0.295,0.014 -0.099,0.005 -0.199,0.01 -0.298,0.014 -0.2,0.01 -0.403,0.02 -0.61,0.03 -0.412,0.02 -0.835,0.041 -1.269,0.063 -0.435,0.021 -0.88,0.043 -1.337,0.066 -0.228,0.011 -0.459,0.023 -0.693,0.035 -0.118,0.006 -0.236,0.012 -0.353,0.017 -0.113,0.006 -0.245,0.013 -0.358,0.019 -0.103,0.005 -0.188,0.009 -0.291,0.014 -0.099,0.006 -0.199,0.011 -0.298,0.016 -0.2,0.01 -0.405,0.02 -0.614,0.031 -0.418,0.022 -0.853,0.045 -1.304,0.069 -0.903,0.047 -1.873,0.1 -2.91,0.158 -0.053,0.003 -0.091,0.005 -0.144,0.008 -0.049,0.003 -0.098,0.006 -0.147,0.009 -0.1,0.005 -0.202,0.011 -0.307,0.017 -0.209,0.012 -0.428,0.024 -0.657,0.038 -0.229,0.013 -0.469,0.027 -0.719,0.042 -0.125,0.007 -0.252,0.015 -0.381,0.022 -0.125,0.008 -0.269,0.016 -0.397,0.024 -0.121,0.007 -0.226,0.014 -0.345,0.021 -0.115,0.007 -0.231,0.014 -0.346,0.021 -0.23,0.014 -0.46,0.028 -0.69,0.043 -0.461,0.029 -0.921,0.058 -1.382,0.087"
           id="path351"
           style="stroke-width:2.00087;stroke-dasharray:none" />
        <path
           d="m 107.412,104.89 -20.2626,1.766"
           id="path353"
           style="stroke-width:2.00087;stroke-dasharray:none" />
        <path
           d="m 107.412,104.89 q 1.689,0.137 2.463,0.197"
           id="path355"
           style="stroke-width:2.00087;stroke-dasharray:none" />
        <path
           d="m 109.875,105.087 c 0.03,0.002 0.065,0.005 0.105,0.007 0.037,0.003 0.083,0.005 0.139,0.009 0.062,0.003 0.126,0.007 0.164,0.009 0.042,0.003 0.071,0.004 0.088,0.006"
           id="path357"
           style="stroke-width:2.00087;stroke-dasharray:none" />
        <path
           d="m 110.371,105.118 c 1.841,0.119 3.688,0.229 5.515,0.332 0.124,0.007 0.261,0.014 0.385,0.021 0.127,0.007 0.253,0.014 0.38,0.021 0.251,0.014 0.497,0.028 0.739,0.041 0.485,0.026 0.953,0.052 1.405,0.075 0.451,0.024 0.886,0.047 1.304,0.069 0.21,0.011 0.415,0.021 0.615,0.031 0.099,0.005 0.198,0.01 0.298,0.016 0.103,0.005 0.188,0.009 0.291,0.014 0.113,0.006 0.244,0.013 0.357,0.019 0.118,0.005 0.236,0.011 0.353,0.017 0.235,0.012 0.466,0.024 0.694,0.035 0.456,0.023 0.902,0.045 1.336,0.066 0.434,0.022 0.858,0.043 1.27,0.063 0.206,0.01 0.41,0.02 0.61,0.03 0.099,0.004 0.199,0.009 0.298,0.014 0.102,0.005 0.193,0.009 0.295,0.014 0.107,0.006 0.225,0.011 0.332,0.017 0.109,0.005 0.218,0.01 0.328,0.016 0.218,0.01 0.433,0.021 0.646,0.031 0.426,0.021 0.842,0.041 1.25,0.061 0.407,0.02 0.805,0.04 1.193,0.059 0.194,0.009 0.385,0.019 0.575,0.028 0.194,0.01 0.371,0.019 0.562,0.028 0.197,0.01 0.408,0.021 0.602,0.031 0.198,0.01 0.394,0.02 0.589,0.029 0.388,0.02 0.766,0.04 1.135,0.059 0.37,0.02 0.73,0.039 1.081,0.058 0.175,0.009 0.348,0.019 0.519,0.028 0.174,0.01 0.336,0.019 0.506,0.028 0.175,0.01 0.359,0.02 0.53,0.03 0.174,0.01 0.346,0.02 0.516,0.03 0.34,0.02 0.67,0.04 0.989,0.059 0.32,0.02 0.631,0.04 0.932,0.059 0.306,0.02 0.588,0.039 0.875,0.059 0.295,0.02 0.594,0.042 0.87,0.062 0.279,0.021 0.548,0.042 0.808,0.063 0.259,0.02 0.508,0.041 0.747,0.062 0.242,0.022 0.464,0.042 0.686,0.063 0.227,0.022 0.453,0.045 0.658,0.068 0.208,0.022 0.405,0.045 0.592,0.068 0.372,0.045 0.701,0.092 0.985,0.139"
           id="path359"
           style="stroke-width:2.00087;stroke-dasharray:none" />
        <path
           d="m 145.022,107.231 c 0.014,-10e-4 0.102,-0.009 0.113,-0.009"
           id="path361"
           style="stroke-width:2.00087;stroke-dasharray:none" />
        <path
           d="m 145.135,107.222 c 0,0.109 0.031,0.212 0.092,0.308 0.031,0.048 0.069,0.095 0.115,0.14 0.034,0.033 0.073,0.066 0.116,0.097 0.023,0.017 0.044,0.032 0.065,0.046 0.022,0.013 0.044,0.027 0.066,0.04 0.123,0.071 0.271,0.137 0.445,0.197 0.109,0.038 0.229,0.073 0.358,0.105 0.027,0.006 0.053,0.013 0.079,0.019 0.023,0.005 0.045,0.01 0.068,0.015 0.069,0.016 0.142,0.03 0.218,0.044 0.229,0.043 0.489,0.079 0.781,0.108 0.081,0.007 0.165,0.014 0.251,0.021 0.017,0.001 0.034,0.002 0.051,0.004 0.015,0.001 0.029,0.002 0.043,0.003 0.042,0.002 0.086,0.005 0.131,0.008 0.135,0.007 0.281,0.013 0.438,0.018 0.036,0.001 0.071,0.001 0.106,0.002 0.019,0 0.037,10e-4 0.055,10e-4 0.011,0 0.022,0 0.034,0.001 0.058,0 0.125,0.001 0.201,0.001 0.152,10e-4 0.34,-0.002 0.562,-0.009 0.223,-0.008 0.41,-0.017 0.562,-0.027 0.061,-0.004 0.116,-0.008 0.166,-0.011 0.012,-10e-4 0.024,-0.002 0.036,-0.003 0.008,-10e-4 0.017,-10e-4 0.025,-0.002 0.005,0 0.023,-0.002 0.036,-0.003 0.042,-0.003 0.083,-0.007 0.125,-0.01"
           id="path363"
           style="stroke-width:2.00087;stroke-dasharray:none" />
        <path
           d="m 107.412,-104.89 q 0.117,0.01 0.228,0.021"
           id="path365"
           style="stroke-width:2.00087;stroke-dasharray:none" />
        <path
           d="m 107.64,-104.869 -18.1881,3.764"
           id="path367"
           style="stroke-width:2.00087;stroke-dasharray:none" />
        <path
           d="m 89.4519,101.105 18.1881,3.764"
           id="path369"
           style="stroke-width:2.00087;stroke-dasharray:none" />
        <path
           d="m 107.64,104.869 q -0.111,0.011 -0.228,0.021"
           id="path371"
           style="stroke-width:2.00087;stroke-dasharray:none" />
        <path
           d="m 162.814,87.9386 q -0.001,-4e-4 -0.01,-0.0178 -0.004,-0.0096 -0.021,-0.0383 -0.016,-0.0267 -0.035,-0.0383 -0.026,-0.0173 -0.073,-0.0176"
           id="path373"
           style="stroke-width:2.00087;stroke-dasharray:none" />
        <path
           d="m 162.675,-87.8266 q 0.047,-3e-4 0.073,-0.0176 0.018,-0.0116 0.035,-0.0383 0.017,-0.0286 0.021,-0.0383 0.009,-0.0174 0.01,-0.0178"
           id="path375"
           style="stroke-width:2.00087;stroke-dasharray:none" />
        <path
           d="m 162.675,87.8266 c -0.289,-0.0455 -0.606,-0.1133 -0.951,-0.2034 -0.173,-0.045 -0.353,-0.0956 -0.541,-0.1519 -0.094,-0.0282 -0.19,-0.0577 -0.287,-0.0885 -0.096,-0.03 -0.201,-0.0643 -0.3,-0.0968 -0.094,-0.0312 -0.181,-0.0605 -0.278,-0.0938 -0.095,-0.0327 -0.192,-0.0664 -0.29,-0.1012 -0.197,-0.0699 -0.403,-0.1447 -0.618,-0.2245 -0.215,-0.0798 -0.438,-0.1645 -0.671,-0.2541 -0.116,-0.0447 -0.235,-0.0907 -0.356,-0.138 -0.061,-0.024 -0.122,-0.0479 -0.183,-0.0718 -0.059,-0.0233 -0.127,-0.0501 -0.187,-0.0737 -0.843,-0.3328 -1.853,-0.7448 -3.084,-1.2362 -0.067,-0.0266 -0.122,-0.0486 -0.19,-0.0757 -0.065,-0.0261 -0.131,-0.0522 -0.197,-0.0783 -0.133,-0.053 -0.272,-0.1079 -0.416,-0.1647 -0.144,-0.0567 -0.293,-0.1151 -0.447,-0.1753 -0.077,-0.03 -0.155,-0.0605 -0.235,-0.0917 -0.04,-0.0156 -0.08,-0.0312 -0.121,-0.0468 -0.037,-0.0144 -0.086,-0.0333 -0.122,-0.0475 -0.032,-0.012 -0.051,-0.0195 -0.082,-0.0316 -0.029,-0.0111 -0.058,-0.0222 -0.087,-0.0333 -0.058,-0.0226 -0.12,-0.0464 -0.185,-0.0714 -0.13,-0.0497 -0.272,-0.1037 -0.425,-0.1619 -0.153,-0.058 -0.319,-0.1205 -0.499,-0.1874 -0.183,-0.0683 -0.364,-0.1355 -0.575,-0.2129 -0.109,-0.0399 -0.222,-0.0811 -0.325,-0.1184 -0.105,-0.0379 -0.206,-0.0744 -0.304,-0.1096 -0.196,-0.0701 -0.377,-0.1344 -0.543,-0.1926 -0.332,-0.1167 -0.601,-0.2098 -0.806,-0.2794 -0.38,-0.1295 -0.746,-0.2513 -1.097,-0.3654 -0.176,-0.0571 -0.347,-0.1123 -0.515,-0.1653 -0.082,-0.0262 -0.165,-0.0523 -0.248,-0.0784 -0.086,-0.0272 -0.155,-0.0487 -0.242,-0.0755 -0.094,-0.0291 -0.205,-0.0635 -0.3,-0.0926 -0.1,-0.0302 -0.2,-0.0604 -0.3,-0.0906 -0.199,-0.06 -0.397,-0.1186 -0.593,-0.1758 -0.394,-0.1146 -0.782,-0.2242 -1.165,-0.3289 -0.383,-0.1046 -0.76,-0.2042 -1.13,-0.2988 -0.186,-0.0474 -0.37,-0.0935 -0.551,-0.1382 -0.091,-0.0221 -0.181,-0.0442 -0.272,-0.0663 -0.094,-0.0227 -0.174,-0.0418 -0.269,-0.0643 -0.101,-0.0241 -0.218,-0.0517 -0.322,-0.0756 -0.107,-0.0245 -0.214,-0.0491 -0.321,-0.0737 -0.215,-0.0486 -0.429,-0.0959 -0.642,-0.142 -0.428,-0.0923 -0.854,-0.1797 -1.279,-0.2624 -0.425,-0.0827 -0.847,-0.1606 -1.267,-0.2336 -0.21,-0.0353 -0.419,-0.0706 -0.629,-0.1059 -0.105,-0.0173 -0.21,-0.034 -0.313,-0.0503 -0.1,-0.0158 -0.204,-0.032 -0.312,-0.0485 -0.112,-0.0172 -0.229,-0.0346 -0.349,-0.0524 -0.118,-0.0173 -0.235,-0.0341 -0.35,-0.0504 -0.233,-0.0327 -0.466,-0.0643 -0.7,-0.0946 -0.468,-0.0605 -0.935,-0.1155 -1.401,-0.1651 -0.935,-0.0992 -1.867,-0.1768 -2.797,-0.2328"
           id="path377"
           style="stroke-width:2.00087;stroke-dasharray:none" />
        <path
           d="m 132.006,-79.4868 c 0.93,-0.056 1.862,-0.1336 2.796,-0.2328 0.467,-0.0495 0.934,-0.1046 1.401,-0.1651 0.235,-0.0303 0.468,-0.0619 0.701,-0.0946 0.115,-0.0163 0.232,-0.0331 0.35,-0.0504 0.12,-0.0178 0.237,-0.0352 0.349,-0.0524 0.108,-0.0165 0.212,-0.0326 0.312,-0.0485 0.103,-0.0163 0.208,-0.033 0.313,-0.0503 0.21,-0.0353 0.419,-0.0706 0.629,-0.1059 0.42,-0.073 0.842,-0.1509 1.267,-0.2336 0.425,-0.0827 0.851,-0.1701 1.279,-0.2624 0.213,-0.046 0.427,-0.0934 0.642,-0.142 0.107,-0.0246 0.214,-0.0492 0.321,-0.0737 0.104,-0.0239 0.221,-0.0515 0.322,-0.0756 0.095,-0.0225 0.175,-0.0416 0.269,-0.0643 0.091,-0.0221 0.181,-0.0442 0.272,-0.0663 0.181,-0.0447 0.365,-0.0908 0.551,-0.1382 0.37,-0.0946 0.747,-0.1942 1.13,-0.2988 0.383,-0.1046 0.771,-0.2143 1.165,-0.3289 0.196,-0.0572 0.394,-0.1158 0.593,-0.1758 0.1,-0.0302 0.2,-0.0604 0.3,-0.0906 0.095,-0.0291 0.206,-0.0635 0.3,-0.0926 0.087,-0.0268 0.156,-0.0483 0.242,-0.0755 0.083,-0.0261 0.166,-0.0522 0.248,-0.0783 0.168,-0.0531 0.339,-0.1082 0.515,-0.1654 0.351,-0.1141 0.717,-0.2359 1.097,-0.3654 0.205,-0.0696 0.474,-0.1627 0.806,-0.2794 0.166,-0.0582 0.347,-0.1225 0.543,-0.1926 0.098,-0.0352 0.199,-0.0717 0.304,-0.1096 0.103,-0.0373 0.216,-0.0785 0.325,-0.1184 0.211,-0.0774 0.392,-0.1446 0.575,-0.2129 0.18,-0.0669 0.346,-0.1294 0.499,-0.1874 0.153,-0.0582 0.295,-0.1122 0.424,-0.1619 0.066,-0.025 0.128,-0.0488 0.186,-0.0714 0.029,-0.0111 0.058,-0.0222 0.087,-0.0333 0.031,-0.0121 0.05,-0.0195 0.082,-0.0316 0.036,-0.0142 0.085,-0.0331 0.122,-0.0475 0.041,-0.0156 0.081,-0.0312 0.121,-0.0468 0.08,-0.0311 0.158,-0.0617 0.235,-0.0917 0.154,-0.0602 0.303,-0.1186 0.447,-0.1753 0.144,-0.0568 0.283,-0.1117 0.416,-0.1647 0.066,-0.0261 0.132,-0.0522 0.197,-0.0783 0.068,-0.0271 0.123,-0.0491 0.19,-0.0757 1.231,-0.4913 2.241,-0.9034 3.084,-1.2362 0.06,-0.0236 0.128,-0.0503 0.187,-0.0737 0.061,-0.0239 0.122,-0.0478 0.183,-0.0718 0.121,-0.0473 0.24,-0.0933 0.356,-0.138 0.233,-0.0896 0.456,-0.1743 0.671,-0.2541 0.215,-0.0798 0.421,-0.1546 0.618,-0.2245 0.098,-0.0348 0.195,-0.0685 0.29,-0.1012 0.097,-0.0333 0.184,-0.0626 0.278,-0.0938 0.099,-0.0325 0.204,-0.0668 0.3,-0.0968 0.097,-0.0308 0.193,-0.0603 0.287,-0.0885 0.188,-0.0563 0.368,-0.1069 0.541,-0.1519 0.345,-0.0901 0.662,-0.1579 0.951,-0.2034"
           id="path379"
           style="stroke-width:2.00087;stroke-dasharray:none" />
        <path
           d="m 131.801,-79.4254 c 0.043,-0.0077 0.156,-0.0543 0.205,-0.0614"
           id="path381"
           style="stroke-width:2.00087;stroke-dasharray:none" />
        <path
           d="m 132.006,79.4868 c -0.049,-0.0071 -0.162,-0.0537 -0.205,-0.0614"
           id="path383"
           style="stroke-width:2.00087;stroke-dasharray:none" />
        <path
           d="m 117.066,74.093 13.908,5.2632"
           id="path385"
           style="stroke-width:2.00087;stroke-dasharray:none" />
        <path
           d="m 130.974,-79.3562 -13.908,5.2632"
           id="path387"
           style="stroke-width:2.00087;stroke-dasharray:none" />
        <path
           d="m -107.599,104.875 20.4369,1.781"
           id="path389"
           style="stroke-width:2.00087;stroke-dasharray:none" />
        <path
           d="m -107.599,104.875 q -0.116,-0.01 -0.228,-0.021"
           id="path391"
           style="stroke-width:2.00087;stroke-dasharray:none" />
        <path
           d="m -107.827,104.854 18.1828,-3.763"
           id="path393"
           style="stroke-width:2.00087;stroke-dasharray:none" />
        <path
           d="m -150.546,108.319 c 0.041,0.004 0.083,0.007 0.125,0.011 0.009,0.001 0.018,0.001 0.027,0.002 0.006,0 0.011,0.001 0.017,0.001 0.018,0.002 0.035,0.003 0.053,0.004 0.05,0.004 0.105,0.008 0.166,0.012 0.152,0.01 0.339,0.019 0.562,0.027 0.222,0.007 0.409,0.01 0.561,0.009 0.061,0 0.116,-0.001 0.166,-0.001 0.012,0 0.024,0 0.036,-0.001 0.009,0 0.017,0 0.026,0 0.004,0 0.023,0 0.035,-10e-4 0.045,-0.001 0.089,-0.001 0.134,-0.002 0.157,-0.005 0.303,-0.011 0.438,-0.019 0.029,-0.001 0.059,-0.003 0.088,-0.005 0.022,-10e-4 0.043,-0.003 0.064,-0.004 0.018,-0.001 0.048,-0.003 0.073,-0.005 0.086,-0.007 0.17,-0.014 0.251,-0.022 0.292,-0.028 0.552,-0.064 0.781,-0.107 0.101,-0.019 0.197,-0.038 0.286,-0.059 0.107,-0.025 0.207,-0.052 0.301,-0.08 0.234,-0.071 0.428,-0.152 0.581,-0.241 0.03,-0.018 0.059,-0.036 0.086,-0.054 0.031,-0.021 0.06,-0.042 0.086,-0.064 0.054,-0.043 0.1,-0.088 0.138,-0.134 0.096,-0.117 0.144,-0.243 0.144,-0.379"
           id="path395"
           style="stroke-width:2.00087;stroke-dasharray:none" />
        <path
           d="m -145.321,107.207 c 0.01,0 0.098,0.008 0.113,0.008"
           id="path397"
           style="stroke-width:2.00087;stroke-dasharray:none" />
        <path
           d="m -145.208,107.215 c 0.284,-0.047 0.613,-0.093 0.985,-0.139 0.187,-0.022 0.384,-0.045 0.592,-0.068 0.205,-0.022 0.431,-0.045 0.658,-0.067 0.222,-0.021 0.444,-0.042 0.686,-0.063 0.239,-0.021 0.488,-0.042 0.747,-0.063 0.26,-0.02 0.529,-0.041 0.808,-0.062 0.276,-0.021 0.575,-0.042 0.87,-0.062 0.287,-0.02 0.569,-0.039 0.874,-0.059 0.302,-0.02 0.613,-0.039 0.932,-0.059 0.32,-0.019 0.65,-0.039 0.989,-0.059 0.17,-0.01 0.342,-0.02 0.516,-0.03 0.172,-0.01 0.356,-0.02 0.531,-0.03 0.17,-0.01 0.331,-0.018 0.505,-0.028 0.172,-0.009 0.345,-0.019 0.52,-0.028 0.35,-0.019 0.711,-0.038 1.08,-0.058 0.369,-0.019 0.748,-0.039 1.136,-0.059 0.195,-0.01 0.391,-0.02 0.589,-0.03 0.194,-0.009 0.405,-0.02 0.602,-0.03 0.191,-0.009 0.368,-0.018 0.561,-0.028 0.19,-0.009 0.382,-0.019 0.576,-0.028 0.387,-0.02 0.785,-0.039 1.193,-0.059 0.407,-0.02 0.824,-0.04 1.25,-0.061 0.212,-0.01 0.428,-0.021 0.646,-0.032 0.109,-0.005 0.219,-0.01 0.328,-0.016 0.107,-0.005 0.226,-0.011 0.332,-0.016 0.102,-0.005 0.193,-0.009 0.295,-0.014 0.099,-0.005 0.199,-0.01 0.298,-0.015 0.2,-0.009 0.403,-0.019 0.61,-0.029 0.412,-0.02 0.835,-0.041 1.269,-0.063 0.435,-0.021 0.88,-0.043 1.337,-0.066 0.228,-0.011 0.459,-0.023 0.693,-0.035 0.118,-0.006 0.236,-0.012 0.354,-0.018 0.112,-0.005 0.245,-0.012 0.357,-0.018 0.103,-0.005 0.188,-0.009 0.291,-0.015 0.1,-0.005 0.199,-0.01 0.298,-0.015 0.2,-0.01 0.405,-0.021 0.614,-0.031 0.418,-0.022 0.853,-0.045 1.304,-0.069 0.903,-0.047 1.873,-0.1 2.91,-0.158 0.053,-0.003 0.092,-0.005 0.144,-0.008 0.049,-0.003 0.098,-0.006 0.148,-0.009 0.099,-0.005 0.201,-0.011 0.306,-0.017 0.209,-0.012 0.428,-0.025 0.658,-0.038 0.228,-0.013 0.468,-0.027 0.718,-0.042 0.125,-0.007 0.252,-0.015 0.381,-0.022 0.125,-0.008 0.269,-0.016 0.397,-0.024 0.121,-0.007 0.226,-0.014 0.345,-0.021 0.116,-0.007 0.231,-0.014 0.346,-0.021 0.23,-0.014 0.46,-0.029 0.69,-0.043 0.461,-0.029 0.921,-0.058 1.382,-0.088"
           id="path399"
           style="stroke-width:2.00087;stroke-dasharray:none" />
        <path
           d="m -110.557,105.102 c 0.017,-0.001 0.047,-0.003 0.088,-0.005 0.039,-0.002 0.102,-0.006 0.164,-0.01 0.056,-0.003 0.102,-0.006 0.139,-0.008 0.04,-0.003 0.075,-0.005 0.105,-0.007"
           id="path401"
           style="stroke-width:2.00087;stroke-dasharray:none" />
        <path
           d="m -110.061,105.072 q 0.774,-0.061 2.462,-0.197"
           id="path403"
           style="stroke-width:2.00087;stroke-dasharray:none" />
        <path
           d="m -89.6442,-101.091 -18.1828,-3.763"
           id="path405"
           style="stroke-width:2.00087;stroke-dasharray:none" />
        <path
           d="m -107.827,-104.854 q 0.112,-0.011 0.228,-0.021"
           id="path407"
           style="stroke-width:2.00087;stroke-dasharray:none" />
        <path
           d="m -107.599,-104.875 20.4369,-1.781"
           id="path409"
           style="stroke-width:2.00087;stroke-dasharray:none" />
        <path
           d="m -107.599,-104.875 q -1.688,-0.136 -2.462,-0.197"
           id="path411"
           style="stroke-width:2.00087;stroke-dasharray:none" />
        <path
           d="m -110.061,-105.072 c -0.03,-0.002 -0.065,-0.004 -0.105,-0.007 -0.036,-0.002 -0.083,-0.005 -0.139,-0.008 -0.062,-0.004 -0.126,-0.008 -0.164,-0.01 -0.041,-0.002 -0.071,-0.004 -0.088,-0.005"
           id="path413"
           style="stroke-width:2.00087;stroke-dasharray:none" />
        <path
           d="m -110.557,-105.102 c -1.841,-0.12 -3.688,-0.23 -5.515,-0.333 -0.124,-0.007 -0.261,-0.014 -0.385,-0.021 -0.127,-0.007 -0.253,-0.014 -0.38,-0.021 -0.251,-0.014 -0.497,-0.028 -0.739,-0.041 -0.485,-0.026 -0.953,-0.051 -1.405,-0.075 -0.451,-0.024 -0.886,-0.047 -1.304,-0.069 -0.21,-0.01 -0.415,-0.021 -0.615,-0.031 -0.099,-0.005 -0.198,-0.01 -0.298,-0.015 -0.103,-0.006 -0.188,-0.01 -0.291,-0.015 -0.112,-0.006 -0.244,-0.013 -0.357,-0.018 -0.118,-0.006 -0.236,-0.012 -0.353,-0.018 -0.235,-0.012 -0.466,-0.024 -0.694,-0.035 -0.456,-0.023 -0.902,-0.045 -1.336,-0.066 -0.434,-0.022 -0.858,-0.042 -1.27,-0.063 -0.206,-0.01 -0.409,-0.02 -0.61,-0.029 -0.099,-0.005 -0.199,-0.01 -0.298,-0.015 -0.102,-0.005 -0.193,-0.009 -0.295,-0.014 -0.106,-0.005 -0.225,-0.011 -0.331,-0.016 -0.11,-0.006 -0.219,-0.011 -0.329,-0.016 -0.218,-0.011 -0.433,-0.022 -0.646,-0.032 -0.426,-0.021 -0.842,-0.041 -1.25,-0.061 -0.407,-0.02 -0.805,-0.039 -1.193,-0.059 -0.194,-0.009 -0.385,-0.019 -0.575,-0.028 -0.194,-0.01 -0.371,-0.019 -0.562,-0.028 -0.197,-0.01 -0.408,-0.021 -0.602,-0.03 -0.198,-0.01 -0.394,-0.02 -0.589,-0.03 -0.388,-0.02 -0.766,-0.04 -1.135,-0.059 -0.37,-0.019 -0.73,-0.039 -1.081,-0.058 -0.175,-0.009 -0.348,-0.019 -0.519,-0.028 -0.174,-0.01 -0.336,-0.018 -0.506,-0.028 -0.175,-0.01 -0.359,-0.02 -0.53,-0.03 -0.174,-0.01 -0.346,-0.02 -0.516,-0.03 -0.34,-0.02 -0.67,-0.04 -0.989,-0.059 -0.32,-0.02 -0.631,-0.039 -0.932,-0.059 -0.306,-0.02 -0.588,-0.039 -0.875,-0.059 -0.295,-0.02 -0.594,-0.041 -0.87,-0.062 -0.279,-0.021 -0.548,-0.041 -0.808,-0.062 -0.259,-0.021 -0.508,-0.042 -0.747,-0.063 -0.242,-0.021 -0.464,-0.042 -0.686,-0.063 -0.227,-0.022 -0.453,-0.045 -0.658,-0.067 -0.208,-0.023 -0.405,-0.046 -0.592,-0.068 -0.372,-0.046 -0.701,-0.092 -0.985,-0.139"
           id="path415"
           style="stroke-width:2.00087;stroke-dasharray:none" />
        <path
           d="m -145.208,-107.215 c -0.014,0 -0.102,0.008 -0.113,0.008"
           id="path417"
           style="stroke-width:2.00087;stroke-dasharray:none" />
        <path
           d="m -145.321,-107.207 c 0,-0.109 -0.031,-0.211 -0.092,-0.308 -0.031,-0.048 -0.069,-0.095 -0.115,-0.139 -0.034,-0.034 -0.073,-0.067 -0.116,-0.098 -0.023,-0.017 -0.045,-0.032 -0.065,-0.045 -0.022,-0.014 -0.044,-0.027 -0.066,-0.041 -0.123,-0.071 -0.271,-0.137 -0.445,-0.197 -0.11,-0.038 -0.229,-0.072 -0.358,-0.105 -0.027,-0.006 -0.053,-0.012 -0.079,-0.019 -0.023,-0.005 -0.046,-0.01 -0.068,-0.015 -0.069,-0.015 -0.142,-0.03 -0.218,-0.044 -0.229,-0.043 -0.489,-0.079 -0.781,-0.107 -0.081,-0.008 -0.165,-0.015 -0.251,-0.022 -0.017,-0.001 -0.034,-0.002 -0.052,-0.003 -0.014,-0.001 -0.028,-0.002 -0.042,-0.003 -0.042,-0.003 -0.086,-0.006 -0.131,-0.008 -0.15,-0.009 -0.314,-0.016 -0.491,-0.02 -0.035,-0.001 -0.071,-0.001 -0.108,-0.002 -0.022,0 -0.045,-0.001 -0.07,-0.001 -0.05,0 -0.105,-0.001 -0.165,-0.001 -0.152,-10e-4 -0.34,0.002 -0.562,0.009 -0.425,0.014 -0.742,0.039 -0.95,0.057"
           id="path419"
           style="stroke-width:2.00087;stroke-dasharray:none" />
        <path
           d="m -150.546,-108.319 c -0.504,0.044 -0.927,0.103 -1.267,0.164 -0.424,0.075 -0.78,0.163 -1.061,0.254 -0.324,0.105 -0.568,0.217 -0.732,0.336 -0.177,0.127 -0.266,0.259 -0.266,0.396"
           id="path421"
           style="stroke-width:2.00087;stroke-dasharray:none" />
        <path
           id="80"
           d="m -163,-87.923 v -9.2863"
           style="stroke-width:2.00087;stroke-dasharray:none" />
        <path
           d="m -117.258,-74.0791 -13.902,-5.2612"
           id="path424"
           style="stroke-width:2.00087;stroke-dasharray:none" />
        <path
           d="m -131.16,79.3403 13.902,-5.2612"
           id="path426"
           style="stroke-width:2.00087;stroke-dasharray:none" />
        <path
           d="m -131.987,79.4095 c -0.043,0.0077 -0.157,0.0544 -0.205,0.0615"
           id="path428"
           style="stroke-width:2.00087;stroke-dasharray:none" />
        <path
           d="m -132.192,-79.471 c 0.048,0.0071 0.162,0.0538 0.205,0.0615"
           id="path430"
           style="stroke-width:2.00087;stroke-dasharray:none" />
        <path
           d="m -162.862,-87.811 c 0.29,0.0455 0.607,0.1134 0.952,0.2035 0.172,0.0449 0.352,0.0956 0.54,0.1518 0.095,0.0283 0.19,0.0578 0.288,0.0885 0.095,0.0301 0.201,0.0644 0.299,0.0969 0.094,0.0311 0.181,0.0604 0.278,0.0938 0.095,0.0326 0.192,0.0663 0.291,0.1012 0.197,0.0698 0.403,0.1446 0.618,0.2245 0.214,0.0797 0.438,0.1644 0.67,0.254 0.116,0.0447 0.235,0.0907 0.356,0.1381 0.061,0.0239 0.123,0.0479 0.184,0.0718 0.059,0.0233 0.127,0.0501 0.187,0.0737 0.842,0.3328 1.852,0.7448 3.083,1.2361 0.067,0.0267 0.122,0.0487 0.19,0.0757 0.066,0.0262 0.132,0.0523 0.197,0.0784 0.134,0.053 0.273,0.1079 0.417,0.1647 0.143,0.0567 0.292,0.1151 0.446,0.1753 0.077,0.03 0.155,0.0606 0.236,0.0917 0.04,0.0156 0.08,0.0312 0.12,0.0468 0.037,0.0144 0.086,0.0333 0.123,0.0475 0.031,0.0121 0.05,0.0195 0.082,0.0317 0.029,0.0111 0.057,0.0221 0.086,0.0332 0.059,0.0226 0.121,0.0464 0.186,0.0714 0.13,0.0497 0.271,0.1037 0.425,0.1619 0.153,0.058 0.319,0.1205 0.498,0.1874 0.183,0.0683 0.365,0.1355 0.576,0.2129 0.109,0.0399 0.222,0.0812 0.325,0.1184 0.104,0.0379 0.206,0.0744 0.304,0.1096 0.195,0.0702 0.376,0.1344 0.542,0.1927 0.333,0.1166 0.601,0.2098 0.806,0.2793 0.38,0.1295 0.746,0.2513 1.097,0.3654 0.176,0.0572 0.348,0.1123 0.515,0.1654 0.083,0.0261 0.166,0.0523 0.248,0.0784 0.087,0.0271 0.156,0.0487 0.242,0.0755 0.094,0.0291 0.206,0.0635 0.301,0.0925 0.1,0.0303 0.199,0.0605 0.299,0.0907 0.2,0.06 0.397,0.1186 0.594,0.1757 0.393,0.1147 0.781,0.2243 1.164,0.329 0.383,0.1046 0.76,0.2042 1.131,0.2988 0.186,0.0474 0.369,0.0935 0.551,0.1382 0.09,0.0221 0.181,0.0442 0.271,0.0663 0.095,0.0227 0.174,0.0418 0.269,0.0643 0.102,0.0241 0.219,0.0517 0.322,0.0756 0.107,0.0245 0.215,0.0491 0.322,0.0737 0.214,0.0486 0.429,0.0959 0.642,0.142 0.427,0.0923 0.854,0.1797 1.278,0.2624 0.425,0.0827 0.848,0.1606 1.268,0.2336 0.209,0.0353 0.419,0.0706 0.628,0.1059 0.106,0.0173 0.21,0.034 0.313,0.0503 0.1,0.0159 0.204,0.032 0.312,0.0485 0.113,0.0172 0.229,0.0347 0.35,0.0524 0.118,0.0173 0.234,0.0341 0.35,0.0504 0.232,0.0328 0.466,0.0643 0.7,0.0947 0.468,0.0605 0.935,0.1155 1.401,0.165 0.934,0.0992 1.867,0.1768 2.797,0.2328"
           id="path432"
           style="stroke-width:2.00087;stroke-dasharray:none" />
        <path
           d="m -132.192,79.471 c -0.93,0.056 -1.863,0.1336 -2.797,0.2328 -0.466,0.0495 -0.933,0.1045 -1.401,0.165 -0.234,0.0304 -0.468,0.0619 -0.7,0.0947 -0.116,0.0163 -0.232,0.0331 -0.35,0.0504 -0.121,0.0177 -0.237,0.0352 -0.35,0.0524 -0.108,0.0165 -0.212,0.0326 -0.312,0.0485 -0.103,0.0162 -0.207,0.033 -0.313,0.0502 -0.209,0.0354 -0.419,0.0707 -0.628,0.106 -0.42,0.073 -0.843,0.1508 -1.268,0.2336 -0.424,0.0826 -0.85,0.1701 -1.278,0.2624 -0.213,0.046 -0.427,0.0934 -0.642,0.142 -0.107,0.0246 -0.215,0.0492 -0.322,0.0737 -0.103,0.0239 -0.22,0.0515 -0.322,0.0756 -0.095,0.0225 -0.174,0.0416 -0.269,0.0643 -0.09,0.0221 -0.181,0.0442 -0.271,0.0663 -0.182,0.0447 -0.365,0.0908 -0.551,0.1382 -0.371,0.0946 -0.748,0.1942 -1.131,0.2988 -0.383,0.1047 -0.771,0.2143 -1.164,0.3289 -0.197,0.0572 -0.394,0.1158 -0.594,0.1758 -0.1,0.0302 -0.199,0.0604 -0.299,0.0907 -0.095,0.029 -0.207,0.0634 -0.301,0.0925 -0.086,0.0268 -0.155,0.0484 -0.242,0.0755 -0.082,0.0261 -0.165,0.0523 -0.248,0.0784 -0.167,0.0531 -0.339,0.1082 -0.514,0.1654 -0.352,0.1141 -0.718,0.2359 -1.098,0.3654 -0.205,0.0695 -0.473,0.1626 -0.806,0.2793 -0.166,0.0583 -0.347,0.1225 -0.542,0.1927 -0.098,0.0351 -0.2,0.0717 -0.304,0.1096 -0.103,0.0372 -0.216,0.0785 -0.325,0.1184 -0.211,0.0774 -0.393,0.1446 -0.576,0.2129 -0.179,0.0669 -0.345,0.1294 -0.498,0.1874 -0.154,0.0582 -0.295,0.1122 -0.425,0.1619 -0.065,0.025 -0.127,0.0487 -0.186,0.0713 -0.028,0.0111 -0.057,0.0222 -0.086,0.0333 -0.032,0.0122 -0.051,0.0196 -0.082,0.0317 -0.037,0.0142 -0.086,0.0331 -0.123,0.0475 -0.04,0.0156 -0.08,0.0312 -0.12,0.0468 -0.08,0.0311 -0.159,0.0617 -0.236,0.0917 -0.154,0.0602 -0.303,0.1186 -0.446,0.1753 -0.144,0.0568 -0.283,0.1117 -0.417,0.1647 -0.065,0.0261 -0.131,0.0522 -0.197,0.0783 -0.068,0.0271 -0.123,0.0491 -0.19,0.0758 -1.231,0.4913 -2.241,0.9033 -3.083,1.2361 -0.06,0.0236 -0.128,0.0504 -0.187,0.0737 -0.061,0.0239 -0.123,0.0479 -0.184,0.0718 -0.121,0.0473 -0.24,0.0934 -0.356,0.1381 -0.232,0.0896 -0.456,0.1742 -0.67,0.254 -0.215,0.0798 -0.421,0.1547 -0.618,0.2245 -0.099,0.0349 -0.196,0.0686 -0.291,0.1012 -0.097,0.0333 -0.184,0.0627 -0.278,0.0938 -0.098,0.0325 -0.204,0.0668 -0.299,0.0969 -0.098,0.0307 -0.193,0.0602 -0.288,0.0885 -0.188,0.0562 -0.368,0.1069 -0.54,0.1518 -0.345,0.0901 -0.662,0.158 -0.952,0.2035"
           id="path434"
           style="stroke-width:2.00087;stroke-dasharray:none" />
        <path
           id="87"
           d="M -163,87.923 V -87.923"
           style="stroke-width:2.00087;stroke-dasharray:none" />
        <path
           d="m -163,-87.923 q 0,4e-4 0.01,0.0178 0.004,0.0097 0.02,0.0383 0.017,0.0267 0.035,0.0383 0.027,0.0174 0.073,0.0176"
           id="path437"
           style="stroke-width:2.00087;stroke-dasharray:none" />
        <path
           d="m -162.862,87.811 q -0.046,2e-4 -0.073,0.0176 -0.018,0.0116 -0.035,0.0383 -0.016,0.0286 -0.02,0.0383 -0.01,0.0174 -0.01,0.0178"
           id="path439"
           style="stroke-width:2.00087;stroke-dasharray:none" />
        <path
           d="m -163,-97.2093 q 0,-0.242 0,-0.061 0,0.1652 0,0.6905 0,0.4625 0,1.2409 0,0.6275 0,1.5902 0,0.3524 0,0.863 0,0.4365 0,0.8749 0,1.0133 0,1.6844 0,0.8705 0,1.4296 0,0.6548 0,0.9738"
           id="path441"
           style="stroke-width:2.00087;stroke-dasharray:none" />
        <path
           d="m -163,87.923 c 0,0.2126 0,0.5372 0,0.9738 0,0.3727 0,0.8492 0,1.4296 0,0.2432 0,0.5175 0,0.8229 0,0.2359 0,0.5231 0,0.8615 0,0.58 0,1.1737 0,1.7379 0,0.6418 0,1.1718 0,1.5902 0,0.5189 0,0.9326 0,1.2409 0,0.3502 0,0.5804 0,0.6905 0,0.1207 0,0.1003 0,-0.061"
           id="path443"
           style="stroke-width:2.00087;stroke-dasharray:none" />
        <path
           id="92"
           d="M 91.5068,-116.976 H 37.2504"
           style="stroke-width:2.00087;stroke-dasharray:none" />
        <path
           id="93"
           d="M -37.2631,-116.976 H -91.6932"
           style="stroke-width:2.00087;stroke-dasharray:none" />
        <path
           id="94"
           d="m 91.5068,-113.484 v -3.492"
           style="stroke-width:2.00087;stroke-dasharray:none" />
        <path
           id="95"
           d="m -91.6932,-113.468 v -3.508"
           style="stroke-width:2.00087;stroke-dasharray:none" />
        <path
           id="96"
           d="m -91.6932,116.976 v -3.508"
           style="stroke-width:2.00087;stroke-dasharray:none" />
        <path
           id="97"
           d="m 91.5068,116.976 v -3.492"
           style="stroke-width:2.00087;stroke-dasharray:none" />
        <path
           id="98"
           d="M 91.5068,116.976 H 37.2504"
           style="stroke-width:2.00087;stroke-dasharray:none" />
        <path
           id="99"
           d="M -37.2631,116.976 H -91.6932"
           style="stroke-width:2.00087;stroke-dasharray:none" />
        <path
           d="m -107.827,104.854 c -1.292,-0.135 -2.699,-0.379 -4.201,-0.796 -0.752,-0.207 -1.524,-0.463 -2.317,-0.767 -0.395,-0.151 -0.795,-0.318 -1.2,-0.498 -0.204,-0.091 -0.407,-0.185 -0.609,-0.281 -0.099,-0.047 -0.201,-0.097 -0.306,-0.149 -0.105,-0.052 -0.217,-0.109 -0.307,-0.154 -0.089,-0.046 -0.155,-0.08 -0.227,-0.118 -0.074,-0.039 -0.15,-0.08 -0.229,-0.122 -0.155,-0.083 -0.308,-0.167 -0.46,-0.253 -0.307,-0.173 -0.616,-0.357 -0.928,-0.55 -0.622,-0.386 -1.246,-0.813 -1.872,-1.2827 -0.627,-0.47 -1.248,-0.984 -1.864,-1.542 -0.307,-0.2786 -0.612,-0.5695 -0.915,-0.8724 -0.151,-0.1522 -0.302,-0.3062 -0.45,-0.462 -0.073,-0.077 -0.148,-0.1562 -0.223,-0.2375 -0.076,-0.082 -0.155,-0.1682 -0.222,-0.2417 -0.066,-0.0735 -0.121,-0.1343 -0.178,-0.1991 -0.058,-0.0655 -0.117,-0.1329 -0.178,-0.2024 -0.119,-0.137 -0.237,-0.2752 -0.353,-0.4146 -0.234,-0.2802 -0.465,-0.5699 -0.694,-0.8691 -0.459,-0.5973 -0.901,-1.2292 -1.327,-1.8959 -0.426,-0.6659 -0.829,-1.3657 -1.21,-2.0992 -0.191,-0.3679 -0.374,-0.7416 -0.55,-1.121 -0.087,-0.1879 -0.173,-0.3803 -0.258,-0.5771 -0.086,-0.198 -0.173,-0.4041 -0.247,-0.5876 -0.075,-0.1834 -0.139,-0.3443 -0.203,-0.5132 -0.066,-0.1703 -0.131,-0.3448 -0.195,-0.5237 -0.128,-0.3544 -0.25,-0.7135 -0.364,-1.0771 -0.23,-0.7305 -0.433,-1.4846 -0.608,-2.2625 -0.347,-1.552 -0.569,-3.1836 -0.638,-4.8449"
           id="path453"
           style="stroke-width:2.00087;stroke-dasharray:none" />
        <path
           d="m -110.061,105.072 c -2.687,-0.298 -5.517,-1.106 -8.207,-2.515 -2.69,-1.41 -5.239,-3.4197 -7.334,-5.8711 -2.094,-2.4514 -3.734,-5.3443 -4.8,-8.3307 -1.066,-2.9864 -1.558,-6.0663 -1.585,-8.9457"
           id="path455"
           style="stroke-width:2.00087;stroke-dasharray:none" />
        <path
           d="m -110.557,105.102 c -2.653,-0.298 -5.447,-1.107 -8.102,-2.516 -2.655,-1.408 -5.171,-3.4158 -7.237,-5.864 -2.067,-2.4482 -3.684,-5.3368 -4.735,-8.3187 -1.051,-2.9819 -1.535,-6.0572 -1.561,-8.9323"
           id="path457"
           style="stroke-width:2.00087;stroke-dasharray:none" />
        <path
           d="m -145.208,107.215 c -2.167,-0.197 -4.455,-0.785 -6.63,-1.836 -2.175,-1.052 -4.238,-2.568 -5.928,-4.426 -1.691,-1.8582 -3.01,-4.0592 -3.86,-6.3326 -0.85,-2.2733 -1.231,-4.6191 -1.236,-6.8094"
           id="path459"
           style="stroke-width:2.00087;stroke-dasharray:none" />
        <path
           d="m -145.321,107.207 c -2.173,-0.19 -4.467,-0.769 -6.648,-1.811 -2.181,-1.042 -4.249,-2.547 -5.943,-4.395 -1.694,-1.8477 -3.014,-4.0381 -3.862,-6.3008 C -162.623,92.4376 -163,90.1026 -163,87.923"
           id="path461"
           style="stroke-width:2.00087;stroke-dasharray:none" />
        <path
           d="m -131.16,-79.3403 c 0.069,-1.6613 0.291,-3.2929 0.638,-4.8449 0.175,-0.7779 0.378,-1.532 0.608,-2.2625 0.114,-0.3636 0.236,-0.7227 0.364,-1.0771 0.064,-0.1789 0.129,-0.3534 0.195,-0.5237 0.064,-0.1689 0.128,-0.3298 0.203,-0.5132 0.074,-0.1835 0.161,-0.3896 0.247,-0.5876 0.085,-0.1968 0.171,-0.3892 0.258,-0.5771 0.176,-0.3794 0.359,-0.7531 0.55,-1.121 0.381,-0.7335 0.784,-1.4333 1.21,-2.0992 0.426,-0.6667 0.868,-1.2986 1.327,-1.8959 0.229,-0.2992 0.46,-0.5889 0.694,-0.8691 0.116,-0.1394 0.234,-0.2776 0.353,-0.4146 0.061,-0.0695 0.12,-0.1369 0.178,-0.2024 0.057,-0.0648 0.112,-0.1256 0.178,-0.1991 0.067,-0.0735 0.146,-0.1597 0.222,-0.2417 0.075,-0.0813 0.15,-0.1605 0.223,-0.2375 0.148,-0.1558 0.299,-0.3098 0.45,-0.462 0.303,-0.3029 0.608,-0.5938 0.915,-0.8724 0.616,-0.558 1.237,-1.072 1.864,-1.542 0.626,-0.4697 1.25,-0.8967 1.872,-1.2827 0.312,-0.193 0.621,-0.377 0.928,-0.55 0.152,-0.086 0.305,-0.17 0.46,-0.253 0.079,-0.042 0.155,-0.083 0.229,-0.122 0.072,-0.038 0.138,-0.072 0.227,-0.118 0.09,-0.045 0.202,-0.102 0.307,-0.154 0.105,-0.052 0.207,-0.102 0.306,-0.149 0.202,-0.096 0.405,-0.19 0.609,-0.281 0.405,-0.18 0.805,-0.347 1.2,-0.498 0.793,-0.304 1.565,-0.56 2.317,-0.767 1.502,-0.417 2.909,-0.661 4.201,-0.796"
           id="path463"
           style="stroke-width:2.00087;stroke-dasharray:none" />
        <path
           d="m -131.987,-79.4095 c 0.027,-2.8794 0.519,-5.9593 1.585,-8.9457 1.066,-2.9864 2.706,-5.8793 4.8,-8.3307 2.095,-2.4514 4.644,-4.4611 7.334,-5.8711 2.69,-1.409 5.52,-2.217 8.207,-2.515"
           id="path465"
           style="stroke-width:2.00087;stroke-dasharray:none" />
        <path
           d="m -132.192,-79.471 c 0.026,-2.8751 0.51,-5.9504 1.561,-8.9323 1.051,-2.9819 2.668,-5.8705 4.735,-8.3187 2.066,-2.4482 4.582,-4.456 7.237,-5.864 2.655,-1.409 5.449,-2.218 8.102,-2.516"
           id="path467"
           style="stroke-width:2.00087;stroke-dasharray:none" />
        <path
           d="m -162.862,-87.811 c 0.005,-2.1903 0.386,-4.5361 1.236,-6.8094 0.85,-2.2734 2.169,-4.4744 3.86,-6.3326 1.69,-1.858 3.753,-3.374 5.928,-4.426 2.175,-1.051 4.463,-1.639 6.63,-1.836"
           id="path469"
           style="stroke-width:2.00087;stroke-dasharray:none" />
        <path
           d="m -163,-87.923 c 0,-2.1796 0.377,-4.5146 1.226,-6.7772 0.848,-2.2627 2.168,-4.4531 3.862,-6.3008 1.694,-1.848 3.762,-3.353 5.943,-4.395 2.181,-1.042 4.475,-1.621 6.648,-1.811"
           id="path471"
           style="stroke-width:2.00087;stroke-dasharray:none" />
        <path
           d="m 162.814,-87.9386 c 0,-2.1796 -0.378,-4.5145 -1.226,-6.7771 -0.849,-2.2626 -2.168,-4.4529 -3.862,-6.3003 -1.694,-1.848 -3.762,-3.353 -5.943,-4.395 -2.181,-1.042 -4.475,-1.622 -6.648,-1.811"
           id="path473"
           style="stroke-width:2.00087;stroke-dasharray:none" />
        <path
           d="m 162.675,-87.8266 c -0.005,-2.1903 -0.386,-4.536 -1.236,-6.8093 -0.849,-2.2733 -2.168,-4.4743 -3.859,-6.3321 -1.69,-1.859 -3.753,-3.374 -5.928,-4.426 -2.175,-1.051 -4.463,-1.639 -6.63,-1.837"
           id="path475"
           style="stroke-width:2.00087;stroke-dasharray:none" />
        <path
           d="m 132.006,-79.4868 c -0.026,-2.8751 -0.51,-5.9502 -1.561,-8.9321 -1.051,-2.9818 -2.669,-5.8704 -4.735,-8.3185 -2.067,-2.4481 -4.582,-4.4556 -7.237,-5.8646 -2.655,-1.408 -5.449,-2.217 -8.102,-2.516"
           id="path477"
           style="stroke-width:2.00087;stroke-dasharray:none" />
        <path
           d="m 131.801,-79.4254 c -0.028,-2.8793 -0.519,-5.9592 -1.585,-8.9455 -1.066,-2.9863 -2.706,-5.8791 -4.8,-8.3304 -2.095,-2.4513 -4.644,-4.4617 -7.334,-5.8707 -2.69,-1.409 -5.52,-2.218 -8.207,-2.515"
           id="path479"
           style="stroke-width:2.00087;stroke-dasharray:none" />
        <path
           d="m 130.974,-79.3562 c -0.06,-1.4348 -0.236,-2.9402 -0.562,-4.4915 -0.163,-0.7774 -0.364,-1.5608 -0.603,-2.3503 -0.118,-0.3927 -0.249,-0.7888 -0.39,-1.1883 -0.142,-0.4005 -0.298,-0.8077 -0.453,-1.1911 -0.156,-0.3833 -0.312,-0.743 -0.478,-1.1038 -0.166,-0.3619 -0.341,-0.7216 -0.524,-1.0791 -0.366,-0.7124 -0.76,-1.4026 -1.181,-2.0706 -0.421,-0.6694 -0.868,-1.3141 -1.338,-1.9342 -0.234,-0.3082 -0.475,-0.6114 -0.722,-0.9095 -0.126,-0.1507 -0.25,-0.2972 -0.373,-0.4395 -0.122,-0.1411 -0.24,-0.2743 -0.38,-0.429 -0.14,-0.1547 -0.304,-0.3308 -0.462,-0.497 -0.157,-0.1649 -0.312,-0.3238 -0.466,-0.4766 -0.31,-0.3091 -0.623,-0.6067 -0.94,-0.8928 -0.632,-0.5691 -1.261,-1.0862 -1.889,-1.5516 -0.627,-0.4659 -1.246,-0.8869 -1.855,-1.2609 -0.305,-0.188 -0.605,-0.365 -0.901,-0.531 -0.146,-0.083 -0.294,-0.164 -0.442,-0.243 -0.075,-0.04 -0.148,-0.079 -0.218,-0.116 -0.069,-0.036 -0.133,-0.069 -0.217,-0.112 -0.084,-0.043 -0.189,-0.096 -0.288,-0.145 -0.098,-0.048 -0.193,-0.095 -0.286,-0.139 -0.188,-0.091 -0.377,-0.179 -0.566,-0.264 -0.376,-0.169 -0.745,-0.324 -1.107,-0.467 -0.364,-0.143 -0.72,-0.274 -1.069,-0.393 -0.174,-0.06 -0.347,-0.117 -0.52,-0.172 -0.087,-0.028 -0.172,-0.055 -0.255,-0.08 -0.082,-0.025 -0.159,-0.049 -0.253,-0.076 -0.094,-0.028 -0.206,-0.06 -0.312,-0.09 -0.105,-0.03 -0.208,-0.058 -0.309,-0.085 -0.203,-0.055 -0.406,-0.106 -0.608,-0.155 -0.402,-0.097 -0.794,-0.182 -1.177,-0.255 -0.767,-0.146 -1.497,-0.253 -2.19,-0.324"
           id="path481"
           style="stroke-width:2.00087;stroke-dasharray:none" />
        <path
           d="m 145.135,107.222 c 2.173,-0.189 4.467,-0.769 6.648,-1.811 2.181,-1.042 4.249,-2.547 5.943,-4.395 1.694,-1.8474 3.013,-4.0377 3.862,-6.3003 0.848,-2.2626 1.226,-4.5975 1.226,-6.7771"
           id="path483"
           style="stroke-width:2.00087;stroke-dasharray:none" />
        <path
           d="m 145.022,107.231 c 2.167,-0.198 4.455,-0.786 6.63,-1.837 2.175,-1.052 4.238,-2.567 5.928,-4.426 1.691,-1.8578 3.01,-4.0588 3.859,-6.3321 0.85,-2.2733 1.231,-4.619 1.236,-6.8093"
           id="path485"
           style="stroke-width:2.00087;stroke-dasharray:none" />
        <path
           d="m 110.371,105.118 c 2.653,-0.299 5.447,-1.108 8.102,-2.516 2.655,-1.409 5.17,-3.4165 7.237,-5.8646 2.066,-2.4481 3.684,-5.3367 4.735,-8.3185 1.051,-2.9819 1.535,-6.057 1.561,-8.9321"
           id="path487"
           style="stroke-width:2.00087;stroke-dasharray:none" />
        <path
           d="m 109.875,105.087 c 2.687,-0.297 5.517,-1.106 8.207,-2.515 2.69,-1.409 5.239,-3.4194 7.334,-5.8707 2.094,-2.4513 3.734,-5.3441 4.8,-8.3304 1.066,-2.9863 1.557,-6.0662 1.585,-8.9455"
           id="path489"
           style="stroke-width:2.00087;stroke-dasharray:none" />
        <path
           d="m 107.64,104.869 c 0.693,-0.071 1.423,-0.178 2.19,-0.324 0.383,-0.073 0.775,-0.158 1.177,-0.255 0.202,-0.049 0.405,-0.1 0.608,-0.155 0.101,-0.027 0.204,-0.055 0.309,-0.085 0.106,-0.03 0.218,-0.062 0.312,-0.09 0.094,-0.027 0.171,-0.051 0.253,-0.076 0.083,-0.025 0.168,-0.052 0.255,-0.08 0.173,-0.055 0.346,-0.112 0.52,-0.172 0.349,-0.119 0.705,-0.25 1.069,-0.393 0.362,-0.143 0.731,-0.298 1.107,-0.467 0.189,-0.085 0.378,-0.173 0.566,-0.264 0.093,-0.044 0.188,-0.091 0.286,-0.139 0.099,-0.049 0.204,-0.102 0.288,-0.145 0.084,-0.043 0.148,-0.076 0.217,-0.112 0.07,-0.037 0.143,-0.076 0.218,-0.116 0.148,-0.079 0.296,-0.16 0.442,-0.243 0.296,-0.166 0.596,-0.343 0.901,-0.531 0.609,-0.374 1.228,-0.795 1.855,-1.2609 0.628,-0.4654 1.257,-0.9825 1.889,-1.5516 0.317,-0.2861 0.63,-0.5837 0.94,-0.8928 0.154,-0.1528 0.309,-0.3117 0.466,-0.4766 0.158,-0.1662 0.322,-0.3423 0.462,-0.497 0.14,-0.1547 0.258,-0.2879 0.38,-0.429 0.123,-0.1423 0.247,-0.2888 0.373,-0.4395 0.247,-0.2981 0.488,-0.6013 0.722,-0.9095 0.47,-0.6201 0.917,-1.2648 1.338,-1.9342 0.421,-0.668 0.815,-1.3582 1.181,-2.0706 0.183,-0.3575 0.358,-0.7172 0.524,-1.0791 0.166,-0.3608 0.322,-0.7205 0.478,-1.1038 0.155,-0.3834 0.311,-0.7906 0.453,-1.1911 0.141,-0.3995 0.272,-0.7956 0.39,-1.1883 0.239,-0.7895 0.44,-1.5729 0.603,-2.3503 0.326,-1.5513 0.502,-3.0567 0.562,-4.4915"
           id="path491"
           style="stroke-width:2.00087;stroke-dasharray:none" />
      </g>
    </g>
    <path
       style="color:#000000;fill:#000000;stroke-width:2;stroke-dasharray:none"
       d="m 18.562576,593.11867 0.298828,0.16992 -0.02148,0.0195 -0.277344,-0.0488 z"
       id="path14675" />
  </g>
  <path
     style="color:#000000;fill:#000000;-inkscape-stroke:none"
     d="m 272.33496,251.09087 0.30859,0.0391 c 0.0123,0.007 0.014,0.009 0.0254,0.0156 v 0.0351 c -0.14364,-0.0335 -0.33787,-0.0782 -0.33789,-0.0781 -3e-5,1.6e-4 0.004,-0.0135 0.004,-0.0117 z"
     id="path14673" />
  <path
     style="color:#000000;fill:#000000;-inkscape-stroke:none"
     d="m 272.5508,250.99213 0.10547,0.16211 c -0.007,-0.0164 -0.008,-0.0227 -0.0137,-0.0332 0,0 0.0156,0.0332 0.0156,0.0332 -1.6e-4,-3.8e-4 -0.002,3.8e-4 -0.002,0 0,0 -0.17693,0.0704 -0.31446,0.125 v -0.0781 c 0.1013,-0.10077 0.20994,-0.20804 0.20899,-0.20899 z"
     id="path14671" />
</svg>
