<?xml version="1.0" encoding="UTF-8" standalone="no"?>
<svg
   id="svg2"
   version="1.1"
   viewBox="0 0 487.08246 335.00002"
   height="335.00003mm"
   width="487.08246mm"
   sodipodi:docname="LTX_WB.svg"
   inkscape:version="1.2.1 (9c6d41e410, 2022-07-14)"
   xml:space="preserve"
   xmlns:inkscape="http://www.inkscape.org/namespaces/inkscape"
   xmlns:sodipodi="http://sodipodi.sourceforge.net/DTD/sodipodi-0.dtd"
   xmlns:xlink="http://www.w3.org/1999/xlink"
   xmlns="http://www.w3.org/2000/svg"
   xmlns:svg="http://www.w3.org/2000/svg"
   xmlns:rdf="http://www.w3.org/1999/02/22-rdf-syntax-ns#"
   xmlns:cc="http://creativecommons.org/ns#"
   xmlns:dc="http://purl.org/dc/elements/1.1/"><sodipodi:namedview
     id="namedview13647"
     pagecolor="#ffffff"
     bordercolor="#666666"
     borderopacity="1.0"
     inkscape:showpageshadow="2"
     inkscape:pageopacity="0.0"
     inkscape:pagecheckerboard="0"
     inkscape:deskcolor="#d1d1d1"
     inkscape:document-units="mm"
     showgrid="false"
     inkscape:zoom="0.41884008"
     inkscape:cx="1044.5514"
     inkscape:cy="541.97296"
     inkscape:window-width="2400"
     inkscape:window-height="1434"
     inkscape:window-x="2391"
     inkscape:window-y="-9"
     inkscape:window-maximized="1"
     inkscape:current-layer="svg2"
     showguides="true"><sodipodi:guide
       position="29.225387,53.720097"
       orientation="1,0"
       id="guide1338"
       inkscape:locked="false" /><sodipodi:guide
       position="33.315427,135.83556"
       orientation="0,-1"
       id="guide1340"
       inkscape:locked="false" /><sodipodi:guide
       position="30.492597,-80.969715"
       orientation="0,-1"
       id="guide1342"
       inkscape:locked="false" /></sodipodi:namedview><!-- Working space 10 10 410 287 --><!-- Title block 220 227 410 287 --><metadata
     id="metadata849"><rdf:RDF><cc:Work
         rdf:about=""><dc:format>image/svg+xml</dc:format><dc:type
           rdf:resource="http://purl.org/dc/dcmitype/StillImage" /></cc:Work></rdf:RDF></metadata><defs
     id="defs847"><linearGradient
       gradientUnits="userSpaceOnUse"
       id="defitem29"
       y2="485.909"
       x2="655.35199"
       y1="807.466"
       x1="649.42902"><stop
         id="stop92"
         offset="0.0000000"
         style="stop-color:#ffffff;stop-opacity:1.0000000;" /><stop
         id="stop93"
         offset="1.0000000"
         style="stop-color:#ffffff;stop-opacity:0.13756600;" /></linearGradient><linearGradient
       xlink:href="#defitem29"
       id="linearGradient3448"
       gradientUnits="userSpaceOnUse"
       x1="649.42902"
       y1="807.466"
       x2="655.35199"
       y2="485.909" /><radialGradient
       gradientUnits="userSpaceOnUse"
       id="defitem28"
       fy="345.56"
       fx="1049.72"
       r="1202.15"
       cy="345.56"
       cx="1049.72"><stop
         id="stop89"
         offset="0.0000000"
         style="stop-color:#ffffff;stop-opacity:1.0000000;" /><stop
         id="stop90"
         offset="1.0000000"
         style="stop-color:#a8a8a8;stop-opacity:1.0000000;" /></radialGradient><radialGradient
       xlink:href="#defitem28"
       id="radialGradient3446"
       gradientUnits="userSpaceOnUse"
       cx="1092.7045"
       cy="64.845284"
       fx="1089.4004"
       fy="64.844765"
       r="1202.15" /><linearGradient
       gradientUnits="userSpaceOnUse"
       id="defitem30"
       y2="636.70697"
       x2="980"
       y1="636.70697"
       x1="287.5"><stop
         id="stop95"
         offset="0.0000000"
         style="stop-color:#464646;stop-opacity:1.0000000;" /><stop
         id="stop96"
         offset="1.0000000"
         style="stop-color:#c2c2c2;stop-opacity:1.0000000;" /></linearGradient><linearGradient
       xlink:href="#defitem30"
       id="linearGradient3444"
       gradientUnits="userSpaceOnUse"
       gradientTransform="matrix(1,0,0,1.016038,0,-11.73855)"
       x1="287.5"
       y1="636.70697"
       x2="980"
       y2="636.70697" /><linearGradient
       gradientUnits="userSpaceOnUse"
       id="defitem27"
       y2="317.44699"
       x2="985.98199"
       y1="403.18799"
       x1="921.091"><stop
         id="stop86"
         offset="0.0000000"
         style="stop-color:#7e7e7e;stop-opacity:1.0000000;" /><stop
         id="stop87"
         offset="1.0000000"
         style="stop-color:#e5e5e5;stop-opacity:1.0000000;" /></linearGradient><linearGradient
       xlink:href="#defitem27"
       id="linearGradient3442"
       gradientUnits="userSpaceOnUse"
       x1="921.091"
       y1="403.18799"
       x2="985.98199"
       y2="317.44699" /><linearGradient
       gradientUnits="userSpaceOnUse"
       id="defitem26"
       y2="360.27499"
       x2="293.37"
       y1="346.30399"
       x1="530.76099"><stop
         id="stop83"
         offset="0.0000000"
         style="stop-color:#5f5f5f;stop-opacity:1.0000000;" /><stop
         id="stop84"
         offset="1.0000000"
         style="stop-color:#e5e5e5;stop-opacity:1.0000000;" /></linearGradient><linearGradient
       xlink:href="#defitem26"
       id="linearGradient3440"
       gradientUnits="userSpaceOnUse"
       x1="530.76099"
       y1="346.30399"
       x2="293.37"
       y2="360.27499" /><linearGradient
       gradientUnits="userSpaceOnUse"
       id="defitem25"
       y2="337.60999"
       x2="308.75"
       y1="412.91901"
       x1="164.013"><stop
         id="stop80"
         offset="0.0000000"
         style="stop-color:#ffffff;stop-opacity:1.0000000;" /><stop
         id="stop81"
         offset="1.0000000"
         style="stop-color:#bfbfbf;stop-opacity:1.0000000;" /></linearGradient><linearGradient
       xlink:href="#defitem25"
       id="linearGradient3438"
       gradientUnits="userSpaceOnUse"
       x1="164.013"
       y1="412.91901"
       x2="308.75"
       y2="337.60999" /><linearGradient
       gradientUnits="userSpaceOnUse"
       id="defitem24"
       y2="380.47198"
       x2="992.48901"
       y1="270.854"
       x1="1094.25"><stop
         id="stop77"
         offset="0.0000000"
         style="stop-color:#6a6a6a;stop-opacity:1.0000000;" /><stop
         id="stop78"
         offset="1.0000000"
         style="stop-color:#e6e6e6;stop-opacity:1.0000000;" /></linearGradient><linearGradient
       xlink:href="#defitem24"
       id="linearGradient3436"
       gradientUnits="userSpaceOnUse"
       x1="1094.25"
       y1="270.854"
       x2="992.48901"
       y2="380.47198" /><linearGradient
       gradientUnits="userSpaceOnUse"
       id="defitem23"
       y2="549.37799"
       x2="1049.84"
       y1="476.465"
       x1="1170.91"><stop
         id="stop74"
         offset="0.0000000"
         style="stop-color:#5f5f5f;stop-opacity:1.0000000;" /><stop
         id="stop75"
         offset="1.0000000"
         style="stop-color:#ebebeb;stop-opacity:1.0000000;" /></linearGradient><linearGradient
       xlink:href="#defitem23"
       id="linearGradient3434"
       gradientUnits="userSpaceOnUse"
       x1="1170.91"
       y1="476.465"
       x2="1049.84"
       y2="549.37799" /><linearGradient
       gradientUnits="userSpaceOnUse"
       id="defitem22"
       y2="313.276"
       x2="576.14899"
       y1="105.486"
       x1="783.716"><stop
         id="stop71"
         offset="0.0000000"
         style="stop-color:#5a5a5a;stop-opacity:1.0000000;" /><stop
         id="stop72"
         offset="1.0000000"
         style="stop-color:#c7c7c7;stop-opacity:1.0000000;" /></linearGradient><linearGradient
       xlink:href="#defitem22"
       id="linearGradient3432"
       gradientUnits="userSpaceOnUse"
       x1="783.716"
       y1="105.486"
       x2="576.14899"
       y2="313.276" /><linearGradient
       gradientUnits="userSpaceOnUse"
       id="defitem21"
       y2="484.716"
       x2="128.05499"
       y1="418.698"
       x1="280.04401"><stop
         id="stop68"
         offset="0.0000000"
         style="stop-color:#666666;stop-opacity:1.0000000;" /><stop
         id="stop69"
         offset="1.0000000"
         style="stop-color:#d8d8d8;stop-opacity:1.0000000;" /></linearGradient><linearGradient
       xlink:href="#defitem21"
       id="linearGradient3430"
       gradientUnits="userSpaceOnUse"
       x1="280.04401"
       y1="418.698"
       x2="128.05499"
       y2="484.716" /><linearGradient
       gradientUnits="userSpaceOnUse"
       id="defitem20"
       y2="584.40997"
       x2="220"
       y1="636.95398"
       x1="129.687"><stop
         id="stop65"
         offset="0.0000000"
         style="stop-color:#ffffff;stop-opacity:1.0000000;" /><stop
         id="stop66"
         offset="1.0000000"
         style="stop-color:#bbbbbb;stop-opacity:1.0000000;" /></linearGradient><linearGradient
       xlink:href="#defitem20"
       id="linearGradient3428"
       gradientUnits="userSpaceOnUse"
       x1="129.687"
       y1="636.95398"
       x2="220"
       y2="584.40997" /><linearGradient
       gradientUnits="userSpaceOnUse"
       id="defitem19"
       y2="583.75299"
       x2="1127.98"
       y1="629.02802"
       x1="1048.72"><stop
         id="stop62"
         offset="0.0000000"
         style="stop-color:#5e5e5e;stop-opacity:1.0000000;" /><stop
         id="stop63"
         offset="1.0000000"
         style="stop-color:#ededed;stop-opacity:1.0000000;" /></linearGradient><linearGradient
       xlink:href="#defitem19"
       id="linearGradient3426"
       gradientUnits="userSpaceOnUse"
       x1="1048.72"
       y1="629.02802"
       x2="1127.98"
       y2="583.75299" /><linearGradient
       gradientUnits="userSpaceOnUse"
       id="defitem18"
       y2="291.97699"
       x2="581.32397"
       y1="387.27301"
       x1="370.022"><stop
         id="stop59"
         offset="0.0000000"
         style="stop-color:#636363;stop-opacity:1.0000000;" /><stop
         id="stop60"
         offset="1.0000000"
         style="stop-color:#d6d6d6;stop-opacity:1.0000000;" /></linearGradient><linearGradient
       xlink:href="#defitem18"
       id="linearGradient3424"
       gradientUnits="userSpaceOnUse"
       x1="370.022"
       y1="387.27301"
       x2="581.32397"
       y2="291.97699" /><linearGradient
       gradientUnits="userSpaceOnUse"
       id="defitem17"
       y2="351.939"
       x2="909.59399"
       y1="351.939"
       x1="732.15601"><stop
         id="stop56"
         offset="0.0000000"
         style="stop-color:#676767;stop-opacity:1.0000000;" /><stop
         id="stop57"
         offset="1.0000000"
         style="stop-color:#d3d3d3;stop-opacity:1.0000000;" /></linearGradient><linearGradient
       xlink:href="#defitem17"
       id="linearGradient3422"
       gradientUnits="userSpaceOnUse"
       x1="732.15601"
       y1="351.939"
       x2="909.59399"
       y2="351.939" /><linearGradient
       gradientUnits="userSpaceOnUse"
       id="defitem16"
       y2="494.71301"
       x2="1073.01"
       y1="494.71301"
       x1="1014.43"><stop
         id="stop53"
         offset="0.0000000"
         style="stop-color:#666666;stop-opacity:1.0000000;" /><stop
         id="stop54"
         offset="1.0000000"
         style="stop-color:#dcdcdc;stop-opacity:1.0000000;" /></linearGradient><linearGradient
       xlink:href="#defitem16"
       id="linearGradient3420"
       gradientUnits="userSpaceOnUse"
       x1="1014.43"
       y1="494.71301"
       x2="1073.01"
       y2="494.71301" /><linearGradient
       gradientUnits="userSpaceOnUse"
       id="defitem15"
       y2="516.37"
       x2="193.27699"
       y1="452.388"
       x1="272.59201"><stop
         id="stop50"
         offset="0.0000000"
         style="stop-color:#6e6e6e;stop-opacity:1.0000000;" /><stop
         id="stop51"
         offset="1.0000000"
         style="stop-color:#d8d8d8;stop-opacity:1.0000000;" /></linearGradient><linearGradient
       xlink:href="#defitem15"
       id="linearGradient3418"
       gradientUnits="userSpaceOnUse"
       x1="272.59201"
       y1="452.388"
       x2="193.27699"
       y2="516.37" /><radialGradient
       gradientUnits="userSpaceOnUse"
       id="defitem14"
       fy="211.088"
       fx="1037.22"
       r="1164.28"
       cy="211.088"
       cx="1037.22"><stop
         id="stop47"
         offset="0.0000000"
         style="stop-color:#ffffff;stop-opacity:1.0000000;" /><stop
         id="stop48"
         offset="1.0000000"
         style="stop-color:#aaaaaa;stop-opacity:1.0000000;" /></radialGradient><radialGradient
       xlink:href="#defitem14"
       id="radialGradient3416"
       gradientUnits="userSpaceOnUse"
       cx="1037.22"
       cy="211.088"
       fx="1037.22"
       fy="211.088"
       r="1164.28" /><linearGradient
       gradientUnits="userSpaceOnUse"
       id="defitem13"
       y2="686.83002"
       x2="379.241"
       y1="732.12903"
       x1="342.64999"><stop
         id="stop44"
         offset="0.0000000"
         style="stop-color:#ffffff;stop-opacity:1.0000000;" /><stop
         id="stop45"
         offset="1.0000000"
         style="stop-color:#989898;stop-opacity:1.0000000;" /></linearGradient><linearGradient
       xlink:href="#defitem13"
       id="linearGradient3414"
       gradientUnits="userSpaceOnUse"
       x1="342.64999"
       y1="732.12903"
       x2="379.241"
       y2="686.83002" /><radialGradient
       gradientUnits="userSpaceOnUse"
       id="defitem12"
       fy="484.409"
       fx="632.78101"
       r="540.27899"
       cy="484.409"
       cx="632.78101"><stop
         id="stop41"
         offset="0.0000000"
         style="stop-color:#ffffff;stop-opacity:1.0000000;" /><stop
         id="stop42"
         offset="1.0000000"
         style="stop-color:#ededed;stop-opacity:1.0000000;" /></radialGradient><radialGradient
       xlink:href="#defitem12"
       id="radialGradient3412"
       gradientUnits="userSpaceOnUse"
       cx="632.78101"
       cy="484.409"
       fx="632.78101"
       fy="484.409"
       r="540.27899" /><radialGradient
       xlink:href="#linearGradient3682"
       id="radialGradient3817"
       gradientUnits="userSpaceOnUse"
       gradientTransform="matrix(1.1149219,0.2722306,-0.7507171,3.0745639,-471.08629,-148.32863)"
       cx="270.58316"
       cy="33.899986"
       fx="270.58316"
       fy="33.899986"
       r="19.571428" /><linearGradient
       id="linearGradient3682"><stop
         style="stop-color:#ff6d0f;stop-opacity:1;"
         offset="0"
         id="stop3684" /><stop
         style="stop-color:#ff1000;stop-opacity:1;"
         offset="1"
         id="stop3686" /></linearGradient><radialGradient
       xlink:href="#linearGradient3864"
       id="radialGradient3661"
       gradientUnits="userSpaceOnUse"
       gradientTransform="matrix(0.6186598,0.9666542,-1.0332462,0.6612786,-327.27568,-255.84136)"
       cx="282.64584"
       cy="29.149046"
       fx="282.64584"
       fy="29.149046"
       r="19.571428" /><linearGradient
       id="linearGradient3864"><stop
         id="stop3866"
         offset="0"
         style="stop-color:#71b2f8;stop-opacity:1;" /><stop
         id="stop3868"
         offset="1"
         style="stop-color:#002795;stop-opacity:1;" /></linearGradient><radialGradient
       gradientUnits="userSpaceOnUse"
       id="defitem28-9"
       fy="345.56"
       fx="1049.72"
       r="1202.15"
       cy="345.56"
       cx="1049.72"><stop
         id="stop89-8"
         offset="0.0000000"
         style="stop-color:#ffffff;stop-opacity:1.0000000;" /><stop
         id="stop90-8"
         offset="1.0000000"
         style="stop-color:#a8a8a8;stop-opacity:1.0000000;" /></radialGradient><radialGradient
       xlink:href="#defitem28-9"
       id="radialGradient3446-3"
       gradientUnits="userSpaceOnUse"
       cx="1092.7045"
       cy="64.845284"
       fx="1089.4004"
       fy="64.844765"
       r="1202.15" /><radialGradient
       gradientUnits="userSpaceOnUse"
       id="defitem14-4"
       fy="211.088"
       fx="1037.22"
       r="1164.28"
       cy="211.088"
       cx="1037.22"><stop
         id="stop47-5"
         offset="0.0000000"
         style="stop-color:#ffffff;stop-opacity:1.0000000;" /><stop
         id="stop48-5"
         offset="1.0000000"
         style="stop-color:#aaaaaa;stop-opacity:1.0000000;" /></radialGradient><radialGradient
       xlink:href="#defitem14-4"
       id="radialGradient3416-9"
       gradientUnits="userSpaceOnUse"
       cx="1037.22"
       cy="211.088"
       fx="1037.22"
       fy="211.088"
       r="1164.28" /><radialGradient
       gradientUnits="userSpaceOnUse"
       id="defitem12-1"
       fy="484.409"
       fx="632.78101"
       r="540.27899"
       cy="484.409"
       cx="632.78101"><stop
         id="stop41-3"
         offset="0.0000000"
         style="stop-color:#ffffff;stop-opacity:1.0000000;" /><stop
         id="stop42-8"
         offset="1.0000000"
         style="stop-color:#ededed;stop-opacity:1.0000000;" /></radialGradient><radialGradient
       xlink:href="#defitem12-1"
       id="radialGradient3412-3"
       gradientUnits="userSpaceOnUse"
       cx="632.78101"
       cy="484.409"
       fx="632.78101"
       fy="484.409"
       r="540.27899" /><radialGradient
       xlink:href="#linearGradient3682"
       id="radialGradient3817-0"
       gradientUnits="userSpaceOnUse"
       gradientTransform="matrix(1.1149219,0.2722306,-0.7507171,3.0745639,-471.08629,-148.32863)"
       cx="270.58316"
       cy="33.899986"
       fx="270.58316"
       fy="33.899986"
       r="19.571428" /><radialGradient
       xlink:href="#linearGradient3864"
       id="radialGradient3661-4"
       gradientUnits="userSpaceOnUse"
       gradientTransform="matrix(0.6186598,0.9666542,-1.0332462,0.6612786,-327.27568,-255.84136)"
       cx="282.64584"
       cy="29.149046"
       fx="282.64584"
       fy="29.149046"
       r="19.571428" /></defs><path
     id="path14607"
     style="color:#000000;fill:#c8c8c8;fill-opacity:1;stroke:#000000;stroke-width:1.00525;stroke-opacity:1"
     d="m 120.13331,0.50262507 -5.90842,4.13961003 -0.19978,-0.28052 0.0242,0.34343 -58.792666,4.09629 c -1.17586,1.7813099 -2.3301,3.5758099 -3.46615,5.3823199 -1.62626,2.58764 -3.21099,5.20117 -4.75408,7.83886 -5.56183,9.5059 -10.6069,19.36697 -15.10819,29.6074 -1.56777,3.566848 -2.98317,6.990482 -4.21469,10.110812 -1.23258,3.12028 -2.28329,5.93971 -3.06761,8.11523 C 1.9288441,132.86846 1.9028241,201.77558 24.540394,264.80865 l 0.3168,-0.11236 0.118,0.33107 c 0.78324,2.17228 1.83336,4.99038 3.06346,8.10698 1.23111,3.11661 2.64477,6.53297 4.21057,10.09534 l 0.14084,0.31969 -0.30127,0.13311 c 4.46512,10.12458 9.44455,19.89444 14.94767,29.30009 1.54309,2.6373 3.12782,5.24637 4.75408,7.8337 1.07077,1.70287 2.1573,3.39411 3.26333,5.075 l 58.533876,4.07772 -0.0283,0.34651 0.20393,-0.28462 6.37013,4.46652 h 253.89525 l 6.37125,-4.46652 0.20291,0.28462 -0.0273,-0.34651 58.52971,-4.07772 c 1.10593,-1.68091 2.19671,-3.37213 3.26738,-5.075 1.62626,-2.58733 3.21098,-5.1964 4.75408,-7.8337 5.5618,-9.50592 10.60692,-19.37215 15.10816,-29.61255 1.56775,-3.56685 2.9821,-6.99049 4.21365,-10.1108 1.23255,-3.11928 2.27917,-5.93989 3.06345,-8.11525 22.75713,-63.12304 22.75713,-132.16471 0,-195.287773 -0.78428,-2.17456 -1.83181,-4.99695 -3.06345,-8.11834 -1.23256,-3.12033 -2.6459,-6.540834 -4.21365,-10.107702 -4.50124,-10.24043 -9.54636,-20.1015 -15.10816,-29.6074 -1.5431,-2.63769 -3.12782,-5.25122 -4.75408,-7.83887 -1.13605,-1.80652 -2.29544,-3.60099 -3.47141,-5.3823099 l -58.7875,-4.09629 0.0232,-0.35065 -0.20291,0.28774 -5.90529,-4.13962003 z M 57.138414,83.354667 V 251.65038 l -10.39652,-0.36713 c -3.59318,-0.12492 -7.18292,-0.24837 -10.77232,-0.37332 -1.42648,-3.36112 -2.77392,-6.76579 -4.03456,-10.21704 -1.60008,-4.38335 -3.01226,-8.70638 -4.23335,-12.84681 -0.61002,-2.07019 -1.1723,-4.09454 -1.68236,-6.02996 -0.50903,-1.93519 -0.96541,-3.78262 -1.36245,-5.46895 -7.55525,-32.13018 -7.55525,-65.56428 0,-97.69443 0.39706,-1.68565 0.8566,-3.53213 1.3666,-5.46792 0.50903,-1.93586 1.07134,-3.95998 1.68236,-6.02995 1.22005,-4.13993 2.63009,-8.464783 4.2292,-12.847863 1.26064,-3.45124 2.60808,-6.8549 4.03456,-10.21599 3.5894,-0.12494 7.17904,-0.24941 10.77232,-0.37435 z m 379.885126,0 10.39228,0.362 c 3.59196,0.12492 7.18423,0.24955 10.77235,0.37435 1.42647,3.36109 2.77393,6.76475 4.03457,10.21599 1.60009,4.38338 3.01323,8.707433 4.23436,12.847863 0.61007,2.07017 1.17233,4.09455 1.68235,6.02995 0.50901,1.93519 0.96436,3.78159 1.3614,5.46792 7.55529,32.13017 7.55529,65.56423 0,97.69443 -0.39704,1.68569 -0.85138,3.53318 -1.3614,5.46895 -0.50901,1.93588 -1.07137,3.95997 -1.68235,6.02996 -1.22002,4.13991 -2.63528,8.46375 -4.23436,12.84681 -1.26064,3.45125 -2.6081,6.85592 -4.03457,10.21704 -3.58812,0.12493 -7.18039,0.24842 -10.77235,0.37332 l -10.39228,0.36713 z" /><path
     style="color:#000000;fill:#000000;stroke-width:1.00525"
     d="m 245.30814,163.09093 c 6e-5,1.8e-4 0.002,-1.8e-4 0.002,0 0.39056,1.07236 0.88933,2.40781 1.4862,3.91009 0.60262,1.51548 1.29887,3.18038 2.06055,4.90813 -0.76172,-1.72772 -1.45989,-3.39262 -2.06252,-4.90813 -0.59723,-1.50317 -1.09569,-2.83747 -1.4862,-3.91009 z"
     id="path14609" /><path
     style="color:#000000;fill:#c8c8c8;fill-opacity:1;stroke-width:1.00525"
     d="m 18.580774,99.584383 v 0.23308 h -0.23337 V 235.18257 h 0.23337 v 0.23307 h 0.0944 0.2832 0.46937 0.65818 0.84696 1.03314 1.22457 1.40812 1.59692 1.78571 1.97188 2.15807 2.34686 2.53042 49.99208 44.503866 33.67419 6.15952 151.5286 6.15953 33.67419 44.50121 49.99471 2.53042 2.34686 2.15806 1.97189 1.78571 1.59693 1.4081 1.22457 1.03314 0.84696 0.65819 0.46937 0.2832 0.0944 v -0.23307 h 0.23337 V 99.817463 h -0.23337 v -0.23308 h -0.0944 -0.2832 -0.46937 -0.65819 -0.84696 -1.03314 -1.22457 -1.4081 -1.59693 -1.78571 -1.97189 -2.15806 -2.34686 -2.53042 -49.99471 -44.50121 -33.67419 -6.15953 -151.5286 -6.15952 -33.67419 -44.503866 -49.99208 -2.53042 -2.34686 -2.15807 -1.97188 -1.78571 -1.59692 -1.40812 -1.22457 -1.03314 -0.84696 -0.65818 -0.46937 -0.2832 z"
     id="57" /><g
     id="g12752"
     transform="matrix(1.3425622,0,0,1.3259919,-54.289926,-41.365845)"
     style="stroke-width:0.753417"><path
       style="color:#000000;fill:none;stroke:#000000;stroke-width:0.753417;stroke-opacity:1"
       d="m 381.07031,106.64844 h 1.77735 1.74804 1.60742 1.46875 1.33008 1.18946 1.04882 0.91211 0.76953 0.63086 0.49024 0.34961 0.10547 v 101.73633 h -0.10547 -0.34961 -0.49024 -0.63086 -0.76953 -0.91211 -1.04882 -1.18946 -1.33008 -1.46875 -1.60742 -1.74804 -1.77735 c -0.0931,-0.18164 -0.1861,-0.36113 -0.27734,-0.54883 -0.10787,-0.22023 -0.21653,-0.45678 -0.32422,-0.71094 -0.21447,-0.50841 -0.42686,-1.08489 -0.63867,-1.72852 -0.21175,-0.64249 -0.42232,-1.35236 -0.63086,-2.13086 -0.20852,-0.78039 -0.41245,-1.62734 -0.61524,-2.53906 -0.4048,-1.82385 -0.7895,-3.87889 -1.14453,-6.12695 -0.3565,-2.24947 -0.68462,-4.71204 -0.98437,-7.38867 l -0.17188,0.0195 0.13867,-0.10547 c -1.56451,-2.08209 -2.98771,-4.29876 -4.2539,-6.66992 -1.26542,-2.37118 -2.3729,-4.8962 -3.2832,-7.61133 l -0.16602,0.0547 0.0508,-0.16602 c -2.44266,-0.73438 -4.86644,-1.51894 -7.25976,-2.38281 -2.3928,-0.86448 -4.76225,-1.80646 -7.07032,-2.89063 -1.15244,-0.54235 -2.28827,-1.11975 -3.39258,-1.75195 -1.10362,-0.63222 -2.17674,-1.31794 -3.17578,-2.08789 -0.49964,-0.38213 -0.97819,-0.79288 -1.43554,-1.23047 -0.45461,-0.43856 -0.88472,-0.90956 -1.25977,-1.41797 -0.37541,-0.5089 -0.69709,-1.05482 -0.92187,-1.63672 -0.22483,-0.58202 -0.35352,-1.20261 -0.35352,-1.81836 0,-0.61878 0.1292,-1.24122 0.35547,-1.82617 0.227,-0.58496 0.55231,-1.13425 0.92773,-1.64258 0.75123,-1.01428 1.70176,-1.87484 2.71289,-2.65429 1.00954,-0.77588 2.07537,-1.45348 3.17383,-2.08008 1.09771,-0.62658 2.22636,-1.20204 3.375,-1.74219 2.30054,-1.07989 4.67359,-2.02193 7.06641,-2.88672 2.39408,-0.86431 4.81664,-1.64836 7.25781,-2.38281 l -0.0508,-0.16992 0.16602,0.0566 c 0.90953,-2.71545 2.01777,-5.2384 3.2832,-7.60938 1.2654,-2.37091 2.69008,-4.58956 4.2539,-6.67187 l -0.13867,-0.10352 0.17188,0.0176 c 0.29824,-2.67101 0.62591,-5.13139 0.98242,-7.38281 0.17751,-1.12592 0.36375,-2.20193 0.55469,-3.22656 0.19167,-1.02487 0.39051,-1.99974 0.59179,-2.90821 0.40408,-1.81586 0.81791,-3.36832 1.24219,-4.65625 0.21179,-0.64483 0.42536,-1.22292 0.64063,-1.73437 0.10758,-0.25546 0.2162,-0.49312 0.32422,-0.71484 0.0927,-0.18899 0.18614,-0.36667 0.27929,-0.54883 z"
       id="path11619" /><path
       style="color:#000000;fill:none;stroke:#000000;stroke-width:0.753417;stroke-opacity:1"
       d="m 68.273437,106.64844 h 36.951173 33.14844 25.08203 4.58789 112.86523 4.58789 25.08203 33.14649 36.95312 c -0.0666,0.12977 -0.13322,0.25601 -0.20117,0.39453 -0.11099,0.22784 -0.22211,0.47338 -0.33203,0.73437 -0.21973,0.52205 -0.43618,1.10756 -0.65039,1.75977 -0.42921,1.30288 -0.84603,2.86528 -1.25195,4.68945 v 0.002 c -0.20222,0.91269 -0.40143,1.88963 -0.59375,2.91796 v 0.002 c -0.19156,1.02796 -0.37865,2.10536 -0.55664,3.23437 -0.3556,2.24563 -0.68103,4.7021 -0.97852,7.36133 -1.56132,2.08342 -2.98865,4.29732 -4.25391,6.66797 -1.25978,2.36041 -2.35941,4.8784 -3.26953,7.57812 -2.41923,0.72904 -4.82161,1.50562 -7.19726,2.36329 -2.39968,0.86726 -4.78225,1.81444 -7.09571,2.90039 h -0.002 c -1.15535,0.5433 -2.29115,1.12185 -3.39844,1.7539 -1.10803,0.63206 -2.18888,1.31893 -3.21484,2.10742 -1.02587,0.79081 -2.00052,1.67118 -2.7793,2.72266 v 0.002 c -0.38958,0.5275 -0.73165,1.10162 -0.97265,1.72266 -0.24024,0.62105 -0.37891,1.28563 -0.37891,1.95312 0,0.66468 0.13828,1.32746 0.37695,1.94532 0.23872,0.61796 0.57721,1.18866 0.9668,1.71679 0.38966,0.52821 0.83283,1.01343 1.29883,1.46289 v 0.002 c 0.46665,0.44649 0.95499,0.86397 1.46484,1.2539 1.01547,0.78261 2.10147,1.47547 3.21485,2.11329 1.11419,0.63785 2.25891,1.22016 3.41797,1.76562 2.32093,1.09021 4.6999,2.03537 7.0996,2.90234 2.37493,0.85723 4.77851,1.63432 7.19922,2.36329 0.91081,2.69929 2.00974,5.21748 3.26953,7.57812 1.26597,2.37073 2.69182,4.58656 4.25391,6.66992 0.29895,2.66463 0.62486,5.1214 0.98047,7.36524 0.35597,2.25403 0.74174,4.31603 1.14844,6.14843 0.20371,0.91588 0.40915,1.76684 0.61914,2.55274 0.20995,0.78376 0.42247,1.50033 0.63672,2.15039 0.21419,0.65086 0.4294,1.23663 0.64843,1.75586 0.10981,0.25914 0.2209,0.5016 0.33204,0.72851 0.0671,0.13804 0.13272,0.26503 0.19921,0.39454 H 343.72461 310.57812 285.49609 280.9082 168.04297 163.45508 138.37305 105.22461 68.273437 c 0.0665,-0.12951 0.132125,-0.2565 0.199219,-0.39454 0.111136,-0.22691 0.222226,-0.46937 0.332031,-0.72851 0.219031,-0.51923 0.434248,-1.105 0.648438,-1.75586 0.214247,-0.65006 0.426764,-1.36663 0.636719,-2.15039 0.209984,-0.7859 0.415428,-1.63686 0.61914,-2.55274 0.406699,-1.8324 0.792467,-3.8944 1.148438,-6.14843 0.355608,-2.24384 0.681517,-4.70061 0.980469,-7.36524 1.562094,-2.08336 2.987943,-4.29919 4.253906,-6.66992 1.260068,-2.36116 2.358612,-4.88011 3.269531,-7.58008 2.419925,-0.72876 4.825064,-1.50437 7.199219,-2.36133 2.399704,-0.86697 4.778676,-1.81213 7.099609,-2.90234 1.159054,-0.54546 2.30378,-1.12777 3.417969,-1.76562 1.113376,-0.63782 2.199375,-1.33068 3.214845,-2.11329 0.50985,-0.38993 0.99819,-0.8074 1.46484,-1.2539 v -0.002 c 0.466,-0.44945 0.90917,-0.93467 1.29883,-1.46289 0.38959,-0.52812 0.72808,-1.09883 0.9668,-1.71679 0.23867,-0.61785 0.37695,-1.28064 0.37695,-1.94532 0,-0.6675 -0.13867,-1.33206 -0.37891,-1.95312 -0.241,-0.62104 -0.58307,-1.19516 -0.97265,-1.72266 v -0.002 c -0.77877,-1.05147 -1.75343,-1.93185 -2.7793,-2.72266 -1.02596,-0.78849 -2.106804,-1.47536 -3.214843,-2.10742 -1.107289,-0.63205 -2.245037,-1.2106 -3.40039,-1.7539 -2.313454,-1.08595 -4.696024,-2.03313 -7.095703,-2.90039 -2.374882,-0.85739 -4.778823,-1.6325 -7.197266,-2.36133 -0.910225,-2.70039 -2.009473,-5.21916 -3.269531,-7.58008 -1.265257,-2.37065 -2.692585,-4.58455 -4.253906,-6.66797 -0.297492,-2.65923 -0.624874,-5.1157 -0.980469,-7.36133 h 0.002 c -0.177993,-1.12901 -0.36508,-2.20641 -0.556641,-3.23437 v -0.002 c -0.192323,-1.02833 -0.391532,-2.00527 -0.59375,-2.91796 v -0.002 c -0.405923,-1.82417 -0.82274,-3.38657 -1.251953,-4.68945 -0.214211,-0.65221 -0.430661,-1.23772 -0.65039,-1.75977 -0.109916,-0.26099 -0.221043,-0.50653 -0.332032,-0.73437 -0.06794,-0.13852 -0.134545,-0.26476 -0.201172,-0.39453 z"
       id="path11617" /><path
       style="color:#000000;fill:none;stroke:#000000;stroke-width:0.753417;stroke-opacity:1"
       d="m 54.453125,106.64844 h 0.105469 0.349609 0.490234 0.63086 0.769531 0.912109 1.048829 1.189453 1.330078 1.46875 1.607422 1.748047 1.777343 c 0.09315,0.18216 0.186599,0.35984 0.279297,0.54883 0.108011,0.22172 0.216635,0.45938 0.324219,0.71484 0.21527,0.51145 0.428836,1.08954 0.640625,1.73437 0.424286,1.28793 0.838112,2.84039 1.242187,4.65625 0.201283,0.90847 0.400121,1.88334 0.591797,2.90821 0.19094,1.02463 0.375228,2.10064 0.552735,3.22656 h 0.002 c 0.356513,2.25142 0.684177,4.7118 0.982422,7.38281 l 0.171875,-0.0176 -0.138672,0.10352 c 1.563824,2.08231 2.988508,4.30096 4.253906,6.67187 1.265425,2.37098 2.373669,4.89393 3.283203,7.60938 l 0.166016,-0.0547 -0.05078,0.16797 c 2.441169,0.73445 4.863727,1.5185 7.257812,2.38281 2.392816,0.86479 4.765865,1.80683 7.066406,2.88672 1.148645,0.54015 2.277292,1.11561 3.375,1.74219 1.098459,0.6266 2.164293,1.3042 3.173833,2.08008 1.01113,0.77945 1.96166,1.64002 2.71289,2.65429 0.37542,0.50833 0.70073,1.05762 0.92773,1.64258 0.22627,0.58496 0.35547,1.20738 0.35547,1.82617 0,0.61575 -0.12869,1.23635 -0.35351,1.81836 -0.22479,0.5819 -0.54647,1.12783 -0.92188,1.63672 -0.37505,0.50842 -0.80516,0.97942 -1.25976,1.41797 -0.45735,0.4376 -0.93591,0.84834 -1.43555,1.23047 -0.99904,0.76995 -2.074116,1.45567 -3.177738,2.08789 -1.103835,0.63187 -2.238705,1.20985 -3.390625,1.75195 -2.308063,1.08417 -4.677521,2.02615 -7.070313,2.89063 -2.393327,0.86387 -4.817103,1.64843 -7.259765,2.38281 l 0.04883,0.16602 -0.164063,-0.0547 c -0.9103,2.71513 -2.017788,5.24015 -3.283203,7.61133 -1.266189,2.37116 -2.68939,4.58783 -4.253906,6.66992 l 0.138672,0.10547 -0.171875,-0.0195 c -0.299753,2.67663 -0.627874,5.1392 -0.984375,7.38867 -0.355029,2.24806 -0.739731,4.3031 -1.144532,6.12695 -0.202787,0.91172 -0.406719,1.75867 -0.615234,2.53906 -0.208544,0.7785 -0.419107,1.48837 -0.630859,2.13086 -0.21181,0.64363 -0.424203,1.22011 -0.638672,1.72852 -0.107694,0.25416 -0.216355,0.49071 -0.324219,0.71094 -0.09124,0.1877 -0.184287,0.36719 -0.277344,0.54883 h -1.777343 -1.748047 -1.607422 -1.46875 -1.330078 -1.189453 -1.048829 -0.912109 -0.769531 -0.63086 -0.490234 -0.349609 -0.105469 z"
       id="path11615" /></g><g
     id="g5572"
     transform="translate(-580.04185,364.55418)"><path
       style="color:#000000;fill:#c8c8c8;fill-opacity:1;stroke:#000000;stroke-width:1.01556;stroke-opacity:1"
       d="m 820.57459,-341.06399 c 23.75304,-0.77884 47.59932,1.98088 70.59145,8.67117 h 0.004 0.004 c 21.39464,5.88658 41.99992,14.51127 61.35103,25.32504 0.006,0.003 0.0101,0.005 0.0162,0.008 l 0.0122,0.008 0.32013,0.23605 0.15419,-0.21244 -0.13436,0.22425 c 0.70385,0.42159 3.91376,2.3185 4.8257,2.85236 l 0.13842,-0.23605 -0.13437,0.23605 c 0.47777,0.27257 2.43528,1.39378 2.97608,1.70355 l 0.0277,0.0236 c 3.42602,4.44156 6.86555,8.87206 10.31147,13.29791 l 0.0315,0.0669 c 0.0162,0.0585 0.16877,0.58435 0.24504,0.8498 l 0.17788,-0.0511 -0.16999,0.0708 1.24101,2.96645 0.33593,-0.13769 -0.0202,0.0157 -0.31223,0.12982 c 1.66632,3.93301 3.49291,7.86558 6.06674,11.35041 l 0.28852,-0.2085 -0.2648,0.23606 0.24503,0.27147 0.60469,2.07731 0.29642,-0.0867 -0.29642,0.0904 1.04737,3.39532 0.19365,-0.059 v 0.30688 h 0.1463 6.14181 v 140.30079 h -6.28805 v 0.27932 l -0.0987,-0.0314 c -0.74538,2.41096 -1.48805,4.8241 -2.23302,7.23517 h -0.009 c -0.006,0.0288 -0.0122,0.0578 -0.0202,0.0867 -0.22837,0.95237 -0.45938,1.90392 -0.68771,2.8563 -2.9e-4,0.001 2.8e-4,0.002 0,0.004 -0.002,0.006 -0.002,0.0141 -0.004,0.0201 l -0.009,0.0354 c -0.12849,0.57689 -0.25895,1.15433 -0.38731,1.7311 l -0.36755,0.89702 -0.004,0.008 c -1.57046,2.40347 -2.94287,4.92226 -4.19334,7.49482 -0.002,0.004 -0.006,0.004 -0.009,0.008 l -0.2964,0.42883 -0.30433,0.30687 h -0.004 l -0.0122,0.0161 -0.004,0.004 c -2.19614,2.13808 -4.32808,4.34081 -6.41059,6.586008 l -0.004,-0.0041 c -0.006,0.0082 -0.0101,0.01613 -0.0162,0.02358 -1.59042,2.03978 -3.18302,4.079652 -4.7704,6.121772 l -0.33199,0.291126 c -2.27149,1.260913 -4.55665,2.493177 -6.85323,3.710049 -2.69498,1.456528 -5.41631,2.875415 -8.09425,4.386731 l -0.0122,-0.01613 -0.11857,0.09043 h -0.004 l -0.21343,0.161352 -0.0237,0.01613 -0.54937,0.35016 -0.0202,0.01204 c -53.76742,29.133416 -118.43259,39.307618 -177.89335,23.184767 h -0.004 c -25.68725,-6.6169 -50.18659,-17.406524 -72.92328,-30.974672 l -0.0435,-0.03542 c -3.44678,-4.529408 -6.91742,-9.039193 -10.39841,-13.541813 -0.76755,-2.67036 -1.5366,-5.34381 -2.30416,-8.01417 -5.4e-4,-0.002 5.7e-4,-0.006 0,-0.008 h -0.004 c -0.0771,-0.28147 -0.25667,-0.9446 -0.27272,-1.00324 l -0.33988,0.0904 0.32802,-0.12972 c -1.18457,-2.92871 -2.50415,-5.85007 -4.1815,-8.58072 0.5308,0.22756 1.07195,0.51288 1.5493,0.68064 l 0.23714,-0.66491 c -1.73542,-0.60994 -3.88289,-1.46358 -4.5056,-3.21822 -6.2e-4,-0.002 -0.004,-0.002 -0.004,-0.004 l -0.18576,-0.63341 -0.23712,0.0669 v -0.32259 h -6.28787 v -140.30138 h 6.28805 v -0.28328 l 0.11069,0.0354 c 0.73707,-2.38087 1.47621,-4.75986 2.21327,-7.14075 h 0.004 c 0.006,-0.0236 0.0101,-0.0474 0.0162,-0.0709 0.14204,-0.59319 0.28858,-1.18501 0.43079,-1.7783 5.8e-4,-0.002 -5.9e-4,-0.006 0,-0.008 l 0.004,-0.012 0.009,-0.0393 c 0.17566,-0.79053 0.3539,-1.58177 0.52961,-2.37238 l 0.31618,-0.76326 c 1.75729,-2.58841 3.25794,-5.33398 4.60834,-8.14002 h 0.004 l 0.009,-0.0236 0.004,-0.004 0.0908,-0.18493 0.23712,-0.32654 c 1.85162,-1.80209 3.65478,-3.65442 5.41856,-5.53949 h 0.004 c 0.004,-0.005 0.009,-0.0109 0.0122,-0.0157 1.94205,-2.49382 3.88157,-4.98858 5.81773,-7.48696 l 0.26875,-0.23211 c 2.2345,-1.25087 4.48063,-2.47985 6.73468,-3.69824 l 0.009,-0.004 c 0.0101,-0.005 0.0213,-0.0102 0.0315,-0.0157 2.01548,-1.1107 4.03909,-2.21876 6.03116,-3.38742 l 0.009,0.0118 0.28061,-0.21639 0.0202,-0.0118 0.24899,-0.16131 c 0.002,-8.5e-4 0.002,-0.003 0.004,-0.004 l 0.0162,-0.008 c 34.68139,-19.12443 74.00282,-30.24356 113.58355,-31.54137 z"
       id="path9203" /><path
       d="m 694.40044,-91.080098 q -2.56335,-3.326028 -5.19969,-6.730034"
       id="path1353"
       style="fill:none;stroke:#000000;stroke-width:0.69981;stroke-linecap:butt;stroke-linejoin:miter" /><path
       d="m 704.62588,-84.804931 c -1.33167,-0.853751 -2.97026,-1.871453 -5.00675,-3.111091 -1.52262,-0.92573 -3.26218,-1.980422 -5.21769,-3.163076"
       id="path1355"
       style="fill:none;stroke:#000000;stroke-width:0.69981;stroke-linecap:butt;stroke-linejoin:miter" /><path
       d="m 981.06147,-120.90618 0.65584,-2.13138"
       id="path1357"
       style="fill:none;stroke:#000000;stroke-width:0.69981;stroke-linecap:butt;stroke-linejoin:miter" /><path
       d="m 980.98849,-120.78942 c -1.39365,1.41359 -2.93326,3.24865 -4.63184,5.8271 -1.20169,1.82517 -2.48337,4.02842 -3.84003,6.74253"
       id="path1359"
       style="fill:none;stroke:#000000;stroke-width:0.69981;stroke-linecap:butt;stroke-linejoin:miter" /><path
       d="m 715.6861,-269.39301 c -0.68383,0.43018 -1.41065,0.85945 -2.20645,1.30112"
       id="path1361"
       style="fill:none;stroke:#000000;stroke-width:0.69981;stroke-linecap:butt;stroke-linejoin:miter" /><path
       d="m 717.06375,-270.30424 c 1.58161,-1.10038 2.94326,-2.24504 4.19395,-3.54686"
       id="path1363"
       style="fill:none;stroke:#000000;stroke-width:0.69981;stroke-linecap:butt;stroke-linejoin:miter" /><path
       d="m 688.2,-293.49497 q 0.89078,-1.18315 1.75356,-2.33611"
       id="path1365"
       style="fill:none;stroke:#000000;stroke-width:0.69981;stroke-linecap:butt;stroke-linejoin:miter" /><path
       d="m 685.49168,-290.06157 q 1.36666,-1.73229 2.72831,-3.45999"
       id="path1369"
       style="fill:none;stroke:#000000;stroke-width:0.69981;stroke-linecap:butt;stroke-linejoin:miter" /><path
       d="m 683.16726,-287.73335 q 1.1967,-1.18795 2.42839,-2.45938"
       id="path1371"
       style="fill:none;stroke:#000000;stroke-width:0.69981;stroke-linecap:butt;stroke-linejoin:miter" /><path
       d="m 674.72338,-274.58049 c 1.25869,-1.43328 2.69233,-3.31143 4.27093,-5.84599 1.12572,-1.80708 2.32542,-3.95075 3.5831,-6.4979"
       id="path1375"
       style="fill:none;stroke:#000000;stroke-width:0.69981;stroke-linecap:butt;stroke-linejoin:miter" /><path
       d="m 674.55243,-274.28928 -0.85779,2.90536"
       id="path1379"
       style="fill:none;stroke:#000000;stroke-width:0.69981;stroke-linecap:butt;stroke-linejoin:miter" /><path
       d="m 715.2892,-80.988046 q -5.36565,-1.784479 -10.65433,-3.812886"
       id="path1381"
       style="fill:none;stroke:#000000;stroke-width:0.69981;stroke-linecap:butt;stroke-linejoin:miter" /><path
       d="m 723.60811,-77.939936 c -2.61534,-0.911734 -5.42664,-1.935435 -8.31891,-3.04811"
       id="path1383"
       style="fill:none;stroke:#000000;stroke-width:0.69981;stroke-linecap:butt;stroke-linejoin:miter" /><path
       d="m 952.45365,-88.099968 c -7.02823,4.101801 -14.47636,8.081639 -22.34339,11.792555 -7.86632,3.710916 -16.15184,7.15291 -24.82416,10.189023 -8.67113,3.037113 -17.72905,5.669344 -27.1094,7.77073 -9.37924,2.101386 -19.08091,3.672927 -29.00911,4.598657 -11.01984,1.035697 -22.30957,1.273627 -33.59397,0.645811 -7.31006,-0.403882 -14.61493,-1.169658 -21.80233,-2.277335 -7.18689,-1.105677 -14.25622,-2.552254 -21.0806,-4.275751 -8.86848,-2.236346 -17.31426,-4.936558 -25.14599,-7.874699 -8.74241,-3.278043 -16.7198,-6.838003 -23.93659,-10.408959"
       id="path1385"
       style="fill:none;stroke:#000000;stroke-width:0.69981;stroke-linecap:butt;stroke-linejoin:miter" /><path
       d="m 960.52963,-94.061227 c -3.43414,2.32832 -5.92751,4.198774 -7.92501,5.856289"
       id="path1387"
       style="fill:none;stroke:#000000;stroke-width:0.69981;stroke-linecap:butt;stroke-linejoin:miter" /><path
       d="m 961.00251,-94.315153 -0.54486,0.302912"
       id="path1389"
       style="fill:none;stroke:#000000;stroke-width:0.69981;stroke-linecap:butt;stroke-linejoin:miter" /><path
       d="m 965.53237,-100.01299 c -1.36965,1.788579 -2.70732,3.544466 -4.00099,5.250968"
       id="path1391"
       style="fill:none;stroke:#000000;stroke-width:0.69981;stroke-linecap:butt;stroke-linejoin:miter" /><path
       d="m 946.99403,-104.97164 c 0.003,-0.004 0.20694,-0.25622 0.82879,-0.94912"
       id="path1393"
       style="fill:none;stroke:#000000;stroke-width:0.69981;stroke-linecap:butt;stroke-linejoin:miter" /><path
       d="m 970.68108,-106.34614 -5.16171,6.350647"
       id="path1395"
       style="fill:none;stroke:#000000;stroke-width:0.69981;stroke-linecap:butt;stroke-linejoin:miter" /><path
       d="m 972.1937,-107.78802 q -0.77881,0.73989 -1.57261,1.51626"
       id="path1397"
       style="fill:none;stroke:#000000;stroke-width:0.69981;stroke-linecap:butt;stroke-linejoin:miter" /><path
       d="m 953.01451,-119.84519 v -5e-4"
       id="path1399"
       style="fill:none;stroke:#000000;stroke-width:0.69981;stroke-linecap:butt;stroke-linejoin:miter" /><path
       d="m 972.33266,-289.64899 c 0.70683,1.33181 1.39765,2.53686 2.07448,3.63754"
       id="path1403"
       style="fill:none;stroke:#000000;stroke-width:0.69981;stroke-linecap:butt;stroke-linejoin:miter" /><path
       d="m 970.73706,-291.12246 q 0.74982,0.6826 1.48863,1.33681"
       id="path1405"
       style="fill:none;stroke:#000000;stroke-width:0.69981;stroke-linecap:butt;stroke-linejoin:miter" /><path
       d="m 961.19546,-302.92921 q 4.7788,5.90817 9.5656,11.83564"
       id="path1407"
       style="fill:none;stroke:#000000;stroke-width:0.69981;stroke-linecap:butt;stroke-linejoin:miter" /><path
       d="m 955.93378,-305.80037 c 1.6016,0.85075 3.34216,1.78748 5.15971,2.78619"
       id="path1409"
       style="fill:none;stroke:#000000;stroke-width:0.69981;stroke-linecap:butt;stroke-linejoin:miter" /><path
       d="m 950.77008,-308.79849 c 1.28967,0.76877 2.95426,1.73149 5.1687,3.00012"
       id="path1411"
       style="fill:none;stroke:#000000;stroke-width:0.69981;stroke-linecap:butt;stroke-linejoin:miter" /><path
       d="m 947.36293,-310.24607 q 1.68458,0.69979 3.35916,1.42258"
       id="path1413"
       style="fill:none;stroke:#000000;stroke-width:0.69981;stroke-linecap:butt;stroke-linejoin:miter" /><path
       d="m 703.41318,-309.16339 c 7.52411,-4.35473 15.49411,-8.31957 23.38613,-11.68958 7.89182,-3.37802 15.70606,-6.1622 22.88905,-8.38955 3.30857,-1.0267 6.48697,-1.93844 9.52641,-2.7552 3.04054,-0.81776 5.94211,-1.54155 8.72451,-2.19336 2.7834,-0.65181 5.44773,-1.23164 8.04138,-1.76148 2.59465,-0.52885 5.11862,-1.00771 7.64898,-1.45558 2.35401,-0.41987 4.67503,-0.79776 7.09042,-1.16066 2.41569,-0.36189 4.92576,-0.70879 7.66298,-1.03969 2.73751,-0.32991 5.70206,-0.64482 9.03173,-0.91974 3.32976,-0.27292 7.02464,-0.50585 11.22753,-0.64781 2.01435,-0.068 4.12908,-0.10796 6.24531,-0.11596 2.11734,-0.009 4.23618,0.013 6.28839,0.063 2.05332,0.049 4.03999,0.12596 5.92264,0.22293 1.8848,0.099 3.66236,0.21094 5.33244,0.33691 3.83114,0.29391 7.10311,0.62281 10.06167,0.96771 2.95636,0.3459 5.5992,0.7068 8.11386,1.07969 2.51237,0.37389 4.89657,0.75978 7.27698,1.16966 2.3782,0.40988 4.7528,0.84475 7.18769,1.33061 3.21909,0.63681 6.56805,1.3476 10.18125,2.19036 3.60929,0.84275 7.48272,1.81647 11.64647,2.97913 4.92797,1.37759 10.26972,3.02911 15.78854,4.98654 5.51681,1.95343 11.21078,4.21377 16.78888,6.71604 6.22644,2.78518 12.31391,5.88028 17.90551,9.01437"
       id="path1415"
       style="fill:none;stroke:#000000;stroke-width:0.69981;stroke-linecap:butt;stroke-linejoin:miter" /><path
       d="m 693.64663,-301.46164 c 2.14446,-1.48356 3.85203,-2.7432 5.28368,-3.86887 1.43064,-1.12467 2.58435,-2.11538 3.5851,-3.04311 0.20994,-0.19494 0.41289,-0.38689 0.60984,-0.57583"
       id="path1417"
       style="fill:none;stroke:#000000;stroke-width:0.69981;stroke-linecap:butt;stroke-linejoin:miter" /><path
       d="m 689.89257,-295.73411 q 1.54262,-2.45648 3.04324,-4.98275"
       id="path1419"
       style="fill:none;stroke:#000000;stroke-width:0.69981;stroke-linecap:butt;stroke-linejoin:miter" /><path
       d="m 673.71764,-123.5954 q 0.80879,2.90815 1.60159,5.8077"
       id="path1425"
       style="fill:none;stroke:#000000;stroke-width:0.69981;stroke-linecap:butt;stroke-linejoin:miter" /><path
       d="m 981.86527,-123.80324 -0.14196,0.74059"
       id="path1427"
       style="fill:none;stroke:#000000;stroke-width:0.69981;stroke-linecap:butt;stroke-linejoin:miter" /><path
       d="m 676.84185,-116.0779 q -0.76181,-0.90293 -1.51462,-1.6945"
       id="path1429"
       style="fill:none;stroke:#000000;stroke-width:0.69981;stroke-linecap:butt;stroke-linejoin:miter" /><path
       d="m 682.75237,-107.93497 c -2.0135,-3.4517 -3.95701,-6.02104 -5.90952,-8.14163"
       id="path1431"
       style="fill:none;stroke:#000000;stroke-width:0.69981;stroke-linecap:butt;stroke-linejoin:miter" /><path
       d="m 684.18301,-104.93995 q -0.72582,-1.57474 -1.43164,-2.99532"
       id="path1433"
       style="fill:none;stroke:#000000;stroke-width:0.69981;stroke-linecap:butt;stroke-linejoin:miter" /><path
       d="m 684.206,-104.85437 -0.023,-0.0859"
       id="path1435"
       style="fill:none;stroke:#000000;stroke-width:0.69981;stroke-linecap:butt;stroke-linejoin:miter" /><path
       d="m 686.56541,-101.62172 q -1.15471,-1.59053 -2.35841,-3.23155"
       id="path1437"
       style="fill:none;stroke:#000000;stroke-width:0.69981;stroke-linecap:butt;stroke-linejoin:miter" /><path
       d="m 689.20075,-97.810132 q -1.27668,-1.863755 -2.63534,-3.811588"
       id="path1439"
       style="fill:none;stroke:#000000;stroke-width:0.69981;stroke-linecap:butt;stroke-linejoin:miter" /><path
       d="m 974.42614,-285.97926 c 1.31567,2.53296 2.54636,4.62175 3.69207,6.37134"
       id="path1441"
       style="fill:none;stroke:#000000;stroke-width:0.69981;stroke-linecap:butt;stroke-linejoin:miter" /><path
       d="m 978.11621,-279.61172 q 0.91177,1.31911 1.76756,2.41469"
       id="path1443"
       style="fill:none;stroke:#000000;stroke-width:0.69981;stroke-linecap:butt;stroke-linejoin:miter" /><path
       d="m 979.93875,-277.07976 0.32992,1.53005"
       id="path1445"
       style="fill:none;stroke:#000000;stroke-width:0.69981;stroke-linecap:butt;stroke-linejoin:miter" /><path
       d="m 981.80529,-270.88997 q -0.77081,-2.34022 -1.54062,-4.67653"
       id="path1447"
       style="fill:none;stroke:#000000;stroke-width:0.69981;stroke-linecap:butt;stroke-linejoin:miter" /><path
       d="m 694.40144,-91.079098 -10e-4,-0.001"
       id="path1456"
       style="fill:none;stroke:#000000;stroke-width:0.69981;stroke-linecap:butt;stroke-linejoin:miter" /><path
       d="m 714.15348,-126.97031 -0.30392,-1.16196"
       id="path1460"
       style="fill:none;stroke:#000000;stroke-width:0.69981;stroke-linecap:butt;stroke-linejoin:miter" /><path
       d="m 689.20075,-97.810132 v 0"
       id="path1462"
       style="fill:none;stroke:#000000;stroke-width:0.69981;stroke-linecap:butt;stroke-linejoin:miter" /><path
       d="m 704.63487,-84.800932 -0.009,-0.004"
       id="path1466"
       style="fill:none;stroke:#000000;stroke-width:0.69981;stroke-linecap:butt;stroke-linejoin:miter" /><path
       d="m 717.08075,-116.85087 q -1.54661,-5.03583 -2.92727,-10.11944"
       id="path1470"
       style="fill:none;stroke:#000000;stroke-width:0.69981;stroke-linecap:butt;stroke-linejoin:miter" /><path
       d="m 939.18599,-128.13227 c -1.00575,0.42097 -1.6226,0.93512 -2.23244,1.45117"
       id="path1472"
       style="fill:none;stroke:#000000;stroke-width:0.69981;stroke-linecap:butt;stroke-linejoin:miter" /><path
       d="m 936.95355,-126.6811 c -0.37191,0.58283 -0.72982,1.14037 -0.97076,1.53295"
       id="path1474"
       style="fill:none;stroke:#000000;stroke-width:0.69981;stroke-linecap:butt;stroke-linejoin:miter" /><path
       d="m 980.98849,-120.78942 q 0.055,-0.055 0.073,-0.11676"
       id="path1476"
       style="fill:none;stroke:#000000;stroke-width:0.69981;stroke-linecap:butt;stroke-linejoin:miter" /><path
       d="m 981.06147,-120.90618 c 0.20895,-0.67741 -2.72331,-1.93844 -7.02323,-2.99303 -9.11871,-2.23625 -24.39188,-3.54396 -31.52209,-2.98303 -3.49812,0.27512 -5.03574,0.99981 -6.53336,1.73409"
       id="path1478"
       style="fill:none;stroke:#000000;stroke-width:0.69981;stroke-linecap:butt;stroke-linejoin:miter" /><path
       d="m 981.71731,-123.03756 0.006,-0.0251"
       id="path1480"
       style="fill:none;stroke:#000000;stroke-width:0.69981;stroke-linecap:butt;stroke-linejoin:miter" /><path
       d="m 981.72331,-123.06265 c 0.13196,-0.6868 -2.7863,-1.91095 -7.12322,-2.95614 -3.50911,-0.84585 -7.949,-1.57444 -12.48486,-2.11348"
       id="path1482"
       style="fill:none;stroke:#000000;stroke-width:0.69981;stroke-linecap:butt;stroke-linejoin:miter" /><path
       d="m 935.98279,-125.14815 c -0.16396,0.27492 -0.23794,0.41888 -0.28493,0.52265 -0.046,0.10367 -0.065,0.16715 -0.073,0.21464 -0.007,0.0461 -0.006,0.0804 0.003,0.10307 0.026,0.0702 0.089,0.0861 0.15896,0.0923 0.094,0.007 0.20395,-0.01 0.31792,-0.0329 0.25993,-0.0546 0.54386,-0.14616 0.83779,-0.25312"
       id="path1484"
       style="fill:none;stroke:#000000;stroke-width:0.69981;stroke-linecap:butt;stroke-linejoin:miter" /><path
       d="m 936.94255,-124.50153 q 0.63184,-0.23104 1.33566,-0.58073"
       id="path1486"
       style="fill:none;stroke:#000000;stroke-width:0.69981;stroke-linecap:butt;stroke-linejoin:miter" /><path
       d="m 938.27821,-125.08226 q -1.04773,5.87638 -2.28642,11.71577"
       id="path1488"
       style="fill:none;stroke:#000000;stroke-width:0.69981;stroke-linecap:butt;stroke-linejoin:miter" /><path
       d="m 972.1937,-107.78802 q 0.20595,-0.19634 0.32292,-0.43177"
       id="path1490"
       style="fill:none;stroke:#000000;stroke-width:0.69981;stroke-linecap:butt;stroke-linejoin:miter" /><path
       d="m 713.63261,-268.09139 q 1.02575,-0.65461 2.05549,-1.30292"
       id="path1494"
       style="fill:none;stroke:#000000;stroke-width:0.69981;stroke-linecap:butt;stroke-linejoin:miter" /><path
       d="m 715.6881,-269.39431 0.71082,-0.44697"
       id="path1496"
       style="fill:none;stroke:#000000;stroke-width:0.69981;stroke-linecap:butt;stroke-linejoin:miter" /><path
       d="m 716.39892,-269.84128 q 0.33092,-0.23053 0.66483,-0.46296"
       id="path1498"
       style="fill:none;stroke:#000000;stroke-width:0.69981;stroke-linecap:butt;stroke-linejoin:miter" /><path
       d="m 717.06375,-270.30424 c 0.69583,-0.48486 1.39765,-0.96672 2.14047,-1.49506 0.29692,-0.21284 0.59585,-0.42708 0.93476,-0.6978 0.11397,-0.0911 0.23394,-0.18974 0.37091,-0.31341 0.067,-0.0606 0.14196,-0.13126 0.22394,-0.21194 0.082,-0.082 0.17396,-0.17784 0.29093,-0.30741 0.11597,-0.12956 0.25493,-0.29281 0.46988,-0.56393 0.21495,-0.27122 0.50387,-0.65051 0.83779,-1.09228"
       id="path1500"
       style="fill:none;stroke:#000000;stroke-width:0.69981;stroke-linecap:butt;stroke-linejoin:miter" /><path
       d="m 721.2577,-273.8511 q 0.54186,-0.56694 1.07473,-1.13497"
       id="path1502"
       style="fill:none;stroke:#000000;stroke-width:0.69981;stroke-linecap:butt;stroke-linejoin:miter" /><path
       d="m 713.47965,-268.09139 q 0,0 0.15296,0"
       id="path1504"
       style="fill:none;stroke:#000000;stroke-width:0.69981;stroke-linecap:butt;stroke-linejoin:miter" /><path
       d="m 937.9513,-128.13227 c -0.11298,0.15605 -0.25494,0.35829 -0.4259,0.60672 -0.16895,0.24743 -0.36591,0.53834 -0.57185,0.84445"
       id="path1506"
       style="fill:none;stroke:#000000;stroke-width:0.69981;stroke-linecap:butt;stroke-linejoin:miter" /><path
       d="m 688.24099,-293.54785 -0.041,0.0529"
       id="path1508"
       style="fill:none;stroke:#000000;stroke-width:0.69981;stroke-linecap:butt;stroke-linejoin:miter" /><path
       d="m 725.51763,-295.58236 q 0.92977,-0.73098 1.87153,-1.44727"
       id="path1516"
       style="fill:none;stroke:#000000;stroke-width:0.69981;stroke-linecap:butt;stroke-linejoin:miter" /><path
       d="m 724.4509,-292.6815 q 0.52687,-1.45268 1.06673,-2.90086"
       id="path1528"
       style="fill:none;stroke:#000000;stroke-width:0.69981;stroke-linecap:butt;stroke-linejoin:miter" /><path
       d="m 683.16726,-287.73335 q -0.3799,0.37979 -0.58985,0.80897"
       id="path1530"
       style="fill:none;stroke:#000000;stroke-width:0.69981;stroke-linecap:butt;stroke-linejoin:miter" /><path
       d="m 723.82805,-290.45735 q 0.30793,-1.11298 0.62285,-2.22415"
       id="path1536"
       style="fill:none;stroke:#000000;stroke-width:0.69981;stroke-linecap:butt;stroke-linejoin:miter" /><path
       d="m 674.72338,-274.58049 q -0.12897,0.14696 -0.17095,0.29121"
       id="path1538"
       style="fill:none;stroke:#000000;stroke-width:0.69981;stroke-linecap:butt;stroke-linejoin:miter" /><path
       d="m 674.55243,-274.28928 c -0.31293,1.058 2.7643,1.97133 6.93525,1.96483 8.67083,-0.0136 22.06946,-4.00263 32.58082,-6.78422 2.60135,-0.6883 5.02574,-1.30262 7.36016,-1.87955"
       id="path1540"
       style="fill:none;stroke:#000000;stroke-width:0.69981;stroke-linecap:butt;stroke-linejoin:miter" /><path
       d="m 721.42866,-280.98822 q 1.14571,-4.74831 2.39939,-9.46913"
       id="path1542"
       style="fill:none;stroke:#000000;stroke-width:0.69981;stroke-linecap:butt;stroke-linejoin:miter" /><path
       d="m 722.33243,-274.98607 c 0.16796,-0.23623 0.32692,-0.46117 0.47888,-0.67471 0.14996,-0.21293 0.29093,-0.41247 0.4059,-0.57993 0.23194,-0.3376 0.35491,-0.53384 0.41989,-0.6536 0.067,-0.12267 0.085,-0.18175 0.087,-0.21974 10e-4,-0.0361 -0.01,-0.0566 -0.032,-0.0615 -0.044,-0.0126 -0.11597,0.012 -0.19395,0.046 -0.081,0.0358 -0.16696,0.0808 -0.26094,0.13476 -0.3739,0.21514 -0.7968,0.50006 -1.22669,0.79827 -0.86478,0.60323 -1.77055,1.28693 -2.71832,2.051"
       id="path1544"
       style="fill:none;stroke:#000000;stroke-width:0.69981;stroke-linecap:butt;stroke-linejoin:miter" /><path
       d="m 719.29219,-274.14552 q 1.03574,-3.4315 2.13647,-6.8427"
       id="path1546"
       style="fill:none;stroke:#000000;stroke-width:0.69981;stroke-linecap:butt;stroke-linejoin:miter" /><path
       d="m 673.38772,-268.09139 c 0.10097,-1.77878 0.20395,-2.94164 0.30692,-3.29253"
       id="path1548"
       style="fill:none;stroke:#000000;stroke-width:0.69981;stroke-linecap:butt;stroke-linejoin:miter" /><path
       d="m 687.8171,-268.09139 c -2.0175,0 -3.92902,0 -5.70257,0"
       id="path1550"
       style="fill:none;stroke:#000000;stroke-width:0.69981;stroke-linecap:butt;stroke-linejoin:miter" /><path
       d="m 715.2892,-80.988046 v 0"
       id="path1552"
       style="fill:none;stroke:#000000;stroke-width:0.69981;stroke-linecap:butt;stroke-linejoin:miter" /><path
       d="m 715.2892,-80.988046 c -0.011,-0.004 0.92777,-3.167075 0.75781,-5.365433 -0.30093,-3.89986 -4.08798,-4.768606 -0.4269,-13.825961 0.90578,-2.24104 2.26744,-4.98324 3.86004,-7.97927"
       id="path1554"
       style="fill:none;stroke:#000000;stroke-width:0.69981;stroke-linecap:butt;stroke-linejoin:miter" /><path
       d="m 719.48015,-108.15871 q -1.25269,-4.33153 -2.3994,-8.69216"
       id="path1556"
       style="fill:none;stroke:#000000;stroke-width:0.69981;stroke-linecap:butt;stroke-linejoin:miter" /><path
       d="m 723.60811,-77.939936 v 0"
       id="path1558"
       style="fill:none;stroke:#000000;stroke-width:0.69981;stroke-linecap:butt;stroke-linejoin:miter" /><path
       d="m 724.97877,-103.08829 q -2.8113,-2.46848 -5.49862,-5.07042"
       id="path1562"
       style="fill:none;stroke:#000000;stroke-width:0.69981;stroke-linecap:butt;stroke-linejoin:miter" /><path
       d="m 952.45365,-88.099968 q 0.083,-0.04899 0.15097,-0.10497"
       id="path1564"
       style="fill:none;stroke:#000000;stroke-width:0.69981;stroke-linecap:butt;stroke-linejoin:miter" /><path
       d="m 919.96181,-94.420122 c -7.1446,5.278458 -14.63422,9.871116 -22.45806,13.805967 -3.91212,1.967425 -7.90711,3.768899 -11.98499,5.404421 -2.03819,0.817761 -4.09887,1.593534 -6.18195,2.32732 -2.08607,0.735785 -4.18955,1.426583 -6.31031,2.073394 -4.23684,1.291623 -8.51497,2.3973 -12.81289,3.316032 -4.29672,0.918731 -8.61633,1.652517 -12.95874,2.201357 -4.34411,0.549839 -8.71202,0.914732 -13.1035,1.095679 -2.19474,0.09097 -4.39686,0.133961 -6.60638,0.130962 -2.21289,-0.003 -4.42707,-0.05398 -6.64254,-0.151955 -4.42796,-0.197943 -8.82135,-0.580831 -13.18016,-1.150664 -4.35551,-0.568834 -8.67162,-1.318615 -12.94855,-2.251343 -4.27852,-0.931727 -8.51816,-2.046402 -12.7188,-3.343023 -2.09938,-0.647811 -4.19025,-1.342608 -6.27263,-2.083391 -2.08558,-0.742783 -4.15616,-1.530553 -6.21164,-2.36431 -8.21374,-3.329027 -16.04107,-7.319861 -23.47061,-11.928515 -7.43213,-4.610653 -14.47916,-9.852122 -21.12129,-15.750099"
       id="path1568"
       style="fill:none;stroke:#000000;stroke-width:0.69981;stroke-linecap:butt;stroke-linejoin:miter" /><path
       d="m 928.44168,-100.67459 q -4.12966,3.276338 -8.47987,6.254468"
       id="path1572"
       style="fill:none;stroke:#000000;stroke-width:0.69981;stroke-linecap:butt;stroke-linejoin:miter" /><path
       d="m 961.00251,-94.315153 q 0.33391,-0.186945 0.52887,-0.446869"
       id="path1574"
       style="fill:none;stroke:#000000;stroke-width:0.69981;stroke-linecap:butt;stroke-linejoin:miter" /><path
       d="m 928.97755,-101.09697 -0.53587,0.42238"
       id="path1578"
       style="fill:none;stroke:#000000;stroke-width:0.69981;stroke-linecap:butt;stroke-linejoin:miter" /><path
       d="m 965.50538,-99.978398 0.027,-0.03459"
       id="path1580"
       style="fill:none;stroke:#000000;stroke-width:0.69981;stroke-linecap:butt;stroke-linejoin:miter" /><path
       d="m 965.53237,-100.01299 c 2.08148,-2.7195 -6.68332,-10.78225 -10.94725,-12.26142 -2.20345,-0.76427 -3.2042,0.22894 -4.07098,1.78258"
       id="path1582"
       style="fill:none;stroke:#000000;stroke-width:0.69981;stroke-linecap:butt;stroke-linejoin:miter" /><path
       d="m 950.51414,-110.49183 c -0.76081,1.36191 -1.41764,3.15448 -2.69132,4.57107"
       id="path1584"
       style="fill:none;stroke:#000000;stroke-width:0.69981;stroke-linecap:butt;stroke-linejoin:miter" /><path
       d="m 947.82282,-105.92076 c -1.15971,1.29072 -2.83129,2.26943 -5.55861,2.32622 -2.26043,0.0471 -5.24568,-0.53904 -8.59784,-1.44568"
       id="path1586"
       style="fill:none;stroke:#000000;stroke-width:0.69981;stroke-linecap:butt;stroke-linejoin:miter" /><path
       d="m 933.66637,-105.04022 q -2.30442,2.01921 -4.68882,3.94325"
       id="path1588"
       style="fill:none;stroke:#000000;stroke-width:0.69981;stroke-linecap:butt;stroke-linejoin:miter" /><path
       d="m 935.59589,-111.5958 q -0.93077,3.28784 -1.92952,6.55558"
       id="path1594"
       style="fill:none;stroke:#000000;stroke-width:0.69981;stroke-linecap:butt;stroke-linejoin:miter" /><path
       d="m 935.99179,-113.36649 q -0.19595,0.88584 -0.3959,1.77069"
       id="path1596"
       style="fill:none;stroke:#000000;stroke-width:0.69981;stroke-linecap:butt;stroke-linejoin:miter" /><path
       d="m 972.22569,-289.78565 q 0.066,0.0588 0.10697,0.13666"
       id="path1598"
       style="fill:none;stroke:#000000;stroke-width:0.69981;stroke-linecap:butt;stroke-linejoin:miter" /><path
       d="m 940.65362,-269.11159 0.15896,1.0202"
       id="path1602"
       style="fill:none;stroke:#000000;stroke-width:0.69981;stroke-linecap:butt;stroke-linejoin:miter" /><path
       d="m 944.17673,-268.09139 c -0.91777,0 -1.5756,0 -2.07548,0 -0.49987,0 -0.84079,0 -1.28867,0"
       id="path1604"
       style="fill:none;stroke:#000000;stroke-width:0.69981;stroke-linecap:butt;stroke-linejoin:miter" /><path
       d="m 974.40714,-286.01145 0.019,0.0322"
       id="path1606"
       style="fill:none;stroke:#000000;stroke-width:0.69981;stroke-linecap:butt;stroke-linejoin:miter" /><path
       d="m 940.81258,-268.09139 h 0.54286"
       id="path1610"
       style="fill:none;stroke:#000000;stroke-width:0.69981;stroke-linecap:butt;stroke-linejoin:miter" /><path
       d="m 940.36569,-270.81789 q 0.14596,0.85275 0.28793,1.7063"
       id="path1614"
       style="fill:none;stroke:#000000;stroke-width:0.69981;stroke-linecap:butt;stroke-linejoin:miter" /><path
       d="m 961.09349,-303.01418 q 0.061,0.034 0.10197,0.085"
       id="path1616"
       style="fill:none;stroke:#000000;stroke-width:0.69981;stroke-linecap:butt;stroke-linejoin:miter" /><path
       d="m 937.31646,-283.35933 q 1.64658,6.24108 3.04923,12.54144"
       id="path1620"
       style="fill:none;stroke:#000000;stroke-width:0.69981;stroke-linecap:butt;stroke-linejoin:miter" /><path
       d="m 955.92878,-305.80337 0.01,0.005"
       id="path1622"
       style="fill:none;stroke:#000000;stroke-width:0.69981;stroke-linecap:butt;stroke-linejoin:miter" /><path
       d="m 955.93878,-305.79837 c 1.15871,0.6648 -3.84204,7.24988 -6.12946,9.84182 -3.31817,3.75931 -0.92877,-0.87894 -7.54511,3.32743 -1.63659,1.0408 -3.82504,2.62304 -6.29242,4.47939"
       id="path1624"
       style="fill:none;stroke:#000000;stroke-width:0.69981;stroke-linecap:butt;stroke-linejoin:miter" /><path
       d="m 935.97179,-288.14973 q 0.69083,2.39001 1.34467,4.7904"
       id="path1626"
       style="fill:none;stroke:#000000;stroke-width:0.69981;stroke-linecap:butt;stroke-linejoin:miter" /><path
       d="m 950.72209,-308.82349 0.048,0.025"
       id="path1628"
       style="fill:none;stroke:#000000;stroke-width:0.69981;stroke-linecap:butt;stroke-linejoin:miter" /><path
       d="m 931.65688,-291.89463 q 2.19345,1.83096 4.31491,3.7449"
       id="path1632"
       style="fill:none;stroke:#000000;stroke-width:0.69981;stroke-linecap:butt;stroke-linejoin:miter" /><path
       d="m 929.28847,-293.98172 q 1.1947,1.0315 2.36841,2.08709"
       id="path1636"
       style="fill:none;stroke:#000000;stroke-width:0.69981;stroke-linecap:butt;stroke-linejoin:miter" /><path
       d="m 703.41318,-309.16339 q -0.16696,0.096 -0.28793,0.21394"
       id="path1638"
       style="fill:none;stroke:#000000;stroke-width:0.69981;stroke-linecap:butt;stroke-linejoin:miter" /><path
       d="m 703.12525,-308.94945 c -1.28068,1.23364 1.18171,4.04782 4.23294,4.7956 5.5536,1.3596 13.05572,-4.13379 24.25501,-3.32303 2.771,0.19994 5.76835,0.78677 8.88037,1.56854"
       id="path1640"
       style="fill:none;stroke:#000000;stroke-width:0.69981;stroke-linecap:butt;stroke-linejoin:miter" /><path
       d="m 740.49357,-305.90834 c 7.11441,-4.73761 14.51626,-8.83042 22.19213,-12.3064 7.67537,-3.47499 15.62718,-6.33715 23.85931,-8.5605 2.06058,-0.55584 4.13046,-1.06969 6.20964,-1.54155 2.07608,-0.47086 4.15466,-0.89774 6.23573,-1.28163 4.16366,-0.76677 8.34171,-1.3646 12.53426,-1.79147 8.38279,-0.85376 16.82439,-1.0337 25.31827,-0.51485 4.2463,0.25992 8.50404,0.69579 12.70688,1.30162 4.20045,0.60582 8.353,1.37859 12.45757,2.32032 8.21644,1.88345 16.25722,4.42171 24.12125,7.64376 3.93331,1.61153 7.82533,3.39801 11.61678,5.32945 3.79015,1.93143 7.48362,4.00883 11.08022,6.23318 7.19539,4.4497 14.02138,9.47623 20.46286,15.09469"
       id="path1642"
       style="fill:none;stroke:#000000;stroke-width:0.69981;stroke-linecap:butt;stroke-linejoin:miter" /><path
       d="m 693.64663,-301.46164 q -0.46388,0.32391 -0.71082,0.74478"
       id="path1644"
       style="fill:none;stroke:#000000;stroke-width:0.69981;stroke-linecap:butt;stroke-linejoin:miter" /><path
       d="m 731.12062,-299.81112 q 4.57216,-3.22406 9.37295,-6.09722"
       id="path1648"
       style="fill:none;stroke:#000000;stroke-width:0.69981;stroke-linecap:butt;stroke-linejoin:miter" /><path
       d="m 727.38916,-297.02963 q 1.84424,-1.41889 3.73146,-2.78149"
       id="path1650"
       style="fill:none;stroke:#000000;stroke-width:0.69981;stroke-linecap:butt;stroke-linejoin:miter" /><path
       id="99"
       d="m 963.039,-268.09139 h 0.043"
       style="fill:none;stroke:#000000;stroke-width:0.69981;stroke-linecap:butt;stroke-linejoin:miter" /><path
       id="100"
       d="m 963.039,-268.09139 v 139.95912"
       style="fill:none;stroke:#000000;stroke-width:0.69981;stroke-linecap:butt;stroke-linejoin:miter" /><path
       id="101"
       d="m 963.039,-128.13227 h 0.043"
       style="fill:none;stroke:#000000;stroke-width:0.69981;stroke-linecap:butt;stroke-linejoin:miter" /><path
       id="102"
       d="M 963.08199,-128.13227 V -268.09139"
       style="fill:none;stroke:#000000;stroke-width:0.69981;stroke-linecap:butt;stroke-linejoin:miter" /><path
       id="103"
       d="M 940.81258,-268.09139 H 963.039"
       style="fill:none;stroke:#000000;stroke-width:0.69981;stroke-linecap:butt;stroke-linejoin:miter" /><path
       id="104"
       d="m 963.08199,-268.09139 h 4.62683"
       style="fill:none;stroke:#000000;stroke-width:0.69981;stroke-linecap:butt;stroke-linejoin:miter" /><path
       d="m 967.70882,-268.09139 h 0.85679 0.7938 0.73082 0.66683 0.60385 0.53986 0.47688 0.4129 0.34891 0.28593 0.22294 0.15896 0.095 0.032"
       id="path1658"
       style="fill:none;stroke:#000000;stroke-width:0.69981;stroke-linecap:butt;stroke-linejoin:miter" /><path
       id="106"
       d="m 973.93426,-268.09139 h 3.95701"
       style="fill:none;stroke:#000000;stroke-width:0.69981;stroke-linecap:butt;stroke-linejoin:miter" /><path
       id="107"
       d="m 977.89127,-268.09139 h 1.66758"
       style="fill:none;stroke:#000000;stroke-width:0.69981;stroke-linecap:butt;stroke-linejoin:miter" /><path
       id="108"
       d="m 979.55885,-268.09139 h 6.56435"
       style="fill:none;stroke:#000000;stroke-width:0.69981;stroke-linecap:butt;stroke-linejoin:miter" /><path
       d="m 966.07324,-268.09139 c -0.94177,0 -1.93052,0 -2.99125,0"
       id="path1663"
       style="fill:none;stroke:#000000;stroke-width:0.69981;stroke-linecap:butt;stroke-linejoin:miter" /><path
       d="m 957.07649,-268.09139 c -3.13121,0 -5.67357,0 -7.77104,0 -2.09748,0 -3.74906,0 -5.12872,0"
       id="path1665"
       style="fill:none;stroke:#000000;stroke-width:0.69981;stroke-linecap:butt;stroke-linejoin:miter" /><path
       d="m 937.9513,-128.13227 q 1.14471,0 2.28342,0"
       id="path1667"
       style="fill:none;stroke:#000000;stroke-width:0.69981;stroke-linecap:butt;stroke-linejoin:miter" /><path
       id="112"
       d="m 979.55885,-128.13227 h 6.56435"
       style="fill:none;stroke:#000000;stroke-width:0.69981;stroke-linecap:butt;stroke-linejoin:miter" /><path
       id="113"
       d="m 977.89127,-128.13227 h 1.66758"
       style="fill:none;stroke:#000000;stroke-width:0.69981;stroke-linecap:butt;stroke-linejoin:miter" /><path
       id="114"
       d="m 973.93426,-128.13227 h 3.95701"
       style="fill:none;stroke:#000000;stroke-width:0.69981;stroke-linecap:butt;stroke-linejoin:miter" /><path
       d="m 967.70882,-128.13227 h 0.85679 0.7938 0.73082 0.66683 0.60385 0.53986 0.47688 0.4129 0.34891 0.28593 0.22294 0.15896 0.095 0.032"
       id="path1672"
       style="fill:none;stroke:#000000;stroke-width:0.69981;stroke-linecap:butt;stroke-linejoin:miter" /><path
       id="116"
       d="m 963.08199,-128.13227 h 4.62683"
       style="fill:none;stroke:#000000;stroke-width:0.69981;stroke-linecap:butt;stroke-linejoin:miter" /><path
       id="117"
       d="M 940.23472,-128.13227 H 963.039"
       style="fill:none;stroke:#000000;stroke-width:0.69981;stroke-linecap:butt;stroke-linejoin:miter" /><path
       id="118"
       d="m 692.44393,-128.13227 h 0.043"
       style="fill:none;stroke:#000000;stroke-width:0.69981;stroke-linecap:butt;stroke-linejoin:miter" /><path
       id="119"
       d="M 692.48692,-128.13227 V -268.09139"
       style="fill:none;stroke:#000000;stroke-width:0.69981;stroke-linecap:butt;stroke-linejoin:miter" /><path
       id="120"
       d="m 692.44393,-268.09139 h 0.043"
       style="fill:none;stroke:#000000;stroke-width:0.69981;stroke-linecap:butt;stroke-linejoin:miter" /><path
       id="122"
       d="m 692.48692,-268.09139 h 21.14569"
       style="fill:none;stroke:#000000;stroke-width:0.69981;stroke-linecap:butt;stroke-linejoin:miter" /><path
       id="123"
       d="m 669.40272,-268.09139 h 6.56435"
       style="fill:none;stroke:#000000;stroke-width:0.69981;stroke-linecap:butt;stroke-linejoin:miter" /><path
       id="124"
       d="m 675.96707,-268.09139 h 1.66758"
       style="fill:none;stroke:#000000;stroke-width:0.69981;stroke-linecap:butt;stroke-linejoin:miter" /><path
       id="125"
       d="m 677.63465,-268.09139 h 3.95701"
       style="fill:none;stroke:#000000;stroke-width:0.69981;stroke-linecap:butt;stroke-linejoin:miter" /><path
       d="m 681.59166,-268.09139 h 0.032 0.095 0.15896 0.22294 0.28593 0.34891 0.4129 0.47688 0.53986 0.60385 0.66683 0.73082 0.7938 0.85679"
       id="path1684"
       style="fill:none;stroke:#000000;stroke-width:0.69981;stroke-linecap:butt;stroke-linejoin:miter" /><path
       id="127"
       d="m 687.8171,-268.09139 h 4.62683"
       style="fill:none;stroke:#000000;stroke-width:0.69981;stroke-linecap:butt;stroke-linejoin:miter" /><path
       id="128"
       d="m 692.48692,-128.13227 h 21.36264"
       style="fill:none;stroke:#000000;stroke-width:0.69981;stroke-linecap:butt;stroke-linejoin:miter" /><path
       id="129"
       d="m 687.8171,-128.13227 h 4.62683"
       style="fill:none;stroke:#000000;stroke-width:0.69981;stroke-linecap:butt;stroke-linejoin:miter" /><path
       d="m 681.59166,-128.13227 h 0.032 0.095 0.15896 0.22294 0.28593 0.34891 0.4129 0.47688 0.53986 0.60385 0.66683 0.73082 0.7938 0.85679"
       id="path1689"
       style="fill:none;stroke:#000000;stroke-width:0.69981;stroke-linecap:butt;stroke-linejoin:miter" /><path
       id="131"
       d="m 677.63465,-128.13227 h 3.95701"
       style="fill:none;stroke:#000000;stroke-width:0.69981;stroke-linecap:butt;stroke-linejoin:miter" /><path
       id="132"
       d="m 675.96707,-128.13227 h 1.66758"
       style="fill:none;stroke:#000000;stroke-width:0.69981;stroke-linecap:butt;stroke-linejoin:miter" /><path
       id="133"
       d="m 669.40272,-128.13227 h 6.56435"
       style="fill:none;stroke:#000000;stroke-width:0.69981;stroke-linecap:butt;stroke-linejoin:miter" /><path
       d="m 686.62339,-128.13227 q -2.3654,0 -4.50886,0"
       id="path1694"
       style="fill:none;stroke:#000000;stroke-width:0.69981;stroke-linecap:butt;stroke-linejoin:miter" /><path
       d="m 689.86358,-128.13227 q -0.99275,0 -2.04648,0"
       id="path1696"
       style="fill:none;stroke:#000000;stroke-width:0.69981;stroke-linecap:butt;stroke-linejoin:miter" /><path
       d="m 673.37372,-128.13227 c 0.11297,2.48867 0.22794,4.12749 0.34392,4.53697"
       id="path1698"
       style="fill:none;stroke:#000000;stroke-width:0.69981;stroke-linecap:butt;stroke-linejoin:miter" /><path
       d="m 675.32723,-117.7724 q -0.006,-0.006 -0.008,-0.0153"
       id="path1700"
       style="fill:none;stroke:#000000;stroke-width:0.69981;stroke-linecap:butt;stroke-linejoin:miter" /><path
       d="m 981.86527,-123.80324 c 0.033,-0.17335 0.066,-0.48036 0.099,-0.92103 0.057,-0.76148 0.11297,-1.92234 0.16795,-3.408"
       id="path1704"
       style="fill:none;stroke:#000000;stroke-width:0.69981;stroke-linecap:butt;stroke-linejoin:miter" /><path
       d="m 676.84285,-116.0766 -10e-4,-0.001"
       id="path1706"
       style="fill:none;stroke:#000000;stroke-width:0.69981;stroke-linecap:butt;stroke-linejoin:miter" /><path
       d="m 682.75237,-107.93477 -0.001,-5e-4"
       id="path1710"
       style="fill:none;stroke:#000000;stroke-width:0.69981;stroke-linecap:butt;stroke-linejoin:miter" /><path
       d="m 684.18301,-104.93965 v -6e-4"
       id="path1714"
       style="fill:none;stroke:#000000;stroke-width:0.69981;stroke-linecap:butt;stroke-linejoin:miter" /><path
       d="m 684.207,-104.85327 -10e-4,-0.001"
       id="path1718"
       style="fill:none;stroke:#000000;stroke-width:0.69981;stroke-linecap:butt;stroke-linejoin:miter" /><path
       d="m 686.56541,-101.62172 v 0"
       id="path1722"
       style="fill:none;stroke:#000000;stroke-width:0.69981;stroke-linecap:butt;stroke-linejoin:miter" /><path
       d="m 709.93554,-128.13227 q 1.54561,0 3.02124,0"
       id="path1726"
       style="fill:none;stroke:#000000;stroke-width:0.69981;stroke-linecap:butt;stroke-linejoin:miter" /><path
       d="m 978.11321,-279.61552 0.005,0.008"
       id="path1728"
       style="fill:none;stroke:#000000;stroke-width:0.69981;stroke-linecap:butt;stroke-linejoin:miter" /><path
       d="m 979.88377,-277.19703 q 0.041,0.0518 0.055,0.11727"
       id="path1732"
       style="fill:none;stroke:#000000;stroke-width:0.69981;stroke-linecap:butt;stroke-linejoin:miter" /><path
       d="m 981.80529,-270.88997 c 0.099,0.30071 0.19695,1.28283 0.29392,2.79858"
       id="path1738"
       style="fill:none;stroke:#000000;stroke-width:0.69981;stroke-linecap:butt;stroke-linejoin:miter" /><path
       id="158"
       d="M 986.1232,-128.13227 V -268.09139"
       style="fill:none;stroke:#000000;stroke-width:0.69981;stroke-linecap:butt;stroke-linejoin:miter" /><path
       id="159"
       d="M 979.55885,-128.13227 V -268.09139"
       style="fill:none;stroke:#000000;stroke-width:0.69981;stroke-linecap:butt;stroke-linejoin:miter" /><path
       id="160"
       d="M 977.89127,-128.13227 V -268.09139"
       style="fill:none;stroke:#000000;stroke-width:0.69981;stroke-linecap:butt;stroke-linejoin:miter" /><path
       id="162"
       d="M 675.96707,-128.13227 V -268.09139"
       style="fill:none;stroke:#000000;stroke-width:0.69981;stroke-linecap:butt;stroke-linejoin:miter" /><path
       id="163"
       d="M 669.40272,-128.13227 V -268.09139"
       style="fill:none;stroke:#000000;stroke-width:0.69981;stroke-linecap:butt;stroke-linejoin:miter" /><path
       id="164"
       d="M 677.63465,-128.13227 V -268.09139"
       style="fill:none;stroke:#000000;stroke-width:0.69981;stroke-linecap:butt;stroke-linejoin:miter" /><path
       d="m 827.76296,-328.54273 a 130.43625,130.4309 0 0 1 108.14985,203.3472"
       id="path1756"
       style="fill:none;stroke:#000000;stroke-width:0.69981;stroke-linecap:butt;stroke-linejoin:miter" /><path
       d="m 719.29219,-274.14552 a 132.46674,132.4613 0 0 1 220.94253,146.01325"
       id="path1758"
       style="fill:none;stroke:#000000;stroke-width:0.69981;stroke-linecap:butt;stroke-linejoin:miter" /><path
       d="M 937.59638,-124.06046 A 132.46674,132.4613 0 0 1 716.39892,-269.84128"
       id="path1760"
       style="fill:none;stroke:#000000;stroke-width:0.69981;stroke-linecap:butt;stroke-linejoin:miter" /><path
       d="M 935.91281,-125.19553 A 130.43625,130.4309 0 1 1 827.76296,-328.54273"
       id="path1762"
       style="fill:none;stroke:#000000;stroke-width:0.69981;stroke-linecap:butt;stroke-linejoin:miter" /><path
       d="m 938.27821,-125.08226 a 132.46674,132.4613 0 0 1 -0.68183,1.0218"
       id="path1764"
       style="fill:none;stroke:#000000;stroke-width:0.69981;stroke-linecap:butt;stroke-linejoin:miter" /></g><rect
     style="fill:#c8c8c8;stroke:#000000;stroke-width:0.920047;stroke-linejoin:bevel"
     id="rect1699"
     width="87.204887"
     height="76.870422"
     x="0.46002349"
     y="125.31512"
     ry="0.1356988" /><rect
     style="fill:#c8c8c8;stroke:#000000;stroke-width:1;stroke-linejoin:bevel"
     id="rect1701"
     width="37.270588"
     height="31.585243"
     x="12.741622"
     y="148.00397"
     ry="0.13465546" /></svg>
