<?xml version="1.0" encoding="UTF-8" standalone="no"?>
<svg
   version="1.1"
   width="658.56097mm"
   height="658.56097mm"
   viewBox="0 0 658.56097 658.56096"
   id="svg232"
   sodipodi:docname="thumbnail.svg"
   inkscape:version="1.4 (86a8ad7, 2024-10-11)"
   xmlns:inkscape="http://www.inkscape.org/namespaces/inkscape"
   xmlns:sodipodi="http://sodipodi.sourceforge.net/DTD/sodipodi-0.dtd"
   xmlns="http://www.w3.org/2000/svg"
   xmlns:svg="http://www.w3.org/2000/svg">
  <defs
     id="defs236" />
  <sodipodi:namedview
     id="namedview234"
     pagecolor="#ffffff"
     bordercolor="#000000"
     borderopacity="0.25"
     inkscape:showpageshadow="2"
     inkscape:pageopacity="0.0"
     inkscape:pagecheckerboard="0"
     inkscape:deskcolor="#d1d1d1"
     inkscape:document-units="mm"
     showgrid="false"
     inkscape:zoom="0.1955522"
     inkscape:cx="572.7371"
     inkscape:cy="1280.9879"
     inkscape:window-width="1920"
     inkscape:window-height="991"
     inkscape:window-x="-9"
     inkscape:window-y="-9"
     inkscape:window-maximized="1"
     inkscape:current-layer="svg232" />
  <!-- Working space 20 10 584 410 -->
  <!-- Title block 404 350 584 410 -->
  <circle
     style="fill:#ff0000;fill-opacity:0;stroke:#ff0000;stroke-width:1;stroke-linecap:square;stroke-dasharray:none;stroke-opacity:0;paint-order:fill markers stroke"
     id="path15503"
     cx="329.28049"
     cy="329.28049"
     r="328.78049" />
  <g
     id="g4900"
     transform="translate(-13.322617,-3.4823513)">
    <path
       id="path8918-6"
       style="color:#000000;fill:#c8c8c8;fill-opacity:1;stroke:#000000;stroke-width:1;stroke-dasharray:none;stroke-opacity:1"
       d="m 215.21266,190.12275 c -8.80793,7.34326 -21.83407,3.09951 -32.71535,5.30575 -10.3103,0.63024 -20.6206,1.26047 -30.9309,1.89071 -7.52595,23.12859 -11.16405,47.64093 -23.60506,68.39501 -22.4588,50.20168 -17.10321,110.78452 9.55476,157.64222 4.68147,16.12194 9.36901,32.24213 14.05082,48.36398 19.2985,1.19345 39.33244,2.37631 58.17528,3.57756 9.09727,7.17805 21.8831,2.09585 32.68233,3.61683 75.90731,0 151.81462,0 227.72193,0 8.81045,-7.34319 21.83505,-3.09627 32.71156,-5.30368 10.3103,-0.63024 20.6206,-1.26047 30.9309,-1.89071 7.52199,-23.12571 11.16109,-47.63403 23.59873,-68.3807 22.70414,-50.19812 16.30318,-110.60364 -9.54836,-157.65646 -4.68445,-16.1209 -9.36799,-32.24208 -14.05082,-48.36345 -19.29822,-1.1935 -39.33951,-2.37732 -58.17738,-3.57808 -9.09703,-7.18085 -21.88429,-2.09791 -32.68439,-3.61891 -75.90469,-2e-5 -151.80937,-5e-5 -227.71405,-7e-5 z m -56.88542,86.44899 c 0,38.63089 0,77.26177 0,115.89266 -20.17445,4.5699 -29.50276,-9.03493 -31.51939,-28.21755 -6.83165,-29.02038 -3.31841,-60.33185 9.80651,-87.10464 7.23768,-0.18798 14.47527,-0.37983 21.71288,-0.57047 z m 368.69584,0.002 c 20.1743,-4.56997 29.50021,9.03673 31.51733,28.21803 6.83185,29.02045 3.31806,60.33174 -9.80651,87.10469 -12.09776,0.88111 -26.65945,4.29576 -21.71082,-12.32157 0,-34.33372 0,-68.66743 0,-103.00115 z" />
    <g
       id="g12035"
       transform="translate(137.47662,265.02835)">
      <path
         style="color:#000000;fill:#c8c8c8;fill-opacity:1;stroke:#000000;stroke-opacity:1;-inkscape-stroke:none"
         d="m 0.5,6.5481361 c 136.46551,0 272.93103,0 409.39654,0 -0.06,41.6529099 0.11996,83.5457799 -0.0899,125.0488339 -136.43555,0 -272.87109,0 -409.30664,0 0,-41.682945 0,-83.365889 0,-125.0488339 z"
         id="path3679" />
      <g
         id="g3684"
         style="stroke-width:1;stroke-dasharray:none"
         transform="translate(-85.644531,-113.66084)">
        <path
           d="m 147.54282,175.97931 c 0,-18.64861 0,-37.29722 0,-55.94583"
           id="path1723"
           style="fill:none;stroke:#000000;stroke-width:1;stroke-linecap:butt;stroke-linejoin:miter;stroke-dasharray:none" />
        <path
           id="33"
           d="m 147.54282,189.48765 c 0,-4.50278 0,-9.00556 0,-13.50834"
           style="fill:none;stroke:#000000;stroke-width:1;stroke-linecap:butt;stroke-linejoin:miter;stroke-dasharray:none" />
        <path
           d="m 147.54282,245.43348 c 0,-18.64861 0,-37.29722 0,-55.94583"
           id="path1726"
           style="fill:none;stroke:#000000;stroke-width:1;stroke-linecap:butt;stroke-linejoin:miter;stroke-dasharray:none" />
      </g>
      <g
         id="g3705"
         style="stroke-width:1;stroke-dasharray:none"
         transform="translate(-85.644531,-113.66084)">
        <path
           id="5"
           d="m 434.14282,189.48765 c 0,-4.50278 0,-9.00556 0,-13.50834"
           style="fill:none;stroke:#000000;stroke-width:1;stroke-linecap:butt;stroke-linejoin:miter;stroke-dasharray:none" />
        <path
           d="m 434.14282,120.03348 c 0,18.64861 0,37.29722 0,55.94583"
           id="path1740"
           style="fill:none;stroke:#000000;stroke-width:1;stroke-linecap:butt;stroke-linejoin:miter;stroke-dasharray:none" />
        <path
           d="m 434.14282,189.48765 c 0,18.64861 0,37.29722 0,55.94583"
           id="path1742"
           style="fill:none;stroke:#000000;stroke-width:1;stroke-linecap:butt;stroke-linejoin:miter;stroke-dasharray:none" />
      </g>
      <rect
         style="fill:#c8c8c8;fill-opacity:1;stroke:#000000;stroke-width:0.999998;stroke-linecap:square;stroke-opacity:1;paint-order:fill markers stroke"
         id="rect3275"
         width="23.424999"
         height="6.0147033"
         x="35.855469"
         y="0.49999899"
         rx="0.1"
         ry="0.5" />
      <rect
         style="fill:#c8c8c8;fill-opacity:1;stroke:#000000;stroke-width:0.999998;stroke-linecap:square;stroke-opacity:1;paint-order:fill markers stroke"
         id="rect3275-9"
         width="23.424999"
         height="6.0147033"
         x="35.855469"
         y="131.60184"
         rx="0.1"
         ry="0.5" />
      <rect
         style="fill:#c8c8c8;fill-opacity:1;stroke:#000000;stroke-width:0.999998;stroke-linecap:square;stroke-opacity:1;paint-order:fill markers stroke"
         id="rect3275-9-1"
         width="23.424999"
         height="6.0147033"
         x="350.85547"
         y="0.53596395"
         rx="0.1"
         ry="0.5" />
      <rect
         style="fill:#c8c8c8;fill-opacity:1;stroke:#000000;stroke-width:0.999998;stroke-linecap:square;stroke-opacity:1;paint-order:fill markers stroke"
         id="rect3275-9-4"
         width="23.424999"
         height="6.0147033"
         x="350.85547"
         y="131.77756"
         rx="0.1"
         ry="0.5" />
    </g>
  </g>
  <path
     style="color:#000000;fill:#c8c8c8;fill-opacity:1;stroke:#000000;stroke-width:1;stroke-linecap:butt;stroke-linejoin:miter;stroke-dasharray:none"
     d="m 118.35038,443.06708 c 5.41476,-4.39527 10.45482,-13.3026 16.7355,-15.8845 20.20423,-0.64345 40.40845,-1.28691 60.61268,-1.93036 1.42472,-3.37383 -2.76887,-12.36596 2.17933,-12.2163 -9.54717,-0.84842 -8.75615,-9.18635 -8.04876,-17.74193 1.81181,-9.45527 -3.35663,-12.8991 -2.18126,-21.77803 3.20239,-11.05411 -3.8674,-11.83604 -12.70946,-10.84571 0.12549,-16.5689 -0.25542,-33.6442 0.17543,-49.90773 12.13212,3.17946 14.42148,-3.48383 12.53403,-14.32394 2.52088,-9.82082 2.57041,-21.98969 2.31301,-34.29267 0.49305,-39.79892 -0.12347,-80.81348 0.86146,-120.05789 3.62312,-20.19892 21.47788,-32.90641 32.95889,-48.780079 8.37883,-6.283915 16.75341,-9.470564 25.54371,-10.401928 55.76156,0.07893 112.03219,-0.156312 167.48231,0.11488 11.5831,3.312148 23.2353,13.129818 31.00643,24.550007 11.53566,12.66949 23.73298,27.45153 21.35693,45.31706 0.25691,46.21327 0.31012,92.50734 0.66183,138.09727 6.26015,2.14437 -1.42746,16.85724 3.57662,19.77719 6.6088,-0.36465 14.48324,-1.99495 11.27481,7.45761 -0.13422,14.13276 0.26056,28.79451 -0.17543,42.6255 -12.13223,-3.18023 -14.41864,3.48537 -12.53207,14.32394 -0.89199,6.89973 -3.41446,12.46705 -2.1833,21.22322 4.92311,11.81254 -6.75299,10.78173 -8.11712,17.9961 -1.26226,56.08448 -2.28299,112.68877 -3.69797,168.44488 -9.36053,3.06596 -4.39066,16.05235 -6.9994,23.79234 -0.98634,8.71736 -0.71295,18.65918 -5.90499,25.27936 -76.99156,-0.0797 -154.5075,0.15757 -231.18339,-0.11299 -6.79073,-14.29462 -4.72662,-30.90046 -7.35668,-46.54818 -10.28055,-2.61517 -3.1579,-16.4525 -5.45268,-24.31578 -0.26297,-12.30789 -0.52595,-24.61577 -0.78893,-36.92365 -0.12364,20.66883 0.24266,41.8276 -0.17349,62.20392 -8.6531,-1.80571 -12.30127,6.98589 -21.45747,3.79215 -16.691,-0.0337 -33.98985,0.0674 -50.30608,-0.0507 -5.40846,-5.56996 -12.91174,-9.79287 -10.00386,-18.6671 -2.1e-4,-43.40533 -4.2e-4,-86.81065 -6.3e-4,-130.21598 z"
     id="175" />
  <rect
     style="fill:#00ff00;fill-opacity:0;stroke:#00ff00;stroke-width:1;stroke-linecap:square;stroke-dasharray:none;stroke-opacity:0;paint-order:fill markers stroke"
     id="rect15864"
     width="126.28702"
     height="37.312073"
     x="266.13696"
     y="167.621"
     rx="0.1"
     ry="0.5" />
</svg>
