<?xml version="1.0" encoding="UTF-8" standalone="no"?>
<svg
   id="svg2"
   version="1.1"
   viewBox="0 0 383.3515 262.95407"
   height="262.95407mm"
   width="383.3515mm"
   sodipodi:docname="thumbnail.svg"
   inkscape:version="1.2.1 (9c6d41e410, 2022-07-14)"
   xmlns:inkscape="http://www.inkscape.org/namespaces/inkscape"
   xmlns:sodipodi="http://sodipodi.sourceforge.net/DTD/sodipodi-0.dtd"
   xmlns:xlink="http://www.w3.org/1999/xlink"
   xmlns="http://www.w3.org/2000/svg"
   xmlns:svg="http://www.w3.org/2000/svg"
   xmlns:rdf="http://www.w3.org/1999/02/22-rdf-syntax-ns#"
   xmlns:cc="http://creativecommons.org/ns#"
   xmlns:dc="http://purl.org/dc/elements/1.1/">
  <sodipodi:namedview
     id="namedview334"
     pagecolor="#ffffff"
     bordercolor="#000000"
     borderopacity="0.25"
     inkscape:showpageshadow="2"
     inkscape:pageopacity="0.0"
     inkscape:pagecheckerboard="0"
     inkscape:deskcolor="#d1d1d1"
     inkscape:document-units="mm"
     showgrid="false"
     inkscape:zoom="0.55307694"
     inkscape:cx="1091.1683"
     inkscape:cy="580.38941"
     inkscape:window-width="2400"
     inkscape:window-height="1434"
     inkscape:window-x="2391"
     inkscape:window-y="-9"
     inkscape:window-maximized="1"
     inkscape:current-layer="svg2" />
  <!-- Working space 10 10 410 287 -->
  <!-- Title block 220 227 410 287 -->
  <metadata
     id="metadata849">
    <rdf:RDF>
      <cc:Work
         rdf:about="">
        <dc:format>image/svg+xml</dc:format>
        <dc:type
           rdf:resource="http://purl.org/dc/dcmitype/StillImage" />
      </cc:Work>
    </rdf:RDF>
  </metadata>
  <defs
     id="defs847">
    <linearGradient
       gradientUnits="userSpaceOnUse"
       id="defitem29"
       y2="485.909"
       x2="655.35199"
       y1="807.466"
       x1="649.42902">
      <stop
         id="stop92"
         offset="0.0000000"
         style="stop-color:#ffffff;stop-opacity:1.0000000;" />
      <stop
         id="stop93"
         offset="1.0000000"
         style="stop-color:#ffffff;stop-opacity:0.13756600;" />
    </linearGradient>
    <linearGradient
       xlink:href="#defitem29"
       id="linearGradient3448"
       gradientUnits="userSpaceOnUse"
       x1="649.42902"
       y1="807.466"
       x2="655.35199"
       y2="485.909" />
    <radialGradient
       gradientUnits="userSpaceOnUse"
       id="defitem28"
       fy="345.56"
       fx="1049.72"
       r="1202.15"
       cy="345.56"
       cx="1049.72">
      <stop
         id="stop89"
         offset="0.0000000"
         style="stop-color:#ffffff;stop-opacity:1.0000000;" />
      <stop
         id="stop90"
         offset="1.0000000"
         style="stop-color:#a8a8a8;stop-opacity:1.0000000;" />
    </radialGradient>
    <radialGradient
       xlink:href="#defitem28"
       id="radialGradient3446"
       gradientUnits="userSpaceOnUse"
       cx="1092.7045"
       cy="64.845284"
       fx="1089.4004"
       fy="64.844765"
       r="1202.15" />
    <linearGradient
       gradientUnits="userSpaceOnUse"
       id="defitem30"
       y2="636.70697"
       x2="980"
       y1="636.70697"
       x1="287.5">
      <stop
         id="stop95"
         offset="0.0000000"
         style="stop-color:#464646;stop-opacity:1.0000000;" />
      <stop
         id="stop96"
         offset="1.0000000"
         style="stop-color:#c2c2c2;stop-opacity:1.0000000;" />
    </linearGradient>
    <linearGradient
       xlink:href="#defitem30"
       id="linearGradient3444"
       gradientUnits="userSpaceOnUse"
       gradientTransform="matrix(1,0,0,1.016038,0,-11.73855)"
       x1="287.5"
       y1="636.70697"
       x2="980"
       y2="636.70697" />
    <linearGradient
       gradientUnits="userSpaceOnUse"
       id="defitem27"
       y2="317.44699"
       x2="985.98199"
       y1="403.18799"
       x1="921.091">
      <stop
         id="stop86"
         offset="0.0000000"
         style="stop-color:#7e7e7e;stop-opacity:1.0000000;" />
      <stop
         id="stop87"
         offset="1.0000000"
         style="stop-color:#e5e5e5;stop-opacity:1.0000000;" />
    </linearGradient>
    <linearGradient
       xlink:href="#defitem27"
       id="linearGradient3442"
       gradientUnits="userSpaceOnUse"
       x1="921.091"
       y1="403.18799"
       x2="985.98199"
       y2="317.44699" />
    <linearGradient
       gradientUnits="userSpaceOnUse"
       id="defitem26"
       y2="360.27499"
       x2="293.37"
       y1="346.30399"
       x1="530.76099">
      <stop
         id="stop83"
         offset="0.0000000"
         style="stop-color:#5f5f5f;stop-opacity:1.0000000;" />
      <stop
         id="stop84"
         offset="1.0000000"
         style="stop-color:#e5e5e5;stop-opacity:1.0000000;" />
    </linearGradient>
    <linearGradient
       xlink:href="#defitem26"
       id="linearGradient3440"
       gradientUnits="userSpaceOnUse"
       x1="530.76099"
       y1="346.30399"
       x2="293.37"
       y2="360.27499" />
    <linearGradient
       gradientUnits="userSpaceOnUse"
       id="defitem25"
       y2="337.60999"
       x2="308.75"
       y1="412.91901"
       x1="164.013">
      <stop
         id="stop80"
         offset="0.0000000"
         style="stop-color:#ffffff;stop-opacity:1.0000000;" />
      <stop
         id="stop81"
         offset="1.0000000"
         style="stop-color:#bfbfbf;stop-opacity:1.0000000;" />
    </linearGradient>
    <linearGradient
       xlink:href="#defitem25"
       id="linearGradient3438"
       gradientUnits="userSpaceOnUse"
       x1="164.013"
       y1="412.91901"
       x2="308.75"
       y2="337.60999" />
    <linearGradient
       gradientUnits="userSpaceOnUse"
       id="defitem24"
       y2="380.47198"
       x2="992.48901"
       y1="270.854"
       x1="1094.25">
      <stop
         id="stop77"
         offset="0.0000000"
         style="stop-color:#6a6a6a;stop-opacity:1.0000000;" />
      <stop
         id="stop78"
         offset="1.0000000"
         style="stop-color:#e6e6e6;stop-opacity:1.0000000;" />
    </linearGradient>
    <linearGradient
       xlink:href="#defitem24"
       id="linearGradient3436"
       gradientUnits="userSpaceOnUse"
       x1="1094.25"
       y1="270.854"
       x2="992.48901"
       y2="380.47198" />
    <linearGradient
       gradientUnits="userSpaceOnUse"
       id="defitem23"
       y2="549.37799"
       x2="1049.84"
       y1="476.465"
       x1="1170.91">
      <stop
         id="stop74"
         offset="0.0000000"
         style="stop-color:#5f5f5f;stop-opacity:1.0000000;" />
      <stop
         id="stop75"
         offset="1.0000000"
         style="stop-color:#ebebeb;stop-opacity:1.0000000;" />
    </linearGradient>
    <linearGradient
       xlink:href="#defitem23"
       id="linearGradient3434"
       gradientUnits="userSpaceOnUse"
       x1="1170.91"
       y1="476.465"
       x2="1049.84"
       y2="549.37799" />
    <linearGradient
       gradientUnits="userSpaceOnUse"
       id="defitem22"
       y2="313.276"
       x2="576.14899"
       y1="105.486"
       x1="783.716">
      <stop
         id="stop71"
         offset="0.0000000"
         style="stop-color:#5a5a5a;stop-opacity:1.0000000;" />
      <stop
         id="stop72"
         offset="1.0000000"
         style="stop-color:#c7c7c7;stop-opacity:1.0000000;" />
    </linearGradient>
    <linearGradient
       xlink:href="#defitem22"
       id="linearGradient3432"
       gradientUnits="userSpaceOnUse"
       x1="783.716"
       y1="105.486"
       x2="576.14899"
       y2="313.276" />
    <linearGradient
       gradientUnits="userSpaceOnUse"
       id="defitem21"
       y2="484.716"
       x2="128.05499"
       y1="418.698"
       x1="280.04401">
      <stop
         id="stop68"
         offset="0.0000000"
         style="stop-color:#666666;stop-opacity:1.0000000;" />
      <stop
         id="stop69"
         offset="1.0000000"
         style="stop-color:#d8d8d8;stop-opacity:1.0000000;" />
    </linearGradient>
    <linearGradient
       xlink:href="#defitem21"
       id="linearGradient3430"
       gradientUnits="userSpaceOnUse"
       x1="280.04401"
       y1="418.698"
       x2="128.05499"
       y2="484.716" />
    <linearGradient
       gradientUnits="userSpaceOnUse"
       id="defitem20"
       y2="584.40997"
       x2="220"
       y1="636.95398"
       x1="129.687">
      <stop
         id="stop65"
         offset="0.0000000"
         style="stop-color:#ffffff;stop-opacity:1.0000000;" />
      <stop
         id="stop66"
         offset="1.0000000"
         style="stop-color:#bbbbbb;stop-opacity:1.0000000;" />
    </linearGradient>
    <linearGradient
       xlink:href="#defitem20"
       id="linearGradient3428"
       gradientUnits="userSpaceOnUse"
       x1="129.687"
       y1="636.95398"
       x2="220"
       y2="584.40997" />
    <linearGradient
       gradientUnits="userSpaceOnUse"
       id="defitem19"
       y2="583.75299"
       x2="1127.98"
       y1="629.02802"
       x1="1048.72">
      <stop
         id="stop62"
         offset="0.0000000"
         style="stop-color:#5e5e5e;stop-opacity:1.0000000;" />
      <stop
         id="stop63"
         offset="1.0000000"
         style="stop-color:#ededed;stop-opacity:1.0000000;" />
    </linearGradient>
    <linearGradient
       xlink:href="#defitem19"
       id="linearGradient3426"
       gradientUnits="userSpaceOnUse"
       x1="1048.72"
       y1="629.02802"
       x2="1127.98"
       y2="583.75299" />
    <linearGradient
       gradientUnits="userSpaceOnUse"
       id="defitem18"
       y2="291.97699"
       x2="581.32397"
       y1="387.27301"
       x1="370.022">
      <stop
         id="stop59"
         offset="0.0000000"
         style="stop-color:#636363;stop-opacity:1.0000000;" />
      <stop
         id="stop60"
         offset="1.0000000"
         style="stop-color:#d6d6d6;stop-opacity:1.0000000;" />
    </linearGradient>
    <linearGradient
       xlink:href="#defitem18"
       id="linearGradient3424"
       gradientUnits="userSpaceOnUse"
       x1="370.022"
       y1="387.27301"
       x2="581.32397"
       y2="291.97699" />
    <linearGradient
       gradientUnits="userSpaceOnUse"
       id="defitem17"
       y2="351.939"
       x2="909.59399"
       y1="351.939"
       x1="732.15601">
      <stop
         id="stop56"
         offset="0.0000000"
         style="stop-color:#676767;stop-opacity:1.0000000;" />
      <stop
         id="stop57"
         offset="1.0000000"
         style="stop-color:#d3d3d3;stop-opacity:1.0000000;" />
    </linearGradient>
    <linearGradient
       xlink:href="#defitem17"
       id="linearGradient3422"
       gradientUnits="userSpaceOnUse"
       x1="732.15601"
       y1="351.939"
       x2="909.59399"
       y2="351.939" />
    <linearGradient
       gradientUnits="userSpaceOnUse"
       id="defitem16"
       y2="494.71301"
       x2="1073.01"
       y1="494.71301"
       x1="1014.43">
      <stop
         id="stop53"
         offset="0.0000000"
         style="stop-color:#666666;stop-opacity:1.0000000;" />
      <stop
         id="stop54"
         offset="1.0000000"
         style="stop-color:#dcdcdc;stop-opacity:1.0000000;" />
    </linearGradient>
    <linearGradient
       xlink:href="#defitem16"
       id="linearGradient3420"
       gradientUnits="userSpaceOnUse"
       x1="1014.43"
       y1="494.71301"
       x2="1073.01"
       y2="494.71301" />
    <linearGradient
       gradientUnits="userSpaceOnUse"
       id="defitem15"
       y2="516.37"
       x2="193.27699"
       y1="452.388"
       x1="272.59201">
      <stop
         id="stop50"
         offset="0.0000000"
         style="stop-color:#6e6e6e;stop-opacity:1.0000000;" />
      <stop
         id="stop51"
         offset="1.0000000"
         style="stop-color:#d8d8d8;stop-opacity:1.0000000;" />
    </linearGradient>
    <linearGradient
       xlink:href="#defitem15"
       id="linearGradient3418"
       gradientUnits="userSpaceOnUse"
       x1="272.59201"
       y1="452.388"
       x2="193.27699"
       y2="516.37" />
    <radialGradient
       gradientUnits="userSpaceOnUse"
       id="defitem14"
       fy="211.088"
       fx="1037.22"
       r="1164.28"
       cy="211.088"
       cx="1037.22">
      <stop
         id="stop47"
         offset="0.0000000"
         style="stop-color:#ffffff;stop-opacity:1.0000000;" />
      <stop
         id="stop48"
         offset="1.0000000"
         style="stop-color:#aaaaaa;stop-opacity:1.0000000;" />
    </radialGradient>
    <radialGradient
       xlink:href="#defitem14"
       id="radialGradient3416"
       gradientUnits="userSpaceOnUse"
       cx="1037.22"
       cy="211.088"
       fx="1037.22"
       fy="211.088"
       r="1164.28" />
    <linearGradient
       gradientUnits="userSpaceOnUse"
       id="defitem13"
       y2="686.83002"
       x2="379.241"
       y1="732.12903"
       x1="342.64999">
      <stop
         id="stop44"
         offset="0.0000000"
         style="stop-color:#ffffff;stop-opacity:1.0000000;" />
      <stop
         id="stop45"
         offset="1.0000000"
         style="stop-color:#989898;stop-opacity:1.0000000;" />
    </linearGradient>
    <linearGradient
       xlink:href="#defitem13"
       id="linearGradient3414"
       gradientUnits="userSpaceOnUse"
       x1="342.64999"
       y1="732.12903"
       x2="379.241"
       y2="686.83002" />
    <radialGradient
       gradientUnits="userSpaceOnUse"
       id="defitem12"
       fy="484.409"
       fx="632.78101"
       r="540.27899"
       cy="484.409"
       cx="632.78101">
      <stop
         id="stop41"
         offset="0.0000000"
         style="stop-color:#ffffff;stop-opacity:1.0000000;" />
      <stop
         id="stop42"
         offset="1.0000000"
         style="stop-color:#ededed;stop-opacity:1.0000000;" />
    </radialGradient>
    <radialGradient
       xlink:href="#defitem12"
       id="radialGradient3412"
       gradientUnits="userSpaceOnUse"
       cx="632.78101"
       cy="484.409"
       fx="632.78101"
       fy="484.409"
       r="540.27899" />
    <radialGradient
       xlink:href="#linearGradient3682"
       id="radialGradient3817"
       gradientUnits="userSpaceOnUse"
       gradientTransform="matrix(1.1149219,0.2722306,-0.7507171,3.0745639,-471.08629,-148.32863)"
       cx="270.58316"
       cy="33.899986"
       fx="270.58316"
       fy="33.899986"
       r="19.571428" />
    <linearGradient
       id="linearGradient3682">
      <stop
         style="stop-color:#ff6d0f;stop-opacity:1;"
         offset="0"
         id="stop3684" />
      <stop
         style="stop-color:#ff1000;stop-opacity:1;"
         offset="1"
         id="stop3686" />
    </linearGradient>
    <radialGradient
       xlink:href="#linearGradient3864"
       id="radialGradient3661"
       gradientUnits="userSpaceOnUse"
       gradientTransform="matrix(0.6186598,0.9666542,-1.0332462,0.6612786,-327.27568,-255.84136)"
       cx="282.64584"
       cy="29.149046"
       fx="282.64584"
       fy="29.149046"
       r="19.571428" />
    <linearGradient
       id="linearGradient3864">
      <stop
         id="stop3866"
         offset="0"
         style="stop-color:#71b2f8;stop-opacity:1;" />
      <stop
         id="stop3868"
         offset="1"
         style="stop-color:#002795;stop-opacity:1;" />
    </linearGradient>
  </defs>
  <path
     style="color:#000000;fill:#c8c8c8;fill-opacity:1;stroke:#000000;stroke-opacity:1;-inkscape-stroke:none"
     d="M 41.739215,0.58447312 V 0.9301761 l -0.0703,-0.33789098 -2.22266,0.46679698 -2.08984,0.490234 -1.94922,0.511719 -1.80078,0.533203 -1.64844,0.5507809 -1.49219,0.56836 -1.33203,0.585937 -1.16797,0.601563 -1.0039,0.61914 -0.83399,0.634766 -0.66406,0.6562501 -0.48828,0.679688 -0.30274,0.705078 -0.0977,0.675781 0.35352,0.05078 h -0.35742 V 58.570799 h -10.33789 -4.45899 v 0.34961 H 9.424725 V 204.03174 h 0.34961 v 0.34961 h 4.45899 10.33789 v 49.65039 h 0.34375 l -0.33985,0.0488 0.0977,0.67578 0.30274,0.70703 0.48828,0.67969 0.66406,0.6543 0.83399,0.63672 1.0039,0.61718 1.16797,0.60157 1.33203,0.58593 1.49219,0.56836 1.64844,0.55274 1.80078,0.53125 1.94922,0.51367 2.08984,0.49023 2.22266,0.4668 0.0703,-0.33789 v 0.34375 H 341.61224 v -0.34961 l 0.0723,0.34375 2.2207,-0.4668 2.08985,-0.49023 1.94921,-0.51367 1.80079,-0.53125 1.64843,-0.55274 1.49219,-0.56836 1.33398,-0.58593 1.16797,-0.60157 1.00196,-0.61718 0.83398,-0.63672 0.66406,-0.6543 0.48828,-0.67969 0.30469,-0.70703 0.0977,-0.67578 -0.33985,-0.0488 h 0.3418 v -49.65039 h 10.33789 4.45899 v -0.34961 h 0.34961 V 58.920409 h -0.34961 v -0.34961 h -4.45899 -10.33789 V 8.9223631 h -0.35547 l 0.35352,-0.05078 -0.0977,-0.675781 -0.30469,-0.705078 -0.48828,-0.679688 -0.66406,-0.6562501 -0.83398,-0.634766 -1.00196,-0.61914 -1.16797,-0.601563 -1.33398,-0.585937 -1.49219,-0.56836 -1.64843,-0.5507809 -1.80079,-0.533203 -1.94921,-0.511719 -2.08985,-0.490234 -2.2207,-0.46679698 -0.0723,0.34374998 V 0.58447412 Z"
     id="28" />
  <g
     id="g6243"
     transform="translate(0,73.619613)">
    <path
       style="color:#000000;fill:#c8c8c8;fill-opacity:1;stroke:#000000;stroke-opacity:1;-inkscape-stroke:none"
       d="M 0.84961,0.5 V 0.85157 H 0.5 v 114.01367 h 0.34961 v 0.34961 h 0.0488 0.14453 0.24218 0.3379 0.43554 0.53125 0.62696 0.72656 0.82031 0.91602 1.01367 1.10937 1.20703 1.30079 38.36523 42.75781 13.51172 30.30078 112.85742 30.30273 13.50977 42.75976 38.36329 1.30273 1.20508 1.11133 1.01171 0.91797 0.82032 0.72461 0.6289 0.53125 0.4336 0.33984 0.24023 0.14649 0.0488 v -0.34961 h 0.34961 V 0.85157 h -0.34961 V 0.5 h -0.0488 -0.14649 -0.24023 -0.33984 -0.4336 -0.53125 -0.6289 -0.72461 -0.82032 -0.91797 -1.01171 -1.11133 -1.20508 -1.30273 H 334.67574 291.91598 278.40621 248.10348 135.24606 104.94528 91.43356 48.67575 10.31051 9.00973 7.8027 6.69333 5.67966 4.76364 3.94333 3.21676 2.58981 2.05856 1.62301 1.28512 1.04294 0.89841 Z"
       id="34" />
    <g
       id="g3497"
       transform="translate(-13.17308,-60.462317)">
      <path
         id="3"
         d="m 347.84882,94.31974 h -286"
         style="fill:none;stroke:#000000;stroke-width:0.7;stroke-linecap:butt;stroke-linejoin:miter" />
      <path
         id="4"
         d="m 347.84882,142.31974 h -286"
         style="fill:none;stroke:#000000;stroke-width:0.7;stroke-linecap:butt;stroke-linejoin:miter" />
      <path
         d="m 347.84882,61.31274 v 1.4293 4.2162 6.7917 9.0265 10.8089 12.0492 12.6852 12.6852 12.0492 10.8089 9.0265 6.7917 4.2162 1.4293"
         id="path723"
         style="fill:none;stroke:#000000;stroke-width:0.7;stroke-linecap:butt;stroke-linejoin:miter" />
      <path
         d="m 379.73182,155.80434 c 0.46,3.0868 0.957,5.8252 1.484,8.2359 0.525,2.4099 1.084,4.496 1.649,6.175 0.563,1.6774 1.127,2.946 1.691,3.806 0.565,0.8636 1.123,1.3082 1.657,1.3055"
         id="path727"
         style="fill:none;stroke:#000000;stroke-width:0.7;stroke-linecap:butt;stroke-linejoin:miter" />
      <path
         d="m 369.59882,139.94834 0.54,1.2312 0.57,1.2186 0.599,1.2053 0.628,1.1915 0.656,1.1769 0.686,1.1617 0.713,1.1458 0.74,1.1293 0.768,1.1122 0.795,1.0945 0.821,1.0762 0.847,1.0573 0.873,1.0378 0.897,1.0177"
         id="path729"
         style="fill:none;stroke:#000000;stroke-width:0.7;stroke-linecap:butt;stroke-linejoin:miter" />
      <path
         d="m 369.59882,139.94834 -5.207,-2.9641 -4.434,-3.0219 -3.647,-3.0701 -2.848,-3.10896 -2.041,-3.13822 -1.227,-3.15777 -0.409,-3.16755 0.409,-3.16755 1.227,-3.15777 2.041,-3.13822 2.848,-3.10896 3.647,-3.0701 4.434,-3.0219 5.207,-2.9641"
         id="path731"
         style="fill:none;stroke:#000000;stroke-width:0.7;stroke-linecap:butt;stroke-linejoin:miter" />
      <path
         d="m 369.59882,96.69114 0.54,-1.2312 0.57,-1.2186 0.599,-1.2053 0.628,-1.1915 0.656,-1.1769 0.686,-1.1617 0.713,-1.1458 0.74,-1.1293 0.768,-1.1122 0.795,-1.0945 0.821,-1.0762 0.847,-1.0573 0.873,-1.0378 0.897,-1.0177"
         id="path733"
         style="fill:none;stroke:#000000;stroke-width:0.7;stroke-linecap:butt;stroke-linejoin:miter" />
      <path
         d="m 379.73182,80.83514 c 0.46,-3.0868 0.957,-5.8252 1.484,-8.2359 0.525,-2.4099 1.084,-4.496 1.649,-6.175 0.563,-1.6774 1.127,-2.946 1.691,-3.806 0.565,-0.8636 1.123,-1.3082 1.657,-1.3055"
         id="path735"
         style="fill:none;stroke:#000000;stroke-width:0.7;stroke-linecap:butt;stroke-linejoin:miter" />
      <path
         d="m 61.84882,175.32674 v -1.4293 -4.2162 -6.7917 -9.0265 -10.8089 -12.0492 -12.6852 -12.6852 -12.0492 -10.8089 -9.0265 -6.7917 -4.2162 -1.4293"
         id="path739"
         style="fill:none;stroke:#000000;stroke-width:0.7;stroke-linecap:butt;stroke-linejoin:miter" />
      <path
         d="m 23.48482,61.31274 q 0.803,0.0037 1.644,1.2854 0.42,0.6385 0.847,1.5941 0.428,0.9598 0.852,2.2172 0.846,2.5028 1.642,6.1324 0.399,1.8217 0.775,3.9034 0.376,2.0759 0.721,4.3899"
         id="path742"
         style="fill:none;stroke:#000000;stroke-width:0.7;stroke-linecap:butt;stroke-linejoin:miter" />
      <path
         d="m 29.96582,80.83514 0.897,1.0177 0.873,1.0378 0.847,1.0573 0.821,1.0762 0.795,1.0945 0.768,1.1122 0.74,1.1293 0.713,1.1458 0.686,1.1617 0.656,1.1769 0.628,1.1915 0.599,1.2053 0.57,1.2186 0.54,1.2312"
         id="path744"
         style="fill:none;stroke:#000000;stroke-width:0.7;stroke-linecap:butt;stroke-linejoin:miter" />
      <path
         d="m 40.09882,96.69114 5.207,2.9641 4.434,3.0219 3.647,3.0701 2.848,3.10896 2.041,3.13822 1.227,3.15777 0.409,3.16755 -0.409,3.16755 -1.227,3.15777 -2.041,3.13822 -2.848,3.10896 -3.647,3.0701 -4.434,3.0219 -5.207,2.9641"
         id="path746"
         style="fill:none;stroke:#000000;stroke-width:0.7;stroke-linecap:butt;stroke-linejoin:miter" />
      <path
         d="m 29.96582,155.80434 0.897,-1.0177 0.873,-1.0378 0.847,-1.0573 0.821,-1.0762 0.795,-1.0945 0.768,-1.1122 0.74,-1.1293 0.713,-1.1458 0.686,-1.1617 0.656,-1.1769 0.628,-1.1915 0.599,-1.2053 0.57,-1.2186 0.54,-1.2312"
         id="path748"
         style="fill:none;stroke:#000000;stroke-width:0.7;stroke-linecap:butt;stroke-linejoin:miter" />
      <path
         d="m 23.48482,175.32674 q 0.803,-0.004 1.644,-1.2854 0.42,-0.6385 0.847,-1.5941 0.428,-0.9598 0.852,-2.2172 0.846,-2.5028 1.642,-6.1324 0.399,-1.8217 0.775,-3.9034 0.376,-2.0759 0.721,-4.3899"
         id="path750"
         style="fill:none;stroke:#000000;stroke-width:0.7;stroke-linecap:butt;stroke-linejoin:miter" />
      <path
         id="35"
         d="m 29.96582,80.83514 v 74.9692"
         style="fill:none;stroke:#000000;stroke-width:0.7;stroke-linecap:butt;stroke-linejoin:miter" />
      <path
         id="36"
         d="m 40.09882,96.69114 v 43.2572"
         style="fill:none;stroke:#000000;stroke-width:0.7;stroke-linecap:butt;stroke-linejoin:miter" />
      <path
         id="37"
         d="m 379.73182,80.83514 v 74.9692"
         style="fill:none;stroke:#000000;stroke-width:0.7;stroke-linecap:butt;stroke-linejoin:miter" />
      <path
         id="38"
         d="m 369.59882,96.69114 v 43.2572"
         style="fill:none;stroke:#000000;stroke-width:0.7;stroke-linecap:butt;stroke-linejoin:miter" />
    </g>
  </g>
  <g
     id="g5333"
     transform="translate(49.825085,23.5366)">
    <path
       style="color:#000000;fill:#c8c8c8;fill-opacity:1;stroke:#000000;stroke-opacity:1;-inkscape-stroke:none"
       d="m 41.76566,0.50000601 c -0.40798,0 -0.92897,0.1288 -1.5957,0.35351 C 39.21631,1.173936 37.97286,1.709136 36.56254,2.437506 c -1.408391,0.72639 -2.966541,1.63802 -4.593751,2.71679 -1.62822,1.07877 -3.32423,2.32583 -5.04687,3.75 l 0.21875,0.26563 -0.25196,-0.23633 -1.26757,1.35156 -1.24024,1.38086 -1.21289,1.40235 -1.18555,1.42968 -1.15429,1.45118 -1.125,1.47265 -1.09571,1.4961 -1.0625,1.51562 -1.0332,1.53711 -1,1.55664 -0.968749,1.57422 -0.93555,1.59375 -0.90039,1.61133 -0.86718,1.62304 0.30859,0.16407 -0.31055,-0.16016 c -1.70895,3.28526 -3.16163,6.59667 -4.39453,9.93555 -1.22976,3.3371 -2.2484,6.70616 -3.05469,10.10742 -0.80915,3.40346 -1.41477,6.83822 -1.81836,10.30273 -0.20279,1.73308 -0.35468,3.46707 -0.45507,5.20313 -0.0502,0.86616 -0.0882,1.73516 -0.11329,2.60547 -0.0251,0.87106 -0.0391,1.745815 -0.0391,2.605465 v 12.27148 11.625 H 0.84961 v 0.35156 H 0.5 v 0.32422 0.96289 1.54883 2.05859 2.464849 2.74609 2.89453 2.89258 2.74609 2.46485 2.05859 1.54883 0.96289 0.32617 h 0.34961 v 0.34961 h 1.11328 v 11.625 12.27149 c 0,0.85964 0.014,1.73441 0.0391,2.60546 0.0251,0.87031 0.0631,1.73932 0.11329,2.60547 0.10039,1.73606 0.25228,3.47005 0.45507,5.20313 0.40359,3.46451 1.00921,6.89928 1.81836,10.30273 0.80629,3.40126 1.82493,6.77032 3.05469,10.10742 1.2329,3.33888 2.68558,6.65029 4.39453,9.93555 l 0.31055,-0.16211 -0.30859,0.16602 0.86718,1.62304 0.90039,1.61133 0.93555,1.59375 0.968749,1.57422 1,1.55664 1.0332,1.53711 1.0625,1.51563 1.09571,1.4961 1.125,1.47266 1.15429,1.45117 1.18555,1.42969 1.21289,1.40234 1.24024,1.38086 1.26757,1.35156 0.25196,-0.23633 -0.21875,0.26563 c 1.72166,1.42319 3.41689,2.66938 5.04101,3.74609 1.62317,1.07675 3.17573,1.98361 4.580081,2.70899 1.40523,0.72531 2.65861,1.26936 3.62304,1.5957 0.67182,0.22759 1.19203,0.35447 1.59961,0.35352 6.5e-4,0 0.001,0 0.002,0 0.0138,-2e-5 0.0254,-0.01 0.0391,-0.01 v 0.01 h 200.1289 c 0.40781,0 0.92882,-0.12925 1.59375,-0.35352 0.95409,-0.32042 2.19906,-0.85562 3.60938,-1.58398 1.40839,-0.72639 2.96654,-1.63803 4.59375,-2.7168 1.62821,-1.07877 3.32423,-2.32583 5.04687,-3.75 l -0.21875,-0.26563 0.25196,0.23633 1.26758,-1.35156 1.24023,-1.38086 1.21289,-1.40234 1.18555,-1.42969 1.15429,-1.45117 1.125,-1.47266 1.09571,-1.4961 1.0625,-1.51563 1.0332,-1.53711 1,-1.55664 0.96875,-1.57422 0.93555,-1.59375 0.90039,-1.61133 0.86719,-1.62304 -0.3086,-0.16602 0.31055,0.16211 c 1.70895,-3.28526 3.16163,-6.59667 4.39453,-9.93555 1.22976,-3.3371 2.2484,-6.70616 3.05469,-10.10742 0.80915,-3.40345 1.41477,-6.83822 1.81836,-10.30273 0.20279,-1.73308 0.35468,-3.46707 0.45508,-5.20313 0.0502,-0.86615 0.0882,-1.73516 0.11328,-2.60547 0.0251,-0.87105 0.0391,-1.74582 0.0391,-2.60546 v -12.27149 -11.625 h 1.11133 v -0.34961 h 0.35156 v -0.32617 -0.96289 -1.54883 -2.05859 -2.46485 -2.74609 -2.89258 -2.89453 -2.74609 -2.464849 -2.05859 -1.54883 -0.96289 -0.32422 h -0.35156 v -0.35156 h -1.11133 v -11.625 -12.27148 c 0,-0.85965 -0.014,-1.734405 -0.0391,-2.605465 -0.0251,-0.87031 -0.0631,-1.73931 -0.11328,-2.60547 -0.1004,-1.73606 -0.25229,-3.47005 -0.45508,-5.20313 -0.40359,-3.46451 -1.00921,-6.89927 -1.81836,-10.30273 -0.80629,-3.40126 -1.82493,-6.77032 -3.05469,-10.10742 -1.2329,-3.33888 -2.68558,-6.65029 -4.39453,-9.93555 l -0.31055,0.16016 0.3086,-0.16407 -0.86719,-1.62304 -0.90039,-1.61133 -0.93555,-1.59375 -0.96875,-1.57422 -1,-1.55664 -1.0332,-1.53711 -1.0625,-1.51562 -1.09571,-1.4961 -1.125,-1.47265 -1.15429,-1.45118 -1.18555,-1.42968 -1.21289,-1.40235 -1.24023,-1.38086 -1.26758,-1.35156 -0.25196,0.23633 0.21875,-0.26563 c -1.72166,-1.42318 -3.41689,-2.66938 -5.04101,-3.74609 -1.62318,-1.07675 -3.17574,-1.98361 -4.58008,-2.70899 -1.40523,-0.72531 -2.6584,-1.26936 -3.62305,-1.59569999 -0.67152,-0.2276 -1.19187,-0.35447 -1.59961,-0.35351 -6.4e-4,0 -0.001,0 -0.002,0 -0.0144,10e-6 -0.0267,0.01 -0.041,0.01 v -0.01 z"
       id="path1334" />
    <g
       id="g4775"
       transform="translate(29.908734,239.97451)">
      <g
         id="g4747">
        <path
           d="m 153.44743,-226.25517 c -2.7596,0.9095 -5.7086,1.7973 -8.9947,2.6759"
           id="path1202"
           style="fill:none;stroke:#000000;stroke-width:0.7;stroke-linecap:butt;stroke-linejoin:miter" />
        <path
           d="m 144.45273,-40.48887 a 97.1467,97.1467 0 0 0 0,-183.0904"
           id="path1204"
           style="fill:none;stroke:#000000;stroke-width:0.7;stroke-linecap:butt;stroke-linejoin:miter" />
        <path
           d="m 153.44743,-37.81297 c -2.7583,-0.9091 -5.7067,-1.7968 -8.9947,-2.6759"
           id="path1206"
           style="fill:none;stroke:#000000;stroke-width:0.7;stroke-linecap:butt;stroke-linejoin:miter" />
        <path
           d="m 153.44743,-37.81297 a 102.958,102.958 0 0 0 0,-188.4422"
           id="path1208"
           style="fill:none;stroke:#000000;stroke-width:0.7;stroke-linecap:butt;stroke-linejoin:miter" />
        <path
           d="m 70.43643,-226.25517 a 102.958,102.958 0 0 0 0,188.4422"
           id="path1210"
           style="fill:none;stroke:#000000;stroke-width:0.7;stroke-linecap:butt;stroke-linejoin:miter" />
        <path
           d="m 70.43643,-226.25517 a 80.8215,80 32.008 0 0 -65.6325,78.2341"
           id="path1212"
           style="fill:none;stroke:#000000;stroke-width:0.7;stroke-linecap:butt;stroke-linejoin:miter" />
        <path
           id="7"
           d="m 4.80393,-148.02107 v 31.974"
           style="fill:none;stroke:#000000;stroke-width:0.7;stroke-linecap:butt;stroke-linejoin:miter" />
        <path
           d="m 4.80393,-116.04707 a 80,80.8215 57.9922 0 0 65.6325,78.2341"
           id="path1215"
           style="fill:none;stroke:#000000;stroke-width:0.7;stroke-linecap:butt;stroke-linejoin:miter" />
        <path
           d="m 153.44743,-37.81297 a 80.8215,80 32.008 0 0 65.6325,-78.2341"
           id="path1221"
           style="fill:none;stroke:#000000;stroke-width:0.7;stroke-linecap:butt;stroke-linejoin:miter" />
        <path
           id="12"
           d="m 219.07993,-148.02107 v 31.974"
           style="fill:none;stroke:#000000;stroke-width:0.7;stroke-linecap:butt;stroke-linejoin:miter" />
        <path
           d="m 219.07993,-148.02107 a 80,80.8215 57.9922 0 0 -65.6325,-78.2341"
           id="path1224"
           style="fill:none;stroke:#000000;stroke-width:0.7;stroke-linecap:butt;stroke-linejoin:miter" />
        <path
           id="14"
           d="M 134.01363,-224.25607 H 89.87023"
           style="fill:none;stroke:#000000;stroke-width:0.7;stroke-linecap:butt;stroke-linejoin:miter" />
        <path
           id="41"
           d="m 89.87023,-39.81207 h 44.1434"
           style="fill:none;stroke:#000000;stroke-width:0.7;stroke-linecap:butt;stroke-linejoin:miter" />
        <path
           d="m 144.45273,-223.57927 a 80,80.8215 57.9922 0 0 -10.4391,-0.6768"
           id="path1304"
           style="fill:none;stroke:#000000;stroke-width:0.7;stroke-linecap:butt;stroke-linejoin:miter" />
        <path
           d="m 89.87023,-224.25607 a 80.8215,80 32.008 0 0 -10.4391,0.6768"
           id="path1306"
           style="fill:none;stroke:#000000;stroke-width:0.7;stroke-linecap:butt;stroke-linejoin:miter" />
        <path
           d="m 79.43113,-223.57927 a 97.1467,97.1467 0 0 0 0,183.0904"
           id="path1308"
           style="fill:none;stroke:#000000;stroke-width:0.7;stroke-linecap:butt;stroke-linejoin:miter" />
        <path
           d="m 79.43113,-40.48887 a 80,80.8215 57.9922 0 0 10.4391,0.6768"
           id="path1310"
           style="fill:none;stroke:#000000;stroke-width:0.7;stroke-linecap:butt;stroke-linejoin:miter" />
        <path
           d="m 134.01363,-39.81207 a 80.8215,80 32.008 0 0 10.4391,-0.6768"
           id="path1312"
           style="fill:none;stroke:#000000;stroke-width:0.7;stroke-linecap:butt;stroke-linejoin:miter" />
        <circle
           cx="132.03407"
           cy="-111.94193"
           r="89.630501"
           id="circle1314"
           transform="matrix(0,-1,-1,0,0,0)"
           style="fill:none;stroke:#000000;stroke-width:0.7;stroke-linecap:butt;stroke-linejoin:miter" />
        <path
           d="m 70.43643,-37.81297 c 2.7583,-0.9091 5.7067,-1.7968 8.9947,-2.6759"
           id="path1316"
           style="fill:none;stroke:#000000;stroke-width:0.7;stroke-linecap:butt;stroke-linejoin:miter" />
        <path
           d="m 70.43643,-226.25517 c 2.7596,0.9095 5.7086,1.7973 8.9947,2.6759"
           id="path1318"
           style="fill:none;stroke:#000000;stroke-width:0.7;stroke-linecap:butt;stroke-linejoin:miter" />
        <circle
           cx="132.03407"
           cy="-111.94193"
           r="68.745399"
           id="circle1320"
           transform="matrix(0,-1,-1,0,0,0)"
           style="fill:none;stroke:#000000;stroke-width:0.7;stroke-linecap:butt;stroke-linejoin:miter" />
        <circle
           cx="132.03407"
           cy="-111.94193"
           r="76.584"
           id="circle1322"
           transform="matrix(0,-1,-1,0,0,0)"
           style="fill:none;stroke:#000000;stroke-width:0.7;stroke-linecap:butt;stroke-linejoin:miter" />
        <circle
           cx="132.03407"
           cy="-111.94193"
           r="80.499702"
           id="circle1324"
           transform="matrix(0,-1,-1,0,0,0)"
           style="fill:none;stroke:#000000;stroke-width:0.7;stroke-linecap:butt;stroke-linejoin:miter" />
        <circle
           cx="132.03407"
           cy="-111.94193"
           r="88.459801"
           id="circle1326"
           transform="matrix(0,-1,-1,0,0,0)"
           style="fill:none;stroke:#000000;stroke-width:0.7;stroke-linecap:butt;stroke-linejoin:miter" />
      </g>
    </g>
  </g>
</svg>
