<?xml version="1.0" encoding="UTF-8" standalone="no"?>
<svg
   width="446.92316mm"
   height="434.16104mm"
   viewBox="0 0 446.92316 434.16103"
   version="1.1"
   id="svg2"
   sodipodi:version="0.32"
   inkscape:version="1.2.1 (9c6d41e410, 2022-07-14)"
   sodipodi:docname="thumbnail.svg"
   inkscape:output_extension="org.inkscape.output.svg.inkscape"
   xml:space="preserve"
   xmlns:inkscape="http://www.inkscape.org/namespaces/inkscape"
   xmlns:sodipodi="http://sodipodi.sourceforge.net/DTD/sodipodi-0.dtd"
   xmlns:xlink="http://www.w3.org/1999/xlink"
   xmlns="http://www.w3.org/2000/svg"
   xmlns:svg="http://www.w3.org/2000/svg"
   xmlns:rdf="http://www.w3.org/1999/02/22-rdf-syntax-ns#"
   xmlns:cc="http://creativecommons.org/ns#"
   xmlns:dc="http://purl.org/dc/elements/1.1/"><!-- Working space 10 10 410 287 --><!-- Title block 220 227 410 287 --><metadata
     id="metadata849"><rdf:RDF><cc:Work
         rdf:about=""><dc:format>image/svg+xml</dc:format><dc:type
           rdf:resource="http://purl.org/dc/dcmitype/StillImage" /></cc:Work></rdf:RDF></metadata><ellipse
     style="fill:#ff0000;fill-opacity:0;stroke:#ff0000;stroke-width:1;stroke-linecap:round;stroke-linejoin:bevel;stroke-dasharray:none;stroke-opacity:0;paint-order:fill markers stroke"
     id="path2429"
     cx="223.46158"
     cy="217.08052"
     rx="222.96158"
     ry="216.58052"
     inkscape:label="circle" /><defs
     id="defs847"><linearGradient
       x1="649.42902"
       y1="807.466"
       x2="655.35199"
       y2="485.909"
       id="defitem29"
       gradientUnits="userSpaceOnUse"><stop
         style="stop-color:#ffffff;stop-opacity:1.0000000;"
         offset="0.0000000"
         id="stop92" /><stop
         style="stop-color:#ffffff;stop-opacity:0.13756600;"
         offset="1.0000000"
         id="stop93" /></linearGradient><linearGradient
       y2="485.909"
       x2="655.35199"
       y1="807.466"
       x1="649.42902"
       gradientUnits="userSpaceOnUse"
       id="linearGradient3448"
       xlink:href="#defitem29"
       inkscape:collect="always" /><radialGradient
       cx="1049.72"
       cy="345.56"
       r="1202.15"
       fx="1049.72"
       fy="345.56"
       id="defitem28"
       gradientUnits="userSpaceOnUse"><stop
         style="stop-color:#ffffff;stop-opacity:1.0000000;"
         offset="0.0000000"
         id="stop89" /><stop
         style="stop-color:#a8a8a8;stop-opacity:1.0000000;"
         offset="1.0000000"
         id="stop90" /></radialGradient><radialGradient
       r="1202.15"
       fy="64.844765"
       fx="1089.4004"
       cy="64.845284"
       cx="1092.7045"
       gradientUnits="userSpaceOnUse"
       id="radialGradient3446"
       xlink:href="#defitem28"
       inkscape:collect="always" /><linearGradient
       x1="287.5"
       y1="636.70697"
       x2="980"
       y2="636.70697"
       id="defitem30"
       gradientUnits="userSpaceOnUse"><stop
         style="stop-color:#464646;stop-opacity:1.0000000;"
         offset="0.0000000"
         id="stop95" /><stop
         style="stop-color:#c2c2c2;stop-opacity:1.0000000;"
         offset="1.0000000"
         id="stop96" /></linearGradient><linearGradient
       y2="636.70697"
       x2="980"
       y1="636.70697"
       x1="287.5"
       gradientTransform="matrix(1,0,0,1.016038,0,-11.73855)"
       gradientUnits="userSpaceOnUse"
       id="linearGradient3444"
       xlink:href="#defitem30"
       inkscape:collect="always" /><linearGradient
       x1="921.091"
       y1="403.18799"
       x2="985.98199"
       y2="317.44699"
       id="defitem27"
       gradientUnits="userSpaceOnUse"><stop
         style="stop-color:#7e7e7e;stop-opacity:1.0000000;"
         offset="0.0000000"
         id="stop86" /><stop
         style="stop-color:#e5e5e5;stop-opacity:1.0000000;"
         offset="1.0000000"
         id="stop87" /></linearGradient><linearGradient
       y2="317.44699"
       x2="985.98199"
       y1="403.18799"
       x1="921.091"
       gradientUnits="userSpaceOnUse"
       id="linearGradient3442"
       xlink:href="#defitem27"
       inkscape:collect="always" /><linearGradient
       x1="530.76099"
       y1="346.30399"
       x2="293.37"
       y2="360.27499"
       id="defitem26"
       gradientUnits="userSpaceOnUse"><stop
         style="stop-color:#5f5f5f;stop-opacity:1.0000000;"
         offset="0.0000000"
         id="stop83" /><stop
         style="stop-color:#e5e5e5;stop-opacity:1.0000000;"
         offset="1.0000000"
         id="stop84" /></linearGradient><linearGradient
       y2="360.27499"
       x2="293.37"
       y1="346.30399"
       x1="530.76099"
       gradientUnits="userSpaceOnUse"
       id="linearGradient3440"
       xlink:href="#defitem26"
       inkscape:collect="always" /><linearGradient
       x1="164.013"
       y1="412.91901"
       x2="308.75"
       y2="337.60999"
       id="defitem25"
       gradientUnits="userSpaceOnUse"><stop
         style="stop-color:#ffffff;stop-opacity:1.0000000;"
         offset="0.0000000"
         id="stop80" /><stop
         style="stop-color:#bfbfbf;stop-opacity:1.0000000;"
         offset="1.0000000"
         id="stop81" /></linearGradient><linearGradient
       y2="337.60999"
       x2="308.75"
       y1="412.91901"
       x1="164.013"
       gradientUnits="userSpaceOnUse"
       id="linearGradient3438"
       xlink:href="#defitem25"
       inkscape:collect="always" /><linearGradient
       x1="1094.25"
       y1="270.854"
       x2="992.48901"
       y2="380.47198"
       id="defitem24"
       gradientUnits="userSpaceOnUse"><stop
         style="stop-color:#6a6a6a;stop-opacity:1.0000000;"
         offset="0.0000000"
         id="stop77" /><stop
         style="stop-color:#e6e6e6;stop-opacity:1.0000000;"
         offset="1.0000000"
         id="stop78" /></linearGradient><linearGradient
       y2="380.47198"
       x2="992.48901"
       y1="270.854"
       x1="1094.25"
       gradientUnits="userSpaceOnUse"
       id="linearGradient3436"
       xlink:href="#defitem24"
       inkscape:collect="always" /><linearGradient
       x1="1170.91"
       y1="476.465"
       x2="1049.84"
       y2="549.37799"
       id="defitem23"
       gradientUnits="userSpaceOnUse"><stop
         style="stop-color:#5f5f5f;stop-opacity:1.0000000;"
         offset="0.0000000"
         id="stop74" /><stop
         style="stop-color:#ebebeb;stop-opacity:1.0000000;"
         offset="1.0000000"
         id="stop75" /></linearGradient><linearGradient
       y2="549.37799"
       x2="1049.84"
       y1="476.465"
       x1="1170.91"
       gradientUnits="userSpaceOnUse"
       id="linearGradient3434"
       xlink:href="#defitem23"
       inkscape:collect="always" /><linearGradient
       x1="783.716"
       y1="105.486"
       x2="576.14899"
       y2="313.276"
       id="defitem22"
       gradientUnits="userSpaceOnUse"><stop
         style="stop-color:#5a5a5a;stop-opacity:1.0000000;"
         offset="0.0000000"
         id="stop71" /><stop
         style="stop-color:#c7c7c7;stop-opacity:1.0000000;"
         offset="1.0000000"
         id="stop72" /></linearGradient><linearGradient
       y2="313.276"
       x2="576.14899"
       y1="105.486"
       x1="783.716"
       gradientUnits="userSpaceOnUse"
       id="linearGradient3432"
       xlink:href="#defitem22"
       inkscape:collect="always" /><linearGradient
       x1="280.04401"
       y1="418.698"
       x2="128.05499"
       y2="484.716"
       id="defitem21"
       gradientUnits="userSpaceOnUse"><stop
         style="stop-color:#666666;stop-opacity:1.0000000;"
         offset="0.0000000"
         id="stop68" /><stop
         style="stop-color:#d8d8d8;stop-opacity:1.0000000;"
         offset="1.0000000"
         id="stop69" /></linearGradient><linearGradient
       y2="484.716"
       x2="128.05499"
       y1="418.698"
       x1="280.04401"
       gradientUnits="userSpaceOnUse"
       id="linearGradient3430"
       xlink:href="#defitem21"
       inkscape:collect="always" /><linearGradient
       x1="129.687"
       y1="636.95398"
       x2="220"
       y2="584.40997"
       id="defitem20"
       gradientUnits="userSpaceOnUse"><stop
         style="stop-color:#ffffff;stop-opacity:1.0000000;"
         offset="0.0000000"
         id="stop65" /><stop
         style="stop-color:#bbbbbb;stop-opacity:1.0000000;"
         offset="1.0000000"
         id="stop66" /></linearGradient><linearGradient
       y2="584.40997"
       x2="220"
       y1="636.95398"
       x1="129.687"
       gradientUnits="userSpaceOnUse"
       id="linearGradient3428"
       xlink:href="#defitem20"
       inkscape:collect="always" /><linearGradient
       x1="1048.72"
       y1="629.02802"
       x2="1127.98"
       y2="583.75299"
       id="defitem19"
       gradientUnits="userSpaceOnUse"><stop
         style="stop-color:#5e5e5e;stop-opacity:1.0000000;"
         offset="0.0000000"
         id="stop62" /><stop
         style="stop-color:#ededed;stop-opacity:1.0000000;"
         offset="1.0000000"
         id="stop63" /></linearGradient><linearGradient
       y2="583.75299"
       x2="1127.98"
       y1="629.02802"
       x1="1048.72"
       gradientUnits="userSpaceOnUse"
       id="linearGradient3426"
       xlink:href="#defitem19"
       inkscape:collect="always" /><linearGradient
       x1="370.022"
       y1="387.27301"
       x2="581.32397"
       y2="291.97699"
       id="defitem18"
       gradientUnits="userSpaceOnUse"><stop
         style="stop-color:#636363;stop-opacity:1.0000000;"
         offset="0.0000000"
         id="stop59" /><stop
         style="stop-color:#d6d6d6;stop-opacity:1.0000000;"
         offset="1.0000000"
         id="stop60" /></linearGradient><linearGradient
       y2="291.97699"
       x2="581.32397"
       y1="387.27301"
       x1="370.022"
       gradientUnits="userSpaceOnUse"
       id="linearGradient3424"
       xlink:href="#defitem18"
       inkscape:collect="always" /><linearGradient
       x1="732.15601"
       y1="351.939"
       x2="909.59399"
       y2="351.939"
       id="defitem17"
       gradientUnits="userSpaceOnUse"><stop
         style="stop-color:#676767;stop-opacity:1.0000000;"
         offset="0.0000000"
         id="stop56" /><stop
         style="stop-color:#d3d3d3;stop-opacity:1.0000000;"
         offset="1.0000000"
         id="stop57" /></linearGradient><linearGradient
       y2="351.939"
       x2="909.59399"
       y1="351.939"
       x1="732.15601"
       gradientUnits="userSpaceOnUse"
       id="linearGradient3422"
       xlink:href="#defitem17"
       inkscape:collect="always" /><linearGradient
       x1="1014.43"
       y1="494.71301"
       x2="1073.01"
       y2="494.71301"
       id="defitem16"
       gradientUnits="userSpaceOnUse"><stop
         style="stop-color:#666666;stop-opacity:1.0000000;"
         offset="0.0000000"
         id="stop53" /><stop
         style="stop-color:#dcdcdc;stop-opacity:1.0000000;"
         offset="1.0000000"
         id="stop54" /></linearGradient><linearGradient
       y2="494.71301"
       x2="1073.01"
       y1="494.71301"
       x1="1014.43"
       gradientUnits="userSpaceOnUse"
       id="linearGradient3420"
       xlink:href="#defitem16"
       inkscape:collect="always" /><linearGradient
       x1="272.59201"
       y1="452.388"
       x2="193.27699"
       y2="516.37"
       id="defitem15"
       gradientUnits="userSpaceOnUse"><stop
         style="stop-color:#6e6e6e;stop-opacity:1.0000000;"
         offset="0.0000000"
         id="stop50" /><stop
         style="stop-color:#d8d8d8;stop-opacity:1.0000000;"
         offset="1.0000000"
         id="stop51" /></linearGradient><linearGradient
       y2="516.37"
       x2="193.27699"
       y1="452.388"
       x1="272.59201"
       gradientUnits="userSpaceOnUse"
       id="linearGradient3418"
       xlink:href="#defitem15"
       inkscape:collect="always" /><radialGradient
       cx="1037.22"
       cy="211.088"
       r="1164.28"
       fx="1037.22"
       fy="211.088"
       id="defitem14"
       gradientUnits="userSpaceOnUse"><stop
         style="stop-color:#ffffff;stop-opacity:1.0000000;"
         offset="0.0000000"
         id="stop47" /><stop
         style="stop-color:#aaaaaa;stop-opacity:1.0000000;"
         offset="1.0000000"
         id="stop48" /></radialGradient><radialGradient
       r="1164.28"
       fy="211.088"
       fx="1037.22"
       cy="211.088"
       cx="1037.22"
       gradientUnits="userSpaceOnUse"
       id="radialGradient3416"
       xlink:href="#defitem14"
       inkscape:collect="always" /><linearGradient
       x1="342.64999"
       y1="732.12903"
       x2="379.241"
       y2="686.83002"
       id="defitem13"
       gradientUnits="userSpaceOnUse"><stop
         style="stop-color:#ffffff;stop-opacity:1.0000000;"
         offset="0.0000000"
         id="stop44" /><stop
         style="stop-color:#989898;stop-opacity:1.0000000;"
         offset="1.0000000"
         id="stop45" /></linearGradient><linearGradient
       y2="686.83002"
       x2="379.241"
       y1="732.12903"
       x1="342.64999"
       gradientUnits="userSpaceOnUse"
       id="linearGradient3414"
       xlink:href="#defitem13"
       inkscape:collect="always" /><radialGradient
       cx="632.78101"
       cy="484.409"
       r="540.27899"
       fx="632.78101"
       fy="484.409"
       id="defitem12"
       gradientUnits="userSpaceOnUse"><stop
         style="stop-color:#ffffff;stop-opacity:1.0000000;"
         offset="0.0000000"
         id="stop41" /><stop
         style="stop-color:#ededed;stop-opacity:1.0000000;"
         offset="1.0000000"
         id="stop42" /></radialGradient><radialGradient
       r="540.27899"
       fy="484.409"
       fx="632.78101"
       cy="484.409"
       cx="632.78101"
       gradientUnits="userSpaceOnUse"
       id="radialGradient3412"
       xlink:href="#defitem12"
       inkscape:collect="always" /><inkscape:perspective
       id="perspective3148"
       inkscape:persp3d-origin="32.000001 : 158.49437 : 1"
       inkscape:vp_z="63.999999 : 169.16104 : 1"
       inkscape:vp_y="0 : 999.99997 : 0"
       inkscape:vp_x="0 : 169.16104 : 1"
       sodipodi:type="inkscape:persp3d" /><linearGradient
       id="linearGradient3682"><stop
         id="stop3684"
         offset="0"
         style="stop-color:#ff6d0f;stop-opacity:1;" /><stop
         id="stop3686"
         offset="1"
         style="stop-color:#ff1000;stop-opacity:1;" /></linearGradient><linearGradient
       id="linearGradient3864"><stop
         style="stop-color:#71b2f8;stop-opacity:1;"
         offset="0"
         id="stop3866" /><stop
         style="stop-color:#002795;stop-opacity:1;"
         offset="1"
         id="stop3868" /></linearGradient><radialGradient
       gradientUnits="userSpaceOnUse"
       id="defitem28-4"
       fy="345.56"
       fx="1049.72"
       r="1202.15"
       cy="345.56"
       cx="1049.72"><stop
         id="stop89-9"
         offset="0.0000000"
         style="stop-color:#ffffff;stop-opacity:1.0000000;" /><stop
         id="stop90-3"
         offset="1.0000000"
         style="stop-color:#a8a8a8;stop-opacity:1.0000000;" /></radialGradient><radialGradient
       xlink:href="#defitem28-4"
       id="radialGradient3446-0"
       gradientUnits="userSpaceOnUse"
       cx="1092.7045"
       cy="64.845284"
       fx="1089.4004"
       fy="64.844765"
       r="1202.15" /><radialGradient
       gradientUnits="userSpaceOnUse"
       id="defitem14-5"
       fy="211.088"
       fx="1037.22"
       r="1164.28"
       cy="211.088"
       cx="1037.22"><stop
         id="stop47-3"
         offset="0.0000000"
         style="stop-color:#ffffff;stop-opacity:1.0000000;" /><stop
         id="stop48-4"
         offset="1.0000000"
         style="stop-color:#aaaaaa;stop-opacity:1.0000000;" /></radialGradient><radialGradient
       xlink:href="#defitem14-5"
       id="radialGradient3416-6"
       gradientUnits="userSpaceOnUse"
       cx="1037.22"
       cy="211.088"
       fx="1037.22"
       fy="211.088"
       r="1164.28" /><radialGradient
       gradientUnits="userSpaceOnUse"
       id="defitem12-9"
       fy="484.409"
       fx="632.78101"
       r="540.27899"
       cy="484.409"
       cx="632.78101"><stop
         id="stop41-0"
         offset="0.0000000"
         style="stop-color:#ffffff;stop-opacity:1.0000000;" /><stop
         id="stop42-3"
         offset="1.0000000"
         style="stop-color:#ededed;stop-opacity:1.0000000;" /></radialGradient><radialGradient
       xlink:href="#defitem12-9"
       id="radialGradient3412-2"
       gradientUnits="userSpaceOnUse"
       cx="632.78101"
       cy="484.409"
       fx="632.78101"
       fy="484.409"
       r="540.27899" /><radialGradient
       xlink:href="#linearGradient3682"
       id="radialGradient3817"
       gradientUnits="userSpaceOnUse"
       gradientTransform="matrix(1.1149219,0.2722306,-0.7507171,3.0745639,-471.08629,-148.32863)"
       cx="270.58316"
       cy="33.899986"
       fx="270.58316"
       fy="33.899986"
       r="19.571428" /><radialGradient
       xlink:href="#linearGradient3864"
       id="radialGradient3661"
       gradientUnits="userSpaceOnUse"
       gradientTransform="matrix(0.6186598,0.9666542,-1.0332462,0.6612786,-327.27568,-255.84136)"
       cx="282.64584"
       cy="29.149046"
       fx="282.64584"
       fy="29.149046"
       r="19.571428" /></defs><sodipodi:namedview
     inkscape:window-height="1051"
     inkscape:window-width="1920"
     inkscape:pageshadow="2"
     inkscape:pageopacity="0.0"
     guidetolerance="10.0"
     gridtolerance="10.0"
     objecttolerance="10.0"
     borderopacity="1.0"
     bordercolor="#666666"
     pagecolor="#ffffff"
     id="base"
     inkscape:window-x="-9"
     inkscape:window-y="131"
     inkscape:current-layer="svg2"
     inkscape:document-units="mm"
     showgrid="false"
     inkscape:window-maximized="1"
     inkscape:pagecheckerboard="0"
     inkscape:zoom="0.24878339"
     inkscape:cx="2417.7659"
     inkscape:cy="769.74593"
     inkscape:showpageshadow="2"
     inkscape:deskcolor="#d1d1d1" /><g
     id="g3164"
     transform="translate(-11.666885,-38.38774)"><g
       id="g395"
       transform="translate(40.128477,118.86321)"
       style="fill:#c8c8c8;fill-opacity:1;stroke:#000000;stroke-width:1;stroke-dasharray:none;stroke-opacity:1"><path
         id="path1547"
         style="color:#000000;fill:#c8c8c8;fill-opacity:1;stroke:#000000;stroke-width:1;stroke-miterlimit:4;stroke-dasharray:none;stroke-opacity:1"
         d="M 85.826672,1.441624 V 1.8265239 L 85.524624,1.5537189 80.565892,6.0502573 H 53.588061 C 47.479546,6.0501684 41.762,8.7818621 38.304983,13.349768 c -1.905937,2.518391 -3.744142,5.077332 -5.51538,7.675367 l -0.853709,1.262262 -0.843724,1.271305 -0.834983,1.274693 -0.821244,1.283759 -0.811284,1.287159 -0.80253,1.292813 -0.78756,1.300733 -0.777563,1.305267 -0.765091,1.308655 -0.75885,1.313199 -0.74138,1.322242 -0.735137,1.326775 -0.721399,1.330163 -0.707671,1.335829 h -0.0049 l -0.688945,1.330163 -0.68396,1.334707 -0.67523,1.343772 -0.660248,1.34375 -0.645277,1.351672 -0.637779,1.352815 -0.626552,1.359604 -0.614067,1.365269 -0.60284,1.365258 -0.590344,1.373179 -0.580383,1.373201 -0.565389,1.382256 -0.556659,1.382245 -0.547919,1.385643 0.401893,0.128992 -0.401893,-0.124593 -1.636258,4.385621 -1.5189543,4.428627 -1.4016273,4.454644 -1.2830441,4.487496 -1.1607427,4.514646 -1.0421716,4.535022 -0.9198578,4.561084 -0.7975442,4.573517 -0.6789611,4.595024 -0.5516612,4.608637 -0.4343458,4.61653 -0.3057782,4.6256 -0.1897306,4.63353 -0.061078,4.62898 0.4243491,0.004 -0.4243491,0.004 0.061078,4.63011 0.1897306,4.63353 0.3057782,4.62561 0.4343458,4.61653 0.5516612,4.60747 0.6789611,4.59505 0.7975442,4.57918 0.9198578,4.55654 1.0421716,4.53503 1.1607427,4.51352 1.2830441,4.48862 1.4016273,4.45467 1.5189543,4.42749 1.636258,4.38561 0.401893,-0.12349 -0.401893,0.12789 0.547919,1.38679 0.556659,1.38222 0.565389,1.38113 0.580383,1.37433 0.590344,1.37318 0.60284,1.36867 0.614067,1.36074 0.626552,1.36071 0.637779,1.35168 0.645277,1.35283 0.660248,1.34377 0.67523,1.34259 0.68396,1.33585 0.688945,1.33017 h 0.0049 l 0.707671,1.33471 0.721399,1.33128 0.735137,1.32565 0.74138,1.32225 0.75885,1.31319 0.765091,1.30978 0.777563,1.30528 0.78756,1.30073 0.80253,1.29168 0.811284,1.28828 0.821244,1.28376 0.834983,1.2747 0.843724,1.27018 0.853709,1.26226 0.359456,-0.19591 -0.359456,0.2003 c 1.771238,2.59793 3.609443,5.15372 5.51538,7.67198 3.457017,4.56793 9.174563,7.29962 15.283078,7.29953 h 26.977831 l 4.958732,4.49654 0.302048,-0.27396 V 242.44 H 304.17804 v -0.38489 l 0.30208,0.27396 4.95747,-4.49654 h 26.97906 c 6.10855,9e-5 11.8261,-2.7316 15.28305,-7.29953 1.90599,-2.51826 3.74421,-5.07405 5.51542,-7.67198 l -0.27459,-0.15386 0.27459,0.15057 0.85367,-1.26227 0.84378,-1.2713 0.83497,-1.27469 0.82128,-1.28376 0.81124,-1.28828 0.79753,-1.29168 0.79258,-1.30073 0.77757,-1.30529 0.76384,-1.30865 0.75508,-1.31432 0.7451,-1.32224 0.73643,-1.32565 0.71641,-1.33129 0.71266,-1.33471 0.69392,-1.33016 0.68402,-1.33471 0.67391,-1.34373 0.65654,-1.34378 0.65028,-1.35168 0.63654,-1.35282 0.62778,-1.36071 0.61283,-1.35962 0.60408,-1.36979 0.59034,-1.37318 0.58037,-1.3732 0.56541,-1.38226 0.55667,-1.38222 0.54662,-1.38565 -0.33947,-0.11204 0.33947,0.10743 1.63751,-4.38559 1.51898,-4.42862 1.40037,-4.45468 1.28433,-4.48746 1.15946,-4.51469 1.04341,-4.53502 0.91988,-4.55654 0.7963,-4.57806 0.68018,-4.59616 0.55168,-4.60748 0.43308,-4.61653 0.30704,-4.62561 0.18474,-4.63352 0.0612,-4.63012 -0.42439,-0.004 0.42439,-0.004 -0.0612,-4.63014 -0.18474,-4.63353 -0.30704,-4.6256 -0.43308,-4.61653 -0.55168,-4.607488 -0.68018,-4.596168 -0.7963,-4.573517 -0.91988,-4.561085 -1.04341,-4.53501 -1.16451,-4.514658 -1.27928,-4.487496 -1.40037,-4.454644 -1.51898,-4.428627 -1.63751,-4.385621 -0.33947,0.107652 0.33947,-0.110984 -0.54662,-1.386766 -0.55667,-1.382245 -0.56541,-1.382244 -0.58037,-1.373213 -0.59034,-1.373179 -0.60408,-1.365246 -0.61283,-1.364137 -0.62778,-1.360747 -0.63654,-1.352816 -0.65028,-1.351671 -0.65654,-1.34375 -0.67391,-1.343772 -0.68402,-1.334707 -0.69392,-1.330163 -0.71266,-1.334674 -0.71641,-1.331318 -0.73643,-1.325652 -0.7451,-1.322243 -0.75508,-1.314321 -0.76384,-1.308655 -0.77757,-1.305267 -0.79258,-1.300734 -0.79753,-1.291691 -0.81124,-1.288281 -0.82128,-1.283758 -0.83497,-1.274693 -0.84378,-1.271305 -0.85367,-1.262251 c -1.77121,-2.598035 -3.60943,-5.156976 -5.51542,-7.675379 -3.45695,-4.5679051 -9.1745,-7.2995988 -15.28305,-7.2995099 h -26.97906 l -4.96246,-4.4965385 -0.29709,0.2694166 V 1.4413574 Z M 50.088364,58.41256 v 0.366792 0.0011 0.01767 h 4.707864 V 185.08738 h -4.707864 v 0.0177 0.36792 l -0.0085,-0.0133 0.0085,-0.35547 -0.604095,-0.0177 h -0.0085 l -20.511407,-0.48678 -4.085055,-8.27082 -3.57582,-8.7112 -2.948036,-8.9048 -2.301504,-9.0576 -1.651241,-9.1731 -0.996004,-9.25006 -0.329489,-9.28968 0.329489,-9.28857 0.996004,-9.25121 1.651241,-9.173068 2.301504,-9.057623 2.948036,-8.903634 3.57582,-8.711218 4.085055,-8.270826 20.53012,-0.487929 h 0.0097 v -0.0045 l 0.584114,-0.01322 -0.0085,-0.358859 z m 289.823026,0 0.0138,0.0089 -0.008,0.364536 0.58413,0.01322 h 0.009 l 20.53008,0.487918 4.08508,8.270826 3.57461,8.711217 2.94427,8.903646 2.30652,9.058756 1.65118,9.173091 0.99479,9.25006 0.33075,9.28968 -0.33075,9.28855 -0.99479,9.25006 -1.65118,9.17423 -2.30652,9.05762 -2.94427,8.90366 -3.57461,8.71119 -4.08508,8.27083 -20.52511,0.48792 v 0.004 l -0.59908,0.0133 0.009,0.35546 -0.015,0.0133 v -0.38149 h -4.70788 V 58.800527 h 4.70788 z" /><path
         id="path7780"
         style="color:#000000;fill:#c8c8c8;fill-opacity:1;stroke:#000000;stroke-width:1;stroke-miterlimit:4;stroke-dasharray:none;stroke-opacity:1"
         d="m 6.5498544,53.171719 h 0.2456909 0.4712433 0.604158 0.7370726 0.8740256 1.0069402 1.139855 1.276798 1.409712 1.542627 1.675542 1.578867 c 0.324009,0.76668 0.64986,1.679995 0.978747,2.834526 0.355049,1.250808 0.714054,2.729767 1.059289,4.395296 0.691949,3.320056 1.335712,7.399539 1.933316,12.22541 v 98.633259 c -0.297016,2.40661 -0.609273,4.63957 -0.934421,6.68692 -0.327716,2.0582 -0.668756,3.93594 -1.015006,5.60114 -0.670611,3.22463 -1.354287,5.56594 -2.034008,7.16195 H 17.533519 15.857977 14.31535 12.905638 11.62884 10.488985 9.4820448 8.6080192 7.8709466 7.2667886 6.7955453 6.5498544 Z m 13.3479366,0 h 38.050117 v 1.503402 2.573465 3.147697 3.690608 4.212623 4.682391 5.120868 5.512412 5.851714 6.144044 6.373697 6.55117 6.67128 2.30205 l -0.418881,-1.24241 -0.882062,-1.86353 -1.123753,-1.84792 -1.365418,-1.83226 -1.60705,-1.8218 -1.844706,-1.80615 -2.08637,-1.79045 -2.319987,-1.78009 -2.553586,-1.76435 -2.79124,-1.75395 -3.0208,-1.733079 L 34.83268,96.634053 34.341298,94.890538 33.749223,92.969543 33.120889,91.074671 32.452287,89.205875 31.743398,87.3632 30.994232,85.551833 30.208827,83.76658 29.387182,82.017851 28.529268,80.300441 27.635102,78.619556 26.704689,76.970044 25.742074,75.362247 24.743168,73.796245 23.780565,72.365931 C 23.184534,67.573294 22.542222,63.490858 21.847238,60.156174 21.49751,58.469072 21.132457,56.967341 20.767799,55.682584 20.481768,54.678546 20.190396,53.914805 19.897791,53.171719 Z m 38.771091,0 h 3.089281 17.391797 30.047 21.81024 127.98566 21.80621 30.05102 17.38776 3.0893 v 1.503402 2.573465 3.147697 3.690608 4.212623 4.682391 5.120868 5.512412 5.851714 6.144044 6.373697 6.55117 6.67128 6.6921 0.0418 0.0419 6.69213 6.67124 6.5512 6.37371 6.14404 5.85169 5.50718 5.12613 4.68238 4.2126 3.6906 3.14773 2.57349 1.50337 h -3.0893 -17.38776 -30.05102 -21.80621 -127.98566 -21.81024 -30.047 -17.391797 -3.089281 v -1.50337 -2.57349 -3.14773 -3.6906 -4.2126 -4.68238 -5.12613 -5.50718 -5.85169 -6.14404 -6.37371 -6.5512 -6.67124 -6.69213 -0.0419 -0.0418 -6.6921 -6.67128 -6.55117 -6.373697 -6.144044 -5.851714 -5.512412 -5.120868 -4.682391 -4.212623 -3.690608 -3.147697 -2.573465 z m 273.379248,0 h 38.0501 c -0.29259,0.743086 -0.58396,1.506827 -0.86999,2.510865 -0.36467,1.284757 -0.72569,2.786488 -1.07541,4.47359 -0.69499,3.334684 -1.34135,7.41712 -1.93735,12.209757 l -0.96264,1.430314 -0.99485,1.566002 -0.96665,1.607797 -0.93041,1.649512 -0.89415,1.680885 -0.85791,1.71741 -0.82167,1.748729 -0.78541,1.785253 -0.74916,1.811367 -0.70889,1.842675 -0.6686,1.868796 -0.62832,1.894872 -0.58806,1.920995 -0.49543,1.743515 -3.10133,1.639098 -3.02083,1.733079 -2.79122,1.75395 -2.55358,1.76435 -2.32,1.78009 -2.08235,1.79045 -1.8447,1.80615 -1.60707,1.8218 -1.36945,1.83226 -1.12373,1.84792 -0.87803,1.86353 -0.42291,1.2476 v -2.30724 -6.67128 -6.55117 -6.373697 -6.144044 -5.851714 -5.512412 -5.120868 -4.682391 -4.212623 -3.690608 -3.147697 -2.573465 z m 38.83953,0 h 1.57487 1.67553 1.54263 1.40972 1.27679 1.13985 1.00693 0.87401 0.74112 0.60417 0.47124 0.24569 V 190.71022 h -0.24569 -0.47124 -0.60417 -0.74112 -0.87401 -1.00693 -1.13985 -1.27679 -1.40972 -1.54263 -1.67553 -1.5628 c -0.67969,-1.59601 -1.36741,-3.93732 -2.03801,-7.16195 -0.34623,-1.6652 -0.68729,-3.54294 -1.01498,-5.60114 -0.32515,-2.04735 -0.63743,-4.28031 -0.93445,-6.68692 V 72.626951 c 0.59763,-4.825871 1.24541,-8.905354 1.93733,-12.22541 0.34526,-1.665529 0.70024,-3.144488 1.05527,-4.395296 0.3289,-1.154585 0.65875,-2.067819 0.98277,-2.834526 z M 23.80471,73.82232 l 0.386662,0.574218 0.986811,1.550362 0.950542,1.586913 0.91833,1.623436 0.882062,1.659975 0.849857,1.696552 0.809583,1.727832 0.77735,1.759137 0.737084,1.790499 0.696806,1.82183 0.660545,1.842679 0.624287,1.873972 0.580001,1.894893 0.523604,1.8427 v 49.747292 l -0.523604,1.84268 -0.580001,1.89491 -0.624287,1.87399 -0.660545,1.84268 -0.696806,1.8218 -0.737084,1.7905 -0.77735,1.75919 -0.809583,1.7278 -0.849857,1.69656 -0.882062,1.65996 -0.91833,1.62344 -0.950542,1.58689 -0.986811,1.54515 -0.386662,0.5742 z m 342.38661,0 v 96.23204 l -0.38667,-0.5742 -0.98277,-1.54515 -0.95457,-1.58689 -0.91429,-1.62344 -0.88611,-1.65996 -0.84585,-1.69656 -0.8136,-1.7278 -0.77332,-1.75919 -0.73707,-1.7905 -0.70083,-1.8218 -0.66054,-1.84268 -0.62431,-1.87399 -0.57999,-1.89491 -0.52361,-1.85312 V 97.077753 l 0.52361,-1.853135 0.57999,-1.894893 0.62431,-1.873972 0.66054,-1.842679 0.70083,-1.82183 0.73707,-1.790499 0.77332,-1.759137 0.8136,-1.727832 0.84585,-1.696552 0.88611,-1.659975 0.91429,-1.623436 0.95457,-1.586913 0.98277,-1.550362 z m -331.282104,23.860986 2.742889,1.451194 3.000681,1.72259 2.767044,1.73304 2.525401,1.74875 2.291793,1.75392 2.05012,1.76443 1.808457,1.76958 1.562776,1.76961 1.321092,1.77483 1.075412,1.76959 0.82972,1.75916 0.592065,1.75395 0.354439,1.74874 0.11672,1.72263 v 0.0162 0.0162 l -0.11672,1.72262 -0.354439,1.74872 -0.592065,1.75396 -0.82972,1.75913 -1.075412,1.76964 -1.321092,1.76961 -1.562776,1.77481 -1.808457,1.76959 -2.05012,1.7644 -2.291793,1.75396 -2.525401,1.74869 -2.767044,1.73309 -3.000681,1.7226 -2.742889,1.45119 z m 320.177614,0 v 48.515334 l -2.73887,-1.4512 -3.00471,-1.72259 -2.76301,-1.73307 -2.52944,-1.74871 -2.2918,-1.75394 -2.05013,-1.76443 -1.80443,-1.76958 -1.56678,-1.77481 -1.3211,-1.76962 -1.07541,-1.76958 -0.82971,-1.75917 -0.59206,-1.75394 -0.35447,-1.74875 -0.1128,-1.73828 0.1128,-1.73828 0.35447,-1.74874 0.59206,-1.75395 0.82971,-1.75916 1.07541,-1.76959 1.3211,-1.77483 1.56678,-1.76961 1.80443,-1.76958 2.05013,-1.76443 2.2918,-1.75392 2.52944,-1.74875 2.76301,-1.73304 3.00471,-1.72259 z m -23.0387,28.684294 0.42291,1.24759 0.87803,1.86357 1.12373,1.8479 1.36945,1.83224 1.60707,1.82179 1.8447,1.80616 2.08235,1.79048 2.32,1.78005 2.55358,1.76438 2.79122,1.75395 3.02083,1.73309 3.10133,1.63909 0.49543,1.74348 0.58806,1.921 0.62832,1.8949 0.6686,1.86879 0.70889,1.84268 0.74916,1.81133 0.78541,1.78529 0.82167,1.74873 0.85791,1.71741 0.89415,1.68085 0.93041,1.64955 0.96665,1.60776 0.99485,1.56603 0.96264,1.42509 c 0.29436,2.37563 0.60388,4.59358 0.92639,6.62427 0.33015,2.07349 0.67226,3.97145 1.02304,5.65859 0.63692,3.06252 1.29314,5.22157 1.9736,6.91658 h -38.09038 v -1.5034 -2.57347 -3.14772 -3.6906 -4.2126 -4.6824 -5.12613 -5.50717 -5.85169 -6.14404 -6.37369 -6.55121 -6.67124 z m -274.100222,0.005 v 2.30205 6.67124 6.55121 6.37371 6.14403 5.85169 5.50717 5.12613 4.68239 4.21259 3.69062 3.14772 2.57347 1.5034 H 19.857524 c 0.680467,-1.695 1.336695,-3.85405 1.973592,-6.91659 0.350806,-1.68712 0.696931,-3.58509 1.02708,-5.65858 0.322486,-2.03067 0.628003,-4.24864 0.922369,-6.6243 l 0.962603,-1.42506 0.998906,-1.56603 0.962615,-1.60776 0.930413,-1.64955 0.894166,-1.68086 0.857914,-1.71741 0.821645,-1.74872 0.785405,-1.78528 0.749166,-1.81135 0.708889,-1.84267 0.668602,-1.86879 0.628334,-1.8949 0.592075,-1.921 0.491382,-1.74349 3.101375,-1.63908 3.0208,-1.73309 2.79124,-1.75395 2.553586,-1.76439 2.319987,-1.78005 2.08637,-1.79046 1.844706,-1.80617 1.60705,-1.82181 1.365418,-1.83222 1.123753,-1.84793 0.882062,-1.86354 z" /><path
         style="color:#000000;fill:#c8c8c8;fill-opacity:1;stroke:#000000;stroke-width:1;stroke-dasharray:none;stroke-opacity:1"
         d="m 194.81877,121.93997 v 0.002 h 0.36252 v -0.002 z"
         id="path23501" /><path
         style="color:#000000;fill:#c8c8c8;fill-opacity:1;stroke:#000000;stroke-width:1;stroke-dasharray:none;stroke-opacity:1"
         d="m 194.60307,121.93894 v 0.004 h 0.79391 v -0.004 z"
         id="path23499" /></g><g
       id="g5266"
       transform="translate(454.83879,92.451422)"
       style="fill:#c8c8c8;fill-opacity:1"><path
         style="color:#000000;fill:#c8c8c8;fill-opacity:1;fill-rule:evenodd;stroke:#000000;stroke-opacity:1;-inkscape-stroke:none"
         d="m -219.71046,-25.21806 85.52148,4.48242 0.0176,0.0254 0.041,0.0586 0.0508,0.0723 0.0605,0.0859 0.0684,0.0996 0.0781,0.11133 0.0879,0.125 0.0957,0.13672 0.10547,0.15039 0.11523,0.16406 0.12305,0.17578 c 4.77886,6.824654 9.79493,13.9901147 15.05078,21.4960957 1.88136,2.687369 3.31626,4.7343 4.28321,6.115235 0.002,0.0034 0.007,0.01223 0.01,0.01563 0.37397,0.533573 0.61317,0.874018 0.84375,1.203125 0.16357,0.23365 0.57814,0.8267553 0.58594,0.8378903 2.1e-4,3.07e-4 0.0155,0.0233 0.0156,0.02344 2e-5,2.6e-5 0.004,0.0039 0.004,0.0039 3.5e-4,5.1e-4 -3.5e-4,0.0014 0,0.002 0,0 0.002,0.002 0.002,0.002 0.59056,0.855903 0.95517,1.874802 1.03125,2.910157 0.85042,11.989894 1.60826,23.985399 2.22266,35.98828 l -1.98047,0.05859 c -2.7e-4,-0.0023 2.7e-4,-0.0035 0,-0.0059 l -0.0605,0.0078 -0.0859,0.002 v 0.0078 l -0.26368,0.03125 c 0.075,0.64045 0.15473,1.174076 0.23633,1.585938 0.0791,0.39909 0.15185,0.664409 0.25391,0.851562 l -0.01,0.0098 0.0176,0.01758 v 0.404297 c 1.45102,5e-4 2.54446,-2.5e-4 3.27539,0 0.34035,1.16e-4 0.58502,0.002 0.76758,0.002 0.60595,12.37191 1.05401,24.749293 1.3418,37.132813 h -0.91016 -2.05469 -0.002 -0.004 v 0.413907 h 0.004 0.002 1.47657 c 0.27308,11.88566 0.40218,23.77449 0.38867,35.66406 h -0.0605 v 0.41211 h 0.25391 v 0.002 l 1.30664,0.0684 c -0.0101,6.57463 -0.0625,13.14869 -0.15821,19.72266 l 0.20508,0.002 -0.0117,0.20703 0.80274,0.043 c -0.6044,41.08072 -2.88994,82.12561 -6.33203,123.06445 -1.58094,18.82767 -3.39275,37.63657 -5.27735,56.4375 l -0.82226,0.043 h -0.01 l -1.24414,-0.002 c -0.002,-0.005 -0.002,-0.004 -0.004,-0.01 v -0.004 c -0.0211,-0.0965 -0.0412,-0.26499 -0.0508,-0.46875 l -0.41211,0.0195 c 0.0104,0.22057 0.0299,0.40309 0.0606,0.54102 v 0.002 c 0.0161,0.0693 0.0325,0.1288 0.0684,0.18945 0.0358,0.0606 0.12022,0.14454 0.23633,0.14453 v -0.4121 c 9.9e-4,0 9.7e-4,-2e-5 0.002,0 v 0.4121 h 1.12695 c -0.85764,8.52976 -1.72256,17.05943 -2.5957,25.5879 h -1.35156 -4.62891 -23.875 -1.64062 -2.33594 -14.79492 -16.25781 -17.25391 -17.75195 -8.90039 -8.85743 -17.24804 -16.25586 -7.61914 -7.17774 -2.33789 -1.64062 -23.87305 -4.63086 -1.34961 c -0.87494,-8.54606 -1.74218,-17.09327 -2.60156,-25.64063 h 0.11133 v -0.41406 l -1.15625,0.002 c -0.5346,-5.32797 -1.06309,-10.65543 -1.58203,-15.98437 -2.66685,-27.21434 -5.01616,-54.46117 -6.75196,-81.75 -1.73855,-27.22154 -2.86398,-54.48498 -3.27343,-81.75781 l 0.79101,-0.043 h 0.01 0.23828 v -0.41211 h -0.0469 c -0.0938,-6.50302 -0.14427,-13.0061 -0.15429,-19.50977 l 1.38281,0.002 v -0.28515 h 0.11523 c -0.0153,-11.95927 0.11594,-23.91775 0.39063,-35.873048 h 0.11914 v -0.413935 h -0.70117 -0.90821 c 0.28932,-12.449292 0.73875,-24.892521 1.34961,-37.330079 0.02,9e-6 0.0294,-4e-6 0.0527,0 0.1656,3.2e-5 0.41236,1.25e-4 0.74218,0 0.65965,-2.5e-4 1.64755,5e-4 2.95704,0 v -0.138671 l 0.0352,0.02539 0.0371,0.09766 c 0.0206,-0.0078 0.0314,-0.02282 0.0488,-0.0332 l 0.006,0.0039 c 0.002,-0.0025 0.002,-0.0091 0.004,-0.01172 0.007,-0.0044 0.0131,-0.009 0.0195,-0.01367 l 0.002,0.002 0.008,-0.0078 c 0.0205,-0.0159 0.0473,-0.02692 0.0645,-0.04492 l -0.0117,-0.01172 0.0898,-0.09375 -0.0781,-0.07422 c 0.0645,-0.144461 0.13164,-0.266664 0.18945,-0.49414 0.0877,-0.345193 0.17381,-0.789095 0.2539,-1.322266 l -0.36914,-0.05664 c 0.23109,-1.13e-4 0.13909,1.62e-4 0.41407,0 v -0.002 -0.412109 -0.002 h -2.33203 c 0.61602,-12.064848 1.37957,-24.12211 2.23437,-36.173827 0.0761,-1.036191 0.4418,-2.055781 1.0332,-2.91211 2.6e-4,-3.65e-4 -2.7e-4,-0.0016 0,-0.002 l 0.002,-0.002 c 5.3e-4,-7.63e-4 10e-4,-0.001 0.002,-0.002 0.003,-0.0049 0.008,-0.0132 0.0156,-0.02344 0.0143,-0.02048 0.0368,-0.05137 0.0664,-0.09375 0.0593,-0.08476 0.14855,-0.2137413 0.26953,-0.3867183 0.0559,-0.07968 0.18156,-0.259737 0.25,-0.357422 0.23058,-0.329107 0.46979,-0.669552 0.84375,-1.203125 0.002,-0.0034 0.007,-0.01222 0.01,-0.01563 0.96694,-1.380935 2.40184,-3.427866 4.2832,-6.115235 5.25586,-7.505981 10.27193,-14.6714417 15.05078,-21.4960947 l 0.12305,-0.17578 0.11328,-0.16406 0.10547,-0.15039 0.0977,-0.13672 0.0859,-0.125 0.0781,-0.11133 0.0703,-0.0996 0.0606,-0.0859 0.0508,-0.0723 0.041,-0.0586 0.0176,-0.0254 z"
         id="path4514" /><g
         id="g4505"
         transform="translate(-483.12853,-58.154851)"
         style="fill:#c8c8c8;fill-opacity:1"><g
           id="g4352"
           style="fill:#c8c8c8;fill-opacity:1"><path
             d="m 155.02035,71.218157 c 0.079,-1.074999 0.457,-2.129997 1.07,-3.016996"
             id="path655"
             style="fill:#c8c8c8;fill-opacity:1;stroke:#000000;stroke-width:0.699999;stroke-linecap:butt;stroke-linejoin:miter" /><path
             d="m 152.77235,107.61311 c 0.618,-12.138987 1.388,-24.26997 2.248,-36.394953"
             id="path657"
             style="fill:#c8c8c8;fill-opacity:1;stroke:#000000;stroke-width:0.699999;stroke-linecap:butt;stroke-linejoin:miter" /><path
             d="m 149.29636,147.53405 q 0.436,-18.88097 1.365,-37.74395"
             id="path659"
             style="fill:#c8c8c8;fill-opacity:1;stroke:#000000;stroke-width:0.699999;stroke-linecap:butt;stroke-linejoin:miter" /><path
             d="m 148.90336,183.692 q 0.014,9.96099 0.159,19.92097"
             id="path661"
             style="fill:#c8c8c8;fill-opacity:1;stroke:#000000;stroke-width:0.699999;stroke-linecap:butt;stroke-linejoin:miter" /><path
             d="m 163.34134,409.61269 q -1.331,-12.99898 -2.638,-25.99996"
             id="path663"
             style="fill:#c8c8c8;fill-opacity:1;stroke:#000000;stroke-width:0.699999;stroke-linecap:butt;stroke-linejoin:miter" /><path
             id="6"
             d="m 153.57135,243.55892 0.008,0.001"
             style="fill:#c8c8c8;fill-opacity:1;stroke:#000000;stroke-width:0.699999;stroke-linecap:butt;stroke-linejoin:miter" /><path
             d="m 148.06236,203.66497 c 0.407,27.34297 1.535,54.67593 3.27799,81.96689 1.736,27.29196 4.087,54.54093 6.754,81.75689 0.52499,5.39099 1.05799,10.78098 1.59899,16.17098"
             id="path667"
             style="fill:#c8c8c8;fill-opacity:1;stroke:#000000;stroke-width:0.699999;stroke-linecap:butt;stroke-linejoin:miter" /><path
             d="m 149.06436,203.61197 a 8600.3281,8600.3281 0 0 0 -1.001,0.053"
             id="path669"
             style="fill:#c8c8c8;fill-opacity:1;stroke:#000000;stroke-width:0.699999;stroke-linecap:butt;stroke-linejoin:miter" /><path
             d="m 159.69434,383.55973 a 3697.1149,3697.1149 0 0 0 1.01,0.053"
             id="path671"
             style="fill:#c8c8c8;fill-opacity:1;stroke:#000000;stroke-width:0.699999;stroke-linecap:butt;stroke-linejoin:miter" /><path
             d="m 150.40336,183.613 q -0.023,-18.00297 0.392,-35.99995"
             id="path673"
             style="fill:#c8c8c8;fill-opacity:1;stroke:#000000;stroke-width:0.699999;stroke-linecap:butt;stroke-linejoin:miter" /><path
             d="m 150.40336,183.613 a 8515.9682,8515.9682 0 0 0 -1.497,0.078"
             id="path675"
             style="fill:#c8c8c8;fill-opacity:1;stroke:#000000;stroke-width:0.699999;stroke-linecap:butt;stroke-linejoin:miter" /><path
             d="m 149.30036,147.53405 a 8101.5988,8101.5988 0 0 0 1.495,0.079"
             id="path677"
             style="fill:#c8c8c8;fill-opacity:1;stroke:#000000;stroke-width:0.699999;stroke-linecap:butt;stroke-linejoin:miter" /><path
             d="m 371.81605,71.218157 c -0.079,-1.074999 -0.457,-2.129997 -1.07,-3.016996"
             id="path679"
             style="fill:#c8c8c8;fill-opacity:1;stroke:#000000;stroke-width:0.699999;stroke-linecap:butt;stroke-linejoin:miter" /><path
             d="m 374.06405,107.61311 c -0.618,-12.138987 -1.388,-24.26997 -2.248,-36.394953"
             id="path681"
             style="fill:#c8c8c8;fill-opacity:1;stroke:#000000;stroke-width:0.699999;stroke-linecap:butt;stroke-linejoin:miter" /><path
             d="m 377.93304,183.692 q -0.014,9.96099 -0.159,19.92097"
             id="path683"
             style="fill:#c8c8c8;fill-opacity:1;stroke:#000000;stroke-width:0.699999;stroke-linecap:butt;stroke-linejoin:miter" /><path
             d="m 377.54004,147.53405 q -0.436,-18.88097 -1.365,-37.74395"
             id="path685"
             style="fill:#c8c8c8;fill-opacity:1;stroke:#000000;stroke-width:0.699999;stroke-linecap:butt;stroke-linejoin:miter" /><path
             d="m 363.49506,409.61269 q 1.331,-12.99898 2.638,-25.99996"
             id="path687"
             style="fill:#c8c8c8;fill-opacity:1;stroke:#000000;stroke-width:0.699999;stroke-linecap:butt;stroke-linejoin:miter" /><path
             id="19"
             d="m 373.26505,243.55892 -0.008,0.001"
             style="fill:#c8c8c8;fill-opacity:1;stroke:#000000;stroke-width:0.699999;stroke-linecap:butt;stroke-linejoin:miter" /><path
             d="m 367.14306,383.55973 c 1.89099,-18.85998 3.70699,-37.72795 5.29299,-56.61593 3.44799,-41.00894 5.73799,-82.12588 6.33799,-123.27883"
             id="path691"
             style="fill:#c8c8c8;fill-opacity:1;stroke:#000000;stroke-width:0.699999;stroke-linecap:butt;stroke-linejoin:miter" /><path
             d="m 378.77304,203.66497 a 8600.3281,8600.3281 0 0 0 -1.001,-0.053"
             id="path693"
             style="fill:#c8c8c8;fill-opacity:1;stroke:#000000;stroke-width:0.699999;stroke-linecap:butt;stroke-linejoin:miter" /><path
             d="m 366.13206,383.61273 a 3697.1149,3697.1149 0 0 0 1.01,-0.053"
             id="path695"
             style="fill:#c8c8c8;fill-opacity:1;stroke:#000000;stroke-width:0.699999;stroke-linecap:butt;stroke-linejoin:miter" /><path
             d="m 376.43304,183.613 q 0.023,-18.00297 -0.392,-35.99995"
             id="path697"
             style="fill:#c8c8c8;fill-opacity:1;stroke:#000000;stroke-width:0.699999;stroke-linecap:butt;stroke-linejoin:miter" /><path
             d="m 377.93004,183.691 a 8515.9682,8515.9682 0 0 0 -1.501,-0.079"
             id="path699"
             style="fill:#c8c8c8;fill-opacity:1;stroke:#000000;stroke-width:0.699999;stroke-linecap:butt;stroke-linejoin:miter" /><path
             d="m 376.04104,147.61305 a 8101.5988,8101.5988 0 0 0 1.495,-0.079"
             id="path701"
             style="fill:#c8c8c8;fill-opacity:1;stroke:#000000;stroke-width:0.699999;stroke-linecap:butt;stroke-linejoin:miter" /><path
             d="m 178.24442,40.866199 c -0.2802,-0.981999 -0.7335,-1.783998 -1.36,-2.361997"
             id="path705"
             style="fill:#c8c8c8;fill-opacity:1;stroke:#000000;stroke-width:0.699999;stroke-linecap:butt;stroke-linejoin:miter" /><path
             d="m 150.66336,109.7901 c 0,0.001 1.32899,0 3.94799,-10e-4"
             id="path707"
             style="fill:#c8c8c8;fill-opacity:1;stroke:#000000;stroke-width:0.699999;stroke-linecap:butt;stroke-linejoin:miter" /><path
             d="m 154.61435,109.7861 0.15,-0.158"
             id="path709"
             style="fill:#c8c8c8;fill-opacity:1;stroke:#000000;stroke-width:0.699999;stroke-linecap:butt;stroke-linejoin:miter" /><path
             d="m 155.32535,107.61511 c -1.703,0.001 -2.566,0.001 -2.566,0.001"
             id="path711"
             style="fill:#c8c8c8;fill-opacity:1;stroke:#000000;stroke-width:0.699999;stroke-linecap:butt;stroke-linejoin:miter" /><path
             d="m 154.61035,109.7881 q 0.037,-0.014 0.076,-0.055"
             id="path713"
             style="fill:#c8c8c8;fill-opacity:1;stroke:#000000;stroke-width:0.699999;stroke-linecap:butt;stroke-linejoin:miter" /><path
             d="m 154.68635,109.7331 c 0.172,-0.179 0.359,-0.739 0.525,-1.58499"
             id="path715"
             style="fill:#c8c8c8;fill-opacity:1;stroke:#000000;stroke-width:0.699999;stroke-linecap:butt;stroke-linejoin:miter" /><path
             d="m 155.21135,108.14811 q 0.672,-3.158 1.424,-6.334"
             id="path717"
             style="fill:#c8c8c8;fill-opacity:1;stroke:#000000;stroke-width:0.699999;stroke-linecap:butt;stroke-linejoin:miter" /><path
             d="m 156.63535,101.81411 c 0.2,-0.92699 0.362,-2.160993 0.445,-3.442991"
             id="path719"
             style="fill:#c8c8c8;fill-opacity:1;stroke:#000000;stroke-width:0.699999;stroke-linecap:butt;stroke-linejoin:miter" /><path
             d="m 159.12734,70.264158 q 1.037,-2.765996 2.068,-5.531992"
             id="path721"
             style="fill:#c8c8c8;fill-opacity:1;stroke:#000000;stroke-width:0.699999;stroke-linecap:butt;stroke-linejoin:miter" /><path
             d="m 157.07935,98.370119 q 0.938,-13.401981 2.04799,-28.105961"
             id="path723"
             style="fill:#c8c8c8;fill-opacity:1;stroke:#000000;stroke-width:0.699999;stroke-linecap:butt;stroke-linejoin:miter" /><path
             d="m 160.92234,62.894168 c -0.03,-0.208999 -0.035,-0.425999 -0.014,-0.648999 0.011,-0.113 0.027,-0.225 0.049,-0.336999 0.021,-0.108 0.05,-0.221 0.086,-0.341 0.074,-0.249 0.19,-0.538999 0.323,-0.796999 0.133,-0.261999 0.284,-0.508999 0.466,-0.769999"
             id="path725"
             style="fill:#c8c8c8;fill-opacity:1;stroke:#000000;stroke-width:0.699999;stroke-linecap:butt;stroke-linejoin:miter" /><path
             d="m 161.83234,60.000172 c -1.887,2.695996 -3.323,4.746994 -4.28199,6.114992 -0.96,1.371998 -1.453,2.075997 -1.46,2.085997 -0.004,0.006 0.114,-0.163 0.356,-0.508999 0.244,-0.348 0.608,-0.867999 1.093,-1.559998 0.96699,-1.380998 2.40699,-3.437996 4.29299,-6.131992"
             id="path727"
             style="fill:#c8c8c8;fill-opacity:1;stroke:#000000;stroke-width:0.699999;stroke-linecap:butt;stroke-linejoin:miter" /><path
             d="m 161.20334,64.724166 -0.002,0.028"
             id="path733"
             style="fill:#c8c8c8;fill-opacity:1;stroke:#000000;stroke-width:0.699999;stroke-linecap:butt;stroke-linejoin:miter" /><path
             d="m 155.32535,107.61311 q -2.554,0 -2.553,0"
             id="path735"
             style="fill:#c8c8c8;fill-opacity:1;stroke:#000000;stroke-width:0.699999;stroke-linecap:butt;stroke-linejoin:miter" /><path
             d="m 161.20334,64.725166 q -0.145,-0.908999 -0.281,-1.830998"
             id="path737"
             style="fill:#c8c8c8;fill-opacity:1;stroke:#000000;stroke-width:0.699999;stroke-linecap:butt;stroke-linejoin:miter" /><path
             d="m 161.83234,60.000172 q 7.88379,-11.258984 15.05208,-21.49597"
             id="path739"
             style="fill:#c8c8c8;fill-opacity:1;stroke:#000000;stroke-width:0.699999;stroke-linecap:butt;stroke-linejoin:miter" /><path
             d="m 177.78482,37.218204 -0.005,0.007 -0.0139,0.02 -0.0232,0.033 -0.0324,0.046 -0.0417,0.059 -0.0509,0.073 -0.06,0.086 -0.0692,0.099 -0.0783,0.111 -0.0873,0.125 -0.0964,0.138 -0.1053,0.149999 -0.1142,0.163 -0.123,0.176"
             id="path741"
             style="fill:#c8c8c8;fill-opacity:1;stroke:#000000;stroke-width:0.699999;stroke-linecap:butt;stroke-linejoin:miter" /><path
             id="path743"
             d="M 177.78482,37.218204 263.4182,32.73021"
             style="fill:#c8c8c8;fill-opacity:1;stroke:#000000;stroke-width:0.699999;stroke-linecap:butt;stroke-linejoin:miter" /><path
             d="m 176.88442,38.504202 c 0.6264,0.578999 1.0798,1.379998 1.3599,2.361997"
             id="path745"
             style="fill:#c8c8c8;fill-opacity:1;stroke:#000000;stroke-width:0.699999;stroke-linecap:butt;stroke-linejoin:miter" /><path
             d="m 182.47511,55.712178 q -2.1128,-7.42399 -4.23079,-14.845979"
             id="path747"
             style="fill:#c8c8c8;fill-opacity:1;stroke:#000000;stroke-width:0.699999;stroke-linecap:butt;stroke-linejoin:miter" /><path
             d="m 159.12834,70.264158 q 0.701,4.152994 1.622,8.070989"
             id="path751"
             style="fill:#c8c8c8;fill-opacity:1;stroke:#000000;stroke-width:0.699999;stroke-linecap:butt;stroke-linejoin:miter" /><path
             d="m 160.74934,78.335147 c 0.107,0.454999 0.195,0.974999 0.265,1.559998 0.034,0.294999 0.065,0.605999 0.091,0.934998 0.013,0.162 0.025,0.332 0.037,0.508 0.011,0.176 0.021,0.361999 0.029,0.533999 0.009,0.172 0.015,0.328 0.021,0.493999 0.006,0.166 0.011,0.339 0.015,0.517 0.008,0.352999 0.012,0.718999 0.013,1.098998 0.001,0.761999 -0.013,1.577998 -0.042,2.450997"
             id="path753"
             style="fill:#c8c8c8;fill-opacity:1;stroke:#000000;stroke-width:0.699999;stroke-linecap:butt;stroke-linejoin:miter" /><path
             d="m 182.47511,55.712178 c 0.121,0.424 0.301,0.840999 0.5401,1.252998 0.1185,0.204 0.2533,0.409 0.4044,0.614 0.1517,0.204999 0.3218,0.412999 0.4939,0.605999 0.17,0.189999 0.3485,0.373999 0.5356,0.549999 0.1898,0.18 0.3929,0.358999 0.6095,0.536999 0.4315,0.354 0.9118,0.698999 1.4408,1.032999"
             id="path757"
             style="fill:#c8c8c8;fill-opacity:1;stroke:#000000;stroke-width:0.699999;stroke-linecap:butt;stroke-linejoin:miter" /><path
             d="m 191.4582,63.401168 q -2.4997,-1.537998 -4.95879,-3.095996"
             id="path760"
             style="fill:#c8c8c8;fill-opacity:1;stroke:#000000;stroke-width:0.699999;stroke-linecap:butt;stroke-linejoin:miter" /><path
             d="m 191.4582,63.401168 q 2.1769,8.378988 3.48879,13.406981"
             id="path762"
             style="fill:#c8c8c8;fill-opacity:1;stroke:#000000;stroke-width:0.699999;stroke-linecap:butt;stroke-linejoin:miter" /><path
             d="m 194.94699,76.808149 c 22.77047,-0.176 45.62944,-0.993999 68.47121,-2.447997"
             id="path764"
             style="fill:#c8c8c8;fill-opacity:1;stroke:#000000;stroke-width:0.699999;stroke-linecap:butt;stroke-linejoin:miter" /><path
             d="m 191.4439,211.42796 c 0.3394,35.73495 1.2338,71.4769 1.9744,107.18486 0.6178,29.78695 1.1285,59.54991 1.63639,89.31287"
             id="path768"
             style="fill:#c8c8c8;fill-opacity:1;stroke:#000000;stroke-width:0.699999;stroke-linecap:butt;stroke-linejoin:miter" /><path
             d="m 191.4439,211.42796 q -0.0434,-1.40399 -0.0255,-2.80699"
             id="path770"
             style="fill:#c8c8c8;fill-opacity:1;stroke:#000000;stroke-width:0.699999;stroke-linecap:butt;stroke-linejoin:miter" /><path
             d="m 191.4582,63.401168 c 0.007,15.069979 -0.007,30.140958 -0.0399,45.211942 -0.0788,33.33095 -0.2891,66.6659 1e-4,100.00786"
             id="path772"
             style="fill:#c8c8c8;fill-opacity:1;stroke:#000000;stroke-width:0.699999;stroke-linecap:butt;stroke-linejoin:miter" /><path
             d="m 161.17834,86.433136 c -0.428,12.744982 -0.879,25.490964 -1.317,38.236944 -0.434,12.74599 -0.84,25.49297 -1.124,38.23995 -0.284,12.74798 -0.44699,25.49597 -0.38,38.24495 0.066,12.74998 0.362,25.49996 0.86,38.24994 0.998,25.49997 2.795,50.99793 4.9666,76.4779 2.17369,25.48096 4.73079,50.94293 7.35959,76.40289"
             id="path774"
             style="fill:#c8c8c8;fill-opacity:1;stroke:#000000;stroke-width:0.699999;stroke-linecap:butt;stroke-linejoin:miter" /><path
             d="m 195.02269,409.61269 q 0.0471,-0.765 0.032,-1.687"
             id="path778"
             style="fill:#c8c8c8;fill-opacity:1;stroke:#000000;stroke-width:0.699999;stroke-linecap:butt;stroke-linejoin:miter" /><path
             d="m 193.382,409.61269 q 0.7422,0 1.64069,0"
             id="path780"
             style="fill:#c8c8c8;fill-opacity:1;stroke:#000000;stroke-width:0.699999;stroke-linecap:butt;stroke-linejoin:miter" /><path
             d="m 171.54353,392.28571 q 0.005,0.046 5e-4,0.075"
             id="path784"
             style="fill:#c8c8c8;fill-opacity:1;stroke:#000000;stroke-width:0.699999;stroke-linecap:butt;stroke-linejoin:miter" /><path
             d="m 171.54403,392.36071 q -1.2232,8.98199 -2.0365,17.25198"
             id="path786"
             style="fill:#c8c8c8;fill-opacity:1;stroke:#000000;stroke-width:0.699999;stroke-linecap:butt;stroke-linejoin:miter" /><path
             id="43"
             d="M 193.382,409.61269 H 169.50753"
             style="fill:#c8c8c8;fill-opacity:1;stroke:#000000;stroke-width:0.699999;stroke-linecap:butt;stroke-linejoin:miter" /><path
             d="m 195.02269,409.61269 h 2.3368"
             id="path791"
             style="fill:#c8c8c8;fill-opacity:1;stroke:#000000;stroke-width:0.699999;stroke-linecap:butt;stroke-linejoin:miter" /><path
             d="m 263.4182,409.61269 c -2.973,0 -5.93977,0 -8.90033,0 -2.96485,0 -5.91705,0 -8.85645,0 -5.87429,0 -11.64938,0 -17.24877,0 -5.59899,0 -11.04209,0 -16.25588,0 -2.6086,0 -5.14849,0 -7.61959,0 -2.4672,0 -4.85979,0 -7.17769,0"
             id="path797"
             style="fill:#c8c8c8;fill-opacity:1;stroke:#000000;stroke-width:0.699999;stroke-linecap:butt;stroke-linejoin:miter" /><path
             d="m 152.47735,147.53405 q -3.17699,0 -3.17699,0"
             id="path821"
             style="fill:#c8c8c8;fill-opacity:1;stroke:#000000;stroke-width:0.699999;stroke-linecap:butt;stroke-linejoin:miter" /><path
             d="m 149.30036,147.53405 q 0,0 1.119,0"
             id="path823"
             style="fill:#c8c8c8;fill-opacity:1;stroke:#000000;stroke-width:0.699999;stroke-linecap:butt;stroke-linejoin:miter" /><path
             d="m 152.77935,150.61205 c 0.011,-0.392 0.012,-0.789 0.002,-1.164 -0.004,-0.188 -0.011,-0.367 -0.021,-0.538 -0.005,-0.084 -0.01,-0.166 -0.016,-0.247 -0.007,-0.085 -0.014,-0.162 -0.02,-0.23 -0.006,-0.063 -0.013,-0.118 -0.019,-0.167 -0.007,-0.053 -0.015,-0.107 -0.022,-0.161 -0.016,-0.106 -0.034,-0.202 -0.054,-0.286 -0.041,-0.166 -0.091,-0.282 -0.15,-0.285"
             id="path825"
             style="fill:#c8c8c8;fill-opacity:1;stroke:#000000;stroke-width:0.699999;stroke-linecap:butt;stroke-linejoin:miter" /><path
             d="m 152.47935,147.53405 h -0.002"
             id="path827"
             style="fill:#c8c8c8;fill-opacity:1;stroke:#000000;stroke-width:0.699999;stroke-linecap:butt;stroke-linejoin:miter" /><path
             d="m 152.30835,180.61401 q 0.058,-14.74998 0.471,-30.00196"
             id="path829"
             style="fill:#c8c8c8;fill-opacity:1;stroke:#000000;stroke-width:0.699999;stroke-linecap:butt;stroke-linejoin:miter" /><path
             d="m 151.92935,183.692 h 0.002"
             id="path831"
             style="fill:#c8c8c8;fill-opacity:1;stroke:#000000;stroke-width:0.699999;stroke-linecap:butt;stroke-linejoin:miter" /><path
             d="m 151.93135,183.692 c 0.065,-0.004 0.118,-0.153 0.161,-0.332 0.022,-0.093 0.041,-0.188 0.057,-0.286 0.008,-0.048 0.015,-0.096 0.023,-0.144 0.003,-0.025 0.006,-0.048 0.009,-0.069 0.003,-0.017 0.005,-0.039 0.009,-0.066 0.004,-0.033 0.009,-0.072 0.014,-0.117 0.004,-0.04 0.008,-0.081 0.013,-0.121 0.008,-0.081 0.015,-0.166 0.023,-0.254 0.014,-0.177 0.026,-0.358 0.036,-0.546 0.02,-0.374 0.03,-0.76599 0.032,-1.14299"
             id="path833"
             style="fill:#c8c8c8;fill-opacity:1;stroke:#000000;stroke-width:0.699999;stroke-linecap:butt;stroke-linejoin:miter" /><path
             d="m 151.92935,183.692 q -3.02199,-0.001 -3.02199,-0.001"
             id="path835"
             style="fill:#c8c8c8;fill-opacity:1;stroke:#000000;stroke-width:0.699999;stroke-linecap:butt;stroke-linejoin:miter" /><path
             d="m 148.90736,183.691 q -0.001,0 3.02199,0.001"
             id="path837"
             style="fill:#c8c8c8;fill-opacity:1;stroke:#000000;stroke-width:0.699999;stroke-linecap:butt;stroke-linejoin:miter" /><path
             d="m 151.93635,183.691 -0.005,0.001"
             id="path839"
             style="fill:#c8c8c8;fill-opacity:1;stroke:#000000;stroke-width:0.699999;stroke-linecap:butt;stroke-linejoin:miter" /><path
             d="m 152.47935,147.53405 h 0.004"
             id="path841"
             style="fill:#c8c8c8;fill-opacity:1;stroke:#000000;stroke-width:0.699999;stroke-linecap:butt;stroke-linejoin:miter" /><path
             d="m 169.50753,409.61269 c -2.0487,0 -3.5924,0 -4.62929,0 -1.0253,0 -1.5379,0 -1.5369,0"
             id="path843"
             style="fill:#c8c8c8;fill-opacity:1;stroke:#000000;stroke-width:0.699999;stroke-linecap:butt;stroke-linejoin:miter" /><path
             d="m 162.74634,372.69874 c -1.209,-13.65398 -2.445,-27.36196 -3.619,-41.12894 -1.17399,-13.76698 -2.28599,-27.59396 -3.26999,-41.49095 -0.493,-6.95099 -0.95,-13.90998 -1.372,-20.87697 -0.421,-6.96399 -0.8,-13.92598 -1.138,-20.88897 -0.673,-13.92498 -1.169,-27.85396 -1.449,-41.78294"
             id="path845"
             style="fill:#c8c8c8;fill-opacity:1;stroke:#000000;stroke-width:0.699999;stroke-linecap:butt;stroke-linejoin:miter" /><path
             d="m 162.77934,374.43774 c 0.038,-0.43 0.027,-1.053 -0.033,-1.739"
             id="path847"
             style="fill:#c8c8c8;fill-opacity:1;stroke:#000000;stroke-width:0.699999;stroke-linecap:butt;stroke-linejoin:miter" /><path
             d="m 162.22034,382.93273 q 0.177,-4.133 0.559,-8.49499"
             id="path849"
             style="fill:#c8c8c8;fill-opacity:1;stroke:#000000;stroke-width:0.699999;stroke-linecap:butt;stroke-linejoin:miter" /><path
             d="m 162.06134,383.61273 c 0.042,0 0.076,-0.058 0.103,-0.174 0.026,-0.117 0.046,-0.293 0.056,-0.506"
             id="path851"
             style="fill:#c8c8c8;fill-opacity:1;stroke:#000000;stroke-width:0.699999;stroke-linecap:butt;stroke-linejoin:miter" /><path
             d="m 160.70434,383.61273 q 0,0 1.353,-10e-4"
             id="path853"
             style="fill:#c8c8c8;fill-opacity:1;stroke:#000000;stroke-width:0.699999;stroke-linecap:butt;stroke-linejoin:miter" /><path
             d="m 162.74634,372.70174 c 0.059,0.665 0.07,1.27 0.036,1.699"
             id="path855"
             style="fill:#c8c8c8;fill-opacity:1;stroke:#000000;stroke-width:0.699999;stroke-linecap:butt;stroke-linejoin:miter" /><path
             d="m 151.52535,203.61297 h 0.004"
             id="path857"
             style="fill:#c8c8c8;fill-opacity:1;stroke:#000000;stroke-width:0.699999;stroke-linecap:butt;stroke-linejoin:miter" /><path
             d="m 151.52335,203.61297 q -2.45899,0 -2.45899,0"
             id="path859"
             style="fill:#c8c8c8;fill-opacity:1;stroke:#000000;stroke-width:0.699999;stroke-linecap:butt;stroke-linejoin:miter" /><path
             d="m 149.06436,203.61297 q 0,0 0.249,0"
             id="path861"
             style="fill:#c8c8c8;fill-opacity:1;stroke:#000000;stroke-width:0.699999;stroke-linecap:butt;stroke-linejoin:miter" /><path
             d="m 151.89835,206.52897 c -0.008,-0.375 -0.024,-0.753 -0.047,-1.109 -0.011,-0.179 -0.025,-0.349 -0.039,-0.511 -0.008,-0.079 -0.015,-0.158 -0.024,-0.235 -0.009,-0.08 -0.017,-0.152 -0.026,-0.217 -0.007,-0.059 -0.014,-0.112 -0.022,-0.158 -0.008,-0.051 -0.016,-0.102 -0.024,-0.152 -0.018,-0.101 -0.037,-0.191 -0.057,-0.269 -0.04,-0.157 -0.086,-0.265 -0.134,-0.265"
             id="path863"
             style="fill:#c8c8c8;fill-opacity:1;stroke:#000000;stroke-width:0.699999;stroke-linecap:butt;stroke-linejoin:miter" /><path
             d="m 148.09136,203.66497 q -0.029,0 -0.028,0"
             id="path907"
             style="fill:#c8c8c8;fill-opacity:1;stroke:#000000;stroke-width:0.699999;stroke-linecap:butt;stroke-linejoin:miter" /><path
             d="m 148.06336,203.66497 q 0.001,0 2.451,0"
             id="path909"
             style="fill:#c8c8c8;fill-opacity:1;stroke:#000000;stroke-width:0.699999;stroke-linecap:butt;stroke-linejoin:miter" /><path
             d="m 161.03734,383.55873 q -1.344,10e-4 -1.343,10e-4"
             id="path911"
             style="fill:#c8c8c8;fill-opacity:1;stroke:#000000;stroke-width:0.699999;stroke-linecap:butt;stroke-linejoin:miter" /><path
             d="m 152.01035,183.613 q -1.60299,0 -1.60299,0"
             id="path927"
             style="fill:#c8c8c8;fill-opacity:1;stroke:#000000;stroke-width:0.699999;stroke-linecap:butt;stroke-linejoin:miter" /><path
             d="m 150.79936,147.61305 q -0.001,0 1.75999,0"
             id="path929"
             style="fill:#c8c8c8;fill-opacity:1;stroke:#000000;stroke-width:0.699999;stroke-linecap:butt;stroke-linejoin:miter" /><path
             id="115"
             d="M 349.05158,37.218204 263.4182,32.73021"
             style="fill:#c8c8c8;fill-opacity:1;stroke:#000000;stroke-width:0.699999;stroke-linecap:butt;stroke-linejoin:miter" /><path
             d="m 349.95198,38.504202 q 7.16829,10.236986 15.05208,21.49597"
             id="path932"
             style="fill:#c8c8c8;fill-opacity:1;stroke:#000000;stroke-width:0.699999;stroke-linecap:butt;stroke-linejoin:miter" /><path
             d="m 365.00406,60.000172 c 1.887,2.695996 3.323,4.746994 4.28199,6.114992 0.96,1.371998 1.453,2.075997 1.46,2.085997 0.004,0.006 -0.114,-0.163 -0.356,-0.508999 -0.244,-0.348 -0.608,-0.867999 -1.093,-1.559998 -0.96699,-1.380998 -2.40699,-3.437996 -4.29299,-6.131992"
             id="path934"
             style="fill:#c8c8c8;fill-opacity:1;stroke:#000000;stroke-width:0.699999;stroke-linecap:butt;stroke-linejoin:miter" /><path
             d="m 349.05158,37.218204 0.005,0.007 0.0139,0.02 0.0232,0.033 0.0324,0.046 0.0417,0.059 0.0509,0.073 0.06,0.086 0.0692,0.099 0.0783,0.111 0.0873,0.125 0.0964,0.138 0.1053,0.149999 0.1142,0.163 0.123,0.176"
             id="path936"
             style="fill:#c8c8c8;fill-opacity:1;stroke:#000000;stroke-width:0.699999;stroke-linecap:butt;stroke-linejoin:miter" /><path
             d="m 365.00406,60.000172 c 0.182,0.26 0.333,0.509 0.466,0.769999 0.133,0.258 0.249,0.547999 0.323,0.796999 0.036,0.12 0.065,0.233 0.086,0.341 0.022,0.111999 0.038,0.223999 0.049,0.336999 0.021,0.223 0.016,0.44 -0.014,0.648999"
             id="path938"
             style="fill:#c8c8c8;fill-opacity:1;stroke:#000000;stroke-width:0.699999;stroke-linecap:butt;stroke-linejoin:miter" /><path
             d="m 365.63506,64.752166 -0.001,-0.026"
             id="path942"
             style="fill:#c8c8c8;fill-opacity:1;stroke:#000000;stroke-width:0.699999;stroke-linecap:butt;stroke-linejoin:miter" /><path
             d="m 365.91406,62.894168 q -0.136,0.921999 -0.281,1.830998"
             id="path946"
             style="fill:#c8c8c8;fill-opacity:1;stroke:#000000;stroke-width:0.699999;stroke-linecap:butt;stroke-linejoin:miter" /><path
             d="m 367.70906,70.264158 q 1.10999,14.70398 2.04799,28.105961"
             id="path948"
             style="fill:#c8c8c8;fill-opacity:1;stroke:#000000;stroke-width:0.699999;stroke-linecap:butt;stroke-linejoin:miter" /><path
             d="m 365.64106,64.732166 q 1.031,2.765996 2.068,5.531992"
             id="path950"
             style="fill:#c8c8c8;fill-opacity:1;stroke:#000000;stroke-width:0.699999;stroke-linecap:butt;stroke-linejoin:miter" /><path
             d="m 369.75605,98.371119 c 0.083,1.281998 0.245,2.516001 0.445,3.442991"
             id="path952"
             style="fill:#c8c8c8;fill-opacity:1;stroke:#000000;stroke-width:0.699999;stroke-linecap:butt;stroke-linejoin:miter" /><path
             d="m 370.20105,101.81411 q 0.752,3.176 1.424,6.334"
             id="path954"
             style="fill:#c8c8c8;fill-opacity:1;stroke:#000000;stroke-width:0.699999;stroke-linecap:butt;stroke-linejoin:miter" /><path
             d="m 371.62505,108.14811 c 0.166,0.84599 0.353,1.40599 0.525,1.58499"
             id="path956"
             style="fill:#c8c8c8;fill-opacity:1;stroke:#000000;stroke-width:0.699999;stroke-linecap:butt;stroke-linejoin:miter" /><path
             d="m 372.15005,109.7331 q 0.039,0.041 0.076,0.055"
             id="path958"
             style="fill:#c8c8c8;fill-opacity:1;stroke:#000000;stroke-width:0.699999;stroke-linecap:butt;stroke-linejoin:miter" /><path
             d="m 371.93998,109.98468 c 2.90206,0.001 4.37468,0.002 4.37468,0.001"
             id="path962"
             style="fill:#c8c8c8;fill-opacity:1;stroke:#000000;stroke-width:0.845901;stroke-linecap:butt;stroke-linejoin:miter" /><path
             d="m 372.22205,109.7861 -0.15,-0.158"
             id="path964"
             style="fill:#c8c8c8;fill-opacity:1;stroke:#000000;stroke-width:0.699999;stroke-linecap:butt;stroke-linejoin:miter" /><path
             d="m 349.95198,38.504202 c -0.6265,0.577999 -1.0798,1.379998 -1.36,2.361997"
             id="path966"
             style="fill:#c8c8c8;fill-opacity:1;stroke:#000000;stroke-width:0.699999;stroke-linecap:butt;stroke-linejoin:miter" /><path
             d="m 367.70806,70.264158 q -0.701,4.152994 -1.622,8.070989"
             id="path968"
             style="fill:#c8c8c8;fill-opacity:1;stroke:#000000;stroke-width:0.699999;stroke-linecap:butt;stroke-linejoin:miter" /><path
             d="m 348.59208,40.866199 c 0.2801,-0.981999 0.7335,-1.782998 1.3599,-2.361997"
             id="path970"
             style="fill:#c8c8c8;fill-opacity:1;stroke:#000000;stroke-width:0.699999;stroke-linecap:butt;stroke-linejoin:miter" /><path
             d="m 344.36129,55.712178 q 2.1128,-7.42399 4.23079,-14.845979"
             id="path972"
             style="fill:#c8c8c8;fill-opacity:1;stroke:#000000;stroke-width:0.699999;stroke-linecap:butt;stroke-linejoin:miter" /><path
             d="m 365.65806,86.433136 c -0.029,-0.871999 -0.043,-1.688998 -0.042,-2.450997 10e-4,-0.379999 0.005,-0.745999 0.013,-1.098998 0.004,-0.178 0.009,-0.35 0.015,-0.517 0.006,-0.164999 0.012,-0.321999 0.021,-0.493999 0.008,-0.172 0.018,-0.357999 0.029,-0.533999 0.012,-0.176 0.024,-0.346 0.037,-0.508 0.026,-0.328999 0.057,-0.639999 0.091,-0.934998 0.07,-0.584999 0.158,-1.104999 0.265,-1.559998"
             id="path976"
             style="fill:#c8c8c8;fill-opacity:1;stroke:#000000;stroke-width:0.699999;stroke-linecap:butt;stroke-linejoin:miter" /><path
             d="m 340.33699,60.305172 c 0.5289,-0.334 1.0091,-0.678999 1.4406,-1.032999 0.2165,-0.178 0.4197,-0.356999 0.6095,-0.536999 0.1872,-0.176 0.3658,-0.36 0.5358,-0.549999 0.1722,-0.193 0.3422,-0.401 0.4939,-0.605999 0.151,-0.205 0.2858,-0.41 0.4044,-0.614 0.239,-0.411999 0.4191,-0.828998 0.5401,-1.252998"
             id="path978"
             style="fill:#c8c8c8;fill-opacity:1;stroke:#000000;stroke-width:0.699999;stroke-linecap:butt;stroke-linejoin:miter" /><path
             d="m 263.4182,74.360152 c 11.41488,0.725999 22.82947,1.293999 34.24385,1.701998 11.41619,0.408999 22.83787,0.657999 34.22736,0.745999"
             id="path982"
             style="fill:#c8c8c8;fill-opacity:1;stroke:#000000;stroke-width:0.699999;stroke-linecap:butt;stroke-linejoin:miter" /><path
             d="m 331.88941,76.808149 q 1.31189,-5.027993 3.48879,-13.406981"
             id="path984"
             style="fill:#c8c8c8;fill-opacity:1;stroke:#000000;stroke-width:0.699999;stroke-linecap:butt;stroke-linejoin:miter" /><path
             d="m 335.3782,63.401168 q 2.4997,-1.537998 4.95879,-3.095996"
             id="path986"
             style="fill:#c8c8c8;fill-opacity:1;stroke:#000000;stroke-width:0.699999;stroke-linecap:butt;stroke-linejoin:miter" /><path
             d="m 363.49506,409.61269 c 10e-4,0 -0.5115,0 -1.5369,0 -1.03669,0 -2.58049,0 -4.62929,0"
             id="path988"
             style="fill:#c8c8c8;fill-opacity:1;stroke:#000000;stroke-width:0.699999;stroke-linecap:butt;stroke-linejoin:miter" /><path
             id="145"
             d="m 333.4544,409.61269 h 23.87447"
             style="fill:#c8c8c8;fill-opacity:1;stroke:#000000;stroke-width:0.699999;stroke-linecap:butt;stroke-linejoin:miter" /><path
             d="m 333.4544,409.61269 q -0.7422,0 -1.64069,0"
             id="path991"
             style="fill:#c8c8c8;fill-opacity:1;stroke:#000000;stroke-width:0.699999;stroke-linecap:butt;stroke-linejoin:miter" /><path
             d="m 331.81371,409.61269 h -2.3368"
             id="path993"
             style="fill:#c8c8c8;fill-opacity:1;stroke:#000000;stroke-width:0.699999;stroke-linecap:butt;stroke-linejoin:miter" /><path
             d="m 329.47701,409.61269 c -4.65039,0 -9.59809,0 -14.79548,0 -5.19729,0 -10.64419,0 -16.25818,0 -5.61399,0 -11.39508,0 -17.25327,0 -5.8582,0 -11.79357,0 -17.75188,0"
             id="path995"
             style="fill:#c8c8c8;fill-opacity:1;stroke:#000000;stroke-width:0.699999;stroke-linecap:butt;stroke-linejoin:miter" /><path
             d="m 355.29237,392.36071 q -0.004,-0.029 5e-4,-0.075"
             id="path997"
             style="fill:#c8c8c8;fill-opacity:1;stroke:#000000;stroke-width:0.699999;stroke-linecap:butt;stroke-linejoin:miter" /><path
             d="m 331.78171,407.92569 q -0.0151,0.922 0.032,1.687"
             id="path1001"
             style="fill:#c8c8c8;fill-opacity:1;stroke:#000000;stroke-width:0.699999;stroke-linecap:butt;stroke-linejoin:miter" /><path
             d="m 357.32887,409.61269 q -0.8133,-8.26999 -2.0365,-17.25198"
             id="path1005"
             style="fill:#c8c8c8;fill-opacity:1;stroke:#000000;stroke-width:0.699999;stroke-linecap:butt;stroke-linejoin:miter" /><path
             d="m 335.3925,211.42796 c -0.3394,35.73495 -1.2338,71.4769 -1.9744,107.18486 -0.6178,29.78695 -1.1285,59.54991 -1.63639,89.31287"
             id="path1011"
             style="fill:#c8c8c8;fill-opacity:1;stroke:#000000;stroke-width:0.699999;stroke-linecap:butt;stroke-linejoin:miter" /><path
             d="m 335.3925,211.42796 q 0.0434,-1.40399 0.0255,-2.80699"
             id="path1015"
             style="fill:#c8c8c8;fill-opacity:1;stroke:#000000;stroke-width:0.699999;stroke-linecap:butt;stroke-linejoin:miter" /><path
             d="m 335.3782,63.401168 c -0.007,15.069979 0.007,30.140958 0.0399,45.211942 0.0788,33.33095 0.2891,66.6659 -10e-5,100.00786"
             id="path1017"
             style="fill:#c8c8c8;fill-opacity:1;stroke:#000000;stroke-width:0.699999;stroke-linecap:butt;stroke-linejoin:miter" /><path
             d="m 355.29287,392.28571 c 2.6288,-25.45996 5.1859,-50.92193 7.35959,-76.40289 2.1716,-25.47997 3.9686,-50.97793 4.9666,-76.4779 0.498,-12.74998 0.794,-25.49996 0.86,-38.24994 0.067,-12.74898 -0.096,-25.49697 -0.38,-38.24495 -0.284,-12.74698 -0.69,-25.49396 -1.124,-38.23995 -0.438,-12.74598 -0.889,-25.491962 -1.317,-38.236944"
             id="path1019"
             style="fill:#c8c8c8;fill-opacity:1;stroke:#000000;stroke-width:0.699999;stroke-linecap:butt;stroke-linejoin:miter" /><path
             d="m 374.35905,147.53405 h -0.002"
             id="path1049"
             style="fill:#c8c8c8;fill-opacity:1;stroke:#000000;stroke-width:0.699999;stroke-linecap:butt;stroke-linejoin:miter" /><path
             d="m 374.35705,147.53405 c -0.059,0.003 -0.109,0.119 -0.15,0.285 -0.02,0.084 -0.038,0.18 -0.054,0.286 -0.007,0.054 -0.015,0.108 -0.022,0.161 -0.006,0.049 -0.013,0.104 -0.019,0.167 -0.006,0.068 -0.013,0.145 -0.02,0.23 -0.006,0.081 -0.011,0.163 -0.016,0.247 -0.01,0.17 -0.017,0.349 -0.021,0.538 -0.005,0.191 -0.007,0.383 -0.007,0.575 0,0.19 0.003,0.375 0.009,0.589"
             id="path1051"
             style="fill:#c8c8c8;fill-opacity:1;stroke:#000000;stroke-width:0.699999;stroke-linecap:butt;stroke-linejoin:miter" /><path
             d="m 374.05705,150.61205 q 0.413,15.25198 0.471,30.00196"
             id="path1053"
             style="fill:#c8c8c8;fill-opacity:1;stroke:#000000;stroke-width:0.699999;stroke-linecap:butt;stroke-linejoin:miter" /><path
             d="m 374.52805,180.61401 c 0.002,0.377 0.012,0.76899 0.032,1.14299 0.01,0.188 0.022,0.369 0.036,0.545 0.008,0.089 0.015,0.174 0.023,0.255 0.005,0.04 0.009,0.081 0.013,0.121 0.005,0.045 0.01,0.084 0.014,0.117 0.004,0.027 0.006,0.049 0.009,0.066 0.003,0.021 0.006,0.044 0.009,0.069 0.008,0.048 0.015,0.096 0.023,0.144 0.016,0.098 0.035,0.193 0.057,0.286 0.043,0.179 0.096,0.328 0.161,0.332"
             id="path1055"
             style="fill:#c8c8c8;fill-opacity:1;stroke:#000000;stroke-width:0.699999;stroke-linecap:butt;stroke-linejoin:miter" /><path
             d="m 374.90505,183.692 h 0.002"
             id="path1057"
             style="fill:#c8c8c8;fill-opacity:1;stroke:#000000;stroke-width:0.699999;stroke-linecap:butt;stroke-linejoin:miter" /><path
             d="m 374.90705,183.692 q 3.02199,-0.001 3.02199,-0.001"
             id="path1059"
             style="fill:#c8c8c8;fill-opacity:1;stroke:#000000;stroke-width:0.699999;stroke-linecap:butt;stroke-linejoin:miter" /><path
             d="m 377.92904,183.691 q 0.001,0 -3.02199,0.001"
             id="path1061"
             style="fill:#c8c8c8;fill-opacity:1;stroke:#000000;stroke-width:0.699999;stroke-linecap:butt;stroke-linejoin:miter" /><path
             d="m 374.35305,147.53405 h 0.004"
             id="path1063"
             style="fill:#c8c8c8;fill-opacity:1;stroke:#000000;stroke-width:0.699999;stroke-linecap:butt;stroke-linejoin:miter" /><path
             d="m 376.41504,147.53405 q 1.121,0 1.121,0"
             id="path1065"
             style="fill:#c8c8c8;fill-opacity:1;stroke:#000000;stroke-width:0.699999;stroke-linecap:butt;stroke-linejoin:miter" /><path
             d="m 377.53604,147.53405 q 10e-4,0 -3.17699,0"
             id="path1067"
             style="fill:#c8c8c8;fill-opacity:1;stroke:#000000;stroke-width:0.699999;stroke-linecap:butt;stroke-linejoin:miter" /><path
             d="m 364.09006,372.70174 c -0.061,0.684 -0.071,1.306 -0.033,1.736"
             id="path1069"
             style="fill:#c8c8c8;fill-opacity:1;stroke:#000000;stroke-width:0.699999;stroke-linecap:butt;stroke-linejoin:miter" /><path
             d="m 364.05706,374.43774 q 0.382,4.36199 0.559,8.49499"
             id="path1071"
             style="fill:#c8c8c8;fill-opacity:1;stroke:#000000;stroke-width:0.699999;stroke-linecap:butt;stroke-linejoin:miter" /><path
             d="m 364.61606,382.93273 c 0.01,0.213 0.03,0.389 0.056,0.506 0.027,0.116 0.061,0.174 0.103,0.174"
             id="path1073"
             style="fill:#c8c8c8;fill-opacity:1;stroke:#000000;stroke-width:0.699999;stroke-linecap:butt;stroke-linejoin:miter" /><path
             d="m 364.77806,383.61173 q 1.354,10e-4 1.354,10e-4"
             id="path1075"
             style="fill:#c8c8c8;fill-opacity:1;stroke:#000000;stroke-width:0.699999;stroke-linecap:butt;stroke-linejoin:miter" /><path
             d="m 364.05706,374.43774 c -0.038,-0.43 -0.027,-1.051 0.033,-1.736"
             id="path1077"
             style="fill:#c8c8c8;fill-opacity:1;stroke:#000000;stroke-width:0.699999;stroke-linecap:butt;stroke-linejoin:miter" /><path
             d="m 367.66606,332.0648 c 1.77599,-20.78597 3.40799,-41.70095 4.67799,-62.76292 0.423,-6.96999 0.803,-13.94598 1.142,-20.92897 0.673,-13.89798 1.167,-27.78196 1.449,-41.66394"
             id="path1079"
             style="fill:#c8c8c8;fill-opacity:1;stroke:#000000;stroke-width:0.699999;stroke-linecap:butt;stroke-linejoin:miter" /><path
             d="m 374.93805,206.52897 c 0.012,-0.597 0.046,-1.213 0.095,-1.714"
             id="path1081"
             style="fill:#c8c8c8;fill-opacity:1;stroke:#000000;stroke-width:0.699999;stroke-linecap:butt;stroke-linejoin:miter" /><path
             d="m 375.07705,204.42997 q 0.009,-0.072 0.019,-0.132 0.012,-0.076 0.024,-0.152 0.042,-0.243 0.094,-0.395"
             id="path1083"
             style="fill:#c8c8c8;fill-opacity:1;stroke:#000000;stroke-width:0.699999;stroke-linecap:butt;stroke-linejoin:miter" /><path
             d="m 377.77204,203.61297 q 0,0 -2.43499,0"
             id="path1085"
             style="fill:#c8c8c8;fill-opacity:1;stroke:#000000;stroke-width:0.699999;stroke-linecap:butt;stroke-linejoin:miter" /><path
             d="m 375.31105,203.61297 c -0.049,0 -0.094,0.108 -0.134,0.266 -0.021,0.079 -0.039,0.169 -0.057,0.27 -0.008,0.051 -0.017,0.101 -0.025,0.152 -0.007,0.047 -0.014,0.1 -0.022,0.159 -0.008,0.065 -0.017,0.137 -0.026,0.218 -0.008,0.077 -0.016,0.155 -0.023,0.235 -0.015,0.161 -0.028,0.332 -0.039,0.511 -0.023,0.357 -0.039,0.737 -0.047,1.115"
             id="path1087"
             style="fill:#c8c8c8;fill-opacity:1;stroke:#000000;stroke-width:0.699999;stroke-linecap:butt;stroke-linejoin:miter" /><path
             d="m 374.93805,206.53897 c -0.281,13.92898 -0.776,27.85696 -1.449,41.78194 -0.338,6.96199 -0.717,13.92498 -1.139,20.88797 -0.422,6.96599 -0.879,13.92498 -1.372,20.87597 -0.984,13.89599 -2.096,27.72297 -3.26999,41.48995 -1.174,13.76698 -2.41,27.47396 -3.618,41.12694"
             id="path1089"
             style="fill:#c8c8c8;fill-opacity:1;stroke:#000000;stroke-width:0.699999;stroke-linecap:butt;stroke-linejoin:miter" /><path
             d="m 376.32204,203.66497 q 2.452,0 2.451,0"
             id="path1135"
             style="fill:#c8c8c8;fill-opacity:1;stroke:#000000;stroke-width:0.699999;stroke-linecap:butt;stroke-linejoin:miter" /><path
             d="m 374.82605,183.613 q 1.16199,0 1.48199,0"
             id="path1149"
             style="fill:#c8c8c8;fill-opacity:1;stroke:#000000;stroke-width:0.699999;stroke-linecap:butt;stroke-linejoin:miter" /><path
             d="m 376.42904,183.613 q 0,0 -1.60299,0"
             id="path1151"
             style="fill:#c8c8c8;fill-opacity:1;stroke:#000000;stroke-width:0.699999;stroke-linecap:butt;stroke-linejoin:miter" /><path
             d="m 374.27705,147.61305 q 1.75999,0 1.75999,0"
             id="path1153"
             style="fill:#c8c8c8;fill-opacity:1;stroke:#000000;stroke-width:0.699999;stroke-linecap:butt;stroke-linejoin:miter" /><path
             style="fill:#c8c8c8;fill-opacity:1;fill-rule:evenodd;stroke:#000000;stroke-width:0.413225px;stroke-linecap:butt;stroke-linejoin:miter;stroke-opacity:1"
             d="m 371.71105,107.4909 2.41969,-0.0705"
             id="path3433"
             inkscape:connector-type="polyline"
             inkscape:connector-curvature="0" /></g></g></g></g><rect
     style="fill:#00ff00;fill-opacity:0;stroke:#00ff00;stroke-width:1;stroke-linecap:round;stroke-linejoin:bevel;stroke-dasharray:none;stroke-opacity:0;paint-order:fill markers stroke"
     id="rect3480"
     width="101.03334"
     height="28.714735"
     x="172.32014"
     y="69.159782"
     inkscape:label="pigtail" /></svg>
