<?xml version="1.0" encoding="UTF-8" standalone="no"?>
<svg
   width="390mm"
   height="243.88174mm"
   viewBox="0 0 390 243.88174"
   version="1.1"
   id="svg2"
   sodipodi:version="0.32"
   inkscape:version="1.2.1 (9c6d41e410, 2022-07-14)"
   sodipodi:docname="thumbnail.svg"
   inkscape:output_extension="org.inkscape.output.svg.inkscape"
   xml:space="preserve"
   xmlns:inkscape="http://www.inkscape.org/namespaces/inkscape"
   xmlns:sodipodi="http://sodipodi.sourceforge.net/DTD/sodipodi-0.dtd"
   xmlns:xlink="http://www.w3.org/1999/xlink"
   xmlns="http://www.w3.org/2000/svg"
   xmlns:svg="http://www.w3.org/2000/svg"
   xmlns:rdf="http://www.w3.org/1999/02/22-rdf-syntax-ns#"
   xmlns:cc="http://creativecommons.org/ns#"
   xmlns:dc="http://purl.org/dc/elements/1.1/"><!-- Working space 10 10 410 287 --><!-- Title block 220 227 410 287 --><metadata
     id="metadata849"><rdf:RDF><cc:Work
         rdf:about=""><dc:format>image/svg+xml</dc:format><dc:type
           rdf:resource="http://purl.org/dc/dcmitype/StillImage" /></cc:Work></rdf:RDF></metadata><path
     id="path1547"
     style="color:#000000;fill:#c8c8c8;fill-opacity:1;stroke:#000000;stroke-width:2.3002;stroke-miterlimit:4;stroke-dasharray:none;stroke-opacity:1"
     d="M 85.826672,1.441624 V 1.8265239 L 85.524624,1.5537189 80.565892,6.0502573 H 53.588061 C 47.479546,6.0501684 41.762,8.7818621 38.304983,13.349768 c -1.905937,2.518391 -3.744142,5.077332 -5.51538,7.675367 l -0.853709,1.262262 -0.843724,1.271305 -0.834983,1.274693 -0.821244,1.283759 -0.811284,1.287159 -0.80253,1.292813 -0.78756,1.300733 -0.777563,1.305267 -0.765091,1.308655 -0.75885,1.313199 -0.74138,1.322242 -0.735137,1.326775 -0.721399,1.330163 -0.707671,1.335829 h -0.0049 l -0.688945,1.330163 -0.68396,1.334707 -0.67523,1.343772 -0.660248,1.34375 -0.645277,1.351672 -0.637779,1.352815 -0.626552,1.359604 -0.614067,1.365269 -0.60284,1.365258 -0.590344,1.373179 -0.580383,1.373201 -0.565389,1.382256 -0.556659,1.382245 -0.547919,1.385643 0.401893,0.128992 -0.401893,-0.124593 -1.636258,4.385621 -1.5189543,4.428627 -1.4016273,4.454644 -1.2830441,4.487496 -1.1607427,4.514646 -1.0421716,4.535022 -0.9198578,4.561084 -0.7975442,4.573517 -0.6789611,4.595024 -0.5516612,4.608637 -0.4343458,4.61653 -0.3057782,4.6256 -0.1897306,4.63353 -0.061078,4.62898 0.4243491,0.004 -0.4243491,0.004 0.061078,4.63011 0.1897306,4.63353 0.3057782,4.62561 0.4343458,4.61653 0.5516612,4.60747 0.6789611,4.59505 0.7975442,4.57918 0.9198578,4.55654 1.0421716,4.53503 1.1607427,4.51352 1.2830441,4.48862 1.4016273,4.45467 1.5189543,4.42749 1.636258,4.38561 0.401893,-0.12349 -0.401893,0.12789 0.547919,1.38679 0.556659,1.38222 0.565389,1.38113 0.580383,1.37433 0.590344,1.37318 0.60284,1.36867 0.614067,1.36074 0.626552,1.36071 0.637779,1.35168 0.645277,1.35283 0.660248,1.34377 0.67523,1.34259 0.68396,1.33585 0.688945,1.33017 h 0.0049 l 0.707671,1.33471 0.721399,1.33128 0.735137,1.32565 0.74138,1.32225 0.75885,1.31319 0.765091,1.30978 0.777563,1.30528 0.78756,1.30073 0.80253,1.29168 0.811284,1.28828 0.821244,1.28376 0.834983,1.2747 0.843724,1.27018 0.853709,1.26226 0.359456,-0.19591 -0.359456,0.2003 c 1.771238,2.59793 3.609443,5.15372 5.51538,7.67198 3.457017,4.56793 9.174563,7.29962 15.283078,7.29953 h 26.977831 l 4.958732,4.49654 0.302048,-0.27396 V 242.44 H 304.17804 v -0.38489 l 0.30208,0.27396 4.95747,-4.49654 h 26.97906 c 6.10855,9e-5 11.8261,-2.7316 15.28305,-7.29953 1.90599,-2.51826 3.74421,-5.07405 5.51542,-7.67198 l -0.27459,-0.15386 0.27459,0.15057 0.85367,-1.26227 0.84378,-1.2713 0.83497,-1.27469 0.82128,-1.28376 0.81124,-1.28828 0.79753,-1.29168 0.79258,-1.30073 0.77757,-1.30529 0.76384,-1.30865 0.75508,-1.31432 0.7451,-1.32224 0.73643,-1.32565 0.71641,-1.33129 0.71266,-1.33471 0.69392,-1.33016 0.68402,-1.33471 0.67391,-1.34373 0.65654,-1.34378 0.65028,-1.35168 0.63654,-1.35282 0.62778,-1.36071 0.61283,-1.35962 0.60408,-1.36979 0.59034,-1.37318 0.58037,-1.3732 0.56541,-1.38226 0.55667,-1.38222 0.54662,-1.38565 -0.33947,-0.11204 0.33947,0.10743 1.63751,-4.38559 1.51898,-4.42862 1.40037,-4.45468 1.28433,-4.48746 1.15946,-4.51469 1.04341,-4.53502 0.91988,-4.55654 0.7963,-4.57806 0.68018,-4.59616 0.55168,-4.60748 0.43308,-4.61653 0.30704,-4.62561 0.18474,-4.63352 0.0612,-4.63012 -0.42439,-0.004 0.42439,-0.004 -0.0612,-4.63014 -0.18474,-4.63353 -0.30704,-4.6256 -0.43308,-4.61653 -0.55168,-4.607488 -0.68018,-4.596168 -0.7963,-4.573517 -0.91988,-4.561085 -1.04341,-4.53501 -1.16451,-4.514658 -1.27928,-4.487496 -1.40037,-4.454644 -1.51898,-4.428627 -1.63751,-4.385621 -0.33947,0.107652 0.33947,-0.110984 -0.54662,-1.386766 -0.55667,-1.382245 -0.56541,-1.382244 -0.58037,-1.373213 -0.59034,-1.373179 -0.60408,-1.365246 -0.61283,-1.364137 -0.62778,-1.360747 -0.63654,-1.352816 -0.65028,-1.351671 -0.65654,-1.34375 -0.67391,-1.343772 -0.68402,-1.334707 -0.69392,-1.330163 -0.71266,-1.334674 -0.71641,-1.331318 -0.73643,-1.325652 -0.7451,-1.322243 -0.75508,-1.314321 -0.76384,-1.308655 -0.77757,-1.305267 -0.79258,-1.300734 -0.79753,-1.291691 -0.81124,-1.288281 -0.82128,-1.283758 -0.83497,-1.274693 -0.84378,-1.271305 -0.85367,-1.262251 c -1.77121,-2.598035 -3.60943,-5.156976 -5.51542,-7.675379 -3.45695,-4.5679051 -9.1745,-7.2995988 -15.28305,-7.2995099 h -26.97906 l -4.96246,-4.4965385 -0.29709,0.2694166 V 1.4413574 Z M 50.088364,58.41256 v 0.366792 0.0011 0.01767 h 4.707864 V 185.08738 h -4.707864 v 0.0177 0.36792 l -0.0085,-0.0133 0.0085,-0.35547 -0.604095,-0.0177 h -0.0085 l -20.511407,-0.48678 -4.085055,-8.27082 -3.57582,-8.7112 -2.948036,-8.9048 -2.301504,-9.0576 -1.651241,-9.1731 -0.996004,-9.25006 -0.329489,-9.28968 0.329489,-9.28857 0.996004,-9.25121 1.651241,-9.173068 2.301504,-9.057623 2.948036,-8.903634 3.57582,-8.711218 4.085055,-8.270826 20.53012,-0.487929 h 0.0097 v -0.0045 l 0.584114,-0.01322 -0.0085,-0.358859 z m 289.823026,0 0.0138,0.0089 -0.008,0.364536 0.58413,0.01322 h 0.009 l 20.53008,0.487918 4.08508,8.270826 3.57461,8.711217 2.94427,8.903646 2.30652,9.058756 1.65118,9.173091 0.99479,9.25006 0.33075,9.28968 -0.33075,9.28855 -0.99479,9.25006 -1.65118,9.17423 -2.30652,9.05762 -2.94427,8.90366 -3.57461,8.71119 -4.08508,8.27083 -20.52511,0.48792 v 0.004 l -0.59908,0.0133 0.009,0.35546 -0.015,0.0133 v -0.38149 h -4.70788 V 58.800527 h 4.70788 z" /><defs
     id="defs847"><linearGradient
       x1="649.42902"
       y1="807.466"
       x2="655.35199"
       y2="485.909"
       id="defitem29"
       gradientUnits="userSpaceOnUse"><stop
         style="stop-color:#ffffff;stop-opacity:1.0000000;"
         offset="0.0000000"
         id="stop92" /><stop
         style="stop-color:#ffffff;stop-opacity:0.13756600;"
         offset="1.0000000"
         id="stop93" /></linearGradient><linearGradient
       y2="485.909"
       x2="655.35199"
       y1="807.466"
       x1="649.42902"
       gradientUnits="userSpaceOnUse"
       id="linearGradient3448"
       xlink:href="#defitem29"
       inkscape:collect="always" /><radialGradient
       cx="1049.72"
       cy="345.56"
       r="1202.15"
       fx="1049.72"
       fy="345.56"
       id="defitem28"
       gradientUnits="userSpaceOnUse"><stop
         style="stop-color:#ffffff;stop-opacity:1.0000000;"
         offset="0.0000000"
         id="stop89" /><stop
         style="stop-color:#a8a8a8;stop-opacity:1.0000000;"
         offset="1.0000000"
         id="stop90" /></radialGradient><radialGradient
       r="1202.15"
       fy="64.844765"
       fx="1089.4004"
       cy="64.845284"
       cx="1092.7045"
       gradientUnits="userSpaceOnUse"
       id="radialGradient3446"
       xlink:href="#defitem28"
       inkscape:collect="always" /><linearGradient
       x1="287.5"
       y1="636.70697"
       x2="980"
       y2="636.70697"
       id="defitem30"
       gradientUnits="userSpaceOnUse"><stop
         style="stop-color:#464646;stop-opacity:1.0000000;"
         offset="0.0000000"
         id="stop95" /><stop
         style="stop-color:#c2c2c2;stop-opacity:1.0000000;"
         offset="1.0000000"
         id="stop96" /></linearGradient><linearGradient
       y2="636.70697"
       x2="980"
       y1="636.70697"
       x1="287.5"
       gradientTransform="matrix(1,0,0,1.016038,0,-11.73855)"
       gradientUnits="userSpaceOnUse"
       id="linearGradient3444"
       xlink:href="#defitem30"
       inkscape:collect="always" /><linearGradient
       x1="921.091"
       y1="403.18799"
       x2="985.98199"
       y2="317.44699"
       id="defitem27"
       gradientUnits="userSpaceOnUse"><stop
         style="stop-color:#7e7e7e;stop-opacity:1.0000000;"
         offset="0.0000000"
         id="stop86" /><stop
         style="stop-color:#e5e5e5;stop-opacity:1.0000000;"
         offset="1.0000000"
         id="stop87" /></linearGradient><linearGradient
       y2="317.44699"
       x2="985.98199"
       y1="403.18799"
       x1="921.091"
       gradientUnits="userSpaceOnUse"
       id="linearGradient3442"
       xlink:href="#defitem27"
       inkscape:collect="always" /><linearGradient
       x1="530.76099"
       y1="346.30399"
       x2="293.37"
       y2="360.27499"
       id="defitem26"
       gradientUnits="userSpaceOnUse"><stop
         style="stop-color:#5f5f5f;stop-opacity:1.0000000;"
         offset="0.0000000"
         id="stop83" /><stop
         style="stop-color:#e5e5e5;stop-opacity:1.0000000;"
         offset="1.0000000"
         id="stop84" /></linearGradient><linearGradient
       y2="360.27499"
       x2="293.37"
       y1="346.30399"
       x1="530.76099"
       gradientUnits="userSpaceOnUse"
       id="linearGradient3440"
       xlink:href="#defitem26"
       inkscape:collect="always" /><linearGradient
       x1="164.013"
       y1="412.91901"
       x2="308.75"
       y2="337.60999"
       id="defitem25"
       gradientUnits="userSpaceOnUse"><stop
         style="stop-color:#ffffff;stop-opacity:1.0000000;"
         offset="0.0000000"
         id="stop80" /><stop
         style="stop-color:#bfbfbf;stop-opacity:1.0000000;"
         offset="1.0000000"
         id="stop81" /></linearGradient><linearGradient
       y2="337.60999"
       x2="308.75"
       y1="412.91901"
       x1="164.013"
       gradientUnits="userSpaceOnUse"
       id="linearGradient3438"
       xlink:href="#defitem25"
       inkscape:collect="always" /><linearGradient
       x1="1094.25"
       y1="270.854"
       x2="992.48901"
       y2="380.47198"
       id="defitem24"
       gradientUnits="userSpaceOnUse"><stop
         style="stop-color:#6a6a6a;stop-opacity:1.0000000;"
         offset="0.0000000"
         id="stop77" /><stop
         style="stop-color:#e6e6e6;stop-opacity:1.0000000;"
         offset="1.0000000"
         id="stop78" /></linearGradient><linearGradient
       y2="380.47198"
       x2="992.48901"
       y1="270.854"
       x1="1094.25"
       gradientUnits="userSpaceOnUse"
       id="linearGradient3436"
       xlink:href="#defitem24"
       inkscape:collect="always" /><linearGradient
       x1="1170.91"
       y1="476.465"
       x2="1049.84"
       y2="549.37799"
       id="defitem23"
       gradientUnits="userSpaceOnUse"><stop
         style="stop-color:#5f5f5f;stop-opacity:1.0000000;"
         offset="0.0000000"
         id="stop74" /><stop
         style="stop-color:#ebebeb;stop-opacity:1.0000000;"
         offset="1.0000000"
         id="stop75" /></linearGradient><linearGradient
       y2="549.37799"
       x2="1049.84"
       y1="476.465"
       x1="1170.91"
       gradientUnits="userSpaceOnUse"
       id="linearGradient3434"
       xlink:href="#defitem23"
       inkscape:collect="always" /><linearGradient
       x1="783.716"
       y1="105.486"
       x2="576.14899"
       y2="313.276"
       id="defitem22"
       gradientUnits="userSpaceOnUse"><stop
         style="stop-color:#5a5a5a;stop-opacity:1.0000000;"
         offset="0.0000000"
         id="stop71" /><stop
         style="stop-color:#c7c7c7;stop-opacity:1.0000000;"
         offset="1.0000000"
         id="stop72" /></linearGradient><linearGradient
       y2="313.276"
       x2="576.14899"
       y1="105.486"
       x1="783.716"
       gradientUnits="userSpaceOnUse"
       id="linearGradient3432"
       xlink:href="#defitem22"
       inkscape:collect="always" /><linearGradient
       x1="280.04401"
       y1="418.698"
       x2="128.05499"
       y2="484.716"
       id="defitem21"
       gradientUnits="userSpaceOnUse"><stop
         style="stop-color:#666666;stop-opacity:1.0000000;"
         offset="0.0000000"
         id="stop68" /><stop
         style="stop-color:#d8d8d8;stop-opacity:1.0000000;"
         offset="1.0000000"
         id="stop69" /></linearGradient><linearGradient
       y2="484.716"
       x2="128.05499"
       y1="418.698"
       x1="280.04401"
       gradientUnits="userSpaceOnUse"
       id="linearGradient3430"
       xlink:href="#defitem21"
       inkscape:collect="always" /><linearGradient
       x1="129.687"
       y1="636.95398"
       x2="220"
       y2="584.40997"
       id="defitem20"
       gradientUnits="userSpaceOnUse"><stop
         style="stop-color:#ffffff;stop-opacity:1.0000000;"
         offset="0.0000000"
         id="stop65" /><stop
         style="stop-color:#bbbbbb;stop-opacity:1.0000000;"
         offset="1.0000000"
         id="stop66" /></linearGradient><linearGradient
       y2="584.40997"
       x2="220"
       y1="636.95398"
       x1="129.687"
       gradientUnits="userSpaceOnUse"
       id="linearGradient3428"
       xlink:href="#defitem20"
       inkscape:collect="always" /><linearGradient
       x1="1048.72"
       y1="629.02802"
       x2="1127.98"
       y2="583.75299"
       id="defitem19"
       gradientUnits="userSpaceOnUse"><stop
         style="stop-color:#5e5e5e;stop-opacity:1.0000000;"
         offset="0.0000000"
         id="stop62" /><stop
         style="stop-color:#ededed;stop-opacity:1.0000000;"
         offset="1.0000000"
         id="stop63" /></linearGradient><linearGradient
       y2="583.75299"
       x2="1127.98"
       y1="629.02802"
       x1="1048.72"
       gradientUnits="userSpaceOnUse"
       id="linearGradient3426"
       xlink:href="#defitem19"
       inkscape:collect="always" /><linearGradient
       x1="370.022"
       y1="387.27301"
       x2="581.32397"
       y2="291.97699"
       id="defitem18"
       gradientUnits="userSpaceOnUse"><stop
         style="stop-color:#636363;stop-opacity:1.0000000;"
         offset="0.0000000"
         id="stop59" /><stop
         style="stop-color:#d6d6d6;stop-opacity:1.0000000;"
         offset="1.0000000"
         id="stop60" /></linearGradient><linearGradient
       y2="291.97699"
       x2="581.32397"
       y1="387.27301"
       x1="370.022"
       gradientUnits="userSpaceOnUse"
       id="linearGradient3424"
       xlink:href="#defitem18"
       inkscape:collect="always" /><linearGradient
       x1="732.15601"
       y1="351.939"
       x2="909.59399"
       y2="351.939"
       id="defitem17"
       gradientUnits="userSpaceOnUse"><stop
         style="stop-color:#676767;stop-opacity:1.0000000;"
         offset="0.0000000"
         id="stop56" /><stop
         style="stop-color:#d3d3d3;stop-opacity:1.0000000;"
         offset="1.0000000"
         id="stop57" /></linearGradient><linearGradient
       y2="351.939"
       x2="909.59399"
       y1="351.939"
       x1="732.15601"
       gradientUnits="userSpaceOnUse"
       id="linearGradient3422"
       xlink:href="#defitem17"
       inkscape:collect="always" /><linearGradient
       x1="1014.43"
       y1="494.71301"
       x2="1073.01"
       y2="494.71301"
       id="defitem16"
       gradientUnits="userSpaceOnUse"><stop
         style="stop-color:#666666;stop-opacity:1.0000000;"
         offset="0.0000000"
         id="stop53" /><stop
         style="stop-color:#dcdcdc;stop-opacity:1.0000000;"
         offset="1.0000000"
         id="stop54" /></linearGradient><linearGradient
       y2="494.71301"
       x2="1073.01"
       y1="494.71301"
       x1="1014.43"
       gradientUnits="userSpaceOnUse"
       id="linearGradient3420"
       xlink:href="#defitem16"
       inkscape:collect="always" /><linearGradient
       x1="272.59201"
       y1="452.388"
       x2="193.27699"
       y2="516.37"
       id="defitem15"
       gradientUnits="userSpaceOnUse"><stop
         style="stop-color:#6e6e6e;stop-opacity:1.0000000;"
         offset="0.0000000"
         id="stop50" /><stop
         style="stop-color:#d8d8d8;stop-opacity:1.0000000;"
         offset="1.0000000"
         id="stop51" /></linearGradient><linearGradient
       y2="516.37"
       x2="193.27699"
       y1="452.388"
       x1="272.59201"
       gradientUnits="userSpaceOnUse"
       id="linearGradient3418"
       xlink:href="#defitem15"
       inkscape:collect="always" /><radialGradient
       cx="1037.22"
       cy="211.088"
       r="1164.28"
       fx="1037.22"
       fy="211.088"
       id="defitem14"
       gradientUnits="userSpaceOnUse"><stop
         style="stop-color:#ffffff;stop-opacity:1.0000000;"
         offset="0.0000000"
         id="stop47" /><stop
         style="stop-color:#aaaaaa;stop-opacity:1.0000000;"
         offset="1.0000000"
         id="stop48" /></radialGradient><radialGradient
       r="1164.28"
       fy="211.088"
       fx="1037.22"
       cy="211.088"
       cx="1037.22"
       gradientUnits="userSpaceOnUse"
       id="radialGradient3416"
       xlink:href="#defitem14"
       inkscape:collect="always" /><linearGradient
       x1="342.64999"
       y1="732.12903"
       x2="379.241"
       y2="686.83002"
       id="defitem13"
       gradientUnits="userSpaceOnUse"><stop
         style="stop-color:#ffffff;stop-opacity:1.0000000;"
         offset="0.0000000"
         id="stop44" /><stop
         style="stop-color:#989898;stop-opacity:1.0000000;"
         offset="1.0000000"
         id="stop45" /></linearGradient><linearGradient
       y2="686.83002"
       x2="379.241"
       y1="732.12903"
       x1="342.64999"
       gradientUnits="userSpaceOnUse"
       id="linearGradient3414"
       xlink:href="#defitem13"
       inkscape:collect="always" /><radialGradient
       cx="632.78101"
       cy="484.409"
       r="540.27899"
       fx="632.78101"
       fy="484.409"
       id="defitem12"
       gradientUnits="userSpaceOnUse"><stop
         style="stop-color:#ffffff;stop-opacity:1.0000000;"
         offset="0.0000000"
         id="stop41" /><stop
         style="stop-color:#ededed;stop-opacity:1.0000000;"
         offset="1.0000000"
         id="stop42" /></radialGradient><radialGradient
       r="540.27899"
       fy="484.409"
       fx="632.78101"
       cy="484.409"
       cx="632.78101"
       gradientUnits="userSpaceOnUse"
       id="radialGradient3412"
       xlink:href="#defitem12"
       inkscape:collect="always" /><inkscape:perspective
       id="perspective3148"
       inkscape:persp3d-origin="32.000001 : -31.784922 : 1"
       inkscape:vp_z="64.000001 : -21.118252 : 1"
       inkscape:vp_y="0 : 999.99998 : 0"
       inkscape:vp_x="0 : -21.118252 : 1"
       sodipodi:type="inkscape:persp3d" /><linearGradient
       id="linearGradient3682"><stop
         id="stop3684"
         offset="0"
         style="stop-color:#ff6d0f;stop-opacity:1;" /><stop
         id="stop3686"
         offset="1"
         style="stop-color:#ff1000;stop-opacity:1;" /></linearGradient><linearGradient
       id="linearGradient3864"><stop
         style="stop-color:#71b2f8;stop-opacity:1;"
         offset="0"
         id="stop3866" /><stop
         style="stop-color:#002795;stop-opacity:1;"
         offset="1"
         id="stop3868" /></linearGradient><radialGradient
       gradientUnits="userSpaceOnUse"
       id="defitem28-4"
       fy="345.56"
       fx="1049.72"
       r="1202.15"
       cy="345.56"
       cx="1049.72"><stop
         id="stop89-9"
         offset="0.0000000"
         style="stop-color:#ffffff;stop-opacity:1.0000000;" /><stop
         id="stop90-3"
         offset="1.0000000"
         style="stop-color:#a8a8a8;stop-opacity:1.0000000;" /></radialGradient><radialGradient
       xlink:href="#defitem28-4"
       id="radialGradient3446-0"
       gradientUnits="userSpaceOnUse"
       cx="1092.7045"
       cy="64.845284"
       fx="1089.4004"
       fy="64.844765"
       r="1202.15" /><radialGradient
       gradientUnits="userSpaceOnUse"
       id="defitem14-5"
       fy="211.088"
       fx="1037.22"
       r="1164.28"
       cy="211.088"
       cx="1037.22"><stop
         id="stop47-3"
         offset="0.0000000"
         style="stop-color:#ffffff;stop-opacity:1.0000000;" /><stop
         id="stop48-4"
         offset="1.0000000"
         style="stop-color:#aaaaaa;stop-opacity:1.0000000;" /></radialGradient><radialGradient
       xlink:href="#defitem14-5"
       id="radialGradient3416-6"
       gradientUnits="userSpaceOnUse"
       cx="1037.22"
       cy="211.088"
       fx="1037.22"
       fy="211.088"
       r="1164.28" /><radialGradient
       gradientUnits="userSpaceOnUse"
       id="defitem12-9"
       fy="484.409"
       fx="632.78101"
       r="540.27899"
       cy="484.409"
       cx="632.78101"><stop
         id="stop41-0"
         offset="0.0000000"
         style="stop-color:#ffffff;stop-opacity:1.0000000;" /><stop
         id="stop42-3"
         offset="1.0000000"
         style="stop-color:#ededed;stop-opacity:1.0000000;" /></radialGradient><radialGradient
       xlink:href="#defitem12-9"
       id="radialGradient3412-2"
       gradientUnits="userSpaceOnUse"
       cx="632.78101"
       cy="484.409"
       fx="632.78101"
       fy="484.409"
       r="540.27899" /><radialGradient
       xlink:href="#linearGradient3682"
       id="radialGradient3817"
       gradientUnits="userSpaceOnUse"
       gradientTransform="matrix(1.1149219,0.2722306,-0.7507171,3.0745639,-471.08629,-148.32863)"
       cx="270.58316"
       cy="33.899986"
       fx="270.58316"
       fy="33.899986"
       r="19.571428" /><radialGradient
       xlink:href="#linearGradient3864"
       id="radialGradient3661"
       gradientUnits="userSpaceOnUse"
       gradientTransform="matrix(0.6186598,0.9666542,-1.0332462,0.6612786,-327.27568,-255.84136)"
       cx="282.64584"
       cy="29.149046"
       fx="282.64584"
       fy="29.149046"
       r="19.571428" /></defs><sodipodi:namedview
     inkscape:window-height="1013"
     inkscape:window-width="1920"
     inkscape:pageshadow="2"
     inkscape:pageopacity="0.0"
     guidetolerance="10.0"
     gridtolerance="10.0"
     objecttolerance="10.0"
     borderopacity="1.0"
     bordercolor="#666666"
     pagecolor="#ffffff"
     id="base"
     inkscape:window-x="-9"
     inkscape:window-y="135"
     inkscape:current-layer="svg2"
     inkscape:document-units="mm"
     showgrid="false"
     inkscape:window-maximized="1"
     inkscape:pagecheckerboard="0"
     inkscape:zoom="0.24878339"
     inkscape:cx="-548.67008"
     inkscape:cy="608.9635"
     inkscape:showpageshadow="2"
     inkscape:deskcolor="#d1d1d1" /><path
     id="path7780"
     style="color:#000000;fill:#c8c8c8;fill-opacity:1;stroke:#000000;stroke-width:2.34767;stroke-miterlimit:4;stroke-dasharray:none;stroke-opacity:1"
     d="m 6.5498544,53.171719 h 0.2456909 0.4712433 0.604158 0.7370726 0.8740256 1.0069402 1.139855 1.276798 1.409712 1.542627 1.675542 1.578867 c 0.324009,0.76668 0.64986,1.679995 0.978747,2.834526 0.355049,1.250808 0.714054,2.729767 1.059289,4.395296 0.691949,3.320056 1.335712,7.399539 1.933316,12.22541 v 98.633259 c -0.297016,2.40661 -0.609273,4.63957 -0.934421,6.68692 -0.327716,2.0582 -0.668756,3.93594 -1.015006,5.60114 -0.670611,3.22463 -1.354287,5.56594 -2.034008,7.16195 H 17.533519 15.857977 14.31535 12.905638 11.62884 10.488985 9.4820448 8.6080192 7.8709466 7.2667886 6.7955453 6.5498544 Z m 13.3479366,0 h 38.050117 v 1.503402 2.573465 3.147697 3.690608 4.212623 4.682391 5.120868 5.512412 5.851714 6.144044 6.373697 6.55117 6.67128 2.30205 l -0.418881,-1.24241 -0.882062,-1.86353 -1.123753,-1.84792 -1.365418,-1.83226 -1.60705,-1.8218 -1.844706,-1.80615 -2.08637,-1.79045 -2.319987,-1.78009 -2.553586,-1.76435 -2.79124,-1.75395 -3.0208,-1.733079 L 34.83268,96.634053 34.341298,94.890538 33.749223,92.969543 33.120889,91.074671 32.452287,89.205875 31.743398,87.3632 30.994232,85.551833 30.208827,83.76658 29.387182,82.017851 28.529268,80.300441 27.635102,78.619556 26.704689,76.970044 25.742074,75.362247 24.743168,73.796245 23.780565,72.365931 C 23.184534,67.573294 22.542222,63.490858 21.847238,60.156174 21.49751,58.469072 21.132457,56.967341 20.767799,55.682584 20.481768,54.678546 20.190396,53.914805 19.897791,53.171719 Z m 38.771091,0 h 3.089281 17.391797 30.047 21.81024 127.98566 21.80621 30.05102 17.38776 3.0893 v 1.503402 2.573465 3.147697 3.690608 4.212623 4.682391 5.120868 5.512412 5.851714 6.144044 6.373697 6.55117 6.67128 6.6921 0.0418 0.0419 6.69213 6.67124 6.5512 6.37371 6.14404 5.85169 5.50718 5.12613 4.68238 4.2126 3.6906 3.14773 2.57349 1.50337 h -3.0893 -17.38776 -30.05102 -21.80621 -127.98566 -21.81024 -30.047 -17.391797 -3.089281 v -1.50337 -2.57349 -3.14773 -3.6906 -4.2126 -4.68238 -5.12613 -5.50718 -5.85169 -6.14404 -6.37371 -6.5512 -6.67124 -6.69213 -0.0419 -0.0418 -6.6921 -6.67128 -6.55117 -6.373697 -6.144044 -5.851714 -5.512412 -5.120868 -4.682391 -4.212623 -3.690608 -3.147697 -2.573465 z m 273.379248,0 h 38.0501 c -0.29259,0.743086 -0.58396,1.506827 -0.86999,2.510865 -0.36467,1.284757 -0.72569,2.786488 -1.07541,4.47359 -0.69499,3.334684 -1.34135,7.41712 -1.93735,12.209757 l -0.96264,1.430314 -0.99485,1.566002 -0.96665,1.607797 -0.93041,1.649512 -0.89415,1.680885 -0.85791,1.71741 -0.82167,1.748729 -0.78541,1.785253 -0.74916,1.811367 -0.70889,1.842675 -0.6686,1.868796 -0.62832,1.894872 -0.58806,1.920995 -0.49543,1.743515 -3.10133,1.639098 -3.02083,1.733079 -2.79122,1.75395 -2.55358,1.76435 -2.32,1.78009 -2.08235,1.79045 -1.8447,1.80615 -1.60707,1.8218 -1.36945,1.83226 -1.12373,1.84792 -0.87803,1.86353 -0.42291,1.2476 v -2.30724 -6.67128 -6.55117 -6.373697 -6.144044 -5.851714 -5.512412 -5.120868 -4.682391 -4.212623 -3.690608 -3.147697 -2.573465 z m 38.83953,0 h 1.57487 1.67553 1.54263 1.40972 1.27679 1.13985 1.00693 0.87401 0.74112 0.60417 0.47124 0.24569 V 190.71022 h -0.24569 -0.47124 -0.60417 -0.74112 -0.87401 -1.00693 -1.13985 -1.27679 -1.40972 -1.54263 -1.67553 -1.5628 c -0.67969,-1.59601 -1.36741,-3.93732 -2.03801,-7.16195 -0.34623,-1.6652 -0.68729,-3.54294 -1.01498,-5.60114 -0.32515,-2.04735 -0.63743,-4.28031 -0.93445,-6.68692 V 72.626951 c 0.59763,-4.825871 1.24541,-8.905354 1.93733,-12.22541 0.34526,-1.665529 0.70024,-3.144488 1.05527,-4.395296 0.3289,-1.154585 0.65875,-2.067819 0.98277,-2.834526 z M 23.80471,73.82232 l 0.386662,0.574218 0.986811,1.550362 0.950542,1.586913 0.91833,1.623436 0.882062,1.659975 0.849857,1.696552 0.809583,1.727832 0.77735,1.759137 0.737084,1.790499 0.696806,1.82183 0.660545,1.842679 0.624287,1.873972 0.580001,1.894893 0.523604,1.8427 v 49.747292 l -0.523604,1.84268 -0.580001,1.89491 -0.624287,1.87399 -0.660545,1.84268 -0.696806,1.8218 -0.737084,1.7905 -0.77735,1.75919 -0.809583,1.7278 -0.849857,1.69656 -0.882062,1.65996 -0.91833,1.62344 -0.950542,1.58689 -0.986811,1.54515 -0.386662,0.5742 z m 342.38661,0 v 96.23204 l -0.38667,-0.5742 -0.98277,-1.54515 -0.95457,-1.58689 -0.91429,-1.62344 -0.88611,-1.65996 -0.84585,-1.69656 -0.8136,-1.7278 -0.77332,-1.75919 -0.73707,-1.7905 -0.70083,-1.8218 -0.66054,-1.84268 -0.62431,-1.87399 -0.57999,-1.89491 -0.52361,-1.85312 V 97.077753 l 0.52361,-1.853135 0.57999,-1.894893 0.62431,-1.873972 0.66054,-1.842679 0.70083,-1.82183 0.73707,-1.790499 0.77332,-1.759137 0.8136,-1.727832 0.84585,-1.696552 0.88611,-1.659975 0.91429,-1.623436 0.95457,-1.586913 0.98277,-1.550362 z m -331.282104,23.860986 2.742889,1.451194 3.000681,1.72259 2.767044,1.73304 2.525401,1.74875 2.291793,1.75392 2.05012,1.76443 1.808457,1.76958 1.562776,1.76961 1.321092,1.77483 1.075412,1.76959 0.82972,1.75916 0.592065,1.75395 0.354439,1.74874 0.11672,1.72263 v 0.0162 0.0162 l -0.11672,1.72262 -0.354439,1.74872 -0.592065,1.75396 -0.82972,1.75913 -1.075412,1.76964 -1.321092,1.76961 -1.562776,1.77481 -1.808457,1.76959 -2.05012,1.7644 -2.291793,1.75396 -2.525401,1.74869 -2.767044,1.73309 -3.000681,1.7226 -2.742889,1.45119 z m 320.177614,0 v 48.515334 l -2.73887,-1.4512 -3.00471,-1.72259 -2.76301,-1.73307 -2.52944,-1.74871 -2.2918,-1.75394 -2.05013,-1.76443 -1.80443,-1.76958 -1.56678,-1.77481 -1.3211,-1.76962 -1.07541,-1.76958 -0.82971,-1.75917 -0.59206,-1.75394 -0.35447,-1.74875 -0.1128,-1.73828 0.1128,-1.73828 0.35447,-1.74874 0.59206,-1.75395 0.82971,-1.75916 1.07541,-1.76959 1.3211,-1.77483 1.56678,-1.76961 1.80443,-1.76958 2.05013,-1.76443 2.2918,-1.75392 2.52944,-1.74875 2.76301,-1.73304 3.00471,-1.72259 z m -23.0387,28.684294 0.42291,1.24759 0.87803,1.86357 1.12373,1.8479 1.36945,1.83224 1.60707,1.82179 1.8447,1.80616 2.08235,1.79048 2.32,1.78005 2.55358,1.76438 2.79122,1.75395 3.02083,1.73309 3.10133,1.63909 0.49543,1.74348 0.58806,1.921 0.62832,1.8949 0.6686,1.86879 0.70889,1.84268 0.74916,1.81133 0.78541,1.78529 0.82167,1.74873 0.85791,1.71741 0.89415,1.68085 0.93041,1.64955 0.96665,1.60776 0.99485,1.56603 0.96264,1.42509 c 0.29436,2.37563 0.60388,4.59358 0.92639,6.62427 0.33015,2.07349 0.67226,3.97145 1.02304,5.65859 0.63692,3.06252 1.29314,5.22157 1.9736,6.91658 h -38.09038 v -1.5034 -2.57347 -3.14772 -3.6906 -4.2126 -4.6824 -5.12613 -5.50717 -5.85169 -6.14404 -6.37369 -6.55121 -6.67124 z m -274.100222,0.005 v 2.30205 6.67124 6.55121 6.37371 6.14403 5.85169 5.50717 5.12613 4.68239 4.21259 3.69062 3.14772 2.57347 1.5034 H 19.857524 c 0.680467,-1.695 1.336695,-3.85405 1.973592,-6.91659 0.350806,-1.68712 0.696931,-3.58509 1.02708,-5.65858 0.322486,-2.03067 0.628003,-4.24864 0.922369,-6.6243 l 0.962603,-1.42506 0.998906,-1.56603 0.962615,-1.60776 0.930413,-1.64955 0.894166,-1.68086 0.857914,-1.71741 0.821645,-1.74872 0.785405,-1.78528 0.749166,-1.81135 0.708889,-1.84267 0.668602,-1.86879 0.628334,-1.8949 0.592075,-1.921 0.491382,-1.74349 3.101375,-1.63908 3.0208,-1.73309 2.79124,-1.75395 2.553586,-1.76439 2.319987,-1.78005 2.08637,-1.79046 1.844706,-1.80617 1.60705,-1.82181 1.365418,-1.83222 1.123753,-1.84793 0.882062,-1.86354 z" /><path
     style="color:#000000;fill:#c8c8c8;fill-opacity:1;stroke:#000000;stroke-width:2.10636;stroke-opacity:1;-inkscape-stroke:none"
     d="m 194.99714,3.3134881 c 8.57138,0 17.08779,0.3035673 25.58688,0.9105351 4.24954,0.3039818 8.49387,0.6840184 12.66729,1.1322844 8.34507,0.8975267 16.39923,2.0618741 24.22557,3.470449 11.74933,2.1175514 22.97546,4.7699664 34.08802,8.0188474 l 0.009,-0.0286 c 0.009,0.0021 0.0173,0.0062 0.0256,0.0083 l -0.009,0.0286 c 1.09359,0.239507 2.15182,0.512172 3.20042,0.822046 0.79986,0.236471 1.60304,0.495862 2.40254,0.78151 l 0.50455,0.18004 v 0.001 c 1.16912,0.425369 2.3731,0.892 3.6105,1.397798 1.15699,0.470713 2.35735,0.979994 3.56599,1.519324 1.20982,0.539434 2.42834,1.10814 3.57829,1.680307 1.14994,0.572105 2.2348,1.148645 3.11266,1.676048 0.68926,0.413868 1.25371,0.804182 1.57025,1.096079 4.6921,4.330215 9.50697,8.729378 14.36864,13.140809 l 0.24778,-0.253754 -0.0546,0.342235 c 0.57176,0.0887 1.16174,0.175273 1.77694,0.262282 l 0.0399,-0.258013 0.0151,0.258013 1.71356,-0.08414 v 2.26035 4.315925 3.715698 59.115089 c -0.14235,0.0589 -0.30065,0.0808 -0.41119,0.18977 -0.1929,0.18999 -0.35397,0.43892 -0.5045,0.74951 -0.32233,0.66663 -0.59663,1.62049 -0.82678,2.82863 -0.23013,1.2079 -0.41119,2.66585 -0.53784,4.26369 -0.12557,1.59784 -0.19354,3.33631 -0.19784,5.07722 -0.007,1.74076 0.0518,3.48105 0.17225,5.08148 0.12001,1.60028 0.30201,3.05827 0.53342,4.26796 0.23024,1.20986 0.50587,2.16831 0.83565,2.83608 0.15439,0.31176 0.31952,0.55993 0.51672,0.74956 0.11398,0.1098 0.27493,0.13176 0.42008,0.18976 v 59.06712 2.82968 0.0684 1.2613 0.26124 c -1.44825,0.29951 -2.88824,0.64352 -4.34726,1.08431 l 0.0546,0.16098 c -0.39122,0.37586 -0.78216,0.75467 -1.17128,1.12909 l -0.007,0.004 c -2.96478,2.77531 -5.84545,5.49785 -8.59783,8.13184 -1.85985,2.02862 -3.69567,4.04564 -5.50964,6.04532 l 0.009,0.008 c -0.79946,1.4718 -1.60147,2.95062 -2.40594,4.43643 -0.13354,0.24436 -0.56214,0.66068 -1.23461,1.11205 -0.67249,0.45133 -1.58338,0.95586 -2.68034,1.49053 -2.11136,1.02823 -4.92616,2.16281 -8.15672,3.27214 -1.08024,0.37076 -2.19723,0.72301 -3.34712,1.0598 -2.1029,0.61595 -4.30964,1.17062 -6.62755,1.66112 l 0.0173,0.0725 c -0.0108,0.004 -0.0235,0.008 -0.0342,0.0124 l -0.0247,-0.0723 c -0.49944,0.16264 -1.09783,0.33983 -1.68022,0.51602 -0.697,0.18544 -1.39318,0.37114 -2.09142,0.55231 -4.97817,1.33385 -10.11634,2.50431 -15.3343,3.62611 -4.26332,0.90405 -8.51858,1.85397 -12.81512,2.59938 -11.61001,2.01139 -23.65504,3.47831 -36.2372,4.32023 -3.96638,0.26483 -7.98949,0.46635 -12.0039,0.60025 -4.01531,0.13404 -8.01932,0.20159 -12.01722,0.20159 -8.57143,0 -17.08666,-0.30358 -25.58572,-0.91053 -4.24952,-0.30397 -8.49502,-0.68404 -12.66846,-1.13229 -8.34503,-0.89753 -16.39923,-2.06506 -24.22554,-3.47366 -11.74935,-2.11755 -22.97547,-4.77102 -34.08804,-8.0199 l -0.0093,0.0286 c -0.0093,-0.002 -0.01731,-0.002 -0.02559,-0.004 l 0.01078,-0.0319 c -1.093612,-0.23951 -2.151828,-0.5079 -3.200439,-0.81778 -0.800192,-0.23657 -1.60226,-0.50002 -2.402525,-0.78578 l -0.503416,-0.18128 c -1.169224,-0.42542 -2.372994,-0.89299 -3.610503,-1.39885 -1.156987,-0.47072 -2.357338,-0.98 -3.566061,-1.51933 -1.209729,-0.53942 -2.428286,-1.10813 -3.578237,-1.68028 -1.14995,-0.57213 -2.234796,-1.14867 -3.112631,-1.67609 -0.689268,-0.41383 -1.253736,-0.80414 -1.570263,-1.09604 v 0.004 c -4.69198,-4.32971 -9.506927,-8.73315 -14.368524,-13.14458 l -0.247796,0.25373 0.05461,-0.33798 c -0.571753,-0.0887 -1.161711,-0.17962 -1.776943,-0.26655 l -0.04217,0.25803 -0.01295,-0.25803 -1.713549,0.0895 v -2.26142 -4.31916 -3.71567 -59.11616 c 0.141928,-0.0589 0.30087,-0.0767 0.411132,-0.18542 0.192899,-0.18999 0.353778,-0.43895 0.504555,-0.74954 0.322258,-0.66661 0.593265,-1.6247 0.823404,-2.83288 0.23016,-1.20793 0.414551,-2.66162 0.541195,-4.25944 0.125577,-1.59786 0.193541,-3.34058 0.197841,-5.08147 0.0073,-1.74077 -0.05181,-3.48105 -0.172247,-5.08148 -0.120209,-1.60028 -0.30201,-3.05719 -0.533393,-4.2669 -0.230263,-1.20984 -0.505871,-2.16512 -0.835661,-2.83289 -0.154393,-0.31176 -0.319563,-0.56418 -0.51672,-0.75379 -0.113982,-0.10982 -0.274935,-0.13178 -0.420064,-0.18978 v -59.06714 -2.82433 -0.06943 -1.261321 -0.03627 -0.229248 c 1.447784,-0.299451 2.884191,-0.643644 4.342804,-1.084308 l -0.05119,-0.160983 c 0.391102,-0.375746 0.782153,-0.74945 1.171213,-1.123766 v -0.0041 h 0.0073 c 2.965502,-2.776033 5.844823,-5.501459 8.597822,-8.136124 1.859839,-2.028625 3.695741,-4.041313 5.509645,-6.041059 l -0.0093,-0.0083 c 0.800597,-1.473897 1.600271,-2.952736 2.405883,-4.440725 0.133535,-0.244335 0.562075,-0.657467 1.234598,-1.108834 0.672523,-0.451326 1.583443,-0.96013 2.680351,-1.494787 2.111427,-1.028228 4.926162,-2.162833 8.156703,-3.272154 1.079395,-0.370326 2.194167,-0.723358 3.342688,-1.059801 0,-3.73e-4 0.0073,3.94e-4 0.0073,0 2.10291,-0.615947 4.309658,-1.169545 6.627578,-1.660039 l -0.0173,-0.07689 c 0.0108,-0.0041 0.0228,-0.0062 0.0336,-0.0083 l 0.0246,0.07668 c 0.52947,-0.172579 1.15802,-0.360255 1.78138,-0.548003 0.65636,-0.174454 1.31283,-0.349696 1.97024,-0.520326 4.97253,-1.332684 10.10514,-2.500727 15.31658,-3.62185 4.27574,-0.907149 8.54366,-1.8560566 12.85285,-2.6036415 11.60998,-2.0113647 23.65619,-3.4782982 36.23833,-4.3202205 3.96645,-0.2648032 7.98501,-0.4663943 11.99946,-0.6002512 4.01526,-0.1340445 8.02262,-0.2015911 12.02054,-0.2015911 z"
     id="path23497" /><path
     style="color:#000000;fill:#c8c8c8;fill-opacity:1;stroke:#000000;stroke-width:2.09358;stroke-opacity:1;-inkscape-stroke:none"
     d="m 197.50798,224.5617 c 17.69198,-0.40079 35.43761,-5.12003 51.49903,-14.39558 0.73548,-0.42472 1.46598,-0.85576 2.19058,-1.29771 4.01187,-2.4469 7.84997,-5.15345 11.48804,-8.10053 1.46089,-1.18342 2.88855,-2.40511 4.28155,-3.66338 1.91106,-1.7262 3.75603,-3.52136 5.53036,-5.38022 l 0.26967,0.24184 -0.0954,-0.34258 1.35253,-0.35465 3.63018,-0.94306 3.52649,-0.91887 0.029,-0.0363 c 1.15991,-1.399 2.28252,-2.8263 3.36883,-4.27999 22.25863,-29.78568 27.288,-68.55825 13.33009,-102.776027 -0.36592,-0.89714 -0.74609,-1.788777 -1.13678,-2.675989 -0.8511,-1.932932 -1.75947,-3.841658 -2.72576,-5.72278 -0.17524,-0.34122 -0.35201,-0.680243 -0.53104,-1.019618 -3.45271,-6.546225 -7.59449,-12.727844 -12.34682,-18.453919 l -2.96638,-0.77377 -5.53037,-1.438769 0.0954,-0.350618 -0.26968,0.245848 C 238.61867,16.631939 183.82353,8.9484257 140.99304,33.683252 c -0.73546,0.424695 -1.46598,0.859784 -2.19058,1.301712 -4.01184,2.446906 -7.84997,5.153473 -11.48803,8.10053 -1.46089,1.18343 -2.88856,2.401096 -4.28155,3.659371 -1.91107,1.72619 -3.75604,3.52137 -5.53037,5.380203 l -0.26967,-0.245848 0.0954,0.350618 -1.3525,0.350639 -3.63018,0.947073 -3.52651,0.914827 -0.029,0.03627 c -1.15991,1.39899 -2.28252,2.826289 -3.36883,4.27998 -22.258601,29.785671 -27.287979,68.558253 -13.330056,102.776033 0.365912,0.89712 0.746082,1.7928 1.13678,2.68004 0.851143,1.93288 1.759463,3.8376 2.725768,5.71873 0.175241,0.34121 0.352017,0.68429 0.53104,1.02366 3.4518,6.54453 7.587748,12.725 12.338498,18.44985 l 2.97472,0.77378 5.53035,1.4428 -0.0954,0.34258 0.26967,-0.24184 c 21.17429,22.18322 50.51884,33.50538 80.00544,32.83742 z"
     id="path22777" /><path
     style="color:#000000;fill:#000000;stroke-width:1.0362;-inkscape-stroke:none"
     d="m 194.81877,121.93997 v 0.002 h 0.36252 v -0.002 z"
     id="path23501" /><path
     style="color:#000000;fill:#000000;stroke-width:2.16512;-inkscape-stroke:none"
     d="m 194.60307,121.93894 v 0.004 h 0.79391 v -0.004 z"
     id="path23499" /><path
     style="color:#000000;fill:#c8c8c8;fill-opacity:1;stroke:#000000;stroke-width:2.06778;stroke-miterlimit:4;stroke-dasharray:none;stroke-opacity:1"
     d="m 194.9995,42.649579 c 43.95832,-2.9e-4 79.58555,35.495647 79.58534,79.291971 -3.5e-4,43.79589 -35.62741,79.29119 -79.58534,79.2909 -43.95749,-3.6e-4 -79.58395,-35.49544 -79.58428,-79.2909 -2.7e-4,-43.795868 35.62636,-79.291619 79.58428,-79.291971 z"
     id="path32204" /></svg>
