<?xml version="1.0" encoding="UTF-8" standalone="no"?>
<svg
   width="501.84155mm"
   height="501.84155mm"
   viewBox="0 0 501.84155 501.84154"
   version="1.1"
   id="svg2"
   sodipodi:version="0.32"
   inkscape:version="1.2.1 (9c6d41e410, 2022-07-14)"
   sodipodi:docname="thumbnail.svg"
   inkscape:output_extension="org.inkscape.output.svg.inkscape"
   xmlns:inkscape="http://www.inkscape.org/namespaces/inkscape"
   xmlns:sodipodi="http://sodipodi.sourceforge.net/DTD/sodipodi-0.dtd"
   xmlns:xlink="http://www.w3.org/1999/xlink"
   xmlns="http://www.w3.org/2000/svg"
   xmlns:svg="http://www.w3.org/2000/svg"
   xmlns:rdf="http://www.w3.org/1999/02/22-rdf-syntax-ns#"
   xmlns:cc="http://creativecommons.org/ns#"
   xmlns:dc="http://purl.org/dc/elements/1.1/">
  <!-- Working space 10 10 410 287 -->
  <circle
     style="fill:#ff0000;fill-opacity:0;stroke:#ff0000;stroke-width:1;stroke-linejoin:bevel;stroke-opacity:0"
     id="path26794"
     cx="250.92078"
     cy="250.92078"
     r="250.42078"
     inkscape:label="circle" />
  <!-- Title block 220 227 410 287 -->
  <metadata
     id="metadata849">
    <rdf:RDF>
      <cc:Work
         rdf:about="">
        <dc:format>image/svg+xml</dc:format>
        <dc:type
           rdf:resource="http://purl.org/dc/dcmitype/StillImage" />
      </cc:Work>
    </rdf:RDF>
  </metadata>
  <path
     id="path1547"
     style="color:#000000;fill:#c8c8c8;fill-opacity:1;stroke:#000000;stroke-width:1.9765;stroke-miterlimit:4;stroke-dasharray:none;stroke-opacity:1"
     d="m 161.36939,141.84569 v 0.34646 l -0.24776,-0.24556 -4.06749,4.04747 h -22.12905 c -5.01062,-8e-5 -9.70054,2.4588 -12.53622,6.57051 -1.56338,2.26688 -3.0712,4.57026 -4.52409,6.90883 l -0.70027,1.1362 -0.69208,1.14434 -0.68491,1.14739 -0.67364,1.15555 -0.66547,1.15861 -0.65829,1.1637 -0.64601,1.17084 -0.63781,1.17491 -0.62758,1.17796 -0.62246,1.18205 -0.60813,1.19019 -0.60301,1.19427 -0.59174,1.19732 -0.58048,1.20242 h -0.004 l -0.56512,1.19732 -0.56103,1.20141 -0.55387,1.20957 -0.54158,1.20955 -0.5293,1.21668 -0.52315,1.21771 -0.51394,1.22382 -0.5037,1.22892 -0.49449,1.22891 -0.48424,1.23604 -0.47607,1.23606 -0.46377,1.24421 -0.45661,1.2442 -0.44944,1.24726 0.32966,0.11611 -0.32966,-0.11215 -1.34217,3.94763 -1.245954,3.98634 -1.14971,4.00976 -1.05244,4.03933 -0.95212,4.06377 -0.85486,4.08211 -0.75453,4.10557 -0.6542,4.11676 -0.55693,4.13612 -0.45251,4.14837 -0.35628,4.15548 -0.25082,4.16364 -0.15563,4.17078 -0.0501,4.16669 0.34808,0.004 -0.34808,0.004 0.0501,4.1677 0.15563,4.17078 0.25082,4.16365 0.35628,4.15548 0.45251,4.14733 0.55693,4.13614 0.6542,4.12186 0.75453,4.10148 0.85486,4.08211 0.95212,4.06276 1.05244,4.04034 1.14971,4.00978 1.245954,3.98532 1.34217,3.94762 0.32966,-0.11116 -0.32966,0.11512 0.44944,1.24829 0.45661,1.24418 0.46377,1.2432 0.47607,1.23707 0.48424,1.23604 0.49449,1.23198 0.5037,1.22485 0.51394,1.22482 0.52315,1.21668 0.5293,1.21772 0.54158,1.20957 0.55387,1.20851 0.56103,1.20244 0.56512,1.19732 h 0.004 l 0.58048,1.20141 0.59174,1.19833 0.60301,1.19326 0.60813,1.19019 0.62246,1.18205 0.62758,1.17897 0.63781,1.17492 0.64601,1.17083 0.65829,1.16268 0.66547,1.15962 0.67364,1.15555 0.68491,1.14739 0.69208,1.14333 0.70027,1.1362 0.29485,-0.17635 -0.29485,0.18031 c 1.45289,2.33847 2.96071,4.63902 4.52409,6.90578 2.83568,4.11173 7.5256,6.5706 12.53622,6.57052 h 22.12905 l 4.06749,4.04747 0.24776,-0.2466 v 0.34646 h 179.10664 v -0.34646 l 0.24779,0.2466 4.06645,-4.04747 h 22.13006 c 5.01065,8e-5 9.70057,-2.45879 12.5362,-6.57052 1.56342,-2.26676 3.07125,-4.56731 4.52412,-6.90578 l -0.22524,-0.1385 0.22524,0.13553 0.70024,-1.1362 0.69213,-1.14434 0.68489,-1.14739 0.67367,-1.15555 0.66544,-1.15962 0.65418,-1.16268 0.65013,-1.17083 0.63782,-1.17492 0.62655,-1.17796 0.61937,-1.18306 0.61118,-1.19019 0.60407,-1.19326 0.58765,-1.19833 0.58457,-1.20141 0.5692,-1.19732 0.56108,-1.20141 0.55279,-1.20954 0.53854,-1.20957 0.5334,-1.21669 0.52214,-1.21771 0.51495,-1.22482 0.50268,-1.22384 0.49551,-1.23299 0.48424,-1.23604 0.47605,-1.23606 0.46379,-1.24421 0.45661,-1.24418 0.44838,-1.24726 -0.27845,-0.10085 0.27845,0.0967 1.3432,-3.9476 1.24597,-3.98634 1.14868,-4.00979 1.05349,-4.0393 0.95107,-4.0638 0.85588,-4.08211 0.75455,-4.10148 0.65317,-4.12085 0.55793,-4.13715 0.45253,-4.14733 0.35524,-4.15548 0.25186,-4.16365 0.15153,-4.17077 0.0502,-4.16771 -0.34811,-0.004 0.34811,-0.004 -0.0502,-4.16772 -0.15153,-4.17078 -0.25186,-4.16364 -0.35524,-4.15548 -0.45253,-4.14734 -0.55793,-4.13715 -0.65317,-4.11676 -0.75455,-4.10557 -0.85588,-4.0821 -0.95521,-4.06378 -1.04935,-4.03933 -1.14868,-4.00976 -1.24597,-3.98634 -1.3432,-3.94763 -0.27845,0.0969 0.27845,-0.0999 -0.44838,-1.24827 -0.45661,-1.2442 -0.46379,-1.2442 -0.47605,-1.23607 -0.48424,-1.23604 -0.49551,-1.2289 -0.50268,-1.2279 -0.51495,-1.22485 -0.52214,-1.21771 -0.5334,-1.21668 -0.53854,-1.20955 -0.55279,-1.20957 -0.56108,-1.20141 -0.5692,-1.19732 -0.58457,-1.20138 -0.58765,-1.19836 -0.60407,-1.19326 -0.61118,-1.19019 -0.61937,-1.18306 -0.62655,-1.17796 -0.63782,-1.17491 -0.65013,-1.17084 -0.65418,-1.16269 -0.66544,-1.15962 -0.67367,-1.15555 -0.68489,-1.14739 -0.69213,-1.14434 -0.70024,-1.13619 c -1.45287,-2.33857 -2.9607,-4.64195 -4.52412,-6.90884 -2.83563,-4.11171 -7.52555,-6.57059 -12.5362,-6.57051 h -22.13006 l -4.07055,-4.04747 -0.24369,0.24251 v -0.34238 z m -29.31499,51.28127 v 0.33016 0.001 0.0159 h 3.86171 v 113.67677 h -3.86171 v 0.0159 0.33118 l -0.007,-0.0119 0.007,-0.31997 -0.49552,-0.0159 h -0.007 l -16.82485,-0.43817 -3.35084,-7.44482 -2.93313,-7.84121 -2.41818,-8.01548 -1.88785,-8.15302 -1.35446,-8.25698 -0.81699,-8.32626 -0.27027,-8.36192 0.27027,-8.36092 0.81699,-8.32729 1.35446,-8.25696 1.88785,-8.15304 2.41818,-8.01443 2.93313,-7.84123 3.35084,-7.44482 16.8402,-0.4392 h 0.008 v -0.004 l 0.47913,-0.0119 -0.007,-0.32302 z m 237.73255,0 0.0113,0.008 -0.007,0.32813 0.47915,0.0119 h 0.008 l 16.84017,0.43919 3.35085,7.44482 2.93214,7.84123 2.41509,8.01444 1.89197,8.15406 1.35441,8.25697 0.81599,8.32626 0.27131,8.36192 -0.27131,8.36091 -0.81599,8.32626 -1.35441,8.258 -1.89197,8.15303 -2.41509,8.01446 -2.93214,7.84121 -3.35085,7.44482 -16.83609,0.43919 v 0.004 l -0.49141,0.0119 0.008,0.31997 -0.0123,0.0119 v -0.34339 h -3.86172 V 193.47618 h 3.86172 z" />
  <defs
     id="defs847">
    <linearGradient
       x1="649.42902"
       y1="807.466"
       x2="655.35199"
       y2="485.909"
       id="defitem29"
       gradientUnits="userSpaceOnUse">
      <stop
         style="stop-color:#ffffff;stop-opacity:1.0000000;"
         offset="0.0000000"
         id="stop92" />
      <stop
         style="stop-color:#ffffff;stop-opacity:0.13756600;"
         offset="1.0000000"
         id="stop93" />
    </linearGradient>
    <linearGradient
       y2="485.909"
       x2="655.35199"
       y1="807.466"
       x1="649.42902"
       gradientUnits="userSpaceOnUse"
       id="linearGradient3448"
       xlink:href="#defitem29"
       inkscape:collect="always" />
    <radialGradient
       cx="1049.72"
       cy="345.56"
       r="1202.15"
       fx="1049.72"
       fy="345.56"
       id="defitem28"
       gradientUnits="userSpaceOnUse">
      <stop
         style="stop-color:#ffffff;stop-opacity:1.0000000;"
         offset="0.0000000"
         id="stop89" />
      <stop
         style="stop-color:#a8a8a8;stop-opacity:1.0000000;"
         offset="1.0000000"
         id="stop90" />
    </radialGradient>
    <radialGradient
       r="1202.15"
       fy="64.844765"
       fx="1089.4004"
       cy="64.845284"
       cx="1092.7045"
       gradientUnits="userSpaceOnUse"
       id="radialGradient3446"
       xlink:href="#defitem28"
       inkscape:collect="always" />
    <linearGradient
       x1="287.5"
       y1="636.70697"
       x2="980"
       y2="636.70697"
       id="defitem30"
       gradientUnits="userSpaceOnUse">
      <stop
         style="stop-color:#464646;stop-opacity:1.0000000;"
         offset="0.0000000"
         id="stop95" />
      <stop
         style="stop-color:#c2c2c2;stop-opacity:1.0000000;"
         offset="1.0000000"
         id="stop96" />
    </linearGradient>
    <linearGradient
       y2="636.70697"
       x2="980"
       y1="636.70697"
       x1="287.5"
       gradientTransform="matrix(1,0,0,1.016038,0,-11.73855)"
       gradientUnits="userSpaceOnUse"
       id="linearGradient3444"
       xlink:href="#defitem30"
       inkscape:collect="always" />
    <linearGradient
       x1="921.091"
       y1="403.18799"
       x2="985.98199"
       y2="317.44699"
       id="defitem27"
       gradientUnits="userSpaceOnUse">
      <stop
         style="stop-color:#7e7e7e;stop-opacity:1.0000000;"
         offset="0.0000000"
         id="stop86" />
      <stop
         style="stop-color:#e5e5e5;stop-opacity:1.0000000;"
         offset="1.0000000"
         id="stop87" />
    </linearGradient>
    <linearGradient
       y2="317.44699"
       x2="985.98199"
       y1="403.18799"
       x1="921.091"
       gradientUnits="userSpaceOnUse"
       id="linearGradient3442"
       xlink:href="#defitem27"
       inkscape:collect="always" />
    <linearGradient
       x1="530.76099"
       y1="346.30399"
       x2="293.37"
       y2="360.27499"
       id="defitem26"
       gradientUnits="userSpaceOnUse">
      <stop
         style="stop-color:#5f5f5f;stop-opacity:1.0000000;"
         offset="0.0000000"
         id="stop83" />
      <stop
         style="stop-color:#e5e5e5;stop-opacity:1.0000000;"
         offset="1.0000000"
         id="stop84" />
    </linearGradient>
    <linearGradient
       y2="360.27499"
       x2="293.37"
       y1="346.30399"
       x1="530.76099"
       gradientUnits="userSpaceOnUse"
       id="linearGradient3440"
       xlink:href="#defitem26"
       inkscape:collect="always" />
    <linearGradient
       x1="164.013"
       y1="412.91901"
       x2="308.75"
       y2="337.60999"
       id="defitem25"
       gradientUnits="userSpaceOnUse">
      <stop
         style="stop-color:#ffffff;stop-opacity:1.0000000;"
         offset="0.0000000"
         id="stop80" />
      <stop
         style="stop-color:#bfbfbf;stop-opacity:1.0000000;"
         offset="1.0000000"
         id="stop81" />
    </linearGradient>
    <linearGradient
       y2="337.60999"
       x2="308.75"
       y1="412.91901"
       x1="164.013"
       gradientUnits="userSpaceOnUse"
       id="linearGradient3438"
       xlink:href="#defitem25"
       inkscape:collect="always" />
    <linearGradient
       x1="1094.25"
       y1="270.854"
       x2="992.48901"
       y2="380.47198"
       id="defitem24"
       gradientUnits="userSpaceOnUse">
      <stop
         style="stop-color:#6a6a6a;stop-opacity:1.0000000;"
         offset="0.0000000"
         id="stop77" />
      <stop
         style="stop-color:#e6e6e6;stop-opacity:1.0000000;"
         offset="1.0000000"
         id="stop78" />
    </linearGradient>
    <linearGradient
       y2="380.47198"
       x2="992.48901"
       y1="270.854"
       x1="1094.25"
       gradientUnits="userSpaceOnUse"
       id="linearGradient3436"
       xlink:href="#defitem24"
       inkscape:collect="always" />
    <linearGradient
       x1="1170.91"
       y1="476.465"
       x2="1049.84"
       y2="549.37799"
       id="defitem23"
       gradientUnits="userSpaceOnUse">
      <stop
         style="stop-color:#5f5f5f;stop-opacity:1.0000000;"
         offset="0.0000000"
         id="stop74" />
      <stop
         style="stop-color:#ebebeb;stop-opacity:1.0000000;"
         offset="1.0000000"
         id="stop75" />
    </linearGradient>
    <linearGradient
       y2="549.37799"
       x2="1049.84"
       y1="476.465"
       x1="1170.91"
       gradientUnits="userSpaceOnUse"
       id="linearGradient3434"
       xlink:href="#defitem23"
       inkscape:collect="always" />
    <linearGradient
       x1="783.716"
       y1="105.486"
       x2="576.14899"
       y2="313.276"
       id="defitem22"
       gradientUnits="userSpaceOnUse">
      <stop
         style="stop-color:#5a5a5a;stop-opacity:1.0000000;"
         offset="0.0000000"
         id="stop71" />
      <stop
         style="stop-color:#c7c7c7;stop-opacity:1.0000000;"
         offset="1.0000000"
         id="stop72" />
    </linearGradient>
    <linearGradient
       y2="313.276"
       x2="576.14899"
       y1="105.486"
       x1="783.716"
       gradientUnits="userSpaceOnUse"
       id="linearGradient3432"
       xlink:href="#defitem22"
       inkscape:collect="always" />
    <linearGradient
       x1="280.04401"
       y1="418.698"
       x2="128.05499"
       y2="484.716"
       id="defitem21"
       gradientUnits="userSpaceOnUse">
      <stop
         style="stop-color:#666666;stop-opacity:1.0000000;"
         offset="0.0000000"
         id="stop68" />
      <stop
         style="stop-color:#d8d8d8;stop-opacity:1.0000000;"
         offset="1.0000000"
         id="stop69" />
    </linearGradient>
    <linearGradient
       y2="484.716"
       x2="128.05499"
       y1="418.698"
       x1="280.04401"
       gradientUnits="userSpaceOnUse"
       id="linearGradient3430"
       xlink:href="#defitem21"
       inkscape:collect="always" />
    <linearGradient
       x1="129.687"
       y1="636.95398"
       x2="220"
       y2="584.40997"
       id="defitem20"
       gradientUnits="userSpaceOnUse">
      <stop
         style="stop-color:#ffffff;stop-opacity:1.0000000;"
         offset="0.0000000"
         id="stop65" />
      <stop
         style="stop-color:#bbbbbb;stop-opacity:1.0000000;"
         offset="1.0000000"
         id="stop66" />
    </linearGradient>
    <linearGradient
       y2="584.40997"
       x2="220"
       y1="636.95398"
       x1="129.687"
       gradientUnits="userSpaceOnUse"
       id="linearGradient3428"
       xlink:href="#defitem20"
       inkscape:collect="always" />
    <linearGradient
       x1="1048.72"
       y1="629.02802"
       x2="1127.98"
       y2="583.75299"
       id="defitem19"
       gradientUnits="userSpaceOnUse">
      <stop
         style="stop-color:#5e5e5e;stop-opacity:1.0000000;"
         offset="0.0000000"
         id="stop62" />
      <stop
         style="stop-color:#ededed;stop-opacity:1.0000000;"
         offset="1.0000000"
         id="stop63" />
    </linearGradient>
    <linearGradient
       y2="583.75299"
       x2="1127.98"
       y1="629.02802"
       x1="1048.72"
       gradientUnits="userSpaceOnUse"
       id="linearGradient3426"
       xlink:href="#defitem19"
       inkscape:collect="always" />
    <linearGradient
       x1="370.022"
       y1="387.27301"
       x2="581.32397"
       y2="291.97699"
       id="defitem18"
       gradientUnits="userSpaceOnUse">
      <stop
         style="stop-color:#636363;stop-opacity:1.0000000;"
         offset="0.0000000"
         id="stop59" />
      <stop
         style="stop-color:#d6d6d6;stop-opacity:1.0000000;"
         offset="1.0000000"
         id="stop60" />
    </linearGradient>
    <linearGradient
       y2="291.97699"
       x2="581.32397"
       y1="387.27301"
       x1="370.022"
       gradientUnits="userSpaceOnUse"
       id="linearGradient3424"
       xlink:href="#defitem18"
       inkscape:collect="always" />
    <linearGradient
       x1="732.15601"
       y1="351.939"
       x2="909.59399"
       y2="351.939"
       id="defitem17"
       gradientUnits="userSpaceOnUse">
      <stop
         style="stop-color:#676767;stop-opacity:1.0000000;"
         offset="0.0000000"
         id="stop56" />
      <stop
         style="stop-color:#d3d3d3;stop-opacity:1.0000000;"
         offset="1.0000000"
         id="stop57" />
    </linearGradient>
    <linearGradient
       y2="351.939"
       x2="909.59399"
       y1="351.939"
       x1="732.15601"
       gradientUnits="userSpaceOnUse"
       id="linearGradient3422"
       xlink:href="#defitem17"
       inkscape:collect="always" />
    <linearGradient
       x1="1014.43"
       y1="494.71301"
       x2="1073.01"
       y2="494.71301"
       id="defitem16"
       gradientUnits="userSpaceOnUse">
      <stop
         style="stop-color:#666666;stop-opacity:1.0000000;"
         offset="0.0000000"
         id="stop53" />
      <stop
         style="stop-color:#dcdcdc;stop-opacity:1.0000000;"
         offset="1.0000000"
         id="stop54" />
    </linearGradient>
    <linearGradient
       y2="494.71301"
       x2="1073.01"
       y1="494.71301"
       x1="1014.43"
       gradientUnits="userSpaceOnUse"
       id="linearGradient3420"
       xlink:href="#defitem16"
       inkscape:collect="always" />
    <linearGradient
       x1="272.59201"
       y1="452.388"
       x2="193.27699"
       y2="516.37"
       id="defitem15"
       gradientUnits="userSpaceOnUse">
      <stop
         style="stop-color:#6e6e6e;stop-opacity:1.0000000;"
         offset="0.0000000"
         id="stop50" />
      <stop
         style="stop-color:#d8d8d8;stop-opacity:1.0000000;"
         offset="1.0000000"
         id="stop51" />
    </linearGradient>
    <linearGradient
       y2="516.37"
       x2="193.27699"
       y1="452.388"
       x1="272.59201"
       gradientUnits="userSpaceOnUse"
       id="linearGradient3418"
       xlink:href="#defitem15"
       inkscape:collect="always" />
    <radialGradient
       cx="1037.22"
       cy="211.088"
       r="1164.28"
       fx="1037.22"
       fy="211.088"
       id="defitem14"
       gradientUnits="userSpaceOnUse">
      <stop
         style="stop-color:#ffffff;stop-opacity:1.0000000;"
         offset="0.0000000"
         id="stop47" />
      <stop
         style="stop-color:#aaaaaa;stop-opacity:1.0000000;"
         offset="1.0000000"
         id="stop48" />
    </radialGradient>
    <radialGradient
       r="1164.28"
       fy="211.088"
       fx="1037.22"
       cy="211.088"
       cx="1037.22"
       gradientUnits="userSpaceOnUse"
       id="radialGradient3416"
       xlink:href="#defitem14"
       inkscape:collect="always" />
    <linearGradient
       x1="342.64999"
       y1="732.12903"
       x2="379.241"
       y2="686.83002"
       id="defitem13"
       gradientUnits="userSpaceOnUse">
      <stop
         style="stop-color:#ffffff;stop-opacity:1.0000000;"
         offset="0.0000000"
         id="stop44" />
      <stop
         style="stop-color:#989898;stop-opacity:1.0000000;"
         offset="1.0000000"
         id="stop45" />
    </linearGradient>
    <linearGradient
       y2="686.83002"
       x2="379.241"
       y1="732.12903"
       x1="342.64999"
       gradientUnits="userSpaceOnUse"
       id="linearGradient3414"
       xlink:href="#defitem13"
       inkscape:collect="always" />
    <radialGradient
       cx="632.78101"
       cy="484.409"
       r="540.27899"
       fx="632.78101"
       fy="484.409"
       id="defitem12"
       gradientUnits="userSpaceOnUse">
      <stop
         style="stop-color:#ffffff;stop-opacity:1.0000000;"
         offset="0.0000000"
         id="stop41" />
      <stop
         style="stop-color:#ededed;stop-opacity:1.0000000;"
         offset="1.0000000"
         id="stop42" />
    </radialGradient>
    <radialGradient
       r="540.27899"
       fy="484.409"
       fx="632.78101"
       cy="484.409"
       cx="632.78101"
       gradientUnits="userSpaceOnUse"
       id="radialGradient3412"
       xlink:href="#defitem12"
       inkscape:collect="always" />
    <inkscape:perspective
       id="perspective3148"
       inkscape:persp3d-origin="32 : 226.17488 : 1"
       inkscape:vp_z="64 : 236.84155 : 1"
       inkscape:vp_y="0 : 999.99994 : 0"
       inkscape:vp_x="0 : 236.84155 : 1"
       sodipodi:type="inkscape:persp3d" />
    <linearGradient
       id="linearGradient3682">
      <stop
         id="stop3684"
         offset="0"
         style="stop-color:#ff6d0f;stop-opacity:1;" />
      <stop
         id="stop3686"
         offset="1"
         style="stop-color:#ff1000;stop-opacity:1;" />
    </linearGradient>
    <linearGradient
       id="linearGradient3864">
      <stop
         style="stop-color:#71b2f8;stop-opacity:1;"
         offset="0"
         id="stop3866" />
      <stop
         style="stop-color:#002795;stop-opacity:1;"
         offset="1"
         id="stop3868" />
    </linearGradient>
  </defs>
  <sodipodi:namedview
     inkscape:window-height="1051"
     inkscape:window-width="1920"
     inkscape:pageshadow="2"
     inkscape:pageopacity="0.0"
     guidetolerance="10.0"
     gridtolerance="10.0"
     objecttolerance="10.0"
     borderopacity="1.0"
     bordercolor="#666666"
     pagecolor="#ffffff"
     id="base"
     inkscape:window-x="-9"
     inkscape:window-y="131"
     inkscape:current-layer="svg2"
     inkscape:document-units="mm"
     showgrid="false"
     inkscape:window-maximized="1"
     inkscape:pagecheckerboard="0"
     inkscape:zoom="0.35183284"
     inkscape:cx="1333.0194"
     inkscape:cy="993.36945"
     inkscape:showpageshadow="2"
     inkscape:deskcolor="#d1d1d1" />
  <path
     id="path7780"
     style="color:#000000;fill:#c8c8c8;fill-opacity:1;stroke:#000000;stroke-width:1.987;stroke-miterlimit:4;stroke-dasharray:none;stroke-opacity:1"
     d="m 68.914276,199.30461 h 0.23729 0.45513 0.5835 0.71187 0.84414 0.97251 1.10088 1.23314 1.36151 1.48988 1.61825 1.52488 c 0.31293,0.56865 0.62764,1.24606 0.94528,2.10238 0.34291,0.92773 0.68964,2.02468 1.02307,3.26001 0.66829,2.4625 1.29004,5.48827 1.86721,9.06764 v 73.15672 c -0.28686,1.78499 -0.58844,3.44118 -0.90247,4.95972 -0.31651,1.52657 -0.64589,2.91929 -0.9803,4.15438 -0.64768,2.39172 -1.30798,4.12828 -1.96446,5.31205 h -1.51321 -1.61825 -1.48988 -1.36151 -1.23314 -1.10088 -0.97251 -0.84414 -0.71187 -0.5835 -0.45513 -0.23729 z m 12.89153,0 h 36.749074 v 1.11508 1.90875 2.33466 2.73734 3.12452 3.47295 3.79817 4.08858 4.34024 4.55706 4.7274 4.85904 4.94811 1.70744 l -0.40456,-0.92149 -0.8519,-1.38219 -1.08533,-1.37062 -1.31873,-1.35899 -1.5521,-1.35124 -1.78163,-1.33962 -2.01503,-1.328 -2.24066,-1.32029 -2.46627,-1.30863 -2.6958,-1.30091 -2.917514,-1.28544 -2.99533,-1.21572 -0.47458,-1.29317 -0.57183,-1.42481 -0.60685,-1.40544 -0.64574,-1.38609 -0.68465,-1.36672 -0.72355,-1.3435 -0.75855,-1.32413 -0.79355,-1.29704 -0.82858,-1.27381 -0.86359,-1.24672 -0.8986,-1.22345 -0.9297,-1.19251 -0.96475,-1.16151 -0.92969,-1.06087 c -0.57565,-3.55472 -1.196,-6.58268 -1.86722,-9.05603 -0.33777,-1.25133 -0.69034,-2.36517 -1.04253,-3.31808 -0.27625,-0.7447 -0.55766,-1.31117 -0.84026,-1.86232 z m 37.445394,0 h 2.98365 16.79712 29.01961 21.06448 123.60944 21.0606 29.02347 16.79323 2.98366 v 1.11508 1.90875 2.33466 2.73734 3.12452 3.47295 3.79817 4.08858 4.34024 4.55706 4.7274 4.85904 4.94811 4.96356 0.031 0.031 4.96358 4.94809 4.85906 4.7274 4.55706 4.34022 4.0847 3.80207 3.47295 3.1245 2.73734 2.33468 1.90877 1.11506 H 379.6028 362.80957 333.7861 312.7255 189.11606 168.05158 139.03197 122.23485 119.2512 v -1.11506 -1.90877 -2.33468 -2.73734 -3.1245 -3.47295 -3.80207 -4.0847 -4.34022 -4.55706 -4.7274 -4.85906 -4.94809 -4.96358 -0.031 -0.031 -4.96356 -4.94811 -4.85904 -4.7274 -4.55706 -4.34024 -4.08858 -3.79817 -3.47295 -3.12452 -2.73734 -2.33466 -1.90875 z m 264.03158,0 h 36.74906 c -0.28258,0.55115 -0.56399,1.11762 -0.84024,1.86232 -0.35221,0.95291 -0.70087,2.06675 -1.03864,3.31808 -0.67122,2.47335 -1.29548,5.50131 -1.8711,9.05603 l -0.92972,1.06087 -0.96084,1.16151 -0.9336,1.19251 -0.89859,1.22345 -0.86358,1.24672 -0.82858,1.27381 -0.79357,1.29704 -0.75856,1.32413 -0.72354,1.3435 -0.68465,1.36672 -0.64574,1.38609 -0.60683,1.40544 -0.56795,1.42481 -0.47849,1.29317 -2.9953,1.21572 -2.91753,1.28544 -2.69579,1.30091 -2.46626,1.30863 -2.24066,1.32029 -2.01115,1.328 -1.78163,1.33962 -1.55212,1.35124 -1.32262,1.35899 -1.08531,1.37062 -0.84801,1.38219 -0.40846,0.92535 v -1.7113 -4.94811 -4.85904 -4.7274 -4.55706 -4.34024 -4.08858 -3.79817 -3.47295 -3.12452 -2.73734 -2.33466 -1.90875 z m 37.5115,0 h 1.52101 1.61825 1.48988 1.36152 1.23313 1.10087 0.97251 0.84413 0.71578 0.5835 0.45513 0.23729 v 102.0129 h -0.23729 -0.45513 -0.5835 -0.71578 -0.84413 -0.97251 -1.10087 -1.23313 -1.36152 -1.48988 -1.61825 -1.50934 c -0.65646,-1.18377 -1.32067,-2.92033 -1.96834,-5.31205 -0.33439,-1.23509 -0.66378,-2.62781 -0.98028,-4.15438 -0.31403,-1.51854 -0.61563,-3.17473 -0.90249,-4.95972 v -73.15672 c 0.57719,-3.57937 1.20282,-6.60514 1.87109,-9.06764 0.33345,-1.23533 0.6763,-2.33228 1.01919,-3.26001 0.31765,-0.85636 0.63623,-1.53371 0.94916,-2.10238 z m -335.215144,15.31664 0.37344,0.4259 0.95307,1.14991 0.91804,1.17702 0.88693,1.20411 0.8519,1.23121 0.8208,1.25834 0.7819,1.28154 0.75077,1.30476 0.71188,1.32802 0.67298,1.35126 0.63796,1.36672 0.60294,1.38994 0.56017,1.40545 0.5057,1.36674 v 36.89778 l -0.5057,1.36672 -0.56017,1.40547 -0.60294,1.38994 -0.63796,1.36672 -0.67298,1.35124 -0.71188,1.32802 -0.75077,1.3048 -0.7819,1.28152 -0.8208,1.25834 -0.8519,1.23121 -0.88693,1.20411 -0.91804,1.177 -0.95307,1.14605 -0.37344,0.42588 z m 330.679384,0 v 71.37572 l -0.37345,-0.42588 -0.94916,-1.14605 -0.92193,-1.177 -0.88304,-1.20411 -0.8558,-1.23121 -0.81692,-1.25834 -0.78578,-1.28152 -0.74689,-1.3048 -0.71186,-1.32802 -0.67687,-1.35124 -0.63796,-1.36672 -0.60296,-1.38994 -0.56016,-1.40547 -0.50571,-1.37447 v -36.8823 l 0.50571,-1.37447 0.56016,-1.40545 0.60296,-1.38994 0.63796,-1.36672 0.67687,-1.35126 0.71186,-1.32802 0.74689,-1.30476 0.78578,-1.28154 0.81692,-1.25834 0.8558,-1.23121 0.88304,-1.20411 0.92193,-1.17702 0.94916,-1.14991 z m -319.954574,17.69779 2.6491,1.07636 2.898084,1.27766 2.67243,1.2854 2.43905,1.29705 2.21343,1.3009 1.98002,1.30868 1.74662,1.31251 1.50934,1.31253 1.27592,1.31639 1.03864,1.31251 0.80135,1.30478 0.57182,1.30091 0.34232,1.29705 0.11273,1.27768 v 0.012 0.012 l -0.11273,1.27768 -0.34232,1.29703 -0.57182,1.30092 -0.80135,1.30476 -1.03864,1.31254 -1.27592,1.31253 -1.50934,1.31639 -1.74662,1.31251 -1.98002,1.30866 -2.21343,1.30092 -2.43905,1.29701 -2.67243,1.28544 -2.898084,1.27766 -2.6491,1.07636 z m 309.229784,0 v 35.98404 l -2.64522,-1.07636 -2.90197,-1.27766 -2.66854,-1.28542 -2.44295,-1.29703 -2.21343,-1.3009 -1.98003,-1.30868 -1.74273,-1.31251 -1.51321,-1.31639 -1.27593,-1.31253 -1.03863,-1.31251 -0.80134,-1.30478 -0.57183,-1.30091 -0.34233,-1.29705 -0.10895,-1.28929 0.10895,-1.28929 0.34233,-1.29705 0.57183,-1.30091 0.80134,-1.30478 1.03863,-1.31251 1.27593,-1.31639 1.51321,-1.31253 1.74273,-1.31251 1.98003,-1.30868 2.21343,-1.3009 2.44295,-1.29705 2.66854,-1.2854 2.90197,-1.27766 z m -22.25095,21.27527 0.40846,0.92535 0.84801,1.38221 1.08531,1.3706 1.32262,1.35897 1.55212,1.35124 1.78163,1.33964 2.01115,1.328 2.24066,1.32027 2.46626,1.30865 2.69579,1.30091 2.91753,1.28544 2.9953,1.21572 0.47849,1.29315 0.56795,1.42481 0.60683,1.40546 0.64574,1.38609 0.68465,1.36672 0.72354,1.34348 0.75856,1.32415 0.79357,1.29704 0.82858,1.27381 0.86358,1.2467 0.89859,1.22347 0.9336,1.19249 0.96084,1.16153 0.92972,1.05699 c 0.2843,1.76202 0.58323,3.40708 0.89471,4.91325 0.31886,1.53792 0.64927,2.94565 0.98806,4.197 0.61514,2.27149 1.24893,3.87287 1.90611,5.13006 h -36.78796 v -1.11508 -1.90875 -2.33468 -2.73734 -3.1245 -3.47295 -3.80207 -4.0847 -4.34022 -4.55706 -4.7274 -4.85906 -4.94809 z m -264.7279,0.004 v 1.70744 4.94809 4.85906 4.7274 4.55706 4.34022 4.0847 3.80207 3.47295 3.1245 2.73734 2.33468 1.90875 1.11508 H 81.766916 c 0.6572,-1.25719 1.29099,-2.85857 1.90611,-5.13007 0.33881,-1.25134 0.6731,-2.65907 0.99196,-4.19699 0.31146,-1.50615 0.60653,-3.15123 0.89083,-4.91327 l 0.92969,-1.05697 0.96475,-1.16153 0.9297,-1.19249 0.8986,-1.22347 0.86359,-1.2467 0.82858,-1.27381 0.79355,-1.29704 0.75855,-1.32415 0.72355,-1.34348 0.68465,-1.36672 0.64574,-1.38609 0.60685,-1.40546 0.57183,-1.42481 0.47458,-1.29315 2.99533,-1.21572 2.917514,-1.28544 2.6958,-1.30091 2.46627,-1.30865 2.24066,-1.32027 2.01503,-1.328 1.78163,-1.33964 1.5521,-1.35124 1.31873,-1.35897 1.08533,-1.37062 0.8519,-1.38219 z" />
  <path
     style="color:#000000;fill:#c8c8c8;fill-opacity:1;stroke:#000000;stroke-width:2;stroke-opacity:1;-inkscape-stroke:none"
     d="m 183.43043,68.429276 h 9.39478 9.57875 9.63248 9.68004 9.71414 9.74204 9.7503 9.75033 9.7379 9.71518 9.68002 9.63662 9.57358 9.39479 c 3.59922,2.539241 7.21544,5.089601 10.84378,7.649162 0.45922,0.32402 0.97014,0.6857 1.55856,1.1007 0.5871,0.41394 1.25212,0.8828 1.99988,1.41076 h 0.004 c 0.74886,0.5279 1.58092,1.1186 2.51562,1.77768 0.93466,0.65896 1.96858,1.387341 3.07372,2.167301 0.52478,0.36994 1.05068,0.74052 1.57818,1.11312 v 0.004 c 2.20468,1.55498 4.41402,3.10896 6.6022,4.652941 2.0857,1.47052 4.15758,2.932 6.21874,4.3863 l 0.27698,0.1994 c 5.35464,5.277461 10.23324,10.636 14.32471,16.12512 5.6e-4,7.4e-4 -5.6e-4,0.004 0,0.004 4.10694,5.43586 7.48092,11.00564 10.22678,16.68735 v 0.47646 13.24984 13.4214 26.93377 53.45721 4.94956 h 0.69866 v -0.031 h 12.238 v 0.3514 0.53434 0.68006 0.80822 0.9343 1.04698 1.1441 1.2268 1.29296 1.34772 1.38286 1.39836 1.4025 1.37872 1.34772 1.29708 1.22576 1.14516 1.04282 0.93328 0.81236 0.67592 0.5395 0.3514 h -14.8704 v 0.0506 h -0.50022 l 0.004,-0.059 c -3.72644,21.17642 -6.79728,42.47377 -9.37927,63.83282 -3.23066,26.68518 -5.697,53.46443 -7.90236,80.25763 -0.97012,11.764 -1.89148,23.52943 -2.81224,35.29709 h 0.0228 l -7.50756,23.0973 -0.1292,0.09 -0.1756,0.121 -0.22634,0.156 -0.277,0.1954 -0.32452,0.22738 -0.37518,0.26148 -0.4289,0.29662 -0.47336,0.32866 -0.52296,0.36276 -0.57464,0.39896 -0.61702,0.43304 -0.57774,0.40204 h -0.0786 -0.2067 -0.21912 -0.23874 -0.24908 -0.26974 -0.28526 -0.29662 -0.31316 -0.32764 -0.34416 -0.35966 -0.37104 -0.3824 v 0.27802 l -0.0548,-0.012 -1.95648,7.83208 -9.0351,11.55073 h -0.31316 -1.449 -2.39882 -3.31246 -4.18684 -5.00848 -5.76503 -6.45748 -7.05796 -7.57474 -7.99642 -8.31576 -8.53592 -8.64031 -8.64442 -8.53076 -8.3168 -8.00054 -7.5737 -7.059 -6.45232 -5.77021 -5.00744 -4.18786 -3.31246 -2.39468 -1.449 -0.31626 l -9.03512,-11.55899 -1.92546,-7.69876 v -0.39022 h -0.43408 -0.41444 -0.40206 -0.3824 -0.3669 -0.35244 -0.33588 -0.31626 -0.30076 -0.28112 -0.26562 -0.1716 l -0.57878,-0.40204 -0.62116,-0.43408 -0.5736,-0.39792 -0.524,-0.3638 -0.47232,-0.32762 -0.42582,-0.29662 -0.37516,-0.26252 -0.32764,-0.22634 -0.27802,-0.1954 -0.22634,-0.156 -0.1758,-0.121 -0.125,-0.09 -0.004,-0.004 -7.51892,-23.12934 c -1.02714,-12.5575 -2.05456,-25.11445 -3.13676,-37.66799 -2.46218,-28.61532 -5.21739,-57.21483 -8.82427,-85.71468 -2.35256,-18.61244 -5.06552,-37.18129 -8.24652,-55.67207 l -0.3235,0.0548 v -0.34314 h -14.89522 v -0.35242 -0.53848 -0.67592 -0.81236 -0.93328 -1.04386 -1.14412 -1.2268 -1.29706 -1.34772 -1.37874 -1.4025 -1.39836 -1.38286 -1.34772 -1.29294 -1.22578 -1.14514 -1.04696 -0.93328 -0.80822 -0.68006 -0.53538 -0.3514 h 12.59046 v -0.004 h 0.3514 v -15.01925 -0.97978 -29.69948 -45.42257 -20.03082 -0.555 -0.95704 c 2.77028,-5.60887 6.14352,-11.10855 10.22262,-16.47653 l -0.35552,-0.26872 0.35966,0.26562 c 4.04732,-5.46216 8.88359,-10.794259 14.20689,-16.0476 0.002,-0.002 0.006,-0.002 0.008,-0.004 0.1048,-0.0742 0.21082,-0.1472 0.3173,-0.2222 l 0.004,-0.004 c 4.4e-4,-3e-4 0.004,3.2e-4 0.004,0 0.004,-0.002 0.014,-0.012 0.0206,-0.016 l 0.008,-0.004 c 0.006,-0.004 0.0238,-0.018 0.032,-0.0238 0.01,-0.006 0.018,-0.012 0.0268,-0.02 0.0318,-0.0224 0.062,-0.0438 0.094,-0.0662 8.8e-4,-6.2e-4 0.004,6e-4 0.004,0 2.82534,-1.99422 5.64954,-3.98892 8.44498,-5.960361 1.98202,-1.39802 3.94986,-2.78772 5.84046,-4.12172 0.35872,-0.2527 0.70776,-0.50072 1.05006,-0.74208 l -0.2563,-0.362761 0.2594,0.362761 c 1.42552,-1.005981 2.6894,-1.896121 3.79307,-2.674761 5.07369,-3.578861 10.11739,-7.139861 15.13601,-10.680502 z"
     id="path21932" />
  <rect
     style="fill:#00ff00;fill-opacity:0;stroke:#00ff00;stroke-width:1;stroke-linejoin:bevel;stroke-opacity:0"
     id="rect27472"
     width="113.55416"
     height="31.5846"
     x="194.14371"
     y="125.71039" />
</svg>
