<?xml version="1.0" encoding="UTF-8" standalone="no"?>
<svg
   id="svg2"
   version="1.1"
   viewBox="0 0 343.06092 218.32588"
   height="218.32588mm"
   width="343.06091mm"
   sodipodi:docname="thumbnail.svg"
   inkscape:version="1.2.1 (9c6d41e410, 2022-07-14)"
   xmlns:inkscape="http://www.inkscape.org/namespaces/inkscape"
   xmlns:sodipodi="http://sodipodi.sourceforge.net/DTD/sodipodi-0.dtd"
   xmlns:xlink="http://www.w3.org/1999/xlink"
   xmlns="http://www.w3.org/2000/svg"
   xmlns:svg="http://www.w3.org/2000/svg"
   xmlns:rdf="http://www.w3.org/1999/02/22-rdf-syntax-ns#"
   xmlns:cc="http://creativecommons.org/ns#"
   xmlns:dc="http://purl.org/dc/elements/1.1/">
  <sodipodi:namedview
     id="namedview387"
     pagecolor="#ffffff"
     bordercolor="#000000"
     borderopacity="0.25"
     inkscape:showpageshadow="2"
     inkscape:pageopacity="0.0"
     inkscape:pagecheckerboard="0"
     inkscape:deskcolor="#d1d1d1"
     inkscape:document-units="mm"
     showgrid="false"
     inkscape:zoom="0.52032068"
     inkscape:cx="214.29093"
     inkscape:cy="581.37225"
     inkscape:window-width="1920"
     inkscape:window-height="1013"
     inkscape:window-x="-9"
     inkscape:window-y="135"
     inkscape:window-maximized="1"
     inkscape:current-layer="svg2" />
  <!-- Working space 10 10 410 287 -->
  <!-- Title block 220 227 410 287 -->
  <metadata
     id="metadata849">
    <rdf:RDF>
      <cc:Work
         rdf:about="">
        <dc:format>image/svg+xml</dc:format>
        <dc:type
           rdf:resource="http://purl.org/dc/dcmitype/StillImage" />
      </cc:Work>
    </rdf:RDF>
  </metadata>
  <defs
     id="defs847">
    <linearGradient
       gradientUnits="userSpaceOnUse"
       id="defitem29"
       y2="485.909"
       x2="655.35199"
       y1="807.466"
       x1="649.42902">
      <stop
         id="stop92"
         offset="0.0000000"
         style="stop-color:#ffffff;stop-opacity:1.0000000;" />
      <stop
         id="stop93"
         offset="1.0000000"
         style="stop-color:#ffffff;stop-opacity:0.13756600;" />
    </linearGradient>
    <linearGradient
       xlink:href="#defitem29"
       id="linearGradient3448"
       gradientUnits="userSpaceOnUse"
       x1="649.42902"
       y1="807.466"
       x2="655.35199"
       y2="485.909" />
    <radialGradient
       gradientUnits="userSpaceOnUse"
       id="defitem28"
       fy="345.56"
       fx="1049.72"
       r="1202.15"
       cy="345.56"
       cx="1049.72">
      <stop
         id="stop89"
         offset="0.0000000"
         style="stop-color:#ffffff;stop-opacity:1.0000000;" />
      <stop
         id="stop90"
         offset="1.0000000"
         style="stop-color:#a8a8a8;stop-opacity:1.0000000;" />
    </radialGradient>
    <radialGradient
       xlink:href="#defitem28"
       id="radialGradient3446"
       gradientUnits="userSpaceOnUse"
       cx="1092.7045"
       cy="64.845284"
       fx="1089.4004"
       fy="64.844765"
       r="1202.15" />
    <linearGradient
       gradientUnits="userSpaceOnUse"
       id="defitem30"
       y2="636.70697"
       x2="980"
       y1="636.70697"
       x1="287.5">
      <stop
         id="stop95"
         offset="0.0000000"
         style="stop-color:#464646;stop-opacity:1.0000000;" />
      <stop
         id="stop96"
         offset="1.0000000"
         style="stop-color:#c2c2c2;stop-opacity:1.0000000;" />
    </linearGradient>
    <linearGradient
       xlink:href="#defitem30"
       id="linearGradient3444"
       gradientUnits="userSpaceOnUse"
       gradientTransform="matrix(1,0,0,1.016038,0,-11.73855)"
       x1="287.5"
       y1="636.70697"
       x2="980"
       y2="636.70697" />
    <linearGradient
       gradientUnits="userSpaceOnUse"
       id="defitem27"
       y2="317.44699"
       x2="985.98199"
       y1="403.18799"
       x1="921.091">
      <stop
         id="stop86"
         offset="0.0000000"
         style="stop-color:#7e7e7e;stop-opacity:1.0000000;" />
      <stop
         id="stop87"
         offset="1.0000000"
         style="stop-color:#e5e5e5;stop-opacity:1.0000000;" />
    </linearGradient>
    <linearGradient
       xlink:href="#defitem27"
       id="linearGradient3442"
       gradientUnits="userSpaceOnUse"
       x1="921.091"
       y1="403.18799"
       x2="985.98199"
       y2="317.44699" />
    <linearGradient
       gradientUnits="userSpaceOnUse"
       id="defitem26"
       y2="360.27499"
       x2="293.37"
       y1="346.30399"
       x1="530.76099">
      <stop
         id="stop83"
         offset="0.0000000"
         style="stop-color:#5f5f5f;stop-opacity:1.0000000;" />
      <stop
         id="stop84"
         offset="1.0000000"
         style="stop-color:#e5e5e5;stop-opacity:1.0000000;" />
    </linearGradient>
    <linearGradient
       xlink:href="#defitem26"
       id="linearGradient3440"
       gradientUnits="userSpaceOnUse"
       x1="530.76099"
       y1="346.30399"
       x2="293.37"
       y2="360.27499" />
    <linearGradient
       gradientUnits="userSpaceOnUse"
       id="defitem25"
       y2="337.60999"
       x2="308.75"
       y1="412.91901"
       x1="164.013">
      <stop
         id="stop80"
         offset="0.0000000"
         style="stop-color:#ffffff;stop-opacity:1.0000000;" />
      <stop
         id="stop81"
         offset="1.0000000"
         style="stop-color:#bfbfbf;stop-opacity:1.0000000;" />
    </linearGradient>
    <linearGradient
       xlink:href="#defitem25"
       id="linearGradient3438"
       gradientUnits="userSpaceOnUse"
       x1="164.013"
       y1="412.91901"
       x2="308.75"
       y2="337.60999" />
    <linearGradient
       gradientUnits="userSpaceOnUse"
       id="defitem24"
       y2="380.47198"
       x2="992.48901"
       y1="270.854"
       x1="1094.25">
      <stop
         id="stop77"
         offset="0.0000000"
         style="stop-color:#6a6a6a;stop-opacity:1.0000000;" />
      <stop
         id="stop78"
         offset="1.0000000"
         style="stop-color:#e6e6e6;stop-opacity:1.0000000;" />
    </linearGradient>
    <linearGradient
       xlink:href="#defitem24"
       id="linearGradient3436"
       gradientUnits="userSpaceOnUse"
       x1="1094.25"
       y1="270.854"
       x2="992.48901"
       y2="380.47198" />
    <linearGradient
       gradientUnits="userSpaceOnUse"
       id="defitem23"
       y2="549.37799"
       x2="1049.84"
       y1="476.465"
       x1="1170.91">
      <stop
         id="stop74"
         offset="0.0000000"
         style="stop-color:#5f5f5f;stop-opacity:1.0000000;" />
      <stop
         id="stop75"
         offset="1.0000000"
         style="stop-color:#ebebeb;stop-opacity:1.0000000;" />
    </linearGradient>
    <linearGradient
       xlink:href="#defitem23"
       id="linearGradient3434"
       gradientUnits="userSpaceOnUse"
       x1="1170.91"
       y1="476.465"
       x2="1049.84"
       y2="549.37799" />
    <linearGradient
       gradientUnits="userSpaceOnUse"
       id="defitem22"
       y2="313.276"
       x2="576.14899"
       y1="105.486"
       x1="783.716">
      <stop
         id="stop71"
         offset="0.0000000"
         style="stop-color:#5a5a5a;stop-opacity:1.0000000;" />
      <stop
         id="stop72"
         offset="1.0000000"
         style="stop-color:#c7c7c7;stop-opacity:1.0000000;" />
    </linearGradient>
    <linearGradient
       xlink:href="#defitem22"
       id="linearGradient3432"
       gradientUnits="userSpaceOnUse"
       x1="783.716"
       y1="105.486"
       x2="576.14899"
       y2="313.276" />
    <linearGradient
       gradientUnits="userSpaceOnUse"
       id="defitem21"
       y2="484.716"
       x2="128.05499"
       y1="418.698"
       x1="280.04401">
      <stop
         id="stop68"
         offset="0.0000000"
         style="stop-color:#666666;stop-opacity:1.0000000;" />
      <stop
         id="stop69"
         offset="1.0000000"
         style="stop-color:#d8d8d8;stop-opacity:1.0000000;" />
    </linearGradient>
    <linearGradient
       xlink:href="#defitem21"
       id="linearGradient3430"
       gradientUnits="userSpaceOnUse"
       x1="280.04401"
       y1="418.698"
       x2="128.05499"
       y2="484.716" />
    <linearGradient
       gradientUnits="userSpaceOnUse"
       id="defitem20"
       y2="584.40997"
       x2="220"
       y1="636.95398"
       x1="129.687">
      <stop
         id="stop65"
         offset="0.0000000"
         style="stop-color:#ffffff;stop-opacity:1.0000000;" />
      <stop
         id="stop66"
         offset="1.0000000"
         style="stop-color:#bbbbbb;stop-opacity:1.0000000;" />
    </linearGradient>
    <linearGradient
       xlink:href="#defitem20"
       id="linearGradient3428"
       gradientUnits="userSpaceOnUse"
       x1="129.687"
       y1="636.95398"
       x2="220"
       y2="584.40997" />
    <linearGradient
       gradientUnits="userSpaceOnUse"
       id="defitem19"
       y2="583.75299"
       x2="1127.98"
       y1="629.02802"
       x1="1048.72">
      <stop
         id="stop62"
         offset="0.0000000"
         style="stop-color:#5e5e5e;stop-opacity:1.0000000;" />
      <stop
         id="stop63"
         offset="1.0000000"
         style="stop-color:#ededed;stop-opacity:1.0000000;" />
    </linearGradient>
    <linearGradient
       xlink:href="#defitem19"
       id="linearGradient3426"
       gradientUnits="userSpaceOnUse"
       x1="1048.72"
       y1="629.02802"
       x2="1127.98"
       y2="583.75299" />
    <linearGradient
       gradientUnits="userSpaceOnUse"
       id="defitem18"
       y2="291.97699"
       x2="581.32397"
       y1="387.27301"
       x1="370.022">
      <stop
         id="stop59"
         offset="0.0000000"
         style="stop-color:#636363;stop-opacity:1.0000000;" />
      <stop
         id="stop60"
         offset="1.0000000"
         style="stop-color:#d6d6d6;stop-opacity:1.0000000;" />
    </linearGradient>
    <linearGradient
       xlink:href="#defitem18"
       id="linearGradient3424"
       gradientUnits="userSpaceOnUse"
       x1="370.022"
       y1="387.27301"
       x2="581.32397"
       y2="291.97699" />
    <linearGradient
       gradientUnits="userSpaceOnUse"
       id="defitem17"
       y2="351.939"
       x2="909.59399"
       y1="351.939"
       x1="732.15601">
      <stop
         id="stop56"
         offset="0.0000000"
         style="stop-color:#676767;stop-opacity:1.0000000;" />
      <stop
         id="stop57"
         offset="1.0000000"
         style="stop-color:#d3d3d3;stop-opacity:1.0000000;" />
    </linearGradient>
    <linearGradient
       xlink:href="#defitem17"
       id="linearGradient3422"
       gradientUnits="userSpaceOnUse"
       x1="732.15601"
       y1="351.939"
       x2="909.59399"
       y2="351.939" />
    <linearGradient
       gradientUnits="userSpaceOnUse"
       id="defitem16"
       y2="494.71301"
       x2="1073.01"
       y1="494.71301"
       x1="1014.43">
      <stop
         id="stop53"
         offset="0.0000000"
         style="stop-color:#666666;stop-opacity:1.0000000;" />
      <stop
         id="stop54"
         offset="1.0000000"
         style="stop-color:#dcdcdc;stop-opacity:1.0000000;" />
    </linearGradient>
    <linearGradient
       xlink:href="#defitem16"
       id="linearGradient3420"
       gradientUnits="userSpaceOnUse"
       x1="1014.43"
       y1="494.71301"
       x2="1073.01"
       y2="494.71301" />
    <linearGradient
       gradientUnits="userSpaceOnUse"
       id="defitem15"
       y2="516.37"
       x2="193.27699"
       y1="452.388"
       x1="272.59201">
      <stop
         id="stop50"
         offset="0.0000000"
         style="stop-color:#6e6e6e;stop-opacity:1.0000000;" />
      <stop
         id="stop51"
         offset="1.0000000"
         style="stop-color:#d8d8d8;stop-opacity:1.0000000;" />
    </linearGradient>
    <linearGradient
       xlink:href="#defitem15"
       id="linearGradient3418"
       gradientUnits="userSpaceOnUse"
       x1="272.59201"
       y1="452.388"
       x2="193.27699"
       y2="516.37" />
    <radialGradient
       gradientUnits="userSpaceOnUse"
       id="defitem14"
       fy="211.088"
       fx="1037.22"
       r="1164.28"
       cy="211.088"
       cx="1037.22">
      <stop
         id="stop47"
         offset="0.0000000"
         style="stop-color:#ffffff;stop-opacity:1.0000000;" />
      <stop
         id="stop48"
         offset="1.0000000"
         style="stop-color:#aaaaaa;stop-opacity:1.0000000;" />
    </radialGradient>
    <radialGradient
       xlink:href="#defitem14"
       id="radialGradient3416"
       gradientUnits="userSpaceOnUse"
       cx="1037.22"
       cy="211.088"
       fx="1037.22"
       fy="211.088"
       r="1164.28" />
    <linearGradient
       gradientUnits="userSpaceOnUse"
       id="defitem13"
       y2="686.83002"
       x2="379.241"
       y1="732.12903"
       x1="342.64999">
      <stop
         id="stop44"
         offset="0.0000000"
         style="stop-color:#ffffff;stop-opacity:1.0000000;" />
      <stop
         id="stop45"
         offset="1.0000000"
         style="stop-color:#989898;stop-opacity:1.0000000;" />
    </linearGradient>
    <linearGradient
       xlink:href="#defitem13"
       id="linearGradient3414"
       gradientUnits="userSpaceOnUse"
       x1="342.64999"
       y1="732.12903"
       x2="379.241"
       y2="686.83002" />
    <radialGradient
       gradientUnits="userSpaceOnUse"
       id="defitem12"
       fy="484.409"
       fx="632.78101"
       r="540.27899"
       cy="484.409"
       cx="632.78101">
      <stop
         id="stop41"
         offset="0.0000000"
         style="stop-color:#ffffff;stop-opacity:1.0000000;" />
      <stop
         id="stop42"
         offset="1.0000000"
         style="stop-color:#ededed;stop-opacity:1.0000000;" />
    </radialGradient>
    <radialGradient
       xlink:href="#defitem12"
       id="radialGradient3412"
       gradientUnits="userSpaceOnUse"
       cx="632.78101"
       cy="484.409"
       fx="632.78101"
       fy="484.409"
       r="540.27899" />
    <radialGradient
       xlink:href="#linearGradient3682"
       id="radialGradient3817"
       gradientUnits="userSpaceOnUse"
       gradientTransform="matrix(1.1149219,0.2722306,-0.7507171,3.0745639,-471.08629,-148.32863)"
       cx="270.58316"
       cy="33.899986"
       fx="270.58316"
       fy="33.899986"
       r="19.571428" />
    <linearGradient
       id="linearGradient3682">
      <stop
         style="stop-color:#ff6d0f;stop-opacity:1;"
         offset="0"
         id="stop3684" />
      <stop
         style="stop-color:#ff1000;stop-opacity:1;"
         offset="1"
         id="stop3686" />
    </linearGradient>
    <radialGradient
       xlink:href="#linearGradient3864"
       id="radialGradient3661"
       gradientUnits="userSpaceOnUse"
       gradientTransform="matrix(0.6186598,0.9666542,-1.0332462,0.6612786,-327.27568,-255.84136)"
       cx="282.64584"
       cy="29.149046"
       fx="282.64584"
       fy="29.149046"
       r="19.571428" />
    <linearGradient
       id="linearGradient3864">
      <stop
         id="stop3866"
         offset="0"
         style="stop-color:#71b2f8;stop-opacity:1;" />
      <stop
         id="stop3868"
         offset="1"
         style="stop-color:#002795;stop-opacity:1;" />
    </linearGradient>
  </defs>
  <path
     id="path2989"
     style="color:#000000;fill:#c8c8c8;fill-opacity:1;stroke:#000000;stroke-width:1;stroke-dasharray:none;stroke-opacity:1"
     d="M 81.539012,0.5 C 78.056961,4.242679 77.167279,5.0014553 72.287864,4.7064724 63.244337,5.564091 52.887527,2.2679092 45.143204,8.2297828 36.193097,19.429132 29.707477,32.492399 24.344401,45.764548 3.293839,98.384684 10.4725,161.05401 42.886997,207.54431 c 6.6642,9.24246 18.951756,5.16973 28.592645,6.07405 5.301676,-0.35352 6.519179,0.182 10.05523,4.20752 H 260.74825 c 4.19317,-2.44287 4.84759,-5.19546 10.02733,-4.20752 9.0422,-0.85767 19.39716,2.4386 27.14158,-3.51917 8.95026,-11.20132 15.43814,-24.26453 20.80084,-37.5389 C 339.7657,119.94174 332.58972,57.271522 300.17232,10.784672 293.51091,1.537007 281.22205,5.6119231 271.5807,4.7075064 266.27904,5.0610395 265.06052,4.5254059 261.52443,0.5 Z M 51.531463,52.148687 v 0.016 h 3.250449 V 166.16531 h -3.250449 v 0.012 l -0.484742,-0.012 -16.581969,-0.4372 -3.21119,-7.16031 -2.944529,-7.91064 -2.425707,-8.08946 -1.898586,-8.22692 -1.363244,-8.3313 -0.816482,-8.40675 -0.273881,-8.43774 0.273881,-8.44087 0.816482,-8.402594 1.363244,-8.332345 1.898586,-8.230004 2.425707,-8.086344 2.944529,-7.913764 3.21119,-7.160301 16.597469,-0.434081 z m 239.996397,0 0.46922,0.016 16.60163,0.434081 3.20703,7.160301 2.94557,7.913764 2.42571,8.086344 1.89756,8.230004 1.36426,8.332345 0.81959,8.402594 0.27388,8.44087 -0.27388,8.43774 -0.81959,8.40675 -1.36426,8.3313 -1.89756,8.22692 -2.42571,8.08946 -2.94557,7.91064 -3.20703,7.16031 -16.58613,0.4372 -0.48472,0.012 v -0.012 h -3.24943 V 52.164687 h 3.24943 z" />
  <path
     style="color:#000000;fill:#000000;stroke-width:2.00001;-inkscape-stroke:none"
     d="m 171.53647,108.9188 v 0.48828 l -0.012,-0.012 z"
     id="path3822" />
  <path
     style="color:#000000;fill:#000000;stroke-width:2.00001;-inkscape-stroke:none"
     d="m 171.53647,108.92075 v 0.48438 l -0.012,-0.47266 z"
     id="path3818" />
  <path
     style="color:#000000;fill:#000000;stroke-width:2.00001;-inkscape-stroke:none"
     d="m 171.52447,108.91866 0.012,0.47656 -0.012,0.012 z"
     id="path4561" />
  <path
     style="color:#000000;fill:#000000;stroke-width:2.00001;-inkscape-stroke:none"
     d="m 171.52447,108.92065 0.012,0.008 -0.012,0.47658 z"
     id="path4557" />
  <g
     id="g5920"
     transform="translate(-39.797656,41.103016)"
     style="stroke-width:1.1;stroke-dasharray:none">
    <path
       style="color:#000000;fill:#c8c8c8;fill-opacity:1;stroke:#000000;stroke-width:1.1;stroke-dasharray:none;stroke-opacity:1"
       d="m 40.347656,16.408109 h 11.394531 l 0.01953,0.05273 0.146484,-0.05273 h 0.08008 36.339844 28.207035 30.03906 12.93359 103.64258 12.93164 30.03906 28.20703 36.33985 0.0801 l 0.14648,0.05273 0.0195,-0.05273 h 11.39453 V 119.70889 h -11.39453 l -0.0195,-0.0527 -0.14453,0.0527 h -0.082 -36.3399 H 306.12109 276.08203 263.15039 159.50781 146.57422 116.53516 88.328125 51.988281 51.90625 l -0.144531,-0.0527 -0.01953,0.0527 H 40.347656 Z"
       id="path5901" />
    <g
       id="g5529"
       transform="translate(-2.73e-4,-67.423053)"
       style="stroke:#000000;stroke-width:1.1;stroke-dasharray:none;stroke-opacity:1">
      <g
         id="g5512"
         style="stroke:#000000;stroke-width:1.1;stroke-dasharray:none;stroke-opacity:1">
        <path
           d="m 370.56539,83.765404 c -0.462,1.272 -0.898,3.1616 -1.307,5.7163 -0.205,1.2774 -0.402,2.721 -0.589,4.2983 -0.186,1.5761 -0.361,3.2894 -0.525,5.1399"
           id="path794"
           style="fill:none;stroke:#000000;stroke-width:1.1;stroke-linecap:butt;stroke-linejoin:miter;stroke-dasharray:none;stroke-opacity:1" />
        <path
           id="16"
           d="M 368.14439,172.0455 V 98.919904"
           style="fill:none;stroke:#000000;stroke-width:1.1;stroke-linecap:butt;stroke-linejoin:miter;stroke-dasharray:none;stroke-opacity:1" />
        <path
           d="m 368.14439,172.0455 c 0.329,3.7012 0.697,6.8306 1.106,9.3883 0.204,1.2798 0.419,2.4183 0.639,3.3808 0.22,0.9625 0.445,1.7489 0.676,2.385"
           id="path797"
           style="fill:none;stroke:#000000;stroke-width:1.1;stroke-linecap:butt;stroke-linejoin:miter;stroke-dasharray:none;stroke-opacity:1" />
        <path
           id="19"
           d="m 357.63339,156.3234 v -41.681"
           style="fill:none;stroke:#000000;stroke-width:1.1;stroke-linecap:butt;stroke-linejoin:miter;stroke-dasharray:none;stroke-opacity:1" />
        <path
           d="m 357.63339,156.3234 c 1.361,3.1307 2.949,5.965 4.713,8.5697 1.764,2.6046 3.704,4.9797 5.798,7.1524"
           id="path801"
           style="fill:none;stroke:#000000;stroke-width:1.1;stroke-linecap:butt;stroke-linejoin:miter;stroke-dasharray:none;stroke-opacity:1" />
        <path
           d="m 368.14439,98.919904 c -2.094,2.172996 -4.035,4.547496 -5.799,7.152096 -1.764,2.6047 -3.351,5.4395 -4.712,8.5704"
           id="path803"
           style="fill:none;stroke:#000000;stroke-width:1.1;stroke-linecap:butt;stroke-linejoin:miter;stroke-dasharray:none;stroke-opacity:1" />
        <path
           d="m 357.63339,114.6424 c -2.503,1.0757 -4.963,2.2283 -7.37,3.5041 -2.407,1.2759 -4.761,2.6749 -6.971,4.271 -1.105,0.7981 -2.174,1.6455 -3.186,2.5652 -1.013,0.91979 -1.969,1.91198 -2.815,2.99731 -0.847,1.08532 -1.583,2.26379 -2.101,3.5427 -0.517,1.27892 -0.816,2.65826 -0.807,4.0344 0.009,1.37614 0.326,2.74906 0.864,4.02665 0.269,0.63879 0.594,1.25375 0.954,1.83948 0.362,0.5843 0.755,1.14369 1.181,1.67818 0.849,1.07187 1.814,2.06145 2.827,2.97408 1.014,0.9126 2.076,1.7482 3.172,2.5354 2.192,1.5743 4.517,2.9549 6.909,4.222 2.393,1.267 4.853,2.4205 7.343,3.4905"
           id="path805"
           style="fill:none;stroke:#000000;stroke-width:1.1;stroke-linecap:butt;stroke-linejoin:miter;stroke-dasharray:none;stroke-opacity:1" />
        <path
           id="42"
           d="m 65.023392,156.3234 v -41.681"
           style="fill:none;stroke:#000000;stroke-width:1.1;stroke-linecap:butt;stroke-linejoin:miter;stroke-dasharray:none;stroke-opacity:1" />
        <path
           d="m 65.023392,156.3234 c 2.503,-1.0754 4.962,-2.2282 7.369,-3.5043 2.406,-1.2762 4.76,-2.6755 6.97,-4.2713 1.105,-0.7979 2.174,-1.6448 3.187,-2.5643 1.012,-0.91944 1.968,-1.91137 2.815,-2.99626 0.847,-1.08488 1.584,-2.26272 2.102,-3.54131 0.518,-1.27859 0.816,-2.65795 0.807,-4.03412 -0.009,-1.37618 -0.326,-2.74919 -0.864,-4.02707 -0.273,-0.63984 -0.591,-1.2532 -0.954,-1.84007 -0.361,-0.58453 -0.754,-1.14416 -1.18,-1.67889 -0.848,-1.07232 -1.813,-2.06217 -2.826,-2.97508 -1.014,-0.9128 -2.076,-1.7487 -3.172,-2.5361 -2.192,-1.5746 -4.518,-2.9551 -6.91,-4.222 -2.393,-1.2668 -4.853,-2.4199 -7.344,-3.4902"
           id="path829"
           style="fill:none;stroke:#000000;stroke-width:1.1;stroke-linecap:butt;stroke-linejoin:miter;stroke-dasharray:none;stroke-opacity:1" />
        <path
           id="44"
           d="M 54.512392,172.0455 V 98.919904"
           style="fill:none;stroke:#000000;stroke-width:1.1;stroke-linecap:butt;stroke-linejoin:miter;stroke-dasharray:none;stroke-opacity:1" />
        <path
           d="m 54.512392,172.0455 c 2.094,-2.1727 4.034,-4.5478 5.798,-7.1524 1.764,-2.6047 3.352,-5.439 4.713,-8.5697"
           id="path832"
           style="fill:none;stroke:#000000;stroke-width:1.1;stroke-linecap:butt;stroke-linejoin:miter;stroke-dasharray:none;stroke-opacity:1" />
        <path
           d="m 65.023392,114.6424 c -1.361,-3.1309 -2.948,-5.9657 -4.712,-8.5704 -1.764,-2.6046 -3.705,-4.9791 -5.799,-7.152096"
           id="path834"
           style="fill:none;stroke:#000000;stroke-width:1.1;stroke-linecap:butt;stroke-linejoin:miter;stroke-dasharray:none;stroke-opacity:1" />
        <path
           d="m 54.512392,98.919904 c -0.329,-3.7013 -0.697,-6.8308 -1.106,-9.3885 -0.204,-1.2799 -0.419,-2.4185 -0.639,-3.381 -0.22,-0.9625 -0.445,-1.7489 -0.676,-2.385"
           id="path836"
           style="fill:none;stroke:#000000;stroke-width:1.1;stroke-linecap:butt;stroke-linejoin:miter;stroke-dasharray:none;stroke-opacity:1" />
        <path
           d="m 52.091392,187.1996 c 0.462,-1.2719 0.898,-3.161 1.307,-5.716 0.205,-1.2774 0.402,-2.7214 0.589,-4.2986 0.186,-1.576 0.361,-3.2892 0.525,-5.1395"
           id="path842"
           style="fill:none;stroke:#000000;stroke-width:1.1;stroke-linecap:butt;stroke-linejoin:miter;stroke-dasharray:none;stroke-opacity:1" />
      </g>
    </g>
  </g>
  <g
     id="g7668"
     transform="translate(-26.196078,-26.61632)"
     style="stroke-width:1.1;stroke-dasharray:none">
    <path
       style="color:#000000;fill:#c8c8c8;fill-opacity:1;stroke:#000000;stroke-width:1.1;stroke-dasharray:none;stroke-opacity:1"
       d="m 172.7734,40.442351 c 16.82163,0.11092 33.70502,-0.22141 50.48821,0.16539 20.08205,5.70724 40.16411,11.41448 60.24616,17.121719 4.23373,5.005859 8.46745,10.011719 12.70118,15.017578 4.38347,0.604551 10.75174,0.986568 15.90434,1.492188 3.3263,7.652904 1.8003,16.011275 2.12696,24.100288 -0.11495,30.791496 0.22984,61.649836 -0.17228,92.399586 -1.03426,3.57029 -1.2412,8.15397 -6.17366,6.94939 -3.86993,0.65873 -9.29962,0.15303 -12.07611,1.5869 -4.36416,4.80197 -8.20622,10.41343 -12.8905,14.71907 -20.29211,5.6517 -40.52259,11.74579 -60.85312,17.12171 -16.61996,-0.11093 -33.30169,0.22142 -49.88321,-0.16539 -20.08271,-5.70723 -40.16541,-11.41447 -60.24812,-17.12171 -4.23307,-5.00521 -8.46615,-10.01042 -12.699218,-15.01563 -4.38967,-0.60577 -10.75073,-0.98767 -15.90425,-1.49414 -3.32629,-7.65291 -1.80029,-16.01128 -2.12695,-24.10029 0.11495,-30.7915 -0.22983,-61.64984 0.17228,-92.399586 1.03421,-3.570309 1.2411,-8.154122 6.17363,-6.94887 3.86963,-0.657691 9.3049,-0.153045 12.07608,-1.58546 4.364768,-4.802686 8.207578,-10.414635 12.892438,-14.721025 20.08205,-5.707238 40.16409,-11.414478 60.24614,-17.121718 z"
       id="path7093" />
    <g
       id="g7562"
       transform="translate(-6.8635076,-9.6811181)"
       style="stroke-width:1.1;stroke-dasharray:none">
      <path
         d="m 264.72654,205.59692 a 85.045937,85.045937 0 0 1 -120.27308,0"
         id="path1258"
         style="fill:none;stroke:#000000;stroke-width:1.1;stroke-linecap:butt;stroke-linejoin:miter;stroke-dasharray:none" />
      <path
         d="m 144.45346,85.323837 a 85.045937,85.045937 0 0 1 120.27308,0"
         id="path1260"
         style="fill:none;stroke:#000000;stroke-width:1.1;stroke-linecap:butt;stroke-linejoin:miter;stroke-dasharray:none" />
      <path
         d="m 264.71844,85.331937 a 85.034437,85.034437 0 0 0 -120.25688,0"
         id="path1262"
         style="fill:none;stroke:#000000;stroke-width:1.1;stroke-linecap:butt;stroke-linejoin:miter;stroke-dasharray:none" />
      <path
         d="m 261.80996,88.240424 a 80.921254,80.921254 0 0 0 -114.43992,0"
         id="path1264"
         style="fill:none;stroke:#000000;stroke-width:1.1;stroke-linecap:butt;stroke-linejoin:miter;stroke-dasharray:none" />
      <path
         id="5"
         d="m 262.26965,87.780726 -0.3156,0.315599"
         style="fill:none;stroke:#000000;stroke-width:1.1;stroke-linecap:butt;stroke-linejoin:miter;stroke-dasharray:none" />
      <path
         d="m 135.1288,93.9597 q 2.86838,0.281299 5.75357,0.557398"
         id="path1267"
         style="fill:none;stroke:#000000;stroke-width:1.1;stroke-linecap:butt;stroke-linejoin:miter;stroke-dasharray:none" />
      <path
         d="m 135.1288,196.96106 a 86.470631,86.470631 0 0 1 0,-103.00136"
         id="path1269"
         style="fill:none;stroke:#000000;stroke-width:1.1;stroke-linecap:butt;stroke-linejoin:miter;stroke-dasharray:none" />
      <path
         d="m 140.88237,196.40366 q -2.88519,0.2761 -5.75357,0.5574"
         id="path1271"
         style="fill:none;stroke:#000000;stroke-width:1.1;stroke-linecap:butt;stroke-linejoin:miter;stroke-dasharray:none" />
      <path
         d="m 140.88237,196.40366 a 81.571352,81.571352 0 0 0 6.02798,6.73637"
         id="path1273"
         style="fill:none;stroke:#000000;stroke-width:1.1;stroke-linecap:butt;stroke-linejoin:miter;stroke-dasharray:none" />
      <path
         id="10"
         d="m 147.22594,202.82444 -0.31559,0.31559"
         style="fill:none;stroke:#000000;stroke-width:1.1;stroke-linecap:butt;stroke-linejoin:miter;stroke-dasharray:none" />
      <path
         d="m 147.22594,202.82444 a 81.125054,81.125054 0 0 1 0,-114.728115"
         id="path1276"
         style="fill:none;stroke:#000000;stroke-width:1.1;stroke-linecap:butt;stroke-linejoin:miter;stroke-dasharray:none" />
      <path
         id="12"
         d="m 147.22594,88.096325 -0.31559,-0.315599"
         style="fill:none;stroke:#000000;stroke-width:1.1;stroke-linecap:butt;stroke-linejoin:miter;stroke-dasharray:none" />
      <path
         d="m 146.91035,87.780726 a 81.571352,81.571352 0 0 0 -6.02798,6.736372"
         id="path1279"
         style="fill:none;stroke:#000000;stroke-width:1.1;stroke-linecap:butt;stroke-linejoin:miter;stroke-dasharray:none" />
      <path
         d="m 127.58323,91.033712 q 3.76078,1.463894 7.54557,2.925988"
         id="path1281"
         style="fill:none;stroke:#000000;stroke-width:1.1;stroke-linecap:butt;stroke-linejoin:miter;stroke-dasharray:none" />
      <path
         d="m 127.56983,91.033712 c -2.81629,3.993983 -5.29278,8.145066 -7.42967,12.453348 -2.13929,4.30588 -3.94658,8.76206 -5.41638,13.39104 -0.73479,2.31459 -1.38539,4.67228 -1.94099,7.04017 -0.5551,2.36819 -1.01679,4.74548 -1.38499,7.13167 -0.7376,4.77117 -1.1066,9.57466 -1.1068,14.41044"
         id="path1283"
         style="fill:none;stroke:#000000;stroke-width:1.1;stroke-linecap:butt;stroke-linejoin:miter;stroke-dasharray:none" />
      <path
         d="m 110.291,145.46038 c 0,4.81824 0.3778,9.69532 1.1156,14.46744 0.73899,4.76908 1.83479,9.44256 3.28738,14.02074 0.7251,2.29079 1.5405,4.55948 2.44609,6.80617 0.9063,2.24649 1.90469,4.47028 2.98369,6.64587 2.15679,4.34928 4.63878,8.51146 7.44607,12.48645"
         id="path1285"
         style="fill:none;stroke:#000000;stroke-width:1.1;stroke-linecap:butt;stroke-linejoin:miter;stroke-dasharray:none" />
      <path
         d="m 135.1288,196.96106 q -3.78479,1.46209 -7.54557,2.92599"
         id="path1287"
         style="fill:none;stroke:#000000;stroke-width:1.1;stroke-linecap:butt;stroke-linejoin:miter;stroke-dasharray:none" />
      <path
         id="18"
         d="m 144.44726,85.317637 0.006,0.0062"
         style="fill:none;stroke:#000000;stroke-width:1.1;stroke-linecap:butt;stroke-linejoin:miter;stroke-dasharray:none" />
      <path
         id="19-5"
         d="m 144.44726,85.317637 0.006,0.0062"
         style="fill:none;stroke:#000000;stroke-width:1.1;stroke-linecap:butt;stroke-linejoin:miter;stroke-dasharray:none" />
      <path
         id="20"
         d="m 144.46156,85.331937 2.44879,2.448789"
         style="fill:none;stroke:#000000;stroke-width:1.1;stroke-linecap:butt;stroke-linejoin:miter;stroke-dasharray:none" />
      <path
         id="21"
         d="m 151.27773,92.148108 -4.05179,-4.051783"
         style="fill:none;stroke:#000000;stroke-width:1.1;stroke-linecap:butt;stroke-linejoin:miter;stroke-dasharray:none" />
      <path
         d="m 268.29763,94.517098 a 81.571352,81.571352 0 0 0 -6.02798,-6.736372"
         id="path1293"
         style="fill:none;stroke:#000000;stroke-width:1.1;stroke-linecap:butt;stroke-linejoin:miter;stroke-dasharray:none" />
      <path
         id="23"
         d="m 262.26965,87.780726 -0.3156,0.315599"
         style="fill:none;stroke:#000000;stroke-width:1.1;stroke-linecap:butt;stroke-linejoin:miter;stroke-dasharray:none" />
      <path
         d="m 261.95405,202.82444 a 81.125054,81.125054 0 0 0 0,-114.728115"
         id="path1296"
         style="fill:none;stroke:#000000;stroke-width:1.1;stroke-linecap:butt;stroke-linejoin:miter;stroke-dasharray:none" />
      <path
         id="25"
         d="m 262.26965,203.14003 -0.3156,-0.31559"
         style="fill:none;stroke:#000000;stroke-width:1.1;stroke-linecap:butt;stroke-linejoin:miter;stroke-dasharray:none" />
      <path
         d="m 262.26965,203.14003 a 81.571352,81.571352 0 0 0 6.02798,-6.73637"
         id="path1299"
         style="fill:none;stroke:#000000;stroke-width:1.1;stroke-linecap:butt;stroke-linejoin:miter;stroke-dasharray:none" />
      <path
         d="m 274.0512,196.96106 q -2.86838,-0.2813 -5.75357,-0.5574"
         id="path1301"
         style="fill:none;stroke:#000000;stroke-width:1.1;stroke-linecap:butt;stroke-linejoin:miter;stroke-dasharray:none" />
      <path
         d="m 274.0512,196.96106 a 86.470631,86.470631 0 0 0 0,-103.00136"
         id="path1303"
         style="fill:none;stroke:#000000;stroke-width:1.1;stroke-linecap:butt;stroke-linejoin:miter;stroke-dasharray:none" />
      <path
         d="m 268.29763,94.517098 q 2.88519,-0.276099 5.75357,-0.557398"
         id="path1305"
         style="fill:none;stroke:#000000;stroke-width:1.1;stroke-linecap:butt;stroke-linejoin:miter;stroke-dasharray:none" />
      <path
         d="m 274.0512,93.9597 q 3.78479,-1.462094 7.54557,-2.925988"
         id="path1307"
         style="fill:none;stroke:#000000;stroke-width:1.1;stroke-linecap:butt;stroke-linejoin:miter;stroke-dasharray:none" />
      <path
         d="m 281.59677,199.88705 q -3.76078,-1.4639 -7.54557,-2.92599"
         id="path1309"
         style="fill:none;stroke:#000000;stroke-width:1.1;stroke-linecap:butt;stroke-linejoin:miter;stroke-dasharray:none" />
      <path
         d="m 281.61017,199.88705 c 2.81629,-3.99399 5.29288,-8.14507 7.42967,-12.45335 2.13939,-4.30588 3.94658,-8.76206 5.41638,-13.39104 0.73489,-2.31459 1.38539,-4.67228 1.94099,-7.04017 0.5551,-2.36819 1.01679,-4.74548 1.38499,-7.13167 0.7376,-4.77113 1.1066,-9.57459 1.1068,-14.41033"
         id="path1311"
         style="fill:none;stroke:#000000;stroke-width:1.1;stroke-linecap:butt;stroke-linejoin:miter;stroke-dasharray:none" />
      <path
         id="33"
         d="m 298.889,145.46049 v -1.1e-4"
         style="fill:none;stroke:#000000;stroke-width:1.1;stroke-linecap:butt;stroke-linejoin:miter;stroke-dasharray:none" />
      <path
         d="m 298.889,145.46038 v -1.1e-4"
         id="path1314"
         style="fill:none;stroke:#000000;stroke-width:1.1;stroke-linecap:butt;stroke-linejoin:miter;stroke-dasharray:none" />
      <path
         d="m 298.889,145.46027 c 0,-4.8182 -0.3777,-9.69524 -1.1156,-14.46733 -0.739,-4.76908 -1.83479,-9.44256 -3.28738,-14.02074 -0.7251,-2.29079 -1.5405,-4.55948 -2.44609,-6.80617 -0.9063,-2.24649 -1.9047,-4.47028 -2.98359,-6.64587 -2.15679,-4.349282 -4.63888,-8.511465 -7.44617,-12.486448"
         id="path1316"
         style="fill:none;stroke:#000000;stroke-width:1.1;stroke-linecap:butt;stroke-linejoin:miter;stroke-dasharray:none" />
      <path
         id="36"
         d="m 264.73274,85.317637 -0.006,0.0062"
         style="fill:none;stroke:#000000;stroke-width:1.1;stroke-linecap:butt;stroke-linejoin:miter;stroke-dasharray:none" />
      <path
         id="37"
         d="m 264.73274,85.317637 -0.006,0.0062"
         style="fill:none;stroke:#000000;stroke-width:1.1;stroke-linecap:butt;stroke-linejoin:miter;stroke-dasharray:none" />
      <path
         id="38"
         d="m 264.71844,85.331937 -2.44879,2.448789"
         style="fill:none;stroke:#000000;stroke-width:1.1;stroke-linecap:butt;stroke-linejoin:miter;stroke-dasharray:none" />
      <path
         id="39"
         d="m 261.95405,88.096325 -4.05178,4.051783"
         style="fill:none;stroke:#000000;stroke-width:1.1;stroke-linecap:butt;stroke-linejoin:miter;stroke-dasharray:none" />
      <path
         d="m 144.46156,205.58882 a 85.034437,85.034437 0 0 0 120.25688,0"
         id="path1322"
         style="fill:none;stroke:#000000;stroke-width:1.1;stroke-linecap:butt;stroke-linejoin:miter;stroke-dasharray:none" />
      <path
         d="m 147.37004,202.68034 a 80.921254,80.921254 0 0 0 114.43992,0"
         id="path1324"
         style="fill:none;stroke:#000000;stroke-width:1.1;stroke-linecap:butt;stroke-linejoin:miter;stroke-dasharray:none" />
      <path
         id="42-1"
         d="m 144.44726,205.60312 0.006,-0.006"
         style="fill:none;stroke:#000000;stroke-width:1.1;stroke-linecap:butt;stroke-linejoin:miter;stroke-dasharray:none" />
      <path
         id="43"
         d="m 144.44726,205.60312 0.006,-0.006"
         style="fill:none;stroke:#000000;stroke-width:1.1;stroke-linecap:butt;stroke-linejoin:miter;stroke-dasharray:none" />
      <path
         id="44-6"
         d="m 144.46156,205.58882 2.44879,-2.44879"
         style="fill:none;stroke:#000000;stroke-width:1.1;stroke-linecap:butt;stroke-linejoin:miter;stroke-dasharray:none" />
      <path
         id="45"
         d="m 151.27773,198.77265 -4.05179,4.05179"
         style="fill:none;stroke:#000000;stroke-width:1.1;stroke-linecap:butt;stroke-linejoin:miter;stroke-dasharray:none" />
      <path
         id="46"
         d="M 184.37299,233.25401 135.0586,219.23906"
         style="fill:none;stroke:#000000;stroke-width:1.1;stroke-linecap:butt;stroke-linejoin:miter;stroke-dasharray:none" />
      <path
         id="47"
         d="M 224.80711,233.25401 H 184.37299"
         style="fill:none;stroke:#000000;stroke-width:1.1;stroke-linecap:butt;stroke-linejoin:miter;stroke-dasharray:none" />
      <path
         id="48"
         d="m 274.1214,219.23906 -49.31429,14.01495"
         style="fill:none;stroke:#000000;stroke-width:1.1;stroke-linecap:butt;stroke-linejoin:miter;stroke-dasharray:none" />
      <path
         id="49"
         d="M 284.44696,207.02982 274.1214,219.23906"
         style="fill:none;stroke:#000000;stroke-width:1.1;stroke-linecap:butt;stroke-linejoin:miter;stroke-dasharray:none" />
      <path
         id="50"
         d="m 297.0956,205.92322 -12.64864,1.1066"
         style="fill:none;stroke:#000000;stroke-width:1.1;stroke-linecap:butt;stroke-linejoin:miter;stroke-dasharray:none" />
      <path
         id="51"
         d="m 298.889,199.88705 -1.7934,6.03617"
         style="fill:none;stroke:#000000;stroke-width:1.1;stroke-linecap:butt;stroke-linejoin:miter;stroke-dasharray:none" />
      <path
         id="52"
         d="M 281.59677,199.88705 H 298.889"
         style="fill:none;stroke:#000000;stroke-width:1.1;stroke-linecap:butt;stroke-linejoin:miter;stroke-dasharray:none" />
      <path
         id="53"
         d="m 269.95082,199.88705 h 11.64595"
         style="fill:none;stroke:#000000;stroke-width:1.1;stroke-linecap:butt;stroke-linejoin:miter;stroke-dasharray:none" />
      <path
         d="m 269.95082,199.88705 a 85.054737,85.054737 0 0 1 -5.21808,5.71607"
         id="path1338"
         style="fill:none;stroke:#000000;stroke-width:1.1;stroke-linecap:butt;stroke-linejoin:miter;stroke-dasharray:none" />
      <path
         id="55"
         d="m 264.73274,205.60312 -0.006,-0.006"
         style="fill:none;stroke:#000000;stroke-width:1.1;stroke-linecap:butt;stroke-linejoin:miter;stroke-dasharray:none" />
      <path
         d="m 144.44726,205.60312 a 85.054737,85.054737 0 0 1 -5.21808,-5.71607"
         id="path1341"
         style="fill:none;stroke:#000000;stroke-width:1.1;stroke-linecap:butt;stroke-linejoin:miter;stroke-dasharray:none" />
      <path
         id="57"
         d="m 127.58323,199.88705 h 11.64595"
         style="fill:none;stroke:#000000;stroke-width:1.1;stroke-linecap:butt;stroke-linejoin:miter;stroke-dasharray:none" />
      <path
         id="58"
         d="m 110.291,199.88705 h 17.29223"
         style="fill:none;stroke:#000000;stroke-width:1.1;stroke-linecap:butt;stroke-linejoin:miter;stroke-dasharray:none" />
      <path
         id="59"
         d="M 112.08439,205.92322 110.291,199.88705"
         style="fill:none;stroke:#000000;stroke-width:1.1;stroke-linecap:butt;stroke-linejoin:miter;stroke-dasharray:none" />
      <path
         id="60"
         d="m 124.73304,207.02982 -12.64865,-1.1066"
         style="fill:none;stroke:#000000;stroke-width:1.1;stroke-linecap:butt;stroke-linejoin:miter;stroke-dasharray:none" />
      <path
         id="61"
         d="M 135.0586,219.23906 124.73304,207.02982"
         style="fill:none;stroke:#000000;stroke-width:1.1;stroke-linecap:butt;stroke-linejoin:miter;stroke-dasharray:none" />
      <path
         id="62"
         d="M 127.58323,91.033712 H 110.291"
         style="fill:none;stroke:#000000;stroke-width:1.1;stroke-linecap:butt;stroke-linejoin:miter;stroke-dasharray:none" />
      <path
         id="63"
         d="M 139.22918,91.033712 H 127.58323"
         style="fill:none;stroke:#000000;stroke-width:1.1;stroke-linecap:butt;stroke-linejoin:miter;stroke-dasharray:none" />
      <path
         d="m 139.22918,91.033712 a 85.054737,85.054737 0 0 1 5.21808,-5.716075"
         id="path1350"
         style="fill:none;stroke:#000000;stroke-width:1.1;stroke-linecap:butt;stroke-linejoin:miter;stroke-dasharray:none" />
      <path
         d="m 264.73274,85.317637 a 85.054737,85.054737 0 0 1 5.21808,5.716075"
         id="path1352"
         style="fill:none;stroke:#000000;stroke-width:1.1;stroke-linecap:butt;stroke-linejoin:miter;stroke-dasharray:none" />
      <path
         id="66"
         d="M 281.59677,91.033712 H 269.95082"
         style="fill:none;stroke:#000000;stroke-width:1.1;stroke-linecap:butt;stroke-linejoin:miter;stroke-dasharray:none" />
      <path
         id="67"
         d="M 298.889,91.033712 H 281.59677"
         style="fill:none;stroke:#000000;stroke-width:1.1;stroke-linecap:butt;stroke-linejoin:miter;stroke-dasharray:none" />
      <path
         id="68"
         d="m 297.0956,84.997538 1.7934,6.036174"
         style="fill:none;stroke:#000000;stroke-width:1.1;stroke-linecap:butt;stroke-linejoin:miter;stroke-dasharray:none" />
      <path
         id="69"
         d="m 284.44696,83.890943 12.64864,1.106595"
         style="fill:none;stroke:#000000;stroke-width:1.1;stroke-linecap:butt;stroke-linejoin:miter;stroke-dasharray:none" />
      <path
         id="70"
         d="m 274.1214,71.681695 10.32556,12.209248"
         style="fill:none;stroke:#000000;stroke-width:1.1;stroke-linecap:butt;stroke-linejoin:miter;stroke-dasharray:none" />
      <path
         id="71"
         d="m 224.80711,57.666755 49.31429,14.01494"
         style="fill:none;stroke:#000000;stroke-width:1.1;stroke-linecap:butt;stroke-linejoin:miter;stroke-dasharray:none" />
      <path
         id="72"
         d="m 184.37299,57.666755 h 40.43412"
         style="fill:none;stroke:#000000;stroke-width:1.1;stroke-linecap:butt;stroke-linejoin:miter;stroke-dasharray:none" />
      <path
         id="73"
         d="m 135.0586,71.681695 49.31439,-14.01494"
         style="fill:none;stroke:#000000;stroke-width:1.1;stroke-linecap:butt;stroke-linejoin:miter;stroke-dasharray:none" />
      <path
         id="74"
         d="M 124.73304,83.890943 135.0586,71.681695"
         style="fill:none;stroke:#000000;stroke-width:1.1;stroke-linecap:butt;stroke-linejoin:miter;stroke-dasharray:none" />
      <path
         id="75"
         d="m 112.08439,84.997538 12.64865,-1.106595"
         style="fill:none;stroke:#000000;stroke-width:1.1;stroke-linecap:butt;stroke-linejoin:miter;stroke-dasharray:none" />
      <path
         id="76"
         d="m 110.291,91.033712 1.79339,-6.036174"
         style="fill:none;stroke:#000000;stroke-width:1.1;stroke-linecap:butt;stroke-linejoin:miter;stroke-dasharray:none" />
      <path
         id="77"
         d="M 110.291,145.46038 V 91.033712"
         style="fill:none;stroke:#000000;stroke-width:1.1;stroke-linecap:butt;stroke-linejoin:miter;stroke-dasharray:none" />
      <path
         id="78"
         d="M 110.291,199.88705 V 145.46038"
         style="fill:none;stroke:#000000;stroke-width:1.1;stroke-linecap:butt;stroke-linejoin:miter;stroke-dasharray:none" />
      <path
         d="m 110.291,145.46038 q -1e-4,-1.85089 -0.0848,-3.70178"
         id="path1370"
         style="fill:none;stroke:#000000;stroke-width:1.1;stroke-linecap:butt;stroke-linejoin:miter;stroke-dasharray:none" />
      <path
         d="m 110.2062,149.16216 q 0.0847,-1.85089 0.0848,-3.70178"
         id="path1372"
         style="fill:none;stroke:#000000;stroke-width:1.1;stroke-linecap:butt;stroke-linejoin:miter;stroke-dasharray:none" />
      <path
         d="m 150.28563,199.76485 a 76.798072,76.798072 0 0 0 108.60884,0"
         id="path1374"
         style="fill:none;stroke:#000000;stroke-width:1.1;stroke-linecap:butt;stroke-linejoin:miter;stroke-dasharray:none" />
      <path
         d="m 257.90227,92.148108 a 75.394978,75.394978 0 0 1 0,106.624542"
         id="path1378"
         style="fill:none;stroke:#000000;stroke-width:1.1;stroke-linecap:butt;stroke-linejoin:miter;stroke-dasharray:none" />
      <path
         d="m 258.89447,91.155912 a 76.798072,76.798072 0 0 0 -108.60884,0"
         id="path1380"
         style="fill:none;stroke:#000000;stroke-width:1.1;stroke-linecap:butt;stroke-linejoin:miter;stroke-dasharray:none" />
      <path
         d="m 151.27773,198.77265 a 75.394978,75.394978 0 0 1 0,-106.624542"
         id="path1382"
         style="fill:none;stroke:#000000;stroke-width:1.1;stroke-linecap:butt;stroke-linejoin:miter;stroke-dasharray:none" />
      <path
         id="90"
         d="m 264.73274,205.60312 -0.006,-0.006"
         style="fill:none;stroke:#000000;stroke-width:1.1;stroke-linecap:butt;stroke-linejoin:miter;stroke-dasharray:none" />
      <path
         id="91"
         d="m 264.71844,205.58882 -2.44879,-2.44879"
         style="fill:none;stroke:#000000;stroke-width:1.1;stroke-linecap:butt;stroke-linejoin:miter;stroke-dasharray:none" />
      <path
         id="92"
         d="m 261.95405,202.82444 -4.05178,-4.05179"
         style="fill:none;stroke:#000000;stroke-width:1.1;stroke-linecap:butt;stroke-linejoin:miter;stroke-dasharray:none" />
      <path
         d="m 298.9739,141.7586 q -0.0848,1.85084 -0.0849,3.70167"
         id="path1389"
         style="fill:none;stroke:#000000;stroke-width:1.1;stroke-linecap:butt;stroke-linejoin:miter;stroke-dasharray:none" />
      <path
         d="m 298.889,145.46027 v 1.1e-4"
         id="path1391"
         style="fill:none;stroke:#000000;stroke-width:1.1;stroke-linecap:butt;stroke-linejoin:miter;stroke-dasharray:none" />
      <path
         d="m 298.889,145.46038 v 1.1e-4"
         id="path1393"
         style="fill:none;stroke:#000000;stroke-width:1.1;stroke-linecap:butt;stroke-linejoin:miter;stroke-dasharray:none" />
      <path
         d="m 298.889,145.46049 q 10e-5,1.85083 0.0849,3.70167"
         id="path1395"
         style="fill:none;stroke:#000000;stroke-width:1.1;stroke-linecap:butt;stroke-linejoin:miter;stroke-dasharray:none" />
      <path
         id="97"
         d="M 298.889,145.46027 V 91.033712"
         style="fill:none;stroke:#000000;stroke-width:1.1;stroke-linecap:butt;stroke-linejoin:miter;stroke-dasharray:none" />
      <path
         id="101"
         d="M 298.889,199.88705 V 145.46049"
         style="fill:none;stroke:#000000;stroke-width:1.1;stroke-linecap:butt;stroke-linejoin:miter;stroke-dasharray:none" />
      <circle
         cx="204.59001"
         cy="-145.46037"
         r="54.278568"
         id="circle1436"
         transform="scale(1,-1)"
         style="fill:none;stroke:#000000;stroke-width:1.1;stroke-linecap:butt;stroke-linejoin:miter;stroke-dasharray:none" />
      <circle
         cx="204.59001"
         cy="-145.46037"
         r="50.957981"
         id="circle1438"
         transform="scale(1,-1)"
         style="fill:none;stroke:#000000;stroke-width:1.1;stroke-linecap:butt;stroke-linejoin:miter;stroke-dasharray:none" />
      <circle
         cx="204.59001"
         cy="-145.46037"
         r="32.185364"
         id="circle1440"
         transform="scale(1,-1)"
         style="fill:none;stroke:#000000;stroke-width:1.1;stroke-linecap:butt;stroke-linejoin:miter;stroke-dasharray:none" />
      <path
         d="m 298.9739,149.16216 a 94.456397,94.456397 0 0 0 0,-7.40356"
         id="path1442"
         style="fill:none;stroke:#000000;stroke-width:1.1;stroke-linecap:butt;stroke-linejoin:miter;stroke-dasharray:none" />
      <path
         d="m 269.95082,199.88705 q -0.8161,-1.74179 -1.65319,-3.48339"
         id="path1444"
         style="fill:none;stroke:#000000;stroke-width:1.1;stroke-linecap:butt;stroke-linejoin:miter;stroke-dasharray:none" />
      <path
         d="m 139.22918,199.88705 q 0.8161,-1.74179 1.65319,-3.48339"
         id="path1446"
         style="fill:none;stroke:#000000;stroke-width:1.1;stroke-linecap:butt;stroke-linejoin:miter;stroke-dasharray:none" />
      <path
         d="m 110.2062,149.16216 a 94.456397,94.456397 0 0 1 0,-7.40356"
         id="path1448"
         style="fill:none;stroke:#000000;stroke-width:1.1;stroke-linecap:butt;stroke-linejoin:miter;stroke-dasharray:none" />
      <path
         d="m 269.95082,91.033712 q -0.8161,1.741793 -1.65319,3.483386"
         id="path1450"
         style="fill:none;stroke:#000000;stroke-width:1.1;stroke-linecap:butt;stroke-linejoin:miter;stroke-dasharray:none" />
      <path
         d="m 139.22918,91.033712 q 0.8161,1.741793 1.65319,3.483386"
         id="path1452"
         style="fill:none;stroke:#000000;stroke-width:1.1;stroke-linecap:butt;stroke-linejoin:miter;stroke-dasharray:none" />
    </g>
  </g>
</svg>
