<?xml version="1.0" encoding="UTF-8" standalone="no"?>
<svg
   id="svg2"
   version="1.1"
   viewBox="0 0 541.82531 541.82532"
   height="541.82532mm"
   width="541.82532mm"
   sodipodi:docname="thumbnail.svg"
   inkscape:version="1.2.1 (9c6d41e410, 2022-07-14)"
   xmlns:inkscape="http://www.inkscape.org/namespaces/inkscape"
   xmlns:sodipodi="http://sodipodi.sourceforge.net/DTD/sodipodi-0.dtd"
   xmlns:xlink="http://www.w3.org/1999/xlink"
   xmlns="http://www.w3.org/2000/svg"
   xmlns:svg="http://www.w3.org/2000/svg"
   xmlns:rdf="http://www.w3.org/1999/02/22-rdf-syntax-ns#"
   xmlns:cc="http://creativecommons.org/ns#"
   xmlns:dc="http://purl.org/dc/elements/1.1/">
  <sodipodi:namedview
     id="namedview1152"
     pagecolor="#ffffff"
     bordercolor="#000000"
     borderopacity="0.25"
     inkscape:showpageshadow="2"
     inkscape:pageopacity="0.0"
     inkscape:pagecheckerboard="0"
     inkscape:deskcolor="#d1d1d1"
     inkscape:document-units="mm"
     showgrid="false"
     inkscape:zoom="0.28850711"
     inkscape:cx="129.97947"
     inkscape:cy="972.24642"
     inkscape:window-width="2400"
     inkscape:window-height="1471"
     inkscape:window-x="2391"
     inkscape:window-y="-9"
     inkscape:window-maximized="1"
     inkscape:current-layer="svg2" />
  <circle
     style="fill:#ff0000;fill-opacity:0;stroke:#ff0000;stroke-width:1;stroke-linecap:round;stroke-linejoin:bevel;stroke-opacity:0;paint-order:fill markers stroke"
     id="path10730"
     cx="270.91266"
     cy="270.91266"
     r="270.41266"
     inkscape:label="movingcircle" />
  <!-- Working space 10 10 410 287 -->
  <!-- Title block 220 227 410 287 -->
  <metadata
     id="metadata849">
    <rdf:RDF>
      <cc:Work
         rdf:about="">
        <dc:format>image/svg+xml</dc:format>
        <dc:type
           rdf:resource="http://purl.org/dc/dcmitype/StillImage" />
      </cc:Work>
    </rdf:RDF>
  </metadata>
  <defs
     id="defs847">
    <linearGradient
       gradientUnits="userSpaceOnUse"
       id="defitem29"
       y2="485.909"
       x2="655.35199"
       y1="807.466"
       x1="649.42902">
      <stop
         id="stop92"
         offset="0.0000000"
         style="stop-color:#ffffff;stop-opacity:1.0000000;" />
      <stop
         id="stop93"
         offset="1.0000000"
         style="stop-color:#ffffff;stop-opacity:0.13756600;" />
    </linearGradient>
    <linearGradient
       xlink:href="#defitem29"
       id="linearGradient3448"
       gradientUnits="userSpaceOnUse"
       x1="649.42902"
       y1="807.466"
       x2="655.35199"
       y2="485.909" />
    <radialGradient
       gradientUnits="userSpaceOnUse"
       id="defitem28"
       fy="345.56"
       fx="1049.72"
       r="1202.15"
       cy="345.56"
       cx="1049.72">
      <stop
         id="stop89"
         offset="0.0000000"
         style="stop-color:#ffffff;stop-opacity:1.0000000;" />
      <stop
         id="stop90"
         offset="1.0000000"
         style="stop-color:#a8a8a8;stop-opacity:1.0000000;" />
    </radialGradient>
    <radialGradient
       xlink:href="#defitem28"
       id="radialGradient3446"
       gradientUnits="userSpaceOnUse"
       cx="1092.7045"
       cy="64.845284"
       fx="1089.4004"
       fy="64.844765"
       r="1202.15" />
    <linearGradient
       gradientUnits="userSpaceOnUse"
       id="defitem30"
       y2="636.70697"
       x2="980"
       y1="636.70697"
       x1="287.5">
      <stop
         id="stop95"
         offset="0.0000000"
         style="stop-color:#464646;stop-opacity:1.0000000;" />
      <stop
         id="stop96"
         offset="1.0000000"
         style="stop-color:#c2c2c2;stop-opacity:1.0000000;" />
    </linearGradient>
    <linearGradient
       xlink:href="#defitem30"
       id="linearGradient3444"
       gradientUnits="userSpaceOnUse"
       gradientTransform="matrix(1,0,0,1.016038,0,-11.73855)"
       x1="287.5"
       y1="636.70697"
       x2="980"
       y2="636.70697" />
    <linearGradient
       gradientUnits="userSpaceOnUse"
       id="defitem27"
       y2="317.44699"
       x2="985.98199"
       y1="403.18799"
       x1="921.091">
      <stop
         id="stop86"
         offset="0.0000000"
         style="stop-color:#7e7e7e;stop-opacity:1.0000000;" />
      <stop
         id="stop87"
         offset="1.0000000"
         style="stop-color:#e5e5e5;stop-opacity:1.0000000;" />
    </linearGradient>
    <linearGradient
       xlink:href="#defitem27"
       id="linearGradient3442"
       gradientUnits="userSpaceOnUse"
       x1="921.091"
       y1="403.18799"
       x2="985.98199"
       y2="317.44699" />
    <linearGradient
       gradientUnits="userSpaceOnUse"
       id="defitem26"
       y2="360.27499"
       x2="293.37"
       y1="346.30399"
       x1="530.76099">
      <stop
         id="stop83"
         offset="0.0000000"
         style="stop-color:#5f5f5f;stop-opacity:1.0000000;" />
      <stop
         id="stop84"
         offset="1.0000000"
         style="stop-color:#e5e5e5;stop-opacity:1.0000000;" />
    </linearGradient>
    <linearGradient
       xlink:href="#defitem26"
       id="linearGradient3440"
       gradientUnits="userSpaceOnUse"
       x1="530.76099"
       y1="346.30399"
       x2="293.37"
       y2="360.27499" />
    <linearGradient
       gradientUnits="userSpaceOnUse"
       id="defitem25"
       y2="337.60999"
       x2="308.75"
       y1="412.91901"
       x1="164.013">
      <stop
         id="stop80"
         offset="0.0000000"
         style="stop-color:#ffffff;stop-opacity:1.0000000;" />
      <stop
         id="stop81"
         offset="1.0000000"
         style="stop-color:#bfbfbf;stop-opacity:1.0000000;" />
    </linearGradient>
    <linearGradient
       xlink:href="#defitem25"
       id="linearGradient3438"
       gradientUnits="userSpaceOnUse"
       x1="164.013"
       y1="412.91901"
       x2="308.75"
       y2="337.60999" />
    <linearGradient
       gradientUnits="userSpaceOnUse"
       id="defitem24"
       y2="380.47198"
       x2="992.48901"
       y1="270.854"
       x1="1094.25">
      <stop
         id="stop77"
         offset="0.0000000"
         style="stop-color:#6a6a6a;stop-opacity:1.0000000;" />
      <stop
         id="stop78"
         offset="1.0000000"
         style="stop-color:#e6e6e6;stop-opacity:1.0000000;" />
    </linearGradient>
    <linearGradient
       xlink:href="#defitem24"
       id="linearGradient3436"
       gradientUnits="userSpaceOnUse"
       x1="1094.25"
       y1="270.854"
       x2="992.48901"
       y2="380.47198" />
    <linearGradient
       gradientUnits="userSpaceOnUse"
       id="defitem23"
       y2="549.37799"
       x2="1049.84"
       y1="476.465"
       x1="1170.91">
      <stop
         id="stop74"
         offset="0.0000000"
         style="stop-color:#5f5f5f;stop-opacity:1.0000000;" />
      <stop
         id="stop75"
         offset="1.0000000"
         style="stop-color:#ebebeb;stop-opacity:1.0000000;" />
    </linearGradient>
    <linearGradient
       xlink:href="#defitem23"
       id="linearGradient3434"
       gradientUnits="userSpaceOnUse"
       x1="1170.91"
       y1="476.465"
       x2="1049.84"
       y2="549.37799" />
    <linearGradient
       gradientUnits="userSpaceOnUse"
       id="defitem22"
       y2="313.276"
       x2="576.14899"
       y1="105.486"
       x1="783.716">
      <stop
         id="stop71"
         offset="0.0000000"
         style="stop-color:#5a5a5a;stop-opacity:1.0000000;" />
      <stop
         id="stop72"
         offset="1.0000000"
         style="stop-color:#c7c7c7;stop-opacity:1.0000000;" />
    </linearGradient>
    <linearGradient
       xlink:href="#defitem22"
       id="linearGradient3432"
       gradientUnits="userSpaceOnUse"
       x1="783.716"
       y1="105.486"
       x2="576.14899"
       y2="313.276" />
    <linearGradient
       gradientUnits="userSpaceOnUse"
       id="defitem21"
       y2="484.716"
       x2="128.05499"
       y1="418.698"
       x1="280.04401">
      <stop
         id="stop68"
         offset="0.0000000"
         style="stop-color:#666666;stop-opacity:1.0000000;" />
      <stop
         id="stop69"
         offset="1.0000000"
         style="stop-color:#d8d8d8;stop-opacity:1.0000000;" />
    </linearGradient>
    <linearGradient
       xlink:href="#defitem21"
       id="linearGradient3430"
       gradientUnits="userSpaceOnUse"
       x1="280.04401"
       y1="418.698"
       x2="128.05499"
       y2="484.716" />
    <linearGradient
       gradientUnits="userSpaceOnUse"
       id="defitem20"
       y2="584.40997"
       x2="220"
       y1="636.95398"
       x1="129.687">
      <stop
         id="stop65"
         offset="0.0000000"
         style="stop-color:#ffffff;stop-opacity:1.0000000;" />
      <stop
         id="stop66"
         offset="1.0000000"
         style="stop-color:#bbbbbb;stop-opacity:1.0000000;" />
    </linearGradient>
    <linearGradient
       xlink:href="#defitem20"
       id="linearGradient3428"
       gradientUnits="userSpaceOnUse"
       x1="129.687"
       y1="636.95398"
       x2="220"
       y2="584.40997" />
    <linearGradient
       gradientUnits="userSpaceOnUse"
       id="defitem19"
       y2="583.75299"
       x2="1127.98"
       y1="629.02802"
       x1="1048.72">
      <stop
         id="stop62"
         offset="0.0000000"
         style="stop-color:#5e5e5e;stop-opacity:1.0000000;" />
      <stop
         id="stop63"
         offset="1.0000000"
         style="stop-color:#ededed;stop-opacity:1.0000000;" />
    </linearGradient>
    <linearGradient
       xlink:href="#defitem19"
       id="linearGradient3426"
       gradientUnits="userSpaceOnUse"
       x1="1048.72"
       y1="629.02802"
       x2="1127.98"
       y2="583.75299" />
    <linearGradient
       gradientUnits="userSpaceOnUse"
       id="defitem18"
       y2="291.97699"
       x2="581.32397"
       y1="387.27301"
       x1="370.022">
      <stop
         id="stop59"
         offset="0.0000000"
         style="stop-color:#636363;stop-opacity:1.0000000;" />
      <stop
         id="stop60"
         offset="1.0000000"
         style="stop-color:#d6d6d6;stop-opacity:1.0000000;" />
    </linearGradient>
    <linearGradient
       xlink:href="#defitem18"
       id="linearGradient3424"
       gradientUnits="userSpaceOnUse"
       x1="370.022"
       y1="387.27301"
       x2="581.32397"
       y2="291.97699" />
    <linearGradient
       gradientUnits="userSpaceOnUse"
       id="defitem17"
       y2="351.939"
       x2="909.59399"
       y1="351.939"
       x1="732.15601">
      <stop
         id="stop56"
         offset="0.0000000"
         style="stop-color:#676767;stop-opacity:1.0000000;" />
      <stop
         id="stop57"
         offset="1.0000000"
         style="stop-color:#d3d3d3;stop-opacity:1.0000000;" />
    </linearGradient>
    <linearGradient
       xlink:href="#defitem17"
       id="linearGradient3422"
       gradientUnits="userSpaceOnUse"
       x1="732.15601"
       y1="351.939"
       x2="909.59399"
       y2="351.939" />
    <linearGradient
       gradientUnits="userSpaceOnUse"
       id="defitem16"
       y2="494.71301"
       x2="1073.01"
       y1="494.71301"
       x1="1014.43">
      <stop
         id="stop53"
         offset="0.0000000"
         style="stop-color:#666666;stop-opacity:1.0000000;" />
      <stop
         id="stop54"
         offset="1.0000000"
         style="stop-color:#dcdcdc;stop-opacity:1.0000000;" />
    </linearGradient>
    <linearGradient
       xlink:href="#defitem16"
       id="linearGradient3420"
       gradientUnits="userSpaceOnUse"
       x1="1014.43"
       y1="494.71301"
       x2="1073.01"
       y2="494.71301" />
    <linearGradient
       gradientUnits="userSpaceOnUse"
       id="defitem15"
       y2="516.37"
       x2="193.27699"
       y1="452.388"
       x1="272.59201">
      <stop
         id="stop50"
         offset="0.0000000"
         style="stop-color:#6e6e6e;stop-opacity:1.0000000;" />
      <stop
         id="stop51"
         offset="1.0000000"
         style="stop-color:#d8d8d8;stop-opacity:1.0000000;" />
    </linearGradient>
    <linearGradient
       xlink:href="#defitem15"
       id="linearGradient3418"
       gradientUnits="userSpaceOnUse"
       x1="272.59201"
       y1="452.388"
       x2="193.27699"
       y2="516.37" />
    <radialGradient
       gradientUnits="userSpaceOnUse"
       id="defitem14"
       fy="211.088"
       fx="1037.22"
       r="1164.28"
       cy="211.088"
       cx="1037.22">
      <stop
         id="stop47"
         offset="0.0000000"
         style="stop-color:#ffffff;stop-opacity:1.0000000;" />
      <stop
         id="stop48"
         offset="1.0000000"
         style="stop-color:#aaaaaa;stop-opacity:1.0000000;" />
    </radialGradient>
    <radialGradient
       xlink:href="#defitem14"
       id="radialGradient3416"
       gradientUnits="userSpaceOnUse"
       cx="1037.22"
       cy="211.088"
       fx="1037.22"
       fy="211.088"
       r="1164.28" />
    <linearGradient
       gradientUnits="userSpaceOnUse"
       id="defitem13"
       y2="686.83002"
       x2="379.241"
       y1="732.12903"
       x1="342.64999">
      <stop
         id="stop44"
         offset="0.0000000"
         style="stop-color:#ffffff;stop-opacity:1.0000000;" />
      <stop
         id="stop45"
         offset="1.0000000"
         style="stop-color:#989898;stop-opacity:1.0000000;" />
    </linearGradient>
    <linearGradient
       xlink:href="#defitem13"
       id="linearGradient3414"
       gradientUnits="userSpaceOnUse"
       x1="342.64999"
       y1="732.12903"
       x2="379.241"
       y2="686.83002" />
    <radialGradient
       gradientUnits="userSpaceOnUse"
       id="defitem12"
       fy="484.409"
       fx="632.78101"
       r="540.27899"
       cy="484.409"
       cx="632.78101">
      <stop
         id="stop41"
         offset="0.0000000"
         style="stop-color:#ffffff;stop-opacity:1.0000000;" />
      <stop
         id="stop42"
         offset="1.0000000"
         style="stop-color:#ededed;stop-opacity:1.0000000;" />
    </radialGradient>
    <radialGradient
       xlink:href="#defitem12"
       id="radialGradient3412"
       gradientUnits="userSpaceOnUse"
       cx="632.78101"
       cy="484.409"
       fx="632.78101"
       fy="484.409"
       r="540.27899" />
    <radialGradient
       xlink:href="#linearGradient3682"
       id="radialGradient3817"
       gradientUnits="userSpaceOnUse"
       gradientTransform="matrix(1.1149219,0.2722306,-0.7507171,3.0745639,-471.08629,-148.32863)"
       cx="270.58316"
       cy="33.899986"
       fx="270.58316"
       fy="33.899986"
       r="19.571428" />
    <linearGradient
       id="linearGradient3682">
      <stop
         style="stop-color:#ff6d0f;stop-opacity:1;"
         offset="0"
         id="stop3684" />
      <stop
         style="stop-color:#ff1000;stop-opacity:1;"
         offset="1"
         id="stop3686" />
    </linearGradient>
    <radialGradient
       xlink:href="#linearGradient3864"
       id="radialGradient3661"
       gradientUnits="userSpaceOnUse"
       gradientTransform="matrix(0.6186598,0.9666542,-1.0332462,0.6612786,-327.27568,-255.84136)"
       cx="282.64584"
       cy="29.149046"
       fx="282.64584"
       fy="29.149046"
       r="19.571428" />
    <linearGradient
       id="linearGradient3864">
      <stop
         id="stop3866"
         offset="0"
         style="stop-color:#71b2f8;stop-opacity:1;" />
      <stop
         id="stop3868"
         offset="1"
         style="stop-color:#002795;stop-opacity:1;" />
    </linearGradient>
  </defs>
  <path
     id="path1121"
     style="color:#000000;fill:#c8c8c8;fill-opacity:1;stroke:#000000;stroke-opacity:1;-inkscape-stroke:none"
     d="m 180.50448,160.89792 v 0.34985 l -0.24804,-0.24598 -4.10518,4.10518 h -22.34024 c -5.05831,-8e-5 -9.79134,2.49179 -12.65401,6.66213 -1.02358,1.49088 -2.02494,2.99775 -3.00188,4.51962 l 0.29456,0.18965 -0.29456,-0.18759 -0.83819,1.31827 -0.82786,1.32602 -0.81442,1.33583 -0.8046,1.34204 -0.7891,1.34979 -0.78135,1.35547 -0.76584,1.36322 -0.75551,1.36891 -0.74259,1.37718 -0.73019,1.38286 -0.71675,1.39061 -0.70539,1.39423 -0.69298,1.4025 -0.68006,1.40819 0.31471,0.15244 -0.32039,-0.14056 -4.4788,10.19731 -3.82405,10.4743 -3.1502,10.69547 -2.4629,10.87324 -1.76785,11.00966 -1.06247,11.09958 -0.35553,11.14454 0.35553,11.14248 1.06247,11.09958 1.76785,11.00966 2.4629,10.87324 3.1502,10.69547 3.82405,10.4743 4.4788,10.19731 0.32039,-0.14056 -0.31471,0.15244 0.68006,1.40818 0.69298,1.4025 0.70539,1.39423 0.71675,1.39062 0.73019,1.38286 0.74259,1.37717 0.75551,1.36891 0.76584,1.36323 0.78135,1.35547 0.7891,1.34979 0.8046,1.34152 0.81442,1.33635 0.82786,1.32602 0.83819,1.31826 0.29456,-0.18758 -0.29456,0.18965 c 0.97694,1.52201 1.97829,3.02859 3.00188,4.51962 2.86268,4.17033 7.5957,6.66376 12.65401,6.66368 h 22.34386 l 4.10362,4.10569 0.24805,-0.25011 v 0.3514 h 180.81273 v -0.34934 l 0.24805,0.24805 4.10311,-4.10569 h 22.34179 c 5.0583,8e-5 9.79392,-2.49335 12.65659,-6.66368 1.0236,-1.49103 2.02495,-2.99761 3.00188,-4.51962 l -0.29507,-0.18965 0.29507,0.18758 0.83768,-1.31826 0.8263,-1.32602 0.81649,-1.33635 0.80254,-1.34152 0.79116,-1.34979 0.77928,-1.35547 0.7674,-1.36323 0.75602,-1.36891 0.74208,-1.37717 0.7307,-1.38286 0.71676,-1.39062 0.70486,-1.39423 0.6935,-1.4025 0.67954,-1.40818 -0.31419,-0.15244 0.3204,0.14056 4.47828,-10.19731 3.82405,-10.4743 3.15071,-10.69547 2.4629,-10.87324 1.76734,-11.00966 1.06246,-11.09958 0.35554,-11.14248 -0.35554,-11.14454 -1.06246,-11.09958 -1.76734,-11.00966 -2.4629,-10.87324 -3.15071,-10.69547 -3.82405,-10.4743 -4.47828,-10.19731 -0.3204,0.14056 0.31419,-0.15244 -0.67954,-1.40819 -0.6935,-1.4025 -0.70486,-1.39423 -0.71676,-1.39061 -0.7307,-1.38286 -0.74208,-1.37718 -0.75602,-1.36891 -0.7674,-1.36322 -0.77928,-1.35547 -0.79116,-1.34979 -0.80254,-1.34204 -0.81649,-1.33583 -0.8263,-1.32602 -0.83768,-1.31827 -0.29507,0.18759 0.29507,-0.18965 c -0.97694,-1.52187 -1.97828,-3.02874 -3.00188,-4.51962 -2.86267,-4.17034 -7.59829,-6.66221 -12.65659,-6.66213 h -22.33972 l -4.10518,-4.10518 -0.24805,0.24805 v -0.35192 z m -29.58992,52.01595 v 0.34985 h 3.89847 v 115.29839 h -3.89847 v 0.35192 l -0.0119,-0.0103 0.01,-0.32814 -0.48266,-0.0134 -17.00775,-0.44545 -3.3848,-7.55251 -2.96055,-7.953 -2.43964,-8.12716 -1.90841,-8.26977 -1.36684,-8.37469 -0.82424,-8.44548 -0.27337,-8.48217 0.27337,-8.48062 0.82424,-8.44548 1.36684,-8.37468 1.90841,-8.26978 2.43964,-8.12715 2.96055,-7.95301 3.3848,-7.55457 16.99225,-0.44339 0.49816,-0.0134 -0.01,-0.32659 z m 239.99568,0 0.0119,0.01 -0.008,0.32608 0.49764,0.0139 16.99224,0.44338 3.38481,7.55458 2.95899,7.953 2.43965,8.12716 1.90789,8.26926 1.36943,8.3752 0.82217,8.44496 0.27543,8.48062 -0.27543,8.48268 -0.82217,8.44496 -1.36943,8.3752 -1.90789,8.26926 -2.43965,8.12716 -2.95899,7.953 -3.38481,7.55303 -17.00774,0.44493 -0.48214,0.0139 0.008,0.32815 -0.01,0.01 v -0.3514 H 387.0116 V 213.26372 h 3.89847 z" />
  <g
     id="g10280"
     transform="translate(149.32423,214.81987)">
    <path
       style="color:#000000;fill:#c8c8c8;fill-opacity:1;stroke:#000000;stroke-opacity:1;-inkscape-stroke:none"
       d="m -54.967153,4.5674048 h 0.01758 0.15039 0.0078 0.292969 0.0957 0.326172 0.03125 0.509765 0.175781 0.269532 0.216797 0.783203 0.902343 1.021485 1.140625 1.263672 1.380859 1.501953 1.617188 0.0039 28.847656 18.806635 30.70508 2.999996 17.13867 132.699222 17.13867 3 30.70508 18.80664 28.84766 0.002 1.61719 1.50195 1.38281 1.26172 1.14258 1.02148 0.90235 0.78125 0.66211 0.54297 0.41992 0.30273 0.16797 l 7.89649,7.8964902 v 87.25781 l -7.89649,7.896475 h -0.0879 -0.0801 -0.24804 -0.0547 -0.26367 -0.15625 -0.47071 -0.0723 -0.44336 -0.21875 -0.78125 -0.90235 -1.02148 -1.14258 -1.26172 -1.38281 -1.50195 -1.61524 -0.004 -28.84766 -18.80664 -30.70508 -3 -17.13867 -132.699222 -17.13867 -2.999996 -30.70508 -18.806635 -28.845703 -0.0059 -1.615235 -1.501953 -1.382812 -1.261719 -1.142578 -1.021485 -0.902343 -0.783203 -0.66211 -0.541015 -0.421875 -0.300782 -0.167968 l -7.898438,-7.898425 v -87.25391 z"
       id="path5056" />
    <g
       id="g5047"
       style="stroke:#000000;stroke-opacity:1"
       transform="translate(-95.648798,-101.80955)">
      <path
         d="m 81.238,157.90284 v 5.05687 5.01103 4.9199 4.7842 4.6051 4.3844 4.1239 3.8261 3.4937 3.1296 2.7371 2.32 1.8817 1.4264"
         id="path3688"
         style="fill:none;stroke:#000000;stroke-width:0.35;stroke-linecap:butt;stroke-linejoin:miter;stroke-opacity:1" />
      <path
         d="m 81.238,106.20284 v 1.4264 1.8817 2.32 2.7371 3.1296 3.4937 3.8261 4.1239 4.3844 4.6051 4.7842 4.9199 5.01103 5.05687"
         id="path3690"
         style="fill:none;stroke:#000000;stroke-width:0.35;stroke-linecap:butt;stroke-linejoin:miter;stroke-opacity:1" />
      <path
         d="m 353.238,209.60284 v -1.4264 -1.8817 -2.32 -2.7371 -3.1296 -3.4937 -3.8261 -4.1239 -4.3844 -4.6051 -4.7842 -4.9199 -5.01103 -5.05687"
         id="path3692"
         style="fill:none;stroke:#000000;stroke-width:0.35;stroke-linecap:butt;stroke-linejoin:miter;stroke-opacity:1" />
      <path
         d="m 353.238,157.90284 v -5.05687 -5.01103 -4.9199 -4.7842 -4.6051 -4.3844 -4.1239 -3.8261 -3.4937 -3.1296 -2.7371 -2.32 -1.8817 -1.4264"
         id="path3694"
         style="fill:none;stroke:#000000;stroke-width:0.35;stroke-linecap:butt;stroke-linejoin:miter;stroke-opacity:1" />
    </g>
  </g>
  <g
     id="g10344"
     transform="translate(134.85348,86.40773)">
    <path
       style="color:#000000;fill:#c8c8c8;fill-opacity:1;stroke:#000000;stroke-opacity:1;-inkscape-stroke:none"
       d="m 272.84988,160.53854 h -0.17382 v -0.17383 h -5.82618 V 111.98385 76.706508 59.067838 c -0.002,-2.93872 0.003,-5.88 0,-8.82031 -0.002,-0.73469 -0.002,-1.46845 0,-2.20313 0.003,-0.7342 0.0105,-1.47185 -0.0137,-2.21094 h 0.002 c -0.0473,-1.47896 -0.23524,-2.95158 -0.56054,-4.41796 -0.16419,-0.73635 -0.36197,-1.46331 -0.59571,-2.18165 -0.23175,-0.7154 -0.4977,-1.4155 -0.79492,-2.0996 -0.59151,-1.36743 -1.31769,-2.68069 -2.16992,-3.92579 -0.42628,-0.62481 -0.88038,-1.2252 -1.36523,-1.80078 -0.48519,-0.57395 -0.99718,-1.11505 -1.51758,-1.64648 h -0.002 v -0.002 c -0.52147,-0.52748 -1.04567,-1.05268 -1.57422,-1.57422 -0.52544,-0.52344 -1.05055,-1.04759 -1.57422,-1.57227 l -12.5918,-12.59175 c -1.04871,-1.04971 -2.09677,-2.09972 -3.14648,-3.14844 -1.05041,-1.0464103 -2.09577,-2.1017703 -3.14844,-3.1484303 -0.52765,-0.52265 -1.06085,-1.04293 -1.62305,-1.53321 -0.56203,-0.49003 -1.15137,-0.9504 -1.76562,-1.38281 -1.22749,-0.86534 -2.55627,-1.6302 -3.93359,-2.25195 -1.37605,-0.62071 -2.80174,-1.10181 -4.27735,-1.44336 -1.47988,-0.34356998 -2.9986,-0.54235998 -4.5039,-0.59374998 -0.75385,-0.0262 -1.50429,-0.0186 -2.25196,-0.0156 -0.74829,0.002 -1.4978,0.002 -2.24609,0 -1.49728,-0.001 -2.99491,-0.001 -4.49219,0 H 140.84009 68.9768 59.99438 55.50219 53.2561 c -0.74882,0.001 -1.50047,0.005 -2.25,0.0469 -1.49658,0.0847 -2.97848,0.32104 -4.44532,0.70897998 -1.46859,0.38685 -2.92842,0.92279 -4.30468,1.58789 -1.37452,0.665 -2.66829,1.45705 -3.88282,2.37696 -0.60868,0.45946 -1.19703,0.95084 -1.76367,1.47265 -0.56639,0.52205 -1.10686,1.07353 -1.64648,1.61914 -1.08274,1.08974 -2.16813,2.1751303 -3.25586,3.2558603 -1.08608,1.08408 -2.17082,2.16787 -3.25586,3.25391 -2.16996,2.17096 -4.34168,4.34264 -6.51172,6.51367 l -6.50977,6.50977 c -0.54422,0.54122 -1.08768,1.08468 -1.6289,1.6289 -0.54053,0.54454 -1.08035,1.09453 -1.58985,1.67969 -0.51002,0.58864 -0.98717,1.20288 -1.43164,1.83984 -0.44324,0.63263 -0.85361,1.28407 -1.23047,1.95313 -1.51249,2.68137 -2.49537,5.67928 -2.86718,8.73438 -0.0926,0.76334 -0.14973,1.53039 -0.17188,2.30273 -0.0231,0.77288 -0.0148,1.54892 -0.01,2.32031 0.01,1.54372 0.003,3.08466 0,4.62696 -0.003,3.0853 0.002,6.17208 0,9.25781 V 71.450698 108.48 160.36476 H 0.67578 v 0.17383 H 0.5 v 0.55274 1.62695 2.62109 3.48242 4.17188 4.65039 4.89453 4.89649 4.64843 4.17188 3.48437 2.6211 1.62695 0.55078 h 0.17578 v 0.17578 H 6.5 v 14.94727 11.38086 3.99609 h 0.17578 l -0.17578,0.01 8,138.64062 0.17578,-0.01 -0.17578,0.0117 0.84375,12 0.17578,-0.0117 v 0.17578 h 1.66406 0.13477 l 0.69336,15.64062 0.17578,-0.008 -0.1211,0.12695 11.48633,10.99024 0.11914,-0.125 v 0.17383 h 0.25391 2.22265 4.38672 l 11.98047,26.95703 0.16016,-0.0723 v 0.17578 h 0.55273 1.65235 2.73242 3.77734 4.77344 5.70898 6.57618 7.35937 8.04688 8.63867 9.11718 9.48244 9.72851 9.85352 9.85156 9.72852 9.48437 9.11719 8.63672 8.04883 7.35742 6.57617 5.71094 4.77343 3.77539 2.73243 1.65234 0.55469 v -0.17383 l 0.1582,0.0703 11.98047,-26.95703 h 4.36719 2.23242 0.26367 v -0.17579 l 0.12109,0.12696 11.48242,-10.98828 -0.12109,-0.12696 v -0.002 l 0.17774,0.008 0.69335,-15.64062 h 0.13477 1.66406 v -0.17578 l 0.17578,0.0117 0.84375,-12 -0.17382,-0.0117 0.17382,0.01 8,-138.64062 -0.17382,-0.01 h 0.17382 v -3.99609 -11.38086 -14.94727 h 5.82618 v -0.17578 h 0.17382 v -0.55078 -1.62695 -2.6211 -3.48437 -4.17188 -4.64843 -4.89649 -4.89453 -4.65028 -4.17188 -3.48242 -2.62109 -1.62695 z"
       id="path6138" />
    <path
       d="m 255.89451,385.67896 -0.702,15.809"
       id="path5816-4"
       style="fill:none;stroke:#000000;stroke-width:0.35;stroke-linecap:butt;stroke-linejoin:miter" />
    <path
       d="m 18.21651,401.48796 -0.702,-15.809"
       id="path5818-6"
       style="fill:none;stroke:#000000;stroke-width:0.35;stroke-linecap:butt;stroke-linejoin:miter" />
    <path
       id="3-6"
       d="m 236.70451,412.53896 0.029,-0.06"
       style="fill:none;stroke:#000000;stroke-width:0.35;stroke-linecap:butt;stroke-linejoin:miter" />
    <path
       id="4-4"
       d="m 36.70451,412.53896 -0.029,-0.06"
       style="fill:none;stroke:#000000;stroke-width:0.35;stroke-linecap:butt;stroke-linejoin:miter" />
    <path
       id="5-3"
       d="m 224.70451,439.53896 12,-27"
       style="fill:none;stroke:#000000;stroke-width:0.35;stroke-linecap:butt;stroke-linejoin:miter" />
    <path
       id="6-8"
       d="m 48.70451,439.53896 -12,-27"
       style="fill:none;stroke:#000000;stroke-width:0.35;stroke-linecap:butt;stroke-linejoin:miter" />
    <path
       d="m 29.70251,412.47796 -11.485,-10.99"
       id="path5824-6"
       style="fill:none;stroke:#000000;stroke-width:0.35;stroke-linecap:butt;stroke-linejoin:miter" />
    <path
       d="m 255.18951,401.48996 -11.483,10.989"
       id="path5826-1"
       style="fill:none;stroke:#000000;stroke-width:0.35;stroke-linecap:butt;stroke-linejoin:miter" />
    <path
       id="9-2"
       d="m 0.70451,204.53896 h 6"
       style="fill:none;stroke:#000000;stroke-width:0.35;stroke-linecap:butt;stroke-linejoin:miter" />
    <path
       id="10-66"
       d="m 0.70451,160.53896 h 6"
       style="fill:none;stroke:#000000;stroke-width:0.35;stroke-linecap:butt;stroke-linejoin:miter" />
    <path
       id="11-7"
       d="m 266.70451,204.53896 h 6"
       style="fill:none;stroke:#000000;stroke-width:0.35;stroke-linecap:butt;stroke-linejoin:miter" />
    <path
       id="12-1"
       d="m 266.70451,160.53896 h 6"
       style="fill:none;stroke:#000000;stroke-width:0.35;stroke-linecap:butt;stroke-linejoin:miter" />
    <path
       d="m 254.65051,373.69896 -0.327,11.98"
       id="path5834-2"
       style="fill:none;stroke:#000000;stroke-width:0.35;stroke-linecap:butt;stroke-linejoin:miter" />
    <path
       d="m 254.65151,373.67896 -0.328,12"
       id="path5836-8"
       style="fill:none;stroke:#000000;stroke-width:0.35;stroke-linecap:butt;stroke-linejoin:miter" />
    <path
       d="m 254.65151,373.67896 c -2.873,0 -8.2,0 -15.787,0"
       id="path5838-6"
       style="fill:none;stroke:#000000;stroke-width:0.35;stroke-linecap:butt;stroke-linejoin:miter" />
    <path
       d="m 254.84351,401.48796 q 0.347,0 0.347,0"
       id="path5846-7"
       style="fill:none;stroke:#000000;stroke-width:0.35;stroke-linecap:butt;stroke-linejoin:miter" />
    <path
       d="m 218.52471,373.67896 h -28.3073"
       id="path5848-3"
       style="fill:none;stroke:#000000;stroke-width:0.35;stroke-linecap:butt;stroke-linejoin:miter" />
    <path
       d="m 190.21731,373.67896 c -35.1589,0 -71.8672,0 -107.0257,0"
       id="path5850-4"
       style="fill:none;stroke:#000000;stroke-width:0.35;stroke-linecap:butt;stroke-linejoin:miter" />
    <path
       d="M 83.19161,373.67896 H 54.88431"
       id="path5852-4"
       style="fill:none;stroke:#000000;stroke-width:0.35;stroke-linecap:butt;stroke-linejoin:miter" />
    <path
       d="m 18.21751,401.48796 q 0,0 0.337,0"
       id="path5870-5"
       style="fill:none;stroke:#000000;stroke-width:0.35;stroke-linecap:butt;stroke-linejoin:miter" />
    <path
       d="m 18.87851,373.67896 h 0.658 0.73 0.802 0.874 0.945 1.016 1.087 1.158 1.227 1.297 1.366 1.434 1.502 1.57"
       id="path5877-9"
       style="fill:none;stroke:#000000;stroke-width:0.35;stroke-linecap:butt;stroke-linejoin:miter" />
    <path
       d="m 18.75751,373.67896 h 0.121"
       id="path5879-5"
       style="fill:none;stroke:#000000;stroke-width:0.35;stroke-linecap:butt;stroke-linejoin:miter" />
    <path
       d="m 18.75751,373.67896 0.328,12"
       id="path5881-0"
       style="fill:none;stroke:#000000;stroke-width:0.35;stroke-linecap:butt;stroke-linejoin:miter" />
    <path
       d="m 19.08551,385.67896 -0.327,-11.98"
       id="path5883-0"
       style="fill:none;stroke:#000000;stroke-width:0.35;stroke-linecap:butt;stroke-linejoin:miter" />
    <path
       d="m 6.70451,235.03896 c 0,0 0,-1.367 0,-3.996 0,-2.63 0,-6.522 0,-11.381 0,-4.859 0,-10.686 0,-17.032 0,-6.346 0,-13.213 0,-20.091"
       id="path5895-1"
       style="fill:none;stroke:#000000;stroke-width:0.35;stroke-linecap:butt;stroke-linejoin:miter" />
    <path
       d="m 6.70451,182.53896 c 0,-24.686 0,-49.373 0,-74.059 0,-12.344002 0,-24.687002 0,-37.030002 0,-3.086 0,-6.172 0,-9.257 0.002,-3.086 -0.003,-6.173 0,-9.258 0.003,-1.542 0.01,-3.084 0,-4.629 -0.005,-0.772 -0.014,-1.545 0.009,-2.313 0.022,-0.767 0.079,-1.529 0.171,-2.287 0.369,-3.032 1.345,-6.009 2.846,-8.67 0.374,-0.664 0.782,-1.311 1.222,-1.939 0.441,-0.632 0.914,-1.24 1.42,-1.824 0.505,-0.58 1.042,-1.128 1.582,-1.672 0.541,-0.544 1.084,-1.087 1.628,-1.628 2.17,-2.17 4.341,-4.341 6.511,-6.511 2.17,-2.171 4.341,-4.341 6.511,-6.512 1.085,-1.086 2.17,-2.171 3.256,-3.255 1.088,-1.081 2.173,-2.1660003 3.256,-3.2560003 0.54,-0.546 1.079,-1.096 1.641,-1.614 0.5625,-0.518 1.1458,-1.005 1.7499,-1.461 1.2054,-0.913 2.4902,-1.7 3.8544,-2.36 1.3657,-0.66 2.8152,-1.191 4.273,-1.575 1.4557,-0.385 2.9259,-0.61999998 4.4106,-0.70399998 0.7434,-0.042 1.492,-0.045 2.2405,-0.046 0.7486,0 1.4972,0 2.2458,0 1.4971,0 2.9943,0 4.4914,0 2.9944,0 5.9887,0 8.983,0 23.9546,0 47.9092,0 71.86376,0 23.95454,0 47.90914,0 71.86374,0 1.4972,-0.001 2.9943,-0.001 4.4915,0 0.7486,0.002 1.4971,0.002 2.2457,0 0.7486,-0.003 1.4972,-0.012 2.2456,0.014 1.4938,0.051 3.0012,0.25 4.47,0.59099998 1.4646,0.339 2.8798,0.816 4.2454,1.432 1.3668,0.617 2.6874,1.376 3.9059,2.235 0.6094,0.429 1.1928,0.886 1.7502,1.372 0.5573,0.486 1.0886,1.004 1.6156,1.526 1.052,1.046 2.096,2.101 3.147,3.1480003 1.05,1.049 2.099,2.098 3.148,3.148 4.197,4.197 8.394,8.394 12.591,12.591 0.524,0.525 1.048,1.05 1.574,1.574 0.528,0.521 1.053,1.046 1.574,1.573 0.519,0.53 1.028,1.068 1.509,1.637 0.481,0.571 0.933,1.167 1.356,1.787 0.846,1.236 1.567,2.54 2.154,3.897 0.295,0.679 0.558,1.373 0.788,2.083 0.232,0.713 0.429,1.435 0.592,2.166 0.323,1.456 0.508,2.918 0.555,4.386 0.024,0.734 0.016,1.469 0.013,2.204 -0.002,0.735 -0.002,1.47 0,2.205 0.003,2.94 -0.002,5.88 0,8.819 0,5.88 0,11.76 0,17.639 0,11.759 0,23.519002 0,35.278002 0,23.518 0,47.037 0,70.555"
       id="path5897-0"
       style="fill:none;stroke:#000000;stroke-width:0.35;stroke-linecap:butt;stroke-linejoin:miter" />
    <path
       d="m 266.70451,182.53896 c 0,6.877 0,13.744 0,20.091 0,6.347 0,12.173 0,17.032 0,4.859 0,8.751 0,11.381 0,2.629 0,3.996 0,3.996"
       id="path5899-7"
       style="fill:none;stroke:#000000;stroke-width:0.35;stroke-linecap:butt;stroke-linejoin:miter" />
    <path
       d="m 266.70451,182.37496 c 0,-23.464 0,-46.927 0,-70.391 0,-11.759 0,-23.519002 0,-35.278002 0,-5.879 0,-11.759 0,-17.639 -0.002,-2.939 0.003,-5.879 0,-8.819 -0.002,-0.735 -0.002,-1.47 0,-2.205 0.003,-0.735 0.011,-1.47 -0.013,-2.204 -0.047,-1.468 -0.232,-2.93 -0.555,-4.386 -0.163,-0.731 -0.36,-1.453 -0.592,-2.166 -0.23,-0.71 -0.493,-1.404 -0.788,-2.083 -0.587,-1.357 -1.308,-2.661 -2.154,-3.897 -0.423,-0.62 -0.875,-1.216 -1.356,-1.787 -0.481,-0.569 -0.99,-1.107 -1.509,-1.637 -0.521,-0.527 -1.046,-1.052 -1.574,-1.573 -0.526,-0.524 -1.05,-1.049 -1.574,-1.574 -4.197,-4.197 -8.394,-8.394 -12.591,-12.591 -1.049,-1.05 -2.098,-2.099 -3.148,-3.148 -1.051,-1.0470003 -2.095,-2.1020003 -3.147,-3.1480003 -0.527,-0.522 -1.0583,-1.04 -1.6156,-1.526 -0.5574,-0.486 -1.1408,-0.943 -1.7502,-1.372 -1.2185,-0.859 -2.5391,-1.618 -3.9059,-2.235 -1.3656,-0.616 -2.7808,-1.093 -4.2454,-1.432 -1.4688,-0.34099998 -2.9762,-0.53999998 -4.47,-0.59099998 -0.7484,-0.026 -1.497,-0.017 -2.2456,-0.014 -0.7486,0.002 -1.4971,0.002 -2.2457,0 -1.4972,-0.001 -2.9943,-0.001 -4.4915,0 -23.9546,0 -47.9092,0 -71.86374,0 -23.95456,0 -47.90916,0 -71.86376,0 -2.9943,0 -5.9886,0 -8.983,0 -1.4971,0 -2.9943,0 -4.4914,0 -0.7486,0 -1.4972,0 -2.2458,0 -0.7485,0.001 -1.4971,0.004 -2.2405,0.046 -1.4847,0.084 -2.9549,0.31899998 -4.4106,0.70399998 -1.4578,0.384 -2.9073,0.915 -4.273,1.575 -1.3642,0.66 -2.649,1.447 -3.8544,2.36 -0.6041,0.456 -1.1874,0.943 -1.7499,1.461 -0.562,0.518 -1.101,1.068 -1.641,1.614 -1.083,1.09 -2.168,2.1750003 -3.256,3.2560003 -1.086,1.084 -2.171,2.169 -3.256,3.255 -2.17,2.171 -4.341,4.341 -6.511,6.512 -2.17,2.17 -4.341,4.341 -6.511,6.511 -0.544,0.541 -1.087,1.084 -1.628,1.628 -0.54,0.544 -1.077,1.092 -1.582,1.672 -0.506,0.584 -0.979,1.192 -1.42,1.824 -0.44,0.628 -0.848,1.275 -1.222,1.939 -1.501,2.661 -2.477,5.638 -2.846,8.67 -0.092,0.758 -0.149,1.52 -0.171,2.287 -0.023,0.768 -0.014,1.541 -0.009,2.313 0.01,1.545 0.003,3.087 0,4.629 -0.003,3.085 0.002,6.172 0,9.258 0,3.085 0,6.171 0,9.257 0,12.343 0,24.686 0,37.030002 0,24.21 0,48.42 0,72.629"
       id="path5901-6"
       style="fill:none;stroke:#000000;stroke-width:0.35;stroke-linecap:butt;stroke-linejoin:miter" />
    <path
       id="36-3"
       d="m 6.70451,235.03896 8,138.64"
       style="fill:none;stroke:#000000;stroke-width:0.35;stroke-linecap:butt;stroke-linejoin:miter" />
    <path
       id="37-6"
       d="m 258.70451,373.67896 8,-138.64"
       style="fill:none;stroke:#000000;stroke-width:0.35;stroke-linecap:butt;stroke-linejoin:miter" />
    <path
       d="m 11.65151,246.43096 0.003,-0.015"
       id="path5943-35"
       style="fill:none;stroke:#000000;stroke-width:0.35;stroke-linecap:butt;stroke-linejoin:miter" />
    <path
       id="65-9"
       d="m 218.52491,373.67896 h 20.3376"
       style="fill:none;stroke:#000000;stroke-width:0.35;stroke-linecap:butt;stroke-linejoin:miter" />
    <path
       id="119-9"
       d="m 16.38251,373.67896 h -1.678"
       style="fill:none;stroke:#000000;stroke-width:0.35;stroke-linecap:butt;stroke-linejoin:miter" />
    <path
       id="122-5"
       d="m 257.02651,373.67896 h 1.678"
       style="fill:none;stroke:#000000;stroke-width:0.35;stroke-linecap:butt;stroke-linejoin:miter" />
    <path
       d="m 257.02651,373.67896 h -2.376"
       id="path6066-0"
       style="fill:none;stroke:#000000;stroke-width:0.35;stroke-linecap:butt;stroke-linejoin:miter" />
    <path
       d="m 18.75851,373.67896 h -2.376"
       id="path6068-41"
       style="fill:none;stroke:#000000;stroke-width:0.35;stroke-linecap:butt;stroke-linejoin:miter" />
    <path
       d="m 6.70451,182.53896 c 0,-1.451 0,-2.88 0,-4.288 0,-1.41 0,-2.805 0,-4.135 0,-1.33 0,-2.594 0,-3.791 0,-1.196 0,-2.324 0,-3.343 0,-1.017 0,-1.927 0,-2.729 0,-0.806 0,-1.491 0,-2.037 0,-1.102 0,-1.683 0,-1.677"
       id="path6074-0"
       style="fill:none;stroke:#000000;stroke-width:0.35;stroke-linecap:butt;stroke-linejoin:miter" />
    <path
       d="m 266.70451,160.53896 c 0,0.003 0,0.569 0,1.667 0,1.102 0,2.735 0,4.765 0,2.028 0,4.474 0,7.139 0,2.66 0,5.522 0,8.429"
       id="path6076-91"
       style="fill:none;stroke:#000000;stroke-width:0.35;stroke-linecap:butt;stroke-linejoin:miter" />
    <path
       d="m 36.67551,412.47896 h 0.0792 0.2385 0.3972 0.5552 0.7122 0.8683 1.0228 1.1758 1.3269 1.4758 1.6225 1.7666 1.9078 2.046"
       id="path6084-8"
       style="fill:none;stroke:#000000;stroke-width:0.35;stroke-linecap:butt;stroke-linejoin:miter" />
    <path
       d="m 136.70451,412.53896 h -11.1964 -11.0557 -10.7758 -10.3605 -9.8148 -9.1458 -8.3617 -7.4724 -6.4893 -5.4245 -4.2914 -3.1045 -1.8784 -0.6288"
       id="path6088-1"
       style="fill:none;stroke:#000000;stroke-width:0.35;stroke-linecap:butt;stroke-linejoin:miter" />
    <path
       d="m 236.70451,412.53896 h -0.6288 -1.8784 -3.1045 -4.2914 -5.4245 -6.4893 -7.4724 -8.3617 -9.1458 -9.8148 -10.3605 -10.7758 -11.0557 -11.1964"
       id="path6090-9"
       style="fill:none;stroke:#000000;stroke-width:0.35;stroke-linecap:butt;stroke-linejoin:miter" />
    <path
       d="m 221.53871,412.47896 h 2.046 1.9078 1.7666 1.6225 1.4758 1.3269 1.1758 1.0228 0.8683 0.7122 0.5552 0.3972 0.2385 0.0792"
       id="path6092-9"
       style="fill:none;stroke:#000000;stroke-width:0.35;stroke-linecap:butt;stroke-linejoin:miter" />
    <path
       d="m 136.70451,439.53896 h -9.85287 -9.72893 -9.4828 -9.1172 -8.637 -8.0483 -7.3583 -6.5758 -5.7105 -4.7736 -3.7764 -2.732 -1.653 -0.5533"
       id="path6096-1"
       style="fill:none;stroke:#000000;stroke-width:0.35;stroke-linecap:butt;stroke-linejoin:miter" />
    <path
       d="m 224.70451,439.53896 h -0.5533 -1.653 -2.732 -3.7764 -4.7736 -5.7105 -6.5758 -7.3583 -8.0483 -8.637 -9.1172 -9.4828 -9.72893 -9.85287"
       id="path6098-5"
       style="fill:none;stroke:#000000;stroke-width:0.35;stroke-linecap:butt;stroke-linejoin:miter" />
    <path
       id="141-8"
       d="m 34.54451,373.67896 h 20.3392"
       style="fill:none;stroke:#000000;stroke-width:0.35;stroke-linecap:butt;stroke-linejoin:miter" />
    <path
       d="m 51.87031,412.47896 c -0.624,0 -1.1397,0 -1.5468,0 -0.4073,0 -0.7056,0 -0.8963,0 -0.0274,0 -0.0411,0 -0.0663,0 -0.0281,0 -0.0806,0 -0.1295,0 -0.0941,0 -0.1875,0 -0.2803,0 -0.187,0 -0.3721,0 -0.5554,0 -0.3674,0 -0.7305,0 -1.0895,0 -1.4387,0 -2.7941,0 -4.0664,0 -2.5398,0 -4.7538,0 -6.6013,0 -1.846,0 -3.339,0 -4.461,0 -1.121,0 -1.862,0 -2.222,0"
       id="path6105-4"
       style="fill:none;stroke:#000000;stroke-width:0.35;stroke-linecap:butt;stroke-linejoin:miter" />
    <path
       d="m 29.95551,412.47896 q -0.254,0 -0.254,0"
       id="path6107-1"
       style="fill:none;stroke:#000000;stroke-width:0.35;stroke-linecap:butt;stroke-linejoin:miter" />
    <path
       d="m 29.70151,412.47896 q 0,0 0.254,0"
       id="path6109-4"
       style="fill:none;stroke:#000000;stroke-width:0.35;stroke-linecap:butt;stroke-linejoin:miter" />
    <path
       d="m 19.08551,385.67896 h -1.872"
       id="path6113-6"
       style="fill:none;stroke:#000000;stroke-width:0.35;stroke-linecap:butt;stroke-linejoin:miter" />
    <path
       d="m 17.21351,385.67896 -0.831,-12"
       id="path6115-2"
       style="fill:none;stroke:#000000;stroke-width:0.35;stroke-linecap:butt;stroke-linejoin:miter" />
    <path
       id="149-07"
       d="m 15.54851,385.67896 -0.844,-12"
       style="fill:none;stroke:#000000;stroke-width:0.35;stroke-linecap:butt;stroke-linejoin:miter" />
    <path
       id="150-38"
       d="m 15.54851,385.67896 h 1.665"
       style="fill:none;stroke:#000000;stroke-width:0.35;stroke-linecap:butt;stroke-linejoin:miter" />
    <path
       d="m 243.70751,412.47896 q 0,0 -0.263,0"
       id="path6122-5"
       style="fill:none;stroke:#000000;stroke-width:0.35;stroke-linecap:butt;stroke-linejoin:miter" />
    <path
       d="m 243.44451,412.47896 c -0.365,0 -1.109,0 -2.233,0 -1.125,0 -2.618,0 -4.464,0 -1.8472,0 -4.056,0 -6.5951,0 -1.2689,0 -2.6305,0 -4.0626,0 -0.3576,0 -0.7193,0 -1.085,0 -0.1825,0 -0.3671,0 -0.5539,0 -0.0956,0 -0.1828,0 -0.2799,0 -0.0495,0 -0.1038,0 -0.1319,0 -0.0253,0 -0.038,0 -0.0653,0 -0.0941,0 -0.2152,0 -0.3633,0 -0.1486,0 -0.3242,0 -0.5269,0 -0.4058,0 -0.9208,0 -1.5449,0"
       id="path6124-91"
       style="fill:none;stroke:#000000;stroke-width:0.35;stroke-linecap:butt;stroke-linejoin:miter" />
    <path
       d="m 221.53871,412.47896 q -8.2982,0 -16.8526,0"
       id="path6126-2"
       style="fill:none;stroke:#000000;stroke-width:0.35;stroke-linecap:butt;stroke-linejoin:miter" />
    <path
       id="157-0"
       d="m 257.86051,385.67896 0.844,-12"
       style="fill:none;stroke:#000000;stroke-width:0.35;stroke-linecap:butt;stroke-linejoin:miter" />
    <path
       d="m 257.02651,373.67896 -0.831,12"
       id="path6131-6"
       style="fill:none;stroke:#000000;stroke-width:0.35;stroke-linecap:butt;stroke-linejoin:miter" />
    <path
       id="159-7"
       d="m 256.19551,385.67896 h 1.665"
       style="fill:none;stroke:#000000;stroke-width:0.35;stroke-linecap:butt;stroke-linejoin:miter" />
    <path
       d="m 256.19551,385.67896 h -1.872"
       id="path6134-9"
       style="fill:none;stroke:#000000;stroke-width:0.35;stroke-linecap:butt;stroke-linejoin:miter" />
    <path
       d="m 0.70451,160.53896 v 0.552 1.627 2.621 3.483 4.172 4.65 4.895 4.895 4.65 4.172 3.483 2.621 1.627 0.552"
       id="path6136-8"
       style="fill:none;stroke:#000000;stroke-width:0.35;stroke-linecap:butt;stroke-linejoin:miter" />
    <path
       d="m 272.70451,160.53896 v 0.552 1.627 2.621 3.483 4.172 4.65 4.895 4.895 4.65 4.172 3.483 2.621 1.627 0.552"
       id="path6138-1"
       style="fill:none;stroke:#000000;stroke-width:0.35;stroke-linecap:butt;stroke-linejoin:miter" />
  </g>
  <rect
     style="fill:#00ff00;fill-opacity:0;stroke:#00ff00;stroke-width:1;stroke-linecap:round;stroke-linejoin:bevel;stroke-opacity:0;paint-order:fill markers stroke"
     id="rect11356"
     width="140.31284"
     height="23.385473"
     x="200.75624"
     y="156.56415"
     inkscape:label="pigtail" />
</svg>
