<?xml version="1.0" encoding="UTF-8" standalone="no"?>
<svg
   width="366mm"
   height="230.99995mm"
   viewBox="0 0 366 230.99995"
   version="1.1"
   id="svg2"
   sodipodi:version="0.32"
   inkscape:version="1.2.1 (9c6d41e410, 2022-07-14)"
   sodipodi:docname="thumbnail.svg"
   inkscape:output_extension="org.inkscape.output.svg.inkscape"
   xmlns:inkscape="http://www.inkscape.org/namespaces/inkscape"
   xmlns:sodipodi="http://sodipodi.sourceforge.net/DTD/sodipodi-0.dtd"
   xmlns:xlink="http://www.w3.org/1999/xlink"
   xmlns="http://www.w3.org/2000/svg"
   xmlns:svg="http://www.w3.org/2000/svg"
   xmlns:rdf="http://www.w3.org/1999/02/22-rdf-syntax-ns#"
   xmlns:cc="http://creativecommons.org/ns#"
   xmlns:dc="http://purl.org/dc/elements/1.1/">
  <!-- Working space 10 10 410 287 -->
  <!-- Title block 220 227 410 287 -->
  <metadata
     id="metadata849">
    <rdf:RDF>
      <cc:Work
         rdf:about="">
        <dc:format>image/svg+xml</dc:format>
        <dc:type
           rdf:resource="http://purl.org/dc/dcmitype/StillImage" />
      </cc:Work>
    </rdf:RDF>
  </metadata>
  <path
     id="path1547"
     style="color:#000000;fill:#c8c8c8;fill-opacity:1;stroke:#000000;stroke-width:1.9765;stroke-miterlimit:4;stroke-dasharray:none;stroke-opacity:1"
     d="m 93.44861,7.034547 v 0.34646 l -0.24776,-0.24556 -4.06749,4.04747 H 67.00431 c -5.01062,-8e-5 -9.70054,2.4588 -12.53622,6.57051 -1.56338,2.26688 -3.0712,4.57026 -4.52409,6.90883 l -0.70027,1.1362 -0.69208,1.14434 -0.68491,1.14739 -0.67364,1.15555 -0.66547,1.15861 -0.65829,1.1637 -0.64601,1.17083 -0.63781,1.17491 -0.62758,1.17796 -0.62246,1.18205 -0.60813,1.19019 -0.60301,1.19427 -0.59174,1.19732 -0.58048,1.20242 h -0.004 l -0.56512,1.19732 -0.56103,1.20141 -0.55387,1.20957 -0.54158,1.20955 -0.5293,1.21668 -0.52315,1.21771 -0.51394,1.22382 -0.5037,1.22892 -0.49449,1.22891 -0.48424,1.23604 -0.47607,1.23606 -0.46377,1.24421 -0.45661,1.2442 -0.44944,1.24726 0.32966,0.11611 -0.32966,-0.11215 -1.34217,3.94763 -1.24595,3.98634 -1.14971,4.00976 -1.05244,4.03933 -0.95212,4.06377 -0.85486,4.08211 -0.75453,4.10557 -0.6542,4.11676 -0.55693,4.13612 -0.45251,4.14837 -0.35628,4.155483 -0.25082,4.16364 -0.15563,4.17078 -0.0501,4.16669 0.34808,0.004 -0.34808,0.004 0.0501,4.1677 0.15563,4.17078 0.25082,4.16365 0.35628,4.15548 0.45251,4.14733 0.55693,4.13614 0.6542,4.12186 0.75453,4.10148 0.85486,4.08211 0.95212,4.06276 1.05244,4.04034 1.14971,4.00978 1.24595,3.98532 1.34217,3.94762 0.32966,-0.11116 -0.32966,0.11512 0.44944,1.24829 0.45661,1.24418 0.46377,1.2432 0.47607,1.23707 0.48424,1.23604 0.49449,1.23198 0.5037,1.22485 0.51394,1.22482 0.52315,1.21668 0.5293,1.21772 0.54158,1.20957 0.55387,1.20851 0.56103,1.20244 0.56512,1.19732 h 0.004 l 0.58048,1.20141 0.59174,1.19833 0.60301,1.19326 0.60813,1.19019 0.62246,1.18205 0.62758,1.17897 0.63781,1.17492 0.64601,1.17083 0.65829,1.16268 0.66547,1.15962 0.67364,1.15555 0.68491,1.14739 0.69208,1.14333 0.70027,1.1362 0.29485,-0.17635 -0.29485,0.18031 c 1.45289,2.33847 2.96071,4.63902 4.52409,6.90578 2.83568,4.11173 7.5256,6.5706 12.53622,6.57052 h 22.12905 l 4.06749,4.04747 0.24776,-0.2466 v 0.34646 h 179.10664 v -0.34646 l 0.24779,0.2466 4.06645,-4.04747 h 22.13006 c 5.01065,8e-5 9.70057,-2.45879 12.5362,-6.57052 1.56342,-2.26676 3.07125,-4.56731 4.52412,-6.90578 l -0.22524,-0.1385 0.22524,0.13553 0.70024,-1.1362 0.69213,-1.14434 0.68489,-1.14739 0.67367,-1.15555 0.66544,-1.15962 0.65418,-1.16268 0.65013,-1.17083 0.63782,-1.17492 0.62655,-1.17796 0.61937,-1.18306 0.61118,-1.19019 0.60407,-1.19326 0.58765,-1.19833 0.58457,-1.20141 0.5692,-1.19732 0.56108,-1.20141 0.55279,-1.20954 0.53854,-1.20957 0.5334,-1.21669 0.52214,-1.21771 0.51495,-1.22482 0.50268,-1.22384 0.49551,-1.23299 0.48424,-1.23604 0.47605,-1.23606 0.46379,-1.24421 0.45661,-1.24418 0.44838,-1.24726 -0.27845,-0.10085 0.27845,0.0967 1.3432,-3.9476 1.24597,-3.98634 1.14868,-4.00979 1.05349,-4.0393 0.95107,-4.0638 0.85588,-4.08211 0.75455,-4.10148 0.65317,-4.12085 0.55793,-4.13715 0.45253,-4.14733 0.35524,-4.15548 0.25186,-4.16365 0.15153,-4.17077 0.0502,-4.16771 -0.34811,-0.004 0.34811,-0.004 -0.0502,-4.16772 -0.15153,-4.17078 -0.25186,-4.16364 -0.35524,-4.155483 -0.45253,-4.14734 -0.55793,-4.13715 -0.65317,-4.11676 -0.75455,-4.10557 -0.85588,-4.0821 -0.95521,-4.06378 -1.04935,-4.03933 -1.14868,-4.00976 -1.24597,-3.98634 -1.3432,-3.94763 -0.27845,0.0969 0.27845,-0.0999 -0.44838,-1.24827 -0.45661,-1.2442 -0.46379,-1.2442 -0.47605,-1.23607 -0.48424,-1.23604 -0.49551,-1.2289 -0.50268,-1.2279 -0.51495,-1.22485 -0.52214,-1.21771 -0.5334,-1.21668 -0.53854,-1.20955 -0.55279,-1.20957 -0.56108,-1.20141 -0.5692,-1.19732 -0.58457,-1.20138 -0.58765,-1.19836 -0.60407,-1.19326 -0.61118,-1.19019 -0.61937,-1.18306 -0.62655,-1.17796 -0.63782,-1.17491 -0.65013,-1.17083 -0.65418,-1.16269 -0.66544,-1.15962 -0.67367,-1.15555 -0.68489,-1.14739 -0.69213,-1.14434 -0.70024,-1.13619 c -1.45287,-2.33857 -2.9607,-4.64195 -4.52412,-6.90884 -2.83563,-4.11171 -7.52555,-6.57059 -12.5362,-6.57051 h -22.13006 l -4.07055,-4.04747 -0.24369,0.24251 v -0.34238 z m -29.31499,51.28126 v 0.33016 10e-4 0.0159 h 3.86171 V 172.33964 h -3.86171 v 0.0159 0.33118 l -0.007,-0.0119 0.007,-0.31997 -0.49552,-0.0159 h -0.007 l -16.82485,-0.43817 -3.35084,-7.44482 -2.93313,-7.84121 -2.41818,-8.01548 -1.88785,-8.15302 -1.35446,-8.25698 -0.81699,-8.32626 -0.27027,-8.36192 0.27027,-8.36092 0.81699,-8.327293 1.35446,-8.25696 1.88785,-8.15304 2.41818,-8.01443 2.93313,-7.84123 3.35084,-7.44482 16.8402,-0.4392 h 0.008 v -0.004 l 0.47913,-0.0119 -0.007,-0.32302 z m 237.73255,0 0.0113,0.008 -0.007,0.32813 0.47915,0.0119 h 0.008 l 16.84017,0.43919 3.35085,7.44482 2.93214,7.84123 2.41509,8.01444 1.89197,8.15406 1.35441,8.25697 0.81599,8.326263 0.27131,8.36192 -0.27131,8.36091 -0.81599,8.32626 -1.35441,8.258 -1.89197,8.15303 -2.41509,8.01446 -2.93214,7.84121 -3.35085,7.44482 -16.83609,0.43919 v 0.004 l -0.49141,0.0119 0.008,0.31997 -0.0123,0.0119 v -0.34339 h -3.86172 V 58.665027 h 3.86172 z" />
  <defs
     id="defs847">
    <linearGradient
       x1="649.42902"
       y1="807.466"
       x2="655.35199"
       y2="485.909"
       id="defitem29"
       gradientUnits="userSpaceOnUse">
      <stop
         style="stop-color:#ffffff;stop-opacity:1.0000000;"
         offset="0.0000000"
         id="stop92" />
      <stop
         style="stop-color:#ffffff;stop-opacity:0.13756600;"
         offset="1.0000000"
         id="stop93" />
    </linearGradient>
    <linearGradient
       y2="485.909"
       x2="655.35199"
       y1="807.466"
       x1="649.42902"
       gradientUnits="userSpaceOnUse"
       id="linearGradient3448"
       xlink:href="#defitem29"
       inkscape:collect="always" />
    <radialGradient
       cx="1049.72"
       cy="345.56"
       r="1202.15"
       fx="1049.72"
       fy="345.56"
       id="defitem28"
       gradientUnits="userSpaceOnUse">
      <stop
         style="stop-color:#ffffff;stop-opacity:1.0000000;"
         offset="0.0000000"
         id="stop89" />
      <stop
         style="stop-color:#a8a8a8;stop-opacity:1.0000000;"
         offset="1.0000000"
         id="stop90" />
    </radialGradient>
    <radialGradient
       r="1202.15"
       fy="64.844765"
       fx="1089.4004"
       cy="64.845284"
       cx="1092.7045"
       gradientUnits="userSpaceOnUse"
       id="radialGradient3446"
       xlink:href="#defitem28"
       inkscape:collect="always" />
    <linearGradient
       x1="287.5"
       y1="636.70697"
       x2="980"
       y2="636.70697"
       id="defitem30"
       gradientUnits="userSpaceOnUse">
      <stop
         style="stop-color:#464646;stop-opacity:1.0000000;"
         offset="0.0000000"
         id="stop95" />
      <stop
         style="stop-color:#c2c2c2;stop-opacity:1.0000000;"
         offset="1.0000000"
         id="stop96" />
    </linearGradient>
    <linearGradient
       y2="636.70697"
       x2="980"
       y1="636.70697"
       x1="287.5"
       gradientTransform="matrix(1,0,0,1.016038,0,-11.73855)"
       gradientUnits="userSpaceOnUse"
       id="linearGradient3444"
       xlink:href="#defitem30"
       inkscape:collect="always" />
    <linearGradient
       x1="921.091"
       y1="403.18799"
       x2="985.98199"
       y2="317.44699"
       id="defitem27"
       gradientUnits="userSpaceOnUse">
      <stop
         style="stop-color:#7e7e7e;stop-opacity:1.0000000;"
         offset="0.0000000"
         id="stop86" />
      <stop
         style="stop-color:#e5e5e5;stop-opacity:1.0000000;"
         offset="1.0000000"
         id="stop87" />
    </linearGradient>
    <linearGradient
       y2="317.44699"
       x2="985.98199"
       y1="403.18799"
       x1="921.091"
       gradientUnits="userSpaceOnUse"
       id="linearGradient3442"
       xlink:href="#defitem27"
       inkscape:collect="always" />
    <linearGradient
       x1="530.76099"
       y1="346.30399"
       x2="293.37"
       y2="360.27499"
       id="defitem26"
       gradientUnits="userSpaceOnUse">
      <stop
         style="stop-color:#5f5f5f;stop-opacity:1.0000000;"
         offset="0.0000000"
         id="stop83" />
      <stop
         style="stop-color:#e5e5e5;stop-opacity:1.0000000;"
         offset="1.0000000"
         id="stop84" />
    </linearGradient>
    <linearGradient
       y2="360.27499"
       x2="293.37"
       y1="346.30399"
       x1="530.76099"
       gradientUnits="userSpaceOnUse"
       id="linearGradient3440"
       xlink:href="#defitem26"
       inkscape:collect="always" />
    <linearGradient
       x1="164.013"
       y1="412.91901"
       x2="308.75"
       y2="337.60999"
       id="defitem25"
       gradientUnits="userSpaceOnUse">
      <stop
         style="stop-color:#ffffff;stop-opacity:1.0000000;"
         offset="0.0000000"
         id="stop80" />
      <stop
         style="stop-color:#bfbfbf;stop-opacity:1.0000000;"
         offset="1.0000000"
         id="stop81" />
    </linearGradient>
    <linearGradient
       y2="337.60999"
       x2="308.75"
       y1="412.91901"
       x1="164.013"
       gradientUnits="userSpaceOnUse"
       id="linearGradient3438"
       xlink:href="#defitem25"
       inkscape:collect="always" />
    <linearGradient
       x1="1094.25"
       y1="270.854"
       x2="992.48901"
       y2="380.47198"
       id="defitem24"
       gradientUnits="userSpaceOnUse">
      <stop
         style="stop-color:#6a6a6a;stop-opacity:1.0000000;"
         offset="0.0000000"
         id="stop77" />
      <stop
         style="stop-color:#e6e6e6;stop-opacity:1.0000000;"
         offset="1.0000000"
         id="stop78" />
    </linearGradient>
    <linearGradient
       y2="380.47198"
       x2="992.48901"
       y1="270.854"
       x1="1094.25"
       gradientUnits="userSpaceOnUse"
       id="linearGradient3436"
       xlink:href="#defitem24"
       inkscape:collect="always" />
    <linearGradient
       x1="1170.91"
       y1="476.465"
       x2="1049.84"
       y2="549.37799"
       id="defitem23"
       gradientUnits="userSpaceOnUse">
      <stop
         style="stop-color:#5f5f5f;stop-opacity:1.0000000;"
         offset="0.0000000"
         id="stop74" />
      <stop
         style="stop-color:#ebebeb;stop-opacity:1.0000000;"
         offset="1.0000000"
         id="stop75" />
    </linearGradient>
    <linearGradient
       y2="549.37799"
       x2="1049.84"
       y1="476.465"
       x1="1170.91"
       gradientUnits="userSpaceOnUse"
       id="linearGradient3434"
       xlink:href="#defitem23"
       inkscape:collect="always" />
    <linearGradient
       x1="783.716"
       y1="105.486"
       x2="576.14899"
       y2="313.276"
       id="defitem22"
       gradientUnits="userSpaceOnUse">
      <stop
         style="stop-color:#5a5a5a;stop-opacity:1.0000000;"
         offset="0.0000000"
         id="stop71" />
      <stop
         style="stop-color:#c7c7c7;stop-opacity:1.0000000;"
         offset="1.0000000"
         id="stop72" />
    </linearGradient>
    <linearGradient
       y2="313.276"
       x2="576.14899"
       y1="105.486"
       x1="783.716"
       gradientUnits="userSpaceOnUse"
       id="linearGradient3432"
       xlink:href="#defitem22"
       inkscape:collect="always" />
    <linearGradient
       x1="280.04401"
       y1="418.698"
       x2="128.05499"
       y2="484.716"
       id="defitem21"
       gradientUnits="userSpaceOnUse">
      <stop
         style="stop-color:#666666;stop-opacity:1.0000000;"
         offset="0.0000000"
         id="stop68" />
      <stop
         style="stop-color:#d8d8d8;stop-opacity:1.0000000;"
         offset="1.0000000"
         id="stop69" />
    </linearGradient>
    <linearGradient
       y2="484.716"
       x2="128.05499"
       y1="418.698"
       x1="280.04401"
       gradientUnits="userSpaceOnUse"
       id="linearGradient3430"
       xlink:href="#defitem21"
       inkscape:collect="always" />
    <linearGradient
       x1="129.687"
       y1="636.95398"
       x2="220"
       y2="584.40997"
       id="defitem20"
       gradientUnits="userSpaceOnUse">
      <stop
         style="stop-color:#ffffff;stop-opacity:1.0000000;"
         offset="0.0000000"
         id="stop65" />
      <stop
         style="stop-color:#bbbbbb;stop-opacity:1.0000000;"
         offset="1.0000000"
         id="stop66" />
    </linearGradient>
    <linearGradient
       y2="584.40997"
       x2="220"
       y1="636.95398"
       x1="129.687"
       gradientUnits="userSpaceOnUse"
       id="linearGradient3428"
       xlink:href="#defitem20"
       inkscape:collect="always" />
    <linearGradient
       x1="1048.72"
       y1="629.02802"
       x2="1127.98"
       y2="583.75299"
       id="defitem19"
       gradientUnits="userSpaceOnUse">
      <stop
         style="stop-color:#5e5e5e;stop-opacity:1.0000000;"
         offset="0.0000000"
         id="stop62" />
      <stop
         style="stop-color:#ededed;stop-opacity:1.0000000;"
         offset="1.0000000"
         id="stop63" />
    </linearGradient>
    <linearGradient
       y2="583.75299"
       x2="1127.98"
       y1="629.02802"
       x1="1048.72"
       gradientUnits="userSpaceOnUse"
       id="linearGradient3426"
       xlink:href="#defitem19"
       inkscape:collect="always" />
    <linearGradient
       x1="370.022"
       y1="387.27301"
       x2="581.32397"
       y2="291.97699"
       id="defitem18"
       gradientUnits="userSpaceOnUse">
      <stop
         style="stop-color:#636363;stop-opacity:1.0000000;"
         offset="0.0000000"
         id="stop59" />
      <stop
         style="stop-color:#d6d6d6;stop-opacity:1.0000000;"
         offset="1.0000000"
         id="stop60" />
    </linearGradient>
    <linearGradient
       y2="291.97699"
       x2="581.32397"
       y1="387.27301"
       x1="370.022"
       gradientUnits="userSpaceOnUse"
       id="linearGradient3424"
       xlink:href="#defitem18"
       inkscape:collect="always" />
    <linearGradient
       x1="732.15601"
       y1="351.939"
       x2="909.59399"
       y2="351.939"
       id="defitem17"
       gradientUnits="userSpaceOnUse">
      <stop
         style="stop-color:#676767;stop-opacity:1.0000000;"
         offset="0.0000000"
         id="stop56" />
      <stop
         style="stop-color:#d3d3d3;stop-opacity:1.0000000;"
         offset="1.0000000"
         id="stop57" />
    </linearGradient>
    <linearGradient
       y2="351.939"
       x2="909.59399"
       y1="351.939"
       x1="732.15601"
       gradientUnits="userSpaceOnUse"
       id="linearGradient3422"
       xlink:href="#defitem17"
       inkscape:collect="always" />
    <linearGradient
       x1="1014.43"
       y1="494.71301"
       x2="1073.01"
       y2="494.71301"
       id="defitem16"
       gradientUnits="userSpaceOnUse">
      <stop
         style="stop-color:#666666;stop-opacity:1.0000000;"
         offset="0.0000000"
         id="stop53" />
      <stop
         style="stop-color:#dcdcdc;stop-opacity:1.0000000;"
         offset="1.0000000"
         id="stop54" />
    </linearGradient>
    <linearGradient
       y2="494.71301"
       x2="1073.01"
       y1="494.71301"
       x1="1014.43"
       gradientUnits="userSpaceOnUse"
       id="linearGradient3420"
       xlink:href="#defitem16"
       inkscape:collect="always" />
    <linearGradient
       x1="272.59201"
       y1="452.388"
       x2="193.27699"
       y2="516.37"
       id="defitem15"
       gradientUnits="userSpaceOnUse">
      <stop
         style="stop-color:#6e6e6e;stop-opacity:1.0000000;"
         offset="0.0000000"
         id="stop50" />
      <stop
         style="stop-color:#d8d8d8;stop-opacity:1.0000000;"
         offset="1.0000000"
         id="stop51" />
    </linearGradient>
    <linearGradient
       y2="516.37"
       x2="193.27699"
       y1="452.388"
       x1="272.59201"
       gradientUnits="userSpaceOnUse"
       id="linearGradient3418"
       xlink:href="#defitem15"
       inkscape:collect="always" />
    <radialGradient
       cx="1037.22"
       cy="211.088"
       r="1164.28"
       fx="1037.22"
       fy="211.088"
       id="defitem14"
       gradientUnits="userSpaceOnUse">
      <stop
         style="stop-color:#ffffff;stop-opacity:1.0000000;"
         offset="0.0000000"
         id="stop47" />
      <stop
         style="stop-color:#aaaaaa;stop-opacity:1.0000000;"
         offset="1.0000000"
         id="stop48" />
    </radialGradient>
    <radialGradient
       r="1164.28"
       fy="211.088"
       fx="1037.22"
       cy="211.088"
       cx="1037.22"
       gradientUnits="userSpaceOnUse"
       id="radialGradient3416"
       xlink:href="#defitem14"
       inkscape:collect="always" />
    <linearGradient
       x1="342.64999"
       y1="732.12903"
       x2="379.241"
       y2="686.83002"
       id="defitem13"
       gradientUnits="userSpaceOnUse">
      <stop
         style="stop-color:#ffffff;stop-opacity:1.0000000;"
         offset="0.0000000"
         id="stop44" />
      <stop
         style="stop-color:#989898;stop-opacity:1.0000000;"
         offset="1.0000000"
         id="stop45" />
    </linearGradient>
    <linearGradient
       y2="686.83002"
       x2="379.241"
       y1="732.12903"
       x1="342.64999"
       gradientUnits="userSpaceOnUse"
       id="linearGradient3414"
       xlink:href="#defitem13"
       inkscape:collect="always" />
    <radialGradient
       cx="632.78101"
       cy="484.409"
       r="540.27899"
       fx="632.78101"
       fy="484.409"
       id="defitem12"
       gradientUnits="userSpaceOnUse">
      <stop
         style="stop-color:#ffffff;stop-opacity:1.0000000;"
         offset="0.0000000"
         id="stop41" />
      <stop
         style="stop-color:#ededed;stop-opacity:1.0000000;"
         offset="1.0000000"
         id="stop42" />
    </radialGradient>
    <radialGradient
       r="540.27899"
       fy="484.409"
       fx="632.78101"
       cy="484.409"
       cx="632.78101"
       gradientUnits="userSpaceOnUse"
       id="radialGradient3412"
       xlink:href="#defitem12"
       inkscape:collect="always" />
    <inkscape:perspective
       id="perspective3148"
       inkscape:persp3d-origin="32 : -44.666712 : 1"
       inkscape:vp_z="63.999999 : -34.000042 : 1"
       inkscape:vp_y="0 : 999.99997 : 0"
       inkscape:vp_x="0 : -34.000042 : 1"
       sodipodi:type="inkscape:persp3d" />
    <linearGradient
       id="linearGradient3682">
      <stop
         id="stop3684"
         offset="0"
         style="stop-color:#ff6d0f;stop-opacity:1;" />
      <stop
         id="stop3686"
         offset="1"
         style="stop-color:#ff1000;stop-opacity:1;" />
    </linearGradient>
    <linearGradient
       id="linearGradient3864">
      <stop
         style="stop-color:#71b2f8;stop-opacity:1;"
         offset="0"
         id="stop3866" />
      <stop
         style="stop-color:#002795;stop-opacity:1;"
         offset="1"
         id="stop3868" />
    </linearGradient>
  </defs>
  <sodipodi:namedview
     inkscape:window-height="1035"
     inkscape:window-width="1920"
     inkscape:pageshadow="2"
     inkscape:pageopacity="0.0"
     guidetolerance="10.0"
     gridtolerance="10.0"
     objecttolerance="10.0"
     borderopacity="1.0"
     bordercolor="#666666"
     pagecolor="#ffffff"
     id="base"
     inkscape:window-x="0"
     inkscape:window-y="45"
     inkscape:current-layer="svg2"
     inkscape:document-units="mm"
     showgrid="false"
     inkscape:window-maximized="1"
     inkscape:pagecheckerboard="0"
     inkscape:zoom="0.49756677"
     inkscape:cx="319.5551"
     inkscape:cy="294.43285"
     inkscape:showpageshadow="2"
     inkscape:deskcolor="#d1d1d1" />
  <path
     id="path7780"
     style="color:#000000;fill:#c8c8c8;fill-opacity:1;stroke:#000000;stroke-width:1.987;stroke-miterlimit:4;stroke-dasharray:none;stroke-opacity:1"
     d="M 0.99349999,64.493457 H 1.23079 h 0.45513 0.5835 0.71187 0.84414 0.97251 1.10088 1.23314 1.36151 1.48988 1.61825 1.52488 c 0.31293,0.56865 0.62764,1.24606 0.94528,2.10238 0.34291,0.92773 0.68964,2.02468 1.02307,3.26001 0.66829,2.4625 1.29004,5.48827 1.86721,9.06764 v 73.156723 c -0.28686,1.78499 -0.58844,3.44118 -0.90247,4.95972 -0.31651,1.52657 -0.64589,2.91929 -0.9803,4.15438 -0.64768,2.39172 -1.30798,4.12828 -1.96446,5.31205 H 11.6016 9.98335 8.49347 7.13196 5.89882 4.79794 3.82543 2.98129 2.26942 1.68592 1.23079 0.99349999 Z m 12.89153001,0 H 50.6341 v 1.11508 1.90875 2.33466 2.73734 3.12452 3.47295 3.79817 4.08858 4.34024 4.55706 4.727403 4.85904 4.94811 1.70744 l -0.40456,-0.92149 -0.8519,-1.38219 -1.08533,-1.37062 -1.31873,-1.35899 -1.5521,-1.35124 -1.78163,-1.33962 -2.01503,-1.328 -2.24066,-1.32029 -2.46627,-1.30863 -2.6958,-1.300913 -2.91751,-1.28544 -2.99533,-1.21572 -0.47458,-1.29317 -0.57183,-1.42481 -0.60685,-1.40544 -0.64574,-1.38609 -0.68465,-1.36672 -0.72355,-1.3435 -0.75855,-1.32413 -0.79355,-1.29704 -0.82858,-1.27381 -0.86359,-1.24672 -0.8986,-1.22345 -0.9297,-1.19251 -0.96475,-1.16151 -0.92969,-1.06087 c -0.57565,-3.55472 -1.196,-6.58268 -1.86722,-9.05603 -0.33777,-1.25133 -0.69034,-2.36517 -1.04253,-3.31808 -0.27625,-0.7447 -0.55766,-1.31117 -0.84026,-1.86232 z m 37.44539,0 h 2.98365 16.79712 29.01961 21.06448 123.60944 21.0606 29.02347 16.79323 2.98366 v 1.11508 1.90875 2.33466 2.73734 3.12452 3.47295 3.79817 4.08858 4.34024 4.55706 4.727403 4.85904 4.94811 4.96356 0.031 0.031 4.96358 4.94809 4.85906 4.7274 4.55706 4.34022 4.0847 3.80207 3.47295 3.1245 2.73734 2.33468 1.90877 1.11506 H 311.68202 294.88879 265.86532 244.80472 121.19528 100.1308 71.11119 54.31407 51.33042 v -1.11506 -1.90877 -2.33468 -2.73734 -3.1245 -3.47295 -3.80207 -4.0847 -4.34022 -4.55706 -4.7274 -4.85906 -4.94809 -4.96358 -0.031 -0.031 -4.96356 -4.94811 -4.85904 -4.727403 -4.55706 -4.34024 -4.08858 -3.79817 -3.47295 -3.12452 -2.73734 -2.33466 -1.90875 z m 264.03158,0 h 36.74906 c -0.28258,0.55115 -0.56399,1.11762 -0.84024,1.86232 -0.35221,0.95291 -0.70087,2.06675 -1.03864,3.31808 -0.67122,2.47335 -1.29548,5.50131 -1.8711,9.05603 l -0.92972,1.06087 -0.96084,1.16151 -0.9336,1.19251 -0.89859,1.22345 -0.86358,1.24672 -0.82858,1.27381 -0.79357,1.29704 -0.75856,1.32413 -0.72354,1.3435 -0.68465,1.36672 -0.64574,1.38609 -0.60683,1.40544 -0.56795,1.42481 -0.47849,1.29317 -2.9953,1.21572 -2.91753,1.28544 -2.69579,1.300913 -2.46626,1.30863 -2.24066,1.32029 -2.01115,1.328 -1.78163,1.33962 -1.55212,1.35124 -1.32262,1.35899 -1.08531,1.37062 -0.84801,1.38219 -0.40846,0.92535 v -1.7113 -4.94811 -4.85904 -4.727403 -4.55706 -4.34024 -4.08858 -3.79817 -3.47295 -3.12452 -2.73734 -2.33466 -1.90875 z m 37.5115,0 h 1.52101 1.61825 1.48988 1.36152 1.23313 1.10087 0.97251 0.84413 0.71578 0.5835 0.45513 0.23729 V 166.50636 h -0.23729 -0.45513 -0.5835 -0.71578 -0.84413 -0.97251 -1.10087 -1.23313 -1.36152 -1.48988 -1.61825 -1.50934 c -0.65646,-1.18377 -1.32067,-2.92033 -1.96834,-5.31205 -0.33439,-1.23509 -0.66378,-2.62781 -0.98028,-4.15438 -0.31403,-1.51854 -0.61563,-3.17473 -0.90249,-4.95972 V 78.923487 c 0.57719,-3.57937 1.20282,-6.60514 1.87109,-9.06764 0.33345,-1.23533 0.6763,-2.33228 1.01919,-3.26001 0.31765,-0.85636 0.63623,-1.53371 0.94916,-2.10238 z m -335.21514,15.31664 0.37344,0.4259 0.95307,1.14991 0.91804,1.17702 0.88693,1.20411 0.8519,1.23121 0.8208,1.25834 0.7819,1.28154 0.75077,1.30476 0.71188,1.32802 0.67298,1.35126 0.63796,1.36672 0.60294,1.38994 0.56017,1.40545 0.5057,1.36674 V 133.9488 l -0.5057,1.36672 -0.56017,1.40547 -0.60294,1.38994 -0.63796,1.36672 -0.67298,1.35124 -0.71188,1.32802 -0.75077,1.3048 -0.7819,1.28152 -0.8208,1.25834 -0.8519,1.23121 -0.88693,1.20411 -0.91804,1.177 -0.95307,1.14605 -0.37344,0.42588 z m 330.67938,0 v 71.375723 l -0.37345,-0.42588 -0.94916,-1.14605 -0.92193,-1.177 -0.88304,-1.20411 -0.8558,-1.23121 -0.81692,-1.25834 -0.78578,-1.28152 -0.74689,-1.3048 -0.71186,-1.32802 -0.67687,-1.35124 -0.63796,-1.36672 -0.60296,-1.38994 -0.56016,-1.40547 -0.50571,-1.37447 V 97.058747 l 0.50571,-1.37447 0.56016,-1.40545 0.60296,-1.38994 0.63796,-1.36672 0.67687,-1.35126 0.71186,-1.32802 0.74689,-1.30476 0.78578,-1.28154 0.81692,-1.25834 0.8558,-1.23121 0.88304,-1.20411 0.92193,-1.17702 0.94916,-1.14991 z m -319.95457,17.69779 2.6491,1.07636 2.89808,1.27766 2.67243,1.285403 2.43905,1.29705 2.21343,1.3009 1.98002,1.30868 1.74662,1.31251 1.50934,1.31253 1.27592,1.31639 1.03864,1.31251 0.80135,1.30478 0.57182,1.30091 0.34232,1.29705 0.11273,1.27768 v 0.012 0.012 l -0.11273,1.27768 -0.34232,1.29703 -0.57182,1.30092 -0.80135,1.30476 -1.03864,1.31254 -1.27592,1.31253 -1.50934,1.31639 -1.74662,1.31251 -1.98002,1.30866 -2.21343,1.30092 -2.43905,1.29701 -2.67243,1.28544 -2.89808,1.27766 -2.6491,1.07636 z m 309.22978,0 v 35.984043 l -2.64522,-1.07636 -2.90197,-1.27766 -2.66854,-1.28542 -2.44295,-1.29703 -2.21343,-1.3009 -1.98003,-1.30868 -1.74273,-1.31251 -1.51321,-1.31639 -1.27593,-1.31253 -1.03863,-1.31251 -0.80134,-1.30478 -0.57183,-1.30091 -0.34233,-1.29705 -0.10895,-1.28929 0.10895,-1.28929 0.34233,-1.29705 0.57183,-1.30091 0.80134,-1.30478 1.03863,-1.31251 1.27593,-1.31639 1.51321,-1.31253 1.74273,-1.31251 1.98003,-1.30868 2.21343,-1.3009 2.44295,-1.29705 2.66854,-1.285403 2.90197,-1.27766 z m -22.25095,21.275273 0.40846,0.92535 0.84801,1.38221 1.08531,1.3706 1.32262,1.35897 1.55212,1.35124 1.78163,1.33964 2.01115,1.328 2.24066,1.32027 2.46626,1.30865 2.69579,1.30091 2.91753,1.28544 2.9953,1.21572 0.47849,1.29315 0.56795,1.42481 0.60683,1.40546 0.64574,1.38609 0.68465,1.36672 0.72354,1.34348 0.75856,1.32415 0.79357,1.29704 0.82858,1.27381 0.86358,1.2467 0.89859,1.22347 0.9336,1.19249 0.96084,1.16153 0.92972,1.05699 c 0.2843,1.76202 0.58323,3.40708 0.89471,4.91325 0.31886,1.53792 0.64927,2.94565 0.98806,4.197 0.61514,2.27149 1.24893,3.87287 1.90611,5.13006 H 315.362 v -1.11508 -1.90875 -2.33468 -2.73734 -3.1245 -3.47295 -3.80207 -4.0847 -4.34022 -4.55706 -4.7274 -4.85906 -4.94809 z m -264.7279,0.004 v 1.70744 4.94809 4.85906 4.7274 4.55706 4.34022 4.0847 3.80207 3.47295 3.1245 2.73734 2.33468 1.90875 1.11508 H 13.84614 c 0.6572,-1.25719 1.29099,-2.85857 1.90611,-5.13007 0.33881,-1.25134 0.6731,-2.65907 0.99196,-4.19699 0.31146,-1.50615 0.60653,-3.15123 0.89083,-4.91327 l 0.92969,-1.05697 0.96475,-1.16153 0.9297,-1.19249 0.8986,-1.22347 0.86359,-1.2467 0.82858,-1.27381 0.79355,-1.29704 0.75855,-1.32415 0.72355,-1.34348 0.68465,-1.36672 0.64574,-1.38609 0.60685,-1.40546 0.57183,-1.42481 0.47458,-1.29315 2.99533,-1.21572 2.91751,-1.28544 2.6958,-1.30091 2.46627,-1.30865 2.24066,-1.32027 2.01503,-1.328 1.78163,-1.33964 1.5521,-1.35124 1.31873,-1.35897 1.08533,-1.37062 0.8519,-1.38219 z" />
  <path
     style="color:#000000;fill:#c8c8c8;fill-opacity:1;stroke:#000000;stroke-width:2.03278;stroke-opacity:1;-inkscape-stroke:none"
     d="m 182.99721,1.01639 c 8.27196,0 16.49087,0.292963 24.69307,0.878728 4.10109,0.293363 8.19716,0.660124 12.22479,1.092731 8.05356,0.866174 15.82637,1.989848 23.37931,3.349218 11.3389,2.04358 22.17288,4.60334 32.89725,7.73873 l 0.009,-0.0276 c 0.009,0.002 0.0167,0.006 0.0247,0.008 l -0.009,0.0276 c 1.05538,0.23114 2.07665,0.49428 3.08862,0.79333 0.77192,0.22821 1.54704,0.47854 2.31861,0.75421 l 0.48693,0.17375 v 10e-4 c 1.12828,0.41051 2.2902,0.86084 3.48437,1.34897 1.11658,0.45427 2.275,0.94576 3.44142,1.46625 1.16756,0.52059 2.34352,1.06943 3.4533,1.62161 1.10977,0.55212 2.15673,1.10852 3.00392,1.6175 0.66519,0.39941 1.20992,0.77609 1.5154,1.05779 4.52819,4.17895 9.17487,8.42444 13.86671,12.68177 l 0.23912,-0.24489 -0.0527,0.33028 c 0.55179,0.0856 1.12116,0.16915 1.71487,0.25312 l 0.0385,-0.249 0.0146,0.249 1.6537,-0.0812 v 2.18139 4.16516 3.5859 57.050063 c -0.13738,0.0568 -0.29015,0.078 -0.39683,0.18314 -0.18616,0.18335 -0.3416,0.42359 -0.48687,0.72333 -0.31107,0.64334 -0.57579,1.56388 -0.7979,2.72982 -0.22209,1.1657 -0.39683,2.57272 -0.51905,4.11475 -0.12119,1.54202 -0.18678,3.21976 -0.19093,4.89986 -0.007,1.67995 0.05,3.35945 0.16623,4.90397 0.11582,1.54438 0.29146,2.95144 0.51479,4.11887 0.22219,1.1676 0.48819,2.09257 0.80645,2.73701 0.149,0.30087 0.30836,0.54037 0.49867,0.72337 0.11,0.10597 0.26533,0.12716 0.40541,0.18314 v 57.00376 2.73083 0.066 1.21724 0.25211 c -1.39766,0.28905 -2.78735,0.62104 -4.1954,1.04643 l 0.0527,0.15536 c -0.37755,0.36273 -0.75483,0.72831 -1.13036,1.08965 l -0.007,0.004 c -2.86121,2.67836 -5.64125,5.3058 -8.29749,7.84778 -1.79488,1.95775 -3.56657,3.90431 -5.31717,5.83414 l 0.009,0.008 c -0.77153,1.42039 -1.54552,2.84755 -2.32189,4.28146 -0.12888,0.23582 -0.54251,0.6376 -1.19148,1.0732 -0.649,0.43556 -1.52807,0.92247 -2.58671,1.43846 -2.03761,0.99231 -4.75408,2.08726 -7.87179,3.15784 -1.0425,0.35781 -2.12048,0.69775 -3.2302,1.02278 -2.02944,0.59443 -4.15909,1.12972 -6.39603,1.60309 l 0.0167,0.07 c -0.0104,0.004 -0.0227,0.008 -0.033,0.012 l -0.0238,-0.0698 c -0.48199,0.15696 -1.05948,0.32796 -1.62153,0.49799 -0.67265,0.17896 -1.34451,0.35818 -2.01836,0.53302 -4.80427,1.28725 -9.76295,2.41683 -14.79863,3.49944 -4.1144,0.87247 -8.22101,1.78921 -12.36746,2.50858 -11.20445,1.94113 -22.82872,3.3568 -34.97135,4.16931 -3.82783,0.25558 -7.7104,0.45006 -11.58458,0.57928 -3.87504,0.12936 -7.73918,0.19455 -11.59743,0.19455 -8.27201,0 -16.48978,-0.29297 -24.69195,-0.87872 -4.10107,-0.29335 -8.19827,-0.66015 -12.22592,-1.09274 -8.05352,-0.86617 -15.82636,-1.99292 -23.37928,-3.35231 -11.33892,-2.04358 -22.17288,-4.60436 -32.89727,-7.73975 l -0.009,0.0276 c -0.009,-0.002 -0.0167,-0.002 -0.0247,-0.004 l 0.0104,-0.0308 c -1.05541,-0.23114 -2.07666,-0.49016 -3.08864,-0.78921 -0.77224,-0.22831 -1.54629,-0.48256 -2.3186,-0.75833 l -0.48583,-0.17495 c -1.12838,-0.41056 -2.2901,-0.8618 -3.48438,-1.34999 -1.11657,-0.45427 -2.27499,-0.94576 -3.44149,-1.46625 -1.16747,-0.52058 -2.34346,-1.06942 -3.45324,-1.62159 -1.10978,-0.55214 -2.15673,-1.10854 -3.0039,-1.61754 -0.66519,-0.39937 -1.20994,-0.77605 -1.51541,-1.05775 v 0.004 c -4.52818,-4.17892 -9.17493,-8.42854 -13.8667,-12.68587 l -0.23914,0.24487 0.0527,-0.32617 c -0.55178,-0.0856 -1.12113,-0.17335 -1.71487,-0.25724 l -0.0407,0.24901 -0.0125,-0.24901 -1.65369,0.0864 v -2.18242 -4.16828 -3.58588 -57.05109 c 0.13697,-0.0568 0.29036,-0.074 0.39677,-0.17894 0.18616,-0.18336 0.34142,-0.42362 0.48693,-0.72336 0.311,-0.64332 0.57254,-1.56794 0.79464,-2.73392 0.22212,-1.16573 0.40007,-2.56864 0.52229,-4.11065 0.12119,-1.54204 0.18678,-3.22388 0.19093,-4.90396 0.007,-1.67996 -0.05,-3.35945 -0.16623,-4.90397 -0.11601,-1.54438 -0.29146,-2.9504 -0.51476,-4.11785 -0.22222,-1.16758 -0.4882,-2.08949 -0.80647,-2.73393 -0.149,-0.30087 -0.3084,-0.54447 -0.49867,-0.72746 -0.11,-0.10598 -0.26533,-0.12717 -0.40539,-0.18315 v -57.003783 -2.72567 -0.067 -1.21726 -0.035 -0.22124 c 1.39721,-0.28899 2.78344,-0.62116 4.1911,-1.04643 l -0.0494,-0.15536 c 0.37744,-0.36262 0.75483,-0.72327 1.1303,-1.08451 v -0.004 h 0.007 c 2.86191,-2.67906 5.64065,-5.30928 8.29748,-7.85191 1.79487,-1.95776 3.56664,-3.90014 5.31718,-5.83003 l -0.009,-0.008 c 0.77263,-1.42241 1.54437,-2.84959 2.32184,-4.2856 0.12887,-0.2358 0.54244,-0.6345 1.19147,-1.0701 0.64903,-0.43556 1.52813,-0.92659 2.58672,-1.44257 2.03767,-0.99231 4.75408,-2.08728 7.87177,-3.15785 1.04169,-0.35739 2.11752,-0.69809 3.22592,-1.02278 0,-3.6e-4 0.007,3.8e-4 0.007,0 2.02945,-0.59443 4.15911,-1.12869 6.39606,-1.60205 l -0.0167,-0.0742 c 0.0104,-0.004 0.022,-0.006 0.0324,-0.008 l 0.0237,0.074 c 0.51098,-0.16655 1.11757,-0.34767 1.71915,-0.52886 0.63344,-0.16836 1.26698,-0.33748 1.90142,-0.50215 4.79883,-1.28613 9.75214,-2.41337 14.78154,-3.49533 4.12637,-0.87546 8.24521,-1.79122 12.40387,-2.51269 11.20441,-1.941103 22.82982,-3.356793 34.97244,-4.169305 3.82789,-0.255553 7.70607,-0.450102 11.58029,-0.579283 3.87499,-0.129362 7.74237,-0.194549 11.60063,-0.194549 z"
     id="path23497" />
  <path
     style="color:#000000;fill:#c8c8c8;fill-opacity:1;stroke:#000000;stroke-width:2.02045;stroke-opacity:1;-inkscape-stroke:none"
     d="m 185.42034,214.53588 c 17.07396,-0.38679 34.19969,-4.94118 49.70005,-13.89271 0.70979,-0.40988 1.41477,-0.82587 2.11406,-1.25238 3.87172,-2.36142 7.57575,-4.97343 11.08673,-7.81756 1.40986,-1.14208 2.78765,-2.32109 4.13199,-3.53541 1.8443,-1.6659 3.62482,-3.39835 5.33717,-5.19227 l 0.26025,0.23339 -0.0921,-0.33061 1.30528,-0.34226 3.50337,-0.91012 3.4033,-0.88677 0.028,-0.035 c 1.11939,-1.35013 2.20279,-2.72757 3.25115,-4.13048 21.48108,-28.74519 26.33477,-66.16334 12.86444,-99.185813 -0.35314,-0.8658 -0.72003,-1.72629 -1.09707,-2.58251 -0.82137,-1.86541 -1.69801,-3.70746 -2.63054,-5.52287 -0.16912,-0.3293 -0.33972,-0.65648 -0.51249,-0.984 -3.3321,-6.31755 -7.3292,-12.28323 -11.91552,-17.80928 l -2.86276,-0.74674 -5.33718,-1.38851 0.0921,-0.33837 -0.26026,0.23726 c -32.69537,-34.25327 -85.57639,-41.66838 -126.91071,-17.7976 -0.70977,0.40986 -1.41477,0.82975 -2.11406,1.25624 -3.87169,2.36143 -7.57575,4.97345 -11.08672,7.81756 -1.40986,1.14209 -2.78766,2.31722 -4.13199,3.53154 -1.84431,1.66589 -3.62483,3.39836 -5.33718,5.19226 l -0.26025,-0.23726 0.0921,0.33837 -1.30526,0.33839 -3.50337,0.91399 -3.40331,0.88287 -0.028,0.035 c -1.11939,1.35012 -2.20279,2.72756 -3.25115,4.13047 -21.48108,28.74519 -26.33477,66.163353 -12.86443,99.185823 0.35313,0.86578 0.72002,1.73018 1.09707,2.58642 0.82141,1.86536 1.698,3.70355 2.63055,5.51896 0.16912,0.32929 0.33972,0.66039 0.51249,0.9879 3.33122,6.31592 7.32269,12.28049 11.90749,17.80536 l 2.8708,0.74675 5.33717,1.3924 -0.0921,0.33061 0.26025,-0.23339 c 20.43462,21.40831 48.7541,32.33496 77.21066,31.69033 z"
     id="path22777" />
  <path
     style="color:#000000;fill:#000000;stroke-width:1;-inkscape-stroke:none"
     d="m 300.35212,131.84422 v 0.002 h 0.34986 v -0.002 z"
     id="path23501" />
  <path
     style="color:#000000;fill:#000000;stroke-width:2.08949;-inkscape-stroke:none"
     d="m 310.98016,205.76723 v 0.004 h 0.76617 v -0.004 z"
     id="path23499" />
  <path
     style="color:#000000;fill:#c8c8c8;fill-opacity:1;stroke:#000000;stroke-width:1.99555;stroke-miterlimit:4;stroke-dasharray:none;stroke-opacity:1"
     d="m 182.9995,38.978377 c 42.42275,-2.8e-4 76.80544,34.2557 76.80523,76.522113 -3.3e-4,42.266 -34.38286,76.52136 -76.80523,76.52108 -42.42195,-3.4e-4 -76.8039,-34.2555 -76.80422,-76.52108 -2.6e-4,-42.265973 34.38185,-76.521773 76.80422,-76.522113 z"
     id="path32204" />
</svg>
