<?xml version="1.0" encoding="UTF-8" standalone="no"?>
<svg
   id="svg2"
   version="1.1"
   viewBox="0 0 424.00001 301.99999"
   height="302mm"
   width="424mm"
   sodipodi:docname="thumbnail.svg"
   inkscape:version="1.2.1 (9c6d41e410, 2022-07-14)"
   xmlns:inkscape="http://www.inkscape.org/namespaces/inkscape"
   xmlns:sodipodi="http://sodipodi.sourceforge.net/DTD/sodipodi-0.dtd"
   xmlns:xlink="http://www.w3.org/1999/xlink"
   xmlns="http://www.w3.org/2000/svg"
   xmlns:svg="http://www.w3.org/2000/svg"
   xmlns:rdf="http://www.w3.org/1999/02/22-rdf-syntax-ns#"
   xmlns:cc="http://creativecommons.org/ns#"
   xmlns:dc="http://purl.org/dc/elements/1.1/">
  <sodipodi:namedview
     pagecolor="#ffffff"
     bordercolor="#666666"
     borderopacity="1"
     objecttolerance="10"
     gridtolerance="10"
     guidetolerance="10"
     inkscape:pageopacity="0"
     inkscape:pageshadow="2"
     inkscape:window-width="2400"
     inkscape:window-height="1471"
     id="namedview20326"
     showgrid="false"
     inkscape:zoom="0.46299723"
     inkscape:cx="658.75124"
     inkscape:cy="106.91209"
     inkscape:window-x="2391"
     inkscape:window-y="-9"
     inkscape:window-maximized="1"
     inkscape:current-layer="svg2"
     inkscape:document-rotation="0"
     inkscape:showpageshadow="2"
     inkscape:pagecheckerboard="0"
     inkscape:deskcolor="#d1d1d1"
     inkscape:document-units="mm" />
  <!-- Working space 10 10 410 287 -->
  <!-- Title block 220 227 410 287 -->
  <metadata
     id="metadata849">
    <rdf:RDF>
      <cc:Work
         rdf:about="">
        <dc:format>image/svg+xml</dc:format>
        <dc:type
           rdf:resource="http://purl.org/dc/dcmitype/StillImage" />
      </cc:Work>
    </rdf:RDF>
  </metadata>
  <defs
     id="defs847">
    <linearGradient
       gradientUnits="userSpaceOnUse"
       id="defitem29"
       y2="485.909"
       x2="655.35199"
       y1="807.466"
       x1="649.42902">
      <stop
         id="stop92"
         offset="0.0000000"
         style="stop-color:#ffffff;stop-opacity:1.0000000;" />
      <stop
         id="stop93"
         offset="1.0000000"
         style="stop-color:#ffffff;stop-opacity:0.13756600;" />
    </linearGradient>
    <linearGradient
       xlink:href="#defitem29"
       id="linearGradient3448"
       gradientUnits="userSpaceOnUse"
       x1="649.42902"
       y1="807.466"
       x2="655.35199"
       y2="485.909" />
    <radialGradient
       gradientUnits="userSpaceOnUse"
       id="defitem28"
       fy="345.56"
       fx="1049.72"
       r="1202.15"
       cy="345.56"
       cx="1049.72">
      <stop
         id="stop89"
         offset="0.0000000"
         style="stop-color:#ffffff;stop-opacity:1.0000000;" />
      <stop
         id="stop90"
         offset="1.0000000"
         style="stop-color:#a8a8a8;stop-opacity:1.0000000;" />
    </radialGradient>
    <radialGradient
       xlink:href="#defitem28"
       id="radialGradient3446"
       gradientUnits="userSpaceOnUse"
       cx="1092.7045"
       cy="64.845284"
       fx="1089.4004"
       fy="64.844765"
       r="1202.15" />
    <linearGradient
       gradientUnits="userSpaceOnUse"
       id="defitem30"
       y2="636.70697"
       x2="980"
       y1="636.70697"
       x1="287.5">
      <stop
         id="stop95"
         offset="0.0000000"
         style="stop-color:#464646;stop-opacity:1.0000000;" />
      <stop
         id="stop96"
         offset="1.0000000"
         style="stop-color:#c2c2c2;stop-opacity:1.0000000;" />
    </linearGradient>
    <linearGradient
       xlink:href="#defitem30"
       id="linearGradient3444"
       gradientUnits="userSpaceOnUse"
       gradientTransform="matrix(1,0,0,1.016038,0,-11.73855)"
       x1="287.5"
       y1="636.70697"
       x2="980"
       y2="636.70697" />
    <linearGradient
       gradientUnits="userSpaceOnUse"
       id="defitem27"
       y2="317.44699"
       x2="985.98199"
       y1="403.18799"
       x1="921.091">
      <stop
         id="stop86"
         offset="0.0000000"
         style="stop-color:#7e7e7e;stop-opacity:1.0000000;" />
      <stop
         id="stop87"
         offset="1.0000000"
         style="stop-color:#e5e5e5;stop-opacity:1.0000000;" />
    </linearGradient>
    <linearGradient
       xlink:href="#defitem27"
       id="linearGradient3442"
       gradientUnits="userSpaceOnUse"
       x1="921.091"
       y1="403.18799"
       x2="985.98199"
       y2="317.44699" />
    <linearGradient
       gradientUnits="userSpaceOnUse"
       id="defitem26"
       y2="360.27499"
       x2="293.37"
       y1="346.30399"
       x1="530.76099">
      <stop
         id="stop83"
         offset="0.0000000"
         style="stop-color:#5f5f5f;stop-opacity:1.0000000;" />
      <stop
         id="stop84"
         offset="1.0000000"
         style="stop-color:#e5e5e5;stop-opacity:1.0000000;" />
    </linearGradient>
    <linearGradient
       xlink:href="#defitem26"
       id="linearGradient3440"
       gradientUnits="userSpaceOnUse"
       x1="530.76099"
       y1="346.30399"
       x2="293.37"
       y2="360.27499" />
    <linearGradient
       gradientUnits="userSpaceOnUse"
       id="defitem25"
       y2="337.60999"
       x2="308.75"
       y1="412.91901"
       x1="164.013">
      <stop
         id="stop80"
         offset="0.0000000"
         style="stop-color:#ffffff;stop-opacity:1.0000000;" />
      <stop
         id="stop81"
         offset="1.0000000"
         style="stop-color:#bfbfbf;stop-opacity:1.0000000;" />
    </linearGradient>
    <linearGradient
       xlink:href="#defitem25"
       id="linearGradient3438"
       gradientUnits="userSpaceOnUse"
       x1="164.013"
       y1="412.91901"
       x2="308.75"
       y2="337.60999" />
    <linearGradient
       gradientUnits="userSpaceOnUse"
       id="defitem24"
       y2="380.47198"
       x2="992.48901"
       y1="270.854"
       x1="1094.25">
      <stop
         id="stop77"
         offset="0.0000000"
         style="stop-color:#6a6a6a;stop-opacity:1.0000000;" />
      <stop
         id="stop78"
         offset="1.0000000"
         style="stop-color:#e6e6e6;stop-opacity:1.0000000;" />
    </linearGradient>
    <linearGradient
       xlink:href="#defitem24"
       id="linearGradient3436"
       gradientUnits="userSpaceOnUse"
       x1="1094.25"
       y1="270.854"
       x2="992.48901"
       y2="380.47198" />
    <linearGradient
       gradientUnits="userSpaceOnUse"
       id="defitem23"
       y2="549.37799"
       x2="1049.84"
       y1="476.465"
       x1="1170.91">
      <stop
         id="stop74"
         offset="0.0000000"
         style="stop-color:#5f5f5f;stop-opacity:1.0000000;" />
      <stop
         id="stop75"
         offset="1.0000000"
         style="stop-color:#ebebeb;stop-opacity:1.0000000;" />
    </linearGradient>
    <linearGradient
       xlink:href="#defitem23"
       id="linearGradient3434"
       gradientUnits="userSpaceOnUse"
       x1="1170.91"
       y1="476.465"
       x2="1049.84"
       y2="549.37799" />
    <linearGradient
       gradientUnits="userSpaceOnUse"
       id="defitem22"
       y2="313.276"
       x2="576.14899"
       y1="105.486"
       x1="783.716">
      <stop
         id="stop71"
         offset="0.0000000"
         style="stop-color:#5a5a5a;stop-opacity:1.0000000;" />
      <stop
         id="stop72"
         offset="1.0000000"
         style="stop-color:#c7c7c7;stop-opacity:1.0000000;" />
    </linearGradient>
    <linearGradient
       xlink:href="#defitem22"
       id="linearGradient3432"
       gradientUnits="userSpaceOnUse"
       x1="783.716"
       y1="105.486"
       x2="576.14899"
       y2="313.276" />
    <linearGradient
       gradientUnits="userSpaceOnUse"
       id="defitem21"
       y2="484.716"
       x2="128.05499"
       y1="418.698"
       x1="280.04401">
      <stop
         id="stop68"
         offset="0.0000000"
         style="stop-color:#666666;stop-opacity:1.0000000;" />
      <stop
         id="stop69"
         offset="1.0000000"
         style="stop-color:#d8d8d8;stop-opacity:1.0000000;" />
    </linearGradient>
    <linearGradient
       xlink:href="#defitem21"
       id="linearGradient3430"
       gradientUnits="userSpaceOnUse"
       x1="280.04401"
       y1="418.698"
       x2="128.05499"
       y2="484.716" />
    <linearGradient
       gradientUnits="userSpaceOnUse"
       id="defitem20"
       y2="584.40997"
       x2="220"
       y1="636.95398"
       x1="129.687">
      <stop
         id="stop65"
         offset="0.0000000"
         style="stop-color:#ffffff;stop-opacity:1.0000000;" />
      <stop
         id="stop66"
         offset="1.0000000"
         style="stop-color:#bbbbbb;stop-opacity:1.0000000;" />
    </linearGradient>
    <linearGradient
       xlink:href="#defitem20"
       id="linearGradient3428"
       gradientUnits="userSpaceOnUse"
       x1="129.687"
       y1="636.95398"
       x2="220"
       y2="584.40997" />
    <linearGradient
       gradientUnits="userSpaceOnUse"
       id="defitem19"
       y2="583.75299"
       x2="1127.98"
       y1="629.02802"
       x1="1048.72">
      <stop
         id="stop62"
         offset="0.0000000"
         style="stop-color:#5e5e5e;stop-opacity:1.0000000;" />
      <stop
         id="stop63"
         offset="1.0000000"
         style="stop-color:#ededed;stop-opacity:1.0000000;" />
    </linearGradient>
    <linearGradient
       xlink:href="#defitem19"
       id="linearGradient3426"
       gradientUnits="userSpaceOnUse"
       x1="1048.72"
       y1="629.02802"
       x2="1127.98"
       y2="583.75299" />
    <linearGradient
       gradientUnits="userSpaceOnUse"
       id="defitem18"
       y2="291.97699"
       x2="581.32397"
       y1="387.27301"
       x1="370.022">
      <stop
         id="stop59"
         offset="0.0000000"
         style="stop-color:#636363;stop-opacity:1.0000000;" />
      <stop
         id="stop60"
         offset="1.0000000"
         style="stop-color:#d6d6d6;stop-opacity:1.0000000;" />
    </linearGradient>
    <linearGradient
       xlink:href="#defitem18"
       id="linearGradient3424"
       gradientUnits="userSpaceOnUse"
       x1="370.022"
       y1="387.27301"
       x2="581.32397"
       y2="291.97699" />
    <linearGradient
       gradientUnits="userSpaceOnUse"
       id="defitem17"
       y2="351.939"
       x2="909.59399"
       y1="351.939"
       x1="732.15601">
      <stop
         id="stop56"
         offset="0.0000000"
         style="stop-color:#676767;stop-opacity:1.0000000;" />
      <stop
         id="stop57"
         offset="1.0000000"
         style="stop-color:#d3d3d3;stop-opacity:1.0000000;" />
    </linearGradient>
    <linearGradient
       xlink:href="#defitem17"
       id="linearGradient3422"
       gradientUnits="userSpaceOnUse"
       x1="732.15601"
       y1="351.939"
       x2="909.59399"
       y2="351.939" />
    <linearGradient
       gradientUnits="userSpaceOnUse"
       id="defitem16"
       y2="494.71301"
       x2="1073.01"
       y1="494.71301"
       x1="1014.43">
      <stop
         id="stop53"
         offset="0.0000000"
         style="stop-color:#666666;stop-opacity:1.0000000;" />
      <stop
         id="stop54"
         offset="1.0000000"
         style="stop-color:#dcdcdc;stop-opacity:1.0000000;" />
    </linearGradient>
    <linearGradient
       xlink:href="#defitem16"
       id="linearGradient3420"
       gradientUnits="userSpaceOnUse"
       x1="1014.43"
       y1="494.71301"
       x2="1073.01"
       y2="494.71301" />
    <linearGradient
       gradientUnits="userSpaceOnUse"
       id="defitem15"
       y2="516.37"
       x2="193.27699"
       y1="452.388"
       x1="272.59201">
      <stop
         id="stop50"
         offset="0.0000000"
         style="stop-color:#6e6e6e;stop-opacity:1.0000000;" />
      <stop
         id="stop51"
         offset="1.0000000"
         style="stop-color:#d8d8d8;stop-opacity:1.0000000;" />
    </linearGradient>
    <linearGradient
       xlink:href="#defitem15"
       id="linearGradient3418"
       gradientUnits="userSpaceOnUse"
       x1="272.59201"
       y1="452.388"
       x2="193.27699"
       y2="516.37" />
    <radialGradient
       gradientUnits="userSpaceOnUse"
       id="defitem14"
       fy="211.088"
       fx="1037.22"
       r="1164.28"
       cy="211.088"
       cx="1037.22">
      <stop
         id="stop47"
         offset="0.0000000"
         style="stop-color:#ffffff;stop-opacity:1.0000000;" />
      <stop
         id="stop48"
         offset="1.0000000"
         style="stop-color:#aaaaaa;stop-opacity:1.0000000;" />
    </radialGradient>
    <radialGradient
       xlink:href="#defitem14"
       id="radialGradient3416"
       gradientUnits="userSpaceOnUse"
       cx="1037.22"
       cy="211.088"
       fx="1037.22"
       fy="211.088"
       r="1164.28" />
    <linearGradient
       gradientUnits="userSpaceOnUse"
       id="defitem13"
       y2="686.83002"
       x2="379.241"
       y1="732.12903"
       x1="342.64999">
      <stop
         id="stop44"
         offset="0.0000000"
         style="stop-color:#ffffff;stop-opacity:1.0000000;" />
      <stop
         id="stop45"
         offset="1.0000000"
         style="stop-color:#989898;stop-opacity:1.0000000;" />
    </linearGradient>
    <linearGradient
       xlink:href="#defitem13"
       id="linearGradient3414"
       gradientUnits="userSpaceOnUse"
       x1="342.64999"
       y1="732.12903"
       x2="379.241"
       y2="686.83002" />
    <radialGradient
       gradientUnits="userSpaceOnUse"
       id="defitem12"
       fy="484.409"
       fx="632.78101"
       r="540.27899"
       cy="484.409"
       cx="632.78101">
      <stop
         id="stop41"
         offset="0.0000000"
         style="stop-color:#ffffff;stop-opacity:1.0000000;" />
      <stop
         id="stop42"
         offset="1.0000000"
         style="stop-color:#ededed;stop-opacity:1.0000000;" />
    </radialGradient>
    <radialGradient
       xlink:href="#defitem12"
       id="radialGradient3412"
       gradientUnits="userSpaceOnUse"
       cx="632.78101"
       cy="484.409"
       fx="632.78101"
       fy="484.409"
       r="540.27899" />
    <radialGradient
       xlink:href="#linearGradient3682"
       id="radialGradient3817"
       gradientUnits="userSpaceOnUse"
       gradientTransform="matrix(1.1149219,0.2722306,-0.7507171,3.0745639,-471.08629,-148.32863)"
       cx="270.58316"
       cy="33.899986"
       fx="270.58316"
       fy="33.899986"
       r="19.571428" />
    <linearGradient
       id="linearGradient3682">
      <stop
         style="stop-color:#ff6d0f;stop-opacity:1;"
         offset="0"
         id="stop3684" />
      <stop
         style="stop-color:#ff1000;stop-opacity:1;"
         offset="1"
         id="stop3686" />
    </linearGradient>
    <radialGradient
       xlink:href="#linearGradient3864"
       id="radialGradient3661"
       gradientUnits="userSpaceOnUse"
       gradientTransform="matrix(0.6186598,0.9666542,-1.0332462,0.6612786,-327.27568,-255.84136)"
       cx="282.64584"
       cy="29.149046"
       fx="282.64584"
       fy="29.149046"
       r="19.571428" />
    <linearGradient
       id="linearGradient3864">
      <stop
         id="stop3866"
         offset="0"
         style="stop-color:#71b2f8;stop-opacity:1;" />
      <stop
         id="stop3868"
         offset="1"
         style="stop-color:#002795;stop-opacity:1;" />
    </linearGradient>
  </defs>
  <g
     id="g613"
     transform="translate(1.2918388e-7,-0.20625005)">
    <path
       id="path22815"
       style="color:#000000;font-style:normal;font-variant:normal;font-weight:normal;font-stretch:normal;font-size:medium;line-height:normal;font-family:sans-serif;font-variant-ligatures:normal;font-variant-position:normal;font-variant-caps:normal;font-variant-numeric:normal;font-variant-alternates:normal;font-variant-east-asian:normal;font-feature-settings:normal;font-variation-settings:normal;text-indent:0;text-align:start;text-decoration:none;text-decoration-line:none;text-decoration-style:solid;text-decoration-color:#000000;letter-spacing:normal;word-spacing:normal;text-transform:none;writing-mode:lr-tb;direction:ltr;text-orientation:mixed;dominant-baseline:auto;baseline-shift:baseline;text-anchor:start;white-space:normal;shape-padding:0;shape-margin:0;inline-size:0;clip-rule:nonzero;display:inline;overflow:visible;visibility:visible;opacity:1;isolation:auto;mix-blend-mode:normal;color-interpolation:sRGB;color-interpolation-filters:linearRGB;solid-color:#000000;solid-opacity:1;fill:#c8c8c8;fill-opacity:1;fill-rule:nonzero;stroke:none;stroke-width:1.07588;stroke-linecap:butt;stroke-linejoin:miter;stroke-miterlimit:4;stroke-dasharray:none;stroke-dashoffset:0;stroke-opacity:1;color-rendering:auto;image-rendering:auto;shape-rendering:auto;text-rendering:auto;enable-background:accumulate;stop-color:#000000;stop-opacity:1"
       d="m 115.60841,27.824919 v 0.371435 l -0.26855,-0.263104 -3.05745,3.075462 -55.274841,6.722444 0.04659,0.37589 -0.31074,-0.213276 -0.855648,1.244761 -0.846757,1.2503 -0.834548,1.256955 -0.826782,1.265767 -0.817923,1.270196 -0.805697,1.279053 -0.796829,1.282372 -0.787941,1.286779 -0.780162,1.29563 -0.767992,1.298929 -0.759073,1.307803 -0.746876,1.312211 -0.738009,1.316618 -0.72581,1.324386 h -0.0041 c -0.951006,1.743184 -1.834574,3.431663 -2.646842,5.026646 -0.405388,0.798105 -0.792791,1.566737 -1.16082,2.313761 -0.367966,0.745869 -0.71473,1.463155 -1.032093,2.126965 -0.318298,0.666652 -0.603722,1.272294 -0.855651,1.814098 -0.250642,0.538127 -0.466753,1.006086 -0.629237,1.36195 -0.113605,0.248493 -0.201226,0.444256 -0.260799,0.575966 -0.03007,0.06633 -0.05584,0.116614 -0.07108,0.150393 -0.0086,0.01724 -0.0129,0.02915 -0.01718,0.03776 -0.002,0.0041 -0.0043,0.0066 -0.0043,0.0086 v 0.0041 c -5.7e-4,0.0012 5.72e-4,0.0023 0,0.0041 h -0.0043 C 15.447168,121.39249 15.452709,181.01519 38.971268,233.09521 v 0.004 c 5.72e-4,0.001 -5.7e-4,0.002 0,0.004 0.0012,0.002 0.0023,0.004 0.0043,0.009 l 0.0086,0.0172 c 5.71e-4,0.001 -5.7e-4,0.002 0,0.004 l 0.0043,0.009 c 0.0014,0.004 0.0014,0.004 0.0043,0.009 0.0017,0.004 0.0043,0.0127 0.0086,0.0213 0.0014,0.002 0.0023,0.009 0.0043,0.0127 0.002,0.004 0.002,0.001 0.0043,0.009 h 0.0043 l 0.0086,0.0222 c 0.0129,0.0275 0.01932,0.049 0.0378,0.0873 0.01932,0.0427 0.05907,0.13221 0.08439,0.18804 0.05283,0.11615 0.102866,0.22038 0.179751,0.38912 0.157846,0.34618 0.326256,0.71527 0.595947,1.29451 0.01273,0.0258 0.01724,0.0413 0.02876,0.0674 0.232685,0.49877 0.504591,1.06903 0.7935,1.67481 0.02218,0.0464 0.03615,0.0826 0.05883,0.12943 0.376551,0.78771 0.858939,1.74675 1.308419,2.65317 0.283417,0.57204 0.509205,1.05122 0.817918,1.65932 0.01521,0.03 0.0345,0.0661 0.04982,0.0963 0.0066,0.0127 0.01065,0.0213 0.01727,0.0333 0.810619,1.59198 1.693843,3.27573 2.655693,5.03881 h 0.0041 l 0.724695,1.31994 0.739102,1.32105 0.745784,1.31112 0.760192,1.30448 0.766873,1.30335 0.780161,1.29121 0.789059,1.2912 0.79683,1.28236 0.805697,1.27463 0.817893,1.27021 0.825697,1.26577 0.834539,1.25803 0.847875,1.25253 0.855655,1.24587 0.309629,-0.20899 -0.04552,0.36703 55.273723,6.72244 3.05855,3.07546 0.2686,-0.2631 v 0.37585 h 192.78438 v -0.37585 l 0.2686,0.2631 3.05411,-3.07546 55.27818,-6.72244 -0.0466,-0.36703 0.31072,0.20899 0.85564,-1.24587 0.84342,-1.25253 0.83456,-1.25803 0.83013,-1.26577 0.81349,-1.27021 0.81011,-1.27463 0.79682,-1.28236 0.78906,-1.2912 0.77574,-1.29121 0.7713,-1.30335 0.75578,-1.30448 0.75018,-1.31112 0.73803,-1.32105 0.72578,-1.31994 c 0.95097,-1.74319 1.839,-3.43167 2.65127,-5.02665 0.40538,-0.79809 0.79394,-1.57118 1.16193,-2.31819 0.36797,-0.74588 0.7147,-1.46315 1.03211,-2.12694 0.31768,-0.66544 0.60406,-1.26869 0.85565,-1.80968 v -0.004 c 0.24981,-0.53639 0.46272,-1.00256 0.6248,-1.35752 0.11445,-0.25068 0.20401,-0.44348 0.26414,-0.57599 0.03,-0.0664 0.0513,-0.11763 0.0666,-0.15145 0.009,-0.0172 0.0128,-0.0324 0.0171,-0.0411 0.003,-0.004 0.004,-0.006 0.004,-0.009 h 0.004 c 0,-0.001 0,-0.002 0,-0.004 23.52094,-52.08413 23.51717,-111.70841 -0.004,-163.789722 5e-5,-2.1e-5 0.004,0 0.004,0 v -0.0041 c 0,-0.0023 0,-0.0086 -0.004,-0.01273 -0.004,-0.0086 -0.009,-0.02136 -0.0174,-0.03776 -0.003,-0.0066 -0.0126,-0.02136 -0.0171,-0.02873 -0.0152,-0.03243 -0.0316,-0.06888 -0.0554,-0.121498 -0.0194,-0.04215 -0.0584,-0.129005 -0.0833,-0.183554 -0.053,-0.11657 -0.0991,-0.222386 -0.17652,-0.392442 -0.0923,-0.202148 -0.23318,-0.506339 -0.35621,-0.772742 -0.0824,-0.17863 -0.14559,-0.316379 -0.23972,-0.518465 -0.009,-0.01928 -0.0237,-0.04622 -0.0334,-0.06633 -0.23246,-0.498296 -0.49937,-1.07082 -0.78795,-1.675924 -0.0174,-0.03736 -0.045,-0.09132 -0.0632,-0.129417 -0.6115,-1.279183 -1.33861,-2.761741 -2.12634,-4.31248 -0.004,-0.01065 -0.0109,-0.02297 -0.0171,-0.03324 -0.0194,-0.03612 -0.0317,-0.0642 -0.05,-0.100574 -0.81653,-1.604238 -1.70246,-3.290109 -2.65457,-5.034384 l -0.72578,-1.324384 -0.73915,-1.31662 -0.75018,-1.312212 -0.75466,-1.306672 -0.77242,-1.30006 -0.77573,-1.295632 -0.78903,-1.286776 -0.79685,-1.282371 -0.80903,-1.279054 -0.81347,-1.269083 -0.83124,-1.26688 -0.83451,-1.256932 -0.84346,-1.24921 -0.85565,-1.245877 -0.30963,0.213273 0.0456,-0.375865 -55.27816,-6.722444 -3.05414,-3.075464 -0.26744,0.263109 V 27.828102 Z M 48.371247,89.611561 h 8.682917 9.576302 v 0.375855 l 0.285229,-0.246519 3.401473,3.923347 -0.287447,0.246521 h 0.375113 V 208.49866 h -0.370675 l 0.282966,0.2432 -3.401471,3.92337 -0.285226,-0.2443 v 0.37365 h -9.576302 -8.682917 v -0.37254 l -0.327378,0.17584 c -0.831334,-1.54044 -1.630059,-3.09815 -2.398216,-4.6707 -0.949865,-1.94339 -1.824306,-3.8487 -2.617978,-5.69544 -0.793698,-1.84671 -1.507371,-3.63232 -2.135229,-5.28974 -0.313325,-0.82847 -0.604864,-1.62544 -0.863408,-2.35137 -0.153123,-0.42813 -0.264127,-0.75561 -0.390639,-1.12097 l -0.0043,0.001 c -0.116828,-0.33871 -0.220963,-0.63821 -0.310728,-0.9032 h 0.0012 c -0.14861,-0.43865 -0.274519,-0.81468 -0.328485,-0.97725 v -0.002 c -0.0086,-0.0242 -0.01932,-0.0558 -0.02554,-0.0729 -0.0017,-0.006 -0.0014,-0.009 -0.0023,-0.0127 -8.590344,-26.16161 -8.593932,-54.36658 -0.01713,-80.53016 l 0.0043,-0.0222 c 0,0 0.0014,-0.004 0.0023,-0.004 h -0.0023 c 0,0 0.0017,-0.004 0.0043,-0.0127 0.0023,-0.009 0.0065,-0.0213 0.0129,-0.0378 0.0086,-0.0279 0.0262,-0.0723 0.04338,-0.1228 v -10e-4 l -0.0012,-0.001 c 0.05776,-0.17456 0.17245,-0.52689 0.335147,-1.00708 0.162786,-0.48155 0.375929,-1.09315 0.621486,-1.78427 0.01273,-0.0378 0.03164,-0.0866 0.04552,-0.12495 0.0041,-0.0107 0.0066,-0.0147 0.0086,-0.0255 0.01932,-0.053 0.04404,-0.1185 0.06335,-0.17244 0.21859,-0.61165 0.449117,-1.25361 0.712474,-1.95449 h 0.0041 c 0.0023,-0.004 0.0041,-0.0108 0.0066,-0.0172 0.02628,-0.0697 0.04658,-0.12855 0.07325,-0.19895 0.251499,-0.66466 0.528107,-1.36467 0.807909,-2.06835 0.04379,-0.11016 0.08097,-0.20966 0.12542,-0.32061 0.37996,-0.94809 0.778748,-1.92048 1.205212,-2.91405 0.343931,-0.801704 0.709892,-1.615579 1.08314,-2.434287 0.04876,-0.106965 0.093,-0.20987 0.141934,-0.317287 0.446391,-0.971985 0.911444,-1.955801 1.39722,-2.95164 0.76816,-1.572536 1.567978,-3.12691 2.399335,-4.66736 l 0.326267,0.17457 z m 309.170453,0.75171 h 9.40649 8.45208 c 0.78828,1.466834 1.55106,2.95051 2.28172,4.446268 0.47229,0.968241 0.92408,1.924911 1.35727,2.869833 0,0.0017 0,0.0041 0.003,0.0066 0.27832,0.607223 0.53636,1.200974 0.79904,1.798634 0.15312,0.348312 0.31628,0.704054 0.46386,1.047994 0.21391,0.49879 0.40879,0.9804 0.61152,1.46919 0.17908,0.43245 0.36837,0.8745 0.53709,1.29452 0.16172,0.4016 0.30462,0.77931 0.45725,1.16961 0.18792,0.48122 0.38466,0.97614 0.556,1.43049 0.28948,0.7681 0.56225,1.51034 0.80235,2.18334 0.15723,0.44048 0.27388,0.78176 0.40286,1.15524 0.0861,0.25148 0.19435,0.56062 0.26416,0.76722 0.15763,0.46521 0.2678,0.80143 0.32736,0.98164 8.60041,26.07831 8.61861,54.20962 0.05,80.29688 -0.009,0.0251 -0.0171,0.05 -0.0249,0.0751 -0.0616,0.18611 -0.18854,0.57175 -0.36513,1.09112 -0.17671,0.52024 -0.40024,1.17161 -0.65808,1.8926 -0.25689,0.72128 -0.54849,1.51204 -0.86009,2.33589 -0.62415,1.64769 -1.33395,3.42392 -2.12302,5.25988 -0.004,0.009 -0.009,0.0172 -0.0109,0.0255 v 0 c -0.7848,1.82451 -1.64584,3.71251 -2.58798,5.64017 -0.73127,1.49695 -1.49501,2.97756 -2.28395,4.44519 h -8.44988 v 0.001 h -9.40639 l -3.1973,-3.69138 V 94.050896 Z" />
    <path
       id="path16586-1"
       style="fill:none;stroke:#000000;stroke-width:0.85399;stroke-linecap:butt;stroke-linejoin:miter;stroke-miterlimit:4;stroke-dasharray:none"
       d="m 45.98097,94.646252 c -0.979284,2.003935 -1.871593,3.961447 -2.680151,5.850398 -0.808551,1.88895 -1.533355,3.70924 -2.146484,5.33827 -0.306014,0.81441 -0.585207,1.58111 -0.830027,2.27016 -0.244803,0.68905 -0.455283,1.30056 -0.617423,1.7804 -0.162139,0.47876 -0.278107,0.83088 -0.336094,1.00609 M 45.98097,56.066389 c -0.94922,1.739954 -1.83401,3.42311 -2.644718,5.015029 -0.404811,0.796973 -0.791373,1.568063 -1.158605,2.313483 -0.367225,0.744349 -0.714059,1.460036 -1.030824,2.122557 -0.317846,0.665735 -0.602388,1.268785 -0.853655,1.809161 -0.250184,0.537163 -0.463874,1.002019 -0.626015,1.357134 -0.228714,0.500476 -0.354343,0.780073 -0.353271,0.777613 m 0,41.603254 c 0,2.2e-4 0.0129,-0.0407 0.03973,-0.12194 0.06121,-0.18442 0.19006,-0.57802 0.367233,-1.0985 0.176098,-0.52039 0.399443,-1.16761 0.656079,-1.88672 0.256632,-0.71921 0.545478,-1.51039 0.857948,-2.33636 0.624941,-1.65172 1.343298,-3.44194 2.135743,-5.28821 0.793523,-1.849595 1.663289,-3.745181 2.610357,-5.686756 M 39.378314,110.8677 q -0.06442,0.19661 -0.06442,0.19702 M 384.65068,69.381999 a 200.02022,199.24591 0 0 1 0.0365,163.568711 m -0.0655,-122.083 a 129.75002,129.24774 0 0 1 0.0237,80.60593 M 39.349316,233.03049 A 200.02022,199.24591 0 0 1 39.312795,69.461792 m 0.04187,122.011848 a 129.75002,129.24774 0 0 1 0.02364,-80.60593 m 6.602661,-54.801321 0.72695,-1.320556 0.736615,-1.3151 0.747347,-1.309532 0.755941,-1.303871 0.766681,-1.298096 0.77741,-1.292314 0.786008,-1.28633 0.795673,-1.280446 0.806404,-1.274451 0.814998,-1.267929 0.82574,-1.262153 0.834327,-1.255735 0.843984,-1.250387 0.853654,-1.2429 m -8.679344,51.883704 h 8.679348 m -11.071714,4.655959 q 1.148946,-2.351992 2.392375,-4.655959 M 39.329987,232.98707 q 0,-1.1e-4 0.02469,0.056 m 6.626286,13.30299 c -0.984651,-1.80487 -1.891991,-3.53401 -2.71773,-5.15844 -0.824658,-1.62444 -1.567713,-3.14404 -2.182988,-4.43145 -0.308191,-0.64626 -0.580911,-1.22664 -0.820366,-1.74113 -0.350054,-0.75183 -0.618496,-1.3412 -0.772047,-1.6792 m 3.89567,-31.22826 c 0.78708,1.82979 1.652543,3.72528 2.59747,5.65861 m -6.300935,-15.31786 q 0.134226,0.39616 0.309248,0.90351 m -0.676483,39.59849 c -0.0012,-0.002 0.124556,0.2764 0.352201,0.77558 0.162138,0.35488 0.37582,0.81965 0.626014,1.35586 0.250185,0.5363 0.535812,1.14405 0.850433,1.8023 0.629231,1.31628 1.374435,2.83429 2.189429,4.4354 0.815002,1.60123 1.699795,3.28565 2.650088,5.02658 m -6.618771,-13.28749 q -0.04939,-0.10822 -0.04939,-0.10822 m 0.0012,-41.60051 q 0,-2.8e-4 0.06442,0.19488 m 6.602662,16.22145 c -0.947073,-1.93772 -1.815757,-3.83971 -2.607131,-5.68107 -0.791373,-1.84136 -1.505438,-3.62205 -2.131453,-5.27462 -0.312464,-0.82617 -0.603461,-1.62037 -0.861167,-2.34397 -0.25877,-0.7236 -0.483204,-1.37661 -0.660378,-1.89783 -0.177172,-0.52124 -0.304951,-0.91058 -0.366155,-1.09508 -0.02683,-0.0826 -0.0408,-0.12388 -0.0408,-0.12388 m 17.738803,72.95613 -0.853648,-1.24289 -0.843993,-1.2504 -0.834324,-1.25573 -0.825739,-1.26215 -0.814997,-1.26794 -0.806401,-1.27445 -0.795677,-1.28044 -0.786003,-1.28632 -0.777415,-1.29232 -0.766677,-1.29809 -0.75594,-1.30387 -0.747352,-1.30955 -0.736615,-1.31509 -0.726946,-1.32055 m 2.392375,-33.92391 q -1.243428,-2.30399 -2.392375,-4.65599 m 11.071727,4.65599 H 48.373376 M 378.01904,246.3461 c 0.94922,-1.73996 1.83401,-3.42311 2.64473,-5.01503 0.40478,-0.79698 0.79137,-1.56808 1.1586,-2.31348 0.36723,-0.74434 0.71405,-1.46004 1.03082,-2.12256 0.31786,-0.66574 0.6024,-1.26878 0.85364,-1.80916 0.25019,-0.53716 0.4639,-1.00201 0.62604,-1.35713 0.22869,-0.50048 0.35435,-0.78007 0.35325,-0.77762 m 0,-41.60125 q 0,-2.8e-4 -0.0645,0.19488 m -6.60265,16.22145 c 0.94708,-1.93771 1.81576,-3.83971 2.60713,-5.68106 0.79138,-1.84137 1.50542,-3.62206 2.13146,-5.27463 0.31246,-0.82617 0.60345,-1.62037 0.86117,-2.34396 0.25875,-0.72361 0.48319,-1.37662 0.66037,-1.89783 0.17719,-0.52124 0.30493,-0.91058 0.36615,-1.0951 0.0268,-0.0826 0.0407,-0.12387 0.0407,-0.12387 m 0,-121.887655 c 0,0.0023 -0.12455,-0.276402 -0.35219,-0.775587 -0.16214,-0.354881 -0.37579,-0.819645 -0.626,-1.355851 -0.25019,-0.536306 -0.53582,-1.144063 -0.85046,-1.802314 -0.62908,-1.31626 -1.3743,-2.834268 -2.18928,-4.435386 -0.81499,-1.601225 -1.6998,-3.285663 -2.65009,-5.026579 m 6.61876,13.287484 q 0.0494,0.108031 0.0494,0.108238 m 0,41.60251 c 0,2.2e-4 -0.0128,-0.0407 -0.0399,-0.12195 -0.0612,-0.18442 -0.19006,-0.57802 -0.36723,-1.0985 -0.17613,-0.52038 -0.39943,-1.16761 -0.65609,-1.88671 -0.25663,-0.71921 -0.54546,-1.51041 -0.85796,-2.33638 -0.62491,-1.6517 -1.34327,-3.44193 -2.13573,-5.2882 -0.79351,-1.849595 -1.66328,-3.74518 -2.61036,-5.686755 m 6.60266,16.221565 q 0.0644,0.19661 0.0644,0.19702 m -4.06962,91.04288 c -0.78708,1.82979 -1.65254,3.72528 -2.59746,5.6586 m 6.30093,-15.31782 q -0.13422,0.39616 -0.30927,0.90351 m 0.65933,-123.926475 q 0,1.08e-4 -0.0245,-0.05627 m -6.62638,-13.302793 c 0.98467,1.804879 1.89201,3.53403 2.71773,5.158465 0.82468,1.624432 1.56773,3.144044 2.18301,4.431444 0.30818,0.646266 0.58091,1.226639 0.82036,1.741131 0.35005,0.751835 0.6185,1.341197 0.77205,1.679196 m -6.49303,25.569661 c 0.97928,2.003936 1.87159,3.961448 2.68014,5.850401 0.80855,1.88895 1.53336,3.70924 2.14647,5.33827 0.30604,0.81441 0.58523,1.58111 0.83005,2.27016 0.24481,0.68905 0.4553,1.30056 0.61744,1.7804 0.16213,0.47876 0.27809,0.83088 0.33606,1.00608 m -73.08681,160.15403 55.4049,-6.73969 m -58.55378,9.90685 3.14888,-3.16716 m -3.14888,3.16716 H 115.60647 m -3.14885,-3.16716 3.14885,3.16716 m -58.553772,-9.90685 55.404922,6.73969 M 66.629733,212.4222 h -9.577035 m 12.977693,-3.92243 -3.400658,3.92243 M 70.030391,93.912705 V 208.49977 M 66.629733,89.990293 70.030391,93.912705 M 57.052698,89.990293 h 9.577035 M 112.45762,31.366904 57.052698,38.106589 m 58.553772,-9.906833 -3.14885,3.167148 M 308.3935,28.199756 H 115.60647 m 195.93587,3.167148 -3.14884,-3.167148 m 58.55378,9.906833 -55.40494,-6.739685 m 55.40494,58.623389 h -9.57703 m 0,0 -3.40065,3.922412 m 0,0 V 208.49977 m 0,0 3.40065,3.92243 m 0,0 h 9.57703 m 8.67935,-122.431907 h -8.67935 m 0,-51.883704 0.85365,1.2429 0.844,1.250387 0.83432,1.255735 0.82573,1.262153 0.815,1.267929 0.8064,1.274451 0.79569,1.280446 0.786,1.28633 0.77741,1.292314 0.76668,1.298096 0.75593,1.303871 0.74735,1.309532 0.73663,1.3151 0.72692,1.320556 m -2.39236,33.923904 q 1.24345,2.303967 2.39236,4.655959 m 0,113.119958 q -1.14891,2.352 -2.39236,4.65599 m 2.39236,33.92391 -0.72692,1.32055 -0.73663,1.31509 -0.74735,1.30955 -0.75593,1.30387 -0.76668,1.29809 -0.77741,1.29232 -0.786,1.28632 -0.79569,1.28044 -0.8064,1.27445 -0.815,1.26794 -0.82573,1.26215 -0.83432,1.25573 -0.844,1.2504 -0.85365,1.2429 m 0,-51.88371 h 8.67935" />
    <path
       style="color:#000000;font-style:normal;font-variant:normal;font-weight:normal;font-stretch:normal;font-size:medium;line-height:normal;font-family:sans-serif;font-variant-ligatures:normal;font-variant-position:normal;font-variant-caps:normal;font-variant-numeric:normal;font-variant-alternates:normal;font-variant-east-asian:normal;font-feature-settings:normal;font-variation-settings:normal;text-indent:0;text-align:start;text-decoration:none;text-decoration-line:none;text-decoration-style:solid;text-decoration-color:#000000;letter-spacing:normal;word-spacing:normal;text-transform:none;writing-mode:lr-tb;direction:ltr;text-orientation:mixed;dominant-baseline:auto;baseline-shift:baseline;text-anchor:start;white-space:normal;shape-padding:0;shape-margin:0;inline-size:0;clip-rule:nonzero;display:inline;overflow:visible;visibility:visible;opacity:1;isolation:auto;mix-blend-mode:normal;color-interpolation:sRGB;color-interpolation-filters:linearRGB;solid-color:#000000;solid-opacity:1;fill:#c8c8c8;fill-opacity:1;fill-rule:nonzero;stroke:none;stroke-width:1.07588;stroke-linecap:butt;stroke-linejoin:miter;stroke-miterlimit:4;stroke-dasharray:none;stroke-dashoffset:0;stroke-opacity:1;color-rendering:auto;image-rendering:auto;shape-rendering:auto;text-rendering:auto;enable-background:accumulate;stop-color:#000000;stop-opacity:1"
       d="m 0.42757472,94.854711 v 0.375856 H 0.05027036 V 207.1819 h 0.37730436 v 0.37585 h 0.0676479 0.19650136 0.33181892 0.4661059 0.5948732 0.7302338 0.860075 0.9932454 1.1286487 1.2540658 1.392755 1.5226391 1.6524602 1.7823 42.263766 68.557809 175.55512 68.55779 42.26375 1.78678 1.65244 1.52262 1.38838 1.25847 1.12757 0.98992 0.86452 0.72579 0.59929 0.46167 0.33192 0.2009 0.0633 v -0.37585 h 0.37711 V 95.230576 h -0.37713 V 94.85472 h -0.0633 -0.2009 -0.33192 -0.46168 -0.59929 -0.72578 -0.86452 -0.99329 -1.1242 -1.25847 -1.38838 -1.52263 -1.65243 -1.78678 -42.26375 -68.5578 H 124.22252 55.66471 13.400924 11.618623 9.9661636 8.4435245 7.0507694 5.7967037 4.668055 3.67481 2.8147346 2.0845008 1.4896491 1.0235432 0.69170275 0.49520123 Z"
       id="1-5-9" />
    <path
       style="color:#000000;font-style:normal;font-variant:normal;font-weight:normal;font-stretch:normal;font-size:medium;line-height:normal;font-family:sans-serif;font-variant-ligatures:normal;font-variant-position:normal;font-variant-caps:normal;font-variant-numeric:normal;font-variant-alternates:normal;font-variant-east-asian:normal;font-feature-settings:normal;font-variation-settings:normal;text-indent:0;text-align:start;text-decoration:none;text-decoration-line:none;text-decoration-style:solid;text-decoration-color:#000000;letter-spacing:normal;word-spacing:normal;text-transform:none;writing-mode:lr-tb;direction:ltr;text-orientation:mixed;dominant-baseline:auto;baseline-shift:baseline;text-anchor:start;white-space:normal;shape-padding:0;shape-margin:0;inline-size:0;clip-rule:nonzero;display:inline;overflow:visible;visibility:visible;isolation:auto;mix-blend-mode:normal;color-interpolation:sRGB;color-interpolation-filters:linearRGB;solid-color:#000000;solid-opacity:1;fill:#000000;fill-opacity:1;fill-rule:nonzero;stroke:none;stroke-width:1.07588;stroke-linecap:butt;stroke-linejoin:miter;stroke-miterlimit:4;stroke-dasharray:none;stroke-dashoffset:0;stroke-opacity:1;color-rendering:auto;image-rendering:auto;shape-rendering:auto;text-rendering:auto;enable-background:accumulate;stop-color:#000000"
       d="m 212.33139,151.02867 -0.68791,0.30082 c 0.0172,0.0378 0.0251,0.0543 0.0251,0.0543 l 0.68793,-0.30081 c 0,0 -0.009,-0.0172 -0.0252,-0.0543 z"
       id="path22875" />
    <path
       style="color:#000000;font-style:normal;font-variant:normal;font-weight:normal;font-stretch:normal;font-size:medium;line-height:normal;font-family:sans-serif;font-variant-ligatures:normal;font-variant-position:normal;font-variant-caps:normal;font-variant-numeric:normal;font-variant-alternates:normal;font-variant-east-asian:normal;font-feature-settings:normal;font-variation-settings:normal;text-indent:0;text-align:start;text-decoration:none;text-decoration-line:none;text-decoration-style:solid;text-decoration-color:#000000;letter-spacing:normal;word-spacing:normal;text-transform:none;writing-mode:lr-tb;direction:ltr;text-orientation:mixed;dominant-baseline:auto;baseline-shift:baseline;text-anchor:start;white-space:normal;shape-padding:0;shape-margin:0;inline-size:0;clip-rule:nonzero;display:inline;overflow:visible;visibility:visible;isolation:auto;mix-blend-mode:normal;color-interpolation:sRGB;color-interpolation-filters:linearRGB;solid-color:#000000;solid-opacity:1;fill:#000000;fill-opacity:1;fill-rule:nonzero;stroke:none;stroke-width:1.07588;stroke-linecap:butt;stroke-linejoin:miter;stroke-miterlimit:4;stroke-dasharray:none;stroke-dashoffset:0;stroke-opacity:1;color-rendering:auto;image-rendering:auto;shape-rendering:auto;text-rendering:auto;enable-background:accumulate;stop-color:#000000"
       d="m 212.29972,150.99732 -0.68368,0.30919 c 0.0172,0.0361 0.0295,0.0616 0.0379,0.0794 0.009,0.0172 0.0127,0.0292 0.0127,0.0292 l 0.71724,-0.15465 c 0,0 -0.0378,-0.16559 -0.0463,-0.18378 -0.009,-0.0193 -0.0213,-0.0435 -0.0378,-0.0793 z"
       id="path22865" />
    <path
       id="34-9"
       style="fill:none;stroke:#000000;stroke-width:0.85399;stroke-linecap:butt;stroke-linejoin:miter;stroke-miterlimit:4;stroke-dasharray:none"
       d="m 17.631075,189.82194 v -77.2314 m 10.885965,59.62148 v -42.01155 m 377.85188,59.62147 v -77.2314 m -10.88597,59.62148 v -42.01155 m -339.818643,76.9824 h 68.559353 m 0,0 h 175.55266 m 0,0 h 68.55937 m 55.23732,0 h -0.0653 -0.19885 -0.33195 -0.46384 -0.59701 -0.72913 -0.86114 -0.99327 -1.1264 -1.25735 -1.39058 -1.52152 -1.65362 -1.78461 m -397.197081,0 H 11.61684 9.9632217 8.4416775 7.0511344 5.7937397 4.6673462 3.6741013 2.8129307 2.0838351 1.4868144 1.0229419 0.69114439 0.49249539 0.42699488 M 406.36892,112.59054 c 0.60451,-4.25058 1.27565,-7.8429 1.99615,-10.78372 0.35969,-1.46805 0.73124,-2.767748 1.10492,-3.868176 0.37367,-1.099351 0.75058,-2.002437 1.12854,-2.709028 m -4.22961,17.360924 -0.98253,1.11743 -0.95243,1.14236 -0.92345,1.16631 -0.89231,1.18953 -0.86224,1.212 -0.83004,1.23369 -0.79782,1.25456 -0.7656,1.27456 -0.73232,1.2937 -0.69796,1.31201 -0.66468,1.32942 -0.63027,1.34613 -0.59491,1.36174 -0.55941,1.37649 m 0,42.01155 -5.47842,-2.88936 -4.66128,-2.94062 -3.83125,-2.98337 -2.99151,-3.01785 -2.14328,-3.04378 -1.28855,-3.06106 -0.4295,-3.06974 0.4295,-3.06974 1.28855,-3.06107 2.14328,-3.04375 2.99151,-3.01785 3.83125,-2.98337 4.66128,-2.9406 5.47842,-2.88937 m 10.88597,59.62148 -0.98253,-1.11744 -0.95243,-1.14236 -0.92345,-1.1663 -0.89231,-1.18954 -0.86224,-1.21198 -0.83004,-1.23371 -0.79782,-1.25455 -0.7656,-1.27456 -0.73232,-1.2937 -0.69796,-1.312 -0.66468,-1.32943 -0.63027,-1.34613 -0.59491,-1.36174 -0.55941,-1.37651 m 10.88597,17.60995 c 0.60451,4.25057 1.27565,7.8429 1.99615,10.78372 0.35969,1.46805 0.73124,2.76774 1.10492,3.86817 0.37367,1.09936 0.75058,2.00242 1.12854,2.70901 m -42.26284,0 h 42.26284 M 368.33569,95.229616 v 3.680993 5.534871 7.19268 8.59536 9.69334 10.44763 10.83175 10.83176 10.44762 9.69333 8.5954 7.19266 5.53487 3.68099 m -354.934229,0 h 42.262846 m -42.262846,0 c 0.757014,-1.41852 1.501142,-3.59895 2.221648,-6.52768 0.359715,-1.46613 0.712988,-3.12309 1.050155,-4.93298 0.336092,-1.80798 0.655005,-3.77472 0.957811,-5.90027 m 10.885965,-17.60992 -0.559439,1.37649 -0.594874,1.36174 -0.630306,1.34612 -0.664669,1.32943 -0.697956,1.31203 -0.732317,1.2937 -0.765604,1.27454 -0.797817,1.25457 -0.830031,1.23369 -0.862245,1.212 -0.89231,1.18954 -0.923449,1.16628 -0.952441,1.14237 -0.982507,1.11742 m 10.885965,-59.62147 5.478416,2.88937 4.661275,2.94062 3.831239,2.98337 2.991549,3.01785 2.143257,3.04375 1.288536,3.06107 0.429516,3.06974 -0.429516,3.06974 -1.288536,3.06106 -2.143257,3.04378 -2.991549,3.01785 -3.831239,2.98337 -4.661275,2.94062 -5.478416,2.88936 m 0,-42.01155 -0.559439,-1.37649 -0.594874,-1.36174 -0.630306,-1.34613 -0.664669,-1.32942 -0.697956,-1.31201 -0.732317,-1.2937 -0.765604,-1.27456 -0.797817,-1.25456 -0.830031,-1.23369 -0.862245,-1.212 -0.89231,-1.18953 -0.923449,-1.16631 -0.952441,-1.14236 -0.982507,-1.11743 M 13.401461,95.229616 c 0.757014,1.418532 1.501142,3.598955 2.221648,6.527684 0.359715,1.46613 0.712988,3.12308 1.050155,4.933 0.336092,1.80797 0.655005,3.77468 0.957811,5.90024 m 38.033232,94.59233 v -3.68099 -5.53487 -7.19268 -8.59538 -9.69333 -10.44762 -10.83176 -10.83175 -10.44763 -9.69334 -8.59536 -7.19268 -5.534871 -3.680993 m -55.23731212,0 H 0.49249544 0.69114452 1.0229421 1.4868145 2.0838354 2.812931 3.6741013 4.6673462 5.7937397 7.0511344 8.4416775 9.9632217 11.61684 13.401461 m 397.197069,0 h 1.7846 1.65366 1.52152 1.39055 1.25737 1.12641 0.99326 0.86112 0.72913 0.59703 0.46385 0.33192 0.19883 0.0653 m -55.23732,0 h 42.26287 m -110.82223,0 h 68.55936 m -244.11202,0 H 299.7764 m -244.112005,0 h 68.559345 m -110.822187,0 H 55.664282 M 0.42699488,207.18287 V 95.229616 M 423.57301,207.18287 V 95.229616" />
  </g>
  <g
     id="g605"
     transform="matrix(1.0596496,0,0,1.0596496,3.1995701,-5.4244213e-8)">
    <path
       style="color:#000000;font-style:normal;font-variant:normal;font-weight:normal;font-stretch:normal;font-size:medium;line-height:normal;font-family:sans-serif;font-variant-ligatures:normal;font-variant-position:normal;font-variant-caps:normal;font-variant-numeric:normal;font-variant-alternates:normal;font-variant-east-asian:normal;font-feature-settings:normal;font-variation-settings:normal;text-indent:0;text-align:start;text-decoration:none;text-decoration-line:none;text-decoration-style:solid;text-decoration-color:#000000;letter-spacing:normal;word-spacing:normal;text-transform:none;writing-mode:lr-tb;direction:ltr;text-orientation:mixed;dominant-baseline:auto;baseline-shift:baseline;text-anchor:start;white-space:normal;shape-padding:0;shape-margin:0;inline-size:0;clip-rule:nonzero;display:inline;overflow:visible;visibility:visible;isolation:auto;mix-blend-mode:normal;color-interpolation:sRGB;color-interpolation-filters:linearRGB;solid-color:#000000;solid-opacity:1;fill:#c8c8c8;fill-opacity:1;fill-rule:nonzero;stroke:none;stroke-width:0.350001;stroke-linecap:butt;stroke-linejoin:miter;stroke-miterlimit:4;stroke-dasharray:none;stroke-dashoffset:0;stroke-opacity:1;color-rendering:auto;image-rendering:auto;shape-rendering:auto;text-rendering:auto;enable-background:accumulate;stop-color:#000000"
       d="M 194.58564,2.5364339 C 161.94906,3.0540518 129.66334,15.125385 104.8978,36.046941 89.008383,49.394417 76.175649,66.240772 67.596291,84.989447 c -0.975961,-0.130629 -1.590369,0.597912 -1.50504,1.530052 0.235856,1.526565 -1.877036,0.577128 -2.810245,0.871314 -2.488429,0.04429 -4.976941,0.0858 -7.465319,0.13242 0.341248,0.986677 -0.371908,1.870746 -0.129748,2.911975 0,8.847406 0,17.694822 0,26.542232 -1.016701,0.13755 -2.58265,-0.26551 -3.273671,0.1926 0.02406,0.87509 -0.553333,1.63299 -0.343804,2.56459 0,16.00792 0,32.0158 0,48.02372 1.073248,-0.47752 1.977494,0.6074 3.082683,0.16176 1.142841,0.0771 0.253925,2.15409 0.534792,3.07964 0,8.75143 0,17.50287 0,26.25433 1.057804,-0.47121 1.945241,0.57598 3.036834,0.16905 2.430752,0.0425 4.861499,0.0854 7.292223,0.12773 0.138759,1.54389 0.277636,3.08778 0.416363,4.6316 0.616748,-0.77568 1.328695,-3.04099 1.764916,-0.99354 13.034398,27.90363 35.733635,51.29079 63.444315,65.41166 27.29663,14.02905 59.29,18.95406 89.63497,13.78073 31.06239,-5.2022 60.20607,-20.89092 81.30629,-43.93597 10.03322,-10.8897 18.30596,-23.34788 24.42136,-36.75906 0.95326,0.62146 1.64125,-0.86436 1.47832,-1.67307 0.18264,-1.02848 2.20733,-0.23207 3.14022,-0.51725 2.36574,-0.0419 4.7315,-0.0819 7.09715,-0.12576 -0.38119,-0.9685 0.35415,-1.83053 0.10699,-2.85336 0,-8.8657 0,-17.73142 0,-26.59714 1.15238,0 2.3047,0 3.45707,0 -0.34775,-0.98947 0.41407,-1.85303 0.15651,-2.89842 0,-15.95953 0,-31.91908 0,-47.87861 -1.0061,0.32397 -1.88065,-0.4174 -2.94135,-0.16555 -1.36544,0.16108 -0.369,-2.00273 -0.67231,-2.88713 0,-8.81685 0,-17.633698 0,-26.450546 -0.99053,0.344272 -1.8528,-0.39233 -2.89535,-0.16706 -2.49066,-0.04312 -4.98128,-0.08641 -7.47191,-0.129675 -0.23922,-0.491106 -1.26485,-0.759375 -1.3926,-2.015734 C 314.59656,57.751508 292.77323,34.40098 265.88129,19.887313 244.19352,8.115795 219.35116,2.045202 194.58578,2.5364928 Z"
       id="path20295-8" />
    <g
       id="Ortho_0_0"
       transform="matrix(0,0.99417636,-0.99803998,0,196.64147,142.49993)"
       style="stroke-width:0.796853;stroke-miterlimit:4;stroke-dasharray:none">
      <g
         fill="none"
         stroke="#000000"
         stroke-linecap="butt"
         stroke-linejoin="miter"
         stroke-width="0.7"
         transform="scale(1,-1)"
         id="g20159"
         style="stroke-width:0.796853;stroke-miterlimit:4;stroke-dasharray:none">
        <path
           id="1"
           d="m -54.6463,-141.896 -0.1797,10.298"
           style="stroke-width:0.796853;stroke-miterlimit:4;stroke-dasharray:none" />
        <path
           id="2"
           d="M -54.6463,142.708 -54.826,132.411"
           style="stroke-width:0.796853;stroke-miterlimit:4;stroke-dasharray:none" />
        <path
           id="3"
           d="m 24,142.708 v 3.698"
           style="stroke-width:0.796853;stroke-miterlimit:4;stroke-dasharray:none" />
        <path
           id="4"
           d="m -24,142.708 v 3.698"
           style="stroke-width:0.796853;stroke-miterlimit:4;stroke-dasharray:none" />
        <path
           id="5"
           d="m 24,-145.594 v 3.698"
           style="stroke-width:0.796853;stroke-miterlimit:4;stroke-dasharray:none" />
        <path
           id="6"
           d="m -24,-145.594 v 3.698"
           style="stroke-width:0.796853;stroke-miterlimit:4;stroke-dasharray:none" />
      </g>
      <g
         fill="none"
         stroke="#000000"
         stroke-linecap="butt"
         stroke-linejoin="miter"
         stroke-width="0.7"
         transform="scale(1,-1)"
         id="g20297"
         style="stroke-width:0.796853;stroke-miterlimit:4;stroke-dasharray:none">
        <path
           d="m 1.55567,-141.896 q -1.55567,-0.014 -3.11134,0"
           id="path20161"
           style="stroke-width:0.796853;stroke-miterlimit:4;stroke-dasharray:none" />
        <path
           d="m -1.55567,142.708 q 1.55567,0.015 3.11134,0"
           id="path20163"
           style="stroke-width:0.796853;stroke-miterlimit:4;stroke-dasharray:none" />
        <path
           d="M -53.9422,130.283 A 140.633,140.633 0 0 1 0,-140.227"
           id="path20165"
           style="stroke-width:0.796853;stroke-miterlimit:4;stroke-dasharray:none" />
        <path
           d="m -54.826,132.411 q -3e-4,-0.016 0.0115,-0.028"
           id="path20167"
           style="stroke-width:0.796853;stroke-miterlimit:4;stroke-dasharray:none" />
        <path
           d="m -54.826,132.411 a 142.938,142.938 0 0 1 0,-264.009"
           id="path20169"
           style="stroke-width:0.796853;stroke-miterlimit:4;stroke-dasharray:none" />
        <path
           d="m -54.826,-131.598 c -0.0027,0.102 0.3526,0.057 1.0657,-0.134 0.7165,-0.191 1.7813,-0.521 3.1586,-0.953 0.6898,-0.217 1.461,-0.458 2.3134,-0.722 0.8554,-0.265 1.7836,-0.547 2.7844,-0.845 1.9957,-0.593 4.2467,-1.231 6.7757,-1.88 1.2645,-0.324 2.5984,-0.651 3.9798,-0.969 1.3815,-0.32 2.8097,-0.629 4.2847,-0.928 1.4739,-0.299 2.9964,-0.583 4.5674,-0.854 1.5738,-0.271 3.1928,-0.522 4.8569,-0.755 1.6622,-0.231 3.3636,-0.44 5.0812,-0.621 1.7169,-0.182 3.4523,-0.335 5.2064,-0.46 1.75412,-0.125 3.53137,-0.219 5.33173,-0.284 1.80107,-0.064 3.6274,-0.097 5.4393297,-0.097 3.6238603,0 7.1901103,0.13 10.7275403,0.381 1.7687,0.126 3.5301,0.282 5.2572,0.464 1.7284,0.184 3.4186,0.391 5.0706,0.622 1.6497,0.231 3.2606,0.481 4.8326,0.752 1.5753,0.271 3.1082,0.558 4.5988,0.861 1.4907,0.302 2.925,0.613 4.303,0.933 1.3746,0.318 2.6883,0.638 3.9412,0.961 1.2542,0.323 2.4495,0.643 3.5857,0.961 1.1359,0.317 2.2118,0.629 3.2096,0.925 1.9957,0.593 3.6793,1.124 5.0572,1.555 1.3779,0.432 2.4501,0.764 3.1619,0.954 0.7106,0.191 1.0644,0.235 1.0614,0.133"
           id="path20171"
           style="stroke-width:0.796853;stroke-miterlimit:4;stroke-dasharray:none" />
        <path
           d="m 54.826,-131.598 a 142.938,142.938 0 0 1 0,264.009"
           id="path20173"
           style="stroke-width:0.796853;stroke-miterlimit:4;stroke-dasharray:none" />
        <path
           d="m -54.8145,132.383 c 0.0656,-0.063 0.417,-0.009 1.0542,0.162 0.7165,0.191 1.7813,0.521 3.1586,0.953 0.6898,0.217 1.461,0.457 2.3134,0.722 0.8554,0.265 1.7836,0.547 2.7844,0.845 1.9957,0.593 4.2467,1.231 6.7757,1.879 1.2645,0.325 2.5984,0.651 3.9798,0.97 1.3815,0.319 2.8097,0.629 4.2847,0.928 1.4739,0.298 2.9964,0.583 4.5674,0.853 1.5738,0.271 3.1928,0.523 4.8569,0.756 1.6622,0.231 3.3636,0.44 5.0812,0.621 1.7169,0.182 3.4523,0.335 5.2064,0.459 1.75412,0.125 3.53137,0.22 5.33173,0.285 1.80107,0.064 3.6274,0.096 5.4393297,0.097 3.6238603,0 7.1901103,-0.13 10.7275403,-0.381 1.7687,-0.126 3.5301,-0.282 5.2572,-0.465 1.7284,-0.183 3.4186,-0.39 5.0706,-0.621 1.6497,-0.231 3.2606,-0.482 4.8326,-0.752 1.5753,-0.272 3.1082,-0.559 4.5988,-0.861 1.4907,-0.303 2.925,-0.614 4.303,-0.933 1.3746,-0.318 2.6883,-0.639 3.9412,-0.961 1.2542,-0.323 2.4495,-0.643 3.5857,-0.961 1.1359,-0.317 2.2118,-0.629 3.2096,-0.926 1.9957,-0.593 3.6793,-1.123 5.0572,-1.555 1.3779,-0.431 2.4501,-0.764 3.1619,-0.953 0.7106,-0.191 1.0644,-0.235 1.0614,-0.133"
           id="path20175"
           style="stroke-width:0.796853;stroke-miterlimit:4;stroke-dasharray:none" />
        <path
           d="m 0,-140.227 a 140.633,140.633 0 1 1 -53.9422,270.51"
           id="path20177"
           style="stroke-width:0.796853;stroke-miterlimit:4;stroke-dasharray:none" />
        <circle
           cx="0"
           cy="0.40636301"
           r="136"
           id="circle20179"
           style="stroke-width:0.796853;stroke-miterlimit:4;stroke-dasharray:none" />
        <path
           d="M 0,135.358 A 134.952,134.952 0 0 0 0,-134.545"
           id="path20181"
           style="stroke-width:0.796853;stroke-miterlimit:4;stroke-dasharray:none" />
        <path
           d="M 0,-134.545 A 134.952,134.952 0 0 0 0,135.358"
           id="path20183"
           style="stroke-width:0.796853;stroke-miterlimit:4;stroke-dasharray:none" />
        <path
           id="13"
           d="M 82.4207,-0.27228 71.7178,-40.2163"
           style="stroke-width:0.796853;stroke-miterlimit:4;stroke-dasharray:none" />
        <path
           id="14"
           d="M 131.707,-0.27228 H 82.4207"
           style="stroke-width:0.796853;stroke-miterlimit:4;stroke-dasharray:none" />
        <path
           d="m 114.401,-64.8596 a 131.709,131.709 0 0 1 17.306,64.58732"
           id="path20187"
           style="stroke-width:0.796853;stroke-miterlimit:4;stroke-dasharray:none" />
        <path
           id="16"
           d="M 71.7178,-40.2163 114.401,-64.8596"
           style="stroke-width:0.796853;stroke-miterlimit:4;stroke-dasharray:none" />
        <path
           id="17"
           d="M 17.5586,-28.6488 41.0955,-69.4159"
           style="stroke-width:0.796853;stroke-miterlimit:4;stroke-dasharray:none" />
        <path
           id="18"
           d="M 33.9418,-0.27228 17.5586,-28.6488"
           style="stroke-width:0.796853;stroke-miterlimit:4;stroke-dasharray:none" />
        <path
           id="19"
           d="M 81.0156,-0.27228 H 33.9418"
           style="stroke-width:0.796853;stroke-miterlimit:4;stroke-dasharray:none" />
        <path
           id="20"
           d="M 70.319,-40.1923 81.0156,-0.27228"
           style="stroke-width:0.796853;stroke-miterlimit:4;stroke-dasharray:none" />
        <path
           id="21"
           d="M 41.0955,-69.4159 70.319,-40.1923"
           style="stroke-width:0.796853;stroke-miterlimit:4;stroke-dasharray:none" />
        <path
           id="22"
           d="M 41.7981,-70.6328 66.4414,-113.316"
           style="stroke-width:0.796853;stroke-miterlimit:4;stroke-dasharray:none" />
        <path
           id="23"
           d="M 71.0391,-41.3917 41.7981,-70.6328"
           style="stroke-width:0.796853;stroke-miterlimit:4;stroke-dasharray:none" />
        <path
           id="24"
           d="M 113.723,-66.0351 71.0391,-41.3917"
           style="stroke-width:0.796853;stroke-miterlimit:4;stroke-dasharray:none" />
        <path
           d="m 66.4414,-113.316 a 131.709,131.709 0 0 1 47.2816,47.2809"
           id="path20198"
           style="stroke-width:0.796853;stroke-miterlimit:4;stroke-dasharray:none" />
        <path
           id="26"
           d="M 0.678659,-82.0144 0.680253,-131.301"
           style="stroke-width:0.796853;stroke-miterlimit:4;stroke-dasharray:none" />
        <path
           id="27"
           d="M 40.6226,-71.3114 0.678659,-82.0144"
           style="stroke-width:0.796853;stroke-miterlimit:4;stroke-dasharray:none" />
        <path
           id="28"
           d="M 65.266,-113.995 40.6226,-71.3114"
           style="stroke-width:0.796853;stroke-miterlimit:4;stroke-dasharray:none" />
        <path
           d="M 0.680253,-131.301 A 131.709,131.709 0 0 1 65.266,-113.995"
           id="path20203"
           style="stroke-width:0.796853;stroke-miterlimit:4;stroke-dasharray:none" />
        <path
           id="30"
           d="M -39.9201,-70.0945 0,-80.7911"
           style="stroke-width:0.796853;stroke-miterlimit:4;stroke-dasharray:none" />
        <path
           id="31"
           d="M -16.3832,-29.3274 -39.9201,-70.0945"
           style="stroke-width:0.796853;stroke-miterlimit:4;stroke-dasharray:none" />
        <path
           id="32"
           d="M 16.3832,-29.3274 H -16.3832"
           style="stroke-width:0.796853;stroke-miterlimit:4;stroke-dasharray:none" />
        <path
           id="33"
           d="M 39.9201,-70.0945 16.3832,-29.3274"
           style="stroke-width:0.796853;stroke-miterlimit:4;stroke-dasharray:none" />
        <path
           id="34"
           d="m 0,-80.7911 39.9201,10.6966"
           style="stroke-width:0.796853;stroke-miterlimit:4;stroke-dasharray:none" />
        <path
           id="35"
           d="M -40.6226,-71.3114 -65.266,-113.995"
           style="stroke-width:0.796853;stroke-miterlimit:4;stroke-dasharray:none" />
        <path
           id="36"
           d="M -0.678625,-82.0144 -40.6226,-71.3114"
           style="stroke-width:0.796853;stroke-miterlimit:4;stroke-dasharray:none" />
        <path
           id="37"
           d="m -0.677032,-131.301 -0.001593,49.2866"
           style="stroke-width:0.796853;stroke-miterlimit:4;stroke-dasharray:none" />
        <path
           d="m -65.266,-113.995 a 131.709,131.709 0 0 1 64.588968,-17.306"
           id="path20213"
           style="stroke-width:0.796853;stroke-miterlimit:4;stroke-dasharray:none" />
        <path
           id="39"
           d="M -71.0391,-41.3917 -113.723,-66.0351"
           style="stroke-width:0.796853;stroke-miterlimit:4;stroke-dasharray:none" />
        <path
           id="40"
           d="m -41.7981,-70.6328 -29.241,29.2411"
           style="stroke-width:0.796853;stroke-miterlimit:4;stroke-dasharray:none" />
        <path
           id="41"
           d="m -66.4414,-113.316 24.6433,42.6832"
           style="stroke-width:0.796853;stroke-miterlimit:4;stroke-dasharray:none" />
        <path
           d="m -113.723,-66.0351 a 131.709,131.709 0 0 1 47.2816,-47.2809"
           id="path20218"
           style="stroke-width:0.796853;stroke-miterlimit:4;stroke-dasharray:none" />
        <path
           id="43"
           d="M -71.7178,-40.2163 -82.4207,-0.27228"
           style="stroke-width:0.796853;stroke-miterlimit:4;stroke-dasharray:none" />
        <path
           id="44"
           d="m -114.401,-64.8596 42.6832,24.6433"
           style="stroke-width:0.796853;stroke-miterlimit:4;stroke-dasharray:none" />
        <path
           d="m -131.707,-0.27228 a 131.709,131.709 0 0 1 17.306,-64.58732"
           id="path20222"
           style="stroke-width:0.796853;stroke-miterlimit:4;stroke-dasharray:none" />
        <path
           id="46"
           d="M -82.4207,-0.27228 H -131.707"
           style="stroke-width:0.796853;stroke-miterlimit:4;stroke-dasharray:none" />
        <path
           id="47"
           d="M -81.0156,-0.27228 -70.319,-40.1923"
           style="stroke-width:0.796853;stroke-miterlimit:4;stroke-dasharray:none" />
        <path
           id="48"
           d="M -33.9418,-0.27228 H -81.0156"
           style="stroke-width:0.796853;stroke-miterlimit:4;stroke-dasharray:none" />
        <path
           id="49"
           d="M -17.5586,-28.6488 -33.9418,-0.27228"
           style="stroke-width:0.796853;stroke-miterlimit:4;stroke-dasharray:none" />
        <path
           id="50"
           d="m -41.0955,-69.4159 23.5369,40.7671"
           style="stroke-width:0.796853;stroke-miterlimit:4;stroke-dasharray:none" />
        <path
           id="51"
           d="m -70.319,-40.1923 29.2235,-29.2236"
           style="stroke-width:0.796853;stroke-miterlimit:4;stroke-dasharray:none" />
        <path
           id="52"
           d="M 16.3832,28.7829 H -16.3832"
           style="stroke-width:0.796853;stroke-miterlimit:4;stroke-dasharray:none" />
        <path
           id="53"
           d="M 32.7664,0.406363 16.3832,28.7829"
           style="stroke-width:0.796853;stroke-miterlimit:4;stroke-dasharray:none" />
        <path
           id="54"
           d="M 16.3832,-27.9701 32.7664,0.406363"
           style="stroke-width:0.796853;stroke-miterlimit:4;stroke-dasharray:none" />
        <path
           id="55"
           d="M -16.3832,-27.9701 H 16.3832"
           style="stroke-width:0.796853;stroke-miterlimit:4;stroke-dasharray:none" />
        <path
           id="56"
           d="M -32.7664,0.406363 -16.3832,-27.9701"
           style="stroke-width:0.796853;stroke-miterlimit:4;stroke-dasharray:none" />
        <path
           id="57"
           d="M -16.3832,28.7829 -32.7664,0.406363"
           style="stroke-width:0.796853;stroke-miterlimit:4;stroke-dasharray:none" />
        <path
           id="58"
           d="M -17.5586,29.4615 -41.0955,70.2286"
           style="stroke-width:0.796853;stroke-miterlimit:4;stroke-dasharray:none" />
        <path
           id="59"
           d="m -33.9418,1.085 16.3832,28.3765"
           style="stroke-width:0.796853;stroke-miterlimit:4;stroke-dasharray:none" />
        <path
           id="60"
           d="m -81.0156,1.085 h 47.0738"
           style="stroke-width:0.796853;stroke-miterlimit:4;stroke-dasharray:none" />
        <path
           id="61"
           d="M -70.319,41.0051 -81.0156,1.085"
           style="stroke-width:0.796853;stroke-miterlimit:4;stroke-dasharray:none" />
        <path
           id="62"
           d="M -41.0955,70.2286 -70.319,41.0051"
           style="stroke-width:0.796853;stroke-miterlimit:4;stroke-dasharray:none" />
        <path
           id="63"
           d="M -71.7178,41.029 -114.4,65.6737"
           style="stroke-width:0.796853;stroke-miterlimit:4;stroke-dasharray:none" />
        <path
           id="64"
           d="m -82.4207,1.085 10.7029,39.944"
           style="stroke-width:0.796853;stroke-miterlimit:4;stroke-dasharray:none" />
        <path
           id="65"
           d="m -131.707,1.085 h 49.2863"
           style="stroke-width:0.796853;stroke-miterlimit:4;stroke-dasharray:none" />
        <path
           d="M -114.4,65.6737 A 131.709,131.709 0 0 1 -131.707,1.085"
           id="path20244"
           style="stroke-width:0.796853;stroke-miterlimit:4;stroke-dasharray:none" />
        <path
           id="67"
           d="M -41.7981,71.4455 -66.4414,114.129"
           style="stroke-width:0.796853;stroke-miterlimit:4;stroke-dasharray:none" />
        <path
           id="68"
           d="m -71.0391,42.2045 29.241,29.241"
           style="stroke-width:0.796853;stroke-miterlimit:4;stroke-dasharray:none" />
        <path
           id="69"
           d="M -113.722,66.8492 -71.0391,42.2045"
           style="stroke-width:0.796853;stroke-miterlimit:4;stroke-dasharray:none" />
        <path
           d="M -66.4414,114.129 A 131.709,131.709 0 0 1 -113.722,66.8492"
           id="path20249"
           style="stroke-width:0.796853;stroke-miterlimit:4;stroke-dasharray:none" />
        <path
           id="71"
           d="M -0.678642,82.8271 V 132.114"
           style="stroke-width:0.796853;stroke-miterlimit:4;stroke-dasharray:none" />
        <path
           id="72"
           d="m -40.6226,72.1241 39.943958,10.703"
           style="stroke-width:0.796853;stroke-miterlimit:4;stroke-dasharray:none" />
        <path
           id="73"
           d="M -65.266,114.808 -40.6226,72.1241"
           style="stroke-width:0.796853;stroke-miterlimit:4;stroke-dasharray:none" />
        <path
           d="M -0.678642,132.114 A 131.709,131.709 0 0 1 -65.266,114.808"
           id="path20254"
           style="stroke-width:0.796853;stroke-miterlimit:4;stroke-dasharray:none" />
        <path
           id="75"
           d="M 40.6226,72.1241 65.266,114.808"
           style="stroke-width:0.796853;stroke-miterlimit:4;stroke-dasharray:none" />
        <path
           id="76"
           d="M 0.678642,82.8271 40.6226,72.1241"
           style="stroke-width:0.796853;stroke-miterlimit:4;stroke-dasharray:none" />
        <path
           id="77"
           d="M 0.678642,132.114 V 82.8271"
           style="stroke-width:0.796853;stroke-miterlimit:4;stroke-dasharray:none" />
        <path
           d="M 65.266,114.808 A 131.709,131.709 0 0 1 0.678642,132.114"
           id="path20259"
           style="stroke-width:0.796853;stroke-miterlimit:4;stroke-dasharray:none" />
        <path
           id="79"
           d="M 70.319,41.0051 41.0955,70.2286"
           style="stroke-width:0.796853;stroke-miterlimit:4;stroke-dasharray:none" />
        <path
           id="80"
           d="M 81.0156,1.085 70.319,41.0051"
           style="stroke-width:0.796853;stroke-miterlimit:4;stroke-dasharray:none" />
        <path
           id="81"
           d="M 33.9418,1.085 H 81.0156"
           style="stroke-width:0.796853;stroke-miterlimit:4;stroke-dasharray:none" />
        <path
           id="82"
           d="M 17.5586,29.4615 33.9418,1.085"
           style="stroke-width:0.796853;stroke-miterlimit:4;stroke-dasharray:none" />
        <path
           id="83"
           d="M 41.0955,70.2286 17.5586,29.4615"
           style="stroke-width:0.796853;stroke-miterlimit:4;stroke-dasharray:none" />
        <path
           id="84"
           d="M 39.9201,70.9072 0,81.6038"
           style="stroke-width:0.796853;stroke-miterlimit:4;stroke-dasharray:none" />
        <path
           id="85"
           d="m 16.3832,30.1402 23.5369,40.767"
           style="stroke-width:0.796853;stroke-miterlimit:4;stroke-dasharray:none" />
        <path
           id="86"
           d="M -16.3832,30.1402 H 16.3832"
           style="stroke-width:0.796853;stroke-miterlimit:4;stroke-dasharray:none" />
        <path
           id="87"
           d="m -39.9201,70.9072 23.5369,-40.767"
           style="stroke-width:0.796853;stroke-miterlimit:4;stroke-dasharray:none" />
        <path
           id="88"
           d="M 0,81.6038 -39.9201,70.9072"
           style="stroke-width:0.796853;stroke-miterlimit:4;stroke-dasharray:none" />
        <path
           id="89"
           d="M 114.401,65.6723 71.7178,41.029"
           style="stroke-width:0.796853;stroke-miterlimit:4;stroke-dasharray:none" />
        <path
           d="M 131.707,1.085 A 131.709,131.709 0 0 1 114.401,65.6723"
           id="path20272"
           style="stroke-width:0.796853;stroke-miterlimit:4;stroke-dasharray:none" />
        <path
           id="91"
           d="M 82.4207,1.085 H 131.707"
           style="stroke-width:0.796853;stroke-miterlimit:4;stroke-dasharray:none" />
        <path
           id="92"
           d="M 71.7178,41.029 82.4207,1.085"
           style="stroke-width:0.796853;stroke-miterlimit:4;stroke-dasharray:none" />
        <path
           id="93"
           d="M 71.0391,42.2045 113.723,66.8478"
           style="stroke-width:0.796853;stroke-miterlimit:4;stroke-dasharray:none" />
        <path
           id="94"
           d="m 41.7981,71.4455 29.241,-29.241"
           style="stroke-width:0.796853;stroke-miterlimit:4;stroke-dasharray:none" />
        <path
           id="95"
           d="M 66.4414,114.129 41.7981,71.4455"
           style="stroke-width:0.796853;stroke-miterlimit:4;stroke-dasharray:none" />
        <path
           d="M 113.723,66.8478 A 131.709,131.709 0 0 1 66.4414,114.129"
           id="path20279"
           style="stroke-width:0.796853;stroke-miterlimit:4;stroke-dasharray:none" />
        <path
           d="m -54.6463,-141.896 h 1.3701 4.0416 6.5104 8.6528 10.3613 11.5502 H 0 h 12.1599 11.5502 10.3613 8.6528 6.5104 4.0416 1.3701"
           id="path20281"
           style="stroke-width:0.796853;stroke-miterlimit:4;stroke-dasharray:none" />
        <path
           d="m 54.6463,-141.896 0.1797,10.298"
           id="path20283"
           style="stroke-width:0.796853;stroke-miterlimit:4;stroke-dasharray:none" />
        <path
           d="m -54.6463,142.708 h 1.3701 4.0416 6.5104 8.6528 10.3613 11.5502 H 0 h 12.1599 11.5502 10.3613 8.6528 6.5104 4.0416 1.3701"
           id="path20285"
           style="stroke-width:0.796853;stroke-miterlimit:4;stroke-dasharray:none" />
        <path
           d="M 54.6463,142.708 54.826,132.411"
           id="path20287"
           style="stroke-width:0.796853;stroke-miterlimit:4;stroke-dasharray:none" />
        <path
           d="M 24,146.406 H 23.8613 23.4468 22.7612 21.8125 20.6117 19.1726 17.5119 15.6488 13.6048 11.4035 9.07043 6.63249 4.11788 1.55567"
           id="path20289"
           style="stroke-width:0.796853;stroke-miterlimit:4;stroke-dasharray:none" />
        <path
           d="m 1.55567,146.406 h -2.80234 -2.78534 -2.73037 -2.63816 -2.50996 -2.3476 -2.1532 -1.9295 -1.6794 -1.4064 -1.1142 -0.807 -0.4886 H -24"
           id="path20291"
           style="stroke-width:0.796853;stroke-miterlimit:4;stroke-dasharray:none" />
        <path
           d="m 1.55567,-145.594 h -2.80234 -2.78534 -2.73037 -2.63816 -2.50996 -2.3476 -2.1532 -1.9295 -1.6794 -1.4064 -1.1142 -0.807 -0.4886 H -24"
           id="path20293"
           style="stroke-width:0.796853;stroke-miterlimit:4;stroke-dasharray:none" />
        <path
           d="M 24,-145.594 H 23.8613 23.4468 22.7612 21.8125 20.6117 19.1726 17.5119 15.6488 13.6048 11.4035 9.07043 6.63249 4.11788 1.55567"
           id="path20295"
           style="stroke-width:0.796853;stroke-miterlimit:4;stroke-dasharray:none" />
      </g>
    </g>
  </g>
</svg>
