<?xml version="1.0" encoding="UTF-8" standalone="no"?>
<svg
   id="svg2"
   version="1.1"
   viewBox="0 0 319.99307 209.62106"
   height="209.62105mm"
   width="319.99307mm"
   sodipodi:docname="thumbnail.svg"
   inkscape:version="1.2.1 (9c6d41e410, 2022-07-14)"
   xmlns:inkscape="http://www.inkscape.org/namespaces/inkscape"
   xmlns:sodipodi="http://sodipodi.sourceforge.net/DTD/sodipodi-0.dtd"
   xmlns:xlink="http://www.w3.org/1999/xlink"
   xmlns="http://www.w3.org/2000/svg"
   xmlns:svg="http://www.w3.org/2000/svg"
   xmlns:rdf="http://www.w3.org/1999/02/22-rdf-syntax-ns#"
   xmlns:cc="http://creativecommons.org/ns#"
   xmlns:dc="http://purl.org/dc/elements/1.1/">
  <sodipodi:namedview
     id="namedview421"
     pagecolor="#ffffff"
     bordercolor="#000000"
     borderopacity="0.25"
     inkscape:showpageshadow="2"
     inkscape:pageopacity="0.0"
     inkscape:pagecheckerboard="0"
     inkscape:deskcolor="#d1d1d1"
     inkscape:document-units="mm"
     showgrid="false"
     inkscape:zoom="0.52032068"
     inkscape:cx="690.92007"
     inkscape:cy="389.18307"
     inkscape:window-width="1920"
     inkscape:window-height="1013"
     inkscape:window-x="-9"
     inkscape:window-y="135"
     inkscape:window-maximized="1"
     inkscape:current-layer="svg2" />
  <!-- Working space 10 10 410 287 -->
  <!-- Title block 220 227 410 287 -->
  <path
     style="color:#000000;fill:#c8c8c8;fill-opacity:1;stroke:#000000;stroke-opacity:1;-inkscape-stroke:none"
     d="M 42.856988,0.5 H 277.13629 l 0.91992,0.07227 0.93359,0.07813 0.92383,0.08398 0.91211,0.08594 0.90234,0.08984 0.88868,0.0957 0.8789,0.09766 0.86328,0.103516 0.85157,0.105469 0.83789,0.109375 0.82421,0.111328 0.8086,0.117187 0.79492,0.121094 0.54102,0.08594 c 2.13172,3.562124 4.15974,7.183089 6.06836,10.86914 1.87152,3.613421 3.54617,7.12333 4.99609,10.365235 l 0.002,0.0039 1.17188,2.669922 1.13281,2.6875 1.09375,2.703125 1.05469,2.71875 1.01562,2.734375 0.97656,2.748047 0.93555,2.761718 0.89649,2.775391 0.85546,2.787109 0.81446,2.800782 0.77539,2.810547 0.73437,2.822265 0.69336,2.833985 0.65235,2.841796 c 0.99119,4.470952 1.77488,8.943812 2.45507,13.421872 0.20169,1.32807 0.36229,2.65894 0.53711,3.98828 0.43801,3.33105 0.79348,6.66768 1.06446,10.00977 0.12995,1.60266 0.28523,3.20347 0.37695,4.80859 0.002,0.0313 0.004,0.0625 0.006,0.0937 10e-4,0.0254 0.002,0.0508 0.004,0.0762 0.0613,1.09122 0.12058,2.18236 0.16406,3.27344 0.0753,1.89369 0.14914,3.790272 0.17187,5.675782 2.5e-4,0.0201 0.002,0.0404 0.002,0.0605 9e-5,0.008 -9e-5,0.0156 0,0.0234 0,6.5e-4 -1e-5,0.001 0,0.002 9.2e-4,0.0835 10e-4,0.16661 0.002,0.25 10e-4,0.11857 0.003,0.23712 0.004,0.35547 8.8e-4,0.10571 0.001,0.21335 0.002,0.31836 v 0.14062 c 5.1e-4,0.0797 0.002,0.14855 0.002,0.22266 v 0.004 0.004 c 3.4e-4,0.0248 -1.4e-4,0.0479 0,0.0723 10e-6,0.001 -1e-5,0.003 0,0.004 v 0.10157 c 10e-6,0.008 0,0.0176 0,0.0254 v 0.0625 c 10e-6,10e-4 -1e-5,0.005 0,0.006 v 0.01 c 4e-5,0.002 -4e-5,0.004 0,0.006 v 0.0176 1.39258 0.006 0.002 0.008 0.002 c -1e-5,-2.7e-4 5e-5,0.002 0,0.008 v 0.0332 c -9e-5,0.0125 0,0.0218 0,0.0371 0,0.003 0,0.004 0,0.008 v 0.002 0.0918 c -0.001,0.25381 -0.003,0.53393 -0.006,0.8086 v 0.002 0.0664 c -6e-5,0.008 7e-5,0.017 0,0.0254 0,6.5e-4 1e-5,10e-4 0,0.002 -2.1e-4,0.0272 -0.002,0.0548 -0.002,0.082 -0.006,0.63566 -0.0172,1.27511 -0.0293,1.91406 -0.007,0.34809 -0.0151,0.69627 -0.0234,1.04493 -0.04,1.68708 -0.10052,3.3761 -0.1836,5.06445 -3.5e-4,0.007 -0.002,0.0143 -0.002,0.0215 -0.0163,0.33139 -0.0485,0.66275 -0.0664,0.99414 -0.18983,3.5013 -0.45174,6.99707 -0.82422,10.48633 -0.79603,7.45653 -2.00734,14.88604 -3.65429,22.3125 l -0.65235,2.8418 -0.69336,2.83203 -0.73437,2.82227 -0.77539,2.8125 -0.81446,2.79882 -0.85546,2.78711 -0.89649,2.77539 -0.93555,2.76172 -0.97656,2.75 -1.01562,2.73243 -1.05469,2.71875 -1.09375,2.70312 -1.13281,2.6875 -1.17188,2.66992 -0.002,0.004 c -1.28131,2.86539 -2.74216,5.94651 -4.35742,9.12109 -1.82104,3.57643 -3.75138,7.0925 -5.78125,10.5547 l -0.58985,0.0977 -0.8457,0.13476 -0.86328,0.13086 -0.87891,0.125 -0.89843,0.12305 -0.91602,0.11719 -0.92969,0.11523 -0.94531,0.10742 -0.96094,0.10547 -0.97461,0.0996 -0.98828,0.0957 -1.00195,0.0899 -1.01367,0.0879 -1,0.0781 H 42.856988 l -1,-0.0781 -1.01367,-0.0879 -1,-0.0899 -0.99023,-0.0957 -0.97461,-0.0996 -0.96094,-0.10547 -0.94531,-0.10742 -0.92969,-0.11523 -0.91601,-0.11719 -0.89844,-0.12305 -0.87891,-0.125 -0.86328,-0.13086 -0.8457,-0.13476 -0.58789,-0.0977 c -2.02988,-3.4622 -3.96216,-6.97826 -5.78321,-10.5547 -1.61525,-3.17458 -3.07611,-6.2557 -4.35742,-9.12109 l -0.002,-0.004 -1.17187,-2.66992 -1.13282,-2.6875 -1.09375,-2.70312 -1.05468,-2.71875 -1.01563,-2.73243 -0.97656,-2.75 -0.93555,-2.76172 -0.89648,-2.77539 -0.85547,-2.78711 -0.81445,-2.79882 -0.7754,-2.8125 -0.73437,-2.82227 -0.69336,-2.83203 -0.6523,-2.84354 c -2.7e-4,-0.001 2.8e-4,-0.003 0,-0.004 -0.993,-4.47953 -1.77816,-8.96256 -2.45898,-13.44922 -0.19895,-1.31137 -0.35654,-2.62489 -0.5293,-3.9375 -0.4368,-3.31911 -0.79155,-6.64258 -1.0625,-9.97266 -0.13638,-1.67615 -0.29801,-3.35048 -0.39258,-5.0293 -0.061,-1.08537 -0.12068,-2.17062 -0.16406,-3.25585 -0.077,-1.93065 -0.14949,-3.86311 -0.17187,-5.78516 -10e-4,-0.15599 -0.005,-0.30839 -0.006,-0.46289 v -0.002 -0.002 c -9.4e-4,-0.10559 -10e-4,-0.21152 -0.002,-0.3164 v -0.0449 c -2.3e-4,-0.0317 -0.002,-0.0641 -0.002,-0.0957 -3.1e-4,-0.0475 3.1e-4,-0.092 0,-0.13867 v -0.004 c -5.2e-4,-0.0797 -0.002,-0.14855 -0.002,-0.22265 -10e-6,-10e-4 0,-0.003 0,-0.004 v -0.002 c -3.4e-4,-0.0252 1.4e-4,-0.0494 0,-0.0742 v -0.004 -0.002 -0.0977 -0.0273 c 0,-0.0251 1.3e-4,-0.0459 0,-0.0606 0,-0.003 2e-5,-0.005 0,-0.008 -2e-5,-0.002 0,-1.6e-4 0,-0.002 -2e-5,-0.002 2e-5,-0.002 0,-0.004 v -0.004 c -3e-5,-10e-4 3e-5,-0.003 0,-0.004 v -0.0195 -1.37696 c 3.2e-4,-0.007 -1.5e-4,-0.009 0,-0.0137 v -0.006 -0.002 -0.01 c 0,-1.2e-4 1e-5,-0.002 0,-0.002 -6e-5,0.009 0.002,0.0452 0,-0.004 0,-8.3e-4 -10e-6,-0.003 0,-0.004 5e-5,-0.007 -8e-5,-0.0209 0,-0.0312 v -0.0391 -0.008 -0.002 c 0,-0.0255 -1.4e-4,-0.0569 0,-0.084 v -0.008 c 0.001,-0.25376 0.003,-0.53204 0.006,-0.80664 v -0.002 -0.0664 c 7e-5,-0.009 -8e-5,-0.0181 0,-0.0273 3.8e-4,-0.0395 10e-4,-0.0796 0.002,-0.11914 l 0.002,-0.11328 c 0.005,-0.48992 0.0149,-0.98274 0.0234,-1.47461 0.008,-0.45392 0.0164,-0.9084 0.0273,-1.36328 0.0423,-1.776882 0.1052,-3.553742 0.19531,-5.332032 0.18953,-3.74208 0.48285,-7.47861 0.88086,-11.20704 0.7959,-7.45526 2.00777,-14.88143 3.6543,-22.306636 2.7e-4,-0.0013 -2.8e-4,-0.0027 0,-0.0039 l 0.65234,-2.841796 0.69336,-2.833985 0.73437,-2.822265 0.77539,-2.810547 0.81446,-2.800782 0.85547,-2.787109 0.89648,-2.775391 0.93555,-2.761718 0.97656,-2.748047 1.01563,-2.734375 1.05468,-2.71875 1.09375,-2.703125 1.13282,-2.6875 1.17187,-2.669922 c 5.5e-4,-0.0012 0.001,-0.0027 0.002,-0.0039 1.44992,-3.241906 3.12653,-6.751814 4.99805,-10.365235 1.90861,-3.686046 3.93468,-7.30702 6.0664,-10.86914 l 0.54102,-0.08594 0.79492,-0.121094 0.8086,-0.117187 0.82421,-0.111328 0.83789,-0.109375 0.85157,-0.105469 0.86523,-0.103516 0.87695,-0.09766 0.89063,-0.0957 0.90039,-0.08984 0.91406,-0.08594 0.92188,-0.08398 0.93359,-0.07813 z"
     id="path2353" />
  <metadata
     id="metadata849">
    <rdf:RDF>
      <cc:Work
         rdf:about="">
        <dc:format>image/svg+xml</dc:format>
        <dc:type
           rdf:resource="http://purl.org/dc/dcmitype/StillImage" />
      </cc:Work>
    </rdf:RDF>
  </metadata>
  <defs
     id="defs847">
    <linearGradient
       gradientUnits="userSpaceOnUse"
       id="defitem29"
       y2="485.909"
       x2="655.35199"
       y1="807.466"
       x1="649.42902">
      <stop
         id="stop92"
         offset="0.0000000"
         style="stop-color:#ffffff;stop-opacity:1.0000000;" />
      <stop
         id="stop93"
         offset="1.0000000"
         style="stop-color:#ffffff;stop-opacity:0.13756600;" />
    </linearGradient>
    <linearGradient
       xlink:href="#defitem29"
       id="linearGradient3448"
       gradientUnits="userSpaceOnUse"
       x1="649.42902"
       y1="807.466"
       x2="655.35199"
       y2="485.909" />
    <radialGradient
       gradientUnits="userSpaceOnUse"
       id="defitem28"
       fy="345.56"
       fx="1049.72"
       r="1202.15"
       cy="345.56"
       cx="1049.72">
      <stop
         id="stop89"
         offset="0.0000000"
         style="stop-color:#ffffff;stop-opacity:1.0000000;" />
      <stop
         id="stop90"
         offset="1.0000000"
         style="stop-color:#a8a8a8;stop-opacity:1.0000000;" />
    </radialGradient>
    <radialGradient
       xlink:href="#defitem28"
       id="radialGradient3446"
       gradientUnits="userSpaceOnUse"
       cx="1092.7045"
       cy="64.845284"
       fx="1089.4004"
       fy="64.844765"
       r="1202.15" />
    <linearGradient
       gradientUnits="userSpaceOnUse"
       id="defitem30"
       y2="636.70697"
       x2="980"
       y1="636.70697"
       x1="287.5">
      <stop
         id="stop95"
         offset="0.0000000"
         style="stop-color:#464646;stop-opacity:1.0000000;" />
      <stop
         id="stop96"
         offset="1.0000000"
         style="stop-color:#c2c2c2;stop-opacity:1.0000000;" />
    </linearGradient>
    <linearGradient
       xlink:href="#defitem30"
       id="linearGradient3444"
       gradientUnits="userSpaceOnUse"
       gradientTransform="matrix(1,0,0,1.016038,0,-11.73855)"
       x1="287.5"
       y1="636.70697"
       x2="980"
       y2="636.70697" />
    <linearGradient
       gradientUnits="userSpaceOnUse"
       id="defitem27"
       y2="317.44699"
       x2="985.98199"
       y1="403.18799"
       x1="921.091">
      <stop
         id="stop86"
         offset="0.0000000"
         style="stop-color:#7e7e7e;stop-opacity:1.0000000;" />
      <stop
         id="stop87"
         offset="1.0000000"
         style="stop-color:#e5e5e5;stop-opacity:1.0000000;" />
    </linearGradient>
    <linearGradient
       xlink:href="#defitem27"
       id="linearGradient3442"
       gradientUnits="userSpaceOnUse"
       x1="921.091"
       y1="403.18799"
       x2="985.98199"
       y2="317.44699" />
    <linearGradient
       gradientUnits="userSpaceOnUse"
       id="defitem26"
       y2="360.27499"
       x2="293.37"
       y1="346.30399"
       x1="530.76099">
      <stop
         id="stop83"
         offset="0.0000000"
         style="stop-color:#5f5f5f;stop-opacity:1.0000000;" />
      <stop
         id="stop84"
         offset="1.0000000"
         style="stop-color:#e5e5e5;stop-opacity:1.0000000;" />
    </linearGradient>
    <linearGradient
       xlink:href="#defitem26"
       id="linearGradient3440"
       gradientUnits="userSpaceOnUse"
       x1="530.76099"
       y1="346.30399"
       x2="293.37"
       y2="360.27499" />
    <linearGradient
       gradientUnits="userSpaceOnUse"
       id="defitem25"
       y2="337.60999"
       x2="308.75"
       y1="412.91901"
       x1="164.013">
      <stop
         id="stop80"
         offset="0.0000000"
         style="stop-color:#ffffff;stop-opacity:1.0000000;" />
      <stop
         id="stop81"
         offset="1.0000000"
         style="stop-color:#bfbfbf;stop-opacity:1.0000000;" />
    </linearGradient>
    <linearGradient
       xlink:href="#defitem25"
       id="linearGradient3438"
       gradientUnits="userSpaceOnUse"
       x1="164.013"
       y1="412.91901"
       x2="308.75"
       y2="337.60999" />
    <linearGradient
       gradientUnits="userSpaceOnUse"
       id="defitem24"
       y2="380.47198"
       x2="992.48901"
       y1="270.854"
       x1="1094.25">
      <stop
         id="stop77"
         offset="0.0000000"
         style="stop-color:#6a6a6a;stop-opacity:1.0000000;" />
      <stop
         id="stop78"
         offset="1.0000000"
         style="stop-color:#e6e6e6;stop-opacity:1.0000000;" />
    </linearGradient>
    <linearGradient
       xlink:href="#defitem24"
       id="linearGradient3436"
       gradientUnits="userSpaceOnUse"
       x1="1094.25"
       y1="270.854"
       x2="992.48901"
       y2="380.47198" />
    <linearGradient
       gradientUnits="userSpaceOnUse"
       id="defitem23"
       y2="549.37799"
       x2="1049.84"
       y1="476.465"
       x1="1170.91">
      <stop
         id="stop74"
         offset="0.0000000"
         style="stop-color:#5f5f5f;stop-opacity:1.0000000;" />
      <stop
         id="stop75"
         offset="1.0000000"
         style="stop-color:#ebebeb;stop-opacity:1.0000000;" />
    </linearGradient>
    <linearGradient
       xlink:href="#defitem23"
       id="linearGradient3434"
       gradientUnits="userSpaceOnUse"
       x1="1170.91"
       y1="476.465"
       x2="1049.84"
       y2="549.37799" />
    <linearGradient
       gradientUnits="userSpaceOnUse"
       id="defitem22"
       y2="313.276"
       x2="576.14899"
       y1="105.486"
       x1="783.716">
      <stop
         id="stop71"
         offset="0.0000000"
         style="stop-color:#5a5a5a;stop-opacity:1.0000000;" />
      <stop
         id="stop72"
         offset="1.0000000"
         style="stop-color:#c7c7c7;stop-opacity:1.0000000;" />
    </linearGradient>
    <linearGradient
       xlink:href="#defitem22"
       id="linearGradient3432"
       gradientUnits="userSpaceOnUse"
       x1="783.716"
       y1="105.486"
       x2="576.14899"
       y2="313.276" />
    <linearGradient
       gradientUnits="userSpaceOnUse"
       id="defitem21"
       y2="484.716"
       x2="128.05499"
       y1="418.698"
       x1="280.04401">
      <stop
         id="stop68"
         offset="0.0000000"
         style="stop-color:#666666;stop-opacity:1.0000000;" />
      <stop
         id="stop69"
         offset="1.0000000"
         style="stop-color:#d8d8d8;stop-opacity:1.0000000;" />
    </linearGradient>
    <linearGradient
       xlink:href="#defitem21"
       id="linearGradient3430"
       gradientUnits="userSpaceOnUse"
       x1="280.04401"
       y1="418.698"
       x2="128.05499"
       y2="484.716" />
    <linearGradient
       gradientUnits="userSpaceOnUse"
       id="defitem20"
       y2="584.40997"
       x2="220"
       y1="636.95398"
       x1="129.687">
      <stop
         id="stop65"
         offset="0.0000000"
         style="stop-color:#ffffff;stop-opacity:1.0000000;" />
      <stop
         id="stop66"
         offset="1.0000000"
         style="stop-color:#bbbbbb;stop-opacity:1.0000000;" />
    </linearGradient>
    <linearGradient
       xlink:href="#defitem20"
       id="linearGradient3428"
       gradientUnits="userSpaceOnUse"
       x1="129.687"
       y1="636.95398"
       x2="220"
       y2="584.40997" />
    <linearGradient
       gradientUnits="userSpaceOnUse"
       id="defitem19"
       y2="583.75299"
       x2="1127.98"
       y1="629.02802"
       x1="1048.72">
      <stop
         id="stop62"
         offset="0.0000000"
         style="stop-color:#5e5e5e;stop-opacity:1.0000000;" />
      <stop
         id="stop63"
         offset="1.0000000"
         style="stop-color:#ededed;stop-opacity:1.0000000;" />
    </linearGradient>
    <linearGradient
       xlink:href="#defitem19"
       id="linearGradient3426"
       gradientUnits="userSpaceOnUse"
       x1="1048.72"
       y1="629.02802"
       x2="1127.98"
       y2="583.75299" />
    <linearGradient
       gradientUnits="userSpaceOnUse"
       id="defitem18"
       y2="291.97699"
       x2="581.32397"
       y1="387.27301"
       x1="370.022">
      <stop
         id="stop59"
         offset="0.0000000"
         style="stop-color:#636363;stop-opacity:1.0000000;" />
      <stop
         id="stop60"
         offset="1.0000000"
         style="stop-color:#d6d6d6;stop-opacity:1.0000000;" />
    </linearGradient>
    <linearGradient
       xlink:href="#defitem18"
       id="linearGradient3424"
       gradientUnits="userSpaceOnUse"
       x1="370.022"
       y1="387.27301"
       x2="581.32397"
       y2="291.97699" />
    <linearGradient
       gradientUnits="userSpaceOnUse"
       id="defitem17"
       y2="351.939"
       x2="909.59399"
       y1="351.939"
       x1="732.15601">
      <stop
         id="stop56"
         offset="0.0000000"
         style="stop-color:#676767;stop-opacity:1.0000000;" />
      <stop
         id="stop57"
         offset="1.0000000"
         style="stop-color:#d3d3d3;stop-opacity:1.0000000;" />
    </linearGradient>
    <linearGradient
       xlink:href="#defitem17"
       id="linearGradient3422"
       gradientUnits="userSpaceOnUse"
       x1="732.15601"
       y1="351.939"
       x2="909.59399"
       y2="351.939" />
    <linearGradient
       gradientUnits="userSpaceOnUse"
       id="defitem16"
       y2="494.71301"
       x2="1073.01"
       y1="494.71301"
       x1="1014.43">
      <stop
         id="stop53"
         offset="0.0000000"
         style="stop-color:#666666;stop-opacity:1.0000000;" />
      <stop
         id="stop54"
         offset="1.0000000"
         style="stop-color:#dcdcdc;stop-opacity:1.0000000;" />
    </linearGradient>
    <linearGradient
       xlink:href="#defitem16"
       id="linearGradient3420"
       gradientUnits="userSpaceOnUse"
       x1="1014.43"
       y1="494.71301"
       x2="1073.01"
       y2="494.71301" />
    <linearGradient
       gradientUnits="userSpaceOnUse"
       id="defitem15"
       y2="516.37"
       x2="193.27699"
       y1="452.388"
       x1="272.59201">
      <stop
         id="stop50"
         offset="0.0000000"
         style="stop-color:#6e6e6e;stop-opacity:1.0000000;" />
      <stop
         id="stop51"
         offset="1.0000000"
         style="stop-color:#d8d8d8;stop-opacity:1.0000000;" />
    </linearGradient>
    <linearGradient
       xlink:href="#defitem15"
       id="linearGradient3418"
       gradientUnits="userSpaceOnUse"
       x1="272.59201"
       y1="452.388"
       x2="193.27699"
       y2="516.37" />
    <radialGradient
       gradientUnits="userSpaceOnUse"
       id="defitem14"
       fy="211.088"
       fx="1037.22"
       r="1164.28"
       cy="211.088"
       cx="1037.22">
      <stop
         id="stop47"
         offset="0.0000000"
         style="stop-color:#ffffff;stop-opacity:1.0000000;" />
      <stop
         id="stop48"
         offset="1.0000000"
         style="stop-color:#aaaaaa;stop-opacity:1.0000000;" />
    </radialGradient>
    <radialGradient
       xlink:href="#defitem14"
       id="radialGradient3416"
       gradientUnits="userSpaceOnUse"
       cx="1037.22"
       cy="211.088"
       fx="1037.22"
       fy="211.088"
       r="1164.28" />
    <linearGradient
       gradientUnits="userSpaceOnUse"
       id="defitem13"
       y2="686.83002"
       x2="379.241"
       y1="732.12903"
       x1="342.64999">
      <stop
         id="stop44"
         offset="0.0000000"
         style="stop-color:#ffffff;stop-opacity:1.0000000;" />
      <stop
         id="stop45"
         offset="1.0000000"
         style="stop-color:#989898;stop-opacity:1.0000000;" />
    </linearGradient>
    <linearGradient
       xlink:href="#defitem13"
       id="linearGradient3414"
       gradientUnits="userSpaceOnUse"
       x1="342.64999"
       y1="732.12903"
       x2="379.241"
       y2="686.83002" />
    <radialGradient
       gradientUnits="userSpaceOnUse"
       id="defitem12"
       fy="484.409"
       fx="632.78101"
       r="540.27899"
       cy="484.409"
       cx="632.78101">
      <stop
         id="stop41"
         offset="0.0000000"
         style="stop-color:#ffffff;stop-opacity:1.0000000;" />
      <stop
         id="stop42"
         offset="1.0000000"
         style="stop-color:#ededed;stop-opacity:1.0000000;" />
    </radialGradient>
    <radialGradient
       xlink:href="#defitem12"
       id="radialGradient3412"
       gradientUnits="userSpaceOnUse"
       cx="632.78101"
       cy="484.409"
       fx="632.78101"
       fy="484.409"
       r="540.27899" />
    <radialGradient
       xlink:href="#linearGradient3682"
       id="radialGradient3817"
       gradientUnits="userSpaceOnUse"
       gradientTransform="matrix(1.1149219,0.2722306,-0.7507171,3.0745639,-471.08629,-148.32863)"
       cx="270.58316"
       cy="33.899986"
       fx="270.58316"
       fy="33.899986"
       r="19.571428" />
    <linearGradient
       id="linearGradient3682">
      <stop
         style="stop-color:#ff6d0f;stop-opacity:1;"
         offset="0"
         id="stop3684" />
      <stop
         style="stop-color:#ff1000;stop-opacity:1;"
         offset="1"
         id="stop3686" />
    </linearGradient>
    <radialGradient
       xlink:href="#linearGradient3864"
       id="radialGradient3661"
       gradientUnits="userSpaceOnUse"
       gradientTransform="matrix(0.6186598,0.9666542,-1.0332462,0.6612786,-327.27568,-255.84136)"
       cx="282.64584"
       cy="29.149046"
       fx="282.64584"
       fy="29.149046"
       r="19.571428" />
    <linearGradient
       id="linearGradient3864">
      <stop
         id="stop3866"
         offset="0"
         style="stop-color:#71b2f8;stop-opacity:1;" />
      <stop
         id="stop3868"
         offset="1"
         style="stop-color:#002795;stop-opacity:1;" />
    </linearGradient>
  </defs>
  <g
     id="g4403"
     transform="matrix(0.98615982,0,0,0.98546217,0,57.810581)">
    <path
       style="color:#000000;fill:#c8c8c8;fill-opacity:1;stroke:#000000;stroke-width:1;stroke-dasharray:none;stroke-opacity:1"
       d="m 0.5,0.5 h 11.34765 28.19528 41.25775 14.33203 29.20698 74.80462 29.20698 14.33203 41.25775 28.19528 11.34765 V 94.886595 H 312.63635 284.44107 243.18332 228.85129 199.64431 124.83969 95.63271 81.30068 40.04293 11.84765 0.5 Z"
       id="path4022" />
    <g
       id="g4013"
       transform="matrix(1.9999977,0,0,1.9999977,-194.72495,-75.329968)"
       style="stroke-width:0.500001;stroke-dasharray:none">
      <g
         id="g3997"
         transform="translate(-7.881758,-57.714809)"
         style="stroke-width:0.500001;stroke-dasharray:none">
        <path
           id="7"
           d="m 247.46544,119.05452 v 0.3777"
           style="fill:none;stroke:#000000;stroke-width:0.500001;stroke-linecap:butt;stroke-linejoin:miter;stroke-dasharray:none" />
        <path
           id="10"
           d="m 125.26544,119.05452 v 0.3777"
           style="fill:none;stroke:#000000;stroke-width:0.500001;stroke-linecap:butt;stroke-linejoin:miter;stroke-dasharray:none" />
      </g>
      <g
         id="g3993"
         transform="translate(-7.881758,-57.731664)"
         style="stroke-width:0.500001;stroke-dasharray:none">
        <path
           d="m 260.34894,105.96512 -1.721,0.8666 -1.604,0.88155 -1.485,0.89535 -1.364,0.90815 -1.2415,0.9198 -1.118,0.9304 -0.992,0.9398 -0.866,0.9482 -0.7385,0.95535 -0.61,0.96138 -0.4805,0.96627 -0.3515,0.97001 -0.221,0.97257 -0.0905,0.97397"
           id="path825"
           style="fill:none;stroke:#000000;stroke-width:0.500001;stroke-linecap:butt;stroke-linejoin:miter;stroke-dasharray:none" />
        <path
           d="m 247.46544,119.43222 0.0905,0.97397 0.221,0.97257 0.3515,0.97001 0.4805,0.96627 0.61,0.96138 0.7385,0.95535 0.866,0.9482 0.992,0.9398 1.118,0.9304 1.2415,0.9198 1.364,0.90815 1.485,0.89535 1.604,0.88155 1.721,0.8666"
           id="path827"
           style="fill:none;stroke:#000000;stroke-width:0.500001;stroke-linecap:butt;stroke-linejoin:miter;stroke-dasharray:none" />
        <path
           id="14"
           d="m 260.34894,105.96512 v 26.5565"
           style="fill:none;stroke:#000000;stroke-width:0.500001;stroke-linecap:butt;stroke-linejoin:miter;stroke-dasharray:none" />
        <path
           d="m 261.56194,95.47147 -0.1075,0.56905 -0.105,0.6005 -0.1015,0.63115 -0.099,0.66095 -0.096,0.6898 -0.0925,0.7178 -0.0895,0.74475 -0.086,0.7707 -0.082,0.79565 -0.079,0.8195 -0.0745,0.84225 -0.071,0.8638 -0.067,0.88425 -0.0625,0.9035"
           id="path835"
           style="fill:none;stroke:#000000;stroke-width:0.500001;stroke-linecap:butt;stroke-linejoin:miter;stroke-dasharray:none" />
        <path
           d="m 260.34894,132.52162 0.0625,0.9035 0.067,0.88425 0.071,0.8638 0.0745,0.84225 0.079,0.8195 0.082,0.79565 0.086,0.7707 0.0895,0.74475 0.0925,0.7178 0.096,0.6898 0.099,0.66095 0.1015,0.63115 0.105,0.6005 0.1075,0.56905"
           id="path837"
           style="fill:none;stroke:#000000;stroke-width:0.500001;stroke-linecap:butt;stroke-linejoin:miter;stroke-dasharray:none" />
        <path
           d="m 111.16894,143.01527 0.1075,-0.56905 0.105,-0.6005 0.1015,-0.63115 0.099,-0.66095 0.096,-0.6898 0.0925,-0.7178 0.0895,-0.74475 0.086,-0.7707 0.082,-0.79565 0.079,-0.8195 0.0745,-0.84225 0.071,-0.8638 0.067,-0.88425 0.0625,-0.9035"
           id="path841"
           style="fill:none;stroke:#000000;stroke-width:0.500001;stroke-linecap:butt;stroke-linejoin:miter;stroke-dasharray:none" />
        <path
           id="25"
           d="m 112.38194,105.96512 v 26.5565"
           style="fill:none;stroke:#000000;stroke-width:0.500001;stroke-linecap:butt;stroke-linejoin:miter;stroke-dasharray:none" />
        <path
           d="m 112.38194,105.96512 -0.0625,-0.9035 -0.067,-0.88425 -0.071,-0.8638 -0.0745,-0.84225 -0.079,-0.8195 -0.082,-0.79565 -0.086,-0.7707 -0.0895,-0.74475 -0.0925,-0.7178 -0.096,-0.6898 -0.099,-0.66095 -0.1015,-0.63115 -0.105,-0.6005 -0.1075,-0.56905"
           id="path844"
           style="fill:none;stroke:#000000;stroke-width:0.500001;stroke-linecap:butt;stroke-linejoin:miter;stroke-dasharray:none" />
        <path
           d="m 125.26544,119.05452 -0.0905,-0.97397 -0.221,-0.97257 -0.3515,-0.97001 -0.4805,-0.96627 -0.61,-0.96138 -0.7385,-0.95535 -0.866,-0.9482 -0.992,-0.9398 -1.118,-0.9304 -1.2415,-0.9198 -1.364,-0.90815 -1.485,-0.89535 -1.604,-0.88155 -1.721,-0.8666"
           id="path847"
           style="fill:none;stroke:#000000;stroke-width:0.500001;stroke-linecap:butt;stroke-linejoin:miter;stroke-dasharray:none" />
        <path
           d="m 112.38194,132.52162 1.721,-0.8666 1.604,-0.88155 1.485,-0.89535 1.364,-0.90815 1.2415,-0.9198 1.118,-0.9304 0.992,-0.9398 0.866,-0.9482 0.7385,-0.95535 0.61,-0.96138 0.4805,-0.96627 0.3515,-0.97001 0.221,-0.97257 0.0905,-0.97397"
           id="path849"
           style="fill:none;stroke:#000000;stroke-width:0.500001;stroke-linecap:butt;stroke-linejoin:miter;stroke-dasharray:none" />
      </g>
    </g>
  </g>
  <path
     style="color:#000000;fill:#c8c8c8;fill-opacity:1;stroke:#000000;stroke-width:0.976752;stroke-opacity:1;-inkscape-stroke:none"
     d="m 138.1111,3.348083 c 21.76623,0.142213 43.61888,-0.889328 65.24866,2.356628 15.33494,1.934759 30.56028,4.850316 45.57008,8.714307 3.65797,7.7935 7.31576,15.58709 10.97428,23.380293 3.00455,0.960627 8.40282,1.577605 12.37591,2.369877 0.45607,15.841734 0.0651,32.449914 0.19543,48.586375 0,26.863857 0,53.727717 0,80.591587 -4.07492,0.70817 -8.14927,1.41996 -12.22385,2.13032 -1.70878,2.6813 -3.81329,7.86196 -5.65819,11.58536 -1.88786,4.02221 -3.77572,8.04442 -5.66358,12.06663 -30.05301,7.6369 -60.96967,11.99129 -91.90133,11.07093 -28.39519,0.81676 -56.76612,-3.00303 -84.460097,-9.52339 -3.900954,-8.30923 -7.802131,-16.61833 -11.702571,-24.92783 -3.001357,-0.95956 -8.402992,-1.57853 -12.376104,-2.36887 -1.994051,-2.07665 -0.290569,-7.49988 -0.85701,-10.86864 0,-39.39806 0,-78.796113 0,-118.194175 4.295331,-0.747912 8.590414,-1.497443 12.885573,-2.246471 1.70705,-2.678023 3.813645,-7.862258 5.658255,-11.585363 C 68.30656,21.947597 70.436563,17.409543 72.566567,12.87149 94.107658,7.719627 116.06177,4.533109 138.1111,3.348083 Z"
     id="path11898" />
  <path
     d="m 146.78884,92.196711 a 72.5,72.5 0 0 1 26.2885,25.349999"
     id="path1321"
     style="fill:none;stroke:#000000;stroke-width:0.7;stroke-linecap:butt;stroke-linejoin:miter" />
  <path
     d="m 146.91575,117.54671 a 72.5,72.5 0 0 1 26.2885,-25.349999"
     id="path1403"
     style="fill:none;stroke:#000000;stroke-width:0.7;stroke-linecap:butt;stroke-linejoin:miter" />
  <ellipse
     style="fill:#c8c8c8;stroke:#000000;stroke-width:1;stroke-dasharray:none"
     id="path9158"
     cx="159.99654"
     cy="104.81052"
     rx="72.174522"
     ry="72.683022" />
</svg>
