<?xml version="1.0" encoding="UTF-8" standalone="no"?>
<svg
   version="1.2"
   width="234.99997mm"
   height="158.00003mm"
   viewBox="0 0 234.99997 158.00004"
   preserveAspectRatio="xMidYMid"
   fill-rule="evenodd"
   stroke-width="28.222"
   stroke-linejoin="round"
   xml:space="preserve"
   id="svg547"
   sodipodi:docname="thumbnail.svg"
   inkscape:version="1.2.1 (9c6d41e410, 2022-07-14)"
   xmlns:inkscape="http://www.inkscape.org/namespaces/inkscape"
   xmlns:sodipodi="http://sodipodi.sourceforge.net/DTD/sodipodi-0.dtd"
   xmlns="http://www.w3.org/2000/svg"
   xmlns:svg="http://www.w3.org/2000/svg"><defs
   id="defs551" /><sodipodi:namedview
   id="namedview549"
   pagecolor="#ffffff"
   bordercolor="#000000"
   borderopacity="0.25"
   inkscape:showpageshadow="2"
   inkscape:pageopacity="0.0"
   inkscape:pagecheckerboard="0"
   inkscape:deskcolor="#d1d1d1"
   inkscape:document-units="mm"
   showgrid="false"
   inkscape:zoom="0.64"
   inkscape:cx="367.96875"
   inkscape:cy="452.34375"
   inkscape:window-width="1920"
   inkscape:window-height="1013"
   inkscape:window-x="-9"
   inkscape:window-y="135"
   inkscape:window-maximized="1"
   inkscape:current-layer="svg547" />
 <g
   visibility="visible"
   id="Slide_1"
   transform="matrix(0.01449478,0,0,0.01432717,-27.799896,-29.392189)">
  <g
   id="g521">
   <path
   fill="#c8c8c8"
   stroke="none"
   d="m 3040,12437 c -163,-461 -355,-1474 -529,-2208 -100,-65 -236,-89 -292,-191 -346,-2277 -304,-3563 0,-4783 39,-312 299,-199 378,-417 236,-655 235,-1838 482,-2164 178,-235 589,-196 1023,-206 142,36 100,122 169,196 3965,-241 7651,-11 11477,-16 51,-66 30,-166 153,-197 369,-92 897,88 1020,132 318,448 383,1559 574,2338 104,81 172,73 312,243 537,2340 176,3767 -13,4887 -118,81 -123,83 -219,118 -195,808 -365,1743 -634,2416 -154,57 -785,111 -1025,121 -107,-41 -122,-237 -122,-237 -4603,187 -7604,113 -11505,-23 -38,92 -60,135 -133,213 -386,0 -1049,-35 -1116,-222 z"
   id="path518" />
   <path
   fill="none"
   stroke="#000000"
   id="Drawing_1_0"
   stroke-width="35"
   stroke-linejoin="round"
   d="m 3040,12437 c -163,-461 -355,-1474 -529,-2208 -100,-65 -236,-89 -292,-191 -346,-2277 -304,-3563 0,-4783 39,-312 299,-199 378,-417 236,-655 235,-1838 482,-2164 178,-235 589,-196 1023,-206 142,36 100,122 169,196 3965,-241 7651,-11 11477,-16 51,-66 30,-166 153,-197 369,-92 897,88 1020,132 318,448 383,1559 574,2338 104,81 172,73 312,243 537,2340 176,3767 -13,4887 -118,81 -123,83 -219,118 -195,808 -365,1743 -634,2416 -154,57 -785,111 -1025,121 -107,-41 -122,-237 -122,-237 -4603,187 -7604,113 -11505,-23 -38,92 -60,135 -133,213 -386,0 -1049,-35 -1116,-222 z" />
  </g>
  <g
   id="g526">
   <path
   fill="#c8c8c8"
   stroke="none"
   d="m 2575,10541 c -33,-128 -75,-150 -137,-283 -83,-79 -228,-15 -253,-325 -236,-1279 -430,-3106 30,-4820 6,-117 186,-124 273,-186 37,-133 33,-388 203,-394 5146,-79 10431,-49 14718,11 118,78 87,47 169,391 84,76 238,30 251,228 559,2360 149,3950 -13,4807 -4,217 -167,145 -211,214 -129,201 -71,276 -186,357 -4305,2 -9751,125 -14844,0 z"
   id="path523" />
   <path
   fill="none"
   stroke="#000000"
   id="Drawing_2_0"
   stroke-width="35"
   stroke-linejoin="round"
   d="m 2575,10541 c -33,-128 -75,-150 -137,-283 -83,-79 -228,-15 -253,-325 -236,-1279 -430,-3106 30,-4820 6,-117 186,-124 273,-186 37,-133 33,-388 203,-394 5146,-79 10431,-49 14718,11 118,78 87,47 169,391 84,76 238,30 251,228 559,2360 149,3950 -13,4807 -4,217 -167,145 -211,214 -129,201 -71,276 -186,357 -4305,2 -9751,125 -14844,0 z" />
  </g>
  <g
   id="DrawingGroup_1">
   <g
   id="g531">
    <path
   fill="#c8c8c8"
   stroke="none"
   d="m 10032,13062 c -1008,0 -1866,-230 -2739,-736 -873,-506 -1501,-1136 -2005,-2012 -504,-877 -734,-1737 -734,-2748 0,-1012 230,-1872 734,-2749 504,-876 1132,-1506 2005,-2012 873,-506 1731,-736 2739,-736 1008,0 1866,230 2739,736 873,506 1501,1136 2005,2012 504,877 734,1737 734,2748 0,1012 -230,1872 -734,2749 -504,876 -1132,1506 -2005,2012 -873,506 -1731,736 -2739,736 z"
   id="path528" />
    <path
   fill="none"
   stroke="#000000"
   id="Drawing_3_0"
   stroke-width="35"
   stroke-linejoin="round"
   d="m 10032,13062 c -1008,0 -1866,-230 -2739,-736 -873,-506 -1501,-1136 -2005,-2012 -504,-877 -734,-1737 -734,-2748 0,-1012 230,-1872 734,-2749 504,-876 1132,-1506 2005,-2012 873,-506 1731,-736 2739,-736 1008,0 1866,230 2739,736 873,506 1501,1136 2005,2012 504,877 734,1737 734,2748 0,1012 -230,1872 -734,2749 -504,876 -1132,1506 -2005,2012 -873,506 -1731,736 -2739,736 z" />
   </g>
   <g
   id="g534">
    <path
   fill="none"
   stroke="#000000"
   id="Drawing_4_0"
   stroke-width="35"
   stroke-linejoin="round"
   d="m 10011,12334 c -878,0 -1624,-201 -2384,-641 -760,-440 -1306,-988 -1745,-1751 -439,-763 -639,-1511 -639,-2392 0,-881 200,-1629 639,-2392 439,-763 985,-1311 1745,-1751 760,-440 1506,-641 2383,-641 878,0 1624,201 2384,641 760,440 1306,988 1745,1751 439,763 639,1511 639,2392 0,881 -200,1629 -639,2392 -439,763 -985,1311 -1745,1751 -760,440 -1506,641 -2383,641 z" />
   </g>
   <g
   id="g537">
    <path
   fill="none"
   stroke="#00ccff"
   id="Drawing_5_0"
   stroke-width="35"
   stroke-linejoin="round"
   d="m 8335,8714 c -210,0 -388,-48 -570,-153 -181,-105 -312,-236 -416,-418 -105,-182 -153,-361 -153,-571 0,-211 48,-390 153,-572 104,-182 235,-313 416,-418 182,-105 360,-153 570,-153 209,0 387,48 569,153 181,105 312,236 416,418 105,182 153,361 153,571 0,211 -48,390 -153,572 -104,182 -235,313 -416,418 -182,105 -360,153 -569,153 z" />
   </g>
   <g
   id="g543">
    <path
   fill="#000000"
   stroke="none"
   d="m 7480,11627 c -23,-53 -42,-106 -57,-160 -25,-96 -37,-194 -37,-301 0,-107 12,-206 37,-301 26,-95 64,-187 118,-279 53,-93 113,-172 182,-242 69,-69 149,-129 241,-183 92,-53 183,-92 278,-117 95,-26 193,-38 300,-38 106,0 205,12 299,38 95,25 187,64 279,117 92,54 171,114 241,183 69,70 129,149 182,242 53,92 92,184 117,279 26,95 38,194 38,301 0,107 -12,205 -38,301 -25,95 -64,186 -117,279 -53,92 -113,172 -182,241 -70,70 -149,130 -241,184 -51,29 -101,54 -152,74 -20,-4 -41,-9 -61,-14 66,-23 130,-53 195,-91 90,-52 166,-110 234,-177 67,-68 125,-145 177,-235 51,-89 89,-178 113,-270 25,-93 37,-189 37,-292 0,-104 -12,-199 -37,-292 -24,-92 -62,-181 -113,-271 -52,-89 -110,-166 -177,-234 -68,-68 -144,-126 -234,-177 -89,-52 -178,-90 -270,-115 -92,-24 -187,-36 -290,-36 -103,0 -199,12 -291,36 -92,25 -180,63 -270,115 -89,51 -166,109 -233,177 -68,68 -125,145 -177,234 -52,90 -89,179 -114,271 -24,93 -36,188 -36,292 0,103 12,199 36,292 19,68 44,135 77,202 -18,-11 -36,-22 -54,-33 z M 5912,10029 c 75,40 151,71 228,91 92,25 188,37 291,37 103,0 198,-12 290,-37 92,-24 181,-62 270,-114 90,-52 166,-110 234,-177 67,-68 125,-145 177,-235 51,-89 89,-178 113,-270 25,-93 37,-189 37,-292 0,-104 -12,-199 -37,-292 -24,-92 -62,-181 -113,-271 -52,-89 -110,-166 -177,-234 -68,-68 -144,-126 -234,-177 -89,-52 -178,-90 -270,-115 -92,-24 -187,-36 -290,-36 -103,0 -199,12 -291,36 -92,25 -180,63 -270,115 -89,51 -166,109 -233,177 -68,68 -125,145 -177,234 -44,78 -79,154 -103,233 -5,-21 -10,-43 -15,-64 23,-63 52,-124 88,-186 53,-93 113,-172 182,-242 69,-69 149,-129 241,-183 92,-53 183,-92 278,-117 95,-26 193,-38 300,-38 106,0 205,12 299,38 95,25 187,64 279,117 92,54 171,114 241,183 69,70 129,149 182,242 53,92 92,184 117,279 26,95 38,194 38,301 0,107 -12,205 -38,301 -25,95 -64,186 -117,279 -53,92 -113,172 -182,241 -70,70 -149,130 -241,184 -92,53 -184,92 -279,117 -94,26 -193,38 -299,38 -107,0 -205,-12 -300,-38 -63,-17 -124,-39 -185,-68 -11,-19 -23,-38 -34,-57 z M 5359,6394 c 25,88 61,174 111,260 52,90 109,167 177,235 67,67 144,125 233,177 90,52 178,90 270,114 92,25 188,37 291,37 103,0 198,-12 290,-37 92,-24 181,-62 270,-114 90,-52 166,-110 234,-177 67,-68 125,-145 177,-235 51,-89 89,-178 113,-270 25,-93 37,-189 37,-292 0,-104 -12,-199 -37,-292 -24,-92 -62,-181 -113,-271 -52,-89 -110,-166 -177,-234 -68,-68 -144,-126 -234,-177 -89,-52 -178,-90 -270,-115 -92,-24 -187,-36 -290,-36 -103,0 -199,12 -291,36 -89,24 -175,60 -261,110 11,-20 23,-40 35,-59 71,-37 143,-64 217,-84 95,-26 193,-38 300,-38 106,0 205,12 299,38 95,25 187,64 279,117 92,54 171,114 241,183 69,70 129,149 182,242 53,92 92,184 117,279 26,95 38,194 38,301 0,107 -12,205 -38,301 -25,95 -64,186 -117,279 -53,92 -113,172 -182,241 -70,70 -149,130 -241,184 -92,53 -184,92 -279,117 -94,26 -193,38 -299,38 -107,0 -205,-12 -300,-38 -95,-25 -186,-64 -278,-117 -92,-54 -172,-114 -241,-184 -69,-69 -129,-149 -182,-241 -41,-70 -73,-140 -97,-211 5,-23 10,-45 16,-67 z M 7605,3401 c -8,13 -15,25 -23,38 -52,90 -89,179 -114,271 -24,93 -36,188 -36,292 0,103 12,199 36,292 25,92 62,181 114,270 52,90 109,167 177,235 67,67 144,125 233,177 90,52 178,90 270,114 92,25 188,37 291,37 103,0 198,-12 290,-37 92,-24 181,-62 270,-114 90,-52 166,-110 234,-177 67,-68 125,-145 177,-235 51,-89 89,-178 113,-270 25,-93 37,-189 37,-292 0,-104 -12,-199 -37,-292 -24,-92 -62,-181 -113,-271 -52,-89 -110,-166 -177,-234 -68,-68 -144,-126 -234,-177 -89,-52 -178,-90 -270,-115 -17,-4 -35,-9 -53,-12 24,-7 48,-13 72,-19 91,26 180,64 269,115 92,54 171,114 241,183 69,70 129,149 182,242 53,92 92,184 117,279 26,95 38,194 38,301 0,107 -12,205 -38,301 -25,95 -64,186 -117,279 -53,92 -113,172 -182,241 -70,70 -149,130 -241,184 -92,53 -184,92 -279,117 -94,26 -193,38 -299,38 -107,0 -205,-12 -300,-38 -95,-25 -186,-64 -278,-117 -92,-54 -172,-114 -241,-184 -69,-69 -129,-149 -182,-241 -54,-93 -92,-184 -118,-279 -25,-96 -37,-194 -37,-301 0,-107 12,-206 37,-301 24,-90 60,-176 109,-263 20,-13 41,-25 62,-37 z m 3621,-502 c -4,1 -9,2 -13,3 -92,25 -180,63 -270,115 -89,51 -166,109 -233,177 -68,68 -125,145 -177,234 -52,90 -89,179 -114,271 -24,93 -36,188 -36,292 0,103 12,199 36,292 25,92 62,181 114,270 52,90 109,167 177,235 67,67 144,125 233,177 90,52 178,90 270,114 92,25 188,37 291,37 103,0 198,-12 290,-37 92,-24 181,-62 270,-114 90,-52 166,-110 234,-177 67,-68 125,-145 177,-235 51,-89 89,-178 113,-270 25,-93 37,-189 37,-292 0,-104 -12,-199 -37,-292 -23,-89 -59,-174 -108,-260 20,12 40,24 59,36 36,71 64,142 83,215 26,95 38,194 38,301 0,107 -12,205 -38,301 -25,95 -64,186 -117,279 -53,92 -113,172 -182,241 -70,70 -149,130 -241,184 -92,53 -184,92 -279,117 -94,26 -193,38 -299,38 -107,0 -205,-12 -300,-38 -95,-25 -186,-64 -278,-117 -92,-54 -172,-114 -241,-184 -69,-69 -129,-149 -182,-241 -54,-93 -92,-184 -118,-279 -25,-96 -37,-194 -37,-301 0,-107 12,-206 37,-301 26,-95 64,-187 118,-279 53,-93 113,-172 182,-242 69,-69 149,-129 241,-183 77,-44 154,-79 232,-104 23,6 45,11 68,17 z m 2877,2164 c -61,-30 -122,-53 -186,-70 -92,-24 -187,-36 -290,-36 -103,0 -199,12 -291,36 -92,25 -180,63 -270,115 -89,51 -166,109 -233,177 -68,68 -125,145 -177,234 -52,90 -89,179 -114,271 -24,93 -36,188 -36,292 0,103 12,199 36,292 25,92 62,181 114,270 52,90 109,167 177,235 67,67 144,125 233,177 90,52 178,90 270,114 92,25 188,37 291,37 103,0 198,-12 290,-37 92,-24 181,-62 270,-114 90,-52 166,-110 234,-177 67,-68 125,-145 177,-235 33,-58 61,-116 83,-174 4,20 9,40 13,61 -19,43 -41,87 -66,131 -53,92 -113,172 -182,241 -70,70 -149,130 -241,184 -92,53 -184,92 -279,117 -94,26 -193,38 -299,38 -107,0 -205,-12 -300,-38 -95,-25 -186,-64 -278,-117 -92,-54 -172,-114 -241,-184 -69,-69 -129,-149 -182,-241 -54,-93 -92,-184 -118,-279 -25,-96 -37,-194 -37,-301 0,-107 12,-206 37,-301 26,-95 64,-187 118,-279 53,-93 113,-172 182,-242 69,-69 149,-129 241,-183 92,-53 183,-92 278,-117 95,-26 193,-38 300,-38 106,0 205,12 299,38 49,13 97,29 145,50 11,17 22,35 32,53 z m 581,3555 c -18,-43 -39,-85 -63,-127 -52,-89 -110,-166 -177,-234 -68,-68 -144,-126 -234,-177 -89,-52 -178,-90 -270,-115 -92,-24 -187,-36 -290,-36 -103,0 -199,12 -291,36 -92,25 -180,63 -270,115 -89,51 -166,109 -233,177 -68,68 -125,145 -177,234 -52,90 -89,179 -114,271 -24,93 -36,188 -36,292 0,103 12,199 36,292 25,92 62,181 114,270 52,90 109,167 177,235 67,67 144,125 233,177 90,52 178,90 270,114 92,25 188,37 291,37 103,0 198,-12 290,-37 43,-11 85,-25 127,-43 -10,17 -20,33 -31,50 -28,10 -57,19 -87,27 -94,26 -193,38 -299,38 -107,0 -205,-12 -300,-38 -95,-25 -186,-64 -278,-117 -92,-54 -172,-114 -241,-184 -69,-69 -129,-149 -182,-241 -54,-93 -92,-184 -118,-279 -25,-96 -37,-194 -37,-301 0,-107 12,-206 37,-301 26,-95 64,-187 118,-279 53,-93 113,-172 182,-242 69,-69 149,-129 241,-183 92,-53 183,-92 278,-117 95,-26 193,-38 300,-38 106,0 205,12 299,38 95,25 187,64 279,117 92,54 171,114 241,183 69,70 129,149 182,242 16,29 32,57 45,86 -4,19 -8,39 -12,58 z m -2146,3011 c 31,-64 55,-128 72,-193 25,-93 37,-189 37,-292 0,-104 -12,-199 -37,-292 -24,-92 -62,-181 -113,-271 -52,-89 -110,-166 -177,-234 -68,-68 -144,-126 -234,-177 -89,-52 -178,-90 -270,-115 -92,-24 -187,-36 -290,-36 -103,0 -199,12 -291,36 -92,25 -180,63 -270,115 -89,51 -166,109 -233,177 -68,68 -125,145 -177,234 -52,90 -89,179 -114,271 -24,93 -36,188 -36,292 0,103 12,199 36,292 25,92 62,181 114,270 52,90 109,167 177,235 67,67 144,125 233,177 71,41 142,74 214,98 -20,5 -41,10 -61,15 -57,-22 -114,-50 -170,-82 -92,-54 -172,-114 -241,-184 -69,-69 -129,-149 -182,-241 -54,-93 -92,-184 -118,-279 -25,-96 -37,-194 -37,-301 0,-107 12,-206 37,-301 26,-95 64,-187 118,-279 53,-93 113,-172 182,-242 69,-69 149,-129 241,-183 92,-53 183,-92 278,-117 95,-26 193,-38 300,-38 106,0 205,12 299,38 95,25 187,64 279,117 92,54 171,114 241,183 69,70 129,149 182,242 53,92 92,184 117,279 26,95 38,194 38,301 0,107 -12,205 -38,301 -13,51 -31,101 -52,151 -18,11 -36,22 -54,33 z M 9723,6986 c -95,-25 -186,-64 -278,-117 -92,-54 -172,-114 -241,-184 -69,-69 -129,-149 -182,-241 -54,-93 -92,-184 -118,-279 -25,-96 -37,-194 -37,-301 0,-107 12,-206 37,-301 26,-95 64,-187 118,-279 53,-93 113,-172 182,-242 69,-69 149,-129 241,-183 92,-53 183,-92 278,-117 95,-26 193,-38 300,-38 106,0 205,12 299,38 95,25 187,64 279,117 92,54 171,114 241,183 69,70 129,149 182,242 53,92 92,184 117,279 26,95 38,194 38,301 0,107 -12,205 -38,301 -25,95 -64,186 -117,279 -53,92 -113,172 -182,241 -70,70 -149,130 -241,184 -92,53 -184,92 -279,117 -94,26 -193,38 -299,38 -107,0 -205,-12 -300,-38 z m 9,-2211 c -92,25 -180,63 -270,115 -89,51 -166,109 -233,177 -68,68 -125,145 -177,234 -52,90 -89,179 -114,271 -24,93 -36,188 -36,292 0,103 12,199 36,292 25,92 62,181 114,270 52,90 109,167 177,235 67,67 144,125 233,177 90,52 178,90 270,114 92,25 188,37 291,37 103,0 198,-12 290,-37 92,-24 181,-62 270,-114 90,-52 166,-110 234,-177 67,-68 125,-145 177,-235 51,-89 89,-178 113,-270 25,-93 37,-189 37,-292 0,-104 -12,-199 -37,-292 -24,-92 -62,-181 -113,-271 -52,-89 -110,-166 -177,-234 -68,-68 -144,-126 -234,-177 -89,-52 -178,-90 -270,-115 -92,-24 -187,-36 -290,-36 -103,0 -199,12 -291,36 z m 1690,3920 c -95,-25 -186,-64 -278,-117 -92,-54 -172,-114 -241,-184 -69,-69 -129,-149 -182,-241 -54,-93 -92,-184 -118,-279 -25,-96 -37,-194 -37,-301 0,-107 12,-206 37,-301 26,-95 64,-187 118,-279 53,-93 113,-172 182,-242 69,-69 149,-129 241,-183 92,-53 183,-92 278,-117 95,-26 193,-38 300,-38 106,0 205,12 299,38 95,25 187,64 279,117 92,54 171,114 241,183 69,70 129,149 182,242 53,92 92,184 117,279 26,95 38,194 38,301 0,107 -12,205 -38,301 -25,95 -64,186 -117,279 -53,92 -113,172 -182,241 -70,70 -149,130 -241,184 -92,53 -184,92 -279,117 -94,26 -193,38 -299,38 -107,0 -205,-12 -300,-38 z m 9,-2211 c -92,25 -180,63 -270,115 -89,51 -166,109 -233,177 -68,68 -125,145 -177,234 -52,90 -89,179 -114,271 -24,93 -36,188 -36,292 0,103 12,199 36,292 25,92 62,181 114,270 52,90 109,167 177,235 67,67 144,125 233,177 90,52 178,90 270,114 92,25 188,37 291,37 103,0 198,-12 290,-37 92,-24 181,-62 270,-114 90,-52 166,-110 234,-177 67,-68 125,-145 177,-235 51,-89 89,-178 113,-270 25,-93 37,-189 37,-292 0,-104 -12,-199 -37,-292 -24,-92 -62,-181 -113,-271 -52,-89 -110,-166 -177,-234 -68,-68 -144,-126 -234,-177 -89,-52 -178,-90 -270,-115 -92,-24 -187,-36 -290,-36 -103,0 -199,12 -291,36 z m -1696,3921 c -95,-25 -186,-64 -278,-117 -92,-54 -172,-114 -241,-184 -69,-69 -129,-149 -182,-241 -54,-93 -92,-184 -118,-279 -25,-96 -37,-194 -37,-301 0,-107 12,-206 37,-301 26,-95 64,-187 118,-279 53,-93 113,-172 182,-242 69,-69 149,-129 241,-183 92,-53 183,-92 278,-117 95,-26 193,-38 300,-38 106,0 205,12 299,38 95,25 187,64 279,117 92,54 171,114 241,183 69,70 129,149 182,242 53,92 92,184 117,279 26,95 38,194 38,301 0,107 -12,205 -38,301 -25,95 -64,186 -117,279 -53,92 -113,172 -182,241 -70,70 -149,130 -241,184 -92,53 -184,92 -279,117 -94,26 -193,38 -299,38 -107,0 -205,-12 -300,-38 z m 9,-2211 c -92,25 -180,63 -270,115 -89,51 -166,109 -233,177 -68,68 -125,145 -177,234 -52,90 -89,179 -114,271 -24,93 -36,188 -36,292 0,103 12,199 36,292 25,92 62,181 114,270 52,90 109,167 177,235 67,67 144,125 233,177 90,52 178,90 270,114 92,25 188,37 291,37 103,0 198,-12 290,-37 92,-24 181,-62 270,-114 90,-52 166,-110 234,-177 67,-68 125,-145 177,-235 51,-89 89,-178 113,-270 25,-93 37,-189 37,-292 0,-104 -12,-199 -37,-292 -24,-92 -62,-181 -113,-271 -52,-89 -110,-166 -177,-234 -68,-68 -144,-126 -234,-177 -89,-52 -178,-90 -270,-115 -92,-24 -187,-36 -290,-36 -103,0 -199,12 -291,36 z m -1708,501 c -95,-25 -186,-64 -278,-117 -92,-54 -172,-114 -241,-184 -69,-69 -129,-149 -182,-241 -54,-93 -92,-184 -118,-279 -25,-96 -37,-194 -37,-301 0,-107 12,-206 37,-301 26,-95 64,-187 118,-279 53,-93 113,-172 182,-242 69,-69 149,-129 241,-183 92,-53 183,-92 278,-117 95,-26 193,-38 300,-38 106,0 205,12 299,38 95,25 187,64 279,117 92,54 171,114 241,183 69,70 129,149 182,242 53,92 92,184 117,279 26,95 38,194 38,301 0,107 -12,205 -38,301 -25,95 -64,186 -117,279 -53,92 -113,172 -182,241 -70,70 -149,130 -241,184 -92,53 -184,92 -279,117 -94,26 -193,38 -299,38 -107,0 -205,-12 -300,-38 z m 9,-2211 c -92,25 -180,63 -270,115 -89,51 -166,109 -233,177 -68,68 -125,145 -177,234 -52,90 -89,179 -114,271 -24,93 -36,188 -36,292 0,103 12,199 36,292 25,92 62,181 114,270 52,90 109,167 177,235 67,67 144,125 233,177 90,52 178,90 270,114 92,25 188,37 291,37 103,0 198,-12 290,-37 92,-24 181,-62 270,-114 90,-52 166,-110 234,-177 67,-68 125,-145 177,-235 51,-89 89,-178 113,-270 25,-93 37,-189 37,-292 0,-104 -12,-199 -37,-292 -24,-92 -62,-181 -113,-271 -52,-89 -110,-166 -177,-234 -68,-68 -144,-126 -234,-177 -89,-52 -178,-90 -270,-115 -92,-24 -187,-36 -290,-36 -103,0 -199,12 -291,36 z"
   id="path539" />
    <rect
   fill="none"
   stroke="none"
   x="5342"
   y="2881"
   width="9355"
   height="9365"
   id="rect541" />
   </g>
  </g>
 </g>
</svg>
