<?xml version="1.0" encoding="UTF-8" standalone="no"?>
<svg
   width="469.62341mm"
   height="321.0177mm"
   viewBox="0 0 469.62341 321.0177"
   version="1.1"
   id="svg2"
   sodipodi:version="0.32"
   inkscape:version="1.2.1 (9c6d41e410, 2022-07-14)"
   sodipodi:docname="thumbnail.svg"
   inkscape:output_extension="org.inkscape.output.svg.inkscape"
   xmlns:inkscape="http://www.inkscape.org/namespaces/inkscape"
   xmlns:sodipodi="http://sodipodi.sourceforge.net/DTD/sodipodi-0.dtd"
   xmlns:xlink="http://www.w3.org/1999/xlink"
   xmlns="http://www.w3.org/2000/svg"
   xmlns:svg="http://www.w3.org/2000/svg"
   xmlns:rdf="http://www.w3.org/1999/02/22-rdf-syntax-ns#"
   xmlns:cc="http://creativecommons.org/ns#"
   xmlns:dc="http://purl.org/dc/elements/1.1/">
  <!-- Working space 10 10 410 287 -->
  <!-- Title block 220 227 410 287 -->
  <metadata
     id="metadata849">
    <rdf:RDF>
      <cc:Work
         rdf:about="">
        <dc:format>image/svg+xml</dc:format>
        <dc:type
           rdf:resource="http://purl.org/dc/dcmitype/StillImage" />
      </cc:Work>
    </rdf:RDF>
  </metadata>
  <defs
     id="defs847">
    <linearGradient
       x1="649.42902"
       y1="807.466"
       x2="655.35199"
       y2="485.909"
       id="defitem29"
       gradientUnits="userSpaceOnUse">
      <stop
         style="stop-color:#ffffff;stop-opacity:1.0000000;"
         offset="0.0000000"
         id="stop92" />
      <stop
         style="stop-color:#ffffff;stop-opacity:0.13756600;"
         offset="1.0000000"
         id="stop93" />
    </linearGradient>
    <linearGradient
       y2="485.909"
       x2="655.35199"
       y1="807.466"
       x1="649.42902"
       gradientUnits="userSpaceOnUse"
       id="linearGradient3448"
       xlink:href="#defitem29"
       inkscape:collect="always" />
    <radialGradient
       cx="1049.72"
       cy="345.56"
       r="1202.15"
       fx="1049.72"
       fy="345.56"
       id="defitem28"
       gradientUnits="userSpaceOnUse">
      <stop
         style="stop-color:#ffffff;stop-opacity:1.0000000;"
         offset="0.0000000"
         id="stop89" />
      <stop
         style="stop-color:#a8a8a8;stop-opacity:1.0000000;"
         offset="1.0000000"
         id="stop90" />
    </radialGradient>
    <radialGradient
       r="1202.15"
       fy="64.844765"
       fx="1089.4004"
       cy="64.845284"
       cx="1092.7045"
       gradientUnits="userSpaceOnUse"
       id="radialGradient3446"
       xlink:href="#defitem28"
       inkscape:collect="always" />
    <linearGradient
       x1="287.5"
       y1="636.70697"
       x2="980"
       y2="636.70697"
       id="defitem30"
       gradientUnits="userSpaceOnUse">
      <stop
         style="stop-color:#464646;stop-opacity:1.0000000;"
         offset="0.0000000"
         id="stop95" />
      <stop
         style="stop-color:#c2c2c2;stop-opacity:1.0000000;"
         offset="1.0000000"
         id="stop96" />
    </linearGradient>
    <linearGradient
       y2="636.70697"
       x2="980"
       y1="636.70697"
       x1="287.5"
       gradientTransform="matrix(1,0,0,1.016038,0,-11.73855)"
       gradientUnits="userSpaceOnUse"
       id="linearGradient3444"
       xlink:href="#defitem30"
       inkscape:collect="always" />
    <linearGradient
       x1="921.091"
       y1="403.18799"
       x2="985.98199"
       y2="317.44699"
       id="defitem27"
       gradientUnits="userSpaceOnUse">
      <stop
         style="stop-color:#7e7e7e;stop-opacity:1.0000000;"
         offset="0.0000000"
         id="stop86" />
      <stop
         style="stop-color:#e5e5e5;stop-opacity:1.0000000;"
         offset="1.0000000"
         id="stop87" />
    </linearGradient>
    <linearGradient
       y2="317.44699"
       x2="985.98199"
       y1="403.18799"
       x1="921.091"
       gradientUnits="userSpaceOnUse"
       id="linearGradient3442"
       xlink:href="#defitem27"
       inkscape:collect="always" />
    <linearGradient
       x1="530.76099"
       y1="346.30399"
       x2="293.37"
       y2="360.27499"
       id="defitem26"
       gradientUnits="userSpaceOnUse">
      <stop
         style="stop-color:#5f5f5f;stop-opacity:1.0000000;"
         offset="0.0000000"
         id="stop83" />
      <stop
         style="stop-color:#e5e5e5;stop-opacity:1.0000000;"
         offset="1.0000000"
         id="stop84" />
    </linearGradient>
    <linearGradient
       y2="360.27499"
       x2="293.37"
       y1="346.30399"
       x1="530.76099"
       gradientUnits="userSpaceOnUse"
       id="linearGradient3440"
       xlink:href="#defitem26"
       inkscape:collect="always" />
    <linearGradient
       x1="164.013"
       y1="412.91901"
       x2="308.75"
       y2="337.60999"
       id="defitem25"
       gradientUnits="userSpaceOnUse">
      <stop
         style="stop-color:#ffffff;stop-opacity:1.0000000;"
         offset="0.0000000"
         id="stop80" />
      <stop
         style="stop-color:#bfbfbf;stop-opacity:1.0000000;"
         offset="1.0000000"
         id="stop81" />
    </linearGradient>
    <linearGradient
       y2="337.60999"
       x2="308.75"
       y1="412.91901"
       x1="164.013"
       gradientUnits="userSpaceOnUse"
       id="linearGradient3438"
       xlink:href="#defitem25"
       inkscape:collect="always" />
    <linearGradient
       x1="1094.25"
       y1="270.854"
       x2="992.48901"
       y2="380.47198"
       id="defitem24"
       gradientUnits="userSpaceOnUse">
      <stop
         style="stop-color:#6a6a6a;stop-opacity:1.0000000;"
         offset="0.0000000"
         id="stop77" />
      <stop
         style="stop-color:#e6e6e6;stop-opacity:1.0000000;"
         offset="1.0000000"
         id="stop78" />
    </linearGradient>
    <linearGradient
       y2="380.47198"
       x2="992.48901"
       y1="270.854"
       x1="1094.25"
       gradientUnits="userSpaceOnUse"
       id="linearGradient3436"
       xlink:href="#defitem24"
       inkscape:collect="always" />
    <linearGradient
       x1="1170.91"
       y1="476.465"
       x2="1049.84"
       y2="549.37799"
       id="defitem23"
       gradientUnits="userSpaceOnUse">
      <stop
         style="stop-color:#5f5f5f;stop-opacity:1.0000000;"
         offset="0.0000000"
         id="stop74" />
      <stop
         style="stop-color:#ebebeb;stop-opacity:1.0000000;"
         offset="1.0000000"
         id="stop75" />
    </linearGradient>
    <linearGradient
       y2="549.37799"
       x2="1049.84"
       y1="476.465"
       x1="1170.91"
       gradientUnits="userSpaceOnUse"
       id="linearGradient3434"
       xlink:href="#defitem23"
       inkscape:collect="always" />
    <linearGradient
       x1="783.716"
       y1="105.486"
       x2="576.14899"
       y2="313.276"
       id="defitem22"
       gradientUnits="userSpaceOnUse">
      <stop
         style="stop-color:#5a5a5a;stop-opacity:1.0000000;"
         offset="0.0000000"
         id="stop71" />
      <stop
         style="stop-color:#c7c7c7;stop-opacity:1.0000000;"
         offset="1.0000000"
         id="stop72" />
    </linearGradient>
    <linearGradient
       y2="313.276"
       x2="576.14899"
       y1="105.486"
       x1="783.716"
       gradientUnits="userSpaceOnUse"
       id="linearGradient3432"
       xlink:href="#defitem22"
       inkscape:collect="always" />
    <linearGradient
       x1="280.04401"
       y1="418.698"
       x2="128.05499"
       y2="484.716"
       id="defitem21"
       gradientUnits="userSpaceOnUse">
      <stop
         style="stop-color:#666666;stop-opacity:1.0000000;"
         offset="0.0000000"
         id="stop68" />
      <stop
         style="stop-color:#d8d8d8;stop-opacity:1.0000000;"
         offset="1.0000000"
         id="stop69" />
    </linearGradient>
    <linearGradient
       y2="484.716"
       x2="128.05499"
       y1="418.698"
       x1="280.04401"
       gradientUnits="userSpaceOnUse"
       id="linearGradient3430"
       xlink:href="#defitem21"
       inkscape:collect="always" />
    <linearGradient
       x1="129.687"
       y1="636.95398"
       x2="220"
       y2="584.40997"
       id="defitem20"
       gradientUnits="userSpaceOnUse">
      <stop
         style="stop-color:#ffffff;stop-opacity:1.0000000;"
         offset="0.0000000"
         id="stop65" />
      <stop
         style="stop-color:#bbbbbb;stop-opacity:1.0000000;"
         offset="1.0000000"
         id="stop66" />
    </linearGradient>
    <linearGradient
       y2="584.40997"
       x2="220"
       y1="636.95398"
       x1="129.687"
       gradientUnits="userSpaceOnUse"
       id="linearGradient3428"
       xlink:href="#defitem20"
       inkscape:collect="always" />
    <linearGradient
       x1="1048.72"
       y1="629.02802"
       x2="1127.98"
       y2="583.75299"
       id="defitem19"
       gradientUnits="userSpaceOnUse">
      <stop
         style="stop-color:#5e5e5e;stop-opacity:1.0000000;"
         offset="0.0000000"
         id="stop62" />
      <stop
         style="stop-color:#ededed;stop-opacity:1.0000000;"
         offset="1.0000000"
         id="stop63" />
    </linearGradient>
    <linearGradient
       y2="583.75299"
       x2="1127.98"
       y1="629.02802"
       x1="1048.72"
       gradientUnits="userSpaceOnUse"
       id="linearGradient3426"
       xlink:href="#defitem19"
       inkscape:collect="always" />
    <linearGradient
       x1="370.022"
       y1="387.27301"
       x2="581.32397"
       y2="291.97699"
       id="defitem18"
       gradientUnits="userSpaceOnUse">
      <stop
         style="stop-color:#636363;stop-opacity:1.0000000;"
         offset="0.0000000"
         id="stop59" />
      <stop
         style="stop-color:#d6d6d6;stop-opacity:1.0000000;"
         offset="1.0000000"
         id="stop60" />
    </linearGradient>
    <linearGradient
       y2="291.97699"
       x2="581.32397"
       y1="387.27301"
       x1="370.022"
       gradientUnits="userSpaceOnUse"
       id="linearGradient3424"
       xlink:href="#defitem18"
       inkscape:collect="always" />
    <linearGradient
       x1="732.15601"
       y1="351.939"
       x2="909.59399"
       y2="351.939"
       id="defitem17"
       gradientUnits="userSpaceOnUse">
      <stop
         style="stop-color:#676767;stop-opacity:1.0000000;"
         offset="0.0000000"
         id="stop56" />
      <stop
         style="stop-color:#d3d3d3;stop-opacity:1.0000000;"
         offset="1.0000000"
         id="stop57" />
    </linearGradient>
    <linearGradient
       y2="351.939"
       x2="909.59399"
       y1="351.939"
       x1="732.15601"
       gradientUnits="userSpaceOnUse"
       id="linearGradient3422"
       xlink:href="#defitem17"
       inkscape:collect="always" />
    <linearGradient
       x1="1014.43"
       y1="494.71301"
       x2="1073.01"
       y2="494.71301"
       id="defitem16"
       gradientUnits="userSpaceOnUse">
      <stop
         style="stop-color:#666666;stop-opacity:1.0000000;"
         offset="0.0000000"
         id="stop53" />
      <stop
         style="stop-color:#dcdcdc;stop-opacity:1.0000000;"
         offset="1.0000000"
         id="stop54" />
    </linearGradient>
    <linearGradient
       y2="494.71301"
       x2="1073.01"
       y1="494.71301"
       x1="1014.43"
       gradientUnits="userSpaceOnUse"
       id="linearGradient3420"
       xlink:href="#defitem16"
       inkscape:collect="always" />
    <linearGradient
       x1="272.59201"
       y1="452.388"
       x2="193.27699"
       y2="516.37"
       id="defitem15"
       gradientUnits="userSpaceOnUse">
      <stop
         style="stop-color:#6e6e6e;stop-opacity:1.0000000;"
         offset="0.0000000"
         id="stop50" />
      <stop
         style="stop-color:#d8d8d8;stop-opacity:1.0000000;"
         offset="1.0000000"
         id="stop51" />
    </linearGradient>
    <linearGradient
       y2="516.37"
       x2="193.27699"
       y1="452.388"
       x1="272.59201"
       gradientUnits="userSpaceOnUse"
       id="linearGradient3418"
       xlink:href="#defitem15"
       inkscape:collect="always" />
    <radialGradient
       cx="1037.22"
       cy="211.088"
       r="1164.28"
       fx="1037.22"
       fy="211.088"
       id="defitem14"
       gradientUnits="userSpaceOnUse">
      <stop
         style="stop-color:#ffffff;stop-opacity:1.0000000;"
         offset="0.0000000"
         id="stop47" />
      <stop
         style="stop-color:#aaaaaa;stop-opacity:1.0000000;"
         offset="1.0000000"
         id="stop48" />
    </radialGradient>
    <radialGradient
       r="1164.28"
       fy="211.088"
       fx="1037.22"
       cy="211.088"
       cx="1037.22"
       gradientUnits="userSpaceOnUse"
       id="radialGradient3416"
       xlink:href="#defitem14"
       inkscape:collect="always" />
    <linearGradient
       x1="342.64999"
       y1="732.12903"
       x2="379.241"
       y2="686.83002"
       id="defitem13"
       gradientUnits="userSpaceOnUse">
      <stop
         style="stop-color:#ffffff;stop-opacity:1.0000000;"
         offset="0.0000000"
         id="stop44" />
      <stop
         style="stop-color:#989898;stop-opacity:1.0000000;"
         offset="1.0000000"
         id="stop45" />
    </linearGradient>
    <linearGradient
       y2="686.83002"
       x2="379.241"
       y1="732.12903"
       x1="342.64999"
       gradientUnits="userSpaceOnUse"
       id="linearGradient3414"
       xlink:href="#defitem13"
       inkscape:collect="always" />
    <radialGradient
       cx="632.78101"
       cy="484.409"
       r="540.27899"
       fx="632.78101"
       fy="484.409"
       id="defitem12"
       gradientUnits="userSpaceOnUse">
      <stop
         style="stop-color:#ffffff;stop-opacity:1.0000000;"
         offset="0.0000000"
         id="stop41" />
      <stop
         style="stop-color:#ededed;stop-opacity:1.0000000;"
         offset="1.0000000"
         id="stop42" />
    </radialGradient>
    <radialGradient
       r="540.27899"
       fy="484.409"
       fx="632.78101"
       cy="484.409"
       cx="632.78101"
       gradientUnits="userSpaceOnUse"
       id="radialGradient3412"
       xlink:href="#defitem12"
       inkscape:collect="always" />
    <inkscape:perspective
       id="perspective3148"
       inkscape:persp3d-origin="32.000002 : 45.351032 : 1"
       inkscape:vp_z="64.000002 : 56.017702 : 1"
       inkscape:vp_y="0 : 999.99994 : 0"
       inkscape:vp_x="0 : 56.017702 : 1"
       sodipodi:type="inkscape:persp3d" />
    <linearGradient
       id="linearGradient3682">
      <stop
         id="stop3684"
         offset="0"
         style="stop-color:#ff6d0f;stop-opacity:1;" />
      <stop
         id="stop3686"
         offset="1"
         style="stop-color:#ff1000;stop-opacity:1;" />
    </linearGradient>
    <linearGradient
       id="linearGradient3864">
      <stop
         style="stop-color:#71b2f8;stop-opacity:1;"
         offset="0"
         id="stop3866" />
      <stop
         style="stop-color:#002795;stop-opacity:1;"
         offset="1"
         id="stop3868" />
    </linearGradient>
  </defs>
  <sodipodi:namedview
     inkscape:window-height="1035"
     inkscape:window-width="1920"
     inkscape:pageshadow="2"
     inkscape:pageopacity="0.0"
     guidetolerance="10.0"
     gridtolerance="10.0"
     objecttolerance="10.0"
     borderopacity="1.0"
     bordercolor="#666666"
     pagecolor="#ffffff"
     id="base"
     inkscape:window-x="0"
     inkscape:window-y="45"
     inkscape:current-layer="svg2"
     inkscape:document-units="mm"
     showgrid="false"
     inkscape:window-maximized="1"
     inkscape:pagecheckerboard="0"
     inkscape:zoom="0.36884177"
     inkscape:cx="456.83546"
     inkscape:cy="535.45996"
     inkscape:showpageshadow="2"
     inkscape:deskcolor="#d1d1d1" />
  <path
     id="path3895"
     style="color:#000000;fill:#c8c8c8;fill-opacity:1;stroke:#000000;stroke-width:1;stroke-miterlimit:4;stroke-dasharray:none;stroke-opacity:1"
     d="m 36.393576,0.50461315 12.6104,7.19095595 H 420.61531 l 12.61043,-7.19095595 z m -1.535697,0.18335 C 20.167719,27.897398 9.2128489,56.95456 2.2783489,87.08145 h 8.0136401 7.84657 C 24.764099,59.6527 34.891179,33.191886 48.270686,8.3414271 Z m 399.903541,0 -13.41279,7.65037495 C 434.72937,33.190127 444.85895,59.65101 451.48487,87.08145 h 7.84658 8.01054 C 460.40752,56.95457 449.45159,27.897392 434.76142,0.68796315 Z M 49.163836,8.6143971 C 35.721529,33.548434 25.553189,60.10892 18.933739,87.64594 l -0.44349,-0.10518 v 0.45942 h -7.91773 c -5.6027801,24.01924 -8.5597201,48.65107 -8.7778701,73.31257 v 0.004 c -0.21813,24.0623 2.18166,48.14128 7.10192,71.6974 h 0.73329 1.7265001 0.3785 2.8878 2.1246 v 0.46354 l 0.45276,-0.0978 c 5.90517,27.42714 15.31243,53.97959 27.975567,79.02021 H 424.44783 c 12.66317,-25.0406 22.07042,-51.59309 27.9756,-79.02021 l 0.44864,0.0938 v -0.45942 h 1.5161 3.87476 2.47114 c 5.04197,-24.13952 7.42598,-48.83098 7.07102,-73.48768 -0.34112,-24.06432 -3.29939,-48.08754 -8.76655,-71.52641 h -7.90536 v -0.46354 l -0.44762,0.10918 C 444.06612,60.10893 433.90191,33.548428 420.45959,8.6143971 Z M 32.246489,87.88801 H 47.631236 V 233.12768 H 32.246489 c -12.04885,-47.66687 -12.04885,-97.57284 0,-145.23967 z m 389.741561,0 h 15.38889 c 12.04883,47.66683 12.04883,97.5728 0,145.23967 H 421.98805 Z M 0.6137389,233.93732 c 6.19403,30.0099 16.3596901,59.06074 30.2404201,86.38628 l 13.429297,-7.65038 C 31.677919,287.71646 22.303509,261.25859 16.388349,233.93732 h -1.76569 -2.8878 -0.3785 -1.7265001 -1.03342 -0.0938 z m 452.6213611,0 c -5.91516,27.32127 -15.29267,53.77914 -27.89823,78.7359 l 13.42827,7.65038 c 13.88076,-27.32556 24.05052,-56.37636 30.24455,-86.38628 h -7.88883 -0.0939 -2.76405 -3.87476 z M 45.008496,313.31909 32.386749,320.51005 H 437.23357 l -12.62278,-7.19096 z" />
  <path
     id="path6777"
     style="color:#000000;fill:#c8c8c8;fill-opacity:1;stroke:#000000;stroke-width:1;stroke-miterlimit:4;stroke-dasharray:none;stroke-opacity:1"
     d="m 4.3045189,93.50165 h 0.0078 0.44835 0.631589 0.807033 0.986373 1.165712 1.348955 1.5244001 1.70373 1.88307 2.06242 2.23785 2.18719 c 0.4699,0.88071 0.94349,1.99136 1.41132,3.41025 0.49158,1.49097 0.97793,3.27685 1.45419,5.35456 0.23765,1.04004 0.46996,2.14295 0.69787,3.30995 0.22696,1.16436 0.44869,2.38581 0.66279,3.66486 0.42924,2.55899 0.82996,5.35331 1.20471,8.3829 0.18643,1.51372 0.36565,3.08234 0.53413,4.68717 0.16747,1.60406 0.32518,3.24648 0.47174,4.92248 0.29409,3.3541 0.54603,6.85669 0.75245,10.51237 0.1038,1.82723 0.19523,3.69155 0.27291,5.56288 0.0788,1.87051 0.14212,3.75344 0.19502,5.64389 0.10479,3.78385 0.1589,7.6117 0.15989,11.48837 0,1.93787 -0.012,3.88634 -0.039,5.81361 -0.026,1.92651 -0.0651,3.83753 -0.11697,5.72877 -0.1048,3.78625 -0.26243,7.50922 -0.46785,11.16819 -0.10281,1.82825 -0.21744,3.64012 -0.34309,5.4047 -0.12554,1.76353 -0.26281,3.48373 -0.40936,5.16167 -0.29411,3.36015 -0.62435,6.55359 -0.99806,9.58652 -0.18644,1.51521 -0.38258,2.98757 -0.58481,4.39398 -0.20226,1.40564 -0.40966,2.75049 -0.6238,4.03134 -0.42926,2.56578 -0.8815,4.89073 -1.35675,6.97095 -0.23761,1.04126 -0.48003,2.01067 -0.72515,2.9126 -0.24311,0.89884 -0.48957,1.72305 -0.73685,2.47283 -0.4689,1.42602 -0.9452,2.55 -1.41522,3.42954 h -2.18719 -2.23785 -2.06242 -1.88307 -1.70373 -1.5244001 -1.348955 -1.165712 -0.986373 -0.807033 -0.631589 -0.44835 -0.0078 z m 17.7469021,0 h 25.306495 25.8952 v 5.55131 7.53033 8.95768 10.15361 11.07945 11.70827 12.02462 12.02846 11.70827 11.07559 10.1536 8.96155 7.53033 5.55131 h -25.8952 -25.310385 c 0.45041,-0.89025 0.89613,-1.8957 1.32945,-3.2135 0.25177,-0.76341 0.50263,-1.59829 0.74855,-2.50756 0.24792,-0.91224 0.49351,-1.8942 0.73297,-2.94346 0.47891,-2.09625 0.92957,-4.43296 1.36064,-7.00953 0.21505,-1.28644 0.42474,-2.63259 0.62768,-4.04291 0.20299,-1.41154 0.40183,-2.88999 0.58873,-4.40941 0.37481,-3.04189 0.70721,-6.24624 1.00195,-9.61351 0.14692,-1.68161 0.28348,-3.40615 0.40937,-5.17325 0.12596,-1.76797 0.24018,-3.5807 0.34308,-5.41243 0.20581,-3.66571 0.36296,-7.39501 0.46786,-11.18747 0.0519,-1.89424 0.091,-3.80662 0.11697,-5.73647 0.028,-1.93113 0.0389,-3.8845 0.0389,-5.8252 -9.9e-4,-3.88289 -0.0549,-7.71754 -0.15989,-11.50767 -0.0529,-1.89338 -0.11597,-3.77759 -0.19482,-5.65162 -0.0778,-1.87477 -0.16907,-3.74369 -0.27291,-5.57442 -0.2068,-3.66234 -0.46158,-7.17389 -0.75636,-10.53555 -0.14691,-1.67978 -0.30387,-3.32225 -0.47175,-4.93018 -0.16887,-1.60859 -0.3472,-3.18444 -0.5341,-4.70259 -0.37579,-3.03795 -0.78139,-5.84345 -1.21251,-8.41376 -0.21505,-1.28472 -0.4346,-2.5096 -0.66279,-3.6803 -0.22917,-1.17338 -0.46621,-2.28517 -0.70564,-3.3331 -0.47985,-2.09324 -0.96933,-3.89827 -1.46983,-5.41627 -0.43192,-1.30999 -0.87289,-2.30627 -1.32166,-3.19422 z m 51.899565,0 h 3.53611 36.417814 241.80941 36.4217 3.53611 v 5.55131 7.53033 8.95768 10.15361 2.37251 h -28.54631 v 0.34334 h -0.35089 v 0.80627 2.37251 3.82304 5.08451 6.08369 6.78575 7.14072 7.14454 6.78194 6.08752 5.08065 3.82302 2.37639 0.80241 h 0.35089 v 0.3472 h 28.54631 v 2.36865 10.1536 8.96155 7.53033 5.55131 h -3.53611 -36.4217 -241.80941 -36.417814 -3.53611 v -5.55131 -7.53033 -8.96155 -10.1536 -2.36865 H 102.4973 v -0.3472 h 0.34699 v -0.80241 -2.37639 -3.82302 -5.08065 -6.08752 -6.78194 -7.14454 -7.14072 -6.78575 -6.08369 -5.08451 -3.82304 -2.37251 -0.80627 h -0.34699 v -0.34334 H 73.950986 v -2.37251 -10.15361 -8.95768 -7.53033 z m 322.419014,0 h 25.89132 25.31038 c -0.44935,0.88892 -0.89246,1.88647 -1.32556,3.20194 -0.25069,0.76122 -0.49869,1.59537 -0.74466,2.50368 -0.24792,0.91127 -0.49348,1.89082 -0.73294,2.93958 -0.47891,2.09538 -0.9325,4.4299 -1.36456,7.0057 -0.21505,1.28615 -0.42473,2.63672 -0.62768,4.04679 -0.20296,1.41108 -0.39789,2.88617 -0.58481,4.40553 -0.3738,3.04155 -0.71113,6.24626 -1.00585,9.6135 -0.14692,1.68164 -0.2835,3.40616 -0.40937,5.17326 -0.12696,1.76821 -0.2402,3.58436 -0.3431,5.41628 -0.20579,3.66617 -0.36296,7.39446 -0.46784,11.18747 -0.0519,1.89462 -0.09,3.80659 -0.11697,5.73648 -0.026,1.93092 -0.043,3.88388 -0.043,5.8252 10e-4,3.8837 0.0539,7.72041 0.15989,11.51152 0.0519,1.89402 0.12097,3.77755 0.19882,5.6516 0.0788,1.87502 0.16907,3.74309 0.27291,5.57446 0.20778,3.66327 0.45768,7.17667 0.75244,10.53936 0.14692,1.6802 0.30675,3.32561 0.47565,4.93408 0.16787,1.60912 0.34331,3.18405 0.53021,4.70259 0.3758,3.03893 0.78139,5.84265 1.21251,8.41376 0.21505,1.2851 0.43849,2.51306 0.66668,3.68413 0.22917,1.1737 0.46128,2.28468 0.70175,3.33311 0.47984,2.09373 0.96823,3.89769 1.46982,5.41628 0.43176,1.31244 0.87597,2.30936 1.32556,3.19808 h -25.30643 -25.8952 v -5.55131 -7.53033 -8.96155 -10.1536 -11.07559 -11.70827 -12.02846 -12.02462 -11.70827 -11.07945 -10.15361 -8.95768 -7.53033 z m 51.95416,0 h 2.18328 2.24174 2.06243 1.88307 1.70372 1.52439 1.34506 1.16572 0.99026 0.80705 0.62768 0.44835 0.012 v 134.01438 h -0.012 -0.44835 -0.62768 -0.80705 -0.99026 -1.16572 -1.34506 -1.52439 -1.70372 -1.88307 -2.06243 -2.24174 -2.18328 c -0.47009,-0.88105 -0.94451,-1.99122 -1.41133,-3.41025 -0.49249,-1.49099 -0.97791,-3.28001 -1.45422,-5.35842 -0.23858,-1.04013 -0.46994,-2.14265 -0.69787,-3.30995 -0.22695,-1.16475 -0.44868,-2.38543 -0.66278,-3.66486 -0.42922,-2.5598 -0.83385,-5.35619 -1.2086,-8.38675 -0.18644,-1.51413 -0.36276,-3.08594 -0.53022,-4.69103 -0.16847,-1.60433 -0.32519,-3.24608 -0.47174,-4.92249 -0.29409,-3.35502 -0.54505,-6.85932 -0.75247,-10.51621 -0.1036,-1.82765 -0.19423,-3.69083 -0.27289,-5.56288 -0.0778,-1.87107 -0.14312,-3.7533 -0.19502,-5.64389 -0.1058,-3.7846 -0.1589,-7.61464 -0.15989,-11.49224 0,-1.93804 0.014,-3.88945 0.0389,-5.81747 0.027,-1.92703 0.0651,-3.83353 0.11697,-5.72491 0.1048,-3.78669 0.25853,-7.51252 0.46395,-11.17205 0.1026,-1.82845 0.22036,-3.63629 0.34699,-5.40087 0.12555,-1.7635 0.26281,-3.48371 0.40935,-5.16166 0.29413,-3.35997 0.62924,-6.55747 1.00197,-9.59036 0.18644,-1.51489 0.38254,-2.98771 0.58481,-4.39398 0.20227,-1.40534 0.40967,-2.74692 0.62379,-4.02748 0.43027,-2.56517 0.8815,-4.88778 1.35674,-6.9671 0.23764,-1.04076 0.48005,-2.01167 0.72518,-2.9126 0.24309,-0.89778 0.48659,-1.72096 0.73293,-2.46895 0.46884,-1.42398 0.9452,-2.53703 1.41525,-3.41798 z M 73.950986,128.75763 h 28.195434 v 0.45907 2.37251 3.82304 5.08451 6.08369 6.78575 7.14072 7.14454 6.78194 6.08752 5.08065 3.82302 2.37639 0.45907 H 73.950986 v -8.0164 -11.70827 -12.02846 -12.02462 -11.70827 z m 293.521814,0 h 28.19933 v 8.0164 11.70827 12.02462 12.02846 11.70827 8.0164 H 367.4728 v -0.45907 -2.37639 -3.82302 -5.08065 -6.08752 -6.78194 -7.14454 -7.14072 -6.78575 -6.08369 -5.08451 -3.82304 -2.37251 z" />
  <path
     style="color:#000000;fill:#c8c8c8;fill-opacity:1;stroke:#000000;stroke-width:1.98813;stroke-miterlimit:4;stroke-dasharray:none;stroke-opacity:1"
     d="m 234.00662,6.0042391 c 27.0466,-0.0513 54.09432,2.43206 80.67822,7.3967899 l 5.13793,8.45127 0.29948,-0.17832 -0.0584,0.34115 22.93592,3.83798 c 16.41887,16.4891 32.85612,32.957711 49.31783,49.405061 v 0.0543 0.24035 0.34115 0.44195 0.53499 0.63191 0.7327 0.82575 0.92653 1.02346 1.11651 1.21729 1.31034 151.70812 1.31421 1.2173 1.11649 1.02344 0.92655 0.82577 0.73269 0.6319 0.53499 0.43807 0.34115 0.24423 0.0503 c -16.46171,16.44735 -32.89896,32.91596 -49.31783,49.40508 l -22.93592,3.83796 0.0584,0.34503 -0.29948,-0.1823 -5.13793,8.45127 c -26.5839,4.96473 -53.63162,7.4483 -80.67822,7.39681 -26.50808,-0.0474 -53.01343,-2.53107 -79.06802,-7.39681 l -5.13793,-8.45127 -0.29948,0.17852 0.0584,-0.34117 -22.93204,-3.83796 C 110.20869,278.67665 93.767546,262.20804 77.305826,245.76069 v -0.0504 -0.24423 -0.34115 -0.43807 -0.53499 -0.6319 -0.73271 -0.82575 -0.92655 -1.02344 -1.11649 -1.21731 -1.3142 V 84.65538 83.34504 82.12775 81.01124 79.98778 79.06125 78.2355 77.5028 76.87089 76.3359 75.89395 75.5528 75.31245 75.25815 C 93.767546,58.8108 110.20869,42.342209 126.62755,25.853089 l 22.93204,-3.83798 -0.0584,-0.34115 0.29948,0.17832 5.13793,-8.45127 c 26.05459,-4.8657399 52.55994,-7.3493099 79.06802,-7.3967899 z"
     id="path17182" />
  <path
     style="color:#000000;fill:#c8c8c8;fill-opacity:1;stroke:#000000;stroke-width:1.98813;stroke-miterlimit:4;stroke-dasharray:none;stroke-opacity:1"
     d="m 234.81224,50.595411 c -60.89782,0 -110.27365,49.213769 -110.27369,109.912909 4e-5,60.69916 49.37587,109.91395 110.27369,109.91395 60.89784,0 110.27265,-49.21479 110.27265,-109.91395 0,-60.69914 -49.37481,-109.912909 -110.27265,-109.912909 z"
     id="path17357" />
</svg>
