<?xml version="1.0" encoding="UTF-8" standalone="no"?>
<svg
   id="svg2"
   version="1.1"
   viewBox="0 0 278.00775 175.48243"
   height="175.48244mm"
   width="278.00775mm"
   sodipodi:docname="thumbnail.svg"
   inkscape:version="1.2.1 (9c6d41e410, 2022-07-14)"
   xmlns:inkscape="http://www.inkscape.org/namespaces/inkscape"
   xmlns:sodipodi="http://sodipodi.sourceforge.net/DTD/sodipodi-0.dtd"
   xmlns:xlink="http://www.w3.org/1999/xlink"
   xmlns="http://www.w3.org/2000/svg"
   xmlns:svg="http://www.w3.org/2000/svg"
   xmlns:rdf="http://www.w3.org/1999/02/22-rdf-syntax-ns#"
   xmlns:cc="http://creativecommons.org/ns#"
   xmlns:dc="http://purl.org/dc/elements/1.1/">
  <sodipodi:namedview
     id="namedview761"
     pagecolor="#ffffff"
     bordercolor="#000000"
     borderopacity="0.25"
     inkscape:showpageshadow="2"
     inkscape:pageopacity="0.0"
     inkscape:pagecheckerboard="0"
     inkscape:deskcolor="#d1d1d1"
     inkscape:document-units="mm"
     showgrid="false"
     inkscape:zoom="0.75900673"
     inkscape:cx="777.99046"
     inkscape:cy="487.47921"
     inkscape:window-width="2400"
     inkscape:window-height="1434"
     inkscape:window-x="2391"
     inkscape:window-y="-9"
     inkscape:window-maximized="1"
     inkscape:current-layer="svg2" />
  <!-- Working space 10 10 410 287 -->
  <!-- Title block 220 227 410 287 -->
  <metadata
     id="metadata849">
    <rdf:RDF>
      <cc:Work
         rdf:about="">
        <dc:format>image/svg+xml</dc:format>
        <dc:type
           rdf:resource="http://purl.org/dc/dcmitype/StillImage" />
      </cc:Work>
    </rdf:RDF>
  </metadata>
  <defs
     id="defs847">
    <linearGradient
       gradientUnits="userSpaceOnUse"
       id="defitem29"
       y2="485.909"
       x2="655.35199"
       y1="807.466"
       x1="649.42902">
      <stop
         id="stop92"
         offset="0.0000000"
         style="stop-color:#ffffff;stop-opacity:1.0000000;" />
      <stop
         id="stop93"
         offset="1.0000000"
         style="stop-color:#ffffff;stop-opacity:0.13756600;" />
    </linearGradient>
    <linearGradient
       xlink:href="#defitem29"
       id="linearGradient3448"
       gradientUnits="userSpaceOnUse"
       x1="649.42902"
       y1="807.466"
       x2="655.35199"
       y2="485.909" />
    <radialGradient
       gradientUnits="userSpaceOnUse"
       id="defitem28"
       fy="345.56"
       fx="1049.72"
       r="1202.15"
       cy="345.56"
       cx="1049.72">
      <stop
         id="stop89"
         offset="0.0000000"
         style="stop-color:#ffffff;stop-opacity:1.0000000;" />
      <stop
         id="stop90"
         offset="1.0000000"
         style="stop-color:#a8a8a8;stop-opacity:1.0000000;" />
    </radialGradient>
    <radialGradient
       xlink:href="#defitem28"
       id="radialGradient3446"
       gradientUnits="userSpaceOnUse"
       cx="1092.7045"
       cy="64.845284"
       fx="1089.4004"
       fy="64.844765"
       r="1202.15" />
    <linearGradient
       gradientUnits="userSpaceOnUse"
       id="defitem30"
       y2="636.70697"
       x2="980"
       y1="636.70697"
       x1="287.5">
      <stop
         id="stop95"
         offset="0.0000000"
         style="stop-color:#464646;stop-opacity:1.0000000;" />
      <stop
         id="stop96"
         offset="1.0000000"
         style="stop-color:#c2c2c2;stop-opacity:1.0000000;" />
    </linearGradient>
    <linearGradient
       xlink:href="#defitem30"
       id="linearGradient3444"
       gradientUnits="userSpaceOnUse"
       gradientTransform="matrix(1,0,0,1.016038,0,-11.73855)"
       x1="287.5"
       y1="636.70697"
       x2="980"
       y2="636.70697" />
    <linearGradient
       gradientUnits="userSpaceOnUse"
       id="defitem27"
       y2="317.44699"
       x2="985.98199"
       y1="403.18799"
       x1="921.091">
      <stop
         id="stop86"
         offset="0.0000000"
         style="stop-color:#7e7e7e;stop-opacity:1.0000000;" />
      <stop
         id="stop87"
         offset="1.0000000"
         style="stop-color:#e5e5e5;stop-opacity:1.0000000;" />
    </linearGradient>
    <linearGradient
       xlink:href="#defitem27"
       id="linearGradient3442"
       gradientUnits="userSpaceOnUse"
       x1="921.091"
       y1="403.18799"
       x2="985.98199"
       y2="317.44699" />
    <linearGradient
       gradientUnits="userSpaceOnUse"
       id="defitem26"
       y2="360.27499"
       x2="293.37"
       y1="346.30399"
       x1="530.76099">
      <stop
         id="stop83"
         offset="0.0000000"
         style="stop-color:#5f5f5f;stop-opacity:1.0000000;" />
      <stop
         id="stop84"
         offset="1.0000000"
         style="stop-color:#e5e5e5;stop-opacity:1.0000000;" />
    </linearGradient>
    <linearGradient
       xlink:href="#defitem26"
       id="linearGradient3440"
       gradientUnits="userSpaceOnUse"
       x1="530.76099"
       y1="346.30399"
       x2="293.37"
       y2="360.27499" />
    <linearGradient
       gradientUnits="userSpaceOnUse"
       id="defitem25"
       y2="337.60999"
       x2="308.75"
       y1="412.91901"
       x1="164.013">
      <stop
         id="stop80"
         offset="0.0000000"
         style="stop-color:#ffffff;stop-opacity:1.0000000;" />
      <stop
         id="stop81"
         offset="1.0000000"
         style="stop-color:#bfbfbf;stop-opacity:1.0000000;" />
    </linearGradient>
    <linearGradient
       xlink:href="#defitem25"
       id="linearGradient3438"
       gradientUnits="userSpaceOnUse"
       x1="164.013"
       y1="412.91901"
       x2="308.75"
       y2="337.60999" />
    <linearGradient
       gradientUnits="userSpaceOnUse"
       id="defitem24"
       y2="380.47198"
       x2="992.48901"
       y1="270.854"
       x1="1094.25">
      <stop
         id="stop77"
         offset="0.0000000"
         style="stop-color:#6a6a6a;stop-opacity:1.0000000;" />
      <stop
         id="stop78"
         offset="1.0000000"
         style="stop-color:#e6e6e6;stop-opacity:1.0000000;" />
    </linearGradient>
    <linearGradient
       xlink:href="#defitem24"
       id="linearGradient3436"
       gradientUnits="userSpaceOnUse"
       x1="1094.25"
       y1="270.854"
       x2="992.48901"
       y2="380.47198" />
    <linearGradient
       gradientUnits="userSpaceOnUse"
       id="defitem23"
       y2="549.37799"
       x2="1049.84"
       y1="476.465"
       x1="1170.91">
      <stop
         id="stop74"
         offset="0.0000000"
         style="stop-color:#5f5f5f;stop-opacity:1.0000000;" />
      <stop
         id="stop75"
         offset="1.0000000"
         style="stop-color:#ebebeb;stop-opacity:1.0000000;" />
    </linearGradient>
    <linearGradient
       xlink:href="#defitem23"
       id="linearGradient3434"
       gradientUnits="userSpaceOnUse"
       x1="1170.91"
       y1="476.465"
       x2="1049.84"
       y2="549.37799" />
    <linearGradient
       gradientUnits="userSpaceOnUse"
       id="defitem22"
       y2="313.276"
       x2="576.14899"
       y1="105.486"
       x1="783.716">
      <stop
         id="stop71"
         offset="0.0000000"
         style="stop-color:#5a5a5a;stop-opacity:1.0000000;" />
      <stop
         id="stop72"
         offset="1.0000000"
         style="stop-color:#c7c7c7;stop-opacity:1.0000000;" />
    </linearGradient>
    <linearGradient
       xlink:href="#defitem22"
       id="linearGradient3432"
       gradientUnits="userSpaceOnUse"
       x1="783.716"
       y1="105.486"
       x2="576.14899"
       y2="313.276" />
    <linearGradient
       gradientUnits="userSpaceOnUse"
       id="defitem21"
       y2="484.716"
       x2="128.05499"
       y1="418.698"
       x1="280.04401">
      <stop
         id="stop68"
         offset="0.0000000"
         style="stop-color:#666666;stop-opacity:1.0000000;" />
      <stop
         id="stop69"
         offset="1.0000000"
         style="stop-color:#d8d8d8;stop-opacity:1.0000000;" />
    </linearGradient>
    <linearGradient
       xlink:href="#defitem21"
       id="linearGradient3430"
       gradientUnits="userSpaceOnUse"
       x1="280.04401"
       y1="418.698"
       x2="128.05499"
       y2="484.716" />
    <linearGradient
       gradientUnits="userSpaceOnUse"
       id="defitem20"
       y2="584.40997"
       x2="220"
       y1="636.95398"
       x1="129.687">
      <stop
         id="stop65"
         offset="0.0000000"
         style="stop-color:#ffffff;stop-opacity:1.0000000;" />
      <stop
         id="stop66"
         offset="1.0000000"
         style="stop-color:#bbbbbb;stop-opacity:1.0000000;" />
    </linearGradient>
    <linearGradient
       xlink:href="#defitem20"
       id="linearGradient3428"
       gradientUnits="userSpaceOnUse"
       x1="129.687"
       y1="636.95398"
       x2="220"
       y2="584.40997" />
    <linearGradient
       gradientUnits="userSpaceOnUse"
       id="defitem19"
       y2="583.75299"
       x2="1127.98"
       y1="629.02802"
       x1="1048.72">
      <stop
         id="stop62"
         offset="0.0000000"
         style="stop-color:#5e5e5e;stop-opacity:1.0000000;" />
      <stop
         id="stop63"
         offset="1.0000000"
         style="stop-color:#ededed;stop-opacity:1.0000000;" />
    </linearGradient>
    <linearGradient
       xlink:href="#defitem19"
       id="linearGradient3426"
       gradientUnits="userSpaceOnUse"
       x1="1048.72"
       y1="629.02802"
       x2="1127.98"
       y2="583.75299" />
    <linearGradient
       gradientUnits="userSpaceOnUse"
       id="defitem18"
       y2="291.97699"
       x2="581.32397"
       y1="387.27301"
       x1="370.022">
      <stop
         id="stop59"
         offset="0.0000000"
         style="stop-color:#636363;stop-opacity:1.0000000;" />
      <stop
         id="stop60"
         offset="1.0000000"
         style="stop-color:#d6d6d6;stop-opacity:1.0000000;" />
    </linearGradient>
    <linearGradient
       xlink:href="#defitem18"
       id="linearGradient3424"
       gradientUnits="userSpaceOnUse"
       x1="370.022"
       y1="387.27301"
       x2="581.32397"
       y2="291.97699" />
    <linearGradient
       gradientUnits="userSpaceOnUse"
       id="defitem17"
       y2="351.939"
       x2="909.59399"
       y1="351.939"
       x1="732.15601">
      <stop
         id="stop56"
         offset="0.0000000"
         style="stop-color:#676767;stop-opacity:1.0000000;" />
      <stop
         id="stop57"
         offset="1.0000000"
         style="stop-color:#d3d3d3;stop-opacity:1.0000000;" />
    </linearGradient>
    <linearGradient
       xlink:href="#defitem17"
       id="linearGradient3422"
       gradientUnits="userSpaceOnUse"
       x1="732.15601"
       y1="351.939"
       x2="909.59399"
       y2="351.939" />
    <linearGradient
       gradientUnits="userSpaceOnUse"
       id="defitem16"
       y2="494.71301"
       x2="1073.01"
       y1="494.71301"
       x1="1014.43">
      <stop
         id="stop53"
         offset="0.0000000"
         style="stop-color:#666666;stop-opacity:1.0000000;" />
      <stop
         id="stop54"
         offset="1.0000000"
         style="stop-color:#dcdcdc;stop-opacity:1.0000000;" />
    </linearGradient>
    <linearGradient
       xlink:href="#defitem16"
       id="linearGradient3420"
       gradientUnits="userSpaceOnUse"
       x1="1014.43"
       y1="494.71301"
       x2="1073.01"
       y2="494.71301" />
    <linearGradient
       gradientUnits="userSpaceOnUse"
       id="defitem15"
       y2="516.37"
       x2="193.27699"
       y1="452.388"
       x1="272.59201">
      <stop
         id="stop50"
         offset="0.0000000"
         style="stop-color:#6e6e6e;stop-opacity:1.0000000;" />
      <stop
         id="stop51"
         offset="1.0000000"
         style="stop-color:#d8d8d8;stop-opacity:1.0000000;" />
    </linearGradient>
    <linearGradient
       xlink:href="#defitem15"
       id="linearGradient3418"
       gradientUnits="userSpaceOnUse"
       x1="272.59201"
       y1="452.388"
       x2="193.27699"
       y2="516.37" />
    <radialGradient
       gradientUnits="userSpaceOnUse"
       id="defitem14"
       fy="211.088"
       fx="1037.22"
       r="1164.28"
       cy="211.088"
       cx="1037.22">
      <stop
         id="stop47"
         offset="0.0000000"
         style="stop-color:#ffffff;stop-opacity:1.0000000;" />
      <stop
         id="stop48"
         offset="1.0000000"
         style="stop-color:#aaaaaa;stop-opacity:1.0000000;" />
    </radialGradient>
    <radialGradient
       xlink:href="#defitem14"
       id="radialGradient3416"
       gradientUnits="userSpaceOnUse"
       cx="1037.22"
       cy="211.088"
       fx="1037.22"
       fy="211.088"
       r="1164.28" />
    <linearGradient
       gradientUnits="userSpaceOnUse"
       id="defitem13"
       y2="686.83002"
       x2="379.241"
       y1="732.12903"
       x1="342.64999">
      <stop
         id="stop44"
         offset="0.0000000"
         style="stop-color:#ffffff;stop-opacity:1.0000000;" />
      <stop
         id="stop45"
         offset="1.0000000"
         style="stop-color:#989898;stop-opacity:1.0000000;" />
    </linearGradient>
    <linearGradient
       xlink:href="#defitem13"
       id="linearGradient3414"
       gradientUnits="userSpaceOnUse"
       x1="342.64999"
       y1="732.12903"
       x2="379.241"
       y2="686.83002" />
    <radialGradient
       gradientUnits="userSpaceOnUse"
       id="defitem12"
       fy="484.409"
       fx="632.78101"
       r="540.27899"
       cy="484.409"
       cx="632.78101">
      <stop
         id="stop41"
         offset="0.0000000"
         style="stop-color:#ffffff;stop-opacity:1.0000000;" />
      <stop
         id="stop42"
         offset="1.0000000"
         style="stop-color:#ededed;stop-opacity:1.0000000;" />
    </radialGradient>
    <radialGradient
       xlink:href="#defitem12"
       id="radialGradient3412"
       gradientUnits="userSpaceOnUse"
       cx="632.78101"
       cy="484.409"
       fx="632.78101"
       fy="484.409"
       r="540.27899" />
    <radialGradient
       xlink:href="#linearGradient3682"
       id="radialGradient3817"
       gradientUnits="userSpaceOnUse"
       gradientTransform="matrix(1.1149219,0.2722306,-0.7507171,3.0745639,-471.08629,-148.32863)"
       cx="270.58316"
       cy="33.899986"
       fx="270.58316"
       fy="33.899986"
       r="19.571428" />
    <linearGradient
       id="linearGradient3682">
      <stop
         style="stop-color:#ff6d0f;stop-opacity:1;"
         offset="0"
         id="stop3684" />
      <stop
         style="stop-color:#ff1000;stop-opacity:1;"
         offset="1"
         id="stop3686" />
    </linearGradient>
    <radialGradient
       xlink:href="#linearGradient3864"
       id="radialGradient3661"
       gradientUnits="userSpaceOnUse"
       gradientTransform="matrix(0.6186598,0.9666542,-1.0332462,0.6612786,-327.27568,-255.84136)"
       cx="282.64584"
       cy="29.149046"
       fx="282.64584"
       fy="29.149046"
       r="19.571428" />
    <linearGradient
       id="linearGradient3864">
      <stop
         id="stop3866"
         offset="0"
         style="stop-color:#71b2f8;stop-opacity:1;" />
      <stop
         id="stop3868"
         offset="1"
         style="stop-color:#002795;stop-opacity:1;" />
    </linearGradient>
  </defs>
  <path
     style="color:#000000;fill:#c8c8c8;fill-opacity:1;stroke:#000000;stroke-opacity:1;-inkscape-stroke:none"
     d="M 23.661084,14.155165 H 254.34662 l 0.0645,2.789063 v 0.0078 141.578122 0.01 l -0.0645,2.78711 H 23.661084 l -0.06445,-2.78711 v -0.01 -141.578122 -0.0078 z"
     id="path1290" />
  <g
     id="g5597"
     transform="translate(0,39.871102)">
    <path
       style="color:#000000;fill:#c8c8c8;fill-opacity:1;stroke:#000000;stroke-opacity:1;-inkscape-stroke:none"
       d="M 0.8496,0.5 V 0.851563 H 0.5332 0.5 v 94.039054 h 0.0332 0.3164 v 0.34961 h 0.0332 0.20703 0.12696 0.27539 0.002 0.58789 0.19141 0.58398 0.49023 0.46875 0.18164 0.95508 0.5625 0.74414 0.12696 1.34375 0.61914 1.00586 0.0859 1.68945 8.36914 29.851572 11.15038 11.90234 12.53906 13.05469 13.449218 13.71094 13.8457 13.84375 13.71094 13.44922 13.05664 12.53906 11.90039 11.15039 29.85353 10.05664 0.0859 1.00782 0.61914 0.39844 1.07226 0.74219 0.56445 0.23242 0.90235 0.46875 0.49023 0.084 0.69336 0.23437 0.35547 0.27539 0.125 0.0781 0.13086 0.0332 v -0.34961 h 0.3164 0.0332 V 0.851563 h -0.0332 -0.3164 V 0.5 h -0.0332 -0.13086 -0.0781 -0.125 -0.27539 -0.35547 -0.23437 -0.69336 -0.084 -0.49023 -0.46875 -0.90235 -0.23242 -0.56445 -0.74219 -1.07226 -0.39844 -0.61914 -1.00782 -0.0859 H 258.50777 228.65424 217.50385 205.60346 193.0644 180.00776 166.55854 152.8476 139.00385 125.15815 111.44721 97.997992 84.943302 72.404242 60.501902 49.351522 19.49995 11.13081 9.44136 9.35546 8.3496 7.73046 6.38671 6.25976 5.51562 4.95312 3.99804 3.8164 3.34765 2.85741 2.27343 2.08202 1.49413 1.49213 1.21674 1.08979 0.88276 Z"
       id="36" />
    <g
       id="g5217"
       transform="translate(-66.895998,-90.849838)"
       style="stroke-width:1;stroke-dasharray:none">
      <g
         id="g5202"
         style="stroke-width:1;stroke-dasharray:none">
        <path
           d="m 81.35988,155.78535 c -0.111,2.2138 -0.24,4.3356 -0.387,6.3655 -0.147,2.0332 -0.312,3.9721 -0.493,5.817 -0.181,1.8428 -0.379,3.5855 -0.586,5.1844 -0.207,1.597 -0.424,3.0561 -0.652,4.3774 -0.227,1.3232 -0.466,2.5145 -0.706,3.5361 -0.24,1.0201 -0.482,1.8752 -0.728,2.5652 -0.246,0.6943 -0.493,1.2199 -0.74,1.5769 -0.246,0.3543 -0.49,0.5315 -0.73,0.5316"
           id="path4666"
           style="fill:none;stroke:#000000;stroke-width:1;stroke-linecap:butt;stroke-linejoin:miter;stroke-dasharray:none" />
        <path
           id="8"
           d="m 81.35988,121.65455 v 34.1308"
           style="fill:none;stroke:#000000;stroke-width:1;stroke-linecap:butt;stroke-linejoin:miter;stroke-dasharray:none" />
        <path
           d="m 76.33788,91.70045 c 0.48,0.0032 0.969,0.7024 1.462,2.0847 0.246,0.6929 0.493,1.5603 0.733,2.5754 0.24,1.013 0.473,2.18 0.701,3.5011 0.227,1.3231 0.449,2.8066 0.657,4.4039 0.208,1.5956 0.402,3.3101 0.583,5.1435 0.18,1.8351 0.347,3.7942 0.496,5.843 0.149,2.051 0.279,4.1851 0.39,6.4025"
           id="path4669"
           style="fill:none;stroke:#000000;stroke-width:1;stroke-linecap:butt;stroke-linejoin:miter;stroke-dasharray:none" />
        <path
           d="m 116.24808,146.40599 -1.611,0.68574 -1.7483,0.6839 -1.8855,0.68191 -2.022,0.67981 -2.1582,0.6775 -2.2942,0.675 -2.429,0.6725 -2.563,0.6698 -2.698,0.6669 -2.832,0.6639 -2.964,0.6607 -3.096,0.6574 -3.228,0.6539 -3.359,0.6504"
           id="path4673"
           style="fill:none;stroke:#000000;stroke-width:1;stroke-linecap:butt;stroke-linejoin:miter;stroke-dasharray:none" />
        <path
           id="12"
           d="m 116.24808,131.03391 v 15.37208"
           style="fill:none;stroke:#000000;stroke-width:1;stroke-linecap:butt;stroke-linejoin:miter;stroke-dasharray:none" />
        <path
           d="m 81.35988,121.65455 3.359,0.6504 3.228,0.6539 3.096,0.6574 2.964,0.6607 2.832,0.6639 2.698,0.6669 2.563,0.6698 2.429,0.6725 2.2942,0.675 2.1582,0.6775 2.022,0.67981 1.8855,0.68191 1.7483,0.6839 1.611,0.68574"
           id="path4676"
           style="fill:none;stroke:#000000;stroke-width:1;stroke-linecap:butt;stroke-linejoin:miter;stroke-dasharray:none" />
        <path
           id="18"
           d="m 295.55168,131.03391 v 15.37208"
           style="fill:none;stroke:#000000;stroke-width:1;stroke-linecap:butt;stroke-linejoin:miter;stroke-dasharray:none" />
        <path
           d="m 330.43988,155.78535 -3.359,-0.6504 -3.228,-0.6539 -3.096,-0.6574 -2.964,-0.6607 -2.832,-0.6639 -2.698,-0.6669 -2.563,-0.6698 -2.429,-0.6725 -2.2942,-0.675 -2.1582,-0.6775 -2.022,-0.67981 -1.8855,-0.68191 -1.7483,-0.6839 -1.611,-0.68574"
           id="path4687"
           style="fill:none;stroke:#000000;stroke-width:1;stroke-linecap:butt;stroke-linejoin:miter;stroke-dasharray:none" />
        <path
           id="20"
           d="m 330.43988,121.65455 v 34.1308"
           style="fill:none;stroke:#000000;stroke-width:1;stroke-linecap:butt;stroke-linejoin:miter;stroke-dasharray:none" />
        <path
           d="m 295.55168,131.03391 1.611,-0.68574 1.7483,-0.6839 1.8855,-0.68191 2.022,-0.67981 2.1582,-0.6775 2.2942,-0.675 2.429,-0.6725 2.563,-0.6698 2.698,-0.6669 2.832,-0.6639 2.964,-0.6607 3.096,-0.6574 3.228,-0.6539 3.359,-0.6504"
           id="path4690"
           style="fill:none;stroke:#000000;stroke-width:1;stroke-linecap:butt;stroke-linejoin:miter;stroke-dasharray:none" />
        <path
           d="m 330.43988,155.78535 c 0.111,2.2138 0.24,4.3356 0.387,6.3655 0.147,2.0332 0.312,3.9721 0.493,5.817 0.181,1.8428 0.379,3.5855 0.586,5.1844 0.207,1.597 0.424,3.0561 0.652,4.3774 0.227,1.3232 0.466,2.5145 0.706,3.5361 0.24,1.0201 0.482,1.8752 0.728,2.5652 0.246,0.6943 0.493,1.2199 0.74,1.5769 0.246,0.3543 0.49,0.5315 0.73,0.5316"
           id="path4705"
           style="fill:none;stroke:#000000;stroke-width:1;stroke-linecap:butt;stroke-linejoin:miter;stroke-dasharray:none" />
        <path
           d="m 335.46188,91.70045 c -0.48,0.0032 -0.969,0.7024 -1.462,2.0847 -0.246,0.6929 -0.493,1.5603 -0.733,2.5754 -0.24,1.013 -0.473,2.18 -0.701,3.5011 -0.227,1.3231 -0.449,2.8066 -0.657,4.4039 -0.208,1.5956 -0.402,3.3101 -0.583,5.1435 -0.18,1.8351 -0.347,3.7942 -0.496,5.843 -0.149,2.051 -0.279,4.1851 -0.39,6.4025"
           id="path4711"
           style="fill:none;stroke:#000000;stroke-width:1;stroke-linecap:butt;stroke-linejoin:miter;stroke-dasharray:none" />
      </g>
    </g>
  </g>
  <g
     id="g6895"
     transform="translate(50.154269)">
    <path
       style="color:#000000;fill:#c8c8c8;fill-opacity:1;stroke:#000000;stroke-opacity:1;-inkscape-stroke:none"
       d="m 88.84961,0.5 c -38.42347,0 -72.3066,25.145413 -83.4668,61.890634 h -4.5332 v 0.34961 H 0.5 v 0.62695 1.84961 2.97852 3.95898 4.74024 5.2832 5.5625 5.56445 5.28321 4.740226 3.95899 2.97851 1.84766 0.62695 h 0.34961 v 0.35156 h 4.5332 c 11.16023,36.74518 45.04335,61.89064 83.4668,61.89063 38.42342,-1e-5 72.30461,-25.14548 83.46484,-61.89063 h 4.53516 v -0.35156 h 0.34961 v -0.62695 -1.84766 -2.97851 -3.95899 -4.740226 -5.28321 -5.56445 -5.5625 -5.2832 -4.74024 -3.95898 -2.97852 -1.84961 -0.62695 h -0.34961 v -0.34961 h -4.53516 C 161.15424,25.645433 127.27307,0.500001 88.84961,0.5 Z"
       id="path286" />
    <g
       id="g3923"
       transform="translate(160.65947,-12.653148)">
      <g
         id="g3917">
        <circle
           cx="-100.39436"
           cy="71.809853"
           r="59.669498"
           id="circle264"
           transform="matrix(0,-1,-1,0,0,0)"
           style="fill:none;stroke:#000000;stroke-width:0.7;stroke-linecap:butt;stroke-linejoin:miter" />
        <circle
           cx="-100.39436"
           cy="71.809853"
           r="61.177898"
           id="circle266"
           transform="matrix(0,-1,-1,0,0,0)"
           style="fill:none;stroke:#000000;stroke-width:0.7;stroke-linecap:butt;stroke-linejoin:miter" />
        <circle
           cx="-100.39436"
           cy="71.809853"
           r="77.163101"
           id="circle268"
           transform="matrix(0,-1,-1,0,0,0)"
           style="fill:none;stroke:#000000;stroke-width:0.7;stroke-linecap:butt;stroke-linejoin:miter" />
      </g>
    </g>
  </g>
</svg>
