<?xml version='1.0' encoding='ascii'?>
<svg xmlns="http://www.w3.org/2000/svg" version="1.1" width="1024" height="1024">
    <g id="ViewLayer_LineSet" xmlns:inkscape="http://www.inkscape.org/namespaces/inkscape" inkscape:groupmode="lineset" inkscape:label="ViewLayer_LineSet">
        <g xmlns:inkscape="http://www.inkscape.org/namespaces/inkscape" inkscape:groupmode="layer" id="strokes" inkscape:label="strokes">
            <path fill="none" stroke-width="3.0" stroke-linecap="butt" stroke-opacity="1.0" stroke="rgb(0, 0, 0)" stroke-linejoin="round" d=" M 530.609, 571.037 530.606, 578.321 531.684, 578.771 532.597, 578.906 " />
            <path fill="none" stroke-width="3.0" stroke-linecap="butt" stroke-opacity="1.0" stroke="rgb(0, 0, 0)" stroke-linejoin="round" d=" M 491.366, 578.907 492.283, 578.771 493.361, 578.321 493.358, 571.037 " />
            <path fill="none" stroke-width="3.0" stroke-linecap="butt" stroke-opacity="1.0" stroke="rgb(0, 0, 0)" stroke-linejoin="round" d=" M 532.601, 571.037 532.598, 577.688 532.597, 578.906 532.594, 585.408 533.803, 585.960 537.106, 586.499 542.415, 587.003 549.554, 587.450 558.259, 587.821 568.185, 588.099 578.184, 588.259 578.922, 588.271 588.922, 588.324 590.016, 588.329 600.016, 588.276 600.990, 588.271 610.989, 588.105 611.376, 588.099 620.733, 587.821 628.680, 587.450 634.905, 587.003 639.185, 586.499 641.386, 585.960 641.466, 585.408 641.461, 575.408 641.459, 571.037 " />
            <path fill="none" stroke-width="3.0" stroke-linecap="butt" stroke-opacity="1.0" stroke="rgb(0, 0, 0)" stroke-linejoin="round" d=" M 382.505, 571.037 382.500, 581.037 382.498, 585.408 382.578, 585.960 384.779, 586.499 389.058, 587.003 395.283, 587.450 403.230, 587.821 412.587, 588.099 422.586, 588.265 422.972, 588.271 432.972, 588.324 433.946, 588.329 443.946, 588.277 445.040, 588.271 455.039, 588.111 455.778, 588.099 465.703, 587.821 474.408, 587.450 481.548, 587.003 486.858, 586.499 490.161, 585.960 491.370, 585.408 491.366, 578.907 491.366, 577.687 491.362, 571.037 " />
            <path fill="none" stroke-width="3.0" stroke-linecap="butt" stroke-opacity="1.0" stroke="rgb(0, 0, 0)" stroke-linejoin="round" d=" M 569.156, 491.900 569.156, 486.155 567.708, 476.261 566.259, 466.366 564.811, 456.472 563.362, 446.577 563.073, 444.603 561.791, 440.917 559.220, 437.793 555.751, 435.706 551.912, 434.973 541.912, 434.973 531.912, 434.973 521.912, 434.973 511.912, 434.973 501.912, 434.973 491.912, 434.973 481.912, 434.973 471.573, 434.973 467.734, 435.706 464.265, 437.793 461.694, 440.917 460.412, 444.603 458.963, 454.497 457.514, 464.392 456.066, 474.287 454.617, 484.181 454.328, 486.155 454.328, 491.900 " />
            <path fill="none" stroke-width="3.0" stroke-linecap="butt" stroke-opacity="1.0" stroke="rgb(0, 0, 0)" stroke-linejoin="round" d=" M 669.918, 571.037 669.918, 561.037 669.918, 551.037 669.918, 541.037 669.918, 531.037 669.918, 521.037 669.918, 511.037 669.918, 501.037 669.918, 491.900 659.918, 491.900 649.918, 491.900 639.918, 491.900 629.918, 491.900 619.918, 491.900 609.918, 491.900 599.918, 491.900 589.918, 491.900 579.918, 491.900 569.156, 491.900 568.379, 491.900 564.209, 491.900 562.736, 491.900 559.334, 491.900 558.816, 491.900 548.816, 491.900 538.816, 491.900 528.816, 491.900 518.816, 491.900 512.248, 491.900 502.248, 491.900 492.248, 491.900 482.248, 491.900 472.248, 491.900 464.762, 491.900 464.240, 491.900 460.806, 491.900 459.319, 491.900 455.112, 491.900 454.328, 491.900 444.328, 491.900 434.328, 491.900 424.328, 491.900 414.328, 491.900 404.328, 491.900 394.328, 491.900 384.328, 491.900 374.328, 491.900 364.328, 491.900 353.565, 491.900 353.565, 501.900 353.565, 511.900 353.565, 521.900 353.565, 531.900 353.565, 541.900 353.565, 551.900 353.565, 561.900 353.565, 571.037 363.565, 571.037 373.565, 571.037 382.505, 571.037 392.505, 571.037 395.005, 571.037 405.005, 571.037 407.372, 571.037 417.372, 571.037 427.372, 571.037 437.372, 571.037 447.372, 571.037 457.372, 571.037 467.372, 571.037 477.372, 571.037 482.166, 571.037 491.362, 571.037 493.358, 571.037 503.358, 571.037 512.248, 571.037 522.248, 571.037 530.609, 571.037 532.601, 571.037 541.802, 571.037 551.802, 571.037 561.802, 571.037 571.802, 571.037 581.802, 571.037 591.802, 571.037 601.802, 571.037 611.802, 571.037 616.595, 571.037 626.595, 571.037 628.963, 571.037 638.963, 571.037 641.459, 571.037 651.459, 571.037 661.459, 571.037 669.918, 571.037 " />
        </g>
    </g>
</svg>
