<?xml version='1.0' encoding='ascii'?>
<svg xmlns="http://www.w3.org/2000/svg" version="1.1" width="1024" height="1024">
    <g id="ViewLayer_LineSet" xmlns:inkscape="http://www.inkscape.org/namespaces/inkscape" inkscape:groupmode="lineset" inkscape:label="ViewLayer_LineSet">
        <g xmlns:inkscape="http://www.inkscape.org/namespaces/inkscape" inkscape:groupmode="layer" id="strokes" inkscape:label="strokes">
            <path fill="none" stroke-width="3.0" stroke-linecap="butt" stroke-opacity="1.0" stroke="rgb(0, 0, 0)" stroke-linejoin="round" d=" M 566.377, 494.758 566.377, 489.320 564.929, 479.426 563.482, 469.531 562.034, 459.636 560.626, 450.012 559.414, 446.525 556.982, 443.569 553.701, 441.594 550.070, 440.901 540.070, 440.901 530.070, 440.901 520.070, 440.901 510.070, 440.901 500.070, 440.901 490.070, 440.901 480.070, 440.901 474.074, 440.901 470.443, 441.594 467.162, 443.569 464.730, 446.525 463.518, 450.012 462.071, 459.906 460.623, 469.801 459.176, 479.696 457.768, 489.320 457.768, 494.758 " />
            <path fill="none" stroke-width="3.0" stroke-linecap="butt" stroke-opacity="1.0" stroke="rgb(0, 0, 0)" stroke-linejoin="round" d=" M 661.672, 569.603 661.672, 559.603 661.672, 549.603 661.672, 539.603 661.672, 529.603 661.672, 519.603 661.672, 509.603 661.672, 499.603 661.672, 494.758 651.672, 494.758 641.672, 494.758 631.672, 494.758 621.672, 494.758 611.672, 494.758 601.672, 494.758 591.672, 494.758 581.672, 494.758 571.672, 494.758 566.377, 494.758 565.677, 494.758 561.904, 494.758 561.332, 494.758 551.332, 494.758 541.332, 494.758 531.332, 494.758 521.332, 494.758 512.551, 494.758 502.551, 494.758 492.551, 494.758 482.551, 494.758 472.551, 494.758 462.799, 494.758 462.222, 494.758 458.466, 494.758 457.768, 494.758 447.768, 494.758 437.768, 494.758 427.768, 494.758 417.768, 494.758 407.768, 494.758 397.768, 494.758 387.768, 494.758 377.768, 494.758 367.768, 494.758 362.473, 494.758 362.473, 504.758 362.473, 514.758 362.473, 524.758 362.473, 534.758 362.473, 544.758 362.473, 554.758 362.473, 564.758 362.473, 569.603 372.473, 569.603 382.473, 569.603 389.082, 569.603 399.082, 569.603 409.082, 569.603 419.082, 569.603 429.082, 569.603 439.082, 569.603 449.082, 569.603 459.082, 569.603 469.082, 569.603 479.082, 569.603 489.082, 569.603 492.427, 569.603 502.427, 569.603 512.551, 569.603 522.551, 569.603 531.572, 569.603 541.572, 569.603 551.572, 569.603 561.572, 569.603 571.572, 569.603 581.572, 569.603 591.572, 569.603 601.572, 569.603 611.572, 569.603 621.572, 569.603 631.572, 569.603 634.918, 569.603 644.918, 569.603 654.918, 569.603 661.672, 569.603 " />
            <path fill="none" stroke-width="3.0" stroke-linecap="butt" stroke-opacity="1.0" stroke="rgb(0, 0, 0)" stroke-linejoin="round" d=" M 531.572, 569.603 531.568, 579.603 531.568, 579.736 532.707, 580.220 535.833, 580.692 540.859, 581.132 547.619, 581.523 555.860, 581.847 565.257, 582.089 575.256, 582.237 575.424, 582.240 585.424, 582.288 585.932, 582.290 595.932, 582.242 596.333, 582.240 606.183, 582.089 615.070, 581.847 622.629, 581.523 628.567, 581.132 632.667, 580.692 634.800, 580.220 634.923, 579.736 634.918, 569.736 634.918, 569.603 " />
            <path fill="none" stroke-width="3.0" stroke-linecap="butt" stroke-opacity="1.0" stroke="rgb(0, 0, 0)" stroke-linejoin="round" d=" M 389.082, 569.603 389.077, 579.603 389.077, 579.736 389.199, 580.220 391.333, 580.692 395.433, 581.132 401.370, 581.523 408.930, 581.847 417.816, 582.089 427.667, 582.240 437.667, 582.289 438.068, 582.290 448.068, 582.242 448.576, 582.240 458.575, 582.092 458.743, 582.089 468.140, 581.847 476.381, 581.523 483.140, 581.132 488.167, 580.692 491.292, 580.220 492.432, 579.736 492.427, 569.736 492.427, 569.603 " />
        </g>
    </g>
</svg>
