<?xml version="1.0" encoding="UTF-8"?>
<svg xmlns="http://www.w3.org/2000/svg" xmlns:xlink="http://www.w3.org/1999/xlink" width="566.893424pt" height="235.260771pt" viewBox="0 0 566.893424 235.260771" version="1.1">
<g id="surface6">
<path style="fill:none;stroke-width:0.708617;stroke-linecap:round;stroke-linejoin:round;stroke:rgb(0%,0%,0%);stroke-opacity:1;stroke-miterlimit:10;" d="M 306.0625 227.828125 L 299.941406 228.644531 L 283.445312 229.378906 L 266.953125 228.644531 L 260.828125 227.828125 "/>
<path style="fill:none;stroke-width:0.708617;stroke-linecap:round;stroke-linejoin:round;stroke:rgb(0%,0%,0%);stroke-opacity:1;stroke-miterlimit:10;" d="M 266.949219 6.613281 L 283.445312 5.882812 L 299.941406 6.613281 L 303.675781 7.113281 "/>
<path style="fill:none;stroke-width:0.708617;stroke-linecap:round;stroke-linejoin:round;stroke:rgb(0%,0%,0%);stroke-opacity:1;stroke-miterlimit:10;" d="M 266.949219 6.613281 L 263.21875 7.113281 "/>
<path style="fill:none;stroke-width:0.708617;stroke-linecap:round;stroke-linejoin:round;stroke:rgb(0%,0%,0%);stroke-opacity:1;stroke-miterlimit:10;" d="M 283.445312 7.433594 L 283.445312 5.882812 "/>
<path style="fill:none;stroke-width:0.708617;stroke-linecap:round;stroke-linejoin:round;stroke:rgb(0%,0%,0%);stroke-opacity:1;stroke-miterlimit:10;" d="M 283.445312 229.378906 L 283.445312 227.828125 "/>
<path style="fill:none;stroke-width:0.708617;stroke-linecap:round;stroke-linejoin:round;stroke:rgb(0%,0%,0%);stroke-opacity:1;stroke-miterlimit:10;" d="M 406.25 226.46875 L 406.25 227.828125 L 411.613281 227.375 L 417.070312 225.941406 L 422.355469 223.46875 L 427.183594 220.015625 "/>
<path style="fill:none;stroke-width:0.708617;stroke-linecap:round;stroke-linejoin:round;stroke:rgb(0%,0%,0%);stroke-opacity:1;stroke-miterlimit:10;" d="M 417.070312 9.320312 L 411.613281 7.886719 L 406.25 7.433594 L 312.773438 7.433594 "/>
<path style="fill:none;stroke-width:0.708617;stroke-linecap:round;stroke-linejoin:round;stroke:rgb(0%,0%,0%);stroke-opacity:1;stroke-miterlimit:10;" d="M 406.25 227.828125 L 160.640625 227.828125 L 160.640625 226.46875 "/>
<path style="fill:none;stroke-width:0.708617;stroke-linecap:round;stroke-linejoin:round;stroke:rgb(0%,0%,0%);stroke-opacity:1;stroke-miterlimit:10;" d="M 160.640625 10.300781 L 160.640625 13.726562 L 406.25 13.726562 L 406.253906 10.300781 L 406.25 8.792969 L 406.25 7.433594 "/>
<path style="fill:none;stroke-width:0.708617;stroke-linecap:round;stroke-linejoin:round;stroke:rgb(0%,0%,0%);stroke-opacity:1;stroke-miterlimit:10;" d="M 437.367188 34.9375 L 437.871094 34.863281 L 436.667969 29.621094 "/>
<path style="fill:none;stroke-width:0.708617;stroke-linecap:round;stroke-linejoin:round;stroke:rgb(0%,0%,0%);stroke-opacity:1;stroke-miterlimit:10;" d="M 427.183594 220.015625 L 431.285156 215.726562 L 434.476562 210.839844 L 436.667969 205.640625 L 437.871094 200.398438 L 437.367188 200.324219 L 436.527344 200.207031 "/>
<path style="fill:none;stroke-width:0.708617;stroke-linecap:round;stroke-linejoin:round;stroke:rgb(0%,0%,0%);stroke-opacity:1;stroke-miterlimit:10;" d="M 438.359375 39.417969 L 437.871094 34.863281 "/>
<path style="fill:none;stroke-width:0.708617;stroke-linecap:round;stroke-linejoin:round;stroke:rgb(0%,0%,0%);stroke-opacity:1;stroke-miterlimit:10;" d="M 437.871094 200.398438 L 438.359375 195.84375 "/>
<path style="fill:none;stroke-width:0.708617;stroke-linecap:round;stroke-linejoin:round;stroke:rgb(0%,0%,0%);stroke-opacity:1;stroke-miterlimit:10;" d="M 293.386719 7.433594 L 272.199219 7.433594 "/>
<path style="fill:none;stroke-width:0.708617;stroke-linecap:round;stroke-linejoin:round;stroke:rgb(0%,0%,0%);stroke-opacity:1;stroke-miterlimit:10;" d="M 441.136719 169.800781 L 442.273438 159.171875 L 443.746094 117.628906 L 442.273438 76.089844 L 441.136719 65.460938 "/>
<path style="fill:none;stroke-width:0.708617;stroke-linecap:round;stroke-linejoin:round;stroke:rgb(0%,0%,0%);stroke-opacity:1;stroke-miterlimit:10;" d="M 252.808594 7.433594 L 160.640625 7.433594 "/>
<path style="fill:none;stroke-width:0.708617;stroke-linecap:round;stroke-linejoin:round;stroke:rgb(0%,0%,0%);stroke-opacity:1;stroke-miterlimit:10;" d="M 149.824219 225.941406 L 144.539062 223.46875 L 139.710938 220.015625 L 135.609375 215.726562 L 132.417969 210.839844 "/>
<path style="fill:none;stroke-width:0.708617;stroke-linecap:round;stroke-linejoin:round;stroke:rgb(0%,0%,0%);stroke-opacity:1;stroke-miterlimit:10;" d="M 139.710938 15.246094 L 144.539062 11.789062 L 149.824219 9.320312 L 155.28125 7.886719 "/>
<path style="fill:none;stroke-width:0.708617;stroke-linecap:round;stroke-linejoin:round;stroke:rgb(0%,0%,0%);stroke-opacity:1;stroke-miterlimit:10;" d="M 139.710938 15.246094 L 135.609375 19.535156 L 132.417969 24.421875 L 130.226562 29.621094 "/>
<path style="fill:none;stroke-width:0.708617;stroke-linecap:round;stroke-linejoin:round;stroke:rgb(0%,0%,0%);stroke-opacity:1;stroke-miterlimit:10;" d="M 125.753906 65.460938 L 124.621094 76.089844 L 123.144531 117.628906 "/>
<path style="fill:none;stroke-width:0.708617;stroke-linecap:round;stroke-linejoin:round;stroke:rgb(0%,0%,0%);stroke-opacity:1;stroke-miterlimit:10;" d="M 123.144531 117.628906 L 124.621094 159.171875 L 125.753906 169.800781 "/>
<path style="fill:none;stroke-width:0.708617;stroke-linecap:round;stroke-linejoin:round;stroke:rgb(0%,0%,0%);stroke-opacity:1;stroke-miterlimit:10;" d="M 128.535156 195.84375 L 129.019531 200.398438 L 130.226562 205.640625 L 132.417969 210.839844 "/>
<path style="fill:none;stroke-width:0.708617;stroke-linecap:round;stroke-linejoin:round;stroke:rgb(0%,0%,0%);stroke-opacity:1;stroke-miterlimit:10;" d="M 129.527344 34.9375 L 129.019531 34.863281 L 130.226562 29.621094 "/>
<path style="fill:none;stroke-width:0.708617;stroke-linecap:round;stroke-linejoin:round;stroke:rgb(0%,0%,0%);stroke-opacity:1;stroke-miterlimit:10;" d="M 160.640625 10.300781 L 160.640625 7.433594 L 155.28125 7.886719 "/>
<path style="fill:none;stroke-width:0.708617;stroke-linecap:round;stroke-linejoin:round;stroke:rgb(0%,0%,0%);stroke-opacity:1;stroke-miterlimit:10;" d="M 149.824219 225.941406 L 155.28125 227.375 L 160.640625 227.828125 "/>
<path style="fill:none;stroke-width:0.708617;stroke-linecap:round;stroke-linejoin:round;stroke:rgb(0%,0%,0%);stroke-opacity:1;stroke-miterlimit:10;" d="M 417.070312 9.320312 L 422.355469 11.789062 L 427.183594 15.246094 L 431.285156 19.535156 L 434.476562 24.421875 L 436.667969 29.621094 "/>
<path style="fill:none;stroke-width:0.708617;stroke-linecap:round;stroke-linejoin:round;stroke:rgb(0%,0%,0%);stroke-opacity:1;stroke-miterlimit:10;" d="M 129.019531 34.863281 L 128.535156 39.417969 "/>
<path style="fill:none;stroke-width:0.708617;stroke-linecap:round;stroke-linejoin:round;stroke:rgb(0%,0%,0%);stroke-opacity:1;stroke-miterlimit:10;" d="M 129.019531 200.398438 L 129.527344 200.324219 L 130.363281 200.207031 "/>
<path style="fill:none;stroke-width:0.708617;stroke-linecap:round;stroke-linejoin:round;stroke:rgb(0%,0%,0%);stroke-opacity:1;stroke-miterlimit:10;" d="M 210.792969 226.46875 L 210.792969 227.449219 L 217.316406 227.652344 L 217.316406 224.457031 L 223.25 224.457031 "/>
<path style="fill:none;stroke-width:0.708617;stroke-linecap:round;stroke-linejoin:round;stroke:rgb(0%,0%,0%);stroke-opacity:1;stroke-miterlimit:10;" d="M 211.65625 224.285156 L 217.316406 224.457031 "/>
<path style="fill:none;stroke-width:0.708617;stroke-linecap:round;stroke-linejoin:round;stroke:rgb(0%,0%,0%);stroke-opacity:1;stroke-miterlimit:10;" d="M 284.351562 224.457031 L 271.246094 224.457031 "/>
<path style="fill:none;stroke-width:0.708617;stroke-linecap:round;stroke-linejoin:round;stroke:rgb(0%,0%,0%);stroke-opacity:1;stroke-miterlimit:10;" d="M 356.855469 224.285156 L 351.195312 224.457031 L 331.804688 224.457031 "/>
<path style="fill:none;stroke-width:0.708617;stroke-linecap:round;stroke-linejoin:round;stroke:rgb(0%,0%,0%);stroke-opacity:1;stroke-miterlimit:10;" d="M 351.195312 227.652344 L 351.195312 224.457031 "/>
<path style="fill:none;stroke-width:0.708617;stroke-linecap:round;stroke-linejoin:round;stroke:rgb(0%,0%,0%);stroke-opacity:1;stroke-miterlimit:10;" d="M 357.71875 226.46875 L 357.71875 224.441406 L 357.71875 227.449219 L 351.195312 227.652344 L 217.316406 227.652344 "/>
<path style="fill:none;stroke-width:0.708617;stroke-linecap:round;stroke-linejoin:round;stroke:rgb(0%,0%,0%);stroke-opacity:1;stroke-miterlimit:10;" d="M 210.507812 7.613281 L 210.507812 11.898438 L 210.507812 8.792969 "/>
<path style="fill:none;stroke-width:0.708617;stroke-linecap:round;stroke-linejoin:round;stroke:rgb(0%,0%,0%);stroke-opacity:1;stroke-miterlimit:10;" d="M 210.507812 7.613281 L 252.808594 7.613281 "/>
<path style="fill:none;stroke-width:0.708617;stroke-linecap:round;stroke-linejoin:round;stroke:rgb(0%,0%,0%);stroke-opacity:1;stroke-miterlimit:10;" d="M 272.199219 7.613281 L 293.386719 7.613281 "/>
<path style="fill:none;stroke-width:0.708617;stroke-linecap:round;stroke-linejoin:round;stroke:rgb(0%,0%,0%);stroke-opacity:1;stroke-miterlimit:10;" d="M 312.773438 7.613281 L 356.382812 7.613281 L 356.382812 8.792969 "/>
<path style="fill:none;stroke-width:0.708617;stroke-linecap:round;stroke-linejoin:round;stroke:rgb(0%,0%,0%);stroke-opacity:1;stroke-miterlimit:10;" d="M 251.9375 227.527344 L 247.246094 227.539062 L 264.230469 227.292969 L 230.261719 227.292969 L 242.554688 227.527344 L 233.894531 227.402344 "/>
<path style="fill:none;stroke-width:0.708617;stroke-linecap:round;stroke-linejoin:round;stroke:rgb(0%,0%,0%);stroke-opacity:1;stroke-miterlimit:10;" d="M 238.046875 227.480469 L 242.554688 227.527344 L 247.246094 227.539062 L 230.261719 227.292969 "/>
<path style="fill:none;stroke-width:0.708617;stroke-linecap:round;stroke-linejoin:round;stroke:rgb(0%,0%,0%);stroke-opacity:1;stroke-miterlimit:10;" d="M 264.230469 227.292969 L 251.9375 227.527344 L 260.597656 227.402344 L 256.449219 227.480469 L 251.9375 227.527344 "/>
<path style="fill:none;stroke-width:0.708617;stroke-linecap:round;stroke-linejoin:round;stroke:rgb(0%,0%,0%);stroke-opacity:1;stroke-miterlimit:10;" d="M 238.046875 227.480469 L 233.894531 227.402344 L 230.261719 227.292969 L 227.285156 227.144531 "/>
<path style="fill:none;stroke-width:0.708617;stroke-linecap:round;stroke-linejoin:round;stroke:rgb(0%,0%,0%);stroke-opacity:1;stroke-miterlimit:10;" d="M 210.792969 224.441406 L 210.792969 227.449219 "/>
<path style="fill:none;stroke-width:0.708617;stroke-linecap:round;stroke-linejoin:round;stroke:rgb(0%,0%,0%);stroke-opacity:1;stroke-miterlimit:10;" d="M 223.707031 226.746094 L 225.074219 226.960938 L 227.285156 227.144531 L 267.207031 227.144531 L 264.230469 227.292969 L 260.597656 227.402344 "/>
<path style="fill:none;stroke-width:0.708617;stroke-linecap:round;stroke-linejoin:round;stroke:rgb(0%,0%,0%);stroke-opacity:1;stroke-miterlimit:10;" d="M 440.976562 65.460938 L 451.980469 65.460938 "/>
<path style="fill:none;stroke-width:0.708617;stroke-linecap:round;stroke-linejoin:round;stroke:rgb(0%,0%,0%);stroke-opacity:1;stroke-miterlimit:10;" d="M 461.6875 117.628906 L 461.242188 108.011719 "/>
<path style="fill:none;stroke-width:0.708617;stroke-linecap:round;stroke-linejoin:round;stroke:rgb(0%,0%,0%);stroke-opacity:1;stroke-miterlimit:10;" d="M 440.976562 169.800781 L 451.980469 169.800781 L 439.640625 169.800781 L 440.058594 169.800781 "/>
<path style="fill:none;stroke-width:0.708617;stroke-linecap:round;stroke-linejoin:round;stroke:rgb(0%,0%,0%);stroke-opacity:1;stroke-miterlimit:10;" d="M 114.910156 169.800781 L 110.746094 157.339844 L 107.695312 144.386719 L 105.832031 131.09375 L 105.203125 117.628906 L 105.832031 104.164062 L 107.695312 90.875 "/>
<path style="fill:none;stroke-width:0.708617;stroke-linecap:round;stroke-linejoin:round;stroke:rgb(0%,0%,0%);stroke-opacity:1;stroke-miterlimit:10;" d="M 110.746094 77.921875 L 114.910156 65.460938 L 110.746094 77.921875 L 107.695312 90.875 L 110.746094 77.921875 "/>
<path style="fill:none;stroke-width:0.708617;stroke-linecap:round;stroke-linejoin:round;stroke:rgb(0%,0%,0%);stroke-opacity:1;stroke-miterlimit:10;" d="M 472.683594 77.773438 L 476.464844 97.460938 L 477.742188 117.628906 L 476.464844 97.460938 L 472.683594 77.773438 "/>
<path style="fill:none;stroke-width:0.708617;stroke-linecap:round;stroke-linejoin:round;stroke:rgb(0%,0%,0%);stroke-opacity:1;stroke-miterlimit:10;" d="M 472.683594 157.488281 L 476.464844 137.796875 L 477.742188 117.628906 L 476.464844 137.796875 L 472.683594 157.488281 L 466.578125 176.253906 L 458.421875 193.722656 L 436.691406 196.019531 "/>
<path style="fill:none;stroke-width:0.708617;stroke-linecap:round;stroke-linejoin:round;stroke:rgb(0%,0%,0%);stroke-opacity:1;stroke-miterlimit:10;" d="M 451.980469 65.460938 L 439.640625 65.460938 L 436.691406 39.242188 L 458.421875 41.539062 L 466.578125 59.007812 L 472.683594 77.773438 L 468.613281 65.261719 "/>
<path style="fill:none;stroke-width:0.708617;stroke-linecap:round;stroke-linejoin:round;stroke:rgb(0%,0%,0%);stroke-opacity:1;stroke-miterlimit:10;" d="M 94.210938 77.773438 L 90.429688 97.460938 L 94.210938 77.773438 L 95.953125 72.410156 "/>
<path style="fill:none;stroke-width:0.708617;stroke-linecap:round;stroke-linejoin:round;stroke:rgb(0%,0%,0%);stroke-opacity:1;stroke-miterlimit:10;" d="M 90.429688 97.460938 L 89.148438 117.628906 L 90.429688 137.796875 L 94.210938 157.488281 L 95.953125 162.847656 "/>
<path style="fill:none;stroke-width:0.708617;stroke-linecap:round;stroke-linejoin:round;stroke:rgb(0%,0%,0%);stroke-opacity:1;stroke-miterlimit:10;" d="M 107.109375 44.449219 L 108.46875 41.539062 L 109.691406 41.410156 "/>
<path style="fill:none;stroke-width:0.708617;stroke-linecap:round;stroke-linejoin:round;stroke:rgb(0%,0%,0%);stroke-opacity:1;stroke-miterlimit:10;" d="M 107.109375 190.8125 L 108.46875 193.722656 L 130.199219 196.019531 L 127.25 169.800781 L 126.835938 169.800781 "/>
<path style="fill:none;stroke-width:0.708617;stroke-linecap:round;stroke-linejoin:round;stroke:rgb(0%,0%,0%);stroke-opacity:1;stroke-miterlimit:10;" d="M 90.429688 97.460938 L 89.148438 117.628906 L 90.429688 137.796875 L 94.210938 157.488281 "/>
<path style="fill:none;stroke-width:0.708617;stroke-linecap:round;stroke-linejoin:round;stroke:rgb(0%,0%,0%);stroke-opacity:1;stroke-miterlimit:10;" d="M 94.210938 157.488281 L 100.3125 176.253906 L 108.46875 193.722656 L 109.714844 193.855469 "/>
<path style="fill:none;stroke-width:0.708617;stroke-linecap:round;stroke-linejoin:round;stroke:rgb(0%,0%,0%);stroke-opacity:1;stroke-miterlimit:10;" d="M 127.25 169.800781 L 114.910156 169.800781 L 125.917969 169.800781 "/>
<path style="fill:none;stroke-width:0.708617;stroke-linecap:round;stroke-linejoin:round;stroke:rgb(0%,0%,0%);stroke-opacity:1;stroke-miterlimit:10;" d="M 126.835938 65.460938 L 127.25 65.460938 L 114.910156 65.460938 L 125.917969 65.460938 "/>
<path style="fill:none;stroke-width:0.708617;stroke-linecap:round;stroke-linejoin:round;stroke:rgb(0%,0%,0%);stroke-opacity:1;stroke-miterlimit:10;" d="M 438.050781 195.875 L 438.054688 195.875 "/>
<path style="fill:none;stroke-width:0.708617;stroke-linecap:round;stroke-linejoin:round;stroke:rgb(0%,0%,0%);stroke-opacity:1;stroke-miterlimit:10;" d="M 284.351562 224.152344 L 284.351562 226.476562 "/>
<path style="fill:none;stroke-width:0.708617;stroke-linecap:round;stroke-linejoin:round;stroke:rgb(0%,0%,0%);stroke-opacity:1;stroke-miterlimit:10;" d="M 284.351562 223.269531 L 284.351562 227.34375 L 331.804688 227.34375 L 331.804688 224.90625 "/>
<path style="fill:none;stroke-width:0.708617;stroke-linecap:round;stroke-linejoin:round;stroke:rgb(0%,0%,0%);stroke-opacity:1;stroke-miterlimit:10;" d="M 437.367188 34.9375 L 436.527344 35.054688 L 435.035156 35.269531 L 431.644531 35.753906 "/>
<path style="fill:none;stroke-width:0.708617;stroke-linecap:round;stroke-linejoin:round;stroke:rgb(0%,0%,0%);stroke-opacity:1;stroke-miterlimit:10;" d="M 437.367188 200.324219 L 435.375 205.222656 L 433.277344 210.203125 "/>
<path style="fill:none;stroke-width:0.708617;stroke-linecap:round;stroke-linejoin:round;stroke:rgb(0%,0%,0%);stroke-opacity:1;stroke-miterlimit:10;" d="M 437.367188 34.9375 L 435.375 30.035156 L 433.277344 25.058594 "/>
<path style="fill:none;stroke-width:0.708617;stroke-linecap:round;stroke-linejoin:round;stroke:rgb(0%,0%,0%);stroke-opacity:1;stroke-miterlimit:10;" d="M 129.527344 34.9375 L 130.363281 35.054688 L 131.859375 35.269531 "/>
<path style="fill:none;stroke-width:0.708617;stroke-linecap:round;stroke-linejoin:round;stroke:rgb(0%,0%,0%);stroke-opacity:1;stroke-miterlimit:10;" d="M 133.617188 210.203125 L 131.519531 205.222656 L 129.527344 200.324219 "/>
<path style="fill:none;stroke-width:0.708617;stroke-linecap:round;stroke-linejoin:round;stroke:rgb(0%,0%,0%);stroke-opacity:1;stroke-miterlimit:10;" d="M 133.617188 25.058594 L 131.519531 30.035156 L 129.527344 34.9375 "/>
<path style="fill:none;stroke-width:0.708617;stroke-linecap:round;stroke-linejoin:round;stroke:rgb(0%,0%,0%);stroke-opacity:1;stroke-miterlimit:10;" d="M 270.785156 226.746094 L 269.421875 226.960938 L 267.207031 227.144531 "/>
<path style="fill:none;stroke-width:0.708617;stroke-linecap:round;stroke-linejoin:round;stroke:rgb(0%,0%,0%);stroke-opacity:1;stroke-miterlimit:10;" d="M 225.074219 226.960938 L 269.421875 226.960938 "/>
<path style="fill:none;stroke-width:0.708617;stroke-linecap:round;stroke-linejoin:round;stroke:rgb(0%,0%,0%);stroke-opacity:1;stroke-miterlimit:10;" d="M 264.390625 7.113281 L 262.503906 7.113281 L 264.390625 7.113281 "/>
<path style="fill:none;stroke-width:0.708617;stroke-linecap:round;stroke-linejoin:round;stroke:rgb(0%,0%,0%);stroke-opacity:1;stroke-miterlimit:10;" d="M 299.375 7.113281 L 297.695312 7.113281 L 304.96875 7.113281 "/>
<path style="fill:none;stroke-width:0.708617;stroke-linecap:round;stroke-linejoin:round;stroke:rgb(0%,0%,0%);stroke-opacity:1;stroke-miterlimit:10;" d="M 260.617188 7.113281 L 262.503906 7.113281 L 258.796875 7.113281 Z M 260.617188 7.113281 "/>
<path style="fill:none;stroke-width:0.708617;stroke-linecap:round;stroke-linejoin:round;stroke:rgb(0%,0%,0%);stroke-opacity:1;stroke-miterlimit:10;" d="M 299.375 7.113281 L 306.785156 7.113281 L 304.96875 7.113281 "/>
<path style="fill:none;stroke-width:0.708617;stroke-linecap:round;stroke-linejoin:round;stroke:rgb(0%,0%,0%);stroke-opacity:1;stroke-miterlimit:10;" d="M 266.210938 7.113281 L 264.390625 7.113281 L 267.886719 7.113281 "/>
<path style="fill:none;stroke-width:0.708617;stroke-linecap:round;stroke-linejoin:round;stroke:rgb(0%,0%,0%);stroke-opacity:1;stroke-miterlimit:10;" d="M 266.210938 7.113281 L 271.449219 7.113281 L 267.886719 7.113281 "/>
<path style="fill:none;stroke-width:0.708617;stroke-linecap:round;stroke-linejoin:round;stroke:rgb(0%,0%,0%);stroke-opacity:1;stroke-miterlimit:10;" d="M 312.027344 7.113281 L 312.773438 7.113281 L 306.785156 7.113281 L 308.464844 7.113281 "/>
<path style="fill:none;stroke-width:0.708617;stroke-linecap:round;stroke-linejoin:round;stroke:rgb(0%,0%,0%);stroke-opacity:1;stroke-miterlimit:10;" d="M 257.121094 7.113281 L 258.796875 7.113281 L 253 7.113281 "/>
<path style="fill:none;stroke-width:0.708617;stroke-linecap:round;stroke-linejoin:round;stroke:rgb(0%,0%,0%);stroke-opacity:1;stroke-miterlimit:10;" d="M 252.808594 7.113281 L 257.121094 7.113281 "/>
<path style="fill:none;stroke-width:0.708617;stroke-linecap:round;stroke-linejoin:round;stroke:rgb(0%,0%,0%);stroke-opacity:1;stroke-miterlimit:10;" d="M 295.027344 7.113281 L 297.695312 7.113281 L 294.132812 7.113281 Z M 295.027344 7.113281 "/>
<path style="fill:none;stroke-width:0.708617;stroke-linecap:round;stroke-linejoin:round;stroke:rgb(0%,0%,0%);stroke-opacity:1;stroke-miterlimit:10;" d="M 331.804688 223.53125 L 331.804688 223.269531 L 331.804688 224.90625 L 284.351562 224.90625 "/>
<path style="fill:none;stroke-width:0.708617;stroke-linecap:round;stroke-linejoin:round;stroke:rgb(0%,0%,0%);stroke-opacity:1;stroke-miterlimit:10;" d="M 223.703125 226.226562 L 270.789062 226.226562 L 271.246094 226.507812 L 270.785156 226.746094 L 223.707031 226.746094 L 223.25 226.507812 "/>
<path style="fill:none;stroke-width:0.708617;stroke-linecap:round;stroke-linejoin:round;stroke:rgb(0%,0%,0%);stroke-opacity:1;stroke-miterlimit:10;" d="M 272.007812 7.113281 L 272.199219 7.113281 L 271.449219 7.113281 Z M 272.007812 7.113281 "/>
<path style="fill:none;stroke-width:0.708617;stroke-linecap:round;stroke-linejoin:round;stroke:rgb(0%,0%,0%);stroke-opacity:1;stroke-miterlimit:10;" d="M 293.386719 11.898438 L 293.386719 7.113281 L 294.132812 7.113281 L 293.386719 7.113281 "/>
<path style="fill:none;stroke-width:0.708617;stroke-linecap:round;stroke-linejoin:round;stroke:rgb(0%,0%,0%);stroke-opacity:1;stroke-miterlimit:10;" d="M 271.226562 223.269531 L 271.246094 223.316406 L 271.246094 226.507812 L 223.25 226.507812 "/>
<path style="fill:none;stroke-width:0.708617;stroke-linecap:round;stroke-linejoin:round;stroke:rgb(0%,0%,0%);stroke-opacity:1;stroke-miterlimit:10;" d="M 267.226562 225.507812 L 269.429688 225.890625 L 225.0625 225.890625 L 223.703125 226.226562 L 223.25 226.507812 L 223.25 223.316406 L 223.265625 223.269531 "/>
<path style="fill:none;stroke-width:0.708617;stroke-linecap:round;stroke-linejoin:round;stroke:rgb(0%,0%,0%);stroke-opacity:1;stroke-miterlimit:10;" d="M 410.554688 221.171875 L 406.25 221.535156 L 406.253906 224.960938 L 406.25 226.46875 "/>
<path style="fill:none;stroke-width:0.708617;stroke-linecap:round;stroke-linejoin:round;stroke:rgb(0%,0%,0%);stroke-opacity:1;stroke-miterlimit:10;" d="M 210.792969 226.46875 L 210.792969 224.441406 L 217.316406 223.269531 "/>
<path style="fill:none;stroke-width:0.708617;stroke-linecap:round;stroke-linejoin:round;stroke:rgb(0%,0%,0%);stroke-opacity:1;stroke-miterlimit:10;" d="M 439.640625 65.460938 L 440.058594 65.460938 "/>
<path style="fill:none;stroke-width:0.708617;stroke-linecap:round;stroke-linejoin:round;stroke:rgb(0%,0%,0%);stroke-opacity:1;stroke-miterlimit:10;" d="M 210.507812 11.898438 L 356.382812 11.898438 L 356.382812 8.792969 "/>
<path style="fill:none;stroke-width:0.708617;stroke-linecap:round;stroke-linejoin:round;stroke:rgb(0%,0%,0%);stroke-opacity:1;stroke-miterlimit:10;" d="M 129.4375 117.628906 L 130.898438 158.722656 L 135.25 199.507812 L 131.859375 199.992188 L 130.363281 200.207031 "/>
<path style="fill:none;stroke-width:0.708617;stroke-linecap:round;stroke-linejoin:round;stroke:rgb(0%,0%,0%);stroke-opacity:1;stroke-miterlimit:10;" d="M 435.996094 76.535156 L 437.453125 117.628906 L 435.996094 158.722656 L 431.644531 199.507812 L 435.035156 199.992188 L 436.527344 200.207031 "/>
<path style="fill:none;stroke-width:0.708617;stroke-linecap:round;stroke-linejoin:round;stroke:rgb(0%,0%,0%);stroke-opacity:1;stroke-miterlimit:10;" d="M 160.640625 221.535156 L 160.640625 226.46875 "/>
<path style="fill:none;stroke-width:0.708617;stroke-linecap:round;stroke-linejoin:round;stroke:rgb(0%,0%,0%);stroke-opacity:1;stroke-miterlimit:10;" d="M 252.808594 11.898438 L 252.808594 7.113281 L 253 7.113281 "/>
<path style="fill:none;stroke-width:0.708617;stroke-linecap:round;stroke-linejoin:round;stroke:rgb(0%,0%,0%);stroke-opacity:1;stroke-miterlimit:10;" d="M 272.199219 11.898438 L 272.199219 7.113281 "/>
<path style="fill:none;stroke-width:0.708617;stroke-linecap:round;stroke-linejoin:round;stroke:rgb(0%,0%,0%);stroke-opacity:1;stroke-miterlimit:10;" d="M 312.773438 11.898438 L 312.773438 7.113281 "/>
<path style="fill:none;stroke-width:0.708617;stroke-linecap:round;stroke-linejoin:round;stroke:rgb(0%,0%,0%);stroke-opacity:1;stroke-miterlimit:10;" d="M 270.789062 226.226562 L 269.429688 225.890625 "/>
<path style="fill:none;stroke-width:0.708617;stroke-linecap:round;stroke-linejoin:round;stroke:rgb(0%,0%,0%);stroke-opacity:1;stroke-miterlimit:10;" d="M 308.464844 7.113281 L 312.027344 7.113281 "/>
<path style="fill:none;stroke-width:0.708617;stroke-linecap:round;stroke-linejoin:round;stroke:rgb(0%,0%,0%);stroke-opacity:1;stroke-miterlimit:10;" d="M 451.980469 65.460938 L 456.148438 77.921875 L 459.199219 90.875 L 461.0625 104.164062 L 461.6875 117.628906 L 461.0625 131.09375 L 459.199219 144.386719 L 456.148438 157.339844 L 451.980469 169.800781 "/>
<path style="fill:none;stroke-width:0.708617;stroke-linecap:round;stroke-linejoin:round;stroke:rgb(0%,0%,0%);stroke-opacity:1;stroke-miterlimit:10;" d="M 114.910156 169.800781 L 110.746094 157.339844 L 107.695312 144.386719 L 105.832031 131.09375 L 105.203125 117.628906 "/>
<path style="fill:none;stroke-width:0.708617;stroke-linecap:round;stroke-linejoin:round;stroke:rgb(0%,0%,0%);stroke-opacity:1;stroke-miterlimit:10;" d="M 127.25 65.460938 L 130.199219 39.242188 L 108.46875 41.539062 "/>
<path style="fill:none;stroke-width:0.708617;stroke-linecap:round;stroke-linejoin:round;stroke:rgb(0%,0%,0%);stroke-opacity:1;stroke-miterlimit:10;" d="M 108.46875 41.539062 L 100.3125 59.007812 L 94.210938 77.773438 "/>
<path style="fill:none;stroke-width:0.708617;stroke-linecap:round;stroke-linejoin:round;stroke:rgb(0%,0%,0%);stroke-opacity:1;stroke-miterlimit:10;" d="M 105.203125 117.628906 L 105.832031 104.164062 L 107.695312 90.875 "/>
<path style="fill:none;stroke-width:0.708617;stroke-linecap:round;stroke-linejoin:round;stroke:rgb(0%,0%,0%);stroke-opacity:1;stroke-miterlimit:10;" d="M 439.640625 169.800781 L 436.691406 196.019531 "/>
<path style="fill:none;stroke-width:0.708617;stroke-linecap:round;stroke-linejoin:round;stroke:rgb(0%,0%,0%);stroke-opacity:1;stroke-miterlimit:10;" d="M 225.0625 225.890625 L 227.265625 225.507812 L 267.226562 225.507812 L 264.261719 225.09375 L 260.644531 224.6875 L 256.5 224.34375 "/>
<path style="fill:none;stroke-width:0.708617;stroke-linecap:round;stroke-linejoin:round;stroke:rgb(0%,0%,0%);stroke-opacity:1;stroke-miterlimit:10;" d="M 230.230469 225.09375 L 227.265625 225.507812 "/>
<path style="fill:none;stroke-width:0.708617;stroke-linecap:round;stroke-linejoin:round;stroke:rgb(0%,0%,0%);stroke-opacity:1;stroke-miterlimit:10;" d="M 264.261719 225.09375 L 230.230469 225.09375 L 233.847656 224.6875 L 260.644531 224.6875 "/>
<path style="fill:none;stroke-width:0.708617;stroke-linecap:round;stroke-linejoin:round;stroke:rgb(0%,0%,0%);stroke-opacity:1;stroke-miterlimit:10;" d="M 137.976562 27.367188 L 136.21875 31.542969 L 135.25 35.753906 L 131.859375 35.269531 "/>
<path style="fill:none;stroke-width:0.708617;stroke-linecap:round;stroke-linejoin:round;stroke:rgb(0%,0%,0%);stroke-opacity:1;stroke-miterlimit:10;" d="M 233.847656 224.6875 L 237.992188 224.34375 L 247.246094 224.03125 L 251.972656 224.109375 L 256.5 224.34375 L 247.246094 224.03125 L 242.519531 224.109375 "/>
<path style="fill:none;stroke-width:0.708617;stroke-linecap:round;stroke-linejoin:round;stroke:rgb(0%,0%,0%);stroke-opacity:1;stroke-miterlimit:10;" d="M 357.71875 224.441406 L 351.195312 223.269531 L 217.316406 223.269531 "/>
<path style="fill:none;stroke-width:0.708617;stroke-linecap:round;stroke-linejoin:round;stroke:rgb(0%,0%,0%);stroke-opacity:1;stroke-miterlimit:10;" d="M 256.5 224.34375 L 237.992188 224.34375 L 242.519531 224.109375 "/>
<path style="fill:none;stroke-width:0.708617;stroke-linecap:round;stroke-linejoin:round;stroke:rgb(0%,0%,0%);stroke-opacity:1;stroke-miterlimit:10;" d="M 160.640625 13.726562 L 156.339844 14.089844 L 151.953125 15.242188 L 147.710938 17.222656 L 143.835938 20 L 140.539062 23.445312 L 137.976562 27.367188 "/>
<path style="fill:none;stroke-width:0.708617;stroke-linecap:round;stroke-linejoin:round;stroke:rgb(0%,0%,0%);stroke-opacity:1;stroke-miterlimit:10;" d="M 147.710938 218.035156 L 143.835938 215.261719 L 140.539062 211.816406 L 137.976562 207.894531 "/>
<path style="fill:none;stroke-width:0.708617;stroke-linecap:round;stroke-linejoin:round;stroke:rgb(0%,0%,0%);stroke-opacity:1;stroke-miterlimit:10;" d="M 147.710938 218.035156 L 151.953125 220.019531 L 156.335938 221.171875 L 160.640625 221.535156 L 406.25 221.535156 "/>
<path style="fill:none;stroke-width:0.708617;stroke-linecap:round;stroke-linejoin:round;stroke:rgb(0%,0%,0%);stroke-opacity:1;stroke-miterlimit:10;" d="M 412.472656 182.886719 L 415.941406 183.886719 L 419.277344 185.613281 L 422.257812 188.035156 "/>
<path style="fill:none;stroke-width:0.708617;stroke-linecap:round;stroke-linejoin:round;stroke:rgb(0%,0%,0%);stroke-opacity:1;stroke-miterlimit:10;" d="M 405.691406 15.730469 L 409.082031 15.417969 L 412.472656 15.730469 L 415.941406 16.726562 "/>
<path style="fill:none;stroke-width:0.708617;stroke-linecap:round;stroke-linejoin:round;stroke:rgb(0%,0%,0%);stroke-opacity:1;stroke-miterlimit:10;" d="M 405.691406 219.53125 L 409.082031 219.84375 L 412.472656 219.53125 L 415.941406 218.535156 "/>
<path style="fill:none;stroke-width:0.708617;stroke-linecap:round;stroke-linejoin:round;stroke:rgb(0%,0%,0%);stroke-opacity:1;stroke-miterlimit:10;" d="M 422.257812 47.226562 L 419.277344 49.644531 L 415.941406 51.375 L 412.472656 52.371094 L 409.082031 52.683594 "/>
<path style="fill:none;stroke-width:0.708617;stroke-linecap:round;stroke-linejoin:round;stroke:rgb(0%,0%,0%);stroke-opacity:1;stroke-miterlimit:10;" d="M 412.472656 182.886719 L 409.082031 182.578125 L 405.691406 182.886719 L 402.222656 183.886719 L 398.886719 185.613281 L 395.90625 188.035156 L 393.488281 191.015625 L 391.757812 194.351562 L 390.761719 197.820312 L 390.449219 201.210938 "/>
<path style="fill:none;stroke-width:0.708617;stroke-linecap:round;stroke-linejoin:round;stroke:rgb(0%,0%,0%);stroke-opacity:1;stroke-miterlimit:10;" d="M 157.8125 219.84375 L 154.421875 219.53125 L 150.953125 218.535156 L 147.617188 216.804688 "/>
<path style="fill:none;stroke-width:0.708617;stroke-linecap:round;stroke-linejoin:round;stroke:rgb(0%,0%,0%);stroke-opacity:1;stroke-miterlimit:10;" d="M 144.636719 188.035156 L 147.617188 185.613281 L 150.953125 183.886719 L 154.421875 182.886719 L 157.8125 182.578125 L 161.203125 182.886719 L 164.671875 183.886719 L 168.007812 185.613281 "/>
<path style="fill:none;stroke-width:0.708617;stroke-linecap:round;stroke-linejoin:round;stroke:rgb(0%,0%,0%);stroke-opacity:1;stroke-miterlimit:10;" d="M 170.988281 47.226562 L 168.007812 49.644531 L 164.671875 51.375 "/>
<path style="fill:none;stroke-width:0.708617;stroke-linecap:round;stroke-linejoin:round;stroke:rgb(0%,0%,0%);stroke-opacity:1;stroke-miterlimit:10;" d="M 164.671875 218.535156 L 161.203125 219.53125 L 157.8125 219.84375 "/>
<path style="fill:none;stroke-width:0.708617;stroke-linecap:round;stroke-linejoin:round;stroke:rgb(0%,0%,0%);stroke-opacity:1;stroke-miterlimit:10;" d="M 140.488281 27.191406 L 142.214844 23.855469 L 144.636719 20.875 "/>
<path style="fill:none;stroke-width:0.708617;stroke-linecap:round;stroke-linejoin:round;stroke:rgb(0%,0%,0%);stroke-opacity:1;stroke-miterlimit:10;" d="M 164.671875 51.375 L 161.203125 52.371094 L 157.8125 52.683594 L 154.421875 52.371094 "/>
<path style="fill:none;stroke-width:0.708617;stroke-linecap:round;stroke-linejoin:round;stroke:rgb(0%,0%,0%);stroke-opacity:1;stroke-miterlimit:10;" d="M 144.636719 47.226562 L 147.617188 49.644531 L 150.953125 51.375 L 154.421875 52.371094 "/>
<path style="fill:none;stroke-width:0.708617;stroke-linecap:round;stroke-linejoin:round;stroke:rgb(0%,0%,0%);stroke-opacity:1;stroke-miterlimit:10;" d="M 144.636719 188.035156 L 142.214844 191.015625 L 140.488281 194.351562 L 139.492188 197.820312 "/>
<path style="fill:none;stroke-width:0.708617;stroke-linecap:round;stroke-linejoin:round;stroke:rgb(0%,0%,0%);stroke-opacity:1;stroke-miterlimit:10;" d="M 139.492188 197.820312 L 139.179688 201.210938 L 139.492188 204.601562 L 140.488281 208.066406 L 142.214844 211.40625 L 144.636719 214.382812 L 147.617188 216.804688 "/>
<path style="fill:none;stroke-width:0.708617;stroke-linecap:round;stroke-linejoin:round;stroke:rgb(0%,0%,0%);stroke-opacity:1;stroke-miterlimit:10;" d="M 141.335938 37.101562 L 141.058594 34.050781 L 139.179688 34.050781 L 139.492188 30.660156 L 140.488281 27.191406 "/>
<path style="fill:none;stroke-width:0.708617;stroke-linecap:round;stroke-linejoin:round;stroke:rgb(0%,0%,0%);stroke-opacity:1;stroke-miterlimit:10;" d="M 393.488281 211.40625 L 391.757812 208.066406 L 390.761719 204.601562 "/>
<path style="fill:none;stroke-width:0.708617;stroke-linecap:round;stroke-linejoin:round;stroke:rgb(0%,0%,0%);stroke-opacity:1;stroke-miterlimit:10;" d="M 164.671875 16.726562 L 161.203125 15.730469 L 157.8125 15.417969 L 154.421875 15.730469 L 150.953125 16.726562 "/>
<path style="fill:none;stroke-width:0.708617;stroke-linecap:round;stroke-linejoin:round;stroke:rgb(0%,0%,0%);stroke-opacity:1;stroke-miterlimit:10;" d="M 390.449219 34.050781 L 390.761719 30.660156 L 391.757812 27.191406 L 393.488281 23.855469 L 395.90625 20.875 "/>
<path style="fill:none;stroke-width:0.708617;stroke-linecap:round;stroke-linejoin:round;stroke:rgb(0%,0%,0%);stroke-opacity:1;stroke-miterlimit:10;" d="M 168.007812 185.613281 L 170.988281 188.035156 L 173.40625 191.015625 L 175.136719 194.351562 L 176.132812 197.820312 L 176.445312 201.210938 L 176.132812 204.601562 L 175.136719 208.066406 "/>
<path style="fill:none;stroke-width:0.708617;stroke-linecap:round;stroke-linejoin:round;stroke:rgb(0%,0%,0%);stroke-opacity:1;stroke-miterlimit:10;" d="M 164.671875 16.726562 L 168.007812 18.457031 L 170.988281 20.875 L 173.40625 23.855469 "/>
<path style="fill:none;stroke-width:0.708617;stroke-linecap:round;stroke-linejoin:round;stroke:rgb(0%,0%,0%);stroke-opacity:1;stroke-miterlimit:10;" d="M 390.761719 204.601562 L 390.449219 201.210938 L 392.328125 201.210938 L 392.605469 204.257812 L 393.503906 207.378906 "/>
<path style="fill:none;stroke-width:0.708617;stroke-linecap:round;stroke-linejoin:round;stroke:rgb(0%,0%,0%);stroke-opacity:1;stroke-miterlimit:10;" d="M 395.058594 24.882812 L 393.503906 27.882812 L 392.605469 31.003906 L 392.328125 34.050781 L 390.449219 34.050781 L 390.761719 37.441406 L 391.757812 40.910156 L 393.488281 44.246094 L 395.90625 47.226562 L 398.886719 49.644531 "/>
<path style="fill:none;stroke-width:0.708617;stroke-linecap:round;stroke-linejoin:round;stroke:rgb(0%,0%,0%);stroke-opacity:1;stroke-miterlimit:10;" d="M 175.136719 208.066406 L 173.40625 211.40625 L 170.988281 214.382812 L 168.007812 216.804688 L 164.671875 218.535156 "/>
<path style="fill:none;stroke-width:0.708617;stroke-linecap:round;stroke-linejoin:round;stroke:rgb(0%,0%,0%);stroke-opacity:1;stroke-miterlimit:10;" d="M 139.179688 34.050781 L 139.492188 37.441406 L 140.488281 40.910156 L 142.214844 44.246094 L 144.636719 47.226562 "/>
<path style="fill:none;stroke-width:0.708617;stroke-linecap:round;stroke-linejoin:round;stroke:rgb(0%,0%,0%);stroke-opacity:1;stroke-miterlimit:10;" d="M 176.132812 37.441406 L 175.136719 40.910156 L 173.40625 44.246094 L 170.988281 47.226562 "/>
<path style="fill:none;stroke-width:0.708617;stroke-linecap:round;stroke-linejoin:round;stroke:rgb(0%,0%,0%);stroke-opacity:1;stroke-miterlimit:10;" d="M 150.953125 16.726562 L 147.617188 18.457031 L 144.636719 20.875 "/>
<path style="fill:none;stroke-width:0.708617;stroke-linecap:round;stroke-linejoin:round;stroke:rgb(0%,0%,0%);stroke-opacity:1;stroke-miterlimit:10;" d="M 129.4375 117.628906 L 130.898438 76.535156 L 135.25 35.753906 "/>
<path style="fill:none;stroke-width:0.708617;stroke-linecap:round;stroke-linejoin:round;stroke:rgb(0%,0%,0%);stroke-opacity:1;stroke-miterlimit:10;" d="M 405.691406 219.53125 L 402.222656 218.535156 "/>
<path style="fill:none;stroke-width:0.708617;stroke-linecap:round;stroke-linejoin:round;stroke:rgb(0%,0%,0%);stroke-opacity:1;stroke-miterlimit:10;" d="M 402.222656 218.535156 L 398.886719 216.804688 L 395.90625 214.382812 L 393.488281 211.40625 "/>
<path style="fill:none;stroke-width:0.708617;stroke-linecap:round;stroke-linejoin:round;stroke:rgb(0%,0%,0%);stroke-opacity:1;stroke-miterlimit:10;" d="M 425.835938 34.050781 L 427.714844 34.050781 "/>
<path style="fill:none;stroke-width:0.708617;stroke-linecap:round;stroke-linejoin:round;stroke:rgb(0%,0%,0%);stroke-opacity:1;stroke-miterlimit:10;" d="M 406.25 13.726562 L 410.554688 14.089844 L 414.9375 15.242188 L 419.183594 17.222656 L 423.058594 20 L 426.355469 23.445312 L 428.917969 27.367188 "/>
<path style="fill:none;stroke-width:0.708617;stroke-linecap:round;stroke-linejoin:round;stroke:rgb(0%,0%,0%);stroke-opacity:1;stroke-miterlimit:10;" d="M 398.886719 49.644531 L 402.222656 51.375 L 405.691406 52.371094 L 409.082031 52.683594 "/>
<path style="fill:none;stroke-width:0.708617;stroke-linecap:round;stroke-linejoin:round;stroke:rgb(0%,0%,0%);stroke-opacity:1;stroke-miterlimit:10;" d="M 427.402344 37.441406 L 427.714844 34.050781 L 427.402344 30.660156 L 426.40625 27.191406 L 424.675781 23.855469 L 422.257812 20.875 "/>
<path style="fill:none;stroke-width:0.708617;stroke-linecap:round;stroke-linejoin:round;stroke:rgb(0%,0%,0%);stroke-opacity:1;stroke-miterlimit:10;" d="M 405.691406 15.730469 L 402.222656 16.726562 L 398.886719 18.457031 L 395.90625 20.875 "/>
<path style="fill:none;stroke-width:0.708617;stroke-linecap:round;stroke-linejoin:round;stroke:rgb(0%,0%,0%);stroke-opacity:1;stroke-miterlimit:10;" d="M 415.941406 16.726562 L 419.277344 18.457031 L 422.257812 20.875 "/>
<path style="fill:none;stroke-width:0.708617;stroke-linecap:round;stroke-linejoin:round;stroke:rgb(0%,0%,0%);stroke-opacity:1;stroke-miterlimit:10;" d="M 410.554688 221.171875 L 414.9375 220.019531 L 419.183594 218.035156 "/>
<path style="fill:none;stroke-width:0.708617;stroke-linecap:round;stroke-linejoin:round;stroke:rgb(0%,0%,0%);stroke-opacity:1;stroke-miterlimit:10;" d="M 424.675781 211.40625 L 422.257812 214.382812 L 419.277344 216.804688 L 415.941406 218.535156 "/>
<path style="fill:none;stroke-width:0.708617;stroke-linecap:round;stroke-linejoin:round;stroke:rgb(0%,0%,0%);stroke-opacity:1;stroke-miterlimit:10;" d="M 176.445312 34.050781 L 176.132812 30.660156 L 175.136719 27.191406 L 173.40625 23.855469 "/>
<path style="fill:none;stroke-width:0.708617;stroke-linecap:round;stroke-linejoin:round;stroke:rgb(0%,0%,0%);stroke-opacity:1;stroke-miterlimit:10;" d="M 427.714844 201.210938 L 427.402344 197.820312 L 426.40625 194.351562 L 424.675781 191.015625 L 422.257812 188.035156 "/>
<path style="fill:none;stroke-width:0.708617;stroke-linecap:round;stroke-linejoin:round;stroke:rgb(0%,0%,0%);stroke-opacity:1;stroke-miterlimit:10;" d="M 425.835938 201.210938 L 427.714844 201.210938 L 427.402344 204.601562 L 426.40625 208.066406 L 424.675781 211.40625 "/>
<path style="fill:none;stroke-width:0.708617;stroke-linecap:round;stroke-linejoin:round;stroke:rgb(0%,0%,0%);stroke-opacity:1;stroke-miterlimit:10;" d="M 174.566406 34.050781 L 176.445312 34.050781 L 176.132812 37.441406 "/>
<path style="fill:none;stroke-width:0.708617;stroke-linecap:round;stroke-linejoin:round;stroke:rgb(0%,0%,0%);stroke-opacity:1;stroke-miterlimit:10;" d="M 427.402344 37.441406 L 426.40625 40.910156 L 424.675781 44.246094 L 422.257812 47.226562 "/>
<path style="fill:none;stroke-width:0.708617;stroke-linecap:round;stroke-linejoin:round;stroke:rgb(0%,0%,0%);stroke-opacity:1;stroke-miterlimit:10;" d="M 435.996094 76.535156 L 431.644531 35.753906 L 430.675781 31.542969 L 428.917969 27.367188 "/>
<path style="fill:none;stroke-width:0.708617;stroke-linecap:round;stroke-linejoin:round;stroke:rgb(0%,0%,0%);stroke-opacity:1;stroke-miterlimit:10;" d="M 135.25 199.507812 L 136.21875 203.71875 L 137.976562 207.894531 "/>
<path style="fill:none;stroke-width:0.708617;stroke-linecap:round;stroke-linejoin:round;stroke:rgb(0%,0%,0%);stroke-opacity:1;stroke-miterlimit:10;" d="M 419.183594 218.035156 L 423.058594 215.261719 L 426.355469 211.816406 L 428.917969 207.894531 L 430.675781 203.71875 L 431.644531 199.507812 "/>
<path style="fill:none;stroke-width:0.708617;stroke-linecap:round;stroke-linejoin:round;stroke:rgb(0%,0%,0%);stroke-opacity:1;stroke-miterlimit:10;" d="M 176.445312 201.210938 L 174.566406 201.210938 "/>
<path style="fill:none;stroke-width:0.708617;stroke-linecap:round;stroke-linejoin:round;stroke:rgb(0%,0%,0%);stroke-opacity:1;stroke-miterlimit:10;" d="M 145.964844 189.363281 L 143.789062 192.042969 L 142.234375 195.042969 L 141.335938 198.160156 L 141.058594 201.210938 L 139.179688 201.210938 "/>
<path style="fill:none;stroke-width:0.708617;stroke-linecap:round;stroke-linejoin:round;stroke:rgb(0%,0%,0%);stroke-opacity:1;stroke-miterlimit:10;" d="M 423.105469 43.21875 L 424.660156 40.21875 L 425.558594 37.101562 L 425.835938 34.050781 L 425.558594 31.003906 "/>
<path style="fill:none;stroke-width:0.708617;stroke-linecap:round;stroke-linejoin:round;stroke:rgb(0%,0%,0%);stroke-opacity:1;stroke-miterlimit:10;" d="M 423.105469 210.378906 L 424.660156 207.378906 L 425.558594 204.257812 L 425.835938 201.210938 L 425.558594 198.160156 L 424.660156 195.042969 L 423.105469 192.042969 L 420.929688 189.363281 L 418.25 187.1875 "/>
<path style="fill:none;stroke-width:0.708617;stroke-linecap:round;stroke-linejoin:round;stroke:rgb(0%,0%,0%);stroke-opacity:1;stroke-miterlimit:10;" d="M 415.25 18.472656 L 418.25 20.027344 L 420.929688 22.203125 "/>
<path style="fill:none;stroke-width:0.708617;stroke-linecap:round;stroke-linejoin:round;stroke:rgb(0%,0%,0%);stroke-opacity:1;stroke-miterlimit:10;" d="M 423.105469 210.378906 L 420.929688 213.058594 L 418.25 215.234375 L 415.25 216.789062 "/>
<path style="fill:none;stroke-width:0.708617;stroke-linecap:round;stroke-linejoin:round;stroke:rgb(0%,0%,0%);stroke-opacity:1;stroke-miterlimit:10;" d="M 406.03125 184.734375 L 409.082031 184.453125 L 412.128906 184.734375 L 415.25 185.632812 L 418.25 187.1875 "/>
<path style="fill:none;stroke-width:0.708617;stroke-linecap:round;stroke-linejoin:round;stroke:rgb(0%,0%,0%);stroke-opacity:1;stroke-miterlimit:10;" d="M 409.082031 50.804688 L 412.128906 50.527344 L 415.25 49.628906 L 418.25 48.074219 L 420.929688 45.898438 L 423.105469 43.21875 "/>
<path style="fill:none;stroke-width:0.708617;stroke-linecap:round;stroke-linejoin:round;stroke:rgb(0%,0%,0%);stroke-opacity:1;stroke-miterlimit:10;" d="M 163.980469 49.628906 L 166.980469 48.074219 L 169.660156 45.898438 L 171.835938 43.21875 L 173.390625 40.21875 "/>
<path style="fill:none;stroke-width:0.708617;stroke-linecap:round;stroke-linejoin:round;stroke:rgb(0%,0%,0%);stroke-opacity:1;stroke-miterlimit:10;" d="M 169.660156 213.058594 L 166.980469 215.234375 L 163.980469 216.789062 L 160.859375 217.683594 L 157.8125 217.964844 "/>
<path style="fill:none;stroke-width:0.708617;stroke-linecap:round;stroke-linejoin:round;stroke:rgb(0%,0%,0%);stroke-opacity:1;stroke-miterlimit:10;" d="M 402.914062 49.628906 L 399.914062 48.074219 L 397.234375 45.898438 "/>
<path style="fill:none;stroke-width:0.708617;stroke-linecap:round;stroke-linejoin:round;stroke:rgb(0%,0%,0%);stroke-opacity:1;stroke-miterlimit:10;" d="M 395.058594 24.882812 L 397.234375 22.203125 L 399.914062 20.027344 "/>
<path style="fill:none;stroke-width:0.708617;stroke-linecap:round;stroke-linejoin:round;stroke:rgb(0%,0%,0%);stroke-opacity:1;stroke-miterlimit:10;" d="M 406.03125 17.574219 L 402.914062 18.472656 L 399.914062 20.027344 "/>
<path style="fill:none;stroke-width:0.708617;stroke-linecap:round;stroke-linejoin:round;stroke:rgb(0%,0%,0%);stroke-opacity:1;stroke-miterlimit:10;" d="M 406.03125 217.683594 L 402.914062 216.789062 L 399.914062 215.234375 L 397.234375 213.058594 L 395.058594 210.378906 L 393.503906 207.378906 "/>
<path style="fill:none;stroke-width:0.708617;stroke-linecap:round;stroke-linejoin:round;stroke:rgb(0%,0%,0%);stroke-opacity:1;stroke-miterlimit:10;" d="M 399.914062 187.1875 L 397.234375 189.363281 L 395.058594 192.042969 L 393.503906 195.042969 L 392.605469 198.160156 L 392.328125 201.210938 "/>
<path style="fill:none;stroke-width:0.708617;stroke-linecap:round;stroke-linejoin:round;stroke:rgb(0%,0%,0%);stroke-opacity:1;stroke-miterlimit:10;" d="M 406.03125 184.734375 L 402.914062 185.632812 L 399.914062 187.1875 "/>
<path style="fill:none;stroke-width:0.708617;stroke-linecap:round;stroke-linejoin:round;stroke:rgb(0%,0%,0%);stroke-opacity:1;stroke-miterlimit:10;" d="M 148.644531 187.1875 L 151.644531 185.632812 L 154.761719 184.734375 L 157.8125 184.453125 L 160.859375 184.734375 "/>
<path style="fill:none;stroke-width:0.708617;stroke-linecap:round;stroke-linejoin:round;stroke:rgb(0%,0%,0%);stroke-opacity:1;stroke-miterlimit:10;" d="M 425.558594 31.003906 L 424.660156 27.882812 L 423.105469 24.882812 L 420.929688 22.203125 "/>
<path style="fill:none;stroke-width:0.708617;stroke-linecap:round;stroke-linejoin:round;stroke:rgb(0%,0%,0%);stroke-opacity:1;stroke-miterlimit:10;" d="M 154.761719 50.527344 L 157.8125 50.804688 L 160.859375 50.527344 L 163.980469 49.628906 "/>
<path style="fill:none;stroke-width:0.708617;stroke-linecap:round;stroke-linejoin:round;stroke:rgb(0%,0%,0%);stroke-opacity:1;stroke-miterlimit:10;" d="M 169.660156 189.363281 L 166.980469 187.1875 L 163.980469 185.632812 L 160.859375 184.734375 "/>
<path style="fill:none;stroke-width:0.708617;stroke-linecap:round;stroke-linejoin:round;stroke:rgb(0%,0%,0%);stroke-opacity:1;stroke-miterlimit:10;" d="M 173.390625 27.882812 L 171.835938 24.882812 L 169.660156 22.203125 L 166.980469 20.027344 L 163.980469 18.472656 L 160.859375 17.574219 "/>
<path style="fill:none;stroke-width:0.708617;stroke-linecap:round;stroke-linejoin:round;stroke:rgb(0%,0%,0%);stroke-opacity:1;stroke-miterlimit:10;" d="M 148.644531 20.027344 L 151.644531 18.472656 L 154.761719 17.574219 L 157.8125 17.296875 L 160.859375 17.574219 "/>
<path style="fill:none;stroke-width:0.708617;stroke-linecap:round;stroke-linejoin:round;stroke:rgb(0%,0%,0%);stroke-opacity:1;stroke-miterlimit:10;" d="M 145.964844 45.898438 L 148.644531 48.074219 L 151.644531 49.628906 L 154.761719 50.527344 "/>
<path style="fill:none;stroke-width:0.708617;stroke-linecap:round;stroke-linejoin:round;stroke:rgb(0%,0%,0%);stroke-opacity:1;stroke-miterlimit:10;" d="M 173.390625 27.882812 L 174.285156 31.003906 L 174.566406 34.050781 L 174.285156 37.101562 L 173.390625 40.21875 "/>
<path style="fill:none;stroke-width:0.708617;stroke-linecap:round;stroke-linejoin:round;stroke:rgb(0%,0%,0%);stroke-opacity:1;stroke-miterlimit:10;" d="M 145.964844 213.058594 L 143.789062 210.378906 L 142.234375 207.378906 "/>
<path style="fill:none;stroke-width:0.708617;stroke-linecap:round;stroke-linejoin:round;stroke:rgb(0%,0%,0%);stroke-opacity:1;stroke-miterlimit:10;" d="M 174.566406 201.210938 L 174.285156 198.160156 L 173.390625 195.042969 L 171.835938 192.042969 L 169.660156 189.363281 "/>
<path style="fill:none;stroke-width:0.708617;stroke-linecap:round;stroke-linejoin:round;stroke:rgb(0%,0%,0%);stroke-opacity:1;stroke-miterlimit:10;" d="M 393.503906 40.21875 L 395.058594 43.21875 L 397.234375 45.898438 "/>
<path style="fill:none;stroke-width:0.708617;stroke-linecap:round;stroke-linejoin:round;stroke:rgb(0%,0%,0%);stroke-opacity:1;stroke-miterlimit:10;" d="M 169.660156 213.058594 L 171.835938 210.378906 L 173.390625 207.378906 L 174.285156 204.257812 L 174.566406 201.210938 "/>
<path style="fill:none;stroke-width:0.708617;stroke-linecap:round;stroke-linejoin:round;stroke:rgb(0%,0%,0%);stroke-opacity:1;stroke-miterlimit:10;" d="M 145.964844 213.058594 L 148.644531 215.234375 L 151.644531 216.789062 L 154.761719 217.683594 L 157.8125 217.964844 "/>
<path style="fill:none;stroke-width:0.708617;stroke-linecap:round;stroke-linejoin:round;stroke:rgb(0%,0%,0%);stroke-opacity:1;stroke-miterlimit:10;" d="M 148.644531 187.1875 L 145.964844 189.363281 "/>
<path style="fill:none;stroke-width:0.708617;stroke-linecap:round;stroke-linejoin:round;stroke:rgb(0%,0%,0%);stroke-opacity:1;stroke-miterlimit:10;" d="M 148.644531 20.027344 L 145.964844 22.203125 L 143.789062 24.882812 L 142.234375 27.882812 "/>
<path style="fill:none;stroke-width:0.708617;stroke-linecap:round;stroke-linejoin:round;stroke:rgb(0%,0%,0%);stroke-opacity:1;stroke-miterlimit:10;" d="M 145.964844 45.898438 L 143.789062 43.21875 L 142.234375 40.21875 L 141.335938 37.101562 "/>
<path style="fill:none;stroke-width:0.708617;stroke-linecap:round;stroke-linejoin:round;stroke:rgb(0%,0%,0%);stroke-opacity:1;stroke-miterlimit:10;" d="M 409.082031 50.804688 L 406.03125 50.527344 L 402.914062 49.628906 "/>
<path style="fill:none;stroke-width:0.708617;stroke-linecap:round;stroke-linejoin:round;stroke:rgb(0%,0%,0%);stroke-opacity:1;stroke-miterlimit:10;" d="M 415.25 18.472656 L 412.128906 17.574219 L 409.082031 17.296875 L 406.03125 17.574219 "/>
<path style="fill:none;stroke-width:0.708617;stroke-linecap:round;stroke-linejoin:round;stroke:rgb(0%,0%,0%);stroke-opacity:1;stroke-miterlimit:10;" d="M 393.503906 40.21875 L 392.605469 37.101562 L 392.328125 34.050781 "/>
<path style="fill:none;stroke-width:0.708617;stroke-linecap:round;stroke-linejoin:round;stroke:rgb(0%,0%,0%);stroke-opacity:1;stroke-miterlimit:10;" d="M 406.03125 217.683594 L 409.082031 217.964844 L 412.128906 217.683594 L 415.25 216.789062 "/>
<path style="fill:none;stroke-width:0.708617;stroke-linecap:round;stroke-linejoin:round;stroke:rgb(0%,0%,0%);stroke-opacity:1;stroke-miterlimit:10;" d="M 142.234375 207.378906 L 141.335938 204.257812 L 141.058594 201.210938 "/>
<path style="fill:none;stroke-width:0.708617;stroke-linecap:round;stroke-linejoin:round;stroke:rgb(0%,0%,0%);stroke-opacity:1;stroke-miterlimit:10;" d="M 142.234375 27.882812 L 141.335938 31.003906 L 141.058594 34.050781 "/>
</g>
</svg>
