<?xml version="1.0" encoding="UTF-8"?>
<svg xmlns="http://www.w3.org/2000/svg" xmlns:xlink="http://www.w3.org/1999/xlink" width="566.893424pt" height="235.260771pt" viewBox="0 0 566.893424 235.260771" version="1.1">
<g id="surface11">
<path style="fill:none;stroke-width:0.708617;stroke-linecap:round;stroke-linejoin:round;stroke:rgb(0%,0%,0%);stroke-opacity:1;stroke-miterlimit:10;" d="M 405.957031 83.992188 L 418.335938 85.949219 L 418.335938 85.03125 L 405.644531 83.019531 "/>
<path style="fill:none;stroke-width:0.708617;stroke-linecap:round;stroke-linejoin:round;stroke:rgb(0%,0%,0%);stroke-opacity:1;stroke-miterlimit:10;" d="M 161.25 83.019531 L 148.558594 85.03125 L 148.558594 85.949219 "/>
<path style="fill:none;stroke-width:0.708617;stroke-linecap:round;stroke-linejoin:round;stroke:rgb(0%,0%,0%);stroke-opacity:1;stroke-miterlimit:10;" d="M 240.714844 220.511719 L 248.816406 223.878906 L 265.914062 227.996094 L 283.445312 229.378906 "/>
<path style="fill:none;stroke-width:0.708617;stroke-linecap:round;stroke-linejoin:round;stroke:rgb(0%,0%,0%);stroke-opacity:1;stroke-miterlimit:10;" d="M 240.714844 220.511719 L 248.816406 223.878906 L 265.914062 227.996094 L 283.445312 229.378906 L 300.980469 227.996094 "/>
<path style="fill:none;stroke-width:0.708617;stroke-linecap:round;stroke-linejoin:round;stroke:rgb(0%,0%,0%);stroke-opacity:1;stroke-miterlimit:10;" d="M 300.980469 227.996094 L 318.078125 223.878906 L 326.179688 220.511719 L 318.078125 223.878906 L 300.980469 227.996094 L 283.445312 229.378906 "/>
<path style="fill:none;stroke-width:0.708617;stroke-linecap:round;stroke-linejoin:round;stroke:rgb(0%,0%,0%);stroke-opacity:1;stroke-miterlimit:10;" d="M 387.074219 158.542969 L 389.390625 152.894531 Z M 387.074219 158.542969 "/>
<path style="fill:none;stroke-width:0.708617;stroke-linecap:round;stroke-linejoin:round;stroke:rgb(0%,0%,0%);stroke-opacity:1;stroke-miterlimit:10;" d="M 320.570312 12.417969 L 318.078125 11.382812 "/>
<path style="fill:none;stroke-width:0.708617;stroke-linecap:round;stroke-linejoin:round;stroke:rgb(0%,0%,0%);stroke-opacity:1;stroke-miterlimit:10;" d="M 248.816406 11.382812 L 265.914062 7.265625 L 283.445312 5.882812 L 300.980469 7.265625 L 318.078125 11.382812 L 320.570312 12.417969 "/>
<path style="fill:none;stroke-width:0.708617;stroke-linecap:round;stroke-linejoin:round;stroke:rgb(0%,0%,0%);stroke-opacity:1;stroke-miterlimit:10;" d="M 177.207031 83.089844 L 180.546875 74.945312 L 177.070312 83.414062 "/>
<path style="fill:none;stroke-width:0.708617;stroke-linecap:round;stroke-linejoin:round;stroke:rgb(0%,0%,0%);stroke-opacity:1;stroke-miterlimit:10;" d="M 389.6875 83.089844 L 386.347656 74.945312 L 389.820312 83.414062 "/>
<path style="fill:none;stroke-width:0.708617;stroke-linecap:round;stroke-linejoin:round;stroke:rgb(0%,0%,0%);stroke-opacity:1;stroke-miterlimit:10;" d="M 179.820312 158.542969 L 177.5 152.894531 Z M 179.820312 158.542969 "/>
<path style="fill:none;stroke-width:0.708617;stroke-linecap:round;stroke-linejoin:round;stroke:rgb(0%,0%,0%);stroke-opacity:1;stroke-miterlimit:10;" d="M 248.816406 11.382812 L 246.324219 12.417969 L 248.816406 11.382812 L 265.914062 7.265625 L 283.445312 5.882812 L 300.980469 7.265625 L 318.078125 11.382812 "/>
<path style="fill:none;stroke-width:0.708617;stroke-linecap:round;stroke-linejoin:round;stroke:rgb(0%,0%,0%);stroke-opacity:1;stroke-miterlimit:10;" d="M 160.9375 83.992188 L 148.558594 85.949219 L 148.558594 85.03125 "/>
<path style="fill:none;stroke-width:0.708617;stroke-linecap:round;stroke-linejoin:round;stroke:rgb(0%,0%,0%);stroke-opacity:1;stroke-miterlimit:10;" d="M 417.398438 86.011719 L 418.296875 85.964844 L 418.335938 85.949219 L 418.335938 85.03125 "/>
<path style="fill:none;stroke-width:0.708617;stroke-linecap:round;stroke-linejoin:round;stroke:rgb(0%,0%,0%);stroke-opacity:1;stroke-miterlimit:10;" d="M 393.042969 83.0625 L 389.6875 83.089844 "/>
<path style="fill:none;stroke-width:0.708617;stroke-linecap:round;stroke-linejoin:round;stroke:rgb(0%,0%,0%);stroke-opacity:1;stroke-miterlimit:10;" d="M 173.851562 83.0625 L 177.207031 83.089844 "/>
<path style="fill:none;stroke-width:0.708617;stroke-linecap:round;stroke-linejoin:round;stroke:rgb(0%,0%,0%);stroke-opacity:1;stroke-miterlimit:10;" d="M 179.867188 158.507812 L 177.578125 152.894531 "/>
<path style="fill:none;stroke-width:0.708617;stroke-linecap:round;stroke-linejoin:round;stroke:rgb(0%,0%,0%);stroke-opacity:1;stroke-miterlimit:10;" d="M 301 227.9375 L 283.445312 229.324219 L 265.890625 227.9375 "/>
<path style="fill:none;stroke-width:0.708617;stroke-linecap:round;stroke-linejoin:round;stroke:rgb(0%,0%,0%);stroke-opacity:1;stroke-miterlimit:10;" d="M 301 227.9375 L 318.117188 223.804688 L 326.03125 220.511719 "/>
<path style="fill:none;stroke-width:0.708617;stroke-linecap:round;stroke-linejoin:round;stroke:rgb(0%,0%,0%);stroke-opacity:1;stroke-miterlimit:10;" d="M 389.3125 152.894531 L 387.023438 158.507812 "/>
<path style="fill:none;stroke-width:0.708617;stroke-linecap:round;stroke-linejoin:round;stroke:rgb(0%,0%,0%);stroke-opacity:1;stroke-miterlimit:10;" d="M 240.859375 220.511719 L 248.773438 223.804688 L 265.890625 227.9375 "/>
<path style="fill:none;stroke-width:0.708617;stroke-linecap:round;stroke-linejoin:round;stroke:rgb(0%,0%,0%);stroke-opacity:1;stroke-miterlimit:10;" d="M 320.433594 12.417969 L 318.117188 11.453125 L 301 7.324219 L 283.445312 5.9375 L 265.890625 7.324219 "/>
<path style="fill:none;stroke-width:0.708617;stroke-linecap:round;stroke-linejoin:round;stroke:rgb(0%,0%,0%);stroke-opacity:1;stroke-miterlimit:10;" d="M 265.890625 7.324219 L 248.773438 11.453125 L 246.460938 12.417969 "/>
<path style="fill:none;stroke-width:0.708617;stroke-linecap:round;stroke-linejoin:round;stroke:rgb(0%,0%,0%);stroke-opacity:1;stroke-miterlimit:10;" d="M 180.589844 74.984375 L 177.152344 83.414062 "/>
<path style="fill:none;stroke-width:0.708617;stroke-linecap:round;stroke-linejoin:round;stroke:rgb(0%,0%,0%);stroke-opacity:1;stroke-miterlimit:10;" d="M 386.304688 74.984375 L 389.742188 83.414062 "/>
<path style="fill:none;stroke-width:0.708617;stroke-linecap:round;stroke-linejoin:round;stroke:rgb(0%,0%,0%);stroke-opacity:1;stroke-miterlimit:10;" d="M 180.691406 75.082031 L 177.34375 83.417969 "/>
<path style="fill:none;stroke-width:0.708617;stroke-linecap:round;stroke-linejoin:round;stroke:rgb(0%,0%,0%);stroke-opacity:1;stroke-miterlimit:10;" d="M 177.765625 152.898438 L 179.988281 158.429688 "/>
<path style="fill:none;stroke-width:0.708617;stroke-linecap:round;stroke-linejoin:round;stroke:rgb(0%,0%,0%);stroke-opacity:1;stroke-miterlimit:10;" d="M 241.210938 220.511719 L 248.667969 223.632812 L 265.835938 227.792969 L 283.445312 229.191406 "/>
<path style="fill:none;stroke-width:0.708617;stroke-linecap:round;stroke-linejoin:round;stroke:rgb(0%,0%,0%);stroke-opacity:1;stroke-miterlimit:10;" d="M 389.550781 83.417969 L 386.203125 75.082031 "/>
<path style="fill:none;stroke-width:0.708617;stroke-linecap:round;stroke-linejoin:round;stroke:rgb(0%,0%,0%);stroke-opacity:1;stroke-miterlimit:10;" d="M 283.445312 229.191406 L 301.054688 227.792969 L 318.222656 223.632812 L 325.683594 220.511719 "/>
<path style="fill:none;stroke-width:0.708617;stroke-linecap:round;stroke-linejoin:round;stroke:rgb(0%,0%,0%);stroke-opacity:1;stroke-miterlimit:10;" d="M 265.835938 7.46875 L 248.667969 11.628906 L 246.78125 12.417969 "/>
<path style="fill:none;stroke-width:0.708617;stroke-linecap:round;stroke-linejoin:round;stroke:rgb(0%,0%,0%);stroke-opacity:1;stroke-miterlimit:10;" d="M 265.835938 7.46875 L 283.445312 6.070312 L 301.054688 7.46875 L 318.222656 11.628906 "/>
<path style="fill:none;stroke-width:0.708617;stroke-linecap:round;stroke-linejoin:round;stroke:rgb(0%,0%,0%);stroke-opacity:1;stroke-miterlimit:10;" d="M 320.109375 12.417969 L 318.222656 11.628906 "/>
<path style="fill:none;stroke-width:0.708617;stroke-linecap:round;stroke-linejoin:round;stroke:rgb(0%,0%,0%);stroke-opacity:1;stroke-miterlimit:10;" d="M 389.128906 152.898438 L 386.90625 158.429688 "/>
<path style="fill:none;stroke-width:0.708617;stroke-linecap:round;stroke-linejoin:round;stroke:rgb(0%,0%,0%);stroke-opacity:1;stroke-miterlimit:10;" d="M 180.074219 158.371094 L 177.898438 152.898438 "/>
<path style="fill:none;stroke-width:0.708617;stroke-linecap:round;stroke-linejoin:round;stroke:rgb(0%,0%,0%);stroke-opacity:1;stroke-miterlimit:10;" d="M 241.464844 220.511719 L 248.589844 223.503906 L 265.796875 227.6875 L 283.445312 229.09375 L 301.097656 227.6875 "/>
<path style="fill:none;stroke-width:0.708617;stroke-linecap:round;stroke-linejoin:round;stroke:rgb(0%,0%,0%);stroke-opacity:1;stroke-miterlimit:10;" d="M 388.992188 152.898438 L 386.820312 158.371094 "/>
<path style="fill:none;stroke-width:0.708617;stroke-linecap:round;stroke-linejoin:round;stroke:rgb(0%,0%,0%);stroke-opacity:1;stroke-miterlimit:10;" d="M 301.097656 227.6875 L 318.300781 223.503906 L 325.429688 220.511719 "/>
<path style="fill:none;stroke-width:0.708617;stroke-linecap:round;stroke-linejoin:round;stroke:rgb(0%,0%,0%);stroke-opacity:1;stroke-miterlimit:10;" d="M 180.761719 75.152344 L 177.480469 83.417969 "/>
<path style="fill:none;stroke-width:0.708617;stroke-linecap:round;stroke-linejoin:round;stroke:rgb(0%,0%,0%);stroke-opacity:1;stroke-miterlimit:10;" d="M 319.878906 12.417969 L 318.300781 11.757812 "/>
<path style="fill:none;stroke-width:0.708617;stroke-linecap:round;stroke-linejoin:round;stroke:rgb(0%,0%,0%);stroke-opacity:1;stroke-miterlimit:10;" d="M 389.414062 83.417969 L 386.128906 75.152344 "/>
<path style="fill:none;stroke-width:0.708617;stroke-linecap:round;stroke-linejoin:round;stroke:rgb(0%,0%,0%);stroke-opacity:1;stroke-miterlimit:10;" d="M 247.015625 12.417969 L 248.589844 11.757812 L 265.796875 7.574219 L 283.445312 6.167969 L 301.097656 7.574219 L 318.300781 11.757812 "/>
<path style="fill:none;stroke-width:0.708617;stroke-linecap:round;stroke-linejoin:round;stroke:rgb(0%,0%,0%);stroke-opacity:1;stroke-miterlimit:10;" d="M 244.085938 220.511719 L 247.625 222.0625 L 265.289062 226.53125 "/>
<path style="fill:none;stroke-width:0.708617;stroke-linecap:round;stroke-linejoin:round;stroke:rgb(0%,0%,0%);stroke-opacity:1;stroke-miterlimit:10;" d="M 322.808594 220.511719 L 319.269531 222.0625 L 301.605469 226.53125 "/>
<path style="fill:none;stroke-width:0.708617;stroke-linecap:round;stroke-linejoin:round;stroke:rgb(0%,0%,0%);stroke-opacity:1;stroke-miterlimit:10;" d="M 301.605469 226.53125 L 283.445312 228.035156 L 265.289062 226.53125 "/>
<path style="fill:none;stroke-width:0.708617;stroke-linecap:round;stroke-linejoin:round;stroke:rgb(0%,0%,0%);stroke-opacity:1;stroke-miterlimit:10;" d="M 179.226562 152.910156 L 180.867188 157.675781 "/>
<path style="fill:none;stroke-width:0.708617;stroke-linecap:round;stroke-linejoin:round;stroke:rgb(0%,0%,0%);stroke-opacity:1;stroke-miterlimit:10;" d="M 385.445312 75.902344 L 388.039062 83.429688 "/>
<path style="fill:none;stroke-width:0.708617;stroke-linecap:round;stroke-linejoin:round;stroke:rgb(0%,0%,0%);stroke-opacity:1;stroke-miterlimit:10;" d="M 386.027344 157.675781 L 387.667969 152.910156 "/>
<path style="fill:none;stroke-width:0.708617;stroke-linecap:round;stroke-linejoin:round;stroke:rgb(0%,0%,0%);stroke-opacity:1;stroke-miterlimit:10;" d="M 283.445312 7.226562 L 265.289062 8.730469 L 250.710938 12.417969 "/>
<path style="fill:none;stroke-width:0.708617;stroke-linecap:round;stroke-linejoin:round;stroke:rgb(0%,0%,0%);stroke-opacity:1;stroke-miterlimit:10;" d="M 178.855469 83.429688 L 181.445312 75.902344 "/>
<path style="fill:none;stroke-width:0.708617;stroke-linecap:round;stroke-linejoin:round;stroke:rgb(0%,0%,0%);stroke-opacity:1;stroke-miterlimit:10;" d="M 316.183594 12.417969 L 301.605469 8.730469 L 283.445312 7.226562 "/>
<path style="fill:none;stroke-width:0.708617;stroke-linecap:round;stroke-linejoin:round;stroke:rgb(0%,0%,0%);stroke-opacity:1;stroke-miterlimit:10;" d="M 383.042969 83.46875 L 393.125 83.386719 "/>
<path style="fill:none;stroke-width:0.708617;stroke-linecap:round;stroke-linejoin:round;stroke:rgb(0%,0%,0%);stroke-opacity:1;stroke-miterlimit:10;" d="M 173.765625 83.390625 L 183.851562 83.464844 "/>
<path style="fill:none;stroke-width:0.708617;stroke-linecap:round;stroke-linejoin:round;stroke:rgb(0%,0%,0%);stroke-opacity:1;stroke-miterlimit:10;" d="M 162.082031 152.503906 L 148.558594 150.363281 L 149.160156 150.414062 L 150.9375 150.460938 "/>
<path style="fill:none;stroke-width:0.708617;stroke-linecap:round;stroke-linejoin:round;stroke:rgb(0%,0%,0%);stroke-opacity:1;stroke-miterlimit:10;" d="M 418.335938 85.949219 L 420.488281 96.910156 L 422.125 118.15625 L 420.488281 139.40625 L 418.335938 150.363281 "/>
<path style="fill:none;stroke-width:0.708617;stroke-linecap:round;stroke-linejoin:round;stroke:rgb(0%,0%,0%);stroke-opacity:1;stroke-miterlimit:10;" d="M 418.335938 150.363281 L 418.296875 150.375 "/>
<path style="fill:none;stroke-width:0.708617;stroke-linecap:round;stroke-linejoin:round;stroke:rgb(0%,0%,0%);stroke-opacity:1;stroke-miterlimit:10;" d="M 148.558594 150.363281 L 146.40625 139.40625 L 144.765625 118.15625 L 146.40625 96.910156 L 148.558594 85.949219 L 149.160156 86 "/>
<path style="fill:none;stroke-width:0.708617;stroke-linecap:round;stroke-linejoin:round;stroke:rgb(0%,0%,0%);stroke-opacity:1;stroke-miterlimit:10;" d="M 404.8125 152.507812 L 418.296875 150.375 "/>
<path style="fill:none;stroke-width:0.708617;stroke-linecap:round;stroke-linejoin:round;stroke:rgb(0%,0%,0%);stroke-opacity:1;stroke-miterlimit:10;" d="M 162.078125 152.5 L 149.160156 150.414062 "/>
<path style="fill:none;stroke-width:0.708617;stroke-linecap:round;stroke-linejoin:round;stroke:rgb(0%,0%,0%);stroke-opacity:1;stroke-miterlimit:10;" d="M 410.691406 118.367188 L 409.535156 139.605469 L 408.011719 150.550781 L 412.164062 150.515625 L 415.332031 150.472656 L 417.398438 150.425781 L 418.296875 150.375 "/>
<path style="fill:none;stroke-width:0.708617;stroke-linecap:round;stroke-linejoin:round;stroke:rgb(0%,0%,0%);stroke-opacity:1;stroke-miterlimit:10;" d="M 149.160156 86 L 150.9375 86.046875 L 153.839844 86.089844 "/>
<path style="fill:none;stroke-width:0.708617;stroke-linecap:round;stroke-linejoin:round;stroke:rgb(0%,0%,0%);stroke-opacity:1;stroke-miterlimit:10;" d="M 417.398438 86.011719 L 415.332031 86.058594 L 412.164062 86.101562 L 408.011719 86.140625 L 406.496094 86.152344 "/>
<path style="fill:none;stroke-width:0.708617;stroke-linecap:round;stroke-linejoin:round;stroke:rgb(0%,0%,0%);stroke-opacity:1;stroke-miterlimit:10;" d="M 150.9375 150.460938 L 153.839844 150.503906 L 157.757812 150.542969 L 158.882812 150.550781 "/>
<path style="fill:none;stroke-width:0.708617;stroke-linecap:round;stroke-linejoin:round;stroke:rgb(0%,0%,0%);stroke-opacity:1;stroke-miterlimit:10;" d="M 173.679688 83.726562 L 183.855469 83.804688 "/>
<path style="fill:none;stroke-width:0.708617;stroke-linecap:round;stroke-linejoin:round;stroke:rgb(0%,0%,0%);stroke-opacity:1;stroke-miterlimit:10;" d="M 393.210938 83.726562 L 383.039062 83.804688 "/>
<path style="fill:none;stroke-width:0.708617;stroke-linecap:round;stroke-linejoin:round;stroke:rgb(0%,0%,0%);stroke-opacity:1;stroke-miterlimit:10;" d="M 158.882812 150.550781 L 157.359375 139.605469 L 156.203125 118.367188 L 157.359375 97.109375 L 158.882812 86.140625 L 157.757812 86.128906 L 153.839844 86.089844 "/>
<path style="fill:none;stroke-width:0.708617;stroke-linecap:round;stroke-linejoin:round;stroke:rgb(0%,0%,0%);stroke-opacity:1;stroke-miterlimit:10;" d="M 173.679688 83.730469 L 183.855469 83.808594 "/>
<path style="fill:none;stroke-width:0.708617;stroke-linecap:round;stroke-linejoin:round;stroke:rgb(0%,0%,0%);stroke-opacity:1;stroke-miterlimit:10;" d="M 393.214844 83.730469 L 383.039062 83.808594 "/>
<path style="fill:none;stroke-width:0.708617;stroke-linecap:round;stroke-linejoin:round;stroke:rgb(0%,0%,0%);stroke-opacity:1;stroke-miterlimit:10;" d="M 383.488281 152.941406 L 392.039062 152.875 "/>
<path style="fill:none;stroke-width:0.708617;stroke-linecap:round;stroke-linejoin:round;stroke:rgb(0%,0%,0%);stroke-opacity:1;stroke-miterlimit:10;" d="M 183.40625 152.941406 L 174.855469 152.875 "/>
<path style="fill:none;stroke-width:0.708617;stroke-linecap:round;stroke-linejoin:round;stroke:rgb(0%,0%,0%);stroke-opacity:1;stroke-miterlimit:10;" d="M 405.433594 150.570312 L 408.011719 150.550781 L 405.246094 151.148438 "/>
<path style="fill:none;stroke-width:0.708617;stroke-linecap:round;stroke-linejoin:round;stroke:rgb(0%,0%,0%);stroke-opacity:1;stroke-miterlimit:10;" d="M 161.648438 151.148438 L 158.882812 150.550781 L 161.460938 150.570312 "/>
<path style="fill:none;stroke-width:0.708617;stroke-linecap:round;stroke-linejoin:round;stroke:rgb(0%,0%,0%);stroke-opacity:1;stroke-miterlimit:10;" d="M 160.398438 86.152344 L 158.882812 86.140625 L 160.46875 85.773438 "/>
<path style="fill:none;stroke-width:0.708617;stroke-linecap:round;stroke-linejoin:round;stroke:rgb(0%,0%,0%);stroke-opacity:1;stroke-miterlimit:10;" d="M 410.691406 118.367188 L 409.535156 97.109375 L 408.011719 86.140625 L 406.425781 85.773438 "/>
<path style="fill:none;stroke-width:0.708617;stroke-linecap:round;stroke-linejoin:round;stroke:rgb(0%,0%,0%);stroke-opacity:1;stroke-miterlimit:10;" d="M 183.855469 86.328125 L 173.039062 86.246094 "/>
<path style="fill:none;stroke-width:0.708617;stroke-linecap:round;stroke-linejoin:round;stroke:rgb(0%,0%,0%);stroke-opacity:1;stroke-miterlimit:10;" d="M 393.855469 86.246094 L 383.039062 86.328125 "/>
<path style="fill:none;stroke-width:0.708617;stroke-linecap:round;stroke-linejoin:round;stroke:rgb(0%,0%,0%);stroke-opacity:1;stroke-miterlimit:10;" d="M 383.105469 150.738281 L 392.839844 150.667969 "/>
<path style="fill:none;stroke-width:0.708617;stroke-linecap:round;stroke-linejoin:round;stroke:rgb(0%,0%,0%);stroke-opacity:1;stroke-miterlimit:10;" d="M 174.054688 150.667969 L 183.785156 150.738281 "/>
<path style="fill:none;stroke-width:0.708617;stroke-linecap:round;stroke-linejoin:round;stroke:rgb(0%,0%,0%);stroke-opacity:1;stroke-miterlimit:10;" d="M 183.855469 146.996094 L 180.777344 134.753906 L 179.433594 118.542969 L 180.777344 102.328125 L 183.855469 90.089844 "/>
<path style="fill:none;stroke-width:0.708617;stroke-linecap:round;stroke-linejoin:round;stroke:rgb(0%,0%,0%);stroke-opacity:1;stroke-miterlimit:10;" d="M 383.039062 146.996094 L 386.113281 134.753906 L 387.460938 118.542969 L 386.113281 102.328125 L 383.039062 90.085938 "/>
<path style="fill:none;stroke-width:0.708617;stroke-linecap:round;stroke-linejoin:round;stroke:rgb(0%,0%,0%);stroke-opacity:1;stroke-miterlimit:10;" d="M 192.609375 204.628906 L 189.839844 200.421875 L 192.609375 204.628906 L 196.273438 208.085938 L 200.632812 210.601562 L 205.457031 212.046875 "/>
<path style="fill:none;stroke-width:0.708617;stroke-linecap:round;stroke-linejoin:round;stroke:rgb(0%,0%,0%);stroke-opacity:1;stroke-miterlimit:10;" d="M 195.28125 25.625 L 199.488281 22.859375 L 204.222656 21.136719 L 209.226562 20.550781 L 209.226562 12.417969 "/>
<path style="fill:none;stroke-width:0.708617;stroke-linecap:round;stroke-linejoin:round;stroke:rgb(0%,0%,0%);stroke-opacity:1;stroke-miterlimit:10;" d="M 362.671875 211.792969 L 357.667969 212.378906 L 209.226562 212.378906 L 209.226562 215.089844 "/>
<path style="fill:none;stroke-width:0.708617;stroke-linecap:round;stroke-linejoin:round;stroke:rgb(0%,0%,0%);stroke-opacity:1;stroke-miterlimit:10;" d="M 379.359375 155.074219 L 379.359375 190.6875 L 387.492188 190.6875 L 387.492188 158.828125 L 387.492188 190.6875 L 387.039062 195.867188 L 385.054688 202.5 L 387.039062 195.867188 L 387.492188 190.6875 "/>
<path style="fill:none;stroke-width:0.708617;stroke-linecap:round;stroke-linejoin:round;stroke:rgb(0%,0%,0%);stroke-opacity:1;stroke-miterlimit:10;" d="M 361.433594 20.882812 L 366.261719 22.328125 L 370.621094 24.84375 L 374.285156 28.300781 L 377.050781 32.507812 L 378.773438 37.242188 L 379.359375 42.242188 L 379.359375 77.855469 "/>
<path style="fill:none;stroke-width:0.708617;stroke-linecap:round;stroke-linejoin:round;stroke:rgb(0%,0%,0%);stroke-opacity:1;stroke-miterlimit:10;" d="M 370.621094 24.84375 L 374.285156 28.300781 L 377.050781 32.507812 L 378.773438 37.242188 "/>
<path style="fill:none;stroke-width:0.708617;stroke-linecap:round;stroke-linejoin:round;stroke:rgb(0%,0%,0%);stroke-opacity:1;stroke-miterlimit:10;" d="M 187.535156 155.074219 L 187.535156 190.6875 L 188.117188 195.6875 L 187.535156 190.6875 L 187.535156 42.242188 L 187.535156 77.855469 "/>
<path style="fill:none;stroke-width:0.708617;stroke-linecap:round;stroke-linejoin:round;stroke:rgb(0%,0%,0%);stroke-opacity:1;stroke-miterlimit:10;" d="M 375.066406 203.640625 L 371.609375 207.300781 L 367.402344 210.070312 L 362.671875 211.792969 L 357.667969 212.378906 L 357.667969 220.511719 L 364.546875 219.707031 "/>
<path style="fill:none;stroke-width:0.708617;stroke-linecap:round;stroke-linejoin:round;stroke:rgb(0%,0%,0%);stroke-opacity:1;stroke-miterlimit:10;" d="M 375.066406 203.640625 L 377.585938 199.277344 L 379.03125 194.453125 L 379.359375 190.6875 L 379.03125 194.453125 L 377.585938 199.277344 L 375.066406 203.640625 L 371.609375 207.300781 L 367.402344 210.070312 L 362.671875 211.792969 "/>
<path style="fill:none;stroke-width:0.708617;stroke-linecap:round;stroke-linejoin:round;stroke:rgb(0%,0%,0%);stroke-opacity:1;stroke-miterlimit:10;" d="M 202.347656 13.222656 L 209.226562 12.417969 L 357.667969 12.417969 L 357.667969 20.550781 L 361.433594 20.882812 L 366.261719 22.328125 L 370.621094 24.84375 "/>
<path style="fill:none;stroke-width:0.708617;stroke-linecap:round;stroke-linejoin:round;stroke:rgb(0%,0%,0%);stroke-opacity:1;stroke-miterlimit:10;" d="M 357.667969 17.839844 L 357.667969 20.550781 L 209.226562 20.550781 L 204.222656 21.136719 L 199.488281 22.859375 L 195.28125 25.625 L 191.828125 29.289062 "/>
<path style="fill:none;stroke-width:0.708617;stroke-linecap:round;stroke-linejoin:round;stroke:rgb(0%,0%,0%);stroke-opacity:1;stroke-miterlimit:10;" d="M 188.117188 195.6875 L 189.839844 200.421875 Z M 188.117188 195.6875 "/>
<path style="fill:none;stroke-width:0.708617;stroke-linecap:round;stroke-linejoin:round;stroke:rgb(0%,0%,0%);stroke-opacity:1;stroke-miterlimit:10;" d="M 187.535156 190.6875 L 179.398438 190.6875 L 179.398438 158.828125 L 179.398438 190.6875 Z M 187.535156 190.6875 "/>
<path style="fill:none;stroke-width:0.708617;stroke-linecap:round;stroke-linejoin:round;stroke:rgb(0%,0%,0%);stroke-opacity:1;stroke-miterlimit:10;" d="M 364.546875 219.707031 L 357.667969 220.511719 L 357.667969 212.378906 L 209.226562 212.378906 L 209.226562 215.089844 "/>
<path style="fill:none;stroke-width:0.708617;stroke-linecap:round;stroke-linejoin:round;stroke:rgb(0%,0%,0%);stroke-opacity:1;stroke-miterlimit:10;" d="M 205.457031 212.046875 L 209.226562 212.378906 L 205.457031 212.046875 L 200.632812 210.601562 L 196.273438 208.085938 L 192.609375 204.628906 "/>
<path style="fill:none;stroke-width:0.708617;stroke-linecap:round;stroke-linejoin:round;stroke:rgb(0%,0%,0%);stroke-opacity:1;stroke-miterlimit:10;" d="M 187.863281 38.476562 L 187.535156 42.242188 L 187.863281 38.476562 L 189.308594 33.652344 L 191.828125 29.289062 "/>
<path style="fill:none;stroke-width:0.708617;stroke-linecap:round;stroke-linejoin:round;stroke:rgb(0%,0%,0%);stroke-opacity:1;stroke-miterlimit:10;" d="M 378.773438 37.242188 L 379.359375 42.242188 L 387.492188 42.242188 L 387.492188 74.101562 L 387.492188 42.242188 L 382.070312 42.242188 "/>
<path style="fill:none;stroke-width:0.708617;stroke-linecap:round;stroke-linejoin:round;stroke:rgb(0%,0%,0%);stroke-opacity:1;stroke-miterlimit:10;" d="M 387.492188 190.6875 L 379.359375 190.6875 L 379.359375 42.242188 L 382.070312 42.242188 "/>
<path style="fill:none;stroke-width:0.708617;stroke-linecap:round;stroke-linejoin:round;stroke:rgb(0%,0%,0%);stroke-opacity:1;stroke-miterlimit:10;" d="M 184.820312 42.242188 L 187.535156 42.242188 L 179.398438 42.242188 L 179.398438 74.101562 L 180.316406 74.726562 L 179.398438 74.101562 L 179.398438 42.242188 L 179.851562 37.0625 L 181.839844 30.429688 L 179.851562 37.0625 L 179.398438 42.242188 Z M 184.820312 42.242188 "/>
<path style="fill:none;stroke-width:0.708617;stroke-linecap:round;stroke-linejoin:round;stroke:rgb(0%,0%,0%);stroke-opacity:1;stroke-miterlimit:10;" d="M 209.226562 220.511719 L 209.226562 215.089844 L 209.226562 220.511719 L 204.046875 220.058594 L 197.410156 218.070312 L 204.046875 220.058594 L 209.226562 220.511719 L 357.667969 220.511719 Z M 209.226562 220.511719 "/>
<path style="fill:none;stroke-width:0.708617;stroke-linecap:round;stroke-linejoin:round;stroke:rgb(0%,0%,0%);stroke-opacity:1;stroke-miterlimit:10;" d="M 209.226562 12.417969 L 209.226562 20.550781 L 357.667969 20.550781 L 361.433594 20.882812 "/>
<path style="fill:none;stroke-width:0.708617;stroke-linecap:round;stroke-linejoin:round;stroke:rgb(0%,0%,0%);stroke-opacity:1;stroke-miterlimit:10;" d="M 183.855469 138.445312 L 183.855469 149.433594 L 183.777344 150.953125 "/>
<path style="fill:none;stroke-width:0.708617;stroke-linecap:round;stroke-linejoin:round;stroke:rgb(0%,0%,0%);stroke-opacity:1;stroke-miterlimit:10;" d="M 383.351562 80.492188 L 383.117188 81.976562 L 383.039062 83.496094 L 383.039062 149.4375 L 383.117188 150.953125 L 383.039062 149.4375 L 383.039062 138.445312 "/>
<path style="fill:none;stroke-width:0.708617;stroke-linecap:round;stroke-linejoin:round;stroke:rgb(0%,0%,0%);stroke-opacity:1;stroke-miterlimit:10;" d="M 383.292969 152.066406 L 383.117188 150.953125 L 383.351562 152.441406 "/>
<path style="fill:none;stroke-width:0.708617;stroke-linecap:round;stroke-linejoin:round;stroke:rgb(0%,0%,0%);stroke-opacity:1;stroke-miterlimit:10;" d="M 183.691406 151.5 L 183.542969 152.4375 L 183.152344 153.859375 "/>
<path style="fill:none;stroke-width:0.708617;stroke-linecap:round;stroke-linejoin:round;stroke:rgb(0%,0%,0%);stroke-opacity:1;stroke-miterlimit:10;" d="M 383.738281 153.859375 L 383.351562 152.441406 L 383.738281 153.855469 L 384.175781 154.941406 "/>
<path style="fill:none;stroke-width:0.708617;stroke-linecap:round;stroke-linejoin:round;stroke:rgb(0%,0%,0%);stroke-opacity:1;stroke-miterlimit:10;" d="M 182.621094 155.175781 L 181.957031 156.359375 L 181.179688 157.375 L 181.957031 156.359375 L 182.621094 155.175781 L 183.152344 153.859375 "/>
<path style="fill:none;stroke-width:0.708617;stroke-linecap:round;stroke-linejoin:round;stroke:rgb(0%,0%,0%);stroke-opacity:1;stroke-miterlimit:10;" d="M 384.761719 156.042969 L 384.273438 155.175781 "/>
<path style="fill:none;stroke-width:0.708617;stroke-linecap:round;stroke-linejoin:round;stroke:rgb(0%,0%,0%);stroke-opacity:1;stroke-miterlimit:10;" d="M 385.671875 75.613281 L 385.714844 75.554688 "/>
<path style="fill:none;stroke-width:0.708617;stroke-linecap:round;stroke-linejoin:round;stroke:rgb(0%,0%,0%);stroke-opacity:1;stroke-miterlimit:10;" d="M 384.9375 156.359375 L 385.714844 157.375 L 384.9375 156.359375 L 384.273438 155.175781 L 383.738281 153.859375 "/>
<path style="fill:none;stroke-width:0.708617;stroke-linecap:round;stroke-linejoin:round;stroke:rgb(0%,0%,0%);stroke-opacity:1;stroke-miterlimit:10;" d="M 387.492188 158.828125 L 386.574219 158.203125 L 385.714844 157.375 L 386.574219 158.203125 Z M 387.492188 158.828125 "/>
<path style="fill:none;stroke-width:0.708617;stroke-linecap:round;stroke-linejoin:round;stroke:rgb(0%,0%,0%);stroke-opacity:1;stroke-miterlimit:10;" d="M 357.667969 12.417969 L 362.847656 12.871094 Z M 357.667969 12.417969 "/>
<path style="fill:none;stroke-width:0.708617;stroke-linecap:round;stroke-linejoin:round;stroke:rgb(0%,0%,0%);stroke-opacity:1;stroke-miterlimit:10;" d="M 185.300781 24.433594 L 181.839844 30.429688 L 185.300781 24.433594 L 190.054688 19.394531 Z M 185.300781 24.433594 "/>
<path style="fill:none;stroke-width:0.708617;stroke-linecap:round;stroke-linejoin:round;stroke:rgb(0%,0%,0%);stroke-opacity:1;stroke-miterlimit:10;" d="M 369.480469 14.859375 L 375.480469 18.320312 L 380.515625 23.070312 L 375.480469 18.320312 L 369.480469 14.859375 L 362.847656 12.871094 Z M 369.480469 14.859375 "/>
<path style="fill:none;stroke-width:0.708617;stroke-linecap:round;stroke-linejoin:round;stroke:rgb(0%,0%,0%);stroke-opacity:1;stroke-miterlimit:10;" d="M 182.574219 204.070312 L 180.203125 197.566406 L 179.398438 190.6875 L 180.203125 197.566406 L 182.574219 204.070312 L 186.378906 209.859375 L 191.414062 214.609375 L 197.410156 218.070312 L 191.414062 214.609375 L 186.378906 209.859375 Z M 182.574219 204.070312 "/>
<path style="fill:none;stroke-width:0.708617;stroke-linecap:round;stroke-linejoin:round;stroke:rgb(0%,0%,0%);stroke-opacity:1;stroke-miterlimit:10;" d="M 384.320312 28.859375 L 380.515625 23.070312 L 384.320312 28.859375 L 386.6875 35.363281 L 387.492188 42.242188 L 386.6875 35.363281 Z M 384.320312 28.859375 "/>
<path style="fill:none;stroke-width:0.708617;stroke-linecap:round;stroke-linejoin:round;stroke:rgb(0%,0%,0%);stroke-opacity:1;stroke-miterlimit:10;" d="M 357.667969 17.839844 L 357.667969 12.417969 L 209.226562 12.417969 L 202.347656 13.222656 L 195.839844 15.589844 L 190.054688 19.394531 L 195.839844 15.589844 L 202.347656 13.222656 "/>
<path style="fill:none;stroke-width:0.708617;stroke-linecap:round;stroke-linejoin:round;stroke:rgb(0%,0%,0%);stroke-opacity:1;stroke-miterlimit:10;" d="M 385.054688 202.5 L 381.589844 208.496094 L 376.839844 213.535156 L 371.054688 217.339844 L 364.546875 219.707031 "/>
<path style="fill:none;stroke-width:0.708617;stroke-linecap:round;stroke-linejoin:round;stroke:rgb(0%,0%,0%);stroke-opacity:1;stroke-miterlimit:10;" d="M 387.492188 183.496094 L 387.492188 161.621094 L 388.847656 161.621094 L 387.492188 161.621094 L 387.492188 177.46875 L 394.753906 177.46875 L 387.492188 177.46875 L 387.492188 185.136719 Z M 387.492188 183.496094 "/>
<path style="fill:none;stroke-width:0.708617;stroke-linecap:round;stroke-linejoin:round;stroke:rgb(0%,0%,0%);stroke-opacity:1;stroke-miterlimit:10;" d="M 165.460938 69.871094 L 172.140625 55.460938 L 179.398438 55.460938 L 179.398438 71.308594 L 178.042969 71.308594 L 174.070312 82.199219 L 178.042969 71.308594 "/>
<path style="fill:none;stroke-width:0.708617;stroke-linecap:round;stroke-linejoin:round;stroke:rgb(0%,0%,0%);stroke-opacity:1;stroke-miterlimit:10;" d="M 387.492188 71.308594 L 388.847656 71.308594 L 387.492188 71.308594 L 387.492188 55.460938 L 394.753906 55.460938 L 387.492188 55.460938 L 387.492188 53.34375 "/>
<path style="fill:none;stroke-width:0.708617;stroke-linecap:round;stroke-linejoin:round;stroke:rgb(0%,0%,0%);stroke-opacity:1;stroke-miterlimit:10;" d="M 178.042969 161.621094 L 174.070312 150.730469 L 178.042969 161.621094 L 179.398438 161.621094 L 179.398438 179.585938 "/>
<path style="fill:none;stroke-width:0.708617;stroke-linecap:round;stroke-linejoin:round;stroke:rgb(0%,0%,0%);stroke-opacity:1;stroke-miterlimit:10;" d="M 387.492188 71.308594 L 387.492188 51.308594 L 387.492188 53.34375 "/>
<path style="fill:none;stroke-width:0.708617;stroke-linecap:round;stroke-linejoin:round;stroke:rgb(0%,0%,0%);stroke-opacity:1;stroke-miterlimit:10;" d="M 157.675781 132.320312 L 156.691406 116.464844 L 157.675781 132.320312 L 160.613281 147.929688 L 165.460938 163.058594 L 172.140625 177.46875 L 179.398438 177.46875 L 179.398438 183.496094 "/>
<path style="fill:none;stroke-width:0.708617;stroke-linecap:round;stroke-linejoin:round;stroke:rgb(0%,0%,0%);stroke-opacity:1;stroke-miterlimit:10;" d="M 179.398438 49.433594 L 179.398438 55.460938 L 172.140625 55.460938 L 173.238281 53.472656 L 174.351562 51.542969 "/>
<path style="fill:none;stroke-width:0.708617;stroke-linecap:round;stroke-linejoin:round;stroke:rgb(0%,0%,0%);stroke-opacity:1;stroke-miterlimit:10;" d="M 388.847656 161.621094 L 392.820312 150.730469 Z M 388.847656 161.621094 "/>
<path style="fill:none;stroke-width:0.708617;stroke-linecap:round;stroke-linejoin:round;stroke:rgb(0%,0%,0%);stroke-opacity:1;stroke-miterlimit:10;" d="M 179.398438 49.433594 L 179.398438 71.308594 L 178.042969 71.308594 "/>
<path style="fill:none;stroke-width:0.708617;stroke-linecap:round;stroke-linejoin:round;stroke:rgb(0%,0%,0%);stroke-opacity:1;stroke-miterlimit:10;" d="M 169.472656 104.890625 L 171.203125 93.429688 L 174.070312 82.199219 L 171.203125 93.429688 L 169.472656 104.890625 L 168.894531 116.464844 L 169.472656 128.039062 L 171.203125 139.5 "/>
<path style="fill:none;stroke-width:0.708617;stroke-linecap:round;stroke-linejoin:round;stroke:rgb(0%,0%,0%);stroke-opacity:1;stroke-miterlimit:10;" d="M 397.421875 128.039062 L 395.6875 139.5 L 392.820312 150.730469 L 395.6875 139.5 L 397.421875 128.039062 L 398 116.464844 Z M 397.421875 128.039062 "/>
<path style="fill:none;stroke-width:0.708617;stroke-linecap:round;stroke-linejoin:round;stroke:rgb(0%,0%,0%);stroke-opacity:1;stroke-miterlimit:10;" d="M 392.820312 82.199219 L 388.847656 71.308594 L 392.820312 82.199219 L 395.6875 93.429688 L 397.421875 104.890625 L 398 116.464844 L 397.421875 104.890625 L 395.6875 93.429688 Z M 392.820312 82.199219 "/>
<path style="fill:none;stroke-width:0.708617;stroke-linecap:round;stroke-linejoin:round;stroke:rgb(0%,0%,0%);stroke-opacity:1;stroke-miterlimit:10;" d="M 173.238281 53.472656 L 172.140625 55.460938 L 165.460938 69.871094 L 160.613281 85 L 165.460938 69.871094 "/>
<path style="fill:none;stroke-width:0.708617;stroke-linecap:round;stroke-linejoin:round;stroke:rgb(0%,0%,0%);stroke-opacity:1;stroke-miterlimit:10;" d="M 401.433594 163.058594 L 406.277344 147.929688 L 409.214844 132.320312 L 410.199219 116.464844 L 409.214844 100.609375 L 406.277344 85 L 401.433594 69.871094 L 394.753906 55.460938 "/>
<path style="fill:none;stroke-width:0.708617;stroke-linecap:round;stroke-linejoin:round;stroke:rgb(0%,0%,0%);stroke-opacity:1;stroke-miterlimit:10;" d="M 387.492188 46.441406 L 387.492188 51.308594 L 387.492188 49.433594 "/>
<path style="fill:none;stroke-width:0.708617;stroke-linecap:round;stroke-linejoin:round;stroke:rgb(0%,0%,0%);stroke-opacity:1;stroke-miterlimit:10;" d="M 388.796875 187.378906 L 389.519531 186.28125 L 390.425781 184.867188 L 391.453125 183.210938 L 392.542969 181.386719 L 393.65625 179.457031 L 394.753906 177.46875 L 393.65625 179.457031 "/>
<path style="fill:none;stroke-width:0.708617;stroke-linecap:round;stroke-linejoin:round;stroke:rgb(0%,0%,0%);stroke-opacity:1;stroke-miterlimit:10;" d="M 171.203125 139.5 L 174.070312 150.730469 L 171.203125 139.5 L 169.472656 128.039062 L 168.894531 116.464844 L 169.472656 104.890625 "/>
<path style="fill:none;stroke-width:0.708617;stroke-linecap:round;stroke-linejoin:round;stroke:rgb(0%,0%,0%);stroke-opacity:1;stroke-miterlimit:10;" d="M 173.238281 53.472656 L 174.351562 51.542969 L 175.441406 49.71875 L 174.351562 51.542969 "/>
<path style="fill:none;stroke-width:0.708617;stroke-linecap:round;stroke-linejoin:round;stroke:rgb(0%,0%,0%);stroke-opacity:1;stroke-miterlimit:10;" d="M 401.433594 163.058594 L 394.753906 177.46875 L 401.433594 163.058594 L 406.277344 147.929688 L 409.214844 132.320312 L 410.199219 116.464844 "/>
<path style="fill:none;stroke-width:0.708617;stroke-linecap:round;stroke-linejoin:round;stroke:rgb(0%,0%,0%);stroke-opacity:1;stroke-miterlimit:10;" d="M 179.398438 187.488281 L 179.398438 188.105469 L 179.398438 183.496094 "/>
<path style="fill:none;stroke-width:0.708617;stroke-linecap:round;stroke-linejoin:round;stroke:rgb(0%,0%,0%);stroke-opacity:1;stroke-miterlimit:10;" d="M 387.492188 46.441406 L 387.492188 45.441406 L 387.492188 49.433594 "/>
<path style="fill:none;stroke-width:0.708617;stroke-linecap:round;stroke-linejoin:round;stroke:rgb(0%,0%,0%);stroke-opacity:1;stroke-miterlimit:10;" d="M 157.675781 100.609375 L 160.613281 85 L 157.675781 100.609375 L 156.691406 116.464844 Z M 157.675781 100.609375 "/>
<path style="fill:none;stroke-width:0.708617;stroke-linecap:round;stroke-linejoin:round;stroke:rgb(0%,0%,0%);stroke-opacity:1;stroke-miterlimit:10;" d="M 160.613281 147.929688 L 157.675781 132.320312 "/>
<path style="fill:none;stroke-width:0.708617;stroke-linecap:round;stroke-linejoin:round;stroke:rgb(0%,0%,0%);stroke-opacity:1;stroke-miterlimit:10;" d="M 390.425781 184.867188 L 391.453125 183.210938 L 392.542969 181.386719 L 393.65625 179.457031 "/>
<path style="fill:none;stroke-width:0.708617;stroke-linecap:round;stroke-linejoin:round;stroke:rgb(0%,0%,0%);stroke-opacity:1;stroke-miterlimit:10;" d="M 177.375 46.648438 L 176.46875 48.0625 L 175.441406 49.71875 L 176.46875 48.0625 "/>
<path style="fill:none;stroke-width:0.708617;stroke-linecap:round;stroke-linejoin:round;stroke:rgb(0%,0%,0%);stroke-opacity:1;stroke-miterlimit:10;" d="M 179.398438 187.488281 L 179.398438 183.496094 "/>
<path style="fill:none;stroke-width:0.708617;stroke-linecap:round;stroke-linejoin:round;stroke:rgb(0%,0%,0%);stroke-opacity:1;stroke-miterlimit:10;" d="M 387.492188 185.136719 L 387.492188 187.488281 Z M 387.492188 185.136719 "/>
<path style="fill:none;stroke-width:0.708617;stroke-linecap:round;stroke-linejoin:round;stroke:rgb(0%,0%,0%);stroke-opacity:1;stroke-miterlimit:10;" d="M 179.398438 47.792969 L 179.398438 49.433594 L 179.398438 46.441406 Z M 179.398438 47.792969 "/>
<path style="fill:none;stroke-width:0.708617;stroke-linecap:round;stroke-linejoin:round;stroke:rgb(0%,0%,0%);stroke-opacity:1;stroke-miterlimit:10;" d="M 172.140625 177.46875 L 173.238281 179.457031 L 174.351562 181.386719 L 175.441406 183.210938 L 176.46875 184.867188 L 177.375 186.28125 L 176.46875 184.867188 "/>
<path style="fill:none;stroke-width:0.708617;stroke-linecap:round;stroke-linejoin:round;stroke:rgb(0%,0%,0%);stroke-opacity:1;stroke-miterlimit:10;" d="M 178.097656 187.382812 L 178.097656 187.378906 L 178.5625 188.078125 L 178.097656 187.378906 L 177.375 186.28125 L 178.097656 187.378906 "/>
<path style="fill:none;stroke-width:0.708617;stroke-linecap:round;stroke-linejoin:round;stroke:rgb(0%,0%,0%);stroke-opacity:1;stroke-miterlimit:10;" d="M 388.796875 45.550781 L 389.519531 46.648438 L 390.425781 48.0625 L 391.453125 49.71875 L 392.542969 51.542969 L 393.65625 53.472656 "/>
<path style="fill:none;stroke-width:0.708617;stroke-linecap:round;stroke-linejoin:round;stroke:rgb(0%,0%,0%);stroke-opacity:1;stroke-miterlimit:10;" d="M 179.398438 44.613281 L 179.398438 46.441406 "/>
<path style="fill:none;stroke-width:0.708617;stroke-linecap:round;stroke-linejoin:round;stroke:rgb(0%,0%,0%);stroke-opacity:1;stroke-miterlimit:10;" d="M 388.171875 44.613281 L 387.492188 44.613281 L 387.492188 45.441406 L 387.492188 44.613281 L 388.171875 44.613281 L 388.332031 44.851562 L 388.796875 45.550781 L 388.332031 44.851562 "/>
<path style="fill:none;stroke-width:0.708617;stroke-linecap:round;stroke-linejoin:round;stroke:rgb(0%,0%,0%);stroke-opacity:1;stroke-miterlimit:10;" d="M 179.398438 46.441406 L 179.398438 44.613281 L 178.722656 44.613281 L 178.5625 44.851562 L 178.097656 45.550781 "/>
<path style="fill:none;stroke-width:0.708617;stroke-linecap:round;stroke-linejoin:round;stroke:rgb(0%,0%,0%);stroke-opacity:1;stroke-miterlimit:10;" d="M 390.425781 48.0625 L 389.519531 46.648438 L 388.796875 45.550781 L 388.796875 45.546875 "/>
<path style="fill:none;stroke-width:0.708617;stroke-linecap:round;stroke-linejoin:round;stroke:rgb(0%,0%,0%);stroke-opacity:1;stroke-miterlimit:10;" d="M 387.492188 188.3125 L 387.492188 187.488281 L 387.492188 188.3125 L 388.171875 188.3125 Z M 387.492188 188.3125 "/>
<path style="fill:none;stroke-width:0.708617;stroke-linecap:round;stroke-linejoin:round;stroke:rgb(0%,0%,0%);stroke-opacity:1;stroke-miterlimit:10;" d="M 388.171875 188.3125 L 388.332031 188.078125 L 388.796875 187.378906 L 388.332031 188.078125 Z M 388.171875 188.3125 "/>
<path style="fill:none;stroke-width:0.708617;stroke-linecap:round;stroke-linejoin:round;stroke:rgb(0%,0%,0%);stroke-opacity:1;stroke-miterlimit:10;" d="M 179.398438 188.3125 L 179.398438 188.105469 Z M 179.398438 188.3125 "/>
<path style="fill:none;stroke-width:0.708617;stroke-linecap:round;stroke-linejoin:round;stroke:rgb(0%,0%,0%);stroke-opacity:1;stroke-miterlimit:10;" d="M 179.398438 44.613281 L 178.722656 44.613281 L 178.5625 44.851562 L 178.097656 45.550781 L 177.375 46.648438 "/>
<path style="fill:none;stroke-width:0.708617;stroke-linecap:round;stroke-linejoin:round;stroke:rgb(0%,0%,0%);stroke-opacity:1;stroke-miterlimit:10;" d="M 178.5625 188.078125 L 178.722656 188.3125 L 179.398438 188.3125 L 178.722656 188.3125 "/>
<path style="fill:none;stroke-width:0.708617;stroke-linecap:round;stroke-linejoin:round;stroke:rgb(0%,0%,0%);stroke-opacity:1;stroke-miterlimit:10;" d="M 410.199219 116.464844 L 409.214844 100.609375 L 406.277344 85 L 401.433594 69.871094 L 394.753906 55.460938 L 393.65625 53.472656 "/>
<path style="fill:none;stroke-width:0.708617;stroke-linecap:round;stroke-linejoin:round;stroke:rgb(0%,0%,0%);stroke-opacity:1;stroke-miterlimit:10;" d="M 178.042969 161.621094 L 179.398438 161.621094 L 179.398438 177.46875 L 172.140625 177.46875 L 165.460938 163.058594 L 160.613281 147.929688 "/>
<path style="fill:none;stroke-width:0.708617;stroke-linecap:round;stroke-linejoin:round;stroke:rgb(0%,0%,0%);stroke-opacity:1;stroke-miterlimit:10;" d="M 179.398438 179.585938 L 179.398438 183.496094 "/>
<path style="fill:none;stroke-width:0.708617;stroke-linecap:round;stroke-linejoin:round;stroke:rgb(0%,0%,0%);stroke-opacity:1;stroke-miterlimit:10;" d="M 364.546875 219.707031 L 371.054688 217.339844 L 376.839844 213.535156 L 381.589844 208.496094 L 385.054688 202.5 "/>
<path style="fill:none;stroke-width:0.708617;stroke-linecap:round;stroke-linejoin:round;stroke:rgb(0%,0%,0%);stroke-opacity:1;stroke-miterlimit:10;" d="M 387.492188 74.101562 L 386.574219 74.726562 L 385.714844 75.554688 L 384.9375 76.570312 "/>
<path style="fill:none;stroke-width:0.708617;stroke-linecap:round;stroke-linejoin:round;stroke:rgb(0%,0%,0%);stroke-opacity:1;stroke-miterlimit:10;" d="M 179.398438 158.828125 L 180.316406 158.203125 L 181.179688 157.375 "/>
<path style="fill:none;stroke-width:0.708617;stroke-linecap:round;stroke-linejoin:round;stroke:rgb(0%,0%,0%);stroke-opacity:1;stroke-miterlimit:10;" d="M 182.621094 77.753906 L 181.957031 76.570312 L 181.179688 75.554688 L 180.316406 74.726562 "/>
<path style="fill:none;stroke-width:0.708617;stroke-linecap:round;stroke-linejoin:round;stroke:rgb(0%,0%,0%);stroke-opacity:1;stroke-miterlimit:10;" d="M 384.9375 76.570312 L 384.273438 77.753906 L 383.738281 79.074219 L 383.351562 80.492188 "/>
<path style="fill:none;stroke-width:0.708617;stroke-linecap:round;stroke-linejoin:round;stroke:rgb(0%,0%,0%);stroke-opacity:1;stroke-miterlimit:10;" d="M 183.777344 81.976562 L 183.542969 80.492188 L 183.152344 79.070312 L 182.621094 77.753906 "/>
<path style="fill:none;stroke-width:0.708617;stroke-linecap:round;stroke-linejoin:round;stroke:rgb(0%,0%,0%);stroke-opacity:1;stroke-miterlimit:10;" d="M 182.621094 155.175781 L 183.15625 153.855469 "/>
<path style="fill:none;stroke-width:0.708617;stroke-linecap:round;stroke-linejoin:round;stroke:rgb(0%,0%,0%);stroke-opacity:1;stroke-miterlimit:10;" d="M 183.777344 150.953125 L 183.542969 152.4375 L 183.15625 153.855469 "/>
<path style="fill:none;stroke-width:0.708617;stroke-linecap:round;stroke-linejoin:round;stroke:rgb(0%,0%,0%);stroke-opacity:1;stroke-miterlimit:10;" d="M 183.855469 149.433594 L 183.855469 83.492188 L 183.777344 81.976562 "/>
<path style="fill:none;stroke-width:0.708617;stroke-linecap:round;stroke-linejoin:round;stroke:rgb(0%,0%,0%);stroke-opacity:1;stroke-miterlimit:10;" d="M 203.128906 205.402344 L 200.375 203.929688 L 197.960938 201.949219 L 195.980469 199.535156 L 197.960938 201.949219 L 200.375 203.929688 Z M 203.128906 205.402344 "/>
<path style="fill:none;stroke-width:0.708617;stroke-linecap:round;stroke-linejoin:round;stroke:rgb(0%,0%,0%);stroke-opacity:1;stroke-miterlimit:10;" d="M 357.667969 206.617188 L 209.226562 206.617188 L 357.667969 206.617188 L 360.777344 206.308594 L 363.765625 205.402344 L 366.519531 203.929688 L 363.765625 205.402344 L 360.777344 206.308594 Z M 357.667969 206.617188 "/>
<path style="fill:none;stroke-width:0.708617;stroke-linecap:round;stroke-linejoin:round;stroke:rgb(0%,0%,0%);stroke-opacity:1;stroke-miterlimit:10;" d="M 373.597656 42.242188 L 373.597656 190.6875 L 373.597656 42.242188 L 373.292969 39.136719 L 372.386719 36.148438 "/>
<path style="fill:none;stroke-width:0.708617;stroke-linecap:round;stroke-linejoin:round;stroke:rgb(0%,0%,0%);stroke-opacity:1;stroke-miterlimit:10;" d="M 194.507812 36.148438 L 193.601562 39.136719 L 194.507812 36.148438 L 195.980469 33.394531 L 197.960938 30.980469 L 195.980469 33.394531 Z M 194.507812 36.148438 "/>
<path style="fill:none;stroke-width:0.708617;stroke-linecap:round;stroke-linejoin:round;stroke:rgb(0%,0%,0%);stroke-opacity:1;stroke-miterlimit:10;" d="M 373.597656 42.242188 L 373.292969 39.136719 L 372.386719 36.148438 L 370.914062 33.394531 L 368.933594 30.980469 L 366.519531 29 L 363.765625 27.527344 L 360.777344 26.621094 L 363.765625 27.527344 L 366.519531 29 L 368.933594 30.980469 "/>
<path style="fill:none;stroke-width:0.708617;stroke-linecap:round;stroke-linejoin:round;stroke:rgb(0%,0%,0%);stroke-opacity:1;stroke-miterlimit:10;" d="M 206.117188 206.308594 L 203.128906 205.402344 L 206.117188 206.308594 L 209.226562 206.617188 Z M 206.117188 206.308594 "/>
<path style="fill:none;stroke-width:0.708617;stroke-linecap:round;stroke-linejoin:round;stroke:rgb(0%,0%,0%);stroke-opacity:1;stroke-miterlimit:10;" d="M 366.519531 203.929688 L 368.933594 201.949219 Z M 366.519531 203.929688 "/>
<path style="fill:none;stroke-width:0.708617;stroke-linecap:round;stroke-linejoin:round;stroke:rgb(0%,0%,0%);stroke-opacity:1;stroke-miterlimit:10;" d="M 209.226562 26.3125 L 357.667969 26.3125 L 360.777344 26.621094 L 357.667969 26.3125 L 209.226562 26.3125 L 206.117188 26.621094 L 203.128906 27.527344 L 200.375 29 L 197.960938 30.980469 "/>
<path style="fill:none;stroke-width:0.708617;stroke-linecap:round;stroke-linejoin:round;stroke:rgb(0%,0%,0%);stroke-opacity:1;stroke-miterlimit:10;" d="M 224.183594 187.710938 L 223.316406 184.851562 L 224.183594 187.710938 L 224.476562 190.6875 L 224.183594 193.664062 L 223.316406 196.523438 L 221.90625 199.160156 "/>
<path style="fill:none;stroke-width:0.708617;stroke-linecap:round;stroke-linejoin:round;stroke:rgb(0%,0%,0%);stroke-opacity:1;stroke-miterlimit:10;" d="M 368.453125 53.027344 L 366.140625 54.921875 L 363.503906 56.332031 "/>
<path style="fill:none;stroke-width:0.708617;stroke-linecap:round;stroke-linejoin:round;stroke:rgb(0%,0%,0%);stroke-opacity:1;stroke-miterlimit:10;" d="M 217.699219 178.007812 L 215.0625 176.597656 L 212.199219 175.730469 L 209.226562 175.4375 L 206.25 175.730469 L 203.386719 176.597656 L 200.75 178.007812 L 203.386719 176.597656 L 206.25 175.730469 L 209.226562 175.4375 "/>
<path style="fill:none;stroke-width:0.708617;stroke-linecap:round;stroke-linejoin:round;stroke:rgb(0%,0%,0%);stroke-opacity:1;stroke-miterlimit:10;" d="M 203.386719 56.332031 L 206.25 57.199219 L 209.226562 57.492188 L 212.199219 57.199219 L 209.226562 57.492188 L 206.25 57.199219 Z M 203.386719 56.332031 "/>
<path style="fill:none;stroke-width:0.708617;stroke-linecap:round;stroke-linejoin:round;stroke:rgb(0%,0%,0%);stroke-opacity:1;stroke-miterlimit:10;" d="M 372.625 187.710938 L 372.917969 190.6875 Z M 372.625 187.710938 "/>
<path style="fill:none;stroke-width:0.708617;stroke-linecap:round;stroke-linejoin:round;stroke:rgb(0%,0%,0%);stroke-opacity:1;stroke-miterlimit:10;" d="M 342.710938 45.21875 L 343.578125 48.078125 L 344.988281 50.714844 L 346.882812 53.027344 L 349.195312 54.921875 L 351.832031 56.332031 L 349.195312 54.921875 L 346.882812 53.027344 L 344.988281 50.714844 "/>
<path style="fill:none;stroke-width:0.708617;stroke-linecap:round;stroke-linejoin:round;stroke:rgb(0%,0%,0%);stroke-opacity:1;stroke-miterlimit:10;" d="M 342.710938 187.710938 L 342.417969 190.6875 L 342.710938 193.664062 L 342.417969 190.6875 L 342.710938 187.710938 L 343.578125 184.851562 L 344.988281 182.214844 L 346.882812 179.902344 "/>
<path style="fill:none;stroke-width:0.708617;stroke-linecap:round;stroke-linejoin:round;stroke:rgb(0%,0%,0%);stroke-opacity:1;stroke-miterlimit:10;" d="M 200.75 203.367188 L 203.386719 204.777344 L 206.25 205.644531 L 209.226562 205.9375 "/>
<path style="fill:none;stroke-width:0.708617;stroke-linecap:round;stroke-linejoin:round;stroke:rgb(0%,0%,0%);stroke-opacity:1;stroke-miterlimit:10;" d="M 224.183594 187.710938 L 224.476562 190.6875 L 224.183594 193.664062 L 223.316406 196.523438 L 221.90625 199.160156 L 220.007812 201.472656 L 221.90625 199.160156 "/>
<path style="fill:none;stroke-width:0.708617;stroke-linecap:round;stroke-linejoin:round;stroke:rgb(0%,0%,0%);stroke-opacity:1;stroke-miterlimit:10;" d="M 349.195312 178.007812 L 346.882812 179.902344 "/>
<path style="fill:none;stroke-width:0.708617;stroke-linecap:round;stroke-linejoin:round;stroke:rgb(0%,0%,0%);stroke-opacity:1;stroke-miterlimit:10;" d="M 368.453125 31.457031 L 370.347656 33.769531 L 368.453125 31.457031 L 366.140625 29.5625 L 363.503906 28.152344 L 360.644531 27.285156 "/>
<path style="fill:none;stroke-width:0.708617;stroke-linecap:round;stroke-linejoin:round;stroke:rgb(0%,0%,0%);stroke-opacity:1;stroke-miterlimit:10;" d="M 354.695312 27.285156 L 351.832031 28.152344 L 349.195312 29.5625 L 346.882812 31.457031 L 344.988281 33.769531 L 346.882812 31.457031 "/>
<path style="fill:none;stroke-width:0.708617;stroke-linecap:round;stroke-linejoin:round;stroke:rgb(0%,0%,0%);stroke-opacity:1;stroke-miterlimit:10;" d="M 209.226562 175.4375 L 212.199219 175.730469 L 215.0625 176.597656 L 217.699219 178.007812 L 220.007812 179.902344 L 217.699219 178.007812 "/>
<path style="fill:none;stroke-width:0.708617;stroke-linecap:round;stroke-linejoin:round;stroke:rgb(0%,0%,0%);stroke-opacity:1;stroke-miterlimit:10;" d="M 342.710938 45.21875 L 342.417969 42.242188 L 342.710938 39.265625 L 343.578125 36.40625 L 344.988281 33.769531 "/>
<path style="fill:none;stroke-width:0.708617;stroke-linecap:round;stroke-linejoin:round;stroke:rgb(0%,0%,0%);stroke-opacity:1;stroke-miterlimit:10;" d="M 371.757812 36.40625 L 372.625 39.265625 L 372.917969 42.242188 L 372.625 45.21875 L 371.757812 48.078125 L 370.347656 50.714844 L 371.757812 48.078125 "/>
<path style="fill:none;stroke-width:0.708617;stroke-linecap:round;stroke-linejoin:round;stroke:rgb(0%,0%,0%);stroke-opacity:1;stroke-miterlimit:10;" d="M 196.542969 50.714844 L 195.132812 48.078125 L 196.542969 50.714844 L 198.441406 53.027344 L 200.75 54.921875 "/>
<path style="fill:none;stroke-width:0.708617;stroke-linecap:round;stroke-linejoin:round;stroke:rgb(0%,0%,0%);stroke-opacity:1;stroke-miterlimit:10;" d="M 223.316406 184.851562 L 221.90625 182.214844 Z M 223.316406 184.851562 "/>
<path style="fill:none;stroke-width:0.708617;stroke-linecap:round;stroke-linejoin:round;stroke:rgb(0%,0%,0%);stroke-opacity:1;stroke-miterlimit:10;" d="M 371.757812 196.523438 L 372.625 193.664062 L 372.917969 190.6875 L 372.625 193.664062 L 371.757812 196.523438 L 370.347656 199.160156 L 368.453125 201.472656 L 370.347656 199.160156 Z M 371.757812 196.523438 "/>
<path style="fill:none;stroke-width:0.708617;stroke-linecap:round;stroke-linejoin:round;stroke:rgb(0%,0%,0%);stroke-opacity:1;stroke-miterlimit:10;" d="M 206.25 27.285156 L 203.386719 28.152344 Z M 206.25 27.285156 "/>
<path style="fill:none;stroke-width:0.708617;stroke-linecap:round;stroke-linejoin:round;stroke:rgb(0%,0%,0%);stroke-opacity:1;stroke-miterlimit:10;" d="M 223.316406 36.40625 L 221.90625 33.769531 Z M 223.316406 36.40625 "/>
<path style="fill:none;stroke-width:0.708617;stroke-linecap:round;stroke-linejoin:round;stroke:rgb(0%,0%,0%);stroke-opacity:1;stroke-miterlimit:10;" d="M 194.265625 45.21875 L 193.972656 42.242188 L 194.265625 39.265625 L 195.132812 36.40625 L 196.542969 33.769531 L 198.441406 31.457031 L 200.75 29.5625 L 203.386719 28.152344 L 200.75 29.5625 L 198.441406 31.457031 "/>
<path style="fill:none;stroke-width:0.708617;stroke-linecap:round;stroke-linejoin:round;stroke:rgb(0%,0%,0%);stroke-opacity:1;stroke-miterlimit:10;" d="M 371.757812 48.078125 L 372.625 45.21875 L 372.917969 42.242188 L 372.625 39.265625 L 371.757812 36.40625 "/>
<path style="fill:none;stroke-width:0.708617;stroke-linecap:round;stroke-linejoin:round;stroke:rgb(0%,0%,0%);stroke-opacity:1;stroke-miterlimit:10;" d="M 370.347656 33.769531 L 371.757812 36.40625 Z M 370.347656 33.769531 "/>
<path style="fill:none;stroke-width:0.708617;stroke-linecap:round;stroke-linejoin:round;stroke:rgb(0%,0%,0%);stroke-opacity:1;stroke-miterlimit:10;" d="M 198.441406 179.902344 L 200.75 178.007812 L 198.441406 179.902344 L 196.542969 182.214844 L 195.132812 184.851562 L 196.542969 182.214844 Z M 198.441406 179.902344 "/>
<path style="fill:none;stroke-width:0.708617;stroke-linecap:round;stroke-linejoin:round;stroke:rgb(0%,0%,0%);stroke-opacity:1;stroke-miterlimit:10;" d="M 354.695312 205.644531 L 357.667969 205.9375 L 360.644531 205.644531 L 363.503906 204.777344 L 366.140625 203.367188 "/>
<path style="fill:none;stroke-width:0.708617;stroke-linecap:round;stroke-linejoin:round;stroke:rgb(0%,0%,0%);stroke-opacity:1;stroke-miterlimit:10;" d="M 220.007812 179.902344 L 221.90625 182.214844 Z M 220.007812 179.902344 "/>
<path style="fill:none;stroke-width:0.708617;stroke-linecap:round;stroke-linejoin:round;stroke:rgb(0%,0%,0%);stroke-opacity:1;stroke-miterlimit:10;" d="M 215.0625 204.777344 L 217.699219 203.367188 L 220.007812 201.472656 L 217.699219 203.367188 L 215.0625 204.777344 L 212.199219 205.644531 Z M 215.0625 204.777344 "/>
<path style="fill:none;stroke-width:0.708617;stroke-linecap:round;stroke-linejoin:round;stroke:rgb(0%,0%,0%);stroke-opacity:1;stroke-miterlimit:10;" d="M 198.441406 31.457031 L 196.542969 33.769531 L 195.132812 36.40625 L 194.265625 39.265625 L 193.972656 42.242188 L 194.265625 45.21875 L 195.132812 48.078125 L 194.265625 45.21875 "/>
<path style="fill:none;stroke-width:0.708617;stroke-linecap:round;stroke-linejoin:round;stroke:rgb(0%,0%,0%);stroke-opacity:1;stroke-miterlimit:10;" d="M 368.453125 179.902344 L 370.347656 182.214844 Z M 368.453125 179.902344 "/>
<path style="fill:none;stroke-width:0.708617;stroke-linecap:round;stroke-linejoin:round;stroke:rgb(0%,0%,0%);stroke-opacity:1;stroke-miterlimit:10;" d="M 215.0625 56.332031 L 217.699219 54.921875 L 215.0625 56.332031 L 212.199219 57.199219 Z M 215.0625 56.332031 "/>
<path style="fill:none;stroke-width:0.708617;stroke-linecap:round;stroke-linejoin:round;stroke:rgb(0%,0%,0%);stroke-opacity:1;stroke-miterlimit:10;" d="M 366.140625 203.367188 L 368.453125 201.472656 L 366.140625 203.367188 L 363.503906 204.777344 L 360.644531 205.644531 L 357.667969 205.9375 L 354.695312 205.644531 L 351.832031 204.777344 L 349.195312 203.367188 L 351.832031 204.777344 L 354.695312 205.644531 "/>
<path style="fill:none;stroke-width:0.708617;stroke-linecap:round;stroke-linejoin:round;stroke:rgb(0%,0%,0%);stroke-opacity:1;stroke-miterlimit:10;" d="M 344.988281 199.160156 L 346.882812 201.472656 L 344.988281 199.160156 L 343.578125 196.523438 L 342.710938 193.664062 L 343.578125 196.523438 Z M 344.988281 199.160156 "/>
<path style="fill:none;stroke-width:0.708617;stroke-linecap:round;stroke-linejoin:round;stroke:rgb(0%,0%,0%);stroke-opacity:1;stroke-miterlimit:10;" d="M 224.476562 42.242188 L 224.183594 39.265625 L 223.316406 36.40625 L 224.183594 39.265625 "/>
<path style="fill:none;stroke-width:0.708617;stroke-linecap:round;stroke-linejoin:round;stroke:rgb(0%,0%,0%);stroke-opacity:1;stroke-miterlimit:10;" d="M 221.90625 50.714844 L 223.316406 48.078125 L 224.183594 45.21875 L 224.476562 42.242188 "/>
<path style="fill:none;stroke-width:0.708617;stroke-linecap:round;stroke-linejoin:round;stroke:rgb(0%,0%,0%);stroke-opacity:1;stroke-miterlimit:10;" d="M 349.195312 203.367188 L 346.882812 201.472656 Z M 349.195312 203.367188 "/>
<path style="fill:none;stroke-width:0.708617;stroke-linecap:round;stroke-linejoin:round;stroke:rgb(0%,0%,0%);stroke-opacity:1;stroke-miterlimit:10;" d="M 209.226562 205.9375 L 212.199219 205.644531 L 209.226562 205.9375 L 206.25 205.644531 L 203.386719 204.777344 L 200.75 203.367188 "/>
<path style="fill:none;stroke-width:0.708617;stroke-linecap:round;stroke-linejoin:round;stroke:rgb(0%,0%,0%);stroke-opacity:1;stroke-miterlimit:10;" d="M 368.453125 31.457031 L 366.140625 29.5625 L 363.503906 28.152344 L 360.644531 27.285156 L 357.667969 26.992188 L 354.695312 27.285156 "/>
<path style="fill:none;stroke-width:0.708617;stroke-linecap:round;stroke-linejoin:round;stroke:rgb(0%,0%,0%);stroke-opacity:1;stroke-miterlimit:10;" d="M 200.75 203.367188 L 198.441406 201.472656 L 196.542969 199.160156 L 195.132812 196.523438 L 194.265625 193.664062 L 195.132812 196.523438 "/>
<path style="fill:none;stroke-width:0.708617;stroke-linecap:round;stroke-linejoin:round;stroke:rgb(0%,0%,0%);stroke-opacity:1;stroke-miterlimit:10;" d="M 220.007812 31.457031 L 217.699219 29.5625 L 215.0625 28.152344 "/>
<path style="fill:none;stroke-width:0.708617;stroke-linecap:round;stroke-linejoin:round;stroke:rgb(0%,0%,0%);stroke-opacity:1;stroke-miterlimit:10;" d="M 215.0625 28.152344 L 212.199219 27.285156 L 209.226562 26.992188 L 206.25 27.285156 L 209.226562 26.992188 L 212.199219 27.285156 L 215.0625 28.152344 L 217.699219 29.5625 L 220.007812 31.457031 L 221.90625 33.769531 L 220.007812 31.457031 "/>
<path style="fill:none;stroke-width:0.708617;stroke-linecap:round;stroke-linejoin:round;stroke:rgb(0%,0%,0%);stroke-opacity:1;stroke-miterlimit:10;" d="M 363.503906 56.332031 L 360.644531 57.199219 L 357.667969 57.492188 L 360.644531 57.199219 L 363.503906 56.332031 L 366.140625 54.921875 L 368.453125 53.027344 L 370.347656 50.714844 L 368.453125 53.027344 "/>
<path style="fill:none;stroke-width:0.708617;stroke-linecap:round;stroke-linejoin:round;stroke:rgb(0%,0%,0%);stroke-opacity:1;stroke-miterlimit:10;" d="M 194.265625 187.710938 L 193.972656 190.6875 L 194.265625 193.664062 L 193.972656 190.6875 L 194.265625 187.710938 L 195.132812 184.851562 Z M 194.265625 187.710938 "/>
<path style="fill:none;stroke-width:0.708617;stroke-linecap:round;stroke-linejoin:round;stroke:rgb(0%,0%,0%);stroke-opacity:1;stroke-miterlimit:10;" d="M 371.757812 184.851562 L 370.347656 182.214844 L 371.757812 184.851562 L 372.625 187.710938 Z M 371.757812 184.851562 "/>
<path style="fill:none;stroke-width:0.708617;stroke-linecap:round;stroke-linejoin:round;stroke:rgb(0%,0%,0%);stroke-opacity:1;stroke-miterlimit:10;" d="M 221.90625 50.714844 L 220.007812 53.027344 L 217.699219 54.921875 "/>
<path style="fill:none;stroke-width:0.708617;stroke-linecap:round;stroke-linejoin:round;stroke:rgb(0%,0%,0%);stroke-opacity:1;stroke-miterlimit:10;" d="M 373.597656 190.6875 L 373.292969 193.792969 L 372.386719 196.78125 L 370.914062 199.535156 L 368.933594 201.949219 L 370.914062 199.535156 "/>
<path style="fill:none;stroke-width:0.708617;stroke-linecap:round;stroke-linejoin:round;stroke:rgb(0%,0%,0%);stroke-opacity:1;stroke-miterlimit:10;" d="M 200.75 203.367188 L 198.441406 201.472656 L 196.542969 199.160156 L 195.132812 196.523438 "/>
<path style="fill:none;stroke-width:0.708617;stroke-linecap:round;stroke-linejoin:round;stroke:rgb(0%,0%,0%);stroke-opacity:1;stroke-miterlimit:10;" d="M 346.882812 31.457031 L 349.195312 29.5625 L 351.832031 28.152344 L 354.695312 27.285156 L 357.667969 26.992188 L 360.644531 27.285156 "/>
<path style="fill:none;stroke-width:0.708617;stroke-linecap:round;stroke-linejoin:round;stroke:rgb(0%,0%,0%);stroke-opacity:1;stroke-miterlimit:10;" d="M 344.988281 50.714844 L 343.578125 48.078125 L 342.710938 45.21875 L 342.417969 42.242188 L 342.710938 39.265625 L 343.578125 36.40625 L 344.988281 33.769531 "/>
<path style="fill:none;stroke-width:0.708617;stroke-linecap:round;stroke-linejoin:round;stroke:rgb(0%,0%,0%);stroke-opacity:1;stroke-miterlimit:10;" d="M 354.695312 57.199219 L 357.667969 57.492188 L 354.695312 57.199219 L 351.832031 56.332031 Z M 354.695312 57.199219 "/>
<path style="fill:none;stroke-width:0.708617;stroke-linecap:round;stroke-linejoin:round;stroke:rgb(0%,0%,0%);stroke-opacity:1;stroke-miterlimit:10;" d="M 357.667969 175.4375 L 360.644531 175.730469 L 363.503906 176.597656 L 366.140625 178.007812 L 368.453125 179.902344 L 366.140625 178.007812 "/>
<path style="fill:none;stroke-width:0.708617;stroke-linecap:round;stroke-linejoin:round;stroke:rgb(0%,0%,0%);stroke-opacity:1;stroke-miterlimit:10;" d="M 217.699219 54.921875 L 220.007812 53.027344 L 221.90625 50.714844 L 223.316406 48.078125 L 224.183594 45.21875 L 224.476562 42.242188 L 224.183594 39.265625 "/>
<path style="fill:none;stroke-width:0.708617;stroke-linecap:round;stroke-linejoin:round;stroke:rgb(0%,0%,0%);stroke-opacity:1;stroke-miterlimit:10;" d="M 342.710938 187.710938 L 343.578125 184.851562 L 344.988281 182.214844 L 346.882812 179.902344 L 349.195312 178.007812 L 351.832031 176.597656 L 354.695312 175.730469 L 351.832031 176.597656 L 349.195312 178.007812 "/>
<path style="fill:none;stroke-width:0.708617;stroke-linecap:round;stroke-linejoin:round;stroke:rgb(0%,0%,0%);stroke-opacity:1;stroke-miterlimit:10;" d="M 357.667969 175.4375 L 354.695312 175.730469 L 357.667969 175.4375 L 360.644531 175.730469 L 363.503906 176.597656 L 366.140625 178.007812 "/>
<path style="fill:none;stroke-width:0.708617;stroke-linecap:round;stroke-linejoin:round;stroke:rgb(0%,0%,0%);stroke-opacity:1;stroke-miterlimit:10;" d="M 196.542969 50.714844 L 198.441406 53.027344 L 200.75 54.921875 L 203.386719 56.332031 L 200.75 54.921875 "/>
<path style="fill:none;stroke-width:0.708617;stroke-linecap:round;stroke-linejoin:round;stroke:rgb(0%,0%,0%);stroke-opacity:1;stroke-miterlimit:10;" d="M 195.980469 199.535156 L 194.507812 196.78125 L 193.601562 193.792969 L 193.296875 190.6875 L 193.296875 42.242188 L 193.601562 39.136719 L 193.296875 42.242188 L 193.296875 190.6875 L 193.601562 193.792969 L 194.507812 196.78125 Z M 195.980469 199.535156 "/>
<path style="fill:none;stroke-width:0.708617;stroke-linecap:round;stroke-linejoin:round;stroke:rgb(0%,0%,0%);stroke-opacity:1;stroke-miterlimit:10;" d="M 209.226562 26.3125 L 206.117188 26.621094 L 203.128906 27.527344 L 200.375 29 L 197.960938 30.980469 "/>
<path style="fill:none;stroke-width:0.708617;stroke-linecap:round;stroke-linejoin:round;stroke:rgb(0%,0%,0%);stroke-opacity:1;stroke-miterlimit:10;" d="M 373.597656 190.6875 L 373.292969 193.792969 L 372.386719 196.78125 L 370.914062 199.535156 "/>
<path style="fill:none;stroke-width:0.708617;stroke-linecap:round;stroke-linejoin:round;stroke:rgb(0%,0%,0%);stroke-opacity:1;stroke-miterlimit:10;" d="M 368.933594 30.980469 L 370.914062 33.394531 L 372.386719 36.148438 "/>
<path style="fill:none;stroke-width:0.708617;stroke-linecap:round;stroke-linejoin:round;stroke:rgb(0%,0%,0%);stroke-opacity:1;stroke-miterlimit:10;" d="M 187.863281 38.476562 L 189.308594 33.652344 L 191.828125 29.289062 L 195.28125 25.625 "/>
</g>
</svg>
