<?xml version="1.0" encoding="UTF-8"?>
<svg xmlns="http://www.w3.org/2000/svg" xmlns:xlink="http://www.w3.org/1999/xlink" width="566.893424pt" height="235.260771pt" viewBox="0 0 566.893424 235.260771" version="1.1">
<g id="surface6">
<path style="fill:none;stroke-width:0.708617;stroke-linecap:round;stroke-linejoin:round;stroke:rgb(0%,0%,0%);stroke-opacity:1;stroke-miterlimit:10;" d="M 144.570312 76.328125 L 144.347656 77.023438 L 139.078125 96.320312 "/>
<path style="fill:none;stroke-width:0.708617;stroke-linecap:round;stroke-linejoin:round;stroke:rgb(0%,0%,0%);stroke-opacity:1;stroke-miterlimit:10;" d="M 422.320312 76.328125 L 422.546875 77.023438 L 427.816406 96.320312 "/>
<path style="fill:none;stroke-width:0.708617;stroke-linecap:round;stroke-linejoin:round;stroke:rgb(0%,0%,0%);stroke-opacity:1;stroke-miterlimit:10;" d="M 139.042969 96.542969 L 138.96875 97.011719 L 137.15625 117.628906 "/>
<path style="fill:none;stroke-width:0.708617;stroke-linecap:round;stroke-linejoin:round;stroke:rgb(0%,0%,0%);stroke-opacity:1;stroke-miterlimit:10;" d="M 427.851562 96.542969 L 427.925781 97.011719 L 429.734375 117.628906 "/>
<path style="fill:none;stroke-width:0.708617;stroke-linecap:round;stroke-linejoin:round;stroke:rgb(0%,0%,0%);stroke-opacity:1;stroke-miterlimit:10;" d="M 391.386719 71.914062 L 394.621094 71.914062 Z M 391.386719 71.914062 "/>
<path style="fill:none;stroke-width:0.708617;stroke-linecap:round;stroke-linejoin:round;stroke:rgb(0%,0%,0%);stroke-opacity:1;stroke-miterlimit:10;" d="M 394.625 163.347656 L 391.386719 163.347656 Z M 394.625 163.347656 "/>
<path style="fill:none;stroke-width:0.708617;stroke-linecap:round;stroke-linejoin:round;stroke:rgb(0%,0%,0%);stroke-opacity:1;stroke-miterlimit:10;" d="M 172.269531 163.347656 L 175.507812 163.347656 Z M 172.269531 163.347656 "/>
<path style="fill:none;stroke-width:0.708617;stroke-linecap:round;stroke-linejoin:round;stroke:rgb(0%,0%,0%);stroke-opacity:1;stroke-miterlimit:10;" d="M 173.351562 71.914062 L 175.507812 71.914062 L 172.269531 71.914062 Z M 173.351562 71.914062 "/>
<path style="fill:none;stroke-width:0.708617;stroke-linecap:round;stroke-linejoin:round;stroke:rgb(0%,0%,0%);stroke-opacity:1;stroke-miterlimit:10;" d="M 422.117188 75.695312 L 413.636719 74.351562 L 422.117188 75.695312 L 422.234375 76.011719 L 427.847656 96.484375 L 429.734375 117.628906 "/>
<path style="fill:none;stroke-width:0.708617;stroke-linecap:round;stroke-linejoin:round;stroke:rgb(0%,0%,0%);stroke-opacity:1;stroke-miterlimit:10;" d="M 148.828125 159.566406 L 144.777344 159.566406 L 152.855469 160.84375 L 144.777344 159.566406 "/>
<path style="fill:none;stroke-width:0.708617;stroke-linecap:round;stroke-linejoin:round;stroke:rgb(0%,0%,0%);stroke-opacity:1;stroke-miterlimit:10;" d="M 137.15625 117.628906 L 139.046875 96.484375 L 144.660156 76.011719 L 144.777344 75.695312 L 153.257812 74.351562 "/>
<path style="fill:none;stroke-width:0.708617;stroke-linecap:round;stroke-linejoin:round;stroke:rgb(0%,0%,0%);stroke-opacity:1;stroke-miterlimit:10;" d="M 422.117188 159.566406 L 414.039062 160.84375 Z M 422.117188 159.566406 "/>
<path style="fill:none;stroke-width:0.708617;stroke-linecap:round;stroke-linejoin:round;stroke:rgb(0%,0%,0%);stroke-opacity:1;stroke-miterlimit:10;" d="M 414.636719 159.566406 L 422.117188 159.566406 L 422.234375 159.25 L 427.847656 138.777344 L 429.734375 117.628906 "/>
<path style="fill:none;stroke-width:0.708617;stroke-linecap:round;stroke-linejoin:round;stroke:rgb(0%,0%,0%);stroke-opacity:1;stroke-miterlimit:10;" d="M 422.117188 75.695312 L 414.074219 75.695312 "/>
<path style="fill:none;stroke-width:0.708617;stroke-linecap:round;stroke-linejoin:round;stroke:rgb(0%,0%,0%);stroke-opacity:1;stroke-miterlimit:10;" d="M 153.257812 74.351562 L 144.777344 75.695312 L 145.289062 75.695312 "/>
<path style="fill:none;stroke-width:0.708617;stroke-linecap:round;stroke-linejoin:round;stroke:rgb(0%,0%,0%);stroke-opacity:1;stroke-miterlimit:10;" d="M 137.15625 117.628906 L 139.046875 138.777344 L 144.660156 159.25 L 144.777344 159.566406 "/>
<path style="fill:none;stroke-width:0.708617;stroke-linecap:round;stroke-linejoin:round;stroke:rgb(0%,0%,0%);stroke-opacity:1;stroke-miterlimit:10;" d="M 152.820312 75.695312 L 145.289062 75.695312 "/>
<path style="fill:none;stroke-width:0.708617;stroke-linecap:round;stroke-linejoin:round;stroke:rgb(0%,0%,0%);stroke-opacity:1;stroke-miterlimit:10;" d="M 152.257812 159.566406 L 148.828125 159.566406 "/>
<path style="fill:none;stroke-width:0.708617;stroke-linecap:round;stroke-linejoin:round;stroke:rgb(0%,0%,0%);stroke-opacity:1;stroke-miterlimit:10;" d="M 171.863281 72.992188 L 175.644531 72.171875 "/>
<path style="fill:none;stroke-width:0.708617;stroke-linecap:round;stroke-linejoin:round;stroke:rgb(0%,0%,0%);stroke-opacity:1;stroke-miterlimit:10;" d="M 395.03125 162.269531 L 391.25 163.085938 "/>
<path style="fill:none;stroke-width:0.708617;stroke-linecap:round;stroke-linejoin:round;stroke:rgb(0%,0%,0%);stroke-opacity:1;stroke-miterlimit:10;" d="M 395.027344 72.992188 L 391.25 72.171875 "/>
<path style="fill:none;stroke-width:0.708617;stroke-linecap:round;stroke-linejoin:round;stroke:rgb(0%,0%,0%);stroke-opacity:1;stroke-miterlimit:10;" d="M 171.863281 162.269531 L 175.644531 163.085938 "/>
<path style="fill:none;stroke-width:0.708617;stroke-linecap:round;stroke-linejoin:round;stroke:rgb(0%,0%,0%);stroke-opacity:1;stroke-miterlimit:10;" d="M 176.957031 159.566406 L 170.839844 159.566406 "/>
<path style="fill:none;stroke-width:0.708617;stroke-linecap:round;stroke-linejoin:round;stroke:rgb(0%,0%,0%);stroke-opacity:1;stroke-miterlimit:10;" d="M 389.9375 159.566406 L 396.050781 159.566406 "/>
<path style="fill:none;stroke-width:0.708617;stroke-linecap:round;stroke-linejoin:round;stroke:rgb(0%,0%,0%);stroke-opacity:1;stroke-miterlimit:10;" d="M 176.957031 75.695312 L 170.84375 75.695312 "/>
<path style="fill:none;stroke-width:0.708617;stroke-linecap:round;stroke-linejoin:round;stroke:rgb(0%,0%,0%);stroke-opacity:1;stroke-miterlimit:10;" d="M 389.9375 75.695312 L 396.046875 75.695312 "/>
<path style="fill:none;stroke-width:0.708617;stroke-linecap:round;stroke-linejoin:round;stroke:rgb(0%,0%,0%);stroke-opacity:1;stroke-miterlimit:10;" d="M 389.269531 138.8125 L 391.210938 128.328125 L 391.871094 117.628906 L 391.210938 106.933594 L 389.269531 96.449219 "/>
<path style="fill:none;stroke-width:0.708617;stroke-linecap:round;stroke-linejoin:round;stroke:rgb(0%,0%,0%);stroke-opacity:1;stroke-miterlimit:10;" d="M 177.625 96.449219 L 175.679688 106.933594 L 175.023438 117.628906 L 175.679688 128.328125 L 177.625 138.8125 "/>
<path style="fill:none;stroke-width:0.708617;stroke-linecap:round;stroke-linejoin:round;stroke:rgb(0%,0%,0%);stroke-opacity:1;stroke-miterlimit:10;" d="M 172.058594 31.675781 L 171.699219 36.359375 L 181.855469 36.359375 L 181.855469 198.902344 L 182.09375 202.007812 L 183.007812 205.644531 L 184.574219 209.050781 L 186.738281 212.113281 L 184.574219 209.050781 "/>
<path style="fill:none;stroke-width:0.708617;stroke-linecap:round;stroke-linejoin:round;stroke:rgb(0%,0%,0%);stroke-opacity:1;stroke-miterlimit:10;" d="M 385.035156 168.578125 L 385.035156 198.902344 L 395.195312 198.902344 L 395.195312 169.03125 "/>
<path style="fill:none;stroke-width:0.708617;stroke-linecap:round;stroke-linejoin:round;stroke:rgb(0%,0%,0%);stroke-opacity:1;stroke-miterlimit:10;" d="M 384.078125 205.074219 L 382.613281 208.527344 L 380.539062 211.648438 L 377.929688 214.339844 "/>
<path style="fill:none;stroke-width:0.708617;stroke-linecap:round;stroke-linejoin:round;stroke:rgb(0%,0%,0%);stroke-opacity:1;stroke-miterlimit:10;" d="M 364.71875 219.21875 L 202.175781 219.21875 L 202.175781 229.378906 L 364.71875 229.378906 L 202.175781 229.378906 L 202.175781 219.21875 L 199.050781 218.980469 L 196.003906 218.261719 "/>
<path style="fill:none;stroke-width:0.708617;stroke-linecap:round;stroke-linejoin:round;stroke:rgb(0%,0%,0%);stroke-opacity:1;stroke-miterlimit:10;" d="M 374.832031 227.652344 L 379.941406 225.304688 L 374.832031 227.652344 L 369.375 229.019531 L 364.71875 229.378906 L 364.71875 219.21875 L 367.824219 218.980469 L 371.460938 218.070312 "/>
<path style="fill:none;stroke-width:0.708617;stroke-linecap:round;stroke-linejoin:round;stroke:rgb(0%,0%,0%);stroke-opacity:1;stroke-miterlimit:10;" d="M 196.003906 218.261719 L 192.550781 216.796875 L 189.425781 214.722656 L 192.550781 216.796875 L 196.003906 218.261719 L 199.050781 218.980469 L 202.175781 219.21875 L 364.71875 219.21875 "/>
<path style="fill:none;stroke-width:0.708617;stroke-linecap:round;stroke-linejoin:round;stroke:rgb(0%,0%,0%);stroke-opacity:1;stroke-miterlimit:10;" d="M 385.035156 36.359375 L 385.035156 66.683594 "/>
<path style="fill:none;stroke-width:0.708617;stroke-linecap:round;stroke-linejoin:round;stroke:rgb(0%,0%,0%);stroke-opacity:1;stroke-miterlimit:10;" d="M 367.824219 218.980469 L 371.460938 218.070312 L 374.867188 216.503906 L 377.929688 214.339844 L 374.867188 216.503906 L 371.460938 218.070312 "/>
<path style="fill:none;stroke-width:0.708617;stroke-linecap:round;stroke-linejoin:round;stroke:rgb(0%,0%,0%);stroke-opacity:1;stroke-miterlimit:10;" d="M 384.078125 205.074219 L 384.796875 202.023438 L 385.035156 198.902344 L 384.796875 202.023438 L 384.078125 205.074219 L 382.613281 208.527344 L 380.539062 211.648438 L 377.929688 214.339844 "/>
<path style="fill:none;stroke-width:0.708617;stroke-linecap:round;stroke-linejoin:round;stroke:rgb(0%,0%,0%);stroke-opacity:1;stroke-miterlimit:10;" d="M 199.070312 16.277344 L 202.175781 16.039062 L 364.71875 16.039062 "/>
<path style="fill:none;stroke-width:0.708617;stroke-linecap:round;stroke-linejoin:round;stroke:rgb(0%,0%,0%);stroke-opacity:1;stroke-miterlimit:10;" d="M 181.855469 168.578125 L 181.855469 198.902344 L 182.09375 202.007812 L 183.007812 205.644531 L 184.574219 209.050781 "/>
<path style="fill:none;stroke-width:0.708617;stroke-linecap:round;stroke-linejoin:round;stroke:rgb(0%,0%,0%);stroke-opacity:1;stroke-miterlimit:10;" d="M 195.433594 17.191406 L 192.027344 18.757812 L 188.964844 20.921875 L 186.351562 23.609375 L 184.28125 26.734375 L 182.816406 30.1875 L 182.097656 33.234375 "/>
<path style="fill:none;stroke-width:0.708617;stroke-linecap:round;stroke-linejoin:round;stroke:rgb(0%,0%,0%);stroke-opacity:1;stroke-miterlimit:10;" d="M 370.890625 17 L 367.839844 16.28125 L 364.71875 16.039062 L 364.71875 5.882812 L 369.402344 6.242188 L 364.71875 5.882812 L 364.71875 16.039062 "/>
<path style="fill:none;stroke-width:0.708617;stroke-linecap:round;stroke-linejoin:round;stroke:rgb(0%,0%,0%);stroke-opacity:1;stroke-miterlimit:10;" d="M 186.738281 212.113281 L 189.425781 214.722656 Z M 186.738281 212.113281 "/>
<path style="fill:none;stroke-width:0.708617;stroke-linecap:round;stroke-linejoin:round;stroke:rgb(0%,0%,0%);stroke-opacity:1;stroke-miterlimit:10;" d="M 171.699219 168.667969 L 171.699219 168.082031 L 171.699219 198.902344 L 181.855469 198.902344 L 171.699219 198.902344 L 171.699219 169.734375 L 171.699219 181.761719 "/>
<path style="fill:none;stroke-width:0.708617;stroke-linecap:round;stroke-linejoin:round;stroke:rgb(0%,0%,0%);stroke-opacity:1;stroke-miterlimit:10;" d="M 172.058594 31.675781 L 173.136719 27.101562 L 175.332031 21.921875 L 173.136719 27.101562 L 172.058594 31.675781 L 171.699219 36.359375 L 181.855469 36.359375 L 182.097656 33.234375 L 182.816406 30.1875 L 184.28125 26.734375 L 186.351562 23.609375 L 188.964844 20.921875 "/>
<path style="fill:none;stroke-width:0.708617;stroke-linecap:round;stroke-linejoin:round;stroke:rgb(0%,0%,0%);stroke-opacity:1;stroke-miterlimit:10;" d="M 182.097656 33.234375 L 181.855469 36.359375 L 181.855469 66.683594 "/>
<path style="fill:none;stroke-width:0.708617;stroke-linecap:round;stroke-linejoin:round;stroke:rgb(0%,0%,0%);stroke-opacity:1;stroke-miterlimit:10;" d="M 195.433594 17.191406 L 199.070312 16.277344 L 195.433594 17.191406 L 192.027344 18.757812 L 188.964844 20.921875 "/>
<path style="fill:none;stroke-width:0.708617;stroke-linecap:round;stroke-linejoin:round;stroke:rgb(0%,0%,0%);stroke-opacity:1;stroke-miterlimit:10;" d="M 364.71875 16.039062 L 367.839844 16.28125 L 370.890625 17 L 374.34375 18.464844 L 377.464844 20.535156 L 380.15625 23.148438 L 382.320312 26.210938 L 383.886719 29.617188 L 384.796875 33.253906 L 385.035156 36.359375 "/>
<path style="fill:none;stroke-width:0.708617;stroke-linecap:round;stroke-linejoin:round;stroke:rgb(0%,0%,0%);stroke-opacity:1;stroke-miterlimit:10;" d="M 199.070312 16.277344 L 202.175781 16.039062 L 202.175781 5.882812 L 197.519531 6.238281 "/>
<path style="fill:none;stroke-width:0.708617;stroke-linecap:round;stroke-linejoin:round;stroke:rgb(0%,0%,0%);stroke-opacity:1;stroke-miterlimit:10;" d="M 392.066406 164.640625 L 390.886719 162.398438 L 390 159.878906 L 389.453125 157.175781 L 389.269531 154.375 L 389.269531 80.886719 L 389.453125 78.085938 "/>
<path style="fill:none;stroke-width:0.708617;stroke-linecap:round;stroke-linejoin:round;stroke:rgb(0%,0%,0%);stroke-opacity:1;stroke-miterlimit:10;" d="M 177.625 80.886719 L 177.441406 78.085938 L 176.894531 75.382812 L 177.441406 78.085938 L 177.625 80.886719 L 177.625 154.375 L 177.441406 157.175781 L 176.894531 159.878906 L 176.007812 162.398438 L 174.828125 164.640625 L 176.007812 162.398438 "/>
<path style="fill:none;stroke-width:0.708617;stroke-linecap:round;stroke-linejoin:round;stroke:rgb(0%,0%,0%);stroke-opacity:1;stroke-miterlimit:10;" d="M 176.007812 162.398438 L 176.894531 159.878906 L 177.441406 157.175781 L 177.625 154.375 L 177.625 80.886719 "/>
<path style="fill:none;stroke-width:0.708617;stroke-linecap:round;stroke-linejoin:round;stroke:rgb(0%,0%,0%);stroke-opacity:1;stroke-miterlimit:10;" d="M 392.066406 70.621094 L 390.886719 72.863281 L 390 75.382812 L 389.453125 78.085938 L 390 75.382812 "/>
<path style="fill:none;stroke-width:0.708617;stroke-linecap:round;stroke-linejoin:round;stroke:rgb(0%,0%,0%);stroke-opacity:1;stroke-miterlimit:10;" d="M 390 159.878906 L 389.453125 157.175781 L 389.269531 154.375 L 389.269531 80.886719 L 389.453125 78.085938 "/>
<path style="fill:none;stroke-width:0.708617;stroke-linecap:round;stroke-linejoin:round;stroke:rgb(0%,0%,0%);stroke-opacity:1;stroke-miterlimit:10;" d="M 395.195312 168.082031 L 393.492188 166.535156 L 392.066406 164.640625 L 390.886719 162.398438 L 390 159.878906 "/>
<path style="fill:none;stroke-width:0.708617;stroke-linecap:round;stroke-linejoin:round;stroke:rgb(0%,0%,0%);stroke-opacity:1;stroke-miterlimit:10;" d="M 176.007812 72.863281 L 176.894531 75.382812 L 176.007812 72.863281 L 174.828125 70.621094 Z M 176.007812 72.863281 "/>
<path style="fill:none;stroke-width:0.708617;stroke-linecap:round;stroke-linejoin:round;stroke:rgb(0%,0%,0%);stroke-opacity:1;stroke-miterlimit:10;" d="M 397.03125 156.972656 L 393.445312 166.472656 L 392.066406 164.640625 "/>
<path style="fill:none;stroke-width:0.708617;stroke-linecap:round;stroke-linejoin:round;stroke:rgb(0%,0%,0%);stroke-opacity:1;stroke-miterlimit:10;" d="M 174.828125 164.640625 L 173.449219 166.472656 L 169.863281 156.972656 "/>
<path style="fill:none;stroke-width:0.708617;stroke-linecap:round;stroke-linejoin:round;stroke:rgb(0%,0%,0%);stroke-opacity:1;stroke-miterlimit:10;" d="M 392.066406 70.621094 L 393.445312 68.789062 L 401.4375 89.992188 L 402.71875 98.300781 "/>
<path style="fill:none;stroke-width:0.708617;stroke-linecap:round;stroke-linejoin:round;stroke:rgb(0%,0%,0%);stroke-opacity:1;stroke-miterlimit:10;" d="M 173.449219 68.789062 L 174.828125 70.621094 L 173.398438 68.726562 "/>
<path style="fill:none;stroke-width:0.708617;stroke-linecap:round;stroke-linejoin:round;stroke:rgb(0%,0%,0%);stroke-opacity:1;stroke-miterlimit:10;" d="M 395.195312 169.03125 L 395.195312 168.082031 L 395.195312 198.902344 L 394.832031 203.585938 "/>
<path style="fill:none;stroke-width:0.708617;stroke-linecap:round;stroke-linejoin:round;stroke:rgb(0%,0%,0%);stroke-opacity:1;stroke-miterlimit:10;" d="M 391.558594 213.335938 L 388.449219 218.023438 L 384.535156 222.058594 L 379.941406 225.304688 L 384.535156 222.058594 L 388.449219 218.023438 L 391.558594 213.335938 L 393.753906 208.160156 L 394.832031 203.585938 "/>
<path style="fill:none;stroke-width:0.708617;stroke-linecap:round;stroke-linejoin:round;stroke:rgb(0%,0%,0%);stroke-opacity:1;stroke-miterlimit:10;" d="M 395.195312 65.527344 L 395.195312 53.496094 L 395.195312 65.527344 L 395.195312 36.359375 "/>
<path style="fill:none;stroke-width:0.708617;stroke-linecap:round;stroke-linejoin:round;stroke:rgb(0%,0%,0%);stroke-opacity:1;stroke-miterlimit:10;" d="M 394.835938 31.703125 L 395.195312 36.359375 L 385.035156 36.359375 L 385.035156 198.902344 L 395.195312 198.902344 L 394.832031 203.585938 L 393.753906 208.160156 L 391.558594 213.335938 "/>
<path style="fill:none;stroke-width:0.708617;stroke-linecap:round;stroke-linejoin:round;stroke:rgb(0%,0%,0%);stroke-opacity:1;stroke-miterlimit:10;" d="M 173.425781 209.015625 L 175.773438 214.125 L 173.425781 209.015625 L 172.054688 203.558594 L 171.699219 198.902344 L 172.054688 203.558594 Z M 173.425781 209.015625 "/>
<path style="fill:none;stroke-width:0.708617;stroke-linecap:round;stroke-linejoin:round;stroke:rgb(0%,0%,0%);stroke-opacity:1;stroke-miterlimit:10;" d="M 192.917969 227.9375 L 197.492188 229.015625 L 202.175781 229.378906 L 197.492188 229.015625 Z M 192.917969 227.9375 "/>
<path style="fill:none;stroke-width:0.708617;stroke-linecap:round;stroke-linejoin:round;stroke:rgb(0%,0%,0%);stroke-opacity:1;stroke-miterlimit:10;" d="M 179.019531 218.71875 L 175.773438 214.125 L 179.019531 218.71875 L 183.054688 222.632812 L 187.738281 225.742188 L 192.917969 227.9375 L 187.738281 225.742188 L 183.054688 222.632812 Z M 179.019531 218.71875 "/>
<path style="fill:none;stroke-width:0.708617;stroke-linecap:round;stroke-linejoin:round;stroke:rgb(0%,0%,0%);stroke-opacity:1;stroke-miterlimit:10;" d="M 367.824219 218.980469 L 364.71875 219.21875 L 364.71875 229.378906 L 369.375 229.019531 L 374.832031 227.652344 "/>
<path style="fill:none;stroke-width:0.708617;stroke-linecap:round;stroke-linejoin:round;stroke:rgb(0%,0%,0%);stroke-opacity:1;stroke-miterlimit:10;" d="M 387.875 16.542969 L 383.839844 12.625 L 379.152344 9.515625 L 373.976562 7.320312 L 369.402344 6.242188 L 373.976562 7.320312 "/>
<path style="fill:none;stroke-width:0.708617;stroke-linecap:round;stroke-linejoin:round;stroke:rgb(0%,0%,0%);stroke-opacity:1;stroke-miterlimit:10;" d="M 173.398438 68.726562 L 171.699219 67.179688 L 171.699219 36.359375 L 171.699219 65.527344 "/>
<path style="fill:none;stroke-width:0.708617;stroke-linecap:round;stroke-linejoin:round;stroke:rgb(0%,0%,0%);stroke-opacity:1;stroke-miterlimit:10;" d="M 395.195312 36.359375 L 394.835938 31.703125 L 393.46875 26.246094 L 391.121094 21.136719 L 387.875 16.542969 L 383.839844 12.625 L 379.152344 9.515625 L 373.976562 7.320312 "/>
<path style="fill:none;stroke-width:0.708617;stroke-linecap:round;stroke-linejoin:round;stroke:rgb(0%,0%,0%);stroke-opacity:1;stroke-miterlimit:10;" d="M 197.519531 6.238281 L 192.0625 7.609375 L 186.953125 9.957031 L 182.359375 13.203125 L 186.953125 9.957031 L 192.0625 7.609375 L 197.519531 6.238281 L 202.175781 5.882812 L 364.71875 5.882812 L 202.175781 5.882812 L 202.175781 16.039062 L 364.71875 16.039062 "/>
<path style="fill:none;stroke-width:0.708617;stroke-linecap:round;stroke-linejoin:round;stroke:rgb(0%,0%,0%);stroke-opacity:1;stroke-miterlimit:10;" d="M 178.441406 17.238281 L 175.332031 21.921875 L 178.441406 17.238281 L 182.359375 13.203125 Z M 178.441406 17.238281 "/>
<path style="fill:none;stroke-width:0.708617;stroke-linecap:round;stroke-linejoin:round;stroke:rgb(0%,0%,0%);stroke-opacity:1;stroke-miterlimit:10;" d="M 210.613281 5.882812 L 356.28125 5.882812 "/>
<path style="fill:none;stroke-width:0.708617;stroke-linecap:round;stroke-linejoin:round;stroke:rgb(0%,0%,0%);stroke-opacity:1;stroke-miterlimit:10;" d="M 209.871094 5.882812 L 210.613281 5.882812 "/>
<path style="fill:none;stroke-width:0.708617;stroke-linecap:round;stroke-linejoin:round;stroke:rgb(0%,0%,0%);stroke-opacity:1;stroke-miterlimit:10;" d="M 357.097656 5.882812 L 356.28125 5.882812 "/>
<path style="fill:none;stroke-width:0.708617;stroke-linecap:round;stroke-linejoin:round;stroke:rgb(0%,0%,0%);stroke-opacity:1;stroke-miterlimit:10;" d="M 356.074219 229.378906 L 356.273438 229.378906 L 210.808594 229.378906 Z M 356.074219 229.378906 "/>
<path style="fill:none;stroke-width:0.708617;stroke-linecap:round;stroke-linejoin:round;stroke:rgb(0%,0%,0%);stroke-opacity:1;stroke-miterlimit:10;" d="M 210.613281 229.378906 L 210.421875 229.378906 L 210.808594 229.378906 Z M 210.613281 229.378906 "/>
<path style="fill:none;stroke-width:0.708617;stroke-linecap:round;stroke-linejoin:round;stroke:rgb(0%,0%,0%);stroke-opacity:1;stroke-miterlimit:10;" d="M 356.460938 229.378906 L 356.273438 229.378906 L 356.792969 229.378906 Z M 356.460938 229.378906 "/>
<path style="fill:none;stroke-width:0.708617;stroke-linecap:round;stroke-linejoin:round;stroke:rgb(0%,0%,0%);stroke-opacity:1;stroke-miterlimit:10;" d="M 356.929688 5.882812 L 356.472656 5.882812 "/>
<path style="fill:none;stroke-width:0.708617;stroke-linecap:round;stroke-linejoin:round;stroke:rgb(0%,0%,0%);stroke-opacity:1;stroke-miterlimit:10;" d="M 209.964844 229.378906 L 210.421875 229.378906 L 209.8125 229.378906 "/>
<path style="fill:none;stroke-width:0.708617;stroke-linecap:round;stroke-linejoin:round;stroke:rgb(0%,0%,0%);stroke-opacity:1;stroke-miterlimit:10;" d="M 356.917969 229.378906 L 356.792969 229.378906 Z M 356.917969 229.378906 "/>
<path style="fill:none;stroke-width:0.708617;stroke-linecap:round;stroke-linejoin:round;stroke:rgb(0%,0%,0%);stroke-opacity:1;stroke-miterlimit:10;" d="M 357.070312 229.378906 L 357.089844 229.378906 L 356.917969 229.378906 Z M 357.070312 229.378906 "/>
<path style="fill:none;stroke-width:0.708617;stroke-linecap:round;stroke-linejoin:round;stroke:rgb(0%,0%,0%);stroke-opacity:1;stroke-miterlimit:10;" d="M 210.421875 5.882812 L 209.871094 5.882812 "/>
<path style="fill:none;stroke-width:0.708617;stroke-linecap:round;stroke-linejoin:round;stroke:rgb(0%,0%,0%);stroke-opacity:1;stroke-miterlimit:10;" d="M 209.8125 5.882812 L 209.871094 5.882812 L 209.792969 5.882812 Z M 209.8125 5.882812 "/>
<path style="fill:none;stroke-width:0.708617;stroke-linecap:round;stroke-linejoin:round;stroke:rgb(0%,0%,0%);stroke-opacity:1;stroke-miterlimit:10;" d="M 209.8125 229.378906 L 209.792969 229.378906 L 209.964844 229.378906 "/>
<path style="fill:none;stroke-width:0.708617;stroke-linecap:round;stroke-linejoin:round;stroke:rgb(0%,0%,0%);stroke-opacity:1;stroke-miterlimit:10;" d="M 396.015625 168.960938 L 398.066406 168.441406 L 400.324219 167.871094 L 396.015625 168.960938 L 395.195312 169.167969 L 408.871094 165.710938 L 414.160156 149.835938 L 417.324219 133.398438 "/>
<path style="fill:none;stroke-width:0.708617;stroke-linecap:round;stroke-linejoin:round;stroke:rgb(0%,0%,0%);stroke-opacity:1;stroke-miterlimit:10;" d="M 158.023438 165.710938 L 161.480469 166.585938 L 158.023438 165.710938 L 170.878906 168.960938 L 171.699219 169.167969 Z M 158.023438 165.710938 "/>
<path style="fill:none;stroke-width:0.708617;stroke-linecap:round;stroke-linejoin:round;stroke:rgb(0%,0%,0%);stroke-opacity:1;stroke-miterlimit:10;" d="M 405.414062 68.675781 L 400.324219 67.386719 L 402.824219 68.019531 L 405.414062 68.675781 "/>
<path style="fill:none;stroke-width:0.708617;stroke-linecap:round;stroke-linejoin:round;stroke:rgb(0%,0%,0%);stroke-opacity:1;stroke-miterlimit:10;" d="M 166.570312 67.386719 L 161.480469 68.675781 L 164.066406 68.019531 L 166.570312 67.386719 "/>
<path style="fill:none;stroke-width:0.708617;stroke-linecap:round;stroke-linejoin:round;stroke:rgb(0%,0%,0%);stroke-opacity:1;stroke-miterlimit:10;" d="M 402.730469 184.601562 L 404.007812 182.117188 L 404.75 180.757812 L 395.195312 181.761719 L 395.195312 169.734375 L 395.195312 183.042969 L 395.195312 181.761719 "/>
<path style="fill:none;stroke-width:0.708617;stroke-linecap:round;stroke-linejoin:round;stroke:rgb(0%,0%,0%);stroke-opacity:1;stroke-miterlimit:10;" d="M 404.007812 53.144531 L 404.75 54.5 L 395.195312 53.496094 "/>
<path style="fill:none;stroke-width:0.708617;stroke-linecap:round;stroke-linejoin:round;stroke:rgb(0%,0%,0%);stroke-opacity:1;stroke-miterlimit:10;" d="M 154.273438 72.96875 L 159.425781 59.667969 L 162.144531 54.5 L 171.699219 53.496094 L 171.699219 65.527344 L 171.699219 53.496094 "/>
<path style="fill:none;stroke-width:0.708617;stroke-linecap:round;stroke-linejoin:round;stroke:rgb(0%,0%,0%);stroke-opacity:1;stroke-miterlimit:10;" d="M 405.414062 166.585938 L 408.871094 165.710938 L 402.824219 167.238281 Z M 405.414062 166.585938 "/>
<path style="fill:none;stroke-width:0.708617;stroke-linecap:round;stroke-linejoin:round;stroke:rgb(0%,0%,0%);stroke-opacity:1;stroke-miterlimit:10;" d="M 395.195312 52.21875 L 395.195312 45.585938 L 395.195312 53.496094 Z M 395.195312 52.21875 "/>
<path style="fill:none;stroke-width:0.708617;stroke-linecap:round;stroke-linejoin:round;stroke:rgb(0%,0%,0%);stroke-opacity:1;stroke-miterlimit:10;" d="M 395.195312 192.671875 L 395.195312 183.042969 L 395.195312 185.445312 "/>
<path style="fill:none;stroke-width:0.708617;stroke-linecap:round;stroke-linejoin:round;stroke:rgb(0%,0%,0%);stroke-opacity:1;stroke-miterlimit:10;" d="M 171.699219 183.042969 L 171.699219 193.574219 "/>
<path style="fill:none;stroke-width:0.708617;stroke-linecap:round;stroke-linejoin:round;stroke:rgb(0%,0%,0%);stroke-opacity:1;stroke-miterlimit:10;" d="M 171.699219 49.816406 L 171.699219 53.496094 L 171.699219 45.585938 "/>
<path style="fill:none;stroke-width:0.708617;stroke-linecap:round;stroke-linejoin:round;stroke:rgb(0%,0%,0%);stroke-opacity:1;stroke-miterlimit:10;" d="M 171.699219 191.355469 L 171.699219 181.761719 L 171.699219 183.042969 "/>
<path style="fill:none;stroke-width:0.708617;stroke-linecap:round;stroke-linejoin:round;stroke:rgb(0%,0%,0%);stroke-opacity:1;stroke-miterlimit:10;" d="M 164.066406 167.238281 L 166.570312 167.871094 L 164.066406 167.238281 L 161.480469 166.585938 "/>
<path style="fill:none;stroke-width:0.708617;stroke-linecap:round;stroke-linejoin:round;stroke:rgb(0%,0%,0%);stroke-opacity:1;stroke-miterlimit:10;" d="M 404.75 180.757812 L 417.425781 153.582031 L 420.546875 129.628906 L 421.878906 105.507812 L 416.136719 82.042969 "/>
<path style="fill:none;stroke-width:0.708617;stroke-linecap:round;stroke-linejoin:round;stroke:rgb(0%,0%,0%);stroke-opacity:1;stroke-miterlimit:10;" d="M 167.859375 41.574219 L 158.226562 59.070312 L 150.757812 82.042969 L 145.015625 105.507812 L 146.347656 129.628906 L 145.015625 105.507812 L 150.757812 82.042969 L 158.226562 59.070312 "/>
<path style="fill:none;stroke-width:0.708617;stroke-linecap:round;stroke-linejoin:round;stroke:rgb(0%,0%,0%);stroke-opacity:1;stroke-miterlimit:10;" d="M 416.136719 82.042969 L 421.878906 105.507812 L 420.546875 129.628906 L 417.425781 153.582031 "/>
<path style="fill:none;stroke-width:0.708617;stroke-linecap:round;stroke-linejoin:round;stroke:rgb(0%,0%,0%);stroke-opacity:1;stroke-miterlimit:10;" d="M 416.136719 82.042969 L 420.546875 105.632812 L 420.546875 119.894531 "/>
<path style="fill:none;stroke-width:0.708617;stroke-linecap:round;stroke-linejoin:round;stroke:rgb(0%,0%,0%);stroke-opacity:1;stroke-miterlimit:10;" d="M 417.925781 91.613281 L 420.546875 105.632812 L 420.546875 129.628906 L 416.136719 153.214844 L 418.757812 139.195312 "/>
<path style="fill:none;stroke-width:0.708617;stroke-linecap:round;stroke-linejoin:round;stroke:rgb(0%,0%,0%);stroke-opacity:1;stroke-miterlimit:10;" d="M 412.621094 72.96875 L 407.46875 59.667969 L 416.136719 82.042969 "/>
<path style="fill:none;stroke-width:0.708617;stroke-linecap:round;stroke-linejoin:round;stroke:rgb(0%,0%,0%);stroke-opacity:1;stroke-miterlimit:10;" d="M 395.195312 53.496094 L 404.75 54.5 L 407.46875 59.667969 L 404.75 54.5 "/>
<path style="fill:none;stroke-width:0.708617;stroke-linecap:round;stroke-linejoin:round;stroke:rgb(0%,0%,0%);stroke-opacity:1;stroke-miterlimit:10;" d="M 146.347656 119.894531 L 146.347656 105.632812 L 148.96875 91.613281 "/>
<path style="fill:none;stroke-width:0.708617;stroke-linecap:round;stroke-linejoin:round;stroke:rgb(0%,0%,0%);stroke-opacity:1;stroke-miterlimit:10;" d="M 148.136719 139.195312 L 150.757812 153.214844 "/>
<path style="fill:none;stroke-width:0.708617;stroke-linecap:round;stroke-linejoin:round;stroke:rgb(0%,0%,0%);stroke-opacity:1;stroke-miterlimit:10;" d="M 162.144531 54.5 L 162.882812 53.144531 L 164.164062 50.660156 "/>
<path style="fill:none;stroke-width:0.708617;stroke-linecap:round;stroke-linejoin:round;stroke:rgb(0%,0%,0%);stroke-opacity:1;stroke-miterlimit:10;" d="M 166.570312 167.871094 L 168.828125 168.441406 Z M 166.570312 167.871094 "/>
<path style="fill:none;stroke-width:0.708617;stroke-linecap:round;stroke-linejoin:round;stroke:rgb(0%,0%,0%);stroke-opacity:1;stroke-miterlimit:10;" d="M 395.195312 185.445312 L 395.195312 193.574219 "/>
<path style="fill:none;stroke-width:0.708617;stroke-linecap:round;stroke-linejoin:round;stroke:rgb(0%,0%,0%);stroke-opacity:1;stroke-miterlimit:10;" d="M 395.195312 45.585938 L 395.195312 41.6875 "/>
<path style="fill:none;stroke-width:0.708617;stroke-linecap:round;stroke-linejoin:round;stroke:rgb(0%,0%,0%);stroke-opacity:1;stroke-miterlimit:10;" d="M 171.699219 49.816406 L 171.699219 41.167969 L 171.699219 41.300781 "/>
<path style="fill:none;stroke-width:0.708617;stroke-linecap:round;stroke-linejoin:round;stroke:rgb(0%,0%,0%);stroke-opacity:1;stroke-miterlimit:10;" d="M 171.699219 191.355469 L 171.699219 194.089844 "/>
<path style="fill:none;stroke-width:0.708617;stroke-linecap:round;stroke-linejoin:round;stroke:rgb(0%,0%,0%);stroke-opacity:1;stroke-miterlimit:10;" d="M 149.46875 153.582031 L 146.347656 129.628906 L 149.46875 153.582031 L 162.144531 180.757812 "/>
<path style="fill:none;stroke-width:0.708617;stroke-linecap:round;stroke-linejoin:round;stroke:rgb(0%,0%,0%);stroke-opacity:1;stroke-miterlimit:10;" d="M 399.03125 41.574219 L 408.667969 59.070312 L 416.136719 82.042969 L 408.667969 59.070312 "/>
<path style="fill:none;stroke-width:0.708617;stroke-linecap:round;stroke-linejoin:round;stroke:rgb(0%,0%,0%);stroke-opacity:1;stroke-miterlimit:10;" d="M 399.820312 191.332031 L 399.824219 191.320312 L 399.820312 191.34375 "/>
<path style="fill:none;stroke-width:0.708617;stroke-linecap:round;stroke-linejoin:round;stroke:rgb(0%,0%,0%);stroke-opacity:1;stroke-miterlimit:10;" d="M 399.824219 191.328125 L 399.824219 191.320312 L 400.703125 189.066406 "/>
<path style="fill:none;stroke-width:0.708617;stroke-linecap:round;stroke-linejoin:round;stroke:rgb(0%,0%,0%);stroke-opacity:1;stroke-miterlimit:10;" d="M 395.195312 192.671875 L 395.195312 194.089844 L 399.03125 193.6875 "/>
<path style="fill:none;stroke-width:0.708617;stroke-linecap:round;stroke-linejoin:round;stroke:rgb(0%,0%,0%);stroke-opacity:1;stroke-miterlimit:10;" d="M 163 117.664062 L 164.183594 137.027344 "/>
<path style="fill:none;stroke-width:0.708617;stroke-linecap:round;stroke-linejoin:round;stroke:rgb(0%,0%,0%);stroke-opacity:1;stroke-miterlimit:10;" d="M 403.894531 117.664062 L 402.707031 137.027344 "/>
<path style="fill:none;stroke-width:0.708617;stroke-linecap:round;stroke-linejoin:round;stroke:rgb(0%,0%,0%);stroke-opacity:1;stroke-miterlimit:10;" d="M 164.816406 94.75 L 169.867188 78.292969 "/>
<path style="fill:none;stroke-width:0.708617;stroke-linecap:round;stroke-linejoin:round;stroke:rgb(0%,0%,0%);stroke-opacity:1;stroke-miterlimit:10;" d="M 397.027344 78.292969 L 402.078125 94.75 "/>
<path style="fill:none;stroke-width:0.708617;stroke-linecap:round;stroke-linejoin:round;stroke:rgb(0%,0%,0%);stroke-opacity:1;stroke-miterlimit:10;" d="M 167.824219 193.554688 L 167.066406 191.320312 L 167.859375 193.6875 L 167.824219 193.554688 L 167.699219 193.152344 L 167.445312 192.390625 L 167.066406 191.320312 L 167.699219 193.152344 L 167.445312 192.390625 "/>
<path style="fill:none;stroke-width:0.708617;stroke-linecap:round;stroke-linejoin:round;stroke:rgb(0%,0%,0%);stroke-opacity:1;stroke-miterlimit:10;" d="M 399.03125 41.574219 L 395.195312 41.167969 L 395.195312 41.6875 "/>
<path style="fill:none;stroke-width:0.708617;stroke-linecap:round;stroke-linejoin:round;stroke:rgb(0%,0%,0%);stroke-opacity:1;stroke-miterlimit:10;" d="M 171.699219 194.089844 L 167.859375 193.6875 L 171.699219 194.089844 L 171.699219 193.574219 "/>
<path style="fill:none;stroke-width:0.708617;stroke-linecap:round;stroke-linejoin:round;stroke:rgb(0%,0%,0%);stroke-opacity:1;stroke-miterlimit:10;" d="M 402.398438 139.019531 L 404.085938 128.136719 "/>
<path style="fill:none;stroke-width:0.708617;stroke-linecap:round;stroke-linejoin:round;stroke:rgb(0%,0%,0%);stroke-opacity:1;stroke-miterlimit:10;" d="M 402.414062 96.324219 L 400.542969 87.621094 "/>
<path style="fill:none;stroke-width:0.708617;stroke-linecap:round;stroke-linejoin:round;stroke:rgb(0%,0%,0%);stroke-opacity:1;stroke-miterlimit:10;" d="M 162.808594 128.136719 L 164.492188 139.019531 "/>
<path style="fill:none;stroke-width:0.708617;stroke-linecap:round;stroke-linejoin:round;stroke:rgb(0%,0%,0%);stroke-opacity:1;stroke-miterlimit:10;" d="M 164.476562 96.324219 L 166.347656 87.621094 "/>
<path style="fill:none;stroke-width:0.708617;stroke-linecap:round;stroke-linejoin:round;stroke:rgb(0%,0%,0%);stroke-opacity:1;stroke-miterlimit:10;" d="M 171.699219 41.167969 L 167.859375 41.574219 Z M 171.699219 41.167969 "/>
<path style="fill:none;stroke-width:0.708617;stroke-linecap:round;stroke-linejoin:round;stroke:rgb(0%,0%,0%);stroke-opacity:1;stroke-miterlimit:10;" d="M 416.136719 153.214844 L 404.75 180.757812 L 399.824219 191.324219 L 399.03125 193.6875 "/>
<path style="fill:none;stroke-width:0.708617;stroke-linecap:round;stroke-linejoin:round;stroke:rgb(0%,0%,0%);stroke-opacity:1;stroke-miterlimit:10;" d="M 399.824219 43.9375 L 399.449219 42.871094 L 399.195312 42.105469 L 399.070312 41.707031 L 399.03125 41.574219 "/>
<path style="fill:none;stroke-width:0.708617;stroke-linecap:round;stroke-linejoin:round;stroke:rgb(0%,0%,0%);stroke-opacity:1;stroke-miterlimit:10;" d="M 395.195312 193.574219 L 395.195312 194.089844 L 399.03125 193.6875 L 399.070312 193.554688 "/>
<path style="fill:none;stroke-width:0.708617;stroke-linecap:round;stroke-linejoin:round;stroke:rgb(0%,0%,0%);stroke-opacity:1;stroke-miterlimit:10;" d="M 399.03125 41.574219 L 395.195312 41.167969 L 395.195312 45.585938 "/>
<path style="fill:none;stroke-width:0.708617;stroke-linecap:round;stroke-linejoin:round;stroke:rgb(0%,0%,0%);stroke-opacity:1;stroke-miterlimit:10;" d="M 399.195312 193.152344 L 399.824219 191.324219 L 399.070312 193.554688 L 399.195312 193.152344 L 399.449219 192.390625 L 399.824219 191.324219 L 399.03125 193.6875 "/>
<path style="fill:none;stroke-width:0.708617;stroke-linecap:round;stroke-linejoin:round;stroke:rgb(0%,0%,0%);stroke-opacity:1;stroke-miterlimit:10;" d="M 167.859375 41.574219 L 167.824219 41.707031 L 167.699219 42.105469 "/>
<path style="fill:none;stroke-width:0.708617;stroke-linecap:round;stroke-linejoin:round;stroke:rgb(0%,0%,0%);stroke-opacity:1;stroke-miterlimit:10;" d="M 402.0625 140.589844 L 403.96875 131.730469 L 404.238281 123.332031 "/>
<path style="fill:none;stroke-width:0.708617;stroke-linecap:round;stroke-linejoin:round;stroke:rgb(0%,0%,0%);stroke-opacity:1;stroke-miterlimit:10;" d="M 395.824219 160.898438 L 393.515625 166.554688 "/>
<path style="fill:none;stroke-width:0.708617;stroke-linecap:round;stroke-linejoin:round;stroke:rgb(0%,0%,0%);stroke-opacity:1;stroke-miterlimit:10;" d="M 164.832031 140.589844 L 162.925781 131.730469 L 162.65625 123.332031 "/>
<path style="fill:none;stroke-width:0.708617;stroke-linecap:round;stroke-linejoin:round;stroke:rgb(0%,0%,0%);stroke-opacity:1;stroke-miterlimit:10;" d="M 173.378906 166.554688 L 171.070312 160.898438 "/>
<path style="fill:none;stroke-width:0.708617;stroke-linecap:round;stroke-linejoin:round;stroke:rgb(0%,0%,0%);stroke-opacity:1;stroke-miterlimit:10;" d="M 173.449219 68.789062 L 165.453125 89.992188 L 164.171875 98.300781 "/>
<path style="fill:none;stroke-width:0.708617;stroke-linecap:round;stroke-linejoin:round;stroke:rgb(0%,0%,0%);stroke-opacity:1;stroke-miterlimit:10;" d="M 171.699219 45.585938 L 171.699219 41.300781 "/>
<path style="fill:none;stroke-width:0.708617;stroke-linecap:round;stroke-linejoin:round;stroke:rgb(0%,0%,0%);stroke-opacity:1;stroke-miterlimit:10;" d="M 162.882812 53.144531 L 164.164062 50.660156 L 165.304688 48.25 L 166.191406 46.195312 L 166.894531 44.40625 L 167.066406 43.9375 L 167.445312 42.871094 L 167.699219 42.105469 "/>
<path style="fill:none;stroke-width:0.708617;stroke-linecap:round;stroke-linejoin:round;stroke:rgb(0%,0%,0%);stroke-opacity:1;stroke-miterlimit:10;" d="M 402.203125 89.800781 L 404.753906 131.828125 L 393.960938 166.960938 "/>
<path style="fill:none;stroke-width:0.708617;stroke-linecap:round;stroke-linejoin:round;stroke:rgb(0%,0%,0%);stroke-opacity:1;stroke-miterlimit:10;" d="M 164.6875 89.800781 L 162.140625 131.828125 L 172.929688 166.960938 "/>
<path style="fill:none;stroke-width:0.708617;stroke-linecap:round;stroke-linejoin:round;stroke:rgb(0%,0%,0%);stroke-opacity:1;stroke-miterlimit:10;" d="M 401.589844 187.007812 L 399.824219 191.324219 L 402.730469 184.601562 L 401.589844 187.007812 L 400.703125 189.066406 L 400 190.851562 L 399.824219 191.324219 L 404.007812 182.117188 "/>
<path style="fill:none;stroke-width:0.708617;stroke-linecap:round;stroke-linejoin:round;stroke:rgb(0%,0%,0%);stroke-opacity:1;stroke-miterlimit:10;" d="M 404.007812 53.144531 L 402.730469 50.660156 L 401.589844 48.25 L 400.703125 46.195312 L 400 44.40625 L 399.824219 43.9375 "/>
<path style="fill:none;stroke-width:0.708617;stroke-linecap:round;stroke-linejoin:round;stroke:rgb(0%,0%,0%);stroke-opacity:1;stroke-miterlimit:10;" d="M 167.066406 191.320312 L 165.304688 187.007812 L 166.191406 189.066406 Z M 167.066406 191.320312 "/>
<path style="fill:none;stroke-width:0.708617;stroke-linecap:round;stroke-linejoin:round;stroke:rgb(0%,0%,0%);stroke-opacity:1;stroke-miterlimit:10;" d="M 165.304688 187.007812 L 164.164062 184.601562 L 167.066406 191.320312 L 162.144531 180.757812 L 162.882812 182.117188 L 164.164062 184.601562 "/>
<path style="fill:none;stroke-width:0.708617;stroke-linecap:round;stroke-linejoin:round;stroke:rgb(0%,0%,0%);stroke-opacity:1;stroke-miterlimit:10;" d="M 162.882812 182.117188 L 167.066406 191.320312 L 166.894531 190.851562 L 166.191406 189.066406 "/>
<path style="fill:none;stroke-width:0.708617;stroke-linecap:round;stroke-linejoin:round;stroke:rgb(0%,0%,0%);stroke-opacity:1;stroke-miterlimit:10;" d="M 395.195312 66.09375 L 396.015625 66.300781 L 398.066406 66.816406 "/>
<path style="fill:none;stroke-width:0.708617;stroke-linecap:round;stroke-linejoin:round;stroke:rgb(0%,0%,0%);stroke-opacity:1;stroke-miterlimit:10;" d="M 168.828125 168.441406 L 170.878906 168.960938 "/>
<path style="fill:none;stroke-width:0.708617;stroke-linecap:round;stroke-linejoin:round;stroke:rgb(0%,0%,0%);stroke-opacity:1;stroke-miterlimit:10;" d="M 158.023438 165.710938 L 152.730469 149.835938 L 149.570312 133.398438 L 148.820312 109.929688 L 152.398438 86.726562 L 158.023438 69.546875 L 171.699219 66.09375 L 170.878906 66.300781 "/>
<path style="fill:none;stroke-width:0.708617;stroke-linecap:round;stroke-linejoin:round;stroke:rgb(0%,0%,0%);stroke-opacity:1;stroke-miterlimit:10;" d="M 402.824219 68.019531 L 400.324219 67.386719 "/>
<path style="fill:none;stroke-width:0.708617;stroke-linecap:round;stroke-linejoin:round;stroke:rgb(0%,0%,0%);stroke-opacity:1;stroke-miterlimit:10;" d="M 171.699219 169.734375 L 171.699219 181.761719 L 162.144531 180.757812 L 150.757812 153.214844 L 146.347656 129.628906 L 146.347656 105.632812 L 150.757812 82.042969 "/>
<path style="fill:none;stroke-width:0.708617;stroke-linecap:round;stroke-linejoin:round;stroke:rgb(0%,0%,0%);stroke-opacity:1;stroke-miterlimit:10;" d="M 150.757812 82.042969 L 159.425781 59.667969 L 162.144531 54.5 L 171.699219 53.496094 "/>
<path style="fill:none;stroke-width:0.708617;stroke-linecap:round;stroke-linejoin:round;stroke:rgb(0%,0%,0%);stroke-opacity:1;stroke-miterlimit:10;" d="M 395.195312 66.09375 L 408.871094 69.546875 L 414.496094 86.726562 L 418.070312 109.929688 L 417.324219 133.398438 "/>
<path style="fill:none;stroke-width:0.708617;stroke-linecap:round;stroke-linejoin:round;stroke:rgb(0%,0%,0%);stroke-opacity:1;stroke-miterlimit:10;" d="M 395.195312 65.527344 L 395.195312 67.179688 L 395.195312 36.359375 "/>
<path style="fill:none;stroke-width:0.708617;stroke-linecap:round;stroke-linejoin:round;stroke:rgb(0%,0%,0%);stroke-opacity:1;stroke-miterlimit:10;" d="M 171.699219 65.527344 L 171.699219 66.230469 "/>
<path style="fill:none;stroke-width:0.708617;stroke-linecap:round;stroke-linejoin:round;stroke:rgb(0%,0%,0%);stroke-opacity:1;stroke-miterlimit:10;" d="M 171.699219 169.734375 L 171.699219 168.667969 "/>
<path style="fill:none;stroke-width:0.708617;stroke-linecap:round;stroke-linejoin:round;stroke:rgb(0%,0%,0%);stroke-opacity:1;stroke-miterlimit:10;" d="M 357.097656 5.882812 L 356.929688 5.882812 "/>
<path style="fill:none;stroke-width:0.708617;stroke-linecap:round;stroke-linejoin:round;stroke:rgb(0%,0%,0%);stroke-opacity:1;stroke-miterlimit:10;" d="M 356.472656 5.882812 L 210.421875 5.882812 "/>
<path style="fill:none;stroke-width:0.708617;stroke-linecap:round;stroke-linejoin:round;stroke:rgb(0%,0%,0%);stroke-opacity:1;stroke-miterlimit:10;" d="M 171.699219 67.179688 L 171.699219 66.230469 "/>
<path style="fill:none;stroke-width:0.708617;stroke-linecap:round;stroke-linejoin:round;stroke:rgb(0%,0%,0%);stroke-opacity:1;stroke-miterlimit:10;" d="M 171.699219 168.082031 L 173.398438 166.535156 L 174.828125 164.640625 "/>
<path style="fill:none;stroke-width:0.708617;stroke-linecap:round;stroke-linejoin:round;stroke:rgb(0%,0%,0%);stroke-opacity:1;stroke-miterlimit:10;" d="M 390 75.382812 L 390.886719 72.863281 L 392.066406 70.621094 L 393.492188 68.726562 L 395.195312 67.179688 "/>
<path style="fill:none;stroke-width:0.708617;stroke-linecap:round;stroke-linejoin:round;stroke:rgb(0%,0%,0%);stroke-opacity:1;stroke-miterlimit:10;" d="M 395.195312 36.359375 L 385.035156 36.359375 L 384.796875 33.253906 L 383.886719 29.617188 L 382.320312 26.210938 L 380.15625 23.148438 "/>
<path style="fill:none;stroke-width:0.708617;stroke-linecap:round;stroke-linejoin:round;stroke:rgb(0%,0%,0%);stroke-opacity:1;stroke-miterlimit:10;" d="M 394.835938 31.703125 L 393.46875 26.246094 L 391.121094 21.136719 L 387.875 16.542969 "/>
<path style="fill:none;stroke-width:0.708617;stroke-linecap:round;stroke-linejoin:round;stroke:rgb(0%,0%,0%);stroke-opacity:1;stroke-miterlimit:10;" d="M 379.957031 36.359375 L 379.664062 39.332031 L 379.957031 36.359375 L 370.8125 36.359375 "/>
<path style="fill:none;stroke-width:0.708617;stroke-linecap:round;stroke-linejoin:round;stroke:rgb(0%,0%,0%);stroke-opacity:1;stroke-miterlimit:10;" d="M 377.390625 27.890625 L 375.492188 25.582031 L 373.183594 23.6875 L 370.550781 22.28125 L 367.691406 21.414062 "/>
<path style="fill:none;stroke-width:0.708617;stroke-linecap:round;stroke-linejoin:round;stroke:rgb(0%,0%,0%);stroke-opacity:1;stroke-miterlimit:10;" d="M 199.203125 183.957031 L 196.34375 184.824219 L 193.707031 186.230469 L 196.34375 184.824219 "/>
<path style="fill:none;stroke-width:0.708617;stroke-linecap:round;stroke-linejoin:round;stroke:rgb(0%,0%,0%);stroke-opacity:1;stroke-miterlimit:10;" d="M 358.886719 22.28125 L 361.746094 21.414062 L 358.886719 22.28125 L 356.253906 23.6875 L 353.945312 25.582031 "/>
<path style="fill:none;stroke-width:0.708617;stroke-linecap:round;stroke-linejoin:round;stroke:rgb(0%,0%,0%);stroke-opacity:1;stroke-miterlimit:10;" d="M 358.886719 22.28125 L 356.253906 23.6875 L 353.945312 25.582031 L 352.046875 27.890625 L 350.640625 30.527344 L 349.773438 33.386719 L 349.480469 36.359375 L 349.773438 39.332031 "/>
<path style="fill:none;stroke-width:0.708617;stroke-linecap:round;stroke-linejoin:round;stroke:rgb(0%,0%,0%);stroke-opacity:1;stroke-miterlimit:10;" d="M 216.253906 30.527344 L 214.84375 27.890625 L 216.253906 30.527344 L 217.121094 33.386719 L 217.414062 36.359375 "/>
<path style="fill:none;stroke-width:0.708617;stroke-linecap:round;stroke-linejoin:round;stroke:rgb(0%,0%,0%);stroke-opacity:1;stroke-miterlimit:10;" d="M 379.957031 198.902344 L 379.664062 201.875 L 378.796875 204.734375 L 379.664062 201.875 L 379.957031 198.902344 L 379.664062 195.929688 Z M 379.957031 198.902344 "/>
<path style="fill:none;stroke-width:0.708617;stroke-linecap:round;stroke-linejoin:round;stroke:rgb(0%,0%,0%);stroke-opacity:1;stroke-miterlimit:10;" d="M 217.121094 195.929688 L 216.253906 193.070312 L 214.84375 190.4375 L 212.949219 188.128906 L 210.640625 186.230469 L 208.007812 184.824219 L 205.148438 183.957031 L 208.007812 184.824219 L 210.640625 186.230469 "/>
<path style="fill:none;stroke-width:0.708617;stroke-linecap:round;stroke-linejoin:round;stroke:rgb(0%,0%,0%);stroke-opacity:1;stroke-miterlimit:10;" d="M 210.640625 23.6875 L 208.007812 22.28125 L 210.640625 23.6875 L 212.949219 25.582031 L 214.84375 27.890625 L 212.949219 25.582031 Z M 210.640625 23.6875 "/>
<path style="fill:none;stroke-width:0.708617;stroke-linecap:round;stroke-linejoin:round;stroke:rgb(0%,0%,0%);stroke-opacity:1;stroke-miterlimit:10;" d="M 202.175781 51.597656 L 205.148438 51.304688 L 202.175781 51.597656 L 199.203125 51.304688 L 196.34375 50.4375 L 193.707031 49.027344 L 191.398438 47.132812 "/>
<path style="fill:none;stroke-width:0.708617;stroke-linecap:round;stroke-linejoin:round;stroke:rgb(0%,0%,0%);stroke-opacity:1;stroke-miterlimit:10;" d="M 208.007812 50.4375 L 205.148438 51.304688 L 208.007812 50.4375 L 210.640625 49.027344 L 212.949219 47.132812 L 210.640625 49.027344 Z M 208.007812 50.4375 "/>
<path style="fill:none;stroke-width:0.708617;stroke-linecap:round;stroke-linejoin:round;stroke:rgb(0%,0%,0%);stroke-opacity:1;stroke-miterlimit:10;" d="M 364.71875 214.140625 L 367.691406 213.847656 L 370.550781 212.980469 L 373.183594 211.574219 L 375.492188 209.675781 "/>
<path style="fill:none;stroke-width:0.708617;stroke-linecap:round;stroke-linejoin:round;stroke:rgb(0%,0%,0%);stroke-opacity:1;stroke-miterlimit:10;" d="M 370.890625 17 L 374.34375 18.464844 L 377.464844 20.535156 L 380.15625 23.148438 "/>
<path style="fill:none;stroke-width:0.708617;stroke-linecap:round;stroke-linejoin:round;stroke:rgb(0%,0%,0%);stroke-opacity:1;stroke-miterlimit:10;" d="M 212.949219 47.132812 L 214.84375 44.824219 L 216.253906 42.191406 L 217.121094 39.332031 L 217.414062 36.359375 "/>
<path style="fill:none;stroke-width:0.708617;stroke-linecap:round;stroke-linejoin:round;stroke:rgb(0%,0%,0%);stroke-opacity:1;stroke-miterlimit:10;" d="M 364.71875 214.140625 L 367.691406 213.847656 L 370.550781 212.980469 L 373.183594 211.574219 L 375.492188 209.675781 L 377.390625 207.367188 L 378.796875 204.734375 L 377.390625 207.367188 L 375.492188 209.675781 "/>
<path style="fill:none;stroke-width:0.708617;stroke-linecap:round;stroke-linejoin:round;stroke:rgb(0%,0%,0%);stroke-opacity:1;stroke-miterlimit:10;" d="M 350.640625 42.191406 L 352.046875 44.824219 L 353.945312 47.132812 L 356.253906 49.027344 "/>
<path style="fill:none;stroke-width:0.708617;stroke-linecap:round;stroke-linejoin:round;stroke:rgb(0%,0%,0%);stroke-opacity:1;stroke-miterlimit:10;" d="M 191.398438 47.132812 L 189.503906 44.824219 L 191.398438 47.132812 L 193.707031 49.027344 L 196.34375 50.4375 L 199.203125 51.304688 L 202.175781 51.597656 "/>
<path style="fill:none;stroke-width:0.708617;stroke-linecap:round;stroke-linejoin:round;stroke:rgb(0%,0%,0%);stroke-opacity:1;stroke-miterlimit:10;" d="M 187.230469 195.929688 L 188.097656 193.070312 L 189.503906 190.4375 L 191.398438 188.128906 L 193.707031 186.230469 "/>
<path style="fill:none;stroke-width:0.708617;stroke-linecap:round;stroke-linejoin:round;stroke:rgb(0%,0%,0%);stroke-opacity:1;stroke-miterlimit:10;" d="M 350.640625 193.070312 L 349.773438 195.929688 L 349.480469 198.902344 L 349.773438 201.875 L 350.640625 204.734375 L 352.046875 207.367188 L 353.945312 209.675781 "/>
<path style="fill:none;stroke-width:0.708617;stroke-linecap:round;stroke-linejoin:round;stroke:rgb(0%,0%,0%);stroke-opacity:1;stroke-miterlimit:10;" d="M 210.640625 186.230469 L 212.949219 188.128906 L 214.84375 190.4375 L 216.253906 193.070312 L 217.121094 195.929688 L 217.414062 198.902344 L 217.121094 201.875 L 216.253906 204.734375 L 214.84375 207.367188 L 212.949219 209.675781 L 210.640625 211.574219 L 208.007812 212.980469 "/>
<path style="fill:none;stroke-width:0.708617;stroke-linecap:round;stroke-linejoin:round;stroke:rgb(0%,0%,0%);stroke-opacity:1;stroke-miterlimit:10;" d="M 356.253906 186.230469 L 353.945312 188.128906 L 352.046875 190.4375 L 350.640625 193.070312 L 352.046875 190.4375 L 353.945312 188.128906 "/>
<path style="fill:none;stroke-width:0.708617;stroke-linecap:round;stroke-linejoin:round;stroke:rgb(0%,0%,0%);stroke-opacity:1;stroke-miterlimit:10;" d="M 205.148438 21.414062 L 208.007812 22.28125 L 205.148438 21.414062 L 202.175781 21.121094 L 199.203125 21.414062 L 196.34375 22.28125 L 193.707031 23.6875 L 191.398438 25.582031 "/>
<path style="fill:none;stroke-width:0.708617;stroke-linecap:round;stroke-linejoin:round;stroke:rgb(0%,0%,0%);stroke-opacity:1;stroke-miterlimit:10;" d="M 353.945312 209.675781 L 356.253906 211.574219 L 358.886719 212.980469 L 356.253906 211.574219 L 353.945312 209.675781 L 352.046875 207.367188 L 350.640625 204.734375 L 349.773438 201.875 L 349.480469 198.902344 L 349.773438 195.929688 L 350.640625 193.070312 "/>
<path style="fill:none;stroke-width:0.708617;stroke-linecap:round;stroke-linejoin:round;stroke:rgb(0%,0%,0%);stroke-opacity:1;stroke-miterlimit:10;" d="M 379.664062 195.929688 L 378.796875 193.070312 L 377.390625 190.4375 L 378.796875 193.070312 Z M 379.664062 195.929688 "/>
<path style="fill:none;stroke-width:0.708617;stroke-linecap:round;stroke-linejoin:round;stroke:rgb(0%,0%,0%);stroke-opacity:1;stroke-miterlimit:10;" d="M 356.253906 49.027344 L 358.886719 50.4375 L 361.746094 51.304688 L 364.71875 51.597656 L 361.746094 51.304688 L 358.886719 50.4375 "/>
<path style="fill:none;stroke-width:0.708617;stroke-linecap:round;stroke-linejoin:round;stroke:rgb(0%,0%,0%);stroke-opacity:1;stroke-miterlimit:10;" d="M 196.34375 212.980469 L 199.203125 213.847656 L 202.175781 214.140625 L 199.203125 213.847656 L 196.34375 212.980469 L 193.707031 211.574219 "/>
<path style="fill:none;stroke-width:0.708617;stroke-linecap:round;stroke-linejoin:round;stroke:rgb(0%,0%,0%);stroke-opacity:1;stroke-miterlimit:10;" d="M 188.097656 30.527344 L 189.503906 27.890625 L 188.097656 30.527344 L 187.230469 33.386719 Z M 188.097656 30.527344 "/>
<path style="fill:none;stroke-width:0.708617;stroke-linecap:round;stroke-linejoin:round;stroke:rgb(0%,0%,0%);stroke-opacity:1;stroke-miterlimit:10;" d="M 353.945312 188.128906 L 356.253906 186.230469 L 358.886719 184.824219 L 361.746094 183.957031 L 364.71875 183.664062 "/>
<path style="fill:none;stroke-width:0.708617;stroke-linecap:round;stroke-linejoin:round;stroke:rgb(0%,0%,0%);stroke-opacity:1;stroke-miterlimit:10;" d="M 361.746094 213.847656 L 358.886719 212.980469 L 361.746094 213.847656 L 364.71875 214.140625 Z M 361.746094 213.847656 "/>
<path style="fill:none;stroke-width:0.708617;stroke-linecap:round;stroke-linejoin:round;stroke:rgb(0%,0%,0%);stroke-opacity:1;stroke-miterlimit:10;" d="M 364.71875 183.664062 L 367.691406 183.957031 L 370.550781 184.824219 L 367.691406 183.957031 Z M 364.71875 183.664062 "/>
<path style="fill:none;stroke-width:0.708617;stroke-linecap:round;stroke-linejoin:round;stroke:rgb(0%,0%,0%);stroke-opacity:1;stroke-miterlimit:10;" d="M 378.796875 42.191406 L 377.390625 44.824219 L 375.492188 47.132812 L 373.183594 49.027344 L 370.550781 50.4375 L 373.183594 49.027344 "/>
<path style="fill:none;stroke-width:0.708617;stroke-linecap:round;stroke-linejoin:round;stroke:rgb(0%,0%,0%);stroke-opacity:1;stroke-miterlimit:10;" d="M 205.148438 21.414062 L 202.175781 21.121094 L 199.203125 21.414062 L 196.34375 22.28125 L 193.707031 23.6875 L 191.398438 25.582031 L 189.503906 27.890625 L 191.398438 25.582031 "/>
<path style="fill:none;stroke-width:0.708617;stroke-linecap:round;stroke-linejoin:round;stroke:rgb(0%,0%,0%);stroke-opacity:1;stroke-miterlimit:10;" d="M 205.148438 213.847656 L 202.175781 214.140625 L 205.148438 213.847656 L 208.007812 212.980469 Z M 205.148438 213.847656 "/>
<path style="fill:none;stroke-width:0.708617;stroke-linecap:round;stroke-linejoin:round;stroke:rgb(0%,0%,0%);stroke-opacity:1;stroke-miterlimit:10;" d="M 212.949219 47.132812 L 214.84375 44.824219 L 216.253906 42.191406 L 217.121094 39.332031 L 217.414062 36.359375 L 217.121094 33.386719 L 216.253906 30.527344 "/>
<path style="fill:none;stroke-width:0.708617;stroke-linecap:round;stroke-linejoin:round;stroke:rgb(0%,0%,0%);stroke-opacity:1;stroke-miterlimit:10;" d="M 187.230469 195.929688 L 186.9375 198.902344 L 187.230469 201.875 L 188.097656 204.734375 L 189.503906 207.367188 L 188.097656 204.734375 L 187.230469 201.875 "/>
<path style="fill:none;stroke-width:0.708617;stroke-linecap:round;stroke-linejoin:round;stroke:rgb(0%,0%,0%);stroke-opacity:1;stroke-miterlimit:10;" d="M 187.230469 39.332031 L 186.9375 36.359375 L 187.230469 33.386719 L 186.9375 36.359375 L 187.230469 39.332031 L 188.097656 42.191406 L 189.503906 44.824219 L 188.097656 42.191406 Z M 187.230469 39.332031 "/>
<path style="fill:none;stroke-width:0.708617;stroke-linecap:round;stroke-linejoin:round;stroke:rgb(0%,0%,0%);stroke-opacity:1;stroke-miterlimit:10;" d="M 373.183594 49.027344 L 375.492188 47.132812 L 377.390625 44.824219 L 378.796875 42.191406 L 379.664062 39.332031 L 378.796875 42.191406 "/>
<path style="fill:none;stroke-width:0.708617;stroke-linecap:round;stroke-linejoin:round;stroke:rgb(0%,0%,0%);stroke-opacity:1;stroke-miterlimit:10;" d="M 379.664062 33.386719 L 379.957031 36.359375 L 379.664062 33.386719 L 378.796875 30.527344 L 377.390625 27.890625 L 378.796875 30.527344 Z M 379.664062 33.386719 "/>
<path style="fill:none;stroke-width:0.708617;stroke-linecap:round;stroke-linejoin:round;stroke:rgb(0%,0%,0%);stroke-opacity:1;stroke-miterlimit:10;" d="M 187.230469 201.875 L 186.9375 198.902344 L 187.230469 195.929688 L 188.097656 193.070312 L 189.503906 190.4375 L 191.398438 188.128906 L 193.707031 186.230469 "/>
<path style="fill:none;stroke-width:0.708617;stroke-linecap:round;stroke-linejoin:round;stroke:rgb(0%,0%,0%);stroke-opacity:1;stroke-miterlimit:10;" d="M 377.390625 27.890625 L 375.492188 25.582031 L 373.183594 23.6875 L 370.550781 22.28125 L 367.691406 21.414062 L 364.71875 21.121094 L 361.746094 21.414062 L 364.71875 21.121094 L 367.691406 21.414062 "/>
<path style="fill:none;stroke-width:0.708617;stroke-linecap:round;stroke-linejoin:round;stroke:rgb(0%,0%,0%);stroke-opacity:1;stroke-miterlimit:10;" d="M 349.773438 39.332031 L 350.640625 42.191406 L 349.773438 39.332031 L 349.480469 36.359375 L 349.773438 33.386719 L 350.640625 30.527344 L 352.046875 27.890625 L 353.945312 25.582031 "/>
<path style="fill:none;stroke-width:0.708617;stroke-linecap:round;stroke-linejoin:round;stroke:rgb(0%,0%,0%);stroke-opacity:1;stroke-miterlimit:10;" d="M 196.34375 212.980469 L 193.707031 211.574219 "/>
<path style="fill:none;stroke-width:0.708617;stroke-linecap:round;stroke-linejoin:round;stroke:rgb(0%,0%,0%);stroke-opacity:1;stroke-miterlimit:10;" d="M 191.398438 209.675781 L 193.707031 211.574219 L 191.398438 209.675781 L 189.503906 207.367188 Z M 191.398438 209.675781 "/>
<path style="fill:none;stroke-width:0.708617;stroke-linecap:round;stroke-linejoin:round;stroke:rgb(0%,0%,0%);stroke-opacity:1;stroke-miterlimit:10;" d="M 367.691406 51.304688 L 370.550781 50.4375 L 367.691406 51.304688 L 364.71875 51.597656 Z M 367.691406 51.304688 "/>
<path style="fill:none;stroke-width:0.708617;stroke-linecap:round;stroke-linejoin:round;stroke:rgb(0%,0%,0%);stroke-opacity:1;stroke-miterlimit:10;" d="M 375.492188 188.128906 L 377.390625 190.4375 L 375.492188 188.128906 L 373.183594 186.230469 L 370.550781 184.824219 L 373.183594 186.230469 Z M 375.492188 188.128906 "/>
<path style="fill:none;stroke-width:0.708617;stroke-linecap:round;stroke-linejoin:round;stroke:rgb(0%,0%,0%);stroke-opacity:1;stroke-miterlimit:10;" d="M 199.203125 183.957031 L 202.175781 183.664062 L 205.148438 183.957031 L 202.175781 183.664062 L 199.203125 183.957031 L 196.34375 184.824219 "/>
<path style="fill:none;stroke-width:0.708617;stroke-linecap:round;stroke-linejoin:round;stroke:rgb(0%,0%,0%);stroke-opacity:1;stroke-miterlimit:10;" d="M 217.414062 198.902344 L 208.269531 198.902344 "/>
<path style="fill:none;stroke-width:0.708617;stroke-linecap:round;stroke-linejoin:round;stroke:rgb(0%,0%,0%);stroke-opacity:1;stroke-miterlimit:10;" d="M 186.9375 36.359375 L 196.078125 36.359375 "/>
<path style="fill:none;stroke-width:0.708617;stroke-linecap:round;stroke-linejoin:round;stroke:rgb(0%,0%,0%);stroke-opacity:1;stroke-miterlimit:10;" d="M 364.71875 183.664062 L 361.746094 183.957031 L 358.886719 184.824219 L 356.253906 186.230469 "/>
<path style="fill:none;stroke-width:0.708617;stroke-linecap:round;stroke-linejoin:round;stroke:rgb(0%,0%,0%);stroke-opacity:1;stroke-miterlimit:10;" d="M 350.640625 42.191406 L 352.046875 44.824219 L 353.945312 47.132812 L 356.253906 49.027344 L 358.886719 50.4375 "/>
<path style="fill:none;stroke-width:0.708617;stroke-linecap:round;stroke-linejoin:round;stroke:rgb(0%,0%,0%);stroke-opacity:1;stroke-miterlimit:10;" d="M 359.085938 34.027344 L 358.742188 35.167969 L 358.625 36.359375 L 349.480469 36.359375 "/>
<path style="fill:none;stroke-width:0.708617;stroke-linecap:round;stroke-linejoin:round;stroke:rgb(0%,0%,0%);stroke-opacity:1;stroke-miterlimit:10;" d="M 208.007812 212.980469 L 210.640625 211.574219 L 212.949219 209.675781 "/>
<path style="fill:none;stroke-width:0.708617;stroke-linecap:round;stroke-linejoin:round;stroke:rgb(0%,0%,0%);stroke-opacity:1;stroke-miterlimit:10;" d="M 186.9375 198.902344 L 196.078125 198.902344 L 196.195312 197.714844 "/>
<path style="fill:none;stroke-width:0.708617;stroke-linecap:round;stroke-linejoin:round;stroke:rgb(0%,0%,0%);stroke-opacity:1;stroke-miterlimit:10;" d="M 217.414062 36.359375 L 208.269531 36.359375 L 208.152344 37.546875 L 207.804688 38.691406 L 207.242188 39.746094 "/>
<path style="fill:none;stroke-width:0.708617;stroke-linecap:round;stroke-linejoin:round;stroke:rgb(0%,0%,0%);stroke-opacity:1;stroke-miterlimit:10;" d="M 212.949219 209.675781 L 214.84375 207.367188 L 216.253906 204.734375 L 217.121094 201.875 L 217.414062 198.902344 L 217.121094 195.929688 "/>
<path style="fill:none;stroke-width:0.708617;stroke-linecap:round;stroke-linejoin:round;stroke:rgb(0%,0%,0%);stroke-opacity:1;stroke-miterlimit:10;" d="M 379.957031 198.902344 L 370.8125 198.902344 L 370.695312 200.089844 L 370.351562 201.234375 L 369.785156 202.289062 L 369.027344 203.210938 L 368.105469 203.96875 "/>
<path style="fill:none;stroke-width:0.708617;stroke-linecap:round;stroke-linejoin:round;stroke:rgb(0%,0%,0%);stroke-opacity:1;stroke-miterlimit:10;" d="M 359.652344 202.289062 L 359.085938 201.234375 L 358.742188 200.089844 L 358.625 198.902344 L 349.480469 198.902344 "/>
<path style="fill:none;stroke-width:0.708617;stroke-linecap:round;stroke-linejoin:round;stroke:rgb(0%,0%,0%);stroke-opacity:1;stroke-miterlimit:10;" d="M 200.984375 204.878906 L 202.175781 204.996094 L 203.363281 204.878906 L 204.507812 204.535156 L 205.5625 203.96875 L 206.484375 203.210938 L 207.242188 202.289062 L 207.804688 201.234375 L 208.152344 200.089844 "/>
<path style="fill:none;stroke-width:0.708617;stroke-linecap:round;stroke-linejoin:round;stroke:rgb(0%,0%,0%);stroke-opacity:1;stroke-miterlimit:10;" d="M 200.984375 192.925781 L 199.84375 193.269531 L 198.789062 193.835938 L 197.863281 194.59375 "/>
<path style="fill:none;stroke-width:0.708617;stroke-linecap:round;stroke-linejoin:round;stroke:rgb(0%,0%,0%);stroke-opacity:1;stroke-miterlimit:10;" d="M 368.105469 31.289062 L 369.027344 32.046875 L 369.785156 32.972656 L 370.351562 34.027344 L 370.695312 35.167969 L 370.8125 36.359375 L 370.695312 37.546875 "/>
<path style="fill:none;stroke-width:0.708617;stroke-linecap:round;stroke-linejoin:round;stroke:rgb(0%,0%,0%);stroke-opacity:1;stroke-miterlimit:10;" d="M 205.5625 31.289062 L 206.484375 32.046875 L 207.242188 32.972656 "/>
<path style="fill:none;stroke-width:0.708617;stroke-linecap:round;stroke-linejoin:round;stroke:rgb(0%,0%,0%);stroke-opacity:1;stroke-miterlimit:10;" d="M 362.386719 41.988281 L 361.332031 41.425781 L 360.410156 40.667969 L 359.652344 39.746094 "/>
<path style="fill:none;stroke-width:0.708617;stroke-linecap:round;stroke-linejoin:round;stroke:rgb(0%,0%,0%);stroke-opacity:1;stroke-miterlimit:10;" d="M 206.484375 194.59375 L 207.242188 195.515625 L 207.804688 196.570312 L 208.152344 197.714844 "/>
<path style="fill:none;stroke-width:0.708617;stroke-linecap:round;stroke-linejoin:round;stroke:rgb(0%,0%,0%);stroke-opacity:1;stroke-miterlimit:10;" d="M 196.195312 37.546875 L 196.078125 36.359375 L 196.195312 35.167969 L 196.542969 34.027344 "/>
<path style="fill:none;stroke-width:0.708617;stroke-linecap:round;stroke-linejoin:round;stroke:rgb(0%,0%,0%);stroke-opacity:1;stroke-miterlimit:10;" d="M 208.269531 36.359375 L 208.152344 35.167969 L 207.804688 34.027344 L 207.242188 32.972656 "/>
<path style="fill:none;stroke-width:0.708617;stroke-linecap:round;stroke-linejoin:round;stroke:rgb(0%,0%,0%);stroke-opacity:1;stroke-miterlimit:10;" d="M 196.542969 34.027344 L 197.105469 32.972656 L 197.863281 32.046875 L 198.789062 31.289062 L 199.84375 30.726562 "/>
<path style="fill:none;stroke-width:0.708617;stroke-linecap:round;stroke-linejoin:round;stroke:rgb(0%,0%,0%);stroke-opacity:1;stroke-miterlimit:10;" d="M 358.742188 37.546875 L 358.625 36.359375 "/>
<path style="fill:none;stroke-width:0.708617;stroke-linecap:round;stroke-linejoin:round;stroke:rgb(0%,0%,0%);stroke-opacity:1;stroke-miterlimit:10;" d="M 199.84375 30.726562 L 200.984375 30.378906 L 202.175781 30.261719 L 203.363281 30.378906 "/>
<path style="fill:none;stroke-width:0.708617;stroke-linecap:round;stroke-linejoin:round;stroke:rgb(0%,0%,0%);stroke-opacity:1;stroke-miterlimit:10;" d="M 359.085938 34.027344 L 359.652344 32.972656 L 360.410156 32.046875 L 361.332031 31.289062 "/>
<path style="fill:none;stroke-width:0.708617;stroke-linecap:round;stroke-linejoin:round;stroke:rgb(0%,0%,0%);stroke-opacity:1;stroke-miterlimit:10;" d="M 204.507812 41.988281 L 203.363281 42.335938 L 202.175781 42.453125 L 200.984375 42.335938 L 199.84375 41.988281 "/>
<path style="fill:none;stroke-width:0.708617;stroke-linecap:round;stroke-linejoin:round;stroke:rgb(0%,0%,0%);stroke-opacity:1;stroke-miterlimit:10;" d="M 359.652344 39.746094 L 359.085938 38.691406 L 358.742188 37.546875 "/>
<path style="fill:none;stroke-width:0.708617;stroke-linecap:round;stroke-linejoin:round;stroke:rgb(0%,0%,0%);stroke-opacity:1;stroke-miterlimit:10;" d="M 204.507812 193.269531 L 203.363281 192.925781 L 202.175781 192.808594 L 200.984375 192.925781 "/>
<path style="fill:none;stroke-width:0.708617;stroke-linecap:round;stroke-linejoin:round;stroke:rgb(0%,0%,0%);stroke-opacity:1;stroke-miterlimit:10;" d="M 197.105469 195.515625 L 197.863281 194.59375 "/>
<path style="fill:none;stroke-width:0.708617;stroke-linecap:round;stroke-linejoin:round;stroke:rgb(0%,0%,0%);stroke-opacity:1;stroke-miterlimit:10;" d="M 362.386719 30.726562 L 361.332031 31.289062 "/>
<path style="fill:none;stroke-width:0.708617;stroke-linecap:round;stroke-linejoin:round;stroke:rgb(0%,0%,0%);stroke-opacity:1;stroke-miterlimit:10;" d="M 196.078125 198.902344 L 196.195312 200.089844 L 196.542969 201.234375 L 197.105469 202.289062 L 197.863281 203.210938 L 198.789062 203.96875 L 199.84375 204.535156 L 200.984375 204.878906 "/>
<path style="fill:none;stroke-width:0.708617;stroke-linecap:round;stroke-linejoin:round;stroke:rgb(0%,0%,0%);stroke-opacity:1;stroke-miterlimit:10;" d="M 203.363281 30.378906 L 204.507812 30.726562 L 205.5625 31.289062 "/>
<path style="fill:none;stroke-width:0.708617;stroke-linecap:round;stroke-linejoin:round;stroke:rgb(0%,0%,0%);stroke-opacity:1;stroke-miterlimit:10;" d="M 196.195312 37.546875 L 196.542969 38.691406 L 197.105469 39.746094 L 197.863281 40.667969 "/>
<path style="fill:none;stroke-width:0.708617;stroke-linecap:round;stroke-linejoin:round;stroke:rgb(0%,0%,0%);stroke-opacity:1;stroke-miterlimit:10;" d="M 208.152344 197.714844 L 208.269531 198.902344 L 208.152344 200.089844 "/>
<path style="fill:none;stroke-width:0.708617;stroke-linecap:round;stroke-linejoin:round;stroke:rgb(0%,0%,0%);stroke-opacity:1;stroke-miterlimit:10;" d="M 197.863281 40.667969 L 198.789062 41.425781 L 199.84375 41.988281 "/>
<path style="fill:none;stroke-width:0.708617;stroke-linecap:round;stroke-linejoin:round;stroke:rgb(0%,0%,0%);stroke-opacity:1;stroke-miterlimit:10;" d="M 207.242188 39.746094 L 206.484375 40.667969 L 205.5625 41.425781 L 204.507812 41.988281 "/>
<path style="fill:none;stroke-width:0.708617;stroke-linecap:round;stroke-linejoin:round;stroke:rgb(0%,0%,0%);stroke-opacity:1;stroke-miterlimit:10;" d="M 204.507812 193.269531 L 205.5625 193.835938 L 206.484375 194.59375 "/>
<path style="fill:none;stroke-width:0.708617;stroke-linecap:round;stroke-linejoin:round;stroke:rgb(0%,0%,0%);stroke-opacity:1;stroke-miterlimit:10;" d="M 369.027344 40.667969 L 369.785156 39.746094 L 370.351562 38.691406 L 370.695312 37.546875 "/>
<path style="fill:none;stroke-width:0.708617;stroke-linecap:round;stroke-linejoin:round;stroke:rgb(0%,0%,0%);stroke-opacity:1;stroke-miterlimit:10;" d="M 368.105469 31.289062 L 367.050781 30.726562 L 365.90625 30.378906 L 364.71875 30.261719 L 363.53125 30.378906 L 362.386719 30.726562 "/>
<path style="fill:none;stroke-width:0.708617;stroke-linecap:round;stroke-linejoin:round;stroke:rgb(0%,0%,0%);stroke-opacity:1;stroke-miterlimit:10;" d="M 369.027344 40.667969 L 368.105469 41.425781 L 367.050781 41.988281 "/>
<path style="fill:none;stroke-width:0.708617;stroke-linecap:round;stroke-linejoin:round;stroke:rgb(0%,0%,0%);stroke-opacity:1;stroke-miterlimit:10;" d="M 196.195312 197.714844 L 196.542969 196.570312 L 197.105469 195.515625 "/>
<path style="fill:none;stroke-width:0.708617;stroke-linecap:round;stroke-linejoin:round;stroke:rgb(0%,0%,0%);stroke-opacity:1;stroke-miterlimit:10;" d="M 362.386719 41.988281 L 363.53125 42.335938 L 364.71875 42.453125 L 365.90625 42.335938 L 367.050781 41.988281 "/>
<path style="fill:none;stroke-width:0.708617;stroke-linecap:round;stroke-linejoin:round;stroke:rgb(0%,0%,0%);stroke-opacity:1;stroke-miterlimit:10;" d="M 363.53125 192.925781 L 364.71875 192.808594 L 365.90625 192.925781 "/>
<path style="fill:none;stroke-width:0.708617;stroke-linecap:round;stroke-linejoin:round;stroke:rgb(0%,0%,0%);stroke-opacity:1;stroke-miterlimit:10;" d="M 369.785156 195.515625 L 370.351562 196.570312 L 370.695312 197.714844 L 370.8125 198.902344 "/>
<path style="fill:none;stroke-width:0.708617;stroke-linecap:round;stroke-linejoin:round;stroke:rgb(0%,0%,0%);stroke-opacity:1;stroke-miterlimit:10;" d="M 361.332031 203.96875 L 362.386719 204.535156 L 363.53125 204.878906 L 364.71875 204.996094 L 365.90625 204.878906 "/>
<path style="fill:none;stroke-width:0.708617;stroke-linecap:round;stroke-linejoin:round;stroke:rgb(0%,0%,0%);stroke-opacity:1;stroke-miterlimit:10;" d="M 358.625 198.902344 L 358.742188 197.714844 L 359.085938 196.570312 "/>
<path style="fill:none;stroke-width:0.708617;stroke-linecap:round;stroke-linejoin:round;stroke:rgb(0%,0%,0%);stroke-opacity:1;stroke-miterlimit:10;" d="M 359.085938 196.570312 L 359.652344 195.515625 L 360.410156 194.59375 L 361.332031 193.835938 L 362.386719 193.269531 L 363.53125 192.925781 "/>
<path style="fill:none;stroke-width:0.708617;stroke-linecap:round;stroke-linejoin:round;stroke:rgb(0%,0%,0%);stroke-opacity:1;stroke-miterlimit:10;" d="M 359.652344 202.289062 L 360.410156 203.210938 L 361.332031 203.96875 "/>
<path style="fill:none;stroke-width:0.708617;stroke-linecap:round;stroke-linejoin:round;stroke:rgb(0%,0%,0%);stroke-opacity:1;stroke-miterlimit:10;" d="M 368.105469 203.96875 L 367.050781 204.535156 L 365.90625 204.878906 "/>
<path style="fill:none;stroke-width:0.708617;stroke-linecap:round;stroke-linejoin:round;stroke:rgb(0%,0%,0%);stroke-opacity:1;stroke-miterlimit:10;" d="M 365.90625 192.925781 L 367.050781 193.269531 L 368.105469 193.835938 L 369.027344 194.59375 L 369.785156 195.515625 "/>
</g>
</svg>
