<?xml version="1.0" encoding="utf-8"?>
<!-- Generator:SVG Export - SVG Version: 6.00 Build 1  -->
<!-- FXGUID: [87BA6AE3-E9C2-11E4-BB62-2AA6C0D2DCD6] SYMID: [14134]  -->
<svg xmlns="http://www.w3.org/2000/svg" version="1.1" ch_offset="0" color_bar_width="66" width="394.363" height="56.2845" origin_x="194.272" origin_y="16.4215" ch_offset_x="195.14394" ch_offset_y="40" color_offset_x="194.272" color_offset_y="-4">
  <g>
    <title>Layer 1</title>
    <g>
      <g>
        <polyline style="fill: gray;stroke: black;stroke-width: 1;" points="28.527 28.8254, 28.527 39.9557 28.527 39.9557, 27.533 39.9557 27.533 39.9557, 25.744 36.5768 25.744 36.5768, 22.366 36.5768 22.366 36.5768, 22.366 51.0858 22.366 51.0858, 25.744 51.0858 25.744 51.0858, 27.533 47.7069 27.533 47.7069, 28.527 47.7069 28.527 47.7069, 28.527 49.6945 28.527 49.6945, 31.707 49.6945 31.707 49.6945, 31.707 28.8254 31.707 28.8254, 28.527 28.8254"/>
      </g>
      <g>
        <polyline style="fill: gray;stroke: black;stroke-width: 1;" points="64.302 28.8254, 64.302 39.9557 64.302 39.9557, 65.296 39.9557 65.296 39.9557, 67.085 36.5768 67.085 36.5768, 70.464 36.5768 70.464 36.5768, 70.464 51.0858 70.464 51.0858, 67.085 51.0858 67.085 51.0858, 65.296 47.7069 65.296 47.7069, 64.302 47.7069 64.302 47.7069, 64.302 49.6945 64.302 49.6945, 61.122 49.6945 61.122 49.6945, 61.122 28.8254 61.122 28.8254, 64.302 28.8254"/>
      </g>
      <g>
        <polyline style="fill: gray;stroke: black;stroke-width: 1;" points="65.296 51.2845, 27.533 51.2845 27.533 51.2845, 27.533 36.3782 27.533 36.3782, 65.296 36.3782 65.296 36.3782, 65.296 51.2845"/>
      </g>
      <g>
        <polyline style="fill: gray;stroke: black;stroke-width: 1;" points="326.06 28.8254, 326.06 39.9557 326.06 39.9557, 325.066 39.9557 325.066 39.9557, 323.278 36.5768 323.278 36.5768, 319.899 36.5768 319.899 36.5768, 319.899 51.0858 319.899 51.0858, 323.278 51.0858 323.278 51.0858, 325.066 47.7069 325.066 47.7069, 326.06 47.7069 326.06 47.7069, 326.06 49.6945 326.06 49.6945, 329.24 49.6945 329.24 49.6945, 329.24 28.8254 329.24 28.8254, 326.06 28.8254"/>
      </g>
      <g>
        <polyline style="fill: gray;stroke: black;stroke-width: 1;" points="361.836 28.8254, 361.836 39.9557 361.836 39.9557, 362.829 39.9557 362.829 39.9557, 364.618 36.5768 364.618 36.5768, 367.997 36.5768 367.997 36.5768, 367.997 51.0858 367.997 51.0858, 364.618 51.0858 364.618 51.0858, 362.829 47.7069 362.829 47.7069, 361.836 47.7069 361.836 47.7069, 361.836 49.6945 361.836 49.6945, 358.656 49.6945 358.656 49.6945, 358.656 28.8254 358.656 28.8254, 361.836 28.8254"/>
      </g>
      <g>
        <polyline style="fill: gray;stroke: black;stroke-width: 1;" points="362.829 51.2845, 325.066 51.2845 325.066 51.2845, 325.066 36.3782 325.066 36.3782, 362.829 36.3782 362.829 36.3782, 362.829 51.2845"/>
      </g>
      <g>
        <polyline style="fill: gray;stroke: black;stroke-width: 1;" points="389.363 28.8254, 1 28.8254 1 28.8254, 1 1 1 1, 389.363 1 389.363 1, 389.363 28.8254"/>
      </g>
      <g>
        <polyline style="fill: gray;stroke: black;stroke-width: 1;" points="389.363 28.8254, 1 28.8254 1 28.8254, 1 6.1676 1 6.1676, 389.363 6.1676 389.363 6.1676, 389.363 28.8254"/>
      </g>
    </g>
  </g>
</svg>
