<?xml version="1.0" encoding="utf-8"?>
<!-- Generator: SVG Export - SVG Version: 6.00 Build 1  -->
<!-- FXGUID: [C0DBFFA6-9BFB-11EF-ACF3-42010A37C00E] SYMID: [20865]  -->
<svg xmlns="http://www.w3.org/2000/svg" version="1.1" ch_offset="0" color_bar_width="66" width="308.956456" height="236.07776" origin_x="149.540722" origin_y="66.363088" ch_offset_x="148.9928694" ch_offset_y="40" color_offset_x="149.540722" color_offset_y="-4">
  <g>
    <title>Layer 1</title>
    <g>
      <g>
        <polyline style="fill: gray;stroke: black;stroke-width: 1;" points="235.34624 143.762476, 238.688626 143.762476 238.688626 143.762476, 246.257826 143.762476 246.257826 143.762476, 254.366014 143.762476 254.366014 143.762476, 259.326888 143.762476 259.326888 143.762476, 261.81431 142.481046 261.81431 142.481046, 264.482326 139.266676 264.482326 139.266676, 266.610846 135.062214 266.610846 135.062214, 267.47978 130.812794 267.47978 130.812794, 267.47978 113.449608 267.47978 113.449608, 267.47978 80.394302 267.47978 80.394302, 267.47978 48.327818 267.47978 48.327818, 267.47978 33.932622 267.47978 33.932622, 272.63598 33.932622 272.63598 33.932622, 277.791672 33.932622 277.791672 33.932622, 282.94711 33.932622 282.94711 33.932622, 288.10331 33.932622 288.10331 33.932622, 290.141152 35.130994 290.141152 35.130994, 292.179756 36.330128 292.179756 36.330128, 294.217852 37.529262 294.217852 37.529262, 296.256456 38.728396 296.256456 38.728396, 296.256456 76.97724 296.256456 76.97724, 296.256456 115.226084 296.256456 115.226084, 296.256456 153.474166 296.256456 153.474166, 296.256456 191.72301 296.256456 191.72301, 292.299136 197.118732 292.299136 197.118732, 288.342832 202.514708 288.342832 202.514708, 284.386528 207.909668 284.386528 207.909668, 280.429462 213.30539 280.429462 213.30539, 278.511 213.30539 278.511 213.30539, 276.592538 213.30539 276.592538 213.30539, 274.674076 213.30539 274.674076 213.30539, 272.756376 213.30539 272.756376 213.30539, 272.756376 215.823038 272.756376 215.823038, 272.756376 218.341702 272.756376 218.341702, 272.756376 220.85935 272.756376 220.85935, 272.756376 223.37776 272.756376 223.37776, 268.919198 223.37776 268.919198 223.37776, 265.082274 223.37776 265.082274 223.37776, 261.24535 223.37776 261.24535 223.37776, 257.408426 223.37776 257.408426 223.37776, 256.213102 220.85935 256.213102 220.85935, 255.017778 218.341702 255.017778 218.341702, 253.822454 215.823038 253.822454 215.823038, 252.62713 213.30539 252.62713 213.30539, 243.391436 213.30539 243.391436 213.30539, 234.154726 213.30539 234.154726 213.30539, 224.918778 213.30539 224.918778 213.30539, 215.682322 213.30539 215.682322 213.30539, 182.709058 213.30539 182.709058 213.30539, 149.736556 213.30539 149.736556 213.30539, 116.763546 213.30539 116.763546 213.30539, 83.790282 213.30539 83.790282 213.30539, 74.554334 213.30539 74.554334 213.30539, 65.318386 213.30539 65.318386 213.30539, 56.082692 213.30539 56.082692 213.30539, 46.846744 213.30539 46.846744 213.30539, 45.650658 215.823038 45.650658 215.823038, 44.455334 218.341702 44.455334 218.341702, 43.260264 220.85935 43.260264 220.85935, 42.06494 223.37776 42.06494 223.37776, 38.228016 223.37776 38.228016 223.37776, 34.390838 223.37776 34.390838 223.37776, 30.553914 223.37776 30.553914 223.37776, 26.71699 223.37776 26.71699 223.37776, 26.71699 220.85935 26.71699 220.85935, 26.71699 218.341702 26.71699 218.341702, 26.71699 215.823038 26.71699 215.823038, 26.71699 213.30539 26.71699 213.30539, 24.798528 213.30539 24.798528 213.30539, 22.880066 213.30539 22.880066 213.30539, 20.962366 213.30539 20.962366 213.30539, 19.043904 213.30539 19.043904 213.30539, 15.086584 207.909668 15.086584 207.909668, 11.129518 202.514708 11.129518 202.514708, 7.173214 197.118732 7.173214 197.118732, 3.216148 191.72301 3.216148 191.72301, 3.216148 153.474166 3.216148 153.474166, 3.216148 115.226084 3.216148 115.226084, 3.216148 76.97724 3.216148 76.97724, 3.216148 38.728396 3.216148 38.728396, 5.254752 37.529262 5.254752 37.529262, 7.293356 36.330128 7.293356 36.330128, 9.331198 35.130994 9.331198 35.130994, 11.369802 33.932622 11.369802 33.932622, 16.52524 33.932622 16.52524 33.932622, 21.681694 33.932622 21.681694 33.932622, 26.837132 33.932622 26.837132 33.932622, 31.99257 33.932622 31.99257 33.932622, 31.99257 48.327818 31.99257 48.327818, 31.99257 80.394302 31.99257 80.394302, 31.99257 113.449608 31.99257 113.449608, 31.99257 130.812794 31.99257 130.812794, 32.862266 135.062214 32.862266 135.062214, 34.990024 139.266676 34.990024 139.266676, 37.658294 142.481046 37.658294 142.481046, 40.146478 143.762476 40.146478 143.762476, 45.107352 143.762476 45.107352 143.762476, 53.215286 143.762476 53.215286 143.762476, 60.78474 143.762476 60.78474 143.762476, 64.126364 143.762476 64.126364 143.762476, 106.93146 143.762476 106.93146 143.762476, 149.736556 143.762476 149.736556 143.762476, 192.541652 143.762476 192.541652 143.762476, 235.34624 143.762476 235.34624 143.762476, 235.34624 143.762476"/>
      </g>
      <g>
        <polyline style="fill: gray;stroke: black;stroke-width: 1;" points="235.34624 143.762476, 238.688626 143.762476 238.688626 143.762476, 246.257826 143.762476 246.257826 143.762476, 254.366014 143.762476 254.366014 143.762476, 259.326888 143.762476 259.326888 143.762476, 261.81431 142.481046 261.81431 142.481046, 264.482326 139.266676 264.482326 139.266676, 266.610846 135.062214 266.610846 135.062214, 267.47978 130.812794 267.47978 130.812794, 267.47978 113.449608 267.47978 113.449608, 267.47978 80.394302 267.47978 80.394302, 267.47978 48.327818 267.47978 48.327818, 267.47978 33.932622 267.47978 33.932622, 272.63598 33.932622 272.63598 33.932622, 277.791672 33.932622 277.791672 33.932622, 282.94711 33.932622 282.94711 33.932622, 288.10331 33.932622 288.10331 33.932622, 290.141152 35.130994 290.141152 35.130994, 292.179756 36.330128 292.179756 36.330128, 294.217852 37.529262 294.217852 37.529262, 296.256456 38.728396 296.256456 38.728396, 296.256456 76.97724 296.256456 76.97724, 296.256456 115.226084 296.256456 115.226084, 296.256456 153.474166 296.256456 153.474166, 296.256456 191.72301 296.256456 191.72301, 292.299136 197.118732 292.299136 197.118732, 288.342832 202.514708 288.342832 202.514708, 284.386528 207.909668 284.386528 207.909668, 280.429462 213.30539 280.429462 213.30539, 278.511 213.30539 278.511 213.30539, 276.592538 213.30539 276.592538 213.30539, 274.674076 213.30539 274.674076 213.30539, 272.756376 213.30539 272.756376 213.30539, 272.756376 215.823038 272.756376 215.823038, 272.756376 218.341702 272.756376 218.341702, 272.756376 220.85935 272.756376 220.85935, 272.756376 223.37776 272.756376 223.37776, 268.919198 223.37776 268.919198 223.37776, 265.082274 223.37776 265.082274 223.37776, 261.24535 223.37776 261.24535 223.37776, 257.408426 223.37776 257.408426 223.37776, 256.213102 220.85935 256.213102 220.85935, 255.017778 218.341702 255.017778 218.341702, 253.822454 215.823038 253.822454 215.823038, 252.62713 213.30539 252.62713 213.30539, 243.391436 213.30539 243.391436 213.30539, 234.154726 213.30539 234.154726 213.30539, 224.918778 213.30539 224.918778 213.30539, 215.682322 213.30539 215.682322 213.30539, 182.709058 213.30539 182.709058 213.30539, 149.736556 213.30539 149.736556 213.30539, 116.763546 213.30539 116.763546 213.30539, 83.790282 213.30539 83.790282 213.30539, 74.554334 213.30539 74.554334 213.30539, 65.318386 213.30539 65.318386 213.30539, 56.082692 213.30539 56.082692 213.30539, 46.846744 213.30539 46.846744 213.30539, 45.650658 215.823038 45.650658 215.823038, 44.455334 218.341702 44.455334 218.341702, 43.260264 220.85935 43.260264 220.85935, 42.06494 223.37776 42.06494 223.37776, 38.228016 223.37776 38.228016 223.37776, 34.390838 223.37776 34.390838 223.37776, 30.553914 223.37776 30.553914 223.37776, 26.71699 223.37776 26.71699 223.37776, 26.71699 220.85935 26.71699 220.85935, 26.71699 218.341702 26.71699 218.341702, 26.71699 215.823038 26.71699 215.823038, 26.71699 213.30539 26.71699 213.30539, 24.798528 213.30539 24.798528 213.30539, 22.880066 213.30539 22.880066 213.30539, 20.962366 213.30539 20.962366 213.30539, 19.043904 213.30539 19.043904 213.30539, 15.086584 207.909668 15.086584 207.909668, 11.129518 202.514708 11.129518 202.514708, 7.173214 197.118732 7.173214 197.118732, 3.216148 191.72301 3.216148 191.72301, 3.216148 153.474166 3.216148 153.474166, 3.216148 115.226084 3.216148 115.226084, 3.216148 76.97724 3.216148 76.97724, 3.216148 38.728396 3.216148 38.728396, 5.254752 37.529262 5.254752 37.529262, 7.293356 36.330128 7.293356 36.330128, 9.331198 35.130994 9.331198 35.130994, 11.369802 33.932622 11.369802 33.932622, 16.52524 33.932622 16.52524 33.932622, 21.681694 33.932622 21.681694 33.932622, 26.837132 33.932622 26.837132 33.932622, 31.99257 33.932622 31.99257 33.932622, 31.99257 48.327818 31.99257 48.327818, 31.99257 80.394302 31.99257 80.394302, 31.99257 113.449608 31.99257 113.449608, 31.99257 130.812794 31.99257 130.812794, 32.862266 135.062214 32.862266 135.062214, 34.990024 139.266676 34.990024 139.266676, 37.658294 142.481046 37.658294 142.481046, 40.146478 143.762476 40.146478 143.762476, 45.107352 143.762476 45.107352 143.762476, 53.215286 143.762476 53.215286 143.762476, 60.78474 143.762476 60.78474 143.762476, 64.126364 143.762476 64.126364 143.762476, 106.93146 143.762476 106.93146 143.762476, 149.736556 143.762476 149.736556 143.762476, 192.541652 143.762476 192.541652 143.762476, 235.34624 143.762476 235.34624 143.762476, 235.34624 143.762476"/>
      </g>
      <g>
        <polyline style="fill: transparent;stroke: black;stroke-width: 1;" points="267.47978 70.86219, 274.674076 70.86219 274.674076 70.86219, 281.868118 70.86219 281.868118 70.86219, 289.06216 70.86219 289.06216 70.86219, 296.256456 70.86219"/>
      </g>
      <g>
        <polyline style="fill: transparent;stroke: black;stroke-width: 1;" points="281.868118 33.932622, 281.868118 61.26988 281.868118 61.26988, 281.868118 88.607646 281.868118 88.607646, 281.868118 115.94465 281.868118 115.94465, 281.868118 143.28267 281.868118 143.28267, 278.270716 147.5994 278.270716 147.5994, 274.674076 151.91613 274.674076 151.91613, 271.077182 156.232098 271.077182 156.232098, 267.47978 160.549082 267.47978 160.549082, 258.127754 160.549082 258.127754 160.549082, 248.775474 160.549082 248.775474 160.549082, 239.422686 160.549082 239.422686 160.549082, 230.070406 160.549082 230.070406 160.549082, 189.903862 160.549082 189.903862 160.549082, 149.736556 160.549082 149.736556 160.549082, 109.56925 160.549082 109.56925 160.549082, 69.401944 160.549082 69.401944 160.549082, 60.049918 160.549082 60.049918 160.549082, 50.697638 160.549082 50.697638 160.549082, 41.345612 160.549082 41.345612 160.549082, 31.99257 160.549082 31.99257 160.549082, 28.39593 156.232098 28.39593 156.232098, 24.798528 151.91613 24.798528 151.91613, 21.201888 147.5994 21.201888 147.5994, 17.604232 143.28267 17.604232 143.28267, 17.604232 115.94465 17.604232 115.94465, 17.604232 88.607646 17.604232 88.607646, 17.604232 61.26988 17.604232 61.26988, 17.604232 33.932622"/>
      </g>
      <g>
        <polyline style="fill: transparent;stroke: black;stroke-width: 1;" points="281.868118 33.932622, 281.868118 61.26988 281.868118 61.26988, 281.868118 88.607646 281.868118 88.607646, 281.868118 115.94465 281.868118 115.94465, 281.868118 143.28267 281.868118 143.28267, 278.270716 147.5994 278.270716 147.5994, 274.674076 151.91613 274.674076 151.91613, 271.077182 156.232098 271.077182 156.232098, 267.47978 160.549082 267.47978 160.549082, 258.127754 160.549082 258.127754 160.549082, 248.775474 160.549082 248.775474 160.549082, 239.422686 160.549082 239.422686 160.549082, 230.070406 160.549082 230.070406 160.549082, 189.903862 160.549082 189.903862 160.549082, 149.736556 160.549082 149.736556 160.549082, 109.56925 160.549082 109.56925 160.549082, 69.401944 160.549082 69.401944 160.549082, 60.049918 160.549082 60.049918 160.549082, 50.697638 160.549082 50.697638 160.549082, 41.345612 160.549082 41.345612 160.549082, 31.99257 160.549082 31.99257 160.549082, 28.39593 156.232098 28.39593 156.232098, 24.798528 151.91613 24.798528 151.91613, 21.201888 147.5994 21.201888 147.5994, 17.604232 143.28267 17.604232 143.28267, 17.604232 115.94465 17.604232 115.94465, 17.604232 88.607646 17.604232 88.607646, 17.604232 61.26988 17.604232 61.26988, 17.604232 33.932622"/>
      </g>
      <g>
        <polyline style="fill: transparent;stroke: black;stroke-width: 1;" points="3.216148 70.86219, 10.41019 70.86219 10.41019 70.86219, 17.604232 70.86219 17.604232 70.86219, 24.798528 70.86219 24.798528 70.86219, 31.99257 70.86219"/>
      </g>
      <g>
        <polyline style="fill: transparent;stroke: black;stroke-width: 1;" points="3.216148 70.86219, 10.41019 70.86219 10.41019 70.86219, 17.604232 70.86219 17.604232 70.86219, 24.798528 70.86219 24.798528 70.86219, 31.99257 70.86219"/>
      </g>
      <g>
        <polyline style="fill: transparent;stroke: black;stroke-width: 1;" points="267.47978 70.86219, 274.674076 70.86219 274.674076 70.86219, 281.868118 70.86219 281.868118 70.86219, 289.06216 70.86219 289.06216 70.86219, 296.256456 70.86219"/>
      </g>
      <g>
        <polyline style="fill: gray;stroke: black;stroke-width: 1;" points="267.47978 80.454754, 266.904724 80.454754 266.904724 80.454754, 266.328652 80.454754 266.328652 80.454754, 265.752834 80.454754 265.752834 80.454754, 265.177524 80.454754 265.177524 80.454754, 265.177524 73.620122 265.177524 73.620122, 265.177524 66.785744 265.177524 66.785744, 265.177524 59.951366 265.177524 59.951366, 265.177524 53.116734 265.177524 53.116734, 265.752834 53.116734 265.752834 53.116734, 266.328652 53.116734 266.328652 53.116734, 266.904724 53.116734 266.904724 53.116734, 267.47978 53.116734 267.47978 53.116734, 267.47978 59.951366 267.47978 59.951366, 267.47978 66.785744 267.47978 66.785744, 267.47978 73.620122 267.47978 73.620122, 267.47978 80.454754 267.47978 80.454754, 267.47978 80.454754"/>
      </g>
      <g>
        <polyline style="fill: gray;stroke: black;stroke-width: 1;" points="34.295588 80.454754, 33.71977 80.454754 33.71977 80.454754, 33.143698 80.454754 33.143698 80.454754, 32.568642 80.454754 32.568642 80.454754, 31.99257 80.454754 31.99257 80.454754, 31.99257 73.620122 31.99257 73.620122, 31.99257 66.785744 31.99257 66.785744, 31.99257 59.951366 31.99257 59.951366, 31.99257 53.116734 31.99257 53.116734, 32.568642 53.116734 32.568642 53.116734, 33.143698 53.116734 33.143698 53.116734, 33.71977 53.116734 33.71977 53.116734, 34.295588 53.116734 34.295588 53.116734, 34.295588 59.951366 34.295588 59.951366, 34.295588 66.785744 34.295588 66.785744, 34.295588 73.620122 34.295588 73.620122, 34.295588 80.454754 34.295588 80.454754, 34.295588 80.454754"/>
      </g>
      <g>
        <polyline style="fill: gray;stroke: black;stroke-width: 1;" points="267.47978 80.454754, 266.904724 80.454754 266.904724 80.454754, 266.328652 80.454754 266.328652 80.454754, 265.752834 80.454754 265.752834 80.454754, 265.177524 80.454754 265.177524 80.454754, 265.177524 73.620122 265.177524 73.620122, 265.177524 66.785744 265.177524 66.785744, 265.177524 59.951366 265.177524 59.951366, 265.177524 53.116734 265.177524 53.116734, 265.752834 53.116734 265.752834 53.116734, 266.328652 53.116734 266.328652 53.116734, 266.904724 53.116734 266.904724 53.116734, 267.47978 53.116734 267.47978 53.116734, 267.47978 59.951366 267.47978 59.951366, 267.47978 66.785744 267.47978 66.785744, 267.47978 73.620122 267.47978 73.620122, 267.47978 80.454754 267.47978 80.454754, 267.47978 80.454754"/>
      </g>
      <g>
        <polyline style="fill: gray;stroke: black;stroke-width: 1;" points="34.295588 80.454754, 33.71977 80.454754 33.71977 80.454754, 33.143698 80.454754 33.143698 80.454754, 32.568642 80.454754 32.568642 80.454754, 31.99257 80.454754 31.99257 80.454754, 31.99257 73.620122 31.99257 73.620122, 31.99257 66.785744 31.99257 66.785744, 31.99257 59.951366 31.99257 59.951366, 31.99257 53.116734 31.99257 53.116734, 32.568642 53.116734 32.568642 53.116734, 33.143698 53.116734 33.143698 53.116734, 33.71977 53.116734 33.71977 53.116734, 34.295588 53.116734 34.295588 53.116734, 34.295588 59.951366 34.295588 59.951366, 34.295588 66.785744 34.295588 66.785744, 34.295588 73.620122 34.295588 73.620122, 34.295588 80.454754 34.295588 80.454754, 34.295588 80.454754"/>
      </g>
      <g>
        <polyline style="fill: gray;stroke: black;stroke-width: 1;" points="260.6802 90.30081, 205.085188 90.30081 205.085188 90.30081, 149.489922 90.30081 149.489922 90.30081, 93.89491 90.30081 93.89491 90.30081, 38.299898 90.30081 38.299898 90.30081, 38.299898 78.71079 38.299898 78.71079, 38.299898 67.120008 38.299898 67.120008, 38.299898 55.529988 38.299898 55.529988, 38.299898 43.939206 38.299898 43.939206, 93.89491 43.939206 93.89491 43.939206, 149.489922 43.939206 149.489922 43.939206, 205.085188 43.939206 205.085188 43.939206, 260.6802 43.939206 260.6802 43.939206, 260.6802 55.529988 260.6802 55.529988, 260.6802 67.120008 260.6802 67.120008, 260.6802 78.71079 260.6802 78.71079, 260.6802 90.30081 260.6802 90.30081, 260.6802 90.30081"/>
      </g>
      <g>
        <polyline style="fill: gray;stroke: black;stroke-width: 1;" points="38.299898 72.077072, 37.237162 72.077072 37.237162 72.077072, 36.174426 72.077072 36.174426 72.077072, 35.11169 72.077072 35.11169 72.077072, 34.048954 72.077072 34.048954 72.077072, 34.048954 69.119242 34.048954 69.119242, 34.048954 66.161158 34.048954 66.161158, 34.048954 63.20409 34.048954 63.20409, 34.048954 60.246006 34.048954 60.246006, 35.11169 60.246006 35.11169 60.246006, 36.174426 60.246006 36.174426 60.246006, 37.237162 60.246006 37.237162 60.246006, 38.299898 60.246006 38.299898 60.246006, 38.299898 63.20409 38.299898 63.20409, 38.299898 66.161158 38.299898 66.161158, 38.299898 69.119242 38.299898 69.119242, 38.299898 72.077072 38.299898 72.077072, 38.299898 72.077072"/>
      </g>
      <g>
        <polyline style="fill: gray;stroke: black;stroke-width: 1;" points="264.931144 72.077072, 263.868408 72.077072 263.868408 72.077072, 262.805672 72.077072 262.805672 72.077072, 261.742936 72.077072 261.742936 72.077072, 260.6802 72.077072 260.6802 72.077072, 260.6802 69.119242 260.6802 69.119242, 260.6802 66.161158 260.6802 66.161158, 260.6802 63.20409 260.6802 63.20409, 260.6802 60.246006 260.6802 60.246006, 261.742936 60.246006 261.742936 60.246006, 262.805672 60.246006 262.805672 60.246006, 263.868408 60.246006 263.868408 60.246006, 264.931144 60.246006 264.931144 60.246006, 264.931144 63.20409 264.931144 63.20409, 264.931144 66.161158 264.931144 66.161158, 264.931144 69.119242 264.931144 69.119242, 264.931144 72.077072 264.931144 72.077072, 264.931144 72.077072"/>
      </g>
      <g>
        <polyline style="fill: gray;stroke: black;stroke-width: 1;" points="260.6802 90.30081, 205.085188 90.30081 205.085188 90.30081, 149.489922 90.30081 149.489922 90.30081, 93.89491 90.30081 93.89491 90.30081, 38.299898 90.30081 38.299898 90.30081, 38.299898 78.71079 38.299898 78.71079, 38.299898 67.120008 38.299898 67.120008, 38.299898 55.529988 38.299898 55.529988, 38.299898 43.939206 38.299898 43.939206, 93.89491 43.939206 93.89491 43.939206, 149.489922 43.939206 149.489922 43.939206, 205.085188 43.939206 205.085188 43.939206, 260.6802 43.939206 260.6802 43.939206, 260.6802 55.529988 260.6802 55.529988, 260.6802 67.120008 260.6802 67.120008, 260.6802 78.71079 260.6802 78.71079, 260.6802 90.30081 260.6802 90.30081, 260.6802 90.30081"/>
      </g>
      <g>
        <polyline style="fill: gray;stroke: black;stroke-width: 1;" points="38.299898 72.077072, 37.237162 72.077072 37.237162 72.077072, 36.174426 72.077072 36.174426 72.077072, 35.11169 72.077072 35.11169 72.077072, 34.048954 72.077072 34.048954 72.077072, 34.048954 69.119242 34.048954 69.119242, 34.048954 66.161158 34.048954 66.161158, 34.048954 63.20409 34.048954 63.20409, 34.048954 60.246006 34.048954 60.246006, 35.11169 60.246006 35.11169 60.246006, 36.174426 60.246006 36.174426 60.246006, 37.237162 60.246006 37.237162 60.246006, 38.299898 60.246006 38.299898 60.246006, 38.299898 63.20409 38.299898 63.20409, 38.299898 66.161158 38.299898 66.161158, 38.299898 69.119242 38.299898 69.119242, 38.299898 72.077072 38.299898 72.077072, 38.299898 72.077072"/>
      </g>
      <g>
        <polyline style="fill: gray;stroke: black;stroke-width: 1;" points="264.931144 72.077072, 263.868408 72.077072 263.868408 72.077072, 262.805672 72.077072 262.805672 72.077072, 261.742936 72.077072 261.742936 72.077072, 260.6802 72.077072 260.6802 72.077072, 260.6802 69.119242 260.6802 69.119242, 260.6802 66.161158 260.6802 66.161158, 260.6802 63.20409 260.6802 63.20409, 260.6802 60.246006 260.6802 60.246006, 261.742936 60.246006 261.742936 60.246006, 262.805672 60.246006 262.805672 60.246006, 263.868408 60.246006 263.868408 60.246006, 264.931144 60.246006 264.931144 60.246006, 264.931144 63.20409 264.931144 63.20409, 264.931144 66.161158 264.931144 66.161158, 264.931144 69.119242 264.931144 69.119242, 264.931144 72.077072 264.931144 72.077072, 264.931144 72.077072"/>
      </g>
      <g>
        <polyline style="fill: gray;stroke: black;stroke-width: 1;" points="245.701058 2.54, 257.69189 2.54 257.69189 2.54, 269.68196 2.54 269.68196 2.54, 281.671776 2.54 281.671776 2.54, 293.661846 2.54 293.661846 2.54, 293.661846 3.499612 293.661846 3.499612, 293.661846 4.458462 293.661846 4.458462, 293.661846 5.418074 293.661846 5.418074, 293.661846 6.376924 293.661846 6.376924, 294.141652 6.85673 294.141652 6.85673, 294.621458 7.335774 294.621458 7.335774, 295.100502 7.81558 295.100502 7.81558, 295.580308 8.295386 295.580308 8.295386, 295.580308 13.211302 295.580308 13.211302, 295.580308 18.127218 295.580308 18.127218, 295.580308 23.043388 295.580308 23.043388, 295.580308 27.959304 295.580308 27.959304, 292.79215 27.959304 292.79215 27.959304, 286.228028 27.959304 286.228028 27.959304, 278.584406 27.959304 278.584406 27.959304, 272.559272 27.959304 272.559272 27.959304, 268.227556 28.04922 268.227556 28.04922, 264.165842 29.038296 264.165842 29.038296, 260.823456 32.006286 260.823456 32.006286, 258.65074 38.030658 258.65074 38.030658, 255.668018 51.999642 255.668018 51.999642, 250.976892 72.442578 250.976892 72.442578, 246.645176 90.907362 246.645176 90.907362, 244.742208 98.941128 244.742208 98.941128, 241.264948 98.941128 241.264948 98.941128, 237.787688 98.941128 237.787688 98.941128, 234.310428 98.941128 234.310428 98.941128, 230.83393 98.941128 230.83393 98.941128, 189.947296 98.941128 189.947296 98.941128, 149.060408 98.941128 149.060408 98.941128, 108.173774 98.941128 108.173774 98.941128, 67.28714 98.941128 67.28714 98.941128, 63.80988 98.941128 63.80988 98.941128, 60.333382 98.941128 60.333382 98.941128, 56.856122 98.941128 56.856122 98.941128, 53.378862 98.941128 53.378862 98.941128, 51.474878 90.907362 51.474878 90.907362, 47.144178 72.442578 47.144178 72.442578, 42.45229 51.999642 42.45229 51.999642, 39.47033 38.030658 39.47033 38.030658, 37.296852 32.006286 37.296852 32.006286, 33.955228 29.038296 33.955228 29.038296, 29.89326 28.04922 29.89326 28.04922, 25.561036 27.959304 25.561036 27.959304, 19.536664 27.959304 19.536664 27.959304, 11.892788 27.959304 11.892788 27.959304, 5.328158 27.959304 5.328158 27.959304, 2.54 27.959304 2.54 27.959304, 2.54 23.043388 2.54 23.043388, 2.54 18.127218 2.54 18.127218, 2.54 13.211302 2.54 13.211302, 2.54 8.295386 2.54 8.295386, 3.019806 7.81558 3.019806 7.81558, 3.499612 7.335774 3.499612 7.335774, 3.979418 6.85673 3.979418 6.85673, 4.458462 6.376924 4.458462 6.376924, 4.458462 5.418074 4.458462 5.418074, 4.458462 4.458462 4.458462 4.458462, 4.458462 3.499612 4.458462 3.499612, 4.458462 2.54 4.458462 2.54, 16.449294 2.54 16.449294 2.54, 28.43911 2.54 28.43911 2.54, 40.42918 2.54 40.42918 2.54, 52.418996 2.54 52.418996 2.54, 100.74021 2.54 100.74021 2.54, 149.060408 2.54 149.060408 2.54, 197.38086 2.54 197.38086 2.54, 245.701058 2.54 245.701058 2.54, 245.701058 2.54"/>
      </g>
      <g>
        <polyline style="fill: transparent;stroke: black;stroke-width: 1;" points="33.61944 28.90266, 90.680286 28.90266 90.680286 28.90266, 147.741132 28.90266 147.741132 28.90266, 204.80274 28.90266 204.80274 28.90266, 261.86384 28.90266"/>
      </g>
      <g>
        <polyline style="fill: transparent;stroke: black;stroke-width: 1;" points="51.795172 92.260928, 100.361242 92.260928 100.361242 92.260928, 148.928074 92.260928 148.928074 92.260928, 197.49389 92.260928 197.49389 92.260928, 246.060722 92.260928"/>
      </g>
      <g>
        <polyline style="fill: transparent;stroke: black;stroke-width: 1;" points="33.61944 28.90266, 90.680286 28.90266 90.680286 28.90266, 147.741132 28.90266 147.741132 28.90266, 204.80274 28.90266 204.80274 28.90266, 261.86384 28.90266"/>
      </g>
      <g>
        <polyline style="fill: transparent;stroke: black;stroke-width: 1;" points="2.54 15.489428, 75.800712 15.489428 75.800712 15.489428, 149.060408 15.489428 149.060408 15.489428, 222.320358 15.489428 222.320358 15.489428, 295.580308 15.489428"/>
      </g>
      <g>
        <polyline style="fill: transparent;stroke: black;stroke-width: 1;" points="2.54 15.489428, 75.800712 15.489428 75.800712 15.489428, 149.060408 15.489428 149.060408 15.489428, 222.320358 15.489428 222.320358 15.489428, 295.580308 15.489428"/>
      </g>
      <g>
        <polyline style="fill: transparent;stroke: black;stroke-width: 1;" points="46.170596 68.2498, 97.550478 68.2498 97.550478 68.2498, 148.931122 68.2498 148.931122 68.2498, 200.311004 68.2498 200.311004 68.2498, 251.690632 68.2498"/>
      </g>
      <g>
        <polyline style="fill: transparent;stroke: black;stroke-width: 1;" points="51.795172 92.260928, 100.361242 92.260928 100.361242 92.260928, 148.928074 92.260928 148.928074 92.260928, 197.49389 92.260928 197.49389 92.260928, 246.060722 92.260928"/>
      </g>
      <g>
        <polyline style="fill: transparent;stroke: black;stroke-width: 1;" points="46.170596 68.2498, 97.550478 68.2498 97.550478 68.2498, 148.931122 68.2498 148.931122 68.2498, 200.311004 68.2498 200.311004 68.2498, 251.690632 68.2498"/>
      </g>
      <g>
        <polyline style="fill: gray;stroke: black;stroke-width: 1;" points="245.701058 2.54, 257.69189 2.54 257.69189 2.54, 269.68196 2.54 269.68196 2.54, 281.671776 2.54 281.671776 2.54, 293.661846 2.54 293.661846 2.54, 293.661846 3.499612 293.661846 3.499612, 293.661846 4.458462 293.661846 4.458462, 293.661846 5.418074 293.661846 5.418074, 293.661846 6.376924 293.661846 6.376924, 294.141652 6.85673 294.141652 6.85673, 294.621458 7.335774 294.621458 7.335774, 295.100502 7.81558 295.100502 7.81558, 295.580308 8.295386 295.580308 8.295386, 295.580308 13.211302 295.580308 13.211302, 295.580308 18.127218 295.580308 18.127218, 295.580308 23.043388 295.580308 23.043388, 295.580308 27.959304 295.580308 27.959304, 292.79215 27.959304 292.79215 27.959304, 286.228028 27.959304 286.228028 27.959304, 278.584406 27.959304 278.584406 27.959304, 272.559272 27.959304 272.559272 27.959304, 268.227556 28.04922 268.227556 28.04922, 264.165842 29.038296 264.165842 29.038296, 260.823456 32.006286 260.823456 32.006286, 258.65074 38.030658 258.65074 38.030658, 255.668018 51.999642 255.668018 51.999642, 250.976892 72.442578 250.976892 72.442578, 246.645176 90.907362 246.645176 90.907362, 244.742208 98.941128 244.742208 98.941128, 241.264948 98.941128 241.264948 98.941128, 237.787688 98.941128 237.787688 98.941128, 234.310428 98.941128 234.310428 98.941128, 230.83393 98.941128 230.83393 98.941128, 189.947296 98.941128 189.947296 98.941128, 149.060408 98.941128 149.060408 98.941128, 108.173774 98.941128 108.173774 98.941128, 67.28714 98.941128 67.28714 98.941128, 63.80988 98.941128 63.80988 98.941128, 60.333382 98.941128 60.333382 98.941128, 56.856122 98.941128 56.856122 98.941128, 53.378862 98.941128 53.378862 98.941128, 51.474878 90.907362 51.474878 90.907362, 47.144178 72.442578 47.144178 72.442578, 42.45229 51.999642 42.45229 51.999642, 39.47033 38.030658 39.47033 38.030658, 37.296852 32.006286 37.296852 32.006286, 33.955228 29.038296 33.955228 29.038296, 29.89326 28.04922 29.89326 28.04922, 25.561036 27.959304 25.561036 27.959304, 19.536664 27.959304 19.536664 27.959304, 11.892788 27.959304 11.892788 27.959304, 5.328158 27.959304 5.328158 27.959304, 2.54 27.959304 2.54 27.959304, 2.54 23.043388 2.54 23.043388, 2.54 18.127218 2.54 18.127218, 2.54 13.211302 2.54 13.211302, 2.54 8.295386 2.54 8.295386, 3.019806 7.81558 3.019806 7.81558, 3.499612 7.335774 3.499612 7.335774, 3.979418 6.85673 3.979418 6.85673, 4.458462 6.376924 4.458462 6.376924, 4.458462 5.418074 4.458462 5.418074, 4.458462 4.458462 4.458462 4.458462, 4.458462 3.499612 4.458462 3.499612, 4.458462 2.54 4.458462 2.54, 16.449294 2.54 16.449294 2.54, 28.43911 2.54 28.43911 2.54, 40.42918 2.54 40.42918 2.54, 52.418996 2.54 52.418996 2.54, 100.74021 2.54 100.74021 2.54, 149.060408 2.54 149.060408 2.54, 197.38086 2.54 197.38086 2.54, 245.701058 2.54 245.701058 2.54, 245.701058 2.54"/>
      </g>
    </g>
  </g>
</svg>
