<?xml version="1.0" encoding="utf-8"?>
<!-- Generator: www.crescit.com, SVG Export - SVG Version: 6.00 Build 1  -->
<!-- FXGUID: [2B6C7328-792D-11EE-AD2D-525400685065] SYMID: [16331]  -->
<svg xmlns="http://www.w3.org/2000/svg" version="1.1" ch_offset="0" color_bar_width="66" width="375.920254" height="467.10854" origin_x="182.597298" origin_y="245.193058" ch_offset_x="183.1597556" ch_offset_y="40" color_offset_x="182.597298" color_offset_y="-4" fxtype_offset_x="184.0503812" fxtype_offset_y="493.346232" fxtype_offset_value="MForceSS">
  <g>
    <title>Layer 1</title>
    <g>
      <g>
        <polyline style="fill: gray;stroke: black;stroke-width: 1;" points="318.90589 135.379968, 318.90589 122.658378 318.90589 122.658378, 46.854364 122.658378 46.854364 122.658378, 46.854364 135.379968 46.854364 135.379968, 2.950718 168.247822 2.950718 168.247822, 2.950718 319.044066 2.950718 319.044066, 46.854364 351.912428 46.854364 351.912428, 46.854364 364.634272 46.854364 364.634272, 318.90589 364.634272 318.90589 364.634272, 318.90589 351.912428 318.90589 351.912428, 362.809536 319.044066 362.809536 319.044066, 362.809536 168.247822 362.809536 168.247822, 318.90589 135.379968"/>
      </g>
      <g>
        <polyline style="fill: gray;stroke: black;stroke-width: 1;" points="59.272932 331.6478, 50.492152 331.6478 50.492152 331.6478, 20.247356 312.563002 20.247356 312.563002, 20.247356 174.728886 20.247356 174.728886, 50.492152 155.644596 50.492152 155.644596, 59.272932 155.644596 59.272932 155.644596, 59.272932 331.6478"/>
      </g>
      <g>
        <polyline style="fill: gray;stroke: black;stroke-width: 1;" points="345.512898 312.563002, 315.268102 331.6478 315.268102 331.6478, 306.487322 331.6478 306.487322 331.6478, 306.487322 155.644596 306.487322 155.644596, 315.268102 155.644596 315.268102 155.644596, 345.512898 174.728886 345.512898 174.728886, 345.512898 312.563002"/>
      </g>
      <g>
        <polyline style="fill: gray;stroke: black;stroke-width: 1;" points="353.748848 183.895746, 273.402552 183.895746 273.402552 183.895746, 243.603526 170.124374 243.603526 170.124374, 122.156728 170.124374 122.156728 170.124374, 92.358464 183.895746 92.358464 183.895746, 12.011406 183.895746 12.011406 183.895746, 2.54 207.191864 2.54 207.191864, 2.54 280.100532 2.54 280.100532, 12.011406 303.39538 12.011406 303.39538, 92.358464 303.39538 92.358464 303.39538, 122.156728 317.16726 122.156728 317.16726, 243.603526 317.16726 243.603526 317.16726, 273.402552 303.39538 273.402552 303.39538, 353.748848 303.39538 353.748848 303.39538, 363.220254 280.100532 363.220254 280.100532, 363.220254 207.191864 363.220254 207.191864, 353.748848 183.895746"/>
      </g>
      <g>
        <polyline style="fill: gray;stroke: black;stroke-width: 1;" points="321.92595 259.36321, 314.875926 259.36321 314.875926 259.36321, 314.875926 227.92944 314.875926 227.92944, 321.92595 227.92944 321.92595 227.92944, 321.92595 259.36321"/>
      </g>
      <g>
        <polyline style="fill: gray;stroke: black;stroke-width: 1;" points="321.92595 303.39538, 353.748848 303.39538 353.748848 303.39538, 363.220254 280.100532 363.220254 280.100532, 363.220254 207.191864 363.220254 207.191864, 353.748848 183.895746 353.748848 183.895746, 321.92595 183.895746 321.92595 183.895746, 321.92595 303.39538"/>
      </g>
      <g>
        <polyline style="fill: gray;stroke: black;stroke-width: 1;" points="43.835066 259.36321, 50.88509 259.36321 50.88509 259.36321, 50.88509 227.92944 50.88509 227.92944, 43.835066 227.92944 43.835066 227.92944, 43.835066 259.36321"/>
      </g>
      <g>
        <polyline style="fill: gray;stroke: black;stroke-width: 1;" points="43.835066 303.39538, 12.011406 303.39538 12.011406 303.39538, 2.54 280.100532 2.54 280.100532, 2.54 207.191864 2.54 207.191864, 12.011406 183.895746 12.011406 183.895746, 43.835066 183.895746 43.835066 183.895746, 43.835066 303.39538"/>
      </g>
      <g>
        <polyline style="fill: gray;stroke: black;stroke-width: 1;" points="272.995644 454.40854, 284.424374 452.752968 284.424374 452.752968, 293.187374 444.655702 293.187374 444.655702, 314.875164 401.58162 314.875164 401.58162, 314.875164 195.965572 314.875164 195.965572, 302.161956 195.965572 302.161956 195.965572, 298.308776 161.854388 298.308776 161.854388, 288.065972 108.165392 288.065972 108.165392, 274.491704 47.239682 274.491704 47.239682, 261.778496 40.73779 261.778496 40.73779, 255.046988 2.54 255.046988 2.54, 110.712504 2.54 110.712504 2.54, 103.98252 40.73779 103.98252 40.73779, 91.26855 47.239682 91.26855 47.239682, 77.694282 108.165392 77.694282 108.165392, 67.451478 161.854388 67.451478 161.854388, 63.598298 195.965572 63.598298 195.965572, 50.88509 195.965572 50.88509 195.965572, 50.88509 401.58162 50.88509 401.58162, 72.572118 444.655702 72.572118 444.655702, 81.33588 452.752968 81.33588 452.752968, 92.76461 454.40854 92.76461 454.40854, 272.995644 454.40854 272.995644 454.40854, 272.995644 454.40854"/>
      </g>
      <g>
        <polyline style="fill: gray;stroke: black;stroke-width: 1;" points="262.85825 447.190368, 275.380704 445.426338 275.380704 445.426338, 285.29026 437.8452 285.29026 437.8452, 303.983644 394.777468 303.983644 394.777468, 292.01999 201.787506 292.01999 201.787506, 261.74573 40.082724 261.74573 40.082724, 248.57075 40.082724 248.57075 40.082724, 248.57075 54.70906 248.57075 54.70906, 117.189504 54.729126 117.189504 54.729126, 117.189504 40.102028 117.189504 40.102028, 104.01427 40.102028 104.01427 40.102028, 73.741026 201.807064 73.741026 201.807064, 61.77661 394.797534 61.77661 394.797534, 80.470756 437.864758 80.470756 437.864758, 90.37955 445.445642 90.37955 445.445642, 102.902766 447.209926 102.902766 447.209926, 262.85825 447.190368 262.85825 447.190368, 262.85825 447.190368"/>
      </g>
      <g>
        <polyline style="fill: gray;stroke: black;stroke-width: 1;" points="63.598298 195.965572, 50.88509 401.58162 50.88509 401.58162, 50.88509 195.965572 50.88509 195.965572, 63.598298 195.965572"/>
      </g>
      <g>
        <polyline style="fill: gray;stroke: black;stroke-width: 1;" points="302.161956 195.965572, 314.875164 401.58162 314.875164 401.58162, 314.875164 195.965572 314.875164 195.965572, 302.161956 195.965572"/>
      </g>
      <g>
        <polyline style="fill: gray;stroke: black;stroke-width: 1;" points="287.324038 325.0057, 278.848566 395.433804 278.848566 395.433804, 262.896858 429.02251 262.896858 429.02251, 102.63759 429.02251 102.63759 429.02251, 86.68512 395.433804 86.68512 395.433804, 78.21041 325.0057 78.21041 325.0057, 122.324114 286.833564 122.324114 286.833564, 173.14672 225.91395 173.14672 225.91395, 208.394046 162.29076 208.394046 162.29076, 223.278446 119.139208 223.278446 119.139208, 250.696984 100.178362 250.696984 100.178362, 267.147802 114.263424 267.147802 114.263424, 277.982934 189.58687 277.982934 189.58687, 286.004762 270.37411 286.004762 270.37411, 287.324038 325.0057 287.324038 325.0057, 287.324038 325.0057"/>
      </g>
      <g>
        <polyline style="fill: gray;stroke: black;stroke-width: 1;" points="134.794752 447.205862, 121.292366 447.205862 121.292366 447.205862, 121.292366 311.461404 121.292366 311.461404, 134.794752 311.461404 134.794752 311.461404, 134.794752 447.205862"/>
      </g>
      <g>
        <polyline style="fill: gray;stroke: black;stroke-width: 1;" points="162.213036 447.205862, 148.711666 447.205862 148.711666 447.205862, 148.711666 311.461404 148.711666 311.461404, 162.213036 311.461404 162.213036 311.461404, 162.213036 447.205862"/>
      </g>
      <g>
        <polyline style="fill: gray;stroke: black;stroke-width: 1;" points="189.630812 447.205862, 176.129442 447.205862 176.129442 447.205862, 176.129442 311.461404 176.129442 311.461404, 189.630812 311.461404 189.630812 311.461404, 189.630812 447.205862"/>
      </g>
      <g>
        <polyline style="fill: gray;stroke: black;stroke-width: 1;" points="217.04935 447.205862, 203.547726 447.205862 203.547726 447.205862, 203.547726 311.461404 203.547726 311.461404, 217.04935 311.461404 217.04935 311.461404, 217.04935 447.205862"/>
      </g>
      <g>
        <polyline style="fill: gray;stroke: black;stroke-width: 1;" points="244.467888 447.205862, 230.966264 447.205862 230.966264 447.205862, 230.966264 311.461404 230.966264 311.461404, 244.467888 311.461404 244.467888 311.461404, 244.467888 447.205862"/>
      </g>
    </g>
  </g>
</svg>
