<?xml version="1.0" encoding="utf-8"?>
<!-- Generator: www.crescit.com, SVG Export - SVG Version: 6.00 Build 1  -->
<!-- FXGUID: [33911D11-5D7D-11EC-A39F-525400685065] SYMID: [17567]  -->
<svg xmlns="http://www.w3.org/2000/svg" version="1.1" ch_offset="0" color_bar_width="66" width="1015.34468" height="288.239708" origin_x="464.7057" origin_y="197.78091" ch_offset_x="464.410425" ch_offset_y="40" color_offset_x="464.7057" color_offset_y="-4">
  <g>
    <title>Layer 1</title>
    <g>
      <g>
        <polyline style="fill: gray;stroke: black;stroke-width: 1;" points="2.59334 262.594598, 2.59334 131.508754 2.59334 131.508754, 1002.59134 131.507992 1002.59134 131.507992, 1002.59134 262.593836 1002.59134 262.593836, 2.59334 262.594598"/>
      </g>
      <g>
        <polyline style="fill: gray;stroke: black;stroke-width: 1;" points="1002.64468 249.593862, 985.94418 249.593862 985.94418 249.593862, 985.94418 144.508728 985.94418 144.508728, 1002.64468 144.508728 1002.64468 144.508728, 1002.64468 249.593862"/>
      </g>
      <g>
        <polyline style="fill: gray;stroke: black;stroke-width: 1;" points="985.94418 237.91545, 976.89924 237.91545 976.89924 237.91545, 976.89924 156.18714 976.89924 156.18714, 985.94418 156.18714 985.94418 156.18714, 985.94418 237.91545"/>
      </g>
      <g>
        <polyline style="fill: gray;stroke: black;stroke-width: 1;" points="2.54 249.593862, 19.2405 249.593862 19.2405 249.593862, 19.2405 144.508728 19.2405 144.508728, 2.54 144.508728 2.54 144.508728, 2.54 249.593862"/>
      </g>
      <g>
        <polyline style="fill: gray;stroke: black;stroke-width: 1;" points="19.2405 237.91545, 28.28544 237.91545 28.28544 237.91545, 28.28544 156.18714 28.28544 156.18714, 19.2405 156.18714 19.2405 156.18714, 19.2405 237.91545"/>
      </g>
      <g>
        <polyline style="fill: gray;stroke: black;stroke-width: 1;" points="1002.64468 2.54, 1002.64468 118.684802 1002.64468 118.684802, 976.89924 118.684802 976.89924 118.684802, 976.89924 275.539708 976.89924 275.539708, 28.28544 275.539708 28.28544 275.539708, 28.28544 118.684802 28.28544 118.684802, 2.54 118.684802 2.54 118.684802, 2.54 2.54 2.54 2.54, 1002.64468 2.54"/>
      </g>
      <g>
        <polyline style="fill: gray;stroke: black;stroke-width: 1;" points="976.89924 19.303238, 28.28544 19.303238 28.28544 19.303238, 28.28544 83.961478 28.28544 83.961478, 976.89924 83.961478 976.89924 83.961478, 976.89924 19.303238"/>
      </g>
      <g>
        <polyline style="fill: gray;stroke: black;stroke-width: 1;" points="1002.64468 118.684802, 976.89924 118.684802 976.89924 118.684802, 976.89924 2.54 976.89924 2.54, 1002.64468 2.54 1002.64468 2.54, 1002.64468 118.684802"/>
      </g>
      <g>
        <polyline style="fill: gray;stroke: black;stroke-width: 1;" points="2.54 2.54, 28.28544 2.54 28.28544 2.54, 28.28544 118.684802 28.28544 118.684802, 2.54 118.684802 2.54 118.684802, 2.54 2.54"/>
      </g>
    </g>
  </g>
</svg>
