<?xml version="1.0" encoding="utf-8"?>
<!-- Generator:SVG Export - SVG Version: 6.00 Build 1  -->
<!-- FXGUID: [75DB6B2B-C060-11E8-BBA9-525400685065] SYMID: [14137]  -->
<svg xmlns="http://www.w3.org/2000/svg" version="1.1" ch_offset="0" color_bar_width="66" width="1024.59028" height="336.228944" origin_x="507.34976" origin_y="130.875532" ch_offset_x="507.3497346" ch_offset_y="40" color_offset_x="507.34976" color_offset_y="-4">
  <g>
    <title>Layer 1</title>
    <g>
      <g>
        <polyline style="fill: gray;stroke: black;stroke-width: 1;" points="108.53928 323.528944, 38.96106 323.528944 38.96106 323.528944, 38.96106 86.96198 38.96106 86.96198, 108.53928 86.96198 108.53928 86.96198, 108.53928 323.528944"/>
      </g>
      <g>
        <polyline style="fill: gray;stroke: black;stroke-width: 1;" points="38.96106 283.243782, 25.6413 283.243782 25.6413 283.243782, 25.6413 300.697138 25.6413 300.697138, 12.32408 300.697138 12.32408 300.697138, 3.2435800000001 275.099272 3.2435800000001 275.099272, 3.2435800000001 249.500136 3.2435800000001 249.500136, 12.32408 223.901762 12.32408 223.901762, 25.6413 223.901762 25.6413 223.901762, 25.6413 241.355626 25.6413 241.355626, 38.96106 241.355626 38.96106 241.355626, 38.96106 283.243782"/>
      </g>
      <g>
        <polyline style="fill: gray;stroke: black;stroke-width: 1;" points="905.891 323.528944, 975.46922 323.528944 975.46922 323.528944, 975.46922 86.96198 975.46922 86.96198, 905.891 86.96198 905.891 86.96198, 905.891 323.528944"/>
      </g>
      <g>
        <polyline style="fill: gray;stroke: black;stroke-width: 1;" points="975.46922 283.243782, 988.78644 283.243782 988.78644 283.243782, 988.78644 300.697138 988.78644 300.697138, 1002.10366 300.697138 1002.10366 300.697138, 1011.18416 275.099272 1011.18416 275.099272, 1011.18416 249.500136 1011.18416 249.500136, 1002.10366 223.901762 1002.10366 223.901762, 988.78644 223.901762 988.78644 223.901762, 988.78644 241.355626 988.78644 241.355626, 975.46922 241.355626 975.46922 241.355626, 975.46922 283.243782"/>
      </g>
      <g>
        <polyline style="fill: gray;stroke: black;stroke-width: 1;" points="1011.89028 2.54, 2.54 2.54 2.54 2.54, 2.54 204.78115 2.54 204.78115, 215.9127 204.78115 215.9127 204.78115, 215.9127 270.649192 215.9127 270.649192, 798.51758 270.649192 798.51758 270.649192, 798.51758 204.78115 798.51758 204.78115, 1011.89028 204.78115 1011.89028 204.78115, 1011.89028 2.54"/>
      </g>
      <g>
        <polyline style="fill: gray;stroke: black;stroke-width: 1;" points="1011.89028 88.817704, 2.54 88.817704 2.54 88.817704, 2.54 69.335142 2.54 69.335142, 1011.89028 69.335142 1011.89028 69.335142, 1011.89028 88.817704"/>
      </g>
      <g>
        <polyline style="fill: gray;stroke: black;stroke-width: 1;" points="1011.89028 204.78115, 2.54 204.78115 2.54 204.78115, 2.54 136.130284 2.54 136.130284, 1011.89028 136.130284 1011.89028 136.130284, 1011.89028 204.78115"/>
      </g>
    </g>
  </g>
</svg>
