<?xml version="1.0" encoding="utf-8"?>
<!-- FXGUID: [64317B42-0CB8-11EC-917C-525400685065] SYMID: [18926]  -->
<svg xmlns="http://www.w3.org/2000/svg" version="1.1" ch_offset="0" color_bar_width="66" width="405.844248" height="349.46844" origin_x="197.842124" origin_y="180.358542" ch_offset_x="199.6663012" ch_offset_y="40" color_offset_x="197.842124" color_offset_y="-4">
  <g>
    <title>Layer 1</title>
    <g>
      <g>
        <polyline style="fill: transparent;stroke: black;stroke-width: 1;" points="330.796138 52.20462, 327.161398 49.617884 327.161398 49.617884, 317.150242 43.92676 317.150242 43.92676, 302.10633 38.235636 302.10633 38.235636, 283.370274 35.6489 283.370274 35.6489, 263.876028 34.949638 263.876028 34.949638, 245.1989 33.412684 245.1989 33.412684, 226.649026 31.874714 226.649026 31.874714, 207.531462 31.176468 207.531462 31.176468, 205.109064 31.176468 205.109064 31.176468, 202.686666 31.176468 202.686666 31.176468, 200.264522 31.176468 200.264522 31.176468, 197.842124 31.176468 197.842124 31.176468, 178.72456 31.874714 178.72456 31.874714, 160.174686 33.412684 160.174686 33.412684, 141.497558 34.949638 141.497558 34.949638, 122.003312 35.6489 122.003312 35.6489, 103.267256 38.235636 103.267256 38.235636, 88.223344 43.92676 88.223344 43.92676, 78.212188 49.617884 78.212188 49.617884, 74.577448 52.20462"/>
      </g>
      <g>
        <polyline style="fill: gray;stroke: black;stroke-width: 1;" points="29.833824 52.20462, 29.833824 49.151286 29.833824 49.151286, 29.833824 46.098714 29.833824 46.098714, 29.833824 43.04538 29.833824 43.04538, 29.833824 39.992808 29.833824 39.992808, 31.024322 40.851836 31.024322 40.851836, 34.20237 42.74312 34.20237 42.74312, 38.775132 44.633642 38.775132 44.633642, 44.150788 45.493178 44.150788 45.493178, 49.245012 44.860718 49.245012 44.860718, 53.197506 43.469306 53.197506 43.469306, 55.75554 42.077132 55.75554 42.077132, 56.663844 41.444672 56.663844 41.444672, 56.663844 44.135294 56.663844 44.135294, 56.663844 46.8249 56.663844 46.8249, 56.663844 49.51476 56.663844 49.51476, 56.663844 52.20462 56.663844 52.20462, 49.956466 52.20462 49.956466 52.20462, 43.249342 52.20462 43.249342 52.20462, 36.541202 52.20462 36.541202 52.20462, 29.833824 52.20462 29.833824 52.20462, 29.833824 52.20462"/>
      </g>
      <g>
        <polyline style="fill: gray;stroke: black;stroke-width: 1;" points="393.144248 336.768694, 295.49344 336.768694 295.49344 336.768694, 197.842124 336.768694 197.842124 336.768694, 100.190808 336.768694 100.190808 336.768694, 2.54 336.768694 2.54 336.768694, 2.54 265.627104 2.54 265.627104, 2.54 194.48653 2.54 194.48653, 2.54 123.345194 2.54 123.345194, 2.54 52.20462 2.54 52.20462, 100.190808 52.20462 100.190808 52.20462, 197.842124 52.20462 197.842124 52.20462, 295.49344 52.20462 295.49344 52.20462, 393.144248 52.20462 393.144248 52.20462, 393.144248 123.345194 393.144248 123.345194, 393.144248 194.48653 393.144248 194.48653, 393.144248 265.627104 393.144248 265.627104, 393.144248 336.768694 393.144248 336.768694, 393.144248 336.768694"/>
      </g>
      <g>
        <polyline style="fill: gray;stroke: black;stroke-width: 1;" points="65.627758 24.016208, 63.93942 32.375602 63.93942 32.375602, 59.336686 39.202106 59.336686 39.202106, 52.509928 43.805094 52.509928 43.805094, 44.150788 45.493178 44.150788 45.493178, 35.791648 43.805094 35.791648 43.805094, 28.96489 39.202106 28.96489 39.202106, 24.361902 32.375602 24.361902 32.375602, 22.67458 24.016208 22.67458 24.016208, 24.361902 15.657068 24.361902 15.657068, 28.96489 8.83031 28.96489 8.83031, 35.791648 4.227576 35.791648 4.227576, 44.150788 2.54 44.150788 2.54, 52.509928 4.227576 52.509928 4.227576, 59.336686 8.83031 59.336686 8.83031, 63.93942 15.657068 63.93942 15.657068, 65.627758 24.016208 65.627758 24.016208, 65.627758 24.016208"/>
      </g>
      <g>
        <polyline style="fill: transparent;stroke: black;stroke-width: 1;" points="2.54 89.788238, 100.190808 89.788238 100.190808 89.788238, 197.842124 89.788238 197.842124 89.788238, 295.49344 89.788238 295.49344 89.788238, 393.144248 89.788238"/>
      </g>
    </g>
  </g>
</svg>
