<?xml version="1.0" encoding="utf-8"?>
<!-- Generator: www.crescit.com, SVG Export - SVG Version: 6.00 Build 1  -->
<!-- FXGUID: [D9F926AE-72E7-11EE-9EC2-525400685065] SYMID: [19183]  -->
<svg xmlns="http://www.w3.org/2000/svg" version="1.1" ch_offset="0" color_bar_width="66" width="484.240078" height="236.487716" origin_x="236.5375" origin_y="67.868292" ch_offset_x="236.0730356" ch_offset_y="40" color_offset_x="236.5375" color_offset_y="-4">
  <g>
    <title>Layer 1</title>
    <g>
      <g>
        <polyline style="fill: gray;stroke: black;stroke-width: 1;" points="19.44116 108.967778, 16.752316 108.967778 16.752316 108.967778, 14.063218 108.967778 14.063218 108.967778, 11.374374 108.967778 11.374374 108.967778, 8.685276 108.967778 8.685276 108.967778, 8.685276 88.802464 8.685276 88.802464, 8.685276 68.636134 8.685276 68.636134, 8.685276 48.470058 8.685276 48.470058, 8.685276 28.30449 8.685276 28.30449, 11.374374 28.30449 11.374374 28.30449, 14.063218 28.30449 14.063218 28.30449, 16.752316 28.30449 16.752316 28.30449, 19.44116 28.30449 19.44116 28.30449, 19.44116 48.470058 19.44116 48.470058, 19.44116 68.636134 19.44116 68.636134, 19.44116 88.802464 19.44116 88.802464, 19.44116 108.967778 19.44116 108.967778, 19.44116 108.967778"/>
      </g>
      <g>
        <polyline style="fill: gray;stroke: black;stroke-width: 1;" points="465.396326 98.981514, 466.932518 98.981514 466.932518 98.981514, 468.468202 98.981514 468.468202 98.981514, 470.004394 98.981514 470.004394 98.981514, 471.540078 98.981514 471.540078 98.981514, 471.540078 84.19338 471.540078 84.19338, 471.540078 69.404992 471.540078 69.404992, 471.540078 54.616096 471.540078 54.616096, 471.540078 39.827962 471.540078 39.827962, 470.004394 39.827962 470.004394 39.827962, 468.468202 39.827962 468.468202 39.827962, 466.932518 39.827962 466.932518 39.827962, 465.396326 39.827962 465.396326 39.827962, 465.396326 54.616096 465.396326 54.616096, 465.396326 69.404992 465.396326 69.404992, 465.396326 84.19338 465.396326 84.19338, 465.396326 98.981514 465.396326 98.981514, 465.396326 98.981514"/>
      </g>
      <g>
        <polyline style="fill: gray;stroke: black;stroke-width: 1;" points="454.637902 108.967778, 457.327762 108.967778 457.327762 108.967778, 460.017368 108.967778 460.017368 108.967778, 462.706466 108.967778 462.706466 108.967778, 465.396326 108.967778 465.396326 108.967778, 465.396326 88.802464 465.396326 88.802464, 465.396326 68.636134 465.396326 68.636134, 465.396326 48.470058 465.396326 48.470058, 465.396326 28.30449 465.396326 28.30449, 462.706466 28.30449 462.706466 28.30449, 460.017368 28.30449 460.017368 28.30449, 457.327762 28.30449 457.327762 28.30449, 454.637902 28.30449 454.637902 28.30449, 454.637902 48.470058 454.637902 48.470058, 454.637902 68.636134 454.637902 68.636134, 454.637902 88.802464 454.637902 88.802464, 454.637902 108.967778 454.637902 108.967778, 454.637902 108.967778"/>
      </g>
      <g>
        <polyline style="fill: gray;stroke: black;stroke-width: 1;" points="454.637902 96.098868, 345.839288 96.098868 345.839288 96.098868, 237.039658 96.098868 237.039658 96.098868, 128.24079 96.098868 128.24079 96.098868, 19.44116 96.098868 19.44116 96.098868, 19.44116 82.030824 19.44116 82.030824, 19.44116 67.963288 19.44116 67.963288, 19.44116 53.895244 19.44116 53.895244, 19.44116 39.827962 19.44116 39.827962, 128.24079 39.827962 128.24079 39.827962, 237.039658 39.827962 237.039658 39.827962, 345.839288 39.827962 345.839288 39.827962, 454.637902 39.827962 454.637902 39.827962, 454.637902 53.895244 454.637902 53.895244, 454.637902 67.963288 454.637902 67.963288, 454.637902 82.030824 454.637902 82.030824, 454.637902 96.098868 454.637902 96.098868, 454.637902 96.098868"/>
      </g>
      <g>
        <polyline style="fill: gray;stroke: black;stroke-width: 1;" points="8.685276 98.981514, 7.149084 98.981514 7.149084 98.981514, 5.612638 98.981514 5.612638 98.981514, 4.076192 98.981514 4.076192 98.981514, 2.54 98.981514 2.54 98.981514, 2.54 84.19338 2.54 84.19338, 2.54 69.404992 2.54 69.404992, 2.54 54.616096 2.54 54.616096, 2.54 39.827962 2.54 39.827962, 4.076192 39.827962 4.076192 39.827962, 5.612638 39.827962 5.612638 39.827962, 7.149084 39.827962 7.149084 39.827962, 8.685276 39.827962 8.685276 39.827962, 8.685276 54.616096 8.685276 54.616096, 8.685276 69.404992 8.685276 69.404992, 8.685276 84.19338 8.685276 84.19338, 8.685276 98.981514 8.685276 98.981514, 8.685276 98.981514"/>
      </g>
      <g>
        <polyline style="fill: gray;stroke: black;stroke-width: 1;" points="254.877316 23.282148, 257.757676 23.282148 257.757676 23.282148, 260.639052 23.282148 260.639052 23.282148, 263.519412 23.282148 263.519412 23.282148, 266.400534 23.282148 266.400534 23.282148, 268.897354 18.096484 268.897354 18.096484, 271.394174 12.91082 271.394174 12.91082, 273.890994 7.724902 273.890994 7.724902, 276.38756 2.54 276.38756 2.54, 308.65318 2.54 308.65318 2.54, 340.918546 2.54 340.918546 2.54, 373.183404 2.54 373.183404 2.54, 405.44877 2.54 405.44877 2.54, 407.561034 7.724902 407.561034 7.724902, 409.67406 12.91082 409.67406 12.91082, 411.786324 18.096484 411.786324 18.096484, 413.89935 23.282148 413.89935 23.282148, 421.389556 23.282148 421.389556 23.282148, 428.880016 23.282148 428.880016 23.282148, 436.370222 23.282148 436.370222 23.282148, 443.860428 23.282148 443.860428 23.282148, 443.860428 45.944282 443.860428 45.944282, 443.860428 68.60667 443.860428 68.60667, 443.860428 91.268804 443.860428 91.268804, 443.860428 113.930938 443.860428 113.930938, 434.641498 113.930938 434.641498 113.930938, 425.422822 113.930938 425.422822 113.930938, 416.204654 113.930938 416.204654 113.930938, 406.985978 113.930938 406.985978 113.930938, 406.985978 119.692674 406.985978 119.692674, 406.985978 125.454918 406.985978 125.454918, 406.985978 131.216654 406.985978 131.216654, 406.985978 136.97839 406.985978 136.97839, 400.10715 136.97839 400.10715 136.97839, 384.226816 136.97839 384.226816 136.97839, 366.47374 136.97839 366.47374 136.97839, 353.97821 136.97839 353.97821 136.97839, 347.604334 136.365996 347.604334 136.365996, 343.3191 134.384796 343.3191 134.384796, 340.9061 130.819906 340.9061 130.819906, 340.15045 125.454918 340.15045 125.454918, 340.750398 120.089422 340.750398 120.089422, 342.071198 116.524532 342.071198 116.524532, 343.391998 114.544094 343.391998 114.544094, 343.991946 113.930938 343.991946 113.930938, 330.164186 113.930938 330.164186 113.930938, 316.335664 113.930938 316.335664 113.930938, 302.50765 113.930938 302.50765 113.930938, 288.67989 113.930938 288.67989 113.930938, 288.67989 119.692674 288.67989 119.692674, 288.67989 125.454918 288.67989 125.454918, 288.67989 131.216654 288.67989 131.216654, 288.67989 136.97839 288.67989 136.97839, 299.43425 140.819124 299.43425 140.819124, 310.189372 144.660874 310.189372 144.660874, 320.944494 148.501608 320.944494 148.501608, 331.699108 152.343358 331.699108 152.343358, 330.930758 163.290758 330.930758 163.290758, 330.162662 174.237396 330.162662 174.237396, 329.394566 185.184796 329.394566 185.184796, 328.626978 196.132196 328.626978 196.132196, 327.546462 197.572376 327.546462 197.572376, 324.593204 200.741026 324.593204 200.741026, 320.199766 203.910692 320.199766 203.910692, 314.798456 205.350872 314.798456 205.350872, 308.797198 203.838556 308.797198 203.838556, 303.083722 200.165208 303.083722 200.165208, 298.810426 195.62826 298.810426 195.62826, 297.129708 191.523112 297.129708 191.523112, 295.593516 191.523112 295.593516 191.523112, 294.05707 191.523112 294.05707 191.523112, 292.520878 191.523112 292.520878 191.523112, 290.984432 191.523112 290.984432 191.523112, 283.494226 194.980306 283.494226 194.980306, 276.00402 198.436738 276.00402 198.436738, 268.514576 201.893678 268.514576 201.893678, 261.023354 205.350872 261.023354 205.350872, 259.487162 209.959956 259.487162 209.959956, 257.950716 214.569802 257.950716 214.569802, 256.413762 219.178886 256.413762 219.178886, 254.877316 223.787716 254.877316 223.787716, 253.532386 223.787716 253.532386 223.787716, 252.189234 223.787716 252.189234 223.787716, 250.845066 223.787716 250.845066 223.787716, 249.500898 223.787716 249.500898 223.787716, 242.63858 223.787716 242.63858 223.787716, 235.777024 223.787716 235.777024 223.787716, 228.914452 223.787716 228.914452 223.787716, 222.052134 223.787716 222.052134 223.787716, 220.708982 223.787716 220.708982 223.787716, 219.364052 223.787716 219.364052 223.787716, 218.019884 223.787716 218.019884 223.787716, 216.675716 223.787716 216.675716 223.787716, 215.139524 219.178886 215.139524 219.178886, 213.602316 214.569802 213.602316 214.569802, 212.06587 209.959956 212.06587 209.959956, 210.529678 205.350872 210.529678 205.350872, 203.03871 201.893678 203.03871 201.893678, 195.549266 198.436738 195.549266 198.436738, 188.058806 194.980306 188.058806 194.980306, 180.5686 191.523112 180.5686 191.523112, 179.032408 191.523112 179.032408 191.523112, 177.4952 191.523112 177.4952 191.523112, 175.95977 191.523112 175.95977 191.523112, 174.423324 191.523112 174.423324 191.523112, 172.74286 195.62826 172.74286 195.62826, 168.46931 200.165208 168.46931 200.165208, 162.755834 203.838556 162.755834 203.838556, 156.754576 205.350872 156.754576 205.350872, 151.35352 203.910692 151.35352 203.910692, 146.959828 200.741026 146.959828 200.741026, 144.00657 197.572376 144.00657 197.572376, 142.926054 196.132196 142.926054 196.132196, 142.157958 185.184796 142.157958 185.184796, 141.389608 174.237396 141.389608 174.237396, 140.621512 163.290758 140.621512 163.290758, 139.853416 152.343358 139.853416 152.343358, 150.607776 148.501608 150.607776 148.501608, 161.362898 144.660874 161.362898 144.660874, 172.11802 140.819124 172.11802 140.819124, 182.873142 136.97839 182.873142 136.97839, 182.873142 131.216654 182.873142 131.216654, 182.873142 125.454918 182.873142 125.454918, 182.873142 119.692674 182.873142 119.692674, 182.873142 113.930938 182.873142 113.930938, 169.045382 113.930938 169.045382 113.930938, 155.217622 113.930938 155.217622 113.930938, 141.388846 113.930938 141.388846 113.930938, 127.561086 113.930938 127.561086 113.930938, 128.161796 114.544094 128.161796 114.544094, 129.481834 116.524532 129.481834 116.524532, 130.802634 120.089422 130.802634 120.089422, 131.402582 125.454918 131.402582 125.454918, 130.64617 130.819906 130.64617 130.819906, 128.233932 134.384796 128.233932 134.384796, 123.94819 136.365996 123.94819 136.365996, 117.574822 136.97839 117.574822 136.97839, 105.079546 136.97839 105.079546 136.97839, 87.326216 136.97839 87.326216 136.97839, 71.445882 136.97839 71.445882 136.97839, 64.567308 136.97839 64.567308 136.97839, 64.567308 131.216654 64.567308 131.216654, 64.567308 125.454918 64.567308 125.454918, 64.567308 119.692674 64.567308 119.692674, 64.567308 113.930938 64.567308 113.930938, 55.34914 113.930938 55.34914 113.930938, 46.130464 113.930938 46.130464 113.930938, 36.911534 113.930938 36.911534 113.930938, 27.692604 113.930938 27.692604 113.930938, 27.692604 91.268804 27.692604 91.268804, 27.692604 68.60667 27.692604 68.60667, 27.692604 45.944282 27.692604 45.944282, 27.692604 23.282148 27.692604 23.282148, 35.183064 23.282148 35.183064 23.282148, 42.67327 23.282148 42.67327 23.282148, 50.163476 23.282148 50.163476 23.282148, 57.653682 23.282148 57.653682 23.282148, 59.765946 18.096484 59.765946 18.096484, 61.87821 12.91082 61.87821 12.91082, 63.991236 7.724902 63.991236 7.724902, 66.1035 2.54 66.1035 2.54, 98.36912 2.54 98.36912 2.54, 130.634486 2.54 130.634486 2.54, 162.899852 2.54 162.899852 2.54, 195.165472 2.54 195.165472 2.54, 197.662292 7.724902 197.662292 7.724902, 200.158858 12.91082 200.158858 12.91082, 202.655678 18.096484 202.655678 18.096484, 205.152498 23.282148 205.152498 23.282148, 208.03362 23.282148 208.03362 23.282148, 210.91398 23.282148 210.91398 23.282148, 213.794594 23.282148 213.794594 23.282148, 216.675716 23.282148 216.675716 23.282148, 226.225608 23.282148 226.225608 23.282148, 235.776262 23.282148 235.776262 23.282148, 245.326662 23.282148 245.326662 23.282148, 254.877316 23.282148 254.877316 23.282148, 254.877316 23.282148"/>
      </g>
      <g>
        <polyline style="fill: transparent;stroke: black;stroke-width: 1;" points="57.653682 23.282148, 146.714972 23.282148 146.714972 23.282148, 235.776262 23.282148 235.776262 23.282148, 324.83806 23.282148 324.83806 23.282148, 413.89935 23.282148"/>
      </g>
      <g>
        <polyline style="fill: transparent;stroke: black;stroke-width: 1;" points="64.567308 113.930938, 150.172166 113.930938 150.172166 113.930938, 235.777024 113.930938 235.777024 113.930938, 321.38112 113.930938 321.38112 113.930938, 406.985978 113.930938"/>
      </g>
      <g>
        <polyline style="fill: transparent;stroke: black;stroke-width: 1;" points="425.632118 23.282148, 425.632118 45.944282 425.632118 45.944282, 425.632118 68.60667 425.632118 68.60667, 425.632118 91.268804 425.632118 91.268804, 425.632118 113.930938"/>
      </g>
      <g>
        <polyline style="fill: transparent;stroke: black;stroke-width: 1;" points="43.05681 23.282148, 43.05681 45.944282 43.05681 45.944282, 43.05681 68.60667 43.05681 68.60667, 43.05681 91.268804 43.05681 91.268804, 43.05681 113.930938"/>
      </g>
      <g>
        <polyline style="fill: gray;stroke: black;stroke-width: 1;" points="288.888424 177.69459, 262.38454 177.69459 262.38454 177.69459, 235.88091 177.69459 235.88091 177.69459, 209.377026 177.69459 209.377026 177.69459, 182.873142 177.69459 182.873142 177.69459, 182.873142 161.75355 182.873142 161.75355, 182.873142 145.812764 182.873142 145.812764, 182.873142 129.871724 182.873142 129.871724, 182.873142 113.930938 182.873142 113.930938, 209.377026 113.930938 209.377026 113.930938, 235.88091 113.930938 235.88091 113.930938, 262.38454 113.930938 262.38454 113.930938, 288.888424 113.930938 288.888424 113.930938, 288.888424 129.871724 288.888424 129.871724, 288.888424 145.812764 288.888424 145.812764, 288.888424 161.75355 288.888424 161.75355, 288.888424 177.69459 288.888424 177.69459, 288.888424 177.69459"/>
      </g>
    </g>
  </g>
</svg>
