<?xml version="1.0" encoding="utf-8"?>
<!-- Generator: www.crescit.com, SVG Export - SVG Version: 6.00 Build 1  -->
<!-- FXGUID: [41E65CD6-E37C-11EB-BC91-525400685065] SYMID: [16746]  -->
<svg xmlns="http://www.w3.org/2000/svg" version="1.1" ch_offset="0" color_bar_width="66" width="460.586328" height="151.130254" origin_x="224.857056" origin_y="70.134226" ch_offset_x="224.3015326" ch_offset_y="40" color_offset_x="224.857056" color_offset_y="-4">
  <g>
    <title>Layer 1</title>
    <g>
      <g>
        <polyline style="fill: gray;stroke: black;stroke-width: 1;" points="417.749482 138.430254, 32.677608 138.430254 32.677608 138.430254, 32.677608 2.54 32.677608 2.54, 417.749482 2.54 417.749482 2.54, 417.749482 138.430254"/>
      </g>
      <g>
        <polyline style="fill: gray;stroke: black;stroke-width: 1;" points="395.454632 41.952164, 395.454632 68.839842 395.454632 68.839842, 387.35762 68.839842 387.35762 68.839842, 382.774952 87.209884 382.774952 87.209884, 395.454632 87.209884 395.454632 87.209884, 395.454632 95.727266 395.454632 95.727266, 401.886928 95.727266 401.886928 95.727266, 401.886928 41.952164 401.886928 41.952164, 395.454632 41.952164"/>
      </g>
      <g>
        <polyline style="fill: gray;stroke: black;stroke-width: 1;" points="54.971696 41.952164, 54.971696 68.839842 54.971696 68.839842, 63.068708 68.839842 63.068708 68.839842, 67.651376 87.209884 67.651376 87.209884, 54.971696 87.209884 54.971696 87.209884, 54.971696 95.727266 54.971696 95.727266, 48.5394 95.727266 48.5394 95.727266, 48.5394 41.952164 48.5394 41.952164, 54.971696 41.952164"/>
      </g>
      <g>
        <polyline style="fill: gray;stroke: black;stroke-width: 1;" points="424.094148 41.143682, 417.749482 41.143682 417.749482 41.143682, 417.749482 29.369258 417.749482 29.369258, 401.886928 29.369258 401.886928 29.369258, 401.886928 106.69397 401.886928 106.69397, 417.749482 106.69397 417.749482 106.69397, 417.749482 100.409248 417.749482 100.409248, 423.56532 100.409248 423.56532 100.409248, 434.140102 111.600742 434.140102 111.600742, 447.886328 111.600742 447.886328 111.600742, 447.886328 60.22086 447.886328 60.22086, 424.094148 41.143682"/>
      </g>
      <g>
        <polyline style="fill: gray;stroke: black;stroke-width: 1;" points="417.749482 106.69397, 401.886928 106.69397 401.886928 106.69397, 401.886928 29.369258 401.886928 29.369258, 417.749482 29.369258 417.749482 29.369258, 417.749482 106.69397"/>
      </g>
      <g>
        <polyline style="fill: gray;stroke: black;stroke-width: 1;" points="26.33218 41.143682, 32.677608 41.143682 32.677608 41.143682, 32.677608 29.369258 32.677608 29.369258, 48.5394 29.369258 48.5394 29.369258, 48.5394 106.69397 48.5394 106.69397, 32.677608 106.69397 32.677608 106.69397, 32.677608 100.409248 32.677608 100.409248, 26.86177 100.409248 26.86177 100.409248, 16.28648 111.600742 16.28648 111.600742, 2.54 111.600742 2.54 111.600742, 2.54 60.22086 2.54 60.22086, 26.33218 41.143682"/>
      </g>
      <g>
        <polyline style="fill: gray;stroke: black;stroke-width: 1;" points="32.677608 106.69397, 48.5394 106.69397 48.5394 106.69397, 48.5394 29.369258 48.5394 29.369258, 32.677608 29.369258 32.677608 29.369258, 32.677608 106.69397"/>
      </g>
      <g>
        <polyline style="fill: gray;stroke: black;stroke-width: 1;" points="389.5598 19.82343, 60.86729 19.82343 60.86729 19.82343, 54.96306 23.893018 54.96306 23.893018, 54.96306 68.839842 54.96306 68.839842, 63.059564 68.839842 63.059564 68.839842, 69.767704 95.727266 69.767704 95.727266, 73.996804 95.727266 73.996804 95.727266, 81.39938 100.199952 81.39938 100.199952, 81.39938 110.37443 81.39938 110.37443, 90.651584 110.37443 90.651584 110.37443, 90.651584 65.09893 90.651584 65.09893, 98.05416 65.09893 98.05416 65.09893, 98.05416 110.37443 98.05416 110.37443, 114.44478 110.37443 114.44478 110.37443, 114.44478 65.09893 114.44478 65.09893, 121.847356 65.09893 121.847356 65.09893, 121.847356 110.37443 121.847356 110.37443, 138.237214 110.37443 138.237214 110.37443, 138.237214 65.09893 138.237214 65.09893, 145.63979 65.09893 145.63979 65.09893, 145.63979 110.37443 145.63979 110.37443, 162.030156 110.37443 162.030156 110.37443, 162.030156 65.09893 162.030156 65.09893, 169.432732 65.09893 169.432732 65.09893, 169.432732 110.37443 169.432732 110.37443, 185.823352 110.37443 185.823352 110.37443, 185.823352 65.09893 185.823352 65.09893, 193.225166 65.09893 193.225166 65.09893, 193.225166 110.37443 193.225166 110.37443, 209.615786 110.37443 209.615786 110.37443, 209.615786 65.09893 209.615786 65.09893, 217.018362 65.09893 217.018362 65.09893, 217.018362 110.37443 217.018362 110.37443, 233.408728 110.37443 233.408728 110.37443, 233.408728 65.09893 233.408728 65.09893, 240.810796 65.09893 240.810796 65.09893, 240.810796 110.37443 240.810796 110.37443, 257.201162 110.37443 257.201162 110.37443, 257.201162 65.09893 257.201162 65.09893, 264.603738 65.09893 264.603738 65.09893, 264.603738 110.37443 264.603738 110.37443, 280.994358 110.37443 280.994358 110.37443, 280.994358 65.09893 280.994358 65.09893, 288.396172 65.09893 288.396172 65.09893, 288.396172 110.37443 288.396172 110.37443, 304.786538 110.37443 304.786538 110.37443, 304.786538 65.09893 304.786538 65.09893, 312.189368 65.09893 312.189368 65.09893, 312.189368 110.37443 312.189368 110.37443, 328.579734 110.37443 328.579734 110.37443, 328.579734 65.09893 328.579734 65.09893, 335.981548 65.09893 335.981548 65.09893, 335.981548 110.37443 335.981548 110.37443, 352.372168 110.37443 352.372168 110.37443, 352.372168 65.09893 352.372168 65.09893, 359.774744 65.09893 359.774744 65.09893, 359.774744 110.37443 359.774744 110.37443, 369.02771 110.37443 369.02771 110.37443, 369.02771 100.199952 369.02771 100.199952, 376.429524 95.727266 376.429524 95.727266, 380.65964 95.727266 380.65964 95.727266, 387.366764 68.839842 387.366764 68.839842, 395.46403 68.839842 395.46403 68.839842, 395.46403 23.893018 395.46403 23.893018, 389.5598 19.82343"/>
      </g>
      <g>
        <polyline style="fill: gray;stroke: black;stroke-width: 1;" points="395.46403 49.328578, 54.96306 49.328578 54.96306 49.328578, 54.96306 31.523432 54.96306 31.523432, 395.46403 31.523432 395.46403 31.523432, 395.46403 49.328578"/>
      </g>
    </g>
  </g>
</svg>
