<?xml version="1.0" encoding="utf-8"?>
<!-- Generator: SVG Export - SVG Version: 6.00 Build 1  -->
<!-- FXGUID: [DDE1C421-5173-11F0-AFEE-42010A37C004] SYMID: [32505]  -->
<svg xmlns="http://www.w3.org/2000/svg" version="1.1" ch_offset="0" color_bar_width="66" width="535.07894" height="696.29528" origin_x="261.49808" origin_y="376.46864" ch_offset_x="262.0942688" ch_offset_y="40" color_offset_x="261.49808" color_offset_y="-4">
  <g>
    <title>Layer 1</title>
    <g>
      <g>
        <polyline style="fill: transparent;stroke: black;stroke-width: 1;" points="451.218808 548.08247, 461.157828 539.903162 461.157828 539.903162, 483.023926 519.933936 483.023926 519.933936, 504.889262 495.029998 504.889262 495.029998, 514.828282 472.045284 514.828282 472.045284, 514.828282 423.79011 514.828282 423.79011, 514.828282 375.534936 514.828282 375.534936, 514.828282 327.279762 514.828282 327.279762, 514.828282 279.024588 514.828282 279.024588, 504.889262 256.039874 504.889262 256.039874, 483.023926 231.135174 483.023926 231.135174, 461.157828 211.16671 461.157828 211.16671, 451.218808 202.987402"/>
      </g>
      <g>
        <polyline style="fill: transparent;stroke: black;stroke-width: 1;" points="451.218808 472.045284, 458.644752 468.171784 458.644752 468.171784, 474.980254 459.158594 474.980254 459.158594, 491.315756 448.910964 491.315756 448.910964, 498.741446 441.337954 498.741446 441.337954, 498.741446 408.436064 498.741446 408.436064, 498.741446 375.534936 498.741446 375.534936, 498.741446 342.633808 498.741446 342.633808, 498.741446 309.731918 498.741446 309.731918, 491.315756 302.157892 491.315756 302.157892, 474.980254 291.910516 474.980254 291.910516, 458.644752 282.897072 458.644752 282.897072, 451.218808 279.024588"/>
      </g>
      <g>
        <polyline style="fill: transparent;stroke: black;stroke-width: 1;" points="70.294754 548.08247, 60.355988 539.903162 60.355988 539.903162, 38.48989 519.933936 38.48989 519.933936, 16.624554 495.029998 16.624554 495.029998, 6.68528 472.045284 6.68528 472.045284, 6.68528 423.79011 6.68528 423.79011, 6.68528 375.534936 6.68528 375.534936, 6.68528 327.279762 6.68528 327.279762, 6.68528 279.024588 6.68528 279.024588, 16.624554 256.039874 16.624554 256.039874, 38.48989 231.135174 38.48989 231.135174, 60.355988 211.16671 60.355988 211.16671, 70.294754 202.987402"/>
      </g>
      <g>
        <polyline style="fill: transparent;stroke: black;stroke-width: 1;" points="70.294754 472.045284, 62.869572 468.171784 62.869572 468.171784, 46.533562 459.158594 46.533562 459.158594, 30.197298 448.910964 30.197298 448.910964, 22.772116 441.337954 22.772116 441.337954, 22.772116 408.436064 22.772116 408.436064, 22.772116 375.534936 22.772116 375.534936, 22.772116 342.633808 22.772116 342.633808, 22.772116 309.731918 22.772116 309.731918, 30.197298 302.157892 30.197298 302.157892, 46.533562 291.910516 46.533562 291.910516, 62.869572 282.897072 62.869572 282.897072, 70.294754 279.024588"/>
      </g>
      <g>
        <polyline style="fill: gray;stroke: black;stroke-width: 1;" points="418.31768 177.398934, 426.928026 179.397914 426.928026 179.397914, 437.853074 183.795416 437.853074 183.795416, 447.234564 188.192156 447.234564 188.192156, 451.218808 190.191136 451.218808 190.191136, 451.218808 282.77693 451.218808 282.77693, 451.218808 375.363486 451.218808 375.363486, 451.218808 467.949534 451.218808 467.949534, 451.218808 560.53609 451.218808 560.53609, 447.234564 562.53507 447.234564 562.53507, 437.853074 566.93181 437.853074 566.93181, 426.928026 571.329058 426.928026 571.329058, 418.31768 573.328292 418.31768 573.328292, 339.536532 573.328292 339.536532 573.328292, 260.756908 573.328292 260.756908 573.328292, 181.976268 573.328292 181.976268 573.328292, 103.195882 573.328292 103.195882 573.328292, 94.584774 571.329058 94.584774 571.329058, 83.660742 566.93181 83.660742 566.93181, 74.278998 562.53507 74.278998 562.53507, 70.294754 560.53609 70.294754 560.53609, 70.294754 467.949534 70.294754 467.949534, 70.294754 375.363486 70.294754 375.363486, 70.294754 282.77693 70.294754 282.77693, 70.294754 190.191136 70.294754 190.191136, 74.278998 188.192156 74.278998 188.192156, 83.660742 183.795416 83.660742 183.795416, 94.584774 179.397914 94.584774 179.397914, 103.195882 177.398934 103.195882 177.398934, 181.976268 177.398934 181.976268 177.398934, 260.756908 177.398934 260.756908 177.398934, 339.536532 177.398934 339.536532 177.398934, 418.31768 177.398934 418.31768 177.398934, 418.31768 177.398934"/>
      </g>
      <g>
        <polyline style="fill: transparent;stroke: black;stroke-width: 1;" points="465.716874 296.642028, 443.32525 292.94074 443.32525 292.94074, 420.933626 289.239198 420.933626 289.239198, 398.542002 285.53791 398.542002 285.53791, 376.15114 281.836622 376.15114 281.836622, 319.304924 281.836622 319.304924 281.836622, 262.45947 281.836622 262.45947 281.836622, 205.614016 281.836622 205.614016 281.836622, 148.768054 281.836622 148.768054 281.836622, 126.37643 285.53791 126.37643 285.53791, 103.984552 289.239198 103.984552 289.239198, 81.59369 292.94074 81.59369 292.94074, 59.202066 296.642028"/>
      </g>
      <g>
        <polyline style="fill: transparent;stroke: black;stroke-width: 1;" points="465.716874 457.48956, 443.32525 461.190848 443.32525 461.190848, 420.933626 464.892136 420.933626 464.892136, 398.542002 468.594186 398.542002 468.594186, 376.15114 472.295474 376.15114 472.295474, 319.304924 472.295474 319.304924 472.295474, 262.45947 472.295474 262.45947 472.295474, 205.614016 472.295474 205.614016 472.295474, 148.768054 472.295474 148.768054 472.295474, 126.37643 468.594186 126.37643 468.594186, 103.984552 464.892136 103.984552 464.892136, 81.59369 461.190848 81.59369 461.190848, 59.202066 457.48956"/>
      </g>
      <g>
        <polyline style="fill: gray;stroke: black;stroke-width: 1;" points="59.202066 457.48956, 57.225438 457.48956 57.225438 457.48956, 52.301902 457.48956 52.301902 457.48956, 45.939456 457.48956 45.939456 457.48956, 39.645844 457.48956 39.645844 457.48956, 30.610048 455.226928 30.610048 455.226928, 18.214594 448.852798 18.214594 448.852798, 7.25932 438.982866 7.25932 438.982866, 2.54 426.233336 2.54 426.233336, 2.54 401.649438 2.54 401.649438, 2.54 377.065794 2.54 377.065794, 2.54 352.481896 2.54 352.481896, 2.54 327.898252 2.54 327.898252, 7.25932 315.148468 7.25932 315.148468, 18.214594 305.278536 18.214594 305.278536, 30.610048 298.903898 30.610048 298.903898, 39.645844 296.642028 39.645844 296.642028, 45.939456 296.642028 45.939456 296.642028, 52.301902 296.642028 52.301902 296.642028, 57.225438 296.642028 57.225438 296.642028, 59.202066 296.642028 59.202066 296.642028, 59.202066 336.85353 59.202066 336.85353, 59.202066 377.065794 59.202066 377.065794, 59.202066 417.277296 59.202066 417.277296, 59.202066 457.48956 59.202066 457.48956, 59.202066 457.48956"/>
      </g>
      <g>
        <polyline style="fill: gray;stroke: black;stroke-width: 1;" points="465.716874 457.48956, 467.693502 457.48956 467.693502 457.48956, 472.617292 457.48956 472.617292 457.48956, 478.979738 457.48956 478.979738 457.48956, 485.273096 457.48956 485.273096 457.48956, 494.308892 455.226928 494.308892 455.226928, 506.704346 448.852798 506.704346 448.852798, 517.65962 438.982866 517.65962 438.982866, 522.37894 426.233336 522.37894 426.233336, 522.37894 401.649438 522.37894 401.649438, 522.37894 377.065794 522.37894 377.065794, 522.37894 352.481896 522.37894 352.481896, 522.37894 327.898252 522.37894 327.898252, 517.65962 315.148468 517.65962 315.148468, 506.704346 305.278536 506.704346 305.278536, 494.308892 298.903898 494.308892 298.903898, 485.273096 296.642028 485.273096 296.642028, 478.979738 296.642028 478.979738 296.642028, 472.617292 296.642028 472.617292 296.642028, 467.693502 296.642028 467.693502 296.642028, 465.716874 296.642028 465.716874 296.642028, 465.716874 336.85353 465.716874 336.85353, 465.716874 377.065794 465.716874 377.065794, 465.716874 417.277296 465.716874 417.277296, 465.716874 457.48956 465.716874 457.48956, 465.716874 457.48956"/>
      </g>
      <g>
        <polyline style="fill: gray;stroke: black;stroke-width: 1;" points="67.975988 402.838666, 65.78219 402.838666 65.78219 402.838666, 63.588646 402.838666 63.588646 402.838666, 61.394848 402.838666 61.394848 402.838666, 59.201304 402.838666 59.201304 402.838666, 59.201304 389.952484 59.201304 389.952484, 59.201304 377.065794 59.201304 377.065794, 59.201304 364.17885 59.201304 364.17885, 59.201304 351.292922 59.201304 351.292922, 61.394848 351.292922 61.394848 351.292922, 63.588646 351.292922 63.588646 351.292922, 65.78219 351.292922 65.78219 351.292922, 67.975988 351.292922 67.975988 351.292922, 67.975988 364.17885 67.975988 364.17885, 67.975988 377.065794 67.975988 377.065794, 67.975988 389.952484 67.975988 389.952484, 67.975988 402.838666 67.975988 402.838666, 67.975988 402.838666"/>
      </g>
      <g>
        <polyline style="fill: gray;stroke: black;stroke-width: 1;" points="464.984338 402.838666, 462.79054 402.838666 462.79054 402.838666, 460.596996 402.838666 460.596996 402.838666, 458.403198 402.838666 458.403198 402.838666, 456.209654 402.838666 456.209654 402.838666, 456.209654 389.952484 456.209654 389.952484, 456.209654 377.065794 456.209654 377.065794, 456.209654 364.17885 456.209654 364.17885, 456.209654 351.292922 456.209654 351.292922, 458.403198 351.292922 458.403198 351.292922, 460.596996 351.292922 460.596996 351.292922, 462.79054 351.292922 462.79054 351.292922, 464.984338 351.292922 464.984338 351.292922, 464.984338 364.17885 464.984338 364.17885, 464.984338 377.065794 464.984338 377.065794, 464.984338 389.952484 464.984338 389.952484, 464.984338 402.838666 464.984338 402.838666, 464.984338 402.838666"/>
      </g>
      <g>
        <polyline style="fill: gray;stroke: black;stroke-width: 1;" points="347.636338 683.59528, 355.29647 683.59528 355.29647 683.59528, 372.723156 683.59528 372.723156 683.59528, 391.590276 683.59528 391.590276 683.59528, 403.5679 683.59528 403.5679 683.59528, 415.032444 669.8869 415.032444 669.8869, 432.76774 639.72694 432.76774 639.72694, 449.06438 609.567742 449.06438 609.567742, 456.209654 595.8586 456.209654 595.8586, 456.209654 518.81532 456.209654 518.81532, 456.209654 441.771024 456.209654 441.771024, 456.209654 364.727744 456.209654 364.727744, 456.209654 287.683448 456.209654 287.683448, 451.138544 234.665012 451.138544 234.665012, 439.485024 157.998414 439.485024 157.998414, 426.599096 87.50046 426.599096 87.50046, 417.825936 52.98948 417.825936 52.98948, 409.051252 47.40148 409.051252 47.40148, 396.165324 43.66768 396.165324 43.66768, 384.513328 41.57472 384.513328 41.57472, 379.440694 40.92448 379.440694 40.92448, 379.440694 31.32836 379.440694 31.32836, 379.440694 21.73224 379.440694 21.73224, 379.440694 12.13612 379.440694 12.13612, 379.440694 2.54 379.440694 2.54, 368.199416 2.54 368.199416 2.54, 356.958392 2.54 356.958392 2.54, 345.717114 2.54 345.717114 2.54, 334.47609 2.54 334.47609 2.54, 298.284392 2.54 298.284392 2.54, 262.092694 2.54 262.092694 2.54, 225.90125 2.54 225.90125 2.54, 189.709552 2.54 189.709552 2.54, 178.468528 2.54 178.468528 2.54, 167.22725 2.54 167.22725 2.54, 155.985972 2.54 155.985972 2.54, 144.744948 2.54 144.744948 2.54, 144.744948 12.13612 144.744948 12.13612, 144.744948 21.73224 144.744948 21.73224, 144.744948 31.32836 144.744948 31.32836, 144.744948 40.92448 144.744948 40.92448, 139.672314 41.57472 139.672314 41.57472, 128.020318 43.66768 128.020318 43.66768, 115.13439 47.40148 115.13439 47.40148, 106.359706 52.98948 106.359706 52.98948, 97.586546 87.50046 97.586546 87.50046, 84.700618 157.998414 84.700618 157.998414, 73.047098 234.665012 73.047098 234.665012, 67.975988 287.683448 67.975988 287.683448, 67.975988 364.727744 67.975988 364.727744, 67.975988 441.771024 67.975988 441.771024, 67.975988 518.81532 67.975988 518.81532, 67.975988 595.8586 67.975988 595.8586, 75.121262 609.567742 75.121262 609.567742, 91.417902 639.72694 91.417902 639.72694, 109.153198 669.8869 109.153198 669.8869, 120.617742 683.59528 120.617742 683.59528, 132.595366 683.59528 132.595366 683.59528, 151.462232 683.59528 151.462232 683.59528, 168.889172 683.59528 168.889172 683.59528, 176.549304 683.59528 176.549304 683.59528, 219.32011 683.59528 219.32011 683.59528, 262.092694 683.59528 262.092694 683.59528, 304.863754 683.59528 304.863754 683.59528, 347.636338 683.59528 347.636338 683.59528, 347.636338 683.59528"/>
      </g>
      <g>
        <polyline style="fill: transparent;stroke: black;stroke-width: 1;" points="144.744948 40.92448, 203.418948 40.92448 203.418948 40.92448, 262.092694 40.92448 262.092694 40.92448, 320.766694 40.92448 320.766694 40.92448, 379.440694 40.92448"/>
      </g>
      <g>
        <polyline style="fill: transparent;stroke: black;stroke-width: 1;" points="99.316794 79.21244, 180.51018 79.21244 180.51018 79.21244, 261.703566 79.21244 261.703566 79.21244, 342.897206 79.21244 342.897206 79.21244, 424.090592 79.21244"/>
      </g>
      <g>
        <polyline style="fill: gray;stroke: black;stroke-width: 1;" points="229.190804 672.6301, 227.546154 672.6301 227.546154 672.6301, 225.90125 672.6301 225.90125 672.6301, 224.256346 672.6301 224.256346 672.6301, 222.611442 672.6301 222.611442 672.6301, 222.611442 658.92172 222.611442 658.92172, 222.611442 645.2108 222.611442 645.2108, 222.611442 631.50242 222.611442 631.50242, 222.611442 617.793024 222.611442 617.793024, 224.256346 617.793024 224.256346 617.793024, 225.90125 617.793024 225.90125 617.793024, 227.546154 617.793024 227.546154 617.793024, 229.190804 617.793024 229.190804 617.793024, 229.190804 631.50242 229.190804 631.50242, 229.190804 645.2108 229.190804 645.2108, 229.190804 658.92172 229.190804 658.92172, 229.190804 672.6301 229.190804 672.6301, 229.190804 672.6301"/>
      </g>
      <g>
        <polyline style="fill: gray;stroke: black;stroke-width: 1;" points="183.13019 672.6301, 181.485286 672.6301 181.485286 672.6301, 179.840382 672.6301 179.840382 672.6301, 178.193954 672.6301 178.193954 672.6301, 176.549304 672.6301 176.549304 672.6301, 176.549304 658.92172 176.549304 658.92172, 176.549304 645.2108 176.549304 645.2108, 176.549304 631.50242 176.549304 631.50242, 176.549304 617.793024 176.549304 617.793024, 178.193954 617.793024 178.193954 617.793024, 179.840382 617.793024 179.840382 617.793024, 181.485286 617.793024 181.485286 617.793024, 183.13019 617.793024 183.13019 617.793024, 183.13019 631.50242 183.13019 631.50242, 183.13019 645.2108 183.13019 645.2108, 183.13019 658.92172 183.13019 658.92172, 183.13019 672.6301 183.13019 672.6301, 183.13019 672.6301"/>
      </g>
      <g>
        <polyline style="fill: gray;stroke: black;stroke-width: 1;" points="167.776144 672.6301, 166.13124 672.6301 166.13124 672.6301, 164.486336 672.6301 164.486336 672.6301, 162.839908 672.6301 162.839908 672.6301, 161.195004 672.6301 161.195004 672.6301, 161.195004 658.92172 161.195004 658.92172, 161.195004 645.2108 161.195004 645.2108, 161.195004 631.50242 161.195004 631.50242, 161.195004 617.793024 161.195004 617.793024, 162.839908 617.793024 162.839908 617.793024, 164.486336 617.793024 164.486336 617.793024, 166.13124 617.793024 166.13124 617.793024, 167.776144 617.793024 167.776144 617.793024, 167.776144 631.50242 167.776144 631.50242, 167.776144 645.2108 167.776144 645.2108, 167.776144 658.92172 167.776144 658.92172, 167.776144 672.6301 167.776144 672.6301, 167.776144 672.6301"/>
      </g>
      <g>
        <polyline style="fill: gray;stroke: black;stroke-width: 1;" points="198.484236 672.6301, 196.837808 672.6301 196.837808 672.6301, 195.192904 672.6301 195.192904 672.6301, 193.548254 672.6301 193.548254 672.6301, 191.90335 672.6301 191.90335 672.6301, 191.90335 658.92172 191.90335 658.92172, 191.90335 645.2108 191.90335 645.2108, 191.90335 631.50242 191.90335 631.50242, 191.90335 617.793024 191.90335 617.793024, 193.548254 617.793024 193.548254 617.793024, 195.192904 617.793024 195.192904 617.793024, 196.837808 617.793024 196.837808 617.793024, 198.484236 617.793024 198.484236 617.793024, 198.484236 631.50242 198.484236 631.50242, 198.484236 645.2108 198.484236 645.2108, 198.484236 658.92172 198.484236 658.92172, 198.484236 672.6301 198.484236 672.6301, 198.484236 672.6301"/>
      </g>
      <g>
        <polyline style="fill: gray;stroke: black;stroke-width: 1;" points="213.836758 672.6301, 212.191854 672.6301 212.191854 672.6301, 210.547204 672.6301 210.547204 672.6301, 208.9023 672.6301 208.9023 672.6301, 207.257396 672.6301 207.257396 672.6301, 207.257396 658.92172 207.257396 658.92172, 207.257396 645.2108 207.257396 645.2108, 207.257396 631.50242 207.257396 631.50242, 207.257396 617.793024 207.257396 617.793024, 208.9023 617.793024 208.9023 617.793024, 210.547204 617.793024 210.547204 617.793024, 212.191854 617.793024 212.191854 617.793024, 213.836758 617.793024 213.836758 617.793024, 213.836758 631.50242 213.836758 631.50242, 213.836758 645.2108 213.836758 645.2108, 213.836758 658.92172 213.836758 658.92172, 213.836758 672.6301 213.836758 672.6301, 213.836758 672.6301"/>
      </g>
      <g>
        <polyline style="fill: gray;stroke: black;stroke-width: 1;" points="305.961542 672.6301, 304.316638 672.6301 304.316638 672.6301, 302.671734 672.6301 302.671734 672.6301, 301.025306 672.6301 301.025306 672.6301, 299.380402 672.6301 299.380402 672.6301, 299.380402 658.92172 299.380402 658.92172, 299.380402 645.2108 299.380402 645.2108, 299.380402 631.50242 299.380402 631.50242, 299.380402 617.793024 299.380402 617.793024, 301.025306 617.793024 301.025306 617.793024, 302.671734 617.793024 302.671734 617.793024, 304.316638 617.793024 304.316638 617.793024, 305.961542 617.793024 305.961542 617.793024, 305.961542 631.50242 305.961542 631.50242, 305.961542 645.2108 305.961542 645.2108, 305.961542 658.92172 305.961542 658.92172, 305.961542 672.6301 305.961542 672.6301, 305.961542 672.6301"/>
      </g>
      <g>
        <polyline style="fill: gray;stroke: black;stroke-width: 1;" points="321.314064 672.6301, 319.66916 672.6301 319.66916 672.6301, 318.024256 672.6301 318.024256 672.6301, 316.379352 672.6301 316.379352 672.6301, 314.734448 672.6301 314.734448 672.6301, 314.734448 658.92172 314.734448 658.92172, 314.734448 645.2108 314.734448 645.2108, 314.734448 631.50242 314.734448 631.50242, 314.734448 617.793024 314.734448 617.793024, 316.379352 617.793024 316.379352 617.793024, 318.024256 617.793024 318.024256 617.793024, 319.66916 617.793024 319.66916 617.793024, 321.314064 617.793024 321.314064 617.793024, 321.314064 631.50242 321.314064 631.50242, 321.314064 645.2108 321.314064 645.2108, 321.314064 658.92172 321.314064 658.92172, 321.314064 672.6301 321.314064 672.6301, 321.314064 672.6301"/>
      </g>
      <g>
        <polyline style="fill: gray;stroke: black;stroke-width: 1;" points="336.66811 672.6301, 335.023206 672.6301 335.023206 672.6301, 333.378302 672.6301 333.378302 672.6301, 331.733652 672.6301 331.733652 672.6301, 330.088748 672.6301 330.088748 672.6301, 330.088748 658.92172 330.088748 658.92172, 330.088748 645.2108 330.088748 645.2108, 330.088748 631.50242 330.088748 631.50242, 330.088748 617.793024 330.088748 617.793024, 331.733652 617.793024 331.733652 617.793024, 333.378302 617.793024 333.378302 617.793024, 335.023206 617.793024 335.023206 617.793024, 336.66811 617.793024 336.66811 617.793024, 336.66811 631.50242 336.66811 631.50242, 336.66811 645.2108 336.66811 645.2108, 336.66811 658.92172 336.66811 658.92172, 336.66811 672.6301 336.66811 672.6301, 336.66811 672.6301"/>
      </g>
      <g>
        <polyline style="fill: gray;stroke: black;stroke-width: 1;" points="352.022156 672.6301, 350.377252 672.6301 350.377252 672.6301, 348.732602 672.6301 348.732602 672.6301, 347.087698 672.6301 347.087698 672.6301, 345.442794 672.6301 345.442794 672.6301, 345.442794 658.92172 345.442794 658.92172, 345.442794 645.2108 345.442794 645.2108, 345.442794 631.50242 345.442794 631.50242, 345.442794 617.793024 345.442794 617.793024, 347.087698 617.793024 347.087698 617.793024, 348.732602 617.793024 348.732602 617.793024, 350.377252 617.793024 350.377252 617.793024, 352.022156 617.793024 352.022156 617.793024, 352.022156 631.50242 352.022156 631.50242, 352.022156 645.2108 352.022156 645.2108, 352.022156 658.92172 352.022156 658.92172, 352.022156 672.6301 352.022156 672.6301, 352.022156 672.6301"/>
      </g>
      <g>
        <polyline style="fill: gray;stroke: black;stroke-width: 1;" points="367.376202 672.6301, 365.731552 672.6301 365.731552 672.6301, 364.086648 672.6301 364.086648 672.6301, 362.441744 672.6301 362.441744 672.6301, 360.79684 672.6301 360.79684 672.6301, 360.79684 658.92172 360.79684 658.92172, 360.79684 645.2108 360.79684 645.2108, 360.79684 631.50242 360.79684 631.50242, 360.79684 617.793024 360.79684 617.793024, 362.441744 617.793024 362.441744 617.793024, 364.086648 617.793024 364.086648 617.793024, 365.731552 617.793024 365.731552 617.793024, 367.376202 617.793024 367.376202 617.793024, 367.376202 631.50242 367.376202 631.50242, 367.376202 645.2108 367.376202 645.2108, 367.376202 658.92172 367.376202 658.92172, 367.376202 672.6301 367.376202 672.6301, 367.376202 672.6301"/>
      </g>
      <g>
        <polyline style="fill: gray;stroke: black;stroke-width: 1;" points="314.734448 485.09174, 288.688018 485.09174 288.688018 485.09174, 262.641588 485.09174 262.641588 485.09174, 236.593634 485.09174 236.593634 485.09174, 210.547204 485.09174 210.547204 485.09174, 210.547204 470.012014 210.547204 470.012014, 210.547204 454.932288 210.547204 454.932288, 210.547204 439.852562 210.547204 439.852562, 210.547204 424.772836 210.547204 424.772836, 236.593634 424.772836 236.593634 424.772836, 262.641588 424.772836 262.641588 424.772836, 288.688018 424.772836 288.688018 424.772836, 314.734448 424.772836 314.734448 424.772836, 314.734448 439.852562 314.734448 439.852562, 314.734448 454.932288 314.734448 454.932288, 314.734448 470.012014 314.734448 470.012014, 314.734448 485.09174 314.734448 485.09174, 314.734448 485.09174"/>
      </g>
      <g>
        <polyline style="fill: gray;stroke: black;stroke-width: 1;" points="244.545104 672.6301, 242.9002 672.6301 242.9002 672.6301, 241.255296 672.6301 241.255296 672.6301, 239.610392 672.6301 239.610392 672.6301, 237.965488 672.6301 237.965488 672.6301, 237.965488 658.92172 237.965488 658.92172, 237.965488 645.2108 237.965488 645.2108, 237.965488 631.50242 237.965488 631.50242, 237.965488 617.793024 237.965488 617.793024, 239.610392 617.793024 239.610392 617.793024, 241.255296 617.793024 241.255296 617.793024, 242.9002 617.793024 242.9002 617.793024, 244.545104 617.793024 244.545104 617.793024, 244.545104 631.50242 244.545104 631.50242, 244.545104 645.2108 244.545104 645.2108, 244.545104 658.92172 244.545104 658.92172, 244.545104 672.6301 244.545104 672.6301, 244.545104 672.6301"/>
      </g>
      <g>
        <polyline style="fill: gray;stroke: black;stroke-width: 1;" points="259.89915 672.6301, 258.254246 672.6301 258.254246 672.6301, 256.609342 672.6301 256.609342 672.6301, 254.964438 672.6301 254.964438 672.6301, 253.319788 672.6301 253.319788 672.6301, 253.319788 658.92172 253.319788 658.92172, 253.319788 645.2108 253.319788 645.2108, 253.319788 631.50242 253.319788 631.50242, 253.319788 617.793024 253.319788 617.793024, 254.964438 617.793024 254.964438 617.793024, 256.609342 617.793024 256.609342 617.793024, 258.254246 617.793024 258.254246 617.793024, 259.89915 617.793024 259.89915 617.793024, 259.89915 631.50242 259.89915 631.50242, 259.89915 645.2108 259.89915 645.2108, 259.89915 658.92172 259.89915 658.92172, 259.89915 672.6301 259.89915 672.6301, 259.89915 672.6301"/>
      </g>
      <g>
        <polyline style="fill: gray;stroke: black;stroke-width: 1;" points="275.253196 672.6301, 273.608292 672.6301 273.608292 672.6301, 271.963642 672.6301 271.963642 672.6301, 270.318738 672.6301 270.318738 672.6301, 268.673834 672.6301 268.673834 672.6301, 268.673834 658.92172 268.673834 658.92172, 268.673834 645.2108 268.673834 645.2108, 268.673834 631.50242 268.673834 631.50242, 268.673834 617.793024 268.673834 617.793024, 270.318738 617.793024 270.318738 617.793024, 271.963642 617.793024 271.963642 617.793024, 273.608292 617.793024 273.608292 617.793024, 275.253196 617.793024 275.253196 617.793024, 275.253196 631.50242 275.253196 631.50242, 275.253196 645.2108 275.253196 645.2108, 275.253196 658.92172 275.253196 658.92172, 275.253196 672.6301 275.253196 672.6301, 275.253196 672.6301"/>
      </g>
      <g>
        <polyline style="fill: gray;stroke: black;stroke-width: 1;" points="290.607242 672.6301, 288.962592 672.6301 288.962592 672.6301, 287.317688 672.6301 287.317688 672.6301, 285.67126 672.6301 285.67126 672.6301, 284.026356 672.6301 284.026356 672.6301, 284.026356 658.92172 284.026356 658.92172, 284.026356 645.2108 284.026356 645.2108, 284.026356 631.50242 284.026356 631.50242, 284.026356 617.793024 284.026356 617.793024, 285.67126 617.793024 285.67126 617.793024, 287.317688 617.793024 287.317688 617.793024, 288.962592 617.793024 288.962592 617.793024, 290.607242 617.793024 290.607242 617.793024, 290.607242 631.50242 290.607242 631.50242, 290.607242 645.2108 290.607242 645.2108, 290.607242 658.92172 290.607242 658.92172, 290.607242 672.6301 290.607242 672.6301, 290.607242 672.6301"/>
      </g>
    </g>
  </g>
</svg>
