<?xml version="1.0" encoding="utf-8"?>
<!-- Generator: SVG Export - SVG Version: 6.00 Build 1  -->
<!-- FXGUID: [F03E6666-B50E-11E6-90C0-F0761CCEA3DE] SYMID: [14128]  -->
<svg xmlns="http://www.w3.org/2000/svg" version="1.1" ch_offset="0" color_bar_width="66" width="250.543568" height="274.759674" origin_x="110.873286" origin_y="100.008436" ch_offset_x="110.4936322" ch_offset_y="40" color_offset_x="110.873286" color_offset_y="-4" fxtype_offset_x="110.4936322" fxtype_offset_y="289.83559" fxtype_offset_value="1QuadZ">
  <g>
    <title>Layer 1</title>
    <g>
      <g>
        <polyline style="fill: gray;stroke: black;stroke-width: 1;" points="235.57865 72.00011, 222.554546 72.00011 222.554546 72.00011, 222.554546 89.413588 222.554546 89.413588, 212.927184 89.413588 212.927184 89.413588, 212.927184 70.15988 212.927184 70.15988, 208.397348 70.15988 208.397348 70.15988, 208.397348 80.494124 208.397348 80.494124, 204.699108 80.494124 204.699108 80.494124, 204.699108 118.434358 204.699108 118.434358, 208.397348 118.434358 208.397348 118.434358, 208.397348 128.768602 208.397348 128.768602, 212.927184 128.768602 212.927184 128.768602, 212.927184 109.515656 212.927184 109.515656, 222.554546 109.515656 222.554546 109.515656, 222.554546 126.928372 222.554546 126.928372, 235.57865 126.928372 235.57865 126.928372, 237.843568 108.524802 237.843568 108.524802, 237.843568 90.404442 237.843568 90.404442, 235.57865 72.00011"/>
      </g>
      <g>
        <polyline style="fill: gray;stroke: black;stroke-width: 1;" points="2.54 70.15988, 7.07009 70.15988 7.07009 70.15988, 7.07009 80.494124 7.07009 80.494124, 10.769092 80.494124 10.769092 80.494124, 10.769092 118.434358 10.769092 118.434358, 7.07009 118.434358 7.07009 118.434358, 7.07009 128.768602 7.07009 128.768602, 2.54 128.768602 2.54 128.768602, 2.54 70.15988"/>
      </g>
      <g>
        <polyline style="fill: gray;stroke: black;stroke-width: 1;" points="212.927184 128.768602, 2.54 128.768602 2.54 128.768602, 2.54 70.15988 2.54 70.15988, 212.927184 70.15988 212.927184 70.15988, 212.927184 128.768602"/>
      </g>
      <g>
        <polyline style="fill: gray;stroke: black;stroke-width: 1;" points="204.844904 2.54, 204.844904 110.000796 204.844904 110.000796, 182.757826 110.000796 182.757826 110.000796, 182.757826 111.699802 182.757826 111.699802, 204.844904 111.699802 204.844904 111.699802, 204.844904 126.140972 204.844904 126.140972, 189.553596 246.34444 189.553596 246.34444, 180.20919 246.34444 180.20919 246.34444, 174.686976 253.564898 174.686976 253.564898, 146.229832 253.564898 146.229832 253.564898, 137.734294 262.059674 137.734294 262.059674, 77.845666 262.059674 77.845666 262.059674, 69.349874 253.564898 69.349874 253.564898, 40.89273 253.564898 40.89273 253.564898, 35.370516 246.34444 35.370516 246.34444, 26.026364 246.34444 26.026364 246.34444, 10.735818 126.140972 10.735818 126.140972, 10.735818 111.699802 10.735818 111.699802, 32.82188 111.699802 32.82188 111.699802, 32.82188 110.000796 32.82188 110.000796, 10.735818 110.000796 10.735818 110.000796, 10.735818 2.54 10.735818 2.54, 204.844904 2.54"/>
      </g>
      <g>
        <polyline style="fill: gray;stroke: black;stroke-width: 1;" points="204.844904 40.342312, 10.735818 40.342312 10.735818 40.342312, 10.735818 14.0081 10.735818 14.0081, 204.844904 14.0081 204.844904 14.0081, 204.844904 40.342312"/>
      </g>
      <g>
        <polyline style="fill: gray;stroke: black;stroke-width: 1;" points="31.39948 108.171488, 32.850582 46.447202 32.850582 46.447202, 22.518624 46.447202 22.518624 46.447202, 23.969726 108.171488 23.969726 108.171488, 31.39948 108.171488"/>
      </g>
      <g>
        <polyline style="fill: gray;stroke: black;stroke-width: 1;" points="24.362664 124.875798, 26.259536 205.569312 26.259536 205.569312, 29.10967 205.569312 29.10967 205.569312, 31.006542 124.875798 31.006542 124.875798, 24.362664 124.875798"/>
      </g>
      <g>
        <polyline style="fill: gray;stroke: black;stroke-width: 1;" points="50.848006 108.171488, 52.299108 46.447202 52.299108 46.447202, 41.96715 46.447202 41.96715 46.447202, 43.418252 108.171488 43.418252 108.171488, 50.848006 108.171488"/>
      </g>
      <g>
        <polyline style="fill: gray;stroke: black;stroke-width: 1;" points="43.810428 124.875798, 45.708062 205.569312 45.708062 205.569312, 48.558196 205.569312 48.558196 205.569312, 50.455068 124.875798 50.455068 124.875798, 43.810428 124.875798"/>
      </g>
      <g>
        <polyline style="fill: gray;stroke: black;stroke-width: 1;" points="70.296532 108.171488, 71.74738 46.447202 71.74738 46.447202, 61.415676 46.447202 61.415676 46.447202, 62.865762 108.171488 62.865762 108.171488, 70.296532 108.171488"/>
      </g>
      <g>
        <polyline style="fill: gray;stroke: black;stroke-width: 1;" points="63.258954 124.875798, 65.156334 205.569312 65.156334 205.569312, 68.006722 205.569312 68.006722 205.569312, 69.90334 124.875798 69.90334 124.875798, 63.258954 124.875798"/>
      </g>
      <g>
        <polyline style="fill: gray;stroke: black;stroke-width: 1;" points="89.744042 108.171488, 91.195144 46.447202 91.195144 46.447202, 80.863186 46.447202 80.863186 46.447202, 82.314288 108.171488 82.314288 108.171488, 89.744042 108.171488"/>
      </g>
      <g>
        <polyline style="fill: gray;stroke: black;stroke-width: 1;" points="82.707226 124.875798, 84.604098 205.569312 84.604098 205.569312, 87.454232 205.569312 87.454232 205.569312, 89.351104 124.875798 89.351104 124.875798, 82.707226 124.875798"/>
      </g>
      <g>
        <polyline style="fill: gray;stroke: black;stroke-width: 1;" points="102.155752 124.875798, 104.052624 205.569312 104.052624 205.569312, 106.902758 205.569312 106.902758 205.569312, 108.79963 124.875798 108.79963 124.875798, 102.155752 124.875798"/>
      </g>
      <g>
        <polyline style="fill: gray;stroke: black;stroke-width: 1;" points="109.192568 108.171488, 110.64367 46.447202 110.64367 46.447202, 100.311712 46.447202 100.311712 46.447202, 101.762814 108.171488 101.762814 108.171488, 109.192568 108.171488"/>
      </g>
      <g>
        <polyline style="fill: gray;stroke: black;stroke-width: 1;" points="128.128522 108.171488, 128.64084 108.171488 128.64084 108.171488, 130.091942 46.447202 130.091942 46.447202, 119.759984 46.447202 119.759984 46.447202, 121.211086 108.171488 121.211086 108.171488, 128.128522 108.171488"/>
      </g>
      <g>
        <polyline style="fill: gray;stroke: black;stroke-width: 1;" points="128.128522 124.875798, 121.603262 124.875798 121.603262 124.875798, 123.500896 205.569312 123.500896 205.569312, 126.35103 205.569312 126.35103 205.569312, 128.247902 124.875798 128.247902 124.875798, 128.128522 124.875798"/>
      </g>
      <g>
        <polyline style="fill: gray;stroke: black;stroke-width: 1;" points="148.088604 108.171488, 149.539706 46.447202 149.539706 46.447202, 139.207748 46.447202 139.207748 46.447202, 140.65885 108.171488 140.65885 108.171488, 148.088604 108.171488"/>
      </g>
      <g>
        <polyline style="fill: gray;stroke: black;stroke-width: 1;" points="141.051788 124.875798, 142.94866 205.569312 142.94866 205.569312, 145.798794 205.569312 145.798794 205.569312, 147.696428 124.875798 147.696428 124.875798, 141.051788 124.875798"/>
      </g>
      <g>
        <polyline style="fill: gray;stroke: black;stroke-width: 1;" points="167.53713 108.171488, 168.987978 46.447202 168.987978 46.447202, 158.656274 46.447202 158.656274 46.447202, 160.107122 108.171488 160.107122 108.171488, 167.53713 108.171488"/>
      </g>
      <g>
        <polyline style="fill: gray;stroke: black;stroke-width: 1;" points="160.500314 124.875798, 162.396932 205.569312 162.396932 205.569312, 165.24732 205.569312 165.24732 205.569312, 167.143938 124.875798 167.143938 124.875798, 160.500314 124.875798"/>
      </g>
      <g>
        <polyline style="fill: gray;stroke: black;stroke-width: 1;" points="186.98464 108.171488, 188.436504 46.447202 188.436504 46.447202, 178.104546 46.447202 178.104546 46.447202, 179.555648 108.171488 179.555648 108.171488, 186.98464 108.171488"/>
      </g>
      <g>
        <polyline style="fill: gray;stroke: black;stroke-width: 1;" points="179.948586 124.875798, 181.845458 205.569312 181.845458 205.569312, 184.69483 205.569312 184.69483 205.569312, 186.592464 124.875798 186.592464 124.875798, 179.948586 124.875798"/>
      </g>
      <g>
        <polyline style="fill: gray;stroke: black;stroke-width: 1;" points="204.575156 124.875798, 10.735818 124.875798 10.735818 124.875798, 10.735818 111.699802 10.735818 111.699802, 204.575156 111.699802 204.575156 111.699802, 204.575156 124.875798"/>
      </g>
    </g>
  </g>
</svg>
