<?xml version="1.0" encoding="utf-8"?>
<!-- Generator: www.crescit.com, SVG Export - SVG Version: 6.00 Build 1  -->
<!-- FXGUID: [29DCB9C8-367D-11EE-AE5C-525400685065] SYMID: [19036]  -->
<svg xmlns="http://www.w3.org/2000/svg" version="1.1" ch_offset="0" color_bar_width="66" width="343.239344" height="288.572956" origin_x="166.021512" origin_y="138.50112" ch_offset_x="169.0489888" ch_offset_y="40" color_offset_x="166.021512" color_offset_y="-4">
  <g>
    <title>Layer 1</title>
    <g>
      <g>
        <polyline style="fill: transparent;stroke: black;stroke-width: 1;" points="30.849062 263.832594, 26.425398 258.142994 26.425398 258.142994, 16.69415 244.674644 16.69415 244.674644, 6.962902 228.826822 6.962902 228.826822, 2.54 215.99906 2.54 215.99906, 2.54 177.927762 2.54 177.927762, 2.54 139.856464 2.54 139.856464, 2.54 101.784912 2.54 101.784912, 2.54 63.713614 2.54 63.713614, 6.962902 50.885852 6.962902 50.885852, 16.69415 35.03803 16.69415 35.03803, 26.425398 21.56968 26.425398 21.56968, 30.849062 15.88008"/>
      </g>
      <g>
        <polyline style="fill: transparent;stroke: black;stroke-width: 1;" points="30.849062 215.99906, 28.637484 210.202526 28.637484 210.202526, 23.772114 196.718682 23.772114 196.718682, 18.90649 181.405022 18.90649 181.405022, 16.69415 170.118024 16.69415 170.118024, 16.69415 154.987244 16.69415 154.987244, 16.69415 139.856464 16.69415 139.856464, 16.69415 124.72543 16.69415 124.72543, 16.69415 109.59465 16.69415 109.59465, 18.90649 98.30689 18.90649 98.30689, 23.772114 82.99323 23.772114 82.99323, 28.637484 69.509386 28.637484 69.509386, 30.849062 63.713614"/>
      </g>
      <g>
        <polyline style="fill: transparent;stroke: black;stroke-width: 1;" points="302.22952 263.832594, 306.653184 258.142994 306.653184 258.142994, 316.384432 244.674644 316.384432 244.674644, 326.11568 228.826822 326.11568 228.826822, 330.539344 215.99906 330.539344 215.99906, 330.539344 177.927762 330.539344 177.927762, 330.539344 139.856464 330.539344 139.856464, 330.539344 101.784912 330.539344 101.784912, 330.539344 63.713614 330.539344 63.713614, 326.11568 50.885852 326.11568 50.885852, 316.384432 35.03803 316.384432 35.03803, 306.653184 21.56968 306.653184 21.56968, 302.22952 15.88008"/>
      </g>
      <g>
        <polyline style="fill: transparent;stroke: black;stroke-width: 1;" points="302.22952 215.99906, 304.440844 210.202526 304.440844 210.202526, 309.306468 196.718682 309.306468 196.718682, 314.172092 181.405022 314.172092 181.405022, 316.384432 170.118024 316.384432 170.118024, 316.384432 154.987244 316.384432 154.987244, 316.384432 139.856464 316.384432 139.856464, 316.384432 124.72543 316.384432 124.72543, 316.384432 109.59465 316.384432 109.59465, 314.172092 98.30689 314.172092 98.30689, 309.306468 82.99323 309.306468 82.99323, 304.440844 69.509386 304.440844 69.509386, 302.22952 63.713614"/>
      </g>
      <g>
        <polyline style="fill: gray;stroke: black;stroke-width: 1;" points="30.849062 263.507728, 31.500318 265.44016 31.500318 265.44016, 33.127188 269.690342 33.127188 269.690342, 35.241738 273.940524 35.241738 273.940524, 37.357304 275.872956 37.357304 275.872956, 101.947726 275.872956 101.947726 275.872956, 166.539164 275.872956 166.539164 275.872956, 231.12984 275.872956 231.12984 275.872956, 295.720516 275.872956 295.720516 275.872956, 297.835828 273.940524 297.835828 273.940524, 299.951394 269.690342 299.951394 269.690342, 301.579026 265.44016 301.579026 265.44016, 302.22952 263.507728 302.22952 263.507728, 302.22952 201.35723 302.22952 201.35723, 302.22952 139.20597 302.22952 139.20597, 302.22952 77.055472 302.22952 77.055472, 302.22952 14.904212 302.22952 14.904212, 301.579026 12.972542 301.579026 12.972542, 299.951394 8.721598 299.951394 8.721598, 297.835828 4.47167 297.835828 4.47167, 295.720516 2.54 295.720516 2.54, 231.12984 2.54 231.12984 2.54, 166.539164 2.54 166.539164 2.54, 101.947726 2.54 101.947726 2.54, 37.357304 2.54 37.357304 2.54, 35.241738 4.47167 35.241738 4.47167, 33.127188 8.721598 33.127188 8.721598, 31.500318 12.972542 31.500318 12.972542, 30.849062 14.904212 30.849062 14.904212, 30.849062 77.055472 30.849062 77.055472, 30.849062 139.20597 30.849062 139.20597, 30.849062 201.35723 30.849062 201.35723, 30.849062 263.507728 30.849062 263.507728, 30.849062 263.507728"/>
      </g>
      <g>
        <polyline style="fill: gray;stroke: black;stroke-width: 1;" points="54.221888 204.093572, 50.912014 204.093572 50.912014 204.093572, 43.117008 204.093572 43.117008 204.093572, 34.041842 204.093572 34.041842 204.093572, 26.887932 204.093572 26.887932 204.093572, 21.4122 203.262738 21.4122 203.262738, 16.028162 200.737978 16.028162 200.737978, 11.9253 196.475604 11.9253 196.475604, 10.292842 190.427102 10.292842 190.427102, 10.292842 166.266622 10.292842 166.266622, 10.292842 142.105888 10.292842 142.105888, 10.292842 117.945408 10.292842 117.945408, 10.292842 93.784928 10.292842 93.784928, 11.9253 87.737188 11.9253 87.737188, 16.028162 83.473798 16.028162 83.473798, 21.4122 80.949292 21.4122 80.949292, 26.887932 80.118204 26.887932 80.118204, 34.041842 80.118204 34.041842 80.118204, 43.117008 80.118204 43.117008 80.118204, 50.912014 80.118204 50.912014 80.118204, 54.221888 80.118204 54.221888 80.118204, 54.221888 111.111792 54.221888 111.111792, 54.221888 142.105888 54.221888 142.105888, 54.221888 173.100238 54.221888 173.100238, 54.221888 204.093572 54.221888 204.093572, 54.221888 204.093572"/>
      </g>
      <g>
        <polyline style="fill: gray;stroke: black;stroke-width: 1;" points="54.221888 204.093572, 55.937404 205.54315 55.937404 205.54315, 59.895994 208.730596 59.895994 208.730596, 64.311276 211.918804 64.311276 211.918804, 67.40017 213.36762 67.40017 213.36762, 70.031102 214.588344 70.031102 214.588344, 73.440036 217.272616 73.440036 217.272616, 76.39177 219.957142 76.39177 219.957142, 77.649832 221.177104 77.649832 221.177104, 122.535442 221.177104 122.535442 221.177104, 167.421306 221.177104 167.421306 221.177104, 212.306916 221.177104 212.306916 221.177104, 257.192526 221.177104 257.192526 221.177104, 258.45135 219.957142 258.45135 219.957142, 261.402322 217.272616 261.402322 217.272616, 264.811256 214.588344 264.811256 214.588344, 267.44295 213.36762 267.44295 213.36762, 270.531082 211.918804 270.531082 211.918804, 274.947126 208.730596 274.947126 208.730596, 278.905208 205.54315 278.905208 205.54315, 280.621232 204.093572 280.621232 204.093572, 280.621232 173.100238 280.621232 173.100238, 280.621232 142.105888 280.621232 142.105888, 280.621232 111.111792 280.621232 111.111792, 280.621232 80.118204 280.621232 80.118204, 278.905208 78.668626 278.905208 78.668626, 274.947126 75.481434 274.947126 75.481434, 270.531082 72.293226 270.531082 72.293226, 267.44295 70.84441 267.44295 70.84441, 264.811256 69.623432 264.811256 69.623432, 261.402322 66.93916 261.402322 66.93916, 258.45135 64.254888 258.45135 64.254888, 257.192526 63.034926 257.192526 63.034926, 212.306916 63.034926 212.306916 63.034926, 167.421306 63.034926 167.421306 63.034926, 122.535442 63.034926 122.535442 63.034926, 77.649832 63.034926 77.649832 63.034926, 76.39177 64.254888 76.39177 64.254888, 73.440036 66.93916 73.440036 66.93916, 70.031102 69.623432 70.031102 69.623432, 67.40017 70.84441 67.40017 70.84441, 64.311276 72.293226 64.311276 72.293226, 59.895994 75.481434 59.895994 75.481434, 55.937404 78.668626 55.937404 78.668626, 54.221888 80.118204 54.221888 80.118204, 54.221888 111.111792 54.221888 111.111792, 54.221888 142.105888 54.221888 142.105888, 54.221888 173.100238 54.221888 173.100238, 54.221888 204.093572 54.221888 204.093572, 54.221888 204.093572"/>
      </g>
      <g>
        <polyline style="fill: gray;stroke: black;stroke-width: 1;" points="280.621232 204.093572, 283.931106 204.093572 283.931106 204.093572, 291.72535 204.093572 291.72535 204.093572, 300.80077 204.093572 300.80077 204.093572, 307.954426 204.093572 307.954426 204.093572, 313.430158 203.262738 313.430158 203.262738, 318.814196 200.737978 318.814196 200.737978, 322.917058 196.475604 322.917058 196.475604, 324.549516 190.427102 324.549516 190.427102, 324.549516 166.266622 324.549516 166.266622, 324.549516 142.105888 324.549516 142.105888, 324.549516 117.945408 324.549516 117.945408, 324.549516 93.784928 324.549516 93.784928, 322.917058 87.737188 322.917058 87.737188, 318.814196 83.473798 318.814196 83.473798, 313.430158 80.949292 313.430158 80.949292, 307.954426 80.118204 307.954426 80.118204, 300.80077 80.118204 300.80077 80.118204, 291.72535 80.118204 291.72535 80.118204, 283.931106 80.118204 283.931106 80.118204, 280.621232 80.118204 280.621232 80.118204, 280.621232 111.111792 280.621232 111.111792, 280.621232 142.105888 280.621232 142.105888, 280.621232 173.100238 280.621232 173.100238, 280.621232 204.093572 280.621232 204.093572, 280.621232 204.093572"/>
      </g>
      <g>
        <polyline style="fill: gray;stroke: black;stroke-width: 1;" points="275.81606 156.74848, 277.01748 156.74848 277.01748 156.74848, 278.218138 156.74848 278.218138 156.74848, 279.419812 156.74848 279.419812 156.74848, 280.62047 156.74848 280.62047 156.74848, 280.62047 147.597114 280.62047 147.597114, 280.62047 138.444986 280.62047 138.444986, 280.62047 129.29362 280.62047 129.29362, 280.62047 120.142254 280.62047 120.142254, 279.419812 120.142254 279.419812 120.142254, 278.218138 120.142254 278.218138 120.142254, 277.01748 120.142254 277.01748 120.142254, 275.81606 120.142254 275.81606 120.142254, 275.81606 129.29362 275.81606 129.29362, 275.81606 138.444986 275.81606 138.444986, 275.81606 147.597114 275.81606 147.597114, 275.81606 156.74848 275.81606 156.74848, 275.81606 156.74848"/>
      </g>
      <g>
        <polyline style="fill: gray;stroke: black;stroke-width: 1;" points="219.60713 71.820278, 233.639614 71.820278 233.639614 71.820278, 247.67286 71.820278 247.67286 71.820278, 261.705344 71.820278 261.705344 71.820278, 275.737828 71.820278 275.737828 71.820278, 275.791168 91.466416 275.791168 91.466416, 275.799042 135.273034 275.799042 135.273034, 275.532342 180.5432 275.532342 180.5432, 274.76196 204.582014 274.76196 204.582014, 271.909286 213.978236 271.909286 213.978236, 266.586462 227.03409 266.586462 227.03409, 260.347968 238.626396 260.347968 238.626396, 254.749808 243.62918 254.749808 243.62918, 243.04371 244.163342 243.04371 244.163342, 222.962724 245.337584 222.962724 245.337584, 202.79106 246.51208 202.79106 246.51208, 190.809626 247.045988 190.809626 247.045988, 179.236624 247.045988 179.236624 247.045988, 167.664638 247.045988 167.664638 247.045988, 156.091636 247.045988 156.091636 247.045988, 144.518634 247.045988 144.518634 247.045988, 132.537962 246.51208 132.537962 246.51208, 112.365536 245.337584 112.365536 245.337584, 92.285312 244.163342 92.285312 244.163342, 80.578452 243.62918 80.578452 243.62918, 74.981054 238.626396 74.981054 238.626396, 68.74256 227.03409 68.74256 227.03409, 63.418974 213.978236 63.418974 213.978236, 60.5663 204.582014 60.5663 204.582014, 59.795918 180.5432 59.795918 180.5432, 59.529218 135.273034 59.529218 135.273034, 59.536838 91.466416 59.536838 91.466416, 59.590432 71.820278 59.590432 71.820278, 73.623678 71.820278 73.623678 71.820278, 87.656162 71.820278 87.656162 71.820278, 101.688646 71.820278 101.688646 71.820278, 115.72113 71.820278 115.72113 71.820278, 141.692376 71.820278 141.692376 71.820278, 167.664638 71.820278 167.664638 71.820278, 193.635884 71.820278 193.635884 71.820278, 219.60713 71.820278 219.60713 71.820278, 219.60713 71.820278"/>
      </g>
      <g>
        <polyline style="fill: gray;stroke: black;stroke-width: 1;" points="54.709314 156.74848, 55.909972 156.74848 55.909972 156.74848, 57.111646 156.74848 57.111646 156.74848, 58.312304 156.74848 58.312304 156.74848, 59.512962 156.74848 59.512962 156.74848, 59.512962 147.597114 59.512962 147.597114, 59.512962 138.444986 59.512962 138.444986, 59.512962 129.29362 59.512962 129.29362, 59.512962 120.142254 59.512962 120.142254, 58.312304 120.142254 58.312304 120.142254, 57.111646 120.142254 57.111646 120.142254, 55.909972 120.142254 55.909972 120.142254, 54.709314 120.142254 54.709314 120.142254, 54.709314 129.29362 54.709314 129.29362, 54.709314 138.444986 54.709314 138.444986, 54.709314 147.597114 54.709314 147.597114, 54.709314 156.74848 54.709314 156.74848, 54.709314 156.74848"/>
      </g>
      <g>
        <polyline style="fill: transparent;stroke: black;stroke-width: 1;" points="59.10199 142.593568, 113.28019 142.593568 113.28019 142.593568, 167.459152 142.593568 167.459152 142.593568, 221.638114 142.593568 221.638114 142.593568, 275.81606 142.593568"/>
      </g>
      <g>
        <polyline style="fill: gray;stroke: black;stroke-width: 1;" points="138.173206 203.117704, 134.147306 203.117704 134.147306 203.117704, 130.12039 203.117704 130.12039 203.117704, 126.093474 203.117704 126.093474 203.117704, 122.066558 203.117704 122.066558 203.117704, 122.066558 191.525398 122.066558 191.525398, 122.066558 179.933092 122.066558 179.933092, 122.066558 168.340786 122.066558 168.340786, 122.066558 156.74848 122.066558 156.74848, 126.093474 156.74848 126.093474 156.74848, 130.12039 156.74848 130.12039 156.74848, 134.147306 156.74848 134.147306 156.74848, 138.173206 156.74848 138.173206 156.74848, 138.173206 168.340786 138.173206 168.340786, 138.173206 179.933092 138.173206 179.933092, 138.173206 191.525398 138.173206 191.525398, 138.173206 203.117704 138.173206 203.117704, 138.173206 203.117704"/>
      </g>
      <g>
        <polyline style="fill: gray;stroke: black;stroke-width: 1;" points="156.721048 203.117704, 152.694132 203.117704 152.694132 203.117704, 148.667216 203.117704 148.667216 203.117704, 144.6403 203.117704 144.6403 203.117704, 140.614146 203.117704 140.614146 203.117704, 140.614146 191.525398 140.614146 191.525398, 140.614146 179.933092 140.614146 179.933092, 140.614146 168.340786 140.614146 168.340786, 140.614146 156.74848 140.614146 156.74848, 144.6403 156.74848 144.6403 156.74848, 148.667216 156.74848 148.667216 156.74848, 152.694132 156.74848 152.694132 156.74848, 156.721048 156.74848 156.721048 156.74848, 156.721048 168.340786 156.721048 168.340786, 156.721048 179.933092 156.721048 179.933092, 156.721048 191.525398 156.721048 191.525398, 156.721048 203.117704 156.721048 203.117704, 156.721048 203.117704"/>
      </g>
      <g>
        <polyline style="fill: gray;stroke: black;stroke-width: 1;" points="212.363304 203.117704, 208.33715 203.117704 208.33715 203.117704, 204.310488 203.117704 204.310488 203.117704, 200.283572 203.117704 200.283572 203.117704, 196.256656 203.117704 196.256656 203.117704, 196.256656 191.525398 196.256656 191.525398, 196.256656 179.933092 196.256656 179.933092, 196.256656 168.340786 196.256656 168.340786, 196.256656 156.74848 196.256656 156.74848, 200.283572 156.74848 200.283572 156.74848, 204.310488 156.74848 204.310488 156.74848, 208.33715 156.74848 208.33715 156.74848, 212.363304 156.74848 212.363304 156.74848, 212.363304 168.340786 212.363304 168.340786, 212.363304 179.933092 212.363304 179.933092, 212.363304 191.525398 212.363304 191.525398, 212.363304 203.117704 212.363304 203.117704, 212.363304 203.117704"/>
      </g>
      <g>
        <polyline style="fill: gray;stroke: black;stroke-width: 1;" points="230.911146 203.117704, 226.884992 203.117704 226.884992 203.117704, 222.858076 203.117704 222.858076 203.117704, 218.83116 203.117704 218.83116 203.117704, 214.804244 203.117704 214.804244 203.117704, 214.804244 191.525398 214.804244 191.525398, 214.804244 179.933092 214.804244 179.933092, 214.804244 168.340786 214.804244 168.340786, 214.804244 156.74848 214.804244 156.74848, 218.83116 156.74848 218.83116 156.74848, 222.858076 156.74848 222.858076 156.74848, 226.884992 156.74848 226.884992 156.74848, 230.911146 156.74848 230.911146 156.74848, 230.911146 168.340786 230.911146 168.340786, 230.911146 179.933092 230.911146 179.933092, 230.911146 191.525398 230.911146 191.525398, 230.911146 203.117704 230.911146 203.117704, 230.911146 203.117704"/>
      </g>
      <g>
        <polyline style="fill: gray;stroke: black;stroke-width: 1;" points="197.721728 238.260636, 208.093056 238.260636 208.093056 238.260636, 218.4654 238.260636 218.4654 238.260636, 228.83749 238.260636 228.83749 238.260636, 239.209072 238.260636 239.209072 238.260636, 226.66706 232.445306 226.66706 232.445306, 206.231998 227.979732 206.231998 227.979732, 184.469786 225.11639 184.469786 225.11639, 167.94734 224.105724 167.94734 224.105724, 167.459152 224.105724 167.459152 224.105724, 166.97071 224.105724 166.97071 224.105724, 166.483284 224.105724 166.483284 224.105724, 165.994842 224.105724 165.994842 224.105724, 149.471888 225.11639 149.471888 225.11639, 127.710438 227.979732 127.710438 227.979732, 107.275122 232.445306 107.275122 232.445306, 94.733364 238.260636 94.733364 238.260636, 105.105454 238.260636 105.105454 238.260636, 115.477036 238.260636 115.477036 238.260636, 125.849126 238.260636 125.849126 238.260636, 136.22147 238.260636 136.22147 238.260636, 151.596598 238.260636 151.596598 238.260636, 166.97071 238.260636 166.97071 238.260636, 182.345838 238.260636 182.345838 238.260636, 197.721728 238.260636 197.721728 238.260636, 197.721728 238.260636"/>
      </g>
      <g>
        <polyline style="fill: gray;stroke: black;stroke-width: 1;" points="175.268636 203.117704, 171.242736 203.117704 171.242736 203.117704, 167.215058 203.117704 167.215058 203.117704, 163.188142 203.117704 163.188142 203.117704, 159.161988 203.117704 159.161988 203.117704, 159.161988 191.525398 159.161988 191.525398, 159.161988 179.933092 159.161988 179.933092, 159.161988 168.340786 159.161988 168.340786, 159.161988 156.74848 159.161988 156.74848, 163.188142 156.74848 163.188142 156.74848, 167.215058 156.74848 167.215058 156.74848, 171.242736 156.74848 171.242736 156.74848, 175.268636 156.74848 175.268636 156.74848, 175.268636 168.340786 175.268636 168.340786, 175.268636 179.933092 175.268636 179.933092, 175.268636 191.525398 175.268636 191.525398, 175.268636 203.117704 175.268636 203.117704, 175.268636 203.117704"/>
      </g>
      <g>
        <polyline style="fill: gray;stroke: black;stroke-width: 1;" points="193.816478 203.117704, 189.789562 203.117704 189.789562 203.117704, 185.762646 203.117704 185.762646 203.117704, 181.73573 203.117704 181.73573 203.117704, 177.709576 203.117704 177.709576 203.117704, 177.709576 191.525398 177.709576 191.525398, 177.709576 179.933092 177.709576 179.933092, 177.709576 168.340786 177.709576 168.340786, 177.709576 156.74848 177.709576 156.74848, 181.73573 156.74848 181.73573 156.74848, 185.762646 156.74848 185.762646 156.74848, 189.789562 156.74848 189.789562 156.74848, 193.816478 156.74848 193.816478 156.74848, 193.816478 168.340786 193.816478 168.340786, 193.816478 179.933092 193.816478 179.933092, 193.816478 191.525398 193.816478 191.525398, 193.816478 203.117704 193.816478 203.117704, 193.816478 203.117704"/>
      </g>
      <g>
        <polyline style="fill: gray;stroke: black;stroke-width: 1;" points="119.625618 203.117704, 115.599464 203.117704 115.599464 203.117704, 111.572548 203.117704 111.572548 203.117704, 107.545632 203.117704 107.545632 203.117704, 103.518716 203.117704 103.518716 203.117704, 103.518716 191.525398 103.518716 191.525398, 103.518716 179.933092 103.518716 179.933092, 103.518716 168.340786 103.518716 168.340786, 103.518716 156.74848 103.518716 156.74848, 107.545632 156.74848 107.545632 156.74848, 111.572548 156.74848 111.572548 156.74848, 115.599464 156.74848 115.599464 156.74848, 119.625618 156.74848 119.625618 156.74848, 119.625618 168.340786 119.625618 168.340786, 119.625618 179.933092 119.625618 179.933092, 119.625618 191.525398 119.625618 191.525398, 119.625618 203.117704 119.625618 203.117704, 119.625618 203.117704"/>
      </g>
    </g>
  </g>
</svg>
