<?xml version="1.0" encoding="utf-8"?>
<!-- Generator: www.crescit.com, SVG Export - SVG Version: 6.00 Build 1  -->
<!-- FXGUID: [D08ACC05-C77F-11ED-9253-525400685065] SYMID: [18768]  -->
<svg xmlns="http://www.w3.org/2000/svg" version="1.1" ch_offset="0" color_bar_width="66" width="403.24024" height="503.399552" origin_x="197.165468" origin_y="242.749832" ch_offset_x="198.9995258" ch_offset_y="40" color_offset_x="197.165468" color_offset_y="-4">
  <g>
    <title>Layer 1</title>
    <g>
      <g>
        <polyline style="fill: gray;stroke: black;stroke-width: 1;" points="200.453498 108.848144, 226.565206 109.28858 226.565206 109.28858, 252.836426 111.063532 252.836426 111.063532, 277.306278 114.85245 277.306278 114.85245, 298.01566 121.337324 298.01566 121.337324, 314.314078 121.850404 314.314078 121.850404, 330.612242 122.363738 330.612242 122.363738, 346.911168 122.876818 346.911168 122.876818, 363.209586 123.389898 363.209586 123.389898, 364.636558 123.970542 364.636558 123.970542, 367.85423 125.50521 367.85423 125.50521, 371.269514 127.68199 371.269514 127.68199, 373.287798 130.191002 373.287798 130.191002, 376.426476 142.589504 376.426476 142.589504, 382.308354 170.153076 382.308354 170.153076, 387.992366 206.144622 387.992366 206.144622, 390.54024 243.827554 390.54024 243.827554, 390.54024 245.131336 390.54024 245.131336, 390.54024 246.435118 390.54024 246.435118, 390.54024 247.7389 390.54024 247.7389, 390.54024 249.043444 390.54024 249.043444, 387.992366 286.72663 387.992366 286.72663, 382.308354 322.718176 382.308354 322.718176, 376.426476 350.280732 376.426476 350.280732, 373.287798 362.679996 373.287798 362.679996, 371.269514 365.1885 371.269514 365.1885, 367.85423 367.365788 367.85423 367.365788, 364.636558 368.899694 364.636558 368.899694, 363.209586 369.480338 363.209586 369.480338, 346.911168 369.993418 346.911168 369.993418, 330.612242 370.506752 330.612242 370.506752, 314.314078 371.019832 314.314078 371.019832, 298.01566 371.532912 298.01566 371.532912, 277.306278 378.017786 277.306278 378.017786, 252.836426 381.807466 252.836426 381.807466, 226.565206 383.58191 226.565206 383.58191, 200.453498 384.022092 200.453498 384.022092, 198.496174 384.022092 198.496174 384.022092, 196.539866 384.022092 196.539866 384.022092, 194.583304 384.022092 194.583304 384.022092, 192.626742 384.022092 192.626742 384.022092, 166.514526 383.58191 166.514526 383.58191, 140.244068 381.807466 140.244068 381.807466, 115.774216 378.017786 115.774216 378.017786, 95.06458 371.532912 95.06458 371.532912, 78.766416 371.019832 78.766416 371.019832, 62.467998 370.506752 62.467998 370.506752, 46.169072 369.993418 46.169072 369.993418, 29.870908 369.480338 29.870908 369.480338, 28.443936 368.899694 28.443936 368.899694, 25.226264 367.365788 25.226264 367.365788, 21.81098 365.1885 21.81098 365.1885, 19.792442 362.679996 19.792442 362.679996, 16.653002 350.280732 16.653002 350.280732, 10.77214 322.718176 10.77214 322.718176, 5.087874 286.72663 5.087874 286.72663, 2.54 249.043444 2.54 249.043444, 2.54 247.7389 2.54 247.7389, 2.54 246.435118 2.54 246.435118, 2.54 245.131336 2.54 245.131336, 2.54 243.827554 2.54 243.827554, 5.087874 206.144622 5.087874 206.144622, 10.77214 170.153076 10.77214 170.153076, 16.653002 142.589504 16.653002 142.589504, 19.792442 130.191002 19.792442 130.191002, 21.81098 127.68199 21.81098 127.68199, 25.226264 125.50521 25.226264 125.50521, 28.443936 123.970542 28.443936 123.970542, 29.870908 123.389898 29.870908 123.389898, 46.169072 122.876818 46.169072 122.876818, 62.467998 122.363738 62.467998 122.363738, 78.766416 121.850404 78.766416 121.850404, 95.06458 121.337324 95.06458 121.337324, 115.774216 114.85245 115.774216 114.85245, 140.244068 111.063532 140.244068 111.063532, 166.514526 109.28858 166.514526 109.28858, 192.626742 108.848144 192.626742 108.848144, 194.583304 108.848144 194.583304 108.848144, 196.539866 108.848144 196.539866 108.848144, 198.496174 108.848144 198.496174 108.848144, 200.453498 108.848144 200.453498 108.848144, 200.453498 108.848144"/>
      </g>
      <g>
        <polyline style="fill: gray;stroke: black;stroke-width: 1;" points="331.397356 309.09641, 341.619332 308.713632 341.619332 308.713632, 351.841054 308.331362 351.841054 308.331362, 362.06303 307.948584 362.06303 307.948584, 372.284752 307.565552 372.284752 307.565552, 374.056148 306.605178 374.056148 306.605178, 377.951238 302.25492 377.951238 302.25492, 381.846328 292.309804 381.846328 292.309804, 383.61747 274.568412 383.61747 274.568412, 383.61747 260.49478 383.61747 260.49478, 383.61747 246.421148 383.61747 246.421148, 383.61747 232.34777 383.61747 232.34777, 383.61747 218.274138 383.61747 218.274138, 381.846328 200.53173 381.846328 200.53173, 377.951238 190.587376 377.951238 190.587376, 374.056148 186.237372 374.056148 186.237372, 372.284752 185.275982 372.284752 185.275982, 362.06303 184.893966 362.06303 184.893966, 351.841054 184.510934 351.841054 184.510934, 341.619332 184.128918 341.619332 184.128918, 331.397356 183.745886 331.397356 183.745886, 331.397356 215.083644 331.397356 215.083644, 331.397356 246.421148 331.397356 246.421148, 331.397356 277.758906 331.397356 277.758906, 331.397356 309.09641 331.397356 309.09641, 331.397356 309.09641"/>
      </g>
      <g>
        <polyline style="fill: gray;stroke: black;stroke-width: 1;" points="61.689742 309.09641, 51.46802 308.713632 51.46802 308.713632, 41.246044 308.331362 41.246044 308.331362, 31.02356 307.948584 31.02356 307.948584, 20.801584 307.565552 20.801584 307.565552, 19.030442 306.605178 19.030442 306.605178, 15.13459 302.25492 15.13459 302.25492, 11.2395 292.309804 11.2395 292.309804, 9.468358 274.568412 9.468358 274.568412, 9.468358 260.49478 9.468358 260.49478, 9.468358 246.421148 9.468358 246.421148, 9.468358 232.34777 9.468358 232.34777, 9.468358 218.274138 9.468358 218.274138, 11.2395 200.53173 11.2395 200.53173, 15.13459 190.587376 15.13459 190.587376, 19.030442 186.237372 19.030442 186.237372, 20.801584 185.275982 20.801584 185.275982, 31.02356 184.893966 31.02356 184.893966, 41.246044 184.510934 41.246044 184.510934, 51.46802 184.128918 51.46802 184.128918, 61.689742 183.745886 61.689742 183.745886, 61.689742 215.083644 61.689742 215.083644, 61.689742 246.421148 61.689742 246.421148, 61.689742 277.758906 61.689742 277.758906, 61.689742 309.09641 61.689742 309.09641, 61.689742 309.09641"/>
      </g>
      <g>
        <polyline style="fill: gray;stroke: black;stroke-width: 1;" points="338.102448 311.539128, 342.45169 311.539128 342.45169 311.539128, 352.371152 311.539128 352.371152 311.539128, 363.171232 311.539128 363.171232 311.539128, 370.15928 311.539128 370.15928 311.539128, 374.198642 311.049924 374.198642 311.049924, 378.510038 309.680356 378.510038 309.680356, 381.941578 307.578252 381.941578 307.578252, 383.341372 304.89144 383.341372 304.89144, 383.341372 275.534374 383.341372 275.534374, 383.341372 246.177308 383.341372 246.177308, 383.341372 216.821004 383.341372 216.821004, 383.341372 187.463684 383.341372 187.463684, 381.941578 184.776364 381.941578 184.776364, 378.510038 182.674006 378.510038 182.674006, 374.198642 181.3052 374.198642 181.3052, 370.15928 180.815996 370.15928 180.815996, 363.171232 180.815996 363.171232 180.815996, 352.371152 180.815996 352.371152 180.815996, 342.45169 180.815996 342.45169 180.815996, 338.102448 180.815996 338.102448 180.815996, 338.102448 213.49716 338.102448 213.49716, 338.102448 246.17807 338.102448 246.17807, 338.102448 278.858218 338.102448 278.858218, 338.102448 311.539128 338.102448 311.539128, 338.102448 311.539128"/>
      </g>
      <g>
        <polyline style="fill: gray;stroke: black;stroke-width: 1;" points="54.159912 311.539128, 63.57112 313.542934 63.57112 313.542934, 72.981312 315.54674 72.981312 315.54674, 82.392266 317.550292 82.392266 317.550292, 91.802712 319.554098 91.802712 319.554098, 144.14119 319.554098 144.14119 319.554098, 196.479922 319.554098 196.479922 319.554098, 248.817892 319.554098 248.817892 319.554098, 301.156624 319.554098 301.156624 319.554098, 310.567578 317.550292 310.567578 317.550292, 319.97777 315.54674 319.97777 315.54674, 329.388978 313.542934 329.388978 313.542934, 338.79917 311.539128 338.79917 311.539128, 338.79917 278.858218 338.79917 278.858218, 338.79917 246.17807 338.79917 246.17807, 338.79917 213.49716 338.79917 213.49716, 338.79917 180.815996 338.79917 180.815996, 329.388978 178.812444 329.388978 178.812444, 319.97777 176.808638 319.97777 176.808638, 310.567578 174.804832 310.567578 174.804832, 301.156624 172.801026 301.156624 172.801026, 248.817892 172.801026 248.817892 172.801026, 196.479922 172.801026 196.479922 172.801026, 144.14119 172.801026 144.14119 172.801026, 91.802712 172.801026 91.802712 172.801026, 82.392266 174.804832 82.392266 174.804832, 72.981312 176.808638 72.981312 176.808638, 63.57112 178.812444 63.57112 178.812444, 54.159912 180.815996 54.159912 180.815996, 54.159912 213.49716 54.159912 213.49716, 54.159912 246.17807 54.159912 246.17807, 54.159912 278.858218 54.159912 278.858218, 54.159912 311.539128 54.159912 311.539128, 54.159912 311.539128"/>
      </g>
      <g>
        <polyline style="fill: gray;stroke: black;stroke-width: 1;" points="54.159912 311.539128, 49.811432 311.539128 49.811432 311.539128, 39.890954 311.539128 39.890954 311.539128, 29.090874 311.539128 29.090874 311.539128, 22.10308 311.539128 22.10308 311.539128, 18.063718 311.049924 18.063718 311.049924, 13.752322 309.680356 13.752322 309.680356, 10.320782 307.578252 10.320782 307.578252, 8.920734 304.89144 8.920734 304.89144, 8.920734 275.534374 8.920734 275.534374, 8.920734 246.177308 8.920734 246.177308, 8.920734 216.821004 8.920734 216.821004, 8.920734 187.463684 8.920734 187.463684, 10.320782 184.776364 10.320782 184.776364, 13.752322 182.674006 13.752322 182.674006, 18.063718 181.3052 18.063718 181.3052, 22.10308 180.815996 22.10308 180.815996, 29.090874 180.815996 29.090874 180.815996, 39.890954 180.815996 39.890954 180.815996, 49.811432 180.815996 49.811432 180.815996, 54.159912 180.815996 54.159912 180.815996, 54.159912 213.49716 54.159912 213.49716, 54.159912 246.17807 54.159912 246.17807, 54.159912 278.858218 54.159912 278.858218, 54.159912 311.539128 54.159912 311.539128, 54.159912 311.539128"/>
      </g>
      <g>
        <polyline style="fill: gray;stroke: black;stroke-width: 1;" points="332.775052 269.471648, 334.043274 269.471648 334.043274 269.471648, 335.312766 269.471648 335.312766 269.471648, 336.580988 269.471648 336.580988 269.471648, 337.84921 269.471648 337.84921 269.471648, 337.84921 256.344674 337.84921 256.344674, 337.84921 243.217446 337.84921 243.217446, 337.84921 230.090472 337.84921 230.090472, 337.84921 216.963244 337.84921 216.963244, 336.580988 216.963244 336.580988 216.963244, 335.312766 216.963244 335.312766 216.963244, 334.043274 216.963244 334.043274 216.963244, 332.775052 216.963244 332.775052 216.963244, 332.775052 230.090472 332.775052 230.090472, 332.775052 243.217446 332.775052 243.217446, 332.775052 256.344674 332.775052 256.344674, 332.775052 269.471648 332.775052 269.471648, 332.775052 269.471648"/>
      </g>
      <g>
        <polyline style="fill: gray;stroke: black;stroke-width: 1;" points="281.07132 490.698536, 289.969956 489.3691 289.969956 489.3691, 295.826942 486.443782 295.826942 486.443782, 299.0469 483.518464 299.0469 483.518464, 300.029626 482.189028 300.029626 482.189028, 310.835294 465.38769 310.835294 465.38769, 320.70294 443.89675 320.70294 443.89675, 327.89622 425.38015 327.89622 425.38015, 330.679044 417.504626 330.679044 417.504626, 330.837286 389.665972 330.837286 389.665972, 330.99375 361.82808 330.99375 361.82808, 331.151992 333.989426 331.151992 333.989426, 331.30998 306.151788 331.30998 306.151788, 331.675994 275.332698 331.675994 275.332698, 332.041754 244.515132 332.041754 244.515132, 332.409038 213.696042 332.409038 213.696042, 332.775052 182.877714 332.775052 182.877714, 330.665074 181.576218 330.665074 181.576218, 328.553572 180.27396 328.553572 180.27396, 326.443594 178.971956 326.443594 178.971956, 324.332092 177.67046 324.332092 177.67046, 320.995802 143.19504 320.995802 143.19504, 313.58078 86.531704 313.58078 86.531704, 306.150264 33.558226 306.150264 33.558226, 302.77054 10.150348 302.77054 10.150348, 298.848526 4.794758 298.848526 4.794758, 295.36644 2.73304 295.36644 2.73304, 292.873684 2.54 292.873684 2.54, 291.920168 2.79273 291.920168 2.79273, 271.950942 2.79273 271.950942 2.79273, 251.981462 2.79273 251.981462 2.79273, 232.012236 2.79273 232.012236 2.79273, 212.042756 2.79273 212.042756 2.79273, 204.212444 2.79273 204.212444 2.79273, 196.381878 2.79273 196.381878 2.79273, 188.552836 2.79273 188.552836 2.79273, 180.72227 2.79273 180.72227 2.79273, 160.753044 2.79273 160.753044 2.79273, 140.783564 2.79273 140.783564 2.79273, 120.814338 2.79273 120.814338 2.79273, 100.844858 2.79273 100.844858 2.79273, 99.891596 2.54 99.891596 2.54, 97.398586 2.73304 97.398586 2.73304, 93.915992 4.794758 93.915992 4.794758, 89.993724 10.150348 89.993724 10.150348, 86.613238 33.558226 86.613238 33.558226, 79.184246 86.531704 79.184246 86.531704, 71.768462 143.19504 71.768462 143.19504, 68.432172 177.67046 68.432172 177.67046, 66.321432 178.971956 66.321432 178.971956, 64.210692 180.27396 64.210692 180.27396, 62.099952 181.576218 62.099952 181.576218, 59.989212 182.877714 59.989212 182.877714, 60.355988 213.696042 60.355988 213.696042, 60.72251 244.515132 60.72251 244.515132, 61.089286 275.332698 61.089286 275.332698, 61.455046 306.151788 61.455046 306.151788, 61.613288 333.989426 61.613288 333.989426, 61.770514 361.82808 61.770514 361.82808, 61.927994 389.665972 61.927994 389.665972, 62.08522 417.504626 62.08522 417.504626, 64.868806 425.38015 64.868806 425.38015, 72.061578 443.89675 72.061578 443.89675, 81.92897 465.38769 81.92897 465.38769, 92.7354 482.189028 92.7354 482.189028, 93.719142 483.518464 93.719142 483.518464, 96.938338 486.443782 96.938338 486.443782, 102.795324 489.3691 102.795324 489.3691, 111.69396 490.698536 111.69396 490.698536, 154.037792 490.698536 154.037792 490.698536, 196.381878 490.698536 196.381878 490.698536, 238.726472 490.698536 238.726472 490.698536, 281.07132 490.698536 281.07132 490.698536, 281.07132 490.698536"/>
      </g>
      <g>
        <polyline style="fill: gray;stroke: black;stroke-width: 1;" points="55.409084 269.471648, 56.677814 269.471648 56.677814 269.471648, 57.946036 269.471648 57.946036 269.471648, 59.21502 269.471648 59.21502 269.471648, 60.482988 269.471648 60.482988 269.471648, 60.482988 256.344674 60.482988 256.344674, 60.482988 243.217446 60.482988 243.217446, 60.482988 230.090472 60.482988 230.090472, 60.482988 216.963244 60.482988 216.963244, 59.21502 216.963244 59.21502 216.963244, 57.946036 216.963244 57.946036 216.963244, 56.677814 216.963244 56.677814 216.963244, 55.409084 216.963244 55.409084 216.963244, 55.409084 230.090472 55.409084 230.090472, 55.409084 243.217446 55.409084 243.217446, 55.409084 256.344674 55.409084 256.344674, 55.409084 269.471648 55.409084 269.471648, 55.409084 269.471648"/>
      </g>
      <g>
        <polyline style="fill: transparent;stroke: black;stroke-width: 1;" points="330.81087 381.668782, 322.144644 381.668782 322.144644 381.668782, 313.478418 381.668782 313.478418 381.668782, 304.812446 381.668782 304.812446 381.668782, 296.14622 381.668782 296.14622 381.668782, 289.109404 376.987562 289.109404 376.987562, 282.072588 372.306596 282.072588 372.306596, 275.036026 367.625376 275.036026 367.625376, 267.99921 362.94441 267.99921 362.94441, 253.945644 362.94441 253.945644 362.94441, 239.892332 362.94441 239.892332 362.94441, 225.83902 362.94441 225.83902 362.94441, 211.785454 362.94441 211.785454 362.94441, 203.933298 362.94441 203.933298 362.94441, 196.081142 362.94441 196.081142 362.94441, 188.228732 362.94441 188.228732 362.94441, 180.376576 362.94441 180.376576 362.94441, 166.323264 362.94441 166.323264 362.94441, 152.27046 362.94441 152.27046 362.94441, 138.217148 362.94441 138.217148 362.94441, 124.164598 362.94441 124.164598 362.94441, 117.12702 367.625376 117.12702 367.625376, 110.090204 372.306596 110.090204 372.306596, 103.052626 376.987562 103.052626 376.987562, 96.01581 381.668782 96.01581 381.668782, 87.461344 381.668782 87.461344 381.668782, 78.906878 381.668782 78.906878 381.668782, 70.35292 381.668782 70.35292 381.668782, 61.798454 381.668782"/>
      </g>
      <g>
        <polyline style="fill: transparent;stroke: black;stroke-width: 1;" points="330.81087 366.76203, 322.144644 366.76203 322.144644 366.76203, 313.478418 366.76203 313.478418 366.76203, 304.812446 366.76203 304.812446 366.76203, 296.14622 366.76203 296.14622 366.76203, 289.109404 362.08081 289.109404 362.08081, 282.072588 357.399844 282.072588 357.399844, 275.036026 352.718624 275.036026 352.718624, 267.99921 348.037404 267.99921 348.037404, 253.945644 348.037404 253.945644 348.037404, 239.892332 348.037404 239.892332 348.037404, 225.83902 348.037404 225.83902 348.037404, 211.785454 348.037404 211.785454 348.037404, 203.933298 348.037404 203.933298 348.037404, 196.081142 348.037404 196.081142 348.037404, 188.228732 348.037404 188.228732 348.037404, 180.376576 348.037404 180.376576 348.037404, 166.323264 348.037404 166.323264 348.037404, 152.27046 348.037404 152.27046 348.037404, 138.217148 348.037404 138.217148 348.037404, 124.164598 348.037404 124.164598 348.037404, 117.12702 352.718624 117.12702 352.718624, 110.090204 357.399844 110.090204 357.399844, 103.052626 362.08081 103.052626 362.08081, 96.01581 366.76203 96.01581 366.76203, 87.462106 366.76203 87.462106 366.76203, 78.90764 366.76203 78.90764 366.76203, 70.35292 366.76203 70.35292 366.76203, 61.799216 366.76203"/>
      </g>
      <g>
        <polyline style="fill: transparent;stroke: black;stroke-width: 1;" points="331.679042 241.614452, 322.7959 241.614452 322.7959 241.614452, 313.912504 241.614452 313.912504 241.614452, 305.029362 241.614452 305.029362 241.614452, 296.14622 241.614452 296.14622 241.614452, 289.109404 246.295672 289.109404 246.295672, 282.072588 250.976638 282.072588 250.976638, 275.036026 255.657858 275.036026 255.657858, 267.99921 260.339078 267.99921 260.339078, 253.945644 260.339078 253.945644 260.339078, 239.892332 260.339078 239.892332 260.339078, 225.83902 260.339078 225.83902 260.339078, 211.785454 260.339078 211.785454 260.339078, 203.933298 260.339078 203.933298 260.339078, 196.081142 260.339078 196.081142 260.339078, 188.228732 260.339078 188.228732 260.339078, 180.376576 260.339078 180.376576 260.339078, 166.323264 260.339078 166.323264 260.339078, 152.27046 260.339078 152.27046 260.339078, 138.217148 260.339078 138.217148 260.339078, 124.164598 260.339078 124.164598 260.339078, 117.12702 255.657858 117.12702 255.657858, 110.090204 250.976638 110.090204 250.976638, 103.052626 246.295672 103.052626 246.295672, 96.01581 241.614452 96.01581 241.614452, 87.132668 241.614452 87.132668 241.614452, 78.249526 241.614452 78.249526 241.614452, 69.366384 241.614452 69.366384 241.614452, 60.482988 241.614452"/>
      </g>
      <g>
        <polyline style="fill: transparent;stroke: black;stroke-width: 1;" points="88.38692 21.22805, 142.384272 21.22805 142.384272 21.22805, 196.383402 21.22805 196.383402 21.22805, 250.381516 21.22805 250.381516 21.22805, 304.37836 21.22805"/>
      </g>
      <g>
        <polyline style="fill: transparent;stroke: black;stroke-width: 1;" points="331.679042 253.24562, 322.7959 253.24562 322.7959 253.24562, 313.912504 253.24562 313.912504 253.24562, 305.029362 253.24562 305.029362 253.24562, 296.14622 253.24562 296.14622 253.24562, 289.109404 257.92684 289.109404 257.92684, 282.072588 262.607806 282.072588 262.607806, 275.036026 267.289026 275.036026 267.289026, 267.99921 271.969992 267.99921 271.969992, 253.945644 271.969992 253.945644 271.969992, 239.892332 271.969992 239.892332 271.969992, 225.83902 271.969992 225.83902 271.969992, 211.785454 271.969992 211.785454 271.969992, 203.933298 271.969992 203.933298 271.969992, 196.081142 271.969992 196.081142 271.969992, 188.228732 271.969992 188.228732 271.969992, 180.376576 271.969992 180.376576 271.969992, 166.323264 271.969992 166.323264 271.969992, 152.27046 271.969992 152.27046 271.969992, 138.217148 271.969992 138.217148 271.969992, 124.164598 271.969992 124.164598 271.969992, 117.12702 267.289026 117.12702 267.289026, 110.090204 262.607806 110.090204 262.607806, 103.052626 257.92684 103.052626 257.92684, 96.01581 253.24562 96.01581 253.24562, 87.132668 253.24562 87.132668 253.24562, 78.249526 253.24562 78.249526 253.24562, 69.366384 253.24562 69.366384 253.24562, 60.482988 253.24562"/>
      </g>
      <g>
        <polyline style="fill: gray;stroke: black;stroke-width: 1;" points="287.427416 329.654916, 241.842544 329.654916 241.842544 329.654916, 196.259196 329.654916 196.259196 329.654916, 150.674578 329.654916 150.674578 329.654916, 105.089706 329.654916 105.089706 329.654916, 105.089706 320.497454 105.089706 320.497454, 105.089706 311.339738 105.089706 311.339738, 105.089706 302.183038 105.089706 302.183038, 105.089706 293.025322 105.089706 293.025322, 150.674578 293.025322 150.674578 293.025322, 196.259196 293.025322 196.259196 293.025322, 241.842544 293.025322 241.842544 293.025322, 287.427416 293.025322 287.427416 293.025322, 287.427416 302.183038 287.427416 302.183038, 287.427416 311.339738 287.427416 311.339738, 287.427416 320.497454 287.427416 320.497454, 287.427416 329.654916 287.427416 329.654916, 287.427416 329.654916"/>
      </g>
    </g>
  </g>
</svg>
