<?xml version="1.0" encoding="utf-8"?>
<!-- Generator: SVG Export - SVG Version: 6.00 Build 1  -->
<!-- FXGUID: [8CEC7623-A3B1-11E7-AC16-525400685065] SYMID: [14190]  -->
<svg xmlns="http://www.w3.org/2000/svg" version="1.1" ch_offset="0" color_bar_width="66" width="255.860804" height="540.576516" origin_x="121.679208" origin_y="176.586896" ch_offset_x="122.1713838" ch_offset_y="40" color_offset_x="121.679208" color_offset_y="-4" fxtype_offset_x="123.8119444" fxtype_offset_y="565.308496" fxtype_offset_value="H605FC">
  <g>
    <title>Layer 1</title>
    <g>
      <g>
        <polyline style="fill: gray;stroke: black;stroke-width: 1;" points="239.02162 139.12088, 228.153976 139.12088 228.153976 139.12088, 228.153976 166.337742 228.153976 166.337742, 221.168468 166.337742 221.168468 166.337742, 221.168468 142.768066 221.168468 142.768066, 212.63102 142.768066 212.63102 142.768066, 212.63102 149.783038 212.63102 149.783038, 208.231994 149.783038 208.231994 149.783038, 208.231994 202.253596 208.231994 202.253596, 212.63102 202.253596 212.63102 202.253596, 212.63102 209.267806 212.63102 209.267806, 221.168468 209.267806 221.168468 209.267806, 221.168468 185.697876 221.168468 185.697876, 228.153976 185.697876 228.153976 185.697876, 228.153976 212.915754 228.153976 212.915754, 239.02162 212.915754 239.02162 212.915754, 243.160804 189.90691 243.160804 189.90691, 243.160804 162.128708 243.160804 162.128708, 239.02162 139.12088"/>
      </g>
      <g>
        <polyline style="fill: gray;stroke: black;stroke-width: 1;" points="6.679946 139.12088, 17.546828 139.12088 17.546828 139.12088, 17.546828 166.337742 17.546828 166.337742, 24.532336 166.337742 24.532336 166.337742, 24.532336 142.768066 24.532336 142.768066, 33.070546 142.768066 33.070546 142.768066, 33.070546 149.783038 33.070546 149.783038, 37.46881 149.783038 37.46881 149.783038, 37.46881 202.253596 37.46881 202.253596, 33.070546 202.253596 33.070546 202.253596, 33.070546 209.267806 33.070546 209.267806, 24.532336 209.267806 24.532336 209.267806, 24.532336 185.697876 24.532336 185.697876, 17.546828 185.697876 17.546828 185.697876, 17.546828 212.915754 17.546828 212.915754, 6.679946 212.915754 6.679946 212.915754, 2.54 189.90691 2.54 189.90691, 2.54 162.128708 2.54 162.128708, 6.679946 139.12088"/>
      </g>
      <g>
        <polyline style="fill: gray;stroke: black;stroke-width: 1;" points="221.168468 209.267806, 24.532336 209.267806 24.532336 209.267806, 24.532336 142.768066 24.532336 142.768066, 221.168468 142.768066 221.168468 142.768066, 221.168468 209.267806"/>
      </g>
      <g>
        <polyline style="fill: gray;stroke: black;stroke-width: 1;" points="200.478136 2.54, 208.24063 8.4328 208.24063 8.4328, 208.24063 316.550294 208.24063 316.550294, 198.148956 327.494646 198.148956 327.494646, 47.551848 327.494646 47.551848 327.494646, 37.460174 316.550294 37.460174 316.550294, 37.460174 8.4328 37.460174 8.4328, 45.222668 2.54 45.222668 2.54, 200.478136 2.54"/>
      </g>
      <g>
        <polyline style="fill: gray;stroke: black;stroke-width: 1;" points="135.786876 327.536556, 135.527796 411.05709 135.527796 411.05709, 131.388612 416.242754 131.388612 416.242754, 130.09499 474.379036 130.09499 474.379036, 127.507492 474.379036 127.507492 474.379036, 126.472696 527.876516 126.472696 527.876516, 119.228108 527.876516 119.228108 527.876516, 118.193312 474.379036 118.193312 474.379036, 115.605814 474.379036 115.605814 474.379036, 114.312192 416.242754 114.312192 416.242754, 110.172754 411.05709 110.172754 411.05709, 109.913928 327.536556 109.913928 327.536556, 135.786876 327.536556"/>
      </g>
      <g>
        <polyline style="fill: gray;stroke: black;stroke-width: 1;" points="56.669178 327.536556, 47.764192 327.536556 47.764192 327.536556, 47.764192 2.716784 47.764192 2.716784, 56.669178 2.716784 56.669178 2.716784, 56.669178 327.536556"/>
      </g>
      <g>
        <polyline style="fill: gray;stroke: black;stroke-width: 1;" points="76.849986 327.536556, 67.945254 327.536556 67.945254 327.536556, 67.945254 2.716784 67.945254 2.716784, 76.849986 2.716784 76.849986 2.716784, 76.849986 327.536556"/>
      </g>
      <g>
        <polyline style="fill: gray;stroke: black;stroke-width: 1;" points="97.031048 327.536556, 88.126824 327.536556 88.126824 327.536556, 88.126824 2.716784 88.126824 2.716784, 97.031048 2.716784 97.031048 2.716784, 97.031048 327.536556"/>
      </g>
      <g>
        <polyline style="fill: gray;stroke: black;stroke-width: 1;" points="117.211856 327.536556, 108.307886 327.536556 108.307886 327.536556, 108.307886 2.716784 108.307886 2.716784, 117.211856 2.716784 117.211856 2.716784, 117.211856 327.536556"/>
      </g>
      <g>
        <polyline style="fill: gray;stroke: black;stroke-width: 1;" points="137.39368 327.536556, 128.488694 327.536556 128.488694 327.536556, 128.488694 2.716784 128.488694 2.716784, 137.39368 2.716784 137.39368 2.716784, 137.39368 327.536556"/>
      </g>
      <g>
        <polyline style="fill: gray;stroke: black;stroke-width: 1;" points="157.574742 327.536556, 148.669756 327.536556 148.669756 327.536556, 148.669756 2.716784 148.669756 2.716784, 157.574742 2.716784 157.574742 2.716784, 157.574742 327.536556"/>
      </g>
      <g>
        <polyline style="fill: gray;stroke: black;stroke-width: 1;" points="177.75555 327.536556, 168.85158 327.536556 168.85158 327.536556, 168.85158 2.716784 168.85158 2.716784, 177.75555 2.716784 177.75555 2.716784, 177.75555 327.536556"/>
      </g>
      <g>
        <polyline style="fill: gray;stroke: black;stroke-width: 1;" points="197.936612 327.536556, 189.032388 327.536556 189.032388 327.536556, 189.032388 2.716784 189.032388 2.716784, 197.936612 2.716784 197.936612 2.716784, 197.936612 327.536556"/>
      </g>
    </g>
  </g>
</svg>
