<?xml version="1.0" encoding="utf-8"?>
<!-- Generator: www.crescit.com, SVG Export - SVG Version: 6.00 Build 1  -->
<!-- FXGUID: [C575E557-746D-11EC-A9C9-525400685065] SYMID: [17702]  -->
<svg xmlns="http://www.w3.org/2000/svg" version="1.1" ch_offset="0" color_bar_width="66" width="864.21976" height="154.239976" origin_x="404.53818" origin_y="61.467746" ch_offset_x="403.6944682" ch_offset_y="40" color_offset_x="404.53818" color_offset_y="-4">
  <g>
    <title>Layer 1</title>
    <g>
      <g>
        <polyline style="fill: gray;stroke: black;stroke-width: 1;" points="828.73088 70.277736, 833.17588 70.277736 833.17588 70.277736, 833.17588 55.05069 833.17588 55.05069, 805.65752 55.05069 805.65752 55.05069, 805.65752 58.096404 805.65752 58.096404, 798.60394 58.096404 798.60394 58.096404, 798.60394 38.605968 798.60394 38.605968, 792.95752 38.605968 792.95752 38.605968, 792.95752 30.07868 792.95752 30.07868, 776.96314 30.07868 776.96314 30.07868, 776.96314 38.605968 776.96314 38.605968, 755.32488 38.605968 755.32488 38.605968, 755.32488 83.67776 755.32488 83.67776, 776.96314 83.67776 776.96314 83.67776, 776.96314 92.205048 776.96314 92.205048, 792.95752 92.205048 792.95752 92.205048, 792.95752 83.67776 792.95752 83.67776, 798.60394 83.67776 798.60394 83.67776, 798.60394 66.928238 798.60394 66.928238, 805.65752 66.928238 805.65752 66.928238, 805.65752 70.277736 805.65752 70.277736, 812.53076 70.277736 812.53076 70.277736, 833.17588 121.505726 833.17588 121.505726, 833.17588 132.404104 833.17588 132.404104, 844.46364 136.667494 844.46364 136.667494, 851.51976 128.140206 851.51976 128.140206, 828.73088 70.277736"/>
      </g>
      <g>
        <polyline style="fill: gray;stroke: black;stroke-width: 1;" points="31.23438 39.127684, 31.23438 30.601158 31.23438 30.601158, 15.24 30.601158 15.24 30.601158, 15.24 39.127684 15.24 39.127684, 9.59612 39.127684 9.59612 39.127684, 9.59612 51.553364 9.59612 51.553364, 2.54 51.553364 2.54 51.553364, 2.54 71.773796 2.54 71.773796, 9.59612 71.773796 9.59612 71.773796, 9.59612 84.199476 9.59612 84.199476, 15.24 84.199476 15.24 84.199476, 15.24 92.726764 15.24 92.726764, 31.23438 92.726764 31.23438 92.726764, 31.23438 84.199476 31.23438 84.199476, 52.87264 84.199476 52.87264 84.199476, 52.87264 39.127684 52.87264 39.127684, 31.23438 39.127684"/>
      </g>
      <g>
        <polyline style="fill: gray;stroke: black;stroke-width: 1;" points="798.87064 52.253388, 481.80117 52.253388 481.80117 52.253388, 481.80117 47.761398 481.80117 47.761398, 326.578722 47.761398 326.578722 47.761398, 326.578722 52.253388 326.578722 52.253388, 9.50976 52.253388 9.50976 52.253388, 9.50976 71.07301 9.50976 71.07301, 326.578722 71.07301 326.578722 71.07301, 326.578722 75.565762 326.578722 75.565762, 481.80117 75.565762 481.80117 75.565762, 481.80117 71.07301 481.80117 71.07301, 798.87064 71.07301 798.87064 71.07301, 798.87064 52.253388"/>
      </g>
      <g>
        <polyline style="fill: gray;stroke: black;stroke-width: 1;" points="52.52212 2.54, 52.52212 119.494808 52.52212 119.494808, 91.5035 119.494808 91.5035 119.494808, 91.5035 106.102658 91.5035 106.102658, 244.279928 106.102658 244.279928 106.102658, 244.114828 141.539976 244.114828 141.539976, 563.379112 141.539976 563.379112 141.539976, 563.386732 106.102658 563.386732 106.102658, 716.3435 106.102658 716.3435 106.102658, 716.3435 119.494808 716.3435 119.494808, 755.32488 119.494808 755.32488 119.494808, 755.32488 2.54 755.32488 2.54, 52.52212 2.54"/>
      </g>
      <g>
        <polyline style="fill: gray;stroke: black;stroke-width: 1;" points="91.46286 2.54, 91.46286 106.102658 91.46286 106.102658, 244.287548 106.102658 244.287548 106.102658, 244.287548 51.396646 244.287548 51.396646, 563.386732 51.396646 563.386732 51.396646, 563.386732 106.102658 563.386732 106.102658, 716.21142 106.102658 716.21142 106.102658, 716.21142 2.54 716.21142 2.54, 91.46286 2.54"/>
      </g>
    </g>
  </g>
</svg>
