<?xml version="1.0" encoding="utf-8"?>
<!-- Generator: SVG Export - SVG Version: 6.00 Build 1  -->
<!-- FXGUID: [355ECD9B-A2CC-11ED-9E97-525400685065] SYMID: [18591]  -->
<svg xmlns="http://www.w3.org/2000/svg" version="1.1" ch_offset="0" color_bar_width="66" width="476.23984" height="745.66526" origin_x="234.214162" origin_y="387.88848" ch_offset_x="236.0459338" ch_offset_y="40" color_offset_x="234.214162" color_offset_y="-4">
  <g>
    <title>Layer 1</title>
    <g>
      <g>
        <polyline style="fill: gray;stroke: black;stroke-width: 1;" points="117.00256 408.648916, 117.00256 398.440402 117.00256 398.440402, 117.00256 388.231634 117.00256 388.231634, 117.00256 378.022866 117.00256 378.022866, 117.00256 367.81359 117.00256 367.81359, 174.675038 367.81359 174.675038 367.81359, 232.347516 367.81359 232.347516 367.81359, 290.019994 367.81359 290.019994 367.81359, 347.692472 367.81359 347.692472 367.81359, 347.692472 378.022866 347.692472 378.022866, 347.692472 388.231634 347.692472 388.231634, 347.692472 398.440402 347.692472 398.440402, 347.692472 408.648916 347.692472 408.648916, 290.019994 408.648916 290.019994 408.648916, 232.347516 408.648916 232.347516 408.648916, 174.675038 408.648916 174.675038 408.648916, 117.00256 408.648916 117.00256 408.648916, 117.00256 408.648916"/>
      </g>
      <g>
        <polyline style="fill: gray;stroke: black;stroke-width: 1;" points="356.851458 408.648916, 355.277166 408.648916 355.277166 408.648916, 353.702874 408.648916 353.702874 408.648916, 352.128582 408.648916 352.128582 408.648916, 350.55429 408.648916 350.55429 408.648916, 350.55429 398.440402 350.55429 398.440402, 350.55429 388.231634 350.55429 388.231634, 350.55429 378.022866 350.55429 378.022866, 350.55429 367.81359 350.55429 367.81359, 352.128582 367.81359 352.128582 367.81359, 353.702874 367.81359 353.702874 367.81359, 355.277166 367.81359 355.277166 367.81359, 356.851458 367.81359 356.851458 367.81359, 356.851458 378.022866 356.851458 378.022866, 356.851458 388.231634 356.851458 388.231634, 356.851458 398.440402 356.851458 398.440402, 356.851458 408.648916 356.851458 408.648916, 356.851458 408.648916"/>
      </g>
      <g>
        <polyline style="fill: gray;stroke: black;stroke-width: 1;" points="350.55429 393.669266, 349.838772 393.669266 349.838772 393.669266, 349.123254 393.669266 349.123254 393.669266, 348.40799 393.669266 348.40799 393.669266, 347.692472 393.669266 347.692472 393.669266, 347.692472 390.949942 347.692472 390.949942, 347.692472 388.231634 347.692472 388.231634, 347.692472 385.51231 347.692472 385.51231, 347.692472 382.79324 347.692472 382.79324, 348.40799 382.79324 348.40799 382.79324, 349.123254 382.79324 349.123254 382.79324, 349.838772 382.79324 349.838772 382.79324, 350.55429 382.79324 350.55429 382.79324, 350.55429 385.51231 350.55429 385.51231, 350.55429 388.231634 350.55429 388.231634, 350.55429 390.949942 350.55429 390.949942, 350.55429 393.669266 350.55429 393.669266, 350.55429 393.669266"/>
      </g>
      <g>
        <polyline style="fill: gray;stroke: black;stroke-width: 1;" points="107.843574 408.648916, 109.417866 408.648916 109.417866 408.648916, 110.991396 408.648916 110.991396 408.648916, 112.565688 408.648916 112.565688 408.648916, 114.13998 408.648916 114.13998 408.648916, 114.13998 398.440402 114.13998 398.440402, 114.13998 388.231634 114.13998 388.231634, 114.13998 378.022866 114.13998 378.022866, 114.13998 367.81359 114.13998 367.81359, 112.565688 367.81359 112.565688 367.81359, 110.991396 367.81359 110.991396 367.81359, 109.417866 367.81359 109.417866 367.81359, 107.843574 367.81359 107.843574 367.81359, 107.843574 378.022866 107.843574 378.022866, 107.843574 388.231634 107.843574 388.231634, 107.843574 398.440402 107.843574 398.440402, 107.843574 408.648916 107.843574 408.648916, 107.843574 408.648916"/>
      </g>
      <g>
        <polyline style="fill: gray;stroke: black;stroke-width: 1;" points="114.13998 393.669266, 114.855498 393.669266 114.855498 393.669266, 115.571016 393.669266 115.571016 393.669266, 116.28628 393.669266 116.28628 393.669266, 117.00256 393.669266 117.00256 393.669266, 117.00256 390.949942 117.00256 390.949942, 117.00256 388.231634 117.00256 388.231634, 117.00256 385.51231 117.00256 385.51231, 117.00256 382.79324 117.00256 382.79324, 116.28628 382.79324 116.28628 382.79324, 115.571016 382.79324 115.571016 382.79324, 114.855498 382.79324 114.855498 382.79324, 114.13998 382.79324 114.13998 382.79324, 114.13998 385.51231 114.13998 385.51231, 114.13998 388.231634 114.13998 388.231634, 114.13998 390.949942 114.13998 390.949942, 114.13998 393.669266 114.13998 393.669266, 114.13998 393.669266"/>
      </g>
      <g>
        <polyline style="fill: gray;stroke: black;stroke-width: 1;" points="237.785148 388.231634, 237.358174 390.347708 237.358174 390.347708, 236.192314 392.076432 236.192314 392.076432, 234.46359 393.242292 234.46359 393.242292, 232.347516 393.669266 232.347516 393.669266, 230.23068 393.242292 230.23068 393.242292, 228.501956 392.076432 228.501956 392.076432, 227.336858 390.347708 227.336858 390.347708, 226.909122 388.231634 226.909122 388.231634, 227.336858 386.114798 227.336858 386.114798, 228.501956 384.386074 228.501956 384.386074, 230.23068 383.220976 230.23068 383.220976, 232.347516 382.79324 232.347516 382.79324, 234.46359 383.220976 234.46359 383.220976, 236.192314 384.386074 236.192314 384.386074, 237.358174 386.114798 237.358174 386.114798, 237.785148 388.231634 237.785148 388.231634, 237.785148 388.231634"/>
      </g>
      <g>
        <polyline style="fill: gray;stroke: black;stroke-width: 1;" points="260.198616 388.231634, 259.770626 390.347708 259.770626 390.347708, 258.605528 392.076432 258.605528 392.076432, 256.877058 393.242292 256.877058 393.242292, 254.760984 393.669266 254.760984 393.669266, 252.643894 393.242292 252.643894 393.242292, 250.915424 392.076432 250.915424 392.076432, 249.749564 390.347708 249.749564 390.347708, 249.322336 388.231634 249.322336 388.231634, 249.749564 386.114798 249.749564 386.114798, 250.915424 384.386074 250.915424 384.386074, 252.643894 383.220976 252.643894 383.220976, 254.760984 382.79324 254.760984 382.79324, 256.877058 383.220976 256.877058 383.220976, 258.605528 384.386074 258.605528 384.386074, 259.770626 386.114798 259.770626 386.114798, 260.198616 388.231634 260.198616 388.231634, 260.198616 388.231634"/>
      </g>
      <g>
        <polyline style="fill: gray;stroke: black;stroke-width: 1;" points="214.408258 388.231634, 213.981284 390.347708 213.981284 390.347708, 212.815424 392.076432 212.815424 392.076432, 211.0867 393.242292 211.0867 393.242292, 208.970626 393.669266 208.970626 393.669266, 206.85379 393.242292 206.85379 393.242292, 205.125066 392.076432 205.125066 392.076432, 203.959206 390.347708 203.959206 390.347708, 203.532232 388.231634 203.532232 388.231634, 203.959206 386.114798 203.959206 386.114798, 205.125066 384.386074 205.125066 384.386074, 206.85379 383.220976 206.85379 383.220976, 208.970626 382.79324 208.970626 382.79324, 211.0867 383.220976 211.0867 383.220976, 212.815424 384.386074 212.815424 384.386074, 213.981284 386.114798 213.981284 386.114798, 214.408258 388.231634 214.408258 388.231634, 214.408258 388.231634"/>
      </g>
      <g>
        <polyline style="fill: gray;stroke: black;stroke-width: 1;" points="250.595384 732.96526, 260.135116 732.96526 260.135116 732.96526, 269.67561 732.96526 269.67561 732.96526, 279.216104 732.96526 279.216104 732.96526, 288.755836 732.96526 288.755836 732.96526, 296.48404 730.77324 296.48404 730.77324, 304.211482 728.57868 304.211482 728.57868, 311.939686 726.38412 311.939686 726.38412, 319.667128 724.18956 319.667128 724.18956, 324.533514 698.7159 324.533514 698.7159, 329.399138 673.24478 329.399138 673.24478, 334.264 647.77112 334.264 647.77112, 339.130386 622.296952 339.130386 622.296952, 340.513162 548.357298 340.513162 548.357298, 341.897716 474.417644 341.897716 474.417644, 343.280492 400.477228 343.280492 400.477228, 344.664792 326.537574 344.664792 326.537574, 358.594152 326.537574 358.594152 326.537574, 372.521988 326.537574 372.521988 326.537574, 386.451602 326.537574 386.451602 326.537574, 400.380962 326.537574 400.380962 326.537574, 400.380962 327.682352 400.380962 327.682352, 400.380962 328.828146 400.380962 328.828146, 400.380962 329.973686 400.380962 329.973686, 400.380962 331.118718 400.380962 331.118718, 416.170618 331.118718 416.170618 331.118718, 431.960274 331.118718 431.960274 331.118718, 447.750184 331.118718 447.750184 331.118718, 463.53984 331.118718 463.53984 331.118718, 463.53984 328.35215 463.53984 328.35215, 463.53984 325.58482 463.53984 325.58482, 463.53984 322.817744 463.53984 322.817744, 463.53984 320.050414 463.53984 320.050414, 447.79819 320.050414 447.79819 320.050414, 432.05654 320.050414 432.05654 320.050414, 416.31489 320.050414 416.31489 320.050414, 400.572986 320.050414 400.572986 320.050414, 400.572986 321.195192 400.572986 321.195192, 400.572986 322.340224 400.572986 322.340224, 400.572986 323.485002 400.572986 323.485002, 400.572986 324.630034 400.572986 324.630034, 386.643626 324.630034 386.643626 324.630034, 372.714266 324.630034 372.714266 324.630034, 358.783382 324.630034 358.783382 324.630034, 344.854022 324.630034 344.854022 324.630034, 345.28506 256.128774 345.28506 256.128774, 345.71432 187.627514 345.71432 187.627514, 346.143834 119.126 346.143834 119.126, 346.573348 50.62474 346.573348 50.62474, 350.580706 50.62474 350.580706 50.62474, 354.588318 50.62474 354.588318 50.62474, 358.59593 50.62474 358.59593 50.62474, 362.601764 50.62474 362.601764 50.62474, 362.601764 41.61028 362.601764 41.61028, 362.601764 32.59328 362.601764 32.59328, 362.601764 23.57882 362.601764 23.57882, 362.601764 14.56182 362.601764 14.56182, 360.456226 14.56182 360.456226 14.56182, 358.30891 14.56182 358.30891 14.56182, 356.161848 14.56182 356.161848 14.56182, 354.01631 14.56182 354.01631 14.56182, 354.01631 11.557 354.01631 11.557, 354.01631 8.54964 354.01631 8.54964, 354.01631 5.54482 354.01631 5.54482, 354.01631 2.54 354.01631 2.54, 349.721932 2.54 349.721932 2.54, 345.429078 2.54 345.429078 2.54, 341.136478 2.54 341.136478 2.54, 336.8421 2.54 336.8421 2.54, 336.8421 4.1148 336.8421 4.1148, 336.8421 5.6896 336.8421 5.6896, 336.8421 7.2644 336.8421 7.2644, 336.8421 8.83666 336.8421 8.83666, 315.233304 8.83666 315.233304 8.83666, 293.623746 8.83666 293.623746 8.83666, 272.014188 8.83666 272.014188 8.83666, 250.405646 8.83666 250.405646 8.83666, 250.405646 7.2644 250.405646 7.2644, 250.405646 5.6896 250.405646 5.6896, 250.405646 4.1148 250.405646 4.1148, 250.405646 2.54 250.405646 2.54, 246.064024 2.54 246.064024 2.54, 241.723164 2.54 241.723164 2.54, 237.381542 2.54 237.381542 2.54, 233.03992 2.54 233.03992 2.54, 228.698298 2.54 228.698298 2.54, 224.357438 2.54 224.357438 2.54, 220.016578 2.54 220.016578 2.54, 215.674956 2.54 215.674956 2.54, 215.674956 4.1148 215.674956 4.1148, 215.674956 5.6896 215.674956 5.6896, 215.674956 7.2644 215.674956 7.2644, 215.674956 8.83666 215.674956 8.83666, 194.065652 8.83666 194.065652 8.83666, 172.456094 8.83666 172.456094 8.83666, 150.847298 8.83666 150.847298 8.83666, 129.23774 8.83666 129.23774 8.83666, 129.23774 7.2644 129.23774 7.2644, 129.23774 5.6896 129.23774 5.6896, 129.23774 4.1148 129.23774 4.1148, 129.23774 2.54 129.23774 2.54, 124.944124 2.54 124.944124 2.54, 120.651524 2.54 120.651524 2.54, 116.357908 2.54 116.357908 2.54, 112.065054 2.54 112.065054 2.54, 112.065054 5.54482 112.065054 5.54482, 112.065054 8.54964 112.065054 8.54964, 112.065054 11.557 112.065054 11.557, 112.065054 14.56182 112.065054 14.56182, 109.917992 14.56182 109.917992 14.56182, 107.771692 14.56182 107.771692 14.56182, 105.624376 14.56182 105.624376 14.56182, 103.478076 14.56182 103.478076 14.56182, 103.478076 23.57882 103.478076 23.57882, 103.478076 32.59328 103.478076 32.59328, 103.478076 41.61028 103.478076 41.61028, 103.478076 50.62474 103.478076 50.62474, 107.485434 50.62474 107.485434 50.62474, 111.492284 50.62474 111.492284 50.62474, 115.499134 50.62474 115.499134 50.62474, 119.506492 50.62474 119.506492 50.62474, 119.936006 119.126 119.936006 119.126, 120.366282 187.627514 120.366282 187.627514, 120.795542 256.128774 120.795542 256.128774, 121.225818 324.630034 121.225818 324.630034, 107.296458 324.630034 107.296458 324.630034, 93.366336 324.630034 93.366336 324.630034, 79.436976 324.630034 79.436976 324.630034, 65.507616 324.630034 65.507616 324.630034, 65.507616 323.485002 65.507616 323.485002, 65.507616 322.340224 65.507616 322.340224, 65.507616 321.195192 65.507616 321.195192, 65.507616 320.050414 65.507616 320.050414, 49.765712 320.050414 49.765712 320.050414, 34.0233 320.050414 34.0233 320.050414, 18.28165 320.050414 18.28165 320.050414, 2.54 320.050414 2.54 320.050414, 2.54 322.817744 2.54 322.817744, 2.54 325.58482 2.54 325.58482, 2.54 328.35215 2.54 328.35215, 2.54 331.118718 2.54 331.118718, 18.329656 331.118718 18.329656 331.118718, 34.119566 331.118718 34.119566 331.118718, 49.909984 331.118718 49.909984 331.118718, 65.69964 331.118718 65.69964 331.118718, 65.69964 329.973686 65.69964 329.973686, 65.69964 328.828146 65.69964 328.828146, 65.69964 327.682352 65.69964 327.682352, 65.69964 326.537574 65.69964 326.537574, 79.629 326.537574 79.629 326.537574, 93.557598 326.537574 93.557598 326.537574, 107.487212 326.537574 107.487212 326.537574, 121.41581 326.537574 121.41581 326.537574, 122.799348 400.477228 122.799348 400.477228, 124.182886 474.417644 124.182886 474.417644, 125.566678 548.357298 125.566678 548.357298, 126.950216 622.296952 126.950216 622.296952, 131.81584 647.77112 131.81584 647.77112, 136.681464 673.24478 136.681464 673.24478, 141.547088 698.7159 141.547088 698.7159, 146.412712 724.18956 146.412712 724.18956, 154.140916 726.38412 154.140916 726.38412, 161.868358 728.57868 161.868358 728.57868, 169.596562 730.77324 169.596562 730.77324, 177.324004 732.96526 177.324004 732.96526, 186.864498 732.96526 186.864498 732.96526, 196.40423 732.96526 196.40423 732.96526, 205.944724 732.96526 205.944724 732.96526, 215.484456 732.96526 215.484456 732.96526, 224.262188 732.96526 224.262188 732.96526, 233.03992 732.96526 233.03992 732.96526, 241.817652 732.96526 241.817652 732.96526, 250.595384 732.96526 250.595384 732.96526, 250.595384 732.96526"/>
      </g>
      <g>
        <polyline style="fill: gray;stroke: black;stroke-width: 1;" points="250.213368 42.61358, 241.57813 42.61358 241.57813 42.61358, 232.943908 42.61358 232.943908 42.61358, 224.309432 42.61358 224.309432 42.61358, 215.674956 42.61358 215.674956 42.61358, 215.674956 32.59582 215.674956 32.59582, 215.674956 22.57806 215.674956 22.57806, 215.674956 12.5603 215.674956 12.5603, 215.674956 2.54 215.674956 2.54, 224.309432 2.54 224.309432 2.54, 232.943908 2.54 232.943908 2.54, 241.57813 2.54 241.57813 2.54, 250.213368 2.54 250.213368 2.54, 250.213368 12.5603 250.213368 12.5603, 250.213368 22.57806 250.213368 22.57806, 250.213368 32.59582 250.213368 32.59582, 250.213368 42.61358 250.213368 42.61358, 250.213368 42.61358"/>
      </g>
      <g>
        <polyline style="fill: gray;stroke: black;stroke-width: 1;" points="153.281888 606.268536, 150.896828 606.268536 150.896828 606.268536, 148.511006 606.268536 148.511006 606.268536, 146.125946 606.268536 146.125946 606.268536, 143.740632 606.268536 143.740632 606.268536, 143.740632 590.71764 143.740632 590.71764, 143.740632 575.16649 143.740632 575.16649, 143.740632 559.615594 143.740632 559.615594, 143.740632 544.063936 143.740632 544.063936, 146.125946 544.063936 146.125946 544.063936, 148.511006 544.063936 148.511006 544.063936, 150.896828 544.063936 150.896828 544.063936, 153.281888 544.063936 153.281888 544.063936, 153.281888 559.615594 153.281888 559.615594, 153.281888 575.16649 153.281888 575.16649, 153.281888 590.71764 153.281888 590.71764, 153.281888 606.268536 153.281888 606.268536, 153.281888 606.268536"/>
      </g>
      <g>
        <polyline style="fill: gray;stroke: black;stroke-width: 1;" points="297.915076 332.646528, 265.858752 332.646528 265.858752 332.646528, 233.802682 332.646528 233.802682 332.646528, 201.746358 332.646528 201.746358 332.646528, 169.690288 332.646528 169.690288 332.646528, 169.690288 329.879198 169.690288 329.879198, 169.690288 327.111868 169.690288 327.111868, 169.690288 324.344792 169.690288 324.344792, 169.690288 321.577462 169.690288 321.577462, 201.746358 321.577462 201.746358 321.577462, 233.802682 321.577462 233.802682 321.577462, 265.858752 321.577462 265.858752 321.577462, 297.915076 321.577462 297.915076 321.577462, 297.915076 324.344792 297.915076 324.344792, 297.915076 327.111868 297.915076 327.111868, 297.915076 329.879198 297.915076 329.879198, 297.915076 332.646528 297.915076 332.646528, 297.915076 332.646528"/>
      </g>
      <g>
        <polyline style="fill: gray;stroke: black;stroke-width: 1;" points="183.808878 606.268536, 181.423564 606.268536 181.423564 606.268536, 179.038504 606.268536 179.038504 606.268536, 176.652682 606.268536 176.652682 606.268536, 174.267622 606.268536 174.267622 606.268536, 174.267622 590.71764 174.267622 590.71764, 174.267622 575.16649 174.267622 575.16649, 174.267622 559.615594 174.267622 559.615594, 174.267622 544.063936 174.267622 544.063936, 176.652682 544.063936 176.652682 544.063936, 179.038504 544.063936 179.038504 544.063936, 181.423564 544.063936 181.423564 544.063936, 183.808878 544.063936 183.808878 544.063936, 183.808878 559.615594 183.808878 559.615594, 183.808878 575.16649 183.808878 575.16649, 183.808878 590.71764 183.808878 590.71764, 183.808878 606.268536 183.808878 606.268536, 183.808878 606.268536"/>
      </g>
      <g>
        <polyline style="fill: gray;stroke: black;stroke-width: 1;" points="199.072246 606.268536, 196.687186 606.268536 196.687186 606.268536, 194.30111 606.268536 194.30111 606.268536, 191.91605 606.268536 191.91605 606.268536, 189.53099 606.268536 189.53099 606.268536, 189.53099 590.71764 189.53099 590.71764, 189.53099 575.16649 189.53099 575.16649, 189.53099 559.615594 189.53099 559.615594, 189.53099 544.063936 189.53099 544.063936, 191.91605 544.063936 191.91605 544.063936, 194.30111 544.063936 194.30111 544.063936, 196.687186 544.063936 196.687186 544.063936, 199.072246 544.063936 199.072246 544.063936, 199.072246 559.615594 199.072246 559.615594, 199.072246 575.16649 199.072246 575.16649, 199.072246 590.71764 199.072246 590.71764, 199.072246 606.268536 199.072246 606.268536, 199.072246 606.268536"/>
      </g>
      <g>
        <polyline style="fill: gray;stroke: black;stroke-width: 1;" points="214.335614 606.268536, 211.950554 606.268536 211.950554 606.268536, 209.564478 606.268536 209.564478 606.268536, 207.179418 606.268536 207.179418 606.268536, 204.794358 606.268536 204.794358 606.268536, 204.794358 590.71764 204.794358 590.71764, 204.794358 575.16649 204.794358 575.16649, 204.794358 559.615594 204.794358 559.615594, 204.794358 544.063936 204.794358 544.063936, 207.179418 544.063936 207.179418 544.063936, 209.564478 544.063936 209.564478 544.063936, 211.950554 544.063936 211.950554 544.063936, 214.335614 544.063936 214.335614 544.063936, 214.335614 559.615594 214.335614 559.615594, 214.335614 575.16649 214.335614 575.16649, 214.335614 590.71764 214.335614 590.71764, 214.335614 606.268536 214.335614 606.268536, 214.335614 606.268536"/>
      </g>
      <g>
        <polyline style="fill: gray;stroke: black;stroke-width: 1;" points="229.598982 606.268536, 227.21316 606.268536 227.21316 606.268536, 224.8281 606.268536 224.8281 606.268536, 222.442786 606.268536 222.442786 606.268536, 220.057726 606.268536 220.057726 606.268536, 220.057726 590.71764 220.057726 590.71764, 220.057726 575.16649 220.057726 575.16649, 220.057726 559.615594 220.057726 559.615594, 220.057726 544.063936 220.057726 544.063936, 222.442786 544.063936 222.442786 544.063936, 224.8281 544.063936 224.8281 544.063936, 227.21316 544.063936 227.21316 544.063936, 229.598982 544.063936 229.598982 544.063936, 229.598982 559.615594 229.598982 559.615594, 229.598982 575.16649 229.598982 575.16649, 229.598982 590.71764 229.598982 590.71764, 229.598982 606.268536 229.598982 606.268536, 229.598982 606.268536"/>
      </g>
      <g>
        <polyline style="fill: gray;stroke: black;stroke-width: 1;" points="244.861588 606.268536, 242.476528 606.268536 242.476528 606.268536, 240.091468 606.268536 240.091468 606.268536, 237.706408 606.268536 237.706408 606.268536, 235.321094 606.268536 235.321094 606.268536, 235.321094 590.71764 235.321094 590.71764, 235.321094 575.16649 235.321094 575.16649, 235.321094 559.615594 235.321094 559.615594, 235.321094 544.063936 235.321094 544.063936, 237.706408 544.063936 237.706408 544.063936, 240.091468 544.063936 240.091468 544.063936, 242.476528 544.063936 242.476528 544.063936, 244.861588 544.063936 244.861588 544.063936, 244.861588 559.615594 244.861588 559.615594, 244.861588 575.16649 244.861588 575.16649, 244.861588 590.71764 244.861588 590.71764, 244.861588 606.268536 244.861588 606.268536, 244.861588 606.268536"/>
      </g>
      <g>
        <polyline style="fill: gray;stroke: black;stroke-width: 1;" points="260.125972 606.268536, 257.740658 606.268536 257.740658 606.268536, 255.354836 606.268536 255.354836 606.268536, 252.969776 606.268536 252.969776 606.268536, 250.584462 606.268536 250.584462 606.268536, 250.584462 590.71764 250.584462 590.71764, 250.584462 575.16649 250.584462 575.16649, 250.584462 559.615594 250.584462 559.615594, 250.584462 544.063936 250.584462 544.063936, 252.969776 544.063936 252.969776 544.063936, 255.354836 544.063936 255.354836 544.063936, 257.740658 544.063936 257.740658 544.063936, 260.125972 544.063936 260.125972 544.063936, 260.125972 559.615594 260.125972 559.615594, 260.125972 575.16649 260.125972 575.16649, 260.125972 590.71764 260.125972 590.71764, 260.125972 606.268536 260.125972 606.268536, 260.125972 606.268536"/>
      </g>
      <g>
        <polyline style="fill: gray;stroke: black;stroke-width: 1;" points="275.38934 606.268536, 273.003264 606.268536 273.003264 606.268536, 270.618204 606.268536 270.618204 606.268536, 268.233144 606.268536 268.233144 606.268536, 265.847322 606.268536 265.847322 606.268536, 265.847322 590.71764 265.847322 590.71764, 265.847322 575.16649 265.847322 575.16649, 265.847322 559.615594 265.847322 559.615594, 265.847322 544.063936 265.847322 544.063936, 268.233144 544.063936 268.233144 544.063936, 270.618204 544.063936 270.618204 544.063936, 273.003264 544.063936 273.003264 544.063936, 275.38934 544.063936 275.38934 544.063936, 275.38934 559.615594 275.38934 559.615594, 275.38934 575.16649 275.38934 575.16649, 275.38934 590.71764 275.38934 590.71764, 275.38934 606.268536 275.38934 606.268536, 275.38934 606.268536"/>
      </g>
      <g>
        <polyline style="fill: gray;stroke: black;stroke-width: 1;" points="290.651946 606.268536, 288.266886 606.268536 288.266886 606.268536, 285.881572 606.268536 285.881572 606.268536, 283.49575 606.268536 283.49575 606.268536, 281.11069 606.268536 281.11069 606.268536, 281.11069 590.71764 281.11069 590.71764, 281.11069 575.16649 281.11069 575.16649, 281.11069 559.615594 281.11069 559.615594, 281.11069 544.063936 281.11069 544.063936, 283.49575 544.063936 283.49575 544.063936, 285.881572 544.063936 285.881572 544.063936, 288.266886 544.063936 288.266886 544.063936, 290.651946 544.063936 290.651946 544.063936, 290.651946 559.615594 290.651946 559.615594, 290.651946 575.16649 290.651946 575.16649, 290.651946 590.71764 290.651946 590.71764, 290.651946 606.268536 290.651946 606.268536, 290.651946 606.268536"/>
      </g>
      <g>
        <polyline style="fill: gray;stroke: black;stroke-width: 1;" points="305.916076 606.268536, 303.531016 606.268536 303.531016 606.268536, 301.145194 606.268536 301.145194 606.268536, 298.75988 606.268536 298.75988 606.268536, 296.37482 606.268536 296.37482 606.268536, 296.37482 590.71764 296.37482 590.71764, 296.37482 575.16649 296.37482 575.16649, 296.37482 559.615594 296.37482 559.615594, 296.37482 544.063936 296.37482 544.063936, 298.75988 544.063936 298.75988 544.063936, 301.145194 544.063936 301.145194 544.063936, 303.531016 544.063936 303.531016 544.063936, 305.916076 544.063936 305.916076 544.063936, 305.916076 559.615594 305.916076 559.615594, 305.916076 575.16649 305.916076 575.16649, 305.916076 590.71764 305.916076 590.71764, 305.916076 606.268536 305.916076 606.268536, 305.916076 606.268536"/>
      </g>
      <g>
        <polyline style="fill: gray;stroke: black;stroke-width: 1;" points="321.179444 606.268536, 318.793622 606.268536 318.793622 606.268536, 316.408562 606.268536 316.408562 606.268536, 314.023248 606.268536 314.023248 606.268536, 311.637426 606.268536 311.637426 606.268536, 311.637426 590.71764 311.637426 590.71764, 311.637426 575.16649 311.637426 575.16649, 311.637426 559.615594 311.637426 559.615594, 311.637426 544.063936 311.637426 544.063936, 314.023248 544.063936 314.023248 544.063936, 316.408562 544.063936 316.408562 544.063936, 318.793622 544.063936 318.793622 544.063936, 321.179444 544.063936 321.179444 544.063936, 321.179444 559.615594 321.179444 559.615594, 321.179444 575.16649 321.179444 575.16649, 321.179444 590.71764 321.179444 590.71764, 321.179444 606.268536 321.179444 606.268536, 321.179444 606.268536"/>
      </g>
      <g>
        <polyline style="fill: gray;stroke: black;stroke-width: 1;" points="196.40423 710.0697, 194.685666 710.0697 194.685666 710.0697, 192.967102 710.0697 192.967102 710.0697, 191.2493 710.0697 191.2493 710.0697, 189.53099 710.0697 189.53099 710.0697, 189.53099 701.76898 189.53099 701.76898, 189.53099 693.46826 189.53099 693.46826, 189.53099 685.16754 189.53099 685.16754, 189.53099 676.86682 189.53099 676.86682, 191.2493 676.86682 191.2493 676.86682, 192.967102 676.86682 192.967102 676.86682, 194.685666 676.86682 194.685666 676.86682, 196.40423 676.86682 196.40423 676.86682, 196.40423 685.16754 196.40423 685.16754, 196.40423 693.46826 196.40423 693.46826, 196.40423 701.76898 196.40423 701.76898, 196.40423 710.0697 196.40423 710.0697, 196.40423 710.0697"/>
      </g>
      <g>
        <polyline style="fill: gray;stroke: black;stroke-width: 1;" points="208.231232 710.0697, 206.512922 710.0697 206.512922 710.0697, 204.794358 710.0697 204.794358 710.0697, 203.075794 710.0697 203.075794 710.0697, 201.35723 710.0697 201.35723 710.0697, 201.35723 701.76898 201.35723 701.76898, 201.35723 693.46826 201.35723 693.46826, 201.35723 685.16754 201.35723 685.16754, 201.35723 676.86682 201.35723 676.86682, 203.075794 676.86682 203.075794 676.86682, 204.794358 676.86682 204.794358 676.86682, 206.512922 676.86682 206.512922 676.86682, 208.231232 676.86682 208.231232 676.86682, 208.231232 685.16754 208.231232 685.16754, 208.231232 693.46826 208.231232 693.46826, 208.231232 701.76898 208.231232 701.76898, 208.231232 710.0697 208.231232 710.0697, 208.231232 710.0697"/>
      </g>
      <g>
        <polyline style="fill: gray;stroke: black;stroke-width: 1;" points="220.057726 710.0697, 218.339162 710.0697 218.339162 710.0697, 216.620852 710.0697 216.620852 710.0697, 214.902288 710.0697 214.902288 710.0697, 213.183724 710.0697 213.183724 710.0697, 213.183724 701.76898 213.183724 701.76898, 213.183724 693.46826 213.183724 693.46826, 213.183724 685.16754 213.183724 685.16754, 213.183724 676.86682 213.183724 676.86682, 214.902288 676.86682 214.902288 676.86682, 216.620852 676.86682 216.620852 676.86682, 218.339162 676.86682 218.339162 676.86682, 220.057726 676.86682 220.057726 676.86682, 220.057726 685.16754 220.057726 685.16754, 220.057726 693.46826 220.057726 693.46826, 220.057726 701.76898 220.057726 701.76898, 220.057726 710.0697 220.057726 710.0697, 220.057726 710.0697"/>
      </g>
      <g>
        <polyline style="fill: gray;stroke: black;stroke-width: 1;" points="231.88422 710.0697, 230.165656 710.0697 230.165656 710.0697, 228.447092 710.0697 228.447092 710.0697, 226.728782 710.0697 226.728782 710.0697, 225.010218 710.0697 225.010218 710.0697, 225.010218 701.76898 225.010218 701.76898, 225.010218 693.46826 225.010218 693.46826, 225.010218 685.16754 225.010218 685.16754, 225.010218 676.86682 225.010218 676.86682, 226.728782 676.86682 226.728782 676.86682, 228.447092 676.86682 228.447092 676.86682, 230.165656 676.86682 230.165656 676.86682, 231.88422 676.86682 231.88422 676.86682, 231.88422 685.16754 231.88422 685.16754, 231.88422 693.46826 231.88422 693.46826, 231.88422 701.76898 231.88422 701.76898, 231.88422 710.0697 231.88422 710.0697, 231.88422 710.0697"/>
      </g>
      <g>
        <polyline style="fill: gray;stroke: black;stroke-width: 1;" points="243.71046 710.0697, 241.99215 710.0697 241.99215 710.0697, 240.273586 710.0697 240.273586 710.0697, 238.555022 710.0697 238.555022 710.0697, 236.837474 710.0697 236.837474 710.0697, 236.837474 701.76898 236.837474 701.76898, 236.837474 693.46826 236.837474 693.46826, 236.837474 685.16754 236.837474 685.16754, 236.837474 676.86682 236.837474 676.86682, 238.555022 676.86682 238.555022 676.86682, 240.273586 676.86682 240.273586 676.86682, 241.99215 676.86682 241.99215 676.86682, 243.71046 676.86682 243.71046 676.86682, 243.71046 685.16754 243.71046 685.16754, 243.71046 693.46826 243.71046 693.46826, 243.71046 701.76898 243.71046 701.76898, 243.71046 710.0697 243.71046 710.0697, 243.71046 710.0697"/>
      </g>
      <g>
        <polyline style="fill: gray;stroke: black;stroke-width: 1;" points="255.536954 710.0697, 253.81839 710.0697 253.81839 710.0697, 252.10008 710.0697 252.10008 710.0697, 250.381516 710.0697 250.381516 710.0697, 248.662952 710.0697 248.662952 710.0697, 248.662952 701.76898 248.662952 701.76898, 248.662952 693.46826 248.662952 693.46826, 248.662952 685.16754 248.662952 685.16754, 248.662952 676.86682 248.662952 676.86682, 250.381516 676.86682 250.381516 676.86682, 252.10008 676.86682 252.10008 676.86682, 253.81839 676.86682 253.81839 676.86682, 255.536954 676.86682 255.536954 676.86682, 255.536954 685.16754 255.536954 685.16754, 255.536954 693.46826 255.536954 693.46826, 255.536954 701.76898 255.536954 701.76898, 255.536954 710.0697 255.536954 710.0697, 255.536954 710.0697"/>
      </g>
      <g>
        <polyline style="fill: gray;stroke: black;stroke-width: 1;" points="267.363448 710.0697, 265.644884 710.0697 265.644884 710.0697, 263.927082 710.0697 263.927082 710.0697, 262.208772 710.0697 262.208772 710.0697, 260.490208 710.0697 260.490208 710.0697, 260.490208 701.76898 260.490208 701.76898, 260.490208 693.46826 260.490208 693.46826, 260.490208 685.16754 260.490208 685.16754, 260.490208 676.86682 260.490208 676.86682, 262.208772 676.86682 262.208772 676.86682, 263.927082 676.86682 263.927082 676.86682, 265.644884 676.86682 265.644884 676.86682, 267.363448 676.86682 267.363448 676.86682, 267.363448 685.16754 267.363448 685.16754, 267.363448 693.46826 267.363448 693.46826, 267.363448 701.76898 267.363448 701.76898, 267.363448 710.0697 267.363448 710.0697, 267.363448 710.0697"/>
      </g>
      <g>
        <polyline style="fill: gray;stroke: black;stroke-width: 1;" points="279.190704 710.0697, 277.47214 710.0697 277.47214 710.0697, 275.753576 710.0697 275.753576 710.0697, 274.035012 710.0697 274.035012 710.0697, 272.316702 710.0697 272.316702 710.0697, 272.316702 701.76898 272.316702 701.76898, 272.316702 693.46826 272.316702 693.46826, 272.316702 685.16754 272.316702 685.16754, 272.316702 676.86682 272.316702 676.86682, 274.035012 676.86682 274.035012 676.86682, 275.753576 676.86682 275.753576 676.86682, 277.47214 676.86682 277.47214 676.86682, 279.190704 676.86682 279.190704 676.86682, 279.190704 685.16754 279.190704 685.16754, 279.190704 693.46826 279.190704 693.46826, 279.190704 701.76898 279.190704 701.76898, 279.190704 710.0697 279.190704 710.0697, 279.190704 710.0697"/>
      </g>
      <g>
        <polyline style="fill: gray;stroke: black;stroke-width: 1;" points="168.54551 606.268536, 166.160196 606.268536 166.160196 606.268536, 163.775136 606.268536 163.775136 606.268536, 161.389314 606.268536 161.389314 606.268536, 159.004 606.268536 159.004 606.268536, 159.004 590.71764 159.004 590.71764, 159.004 575.16649 159.004 575.16649, 159.004 559.615594 159.004 559.615594, 159.004 544.063936 159.004 544.063936, 161.389314 544.063936 161.389314 544.063936, 163.775136 544.063936 163.775136 544.063936, 166.160196 544.063936 166.160196 544.063936, 168.54551 544.063936 168.54551 544.063936, 168.54551 559.615594 168.54551 559.615594, 168.54551 575.16649 168.54551 575.16649, 168.54551 590.71764 168.54551 590.71764, 168.54551 606.268536 168.54551 606.268536, 168.54551 606.268536"/>
      </g>
    </g>
  </g>
</svg>
