<?xml version="1.0" encoding="utf-8"?>
<!-- Generator: SVG Export - SVG Version: 6.00 Build 1  -->
<!-- FXGUID: [6DCF63E8-38A4-11ED-A6E6-525400685065] SYMID: [18730]  -->
<svg xmlns="http://www.w3.org/2000/svg" version="1.1" ch_offset="0" color_bar_width="66" width="269.24" height="101.73462" origin_x="129.72415" origin_y="37.488114" ch_offset_x="131.9971706" ch_offset_y="40" color_offset_x="129.72415" color_offset_y="-4">
  <g>
    <title>Layer 1</title>
    <g>
      <g>
        <polyline style="fill: gray;stroke: black;stroke-width: 1;" points="147.112736 85.794596, 163.440364 85.794596 163.440364 85.794596, 179.766468 85.794596 179.766468 85.794596, 196.093334 85.794596 196.093334 85.794596, 212.4202 85.794596 212.4202 85.794596, 212.4202 86.604602 212.4202 86.604602, 212.4202 87.414608 212.4202 87.414608, 212.4202 88.224614 212.4202 88.224614, 212.4202 89.03462 212.4202 89.03462, 219.898214 89.03462 219.898214 89.03462, 227.375974 89.03462 227.375974 89.03462, 234.853734 89.03462 234.853734 89.03462, 242.331748 89.03462 242.331748 89.03462, 245.572534 76.135484 245.572534 76.135484, 248.812558 63.236348 248.812558 63.236348, 252.053598 50.336958 252.053598 50.336958, 255.293622 37.43706 255.293622 37.43706, 255.60528 37.43706 255.60528 37.43706, 255.916938 37.43706 255.916938 37.43706, 256.228342 37.43706 256.228342 37.43706, 256.54 37.43706 256.54 37.43706, 256.54 33.024826 256.54 33.024826, 256.54 23.073614 256.54 23.073614, 256.54 12.51458 256.54 12.51458, 256.54 6.279134 256.54 6.279134, 256.17805 4.32816 256.17805 4.32816, 255.32461 3.19405 255.32461 3.19405, 254.331724 2.668524 254.331724 2.668524, 253.548896 2.54 253.548896 2.54, 252.532642 2.54 252.532642 2.54, 251.024898 2.54 251.024898 2.54, 249.658378 2.54 249.658378 2.54, 249.06224 2.54 249.06224 2.54, 249.06224 3.226054 249.06224 3.226054, 249.06224 3.911092 249.06224 3.911092, 249.06224 4.596384 249.06224 4.596384, 249.06224 5.282438 249.06224 5.282438, 250.121166 5.282438 250.121166 5.282438, 251.1806 5.282438 251.1806 5.282438, 252.240288 5.282438 252.240288 5.282438, 253.299214 5.282438 253.299214 5.282438, 253.299214 5.594096 253.299214 5.594096, 253.299214 5.905754 253.299214 5.905754, 253.299214 6.217158 253.299214 6.217158, 253.299214 6.528816 253.299214 6.528816, 228.622352 6.528816 228.622352 6.528816, 203.94549 6.528816 203.94549 6.528816, 179.26812 6.528816 179.26812 6.528816, 154.591258 6.528816 154.591258 6.528816, 154.591258 5.780786 154.591258 5.780786, 154.591258 5.032756 154.591258 5.032756, 154.591258 4.285488 154.591258 4.285488, 154.591258 3.537458 154.591258 3.537458, 149.107144 3.537458 149.107144 3.537458, 143.62303 3.537458 143.62303 3.537458, 138.138662 3.537458 138.138662 3.537458, 132.65531 3.537458 132.65531 3.537458, 131.097274 3.537458 131.097274 3.537458, 129.54 3.537458 129.54 3.537458, 127.981964 3.537458 127.981964 3.537458, 126.423928 3.537458 126.423928 3.537458, 120.939814 3.537458 120.939814 3.537458, 115.456462 3.537458 115.456462 3.537458, 109.97311 3.537458 109.97311 3.537458, 104.488742 3.537458 104.488742 3.537458, 104.488742 4.285488 104.488742 4.285488, 104.488742 5.032756 104.488742 5.032756, 104.488742 5.780786 104.488742 5.780786, 104.488742 6.528816 104.488742 6.528816, 79.811372 6.528816 79.811372 6.528816, 55.13451 6.528816 55.13451 6.528816, 30.457648 6.528816 30.457648 6.528816, 5.780278 6.528816 5.780278 6.528816, 5.780278 6.217158 5.780278 6.217158, 5.780278 5.905754 5.780278 5.905754, 5.780278 5.594096 5.780278 5.594096, 5.780278 5.282438 5.780278 5.282438, 6.839712 5.282438 6.839712 5.282438, 7.898638 5.282438 7.898638 5.282438, 8.958326 5.282438 8.958326 5.282438, 10.01776 5.282438 10.01776 5.282438, 10.01776 4.596384 10.01776 4.596384, 10.01776 3.911092 10.01776 3.911092, 10.01776 3.226054 10.01776 3.226054, 10.01776 2.54 10.01776 2.54, 9.421876 2.54 9.421876 2.54, 8.05434 2.54 8.05434 2.54, 6.547612 2.54 6.547612 2.54, 5.530596 2.54 5.530596 2.54, 4.747768 2.668524 4.747768 2.668524, 3.754628 3.19405 3.754628 3.19405, 2.90195 4.32816 2.90195 4.32816, 2.54 6.279134 2.54 6.279134, 2.54 12.51458 2.54 12.51458, 2.54 23.073614 2.54 23.073614, 2.54 33.024826 2.54 33.024826, 2.54 37.43706 2.54 37.43706, 2.851658 37.43706 2.851658 37.43706, 3.163316 37.43706 3.163316 37.43706, 3.474212 37.43706 3.474212 37.43706, 3.785616 37.43706 3.785616 37.43706, 7.026656 50.336958 7.026656 50.336958, 10.26668 63.236348 10.26668 63.236348, 13.506704 76.135484 13.506704 76.135484, 16.747744 89.03462 16.747744 89.03462, 24.225504 89.03462 24.225504 89.03462, 31.703264 89.03462 31.703264 89.03462, 39.181278 89.03462 39.181278 89.03462, 46.659038 89.03462 46.659038 89.03462, 46.659038 88.224614 46.659038 88.224614, 46.659038 87.414608 46.659038 87.414608, 46.659038 86.604602 46.659038 86.604602, 46.659038 85.794596 46.659038 85.794596, 62.985904 85.794596 62.985904 85.794596, 79.31277 85.794596 79.31277 85.794596, 95.63989 85.794596 95.63989 85.794596, 111.966756 85.794596 111.966756 85.794596, 120.75287 85.794596 120.75287 85.794596, 129.54 85.794596 129.54 85.794596, 138.326368 85.794596 138.326368 85.794596, 147.112736 85.794596 147.112736 85.794596, 147.112736 85.794596"/>
      </g>
      <g>
        <polyline style="fill: transparent;stroke: black;stroke-width: 1;" points="212.503258 80.228186, 171.042076 80.228186 171.042076 80.228186, 129.581148 80.228186 129.581148 80.228186, 88.119966 80.228186 88.119966 80.228186, 46.659038 80.228186"/>
      </g>
      <g>
        <polyline style="fill: transparent;stroke: black;stroke-width: 1;" points="2.54 37.43706, 65.728342 37.43706 65.728342 37.43706, 128.916938 37.43706 128.916938 37.43706, 192.10528 37.43706 192.10528 37.43706, 255.293622 37.43706"/>
      </g>
      <g>
        <polyline style="fill: transparent;stroke: black;stroke-width: 1;" points="2.54 14.753844, 66.04 14.753844 66.04 14.753844, 129.54 14.753844 129.54 14.753844, 193.04 14.753844 193.04 14.753844, 256.54 14.753844"/>
      </g>
      <g>
        <polyline style="fill: transparent;stroke: black;stroke-width: 1;" points="46.659038 83.219544, 88.119966 83.219544 88.119966 83.219544, 129.581148 83.219544 129.581148 83.219544, 171.042076 83.219544 171.042076 83.219544, 212.503258 83.219544"/>
      </g>
      <g>
        <polyline style="fill: transparent;stroke: black;stroke-width: 1;" points="2.54 23.478236, 7.58698 23.478236 7.58698 23.478236, 12.634722 23.478236 12.634722 23.478236, 17.682464 23.478236 17.682464 23.478236, 22.730206 23.478236 22.730206 23.478236, 22.730206 39.86784 22.730206 39.86784, 22.730206 56.256936 22.730206 56.256936, 22.730206 72.645778 22.730206 72.645778, 22.730206 89.03462"/>
      </g>
      <g>
        <polyline style="fill: transparent;stroke: black;stroke-width: 1;" points="256.54 23.478236, 251.492258 23.478236 251.492258 23.478236, 246.444516 23.478236 246.444516 23.478236, 241.396774 23.478236 241.396774 23.478236, 236.349794 23.478236 236.349794 23.478236, 236.349794 39.86784 236.349794 39.86784, 236.349794 56.256936 236.349794 56.256936, 236.349794 72.645778 236.349794 72.645778, 236.349794 89.03462"/>
      </g>
      <g>
        <polyline style="fill: transparent;stroke: black;stroke-width: 1;" points="212.503258 86.00313, 212.503258 84.133436 212.503258 84.133436, 212.503258 82.263742 212.503258 82.263742, 212.503258 80.394048 212.503258 80.394048, 212.503258 78.52537 212.503258 78.52537, 198.731124 78.52537 198.731124 78.52537, 184.959244 78.52537 184.959244 78.52537, 171.18711 78.52537 171.18711 78.52537, 157.415992 78.52537 157.415992 78.52537, 157.228286 77.044804 157.228286 77.044804, 156.481018 73.789032 156.481018 73.789032, 154.891994 70.532752 154.891994 70.532752, 152.181306 69.052948 152.181306 69.052948, 140.8811 69.001132 140.8811 69.001132, 129.581148 68.949062 129.581148 68.949062, 118.280942 68.896484 118.280942 68.896484, 106.98099 68.844414 106.98099 68.844414, 104.270302 70.32498 104.270302 70.32498, 102.681278 73.580498 102.681278 73.580498, 101.93401 76.83627 101.93401 76.83627, 101.747066 78.316836 101.747066 78.316836, 87.975186 78.316836 87.975186 78.316836, 74.203052 78.316836 74.203052 78.316836, 60.431172 78.316836 60.431172 78.316836, 46.659038 78.316836 46.659038 78.316836, 46.659038 80.186276 46.659038 80.186276, 46.659038 82.055208 46.659038 82.055208, 46.659038 83.924902 46.659038 83.924902, 46.659038 85.794596"/>
      </g>
      <g>
        <polyline style="fill: gray;stroke: black;stroke-width: 1;" points="150.10384 42.422826, 139.884404 42.422826 139.884404 42.422826, 129.663952 42.422826 129.663952 42.422826, 119.444516 42.422826 119.444516 42.422826, 109.22508 42.422826 109.22508 42.422826, 109.22508 33.76041 109.22508 33.76041, 109.22508 25.098248 109.22508 25.098248, 109.22508 16.436848 109.22508 16.436848, 109.22508 7.774432 109.22508 7.774432, 119.444516 7.774432 119.444516 7.774432, 129.663952 7.774432 129.663952 7.774432, 139.884404 7.774432 139.884404 7.774432, 150.10384 7.774432 150.10384 7.774432, 150.10384 16.436848 150.10384 16.436848, 150.10384 25.098248 150.10384 25.098248, 150.10384 33.76041 150.10384 33.76041, 150.10384 42.422826 150.10384 42.422826, 150.10384 42.422826"/>
      </g>
    </g>
  </g>
</svg>
