<?xml version="1.0" encoding="utf-8"?>
<!-- Generator: SVG Export - SVG Version: 6.00 Build 1  -->
<!-- FXGUID: [BB410F61-FAC4-11E5-B97E-F0761CCEA3DE] SYMID: [14148]  -->
<svg xmlns="http://www.w3.org/2000/svg" version="1.1" ch_offset="0" color_bar_width="66" width="409.851606" height="463.931508" origin_x="198.223886" origin_y="269.53718" ch_offset_x="204.6993366" ch_offset_y="40" color_offset_x="198.223886" color_offset_y="-4" fxtype_offset_x="195.8402992" fxtype_offset_y="497.437156" fxtype_offset_value="MK2Spot">
  <g>
    <title>Layer 1</title>
    <g>
      <g>
        <polyline style="fill: gray;stroke: black;stroke-width: 1;" points="381.471932 172.785532, 361.217972 147.850606 361.217972 147.850606, 38.472618 147.850606 38.472618 147.850606, 18.219674 172.785532 18.219674 172.785532, 2.54 233.563922 2.54 233.563922, 2.54 308.3687 2.54 308.3687, 18.219674 369.148106 18.219674 369.148106, 38.472618 394.083032 38.472618 394.083032, 361.217972 394.083032 361.217972 394.083032, 381.471932 369.148106 381.471932 369.148106, 397.151606 308.3687 397.151606 308.3687, 397.151606 233.563922 397.151606 233.563922, 381.471932 172.785532 381.471932 172.785532, 381.471932 172.785532"/>
      </g>
      <g>
        <polyline style="fill: gray;stroke: black;stroke-width: 1;" points="50.633122 292.29685, 44.263056 341.385398 44.263056 341.385398, 34.95421 341.385398 34.95421 341.385398, 23.715472 314.12815 23.715472 314.12815, 17.80413 285.867856 17.80413 285.867856, 17.80413 256.06502 17.80413 256.06502, 23.715472 227.804726 23.715472 227.804726, 34.953448 200.54824 34.953448 200.54824, 44.263056 200.54824 44.263056 200.54824, 50.633122 249.636026 50.633122 249.636026, 50.633122 292.29685 50.633122 292.29685, 50.633122 292.29685"/>
      </g>
      <g>
        <polyline style="fill: gray;stroke: black;stroke-width: 1;" points="381.88646 285.867856, 375.975372 314.12815 375.975372 314.12815, 364.737142 341.385398 364.737142 341.385398, 355.427788 341.385398 355.427788 341.385398, 349.057468 292.29685 349.057468 292.29685, 349.057468 249.636026 349.057468 249.636026, 355.427788 200.54824 355.427788 200.54824, 364.737142 200.54824 364.737142 200.54824, 375.975372 227.804726 375.975372 227.804726, 381.88646 256.06502 381.88646 256.06502, 381.88646 285.867856 381.88646 285.867856, 381.88646 285.867856"/>
      </g>
      <g>
        <polyline style="fill: gray;stroke: black;stroke-width: 1;" points="376.91314 197.626732, 22.77745 197.626732 22.77745 197.626732, 5.628132 225.676968 5.628132 225.676968, 5.628132 316.255908 5.628132 316.255908, 22.77745 344.306144 22.77745 344.306144, 376.91314 344.306144 376.91314 344.306144, 394.062712 316.255908 394.062712 316.255908, 394.062712 225.676968 394.062712 225.676968, 376.91314 197.626732"/>
      </g>
      <g>
        <polyline style="fill: gray;stroke: black;stroke-width: 1;" points="345.065604 307.490622, 337.22564 307.490622 337.22564 307.490622, 337.22564 234.443016 337.22564 234.443016, 345.065604 234.443016 345.065604 234.443016, 345.065604 307.490622"/>
      </g>
      <g>
        <polyline style="fill: gray;stroke: black;stroke-width: 1;" points="345.065604 344.306144, 376.91314 344.306144 376.91314 344.306144, 394.062712 316.255908 394.062712 316.255908, 394.062712 225.676968 394.062712 225.676968, 376.91314 197.626732 376.91314 197.626732, 345.065604 197.626732 345.065604 197.626732, 345.065604 344.306144"/>
      </g>
      <g>
        <polyline style="fill: gray;stroke: black;stroke-width: 1;" points="54.62524 307.490622, 62.46495 307.490622 62.46495 307.490622, 62.46495 234.443016 62.46495 234.443016, 54.62524 234.443016 54.62524 234.443016, 54.62524 307.490622"/>
      </g>
      <g>
        <polyline style="fill: gray;stroke: black;stroke-width: 1;" points="54.62524 344.306144, 22.77745 344.306144 22.77745 344.306144, 5.628132 316.255908 5.628132 316.255908, 5.628132 225.676968 5.628132 225.676968, 22.77745 197.626732 22.77745 197.626732, 54.62524 197.626732 54.62524 197.626732, 54.62524 344.306144"/>
      </g>
      <g>
        <polyline style="fill: gray;stroke: black;stroke-width: 1;" points="300.458124 451.231508, 332.471776 401.786344 332.471776 401.786344, 332.471776 319.132458 332.471776 319.132458, 337.045046 319.132458 337.045046 319.132458, 337.045046 189.248034 337.045046 189.248034, 323.324982 189.248034 323.324982 189.248034, 316.798198 151.144224 316.798198 151.144224, 302.460406 90.51925 302.460406 90.51925, 291.312346 46.818042 291.312346 46.818042, 276.285198 40.913812 276.285198 40.913812, 268.445488 2.54 268.445488 2.54, 131.246118 2.54 131.246118 2.54, 123.406154 40.913812 123.406154 40.913812, 108.37926 46.818042 108.37926 46.818042, 96.763586 92.399866 96.763586 92.399866, 83.003136 150.638002 83.003136 150.638002, 76.36637 189.248034 76.36637 189.248034, 62.646306 189.248034 62.646306 189.248034, 62.646306 319.132458 62.646306 319.132458, 67.21983 319.132458 67.21983 319.132458, 67.21983 401.786344 67.21983 401.786344, 99.232466 451.231508 99.232466 451.231508, 300.458124 451.231508 300.458124 451.231508, 300.458124 451.231508"/>
      </g>
      <g>
        <polyline style="fill: gray;stroke: black;stroke-width: 1;" points="294.578786 60.101734, 291.312346 46.818042 291.312346 46.818042, 276.61235 40.913812 276.61235 40.913812, 260.278626 40.913812 260.278626 40.913812, 260.278626 50.138838 260.278626 50.138838, 140.06576 50.138838 140.06576 50.138838, 140.06576 40.913812 140.06576 40.913812, 123.732544 40.913812 123.732544 40.913812, 108.37926 46.818042 108.37926 46.818042, 105.11282 60.101734 105.11282 60.101734, 294.578786 60.101734"/>
      </g>
      <g>
        <polyline style="fill: gray;stroke: black;stroke-width: 1;" points="279.710642 60.148978, 286.970724 89.544144 286.970724 89.544144, 300.939708 154.316938 300.939708 154.316938, 307.971698 197.981824 307.971698 197.981824, 310.089296 226.740466 310.089296 226.740466, 310.089296 384.475736 310.089296 384.475736, 290.980622 439.82132 290.980622 439.82132, 265.992102 387.243066 265.992102 387.243066, 261.092442 351.821242 261.092442 351.821242, 138.599164 351.821242 138.599164 351.821242, 133.699504 387.243066 133.699504 387.243066, 108.710984 439.82132 108.710984 439.82132, 89.601294 384.475736 89.601294 384.475736, 89.601294 226.740466 89.601294 226.740466, 91.718892 197.981824 91.718892 197.981824, 98.751136 154.316938 98.751136 154.316938, 112.72012 89.544144 112.72012 89.544144, 119.979948 60.148978 119.979948 60.148978, 279.710642 60.148978 279.710642 60.148978, 279.710642 60.148978"/>
      </g>
      <g>
        <polyline style="fill: gray;stroke: black;stroke-width: 1;" points="162.729418 445.171322, 149.500844 445.171322 149.500844 445.171322, 149.500844 395.360398 149.500844 395.360398, 162.729418 395.360398 162.729418 395.360398, 162.729418 445.171322"/>
      </g>
      <g>
        <polyline style="fill: gray;stroke: black;stroke-width: 1;" points="186.24804 445.171322, 173.019466 445.171322 173.019466 445.171322, 173.019466 395.360398 173.019466 395.360398, 186.24804 395.360398 186.24804 395.360398, 186.24804 445.171322"/>
      </g>
      <g>
        <polyline style="fill: gray;stroke: black;stroke-width: 1;" points="204.867256 445.171322, 191.638428 445.171322 191.638428 445.171322, 191.638428 395.360398 191.638428 395.360398, 204.867256 395.360398 204.867256 395.360398, 204.867256 445.171322"/>
      </g>
      <g>
        <polyline style="fill: gray;stroke: black;stroke-width: 1;" points="218.586558 445.171322, 215.157304 445.171322 215.157304 445.171322, 215.157304 395.360398 215.157304 395.360398, 218.586558 395.360398 218.586558 395.360398, 218.586558 445.171322"/>
      </g>
      <g>
        <polyline style="fill: gray;stroke: black;stroke-width: 1;" points="229.121462 445.171322, 225.691446 445.171322 225.691446 445.171322, 225.691446 395.360398 225.691446 395.360398, 229.121462 395.360398 229.121462 395.360398, 229.121462 445.171322"/>
      </g>
      <g>
        <polyline style="fill: gray;stroke: black;stroke-width: 1;" points="239.655858 445.171322, 236.226604 445.171322 236.226604 445.171322, 236.226604 395.360398 236.226604 395.360398, 239.655858 395.360398 239.655858 395.360398, 239.655858 445.171322"/>
      </g>
      <g>
        <polyline style="fill: gray;stroke: black;stroke-width: 1;" points="250.190762 445.171322, 246.760746 445.171322 246.760746 445.171322, 246.760746 395.360398 246.760746 395.360398, 250.190762 395.360398 250.190762 395.360398, 250.190762 445.171322"/>
      </g>
      <g>
        <polyline style="fill: gray;stroke: black;stroke-width: 1;" points="126.807468 94.04858, 115.047776 108.070142 115.047776 108.070142, 105.400348 152.653492 105.400348 152.653492, 96.553528 237.783878 96.553528 237.783878, 95.121222 306.955698 95.121222 306.955698, 138.162792 351.821242 138.162792 351.821242, 260.65607 351.821242 260.65607 351.821242, 310.066944 302.159162 310.066944 302.159162, 310.066944 279.281382 310.066944 279.281382, 275.862034 257.287268 275.862034 257.287268, 236.567472 223.195642 236.567472 223.195642, 191.543178 165.719252 191.543178 165.719252, 157.51429 102.166674 157.51429 102.166674, 126.807468 94.04858 126.807468 94.04858, 126.807468 94.04858"/>
      </g>
    </g>
  </g>
</svg>
