<?xml version="1.0" encoding="utf-8"?>
<!-- Generator: SVG Export - SVG Version: 6.00 Build 1  -->
<!-- FXGUID: [590CEDC3-8229-11F0-BA60-42010A37C005] SYMID: [34281]  -->
<svg xmlns="http://www.w3.org/2000/svg" version="1.1" ch_offset="0" color_bar_width="66" width="316.200028" height="268.815058" origin_x="153.00452" origin_y="150.959312" ch_offset_x="153.2033004" ch_offset_y="40" color_offset_x="153.00452" color_offset_y="-4">
  <g>
    <title>Layer 1</title>
    <g>
      <g>
        <polyline style="fill: gray;stroke: black;stroke-width: 1;" points="37.909246 119.79783, 37.909246 118.762272 37.909246 118.762272, 37.909246 117.727222 37.909246 117.727222, 37.909246 116.691664 37.909246 116.691664, 37.909246 115.656106 37.909246 115.656106, 35.320224 115.656106 35.320224 115.656106, 32.731202 115.656106 32.731202 115.656106, 30.142942 115.656106 30.142942 115.656106, 27.553158 115.656106 27.553158 115.656106, 26.796746 116.691664 26.796746 116.691664, 26.04008 117.727222 26.04008 117.727222, 25.283668 118.762272 25.283668 118.762272, 24.527002 119.79783 24.527002 119.79783, 24.527002 125.971046 24.527002 125.971046, 24.527002 132.145024 24.527002 132.145024, 24.527002 138.319002 24.527002 138.319002, 24.527002 144.492472 24.527002 144.492472, 23.889208 144.492472 23.889208 144.492472, 23.251922 144.492472 23.251922 144.492472, 22.61489 144.492472 22.61489 144.492472, 21.977604 144.492472 21.977604 144.492472, 21.977604 143.855186 21.977604 143.855186, 21.977604 143.218916 21.977604 143.218916, 21.977604 142.58163 21.977604 142.58163, 21.977604 141.944598 21.977604 141.944598, 20.50415 141.944598 20.50415 141.944598, 19.030442 141.944598 19.030442 141.944598, 17.556988 141.944598 17.556988 141.944598, 16.082772 141.944598 16.082772 141.944598, 16.082772 138.128502 16.082772 138.128502, 16.082772 129.457704 16.082772 129.457704, 16.082772 120.099328 16.082772 120.099328, 16.082772 114.22126 16.082772 114.22126, 15.858744 112.054132 15.858744 112.054132, 15.36573 110.856522 15.36573 110.856522, 14.872716 110.34649 14.872716 110.34649, 14.648688 110.239302 14.648688 110.239302, 13.988288 110.21695 13.988288 110.21695, 12.358116 110.179866 12.358116 110.179866, 10.279126 110.171992 10.279126 110.171992, 8.27532 110.239302 8.27532 110.239302, 6.37159 112.198912 6.37159 112.198912, 4.512056 116.353844 4.512056 116.353844, 3.100578 120.479058 3.100578 120.479058, 2.54 122.348752 2.54 122.348752, 2.54 127.24765 2.54 127.24765, 2.54 132.146548 2.54 132.146548, 2.54 137.045446 2.54 137.045446, 2.54 141.944598 2.54 141.944598, 2.54 147.738592 2.54 147.738592, 2.54 153.533602 2.54 153.533602, 2.54 159.328612 2.54 159.328612, 2.54 165.12286 2.54 165.12286, 2.54 170.02252 2.54 170.02252, 2.54 174.921418 2.54 174.921418, 2.54 179.82057 2.54 179.82057, 2.54 184.719468 2.54 184.719468, 3.100578 186.589924 3.100578 186.589924, 4.512056 190.714376 4.512056 190.714376, 6.37159 194.869054 6.37159 194.869054, 8.27532 196.827902 8.27532 196.827902, 10.279126 196.895466 10.279126 196.895466, 12.358116 196.887592 12.358116 196.887592, 13.988288 196.850508 13.988288 196.850508, 14.648688 196.827902 14.648688 196.827902, 14.872716 196.720968 14.872716 196.720968, 15.36573 196.210936 15.36573 196.210936, 15.858744 195.014088 15.858744 195.014088, 16.082772 192.846706 16.082772 192.846706, 16.082772 186.96813 16.082772 186.96813, 16.082772 177.609754 16.082772 177.609754, 16.082772 168.938956 16.082772 168.938956, 16.082772 165.12286 16.082772 165.12286, 17.556988 165.12286 17.556988 165.12286, 19.030442 165.12286 19.030442 165.12286, 20.50415 165.12286 20.50415 165.12286, 21.977604 165.12286 21.977604 165.12286, 21.977604 164.485828 21.977604 164.485828, 21.977604 163.849304 21.977604 163.849304, 21.977604 163.212272 21.977604 163.212272, 21.977604 162.574986 21.977604 162.574986, 22.61489 162.574986 22.61489 162.574986, 23.251922 162.574986 23.251922 162.574986, 23.889208 162.574986 23.889208 162.574986, 24.527002 162.574986 24.527002 162.574986, 24.527002 168.748964 24.527002 168.748964, 24.527002 174.923196 24.527002 174.923196, 24.527002 181.096412 24.527002 181.096412, 24.527002 187.27039 24.527002 187.27039, 25.283668 188.305186 25.283668 188.305186, 26.04008 189.340744 26.04008 189.340744, 26.796746 190.376302 26.796746 190.376302, 27.553158 191.411352 27.553158 191.411352, 30.142942 191.411352 30.142942 191.411352, 32.731202 191.411352 32.731202 191.411352, 35.320224 191.411352 35.320224 191.411352, 37.909246 191.411352 37.909246 191.411352, 37.909246 190.376302 37.909246 190.376302, 37.909246 189.340744 37.909246 189.340744, 37.909246 188.305186 37.909246 188.305186, 37.909246 187.27039 37.909246 187.27039, 95.46463 187.27039 95.46463 187.27039, 153.020776 187.27039 153.020776 187.27039, 210.57616 187.27039 210.57616 187.27039, 268.131544 187.27039 268.131544 187.27039, 268.131544 188.305186 268.131544 188.305186, 268.131544 189.340744 268.131544 189.340744, 268.131544 190.376302 268.131544 190.376302, 268.131544 191.411352 268.131544 191.411352, 270.720566 191.411352 270.720566 191.411352, 273.309588 191.411352 273.309588 191.411352, 275.897848 191.411352 275.897848 191.411352, 278.487632 191.411352 278.487632 191.411352, 279.244044 190.376302 279.244044 190.376302, 280.00071 189.340744 280.00071 189.340744, 280.757122 188.305186 280.757122 188.305186, 281.513788 187.27039 281.513788 187.27039, 281.513788 181.096412 281.513788 181.096412, 281.513788 174.923196 281.513788 174.923196, 281.513788 168.748964 281.513788 168.748964, 281.513788 162.574986 281.513788 162.574986, 282.151836 162.574986 282.151836 162.574986, 282.788868 162.574986 282.788868 162.574986, 283.426154 162.574986 283.426154 162.574986, 284.063186 162.574986 284.063186 162.574986, 284.063186 163.212272 284.063186 163.212272, 284.063186 163.849304 284.063186 163.849304, 284.063186 164.485828 284.063186 164.485828, 284.063186 165.12286 284.063186 165.12286, 285.537656 165.12286 285.537656 165.12286, 287.010348 165.12286 287.010348 165.12286, 288.483802 165.12286 288.483802 165.12286, 289.958272 165.12286 289.958272 165.12286, 289.958272 168.938956 289.958272 168.938956, 289.958272 177.609754 289.958272 177.609754, 289.958272 186.96813 289.958272 186.96813, 289.958272 192.846706 289.958272 192.846706, 290.1823 195.014088 290.1823 195.014088, 290.675314 196.210936 290.675314 196.210936, 291.168328 196.720968 291.168328 196.720968, 291.393118 196.827902 291.393118 196.827902, 292.051994 196.850508 292.051994 196.850508, 293.682674 196.887592 293.682674 196.887592, 295.760902 196.895466 295.760902 196.895466, 297.764708 196.827902 297.764708 196.827902, 299.6692 194.869054 299.6692 194.869054, 301.528734 190.714376 301.528734 190.714376, 302.940466 186.589924 302.940466 186.589924, 303.500028 184.719468 303.500028 184.719468, 303.500028 179.82057 303.500028 179.82057, 303.500028 174.921418 303.500028 174.921418, 303.500028 170.02252 303.500028 170.02252, 303.500028 165.12286 303.500028 165.12286, 303.500028 159.328612 303.500028 159.328612, 303.500028 153.533602 303.500028 153.533602, 303.500028 147.738592 303.500028 147.738592, 303.500028 141.944598 303.500028 141.944598, 303.500028 137.045446 303.500028 137.045446, 303.500028 132.146548 303.500028 132.146548, 303.500028 127.24765 303.500028 127.24765, 303.500028 122.348752 303.500028 122.348752, 302.940466 120.479058 302.940466 120.479058, 301.528734 116.353844 301.528734 116.353844, 299.6692 112.198912 299.6692 112.198912, 297.764708 110.239302 297.764708 110.239302, 295.760902 110.171992 295.760902 110.171992, 293.682674 110.179866 293.682674 110.179866, 292.051994 110.21695 292.051994 110.21695, 291.393118 110.239302 291.393118 110.239302, 291.168328 110.34649 291.168328 110.34649, 290.675314 110.856522 290.675314 110.856522, 290.1823 112.054132 290.1823 112.054132, 289.958272 114.22126 289.958272 114.22126, 289.958272 120.099328 289.958272 120.099328, 289.958272 129.457704 289.958272 129.457704, 289.958272 138.128502 289.958272 138.128502, 289.958272 141.944598 289.958272 141.944598, 288.483802 141.944598 288.483802 141.944598, 287.010348 141.944598 287.010348 141.944598, 285.537656 141.944598 285.537656 141.944598, 284.063186 141.944598 284.063186 141.944598, 284.063186 142.58163 284.063186 142.58163, 284.063186 143.218916 284.063186 143.218916, 284.063186 143.855186 284.063186 143.855186, 284.063186 144.492472 284.063186 144.492472, 283.426154 144.492472 283.426154 144.492472, 282.788868 144.492472 282.788868 144.492472, 282.151836 144.492472 282.151836 144.492472, 281.513788 144.492472 281.513788 144.492472, 281.513788 138.319002 281.513788 138.319002, 281.513788 132.145024 281.513788 132.145024, 281.513788 125.971046 281.513788 125.971046, 281.513788 119.79783 281.513788 119.79783, 280.757122 118.762272 280.757122 118.762272, 280.00071 117.727222 280.00071 117.727222, 279.244044 116.691664 279.244044 116.691664, 278.487632 115.656106 278.487632 115.656106, 275.897848 115.656106 275.897848 115.656106, 273.309588 115.656106 273.309588 115.656106, 270.720566 115.656106 270.720566 115.656106, 268.131544 115.656106 268.131544 115.656106, 268.131544 116.691664 268.131544 116.691664, 268.131544 117.727222 268.131544 117.727222, 268.131544 118.762272 268.131544 118.762272, 268.131544 119.79783 268.131544 119.79783, 210.57616 119.79783 210.57616 119.79783, 153.020776 119.79783 153.020776 119.79783, 95.46463 119.79783 95.46463 119.79783, 37.909246 119.79783 37.909246 119.79783, 37.909246 119.79783"/>
      </g>
      <g>
        <polyline style="fill: transparent;stroke: black;stroke-width: 1;" points="233.240072 119.79783, 233.240072 136.665716 233.240072 136.665716, 233.240072 153.534364 233.240072 153.534364, 233.240072 170.402504 233.240072 170.402504, 233.240072 187.27039"/>
      </g>
      <g>
        <polyline style="fill: transparent;stroke: black;stroke-width: 1;" points="24.527002 144.492472, 24.527002 149.013164 24.527002 149.013164, 24.527002 153.533602 24.527002 153.533602, 24.527002 158.054294 24.527002 158.054294, 24.527002 162.574986"/>
      </g>
      <g>
        <polyline style="fill: transparent;stroke: black;stroke-width: 1;" points="281.513788 144.492472, 281.513788 149.013164 281.513788 149.013164, 281.513788 153.533602 281.513788 153.533602, 281.513788 158.054294 281.513788 158.054294, 281.513788 162.574986"/>
      </g>
      <g>
        <polyline style="fill: transparent;stroke: black;stroke-width: 1;" points="284.063186 144.492472, 284.063186 149.013164 284.063186 149.013164, 284.063186 153.533602 284.063186 153.533602, 284.063186 158.054294 284.063186 158.054294, 284.063186 162.574986"/>
      </g>
      <g>
        <polyline style="fill: transparent;stroke: black;stroke-width: 1;" points="289.958272 141.944598, 289.958272 147.738592 289.958272 147.738592, 289.958272 153.533602 289.958272 153.533602, 289.958272 159.328612 289.958272 159.328612, 289.958272 165.12286"/>
      </g>
      <g>
        <polyline style="fill: transparent;stroke: black;stroke-width: 1;" points="16.082772 141.944598, 16.082772 147.738592 16.082772 147.738592, 16.082772 153.533602 16.082772 153.533602, 16.082772 159.328612 16.082772 159.328612, 16.082772 165.12286"/>
      </g>
      <g>
        <polyline style="fill: transparent;stroke: black;stroke-width: 1;" points="293.14394 110.168182, 293.14394 131.8514 293.14394 131.8514, 293.14394 153.534364 293.14394 153.534364, 293.14394 175.21682 293.14394 175.21682, 293.14394 196.900038"/>
      </g>
      <g>
        <polyline style="fill: transparent;stroke: black;stroke-width: 1;" points="12.100052 110.168182, 12.100052 131.833366 12.100052 131.833366, 12.100052 153.498804 12.100052 153.498804, 12.100052 175.16348 12.100052 175.16348, 12.100052 196.827902"/>
      </g>
      <g>
        <polyline style="fill: transparent;stroke: black;stroke-width: 1;" points="72.004936 119.79783, 72.004936 136.665716 72.004936 136.665716, 72.004936 153.534364 72.004936 153.534364, 72.004936 170.402504 72.004936 170.402504, 72.004936 187.27039"/>
      </g>
      <g>
        <polyline style="fill: transparent;stroke: black;stroke-width: 1;" points="21.977604 144.492472, 21.977604 149.013164 21.977604 149.013164, 21.977604 153.533602 21.977604 153.533602, 21.977604 158.054294 21.977604 158.054294, 21.977604 162.574986"/>
      </g>
      <g>
        <polyline style="fill: gray;stroke: black;stroke-width: 1;" points="277.849584 156.177742, 215.395302 156.177742 215.395302 156.177742, 152.94102 156.177742 152.94102 156.177742, 90.486738 156.177742 90.486738 156.177742, 28.03144 156.177742 28.03144 156.177742, 28.03144 154.69108 28.03144 154.69108, 28.03144 153.204164 28.03144 153.204164, 28.03144 151.717502 28.03144 151.717502, 28.03144 150.231602 28.03144 150.231602, 90.486738 150.231602 90.486738 150.231602, 152.94102 150.231602 152.94102 150.231602, 215.395302 150.231602 215.395302 150.231602, 277.849584 150.231602 277.849584 150.231602, 277.849584 151.717502 277.849584 151.717502, 277.849584 153.204164 277.849584 153.204164, 277.849584 154.69108 277.849584 154.69108, 277.849584 156.177742 277.849584 156.177742, 277.849584 156.177742"/>
      </g>
      <g>
        <polyline style="fill: gray;stroke: black;stroke-width: 1;" points="198.494904 2.54, 214.810848 2.54 214.810848 2.54, 231.127046 2.54 231.127046 2.54, 247.44299 2.54 247.44299 2.54, 263.759188 2.54 263.759188 2.54, 264.902442 3.266948 264.902442 3.266948, 266.045696 3.99415 266.045696 3.99415, 267.188442 4.721098 267.188442 4.721098, 268.331696 5.449062 268.331696 5.449062, 268.331696 63.54318 268.331696 63.54318, 268.331696 121.636536 268.331696 121.636536, 268.331696 179.730654 268.331696 179.730654, 268.331696 237.82401 268.331696 237.82401, 267.285978 240.292128 267.285978 240.292128, 264.642092 245.721886 264.642092 245.721886, 261.141464 251.15266 261.141464 251.15266, 257.52298 253.620778 257.52298 253.620778, 251.437394 253.620778 251.437394 253.620778, 242.506246 253.620778 242.506246 253.620778, 234.43311 253.620778 234.43311 253.620778, 230.918512 253.620778 230.918512 253.620778, 230.502968 254.24384 230.502968 254.24384, 230.087424 254.867918 230.087424 254.867918, 229.671372 255.491234 229.671372 255.491234, 229.255828 256.115058 229.255828 256.115058, 226.554284 256.115058 226.554284 256.115058, 223.852232 256.115058 223.852232 256.115058, 221.15018 256.115058 221.15018 256.115058, 218.447874 256.115058 218.447874 256.115058, 217.720926 255.07569 217.720926 255.07569, 216.992962 254.036068 216.992962 254.036068, 216.264998 252.9967 216.264998 252.9967, 215.53805 251.958094 215.53805 251.958094, 204.937106 251.958094 204.937106 251.958094, 194.336924 251.958094 194.336924 251.958094, 183.737758 251.958094 183.737758 251.958094, 173.136814 251.958094 173.136814 251.958094, 171.370244 252.9967 171.370244 252.9967, 169.603674 254.036068 169.603674 254.036068, 167.837104 255.07569 167.837104 255.07569, 166.070534 256.115058 166.070534 256.115058, 159.73044 256.115058 159.73044 256.115058, 153.391362 256.115058 153.391362 256.115058, 147.052284 256.115058 147.052284 256.115058, 140.712444 256.115058 140.712444 256.115058, 138.945874 255.07569 138.945874 255.07569, 137.179304 254.036068 137.179304 254.036068, 135.412734 252.9967 135.412734 252.9967, 133.645402 251.958094 133.645402 251.958094, 123.04522 251.958094 123.04522 251.958094, 112.445038 251.958094 112.445038 251.958094, 101.844856 251.958094 101.844856 251.958094, 91.244928 251.958094 91.244928 251.958094, 90.516964 252.9967 90.516964 252.9967, 89.789762 254.036068 89.789762 254.036068, 89.062052 255.07569 89.062052 255.07569, 88.334088 256.115058 88.334088 256.115058, 85.632798 256.115058 85.632798 256.115058, 82.930492 256.115058 82.930492 256.115058, 80.22844 256.115058 80.22844 256.115058, 77.526388 256.115058 77.526388 256.115058, 77.110844 255.491234 77.110844 255.491234, 76.6953 254.867918 76.6953 254.867918, 76.278994 254.24384 76.278994 254.24384, 75.863704 253.620778 75.863704 253.620778, 72.349868 253.620778 72.349868 253.620778, 64.27597 253.620778 64.27597 253.620778, 55.345584 253.620778 55.345584 253.620778, 49.258982 253.620778 49.258982 253.620778, 45.641514 251.15266 45.641514 251.15266, 42.140124 245.721886 42.140124 245.721886, 39.496746 240.292128 39.496746 240.292128, 38.451282 237.82401 38.451282 237.82401, 38.451282 179.730654 38.451282 179.730654, 38.451282 121.636536 38.451282 121.636536, 38.451282 63.54318 38.451282 63.54318, 38.451282 5.449062 38.451282 5.449062, 39.594536 4.721098 39.594536 4.721098, 40.737028 3.99415 40.737028 3.99415, 41.880282 3.266948 41.880282 3.266948, 43.02379 2.54 43.02379 2.54, 59.339734 2.54 59.339734 2.54, 75.655932 2.54 75.655932 2.54, 91.971876 2.54 91.971876 2.54, 108.288836 2.54 108.288836 2.54, 130.839972 2.54 130.839972 2.54, 153.391362 2.54 153.391362 2.54, 175.942752 2.54 175.942752 2.54, 198.494904 2.54 198.494904 2.54, 198.494904 2.54"/>
      </g>
      <g>
        <polyline style="fill: transparent;stroke: black;stroke-width: 1;" points="38.451282 218.28633, 95.921322 218.28633 95.921322 218.28633, 153.391362 218.28633 153.391362 218.28633, 210.861656 218.28633 210.861656 218.28633, 268.331696 218.28633"/>
      </g>
      <g>
        <polyline style="fill: transparent;stroke: black;stroke-width: 1;" points="38.451282 27.065478, 95.921322 27.065478 95.921322 27.065478, 153.391362 27.065478 153.391362 27.065478, 210.861656 27.065478 210.861656 27.065478, 268.331696 27.065478"/>
      </g>
      <g>
        <polyline style="fill: transparent;stroke: black;stroke-width: 1;" points="38.451282 237.82401, 95.921322 237.82401 95.921322 237.82401, 153.391362 237.82401 153.391362 237.82401, 210.861656 237.82401 210.861656 237.82401, 268.331696 237.82401"/>
      </g>
      <g>
        <polyline style="fill: gray;stroke: black;stroke-width: 1;" points="170.226736 237.82401, 162.017202 237.82401 162.017202 237.82401, 153.806906 237.82401 153.806906 237.82401, 145.597372 237.82401 145.597372 237.82401, 137.387076 237.82401 137.387076 237.82401, 137.387076 234.29087 137.387076 234.29087, 137.387076 230.756968 137.387076 230.756968, 137.387076 227.223066 137.387076 227.223066, 137.387076 223.689926 137.387076 223.689926, 145.597372 223.689926 145.597372 223.689926, 153.806906 223.689926 153.806906 223.689926, 162.017202 223.689926 162.017202 223.689926, 170.226736 223.689926 170.226736 223.689926, 170.226736 227.223066 170.226736 227.223066, 170.226736 230.756968 170.226736 230.756968, 170.226736 234.29087 170.226736 234.29087, 170.226736 237.82401 170.226736 237.82401, 170.226736 237.82401"/>
      </g>
    </g>
  </g>
</svg>
