<?xml version="1.0" encoding="utf-8"?>
<!-- Generator: SVG Export - SVG Version: 6.00 Build 1  -->
<!-- FXGUID: [29F29CF2-C900-11E7-BBED-525400685065] SYMID: [14205]  -->
<svg xmlns="http://www.w3.org/2000/svg" version="1.1" ch_offset="0" color_bar_width="66" width="384.038348" height="408.122882" origin_x="187.555886" origin_y="209.068416" ch_offset_x="188.7581696" ch_offset_y="40" color_offset_x="187.555886" color_offset_y="-4">
  <g>
    <title>Layer 1</title>
    <g>
      <g>
        <polyline style="fill: gray;stroke: black;stroke-width: 1;" points="358.416098 162.677348, 336.179414 121.103136 336.179414 121.103136, 331.205332 65.434464 331.205332 65.434464, 42.67327 65.434464 42.67327 65.434464, 37.699188 121.103136 37.699188 121.103136, 15.462504 162.677348 15.462504 162.677348, 12.272772 188.578998 12.272772 188.578998, 12.272772 227.37826 12.272772 227.37826, 15.462504 253.278894 15.462504 253.278894, 37.699188 294.85463 37.699188 294.85463, 42.67327 350.52254 42.67327 350.52254, 331.205332 350.52254 331.205332 350.52254, 336.179414 294.85463 336.179414 294.85463, 358.416098 253.278894 358.416098 253.278894, 361.60583 227.37826 361.60583 227.37826, 361.60583 188.578998 361.60583 188.578998, 358.416098 162.677348 358.416098 162.677348, 358.416098 162.677348"/>
      </g>
      <g>
        <polyline style="fill: gray;stroke: black;stroke-width: 1;" points="43.219116 275.458174, 27.741626 239.844072 27.741626 239.844072, 27.741626 176.113186 27.741626 176.113186, 43.219116 140.498068 43.219116 140.498068, 43.219116 275.458174 43.219116 275.458174, 43.219116 275.458174"/>
      </g>
      <g>
        <polyline style="fill: gray;stroke: black;stroke-width: 1;" points="346.136976 239.844072, 330.65974 275.458174 330.65974 275.458174, 330.65974 140.498068 330.65974 140.498068, 346.136976 176.113186 346.136976 176.113186, 346.136976 239.844072 346.136976 239.844072, 346.136976 239.844072"/>
      </g>
      <g>
        <polyline style="fill: gray;stroke: black;stroke-width: 1;" points="360.534458 143.639032, 13.344144 143.639032 13.344144 143.639032, 2.54 176.16424 2.54 176.16424, 2.54 239.79378 2.54 239.79378, 13.344144 272.317972 13.344144 272.317972, 360.534458 272.317972 360.534458 272.317972, 371.338602 239.79378 371.338602 239.79378, 371.338602 176.16424 371.338602 176.16424, 360.534458 143.639032"/>
      </g>
      <g>
        <polyline style="fill: gray;stroke: black;stroke-width: 1;" points="321.47256 226.098354, 314.838842 226.098354 314.838842 226.098354, 314.838842 189.85865 314.838842 189.85865, 321.47256 189.85865 321.47256 189.85865, 321.47256 226.098354"/>
      </g>
      <g>
        <polyline style="fill: gray;stroke: black;stroke-width: 1;" points="321.226942 272.317972, 360.534458 272.317972 360.534458 272.317972, 371.338602 239.79378 371.338602 239.79378, 371.338602 176.16424 371.338602 176.16424, 360.534458 143.639032 360.534458 143.639032, 321.226942 143.639032 321.226942 143.639032, 321.226942 272.317972"/>
      </g>
      <g>
        <polyline style="fill: gray;stroke: black;stroke-width: 1;" points="52.406042 226.098354, 59.03976 226.098354 59.03976 226.098354, 59.03976 189.85865 59.03976 189.85865, 52.406042 189.85865 52.406042 189.85865, 52.406042 226.098354"/>
      </g>
      <g>
        <polyline style="fill: gray;stroke: black;stroke-width: 1;" points="52.65166 272.317972, 13.344144 272.317972 13.344144 272.317972, 2.54 239.79378 2.54 239.79378, 2.54 176.16424 2.54 176.16424, 13.344144 143.639032 13.344144 143.639032, 52.65166 143.639032 52.65166 143.639032, 52.65166 272.317972"/>
      </g>
      <g>
        <polyline style="fill: transparent;stroke: black;stroke-width: 1;" points="312.970672 209.103214, 302.651922 197.107048 302.651922 197.107048, 283.489654 188.859668 283.489654 188.859668, 90.388948 188.859668 90.388948 188.859668, 71.22668 197.107048 71.22668 197.107048, 60.90793 209.103214"/>
      </g>
      <g>
        <polyline style="fill: gray;stroke: black;stroke-width: 1;" points="251.060712 2.54, 287.174686 54.27472 287.174686 54.27472, 307.074316 144.99717 307.074316 144.99717, 314.445142 147.99691 314.445142 147.99691, 314.445142 276.958044 314.445142 276.958044, 310.821324 294.195754 310.821324 294.195754, 304.8635 309.948326 304.8635 309.948326, 258.430776 384.925824 258.430776 384.925824, 252.083062 391.714736 252.083062 391.714736, 239.268254 395.422882 239.268254 395.422882, 134.610348 395.422882 134.610348 395.422882, 121.933716 391.806938 121.933716 391.806938, 115.447826 384.925824 115.447826 384.925824, 69.015102 309.948326 69.015102 309.948326, 62.77991 293.162482 62.77991 293.162482, 59.43346 276.958044 59.43346 276.958044, 59.43346 147.99691 59.43346 147.99691, 66.804286 144.99717 66.804286 144.99717, 86.703916 54.27472 86.703916 54.27472, 122.818144 2.54 122.818144 2.54, 251.060712 2.54 251.060712 2.54, 251.060712 2.54"/>
      </g>
      <g>
        <polyline style="fill: gray;stroke: black;stroke-width: 1;" points="241.678968 374.42902, 266.07135 323.936614 266.07135 323.936614, 279.240234 286.28848 279.240234 286.28848, 282.583636 268.336268 282.583636 268.336268, 282.612084 247.900952 282.612084 247.900952, 276.011894 178.701192 276.011894 178.701192, 258.629912 55.773828 258.629912 55.773828, 229.886002 2.54 229.886002 2.54, 143.9926 2.54 143.9926 2.54, 115.24869 55.773828 115.24869 55.773828, 97.53346 181.455314 97.53346 181.455314, 91.186762 249.681492 91.186762 249.681492, 91.29522 268.336268 91.29522 268.336268, 94.469458 285.63189 94.469458 285.63189, 106.396536 320.529204 106.396536 320.529204, 132.199634 374.42902 132.199634 374.42902, 241.678968 374.42902 241.678968 374.42902, 241.678968 374.42902"/>
      </g>
      <g>
        <polyline style="fill: gray;stroke: black;stroke-width: 1;" points="254.394462 255.96469, 247.760744 92.138246 247.760744 92.138246, 195.432172 92.138246 195.432172 92.138246, 188.798454 256.339086 188.798454 256.339086, 254.394462 255.96469"/>
      </g>
      <g>
        <polyline style="fill: gray;stroke: black;stroke-width: 1;" points="147.776946 189.609222, 153.673556 198.232014 153.673556 198.232014, 218.531694 198.232014 218.531694 198.232014, 224.42805 189.609222 224.42805 189.609222, 224.42805 165.616128 224.42805 165.616128, 218.531694 156.994098 218.531694 156.994098, 153.673556 156.994098 153.673556 156.994098, 147.776946 165.616128 147.776946 165.616128, 147.776946 189.609222"/>
      </g>
      <g>
        <polyline style="fill: gray;stroke: black;stroke-width: 1;" points="244.98046 356.059486, 128.898396 356.059486 128.898396 356.059486, 128.898396 306.57419 128.898396 306.57419, 244.98046 306.57419 244.98046 306.57419, 244.98046 356.059486"/>
      </g>
      <g>
        <line x1="86.749128" y1="54.48935" x2="287.219898" y2="54.48935" style="stroke-width: 1;stroke: black;"/>
      </g>
    </g>
  </g>
</svg>
