<?xml version="1.0" encoding="utf-8"?>
<!-- Generator: SVG Export - SVG Version: 6.00 Build 1  -->
<!-- FXGUID: [FB83CD08-8257-11F0-BA60-42010A37C005] SYMID: [34473]  -->
<svg xmlns="http://www.w3.org/2000/svg" version="1.1" ch_offset="0" color_bar_width="66" width="559.55946" height="559.55946" origin_x="274.18284" origin_y="276.20214" ch_offset_x="275.3748366" ch_offset_y="40" color_offset_x="274.18284" color_offset_y="-4">
  <g>
    <title>Layer 1</title>
    <g>
      <g>
        <polyline style="fill: gray;stroke: black;stroke-width: 1;" points="546.85946 546.85946, 410.780738 546.85946 410.780738 546.85946, 274.69973 546.85946 274.69973 546.85946, 138.619738 546.85946 138.619738 546.85946, 2.54 546.85946 2.54 546.85946, 2.54 410.78023 2.54 410.78023, 2.54 274.699476 2.54 274.699476, 2.54 138.61923 2.54 138.61923, 2.54 2.54 2.54 2.54, 138.619738 2.54 138.619738 2.54, 274.69973 2.54 274.69973 2.54, 410.780738 2.54 410.780738 2.54, 546.85946 2.54 546.85946 2.54, 546.85946 138.61923 546.85946 138.61923, 546.85946 274.699476 546.85946 274.699476, 546.85946 410.78023 546.85946 410.78023, 546.85946 546.85946 546.85946 546.85946, 546.85946 546.85946"/>
      </g>
      <g>
        <polyline style="fill: gray;stroke: black;stroke-width: 1;" points="15.81658 458.35189, 12.4968 458.35189 12.4968 458.35189, 9.17702 458.35189 9.17702 458.35189, 5.85978 458.35189 5.85978 458.35189, 2.54 458.35189 2.54 458.35189, 2.54 369.474242 2.54 369.474242, 2.54 280.599134 2.54 280.599134, 2.54 191.721486 2.54 191.721486, 2.54 102.844854 2.54 102.844854, 5.85978 102.844854 5.85978 102.844854, 9.17702 102.844854 9.17702 102.844854, 12.4968 102.844854 12.4968 102.844854, 15.81658 102.844854 15.81658 102.844854, 15.81658 191.721486 15.81658 191.721486, 15.81658 280.599134 15.81658 280.599134, 15.81658 369.474242 15.81658 369.474242, 15.81658 458.35189 15.81658 458.35189, 15.81658 458.35189"/>
      </g>
      <g>
        <polyline style="fill: gray;stroke: black;stroke-width: 1;" points="499.658894 498.181122, 386.075174 498.181122 386.075174 498.181122, 272.48993 498.181122 272.48993 498.181122, 158.904432 498.181122 158.904432 498.181122, 45.31995 498.181122 45.31995 498.181122, 45.31995 387.177788 45.31995 387.177788, 45.31995 276.173692 45.31995 276.173692, 45.31995 165.169596 45.31995 165.169596, 45.31995 54.1655 45.31995 54.1655, 158.904432 54.1655 158.904432 54.1655, 272.48993 54.1655 272.48993 54.1655, 386.075174 54.1655 386.075174 54.1655, 499.658894 54.1655 499.658894 54.1655, 499.658894 165.169596 499.658894 165.169596, 499.658894 276.173692 499.658894 276.173692, 499.658894 387.177788 499.658894 387.177788, 499.658894 498.181122 499.658894 498.181122, 499.658894 498.181122"/>
      </g>
      <g>
        <polyline style="fill: gray;stroke: black;stroke-width: 1;" points="306.416456 76.292964, 287.609026 76.292964 287.609026 76.292964, 268.800834 76.292964 268.800834 76.292964, 249.992642 76.292964 249.992642 76.292964, 231.185466 76.292964 231.185466 76.292964, 231.185466 70.761352 231.185466 70.761352, 231.185466 65.229232 231.185466 65.229232, 231.185466 59.697874 231.185466 59.697874, 231.185466 54.1655 231.185466 54.1655, 249.992642 54.1655 249.992642 54.1655, 268.800834 54.1655 268.800834 54.1655, 287.609026 54.1655 287.609026 54.1655, 306.416456 54.1655 306.416456 54.1655, 306.416456 59.697874 306.416456 59.697874, 306.416456 65.229232 306.416456 65.229232, 306.416456 70.761352 306.416456 70.761352, 306.416456 76.292964 306.416456 76.292964, 306.416456 76.292964"/>
      </g>
      <g>
        <polyline style="fill: gray;stroke: black;stroke-width: 1;" points="306.416456 498.181122, 287.609026 498.181122 287.609026 498.181122, 268.800834 498.181122 268.800834 498.181122, 249.992642 498.181122 249.992642 498.181122, 231.185466 498.181122 231.185466 498.181122, 231.185466 492.649002 231.185466 492.649002, 231.185466 487.11739 231.185466 487.11739, 231.185466 481.58527 231.185466 481.58527, 231.185466 476.05315 231.185466 476.05315, 249.992642 476.05315 249.992642 476.05315, 268.800834 476.05315 268.800834 476.05315, 287.609026 476.05315 287.609026 476.05315, 306.416456 476.05315 306.416456 476.05315, 306.416456 481.58527 306.416456 481.58527, 306.416456 487.11739 306.416456 487.11739, 306.416456 492.649002 306.416456 492.649002, 306.416456 498.181122 306.416456 498.181122, 306.416456 498.181122"/>
      </g>
      <g>
        <polyline style="fill: gray;stroke: black;stroke-width: 1;" points="34.99104 310.83758, 30.197552 310.83758 30.197552 310.83758, 25.403302 310.83758 25.403302 310.83758, 20.609814 310.83758 20.609814 310.83758, 15.81658 310.83758 15.81658 310.83758, 15.81658 291.661088 15.81658 291.661088, 15.81658 272.48485 15.81658 272.48485, 15.81658 253.308358 15.81658 253.308358, 15.81658 234.13212 15.81658 234.13212, 20.609814 234.13212 20.609814 234.13212, 25.403302 234.13212 25.403302 234.13212, 30.197552 234.13212 30.197552 234.13212, 34.99104 234.13212 34.99104 234.13212, 34.99104 253.308358 34.99104 253.308358, 34.99104 272.48485 34.99104 272.48485, 34.99104 291.661088 34.99104 291.661088, 34.99104 310.83758 34.99104 310.83758, 34.99104 310.83758"/>
      </g>
      <g>
        <polyline style="fill: gray;stroke: black;stroke-width: 1;" points="533.58542 310.83758, 528.79244 310.83758 528.79244 310.83758, 523.998444 310.83758 523.998444 310.83758, 519.204956 310.83758 519.204956 310.83758, 514.41223 310.83758 514.41223 310.83758, 514.41223 291.661088 514.41223 291.661088, 514.41223 272.48485 514.41223 272.48485, 514.41223 253.308358 514.41223 253.308358, 514.41223 234.13212 514.41223 234.13212, 519.204956 234.13212 519.204956 234.13212, 523.998444 234.13212 523.998444 234.13212, 528.79244 234.13212 528.79244 234.13212, 533.58542 234.13212 533.58542 234.13212, 533.58542 253.308358 533.58542 253.308358, 533.58542 272.48485 533.58542 272.48485, 533.58542 291.661088 533.58542 291.661088, 533.58542 310.83758 533.58542 310.83758, 533.58542 310.83758"/>
      </g>
      <g>
        <polyline style="fill: gray;stroke: black;stroke-width: 1;" points="546.85946 458.35189, 543.54222 458.35189 543.54222 458.35189, 540.22244 458.35189 540.22244 458.35189, 536.90266 458.35189 536.90266 458.35189, 533.58542 458.35189 533.58542 458.35189, 533.58542 369.474242 533.58542 369.474242, 533.58542 280.599134 533.58542 280.599134, 533.58542 191.721486 533.58542 191.721486, 533.58542 102.844854 533.58542 102.844854, 536.90266 102.844854 536.90266 102.844854, 540.22244 102.844854 540.22244 102.844854, 543.54222 102.844854 543.54222 102.844854, 546.85946 102.844854 546.85946 102.844854, 546.85946 191.721486 546.85946 191.721486, 546.85946 280.599134 546.85946 280.599134, 546.85946 369.474242 546.85946 369.474242, 546.85946 458.35189 546.85946 458.35189, 546.85946 458.35189"/>
      </g>
    </g>
  </g>
</svg>
