<?xml version="1.0" encoding="utf-8"?>
<!-- Generator: www.crescit.com, SVG Export - SVG Version: 6.00 Build 1  -->
<!-- FXGUID: [27EBFEAA-1A69-11E7-8FEA-F0761CCEA3DE] SYMID: [14152]  -->
<svg xmlns="http://www.w3.org/2000/svg" version="1.1" ch_offset="0" color_bar_width="66" width="490.082332" height="310.419496" origin_x="239.556798" origin_y="154.44089" ch_offset_x="239.5567726" ch_offset_y="40" color_offset_x="239.556798" color_offset_y="-4">
  <g>
    <title>Layer 1</title>
    <g>
      <g>
        <polyline style="fill: gray;stroke: black;stroke-width: 1;" points="445.31915 2.54, 34.603182 2.54 34.603182 2.54, 11.70051 35.124898 11.70051 35.124898, 11.70051 265.134852 11.70051 265.134852, 34.603182 297.71975 34.603182 297.71975, 445.31915 297.71975 445.31915 297.71975, 468.221568 265.134852 468.221568 265.134852, 468.221568 35.124898 468.221568 35.124898, 445.31915 2.54"/>
      </g>
      <g>
        <polyline style="fill: gray;stroke: black;stroke-width: 1;" points="71.247508 226.279964, 45.29074 226.279964 45.29074 226.279964, 31.549848 202.728576 31.549848 202.728576, 31.549848 97.531174 31.549848 97.531174, 45.29074 73.98004 45.29074 73.98004, 71.247508 73.98004 71.247508 73.98004, 71.247508 226.279964"/>
      </g>
      <g>
        <polyline style="fill: gray;stroke: black;stroke-width: 1;" points="448.373246 202.728576, 434.631338 226.279964 434.631338 226.279964, 408.675586 226.279964 408.675586 226.279964, 408.675586 73.98004 408.675586 73.98004, 434.631338 73.98004 434.631338 73.98004, 448.373246 97.531174 448.373246 97.531174, 448.373246 202.728576"/>
      </g>
      <g>
        <polyline style="fill: gray;stroke: black;stroke-width: 1;" points="467.07679 87.325708, 12.846304 87.325708 12.846304 87.325708, 2.54 101.849682 2.54 101.849682, 2.54 198.410322 2.54 198.410322, 12.846304 212.934296 12.846304 212.934296, 467.07679 212.934296 467.07679 212.934296, 477.382332 198.410322 477.382332 198.410322, 477.382332 101.849682 477.382332 101.849682, 467.07679 87.325708"/>
      </g>
      <g>
        <polyline style="fill: gray;stroke: black;stroke-width: 1;" points="433.48656 172.30725, 425.470828 172.30725 425.470828 172.30725, 425.470828 127.951738 425.470828 127.951738, 433.48656 127.951738 433.48656 127.951738, 433.48656 172.30725"/>
      </g>
      <g>
        <polyline style="fill: gray;stroke: black;stroke-width: 1;" points="433.48656 212.934296, 467.07679 212.934296 467.07679 212.934296, 477.382332 198.410322 477.382332 198.410322, 477.382332 101.849682 477.382332 101.849682, 467.07679 87.325708 467.07679 87.325708, 433.48656 87.325708 433.48656 87.325708, 433.48656 212.934296"/>
      </g>
      <g>
        <polyline style="fill: gray;stroke: black;stroke-width: 1;" points="46.435772 172.30725, 54.452266 172.30725 54.452266 172.30725, 54.452266 127.951738 54.452266 127.951738, 46.435772 127.951738 46.435772 127.951738, 46.435772 172.30725"/>
      </g>
      <g>
        <polyline style="fill: gray;stroke: black;stroke-width: 1;" points="46.435772 212.934296, 12.846304 212.934296 12.846304 212.934296, 2.54 198.410322 2.54 198.410322, 2.54 101.849682 2.54 101.849682, 12.846304 87.325708 12.846304 87.325708, 46.435772 87.325708 46.435772 87.325708, 46.435772 212.934296"/>
      </g>
      <g>
        <polyline style="fill: gray;stroke: black;stroke-width: 1;" points="425.48937 57.276238, 425.48937 218.620086 425.48937 218.620086, 388.841996 270.439388 388.841996 270.439388, 91.081098 270.439388 91.081098 270.439388, 54.432962 218.620086 54.432962 218.620086, 54.432962 57.276238 54.432962 57.276238, 425.48937 57.276238"/>
      </g>
      <g>
        <polyline style="fill: gray;stroke: black;stroke-width: 1;" points="372.41353 56.903366, 371.650006 238.250476 371.650006 238.250476, 360.58094 253.951232 360.58094 253.951232, 337.041998 235.763816 337.041998 235.763816, 301.416212 224.642934 301.416212 224.642934, 255.611376 219.40901 255.611376 219.40901, 224.311718 219.40901 224.311718 219.40901, 179.65166 224.642934 179.65166 224.642934, 142.881096 236.157008 142.881096 236.157008, 119.342154 253.951232 119.342154 253.951232, 108.272326 238.250476 108.272326 238.250476, 107.509564 56.903366 107.509564 56.903366, 372.41353 56.903366"/>
      </g>
      <g>
        <polyline style="fill: gray;stroke: black;stroke-width: 1;" points="147.779232 216.661238, 134.419594 216.661238 134.419594 216.661238, 134.419594 171.521374 134.419594 171.521374, 147.779232 171.521374 147.779232 171.521374, 147.779232 216.661238"/>
      </g>
      <g>
        <polyline style="fill: gray;stroke: black;stroke-width: 1;" points="176.025556 216.661238, 162.665918 216.661238 162.665918 216.661238, 162.665918 171.521374 162.665918 171.521374, 176.025556 171.521374 176.025556 171.521374, 176.025556 216.661238"/>
      </g>
      <g>
        <polyline style="fill: gray;stroke: black;stroke-width: 1;" points="204.27188 216.661238, 190.912242 216.661238 190.912242 216.661238, 190.912242 171.521374 190.912242 171.521374, 204.27188 171.521374 204.27188 171.521374, 204.27188 216.661238"/>
      </g>
      <g>
        <polyline style="fill: gray;stroke: black;stroke-width: 1;" points="232.518204 216.661238, 219.158566 216.661238 219.158566 216.661238, 219.158566 171.521374 219.158566 171.521374, 232.518204 171.521374 232.518204 171.521374, 232.518204 216.661238"/>
      </g>
      <g>
        <polyline style="fill: gray;stroke: black;stroke-width: 1;" points="260.764528 216.661238, 247.40489 216.661238 247.40489 216.661238, 247.40489 171.521374 247.40489 171.521374, 260.764528 171.521374 260.764528 171.521374, 260.764528 216.661238"/>
      </g>
      <g>
        <polyline style="fill: gray;stroke: black;stroke-width: 1;" points="289.010852 216.661238, 275.651214 216.661238 275.651214 216.661238, 275.651214 171.521374 275.651214 171.521374, 289.010852 171.521374 289.010852 171.521374, 289.010852 216.661238"/>
      </g>
      <g>
        <polyline style="fill: gray;stroke: black;stroke-width: 1;" points="317.257176 216.661238, 303.897538 216.661238 303.897538 216.661238, 303.897538 171.521374 303.897538 171.521374, 317.257176 171.521374 317.257176 171.521374, 317.257176 216.661238"/>
      </g>
      <g>
        <polyline style="fill: gray;stroke: black;stroke-width: 1;" points="345.502738 216.661238, 332.1431 216.661238 332.1431 216.661238, 332.1431 171.521374 332.1431 171.521374, 345.502738 171.521374 345.502738 171.521374, 345.502738 216.661238"/>
      </g>
    </g>
  </g>
</svg>
