<?xml version="1.0" encoding="utf-8"?>
<!-- Generator: SVG Export - SVG Version: 6.00 Build 1  -->
<!-- FXGUID: [40BFF69B-5915-11EE-9BCD-525400685065] SYMID: [19130]  -->
<svg xmlns="http://www.w3.org/2000/svg" version="1.1" ch_offset="0" color_bar_width="66" width="745.23854" height="1286.33474" origin_x="367.6777" origin_y="662.72156" ch_offset_x="372.1845744" ch_offset_y="40" color_offset_x="367.6777" color_offset_y="-4">
  <g>
    <title>Layer 1</title>
    <g>
      <g>
        <polyline style="fill: gray;stroke: black;stroke-width: 1;" points="136.748266 688.125878, 125.862842 688.125878 125.862842 688.125878, 114.977672 688.125878 114.977672 688.125878, 104.09428 688.125878 104.09428 688.125878, 93.20784 688.125878 93.20784 688.125878, 93.20784 676.618916 93.20784 676.618916, 93.20784 665.111954 93.20784 665.111954, 93.20784 653.603976 93.20784 653.603976, 93.20784 642.097014 93.20784 642.097014, 104.09428 642.097014 104.09428 642.097014, 114.977672 642.097014 114.977672 642.097014, 125.862842 642.097014 125.862842 642.097014, 136.748266 642.097014 136.748266 642.097014, 136.748266 653.603976 136.748266 653.603976, 136.748266 665.111954 136.748266 665.111954, 136.748266 676.618916 136.748266 676.618916, 136.748266 688.125878 136.748266 688.125878, 136.748266 688.125878"/>
      </g>
      <g>
        <polyline style="fill: gray;stroke: black;stroke-width: 1;" points="598.282268 688.125878, 609.166676 688.125878 609.166676 688.125878, 620.052862 688.125878 620.052862 688.125878, 630.93854 688.125878 630.93854 688.125878, 641.82244 688.125878 641.82244 688.125878, 641.82244 676.618916 641.82244 676.618916, 641.82244 665.111954 641.82244 665.111954, 641.82244 653.603976 641.82244 653.603976, 641.82244 642.097014 641.82244 642.097014, 630.93854 642.097014 630.93854 642.097014, 620.052862 642.097014 620.052862 642.097014, 609.166676 642.097014 609.166676 642.097014, 598.282268 642.097014 598.282268 642.097014, 598.282268 653.603976 598.282268 653.603976, 598.282268 665.111954 598.282268 665.111954, 598.282268 676.618916 598.282268 676.618916, 598.282268 688.125878 598.282268 688.125878, 598.282268 688.125878"/>
      </g>
      <g>
        <polyline style="fill: gray;stroke: black;stroke-width: 1;" points="157.89656 675.68572, 152.609296 675.68572 152.609296 675.68572, 147.322032 675.68572 147.322032 675.68572, 142.03553 675.68572 142.03553 675.68572, 136.748266 675.68572 136.748266 675.68572, 136.748266 670.088322 136.748266 670.088322, 136.748266 664.490162 136.748266 664.490162, 136.748266 658.892002 136.748266 658.892002, 136.748266 653.29308 136.748266 653.29308, 142.03553 653.29308 142.03553 653.29308, 147.322032 653.29308 147.322032 653.29308, 152.609296 653.29308 152.609296 653.29308, 157.89656 653.29308 157.89656 653.29308, 157.89656 658.892002 157.89656 658.892002, 157.89656 664.490162 157.89656 664.490162, 157.89656 670.088322 157.89656 670.088322, 157.89656 675.68572 157.89656 675.68572, 157.89656 675.68572"/>
      </g>
      <g>
        <polyline style="fill: gray;stroke: black;stroke-width: 1;" points="577.133212 680.662088, 472.324684 680.662088 472.324684 680.662088, 367.514886 680.662088 367.514886 680.662088, 262.70585 680.662088 262.70585 680.662088, 157.89656 680.662088 157.89656 680.662088, 157.89656 672.420804 157.89656 672.420804, 157.89656 664.178504 157.89656 664.178504, 157.89656 655.93722 157.89656 655.93722, 157.89656 647.695936 157.89656 647.695936, 262.70585 647.695936 262.70585 647.695936, 367.514886 647.695936 367.514886 647.695936, 472.324684 647.695936 472.324684 647.695936, 577.133212 647.695936 577.133212 647.695936, 577.133212 655.93722 577.133212 655.93722, 577.133212 664.178504 577.133212 664.178504, 577.133212 672.420804 577.133212 672.420804, 577.133212 680.662088 577.133212 680.662088, 577.133212 680.662088"/>
      </g>
      <g>
        <polyline style="fill: gray;stroke: black;stroke-width: 1;" points="577.133212 675.68572, 582.420476 675.68572 582.420476 675.68572, 587.70774 675.68572 587.70774 675.68572, 592.995004 675.68572 592.995004 675.68572, 598.282268 675.68572 598.282268 675.68572, 598.282268 670.088322 598.282268 670.088322, 598.282268 664.490162 598.282268 664.490162, 598.282268 658.892002 598.282268 658.892002, 598.282268 653.29308 598.282268 653.29308, 592.995004 653.29308 592.995004 653.29308, 587.70774 653.29308 587.70774 653.29308, 582.420476 653.29308 582.420476 653.29308, 577.133212 653.29308 577.133212 653.29308, 577.133212 658.892002 577.133212 658.892002, 577.133212 664.490162 577.133212 664.490162, 577.133212 670.088322 577.133212 670.088322, 577.133212 675.68572 577.133212 675.68572, 577.133212 675.68572"/>
      </g>
      <g>
        <polyline style="fill: gray;stroke: black;stroke-width: 1;" points="374.770142 664.178504, 374.199658 667.004 374.199658 667.004, 372.646448 669.310066 372.646448 669.310066, 370.340382 670.864292 370.340382 670.864292, 367.514886 671.434014 367.514886 671.434014, 364.690152 670.864292 364.690152 670.864292, 362.384086 669.310066 362.384086 669.310066, 360.830114 667.004 360.830114 667.004, 360.260392 664.178504 360.260392 664.178504, 360.830114 661.354024 360.830114 661.354024, 362.384086 659.047958 362.384086 659.047958, 364.690152 657.493732 364.690152 657.493732, 367.514886 656.92401 367.514886 656.92401, 370.340382 657.493732 370.340382 657.493732, 372.646448 659.047958 372.646448 659.047958, 374.199658 661.354024 374.199658 661.354024, 374.770142 664.178504 374.770142 664.178504, 374.770142 664.178504"/>
      </g>
      <g>
        <polyline style="fill: gray;stroke: black;stroke-width: 1;" points="324.800468 664.178504, 324.229984 667.004 324.229984 667.004, 322.675758 669.310066 322.675758 669.310066, 320.370454 670.864292 320.370454 670.864292, 317.544958 671.434014 317.544958 671.434014, 314.720478 670.864292 314.720478 670.864292, 312.414412 669.310066 312.414412 669.310066, 310.859424 667.004 310.859424 667.004, 310.289702 664.178504 310.289702 664.178504, 310.859424 661.354024 310.859424 661.354024, 312.414412 659.047958 312.414412 659.047958, 314.720478 657.493732 314.720478 657.493732, 317.544958 656.92401 317.544958 656.92401, 320.370454 657.493732 320.370454 657.493732, 322.675758 659.047958 322.675758 659.047958, 324.229984 661.354024 324.229984 661.354024, 324.800468 664.178504 324.800468 664.178504, 324.800468 664.178504"/>
      </g>
      <g>
        <polyline style="fill: gray;stroke: black;stroke-width: 1;" points="426.688758 664.178504, 426.119036 667.004 426.119036 667.004, 424.56481 669.310066 424.56481 669.310066, 422.258744 670.864292 422.258744 670.864292, 419.434264 671.434014 419.434264 671.434014, 416.608768 670.864292 416.608768 670.864292, 414.302702 669.310066 414.302702 669.310066, 412.748476 667.004 412.748476 667.004, 412.178754 664.178504 412.178754 664.178504, 412.748476 661.354024 412.748476 661.354024, 414.302702 659.047958 414.302702 659.047958, 416.608768 657.493732 416.608768 657.493732, 419.434264 656.92401 419.434264 656.92401, 422.258744 657.493732 422.258744 657.493732, 424.56481 659.047958 424.56481 659.047958, 426.119036 661.354024 426.119036 661.354024, 426.688758 664.178504 426.688758 664.178504, 426.688758 664.178504"/>
      </g>
      <g>
        <polyline style="fill: gray;stroke: black;stroke-width: 1;" points="487.619548 1273.63474, 499.907306 1273.63474 499.907306 1273.63474, 512.19481 1273.63474 512.19481 1273.63474, 524.482568 1273.63474 524.482568 1273.63474, 536.770072 1273.63474 536.770072 1273.63474, 542.058098 1265.54738 542.058098 1265.54738, 547.347648 1257.45748 547.347648 1257.45748, 552.635928 1249.37012 552.635928 1249.37012, 557.923954 1241.28276 557.923954 1241.28276, 557.923954 1091.96124 557.923954 1091.96124, 557.923954 942.63972 557.923954 942.63972, 557.923954 793.319216 557.923954 793.319216, 557.923954 643.998204 557.923954 643.998204, 565.23509 643.998204 565.23509 643.998204, 572.544702 643.998204 572.544702 643.998204, 579.855838 643.998204 579.855838 643.998204, 587.16545 643.998204 587.16545 643.998204, 589.343754 642.754112 589.343754 642.754112, 591.521804 641.51002 591.521804 641.51002, 593.69833 640.265928 593.69833 640.265928, 595.876634 639.021836 595.876634 639.021836, 595.876634 627.977408 595.876634 627.977408, 595.876634 616.934758 595.876634 616.934758, 595.876634 605.89033 595.876634 605.89033, 595.876634 594.846918 595.876634 594.846918, 593.855048 592.825332 593.855048 592.825332, 591.831938 590.802984 591.831938 590.802984, 589.810352 588.781398 589.810352 588.781398, 587.788766 586.75905 587.788766 586.75905, 580.47763 586.75905 580.47763 586.75905, 573.167764 586.75905 573.167764 586.75905, 565.856628 586.75905 565.856628 586.75905, 558.547016 586.75905 558.547016 586.75905, 558.547016 588.781398 558.547016 588.781398, 558.547016 590.802984 558.547016 590.802984, 558.547016 592.825332 558.547016 592.825332, 558.547016 594.846918 558.547016 594.846918, 549.991026 594.846918 549.991026 594.846918, 541.435036 594.846918 541.435036 594.846918, 532.878792 594.846918 532.878792 594.846918, 524.322802 594.846918 524.322802 594.846918, 524.322802 590.07756 524.322802 590.07756, 524.322802 585.307948 524.322802 585.307948, 524.322802 580.53859 524.322802 580.53859, 524.322802 575.768978 524.322802 575.768978, 530.751796 575.768978 530.751796 575.768978, 537.181044 575.768978 537.181044 575.768978, 543.611562 575.768978 543.611562 575.768978, 550.040556 575.768978 550.040556 575.768978, 550.040556 572.657478 550.040556 572.657478, 550.040556 569.546994 550.040556 569.546994, 550.040556 566.436256 550.040556 566.436256, 550.040556 563.324756 550.040556 563.324756, 572.439292 563.324756 572.439292 563.324756, 594.83625 563.324756 594.83625 563.324756, 617.234986 563.324756 617.234986 563.324756, 639.63296 563.324756 639.63296 563.324756, 641.7056 565.191402 641.7056 565.191402, 643.77824 567.05881 643.77824 567.05881, 645.85088 568.925202 645.85088 568.925202, 647.92606 570.791848 647.92606 570.791848, 669.07918 568.925202 669.07918 568.925202, 690.2323 567.05881 690.2323 567.05881, 711.38796 565.191402 711.38796 565.191402, 732.53854 563.324756 732.53854 563.324756, 732.53854 560.836572 732.53854 560.836572, 732.53854 558.347626 732.53854 558.347626, 732.53854 555.859442 732.53854 555.859442, 732.53854 553.370496 732.53854 553.370496, 710.76312 552.955714 710.76312 552.955714, 688.9877 552.540932 688.9877 552.540932, 667.21228 552.125388 667.21228 552.125388, 645.43686 551.71086 645.43686 551.71086, 643.77824 553.369734 643.77824 553.369734, 642.11962 555.029116 642.11962 555.029116, 640.461 556.688752 640.461 556.688752, 638.80238 558.347626 638.80238 558.347626, 616.403898 558.347626 616.403898 558.347626, 594.005416 558.347626 594.005416 558.347626, 571.60668 558.347626 571.60668 558.347626, 549.209722 558.347626 549.209722 558.347626, 549.209722 556.688752 549.209722 556.688752, 549.209722 555.029116 549.209722 555.029116, 549.209722 553.369734 549.209722 553.369734, 549.209722 551.71086 549.209722 551.71086, 548.378634 551.71086 548.378634 551.71086, 547.549324 551.71086 547.549324 551.71086, 546.71976 551.71086 546.71976 551.71086, 545.888926 551.71086 545.888926 551.71086, 545.888926 549.637204 545.888926 549.637204, 545.888926 547.56304 545.888926 547.56304, 545.888926 545.489384 545.888926 545.489384, 545.888926 543.41522 545.888926 543.41522, 547.13378 543.41522 547.13378 543.41522, 548.37711 543.41522 548.37711 543.41522, 549.621964 543.41522 549.621964 543.41522, 550.866818 543.41522 550.866818 543.41522, 550.866818 532.423624 550.866818 532.423624, 550.866818 521.432028 550.866818 521.432028, 550.866818 510.440432 550.866818 510.440432, 550.866818 499.448074 550.866818 499.448074, 542.36366 484.72344 542.36366 484.72344, 533.861772 469.998806 533.861772 469.998806, 525.35836 455.274172 525.35836 455.274172, 516.856472 440.548522 516.856472 440.548522, 516.856472 427.898306 516.856472 427.898306, 516.856472 415.247836 516.856472 415.247836, 516.856472 402.59762 516.856472 402.59762, 516.856472 389.94588 516.856472 389.94588, 526.603214 389.94588 526.603214 389.94588, 536.349956 389.94588 536.349956 389.94588, 546.096698 389.94588 546.096698 389.94588, 555.84344 389.94588 555.84344 389.94588, 557.296066 388.28726 557.296066 388.28726, 558.748692 386.62864 558.748692 386.62864, 560.199794 384.96748 560.199794 384.96748, 561.65242 383.30886 561.65242 383.30886, 561.65242 374.5992 561.65242 374.5992, 561.65242 365.887 561.65242 365.887, 561.65242 357.17734 561.65242 357.17734, 561.65242 348.46768 561.65242 348.46768, 559.785774 346.39504 559.785774 346.39504, 557.919128 344.31986 557.919128 344.31986, 556.052736 342.24722 556.052736 342.24722, 554.187614 340.17204 554.187614 340.17204, 545.268912 340.17204 545.268912 340.17204, 536.349956 340.17204 536.349956 340.17204, 527.432778 340.17204 527.432778 340.17204, 518.513822 340.17204 518.513822 340.17204, 518.513822 309.2704 518.513822 309.2704, 518.513822 278.36876 518.513822 278.36876, 518.513822 247.46712 518.513822 247.46712, 518.513822 216.56802 518.513822 216.56802, 516.441182 216.56802 516.441182 216.56802, 514.368288 216.56802 514.368288 216.56802, 512.294124 216.56802 512.294124 216.56802, 510.22123 216.56802 510.22123 216.56802, 510.22123 209.931 510.22123 209.931, 510.22123 203.29398 510.22123 203.29398, 510.22123 196.6595 510.22123 196.6595, 510.22123 190.02248 510.22123 190.02248, 521.212826 163.06292 521.212826 163.06292, 532.204422 136.10082 532.204422 136.10082, 543.196018 109.13872 543.196018 109.13872, 554.187614 82.17916 554.187614 82.17916, 554.187614 62.2681 554.187614 62.2681, 554.187614 42.35958 554.187614 42.35958, 554.187614 22.45106 554.187614 22.45106, 554.187614 2.54 554.187614 2.54, 544.854892 2.54 544.854892 2.54, 535.520646 2.54 535.520646 2.54, 526.187924 2.54 526.187924 2.54, 516.856472 2.54 516.856472 2.54, 516.856472 6.48208 516.856472 6.48208, 516.856472 10.42162 516.856472 10.42162, 516.856472 14.3637 516.856472 14.3637, 516.856472 18.30324 516.856472 18.30324, 522.24686 18.30324 522.24686 18.30324, 527.638772 18.30324 527.638772 18.30324, 533.030684 18.30324 533.030684 18.30324, 538.422596 18.30324 538.422596 18.30324, 538.422596 23.48738 538.422596 23.48738, 538.422596 28.67406 538.422596 28.67406, 538.422596 33.8582 538.422596 33.8582, 538.422596 39.04234 538.422596 39.04234, 533.030684 39.04234 533.030684 39.04234, 527.638772 39.04234 527.638772 39.04234, 522.24686 39.04234 522.24686 39.04234, 516.856472 39.04234 516.856472 39.04234, 516.856472 41.32326 516.856472 41.32326, 516.856472 43.60672 516.856472 43.60672, 516.856472 45.88764 516.856472 45.88764, 516.856472 48.16856 516.856472 48.16856, 503.169174 48.16856 503.169174 48.16856, 489.479844 48.16856 489.479844 48.16856, 475.792546 48.16856 475.792546 48.16856, 462.104994 48.16856 462.104994 48.16856, 462.104994 36.76142 462.104994 36.76142, 462.104994 25.35428 462.104994 25.35428, 462.104994 13.94714 462.104994 13.94714, 462.104994 2.54 462.104994 2.54, 456.9206 2.54 456.9206 2.54, 451.734936 2.54 451.734936 2.54, 446.549272 2.54 446.549272 2.54, 441.365132 2.54 441.365132 2.54, 441.365132 3.7846 441.365132 3.7846, 441.365132 5.0292 441.365132 5.0292, 441.365132 6.2738 441.365132 6.2738, 441.365132 7.5184 441.365132 7.5184, 432.4477 7.5184 432.4477 7.5184, 423.530522 7.5184 423.530522 7.5184, 414.613344 7.5184 414.613344 7.5184, 405.695912 7.5184 405.695912 7.5184, 386.617972 7.5184 386.617972 7.5184, 367.540032 7.5184 367.540032 7.5184, 348.462092 7.5184 348.462092 7.5184, 329.382628 7.5184 329.382628 7.5184, 320.466974 7.5184 320.466974 7.5184, 311.549796 7.5184 311.549796 7.5184, 302.632364 7.5184 302.632364 7.5184, 293.715186 7.5184 293.715186 7.5184, 293.715186 6.2738 293.715186 6.2738, 293.715186 5.0292 293.715186 5.0292, 293.715186 3.7846 293.715186 3.7846, 293.715186 2.54 293.715186 2.54, 288.531046 2.54 288.531046 2.54, 283.345128 2.54 283.345128 2.54, 278.159464 2.54 278.159464 2.54, 272.975324 2.54 272.975324 2.54, 272.975324 13.94714 272.975324 13.94714, 272.975324 25.35428 272.975324 25.35428, 272.975324 36.76142 272.975324 36.76142, 272.975324 48.16856 272.975324 48.16856, 259.287772 48.16856 259.287772 48.16856, 245.598696 48.16856 245.598696 48.16856, 231.911144 48.16856 231.911144 48.16856, 218.223592 48.16856 218.223592 48.16856, 218.223592 45.88764 218.223592 45.88764, 218.223592 43.60672 218.223592 43.60672, 218.223592 41.32326 218.223592 41.32326, 218.223592 39.04234 218.223592 39.04234, 212.83168 39.04234 212.83168 39.04234, 207.439768 39.04234 207.439768 39.04234, 202.047856 39.04234 202.047856 39.04234, 196.657468 39.04234 196.657468 39.04234, 196.657468 33.8582 196.657468 33.8582, 196.657468 28.67406 196.657468 28.67406, 196.657468 23.48738 196.657468 23.48738, 196.657468 18.30324 196.657468 18.30324, 202.047856 18.30324 202.047856 18.30324, 207.439768 18.30324 207.439768 18.30324, 212.83168 18.30324 212.83168 18.30324, 218.223592 18.30324 218.223592 18.30324, 218.223592 14.3637 218.223592 14.3637, 218.223592 10.42162 218.223592 10.42162, 218.223592 6.48208 218.223592 6.48208, 218.223592 2.54 218.223592 2.54, 208.89087 2.54 208.89087 2.54, 199.559672 2.54 199.559672 2.54, 190.22695 2.54 190.22695 2.54, 180.894228 2.54 180.894228 2.54, 180.894228 22.45106 180.894228 22.45106, 180.894228 42.35958 180.894228 42.35958, 180.894228 62.2681 180.894228 62.2681, 180.894228 82.17916 180.894228 82.17916, 191.884046 109.13872 191.884046 109.13872, 202.875642 136.10082 202.875642 136.10082, 213.867238 163.06292 213.867238 163.06292, 224.858834 190.02248 224.858834 190.02248, 224.858834 196.6595 224.858834 196.6595, 224.858834 203.29398 224.858834 203.29398, 224.858834 209.931 224.858834 209.931, 224.858834 216.56802 224.858834 216.56802, 222.786194 216.56802 222.786194 216.56802, 220.7133 216.56802 220.7133 216.56802, 218.639136 216.56802 218.639136 216.56802, 216.566242 216.56802 216.566242 216.56802, 216.566242 247.46712 216.566242 247.46712, 216.566242 278.36876 216.566242 278.36876, 216.566242 309.2704 216.566242 309.2704, 216.566242 340.17204 216.566242 340.17204, 207.64754 340.17204 207.64754 340.17204, 198.730362 340.17204 198.730362 340.17204, 189.811406 340.17204 189.811406 340.17204, 180.894228 340.17204 180.894228 340.17204, 179.027582 342.24722 179.027582 342.24722, 177.160936 344.31986 177.160936 344.31986, 175.294544 346.39504 175.294544 346.39504, 173.427898 348.46768 173.427898 348.46768, 173.427898 357.17734 173.427898 357.17734, 173.427898 365.887 173.427898 365.887, 173.427898 374.5992 173.427898 374.5992, 173.427898 383.30886 173.427898 383.30886, 174.879 384.96748 174.879 384.96748, 176.331626 386.62864 176.331626 386.62864, 177.784252 388.28726 177.784252 388.28726, 179.236878 389.94588 179.236878 389.94588, 188.98362 389.94588 188.98362 389.94588, 198.730362 389.94588 198.730362 389.94588, 208.47685 389.94588 208.47685 389.94588, 218.223592 389.94588 218.223592 389.94588, 218.223592 402.59762 218.223592 402.59762, 218.223592 415.247836 218.223592 415.247836, 218.223592 427.898306 218.223592 427.898306, 218.223592 440.548522 218.223592 440.548522, 209.721704 455.274172 209.721704 455.274172, 201.218546 469.998806 201.218546 469.998806, 192.716658 484.72344 192.716658 484.72344, 184.213246 499.448074 184.213246 499.448074, 184.213246 510.440432 184.213246 510.440432, 184.213246 521.432028 184.213246 521.432028, 184.213246 532.423624 184.213246 532.423624, 184.213246 543.41522 184.213246 543.41522, 185.4581 543.41522 185.4581 543.41522, 186.70143 543.41522 186.70143 543.41522, 187.946284 543.41522 187.946284 543.41522, 189.191392 543.41522 189.191392 543.41522, 189.191392 545.489384 189.191392 545.489384, 189.191392 547.56304 189.191392 547.56304, 189.191392 549.637204 189.191392 549.637204, 189.191392 551.71086 189.191392 551.71086, 188.361828 551.71086 188.361828 551.71086, 187.530994 551.71086 187.530994 551.71086, 186.70143 551.71086 186.70143 551.71086, 185.870596 551.71086 185.870596 551.71086, 185.870596 553.369734 185.870596 553.369734, 185.870596 555.029116 185.870596 555.029116, 185.870596 556.688752 185.870596 556.688752, 185.870596 558.347626 185.870596 558.347626, 163.473384 558.347626 163.473384 558.347626, 141.074902 558.347626 141.074902 558.347626, 118.676166 558.347626 118.676166 558.347626, 96.2787 558.347626 96.2787 558.347626, 94.62008 556.688752 94.62008 556.688752, 92.96146 555.029116 92.96146 555.029116, 91.30284 553.369734 91.30284 553.369734, 89.64422 551.71086 89.64422 551.71086, 67.86626 552.125388 67.86626 552.125388, 46.09084 552.540932 46.09084 552.540932, 24.31542 552.955714 24.31542 552.955714, 2.54 553.370496 2.54 553.370496, 2.54 555.859442 2.54 555.859442, 2.54 558.347626 2.54 558.347626, 2.54 560.836572 2.54 560.836572, 2.54 563.324756 2.54 563.324756, 23.69312 565.191402 23.69312 565.191402, 44.84624 567.05881 44.84624 567.05881, 66.0019 568.925202 66.0019 568.925202, 87.15502 570.791848 87.15502 570.791848, 89.22766 568.925202 89.22766 568.925202, 91.3003 567.05881 91.3003 567.05881, 93.37294 565.191402 93.37294 565.191402, 95.44558 563.324756 95.44558 563.324756, 117.845332 563.324756 117.845332 563.324756, 140.243814 563.324756 140.243814 563.324756, 162.641026 563.324756 162.641026 563.324756, 185.039508 563.324756 185.039508 563.324756, 185.039508 566.436256 185.039508 566.436256, 185.039508 569.546994 185.039508 569.546994, 185.039508 572.657478 185.039508 572.657478, 185.039508 575.768978 185.039508 575.768978, 191.468756 575.768978 191.468756 575.768978, 197.899274 575.768978 197.899274 575.768978, 204.328268 575.768978 204.328268 575.768978, 210.757516 575.768978 210.757516 575.768978, 210.757516 580.53859 210.757516 580.53859, 210.757516 585.307948 210.757516 585.307948, 210.757516 590.07756 210.757516 590.07756, 210.757516 594.846918 210.757516 594.846918, 202.201272 594.846918 202.201272 594.846918, 193.645282 594.846918 193.645282 594.846918, 185.089292 594.846918 185.089292 594.846918, 176.533048 594.846918 176.533048 594.846918, 176.533048 592.825332 176.533048 592.825332, 176.533048 590.802984 176.533048 590.802984, 176.533048 588.781398 176.533048 588.781398, 176.533048 586.75905 176.533048 586.75905, 169.223436 586.75905 169.223436 586.75905, 161.9123 586.75905 161.9123 586.75905, 154.602688 586.75905 154.602688 586.75905, 147.291552 586.75905 147.291552 586.75905, 145.269966 588.781398 145.269966 588.781398, 143.246856 590.802984 143.246856 590.802984, 141.22527 592.825332 141.22527 592.825332, 139.203684 594.846918 139.203684 594.846918, 139.203684 605.89033 139.203684 605.89033, 139.203684 616.934758 139.203684 616.934758, 139.203684 627.977408 139.203684 627.977408, 139.203684 639.021836 139.203684 639.021836, 141.381734 640.265928 141.381734 640.265928, 143.558514 641.51002 143.558514 641.51002, 145.736564 642.754112 145.736564 642.754112, 147.91309 643.998204 147.91309 643.998204, 155.22448 643.998204 155.22448 643.998204, 162.534092 643.998204 162.534092 643.998204, 169.845228 643.998204 169.845228 643.998204, 177.156364 643.998204 177.156364 643.998204, 177.156364 793.319216 177.156364 793.319216, 177.156364 942.63972 177.156364 942.63972, 177.156364 1091.96124 177.156364 1091.96124, 177.156364 1241.28276 177.156364 1241.28276, 182.44439 1249.37012 182.44439 1249.37012, 187.732416 1257.45748 187.732416 1257.45748, 193.020442 1265.54738 193.020442 1265.54738, 198.309992 1273.63474 198.309992 1273.63474, 210.59775 1273.63474 210.59775 1273.63474, 222.885254 1273.63474 222.885254 1273.63474, 235.173012 1273.63474 235.173012 1273.63474, 247.460516 1273.63474 247.460516 1273.63474, 307.500274 1273.63474 307.500274 1273.63474, 367.540032 1273.63474 367.540032 1273.63474, 427.57979 1273.63474 427.57979 1273.63474, 487.619548 1273.63474 487.619548 1273.63474, 487.619548 1273.63474"/>
      </g>
      <g>
        <polyline style="fill: transparent;stroke: black;stroke-width: 1;" points="189.191392 543.41522, 278.365712 543.41522 278.365712 543.41522, 367.540032 543.41522 367.540032 543.41522, 456.714606 543.41522 456.714606 543.41522, 545.888926 543.41522"/>
      </g>
      <g>
        <polyline style="fill: transparent;stroke: black;stroke-width: 1;" points="189.191392 551.71086, 278.365712 551.71086 278.365712 551.71086, 367.540032 551.71086 367.540032 551.71086, 456.714606 551.71086 456.714606 551.71086, 545.888926 551.71086"/>
      </g>
      <g>
        <polyline style="fill: transparent;stroke: black;stroke-width: 1;" points="224.858834 190.02248, 296.198798 190.02248 296.198798 190.02248, 367.540032 190.02248 367.540032 190.02248, 438.88152 190.02248 438.88152 190.02248, 510.22123 190.02248"/>
      </g>
      <g>
        <polyline style="fill: transparent;stroke: black;stroke-width: 1;" points="224.858834 216.56802, 296.198798 216.56802 296.198798 216.56802, 367.540032 216.56802 367.540032 216.56802, 438.88152 216.56802 438.88152 216.56802, 510.22123 216.56802"/>
      </g>
      <g>
        <polyline style="fill: transparent;stroke: black;stroke-width: 1;" points="210.757516 575.768978, 289.149536 575.768978 289.149536 575.768978, 367.540032 575.768978 367.540032 575.768978, 445.930782 575.768978 445.930782 575.768978, 524.322802 575.768978"/>
      </g>
      <g>
        <polyline style="fill: transparent;stroke: black;stroke-width: 1;" points="210.757516 594.846918, 289.149536 594.846918 289.149536 594.846918, 367.540032 594.846918 367.540032 594.846918, 445.930782 594.846918 445.930782 594.846918, 524.322802 594.846918"/>
      </g>
      <g>
        <polyline style="fill: transparent;stroke: black;stroke-width: 1;" points="177.156364 643.998204, 272.347436 643.998204 272.347436 643.998204, 367.540032 643.998204 367.540032 643.998204, 462.732882 643.998204 462.732882 643.998204, 557.923954 643.998204"/>
      </g>
      <g>
        <polyline style="fill: transparent;stroke: black;stroke-width: 1;" points="177.156364 1241.28276, 272.347436 1241.28276 272.347436 1241.28276, 367.540032 1241.28276 367.540032 1241.28276, 462.732882 1241.28276 462.732882 1241.28276, 557.923954 1241.28276"/>
      </g>
      <g>
        <polyline style="fill: transparent;stroke: black;stroke-width: 1;" points="218.223592 440.548522, 292.882574 440.548522 292.882574 440.548522, 367.540032 440.548522 367.540032 440.548522, 442.19749 440.548522 442.19749 440.548522, 516.856472 440.548522"/>
      </g>
      <g>
        <polyline style="fill: gray;stroke: black;stroke-width: 1;" points="440.543442 65.59042, 403.835616 65.59042 403.835616 65.59042, 367.129314 65.59042 367.129314 65.59042, 330.423012 65.59042 330.423012 65.59042, 293.715186 65.59042 293.715186 65.59042, 293.715186 51.07178 293.715186 51.07178, 293.715186 36.55314 293.715186 36.55314, 293.715186 22.0345 293.715186 22.0345, 293.715186 7.5184 293.715186 7.5184, 330.423012 7.5184 330.423012 7.5184, 367.129314 7.5184 367.129314 7.5184, 403.835616 7.5184 403.835616 7.5184, 440.543442 7.5184 440.543442 7.5184, 440.543442 22.0345 440.543442 22.0345, 440.543442 36.55314 440.543442 36.55314, 440.543442 51.07178 440.543442 51.07178, 440.543442 65.59042 440.543442 65.59042, 440.543442 65.59042"/>
      </g>
      <g>
        <polyline style="fill: gray;stroke: black;stroke-width: 1;" points="409.852368 483.687882, 388.282942 483.687882 388.282942 483.687882, 366.71377 483.687882 366.71377 483.687882, 345.144598 483.687882 345.144598 483.687882, 323.575426 483.687882 323.575426 483.687882, 323.575426 379.16358 323.575426 379.16358, 323.575426 274.6375 323.575426 274.6375, 323.575426 170.11396 323.575426 170.11396, 323.575426 65.59042 323.575426 65.59042, 345.144598 65.59042 345.144598 65.59042, 366.71377 65.59042 366.71377 65.59042, 388.282942 65.59042 388.282942 65.59042, 409.852368 65.59042 409.852368 65.59042, 409.852368 170.11396 409.852368 170.11396, 409.852368 274.6375 409.852368 274.6375, 409.852368 379.16358 409.852368 379.16358, 409.852368 483.687882 409.852368 483.687882, 409.852368 483.687882"/>
      </g>
    </g>
  </g>
</svg>
