<?xml version="1.0" encoding="utf-8"?>
<!-- Generator: SVG Export - SVG Version: 6.00 Build 1  -->
<!-- FXGUID: [F1A802DD-FB9E-11E5-94E2-F0761CCEA3DE] SYMID: [14149]  -->
<svg xmlns="http://www.w3.org/2000/svg" version="1.1" ch_offset="0" color_bar_width="66" width="339.848952" height="243.054124" origin_x="165.441884" origin_y="107.191302" ch_offset_x="165.245161" ch_offset_y="40" color_offset_x="165.441884" color_offset_y="-4">
  <g>
    <title>Layer 1</title>
    <g>
      <g>
        <polyline style="fill: gray;stroke: black;stroke-width: 1;" points="304.439574 210.543648, 327.148952 178.640994 327.148952 178.640994, 327.148952 34.442146 327.148952 34.442146, 304.439574 2.54 304.439574 2.54, 25.24887 2.54 25.24887 2.54, 2.54 34.442146 2.54 34.442146, 2.54 178.640994 2.54 178.640994, 25.24887 210.543648 25.24887 210.543648, 304.439574 210.543648"/>
      </g>
      <g>
        <polyline style="fill: gray;stroke: black;stroke-width: 1;" points="41.947084 164.783008, 25.91689 142.199106 25.91689 142.199106, 25.91689 70.884034 25.91689 70.884034, 41.947084 48.300894 41.947084 48.300894, 53.969666 48.300894 53.969666 48.300894, 53.969666 164.783008 53.969666 164.783008, 41.947084 164.783008"/>
      </g>
      <g>
        <polyline style="fill: gray;stroke: black;stroke-width: 1;" points="275.71954 164.783008, 275.71954 48.300894 275.71954 48.300894, 287.742122 48.300894 287.742122 48.300894, 303.772062 70.884034 303.772062 70.884034, 303.772062 142.199106 303.772062 142.199106, 287.742122 164.783008 287.742122 164.783008, 275.71954 164.783008"/>
      </g>
      <g>
        <polyline style="fill: gray;stroke: black;stroke-width: 1;" points="317.843408 58.939684, 229.395274 58.939684 229.395274 58.939684, 220.950028 42.408094 220.950028 42.408094, 108.739178 42.408094 108.739178 42.408094, 100.293932 58.939684 100.293932 58.939684, 11.84656 58.939684 11.84656 58.939684, 2.938526 73.007982 2.938526 73.007982, 2.938526 140.375132 2.938526 140.375132, 11.84656 154.442414 11.84656 154.442414, 100.357432 154.442414 100.357432 154.442414, 108.739178 170.974766 108.739178 170.974766, 220.950028 170.776392 220.950028 170.776392, 229.294436 154.442414 229.294436 154.442414, 317.843408 154.442414 317.843408 154.442414, 326.75068 140.375132 326.75068 140.375132, 326.75068 73.007982 326.75068 73.007982, 317.843408 58.939684"/>
      </g>
      <g>
        <polyline style="fill: gray;stroke: black;stroke-width: 1;" points="290.675314 127.09906, 284.885638 127.09906 284.885638 127.09906, 284.885638 86.283038 284.885638 86.283038, 290.675314 86.283038 290.675314 86.283038, 290.675314 127.09906"/>
      </g>
      <g>
        <polyline style="fill: gray;stroke: black;stroke-width: 1;" points="290.675314 154.442414, 317.843408 154.442414 317.843408 154.442414, 326.75068 140.375132 326.75068 140.375132, 326.75068 73.007982 326.75068 73.007982, 317.843408 58.939684 317.843408 58.939684, 290.675314 58.939684 290.675314 58.939684, 290.675314 154.442414"/>
      </g>
      <g>
        <polyline style="fill: gray;stroke: black;stroke-width: 1;" points="39.013892 127.09906, 44.803314 127.09906 44.803314 127.09906, 44.803314 86.283038 44.803314 86.283038, 39.013892 86.283038 39.013892 86.283038, 39.013892 127.09906"/>
      </g>
      <g>
        <polyline style="fill: gray;stroke: black;stroke-width: 1;" points="39.013892 154.442414, 11.84656 154.442414 11.84656 154.442414, 2.938526 140.375132 2.938526 140.375132, 2.938526 73.007982 2.938526 73.007982, 11.84656 58.939684 11.84656 58.939684, 39.013892 58.939684 39.013892 58.939684, 39.013892 154.442414"/>
      </g>
      <g>
        <polyline style="fill: gray;stroke: black;stroke-width: 1;" points="284.871668 37.76345, 284.871668 187.555886 284.871668 187.555886, 265.721084 225.995484 265.721084 225.995484, 215.839548 230.354124 215.839548 230.354124, 113.849658 230.354124 113.849658 230.354124, 63.968884 225.995484 63.968884 225.995484, 44.818046 187.555886 44.818046 187.555886, 44.818046 37.76345 44.818046 37.76345, 284.871668 37.76345"/>
      </g>
      <g>
        <polyline style="fill: gray;stroke: black;stroke-width: 1;" points="255.03251 37.76345, 256.368042 145.598134 256.368042 145.598134, 267.947902 176.635664 267.947902 176.635664, 249.242072 221.201996 249.242072 221.201996, 216.730072 230.354124 216.730072 230.354124, 112.95888 230.354124 112.95888 230.354124, 80.44688 221.201996 80.44688 221.201996, 61.741812 176.635664 61.741812 176.635664, 73.321164 145.598134 73.321164 145.598134, 74.657458 37.76345 74.657458 37.76345, 255.03251 37.76345"/>
      </g>
      <g>
        <polyline style="fill: gray;stroke: black;stroke-width: 1;" points="172.101002 161.407094, 164.41928 161.407094 164.41928 161.407094, 164.41928 129.01295 164.41928 129.01295, 172.101002 129.01295 172.101002 129.01295, 172.101002 161.407094"/>
      </g>
      <g>
        <polyline style="fill: gray;stroke: black;stroke-width: 1;" points="192.475866 161.407094, 184.793382 161.407094 184.793382 161.407094, 184.793382 129.01295 184.793382 129.01295, 192.475866 129.01295 192.475866 129.01295, 192.475866 161.407094"/>
      </g>
      <g>
        <polyline style="fill: gray;stroke: black;stroke-width: 1;" points="212.850476 161.407094, 205.167992 161.407094 205.167992 161.407094, 205.167992 129.01295 205.167992 129.01295, 212.850476 129.01295 212.850476 129.01295, 212.850476 161.407094"/>
      </g>
      <g>
        <polyline style="fill: gray;stroke: black;stroke-width: 1;" points="233.22534 161.407094, 225.542856 161.407094 225.542856 161.407094, 225.542856 129.01295 225.542856 129.01295, 233.22534 129.01295 233.22534 129.01295, 233.22534 161.407094"/>
      </g>
    </g>
  </g>
</svg>
