<?xml version="1.0" encoding="utf-8"?>
<!-- Generator: SVG Export - SVG Version: 6.00 Build 1  -->
<!-- FXGUID: [C9975BA1-B21A-11EB-8342-525400685065] SYMID: [16283]  -->
<svg xmlns="http://www.w3.org/2000/svg" version="1.1" ch_offset="0" color_bar_width="66" width="189.267338" height="272.034254" origin_x="73.918318" origin_y="136.628378" ch_offset_x="74.31786" ch_offset_y="40" color_offset_x="73.918318" color_offset_y="-4">
  <g>
    <title>Layer 1</title>
    <g>
      <g>
        <polyline style="fill: gray;stroke: black;stroke-width: 1;" points="45.164502 242.097306, 176.567338 242.097306 176.567338 242.097306, 176.567338 151.420068 176.567338 151.420068, 45.164502 151.420068 45.164502 151.420068, 45.164502 242.097306"/>
      </g>
      <g>
        <polyline style="fill: gray;stroke: black;stroke-width: 1;" points="123.201684 151.420068, 123.201684 168.431464 123.201684 168.431464, 114.485928 168.431464 114.485928 168.431464, 114.485928 173.637956 114.485928 173.637956, 111.670592 173.637956 111.670592 173.637956, 111.670592 219.88018 111.670592 219.88018, 114.485928 219.88018 114.485928 219.88018, 114.485928 225.087688 114.485928 225.087688, 123.201684 225.087688 123.201684 225.087688, 123.201684 242.097306 123.201684 242.097306, 150.28672 242.097306 150.28672 242.097306, 150.28672 151.420068 150.28672 151.420068, 123.201684 151.420068"/>
      </g>
      <g>
        <polyline style="fill: gray;stroke: black;stroke-width: 1;" points="123.201684 225.087688, 114.485928 225.087688 114.485928 225.087688, 114.485928 168.431464 114.485928 168.431464, 123.201684 168.431464 123.201684 168.431464, 123.201684 225.087688"/>
      </g>
      <g>
        <polyline style="fill: gray;stroke: black;stroke-width: 1;" points="36.582858 141.940788, 44.045124 141.940788 44.045124 141.940788, 44.045124 147.936458 44.045124 147.936458, 36.582858 147.936458 36.582858 147.936458, 36.582858 259.334254 36.582858 259.334254, 46.09084 259.334254 46.09084 259.334254, 46.09084 172.458126 46.09084 172.458126, 49.927764 172.458126 49.927764 172.458126, 49.927764 259.334254 49.927764 259.334254, 59.14898 259.334254 59.14898 259.334254, 59.14898 172.458126 59.14898 172.458126, 62.986666 172.458126 62.986666 172.458126, 62.986666 259.334254 62.986666 259.334254, 72.207882 259.334254 72.207882 259.334254, 72.207882 172.458126 72.207882 172.458126, 76.045568 172.458126 76.045568 172.458126, 76.045568 259.334254 76.045568 259.334254, 85.267546 259.334254 85.267546 259.334254, 85.267546 172.458126 85.267546 172.458126, 89.10447 172.458126 89.10447 172.458126, 89.10447 259.334254 89.10447 259.334254, 98.325686 259.334254 98.325686 259.334254, 98.325686 172.458126 98.325686 172.458126, 102.16261 172.458126 102.16261 172.458126, 102.16261 259.334254 102.16261 259.334254, 111.670592 259.334254 111.670592 259.334254, 111.670592 147.936458 111.670592 147.936458, 104.208326 147.936458 104.208326 147.936458, 104.208326 141.940788 104.208326 141.940788, 111.670592 141.940788 111.670592 141.940788, 111.670592 2.54 111.670592 2.54, 36.582858 2.54 36.582858 2.54, 36.582858 141.940788"/>
      </g>
      <g>
        <polyline style="fill: gray;stroke: black;stroke-width: 1;" points="36.582858 141.940788, 44.045124 141.940788 44.045124 141.940788, 44.045124 147.936458 44.045124 147.936458, 36.582858 147.936458 36.582858 147.936458, 36.582858 151.42083 36.582858 151.42083, 111.670592 151.42083 111.670592 151.42083, 111.670592 147.936458 111.670592 147.936458, 104.208326 147.936458 104.208326 147.936458, 104.208326 141.940788 104.208326 141.940788, 111.670592 141.940788 111.670592 141.940788, 111.670592 17.52727 111.670592 17.52727, 36.582858 17.52727 36.582858 17.52727, 36.582858 141.940788"/>
      </g>
      <g>
        <polyline style="fill: gray;stroke: black;stroke-width: 1;" points="2.54 142.31366, 2.54 147.559014 2.54 147.559014, 25.266396 147.559014 25.266396 147.559014, 25.266396 146.060668 25.266396 146.060668, 44.076874 146.060668 44.076874 146.060668, 44.076874 143.812768 44.076874 143.812768, 25.266396 143.812768 25.266396 143.812768, 25.266396 142.31366 25.266396 142.31366, 2.54 142.31366"/>
      </g>
      <g>
        <polyline style="fill: gray;stroke: black;stroke-width: 1;" points="145.71345 142.31366, 145.71345 147.559014 145.71345 147.559014, 122.9868 147.559014 122.9868 147.559014, 122.9868 146.060668 122.9868 146.060668, 104.176322 146.060668 104.176322 146.060668, 104.176322 143.812768 104.176322 143.812768, 122.9868 143.812768 122.9868 143.812768, 122.9868 142.31366 122.9868 142.31366, 145.71345 142.31366"/>
      </g>
      <g>
        <polyline style="fill: gray;stroke: black;stroke-width: 1;" points="91.405964 141.779498, 91.405964 148.093176 91.405964 148.093176, 57.613296 148.093176 57.613296 148.093176, 57.613296 141.779498 57.613296 141.779498, 91.405964 141.779498"/>
      </g>
    </g>
  </g>
</svg>
