<?xml version="1.0" encoding="utf-8"?>
<!-- Generator: SVG Export - SVG Version: 6.00 Build 1  -->
<!-- FXGUID: [6CAC8964-1B4E-11E7-9A4E-F0761CCEA3DE] SYMID: [14146]  -->
<svg xmlns="http://www.w3.org/2000/svg" version="1.1" ch_offset="0" color_bar_width="66" width="387.924294" height="440.948318" origin_x="189.286642" origin_y="215.623394" ch_offset_x="189.0499902" ch_offset_y="40" color_offset_x="189.286642" color_offset_y="-4" fxtype_offset_x="189.0499902" fxtype_offset_y="458.625194" fxtype_offset_value="MK1Spot">
  <g>
    <title>Layer 1</title>
    <g>
      <g>
        <polyline style="fill: gray;stroke: black;stroke-width: 1;" points="366.134142 139.04722, 343.410032 98.143568 343.410032 98.143568, 34.354262 98.143568 34.354262 98.143568, 11.630152 139.04722 11.630152 139.04722, 2.54 179.951634 2.54 179.951634, 2.54 254.185166 2.54 254.185166, 11.630152 295.08958 11.630152 295.08958, 34.354262 335.994248 34.354262 335.994248, 343.410032 335.994248 343.410032 335.994248, 366.134142 295.08958 366.134142 295.08958, 375.224294 254.185166 375.224294 254.185166, 375.224294 179.951634 375.224294 179.951634, 366.134142 139.04722"/>
      </g>
      <g>
        <polyline style="fill: gray;stroke: black;stroke-width: 1;" points="50.640996 286.756856, 30.94609 286.756856 30.94609 286.756856, 20.341336 242.823238 20.341336 242.823238, 20.341336 191.313816 20.341336 191.313816, 30.94609 147.380198 30.94609 147.380198, 50.640996 147.380198 50.640996 147.380198, 50.640996 286.756856"/>
      </g>
      <g>
        <polyline style="fill: gray;stroke: black;stroke-width: 1;" points="357.422958 242.823238, 346.818204 286.756856 346.818204 286.756856, 327.123298 286.756856 327.123298 286.756856, 327.123298 147.380198 327.123298 147.380198, 346.818204 147.380198 346.818204 147.380198, 357.422958 191.313816 357.422958 191.313816, 357.422958 242.823238"/>
      </g>
      <g>
        <polyline style="fill: gray;stroke: black;stroke-width: 1;" points="363.227366 146.814286, 14.536928 146.814286 14.536928 146.814286, 5.4483 179.002182 5.4483 179.002182, 5.4483 255.134872 5.4483 255.134872, 14.536928 287.322768 14.536928 287.322768, 363.227366 287.322768 363.227366 287.322768, 372.315994 255.134872 372.315994 255.134872, 372.315994 179.002182 372.315994 179.002182, 363.227366 146.814286"/>
      </g>
      <g>
        <polyline style="fill: gray;stroke: black;stroke-width: 1;" points="322.708016 250.3932, 313.997848 250.3932 313.997848 250.3932, 313.997848 183.743854 313.997848 183.743854, 322.708016 183.743854 322.708016 183.743854, 322.708016 250.3932"/>
      </g>
      <g>
        <polyline style="fill: gray;stroke: black;stroke-width: 1;" points="323.087238 287.322768, 363.227366 287.322768 363.227366 287.322768, 372.315994 255.134872 372.315994 255.134872, 372.315994 179.002182 372.315994 179.002182, 363.227366 146.814286 363.227366 146.814286, 323.087238 146.814286 323.087238 146.814286, 323.087238 287.322768"/>
      </g>
      <g>
        <polyline style="fill: gray;stroke: black;stroke-width: 1;" points="54.550818 250.3932, 63.260986 250.3932 63.260986 250.3932, 63.260986 183.743854 63.260986 183.743854, 54.550818 183.743854 54.550818 183.743854, 54.550818 250.3932"/>
      </g>
      <g>
        <polyline style="fill: gray;stroke: black;stroke-width: 1;" points="54.677056 287.322768, 14.536928 287.322768 14.536928 287.322768, 5.4483 255.134872 5.4483 255.134872, 5.4483 179.002182 5.4483 179.002182, 14.536928 146.814286 14.536928 146.814286, 54.677056 146.814286 54.677056 146.814286, 54.677056 287.322768"/>
      </g>
      <g>
        <polyline style="fill: gray;stroke: black;stroke-width: 1;" points="263.789922 428.248318, 284.45841 415.601658 284.45841 415.601658, 298.721272 397.19123 298.721272 397.19123, 303.16043 382.091438 303.16043 382.091438, 305.707542 282.80995 305.707542 282.80995, 314.245752 273.72056 314.245752 273.72056, 314.245752 161.61258 314.245752 161.61258, 305.707542 161.61258 305.707542 161.61258, 304.349404 138.631676 304.349404 138.631676, 297.014392 92.073476 297.014392 92.073476, 282.419806 29.809694 282.419806 29.809694, 262.237474 22.992334 262.237474 22.992334, 259.132832 2.54 259.132832 2.54, 118.631462 2.54 118.631462 2.54, 115.52682 22.992334 115.52682 22.992334, 95.344488 29.809694 95.344488 29.809694, 81.018126 90.718386 81.018126 90.718386, 73.18756 140.871194 73.18756 140.871194, 72.056752 161.61258 72.056752 161.61258, 63.51778 161.61258 63.51778 161.61258, 63.51778 273.72056 63.51778 273.72056, 72.056752 282.80995 72.056752 282.80995, 74.920856 384.164078 74.920856 384.164078, 79.043022 397.19123 79.043022 397.19123, 93.640656 415.953702 93.640656 415.953702, 113.974372 428.248318 113.974372 428.248318, 263.789922 428.248318 263.789922 428.248318, 263.789922 428.248318"/>
      </g>
      <g>
        <polyline style="fill: gray;stroke: black;stroke-width: 1;" points="286.773112 47.018702, 282.31973 29.809694 282.31973 29.809694, 262.13816 22.992334 262.13816 22.992334, 247.010428 27.706066 247.010428 27.706066, 247.010428 36.037266 247.010428 36.037266, 130.753104 36.037266 130.753104 36.037266, 130.753104 27.706066 130.753104 27.706066, 115.626134 22.992334 115.626134 22.992334, 95.443548 29.809694 95.443548 29.809694, 90.991182 47.018702 90.991182 47.018702, 286.773112 47.018702 286.773112 47.018702, 286.773112 47.018702"/>
      </g>
      <g>
        <polyline style="fill: gray;stroke: black;stroke-width: 1;" points="269.167102 47.090076, 280.975054 92.024454 280.975054 92.024454, 290.105338 140.741654 290.105338 140.741654, 294.919146 201.09688 294.919146 201.09688, 289.365182 379.845824 289.365182 379.845824, 265.127994 423.270934 265.127994 423.270934, 112.635538 423.270934 112.635538 423.270934, 88.39835 379.845824 88.39835 379.845824, 82.844386 201.09688 82.844386 201.09688, 87.45728 142.13078 87.45728 142.13078, 96.75368 92.181934 96.75368 92.181934, 108.59643 47.090076 108.59643 47.090076, 269.167102 47.090076 269.167102 47.090076, 269.167102 47.090076"/>
      </g>
      <g>
        <polyline style="fill: gray;stroke: black;stroke-width: 1;" points="291.917628 295.05783, 264.918698 423.270934 264.918698 423.270934, 264.893044 421.918384 264.893044 421.918384, 248.798588 377.172982 248.798588 377.172982, 236.870748 334.820514 236.870748 334.820514, 140.68425 334.820514 140.68425 334.820514, 128.639316 377.556014 128.639316 377.556014, 112.661192 421.918384 112.661192 421.918384, 112.635538 423.270934 112.635538 423.270934, 89.94013 295.05783 89.94013 295.05783, 88.046306 200.386188 88.046306 200.386188, 94.313502 145.730468 94.313502 145.730468, 103.193596 94.732856 103.193596 94.732856, 120.992392 81.85785 120.992392 81.85785, 156.967682 93.597222 156.967682 93.597222, 182.853076 145.244566 182.853076 145.244566, 210.74126 190.541148 210.74126 190.541148, 250.433332 236.587792 250.433332 236.587792, 292.60673 275.827998 292.60673 275.827998, 291.917628 295.05783"/>
      </g>
      <g>
        <polyline style="fill: gray;stroke: black;stroke-width: 1;" points="145.45691 423.270934, 137.377424 423.270934 137.377424 423.270934, 137.377424 383.380488 137.377424 383.380488, 145.45691 383.380488 145.45691 383.380488, 145.45691 423.270934"/>
      </g>
      <g>
        <polyline style="fill: gray;stroke: black;stroke-width: 1;" points="169.188638 423.270934, 161.110168 423.270934 161.110168 423.270934, 161.110168 383.380488 161.110168 383.380488, 169.188638 383.380488 169.188638 383.380488, 169.188638 423.270934"/>
      </g>
      <g>
        <polyline style="fill: gray;stroke: black;stroke-width: 1;" points="192.921382 423.270934, 184.84215 423.270934 184.84215 423.270934, 184.84215 383.380488 184.84215 383.380488, 192.921382 383.380488 192.921382 383.380488, 192.921382 423.270934"/>
      </g>
      <g>
        <polyline style="fill: gray;stroke: black;stroke-width: 1;" points="216.653364 423.270934, 208.57464 423.270934 208.57464 423.270934, 208.57464 383.380488 208.57464 383.380488, 216.653364 383.380488 216.653364 383.380488, 216.653364 423.270934"/>
      </g>
      <g>
        <polyline style="fill: gray;stroke: black;stroke-width: 1;" points="240.386108 423.270934, 232.306622 423.270934 232.306622 423.270934, 232.306622 383.380488 232.306622 383.380488, 240.386108 383.380488 240.386108 383.380488, 240.386108 423.270934"/>
      </g>
    </g>
  </g>
</svg>
