<?xml version="1.0" encoding="utf-8"?>
<!-- Generator: SVG Export - SVG Version: 6.00 Build 1  -->
<!-- FXGUID: [7CCAB1B1-724D-11EB-9E36-525400685065] SYMID: [15564]  -->
<svg xmlns="http://www.w3.org/2000/svg" version="1.1" ch_offset="0" color_bar_width="66" width="268.092174" height="205.717648" origin_x="138.190986" origin_y="54.64937" ch_offset_x="138.420602" ch_offset_y="40" color_offset_x="138.190986" color_offset_y="-4">
  <g>
    <title>Layer 1</title>
    <g>
      <g>
        <polyline style="fill: gray;stroke: black;stroke-width: 1;" points="249.328178 69.570854, 26.77668 69.570854 26.77668 69.570854, 26.77668 39.33698 26.77668 39.33698, 249.328178 39.33698 249.328178 39.33698, 249.328178 69.570854"/>
      </g>
      <g>
        <polyline style="fill: gray;stroke: black;stroke-width: 1;" points="249.349006 48.98771, 249.349006 30.059376 249.349006 30.059376, 244.866414 30.059376 244.866414 30.059376, 244.866414 47.705518 244.866414 47.705518, 243.331746 47.705518 243.331746 47.705518, 243.331746 61.202316 243.331746 61.202316, 244.866414 61.202316 244.866414 61.202316, 244.866414 78.848712 244.866414 78.848712, 249.349006 78.848712 249.349006 78.848712, 249.349006 59.920378 249.349006 59.920378, 255.392174 59.920378 255.392174 59.920378, 255.392174 48.98771 255.392174 48.98771, 249.349006 48.98771"/>
      </g>
      <g>
        <polyline style="fill: gray;stroke: black;stroke-width: 1;" points="31.241492 30.059376, 26.757884 30.059376 26.757884 30.059376, 26.757884 45.208698 26.757884 45.208698, 16.315182 45.208698 16.315182 45.208698, 16.315182 32.453834 16.315182 32.453834, 6.049264 32.453834 6.049264 32.453834, 2.54 39.202106 2.54 39.202106, 2.54 69.705728 2.54 69.705728, 6.049264 76.454254 6.049264 76.454254, 16.315182 76.454254 16.315182 76.454254, 16.315182 63.699136 16.315182 63.699136, 26.757884 63.699136 26.757884 63.699136, 26.757884 78.848712 26.757884 78.848712, 31.241492 78.848712 31.241492 78.848712, 31.241492 61.202316 31.241492 61.202316, 32.77616 61.202316 32.77616 61.202316, 32.77616 47.705518 32.77616 47.705518, 31.241492 47.705518 31.241492 47.705518, 31.241492 30.059376"/>
      </g>
      <g>
        <polyline style="fill: gray;stroke: black;stroke-width: 1;" points="239.434116 13.895324, 239.434116 2.556256 239.434116 2.556256, 36.68141 2.556256 36.68141 2.556256, 36.68141 13.895324 36.68141 13.895324, 32.78251 17.53997 32.78251 17.53997, 32.78251 78.687422 32.78251 78.687422, 35.12185 78.687422 35.12185 78.687422, 53.057298 150.364444 53.057298 150.364444, 53.057298 164.537136 53.057298 164.537136, 67.361054 164.537136 67.361054 164.537136, 67.361054 173.716442 67.361054 173.716442, 208.753964 173.716442 208.753964 173.716442, 208.753964 164.537136 208.753964 164.537136, 223.05772 164.537136 223.05772 164.537136, 223.05772 150.364444 223.05772 150.364444, 240.993676 78.687422 240.993676 78.687422, 243.33327 78.687422 243.33327 78.687422, 243.33327 17.53997 243.33327 17.53997, 239.434116 13.895324"/>
      </g>
      <g>
        <polyline style="fill: gray;stroke: black;stroke-width: 1;" points="43.708828 44.009564, 43.708828 72.218804 43.708828 72.218804, 58.26379 156.440124 58.26379 156.440124, 60.60313 156.440124 60.60313 156.440124, 60.60313 43.87469 60.60313 43.87469, 43.708828 44.009564"/>
      </g>
      <g>
        <polyline style="fill: gray;stroke: black;stroke-width: 1;" points="67.361054 43.87469, 67.361054 106.501184 67.361054 106.501184, 75.938634 159.949896 75.938634 159.949896, 79.317596 159.949896 79.317596 159.949896, 79.317596 44.009564 79.317596 44.009564, 67.361054 43.87469"/>
      </g>
      <g>
        <polyline style="fill: gray;stroke: black;stroke-width: 1;" points="96.990916 43.87469, 96.990916 106.501184 96.990916 106.501184, 105.56875 165.888416 105.56875 165.888416, 108.947458 165.888416 108.947458 165.888416, 108.947458 44.009564 108.947458 44.009564, 96.990916 43.87469"/>
      </g>
      <g>
        <polyline style="fill: gray;stroke: black;stroke-width: 1;" points="232.405936 44.009564, 232.405936 72.218804 232.405936 72.218804, 217.850974 156.440124 217.850974 156.440124, 215.511634 156.440124 215.511634 156.440124, 215.511634 43.87469 215.511634 43.87469, 232.405936 44.009564"/>
      </g>
      <g>
        <polyline style="fill: gray;stroke: black;stroke-width: 1;" points="208.753964 43.87469, 208.753964 106.501184 208.753964 106.501184, 200.176892 159.949896 200.176892 159.949896, 196.79793 159.949896 196.79793 159.949896, 196.79793 44.009564 196.79793 44.009564, 208.753964 43.87469"/>
      </g>
      <g>
        <polyline style="fill: gray;stroke: black;stroke-width: 1;" points="179.123848 43.87469, 179.123848 106.501184 179.123848 106.501184, 170.54703 165.888416 170.54703 165.888416, 167.168068 165.888416 167.168068 165.888416, 167.168068 44.009564 167.168068 44.009564, 179.123848 43.87469"/>
      </g>
      <g>
        <polyline style="fill: gray;stroke: black;stroke-width: 1;" points="143.775684 44.684696, 140.137134 170.207432 140.137134 170.207432, 135.978392 170.207432 135.978392 170.207432, 132.33908 44.684696 132.33908 44.684696, 143.775684 44.684696"/>
      </g>
      <g>
        <polyline style="fill: gray;stroke: black;stroke-width: 1;" points="239.466882 13.895324, 227.284534 2.54 227.284534 2.54, 222.501968 2.57429 222.501968 2.57429, 236.017308 16.071088 236.017308 16.071088, 231.926892 16.071088 231.926892 16.071088, 230.441754 13.922248 230.441754 13.922248, 225.0948 10.404856 225.0948 10.404856, 217.163396 8.03275 217.163396 8.03275, 207.450944 7.163054 207.450944 7.163054, 197.739 8.03275 197.739 8.03275, 189.80785 10.404856 189.80785 10.404856, 184.460134 13.922248 184.460134 13.922248, 182.975504 16.071088 182.975504 16.071088, 93.140022 16.071088 93.140022 16.071088, 91.655646 13.922248 91.655646 13.922248, 86.30793 10.404856 86.30793 10.404856, 78.376526 8.03275 78.376526 8.03275, 68.664074 7.163054 68.664074 7.163054, 58.95213 8.03275 58.95213 8.03275, 51.02098 10.404856 51.02098 10.404856, 45.67301 13.922248 45.67301 13.922248, 44.188634 16.071088 44.188634 16.071088, 40.30218 16.071088 40.30218 16.071088, 53.81752 2.57429 53.81752 2.57429, 48.83023 2.54 48.83023 2.54, 36.648898 13.895324 36.648898 13.895324, 32.749236 17.53997 32.749236 17.53997, 32.749236 30.692598 32.749236 30.692598, 243.317776 30.692598 243.317776 30.692598, 243.33327 17.53997 243.33327 17.53997, 239.466882 13.895324 239.466882 13.895324, 239.466882 13.895324"/>
      </g>
      <g>
        <polyline style="fill: gray;stroke: black;stroke-width: 1;" points="142.984982 173.716442, 98.019616 173.716442 98.019616 173.716442, 98.019616 181.20995 98.019616 181.20995, 102.567994 181.20995 102.567994 181.20995, 102.567994 186.659774 102.567994 186.659774, 105.037636 186.659774 105.037636 186.659774, 105.037636 193.017648 105.037636 193.017648, 135.967724 193.017648 135.967724 193.017648, 135.967724 186.659774 135.967724 186.659774, 138.43635 186.659774 138.43635 186.659774, 138.43635 181.20995 138.43635 181.20995, 142.984982 181.20995 142.984982 181.20995, 142.984982 173.716442"/>
      </g>
      <g>
        <polyline style="fill: gray;stroke: black;stroke-width: 1;" points="178.095402 179.178966, 178.095402 173.72965 178.095402 173.72965, 146.322034 173.72965 146.322034 173.72965, 146.322034 179.178966 146.322034 179.178966, 150.220934 179.178966 150.220934 179.178966, 150.220934 181.05247 150.220934 181.05247, 148.07692 181.05247 148.07692 181.05247, 148.07692 188.374528 148.07692 188.374528, 176.341024 188.374528 176.341024 188.374528, 176.341024 181.05247 176.341024 181.05247, 174.19701 181.05247 174.19701 181.05247, 174.19701 179.178966 174.19701 179.178966, 178.095402 179.178966"/>
      </g>
    </g>
  </g>
</svg>
