<?xml version="1.0" encoding="utf-8"?>
<!-- Generator: SVG Export - SVG Version: 6.00 Build 1  -->
<!-- FXGUID: [7A13F207-7266-11EB-9E36-525400685065] SYMID: [15565]  -->
<svg xmlns="http://www.w3.org/2000/svg" version="1.1" ch_offset="0" color_bar_width="66" width="278.68118" height="200.748646" origin_x="138.631422" origin_y="102.441248" ch_offset_x="139.4751592" ch_offset_y="40" color_offset_x="138.631422" color_offset_y="-4">
  <g>
    <title>Layer 1</title>
    <g>
      <g>
        <polyline style="fill: gray;stroke: black;stroke-width: 1;" points="262.376158 125.675136, 16.18869 125.675136 16.18869 125.675136, 16.18869 79.970884 16.18869 79.970884, 262.376158 79.970884 262.376158 79.970884, 262.376158 125.675136"/>
      </g>
      <g>
        <polyline style="fill: gray;stroke: black;stroke-width: 1;" points="2.54 98.86823, 2.54 75.27036 2.54 75.27036, 16.250666 75.27036 16.250666 75.27036, 16.250666 92.671646 16.250666 92.671646, 26.006044 92.671646 26.006044 92.671646, 26.006044 80.195674 26.006044 80.195674, 35.446462 80.195674 35.446462 80.195674, 35.446462 125.451108 35.446462 125.451108, 26.006044 125.451108 26.006044 125.451108, 26.006044 112.974374 26.006044 112.974374, 16.250666 112.974374 16.250666 112.974374, 16.250666 130.376422 16.250666 130.376422, 2.54 130.376422 2.54 130.376422, 2.54 106.77779 2.54 106.77779, 5.704078 106.77779 5.704078 106.77779, 5.704078 98.86823 5.704078 98.86823, 2.54 98.86823"/>
      </g>
      <g>
        <polyline style="fill: gray;stroke: black;stroke-width: 1;" points="276.14118 98.86823, 276.14118 75.27036 276.14118 75.27036, 262.43026 75.27036 262.43026 75.27036, 262.43026 92.671646 262.43026 92.671646, 252.675136 92.671646 252.675136 92.671646, 252.675136 80.195674 252.675136 80.195674, 243.234718 80.195674 243.234718 80.195674, 243.234718 125.451108 243.234718 125.451108, 252.675136 125.451108 252.675136 125.451108, 252.675136 112.974374 252.675136 112.974374, 262.43026 112.974374 262.43026 112.974374, 262.43026 130.376422 262.43026 130.376422, 276.14118 130.376422 276.14118 130.376422, 276.14118 106.77779 276.14118 106.77779, 272.977102 106.77779 272.977102 106.77779, 272.977102 98.86823 272.977102 98.86823, 276.14118 98.86823"/>
      </g>
      <g>
        <polyline style="fill: gray;stroke: black;stroke-width: 1;" points="245.35003 2.54, 227.931726 2.54 227.931726 2.54, 227.931726 9.77138 227.931726 9.77138, 237.424214 9.77138 237.424214 9.77138, 237.424214 14.253972 237.424214 14.253972, 156.74213 14.253972 156.74213 14.253972, 156.74213 2.54 156.74213 2.54, 121.938034 2.54 121.938034 2.54, 121.938034 14.253972 121.938034 14.253972, 41.256966 14.253972 41.256966 14.253972, 41.256966 9.77138 41.256966 9.77138, 50.749454 9.77138 50.749454 9.77138, 50.749454 2.54 50.749454 2.54, 33.33115 2.54 33.33115 2.54, 33.33115 54.225952 33.33115 54.225952, 42.29735 84.288376 42.29735 84.288376, 35.441128 84.288376 35.441128 84.288376, 35.441128 120.67921 35.441128 120.67921, 52.318412 120.67921 52.318412 120.67921, 58.64733 154.433778 58.64733 154.433778, 58.64733 198.208646 58.64733 198.208646, 220.034358 198.208646 220.034358 198.208646, 220.034358 154.433778 220.034358 154.433778, 226.362768 120.67921 226.362768 120.67921, 243.240052 120.67921 243.240052 120.67921, 243.240052 84.288376 243.240052 84.288376, 236.38383 84.288376 236.38383 84.288376, 245.35003 54.225952 245.35003 54.225952, 245.35003 2.54"/>
      </g>
      <g>
        <polyline style="fill: gray;stroke: black;stroke-width: 1;" points="245.398036 43.573192, 33.283144 43.573192 33.283144 43.573192, 33.283144 21.775928 33.283144 21.775928, 245.398036 21.775928 245.398036 21.775928, 245.398036 43.573192"/>
      </g>
      <g>
        <polyline style="fill: gray;stroke: black;stroke-width: 1;" points="70.783958 53.768498, 47.052738 53.768498 47.052738 53.768498, 67.795648 152.911302 67.795648 152.911302, 70.783958 154.818334 70.783958 154.818334, 70.783958 53.768498"/>
      </g>
      <g>
        <polyline style="fill: gray;stroke: black;stroke-width: 1;" points="82.737452 162.443414, 102.074218 174.778924 102.074218 174.778924, 102.074218 53.768498 102.074218 53.768498, 82.737452 53.768498 82.737452 53.768498, 82.737452 162.443414"/>
      </g>
      <g>
        <polyline style="fill: gray;stroke: black;stroke-width: 1;" points="207.89646 53.768498, 207.89646 154.818334 207.89646 154.818334, 210.885532 152.911302 210.885532 152.911302, 231.628442 53.768498 231.628442 53.768498, 207.89646 53.768498"/>
      </g>
      <g>
        <polyline style="fill: gray;stroke: black;stroke-width: 1;" points="176.606962 174.778924, 195.943728 162.443414 195.943728 162.443414, 195.943728 53.768498 195.943728 53.768498, 176.606962 53.768498 176.606962 53.768498, 176.606962 174.778924"/>
      </g>
      <g>
        <polyline style="fill: gray;stroke: black;stroke-width: 1;" points="164.653468 53.768498, 145.31721 53.768498 145.31721 53.768498, 145.31721 191.936116 145.31721 191.936116, 149.711664 191.936116 149.711664 191.936116, 164.653468 182.404258 164.653468 182.404258, 164.653468 53.768498"/>
      </g>
      <g>
        <polyline style="fill: gray;stroke: black;stroke-width: 1;" points="133.363716 53.768498, 114.027712 53.768498 114.027712 53.768498, 114.027712 182.404258 114.027712 182.404258, 128.968754 191.936116 128.968754 191.936116, 133.363716 191.936116 133.363716 191.936116, 133.363716 53.768498"/>
      </g>
    </g>
  </g>
</svg>
