<?xml version="1.0" encoding="utf-8"?>
<!-- Generator: SVG Export - SVG Version: 6.00 Build 1  -->
<!-- FXGUID: [43D9DA45-659A-11E6-ACA8-F0761CCEA3DE] SYMID: [14163]  -->
<svg xmlns="http://www.w3.org/2000/svg" version="1.1" ch_offset="0" color_bar_width="66" width="1768.23624" height="224.942654" origin_x="870.46054" origin_y="86.614508" ch_offset_x="870.7557388" ch_offset_y="40" color_offset_x="870.46054" color_offset_y="-4" fxtype_offset_x="845.06054" fxtype_offset_y="315.214508" fxtype_offset_value="B2805FC">
  <g>
    <title>Layer 1</title>
    <g>
      <g>
        <polyline style="fill: gray;stroke: black;stroke-width: 1;" points="152.77846 212.242654, 120.75668 212.242654 120.75668 212.242654, 108.30306 198.997824 108.30306 198.997824, 108.30306 15.784068 108.30306 15.784068, 120.75668 2.54 120.75668 2.54, 152.77846 2.54 152.77846 2.54, 152.77846 212.242654"/>
      </g>
      <g>
        <polyline style="fill: gray;stroke: black;stroke-width: 1;" points="1603.28864 212.242654, 1635.31042 212.242654 1635.31042 212.242654, 1647.76404 198.997824 1647.76404 198.997824, 1647.76404 15.784068 1647.76404 15.784068, 1635.31042 2.54 1635.31042 2.54, 1603.28864 2.54 1603.28864 2.54, 1603.28864 212.242654"/>
      </g>
      <g>
        <polyline style="fill: gray;stroke: black;stroke-width: 1;" points="1258.68176 144.288764, 1292.57806 80.515714 1292.57806 80.515714, 1604.74914 80.515714 1604.74914 80.515714, 1604.74914 137.913872 1604.74914 137.913872, 1676.8064 137.913872 1676.8064 137.913872, 1676.8064 118.044468 1676.8064 118.044468, 1687.48202 80.515714 1687.48202 80.515714, 1744.86316 80.515714 1744.86316 80.515714, 1744.86316 118.044468 1744.86316 118.044468, 1755.53624 118.044468 1755.53624 118.044468, 1755.53624 28.63596 1755.53624 28.63596, 2.54 28.63596 2.54 28.63596, 2.54 118.044468 2.54 118.044468, 13.21562 118.044468 13.21562 118.044468, 13.21562 80.557624 13.21562 80.557624, 70.59422 80.48879 70.59422 80.48879, 81.26984 118.044468 81.26984 118.044468, 81.26984 137.913872 81.26984 137.913872, 153.32964 137.913872 153.32964 137.913872, 153.32964 80.515714 153.32964 80.515714, 465.49818 80.515714 465.49818 80.515714, 499.39448 144.288764 499.39448 144.288764, 1258.68176 144.288764"/>
      </g>
      <g>
        <polyline style="fill: gray;stroke: black;stroke-width: 1;" points="2.54 43.918886, 2.54 85.75421 2.54 85.75421, 1755.2924 85.75421 1755.2924 85.75421, 1755.2924 43.918886 1755.2924 43.918886, 2.54 43.918886"/>
      </g>
    </g>
  </g>
</svg>
