<?xml version="1.0" encoding="utf-8"?>
<!-- Generator: SVG Export - SVG Version: 6.00 Build 1  -->
<!-- FXGUID: [881748CB-E9C2-11E4-BB62-2AA6C0D2DCD6] SYMID: [14143]  -->
<svg xmlns="http://www.w3.org/2000/svg" version="1.1" ch_offset="0" color_bar_width="66" width="242.93703" height="114.195352" origin_x="115.396264" origin_y="64.906144" ch_offset_x="116.0242282" ch_offset_y="40" color_offset_x="115.396264" color_offset_y="-4">
  <g>
    <title>Layer 1</title>
    <g>
      <g>
        <polyline style="fill: gray;stroke: black;stroke-width: 1;" points="227.343462 37.982906, 220.268546 37.982906 220.268546 37.982906, 220.268546 57.119774 220.268546 57.119774, 215.76665 57.119774 215.76665 57.119774, 215.76665 44.453048 215.76665 44.453048, 211.907882 44.453048 211.907882 44.453048, 211.907882 57.119774 211.907882 57.119774, 207.08493 57.119774 207.08493 57.119774, 207.08493 71.882254 207.08493 71.882254, 211.907882 71.882254 211.907882 71.882254, 211.907882 84.549742 211.907882 84.549742, 215.76665 84.549742 215.76665 84.549742, 215.76665 71.882254 215.76665 71.882254, 220.268546 71.882254 220.268546 71.882254, 220.268546 91.019884 220.268546 91.019884, 227.343462 91.019884 227.343462 91.019884, 230.23703 71.882254 230.23703 71.882254, 230.23703 57.119774 230.23703 57.119774, 227.343462 37.982906"/>
      </g>
      <g>
        <polyline style="fill: gray;stroke: black;stroke-width: 1;" points="5.433568 37.982906, 12.508484 37.982906 12.508484 37.982906, 12.508484 57.119774 12.508484 57.119774, 17.01038 57.119774 17.01038 57.119774, 17.01038 44.453048 17.01038 44.453048, 20.869148 44.453048 20.869148 44.453048, 20.869148 57.119774 20.869148 57.119774, 25.6921 57.119774 25.6921 57.119774, 25.6921 71.882254 25.6921 71.882254, 20.869148 71.882254 20.869148 71.882254, 20.869148 84.549742 20.869148 84.549742, 17.01038 84.549742 17.01038 84.549742, 17.01038 71.882254 17.01038 71.882254, 12.508484 71.882254 12.508484 71.882254, 12.508484 91.019884 12.508484 91.019884, 5.433568 91.019884 5.433568 91.019884, 2.54 71.882254 2.54 71.882254, 2.54 57.119774 2.54 57.119774, 5.433568 37.982906"/>
      </g>
      <g>
        <polyline style="fill: gray;stroke: black;stroke-width: 1;" points="215.76665 84.549742, 17.01038 84.549742 17.01038 84.549742, 17.01038 44.453048 17.01038 44.453048, 215.76665 44.453048 215.76665 44.453048, 215.76665 84.549742"/>
      </g>
      <g>
        <polyline style="fill: gray;stroke: black;stroke-width: 1;" points="207.00111 101.495352, 207.00111 29.967936 207.00111 29.967936, 209.400394 27.81681 209.400394 27.81681, 209.400394 12.220956 209.400394 12.220956, 207.00111 9.262872 207.00111 9.262872, 207.00111 2.54 207.00111 2.54, 25.77592 2.54 25.77592 2.54, 25.77592 9.262872 25.77592 9.262872, 23.376636 12.220956 23.376636 12.220956, 23.376636 27.81681 23.376636 27.81681, 25.77592 29.967936 25.77592 29.967936, 25.77592 101.495352 25.77592 101.495352, 207.00111 101.495352"/>
      </g>
      <g>
        <polyline style="fill: gray;stroke: black;stroke-width: 1;" points="35.779964 12.220956, 39.323772 2.607564 39.323772 2.607564, 31.145988 2.607564 31.145988 2.607564, 23.34895 12.220956 23.34895 12.220956, 35.779964 12.220956"/>
      </g>
      <g>
        <polyline style="fill: gray;stroke: black;stroke-width: 1;" points="196.99732 12.220956, 193.453258 2.607564 193.453258 2.607564, 201.631042 2.607564 201.631042 2.607564, 209.427318 12.220956 209.427318 12.220956, 196.99732 12.220956"/>
      </g>
      <g>
        <polyline style="fill: gray;stroke: black;stroke-width: 1;" points="163.875974 2.54, 162.240468 12.220956 162.240468 12.220956, 70.536562 12.220956 70.536562 12.220956, 68.901056 2.54 68.901056 2.54, 163.875974 2.54"/>
      </g>
      <g>
        <polyline style="fill: gray;stroke: black;stroke-width: 1;" points="207.00111 101.495352, 25.77592 101.495352 25.77592 101.495352, 25.77592 29.967936 25.77592 29.967936, 207.00111 29.967936 207.00111 29.967936, 207.00111 101.495352"/>
      </g>
      <g>
        <polyline style="fill: gray;stroke: black;stroke-width: 1;" points="38.144196 98.764344, 32.309562 98.764344 32.309562 98.764344, 32.309562 33.011872 32.309562 33.011872, 38.144196 33.011872 38.144196 33.011872, 38.144196 98.764344"/>
      </g>
      <g>
        <polyline style="fill: gray;stroke: black;stroke-width: 1;" points="52.90058 98.764344, 47.065946 98.764344 47.065946 98.764344, 47.065946 33.011872 47.065946 33.011872, 52.90058 33.011872 52.90058 33.011872, 52.90058 98.764344"/>
      </g>
      <g>
        <polyline style="fill: gray;stroke: black;stroke-width: 1;" points="67.656964 98.764344, 61.823346 98.764344 61.823346 98.764344, 61.823346 33.011872 61.823346 33.011872, 67.656964 33.011872 67.656964 33.011872, 67.656964 98.764344"/>
      </g>
      <g>
        <polyline style="fill: gray;stroke: black;stroke-width: 1;" points="82.413348 98.764344, 76.57973 98.764344 76.57973 98.764344, 76.57973 33.011872 76.57973 33.011872, 82.413348 33.011872 82.413348 33.011872, 82.413348 98.764344"/>
      </g>
      <g>
        <polyline style="fill: gray;stroke: black;stroke-width: 1;" points="97.170748 98.764344, 91.336876 98.764344 91.336876 98.764344, 91.336876 33.011872 91.336876 33.011872, 97.170748 33.011872 97.170748 33.011872, 97.170748 98.764344"/>
      </g>
      <g>
        <polyline style="fill: gray;stroke: black;stroke-width: 1;" points="111.927132 98.764344, 106.093514 98.764344 106.093514 98.764344, 106.093514 33.011872 106.093514 33.011872, 111.927132 33.011872 111.927132 33.011872, 111.927132 98.764344"/>
      </g>
      <g>
        <polyline style="fill: gray;stroke: black;stroke-width: 1;" points="126.68377 98.764344, 120.849898 98.764344 120.849898 98.764344, 120.849898 33.011872 120.849898 33.011872, 126.68377 33.011872 126.68377 33.011872, 126.68377 98.764344"/>
      </g>
      <g>
        <polyline style="fill: gray;stroke: black;stroke-width: 1;" points="141.440154 98.764344, 135.606282 98.764344 135.606282 98.764344, 135.606282 33.011872 135.606282 33.011872, 141.440154 33.011872 141.440154 33.011872, 141.440154 98.764344"/>
      </g>
      <g>
        <polyline style="fill: gray;stroke: black;stroke-width: 1;" points="156.1973 98.764344, 150.363682 98.764344 150.363682 98.764344, 150.363682 33.011872 150.363682 33.011872, 156.1973 33.011872 156.1973 33.011872, 156.1973 98.764344"/>
      </g>
      <g>
        <polyline style="fill: gray;stroke: black;stroke-width: 1;" points="170.953938 98.764344, 165.120066 98.764344 165.120066 98.764344, 165.120066 33.011872 165.120066 33.011872, 170.953938 33.011872 170.953938 33.011872, 170.953938 98.764344"/>
      </g>
      <g>
        <polyline style="fill: gray;stroke: black;stroke-width: 1;" points="185.710322 98.764344, 179.87645 98.764344 179.87645 98.764344, 179.87645 33.011872 179.87645 33.011872, 185.710322 33.011872 185.710322 33.011872, 185.710322 98.764344"/>
      </g>
      <g>
        <polyline style="fill: gray;stroke: black;stroke-width: 1;" points="200.467468 98.764344, 194.633088 98.764344 194.633088 98.764344, 194.633088 33.011872 194.633088 33.011872, 200.467468 33.011872 200.467468 33.011872, 200.467468 98.764344"/>
      </g>
    </g>
  </g>
</svg>
