<?xml version="1.0" encoding="utf-8"?>
<!-- Generator: SVG Export - SVG Version: 6.00 Build 1  -->
<!-- FXGUID: [AC4D97D4-B1B0-11E8-9828-525400685065] SYMID: [14178]  -->
<svg xmlns="http://www.w3.org/2000/svg" version="1.1" ch_offset="0" color_bar_width="66" width="299.649134" height="368.229134" origin_x="144.083532" origin_y="202.052936" ch_offset_x="144.2710094" ch_offset_y="40" color_offset_x="144.083532" color_offset_y="-4" fxtype_offset_x="143.310102" fxtype_offset_y="387.381242" fxtype_offset_value="F415FC">
  <g>
    <title>Layer 1</title>
    <g>
      <g>
        <polyline style="fill: gray;stroke: black;stroke-width: 1;" points="285.9151 221.027244, 270.753078 186.692286 270.753078 186.692286, 250.42114 186.679078 250.42114 186.679078, 250.42114 193.79565 250.42114 193.79565, 245.941596 193.79565 245.941596 193.79565, 245.941596 182.933594 245.941596 182.933594, 238.70539 182.933594 238.70539 182.933594, 238.70539 167.20185 238.70539 167.20185, 233.880914 167.20185 233.880914 167.20185, 233.880914 174.921672 233.880914 174.921672, 229.2858 178.25085 229.2858 178.25085, 229.2858 223.574356 229.2858 223.574356, 233.880914 226.903788 233.880914 226.903788, 233.880914 234.623356 233.880914 234.623356, 238.70539 234.623356 238.70539 234.623356, 238.70539 218.892628 238.70539 218.892628, 245.941596 218.892628 245.941596 218.892628, 245.941596 208.029556 245.941596 208.029556, 250.42114 208.029556 250.42114 208.029556, 250.42114 215.146382 250.42114 215.146382, 263.491472 215.146382 263.491472 215.146382, 275.921724 231.515158 275.921724 231.515158, 275.232622 234.886246 275.232622 234.886246, 277.645114 241.254026 277.645114 241.254026, 286.949134 240.878868 286.949134 240.878868, 285.9151 221.027244"/>
      </g>
      <g>
        <polyline style="fill: gray;stroke: black;stroke-width: 1;" points="3.574034 221.027244, 18.736056 186.692286 18.736056 186.692286, 39.067232 186.679078 39.067232 186.679078, 39.067232 193.79565 39.067232 193.79565, 43.546776 193.79565 43.546776 193.79565, 43.546776 182.933594 43.546776 182.933594, 50.783744 182.933594 50.783744 182.933594, 50.783744 167.20185 50.783744 167.20185, 55.60822 167.20185 55.60822 167.20185, 55.60822 174.921672 55.60822 174.921672, 60.20308 178.25085 60.20308 178.25085, 60.20308 223.574356 60.20308 223.574356, 55.60822 226.903788 55.60822 226.903788, 55.60822 234.623356 55.60822 234.623356, 50.783744 234.623356 50.783744 234.623356, 50.783744 218.892628 50.783744 218.892628, 43.546776 218.892628 43.546776 218.892628, 43.546776 208.029556 43.546776 208.029556, 39.067232 208.029556 39.067232 208.029556, 39.067232 215.146382 39.067232 215.146382, 25.996646 215.146382 25.996646 215.146382, 13.56741 231.515158 13.56741 231.515158, 14.255496 234.886246 14.255496 234.886246, 11.84402 241.254026 11.84402 241.254026, 2.54 240.878868 2.54 240.878868, 3.574034 221.027244"/>
      </g>
      <g>
        <polyline style="fill: gray;stroke: black;stroke-width: 1;" points="245.941596 218.892628, 43.546776 218.892628 43.546776 218.892628, 43.546776 182.933594 43.546776 182.933594, 245.941596 182.933594 245.941596 182.933594, 245.941596 218.892628"/>
      </g>
      <g>
        <polyline style="fill: gray;stroke: black;stroke-width: 1;" points="221.576392 355.529134, 233.522774 332.685644 233.522774 332.685644, 233.522774 316.133988 233.522774 316.133988, 229.386638 316.133988 229.386638 316.133988, 229.386638 62.368684 229.386638 62.368684, 233.063288 62.368684 233.063288 62.368684, 233.063288 32.997648 233.063288 32.997648, 229.386638 32.997648 229.386638 32.997648, 229.386638 3.084068 229.386638 3.084068, 219.738448 3.084068 219.738448 3.084068, 219.738448 17.769078 219.738448 17.769078, 164.599874 17.769078 164.599874 17.769078, 164.599874 2.54 164.599874 2.54, 125.083824 2.54 125.083824 2.54, 125.083824 17.769078 125.083824 17.769078, 69.944488 17.769078 69.944488 17.769078, 69.944488 3.084068 69.944488 3.084068, 60.295536 3.084068 60.295536 3.084068, 60.295536 32.997648 60.295536 32.997648, 56.619648 32.997648 56.619648 32.997648, 56.619648 62.368684 56.619648 62.368684, 60.295536 62.368684 60.295536 62.368684, 60.295536 316.334648 60.295536 316.334648, 56.159908 316.334648 56.159908 316.334648, 56.159908 332.685644 56.159908 332.685644, 68.106544 355.529134 68.106544 355.529134, 221.576392 355.529134"/>
      </g>
      <g>
        <polyline style="fill: gray;stroke: black;stroke-width: 1;" points="164.599874 17.769078, 125.083824 17.769078 125.083824 17.769078, 125.083824 2.54 125.083824 2.54, 164.599874 2.54 164.599874 2.54, 164.599874 17.769078"/>
      </g>
      <g>
        <polyline style="fill: gray;stroke: black;stroke-width: 1;" points="132.607304 316.183518, 132.607304 320.709544 132.607304 320.709544, 127.438658 355.195124 127.438658 355.195124, 162.244278 355.195124 162.244278 355.195124, 157.07487 320.709544 157.07487 320.709544, 157.07487 316.133988 157.07487 316.133988, 155.179522 316.133988 155.179522 316.133988, 155.179522 62.274196 155.179522 62.274196, 160.348168 62.274196 160.348168 62.274196, 160.348168 17.644364 160.348168 17.644364, 129.334768 17.644364 129.334768 17.644364, 129.334768 62.274196 129.334768 62.274196, 134.503414 62.274196 134.503414 62.274196, 134.503414 316.158626 134.503414 316.158626, 132.607304 316.183518"/>
      </g>
      <g>
        <polyline style="fill: gray;stroke: black;stroke-width: 1;" points="131.057142 293.167054, 81.435194 293.167054 81.435194 293.167054, 81.435194 184.211722 81.435194 184.211722, 131.057142 184.211722 131.057142 184.211722, 131.057142 293.167054"/>
      </g>
      <g>
        <polyline style="fill: gray;stroke: black;stroke-width: 1;" points="208.248504 293.167054, 158.625794 293.167054 158.625794 293.167054, 158.625794 184.211722 158.625794 184.211722, 208.248504 184.211722 208.248504 184.211722, 208.248504 293.167054"/>
      </g>
      <g>
        <polyline style="fill: gray;stroke: black;stroke-width: 1;" points="198.254366 32.997648, 198.254366 41.029128 198.254366 41.029128, 91.428316 41.029128 91.428316 41.029128, 91.428316 32.997648 91.428316 32.997648, 56.619648 32.997648 56.619648 32.997648, 56.619648 62.368684 56.619648 62.368684, 233.063288 62.368684 233.063288 62.368684, 233.063288 32.997648 233.063288 32.997648, 198.254366 32.997648"/>
      </g>
      <g>
        <line x1="60.087002" y1="316.117732" x2="229.178866" y2="316.117732" style="stroke-width: 1;stroke: black;"/>
      </g>
    </g>
  </g>
</svg>
