<?xml version="1.0" encoding="utf-8"?>
<!-- Generator: www.crescit.com, SVG Export - SVG Version: 6.00 Build 1  -->
<!-- FXGUID: [9E1BE6FD-B987-11ED-A9D5-525400685065] SYMID: [18695]  -->
<svg xmlns="http://www.w3.org/2000/svg" version="1.1" ch_offset="0" color_bar_width="66" width="403.24024" height="491.86465" origin_x="196.40423" origin_y="267.37564" ch_offset_x="196.8853822" ch_offset_y="40" color_offset_x="196.40423" color_offset_y="-4">
  <g>
    <title>Layer 1</title>
    <g>
      <g>
        <polyline style="fill: transparent;stroke: black;stroke-width: 1;" points="343.847928 359.995216, 351.14357 355.66604 351.14357 355.66604, 367.194338 345.472766 367.194338 345.472766, 383.244598 333.603854 383.244598 333.603854, 390.54024 324.248526 390.54024 324.248526, 390.54024 295.902126 390.54024 295.902126, 390.54024 267.556742 390.54024 267.556742, 390.54024 239.210342 390.54024 239.210342, 390.54024 210.863942 390.54024 210.863942, 383.244598 201.508868 383.244598 201.508868, 367.194338 189.639702 367.194338 189.639702, 351.14357 179.446428 351.14357 179.446428, 343.847928 175.117252"/>
      </g>
      <g>
        <polyline style="fill: transparent;stroke: black;stroke-width: 1;" points="343.847928 324.248526, 348.451424 321.464178 348.451424 321.464178, 358.577896 314.543694 358.577896 314.543694, 368.70513 305.633374 368.70513 305.633374, 373.30888 296.879772 373.30888 296.879772, 373.30888 282.217876 373.30888 282.217876, 373.30888 267.556742 373.30888 267.556742, 373.30888 252.894846 373.30888 252.894846, 373.30888 238.23295 373.30888 238.23295, 368.70513 229.479094 368.70513 229.479094, 358.577896 220.568774 358.577896 220.568774, 348.451424 213.64829 348.451424 213.64829, 343.847928 210.863942"/>
      </g>
      <g>
        <polyline style="fill: transparent;stroke: black;stroke-width: 1;" points="49.23409 359.995216, 41.938194 355.66604 41.938194 355.66604, 25.887426 345.472766 25.887426 345.472766, 9.836404 333.603854 9.836404 333.603854, 2.54 324.248526 2.54 324.248526, 2.54 295.902126 2.54 295.902126, 2.54 267.556742 2.54 267.556742, 2.54 239.210342 2.54 239.210342, 2.54 210.863942 2.54 210.863942, 9.836404 201.508868 9.836404 201.508868, 25.887426 189.639702 25.887426 189.639702, 41.938194 179.446428 41.938194 179.446428, 49.23409 175.117252"/>
      </g>
      <g>
        <polyline style="fill: transparent;stroke: black;stroke-width: 1;" points="49.23409 324.248526, 44.63034 321.464178 44.63034 321.464178, 34.503106 314.543694 34.503106 314.543694, 24.375872 305.633374 24.375872 305.633374, 19.772122 296.879772 19.772122 296.879772, 19.772122 282.217876 19.772122 282.217876, 19.772122 267.556742 19.772122 267.556742, 19.772122 252.894846 19.772122 252.894846, 19.772122 238.23295 19.772122 238.23295, 24.375872 229.479094 24.375872 229.479094, 34.503106 220.568774 34.503106 220.568774, 44.63034 213.64829 44.63034 213.64829, 49.23409 210.863942"/>
      </g>
      <g>
        <polyline style="fill: gray;stroke: black;stroke-width: 1;" points="49.23409 384.57124, 52.50815 390.688576 52.50815 390.688576, 60.003944 397.06804 60.003944 397.06804, 68.228972 402.086572 68.228972 402.086572, 73.692258 404.119588 73.692258 404.119588, 135.116316 404.119588 135.116316 404.119588, 196.540628 404.119588 196.540628 404.119588, 257.963924 404.119588 257.963924 404.119588, 319.387982 404.119588 319.387982 404.119588, 324.85203 402.086572 324.85203 402.086572, 333.077058 397.06804 333.077058 397.06804, 340.572852 390.688576 340.572852 390.688576, 343.847928 384.57124 343.847928 384.57124, 343.847928 326.482456 343.847928 326.482456, 343.847928 268.394688 343.847928 268.394688, 343.847928 210.305904 343.847928 210.305904, 343.847928 152.21712 343.847928 152.21712, 340.572852 146.099784 340.572852 146.099784, 333.077058 139.72032 333.077058 139.72032, 324.85203 134.702042 324.85203 134.702042, 319.387982 132.668772 319.387982 132.668772, 257.963924 132.668772 257.963924 132.668772, 196.540628 132.668772 196.540628 132.668772, 135.116316 132.668772 135.116316 132.668772, 73.692258 132.668772 73.692258 132.668772, 68.228972 134.702042 68.228972 134.702042, 60.003944 139.72032 60.003944 139.72032, 52.50815 146.099784 52.50815 146.099784, 49.23409 152.21712 49.23409 152.21712, 49.23409 210.305904 49.23409 210.305904, 49.23409 268.394688 49.23409 268.394688, 49.23409 326.482456 49.23409 326.482456, 49.23409 384.57124 49.23409 384.57124, 49.23409 384.57124"/>
      </g>
      <g>
        <polyline style="fill: gray;stroke: black;stroke-width: 1;" points="327.230994 323.858382, 331.74559 323.858382 331.74559 323.858382, 342.158828 323.858382 342.158828 323.858382, 353.776788 323.858382 353.776788 323.858382, 361.904026 323.858382 361.904026 323.858382, 365.995458 323.374004 365.995458 323.374004, 368.734594 322.194936 368.734594 322.194936, 370.268754 320.731388 370.268754 320.731388, 370.747036 319.394332 370.747036 319.394332, 370.747036 293.839392 370.747036 293.839392, 370.747036 268.283436 370.747036 268.283436, 370.747036 242.727734 370.747036 242.727734, 370.747036 217.172794 370.747036 217.172794, 370.268754 215.835484 370.268754 215.835484, 368.734594 214.37219 368.734594 214.37219, 365.995458 213.193122 365.995458 213.193122, 361.904026 212.70849 361.904026 212.70849, 353.776788 212.70849 353.776788 212.70849, 342.158828 212.70849 342.158828 212.70849, 331.74559 212.70849 331.74559 212.70849, 327.230994 212.70849 327.230994 212.70849, 327.230994 240.49609 327.230994 240.49609, 327.230994 268.283436 327.230994 268.283436, 327.230994 296.071036 327.230994 296.071036, 327.230994 323.858382 327.230994 323.858382, 327.230994 323.858382"/>
      </g>
      <g>
        <polyline style="fill: gray;stroke: black;stroke-width: 1;" points="63.921386 323.858382, 63.921386 324.870826 63.921386 324.870826, 63.921386 325.883016 63.921386 325.883016, 63.921386 326.89546 63.921386 326.89546, 63.921386 327.907904 63.921386 327.907904, 66.570098 328.322432 66.570098 328.322432, 72.648826 329.234038 72.648826 329.234038, 79.356204 330.146406 79.356204 330.146406, 83.890104 330.561188 83.890104 330.561188, 139.733274 330.561188 139.733274 330.561188, 195.57619 330.561188 195.57619 330.561188, 251.41936 330.561188 251.41936 330.561188, 307.263292 330.561188 307.263292 330.561188, 311.79643 330.146406 311.79643 330.146406, 318.503554 329.234038 318.503554 329.234038, 324.582282 328.322432 324.582282 328.322432, 327.230994 327.907904 327.230994 327.907904, 327.230994 326.89546 327.230994 326.89546, 327.230994 325.883016 327.230994 325.883016, 327.230994 324.870826 327.230994 324.870826, 327.230994 323.858382 327.230994 323.858382, 327.230994 296.071036 327.230994 296.071036, 327.230994 268.283436 327.230994 268.283436, 327.230994 240.49609 327.230994 240.49609, 327.230994 212.70849 327.230994 212.70849, 327.230994 211.6963 327.230994 211.6963, 327.230994 210.683856 327.230994 210.683856, 327.230994 209.671666 327.230994 209.671666, 327.230994 208.659222 327.230994 208.659222, 324.582282 208.24444 324.582282 208.24444, 318.503554 207.333088 318.503554 207.333088, 311.79643 206.42072 311.79643 206.42072, 307.263292 206.005938 307.263292 206.005938, 251.41936 206.005938 251.41936 206.005938, 195.57619 206.005938 195.57619 206.005938, 139.733274 206.005938 139.733274 206.005938, 83.890104 206.005938 83.890104 206.005938, 79.356204 206.42072 79.356204 206.42072, 72.648826 207.333088 72.648826 207.333088, 66.570098 208.24444 66.570098 208.24444, 63.921386 208.659222 63.921386 208.659222, 63.921386 209.671666 63.921386 209.671666, 63.921386 210.683856 63.921386 210.683856, 63.921386 211.6963 63.921386 211.6963, 63.921386 212.70849 63.921386 212.70849, 63.921386 240.49609 63.921386 240.49609, 63.921386 268.283436 63.921386 268.283436, 63.921386 296.071036 63.921386 296.071036, 63.921386 323.858382 63.921386 323.858382, 63.921386 323.858382"/>
      </g>
      <g>
        <polyline style="fill: gray;stroke: black;stroke-width: 1;" points="63.921386 323.858382, 59.407044 323.858382 59.407044 323.858382, 48.993806 323.858382 48.993806 323.858382, 37.375846 323.858382 37.375846 323.858382, 29.248354 323.858382 29.248354 323.858382, 25.157176 323.374004 25.157176 323.374004, 22.418548 322.194936 22.418548 322.194936, 20.884642 320.731388 20.884642 320.731388, 20.405598 319.394332 20.405598 319.394332, 20.405598 293.839392 20.405598 293.839392, 20.405598 268.283436 20.405598 268.283436, 20.405598 242.727734 20.405598 242.727734, 20.405598 217.172794 20.405598 217.172794, 20.884642 215.835484 20.884642 215.835484, 22.418548 214.37219 22.418548 214.37219, 25.157176 213.193122 25.157176 213.193122, 29.248354 212.70849 29.248354 212.70849, 37.375846 212.70849 37.375846 212.70849, 48.993806 212.70849 48.993806 212.70849, 59.407044 212.70849 59.407044 212.70849, 63.921386 212.70849 63.921386 212.70849, 63.921386 240.49609 63.921386 240.49609, 63.921386 268.283436 63.921386 268.283436, 63.921386 296.071036 63.921386 296.071036, 63.921386 323.858382 63.921386 323.858382, 63.921386 323.858382"/>
      </g>
      <g>
        <polyline style="fill: transparent;stroke: black;stroke-width: 1;" points="316.454536 200.356216, 318.607948 201.729848 318.607948 201.729848, 320.76136 203.103226 320.76136 203.103226, 322.914518 204.476858 322.914518 204.476858, 325.069454 205.85049 325.069454 205.85049, 325.069454 228.37775 325.069454 228.37775, 325.069454 250.90501 325.069454 250.90501, 325.069454 273.433032 325.069454 273.433032, 325.069454 295.961308"/>
      </g>
      <g>
        <polyline style="fill: transparent;stroke: black;stroke-width: 1;" points="75.841352 199.990202, 73.368662 201.455274 73.368662 201.455274, 70.894448 202.920346 70.894448 202.920346, 68.421504 204.385418 68.421504 204.385418, 65.948814 205.85049 65.948814 205.85049, 65.948814 228.37775 65.948814 228.37775, 65.948814 250.90501 65.948814 250.90501, 65.948814 273.433032 65.948814 273.433032, 65.948814 295.961308"/>
      </g>
      <g>
        <polyline style="fill: gray;stroke: black;stroke-width: 1;" points="63.714884 294.099996, 64.272922 294.099996 64.272922 294.099996, 64.831214 294.099996 64.831214 294.099996, 65.390776 294.099996 65.390776 294.099996, 65.948814 294.099996 65.948814 294.099996, 65.948814 281.159712 65.948814 281.159712, 65.948814 268.219428 65.948814 268.219428, 65.948814 255.279144 65.948814 255.279144, 65.948814 242.33886 65.948814 242.33886, 65.390776 242.33886 65.390776 242.33886, 64.831214 242.33886 64.831214 242.33886, 64.272922 242.33886 64.272922 242.33886, 63.714884 242.33886 63.714884 242.33886, 63.714884 255.279144 63.714884 255.279144, 63.714884 268.219428 63.714884 268.219428, 63.714884 281.159712 63.714884 281.159712, 63.714884 294.099996 63.714884 294.099996, 63.714884 294.099996"/>
      </g>
      <g>
        <polyline style="fill: gray;stroke: black;stroke-width: 1;" points="213.70417 479.16465, 232.918508 478.117662 232.918508 478.117662, 253.179326 475.813882 253.179326 475.813882, 270.234156 473.510102 270.234156 473.510102, 279.835102 472.462098 279.835102 472.462098, 289.077908 462.338674 289.077908 462.338674, 303.613566 440.067192 303.613566 440.067192, 317.035942 417.794948 317.035942 417.794948, 322.933314 407.671524 322.933314 407.671524, 323.398388 394.894816 323.398388 394.894816, 324.419976 365.781082 324.419976 365.781082, 325.441564 334.15351 325.441564 334.15351, 325.906638 313.836812 325.906638 313.836812, 324.711314 292.493954 324.711314 292.493954, 321.91325 257.608578 321.91325 257.608578, 318.69634 222.722948 318.69634 222.722948, 316.246764 201.381614 316.246764 201.381614, 311.322974 172.11675 311.322974 172.11675, 302.49876 120.300496 302.49876 120.300496, 293.67607 69.74078 293.67607 69.74078, 288.75228 44.246292 288.75228 44.246292, 286.768032 40.371268 286.768032 40.371268, 284.57271 38.381686 284.57271 38.381686, 282.797758 37.648388 282.797758 37.648388, 282.065984 37.54374 282.065984 37.54374, 280.208736 28.792932 280.208736 28.792932, 278.349964 20.042378 278.349964 20.042378, 276.492716 11.29284 276.492716 11.29284, 274.635468 2.54 274.635468 2.54, 259.402326 2.54 259.402326 2.54, 244.169184 2.54 244.169184 2.54, 228.937312 2.54 228.937312 2.54, 213.70417 2.54 213.70417 2.54, 204.816456 2.54 204.816456 2.54, 195.926964 2.54 195.926964 2.54, 187.03925 2.54 187.03925 2.54, 178.151282 2.54 178.151282 2.54, 162.91814 2.54 162.91814 2.54, 147.686522 2.54 147.686522 2.54, 132.45338 2.54 132.45338 2.54, 117.220238 2.54 117.220238 2.54, 115.36299 11.29284 115.36299 11.29284, 113.505742 20.042378 113.505742 20.042378, 111.648494 28.792932 111.648494 28.792932, 109.789722 37.54374 109.789722 37.54374, 109.059472 37.648388 109.059472 37.648388, 107.282742 38.381686 107.282742 38.381686, 105.087674 40.371268 105.087674 40.371268, 103.103172 44.246292 103.103172 44.246292, 98.179382 69.74078 98.179382 69.74078, 89.356692 120.300496 89.356692 120.300496, 80.532478 172.11675 80.532478 172.11675, 75.608688 201.381614 75.608688 201.381614, 73.159366 222.722948 73.159366 222.722948, 69.942456 257.608578 69.942456 257.608578, 67.144138 292.493954 67.144138 292.493954, 65.948814 313.836812 65.948814 313.836812, 66.413888 334.15351 66.413888 334.15351, 67.43573 365.781082 67.43573 365.781082, 68.457318 394.894816 68.457318 394.894816, 68.922392 407.671524 68.922392 407.671524, 74.819764 417.794948 74.819764 417.794948, 88.24214 440.067192 88.24214 440.067192, 102.777544 462.338674 102.777544 462.338674, 112.020604 472.462098 112.020604 472.462098, 121.62155 473.510102 121.62155 473.510102, 138.676126 475.813882 138.676126 475.813882, 158.936944 478.117662 158.936944 478.117662, 178.151282 479.16465 178.151282 479.16465, 187.03925 479.16465 187.03925 479.16465, 195.926964 479.16465 195.926964 479.16465, 204.816456 479.16465 204.816456 479.16465, 213.70417 479.16465 213.70417 479.16465, 213.70417 479.16465"/>
      </g>
      <g>
        <polyline style="fill: gray;stroke: black;stroke-width: 1;" points="324.790562 294.099996, 325.3486 294.099996 325.3486 294.099996, 325.906638 294.099996 325.906638 294.099996, 326.46493 294.099996 326.46493 294.099996, 327.022968 294.099996 327.022968 294.099996, 327.022968 281.159712 327.022968 281.159712, 327.022968 268.219428 327.022968 268.219428, 327.022968 255.279144 327.022968 255.279144, 327.022968 242.33886 327.022968 242.33886, 326.46493 242.33886 326.46493 242.33886, 325.906638 242.33886 325.906638 242.33886, 325.3486 242.33886 325.3486 242.33886, 324.790562 242.33886 324.790562 242.33886, 324.790562 255.279144 324.790562 255.279144, 324.790562 268.219428 324.790562 268.219428, 324.790562 281.159712 324.790562 281.159712, 324.790562 294.099996 324.790562 294.099996, 324.790562 294.099996"/>
      </g>
      <g>
        <polyline style="fill: transparent;stroke: black;stroke-width: 1;" points="322.319396 261.704328, 317.65748 261.704328 317.65748 261.704328, 312.995818 261.704328 312.995818 261.704328, 308.334156 261.704328 308.334156 261.704328, 303.672494 261.704328 303.672494 261.704328, 297.156632 265.801094 297.156632 265.801094, 290.640516 269.896844 290.640516 269.896844, 284.12313 273.992848 284.12313 273.992848, 277.607268 278.08936 277.607268 278.08936, 265.784838 278.08936 265.784838 278.08936, 253.962154 278.08936 253.962154 278.08936, 242.139724 278.08936 242.139724 278.08936, 230.317294 278.08936 230.317294 278.08936, 213.894924 278.08936 213.894924 278.08936, 197.47103 278.08936 197.47103 278.08936, 181.048914 278.08936 181.048914 278.08936, 164.62502 278.08936 164.62502 278.08936, 152.80259 278.08936 152.80259 278.08936, 140.979906 278.08936 140.979906 278.08936, 129.157476 278.08936 129.157476 278.08936, 117.334792 278.08936 117.334792 278.08936, 110.81893 273.992848 110.81893 273.992848, 104.301544 269.896844 104.301544 269.896844, 97.785682 265.801094 97.785682 265.801094, 91.26982 261.704328 91.26982 261.704328, 86.112096 261.704328 86.112096 261.704328, 80.955642 261.704328 80.955642 261.704328, 75.799442 261.704328 75.799442 261.704328, 70.641718 261.704328"/>
      </g>
      <g>
        <polyline style="fill: transparent;stroke: black;stroke-width: 1;" points="109.888782 37.54374, 153.836624 37.54374 153.836624 37.54374, 197.784212 37.54374 197.784212 37.54374, 241.732054 37.54374 241.732054 37.54374, 285.681166 37.54374"/>
      </g>
      <g>
        <polyline style="fill: transparent;stroke: black;stroke-width: 1;" points="324.300596 357.596948, 318.930274 358.758236 318.930274 358.758236, 313.558682 359.91927 313.558682 359.91927, 308.186836 361.080558 308.186836 361.080558, 302.81499 362.241592 302.81499 362.241592, 296.1132 357.587804 296.1132 357.587804, 289.411156 352.933762 289.411156 352.933762, 282.707842 348.278958 282.707842 348.278958, 276.005798 343.624916 276.005798 343.624916, 261.11073 343.624916 261.11073 343.624916, 246.216932 343.624916 246.216932 343.624916, 231.321864 343.624916 231.321864 343.624916, 216.428066 343.624916 216.428066 343.624916, 207.293718 343.624916 207.293718 343.624916, 198.15937 343.624916 198.15937 343.624916, 189.025022 343.624916 189.025022 343.624916, 179.892452 343.624916 179.892452 343.624916, 164.99713 343.624916 164.99713 343.624916, 150.101808 343.624916 150.101808 343.624916, 135.208264 343.624916 135.208264 343.624916, 120.314466 343.624916 120.314466 343.624916, 113.611152 348.278958 113.611152 348.278958, 106.909108 352.933762 106.909108 352.933762, 100.207318 357.587804 100.207318 357.587804, 93.50375 362.241592 93.50375 362.241592, 86.615778 360.753406 86.615778 360.753406, 79.726282 359.264204 79.726282 359.264204, 72.83831 357.775256 72.83831 357.775256, 65.948814 356.285546"/>
      </g>
      <g>
        <polyline style="fill: transparent;stroke: black;stroke-width: 1;" points="320.924174 249.743976, 316.425072 249.743976 316.425072 249.743976, 311.926224 249.743976 311.926224 249.743976, 307.427122 249.743976 307.427122 249.743976, 302.928274 249.743976 302.928274 249.743976, 298.460414 252.734318 298.460414 252.734318, 293.990776 255.724152 293.990776 255.724152, 289.522916 258.713732 289.522916 258.713732, 285.055056 261.704328 285.055056 261.704328, 281.51709 263.194292 281.51709 263.194292, 277.980902 264.684002 277.980902 264.684002, 274.44319 266.173204 274.44319 266.173204, 270.905478 267.662914 270.905478 267.662914, 253.776226 267.662914 253.776226 267.662914, 236.648498 267.662914 236.648498 267.662914, 219.5195 267.662914 219.5195 267.662914, 202.390248 267.662914 202.390248 267.662914, 199.931528 267.662914 199.931528 267.662914, 197.47103 267.662914 197.47103 267.662914, 195.01231 267.662914 195.01231 267.662914, 192.552066 267.662914 192.552066 267.662914, 175.424338 267.662914 175.424338 267.662914, 158.295086 267.662914 158.295086 267.662914, 141.166088 267.662914 141.166088 267.662914, 124.036836 267.662914 124.036836 267.662914, 120.500648 266.173204 120.500648 266.173204, 116.962936 264.684002 116.962936 264.684002, 113.42497 263.194292 113.42497 263.194292, 109.888782 261.704328 109.888782 261.704328, 105.419398 258.713732 105.419398 258.713732, 100.951538 255.724152 100.951538 255.724152, 96.483424 252.734318 96.483424 252.734318, 92.015564 249.743976 92.015564 249.743976, 86.671658 249.743976 86.671658 249.743976, 81.327752 249.743976 81.327752 249.743976, 75.985624 249.743976 75.985624 249.743976, 70.641718 249.743976"/>
      </g>
      <g>
        <polyline style="fill: transparent;stroke: black;stroke-width: 1;" points="101.534214 51.949604, 148.91131 51.949604 148.91131 51.949604, 196.289676 51.949604 196.289676 51.949604, 243.666772 51.949604 243.666772 51.949604, 291.043614 51.949604"/>
      </g>
      <g>
        <polyline style="fill: transparent;stroke: black;stroke-width: 1;" points="324.300596 372.669054, 318.930274 372.669054 318.930274 372.669054, 313.558682 372.669054 313.558682 372.669054, 308.186836 372.669054 308.186836 372.669054, 302.81499 372.669054 302.81499 372.669054, 294.437308 367.735104 294.437308 367.735104, 286.059626 362.801408 286.059626 362.801408, 277.68169 357.86822 277.68169 357.86822, 269.302484 352.934524 269.302484 352.934524, 256.084578 352.934524 256.084578 352.934524, 242.865148 352.934524 242.865148 352.934524, 229.645972 352.934524 229.645972 352.934524, 216.428066 352.934524 216.428066 352.934524, 207.293718 352.934524 207.293718 352.934524, 198.15937 352.934524 198.15937 352.934524, 189.025022 352.934524 189.025022 352.934524, 179.892452 352.934524 179.892452 352.934524, 166.673022 352.934524 166.673022 352.934524, 153.453592 352.934524 153.453592 352.934524, 140.23594 352.934524 140.23594 352.934524, 127.01651 352.934524 127.01651 352.934524, 118.638828 357.86822 118.638828 357.86822, 110.259368 362.801408 110.259368 362.801408, 101.881686 367.735104 101.881686 367.735104, 93.50375 372.669054 93.50375 372.669054, 86.615778 372.669054 86.615778 372.669054, 79.726282 372.669054 79.726282 372.669054, 72.83831 372.669054 72.83831 372.669054, 65.948814 372.669054"/>
      </g>
      <g>
        <polyline style="fill: gray;stroke: black;stroke-width: 1;" points="237.229904 352.934524, 239.043718 352.934524 239.043718 352.934524, 240.85931 352.934524 240.85931 352.934524, 242.674648 352.934524 242.674648 352.934524, 244.489986 352.934524 244.489986 352.934524, 244.489986 380.488698 244.489986 380.488698, 244.489986 408.042618 244.489986 408.042618, 244.489986 435.59603 244.489986 435.59603, 244.489986 463.150966 244.489986 463.150966, 242.674648 463.150966 242.674648 463.150966, 240.85931 463.150966 240.85931 463.150966, 239.043718 463.150966 239.043718 463.150966, 237.229904 463.150966 237.229904 463.150966, 237.229904 435.59603 237.229904 435.59603, 237.229904 408.042618 237.229904 408.042618, 237.229904 380.488698 237.229904 380.488698, 237.229904 352.934524 237.229904 352.934524, 237.229904 352.934524"/>
      </g>
      <g>
        <polyline style="fill: gray;stroke: black;stroke-width: 1;" points="201.76236 352.934524, 203.577698 352.934524 203.577698 352.934524, 205.393036 352.934524 205.393036 352.934524, 207.20685 352.934524 207.20685 352.934524, 209.022442 352.934524 209.022442 352.934524, 209.022442 380.488698 209.022442 380.488698, 209.022442 408.042618 209.022442 408.042618, 209.022442 435.59603 209.022442 435.59603, 209.022442 463.150966 209.022442 463.150966, 207.20685 463.150966 207.20685 463.150966, 205.393036 463.150966 205.393036 463.150966, 203.577698 463.150966 203.577698 463.150966, 201.76236 463.150966 201.76236 463.150966, 201.76236 435.59603 201.76236 435.59603, 201.76236 408.042618 201.76236 408.042618, 201.76236 380.488698 201.76236 380.488698, 201.76236 352.934524 201.76236 352.934524, 201.76236 352.934524"/>
      </g>
      <g>
        <polyline style="fill: gray;stroke: black;stroke-width: 1;" points="189.946026 352.934524, 188.130688 352.934524 188.130688 352.934524, 186.315096 352.934524 186.315096 352.934524, 184.499758 352.934524 184.499758 352.934524, 182.68442 352.934524 182.68442 352.934524, 182.68442 380.488698 182.68442 380.488698, 182.68442 408.042618 182.68442 408.042618, 182.68442 435.59603 182.68442 435.59603, 182.68442 463.150966 182.68442 463.150966, 184.499758 463.150966 184.499758 463.150966, 186.315096 463.150966 186.315096 463.150966, 188.130688 463.150966 188.130688 463.150966, 189.946026 463.150966 189.946026 463.150966, 189.946026 435.59603 189.946026 435.59603, 189.946026 408.042618 189.946026 408.042618, 189.946026 380.488698 189.946026 380.488698, 189.946026 352.934524 189.946026 352.934524, 189.946026 352.934524"/>
      </g>
      <g>
        <polyline style="fill: gray;stroke: black;stroke-width: 1;" points="138.187938 60.629038, 136.512046 60.629038 136.512046 60.629038, 134.836154 60.629038 134.836154 60.629038, 133.160262 60.629038 133.160262 60.629038, 131.48437 60.629038 131.48437 60.629038, 126.086362 110.898178 126.086362 110.898178, 120.686576 161.167064 120.686576 161.167064, 115.287044 211.435442 115.287044 211.435442, 109.888782 261.704328 109.888782 261.704328, 111.564674 261.704328 111.564674 261.704328, 113.239042 261.704328 113.239042 261.704328, 114.914934 261.704328 114.914934 261.704328, 116.590826 261.704328 116.590826 261.704328, 121.990358 211.435442 121.990358 211.435442, 127.38862 161.167064 127.38862 161.167064, 132.788152 110.898178 132.788152 110.898178, 138.187938 60.629038 138.187938 60.629038, 138.187938 60.629038"/>
      </g>
      <g>
        <polyline style="fill: gray;stroke: black;stroke-width: 1;" points="144.889728 60.629038, 146.56562 60.629038 146.56562 60.629038, 148.241512 60.629038 148.241512 60.629038, 149.917404 60.629038 149.917404 60.629038, 151.591772 60.629038 151.591772 60.629038, 148.241512 112.387888 148.241512 112.387888, 144.889728 164.145976 144.889728 164.145976, 141.538198 215.904826 141.538198 215.904826, 138.187938 267.662914 138.187938 267.662914, 135.394192 267.662914 135.394192 267.662914, 132.602224 267.662914 132.602224 267.662914, 129.808478 267.662914 129.808478 267.662914, 127.01651 267.662914 127.01651 267.662914, 131.48437 215.904826 131.48437 215.904826, 135.954008 164.145976 135.954008 164.145976, 140.421868 112.387888 140.421868 112.387888, 144.889728 60.629038 144.889728 60.629038, 144.889728 60.629038"/>
      </g>
      <g>
        <polyline style="fill: gray;stroke: black;stroke-width: 1;" points="219.07754 352.934524, 220.892878 352.934524 220.892878 352.934524, 222.706692 352.934524 222.706692 352.934524, 224.522284 352.934524 224.522284 352.934524, 226.337622 352.934524 226.337622 352.934524, 226.337622 380.488698 226.337622 380.488698, 226.337622 408.042618 226.337622 408.042618, 226.337622 435.59603 226.337622 435.59603, 226.337622 463.150966 226.337622 463.150966, 224.522284 463.150966 224.522284 463.150966, 222.706692 463.150966 222.706692 463.150966, 220.892878 463.150966 220.892878 463.150966, 219.07754 463.150966 219.07754 463.150966, 219.07754 435.59603 219.07754 435.59603, 219.07754 408.042618 219.07754 408.042618, 219.07754 380.488698 219.07754 380.488698, 219.07754 352.934524 219.07754 352.934524, 219.07754 352.934524"/>
      </g>
      <g>
        <polyline style="fill: gray;stroke: black;stroke-width: 1;" points="184.360312 267.662914, 181.754272 267.662914 181.754272 267.662914, 179.148232 267.662914 179.148232 267.662914, 176.540668 267.662914 176.540668 267.662914, 173.934628 267.662914 173.934628 267.662914, 176.540668 215.904826 176.540668 215.904826, 179.148232 164.145976 179.148232 164.145976, 181.754272 112.387888 181.754272 112.387888, 184.360312 60.629038 184.360312 60.629038, 186.408314 60.629038 186.408314 60.629038, 188.45784 60.629038 188.45784 60.629038, 190.504064 60.629038 190.504064 60.629038, 192.552066 60.629038 192.552066 60.629038, 190.504064 112.387888 190.504064 112.387888, 188.45784 164.145976 188.45784 164.145976, 186.408314 215.904826 186.408314 215.904826, 184.360312 267.662914 184.360312 267.662914, 184.360312 267.662914"/>
      </g>
      <g>
        <polyline style="fill: gray;stroke: black;stroke-width: 1;" points="205.975966 267.662914, 208.582006 267.662914 208.582006 267.662914, 211.18957 267.662914 211.18957 267.662914, 213.79561 267.662914 213.79561 267.662914, 216.403428 267.662914 216.403428 267.662914, 213.79561 215.904826 213.79561 215.904826, 211.18957 164.145976 211.18957 164.145976, 208.582006 112.387888 208.582006 112.387888, 205.975966 60.629038 205.975966 60.629038, 203.928218 60.629038 203.928218 60.629038, 201.880216 60.629038 201.880216 60.629038, 199.832214 60.629038 199.832214 60.629038, 197.784212 60.629038 197.784212 60.629038, 199.832214 112.387888 199.832214 112.387888, 201.880216 164.145976 201.880216 164.145976, 203.928218 215.904826 203.928218 215.904826, 205.975966 267.662914 205.975966 267.662914, 205.975966 267.662914"/>
      </g>
      <g>
        <polyline style="fill: gray;stroke: black;stroke-width: 1;" points="252.174756 60.629038, 253.850648 60.629038 253.850648 60.629038, 255.52654 60.629038 255.52654 60.629038, 257.202432 60.629038 257.202432 60.629038, 258.878324 60.629038 258.878324 60.629038, 264.276332 110.898178 264.276332 110.898178, 269.676118 161.167064 269.676118 161.167064, 275.07565 211.435442 275.07565 211.435442, 280.473912 261.704328 280.473912 261.704328, 278.79802 261.704328 278.79802 261.704328, 277.122128 261.704328 277.122128 261.704328, 275.44776 261.704328 275.44776 261.704328, 273.771868 261.704328 273.771868 261.704328, 268.372336 211.435442 268.372336 211.435442, 262.97255 161.167064 262.97255 161.167064, 257.574542 110.898178 257.574542 110.898178, 252.174756 60.629038 252.174756 60.629038, 252.174756 60.629038"/>
      </g>
      <g>
        <polyline style="fill: gray;stroke: black;stroke-width: 1;" points="245.472966 60.629038, 243.797074 60.629038 243.797074 60.629038, 242.121182 60.629038 242.121182 60.629038, 240.44529 60.629038 240.44529 60.629038, 238.769398 60.629038 238.769398 60.629038, 242.121182 112.387888 242.121182 112.387888, 245.472966 164.145976 245.472966 164.145976, 248.822972 215.904826 248.822972 215.904826, 252.174756 267.662914 252.174756 267.662914, 254.966724 267.662914 254.966724 267.662914, 257.76047 267.662914 257.76047 267.662914, 260.552438 267.662914 260.552438 267.662914, 263.346184 267.662914 263.346184 267.662914, 258.878324 215.904826 258.878324 215.904826, 254.408686 164.145976 254.408686 164.145976, 249.940826 112.387888 249.940826 112.387888, 245.472966 60.629038 245.472966 60.629038, 245.472966 60.629038"/>
      </g>
      <g>
        <polyline style="fill: gray;stroke: black;stroke-width: 1;" points="224.61982 267.662914, 227.22586 267.662914 227.22586 267.662914, 229.833424 267.662914 229.833424 267.662914, 232.439464 267.662914 232.439464 267.662914, 235.047028 267.662914 235.047028 267.662914, 232.439464 215.904826 232.439464 215.904826, 229.833424 164.145976 229.833424 164.145976, 227.22586 112.387888 227.22586 112.387888, 224.61982 60.629038 224.61982 60.629038, 222.571818 60.629038 222.571818 60.629038, 220.52407 60.629038 220.52407 60.629038, 218.476068 60.629038 218.476068 60.629038, 216.428066 60.629038 216.428066 60.629038, 218.476068 112.387888 218.476068 112.387888, 220.52407 164.145976 220.52407 164.145976, 222.571818 215.904826 222.571818 215.904826, 224.61982 267.662914 224.61982 267.662914, 224.61982 267.662914"/>
      </g>
      <g>
        <polyline style="fill: gray;stroke: black;stroke-width: 1;" points="111.209582 362.241592, 112.941354 361.22229 112.941354 361.22229, 114.673126 360.202988 114.673126 360.202988, 116.40312 359.183686 116.40312 359.183686, 118.134892 358.164384 118.134892 358.164384, 118.134892 378.894848 118.134892 378.894848, 118.134892 399.626328 118.134892 399.626328, 118.134892 420.357554 118.134892 420.357554, 118.134892 441.088018 118.134892 441.088018, 116.40312 438.225438 116.40312 438.225438, 114.673126 435.36362 114.673126 435.36362, 112.941354 432.50104 112.941354 432.50104, 111.209582 429.638206 111.209582 429.638206, 111.209582 412.788862 111.209582 412.788862, 111.209582 395.939518 111.209582 395.939518, 111.209582 379.090936 111.209582 379.090936, 111.209582 362.241592 111.209582 362.241592, 111.209582 362.241592"/>
      </g>
      <g>
        <polyline style="fill: gray;stroke: black;stroke-width: 1;" points="136.884156 352.934524, 135.068818 352.934524 135.068818 352.934524, 133.253226 352.934524 133.253226 352.934524, 131.437888 352.934524 131.437888 352.934524, 129.62255 352.934524 129.62255 352.934524, 129.62255 380.488698 129.62255 380.488698, 129.62255 408.042618 129.62255 408.042618, 129.62255 435.59603 129.62255 435.59603, 129.62255 463.150966 129.62255 463.150966, 131.437888 463.150966 131.437888 463.150966, 133.253226 463.150966 133.253226 463.150966, 135.068818 463.150966 135.068818 463.150966, 136.884156 463.150966 136.884156 463.150966, 136.884156 435.59603 136.884156 435.59603, 136.884156 408.042618 136.884156 408.042618, 136.884156 380.488698 136.884156 380.488698, 136.884156 352.934524 136.884156 352.934524, 136.884156 352.934524"/>
      </g>
      <g>
        <polyline style="fill: gray;stroke: black;stroke-width: 1;" points="154.478482 352.934524, 152.66289 352.934524 152.66289 352.934524, 150.847552 352.934524 150.847552 352.934524, 149.032214 352.934524 149.032214 352.934524, 147.216876 352.934524 147.216876 352.934524, 147.216876 380.488698 147.216876 380.488698, 147.216876 408.042618 147.216876 408.042618, 147.216876 435.59603 147.216876 435.59603, 147.216876 463.150966 147.216876 463.150966, 149.032214 463.150966 149.032214 463.150966, 150.847552 463.150966 150.847552 463.150966, 152.66289 463.150966 152.66289 463.150966, 154.478482 463.150966 154.478482 463.150966, 154.478482 435.59603 154.478482 435.59603, 154.478482 408.042618 154.478482 408.042618, 154.478482 380.488698 154.478482 380.488698, 154.478482 352.934524 154.478482 352.934524, 154.478482 352.934524"/>
      </g>
      <g>
        <polyline style="fill: gray;stroke: black;stroke-width: 1;" points="172.630846 352.934524, 170.815254 352.934524 170.815254 352.934524, 168.999916 352.934524 168.999916 352.934524, 167.184578 352.934524 167.184578 352.934524, 165.36924 352.934524 165.36924 352.934524, 165.36924 380.488698 165.36924 380.488698, 165.36924 408.042618 165.36924 408.042618, 165.36924 435.59603 165.36924 435.59603, 165.36924 463.150966 165.36924 463.150966, 167.184578 463.150966 167.184578 463.150966, 168.999916 463.150966 168.999916 463.150966, 170.815254 463.150966 170.815254 463.150966, 172.630846 463.150966 172.630846 463.150966, 172.630846 435.59603 172.630846 435.59603, 172.630846 408.042618 172.630846 408.042618, 172.630846 380.488698 172.630846 380.488698, 172.630846 352.934524 172.630846 352.934524, 172.630846 352.934524"/>
      </g>
      <g>
        <polyline style="fill: gray;stroke: black;stroke-width: 1;" points="165.742874 267.662914, 163.13531 267.662914 163.13531 267.662914, 160.52927 267.662914 160.52927 267.662914, 157.921706 267.662914 157.921706 267.662914, 155.315666 267.662914 155.315666 267.662914, 157.921706 215.904826 157.921706 215.904826, 160.52927 164.145976 160.52927 164.145976, 163.13531 112.387888 163.13531 112.387888, 165.742874 60.629038 165.742874 60.629038, 167.790876 60.629038 167.790876 60.629038, 169.838624 60.629038 169.838624 60.629038, 171.886626 60.629038 171.886626 60.629038, 173.934628 60.629038 173.934628 60.629038, 171.886626 112.387888 171.886626 112.387888, 169.838624 164.145976 169.838624 164.145976, 167.790876 215.904826 167.790876 215.904826, 165.742874 267.662914 165.742874 267.662914, 165.742874 267.662914"/>
      </g>
      <g>
        <polyline style="fill: gray;stroke: black;stroke-width: 1;" points="280.520394 360.149648, 278.7777 359.10393 278.7777 359.10393, 277.03526 358.05745 277.03526 358.05745, 275.29282 357.01097 275.29282 357.01097, 273.548602 355.965252 273.548602 355.965252, 273.548602 377.246134 273.548602 377.246134, 273.548602 398.526254 273.548602 398.526254, 273.548602 419.807898 273.548602 419.807898, 273.548602 441.088018 273.548602 441.088018, 275.29282 438.149492 275.29282 438.149492, 277.03526 435.210966 277.03526 435.210966, 278.7777 432.271424 278.7777 432.271424, 280.520394 429.332898 280.520394 429.332898, 280.520394 412.037022 280.520394 412.037022, 280.520394 394.741146 280.520394 394.741146, 280.520394 377.44527 280.520394 377.44527, 280.520394 360.149648 280.520394 360.149648, 280.520394 360.149648"/>
      </g>
      <g>
        <polyline style="fill: gray;stroke: black;stroke-width: 1;" points="254.822706 352.934524, 256.638044 352.934524 256.638044 352.934524, 258.453382 352.934524 258.453382 352.934524, 260.268974 352.934524 260.268974 352.934524, 262.084312 352.934524 262.084312 352.934524, 262.084312 380.488698 262.084312 380.488698, 262.084312 408.042618 262.084312 408.042618, 262.084312 435.59603 262.084312 435.59603, 262.084312 463.150966 262.084312 463.150966, 260.268974 463.150966 260.268974 463.150966, 258.453382 463.150966 258.453382 463.150966, 256.638044 463.150966 256.638044 463.150966, 254.822706 463.150966 254.822706 463.150966, 254.822706 435.59603 254.822706 435.59603, 254.822706 408.042618 254.822706 408.042618, 254.822706 380.488698 254.822706 380.488698, 254.822706 352.934524 254.822706 352.934524, 254.822706 352.934524"/>
      </g>
    </g>
  </g>
</svg>
