<?xml version="1.0" encoding="utf-8"?>
<!-- Generator: SVG Export - SVG Version: 6.00 Build 1  -->
<!-- FXGUID: [49E37264-AF46-11E8-BDAD-525400685065] SYMID: [14203]  -->
<svg xmlns="http://www.w3.org/2000/svg" version="1.1" ch_offset="0" color_bar_width="66" width="426.401738" height="344.118438" origin_x="208.100676" origin_y="164.98062" ch_offset_x="208.9303416" ch_offset_y="40" color_offset_x="208.100676" color_offset_y="-4">
  <g>
    <title>Layer 1</title>
    <g>
      <g>
        <polyline style="fill: gray;stroke: black;stroke-width: 1;" points="35.269678 59.817, 19.054572 85.55736 19.054572 85.55736, 6.39318 119.16918 6.39318 119.16918, 2.54 149.82317 2.54 149.82317, 2.54 178.85156 2.54 178.85156, 6.39318 209.504788 6.39318 209.504788, 19.054572 243.117624 19.054572 243.117624, 35.269678 268.85773 35.269678 268.85773, 47.171356 326.134984 47.171356 326.134984, 369.070382 326.134222 369.070382 326.134222, 380.97206 268.856968 380.97206 268.856968, 397.187166 243.116862 397.187166 243.116862, 409.84932 209.504788 409.84932 209.504788, 413.701738 178.850798 413.701738 178.850798, 413.701738 149.822408 413.701738 149.822408, 409.84932 119.16918 409.84932 119.16918, 397.187166 85.55736 397.187166 85.55736, 380.97206 59.817 380.97206 59.817, 369.070382 2.54 369.070382 2.54, 47.171356 2.54 47.171356 2.54, 35.269678 59.817 35.269678 59.817, 35.269678 59.817"/>
      </g>
      <g>
        <polyline style="fill: gray;stroke: black;stroke-width: 1;" points="374.946672 88.456516, 392.800586 143.13535 392.800586 143.13535, 392.800586 185.538872 392.800586 185.538872, 374.946672 240.217706 374.946672 240.217706, 359.324402 240.217706 359.324402 240.217706, 359.324402 88.456516 359.324402 88.456516, 374.946672 88.456516 374.946672 88.456516, 374.946672 88.456516"/>
      </g>
      <g>
        <polyline style="fill: gray;stroke: black;stroke-width: 1;" points="56.916574 88.456516, 56.916574 240.217706 56.916574 240.217706, 41.294304 240.217706 41.294304 240.217706, 23.44039 185.538872 23.44039 185.538872, 23.44039 143.13535 23.44039 143.13535, 41.294304 88.456516 41.294304 88.456516, 56.916574 88.456516 56.916574 88.456516, 56.916574 88.456516"/>
      </g>
      <g>
        <line x1="155.21178" y1="328.182478" x2="361.026202" y2="328.182478" style="stroke-width: 1;stroke: black;"/>
      </g>
      <g>
        <polyline style="fill: gray;stroke: black;stroke-width: 1;" points="378.515626 103.250746, 37.726874 103.251508 37.726874 103.251508, 25.454102 142.860014 25.454102 142.860014, 25.454102 185.814716 25.454102 185.814716, 37.726874 225.423222 37.726874 225.423222, 378.514864 225.423222 378.514864 225.423222, 390.788398 185.814716 390.788398 185.814716, 390.788398 142.859252 390.788398 142.859252, 378.515626 103.250746"/>
      </g>
      <g>
        <polyline style="fill: gray;stroke: black;stroke-width: 1;" points="326.079866 186.90082, 315.914024 186.90082 315.914024 186.90082, 315.914024 141.773402 315.914024 141.773402, 326.079866 141.773402 326.079866 141.773402, 326.079866 186.90082"/>
      </g>
      <g>
        <polyline style="fill: gray;stroke: black;stroke-width: 1;" points="326.076056 225.423222, 378.514864 225.423222 378.514864 225.423222, 390.788398 185.814716 390.788398 185.814716, 390.788398 142.859252 390.788398 142.859252, 378.515626 103.250746 378.515626 103.250746, 326.076056 103.250746 326.076056 103.250746, 326.076056 225.423222"/>
      </g>
      <g>
        <polyline style="fill: gray;stroke: black;stroke-width: 1;" points="90.161872 186.90082, 100.327714 186.90082 100.327714 186.90082, 100.327714 141.774164 100.327714 141.774164, 90.161872 141.774164 90.161872 141.774164, 90.161872 186.90082"/>
      </g>
      <g>
        <polyline style="fill: gray;stroke: black;stroke-width: 1;" points="90.165682 225.423222, 37.726874 225.423222 37.726874 225.423222, 25.454102 185.814716 25.454102 185.814716, 25.454102 142.860014 25.454102 142.860014, 37.726874 103.251508 37.726874 103.251508, 90.165682 103.251508 90.165682 103.251508, 90.165682 225.423222"/>
      </g>
      <g>
        <polyline style="fill: gray;stroke: black;stroke-width: 1;" points="295.984168 46.350428, 311.046114 75.359514 311.046114 75.359514, 316.06744 111.06277 316.06744 111.06277, 316.066678 252.201426 316.066678 252.201426, 288.552128 293.900352 288.552128 293.900352, 250.79706 331.418438 250.79706 331.418438, 165.443916 331.418438 165.443916 331.418438, 127.68961 293.901114 127.68961 293.901114, 100.174298 252.201426 100.174298 252.201426, 100.174298 111.06277 100.174298 111.06277, 105.194862 75.359514 105.194862 75.359514, 120.25757 46.350428 120.25757 46.350428, 295.984168 46.350428 295.984168 46.350428, 295.984168 46.350428"/>
      </g>
      <g>
        <polyline style="fill: gray;stroke: black;stroke-width: 1;" points="267.253974 46.350428, 281.159458 76.950062 281.159458 76.950062, 295.377108 141.483334 295.377108 141.483334, 300.725586 229.329234 300.725586 229.329234, 249.4026 314.682124 249.4026 314.682124, 166.839392 314.682124 166.839392 314.682124, 115.51539 229.329996 115.51539 229.329996, 120.988582 140.56487 120.988582 140.56487, 134.886954 77.534516 134.886954 77.534516, 148.987764 46.350428 148.987764 46.350428, 267.253974 46.350428 267.253974 46.350428, 267.253974 46.350428"/>
      </g>
      <g>
        <polyline style="fill: gray;stroke: black;stroke-width: 1;" points="248.660666 231.351582, 167.58031 231.352344 167.58031 231.352344, 167.58031 314.663582 167.58031 314.663582, 248.660666 314.663582 248.660666 314.663582, 248.660666 231.351582"/>
      </g>
      <g>
        <polyline style="fill: gray;stroke: black;stroke-width: 1;" points="245.406672 246.96293, 170.835066 246.963692 170.835066 246.963692, 170.835066 238.511588 170.835066 238.511588, 245.406672 238.511588 245.406672 238.511588, 245.406672 246.96293"/>
      </g>
      <g>
        <polyline style="fill: gray;stroke: black;stroke-width: 1;" points="245.406672 262.098536, 170.835066 262.098536 170.835066 262.098536, 170.835066 253.646432 170.835066 253.646432, 245.406672 253.646432 245.406672 253.646432, 245.406672 262.098536"/>
      </g>
      <g>
        <polyline style="fill: gray;stroke: black;stroke-width: 1;" points="245.406672 277.23338, 170.835066 277.23338 170.835066 277.23338, 170.835066 268.781784 170.835066 268.781784, 245.406672 268.781784 245.406672 268.781784, 245.406672 277.23338"/>
      </g>
      <g>
        <polyline style="fill: gray;stroke: black;stroke-width: 1;" points="245.406672 292.368732, 170.835066 292.368732 170.835066 292.368732, 170.835066 283.916628 170.835066 283.916628, 245.406672 283.916628 245.406672 283.916628, 245.406672 292.368732"/>
      </g>
      <g>
        <polyline style="fill: gray;stroke: black;stroke-width: 1;" points="245.406672 307.503576, 170.835066 307.504338 170.835066 307.504338, 170.835066 299.051218 170.835066 299.051218, 245.406672 299.051218 245.406672 299.051218, 245.406672 307.503576"/>
      </g>
      <g>
        <polyline style="fill: gray;stroke: black;stroke-width: 1;" points="127.040132 217.729816, 120.842024 217.729816 120.842024 217.729816, 120.842024 174.5869 120.842024 174.5869, 127.040132 174.5869 127.040132 174.5869, 127.040132 217.729816"/>
      </g>
      <g>
        <polyline style="fill: gray;stroke: black;stroke-width: 1;" points="138.198352 209.54746, 131.999482 209.54746 131.999482 209.54746, 131.999482 174.5869 131.999482 174.5869, 138.198352 174.5869 138.198352 174.5869, 138.198352 209.54746"/>
      </g>
      <g>
        <polyline style="fill: gray;stroke: black;stroke-width: 1;" points="149.356572 200.869042, 143.157702 200.869042 143.157702 200.869042, 143.157702 174.5869 143.157702 174.5869, 149.356572 174.5869 149.356572 174.5869, 149.356572 200.869042"/>
      </g>
      <g>
        <polyline style="fill: gray;stroke: black;stroke-width: 1;" points="289.200844 217.729816, 295.398952 217.729816 295.398952 217.729816, 295.398952 174.586138 295.398952 174.586138, 289.200844 174.586138 289.200844 174.586138, 289.200844 217.729816"/>
      </g>
      <g>
        <polyline style="fill: gray;stroke: black;stroke-width: 1;" points="278.042624 209.54746, 284.241494 209.54746 284.241494 209.54746, 284.241494 174.586138 284.241494 174.586138, 278.042624 174.586138 278.042624 174.586138, 278.042624 209.54746"/>
      </g>
      <g>
        <polyline style="fill: gray;stroke: black;stroke-width: 1;" points="266.885166 200.869042, 273.084036 200.869042 273.084036 200.869042, 273.084036 174.586138 273.084036 174.586138, 266.885166 174.586138 266.885166 174.586138, 266.885166 200.869042"/>
      </g>
    </g>
  </g>
</svg>
