<?xml version="1.0" encoding="utf-8"?>
<!-- Generator: SVG Export - SVG Version: 6.00 Build 1  -->
<!-- FXGUID: [7D91F138-709C-11E9-BB6A-525400685065] SYMID: [14150]  -->
<svg xmlns="http://www.w3.org/2000/svg" version="1.1" ch_offset="0" color_bar_width="66" width="423.911268" height="549.7957" origin_x="206.145892" origin_y="272.84934" ch_offset_x="205.6397462" ch_offset_y="40" color_offset_x="206.145892" color_offset_y="-4">
  <g>
    <title>Layer 1</title>
    <g>
      <g>
        <polyline style="fill: gray;stroke: black;stroke-width: 1;" points="401.243546 186.099704, 376.324114 141.245844 376.324114 141.245844, 37.427154 141.245844 37.427154 141.245844, 12.507722 186.099704 12.507722 186.099704, 2.54 230.954326 2.54 230.954326, 2.54 312.356246 2.54 312.356246, 12.507722 357.210106 12.507722 357.210106, 37.427154 402.063966 37.427154 402.063966, 376.324114 402.063966 376.324114 402.063966, 401.243546 357.210106 401.243546 357.210106, 411.211268 312.356246 411.211268 312.356246, 411.211268 230.954326 411.211268 230.954326, 401.243546 186.099704"/>
      </g>
      <g>
        <polyline style="fill: gray;stroke: black;stroke-width: 1;" points="55.28564 348.07271, 33.68929 348.07271 33.68929 348.07271, 22.059646 299.89653 22.059646 299.89653, 22.059646 243.414042 22.059646 243.414042, 33.68929 195.2371 33.68929 195.2371, 55.28564 195.2371 55.28564 195.2371, 55.28564 348.07271"/>
      </g>
      <g>
        <polyline style="fill: gray;stroke: black;stroke-width: 1;" points="391.690606 299.89653, 380.061978 348.07271 380.061978 348.07271, 358.46639 348.07271 358.46639 348.07271, 358.46639 195.2371 358.46639 195.2371, 380.061978 195.2371 380.061978 195.2371, 391.690606 243.414042 391.690606 243.414042, 391.690606 299.89653"/>
      </g>
      <g>
        <polyline style="fill: gray;stroke: black;stroke-width: 1;" points="398.0561 194.616832, 15.694914 194.616832 15.694914 194.616832, 5.72897 229.91318 5.72897 229.91318, 5.72897 313.397392 5.72897 313.397392, 15.694914 348.693486 15.694914 348.693486, 398.0561 348.693486 398.0561 348.693486, 408.022298 313.397392 408.022298 313.397392, 408.022298 229.91318 408.022298 229.91318, 398.0561 194.616832"/>
      </g>
      <g>
        <polyline style="fill: gray;stroke: black;stroke-width: 1;" points="353.624134 308.197758, 344.07348 308.197758 344.07348 308.197758, 344.07348 235.112814 344.07348 235.112814, 353.624134 235.112814 353.624134 235.112814, 353.624134 308.197758"/>
      </g>
      <g>
        <polyline style="fill: gray;stroke: black;stroke-width: 1;" points="354.039424 348.693486, 398.0561 348.693486 398.0561 348.693486, 408.022298 313.397392 408.022298 313.397392, 408.022298 229.91318 408.022298 229.91318, 398.0561 194.616832 398.0561 194.616832, 354.039424 194.616832 354.039424 194.616832, 354.039424 348.693486"/>
      </g>
      <g>
        <polyline style="fill: gray;stroke: black;stroke-width: 1;" points="59.572906 308.197758, 69.124322 308.197758 69.124322 308.197758, 69.124322 235.112814 69.124322 235.112814, 59.572906 235.112814 59.572906 235.112814, 59.572906 308.197758"/>
      </g>
      <g>
        <polyline style="fill: gray;stroke: black;stroke-width: 1;" points="59.711844 348.693486, 15.694914 348.693486 15.694914 348.693486, 5.72897 313.397392 5.72897 313.397392, 5.72897 229.91318 5.72897 229.91318, 15.694914 194.616832 15.694914 194.616832, 59.711844 194.616832 59.711844 194.616832, 59.711844 348.693486"/>
      </g>
      <g>
        <polyline style="fill: gray;stroke: black;stroke-width: 1;" points="289.017202 537.0957, 311.68086 521.216382 311.68086 521.216382, 327.32091 498.098572 327.32091 498.098572, 332.18882 479.138488 332.18882 479.138488, 334.981804 354.47224 334.981804 354.47224, 344.344752 343.058242 344.344752 343.058242, 344.344752 202.285346 344.344752 202.285346, 334.981804 202.285346 334.981804 202.285346, 333.492602 173.429168 333.492602 173.429168, 325.44893 114.967512 325.44893 114.967512, 309.445406 36.783264 309.445406 36.783264, 287.314132 28.222448 287.314132 28.222448, 283.90977 2.54 283.90977 2.54, 129.841498 2.54 129.841498 2.54, 126.437136 28.222448 126.437136 28.222448, 104.3051 36.783264 104.3051 36.783264, 88.595962 113.265204 88.595962 113.265204, 80.009746 176.241202 80.009746 176.241202, 78.768702 202.285346 78.768702 202.285346, 69.405754 202.285346 69.405754 202.285346, 69.405754 343.058242 69.405754 343.058242, 78.768702 354.47224 78.768702 354.47224, 81.909666 481.740464 81.909666 481.740464, 86.430358 498.098572 86.430358 498.098572, 102.43693 521.659104 102.43693 521.659104, 124.734066 537.0957 124.734066 537.0957, 289.017202 537.0957 289.017202 537.0957, 289.017202 537.0957"/>
      </g>
      <g>
        <polyline style="fill: gray;stroke: black;stroke-width: 1;" points="314.218828 58.392822, 309.335932 36.783264 309.335932 36.783264, 287.204912 28.222448 287.204912 28.222448, 270.61668 34.14141 270.61668 34.14141, 270.61668 44.602908 270.61668 44.602908, 143.133826 44.602908 143.133826 44.602908, 143.133826 34.14141 143.133826 34.14141, 126.546356 28.222448 126.546356 28.222448, 104.415082 36.783264 104.415082 36.783264, 99.53244 58.392822 99.53244 58.392822, 314.218828 58.392822 314.218828 58.392822, 314.218828 58.392822"/>
      </g>
      <g>
        <polyline style="fill: gray;stroke: black;stroke-width: 1;" points="294.913812 58.481976, 307.860954 114.905536 307.860954 114.905536, 317.873634 176.079404 317.873634 176.079404, 323.152262 251.866146 323.152262 251.866146, 317.06185 476.318326 317.06185 476.318326, 290.48456 530.8473 290.48456 530.8473, 123.266708 530.8473 123.266708 530.8473, 96.689418 476.318326 96.689418 476.318326, 90.599006 251.866146 90.599006 251.866146, 95.656908 177.822606 95.656908 177.822606, 105.85069 115.103148 105.85069 115.103148, 118.83771 58.481976 118.83771 58.481976, 294.913812 58.481976 294.913812 58.481976, 294.913812 58.481976"/>
      </g>
      <g>
        <polyline style="fill: gray;stroke: black;stroke-width: 1;" points="319.860168 369.85194, 290.254182 530.8473 290.254182 530.8473, 290.226496 529.15058 290.226496 529.15058, 272.577814 472.962732 272.577814 472.962732, 259.498084 419.781482 259.498084 419.781482, 154.023822 419.781482 154.023822 419.781482, 140.816076 473.4433 140.816076 473.4433, 123.294648 529.15058 123.294648 529.15058, 123.266708 530.8473 123.266708 530.8473, 98.380042 369.85194 98.380042 369.85194, 96.303338 250.974098 96.303338 250.974098, 103.175816 182.343298 103.175816 182.343298, 112.91316 118.306088 112.91316 118.306088, 132.43052 102.138988 132.43052 102.138988, 171.87926 116.879878 171.87926 116.879878, 200.264522 181.73319 200.264522 181.73319, 230.845614 238.611156 230.845614 238.611156, 274.370038 296.431716 274.370038 296.431716, 320.616072 345.704668 320.616072 345.704668, 319.860168 369.85194"/>
      </g>
      <g>
        <polyline style="fill: gray;stroke: black;stroke-width: 1;" points="159.257492 530.8473, 150.39848 530.8473 150.39848 530.8473, 150.39848 480.756976 150.39848 480.756976, 159.257492 480.756976 159.257492 480.756976, 159.257492 530.8473"/>
      </g>
      <g>
        <polyline style="fill: gray;stroke: black;stroke-width: 1;" points="185.280808 530.8473, 176.421542 530.8473 176.421542 530.8473, 176.421542 480.756976 176.421542 480.756976, 185.280808 480.756976 185.280808 480.756976, 185.280808 530.8473"/>
      </g>
      <g>
        <polyline style="fill: gray;stroke: black;stroke-width: 1;" points="211.304886 530.8473, 202.44562 530.8473 202.44562 530.8473, 202.44562 480.756976 202.44562 480.756976, 211.304886 480.756976 211.304886 480.756976, 211.304886 530.8473"/>
      </g>
      <g>
        <polyline style="fill: gray;stroke: black;stroke-width: 1;" points="237.32871 530.8473, 228.469698 530.8473 228.469698 530.8473, 228.469698 480.756976 228.469698 480.756976, 237.32871 480.756976 237.32871 480.756976, 237.32871 530.8473"/>
      </g>
      <g>
        <polyline style="fill: gray;stroke: black;stroke-width: 1;" points="263.352788 530.8473, 254.493776 530.8473 254.493776 530.8473, 254.493776 480.756976 254.493776 480.756976, 263.352788 480.756976 263.352788 480.756976, 263.352788 530.8473"/>
      </g>
    </g>
  </g>
</svg>
