<?xml version="1.0" encoding="utf-8"?>
<!-- Generator: SVG Export - SVG Version: 6.00 Build 1  -->
<!-- FXGUID: [382C73C8-B829-11ED-971E-525400685065] SYMID: [18688]  -->
<svg xmlns="http://www.w3.org/2000/svg" version="1.1" ch_offset="0" color_bar_width="66" width="381.240284" height="499.884192" origin_x="185.805064" origin_y="261.82066" ch_offset_x="188.635386" ch_offset_y="40" color_offset_x="185.805064" color_offset_y="-4">
  <g>
    <title>Layer 1</title>
    <g>
      <g>
        <polyline style="fill: transparent;stroke: black;stroke-width: 1;" points="343.375742 344.538554, 347.307408 340.283038 347.307408 340.283038, 355.95814 330.208382 355.95814 330.208382, 364.607856 318.351916 364.607856 318.351916, 368.540284 308.749446 368.540284 308.749446, 368.540284 284.842966 368.540284 284.842966, 368.540284 260.937502 368.540284 260.937502, 368.540284 237.031276 368.540284 237.031276, 368.540284 213.124796 368.540284 213.124796, 364.607856 203.522326 364.607856 203.522326, 355.95814 191.66586 355.95814 191.66586, 347.307408 181.591204 347.307408 181.591204, 343.375742 177.33645"/>
      </g>
      <g>
        <polyline style="fill: transparent;stroke: black;stroke-width: 1;" points="343.375742 317.137288, 345.560142 313.913266 345.560142 313.913266, 350.366076 306.442618 350.366076 306.442618, 355.171248 298.02836 355.171248 298.02836, 357.355648 291.972746 357.355648 291.972746, 357.355648 276.735032 357.355648 276.735032, 357.355648 261.496302 357.355648 261.496302, 357.355648 246.257826 357.355648 246.257826, 357.355648 231.019858 357.355648 231.019858, 355.171248 224.964498 355.171248 224.964498, 350.366076 216.55024 350.366076 216.55024, 345.560142 209.0801 345.560142 209.0801, 343.375742 205.85557"/>
      </g>
      <g>
        <polyline style="fill: transparent;stroke: black;stroke-width: 1;" points="27.704288 344.538554, 23.772114 340.283038 23.772114 340.283038, 15.122144 330.208382 15.122144 330.208382, 6.471666 318.351916 6.471666 318.351916, 2.54 308.749446 2.54 308.749446, 2.54 284.842966 2.54 284.842966, 2.54 260.937502 2.54 260.937502, 2.54 237.031276 2.54 237.031276, 2.54 213.124796 2.54 213.124796, 6.471666 203.522326 6.471666 203.522326, 15.122144 191.66586 15.122144 191.66586, 23.772114 181.591204 23.772114 181.591204, 27.704288 177.33645"/>
      </g>
      <g>
        <polyline style="fill: transparent;stroke: black;stroke-width: 1;" points="27.704288 317.137288, 25.520142 313.913266 25.520142 313.913266, 20.714208 306.442618 20.714208 306.442618, 15.908274 298.02836 15.908274 298.02836, 13.723874 291.972746 13.723874 291.972746, 13.723874 276.735032 13.723874 276.735032, 13.723874 261.496302 13.723874 261.496302, 13.723874 246.257826 13.723874 246.257826, 13.723874 231.019858 13.723874 231.019858, 15.908274 224.964498 15.908274 224.964498, 20.714208 216.55024 20.714208 216.55024, 25.520142 209.0801 25.520142 209.0801, 27.704288 205.85557"/>
      </g>
      <g>
        <polyline style="fill: gray;stroke: black;stroke-width: 1;" points="309.264812 141.547088, 317.041022 145.339054 317.041022 145.339054, 328.696828 154.688286 328.696828 154.688286, 339.303868 166.55415 339.303868 166.55415, 343.934796 177.89525 343.934796 177.89525, 343.934796 219.695776 343.934796 219.695776, 343.934796 261.496302 343.934796 261.496302, 343.934796 303.297082 343.934796 303.297082, 343.934796 345.097608 343.934796 345.097608, 339.303868 356.43947 339.303868 356.43947, 328.696828 368.304572 328.696828 368.304572, 317.041022 377.65355 317.041022 377.65355, 309.264812 381.44577 309.264812 381.44577, 247.752108 381.44577 247.752108 381.44577, 186.238896 381.44577 186.238896 381.44577, 124.726446 381.44577 124.726446 381.44577, 63.213742 381.44577 63.213742 381.44577, 55.43677 377.65355 55.43677 377.65355, 43.780964 368.304572 43.780964 368.304572, 33.173924 356.43947 33.173924 356.43947, 28.542996 345.097608 28.542996 345.097608, 28.542996 303.297082 28.542996 303.297082, 28.542996 261.496302 28.542996 261.496302, 28.542996 219.695776 28.542996 219.695776, 28.542996 177.89525 28.542996 177.89525, 33.173924 166.55415 33.173924 166.55415, 43.780964 154.688286 43.780964 154.688286, 55.43677 145.339054 55.43677 145.339054, 63.213742 141.547088 63.213742 141.547088, 124.726446 141.547088 124.726446 141.547088, 186.238896 141.547088 186.238896 141.547088, 247.752108 141.547088 247.752108 141.547088, 309.264812 141.547088 309.264812 141.547088, 309.264812 141.547088"/>
      </g>
      <g>
        <polyline style="fill: transparent;stroke: black;stroke-width: 1;" points="317.296292 205.79842, 315.665358 204.167486 315.665358 204.167486, 314.034678 202.536552 314.034678 202.536552, 312.403744 200.905618 312.403744 200.905618, 310.772048 199.273922 310.772048 199.273922, 303.968404 199.273922 303.968404 199.273922, 297.164252 199.273922 297.164252 199.273922, 290.361624 199.273922 290.361624 199.273922, 283.557472 199.273922 283.557472 199.273922, 234.301538 199.273922 234.301538 199.273922, 185.044842 199.273922 185.044842 199.273922, 135.788146 199.273922 135.788146 199.273922, 86.53145 199.273922 86.53145 199.273922, 79.727806 199.273922 79.727806 199.273922, 72.924416 199.273922 72.924416 199.273922, 66.121026 199.273922 66.121026 199.273922, 59.31662 199.273922 59.31662 199.273922, 57.68594 200.905618 57.68594 200.905618, 56.055006 202.536552 56.055006 202.536552, 54.424072 204.167486 54.424072 204.167486, 52.792376 205.79842"/>
      </g>
      <g>
        <polyline style="fill: transparent;stroke: black;stroke-width: 1;" points="317.296292 316.521846, 315.665358 318.15278 315.665358 318.15278, 314.034678 319.783714 314.034678 319.783714, 312.403744 321.41541 312.403744 321.41541, 310.772048 323.046344 310.772048 323.046344, 303.968404 323.046344 303.968404 323.046344, 297.164252 323.046344 297.164252 323.046344, 290.361624 323.046344 290.361624 323.046344, 283.557472 323.046344 283.557472 323.046344, 234.301538 323.046344 234.301538 323.046344, 185.044842 323.046344 185.044842 323.046344, 135.788146 323.046344 135.788146 323.046344, 86.53145 323.046344 86.53145 323.046344, 79.727806 323.046344 79.727806 323.046344, 72.924416 323.046344 72.924416 323.046344, 66.121026 323.046344 66.121026 323.046344, 59.31662 323.046344 59.31662 323.046344, 57.68594 321.41541 57.68594 321.41541, 56.055006 319.783714 56.055006 319.783714, 54.424072 318.15278 54.424072 318.15278, 52.792376 316.521846"/>
      </g>
      <g>
        <polyline style="fill: gray;stroke: black;stroke-width: 1;" points="52.792376 316.521846, 48.904144 316.521846 48.904144 316.521846, 39.721028 316.521846 39.721028 316.521846, 28.965144 316.521846 28.965144 316.521846, 20.358608 316.521846 20.358608 316.521846, 15.159736 314.65139 15.159736 314.65139, 11.900154 310.370474 11.900154 310.370474, 10.214356 305.66995 10.214356 305.66995, 9.733788 302.541432 9.733788 302.541432, 9.733788 281.850338 9.733788 281.850338, 9.733788 261.16026 9.733788 261.16026, 9.733788 240.469166 9.733788 240.469166, 9.733788 219.779088 9.733788 219.779088, 10.214356 216.65057 10.214356 216.65057, 11.900154 211.950046 11.900154 211.950046, 15.159736 207.668876 15.159736 207.668876, 20.358608 205.79842 20.358608 205.79842, 28.965144 205.79842 28.965144 205.79842, 39.721028 205.79842 39.721028 205.79842, 48.904144 205.79842 48.904144 205.79842, 52.792376 205.79842 52.792376 205.79842, 52.792376 233.479594 52.792376 233.479594, 52.792376 261.16026 52.792376 261.16026, 52.792376 288.840672 52.792376 288.840672, 52.792376 316.521846 52.792376 316.521846, 52.792376 316.521846"/>
      </g>
      <g>
        <polyline style="fill: gray;stroke: black;stroke-width: 1;" points="317.296292 316.521846, 321.184524 316.521846 321.184524 316.521846, 330.368402 316.521846 330.368402 316.521846, 341.124286 316.521846 341.124286 316.521846, 349.730822 316.521846 349.730822 316.521846, 354.929694 314.65139 354.929694 314.65139, 358.188514 310.370474 358.188514 310.370474, 359.875074 305.66995 359.875074 305.66995, 360.355642 302.541432 360.355642 302.541432, 360.355642 281.850338 360.355642 281.850338, 360.355642 261.16026 360.355642 261.16026, 360.355642 240.469166 360.355642 240.469166, 360.355642 219.779088 360.355642 219.779088, 359.875074 216.65057 359.875074 216.65057, 358.188514 211.950046 358.188514 211.950046, 354.929694 207.668876 354.929694 207.668876, 349.730822 205.79842 349.730822 205.79842, 341.124286 205.79842 341.124286 205.79842, 330.368402 205.79842 330.368402 205.79842, 321.184524 205.79842 321.184524 205.79842, 317.296292 205.79842 317.296292 205.79842, 317.296292 233.479594 317.296292 233.479594, 317.296292 261.16026 317.296292 261.16026, 317.296292 288.840672 317.296292 288.840672, 317.296292 316.521846 317.296292 316.521846, 317.296292 316.521846"/>
      </g>
      <g>
        <polyline style="fill: gray;stroke: black;stroke-width: 1;" points="52.897532 288.229802, 54.854856 288.229802 54.854856 288.229802, 56.811926 288.229802 56.811926 288.229802, 58.76925 288.229802 58.76925 288.229802, 60.726574 288.229802 60.726574 288.229802, 60.726574 275.617432 60.726574 275.617432, 60.726574 263.004046 60.726574 263.004046, 60.726574 250.391676 60.726574 250.391676, 60.726574 237.778544 60.726574 237.778544, 58.76925 237.778544 58.76925 237.778544, 56.811926 237.778544 56.811926 237.778544, 54.854856 237.778544 54.854856 237.778544, 52.897532 237.778544 52.897532 237.778544, 52.897532 250.391676 52.897532 250.391676, 52.897532 263.004046 52.897532 263.004046, 52.897532 275.617432 52.897532 275.617432, 52.897532 288.229802 52.897532 288.229802, 52.897532 288.229802"/>
      </g>
      <g>
        <polyline style="fill: gray;stroke: black;stroke-width: 1;" points="310.168798 288.229802, 312.125106 288.229802 312.125106 288.229802, 314.083192 288.229802 314.083192 288.229802, 316.039754 288.229802 316.039754 288.229802, 317.997586 288.229802 317.997586 288.229802, 317.997586 275.617432 317.997586 275.617432, 317.997586 263.004046 317.997586 263.004046, 317.997586 250.391676 317.997586 250.391676, 317.997586 237.778544 317.997586 237.778544, 316.039754 237.778544 316.039754 237.778544, 314.083192 237.778544 314.083192 237.778544, 312.125106 237.778544 312.125106 237.778544, 310.168798 237.778544 310.168798 237.778544, 310.168798 250.391676 310.168798 250.391676, 310.168798 263.004046 310.168798 263.004046, 310.168798 275.617432 310.168798 275.617432, 310.168798 288.229802 310.168798 288.229802, 310.168798 288.229802"/>
      </g>
      <g>
        <polyline style="fill: gray;stroke: black;stroke-width: 1;" points="245.3005 487.184192, 261.124446 485.2797 261.124446 485.2797, 269.975838 480.753674 269.975838 480.753674, 274.318222 475.38894 274.318222 475.38894, 276.615652 470.968324 276.615652 470.968324, 283.03855 459.468982 283.03855 459.468982, 294.440864 438.11444 294.440864 438.11444, 305.31943 416.54984 305.31943 416.54984, 310.168798 404.42261 310.168798 404.42261, 309.556404 386.247894 309.556404 386.247894, 308.210712 351.717356 308.210712 351.717356, 306.86502 318.234822 306.86502 318.234822, 306.25415 303.206404 306.25415 303.206404, 307.232558 302.087788 307.232558 302.087788, 308.210712 300.969172 308.210712 300.969172, 309.19039 299.85081 309.19039 299.85081, 310.168798 298.732194 310.168798 298.732194, 310.168798 276.363684 310.168798 276.363684, 310.168798 253.99619 310.168798 253.99619, 310.168798 231.62768 310.168798 231.62768, 310.168798 209.259424 310.168798 209.259424, 309.050944 208.001362 309.050944 208.001362, 307.931566 206.7433 307.931566 206.7433, 306.813966 205.485238 306.813966 205.485238, 305.694588 204.226414 305.694588 204.226414, 301.938182 164.558218 301.938182 164.558218, 293.672006 115.452652 293.672006 115.452652, 285.40583 73.686924 285.40583 73.686924, 281.649424 56.036972 281.649424 56.036972, 280.810716 56.036972 280.810716 56.036972, 279.972008 56.036972 279.972008 56.036972, 279.1333 56.036972 279.1333 56.036972, 278.293068 56.036972 278.293068 56.036972, 275.918168 42.663364 275.918168 42.663364, 273.539966 29.288994 273.539966 29.288994, 271.163288 15.915386 271.163288 15.915386, 268.78661 2.54 268.78661 2.54, 252.057408 2.54 252.057408 2.54, 235.328206 2.54 235.328206 2.54, 218.598242 2.54 218.598242 2.54, 201.868278 2.54 201.868278 2.54, 193.657982 2.54 193.657982 2.54, 185.447686 2.54 185.447686 2.54, 177.23739 2.54 177.23739 2.54, 169.02684 2.54 169.02684 2.54, 152.296876 2.54 152.296876 2.54, 135.567674 2.54 135.567674 2.54, 118.83771 2.54 118.83771 2.54, 102.107746 2.54 102.107746 2.54, 99.731068 15.915386 99.731068 15.915386, 97.354644 29.288994 97.354644 29.288994, 94.977966 42.663364 94.977966 42.663364, 92.601288 56.036972 92.601288 56.036972, 91.76258 56.036972 91.76258 56.036972, 90.923872 56.036972 90.923872 56.036972, 90.085164 56.036972 90.085164 56.036972, 89.245694 56.036972 89.245694 56.036972, 85.488526 73.686924 85.488526 73.686924, 77.223112 115.452652 77.223112 115.452652, 68.957698 164.558218 68.957698 164.558218, 65.200784 204.226414 65.200784 204.226414, 64.081406 205.485238 64.081406 205.485238, 62.963552 206.7433 62.963552 206.7433, 61.84519 208.001362 61.84519 208.001362, 60.726574 209.259424 60.726574 209.259424, 60.726574 231.62768 60.726574 231.62768, 60.726574 253.99619 60.726574 253.99619, 60.726574 276.363684 60.726574 276.363684, 60.726574 298.732194 60.726574 298.732194, 61.70549 299.85081 61.70549 299.85081, 62.683898 300.969172 62.683898 300.969172, 63.662814 302.087788 63.662814 302.087788, 64.640968 303.206404 64.640968 303.206404, 64.029336 318.234822 64.029336 318.234822, 62.683898 351.717356 62.683898 351.717356, 61.338206 386.247894 61.338206 386.247894, 60.726574 404.42261 60.726574 404.42261, 65.575942 416.54984 65.575942 416.54984, 76.454254 438.11444 76.454254 438.11444, 87.856568 459.468982 87.856568 459.468982, 94.278704 470.968324 94.278704 470.968324, 96.57715 475.38894 96.57715 475.38894, 100.919534 480.753674 100.919534 480.753674, 109.770926 485.2797 109.770926 485.2797, 125.594618 487.184192 125.594618 487.184192, 155.520644 487.184192 155.520644 487.184192, 185.447686 487.184192 185.447686 487.184192, 215.374474 487.184192 215.374474 487.184192, 245.3005 487.184192 245.3005 487.184192, 245.3005 487.184192"/>
      </g>
      <g>
        <polyline style="fill: transparent;stroke: black;stroke-width: 1;" points="84.346034 79.222346, 134.978648 79.222346 134.978648 79.222346, 185.612024 79.222346 185.612024 79.222346, 236.2454 79.222346 236.2454 79.222346, 286.878776 79.222346"/>
      </g>
      <g>
        <polyline style="fill: transparent;stroke: black;stroke-width: 1;" points="92.601288 56.036972, 139.024868 56.036972 139.024868 56.036972, 185.447686 56.036972 185.447686 56.036972, 231.871266 56.036972 231.871266 56.036972, 278.293068 56.036972"/>
      </g>
      <g>
        <polyline style="fill: gray;stroke: black;stroke-width: 1;" points="140.134086 227.713286, 138.735816 227.713286 138.735816 227.713286, 137.338054 227.713286 137.338054 227.713286, 135.939784 227.713286 135.939784 227.713286, 134.542276 227.713286 134.542276 227.713286, 134.542276 191.784478 134.542276 191.784478, 134.542276 155.85567 134.542276 155.85567, 134.542276 119.9261 134.542276 119.9261, 134.542276 83.997292 134.542276 83.997292, 135.939784 83.997292 135.939784 83.997292, 137.338054 83.997292 137.338054 83.997292, 138.735816 83.997292 138.735816 83.997292, 140.134086 83.997292 140.134086 83.997292, 140.134086 119.9261 140.134086 119.9261, 140.134086 155.85567 140.134086 155.85567, 140.134086 191.784478 140.134086 191.784478, 140.134086 227.713286 140.134086 227.713286, 140.134086 227.713286"/>
      </g>
      <g>
        <polyline style="fill: gray;stroke: black;stroke-width: 1;" points="152.436322 227.713286, 151.038052 227.713286 151.038052 227.713286, 149.640544 227.713286 149.640544 227.713286, 148.24202 227.713286 148.24202 227.713286, 146.844512 227.713286 146.844512 227.713286, 146.844512 191.784478 146.844512 191.784478, 146.844512 155.85567 146.844512 155.85567, 146.844512 119.9261 146.844512 119.9261, 146.844512 83.997292 146.844512 83.997292, 148.24202 83.997292 148.24202 83.997292, 149.640544 83.997292 149.640544 83.997292, 151.038052 83.997292 151.038052 83.997292, 152.436322 83.997292 152.436322 83.997292, 152.436322 119.9261 152.436322 119.9261, 152.436322 155.85567 152.436322 155.85567, 152.436322 191.784478 152.436322 191.784478, 152.436322 227.713286 152.436322 227.713286, 152.436322 227.713286"/>
      </g>
      <g>
        <polyline style="fill: gray;stroke: black;stroke-width: 1;" points="127.83185 227.713286, 126.433326 227.713286 126.433326 227.713286, 125.035818 227.713286 125.035818 227.713286, 123.637548 227.713286 123.637548 227.713286, 122.239024 227.713286 122.239024 227.713286, 122.239024 191.784478 122.239024 191.784478, 122.239024 155.85567 122.239024 155.85567, 122.239024 119.9261 122.239024 119.9261, 122.239024 83.997292 122.239024 83.997292, 123.637548 83.997292 123.637548 83.997292, 125.035818 83.997292 125.035818 83.997292, 126.433326 83.997292 126.433326 83.997292, 127.83185 83.997292 127.83185 83.997292, 127.83185 119.9261 127.83185 119.9261, 127.83185 155.85567 127.83185 155.85567, 127.83185 191.784478 127.83185 191.784478, 127.83185 227.713286 127.83185 227.713286, 127.83185 227.713286"/>
      </g>
      <g>
        <polyline style="fill: gray;stroke: black;stroke-width: 1;" points="201.646536 227.713286, 200.248266 227.713286 200.248266 227.713286, 198.850758 227.713286 198.850758 227.713286, 197.452234 227.713286 197.452234 227.713286, 196.054726 227.713286 196.054726 227.713286, 196.054726 191.784478 196.054726 191.784478, 196.054726 155.85567 196.054726 155.85567, 196.054726 119.9261 196.054726 119.9261, 196.054726 83.997292 196.054726 83.997292, 197.452234 83.997292 197.452234 83.997292, 198.850758 83.997292 198.850758 83.997292, 200.248266 83.997292 200.248266 83.997292, 201.646536 83.997292 201.646536 83.997292, 201.646536 119.9261 201.646536 119.9261, 201.646536 155.85567 201.646536 155.85567, 201.646536 191.784478 201.646536 191.784478, 201.646536 227.713286 201.646536 227.713286, 201.646536 227.713286"/>
      </g>
      <g>
        <polyline style="fill: gray;stroke: black;stroke-width: 1;" points="213.949026 227.713286, 212.550756 227.713286 212.550756 227.713286, 211.152994 227.713286 211.152994 227.713286, 209.754724 227.713286 209.754724 227.713286, 208.356962 227.713286 208.356962 227.713286, 208.356962 191.784478 208.356962 191.784478, 208.356962 155.85567 208.356962 155.85567, 208.356962 119.9261 208.356962 119.9261, 208.356962 83.997292 208.356962 83.997292, 209.754724 83.997292 209.754724 83.997292, 211.152994 83.997292 211.152994 83.997292, 212.550756 83.997292 212.550756 83.997292, 213.949026 83.997292 213.949026 83.997292, 213.949026 119.9261 213.949026 119.9261, 213.949026 155.85567 213.949026 155.85567, 213.949026 191.784478 213.949026 191.784478, 213.949026 227.713286 213.949026 227.713286, 213.949026 227.713286"/>
      </g>
      <g>
        <polyline style="fill: gray;stroke: black;stroke-width: 1;" points="226.252024 227.713286, 224.853754 227.713286 224.853754 227.713286, 223.456246 227.713286 223.456246 227.713286, 222.057722 227.713286 222.057722 227.713286, 220.659452 227.713286 220.659452 227.713286, 220.659452 191.784478 220.659452 191.784478, 220.659452 155.85567 220.659452 155.85567, 220.659452 119.9261 220.659452 119.9261, 220.659452 83.997292 220.659452 83.997292, 222.057722 83.997292 222.057722 83.997292, 223.456246 83.997292 223.456246 83.997292, 224.853754 83.997292 224.853754 83.997292, 226.252024 83.997292 226.252024 83.997292, 226.252024 119.9261 226.252024 119.9261, 226.252024 155.85567 226.252024 155.85567, 226.252024 191.784478 226.252024 191.784478, 226.252024 227.713286 226.252024 227.713286, 226.252024 227.713286"/>
      </g>
      <g>
        <polyline style="fill: gray;stroke: black;stroke-width: 1;" points="238.554514 227.713286, 237.15599 227.713286 237.15599 227.713286, 235.758482 227.713286 235.758482 227.713286, 234.360212 227.713286 234.360212 227.713286, 232.96245 227.713286 232.96245 227.713286, 232.96245 191.784478 232.96245 191.784478, 232.96245 155.85567 232.96245 155.85567, 232.96245 119.9261 232.96245 119.9261, 232.96245 83.997292 232.96245 83.997292, 234.360212 83.997292 234.360212 83.997292, 235.758482 83.997292 235.758482 83.997292, 237.15599 83.997292 237.15599 83.997292, 238.554514 83.997292 238.554514 83.997292, 238.554514 119.9261 238.554514 119.9261, 238.554514 155.85567 238.554514 155.85567, 238.554514 191.784478 238.554514 191.784478, 238.554514 227.713286 238.554514 227.713286, 238.554514 227.713286"/>
      </g>
      <g>
        <polyline style="fill: gray;stroke: black;stroke-width: 1;" points="250.85675 227.713286, 249.45848 227.713286 249.45848 227.713286, 248.060972 227.713286 248.060972 227.713286, 246.662448 227.713286 246.662448 227.713286, 245.26494 227.713286 245.26494 227.713286, 245.26494 191.784478 245.26494 191.784478, 245.26494 155.85567 245.26494 155.85567, 245.26494 119.9261 245.26494 119.9261, 245.26494 83.997292 245.26494 83.997292, 246.662448 83.997292 246.662448 83.997292, 248.060972 83.997292 248.060972 83.997292, 249.45848 83.997292 249.45848 83.997292, 250.85675 83.997292 250.85675 83.997292, 250.85675 119.9261 250.85675 119.9261, 250.85675 155.85567 250.85675 155.85567, 250.85675 191.784478 250.85675 191.784478, 250.85675 227.713286 250.85675 227.713286, 250.85675 227.713286"/>
      </g>
      <g>
        <polyline style="fill: gray;stroke: black;stroke-width: 1;" points="112.173766 465.935314, 110.635796 465.935314 110.635796 465.935314, 109.09808 465.935314 109.09808 465.935314, 107.56011 465.935314 107.56011 465.935314, 106.02214 465.935314 106.02214 465.935314, 106.02214 426.930566 106.02214 426.930566, 106.02214 387.926072 106.02214 387.926072, 106.02214 348.921324 106.02214 348.921324, 106.02214 309.91683 106.02214 309.91683, 107.56011 309.91683 107.56011 309.91683, 109.09808 309.91683 109.09808 309.91683, 110.635796 309.91683 110.635796 309.91683, 112.173766 309.91683 112.173766 309.91683, 112.173766 348.921324 112.173766 348.921324, 112.173766 387.926072 112.173766 387.926072, 112.173766 426.930566 112.173766 426.930566, 112.173766 465.935314 112.173766 465.935314, 112.173766 465.935314"/>
      </g>
      <g>
        <polyline style="fill: gray;stroke: black;stroke-width: 1;" points="128.111504 465.935314, 126.573788 465.935314 126.573788 465.935314, 125.035818 465.935314 125.035818 465.935314, 123.497848 465.935314 123.497848 465.935314, 121.960132 465.935314 121.960132 465.935314, 121.960132 426.930566 121.960132 426.930566, 121.960132 387.926072 121.960132 387.926072, 121.960132 348.921324 121.960132 348.921324, 121.960132 309.91683 121.960132 309.91683, 123.497848 309.91683 123.497848 309.91683, 125.035818 309.91683 125.035818 309.91683, 126.573788 309.91683 126.573788 309.91683, 128.111504 309.91683 128.111504 309.91683, 128.111504 348.921324 128.111504 348.921324, 128.111504 387.926072 128.111504 387.926072, 128.111504 426.930566 128.111504 426.930566, 128.111504 465.935314 128.111504 465.935314, 128.111504 465.935314"/>
      </g>
      <g>
        <polyline style="fill: gray;stroke: black;stroke-width: 1;" points="144.04848 465.935314, 142.510764 465.935314 142.510764 465.935314, 140.972794 465.935314 140.972794 465.935314, 139.434824 465.935314 139.434824 465.935314, 137.897108 465.935314 137.897108 465.935314, 137.897108 426.930566 137.897108 426.930566, 137.897108 387.926072 137.897108 387.926072, 137.897108 348.921324 137.897108 348.921324, 137.897108 309.91683 137.897108 309.91683, 139.434824 309.91683 139.434824 309.91683, 140.972794 309.91683 140.972794 309.91683, 142.510764 309.91683 142.510764 309.91683, 144.04848 309.91683 144.04848 309.91683, 144.04848 348.921324 144.04848 348.921324, 144.04848 387.926072 144.04848 387.926072, 144.04848 426.930566 144.04848 426.930566, 144.04848 465.935314 144.04848 465.935314, 144.04848 465.935314"/>
      </g>
      <g>
        <polyline style="fill: gray;stroke: black;stroke-width: 1;" points="159.98571 465.935314, 158.44774 465.935314 158.44774 465.935314, 156.90977 465.935314 156.90977 465.935314, 155.372054 465.935314 155.372054 465.935314, 153.834084 465.935314 153.834084 465.935314, 153.834084 426.930566 153.834084 426.930566, 153.834084 387.926072 153.834084 387.926072, 153.834084 348.921324 153.834084 348.921324, 153.834084 309.91683 153.834084 309.91683, 155.372054 309.91683 155.372054 309.91683, 156.90977 309.91683 156.90977 309.91683, 158.44774 309.91683 158.44774 309.91683, 159.98571 309.91683 159.98571 309.91683, 159.98571 348.921324 159.98571 348.921324, 159.98571 387.926072 159.98571 387.926072, 159.98571 426.930566 159.98571 426.930566, 159.98571 465.935314 159.98571 465.935314, 159.98571 465.935314"/>
      </g>
      <g>
        <polyline style="fill: gray;stroke: black;stroke-width: 1;" points="175.923448 465.935314, 174.385478 465.935314 174.385478 465.935314, 172.847508 465.935314 172.847508 465.935314, 171.309792 465.935314 171.309792 465.935314, 169.771822 465.935314 169.771822 465.935314, 169.771822 426.930566 169.771822 426.930566, 169.771822 387.926072 169.771822 387.926072, 169.771822 348.921324 169.771822 348.921324, 169.771822 309.91683 169.771822 309.91683, 171.309792 309.91683 171.309792 309.91683, 172.847508 309.91683 172.847508 309.91683, 174.385478 309.91683 174.385478 309.91683, 175.923448 309.91683 175.923448 309.91683, 175.923448 348.921324 175.923448 348.921324, 175.923448 387.926072 175.923448 387.926072, 175.923448 426.930566 175.923448 426.930566, 175.923448 465.935314 175.923448 465.935314, 175.923448 465.935314"/>
      </g>
      <g>
        <polyline style="fill: gray;stroke: black;stroke-width: 1;" points="191.860424 465.935314, 190.322454 465.935314 190.322454 465.935314, 188.784738 465.935314 188.784738 465.935314, 187.246768 465.935314 187.246768 465.935314, 185.708798 465.935314 185.708798 465.935314, 185.708798 426.930566 185.708798 426.930566, 185.708798 387.926072 185.708798 387.926072, 185.708798 348.921324 185.708798 348.921324, 185.708798 309.91683 185.708798 309.91683, 187.246768 309.91683 187.246768 309.91683, 188.784738 309.91683 188.784738 309.91683, 190.322454 309.91683 190.322454 309.91683, 191.860424 309.91683 191.860424 309.91683, 191.860424 348.921324 191.860424 348.921324, 191.860424 387.926072 191.860424 387.926072, 191.860424 426.930566 191.860424 426.930566, 191.860424 465.935314 191.860424 465.935314, 191.860424 465.935314"/>
      </g>
      <g>
        <polyline style="fill: gray;stroke: black;stroke-width: 1;" points="207.798162 465.935314, 206.260192 465.935314 206.260192 465.935314, 204.722476 465.935314 204.722476 465.935314, 203.184506 465.935314 203.184506 465.935314, 201.646536 465.935314 201.646536 465.935314, 201.646536 426.930566 201.646536 426.930566, 201.646536 387.926072 201.646536 387.926072, 201.646536 348.921324 201.646536 348.921324, 201.646536 309.91683 201.646536 309.91683, 203.184506 309.91683 203.184506 309.91683, 204.722476 309.91683 204.722476 309.91683, 206.260192 309.91683 206.260192 309.91683, 207.798162 309.91683 207.798162 309.91683, 207.798162 348.921324 207.798162 348.921324, 207.798162 387.926072 207.798162 387.926072, 207.798162 426.930566 207.798162 426.930566, 207.798162 465.935314 207.798162 465.935314, 207.798162 465.935314"/>
      </g>
      <g>
        <polyline style="fill: gray;stroke: black;stroke-width: 1;" points="223.735138 465.935314, 222.197422 465.935314 222.197422 465.935314, 220.659452 465.935314 220.659452 465.935314, 219.121482 465.935314 219.121482 465.935314, 217.583766 465.935314 217.583766 465.935314, 217.583766 426.930566 217.583766 426.930566, 217.583766 387.926072 217.583766 387.926072, 217.583766 348.921324 217.583766 348.921324, 217.583766 309.91683 217.583766 309.91683, 219.121482 309.91683 219.121482 309.91683, 220.659452 309.91683 220.659452 309.91683, 222.197422 309.91683 222.197422 309.91683, 223.735138 309.91683 223.735138 309.91683, 223.735138 348.921324 223.735138 348.921324, 223.735138 387.926072 223.735138 387.926072, 223.735138 426.930566 223.735138 426.930566, 223.735138 465.935314 223.735138 465.935314, 223.735138 465.935314"/>
      </g>
      <g>
        <polyline style="fill: gray;stroke: black;stroke-width: 1;" points="239.672114 465.935314, 238.13516 465.935314 238.13516 465.935314, 236.59719 465.935314 236.59719 465.935314, 235.05922 465.935314 235.05922 465.935314, 233.521504 465.935314 233.521504 465.935314, 233.521504 426.930566 233.521504 426.930566, 233.521504 387.926072 233.521504 387.926072, 233.521504 348.921324 233.521504 348.921324, 233.521504 309.91683 233.521504 309.91683, 235.05922 309.91683 235.05922 309.91683, 236.59719 309.91683 236.59719 309.91683, 238.13516 309.91683 238.13516 309.91683, 239.672114 309.91683 239.672114 309.91683, 239.672114 348.921324 239.672114 348.921324, 239.672114 387.926072 239.672114 387.926072, 239.672114 426.930566 239.672114 426.930566, 239.672114 465.935314 239.672114 465.935314, 239.672114 465.935314"/>
      </g>
      <g>
        <polyline style="fill: gray;stroke: black;stroke-width: 1;" points="255.610106 465.935314, 254.072136 465.935314 254.072136 465.935314, 252.534166 465.935314 252.534166 465.935314, 250.99645 465.935314 250.99645 465.935314, 249.45848 465.935314 249.45848 465.935314, 249.45848 426.930566 249.45848 426.930566, 249.45848 387.926072 249.45848 387.926072, 249.45848 348.921324 249.45848 348.921324, 249.45848 309.91683 249.45848 309.91683, 250.99645 309.91683 250.99645 309.91683, 252.534166 309.91683 252.534166 309.91683, 254.072136 309.91683 254.072136 309.91683, 255.610106 309.91683 255.610106 309.91683, 255.610106 348.921324 255.610106 348.921324, 255.610106 387.926072 255.610106 387.926072, 255.610106 426.930566 255.610106 426.930566, 255.610106 465.935314 255.610106 465.935314, 255.610106 465.935314"/>
      </g>
      <g>
        <polyline style="fill: gray;stroke: black;stroke-width: 1;" points="271.547844 465.935314, 270.009874 465.935314 270.009874 465.935314, 268.471904 465.935314 268.471904 465.935314, 266.934188 465.935314 266.934188 465.935314, 265.396218 465.935314 265.396218 465.935314, 265.396218 426.930566 265.396218 426.930566, 265.396218 387.926072 265.396218 387.926072, 265.396218 348.921324 265.396218 348.921324, 265.396218 309.91683 265.396218 309.91683, 266.934188 309.91683 266.934188 309.91683, 268.471904 309.91683 268.471904 309.91683, 270.009874 309.91683 270.009874 309.91683, 271.547844 309.91683 271.547844 309.91683, 271.547844 348.921324 271.547844 348.921324, 271.547844 387.926072 271.547844 387.926072, 271.547844 426.930566 271.547844 426.930566, 271.547844 465.935314 271.547844 465.935314, 271.547844 465.935314"/>
      </g>
      <g>
        <polyline style="fill: gray;stroke: black;stroke-width: 1;" points="164.738812 227.713286, 163.341304 227.713286 163.341304 227.713286, 161.94278 227.713286 161.94278 227.713286, 160.54451 227.713286 160.54451 227.713286, 159.147002 227.713286 159.147002 227.713286, 159.147002 191.784478 159.147002 191.784478, 159.147002 155.85567 159.147002 155.85567, 159.147002 119.9261 159.147002 119.9261, 159.147002 83.997292 159.147002 83.997292, 160.54451 83.997292 160.54451 83.997292, 161.94278 83.997292 161.94278 83.997292, 163.341304 83.997292 163.341304 83.997292, 164.738812 83.997292 164.738812 83.997292, 164.738812 119.9261 164.738812 119.9261, 164.738812 155.85567 164.738812 155.85567, 164.738812 191.784478 164.738812 191.784478, 164.738812 227.713286 164.738812 227.713286, 164.738812 227.713286"/>
      </g>
      <g>
        <polyline style="fill: gray;stroke: black;stroke-width: 1;" points="177.041048 227.713286, 175.64354 227.713286 175.64354 227.713286, 174.246032 227.713286 174.246032 227.713286, 172.847508 227.713286 172.847508 227.713286, 171.449238 227.713286 171.449238 227.713286, 171.449238 191.784478 171.449238 191.784478, 171.449238 155.85567 171.449238 155.85567, 171.449238 119.9261 171.449238 119.9261, 171.449238 83.997292 171.449238 83.997292, 172.847508 83.997292 172.847508 83.997292, 174.246032 83.997292 174.246032 83.997292, 175.64354 83.997292 175.64354 83.997292, 177.041048 83.997292 177.041048 83.997292, 177.041048 119.9261 177.041048 119.9261, 177.041048 155.85567 177.041048 155.85567, 177.041048 191.784478 177.041048 191.784478, 177.041048 227.713286 177.041048 227.713286, 177.041048 227.713286"/>
      </g>
      <g>
        <polyline style="fill: gray;stroke: black;stroke-width: 1;" points="189.3443 227.713286, 187.94603 227.713286 187.94603 227.713286, 186.548268 227.713286 186.548268 227.713286, 185.149998 227.713286 185.149998 227.713286, 183.75249 227.713286 183.75249 227.713286, 183.75249 191.784478 183.75249 191.784478, 183.75249 155.85567 183.75249 155.85567, 183.75249 119.9261 183.75249 119.9261, 183.75249 83.997292 183.75249 83.997292, 185.149998 83.997292 185.149998 83.997292, 186.548268 83.997292 186.548268 83.997292, 187.94603 83.997292 187.94603 83.997292, 189.3443 83.997292 189.3443 83.997292, 189.3443 119.9261 189.3443 119.9261, 189.3443 155.85567 189.3443 155.85567, 189.3443 191.784478 189.3443 191.784478, 189.3443 227.713286 189.3443 227.713286, 189.3443 227.713286"/>
      </g>
    </g>
  </g>
</svg>
