<?xml version="1.0" encoding="utf-8"?>
<!-- Generator: SVG Export - SVG Version: 6.00 Build 1  -->
<!-- FXGUID: [08EFBDE0-98D1-11EB-B61B-525400685065] SYMID: [16019]  -->
<svg xmlns="http://www.w3.org/2000/svg" version="1.1" ch_offset="0" color_bar_width="66" width="407.204418" height="467.10854" origin_x="198.137272" origin_y="243.97462" ch_offset_x="197.075425" ch_offset_y="40" color_offset_x="198.137272" color_offset_y="-4" fxtype_offset_x="202.2432074" fxtype_offset_y="496.485672" fxtype_offset_value="ForceSProfile">
  <g>
    <title>Layer 1</title>
    <g>
      <g>
        <polyline style="fill: gray;stroke: black;stroke-width: 1;" points="346.346018 135.379968, 346.346018 122.658378 346.346018 122.658378, 50.698146 122.658378 50.698146 122.658378, 50.698146 135.379968 50.698146 135.379968, 2.986532 168.247822 2.986532 168.247822, 2.986532 319.044066 2.986532 319.044066, 50.698146 351.912682 50.698146 351.912682, 50.698146 364.634272 50.698146 364.634272, 346.346018 364.634272 346.346018 364.634272, 346.346018 351.912682 346.346018 351.912682, 394.057886 319.044066 394.057886 319.044066, 394.057886 168.247822 394.057886 168.247822, 346.346018 135.379968"/>
      </g>
      <g>
        <polyline style="fill: gray;stroke: black;stroke-width: 1;" points="64.193674 331.648054, 54.651402 331.648054 54.651402 331.648054, 21.78304 312.563002 21.78304 312.563002, 21.78304 174.728886 21.78304 174.728886, 54.651402 155.644596 54.651402 155.644596, 64.193674 155.644596 64.193674 155.644596, 64.193674 331.648054"/>
      </g>
      <g>
        <polyline style="fill: gray;stroke: black;stroke-width: 1;" points="375.260616 312.563002, 342.393016 331.648054 342.393016 331.648054, 332.849982 331.648054 332.849982 331.648054, 332.849982 155.644596 332.849982 155.644596, 342.393016 155.644596 342.393016 155.644596, 375.260616 174.728886 375.260616 174.728886, 375.260616 312.563002"/>
      </g>
      <g>
        <polyline style="fill: gray;stroke: black;stroke-width: 1;" points="384.21056 183.895746, 296.895774 183.895746 296.895774 183.895746, 264.512298 170.124374 264.512298 170.124374, 132.53212 170.124374 132.53212 170.124374, 100.148644 183.895746 100.148644 183.895746, 12.833096 183.895746 12.833096 183.895746, 2.54 207.191864 2.54 207.191864, 2.54 280.100786 2.54 280.100786, 12.833096 303.39538 12.833096 303.39538, 100.148644 303.39538 100.148644 303.39538, 132.53212 317.167514 132.53212 317.167514, 264.512298 317.167514 264.512298 317.167514, 296.895774 303.39538 296.895774 303.39538, 384.21056 303.39538 384.21056 303.39538, 394.504418 280.100786 394.504418 280.100786, 394.504418 207.191864 394.504418 207.191864, 384.21056 183.895746"/>
      </g>
      <g>
        <polyline style="fill: gray;stroke: black;stroke-width: 1;" points="349.628206 259.36321, 341.96655 259.36321 341.96655 259.36321, 341.96655 227.92944 341.96655 227.92944, 349.628206 227.92944 349.628206 227.92944, 349.628206 259.36321"/>
      </g>
      <g>
        <polyline style="fill: gray;stroke: black;stroke-width: 1;" points="349.628206 303.39538, 384.21056 303.39538 384.21056 303.39538, 394.504418 280.100786 394.504418 280.100786, 394.504418 207.191864 394.504418 207.191864, 384.21056 183.895746 384.21056 183.895746, 349.628206 183.895746 349.628206 183.895746, 349.628206 303.39538"/>
      </g>
      <g>
        <polyline style="fill: gray;stroke: black;stroke-width: 1;" points="47.416212 259.36321, 55.07863 259.36321 55.07863 259.36321, 55.07863 227.92944 55.07863 227.92944, 47.416212 227.92944 47.416212 227.92944, 47.416212 259.36321"/>
      </g>
      <g>
        <polyline style="fill: gray;stroke: black;stroke-width: 1;" points="47.416212 303.39538, 12.833096 303.39538 12.833096 303.39538, 2.54 280.100786 2.54 280.100786, 2.54 207.191864 2.54 207.191864, 12.833096 183.895746 12.833096 183.895746, 47.416212 183.895746 47.416212 183.895746, 47.416212 303.39538"/>
      </g>
      <g>
        <polyline style="fill: gray;stroke: black;stroke-width: 1;" points="296.453814 454.40854, 308.873144 452.752968 308.873144 452.752968, 318.397382 444.655702 318.397382 444.655702, 341.965788 401.58162 341.965788 401.58162, 341.965788 195.965572 341.965788 195.965572, 328.149458 195.965572 328.149458 195.965572, 323.96303 161.854388 323.96303 161.854388, 312.831226 108.165392 312.831226 108.165392, 298.079414 47.239682 298.079414 47.239682, 284.263084 40.73779 284.263084 40.73779, 276.9489 2.54 276.9489 2.54, 120.094756 2.54 120.094756 2.54, 112.780572 40.73779 112.780572 40.73779, 98.964242 47.239682 98.964242 47.239682, 84.21243 108.165392 84.21243 108.165392, 73.081388 161.854388 73.081388 161.854388, 68.89496 195.965572 68.89496 195.965572, 55.077868 195.965572 55.077868 195.965572, 55.077868 401.58162 55.077868 401.58162, 78.646274 444.655702 78.646274 444.655702, 88.170512 452.752968 88.170512 452.752968, 100.590604 454.40854 100.590604 454.40854, 296.453814 454.40854 296.453814 454.40854, 296.453814 454.40854"/>
      </g>
      <g>
        <polyline style="fill: gray;stroke: black;stroke-width: 1;" points="285.43758 447.190622, 299.045884 445.426338 299.045884 445.426338, 309.814214 437.845454 309.814214 437.845454, 330.129388 394.777468 330.129388 394.777468, 317.12789 201.787506 317.12789 201.787506, 284.228286 40.082724 284.228286 40.082724, 269.91056 40.082724 269.91056 40.082724, 269.91056 54.70906 269.91056 54.70906, 127.133858 54.729126 127.133858 54.729126, 127.133858 40.102028 127.133858 40.102028, 112.81537 40.102028 112.81537 40.102028, 79.916528 201.807064 79.916528 201.807064, 66.91503 394.797534 66.91503 394.797534, 87.230204 437.864758 87.230204 437.864758, 97.998534 445.445642 97.998534 445.445642, 111.607854 447.209926 111.607854 447.209926, 285.43758 447.190622 285.43758 447.190622, 285.43758 447.190622"/>
      </g>
      <g>
        <polyline style="fill: gray;stroke: black;stroke-width: 1;" points="68.89496 195.965572, 55.077868 401.58162 55.077868 401.58162, 55.077868 195.965572 55.077868 195.965572, 68.89496 195.965572"/>
      </g>
      <g>
        <polyline style="fill: gray;stroke: black;stroke-width: 1;" points="328.149458 195.965572, 341.965788 401.58162 341.965788 401.58162, 341.965788 195.965572 341.965788 195.965572, 328.149458 195.965572"/>
      </g>
      <g>
        <polyline style="fill: gray;stroke: black;stroke-width: 1;" points="312.02503 325.0057, 302.814736 395.434058 302.814736 395.434058, 285.479236 429.02251 285.479236 429.02251, 111.320072 429.02251 111.320072 429.02251, 93.984064 395.434058 93.984064 395.434058, 84.77377 325.0057 84.77377 325.0057, 132.714238 286.833564 132.714238 286.833564, 187.944252 225.91395 187.944252 225.91395, 226.248722 162.29076 226.248722 162.29076, 242.424458 119.139208 242.424458 119.139208, 272.220436 100.178362 272.220436 100.178362, 290.09848 114.263424 290.09848 114.263424, 301.873666 189.58687 301.873666 189.58687, 310.591708 270.37411 310.591708 270.37411, 312.02503 325.0057 312.02503 325.0057, 312.02503 325.0057"/>
      </g>
      <g>
        <polyline style="fill: gray;stroke: black;stroke-width: 1;" points="146.265392 447.206116, 131.592574 447.206116 131.592574 447.206116, 131.592574 311.461658 131.592574 311.461658, 146.265392 311.461658 146.265392 311.461658, 146.265392 447.206116"/>
      </g>
      <g>
        <polyline style="fill: gray;stroke: black;stroke-width: 1;" points="176.061878 447.206116, 161.389314 447.206116 161.389314 447.206116, 161.389314 311.461658 161.389314 311.461658, 176.061878 311.461658 176.061878 311.461658, 176.061878 447.206116"/>
      </g>
      <g>
        <polyline style="fill: gray;stroke: black;stroke-width: 1;" points="205.858618 447.206116, 191.1858 447.206116 191.1858 447.206116, 191.1858 311.461658 191.1858 311.461658, 205.858618 311.461658 205.858618 311.461658, 205.858618 447.206116"/>
      </g>
      <g>
        <polyline style="fill: gray;stroke: black;stroke-width: 1;" points="235.655104 447.206116, 220.98254 447.206116 220.98254 447.206116, 220.98254 311.461658 220.98254 311.461658, 235.655104 311.461658 235.655104 311.461658, 235.655104 447.206116"/>
      </g>
      <g>
        <polyline style="fill: gray;stroke: black;stroke-width: 1;" points="265.451082 447.206116, 250.779026 447.206116 250.779026 447.206116, 250.779026 311.461658 250.779026 311.461658, 265.451082 311.461658 265.451082 311.461658, 265.451082 447.206116"/>
      </g>
    </g>
  </g>
</svg>
