<?xml version="1.0" encoding="utf-8"?>
<!-- Generator: SVG Export - SVG Version: 6.00 Build 1  -->
<!-- FXGUID: [DCDB3050-C6AE-11E8-95CB-525400685065] SYMID: [14192]  -->
<svg xmlns="http://www.w3.org/2000/svg" version="1.1" ch_offset="0" color_bar_width="66" width="342.259666" height="333.439262" origin_x="166.063676" origin_y="194.314826" ch_offset_x="166.0067038" ch_offset_y="40" color_offset_x="166.063676" color_offset_y="-4">
  <g>
    <title>Layer 1</title>
    <g>
      <g>
        <polyline style="fill: gray;stroke: black;stroke-width: 1;" points="314.14593 184.284112, 295.689528 184.284112 295.689528 184.284112, 295.689528 188.847222 295.689528 188.847222, 291.024818 188.847222 291.024818 188.847222, 291.024818 184.385712 291.024818 184.385712, 283.926026 184.385712 283.926026 184.385712, 283.926026 162.886898 283.926026 162.886898, 278.450294 162.886898 278.450294 162.886898, 278.450294 170.391074 278.450294 170.391074, 273.785584 172.518832 273.785584 172.518832, 273.785584 169.27576 273.785584 169.27576, 255.667256 169.27576 255.667256 169.27576, 255.126236 219.57411 255.126236 219.57411, 273.785584 219.57411 273.785584 219.57411, 273.785584 216.331038 273.785584 216.331038, 278.450294 218.458796 278.450294 218.458796, 278.450294 225.962972 278.450294 225.962972, 283.926026 225.962972 283.926026 225.962972, 283.926026 204.464158 283.926026 204.464158, 291.024818 204.464158 291.024818 204.464158, 291.024818 200.002394 291.024818 200.002394, 295.689528 200.002394 295.689528 200.002394, 295.689528 204.565758 295.689528 204.565758, 314.14593 204.565758 314.14593 204.565758, 329.559666 199.089264 329.559666 199.089264, 329.559666 189.75959 329.559666 189.75959, 314.14593 184.284112"/>
      </g>
      <g>
        <polyline style="fill: gray;stroke: black;stroke-width: 1;" points="17.953736 184.284112, 36.410138 184.284112 36.410138 184.284112, 36.410138 188.847222 36.410138 188.847222, 41.074848 188.847222 41.074848 188.847222, 41.074848 184.385712 41.074848 184.385712, 48.17364 184.385712 48.17364 184.385712, 48.17364 162.886898 48.17364 162.886898, 53.649372 162.886898 53.649372 162.886898, 53.649372 170.391074 53.649372 170.391074, 58.314082 172.518832 58.314082 172.518832, 58.314082 169.27576 58.314082 169.27576, 76.43241 169.27576 76.43241 169.27576, 76.97343 219.57411 76.97343 219.57411, 58.314082 219.57411 58.314082 219.57411, 58.314082 216.331038 58.314082 216.331038, 53.649372 218.458796 53.649372 218.458796, 53.649372 225.962972 53.649372 225.962972, 48.17364 225.962972 48.17364 225.962972, 48.17364 204.464158 48.17364 204.464158, 41.074848 204.464158 41.074848 204.464158, 41.074848 200.002394 41.074848 200.002394, 36.410138 200.002394 36.410138 200.002394, 36.410138 204.565758 36.410138 204.565758, 17.953736 204.565758 17.953736 204.565758, 2.54 199.089264 2.54 199.089264, 2.54 189.75959 2.54 189.75959, 17.953736 184.284112"/>
      </g>
      <g>
        <polyline style="fill: gray;stroke: black;stroke-width: 1;" points="283.785564 216.330276, 47.965868 216.330276 47.965868 216.330276, 47.965868 172.519594 47.965868 172.519594, 283.785564 172.519594 283.785564 172.519594, 283.785564 216.330276"/>
      </g>
      <g>
        <polyline style="fill: gray;stroke: black;stroke-width: 1;" points="254.471932 3.351784, 254.471932 8.934196 254.471932 8.934196, 261.8994 8.934196 261.8994 8.934196, 261.8994 14.343126 261.8994 14.343126, 254.471932 14.343126 254.471932 14.343126, 254.471932 17.145508 254.471932 17.145508, 220.393514 17.145508 220.393514 17.145508, 220.393514 2.54 220.393514 2.54, 207.005174 2.54 207.005174 2.54, 204.571092 8.219694 204.571092 8.219694, 127.489712 8.219694 127.489712 8.219694, 125.055122 2.54 125.055122 2.54, 111.667544 2.54 111.667544 2.54, 111.667544 17.145508 111.667544 17.145508, 77.588872 17.145508 77.588872 17.145508, 77.588872 14.343126 77.588872 14.343126, 70.160642 14.343126 70.160642 14.343126, 70.160642 8.934196 70.160642 8.934196, 77.588872 8.934196 77.588872 8.934196, 77.588872 3.351784 77.588872 3.351784, 61.767466 3.351784 61.767466 3.351784, 61.767466 60.148216 61.767466 60.148216, 76.371958 170.497246 76.371958 170.497246, 77.588872 260.966966 77.588872 260.966966, 81.646014 268.675104 81.646014 268.675104, 81.24063 298.69638 81.24063 298.69638, 84.486242 303.970436 84.486242 303.970436, 92.194126 303.970436 92.194126 303.970436, 92.194126 316.547246 92.194126 316.547246, 106.393488 316.547246 106.393488 316.547246, 108.421932 320.603626 108.421932 320.603626, 223.638872 320.603626 223.638872 320.603626, 225.66757 316.547246 225.66757 316.547246, 239.866678 316.547246 239.866678 316.547246, 239.866678 303.970436 239.866678 303.970436, 247.574816 303.970436 247.574816 303.970436, 250.820174 298.69638 250.820174 298.69638, 250.41479 268.675104 250.41479 268.675104, 254.471932 260.966966 254.471932 260.966966, 255.688846 170.497246 255.688846 170.497246, 270.293592 60.148216 270.293592 60.148216, 270.293592 3.351784 270.293592 3.351784, 254.471932 3.351784"/>
      </g>
      <g>
        <polyline style="fill: gray;stroke: black;stroke-width: 1;" points="270.283432 17.317466, 270.283432 36.789106 270.283432 36.789106, 248.1072 36.789106 248.1072 36.789106, 248.1072 44.091098 248.1072 44.091098, 218.359482 44.091098 218.359482 44.091098, 209.976212 60.046616 209.976212 60.046616, 195.372482 60.046616 195.372482 60.046616, 136.68756 60.046616 136.68756 60.046616, 122.084592 60.046616 122.084592 60.046616, 113.701576 44.091098 113.701576 44.091098, 83.952842 44.091098 83.952842 44.091098, 83.952842 36.789106 83.952842 36.789106, 61.777626 36.789106 61.777626 36.789106, 61.777626 17.317466 61.777626 17.317466, 270.283432 17.317466"/>
      </g>
      <g>
        <polyline style="fill: gray;stroke: black;stroke-width: 1;" points="97.409508 298.832016, 86.861142 298.832016 86.861142 298.832016, 86.861142 156.433012 86.861142 156.433012, 61.826394 60.283852 61.826394 60.283852, 61.826394 36.654232 61.826394 36.654232, 84.01177 36.654232 84.01177 36.654232, 84.01177 43.956224 84.01177 43.956224, 97.544382 43.956224 97.544382 43.956224, 97.409508 298.832016"/>
      </g>
      <g>
        <polyline style="fill: gray;stroke: black;stroke-width: 1;" points="234.65155 298.832016, 245.199662 298.832016 245.199662 298.832016, 245.199662 156.433012 245.199662 156.433012, 270.234664 60.283852 270.234664 60.283852, 270.234664 36.654232 270.234664 36.654232, 248.048272 36.654232 248.048272 36.654232, 248.048272 43.956224 248.048272 43.956224, 234.516676 43.956224 234.516676 43.956224, 234.65155 298.832016"/>
      </g>
      <g>
        <polyline style="fill: gray;stroke: black;stroke-width: 1;" points="139.025376 320.739262, 126.881382 320.739262 126.881382 320.739262, 126.881382 60.12561 126.881382 60.12561, 139.025376 60.12561 139.025376 60.12561, 139.025376 320.739262"/>
      </g>
      <g>
        <polyline style="fill: gray;stroke: black;stroke-width: 1;" points="161.076894 320.739262, 148.931884 320.739262 148.931884 320.739262, 148.931884 60.12561 148.931884 60.12561, 161.076894 60.12561 161.076894 60.12561, 161.076894 320.739262"/>
      </g>
      <g>
        <polyline style="fill: gray;stroke: black;stroke-width: 1;" points="183.128158 320.739262, 170.98391 320.739262 170.98391 320.739262, 170.98391 60.12561 170.98391 60.12561, 183.128158 60.12561 183.128158 60.12561, 183.128158 320.739262"/>
      </g>
      <g>
        <polyline style="fill: gray;stroke: black;stroke-width: 1;" points="205.179676 320.739262, 193.035428 320.739262 193.035428 320.739262, 193.035428 60.12561 193.035428 60.12561, 205.179676 60.12561 205.179676 60.12561, 205.179676 320.739262"/>
      </g>
      <g>
        <line x1="80.48498" y1="298.842176" x2="250.264676" y2="298.842176" style="stroke-width: 1;stroke: black;"/>
      </g>
    </g>
  </g>
</svg>
