<?xml version="1.0" encoding="utf-8"?>
<!-- Generator: www.crescit.com, SVG Export - SVG Version: 6.00 Build 1  -->
<!-- FXGUID: [B11B4106-3E29-11ED-8A9F-525400685065] SYMID: [18368]  -->
<svg xmlns="http://www.w3.org/2000/svg" version="1.1" ch_offset="0" color_bar_width="66" width="403.2885" height="290.890706" origin_x="196.721222" origin_y="136.3345" ch_offset_x="196.9969644" ch_offset_y="40" color_offset_x="196.721222" color_offset_y="-4">
  <g>
    <title>Layer 1</title>
    <g>
      <g>
        <polyline style="fill: gray;stroke: black;stroke-width: 1;" points="28.261818 264.219436, 12.111482 253.075186 12.111482 253.075186, 4.62915 228.55809 4.62915 228.55809, 2.54 204.039978 2.54 204.039978, 2.572004 192.895728 2.572004 192.895728, 2.575052 162.64255 2.575052 162.64255, 2.578862 132.389372 2.578862 132.389372, 2.58191 102.136194 2.58191 102.136194, 2.58572 71.882254 2.58572 71.882254, 2.77114 61.048138 2.77114 61.048138, 5.141468 37.211508 5.141468 37.211508, 12.414758 13.374878 12.414758 13.374878, 27.31135 2.54 27.31135 2.54, 111.710978 2.54 111.710978 2.54, 196.111368 2.54 196.111368 2.54, 280.511504 2.54 280.511504 2.54, 364.911894 2.54 364.911894 2.54, 379.755908 11.975846 379.755908 11.975846, 387.378702 32.73425 387.378702 32.73425, 390.186926 53.492654 390.186926 53.492654, 390.5885 62.927738 390.5885 62.927738, 390.5885 99.541076 390.5885 99.541076, 390.5885 136.154414 390.5885 136.154414, 390.5885 172.766736 390.5885 172.766736, 390.5885 209.380074 390.5885 209.380074, 390.201658 217.94851 390.201658 217.94851, 387.49732 236.800136 387.49732 236.800136, 380.157482 255.651 380.157482 255.651, 365.86287 264.219436 365.86287 264.219436, 281.462734 264.219436 281.462734 264.219436, 197.062344 264.219436 197.062344 264.219436, 112.661954 264.219436 112.661954 264.219436, 28.261818 264.219436 28.261818 264.219436, 28.261818 264.219436"/>
      </g>
      <g>
        <polyline style="fill: gray;stroke: black;stroke-width: 1;" points="46.330362 77.509116, 46.204886 75.761088 46.204886 75.761088, 45.677074 73.923144 45.677074 73.923144, 44.525184 72.472042 44.525184 72.472042, 42.526712 71.882254 42.526712 71.882254, 37.705284 73.455022 37.705284 73.455022, 30.342332 77.866494 30.342332 77.866494, 23.603966 84.65439 23.603966 84.65439, 20.654518 93.359224 20.654518 93.359224, 20.654518 112.002316 20.654518 112.002316, 20.654518 141.22527 20.654518 141.22527, 20.654518 169.497248 20.654518 169.497248, 20.654518 185.287666 20.654518 185.287666, 23.066756 191.692022 23.066756 191.692022, 28.777184 198.363586 28.777184 198.363586, 35.498532 203.609194 35.498532 203.609194, 40.942514 205.733904 40.942514 205.733904, 44.057824 205.174088 44.057824 205.174088, 45.657516 203.75245 45.657516 203.75245, 46.246796 201.855832 46.246796 201.855832, 46.330362 199.869806 46.330362 199.869806, 46.330362 179.681124 46.330362 179.681124, 46.330362 137.738612 46.330362 137.738612, 46.330362 96.271334 46.330362 96.271334, 46.330362 77.509116 46.330362 77.509116, 46.330362 77.509116"/>
      </g>
      <g>
        <polyline style="fill: gray;stroke: black;stroke-width: 1;" points="349.69577 77.509116, 349.822008 75.761088 349.822008 75.761088, 350.34982 73.923144 350.34982 73.923144, 351.500948 72.472042 351.500948 72.472042, 353.49942 71.882254 353.49942 71.882254, 358.32161 73.455022 358.32161 73.455022, 365.684562 77.866494 365.684562 77.866494, 372.422928 84.65439 372.422928 84.65439, 375.372376 93.359224 375.372376 93.359224, 375.372376 112.002316 375.372376 112.002316, 375.372376 141.22527 375.372376 141.22527, 375.372376 169.497248 375.372376 169.497248, 375.372376 185.287666 375.372376 185.287666, 372.960138 191.692022 372.960138 191.692022, 367.248948 198.363586 367.248948 198.363586, 360.5276 203.609194 360.5276 203.609194, 355.08438 205.733904 355.08438 205.733904, 351.96907 205.174088 351.96907 205.174088, 350.369378 203.75245 350.369378 203.75245, 349.780098 201.855832 349.780098 201.855832, 349.69577 199.869806 349.69577 199.869806, 349.69577 179.681124 349.69577 179.681124, 349.69577 137.738612 349.69577 137.738612, 349.69577 96.271334 349.69577 96.271334, 349.69577 77.509116 349.69577 77.509116, 349.69577 77.509116"/>
      </g>
      <g>
        <polyline style="fill: gray;stroke: black;stroke-width: 1;" points="43.822366 192.866264, 34.788856 192.866264 34.788856 192.866264, 25.753568 192.866264 25.753568 192.866264, 16.719296 192.866264 16.719296 192.866264, 7.685024 192.866264 7.685024 192.866264, 7.685024 165.763448 7.685024 165.763448, 7.685024 138.660378 7.685024 138.660378, 7.685024 111.556546 7.685024 111.556546, 7.685024 84.453476 7.685024 84.453476, 16.719296 84.453476 16.719296 84.453476, 25.753568 84.453476 25.753568 84.453476, 34.788856 84.453476 34.788856 84.453476, 43.822366 84.453476 43.822366 84.453476, 43.822366 111.556546 43.822366 111.556546, 43.822366 138.660378 43.822366 138.660378, 43.822366 165.763448 43.822366 165.763448, 43.822366 192.866264 43.822366 192.866264, 43.822366 192.866264"/>
      </g>
      <g>
        <polyline style="fill: gray;stroke: black;stroke-width: 1;" points="382.373886 192.866264, 373.33936 192.866264 373.33936 192.866264, 364.305088 192.866264 364.305088 192.866264, 355.270816 192.866264 355.270816 192.866264, 346.236544 192.866264 346.236544 192.866264, 346.236544 165.763448 346.236544 165.763448, 346.236544 138.660378 346.236544 138.660378, 346.236544 111.556546 346.236544 111.556546, 346.236544 84.453476 346.236544 84.453476, 355.270816 84.453476 355.270816 84.453476, 364.305088 84.453476 364.305088 84.453476, 373.33936 84.453476 373.33936 84.453476, 382.373886 84.453476 382.373886 84.453476, 382.373886 111.556546 382.373886 111.556546, 382.373886 138.660378 382.373886 138.660378, 382.373886 165.763448 382.373886 165.763448, 382.373886 192.866264 382.373886 192.866264, 382.373886 192.866264"/>
      </g>
      <g>
        <polyline style="fill: gray;stroke: black;stroke-width: 1;" points="242.579144 84.453476, 241.034316 82.710274 241.034316 82.710274, 239.488726 80.966818 239.488726 80.966818, 237.943136 79.222854 237.943136 79.222854, 236.397292 77.479652 236.397292 77.479652, 216.307924 77.479652 216.307924 77.479652, 196.218556 77.479652 196.218556 77.479652, 176.128934 77.479652 176.128934 77.479652, 156.039566 77.479652 156.039566 77.479652, 154.57297 79.222854 154.57297 79.222854, 153.107136 80.966818 153.107136 80.966818, 151.64054 82.710274 151.64054 82.710274, 150.174706 84.453476 150.174706 84.453476, 123.586494 84.453476 123.586494 84.453476, 96.999044 84.453476 96.999044 84.453476, 70.410578 84.453476 70.410578 84.453476, 43.822366 84.453476 43.822366 84.453476, 43.822366 111.556546 43.822366 111.556546, 43.822366 138.660378 43.822366 138.660378, 43.822366 165.763448 43.822366 165.763448, 43.822366 192.866264 43.822366 192.866264, 70.410578 192.866264 70.410578 192.866264, 96.999044 192.866264 96.999044 192.866264, 123.586494 192.866264 123.586494 192.866264, 150.174706 192.866264 150.174706 192.866264, 151.64054 194.60972 151.64054 194.60972, 153.107136 196.353684 153.107136 196.353684, 154.57297 198.09714 154.57297 198.09714, 156.039566 199.840342 156.039566 199.840342, 176.128934 199.840342 176.128934 199.840342, 196.218556 199.840342 196.218556 199.840342, 216.307924 199.840342 216.307924 199.840342, 236.397292 199.840342 236.397292 199.840342, 237.943136 198.09714 237.943136 198.09714, 239.488726 196.353684 239.488726 196.353684, 241.034316 194.60972 241.034316 194.60972, 242.579144 192.866264 242.579144 192.866264, 268.494002 192.866264 268.494002 192.866264, 294.407844 192.866264 294.407844 192.866264, 320.322448 192.866264 320.322448 192.866264, 346.236544 192.866264 346.236544 192.866264, 346.236544 165.763448 346.236544 165.763448, 346.236544 138.660378 346.236544 138.660378, 346.236544 111.556546 346.236544 111.556546, 346.236544 84.453476 346.236544 84.453476, 320.322448 84.453476 320.322448 84.453476, 294.407844 84.453476 294.407844 84.453476, 268.494002 84.453476 268.494002 84.453476, 242.579144 84.453476 242.579144 84.453476, 242.579144 84.453476"/>
      </g>
      <g>
        <polyline style="fill: gray;stroke: black;stroke-width: 1;" points="43.822366 192.866264, 34.788856 192.866264 34.788856 192.866264, 25.753568 192.866264 25.753568 192.866264, 16.719296 192.866264 16.719296 192.866264, 7.685024 192.866264 7.685024 192.866264, 7.685024 165.763448 7.685024 165.763448, 7.685024 138.660378 7.685024 138.660378, 7.685024 111.556546 7.685024 111.556546, 7.685024 84.453476 7.685024 84.453476, 16.719296 84.453476 16.719296 84.453476, 25.753568 84.453476 25.753568 84.453476, 34.788856 84.453476 34.788856 84.453476, 43.822366 84.453476 43.822366 84.453476, 43.822366 111.556546 43.822366 111.556546, 43.822366 138.660378 43.822366 138.660378, 43.822366 165.763448 43.822366 165.763448, 43.822366 192.866264 43.822366 192.866264, 43.822366 192.866264"/>
      </g>
      <g>
        <polyline style="fill: gray;stroke: black;stroke-width: 1;" points="341.588598 24.959564, 341.588598 43.939968 341.588598 43.939968, 341.588598 86.933278 341.588598 86.933278, 341.588598 133.016498 341.588598 133.016498, 341.588598 161.26841 341.588598 161.26841, 340.002622 180.70449 340.002622 180.70449, 336.516218 207.391254 336.516218 207.391254, 333.02956 230.988108 333.02956 230.988108, 331.445108 241.151918 331.445108 241.151918, 326.56018 246.80799 326.56018 246.80799, 315.673994 259.29971 315.673994 259.29971, 304.43043 271.910556 304.43043 271.910556, 298.47667 277.923244 298.47667 277.923244, 283.802328 278.190706 283.802328 278.190706, 253.372366 278.161242 253.372366 278.161242, 223.299782 278.012398 223.299782 278.012398, 209.695034 277.923244 209.695034 277.923244, 203.68387 277.923244 203.68387 277.923244, 197.671944 277.923244 197.671944 277.923244, 191.660526 277.923244 191.660526 277.923244, 185.649362 277.923244 185.649362 277.923244, 172.043852 278.012398 172.043852 278.012398, 141.971268 278.161242 141.971268 278.161242, 111.542068 278.190706 111.542068 278.190706, 96.867218 277.923244 96.867218 277.923244, 90.913204 271.910556 90.913204 271.910556, 79.670402 259.29971 79.670402 259.29971, 68.783454 246.80799 68.783454 246.80799, 63.899288 241.151918 63.899288 241.151918, 62.314074 230.988108 62.314074 230.988108, 58.82767 207.391254 58.82767 207.391254, 55.341012 180.70449 55.341012 180.70449, 53.755798 161.26841 53.755798 161.26841, 53.755798 133.016498 53.755798 133.016498, 53.755798 86.933278 53.755798 86.933278, 53.755798 43.939968 53.755798 43.939968, 53.755798 24.959564 53.755798 24.959564, 125.714252 24.959564 125.714252 24.959564, 197.671944 24.959564 197.671944 24.959564, 269.630398 24.959564 269.630398 24.959564, 341.588598 24.959564 341.588598 24.959564, 341.588598 24.959564"/>
      </g>
      <g>
        <polyline style="fill: transparent;stroke: black;stroke-width: 1;" points="53.755798 166.341044, 125.662944 166.341044 125.662944 166.341044, 197.570344 166.341044 197.570344 166.341044, 269.47749 166.341044 269.47749 166.341044, 341.385652 166.341044"/>
      </g>
      <g>
        <polyline style="fill: transparent;stroke: black;stroke-width: 1;" points="53.755798 27.813, 125.662944 27.813 125.662944 27.813, 197.570344 27.813 197.570344 27.813, 269.47749 27.813 269.47749 27.813, 341.385652 27.813"/>
      </g>
      <g>
        <polyline style="fill: gray;stroke: black;stroke-width: 1;" points="133.00456 90.89517, 131.657344 90.89517 131.657344 90.89517, 130.310128 90.89517 130.310128 90.89517, 128.962912 90.89517 128.962912 90.89517, 127.615696 90.89517 127.615696 90.89517, 127.615696 76.789026 127.615696 76.789026, 127.615696 62.682882 127.615696 62.682882, 127.615696 48.575976 127.615696 48.575976, 127.615696 34.469832 127.615696 34.469832, 128.962912 34.469832 128.962912 34.469832, 130.310128 34.469832 130.310128 34.469832, 131.657344 34.469832 131.657344 34.469832, 133.00456 34.469832 133.00456 34.469832, 133.00456 48.575976 133.00456 48.575976, 133.00456 62.682882 133.00456 62.682882, 133.00456 76.789026 133.00456 76.789026, 133.00456 90.89517 133.00456 90.89517, 133.00456 90.89517"/>
      </g>
      <g>
        <polyline style="fill: gray;stroke: black;stroke-width: 1;" points="144.099026 90.89517, 142.752826 90.89517 142.752826 90.89517, 141.404848 90.89517 141.404848 90.89517, 140.057632 90.89517 140.057632 90.89517, 138.710416 90.89517 138.710416 90.89517, 138.710416 76.789026 138.710416 76.789026, 138.710416 62.682882 138.710416 62.682882, 138.710416 48.575976 138.710416 48.575976, 138.710416 34.469832 138.710416 34.469832, 140.057632 34.469832 140.057632 34.469832, 141.404848 34.469832 141.404848 34.469832, 142.752826 34.469832 142.752826 34.469832, 144.099026 34.469832 144.099026 34.469832, 144.099026 48.575976 144.099026 48.575976, 144.099026 62.682882 144.099026 62.682882, 144.099026 76.789026 144.099026 76.789026, 144.099026 90.89517 144.099026 90.89517, 144.099026 90.89517"/>
      </g>
      <g>
        <polyline style="fill: gray;stroke: black;stroke-width: 1;" points="155.193746 90.89517, 153.84653 90.89517 153.84653 90.89517, 152.499314 90.89517 152.499314 90.89517, 151.152098 90.89517 151.152098 90.89517, 149.804882 90.89517 149.804882 90.89517, 149.804882 76.789026 149.804882 76.789026, 149.804882 62.682882 149.804882 62.682882, 149.804882 48.575976 149.804882 48.575976, 149.804882 34.469832 149.804882 34.469832, 151.152098 34.469832 151.152098 34.469832, 152.499314 34.469832 152.499314 34.469832, 153.84653 34.469832 153.84653 34.469832, 155.193746 34.469832 155.193746 34.469832, 155.193746 48.575976 155.193746 48.575976, 155.193746 62.682882 155.193746 62.682882, 155.193746 76.789026 155.193746 76.789026, 155.193746 90.89517 155.193746 90.89517, 155.193746 90.89517"/>
      </g>
      <g>
        <polyline style="fill: gray;stroke: black;stroke-width: 1;" points="166.288466 90.89517, 164.94125 90.89517 164.94125 90.89517, 163.594796 90.89517 163.594796 90.89517, 162.24758 90.89517 162.24758 90.89517, 160.900364 90.89517 160.900364 90.89517, 160.900364 76.789026 160.900364 76.789026, 160.900364 62.682882 160.900364 62.682882, 160.900364 48.575976 160.900364 48.575976, 160.900364 34.469832 160.900364 34.469832, 162.24758 34.469832 162.24758 34.469832, 163.594796 34.469832 163.594796 34.469832, 164.94125 34.469832 164.94125 34.469832, 166.288466 34.469832 166.288466 34.469832, 166.288466 48.575976 166.288466 48.575976, 166.288466 62.682882 166.288466 62.682882, 166.288466 76.789026 166.288466 76.789026, 166.288466 90.89517 166.288466 90.89517, 166.288466 90.89517"/>
      </g>
      <g>
        <polyline style="fill: gray;stroke: black;stroke-width: 1;" points="177.383186 90.89517, 176.03597 90.89517 176.03597 90.89517, 174.688754 90.89517 174.688754 90.89517, 173.3423 90.89517 173.3423 90.89517, 171.994322 90.89517 171.994322 90.89517, 171.994322 76.789026 171.994322 76.789026, 171.994322 62.682882 171.994322 62.682882, 171.994322 48.575976 171.994322 48.575976, 171.994322 34.469832 171.994322 34.469832, 173.3423 34.469832 173.3423 34.469832, 174.688754 34.469832 174.688754 34.469832, 176.03597 34.469832 176.03597 34.469832, 177.383186 34.469832 177.383186 34.469832, 177.383186 48.575976 177.383186 48.575976, 177.383186 62.682882 177.383186 62.682882, 177.383186 76.789026 177.383186 76.789026, 177.383186 90.89517 177.383186 90.89517, 177.383186 90.89517"/>
      </g>
      <g>
        <polyline style="fill: gray;stroke: black;stroke-width: 1;" points="188.477906 90.89517, 187.13069 90.89517 187.13069 90.89517, 185.783474 90.89517 185.783474 90.89517, 184.43702 90.89517 184.43702 90.89517, 183.089804 90.89517 183.089804 90.89517, 183.089804 76.789026 183.089804 76.789026, 183.089804 62.682882 183.089804 62.682882, 183.089804 48.575976 183.089804 48.575976, 183.089804 34.469832 183.089804 34.469832, 184.43702 34.469832 184.43702 34.469832, 185.783474 34.469832 185.783474 34.469832, 187.13069 34.469832 187.13069 34.469832, 188.477906 34.469832 188.477906 34.469832, 188.477906 48.575976 188.477906 48.575976, 188.477906 62.682882 188.477906 62.682882, 188.477906 76.789026 188.477906 76.789026, 188.477906 90.89517 188.477906 90.89517, 188.477906 90.89517"/>
      </g>
      <g>
        <polyline style="fill: gray;stroke: black;stroke-width: 1;" points="199.573388 90.89517, 198.226172 90.89517 198.226172 90.89517, 196.878956 90.89517 196.878956 90.89517, 195.530978 90.89517 195.530978 90.89517, 194.184524 90.89517 194.184524 90.89517, 194.184524 76.789026 194.184524 76.789026, 194.184524 62.682882 194.184524 62.682882, 194.184524 48.575976 194.184524 48.575976, 194.184524 34.469832 194.184524 34.469832, 195.530978 34.469832 195.530978 34.469832, 196.878956 34.469832 196.878956 34.469832, 198.226172 34.469832 198.226172 34.469832, 199.573388 34.469832 199.573388 34.469832, 199.573388 48.575976 199.573388 48.575976, 199.573388 62.682882 199.573388 62.682882, 199.573388 76.789026 199.573388 76.789026, 199.573388 90.89517 199.573388 90.89517, 199.573388 90.89517"/>
      </g>
      <g>
        <polyline style="fill: gray;stroke: black;stroke-width: 1;" points="210.667854 90.89517, 209.320638 90.89517 209.320638 90.89517, 207.973676 90.89517 207.973676 90.89517, 206.625698 90.89517 206.625698 90.89517, 205.279244 90.89517 205.279244 90.89517, 205.279244 76.789026 205.279244 76.789026, 205.279244 62.682882 205.279244 62.682882, 205.279244 48.575976 205.279244 48.575976, 205.279244 34.469832 205.279244 34.469832, 206.625698 34.469832 206.625698 34.469832, 207.973676 34.469832 207.973676 34.469832, 209.320638 34.469832 209.320638 34.469832, 210.667854 34.469832 210.667854 34.469832, 210.667854 48.575976 210.667854 48.575976, 210.667854 62.682882 210.667854 62.682882, 210.667854 76.789026 210.667854 76.789026, 210.667854 90.89517 210.667854 90.89517, 210.667854 90.89517"/>
      </g>
      <g>
        <polyline style="fill: gray;stroke: black;stroke-width: 1;" points="221.761812 90.89517, 220.415358 90.89517 220.415358 90.89517, 219.06738 90.89517 219.06738 90.89517, 217.720164 90.89517 217.720164 90.89517, 216.372948 90.89517 216.372948 90.89517, 216.372948 76.789026 216.372948 76.789026, 216.372948 62.682882 216.372948 62.682882, 216.372948 48.575976 216.372948 48.575976, 216.372948 34.469832 216.372948 34.469832, 217.720164 34.469832 217.720164 34.469832, 219.06738 34.469832 219.06738 34.469832, 220.415358 34.469832 220.415358 34.469832, 221.761812 34.469832 221.761812 34.469832, 221.761812 48.575976 221.761812 48.575976, 221.761812 62.682882 221.761812 62.682882, 221.761812 76.789026 221.761812 76.789026, 221.761812 90.89517 221.761812 90.89517, 221.761812 90.89517"/>
      </g>
      <g>
        <polyline style="fill: gray;stroke: black;stroke-width: 1;" points="232.856532 90.89517, 231.510078 90.89517 231.510078 90.89517, 230.1621 90.89517 230.1621 90.89517, 228.814884 90.89517 228.814884 90.89517, 227.467668 90.89517 227.467668 90.89517, 227.467668 76.789026 227.467668 76.789026, 227.467668 62.682882 227.467668 62.682882, 227.467668 48.575976 227.467668 48.575976, 227.467668 34.469832 227.467668 34.469832, 228.814884 34.469832 228.814884 34.469832, 230.1621 34.469832 230.1621 34.469832, 231.510078 34.469832 231.510078 34.469832, 232.856532 34.469832 232.856532 34.469832, 232.856532 48.575976 232.856532 48.575976, 232.856532 62.682882 232.856532 62.682882, 232.856532 76.789026 232.856532 76.789026, 232.856532 90.89517 232.856532 90.89517, 232.856532 90.89517"/>
      </g>
      <g>
        <polyline style="fill: gray;stroke: black;stroke-width: 1;" points="243.952014 90.89517, 242.604036 90.89517 242.604036 90.89517, 241.257582 90.89517 241.257582 90.89517, 239.910366 90.89517 239.910366 90.89517, 238.56315 90.89517 238.56315 90.89517, 238.56315 76.789026 238.56315 76.789026, 238.56315 62.682882 238.56315 62.682882, 238.56315 48.575976 238.56315 48.575976, 238.56315 34.469832 238.56315 34.469832, 239.910366 34.469832 239.910366 34.469832, 241.257582 34.469832 241.257582 34.469832, 242.604036 34.469832 242.604036 34.469832, 243.952014 34.469832 243.952014 34.469832, 243.952014 48.575976 243.952014 48.575976, 243.952014 62.682882 243.952014 62.682882, 243.952014 76.789026 243.952014 76.789026, 243.952014 90.89517 243.952014 90.89517, 243.952014 90.89517"/>
      </g>
      <g>
        <polyline style="fill: gray;stroke: black;stroke-width: 1;" points="255.046734 90.89517, 253.698756 90.89517 253.698756 90.89517, 252.352302 90.89517 252.352302 90.89517, 251.005086 90.89517 251.005086 90.89517, 249.65787 90.89517 249.65787 90.89517, 249.65787 76.789026 249.65787 76.789026, 249.65787 62.682882 249.65787 62.682882, 249.65787 48.575976 249.65787 48.575976, 249.65787 34.469832 249.65787 34.469832, 251.005086 34.469832 251.005086 34.469832, 252.352302 34.469832 252.352302 34.469832, 253.698756 34.469832 253.698756 34.469832, 255.046734 34.469832 255.046734 34.469832, 255.046734 48.575976 255.046734 48.575976, 255.046734 62.682882 255.046734 62.682882, 255.046734 76.789026 255.046734 76.789026, 255.046734 90.89517 255.046734 90.89517, 255.046734 90.89517"/>
      </g>
      <g>
        <polyline style="fill: gray;stroke: black;stroke-width: 1;" points="266.141454 90.89517, 264.794238 90.89517 264.794238 90.89517, 263.447022 90.89517 263.447022 90.89517, 262.099806 90.89517 262.099806 90.89517, 260.75259 90.89517 260.75259 90.89517, 260.75259 76.789026 260.75259 76.789026, 260.75259 62.682882 260.75259 62.682882, 260.75259 48.575976 260.75259 48.575976, 260.75259 34.469832 260.75259 34.469832, 262.099806 34.469832 262.099806 34.469832, 263.447022 34.469832 263.447022 34.469832, 264.794238 34.469832 264.794238 34.469832, 266.141454 34.469832 266.141454 34.469832, 266.141454 48.575976 266.141454 48.575976, 266.141454 62.682882 266.141454 62.682882, 266.141454 76.789026 266.141454 76.789026, 266.141454 90.89517 266.141454 90.89517, 266.141454 90.89517"/>
      </g>
      <g>
        <polyline style="fill: gray;stroke: black;stroke-width: 1;" points="124.44603 170.460924, 161.138362 170.460924 161.138362 170.460924, 197.830694 170.460924 197.830694 170.460924, 234.523026 170.460924 234.523026 170.460924, 271.215358 170.460924 271.215358 170.460924, 270.42237 188.292232 270.42237 188.292232, 269.630398 206.123032 269.630398 206.123032, 268.83741 223.954594 268.83741 223.954594, 268.045184 241.78514 268.045184 241.78514, 257.584448 241.78514 257.584448 241.78514, 247.123204 241.78514 247.123204 241.78514, 236.662468 241.78514 236.662468 241.78514, 226.201986 241.78514 226.201986 241.78514, 225.646996 241.23015 225.646996 241.23015, 225.092006 240.675922 225.092006 240.675922, 224.537778 240.120932 224.537778 240.120932, 223.982788 239.566704 223.982788 239.566704, 210.985862 239.566704 210.985862 239.566704, 197.988936 239.566704 197.988936 239.566704, 184.991248 239.566704 184.991248 239.566704, 171.994322 239.566704 171.994322 239.566704, 171.439332 240.120932 171.439332 240.120932, 170.885104 240.675922 170.885104 240.675922, 170.330114 241.23015 170.330114 241.23015, 169.775886 241.78514 169.775886 241.78514, 159.235394 241.78514 159.235394 241.78514, 148.695664 241.78514 148.695664 241.78514, 138.156188 241.78514 138.156188 241.78514, 127.615696 241.78514 127.615696 241.78514, 126.822708 223.954594 126.822708 223.954594, 126.030482 206.123032 126.030482 206.123032, 125.238256 188.292232 125.238256 188.292232, 124.44603 170.460924 124.44603 170.460924, 124.44603 170.460924"/>
      </g>
      <g>
        <polyline style="fill: gray;stroke: black;stroke-width: 1;" points="47.415958 162.219386, 49.000918 162.219386 49.000918 162.219386, 50.58537 162.219386 50.58537 162.219386, 52.170584 162.219386 52.170584 162.219386, 53.755798 162.219386 53.755798 162.219386, 53.755798 149.380702 53.755798 149.380702, 53.755798 136.54278 53.755798 136.54278, 53.755798 123.704096 53.755798 123.704096, 53.755798 110.86592 53.755798 110.86592, 52.170584 110.86592 52.170584 110.86592, 50.58537 110.86592 50.58537 110.86592, 49.000918 110.86592 49.000918 110.86592, 47.415958 110.86592 47.415958 110.86592, 47.415958 123.704096 47.415958 123.704096, 47.415958 136.54278 47.415958 136.54278, 47.415958 149.380702 47.415958 149.380702, 47.415958 162.219386 47.415958 162.219386, 47.415958 162.219386"/>
      </g>
      <g>
        <polyline style="fill: gray;stroke: black;stroke-width: 1;" points="341.588598 162.219386, 343.17305 162.219386 343.17305 162.219386, 344.759026 162.219386 344.759026 162.219386, 346.343478 162.219386 346.343478 162.219386, 347.92793 162.219386 347.92793 162.219386, 347.92793 149.380702 347.92793 149.380702, 347.92793 136.54278 347.92793 136.54278, 347.92793 123.704096 347.92793 123.704096, 347.92793 110.86592 347.92793 110.86592, 346.343478 110.86592 346.343478 110.86592, 344.759026 110.86592 344.759026 110.86592, 343.17305 110.86592 343.17305 110.86592, 341.588598 110.86592 341.588598 110.86592, 341.588598 123.704096 341.588598 123.704096, 341.588598 136.54278 341.588598 136.54278, 341.588598 149.380702 341.588598 149.380702, 341.588598 162.219386 341.588598 162.219386, 341.588598 162.219386"/>
      </g>
    </g>
  </g>
</svg>
