<?xml version="1.0" encoding="utf-8"?>
<!-- Generator: SVG Export - SVG Version: 6.00 Build 1  -->
<!-- FXGUID: [2F87B38D-519C-11E7-A747-525400685065] SYMID: [9536]  -->
<svg xmlns="http://www.w3.org/2000/svg" version="1.1" ch_offset="0" color_bar_width="66" width="231.403906" height="291.895022" origin_x="110.221776" origin_y="178.468528" ch_offset_x="110.221776" ch_offset_y="40" color_offset_x="110.221776" color_offset_y="-4" fxtype_offset_x="110.221776" fxtype_offset_y="178.468528" fxtype_offset_value="colorMSolo">
  <g>
    <title>Layer 1</title>
    <g>
      <g>
        <polyline style="fill: gray;stroke: black;stroke-width: 1;" points="28.865576 15.375128, 28.865576 229.268528 28.865576 229.268528, 187.615576 231.808528 187.615576 231.808528, 186.116976 234.526328 186.116976 234.526328, 184.516776 237.193328 184.516776 237.193328, 182.840376 239.809528 182.840376 239.809528, 181.036976 242.349528 181.036976 242.349528, 179.182776 244.838728 179.182776 244.838728, 177.226976 247.277128 177.226976 247.277128, 175.194976 249.613928 175.194976 249.613928, 173.061376 251.899928 173.061376 251.899928, 170.876976 254.109728 170.876976 254.109728, 168.616376 256.217928 168.616376 256.217928, 166.254176 258.275328 166.254176 258.275328, 163.841176 260.231128 163.841176 260.231128, 161.351976 262.110728 161.351976 262.110728, 158.811976 263.888728 158.811976 263.888728, 156.221176 265.590528 156.221176 265.590528, 153.554176 267.190728 153.554176 267.190728, 150.836376 268.714728 150.836376 268.714728, 148.067776 270.111728 148.067776 270.111728, 145.248376 271.432528 145.248376 271.432528, 142.378176 272.651728 142.378176 272.651728, 139.482576 273.769328 139.482576 273.769328, 136.536176 274.785328 136.536176 274.785328, 133.564376 275.699728 133.564376 275.699728, 130.567176 276.512528 130.567176 276.512528, 127.544576 277.223728 127.544576 277.223728, 124.496576 277.807928 124.496576 277.807928, 121.423176 278.315928 121.423176 278.315928, 118.324376 278.696928 118.324376 278.696928, 115.225576 278.976328 115.225576 278.976328, 112.126776 279.128728 112.126776 279.128728, 109.027976 279.204928 109.027976 279.204928, 105.903776 279.154128 105.903776 279.154128, 102.804976 278.976328 102.804976 278.976328, 99.706176 278.722328 99.706176 278.722328, 96.607376 278.341328 96.607376 278.341328, 93.533976 277.858728 93.533976 277.858728, 90.485976 277.274528 90.485976 277.274528, 87.463376 276.588728 87.463376 276.588728, 84.440776 275.775928 84.440776 275.775928, 81.468976 274.861528 81.468976 274.861528, 78.522576 273.870928 78.522576 273.870928, 75.626976 272.753328 75.626976 272.753328, 72.756776 271.534128 72.756776 271.534128, 69.937376 270.238728 69.937376 270.238728, 67.168776 268.816328 67.168776 268.816328, 64.450976 267.317728 64.450976 267.317728, 61.783976 265.717528 61.783976 265.717528, 59.167776 264.041128 59.167776 264.041128, 56.627776 262.263128 56.627776 262.263128, 54.138576 260.383528 54.138576 260.383528, 51.700176 258.427728 51.700176 258.427728, 49.363376 256.395728 49.363376 256.395728, 47.077376 254.287528 47.077376 254.287528, 44.892976 252.077728 44.892976 252.077728, 42.759376 249.817128 42.759376 249.817128, 40.701976 247.454928 40.701976 247.454928, 38.746176 245.041928 38.746176 245.041928, 36.866576 242.578128 36.866576 242.578128, 35.088576 240.012728 35.088576 240.012728, 33.386776 237.421928 33.386776 237.421928, 31.786576 234.754928 31.786576 234.754928, 30.287976 232.037128 30.287976 232.037128, 28.865576 229.268528 28.865576 229.268528, 187.615576 231.808528 187.615576 231.808528, 188.910976 229.268528 188.910976 229.268528, 188.910976 15.375128"/>
      </g>
      <g>
        <polyline style="fill: gray;stroke: black;stroke-width: 1;" points="204.481176 126.779528, 217.816176 126.779528 217.816176 126.779528, 218.705176 127.668528 218.705176 127.668528, 218.705176 204.325728 218.705176 204.325728, 216.927176 205.214728 216.927176 205.214728, 203.592176 205.214728 203.592176 205.214728, 203.592176 179.357528 203.592176 179.357528, 201.814176 178.468528 201.814176 178.468528, 188.479176 178.468528 188.479176 178.468528, 188.479176 153.525728 188.479176 153.525728, 200.925176 153.525728 200.925176 153.525728, 202.703176 153.525728 202.703176 153.525728, 202.703176 127.668528"/>
      </g>
      <g>
        <line x1="28.860242" y1="15.373858" x2="28.860242" y2="229.268528" style="stroke-width: 1;stroke: black;"/>
      </g>
      <g>
        <line x1="188.915802" y1="15.373858" x2="188.915802" y2="229.268528" style="stroke-width: 1;stroke: black;"/>
      </g>
      <g>
        <path stroke-linecap="round" fill-opacity="0" d="M188.91557172959 228.26883906976 A 89.10193 0 0 1 28.860109603653 228.26820198745"/>
      </g>
      <g>
        <line x1="28.504642" y1="15.373858" x2="187.670948" y2="15.373858" style="stroke-width: 1;stroke: black;"/>
      </g>
      <g>
        <line x1="2.54" y1="13.769594" x2="2.54" y2="2.54" style="stroke-width: 1;stroke: black;"/>
      </g>
      <g>
        <line x1="2.54" y1="3.074924" x2="28.682442" y2="3.074924" style="stroke-width: 1;stroke: black;"/>
      </g>
      <g>
        <line x1="190.87211" y1="14.304264" x2="216.480898" y2="14.304264" style="stroke-width: 1;stroke: black;"/>
      </g>
      <g>
        <line x1="217.014552" y1="14.304264" x2="217.014552" y2="3.074924" style="stroke-width: 1;stroke: black;"/>
      </g>
      <g>
        <line x1="28.148788" y1="41.041066" x2="28.148788" y2="14.838934" style="stroke-width: 1;stroke: black;"/>
      </g>
      <g>
        <line x1="188.471048" y1="153.5141202" x2="200.919842" y2="153.5141202" style="stroke-width: 1;stroke: black;"/>
      </g>
      <g>
        <line x1="202.69835" y1="153.5141202" x2="202.69835" y2="127.668528" style="stroke-width: 1;stroke: black;"/>
      </g>
      <g>
        <line x1="204.476604" y1="126.777242" x2="217.814652" y2="126.777242" style="stroke-width: 1;stroke: black;"/>
      </g>
      <g>
        <line x1="218.703906" y1="127.668528" x2="218.703906" y2="204.314044" style="stroke-width: 1;stroke: black;"/>
      </g>
      <g>
        <line x1="216.925398" y1="205.20533" x2="203.587604" y2="205.20533" style="stroke-width: 1;stroke: black;"/>
      </g>
      <g>
        <line x1="203.587604" y1="205.20533" x2="203.587604" y2="179.3597378" style="stroke-width: 1;stroke: black;"/>
      </g>
      <g>
        <line x1="201.809096" y1="178.468528" x2="188.471048" y2="178.468528" style="stroke-width: 1;stroke: black;"/>
      </g>
      <g>
        <line x1="189.805056" y1="41.041066" x2="189.805056" y2="15.373858" style="stroke-width: 1;stroke: black;"/>
      </g>
      <g>
        <line x1="27.081734" y1="13.769594" x2="3.0734" y2="13.769594" style="stroke-width: 1;stroke: black;"/>
      </g>
      <g>
        <line x1="217.014552" y1="3.074924" x2="191.40551" y2="3.074924" style="stroke-width: 1;stroke: black;"/>
      </g>
    </g>
  </g>
</svg>
