<?xml version="1.0" encoding="utf-8"?>
<!-- Generator: SVG Export - SVG Version: 6.00 Build 1  -->
<!-- FXGUID: [9741C9DF-82A6-11ED-9BEA-525400685065] SYMID: [18484]  -->
<svg xmlns="http://www.w3.org/2000/svg" version="1.1" ch_offset="0" color_bar_width="66" width="331.639926" height="173.473872" origin_x="160.513014" origin_y="58.138568" ch_offset_x="160.5848706" ch_offset_y="40" color_offset_x="160.513014" color_offset_y="-4">
  <g>
    <title>Layer 1</title>
    <g>
      <g>
        <polyline style="fill: gray;stroke: black;stroke-width: 1;" points="19.215608 68.424552, 17.131284 68.424552 17.131284 68.424552, 15.04696 68.424552 15.04696 68.424552, 12.961874 68.424552 12.961874 68.424552, 10.877296 68.424552 10.877296 68.424552, 8.792972 68.424552 8.792972 68.424552, 6.708648 68.424552 6.708648 68.424552, 4.624324 68.424552 4.624324 68.424552, 2.54 68.424552 2.54 68.424552, 2.54 65.786762 2.54 65.786762, 2.54 63.149734 2.54 63.149734, 2.54 60.512452 2.54 60.512452, 2.54 57.875424 2.54 57.875424, 2.54 55.237634 2.54 55.237634, 2.54 52.600606 2.54 52.600606, 2.54 49.963578 2.54 49.963578, 2.54 47.325788 2.54 47.325788, 4.624324 47.325788 4.624324 47.325788, 6.708648 47.325788 6.708648 47.325788, 8.792972 47.325788 8.792972 47.325788, 10.877296 47.325788 10.877296 47.325788, 12.961874 47.325788 12.961874 47.325788, 15.04696 47.325788 15.04696 47.325788, 17.131284 47.325788 17.131284 47.325788, 19.215608 47.325788 19.215608 47.325788, 19.215608 49.963578 19.215608 49.963578, 19.215608 52.600606 19.215608 52.600606, 19.215608 55.237634 19.215608 55.237634, 19.215608 57.875424 19.215608 57.875424, 19.215608 60.512452 19.215608 60.512452, 19.215608 63.149734 19.215608 63.149734, 19.215608 65.786762 19.215608 65.786762, 19.215608 68.424552 19.215608 68.424552, 19.215608 68.424552"/>
      </g>
      <g>
        <polyline style="fill: gray;stroke: black;stroke-width: 1;" points="302.264318 68.424552, 304.348642 68.424552 304.348642 68.424552, 306.432966 68.424552 306.432966 68.424552, 308.51729 68.424552 308.51729 68.424552, 310.601868 68.424552 310.601868 68.424552, 312.686192 68.424552 312.686192 68.424552, 314.771278 68.424552 314.771278 68.424552, 316.855602 68.424552 316.855602 68.424552, 318.939926 68.424552 318.939926 68.424552, 318.939926 65.786762 318.939926 65.786762, 318.939926 63.149734 318.939926 63.149734, 318.939926 60.512452 318.939926 60.512452, 318.939926 57.875424 318.939926 57.875424, 318.939926 55.237634 318.939926 55.237634, 318.939926 52.600606 318.939926 52.600606, 318.939926 49.963578 318.939926 49.963578, 318.939926 47.325788 318.939926 47.325788, 316.855602 47.325788 316.855602 47.325788, 314.771278 47.325788 314.771278 47.325788, 312.686192 47.325788 312.686192 47.325788, 310.601868 47.325788 310.601868 47.325788, 308.51729 47.325788 308.51729 47.325788, 306.432966 47.325788 306.432966 47.325788, 304.348642 47.325788 304.348642 47.325788, 302.264318 47.325788 302.264318 47.325788, 302.264318 49.963578 302.264318 49.963578, 302.264318 52.600606 302.264318 52.600606, 302.264318 55.237634 302.264318 55.237634, 302.264318 57.875424 302.264318 57.875424, 302.264318 60.512452 302.264318 60.512452, 302.264318 63.149734 302.264318 63.149734, 302.264318 65.786762 302.264318 65.786762, 302.264318 68.424552 302.264318 68.424552, 302.264318 68.424552"/>
      </g>
      <g>
        <polyline style="fill: gray;stroke: black;stroke-width: 1;" points="293.926006 64.64554, 294.968676 64.64554 294.968676 64.64554, 296.01033 64.64554 296.01033 64.64554, 297.053 64.64554 297.053 64.64554, 298.094654 64.64554 298.094654 64.64554, 299.137324 64.64554 299.137324 64.64554, 300.179994 64.64554 300.179994 64.64554, 301.221648 64.64554 301.221648 64.64554, 302.264318 64.64554 302.264318 64.64554, 302.264318 62.874398 302.264318 62.874398, 302.264318 61.103256 302.264318 61.103256, 302.264318 59.332114 302.264318 59.332114, 302.264318 57.560718 302.264318 57.560718, 302.264318 55.789576 302.264318 55.789576, 302.264318 54.018434 302.264318 54.018434, 302.264318 52.247292 302.264318 52.247292, 302.264318 50.475896 302.264318 50.475896, 301.221648 50.475896 301.221648 50.475896, 300.179994 50.475896 300.179994 50.475896, 299.137324 50.475896 299.137324 50.475896, 298.094654 50.475896 298.094654 50.475896, 297.053 50.475896 297.053 50.475896, 296.01033 50.475896 296.01033 50.475896, 294.968676 50.475896 294.968676 50.475896, 293.926006 50.475896 293.926006 50.475896, 293.926006 52.247292 293.926006 52.247292, 293.926006 54.018434 293.926006 54.018434, 293.926006 55.789576 293.926006 55.789576, 293.926006 57.560718 293.926006 57.560718, 293.926006 59.332114 293.926006 59.332114, 293.926006 61.103256 293.926006 61.103256, 293.926006 62.874398 293.926006 62.874398, 293.926006 64.64554 293.926006 64.64554, 293.926006 64.64554"/>
      </g>
      <g>
        <polyline style="fill: gray;stroke: black;stroke-width: 1;" points="293.926006 73.462896, 260.629654 73.462896 260.629654 73.462896, 227.333302 73.462896 227.333302 73.462896, 194.035934 73.462896 194.035934 73.462896, 160.739582 73.462896 160.739582 73.462896, 127.44323 73.462896 127.44323 73.462896, 94.146624 73.462896 94.146624 73.462896, 60.850272 73.462896 60.850272 73.462896, 27.553158 73.462896 27.553158 73.462896, 27.553158 69.56552 27.553158 69.56552, 27.553158 65.668906 27.553158 65.668906, 27.553158 61.772292 27.553158 61.772292, 27.553158 57.875424 27.553158 57.875424, 27.553158 53.978048 27.553158 53.978048, 27.553158 50.081434 27.553158 50.081434, 27.553158 46.18482 27.553158 46.18482, 27.553158 42.28719 27.553158 42.28719, 60.850272 42.28719 60.850272 42.28719, 94.146624 42.28719 94.146624 42.28719, 127.44323 42.28719 127.44323 42.28719, 160.739582 42.28719 160.739582 42.28719, 194.035934 42.28719 194.035934 42.28719, 227.333302 42.28719 227.333302 42.28719, 260.629654 42.28719 260.629654 42.28719, 293.926006 42.28719 293.926006 42.28719, 293.926006 46.18482 293.926006 46.18482, 293.926006 50.081434 293.926006 50.081434, 293.926006 53.978048 293.926006 53.978048, 293.926006 57.875424 293.926006 57.875424, 293.926006 61.772292 293.926006 61.772292, 293.926006 65.668906 293.926006 65.668906, 293.926006 69.56552 293.926006 69.56552, 293.926006 73.462896 293.926006 73.462896, 293.926006 73.462896"/>
      </g>
      <g>
        <polyline style="fill: gray;stroke: black;stroke-width: 1;" points="27.553158 64.64554, 26.51125 64.64554 26.51125 64.64554, 25.468834 64.64554 25.468834 64.64554, 24.426926 64.64554 24.426926 64.64554, 23.384256 64.64554 23.384256 64.64554, 22.342602 64.64554 22.342602 64.64554, 21.299932 64.64554 21.299932 64.64554, 20.257516 64.64554 20.257516 64.64554, 19.215608 64.64554 19.215608 64.64554, 19.215608 62.874398 19.215608 62.874398, 19.215608 61.103256 19.215608 61.103256, 19.215608 59.332114 19.215608 59.332114, 19.215608 57.560718 19.215608 57.560718, 19.215608 55.789576 19.215608 55.789576, 19.215608 54.018434 19.215608 54.018434, 19.215608 52.247292 19.215608 52.247292, 19.215608 50.475896 19.215608 50.475896, 20.257516 50.475896 20.257516 50.475896, 21.299932 50.475896 21.299932 50.475896, 22.342602 50.475896 22.342602 50.475896, 23.384256 50.475896 23.384256 50.475896, 24.426926 50.475896 24.426926 50.475896, 25.468834 50.475896 25.468834 50.475896, 26.51125 50.475896 26.51125 50.475896, 27.553158 50.475896 27.553158 50.475896, 27.553158 52.247292 27.553158 52.247292, 27.553158 54.018434 27.553158 54.018434, 27.553158 55.789576 27.553158 55.789576, 27.553158 57.560718 27.553158 57.560718, 27.553158 59.332114 27.553158 59.332114, 27.553158 61.103256 27.553158 61.103256, 27.553158 62.874398 27.553158 62.874398, 27.553158 64.64554 27.553158 64.64554, 27.553158 64.64554"/>
      </g>
      <g>
        <polyline style="fill: gray;stroke: black;stroke-width: 1;" points="163.42233 57.560718, 163.278058 58.988706 163.278058 58.988706, 162.865816 60.31865 162.865816 60.31865, 162.212274 61.521848 162.212274 61.521848, 161.347404 62.570614 161.347404 62.570614, 160.298638 63.435738 160.298638 63.435738, 159.09544 64.089026 159.09544 64.089026, 157.765242 64.501522 157.765242 64.501522, 156.337508 64.64554 156.337508 64.64554, 154.909774 64.501522 154.909774 64.501522, 153.579576 64.089026 153.579576 64.089026, 152.375616 63.435738 152.375616 63.435738, 151.327866 62.570614 151.327866 62.570614, 150.462742 61.521848 150.462742 61.521848, 149.808438 60.31865 149.808438 60.31865, 149.396196 58.988706 149.396196 58.988706, 149.251924 57.560718 149.251924 57.560718, 149.396196 56.132984 149.396196 56.132984, 149.808438 54.802786 149.808438 54.802786, 150.462742 53.59908 150.462742 53.59908, 151.327866 52.551076 151.327866 52.551076, 152.375616 51.685952 152.375616 51.685952, 153.579576 51.03241 153.579576 51.03241, 154.909774 50.619406 154.909774 50.619406, 156.337508 50.475896 156.337508 50.475896, 157.765242 50.619406 157.765242 50.619406, 159.09544 51.03241 159.09544 51.03241, 160.298638 51.685952 160.298638 51.685952, 161.347404 52.551076 161.347404 52.551076, 162.212274 53.59908 162.212274 53.59908, 162.865816 54.802786 162.865816 54.802786, 163.278058 56.132984 163.278058 56.132984, 163.42233 57.560718 163.42233 57.560718, 163.42233 57.560718"/>
      </g>
      <g>
        <polyline style="fill: transparent;stroke: black;stroke-width: 1;" points="290.511738 42.587926, 290.911026 42.587926 290.911026 42.587926, 291.310314 42.587926 291.310314 42.587926, 291.709348 42.587926 291.709348 42.587926, 292.108636 42.587926 292.108636 42.587926, 292.508686 42.587926 292.508686 42.587926, 292.906958 42.587926 292.906958 42.587926, 293.307008 42.587926 293.307008 42.587926, 293.705534 42.587926 293.705534 42.587926, 293.705534 46.485556 293.705534 46.485556, 293.705534 50.38217 293.705534 50.38217, 293.705534 54.278784 293.705534 54.278784, 293.705534 58.17616 293.705534 58.17616, 293.705534 62.072774 293.705534 62.072774, 293.705534 65.969642 293.705534 65.969642, 293.705534 69.866256 293.705534 69.866256, 293.705534 73.763632 293.705534 73.763632, 293.307008 73.763632 293.307008 73.763632, 292.906958 73.763632 292.906958 73.763632, 292.508686 73.763632 292.508686 73.763632, 292.108636 73.763632 292.108636 73.763632, 291.709348 73.763632 291.709348 73.763632, 291.310314 73.763632 291.310314 73.763632, 290.911026 73.763632 290.911026 73.763632, 290.511738 73.763632"/>
      </g>
      <g>
        <polyline style="fill: transparent;stroke: black;stroke-width: 1;" points="30.926786 42.587926, 30.527752 42.587926 30.527752 42.587926, 30.128464 42.587926 30.128464 42.587926, 29.729176 42.587926 29.729176 42.587926, 29.330142 42.587926 29.330142 42.587926, 28.930854 42.587926 28.930854 42.587926, 28.531566 42.587926 28.531566 42.587926, 28.132532 42.587926 28.132532 42.587926, 27.732482 42.587926 27.732482 42.587926, 27.732482 46.485556 27.732482 46.485556, 27.732482 50.38217 27.732482 50.38217, 27.732482 54.278784 27.732482 54.278784, 27.732482 58.17616 27.732482 58.17616, 27.732482 62.072774 27.732482 62.072774, 27.732482 65.969642 27.732482 65.969642, 27.732482 69.866256 27.732482 69.866256, 27.732482 73.763632 27.732482 73.763632, 28.132532 73.763632 28.132532 73.763632, 28.531566 73.763632 28.531566 73.763632, 28.930854 73.763632 28.930854 73.763632, 29.330142 73.763632 29.330142 73.763632, 29.729176 73.763632 29.729176 73.763632, 30.128464 73.763632 30.128464 73.763632, 30.527752 73.763632 30.527752 73.763632, 30.926786 73.763632"/>
      </g>
      <g>
        <polyline style="fill: gray;stroke: black;stroke-width: 1;" points="256.453386 160.773872, 265.381486 157.13837 265.381486 157.13837, 272.721324 147.336002 272.721324 147.336002, 278.597868 133.017514 278.597868 133.017514, 283.12999 115.834668 283.12999 115.834668, 286.443166 97.44202 286.443166 97.44202, 288.657792 79.491332 288.657792 79.491332, 289.897058 63.634112 289.897058 63.634112, 290.282376 51.5239 290.282376 51.5239, 290.282376 42.00271 290.282376 42.00271, 290.282376 32.97301 290.282376 32.97301, 290.282376 24.67356 290.282376 24.67356, 290.282376 17.345406 290.282376 17.345406, 290.282376 11.227816 290.282376 11.227816, 290.282376 6.561582 290.282376 6.561582, 290.282376 3.585718 290.282376 3.585718, 290.282376 2.54 290.282376 2.54, 287.175702 2.54 287.175702 2.54, 284.068774 2.54 284.068774 2.54, 280.9621 2.54 280.9621 2.54, 277.855172 2.54 277.855172 2.54, 274.748498 2.54 274.748498 2.54, 271.64157 2.54 271.64157 2.54, 268.534896 2.54 268.534896 2.54, 265.427206 2.54 265.427206 2.54, 265.427206 3.453892 265.427206 3.453892, 265.427206 4.368546 265.427206 4.368546, 265.427206 5.282438 265.427206 5.282438, 265.427206 6.19633 265.427206 6.19633, 265.427206 7.111238 265.427206 7.111238, 265.427206 8.02513 265.427206 8.02513, 265.427206 8.939022 265.427206 8.939022, 265.427206 9.852914 265.427206 9.852914, 267.20927 9.852914 267.20927 9.852914, 268.991334 9.852914 268.991334 9.852914, 270.773398 9.852914 270.773398 9.852914, 272.5547 9.852914 272.5547 9.852914, 274.337526 9.852914 274.337526 9.852914, 276.118828 9.852914 276.118828 9.852914, 277.900892 9.852914 277.900892 9.852914, 279.682956 9.852914 279.682956 9.852914, 279.682956 10.812526 279.682956 10.812526, 279.682956 11.772138 279.682956 11.772138, 279.682956 12.73175 279.682956 12.73175, 279.682956 13.691362 279.682956 13.691362, 279.682956 14.650974 279.682956 14.650974, 279.682956 15.609824 279.682956 15.609824, 279.682956 16.569436 279.682956 16.569436, 279.682956 17.529048 279.682956 17.529048, 269.037054 17.529048 269.037054 17.529048, 258.390644 17.529048 258.390644 17.529048, 247.744742 17.529048 247.744742 17.529048, 237.098078 17.529048 237.098078 17.529048, 226.452176 17.529048 226.452176 17.529048, 215.806274 17.529048 215.806274 17.529048, 205.15961 17.529048 205.15961 17.529048, 194.512946 17.529048 194.512946 17.529048, 194.512946 15.884144 194.512946 15.884144, 194.512946 14.23924 194.512946 14.23924, 194.512946 12.59459 194.512946 12.59459, 194.512946 10.949686 194.512946 10.949686, 194.512946 9.304782 194.512946 9.304782, 194.512946 7.659878 194.512946 7.659878, 194.512946 6.014974 194.512946 6.014974, 194.512946 4.370324 194.512946 4.370324, 190.975996 4.370324 190.975996 4.370324, 187.437522 4.370324 187.437522 4.370324, 183.89981 4.370324 183.89981 4.370324, 180.361844 4.370324 180.361844 4.370324, 176.824132 4.370324 176.824132 4.370324, 173.28642 4.370324 173.28642 4.370324, 169.748708 4.370324 169.748708 4.370324, 166.20998 4.370324 166.20998 4.370324, 164.721032 4.370324 164.721032 4.370324, 163.232084 4.370324 163.232084 4.370324, 161.74212 4.370324 161.74212 4.370324, 160.253172 4.370324 160.253172 4.370324, 158.763208 4.370324 158.763208 4.370324, 157.273498 4.370324 157.273498 4.370324, 155.784296 4.370324 155.784296 4.370324, 154.295348 4.370324 154.295348 4.370324, 150.756874 4.370324 150.756874 4.370324, 147.21967 4.370324 147.21967 4.370324, 143.681196 4.370324 143.681196 4.370324, 140.144246 4.370324 140.144246 4.370324, 136.605772 4.370324 136.605772 4.370324, 133.067806 4.370324 133.067806 4.370324, 129.530094 4.370324 129.530094 4.370324, 125.992382 4.370324 125.992382 4.370324, 125.992382 6.014974 125.992382 6.014974, 125.992382 7.659878 125.992382 7.659878, 125.992382 9.304782 125.992382 9.304782, 125.992382 10.949686 125.992382 10.949686, 125.992382 12.59459 125.992382 12.59459, 125.992382 14.23924 125.992382 14.23924, 125.992382 15.884144 125.992382 15.884144, 125.992382 17.529048 125.992382 17.529048, 115.345718 17.529048 115.345718 17.529048, 104.699816 17.529048 104.699816 17.529048, 94.054168 17.529048 94.054168 17.529048, 83.407504 17.529048 83.407504 17.529048, 72.761602 17.529048 72.761602 17.529048, 62.114938 17.529048 62.114938 17.529048, 51.469036 17.529048 51.469036 17.529048, 40.823134 17.529048 40.823134 17.529048, 40.823134 16.569436 40.823134 16.569436, 40.823134 15.609824 40.823134 15.609824, 40.823134 14.650974 40.823134 14.650974, 40.823134 13.691362 40.823134 13.691362, 40.823134 12.73175 40.823134 12.73175, 40.823134 11.772138 40.823134 11.772138, 40.823134 10.812526 40.823134 10.812526, 40.823134 9.852914 40.823134 9.852914, 42.605198 9.852914 42.605198 9.852914, 44.3865 9.852914 44.3865 9.852914, 46.168564 9.852914 46.168564 9.852914, 47.950628 9.852914 47.950628 9.852914, 49.732692 9.852914 49.732692 9.852914, 51.513994 9.852914 51.513994 9.852914, 53.29682 9.852914 53.29682 9.852914, 55.078122 9.852914 55.078122 9.852914, 55.078122 8.939022 55.078122 8.939022, 55.078122 8.02513 55.078122 8.02513, 55.078122 7.111238 55.078122 7.111238, 55.078122 6.19633 55.078122 6.19633, 55.078122 5.282438 55.078122 5.282438, 55.078122 4.368546 55.078122 4.368546, 55.078122 3.453892 55.078122 3.453892, 55.078122 2.54 55.078122 2.54, 51.971448 2.54 51.971448 2.54, 48.86452 2.54 48.86452 2.54, 45.757846 2.54 45.757846 2.54, 42.650918 2.54 42.650918 2.54, 39.544244 2.54 39.544244 2.54, 36.436554 2.54 36.436554 2.54, 33.32988 2.54 33.32988 2.54, 30.222952 2.54 30.222952 2.54, 30.222952 3.585718 30.222952 3.585718, 30.222952 6.561582 30.222952 6.561582, 30.222952 11.227816 30.222952 11.227816, 30.222952 17.345406 30.222952 17.345406, 30.222952 24.67356 30.222952 24.67356, 30.222952 32.97301 30.222952 32.97301, 30.222952 42.00271 30.222952 42.00271, 30.222952 51.5239 30.222952 51.5239, 30.609032 63.634112 30.609032 63.634112, 31.84779 79.491332 31.84779 79.491332, 34.063178 97.44202 34.063178 97.44202, 37.375338 115.834668 37.375338 115.834668, 41.908476 133.017514 41.908476 133.017514, 47.784004 147.336002 47.784004 147.336002, 55.124604 157.13837 55.124604 157.13837, 64.051942 160.773872 64.051942 160.773872, 88.10244 160.773872 88.10244 160.773872, 112.152176 160.773872 112.152176 160.773872, 136.202674 160.773872 136.202674 160.773872, 160.253172 160.773872 160.253172 160.773872, 184.302908 160.773872 184.302908 160.773872, 208.35239 160.773872 208.35239 160.773872, 232.402888 160.773872 232.402888 160.773872, 256.453386 160.773872 256.453386 160.773872, 256.453386 160.773872"/>
      </g>
      <g>
        <polyline style="fill: transparent;stroke: black;stroke-width: 1;" points="30.489652 51.803046, 31.968694 51.803046 31.968694 51.803046, 33.446974 51.803046 33.446974 51.803046, 34.925762 51.803046 34.925762 51.803046, 36.404804 51.803046 36.404804 51.803046, 37.883084 51.803046 37.883084 51.803046, 39.361364 51.803046 39.361364 51.803046, 40.840152 51.803046 40.840152 51.803046, 42.318432 51.803046 42.318432 51.803046, 42.318432 61.920882 42.318432 61.920882, 42.318432 72.038972 42.318432 72.038972, 42.318432 82.157824 42.318432 82.157824, 42.318432 92.27566 42.318432 92.27566, 42.318432 102.394512 42.318432 102.394512, 42.318432 112.512348 42.318432 112.512348, 42.318432 122.630438 42.318432 122.630438, 42.318432 132.74929"/>
      </g>
      <g>
        <polyline style="fill: transparent;stroke: black;stroke-width: 1;" points="290.511738 51.803046, 289.03295 51.803046 289.03295 51.803046, 287.553908 51.803046 287.553908 51.803046, 286.075628 51.803046 286.075628 51.803046, 284.597348 51.803046 284.597348 51.803046, 283.119322 51.803046 283.119322 51.803046, 281.64028 51.803046 281.64028 51.803046, 280.162 51.803046 280.162 51.803046, 278.683212 51.803046 278.683212 51.803046, 278.683212 61.920882 278.683212 61.920882, 278.683212 72.038972 278.683212 72.038972, 278.683212 82.157824 278.683212 82.157824, 278.683212 92.27566 278.683212 92.27566, 278.683212 102.394512 278.683212 102.394512, 278.683212 112.512348 278.683212 112.512348, 278.683212 122.630438 278.683212 122.630438, 278.683212 132.74929"/>
      </g>
      <g>
        <polyline style="fill: gray;stroke: black;stroke-width: 1;" points="194.2465 147.093178, 185.748422 147.093178 185.748422 147.093178, 177.249836 147.093178 177.249836 147.093178, 168.750996 147.093178 168.750996 147.093178, 160.253172 147.093178 160.253172 147.093178, 151.754332 147.093178 151.754332 147.093178, 143.256508 147.093178 143.256508 147.093178, 134.756906 147.093178 134.756906 147.093178, 126.259082 147.093178 126.259082 147.093178, 126.259082 129.288286 126.259082 129.288286, 126.259082 111.482378 126.259082 111.482378, 126.259082 93.67647 126.259082 93.67647, 126.259082 75.871324 126.259082 75.871324, 126.259082 58.065416 126.259082 58.065416, 126.259082 40.26027 126.259082 40.26027, 126.259082 22.454362 126.259082 22.454362, 126.259082 4.649216 126.259082 4.649216, 134.756906 4.649216 134.756906 4.649216, 143.256508 4.649216 143.256508 4.649216, 151.754332 4.649216 151.754332 4.649216, 160.253172 4.649216 160.253172 4.649216, 168.750996 4.649216 168.750996 4.649216, 177.249836 4.649216 177.249836 4.649216, 185.748422 4.649216 185.748422 4.649216, 194.2465 4.649216 194.2465 4.649216, 194.2465 22.454362 194.2465 22.454362, 194.2465 40.26027 194.2465 40.26027, 194.2465 58.065416 194.2465 58.065416, 194.2465 75.871324 194.2465 75.871324, 194.2465 93.67647 194.2465 93.67647, 194.2465 111.482378 194.2465 111.482378, 194.2465 129.288286 194.2465 129.288286, 194.2465 147.093178 194.2465 147.093178, 194.2465 147.093178"/>
      </g>
      <g>
        <polyline style="fill: gray;stroke: black;stroke-width: 1;" points="201.818748 146.815048, 200.539858 146.815048 200.539858 146.815048, 199.260714 146.815048 199.260714 146.815048, 197.982586 146.815048 197.982586 146.815048, 196.702934 146.815048 196.702934 146.815048, 195.42379 146.815048 195.42379 146.815048, 194.1449 146.815048 194.1449 146.815048, 192.866518 146.815048 192.866518 146.815048, 191.586866 146.815048 191.586866 146.815048, 191.586866 134.938262 191.586866 134.938262, 191.586866 123.061476 191.586866 123.061476, 191.586866 111.185452 191.586866 111.185452, 191.586866 99.308666 191.586866 99.308666, 191.586866 87.43188 191.586866 87.43188, 191.586866 75.555856 191.586866 75.555856, 191.586866 63.67907 191.586866 63.67907, 191.586866 51.803046 191.586866 51.803046, 192.866518 51.803046 192.866518 51.803046, 194.1449 51.803046 194.1449 51.803046, 195.42379 51.803046 195.42379 51.803046, 196.702934 51.803046 196.702934 51.803046, 197.982586 51.803046 197.982586 51.803046, 199.260714 51.803046 199.260714 51.803046, 200.539858 51.803046 200.539858 51.803046, 201.818748 51.803046 201.818748 51.803046, 201.818748 63.67907 201.818748 63.67907, 201.818748 75.555856 201.818748 75.555856, 201.818748 87.43188 201.818748 87.43188, 201.818748 99.308666 201.818748 99.308666, 201.818748 111.185452 201.818748 111.185452, 201.818748 123.061476 201.818748 123.061476, 201.818748 134.938262 201.818748 134.938262, 201.818748 146.815048 201.818748 146.815048, 201.818748 146.815048"/>
      </g>
      <g>
        <polyline style="fill: gray;stroke: black;stroke-width: 1;" points="155.136342 146.815048, 153.85669 146.815048 153.85669 146.815048, 152.577546 146.815048 152.577546 146.815048, 151.298656 146.815048 151.298656 146.815048, 150.019512 146.815048 150.019512 146.815048, 148.73986 146.815048 148.73986 146.815048, 147.461732 146.815048 147.461732 146.815048, 146.181826 146.815048 146.181826 146.815048, 144.902936 146.815048 144.902936 146.815048, 144.902936 134.938262 144.902936 134.938262, 144.902936 123.061476 144.902936 123.061476, 144.902936 111.185452 144.902936 111.185452, 144.902936 99.308666 144.902936 99.308666, 144.902936 87.43188 144.902936 87.43188, 144.902936 75.555856 144.902936 75.555856, 144.902936 63.67907 144.902936 63.67907, 144.902936 51.803046 144.902936 51.803046, 146.181826 51.803046 146.181826 51.803046, 147.461732 51.803046 147.461732 51.803046, 148.73986 51.803046 148.73986 51.803046, 150.019512 51.803046 150.019512 51.803046, 151.298656 51.803046 151.298656 51.803046, 152.577546 51.803046 152.577546 51.803046, 153.85669 51.803046 153.85669 51.803046, 155.136342 51.803046 155.136342 51.803046, 155.136342 63.67907 155.136342 63.67907, 155.136342 75.555856 155.136342 75.555856, 155.136342 87.43188 155.136342 87.43188, 155.136342 99.308666 155.136342 99.308666, 155.136342 111.185452 155.136342 111.185452, 155.136342 123.061476 155.136342 123.061476, 155.136342 134.938262 155.136342 134.938262, 155.136342 146.815048 155.136342 146.815048, 155.136342 146.815048"/>
      </g>
      <g>
        <polyline style="fill: gray;stroke: black;stroke-width: 1;" points="110.618016 146.815048, 109.339126 146.815048 109.339126 146.815048, 108.059474 146.815048 108.059474 146.815048, 106.781092 146.815048 106.781092 146.815048, 105.50144 146.815048 105.50144 146.815048, 104.222296 146.815048 104.222296 146.815048, 102.943406 146.815048 102.943406 146.815048, 101.664516 146.815048 101.664516 146.815048, 100.38461 146.815048 100.38461 146.815048, 100.38461 134.938262 100.38461 134.938262, 100.38461 123.061476 100.38461 123.061476, 100.38461 111.185452 100.38461 111.185452, 100.38461 99.308666 100.38461 99.308666, 100.38461 87.43188 100.38461 87.43188, 100.38461 75.555856 100.38461 75.555856, 100.38461 63.67907 100.38461 63.67907, 100.38461 51.803046 100.38461 51.803046, 101.664516 51.803046 101.664516 51.803046, 102.943406 51.803046 102.943406 51.803046, 104.222296 51.803046 104.222296 51.803046, 105.50144 51.803046 105.50144 51.803046, 106.781092 51.803046 106.781092 51.803046, 108.059474 51.803046 108.059474 51.803046, 109.339126 51.803046 109.339126 51.803046, 110.618016 51.803046 110.618016 51.803046, 110.618016 63.67907 110.618016 63.67907, 110.618016 75.555856 110.618016 75.555856, 110.618016 87.43188 110.618016 87.43188, 110.618016 99.308666 110.618016 99.308666, 110.618016 111.185452 110.618016 111.185452, 110.618016 123.061476 110.618016 123.061476, 110.618016 134.938262 110.618016 134.938262, 110.618016 146.815048 110.618016 146.815048, 110.618016 146.815048"/>
      </g>
      <g>
        <polyline style="fill: gray;stroke: black;stroke-width: 1;" points="162.935158 57.861454, 162.791648 59.289442 162.791648 59.289442, 162.378644 60.619386 162.378644 60.619386, 161.725102 61.822584 161.725102 61.822584, 160.859978 62.87135 160.859978 62.87135, 159.811974 63.736474 159.811974 63.736474, 158.608268 64.389762 158.608268 64.389762, 157.278832 64.802258 157.278832 64.802258, 155.850336 64.946276 155.850336 64.946276, 154.422348 64.802258 154.422348 64.802258, 153.092404 64.389762 153.092404 64.389762, 151.889206 63.736474 151.889206 63.736474, 150.84044 62.87135 150.84044 62.87135, 149.975316 61.822584 149.975316 61.822584, 149.322028 60.619386 149.322028 60.619386, 148.90877 59.289442 148.90877 59.289442, 148.764752 57.861454 148.764752 57.861454, 148.90877 56.43372 148.90877 56.43372, 149.322028 55.103522 149.322028 55.103522, 149.975316 53.899816 149.975316 53.899816, 150.84044 52.851812 150.84044 52.851812, 151.889206 51.986688 151.889206 51.986688, 153.092404 51.333146 153.092404 51.333146, 154.422348 50.920142 154.422348 50.920142, 155.850336 50.776632 155.850336 50.776632, 157.278832 50.920142 157.278832 50.920142, 158.608268 51.333146 158.608268 51.333146, 159.811974 51.986688 159.811974 51.986688, 160.859978 52.851812 160.859978 52.851812, 161.725102 53.899816 161.725102 53.899816, 162.378644 55.103522 162.378644 55.103522, 162.791648 56.43372 162.791648 56.43372, 162.935158 57.861454 162.935158 57.861454, 162.935158 57.861454"/>
      </g>
      <g>
        <polyline style="fill: gray;stroke: black;stroke-width: 1;" points="245.18366 146.815048, 243.904516 146.815048 243.904516 146.815048, 242.626388 146.815048 242.626388 146.815048, 241.346736 146.815048 241.346736 146.815048, 240.067592 146.815048 240.067592 146.815048, 238.788702 146.815048 238.788702 146.815048, 237.509558 146.815048 237.509558 146.815048, 236.230668 146.815048 236.230668 146.815048, 234.951778 146.815048 234.951778 146.815048, 234.951778 134.938262 234.951778 134.938262, 234.951778 123.061476 234.951778 123.061476, 234.951778 111.185452 234.951778 111.185452, 234.951778 99.308666 234.951778 99.308666, 234.951778 87.43188 234.951778 87.43188, 234.951778 75.555856 234.951778 75.555856, 234.951778 63.67907 234.951778 63.67907, 234.951778 51.803046 234.951778 51.803046, 236.230668 51.803046 236.230668 51.803046, 237.509558 51.803046 237.509558 51.803046, 238.788702 51.803046 238.788702 51.803046, 240.067592 51.803046 240.067592 51.803046, 241.346736 51.803046 241.346736 51.803046, 242.626388 51.803046 242.626388 51.803046, 243.904516 51.803046 243.904516 51.803046, 245.18366 51.803046 245.18366 51.803046, 245.18366 63.67907 245.18366 63.67907, 245.18366 75.555856 245.18366 75.555856, 245.18366 87.43188 245.18366 87.43188, 245.18366 99.308666 245.18366 99.308666, 245.18366 111.185452 245.18366 111.185452, 245.18366 123.061476 245.18366 123.061476, 245.18366 134.938262 245.18366 134.938262, 245.18366 146.815048 245.18366 146.815048, 245.18366 146.815048"/>
      </g>
      <g>
        <polyline style="fill: gray;stroke: black;stroke-width: 1;" points="73.261474 146.815048, 71.982584 146.815048 71.982584 146.815048, 70.70344 146.815048 70.70344 146.815048, 69.42455 146.815048 69.42455 146.815048, 68.14566 146.815048 68.14566 146.815048, 66.865754 146.815048 66.865754 146.815048, 65.587626 146.815048 65.587626 146.815048, 64.30772 146.815048 64.30772 146.815048, 63.02883 146.815048 63.02883 146.815048, 63.02883 134.938262 63.02883 134.938262, 63.02883 123.061476 63.02883 123.061476, 63.02883 111.185452 63.02883 111.185452, 63.02883 99.308666 63.02883 99.308666, 63.02883 87.43188 63.02883 87.43188, 63.02883 75.555856 63.02883 75.555856, 63.02883 63.67907 63.02883 63.67907, 63.02883 51.803046 63.02883 51.803046, 64.30772 51.803046 64.30772 51.803046, 65.587626 51.803046 65.587626 51.803046, 66.865754 51.803046 66.865754 51.803046, 68.14566 51.803046 68.14566 51.803046, 69.42455 51.803046 69.42455 51.803046, 70.70344 51.803046 70.70344 51.803046, 71.982584 51.803046 71.982584 51.803046, 73.261474 51.803046 73.261474 51.803046, 73.261474 63.67907 73.261474 63.67907, 73.261474 75.555856 73.261474 75.555856, 73.261474 87.43188 73.261474 87.43188, 73.261474 99.308666 73.261474 99.308666, 73.261474 111.185452 73.261474 111.185452, 73.261474 123.061476 73.261474 123.061476, 73.261474 134.938262 73.261474 134.938262, 73.261474 146.815048 73.261474 146.815048, 73.261474 146.815048"/>
      </g>
    </g>
  </g>
</svg>
