<?xml version="1.0" encoding="utf-8"?>
<!-- Generator: www.crescit.com, SVG Export - SVG Version: 6.00 Build 1  -->
<!-- FXGUID: [26EA646F-72E4-11EE-9EC2-525400685065] SYMID: [19182]  -->
<svg xmlns="http://www.w3.org/2000/svg" version="1.1" ch_offset="0" color_bar_width="66" width="485.239822" height="188.554106" origin_x="236.92866" origin_y="80.080866" ch_offset_x="237.031911" ch_offset_y="40" color_offset_x="236.92866" color_offset_y="-4">
  <g>
    <title>Layer 1</title>
    <g>
      <g>
        <polyline style="fill: gray;stroke: black;stroke-width: 1;" points="18.60169 123.081796, 17.01419 123.081796 17.01419 123.081796, 15.42669 123.081796 15.42669 123.081796, 13.83919 123.081796 13.83919 123.081796, 12.25169 123.081796 12.25169 123.081796, 12.25169 102.81793 12.25169 102.81793, 12.25169 82.554064 12.25169 82.554064, 12.25169 62.29096 12.25169 62.29096, 12.25169 42.027856 12.25169 42.027856, 13.83919 42.027856 13.83919 42.027856, 15.42669 42.027856 15.42669 42.027856, 17.01419 42.027856 17.01419 42.027856, 18.60169 42.027856 18.60169 42.027856, 18.60169 62.29096 18.60169 62.29096, 18.60169 82.554064 18.60169 82.554064, 18.60169 102.81793 18.60169 102.81793, 18.60169 123.081796 18.60169 123.081796, 18.60169 123.081796"/>
      </g>
      <g>
        <polyline style="fill: gray;stroke: black;stroke-width: 1;" points="462.828894 114.175286, 465.256626 114.175286 465.256626 114.175286, 467.684358 114.175286 467.684358 114.175286, 470.11209 114.175286 470.11209 114.175286, 472.539822 114.175286 472.539822 114.175286, 472.539822 98.28657 472.539822 98.28657, 472.539822 82.396838 472.539822 82.396838, 472.539822 66.507868 472.539822 66.507868, 472.539822 50.618898 472.539822 50.618898, 470.11209 50.618898 470.11209 50.618898, 467.684358 50.618898 467.684358 50.618898, 465.256626 50.618898 465.256626 50.618898, 462.828894 50.618898 462.828894 50.618898, 462.828894 66.507868 462.828894 66.507868, 462.828894 82.396838 462.828894 82.396838, 462.828894 98.28657 462.828894 98.28657, 462.828894 114.175286 462.828894 114.175286, 462.828894 114.175286"/>
      </g>
      <g>
        <polyline style="fill: gray;stroke: black;stroke-width: 1;" points="456.478894 123.081796, 458.066394 123.081796 458.066394 123.081796, 459.653894 123.081796 459.653894 123.081796, 461.241394 123.081796 461.241394 123.081796, 462.828894 123.081796 462.828894 123.081796, 462.828894 102.81793 462.828894 102.81793, 462.828894 82.554064 462.828894 82.554064, 462.828894 62.29096 462.828894 62.29096, 462.828894 42.027856 462.828894 42.027856, 461.241394 42.027856 461.241394 42.027856, 459.653894 42.027856 459.653894 42.027856, 458.066394 42.027856 458.066394 42.027856, 456.478894 42.027856 456.478894 42.027856, 456.478894 62.29096 456.478894 62.29096, 456.478894 82.554064 456.478894 82.554064, 456.478894 102.81793 456.478894 102.81793, 456.478894 123.081796 456.478894 123.081796, 456.478894 123.081796"/>
      </g>
      <g>
        <polyline style="fill: gray;stroke: black;stroke-width: 1;" points="456.478894 109.88421, 347.009466 109.88421 347.009466 109.88421, 237.540292 109.88421 237.540292 109.88421, 128.070864 109.88421 128.070864 109.88421, 18.60169 109.88421 18.60169 109.88421, 18.60169 95.068136 18.60169 95.068136, 18.60169 80.251046 18.60169 80.251046, 18.60169 65.434972 18.60169 65.434972, 18.60169 50.618898 18.60169 50.618898, 128.070864 50.618898 128.070864 50.618898, 237.540292 50.618898 237.540292 50.618898, 347.009466 50.618898 347.009466 50.618898, 456.478894 50.618898 456.478894 50.618898, 456.478894 65.434972 456.478894 65.434972, 456.478894 80.251046 456.478894 80.251046, 456.478894 95.068136 456.478894 95.068136, 456.478894 109.88421 456.478894 109.88421, 456.478894 109.88421"/>
      </g>
      <g>
        <polyline style="fill: gray;stroke: black;stroke-width: 1;" points="12.25169 114.175286, 9.823958 114.175286 9.823958 114.175286, 7.395464 114.175286 7.395464 114.175286, 4.967732 114.175286 4.967732 114.175286, 2.54 114.175286 2.54 114.175286, 2.54 98.28657 2.54 98.28657, 2.54 82.396838 2.54 82.396838, 2.54 66.507868 2.54 66.507868, 2.54 50.618898 2.54 50.618898, 4.967732 50.618898 4.967732 50.618898, 7.395464 50.618898 7.395464 50.618898, 9.823958 50.618898 9.823958 50.618898, 12.25169 50.618898 12.25169 50.618898, 12.25169 66.507868 12.25169 66.507868, 12.25169 82.396838 12.25169 82.396838, 12.25169 98.28657 12.25169 98.28657, 12.25169 114.175286 12.25169 114.175286, 12.25169 114.175286"/>
      </g>
      <g>
        <polyline style="fill: gray;stroke: black;stroke-width: 1;" points="18.919698 108.561378, 21.641308 108.561378 21.641308 108.561378, 24.362918 108.561378 24.362918 108.561378, 27.085036 108.561378 27.085036 108.561378, 29.806646 108.561378 29.806646 108.561378, 29.806646 94.928182 29.806646 94.928182, 29.806646 81.294732 29.806646 81.294732, 29.806646 67.661536 29.806646 67.661536, 29.806646 54.027578 29.806646 54.027578, 27.085036 54.027578 27.085036 54.027578, 24.362918 54.027578 24.362918 54.027578, 21.641308 54.027578 21.641308 54.027578, 18.919698 54.027578 18.919698 54.027578, 18.919698 67.661536 18.919698 67.661536, 18.919698 81.294732 18.919698 81.294732, 18.919698 94.928182 18.919698 94.928182, 18.919698 108.561378 18.919698 108.561378, 18.919698 108.561378"/>
      </g>
      <g>
        <polyline style="fill: gray;stroke: black;stroke-width: 1;" points="445.909192 108.561378, 448.631564 108.561378 448.631564 108.561378, 451.352412 108.561378 451.352412 108.561378, 454.07453 108.561378 454.07453 108.561378, 456.796902 108.561378 456.796902 108.561378, 456.796902 94.928182 456.796902 94.928182, 456.796902 81.294732 456.796902 81.294732, 456.796902 67.661536 456.796902 67.661536, 456.796902 54.027578 456.796902 54.027578, 454.07453 54.027578 454.07453 54.027578, 451.352412 54.027578 451.352412 54.027578, 448.631564 54.027578 448.631564 54.027578, 445.909192 54.027578 445.909192 54.027578, 445.909192 67.661536 445.909192 67.661536, 445.909192 81.294732 445.909192 81.294732, 445.909192 94.928182 445.909192 94.928182, 445.909192 108.561378 445.909192 108.561378, 445.909192 108.561378"/>
      </g>
      <g>
        <polyline style="fill: gray;stroke: black;stroke-width: 1;" points="293.513002 175.854106, 318.72555 175.854106 318.72555 175.854106, 343.937844 175.854106 343.937844 175.854106, 369.151154 175.854106 369.151154 175.854106, 394.363448 175.854106 394.363448 175.854106, 394.363448 166.329106 394.363448 166.329106, 394.363448 156.804106 394.363448 156.804106, 394.363448 147.279106 394.363448 147.279106, 394.363448 137.754868 394.363448 137.754868, 397.538448 137.754868 397.538448 137.754868, 400.713448 137.754868 400.713448 137.754868, 403.888448 137.754868 403.888448 137.754868, 407.063448 137.754868 407.063448 137.754868, 407.063448 131.778502 407.063448 131.778502, 407.063448 125.802136 407.063448 125.802136, 407.063448 119.82577 407.063448 119.82577, 407.063448 113.849404 407.063448 113.849404, 412.47949 113.849404 412.47949 113.849404, 417.895532 113.849404 417.895532 113.849404, 423.312082 113.849404 423.312082 113.849404, 428.727362 113.849404 428.727362 113.849404, 428.727362 119.452136 428.727362 119.452136, 428.727362 125.054868 428.727362 125.054868, 428.727362 130.6576 428.727362 130.6576, 428.727362 136.260586 428.727362 136.260586, 433.023264 136.260586 433.023264 136.260586, 437.319166 136.260586 437.319166 136.260586, 441.61329 136.260586 441.61329 136.260586, 445.909192 136.260586 445.909192 136.260586, 445.909192 107.312714 445.909192 107.312714, 445.909192 78.364842 445.909192 78.364842, 445.909192 49.41697 445.909192 49.41697, 445.909192 20.469098 445.909192 20.469098, 438.064656 20.469098 438.064656 20.469098, 430.221898 20.469098 430.221898 20.469098, 422.377362 20.469098 422.377362 20.469098, 414.533588 20.469098 414.533588 20.469098, 412.2928 15.987268 412.2928 15.987268, 410.051758 11.504422 410.051758 11.504422, 407.810716 7.022592 407.810716 7.022592, 405.569166 2.54 405.569166 2.54, 373.07266 2.54 373.07266 2.54, 340.576916 2.54 340.576916 2.54, 308.08041 2.54 308.08041 2.54, 275.583904 2.54 275.583904 2.54, 273.529044 7.022592 273.529044 7.022592, 271.474946 11.504422 271.474946 11.504422, 269.420848 15.987268 269.420848 15.987268, 267.365988 20.469098 267.365988 20.469098, 262.51027 20.469098 262.51027 20.469098, 257.654806 20.469098 257.654806 20.469098, 252.79858 20.469098 252.79858 20.469098, 247.943116 20.469098 247.943116 20.469098, 242.900708 20.469098 242.900708 20.469098, 237.8583 20.469098 237.8583 20.469098, 232.81513 20.469098 232.81513 20.469098, 227.772976 20.469098 227.772976 20.469098, 222.917512 20.469098 222.917512 20.469098, 218.061794 20.469098 218.061794 20.469098, 213.205568 20.469098 213.205568 20.469098, 208.350104 20.469098 208.350104 20.469098, 206.296006 15.987268 206.296006 15.987268, 204.240892 11.504422 204.240892 11.504422, 202.186794 7.022592 202.186794 7.022592, 200.132696 2.54 200.132696 2.54, 167.63619 2.54 167.63619 2.54, 135.139684 2.54 135.139684 2.54, 102.643432 2.54 102.643432 2.54, 70.146926 2.54 70.146926 2.54, 67.905884 7.022592 67.905884 7.022592, 65.665096 11.504422 65.665096 11.504422, 63.424054 15.987268 63.424054 15.987268, 61.183012 20.469098 61.183012 20.469098, 53.338476 20.469098 53.338476 20.469098, 45.494956 20.469098 45.494956 20.469098, 37.651182 20.469098 37.651182 20.469098, 29.806646 20.469098 29.806646 20.469098, 29.806646 49.41697 29.806646 49.41697, 29.806646 78.364842 29.806646 78.364842, 29.806646 107.312714 29.806646 107.312714, 29.806646 136.260586 29.806646 136.260586, 34.102548 136.260586 34.102548 136.260586, 38.39845 136.260586 38.39845 136.260586, 42.69359 136.260586 42.69359 136.260586, 46.988476 136.260586 46.988476 136.260586, 46.988476 130.6576 46.988476 130.6576, 46.988476 125.054868 46.988476 125.054868, 46.988476 119.452136 46.988476 119.452136, 46.988476 113.849404 46.988476 113.849404, 52.40528 113.849404 52.40528 113.849404, 57.821322 113.849404 57.821322 113.849404, 63.23711 113.849404 63.23711 113.849404, 68.653152 113.849404 68.653152 113.849404, 68.653152 119.82577 68.653152 119.82577, 68.653152 125.802136 68.653152 125.802136, 68.653152 131.778502 68.653152 131.778502, 68.653152 137.754868 68.653152 137.754868, 71.828152 137.754868 71.828152 137.754868, 75.003152 137.754868 75.003152 137.754868, 78.178152 137.754868 78.178152 137.754868, 81.353152 137.754868 81.353152 137.754868, 81.353152 147.279106 81.353152 147.279106, 81.353152 156.804106 81.353152 156.804106, 81.353152 166.329106 81.353152 166.329106, 81.353152 175.854106 81.353152 175.854106, 106.5657 175.854106 106.5657 175.854106, 131.777994 175.854106 131.777994 175.854106, 156.991304 175.854106 156.991304 175.854106, 182.203598 175.854106 182.203598 175.854106, 210.03133 175.854106 210.03133 175.854106, 237.8583 175.854106 237.8583 175.854106, 265.68527 175.854106 265.68527 175.854106, 293.513002 175.854106 293.513002 175.854106, 293.513002 175.854106"/>
      </g>
      <g>
        <polyline style="fill: transparent;stroke: black;stroke-width: 1;" points="81.353152 137.754868, 159.605726 137.754868 159.605726 137.754868, 237.8583 137.754868 237.8583 137.754868, 316.110874 137.754868 316.110874 137.754868, 394.363448 137.754868"/>
      </g>
      <g>
        <polyline style="fill: transparent;stroke: black;stroke-width: 1;" points="61.183012 20.469098, 149.520402 20.469098 149.520402 20.469098, 237.8583 20.469098 237.8583 20.469098, 326.196452 20.469098 326.196452 20.469098, 414.533588 20.469098"/>
      </g>
      <g>
        <polyline style="fill: transparent;stroke: black;stroke-width: 1;" points="68.653152 113.849404, 153.255726 113.849404 153.255726 113.849404, 237.8583 113.849404 237.8583 113.849404, 322.460874 113.849404 322.460874 113.849404, 407.063448 113.849404"/>
      </g>
      <g>
        <polyline style="fill: gray;stroke: black;stroke-width: 1;" points="376.005852 168.325292, 368.72164 168.325292 368.72164 168.325292, 361.437682 168.325292 361.437682 168.325292, 354.154486 168.325292 354.154486 168.325292, 346.871036 168.325292 346.871036 168.325292, 346.871036 164.21608 346.871036 164.21608, 346.871036 160.107884 346.871036 160.107884, 346.871036 155.998672 346.871036 155.998672, 346.871036 151.890476 346.871036 151.890476, 354.154486 151.890476 354.154486 151.890476, 361.437682 151.890476 361.437682 151.890476, 368.72164 151.890476 368.72164 151.890476, 376.005852 151.890476 376.005852 151.890476, 376.005852 155.998672 376.005852 155.998672, 376.005852 160.107884 376.005852 160.107884, 376.005852 164.21608 376.005852 164.21608, 376.005852 168.325292 376.005852 168.325292, 376.005852 168.325292"/>
      </g>
      <g>
        <polyline style="fill: gray;stroke: black;stroke-width: 1;" points="127.987552 168.325292, 120.703594 168.325292 120.703594 168.325292, 113.420144 168.325292 113.420144 168.325292, 106.136948 168.325292 106.136948 168.325292, 98.85299 168.325292 98.85299 168.325292, 98.85299 164.21608 98.85299 164.21608, 98.85299 160.107884 98.85299 160.107884, 98.85299 155.998672 98.85299 155.998672, 98.85299 151.890476 98.85299 151.890476, 106.136948 151.890476 106.136948 151.890476, 113.420144 151.890476 113.420144 151.890476, 120.703594 151.890476 120.703594 151.890476, 127.987552 151.890476 127.987552 151.890476, 127.987552 155.998672 127.987552 155.998672, 127.987552 160.107884 127.987552 160.107884, 127.987552 164.21608 127.987552 164.21608, 127.987552 168.325292 127.987552 168.325292, 127.987552 168.325292"/>
      </g>
    </g>
  </g>
</svg>
