<?xml version="1.0" encoding="utf-8"?>
<!-- Generator: SVG Export - SVG Version: 6.00 Build 1  -->
<!-- FXGUID: [23595DBB-6545-11E8-A5DF-525400685065] SYMID: [14131]  -->
<svg xmlns="http://www.w3.org/2000/svg" version="1.1" ch_offset="0" color_bar_width="66" width="250.543568" height="274.759928" origin_x="105.01249" origin_y="99.980242" ch_offset_x="105.1951922" ch_offset_y="40" color_offset_x="105.01249" color_offset_y="-4" fxtype_offset_x="106.038904" fxtype_offset_y="290.870894" fxtype_offset_value="2QuadZ">
  <g>
    <title>Layer 1</title>
    <g>
      <g>
        <polyline style="fill: gray;stroke: black;stroke-width: 1;" points="235.57865 72.00011, 222.554546 72.00011 222.554546 72.00011, 222.554546 89.413842 222.554546 89.413842, 212.927184 89.413842 212.927184 89.413842, 212.927184 70.15988 212.927184 70.15988, 208.397348 70.15988 208.397348 70.15988, 208.397348 80.494124 208.397348 80.494124, 204.699108 80.494124 204.699108 80.494124, 204.699108 118.434612 204.699108 118.434612, 208.397348 118.434612 208.397348 118.434612, 208.397348 128.768856 208.397348 128.768856, 212.927184 128.768856 212.927184 128.768856, 212.927184 109.515656 212.927184 109.515656, 222.554546 109.515656 222.554546 109.515656, 222.554546 126.928626 222.554546 126.928626, 235.57865 126.928626 235.57865 126.928626, 237.843568 108.525056 237.843568 108.525056, 237.843568 90.404442 237.843568 90.404442, 235.57865 72.00011"/>
      </g>
      <g>
        <polyline style="fill: gray;stroke: black;stroke-width: 1;" points="2.54 70.15988, 7.07009 70.15988 7.07009 70.15988, 7.07009 80.494124 7.07009 80.494124, 10.768838 80.494124 10.768838 80.494124, 10.768838 118.434612 10.768838 118.434612, 7.07009 118.434612 7.07009 118.434612, 7.07009 128.768856 7.07009 128.768856, 2.54 128.768856 2.54 128.768856, 2.54 70.15988"/>
      </g>
      <g>
        <polyline style="fill: gray;stroke: black;stroke-width: 1;" points="212.927184 128.768856, 2.54 128.768856 2.54 128.768856, 2.54 70.15988 2.54 70.15988, 212.927184 70.15988 212.927184 70.15988, 212.927184 128.768856"/>
      </g>
      <g>
        <polyline style="fill: gray;stroke: black;stroke-width: 1;" points="204.84465 2.54, 204.84465 110.000796 204.84465 110.000796, 182.757826 110.000796 182.757826 110.000796, 182.757826 111.700056 182.757826 111.700056, 204.84465 111.700056 204.84465 111.700056, 204.84465 126.140972 204.84465 126.140972, 189.553342 246.34444 189.553342 246.34444, 180.208936 246.34444 180.208936 246.34444, 174.686976 253.564898 174.686976 253.564898, 146.229832 253.564898 146.229832 253.564898, 137.73404 262.059928 137.73404 262.059928, 77.845412 262.059928 77.845412 262.059928, 69.349874 253.564898 69.349874 253.564898, 40.89273 253.564898 40.89273 253.564898, 35.370516 246.34444 35.370516 246.34444, 26.02611 246.34444 26.02611 246.34444, 10.735564 126.140972 10.735564 126.140972, 10.735564 111.700056 10.735564 111.700056, 32.82188 111.700056 32.82188 111.700056, 32.82188 110.000796 32.82188 110.000796, 10.735564 110.000796 10.735564 110.000796, 10.735564 2.54 10.735564 2.54, 204.84465 2.54"/>
      </g>
      <g>
        <polyline style="fill: gray;stroke: black;stroke-width: 1;" points="204.84465 40.342312, 10.735564 40.342312 10.735564 40.342312, 10.735564 14.008354 10.735564 14.008354, 204.84465 14.008354 204.84465 14.008354, 204.84465 40.342312"/>
      </g>
      <g>
        <polyline style="fill: gray;stroke: black;stroke-width: 1;" points="31.39948 108.171488, 32.850582 46.447456 32.850582 46.447456, 22.518624 46.447456 22.518624 46.447456, 23.969726 108.171488 23.969726 108.171488, 31.39948 108.171488"/>
      </g>
      <g>
        <polyline style="fill: gray;stroke: black;stroke-width: 1;" points="24.362664 124.876052, 26.259536 205.569566 26.259536 205.569566, 29.10967 205.569566 29.10967 205.569566, 31.006542 124.876052 31.006542 124.876052, 24.362664 124.876052"/>
      </g>
      <g>
        <polyline style="fill: gray;stroke: black;stroke-width: 1;" points="50.848006 108.171488, 52.299108 46.447456 52.299108 46.447456, 41.96715 46.447456 41.96715 46.447456, 43.418252 108.171488 43.418252 108.171488, 50.848006 108.171488"/>
      </g>
      <g>
        <polyline style="fill: gray;stroke: black;stroke-width: 1;" points="43.810428 124.876052, 45.707808 205.569566 45.707808 205.569566, 48.558196 205.569566 48.558196 205.569566, 50.454814 124.876052 50.454814 124.876052, 43.810428 124.876052"/>
      </g>
      <g>
        <polyline style="fill: gray;stroke: black;stroke-width: 1;" points="70.296278 108.171488, 71.74738 46.447456 71.74738 46.447456, 61.415422 46.447456 61.415422 46.447456, 62.865762 108.171488 62.865762 108.171488, 70.296278 108.171488"/>
      </g>
      <g>
        <polyline style="fill: gray;stroke: black;stroke-width: 1;" points="63.2587 124.876052, 65.156334 205.569566 65.156334 205.569566, 68.006468 205.569566 68.006468 205.569566, 69.90334 124.876052 69.90334 124.876052, 63.2587 124.876052"/>
      </g>
      <g>
        <polyline style="fill: gray;stroke: black;stroke-width: 1;" points="89.744042 108.171488, 91.195144 46.447456 91.195144 46.447456, 80.863186 46.447456 80.863186 46.447456, 82.314288 108.171488 82.314288 108.171488, 89.744042 108.171488"/>
      </g>
      <g>
        <polyline style="fill: gray;stroke: black;stroke-width: 1;" points="82.707226 124.876052, 84.604098 205.569566 84.604098 205.569566, 87.454232 205.569566 87.454232 205.569566, 89.351104 124.876052 89.351104 124.876052, 82.707226 124.876052"/>
      </g>
      <g>
        <polyline style="fill: gray;stroke: black;stroke-width: 1;" points="102.155752 124.876052, 104.05237 205.569566 104.05237 205.569566, 106.902758 205.569566 106.902758 205.569566, 108.799376 124.876052 108.799376 124.876052, 102.155752 124.876052"/>
      </g>
      <g>
        <polyline style="fill: gray;stroke: black;stroke-width: 1;" points="109.192314 108.171488, 110.643416 46.447456 110.643416 46.447456, 100.311458 46.447456 100.311458 46.447456, 101.76256 108.171488 101.76256 108.171488, 109.192314 108.171488"/>
      </g>
      <g>
        <polyline style="fill: gray;stroke: black;stroke-width: 1;" points="128.128522 108.171488, 128.64084 108.171488 128.64084 108.171488, 130.091942 46.447456 130.091942 46.447456, 119.759984 46.447456 119.759984 46.447456, 121.211086 108.171488 121.211086 108.171488, 128.128522 108.171488"/>
      </g>
      <g>
        <polyline style="fill: gray;stroke: black;stroke-width: 1;" points="128.128522 124.876052, 121.603262 124.876052 121.603262 124.876052, 123.500896 205.569566 123.500896 205.569566, 126.35103 205.569566 126.35103 205.569566, 128.247902 124.876052 128.247902 124.876052, 128.128522 124.876052"/>
      </g>
      <g>
        <polyline style="fill: gray;stroke: black;stroke-width: 1;" points="148.088604 108.171488, 149.539706 46.447456 149.539706 46.447456, 139.207748 46.447456 139.207748 46.447456, 140.65885 108.171488 140.65885 108.171488, 148.088604 108.171488"/>
      </g>
      <g>
        <polyline style="fill: gray;stroke: black;stroke-width: 1;" points="141.051788 124.876052, 142.948406 205.569566 142.948406 205.569566, 145.798794 205.569566 145.798794 205.569566, 147.696174 124.876052 147.696174 124.876052, 141.051788 124.876052"/>
      </g>
      <g>
        <polyline style="fill: gray;stroke: black;stroke-width: 1;" points="167.536876 108.171488, 168.987978 46.447456 168.987978 46.447456, 158.65602 46.447456 158.65602 46.447456, 160.107122 108.171488 160.107122 108.171488, 167.536876 108.171488"/>
      </g>
      <g>
        <polyline style="fill: gray;stroke: black;stroke-width: 1;" points="160.50006 124.876052, 162.396932 205.569566 162.396932 205.569566, 165.247066 205.569566 165.247066 205.569566, 167.143938 124.876052 167.143938 124.876052, 160.50006 124.876052"/>
      </g>
      <g>
        <polyline style="fill: gray;stroke: black;stroke-width: 1;" points="186.98464 108.171488, 188.436504 46.447456 188.436504 46.447456, 178.104546 46.447456 178.104546 46.447456, 179.555648 108.171488 179.555648 108.171488, 186.98464 108.171488"/>
      </g>
      <g>
        <polyline style="fill: gray;stroke: black;stroke-width: 1;" points="179.948586 124.876052, 181.845458 205.569566 181.845458 205.569566, 184.69483 205.569566 184.69483 205.569566, 186.592464 124.876052 186.592464 124.876052, 179.948586 124.876052"/>
      </g>
      <g>
        <polyline style="fill: gray;stroke: black;stroke-width: 1;" points="204.574902 124.876052, 10.735564 124.876052 10.735564 124.876052, 10.735564 111.700056 10.735564 111.700056, 204.574902 111.700056 204.574902 111.700056, 204.574902 124.876052"/>
      </g>
    </g>
  </g>
</svg>
