<?xml version="1.0" encoding="utf-8"?>
<!-- Generator: www.crescit.com, SVG Export - SVG Version: 6.00 Build 1  -->
<!-- FXGUID: [62AFC848-F487-11E9-9781-525400685065] SYMID: [12367]  -->
<svg xmlns="http://www.w3.org/2000/svg" version="1.1" ch_offset="0" color_bar_width="66" width="232.184956" height="178.063398" origin_x="110.987332" origin_y="83.462368" ch_offset_x="110.3052658" ch_offset_y="40" color_offset_x="110.987332" color_offset_y="-4">
  <g>
    <title>Layer 1</title>
    <g>
      <g>
        <polyline style="fill: gray;stroke: black;stroke-width: 1;" points="217.296746 51.543966, 204.163422 51.543966 204.163422 51.543966, 195.720462 34.113216 195.720462 34.113216, 191.967866 2.54 191.967866 2.54, 30.056836 2.54 30.056836 2.54, 26.304494 34.113216 26.304494 34.113216, 17.861534 51.543966 17.861534 51.543966, 4.728972 51.543966 4.728972 51.543966, 3.894836 63.192152 3.894836 63.192152, 2.54 82.130646 2.54 82.130646, 2.54 85.773006 2.54 85.773006, 4.728972 116.359432 4.728972 116.359432, 17.861534 116.359432 17.861534 116.359432, 26.304494 133.790182 26.304494 133.790182, 30.056836 165.363398 30.056836 165.363398, 191.967866 165.363398 191.967866 165.363398, 195.720462 133.790182 195.720462 133.790182, 204.163422 116.359432 204.163422 116.359432, 217.296746 116.359432 217.296746 116.359432, 218.136978 104.609138 218.136978 104.609138, 219.484956 85.773006 219.484956 85.773006, 219.484956 82.130646 219.484956 82.130646, 218.129104 63.180468 218.129104 63.180468, 217.296746 51.543966 217.296746 51.543966, 217.296746 51.543966"/>
      </g>
      <g>
        <polyline style="fill: gray;stroke: black;stroke-width: 1;" points="210.366102 53.864002, 191.76492 53.864002 191.76492 53.864002, 191.76492 114.039396 191.76492 114.039396, 210.366102 114.039396 210.366102 114.039396, 212.337904 104.415336 212.337904 104.415336, 212.956648 86.983824 212.956648 86.983824, 212.956648 80.919828 212.956648 80.919828, 212.30844 63.165736 212.30844 63.165736, 210.366102 53.864002 210.366102 53.864002, 210.366102 53.864002"/>
      </g>
      <g>
        <polyline style="fill: gray;stroke: black;stroke-width: 1;" points="11.659616 53.864002, 30.260036 53.864002 30.260036 53.864002, 30.260036 114.039396 30.260036 114.039396, 11.659616 114.039396 11.659616 114.039396, 9.68756 104.418384 9.68756 104.418384, 9.068308 86.983824 9.068308 86.983824, 9.068308 80.919828 9.068308 80.919828, 9.750298 62.813946 9.750298 62.813946, 11.659616 53.864002 11.659616 53.864002, 11.659616 53.864002"/>
      </g>
      <g>
        <polyline style="fill: gray;stroke: black;stroke-width: 1;" points="212.30844 63.165736, 210.366102 53.864002 210.366102 53.864002, 210.178396 53.864002 210.178396 53.864002, 11.659616 53.864002 11.659616 53.864002, 11.47191 53.864002 11.47191 53.864002, 11.47191 54.741572 11.47191 54.741572, 9.750298 62.813946 9.750298 62.813946, 9.068308 80.919828 9.068308 80.919828, 9.068308 86.983824 9.068308 86.983824, 9.68756 104.418384 9.68756 104.418384, 11.47191 113.126266 11.47191 113.126266, 11.47191 114.039396 11.47191 114.039396, 11.659616 114.039396 11.659616 114.039396, 210.178396 114.039396 210.178396 114.039396, 210.366102 114.039396 210.366102 114.039396, 212.337904 104.415336 212.337904 104.415336, 212.956648 86.983824 212.956648 86.983824, 212.956648 80.919828 212.956648 80.919828, 212.30844 63.165736"/>
      </g>
      <g>
        <polyline style="fill: gray;stroke: black;stroke-width: 1;" points="191.562482 99.135692, 188.539374 99.135692 188.539374 99.135692, 188.539374 68.768468 188.539374 68.768468, 191.562482 68.768468 191.562482 68.768468, 191.562482 99.135692"/>
      </g>
      <g>
        <polyline style="fill: gray;stroke: black;stroke-width: 1;" points="33.079182 99.135692, 30.056836 99.135692 30.056836 99.135692, 30.056836 68.768468 30.056836 68.768468, 33.079182 68.768468 33.079182 68.768468, 33.079182 99.135692"/>
      </g>
      <g>
        <polyline style="fill: gray;stroke: black;stroke-width: 1;" points="187.461144 66.976498, 186.183778 51.51755 186.183778 51.51755, 181.474872 20.531074 181.474872 20.531074, 40.17645 20.531074 40.17645 20.531074, 35.503104 51.223164 35.503104 51.223164, 34.189162 66.976498 34.189162 66.976498, 33.080706 66.976498 33.080706 66.976498, 33.080706 101.110796 33.080706 101.110796, 35.741102 101.110796 35.741102 101.110796, 35.741102 112.023398 35.741102 112.023398, 38.402006 115.66017 38.402006 115.66017, 42.17162 132.727446 42.17162 132.727446, 47.715424 142.240762 47.715424 142.240762, 55.919624 142.240762 55.919624 142.240762, 59.356752 146.577812 59.356752 146.577812, 162.293808 146.577812 162.293808 146.577812, 165.730682 142.240762 165.730682 142.240762, 173.934882 142.240762 173.934882 142.240762, 179.478686 132.727446 179.478686 132.727446, 183.2483 115.66017 183.2483 115.66017, 185.909458 112.023398 185.909458 112.023398, 185.909458 101.110796 185.909458 101.110796, 188.570362 101.110796 188.570362 101.110796, 188.570362 66.976498 188.570362 66.976498, 187.461144 66.976498 187.461144 66.976498, 187.461144 66.976498"/>
      </g>
      <g>
        <polyline style="fill: gray;stroke: black;stroke-width: 1;" points="60.561982 89.621614, 60.898278 63.519304 60.898278 63.519304, 62.348618 42.95775 62.348618 42.95775, 66.326766 20.531074 66.326766 20.531074, 58.585354 20.531074 58.585354 20.531074, 54.60492 42.972482 54.60492 42.972482, 53.155342 63.557912 53.155342 63.557912, 52.82057 89.621614 52.82057 89.621614, 60.561982 89.621614"/>
      </g>
      <g>
        <polyline style="fill: gray;stroke: black;stroke-width: 1;" points="161.316416 89.621614, 161.007044 64.228472 161.007044 64.228472, 159.641286 44.022772 159.641286 44.022772, 155.551632 20.531074 155.551632 20.531074, 163.293044 20.531074 163.293044 20.531074, 167.34917 43.694096 167.34917 43.694096, 168.748456 64.218566 168.748456 64.218566, 169.05859 89.621614 169.05859 89.621614, 161.316416 89.621614"/>
      </g>
      <g>
        <polyline style="fill: gray;stroke: black;stroke-width: 1;" points="188.570362 89.621614, 188.570362 109.539024 188.570362 109.539024, 185.909458 109.539024 185.909458 109.539024, 185.909458 118.428262 185.909458 118.428262, 183.2483 121.39168 183.2483 121.39168, 179.478686 135.29564 179.478686 135.29564, 42.17162 135.29564 42.17162 135.29564, 38.402006 121.39168 38.402006 121.39168, 35.741102 118.428262 35.741102 118.428262, 35.741102 109.539024 35.741102 109.539024, 33.080706 109.539024 33.080706 109.539024, 33.080706 89.621614 33.080706 89.621614, 186.512454 89.621614 186.512454 89.621614, 188.570362 89.621614"/>
      </g>
      <g>
        <polyline style="fill: gray;stroke: black;stroke-width: 1;" points="139.727686 146.577812, 81.923382 146.577812 81.923382 146.577812, 81.923382 141.364208 81.923382 141.364208, 139.727686 141.364208 139.727686 141.364208, 139.727686 146.577812"/>
      </g>
      <g>
        <polyline style="fill: gray;stroke: black;stroke-width: 1;" points="172.812456 115.082066, 48.884332 115.519962 48.884332 115.519962, 48.59528 93.356176 48.59528 93.356176, 173.055026 93.356176 173.055026 93.356176, 173.055026 106.927396 173.055026 106.927396, 172.812456 115.082066"/>
      </g>
      <g>
        <polyline style="fill: gray;stroke: black;stroke-width: 1;" points="112.185196 132.322062, 108.559092 132.322062 108.559092 132.322062, 108.559092 93.356176 108.559092 93.356176, 112.185196 93.356176 112.185196 93.356176, 112.185196 132.322062 112.185196 132.322062, 112.185196 132.322062"/>
      </g>
      <g>
        <polyline style="fill: gray;stroke: black;stroke-width: 1;" points="124.834142 132.322062, 121.207784 132.322062 121.207784 132.322062, 121.207784 93.356176 121.207784 93.356176, 124.834142 93.356176 124.834142 93.356176, 124.834142 132.322062 124.834142 132.322062, 124.834142 132.322062"/>
      </g>
      <g>
        <polyline style="fill: gray;stroke: black;stroke-width: 1;" points="99.623118 132.322062, 95.996252 132.322062 95.996252 132.322062, 95.996252 93.356176 95.996252 93.356176, 99.623118 93.356176 99.623118 93.356176, 99.623118 132.322062 99.623118 132.322062, 99.623118 132.322062"/>
      </g>
      <g>
        <polyline style="fill: gray;stroke: black;stroke-width: 1;" points="131.223512 132.322062, 134.72033 132.322062 134.72033 132.322062, 136.921748 112.794542 136.921748 112.794542, 136.921748 93.356176 136.921748 93.356176, 133.295644 93.356176 133.295644 93.356176, 133.295644 112.794542 133.295644 112.794542, 131.223512 132.322062 131.223512 132.322062, 131.223512 132.322062"/>
      </g>
      <g>
        <polyline style="fill: gray;stroke: black;stroke-width: 1;" points="142.620492 132.322062, 146.11731 132.322062 146.11731 132.322062, 148.318728 112.794542 148.318728 112.794542, 148.318728 93.356176 148.318728 93.356176, 144.692624 93.356176 144.692624 93.356176, 144.692624 112.794542 144.692624 112.794542, 142.620492 132.322062 142.620492 132.322062, 142.620492 132.322062"/>
      </g>
      <g>
        <polyline style="fill: gray;stroke: black;stroke-width: 1;" points="153.620724 132.322062, 157.117288 132.322062 157.117288 132.322062, 159.318706 112.794542 159.318706 112.794542, 159.318706 93.356176 159.318706 93.356176, 155.692602 93.356176 155.692602 93.356176, 155.692602 112.794542 155.692602 112.794542, 153.620724 132.322062 153.620724 132.322062, 153.620724 132.322062"/>
      </g>
      <g>
        <polyline style="fill: gray;stroke: black;stroke-width: 1;" points="161.917126 132.322062, 165.414452 132.322062 165.414452 132.322062, 167.61587 112.794542 167.61587 112.794542, 167.61587 93.356176 167.61587 93.356176, 163.989766 93.356176 163.989766 93.356176, 163.989766 112.794542 163.989766 112.794542, 161.917126 132.322062 161.917126 132.322062, 161.917126 132.322062"/>
      </g>
      <g>
        <polyline style="fill: gray;stroke: black;stroke-width: 1;" points="170.983148 132.322062, 174.479966 132.322062 174.479966 132.322062, 176.682146 112.794542 176.682146 112.794542, 176.682146 93.356176 176.682146 93.356176, 173.055026 93.356176 173.055026 93.356176, 173.055026 112.794542 173.055026 112.794542, 170.983148 132.322062 170.983148 132.322062, 170.983148 132.322062"/>
      </g>
      <g>
        <polyline style="fill: gray;stroke: black;stroke-width: 1;" points="90.427556 132.322062, 86.930992 132.322062 86.930992 132.322062, 84.728812 112.794542 84.728812 112.794542, 84.728812 93.356176 84.728812 93.356176, 88.355678 93.356176 88.355678 93.356176, 88.355678 112.794542 88.355678 112.794542, 90.427556 132.322062 90.427556 132.322062, 90.427556 132.322062"/>
      </g>
      <g>
        <polyline style="fill: gray;stroke: black;stroke-width: 1;" points="79.030576 132.322062, 75.534012 132.322062 75.534012 132.322062, 73.331832 112.794542 73.331832 112.794542, 73.331832 93.356176 73.331832 93.356176, 76.957936 93.356176 76.957936 93.356176, 76.957936 112.794542 76.957936 112.794542, 79.030576 132.322062 79.030576 132.322062, 79.030576 132.322062"/>
      </g>
      <g>
        <polyline style="fill: gray;stroke: black;stroke-width: 1;" points="68.030598 132.322062, 64.533018 132.322062 64.533018 132.322062, 62.3316 112.794542 62.3316 112.794542, 62.3316 93.356176 62.3316 93.356176, 65.957704 93.356176 65.957704 93.356176, 65.957704 112.794542 65.957704 112.794542, 68.030598 132.322062 68.030598 132.322062, 68.030598 132.322062"/>
      </g>
      <g>
        <polyline style="fill: gray;stroke: black;stroke-width: 1;" points="59.733434 132.322062, 56.235854 132.322062 56.235854 132.322062, 54.034436 112.794542 54.034436 112.794542, 54.034436 93.356176 54.034436 93.356176, 57.661302 93.356176 57.661302 93.356176, 57.661302 112.794542 57.661302 112.794542, 59.733434 132.322062 59.733434 132.322062, 59.733434 132.322062"/>
      </g>
      <g>
        <polyline style="fill: gray;stroke: black;stroke-width: 1;" points="50.667158 132.322062, 47.170594 132.322062 47.170594 132.322062, 44.968414 112.794542 44.968414 112.794542, 44.968414 93.356176 44.968414 93.356176, 48.59528 93.356176 48.59528 93.356176, 48.59528 112.794542 48.59528 112.794542, 50.667158 132.322062 50.667158 132.322062, 50.667158 132.322062"/>
      </g>
      <g>
        <polyline style="fill: gray;stroke: black;stroke-width: 1;" points="35.291522 52.972716, 34.189162 66.976498 34.189162 66.976498, 33.080706 66.976498 33.080706 66.976498, 33.080706 101.110796 33.080706 101.110796, 35.741102 101.110796 35.741102 101.110796, 35.741102 112.023398 35.741102 112.023398, 38.402006 115.66017 38.402006 115.66017, 38.969442 118.229888 38.969442 118.229888, 39.53002 97.34423 39.53002 97.34423, 38.343078 72.96912 38.343078 72.96912, 35.291522 52.97424 35.291522 52.97424, 35.291522 52.972716 35.291522 52.972716, 35.291522 52.972716"/>
      </g>
      <g>
        <polyline style="fill: gray;stroke: black;stroke-width: 1;" points="186.3598 52.972716, 187.461144 66.976498 187.461144 66.976498, 188.570362 66.976498 188.570362 66.976498, 188.570362 101.110796 188.570362 101.110796, 185.909458 101.110796 185.909458 101.110796, 185.909458 112.023398 185.909458 112.023398, 183.2483 115.66017 183.2483 115.66017, 182.680864 118.229888 182.680864 118.229888, 182.119778 97.693226 182.119778 97.693226, 183.17464 74.396854 183.17464 74.396854, 186.3598 52.97424 186.3598 52.97424, 186.3598 52.972716 186.3598 52.972716, 186.3598 52.972716"/>
      </g>
    </g>
  </g>
</svg>
