<?xml version="1.0" encoding="utf-8"?>
<!-- Generator: SVG Export - SVG Version: 6.00 Build 1  -->
<!-- FXGUID: [5C05E3D1-64EE-11E6-90A8-F0761CCEA3DE] SYMID: [14133]  -->
<svg xmlns="http://www.w3.org/2000/svg" version="1.1" ch_offset="0" color_bar_width="66" width="326.675242" height="267.402818" origin_x="157.842712" origin_y="128.014476" ch_offset_x="158.9569592" ch_offset_y="40" color_offset_x="157.842712" color_offset_y="-4" fxtype_offset_x="158.9569592" fxtype_offset_y="281.856434" fxtype_offset_value="3Solo">
  <g>
    <title>Layer 1</title>
    <g>
      <g>
        <polyline style="fill: gray;stroke: black;stroke-width: 1;" points="305.894486 95.154496, 298.101766 95.154496 298.101766 95.154496, 298.101766 118.18493 298.101766 118.18493, 291.751766 118.18493 291.751766 118.18493, 291.751766 101.063552 291.751766 101.063552, 284.825186 101.063552 284.825186 101.063552, 284.825186 158.639764 284.825186 158.639764, 291.751766 158.639764 291.751766 158.639764, 291.751766 141.518386 291.751766 141.518386, 298.101766 141.518386 298.101766 141.518386, 298.101766 164.549582 298.101766 164.549582, 305.894486 164.549582 305.894486 164.549582, 313.975242 150.003764 313.975242 150.003764, 313.975242 109.70006 313.975242 109.70006, 305.894486 95.154496"/>
      </g>
      <g>
        <polyline style="fill: gray;stroke: black;stroke-width: 1;" points="10.701528 95.154496, 18.570702 95.154496 18.570702 95.154496, 18.570702 118.18493 18.570702 118.18493, 24.983694 118.18493 24.983694 118.18493, 24.983694 101.063552 24.983694 101.063552, 31.979362 101.063552 31.979362 101.063552, 31.979362 158.639764 31.979362 158.639764, 24.983694 158.639764 24.983694 158.639764, 24.983694 141.518386 24.983694 141.518386, 18.570702 141.518386 18.570702 141.518386, 18.570702 164.549582 18.570702 164.549582, 10.701528 164.549582 10.701528 164.549582, 2.54 150.003764 2.54 150.003764, 2.54 109.70006 2.54 109.70006, 10.701528 95.154496"/>
      </g>
      <g>
        <polyline style="fill: gray;stroke: black;stroke-width: 1;" points="291.751766 158.639764, 24.571198 158.639764 24.571198 158.639764, 24.571198 101.063552 24.571198 101.063552, 291.751766 101.063552 291.751766 101.063552, 291.751766 158.639764"/>
      </g>
      <g>
        <polyline style="fill: gray;stroke: black;stroke-width: 1;" points="262.797798 254.702818, 262.797798 228.031802 262.797798 228.031802, 274.344384 154.079702 274.344384 154.079702, 284.736794 154.079702 284.736794 154.079702, 284.736794 108.011976 284.736794 108.011976, 277.808436 108.011976 277.808436 108.011976, 277.808436 11.632438 277.808436 11.632438, 272.03527 2.54 272.03527 2.54, 243.168678 2.54 243.168678 2.54, 243.168678 7.389368 243.168678 7.389368, 254.715264 7.389368 254.715264 7.389368, 254.715264 12.238736 254.715264 12.238736, 189.477396 12.238736 189.477396 12.238736, 189.477396 3.752342 189.477396 3.752342, 127.126238 3.752342 127.126238 3.752342, 127.126238 12.238736 127.126238 12.238736, 61.887608 12.238736 61.887608 12.238736, 61.887608 7.389368 61.887608 7.389368, 73.434194 7.389368 73.434194 7.389368, 73.434194 2.54 73.434194 2.54, 44.568364 2.54 44.568364 2.54, 38.794436 11.632438 38.794436 11.632438, 38.794436 108.011976 38.794436 108.011976, 31.86684 108.011976 31.86684 108.011976, 31.86684 154.079702 31.86684 154.079702, 42.258488 154.079702 42.258488 154.079702, 53.805074 228.031802 53.805074 228.031802, 53.805074 254.702818 53.805074 254.702818, 262.797798 254.702818"/>
      </g>
      <g>
        <polyline style="fill: gray;stroke: black;stroke-width: 1;" points="189.433962 21.364448, 273.990054 21.364448 273.990054 21.364448, 268.50594 11.970512 268.50594 11.970512, 189.433962 11.970512 189.433962 11.970512, 189.433962 21.364448"/>
      </g>
      <g>
        <polyline style="fill: gray;stroke: black;stroke-width: 1;" points="127.168148 11.970512, 48.09617 11.970512 48.09617 11.970512, 42.612818 21.364448 42.612818 21.364448, 127.168148 21.364448 127.168148 21.364448, 127.168148 11.970512"/>
      </g>
      <g>
        <polyline style="fill: gray;stroke: black;stroke-width: 1;" points="262.838946 254.702818, 53.763926 254.702818 53.763926 254.702818, 53.763926 238.943388 53.763926 238.943388, 262.838946 238.943388 262.838946 238.943388, 262.838946 254.702818"/>
      </g>
      <g>
        <polyline style="fill: gray;stroke: black;stroke-width: 1;" points="53.815996 72.468232, 53.815996 208.639156 53.815996 208.639156, 58.037476 208.639156 58.037476 208.639156, 64.370458 179.545488 64.370458 179.545488, 64.370458 72.468232 64.370458 72.468232, 53.815996 72.468232"/>
      </g>
      <g>
        <polyline style="fill: gray;stroke: black;stroke-width: 1;" points="74.923904 72.468232, 74.923904 208.639156 74.923904 208.639156, 79.145384 208.639156 79.145384 208.639156, 85.478366 179.545488 85.478366 179.545488, 85.478366 72.468232 85.478366 72.468232, 74.923904 72.468232"/>
      </g>
      <g>
        <polyline style="fill: gray;stroke: black;stroke-width: 1;" points="96.032828 72.468232, 96.032828 208.639156 96.032828 208.639156, 100.254308 208.639156 100.254308 208.639156, 106.586274 179.545488 106.586274 179.545488, 106.586274 72.468232 106.586274 72.468232, 96.032828 72.468232"/>
      </g>
      <g>
        <polyline style="fill: gray;stroke: black;stroke-width: 1;" points="117.140736 72.468232, 117.140736 208.639156 117.140736 208.639156, 121.362216 208.639156 121.362216 208.639156, 127.694436 179.545488 127.694436 179.545488, 127.694436 72.468232 127.694436 72.468232, 117.140736 72.468232"/>
      </g>
      <g>
        <polyline style="fill: gray;stroke: black;stroke-width: 1;" points="262.787638 72.468232, 262.787638 208.639156 262.787638 208.639156, 258.565396 208.639156 258.565396 208.639156, 252.23343 179.545488 252.23343 179.545488, 252.23343 72.468232 252.23343 72.468232, 262.787638 72.468232"/>
      </g>
      <g>
        <polyline style="fill: gray;stroke: black;stroke-width: 1;" points="241.678968 72.468232, 241.678968 208.639156 241.678968 208.639156, 237.457488 208.639156 237.457488 208.639156, 231.125268 179.545488 231.125268 179.545488, 231.125268 72.468232 231.125268 72.468232, 241.678968 72.468232"/>
      </g>
      <g>
        <polyline style="fill: gray;stroke: black;stroke-width: 1;" points="220.570806 72.468232, 220.570806 208.639156 220.570806 208.639156, 216.34958 208.639156 216.34958 208.639156, 210.01736 179.545488 210.01736 179.545488, 210.01736 72.468232 210.01736 72.468232, 220.570806 72.468232"/>
      </g>
      <g>
        <polyline style="fill: gray;stroke: black;stroke-width: 1;" points="199.462898 72.468232, 199.462898 208.639156 199.462898 208.639156, 195.240656 208.639156 195.240656 208.639156, 188.908436 179.545488 188.908436 179.545488, 188.908436 72.468232 188.908436 72.468232, 199.462898 72.468232"/>
      </g>
      <g>
        <polyline style="fill: gray;stroke: black;stroke-width: 1;" points="151.759666 72.468232, 148.680678 208.639156 148.680678 208.639156, 143.292576 208.639156 143.292576 208.639156, 140.213842 72.468232 140.213842 72.468232, 151.759666 72.468232"/>
      </g>
      <g>
        <polyline style="fill: gray;stroke: black;stroke-width: 1;" points="176.38903 72.468232, 173.310296 208.639156 173.310296 208.639156, 167.922956 208.639156 167.922956 208.639156, 164.843968 72.468232 164.843968 72.468232, 176.38903 72.468232"/>
      </g>
      <g>
        <polyline style="fill: gray;stroke: black;stroke-width: 1;" points="284.724348 108.011976, 277.79599 108.011976 277.79599 108.011976, 274.331938 154.079702 274.331938 154.079702, 284.724348 154.079702 284.724348 154.079702, 284.724348 108.011976"/>
      </g>
      <g>
        <polyline style="fill: gray;stroke: black;stroke-width: 1;" points="31.878524 108.011976, 38.806882 108.011976 38.806882 108.011976, 42.270934 154.079702 42.270934 154.079702, 31.878524 154.079702 31.878524 154.079702, 31.878524 108.011976"/>
      </g>
      <g>
        <polyline style="fill: gray;stroke: black;stroke-width: 1;" points="277.79599 72.468232, 38.806882 72.468232 38.806882 72.468232, 38.806882 65.599056 38.806882 65.599056, 277.79599 65.599056 277.79599 65.599056, 277.79599 72.468232"/>
      </g>
    </g>
  </g>
</svg>
