<?xml version="1.0" encoding="utf-8"?>
<!-- Generator: www.crescit.com, SVG Export - SVG Version: 6.00 Build 1  -->
<!-- FXGUID: [4DB625FC-0683-11EA-B8D7-525400685065] SYMID: [18928]  -->
<svg xmlns="http://www.w3.org/2000/svg" version="1.1" ch_offset="0" color_bar_width="66" width="875.24082" height="1550.95448" origin_x="432.02352" origin_y="735.73894" ch_offset_x="431.7321566" ch_offset_y="40" color_offset_x="432.02352" color_offset_y="-4">
  <g>
    <title>Layer 1</title>
    <g>
      <g>
        <polyline style="fill: gray;stroke: black;stroke-width: 1;" points="821.5884 1509.00384, 43.49242 1509.00384 43.49242 1509.00384, 43.49242 52.26812 43.49242 52.26812, 821.5884 52.26812 821.5884 52.26812, 821.5884 1509.00384"/>
      </g>
      <g>
        <polyline style="fill: gray;stroke: black;stroke-width: 1;" points="862.54082 1538.25448, 2.54 1538.25448 2.54 1538.25448, 2.54 18.62836 2.54 18.62836, 862.54082 18.62836 862.54082 18.62836, 862.54082 1538.25448"/>
      </g>
      <g>
        <polyline style="fill: gray;stroke: black;stroke-width: 1;" points="315.533532 1011.72518, 107.84586 1011.72518 107.84586 1011.72518, 107.84586 1000.0234 107.84586 1000.0234, 315.533532 1000.0234 315.533532 1000.0234, 315.533532 1011.72518"/>
      </g>
      <g>
        <polyline style="fill: gray;stroke: black;stroke-width: 1;" points="315.533532 1055.60114, 107.84586 1055.60114 107.84586 1055.60114, 107.84586 1043.89936 107.84586 1043.89936, 315.533532 1043.89936 315.533532 1043.89936, 315.533532 1055.60114"/>
      </g>
      <g>
        <polyline style="fill: gray;stroke: black;stroke-width: 1;" points="315.533532 1033.66316, 107.84586 1033.66316 107.84586 1033.66316, 107.84586 1021.96138 107.84586 1021.96138, 315.533532 1021.96138 315.533532 1021.96138, 315.533532 1033.66316"/>
      </g>
      <g>
        <polyline style="fill: gray;stroke: black;stroke-width: 1;" points="315.533532 1099.47964, 107.84586 1099.47964 107.84586 1099.47964, 107.84586 1087.77786 107.84586 1087.77786, 315.533532 1087.77786 315.533532 1087.77786, 315.533532 1099.47964"/>
      </g>
      <g>
        <polyline style="fill: gray;stroke: black;stroke-width: 1;" points="315.533532 1121.41762, 107.84586 1121.41762 107.84586 1121.41762, 107.84586 1109.71838 107.84586 1109.71838, 315.533532 1109.71838 315.533532 1109.71838, 315.533532 1121.41762"/>
      </g>
      <g>
        <polyline style="fill: gray;stroke: black;stroke-width: 1;" points="315.533532 1143.3556, 107.84586 1143.3556 107.84586 1143.3556, 107.84586 1131.65636 107.84586 1131.65636, 315.533532 1131.65636 315.533532 1131.65636, 315.533532 1143.3556"/>
      </g>
      <g>
        <polyline style="fill: gray;stroke: black;stroke-width: 1;" points="315.533532 1165.29612, 107.84586 1165.29612 107.84586 1165.29612, 107.84586 1153.59434 107.84586 1153.59434, 315.533532 1153.59434 315.533532 1153.59434, 315.533532 1165.29612"/>
      </g>
      <g>
        <polyline style="fill: gray;stroke: black;stroke-width: 1;" points="315.533532 1187.2341, 107.84586 1187.2341 107.84586 1187.2341, 107.84586 1175.53232 107.84586 1175.53232, 315.533532 1175.53232 315.533532 1175.53232, 315.533532 1187.2341"/>
      </g>
      <g>
        <polyline style="fill: gray;stroke: black;stroke-width: 1;" points="315.533532 1209.17208, 107.84586 1209.17208 107.84586 1209.17208, 107.84586 1197.47284 107.84586 1197.47284, 315.533532 1197.47284 315.533532 1197.47284, 315.533532 1209.17208"/>
      </g>
      <g>
        <polyline style="fill: gray;stroke: black;stroke-width: 1;" points="536.383484 1011.72518, 328.697082 1011.72518 328.697082 1011.72518, 328.697082 1000.0234 328.697082 1000.0234, 536.383484 1000.0234 536.383484 1000.0234, 536.383484 1011.72518"/>
      </g>
      <g>
        <polyline style="fill: gray;stroke: black;stroke-width: 1;" points="536.383484 1033.66316, 328.697082 1033.66316 328.697082 1033.66316, 328.697082 1021.96138 328.697082 1021.96138, 536.383484 1021.96138 536.383484 1021.96138, 536.383484 1033.66316"/>
      </g>
      <g>
        <polyline style="fill: gray;stroke: black;stroke-width: 1;" points="536.383484 1055.60114, 328.697082 1055.60114 328.697082 1055.60114, 328.697082 1043.89936 328.697082 1043.89936, 536.383484 1043.89936 536.383484 1043.89936, 536.383484 1055.60114"/>
      </g>
      <g>
        <polyline style="fill: gray;stroke: black;stroke-width: 1;" points="536.383484 1077.53912, 328.697082 1077.53912 328.697082 1077.53912, 328.697082 1065.83988 328.697082 1065.83988, 536.383484 1065.83988 536.383484 1065.83988, 536.383484 1077.53912"/>
      </g>
      <g>
        <polyline style="fill: gray;stroke: black;stroke-width: 1;" points="536.383484 1099.47964, 328.697082 1099.47964 328.697082 1099.47964, 328.697082 1087.77786 328.697082 1087.77786, 536.383484 1087.77786 536.383484 1087.77786, 536.383484 1099.47964"/>
      </g>
      <g>
        <polyline style="fill: gray;stroke: black;stroke-width: 1;" points="536.383484 1121.41762, 328.697082 1121.41762 328.697082 1121.41762, 328.697082 1109.71838 328.697082 1109.71838, 536.383484 1109.71838 536.383484 1109.71838, 536.383484 1121.41762"/>
      </g>
      <g>
        <polyline style="fill: gray;stroke: black;stroke-width: 1;" points="536.383484 1143.3556, 328.697082 1143.3556 328.697082 1143.3556, 328.697082 1131.65636 328.697082 1131.65636, 536.383484 1131.65636 536.383484 1131.65636, 536.383484 1143.3556"/>
      </g>
      <g>
        <polyline style="fill: gray;stroke: black;stroke-width: 1;" points="536.383484 1165.29612, 328.697082 1165.29612 328.697082 1165.29612, 328.697082 1153.59434 328.697082 1153.59434, 536.383484 1153.59434 536.383484 1153.59434, 536.383484 1165.29612"/>
      </g>
      <g>
        <polyline style="fill: gray;stroke: black;stroke-width: 1;" points="536.383484 1187.2341, 328.697082 1187.2341 328.697082 1187.2341, 328.697082 1175.53232 328.697082 1175.53232, 536.383484 1175.53232 536.383484 1175.53232, 536.383484 1187.2341"/>
      </g>
      <g>
        <polyline style="fill: gray;stroke: black;stroke-width: 1;" points="536.383484 1209.17208, 328.697082 1209.17208 328.697082 1209.17208, 328.697082 1197.47284 328.697082 1197.47284, 536.383484 1197.47284 536.383484 1197.47284, 536.383484 1209.17208"/>
      </g>
      <g>
        <polyline style="fill: gray;stroke: black;stroke-width: 1;" points="757.23496 1011.72518, 549.547034 1011.72518 549.547034 1011.72518, 549.547034 1000.0234 549.547034 1000.0234, 757.23496 1000.0234 757.23496 1000.0234, 757.23496 1011.72518"/>
      </g>
      <g>
        <polyline style="fill: gray;stroke: black;stroke-width: 1;" points="757.23496 1033.66316, 549.547034 1033.66316 549.547034 1033.66316, 549.547034 1021.96138 549.547034 1021.96138, 757.23496 1021.96138 757.23496 1021.96138, 757.23496 1033.66316"/>
      </g>
      <g>
        <polyline style="fill: gray;stroke: black;stroke-width: 1;" points="757.23496 1055.60114, 549.547034 1055.60114 549.547034 1055.60114, 549.547034 1043.89936 549.547034 1043.89936, 757.23496 1043.89936 757.23496 1043.89936, 757.23496 1055.60114"/>
      </g>
      <g>
        <polyline style="fill: gray;stroke: black;stroke-width: 1;" points="757.23496 1077.53912, 549.547034 1077.53912 549.547034 1077.53912, 549.547034 1065.83988 549.547034 1065.83988, 757.23496 1065.83988 757.23496 1065.83988, 757.23496 1077.53912"/>
      </g>
      <g>
        <polyline style="fill: gray;stroke: black;stroke-width: 1;" points="757.23496 1099.47964, 549.547034 1099.47964 549.547034 1099.47964, 549.547034 1087.77786 549.547034 1087.77786, 757.23496 1087.77786 757.23496 1087.77786, 757.23496 1099.47964"/>
      </g>
      <g>
        <polyline style="fill: gray;stroke: black;stroke-width: 1;" points="757.23496 1121.41762, 549.547034 1121.41762 549.547034 1121.41762, 549.547034 1109.71838 549.547034 1109.71838, 757.23496 1109.71838 757.23496 1109.71838, 757.23496 1121.41762"/>
      </g>
      <g>
        <polyline style="fill: gray;stroke: black;stroke-width: 1;" points="757.23496 1143.3556, 549.547034 1143.3556 549.547034 1143.3556, 549.547034 1131.65636 549.547034 1131.65636, 757.23496 1131.65636 757.23496 1131.65636, 757.23496 1143.3556"/>
      </g>
      <g>
        <polyline style="fill: gray;stroke: black;stroke-width: 1;" points="757.23496 1165.29612, 549.547034 1165.29612 549.547034 1165.29612, 549.547034 1153.59434 549.547034 1153.59434, 757.23496 1153.59434 757.23496 1153.59434, 757.23496 1165.29612"/>
      </g>
      <g>
        <polyline style="fill: gray;stroke: black;stroke-width: 1;" points="757.23496 1187.2341, 549.547034 1187.2341 549.547034 1187.2341, 549.547034 1175.53232 549.547034 1175.53232, 757.23496 1175.53232 757.23496 1175.53232, 757.23496 1187.2341"/>
      </g>
      <g>
        <polyline style="fill: gray;stroke: black;stroke-width: 1;" points="757.23496 1209.17208, 549.547034 1209.17208 549.547034 1209.17208, 549.547034 1197.47284 549.547034 1197.47284, 757.23496 1197.47284 757.23496 1197.47284, 757.23496 1209.17208"/>
      </g>
      <g>
        <polyline style="fill: gray;stroke: black;stroke-width: 1;" points="801.11346 970.77149, 65.4304 970.77149 65.4304 970.77149, 65.4304 703.117974 65.4304 703.117974, 801.11346 703.117974 801.11346 703.117974, 801.11346 970.77149"/>
      </g>
      <g>
        <polyline style="fill: gray;stroke: black;stroke-width: 1;" points="198.526654 100.5332, 246.791988 100.5332 246.791988 100.5332, 296.519854 110.7694 296.519854 110.7694, 296.519854 135.636 296.519854 135.636, 247.522746 142.94866 247.522746 142.94866, 198.526654 142.94866 198.526654 142.94866, 156.11094 131.24688 156.11094 131.24688, 156.11094 110.7694 156.11094 110.7694, 198.526654 100.5332"/>
      </g>
      <g>
        <polyline style="fill: gray;stroke: black;stroke-width: 1;" points="612.438704 100.5332, 660.703784 100.5332 660.703784 100.5332, 710.43292 110.7694 710.43292 110.7694, 710.43292 135.636 710.43292 135.636, 661.434796 142.94866 661.434796 142.94866, 612.438704 142.94866 612.438704 142.94866, 570.023244 131.24688 570.023244 131.24688, 570.023244 110.7694 570.023244 110.7694, 612.438704 100.5332"/>
      </g>
      <g>
        <polyline style="fill: gray;stroke: black;stroke-width: 1;" points="774.78636 52.26812, 670.942016 52.26812 670.942016 52.26812, 670.942016 2.54 670.942016 2.54, 774.78636 2.54 774.78636 2.54, 774.78636 52.26812"/>
      </g>
      <g>
        <polyline style="fill: gray;stroke: black;stroke-width: 1;" points="198.526654 52.26812, 94.68358 52.26812 94.68358 52.26812, 94.68358 2.54 94.68358 2.54, 198.526654 2.54 198.526654 2.54, 198.526654 52.26812"/>
      </g>
      <g>
        <polyline style="fill: gray;stroke: black;stroke-width: 1;" points="315.533532 1077.53912, 107.84586 1077.53912 107.84586 1077.53912, 107.84586 1065.83988 107.84586 1065.83988, 315.533532 1065.83988 315.533532 1065.83988, 315.533532 1077.53912"/>
      </g>
      <g>
        <polyline style="fill: gray;stroke: black;stroke-width: 1;" points="495.431064 1469.51446, 371.111526 1469.51446 371.111526 1469.51446, 371.111526 1384.68354 371.111526 1384.68354, 495.431064 1384.68354 495.431064 1384.68354, 495.431064 1469.51446"/>
      </g>
      <g>
        <line x1="233.628438" y1="412.0642" x2="233.628438" y2="681.178978" style="stroke-width: 1;stroke: black;"/>
      </g>
      <g>
        <line x1="43.49242" y1="681.178978" x2="821.5884" y2="681.178978" style="stroke-width: 1;stroke: black;"/>
      </g>
      <g>
        <line x1="43.49242" y1="412.0642" x2="821.5884" y2="412.0642" style="stroke-width: 1;stroke: black;"/>
      </g>
      <g>
        <line x1="43.49242" y1="1362.74556" x2="821.5884" y2="1362.74556" style="stroke-width: 1;stroke: black;"/>
      </g>
      <g>
        <line x1="43.49242" y1="1258.9002" x2="821.5884" y2="1258.9002" style="stroke-width: 1;stroke: black;"/>
      </g>
    </g>
  </g>
</svg>
