<?xml version="1.0" encoding="utf-8"?>
<!-- Generator: SVG Export - SVG Version: 6.00 Build 1  -->
<!-- FXGUID: [5BDDE5D8-38A3-11E8-8914-525400685065] SYMID: [14136]  -->
<svg xmlns="http://www.w3.org/2000/svg" version="1.1" ch_offset="0" color_bar_width="66" width="530.3647" height="134.83209" origin_x="259.91058" origin_y="71.651368" ch_offset_x="260.5128394" ch_offset_y="40" color_offset_x="259.91058" color_offset_y="-4">
  <g>
    <title>Layer 1</title>
    <g>
      <g>
        <polyline style="fill: gray;stroke: black;stroke-width: 1;" points="517.6647 109.847634, 2.54 109.847634 2.54 109.847634, 2.54 35.282378 2.54 35.282378, 517.6647 35.282378 517.6647 35.282378, 517.6647 109.847634"/>
      </g>
      <g>
        <polyline style="fill: gray;stroke: black;stroke-width: 1;" points="482.025198 91.78036, 475.270576 91.78036 475.270576 91.78036, 475.270576 53.35016 475.270576 53.35016, 482.025198 53.35016 482.025198 53.35016, 482.025198 91.78036"/>
      </g>
      <g>
        <polyline style="fill: gray;stroke: black;stroke-width: 1;" points="517.6647 109.847634, 482.025198 109.847634 482.025198 109.847634, 482.025198 35.282378 482.025198 35.282378, 517.6647 35.282378 517.6647 35.282378, 517.6647 109.847634"/>
      </g>
      <g>
        <polyline style="fill: gray;stroke: black;stroke-width: 1;" points="38.17874 91.78036, 44.933362 91.78036 44.933362 91.78036, 44.933362 53.35016 44.933362 53.35016, 38.17874 53.35016 38.17874 53.35016, 38.17874 91.78036"/>
      </g>
      <g>
        <polyline style="fill: gray;stroke: black;stroke-width: 1;" points="2.54 109.847634, 38.17874 109.847634 38.17874 109.847634, 38.17874 35.282378 38.17874 35.282378, 2.54 35.282378 2.54 35.282378, 2.54 109.847634"/>
      </g>
      <g>
        <polyline style="fill: gray;stroke: black;stroke-width: 1;" points="453.045576 22.615652, 453.045576 9.4234 453.045576 9.4234, 436.624222 9.4234 436.624222 9.4234, 436.624222 12.8651 436.624222 12.8651, 424.744388 12.8651 424.744388 12.8651, 424.744388 2.54 424.744388 2.54, 469.467184 2.54 469.467184 2.54, 469.467184 22.902418 469.467184 22.902418, 475.406212 22.902418 475.406212 22.902418, 475.406212 96.608138 475.406212 96.608138, 451.648068 96.608138 451.648068 96.608138, 441.619132 113.099342 441.619132 113.099342, 441.619132 122.13209 441.619132 122.13209, 78.584806 122.13209 78.584806 122.13209, 78.584806 113.099342 78.584806 113.099342, 68.556632 96.608138 68.556632 96.608138, 44.797726 96.608138 44.797726 96.608138, 44.797726 22.763734 44.797726 22.763734, 50.737516 22.902418 50.737516 22.902418, 50.737516 2.54 50.737516 2.54, 95.459804 2.54 95.459804 2.54, 95.459804 12.8651 95.459804 12.8651, 83.580478 12.8651 83.580478 12.8651, 83.580478 9.4234 83.580478 9.4234, 67.159124 9.4234 67.159124 9.4234, 67.159124 22.615652 67.159124 22.615652, 453.045576 22.615652"/>
      </g>
      <g>
        <polyline style="fill: gray;stroke: black;stroke-width: 1;" points="469.563958 79.399892, 430.781206 111.520224 430.781206 111.520224, 89.423748 111.520224 89.423748 111.520224, 50.640742 79.399892 50.640742 79.399892, 469.563958 79.399892"/>
      </g>
      <g>
        <polyline style="fill: gray;stroke: black;stroke-width: 1;" points="240.564162 79.399892, 223.03867 79.399892 223.03867 79.399892, 223.03867 111.520224 223.03867 111.520224, 240.564162 111.520224 240.564162 111.520224, 240.564162 79.399892"/>
      </g>
      <g>
        <polyline style="fill: gray;stroke: black;stroke-width: 1;" points="183.96204 79.399892, 166.436802 79.399892 166.436802 79.399892, 166.436802 111.520224 166.436802 111.520224, 183.96204 111.520224 183.96204 111.520224, 183.96204 79.399892"/>
      </g>
      <g>
        <polyline style="fill: gray;stroke: black;stroke-width: 1;" points="297.16603 79.399892, 279.640792 79.399892 279.640792 79.399892, 279.640792 111.520224 279.640792 111.520224, 297.16603 111.520224 297.16603 111.520224, 297.16603 79.399892"/>
      </g>
      <g>
        <polyline style="fill: gray;stroke: black;stroke-width: 1;" points="268.864588 79.399892, 251.33935 79.399892 251.33935 79.399892, 251.33935 111.520224 251.33935 111.520224, 268.864588 111.520224 268.864588 111.520224, 268.864588 79.399892"/>
      </g>
      <g>
        <polyline style="fill: gray;stroke: black;stroke-width: 1;" points="155.660598 79.399892, 138.136122 79.399892 138.136122 79.399892, 138.136122 111.520224 138.136122 111.520224, 155.660598 111.520224 155.660598 111.520224, 155.660598 79.399892"/>
      </g>
      <g>
        <polyline style="fill: gray;stroke: black;stroke-width: 1;" points="109.83468 111.520224, 127.360172 111.520224 127.360172 111.520224, 127.360172 79.399892 127.360172 79.399892, 109.83468 79.399892 109.83468 79.399892, 109.83468 111.520224"/>
      </g>
      <g>
        <polyline style="fill: gray;stroke: black;stroke-width: 1;" points="212.26272 79.399892, 194.737482 79.399892 194.737482 79.399892, 194.737482 111.520224 194.737482 111.520224, 212.26272 111.520224 212.26272 111.520224, 212.26272 79.399892"/>
      </g>
      <g>
        <polyline style="fill: gray;stroke: black;stroke-width: 1;" points="99.059492 79.399892, 81.534254 79.399892 81.534254 79.399892, 81.534254 104.986582 81.534254 104.986582, 89.423748 111.520224 89.423748 111.520224, 99.059492 111.520224 99.059492 111.520224, 99.059492 79.399892"/>
      </g>
      <g>
        <polyline style="fill: gray;stroke: black;stroke-width: 1;" points="438.670446 79.399892, 421.145208 79.399892 421.145208 79.399892, 421.145208 111.520224 421.145208 111.520224, 430.781206 111.520224 430.781206 111.520224, 438.670446 104.986582 438.670446 104.986582, 438.670446 79.399892"/>
      </g>
      <g>
        <polyline style="fill: gray;stroke: black;stroke-width: 1;" points="325.46671 79.399892, 307.941218 79.399892 307.941218 79.399892, 307.941218 111.520224 307.941218 111.520224, 325.46671 111.520224 325.46671 111.520224, 325.46671 79.399892"/>
      </g>
      <g>
        <polyline style="fill: gray;stroke: black;stroke-width: 1;" points="353.767898 79.399892, 336.24266 79.399892 336.24266 79.399892, 336.24266 111.520224 336.24266 111.520224, 353.767898 111.520224 353.767898 111.520224, 353.767898 79.399892"/>
      </g>
      <g>
        <polyline style="fill: gray;stroke: black;stroke-width: 1;" points="410.369258 79.399892, 392.84402 79.399892 392.84402 79.399892, 392.84402 111.520224 392.84402 111.520224, 410.369258 111.520224 410.369258 111.520224, 410.369258 79.399892"/>
      </g>
      <g>
        <polyline style="fill: gray;stroke: black;stroke-width: 1;" points="382.068578 79.399892, 364.54334 79.399892 364.54334 79.399892, 364.54334 111.520224 364.54334 111.520224, 382.068578 111.520224 382.068578 111.520224, 382.068578 79.399892"/>
      </g>
      <g>
        <polyline style="fill: gray;stroke: black;stroke-width: 1;" points="475.307152 51.155092, 475.307152 22.763734 475.307152 22.763734, 434.995574 22.763734 434.995574 22.763734, 420.845234 44.272454 420.845234 44.272454, 99.358704 44.272454 99.358704 44.272454, 85.209126 22.763734 85.209126 22.763734, 44.897548 22.763734 44.897548 22.763734, 44.897548 51.155092 44.897548 51.155092, 475.307152 51.155092"/>
      </g>
    </g>
  </g>
</svg>
