<?xml version="1.0" encoding="UTF-8"?>
<!DOCTYPE svg PUBLIC "-//W3C//DTD SVG 1.1//EN" "http://www.w3.org/Graphics/SVG/1.1/DTD/svg11.dtd">
<svg xmlns="http://www.w3.org/2000/svg" version="1.1" width="740px" height="853px" style="shape-rendering:geometricPrecision; text-rendering:geometricPrecision; image-rendering:optimizeQuality; fill-rule:evenodd; clip-rule:evenodd" xmlns:xlink="http://www.w3.org/1999/xlink">
<g><path style="opacity:0.801" fill="#101010" d="M 186.5,134.5 C 322.502,134.167 458.502,134.5 594.5,135.5C 592.604,136.466 590.604,136.799 588.5,136.5C 588.5,206.5 588.5,276.5 588.5,346.5C 590.924,346.192 593.257,346.526 595.5,347.5C 597.849,353.555 600.182,359.555 602.5,365.5C 600.5,365.5 598.5,365.5 596.5,365.5C 596.5,373.167 596.5,380.833 596.5,388.5C 598.5,388.5 600.5,388.5 602.5,388.5C 602.5,393.5 602.5,398.5 602.5,403.5C 609.833,403.5 617.167,403.5 624.5,403.5C 624.5,405.833 624.5,408.167 624.5,410.5C 627.5,410.5 630.5,410.5 633.5,410.5C 633.5,408.167 633.5,405.833 633.5,403.5C 637.167,403.5 640.833,403.5 644.5,403.5C 644.5,414.833 644.5,426.167 644.5,437.5C 647.167,437.5 649.833,437.5 652.5,437.5C 652.5,438.833 652.5,440.167 652.5,441.5C 658.5,441.5 664.5,441.5 670.5,441.5C 670.5,450.5 670.5,459.5 670.5,468.5C 664.5,468.5 658.5,468.5 652.5,468.5C 652.5,469.833 652.5,471.167 652.5,472.5C 649.833,472.5 647.167,472.5 644.5,472.5C 644.667,483.838 644.5,495.172 644,506.5C 640.927,507.617 637.76,507.784 634.5,507C 633.565,504.619 633.232,502.119 633.5,499.5C 630.833,499.5 628.167,499.5 625.5,499.5C 625.667,487.162 625.5,474.829 625,462.5C 624.667,477.167 624.333,491.833 624,506.5C 617,507.833 610,507.833 603,506.5C 602.5,538.832 602.333,571.165 602.5,603.5C 593.167,603.5 583.833,603.5 574.5,603.5C 574.975,617.922 574.142,632.255 572,646.5C 567.804,656.755 563.804,667.088 560,677.5C 548.192,690.91 536.025,704.077 523.5,717C 434.833,717.667 346.167,717.667 257.5,717C 245.278,704.114 233.111,691.281 221,678.5C 217.386,668.321 213.386,658.321 209,648.5C 208.762,644.778 208.262,641.111 207.5,637.5C 208.478,626.218 208.812,614.885 208.5,603.5C 198.5,603.5 188.5,603.5 178.5,603.5C 178.5,571.5 178.5,539.5 178.5,507.5C 171.159,507.666 163.826,507.5 156.5,507C 155.565,504.619 155.232,502.119 155.5,499.5C 152.833,499.5 150.167,499.5 147.5,499.5C 147.5,502.167 147.5,504.833 147.5,507.5C 144.167,507.5 140.833,507.5 137.5,507.5C 137.5,495.833 137.5,484.167 137.5,472.5C 134.5,472.5 131.5,472.5 128.5,472.5C 128.5,471.167 128.5,469.833 128.5,468.5C 122.167,468.5 115.833,468.5 109.5,468.5C 109.334,459.827 109.5,451.16 110,442.5C 116.076,441.524 122.242,441.19 128.5,441.5C 128.5,440.167 128.5,438.833 128.5,437.5C 131.5,437.5 134.5,437.5 137.5,437.5C 137.5,426.167 137.5,414.833 137.5,403.5C 140.833,403.5 144.167,403.5 147.5,403.5C 147.5,405.833 147.5,408.167 147.5,410.5C 150.167,410.5 152.833,410.5 155.5,410.5C 155.5,408.167 155.5,405.833 155.5,403.5C 163.167,403.5 170.833,403.5 178.5,403.5C 178.5,398.5 178.5,393.5 178.5,388.5C 180.5,388.5 182.5,388.5 184.5,388.5C 184.5,380.833 184.5,373.167 184.5,365.5C 182.5,365.5 180.5,365.5 178.5,365.5C 180.818,359.555 183.151,353.555 185.5,347.5C 187.743,346.526 190.076,346.192 192.5,346.5C 192.5,276.5 192.5,206.5 192.5,136.5C 189.918,136.975 187.918,136.308 186.5,134.5 Z"/></g>
<g><path style="opacity:1" fill="#585858" d="M 213.5,136.5 C 207.5,136.5 201.5,136.5 195.5,136.5C 195.5,206.833 195.5,277.167 195.5,347.5C 194.501,277.002 194.167,206.335 194.5,135.5C 201.022,135.177 207.355,135.51 213.5,136.5 Z"/></g>
<g><path style="opacity:1" fill="#7f7f7f" d="M 213.5,136.5 C 213.5,206.833 213.5,277.167 213.5,347.5C 207.5,347.5 201.5,347.5 195.5,347.5C 195.5,277.167 195.5,206.833 195.5,136.5C 201.5,136.5 207.5,136.5 213.5,136.5 Z"/></g>
<g><path style="opacity:1" fill="#7f7f7f" d="M 215.5,136.5 C 239.5,136.5 263.5,136.5 287.5,136.5C 287.5,206.833 287.5,277.167 287.5,347.5C 263.5,347.5 239.5,347.5 215.5,347.5C 215.5,277.167 215.5,206.833 215.5,136.5 Z"/></g>
<g><path style="opacity:1" fill="#484848" d="M 215.5,136.5 C 239.661,135.502 263.994,135.169 288.5,135.5C 288.833,206.335 288.499,277.002 287.5,347.5C 287.5,277.167 287.5,206.833 287.5,136.5C 263.5,136.5 239.5,136.5 215.5,136.5 Z"/></g>
<g><path style="opacity:1" fill="#575757" d="M 336.5,136.5 C 337.499,206.665 337.833,276.998 337.5,347.5C 321.5,347.5 305.5,347.5 289.5,347.5C 289.5,276.833 289.5,206.167 289.5,135.5C 305.342,135.17 321.009,135.504 336.5,136.5 Z"/></g>
<g><path style="opacity:1" fill="#808080" d="M 336.5,136.5 C 336.5,206.5 336.5,276.5 336.5,346.5C 321.167,346.5 305.833,346.5 290.5,346.5C 290.5,276.5 290.5,206.5 290.5,136.5C 305.833,136.5 321.167,136.5 336.5,136.5 Z"/></g>
<g><path style="opacity:1" fill="#7f7f7f" d="M 338.5,136.5 C 373.167,136.5 407.833,136.5 442.5,136.5C 442.5,206.833 442.5,277.167 442.5,347.5C 407.833,347.5 373.167,347.5 338.5,347.5C 338.5,277.167 338.5,206.833 338.5,136.5 Z"/></g>
<g><path style="opacity:1" fill="#7f7f7f" d="M 444.5,136.5 C 460.167,136.5 475.833,136.5 491.5,136.5C 491.5,206.833 491.5,277.167 491.5,347.5C 475.833,347.5 460.167,347.5 444.5,347.5C 444.5,277.167 444.5,206.833 444.5,136.5 Z"/></g>
<g><path style="opacity:1" fill="#7f7f7f" d="M 493.5,136.5 C 517.5,136.5 541.5,136.5 565.5,136.5C 565.5,206.833 565.5,277.167 565.5,347.5C 541.5,347.5 517.5,347.5 493.5,347.5C 493.5,277.167 493.5,206.833 493.5,136.5 Z"/></g>
<g><path style="opacity:1" fill="#7f7f7f" d="M 567.5,136.5 C 573.5,136.5 579.5,136.5 585.5,136.5C 585.5,206.833 585.5,277.167 585.5,347.5C 579.5,347.5 573.5,347.5 567.5,347.5C 567.5,277.167 567.5,206.833 567.5,136.5 Z"/></g>
<g><path style="opacity:1" fill="#595959" d="M 567.5,136.5 C 573.645,135.51 579.978,135.177 586.5,135.5C 586.833,206.335 586.499,277.002 585.5,347.5C 585.5,277.167 585.5,206.833 585.5,136.5C 579.5,136.5 573.5,136.5 567.5,136.5 Z"/></g>
<g><path style="opacity:1" fill="#7c7c7c" d="M 389.5,362.5 C 387.265,362.205 385.265,362.539 383.5,363.5C 316.167,363.5 248.833,363.5 181.5,363.5C 183.082,358.501 185.082,353.668 187.5,349C 254.833,348.5 322.166,348.333 389.5,348.5C 389.5,353.167 389.5,357.833 389.5,362.5 Z"/></g>
<g><path style="opacity:1" fill="#7c7c7c" d="M 599.5,363.5 C 531.167,363.5 462.833,363.5 394.5,363.5C 393.791,362.596 392.791,362.263 391.5,362.5C 391.5,357.833 391.5,353.167 391.5,348.5C 458.834,348.333 526.167,348.5 593.5,349C 595.918,353.668 597.918,358.501 599.5,363.5 Z"/></g>
<g><path style="opacity:1" fill="#1f1f1f" d="M 181.5,363.5 C 248.833,363.5 316.167,363.5 383.5,363.5C 383.5,364.167 383.5,364.833 383.5,365.5C 367.833,365.5 352.167,365.5 336.5,365.5C 336.167,364.167 335.833,364.167 335.5,365.5C 319.167,365.5 302.833,365.5 286.5,365.5C 286.5,373.5 286.5,381.5 286.5,389.5C 285.862,380.928 285.195,372.928 284.5,365.5C 284.167,365.5 283.833,365.5 283.5,365.5C 258.672,364.502 233.672,364.169 208.5,364.5C 207.833,372.833 207.167,381.167 206.5,389.5C 206.5,381.5 206.5,373.5 206.5,365.5C 200.167,365.5 193.833,365.5 187.5,365.5C 185.5,364.833 183.5,364.167 181.5,363.5 Z"/></g>
<g><path style="opacity:1" fill="#fd0000" d="M 389.5,362.5 C 390.167,362.5 390.833,362.5 391.5,362.5C 392.791,362.263 393.791,362.596 394.5,363.5C 394.5,364.167 394.5,364.833 394.5,365.5C 394.5,373.5 394.5,381.5 394.5,389.5C 394.5,390.167 394.5,390.833 394.5,391.5C 394.5,394.167 394.5,396.833 394.5,399.5C 406.833,399.5 419.167,399.5 431.5,399.5C 431.5,403.5 431.5,407.5 431.5,411.5C 418.788,410.854 406.455,411.52 394.5,413.5C 394.5,418.5 394.5,423.5 394.5,428.5C 394.5,429.167 394.5,429.833 394.5,430.5C 394.5,436.167 394.5,441.833 394.5,447.5C 390.833,447.5 387.167,447.5 383.5,447.5C 383.5,441.167 383.5,434.833 383.5,428.5C 383.5,423.5 383.5,418.5 383.5,413.5C 383.5,412.833 383.5,412.167 383.5,411.5C 371.345,410.505 359.011,410.171 346.5,410.5C 346.5,406.833 346.5,403.167 346.5,399.5C 358.833,399.5 371.167,399.5 383.5,399.5C 383.5,396.833 383.5,394.167 383.5,391.5C 383.5,390.833 383.5,390.167 383.5,389.5C 383.5,381.5 383.5,373.5 383.5,365.5C 383.5,364.833 383.5,364.167 383.5,363.5C 385.265,362.539 387.265,362.205 389.5,362.5 Z"/></g>
<g><path style="opacity:1" fill="#232323" d="M 394.5,363.5 C 462.833,363.5 531.167,363.5 599.5,363.5C 597.5,364.167 595.5,364.833 593.5,365.5C 587.167,365.5 580.833,365.5 574.5,365.5C 574.5,373.5 574.5,381.5 574.5,389.5C 573.862,380.928 573.195,372.928 572.5,365.5C 547.167,365.5 521.833,365.5 496.5,365.5C 495.805,372.928 495.138,380.928 494.5,389.5C 494.5,381.5 494.5,373.5 494.5,365.5C 478.167,365.5 461.833,365.5 445.5,365.5C 445.167,364.167 444.833,364.167 444.5,365.5C 427.833,365.5 411.167,365.5 394.5,365.5C 394.5,364.833 394.5,364.167 394.5,363.5 Z"/></g>
<g><path style="opacity:1" fill="#3e3e3e" d="M 208.5,364.5 C 233.672,364.169 258.672,364.502 283.5,365.5C 258.833,365.5 234.167,365.5 209.5,365.5C 209.5,373.5 209.5,381.5 209.5,389.5C 208.507,381.35 208.174,373.017 208.5,364.5 Z"/></g>
<g><path style="opacity:1" fill="#7f7f7f" d="M 187.5,365.5 C 193.833,365.5 200.167,365.5 206.5,365.5C 206.5,373.5 206.5,381.5 206.5,389.5C 200.167,389.5 193.833,389.5 187.5,389.5C 187.5,381.5 187.5,373.5 187.5,365.5 Z"/></g>
<g><path style="opacity:1" fill="#7e7e7e" d="M 283.5,365.5 C 283.833,365.5 284.167,365.5 284.5,365.5C 284.5,373.5 284.5,381.5 284.5,389.5C 259.5,389.5 234.5,389.5 209.5,389.5C 209.5,381.5 209.5,373.5 209.5,365.5C 234.167,365.5 258.833,365.5 283.5,365.5 Z"/></g>
<g><path style="opacity:1" fill="#7e7e7e" d="M 335.5,365.5 C 335.5,373.5 335.5,381.5 335.5,389.5C 319.167,389.5 302.833,389.5 286.5,389.5C 286.5,381.5 286.5,373.5 286.5,365.5C 302.833,365.5 319.167,365.5 335.5,365.5 Z"/></g>
<g><path style="opacity:1" fill="#7f7e7e" d="M 336.5,365.5 C 352.167,365.5 367.833,365.5 383.5,365.5C 383.5,373.5 383.5,381.5 383.5,389.5C 367.833,389.5 352.167,389.5 336.5,389.5C 336.5,381.5 336.5,373.5 336.5,365.5 Z"/></g>
<g><path style="opacity:1" fill="#7f7f7f" d="M 394.5,365.5 C 411.167,365.5 427.833,365.5 444.5,365.5C 444.5,373.5 444.5,381.5 444.5,389.5C 427.833,389.5 411.167,389.5 394.5,389.5C 394.5,381.5 394.5,373.5 394.5,365.5 Z"/></g>
<g><path style="opacity:1" fill="#7e7e7e" d="M 445.5,365.5 C 461.833,365.5 478.167,365.5 494.5,365.5C 494.5,373.5 494.5,381.5 494.5,389.5C 478.167,389.5 461.833,389.5 445.5,389.5C 445.5,381.5 445.5,373.5 445.5,365.5 Z"/></g>
<g><path style="opacity:1" fill="#7e7e7e" d="M 496.5,365.5 C 521.833,365.5 547.167,365.5 572.5,365.5C 572.5,373.5 572.5,381.5 572.5,389.5C 547.167,389.5 521.833,389.5 496.5,389.5C 496.5,381.5 496.5,373.5 496.5,365.5 Z"/></g>
<g><path style="opacity:1" fill="#7f7f7f" d="M 593.5,365.5 C 593.5,373.5 593.5,381.5 593.5,389.5C 587.167,389.5 580.833,389.5 574.5,389.5C 574.5,381.5 574.5,373.5 574.5,365.5C 580.833,365.5 587.167,365.5 593.5,365.5 Z"/></g>
<g><path style="opacity:1" fill="#7e7e7e" d="M 382.5,391.5 C 382.5,393.833 382.5,396.167 382.5,398.5C 370.322,398.172 358.322,398.505 346.5,399.5C 345.517,403.298 345.183,407.298 345.5,411.5C 290.833,411.5 236.167,411.5 181.5,411.5C 180.724,404.863 180.391,398.196 180.5,391.5C 247.833,391.5 315.167,391.5 382.5,391.5 Z"/></g>
<g><path style="opacity:1" fill="#7f7e7e" d="M 394.5,391.5 C 463.167,391.5 531.833,391.5 600.5,391.5C 600.666,396.844 600.499,402.177 600,407.5C 599.5,408.5 599,409.5 598.5,410.5C 542.837,411.5 487.171,411.833 431.5,411.5C 431.5,407.5 431.5,403.5 431.5,399.5C 419.167,399.5 406.833,399.5 394.5,399.5C 394.5,396.833 394.5,394.167 394.5,391.5 Z"/></g>
<g><path style="opacity:1" fill="#a65858" d="M 382.5,391.5 C 382.833,391.5 383.167,391.5 383.5,391.5C 383.5,394.167 383.5,396.833 383.5,399.5C 371.167,399.5 358.833,399.5 346.5,399.5C 358.322,398.505 370.322,398.172 382.5,398.5C 382.5,396.167 382.5,393.833 382.5,391.5 Z"/></g>
<g><path style="opacity:1" fill="#7e7e7e" d="M 139.5,406.5 C 141.5,406.5 143.5,406.5 145.5,406.5C 145.5,422.5 145.5,438.5 145.5,454.5C 143.5,454.5 141.5,454.5 139.5,454.5C 139.5,438.5 139.5,422.5 139.5,406.5 Z"/></g>
<g><path style="opacity:1" fill="#353535" d="M 139.5,406.5 C 141.607,405.532 143.941,405.198 146.5,405.5C 146.194,408.385 146.527,411.052 147.5,413.5C 147.5,417.167 147.5,420.833 147.5,424.5C 148.292,425.518 149.959,425.851 152.5,425.5C 152.827,435.348 152.494,445.014 151.5,454.5C 151.5,445.167 151.5,435.833 151.5,426.5C 150.167,426.5 148.833,426.5 147.5,426.5C 147.5,435.833 147.5,445.167 147.5,454.5C 146.833,454.5 146.167,454.5 145.5,454.5C 145.5,438.5 145.5,422.5 145.5,406.5C 143.5,406.5 141.5,406.5 139.5,406.5 Z"/></g>
<g><path style="opacity:1" fill="#757575" d="M 157.5,405.5 C 164.833,405.5 172.167,405.5 179.5,405.5C 179.5,407.5 179.5,409.5 179.5,411.5C 172.167,411.5 164.833,411.5 157.5,411.5C 157.5,409.5 157.5,407.5 157.5,405.5 Z"/></g>
<g><path style="opacity:1" fill="#787878" d="M 601.5,405.5 C 608.5,405.5 615.5,405.5 622.5,405.5C 622.5,407.5 622.5,409.5 622.5,411.5C 615.5,411.5 608.5,411.5 601.5,411.5C 601.5,409.5 601.5,407.5 601.5,405.5 Z"/></g>
<g><path style="opacity:1" fill="#313131" d="M 635.5,406.5 C 635.5,422.5 635.5,438.5 635.5,454.5C 634.833,454.5 634.167,454.5 633.5,454.5C 633.5,453.167 633.5,451.833 633.5,450.5C 632.167,450.5 630.833,450.5 629.5,450.5C 629.5,451.833 629.5,453.167 629.5,454.5C 628.178,445.325 628.178,435.992 629.5,426.5C 630.497,434.138 630.831,441.804 630.5,449.5C 632.548,449.84 633.548,449.507 633.5,448.5C 633.5,440.833 633.5,433.167 633.5,425.5C 634.833,425.167 634.833,424.833 633.5,424.5C 633.5,420.833 633.5,417.167 633.5,413.5C 634.167,411.167 634.833,408.833 635.5,406.5 Z"/></g>
<g><path style="opacity:1" fill="#7e7e7e" d="M 635.5,454.5 C 635.5,438.5 635.5,422.5 635.5,406.5C 637.265,405.539 639.265,405.205 641.5,405.5C 641.5,421.833 641.5,438.167 641.5,454.5C 639.5,454.5 637.5,454.5 635.5,454.5 Z"/></g>
<g><path style="opacity:1" fill="#c6211d" d="M 346.5,399.5 C 346.5,403.167 346.5,406.833 346.5,410.5C 359.011,410.171 371.345,410.505 383.5,411.5C 370.833,411.5 358.167,411.5 345.5,411.5C 345.183,407.298 345.517,403.298 346.5,399.5 Z"/></g>
<g><path style="opacity:1" fill="#7f7f7f" d="M 147.5,413.5 C 148.833,413.5 150.167,413.5 151.5,413.5C 151.5,417.167 151.5,420.833 151.5,424.5C 150.167,424.5 148.833,424.5 147.5,424.5C 147.5,420.833 147.5,417.167 147.5,413.5 Z"/></g>
<g><path style="opacity:1" fill="#838383" d="M 157.5,413.5 C 158.83,419.966 159.497,426.799 159.5,434C 159.167,440.833 158.833,447.667 158.5,454.5C 157.501,440.85 157.167,427.183 157.5,413.5 Z"/></g>
<g><path style="opacity:1" fill="#7f7f7f" d="M 161.5,413.5 C 164.833,413.5 168.167,413.5 171.5,413.5C 171.5,427.167 171.5,440.833 171.5,454.5C 168.167,454.5 164.833,454.5 161.5,454.5C 161.5,440.833 161.5,427.167 161.5,413.5 Z"/></g>
<g><path style="opacity:1" fill="#7e7e7e" d="M 173.5,413.5 C 174.833,413.5 176.167,413.5 177.5,413.5C 177.5,427.167 177.5,440.833 177.5,454.5C 176.167,454.5 174.833,454.5 173.5,454.5C 173.5,440.833 173.5,427.167 173.5,413.5 Z"/></g>
<g><path style="opacity:1" fill="#7f7f7f" d="M 383.5,413.5 C 383.5,418.5 383.5,423.5 383.5,428.5C 382.833,428.5 382.167,428.5 381.5,428.5C 380.501,479.664 380.168,530.997 380.5,582.5C 378.265,582.205 376.265,582.539 374.5,583.5C 373.501,532.003 373.168,480.336 373.5,428.5C 367.5,428.5 361.5,428.5 355.5,428.5C 355.5,480.833 355.5,533.167 355.5,585.5C 352.482,585.704 349.482,586.037 346.5,586.5C 346.5,533.833 346.5,481.167 346.5,428.5C 340.833,428.5 335.167,428.5 329.5,428.5C 328.829,482.736 328.163,537.069 327.5,591.5C 326.167,591.833 324.833,592.167 323.5,592.5C 321.834,538.008 320.834,483.341 320.5,428.5C 314.833,428.5 309.167,428.5 303.5,428.5C 303.5,485.833 303.5,543.167 303.5,600.5C 300.412,600.377 297.745,601.377 295.5,603.5C 294.5,545.17 294.167,486.837 294.5,428.5C 288.5,428.5 282.5,428.5 276.5,428.5C 276.833,490.17 276.5,551.837 275.5,613.5C 268.833,617.833 262.167,622.167 255.5,626.5C 254.667,639.487 254.167,652.487 254,665.5C 253.477,667.223 252.477,668.556 251,669.5C 241.999,662.158 232.999,654.824 224,647.5C 223.5,632.17 223.333,616.837 223.5,601.5C 209.167,601.5 194.833,601.5 180.5,601.5C 180.333,568.832 180.5,536.165 181,503.5C 186.359,473.574 186.859,443.574 182.5,413.5C 249.5,413.5 316.5,413.5 383.5,413.5 Z"/></g>
<g><path style="opacity:1" fill="#7f7f7f" d="M 394.5,413.5 C 462.501,413.333 530.501,413.5 598.5,414C 597.524,419.43 596.691,424.93 596,430.5C 595.271,447.849 595.437,465.182 596.5,482.5C 597.011,489.625 598.178,496.625 600,503.5C 600.5,536.165 600.667,568.832 600.5,601.5C 585.833,601.5 571.167,601.5 556.5,601.5C 556.667,616.837 556.5,632.17 556,647.5C 547.313,655.022 538.479,662.355 529.5,669.5C 528.416,668.335 527.583,667.002 527,665.5C 526.833,652.487 526.333,639.487 525.5,626.5C 518.468,621.637 511.302,616.97 504,612.5C 503.5,551.168 503.333,489.834 503.5,428.5C 497.5,428.5 491.5,428.5 485.5,428.5C 485.5,486.5 485.5,544.5 485.5,602.5C 482.833,601.833 480.167,601.167 477.5,600.5C 477.5,543.167 477.5,485.833 477.5,428.5C 471.5,428.5 465.5,428.5 459.5,428.5C 459.833,483.504 459.5,538.504 458.5,593.5C 456.271,592.423 453.937,591.756 451.5,591.5C 451.5,537.167 451.5,482.833 451.5,428.5C 445.833,428.5 440.167,428.5 434.5,428.5C 433.501,480.997 433.168,533.664 433.5,586.5C 430.482,586.296 427.482,585.963 424.5,585.5C 424.5,533.167 424.5,480.833 424.5,428.5C 418.833,428.5 413.167,428.5 407.5,428.5C 407.5,480.167 407.5,531.833 407.5,583.5C 404.615,583.806 401.948,583.473 399.5,582.5C 399.5,531.167 399.5,479.833 399.5,428.5C 398.167,428.5 396.833,428.5 395.5,428.5C 395.167,428.5 394.833,428.5 394.5,428.5C 394.5,423.5 394.5,418.5 394.5,413.5 Z"/></g>
<g><path style="opacity:1" fill="#808080" d="M 603.5,413.5 C 604.833,413.5 606.167,413.5 607.5,413.5C 607.5,427.167 607.5,440.833 607.5,454.5C 606.167,454.5 604.833,454.5 603.5,454.5C 603.5,440.833 603.5,427.167 603.5,413.5 Z"/></g>
<g><path style="opacity:1" fill="#7f7f7f" d="M 609.5,413.5 C 612.833,413.5 616.167,413.5 619.5,413.5C 619.5,427.167 619.5,440.833 619.5,454.5C 616.167,454.5 612.833,454.5 609.5,454.5C 609.5,440.833 609.5,427.167 609.5,413.5 Z"/></g>
<g><path style="opacity:1" fill="#7f7f7f" d="M 633.5,413.5 C 633.5,417.167 633.5,420.833 633.5,424.5C 632.213,423.129 631.547,421.295 631.5,419C 631.547,416.705 632.213,414.871 633.5,413.5 Z"/></g>
<g><path style="opacity:1" fill="#737373" d="M 178.5,413.5 C 179.75,413.577 180.583,414.244 181,415.5C 183.239,428.409 184.405,441.409 184.5,454.5C 182.5,454.5 180.5,454.5 178.5,454.5C 178.5,440.833 178.5,427.167 178.5,413.5 Z"/></g>
<g><path style="opacity:1" fill="#727272" d="M 600.5,413.5 C 602.482,426.792 603.149,440.459 602.5,454.5C 600.5,454.5 598.5,454.5 596.5,454.5C 596.853,440.723 598.186,427.057 600.5,413.5 Z"/></g>
<g><path style="opacity:1" fill="#7f7f7f" d="M 151.5,454.5 C 150.167,454.5 148.833,454.5 147.5,454.5C 147.5,445.167 147.5,435.833 147.5,426.5C 148.833,426.5 150.167,426.5 151.5,426.5C 151.5,435.833 151.5,445.167 151.5,454.5 Z"/></g>
<g><path style="opacity:1" fill="#7d7d7d" d="M 633.5,425.5 C 633.5,433.167 633.5,440.833 633.5,448.5C 632.177,445.062 631.51,441.229 631.5,437C 631.51,432.771 632.177,428.938 633.5,425.5 Z"/></g>
<g><path style="opacity:1" fill="#595959" d="M 320.5,428.5 C 320.834,483.341 321.834,538.008 323.5,592.5C 322.791,593.404 321.791,593.737 320.5,593.5C 320.5,538.5 320.5,483.5 320.5,428.5 Z"/></g>
<g><path style="opacity:1" fill="#676767" d="M 329.5,428.5 C 330.162,483.177 329.496,537.51 327.5,591.5C 328.163,537.069 328.829,482.736 329.5,428.5 Z"/></g>
<g><path style="opacity:1" fill="#656565" d="M 381.5,428.5 C 381.5,480.167 381.5,531.833 381.5,583.5C 379.167,583.5 376.833,583.5 374.5,583.5C 376.265,582.539 378.265,582.205 380.5,582.5C 380.168,530.997 380.501,479.664 381.5,428.5 Z"/></g>
<g><path style="opacity:1" fill="#222222" d="M 395.5,428.5 C 396.833,428.5 398.167,428.5 399.5,428.5C 399.5,479.833 399.5,531.167 399.5,582.5C 398.501,531.669 398.168,480.669 398.5,429.5C 397.209,429.737 396.209,429.404 395.5,428.5 Z"/></g>
<g><path style="opacity:1" fill="#7c7c7c" d="M 278.5,430.5 C 283.5,430.5 288.5,430.5 293.5,430.5C 293.5,495.833 293.5,561.167 293.5,626.5C 288.5,626.5 283.5,626.5 278.5,626.5C 278.5,561.167 278.5,495.833 278.5,430.5 Z"/></g>
<g><path style="opacity:1" fill="#676767" d="M 305.5,430.5 C 305.5,495.5 305.5,560.5 305.5,625.5C 309.833,625.5 314.167,625.5 318.5,625.5C 318.5,560.5 318.5,495.5 318.5,430.5C 319.499,495.665 319.832,560.998 319.5,626.5C 314.5,626.5 309.5,626.5 304.5,626.5C 304.168,560.998 304.501,495.665 305.5,430.5 Z"/></g>
<g><path style="opacity:1" fill="#7f7f7f" d="M 305.5,430.5 C 309.833,430.5 314.167,430.5 318.5,430.5C 318.5,495.5 318.5,560.5 318.5,625.5C 314.167,625.5 309.833,625.5 305.5,625.5C 305.5,560.5 305.5,495.5 305.5,430.5 Z"/></g>
<g><path style="opacity:1" fill="#6d6d6d" d="M 330.5,430.5 C 335.5,430.5 340.5,430.5 345.5,430.5C 345.5,495.833 345.5,561.167 345.5,626.5C 340.5,626.5 335.5,626.5 330.5,626.5C 330.5,561.167 330.5,495.833 330.5,430.5 Z"/></g>
<g><path style="opacity:1" fill="#7f807f" d="M 331.5,431.5 C 335.833,431.5 340.167,431.5 344.5,431.5C 344.5,496.167 344.5,560.833 344.5,625.5C 340.167,625.5 335.833,625.5 331.5,625.5C 331.5,560.833 331.5,496.167 331.5,431.5 Z"/></g>
<g><path style="opacity:1" fill="#808080" d="M 370.5,430.5 C 370.5,495.5 370.5,560.5 370.5,625.5C 366.167,625.5 361.833,625.5 357.5,625.5C 357.5,560.5 357.5,495.5 357.5,430.5C 361.833,430.5 366.167,430.5 370.5,430.5 Z"/></g>
<g><path style="opacity:1" fill="#5a5a5a" d="M 370.5,430.5 C 371.499,495.665 371.832,560.998 371.5,626.5C 366.637,626.819 361.97,626.486 357.5,625.5C 361.833,625.5 366.167,625.5 370.5,625.5C 370.5,560.5 370.5,495.5 370.5,430.5 Z"/></g>
<g><path style="opacity:1" fill="#7f7f7f" d="M 394.5,430.5 C 395.5,430.5 396.5,430.5 397.5,430.5C 397.5,495.833 397.5,561.167 397.5,626.5C 392.833,626.5 388.167,626.5 383.5,626.5C 383.5,566.833 383.5,507.167 383.5,447.5C 387.167,447.5 390.833,447.5 394.5,447.5C 394.5,441.833 394.5,436.167 394.5,430.5 Z"/></g>
<g><path style="opacity:1" fill="#7b7b7b" d="M 408.5,430.5 C 413.5,430.5 418.5,430.5 423.5,430.5C 423.5,495.833 423.5,561.167 423.5,626.5C 418.5,626.5 413.5,626.5 408.5,626.5C 408.5,561.167 408.5,495.833 408.5,430.5 Z"/></g>
<g><path style="opacity:1" fill="#7f7f7f" d="M 487.5,430.5 C 492.167,430.5 496.833,430.5 501.5,430.5C 501.5,495.833 501.5,561.167 501.5,626.5C 496.833,626.5 492.167,626.5 487.5,626.5C 487.5,561.167 487.5,495.833 487.5,430.5 Z"/></g>
<g><path style="opacity:1" fill="#7e7e7e" d="M 130.5,440.5 C 132.5,440.5 134.5,440.5 136.5,440.5C 136.5,445.167 136.5,449.833 136.5,454.5C 134.5,454.5 132.5,454.5 130.5,454.5C 130.5,449.833 130.5,445.167 130.5,440.5 Z"/></g>
<g><path style="opacity:1" fill="#7e7e7e" d="M 644.5,440.5 C 646.5,440.5 648.5,440.5 650.5,440.5C 650.5,445.167 650.5,449.833 650.5,454.5C 648.5,454.5 646.5,454.5 644.5,454.5C 644.5,449.833 644.5,445.167 644.5,440.5 Z"/></g>
<g><path style="opacity:1" fill="#747474" d="M 112.5,443.5 C 114.167,443.5 115.833,443.5 117.5,443.5C 117.5,451.167 117.5,458.833 117.5,466.5C 115.5,466.5 113.5,466.5 111.5,466.5C 111.201,458.747 111.534,451.08 112.5,443.5 Z"/></g>
<g><path style="opacity:1" fill="#7a7a7a" d="M 118.5,443.5 C 121.833,443.5 125.167,443.5 128.5,443.5C 128.5,451.167 128.5,458.833 128.5,466.5C 125.167,466.5 121.833,466.5 118.5,466.5C 118.5,458.833 118.5,451.167 118.5,443.5 Z"/></g>
<g><path style="opacity:1" fill="#7a7a7a" d="M 652.5,443.5 C 655.833,443.5 659.167,443.5 662.5,443.5C 662.5,451.167 662.5,458.833 662.5,466.5C 659.167,466.5 655.833,466.5 652.5,466.5C 652.5,458.833 652.5,451.167 652.5,443.5 Z"/></g>
<g><path style="opacity:1" fill="#777777" d="M 663.5,443.5 C 665.167,443.5 666.833,443.5 668.5,443.5C 668.5,451.167 668.5,458.833 668.5,466.5C 666.833,466.5 665.167,466.5 663.5,466.5C 663.5,458.833 663.5,451.167 663.5,443.5 Z"/></g>
<g><path style="opacity:1" fill="#7d7d7d" d="M 633.5,454.5 C 632.167,454.5 630.833,454.5 629.5,454.5C 629.5,453.167 629.5,451.833 629.5,450.5C 630.833,450.5 632.167,450.5 633.5,450.5C 633.5,451.833 633.5,453.167 633.5,454.5 Z"/></g>
<g><path style="opacity:1" fill="#7e7e7e" d="M 130.5,456.5 C 132.5,456.5 134.5,456.5 136.5,456.5C 136.5,461.167 136.5,465.833 136.5,470.5C 134.5,470.5 132.5,470.5 130.5,470.5C 130.5,465.833 130.5,461.167 130.5,456.5 Z"/></g>
<g><path style="opacity:1" fill="#7e7e7e" d="M 145.5,456.5 C 145.5,472.5 145.5,488.5 145.5,504.5C 143.5,504.5 141.5,504.5 139.5,504.5C 139.5,488.5 139.5,472.5 139.5,456.5C 141.5,456.5 143.5,456.5 145.5,456.5 Z"/></g>
<g><path style="opacity:1" fill="#373737" d="M 145.5,456.5 C 146.167,456.5 146.833,456.5 147.5,456.5C 147.5,465.833 147.5,475.167 147.5,484.5C 148.833,484.5 150.167,484.5 151.5,484.5C 149.49,485.017 148.157,485.684 147.5,486.5C 147.5,490.167 147.5,493.833 147.5,497.5C 146.833,499.833 146.167,502.167 145.5,504.5C 145.5,488.5 145.5,472.5 145.5,456.5 Z"/></g>
<g><path style="opacity:1" fill="#808080" d="M 147.5,456.5 C 148.833,456.5 150.167,456.5 151.5,456.5C 151.5,465.833 151.5,475.167 151.5,484.5C 150.167,484.5 148.833,484.5 147.5,484.5C 147.5,475.167 147.5,465.833 147.5,456.5 Z"/></g>
<g><path style="opacity:1" fill="#7d7d7d" d="M 157.5,456.5 C 159.157,470.143 160.157,484.143 160.5,498.5C 161.499,484.516 161.833,470.516 161.5,456.5C 164.833,456.5 168.167,456.5 171.5,456.5C 172.167,512.5 172.833,512.5 173.5,456.5C 174.833,456.5 176.167,456.5 177.5,456.5C 177.833,512.5 178.167,512.5 178.5,456.5C 180.5,456.5 182.5,456.5 184.5,456.5C 184.033,472.635 182.367,488.635 179.5,504.5C 172.167,504.5 164.833,504.5 157.5,504.5C 157.5,488.5 157.5,472.5 157.5,456.5 Z"/></g>
<g><path style="opacity:1" fill="#7c7c7c" d="M 601.5,456.5 C 601.667,470.171 601.5,483.837 601,497.5C 599.177,490.492 598.01,483.492 597.5,476.5C 596.788,469.857 596.454,463.191 596.5,456.5C 598.167,456.5 599.833,456.5 601.5,456.5 Z"/></g>
<g><path style="opacity:1" fill="#7f7f7f" d="M 607.5,456.5 C 607.167,470.849 607.501,485.182 608.5,499.5C 609.107,499.376 609.44,499.043 609.5,498.5C 609.5,484.5 609.5,470.5 609.5,456.5C 612.833,456.5 616.167,456.5 619.5,456.5C 620,512.496 620.834,512.496 622,456.5C 622.5,472.497 622.667,488.497 622.5,504.5C 615.5,504.5 608.5,504.5 601.5,504.5C 601.205,502.265 601.539,500.265 602.5,498.5C 603.496,484.677 603.829,470.677 603.5,456.5C 604.833,456.5 606.167,456.5 607.5,456.5 Z"/></g>
<g><path style="opacity:1" fill="#3f3f3f" d="M 607.5,456.5 C 608.167,470.5 608.833,484.5 609.5,498.5C 609.44,499.043 609.107,499.376 608.5,499.5C 607.501,485.182 607.167,470.849 607.5,456.5 Z"/></g>
<g><path style="opacity:1" fill="#808080" d="M 635.5,456.5 C 637.5,456.5 639.5,456.5 641.5,456.5C 641.5,472.5 641.5,488.5 641.5,504.5C 639.5,504.5 637.5,504.5 635.5,504.5C 635.5,488.5 635.5,472.5 635.5,456.5 Z"/></g>
<g><path style="opacity:1" fill="#7e7e7e" d="M 644.5,456.5 C 646.5,456.5 648.5,456.5 650.5,456.5C 650.5,461.167 650.5,465.833 650.5,470.5C 648.5,470.5 646.5,470.5 644.5,470.5C 644.5,465.833 644.5,461.167 644.5,456.5 Z"/></g>
<g><path style="opacity:1" fill="#242424" d="M 629.5,456.5 C 629.5,457.833 629.5,459.167 629.5,460.5C 630.833,460.5 632.167,460.5 633.5,460.5C 633.5,459.167 633.5,457.833 633.5,456.5C 634.167,456.5 634.833,456.5 635.5,456.5C 635.5,472.5 635.5,488.5 635.5,504.5C 634.833,502.167 634.167,499.833 633.5,497.5C 633.5,493.833 633.5,490.167 633.5,486.5C 633.938,486.565 634.272,486.399 634.5,486C 633.263,485.768 632.263,485.268 631.5,484.5C 630.85,484.804 630.183,485.137 629.5,485.5C 628.177,475.675 628.177,466.008 629.5,456.5 Z"/></g>
<g><path style="opacity:1" fill="#7d7d7d" d="M 629.5,456.5 C 630.833,456.5 632.167,456.5 633.5,456.5C 633.5,457.833 633.5,459.167 633.5,460.5C 632.167,460.5 630.833,460.5 629.5,460.5C 629.5,459.167 629.5,457.833 629.5,456.5 Z"/></g>
<g><path style="opacity:1" fill="#7f807f" d="M 631.5,484.5 C 631.169,477.137 631.503,469.803 632.5,462.5C 632.833,466.167 633.167,469.833 633.5,473.5C 633.489,477.565 632.822,481.232 631.5,484.5 Z"/></g>
<g><path style="opacity:1" fill="#7e7e7e" d="M 147.5,486.5 C 148.833,486.5 150.167,486.5 151.5,486.5C 151.5,490.167 151.5,493.833 151.5,497.5C 150.167,497.5 148.833,497.5 147.5,497.5C 147.5,493.833 147.5,490.167 147.5,486.5 Z"/></g>
<g><path style="opacity:1" fill="#7e7e7e" d="M 633.5,486.5 C 633.5,490.167 633.5,493.833 633.5,497.5C 632.213,496.129 631.547,494.295 631.5,492C 631.547,489.705 632.213,487.871 633.5,486.5 Z"/></g>
<g><path style="opacity:1" fill="#202020" d="M 601.5,456.5 C 602.496,470.323 602.829,484.323 602.5,498.5C 601.539,500.265 601.205,502.265 601.5,504.5C 601.832,537.004 601.498,569.338 600.5,601.5C 600.667,568.832 600.5,536.165 600,503.5C 598.178,496.625 597.011,489.625 596.5,482.5C 597.461,480.735 597.795,478.735 597.5,476.5C 598.01,483.492 599.177,490.492 601,497.5C 601.5,483.837 601.667,470.171 601.5,456.5 Z"/></g>
<g><path style="opacity:1" fill="#656565" d="M 373.5,584.5 C 376.167,584.5 378.833,584.5 381.5,584.5C 381.5,585.833 381.5,587.167 381.5,588.5C 378.833,588.5 376.167,588.5 373.5,588.5C 373.5,587.167 373.5,585.833 373.5,584.5 Z"/></g>
<g><path style="opacity:1" fill="#6e6e6e" d="M 399.5,584.5 C 402.167,584.5 404.833,584.5 407.5,584.5C 407.5,585.833 407.5,587.167 407.5,588.5C 404.833,588.5 402.167,588.5 399.5,588.5C 399.5,587.167 399.5,585.833 399.5,584.5 Z"/></g>
<g><path style="opacity:1" fill="#737373" d="M 433.5,588.5 C 433.5,589.5 433.5,590.5 433.5,591.5C 430.609,590.597 427.609,590.264 424.5,590.5C 424.5,589.5 424.5,588.5 424.5,587.5C 427.518,587.704 430.518,588.037 433.5,588.5 Z"/></g>
<g><path style="opacity:1" fill="#747474" d="M 351.5,587.5 C 352.833,587.5 354.167,587.5 355.5,587.5C 355.5,588.5 355.5,589.5 355.5,590.5C 352.751,590.274 350.084,590.607 347.5,591.5C 346.614,590.675 346.281,589.675 346.5,588.5C 348.415,588.784 350.081,588.451 351.5,587.5 Z"/></g>
<g><path style="opacity:1" fill="#7c7c7c" d="M 373.5,589.5 C 376.167,589.5 378.833,589.5 381.5,589.5C 381.5,601.833 381.5,614.167 381.5,626.5C 378.833,626.5 376.167,626.5 373.5,626.5C 373.5,614.167 373.5,601.833 373.5,589.5 Z"/></g>
<g><path style="opacity:1" fill="#7f7f7f" d="M 399.5,589.5 C 402.167,589.5 404.833,589.5 407.5,589.5C 407.5,601.833 407.5,614.167 407.5,626.5C 404.833,626.5 402.167,626.5 399.5,626.5C 399.5,614.167 399.5,601.833 399.5,589.5 Z"/></g>
<g><path style="opacity:1" fill="#7c7c7c" d="M 353.5,591.5 C 355.478,602.785 356.145,614.452 355.5,626.5C 352.5,626.5 349.5,626.5 346.5,626.5C 346.333,615.495 346.5,604.495 347,593.5C 349.277,592.883 351.444,592.216 353.5,591.5 Z"/></g>
<g><path style="opacity:1" fill="#4c4c4c" d="M 427.5,592.5 C 425.522,603.451 424.856,614.784 425.5,626.5C 425.167,626.5 424.833,626.5 424.5,626.5C 424.5,614.833 424.5,603.167 424.5,591.5C 425.791,591.263 426.791,591.596 427.5,592.5 Z"/></g>
<g><path style="opacity:1" fill="#808080" d="M 427.5,592.5 C 429.435,593.15 431.435,593.483 433.5,593.5C 433.5,604.5 433.5,615.5 433.5,626.5C 430.833,626.5 428.167,626.5 425.5,626.5C 424.856,614.784 425.522,603.451 427.5,592.5 Z"/></g>
<g><path style="opacity:1" fill="#767676" d="M 325.5,593.5 C 326.978,593.238 328.311,593.571 329.5,594.5C 326.635,596.471 323.635,597.137 320.5,596.5C 321.947,595.065 323.614,594.065 325.5,593.5 Z"/></g>
<g><path style="opacity:1" fill="#797979" d="M 326.5,597.5 C 327.5,597.5 328.5,597.5 329.5,597.5C 329.5,607.167 329.5,616.833 329.5,626.5C 326.5,626.5 323.5,626.5 320.5,626.5C 320.5,617.5 320.5,608.5 320.5,599.5C 322.898,599.741 324.898,599.074 326.5,597.5 Z"/></g>
<g><path style="opacity:1" fill="#707070" d="M 301.5,601.5 C 303.652,602.077 303.985,603.244 302.5,605C 300.278,605.695 298.111,606.528 296,607.5C 295.5,607.167 295,606.833 294.5,606.5C 296.687,604.578 299.02,602.912 301.5,601.5 Z"/></g>
<g><path style="opacity:1" fill="#737373" d="M 477.5,601.5 C 480.19,602.546 482.857,603.546 485.5,604.5C 485.719,605.675 485.386,606.675 484.5,607.5C 482.615,606.391 480.615,605.557 478.5,605C 477.663,603.989 477.33,602.822 477.5,601.5 Z"/></g>
<g><path style="opacity:1" fill="#7f7f7f" d="M 210.5,603.5 C 214.167,603.5 217.833,603.5 221.5,603.5C 221.833,617.183 221.499,630.85 220.5,644.5C 217.193,642.36 214.026,640.026 211,637.5C 210.5,626.172 210.333,614.838 210.5,603.5 Z"/></g>
<g><path style="opacity:1" fill="#7a7a7a" d="M 558.5,603.5 C 562.5,603.5 566.5,603.5 570.5,603.5C 570.832,614.853 570.499,626.186 569.5,637.5C 565.858,639.975 562.358,642.642 559,645.5C 558.5,631.504 558.333,617.504 558.5,603.5 Z"/></g>
<g><path style="opacity:1" fill="#7f7f7f" d="M 485.5,626.5 C 482.833,626.5 480.167,626.5 477.5,626.5C 477.17,619.8 477.503,613.134 478.5,606.5C 480.811,607.214 482.978,608.214 485,609.5C 485.499,615.157 485.666,620.824 485.5,626.5 Z"/></g>
<g><path style="opacity:1" fill="#7a7a7a" d="M 301.5,606.5 C 303.459,612.75 304.126,619.416 303.5,626.5C 300.5,626.5 297.5,626.5 294.5,626.5C 294.5,620.833 294.5,615.167 294.5,609.5C 297.063,608.912 299.396,607.912 301.5,606.5 Z"/></g>
<g><path style="opacity:1" fill="#747474" d="M 275.5,615.5 C 276.525,615.897 276.692,616.563 276,617.5C 271.92,620.457 267.753,623.29 263.5,626C 262.167,626.667 260.833,626.667 259.5,626C 265.07,622.725 270.403,619.225 275.5,615.5 Z"/></g>
<g><path style="opacity:1" fill="#757575" d="M 503.5,614.5 C 509.302,618.572 515.302,622.406 521.5,626C 520.167,626.667 518.833,626.667 517.5,626C 513.167,623.167 508.833,620.333 504.5,617.5C 503.614,616.675 503.281,615.675 503.5,614.5 Z"/></g>
<g><path style="opacity:1" fill="#7b7b7b" d="M 274.5,620.5 C 276.308,621.918 276.975,623.918 276.5,626.5C 273.482,626.665 270.482,626.498 267.5,626C 269.903,624.147 272.236,622.314 274.5,620.5 Z"/></g>
<g><path style="opacity:1" fill="#797979" d="M 503.5,619.5 C 507.202,621.024 510.536,623.19 513.5,626C 510.183,626.498 506.85,626.665 503.5,626.5C 503.5,624.167 503.5,621.833 503.5,619.5 Z"/></g>
<g><path style="opacity:1" fill="#292929" d="M 434.5,428.5 C 434.328,429.492 434.662,430.158 435.5,430.5C 435.5,495.833 435.5,561.167 435.5,626.5C 440.167,626.5 444.833,626.5 449.5,626.5C 449.5,561.167 449.5,495.833 449.5,430.5C 450.167,495.833 450.833,561.167 451.5,626.5C 454.167,626.5 456.833,626.5 459.5,626.5C 459.5,617.5 459.5,608.5 459.5,599.5C 460.833,598.833 460.833,598.167 459.5,597.5C 459.5,596.833 459.5,596.167 459.5,595.5C 460.167,540.5 460.833,485.5 461.5,430.5C 461.5,495.833 461.5,561.167 461.5,626.5C 466.167,626.5 470.833,626.5 475.5,626.5C 475.5,561.167 475.5,495.833 475.5,430.5C 476.167,495.833 476.833,561.167 477.5,626.5C 480.167,626.5 482.833,626.5 485.5,626.5C 485.5,627.167 485.5,627.833 485.5,628.5C 482.833,628.5 480.167,628.5 477.5,628.5C 477.5,629.5 477.5,630.5 477.5,631.5C 471.5,631.5 465.5,631.5 459.5,631.5C 459.5,630.5 459.5,629.5 459.5,628.5C 456.833,628.5 454.167,628.5 451.5,628.5C 451.5,629.5 451.5,630.5 451.5,631.5C 445.974,631.821 440.64,631.488 435.5,630.5C 434.833,630.833 434.167,631.167 433.5,631.5C 433.5,630.5 433.5,629.5 433.5,628.5C 430.5,628.5 427.5,628.5 424.5,628.5C 424.5,627.833 424.5,627.167 424.5,626.5C 424.833,626.5 425.167,626.5 425.5,626.5C 428.167,626.5 430.833,626.5 433.5,626.5C 433.5,615.5 433.5,604.5 433.5,593.5C 434.833,592.833 434.833,592.167 433.5,591.5C 433.5,590.5 433.5,589.5 433.5,588.5C 434.833,587.833 434.833,587.167 433.5,586.5C 433.168,533.664 433.501,480.997 434.5,428.5 Z"/></g>
<g><path style="opacity:1" fill="#7f7f7f" d="M 459.5,599.5 C 459.5,608.5 459.5,617.5 459.5,626.5C 456.833,626.5 454.167,626.5 451.5,626.5C 451.5,616.833 451.5,607.167 451.5,597.5C 454.167,598.167 456.833,598.833 459.5,599.5 Z"/></g>
<g><path style="opacity:1" fill="#767676" d="M 459.5,595.5 C 459.5,596.167 459.5,596.833 459.5,597.5C 456.525,597.287 453.858,596.287 451.5,594.5C 454.354,593.55 457.02,593.883 459.5,595.5 Z"/></g>
<g><path style="opacity:1" fill="#808080" d="M 461.5,430.5 C 466.167,430.5 470.833,430.5 475.5,430.5C 475.5,495.833 475.5,561.167 475.5,626.5C 470.833,626.5 466.167,626.5 461.5,626.5C 461.5,561.167 461.5,495.833 461.5,430.5 Z"/></g>
<g><path style="opacity:1" fill="#7f7f7f" d="M 435.5,430.5 C 440.167,430.5 444.833,430.5 449.5,430.5C 449.5,495.833 449.5,561.167 449.5,626.5C 444.833,626.5 440.167,626.5 435.5,626.5C 435.5,561.167 435.5,495.833 435.5,430.5 Z"/></g>
<g><path style="opacity:1" fill="#787878" d="M 261.5,628.5 C 266.833,628.5 272.167,628.5 277.5,628.5C 277.5,629.5 277.5,630.5 277.5,631.5C 271.491,631.666 265.491,631.499 259.5,631C 260.381,630.292 261.047,629.458 261.5,628.5 Z"/></g>
<g><path style="opacity:1" fill="#838383" d="M 278.5,628.5 C 283.214,628.173 287.88,628.507 292.5,629.5C 290.167,629.833 287.833,630.167 285.5,630.5C 282.731,630.471 280.397,629.805 278.5,628.5 Z"/></g>
<g><path style="opacity:1" fill="#7f7f7f" d="M 304.5,628.5 C 309.544,628.173 314.544,628.506 319.5,629.5C 317,629.833 314.5,630.167 312,630.5C 309.071,630.475 306.571,629.809 304.5,628.5 Z"/></g>
<g><path style="opacity:1" fill="#7f7f7f" d="M 330.5,628.5 C 335.544,628.173 340.544,628.506 345.5,629.5C 343,629.833 340.5,630.167 338,630.5C 335.071,630.475 332.571,629.809 330.5,628.5 Z"/></g>
<g><path style="opacity:1" fill="#7c7c7c" d="M 346.5,628.5 C 349.5,628.5 352.5,628.5 355.5,628.5C 355.5,629.5 355.5,630.5 355.5,631.5C 352.5,631.5 349.5,631.5 346.5,631.5C 346.5,630.5 346.5,629.5 346.5,628.5 Z"/></g>
<g><path style="opacity:1" fill="#828282" d="M 357.5,628.5 C 374.833,629.167 374.833,629.833 357.5,630.5C 357.5,629.833 357.5,629.167 357.5,628.5 Z"/></g>
<g><path style="opacity:1" fill="#828282" d="M 383.5,628.5 C 388.214,628.173 392.88,628.507 397.5,629.5C 395.167,629.833 392.833,630.167 390.5,630.5C 387.731,630.471 385.397,629.805 383.5,628.5 Z"/></g>
<g><path style="opacity:1" fill="#7d7d7d" d="M 399.5,628.5 C 402.167,628.5 404.833,628.5 407.5,628.5C 407.5,629.5 407.5,630.5 407.5,631.5C 404.833,631.5 402.167,631.5 399.5,631.5C 399.5,630.5 399.5,629.5 399.5,628.5 Z"/></g>
<g><path style="opacity:1" fill="#7d7d7d" d="M 408.5,628.5 C 413.544,628.173 418.544,628.506 423.5,629.5C 421,629.833 418.5,630.167 416,630.5C 413.071,630.475 410.571,629.809 408.5,628.5 Z"/></g>
<g><path style="opacity:1" fill="#7a7a7a" d="M 424.5,628.5 C 427.5,628.5 430.5,628.5 433.5,628.5C 433.5,629.5 433.5,630.5 433.5,631.5C 430.5,631.5 427.5,631.5 424.5,631.5C 424.5,630.5 424.5,629.5 424.5,628.5 Z"/></g>
<g><path style="opacity:1" fill="#828282" d="M 435.5,630.5 C 437.397,629.195 439.731,628.529 442.5,628.5C 444.833,628.833 447.167,629.167 449.5,629.5C 444.88,630.493 440.214,630.827 435.5,630.5 Z"/></g>
<g><path style="opacity:1" fill="#7d7d7d" d="M 459.5,631.5 C 456.833,631.5 454.167,631.5 451.5,631.5C 451.5,630.5 451.5,629.5 451.5,628.5C 454.167,628.5 456.833,628.5 459.5,628.5C 459.5,629.5 459.5,630.5 459.5,631.5 Z"/></g>
<g><path style="opacity:1" fill="#828282" d="M 461.5,628.5 C 466.214,628.173 470.88,628.507 475.5,629.5C 473.167,629.833 470.833,630.167 468.5,630.5C 465.731,630.471 463.397,629.805 461.5,628.5 Z"/></g>
<g><path style="opacity:1" fill="#7d7d7d" d="M 485.5,628.5 C 485.5,629.5 485.5,630.5 485.5,631.5C 482.833,631.5 480.167,631.5 477.5,631.5C 477.5,630.5 477.5,629.5 477.5,628.5C 480.167,628.5 482.833,628.5 485.5,628.5 Z"/></g>
<g><path style="opacity:1" fill="#818181" d="M 487.5,628.5 C 492.214,628.173 496.88,628.507 501.5,629.5C 499.167,629.833 496.833,630.167 494.5,630.5C 491.731,630.471 489.397,629.805 487.5,628.5 Z"/></g>
<g><path style="opacity:1" fill="#7a7a7a" d="M 503.5,628.5 C 508.844,628.334 514.177,628.501 519.5,629C 520.167,629.667 520.833,630.333 521.5,631C 515.509,631.499 509.509,631.666 503.5,631.5C 503.5,630.5 503.5,629.5 503.5,628.5 Z"/></g>
<g><path style="opacity:1" fill="#737373" d="M 294.5,628.5 C 297.5,628.5 300.5,628.5 303.5,628.5C 303.5,629.5 303.5,630.5 303.5,631.5C 300.5,631.5 297.5,631.5 294.5,631.5C 294.5,630.5 294.5,629.5 294.5,628.5 Z"/></g>
<g><path style="opacity:1" fill="#727272" d="M 320.5,628.5 C 323.5,628.5 326.5,628.5 329.5,628.5C 329.5,629.5 329.5,630.5 329.5,631.5C 326.5,631.5 323.5,631.5 320.5,631.5C 320.5,630.5 320.5,629.5 320.5,628.5 Z"/></g>
<g><path style="opacity:1" fill="#3a3a3a" d="M 357.5,628.5 C 361.97,627.514 366.637,627.181 371.5,627.5C 371.5,628.833 371.5,630.167 371.5,631.5C 366.637,631.819 361.97,631.486 357.5,630.5C 374.833,629.833 374.833,629.167 357.5,628.5 Z"/></g>
<g><path style="opacity:1" fill="#757575" d="M 373.5,628.5 C 376.167,628.5 378.833,628.5 381.5,628.5C 381.5,629.5 381.5,630.5 381.5,631.5C 378.833,631.5 376.167,631.5 373.5,631.5C 373.5,630.5 373.5,629.5 373.5,628.5 Z"/></g>
<g><path style="opacity:1" fill="#7e7e7e" d="M 524.5,652.5 C 524.5,654.833 524.5,657.167 524.5,659.5C 435.167,659.5 345.833,659.5 256.5,659.5C 256.5,650.5 256.5,641.5 256.5,632.5C 345.833,632.5 435.167,632.5 524.5,632.5C 524.5,639.167 524.5,645.833 524.5,652.5 Z"/></g>
<g><path style="opacity:1" fill="#747474" d="M 568.5,639.5 C 569.262,642.152 568.762,644.818 567,647.5C 564.651,650.017 562.151,652.35 559.5,654.5C 558.353,652.235 558.186,649.902 559,647.5C 562.358,644.969 565.524,642.302 568.5,639.5 Z"/></g>
<g><path style="opacity:1" fill="#7b7b7b" d="M 211.5,640.5 C 214.789,642.616 217.956,644.949 221,647.5C 221.667,649.833 221.667,652.167 221,654.5C 215.234,651.572 212.067,646.905 211.5,640.5 Z"/></g>
<g><path style="opacity:1" fill="#797979" d="M 223.5,649.5 C 233.766,657.232 243.6,665.565 253,674.5C 253.14,676.256 252.64,677.922 251.5,679.5C 250.5,680.833 249.5,680.833 248.5,679.5C 240.806,671.64 232.64,664.306 224,657.5C 223.503,654.854 223.336,652.187 223.5,649.5 Z"/></g>
<g><path style="opacity:1" fill="#7b7b7b" d="M 554.5,650.5 C 555.725,651.152 556.392,652.319 556.5,654C 556.333,655.167 556.167,656.333 556,657.5C 547.444,664.969 539.111,672.636 531,680.5C 528.885,678.938 527.885,676.938 528,674.5C 536.73,666.265 545.563,658.265 554.5,650.5 Z"/></g>
<g><path style="opacity:1" fill="#6b6b6b" d="M 562.5,653.5 C 563.497,653.47 564.164,653.97 564.5,655C 562.59,660.142 560.756,665.309 559,670.5C 557.549,664.063 558.716,658.397 562.5,653.5 Z"/></g>
<g><path style="opacity:1" fill="#797979" d="M 215.5,652.5 C 221.003,656.32 222.836,661.654 221,668.5C 218.859,663.244 217.026,657.911 215.5,652.5 Z"/></g>
<g><path style="opacity:1" fill="#676767" d="M 524.5,652.5 C 525.473,654.948 525.806,657.615 525.5,660.5C 435.665,660.833 345.998,660.499 256.5,659.5C 345.833,659.5 435.167,659.5 524.5,659.5C 524.5,657.167 524.5,654.833 524.5,652.5 Z"/></g>
<g><path style="opacity:1" fill="#7c7c7c" d="M 223.5,659.5 C 229.936,664.762 236.27,670.262 242.5,676C 246.369,679.534 249.869,683.367 253,687.5C 254.9,696.14 256.234,704.807 257,713.5C 246.676,701.177 235.676,689.51 224,678.5C 223.5,672.175 223.334,665.842 223.5,659.5 Z"/></g>
<g><path style="opacity:1" fill="#7d7d7d" d="M 554.5,660.5 C 555.816,663.087 556.483,666.087 556.5,669.5C 556.333,672.5 556.167,675.5 556,678.5C 545.706,689.298 535.539,700.298 525.5,711.5C 524.998,712.521 524.332,712.688 523.5,712C 525.417,703.914 526.917,695.747 528,687.5C 536.339,677.995 545.172,668.995 554.5,660.5 Z"/></g>
<g><path style="opacity:1" fill="#606060" d="M 525.5,662.5 C 435.429,662.169 345.429,662.503 255.5,663.5C 300.162,662.167 345.162,661.5 390.5,661.5C 435.668,661.5 480.668,661.833 525.5,662.5 Z"/></g>
<g><path style="opacity:1" fill="#808080" d="M 525.5,662.5 C 525.5,663.5 525.5,664.5 525.5,665.5C 435.5,665.5 345.5,665.5 255.5,665.5C 255.5,664.833 255.5,664.167 255.5,663.5C 345.429,662.503 435.429,662.169 525.5,662.5 Z"/></g>
<g><path style="opacity:1" fill="#222222" d="M 255.5,665.5 C 345.5,665.5 435.5,665.5 525.5,665.5C 525.5,666.167 525.5,666.833 525.5,667.5C 435.5,667.5 345.5,667.5 255.5,667.5C 255.5,666.833 255.5,666.167 255.5,665.5 Z"/></g>
<g><path style="opacity:1" fill="#767676" d="M 255.5,667.5 C 345.5,667.5 435.5,667.5 525.5,667.5C 525.5,668.833 525.5,670.167 525.5,671.5C 435.5,671.5 345.5,671.5 255.5,671.5C 255.5,670.167 255.5,668.833 255.5,667.5 Z"/></g>
<g><path style="opacity:1" fill="#454545" d="M 525.5,673.5 C 435.16,672.836 345.16,673.503 255.5,675.5C 254.596,674.791 254.263,673.791 254.5,672.5C 345.002,672.167 435.335,672.501 525.5,673.5 Z"/></g>
<g><path style="opacity:1" fill="#666666" d="M 525.5,673.5 C 526.043,673.56 526.376,673.893 526.5,674.5C 436.169,675.5 345.836,675.833 255.5,675.5C 345.16,673.503 435.16,672.836 525.5,673.5 Z"/></g>
<g><path style="opacity:1" fill="#404040" d="M 256.5,681.5 C 255.596,680.791 255.263,679.791 255.5,678.5C 346.169,678.167 436.836,678.5 527.5,679.5C 527.977,680.478 528.643,681.311 529.5,682C 438.332,682.832 347.332,682.666 256.5,681.5 Z"/></g>
<g><path style="opacity:1" fill="#818181" d="M 256.5,681.5 C 300.828,680.167 345.495,679.5 390.5,679.5C 435.167,679.833 479.833,680.167 524.5,680.5C 435.169,681.5 345.836,681.833 256.5,681.5 Z"/></g>
<g><path style="opacity:1" fill="#717171" d="M 256.5,683.5 C 345.833,683.5 435.167,683.5 524.5,683.5C 524.5,684.5 524.5,685.5 524.5,686.5C 435.167,686.5 345.833,686.5 256.5,686.5C 256.5,685.5 256.5,684.5 256.5,683.5 Z"/></g>
<g><path style="opacity:1" fill="#575757" d="M 257.5,690.5 C 346.332,689.501 435.332,689.167 524.5,689.5C 524.737,690.791 524.404,691.791 523.5,692.5C 435.173,690.503 346.506,689.836 257.5,690.5 Z"/></g>
<g><path style="opacity:1" fill="#7e7e7e" d="M 257.5,690.5 C 346.506,689.836 435.173,690.503 523.5,692.5C 523.604,699.921 522.937,707.255 521.5,714.5C 434.169,715.5 346.836,715.833 259.5,715.5C 258.687,707.179 258.02,698.846 257.5,690.5 Z"/></g>
</svg>
