<?xml version="1.0" encoding="utf-8"?>
<!-- Generator: SVG Export - SVG Version: 6.00 Build 1  -->
<!-- FXGUID: [65117D32-B4FD-11E6-90C0-F0761CCEA3DE] SYMID: [14132]  -->
<svg xmlns="http://www.w3.org/2000/svg" version="1.1" ch_offset="0" color_bar_width="66" width="226.159568" height="222.10014" origin_x="107.748324" origin_y="101.007418" ch_offset_x="107.9731902" ch_offset_y="40" color_offset_x="107.748324" color_offset_y="-4" fxtype_offset_x="108.2837306" fxtype_offset_y="234.437682" fxtype_offset_value="2Solo">
  <g>
    <title>Layer 1</title>
    <g>
      <g>
        <polyline style="fill: gray;stroke: black;stroke-width: 1;" points="209.065368 84.016342, 201.411586 84.016342 201.411586 84.016342, 201.411586 95.043498 201.411586 95.043498, 196.307964 95.043498 196.307964 95.043498, 196.307964 86.02091 196.307964 86.02091, 190.496698 86.02091 190.496698 86.02091, 190.496698 91.319858 190.496698 91.319858, 187.945014 91.319858 187.945014 91.319858, 187.945014 112.371886 187.945014 112.371886, 190.496698 112.371886 190.496698 112.371886, 190.496698 117.670834 190.496698 117.670834, 196.307964 117.670834 196.307964 117.670834, 196.307964 108.648246 196.307964 108.648246, 201.411586 108.648246 201.411586 108.648246, 201.411586 119.676164 201.411586 119.676164, 209.065368 119.676164 209.065368 119.676164, 213.459568 112.515396 213.459568 112.515396, 213.459568 91.176348 213.459568 91.176348, 209.065368 84.016342"/>
      </g>
      <g>
        <polyline style="fill: gray;stroke: black;stroke-width: 1;" points="6.9342 84.016342, 14.588744 84.016342 14.588744 84.016342, 14.588744 95.043498 14.588744 95.043498, 19.691604 95.043498 19.691604 95.043498, 19.691604 86.02091 19.691604 86.02091, 25.50287 86.02091 25.50287 86.02091, 25.50287 91.319858 25.50287 91.319858, 28.054554 91.319858 28.054554 91.319858, 28.054554 112.371886 28.054554 112.371886, 25.50287 112.371886 25.50287 112.371886, 25.50287 117.670834 25.50287 117.670834, 19.691604 117.670834 19.691604 117.670834, 19.691604 108.648246 19.691604 108.648246, 14.588744 108.648246 14.588744 108.648246, 14.588744 119.676164 14.588744 119.676164, 6.9342 119.676164 6.9342 119.676164, 2.54 112.515396 2.54 112.515396, 2.54 91.176348 2.54 91.176348, 6.9342 84.016342"/>
      </g>
      <g>
        <polyline style="fill: gray;stroke: black;stroke-width: 1;" points="196.307964 117.670834, 19.691604 117.670834 19.691604 117.670834, 19.691604 86.02091 19.691604 86.02091, 196.307964 86.02091 196.307964 86.02091, 196.307964 117.670834"/>
      </g>
      <g>
        <polyline style="fill: gray;stroke: black;stroke-width: 1;" points="156.953712 209.40014, 156.953712 201.022458 156.953712 201.022458, 170.34764 201.022458 170.34764 201.022458, 179.915058 117.246908 179.915058 117.246908, 187.888372 117.246908 187.888372 117.246908, 187.888372 87.28202 187.888372 87.28202, 184.699402 87.28202 184.699402 87.28202, 184.699402 9.95045 184.699402 9.95045, 178.001422 3.184144 178.001422 3.184144, 169.710354 3.184144 169.710354 3.184144, 169.710354 7.694676 169.710354 7.694676, 175.451008 7.694676 175.451008 7.694676, 175.451008 11.561826 175.451008 11.561826, 125.381258 11.561826 125.381258 11.561826, 125.381258 2.54 125.381258 2.54, 90.619072 2.54 90.619072 2.54, 90.619072 11.561826 90.619072 11.561826, 40.549322 11.561826 40.549322 11.561826, 40.549322 7.694676 40.549322 7.694676, 46.289976 7.694676 46.289976 7.694676, 46.289976 3.184144 46.289976 3.184144, 37.998146 3.184144 37.998146 3.184144, 31.300928 9.95045 31.300928 9.95045, 31.300928 87.28202 31.300928 87.28202, 28.111958 87.28202 28.111958 87.28202, 28.111958 117.246908 28.111958 117.246908, 36.08451 117.246908 36.08451 117.246908, 45.651928 201.022458 45.651928 201.022458, 59.046618 201.022458 59.046618 201.022458, 59.046618 209.40014 59.046618 209.40014, 156.953712 209.40014"/>
      </g>
      <g>
        <polyline style="fill: gray;stroke: black;stroke-width: 1;" points="59.525662 60.537852, 54.95925 192.000378 54.95925 192.000378, 51.016154 192.000378 51.016154 192.000378, 46.449742 60.537852 46.449742 60.537852, 59.525662 60.537852"/>
      </g>
      <g>
        <polyline style="fill: gray;stroke: black;stroke-width: 1;" points="81.530444 60.537852, 76.964032 192.000378 76.964032 192.000378, 73.020936 192.000378 73.020936 192.000378, 68.454524 60.537852 68.454524 60.537852, 81.530444 60.537852"/>
      </g>
      <g>
        <polyline style="fill: gray;stroke: black;stroke-width: 1;" points="103.535226 60.537852, 98.968814 192.000378 98.968814 192.000378, 95.025718 192.000378 95.025718 192.000378, 90.459306 60.537852 90.459306 60.537852, 103.535226 60.537852"/>
      </g>
      <g>
        <polyline style="fill: gray;stroke: black;stroke-width: 1;" points="125.540262 60.537852, 120.97385 192.000378 120.97385 192.000378, 117.0305 192.000378 117.0305 192.000378, 112.464342 60.537852 112.464342 60.537852, 125.540262 60.537852"/>
      </g>
      <g>
        <polyline style="fill: gray;stroke: black;stroke-width: 1;" points="147.545806 60.537852, 142.979394 192.000378 142.979394 192.000378, 139.035536 192.000378 139.035536 192.000378, 134.469124 60.537852 134.469124 60.537852, 147.545806 60.537852"/>
      </g>
      <g>
        <polyline style="fill: gray;stroke: black;stroke-width: 1;" points="169.550588 60.537852, 164.984176 192.000378 164.984176 192.000378, 161.04108 192.000378 161.04108 192.000378, 156.473906 60.537852 156.473906 60.537852, 169.550588 60.537852"/>
      </g>
      <g>
        <polyline style="fill: gray;stroke: black;stroke-width: 1;" points="171.321222 192.033906, 170.300904 201.022458 170.300904 201.022458, 45.662088 201.022458 45.662088 201.022458, 44.642024 192.033906 44.642024 192.033906, 171.321222 192.033906"/>
      </g>
      <g>
        <polyline style="fill: gray;stroke: black;stroke-width: 1;" points="184.47385 57.128156, 31.525718 57.128156 31.525718 57.128156, 31.525718 17.458436 31.525718 17.458436, 184.47385 17.458436 184.47385 17.458436, 184.47385 57.128156"/>
      </g>
    </g>
  </g>
</svg>
