<?xml version="1.0" encoding="utf-8"?>
<!-- SVG Export - SVG Version: 6.00 Build 1  -->
<!-- FXGUID: [049BB025-8744-11EE-AACC-525400685065] SYMID: [19238]  -->
<svg xmlns="http://www.w3.org/2000/svg" version="1.1" ch_offset="0" color_bar_width="66" width="713.74" height="1415.9611" origin_x="353.77374" origin_y="690.8546" ch_offset_x="356.408228" ch_offset_y="40" color_offset_x="353.77374" color_offset_y="-4">
  <g>
    <title>Layer 1</title>
    <g>
      <g>
        <polyline style="fill: gray;stroke: black;stroke-width: 1;" points="28.12796 709.568812, 21.73224 709.568812 21.73224 709.568812, 15.33398 709.568812 15.33398 709.568812, 8.93572 709.568812 8.93572 709.568812, 2.54 709.568812 2.54 709.568812, 2.54 700.382648 2.54 700.382648, 2.54 691.195722 2.54 691.195722, 2.54 682.009304 2.54 682.009304, 2.54 672.82314 2.54 672.82314, 8.93572 672.82314 8.93572 672.82314, 15.33398 672.82314 15.33398 672.82314, 21.73224 672.82314 21.73224 672.82314, 28.12796 672.82314 28.12796 672.82314, 28.12796 682.009304 28.12796 682.009304, 28.12796 691.195722 28.12796 691.195722, 28.12796 700.382648 28.12796 700.382648, 28.12796 709.568812 28.12796 709.568812, 28.12796 709.568812"/>
      </g>
      <g>
        <polyline style="fill: gray;stroke: black;stroke-width: 1;" points="675.4495 709.568812, 681.84522 709.568812 681.84522 709.568812, 688.24348 709.568812 688.24348 709.568812, 694.64174 709.568812 694.64174 709.568812, 701.04 709.568812 701.04 709.568812, 701.04 700.382648 701.04 700.382648, 701.04 691.195722 701.04 691.195722, 701.04 682.009304 701.04 682.009304, 701.04 672.82314 701.04 672.82314, 694.64174 672.82314 694.64174 672.82314, 688.24348 672.82314 688.24348 672.82314, 681.84522 672.82314 681.84522 672.82314, 675.4495 672.82314 675.4495 672.82314, 675.4495 682.009304 675.4495 682.009304, 675.4495 691.195722 675.4495 691.195722, 675.4495 700.382648 675.4495 700.382648, 675.4495 709.568812 675.4495 709.568812, 675.4495 709.568812"/>
      </g>
      <g>
        <polyline style="fill: gray;stroke: black;stroke-width: 1;" points="56.01716 719.739734, 49.04486 719.739734 49.04486 719.739734, 42.07256 719.739734 42.07256 719.739734, 35.10026 719.739734 35.10026 719.739734, 28.12796 719.739734 28.12796 719.739734, 28.12796 706.534274 28.12796 706.534274, 28.12796 693.328814 28.12796 693.328814, 28.12796 680.123354 28.12796 680.123354, 28.12796 666.917132 28.12796 666.917132, 35.10026 666.917132 35.10026 666.917132, 42.07256 666.917132 42.07256 666.917132, 49.04486 666.917132 49.04486 666.917132, 56.01716 666.917132 56.01716 666.917132, 56.01716 680.123354 56.01716 680.123354, 56.01716 693.328814 56.01716 693.328814, 56.01716 706.534274 56.01716 706.534274, 56.01716 719.739734 56.01716 719.739734, 56.01716 719.739734"/>
      </g>
      <g>
        <polyline style="fill: gray;stroke: black;stroke-width: 1;" points="647.5603 709.568812, 499.674896 709.568812 499.674896 709.568812, 351.78873 709.568812 351.78873 709.568812, 203.90231 709.568812 203.90231 709.568812, 56.01716 709.568812 56.01716 709.568812, 56.01716 701.367152 56.01716 701.367152, 56.01716 693.164476 56.01716 693.164476, 56.01716 684.962562 56.01716 684.962562, 56.01716 676.76014 56.01716 676.76014, 203.90231 676.76014 203.90231 676.76014, 351.78873 676.76014 351.78873 676.76014, 499.674896 676.76014 499.674896 676.76014, 647.5603 676.76014 647.5603 676.76014, 647.5603 684.962562 647.5603 684.962562, 647.5603 693.164476 647.5603 693.164476, 647.5603 701.367152 647.5603 701.367152, 647.5603 709.568812 647.5603 709.568812, 647.5603 709.568812"/>
      </g>
      <g>
        <polyline style="fill: gray;stroke: black;stroke-width: 1;" points="647.5603 719.739734, 654.5326 719.739734 654.5326 719.739734, 661.5049 719.739734 661.5049 719.739734, 668.4772 719.739734 668.4772 719.739734, 675.4495 719.739734 675.4495 719.739734, 675.4495 706.534274 675.4495 706.534274, 675.4495 693.328814 675.4495 693.328814, 675.4495 680.123354 675.4495 680.123354, 675.4495 666.917132 675.4495 666.917132, 668.4772 666.917132 668.4772 666.917132, 661.5049 666.917132 661.5049 666.917132, 654.5326 666.917132 654.5326 666.917132, 647.5603 666.917132 647.5603 666.917132, 647.5603 680.123354 647.5603 680.123354, 647.5603 693.328814 647.5603 693.328814, 647.5603 706.534274 647.5603 706.534274, 647.5603 719.739734 647.5603 719.739734, 647.5603 719.739734"/>
      </g>
      <g>
        <polyline style="fill: gray;stroke: black;stroke-width: 1;" points="353.472242 693.296302, 352.69551 697.144148 352.69551 697.144148, 350.57715 700.286636 350.57715 700.286636, 347.434662 702.405758 347.434662 702.405758, 343.586816 703.18249 343.586816 703.18249, 339.738208 702.405758 339.738208 702.405758, 336.59572 700.286636 336.59572 700.286636, 334.47736 697.144148 334.47736 697.144148, 333.700628 693.296302 333.700628 693.296302, 334.47736 689.448456 334.47736 689.448456, 336.59572 686.305968 336.59572 686.305968, 339.738208 684.187608 339.738208 684.187608, 343.586816 683.410876 343.586816 683.410876, 347.434662 684.187608 347.434662 684.187608, 350.57715 686.305968 350.57715 686.305968, 352.69551 689.448456 352.69551 689.448456, 353.472242 693.296302 353.472242 693.296302, 353.472242 693.296302"/>
      </g>
      <g>
        <polyline style="fill: gray;stroke: black;stroke-width: 1;" points="284.861 693.296302, 284.084268 697.144148 284.084268 697.144148, 281.965654 700.286636 281.965654 700.286636, 278.82342 702.405758 278.82342 702.405758, 274.975574 703.18249 274.975574 703.18249, 271.127728 702.405758 271.127728 702.405758, 267.98524 700.286636 267.98524 700.286636, 265.865864 697.144148 265.865864 697.144148, 265.089386 693.296302 265.089386 693.296302, 265.865864 689.448456 265.865864 689.448456, 267.98524 686.305968 267.98524 686.305968, 271.127728 684.187608 271.127728 684.187608, 274.975574 683.410876 274.975574 683.410876, 278.82342 684.187608 278.82342 684.187608, 281.965654 686.305968 281.965654 686.305968, 284.084268 689.448456 284.084268 689.448456, 284.861 693.296302 284.861 693.296302, 284.861 693.296302"/>
      </g>
      <g>
        <polyline style="fill: gray;stroke: black;stroke-width: 1;" points="410.88183 693.296302, 410.105352 697.144148 410.105352 697.144148, 407.985976 700.286636 407.985976 700.286636, 404.84425 702.405758 404.84425 702.405758, 400.995642 703.18249 400.995642 703.18249, 397.147796 702.405758 397.147796 702.405758, 394.005562 700.286636 394.005562 700.286636, 391.886948 697.144148 391.886948 697.144148, 391.110216 693.296302 391.110216 693.296302, 391.886948 689.448456 391.886948 689.448456, 394.005562 686.305968 394.005562 686.305968, 397.147796 684.187608 397.147796 684.187608, 400.995642 683.410876 400.995642 683.410876, 404.84425 684.187608 404.84425 684.187608, 407.985976 686.305968 407.985976 686.305968, 410.105352 689.448456 410.105352 689.448456, 410.88183 693.296302 410.88183 693.296302, 410.88183 693.296302"/>
      </g>
      <g>
        <polyline style="fill: gray;stroke: black;stroke-width: 1;" points="409.107386 1403.2611, 420.261542 1403.2611 420.261542 1403.2611, 431.417476 1403.2611 431.417476 1403.2611, 442.571886 1403.2611 442.571886 1403.2611, 453.726296 1403.2611 453.726296 1403.2611, 466.193632 1396.26086 466.193632 1396.26086, 478.661222 1389.26316 478.661222 1389.26316, 491.128558 1382.26292 491.128558 1382.26292, 503.596148 1375.26522 503.596148 1375.26522, 513.001768 1334.80048 513.001768 1334.80048, 522.405864 1294.33574 522.405864 1294.33574, 531.811484 1253.871 531.811484 1253.871, 541.21558 1213.40372 541.21558 1213.40372, 543.184334 1078.88786 543.184334 1078.88786, 545.153342 944.371746 545.153342 944.371746, 547.122096 809.856648 547.122096 809.856648, 549.089326 675.340026 549.089326 675.340026, 557.620678 675.340026 557.620678 675.340026, 566.150506 675.340026 566.150506 675.340026, 574.68008 675.340026 574.68008 675.340026, 583.211432 675.340026 583.211432 675.340026, 583.211432 662.653996 583.211432 662.653996, 583.211432 649.967966 583.211432 649.967966, 583.211432 637.282698 583.211432 637.282698, 583.211432 624.595906 583.211432 624.595906, 574.242946 624.595906 574.242946 624.595906, 565.27446 624.595906 565.27446 624.595906, 556.307498 624.595906 556.307498 624.595906, 547.339266 624.595906 547.339266 624.595906, 547.339266 627.22125 547.339266 627.22125, 547.339266 629.845832 547.339266 629.845832, 547.339266 632.470414 547.339266 632.470414, 547.339266 635.09525 547.339266 635.09525, 545.371782 635.09525 545.371782 635.09525, 543.403028 635.09525 543.403028 635.09525, 541.43402 635.09525 541.43402 635.09525, 539.465266 635.09525 539.465266 635.09525, 539.465266 632.907802 539.465266 632.907802, 539.465266 630.720862 539.465266 630.720862, 539.465266 628.534176 539.465266 628.534176, 539.465266 626.346728 539.465266 626.346728, 532.904446 626.346728 532.904446 626.346728, 526.342102 626.346728 526.342102 626.346728, 519.779504 626.346728 519.779504 626.346728, 513.218684 626.346728 513.218684 626.346728, 513.218684 621.972594 513.218684 621.972594, 513.218684 617.596936 513.218684 617.596936, 513.218684 613.222802 513.218684 613.222802, 513.218684 608.847906 513.218684 608.847906, 522.185646 608.847906 522.185646 608.847906, 531.154132 608.847906 531.154132 608.847906, 540.122618 608.847906 540.122618 608.847906, 549.089326 608.847906 549.089326 608.847906, 549.089326 607.535488 549.089326 607.535488, 549.089326 606.223324 549.089326 606.223324, 549.089326 604.910906 549.089326 604.910906, 549.089326 603.598488 549.089326 603.598488, 546.466268 603.598488 546.466268 603.598488, 543.840162 603.598488 543.840162 603.598488, 541.21558 603.598488 541.21558 603.598488, 538.590744 603.598488 538.590744 603.598488, 538.590744 601.84919 538.590744 601.84919, 538.590744 600.099638 538.590744 600.099638, 538.590744 598.350086 538.590744 598.350086, 538.590744 596.601296 538.590744 596.601296, 542.965894 596.601296 542.965894 596.601296, 547.34079 596.601296 547.34079 596.601296, 551.715686 596.601296 551.715686 596.601296, 556.090582 596.601296 556.090582 596.601296, 556.090582 597.694258 556.090582 597.694258, 556.090582 598.78722 556.090582 598.78722, 556.090582 599.880182 556.090582 599.880182, 556.090582 600.973906 556.090582 600.973906, 580.149462 600.973906 580.149462 600.973906, 604.208596 600.973906 604.208596 600.973906, 628.269 600.973906 628.269 600.973906, 652.32788 600.973906 652.32788 600.973906, 652.32788 595.943182 652.32788 595.943182, 652.32788 590.91322 652.32788 590.91322, 652.32788 585.883512 652.32788 585.883512, 652.32788 580.852788 652.32788 580.852788, 628.04802 580.852788 628.04802 580.852788, 603.771462 580.852788 603.771462 580.852788, 579.492364 580.852788 579.492364 580.852788, 555.213012 580.852788 555.213012 580.852788, 555.213012 582.821542 555.213012 582.821542, 555.213012 584.789788 555.213012 584.789788, 555.213012 586.758542 555.213012 586.758542, 555.213012 588.72755 555.213012 588.72755, 551.058334 588.72755 551.058334 588.72755, 546.901878 588.72755 546.901878 588.72755, 542.7472 588.72755 542.7472 588.72755, 538.590744 588.72755 538.590744 588.72755, 533.122886 588.72755 533.122886 588.72755, 527.655028 588.72755 527.655028 588.72755, 522.18717 588.72755 522.18717 588.72755, 516.719312 588.72755 516.719312 588.72755, 516.719312 585.664818 516.719312 585.664818, 516.719312 582.60234 516.719312 582.60234, 516.719312 579.539608 516.719312 579.539608, 516.719312 576.47713 516.719312 576.47713, 525.686274 576.47713 525.686274 576.47713, 534.65476 576.47713 534.65476 576.47713, 543.621468 576.47713 543.621468 576.47713, 552.58843 576.47713 552.58843 576.47713, 552.58843 566.416444 552.58843 566.416444, 552.58843 556.354996 552.58843 556.354996, 552.58843 546.29431 552.58843 546.29431, 552.58843 536.232862 552.58843 536.232862, 540.341058 513.922772 540.341058 513.922772, 528.092162 491.612428 528.092162 491.612428, 515.845044 469.302846 515.845044 469.302846, 503.596148 446.992756 503.596148 446.992756, 503.596148 437.368442 503.596148 437.368442, 503.596148 427.74362 503.596148 427.74362, 503.596148 418.11956 503.596148 418.11956, 503.596148 408.4955 503.596148 408.4955, 504.68911 408.4955 504.68911 408.4955, 505.782072 408.4955 505.782072 408.4955, 506.875034 408.4955 506.875034 408.4955, 507.96952 408.4955 507.96952 408.4955, 507.96952 410.464 507.96952 410.464, 507.96952 412.4325 507.96952 412.4325, 507.96952 414.401 507.96952 414.401, 507.96952 416.3695 507.96952 416.3695, 517.59358 416.3695 517.59358 416.3695, 527.217894 416.3695 527.217894 416.3695, 536.840684 416.3695 536.840684 416.3695, 546.466268 416.3695 546.466268 416.3695, 546.466268 403.46376 546.466268 403.46376, 546.466268 390.56056 546.466268 390.56056, 546.466268 377.65482 546.466268 377.65482, 546.466268 364.74908 546.466268 364.74908, 537.060648 364.74908 537.060648 364.74908, 527.655028 364.74908 527.655028 364.74908, 518.250932 364.74908 518.250932 364.74908, 508.845312 364.74908 508.845312 364.74908, 508.845312 367.157 508.845312 367.157, 508.845312 369.56238 508.845312 369.56238, 508.845312 371.96776 508.845312 371.96776, 508.845312 374.37568 508.845312 374.37568, 507.53391 374.37568 507.53391 374.37568, 506.22073 374.37568 506.22073 374.37568, 504.909074 374.37568 504.909074 374.37568, 503.596148 374.37568 503.596148 374.37568, 503.596148 337.19008 503.596148 337.19008, 503.596148 300.00702 503.596148 300.00702, 503.596148 262.82396 503.596148 262.82396, 503.596148 225.6409 503.596148 225.6409, 501.190006 225.6409 501.190006 225.6409, 498.783864 225.6409 498.783864 225.6409, 496.377976 225.6409 496.377976 225.6409, 493.971834 225.6409 493.971834 225.6409, 507.094998 199.1741 507.094998 199.1741, 520.218416 172.7073 520.218416 172.7073, 533.34158 146.24304 533.34158 146.24304, 546.466268 119.77878 546.466268 119.77878, 546.466268 106.92892 546.466268 106.92892, 546.466268 78.0034 546.466268 78.0034, 546.466268 47.4345 546.466268 47.4345, 546.466268 29.66466 546.466268 29.66466, 546.711378 23.92426 546.711378 23.92426, 546.466268 19.82216 546.466268 19.82216, 544.25088 17.3609 544.25088 17.3609, 538.590744 16.54048 538.590744 16.54048, 529.104606 16.54048 529.104606 16.54048, 518.469626 16.54048 518.469626 16.54048, 509.801876 16.54048 509.801876 16.54048, 506.22073 16.54048 506.22073 16.54048, 506.22073 18.72742 506.22073 18.72742, 506.22073 20.91436 506.22073 20.91436, 506.22073 23.1013 506.22073 23.1013, 506.22073 25.28824 506.22073 25.28824, 513.657596 25.28824 513.657596 25.28824, 521.094208 25.28824 521.094208 25.28824, 528.52955 25.28824 528.52955 25.28824, 535.966162 25.28824 535.966162 25.28824, 535.966162 34.69386 535.966162 34.69386, 535.966162 44.09948 535.966162 44.09948, 535.966162 53.50256 535.966162 53.50256, 535.966162 62.90818 535.966162 62.90818, 513.876036 62.90818 513.876036 62.90818, 491.784386 62.90818 491.784386 62.90818, 469.692736 62.90818 469.692736 62.90818, 447.601086 62.90818 447.601086 62.90818, 447.601086 47.8155 447.601086 47.8155, 447.601086 32.72282 447.601086 32.72282, 447.601086 17.63268 447.601086 17.63268, 447.601086 2.54 447.601086 2.54, 439.508646 2.54 439.508646 2.54, 431.415952 2.54 431.415952 2.54, 423.323512 2.54 423.323512 2.54, 415.231072 2.54 415.231072 2.54, 415.231072 4.94792 415.231072 4.94792, 415.231072 7.3533 415.231072 7.3533, 415.231072 9.75868 415.231072 9.75868, 415.231072 12.16406 415.231072 12.16406, 405.169624 12.16406 405.169624 12.16406, 395.108176 12.16406 395.108176 12.16406, 385.046728 12.16406 385.046728 12.16406, 374.98528 12.16406 374.98528 12.16406, 363.610906 12.16406 363.610906 12.16406, 352.237802 12.16406 352.237802 12.16406, 340.863428 12.16406 340.863428 12.16406, 329.4888 12.16406 329.4888 12.16406, 319.427352 12.16406 319.427352 12.16406, 309.366158 12.16406 309.366158 12.16406, 299.30471 12.16406 299.30471 12.16406, 289.243262 12.16406 289.243262 12.16406, 289.243262 9.75868 289.243262 9.75868, 289.243262 7.3533 289.243262 7.3533, 289.243262 4.94792 289.243262 4.94792, 289.243262 2.54 289.243262 2.54, 281.152346 2.54 281.152346 2.54, 273.058128 2.54 273.058128 2.54, 264.965688 2.54 264.965688 2.54, 256.873248 2.54 256.873248 2.54, 256.873248 17.63268 256.873248 17.63268, 256.873248 32.72282 256.873248 32.72282, 256.873248 47.8155 256.873248 47.8155, 256.873248 62.90818 256.873248 62.90818, 234.781598 62.90818 234.781598 62.90818, 212.691472 62.90818 212.691472 62.90818, 190.599568 62.90818 190.599568 62.90818, 168.507918 62.90818 168.507918 62.90818, 168.507918 53.50256 168.507918 53.50256, 168.507918 44.09948 168.507918 44.09948, 168.507918 34.69386 168.507918 34.69386, 168.507918 25.28824 168.507918 25.28824, 175.94326 25.28824 175.94326 25.28824, 183.379872 25.28824 183.379872 25.28824, 190.816738 25.28824 190.816738 25.28824, 198.25335 25.28824 198.25335 25.28824, 198.25335 23.1013 198.25335 23.1013, 198.25335 20.91436 198.25335 20.91436, 198.25335 18.72742 198.25335 18.72742, 198.25335 16.54048 198.25335 16.54048, 194.67068 16.54048 194.67068 16.54048, 186.004708 16.54048 186.004708 16.54048, 175.369474 16.54048 175.369474 16.54048, 165.883336 16.54048 165.883336 16.54048, 160.2232 17.3609 160.2232 17.3609, 158.007812 19.82216 158.007812 19.82216, 157.762956 23.92426 157.762956 23.92426, 158.007812 29.66466 158.007812 29.66466, 158.007812 47.4345 158.007812 47.4345, 158.007812 78.0034 158.007812 78.0034, 158.007812 106.92892 158.007812 106.92892, 158.007812 119.77878 158.007812 119.77878, 171.132754 146.24304 171.132754 146.24304, 184.255918 172.7073 184.255918 172.7073, 197.379082 199.1741 197.379082 199.1741, 210.502246 225.6409 210.502246 225.6409, 208.096358 225.6409 208.096358 225.6409, 205.690216 225.6409 205.690216 225.6409, 203.284074 225.6409 203.284074 225.6409, 200.878186 225.6409 200.878186 225.6409, 200.878186 262.82396 200.878186 262.82396, 200.878186 300.00702 200.878186 300.00702, 200.878186 337.19008 200.878186 337.19008, 200.878186 374.37568 200.878186 374.37568, 199.565006 374.37568 199.565006 374.37568, 198.25335 374.37568 198.25335 374.37568, 196.940424 374.37568 196.940424 374.37568, 195.628768 374.37568 195.628768 374.37568, 195.628768 371.96776 195.628768 371.96776, 195.628768 369.56238 195.628768 369.56238, 195.628768 367.157 195.628768 367.157, 195.628768 364.74908 195.628768 364.74908, 186.223148 364.74908 186.223148 364.74908, 176.819052 364.74908 176.819052 364.74908, 167.413432 364.74908 167.413432 364.74908, 158.007812 364.74908 158.007812 364.74908, 158.007812 377.65482 158.007812 377.65482, 158.007812 390.56056 158.007812 390.56056, 158.007812 403.46376 158.007812 403.46376, 158.007812 416.3695 158.007812 416.3695, 167.632126 416.3695 167.632126 416.3695, 177.256186 416.3695 177.256186 416.3695, 186.8805 416.3695 186.8805 416.3695, 196.504814 416.3695 196.504814 416.3695, 196.504814 414.401 196.504814 414.401, 196.504814 412.4325 196.504814 412.4325, 196.504814 410.464 196.504814 410.464, 196.504814 408.4955 196.504814 408.4955, 197.597776 408.4955 197.597776 408.4955, 198.690738 408.4955 198.690738 408.4955, 199.785224 408.4955 199.785224 408.4955, 200.878186 408.4955 200.878186 408.4955, 200.878186 418.11956 200.878186 418.11956, 200.878186 427.74362 200.878186 427.74362, 200.878186 437.368442 200.878186 437.368442, 200.878186 446.992756 200.878186 446.992756, 188.62929 469.302846 188.62929 469.302846, 176.381918 491.612428 176.381918 491.612428, 164.133022 513.922772 164.133022 513.922772, 151.88565 536.232862 151.88565 536.232862, 151.88565 546.29431 151.88565 546.29431, 151.88565 556.354996 151.88565 556.354996, 151.88565 566.416444 151.88565 566.416444, 151.88565 576.47713 151.88565 576.47713, 160.852612 576.47713 160.852612 576.47713, 169.819574 576.47713 169.819574 576.47713, 178.786536 576.47713 178.786536 576.47713, 187.754768 576.47713 187.754768 576.47713, 187.754768 579.539608 187.754768 579.539608, 187.754768 582.60234 187.754768 582.60234, 187.754768 585.664818 187.754768 585.664818, 187.754768 588.72755 187.754768 588.72755, 182.28691 588.72755 182.28691 588.72755, 176.819052 588.72755 176.819052 588.72755, 171.34967 588.72755 171.34967 588.72755, 165.883336 588.72755 165.883336 588.72755, 161.727134 588.72755 161.727134 588.72755, 157.572202 588.72755 157.572202 588.72755, 153.416 588.72755 153.416 588.72755, 149.259544 588.72755 149.259544 588.72755, 149.259544 586.758542 149.259544 586.758542, 149.259544 584.789788 149.259544 584.789788, 149.259544 582.821542 149.259544 582.821542, 149.259544 580.852788 149.259544 580.852788, 124.98197 580.852788 124.98197 580.852788, 100.702872 580.852788 100.702872 580.852788, 76.42606 580.852788 76.42606 580.852788, 52.1462 580.852788 52.1462 580.852788, 52.1462 585.883512 52.1462 585.883512, 52.1462 590.91322 52.1462 590.91322, 52.1462 595.943182 52.1462 595.943182, 52.1462 600.973906 52.1462 600.973906, 76.20508 600.973906 76.20508 600.973906, 100.264214 600.973906 100.264214 600.973906, 124.324618 600.973906 124.324618 600.973906, 148.383752 600.973906 148.383752 600.973906, 148.383752 599.880182 148.383752 599.880182, 148.383752 598.78722 148.383752 598.78722, 148.383752 597.694258 148.383752 597.694258, 148.383752 596.601296 148.383752 596.601296, 152.758648 596.601296 152.758648 596.601296, 157.133544 596.601296 157.133544 596.601296, 161.50844 596.601296 161.50844 596.601296, 165.883336 596.601296 165.883336 596.601296, 165.883336 598.350086 165.883336 598.350086, 165.883336 600.099638 165.883336 600.099638, 165.883336 601.84919 165.883336 601.84919, 165.883336 603.598488 165.883336 603.598488, 163.258754 603.598488 163.258754 603.598488, 160.632394 603.598488 160.632394 603.598488, 158.007812 603.598488 158.007812 603.598488, 155.38323 603.598488 155.38323 603.598488, 155.38323 604.910906 155.38323 604.910906, 155.38323 606.223324 155.38323 606.223324, 155.38323 607.535488 155.38323 607.535488, 155.38323 608.847906 155.38323 608.847906, 164.351716 608.847906 164.351716 608.847906, 173.320202 608.847906 173.320202 608.847906, 182.28691 608.847906 182.28691 608.847906, 191.255396 608.847906 191.255396 608.847906, 191.255396 613.222802 191.255396 613.222802, 191.255396 617.596936 191.255396 617.596936, 191.255396 621.972594 191.255396 621.972594, 191.255396 626.346728 191.255396 626.346728, 184.693052 626.346728 184.693052 626.346728, 178.132232 626.346728 178.132232 626.346728, 171.571412 626.346728 171.571412 626.346728, 165.009068 626.346728 165.009068 626.346728, 165.009068 628.534176 165.009068 628.534176, 165.009068 630.720862 165.009068 630.720862, 165.009068 632.907802 165.009068 632.907802, 165.009068 635.09525 165.009068 635.09525, 163.04006 635.09525 163.04006 635.09525, 161.071306 635.09525 161.071306 635.09525, 159.102298 635.09525 159.102298 635.09525, 157.135068 635.09525 157.135068 635.09525, 157.135068 632.470414 157.135068 632.470414, 157.135068 629.845832 157.135068 629.845832, 157.135068 627.22125 157.135068 627.22125, 157.135068 624.595906 157.135068 624.595906, 148.166582 624.595906 148.166582 624.595906, 139.198096 624.595906 139.198096 624.595906, 130.231388 624.595906 130.231388 624.595906, 121.262902 624.595906 121.262902 624.595906, 121.262902 637.282698 121.262902 637.282698, 121.262902 649.967966 121.262902 649.967966, 121.262902 662.653996 121.262902 662.653996, 121.262902 675.340026 121.262902 675.340026, 129.792476 675.340026 129.792476 675.340026, 138.323828 675.340026 138.323828 675.340026, 146.853402 675.340026 146.853402 675.340026, 155.38323 675.340026 155.38323 675.340026, 157.351984 809.856648 157.351984 809.856648, 159.320992 944.371746 159.320992 944.371746, 161.289746 1078.88786 161.289746 1078.88786, 163.258754 1213.40372 163.258754 1213.40372, 172.66285 1253.871 172.66285 1253.871, 182.06847 1294.33574 182.06847 1294.33574, 191.472566 1334.80048 191.472566 1334.80048, 200.878186 1375.26522 200.878186 1375.26522, 213.345522 1382.26292 213.345522 1382.26292, 225.813112 1389.26316 225.813112 1389.26316, 238.280448 1396.26086 238.280448 1396.26086, 250.748038 1403.2611 250.748038 1403.2611, 261.902194 1403.2611 261.902194 1403.2611, 273.058128 1403.2611 273.058128 1403.2611, 284.212538 1403.2611 284.212538 1403.2611, 295.366948 1403.2611 295.366948 1403.2611, 323.802502 1403.2611 323.802502 1403.2611, 352.237802 1403.2611 352.237802 1403.2611, 380.671832 1403.2611 380.671832 1403.2611, 409.107386 1403.2611 409.107386 1403.2611, 409.107386 1403.2611"/>
      </g>
      <g>
        <polyline style="fill: transparent;stroke: black;stroke-width: 1;" points="210.502246 225.6409, 281.369262 225.6409 281.369262 225.6409, 352.236278 225.6409 352.236278 225.6409, 423.104818 225.6409 423.104818 225.6409, 493.971834 225.6409"/>
      </g>
      <g>
        <polyline style="fill: transparent;stroke: black;stroke-width: 1;" points="151.008334 538.418786, 251.403612 538.418786 251.403612 538.418786, 351.799144 538.418786 351.799144 538.418786, 452.194676 538.418786 452.194676 538.418786, 552.58843 538.418786"/>
      </g>
      <g>
        <polyline style="fill: transparent;stroke: black;stroke-width: 1;" points="162.384232 513.484622, 256.873248 513.484622 256.873248 513.484622, 351.363534 513.484622 351.363534 513.484622, 445.852296 513.484622 445.852296 513.484622, 540.342582 513.484622"/>
      </g>
      <g>
        <polyline style="fill: transparent;stroke: black;stroke-width: 1;" points="386.5753 224.76714, 386.5753 255.19634 386.5753 255.19634, 386.5753 324.01256 386.5753 324.01256, 386.5753 397.50492 386.5753 397.50492, 386.5753 441.96127 386.5753 441.96127, 384.515106 460.374746 384.515106 460.374746, 378.456444 476.57385 378.456444 476.57385, 368.582702 488.098592 368.582702 488.098592, 355.079554 492.486696 355.079554 492.486696, 352.61931 492.486696 352.61931 492.486696, 350.159066 492.486696 350.159066 492.486696, 347.697044 492.486696 347.697044 492.486696, 345.2368 492.486696 345.2368 492.486696, 331.733652 488.098592 331.733652 488.098592, 321.861434 476.57385 321.861434 476.57385, 315.801248 460.374746 315.801248 460.374746, 313.741054 441.96127 313.741054 441.96127, 313.741054 397.50492 313.741054 397.50492, 313.741054 324.01256 313.741054 324.01256, 313.741054 255.19634 313.741054 255.19634, 313.741054 224.76714"/>
      </g>
      <g>
        <polyline style="fill: transparent;stroke: black;stroke-width: 1;" points="214.657178 63.3476, 217.630502 84.89696 217.630502 84.89696, 224.17278 134.3787 224.17278 134.3787, 230.713534 189.02426 230.713534 189.02426, 233.686858 226.07778"/>
      </g>
      <g>
        <polyline style="fill: transparent;stroke: black;stroke-width: 1;" points="479.754184 63.3476, 476.780606 84.89696 476.780606 84.89696, 470.238328 134.3787 470.238328 134.3787, 463.697828 189.02426 463.697828 189.02426, 460.72425 226.07778"/>
      </g>
      <g>
        <polyline style="fill: transparent;stroke: black;stroke-width: 1;" points="200.003664 425.11726, 275.682964 425.11726 275.682964 425.11726, 351.36201 425.11726 351.36201 425.11726, 427.041056 425.11726 427.041056 425.11726, 502.720102 425.11726"/>
      </g>
      <g>
        <polyline style="fill: gray;stroke: black;stroke-width: 1;" points="407.573988 1260.87124, 403.473412 1260.87124 403.473412 1260.87124, 399.371566 1260.87124 399.371566 1260.87124, 395.27099 1260.87124 395.27099 1260.87124, 391.16889 1260.87124 391.16889 1260.87124, 391.16889 1209.8528 391.16889 1209.8528, 391.16889 1158.83436 391.16889 1158.83436, 391.16889 1107.81592 391.16889 1107.81592, 391.16889 1056.80002 391.16889 1056.80002, 395.27099 1056.80002 395.27099 1056.80002, 399.371566 1056.80002 399.371566 1056.80002, 403.473412 1056.80002 403.473412 1056.80002, 407.573988 1056.80002 407.573988 1056.80002, 407.573988 1107.81592 407.573988 1107.81592, 407.573988 1158.83436 407.573988 1158.83436, 407.573988 1209.8528 407.573988 1209.8528, 407.573988 1260.87124 407.573988 1260.87124, 407.573988 1260.87124"/>
      </g>
      <g>
        <polyline style="fill: gray;stroke: black;stroke-width: 1;" points="435.133496 1260.87124, 431.033174 1260.87124 431.033174 1260.87124, 426.931074 1260.87124 426.931074 1260.87124, 422.830498 1260.87124 422.830498 1260.87124, 418.728398 1260.87124 418.728398 1260.87124, 418.728398 1209.8528 418.728398 1209.8528, 418.728398 1158.83436 418.728398 1158.83436, 418.728398 1107.81592 418.728398 1107.81592, 418.728398 1056.80002 418.728398 1056.80002, 422.830498 1056.80002 422.830498 1056.80002, 426.931074 1056.80002 426.931074 1056.80002, 431.033174 1056.80002 431.033174 1056.80002, 435.133496 1056.80002 435.133496 1056.80002, 435.133496 1107.81592 435.133496 1107.81592, 435.133496 1158.83436 435.133496 1158.83436, 435.133496 1209.8528 435.133496 1209.8528, 435.133496 1260.87124 435.133496 1260.87124, 435.133496 1260.87124"/>
      </g>
      <g>
        <polyline style="fill: gray;stroke: black;stroke-width: 1;" points="422.010332 224.76714, 387.39699 224.76714 387.39699 224.76714, 352.783648 224.76714 352.783648 224.76714, 318.170306 224.76714 318.170306 224.76714, 283.55671 224.76714 283.55671 224.76714, 283.55671 184.90438 283.55671 184.90438, 283.55671 145.04162 283.55671 145.04162, 283.55671 105.17886 283.55671 105.17886, 283.55671 65.3161 283.55671 65.3161, 318.170306 65.3161 318.170306 65.3161, 352.783648 65.3161 352.783648 65.3161, 387.39699 65.3161 387.39699 65.3161, 422.010332 65.3161 422.010332 65.3161, 422.010332 105.17886 422.010332 105.17886, 422.010332 145.04162 422.010332 145.04162, 422.010332 184.90438 422.010332 184.90438, 422.010332 224.76714 422.010332 224.76714, 422.010332 224.76714"/>
      </g>
      <g>
        <polyline style="fill: gray;stroke: black;stroke-width: 1;" points="352.454972 1260.87124, 348.354396 1260.87124 348.354396 1260.87124, 344.252296 1260.87124 344.252296 1260.87124, 340.15172 1260.87124 340.15172 1260.87124, 336.051398 1260.87124 336.051398 1260.87124, 336.051398 1209.8528 336.051398 1209.8528, 336.051398 1158.83436 336.051398 1158.83436, 336.051398 1107.81592 336.051398 1107.81592, 336.051398 1056.80002 336.051398 1056.80002, 340.15172 1056.80002 340.15172 1056.80002, 344.252296 1056.80002 344.252296 1056.80002, 348.354396 1056.80002 348.354396 1056.80002, 352.454972 1056.80002 352.454972 1056.80002, 352.454972 1107.81592 352.454972 1107.81592, 352.454972 1158.83436 352.454972 1158.83436, 352.454972 1209.8528 352.454972 1209.8528, 352.454972 1260.87124 352.454972 1260.87124, 352.454972 1260.87124"/>
      </g>
      <g>
        <polyline style="fill: gray;stroke: black;stroke-width: 1;" points="380.01448 1260.87124, 375.913904 1260.87124 375.913904 1260.87124, 371.811804 1260.87124 371.811804 1260.87124, 367.711482 1260.87124 367.711482 1260.87124, 363.609382 1260.87124 363.609382 1260.87124, 363.609382 1209.8528 363.609382 1209.8528, 363.609382 1158.83436 363.609382 1158.83436, 363.609382 1107.81592 363.609382 1107.81592, 363.609382 1056.80002 363.609382 1056.80002, 367.711482 1056.80002 367.711482 1056.80002, 371.811804 1056.80002 371.811804 1056.80002, 375.913904 1056.80002 375.913904 1056.80002, 380.01448 1056.80002 380.01448 1056.80002, 380.01448 1107.81592 380.01448 1107.81592, 380.01448 1158.83436 380.01448 1158.83436, 380.01448 1209.8528 380.01448 1209.8528, 380.01448 1260.87124 380.01448 1260.87124, 380.01448 1260.87124"/>
      </g>
      <g>
        <polyline style="fill: gray;stroke: black;stroke-width: 1;" points="437.102504 1403.2611, 397.2941 1403.2611 397.2941 1403.2611, 357.485696 1403.2611 357.485696 1403.2611, 317.678816 1403.2611 317.678816 1403.2611, 277.870412 1403.2611 277.870412 1403.2611, 277.870412 1371.54412 277.870412 1371.54412, 277.870412 1339.82968 277.870412 1339.82968, 277.870412 1308.1127 277.870412 1308.1127, 277.870412 1276.39826 277.870412 1276.39826, 317.678816 1276.39826 317.678816 1276.39826, 357.485696 1276.39826 357.485696 1276.39826, 397.2941 1276.39826 397.2941 1276.39826, 437.102504 1276.39826 437.102504 1276.39826, 437.102504 1308.1127 437.102504 1308.1127, 437.102504 1339.82968 437.102504 1339.82968, 437.102504 1371.54412 437.102504 1371.54412, 437.102504 1403.2611 437.102504 1403.2611, 437.102504 1403.2611"/>
      </g>
      <g>
        <polyline style="fill: gray;stroke: black;stroke-width: 1;" points="297.335702 1260.87124, 293.23538 1260.87124 293.23538 1260.87124, 289.13328 1260.87124 289.13328 1260.87124, 285.032704 1260.87124 285.032704 1260.87124, 280.932128 1260.87124 280.932128 1260.87124, 280.932128 1209.8528 280.932128 1209.8528, 280.932128 1158.83436 280.932128 1158.83436, 280.932128 1107.81592 280.932128 1107.81592, 280.932128 1056.80002 280.932128 1056.80002, 285.032704 1056.80002 285.032704 1056.80002, 289.13328 1056.80002 289.13328 1056.80002, 293.23538 1056.80002 293.23538 1056.80002, 297.335702 1056.80002 297.335702 1056.80002, 297.335702 1107.81592 297.335702 1107.81592, 297.335702 1158.83436 297.335702 1158.83436, 297.335702 1209.8528 297.335702 1209.8528, 297.335702 1260.87124 297.335702 1260.87124, 297.335702 1260.87124"/>
      </g>
      <g>
        <polyline style="fill: gray;stroke: black;stroke-width: 1;" points="324.895464 1260.87124, 320.794888 1260.87124 320.794888 1260.87124, 316.692788 1260.87124 316.692788 1260.87124, 312.592212 1260.87124 312.592212 1260.87124, 308.491636 1260.87124 308.491636 1260.87124, 308.491636 1209.8528 308.491636 1209.8528, 308.491636 1158.83436 308.491636 1158.83436, 308.491636 1107.81592 308.491636 1107.81592, 308.491636 1056.80002 308.491636 1056.80002, 312.592212 1056.80002 312.592212 1056.80002, 316.692788 1056.80002 316.692788 1056.80002, 320.794888 1056.80002 320.794888 1056.80002, 324.895464 1056.80002 324.895464 1056.80002, 324.895464 1107.81592 324.895464 1107.81592, 324.895464 1158.83436 324.895464 1158.83436, 324.895464 1209.8528 324.895464 1209.8528, 324.895464 1260.87124 324.895464 1260.87124, 324.895464 1260.87124"/>
      </g>
    </g>
  </g>
</svg>
