<?xml version="1.0" encoding="utf-8"?>
<!-- Generator: www.crescit.com, SVG Export - SVG Version: 6.00 Build 1  -->
<!-- FXGUID: [5F5D197F-9C11-11E7-AE34-525400685065] SYMID: [14144]  -->
<svg xmlns="http://www.w3.org/2000/svg" version="1.1" ch_offset="0" color_bar_width="66" width="330.900532" height="252.3109" origin_x="152.54478" origin_y="132.578856" ch_offset_x="151.9541792" ch_offset_y="40" color_offset_x="152.54478" color_offset_y="-4">
  <g>
    <title>Layer 1</title>
    <g>
      <g>
        <polyline style="fill: gray;stroke: black;stroke-width: 1;" points="293.402258 25.415494, 27.338528 25.415494 27.338528 25.415494, 12.196826 38.47592 12.196826 38.47592, 12.196826 226.550474 12.196826 226.550474, 27.338528 239.6109 27.338528 239.6109, 293.402258 239.6109 293.402258 239.6109, 308.54396 226.550474 308.54396 226.550474, 308.54396 38.47592 308.54396 38.47592, 293.402258 25.415494"/>
      </g>
      <g>
        <polyline style="fill: gray;stroke: black;stroke-width: 1;" points="57.081674 194.90055, 31.124398 194.90055 31.124398 194.90055, 31.124398 70.125844 31.124398 70.125844, 57.081674 70.125844 57.081674 70.125844, 57.081674 194.90055"/>
      </g>
      <g>
        <polyline style="fill: gray;stroke: black;stroke-width: 1;" points="289.61715 194.90055, 263.659874 194.90055 263.659874 194.90055, 263.659874 70.125844 263.659874 70.125844, 289.61715 70.125844 289.61715 70.125844, 289.61715 194.90055"/>
      </g>
      <g>
        <polyline style="fill: gray;stroke: black;stroke-width: 1;" points="309.855362 88.502236, 10.88517 88.502236 10.88517 88.502236, 2.54 106.07802 2.54 106.07802, 2.54 158.948374 2.54 158.948374, 10.88517 176.523396 10.88517 176.523396, 309.855362 176.523396 309.855362 176.523396, 318.200786 158.948374 318.200786 158.948374, 318.200786 106.07802 318.200786 106.07802, 309.855362 88.502236"/>
      </g>
      <g>
        <polyline style="fill: gray;stroke: black;stroke-width: 1;" points="281.041602 154.173428, 276.174454 154.173428 276.174454 154.173428, 276.174454 111.022638 276.174454 111.022638, 281.041602 111.022638 281.041602 111.022638, 281.041602 154.173428"/>
      </g>
      <g>
        <polyline style="fill: gray;stroke: black;stroke-width: 1;" points="281.196034 176.517808, 309.855362 176.608486 309.855362 176.608486, 318.200786 159.032956 318.200786 159.032956, 318.200786 106.162602 318.200786 106.162602, 309.855362 88.58758 309.855362 88.58758, 281.196034 88.678258 281.196034 88.678258, 281.196034 176.517808"/>
      </g>
      <g>
        <polyline style="fill: gray;stroke: black;stroke-width: 1;" points="39.475918 154.173428, 44.295568 154.173428 44.295568 154.173428, 44.295568 111.022638 44.295568 111.022638, 39.475918 111.022638 39.475918 111.022638, 39.475918 154.173428"/>
      </g>
      <g>
        <polyline style="fill: gray;stroke: black;stroke-width: 1;" points="39.322248 176.517808, 10.939526 176.608486 10.939526 176.608486, 2.674874 159.032956 2.674874 159.032956, 2.674874 106.162602 2.674874 106.162602, 10.939526 88.58758 10.939526 88.58758, 39.322248 88.417908 39.322248 88.417908, 39.322248 176.517808"/>
      </g>
      <g>
        <polyline style="fill: gray;stroke: black;stroke-width: 1;" points="258.792726 45.691044, 258.792726 2.54 258.792726 2.54, 61.94806 2.54 61.94806 2.54, 61.94806 45.691044 61.94806 45.691044, 44.373292 45.691044 44.373292 45.691044, 44.373292 184.502806 44.373292 184.502806, 63.30061 219.33535 63.30061 219.33535, 257.439922 219.33535 257.439922 219.33535, 276.367494 184.502806 276.367494 184.502806, 276.367494 45.691044 276.367494 45.691044, 258.792726 45.691044"/>
      </g>
      <g>
        <polyline style="fill: gray;stroke: black;stroke-width: 1;" points="250.00712 45.691044, 250.00712 141.606016 250.00712 141.606016, 257.712972 165.779704 257.712972 165.779704, 240.67897 211.008722 240.67897 211.008722, 198.500238 198.142098 198.500238 198.142098, 184.305702 195.802758 184.305702 195.802758, 136.449054 195.802758 136.449054 195.802758, 122.254518 198.142098 122.254518 198.142098, 80.075532 211.008722 80.075532 211.008722, 63.041784 165.779704 63.041784 165.779704, 70.747636 141.606016 70.747636 141.606016, 70.747636 45.691044 70.747636 45.691044, 250.00712 45.691044"/>
      </g>
      <g>
        <polyline style="fill: gray;stroke: black;stroke-width: 1;" points="184.305702 195.802758, 198.500238 198.142098 198.500238 198.142098, 218.234006 204.11313 218.234006 204.11313, 237.701582 183.0578 237.701582 183.0578, 239.594644 133.927342 239.594644 133.927342, 230.942388 56.983376 230.942388 56.983376, 206.606648 48.66513 206.606648 48.66513, 188.76137 57.503314 188.76137 57.503314, 173.366938 87.229442 173.366938 87.229442, 151.988266 114.691414 151.988266 114.691414, 115.475004 146.329908 115.475004 146.329908, 89.798398 166.681404 89.798398 166.681404, 89.798398 185.39714 89.798398 185.39714, 105.616756 203.20381 105.616756 203.20381, 122.254518 198.142098 122.254518 198.142098, 136.449054 195.802758 136.449054 195.802758, 184.305702 195.802758 184.305702 195.802758, 184.305702 195.802758"/>
      </g>
      <g>
        <polyline style="fill: gray;stroke: black;stroke-width: 1;" points="115.034822 148.1963, 108.36529 148.1963 108.36529 148.1963, 108.36529 116.829332 108.36529 116.829332, 115.034822 116.829332 115.034822 116.829332, 115.034822 148.1963"/>
      </g>
      <g>
        <polyline style="fill: gray;stroke: black;stroke-width: 1;" points="131.258564 148.1963, 124.588524 148.1963 124.588524 148.1963, 124.588524 116.829332 124.588524 116.829332, 131.258564 116.829332 131.258564 116.829332, 131.258564 148.1963"/>
      </g>
      <g>
        <polyline style="fill: gray;stroke: black;stroke-width: 1;" points="147.481544 148.1963, 140.812266 148.1963 140.812266 148.1963, 140.812266 116.829332 140.812266 116.829332, 147.481544 116.829332 147.481544 116.829332, 147.481544 148.1963"/>
      </g>
      <g>
        <polyline style="fill: gray;stroke: black;stroke-width: 1;" points="163.70554 148.1963, 157.035246 148.1963 157.035246 148.1963, 157.035246 116.829332 157.035246 116.829332, 163.70554 116.829332 163.70554 116.829332, 163.70554 148.1963"/>
      </g>
      <g>
        <polyline style="fill: gray;stroke: black;stroke-width: 1;" points="179.92852 148.1963, 173.259242 148.1963 173.259242 148.1963, 173.259242 116.829332 173.259242 116.829332, 179.92852 116.829332 179.92852 116.829332, 179.92852 148.1963"/>
      </g>
      <g>
        <polyline style="fill: gray;stroke: black;stroke-width: 1;" points="196.152262 148.1963, 189.482222 148.1963 189.482222 148.1963, 189.482222 116.829332 189.482222 116.829332, 196.152262 116.829332 196.152262 116.829332, 196.152262 148.1963"/>
      </g>
      <g>
        <polyline style="fill: gray;stroke: black;stroke-width: 1;" points="212.375242 148.1963, 205.705964 148.1963 205.705964 148.1963, 205.705964 116.829332 205.705964 116.829332, 212.375242 116.829332 212.375242 116.829332, 212.375242 148.1963"/>
      </g>
      <g>
        <polyline style="fill: gray;stroke: black;stroke-width: 1;" points="228.599238 148.1963, 221.928944 148.1963 221.928944 148.1963, 221.928944 116.829332 221.928944 116.829332, 228.599238 116.829332 228.599238 116.829332, 228.599238 148.1963"/>
      </g>
      <g>
        <polyline style="fill: gray;stroke: black;stroke-width: 1;" points="98.811588 148.1963, 92.141548 148.1963 92.141548 148.1963, 92.141548 116.829332 92.141548 116.829332, 98.811588 116.829332 98.811588 116.829332, 98.811588 148.1963"/>
      </g>
      <g>
        <polyline style="fill: gray;stroke: black;stroke-width: 1;" points="258.792726 45.691044, 61.94806 45.691044 61.94806 45.691044, 61.94806 2.54 61.94806 2.54, 258.792726 2.54 258.792726 2.54, 258.792726 45.691044"/>
      </g>
    </g>
  </g>
</svg>
