<?xml version="1.0" encoding="utf-8"?>
<!-- Generator: SVG Export - SVG Version: 6.00 Build 1  -->
<!-- FXGUID: [D04CBEB6-CEF3-11E5-89B0-F0761CCEA3DE] SYMID: [14129]  -->
<svg xmlns="http://www.w3.org/2000/svg" version="1.1" ch_offset="0" color_bar_width="66" width="226.159822" height="222.100394" origin_x="107.789472" origin_y="101.77653" ch_offset_x="107.1191152" ch_offset_y="40" color_offset_x="107.789472" color_offset_y="-4">
  <g>
    <title>Layer 1</title>
    <g>
      <g>
        <polyline style="fill: gray;stroke: black;stroke-width: 1;" points="209.065368 84.016596, 201.411586 84.016596 201.411586 84.016596, 201.411586 95.043752 201.411586 95.043752, 196.307964 95.043752 196.307964 95.043752, 196.307964 86.021164 196.307964 86.021164, 190.496698 86.021164 190.496698 86.021164, 190.496698 91.319858 190.496698 91.319858, 187.945014 91.319858 187.945014 91.319858, 187.945014 112.37214 187.945014 112.37214, 190.496698 112.37214 190.496698 112.37214, 190.496698 117.671088 190.496698 117.671088, 196.307964 117.671088 196.307964 117.671088, 196.307964 108.648246 196.307964 108.648246, 201.411586 108.648246 201.411586 108.648246, 201.411586 119.676418 201.411586 119.676418, 209.065368 119.676418 209.065368 119.676418, 213.459822 112.51565 213.459822 112.51565, 213.459822 91.176602 213.459822 91.176602, 209.065368 84.016596"/>
      </g>
      <g>
        <polyline style="fill: gray;stroke: black;stroke-width: 1;" points="6.9342 84.016596, 14.588998 84.016596 14.588998 84.016596, 14.588998 95.043752 14.588998 95.043752, 19.691604 95.043752 19.691604 95.043752, 19.691604 86.021164 19.691604 86.021164, 25.50287 86.021164 25.50287 86.021164, 25.50287 91.319858 25.50287 91.319858, 28.054808 91.319858 28.054808 91.319858, 28.054808 112.37214 28.054808 112.37214, 25.50287 112.37214 25.50287 112.37214, 25.50287 117.671088 25.50287 117.671088, 19.691604 117.671088 19.691604 117.671088, 19.691604 108.648246 19.691604 108.648246, 14.588998 108.648246 14.588998 108.648246, 14.588998 119.676418 14.588998 119.676418, 6.9342 119.676418 6.9342 119.676418, 2.54 112.51565 2.54 112.51565, 2.54 91.176602 2.54 91.176602, 6.9342 84.016596"/>
      </g>
      <g>
        <polyline style="fill: gray;stroke: black;stroke-width: 1;" points="196.307964 117.671088, 19.691604 117.671088 19.691604 117.671088, 19.691604 86.021164 19.691604 86.021164, 196.307964 86.021164 196.307964 86.021164, 196.307964 117.671088"/>
      </g>
      <g>
        <polyline style="fill: gray;stroke: black;stroke-width: 1;" points="156.953966 209.400394, 156.953966 201.022458 156.953966 201.022458, 170.34764 201.022458 170.34764 201.022458, 179.915312 117.247162 179.915312 117.247162, 187.888372 117.247162 187.888372 117.247162, 187.888372 87.282274 187.888372 87.282274, 184.699402 87.282274 184.699402 87.282274, 184.699402 9.95045 184.699402 9.95045, 178.001422 3.184144 178.001422 3.184144, 169.710354 3.184144 169.710354 3.184144, 169.710354 7.69493 169.710354 7.69493, 175.451262 7.69493 175.451262 7.69493, 175.451262 11.56208 175.451262 11.56208, 125.381258 11.56208 125.381258 11.56208, 125.381258 2.54 125.381258 2.54, 90.619072 2.54 90.619072 2.54, 90.619072 11.56208 90.619072 11.56208, 40.549322 11.56208 40.549322 11.56208, 40.549322 7.69493 40.549322 7.69493, 46.289976 7.69493 46.289976 7.69493, 46.289976 3.184144 46.289976 3.184144, 37.9984 3.184144 37.9984 3.184144, 31.300928 9.95045 31.300928 9.95045, 31.300928 87.282274 31.300928 87.282274, 28.112212 87.282274 28.112212 87.282274, 28.112212 117.247162 28.112212 117.247162, 36.08451 117.247162 36.08451 117.247162, 45.652182 201.022458 45.652182 201.022458, 59.046618 201.022458 59.046618 201.022458, 59.046618 209.400394 59.046618 209.400394, 156.953966 209.400394"/>
      </g>
      <g>
        <polyline style="fill: gray;stroke: black;stroke-width: 1;" points="59.525662 60.538106, 54.95925 192.000632 54.95925 192.000632, 51.016154 192.000632 51.016154 192.000632, 46.449742 60.538106 46.449742 60.538106, 59.525662 60.538106"/>
      </g>
      <g>
        <polyline style="fill: gray;stroke: black;stroke-width: 1;" points="81.530444 60.538106, 76.964032 192.000632 76.964032 192.000632, 73.020936 192.000632 73.020936 192.000632, 68.454524 60.538106 68.454524 60.538106, 81.530444 60.538106"/>
      </g>
      <g>
        <polyline style="fill: gray;stroke: black;stroke-width: 1;" points="103.53548 60.538106, 98.969068 192.000632 98.969068 192.000632, 95.025972 192.000632 95.025972 192.000632, 90.45956 60.538106 90.45956 60.538106, 103.53548 60.538106"/>
      </g>
      <g>
        <polyline style="fill: gray;stroke: black;stroke-width: 1;" points="125.540262 60.538106, 120.97385 192.000632 120.97385 192.000632, 117.030754 192.000632 117.030754 192.000632, 112.464342 60.538106 112.464342 60.538106, 125.540262 60.538106"/>
      </g>
      <g>
        <polyline style="fill: gray;stroke: black;stroke-width: 1;" points="147.545806 60.538106, 142.979648 192.000632 142.979648 192.000632, 139.035536 192.000632 139.035536 192.000632, 134.469124 60.538106 134.469124 60.538106, 147.545806 60.538106"/>
      </g>
      <g>
        <polyline style="fill: gray;stroke: black;stroke-width: 1;" points="169.550842 60.538106, 164.98443 192.000632 164.98443 192.000632, 161.041334 192.000632 161.041334 192.000632, 156.47416 60.538106 156.47416 60.538106, 169.550842 60.538106"/>
      </g>
      <g>
        <polyline style="fill: gray;stroke: black;stroke-width: 1;" points="171.321222 192.033906, 170.301158 201.022458 170.301158 201.022458, 45.662088 201.022458 45.662088 201.022458, 44.642024 192.033906 44.642024 192.033906, 171.321222 192.033906"/>
      </g>
      <g>
        <polyline style="fill: gray;stroke: black;stroke-width: 1;" points="184.47385 57.128156, 31.525718 57.128156 31.525718 57.128156, 31.525718 17.458436 31.525718 17.458436, 184.47385 17.458436 184.47385 17.458436, 184.47385 57.128156"/>
      </g>
    </g>
  </g>
</svg>
