<?xml version="1.0" encoding="utf-8"?>
<!-- Generator: www.crescit.com, SVG Export - SVG Version: 6.00 Build 1  -->
<!-- FXGUID: [584C499B-F4A1-11E9-9781-525400685065] SYMID: [12366]  -->
<svg xmlns="http://www.w3.org/2000/svg" version="1.1" ch_offset="0" color_bar_width="66" width="410.472382" height="311.8739" origin_x="204.105002" origin_y="152.680416" ch_offset_x="205.5814786" ch_offset_y="40" color_offset_x="204.105002" color_offset_y="-4">
  <g>
    <title>Layer 1</title>
    <g>
      <g>
        <polyline style="fill: gray;stroke: black;stroke-width: 1;" points="393.78509 91.816174, 369.858798 91.816174 369.858798 91.816174, 354.478336 60.060586 354.478336 60.060586, 347.64218 2.54 347.64218 2.54, 52.670202 2.54 52.670202 2.54, 45.8343 60.060586 45.8343 60.060586, 30.453838 91.816174 30.453838 91.816174, 6.527292 91.816174 6.527292 91.816174, 5.00888 113.036604 5.00888 113.036604, 2.54 147.538948 2.54 147.538948, 2.54 154.174952 2.54 154.174952, 6.527292 209.89798 6.527292 209.89798, 30.453838 209.89798 30.453838 209.89798, 45.8343 241.653568 45.8343 241.653568, 52.670202 299.1739 52.670202 299.1739, 347.64218 299.1739 347.64218 299.1739, 354.478336 241.653568 354.478336 241.653568, 369.858798 209.89798 369.858798 209.89798, 393.78509 209.89798 393.78509 209.89798, 395.316964 188.490098 395.316964 188.490098, 397.772636 154.174952 397.772636 154.174952, 397.772636 147.538948 397.772636 147.538948, 395.302232 113.01476 395.302232 113.01476, 393.78509 91.816174 393.78509 91.816174, 393.78509 91.816174"/>
      </g>
      <g>
        <polyline style="fill: gray;stroke: black;stroke-width: 1;" points="384.69824 112.989106, 381.159512 96.042988 381.159512 96.042988, 380.818644 96.042988 380.818644 96.042988, 19.153632 96.042988 19.153632 96.042988, 18.812764 96.042988 18.812764 96.042988, 18.812764 97.642172 18.812764 97.642172, 15.67561 112.348264 15.67561 112.348264, 14.433804 145.332958 14.433804 145.332958, 14.433804 156.381196 14.433804 156.381196, 15.561056 188.14288 15.561056 188.14288, 18.812764 204.006958 18.812764 204.006958, 18.812764 205.671166 18.812764 205.671166, 19.153632 205.671166 19.153632 205.671166, 380.818644 205.671166 380.818644 205.671166, 381.159512 205.671166 381.159512 205.671166, 384.75158 188.137292 384.75158 188.137292, 385.87934 156.381196 385.87934 156.381196, 385.87934 145.332958 385.87934 145.332958, 384.69824 112.989106"/>
      </g>
      <g>
        <polyline style="fill: gray;stroke: black;stroke-width: 1;" points="346.902786 178.518566, 341.396066 178.518566 341.396066 178.518566, 341.396066 123.195588 341.396066 123.195588, 346.902786 123.195588 346.902786 123.195588, 346.902786 178.518566"/>
      </g>
      <g>
        <polyline style="fill: gray;stroke: black;stroke-width: 1;" points="58.176922 178.518566, 52.670202 178.518566 52.670202 178.518566, 52.670202 123.195588 52.670202 123.195588, 58.176922 123.195588 58.176922 123.195588, 58.176922 178.518566"/>
      </g>
      <g>
        <polyline style="fill: gray;stroke: black;stroke-width: 1;" points="19.153632 96.042988, 53.040788 96.042988 53.040788 96.042988, 53.040788 205.671166 53.040788 205.671166, 19.153632 205.671166 19.153632 205.671166, 15.561056 188.14288 15.561056 188.14288, 14.433804 156.381196 14.433804 156.381196, 14.433804 145.332958 14.433804 145.332958, 15.67561 112.348264 15.67561 112.348264, 19.153632 96.042988 19.153632 96.042988, 19.153632 96.042988"/>
      </g>
      <g>
        <polyline style="fill: gray;stroke: black;stroke-width: 1;" points="381.159512 96.042988, 347.27261 96.042988 347.27261 96.042988, 347.27261 205.671166 347.27261 205.671166, 381.159512 205.671166 381.159512 205.671166, 384.752342 188.137292 384.752342 188.137292, 385.87934 156.381196 385.87934 156.381196, 385.87934 145.332958 385.87934 145.332958, 384.69824 112.989106 384.69824 112.989106, 381.159512 96.042988 381.159512 96.042988, 381.159512 96.042988"/>
      </g>
      <g>
        <polyline style="fill: gray;stroke: black;stroke-width: 1;" points="339.431884 125.682248, 337.104228 102.206044 337.104228 102.206044, 328.52487 55.149242 328.52487 55.149242, 71.106284 55.149242 71.106284 55.149242, 62.592966 101.757988 62.592966 101.757988, 60.198508 125.682248 60.198508 125.682248, 58.179208 125.682248 58.179208 125.682248, 58.179208 177.518568 58.179208 177.518568, 63.02629 177.518568 63.02629 177.518568, 63.02629 194.089782 63.02629 194.089782, 67.874134 199.61352 67.874134 199.61352, 74.741786 225.531934 74.741786 225.531934, 84.841334 239.978438 84.841334 239.978438, 99.788472 239.978438 99.788472 239.978438, 106.05008 246.564912 106.05008 246.564912, 293.580312 246.564912 293.580312 246.564912, 299.842174 239.978438 299.842174 239.978438, 314.789312 239.978438 314.789312 239.978438, 324.888606 225.531934 324.888606 225.531934, 331.756512 199.61352 331.756512 199.61352, 336.60334 194.089782 336.60334 194.089782, 336.60334 177.518568 336.60334 177.518568, 341.451946 177.518568 341.451946 177.518568, 341.451946 125.682248 341.451946 125.682248, 339.431884 125.682248 339.431884 125.682248, 339.431884 125.682248"/>
      </g>
      <g>
        <polyline style="fill: gray;stroke: black;stroke-width: 1;" points="108.244386 147.351496, 108.858304 120.432068 108.858304 120.432068, 111.500158 89.206832 111.500158 89.206832, 118.748556 55.149242 118.748556 55.149242, 104.644698 55.149242 104.644698 55.149242, 97.393252 89.229438 97.393252 89.229438, 94.75216 120.490234 94.75216 120.490234, 94.141544 147.351496 94.141544 147.351496, 108.244386 147.351496 108.244386 147.351496, 108.244386 147.351496"/>
      </g>
      <g>
        <polyline style="fill: gray;stroke: black;stroke-width: 1;" points="291.800788 147.351496, 291.237162 121.508774 291.237162 121.508774, 288.748216 90.824558 288.748216 90.824558, 281.29738 55.149242 281.29738 55.149242, 295.401238 55.149242 295.401238 55.149242, 302.789844 90.325448 302.789844 90.325448, 305.340258 121.492518 305.340258 121.492518, 305.904392 147.351496 305.904392 147.351496, 291.800788 147.351496 291.800788 147.351496, 291.800788 147.351496"/>
      </g>
      <g>
        <polyline style="fill: gray;stroke: black;stroke-width: 1;" points="341.451946 140.389102, 341.451946 177.518568 341.451946 177.518568, 336.60334 177.518568 336.60334 177.518568, 336.60334 194.089782 336.60334 194.089782, 331.756512 199.61352 331.756512 199.61352, 324.888606 225.531934 324.888606 225.531934, 74.741786 225.531934 74.741786 225.531934, 67.874134 199.61352 67.874134 199.61352, 63.02629 194.089782 63.02629 194.089782, 63.02629 177.518568 63.02629 177.518568, 58.179208 177.518568 58.179208 177.518568, 58.179208 140.389102 58.179208 140.389102, 337.703414 140.389102 337.703414 140.389102, 341.451946 140.389102"/>
      </g>
      <g>
        <polyline style="fill: gray;stroke: black;stroke-width: 1;" points="252.468888 246.564912, 147.161504 246.564912 147.161504 246.564912, 147.161504 236.845348 147.161504 236.845348, 252.468888 236.845348 252.468888 236.845348, 252.468888 246.564912"/>
      </g>
      <g>
        <polyline style="fill: gray;stroke: black;stroke-width: 1;" points="313.186318 186.35218, 86.444328 186.35218 86.444328 186.35218, 86.444328 147.351496 86.444328 147.351496, 313.186318 147.351496 313.186318 147.351496, 313.186318 186.35218 313.186318 186.35218, 313.186318 186.35218"/>
      </g>
      <g>
        <polyline style="fill: gray;stroke: black;stroke-width: 1;" points="202.292966 219.990416, 195.686426 219.990416 195.686426 219.990416, 195.686426 147.351496 195.686426 147.351496, 202.292966 147.351496 202.292966 147.351496, 202.292966 219.990416 202.292966 219.990416, 202.292966 219.990416"/>
      </g>
      <g>
        <polyline style="fill: gray;stroke: black;stroke-width: 1;" points="225.33737 219.990416, 218.73083 219.990416 218.73083 219.990416, 218.73083 147.351496 218.73083 147.351496, 225.33737 147.351496 225.33737 147.351496, 225.33737 219.990416 225.33737 219.990416, 225.33737 219.990416"/>
      </g>
      <g>
        <polyline style="fill: gray;stroke: black;stroke-width: 1;" points="179.406042 219.990416, 172.799502 219.990416 172.799502 219.990416, 172.799502 147.351496 172.799502 147.351496, 179.406042 147.351496 179.406042 147.351496, 179.406042 219.990416 179.406042 219.990416, 179.406042 219.990416"/>
      </g>
      <g>
        <polyline style="fill: gray;stroke: black;stroke-width: 1;" points="236.976158 219.990416, 243.346986 219.990416 243.346986 219.990416, 247.358408 183.587136 247.358408 183.587136, 247.358408 147.351496 247.358408 147.351496, 240.751868 147.351496 240.751868 147.351496, 240.751868 183.587136 240.751868 183.587136, 236.976158 219.990416 236.976158 219.990416, 236.976158 219.990416"/>
      </g>
      <g>
        <polyline style="fill: gray;stroke: black;stroke-width: 1;" points="257.739134 219.990416, 264.110216 219.990416 264.110216 219.990416, 268.120622 183.587136 268.120622 183.587136, 268.120622 147.351496 268.120622 147.351496, 261.514844 147.351496 261.514844 147.351496, 261.514844 183.587136 261.514844 183.587136, 257.739134 219.990416 257.739134 219.990416, 257.739134 219.990416"/>
      </g>
      <g>
        <polyline style="fill: gray;stroke: black;stroke-width: 1;" points="277.779734 219.990416, 284.150054 219.990416 284.150054 219.990416, 288.161476 183.587136 288.161476 183.587136, 288.161476 147.351496 288.161476 147.351496, 281.554936 147.351496 281.554936 147.351496, 281.554936 183.587136 281.554936 183.587136, 277.779734 219.990416 277.779734 219.990416, 277.779734 219.990416"/>
      </g>
      <g>
        <polyline style="fill: gray;stroke: black;stroke-width: 1;" points="292.895274 219.990416, 299.266102 219.990416 299.266102 219.990416, 303.276762 183.587136 303.276762 183.587136, 303.276762 147.351496 303.276762 147.351496, 296.670222 147.351496 296.670222 147.351496, 296.670222 183.587136 296.670222 183.587136, 292.895274 219.990416 292.895274 219.990416, 292.895274 219.990416"/>
      </g>
      <g>
        <polyline style="fill: gray;stroke: black;stroke-width: 1;" points="309.41137 219.990416, 315.782198 219.990416 315.782198 219.990416, 319.792858 183.587136 319.792858 183.587136, 319.792858 147.351496 319.792858 147.351496, 313.186318 147.351496 313.186318 147.351496, 313.186318 183.587136 313.186318 183.587136, 309.41137 219.990416 309.41137 219.990416, 309.41137 219.990416"/>
      </g>
      <g>
        <polyline style="fill: gray;stroke: black;stroke-width: 1;" points="162.653472 219.990416, 156.283406 219.990416 156.283406 219.990416, 152.271984 183.587136 152.271984 183.587136, 152.271984 147.351496 152.271984 147.351496, 158.879286 147.351496 158.879286 147.351496, 158.879286 183.587136 158.879286 183.587136, 162.653472 219.990416 162.653472 219.990416, 162.653472 219.990416"/>
      </g>
      <g>
        <polyline style="fill: gray;stroke: black;stroke-width: 1;" points="141.891258 219.990416, 135.520176 219.990416 135.520176 219.990416, 131.509008 183.587136 131.509008 183.587136, 131.509008 147.351496 131.509008 147.351496, 138.115548 147.351496 138.115548 147.351496, 138.115548 183.587136 138.115548 183.587136, 141.891258 219.990416 141.891258 219.990416, 141.891258 219.990416"/>
      </g>
      <g>
        <polyline style="fill: gray;stroke: black;stroke-width: 1;" points="121.850658 219.990416, 115.480338 219.990416 115.480338 219.990416, 111.46917 183.587136 111.46917 183.587136, 111.46917 147.351496 111.46917 147.351496, 118.07571 147.351496 118.07571 147.351496, 118.07571 183.587136 118.07571 183.587136, 121.850658 219.990416 121.850658 219.990416, 121.850658 219.990416"/>
      </g>
      <g>
        <polyline style="fill: gray;stroke: black;stroke-width: 1;" points="106.735118 219.990416, 100.36429 219.990416 100.36429 219.990416, 96.35363 183.587136 96.35363 183.587136, 96.35363 147.351496 96.35363 147.351496, 102.96017 147.351496 102.96017 147.351496, 102.96017 183.587136 102.96017 183.587136, 106.735118 219.990416 106.735118 219.990416, 106.735118 219.990416"/>
      </g>
      <g>
        <polyline style="fill: gray;stroke: black;stroke-width: 1;" points="90.219276 219.990416, 83.848194 219.990416 83.848194 219.990416, 79.837534 183.587136 79.837534 183.587136, 79.837534 147.351496 79.837534 147.351496, 86.444328 147.351496 86.444328 147.351496, 86.444328 183.587136 86.444328 183.587136, 90.219276 219.990416 90.219276 219.990416, 90.219276 219.990416"/>
      </g>
      <g>
        <polyline style="fill: gray;stroke: black;stroke-width: 1;" points="62.206124 104.416098, 60.198508 125.682248 60.198508 125.682248, 58.179208 125.682248 58.179208 125.682248, 58.179208 177.518568 58.179208 177.518568, 63.02629 177.518568 63.02629 177.518568, 63.02629 194.089782 63.02629 194.089782, 67.874134 199.61352 67.874134 199.61352, 68.90893 203.515468 68.90893 203.515468, 69.928232 171.798742 69.928232 171.798742, 67.766946 134.78256 67.766946 134.78256, 62.206124 104.41686 62.206124 104.41686, 62.206124 104.416098 62.206124 104.416098, 62.206124 104.416098"/>
      </g>
      <g>
        <polyline style="fill: gray;stroke: black;stroke-width: 1;" points="337.423506 104.416098, 339.431884 125.682248 339.431884 125.682248, 341.451946 125.682248 341.451946 125.682248, 341.451946 177.518568 341.451946 177.518568, 336.60334 177.518568 336.60334 177.518568, 336.60334 194.089782 336.60334 194.089782, 331.756512 199.61352 331.756512 199.61352, 330.722478 203.515468 330.722478 203.515468, 329.699112 172.328332 329.699112 172.328332, 331.621638 136.949688 331.621638 136.949688, 337.423506 104.41686 337.423506 104.41686, 337.423506 104.416098 337.423506 104.416098, 337.423506 104.416098"/>
      </g>
    </g>
  </g>
</svg>
