<?xml version="1.0" encoding="utf-8"?>
<!-- Generator: www.crescit.com, SVG Export - SVG Version: 6.00 Build 1  -->
<!-- FXGUID: [2CF4892D-C708-11ED-A50B-525400685065] SYMID: [18767]  -->
<svg xmlns="http://www.w3.org/2000/svg" version="1.1" ch_offset="0" color_bar_width="66" width="403.24024" height="442.5188" origin_x="196.568822" origin_y="220.6879" ch_offset_x="199.8307154" ch_offset_y="40" color_offset_x="196.568822" color_offset_y="-4">
  <g>
    <title>Layer 1</title>
    <g>
      <g>
        <polyline style="fill: gray;stroke: black;stroke-width: 1;" points="204.13091 90.468196, 230.247952 91.794584 230.247952 91.794584, 252.275848 94.712282 252.275848 94.712282, 267.49121 97.630742 267.49121 97.630742, 273.167602 98.956876 273.167602 98.956876, 293.692834 99.594162 293.692834 99.594162, 314.218574 100.231194 314.218574 100.231194, 334.743806 100.86848 334.743806 100.86848, 355.268784 101.505512 355.268784 101.505512, 357.126794 101.073712 357.126794 101.073712, 361.723432 100.96754 361.723432 100.96754, 367.59134 102.97287 367.59134 102.97287, 373.26316 108.875576 373.26316 108.875576, 378.82322 125.586236 378.82322 125.586236, 384.443732 154.396186 384.443732 154.396186, 388.79399 188.6585 388.79399 188.6585, 390.540494 221.727014 390.540494 221.727014, 390.540494 223.01835 390.540494 223.01835, 390.540494 224.310448 390.540494 224.310448, 390.540494 225.6028 390.540494 225.6028, 390.540494 226.894136 390.540494 226.894136, 388.79399 259.96265 388.79399 259.96265, 384.443732 294.224202 384.443732 294.224202, 378.82322 323.033898 378.82322 323.033898, 373.26316 339.746082 373.26316 339.746082, 367.59134 345.648788 367.59134 345.648788, 361.723432 347.654118 361.723432 347.654118, 357.126794 347.547946 357.126794 347.547946, 355.268784 347.115384 355.268784 347.115384, 334.743806 347.75267 334.743806 347.75267, 314.218574 348.389702 314.218574 348.389702, 293.692834 349.026988 293.692834 349.026988, 273.167602 349.66402 273.167602 349.66402, 267.49121 350.990408 267.49121 350.990408, 252.275848 353.908868 252.275848 353.908868, 230.247952 356.826566 230.247952 356.826566, 204.13091 358.153462 204.13091 358.153462, 200.335642 358.153462 200.335642 358.153462, 196.540628 358.153462 196.540628 358.153462, 192.744598 358.153462 192.744598 358.153462, 188.949584 358.153462 188.949584 358.153462, 162.832542 356.826566 162.832542 356.826566, 140.804392 353.908868 140.804392 353.908868, 125.589792 350.990408 125.589792 350.990408, 119.9134 349.66402 119.9134 349.66402, 99.38766 349.026988 99.38766 349.026988, 78.862428 348.389702 78.862428 348.389702, 58.33745 347.75267 58.33745 347.75267, 37.812218 347.115384 37.812218 347.115384, 35.954208 347.547946 35.954208 347.547946, 31.358332 347.654118 31.358332 347.654118, 25.490424 345.648788 25.490424 345.648788, 19.817334 339.746082 19.817334 339.746082, 14.25702 323.033898 14.25702 323.033898, 8.635746 294.224202 8.635746 294.224202, 4.285742 259.96265 4.285742 259.96265, 2.54 226.894136 2.54 226.894136, 2.54 225.6028 2.54 225.6028, 2.54 224.310448 2.54 224.310448, 2.54 223.01835 2.54 223.01835, 2.54 221.727014 2.54 221.727014, 4.285742 188.6585 4.285742 188.6585, 8.635746 154.396186 8.635746 154.396186, 14.25702 125.586236 14.25702 125.586236, 19.817334 108.875576 19.817334 108.875576, 25.490424 102.97287 25.490424 102.97287, 31.358332 100.96754 31.358332 100.96754, 35.954208 101.073712 35.954208 101.073712, 37.812218 101.505512 37.812218 101.505512, 58.33745 100.86848 58.33745 100.86848, 78.862428 100.231194 78.862428 100.231194, 99.38766 99.594162 99.38766 99.594162, 119.9134 98.956876 119.9134 98.956876, 125.589792 97.630742 125.589792 97.630742, 140.804392 94.712282 140.804392 94.712282, 162.832542 91.794584 162.832542 91.794584, 188.949584 90.468196 188.949584 90.468196, 192.744598 90.468196 192.744598 90.468196, 196.540628 90.468196 196.540628 90.468196, 200.335642 90.468196 200.335642 90.468196, 204.13091 90.468196 204.13091 90.468196, 204.13091 90.468196"/>
      </g>
      <g>
        <polyline style="fill: gray;stroke: black;stroke-width: 1;" points="323.39026 261.119874, 323.39026 267.507212 323.39026 267.507212, 323.39026 273.893534 323.39026 273.893534, 323.39026 280.280872 323.39026 280.280872, 323.39026 286.667956 323.39026 286.667956, 327.936352 286.667956 327.936352 286.667956, 338.52485 286.667956 338.52485 286.667956, 350.579944 286.667956 350.579944 286.667956, 359.523792 286.667956 359.523792 286.667956, 365.04118 286.092138 365.04118 286.092138, 369.558824 282.639516 369.558824 282.639516, 372.61038 273.726148 372.61038 273.726148, 373.731282 256.765806 373.731282 256.765806, 373.731282 240.873026 373.731282 240.873026, 373.731282 224.979484 373.731282 224.979484, 373.731282 209.085942 373.731282 209.085942, 373.731282 193.192146 373.731282 193.192146, 372.61038 176.23282 372.61038 176.23282, 369.558824 167.320214 369.558824 167.320214, 365.04118 163.868354 365.04118 163.868354, 359.523792 163.292536 359.523792 163.292536, 350.579944 163.292536 350.579944 163.292536, 338.52485 163.292536 338.52485 163.292536, 327.936352 163.292536 327.936352 163.292536, 323.39026 163.292536 323.39026 163.292536, 323.39026 169.67962 323.39026 169.67962, 323.39026 176.066196 323.39026 176.066196, 323.39026 182.452518 323.39026 182.452518, 323.39026 188.839856 323.39026 188.839856, 323.39026 206.909924 323.39026 206.909924, 323.39026 224.979484 323.39026 224.979484, 323.39026 243.049806 323.39026 243.049806, 323.39026 261.119874 323.39026 261.119874, 323.39026 261.119874"/>
      </g>
      <g>
        <polyline style="fill: gray;stroke: black;stroke-width: 1;" points="68.828158 261.119874, 68.828158 267.507212 68.828158 267.507212, 68.828158 273.893534 68.828158 273.893534, 68.828158 280.280872 68.828158 280.280872, 68.828158 286.667956 68.828158 286.667956, 64.282066 286.667956 64.282066 286.667956, 53.693568 286.667956 53.693568 286.667956, 41.639236 286.667956 41.639236 286.667956, 32.694626 286.667956 32.694626 286.667956, 27.176476 286.092138 27.176476 286.092138, 22.65807 282.639516 22.65807 282.639516, 19.606514 273.726148 19.606514 273.726148, 18.486374 256.765806 18.486374 256.765806, 18.486374 240.873026 18.486374 240.873026, 18.486374 224.979484 18.486374 224.979484, 18.486374 209.085942 18.486374 209.085942, 18.486374 193.192146 18.486374 193.192146, 19.606514 176.23282 19.606514 176.23282, 22.65807 167.320214 22.65807 167.320214, 27.176476 163.868354 27.176476 163.868354, 32.694626 163.292536 32.694626 163.292536, 41.639236 163.292536 41.639236 163.292536, 53.693568 163.292536 53.693568 163.292536, 64.282066 163.292536 64.282066 163.292536, 68.828158 163.292536 68.828158 163.292536, 68.828158 169.67962 68.828158 169.67962, 68.828158 176.066196 68.828158 176.066196, 68.828158 182.452518 68.828158 182.452518, 68.828158 188.839856 68.828158 188.839856, 68.828158 206.909924 68.828158 206.909924, 68.828158 224.979484 68.828158 224.979484, 68.828158 243.049806 68.828158 243.049806, 68.828158 261.119874 68.828158 261.119874, 68.828158 261.119874"/>
      </g>
      <g>
        <polyline style="fill: gray;stroke: black;stroke-width: 1;" points="330.133198 291.635942, 334.687164 291.635942 334.687164 291.635942, 344.838528 291.635942 344.838528 291.635942, 355.319838 291.635942 355.319838 291.635942, 360.86542 291.635942 360.86542 291.635942, 363.173772 290.48964 363.173772 290.48964, 366.5347 287.174178 366.5347 287.174178, 369.566444 281.876246 369.566444 281.876246, 370.884196 274.784312 370.884196 274.784312, 370.884196 250.223782 370.884196 250.223782, 370.884196 225.664014 370.884196 225.664014, 370.884196 201.104246 370.884196 201.104246, 370.884196 176.544478 370.884196 176.544478, 369.566444 169.452036 369.566444 169.452036, 366.5347 164.154612 366.5347 164.154612, 363.173772 160.838642 363.173772 160.838642, 360.86542 159.692086 360.86542 159.692086, 355.319838 159.692086 355.319838 159.692086, 344.838528 159.692086 344.838528 159.692086, 334.687164 159.692086 334.687164 159.692086, 330.133198 159.692086 330.133198 159.692086, 330.133198 192.677542 330.133198 192.677542, 330.133198 225.664014 330.133198 225.664014, 330.133198 258.650486 330.133198 258.650486, 330.133198 291.635942 330.133198 291.635942, 330.133198 291.635942"/>
      </g>
      <g>
        <polyline style="fill: gray;stroke: black;stroke-width: 1;" points="61.682122 291.635942, 71.346568 293.490904 71.346568 293.490904, 81.011776 295.345866 81.011776 295.345866, 90.677238 297.200066 90.677238 297.200066, 100.342446 299.055028 100.342446 299.055028, 148.101558 299.055028 148.101558 299.055028, 195.86067 299.055028 195.86067 299.055028, 243.61902 299.055028 243.61902 299.055028, 291.378894 299.055028 291.378894 299.055028, 301.04334 297.200066 301.04334 297.200066, 310.709564 295.345866 310.709564 295.345866, 320.37401 293.490904 320.37401 293.490904, 330.039218 291.635942 330.039218 291.635942, 330.039218 258.650486 330.039218 258.650486, 330.039218 225.664014 330.039218 225.664014, 330.039218 192.677542 330.039218 192.677542, 330.039218 159.692086 330.039218 159.692086, 320.37401 157.837124 320.37401 157.837124, 310.709564 155.982924 310.709564 155.982924, 301.04334 154.127962 301.04334 154.127962, 291.378894 152.274016 291.378894 152.274016, 243.61902 152.274016 243.61902 152.274016, 195.86067 152.274016 195.86067 152.274016, 148.101558 152.274016 148.101558 152.274016, 100.342446 152.274016 100.342446 152.274016, 90.677238 154.127962 90.677238 154.127962, 81.011776 155.982924 81.011776 155.982924, 71.346568 157.837124 71.346568 157.837124, 61.682122 159.692086 61.682122 159.692086, 61.682122 192.677542 61.682122 192.677542, 61.682122 225.664014 61.682122 225.664014, 61.682122 258.650486 61.682122 258.650486, 61.682122 291.635942 61.682122 291.635942, 61.682122 291.635942"/>
      </g>
      <g>
        <polyline style="fill: gray;stroke: black;stroke-width: 1;" points="61.682122 291.635942, 57.128156 291.635942 57.128156 291.635942, 46.976792 291.635942 46.976792 291.635942, 36.495228 291.635942 36.495228 291.635942, 30.9499 291.635942 30.9499 291.635942, 28.641294 290.48964 28.641294 290.48964, 25.279604 287.174178 25.279604 287.174178, 22.248876 281.876246 22.248876 281.876246, 20.931124 274.784312 20.931124 274.784312, 20.931124 250.223782 20.931124 250.223782, 20.931124 225.664014 20.931124 225.664014, 20.931124 201.104246 20.931124 201.104246, 20.931124 176.544478 20.931124 176.544478, 22.248876 169.452036 22.248876 169.452036, 25.279604 164.154612 25.279604 164.154612, 28.641294 160.838642 28.641294 160.838642, 30.9499 159.692086 30.9499 159.692086, 36.495228 159.692086 36.495228 159.692086, 46.976792 159.692086 46.976792 159.692086, 57.128156 159.692086 57.128156 159.692086, 61.682122 159.692086 61.682122 159.692086, 61.682122 192.677542 61.682122 192.677542, 61.682122 225.664014 61.682122 225.664014, 61.682122 258.650486 61.682122 258.650486, 61.682122 291.635942 61.682122 291.635942, 61.682122 291.635942"/>
      </g>
      <g>
        <polyline style="fill: gray;stroke: black;stroke-width: 1;" points="268.69898 429.8188, 276.534118 429.176942 276.534118 429.176942, 281.177238 427.763686 281.177238 427.763686, 283.397452 426.350684 283.397452 426.350684, 283.966412 425.708064 283.966412 425.708064, 292.747192 411.84449 292.747192 411.84449, 305.76647 388.787894 305.76647 388.787894, 317.575184 367.16208 317.575184 367.16208, 322.721986 357.592884 322.721986 357.592884, 323.456808 339.68309 323.456808 339.68309, 324.190106 321.773296 324.190106 321.773296, 324.923404 303.863502 324.923404 303.863502, 325.658226 285.953708 325.658226 285.953708, 325.145146 254.832358 325.145146 254.832358, 324.63359 223.711008 324.63359 223.711008, 324.12051 192.59042 324.12051 192.59042, 323.607176 161.46907 323.607176 161.46907, 321.909694 160.690814 321.909694 160.690814, 320.212212 159.912558 320.212212 159.912558, 318.514476 159.134302 318.514476 159.134302, 316.816994 158.355284 316.816994 158.355284, 307.118512 95.875602 307.118512 95.875602, 298.918884 53.050948 298.918884 53.050948, 293.244778 28.424632 293.244778 28.424632, 291.124132 20.538948 291.124132 20.538948, 289.656012 19.284696 289.656012 19.284696, 288.187638 18.030698 288.187638 18.030698, 286.717994 16.776446 286.717994 16.776446, 285.249874 15.522956 285.249874 15.522956, 284.431486 12.277598 284.431486 12.277598, 283.612844 9.031224 283.612844 9.031224, 282.795726 5.785612 282.795726 5.785612, 281.977338 2.54 281.977338 2.54, 265.006328 2.54 265.006328 2.54, 248.035064 2.54 248.035064 2.54, 231.064054 2.54 231.064054 2.54, 214.093806 2.54 214.093806 2.54, 205.137766 2.54 205.137766 2.54, 196.181726 2.54 196.181726 2.54, 187.225686 2.54 187.225686 2.54, 178.269646 2.54 178.269646 2.54, 161.299398 2.54 161.299398 2.54, 144.327626 2.54 144.327626 2.54, 127.357124 2.54 127.357124 2.54, 110.386876 2.54 110.386876 2.54, 109.568488 5.785612 109.568488 5.785612, 108.750608 9.031224 108.750608 9.031224, 107.931966 12.277598 107.931966 12.277598, 107.113578 15.522956 107.113578 15.522956, 105.644696 16.776446 105.644696 16.776446, 104.176576 18.030698 104.176576 18.030698, 102.707694 19.284696 102.707694 19.284696, 101.239574 20.538948 101.239574 20.538948, 99.119436 28.424632 99.119436 28.424632, 93.444568 53.050948 93.444568 53.050948, 85.244432 95.875602 85.244432 95.875602, 75.546458 158.355284 75.546458 158.355284, 73.848976 159.134302 73.848976 159.134302, 72.15124 159.912558 72.15124 159.912558, 70.453758 160.690814 70.453758 160.690814, 68.756276 161.46907 68.756276 161.46907, 68.243704 192.59042 68.243704 192.59042, 67.730624 223.711008 67.730624 223.711008, 67.218306 254.832358 67.218306 254.832358, 66.705226 285.953708 66.705226 285.953708, 67.439286 303.863502 67.439286 303.863502, 68.173346 321.773296 68.173346 321.773296, 68.907406 339.68309 68.907406 339.68309, 69.641466 357.592884 69.641466 357.592884, 74.788268 367.16208 74.788268 367.16208, 86.596982 388.787894 86.596982 388.787894, 99.61626 411.84449 99.61626 411.84449, 108.39704 425.708064 108.39704 425.708064, 108.966 426.350684 108.966 426.350684, 111.186214 427.763686 111.186214 427.763686, 115.828572 429.176942 115.828572 429.176942, 123.664472 429.8188 123.664472 429.8188, 159.92348 429.8188 159.92348 429.8188, 196.181726 429.8188 196.181726 429.8188, 232.440734 429.8188 232.440734 429.8188, 268.69898 429.8188 268.69898 429.8188, 268.69898 429.8188"/>
      </g>
      <g>
        <polyline style="fill: gray;stroke: black;stroke-width: 1;" points="62.054994 250.583954, 63.58128 250.583954 63.58128 250.583954, 65.107566 250.583954 65.107566 250.583954, 66.633852 250.583954 66.633852 250.583954, 68.1609 250.583954 68.1609 250.583954, 68.1609 237.338108 68.1609 237.338108, 68.1609 224.093278 68.1609 224.093278, 68.1609 210.848448 68.1609 210.848448, 68.1609 197.603364 68.1609 197.603364, 66.633852 197.603364 66.633852 197.603364, 65.107566 197.603364 65.107566 197.603364, 63.58128 197.603364 63.58128 197.603364, 62.054994 197.603364 62.054994 197.603364, 62.054994 210.848448 62.054994 210.848448, 62.054994 224.093278 62.054994 224.093278, 62.054994 237.338108 62.054994 237.338108, 62.054994 250.583954 62.054994 250.583954, 62.054994 250.583954"/>
      </g>
      <g>
        <polyline style="fill: gray;stroke: black;stroke-width: 1;" points="324.157594 250.583954, 325.684642 250.583954 325.684642 250.583954, 327.210166 250.583954 327.210166 250.583954, 328.737214 250.583954 328.737214 250.583954, 330.264262 250.583954 330.264262 250.583954, 330.264262 237.338108 330.264262 237.338108, 330.264262 224.093278 330.264262 224.093278, 330.264262 210.848448 330.264262 210.848448, 330.264262 197.603364 330.264262 197.603364, 328.737214 197.603364 328.737214 197.603364, 327.210166 197.603364 327.210166 197.603364, 325.684642 197.603364 325.684642 197.603364, 324.157594 197.603364 324.157594 197.603364, 324.157594 210.848448 324.157594 210.848448, 324.157594 224.093278 324.157594 224.093278, 324.157594 237.338108 324.157594 237.338108, 324.157594 250.583954 324.157594 250.583954, 324.157594 250.583954"/>
      </g>
      <g>
        <polyline style="fill: transparent;stroke: black;stroke-width: 1;" points="237.369858 209.616548, 234.597194 166.75481 234.597194 166.75481, 231.82453 123.893072 231.82453 123.893072, 229.051866 81.030572 229.051866 81.030572, 226.279202 38.168834 226.279202 38.168834, 227.725478 38.168834 227.725478 38.168834, 229.171246 38.168834 229.171246 38.168834, 230.617522 38.168834 230.617522 38.168834, 232.062528 38.168834 232.062528 38.168834, 235.298742 81.177892 235.298742 81.177892, 238.533432 124.18695 238.533432 124.18695, 241.768122 167.195246 241.768122 167.195246, 245.003574 210.204304"/>
      </g>
      <g>
        <polyline style="fill: transparent;stroke: black;stroke-width: 1;" points="219.16644 210.053682, 217.73388 166.952422 217.73388 166.952422, 216.30132 123.851416 216.30132 123.851416, 214.869014 80.750156 214.869014 80.750156, 213.436454 37.648134 213.436454 37.648134, 214.913972 37.648134 214.913972 37.648134, 216.390474 37.648134 216.390474 37.648134, 217.867992 37.648134 217.867992 37.648134, 219.343986 37.648134 219.343986 37.648134, 221.35465 80.933798 221.35465 80.933798, 223.366076 124.219462 223.366076 124.219462, 225.37674 167.505126 225.37674 167.505126, 227.386896 210.791044"/>
      </g>
      <g>
        <polyline style="fill: transparent;stroke: black;stroke-width: 1;" points="191.779652 210.053682, 191.937132 166.901368 191.937132 166.901368, 192.09512 123.749816 192.09512 123.749816, 192.251838 80.597248 192.251838 80.597248, 192.409826 37.445696 192.409826 37.445696, 191.072008 37.445696 191.072008 37.445696, 189.733174 37.445696 189.733174 37.445696, 188.395356 37.445696 188.395356 37.445696, 187.056776 37.445696 187.056776 37.445696, 186.182254 80.488028 186.182254 80.488028, 185.307986 123.531122 185.307986 123.531122, 184.433718 166.574216 184.433718 166.574216, 183.559196 209.616548"/>
      </g>
      <g>
        <polyline style="fill: transparent;stroke: black;stroke-width: 1;" points="272.060162 204.988922, 267.351764 163.02863 267.351764 163.02863, 262.64362 121.068592 262.64362 121.068592, 257.935222 79.107538 257.935222 79.107538, 253.227078 37.147246 253.227078 37.147246, 254.653288 37.147246 254.653288 37.147246, 256.081276 37.147246 256.081276 37.147246, 257.50901 37.147246 257.50901 37.147246, 258.93522 37.147246 258.93522 37.147246, 264.102342 77.861922 264.102342 77.861922, 269.26794 118.575582 269.26794 118.575582, 274.435062 159.290258 274.435062 159.290258, 279.602184 200.00468"/>
      </g>
      <g>
        <polyline style="fill: transparent;stroke: black;stroke-width: 1;" points="253.811532 209.616548, 250.233434 166.695882 250.233434 166.695882, 246.656098 123.775216 246.656098 123.775216, 243.078 80.854804 243.078 80.854804, 239.500918 37.934138 239.500918 37.934138, 241.158014 37.934138 241.158014 37.934138, 242.815364 37.934138 242.815364 37.934138, 244.471698 37.934138 244.471698 37.934138, 246.12981 37.934138 246.12981 37.934138, 250.251976 81.001108 250.251976 81.001108, 254.374396 124.069094 254.374396 124.069094, 258.496562 167.136318 258.496562 167.136318, 262.618728 210.204304"/>
      </g>
      <g>
        <polyline style="fill: transparent;stroke: black;stroke-width: 1;" points="98.205544 32.091884, 147.336764 32.091884 147.336764 32.091884, 196.46773 32.091884 196.46773 32.091884, 245.598188 32.091884 245.598188 32.091884, 294.728392 32.091884"/>
      </g>
      <g>
        <polyline style="fill: transparent;stroke: black;stroke-width: 1;" points="323.827394 195.79336, 314.183014 195.79336 314.183014 195.79336, 304.538634 195.79336 304.538634 195.79336, 294.894254 195.79336 294.894254 195.79336, 285.249874 195.79336 285.249874 195.79336, 279.856438 199.35825 279.856438 199.35825, 274.461478 202.923902 274.461478 202.923902, 269.068042 206.488792 269.068042 206.488792, 263.673082 210.053682 263.673082 210.053682, 255.603756 210.053682 255.603756 210.053682, 247.532906 210.053682 247.532906 210.053682, 239.461294 210.053682 239.461294 210.053682, 231.391206 210.053682 231.391206 210.053682, 213.700868 210.053682 213.700868 210.053682, 196.009768 210.053682 196.009768 210.053682, 178.319176 210.053682 178.319176 210.053682, 160.628076 210.053682 160.628076 210.053682, 152.557226 210.053682 152.557226 210.053682, 144.487138 210.053682 144.487138 210.053682, 136.416288 210.053682 136.416288 210.053682, 128.3462 210.053682 128.3462 210.053682, 122.952002 206.488792 122.952002 206.488792, 117.557042 202.923902 117.557042 202.923902, 112.163606 199.35825 112.163606 199.35825, 106.769408 195.79336 106.769408 195.79336, 97.124266 195.79336 97.124266 195.79336, 87.479886 195.79336 87.479886 195.79336, 77.835506 195.79336 77.835506 195.79336, 68.190364 195.79336"/>
      </g>
      <g>
        <polyline style="fill: transparent;stroke: black;stroke-width: 1;" points="323.827394 214.1474, 314.183014 214.1474 314.183014 214.1474, 304.538634 214.1474 304.538634 214.1474, 294.894254 214.1474 294.894254 214.1474, 285.249874 214.1474 285.249874 214.1474, 279.856438 217.71229 279.856438 217.71229, 274.461478 221.27718 274.461478 221.27718, 269.068042 224.84207 269.068042 224.84207, 263.673082 228.407722 263.673082 228.407722, 255.603756 228.407722 255.603756 228.407722, 247.532906 228.407722 247.532906 228.407722, 239.461294 228.407722 239.461294 228.407722, 231.391206 228.407722 231.391206 228.407722, 213.700868 228.407722 213.700868 228.407722, 196.009768 228.407722 196.009768 228.407722, 178.319176 228.407722 178.319176 228.407722, 160.628076 228.407722 160.628076 228.407722, 152.557226 228.407722 152.557226 228.407722, 144.487138 228.407722 144.487138 228.407722, 136.416288 228.407722 136.416288 228.407722, 128.3462 228.407722 128.3462 228.407722, 122.952002 224.84207 122.952002 224.84207, 117.557042 221.27718 117.557042 221.27718, 112.163606 217.71229 112.163606 217.71229, 106.769408 214.1474 106.769408 214.1474, 97.124266 214.1474 97.124266 214.1474, 87.479886 214.1474 87.479886 214.1474, 77.835506 214.1474 77.835506 214.1474, 68.190364 214.1474"/>
      </g>
      <g>
        <polyline style="fill: transparent;stroke: black;stroke-width: 1;" points="323.827394 327.224898, 314.183014 327.224898 314.183014 327.224898, 304.538634 327.224898 304.538634 327.224898, 294.894254 327.224898 294.894254 327.224898, 285.249874 327.224898 285.249874 327.224898, 279.856438 323.660008 279.856438 323.660008, 274.461478 320.095118 274.461478 320.095118, 269.068042 316.530228 269.068042 316.530228, 263.673082 312.964576 263.673082 312.964576, 255.603756 312.964576 255.603756 312.964576, 247.532906 312.964576 247.532906 312.964576, 239.461294 312.964576 239.461294 312.964576, 231.391206 312.964576 231.391206 312.964576, 213.700868 312.964576 213.700868 312.964576, 196.009768 312.964576 196.009768 312.964576, 178.319176 312.964576 178.319176 312.964576, 160.628076 312.964576 160.628076 312.964576, 152.557226 312.964576 152.557226 312.964576, 144.487138 312.964576 144.487138 312.964576, 136.416288 312.964576 136.416288 312.964576, 128.3462 312.964576 128.3462 312.964576, 122.952002 316.530228 122.952002 316.530228, 117.557042 320.095118 117.557042 320.095118, 112.163606 323.660008 112.163606 323.660008, 106.769408 327.224898 106.769408 327.224898, 97.124266 327.224898 97.124266 327.224898, 87.479886 327.224898 87.479886 327.224898, 77.835506 327.224898 77.835506 327.224898, 68.190364 327.224898"/>
      </g>
      <g>
        <polyline style="fill: transparent;stroke: black;stroke-width: 1;" points="323.827394 308.872636, 314.183014 308.872636 314.183014 308.872636, 304.538634 308.872636 304.538634 308.872636, 294.894254 308.872636 294.894254 308.872636, 285.249874 308.872636 285.249874 308.872636, 279.856438 305.306984 279.856438 305.306984, 274.461478 301.741332 274.461478 301.741332, 269.068042 298.17568 269.068042 298.17568, 263.673082 294.609774 263.673082 294.609774, 255.603756 294.609774 255.603756 294.609774, 247.532906 294.609774 247.532906 294.609774, 239.461294 294.609774 239.461294 294.609774, 231.391206 294.609774 231.391206 294.609774, 213.700868 294.609774 213.700868 294.609774, 196.009768 294.609774 196.009768 294.609774, 178.319176 294.609774 178.319176 294.609774, 160.628076 294.609774 160.628076 294.609774, 152.557226 294.609774 152.557226 294.609774, 144.487138 294.609774 144.487138 294.609774, 136.416288 294.609774 136.416288 294.609774, 128.3462 294.609774 128.3462 294.609774, 122.952002 298.17568 122.952002 298.17568, 117.557042 301.741332 117.557042 301.741332, 112.163606 305.306984 112.163606 305.306984, 106.769408 308.872636 106.769408 308.872636, 97.124266 308.872636 97.124266 308.872636, 87.479886 308.872636 87.479886 308.872636, 77.835506 308.872636 77.835506 308.872636, 68.190364 308.872636"/>
      </g>
      <g>
        <polyline style="fill: transparent;stroke: black;stroke-width: 1;" points="138.93165 209.616548, 142.509748 166.695882 142.509748 166.695882, 146.087084 123.775216 146.087084 123.775216, 149.665182 80.854804 149.665182 80.854804, 153.242518 37.934138 153.242518 37.934138, 151.585168 37.934138 151.585168 37.934138, 149.927056 37.934138 149.927056 37.934138, 148.270722 37.934138 148.270722 37.934138, 146.613372 37.934138 146.613372 37.934138, 142.491206 81.001108 142.491206 81.001108, 138.368278 124.069094 138.368278 124.069094, 134.245858 167.136318 134.245858 167.136318, 130.123692 210.204304"/>
      </g>
      <g>
        <polyline style="fill: transparent;stroke: black;stroke-width: 1;" points="120.682512 204.988922, 125.390656 163.02863 125.390656 163.02863, 130.099816 121.068592 130.099816 121.068592, 134.80796 79.107538 134.80796 79.107538, 139.516104 37.147246 139.516104 37.147246, 138.089132 37.147246 138.089132 37.147246, 136.66216 37.147246 136.66216 37.147246, 135.234172 37.147246 135.234172 37.147246, 133.8072 37.147246 133.8072 37.147246, 128.64084 77.861922 128.64084 77.861922, 123.47448 118.575582 123.47448 118.575582, 118.307358 159.290258 118.307358 159.290258, 113.14176 200.00468"/>
      </g>
      <g>
        <polyline style="fill: transparent;stroke: black;stroke-width: 1;" points="173.576996 210.053682, 175.009302 166.952422 175.009302 166.952422, 176.441862 123.851416 176.441862 123.851416, 177.874422 80.750156 177.874422 80.750156, 179.306728 37.648134 179.306728 37.648134, 177.829464 37.648134 177.829464 37.648134, 176.352708 37.648134 176.352708 37.648134, 174.87519 37.648134 174.87519 37.648134, 173.39945 37.648134 173.39945 37.648134, 171.38777 80.933798 171.38777 80.933798, 169.377106 124.219462 169.377106 124.219462, 167.366442 167.505126 167.366442 167.505126, 165.355778 210.791044"/>
      </g>
      <g>
        <polyline style="fill: transparent;stroke: black;stroke-width: 1;" points="155.373324 209.616548, 158.145988 166.75481 158.145988 166.75481, 160.918652 123.893072 160.918652 123.893072, 163.69157 81.030572 163.69157 81.030572, 166.463472 38.168834 166.463472 38.168834, 165.017704 38.168834 165.017704 38.168834, 163.571428 38.168834 163.571428 38.168834, 162.12566 38.168834 162.12566 38.168834, 160.679892 38.168834 160.679892 38.168834, 157.44444 81.177892 157.44444 81.177892, 154.20975 124.18695 154.20975 124.18695, 150.97506 167.195246 150.97506 167.195246, 147.739608 210.204304"/>
      </g>
      <g>
        <polyline style="fill: transparent;stroke: black;stroke-width: 1;" points="200.96353 210.053682, 200.805542 166.901368 200.805542 166.901368, 200.648062 123.749816 200.648062 123.749816, 200.490836 80.597248 200.490836 80.597248, 200.333356 37.445696 200.333356 37.445696, 201.671428 37.445696 201.671428 37.445696, 203.010008 37.445696 203.010008 37.445696, 204.347826 37.445696 204.347826 37.445696, 205.685898 37.445696 205.685898 37.445696, 206.560166 80.488028 206.560166 80.488028, 207.435196 123.531122 207.435196 123.531122, 208.309718 166.574216 208.309718 166.574216, 209.183986 209.616548"/>
      </g>
      <g>
        <polyline style="fill: gray;stroke: black;stroke-width: 1;" points="137.035794 416.180016, 134.225792 416.180016 134.225792 416.180016, 131.416806 416.180016 131.416806 416.180016, 128.607566 416.180016 128.607566 416.180016, 125.797564 416.180016 125.797564 416.180016, 125.797564 398.884902 125.797564 398.884902, 125.797564 381.589788 125.797564 381.589788, 125.797564 364.294674 125.797564 364.294674, 125.797564 346.999814 125.797564 346.999814, 128.607566 346.999814 128.607566 346.999814, 131.416806 346.999814 131.416806 346.999814, 134.225792 346.999814 134.225792 346.999814, 137.035794 346.999814 137.035794 346.999814, 137.035794 364.294674 137.035794 364.294674, 137.035794 381.589788 137.035794 381.589788, 137.035794 398.884902 137.035794 398.884902, 137.035794 416.180016 137.035794 416.180016, 137.035794 416.180016"/>
      </g>
      <g>
        <polyline style="fill: gray;stroke: black;stroke-width: 1;" points="275.23821 276.462236, 235.612686 276.462236 235.612686 276.462236, 195.9864 276.462236 195.9864 276.462236, 156.360876 276.462236 156.360876 276.462236, 116.73459 276.462236 116.73459 276.462236, 116.73459 268.871954 116.73459 268.871954, 116.73459 261.281672 116.73459 261.281672, 116.73459 253.69139 116.73459 253.69139, 116.73459 246.101108 116.73459 246.101108, 156.360876 246.101108 156.360876 246.101108, 195.9864 246.101108 195.9864 246.101108, 235.612686 246.101108 235.612686 246.101108, 275.23821 246.101108 275.23821 246.101108, 275.23821 253.69139 275.23821 253.69139, 275.23821 261.281672 275.23821 261.281672, 275.23821 268.871954 275.23821 268.871954, 275.23821 276.462236 275.23821 276.462236, 275.23821 276.462236"/>
      </g>
      <g>
        <polyline style="fill: gray;stroke: black;stroke-width: 1;" points="188.652658 416.180016, 185.84291 416.180016 185.84291 416.180016, 183.03367 416.180016 183.03367 416.180016, 180.223668 416.180016 180.223668 416.180016, 177.41392 416.180016 177.41392 416.180016, 177.41392 398.884902 177.41392 398.884902, 177.41392 381.589788 177.41392 381.589788, 177.41392 364.294674 177.41392 364.294674, 177.41392 346.999814 177.41392 346.999814, 180.223668 346.999814 180.223668 346.999814, 183.03367 346.999814 183.03367 346.999814, 185.84291 346.999814 185.84291 346.999814, 188.652658 346.999814 188.652658 346.999814, 188.652658 364.294674 188.652658 364.294674, 188.652658 381.589788 188.652658 381.589788, 188.652658 398.884902 188.652658 398.884902, 188.652658 416.180016 188.652658 416.180016, 188.652658 416.180016"/>
      </g>
      <g>
        <polyline style="fill: gray;stroke: black;stroke-width: 1;" points="214.460582 416.180016, 211.651342 416.180016 211.651342 416.180016, 208.84134 416.180016 208.84134 416.180016, 206.032354 416.180016 206.032354 416.180016, 203.222352 416.180016 203.222352 416.180016, 203.222352 398.884902 203.222352 398.884902, 203.222352 381.589788 203.222352 381.589788, 203.222352 364.294674 203.222352 364.294674, 203.222352 346.999814 203.222352 346.999814, 206.032354 346.999814 206.032354 346.999814, 208.84134 346.999814 208.84134 346.999814, 211.651342 346.999814 211.651342 346.999814, 214.460582 346.999814 214.460582 346.999814, 214.460582 364.294674 214.460582 364.294674, 214.460582 381.589788 214.460582 381.589788, 214.460582 398.884902 214.460582 398.884902, 214.460582 416.180016 214.460582 416.180016, 214.460582 416.180016"/>
      </g>
      <g>
        <polyline style="fill: gray;stroke: black;stroke-width: 1;" points="240.269014 416.180016, 237.459012 416.180016 237.459012 416.180016, 234.650026 416.180016 234.650026 416.180016, 231.840024 416.180016 231.840024 416.180016, 229.030022 416.180016 229.030022 416.180016, 229.030022 398.884902 229.030022 398.884902, 229.030022 381.589788 229.030022 381.589788, 229.030022 364.294674 229.030022 364.294674, 229.030022 346.999814 229.030022 346.999814, 231.840024 346.999814 231.840024 346.999814, 234.650026 346.999814 234.650026 346.999814, 237.459012 346.999814 237.459012 346.999814, 240.269014 346.999814 240.269014 346.999814, 240.269014 364.294674 240.269014 364.294674, 240.269014 381.589788 240.269014 381.589788, 240.269014 398.884902 240.269014 398.884902, 240.269014 416.180016 240.269014 416.180016, 240.269014 416.180016"/>
      </g>
      <g>
        <polyline style="fill: gray;stroke: black;stroke-width: 1;" points="266.077446 416.180016, 263.26846 416.180016 263.26846 416.180016, 260.457696 416.180016 260.457696 416.180016, 257.648456 416.180016 257.648456 416.180016, 254.83947 416.180016 254.83947 416.180016, 254.83947 398.884902 254.83947 398.884902, 254.83947 381.589788 254.83947 381.589788, 254.83947 364.294674 254.83947 364.294674, 254.83947 346.999814 254.83947 346.999814, 257.648456 346.999814 257.648456 346.999814, 260.457696 346.999814 260.457696 346.999814, 263.26846 346.999814 263.26846 346.999814, 266.077446 346.999814 266.077446 346.999814, 266.077446 364.294674 266.077446 364.294674, 266.077446 381.589788 266.077446 381.589788, 266.077446 398.884902 266.077446 398.884902, 266.077446 416.180016 266.077446 416.180016, 266.077446 416.180016"/>
      </g>
      <g>
        <polyline style="fill: gray;stroke: black;stroke-width: 1;" points="162.844226 416.180016, 160.034986 416.180016 160.034986 416.180016, 157.225238 416.180016 157.225238 416.180016, 154.415236 416.180016 154.415236 416.180016, 151.60625 416.180016 151.60625 416.180016, 151.60625 398.884902 151.60625 398.884902, 151.60625 381.589788 151.60625 381.589788, 151.60625 364.294674 151.60625 364.294674, 151.60625 346.999814 151.60625 346.999814, 154.415236 346.999814 154.415236 346.999814, 157.225238 346.999814 157.225238 346.999814, 160.034986 346.999814 160.034986 346.999814, 162.844226 346.999814 162.844226 346.999814, 162.844226 364.294674 162.844226 364.294674, 162.844226 381.589788 162.844226 381.589788, 162.844226 398.884902 162.844226 398.884902, 162.844226 416.180016 162.844226 416.180016, 162.844226 416.180016"/>
      </g>
    </g>
  </g>
</svg>
