<?xml version="1.0" encoding="utf-8"?>
<!-- Generator: SVG Export - SVG Version: 6.00 Build 1  -->
<!-- FXGUID: [D14DCC78-B24A-11EB-8342-525400685065] SYMID: [16287]  -->
<svg xmlns="http://www.w3.org/2000/svg" version="1.1" ch_offset="0" color_bar_width="66" width="1057.25214" height="200.23963" origin_x="523.4559" origin_y="95.509588" ch_offset_x="524.2432492" ch_offset_y="40" color_offset_x="523.4559" color_offset_y="-4">
  <g>
    <title>Layer 1</title>
    <g>
      <g>
        <polyline style="fill: gray;stroke: black;stroke-width: 1;" points="982.03512 175.40478, 913.83612 175.40478 913.83612 175.40478, 913.83612 8.53821 913.83612 8.53821, 982.03512 8.53821 982.03512 8.53821, 982.03512 175.40478"/>
      </g>
      <g>
        <polyline style="fill: gray;stroke: black;stroke-width: 1;" points="1005.96192 107.189524, 996.21594 107.189524 996.21594 107.189524, 996.21594 130.697478 996.21594 130.697478, 982.03512 130.697478 982.03512 130.697478, 982.03512 152.899872 982.03512 152.899872, 996.21594 152.899872 996.21594 152.899872, 996.21594 176.407826 996.21594 176.407826, 1005.96192 176.407826 1005.96192 176.407826, 1010.83618 158.305754 1010.83618 158.305754, 1010.83618 125.291596 1010.83618 125.291596, 1005.96192 107.189524"/>
      </g>
      <g>
        <polyline style="fill: gray;stroke: black;stroke-width: 1;" points="65.05956 175.40478, 133.25602 175.40478 133.25602 175.40478, 133.25602 8.53821 133.25602 8.53821, 65.05956 8.53821 65.05956 8.53821, 65.05956 175.40478"/>
      </g>
      <g>
        <polyline style="fill: gray;stroke: black;stroke-width: 1;" points="41.13022 107.189524, 50.8762 107.189524 50.8762 107.189524, 50.8762 130.697478 50.8762 130.697478, 65.05956 130.697478 65.05956 130.697478, 65.05956 152.899872 65.05956 152.899872, 50.8762 152.899872 50.8762 152.899872, 50.8762 176.407826 50.8762 176.407826, 41.13022 176.407826 41.13022 176.407826, 36.2585 158.305754 36.2585 158.305754, 36.2585 125.291596 36.2585 125.291596, 41.13022 107.189524"/>
      </g>
      <g>
        <polyline style="fill: gray;stroke: black;stroke-width: 1;" points="1044.55214 2.54, 1044.55214 95.451422 1044.55214 95.451422, 1032.21028 95.451422 1032.21028 95.451422, 1032.21028 102.85095 1032.21028 102.85095, 852.91168 102.85095 852.91168 102.85095, 852.91168 95.451422 852.91168 95.451422, 788.59634 95.451422 788.59634 95.451422, 788.59634 113.539524 788.59634 113.539524, 776.253972 113.539524 776.253972 113.539524, 764.560828 187.53963 764.560828 187.53963, 282.532074 187.53963 282.532074 187.53963, 270.838422 113.539524 270.838422 113.539524, 258.4958 113.539524 258.4958 113.539524, 258.4958 95.451422 258.4958 95.451422, 194.183 95.451422 194.183 95.451422, 194.183 102.85095 194.183 102.85095, 14.8844 102.85095 14.8844 102.85095, 14.8844 95.451422 14.8844 95.451422, 2.54 95.451422 2.54 95.451422, 2.54 2.54 2.54 2.54, 1044.55214 2.54"/>
      </g>
      <g>
        <polyline style="fill: gray;stroke: black;stroke-width: 1;" points="788.81224 113.539524, 258.2799 113.539524 258.2799 113.539524, 258.2799 76.52385 258.2799 76.52385, 788.81224 76.52385 788.81224 76.52385, 788.81224 113.539524"/>
      </g>
      <g>
        <polyline style="fill: gray;stroke: black;stroke-width: 1;" points="1044.55214 95.451422, 1032.10106 95.451422 1032.10106 95.451422, 1032.10106 2.54 1032.10106 2.54, 1044.55214 2.54 1044.55214 2.54, 1044.55214 95.451422"/>
      </g>
      <g>
        <polyline style="fill: gray;stroke: black;stroke-width: 1;" points="14.99108 95.451422, 2.54 95.451422 2.54 95.451422, 2.54 2.54 2.54 2.54, 14.99108 2.54 14.99108 2.54, 14.99108 95.451422"/>
      </g>
      <g>
        <polyline style="fill: gray;stroke: black;stroke-width: 1;" points="1032.10106 76.52385, 14.99108 76.52385 14.99108 76.52385, 14.99108 2.54 14.99108 2.54, 1032.10106 2.54 1032.10106 2.54, 1032.10106 76.52385"/>
      </g>
    </g>
  </g>
</svg>
