<?xml version="1.0" encoding="utf-8"?>
<!-- Generator: www.crescit.com, SVG Export - SVG Version: 6.00 Build 1  -->
<!-- FXGUID: [AE86FE2F-0AA2-11EA-AD7C-525400685065] SYMID: [12638]  -->
<svg xmlns="http://www.w3.org/2000/svg" version="1.1" ch_offset="0" color_bar_width="66" width="271.652746" height="190.903606" origin_x="135.658352" origin_y="98.439224" ch_offset_x="135.7564976" ch_offset_y="40" color_offset_x="135.658352" color_offset_y="-4">
  <g>
    <title>Layer 1</title>
    <g>
      <g>
        <polyline style="fill: gray;stroke: black;stroke-width: 1;" points="266.423902 67.5005, 250.233434 66.674238 250.233434 66.674238, 239.912398 48.990758 239.912398 48.990758, 235.30179 15.46479 235.30179 15.46479, 36.350956 15.46479 36.350956 15.46479, 31.740602 48.990758 31.740602 48.990758, 21.419312 66.674238 21.419312 66.674238, 5.228844 67.5005 5.228844 67.5005, 3.41503 83.651344 3.41503 83.651344, 2.54 98.77679 2.54 98.77679, 2.54 105.050844 2.54 105.050844, 3.354578 119.508016 3.354578 119.508016, 5.228844 136.327388 5.228844 136.327388, 21.419312 137.15365 21.419312 137.15365, 31.740602 154.83713 31.740602 154.83713, 36.350956 188.363606 36.350956 188.363606, 235.30179 188.363606 235.30179 188.363606, 239.912398 154.83713 239.912398 154.83713, 250.233434 137.15365 250.233434 137.15365, 266.423902 136.327388 266.423902 136.327388, 268.353286 118.8974 268.353286 118.8974, 269.112746 105.050844 269.112746 105.050844, 269.112746 98.77679 269.112746 98.77679, 268.139164 82.608166 268.139164 82.608166, 266.423902 67.5005 266.423902 67.5005, 266.423902 67.5005"/>
      </g>
      <g>
        <polyline style="fill: gray;stroke: black;stroke-width: 1;" points="36.525454 152.18283, 27.012138 137.552684 27.012138 137.552684, 20.34667 123.093988 20.34667 123.093988, 16.930624 105.733088 16.930624 105.733088, 16.930624 98.0948 16.930624 98.0948, 20.260564 80.97647 20.260564 80.97647, 27.864816 64.766444 27.864816 64.766444, 36.525454 51.644804 36.525454 51.644804, 36.525454 152.18283 36.525454 152.18283, 36.525454 152.18283"/>
      </g>
      <g>
        <polyline style="fill: gray;stroke: black;stroke-width: 1;" points="254.722376 105.733088, 251.24029 123.274582 251.24029 123.274582, 243.832888 138.982958 243.832888 138.982958, 235.127292 152.18283 235.127292 152.18283, 235.127292 51.644804 235.127292 51.644804, 245.249192 67.385692 245.249192 67.385692, 252.212348 83.425792 252.212348 83.425792, 254.722376 98.0948 254.722376 98.0948, 254.722376 105.733088 254.722376 105.733088, 254.722376 105.733088"/>
      </g>
      <g>
        <polyline style="fill: gray;stroke: black;stroke-width: 1;" points="260.294882 79.514446, 257.907282 69.63664 257.907282 69.63664, 257.67792 69.63664 257.67792 69.63664, 13.744702 69.63664 13.744702 69.63664, 13.514578 69.63664 13.514578 69.63664, 13.514578 70.568566 13.514578 70.568566, 11.399012 79.14005 11.399012 79.14005, 10.561066 98.366072 10.561066 98.366072, 10.561066 104.805988 10.561066 104.805988, 11.321542 123.318778 11.321542 123.318778, 13.514578 132.565394 13.514578 132.565394, 13.514578 133.535928 13.514578 133.535928, 13.744702 133.535928 13.744702 133.535928, 257.67792 133.535928 257.67792 133.535928, 257.907282 133.535928 257.907282 133.535928, 260.331204 123.31573 260.331204 123.31573, 261.09168 104.805988 261.09168 104.805988, 261.09168 98.366072 261.09168 98.366072, 260.294882 79.514446 260.294882 79.514446, 260.294882 79.514446"/>
      </g>
      <g>
        <polyline style="fill: gray;stroke: black;stroke-width: 1;" points="36.339526 117.708934, 39.60749 117.708934 39.60749 117.708934, 39.300404 108.073952 39.300404 108.073952, 39.921434 97.170748 39.921434 97.170748, 41.150032 85.462872 41.150032 85.462872, 36.339526 85.462872 36.339526 85.462872, 36.339526 117.708934"/>
      </g>
      <g>
        <polyline style="fill: gray;stroke: black;stroke-width: 1;" points="234.802426 117.708934, 231.534462 117.708934 231.534462 117.708934, 231.841548 108.073952 231.841548 108.073952, 231.219756 97.170748 231.219756 97.170748, 229.991158 85.462872 229.991158 85.462872, 234.802426 85.462872 234.802426 85.462872, 234.802426 117.708934"/>
      </g>
      <g>
        <polyline style="fill: gray;stroke: black;stroke-width: 1;" points="13.514578 69.63664, 11.399012 79.14005 11.399012 79.14005, 10.584434 97.840546 10.584434 97.840546, 10.584434 105.364026 10.584434 105.364026, 11.321542 123.31954 11.321542 123.31954, 13.514578 133.535928 13.514578 133.535928, 36.339526 133.535928 36.339526 133.535928, 36.339526 69.63664 36.339526 69.63664, 13.514578 69.63664 13.514578 69.63664, 13.514578 69.63664"/>
      </g>
      <g>
        <polyline style="fill: gray;stroke: black;stroke-width: 1;" points="258.100322 69.63664, 260.25983 79.14005 260.25983 79.14005, 261.09168 97.840546 261.09168 97.840546, 261.09168 105.364026 261.09168 105.364026, 260.339078 123.31954 260.339078 123.31954, 258.100322 133.535928 258.100322 133.535928, 234.802426 133.535928 234.802426 133.535928, 234.802426 69.63664 234.802426 69.63664, 258.100322 69.63664 258.100322 69.63664, 258.100322 69.63664"/>
      </g>
      <g>
        <polyline style="fill: gray;stroke: black;stroke-width: 1;" points="215.687402 2.54, 226.839526 68.868544 226.839526 68.868544, 229.991158 85.462872 229.991158 85.462872, 231.759252 106.28503 231.759252 106.28503, 231.660954 116.003832 231.660954 116.003832, 229.121462 131.363212 229.121462 131.363212, 223.723454 143.417544 223.723454 143.417544, 219.951554 162.976052 219.951554 162.976052, 200.599294 180.833014 200.599294 180.833014, 70.72503 180.833014 70.72503 180.833014, 51.372516 162.976052 51.372516 162.976052, 47.60087 143.417544 47.60087 143.417544, 42.493438 132.3594 42.493438 132.3594, 39.929816 119.212106 39.929816 119.212106, 39.564818 106.28503 39.564818 106.28503, 41.494202 84.27847 41.494202 84.27847, 44.484798 68.868544 44.484798 68.868544, 55.635906 2.54 55.635906 2.54, 215.687402 2.54 215.687402 2.54, 215.687402 2.54"/>
      </g>
      <g>
        <polyline style="fill: gray;stroke: black;stroke-width: 1;" points="132.942076 165.385242, 119.494046 165.385242 119.494046 165.385242, 119.494046 100.331778 119.494046 100.331778, 132.942076 100.331778 132.942076 100.331778, 132.942076 165.385242 132.942076 165.385242, 132.942076 165.385242"/>
      </g>
      <g>
        <polyline style="fill: gray;stroke: black;stroke-width: 1;" points="151.403812 165.385242, 137.955782 165.385242 137.955782 165.385242, 137.955782 100.331778 137.955782 100.331778, 151.403812 100.331778 151.403812 100.331778, 151.403812 165.385242 151.403812 165.385242, 151.403812 165.385242"/>
      </g>
      <g>
        <polyline style="fill: gray;stroke: black;stroke-width: 1;" points="165.905942 165.385242, 155.573984 165.385242 155.573984 165.385242, 155.573984 100.331778 155.573984 100.331778, 169.022014 100.331778 169.022014 100.331778, 165.905942 165.385242 165.905942 165.385242, 165.905942 165.385242"/>
      </g>
      <g>
        <polyline style="fill: gray;stroke: black;stroke-width: 1;" points="180.1749 165.951916, 169.022014 165.951916 169.022014 165.951916, 172.716444 100.331778 172.716444 100.331778, 186.164474 100.331778 186.164474 100.331778, 180.1749 165.951916 180.1749 165.951916, 180.1749 165.951916"/>
      </g>
      <g>
        <polyline style="fill: gray;stroke: black;stroke-width: 1;" points="192.630806 165.951916, 183.454548 165.951916 183.454548 165.951916, 189.85865 100.331778 189.85865 100.331778, 199.096884 101.306122 199.096884 101.306122, 192.630806 165.951916 192.630806 165.951916, 192.630806 165.951916"/>
      </g>
      <g>
        <polyline style="fill: gray;stroke: black;stroke-width: 1;" points="202.970384 165.951916, 196.24675 165.951916 196.24675 165.951916, 202.681332 101.58603 202.681332 101.58603, 212.154262 102.570534 212.154262 102.570534, 202.970384 165.951916 202.970384 165.951916, 202.970384 165.951916"/>
      </g>
      <g>
        <polyline style="fill: gray;stroke: black;stroke-width: 1;" points="214.450422 165.951916, 207.398874 165.951916 207.398874 165.951916, 215.078818 102.570534 215.078818 102.570534, 224.630234 103.526082 224.630234 103.526082, 214.450422 165.951916 214.450422 165.951916, 214.450422 165.951916"/>
      </g>
      <g>
        <polyline style="fill: gray;stroke: black;stroke-width: 1;" points="105.417366 165.385242, 115.749324 165.385242 115.749324 165.385242, 115.749324 100.331778 115.749324 100.331778, 102.301294 100.331778 102.301294 100.331778, 105.417366 165.385242 105.417366 165.385242, 105.417366 165.385242"/>
      </g>
      <g>
        <polyline style="fill: gray;stroke: black;stroke-width: 1;" points="91.14917 165.951916, 102.301294 165.951916 102.301294 165.951916, 98.606864 100.331778 98.606864 100.331778, 85.158834 100.331778 85.158834 100.331778, 91.14917 165.951916 91.14917 165.951916, 91.14917 165.951916"/>
      </g>
      <g>
        <polyline style="fill: gray;stroke: black;stroke-width: 1;" points="78.692756 165.951916, 87.869522 165.951916 87.869522 165.951916, 81.464658 100.331778 81.464658 100.331778, 72.226424 101.306122 72.226424 101.306122, 78.692756 165.951916 78.692756 165.951916, 78.692756 165.951916"/>
      </g>
      <g>
        <polyline style="fill: gray;stroke: black;stroke-width: 1;" points="68.353686 165.951916, 75.07732 165.951916 75.07732 165.951916, 68.642992 101.58603 68.642992 101.58603, 59.169808 102.570534 59.169808 102.570534, 68.353686 165.951916 68.353686 165.951916, 68.353686 165.951916"/>
      </g>
      <g>
        <polyline style="fill: gray;stroke: black;stroke-width: 1;" points="56.87314 165.951916, 63.92545 165.951916 63.92545 165.951916, 56.245252 102.570534 56.245252 102.570534, 46.693836 103.526082 46.693836 103.526082, 56.87314 165.951916 56.87314 165.951916, 56.87314 165.951916"/>
      </g>
    </g>
  </g>
</svg>
