<?xml version="1.0" encoding="utf-8"?>
<!-- Generator: SVG Export - SVG Version: 6.00 Build 1  -->
<!-- FXGUID: [208F304A-FB9D-11E5-94E2-F0761CCEA3DE] SYMID: [14145]  -->
<svg xmlns="http://www.w3.org/2000/svg" version="1.1" ch_offset="0" color_bar_width="66" width="408.878786" height="432.500532" origin_x="199.524366" origin_y="211.168742" ch_offset_x="200.7055422" ch_offset_y="40" color_offset_x="199.524366" color_offset_y="-4" fxtype_offset_x="203.6585462" fxtype_offset_y="452.972932" fxtype_offset_value="MK1Hybrid">
  <g>
    <title>Layer 1</title>
    <g>
      <g>
        <polyline style="fill: gray;stroke: black;stroke-width: 1;" points="2.54 244.115844, 16.386556 317.61303 16.386556 317.61303, 44.080176 360.69651 44.080176 360.69651, 354.63861 360.69651 354.63861 360.69651, 382.332484 317.61303 382.332484 317.61303, 396.178786 244.116606 396.178786 244.116606, 396.178786 178.223164 396.178786 178.223164, 382.332484 104.727502 382.332484 104.727502, 354.63861 61.64326 354.63861 61.64326, 44.080176 61.64326 44.080176 61.64326, 16.386556 104.727502 16.386556 104.727502, 2.54 178.223164 2.54 178.223164, 2.54 244.115844"/>
      </g>
      <g>
        <polyline style="fill: gray;stroke: black;stroke-width: 1;" points="321.011296 287.954466, 358.595168 287.954466 358.595168 287.954466, 366.507776 247.541288 366.507776 247.541288, 366.507776 174.798482 366.507776 174.798482, 358.595168 134.386066 358.595168 134.386066, 321.011296 134.386066 321.011296 134.386066, 321.011296 287.954466"/>
      </g>
      <g>
        <polyline style="fill: gray;stroke: black;stroke-width: 1;" points="77.70749 287.954466, 40.123872 287.954466 40.123872 287.954466, 32.21101 247.541288 32.21101 247.541288, 32.21101 174.798482 32.21101 174.798482, 40.123872 134.386066 40.123872 134.386066, 77.70749 134.386066 77.70749 134.386066, 77.70749 287.954466"/>
      </g>
      <g>
        <polyline style="fill: gray;stroke: black;stroke-width: 1;" points="369.103656 149.459696, 281.586686 149.459696 281.586686 149.459696, 269.465552 133.115812 269.465552 133.115812, 129.253996 133.115812 129.253996 133.115812, 117.133116 149.459696 117.133116 149.459696, 29.615892 149.459696 29.615892 149.459696, 20.055332 165.288214 20.055332 165.288214, 20.055332 257.05308 20.055332 257.05308, 29.615892 272.880836 29.615892 272.880836, 117.133116 272.880836 117.133116 272.880836, 129.253996 289.22472 129.253996 289.22472, 269.465552 289.22472 269.465552 289.22472, 281.586686 272.880836 281.586686 272.880836, 369.103656 272.880836 369.103656 272.880836, 378.66447 257.05308 378.66447 257.05308, 378.66447 165.288214 378.66447 165.288214, 369.103656 149.459696"/>
      </g>
      <g>
        <polyline style="fill: gray;stroke: black;stroke-width: 1;" points="338.154518 231.713532, 331.561186 231.713532 331.561186 231.713532, 331.561186 190.627 331.561186 190.627, 338.154518 190.627 338.154518 190.627, 338.154518 231.713532"/>
      </g>
      <g>
        <polyline style="fill: gray;stroke: black;stroke-width: 1;" points="337.618832 272.880836, 369.103656 272.880836 369.103656 272.880836, 378.66447 257.05308 378.66447 257.05308, 378.66447 165.288214 378.66447 165.288214, 369.103656 149.459696 369.103656 149.459696, 337.618832 149.459696 337.618832 149.459696, 337.618832 272.880836"/>
      </g>
      <g>
        <polyline style="fill: gray;stroke: black;stroke-width: 1;" points="61.05906 231.713532, 67.653154 231.713532 67.653154 231.713532, 67.653154 190.627 67.653154 190.627, 61.05906 190.627 61.05906 190.627, 61.05906 231.713532"/>
      </g>
      <g>
        <polyline style="fill: gray;stroke: black;stroke-width: 1;" points="61.099954 272.880836, 29.615892 272.880836 29.615892 272.880836, 20.055332 257.05308 20.055332 257.05308, 20.055332 165.288214 20.055332 165.288214, 29.615892 149.459696 29.615892 149.459696, 61.099954 149.459696 61.099954 149.459696, 61.099954 272.880836"/>
      </g>
      <g>
        <polyline style="fill: gray;stroke: black;stroke-width: 1;" points="290.103814 2.54, 290.103814 16.684752 290.103814 16.684752, 309.884826 32.34436 309.884826 32.34436, 313.346592 63.158624 313.346592 63.158624, 323.750686 103.274876 323.750686 103.274876, 326.69861 127.81915 326.69861 127.81915, 331.149452 127.81915 331.149452 127.81915, 331.149452 269.263368 331.149452 269.263368, 328.676762 274.31492 328.676762 274.31492, 321.75323 349.583248 321.75323 349.583248, 271.312132 415.253678 271.312132 415.253678, 254.992886 419.800532 254.992886 419.800532, 143.7259 419.800532 143.7259 419.800532, 127.406908 415.253678 127.406908 415.253678, 76.96581 349.583248 76.96581 349.583248, 70.042024 274.31492 70.042024 274.31492, 67.569334 269.263368 67.569334 269.263368, 67.569334 127.81915 67.569334 127.81915, 72.020176 127.81915 72.020176 127.81915, 74.55662 105.428288 74.55662 105.428288, 85.372194 63.158624 85.372194 63.158624, 88.83396 32.34436 88.83396 32.34436, 108.614972 16.684752 108.614972 16.684752, 108.614972 2.54 108.614972 2.54, 290.103814 2.54 290.103814 2.54, 290.103814 2.54"/>
      </g>
      <g>
        <polyline style="fill: gray;stroke: black;stroke-width: 1;" points="258.15544 26.685748, 258.15544 19.108674 258.15544 19.108674, 278.553418 19.108674 278.553418 19.108674, 295.613582 32.369252 295.613582 32.369252, 303.208436 57.048908 303.208436 57.048908, 312.978546 98.824034 312.978546 98.824034, 317.12408 138.825478 317.12408 138.825478, 317.12408 286.576262 317.12408 286.576262, 303.031144 346.43441 303.031144 346.43441, 252.963426 407.808176 252.963426 407.808176, 145.75536 407.808176 145.75536 407.808176, 95.687896 346.43441 95.687896 346.43441, 81.59496 286.576262 81.59496 286.576262, 81.59496 138.825478 81.59496 138.825478, 84.955888 103.33228 84.955888 103.33228, 95.228918 58.057542 95.228918 58.057542, 103.105204 32.369252 103.105204 32.369252, 120.165368 19.108674 120.165368 19.108674, 140.563346 19.108674 140.563346 19.108674, 140.563346 26.685748 140.563346 26.685748, 258.15544 26.685748 258.15544 26.685748, 258.15544 26.685748"/>
      </g>
      <g>
        <polyline style="fill: gray;stroke: black;stroke-width: 1;" points="111.078264 87.61603, 128.14173 68.670678 128.14173 68.670678, 160.040574 77.006704 160.040574 77.006704, 172.765212 104.001316 172.765212 104.001316, 190.906146 134.273798 190.906146 134.273798, 219.389706 165.670992 219.389706 165.670992, 245.870222 185.828686 245.870222 185.828686, 275.511006 208.637378 275.511006 208.637378, 300.25213 227.811584 300.25213 227.811584, 293.574978 338.451952 293.574978 338.451952, 257.96621 394.530072 257.96621 394.530072, 141.00048 394.530072 141.00048 394.530072, 106.132884 338.199222 106.132884 338.199222, 98.466656 248.2723 98.466656 248.2723, 102.831646 134.916418 102.831646 134.916418, 111.078264 87.61603 111.078264 87.61603, 111.078264 87.61603"/>
      </g>
      <g>
        <polyline style="fill: gray;stroke: black;stroke-width: 1;" points="140.726922 287.713166, 257.992626 287.713166 257.992626 287.713166, 257.992626 394.530072 257.992626 394.530072, 140.726922 394.530072 140.726922 394.530072, 140.726922 287.713166"/>
      </g>
      <g>
        <polyline style="fill: gray;stroke: black;stroke-width: 1;" points="255.175766 322.946776, 143.54302 322.946776 143.54302 322.946776, 143.54302 312.717942 143.54302 312.717942, 255.175766 312.717942 255.175766 312.717942, 255.175766 322.946776"/>
      </g>
      <g>
        <polyline style="fill: gray;stroke: black;stroke-width: 1;" points="255.175766 343.783412, 143.54302 343.783412 143.54302 343.783412, 143.54302 333.554578 143.54302 333.554578, 255.175766 333.554578 255.175766 333.554578, 255.175766 343.783412"/>
      </g>
      <g>
        <polyline style="fill: gray;stroke: black;stroke-width: 1;" points="255.175766 364.620302, 143.54302 364.620302 143.54302 364.620302, 143.54302 354.391468 143.54302 354.391468, 255.175766 354.391468 255.175766 354.391468, 255.175766 364.620302"/>
      </g>
      <g>
        <polyline style="fill: gray;stroke: black;stroke-width: 1;" points="255.175766 385.456938, 143.54302 385.456938 143.54302 385.456938, 143.54302 375.228104 143.54302 375.228104, 255.175766 375.228104 255.175766 375.228104, 255.175766 385.456938"/>
      </g>
    </g>
  </g>
</svg>
