<?xml version="1.0" encoding="utf-8"?>
<!-- Generator: SVG Export - SVG Version: 6.00 Build 1  -->
<!-- FXGUID: [871B5176-0CCB-11EA-91BD-525400685065] SYMID: [12566]  -->
<svg xmlns="http://www.w3.org/2000/svg" version="1.1" ch_offset="0" color_bar_width="66" width="226.20605" height="194.573906" origin_x="107.854242" origin_y="110.871762" ch_offset_x="107.7277246" ch_offset_y="40" color_offset_x="107.854242" color_offset_y="-4">
  <g>
    <title>Layer 1</title>
    <g>
      <g>
        <polyline style="fill: gray;stroke: black;stroke-width: 1;" points="207.688942 181.588664, 8.219694 181.588664 8.219694 181.588664, 8.219694 38.692074 8.219694 38.692074, 207.688942 38.692074 207.688942 38.692074, 207.688942 181.588664"/>
      </g>
      <g>
        <polyline style="fill: gray;stroke: black;stroke-width: 1;" points="186.92876 181.588664, 28.979622 181.588664 28.979622 181.588664, 28.979622 38.692074 28.979622 38.692074, 186.92876 38.692074 186.92876 38.692074, 186.92876 181.588664"/>
      </g>
      <g>
        <polyline style="fill: gray;stroke: black;stroke-width: 1;" points="212.695536 98.101404, 207.826864 81.056734 207.826864 81.056734, 8.356854 81.056734 8.356854 81.056734, 3.56489 97.566734 3.56489 97.566734, 2.678176 110.140242 2.678176 110.140242, 3.688842 123.522486 3.688842 123.522486, 8.356854 139.224512 8.356854 139.224512, 207.826864 139.224512 207.826864 139.224512, 212.543644 123.210828 212.543644 123.210828, 213.506304 110.140242 213.506304 110.140242, 212.695536 98.101404"/>
      </g>
      <g>
        <polyline style="fill: gray;stroke: black;stroke-width: 1;" points="182.732934 122.043444, 178.592988 122.043444 178.592988 122.043444, 178.592988 103.04145 178.592988 103.04145, 177.865024 98.237294 177.865024 98.237294, 182.732934 98.237294 182.732934 98.237294, 182.732934 122.043444 182.732934 122.043444, 182.732934 122.043444"/>
      </g>
      <g>
        <polyline style="fill: gray;stroke: black;stroke-width: 1;" points="8.219694 81.056734, 33.175448 81.056734 33.175448 81.056734, 33.175448 139.224512 33.175448 139.224512, 8.219694 139.224512 8.219694 139.224512, 8.219694 139.224512 8.219694 139.224512, 3.55092 123.522486 3.55092 123.522486, 2.54 110.140242 2.54 110.140242, 3.42773 97.566734 3.42773 97.566734, 8.219694 81.056734 8.219694 81.056734, 8.219694 81.056734"/>
      </g>
      <g>
        <polyline style="fill: gray;stroke: black;stroke-width: 1;" points="33.175448 122.043444, 37.315394 122.043444 37.315394 122.043444, 37.634164 104.041448 37.634164 104.041448, 38.268148 98.237294 38.268148 98.237294, 33.175448 98.237294 33.175448 98.237294, 33.175448 122.043444 33.175448 122.043444, 33.175448 122.043444"/>
      </g>
      <g>
        <polyline style="fill: gray;stroke: black;stroke-width: 1;" points="207.688942 81.056734, 182.732934 81.056734 182.732934 81.056734, 182.732934 139.224512 182.732934 139.224512, 207.688942 139.224512 207.688942 139.224512, 207.688942 139.224512 207.688942 139.224512, 212.406484 123.210828 212.406484 123.210828, 213.368382 110.140242 213.368382 110.140242, 212.557614 98.101404 212.557614 98.101404, 207.688942 81.056734 207.688942 81.056734, 207.688942 81.056734"/>
      </g>
      <g>
        <polyline style="fill: gray;stroke: black;stroke-width: 1;" points="66.50609 111.620046, 67.990466 50.538634 67.990466 50.538634, 69.816726 28.48483 69.816726 28.48483, 66.50609 28.48483 66.50609 28.48483, 64.699134 50.199798 64.699134 50.199798, 63.1952 111.620046 63.1952 111.620046, 66.50609 111.620046 66.50609 111.620046, 66.50609 111.620046"/>
      </g>
      <g>
        <polyline style="fill: gray;stroke: black;stroke-width: 1;" points="149.402546 111.620046, 147.976336 51.560984 147.976336 51.560984, 146.09191 28.48483 146.09191 28.48483, 149.402546 28.48483 149.402546 28.48483, 151.228044 50.518314 151.228044 50.518314, 152.713182 111.620046 152.713182 111.620046, 149.402546 111.620046 149.402546 111.620046, 149.402546 111.620046"/>
      </g>
      <g>
        <polyline style="fill: gray;stroke: black;stroke-width: 1;" points="174.12589 84.651088, 166.397686 28.770072 166.397686 28.770072, 166.447978 28.770072 166.447978 28.770072, 166.447978 2.54 166.447978 2.54, 49.73574 2.54 49.73574 2.54, 49.73574 28.770072 49.73574 28.770072, 42.007536 84.651088 42.007536 84.651088, 38.719252 95.741236 38.719252 95.741236, 37.315394 112.877346 37.315394 112.877346, 40.420798 139.071858 40.420798 139.071858, 43.525948 150.51151 43.525948 150.51151, 46.699424 165.907466 46.699424 165.907466, 60.2234 181.873906 60.2234 181.873906, 155.909772 181.873906 155.909772 181.873906, 169.433748 165.907466 169.433748 165.907466, 172.607224 150.51151 172.607224 150.51151, 175.678338 139.224512 175.678338 139.224512, 178.817778 112.877346 178.817778 112.877346, 177.39995 95.663004 177.39995 95.663004, 174.12589 84.651088 174.12589 84.651088, 174.12589 84.651088"/>
      </g>
      <g>
        <polyline style="fill: gray;stroke: black;stroke-width: 1;" points="52.058824 140.088112, 44.33062 140.088112 44.33062 140.088112, 44.33062 112.547146 44.33062 112.547146, 52.058824 112.547146 52.058824 112.547146, 52.058824 140.088112 52.058824 140.088112, 52.058824 140.088112"/>
      </g>
      <g>
        <polyline style="fill: gray;stroke: black;stroke-width: 1;" points="62.27064 139.875006, 54.542436 139.875006 54.542436 139.875006, 54.542436 112.333278 54.542436 112.333278, 62.27064 112.333278 62.27064 112.333278, 62.27064 139.875006 62.27064 139.875006, 62.27064 139.875006"/>
      </g>
      <g>
        <polyline style="fill: gray;stroke: black;stroke-width: 1;" points="74.68997 139.534646, 67.215258 139.534646 67.215258 139.534646, 67.215258 111.99368 67.215258 111.99368, 74.68997 111.99368 74.68997 111.99368, 74.68997 139.534646 74.68997 139.534646, 74.68997 139.534646"/>
      </g>
      <g>
        <polyline style="fill: gray;stroke: black;stroke-width: 1;" points="88.364314 138.822176, 79.11846 138.822176 79.11846 138.822176, 79.11846 111.280448 79.11846 111.280448, 88.364314 111.280448 88.364314 111.280448, 88.364314 138.822176 88.364314 138.822176, 88.364314 138.822176"/>
      </g>
      <g>
        <polyline style="fill: gray;stroke: black;stroke-width: 1;" points="100.784406 137.96645, 91.538552 137.96645 91.538552 137.96645, 91.538552 110.425484 91.538552 110.425484, 100.784406 110.425484 100.784406 110.425484, 100.784406 137.96645 100.784406 137.96645, 100.784406 137.96645"/>
      </g>
      <g>
        <polyline style="fill: gray;stroke: black;stroke-width: 1;" points="113.20399 137.96645, 103.958644 137.96645 103.958644 137.96645, 103.958644 110.425484 103.958644 110.425484, 113.20399 110.425484 113.20399 110.425484, 113.20399 137.96645 113.20399 137.96645, 113.20399 137.96645"/>
      </g>
      <g>
        <polyline style="fill: gray;stroke: black;stroke-width: 1;" points="125.624082 137.96645, 116.378228 137.96645 116.378228 137.96645, 116.378228 110.425484 116.378228 110.425484, 125.624082 110.425484 125.624082 110.425484, 125.624082 137.96645 125.624082 137.96645, 125.624082 137.96645"/>
      </g>
      <g>
        <polyline style="fill: gray;stroke: black;stroke-width: 1;" points="138.044174 138.89355, 128.79832 138.89355 128.79832 138.89355, 128.79832 111.351822 128.79832 111.351822, 138.044174 111.351822 138.044174 111.351822, 138.044174 138.89355 138.044174 138.89355, 138.044174 138.89355"/>
      </g>
      <g>
        <polyline style="fill: gray;stroke: black;stroke-width: 1;" points="148.693124 139.534646, 141.218412 139.534646 141.218412 139.534646, 141.218412 111.99368 141.218412 111.99368, 148.693124 111.99368 148.693124 111.99368, 148.693124 139.534646 148.693124 139.534646, 148.693124 139.534646"/>
      </g>
      <g>
        <polyline style="fill: gray;stroke: black;stroke-width: 1;" points="161.3662 139.875006, 153.637996 139.875006 153.637996 139.875006, 153.637996 112.333278 153.637996 112.333278, 161.3662 112.333278 161.3662 112.333278, 161.3662 139.875006 161.3662 139.875006, 161.3662 139.875006"/>
      </g>
      <g>
        <polyline style="fill: gray;stroke: black;stroke-width: 1;" points="171.577762 140.088112, 163.849558 140.088112 163.849558 140.088112, 163.849558 112.547146 163.849558 112.547146, 171.577762 112.547146 171.577762 112.547146, 171.577762 140.088112 171.577762 140.088112, 171.577762 140.088112"/>
      </g>
      <g>
        <polyline style="fill: gray;stroke: black;stroke-width: 1;" points="166.447978 28.770072, 49.73574 28.770072 49.73574 28.770072, 49.73574 2.54 49.73574 2.54, 166.447978 2.54 166.447978 2.54, 166.447978 28.770072"/>
      </g>
    </g>
  </g>
</svg>
