<?xml version="1.0" encoding="utf-8"?>
<!-- Generator: SVG Export - SVG Version: 6.00 Build 1  -->
<!-- FXGUID: [0E5AFA1D-653B-11E8-A5DF-525400685065] SYMID: [10867]  -->
<svg xmlns="http://www.w3.org/2000/svg" version="1.1" ch_offset="0" color_bar_width="66" width="269.60449" height="244.691408" origin_x="129.975356" origin_y="102.013766" ch_offset_x="126.5604784" ch_offset_y="40" color_offset_x="129.975356" color_offset_y="-4" fxtype_offset_x="129.975356" fxtype_offset_y="102.013766" fxtype_offset_value="1-QuadZ">
  <g>
    <title>Layer 1</title>
    <g>
      <g>
        <polyline style="fill: gray;stroke: black;stroke-width: 1;" points="2.645156 2.547366, 256.822956 2.547366 256.822956 2.547366, 256.899156 104.299766 256.899156 104.299766, 256.822956 103.283766 256.822956 103.283766, 167.135556 231.985566 167.135556 231.985566, 92.408756 231.985566 92.408756 231.985566, 2.645156 103.791766 2.645156 103.791766, 2.543556 103.817166"/>
      </g>
      <g>
        <line x1="92.760038" y1="230.342694" x2="167.585898" y2="230.342694" style="stroke-width: 1;stroke: black;"/>
      </g>
      <g>
        <line x1="167.135048" y1="231.991408" x2="256.811018" y2="103.2793464" style="stroke-width: 1;stroke: black;"/>
      </g>
      <g>
        <line x1="256.811018" y1="2.54" x2="256.90449" y2="104.3107388" style="stroke-width: 1;stroke: black;"/>
      </g>
      <g>
        <line x1="256.811018" y1="2.54" x2="2.633218" y2="2.54" style="stroke-width: 1;stroke: black;"/>
      </g>
      <g>
        <line x1="2.633218" y1="2.54" x2="2.54" y2="103.8045168" style="stroke-width: 1;stroke: black;"/>
      </g>
      <g>
        <line x1="2.633218" y1="103.7855684" x2="92.414598" y2="231.991408" style="stroke-width: 1;stroke: black;"/>
      </g>
      <g>
        <circle fill-opacity="0" cx="29.180282" cy="843.1929288" r="5.9955684" style="stroke-width: 1;stroke: black;"/>
      </g>
      <g>
        <circle fill-opacity="0" cx="18.705576" cy="577.1353964" r="5.9955684" style="stroke-width: 1;stroke: black;"/>
      </g>
      <g>
        <circle fill-opacity="0" cx="38.158674" cy="1071.2440856" r="5.9955684" style="stroke-width: 1;stroke: black;"/>
      </g>
    </g>
  </g>
</svg>
