<svg xmlns="http://www.w3.org/2000/svg" viewBox="0 0 1024 1024"><defs><style>.cls-1{fill:#ccc;}.cls-1,.cls-4{fill-rule:evenodd;}.cls-2{fill:none;stroke:#000;stroke-linecap:round;stroke-linejoin:round;stroke-width:2.83px;}.cls-3,.cls-4{fill:#fff;}</style></defs><g id="ERA_400_WRM" data-name="ERA 400 WRM"><path class="cls-1" d="M204.34,375.2h0a45.94,45.94,0,0,0-6.64,4.72,45.41,45.41,0,0,0-10.26,12.73,46.23,46.23,0,0,0-3.27,7.58c-.68,1.95-1.34,3.92-2,5.88s-1.29,3.94-1.91,5.91-1.22,4-1.81,5.93-1.18,4-1.74,6H107.46l-22.6,23.19v218l22.6,23.19h72.29l1.07,3.38,1.08,3.36,1.12,3.36c.38,1.12.76,2.23,1.15,3.35a46.23,46.23,0,0,0,3.27,7.58A45.72,45.72,0,0,0,192,716.2a44.66,44.66,0,0,0,5.7,5.88,45.25,45.25,0,0,0,6.64,4.73l21.23,12.82V911.46l8.7,18.33,108.65,87.1H681l108.65-87.1,8.69-18.33V739.33l20.74-12.52a44.81,44.81,0,0,0,12.35-10.61,45.64,45.64,0,0,0,7.83-14.42c.39-1.12.77-2.23,1.15-3.35l1.11-3.36c.37-1.12.73-2.24,1.09-3.36s.71-2.25,1.06-3.38h72.87l22.6-23.19v-218l-22.6-23.19H846.72q-.86-3-1.75-6T843.16,412c-.62-2-1.26-3.95-1.91-5.91s-1.31-3.93-2-5.88a45.64,45.64,0,0,0-7.83-14.42,44.37,44.37,0,0,0-12.35-10.61l-20.77-12.55-46.1-115.73L712.52,122.07,681.07,92.92l-24.76-.15V7.11H367.59V92.77l-24.74.15-31.46,29.15L271.7,246.92,225.59,358.36v4L204.34,375.2M801.2,423.92h-2.88v-1.68l.38.17.38.19.37.19.36.21.37.21.34.23.35.23.33.25m-575.61,0h-3.37l.39-.29.4-.26.42-.26.41-.24.42-.23.44-.21.44-.21.45-.17v1.87"/><path class="cls-2" d="M204.34,375.2h0a45.94,45.94,0,0,0-6.64,4.72,45.41,45.41,0,0,0-10.26,12.73,46.23,46.23,0,0,0-3.27,7.58c-.68,1.95-1.34,3.92-2,5.88s-1.29,3.94-1.91,5.91-1.22,4-1.81,5.93-1.18,4-1.74,6H107.46l-22.6,23.19v218l22.6,23.19h72.29l1.07,3.38,1.08,3.36,1.12,3.36c.38,1.12.76,2.23,1.15,3.35a46.23,46.23,0,0,0,3.27,7.58A45.72,45.72,0,0,0,192,716.2a44.66,44.66,0,0,0,5.7,5.88,45.25,45.25,0,0,0,6.64,4.73l21.23,12.82V911.46l8.7,18.33,108.65,87.1H681l108.65-87.1,8.69-18.33V739.33l20.74-12.52a44.81,44.81,0,0,0,12.35-10.61,45.64,45.64,0,0,0,7.83-14.42c.39-1.12.77-2.23,1.15-3.35l1.11-3.36c.37-1.12.73-2.24,1.09-3.36s.71-2.25,1.06-3.38h72.87l22.6-23.19v-218l-22.6-23.19H846.72q-.86-3-1.75-6T843.16,412c-.62-2-1.26-3.95-1.91-5.91s-1.31-3.93-2-5.88a45.64,45.64,0,0,0-7.83-14.42,44.37,44.37,0,0,0-12.35-10.61l-20.77-12.55-46.1-115.73L712.52,122.07,681.07,92.92l-24.76-.15V7.11H367.59V92.77l-24.74.15-31.46,29.15L271.7,246.92,225.59,358.36v4L204.34,375.2M801.2,423.92h-2.88v-1.68l.38.17.38.19.37.19.36.21.37.21.34.23.35.23.33.25m-575.61,0h-3.37l.39-.29.4-.26.42-.26.41-.24.42-.23.44-.21.44-.21.45-.17v1.87"/><path class="cls-2" d="M270.38,581.72q.08-54.32-3.2-108.57T257.31,365m509.29,0q-6.6,53.89-9.88,108.13t-3.19,108.57m7.37,172.92-7.37-172.92m-483.15,0L263,754.64m510.45,38.24L760.9,754.64m-497.88,0-12.57,38.24m501.76-546,46.1,111.44M739,252.05q5.84,28.07,12.75,56.33T766.6,365m-509.29,0q8-28.38,14.87-56.64t12.76-56.33M789.62,918.43,773.47,792.88m-523,0L234.29,918.43m498.1-733.85q1.27,16.8,2.92,33.66T739,252.05m-454,0q2-16.94,3.66-33.81t2.92-33.66M747.71,958.79l41.91-40.36m-555.33,0,41.91,40.36m0,0H747.71M309,129.72h406M512,91.92l-144.36.85m288.72,0L512,91.92m-169.11,1H681.08M512,91.92l35.23.21,44.94.27q23.89.12,39.84.23l24.35.14m-288.72,0,24.35-.14q15.94-.1,39.84-.23l44.94-.27L512,91.92M148.39,493.5V618.74m-18-194.82,1,0a4.88,4.88,0,0,1,2.3,1.47,19.56,19.56,0,0,1,3.13,4,37.85,37.85,0,0,1,3,6.49q1.46,3.92,3.51,11.25a140.68,140.68,0,0,1,3.56,20.74,225.21,225.21,0,0,1,1.47,25.58m0,125.24a226.1,226.1,0,0,1-1.48,25.65,140.08,140.08,0,0,1-3.56,20.72q-2.06,7.3-3.5,11.22a37.36,37.36,0,0,1-3,6.48,19.43,19.43,0,0,1-3.12,4,4.83,4.83,0,0,1-2.29,1.48l-1,.05M875.68,493.5q0-7.32.65-17.73a164.45,164.45,0,0,1,2.93-21.69,110.08,110.08,0,0,1,5.24-18.86c2-5,3.78-8.2,5.33-9.51s2.83-1.91,3.8-1.79m0,264.41c-1,.11-2.23-.5-3.8-1.81s-3.33-4.47-5.32-9.47a109.25,109.25,0,0,1-5.24-18.8,165.74,165.74,0,0,1-2.93-21.71q-.68-10.42-.66-17.8m0-125.24V618.74M127.89,493.5V618.74m-18.83,46.4c2.12.13,4.23-.89,6.34-3.08s4.18-5.59,6.21-10.19a72.32,72.32,0,0,0,4.69-15.2,90.7,90.7,0,0,0,1.59-17.93m0-125.24a89.37,89.37,0,0,0-1.58-17.87,71.81,71.81,0,0,0-4.7-15.23q-3-6.93-6.21-10.22t-6.34-3.07m787.1,171.63a116.75,116.75,0,0,0,.69,11.87,74.08,74.08,0,0,0,3.07,14.48,55.16,55.16,0,0,0,5.5,12.53q3.14,5,5.59,6.31a8,8,0,0,0,4,1.21M896.16,493.5V618.74M915,447.11a7.81,7.81,0,0,0-4,1.2c-1.64.87-3.5,3-5.59,6.34a55.24,55.24,0,0,0-5.5,12.56,73.6,73.6,0,0,0-3.06,14.48,113,113,0,0,0-.69,11.81M84.86,665.14h24.2m21.35,23.19-10.68-11.6-10.67-11.59m21.35-241.22-21.35,23.19m-24.2,0h24.2m830.08,218H915m0,0-21.35,23.19m45.51-241.22H915m0,0L904.3,435.52q-5.34-5.81-10.67-11.6M225.57,688.33V665.14m0-218V423.92m0,241.22q0-54.51,0-109t0-109m0,241.22v51.3m0-317.58-.45.17-.44.21-.44.21-.42.23-.41.24-.42.26-.4.26-.39.29m3.37-61.55v59.68"/><path class="cls-2" d="M179.75,688.33h45.82M176.72,423.92h48.87M798.34,739.33l0-376.68m45.36,325.68H798.33m48.39-264.41h-48.4M367.59,7.11,656.31,92.77m0-85.66L367.59,92.77"/><rect class="cls-3" x="182.52" y="385.31" width="657.17" height="330.61"/><rect class="cls-2" x="182.52" y="385.31" width="657.17" height="330.61"/><polyline class="cls-4" points="214.13 416.3 808.1 416.3 808.1 684.94 214.13 684.94 214.13 416.3"/><path d="M369.19,487V430.65H408.8v6.63H376.42v17.27h30.35v6.64H376.42v19.17h33.63V487Zm50.9,0V430.65h24.25q7.31,0,11.12,1.52a12.26,12.26,0,0,1,6.08,5.36,16.35,16.35,0,0,1,2.28,8.5,14.42,14.42,0,0,1-3.77,10.11q-3.76,4.13-11.65,5.23a18.36,18.36,0,0,1,4.37,2.81,37.56,37.56,0,0,1,6,7.49L468.24,487h-9.05L452,475.28c-2.11-3.38-3.86-6-5.22-7.76a16.92,16.92,0,0,0-3.68-3.77,10.88,10.88,0,0,0-3.3-1.49,21.09,21.09,0,0,0-4-.27h-8.4v25Zm7.23-31.46h15.56a22.77,22.77,0,0,0,7.76-1.06,8.34,8.34,0,0,0,4.26-3.39,9.42,9.42,0,0,0,1.45-5.07,8.54,8.54,0,0,0-2.82-6.59c-1.87-1.72-4.84-2.58-8.89-2.58H427.32v18.68ZM469.09,487,490,430.65H498L520.29,487H512l-6.36-17.09h-23L476.74,487Zm15.72-23.17h18.61l-5.69-15.57q-2.62-7.1-3.94-11.77a79.87,79.87,0,0,1-3,10.87l-6,16.47Z"/><path d="M563,487V473.54H538.66v-6.33l25.62-36.5h5.63v36.5h7.58v6.33h-7.58V487Zm0-19.79V441.86l-17.57,25.35Zm21.58-8q0-10,2-16.08a20,20,0,0,1,6.09-9.38,15.55,15.55,0,0,1,10.15-3.29,16.59,16.59,0,0,1,7.94,1.83,14.89,14.89,0,0,1,5.62,5.26,28.39,28.39,0,0,1,3.47,8.36,55.88,55.88,0,0,1,1.26,13.3q0,9.9-2,16a20,20,0,0,1-6.07,9.41,15.57,15.57,0,0,1-10.19,3.3q-8.11,0-12.75-5.8-5.54-7.06-5.54-22.91Zm7.09,0q0,13.88,3.23,18.45t8,4.57q4.73,0,8-4.59t3.23-18.43q0-13.87-3.22-18.45t-8.05-4.56a8.82,8.82,0,0,0-7.58,4q-3.54,5.13-3.54,19Zm36.5,0q0-10,2.05-16.08a19.86,19.86,0,0,1,6.08-9.38,15.58,15.58,0,0,1,10.16-3.29,16.55,16.55,0,0,1,7.93,1.83,14.91,14.91,0,0,1,5.63,5.26,28.66,28.66,0,0,1,3.47,8.36,55.88,55.88,0,0,1,1.26,13.3q0,9.9-2,16a19.91,19.91,0,0,1-6.06,9.41,15.58,15.58,0,0,1-10.2,3.3q-8.12,0-12.74-5.8-5.55-7.06-5.55-22.91Zm7.1,0q0,13.88,3.23,18.45t8,4.57q4.74,0,8-4.59t3.22-18.43q0-13.87-3.22-18.45t-8-4.56a8.82,8.82,0,0,0-7.57,4q-3.54,5.13-3.54,19Z"/><path d="M221.12,576.54V520.19h20.64a48.26,48.26,0,0,1,8.32.54,16.22,16.22,0,0,1,6.75,2.63,13.79,13.79,0,0,1,4.39,5.44,18.79,18.79,0,0,1-2.78,19.85q-4.45,5-16.06,5h-14v22.93h-7.23ZM228.35,547H242.5c4.67,0,8-.9,10-2.69a9.75,9.75,0,0,0,2.95-7.58,10.4,10.4,0,0,0-1.74-6.06,8.11,8.11,0,0,0-4.57-3.33,30.22,30.22,0,0,0-6.75-.5h-14V547Zm43.79,29.55V520.19h39.6v6.64H279.36V544.1h30.35v6.63H279.36v19.18H313v6.63H272.14Zm50.89,0V520.19h24.25q7.32,0,11.12,1.52a12.19,12.19,0,0,1,6.08,5.37,16.32,16.32,0,0,1,2.28,8.49A14.46,14.46,0,0,1,363,545.69q-3.76,4.11-11.64,5.23a18.49,18.49,0,0,1,4.36,2.8,38.14,38.14,0,0,1,6,7.49l9.47,15.33h-9.05l-7.24-11.72q-3.17-5.07-5.22-7.76A16.83,16.83,0,0,0,346,553.3a10.57,10.57,0,0,0-3.3-1.5,21.09,21.09,0,0,0-4-.27h-8.4v25Zm7.23-31.46h15.56a22.63,22.63,0,0,0,7.77-1.06,8.3,8.3,0,0,0,4.25-3.39,9.36,9.36,0,0,0,1.45-5.06,8.52,8.52,0,0,0-2.81-6.59q-2.82-2.58-8.9-2.58H330.26v18.68Zm48.1,31.46V520.19h36.92v6.64H385.59v17.45h25.69v6.64H385.59v25.62Zm44.05-27.45q0-14,7.32-22t18.89-7.93a25.59,25.59,0,0,1,13.66,3.73,24,24,0,0,1,9.27,10.38,34.52,34.52,0,0,1,3.19,15.11,34,34,0,0,1-3.36,15.33A23.37,23.37,0,0,1,461.87,574a26.58,26.58,0,0,1-13.29,3.47,25.39,25.39,0,0,1-13.81-3.83,24.52,24.52,0,0,1-9.22-10.49,32.52,32.52,0,0,1-3.14-14Zm7.47.09q0,10.19,5.32,16a18.2,18.2,0,0,0,26.79-.06q5.28-5.92,5.28-16.79a29.67,29.67,0,0,0-2.25-12,17.73,17.73,0,0,0-6.61-8,17.55,17.55,0,0,0-9.76-2.82A18.23,18.23,0,0,0,435.42,531q-5.55,5.44-5.54,18.15Zm54.23,27.36V520.19h24.25q7.32,0,11.12,1.52a12.25,12.25,0,0,1,6.09,5.37,16.31,16.31,0,0,1,2.27,8.49,14.41,14.41,0,0,1-3.77,10.12q-3.77,4.11-11.64,5.23a18.58,18.58,0,0,1,4.37,2.8,38.48,38.48,0,0,1,6,7.49l9.48,15.33h-9L516,564.82q-3.18-5.07-5.23-7.76a16.62,16.62,0,0,0-3.68-3.76,10.57,10.57,0,0,0-3.3-1.5,21,21,0,0,0-4-.27h-8.4v25h-7.23Zm7.23-31.46h15.57a22.56,22.56,0,0,0,7.76-1.06,8.3,8.3,0,0,0,4.25-3.39,9.37,9.37,0,0,0,1.46-5.06,8.53,8.53,0,0,0-2.82-6.59c-1.88-1.72-4.84-2.58-8.9-2.58H491.35v18.68Zm47.51,31.46V520.19h10.88l13,39.87c1.2,3.71,2.08,6.49,2.62,8.33.63-2,1.61-5,2.94-9l13.21-39.18h9.69v56.35h-7V529.35l-16,47.19h-6.53l-15.84-48v48Zm57.84,0,20.92-56.35h7.94l22.34,56.35h-8.25l-6.37-17.08h-23l-6,17.08Zm15.72-23.16H631l-5.68-15.57q-2.64-7.09-3.94-11.78a82.87,82.87,0,0,1-3,10.87l-6,16.48Zm41.09,23.16V520.19h7.41l28.73,44.24V520.19h6.93v56.35h-7.42l-28.72-44.23v44.23Zm94.16-19.79,7.23,1.88q-2.28,9.18-8.19,14a22.07,22.07,0,0,1-14.45,4.82q-8.84,0-14.37-3.7A23.14,23.14,0,0,1,709.45,563a39.31,39.31,0,0,1-2.89-15.1,34.14,34.14,0,0,1,3.26-15.36,22.78,22.78,0,0,1,9.28-9.95,26.43,26.43,0,0,1,13.25-3.4,21.91,21.91,0,0,1,13.79,4.31,22.33,22.33,0,0,1,7.79,12.11l-7.11,1.72q-1.89-6.14-5.51-8.94a14.4,14.4,0,0,0-9.1-2.81,17.34,17.34,0,0,0-10.53,3.11,16.4,16.4,0,0,0-5.94,8.36A34.63,34.63,0,0,0,714,547.88a35.16,35.16,0,0,0,2,12.54,15.5,15.5,0,0,0,6.32,8,17.39,17.39,0,0,0,9.28,2.65A15.27,15.27,0,0,0,742,567.47q4.21-3.62,5.71-10.72Zm16.2,19.79V520.19h39.61v6.64H771.09V544.1h30.35v6.63H771.09v19.18h33.64v6.63Z"/><path d="M435.85,666.09l-14.46-56.35h7.47l8.26,37q1.33,5.8,2.34,11.52,2.09-9,2.46-10.4l10.44-38.07h8.74l7.81,28.54a159.42,159.42,0,0,1,4.3,19.93c.7-3.55,1.62-7.62,2.73-12.23l8.6-36.24h7.28l-15,56.35h-7l-11.48-42.93c-1-3.58-1.58-5.78-1.77-6.62q-.85,3.93-1.64,6.65l-11.55,42.9Zm62.69,0V609.74h24.25q7.32,0,11.12,1.52a12.22,12.22,0,0,1,6.08,5.36,16.38,16.38,0,0,1,2.28,8.5,14.42,14.42,0,0,1-3.77,10.11q-3.76,4.13-11.64,5.23a18.78,18.78,0,0,1,4.37,2.81,37.89,37.89,0,0,1,6,7.49l9.47,15.33h-9.05l-7.24-11.72q-3.17-5.07-5.22-7.76a16.61,16.61,0,0,0-3.68-3.76,10.57,10.57,0,0,0-3.3-1.5,21.09,21.09,0,0,0-4-.27h-8.4v25Zm7.23-31.46h15.56a22.88,22.88,0,0,0,7.77-1.06,8.35,8.35,0,0,0,4.25-3.39,9.39,9.39,0,0,0,1.45-5.07,8.51,8.51,0,0,0-2.81-6.58q-2.82-2.6-8.9-2.59H505.77v18.68Zm47.53,31.46V609.74h10.88l13,39.86c1.2,3.72,2.08,6.5,2.62,8.34q.94-3.08,2.94-9l13.21-39.17h9.69v56.35h-7V618.9l-16,47.19h-6.53l-15.84-48v48Z"/></g></svg>