<?xml version="1.0" encoding="utf-8"?>
<!-- Generator: Adobe Illustrator 25.3.0, SVG Export Plug-In . SVG Version: 6.00 Build 0)  -->
<svg version="1.1" id="MAC_Encore_Wash-_Thumbnail" xmlns="http://www.w3.org/2000/svg" xmlns:xlink="http://www.w3.org/1999/xlink"
	 x="0px" y="0px" viewBox="0 0 1024 1024" style="enable-background:new 0 0 1024 1024;" xml:space="preserve">
<style type="text/css">
	.st0{fill-rule:evenodd;clip-rule:evenodd;fill:#CCCCCC;stroke:#1D1D1B;stroke-miterlimit:10;}
	.st1{fill:none;stroke:#1D1D1B;stroke-linecap:round;stroke-linejoin:round;stroke-miterlimit:10;}
	.st2{fill-rule:evenodd;clip-rule:evenodd;fill:#FFFFFF;stroke:#1D1D1B;stroke-miterlimit:10;}
	.st3{stroke:#1D1D1B;stroke-miterlimit:10;}
</style>
<g>
	<path class="st0" d="M906.7,735l-24.5,68.8l-41.7,53.9l-19.6,27l-42.7,32.5l-48,23.9l-13.7,23.3l-25.6,8.6l-105.4,14.7l-73.5,4.9
		l-73.5-4.9l-105.4-14.7l-25.6-8.6L293.8,941l-48-23.9l-42.7-32.5l-19.6-27l-41.7-53.9L117.3,735l-17.1-71V350.2l17.1-71l24.5-68.8
		l41.7-53.9l19.6-27l42.7-32.5l48-23.9L307.5,50l25.6-8.6l105.4-14.7l73.5-4.9l73.5,4.9l105.4,14.7l25.6,8.6l13.7,23.3l48,23.9
		l42.7,32.5l19.6,27l41.7,53.9l24.5,68.8l17.1,71V664L906.7,735 M136.7,360.8l-9.8,146.3l9.8,146.3l59,138.1l-23.3-284.4l23.3-284.4
		L136.7,360.8 M887.3,653.4l9.8-146.3l-9.8-146.3l-59-138.1l23.3,284.4l-23.3,284.4L887.3,653.4"/>
	<path class="st1" d="M906.7,735l-24.5,68.8l-41.7,53.9l-19.6,27l-42.7,32.5l-48,23.9l-13.7,23.3l-25.6,8.6l-105.4,14.7l-73.5,4.9
		l-73.5-4.9l-105.4-14.7l-25.6-8.6L293.8,941l-48-23.9l-42.7-32.5l-19.6-27l-41.7-53.9L117.3,735l-17.1-71V350.2l17.1-71l24.5-68.8
		l41.7-53.9l19.6-27l42.7-32.5l48-23.9L307.5,50l25.6-8.6l105.4-14.7l73.5-4.9l73.5,4.9l105.4,14.7l25.6,8.6l13.7,23.3l48,23.9
		l42.7,32.5l19.6,27l41.7,53.9l24.5,68.8l17.1,71V664L906.7,735 M136.7,360.8l-9.8,146.3l9.8,146.3l59,138.1l-23.3-284.4l23.3-284.4
		L136.7,360.8 M887.3,653.4l9.8-146.3l-9.8-146.3l-59-138.1l23.3,284.4l-23.3,284.4L887.3,653.4"/>
	<polyline class="st0" points="7.1,433.9 34,375.1 165.5,370.2 858.5,370.2 990,375.1 1016.9,433.9 1016.9,625.1 990,683.9 
		858.5,688.7 165.5,688.7 34,683.9 7.1,625.1 7.1,433.9 	"/>
	<path class="st1" d="M7.1,433.9l27-58.8l131.5-4.9h693l131.5,4.9l27,58.8v191.2l-27,58.8l-131.5,4.8h-693L34,683.9l-27-58.8V433.9
		L7.1,433.9z M165.5,370.2v318.5 M858.5,370.2v318.5"/>
	<path class="st0" d="M34,375.1L34,375.1c20.1,20.4,36.1,44.5,47,71c10.9,26.5,16.5,54.8,16.5,83.5c0,28.6-5.6,57-16.5,83.5
		c-10.9,26.5-26.8,50.6-47,71"/>
	<path class="st1" d="M34,375.1L34,375.1c20.1,20.4,36.1,44.5,47,71c10.9,26.5,16.5,54.8,16.5,83.5c0,28.6-5.6,57-16.5,83.5
		c-10.9,26.5-26.8,50.6-47,71"/>
	<path class="st0" d="M990,375.1L990,375.1c-20.1,20.4-36.1,44.5-47,71c-10.9,26.5-16.5,54.8-16.5,83.5c0,28.6,5.6,57,16.5,83.5
		c10.9,26.5,26.8,50.6,47,71"/>
	<path class="st1" d="M990,375.1L990,375.1c-20.1,20.4-36.1,44.5-47,71c-10.9,26.5-16.5,54.8-16.5,83.5c0,28.6,5.6,57,16.5,83.5
		c10.9,26.5,26.8,50.6,47,71"/>
	<path class="st0" d="M512,35.1h190l15.7,58.4h75l2.3,10.2c18.9,85.5,34.9,171.6,48,258.2l9.8,2.7v328.2l-12.3,2.5l-7.4,88.2
		l-53.9,106.6l-44.1,25.7c-9,1.9-17.8,5.1-25.9,9.5c-8.1,4.4-15.6,9.9-22.2,16.4c-6.6,6.5-12.2,13.9-16.7,21.9
		c-4.5,8.1-7.8,16.7-9.9,25.8c-12.2,2.6-24.4,4.8-36.7,6.6c-12.3,1.8-24.7,3.2-37.1,4.3c-12.4,1-24.8,1.7-37.2,1.9
		c-12.4,0.2-24.9,0.1-37.3-0.5c-12.4,0.6-24.9,0.7-37.3,0.5c-12.4-0.2-24.9-0.9-37.2-1.9c-12.4-1-24.8-2.4-37.1-4.3
		c-12.3-1.8-24.5-4-36.7-6.6c-2.1-9-5.4-17.7-9.9-25.8c-4.5-8.1-10.1-15.5-16.7-21.9c-6.6-6.5-14.1-12-22.2-16.4
		c-8.1-4.4-16.9-7.6-25.9-9.5l-44.1-25.7l-53.9-106.6l-7.4-88.2l-12.3-2.5V364.6l9.8-2.7c13.1-86.6,29.1-172.7,48-258.2l2.3-10.2h75
		L322,35.1H512"/>
	<path class="st1" d="M512,35.1h190l15.7,58.4h75l2.3,10.2c18.9,85.5,34.9,171.6,48,258.2l9.8,2.7v328.2l-12.3,2.5l-7.4,88.2
		l-53.9,106.6l-44.1,25.7c-9,1.9-17.8,5.1-25.9,9.5c-8.1,4.4-15.6,9.9-22.2,16.4c-6.6,6.5-12.2,13.9-16.7,21.9
		c-4.5,8.1-7.8,16.7-9.9,25.8c-12.2,2.6-24.4,4.8-36.7,6.6c-12.3,1.8-24.7,3.2-37.1,4.3c-12.4,1-24.8,1.7-37.2,1.9
		c-12.4,0.2-24.9,0.1-37.3-0.5c-12.4,0.6-24.9,0.7-37.3,0.5c-12.4-0.2-24.9-0.9-37.2-1.9c-12.4-1-24.8-2.4-37.1-4.3
		c-12.3-1.8-24.5-4-36.7-6.6c-2.1-9-5.4-17.7-9.9-25.8c-4.5-8.1-10.1-15.5-16.7-21.9c-6.6-6.5-14.1-12-22.2-16.4
		c-8.1-4.4-16.9-7.6-25.9-9.5l-44.1-25.7l-53.9-106.6l-7.4-88.2l-12.3-2.5V364.6l9.8-2.7c13.1-86.6,29.1-172.7,48-258.2l2.3-10.2h75
		L322,35.1H512"/>
	<path class="st0" d="M181.1,361.9L181.1,361.9c9,18.2,16.2,37.2,21.5,56.8c5.3,19.6,8.5,39.7,9.8,60c1.3,20.3,0.5,40.6-2.3,60.7
		c-2.8,20.1-7.6,39.9-14.3,59l-14.7,94.4h-9.8"/>
	<path class="st1" d="M181.1,361.9L181.1,361.9c9,18.2,16.2,37.2,21.5,56.8c5.3,19.6,8.5,39.7,9.8,60c1.3,20.3,0.5,40.6-2.3,60.7
		c-2.8,20.1-7.6,39.9-14.3,59l-14.7,94.4h-9.8"/>
	<line class="st0" x1="231.3" y1="93.5" x2="792.7" y2="93.5"/>
	<line class="st1" x1="231.3" y1="93.5" x2="792.7" y2="93.5"/>
	<path class="st0" d="M363.7,989.4l11.4-42.7c-2.2-7.6-4.8-15-7.9-22.3c-3.1-7.3-6.6-14.3-10.6-21.1c-4-6.8-8.3-13.4-13.1-19.7
		c-4.8-6.3-9.9-12.3-15.4-17.9l-40.4-8.6l-1.2-89.5c-5.9-56.3-9.3-112.9-10.3-169.5s0.7-113.2,4.8-169.7s10.7-112.7,19.7-168.6
		c9.1-55.9,20.6-111.4,34.6-166.2"/>
	<path class="st1" d="M363.7,989.4l11.4-42.7c-2.2-7.6-4.8-15-7.9-22.3c-3.1-7.3-6.6-14.3-10.6-21.1c-4-6.8-8.3-13.4-13.1-19.7
		c-4.8-6.3-9.9-12.3-15.4-17.9l-40.4-8.6l-1.2-89.5c-5.9-56.3-9.3-112.9-10.3-169.5s0.7-113.2,4.8-169.7s10.7-112.7,19.7-168.6
		c9.1-55.9,20.6-111.4,34.6-166.2"/>
	<path class="st0" d="M842.9,361.9L842.9,361.9c-9,18.2-16.2,37.2-21.5,56.8c-5.3,19.6-8.5,39.7-9.8,60c-1.3,20.3-0.5,40.6,2.3,60.7
		c2.8,20.1,7.6,39.9,14.3,59l14.7,94.4h9.8"/>
	<path class="st1" d="M842.9,361.9L842.9,361.9c-9,18.2-16.2,37.2-21.5,56.8c-5.3,19.6-8.5,39.7-9.8,60c-1.3,20.3-0.5,40.6,2.3,60.7
		c2.8,20.1,7.6,39.9,14.3,59l14.7,94.4h9.8"/>
	<path class="st0" d="M660.3,989.4l-11.4-42.7c2.2-7.6,4.8-15,7.9-22.3c3.1-7.3,6.6-14.3,10.6-21.1c4-6.8,8.3-13.4,13.1-19.7
		c4.8-6.3,9.9-12.3,15.4-17.9l40.4-8.6l1.2-89.5c5.9-56.3,9.3-112.9,10.3-169.5s-0.7-113.2-4.8-169.7
		c-4.1-56.5-10.7-112.7-19.7-168.6c-9.1-55.9-20.6-111.4-34.6-166.2"/>
	<path class="st1" d="M660.3,989.4l-11.4-42.7c2.2-7.6,4.8-15,7.9-22.3c3.1-7.3,6.6-14.3,10.6-21.1c4-6.8,8.3-13.4,13.1-19.7
		c4.8-6.3,9.9-12.3,15.4-17.9l40.4-8.6l1.2-89.5c5.9-56.3,9.3-112.9,10.3-169.5s-0.7-113.2-4.8-169.7
		c-4.1-56.5-10.7-112.7-19.7-168.6c-9.1-55.9-20.6-111.4-34.6-166.2"/>
	<polyline class="st0" points="244.8,890.1 287.7,857 736.3,857 779.2,890.1 	"/>
	<polyline class="st1" points="244.8,890.1 287.7,857 736.3,857 779.2,890.1 	"/>
	<polyline class="st0" points="190.9,783.5 286.5,767.5 737.5,767.5 833.1,783.5 	"/>
	<polyline class="st1" points="190.9,783.5 286.5,767.5 737.5,767.5 833.1,783.5 	"/>
	<rect x="246" y="379.9" class="st2" width="531.9" height="254.5"/>
	<rect x="246" y="379.9" class="st1" width="531.9" height="254.5"/>
	<path class="st3" d="M306.7,487.2v-50.6l17.2,50.6h7.1l17.3-49.7v49.7h7.6v-59.4h-10.6L331,469.1c-1.4,4.2-2.5,7.4-3.2,9.5
		c-0.6-1.9-1.5-4.9-2.8-8.8L311,427.8h-11.8v59.4H306.7L306.7,487.2z M370.3,487.2l6.5-18h24.8l6.9,18h9l-24.3-59.4h-8.5L362,487.2
		H370.3L370.3,487.2z M385.7,445.4c1.4-3.8,2.4-7.5,3.2-11.3c0.9,3.2,2.3,7.3,4.2,12.3l6.2,16.5h-20.1L385.7,445.4L385.7,445.4z
		 M460.1,477.7c-3.1,2.5-6.8,3.8-11.2,3.8c-3.6,0-7-0.9-10.1-2.8c-3.1-1.9-5.4-4.7-6.9-8.5c-1.5-3.8-2.2-8.2-2.2-13.2
		c0-3.9,0.6-7.7,1.9-11.4c1.2-3.7,3.4-6.6,6.5-8.8c3.1-2.2,6.9-3.3,11.5-3.3c4,0,7.3,1,9.9,3c2.6,2,4.6,5.1,6,9.4l7.7-1.8
		c-1.6-5.5-4.4-9.7-8.5-12.8c-4.1-3-9.1-4.5-15-4.5c-5.2,0-10,1.2-14.4,3.6c-4.4,2.4-7.7,5.9-10.1,10.5c-2.4,4.6-3.5,10-3.5,16.2
		c0,5.7,1,11,3.1,15.9c2.1,4.9,5.1,8.7,9.2,11.3c4,2.6,9.2,3.9,15.6,3.9c6.2,0,11.4-1.7,15.7-5.1c4.3-3.4,7.2-8.3,8.9-14.8l-7.9-2
		C465.2,471.4,463.1,475.1,460.1,477.7L460.1,477.7z M477.4,487.2L477.4,487.2L477.4,487.2z M508.7,487.2l6.5-18h24.8l6.9,18h9
		l-24.3-59.4h-8.5l-22.8,59.4H508.7L508.7,487.2z M524,445.4c1.4-3.8,2.4-7.5,3.2-11.3c0.9,3.2,2.3,7.3,4.2,12.3l6.2,16.5h-20.1
		L524,445.4L524,445.4z M565.3,487.2l11.3-17l2.4,3.6l8.8,13.4h9l-16-22.8l14.9-20.3h-8.7l-7.3,10.2c-1,1.4-2.1,3-3.3,4.7
		c-0.8-1.3-1.8-2.9-3-4.8l-6.6-10.1h-9.1l14.6,20.7l-15.7,22.4H565.3L565.3,487.2z M610.2,436.2v-8.4h-7.3v8.4H610.2L610.2,436.2z
		 M610.2,487.2v-43h-7.3v43H610.2L610.2,487.2z M624.1,482.4c3.7,3.9,8.6,5.8,14.6,5.8c3.8,0,7.2-0.9,10.4-2.6
		c3.2-1.8,5.6-4.2,7.3-7.4c1.7-3.2,2.5-7.5,2.5-13.1c0-6.8-1.9-12.2-5.6-16.1c-3.8-3.9-8.6-5.8-14.5-5.8c-5.3,0-9.8,1.6-13.5,4.8
		c-4.4,3.8-6.6,9.7-6.6,17.7C618.6,472.9,620.4,478.5,624.1,482.4L624.1,482.4z M629.7,453.3c2.4-2.7,5.4-4.1,9.1-4.1
		c3.6,0,6.6,1.4,9,4.1c2.4,2.7,3.6,6.8,3.6,12.1c0,5.6-1.2,9.8-3.6,12.6c-2.4,2.8-5.4,4.1-9,4.1c-3.6,0-6.7-1.4-9.1-4.1
		c-2.4-2.7-3.6-6.9-3.6-12.4C626.1,460.2,627.3,456,629.7,453.3L629.7,453.3z M674.7,487.2v-22.3c0-3.9,0.4-6.9,1.2-9
		c0.8-2.1,2-3.7,3.8-4.7c1.7-1.1,3.6-1.6,5.7-1.6c2.7,0,4.6,0.8,5.8,2.4c1.2,1.6,1.8,4.1,1.8,7.3v28h7.3v-25c0-4.4,1-7.7,3-9.7
		c2-2,4.5-3,7.5-3c1.7,0,3.1,0.4,4.4,1.2c1.2,0.8,2.1,1.8,2.6,3.1c0.5,1.3,0.7,3.4,0.7,6.3v27.1h7.3v-29.5c0-4.9-1.1-8.6-3.4-10.9
		c-2.3-2.4-5.6-3.5-9.8-3.5c-5.5,0-9.9,2.5-13.3,7.5c-0.8-2.4-2.3-4.2-4.3-5.6c-2-1.3-4.7-2-7.8-2c-2.9,0-5.4,0.6-7.7,1.9
		c-2.2,1.3-4,3-5.4,5.1v-6h-6.5v43H674.7L674.7,487.2z M731.1,487.2L731.1,487.2L731.1,487.2z"/>
	<path class="st3" d="M406.7,582.7v-28h30.9v28h7.9v-59.4h-7.9v24.4h-30.9v-24.4h-7.9v59.4H406.7L406.7,582.7z M461.9,600.1
		c2.3,0,4.3-0.6,6-1.7c1.7-1.1,3.2-2.9,4.5-5.3c1-1.8,2.3-5,4.1-9.8l16.4-43.8h-7.3l-9.2,25.1c-1.2,3.2-2.2,6.5-3,9.8
		c-0.9-3.5-2-6.8-3.1-10l-9-24.9h-7.9l16.3,43.1c-0.3,0.8-0.5,1.4-0.6,1.8c-1,2.9-1.8,4.7-2.2,5.4c-0.6,1-1.4,1.7-2.4,2.3
		c-1,0.5-2.3,0.8-3.9,0.8c-1.2,0-2.6-0.2-4.2-0.6l0.8,6.9C459,599.8,460.5,600.1,461.9,600.1L461.9,600.1L461.9,600.1z M505.8,577.3
		c2.9,4.2,6.9,6.4,12,6.4c5.1,0,9.5-2,13.1-6c3.6-4,5.5-9.7,5.5-17.1c0-3.1-0.4-6-1.3-8.8c-0.9-2.7-2.1-5.1-3.6-7
		c-1.5-1.9-3.5-3.4-5.8-4.5c-2.4-1.1-4.9-1.6-7.5-1.6c-4.8,0-8.7,1.9-11.8,5.8v-21.2H499v59.4h6.8V577.3L505.8,577.3z M509.2,548.8
		c2.3-2.8,5.1-4.2,8.3-4.2c3.2,0,5.9,1.3,8.1,4c2.2,2.7,3.3,6.8,3.3,12.4c0,5.5-1.2,9.6-3.5,12.4c-2.3,2.8-5.1,4.2-8.3,4.2
		c-3.9,0-7-1.9-9.3-5.6c-1.4-2.3-2.1-6-2.1-11.2C505.7,555.6,506.9,551.6,509.2,548.8L509.2,548.8z M552.5,582.7v-22.5
		c0-3.1,0.4-5.9,1.2-8.5c0.5-1.7,1.4-3,2.7-4c1.3-1,2.7-1.4,4.3-1.4c1.8,0,3.6,0.5,5.4,1.6l2.5-6.8c-2.5-1.6-5-2.4-7.5-2.4
		c-1.7,0-3.3,0.5-4.7,1.5c-1.4,1-3,3-4.6,6v-6.5h-6.6v43H552.5L552.5,582.7z M580.2,531.6v-8.4h-7.3v8.4H580.2L580.2,531.6z
		 M580.2,582.7v-43h-7.3v43H580.2L580.2,582.7z M626,582.7v-59.4h-7.3v21.3c-1.3-1.8-2.9-3.2-4.9-4.3s-4.3-1.6-6.9-1.6
		c-3.5,0-6.7,0.9-9.6,2.8c-2.9,1.9-5,4.5-6.4,8c-1.4,3.5-2.1,7.4-2.1,11.7c0,4.4,0.8,8.3,2.4,11.7c1.6,3.4,3.8,6,6.7,7.9
		c2.9,1.9,6,2.8,9.5,2.8c5.3,0,9.3-2.1,12-6.4v5.4H626L626,582.7z M599.5,548.7c2.2-2.6,4.9-4,8.1-4c3.3,0,6.1,1.4,8.4,4.1
		c2.3,2.8,3.4,7.1,3.4,13c0,5.4-1.1,9.3-3.3,11.9c-2.2,2.6-4.9,3.9-8.1,3.9c-3.2,0-5.9-1.4-8.2-4.1c-2.3-2.7-3.5-6.9-3.5-12.4
		C596.2,555.5,597.3,551.3,599.5,548.7L599.5,548.7z"/>
</g>
</svg>
