<?xml version="1.0" encoding="UTF-8"?>
<svg id="VDO_Sceptron_XB_1000mm_No_Diffuser" xmlns="http://www.w3.org/2000/svg" version="1.1" viewBox="0 0 1024 1024">
  <!-- Generator: Adobe Illustrator 29.1.0, SVG Export Plug-In . SVG Version: 2.1.0 Build 142)  -->
  <defs>
    <style>
      .st0 {
        fill: none;
        stroke: #000;
        stroke-miterlimit: 10;
      }

      .st1 {
        fill: #39ff46;
      }

      .st2 {
        fill: #fff;
      }

      .st3 {
        fill: #bbb;
      }
    </style>
  </defs>
  <rect class="st3" x="11.7" y="496.5" width="1000.2" height="27"/>
  <rect class="st0" x="11.7" y="496.5" width="1000.2" height="27"/>
  <polyline class="st2" points="643.3 500.3 643.3 519.8 380.4 519.8 380.4 500.3 643.3 500.3"/>
  <path d="M387,515.5l4.7-12.1h-1.6l-3.3,8.8c-.3.7-.5,1.3-.6,2-.2-.6-.4-1.3-.6-2l-3.2-8.8h-1.7l4.7,12.1h1.7ZM397.6,515.5c.7,0,1.4,0,2-.2.6-.1,1.1-.3,1.5-.6s.8-.6,1.1-1.1c.3-.5.6-1.1.8-1.8s.3-1.5.3-2.5-.2-2-.5-2.9-.8-1.5-1.4-2.1c-.5-.4-1.1-.7-1.8-.9-.5-.1-1.2-.2-2.2-.2h-4.2v12.1h4.4ZM394.8,504.8h2.5c.9,0,1.6,0,2.1.3.6.2,1.1.7,1.5,1.4.4.7.6,1.7.6,2.9s-.1,1.7-.3,2.3c-.2.6-.5,1.2-.9,1.5-.3.3-.6.5-1.1.6-.5.2-1.1.2-1.9.2h-2.6v-9.3ZM405.6,512.6c.5.9,1.2,1.7,2.1,2.3.9.6,1.9.8,3.1.8s2-.3,2.9-.7c.9-.5,1.6-1.2,2.1-2.2s.7-2.1.7-3.3-.2-2.3-.7-3.3c-.5-.9-1.2-1.7-2.1-2.2-.9-.5-1.9-.8-3-.8-1.7,0-3.1.6-4.2,1.7s-1.6,2.7-1.6,4.7.2,2.1.7,3h0ZM407.8,505.7c.8-.8,1.8-1.2,2.9-1.2s1.5.2,2.2.6,1.1,1,1.5,1.7c.3.7.5,1.6.5,2.6,0,1.6-.4,2.8-1.2,3.6s-1.8,1.3-3,1.3-2.2-.4-3-1.3c-.8-.8-1.2-2-1.2-3.5s.4-3.1,1.2-3.9h0ZM423.5,513.8c.4.6,1,1.1,1.7,1.4s1.7.5,2.8.5,1.6-.2,2.3-.5c.7-.3,1.2-.8,1.6-1.3.4-.6.6-1.2.6-1.8s-.2-1.2-.5-1.7c-.3-.5-.8-.9-1.6-1.2-.5-.2-1.4-.5-2.7-.8s-2.1-.6-2.4-.9c-.3-.3-.5-.6-.5-1.1s.2-.9.7-1.3c.5-.4,1.2-.5,2.1-.5s1.6.2,2.1.6c.5.4.8,1,.8,1.7h1.5c0-.8-.2-1.5-.6-2s-.9-1-1.6-1.3c-.7-.3-1.5-.4-2.4-.4s-1.6.1-2.2.4c-.7.3-1.2.7-1.5,1.2-.4.5-.5,1.1-.5,1.7s.1,1.1.4,1.5c.3.4.7.8,1.3,1.1.5.2,1.2.5,2.4.7,1.1.3,1.8.5,2.2.6.5.2.9.4,1.1.7.2.3.3.6.3,1s-.1.7-.3,1c-.2.3-.6.6-1.1.8s-1,.3-1.6.3-1.3-.1-1.8-.4c-.6-.3-1-.6-1.2-.9-.3-.4-.4-.9-.5-1.5h-1.5c0,.9.2,1.7.7,2.3h0ZM442,513.6c-.6.5-1.4.8-2.3.8s-1.4-.2-2.1-.6c-.6-.4-1.1-.9-1.4-1.7-.3-.8-.5-1.7-.5-2.7s.1-1.6.4-2.3c.3-.8.7-1.4,1.3-1.8.6-.5,1.4-.7,2.3-.7s1.5.2,2,.6c.5.4.9,1,1.2,1.9l1.6-.4c-.3-1.1-.9-2-1.7-2.6-.8-.6-1.8-.9-3.1-.9s-2.1.2-3,.7c-.9.5-1.6,1.2-2.1,2.2-.5.9-.7,2-.7,3.3s.2,2.2.6,3.2c.4,1,1.1,1.8,1.9,2.3.8.5,1.9.8,3.2.8s2.3-.3,3.2-1c.9-.7,1.5-1.7,1.8-3l-1.6-.4c-.2,1-.6,1.8-1.3,2.3h0ZM455.9,515.5v-1.4h-7.4v-4.1h6.7v-1.4h-6.7v-3.7h7.2v-1.4h-8.8v12.1h9.1ZM459.8,515.5v-5h3.1c1.7,0,2.9-.4,3.6-1.1s1-1.6,1-2.6-.1-1.2-.4-1.7c-.2-.5-.6-.9-1-1.2-.4-.3-.9-.5-1.5-.6-.4,0-1-.1-1.8-.1h-4.6v12.1h1.6ZM459.8,504.8h3.1c.7,0,1.2,0,1.5.1.4.1.8.4,1,.7.3.4.4.8.4,1.3s-.2,1.2-.7,1.6c-.4.4-1.2.6-2.2.6h-3.1v-4.3ZM474.1,515.5v-10.7h4v-1.4h-9.6v1.4h4v10.7h1.6ZM481.4,515.5v-5.4h1.9c.4,0,.7,0,.9,0,.3,0,.5.2.7.3.2.2.5.4.8.8.3.4.7.9,1.2,1.7l1.6,2.5h2l-2.1-3.3c-.4-.6-.9-1.2-1.3-1.6-.2-.2-.5-.4-1-.6,1.2-.2,2-.5,2.6-1.1.6-.6.8-1.3.8-2.2s-.2-1.3-.5-1.8c-.3-.5-.8-.9-1.3-1.2s-1.4-.3-2.5-.3h-5.4v12.1h1.6ZM481.4,504.7h3.8c.9,0,1.6.2,2,.6.4.4.6.8.6,1.4s-.1.8-.3,1.1c-.2.3-.5.6-.9.7-.4.2-1,.2-1.7.2h-3.4v-4ZM492.2,512.6c.5.9,1.2,1.7,2.1,2.3.9.6,1.9.8,3.1.8s2-.3,2.9-.7c.9-.5,1.6-1.2,2.1-2.2s.7-2.1.7-3.3-.2-2.3-.7-3.3c-.5-.9-1.2-1.7-2.1-2.2-.9-.5-1.9-.8-3-.8-1.7,0-3.1.6-4.2,1.7s-1.6,2.7-1.6,4.7.2,2.1.7,3h0ZM494.4,505.7c.8-.8,1.8-1.2,2.9-1.2s1.5.2,2.2.6,1.1,1,1.5,1.7c.3.7.5,1.6.5,2.6,0,1.6-.4,2.8-1.2,3.6s-1.8,1.3-3,1.3-2.2-.4-3-1.3c-.8-.8-1.2-2-1.2-3.5s.4-3.1,1.2-3.9h0ZM506.7,515.5v-9.5l6.4,9.5h1.6v-12.1h-1.5v9.5l-6.4-9.5h-1.6v12.1h1.5ZM522.8,515.5l3.1-4.2c.1-.2.3-.5.6-.9.2.3.3.5.5.7l3.1,4.3h2l-4.5-6.4,4.2-5.8h-1.7l-2.4,3.2c-.4.5-.7.9-.9,1.4-.2-.3-.5-.8-1-1.5l-2.2-3.1h-1.9l4.1,5.8-4.7,6.3h1.9ZM538,515.5c.8,0,1.4,0,2-.2.5-.1,1-.3,1.3-.6.4-.3.7-.6.9-1.1s.4-1,.4-1.6-.2-1.3-.6-1.8-1-.9-1.7-1.1c.6-.3,1-.6,1.3-1.1.3-.5.4-.9.4-1.5s-.2-1.1-.5-1.6-.8-.9-1.3-1.1c-.6-.3-1.3-.4-2.2-.4h-4.6v12.1h4.6ZM535,504.8h2.4c.9,0,1.5,0,1.8.2s.6.3.8.6.3.7.3,1.1-.1.8-.3,1.1c-.2.3-.5.5-.9.6-.3,0-.8.1-1.5.1h-2.6v-3.7ZM535,509.9h2.8c.8,0,1.4,0,1.8.2.4.1.7.4,1,.7.2.3.4.7.4,1.2s0,.7-.2,1c-.2.3-.4.5-.6.7-.3.2-.6.3-.9.3-.2,0-.6,0-1.1,0h-3v-4.2ZM553.3,511.9v-1.5h-4.6v1.5h4.6ZM561.3,515.5v-9.5l6.4,9.5h1.6v-12.1h-1.5v9.5l-6.4-9.5h-1.6v12.1h1.5ZM572.4,514.5c.8.8,1.8,1.2,3,1.2s1.5-.2,2.1-.5c.6-.4,1.1-.8,1.5-1.5.3-.6.5-1.5.5-2.7s-.4-2.5-1.2-3.3-1.7-1.2-3-1.2-2,.3-2.8,1c-.9.8-1.4,2-1.4,3.6s.4,2.6,1.1,3.4h0ZM573.5,508.6c.5-.6,1.1-.8,1.8-.8s1.4.3,1.8.8.7,1.4.7,2.5-.3,2-.7,2.6-1.1.8-1.8.8-1.4-.3-1.8-.8-.7-1.4-.7-2.5.3-2,.7-2.5h0ZM590.5,515.5c.7,0,1.4,0,2-.2.6-.1,1.1-.3,1.5-.6s.8-.6,1.1-1.1c.3-.5.6-1.1.8-1.8s.3-1.5.3-2.5-.2-2-.5-2.9-.8-1.5-1.4-2.1c-.5-.4-1.1-.7-1.8-.9-.5-.1-1.2-.2-2.2-.2h-4.2v12.1h4.4ZM587.7,504.8h2.5c.9,0,1.6,0,2.1.3.6.2,1.1.7,1.5,1.4.4.7.6,1.7.6,2.9s-.1,1.7-.3,2.3c-.2.6-.5,1.2-.9,1.5-.3.3-.6.5-1.1.6-.5.2-1.1.2-1.9.2h-2.6v-9.3ZM599.7,505.1v-1.7h-1.5v1.7h1.5ZM599.7,515.5v-8.8h-1.5v8.8h1.5ZM603.8,515.5v-7.6h1.7v-1.2h-1.7v-.8c0-.5,0-.9.3-1.1.2-.2.5-.3.9-.3s.6,0,.9,0l.2-1.3c-.5-.1-1-.2-1.4-.2-.6,0-1.2.1-1.5.4-.4.2-.6.6-.8.9-.1.3-.2.7-.2,1.3v.9h-1.3v1.2h1.3v7.6h1.5ZM608.5,515.5v-7.6h1.7v-1.2h-1.7v-.8c0-.5,0-.9.3-1.1.2-.2.5-.3.9-.3s.6,0,.9,0l.2-1.3c-.5-.1-1-.2-1.4-.2-.6,0-1.2.1-1.5.4-.4.2-.6.6-.8.9-.1.3-.2.7-.2,1.3v.9h-1.3v1.2h1.3v7.6h1.5ZM618.4,515.5v-8.8h-1.5v4.7c0,.8,0,1.3-.2,1.7-.2.4-.4.7-.8.9-.4.2-.8.3-1.3.3s-.8-.1-1.1-.3c-.3-.2-.5-.5-.6-.9,0-.3,0-.8,0-1.6v-4.9h-1.5v5.4c0,.6,0,1.1,0,1.4.1.4.3.8.5,1.1.2.3.6.6,1,.7.5.2.9.3,1.5.3,1.2,0,2.1-.5,2.8-1.5v1.3h1.3ZM621.3,515c.6.5,1.5.7,2.6.7s1.3-.1,1.8-.4c.6-.2,1-.6,1.3-1s.4-.9.4-1.4-.1-.9-.4-1.3-.6-.6-1-.8c-.4-.2-1.2-.4-2.2-.7-.7-.2-1.2-.3-1.3-.4-.3-.1-.4-.2-.6-.4-.1-.2-.2-.3-.2-.5,0-.3.2-.6.4-.8s.8-.3,1.5-.3,1,.1,1.3.4.5.6.6,1.1l1.5-.2c-.1-.6-.3-1-.5-1.4-.3-.3-.6-.6-1.2-.8-.5-.2-1.1-.3-1.8-.3s-.9,0-1.3.2c-.4.1-.7.3-.9.4-.3.2-.6.5-.7.8-.2.3-.3.7-.3,1.1s.1.8.3,1.2c.2.3.5.6,1,.8s1.2.4,2.3.7c.8.2,1.3.4,1.5.5.3.2.4.5.4.8s-.2.7-.5,1c-.3.3-.8.4-1.5.4s-1.2-.2-1.6-.5c-.4-.3-.6-.8-.7-1.4l-1.5.2c.2.9.5,1.6,1.2,2.1h0ZM634.3,514.1c-.4.3-.8.4-1.4.4s-1.4-.3-1.8-.8c-.5-.5-.8-1.3-.8-2.2h6.6v-.4c0-1.5-.4-2.6-1.1-3.4s-1.7-1.2-2.9-1.2-2.2.4-3,1.2-1.1,2-1.1,3.4.4,2.5,1.1,3.3c.7.8,1.8,1.2,3.1,1.2s1.8-.3,2.5-.7c.6-.5,1.1-1.2,1.3-2.1l-1.5-.2c-.2.6-.5,1.1-.9,1.4h0ZM631.1,508.5c.5-.5,1-.7,1.7-.7s1.4.3,1.8.9c.3.4.5.9.6,1.7h-4.9c0-.8.3-1.4.8-1.8h0ZM640.1,515.5v-4.6c0-.6,0-1.2.3-1.7.1-.3.3-.6.5-.8.3-.2.6-.3.9-.3s.7.1,1.1.3l.5-1.4c-.5-.3-1-.5-1.5-.5s-.7.1-1,.3c-.3.2-.6.6-.9,1.2v-1.3h-1.3v8.8h1.5Z"/>
  <rect class="st1" x="11.7" y="496.5" width="14.3" height="15.4"/>
  <rect class="st0" x="11.7" y="496.5" width="14.3" height="15.4"/>
</svg>