<?xml version="1.0" encoding="utf-8"?>
<!-- Generator: Adobe Illustrator 25.3.0, SVG Export Plug-In . SVG Version: 6.00 Build 0)  -->
<svg version="1.1" id="MAC_Encore_Wash-_Thumbnail" xmlns="http://www.w3.org/2000/svg" xmlns:xlink="http://www.w3.org/1999/xlink"
	 x="0px" y="0px" viewBox="0 0 1024 1024" style="enable-background:new 0 0 1024 1024;" xml:space="preserve">
<style type="text/css">
	.st0{fill-rule:evenodd;clip-rule:evenodd;fill:#CCCCCC;stroke:#1D1D1B;stroke-miterlimit:10;}
	.st1{fill:none;stroke:#1D1D1B;stroke-linecap:round;stroke-linejoin:round;stroke-miterlimit:10;}
	.st2{fill-rule:evenodd;clip-rule:evenodd;fill:#FFFFFF;stroke:#1D1D1B;stroke-miterlimit:10;}
	.st3{stroke:#1D1D1B;stroke-miterlimit:10;}
</style>
<g>
	<path class="st0" d="M885.9,362.8l-28.2-12.5c-4.2-1.9-8.6-3.1-13.2-3.6l-30.6-3.6H210l-30.6,3.6c-4.5,0.5-9,1.8-13.2,3.6
		l-28.2,12.5c-13,29.8-22.9,60.9-29.6,92.8c-6.6,31.9-10,64.3-10,96.9c0,32.6,3.3,65,10,96.9c6.6,31.9,16.6,63,29.6,92.8l36.8,11.7
		c1.8,0.6,3.7,1.1,5.6,1.4l29.5,5.4h604l29.5-5.4c1.9-0.3,3.8-0.8,5.6-1.4l36.8-11.7c13-29.8,22.9-60.9,29.6-92.8
		c6.6-31.9,10-64.3,10-96.9c0-32.5-3.3-65-10-96.9C908.8,423.8,898.9,392.7,885.9,362.8 M845.4,433.5l23.1,0.1
		c7.1,19,12.5,38.6,16.1,58.5c3.6,19.9,5.4,40.2,5.4,60.4s-1.8,40.5-5.4,60.4c-3.6,19.9-9,39.5-16.1,58.5h-23.1V433.5 M155.5,671.5
		L155.5,671.5c-7.1-19-12.5-38.6-16.1-58.5c-3.6-19.9-5.4-40.2-5.4-60.4s1.8-40.5,5.4-60.4c3.6-19.9,9-39.5,16.1-58.5l23.1-0.1v238
		H155.5"/>
	<path class="st1" d="M885.9,362.8l-28.2-12.5c-4.2-1.9-8.6-3.1-13.2-3.6l-30.6-3.6H210l-30.6,3.6c-4.5,0.5-9,1.8-13.2,3.6
		l-28.2,12.5c-13,29.8-22.9,60.9-29.6,92.8c-6.6,31.9-10,64.3-10,96.9c0,32.6,3.3,65,10,96.9c6.6,31.9,16.6,63,29.6,92.8l36.8,11.7
		c1.8,0.6,3.7,1.1,5.6,1.4l29.5,5.4h604l29.5-5.4c1.9-0.3,3.8-0.8,5.6-1.4l36.8-11.7c13-29.8,22.9-60.9,29.6-92.8
		c6.6-31.9,10-64.3,10-96.9c0-32.5-3.3-65-10-96.9C908.8,423.8,898.9,392.7,885.9,362.8 M845.4,433.5l23.1,0.1
		c7.1,19,12.5,38.6,16.1,58.5c3.6,19.9,5.4,40.2,5.4,60.4s-1.8,40.5-5.4,60.4c-3.6,19.9-9,39.5-16.1,58.5h-23.1V433.5 M155.5,671.5
		L155.5,671.5c-7.1-19-12.5-38.6-16.1-58.5c-3.6-19.9-5.4-40.2-5.4-60.4s1.8-40.5,5.4-60.4c3.6-19.9,9-39.5,16.1-58.5l23.1-0.1v238
		H155.5 M178.6,433.5v238h-23.1c-7.1-19-12.5-38.6-16.1-58.5c-3.6-19.9-5.4-40.2-5.4-60.4s1.8-40.5,5.4-60.4
		c3.6-19.9,9-39.5,16.1-58.5L178.6,433.5 M845.4,433.5v238h23.1c7.1-19,12.5-38.6,16.1-58.5c3.6-19.9,5.4-40.2,5.4-60.4
		s-1.8-40.5-5.4-60.4c-3.6-19.9-9-39.5-16.1-58.5L845.4,433.5"/>
	<path class="st0" d="M205.7,419.1v265.4l-97.9-26l-0.2-0.2c-7.5-7-12.4-16.3-13.9-26.5l-12-79.6l11.9-82.1
		c1.5-10.6,7.7-20.1,16.8-25.8L205.7,419.1"/>
	<path class="st1" d="M205.7,419.1v265.4l-97.9-26l-0.2-0.2c-7.5-7-12.4-16.3-13.9-26.5l-12-79.6l11.9-82.1
		c1.5-10.6,7.7-20.1,16.8-25.8L205.7,419.1"/>
	<path class="st0" d="M818.3,419.1v265.4l97.9-26l0.2-0.2c7.5-7,12.4-16.3,13.9-26.5l12-79.6l-11.9-82.1
		c-1.5-10.6-7.7-20.1-16.8-25.8L818.3,419.1"/>
	<path class="st1" d="M818.3,419.1v265.4l97.9-26l0.2-0.2c7.5-7,12.4-16.3,13.9-26.5l12-79.6l-11.9-82.1
		c-1.5-10.6-7.7-20.1-16.8-25.8L818.3,419.1"/>
	<rect x="205.7" y="419.1" class="st0" width="612.6" height="265.4"/>
	<rect x="205.7" y="419.1" class="st1" width="612.6" height="265.4"/>
	<polyline class="st0" points="678.1,997.7 649.3,1013.9 372.5,1013.9 343.7,997.7 259.2,938.4 253.8,916.8 245.4,783.8 
		226.8,783.8 221.4,769.4 219.6,650.7 210.7,645.7 210.7,429.6 225,420.6 226.8,406.2 257.4,377.4 266,248.5 327.5,188.7 340.1,88 
		365.3,52 377.9,52 365.3,8.1 656.5,8.1 643.9,52 656.5,52 681.7,88 694.3,188.7 755.8,248.5 764.4,377.4 795,406.2 796.8,420.6 
		811.1,429.6 811.1,645.7 802.2,650.7 800.4,769.4 795,783.8 776.4,783.8 768,916.8 762.6,938.4 678.1,997.7 	"/>
	<polygon class="st1" points="678.1,997.7 649.3,1013.9 372.5,1013.9 343.7,997.7 259.2,938.4 253.8,916.8 245.4,783.8 226.8,783.8 
		221.4,769.4 219.6,650.7 210.7,645.7 210.7,429.6 225,420.6 226.8,406.2 257.4,377.4 266,248.5 327.5,188.7 340.1,88 365.3,52 
		377.9,52 365.3,8.1 656.5,8.1 643.9,52 656.5,52 681.7,88 694.3,188.7 755.8,248.5 764.4,377.4 795,406.2 796.8,420.6 811.1,429.6 
		811.1,645.7 802.2,650.7 800.4,769.4 795,783.8 776.4,783.8 768,916.8 762.6,938.4 678.1,997.7 	"/>
	<path class="st0" d="M510.9,52H398.4l-11.6,156.4l-66.5,55.7l-7.2,113.3l-1.8,55.7l-9,14.4l-14.2,189.7c-0.1,1.8-0.2,3.6-0.1,5.3
		l12.5,294l41.4,30.6l169,9"/>
	<path class="st1" d="M510.9,52H398.4l-11.6,156.4l-66.5,55.7l-7.2,113.3l-1.8,55.7l-9,14.4l-14.2,189.7c-0.1,1.8-0.2,3.6-0.1,5.3
		l12.5,294l41.4,30.6l169,9"/>
	<path class="st0" d="M510.9,52h113.3L635,208.4l66.5,55.7l7.2,113.3l1.8,55.7l9,14.4l14.2,189.7c0.1,1.8,0.2,3.6,0.1,5.3l-12.5,294
		l-41.4,30.6l-169,9"/>
	<path class="st1" d="M510.9,52h113.3L635,208.4l66.5,55.7l7.2,113.3l1.8,55.7l9,14.4l14.2,189.7c0.1,1.8,0.2,3.6,0.1,5.3l-12.5,294
		l-41.4,30.6l-169,9 M377.9,52h266.1 M336.5,116.8h348.8 M386.8,208.4H639"/>
	<rect x="271.3" y="503.9" class="st2" width="479.3" height="270.3"/>
	<rect x="271.3" y="503.9" class="st1" width="479.3" height="270.3"/>
	<path class="st3" d="M314.6,588.8v-37.1l12.6,37.1h5.2l12.7-36.5v36.5h5.6v-43.6h-7.8l-10.4,30.3c-1.1,3.1-1.8,5.4-2.3,7
		c-0.4-1.4-1.1-3.6-2.1-6.5l-10.3-30.9h-8.7v43.6H314.6L314.6,588.8z M361.3,588.8l4.8-13.2h18.2l5.1,13.2h6.6l-17.8-43.6h-6.2
		l-16.7,43.6H361.3L361.3,588.8z M372.6,558.1c1-2.8,1.8-5.5,2.3-8.3c0.7,2.4,1.7,5.4,3.1,9l4.5,12.1h-14.8L372.6,558.1L372.6,558.1
		z M427.1,581.8c-2.2,1.9-5,2.8-8.2,2.8c-2.7,0-5.1-0.7-7.4-2.1c-2.3-1.4-4-3.4-5-6.2c-1.1-2.8-1.6-6-1.6-9.7c0-2.9,0.5-5.7,1.4-8.4
		c0.9-2.7,2.5-4.9,4.7-6.5c2.2-1.6,5-2.4,8.4-2.4c2.9,0,5.3,0.7,7.3,2.2c1.9,1.4,3.4,3.8,4.4,6.9l5.7-1.3c-1.2-4-3.2-7.1-6.2-9.4
		c-3-2.2-6.6-3.3-11-3.3c-3.8,0-7.4,0.9-10.6,2.6c-3.2,1.8-5.7,4.3-7.4,7.7c-1.7,3.4-2.6,7.3-2.6,11.9c0,4.2,0.8,8.1,2.3,11.7
		c1.5,3.6,3.8,6.4,6.7,8.3c2.9,1.9,6.8,2.9,11.5,2.9c4.5,0,8.4-1.2,11.5-3.7c3.1-2.5,5.3-6.1,6.5-10.8l-5.8-1.5
		C430.9,577.2,429.4,579.9,427.1,581.8L427.1,581.8z M439.9,588.8L439.9,588.8L439.9,588.8z M494.1,588.8v-5.1h-26.8v-14.8h24.1
		v-5.1h-24.1v-13.3h25.7v-5.1h-31.5v43.6H494.1L494.1,588.8z M507.6,588.8v-34.2l22.9,34.2h5.9v-43.6h-5.5v34.2L508,545.2H502v43.6
		H507.6L507.6,588.8z M572.6,581.8c-2.2,1.9-5,2.8-8.2,2.8c-2.7,0-5.1-0.7-7.4-2.1c-2.3-1.4-4-3.4-5-6.2c-1.1-2.8-1.6-6-1.6-9.7
		c0-2.9,0.5-5.7,1.4-8.4c0.9-2.7,2.5-4.9,4.7-6.5c2.2-1.6,5-2.4,8.4-2.4c2.9,0,5.3,0.7,7.3,2.2c1.9,1.4,3.4,3.8,4.4,6.9l5.7-1.3
		c-1.2-4-3.2-7.1-6.2-9.4c-3-2.2-6.6-3.3-11-3.3c-3.8,0-7.4,0.9-10.6,2.6c-3.2,1.8-5.7,4.3-7.4,7.7c-1.7,3.4-2.6,7.3-2.6,11.9
		c0,4.2,0.8,8.1,2.3,11.7c1.5,3.6,3.8,6.4,6.7,8.3c2.9,1.9,6.8,2.9,11.5,2.9c4.5,0,8.4-1.2,11.5-3.7c3.1-2.5,5.3-6.1,6.5-10.8
		l-5.8-1.5C576.4,577.2,574.9,579.9,572.6,581.8L572.6,581.8z M590.8,578.4c1.7,3.4,4.1,6.1,7.3,8.1c3.2,2,6.9,3,11,3
		c3.8,0,7.3-0.9,10.6-2.7c3.3-1.8,5.8-4.4,7.6-7.9c1.8-3.5,2.7-7.4,2.7-11.9c0-4.4-0.8-8.3-2.5-11.7c-1.7-3.4-4.2-6.1-7.4-8
		c-3.2-1.9-6.9-2.9-10.9-2.9c-6.1,0-11.2,2-15,6.1c-3.9,4.1-5.8,9.8-5.8,17C588.3,571.4,589.1,575,590.8,578.4L590.8,578.4z
		 M598.6,553.6c2.9-2.8,6.5-4.2,10.5-4.2c2.9,0,5.5,0.7,7.8,2.2c2.3,1.5,4.1,3.5,5.3,6.2c1.2,2.6,1.8,5.7,1.8,9.3
		c0,5.6-1.4,9.9-4.2,13c-2.8,3.1-6.4,4.6-10.7,4.6c-4.3,0-7.8-1.5-10.6-4.5c-2.8-3-4.2-7.2-4.2-12.4
		C594.2,561.1,595.7,556.4,598.6,553.6L598.6,553.6z M643.3,588.8v-19.4h6.7c1.5,0,2.6,0.1,3.2,0.2c0.9,0.2,1.8,0.6,2.6,1.2
		c0.9,0.6,1.8,1.5,2.9,2.9c1.1,1.4,2.5,3.4,4.2,6l5.8,9.1h7.3l-7.6-11.9c-1.5-2.3-3.1-4.3-4.8-5.8c-0.8-0.7-2-1.4-3.5-2.2
		c4.2-0.6,7.3-1.9,9.3-4c2-2.1,3-4.7,3-7.8c0-2.4-0.6-4.6-1.8-6.6c-1.2-2-2.8-3.4-4.8-4.1c-2-0.8-5-1.2-8.9-1.2h-19.3v43.6H643.3
		L643.3,588.8z M643.3,550h13.8c3.2,0,5.6,0.7,7.1,2c1.5,1.3,2.2,3,2.2,5.1c0,1.4-0.4,2.7-1.2,3.9c-0.8,1.2-1.9,2.1-3.4,2.6
		c-1.5,0.5-3.5,0.8-6.2,0.8h-12.4V550L643.3,550z M714,588.8v-5.1h-26.8v-14.8h24.1v-5.1h-24.1v-13.3H713v-5.1h-31.5v43.6H714
		L714,588.8z"/>
	<path class="st3" d="M451.3,658.8l9.2-33.2c0.4-1.4,0.8-3.1,1.3-5.1c0.1,0.6,0.6,2.3,1.4,5.1l9.2,33.2h5.6l12-43.6h-5.8l-6.8,28
		c-0.9,3.6-1.6,6.7-2.2,9.5c-0.7-4.8-1.8-10-3.4-15.4l-6.2-22.1h-7l-8.3,29.4c-0.2,0.7-0.9,3.4-2,8.1c-0.5-3-1.1-5.9-1.8-8.9
		l-6.6-28.6h-5.9l11.6,43.6H451.3L451.3,658.8z M516.3,658.8h5.6c-0.7-1.2-1.1-2.5-1.4-3.8c-0.2-1.3-0.3-4.5-0.3-9.4v-7.1
		c0-2.4-0.1-4-0.3-4.9c-0.3-1.5-0.9-2.7-1.7-3.6c-0.8-1-2-1.8-3.7-2.4c-1.7-0.6-3.9-1-6.6-1c-2.7,0-5.1,0.4-7.2,1.1
		c-2.1,0.7-3.6,1.8-4.7,3.2c-1.1,1.4-1.9,3.2-2.3,5.4l5.2,0.7c0.6-2.2,1.5-3.8,2.7-4.7c1.2-0.9,3.1-1.3,5.6-1.3
		c2.7,0,4.7,0.6,6.1,1.8c1,0.9,1.5,2.4,1.5,4.6c0,0.2,0,0.7,0,1.4c-2,0.7-5.2,1.3-9.5,1.8c-2.1,0.3-3.7,0.5-4.8,0.8
		c-1.4,0.4-2.7,1-3.9,1.8c-1.1,0.8-2.1,1.8-2.8,3.1c-0.7,1.3-1.1,2.7-1.1,4.2c0,2.6,0.9,4.8,2.8,6.5c1.9,1.7,4.5,2.5,8,2.5
		c2.1,0,4.1-0.3,5.9-1c1.8-0.7,3.7-1.9,5.7-3.6C515.4,656.4,515.7,657.7,516.3,658.8L516.3,658.8L516.3,658.8z M514.8,644.9
		c0,2.4-0.3,4.1-0.9,5.4c-0.8,1.6-1.9,2.8-3.5,3.7c-1.6,0.9-3.4,1.4-5.5,1.4c-2.1,0-3.7-0.5-4.7-1.4c-1.1-1-1.6-2.1-1.6-3.6
		c0-0.9,0.2-1.8,0.7-2.5c0.5-0.8,1.2-1.3,2.1-1.7c0.9-0.4,2.5-0.8,4.7-1.1c3.9-0.6,6.8-1.2,8.7-2V644.9L514.8,644.9z M530.4,657
		c2.2,1.7,5.3,2.6,9.4,2.6c2.5,0,4.7-0.4,6.7-1.3c2-0.9,3.5-2.1,4.5-3.7s1.6-3.3,1.6-5c0-1.8-0.4-3.3-1.3-4.6
		c-0.9-1.2-2-2.2-3.5-2.8c-1.5-0.6-4.1-1.5-7.9-2.5c-2.6-0.7-4.2-1.2-4.7-1.4c-0.9-0.4-1.6-0.9-2.1-1.4c-0.4-0.6-0.7-1.2-0.7-1.9
		c0-1.1,0.5-2,1.6-2.9c1.1-0.8,2.8-1.2,5.3-1.2c2.1,0,3.7,0.5,4.8,1.4c1.1,0.9,1.8,2.2,2.1,3.8l5.2-0.7c-0.3-2-1-3.7-1.8-4.9
		c-0.9-1.2-2.3-2.2-4.1-2.9c-1.9-0.7-4-1.1-6.5-1.1c-1.6,0-3.2,0.2-4.6,0.6c-1.4,0.4-2.6,0.9-3.4,1.6c-1.1,0.8-2,1.8-2.6,3
		c-0.6,1.2-1,2.5-1,3.9c0,1.5,0.4,3,1.2,4.2c0.8,1.3,1.9,2.3,3.4,3c1.5,0.7,4.2,1.6,8.2,2.6c2.9,0.7,4.7,1.3,5.5,1.8
		c1.1,0.7,1.6,1.6,1.6,2.9c0,1.3-0.6,2.5-1.8,3.5c-1.2,1-3,1.5-5.5,1.5c-2.4,0-4.3-0.6-5.7-1.7c-1.4-1.1-2.2-2.8-2.5-4.9l-5.3,0.8
		C526.9,652.7,528.3,655.3,530.4,657L530.4,657z M564.3,658.8v-17.3c0-2.5,0.3-4.4,0.9-5.8c0.6-1.4,1.6-2.5,3-3.3
		c1.4-0.8,2.9-1.2,4.5-1.2c2.1,0,3.8,0.6,4.9,1.8c1.2,1.2,1.7,3.2,1.7,5.8v20h5.4v-20c0-3.1-0.4-5.5-1.1-7.1c-0.7-1.6-2-2.9-3.7-3.8
		c-1.7-0.9-3.8-1.4-6.1-1.4c-3.8,0-7,1.4-9.5,4.3v-15.6h-5.4v43.6H564.3L564.3,658.8z"/>
	<path class="st3" d="M482.8,722.5c-2.3,1.9-5.1,2.8-8.4,2.8c-2.7,0-5.2-0.7-7.5-2.1c-2.3-1.4-4-3.5-5.1-6.3s-1.7-6.1-1.7-9.9
		c0-2.9,0.5-5.8,1.4-8.5c0.9-2.8,2.5-5,4.8-6.6s5.1-2.5,8.6-2.5c3,0,5.4,0.7,7.4,2.2s3.5,3.8,4.5,7.1l5.8-1.4
		c-1.2-4.1-3.3-7.3-6.3-9.5c-3-2.3-6.8-3.4-11.2-3.4c-3.9,0-7.5,0.9-10.8,2.7s-5.8,4.4-7.5,7.8c-1.8,3.4-2.7,7.5-2.7,12.1
		c0,4.2,0.8,8.2,2.3,11.9c1.6,3.7,3.8,6.5,6.8,8.5c3,1.9,6.9,2.9,11.7,2.9c4.6,0,8.5-1.3,11.7-3.8s5.4-6.2,6.6-11l-5.9-1.5
		C486.6,717.8,485.1,720.6,482.8,722.5L482.8,722.5z M528,729.6v-5.2h-21.9v-39.2h-5.9v44.4H528L528,729.6z M551.1,729.6
		c2.7,0,5.1-0.3,7.1-0.8c2.1-0.5,3.8-1.2,5.3-2.2s2.8-2.3,4-4s2.2-3.9,3-6.5s1.2-5.6,1.2-9c0-4-0.6-7.5-1.7-10.6
		c-1.2-3.1-2.9-5.6-5.3-7.6c-1.8-1.5-4-2.6-6.5-3.2c-1.8-0.4-4.5-0.6-7.9-0.6H535v44.4L551.1,729.6L551.1,729.6z M540.9,690.4h9.3
		c3.5,0,6,0.3,7.6,0.9c2.2,0.8,4,2.5,5.6,5c1.5,2.5,2.3,6.1,2.3,10.7c0,3.4-0.4,6.2-1.2,8.6c-0.8,2.4-1.9,4.2-3.3,5.6
		c-1,1-2.3,1.8-4,2.3s-4,0.8-6.9,0.8h-9.5v-33.9H540.9z"/>
</g>
</svg>
