<svg id="ERA_600" data-name="ERA 600" xmlns="http://www.w3.org/2000/svg" viewBox="0 0 1024 1024"><defs><style>.cls-1{fill:#ccc;}.cls-1,.cls-2,.cls-3,.cls-4,.cls-5{stroke:#000;stroke-width:1.87px;}.cls-1,.cls-3,.cls-4,.cls-5{stroke-miterlimit:10;}.cls-1,.cls-4{fill-rule:evenodd;}.cls-2{fill:none;stroke-linecap:round;stroke-linejoin:round;}.cls-3,.cls-4{fill:#fff;}</style></defs><path class="cls-1" d="M367.19,1000.55h0q17.4,4.16,35,7.31t35.4,5.26q17.78,2.11,35.65,3.2t35.77,1.12H515q17.89,0,35.77-1.12t35.65-3.2q17.76-2.11,35.4-5.26t35-7.31l84.81-87.71L753,852.51l10.81-37.86,5.24-.29,5.24-.28,5.24-.3,5.24-.3,21.45-20.34,19.08-94-8.92,53.41,14.08-6.45a137.59,137.59,0,0,0,31.09-25.23A137.49,137.49,0,0,0,884,687.74a538.47,538.47,0,0,0,0-275.61A162,162,0,0,0,873,394.6a163.71,163.71,0,0,0-45.08-42.35l-11.52-5.4,10.56,55.93L806.19,305.4l-21.45-20.34-7-.4-7-.39-7-.38-7-.37-2.52-101-3.78-20L701.14,78.19H689.59L672.88,6.56H351.13L334.41,78.19H322.86l-49.21,84.35-3.79,20-2.52,100.95-7.07.37-7.07.39-7.06.39-7.07.4L217.62,305.4l-19.87,97.94,9.89-56.49-11.52,5.4A163.49,163.49,0,0,0,151,394.6,162,162,0,0,0,140,412.13a538.47,538.47,0,0,0,0,275.61,137.54,137.54,0,0,0,37.13,46.87,136.62,136.62,0,0,0,16.47,11.48l14.08,6.45L197.28,700.9l20.34,92.24,21.45,20.34,5.29.3,5.29.3,5.29.29,5.29.29L271,852.51l11.35,60.33,84.81,87.71m486-338.25h0A34.27,34.27,0,0,1,841,681.41a34.12,34.12,0,0,1-21.46,7.29l-21.72-6.15-10.73-14,0-11.48h67.19c-.09.44-.18.88-.28,1.31s-.19.87-.29,1.31-.19.87-.28,1.3l-.3,1.31M170.68,437.54h0A34.17,34.17,0,0,1,196.79,412l10.59-.72-1.08-.9L226,416l10.73,14,0,11.47H169.81l.21-1c.08-.33.15-.66.22-1s.14-.65.22-1,.14-.65.22-1m33.56,251.17h0a34.19,34.19,0,0,1-21.34-7.36,34.17,34.17,0,0,1-12.1-19.05l-.3-1.31c-.09-.43-.19-.87-.28-1.3s-.2-.87-.29-1.31-.19-.87-.28-1.31h67l0,11.48-10.73,14-21.72,6.16M853.32,437.54h0c.08.33.15.66.22,1s.15.66.22,1,.14.66.22,1l.21,1h-67l0-11.47,10.73-14,19.95-5.65-1.18,1,10.59.72a34.16,34.16,0,0,1,26.11,25.5"/><path class="cls-2" d="M367.19,1000.55h0q17.4,4.16,35,7.31t35.4,5.26q17.78,2.11,35.65,3.2t35.77,1.12H515q17.89,0,35.77-1.12t35.65-3.2q17.76-2.11,35.4-5.26t35-7.31l84.81-87.71L753,852.51l10.81-37.86,5.24-.29,5.24-.28,5.24-.3,5.24-.3,21.45-20.34,19.08-94-8.92,53.41,14.08-6.45a137.59,137.59,0,0,0,31.09-25.23A137.49,137.49,0,0,0,884,687.74a538.47,538.47,0,0,0,0-275.61A162,162,0,0,0,873,394.6a163.71,163.71,0,0,0-45.08-42.35l-11.52-5.4,10.56,55.93L806.19,305.4l-21.45-20.34-7-.4-7-.39-7-.38-7-.37-2.52-101-3.78-20L701.14,78.19H689.59L672.88,6.56H351.13L334.41,78.19H322.86l-49.21,84.35-3.79,20-2.52,100.95-7.07.37-7.07.39-7.06.39-7.07.4L217.62,305.4l-19.87,97.94,9.89-56.49-11.52,5.4A163.49,163.49,0,0,0,151,394.6,162,162,0,0,0,140,412.13a538.47,538.47,0,0,0,0,275.61,137.54,137.54,0,0,0,37.13,46.87,136.62,136.62,0,0,0,16.47,11.48l14.08,6.45L197.28,700.9l20.34,92.24,21.45,20.34,5.29.3,5.29.3,5.29.29,5.29.29L271,852.51l11.35,60.33,84.81,87.71m486-338.25h0A34.27,34.27,0,0,1,841,681.41a34.12,34.12,0,0,1-21.46,7.29l-21.72-6.15-10.73-14,0-11.48h67.19c-.09.44-.18.88-.28,1.31s-.19.87-.29,1.31-.19.87-.28,1.3l-.3,1.31M170.68,437.54h0A34.17,34.17,0,0,1,196.79,412l10.59-.72-1.08-.9L226,416l10.73,14,0,11.47H169.81l.21-1c.08-.33.15-.66.22-1s.14-.65.22-1,.14-.65.22-1m33.56,251.17h0a34.19,34.19,0,0,1-21.34-7.36,34.17,34.17,0,0,1-12.1-19.05l-.3-1.31c-.09-.43-.19-.87-.28-1.3s-.2-.87-.29-1.31-.19-.87-.28-1.31h67l0,11.48-10.73,14-21.72,6.16M853.32,437.54h0c.08.33.15.66.22,1s.15.66.22,1,.14.66.22,1l.21,1h-67l0-11.47,10.73-14,19.95-5.65-1.18,1,10.59.72a34.16,34.16,0,0,1,26.11,25.5"/><path class="cls-2" d="M146.88,460.22V638.33M754.14,182.56q3.48,139.62,7,281.83t7.09,284m-512.52,0q3.54-141.82,7.09-284t7-281.83M768.68,765.25l-.42-16.82m-512.52,0-.42,16.82m514.09,29.14-.73-29.14m-513.36,0-.73,29.14m0,.48,5.65,19.79m-5.64-20.27v.48m514.84,0v-.48m-5.63,20.26,5.64-19.78M689.59,78.19a35.1,35.1,0,0,1-5,.32q-5.09.19-24.66.41t-49,.36q-29.38.14-64.07.19t-69.4,0q-34.7,0-64.12-.19t-49.05-.36q-19.64-.23-24.78-.41a37.12,37.12,0,0,1-5.11-.32M351.12,6.56,334.41,78.19M686,970.38H338m-108.47-324H208.46m0,0a11,11,0,0,1-2.38.87,10,10,0,0,1-2.42.3m0-196.57a10,10,0,0,1,2.42.3,11,11,0,0,1,2.38.87m0,0h21.08m-3.9,36H206.43m-2-1a2.12,2.12,0,0,0-.4-.14,1.37,1.37,0,0,0-.4-.05m0,0a1.37,1.37,0,0,0-.4.05,2.12,2.12,0,0,0-.4.14m0,0a4.49,4.49,0,0,0-1.89,2.59,12.32,12.32,0,0,0-.75,4.44m0,0v.2m0,0v54.9m0,0v54.91m0,0v.2m0,0a12.32,12.32,0,0,0,.75,4.44,4.49,4.49,0,0,0,1.89,2.59m0,0a3.39,3.39,0,0,0,.41.15,1.81,1.81,0,0,0,.4,0M849.66,451H816.79m53.62,43.58c0-2.84-.17-6.37-.56-10.6A64.36,64.36,0,0,0,867,470.41a43,43,0,0,0-5.74-12.05q-3.43-4.83-6.49-6.1a14,14,0,0,0-5.1-1.27M150.05,494.57c0-2.84.17-6.37.55-10.6a65,65,0,0,1,2.86-13.56,43,43,0,0,1,5.74-12.05q3.45-4.83,6.49-6.1a14.06,14.06,0,0,1,5.1-1.27m32.87,0H170.79m12.12,43.58c0-2.84.17-6.37.56-10.6a64.36,64.36,0,0,1,2.86-13.56,42.74,42.74,0,0,1,5.73-12.05q3.45-4.83,6.5-6.1a14,14,0,0,1,5.1-1.27M817.59,611.41a3.25,3.25,0,0,1-.4.15,1.9,1.9,0,0,1-.41,0m3.45-7.22a12.32,12.32,0,0,1-.75,4.44,4.49,4.49,0,0,1-1.89,2.59m2.64-7.23v.2m0-55.11v54.91m0-109.81v54.9m0-55.1v.2m-2.64-7.23a4.49,4.49,0,0,1,1.89,2.59,12.32,12.32,0,0,1,.75,4.44M816.79,487a1.33,1.33,0,0,1,.4.05,1.9,1.9,0,0,1,.4.14m-22.1,1H814m-2-36h-20.4m25.2-1.17a9.94,9.94,0,0,0-2.41.3,11.1,11.1,0,0,0-2.39.87m25.55,42.41c0-2.84-.17-6.37-.55-10.6a64.41,64.41,0,0,0-2.87-13.56,42.74,42.74,0,0,0-5.73-12.05q-3.45-4.83-6.5-6.1a14,14,0,0,0-5.1-1.27M812,646.39a11.1,11.1,0,0,0,2.39.87,9.94,9.94,0,0,0,2.41.3m-25.2-1.17H812m2-36H795.49m54.17,37.13a14,14,0,0,0,5.1-1.27q3-1.27,6.49-6.1A43,43,0,0,0,867,628.14a64.36,64.36,0,0,0,2.86-13.56c.39-4.23.57-7.76.56-10.6m-53.62,43.58h32.87m-32.87,0a14,14,0,0,0,5.1-1.27q3.06-1.27,6.5-6.1a42.74,42.74,0,0,0,5.73-12.05A64.41,64.41,0,0,0,837,614.58c.38-4.23.57-7.76.55-10.6M203.66,647.56a14,14,0,0,1-5.1-1.27q-3-1.27-6.5-6.1a42.74,42.74,0,0,1-5.73-12.05,64.36,64.36,0,0,1-2.86-13.56c-.39-4.23-.57-7.76-.56-10.6m-12.12,43.58h32.87m-32.87,0a14.06,14.06,0,0,1-5.1-1.27q-3-1.27-6.49-6.1a43,43,0,0,1-5.74-12.05,65,65,0,0,1-2.86-13.56c-.38-4.23-.57-7.76-.55-10.6m687.49,0V549.27M870.41,604V549.27m-32.87,0v-54.7m32.87,54.7v-54.7m-687.5,54.7v-54.7M150,549.27v-54.7M182.91,604V549.27M150.05,604V549.27M816.78,611.6a1.74,1.74,0,0,1-.39-.05,2,2,0,0,1-.39-.14m1.59,0a2,2,0,0,1-.39.14,1.65,1.65,0,0,1-.38.05m-613.15,0a1.83,1.83,0,0,0,.4-.05,2,2,0,0,0,.39-.14m-1.6,0a2,2,0,0,0,.39.14,1.73,1.73,0,0,0,.38.05M816,487.14a2,2,0,0,1,.39-.14,1.41,1.41,0,0,1,.4-.05m0,0a1.33,1.33,0,0,1,.4.05,2.4,2.4,0,0,1,.4.14M204.46,611.41l2-1m-4.66,0a3.87,3.87,0,0,0,.53.59,2.83,2.83,0,0,0,.56.39m613.14,0-2-1m0,0h4.66m0,0a3.84,3.84,0,0,1-.52.59,3.22,3.22,0,0,1-.57.39M206.43,488.12l-2-1m2,1h-4.66m1.09-1a2.83,2.83,0,0,0-.56.39,3.87,3.87,0,0,0-.53.59m2.69-1h-1.6m611.16,1h4.66m-4.66,0,2-1m1.59,0a3.22,3.22,0,0,1,.57.39,3.84,3.84,0,0,1,.52.59M206.43,610.43h-4.66m4.66,0h19.21m410.41,394.71H388m410-348.07h1.89M229.54,646.39l-3.9-8.06m-1.44,18.74H203.07m-6.44-9.51h7m4.8-1.17a11.22,11.22,0,0,1-2.38.87,9.88,9.88,0,0,1-2.41.3m4.79-1.17h21.08m587.25,1.17h10.56m-27.55,9.51h21.13m-25.44-18.74-3.9,8.06m0,0H812m0,0a11.22,11.22,0,0,0,2.38.87,9.9,9.9,0,0,0,2.42.3m-590.7,9.51H224.2m-24-162.7v54.9m1.55-61.15a7.47,7.47,0,0,0-1.17,2.58,13.56,13.56,0,0,0-.38,3.47m1.55-6.05h23.87m0,0v-27.9m0,178.11v-27.9m0,0H201.77m-1.55-6a13.56,13.56,0,0,0,.38,3.47,7.56,7.56,0,0,0,1.17,2.58m-1.55-61.16v54.91m620-54.91v54.91m0,.2a14,14,0,0,1-.37,3.47,7.57,7.57,0,0,1-1.18,2.58m0,0H795.49m0,0v27.9m0-178.11v27.9m0,0h23.19m0,0a7.48,7.48,0,0,1,1.18,2.58,14,14,0,0,1,.37,3.47m0,.2v54.9m-596-107.8h1.89m573.71,0h-1.89M816.79,451a10.38,10.38,0,0,0-2.41.29,11.93,11.93,0,0,0-2.39.88m-20.4,0H812m-16.5,8.06-3.9-8.06m29.34-10.69H799.8M827.36,451H816.79m-613.72-9.52H224.2m5.34,10.69-3.9,8.06m-17.18-8.06h21.08M203.66,451a10.47,10.47,0,0,1,2.42.29,11.84,11.84,0,0,1,2.38.88m-4.8-1.17h-7m653,0H827.38m30.78-9.52H820.93m56.19,18.75-9.48-9.38-9.48-9.37m4.33,18.75a27.51,27.51,0,0,0-3.37-4.49,16.74,16.74,0,0,0-3.43-2.88,13.65,13.65,0,0,0-3.08-1.43,10.3,10.3,0,0,0-2.94-.43m27.45,9.23H862.49m14.63,0V638.33m-14.63,0a40.79,40.79,0,0,0,3.2-6.49,66.77,66.77,0,0,0,2.5-8,70.49,70.49,0,0,0,1.69-9.64,92.24,92.24,0,0,0,.53-10.23m0,0v-54.7m0,0v-54.7m0,0a92.42,92.42,0,0,0-.53-10.24,70.34,70.34,0,0,0-1.69-9.63,65.64,65.64,0,0,0-2.5-8,40.38,40.38,0,0,0-3.2-6.49M150.05,604V549.27M158,638.33a41.92,41.92,0,0,1-3.14-6.33,68.35,68.35,0,0,1-2.52-8,66.92,66.92,0,0,1-1.73-9.81,91.58,91.58,0,0,1-.52-10.24m-3.17-54.71v89.06m3.17-143.76a91.58,91.58,0,0,1,.52-10.24,67.15,67.15,0,0,1,1.73-9.81,68.35,68.35,0,0,1,2.52-8,41.46,41.46,0,0,1,3.14-6.33m-7.92,89v-54.7m15.79,162.5h37.23m-37.23,0-9.48-9.37-9.48-9.37m0,0H158m12.83,9.23a9.81,9.81,0,0,1-2.82-.4,13.77,13.77,0,0,1-3-1.35,16.58,16.58,0,0,1-3.5-2.87,27.62,27.62,0,0,1-3.48-4.61m12.83,9.23h25.83m653,0a10.28,10.28,0,0,0,2.93-.42,14.4,14.4,0,0,0,3.07-1.42,16.46,16.46,0,0,0,3.44-2.88,27.21,27.21,0,0,0,3.39-4.51m14.63,0H862.49m-4.33,18.74,9.48-9.37,9.48-9.37m-19,18.74H820.93m6.42-9.51h22.31M146.88,460.22l9.48-9.38,9.48-9.37m0,0h37.23M196.62,451H170.79M158,460.22a27.58,27.58,0,0,1,3.5-4.63,16,16,0,0,1,3.51-2.87,13.79,13.79,0,0,1,3-1.34,10.07,10.07,0,0,1,2.8-.39m-23.9,9.23H158m81,196.85H226.09m0-215.6h12.83m559,0H785.08m0,215.6h12.83m-539.89,0h-19.1m19.57-18.74q0,1.68-.16,6.36T258,657.07m507.49-18.74q-.63-25.53-1.74-70.05t-2.7-108.06M258.49,638.33h-.8m5.24-178.11q-1.57,63.54-2.69,108.06t-1.75,70.05m507,0h.8M766,657.07h19.1m-19.1,0q-.19-7.7-.31-12.38t-.16-6.36M259,441.47H238.92m24.33,6.09c-.07,2.73-.13,5.14-.18,7.25s-.1,3.91-.14,5.41M765,441.47h20.08m-24,18.75c0-1.49-.08-3.29-.14-5.4s-.11-4.51-.18-7.23m4.25-6.12h-4.4m.15,6.09c0-1,0-2-.07-3s0-2-.08-3m-501.6,0h4.4m0,0c0,1,0,2-.08,3s-.05,2-.07,3M226,682.55l10.73-14M826.11,695l-1.36-2.83M756.94,294.8c-.05-1.88-.09-3.76-.14-5.64s-.09-3.76-.14-5.64m7.12,531.13c.54-1.91,1.09-3.82,1.63-5.72s1.09-3.82,1.63-5.72M236.69,668.55l0-11.48m2.27,0h-2.27m11.25,0h-9m558.93,25.48,25.8,7.31m1.1,2.28-1.1-2.28m-587-248.39h2.27m-2.27,0,0-11.47M787.12,668.55l10.73,14M236.69,430,226,416m561.2,241.08,0,11.48m-11.21-11.48h9.17m0,0h2.08M226,416l-25.8-7.31m-1.1-2.28,1.1,2.28m587,21.32,0,11.47m0,0h-2.08m0,0h-9.17M197.7,403.58l1.36,2.82M797.85,416l-10.73,14m36.53-21.32,1.1-2.28m-1.1,2.28L797.85,416M267.34,283.51c0,1.88-.09,3.76-.14,5.64s-.09,3.76-.14,5.64M824.75,406.4l1.36-2.82"/><path class="cls-2" d="M200.16,689.86l-1.1,2.28m1.1-2.28,25.8-7.31m-8.34,110.59L197.7,695m1.36-2.83L197.7,695M257,803.22q.82,2.85,1.63,5.72l1.64,5.72m-4.49-66.23-.21,8.41-.21,8.41m0,0L255,779.82q-.18,7.27-.37,14.57m0,.48c.4,1.39.8,2.78,1.19,4.17s.8,2.79,1.19,4.18M258,657.07l-1.14,45.68-1.14,45.68m3.26-307h4.4m3.66-146.68-1.83,73.34-1.83,73.34m512.51,0H765m0,0h-4.4m0,0-1.83-73.34-1.83-73.33m9,362.27h9.93M767,803.21c.39-1.39.79-2.78,1.19-4.17s.79-2.78,1.19-4.17m0-.48q-.2-7.29-.37-14.57l-.36-14.57m0,0-.21-8.41-.21-8.41m0,0-1.14-45.68L766,657.07m87.34-219.53h0c.08.33.15.66.22,1s.15.66.22,1,.14.66.22,1l.21,1m-27-29.43h0a34.16,34.16,0,0,1,26.11,25.5m-36.7-26.22,10.59.72m-9.41-1.7-1.18,1m7-2.64-5.85,1.66m8.31-6.76-2.46,5.1m2.44-5.21,0,.11m.81-.8-.83.69m0,291.5-.84,4.16m-1.62-9.27,2.46,5.11m-6.54-6.27,4.08,1.16M853.2,662.3h0A34.27,34.27,0,0,1,841,681.41a34.12,34.12,0,0,1-21.46,7.29m34.78-31.63h0c-.09.44-.18.88-.28,1.31s-.19.87-.29,1.31-.19.87-.28,1.3l-.3,1.31m1.15-5.23h3.81m19-18.74-9.48,9.37-9.48,9.37m19-196.85V638.33m-19-196.86,9.48,9.37,9.48,9.38m-19-18.75h-4M146.88,638.33l9.48,9.37,9.48,9.37m3.81,0h-3.81m3.81,0h0c.09.44.19.88.28,1.31s.19.87.29,1.31.19.87.28,1.3l.3,1.31m0,0h0a34.19,34.19,0,0,0,22.14,24.54,34.43,34.43,0,0,0,11.3,1.87m-4.08,1.15,4.08-1.15M197.7,695l2.46-5.11m-1.58,9.45L197.7,695m.88,4.34-1.3,1.59m10.36-354-10.56,55.93m0,0,.67.56m-.05.24.05-.24m2.41,5.34-2.46-5.1m8.6,6.84-6.14-1.74m6.14,1.74,1.08.9m0,0-10.59.72m0,0h0a34.16,34.16,0,0,0-26.11,25.5m0,0h0c-.08.33-.15.66-.22,1s-.15.66-.22,1-.14.66-.22,1l-.21,1m-4,0h4m-4,0-9.48,9.37-9.48,9.38"/><rect class="cls-3" x="241.75" y="415.3" width="546.42" height="267.24"/><rect class="cls-2" x="241.75" y="415.3" width="546.42" height="267.24"/><polyline class="cls-4" points="268.02 476.54 761.9 476.54 761.9 621.31 268.02 621.31 268.02 476.54"/><path class="cls-5" d="M394.59,533.68V488.2h32v5.36H400.43V507.5h24.51v5.35H400.43v15.48H427.6v5.36h-33Zm41.17,0V488.2h19.58a25.35,25.35,0,0,1,9,1.23,9.88,9.88,0,0,1,4.91,4.33,13.16,13.16,0,0,1,1.84,6.86,11.65,11.65,0,0,1-3.05,8.16q-3,3.32-9.4,4.22a15.2,15.2,0,0,1,3.53,2.26,31.29,31.29,0,0,1,4.84,6l7.65,12.37h-7.31l-5.85-9.45c-1.71-2.73-3.11-4.82-4.22-6.27a13.2,13.2,0,0,0-3-3,8.6,8.6,0,0,0-2.67-1.21,17.54,17.54,0,0,0-3.25-.21H441.6v20.18Zm5.84-25.39h12.57a18.32,18.32,0,0,0,6.27-.86,6.71,6.71,0,0,0,3.43-2.73,7.54,7.54,0,0,0,1.18-4.09,6.88,6.88,0,0,0-2.28-5.32q-2.26-2.09-7.19-2.08h-14v15.08Zm33.8,25.39,16.9-45.48h6.41l18,45.48h-6.66L505,519.9H486.39l-4.82,13.78ZM488.1,515h15l-4.59-12.57q-2.13-5.73-3.18-9.51a64.47,64.47,0,0,1-2.4,8.78L488.1,515Z"/><path class="cls-5" d="M566.12,499.36l-5.56.45a10.42,10.42,0,0,0-2.12-4.76,7.47,7.47,0,0,0-5.62-2.39,7.88,7.88,0,0,0-4.73,1.49,12.72,12.72,0,0,0-4.16,5.58q-1.53,3.67-1.59,10.49a13,13,0,0,1,4.94-4.56,13.36,13.36,0,0,1,6.13-1.49,12.68,12.68,0,0,1,9.52,4.11,14.74,14.74,0,0,1,3.94,10.62,17.47,17.47,0,0,1-1.85,8,13.49,13.49,0,0,1-5.08,5.62,13.85,13.85,0,0,1-7.34,2,14.34,14.34,0,0,1-11.4-5.13q-4.43-5.13-4.42-16.9,0-13.17,4.89-19.15a14.1,14.1,0,0,1,11.5-5.2,12.92,12.92,0,0,1,8.83,3,12.71,12.71,0,0,1,4.12,8.3ZM543.19,518.9a13,13,0,0,0,1.22,5.52,9.16,9.16,0,0,0,3.42,4,8.59,8.59,0,0,0,4.64,1.38,7.88,7.88,0,0,0,6.1-2.85,11.24,11.24,0,0,0,2.54-7.75,10.51,10.51,0,0,0-2.5-7.42,8.3,8.3,0,0,0-6.35-2.71,8.66,8.66,0,0,0-6.43,2.71,9.77,9.77,0,0,0-2.64,7.11Zm29.14-7.64a41.53,41.53,0,0,1,1.66-13,16.06,16.06,0,0,1,4.94-7.58,12.71,12.71,0,0,1,8.24-2.65,13.57,13.57,0,0,1,6.44,1.47,12.22,12.22,0,0,1,4.57,4.25,23,23,0,0,1,2.81,6.75,45,45,0,0,1,1,10.74,41.59,41.59,0,0,1-1.64,12.91,16.11,16.11,0,0,1-4.92,7.59,12.7,12.7,0,0,1-8.28,2.67,12.52,12.52,0,0,1-10.34-4.69q-4.5-5.68-4.5-18.48Zm5.76,0q0,11.21,2.62,14.89a7.72,7.72,0,0,0,6.46,3.69q3.84,0,6.47-3.71t2.62-14.87q0-11.21-2.62-14.89a7.76,7.76,0,0,0-6.53-3.68,7.18,7.18,0,0,0-6.15,3.25q-2.88,4.14-2.87,15.32Zm29.53,0a41.5,41.5,0,0,1,1.67-13,16,16,0,0,1,4.93-7.58,12.76,12.76,0,0,1,8.25-2.65,13.57,13.57,0,0,1,6.44,1.47,12.12,12.12,0,0,1,4.56,4.25,23,23,0,0,1,2.82,6.75,45,45,0,0,1,1,10.74,41.89,41.89,0,0,1-1.64,12.91,16.05,16.05,0,0,1-4.93,7.59,12.65,12.65,0,0,1-8.27,2.67,12.51,12.51,0,0,1-10.34-4.69q-4.5-5.68-4.5-18.48Zm5.76,0q0,11.21,2.62,14.89a7.74,7.74,0,0,0,6.47,3.69c2.56,0,4.72-1.24,6.46-3.71s2.62-7.42,2.62-14.87-.87-12.43-2.61-14.89a7.76,7.76,0,0,0-6.53-3.68,7.16,7.16,0,0,0-6.15,3.25q-2.88,4.14-2.88,15.32Z"/><path class="cls-5" d="M273,606.07V560.58h17.13A41.12,41.12,0,0,1,297,561a13.73,13.73,0,0,1,5.61,2.12,11.19,11.19,0,0,1,3.64,4.39,14.8,14.8,0,0,1-2.31,16q-3.69,4-13.33,4H279v18.5Zm6-23.86h11.75q5.82,0,8.27-2.17a7.77,7.77,0,0,0,2.45-6.12A8.26,8.26,0,0,0,300,569a6.74,6.74,0,0,0-3.8-2.68,25.44,25.44,0,0,0-5.61-.41H279v16.27Zm36.42,23.86V560.58h32.88v5.36H321.38v13.94h25.2v5.36h-25.2v15.47H349.3v5.36Zm42.31,0V560.58h20.14a26.67,26.67,0,0,1,9.23,1.23,10.1,10.1,0,0,1,5.05,4.33A12.92,12.92,0,0,1,394,573a11.42,11.42,0,0,1-3.13,8.16c-2.08,2.22-5.31,3.62-9.66,4.22a15.39,15.39,0,0,1,3.62,2.27,30.56,30.56,0,0,1,5,6l7.86,12.38h-7.51l-6-9.46c-1.76-2.73-3.2-4.82-4.34-6.27a13.58,13.58,0,0,0-3.05-3A8.82,8.82,0,0,0,374,586.1a17.62,17.62,0,0,0-3.35-.22h-7v20.19h-6Zm6-25.4h12.92a19.29,19.29,0,0,0,6.44-.85,6.92,6.92,0,0,0,3.54-2.74,7.46,7.46,0,0,0,1.2-4.09,6.78,6.78,0,0,0-2.34-5.31c-1.55-1.39-4-2.09-7.38-2.09H363.7v15.08Zm40,25.4V560.58h30.66v5.36H409.7V580H431v5.35H409.7v20.69Zm36.63-22.16q0-11.32,6.08-17.72t15.68-6.4a21.71,21.71,0,0,1,11.34,3,19.57,19.57,0,0,1,7.7,8.38,27.2,27.2,0,0,1,2.65,12.2A26.79,26.79,0,0,1,481,595.75a19.07,19.07,0,0,1-7.9,8.26,22.58,22.58,0,0,1-11,2.8,21.46,21.46,0,0,1-11.47-3.1,19.9,19.9,0,0,1-7.66-8.46,25.71,25.71,0,0,1-2.6-11.34Zm6.2.07q0,8.22,4.42,12.95a15.41,15.41,0,0,0,22.25,0q4.38-4.77,4.38-13.55a23.3,23.3,0,0,0-1.87-9.69,14.33,14.33,0,0,0-5.49-6.41,14.87,14.87,0,0,0-8.1-2.28,15.39,15.39,0,0,0-11,4.38q-4.61,4.39-4.6,14.65Zm45.1,22.09V560.58h20.13a26.73,26.73,0,0,1,9.24,1.23,10.1,10.1,0,0,1,5,4.33,12.92,12.92,0,0,1,1.89,6.86,11.42,11.42,0,0,1-3.13,8.16q-3.13,3.33-9.67,4.22a15.69,15.69,0,0,1,3.63,2.27,30.56,30.56,0,0,1,5,6l7.86,12.38H524.1l-6-9.46c-1.76-2.73-3.2-4.82-4.34-6.27a13.79,13.79,0,0,0-3.05-3A8.86,8.86,0,0,0,508,586.1a17.43,17.43,0,0,0-3.34-.22h-7v20.19Zm6-25.4h12.92a19.29,19.29,0,0,0,6.44-.85,6.86,6.86,0,0,0,3.53-2.74,7.38,7.38,0,0,0,1.21-4.09,6.78,6.78,0,0,0-2.34-5.31q-2.34-2.08-7.39-2.09H497.64v15.08Zm39.5,25.4V560.58h9L557,592.76c1,3,1.72,5.24,2.17,6.73.52-1.65,1.34-4.08,2.44-7.29l11-31.62h8.05v45.49h-5.81V568l-13.27,38.1H556.1L543,567.33v38.74Zm48.1,0,17.37-45.49h6.6l18.54,45.49H620.9l-5.28-13.79H596.54l-4.95,13.79Zm13.06-18.7h15.44L609,574.8c-1.46-3.82-2.54-7-3.27-9.5a63.22,63.22,0,0,1-2.47,8.77l-5,13.3Zm34.17,18.7V560.58h6.16l23.85,35.71V560.58h5.75v45.49h-6.15l-23.86-35.71v35.71Zm78.25-16,6,1.52q-1.89,7.41-6.8,11.31a18.72,18.72,0,0,1-12,3.89q-7.33,0-11.94-3a18.77,18.77,0,0,1-7-8.67,31,31,0,0,1-2.4-12.19,26.9,26.9,0,0,1,2.71-12.39,18.53,18.53,0,0,1,7.71-8,22.47,22.47,0,0,1,11-2.75,18.55,18.55,0,0,1,11.45,3.48,18.05,18.05,0,0,1,6.47,9.77l-5.91,1.4c-1-3.31-2.57-5.72-4.58-7.23a12.22,12.22,0,0,0-7.55-2.26,14.68,14.68,0,0,0-8.74,2.51,13.23,13.23,0,0,0-4.93,6.74,27.21,27.21,0,0,0-1.43,8.73,27.83,27.83,0,0,0,1.69,10.12,12.58,12.58,0,0,0,5.25,6.47,14.74,14.74,0,0,0,7.71,2.14,12.92,12.92,0,0,0,8.54-2.92q3.49-2.91,4.74-8.65Zm13.52,16V560.58h32.88v5.36H730.24v13.94h25.2v5.36h-25.2v15.47h27.93v5.36Z"/></svg>