<?xml version="1.0" encoding="utf-8"?>
<!-- Generator: Adobe Illustrator 27.9.0, SVG Export Plug-In . SVG Version: 6.00 Build 0)  -->
<svg version="1.1" id="EXT_Wash_Pro_-_Thumbnail" xmlns="http://www.w3.org/2000/svg" xmlns:xlink="http://www.w3.org/1999/xlink"
	 x="0px" y="0px" viewBox="0 0 1024 1024" style="enable-background:new 0 0 1024 1024;" xml:space="preserve">
<style type="text/css">
	.st0{fill-rule:evenodd;clip-rule:evenodd;fill:#BBBBBB;stroke:#1D1D1B;stroke-miterlimit:10;}
	.st1{fill:none;stroke:#1D1D1B;stroke-linecap:round;stroke-linejoin:round;stroke-miterlimit:10;}
	.st2{fill-rule:evenodd;clip-rule:evenodd;fill:#FFFFFF;stroke:#1D1D1B;stroke-miterlimit:10;}
	.st3{stroke:#1D1D1B;stroke-miterlimit:10;}
</style>
<g id="Ext_Washo_Pro_M_CTC">
	<path class="st0" d="M9.5,235.8v552.5c0,124.8,102.7,227.5,227.5,227.5h550c124.8,0,227.5-102.7,227.5-227.5V235.8
		C1014.5,111,911.8,8.3,787,8.3H237C112.2,8.3,9.5,111,9.5,235.8"/>
	<path class="st1" d="M9.5,235.8v552.5c0,124.8,102.7,227.5,227.5,227.5h550c124.8,0,227.5-102.7,227.5-227.5V235.8
		C1014.5,111,911.8,8.3,787,8.3H237C112.2,8.3,9.5,111,9.5,235.8"/>
	<path class="st0" d="M82.3,259.2v505.6c0,97.1,79.9,176.9,176.9,176.9h505.5c97.1,0,177-79.9,177-176.9V259.2
		c0-97.1-79.9-176.9-177-176.9H259.2C162.2,82.3,82.3,162.1,82.3,259.2"/>
	<path class="st1" d="M82.3,259.2v505.6c0,97.1,79.9,176.9,176.9,176.9h505.5c97.1,0,177-79.9,177-176.9V259.2
		c0-97.1-79.9-176.9-177-176.9H259.2C162.2,82.3,82.3,162.1,82.3,259.2"/>
	<path class="st0" d="M321.3,227.4c0-51.2-42.1-93.3-93.3-93.3c-51.2,0-93.3,42.1-93.3,93.3c0,51.2,42.1,93.3,93.3,93.3
		C279.2,320.7,321.3,278.6,321.3,227.4"/>
	<path class="st1" d="M321.3,227.4c0-51.2-42.1-93.3-93.3-93.3c-51.2,0-93.3,42.1-93.3,93.3c0,51.2,42.1,93.3,93.3,93.3
		C279.2,320.7,321.3,278.6,321.3,227.4"/>
	<path class="st0" d="M321.3,417.1c0-51.2-42.1-93.3-93.3-93.3c-51.2,0-93.3,42.1-93.3,93.3s42.1,93.3,93.3,93.3
		C279.2,510.5,321.3,468.3,321.3,417.1"/>
	<path class="st1" d="M321.3,417.1c0-51.2-42.1-93.3-93.3-93.3c-51.2,0-93.3,42.1-93.3,93.3s42.1,93.3,93.3,93.3
		C279.2,510.5,321.3,468.3,321.3,417.1"/>
	<path class="st0" d="M321.3,606.9c0-51.2-42.1-93.3-93.3-93.3c-51.2,0-93.3,42.1-93.3,93.3c0,51.2,42.1,93.3,93.3,93.3
		C279.2,700.2,321.3,658.1,321.3,606.9"/>
	<path class="st1" d="M321.3,606.9c0-51.2-42.1-93.3-93.3-93.3c-51.2,0-93.3,42.1-93.3,93.3c0,51.2,42.1,93.3,93.3,93.3
		C279.2,700.2,321.3,658.1,321.3,606.9"/>
	<path class="st0" d="M321.3,796.6c0-51.2-42.1-93.3-93.3-93.3c-51.2,0-93.3,42.1-93.3,93.3s42.1,93.3,93.3,93.3
		C279.2,889.9,321.3,847.8,321.3,796.6"/>
	<path class="st1" d="M321.3,796.6c0-51.2-42.1-93.3-93.3-93.3c-51.2,0-93.3,42.1-93.3,93.3s42.1,93.3,93.3,93.3
		C279.2,889.9,321.3,847.8,321.3,796.6"/>
	<path class="st0" d="M510.6,227.4c0-51.2-42.1-93.3-93.3-93.3c-51.2,0-93.3,42.1-93.3,93.3c0,51.2,42.1,93.3,93.3,93.3
		C468.5,320.7,510.6,278.6,510.6,227.4"/>
	<path class="st1" d="M510.6,227.4c0-51.2-42.1-93.3-93.3-93.3c-51.2,0-93.3,42.1-93.3,93.3c0,51.2,42.1,93.3,93.3,93.3
		C468.5,320.7,510.6,278.6,510.6,227.4"/>
	<path class="st0" d="M510.6,417.1c0-51.2-42.1-93.3-93.3-93.3c-51.2,0-93.3,42.1-93.3,93.3s42.1,93.3,93.3,93.3
		C468.5,510.5,510.6,468.3,510.6,417.1"/>
	<path class="st1" d="M510.6,417.1c0-51.2-42.1-93.3-93.3-93.3c-51.2,0-93.3,42.1-93.3,93.3s42.1,93.3,93.3,93.3
		C468.5,510.5,510.6,468.3,510.6,417.1"/>
	<path class="st0" d="M510.6,606.9c0-51.2-42.1-93.3-93.3-93.3c-51.2,0-93.3,42.1-93.3,93.3c0,51.2,42.1,93.3,93.3,93.3
		C468.5,700.2,510.6,658.1,510.6,606.9"/>
	<path class="st1" d="M510.6,606.9c0-51.2-42.1-93.3-93.3-93.3c-51.2,0-93.3,42.1-93.3,93.3c0,51.2,42.1,93.3,93.3,93.3
		C468.5,700.2,510.6,658.1,510.6,606.9"/>
	<path class="st0" d="M510.6,796.6c0-51.2-42.1-93.3-93.3-93.3c-51.2,0-93.3,42.1-93.3,93.3s42.1,93.3,93.3,93.3
		C468.5,889.9,510.6,847.8,510.6,796.6"/>
	<path class="st1" d="M510.6,796.6c0-51.2-42.1-93.3-93.3-93.3c-51.2,0-93.3,42.1-93.3,93.3s42.1,93.3,93.3,93.3
		C468.5,889.9,510.6,847.8,510.6,796.6"/>
	<path class="st0" d="M700,227.4c0-51.2-42.1-93.3-93.3-93.3s-93.3,42.1-93.3,93.3c0,51.2,42.1,93.3,93.3,93.3S700,278.6,700,227.4"
		/>
	<path class="st1" d="M700,227.4c0-51.2-42.1-93.3-93.3-93.3s-93.3,42.1-93.3,93.3c0,51.2,42.1,93.3,93.3,93.3S700,278.6,700,227.4"
		/>
	<path class="st0" d="M700,417.1c0-51.2-42.1-93.3-93.3-93.3s-93.3,42.1-93.3,93.3s42.1,93.3,93.3,93.3S700,468.3,700,417.1"/>
	<path class="st1" d="M700,417.1c0-51.2-42.1-93.3-93.3-93.3s-93.3,42.1-93.3,93.3s42.1,93.3,93.3,93.3S700,468.3,700,417.1"/>
	<path class="st0" d="M700,606.9c0-51.2-42.1-93.3-93.3-93.3s-93.3,42.1-93.3,93.3c0,51.2,42.1,93.3,93.3,93.3S700,658.1,700,606.9"
		/>
	<path class="st1" d="M700,606.9c0-51.2-42.1-93.3-93.3-93.3s-93.3,42.1-93.3,93.3c0,51.2,42.1,93.3,93.3,93.3S700,658.1,700,606.9"
		/>
	<path class="st0" d="M700,796.6c0-51.2-42.1-93.3-93.3-93.3s-93.3,42.1-93.3,93.3s42.1,93.3,93.3,93.3S700,847.8,700,796.6"/>
	<path class="st1" d="M700,796.6c0-51.2-42.1-93.3-93.3-93.3s-93.3,42.1-93.3,93.3s42.1,93.3,93.3,93.3S700,847.8,700,796.6"/>
	<path class="st0" d="M889.3,227.4c0-51.2-42.1-93.3-93.3-93.3c-51.2,0-93.3,42.1-93.3,93.3c0,51.2,42.1,93.3,93.3,93.3
		C847.2,320.7,889.3,278.6,889.3,227.4"/>
	<path class="st1" d="M889.3,227.4c0-51.2-42.1-93.3-93.3-93.3c-51.2,0-93.3,42.1-93.3,93.3c0,51.2,42.1,93.3,93.3,93.3
		C847.2,320.7,889.3,278.6,889.3,227.4"/>
	<path class="st0" d="M889.3,417.1c0-51.2-42.1-93.3-93.3-93.3c-51.2,0-93.3,42.1-93.3,93.3s42.1,93.3,93.3,93.3
		C847.2,510.5,889.3,468.3,889.3,417.1"/>
	<path class="st1" d="M889.3,417.1c0-51.2-42.1-93.3-93.3-93.3c-51.2,0-93.3,42.1-93.3,93.3s42.1,93.3,93.3,93.3
		C847.2,510.5,889.3,468.3,889.3,417.1"/>
	<path class="st0" d="M889.3,606.9c0-51.2-42.1-93.3-93.3-93.3c-51.2,0-93.3,42.1-93.3,93.3c0,51.2,42.1,93.3,93.3,93.3
		C847.2,700.2,889.3,658.1,889.3,606.9"/>
	<path class="st1" d="M889.3,606.9c0-51.2-42.1-93.3-93.3-93.3c-51.2,0-93.3,42.1-93.3,93.3c0,51.2,42.1,93.3,93.3,93.3
		C847.2,700.2,889.3,658.1,889.3,606.9"/>
	<path class="st0" d="M889.3,796.6c0-51.2-42.1-93.3-93.3-93.3c-51.2,0-93.3,42.1-93.3,93.3s42.1,93.3,93.3,93.3
		C847.2,889.9,889.3,847.8,889.3,796.6"/>
	<path class="st1" d="M889.3,796.6c0-51.2-42.1-93.3-93.3-93.3c-51.2,0-93.3,42.1-93.3,93.3s42.1,93.3,93.3,93.3
		C847.2,889.9,889.3,847.8,889.3,796.6"/>
	<rect x="57" y="309.8" class="st2" width="910" height="404.4"/>
	<path class="st3" d="M171.4,485.3v-12.9h-42.8v-20.8h38.5v-12.9h-38.5v-17h41.3v-13h-56.8v76.6H171.4L171.4,485.3z M195.3,485.3
		l17-26.5l17,26.5h18.7l-26.2-39.4l23.8-37.2h-17.9l-15,24.6l-15.4-24.6h-18.1l23.7,36.6l-26.2,40H195.3L195.3,485.3z M288.6,485.3
		v-63.6h22.7v-13h-60.9v13h22.7v63.6H288.6L288.6,485.3z M378.6,485.3l15.2-57.3l15.3,57.3h16.4l18.6-76.6h-15.6l-11.8,53.5
		l-13.4-53.5h-18.4l-14,52.6l-11.5-52.6h-15.8l18.3,76.6H378.6L378.6,485.3z M490.4,408.7H474l-29.8,76.6h16.4l6.3-17.4h30.6
		l6.7,17.4h16.8L490.4,408.7L490.4,408.7z M471.7,454.9l10.3-28.4l10.6,28.4H471.7L471.7,454.9z M534.6,479.9
		c5.2,4.5,12.6,6.7,22.3,6.7c6.7,0,12.2-0.9,16.7-2.8c4.5-1.9,7.9-4.7,10.3-8.5c2.4-3.8,3.7-7.9,3.7-12.3c0-4.8-1-8.9-3.1-12.2
		c-2-3.3-4.9-5.9-8.5-7.8c-3.6-1.9-9.2-3.7-16.7-5.5c-7.5-1.8-12.3-3.5-14.2-5.1c-1.5-1.3-2.3-2.8-2.3-4.6c0-2,0.8-3.6,2.5-4.8
		c2.5-1.8,6.1-2.8,10.6-2.8c4.4,0,7.6,0.9,9.8,2.6c2.2,1.7,3.6,4.6,4.3,8.5l15.5-0.7c-0.2-7-2.8-12.7-7.7-16.9
		c-4.9-4.2-12.1-6.3-21.7-6.3c-5.9,0-10.9,0.9-15.1,2.7c-4.2,1.8-7.4,4.4-9.6,7.8c-2.2,3.4-3.3,7-3.3,10.9c0,6.1,2.4,11.2,7.1,15.4
		c3.3,3,9.2,5.5,17.5,7.6c6.4,1.6,10.6,2.7,12.4,3.3c2.6,0.9,4.5,2,5.6,3.3c1.1,1.3,1.6,2.8,1.6,4.6c0,2.8-1.3,5.3-3.8,7.4
		c-2.5,2.1-6.3,3.2-11.3,3.2c-4.7,0-8.4-1.2-11.2-3.6c-2.8-2.4-4.6-6.1-5.5-11.1l-15,1.5C526.3,468.9,529.4,475.4,534.6,479.9
		L534.6,479.9z M616.2,485.3v-33.5h30.3v33.5h15.5v-76.6h-15.5v30.1h-30.3v-30.1h-15.5v76.6H616.2L616.2,485.3z M723.1,485.3v-28.9
		h10.1c7,0,12.3-0.4,16-1.1c2.7-0.6,5.4-1.8,8-3.6c2.6-1.8,4.8-4.3,6.5-7.6c1.7-3.2,2.6-7.2,2.6-11.9c0-6.1-1.5-11.1-4.4-14.9
		c-3-3.8-6.6-6.3-11-7.5c-2.9-0.8-9-1.1-18.4-1.1h-24.8v76.6H723.1L723.1,485.3z M730.6,421.6c5.6,0,9.3,0.2,11.1,0.5
		c2.5,0.5,4.6,1.6,6.2,3.4c1.6,1.8,2.5,4.1,2.5,6.9c0,2.3-0.6,4.3-1.7,6c-1.2,1.7-2.8,3-4.8,3.8c-2.1,0.8-6.1,1.2-12.2,1.2h-8.5
		v-21.7H730.6L730.6,421.6z M794.5,485.3v-32h3.1c3.6,0,6.1,0.3,7.8,0.9c1.6,0.6,3.2,1.6,4.7,3.2s4.2,5.3,8.2,11.3l11.2,16.7h18.5
		l-9.4-14.9c-3.7-6-6.6-10.1-8.8-12.4c-2.2-2.3-4.9-4.5-8.3-6.4c6.7-1,11.8-3.3,15.2-7.1c3.4-3.7,5.1-8.5,5.1-14.2
		c0-4.5-1.1-8.6-3.3-12.1c-2.2-3.5-5.2-6-8.9-7.3c-3.7-1.4-9.7-2.1-17.8-2.1h-32.6v76.6H794.5L794.5,485.3z M794.5,421.6h12.1
		c6.3,0,10,0.1,11.3,0.3c2.5,0.4,4.4,1.4,5.8,3c1.4,1.6,2.1,3.7,2.1,6.2c0,2.3-0.5,4.2-1.6,5.7c-1,1.5-2.5,2.6-4.3,3.2
		c-1.8,0.6-6.5,0.9-13.9,0.9h-11.4V421.6L794.5,421.6z"/>
	<path class="st3" d="M863.3,476.1c6.7,6.9,15.8,10.4,27.2,10.4c11.3,0,20.2-3.5,27-10.5c6.7-7,10.1-16.7,10.1-29
		c0-12.5-3.4-22.2-10.2-29.2c-6.8-7-15.8-10.5-27.1-10.5c-6.2,0-11.7,1-16.5,3c-3.6,1.5-6.9,3.8-9.9,6.9c-3,3.1-5.4,6.6-7.1,10.5
		c-2.3,5.3-3.5,11.8-3.5,19.6C853.2,459.6,856.5,469.2,863.3,476.1L863.3,476.1z M875,427.1c3.9-4.4,9-6.6,15.4-6.6
		c6.4,0,11.5,2.2,15.3,6.5c3.8,4.3,5.8,10.9,5.8,19.6c0,8.9-2,15.5-5.9,20c-4,4.4-9,6.7-15.2,6.7c-6.2,0-11.3-2.2-15.3-6.7
		c-4-4.5-6-11.1-6-19.7C869.1,438.1,871.1,431.5,875,427.1L875,427.1z"/>
	<path class="st3" d="M373.4,611.5v-60.3l15.2,60.3h14.9l15.2-60.3v60.3H433v-76.6h-23.2l-13.7,52.3l-13.9-52.3h-23.1v76.6H373.4
		L373.4,611.5z M520.8,595.7c-3,2.6-6.5,3.9-10.6,3.9c-5.6,0-10.1-2.1-13.6-6.2c-3.5-4.1-5.2-11-5.2-20.7c0-9.1,1.8-15.7,5.3-19.8
		c3.5-4.1,8.1-6.1,13.8-6.1c4.1,0,7.6,1.1,10.5,3.4c2.9,2.3,4.8,5.4,5.7,9.4l15.3-3.7c-1.7-6.1-4.4-10.8-7.8-14.1
		c-5.9-5.5-13.5-8.3-22.8-8.3c-10.7,0-19.4,3.5-26,10.6c-6.6,7.1-9.9,17-9.9,29.7c0,12.1,3.3,21.6,9.8,28.5
		c6.5,6.9,14.9,10.4,25.1,10.4c8.2,0,15-2,20.4-6.1c5.3-4.1,9.2-10.3,11.5-18.6l-15-4.8C525.9,589,523.7,593.1,520.8,595.7
		L520.8,595.7z M588.1,611.5v-63.6h22.7v-13h-60.9v13h22.7v63.6H588.1L588.1,611.5z"/>
	<path class="st3" d="M663.4,595.7c-3,2.6-6.5,3.9-10.6,3.9c-5.6,0-10.1-2.1-13.6-6.2c-3.5-4.1-5.2-11-5.2-20.7
		c0-9.1,1.8-15.7,5.3-19.8c3.5-4.1,8.1-6.1,13.8-6.1c4.1,0,7.6,1.1,10.5,3.4c2.9,2.3,4.8,5.4,5.7,9.4l15.3-3.7
		c-1.7-6.1-4.4-10.8-7.8-14.1c-5.9-5.5-13.5-8.3-22.8-8.3c-10.7,0-19.4,3.5-26,10.6c-6.6,7.1-9.9,17-9.9,29.7
		c0,12.1,3.3,21.6,9.8,28.5c6.5,6.9,14.9,10.4,25.1,10.4c8.2,0,15-2,20.4-6.1c5.3-4.1,9.2-10.3,11.5-18.6l-15-4.8
		C668.5,589,666.4,593.1,663.4,595.7L663.4,595.7z"/>
</g>
</svg>
