<?xml version="1.0" encoding="UTF-8"?>
<svg id="MAC_One_Beam" xmlns="http://www.w3.org/2000/svg" version="1.1" viewBox="0 0 1024 1024">
  <!-- Generator: Adobe Illustrator 30.0.0, SVG Export Plug-In . SVG Version: 2.1.1 Build 123)  -->
  <defs>
    <style>
      .st0 {
        fill: #fff;
      }

      .st1 {
        fill-rule: evenodd;
        stroke-miterlimit: 10;
      }

      .st1, .st2 {
        fill: #bbb;
      }

      .st1, .st3 {
        stroke: #000;
      }

      .st3 {
        fill: none;
        stroke-linecap: round;
        stroke-linejoin: round;
      }
    </style>
  </defs>
  <g id="MAC_One_Beam1" data-name="MAC_One_Beam">
    <path class="st1" d="M18.7,808.3l-8.2-67.5v-276.3c5.7-20.6,12.3-41,19.8-61,7.5-20,15.8-39.7,25-59.1,9.2-19.3,19.2-38.2,30-56.7,10.8-18.5,22.4-36.4,34.7-53.9,61.2-28.4,125.2-50,191-64.6,65.8-14.6,133-21.9,200.4-22,67.4,0,134.6,7.2,200.5,21.6,65.9,14.4,130,35.9,191.2,64.1,11.8,17.7,23.1,35.9,33.6,54.4,10.6,18.5,20.5,37.4,29.7,56.6,9.2,19.2,17.8,38.7,25.6,58.6,7.8,19.8,15,39.9,21.4,60.2v278.7l-10,66h-471.4l-11.8,16.4v7.2h-242.2v-8l-9.4-16.3-249.8,1.6"/>
    <path class="st1" d="M40.8,783.1l-5.3-43.8v-271.3c5.4-19.1,11.5-37.9,18.5-56.5,6.9-18.6,14.6-36.8,23.1-54.8,8.5-17.9,17.6-35.5,27.6-52.7,9.9-17.2,20.5-33.9,31.8-50.2,58.7-26.7,120-47.1,183-60.7,63-13.7,127.2-20.6,191.7-20.7,64.4,0,128.7,6.7,191.7,20.2,63,13.5,124.4,33.7,183.2,60.2,10.9,16.6,21.2,33.5,30.9,50.7,9.7,17.3,18.9,34.8,27.4,52.7,8.5,17.9,16.5,36,23.8,54.4,7.3,18.4,14,37.1,20.1,55.9v272.9l-6.5,42.8h-462.8l-16.9,23.6h-205.1l-14.1-24.4-242.1,1.6"/>
    <path class="st1" d="M939.5,635.1l-11.5,19.9-84.8,10.4v-39.6l-31-6.4-173.2,8.2c-9.5,6.1-19.3,11.6-29.5,16.5-10.2,4.9-20.7,9.1-31.4,12.6-10.7,3.5-21.6,6.4-32.7,8.6-11.1,2.2-22.3,3.6-33.5,4.4-11.3-.7-22.5-2.2-33.5-4.4-11.1-2.2-22-5-32.7-8.6-10.7-3.5-21.2-7.8-31.4-12.6-10.2-4.9-20-10.4-29.5-16.5l-173.2-8.2-31,6.4v39.6l-84.8-10.4-11.5-19.9c-2.5-12-4.7-24.1-6.7-36.2-2-12.1-3.7-24.2-5.2-36.4-1.5-12.2-2.7-24.4-3.7-36.6-1-12.2-1.7-24.5-2.2-36.7.5-12.3,1.2-24.5,2.2-36.7,1-12.2,2.2-24.4,3.7-36.6,1.5-12.2,3.2-24.3,5.2-36.4,2-12.1,4.2-24.2,6.7-36.2l11.5-19.9,84.8-10.4v39.6l31,6.4,173.2-8.2c9.5-6.1,19.3-11.6,29.5-16.5,10.2-4.9,20.7-9.1,31.4-12.6,10.7-3.5,21.6-6.4,32.7-8.6,11.1-2.2,22.3-3.6,33.5-4.4,11.3.7,22.5,2.2,33.5,4.4,11.1,2.2,22,5,32.7,8.6,10.7,3.5,21.2,7.8,31.4,12.6,10.2,4.9,20,10.4,29.5,16.5l173.2,8.2,31-6.4v-39.6l84.8,10.4,11.5,19.9c2.5,12,4.7,24.1,6.7,36.2,2,12.1,3.7,24.2,5.2,36.4,1.5,12.2,2.7,24.4,3.7,36.6,1,12.2,1.7,24.5,2.2,36.7-.5,12.3-1.2,24.5-2.2,36.7-1,12.2-2.2,24.4-3.7,36.6-1.5,12.2-3.2,24.3-5.2,36.4-2,12.1-4.2,24.2-6.7,36.2"/>
    <path class="st2" d="M846,565.9l-10,12.1v89.1l-19.1,3.6-35.7,16.7-17.2,29.7c-6.5,7.7-13.5,15.1-20.8,22.2-7.3,7-14.9,13.7-22.9,20s-16.2,12.1-24.8,17.6c-8.5,5.4-17.4,10.5-26.4,15-12.7,4-25.5,7.4-38.5,10.3-13,2.9-26,5.2-39.2,7-13.2,1.8-26.4,3-39.7,3.7-13.3.7-26.6.8-39.8.3-13.3.4-26.6.3-39.8-.3-13.3-.7-26.5-1.9-39.7-3.7-13.2-1.8-26.2-4.1-39.2-7-13-2.9-25.8-6.3-38.5-10.3-9-4.6-17.9-9.6-26.4-15-8.5-5.4-16.8-11.3-24.8-17.6-8-6.3-15.6-12.9-22.9-20s-14.2-14.4-20.8-22.2l-17.2-29.7-35.7-16.7-19.1-3.6v-89.1l-10-12.1v-153.1l10-12.1v-89.1l19.1-3.6,35.7-16.7,17.2-29.7c6.5-7.7,13.5-15.1,20.8-22.2,7.3-7,14.9-13.7,22.9-20,8-6.3,16.2-12.1,24.8-17.6,8.5-5.4,17.4-10.5,26.4-15,12.7-4,25.5-7.4,38.5-10.3,13-2.9,26-5.2,39.2-7,13.2-1.8,26.4-3,39.7-3.7,13.3-.7,26.6-.8,39.8-.3,13.3-.4,26.6-.3,39.8.3,13.3.7,26.5,1.9,39.7,3.7,13.2,1.8,26.2,4.1,39.2,7,13,2.9,25.8,6.3,38.5,10.3,9,4.6,17.9,9.6,26.4,15,8.5,5.4,16.8,11.3,24.8,17.6,8,6.3,15.6,12.9,22.9,20,7.3,7,14.2,14.4,20.8,22.2l17.2,29.7,35.7,16.7,19.1,3.6v89.1l10,12.1v153.1"/>
    <path class="st3" d="M846,565.9l-10,12.1v89.1l-19.1,3.6-35.7,16.7-17.2,29.7c-6.5,7.7-13.5,15.1-20.8,22.2-7.3,7-14.9,13.7-22.9,20s-16.2,12.1-24.8,17.6c-8.5,5.4-17.4,10.5-26.4,15-12.7,4-25.5,7.4-38.5,10.3-13,2.9-26,5.2-39.2,7-13.2,1.8-26.4,3-39.7,3.7-13.3.7-26.6.8-39.8.3-13.3.4-26.6.3-39.8-.3-13.3-.7-26.5-1.9-39.7-3.7-13.2-1.8-26.2-4.1-39.2-7-13-2.9-25.8-6.3-38.5-10.3-9-4.6-17.9-9.6-26.4-15-8.5-5.4-16.8-11.3-24.8-17.6-8-6.3-15.6-12.9-22.9-20s-14.2-14.4-20.8-22.2l-17.2-29.7-35.7-16.7-19.1-3.6v-89.1l-10-12.1v-153.1l10-12.1v-89.1l19.1-3.6,35.7-16.7,17.2-29.7c6.5-7.7,13.5-15.1,20.8-22.2,7.3-7,14.9-13.7,22.9-20,8-6.3,16.2-12.1,24.8-17.6,8.5-5.4,17.4-10.5,26.4-15,12.7-4,25.5-7.4,38.5-10.3,13-2.9,26-5.2,39.2-7,13.2-1.8,26.4-3,39.7-3.7,13.3-.7,26.6-.8,39.8-.3,13.3-.4,26.6-.3,39.8.3,13.3.7,26.5,1.9,39.7,3.7,13.2,1.8,26.2,4.1,39.2,7,13,2.9,25.8,6.3,38.5,10.3,9,4.6,17.9,9.6,26.4,15,8.5,5.4,16.8,11.3,24.8,17.6,8,6.3,15.6,12.9,22.9,20,7.3,7,14.2,14.4,20.8,22.2l17.2,29.7,35.7,16.7,19.1,3.6v89.1l10,12.1v153.1"/>
    <path class="st3" d="M820.7,489.4c0-169.4-139.4-308.7-308.7-308.7S203.3,320,203.3,489.4s139.4,308.7,308.7,308.7,308.7-139.4,308.7-308.7"/>
    <path class="st3" d="M811.6,489.4c0-164.3-135.2-299.6-299.6-299.6S212.4,325,212.4,489.4s135.2,299.6,299.6,299.6,299.6-135.2,299.6-299.6"/>
    <path class="st3" d="M789.9,489.4c0-152.5-125.5-277.9-277.9-277.9s-277.9,125.5-277.9,277.9,125.5,277.9,277.9,277.9,277.9-125.5,277.9-277.9"/>
    <rect class="st0" x="333.3" y="290.1" width="357.3" height="397"/>
    <rect class="st3" x="333.3" y="290.1" width="357.3" height="397"/>
    <path d="M420.5,401.1v-56.7c.1,0,14.2,56.7,14.2,56.7h14l14.3-56.7v56.7h13.5v-71.9h-21.9l-12.7,49-13-49h-21.8v71.9h13.5ZM527.3,329.1h-15.4l-27.9,71.9h15.4l6-16.4h28.8l6.2,16.4h15.7l-28.8-71.9ZM509.8,372.5l9.7-26.6,9.9,26.6h-19.7ZM604.1,386.1c-2.7,2.5-6,3.7-9.9,3.7s-9.4-1.9-12.8-5.8c-3.3-3.8-4.9-10.2-4.9-19.4s1.7-14.8,5-18.6c3.3-3.8,7.6-5.7,13-5.7s7.1,1.1,9.8,3.2c2.7,2.2,4.5,5.1,5.3,8.8l14.4-3.4c-1.6-5.7-4.1-10.1-7.3-13.3-5.5-5.2-12.7-7.8-21.5-7.8s-18.2,3.3-24.4,9.9c-6.1,6.6-9.2,16-9.2,27.9s3.1,20.2,9.2,26.7c6.1,6.5,14,9.8,23.5,9.8s14.2-1.9,19.2-5.7c5-3.9,8.6-9.7,10.7-17.7l-14.1-4.3c-1.2,5.2-3.2,9.1-6,11.6h0Z"/>
    <path d="M433.3,511.5c6.3,6.5,14.9,9.8,25.5,9.8s19.1-3.3,25.4-9.8c6.3-6.6,9.4-15.7,9.4-27.3s-3.2-20.9-9.5-27.5c-6.3-6.5-14.9-9.8-25.4-9.8s-11,.9-15.6,2.8c-3.3,1.4-6.4,3.6-9.3,6.5-2.8,2.9-5,6.2-6.6,9.8-2.2,5-3.3,11.1-3.3,18.5,0,11.6,3.1,20.5,9.4,27h0ZM444.4,465.4c3.6-4.1,8.5-6.1,14.5-6.1s10.8,2,14.5,6.1c3.6,4,5.4,10.1,5.4,18.5s-1.9,14.6-5.6,18.8c-3.7,4.1-8.4,6.2-14.3,6.2s-10.5-2.1-14.4-6.3c-3.7-4.2-5.6-10.3-5.6-18.5s1.8-14.6,5.5-18.7h0ZM552.7,487.7c0-4-.3-7.1-.8-9.2-.5-2.2-1.4-4.1-2.7-5.8s-3.2-3.1-5.7-4.2-5.3-1.6-8.3-1.6c-6.9,0-12.8,2.9-17.3,8.7v-7.6h-12.8v52.1h13.8v-23.6c0-5.8.4-9.7,1.1-12,.7-2.1,2-3.8,3.9-5.1,1.9-1.3,4-2,6.4-2s3.5.5,4.8,1.4c1.4.9,2.3,2.2,2.9,3.8s.9,5.3.9,10.9v26.5h13.8v-32.3ZM593.7,509.2c-1.5,1.2-3.3,1.8-5.4,1.8-3.2,0-5.8-1.1-7.9-3.4s-3.2-5.4-3.3-9.5h34.5c.2-10.5-1.9-18.4-6.4-23.5-4.4-5.1-10.5-7.7-18.3-7.7s-12.7,2.4-17.2,7.3c-4.5,4.9-6.7,11.7-6.7,20.3s1.7,13.3,5.1,18c4.4,5.9,11,8.9,20.1,8.9s10.5-1.3,14.4-3.9c3.8-2.7,6.5-6.5,8.3-11.6l-13.8-2.3c-.7,2.6-1.8,4.5-3.3,5.6h0ZM577.2,489.6c0-3.8,1-6.7,2.9-8.9,2-2.2,4.4-3.3,7.4-3.3s5.2,1,7.1,3.1c2,2.1,3,5.1,3.1,9.1h-20.6Z"/>
    <path d="M384.9,639h24.5c9.2-.1,15.1-.2,17.5-.5,3.9-.4,7.1-1.5,9.7-3.4,2.6-1.8,4.7-4.3,6.2-7.4s2.3-6.2,2.3-9.5-1.2-7.8-3.5-10.8c-2.3-3.1-5.7-5.3-10-6.5,3-1.4,5.5-3.5,7.3-6.3s2.7-5.9,2.7-9.2-.7-5.9-2.2-8.4c-1.5-2.5-3.3-4.5-5.5-5.9-2.2-1.5-4.7-2.5-7.5-3s-7-.7-12.8-.7h-28.7v71.9ZM407.8,579.1c6.8,0,10.9.1,12.4.2,2.4.3,4.3,1.2,5.5,2.5,1.2,1.4,1.8,3.2,1.8,5.4s-.7,4.2-2.1,5.6-3.4,2.3-5.8,2.6c-1.4.1-4.9.2-10.5.2h-9.5v-16.6h8.3ZM411.2,607.6c6.6,0,10.8.3,12.9,1,2,.7,3.5,1.8,4.5,3.3,1.1,1.5,1.6,3.3,1.6,5.5s-.7,4.6-2,6.1c-1.4,1.5-3.1,2.5-5.3,2.9-1.4.3-4.7.4-9.9.4h-13.5v-19.3h11.8ZM484.4,628.2c-1.5,1.2-3.3,1.8-5.4,1.8-3.2,0-5.8-1.1-7.9-3.4s-3.2-5.4-3.3-9.5h34.5c.2-10.5-1.9-18.4-6.4-23.5-4.4-5.1-10.5-7.7-18.3-7.7s-12.7,2.4-17.2,7.3c-4.5,4.9-6.7,11.7-6.7,20.3s1.7,13.3,5.1,18c4.4,5.9,11,8.9,20.1,8.9s10.5-1.3,14.4-3.9c3.8-2.7,6.5-6.5,8.3-11.6l-13.8-2.3c-.7,2.6-1.8,4.5-3.3,5.6h0ZM467.9,608.6c0-3.8,1-6.7,2.9-8.9,2-2.2,4.4-3.3,7.4-3.3s5.2,1,7.1,3.1c2,2.1,3,5.1,3.1,9.1h-20.6ZM527.2,597.9c1.4-1,3.3-1.5,5.8-1.5,3.6,0,6,.6,7.3,1.7s2,3,2,5.7v1.4c-2.5,1-6.9,2.2-13.4,3.4-4.8.9-8.4,1.9-10.9,3.2-2.5,1.2-4.5,2.9-5.9,5.2s-2.1,4.9-2.1,7.9c0,4.4,1.5,8.1,4.6,11s7.3,4.3,12.7,4.3,5.8-.6,8.5-1.7c2.7-1.2,5.2-2.9,7.5-5.2.1.3.3.8.5,1.6.5,1.8.9,3.1,1.3,4h13.7c-1.2-2.5-2-4.8-2.4-7-.5-2.1-.7-5.5-.7-10l.2-16.1c0-6-.6-10.1-1.8-12.4-1.3-2.2-3.4-4.1-6.4-5.5-3-1.5-7.5-2.2-13.7-2.2s-12,1.2-15.4,3.7c-3.4,2.4-5.8,6.1-7.2,11.2l12.5,2.2c.8-2.4,2-4.2,3.3-5.1h0ZM542.4,616.8c0,3.3-.2,5.5-.5,6.7-.6,1.8-1.6,3.3-3.3,4.6-2.3,1.6-4.6,2.4-7.1,2.4s-4-.7-5.5-2.1c-1.4-1.4-2.1-3.1-2.1-5s.9-3.5,2.7-4.8c1.2-.8,3.6-1.6,7.5-2.4,3.8-.8,6.5-1.5,8.3-2.1v2.7ZM568.7,639h13.8v-25.3c0-5,.4-8.5,1.1-10.7.7-2.1,1.9-3.8,3.6-4.9s3.6-1.7,5.7-1.7,3.2.4,4.2,1.1,1.8,1.8,2.3,3.2c.5,1.5.7,4.8.7,9.8v28.5h13.8v-25c0-4.9.4-8.4,1.1-10.7.8-2.3,2-4,3.7-5.1,1.7-1.2,3.5-1.8,5.4-1.8,2.7,0,4.6,1,5.9,2.9.9,1.5,1.4,4.8,1.4,10v29.7h13.8v-33.2c0-5-.5-8.6-1.4-10.8-1.3-3-3.3-5.2-5.9-6.8-2.7-1.5-5.9-2.3-9.7-2.3s-5.8.7-8.4,2.1c-2.7,1.3-5.1,3.4-7.4,6.2-1.6-2.8-3.6-4.9-6-6.2-2.5-1.4-5.3-2.1-8.6-2.1-6.3,0-11.8,2.7-16.3,8.2v-7.1h-12.7v52.1Z"/>
  </g>
</svg>