<?xml version="1.0" encoding="utf-8"?>
<!-- Generator: Adobe Illustrator 25.4.1, SVG Export Plug-In . SVG Version: 6.00 Build 0)  -->
<svg version="1.1" id="MAC_Viper_Profile_-_Thumbnail"
	 xmlns="http://www.w3.org/2000/svg" xmlns:xlink="http://www.w3.org/1999/xlink" x="0px" y="0px" viewBox="0 0 1024 1024"
	 style="enable-background:new 0 0 1024 1024;" xml:space="preserve">
<style type="text/css">
	.st0{fill-rule:evenodd;clip-rule:evenodd;fill:#CCCCCC;stroke:#1D1D1B;stroke-miterlimit:10;}
	.st1{fill:none;stroke:#1D1D1B;stroke-linecap:round;stroke-linejoin:round;stroke-miterlimit:10;}
	.st2{fill-rule:evenodd;clip-rule:evenodd;fill:#FFFFFF;stroke:#1D1D1B;stroke-miterlimit:10;}
	.st3{stroke:#1D1D1B;stroke-miterlimit:10;}
</style>
<g>
	<path class="st0" d="M808.3,268.2l-27.8,24.1l-17.3-1.8H260.7l-17.3,1.8l-27.8-24.1l-58.8,12.3l-17.2,38.1l-18.8,53.7l-11.8,93.5
		l-6.6,90l6.6,90l11.8,93.5l18.8,53.7l17.2,38.1l58.8,12.3l27.8-24.1l17.3,1.8h502.5l17.3-1.8l27.8,24.1l58.8-12.3l17.2-38.1
		l18.8-53.7l11.8-93.5l6.6-90l-6.6-90l-11.8-93.5l-18.8-53.7l-17.2-38.1L808.3,268.2 M130.5,457.9c0-4.1,0.4-9.7,1.2-16.8
		c0.8-7.1,1.9-12.7,3.2-16.8c1.4-4.1,2.4-6.2,3.2-6.2h36.4c1.6,0,3,2.1,4.4,6.2c1.4,4.1,2.4,9.7,3.2,16.8c0.8,7.1,1.2,12.7,1.2,16.8
		v196.1c0,4.1-0.4,9.7-1.2,16.8c-0.8,7.1-1.9,12.7-3.2,16.8c-1.4,4.1-2.4,6.2-3.2,6.2h-37.6c-0.8,0-1.9-2.1-3.2-6.2
		c-1.4-4.1-2.4-9.7-3.2-16.8c-0.8-7.1-1.2-12.7-1.2-16.8V457.9 M889.5,686.5c-1.4,4.1-2.4,6.2-3.2,6.2l-36.4,0.1c-1.6,0-3-2-4.4-6.1
		c-1.4-4.1-2.5-9.7-3.3-16.8c-0.8-7.1-1.2-12.7-1.2-16.8l-0.6-196.1c0-4.1,0.4-9.7,1.1-16.8c0.8-7.1,1.8-12.7,3.2-16.8
		c1.4-4.1,2.4-6.2,3.2-6.2l37.6-0.1c0.8,0,1.9,2,3.2,6.1c1.4,4.1,2.5,9.7,3.3,16.8c0.8,7.1,1.2,12.7,1.2,16.8l0.6,196
		c0,4.1-0.4,9.7-1.1,16.8C891.9,676.7,890.8,682.3,889.5,686.5"/>
	<polyline class="st0" points="234.7,812.9 198.9,807.2 162.3,792.8 138.1,693.7 	"/>
	<polyline class="st0" points="234.9,299.1 199.1,304.7 162.5,319.1 138.1,418.1 	"/>
	<polyline class="st0" points="788.5,813.7 824.4,808.2 860.9,793.8 885.5,694.8 	"/>
	<polyline class="st0" points="789.8,299.9 825.7,305.6 862.2,320.1 886.3,419.2 	"/>
	<polyline class="st0" points="227.8,422.4 511.7,422 795.5,422.4 851.3,428.6 911,465.8 918.9,555.4 911,647 850.4,684.1 
		797.5,690.3 225.9,690.3 173,684.1 112.4,647 104.5,555.4 112.3,465.8 172,428.6 227.8,422.4 	"/>
	<polyline class="st0" points="815,673.4 833.2,655.9 836.9,638.3 843.7,555.5 837.3,471.8 829,450.6 810.6,440.3 831.1,435.8 
		850.9,449.2 858.7,469.1 864.5,554.6 858.7,640.1 848.3,667.8 832.2,678.6 813.7,672.8 815.8,675.6 814.3,673.1 	"/>
	<polyline class="st0" points="208.4,673.4 190.2,655.9 186.4,638.3 179.7,555.5 186.1,471.8 194.3,450.6 212.8,440.3 192.3,435.8 
		172.4,449.2 164.6,469.1 158.9,554.6 164.6,640.1 175,667.8 191.1,678.6 209.6,672.8 207.5,675.6 209,673.1 	"/>
	<path class="st1" d="M208.4,673.4l-18.2-17.5l-3.7-17.7l-6.8-82.8l6.4-83.7l8.3-21.2l18.5-10.2l-20.5-4.5l-19.9,13.3l-7.8,19.9
		l-5.7,85.5l5.7,85.5l10.4,27.7l16.1,10.8l18.5-5.8l-2.1,2.8l1.5-2.5 M771.2,422.4v267.9 M252.1,422.4l0.4,267.9 M227.8,422.4
		l0.4,267.9 M795.5,422.4l2,267.9"/>
	<polyline class="st0" points="512.4,1001.3 422.4,996.5 375.6,988 365.2,977.7 354.7,941.4 287.1,917.4 274.9,896.7 243.5,824.2 
		236.5,794.7 233.7,784.6 228.3,690.3 229.2,422.4 260.4,292.9 274,211.5 320.4,145.6 342.8,122.9 678.5,122.3 701,144.8 
		747.7,210.6 761.5,291.9 795.5,422.4 796.4,690.3 791,784.6 788.2,794.7 780.6,823.1 749.4,895.8 737.3,916.6 711.3,928.7 
		669.8,940.8 659.4,977.1 649.1,987.5 602.3,996.2 512.4,1001.3 	"/>
	<rect x="365.6" y="821.9" class="st0" width="292.1" height="87.2"/>
	<path class="st1" d="M365.6,821.9h292.1v87.2H365.6V821.9z M645.8,893.7H379.1 M645.8,881.2H379.1 M645.8,868.6H379.1 M645.8,856.1
		H379.1 M645.8,843.5H379.1 M645.8,830.9H379.1"/>
	<polyline class="st0" points="665.7,888.9 688.7,892.3 732.3,860.3 762.3,785.1 740.3,374.9 667.5,168.8 	"/>
	<polyline class="st0" points="358.9,888.9 336,892.3 292.4,860.3 262.3,785.1 284.4,374.9 357.2,168.8 	"/>
	<path class="st1" d="M358.9,888.9l-22.9,3.4l-43.6-32l-30-75.2l22-410.2l72.8-206 M650.8,162.1l72.7,202.5 M370.8,162.1
		l-72.7,202.5"/>
	<polyline class="st0" points="342.8,122.9 317,20.9 704,20.2 678.5,122.3 342.8,122.9 	"/>
	<rect x="278.2" y="436.7" class="st2" width="466.9" height="239.1"/>
	<path class="st3" d="M360.2,541.6v-35.7l12.1,35.7h5l12.2-35.1v35.1h5.4v-41.9h-7.5l-10,29.2c-1,3-1.8,5.2-2.2,6.7
		c-0.4-1.4-1.1-3.4-2-6.2l-9.9-29.7h-8.4v41.9H360.2L360.2,541.6z M405.2,541.6l4.6-12.7h17.5l4.9,12.7h6.3l-17.2-41.9h-6
		l-16.1,41.9H405.2L405.2,541.6z M416,512.1c1-2.7,1.7-5.3,2.3-8c0.6,2.3,1.6,5.2,3,8.7l4.4,11.6h-14.2L416,512.1L416,512.1z
		 M468.5,534.9c-2.2,1.8-4.8,2.7-7.9,2.7c-2.6,0-4.9-0.7-7.1-2c-2.2-1.3-3.8-3.3-4.9-6c-1-2.7-1.6-5.8-1.6-9.3
		c0-2.8,0.4-5.5,1.3-8.1c0.9-2.6,2.4-4.7,4.6-6.2c2.2-1.5,4.9-2.3,8.1-2.3c2.8,0,5.1,0.7,7,2.1c1.9,1.4,3.3,3.6,4.2,6.7l5.5-1.3
		c-1.1-3.9-3.1-6.9-6-9c-2.9-2.1-6.4-3.2-10.6-3.2c-3.7,0-7.1,0.8-10.2,2.5c-3.1,1.7-5.5,4.2-7.1,7.4c-1.7,3.3-2.5,7.1-2.5,11.4
		c0,4,0.7,7.8,2.2,11.2c1.5,3.5,3.6,6.2,6.5,8c2.8,1.8,6.5,2.8,11,2.8c4.4,0,8.1-1.2,11.1-3.6c3-2.4,5.1-5.9,6.3-10.4l-5.6-1.4
		C472.1,530.4,470.7,533.1,468.5,534.9L468.5,534.9z M519.2,541.6l16.4-41.9H530l-11.3,30.5c-0.9,2.3-1.6,4.6-2.3,6.9
		c-0.6-2.1-1.3-4.4-2.2-6.9l-10.9-30.5h-6l16.3,41.9H519.2L519.2,541.6z M547.1,541.6v-41.9h-5.6v41.9H547.1L547.1,541.6z
		 M562.5,541.6v-17.1h10.8c5.9,0,10-1.2,12.3-3.7c2.3-2.5,3.4-5.5,3.4-9.1c0-2.1-0.4-4-1.3-5.7c-0.8-1.7-2-3.1-3.4-4
		c-1.4-1-3.1-1.6-5.2-2c-1.5-0.3-3.6-0.4-6.4-0.4h-15.8v41.9H562.5L562.5,541.6z M562.5,504.6h10.7c2.5,0,4.2,0.1,5.2,0.4
		c1.4,0.4,2.6,1.2,3.5,2.5c0.9,1.2,1.3,2.8,1.3,4.5c0,2.4-0.8,4.3-2.3,5.6c-1.5,1.3-4.1,2-7.6,2h-10.8V504.6L562.5,504.6z
		 M627.4,541.6v-5h-25.8v-14.3h23.2v-4.9h-23.2v-12.8h24.8v-5h-30.3v41.9H627.4L627.4,541.6z M640.7,541.6V523h6.4
		c1.4,0,2.5,0.1,3.1,0.2c0.9,0.2,1.7,0.6,2.5,1.1c0.8,0.5,1.8,1.5,2.8,2.8c1,1.3,2.4,3.3,4,5.8l5.6,8.7h7l-7.3-11.4
		c-1.4-2.2-3-4.1-4.6-5.6c-0.8-0.7-1.9-1.4-3.3-2.1c4-0.6,7-1.9,8.9-3.9c1.9-2,2.9-4.5,2.9-7.5c0-2.3-0.6-4.4-1.7-6.3
		c-1.2-1.9-2.7-3.2-4.7-4c-1.9-0.8-4.8-1.1-8.5-1.1h-18.6v41.9H640.7L640.7,541.6z M640.7,504.3H654c3.1,0,5.4,0.6,6.8,1.9
		c1.4,1.3,2.2,2.9,2.2,4.9c0,1.4-0.4,2.6-1.1,3.8c-0.7,1.2-1.8,2-3.3,2.5c-1.4,0.5-3.4,0.8-6,0.8h-11.9V504.3L640.7,504.3z"/>
	<path class="st3" d="M396.9,608.6v-17h10.7c5.9,0,10-1.2,12.3-3.7c2.3-2.5,3.4-5.5,3.4-9c0-2.1-0.4-4-1.3-5.7c-0.8-1.7-2-3.1-3.4-4
		c-1.4-1-3.1-1.6-5.2-2c-1.5-0.3-3.6-0.4-6.4-0.4h-15.8v41.8H396.9L396.9,608.6z M396.9,571.8h10.7c2.5,0,4.2,0.1,5.2,0.4
		c1.4,0.4,2.6,1.2,3.5,2.5c0.9,1.2,1.3,2.7,1.3,4.5c0,2.4-0.8,4.3-2.3,5.6c-1.5,1.3-4,2-7.6,2h-10.8V571.8L396.9,571.8z
		 M435.9,608.6v-18.6h6.4c1.4,0,2.5,0.1,3.1,0.2c0.9,0.2,1.7,0.6,2.5,1.1c0.8,0.5,1.8,1.5,2.8,2.8c1,1.3,2.4,3.3,4,5.8l5.5,8.7h7
		l-7.3-11.4c-1.4-2.2-3-4.1-4.6-5.6c-0.8-0.7-1.9-1.4-3.3-2.1c4-0.6,7-1.8,8.9-3.9c1.9-2,2.9-4.5,2.9-7.5c0-2.3-0.6-4.4-1.7-6.3
		c-1.2-1.9-2.7-3.2-4.6-4c-1.9-0.8-4.8-1.1-8.5-1.1h-18.5v41.8H435.9L435.9,608.6z M435.9,571.5h13.2c3.1,0,5.4,0.6,6.8,1.9
		c1.4,1.3,2.2,2.9,2.2,4.9c0,1.3-0.4,2.6-1.1,3.7c-0.7,1.2-1.8,2-3.3,2.5c-1.4,0.5-3.4,0.8-5.9,0.8h-11.9V571.5L435.9,571.5z
		 M473.2,598.7c1.6,3.3,3.9,5.9,7,7.8c3.1,1.9,6.6,2.9,10.5,2.9c3.6,0,7-0.9,10.2-2.6c3.1-1.7,5.6-4.3,7.3-7.6
		c1.7-3.3,2.6-7.1,2.6-11.4c0-4.2-0.8-7.9-2.4-11.2c-1.6-3.3-4-5.9-7.1-7.7c-3.1-1.8-6.6-2.8-10.4-2.8c-5.9,0-10.7,2-14.4,5.9
		c-3.7,3.9-5.6,9.4-5.6,16.3C470.8,592,471.6,595.4,473.2,598.7L473.2,598.7z M480.7,574.9c2.8-2.7,6.2-4,10.1-4
		c2.8,0,5.2,0.7,7.5,2.1c2.2,1.4,3.9,3.4,5,5.9c1.1,2.5,1.7,5.5,1.7,8.9c0,5.4-1.3,9.5-4,12.5c-2.7,2.9-6.1,4.4-10.3,4.4
		c-4.1,0-7.5-1.4-10.2-4.3c-2.7-2.9-4.1-6.9-4.1-11.9C476.5,582.1,477.9,577.6,480.7,574.9L480.7,574.9z M523.7,608.6v-19h19.6v-4.9
		h-19.6v-12.9h22.7v-4.9h-28.2v41.8H523.7L523.7,608.6z M560,608.6v-41.8h-5.5v41.8H560L560,608.6z M595.6,608.6v-4.9h-20.6v-36.9
		h-5.5v41.8H595.6L595.6,608.6z M633.5,608.6v-4.9h-25.7v-14.2H631v-4.9h-23.1v-12.8h24.7v-4.9h-30.2v41.8H633.5L633.5,608.6z"/>
</g>
</svg>
