<?xml version="1.0" encoding="UTF-8"?>
<svg id="MAC_Aura_XIP" data-name="MAC Aura XIP" xmlns="http://www.w3.org/2000/svg" viewBox="0 0 1024 1024">
  <defs>
    <style>
      .cls-1, .cls-2, .cls-3, .cls-4, .cls-5 {
        stroke: #000;
        stroke-width: 2px;
      }

      .cls-1, .cls-2, .cls-3, .cls-5 {
        stroke-miterlimit: 10;
      }

      .cls-1, .cls-5 {
        fill: #ccc;
      }

      .cls-3 {
        fill: #fff;
      }

      .cls-4 {
        fill: none;
        stroke-linecap: round;
        stroke-linejoin: round;
      }

      .cls-5 {
        fill-rule: evenodd;
      }
    </style>
  </defs>
  <path class="cls-5" d="M962.04,356.28c4.98,111.43,3.99,222.8-3.01,334.11l-58.91,99.52H123.88l-58.91-99.52c-7-111.32-7.99-222.68-3.01-334.11,8.91-12.5,18.17-24.76,27.79-36.73,9.62-11.97,19.59-23.66,29.87-35.07,10.3-11.4,20.91-22.5,31.84-33.28,10.93-10.79,22.19-21.27,33.72-31.41H838.82c11.53,10.14,22.78,20.62,33.72,31.41,10.93,10.78,21.55,21.88,31.84,33.28,10.28,11.4,20.25,23.1,29.87,35.07,9.62,11.98,18.88,24.24,27.79,36.73M109.58,624.44l45.74-56.22,1.28-225.51-16.84-14.93-51.77,31.76-6.98,20.96-6.66,108.31,3.49,119.74,.19,2.68,.88,2.55,.88,2.53,1.49,2.23,1.49,2.23,2.01,1.77,2.03,1.77,2.4,1.21,2.39,1.2,2.64,.55,2.62,.55,2.68-.14,2.69-.15,2.55-.81,2.56-.83,2.26-1.44M867.4,342.71l1.27,225.51,45.75,56.22,2.26,1.44,2.56,.83,2.55,.81,2.69,.15,2.68,.14,2.62-.55,2.64-.55,2.4-1.2,2.39-1.21,2.03-1.77,2.01-1.77,1.49-2.23,1.49-2.23,.88-2.53,.88-2.55,.19-2.68,3.49-119.74-6.67-108.31-6.98-20.96-51.77-31.76-16.85,14.93"/>
  <path class="cls-4" d="M962.04,356.28c4.98,111.43,3.99,222.8-3.01,334.11l-58.91,99.52H123.88l-58.91-99.52c-7-111.32-7.99-222.68-3.01-334.11,8.91-12.5,18.17-24.76,27.79-36.73,9.62-11.97,19.59-23.66,29.87-35.07,10.3-11.4,20.91-22.5,31.84-33.28,10.93-10.79,22.19-21.27,33.72-31.41H838.82c11.53,10.14,22.78,20.62,33.72,31.41,10.93,10.78,21.55,21.88,31.84,33.28,10.28,11.4,20.25,23.1,29.87,35.07,9.62,11.98,18.88,24.24,27.79,36.73M109.58,624.44l45.74-56.22,1.28-225.51-16.84-14.93-51.77,31.76-6.98,20.96-6.66,108.31,3.49,119.74,.19,2.68,.88,2.55,.88,2.53,1.49,2.23,1.49,2.23,2.01,1.77,2.03,1.77,2.4,1.21,2.39,1.2,2.64,.55,2.62,.55,2.68-.14,2.69-.15,2.55-.81,2.56-.83,2.26-1.44M867.4,342.71l1.27,225.51,45.75,56.22,2.26,1.44,2.56,.83,2.55,.81,2.69,.15,2.68,.14,2.62-.55,2.64-.55,2.4-1.2,2.39-1.21,2.03-1.77,2.01-1.77,1.49-2.23,1.49-2.23,.88-2.53,.88-2.55,.19-2.68,3.49-119.74-6.67-108.31-6.98-20.96-51.77-31.76-16.85,14.93"/>
  <polyline class="cls-5" points="172.51 364.95 67.38 364.95 35.62 391.62 7.54 515 36.58 631.43 83.58 659.05 172.51 659.05 172.51 366.53 172.51 364.95"/>
  <polyline class="cls-4" points="172.51 364.95 67.38 364.95 35.62 391.62 7.54 515 36.58 631.43 83.58 659.05 172.51 659.05 172.51 366.53 172.51 364.95"/>
  <rect class="cls-1" x="172.47" y="398.3" width="339.53" height="227.41"/>
  <rect class="cls-4" x="172.47" y="398.3" width="339.53" height="227.41"/>
  <path class="cls-5" d="M44.25,384.64c9.1,7.29,16.89,16.07,23.08,25.94,6.19,9.89,10.66,20.75,13.24,32.11,2.57,11.37,3.22,23.09,1.9,34.67-1.31,11.59-4.58,22.87-9.63,33.37,5.06,10.5,8.32,21.78,9.63,33.36,1.33,11.58,.67,23.3-1.9,34.68-2.57,11.36-7.05,22.22-13.24,32.1-6.18,9.89-13.98,18.66-23.08,25.96"/>
  <path class="cls-4" d="M44.25,384.64h0c9.1,7.29,16.89,16.07,23.08,25.94,6.19,9.89,10.66,20.75,13.24,32.11,2.57,11.37,3.22,23.09,1.9,34.67-1.31,11.59-4.58,22.87-9.63,33.37,5.06,10.5,8.32,21.78,9.63,33.36,1.33,11.58,.67,23.3-1.9,34.68-2.57,11.36-7.05,22.22-13.24,32.1-6.18,9.89-13.98,18.66-23.08,25.96"/>
  <polyline class="cls-5" points="851.49 364.95 956.62 364.95 988.37 391.62 1016.46 515 987.42 631.43 940.41 659.05 851.49 659.05 851.49 366.53 851.49 364.95"/>
  <polyline class="cls-4" points="851.49 364.95 956.62 364.95 988.37 391.62 1016.46 515 987.42 631.43 940.41 659.05 851.49 659.05 851.49 366.53 851.49 364.95"/>
  <rect class="cls-1" x="512" y="398.3" width="339.53" height="227.41"/>
  <rect class="cls-4" x="512" y="398.3" width="339.53" height="227.41"/>
  <path class="cls-5" d="M979.75,384.64c-9.1,7.29-16.9,16.07-23.08,25.94-6.19,9.89-10.66,20.75-13.24,32.11-2.57,11.37-3.22,23.09-1.9,34.67,1.31,11.59,4.57,22.87,9.63,33.37-5.06,10.5-8.32,21.78-9.63,33.36-1.33,11.58-.68,23.3,1.9,34.68,2.57,11.36,7.05,22.22,13.24,32.1,6.18,9.89,13.98,18.66,23.08,25.96"/>
  <path class="cls-4" d="M979.75,384.64h0c-9.1,7.29-16.9,16.07-23.08,25.94-6.19,9.89-10.66,20.75-13.24,32.11-2.57,11.37-3.22,23.09-1.9,34.67,1.31,11.59,4.57,22.87,9.63,33.37-5.06,10.5-8.32,21.78-9.63,33.36-1.33,11.58-.68,23.3,1.9,34.68,2.57,11.36,7.05,22.22,13.24,32.1,6.18,9.89,13.98,18.66,23.08,25.96"/>
  <path class="cls-5" d="M868.9,512.01c0-195.8-161.11-356.91-356.9-356.91S155.09,316.21,155.09,512.01s161.11,356.89,356.91,356.89,356.9-161.11,356.9-356.89"/>
  <path class="cls-4" d="M868.9,512.01c0-195.8-161.11-356.91-356.9-356.91S155.09,316.21,155.09,512.01s161.11,356.89,356.91,356.89,356.9-161.11,356.9-356.89"/>
  <path class="cls-5" d="M839.43,512.01c0-179.64-147.81-327.45-327.43-327.45S184.57,332.37,184.57,512.01s147.81,327.43,327.43,327.43,327.43-147.81,327.43-327.43"/>
  <path class="cls-4" d="M839.43,512.01c0-179.64-147.81-327.45-327.43-327.45S184.57,332.37,184.57,512.01s147.81,327.43,327.43,327.43,327.43-147.81,327.43-327.43"/>
  <path class="cls-5" d="M806.98,512.01c0-161.83-133.17-294.98-294.98-294.98S217.02,350.18,217.02,512.01s133.17,294.96,294.98,294.96,294.98-133.15,294.98-294.96"/>
  <path class="cls-4" d="M806.98,512.01c0-161.83-133.17-294.98-294.98-294.98S217.02,350.18,217.02,512.01s133.17,294.96,294.98,294.96,294.98-133.15,294.98-294.96"/>
  <path class="cls-5" d="M603.56,459.13l91.26-52.55c9.71-.79,19.49-.25,29.05,1.62,9.57,1.87,18.83,5.06,27.52,9.47,8.69,4.4,16.75,9.98,23.91,16.59,7.17,6.6,13.39,14.16,18.5,22.47,5.1,8.29,9.03,17.27,11.68,26.64,2.65,9.38,4,19.08,4,28.82s-1.35,19.44-4,28.82c-2.65,9.38-6.59,18.35-11.68,26.65-5.11,8.31-11.33,15.86-18.5,22.47-7.16,6.6-15.21,12.18-23.91,16.59-8.69,4.41-17.95,7.58-27.52,9.45-9.56,1.87-19.34,2.42-29.05,1.62l-91.26-52.92"/>
  <path class="cls-4" d="M603.56,459.13l91.26-52.55c9.71-.79,19.49-.25,29.05,1.62,9.57,1.87,18.83,5.06,27.52,9.47,8.69,4.4,16.75,9.98,23.91,16.59,7.17,6.6,13.39,14.16,18.5,22.47,5.1,8.29,9.03,17.27,11.68,26.64,2.65,9.38,4,19.08,4,28.82s-1.35,19.44-4,28.82c-2.65,9.38-6.59,18.35-11.68,26.65-5.11,8.31-11.33,15.86-18.5,22.47-7.16,6.6-15.21,12.18-23.91,16.59-8.69,4.41-17.95,7.58-27.52,9.45-9.56,1.87-19.34,2.42-29.05,1.62l-91.26-52.92"/>
  <path class="cls-5" d="M603.64,564.74l91.21,52.63c5.56,8.02,9.99,16.74,13.16,25.96,3.17,9.21,5.06,18.83,5.61,28.56,.55,9.73-.26,19.49-2.37,29-2.13,9.52-5.54,18.69-10.18,27.27-4.63,8.58-10.41,16.48-17.2,23.47-6.79,6.99-14.5,13.02-22.94,17.9-8.43,4.88-17.51,8.58-26.95,10.98-9.44,2.41-19.18,3.5-28.91,3.25-9.75-.25-19.41-1.85-28.72-4.75-9.3-2.89-18.17-7.06-26.34-12.37-8.17-5.31-15.56-11.74-21.97-19.08-6.42-7.34-11.79-15.52-15.97-24.32l.06-105.49"/>
  <path class="cls-4" d="M603.64,564.74l91.21,52.63c5.56,8.02,9.99,16.74,13.16,25.96,3.17,9.21,5.06,18.83,5.61,28.56,.55,9.73-.26,19.49-2.37,29-2.13,9.52-5.54,18.69-10.18,27.27-4.63,8.58-10.41,16.48-17.2,23.47-6.79,6.99-14.5,13.02-22.94,17.9-8.43,4.88-17.51,8.58-26.95,10.98-9.44,2.41-19.18,3.5-28.91,3.25-9.75-.25-19.41-1.85-28.72-4.75-9.3-2.89-18.17-7.06-26.34-12.37-8.17-5.31-15.56-11.74-21.97-19.08-6.42-7.34-11.79-15.52-15.97-24.32l.06-105.49"/>
  <path class="cls-5" d="M512.47,617.74l.34,105.3c-4.12,8.83-9.44,17.05-15.81,24.43-6.37,7.37-13.73,13.84-21.87,19.2-8.14,5.35-16.97,9.57-26.26,12.53-9.29,2.94-18.95,4.6-28.68,4.9-9.75,.31-19.48-.72-28.94-3.07-9.47-2.36-18.55-6-27.01-10.83-8.46-4.84-16.22-10.82-23.04-17.78-6.83-6.96-12.67-14.82-17.34-23.37-4.69-8.55-8.15-17.7-10.33-27.2-2.18-9.49-3.03-19.25-2.55-28.99,.5-9.73,2.33-19.35,5.44-28.58,3.12-9.24,7.5-17.99,13.01-26.03l91.23-52.97"/>
  <path class="cls-4" d="M512.47,617.74l.34,105.3c-4.12,8.83-9.44,17.05-15.81,24.43-6.37,7.37-13.73,13.84-21.87,19.2-8.14,5.35-16.97,9.57-26.26,12.53-9.29,2.94-18.95,4.6-28.68,4.9-9.75,.31-19.48-.72-28.94-3.07-9.47-2.36-18.55-6-27.01-10.83-8.46-4.84-16.22-10.82-23.04-17.78-6.83-6.96-12.67-14.82-17.34-23.37-4.69-8.55-8.15-17.7-10.33-27.2-2.18-9.49-3.03-19.25-2.55-28.99,.5-9.73,2.33-19.35,5.44-28.58,3.12-9.24,7.5-17.99,13.01-26.03l91.23-52.97"/>
  <path class="cls-5" d="M420.74,565.4l-90.95,53.08c-9.71,.85-19.48,.37-29.07-1.45-9.57-1.81-18.85-4.94-27.57-9.3-8.72-4.35-16.79-9.89-24.01-16.45-7.2-6.56-13.47-14.08-18.61-22.35-5.16-8.28-9.14-17.23-11.85-26.59-2.7-9.35-4.1-19.05-4.15-28.8-.07-9.75,1.22-19.44,3.82-28.85,2.6-9.39,6.49-18.39,11.53-26.72,5.06-8.33,11.24-15.93,18.36-22.57,7.13-6.65,15.15-12.27,23.81-16.73,8.67-4.45,17.92-7.68,27.46-9.62,9.56-1.92,19.33-2.52,29.05-1.78l91.56,52.4"/>
  <path class="cls-4" d="M420.74,565.4l-90.95,53.08c-9.71,.85-19.48,.37-29.07-1.45-9.57-1.81-18.85-4.94-27.57-9.3-8.72-4.35-16.79-9.89-24.01-16.45-7.2-6.56-13.47-14.08-18.61-22.35-5.16-8.28-9.14-17.23-11.85-26.59-2.7-9.35-4.1-19.05-4.15-28.8-.07-9.75,1.22-19.44,3.82-28.85,2.6-9.39,6.49-18.39,11.53-26.72,5.06-8.33,11.24-15.93,18.36-22.57,7.13-6.65,15.15-12.27,23.81-16.73,8.67-4.45,17.92-7.68,27.46-9.62,9.56-1.92,19.33-2.52,29.05-1.78l91.56,52.4"/>
  <path class="cls-5" d="M420.47,458.95l-90.94-53.1c-5.53-8.03-9.91-16.78-13.03-26.02-3.12-9.23-4.97-18.85-5.47-28.58-.5-9.73,.36-19.48,2.52-28.99,2.16-9.51,5.63-18.66,10.31-27.22,4.68-8.55,10.5-16.41,17.32-23.38,6.83-6.96,14.58-12.95,23.04-17.79,8.46-4.84,17.55-8.49,27-10.84,9.45-2.36,19.19-3.4,28.94-3.11,9.73,.31,19.39,1.95,28.68,4.89,9.29,2.94,18.13,7.15,26.27,12.51,8.14,5.35,15.51,11.81,21.88,19.18,6.38,7.38,11.71,15.58,15.84,24.41l-.6,105.49"/>
  <path class="cls-4" d="M420.47,458.95l-90.94-53.1c-5.53-8.03-9.91-16.78-13.03-26.02-3.12-9.23-4.97-18.85-5.47-28.58-.5-9.73,.36-19.48,2.52-28.99,2.16-9.51,5.63-18.66,10.31-27.22,4.68-8.55,10.5-16.41,17.32-23.38,6.83-6.96,14.58-12.95,23.04-17.79,8.46-4.84,17.55-8.49,27-10.84,9.45-2.36,19.19-3.4,28.94-3.11,9.73,.31,19.39,1.95,28.68,4.89,9.29,2.94,18.13,7.15,26.27,12.51,8.14,5.35,15.51,11.81,21.88,19.18,6.38,7.38,11.71,15.58,15.84,24.41l-.6,105.49"/>
  <path class="cls-5" d="M512.09,406.41l.37-105.3c4.18-8.8,9.56-16.98,15.98-24.32,6.42-7.33,13.82-13.74,21.99-19.05,8.18-5.3,17.05-9.47,26.35-12.35,9.31-2.88,18.97-4.47,28.72-4.71,9.75-.24,19.47,.85,28.91,3.28,9.44,2.41,18.5,6.12,26.94,11.01,8.43,4.89,16.15,10.92,22.92,17.93,6.78,7,12.56,14.91,17.18,23.48,4.63,8.59,8.04,17.76,10.16,27.27,2.1,9.52,2.89,19.28,2.34,29.02-.56,9.72-2.46,19.33-5.63,28.54-3.19,9.21-7.62,17.94-13.19,25.94l-91.59,52.36"/>
  <path class="cls-4" d="M512.09,406.41l.37-105.3c4.18-8.8,9.56-16.98,15.98-24.32,6.42-7.33,13.82-13.74,21.99-19.05,8.18-5.3,17.05-9.47,26.35-12.35,9.31-2.88,18.97-4.47,28.72-4.71,9.75-.24,19.47,.85,28.91,3.28,9.44,2.41,18.5,6.12,26.94,11.01,8.43,4.89,16.15,10.92,22.92,17.93,6.78,7,12.56,14.91,17.18,23.48,4.63,8.59,8.04,17.76,10.16,27.27,2.1,9.52,2.89,19.28,2.34,29.02-.56,9.72-2.46,19.33-5.63,28.54-3.19,9.21-7.62,17.94-13.19,25.94l-91.59,52.36"/>
  <polyline class="cls-5" points="512 406.26 420.43 459.13 420.43 564.87 512 617.74 603.56 564.87 603.56 459.13 512 406.26"/>
  <polygon class="cls-4" points="512 406.26 420.43 459.13 420.43 564.87 512 617.74 603.56 564.87 603.56 459.13 512 406.26 512 406.26"/>
  <rect class="cls-3" x="279" y="321.61" width="466.01" height="380.76"/>
  <rect class="cls-4" x="279" y="321.61" width="466.01" height="380.76"/>
  <path class="cls-2" d="M419.64,432.48v-57.44l14.43,57.44h14.19l14.48-57.44v57.44h13.69v-72.97h-22.1l-13.09,49.77-13.24-49.77h-22.05v72.97h13.69Zm108.01-72.97h-15.58l-28.42,72.97h15.63l6.02-16.57h29.17l6.37,16.57h16.03l-29.22-72.97h0Zm-17.82,44.1l9.86-27.08,10.05,27.08h-19.91Zm95.47,13.79c-2.82,2.49-6.19,3.73-10.1,3.73-5.31,0-9.62-1.96-12.94-5.87-3.32-3.91-4.98-10.48-4.98-19.71,0-8.69,1.68-14.98,5.05-18.86,3.37-3.88,7.76-5.82,13.16-5.82,3.92,0,7.24,1.09,9.98,3.29,2.74,2.19,4.54,5.18,5.4,8.96l14.58-3.48c-1.66-5.84-4.15-10.32-7.47-13.44-5.57-5.28-12.83-7.91-21.75-7.91-10.22,0-18.47,3.36-24.74,10.08-6.27,6.72-9.41,16.15-9.41,28.3,0,11.48,3.12,20.53,9.36,27.15,6.24,6.62,14.2,9.93,23.89,9.93,7.83,0,14.29-1.93,19.39-5.8,5.09-3.87,8.74-9.78,10.93-17.74l-14.28-4.53c-1.23,5.34-3.25,9.26-6.07,11.75h0Z"/>
  <path class="cls-2" d="M410.88,479.8h-15.58l-28.42,72.97h15.63l6.02-16.57h29.17l6.37,16.57h16.03l-29.22-72.97h0Zm-17.82,44.1l9.86-27.08,10.05,27.08h-19.91Zm54.75-5.18c0,8.16,.48,14.33,1.44,18.52,.66,2.82,2.04,5.52,4.13,8.09,2.09,2.57,4.94,4.66,8.54,6.27,3.6,1.61,8.88,2.41,15.85,2.41,5.77,0,10.45-.74,14.04-2.21s6.45-3.46,8.59-5.95c2.14-2.49,3.61-5.54,4.4-9.16,.8-3.62,1.19-9.8,1.19-18.57v-38.33h-14.73v40.37c0,5.77-.22,9.91-.65,12.39-.43,2.49-1.71,4.59-3.83,6.3-2.12,1.71-5.28,2.56-9.46,2.56s-7.36-.9-9.73-2.71c-2.37-1.81-3.87-4.21-4.51-7.19-.37-1.86-.55-5.92-.55-12.19v-39.52h-14.73v38.92h0Zm88.5,34.04v-30.46h2.99c3.38,0,5.86,.27,7.42,.82,1.56,.55,3.04,1.56,4.43,3.04,1.39,1.48,3.98,5.05,7.76,10.73l10.65,15.88h17.62l-8.91-14.23c-3.52-5.67-6.31-9.62-8.39-11.85-2.07-2.22-4.7-4.26-7.89-6.12,6.4-.93,11.22-3.18,14.43-6.74,3.22-3.57,4.83-8.09,4.83-13.56,0-4.31-1.06-8.15-3.19-11.5-2.12-3.35-4.95-5.68-8.49-6.99-3.53-1.31-9.2-1.97-17-1.97h-31.01v72.97h14.73Zm0-60.62h11.5c5.97,0,9.56,.08,10.75,.25,2.39,.4,4.24,1.35,5.55,2.86,1.31,1.51,1.97,3.49,1.97,5.95,0,2.19-.5,4.01-1.49,5.47-1,1.46-2.37,2.49-4.13,3.09-1.76,.6-6.17,.9-13.24,.9h-10.9v-18.52h0Zm95.42-12.34h-15.58l-28.42,72.97h15.63l6.02-16.57h29.17l6.37,16.57h16.03l-29.22-72.97h0Zm-17.82,44.1l9.86-27.08,10.05,27.08h-19.91Z"/>
  <path class="cls-2" d="M453.22,673.05l16.23-25.24,16.18,25.24h17.77l-24.94-37.53,22.7-35.44h-17.07l-14.34,23.44-14.63-23.44h-17.22l22.6,34.89-24.94,38.08h17.67Zm72.02,0v-72.97h-14.73v72.97h14.73Z"/>
  <path class="cls-2" d="M554.01,673.05v-27.52h9.61c6.67,0,11.76-.35,15.28-1.05,2.59-.56,5.13-1.72,7.64-3.46,2.51-1.74,4.57-4.14,6.2-7.19,1.63-3.05,2.44-6.82,2.44-11.3,0-5.81-1.41-10.54-4.23-14.21-2.82-3.67-6.32-6.05-10.5-7.14-2.72-.73-8.56-1.1-17.52-1.1h-23.64v72.97h14.73Zm7.12-60.62c5.31,0,8.84,.17,10.6,.5,2.39,.43,4.36,1.51,5.92,3.24,1.56,1.73,2.34,3.92,2.34,6.57,0,2.16-.56,4.05-1.67,5.67-1.11,1.63-2.65,2.82-4.6,3.58-1.96,.76-5.84,1.15-11.65,1.15h-8.06v-20.71h7.12Z"/>
</svg>