<?xml version="1.0" encoding="utf-8"?>
<!-- Generator: Adobe Illustrator 25.0.1, SVG Export Plug-In . SVG Version: 6.00 Build 0)  -->
<svg version="1.1" id="Layer_1" xmlns="http://www.w3.org/2000/svg" xmlns:xlink="http://www.w3.org/1999/xlink" x="0px" y="0px"
	 viewBox="0 0 1024 1024" style="enable-background:new 0 0 1024 1024;" xml:space="preserve">
<style type="text/css">
	.st0{fill-rule:evenodd;clip-rule:evenodd;fill:#CCCCCC;stroke:#000000;stroke-miterlimit:10;}
	.st1{fill:none;stroke:#000000;stroke-linecap:round;stroke-linejoin:round;stroke-miterlimit:10;}
	.st2{fill-rule:evenodd;clip-rule:evenodd;fill:#FFFFFF;stroke:#000000;stroke-miterlimit:10;}
</style>
<g id="ERA_600_Profile_-_Thumbnail">
	<path class="st0" d="M367.9,998L367.9,998c11.5,2.8,23.2,5.2,34.8,7.3c11.7,2.1,23.4,3.8,35.2,5.2c11.8,1.4,23.6,2.5,35.5,3.2
		c11.8,0.7,23.7,1.1,35.6,1.1h5.9c11.9,0,23.7-0.4,35.6-1.1c11.8-0.7,23.7-1.8,35.5-3.2s23.5-3.1,35.2-5.2
		c11.7-2.1,23.3-4.5,34.8-7.3l84.4-87.2l11.3-60l10.7-37.7c1.7-0.1,3.5-0.2,5.2-0.3s3.5-0.2,5.2-0.3s3.5-0.2,5.2-0.3
		s3.5-0.2,5.2-0.3l21.3-20.2l19-93.5l-8.9,53.1l14-6.4c5.7-3.4,11.2-7.2,16.4-11.4s10-8.8,14.5-13.7s8.7-10.1,12.4-15.7
		c3.7-5.5,7.1-11.3,10-17.3c5.9-22.3,10.4-45,13.4-68c3-22.9,4.5-46,4.5-69.1s-1.5-46.2-4.5-69.1s-7.4-45.6-13.4-68
		c-3.3-6-7-11.9-11-17.4c-4-5.6-8.4-10.9-13.1-15.9c-4.7-5-9.7-9.7-15-14.1s-10.9-8.4-16.7-12.1l-11.5-5.4l10.5,55.6l-20.6-96.8
		l-21.3-20.2c-2.3-0.1-4.7-0.3-7-0.4s-4.7-0.3-7-0.4s-4.7-0.3-7-0.4s-4.7-0.2-7-0.4l-2.5-100.4l-3.8-19.9L700,80.5h-11.5L672,9.4
		H352l-16.6,71.2h-11.5L275,164.5l-3.8,19.9l-2.5,100.4c-2.3,0.1-4.7,0.2-7,0.4c-2.3,0.1-4.7,0.3-7,0.4c-2.3,0.1-4.7,0.3-7,0.4
		s-4.7,0.3-7,0.4l-21.3,20.2l-20,97.4l9.8-56.2l-11.5,5.4c-5.8,3.7-11.4,7.7-16.7,12.1s-10.3,9.1-15,14.1s-9.1,10.3-13.1,15.9
		s-7.7,11.4-11,17.4c-5.9,22.3-10.4,45-13.4,68c-3,22.9-4.5,46-4.5,69.1c0,23.1,1.5,46.2,4.5,69.1c3,22.9,7.4,45.6,13.4,68
		c2.9,6,6.2,11.8,10,17.3c3.7,5.5,7.9,10.7,12.4,15.7c4.5,4.9,9.4,9.5,14.5,13.7c5.2,4.2,10.6,8,16.4,11.4l14,6.4L198.9,700
		l20.2,91.7l21.3,20.2c1.8,0.1,3.5,0.2,5.3,0.3s3.5,0.2,5.3,0.3s3.5,0.2,5.3,0.3s3.5,0.2,5.3,0.3l10.7,37.6l11.3,60L367.9,998
		 M851.3,661.6L851.3,661.6c-0.9,3.7-2.4,7.3-4.4,10.5c-2.1,3.2-4.7,6.1-7.7,8.5s-6.4,4.2-10.1,5.4c-3.6,1.2-7.5,1.8-11.3,1.8
		l-21.6-6.1l-10.7-13.9v-11.4h66.8c-0.1,0.4-0.2,0.9-0.3,1.3c-0.1,0.4-0.2,0.9-0.3,1.3c-0.1,0.4-0.2,0.9-0.3,1.3
		C851.5,660.7,851.4,661.1,851.3,661.6 M172.5,438L172.5,438c0.7-3.1,1.9-6.1,3.5-8.9s3.5-5.3,5.8-7.6c2.3-2.2,4.9-4.1,7.7-5.6
		s5.8-2.6,9-3.3L209,412l-1.1-0.9l19.6,5.5l10.7,13.9v11.4h-66.5c0.1-0.3,0.1-0.7,0.2-1c0.1-0.3,0.1-0.7,0.2-1
		c0.1-0.3,0.1-0.7,0.2-1C172.3,438.7,172.4,438.4,172.5,438 M205.9,687.8L205.9,687.8c-3.8,0-7.6-0.6-11.2-1.9
		c-3.6-1.2-7-3.1-10-5.5s-5.6-5.2-7.6-8.5c-2-3.2-3.5-6.8-4.4-10.5c-0.1-0.4-0.2-0.9-0.3-1.3c-0.1-0.4-0.2-0.9-0.3-1.3
		c-0.1-0.4-0.2-0.9-0.3-1.3c-0.1-0.4-0.2-0.9-0.3-1.3h66.6v11.4l-10.7,13.9L205.9,687.8 M851.4,438L851.4,438c0.1,0.3,0.1,0.7,0.2,1
		c0.1,0.3,0.1,0.7,0.2,1c0.1,0.3,0.1,0.7,0.2,1c0.1,0.3,0.1,0.7,0.2,1h-66.7v-11.4l10.7-13.9l19.8-5.6l-1.2,1l10.5,0.7
		c3.1,0.7,6.1,1.8,9,3.3c2.8,1.5,5.4,3.4,7.7,5.6s4.2,4.8,5.8,7.6C849.5,431.9,850.7,434.9,851.4,438"/>
	<path class="st1" d="M367.9,998L367.9,998c11.5,2.8,23.2,5.2,34.8,7.3c11.7,2.1,23.4,3.8,35.2,5.2c11.8,1.4,23.6,2.5,35.5,3.2
		c11.8,0.7,23.7,1.1,35.6,1.1h5.9c11.9,0,23.7-0.4,35.6-1.1c11.8-0.7,23.7-1.8,35.5-3.2s23.5-3.1,35.2-5.2
		c11.7-2.1,23.3-4.5,34.8-7.3l84.4-87.2l11.3-60l10.7-37.7c1.7-0.1,3.5-0.2,5.2-0.3s3.5-0.2,5.2-0.3s3.5-0.2,5.2-0.3
		s3.5-0.2,5.2-0.3l21.3-20.2l19-93.5l-8.9,53.1l14-6.4c5.7-3.4,11.2-7.2,16.4-11.4s10-8.8,14.5-13.7s8.7-10.1,12.4-15.7
		c3.7-5.5,7.1-11.3,10-17.3c5.9-22.3,10.4-45,13.4-68c3-22.9,4.5-46,4.5-69.1s-1.5-46.2-4.5-69.1s-7.4-45.6-13.4-68
		c-3.3-6-7-11.9-11-17.4c-4-5.6-8.4-10.9-13.1-15.9c-4.7-5-9.7-9.7-15-14.1s-10.9-8.4-16.7-12.1l-11.5-5.4l10.5,55.6l-20.6-96.8
		l-21.3-20.2c-2.3-0.1-4.7-0.3-7-0.4s-4.7-0.3-7-0.4s-4.7-0.3-7-0.4s-4.7-0.2-7-0.4l-2.5-100.4l-3.8-19.9L700,80.5h-11.5L672,9.4
		H352l-16.6,71.2h-11.5L275,164.5l-3.8,19.9l-2.5,100.4c-2.3,0.1-4.7,0.2-7,0.4c-2.3,0.1-4.7,0.3-7,0.4c-2.3,0.1-4.7,0.3-7,0.4
		s-4.7,0.3-7,0.4l-21.3,20.2l-20,97.4l9.8-56.2l-11.5,5.4c-5.8,3.7-11.4,7.7-16.7,12.1s-10.3,9.1-15,14.1s-9.1,10.3-13.1,15.9
		s-7.7,11.4-11,17.4c-5.9,22.3-10.4,45-13.4,68c-3,22.9-4.5,46-4.5,69.1c0,23.1,1.5,46.2,4.5,69.1c3,22.9,7.4,45.6,13.4,68
		c2.9,6,6.2,11.8,10,17.3c3.7,5.5,7.9,10.7,12.4,15.7c4.5,4.9,9.4,9.5,14.5,13.7c5.2,4.2,10.6,8,16.4,11.4l14,6.4L198.9,700
		l20.2,91.7l21.3,20.2c1.8,0.1,3.5,0.2,5.3,0.3s3.5,0.2,5.3,0.3s3.5,0.2,5.3,0.3s3.5,0.2,5.3,0.3l10.7,37.6l11.3,60L367.9,998
		 M851.3,661.6L851.3,661.6c-0.9,3.7-2.4,7.3-4.4,10.5c-2.1,3.2-4.7,6.1-7.7,8.5s-6.4,4.2-10.1,5.4c-3.6,1.2-7.5,1.8-11.3,1.8
		l-21.6-6.1l-10.7-13.9v-11.4h66.8c-0.1,0.4-0.2,0.9-0.3,1.3c-0.1,0.4-0.2,0.9-0.3,1.3c-0.1,0.4-0.2,0.9-0.3,1.3
		C851.5,660.7,851.4,661.1,851.3,661.6 M172.5,438L172.5,438c0.7-3.1,1.9-6.1,3.5-8.9s3.5-5.3,5.8-7.6c2.3-2.2,4.9-4.1,7.7-5.6
		s5.8-2.6,9-3.3L209,412l-1.1-0.9l19.6,5.5l10.7,13.9v11.4h-66.5c0.1-0.3,0.1-0.7,0.2-1c0.1-0.3,0.1-0.7,0.2-1
		c0.1-0.3,0.1-0.7,0.2-1C172.3,438.7,172.4,438.4,172.5,438 M205.9,687.8L205.9,687.8c-3.8,0-7.6-0.6-11.2-1.9
		c-3.6-1.2-7-3.1-10-5.5s-5.6-5.2-7.6-8.5c-2-3.2-3.5-6.8-4.4-10.5c-0.1-0.4-0.2-0.9-0.3-1.3c-0.1-0.4-0.2-0.9-0.3-1.3
		c-0.1-0.4-0.2-0.9-0.3-1.3c-0.1-0.4-0.2-0.9-0.3-1.3h66.6v11.4l-10.7,13.9L205.9,687.8 M851.4,438L851.4,438c0.1,0.3,0.1,0.7,0.2,1
		c0.1,0.3,0.1,0.7,0.2,1c0.1,0.3,0.1,0.7,0.2,1c0.1,0.3,0.1,0.7,0.2,1h-66.7v-11.4l10.7-13.9l19.8-5.6l-1.2,1l10.5,0.7
		c3.1,0.7,6.1,1.8,9,3.3c2.8,1.5,5.4,3.4,7.7,5.6s4.2,4.8,5.8,7.6C849.5,431.9,850.7,434.9,851.4,438"/>
	<path class="st1" d="M148.8,460.6c0,29.5,0,59,0,88.6c0,29.5,0,59,0,88.6 M752.8,184.4c2.3,92.6,4.6,186,7,280.3s4.7,188.5,7,282.5
		 M257.1,747.2c2.3-94,4.7-188.2,7-282.5c2.4-94.3,4.7-187.7,7-280.3 M767.2,764l-0.4-16.7 M257.1,747.2l-0.4,16.7 M768,792.9
		l-0.7-29 M256.7,764l-0.7,29 M255.9,793.4l5.6,19.7 M255.9,792.9v0.5 M768,793.4v-0.5 M762.4,813.1l5.6-19.7 M688.6,80.6
		c0,0.1-1.6,0.2-5,0.3c-3.4,0.1-11.6,0.3-24.5,0.4c-13,0.1-29.2,0.3-48.7,0.4s-40.7,0.2-63.7,0.2s-46,0-69,0s-44.3-0.1-63.8-0.2
		s-35.8-0.2-48.8-0.4c-13-0.1-21.2-0.3-24.6-0.4s-5.1-0.2-5.1-0.3 M352,9.4l-16.6,71.2 M685,968H338.9 M231,645.7h-21 M210.1,645.7
		c-0.8,0.4-1.6,0.7-2.4,0.9c-0.8,0.2-1.6,0.3-2.4,0.3 M205.3,451.4c0.8,0,1.6,0.1,2.4,0.3c0.8,0.2,1.6,0.5,2.4,0.9 M210.1,452.6h21
		 M227.1,488.3H208 M206.1,487.4c-0.1-0.1-0.3-0.1-0.4-0.1c-0.1,0-0.3,0-0.4,0 M205.3,487.2c-0.1,0-0.3,0-0.4,0
		c-0.1,0-0.3,0.1-0.4,0.1 M204.5,487.4c-0.7,0.4-1.4,1.2-1.9,2.6c-0.5,1.3-0.8,2.8-0.7,4.4 M201.9,494.4v0.2 M201.9,494.6v54.6
		 M201.9,549.2v54.6 M201.9,603.8v0.2 M201.9,604c0,1.6,0.2,3.1,0.7,4.4c0.5,1.3,1.1,2.2,1.9,2.6 M204.5,611
		c0.1,0.1,0.3,0.1,0.4,0.1c0.1,0,0.3,0,0.4,0 M847.8,451.4h-32.7 M868.4,494.8c0-2.8-0.2-6.3-0.6-10.6c-0.4-4.2-1.3-8.7-2.8-13.5
		s-3.4-8.8-5.7-12s-4.4-5.2-6.5-6.1c-2-0.8-3.7-1.3-5.1-1.3 M152,494.8c0-2.8,0.2-6.3,0.6-10.6c0.4-4.2,1.3-8.7,2.8-13.5
		s3.4-8.8,5.7-12s4.4-5.2,6.5-6.1c2-0.8,3.7-1.3,5.1-1.3 M205.3,451.4h-32.7 M184.7,494.8c0-2.8,0.2-6.3,0.6-10.6
		c0.4-4.2,1.3-8.7,2.8-13.5s3.4-8.8,5.7-12s4.4-5.2,6.5-6.1c2-0.8,3.7-1.3,5.1-1.3 M815.9,611c-0.1,0.1-0.3,0.1-0.4,0.1
		c-0.1,0-0.3,0-0.4,0 M818.5,604c0,1.6-0.2,3.1-0.7,4.4c-0.5,1.3-1.1,2.2-1.9,2.6 M818.5,603.8v0.2 M818.5,549.2v54.6 M818.5,494.6
		v54.6 M818.5,494.4v0.2 M815.9,487.4c0.7,0.4,1.4,1.2,1.9,2.6c0.5,1.3,0.8,2.8,0.7,4.4 M815.1,487.2c0.1,0,0.3,0,0.4,0
		c0.1,0,0.3,0.1,0.4,0.1 M793.9,488.3h18.4 M810.3,452.6H790 M815.1,451.4c-0.8,0-1.6,0.1-2.4,0.3c-0.8,0.2-1.6,0.5-2.4,0.9
		 M835.7,494.8c0-2.8-0.2-6.3-0.6-10.6c-0.4-4.2-1.3-8.7-2.8-13.5s-3.4-8.8-5.7-12s-4.4-5.2-6.5-6.1c-2-0.8-3.7-1.3-5.1-1.3
		 M810.3,645.7c0.8,0.4,1.6,0.7,2.4,0.9c0.8,0.2,1.6,0.3,2.4,0.3 M790,645.7h20.3 M812.3,610h-18.4 M847.8,646.9
		c1.4,0,3.1-0.4,5.1-1.3c2-0.8,4.2-2.9,6.5-6.1c2.3-3.2,4.2-7.2,5.7-12s2.5-9.3,2.8-13.5c0.4-4.2,0.6-7.7,0.6-10.5 M815.1,646.9
		h32.7 M815.1,646.9c1.4,0,3.1-0.4,5.1-1.3c2-0.8,4.2-2.9,6.5-6.1c2.3-3.2,4.2-7.2,5.7-12s2.5-9.3,2.8-13.5
		c0.4-4.2,0.6-7.7,0.6-10.5 M205.3,646.9c-1.4,0-3.1-0.4-5.1-1.3c-2-0.8-4.2-2.9-6.5-6.1c-2.3-3.2-4.2-7.2-5.7-12s-2.5-9.3-2.8-13.5
		c-0.4-4.2-0.6-7.7-0.6-10.5 M172.6,646.9h32.7 M172.6,646.9c-1.4,0-3.1-0.4-5.1-1.3c-2-0.8-4.2-2.9-6.5-6.1
		c-2.3-3.2-4.2-7.2-5.7-12s-2.5-9.3-2.8-13.5c-0.4-4.2-0.6-7.7-0.6-10.5 M835.7,603.6v-54.4 M868.4,603.6v-54.4 M835.7,549.2v-54.4
		 M868.4,549.2v-54.4 M184.7,549.2v-54.4 M152,549.2v-54.4 M184.7,603.6v-54.4 M152,603.6v-54.4 M815.1,611.2c-0.1,0-0.3,0-0.4,0
		c-0.1,0-0.3-0.1-0.4-0.1 M815.9,611c-0.1,0.1-0.3,0.1-0.4,0.1c-0.1,0-0.3,0-0.4,0.1 M205.3,611.2c0.1,0,0.3,0,0.4,0
		c0.1,0,0.3-0.1,0.4-0.1 M204.5,611c0.1,0.1,0.3,0.1,0.4,0.1c0.1,0,0.3,0,0.4,0.1 M814.3,487.4c0.1-0.1,0.3-0.1,0.4-0.1
		c0.1,0,0.3,0,0.4,0 M815.1,487.2c0.1,0,0.3,0,0.4,0c0.1,0,0.3,0.1,0.4,0.1 M206.1,611l2-1 M203.4,610c0.2,0.2,0.3,0.4,0.5,0.6
		c0.2,0.2,0.4,0.3,0.6,0.4 M814.3,611l-2-1 M812.3,610h4.6 M817,610c-0.2,0.2-0.3,0.4-0.5,0.6c-0.2,0.2-0.4,0.3-0.6,0.4 M208,488.3
		l-2-1 M208,488.3h-4.6 M204.5,487.4c-0.2,0.1-0.4,0.2-0.6,0.4c-0.2,0.2-0.4,0.4-0.5,0.6 M206.1,487.4h-1.6 M812.3,488.3h4.6
		 M812.3,488.3l2-1 M815.9,487.4c0.2,0.1,0.4,0.2,0.6,0.4c0.2,0.2,0.4,0.4,0.5,0.6 M208,610h-4.6 M208,610h19.1 M635.3,1002.6H388.6
		 M796.3,656.4h1.9 M231,645.7l-3.9-8 M225.7,656.4h-21 M198.3,646.9c1.2,0,2.3,0,3.5,0s2.3,0,3.5,0 M210.1,645.7
		c-0.8,0.4-1.6,0.7-2.4,0.9c-0.8,0.2-1.6,0.3-2.4,0.3 M210.1,645.7h21 M815.1,646.9c1.7,0,3.5,0,5.2,0c1.8,0,3.5,0,5.3,0
		 M798.2,656.4h21 M793.9,637.7l-3.9,8 M790,645.7h20.3 M810.3,645.7c0.8,0.4,1.6,0.7,2.4,0.9c0.8,0.2,1.6,0.3,2.4,0.3 M227.6,656.4
		h-1.9 M201.9,494.6c0,9.1,0,18.2,0,27.3c0,9.1,0,18.2,0,27.3 M203.4,488.3c-0.5,0.7-0.9,1.6-1.2,2.6s-0.4,2.2-0.4,3.5 M203.4,488.3
		h23.7 M227.1,488.3v-27.7 M227.1,637.7V610 M227.1,610h-23.7 M201.9,604c0,1.3,0.1,2.4,0.4,3.5s0.6,1.9,1.2,2.6 M201.9,549.2
		c0,9.1,0,18.2,0,27.3s0,18.2,0,27.3 M818.5,549.2c0,9.1,0,18.2,0,27.3s0,18.2,0,27.3 M818.5,604c0,1.3-0.1,2.4-0.4,3.5
		c-0.3,1-0.6,1.9-1.2,2.6 M817,610h-23.1 M793.9,610v27.7 M793.9,460.6v27.7 M793.9,488.3H817 M817,488.3c0.5,0.7,0.9,1.6,1.2,2.6
		s0.4,2.2,0.4,3.5 M818.5,494.6c0,9.1,0,18.2,0,27.3c0,9.1,0,18.2,0,27.3 M225.7,441.9h1.9 M798.2,441.9h-1.9 M815.1,451.4
		c-0.8,0-1.6,0.1-2.4,0.3c-0.8,0.2-1.6,0.5-2.4,0.9 M790,452.6h20.3 M793.9,460.6l-3.9-8 M819.2,441.9h-21 M825.6,451.4
		c-1.8,0-3.5,0-5.3,0c-1.7,0-3.5,0-5.3,0 M204.7,441.9h21 M231,452.6l-3.9,8 M210.1,452.6h21 M205.3,451.4c0.8,0,1.6,0.1,2.4,0.3
		c0.8,0.2,1.6,0.5,2.4,0.9 M205.3,451.4c-1.2,0-2.3,0-3.5,0s-2.3,0-3.5,0 M847.8,451.4c-3,0-6.4,0-10.1,0c-3.7,0-7.7,0-12,0
		 M856.3,441.9c-2.2,0-6.4,0-12.7,0s-14.4,0-24.4,0 M875.1,460.6c-3.1-3.1-6.3-6.2-9.4-9.3c-3.1-3.1-6.3-6.2-9.4-9.3 M860.6,460.6
		c-1.1-1.7-2.2-3.2-3.4-4.5c-1.2-1.2-2.3-2.2-3.4-2.9c-1.1-0.7-2.1-1.1-3.1-1.4c-0.9-0.3-1.9-0.4-2.9-0.4 M875.1,460.6
		c-1.1,0-2.9,0-5.4,0c-2.4,0-5.5,0-9.2,0 M875.1,460.6v177.1 M860.6,637.7c1.2-2,2.3-4.2,3.2-6.5s1.7-5,2.5-7.9
		c0.8-3,1.3-6.2,1.7-9.6c0.4-3.4,0.5-6.8,0.5-10.2 M868.4,603.6c0-9.1,0-18.1,0-27.2c0-9.1,0-18.1,0-27.2 M868.4,549.2
		c0-9.1,0-18.1,0-27.2c0-9.1,0-18.1,0-27.2 M868.4,494.8c0-3.4-0.2-6.8-0.5-10.2c-0.4-3.4-0.9-6.6-1.7-9.6s-1.6-5.6-2.5-7.9
		s-2-4.5-3.2-6.5 M152,603.6c0-9.1,0-18.1,0-27.2c0-9.1,0-18.1,0-27.2 M159.8,637.7c-1.2-2-2.2-4.1-3.1-6.3
		c-0.9-2.2-1.7-4.9-2.5-7.9s-1.4-6.3-1.7-9.8c-0.4-3.5-0.5-6.9-0.5-10.2 M148.8,549.2v88.6 M152,494.8c0-3.3,0.2-6.7,0.5-10.2
		c0.4-3.5,0.9-6.7,1.7-9.8c0.8-3,1.6-5.7,2.5-7.9c0.9-2.2,1.9-4.3,3.1-6.3 M152,549.2c0-9.1,0-18.1,0-27.2c0-9.1,0-18.1,0-27.2
		 M167.7,656.4c2.2,0,6.4,0,12.7,0s14.4,0,24.4,0 M167.7,656.4c-3.1-3.1-6.3-6.2-9.4-9.3c-3.1-3.1-6.3-6.2-9.4-9.3 M148.8,637.7
		c0.9,0,2.3,0,4.2,0c1.8,0,4.1,0,6.8,0 M172.6,646.9c-1,0-1.9-0.1-2.8-0.4c-0.9-0.3-1.9-0.7-3-1.3s-2.3-1.6-3.5-2.9
		c-1.2-1.3-2.4-2.8-3.5-4.6 M172.6,646.9c3.3,0,7.1,0,11.4,0c4.3,0,9.1,0,14.3,0 M847.8,646.9c1,0,2-0.1,2.9-0.4
		c0.9-0.3,2-0.7,3.1-1.4s2.2-1.6,3.4-2.9c1.2-1.2,2.3-2.7,3.4-4.5 M875.1,637.7c-1.1,0-2.9,0-5.4,0c-2.4,0-5.5,0-9.2,0 M856.3,656.4
		c3.1-3.1,6.3-6.2,9.4-9.3c3.1-3.1,6.3-6.2,9.4-9.3 M856.3,656.4c-2.2,0-6.4,0-12.7,0s-14.4,0-24.4,0 M825.6,646.9
		c4.3,0,8.4,0,12.1,0c3.7,0,7.1,0,10.1,0 M148.8,460.6c3.1-3.1,6.3-6.2,9.4-9.3c3.1-3.1,6.3-6.2,9.4-9.3 M167.7,441.9
		c2.2,0,6.4,0,12.7,0s14.4,0,24.4,0 M198.3,451.4c-5.2,0-10,0-14.3,0s-8.1,0-11.4,0 M159.8,460.6c1.1-1.8,2.3-3.3,3.5-4.6
		c1.2-1.3,2.4-2.2,3.5-2.9c1.1-0.6,2.1-1.1,3-1.3c0.9-0.3,1.8-0.4,2.8-0.4 M148.8,460.6c0.9,0,2.3,0,4.2,0c1.8,0,4.1,0,6.8,0
		 M240.4,656.4h-12.8 M227.6,441.9h12.8 M796.3,441.9h-12.8 M783.6,656.4h12.8 M259.4,656.4c-6,0-10.5,0-13.8,0c-3.2,0-5,0-5.2,0
		 M259.8,637.7c0,1.1-0.1,3.2-0.2,6.3s-0.2,7.2-0.3,12.3 M764.1,637.7c-0.4-16.9-1-40.1-1.7-69.7c-0.7-29.5-1.6-65.4-2.7-107.5
		 M259.8,637.7c-0.4,0-0.6,0-0.7,0s-0.2,0-0.1,0 M264.2,460.6c-1.1,42.1-1.9,78-2.7,107.5c-0.7,29.5-1.3,52.7-1.7,69.7 M764.1,637.7
		c0.4,0,0.6,0,0.7,0c0.1,0,0.2,0,0.1,0 M764.6,656.4c6,0,10.5,0,13.8,0c3.2,0,5,0,5.2,0 M764.6,656.4c-0.1-5.1-0.2-9.2-0.3-12.3
		s-0.1-5.2-0.2-6.3 M260.3,441.9c-6.3,0-11.1,0-14.5,0s-5.2,0-5.5,0 M264.6,448c-0.1,2.7-0.1,5.1-0.2,7.2s-0.1,3.9-0.1,5.4
		 M763.6,441.9c6.3,0,11.1,0,14.5,0s5.2,0,5.5,0 M759.7,460.6c0-1.5-0.1-3.3-0.1-5.4c-0.1-2.1-0.1-4.5-0.2-7.2 M763.6,441.9h-4.4
		 M759.4,448c0-1-0.1-2-0.1-3s-0.1-2-0.1-3 M260.3,441.9h4.4 M264.7,441.9c0,1-0.1,2-0.1,3s-0.1,2-0.1,3 M227.5,681.7l10.7-13.9
		 M824.4,694.1l-1.4-2.8 M755.6,296.1c0-1.9-0.1-3.7-0.1-5.6s-0.1-3.7-0.1-5.6 M762.4,813.1c0.5-1.9,1.1-3.8,1.6-5.7
		s1.1-3.8,1.6-5.7 M238.1,667.8v-11.4 M240.4,656.4c-0.4,0-0.8,0-1.1,0c-0.4,0-0.8,0-1.1,0 M249.3,656.4c-1.5,0-3,0-4.5,0
		s-3,0-4.5,0 M796.3,681.7L822,689 M823,691.3l-1.1-2.3 M238.1,441.9c0.4,0,0.8,0,1.1,0c0.4,0,0.8,0,1.1,0 M238.1,441.9v-11.4
		 M785.6,667.8l10.7,13.9 M238.1,430.5l-10.7-13.9 M785.6,656.4v11.4 M774.4,656.4c1.5,0,3,0,4.6,0c1.5,0,3,0,4.6,0 M783.6,656.4
		c0.3,0,0.7,0,1,0s0.7,0,1,0 M227.5,416.6l-25.7-7.3 M200.7,407.1l1.1,2.3 M785.6,430.5v11.4 M785.6,441.9c-0.3,0-0.7,0-1,0
		s-0.7,0-1,0 M783.6,441.9c-1.5,0-3,0-4.6,0c-1.5,0-3,0-4.6,0 M199.4,404.3l1.4,2.8 M796.3,416.6l-10.7,13.9 M821.9,409.3l1.1-2.3
		 M821.9,409.3l-25.7,7.3 M268.6,284.8c0,1.9-0.1,3.7-0.1,5.6s-0.1,3.7-0.1,5.6 M823,407.1l1.4-2.8"/>
	<path class="st1" d="M201.8,689l-1.1,2.3 M201.8,689l25.7-7.3 M219.2,791.7l-19.8-97.6 M200.7,691.3l-1.4,2.8 M258.3,801.7
		c0.5,1.9,1.1,3.8,1.6,5.7s1.1,3.8,1.6,5.7 M257.1,747.2c-0.1,2.8-0.1,5.6-0.2,8.4c-0.1,2.8-0.1,5.6-0.2,8.4 M256.7,764
		c-0.1,4.8-0.2,9.7-0.4,14.5c-0.1,4.8-0.2,9.7-0.4,14.5 M255.9,793.4c0.4,1.4,0.8,2.8,1.2,4.2c0.4,1.4,0.8,2.8,1.2,4.2 M259.4,656.4
		c-0.4,15.1-0.8,30.3-1.1,45.4c-0.4,15.1-0.8,30.3-1.1,45.4 M260.3,441.9c0.7,0,1.5,0,2.2,0s1.5,0,2.2,0 M268.3,296.1
		c-0.6,24.3-1.2,48.6-1.8,72.9c-0.6,24.3-1.2,48.6-1.8,72.9 M774.4,441.9c-1.8,0-3.6,0-5.4,0c-1.8,0-3.6,0-5.4,0 M763.6,441.9
		c-0.7,0-1.5,0-2.2,0s-1.5,0-2.2,0 M759.2,441.9c-0.6-24.3-1.2-48.6-1.8-72.9s-1.2-48.6-1.8-72.9 M764.6,656.4c1.6,0,3.3,0,4.9,0
		c1.6,0,3.3,0,4.9,0 M765.6,801.7c0.4-1.4,0.8-2.8,1.2-4.1c0.4-1.4,0.8-2.8,1.2-4.1 M768,792.9c-0.1-4.8-0.2-9.7-0.4-14.5
		c-0.1-4.8-0.2-9.7-0.4-14.5 M767.2,764c-0.1-2.8-0.1-5.6-0.2-8.4c-0.1-2.8-0.1-5.6-0.2-8.4 M766.8,747.2
		c-0.4-15.1-0.8-30.3-1.1-45.4c-0.4-15.1-0.8-30.3-1.1-45.4 M851.4,438L851.4,438c0.1,0.3,0.1,0.7,0.2,1c0.1,0.3,0.1,0.7,0.2,1
		c0.1,0.3,0.1,0.7,0.2,1c0.1,0.3,0.1,0.7,0.2,1 M825.5,412.7L825.5,412.7c3.1,0.7,6.1,1.8,9,3.3c2.8,1.5,5.4,3.4,7.7,5.6
		s4.2,4.8,5.8,7.6c1.6,2.8,2.8,5.8,3.5,8.9 M814.9,412l10.5,0.7 M816.1,411l-1.2,1 M821.9,409.3l-5.8,1.6 M824.4,404.3l-2.4,5.1
		 M824.3,404.1v0.1 M825.2,403.5l-0.8,0.7 M824.4,694.1l-0.8,4.1 M821.9,689l2.4,5.1 M817.9,687.8l4.1,1.1 M851.3,661.6L851.3,661.6
		c-0.9,3.7-2.4,7.3-4.4,10.5c-2.1,3.2-4.7,6.1-7.7,8.5s-6.4,4.2-10.1,5.4c-3.6,1.2-7.5,1.8-11.3,1.8 M852.5,656.4L852.5,656.4
		c-0.1,0.4-0.2,0.9-0.3,1.3c-0.1,0.4-0.2,0.9-0.3,1.3c-0.1,0.4-0.2,0.9-0.3,1.3c-0.1,0.4-0.2,0.9-0.3,1.3 M852.5,656.4
		c0.6,0,1.3,0,1.9,0c0.6,0,1.3,0,1.9,0 M875.1,637.7c-3.1,3.1-6.3,6.2-9.4,9.3c-3.1,3.1-6.3,6.2-9.4,9.3 M875.1,460.6
		c0,29.5,0,59,0,88.6c0,29.5,0,59,0,88.6 M856.3,441.9c3.1,3.1,6.3,6.2,9.4,9.3c3.1,3.1,6.3,6.2,9.4,9.3 M856.3,441.9
		c-0.7,0-1.3,0-2,0s-1.3,0-2,0 M148.8,637.7c3.1,3.1,6.3,6.2,9.4,9.3c3.1,3.1,6.3,6.2,9.4,9.3 M171.5,656.4c-0.6,0-1.3,0-1.9,0
		c-0.6,0-1.3,0-1.9,0 M171.5,656.4L171.5,656.4c0.1,0.4,0.2,0.9,0.3,1.3c0.1,0.4,0.2,0.9,0.3,1.3c0.1,0.4,0.2,0.9,0.3,1.3
		c0.1,0.4,0.2,0.9,0.3,1.3 M172.6,661.6L172.6,661.6c0.9,3.7,2.4,7.3,4.4,10.5s4.6,6.1,7.6,8.5s6.4,4.2,10,5.5
		c3.6,1.2,7.4,1.9,11.2,1.9 M201.8,689l4.1-1.1 M199.4,694.1l2.4-5.1 M200.2,698.4l-0.9-4.3 M200.2,698.4l-1.3,1.6 M209.3,347.8
		l-10.5,55.6 M198.7,403.5l0.7,0.6 M199.4,404.3v-0.2 M201.8,409.3l-2.4-5.1 M207.9,411.1l-6.1-1.7 M207.9,411.1l1.1,0.9 M209,412
		l-10.5,0.7 M198.5,412.7L198.5,412.7c-3.1,0.7-6.1,1.8-9,3.3c-2.8,1.5-5.4,3.4-7.7,5.6s-4.2,4.8-5.8,7.6c-1.6,2.8-2.8,5.8-3.5,8.9
		 M172.5,438L172.5,438c-0.1,0.3-0.1,0.7-0.2,1c-0.1,0.3-0.1,0.7-0.2,1c-0.1,0.3-0.1,0.7-0.2,1c-0.1,0.3-0.1,0.7-0.2,1 M167.7,441.9
		c0.7,0,1.3,0,2,0s1.3,0,2,0 M167.7,441.9c-3.1,3.1-6.3,6.2-9.4,9.3c-3.1,3.1-6.3,6.2-9.4,9.3"/>
	<rect x="319.1" y="415.9" class="st2" width="391.6" height="265.8"/>
	<rect x="319.1" y="415.9" class="st1" width="391.6" height="265.8"/>
	<polyline class="st2" points="379.8,476.2 650,476.2 650,621.4 379.8,621.4 379.8,476.2 	"/>
	<path d="M427.3,533v-5.3h-27.8v-15.4h25V507h-25v-13.8h26.7v-5.3h-32.7V533H427.3L427.3,533z M441.7,533v-20.1h6.9
		c1.5,0,2.7,0.1,3.3,0.2c0.9,0.2,1.8,0.6,2.7,1.2c0.9,0.6,1.9,1.6,3,3s2.6,3.5,4.3,6.2l6,9.4h7.5l-7.9-12.3c-1.6-2.4-3.2-4.4-5-6
		c-0.8-0.7-2-1.5-3.6-2.3c4.3-0.6,7.5-2,9.6-4.2s3.1-4.9,3.1-8.1c0-2.5-0.6-4.8-1.9-6.8c-1.3-2.1-2.9-3.5-5-4.3s-5.2-1.2-9.2-1.2
		h-20V533H441.7L441.7,533z M441.7,492.8H456c3.4,0,5.8,0.7,7.4,2.1s2.3,3.1,2.3,5.3c0,1.5-0.4,2.8-1.2,4.1c-0.8,1.2-2,2.1-3.5,2.7
		s-3.7,0.8-6.4,0.8h-12.9L441.7,492.8L441.7,492.8z M482.6,533l5-13.7h18.9l5.3,13.7h6.8L500,487.8h-6.4L476.2,533H482.6L482.6,533z
		 M494.2,501.2c1-2.9,1.9-5.7,2.4-8.6c0.7,2.4,1.8,5.6,3.2,9.4l4.7,12.5h-15.3L494.2,501.2L494.2,501.2z M563.3,490.6
		c-2.3-2-5.2-3-8.7-3c-4.8,0-8.6,1.7-11.4,5.2c-3.2,4-4.8,10.3-4.8,19.1c0,7.8,1.5,13.4,4.4,16.8c2.9,3.4,6.7,5.1,11.3,5.1
		c2.7,0,5.1-0.6,7.3-1.9c2.1-1.3,3.8-3.2,5-5.6c1.2-2.4,1.8-5.1,1.8-7.9c0-4.3-1.3-7.8-3.9-10.6c-2.6-2.7-5.8-4.1-9.5-4.1
		c-2.1,0-4.1,0.5-6.1,1.5c-1.9,1-3.6,2.5-4.9,4.5c0-4.5,0.6-8,1.6-10.5c1-2.4,2.4-4.3,4.1-5.6c1.3-1,2.9-1.5,4.7-1.5
		c2.2,0,4,0.8,5.6,2.4c0.9,1,1.6,2.6,2.1,4.7l5.5-0.4C567,495.4,565.6,492.6,563.3,490.6L563.3,490.6z M547.4,511.3
		c1.7-1.8,3.9-2.7,6.4-2.7s4.6,0.9,6.3,2.7c1.7,1.8,2.5,4.3,2.5,7.4c0,3.2-0.8,5.8-2.5,7.7s-3.7,2.8-6,2.8c-1.6,0-3.1-0.5-4.6-1.4
		s-2.6-2.2-3.4-4c-0.8-1.7-1.2-3.6-1.2-5.5C544.8,515.5,545.6,513.1,547.4,511.3L547.4,511.3z M578.2,529.1
		c2.5,3.1,5.9,4.7,10.3,4.7c3.3,0,6-0.9,8.2-2.7s3.8-4.3,4.9-7.6c1.1-3.3,1.6-7.5,1.6-12.8c0-4.5-0.3-8-1-10.7
		c-0.7-2.6-1.6-4.9-2.8-6.7c-1.2-1.8-2.7-3.2-4.5-4.2s-4-1.5-6.4-1.5c-3.3,0-6,0.9-8.2,2.7c-2.2,1.8-3.8,4.3-4.9,7.5
		c-1.1,3.3-1.6,7.6-1.6,12.9C573.7,519.2,575.2,525.3,578.2,529.1L578.2,529.1L578.2,529.1z M582.3,495.5c1.5-2.2,3.6-3.2,6.1-3.2
		c2.6,0,4.8,1.2,6.5,3.7c1.7,2.4,2.6,7.4,2.6,14.8c0,7.4-0.9,12.3-2.6,14.8c-1.7,2.5-3.9,3.7-6.4,3.7s-4.7-1.2-6.4-3.7
		s-2.6-7.4-2.6-14.8C579.4,503.3,580.4,498.2,582.3,495.5L582.3,495.5L582.3,495.5z M613.3,529.1c2.5,3.1,5.9,4.7,10.3,4.7
		c3.3,0,6-0.9,8.2-2.7s3.8-4.3,4.9-7.6c1.1-3.3,1.6-7.5,1.6-12.8c0-4.5-0.3-8-1-10.7c-0.7-2.6-1.6-4.9-2.8-6.7
		c-1.2-1.8-2.7-3.2-4.5-4.2s-4-1.5-6.4-1.5c-3.3,0-6,0.9-8.2,2.7c-2.2,1.8-3.8,4.3-4.9,7.5c-1.1,3.3-1.6,7.6-1.6,12.9
		C608.9,519.2,610.3,525.3,613.3,529.1L613.3,529.1L613.3,529.1z M617.4,495.5c1.5-2.2,3.6-3.2,6.1-3.2c2.6,0,4.8,1.2,6.5,3.7
		c1.7,2.4,2.6,7.4,2.6,14.8c0,7.4-0.9,12.3-2.6,14.8c-1.7,2.5-3.9,3.7-6.4,3.7s-4.7-1.2-6.4-3.7s-2.6-7.4-2.6-14.8
		C614.6,503.3,615.5,498.2,617.4,495.5L617.4,495.5L617.4,495.5z"/>
	<path d="M390.7,605.6v-18.4h11.6c6.4,0,10.8-1.3,13.3-4c2.4-2.7,3.7-5.9,3.7-9.8c0-2.2-0.5-4.3-1.4-6.2s-2.1-3.3-3.6-4.4
		c-1.5-1-3.4-1.7-5.6-2.1c-1.6-0.3-3.9-0.4-6.9-0.4h-17.1v45.2h6V605.6z M390.7,565.8h11.6c2.7,0,4.6,0.1,5.6,0.4
		c1.6,0.4,2.8,1.3,3.8,2.7c1,1.3,1.4,3,1.4,4.9c0,2.6-0.8,4.6-2.4,6.1c-1.6,1.4-4.4,2.2-8.2,2.2h-11.7L390.7,565.8L390.7,565.8z
		 M432.9,605.6v-20.1h6.9c1.5,0,2.7,0.1,3.3,0.2c0.9,0.2,1.8,0.6,2.7,1.2c0.9,0.6,1.9,1.6,3,3s2.6,3.5,4.3,6.2l6,9.4h7.5l-7.9-12.3
		c-1.6-2.4-3.2-4.4-5-6c-0.8-0.7-2-1.5-3.6-2.3c4.3-0.6,7.5-2,9.6-4.2s3.1-4.9,3.1-8.1c0-2.5-0.6-4.8-1.9-6.8
		c-1.3-2.1-2.9-3.5-5-4.3s-5.2-1.2-9.2-1.2h-20v45.2L432.9,605.6L432.9,605.6z M432.9,565.4h14.3c3.4,0,5.8,0.7,7.4,2.1
		c1.6,1.4,2.3,3.1,2.3,5.3c0,1.5-0.4,2.8-1.2,4.1c-0.8,1.2-2,2.1-3.5,2.7c-1.5,0.6-3.7,0.8-6.4,0.8h-12.9L432.9,565.4L432.9,565.4z
		 M473.2,594.9c1.7,3.6,4.3,6.4,7.6,8.4c3.4,2.1,7.2,3.1,11.4,3.1c3.9,0,7.6-0.9,11-2.8c3.4-1.9,6-4.6,7.9-8.2
		c1.9-3.6,2.8-7.7,2.8-12.3c0-4.5-0.9-8.6-2.6-12.1c-1.8-3.6-4.3-6.3-7.7-8.3c-3.4-2-7.1-3-11.3-3c-6.4,0-11.6,2.1-15.6,6.4
		c-4,4.2-6,10.1-6,17.6C470.6,587.6,471.5,591.4,473.2,594.9L473.2,594.9z M481.4,569.2c3.1-2.9,6.7-4.4,10.9-4.4
		c3,0,5.7,0.8,8.1,2.3s4.2,3.6,5.5,6.4c1.2,2.7,1.9,6,1.9,9.6c0,5.8-1.5,10.3-4.4,13.5s-6.6,4.7-11.1,4.7c-4.4,0-8.1-1.6-11-4.7
		c-2.9-3.1-4.4-7.4-4.4-12.9C476.8,576.9,478.3,572.1,481.4,569.2L481.4,569.2z M527.8,605.6v-20.5H549v-5.3h-21.2v-14h24.5v-5.3
		h-30.5v45.2h6V605.6z M567.1,605.6v-45.2h-6v45.2H567.1L567.1,605.6z M605.7,605.6v-5.3h-22.3v-39.9h-6v45.2H605.7L605.7,605.6z
		 M646.7,605.6v-5.3h-27.8v-15.4h25v-5.3h-25v-13.8h26.7v-5.3h-32.7v45.2h33.8V605.6z"/>
</g>
</svg>
