<?xml version="1.0" encoding="utf-8"?>
<!-- Generator: Adobe Illustrator 25.3.0, SVG Export Plug-In . SVG Version: 6.00 Build 0)  -->
<svg version="1.1" id="MAC_Quantum_Profile_-_Thumbnail"
	 xmlns="http://www.w3.org/2000/svg" xmlns:xlink="http://www.w3.org/1999/xlink" x="0px" y="0px" viewBox="0 0 1024 1024"
	 style="enable-background:new 0 0 1024 1024;" xml:space="preserve">
<style type="text/css">
	.st0{fill-rule:evenodd;clip-rule:evenodd;fill:#CCCCCC;stroke:#1D1D1B;stroke-miterlimit:10;}
	.st1{fill:none;stroke:#1D1D1B;stroke-linecap:round;stroke-linejoin:round;stroke-miterlimit:10;}
	.st2{fill-rule:evenodd;clip-rule:evenodd;fill:#FFFFFF;stroke:#1D1D1B;stroke-miterlimit:10;}
	.st3{stroke:#1D1D1B;stroke-miterlimit:10;}
</style>
<g>
	<path class="st0" d="M88.1,388.1L88.1,388.1c4.5-2.4,9.1-4.7,13.8-6.8c4.7-2,9.5-3.9,14.4-5.5c4.9-1.6,9.8-3.1,14.8-4.3
		c5-1.2,10-2.2,15.1-3h731.5c5.1,0.8,10.1,1.8,15.1,3c5,1.2,9.9,2.6,14.8,4.3c4.9,1.6,9.7,3.5,14.4,5.5c4.7,2.1,9.3,4.3,13.8,6.8
		c10.8,34.5,18.9,69.8,24.4,105.5c5.4,35.7,8.1,71.9,8.1,108c0,36.2-2.8,72.3-8.4,108c-5.5,35.7-13.7,71-24.6,105.5
		c-4.6,2.3-9.3,4.4-14,6.3c-4.7,1.9-9.6,3.7-14.4,5.3c-4.9,1.6-9.8,2.9-14.8,4.1c-5,1.2-10,2.2-15.1,3l-60.1,0.1l-670-0.1
		c-5.1-0.8-10.1-1.8-15.1-3c-5-1.2-9.9-2.6-14.8-4.1c-4.9-1.6-9.7-3.3-14.4-5.3c-4.7-1.9-9.4-4-14-6.3
		C77.7,780.6,69.5,745.4,64,709.6c-5.5-35.7-8.3-71.8-8.4-108c0-36.2,2.7-72.3,8.1-108S77.3,422.6,88.1,388.1"/>
	<path class="st1" d="M88.1,388.1L88.1,388.1c4.5-2.4,9.1-4.7,13.8-6.8c4.7-2,9.5-3.9,14.4-5.5c4.9-1.6,9.8-3.1,14.8-4.3
		c5-1.2,10-2.2,15.1-3h731.5c5.1,0.8,10.1,1.8,15.1,3c5,1.2,9.9,2.6,14.8,4.3c4.9,1.6,9.7,3.5,14.4,5.5c4.7,2.1,9.3,4.3,13.8,6.8
		c10.8,34.5,18.9,69.8,24.4,105.5c5.4,35.7,8.1,71.9,8.1,108c0,36.2-2.8,72.3-8.4,108c-5.5,35.7-13.7,71-24.6,105.5
		c-4.6,2.3-9.3,4.4-14,6.3c-4.7,1.9-9.6,3.7-14.4,5.3c-4.9,1.6-9.8,2.9-14.8,4.1c-5,1.2-10,2.2-15.1,3l-60.1,0.1l-670-0.1
		c-5.1-0.8-10.1-1.8-15.1-3c-5-1.2-9.9-2.6-14.8-4.1c-4.9-1.6-9.7-3.3-14.4-5.3c-4.7-1.9-9.4-4-14-6.3
		C77.7,780.6,69.5,745.4,64,709.6c-5.5-35.7-8.3-71.8-8.4-108c0-36.2,2.7-72.3,8.1-108S77.3,422.6,88.1,388.1"/>
	<path class="st0" d="M150.5,471.9l-5.6-4.6l-28.5-10.2c-2.7-0.8-5.5-1.4-8.4-1.9s-5.7-0.8-8.5-0.9c-2.9-0.1-5.7,0-8.6,0.2
		c-2.9,0.2-5.7,0.7-8.5,1.3c-0.8,0.4-1.6,1-2.3,1.6c-0.7,0.6-1.3,1.4-1.8,2.2c-0.5,0.8-0.9,1.7-1.1,2.6c-0.3,0.9-0.4,1.8-0.4,2.8
		c-4.5,22.4-7.8,45.1-10.1,67.8c-2.2,22.8-3.4,45.6-3.4,68.5c0,22.9,1.1,45.7,3.3,68.5c2.2,22.8,5.5,45.4,10,67.8c0.1,1,0.3,2,0.6,3
		c0.3,1,0.8,1.8,1.5,2.7c0.6,0.8,1.3,1.5,2.2,2.1c0.8,0.6,1.7,1.1,2.7,1.4c2.8,0.5,5.7,0.9,8.6,1.1c2.9,0.2,5.8,0.2,8.6,0.1
		c2.9-0.2,5.7-0.5,8.6-1c2.8-0.5,5.6-1.1,8.4-2L145,735l5.3-4.2"/>
	<path class="st1" d="M150.5,471.9l-5.6-4.6l-28.5-10.2c-2.7-0.8-5.5-1.4-8.4-1.9s-5.7-0.8-8.5-0.9c-2.9-0.1-5.7,0-8.6,0.2
		c-2.9,0.2-5.7,0.7-8.5,1.3c-0.8,0.4-1.6,1-2.3,1.6c-0.7,0.6-1.3,1.4-1.8,2.2c-0.5,0.8-0.9,1.7-1.1,2.6c-0.3,0.9-0.4,1.8-0.4,2.8
		c-4.5,22.4-7.8,45.1-10.1,67.8c-2.2,22.8-3.4,45.6-3.4,68.5c0,22.9,1.1,45.7,3.3,68.5c2.2,22.8,5.5,45.4,10,67.8c0.1,1,0.3,2,0.6,3
		c0.3,1,0.8,1.8,1.5,2.7c0.6,0.8,1.3,1.5,2.2,2.1c0.8,0.6,1.7,1.1,2.7,1.4c2.8,0.5,5.7,0.9,8.6,1.1c2.9,0.2,5.8,0.2,8.6,0.1
		c2.9-0.2,5.7-0.5,8.6-1c2.8-0.5,5.6-1.1,8.4-2L145,735l5.3-4.2"/>
	<polyline class="st0" points="208,471.9 124.5,471.9 86.5,488.9 82.1,497.7 76.6,601.1 82.5,705.9 87.4,714.1 124.9,730.4 
		208,730.2 208,471.9 	"/>
	<polyline class="st1" points="208,471.9 124.5,471.9 86.5,488.9 82.1,497.7 76.6,601.1 82.5,705.9 87.4,714.1 124.9,730.4 
		208,730.2 208,471.9 	"/>
	<path class="st1" d="M117.7,457.7L117.7,457.7l17.5-65.3c3.5-1,7.1-2,10.7-2.7c3.6-0.8,7.2-1.4,10.9-1.9c3.7-0.5,7.3-0.9,11-1.1
		c3.7-0.2,7.4-0.3,11.1-0.3l555.9,0.8l110.5-0.8c3.7-0.1,7.4,0,11.1,0.3c3.7,0.2,7.4,0.6,11,1.1c3.7,0.5,7.3,1.1,10.9,1.9
		c3.6,0.8,7.2,1.7,10.7,2.7l17.4,65.2l0,0.1"/>
	<path class="st0" d="M126,472.9L126,472.9c9.3,20.1,16.4,41.2,21.1,62.9c4.7,21.7,7,43.8,6.9,66c-0.1,22.2-2.7,44.3-7.7,65.9
		c-5,21.6-12.3,42.6-21.9,62.6l0.2,0.1"/>
	<path class="st1" d="M126,472.9L126,472.9c9.3,20.1,16.4,41.2,21.1,62.9c4.7,21.7,7,43.8,6.9,66c-0.1,22.2-2.7,44.3-7.7,65.9
		c-5,21.6-12.3,42.6-21.9,62.6l0.2,0.1"/>
	<path class="st1" d="M906.3,744.5L906.3,744.5l-17.5,65.3c-3.5,1-7.1,2-10.7,2.7c-3.6,0.8-7.2,1.4-10.9,1.9
		c-3.7,0.5-7.3,0.9-11,1.1c-3.7,0.2-7.4,0.3-11.1,0.3l-24-0.2l-642.4,0.2c-3.7,0.1-7.4,0-11.1-0.3c-3.7-0.2-7.4-0.6-11-1.1
		c-3.7-0.5-7.3-1.1-10.9-1.9c-3.6-0.8-7.2-1.7-10.7-2.7l-17.4-65.2l0-0.1"/>
	<path class="st0" d="M873.5,471.9l5.6-4.6l28.5-10.2c2.7-0.8,5.5-1.4,8.4-1.9c2.8-0.5,5.7-0.8,8.5-0.9c2.9-0.1,5.7,0,8.6,0.2
		c2.9,0.2,5.7,0.7,8.5,1.3c0.8,0.4,1.6,1,2.3,1.6c0.7,0.6,1.3,1.4,1.8,2.2c0.5,0.8,0.9,1.7,1.1,2.6c0.3,0.9,0.4,1.8,0.4,2.8
		c4.5,22.4,7.8,45.1,10.1,67.8c2.2,22.8,3.4,45.6,3.4,68.5c0,22.9-1.1,45.7-3.3,68.5c-2.2,22.8-5.5,45.4-10,67.8c-0.1,1-0.3,2-0.6,3
		c-0.3,1-0.8,1.8-1.4,2.7c-0.6,0.8-1.3,1.5-2.2,2.1c-0.8,0.6-1.7,1.1-2.7,1.4c-2.8,0.5-5.7,0.9-8.6,1.1c-2.9,0.2-5.8,0.2-8.6,0.1
		c-2.9-0.2-5.7-0.5-8.6-1c-2.8-0.5-5.6-1.1-8.4-2L879,735l-5.3-4.2"/>
	<path class="st1" d="M873.5,471.9l5.6-4.6l28.5-10.2c2.7-0.8,5.5-1.4,8.4-1.9c2.8-0.5,5.7-0.8,8.5-0.9c2.9-0.1,5.7,0,8.6,0.2
		c2.9,0.2,5.7,0.7,8.5,1.3c0.8,0.4,1.6,1,2.3,1.6c0.7,0.6,1.3,1.4,1.8,2.2c0.5,0.8,0.9,1.7,1.1,2.6c0.3,0.9,0.4,1.8,0.4,2.8
		c4.5,22.4,7.8,45.1,10.1,67.8c2.2,22.8,3.4,45.6,3.4,68.5c0,22.9-1.1,45.7-3.3,68.5c-2.2,22.8-5.5,45.4-10,67.8c-0.1,1-0.3,2-0.6,3
		c-0.3,1-0.8,1.8-1.4,2.7c-0.6,0.8-1.3,1.5-2.2,2.1c-0.8,0.6-1.7,1.1-2.7,1.4c-2.8,0.5-5.7,0.9-8.6,1.1c-2.9,0.2-5.8,0.2-8.6,0.1
		c-2.9-0.2-5.7-0.5-8.6-1c-2.8-0.5-5.6-1.1-8.4-2L879,735l-5.3-4.2"/>
	<polyline class="st0" points="816,471.9 899.5,471.9 937.5,488.9 941.9,497.7 947.4,601.1 941.5,705.9 936.6,714.1 899.1,730.4 
		816,730.2 816,471.9 	"/>
	<polyline class="st1" points="816,471.9 899.5,471.9 937.5,488.9 941.9,497.7 947.4,601.1 941.5,705.9 936.6,714.1 899.1,730.4 
		816,730.2 816,471.9 	"/>
	<path class="st0" d="M898.1,472.9L898.1,472.9c-9.3,20.1-16.4,41.2-21.1,62.9c-4.7,21.7-7,43.8-6.9,66c0.1,22.2,2.7,44.3,7.7,65.9
		c5,21.6,12.3,42.6,21.9,62.6l-0.2,0.1"/>
	<path class="st1" d="M898.1,472.9L898.1,472.9c-9.3,20.1-16.4,41.2-21.1,62.9c-4.7,21.7-7,43.8-6.9,66c0.1,22.2,2.7,44.3,7.7,65.9
		c5,21.6,12.3,42.6,21.9,62.6l-0.2,0.1"/>
	<rect x="208" y="471.9" class="st0" width="608" height="258.3"/>
</g>
<g>
	<polyline class="st0" points="716.3,839.9 599.2,869.5 424.8,869.5 307.7,839.9 204.9,383.9 815.9,384.4 716.3,839.9 	"/>
	<polyline class="st1" points="716.3,839.9 599.2,869.5 424.8,869.5 307.7,839.9 204.9,383.9 815.9,384.4 716.3,839.9 	"/>
	<path class="st0" d="M803.3,499.5l5.7-13.7l7.9-8.9V467l9.7-22.6l-10.2-60l-28,0c2.1,9.5,4,19,5.7,28.5c1.7,9.5,3.1,19.1,4.4,28.7
		c1.2,9.6,2.3,19.3,3.1,28.9C802.4,480.2,803,489.9,803.3,499.5"/>
	<path class="st1" d="M803.3,499.5l5.7-13.7l7.9-8.9V467l9.7-22.6l-10.2-60l-28,0c2.1,9.5,4,19,5.7,28.5c1.7,9.5,3.1,19.1,4.4,28.7
		c1.2,9.6,2.3,19.3,3.1,28.9C802.4,480.2,803,489.9,803.3,499.5"/>
	<polyline class="st0" points="815.9,384.4 813.7,360.3 209.7,360.3 208.1,384.4 815.9,384.4 	"/>
	<polyline class="st1" points="815.9,384.4 813.7,360.3 209.7,360.3 208.1,384.4 815.9,384.4 	"/>
	<polyline class="st0" points="801,360.3 799.8,349.2 224.2,349.2 223,360.3 801,360.3 	"/>
	<polyline class="st1" points="801,360.3 799.8,349.2 224.2,349.2 223,360.3 801,360.3 	"/>
	<path class="st0" d="M220.7,499.5l-5.7-13.7l-7.9-8.9V467l-9.7-22.6l10.2-60l28,0c-2.1,9.5-4,19-5.7,28.5
		c-1.7,9.5-3.1,19.1-4.4,28.7c-1.2,9.6-2.3,19.3-3.1,28.9C221.6,480.2,221,489.9,220.7,499.5"/>
	<path class="st1" d="M220.7,499.5l-5.7-13.7l-7.9-8.9V467l-9.7-22.6l10.2-60l28,0c-2.1,9.5-4,19-5.7,28.5
		c-1.7,9.5-3.1,19.1-4.4,28.7c-1.2,9.6-2.3,19.3-3.1,28.9C221.6,480.2,221,489.9,220.7,499.5"/>
	<path class="st0" d="M424.8,869.5L424.8,869.5c-9.9-1.7-19.8-3.6-29.7-5.6c-9.9-2.1-19.7-4.3-29.4-6.8c-9.8-2.5-19.5-5.1-29.1-8
		c-9.7-2.9-19.3-5.9-28.8-9.2c-19.2-32.7-35.4-67.1-48.4-102.6c-13-35.6-22.8-72.3-29.3-109.6c-6.5-37.3-9.6-75.2-9.3-113.1
		c0.3-37.9,4-75.7,11.1-112.9"/>
	<path class="st1" d="M424.8,869.5L424.8,869.5c-9.9-1.7-19.8-3.6-29.7-5.6c-9.9-2.1-19.7-4.3-29.4-6.8c-9.8-2.5-19.5-5.1-29.1-8
		c-9.7-2.9-19.3-5.9-28.8-9.2c-19.2-32.7-35.4-67.1-48.4-102.6c-13-35.6-22.8-72.3-29.3-109.6c-6.5-37.3-9.6-75.2-9.3-113.1
		c0.3-37.9,4-75.7,11.1-112.9"/>
	<path class="st0" d="M512.1,846.1l76.5-5.2l3.1-0.1c2.2-0.1,4.4,0.5,6.3,1.6l2.6,1.6c0.1,4.9,0.1,9.9-0.1,14.8
		c-0.2,4.9-0.5,9.9-1,14.8c-0.5,4.9-1.1,9.8-1.9,14.7c-0.8,4.9-1.7,9.7-2.8,14.5l-1,1.5c-0.7,1.2-1.9,2-3.2,2.3l-1.8,0.4
		c-6.4,0.8-12.8,1.4-19.2,2c-6.4,0.6-12.8,1-19.3,1.4c-6.4,0.4-12.9,0.7-19.3,0.8c-6.4,0.2-12.9,0.3-19.3,0.3
		c-6.4,0-12.7-0.1-19.1-0.3c-6.4-0.2-12.7-0.5-19.1-0.9c-6.4-0.4-12.7-0.9-19-1.4c-6.3-0.6-12.7-1.2-19-2l-1.8-0.4
		c-1.3-0.3-2.5-1.1-3.2-2.3l-1-1.5c-1.1-4.8-2-9.7-2.8-14.5c-0.8-4.9-1.4-9.8-1.9-14.7c-0.5-4.9-0.8-9.8-1-14.8
		c-0.2-4.9-0.2-9.9-0.1-14.8l2.6-1.6c1.9-1.2,4.1-1.7,6.3-1.6l3.1,0.1L512.1,846.1"/>
	<path class="st1" d="M512.1,846.1l76.5-5.2l3.1-0.1c2.2-0.1,4.4,0.5,6.3,1.6l2.6,1.6c0.1,4.9,0.1,9.9-0.1,14.8
		c-0.2,4.9-0.5,9.9-1,14.8c-0.5,4.9-1.1,9.8-1.9,14.7c-0.8,4.9-1.7,9.7-2.8,14.5l-1,1.5c-0.7,1.2-1.9,2-3.2,2.3l-1.8,0.4
		c-6.4,0.8-12.8,1.4-19.2,2c-6.4,0.6-12.8,1-19.3,1.4c-6.4,0.4-12.9,0.7-19.3,0.8c-6.4,0.2-12.9,0.3-19.3,0.3
		c-6.4,0-12.7-0.1-19.1-0.3c-6.4-0.2-12.7-0.5-19.1-0.9c-6.4-0.4-12.7-0.9-19-1.4c-6.3-0.6-12.7-1.2-19-2l-1.8-0.4
		c-1.3-0.3-2.5-1.1-3.2-2.3l-1-1.5c-1.1-4.8-2-9.7-2.8-14.5c-0.8-4.9-1.4-9.8-1.9-14.7c-0.5-4.9-0.8-9.8-1-14.8
		c-0.2-4.9-0.2-9.9-0.1-14.8l2.6-1.6c1.9-1.2,4.1-1.7,6.3-1.6l3.1,0.1L512.1,846.1"/>
	<path class="st0" d="M600.1,869.3L600.1,869.3c9.9-1.7,19.7-3.5,29.5-5.6c9.8-2.1,19.5-4.3,29.2-6.8c9.7-2.5,19.3-5.1,28.9-7.9
		c9.6-2.8,19.1-5.9,28.6-9.1c19.2-32.7,35.4-67.1,48.4-102.6c13-35.6,22.8-72.3,29.3-109.6c6.5-37.3,9.6-75.2,9.3-113.1
		c-0.3-37.9-4-75.7-11.1-112.9"/>
	<path class="st1" d="M600.1,869.3L600.1,869.3c9.9-1.7,19.7-3.5,29.5-5.6c9.8-2.1,19.5-4.3,29.2-6.8c9.7-2.5,19.3-5.1,28.9-7.9
		c9.6-2.8,19.1-5.9,28.6-9.1c19.2-32.7,35.4-67.1,48.4-102.6c13-35.6,22.8-72.3,29.3-109.6c6.5-37.3,9.6-75.2,9.3-113.1
		c-0.3-37.9-4-75.7-11.1-112.9"/>
	<path class="st0" d="M792.1,401.5h-49.6c9.9,28.5,17,57.9,21.1,87.7c4.1,29.9,5.2,60.1,3.4,90.2c-1.9,30.1-6.7,59.9-14.4,89.1
		c-7.7,29.1-18.4,57.4-31.7,84.5c-33.7,10.9-68.2,19.1-103.2,24.5c-35,5.4-70.3,8.1-105.7,7.9c-35.4-0.2-70.7-3.1-105.7-8.8
		c-34.9-5.7-69.4-14.2-103-25.4c-14.1-26.5-25.3-54.5-33.5-83.4c-8.2-28.9-13.2-58.6-15.1-88.6c-1.9-30-0.5-60.1,4-89.8
		c4.5-29.7,12.2-58.8,22.9-86.9l-49.8-1"/>
	<path class="st1" d="M792.1,401.5h-49.6c9.9,28.5,17,57.9,21.1,87.7c4.1,29.9,5.2,60.1,3.4,90.2c-1.9,30.1-6.7,59.9-14.4,89.1
		c-7.7,29.1-18.4,57.4-31.7,84.5c-33.7,10.9-68.2,19.1-103.2,24.5c-35,5.4-70.3,8.1-105.7,7.9c-35.4-0.2-70.7-3.1-105.7-8.8
		c-34.9-5.7-69.4-14.2-103-25.4c-14.1-26.5-25.3-54.5-33.5-83.4c-8.2-28.9-13.2-58.6-15.1-88.6c-1.9-30-0.5-60.1,4-89.8
		c4.5-29.7,12.2-58.8,22.9-86.9l-49.8-1"/>
	<path class="st0" d="M740.5,795L740.5,795c-35.5,17.1-72.9,30.2-111.3,38.9C590.7,842.7,551.4,847,512,847
		c-39.4-0.1-78.7-4.6-117.1-13.4c-38.4-8.9-75.7-22.1-111.2-39.3"/>
	<path class="st1" d="M740.5,795L740.5,795c-35.5,17.1-72.9,30.2-111.3,38.9C590.7,842.7,551.4,847,512,847
		c-39.4-0.1-78.7-4.6-117.1-13.4c-38.4-8.9-75.7-22.1-111.2-39.3"/>
	<rect x="279.7" y="429.8" class="st2" width="461.1" height="247.8"/>
	<rect x="279.7" y="429.8" class="st1" width="461.1" height="247.8"/>
	<path class="st3" d="M297,536.7v-41.4l14.1,41.4h5.8l14.1-40.7v40.7h6.2v-48.6h-8.7L316.9,522c-1.2,3.4-2,6-2.6,7.8
		c-0.5-1.6-1.3-4-2.3-7.2l-11.5-34.4h-9.7v48.6H297L297,536.7z M349.1,536.7l5.3-14.7h20.3l5.7,14.7h7.3l-19.9-48.6h-6.9l-18.7,48.6
		H349.1L349.1,536.7z M361.6,502.5c1.1-3.1,2-6.2,2.6-9.3c0.8,2.6,1.9,6,3.4,10.1l5.1,13.5h-16.5L361.6,502.5L361.6,502.5z
		 M422.5,529c-2.5,2.1-5.5,3.1-9.2,3.1c-3,0-5.7-0.8-8.3-2.3c-2.5-1.5-4.4-3.8-5.6-6.9c-1.2-3.1-1.8-6.7-1.8-10.8
		c0-3.2,0.5-6.3,1.5-9.3c1-3,2.8-5.4,5.3-7.2c2.5-1.8,5.6-2.7,9.4-2.7c3.2,0,5.9,0.8,8.1,2.4c2.1,1.6,3.8,4.2,4.9,7.7l6.3-1.5
		c-1.3-4.5-3.6-8-6.9-10.4c-3.3-2.5-7.4-3.7-12.3-3.7c-4.3,0-8.2,1-11.8,2.9c-3.6,2-6.3,4.8-8.3,8.6c-1.9,3.8-2.9,8.2-2.9,13.2
		c0,4.6,0.9,9,2.6,13c1.7,4,4.2,7.1,7.5,9.3c3.3,2.1,7.5,3.2,12.8,3.2c5.1,0,9.3-1.4,12.8-4.2c3.5-2.8,5.9-6.8,7.3-12.1l-6.4-1.6
		C426.6,523.8,425,526.9,422.5,529L422.5,529z M436.6,536.7L436.6,536.7L436.6,536.7z M503.1,523.2c1.2-3.2,1.8-6.8,1.8-10.8
		c0-4.8-0.9-9.1-2.8-13c-1.9-3.8-4.6-6.8-8.2-9c-3.6-2.1-7.6-3.2-12.1-3.2c-4.4,0-8.5,1-12.1,3.1c-3.6,2.1-6.4,5.1-8.3,9
		c-1.9,3.9-2.9,8.3-2.9,13.1c0,4.8,1,9.2,2.9,13c1.9,3.8,4.7,6.8,8.3,9s7.6,3.2,12,3.2c4.4,0,8.3-1,11.9-3c3.5,2.7,7,4.7,10.4,6
		l1.9-4.5c-2.5-1-5.3-2.5-8.3-4.5C500,529.2,501.9,526.4,503.1,523.2L503.1,523.2z M481.9,528c2.2,0.6,4.4,1.5,6.4,2.8
		c-2,0.9-4.2,1.3-6.5,1.3c-4.9,0-8.9-1.7-12-5.1c-3.1-3.4-4.7-8.2-4.7-14.6c0-6.5,1.6-11.4,4.7-14.7c3.2-3.3,7.1-4.9,11.9-4.9
		c3.2,0,6.1,0.8,8.7,2.4c2.6,1.6,4.5,3.9,5.9,6.8c1.3,2.9,2,6.4,2,10.3c0,6.9-1.9,12.1-5.7,15.5c-2.4-2.1-5.5-3.6-9.2-4.6L481.9,528
		L481.9,528z M541.2,536.7v-35.2h-6v18.9c0,3-0.3,5.3-1,6.9c-0.7,1.6-1.8,2.8-3.3,3.7c-1.6,0.9-3.2,1.4-5,1.4s-3.3-0.4-4.5-1.3
		c-1.2-0.9-2-2.1-2.4-3.7c-0.2-1.1-0.4-3.2-0.4-6.3v-19.5h-6v21.8c0,2.5,0.1,4.4,0.4,5.6c0.4,1.7,1,3.2,1.8,4.4c0.9,1.2,2.2,2.2,4,3
		c1.8,0.8,3.7,1.2,5.8,1.2c4.7,0,8.4-2,11.2-6v5.2H541.2L541.2,536.7z M574.7,536.7h6.2c-0.8-1.3-1.3-2.8-1.5-4.2
		c-0.3-1.5-0.4-5-0.4-10.5v-8c0-2.7-0.1-4.5-0.3-5.5c-0.4-1.6-1-3-1.9-4.1c-0.9-1.1-2.3-2-4.1-2.7c-1.9-0.7-4.3-1.1-7.3-1.1
		c-3,0-5.7,0.4-8,1.2c-2.3,0.8-4.1,2-5.3,3.5c-1.2,1.5-2.1,3.6-2.6,6.1l5.8,0.8c0.6-2.5,1.6-4.2,3-5.2c1.3-1,3.4-1.5,6.2-1.5
		c3,0,5.3,0.7,6.8,2c1.1,1,1.7,2.7,1.7,5.1c0,0.2,0,0.7,0,1.6c-2.3,0.8-5.8,1.5-10.6,2.1c-2.4,0.3-4.1,0.6-5.3,0.9
		c-1.6,0.4-3,1.1-4.3,2c-1.3,0.9-2.3,2-3.1,3.4c-0.8,1.4-1.2,3-1.2,4.7c0,2.9,1,5.4,3.1,7.2c2.1,1.9,5.1,2.8,8.9,2.8
		c2.3,0,4.5-0.4,6.6-1.2c2-0.8,4.2-2.1,6.4-4C573.7,534.1,574.1,535.5,574.7,536.7L574.7,536.7L574.7,536.7z M573,521.3
		c0,2.6-0.3,4.6-1,6c-0.8,1.7-2.2,3.1-3.9,4.1c-1.8,1-3.8,1.5-6.1,1.5c-2.3,0-4.1-0.5-5.3-1.6c-1.2-1.1-1.8-2.4-1.8-4
		c0-1,0.3-2,0.8-2.8c0.6-0.9,1.3-1.5,2.4-1.9c1-0.4,2.8-0.8,5.2-1.2c4.3-0.6,7.6-1.4,9.7-2.3V521.3L573,521.3z M594.3,536.7v-19.2
		c0-4.5,0.9-7.6,2.8-9.2c1.8-1.6,4-2.4,6.6-2.4c1.6,0,3,0.4,4.2,1.1c1.2,0.7,2,1.7,2.5,2.9c0.5,1.2,0.7,3,0.7,5.5v21.4h6v-21.6
		c0-2.8-0.1-4.7-0.3-5.8c-0.4-1.7-1-3.2-1.9-4.4c-0.9-1.2-2.2-2.2-4-3c-1.8-0.8-3.7-1.1-5.9-1.1c-4.9,0-8.6,1.9-11.2,5.8v-5h-5.4
		v35.2H594.3L594.3,536.7z M636.5,531.6c-0.9,0-1.6-0.1-2-0.4c-0.5-0.3-0.8-0.7-1-1.2c-0.2-0.5-0.3-1.6-0.3-3.3v-20.6h6v-4.6h-6
		v-12.3l-5.9,3.6v8.7h-4.4v4.6h4.4v20.3c0,3.6,0.2,5.9,0.7,7c0.5,1.1,1.3,2,2.5,2.7c1.2,0.7,2.9,1,5,1c1.3,0,2.8-0.2,4.5-0.5
		l-0.9-5.3C638,531.6,637.2,531.6,636.5,531.6L636.5,531.6L636.5,531.6z M673.4,536.7v-35.2h-6v18.9c0,3-0.3,5.3-1,6.9
		c-0.7,1.6-1.8,2.8-3.3,3.7c-1.6,0.9-3.2,1.4-5,1.4s-3.3-0.4-4.5-1.3c-1.2-0.9-2-2.1-2.4-3.7c-0.2-1.1-0.4-3.2-0.4-6.3v-19.5h-6
		v21.8c0,2.5,0.1,4.4,0.4,5.6c0.4,1.7,1,3.2,1.8,4.4c0.9,1.2,2.2,2.2,4,3c1.8,0.8,3.7,1.2,5.8,1.2c4.7,0,8.4-2,11.2-6v5.2H673.4
		L673.4,536.7z M688.7,536.7v-18.3c0-3.2,0.3-5.7,1-7.4c0.6-1.7,1.7-3,3.1-3.9c1.4-0.9,3-1.3,4.7-1.3c2.2,0,3.8,0.7,4.8,2
		c1,1.3,1.5,3.3,1.5,6v22.9h6v-20.5c0-3.6,0.8-6.3,2.5-7.9c1.6-1.6,3.7-2.5,6.2-2.5c1.4,0,2.6,0.3,3.6,1c1,0.6,1.7,1.5,2.1,2.5
		c0.4,1.1,0.6,2.8,0.6,5.2v22.2h5.9v-24.2c0-4-0.9-7-2.8-8.9c-1.9-1.9-4.6-2.9-8.1-2.9c-4.5,0-8.1,2.1-10.9,6.2
		c-0.7-1.9-1.9-3.5-3.5-4.5c-1.7-1.1-3.8-1.6-6.4-1.6c-2.3,0-4.4,0.5-6.3,1.6c-1.8,1.1-3.3,2.4-4.4,4.2v-4.9h-5.3v35.2H688.7
		L688.7,536.7z"/>
	<path class="st3" d="M428.7,614.8l10.3-37c0.4-1.6,0.9-3.5,1.4-5.7c0.2,0.7,0.7,2.6,1.5,5.7l10.2,37h6.2l13.3-48.6h-6.5l-7.6,31.2
		c-1,4-1.8,7.5-2.4,10.6c-0.8-5.4-2-11.1-3.8-17.2l-7-24.6h-7.8l-9.3,32.8c-0.2,0.8-1,3.8-2.2,9c-0.6-3.3-1.3-6.6-2.1-9.9l-7.4-31.9
		h-6.6l12.9,48.6H428.7L428.7,614.8z M479.2,614.8l5.3-14.7h20.3l5.7,14.7h7.3L498,566.2h-6.9l-18.7,48.6H479.2L479.2,614.8z
		 M491.8,580.6c1.1-3.1,2-6.2,2.6-9.3c0.8,2.6,1.9,6,3.4,10.1l5.1,13.5h-16.5L491.8,580.6L491.8,580.6z M523.5,608
		c1.7,2.6,4,4.5,7,5.8c3,1.3,6.7,1.9,11.1,1.9c3.5,0,6.6-0.6,9.4-1.9c2.8-1.3,4.9-3.1,6.4-5.3c1.5-2.3,2.2-4.7,2.2-7.3
		c0-2.6-0.7-4.9-2-6.9c-1.3-2-3.4-3.7-6.3-5c-1.9-0.9-5.5-1.9-10.8-3.1c-5.2-1.2-8.5-2.3-9.7-3.5c-1.3-1.1-1.9-2.6-1.9-4.3
		c0-2,0.9-3.7,2.7-5.2c1.8-1.4,4.6-2.1,8.5-2.1c3.7,0,6.6,0.8,8.5,2.4c1.9,1.6,3,3.9,3.4,7l6.2-0.5c-0.1-2.9-0.9-5.4-2.4-7.7
		c-1.5-2.3-3.6-4-6.3-5.1c-2.8-1.2-5.9-1.7-9.5-1.7c-3.3,0-6.2,0.6-8.9,1.7c-2.7,1.1-4.7,2.7-6.1,4.9c-1.4,2.1-2.1,4.4-2.1,6.9
		c0,2.2,0.6,4.2,1.7,6.1c1.1,1.8,2.9,3.3,5.2,4.5c1.8,1,4.9,2,9.4,3c4.5,1.1,7.3,1.9,8.7,2.4c2,0.8,3.5,1.7,4.4,2.9
		c0.9,1.1,1.3,2.5,1.3,4c0,1.5-0.5,2.9-1.4,4.2c-0.9,1.3-2.3,2.3-4.2,3c-1.9,0.7-4,1.1-6.5,1.1c-2.8,0-5.2-0.5-7.5-1.4
		c-2.2-1-3.8-2.2-4.9-3.8c-1.1-1.6-1.7-3.6-2-6l-6.1,0.5C520.9,602.5,521.8,605.4,523.5,608L523.5,608z M574.9,614.8v-22.9h25.3
		v22.9h6.4v-48.6h-6.4v20h-25.3v-20h-6.4v48.6H574.9L574.9,614.8z"/>
</g>
</svg>
