<?xml version="1.0" encoding="UTF-8"?>
<svg id="EXT_Linear_Pro_DV_QUAD_-_Thumbnail" data-name="EXT Linear Pro DV QUAD - Thumbnail" xmlns="http://www.w3.org/2000/svg" viewBox="0 0 1024 1024">
  <defs>
    <style>
      .cls-1, .cls-2 {
        fill: #fff;
      }

      .cls-2, .cls-3 {
        fill-rule: evenodd;
      }

      .cls-4 {
        stroke-width: .5px;
      }

      .cls-4, .cls-5, .cls-6 {
        fill: none;
        stroke: #000;
        stroke-linecap: round;
        stroke-linejoin: round;
      }

      .cls-7, .cls-3 {
        fill: #ccc;
      }

      .cls-6 {
        stroke-width: .04px;
      }
    </style>
  </defs>
  <g id="_4FT" data-name="4FT">
    <rect class="cls-7" x="18.23" y="495.86" width="987.54" height="32.21"/>
    <rect class="cls-5" x="18.23" y="495.86" width="987.54" height="32.21"/>
    <path class="cls-3" d="M996.35,511.97c0-4.99-4.11-9.1-9.1-9.1s-9.1,4.11-9.1,9.1,4.11,9.1,9.1,9.1,9.1-4.11,9.1-9.1"/>
    <path class="cls-6" d="M996.35,511.97c0-4.99-4.11-9.1-9.1-9.1s-9.1,4.11-9.1,9.1,4.11,9.1,9.1,9.1,9.1-4.11,9.1-9.1"/>
    <path class="cls-3" d="M965.69,511.97c0-4.99-4.11-9.1-9.1-9.1s-9.1,4.11-9.1,9.1,4.1,9.1,9.1,9.1,9.1-4.11,9.1-9.1"/>
    <path class="cls-6" d="M965.69,511.97c0-4.99-4.11-9.1-9.1-9.1s-9.1,4.11-9.1,9.1,4.1,9.1,9.1,9.1,9.1-4.11,9.1-9.1"/>
    <path class="cls-3" d="M935.03,511.97c0-4.99-4.11-9.1-9.1-9.1s-9.1,4.11-9.1,9.1,4.11,9.1,9.1,9.1,9.1-4.11,9.1-9.1"/>
    <path class="cls-6" d="M935.03,511.97c0-4.99-4.11-9.1-9.1-9.1s-9.1,4.11-9.1,9.1,4.11,9.1,9.1,9.1,9.1-4.11,9.1-9.1"/>
    <path class="cls-3" d="M904.37,511.97c0-4.99-4.11-9.1-9.1-9.1s-9.1,4.11-9.1,9.1,4.1,9.1,9.1,9.1,9.1-4.11,9.1-9.1"/>
    <path class="cls-6" d="M904.37,511.97c0-4.99-4.11-9.1-9.1-9.1s-9.1,4.11-9.1,9.1,4.1,9.1,9.1,9.1,9.1-4.11,9.1-9.1"/>
    <path class="cls-3" d="M873.7,511.97c0-4.99-4.1-9.1-9.1-9.1s-9.1,4.11-9.1,9.1,4.11,9.1,9.1,9.1,9.1-4.11,9.1-9.1"/>
    <path class="cls-6" d="M873.7,511.97c0-4.99-4.1-9.1-9.1-9.1s-9.1,4.11-9.1,9.1,4.11,9.1,9.1,9.1,9.1-4.11,9.1-9.1"/>
    <path class="cls-3" d="M843.04,511.97c0-4.99-4.11-9.1-9.1-9.1s-9.1,4.11-9.1,9.1,4.11,9.1,9.1,9.1,9.1-4.11,9.1-9.1"/>
    <path class="cls-6" d="M843.04,511.97c0-4.99-4.11-9.1-9.1-9.1s-9.1,4.11-9.1,9.1,4.11,9.1,9.1,9.1,9.1-4.11,9.1-9.1"/>
    <path class="cls-3" d="M812.38,511.97c0-4.99-4.1-9.1-9.1-9.1s-9.1,4.11-9.1,9.1,4.11,9.1,9.1,9.1,9.1-4.11,9.1-9.1"/>
    <path class="cls-6" d="M812.38,511.97c0-4.99-4.1-9.1-9.1-9.1s-9.1,4.11-9.1,9.1,4.11,9.1,9.1,9.1,9.1-4.11,9.1-9.1"/>
    <path class="cls-3" d="M781.72,511.97c0-4.99-4.11-9.1-9.1-9.1s-9.1,4.11-9.1,9.1,4.11,9.1,9.1,9.1,9.1-4.11,9.1-9.1"/>
    <path class="cls-6" d="M781.72,511.97c0-4.99-4.11-9.1-9.1-9.1s-9.1,4.11-9.1,9.1,4.11,9.1,9.1,9.1,9.1-4.11,9.1-9.1"/>
    <path class="cls-3" d="M751.06,511.97c0-4.99-4.11-9.1-9.1-9.1s-9.1,4.11-9.1,9.1,4.11,9.1,9.1,9.1,9.1-4.11,9.1-9.1"/>
    <path class="cls-6" d="M751.06,511.97c0-4.99-4.11-9.1-9.1-9.1s-9.1,4.11-9.1,9.1,4.11,9.1,9.1,9.1,9.1-4.11,9.1-9.1"/>
    <path class="cls-3" d="M720.4,511.97c0-4.99-4.11-9.1-9.1-9.1s-9.1,4.11-9.1,9.1,4.11,9.1,9.1,9.1,9.1-4.11,9.1-9.1"/>
    <path class="cls-6" d="M720.4,511.97c0-4.99-4.11-9.1-9.1-9.1s-9.1,4.11-9.1,9.1,4.11,9.1,9.1,9.1,9.1-4.11,9.1-9.1"/>
    <path class="cls-3" d="M689.74,511.97c0-4.99-4.11-9.1-9.1-9.1s-9.1,4.11-9.1,9.1,4.11,9.1,9.1,9.1,9.1-4.11,9.1-9.1"/>
    <path class="cls-6" d="M689.74,511.97c0-4.99-4.11-9.1-9.1-9.1s-9.1,4.11-9.1,9.1,4.11,9.1,9.1,9.1,9.1-4.11,9.1-9.1"/>
    <path class="cls-3" d="M659.08,511.96c0-4.99-4.11-9.1-9.1-9.1s-9.1,4.11-9.1,9.1,4.11,9.1,9.1,9.1,9.1-4.11,9.1-9.1"/>
    <path class="cls-6" d="M659.08,511.96c0-4.99-4.11-9.1-9.1-9.1s-9.1,4.11-9.1,9.1,4.11,9.1,9.1,9.1,9.1-4.11,9.1-9.1"/>
    <path class="cls-3" d="M628.41,511.96c0-4.99-4.11-9.1-9.1-9.1s-9.1,4.11-9.1,9.1,4.11,9.1,9.1,9.1,9.1-4.11,9.1-9.1"/>
    <path class="cls-6" d="M628.41,511.96c0-4.99-4.11-9.1-9.1-9.1s-9.1,4.11-9.1,9.1,4.11,9.1,9.1,9.1,9.1-4.11,9.1-9.1"/>
    <path class="cls-3" d="M597.75,511.96c0-4.99-4.11-9.1-9.1-9.1s-9.1,4.11-9.1,9.1,4.11,9.1,9.1,9.1,9.1-4.11,9.1-9.1"/>
    <path class="cls-6" d="M597.75,511.96c0-4.99-4.11-9.1-9.1-9.1s-9.1,4.11-9.1,9.1,4.11,9.1,9.1,9.1,9.1-4.11,9.1-9.1"/>
    <path class="cls-3" d="M567.09,511.96c0-4.99-4.11-9.1-9.1-9.1s-9.1,4.11-9.1,9.1,4.11,9.1,9.1,9.1,9.1-4.11,9.1-9.1"/>
    <path class="cls-6" d="M567.09,511.96c0-4.99-4.11-9.1-9.1-9.1s-9.1,4.11-9.1,9.1,4.11,9.1,9.1,9.1,9.1-4.11,9.1-9.1"/>
    <path class="cls-3" d="M536.43,511.96c0-4.99-4.11-9.1-9.1-9.1s-9.1,4.11-9.1,9.1,4.11,9.1,9.1,9.1,9.1-4.11,9.1-9.1"/>
    <path class="cls-6" d="M536.43,511.96c0-4.99-4.11-9.1-9.1-9.1s-9.1,4.11-9.1,9.1,4.11,9.1,9.1,9.1,9.1-4.11,9.1-9.1"/>
    <path class="cls-3" d="M505.77,511.96c0-4.99-4.11-9.1-9.1-9.1s-9.1,4.11-9.1,9.1,4.11,9.1,9.1,9.1,9.1-4.11,9.1-9.1"/>
    <path class="cls-6" d="M505.77,511.96c0-4.99-4.11-9.1-9.1-9.1s-9.1,4.11-9.1,9.1,4.11,9.1,9.1,9.1,9.1-4.11,9.1-9.1"/>
    <path class="cls-3" d="M475.11,511.96c0-4.99-4.11-9.1-9.1-9.1s-9.1,4.11-9.1,9.1,4.11,9.1,9.1,9.1,9.1-4.11,9.1-9.1"/>
    <path class="cls-6" d="M475.11,511.96c0-4.99-4.11-9.1-9.1-9.1s-9.1,4.11-9.1,9.1,4.11,9.1,9.1,9.1,9.1-4.11,9.1-9.1"/>
    <path class="cls-3" d="M444.44,511.96c0-4.99-4.11-9.1-9.1-9.1s-9.1,4.11-9.1,9.1,4.11,9.1,9.1,9.1,9.1-4.11,9.1-9.1"/>
    <path class="cls-6" d="M444.44,511.96c0-4.99-4.11-9.1-9.1-9.1s-9.1,4.11-9.1,9.1,4.11,9.1,9.1,9.1,9.1-4.11,9.1-9.1"/>
    <path class="cls-3" d="M413.78,511.96c0-4.99-4.11-9.1-9.1-9.1s-9.1,4.11-9.1,9.1,4.11,9.1,9.1,9.1,9.1-4.11,9.1-9.1"/>
    <path class="cls-6" d="M413.78,511.96c0-4.99-4.11-9.1-9.1-9.1s-9.1,4.11-9.1,9.1,4.11,9.1,9.1,9.1,9.1-4.11,9.1-9.1"/>
    <path class="cls-3" d="M383.12,511.96c0-4.99-4.11-9.1-9.1-9.1s-9.1,4.11-9.1,9.1,4.11,9.1,9.1,9.1,9.1-4.11,9.1-9.1"/>
    <path class="cls-6" d="M383.12,511.96c0-4.99-4.11-9.1-9.1-9.1s-9.1,4.11-9.1,9.1,4.11,9.1,9.1,9.1,9.1-4.11,9.1-9.1"/>
    <path class="cls-3" d="M352.46,511.96c0-4.99-4.11-9.1-9.1-9.1s-9.1,4.11-9.1,9.1,4.11,9.1,9.1,9.1,9.1-4.11,9.1-9.1"/>
    <path class="cls-6" d="M352.46,511.96c0-4.99-4.11-9.1-9.1-9.1s-9.1,4.11-9.1,9.1,4.11,9.1,9.1,9.1,9.1-4.11,9.1-9.1"/>
    <path class="cls-3" d="M321.8,511.96c0-4.99-4.11-9.1-9.1-9.1s-9.1,4.11-9.1,9.1,4.11,9.1,9.1,9.1,9.1-4.11,9.1-9.1"/>
    <path class="cls-6" d="M321.8,511.96c0-4.99-4.11-9.1-9.1-9.1s-9.1,4.11-9.1,9.1,4.11,9.1,9.1,9.1,9.1-4.11,9.1-9.1"/>
    <path class="cls-3" d="M291.14,511.96c0-4.99-4.11-9.1-9.1-9.1s-9.1,4.11-9.1,9.1,4.11,9.1,9.1,9.1,9.1-4.11,9.1-9.1"/>
    <path class="cls-6" d="M291.14,511.96c0-4.99-4.11-9.1-9.1-9.1s-9.1,4.11-9.1,9.1,4.11,9.1,9.1,9.1,9.1-4.11,9.1-9.1"/>
    <path class="cls-3" d="M260.48,511.95c0-4.99-4.11-9.1-9.1-9.1s-9.1,4.11-9.1,9.1,4.11,9.1,9.1,9.1,9.1-4.11,9.1-9.1"/>
    <path class="cls-6" d="M260.48,511.95c0-4.99-4.11-9.1-9.1-9.1s-9.1,4.11-9.1,9.1,4.11,9.1,9.1,9.1,9.1-4.11,9.1-9.1"/>
    <path class="cls-3" d="M229.82,511.95c0-4.99-4.11-9.1-9.1-9.1s-9.1,4.11-9.1,9.1,4.11,9.1,9.1,9.1,9.1-4.11,9.1-9.1"/>
    <path class="cls-6" d="M229.82,511.95c0-4.99-4.11-9.1-9.1-9.1s-9.1,4.11-9.1,9.1,4.11,9.1,9.1,9.1,9.1-4.11,9.1-9.1"/>
    <path class="cls-3" d="M199.15,511.95c0-4.99-4.11-9.1-9.1-9.1s-9.1,4.11-9.1,9.1,4.11,9.1,9.1,9.1,9.1-4.11,9.1-9.1"/>
    <path class="cls-6" d="M199.15,511.95c0-4.99-4.11-9.1-9.1-9.1s-9.1,4.11-9.1,9.1,4.11,9.1,9.1,9.1,9.1-4.11,9.1-9.1"/>
    <path class="cls-3" d="M168.49,511.95c0-4.99-4.11-9.1-9.1-9.1s-9.1,4.11-9.1,9.1,4.11,9.1,9.1,9.1,9.1-4.11,9.1-9.1"/>
    <path class="cls-6" d="M168.49,511.95c0-4.99-4.11-9.1-9.1-9.1s-9.1,4.11-9.1,9.1,4.11,9.1,9.1,9.1,9.1-4.11,9.1-9.1"/>
    <path class="cls-3" d="M137.83,511.95c0-4.99-4.11-9.1-9.1-9.1s-9.1,4.11-9.1,9.1,4.11,9.1,9.1,9.1,9.1-4.11,9.1-9.1"/>
    <path class="cls-6" d="M137.83,511.95c0-4.99-4.11-9.1-9.1-9.1s-9.1,4.11-9.1,9.1,4.11,9.1,9.1,9.1,9.1-4.11,9.1-9.1"/>
    <path class="cls-3" d="M107.17,511.95c0-4.99-4.11-9.1-9.1-9.1s-9.1,4.11-9.1,9.1,4.11,9.1,9.1,9.1,9.1-4.11,9.1-9.1"/>
    <path class="cls-6" d="M107.17,511.95c0-4.99-4.11-9.1-9.1-9.1s-9.1,4.11-9.1,9.1,4.11,9.1,9.1,9.1,9.1-4.11,9.1-9.1"/>
    <path class="cls-3" d="M76.51,511.95c0-4.99-4.11-9.1-9.1-9.1s-9.1,4.11-9.1,9.1,4.11,9.1,9.1,9.1,9.1-4.11,9.1-9.1"/>
    <path class="cls-6" d="M76.51,511.95c0-4.99-4.11-9.1-9.1-9.1s-9.1,4.11-9.1,9.1,4.11,9.1,9.1,9.1,9.1-4.11,9.1-9.1"/>
    <path class="cls-3" d="M45.85,511.95c0-4.99-4.11-9.1-9.1-9.1s-9.1,4.11-9.1,9.1,4.11,9.1,9.1,9.1,9.1-4.11,9.1-9.1"/>
    <path class="cls-6" d="M45.85,511.95c0-4.99-4.11-9.1-9.1-9.1s-9.1,4.11-9.1,9.1,4.11,9.1,9.1,9.1,9.1-4.11,9.1-9.1m-27.62,11.27H1005.77M18.23,500.71H1005.77"/>
    <rect class="cls-1" x="431.52" y="499.93" width="160.97" height="24.15"/>
    <rect class="cls-4" x="18.32" y="501.26" width="987.28" height="21.48"/>
    <rect class="cls-5" x="431.52" y="499.93" width="160.97" height="24.15"/>
    <polyline class="cls-2" points="447.3 507.1 582.37 507.1 582.37 516.9 447.3 516.9 447.3 507.1"/>
    <path d="M452.52,514.77v-.72h-3.74v-2.08h3.37v-.72h-3.37v-1.87h3.6v-.72h-4.41v6.1h4.55Zm1.43,0l1.16-1.74,.24,.37,.91,1.37h.92l-1.64-2.34,1.53-2.08h-.89l-.74,1.04c-.1,.14-.21,.3-.34,.49-.08-.13-.18-.3-.31-.49l-.68-1.04h-.94l1.49,2.12-1.61,2.3h.91Zm5.16-.64c-.11,0-.2-.02-.26-.05-.06-.04-.1-.08-.13-.15-.03-.06-.04-.2-.04-.41v-2.58h.75v-.58h-.75v-1.54l-.74,.45v1.09h-.55v.58h.55v2.54c0,.45,.03,.74,.09,.88,.06,.14,.17,.25,.32,.34,.15,.09,.36,.13,.63,.13,.17,0,.35-.02,.57-.07l-.11-.66c-.14,.02-.25,.03-.33,.03h0Zm3.62-.09c-.19,.14-.43,.22-.7,.22-.37,0-.68-.13-.92-.39-.25-.26-.38-.63-.41-1.11h3.29c0-.09,0-.16,0-.2,0-.73-.19-1.29-.56-1.7-.37-.4-.86-.6-1.45-.6s-1.11,.21-1.49,.62c-.38,.41-.57,.99-.57,1.73s.19,1.28,.57,1.67c.38,.4,.89,.6,1.54,.6,.51,0,.93-.12,1.26-.37,.33-.25,.56-.6,.68-1.05l-.77-.1c-.11,.32-.27,.55-.46,.69h0Zm-1.61-2.82c.23-.23,.52-.35,.87-.35,.38,0,.69,.14,.93,.43,.16,.19,.25,.46,.28,.84h-2.47c.02-.39,.15-.69,.39-.92h0Zm4.52,3.56v-2.31c0-.32,.04-.61,.12-.87,.06-.17,.15-.31,.28-.41,.13-.1,.28-.15,.44-.15,.18,0,.37,.05,.55,.16l.26-.69c-.26-.16-.52-.24-.77-.24-.17,0-.33,.05-.48,.15s-.3,.31-.48,.62v-.67h-.67v4.42h.75Zm2.85-5.24v-.86h-.75v.86h.75Zm0,5.24v-4.42h-.75v4.42h.75Zm1.43-.49c.38,.4,.88,.59,1.5,.59,.39,0,.74-.09,1.07-.27,.33-.18,.57-.43,.74-.76,.17-.33,.26-.77,.26-1.34,0-.7-.19-1.25-.58-1.65-.39-.4-.88-.6-1.49-.6-.55,0-1.01,.16-1.39,.49-.45,.39-.68,1-.68,1.82,0,.75,.19,1.32,.57,1.71h0Zm.57-2.98c.25-.28,.56-.42,.93-.42s.68,.14,.93,.42c.25,.28,.37,.7,.37,1.24,0,.58-.12,1.01-.37,1.29-.25,.28-.56,.42-.93,.42s-.68-.14-.93-.42c-.25-.28-.37-.7-.37-1.27s.12-.99,.37-1.27h0Zm4.62,3.48v-2.31c0-.32,.04-.61,.12-.87,.06-.17,.15-.31,.28-.41,.13-.1,.28-.15,.44-.15,.18,0,.37,.05,.55,.16l.26-.69c-.26-.16-.52-.24-.77-.24-.17,0-.33,.05-.48,.15s-.3,.31-.48,.62v-.67h-.67v4.42h.75Zm8.33,0v-.72h-3v-5.38h-.81v6.1h3.81Zm1.62-5.24v-.86h-.75v.86h.75Zm0,5.24v-4.42h-.75v4.42h.75Zm1.89,0v-2.41c0-.57,.12-.95,.35-1.15,.23-.2,.51-.3,.83-.3,.2,0,.37,.05,.52,.14,.15,.09,.25,.21,.31,.36,.06,.15,.09,.38,.09,.68v2.69h.75v-2.72c0-.35-.01-.59-.04-.73-.04-.21-.12-.4-.23-.55-.11-.16-.28-.28-.5-.38-.22-.1-.47-.14-.73-.14-.61,0-1.08,.24-1.41,.73v-.63h-.67v4.42h.75Zm6.55-.73c-.19,.14-.43,.22-.7,.22-.37,0-.68-.13-.92-.39-.25-.26-.38-.63-.41-1.11h3.29c0-.09,0-.16,0-.2,0-.73-.19-1.29-.56-1.7-.37-.4-.86-.6-1.45-.6s-1.11,.21-1.49,.62c-.38,.41-.57,.99-.57,1.73s.19,1.28,.57,1.67c.38,.4,.89,.6,1.54,.6,.51,0,.93-.12,1.26-.37,.33-.25,.56-.6,.68-1.05l-.77-.1c-.11,.32-.27,.55-.46,.69h0Zm-1.61-2.82c.23-.23,.52-.35,.87-.35,.38,0,.69,.14,.93,.43,.16,.19,.25,.46,.28,.84h-2.47c.02-.39,.15-.69,.39-.92h0Zm6.81,3.56h.78c-.09-.17-.16-.35-.19-.53-.03-.18-.05-.62-.05-1.32v-1c0-.33-.01-.56-.04-.69-.04-.21-.12-.37-.23-.51-.11-.13-.28-.25-.52-.33-.24-.09-.54-.13-.92-.13s-.71,.05-1,.16c-.29,.1-.51,.25-.66,.45-.15,.19-.26,.45-.33,.76l.73,.1c.08-.31,.2-.53,.37-.66,.17-.12,.43-.19,.78-.19,.38,0,.66,.08,.85,.25,.14,.12,.21,.34,.21,.64,0,.03,0,.09,0,.2-.29,.1-.73,.19-1.34,.26-.3,.04-.52,.07-.67,.11-.2,.06-.38,.14-.54,.25-.16,.11-.29,.25-.39,.43-.1,.18-.15,.38-.15,.59,0,.37,.13,.67,.39,.91,.26,.24,.63,.36,1.12,.36,.29,0,.57-.05,.83-.15,.26-.1,.52-.26,.8-.5,.02,.21,.07,.39,.15,.54h0Zm-.21-1.94c0,.33-.04,.58-.12,.75-.11,.22-.27,.39-.49,.52-.22,.13-.48,.19-.77,.19s-.51-.07-.66-.2c-.15-.13-.23-.3-.23-.5,0-.13,.03-.25,.1-.36,.07-.11,.17-.19,.3-.24,.13-.06,.35-.11,.65-.15,.54-.08,.95-.17,1.22-.28v.27h0Zm2.66,1.94v-2.31c0-.32,.04-.61,.12-.87,.06-.17,.15-.31,.28-.41,.13-.1,.28-.15,.44-.15,.18,0,.37,.05,.55,.16l.26-.69c-.26-.16-.52-.24-.77-.24-.17,0-.33,.05-.48,.15s-.3,.31-.48,.62v-.67h-.67v4.42h.75Zm5.37,0v-2.48h1.56c.86,0,1.46-.18,1.79-.54,.33-.36,.49-.8,.49-1.32,0-.3-.06-.58-.19-.83-.12-.25-.29-.45-.49-.59-.2-.14-.45-.23-.75-.28-.21-.04-.52-.06-.93-.06h-2.3v6.1h.81Zm0-5.38h1.56c.37,0,.62,.02,.75,.05,.21,.06,.38,.18,.51,.36,.13,.18,.19,.4,.19,.66,0,.35-.11,.63-.33,.82-.22,.19-.59,.29-1.11,.29h-1.58v-2.18h0Zm5.52,5.38v-2.31c0-.32,.04-.61,.12-.87,.06-.17,.15-.31,.28-.41,.13-.1,.28-.15,.44-.15,.18,0,.37,.05,.55,.16l.26-.69c-.26-.16-.52-.24-.77-.24-.17,0-.33,.05-.48,.15s-.3,.31-.48,.62v-.67h-.67v4.42h.75Zm2.39-.49c.38,.4,.88,.59,1.5,.59,.39,0,.74-.09,1.07-.27,.33-.18,.57-.43,.74-.76,.17-.33,.26-.77,.26-1.34,0-.7-.19-1.25-.58-1.65-.39-.4-.88-.6-1.49-.6-.55,0-1.01,.16-1.39,.49-.45,.39-.68,1-.68,1.82,0,.75,.19,1.32,.57,1.71h0Zm.57-2.98c.25-.28,.56-.42,.93-.42s.68,.14,.93,.42c.25,.28,.37,.7,.37,1.24,0,.58-.12,1.01-.37,1.29-.25,.28-.56,.42-.93,.42s-.68-.14-.93-.42c-.25-.28-.37-.7-.37-1.27s.12-.99,.37-1.27h0Zm8.54,3.48c.37,0,.7-.03,.98-.1,.28-.07,.53-.17,.73-.31,.2-.13,.39-.32,.56-.55,.17-.23,.31-.53,.42-.89s.16-.77,.16-1.23c0-.54-.08-1.03-.24-1.45-.16-.42-.4-.77-.72-1.04-.25-.21-.54-.36-.89-.44-.25-.06-.61-.09-1.09-.09h-2.1v6.1h2.2Zm-1.39-5.38h1.28c.48,0,.83,.04,1.04,.12,.3,.12,.55,.35,.76,.69,.21,.34,.31,.83,.31,1.47,0,.46-.05,.85-.16,1.17-.11,.32-.26,.58-.45,.77-.14,.14-.32,.24-.55,.32s-.54,.11-.95,.11h-1.3v-4.66h0Zm7.91,5.38l2.39-6.1h-.82l-1.65,4.43c-.12,.33-.23,.67-.33,1-.09-.31-.19-.64-.32-1l-1.58-4.43h-.87l2.36,6.1h.83Zm10.79-1.7c.15-.4,.23-.85,.23-1.35,0-.6-.12-1.15-.36-1.63-.24-.48-.58-.86-1.03-1.12-.45-.27-.96-.4-1.52-.4s-1.06,.13-1.51,.39c-.45,.26-.8,.63-1.04,1.13-.24,.49-.37,1.04-.37,1.64s.12,1.15,.36,1.63c.24,.48,.59,.86,1.04,1.12s.95,.4,1.5,.4,1.05-.13,1.5-.38c.44,.34,.87,.59,1.31,.75l.24-.56c-.32-.12-.66-.31-1.04-.57,.31-.3,.54-.65,.69-1.05h0Zm-2.66,.6c.28,.07,.55,.19,.8,.35-.26,.11-.53,.16-.82,.16-.61,0-1.11-.21-1.5-.64-.39-.42-.59-1.03-.59-1.83s.2-1.43,.59-1.84c.4-.41,.9-.62,1.5-.62,.4,0,.76,.1,1.09,.31,.32,.2,.57,.49,.74,.86,.17,.37,.25,.8,.25,1.29,0,.87-.24,1.52-.71,1.95-.3-.26-.69-.45-1.15-.58l-.2,.59h0Zm7.98-1.48c0,.77-.13,1.28-.38,1.55-.25,.27-.68,.4-1.27,.4-.35,0-.64-.07-.88-.2-.24-.14-.41-.33-.51-.58-.1-.25-.15-.64-.15-1.17v-3.52h-.81v3.52c0,.65,.08,1.16,.23,1.53,.16,.37,.41,.66,.78,.85,.36,.2,.83,.3,1.4,.3s1.06-.11,1.42-.34c.36-.23,.61-.52,.75-.88,.14-.36,.21-.85,.21-1.46v-3.52h-.81v3.52h0Zm2.34,2.58l.67-1.85h2.55l.71,1.85h.92l-2.5-6.1h-.87l-2.34,6.1h.86Zm1.57-4.29c.14-.39,.25-.77,.33-1.16,.09,.33,.24,.75,.43,1.26l.64,1.69h-2.07l.67-1.79h0Zm6.12,4.29c.37,0,.7-.03,.98-.1,.28-.07,.53-.17,.73-.31,.2-.13,.39-.32,.56-.55,.17-.23,.31-.53,.42-.89s.16-.77,.16-1.23c0-.54-.08-1.03-.24-1.45-.16-.42-.4-.77-.72-1.04-.25-.21-.54-.36-.89-.44-.25-.06-.61-.09-1.09-.09h-2.1v6.1h2.2Zm-1.39-5.38h1.28c.48,0,.83,.04,1.04,.12,.3,.12,.55,.35,.76,.69,.21,.34,.31,.83,.31,1.47,0,.46-.05,.85-.16,1.17-.11,.32-.26,.58-.45,.77-.14,.14-.32,.24-.55,.32s-.54,.11-.95,.11h-1.3v-4.66h0Zm9.62,3.55v-.75h-2.3v.75h2.3Zm6.13,1.83v-1.46h.82v-.69h-.82v-3.95h-.61l-2.78,3.95v.69h2.65v1.46h.75Zm-2.66-2.15l1.91-2.75v2.75h-1.91Zm5.4,2.15v-2.77h2.86v-.72h-2.86v-1.89h3.31v-.72h-4.11v6.1h.81Zm6.71,0v-5.38h2.02v-.72h-4.83v.72h2.01v5.38h.81Z"/>
  </g>
</svg>