<?xml version="1.0" encoding="utf-8"?>
<!-- Generator: Adobe Illustrator 27.9.0, SVG Export Plug-In . SVG Version: 6.00 Build 0)  -->
<svg version="1.1" id="EXT_Wash_Pro_-_Thumbnail" xmlns="http://www.w3.org/2000/svg" xmlns:xlink="http://www.w3.org/1999/xlink"
	 x="0px" y="0px" viewBox="0 0 1024 1024" style="enable-background:new 0 0 1024 1024;" xml:space="preserve">
<style type="text/css">
	.st0{fill-rule:evenodd;clip-rule:evenodd;fill:#BBBBBB;stroke:#1D1D1B;stroke-miterlimit:10;}
	.st1{fill:none;stroke:#1D1D1B;stroke-linecap:round;stroke-linejoin:round;stroke-miterlimit:10;}
	.st2{fill-rule:evenodd;clip-rule:evenodd;fill:#FFFFFF;stroke:#1D1D1B;stroke-miterlimit:10;}
	.st3{stroke:#1D1D1B;stroke-miterlimit:10;}
</style>
<g id="Ext_Washo_Pro_S_QUAD_00000100377213234233115460000008183266086439933835_">
	<path class="st0" d="M9.5,241.7v540.5c0,127.4,104.8,232.2,232.3,232.2h540.5c127.4,0,232.3-104.8,232.3-232.2V241.7
		c0-127.4-104.8-232.2-232.3-232.2H241.8C114.3,9.5,9.5,114.3,9.5,241.7"/>
	<path class="st1" d="M9.5,241.7v540.5c0,127.4,104.8,232.2,232.3,232.2h540.5c127.4,0,232.3-104.8,232.3-232.2V241.7
		c0-127.4-104.8-232.2-232.3-232.2H241.8C114.3,9.5,9.5,114.3,9.5,241.7"/>
	<path class="st0" d="M97.3,263.2v497.7c0,91,74.9,165.9,165.9,165.9h497.7c91,0,165.9-74.9,165.9-165.9V263.2
		c0-91-74.9-165.9-165.9-165.9H263.2C172.2,97.3,97.3,172.2,97.3,263.2"/>
	<path class="st1" d="M97.3,263.2v497.7c0,91,74.9,165.9,165.9,165.9h497.7c91,0,165.9-74.9,165.9-165.9V263.2
		c0-91-74.9-165.9-165.9-165.9H263.2C172.2,97.3,97.3,172.2,97.3,263.2"/>
	<path class="st0" d="M460.8,318.6c0-77.7-63.9-141.6-141.6-141.6c-77.7,0-141.6,63.9-141.6,141.6c0,77.7,63.9,141.6,141.6,141.6
		C396.9,460.2,460.8,396.3,460.8,318.6"/>
	<path class="st1" d="M460.8,318.6c0-77.7-63.9-141.6-141.6-141.6c-77.7,0-141.6,63.9-141.6,141.6c0,77.7,63.9,141.6,141.6,141.6
		C396.9,460.2,460.8,396.3,460.8,318.6"/>
	<path class="st0" d="M460.8,705.4c0-77.7-63.9-141.6-141.6-141.6c-77.7,0-141.6,63.9-141.6,141.6c0,77.7,63.9,141.6,141.6,141.6
		C396.9,847,460.8,783.1,460.8,705.4"/>
	<path class="st1" d="M460.8,705.4c0-77.7-63.9-141.6-141.6-141.6c-77.7,0-141.6,63.9-141.6,141.6c0,77.7,63.9,141.6,141.6,141.6
		C396.9,847,460.8,783.1,460.8,705.4"/>
	<path class="st0" d="M846.4,318.6c0-77.7-63.9-141.6-141.6-141.6c-77.7,0-141.6,63.9-141.6,141.6c0,77.7,63.9,141.6,141.6,141.6
		C782.5,460.2,846.4,396.3,846.4,318.6"/>
	<path class="st1" d="M846.4,318.6c0-77.7-63.9-141.6-141.6-141.6c-77.7,0-141.6,63.9-141.6,141.6c0,77.7,63.9,141.6,141.6,141.6
		C782.5,460.2,846.4,396.3,846.4,318.6"/>
	<path class="st0" d="M846.4,705.4c0-77.7-63.9-141.6-141.6-141.6c-77.7,0-141.6,63.9-141.6,141.6c0,77.7,63.9,141.6,141.6,141.6
		C782.5,847,846.4,783.1,846.4,705.4"/>
	<path class="st1" d="M846.4,705.4c0-77.7-63.9-141.6-141.6-141.6c-77.7,0-141.6,63.9-141.6,141.6c0,77.7,63.9,141.6,141.6,141.6
		C782.5,847,846.4,783.1,846.4,705.4"/>
	<rect x="113.9" y="312.9" class="st2" width="796.3" height="398.1"/>
	<path class="st3" d="M212.9,488.6v-10.2h-33.7V462h30.3v-10.2h-30.3v-13.4h32.5v-10.2H167v60.3H212.9L212.9,488.6z M237.9,488.6
		l13.4-20.9l13.4,20.9h14.7l-20.6-31l18.8-29.3h-14.1l-11.9,19.4l-12.1-19.4h-14.2l18.7,28.8l-20.6,31.5H237.9L237.9,488.6z
		 M317.7,488.6v-50.1h17.9v-10.2h-47.9v10.2h17.9v50.1H317.7L317.7,488.6z"/>
	<polygon class="st3" points="396.9,488.6 408.9,443.5 420.9,488.6 433.8,488.6 448.4,428.3 436.2,428.3 426.9,470.4 416.4,428.3 
		401.9,428.3 390.8,469.7 381.7,428.3 369.3,428.3 383.7,488.6 396.9,488.6 	"/>
	<path class="st3" d="M493.8,428.3h-12.9l-23.5,60.3h12.9l5-13.7h24.1l5.3,13.7h13.2L493.8,428.3L493.8,428.3z M479,464.7l8.1-22.4
		l8.3,22.4H479L479,464.7z M535.3,484.4c4.1,3.5,9.9,5.3,17.6,5.3c5.2,0,9.6-0.7,13.1-2.2c3.5-1.5,6.2-3.7,8.1-6.7
		c1.9-3,2.9-6.3,2.9-9.7c0-3.8-0.8-7-2.4-9.6c-1.6-2.6-3.8-4.6-6.7-6.1c-2.8-1.5-7.2-2.9-13.1-4.3c-5.9-1.4-9.7-2.7-11.2-4
		c-1.2-1-1.8-2.2-1.8-3.7c0-1.6,0.6-2.8,1.9-3.7c2-1.5,4.8-2.2,8.3-2.2c3.4,0,6,0.7,7.7,2c1.7,1.4,2.8,3.6,3.4,6.7l12.2-0.5
		c-0.2-5.5-2.2-10-6-13.3c-3.8-3.3-9.5-5-17.1-5c-4.6,0-8.6,0.7-11.9,2.1c-3.3,1.4-5.8,3.4-7.5,6.1c-1.7,2.7-2.6,5.5-2.6,8.6
		c0,4.8,1.9,8.8,5.6,12.1c2.6,2.4,7.2,4.3,13.7,6c5.1,1.3,8.3,2.1,9.8,2.6c2.1,0.7,3.5,1.6,4.4,2.6c0.8,1,1.3,2.2,1.3,3.6
		c0,2.2-1,4.2-3,5.8c-2,1.7-4.9,2.5-8.9,2.5c-3.7,0-6.6-0.9-8.8-2.8c-2.2-1.9-3.6-4.8-4.3-8.8L528,469
		C528.8,475.7,531.3,480.9,535.3,484.4L535.3,484.4z M606.3,488.6v-26.4h23.9v26.4h12.2v-60.3h-12.2V452h-23.9v-23.7h-12.2v60.3
		H606.3L606.3,488.6z"/>
	<path class="st3" d="M699.4,488.6v-22.8h7.9c5.5,0,9.7-0.3,12.6-0.9c2.1-0.5,4.2-1.4,6.3-2.9c2.1-1.4,3.8-3.4,5.1-5.9
		c1.3-2.5,2-5.6,2-9.3c0-4.8-1.2-8.7-3.5-11.7c-2.3-3-5.2-5-8.7-5.9c-2.3-0.6-7.1-0.9-14.5-0.9h-19.5v60.3H699.4L699.4,488.6z
		 M705.3,438.5c4.4,0,7.3,0.1,8.8,0.4c2,0.4,3.6,1.2,4.9,2.7c1.3,1.4,1.9,3.2,1.9,5.4c0,1.8-0.5,3.3-1.4,4.7c-0.9,1.3-2.2,2.3-3.8,3
		c-1.6,0.6-4.8,0.9-9.6,0.9h-6.7v-17.1H705.3L705.3,438.5z M761.9,488.6v-25.2h2.5c2.8,0,4.8,0.2,6.1,0.7c1.3,0.5,2.5,1.3,3.7,2.5
		c1.2,1.2,3.3,4.2,6.4,8.9l8.8,13.1h14.6l-7.4-11.8c-2.9-4.7-5.2-8-6.9-9.8c-1.7-1.8-3.9-3.5-6.5-5.1c5.3-0.8,9.3-2.6,11.9-5.6
		c2.7-2.9,4-6.7,4-11.2c0-3.6-0.9-6.7-2.6-9.5c-1.8-2.8-4.1-4.7-7-5.8c-2.9-1.1-7.6-1.6-14.1-1.6h-25.6v60.3H761.9L761.9,488.6z
		 M761.9,438.5h9.5c4.9,0,7.9,0.1,8.9,0.2c2,0.3,3.5,1.1,4.6,2.4c1.1,1.2,1.6,2.9,1.6,4.9c0,1.8-0.4,3.3-1.2,4.5
		c-0.8,1.2-2,2.1-3.4,2.6c-1.5,0.5-5.1,0.7-10.9,0.7h-9V438.5L761.9,438.5z"/>
	<path class="st3" d="M822.8,481.4c5.3,5.5,12.4,8.2,21.4,8.2c8.9,0,15.9-2.7,21.2-8.2c5.3-5.5,7.9-13.1,7.9-22.9
		c0-9.8-2.7-17.5-8-23c-5.3-5.5-12.4-8.3-21.3-8.3c-4.9,0-9.2,0.8-13,2.4c-2.8,1.2-5.4,3-7.8,5.4c-2.4,2.4-4.2,5.2-5.6,8.3
		c-1.8,4.2-2.8,9.3-2.8,15.5C814.8,468.4,817.5,475.9,822.8,481.4L822.8,481.4z M832,442.8c3.1-3.4,7.1-5.2,12.1-5.2
		c5,0,9,1.7,12.1,5.1c3,3.4,4.5,8.6,4.5,15.5c0,7-1.6,12.2-4.7,15.7c-3.1,3.5-7.1,5.2-12,5.2c-4.9,0-8.9-1.8-12-5.3
		c-3.2-3.5-4.7-8.7-4.7-15.5C827.4,451.5,828.9,446.3,832,442.8L832,442.8z"/>
	<path class="st3" d="M339.8,594.9c4.1,3.5,9.9,5.3,17.6,5.3c5.2,0,9.6-0.7,13.1-2.2c3.5-1.5,6.2-3.7,8.1-6.7c1.9-3,2.9-6.3,2.9-9.7
		c0-3.8-0.8-7-2.4-9.6c-1.6-2.6-3.8-4.6-6.7-6.1s-7.2-2.9-13.1-4.3c-5.9-1.4-9.7-2.7-11.2-4c-1.2-1-1.8-2.2-1.8-3.7
		c0-1.6,0.6-2.8,1.9-3.7c2-1.5,4.8-2.2,8.3-2.2c3.4,0,6,0.7,7.7,2c1.7,1.4,2.8,3.6,3.4,6.7l12.2-0.5c-0.2-5.5-2.2-10-6-13.3
		c-3.8-3.3-9.5-5-17.1-5c-4.6,0-8.6,0.7-11.9,2.1c-3.3,1.4-5.8,3.4-7.5,6.1c-1.7,2.7-2.6,5.5-2.6,8.6c0,4.8,1.9,8.8,5.6,12.1
		c2.6,2.4,7.2,4.3,13.7,6c5.1,1.3,8.3,2.1,9.8,2.6c2.1,0.7,3.5,1.6,4.4,2.6c0.8,1,1.3,2.2,1.3,3.6c0,2.2-1,4.2-3,5.8
		c-2,1.7-4.9,2.5-8.9,2.5c-3.7,0-6.6-0.9-8.8-2.8c-2.2-1.9-3.6-4.8-4.3-8.8l-11.9,1.2C333.3,586.2,335.7,591.3,339.8,594.9
		L339.8,594.9z"/>
	<path class="st3" d="M477.8,582.7c1.5-4,2.2-8.5,2.2-13.7c0-9.8-2.6-17.5-7.9-23c-5.2-5.5-12.3-8.2-21.3-8.2
		c-9,0-16.2,2.7-21.4,8.2c-5.3,5.5-7.9,13.1-7.9,23c0,9.9,2.6,17.5,7.9,23c5.3,5.5,12.5,8.2,21.8,8.2c4.8,0,9.2-0.9,13.1-2.6
		c5,3.4,7.7,5.2,8.1,5.3c1.8,1,3.6,1.7,5.4,2.3l4.5-8.6c-3.5-1.3-6.8-3-9.8-5.1C475,588.6,476.7,585.7,477.8,582.7L477.8,582.7
		L477.8,582.7z M451.3,578.4l-3.4,7c2.6,0.9,5.1,2.2,7.5,3.8c-1.6,0.6-3.2,0.9-5,0.9c-4.7,0-8.6-1.8-11.7-5.2
		c-3.1-3.5-4.6-8.8-4.6-15.8c0-6.9,1.5-12.1,4.6-15.6c3.1-3.5,7.1-5.2,12.1-5.2c5,0,9,1.7,12.1,5.2c3.1,3.4,4.6,8.6,4.6,15.6
		c0,3.4-0.4,6.4-1.2,9c-0.8,2.6-2,4.8-3.5,6.7C459.1,581.8,455.3,579.8,451.3,578.4L451.3,578.4L451.3,578.4z M496.6,570.9
		c0,6.7,0.4,11.9,1.2,15.3c0.5,2.3,1.7,4.6,3.4,6.7c1.7,2.1,4.1,3.9,7.1,5.2c3,1.3,7.3,2,13.1,2c4.8,0,8.6-0.6,11.6-1.8
		c3-1.2,5.3-2.9,7.1-4.9c1.8-2.1,3-4.6,3.6-7.6c0.7-3,1-8.1,1-15.3v-31.7h-12.2v33.4c0,4.8-0.2,8.2-0.5,10.2
		c-0.4,2.1-1.4,3.8-3.2,5.2c-1.8,1.4-4.4,2.1-7.8,2.1c-3.4,0-6.1-0.7-8-2.2c-2-1.5-3.2-3.5-3.7-5.9c-0.3-1.5-0.5-4.9-0.5-10.1v-32.7
		h-12.2V570.9L496.6,570.9z M594.8,538.8h-12.9l-23.5,60.3h12.9l5-13.7h24.1l5.3,13.7H619L594.8,538.8L594.8,538.8z M580.1,575.2
		l8.1-22.4l8.3,22.4H580.1L580.1,575.2z M632.5,599.1h22.9c4.5,0,8.1-0.4,10.8-1.3c3.6-1.2,6.4-2.8,8.6-4.8c2.8-2.7,5-6.3,6.5-10.7
		c1.2-3.6,1.9-7.9,1.9-12.8c0-5.7-0.7-10.4-2-14.3c-1.3-3.9-3.2-7.1-5.8-9.8c-2.5-2.7-5.6-4.5-9.1-5.6c-2.6-0.8-6.5-1.2-11.5-1.2
		h-22.3V599.1L632.5,599.1z M650.1,549c5,0,8.3,0.2,10,0.6c2.3,0.5,4.2,1.4,5.6,2.8c1.5,1.4,2.6,3.3,3.5,5.8
		c0.8,2.5,1.2,6.1,1.2,10.7c0,4.7-0.4,8.3-1.2,11c-0.8,2.7-1.9,4.6-3.2,5.8c-1.3,1.2-2.9,2-4.9,2.5c-1.5,0.4-4,0.6-7.4,0.6h-9.1v-40
		H650.1L650.1,549z"/>
</g>
</svg>
