<?xml version="1.0" encoding="utf-8"?>
<!-- Generator: Adobe Illustrator 25.4.1, SVG Export Plug-In . SVG Version: 6.00 Build 0)  -->
<svg version="1.1" id="MAC_Viper_AirFX-_Thumbnail" xmlns="http://www.w3.org/2000/svg" xmlns:xlink="http://www.w3.org/1999/xlink"
	 x="0px" y="0px" viewBox="0 0 1024 1024" style="enable-background:new 0 0 1024 1024;" xml:space="preserve">
<style type="text/css">
	.st0{fill-rule:evenodd;clip-rule:evenodd;fill:#CCCCCC;stroke:#1D1D1B;stroke-miterlimit:10;}
	.st1{fill:none;stroke:#1D1D1B;stroke-linecap:round;stroke-linejoin:round;stroke-miterlimit:10;}
	.st2{fill-rule:evenodd;clip-rule:evenodd;fill:#FFFFFF;stroke:#1D1D1B;stroke-miterlimit:10;}
	.st3{stroke:#1D1D1B;stroke-miterlimit:10;}
</style>
<g>
	<path class="st0" d="M808.3,268.2l-27.8,24.1l-17.3-1.8H260.7l-17.3,1.8l-27.8-24.1l-58.8,12.3l-17.2,38.1l-18.8,53.7l-11.8,93.5
		l-6.6,90l6.6,90l11.8,93.5l18.8,53.7l17.2,38.1l58.8,12.3l27.8-24.1l17.3,1.8h502.5l17.3-1.8l27.8,24.1l58.8-12.3l17.2-38.1
		l18.8-53.7l11.8-93.5l6.6-90l-6.6-90l-11.8-93.5l-18.8-53.7l-17.2-38.1L808.3,268.2 M130.5,457.9c0-4.1,0.4-9.7,1.2-16.8
		c0.8-7.1,1.9-12.7,3.2-16.8c1.4-4.1,2.4-6.2,3.2-6.2h36.4c1.6,0,3,2.1,4.4,6.2c1.4,4.1,2.4,9.7,3.2,16.8c0.8,7.1,1.2,12.7,1.2,16.8
		v196.1c0,4.1-0.4,9.7-1.2,16.8c-0.8,7.1-1.9,12.7-3.2,16.8c-1.4,4.1-2.4,6.2-3.2,6.2h-37.6c-0.8,0-1.9-2.1-3.2-6.2
		c-1.4-4.1-2.4-9.7-3.2-16.8c-0.8-7.1-1.2-12.7-1.2-16.8V457.9 M889.5,686.5c-1.4,4.1-2.4,6.2-3.2,6.2l-36.4,0.1c-1.6,0-3-2-4.4-6.1
		c-1.4-4.1-2.5-9.7-3.3-16.8c-0.8-7.1-1.2-12.7-1.2-16.8l-0.6-196.1c0-4.1,0.4-9.7,1.1-16.8c0.8-7.1,1.8-12.7,3.2-16.8
		c1.4-4.1,2.4-6.2,3.2-6.2l37.6-0.1c0.8,0,1.9,2,3.2,6.1c1.4,4.1,2.5,9.7,3.3,16.8c0.8,7.1,1.2,12.7,1.2,16.8l0.6,196
		c0,4.1-0.4,9.7-1.1,16.8C891.9,676.7,890.8,682.3,889.5,686.5"/>
	<polyline class="st0" points="234.7,812.9 198.9,807.2 162.3,792.8 138.1,693.7 	"/>
	<polyline class="st0" points="234.9,299.1 199.1,304.7 162.5,319.1 138.1,418.1 	"/>
	<polyline class="st0" points="788.5,813.7 824.4,808.2 860.9,793.8 885.5,694.8 	"/>
	<polyline class="st0" points="789.8,299.9 825.7,305.6 862.2,320.1 886.3,419.2 	"/>
	<polyline class="st0" points="227.8,422.4 511.7,422 795.5,422.4 851.3,428.6 911,465.8 918.9,555.4 911,647 850.4,684.1 
		797.5,690.3 225.9,690.3 173,684.1 112.4,647 104.5,555.4 112.3,465.8 172,428.6 227.8,422.4 	"/>
	<polyline class="st0" points="815,673.4 833.2,655.9 836.9,638.3 843.7,555.5 837.3,471.8 829,450.6 810.6,440.3 831.1,435.8 
		850.9,449.2 858.7,469.1 864.5,554.6 858.7,640.1 848.3,667.8 832.2,678.6 813.7,672.8 815.8,675.6 814.3,673.1 	"/>
	<polyline class="st0" points="208.4,673.4 190.2,655.9 186.4,638.3 179.7,555.5 186.1,471.8 194.3,450.6 212.8,440.3 192.3,435.8 
		172.4,449.2 164.6,469.1 158.9,554.6 164.6,640.1 175,667.8 191.1,678.6 209.6,672.8 207.5,675.6 209,673.1 	"/>
	<path class="st1" d="M208.4,673.4l-18.2-17.5l-3.7-17.7l-6.8-82.8l6.4-83.7l8.3-21.2l18.5-10.2l-20.5-4.5l-19.9,13.3l-7.8,19.9
		l-5.7,85.5l5.7,85.5l10.4,27.7l16.1,10.8l18.5-5.8l-2.1,2.8l1.5-2.5 M771.2,422.4v267.9 M252.1,422.4l0.4,267.9 M227.8,422.4
		l0.4,267.9 M795.5,422.4l2,267.9"/>
	<path class="st0" d="M513.2,843.4L701.6,25.8C576.6-3,446.7-2.8,321.9,26.5L513.2,843.4"/>
	<polyline class="st0" points="512.4,998.2 423.1,993.4 376.8,985 366.4,974.7 356,938.8 289,915 276.9,894.5 245.7,822.5 
		238.8,793.3 236,783.3 230.7,689.8 231.6,424.2 262.6,295.7 276,215 322.1,149.7 344.3,127.2 677.1,126.6 699.4,148.9 745.7,214.1 
		759.4,294.8 793.1,424.2 794,689.8 788.7,783.3 785.9,793.3 778.3,821.5 747.4,893.5 735.4,914.1 709.7,926.1 668.5,938.2 
		658.2,974.2 647.9,984.5 601.6,993.1 512.4,998.2 	"/>
	<rect x="366.9" y="820.3" class="st0" width="289.6" height="86.5"/>
	<path class="st1" d="M366.9,820.3h289.6v86.5H366.9V820.3z M644.7,891.5H380.2 M644.7,879.1H380.2 M644.7,866.6H380.2 M644.7,854.1
		H380.2 M644.7,841.7H380.2 M644.7,829.2H380.2"/>
	<polyline class="st0" points="664.4,886.7 687.2,890.1 730.4,858.4 760.2,783.8 738.4,377 666.1,172.7 	"/>
	<polyline class="st1" points="664.4,886.7 687.2,890.1 730.4,858.4 760.2,783.8 738.4,377 666.1,172.7 	"/>
	<polyline class="st0" points="360.2,886.7 337.5,890.1 294.2,858.4 264.5,783.8 286.3,377 358.5,172.7 	"/>
	<path class="st1" d="M360.2,886.7l-22.7,3.4l-43.3-31.7l-29.8-74.6L286.3,377l72.2-204.3 M649.6,166.1l72.1,200.7 M372,166.1
		l-72.1,200.7"/>
	<polyline class="st0" points="344.3,127.2 318.6,26.1 702.3,25.4 677.1,126.6 344.3,127.2 	"/>
	<rect x="280.2" y="438.4" class="st2" width="463" height="237"/>
	<path class="st3" d="M361.5,542.4v-35.4l12,35.4h5l12.1-34.8v34.8h5.3v-41.6h-7.4l-10,28.9c-1,2.9-1.7,5.2-2.2,6.7
		c-0.4-1.4-1.1-3.4-2-6.2l-9.8-29.4h-8.3v41.6H361.5L361.5,542.4z M406.1,542.4l4.6-12.6H428l4.9,12.6h6.3l-17-41.6h-5.9l-16,41.6
		H406.1L406.1,542.4z M416.8,513.1c1-2.6,1.7-5.3,2.2-7.9c0.6,2.3,1.6,5.1,3,8.6l4.3,11.5h-14.1L416.8,513.1L416.8,513.1z
		 M468.9,535.7c-2.1,1.8-4.7,2.7-7.8,2.7c-2.5,0-4.9-0.7-7.1-2c-2.2-1.3-3.8-3.3-4.8-5.9c-1-2.6-1.5-5.7-1.5-9.3
		c0-2.7,0.4-5.4,1.3-8c0.9-2.6,2.4-4.6,4.5-6.2c2.1-1.5,4.8-2.3,8-2.3c2.8,0,5.1,0.7,6.9,2.1c1.8,1.4,3.2,3.6,4.2,6.6l5.4-1.3
		c-1.1-3.8-3.1-6.8-5.9-8.9c-2.8-2.1-6.3-3.2-10.5-3.2c-3.7,0-7,0.8-10.1,2.5c-3.1,1.7-5.4,4.1-7.1,7.3c-1.7,3.2-2.5,7-2.5,11.3
		c0,4,0.7,7.7,2.2,11.2c1.5,3.5,3.6,6.1,6.4,7.9c2.8,1.8,6.5,2.7,10.9,2.7c4.3,0,8-1.2,11-3.6c3-2.4,5.1-5.8,6.2-10.3l-5.5-1.4
		C472.5,531.3,471,533.9,468.9,535.7L468.9,535.7z M519.2,542.4l16.3-41.6h-5.6L518.6,531c-0.9,2.3-1.6,4.5-2.2,6.8
		c-0.6-2.1-1.3-4.4-2.2-6.8l-10.8-30.2h-6l16.1,41.6H519.2L519.2,542.4z M546.8,542.4v-41.6h-5.5v41.6H546.8L546.8,542.4z
		 M562,542.4v-16.9h10.7c5.9,0,9.9-1.2,12.2-3.7c2.3-2.4,3.4-5.4,3.4-9c0-2.1-0.4-4-1.3-5.7c-0.8-1.7-2-3.1-3.3-4
		c-1.4-1-3.1-1.6-5.1-1.9c-1.5-0.3-3.6-0.4-6.3-0.4h-15.7v41.6H562L562,542.4z M562,505.7h10.6c2.5,0,4.2,0.1,5.1,0.4
		c1.4,0.4,2.6,1.2,3.5,2.5c0.9,1.2,1.3,2.7,1.3,4.5c0,2.4-0.7,4.3-2.2,5.6c-1.5,1.3-4,2-7.6,2H562V505.7L562,505.7z M626.4,542.4
		v-4.9h-25.5v-14.2h23v-4.9h-23v-12.7h24.6v-4.9h-30.1v41.6H626.4L626.4,542.4z M639.6,542.4v-18.5h6.4c1.4,0,2.4,0.1,3.1,0.2
		c0.9,0.2,1.7,0.6,2.5,1.1c0.8,0.5,1.8,1.5,2.8,2.8c1,1.3,2.4,3.2,4,5.7l5.5,8.7h6.9l-7.2-11.3c-1.4-2.2-3-4.1-4.6-5.5
		c-0.8-0.7-1.9-1.4-3.3-2.1c4-0.5,6.9-1.8,8.9-3.9c1.9-2,2.9-4.5,2.9-7.5c0-2.3-0.6-4.4-1.7-6.3c-1.2-1.9-2.7-3.2-4.6-4
		c-1.9-0.7-4.7-1.1-8.5-1.1h-18.4v41.6H639.6L639.6,542.4z M639.6,505.4h13.2c3.1,0,5.3,0.6,6.8,1.9c1.4,1.3,2.1,2.9,2.1,4.9
		c0,1.3-0.4,2.6-1.1,3.7c-0.7,1.1-1.8,2-3.2,2.5c-1.4,0.5-3.4,0.8-5.9,0.8h-11.8V505.4L639.6,505.4z"/>
	<path class="st3" d="M444.8,609.2l4.6-12.6h17.4l4.9,12.6h6.3l-17-41.6h-5.9l-16,41.6H444.8L444.8,609.2z M455.5,579.9
		c1-2.6,1.7-5.3,2.2-7.9c0.6,2.3,1.6,5.1,3,8.6l4.3,11.5H451L455.5,579.9L455.5,579.9z M486.8,573.5v-5.9h-5.1v5.9H486.8
		L486.8,573.5z M486.8,609.2V579h-5.1v30.1H486.8L486.8,609.2z M499.6,609.2v-15.8c0-2.2,0.3-4.1,0.9-6c0.4-1.2,1-2.1,1.9-2.8
		c0.9-0.7,1.9-1,3-1c1.2,0,2.5,0.4,3.7,1.1l1.8-4.7c-1.8-1.1-3.5-1.6-5.2-1.6c-1.2,0-2.3,0.3-3.3,1c-1,0.7-2.1,2.1-3.2,4.2V579h-4.6
		v30.1H499.6L499.6,609.2z M520.3,609.2v-18.9h19.5v-4.9h-19.5v-12.9h22.6v-4.9h-28.1v41.6H520.3L520.3,609.2z M552.4,609.2
		l10.4-14.5c0.4-0.6,1.1-1.6,2-3.1c0.6,1,1.2,1.9,1.8,2.8l10.5,14.8h6.8l-15.7-22l14.6-19.6h-6l-8.4,11c-1.3,1.6-2.4,3.2-3.3,4.7
		c-0.7-1.2-1.8-2.9-3.3-5.1l-7.5-10.7h-6.6l14.2,19.9l-16.1,21.7H552.4L552.4,609.2z"/>
</g>
</svg>
