<?xml version="1.0" encoding="UTF-8"?>
<svg id="EXT_Linear_Pro_Graze_QUAD_-_Thumbnail" data-name="EXT Linear Pro Graze QUAD - Thumbnail" xmlns="http://www.w3.org/2000/svg" viewBox="0 0 1024 1024">
  <defs>
    <style>
      .cls-1, .cls-2 {
        fill: #fff;
      }

      .cls-2, .cls-3 {
        fill-rule: evenodd;
      }

      .cls-4 {
        stroke-width: .16px;
      }

      .cls-4, .cls-5 {
        fill: none;
        stroke: #000;
        stroke-linecap: round;
        stroke-linejoin: round;
      }

      .cls-6, .cls-3 {
        fill: #ccc;
      }
    </style>
  </defs>
  <g id="_1FT" data-name="1FT">
    <rect class="cls-6" x="33.36" y="450.42" width="957.15" height="122.76"/>
    <rect class="cls-5" x="33.36" y="450.42" width="957.15" height="122.76"/>
    <path class="cls-3" d="M838.8,511.81c0-19.03-15.65-34.68-34.68-34.68s-34.68,15.66-34.68,34.68,15.65,34.68,34.68,34.68,34.68-15.66,34.68-34.68"/>
    <path class="cls-4" d="M838.8,511.81c0-19.03-15.65-34.68-34.68-34.68s-34.68,15.66-34.68,34.68,15.65,34.68,34.68,34.68,34.68-15.66,34.68-34.68"/>
    <path class="cls-3" d="M721.93,511.8c0-19.03-15.66-34.68-34.68-34.68s-34.68,15.66-34.68,34.68,15.65,34.68,34.68,34.68,34.68-15.66,34.68-34.68"/>
    <path class="cls-4" d="M721.93,511.8c0-19.03-15.66-34.68-34.68-34.68s-34.68,15.66-34.68,34.68,15.65,34.68,34.68,34.68,34.68-15.66,34.68-34.68"/>
    <path class="cls-3" d="M605.05,511.8c0-19.03-15.65-34.68-34.68-34.68s-34.68,15.66-34.68,34.68,15.66,34.68,34.68,34.68,34.68-15.66,34.68-34.68"/>
    <path class="cls-4" d="M605.05,511.8c0-19.03-15.65-34.68-34.68-34.68s-34.68,15.66-34.68,34.68,15.66,34.68,34.68,34.68,34.68-15.66,34.68-34.68"/>
    <path class="cls-3" d="M488.18,511.8c0-19.03-15.65-34.68-34.68-34.68s-34.68,15.66-34.68,34.68,15.65,34.68,34.68,34.68,34.68-15.66,34.68-34.68"/>
    <path class="cls-4" d="M488.18,511.8c0-19.03-15.65-34.68-34.68-34.68s-34.68,15.66-34.68,34.68,15.65,34.68,34.68,34.68,34.68-15.66,34.68-34.68"/>
    <path class="cls-3" d="M371.31,511.79c0-19.03-15.66-34.68-34.68-34.68s-34.68,15.66-34.68,34.68,15.65,34.68,34.68,34.68,34.68-15.66,34.68-34.68"/>
    <path class="cls-4" d="M371.31,511.79c0-19.03-15.66-34.68-34.68-34.68s-34.68,15.66-34.68,34.68,15.65,34.68,34.68,34.68,34.68-15.66,34.68-34.68"/>
    <path class="cls-3" d="M254.44,511.79c0-19.03-15.66-34.68-34.68-34.68s-34.68,15.66-34.68,34.68,15.66,34.68,34.68,34.68,34.68-15.66,34.68-34.68"/>
    <path class="cls-4" d="M254.44,511.79c0-19.03-15.66-34.68-34.68-34.68s-34.68,15.66-34.68,34.68,15.66,34.68,34.68,34.68,34.68-15.66,34.68-34.68"/>
    <path class="cls-3" d="M137.57,511.79c0-19.03-15.66-34.68-34.68-34.68s-34.68,15.66-34.68,34.68,15.66,34.68,34.68,34.68,34.68-15.66,34.68-34.68"/>
    <path class="cls-4" d="M137.57,511.79c0-19.03-15.66-34.68-34.68-34.68s-34.68,15.66-34.68,34.68,15.66,34.68,34.68,34.68,34.68-15.66,34.68-34.68"/>
    <path class="cls-3" d="M956.05,511.81c0-19.03-15.66-34.68-34.68-34.68s-34.68,15.66-34.68,34.68,15.65,34.68,34.68,34.68,34.68-15.66,34.68-34.68"/>
    <path class="cls-4" d="M956.05,511.81c0-19.03-15.66-34.68-34.68-34.68s-34.68,15.66-34.68,34.68,15.65,34.68,34.68,34.68,34.68-15.66,34.68-34.68"/>
    <rect class="cls-1" x="205.16" y="465.78" width="613.56" height="92.03"/>
    <rect class="cls-5" x="205.16" y="465.78" width="613.56" height="92.03"/>
    <polyline class="cls-2" points="232.86 493.13 791.02 493.13 791.02 530.47 232.86 530.47 232.86 493.13"/>
    <path d="M252.77,522.35v-2.74h-14.27v-7.91h12.86v-2.73h-12.86v-7.12h13.73v-2.74h-16.8v23.24h17.34Zm5.44,0l4.42-6.64,.92,1.41,3.46,5.23h3.5l-6.26-8.91,5.82-7.93h-3.41l-2.84,3.98c-.39,.54-.82,1.16-1.28,1.85-.3-.51-.69-1.14-1.17-1.89l-2.58-3.95h-3.57l5.69,8.09-6.15,8.75h3.46Zm19.66-2.44c-.42,0-.75-.07-.97-.21-.23-.14-.39-.32-.49-.55-.1-.23-.15-.76-.15-1.57v-9.84h2.87v-2.22h-2.87v-5.88l-2.84,1.71v4.17h-2.09v2.22h2.09v9.69c0,1.71,.12,2.84,.35,3.37,.23,.53,.63,.96,1.2,1.29,.57,.33,1.37,.49,2.41,.49,.63,0,1.35-.08,2.16-.25l-.41-2.52c-.52,.07-.94,.11-1.25,.11h0Zm13.81-.35c-.74,.55-1.63,.82-2.68,.82-1.41,0-2.58-.49-3.52-1.47-.94-.98-1.46-2.4-1.57-4.25h12.56c.01-.34,.02-.59,.02-.76,0-2.78-.71-4.94-2.14-6.47-1.43-1.53-3.27-2.3-5.52-2.3s-4.22,.78-5.68,2.35c-1.46,1.56-2.19,3.76-2.19,6.59s.72,4.86,2.16,6.38c1.44,1.52,3.4,2.27,5.86,2.27,1.96,0,3.56-.48,4.82-1.43,1.26-.95,2.12-2.29,2.58-4.01l-2.95-.36c-.43,1.2-1.02,2.08-1.76,2.63h0Zm-6.13-10.76c.89-.88,1.99-1.32,3.31-1.32,1.45,0,2.63,.55,3.54,1.65,.59,.71,.95,1.77,1.08,3.19h-9.4c.1-1.47,.59-2.64,1.48-3.52h0Zm17.24,13.55v-8.81c0-1.2,.16-2.31,.48-3.33,.21-.67,.57-1.19,1.06-1.56,.5-.38,1.06-.56,1.68-.56,.7,0,1.4,.21,2.09,.62l.98-2.65c-.99-.61-1.97-.92-2.93-.92-.67,0-1.28,.19-1.83,.57s-1.16,1.17-1.82,2.36v-2.55h-2.57v16.84h2.85Zm10.86-19.96v-3.28h-2.85v3.28h2.85Zm0,19.96v-16.84h-2.85v16.84h2.85Zm5.46-1.89c1.45,1.51,3.36,2.27,5.72,2.27,1.47,0,2.82-.34,4.07-1.03,1.24-.69,2.19-1.65,2.84-2.89,.65-1.24,.97-2.95,.97-5.11,0-2.67-.73-4.77-2.2-6.29-1.47-1.52-3.36-2.27-5.68-2.27-2.08,0-3.85,.62-5.29,1.87-1.73,1.5-2.6,3.81-2.6,6.93,0,2.84,.73,5.02,2.18,6.53h0Zm2.16-11.37c.94-1.07,2.12-1.6,3.55-1.6s2.58,.54,3.53,1.61c.95,1.07,1.42,2.65,1.42,4.73,0,2.21-.47,3.85-1.41,4.93-.94,1.08-2.12,1.62-3.54,1.62s-2.61-.54-3.55-1.61c-.94-1.07-1.41-2.69-1.41-4.84s.47-3.77,1.41-4.84h0Zm17.6,13.25v-8.81c0-1.2,.16-2.31,.48-3.33,.21-.67,.57-1.19,1.06-1.56,.5-.38,1.06-.56,1.68-.56,.7,0,1.4,.21,2.09,.62l.98-2.65c-.99-.61-1.97-.92-2.93-.92-.67,0-1.28,.19-1.83,.57s-1.16,1.17-1.82,2.36v-2.55h-2.57v16.84h2.85Zm31.77,0v-2.74h-11.45v-20.5h-3.08v23.24h14.52Zm6.17-19.96v-3.28h-2.85v3.28h2.85Zm0,19.96v-16.84h-2.85v16.84h2.85Zm7.2,0v-9.19c0-2.16,.44-3.62,1.32-4.39,.88-.77,1.93-1.16,3.15-1.16,.76,0,1.42,.17,1.99,.52,.57,.34,.96,.8,1.18,1.38,.22,.58,.33,1.45,.33,2.61v10.24h2.85v-10.35c0-1.32-.05-2.25-.16-2.77-.17-.81-.47-1.52-.89-2.11-.42-.59-1.06-1.07-1.91-1.43-.85-.36-1.78-.55-2.8-.55-2.34,0-4.12,.92-5.36,2.77v-2.39h-2.57v16.84h2.85Zm24.97-2.79c-.74,.55-1.63,.82-2.68,.82-1.41,0-2.58-.49-3.52-1.47-.94-.98-1.46-2.4-1.57-4.25h12.56c.01-.34,.02-.59,.02-.76,0-2.78-.71-4.94-2.14-6.47-1.43-1.53-3.27-2.3-5.52-2.3s-4.22,.78-5.68,2.35c-1.46,1.56-2.19,3.76-2.19,6.59s.72,4.86,2.16,6.38c1.44,1.52,3.4,2.27,5.86,2.27,1.96,0,3.56-.48,4.82-1.43,1.26-.95,2.12-2.29,2.58-4.01l-2.95-.36c-.43,1.2-1.02,2.08-1.76,2.63h0Zm-6.13-10.76c.89-.88,1.99-1.32,3.31-1.32,1.45,0,2.63,.55,3.54,1.65,.59,.71,.95,1.77,1.08,3.19h-9.4c.1-1.47,.59-2.64,1.48-3.52h0Zm25.98,13.55h2.98c-.36-.64-.6-1.32-.72-2.02-.12-.7-.18-2.38-.18-5.03v-3.8c0-1.27-.05-2.15-.14-2.63-.17-.78-.47-1.43-.89-1.94-.42-.51-1.08-.94-1.98-1.28-.9-.34-2.07-.51-3.5-.51s-2.72,.2-3.82,.59c-1.1,.4-1.94,.96-2.52,1.7-.58,.73-1,1.7-1.25,2.89l2.79,.38c.31-1.19,.78-2.03,1.42-2.5,.64-.47,1.63-.71,2.97-.71,1.44,0,2.52,.32,3.25,.97,.54,.48,.81,1.29,.81,2.46,0,.11,0,.35-.02,.75-1.09,.38-2.78,.71-5.09,.98-1.13,.14-1.98,.28-2.54,.43-.76,.21-1.45,.52-2.05,.94-.61,.41-1.1,.96-1.47,1.64-.38,.68-.56,1.43-.56,2.26,0,1.41,.5,2.56,1.49,3.46,.99,.9,2.41,1.36,4.26,1.36,1.12,0,2.17-.19,3.15-.55,.98-.37,1.99-1,3.05-1.9,.08,.79,.27,1.49,.57,2.08h0Zm-.81-7.4c0,1.26-.15,2.21-.46,2.85-.4,.84-1.03,1.49-1.89,1.97-.86,.48-1.83,.72-2.93,.72s-1.95-.25-2.53-.76c-.58-.51-.86-1.14-.86-1.9,0-.5,.13-.95,.4-1.36,.26-.41,.64-.72,1.13-.93,.49-.21,1.32-.4,2.49-.57,2.07-.3,3.62-.66,4.66-1.08v1.05h0Zm10.13,7.4v-8.81c0-1.2,.16-2.31,.48-3.33,.21-.67,.57-1.19,1.06-1.56,.5-.38,1.06-.56,1.68-.56,.7,0,1.4,.21,2.09,.62l.98-2.65c-.99-.61-1.97-.92-2.93-.92-.67,0-1.28,.19-1.83,.57s-1.16,1.17-1.82,2.36v-2.55h-2.57v16.84h2.85Zm20.45,0v-9.45h5.96c3.29,0,5.56-.68,6.82-2.05,1.26-1.37,1.89-3.04,1.89-5.02,0-1.15-.24-2.21-.71-3.17-.47-.96-1.09-1.71-1.86-2.24-.77-.53-1.73-.9-2.87-1.09-.81-.15-1.99-.22-3.54-.22h-8.77v23.24h3.08Zm0-20.5h5.94c1.4,0,2.35,.07,2.87,.21,.8,.22,1.45,.68,1.94,1.37,.49,.69,.74,1.52,.74,2.5,0,1.34-.42,2.38-1.25,3.12-.84,.74-2.25,1.11-4.23,1.11h-6.01v-8.31h0Zm21.04,20.5v-8.81c0-1.2,.16-2.31,.48-3.33,.21-.67,.57-1.19,1.06-1.56,.5-.38,1.06-.56,1.68-.56,.7,0,1.4,.21,2.09,.62l.98-2.65c-.99-.61-1.97-.92-2.93-.92-.67,0-1.28,.19-1.83,.57s-1.16,1.17-1.82,2.36v-2.55h-2.57v16.84h2.85Zm9.11-1.89c1.45,1.51,3.36,2.27,5.72,2.27,1.47,0,2.82-.34,4.07-1.03,1.24-.69,2.19-1.65,2.84-2.89,.65-1.24,.97-2.95,.97-5.11,0-2.67-.73-4.77-2.2-6.29-1.47-1.52-3.36-2.27-5.68-2.27-2.08,0-3.85,.62-5.29,1.87-1.73,1.5-2.6,3.81-2.6,6.93,0,2.84,.73,5.02,2.18,6.53h0Zm2.16-11.37c.94-1.07,2.12-1.6,3.55-1.6s2.58,.54,3.53,1.61c.95,1.07,1.42,2.65,1.42,4.73,0,2.21-.47,3.85-1.41,4.93-.94,1.08-2.12,1.62-3.54,1.62s-2.61-.54-3.55-1.61c-.94-1.07-1.41-2.69-1.41-4.84s.47-3.77,1.41-4.84h0Zm41.87,4.14v4.33c-.66,.58-1.62,1.13-2.89,1.64-1.27,.51-2.57,.77-3.9,.77-1.53,0-2.98-.34-4.34-1.01-1.36-.68-2.4-1.71-3.12-3.11s-1.07-3.13-1.07-5.2c0-1.68,.3-3.24,.89-4.68,.35-.83,.84-1.6,1.47-2.3,.63-.7,1.46-1.26,2.48-1.69,1.03-.43,2.24-.64,3.65-.64,1.17,0,2.24,.2,3.2,.61,.96,.41,1.7,.95,2.22,1.62,.52,.68,.95,1.61,1.3,2.79l2.77-.76c-.4-1.56-.99-2.83-1.76-3.8-.77-.97-1.84-1.73-3.19-2.27-1.36-.54-2.88-.82-4.56-.82-2.31,0-4.36,.48-6.14,1.43s-3.14,2.41-4.08,4.37c-.95,1.96-1.42,4.07-1.42,6.33s.48,4.35,1.43,6.2c.95,1.85,2.36,3.26,4.22,4.24,1.87,.98,3.94,1.47,6.22,1.47,1.69,0,3.34-.3,4.95-.91,1.61-.61,3.17-1.51,4.68-2.72v-8.62l-9.84,.02v2.73h6.83Zm10,9.12v-8.81c0-1.2,.16-2.31,.48-3.33,.21-.67,.57-1.19,1.06-1.56,.5-.38,1.06-.56,1.68-.56,.7,0,1.4,.21,2.09,.62l.98-2.65c-.99-.61-1.97-.92-2.93-.92-.67,0-1.28,.19-1.83,.57s-1.16,1.17-1.82,2.36v-2.55h-2.57v16.84h2.85Zm19.55,0h2.98c-.36-.64-.6-1.32-.72-2.02-.12-.7-.18-2.38-.18-5.03v-3.8c0-1.27-.05-2.15-.14-2.63-.17-.78-.47-1.43-.89-1.94-.42-.51-1.08-.94-1.98-1.28-.9-.34-2.07-.51-3.5-.51s-2.72,.2-3.82,.59c-1.1,.4-1.94,.96-2.52,1.7-.58,.73-1,1.7-1.25,2.89l2.79,.38c.31-1.19,.78-2.03,1.42-2.5,.64-.47,1.63-.71,2.97-.71,1.44,0,2.52,.32,3.25,.97,.54,.48,.81,1.29,.81,2.46,0,.11,0,.35-.02,.75-1.09,.38-2.78,.71-5.09,.98-1.13,.14-1.98,.28-2.54,.43-.76,.21-1.45,.52-2.05,.94-.61,.41-1.1,.96-1.47,1.64-.38,.68-.56,1.43-.56,2.26,0,1.41,.5,2.56,1.49,3.46,.99,.9,2.41,1.36,4.26,1.36,1.12,0,2.17-.19,3.15-.55,.98-.37,1.99-1,3.05-1.9,.08,.79,.27,1.49,.57,2.08h0Zm-.81-7.4c0,1.26-.15,2.21-.46,2.85-.4,.84-1.03,1.49-1.89,1.97-.86,.48-1.83,.72-2.93,.72s-1.95-.25-2.53-.76c-.58-.51-.86-1.14-.86-1.9,0-.5,.13-.95,.4-1.36,.26-.41,.64-.72,1.13-.93,.49-.21,1.32-.4,2.49-.57,2.07-.3,3.62-.66,4.66-1.08v1.05h0Zm20.7,7.4v-2.46h-7.78c-1.12,0-2.32,.05-3.6,.14l1.76-1.95,9.12-10.69v-1.89h-13.76v2.31h6.86c.93,0,2-.03,3.22-.1l-10.72,12.3v2.31h14.9Zm12.6-2.79c-.74,.55-1.63,.82-2.68,.82-1.41,0-2.58-.49-3.52-1.47-.94-.98-1.46-2.4-1.57-4.25h12.56c.01-.34,.02-.59,.02-.76,0-2.78-.71-4.94-2.14-6.47-1.43-1.53-3.27-2.3-5.52-2.3s-4.22,.78-5.68,2.35c-1.46,1.56-2.19,3.76-2.19,6.59s.72,4.86,2.16,6.38c1.44,1.52,3.4,2.27,5.86,2.27,1.96,0,3.56-.48,4.82-1.43,1.26-.95,2.12-2.29,2.58-4.01l-2.95-.36c-.43,1.2-1.02,2.08-1.76,2.63h0Zm-6.13-10.76c.89-.88,1.99-1.32,3.31-1.32,1.45,0,2.63,.55,3.54,1.65,.59,.71,.95,1.77,1.08,3.19h-9.4c.1-1.47,.59-2.64,1.48-3.52h0Zm44.05,7.08c.58-1.53,.87-3.25,.87-5.16,0-2.3-.45-4.37-1.36-6.21-.9-1.83-2.22-3.26-3.94-4.28-1.72-1.02-3.66-1.53-5.8-1.53s-4.05,.49-5.76,1.47c-1.72,.98-3.04,2.42-3.97,4.3-.93,1.88-1.4,3.97-1.4,6.26s.46,4.38,1.39,6.21c.92,1.84,2.24,3.27,3.96,4.28s3.62,1.52,5.72,1.52,3.98-.48,5.71-1.44c1.66,1.3,3.32,2.25,4.99,2.85l.9-2.14c-1.2-.45-2.52-1.17-3.95-2.16,1.17-1.13,2.05-2.46,2.63-3.99h0Zm-10.15,2.29c1.07,.26,2.08,.71,3.04,1.33-.97,.41-2.01,.62-3.11,.62-2.33,0-4.24-.81-5.73-2.43-1.5-1.62-2.24-3.94-2.24-6.96s.76-5.46,2.27-7.03c1.51-1.57,3.41-2.35,5.71-2.35,1.53,0,2.91,.39,4.15,1.17,1.23,.78,2.17,1.87,2.81,3.27,.64,1.41,.96,3.05,.96,4.93,0,3.31-.9,5.79-2.71,7.44-1.15-.98-2.62-1.72-4.39-2.22l-.75,2.24h0Zm30.41-5.64c0,2.92-.48,4.89-1.44,5.91-.96,1.03-2.57,1.54-4.84,1.54-1.32,0-2.44-.26-3.35-.78-.91-.52-1.56-1.25-1.93-2.21-.38-.96-.56-2.44-.56-4.46v-13.41h-3.08v13.43c0,2.46,.3,4.4,.89,5.83,.59,1.42,1.58,2.51,2.96,3.26,1.38,.75,3.17,1.13,5.34,1.13s4.05-.43,5.43-1.29c1.38-.86,2.33-1.98,2.86-3.35,.53-1.37,.79-3.23,.79-5.56v-13.43h-3.08v13.41h0Zm8.91,9.83l2.55-7.04h9.72l2.71,7.04h3.5l-9.51-23.24h-3.31l-8.93,23.24h3.27Zm5.99-16.36c.54-1.47,.96-2.95,1.25-4.44,.36,1.26,.91,2.86,1.65,4.82l2.43,6.44h-7.88l2.55-6.82h0Zm23.34,16.36c1.41,0,2.65-.13,3.73-.4,1.08-.26,2.01-.65,2.77-1.17,.77-.51,1.47-1.22,2.12-2.11,.64-.89,1.17-2.02,1.59-3.38s.62-2.93,.62-4.69c0-2.07-.3-3.91-.91-5.52-.61-1.61-1.52-2.94-2.75-3.97-.94-.8-2.08-1.36-3.41-1.66-.95-.22-2.33-.33-4.14-.33h-8.01v23.24h8.39Zm-5.31-20.5h4.88c1.83,0,3.15,.16,3.98,.48,1.14,.44,2.11,1.32,2.91,2.62,.8,1.31,1.2,3.17,1.2,5.6,0,1.75-.2,3.25-.61,4.48-.41,1.23-.97,2.21-1.7,2.94-.52,.52-1.21,.92-2.08,1.2s-2.07,.43-3.61,.43h-4.96v-17.76h0Zm36.68,13.52v-2.87h-8.77v2.87h8.77Zm22.13-16.36h-1.84c-.5,1-1.34,2.04-2.54,3.11-1.19,1.07-2.59,1.98-4.19,2.73v2.76c.89-.33,1.89-.82,3-1.47,1.11-.66,2.02-1.31,2.7-1.97v18.18h2.85v-23.34h0Zm11.7,23.34v-10.56h10.91v-2.74h-10.91v-7.2h12.6v-2.74h-15.68v23.24h3.08Zm25.59,0v-20.5h7.69v-2.74h-18.42v2.74h7.66v20.5h3.08Z"/>
  </g>
</svg>