<svg id="MAC_Aura_-_Thumbnail" data-name="MAC Aura - Thumbnail" xmlns="http://www.w3.org/2000/svg" viewBox="0 0 1024 1024"><defs><style>.cls-1{fill:#ccc;fill-rule:evenodd;}.cls-1,.cls-2,.cls-3{stroke:#000;}.cls-1,.cls-3{stroke-miterlimit:10;}.cls-2{fill:none;stroke-linecap:round;stroke-linejoin:round;}.cls-3{fill:#fff;}</style></defs><polyline class="cls-1" points="708.66 777.31 312.24 777.31 176.09 662.27 48.85 663.06 14.34 639.14 3.15 515.37 14.79 390.54 44.56 367.84 150.52 367.84 170.53 235.92 853.02 235.92 870.79 367.43 978.82 367.43 1007.96 389.58 1020.3 507.65 1008.53 639.56 976.81 662.37 846.57 663.15 710.74 776.75"/><path class="cls-2" d="M708.66,777.31H312.24l-136.15-115-127.24.78L14.34,639.14,3.15,515.37,14.79,390.54l29.77-22.7h106l20-131.92H853l17.77,131.51h108L1008,389.58l12.36,118.07-11.78,131.91-31.72,22.81-130.24.78L710.74,776.75m140.4-261.37-.41-10.82M866,382.18l4.14-14.49M639.43,532H832.2m0,0,.62.78m0,0,.65.08m0,0h17.35M647,774l-3.51,3.11m-6.84.07,3.66-3M660.36,764l2.47-.41m0,0,2.47-.15m5.57,8.11-1.11,2.63m0,0-1.83,3M604.4,731.87l12.65,16.48m0,0-9.95,3.9m11.24-45.92h0m0,0,1.18.32M847.24,536.17l3.59-3.36m0,0-.16-17.43M668.4,774.5l-.08.15m-51.27-26.3,1.28-.55m0,0,1.36-1.11m.95-2.31-11.54-15m.06-22.09-.06,22.09m11.29,16.27.25-1.27m0,0,.08-17.37m0,0-.08-18.86m0,0-.32-.95m0,0-.72-.55M668.49,774l.08-.17m-.16.74-.52,2.72m.6-3-.08.26m0,0,.33-1m0,0-.08.24m-48.25-28.12-.72,1"/><polyline class="cls-1" points="668.48 774.33 668.92 771.92 668.81 769.96 668.22 768.45 667.19 767.37 664.06 766.43 659.88 767.01"/><polyline class="cls-2" points="668.48 774.33 668.92 771.92 668.81 769.96 668.22 768.45 667.19 767.37 664.06 766.43 659.88 767.01"/><polyline class="cls-1" points="665.31 763.43 668.88 764.23 670.95 766.24 671.44 768.59 670.87 771.54"/><polyline class="cls-2" points="665.31 763.43 668.88 764.23 670.95 766.24 671.44 768.59 670.87 771.54"/><path class="cls-1" d="M509.36,507,401.12,747.8a264.06,264.06,0,0,0,206,4.45L509.36,507"/><path class="cls-2" d="M401.12,747.8h0a264.06,264.06,0,0,0,206,4.45m-451-370.07L152,367.69M382.61,532H189.84m0,0-.62.78m0,0-.65.08m0,0H171.22m3.58,3.36-3.59-3.36M415.05,731.87l-12.6,16.52m-1.42-42-1.19.32m2.61,41.69-1.28-.54m0,0-1.36-1.11m-1-2.31,11.49-15m-.14-22.12.14,22.12M399.1,745.7l-.25-1.27m0,0-.13-17.36m0,0,0-18.86m0,0,.3-1m0,0,.73-.55m-.68,39,.72,1m10.78-39.42h0M373.92,774l3.5,3.11m6.85.07-3.67-3M360.54,764l-2.47-.41m0,0-2.47-.15M350,771.54l1.11,2.63m0,0,1.83,3m-.47-2.69.08.15m-.17-.63-.08-.17m.16.74.52,2.72m-.6-3,.08.26m0,0-.32-1m0,0,.07.24"/><polyline class="cls-1" points="352.42 774.33 351.98 771.92 352.09 769.96 352.69 768.45 353.72 767.37 356.85 766.43 361.02 767.01"/><polyline class="cls-2" points="352.42 774.33 351.98 771.92 352.09 769.96 352.69 768.45 353.72 767.37 356.85 766.43 361.02 767.01"/><polyline class="cls-1" points="355.6 763.43 352.03 764.23 349.96 766.24 349.46 768.59 350.03 771.54"/><polyline class="cls-2" points="355.6 763.43 352.03 764.23 349.96 766.24 349.46 768.59 350.03 771.54"/><polyline class="cls-1" points="1008.53 639.56 985.27 507.65 1007.96 389.58"/><polyline class="cls-2" points="1008.53 639.56 985.27 507.65 1007.96 389.58"/><polyline class="cls-1" points="14.34 639.14 36.16 515.37 14.79 390.54"/><path class="cls-2" d="M14.34,639.14,36.16,515.37,14.79,390.54m856-23.11V663M150.52,367.84V662.43M511,678h299"/><polyline class="cls-1" points="809.93 677.98 827.13 661.3 842.29 611.41"/><polyline class="cls-2" points="809.93 677.98 827.13 661.3 842.29 611.41"/><polyline class="cls-1" points="791.03 678.05 808.36 660.72 832.39 536.16 832.03 536.89 832.21 536.52"/><polyline class="cls-2" points="791.03 678.05 808.36 660.72 832.39 536.16 832.03 536.89 832.21 536.52"/><polyline class="cls-1" points="763.21 678.11 780.54 660.78 804.57 536.23 804.21 536.95 804.39 536.59"/><polyline class="cls-2" points="763.21 678.11 780.54 660.78 804.57 536.23 804.21 536.95 804.39 536.59"/><polyline class="cls-1" points="732.19 678.18 749.52 660.85 773.55 536.29 773.19 537.01 773.37 536.65"/><polyline class="cls-2" points="732.19 678.18 749.52 660.85 773.55 536.29 773.19 537.01 773.37 536.65"/><polyline class="cls-1" points="691.44 678.24 708.77 660.91 732.81 536.36 732.44 537.08 732.62 536.72"/><polyline class="cls-2" points="691.44 678.24 708.77 660.91 732.81 536.36 732.44 537.08 732.62 536.72"/><polyline class="cls-1" points="645.76 678.31 663.1 660.98 687.13 536.42 686.76 537.14 686.95 536.78"/><polyline class="cls-2" points="645.76 678.31 663.1 660.98 687.13 536.42 686.76 537.14 686.95 536.78"/><polyline class="cls-1" points="595.29 678.37 612.62 661.04 636.66 536.49 636.29 537.21 636.47 536.85"/><polyline class="cls-2" points="595.29 678.37 612.62 661.04 636.66 536.49 636.29 537.21 636.47 536.85"/><polyline class="cls-1" points="556.86 678.05 564.43 661.09 573.9 536.16"/><polyline class="cls-2" points="556.86 678.05 564.43 661.09 573.9 536.16"/><polyline class="cls-1" points="511.24 677.91 518.39 536.41 519.03 536.33 518.72 536.37 517.08 536.56"/><polyline class="cls-2" points="511.24 677.91 518.39 536.41 519.03 536.33 518.72 536.37 517.08 536.56"/><polyline class="cls-1" points="825.18 664.84 843.74 658.38 844.91 611.82 842.29 611.41 842.85 536.16 832.39 536.16"/><path class="cls-2" d="M825.19,664.84l18.55-6.46,1.17-46.56-2.62-.41.56-75.24H832.39M507.76,678h-299"/><polyline class="cls-1" points="208.8 677.98 191.59 661.3 176.44 611.41"/><polyline class="cls-2" points="208.8 677.98 191.59 661.3 176.44 611.41"/><polyline class="cls-1" points="227.7 678.05 210.37 660.72 186.33 536.16 186.7 536.89 186.52 536.52"/><polyline class="cls-2" points="227.7 678.05 210.37 660.72 186.33 536.16 186.7 536.89 186.52 536.52"/><polyline class="cls-1" points="255.52 678.11 238.19 660.78 214.15 536.23 214.52 536.95 214.34 536.59"/><polyline class="cls-2" points="255.52 678.11 238.19 660.78 214.15 536.23 214.52 536.95 214.34 536.59"/><polyline class="cls-1" points="286.54 678.18 269.21 660.85 245.17 536.29 245.54 537.01 245.36 536.65"/><polyline class="cls-2" points="286.54 678.18 269.21 660.85 245.17 536.29 245.54 537.01 245.36 536.65"/><polyline class="cls-1" points="327.28 678.24 309.95 660.91 285.92 536.36 286.29 537.08 286.1 536.72"/><polyline class="cls-2" points="327.28 678.24 309.95 660.91 285.92 536.36 286.29 537.08 286.1 536.72"/><polyline class="cls-1" points="372.96 678.31 355.63 660.98 331.6 536.42 331.96 537.14 331.78 536.78"/><polyline class="cls-2" points="372.96 678.31 355.63 660.98 331.6 536.42 331.96 537.14 331.78 536.78"/><polyline class="cls-1" points="423.43 678.37 406.1 661.04 382.07 536.49 382.44 537.21 382.25 536.85"/><polyline class="cls-2" points="423.43 678.37 406.1 661.04 382.07 536.49 382.44 537.21 382.25 536.85"/><polyline class="cls-1" points="461.87 678.05 454.3 661.09 444.82 536.16"/><polyline class="cls-2" points="461.87 678.05 454.3 661.09 444.82 536.16"/><polyline class="cls-1" points="507.48 677.91 500.33 536.41 499.69 536.33 500.01 536.37 501.65 536.56"/><polyline class="cls-2" points="507.48 677.91 500.33 536.41 499.69 536.33 500.01 536.37 501.65 536.56"/><polyline class="cls-1" points="193.54 664.84 174.99 658.38 173.81 611.82 176.44 611.41 175.87 536.16 186.33 536.16"/><path class="cls-2" d="M193.54,664.84,175,658.38l-1.18-46.56,2.63-.41-.57-75.24h10.46m660.91,0H174.8M866,382.18,850.73,504.56"/><polyline class="cls-1" points="832.2 531.95 823.57 367.43 809.75 235.92"/><path class="cls-2" d="M832.2,532l-8.63-164.52L809.75,235.92M170.9,515.38l.4-10.82m-.09,28.25.16-17.43m-15.28-133.2L171.3,504.56"/><polyline class="cls-1" points="189.84 531.95 198.46 367.43 212.28 235.92"/><polyline class="cls-2" points="189.84 531.95 198.46 367.43 212.28 235.92"/><polyline class="cls-1" points="618.34 706.33 609.16 707.28 410.2 707.28 401.03 706.38"/><path class="cls-2" d="M618.34,706.33l-9.18,1h-199l-9.17-.9M659.89,767,647,774m13.37-10L640.3,774.17m-259.7,0L360.54,764m13.38,10L361,767"/><rect class="cls-3" x="306.02" y="325.61" width="403.12" height="288.96"/><rect class="cls-2" x="306.02" y="325.61" width="403.12" height="288.96"/><path d="M396.58,440.73V372.65l17.11,68.08H430.5l17.17-68.08v68.08h16.22V354.24H437.7l-15.52,59-15.69-59H380.36v86.49Zm128-86.49H506.13l-33.69,86.49H491l7.14-19.65h34.56l7.56,19.65h19l-34.63-86.49Zm-21.12,52.27,11.68-32.09,11.92,32.09Zm113.15,16.34a17.48,17.48,0,0,1-12,4.43,19.14,19.14,0,0,1-15.33-7q-5.91-7-5.9-23.37,0-15.45,6-22.35a19.65,19.65,0,0,1,15.6-6.91,17.88,17.88,0,0,1,18.23,14.52l17.28-4.13q-2.94-10.38-8.85-15.93-9.9-9.37-25.78-9.38-18.17,0-29.32,12t-11.14,33.53q0,20.42,11.09,32.18t28.31,11.77q13.92,0,23-6.87t13-21l-16.93-5.37q-2.19,9.49-7.2,13.92Z"/><path d="M387.09,496.81H368.62l-33.68,86.48h18.52l7.14-19.65h34.57l7.55,19.65h19l-34.62-86.48ZM366,549.07,377.65,517l11.91,32.09Zm64.89-6.13q0,14.5,1.71,21.94a23.81,23.81,0,0,0,4.89,9.59,26.77,26.77,0,0,0,10.12,7.43q6.41,2.86,18.79,2.86,10.26,0,16.64-2.62a26.36,26.36,0,0,0,10.17-7,24.28,24.28,0,0,0,5.22-10.86q1.43-6.42,1.42-22V496.81H482.36v47.84a97.4,97.4,0,0,1-.77,14.69,12,12,0,0,1-4.54,7.46q-3.78,3-11.21,3t-11.53-3.22A13.92,13.92,0,0,1,449,558.1q-.66-3.3-.65-14.45V496.81H430.86v46.13Zm104.89,40.35v-36.1h3.53a28.7,28.7,0,0,1,8.79,1,13.39,13.39,0,0,1,5.25,3.6q2.49,2.63,9.21,12.71l12.62,18.82H596l-10.56-16.87q-6.26-10.09-9.94-14a40.71,40.71,0,0,0-9.35-7.26q11.37-1.65,17.1-8T589,521.05a24.87,24.87,0,0,0-3.78-13.62,19.83,19.83,0,0,0-10.06-8.29q-6.28-2.34-20.14-2.33H518.28v86.48Zm0-71.85h13.62q10.62,0,12.74.29a10.65,10.65,0,0,1,6.58,3.39,10.34,10.34,0,0,1,2.33,7,11.25,11.25,0,0,1-1.77,6.49,9.42,9.42,0,0,1-4.89,3.66q-3.14,1.06-15.7,1.06H535.75V511.44Zm113.08-14.63H630.37l-33.69,86.48h18.53l7.14-19.65h34.56l7.56,19.65h19l-34.63-86.48Zm-21.12,52.26L639.39,517l11.92,32.09Z"/></svg>