<?xml version="1.0" encoding="UTF-8"?>
<svg id="EXT_Dot-x_Pro_-_Thumbnail" xmlns="http://www.w3.org/2000/svg" viewBox="0 0 1024 1024">
  <defs>
    <style>
      .cls-1 {
        fill: none;
        stroke-linecap: round;
        stroke-linejoin: round;
      }

      .cls-1, .cls-2, .cls-3 {
        stroke: #1d1d1b;
      }

      .cls-2 {
        fill: #ccc;
        fill-rule: evenodd;
      }

      .cls-2, .cls-3 {
        stroke-miterlimit: 10;
      }

      .cls-3 {
        fill: #fff;
      }
    </style>
  </defs>
  <g id="Exterior_Dot-1_Pro">
    <path class="cls-2" d="M7.74,277v466.57c0,12.34,10.06,22.5,22.4,22.5h964.3c12.24,0,22.4-10.16,22.4-22.5v-466.57c0-12.35-10.16-22.42-22.4-22.42H30.14c-12.35,0-22.4,10.07-22.4,22.42"/>
    <rect class="cls-1" x="117.86" y="274.9" width="788.76" height="473.22"/>
    <path class="cls-2" d="M642.06,510.33c0-71.19-58.57-129.87-129.77-129.87s-129.86,58.68-129.86,129.87,58.66,129.76,129.86,129.76,129.77-58.57,129.77-129.76"/>
    <path class="cls-1" d="M642.06,510.33c0-71.19-58.57-129.87-129.77-129.87s-129.86,58.68-129.86,129.87,58.66,129.76,129.86,129.76,129.77-58.57,129.77-129.76"/>
    <rect class="cls-3" x="153.46" y="443.01" width="717.58" height="134.55"/>
    <path d="M285.72,536.04v-8.02h-41.72v-23.13h37.59v-7.97h-37.59v-20.82h40.14v-8.02h-49.13v67.95h50.71ZM291.08,536.04l12.93-19.42,2.69,4.12,10.1,15.29h10.25l-18.31-26.05,17.01-23.18h-9.97l-8.29,11.64c-1.15,1.58-2.4,3.39-3.75,5.43-.87-1.48-2.01-3.33-3.43-5.52l-7.56-11.55h-10.43l16.65,23.64-17.99,25.58h10.1ZM340.58,528.91c-1.24,0-2.18-.2-2.85-.6-.67-.4-1.15-.94-1.44-1.62-.29-.68-.44-2.21-.44-4.59v-28.78h8.4v-6.49h-8.4v-17.2l-8.29,5v12.19h-6.12v6.49h6.12v28.32c0,5,.34,8.29,1.02,9.85.68,1.56,1.85,2.82,3.52,3.78,1.67.95,4.02,1.43,7.05,1.43,1.85,0,3.95-.25,6.3-.74l-1.2-7.37c-1.51.22-2.74.33-3.66.33h0ZM376.58,527.89c-2.16,1.61-4.77,2.41-7.83,2.41-4.11,0-7.54-1.44-10.29-4.31-2.75-2.87-4.28-7.01-4.59-12.42h36.71c.03-.99.04-1.73.04-2.23,0-8.12-2.08-14.43-6.26-18.91-4.17-4.48-9.55-6.72-16.13-6.72s-12.33,2.29-16.6,6.86c-4.26,4.57-6.39,11-6.39,19.28s2.11,14.22,6.33,18.66c4.22,4.43,9.93,6.65,17.13,6.65,5.72,0,10.41-1.39,14.09-4.16,3.68-2.78,6.2-6.69,7.56-11.73l-8.62-1.07c-1.27,3.52-2.98,6.09-5.15,7.7h0ZM358.67,496.42c2.61-2.57,5.83-3.84,9.66-3.84,4.24,0,7.68,1.61,10.34,4.82,1.73,2.07,2.78,5.18,3.15,9.32h-27.49c.28-4.3,1.72-7.73,4.33-10.29h0ZM400.25,536.04v-25.77c0-3.52.46-6.77,1.39-9.73.62-1.95,1.65-3.47,3.1-4.57,1.45-1.1,3.09-1.65,4.91-1.65,2.04,0,4.08.6,6.12,1.81l2.87-7.74c-2.9-1.79-5.76-2.69-8.57-2.69-1.95,0-3.74.56-5.36,1.67-1.62,1.12-3.39,3.42-5.31,6.91v-7.47h-7.51v49.23h8.34ZM426.78,477.69v-9.59h-8.34v9.59h8.34ZM426.78,536.04v-49.23h-8.34v49.23h8.34ZM439.22,530.53c4.25,4.42,9.82,6.62,16.71,6.62,4.3,0,8.26-1.01,11.89-3.01,3.63-2.01,6.4-4.83,8.3-8.46,1.9-3.63,2.85-8.61,2.85-14.95,0-7.82-2.15-13.94-6.44-18.38-4.3-4.44-9.83-6.65-16.6-6.65-6.08,0-11.24,1.82-15.48,5.47-5.06,4.39-7.6,11.14-7.6,20.26,0,8.32,2.12,14.68,6.37,19.1h0ZM445.55,497.3c2.75-3.12,6.21-4.68,10.38-4.68s7.55,1.57,10.31,4.71c2.76,3.14,4.15,7.75,4.15,13.83,0,6.46-1.38,11.27-4.13,14.42-2.75,3.15-6.2,4.73-10.34,4.73s-7.63-1.57-10.38-4.7c-2.75-3.14-4.12-7.86-4.12-14.17s1.37-11.01,4.12-14.14h0ZM488.16,536.04v-25.77c0-3.52.46-6.77,1.39-9.73.62-1.95,1.65-3.47,3.1-4.57,1.45-1.1,3.09-1.65,4.91-1.65,2.04,0,4.08.6,6.12,1.81l2.87-7.74c-2.9-1.79-5.76-2.69-8.57-2.69-1.95,0-3.74.56-5.36,1.67-1.62,1.12-3.39,3.42-5.31,6.91v-7.47h-7.51v49.23h8.34ZM553.8,536.04c4.11,0,7.74-.38,10.91-1.16,3.17-.77,5.87-1.91,8.11-3.4s4.3-3.55,6.19-6.16c1.88-2.61,3.43-5.91,4.64-9.9,1.2-3.99,1.8-8.56,1.8-13.72,0-6.06-.89-11.44-2.66-16.16-1.78-4.71-4.46-8.58-8.05-11.61-2.75-2.35-6.07-3.97-9.96-4.86-2.78-.65-6.81-.97-12.1-.97h-23.41v67.95h24.52ZM538.27,476.11h14.27c5.35,0,9.23.46,11.64,1.39,3.34,1.3,6.17,3.85,8.5,7.67,2.34,3.81,3.5,9.28,3.5,16.39,0,5.13-.6,9.49-1.79,13.09-1.19,3.6-2.85,6.47-4.98,8.6-1.51,1.51-3.55,2.69-6.1,3.52-2.55.84-6.07,1.26-10.54,1.26h-14.51v-51.92h0ZM588.65,530.53c4.25,4.42,9.82,6.62,16.71,6.62,4.3,0,8.26-1.01,11.89-3.01,3.63-2.01,6.4-4.83,8.3-8.46,1.9-3.63,2.85-8.61,2.85-14.95,0-7.82-2.15-13.94-6.44-18.38-4.3-4.44-9.83-6.65-16.6-6.65-6.08,0-11.24,1.82-15.48,5.47-5.06,4.39-7.6,11.14-7.6,20.26,0,8.32,2.12,14.68,6.37,19.1h0ZM594.97,497.3c2.75-3.12,6.21-4.68,10.38-4.68s7.55,1.57,10.31,4.71c2.76,3.14,4.15,7.75,4.15,13.83,0,6.46-1.38,11.27-4.13,14.42-2.75,3.15-6.2,4.73-10.34,4.73s-7.63-1.57-10.38-4.7c-2.75-3.14-4.12-7.86-4.12-14.17s1.37-11.01,4.12-14.14h0ZM643.99,528.91c-1.24,0-2.18-.2-2.85-.6-.67-.4-1.15-.94-1.44-1.62-.29-.68-.44-2.21-.44-4.59v-28.78h8.4v-6.49h-8.4v-17.2l-8.29,5v12.19h-6.12v6.49h6.12v28.32c0,5,.34,8.29,1.02,9.85.68,1.56,1.85,2.82,3.52,3.78,1.67.95,4.02,1.43,7.05,1.43,1.85,0,3.95-.25,6.3-.74l-1.2-7.37c-1.51.22-2.74.33-3.66.33h0ZM673.74,515.65v-8.39h-25.63v8.39h25.63ZM706.84,467.82h-5.38c-1.45,2.93-3.92,5.96-7.41,9.08-3.49,3.12-7.57,5.78-12.24,7.97v8.06c2.6-.96,5.52-2.4,8.79-4.31,3.26-1.92,5.89-3.83,7.9-5.75v53.16h8.34v-68.22h0ZM753.76,536.04v-27.62h17.43c9.61,0,16.25-2,19.93-6,3.68-4,5.52-8.9,5.52-14.67,0-3.37-.69-6.46-2.06-9.27-1.38-2.81-3.19-5-5.44-6.56-2.26-1.56-5.05-2.62-8.39-3.17-2.38-.43-5.83-.65-10.34-.65h-25.63v67.95h8.99ZM753.76,476.11h17.38c4.08,0,6.87.21,8.39.6,2.35.65,4.24,1.99,5.68,4.01,1.44,2.03,2.15,4.46,2.15,7.3,0,3.92-1.22,6.97-3.66,9.13-2.44,2.16-6.57,3.25-12.37,3.25h-17.57v-24.29h0ZM804.75,536.04v-25.77c0-3.52.46-6.77,1.39-9.73.62-1.95,1.65-3.47,3.1-4.57,1.45-1.1,3.09-1.65,4.91-1.65,2.04,0,4.08.6,6.12,1.81l2.87-7.74c-2.9-1.79-5.76-2.69-8.57-2.69-1.95,0-3.74.56-5.36,1.67-1.62,1.12-3.39,3.42-5.31,6.91v-7.47h-7.51v49.23h8.34ZM826.06,530.53c4.25,4.42,9.82,6.62,16.71,6.62,4.3,0,8.26-1.01,11.89-3.01,3.63-2.01,6.4-4.83,8.3-8.46,1.9-3.63,2.85-8.61,2.85-14.95,0-7.82-2.15-13.94-6.44-18.38-4.3-4.44-9.83-6.65-16.6-6.65-6.08,0-11.24,1.82-15.48,5.47-5.06,4.39-7.6,11.14-7.6,20.26,0,8.32,2.12,14.68,6.37,19.1h0ZM832.39,497.3c2.75-3.12,6.21-4.68,10.38-4.68s7.55,1.57,10.31,4.71,4.15,7.75,4.15,13.83c0,6.46-1.38,11.27-4.13,14.42-2.75,3.15-6.2,4.73-10.34,4.73s-7.63-1.57-10.38-4.7c-2.75-3.14-4.12-7.86-4.12-14.17s1.37-11.01,4.12-14.14h0Z"/>
  </g>
</svg>