<?xml version="1.0" encoding="utf-8"?>
<!-- Generator: Adobe Illustrator 27.9.0, SVG Export Plug-In . SVG Version: 6.00 Build 0)  -->
<svg version="1.1" id="EXT_Wash_Pro_-_Thumbnail" xmlns="http://www.w3.org/2000/svg" xmlns:xlink="http://www.w3.org/1999/xlink"
	 x="0px" y="0px" viewBox="0 0 1024 1024" style="enable-background:new 0 0 1024 1024;" xml:space="preserve">
<style type="text/css">
	.st0{fill-rule:evenodd;clip-rule:evenodd;fill:#BBBBBB;stroke:#1D1D1B;stroke-miterlimit:10;}
	.st1{fill:none;stroke:#1D1D1B;stroke-linecap:round;stroke-linejoin:round;stroke-miterlimit:10;}
	.st2{fill-rule:evenodd;clip-rule:evenodd;fill:#FFFFFF;stroke:#1D1D1B;stroke-miterlimit:10;}
	.st3{stroke:#1D1D1B;stroke-miterlimit:10;}
</style>
<g id="Ext_Washo_Pro_XL_CTC">
	<path class="st0" d="M9.6,178.1v668.4c0,91.7,75.6,167.1,167.5,167.1h670c91.9,0,167.5-75.4,167.5-167.1V178.1
		C1014.6,86.5,939,11,847.1,11h-670C85.2,11,9.6,86.5,9.6,178.1"/>
	<path class="st1" d="M9.6,178.1v668.4c0,91.7,75.6,167.1,167.5,167.1h670c91.9,0,167.5-75.4,167.5-167.1V178.1
		C1014.6,86.5,939,11,847.1,11h-670C85.2,11,9.6,86.5,9.6,178.1"/>
	<path class="st0" d="M58.4,178.5v667.6c0,62.8,51.6,114.4,114.4,114.4h678.6c62.8,0,114.4-51.6,114.4-114.4V178.5
		c0-62.8-51.6-114.4-114.4-114.4H172.8C110.1,64.1,58.4,115.8,58.4,178.5"/>
	<path class="st1" d="M58.4,178.5v667.6c0,62.8,51.6,114.4,114.4,114.4h678.6c62.8,0,114.4-51.6,114.4-114.4V178.5
		c0-62.8-51.6-114.4-114.4-114.4H172.8C110.1,64.1,58.4,115.8,58.4,178.5"/>
	<path class="st0" d="M188.2,136.3c0-28.2-23.2-51.5-51.5-51.5c-28.2,0-51.5,23.2-51.5,51.5c0,28.2,23.2,51.5,51.5,51.5
		C165,187.8,188.2,164.5,188.2,136.3"/>
	<path class="st1" d="M188.2,136.3c0-28.2-23.2-51.5-51.5-51.5c-28.2,0-51.5,23.2-51.5,51.5c0,28.2,23.2,51.5,51.5,51.5
		C165,187.8,188.2,164.5,188.2,136.3"/>
	<path class="st0" d="M188.2,243.7c0-28.2-23.2-51.5-51.5-51.5c-28.2,0-51.5,23.2-51.5,51.5c0,28.2,23.2,51.5,51.5,51.5
		C165,295.2,188.2,272,188.2,243.7"/>
	<path class="st1" d="M188.2,243.7c0-28.2-23.2-51.5-51.5-51.5c-28.2,0-51.5,23.2-51.5,51.5c0,28.2,23.2,51.5,51.5,51.5
		C165,295.2,188.2,272,188.2,243.7"/>
	<path class="st0" d="M188.2,351.2c0-28.2-23.2-51.5-51.5-51.5c-28.2,0-51.5,23.2-51.5,51.5c0,28.2,23.2,51.5,51.5,51.5
		C165,402.7,188.2,379.4,188.2,351.2"/>
	<path class="st1" d="M188.2,351.2c0-28.2-23.2-51.5-51.5-51.5c-28.2,0-51.5,23.2-51.5,51.5c0,28.2,23.2,51.5,51.5,51.5
		C165,402.7,188.2,379.4,188.2,351.2"/>
	<path class="st0" d="M188.2,458.6c0-28.2-23.2-51.5-51.5-51.5c-28.2,0-51.5,23.2-51.5,51.5c0,28.2,23.2,51.5,51.5,51.5
		C165,510.1,188.2,486.9,188.2,458.6"/>
	<path class="st1" d="M188.2,458.6c0-28.2-23.2-51.5-51.5-51.5c-28.2,0-51.5,23.2-51.5,51.5c0,28.2,23.2,51.5,51.5,51.5
		C165,510.1,188.2,486.9,188.2,458.6"/>
	<path class="st0" d="M188.2,566.1c0-28.2-23.2-51.5-51.5-51.5c-28.2,0-51.5,23.2-51.5,51.5c0,28.2,23.2,51.5,51.5,51.5
		C165,617.5,188.2,594.3,188.2,566.1"/>
	<path class="st1" d="M188.2,566.1c0-28.2-23.2-51.5-51.5-51.5c-28.2,0-51.5,23.2-51.5,51.5c0,28.2,23.2,51.5,51.5,51.5
		C165,617.5,188.2,594.3,188.2,566.1"/>
	<path class="st0" d="M188.2,673.5c0-28.2-23.2-51.5-51.5-51.5c-28.2,0-51.5,23.2-51.5,51.5c0,28.2,23.2,51.5,51.5,51.5
		C165,725,188.2,701.7,188.2,673.5"/>
	<path class="st1" d="M188.2,673.5c0-28.2-23.2-51.5-51.5-51.5c-28.2,0-51.5,23.2-51.5,51.5c0,28.2,23.2,51.5,51.5,51.5
		C165,725,188.2,701.7,188.2,673.5"/>
	<path class="st0" d="M188.2,780.9c0-28.2-23.2-51.5-51.5-51.5c-28.2,0-51.5,23.2-51.5,51.5c0,28.2,23.2,51.5,51.5,51.5
		C165,832.4,188.2,809.2,188.2,780.9"/>
	<path class="st1" d="M188.2,780.9c0-28.2-23.2-51.5-51.5-51.5c-28.2,0-51.5,23.2-51.5,51.5c0,28.2,23.2,51.5,51.5,51.5
		C165,832.4,188.2,809.2,188.2,780.9"/>
	<path class="st0" d="M188.2,888.4c0-28.2-23.2-51.5-51.5-51.5c-28.2,0-51.5,23.2-51.5,51.5c0,28.2,23.2,51.5,51.5,51.5
		C165,939.9,188.2,916.6,188.2,888.4"/>
	<path class="st1" d="M188.2,888.4c0-28.2-23.2-51.5-51.5-51.5c-28.2,0-51.5,23.2-51.5,51.5c0,28.2,23.2,51.5,51.5,51.5
		C165,939.9,188.2,916.6,188.2,888.4"/>
	<path class="st0" d="M295.5,136.3c0-28.2-23.2-51.5-51.5-51.5c-28.2,0-51.5,23.2-51.5,51.5c0,28.2,23.2,51.5,51.5,51.5
		C272.2,187.8,295.5,164.5,295.5,136.3"/>
	<path class="st1" d="M295.5,136.3c0-28.2-23.2-51.5-51.5-51.5c-28.2,0-51.5,23.2-51.5,51.5c0,28.2,23.2,51.5,51.5,51.5
		C272.2,187.8,295.5,164.5,295.5,136.3"/>
	<path class="st0" d="M295.5,243.7c0-28.2-23.2-51.5-51.5-51.5c-28.2,0-51.5,23.2-51.5,51.5c0,28.2,23.2,51.5,51.5,51.5
		C272.2,295.2,295.5,272,295.5,243.7"/>
	<path class="st1" d="M295.5,243.7c0-28.2-23.2-51.5-51.5-51.5c-28.2,0-51.5,23.2-51.5,51.5c0,28.2,23.2,51.5,51.5,51.5
		C272.2,295.2,295.5,272,295.5,243.7"/>
	<path class="st0" d="M295.5,351.2c0-28.2-23.2-51.5-51.5-51.5c-28.2,0-51.5,23.2-51.5,51.5c0,28.2,23.2,51.5,51.5,51.5
		C272.2,402.7,295.5,379.4,295.5,351.2"/>
	<path class="st1" d="M295.5,351.2c0-28.2-23.2-51.5-51.5-51.5c-28.2,0-51.5,23.2-51.5,51.5c0,28.2,23.2,51.5,51.5,51.5
		C272.2,402.7,295.5,379.4,295.5,351.2"/>
	<path class="st0" d="M295.5,458.6c0-28.2-23.2-51.5-51.5-51.5c-28.2,0-51.5,23.2-51.5,51.5c0,28.2,23.2,51.5,51.5,51.5
		C272.2,510.1,295.5,486.9,295.5,458.6"/>
	<path class="st1" d="M295.5,458.6c0-28.2-23.2-51.5-51.5-51.5c-28.2,0-51.5,23.2-51.5,51.5c0,28.2,23.2,51.5,51.5,51.5
		C272.2,510.1,295.5,486.9,295.5,458.6"/>
	<path class="st0" d="M295.5,566.1c0-28.2-23.2-51.5-51.5-51.5c-28.2,0-51.5,23.2-51.5,51.5c0,28.2,23.2,51.5,51.5,51.5
		C272.2,617.5,295.5,594.3,295.5,566.1"/>
	<path class="st1" d="M295.5,566.1c0-28.2-23.2-51.5-51.5-51.5c-28.2,0-51.5,23.2-51.5,51.5c0,28.2,23.2,51.5,51.5,51.5
		C272.2,617.5,295.5,594.3,295.5,566.1"/>
	<path class="st0" d="M295.5,673.5c0-28.2-23.2-51.5-51.5-51.5c-28.2,0-51.5,23.2-51.5,51.5c0,28.2,23.2,51.5,51.5,51.5
		C272.2,725,295.5,701.7,295.5,673.5"/>
	<path class="st1" d="M295.5,673.5c0-28.2-23.2-51.5-51.5-51.5c-28.2,0-51.5,23.2-51.5,51.5c0,28.2,23.2,51.5,51.5,51.5
		C272.2,725,295.5,701.7,295.5,673.5"/>
	<path class="st0" d="M295.5,780.9c0-28.2-23.2-51.5-51.5-51.5c-28.2,0-51.5,23.2-51.5,51.5c0,28.2,23.2,51.5,51.5,51.5
		C272.2,832.4,295.5,809.2,295.5,780.9"/>
	<path class="st1" d="M295.5,780.9c0-28.2-23.2-51.5-51.5-51.5c-28.2,0-51.5,23.2-51.5,51.5c0,28.2,23.2,51.5,51.5,51.5
		C272.2,832.4,295.5,809.2,295.5,780.9"/>
	<path class="st0" d="M295.5,888.4c0-28.2-23.2-51.5-51.5-51.5c-28.2,0-51.5,23.2-51.5,51.5c0,28.2,23.2,51.5,51.5,51.5
		C272.2,939.9,295.5,916.6,295.5,888.4"/>
	<path class="st1" d="M295.5,888.4c0-28.2-23.2-51.5-51.5-51.5c-28.2,0-51.5,23.2-51.5,51.5c0,28.2,23.2,51.5,51.5,51.5
		C272.2,939.9,295.5,916.6,295.5,888.4"/>
	<path class="st0" d="M402.7,136.3c0-28.2-23.2-51.5-51.5-51.5c-28.2,0-51.5,23.2-51.5,51.5c0,28.2,23.2,51.5,51.5,51.5
		C379.5,187.8,402.7,164.5,402.7,136.3"/>
	<path class="st1" d="M402.7,136.3c0-28.2-23.2-51.5-51.5-51.5c-28.2,0-51.5,23.2-51.5,51.5c0,28.2,23.2,51.5,51.5,51.5
		C379.5,187.8,402.7,164.5,402.7,136.3"/>
	<path class="st0" d="M402.7,243.7c0-28.2-23.2-51.5-51.5-51.5c-28.2,0-51.5,23.2-51.5,51.5c0,28.2,23.2,51.5,51.5,51.5
		C379.5,295.2,402.7,272,402.7,243.7"/>
	<path class="st1" d="M402.7,243.7c0-28.2-23.2-51.5-51.5-51.5c-28.2,0-51.5,23.2-51.5,51.5c0,28.2,23.2,51.5,51.5,51.5
		C379.5,295.2,402.7,272,402.7,243.7"/>
	<path class="st0" d="M402.7,351.2c0-28.2-23.2-51.5-51.5-51.5c-28.2,0-51.5,23.2-51.5,51.5c0,28.2,23.2,51.5,51.5,51.5
		C379.5,402.7,402.7,379.4,402.7,351.2"/>
	<path class="st1" d="M402.7,351.2c0-28.2-23.2-51.5-51.5-51.5c-28.2,0-51.5,23.2-51.5,51.5c0,28.2,23.2,51.5,51.5,51.5
		C379.5,402.7,402.7,379.4,402.7,351.2"/>
	<path class="st0" d="M402.7,458.6c0-28.2-23.2-51.5-51.5-51.5c-28.2,0-51.5,23.2-51.5,51.5c0,28.2,23.2,51.5,51.5,51.5
		C379.5,510.1,402.7,486.9,402.7,458.6"/>
	<path class="st1" d="M402.7,458.6c0-28.2-23.2-51.5-51.5-51.5c-28.2,0-51.5,23.2-51.5,51.5c0,28.2,23.2,51.5,51.5,51.5
		C379.5,510.1,402.7,486.9,402.7,458.6"/>
	<path class="st0" d="M402.7,566.1c0-28.2-23.2-51.5-51.5-51.5c-28.2,0-51.5,23.2-51.5,51.5c0,28.2,23.2,51.5,51.5,51.5
		C379.5,617.5,402.7,594.3,402.7,566.1"/>
	<path class="st1" d="M402.7,566.1c0-28.2-23.2-51.5-51.5-51.5c-28.2,0-51.5,23.2-51.5,51.5c0,28.2,23.2,51.5,51.5,51.5
		C379.5,617.5,402.7,594.3,402.7,566.1"/>
	<path class="st0" d="M402.7,673.5c0-28.2-23.2-51.5-51.5-51.5c-28.2,0-51.5,23.2-51.5,51.5c0,28.2,23.2,51.5,51.5,51.5
		C379.5,725,402.7,701.7,402.7,673.5"/>
	<path class="st1" d="M402.7,673.5c0-28.2-23.2-51.5-51.5-51.5c-28.2,0-51.5,23.2-51.5,51.5c0,28.2,23.2,51.5,51.5,51.5
		C379.5,725,402.7,701.7,402.7,673.5"/>
	<path class="st0" d="M402.7,780.9c0-28.2-23.2-51.5-51.5-51.5c-28.2,0-51.5,23.2-51.5,51.5c0,28.2,23.2,51.5,51.5,51.5
		C379.5,832.4,402.7,809.2,402.7,780.9"/>
	<path class="st1" d="M402.7,780.9c0-28.2-23.2-51.5-51.5-51.5c-28.2,0-51.5,23.2-51.5,51.5c0,28.2,23.2,51.5,51.5,51.5
		C379.5,832.4,402.7,809.2,402.7,780.9"/>
	<path class="st0" d="M402.7,888.4c0-28.2-23.2-51.5-51.5-51.5c-28.2,0-51.5,23.2-51.5,51.5c0,28.2,23.2,51.5,51.5,51.5
		C379.5,939.9,402.7,916.6,402.7,888.4"/>
	<path class="st1" d="M402.7,888.4c0-28.2-23.2-51.5-51.5-51.5c-28.2,0-51.5,23.2-51.5,51.5c0,28.2,23.2,51.5,51.5,51.5
		C379.5,939.9,402.7,916.6,402.7,888.4"/>
	<path class="st0" d="M510,136.3c0-28.2-23.2-51.5-51.5-51.5c-28.2,0-51.5,23.2-51.5,51.5c0,28.2,23.2,51.5,51.5,51.5
		C486.7,187.8,510,164.5,510,136.3"/>
	<path class="st1" d="M510,136.3c0-28.2-23.2-51.5-51.5-51.5c-28.2,0-51.5,23.2-51.5,51.5c0,28.2,23.2,51.5,51.5,51.5
		C486.7,187.8,510,164.5,510,136.3"/>
	<path class="st0" d="M510,243.7c0-28.2-23.2-51.5-51.5-51.5c-28.2,0-51.5,23.2-51.5,51.5c0,28.2,23.2,51.5,51.5,51.5
		C486.7,295.2,510,272,510,243.7"/>
	<path class="st1" d="M510,243.7c0-28.2-23.2-51.5-51.5-51.5c-28.2,0-51.5,23.2-51.5,51.5c0,28.2,23.2,51.5,51.5,51.5
		C486.7,295.2,510,272,510,243.7"/>
	<path class="st0" d="M510,351.2c0-28.2-23.2-51.5-51.5-51.5c-28.2,0-51.5,23.2-51.5,51.5c0,28.2,23.2,51.5,51.5,51.5
		C486.7,402.7,510,379.4,510,351.2"/>
	<path class="st1" d="M510,351.2c0-28.2-23.2-51.5-51.5-51.5c-28.2,0-51.5,23.2-51.5,51.5c0,28.2,23.2,51.5,51.5,51.5
		C486.7,402.7,510,379.4,510,351.2"/>
	<path class="st0" d="M510,458.6c0-28.2-23.2-51.5-51.5-51.5c-28.2,0-51.5,23.2-51.5,51.5c0,28.2,23.2,51.5,51.5,51.5
		C486.7,510.1,510,486.9,510,458.6"/>
	<path class="st1" d="M510,458.6c0-28.2-23.2-51.5-51.5-51.5c-28.2,0-51.5,23.2-51.5,51.5c0,28.2,23.2,51.5,51.5,51.5
		C486.7,510.1,510,486.9,510,458.6"/>
	<path class="st0" d="M510,566.1c0-28.2-23.2-51.5-51.5-51.5c-28.2,0-51.5,23.2-51.5,51.5c0,28.2,23.2,51.5,51.5,51.5
		C486.7,617.5,510,594.3,510,566.1"/>
	<path class="st1" d="M510,566.1c0-28.2-23.2-51.5-51.5-51.5c-28.2,0-51.5,23.2-51.5,51.5c0,28.2,23.2,51.5,51.5,51.5
		C486.7,617.5,510,594.3,510,566.1"/>
	<path class="st0" d="M510,673.5c0-28.2-23.2-51.5-51.5-51.5c-28.2,0-51.5,23.2-51.5,51.5c0,28.2,23.2,51.5,51.5,51.5
		C486.7,725,510,701.7,510,673.5"/>
	<path class="st1" d="M510,673.5c0-28.2-23.2-51.5-51.5-51.5c-28.2,0-51.5,23.2-51.5,51.5c0,28.2,23.2,51.5,51.5,51.5
		C486.7,725,510,701.7,510,673.5"/>
	<path class="st0" d="M510,780.9c0-28.2-23.2-51.5-51.5-51.5c-28.2,0-51.5,23.2-51.5,51.5c0,28.2,23.2,51.5,51.5,51.5
		C486.7,832.4,510,809.2,510,780.9"/>
	<path class="st1" d="M510,780.9c0-28.2-23.2-51.5-51.5-51.5c-28.2,0-51.5,23.2-51.5,51.5c0,28.2,23.2,51.5,51.5,51.5
		C486.7,832.4,510,809.2,510,780.9"/>
	<path class="st0" d="M510,888.4c0-28.2-23.2-51.5-51.5-51.5c-28.2,0-51.5,23.2-51.5,51.5c0,28.2,23.2,51.5,51.5,51.5
		C486.7,939.9,510,916.6,510,888.4"/>
	<path class="st1" d="M510,888.4c0-28.2-23.2-51.5-51.5-51.5c-28.2,0-51.5,23.2-51.5,51.5c0,28.2,23.2,51.5,51.5,51.5
		C486.7,939.9,510,916.6,510,888.4"/>
	<path class="st0" d="M617.2,136.3c0-28.2-23.2-51.5-51.5-51.5c-28.2,0-51.5,23.2-51.5,51.5c0,28.2,23.2,51.5,51.5,51.5
		C594,187.8,617.2,164.5,617.2,136.3"/>
	<path class="st1" d="M617.2,136.3c0-28.2-23.2-51.5-51.5-51.5c-28.2,0-51.5,23.2-51.5,51.5c0,28.2,23.2,51.5,51.5,51.5
		C594,187.8,617.2,164.5,617.2,136.3"/>
	<path class="st0" d="M617.2,243.7c0-28.2-23.2-51.5-51.5-51.5c-28.2,0-51.5,23.2-51.5,51.5c0,28.2,23.2,51.5,51.5,51.5
		C594,295.2,617.2,272,617.2,243.7"/>
	<path class="st1" d="M617.2,243.7c0-28.2-23.2-51.5-51.5-51.5c-28.2,0-51.5,23.2-51.5,51.5c0,28.2,23.2,51.5,51.5,51.5
		C594,295.2,617.2,272,617.2,243.7"/>
	<path class="st0" d="M617.2,351.2c0-28.2-23.2-51.5-51.5-51.5c-28.2,0-51.5,23.2-51.5,51.5c0,28.2,23.2,51.5,51.5,51.5
		C594,402.7,617.2,379.4,617.2,351.2"/>
	<path class="st1" d="M617.2,351.2c0-28.2-23.2-51.5-51.5-51.5c-28.2,0-51.5,23.2-51.5,51.5c0,28.2,23.2,51.5,51.5,51.5
		C594,402.7,617.2,379.4,617.2,351.2"/>
	<path class="st0" d="M617.2,458.6c0-28.2-23.2-51.5-51.5-51.5c-28.2,0-51.5,23.2-51.5,51.5c0,28.2,23.2,51.5,51.5,51.5
		C594,510.1,617.2,486.9,617.2,458.6"/>
	<path class="st1" d="M617.2,458.6c0-28.2-23.2-51.5-51.5-51.5c-28.2,0-51.5,23.2-51.5,51.5c0,28.2,23.2,51.5,51.5,51.5
		C594,510.1,617.2,486.9,617.2,458.6"/>
	<path class="st0" d="M617.2,566.1c0-28.2-23.2-51.5-51.5-51.5c-28.2,0-51.5,23.2-51.5,51.5c0,28.2,23.2,51.5,51.5,51.5
		C594,617.5,617.2,594.3,617.2,566.1"/>
	<path class="st1" d="M617.2,566.1c0-28.2-23.2-51.5-51.5-51.5c-28.2,0-51.5,23.2-51.5,51.5c0,28.2,23.2,51.5,51.5,51.5
		C594,617.5,617.2,594.3,617.2,566.1"/>
	<path class="st0" d="M617.2,673.5c0-28.2-23.2-51.5-51.5-51.5c-28.2,0-51.5,23.2-51.5,51.5c0,28.2,23.2,51.5,51.5,51.5
		C594,725,617.2,701.7,617.2,673.5"/>
	<path class="st1" d="M617.2,673.5c0-28.2-23.2-51.5-51.5-51.5c-28.2,0-51.5,23.2-51.5,51.5c0,28.2,23.2,51.5,51.5,51.5
		C594,725,617.2,701.7,617.2,673.5"/>
	<path class="st0" d="M617.2,780.9c0-28.2-23.2-51.5-51.5-51.5c-28.2,0-51.5,23.2-51.5,51.5c0,28.2,23.2,51.5,51.5,51.5
		C594,832.4,617.2,809.2,617.2,780.9"/>
	<path class="st1" d="M617.2,780.9c0-28.2-23.2-51.5-51.5-51.5c-28.2,0-51.5,23.2-51.5,51.5c0,28.2,23.2,51.5,51.5,51.5
		C594,832.4,617.2,809.2,617.2,780.9"/>
	<path class="st0" d="M617.2,888.4c0-28.2-23.2-51.5-51.5-51.5c-28.2,0-51.5,23.2-51.5,51.5c0,28.2,23.2,51.5,51.5,51.5
		C594,939.9,617.2,916.6,617.2,888.4"/>
	<path class="st1" d="M617.2,888.4c0-28.2-23.2-51.5-51.5-51.5c-28.2,0-51.5,23.2-51.5,51.5c0,28.2,23.2,51.5,51.5,51.5
		C594,939.9,617.2,916.6,617.2,888.4"/>
	<path class="st0" d="M724.5,136.3c0-28.2-23.2-51.5-51.5-51.5c-28.2,0-51.5,23.2-51.5,51.5c0,28.2,23.2,51.5,51.5,51.5
		C701.2,187.8,724.5,164.5,724.5,136.3"/>
	<path class="st1" d="M724.5,136.3c0-28.2-23.2-51.5-51.5-51.5c-28.2,0-51.5,23.2-51.5,51.5c0,28.2,23.2,51.5,51.5,51.5
		C701.2,187.8,724.5,164.5,724.5,136.3"/>
	<path class="st0" d="M724.5,243.7c0-28.2-23.2-51.5-51.5-51.5c-28.2,0-51.5,23.2-51.5,51.5c0,28.2,23.2,51.5,51.5,51.5
		C701.2,295.2,724.5,272,724.5,243.7"/>
	<path class="st1" d="M724.5,243.7c0-28.2-23.2-51.5-51.5-51.5c-28.2,0-51.5,23.2-51.5,51.5c0,28.2,23.2,51.5,51.5,51.5
		C701.2,295.2,724.5,272,724.5,243.7"/>
	<path class="st0" d="M724.5,351.2c0-28.2-23.2-51.5-51.5-51.5c-28.2,0-51.5,23.2-51.5,51.5c0,28.2,23.2,51.5,51.5,51.5
		C701.2,402.7,724.5,379.4,724.5,351.2"/>
	<path class="st1" d="M724.5,351.2c0-28.2-23.2-51.5-51.5-51.5c-28.2,0-51.5,23.2-51.5,51.5c0,28.2,23.2,51.5,51.5,51.5
		C701.2,402.7,724.5,379.4,724.5,351.2"/>
	<path class="st0" d="M724.5,458.6c0-28.2-23.2-51.5-51.5-51.5c-28.2,0-51.5,23.2-51.5,51.5c0,28.2,23.2,51.5,51.5,51.5
		C701.2,510.1,724.5,486.9,724.5,458.6"/>
	<path class="st1" d="M724.5,458.6c0-28.2-23.2-51.5-51.5-51.5c-28.2,0-51.5,23.2-51.5,51.5c0,28.2,23.2,51.5,51.5,51.5
		C701.2,510.1,724.5,486.9,724.5,458.6"/>
	<path class="st0" d="M724.5,566.1c0-28.2-23.2-51.5-51.5-51.5c-28.2,0-51.5,23.2-51.5,51.5c0,28.2,23.2,51.5,51.5,51.5
		C701.2,617.5,724.5,594.3,724.5,566.1"/>
	<path class="st1" d="M724.5,566.1c0-28.2-23.2-51.5-51.5-51.5c-28.2,0-51.5,23.2-51.5,51.5c0,28.2,23.2,51.5,51.5,51.5
		C701.2,617.5,724.5,594.3,724.5,566.1"/>
	<path class="st0" d="M724.5,673.5c0-28.2-23.2-51.5-51.5-51.5c-28.2,0-51.5,23.2-51.5,51.5c0,28.2,23.2,51.5,51.5,51.5
		C701.2,725,724.5,701.7,724.5,673.5"/>
	<path class="st1" d="M724.5,673.5c0-28.2-23.2-51.5-51.5-51.5c-28.2,0-51.5,23.2-51.5,51.5c0,28.2,23.2,51.5,51.5,51.5
		C701.2,725,724.5,701.7,724.5,673.5"/>
	<path class="st0" d="M724.5,780.9c0-28.2-23.2-51.5-51.5-51.5c-28.2,0-51.5,23.2-51.5,51.5c0,28.2,23.2,51.5,51.5,51.5
		C701.2,832.4,724.5,809.2,724.5,780.9"/>
	<path class="st1" d="M724.5,780.9c0-28.2-23.2-51.5-51.5-51.5c-28.2,0-51.5,23.2-51.5,51.5c0,28.2,23.2,51.5,51.5,51.5
		C701.2,832.4,724.5,809.2,724.5,780.9"/>
	<path class="st0" d="M724.5,888.4c0-28.2-23.2-51.5-51.5-51.5c-28.2,0-51.5,23.2-51.5,51.5c0,28.2,23.2,51.5,51.5,51.5
		C701.2,939.9,724.5,916.6,724.5,888.4"/>
	<path class="st1" d="M724.5,888.4c0-28.2-23.2-51.5-51.5-51.5c-28.2,0-51.5,23.2-51.5,51.5c0,28.2,23.2,51.5,51.5,51.5
		C701.2,939.9,724.5,916.6,724.5,888.4"/>
	<path class="st0" d="M831.7,136.3c0-28.2-23.2-51.5-51.5-51.5c-28.2,0-51.5,23.2-51.5,51.5c0,28.2,23.2,51.5,51.5,51.5
		C808.5,187.8,831.7,164.5,831.7,136.3"/>
	<path class="st1" d="M831.7,136.3c0-28.2-23.2-51.5-51.5-51.5c-28.2,0-51.5,23.2-51.5,51.5c0,28.2,23.2,51.5,51.5,51.5
		C808.5,187.8,831.7,164.5,831.7,136.3"/>
	<path class="st0" d="M831.7,243.7c0-28.2-23.2-51.5-51.5-51.5c-28.2,0-51.5,23.2-51.5,51.5c0,28.2,23.2,51.5,51.5,51.5
		C808.5,295.2,831.7,272,831.7,243.7"/>
	<path class="st1" d="M831.7,243.7c0-28.2-23.2-51.5-51.5-51.5c-28.2,0-51.5,23.2-51.5,51.5c0,28.2,23.2,51.5,51.5,51.5
		C808.5,295.2,831.7,272,831.7,243.7"/>
	<path class="st0" d="M831.7,351.2c0-28.2-23.2-51.5-51.5-51.5c-28.2,0-51.5,23.2-51.5,51.5c0,28.2,23.2,51.5,51.5,51.5
		C808.5,402.7,831.7,379.4,831.7,351.2"/>
	<path class="st1" d="M831.7,351.2c0-28.2-23.2-51.5-51.5-51.5c-28.2,0-51.5,23.2-51.5,51.5c0,28.2,23.2,51.5,51.5,51.5
		C808.5,402.7,831.7,379.4,831.7,351.2"/>
	<path class="st0" d="M831.7,458.6c0-28.2-23.2-51.5-51.5-51.5c-28.2,0-51.5,23.2-51.5,51.5c0,28.2,23.2,51.5,51.5,51.5
		C808.5,510.1,831.7,486.9,831.7,458.6"/>
	<path class="st1" d="M831.7,458.6c0-28.2-23.2-51.5-51.5-51.5c-28.2,0-51.5,23.2-51.5,51.5c0,28.2,23.2,51.5,51.5,51.5
		C808.5,510.1,831.7,486.9,831.7,458.6"/>
	<path class="st0" d="M831.7,566.1c0-28.2-23.2-51.5-51.5-51.5c-28.2,0-51.5,23.2-51.5,51.5c0,28.2,23.2,51.5,51.5,51.5
		C808.5,617.5,831.7,594.3,831.7,566.1"/>
	<path class="st1" d="M831.7,566.1c0-28.2-23.2-51.5-51.5-51.5c-28.2,0-51.5,23.2-51.5,51.5c0,28.2,23.2,51.5,51.5,51.5
		C808.5,617.5,831.7,594.3,831.7,566.1"/>
	<path class="st0" d="M831.7,673.5c0-28.2-23.2-51.5-51.5-51.5c-28.2,0-51.5,23.2-51.5,51.5c0,28.2,23.2,51.5,51.5,51.5
		C808.5,725,831.7,701.7,831.7,673.5"/>
	<path class="st1" d="M831.7,673.5c0-28.2-23.2-51.5-51.5-51.5c-28.2,0-51.5,23.2-51.5,51.5c0,28.2,23.2,51.5,51.5,51.5
		C808.5,725,831.7,701.7,831.7,673.5"/>
	<path class="st0" d="M831.7,780.9c0-28.2-23.2-51.5-51.5-51.5c-28.2,0-51.5,23.2-51.5,51.5c0,28.2,23.2,51.5,51.5,51.5
		C808.5,832.4,831.7,809.2,831.7,780.9"/>
	<path class="st1" d="M831.7,780.9c0-28.2-23.2-51.5-51.5-51.5c-28.2,0-51.5,23.2-51.5,51.5c0,28.2,23.2,51.5,51.5,51.5
		C808.5,832.4,831.7,809.2,831.7,780.9"/>
	<path class="st0" d="M831.7,888.4c0-28.2-23.2-51.5-51.5-51.5c-28.2,0-51.5,23.2-51.5,51.5c0,28.2,23.2,51.5,51.5,51.5
		C808.5,939.9,831.7,916.6,831.7,888.4"/>
	<path class="st1" d="M831.7,888.4c0-28.2-23.2-51.5-51.5-51.5c-28.2,0-51.5,23.2-51.5,51.5c0,28.2,23.2,51.5,51.5,51.5
		C808.5,939.9,831.7,916.6,831.7,888.4"/>
	<path class="st0" d="M939,136.3c0-28.2-23.2-51.5-51.5-51.5c-28.2,0-51.5,23.2-51.5,51.5c0,28.2,23.2,51.5,51.5,51.5
		C915.8,187.8,939,164.5,939,136.3"/>
	<path class="st1" d="M939,136.3c0-28.2-23.2-51.5-51.5-51.5c-28.2,0-51.5,23.2-51.5,51.5c0,28.2,23.2,51.5,51.5,51.5
		C915.8,187.8,939,164.5,939,136.3"/>
	<path class="st0" d="M939,243.7c0-28.2-23.2-51.5-51.5-51.5c-28.2,0-51.5,23.2-51.5,51.5c0,28.2,23.2,51.5,51.5,51.5
		C915.8,295.2,939,272,939,243.7"/>
	<path class="st1" d="M939,243.7c0-28.2-23.2-51.5-51.5-51.5c-28.2,0-51.5,23.2-51.5,51.5c0,28.2,23.2,51.5,51.5,51.5
		C915.8,295.2,939,272,939,243.7"/>
	<path class="st0" d="M939,351.2c0-28.2-23.2-51.5-51.5-51.5c-28.2,0-51.5,23.2-51.5,51.5c0,28.2,23.2,51.5,51.5,51.5
		C915.8,402.7,939,379.4,939,351.2"/>
	<path class="st1" d="M939,351.2c0-28.2-23.2-51.5-51.5-51.5c-28.2,0-51.5,23.2-51.5,51.5c0,28.2,23.2,51.5,51.5,51.5
		C915.8,402.7,939,379.4,939,351.2"/>
	<path class="st0" d="M939,458.6c0-28.2-23.2-51.5-51.5-51.5c-28.2,0-51.5,23.2-51.5,51.5c0,28.2,23.2,51.5,51.5,51.5
		C915.8,510.1,939,486.9,939,458.6"/>
	<path class="st1" d="M939,458.6c0-28.2-23.2-51.5-51.5-51.5c-28.2,0-51.5,23.2-51.5,51.5c0,28.2,23.2,51.5,51.5,51.5
		C915.8,510.1,939,486.9,939,458.6"/>
	<path class="st0" d="M939,566.1c0-28.2-23.2-51.5-51.5-51.5c-28.2,0-51.5,23.2-51.5,51.5c0,28.2,23.2,51.5,51.5,51.5
		C915.8,617.5,939,594.3,939,566.1"/>
	<path class="st1" d="M939,566.1c0-28.2-23.2-51.5-51.5-51.5c-28.2,0-51.5,23.2-51.5,51.5c0,28.2,23.2,51.5,51.5,51.5
		C915.8,617.5,939,594.3,939,566.1"/>
	<path class="st0" d="M939,673.5c0-28.2-23.2-51.5-51.5-51.5c-28.2,0-51.5,23.2-51.5,51.5c0,28.2,23.2,51.5,51.5,51.5
		C915.8,725,939,701.7,939,673.5"/>
	<path class="st1" d="M939,673.5c0-28.2-23.2-51.5-51.5-51.5c-28.2,0-51.5,23.2-51.5,51.5c0,28.2,23.2,51.5,51.5,51.5
		C915.8,725,939,701.7,939,673.5"/>
	<path class="st0" d="M939,780.9c0-28.2-23.2-51.5-51.5-51.5c-28.2,0-51.5,23.2-51.5,51.5c0,28.2,23.2,51.5,51.5,51.5
		C915.8,832.4,939,809.2,939,780.9"/>
	<path class="st1" d="M939,780.9c0-28.2-23.2-51.5-51.5-51.5c-28.2,0-51.5,23.2-51.5,51.5c0,28.2,23.2,51.5,51.5,51.5
		C915.8,832.4,939,809.2,939,780.9"/>
	<path class="st0" d="M939,888.4c0-28.2-23.2-51.5-51.5-51.5c-28.2,0-51.5,23.2-51.5,51.5c0,28.2,23.2,51.5,51.5,51.5
		C915.8,939.9,939,916.6,939,888.4"/>
	<path class="st1" d="M939,888.4c0-28.2-23.2-51.5-51.5-51.5c-28.2,0-51.5,23.2-51.5,51.5c0,28.2,23.2,51.5,51.5,51.5
		C915.8,939.9,939,916.6,939,888.4"/>
	<rect x="108.9" y="369.3" class="st2" width="806.5" height="286"/>
	<path class="st3" d="M202.6,488.1v-11.7h-38.7v-18.9h34.8v-11.7h-34.8v-15.4h37.4v-11.7h-51.4v69.3H202.6L202.6,488.1z
		 M224.3,488.1l15.4-24l15.4,24h16.9l-23.7-35.7l21.6-33.7h-16.2L240,441.1l-13.9-22.3h-16.4l21.5,33.2l-23.7,36.2H224.3
		L224.3,488.1z M308.7,488.1v-57.6h20.5v-11.7h-55.1v11.7h20.6v57.6H308.7L308.7,488.1z M390.2,488.1l13.8-51.8l13.8,51.8h14.9
		l16.8-69.3h-14.1l-10.6,48.4l-12.2-48.4h-16.6l-12.7,47.6l-10.5-47.6h-14.3l16.6,69.3H390.2L390.2,488.1z M491.4,418.8h-14.8
		l-27,69.3h14.9l5.7-15.7h27.7l6.1,15.7h15.2L491.4,418.8L491.4,418.8z M474.4,460.7l9.4-25.7l9.6,25.7H474.4L474.4,460.7z
		 M531.4,483.3c4.7,4.1,11.4,6.1,20.2,6.1c6,0,11.1-0.8,15.1-2.5c4-1.7,7.2-4.3,9.4-7.7c2.2-3.5,3.3-7.2,3.3-11.2
		c0-4.4-0.9-8.1-2.8-11c-1.8-3-4.4-5.3-7.7-7c-3.3-1.7-8.3-3.4-15.1-5c-6.8-1.6-11.1-3.2-12.9-4.6c-1.4-1.2-2.1-2.6-2.1-4.2
		c0-1.8,0.7-3.2,2.2-4.3c2.3-1.7,5.5-2.5,9.6-2.5c3.9,0,6.9,0.8,8.9,2.3c2,1.6,3.3,4.1,3.9,7.7l14-0.6c-0.2-6.4-2.5-11.5-6.9-15.3
		c-4.4-3.8-10.9-5.7-19.7-5.7c-5.3,0-9.9,0.8-13.6,2.4c-3.8,1.6-6.7,3.9-8.7,7c-2,3.1-3,6.4-3,9.9c0,5.5,2.1,10.1,6.4,14
		c3,2.7,8.3,5,15.8,6.9c5.8,1.5,9.6,2.5,11.2,3c2.4,0.9,4.1,1.9,5,3c1,1.2,1.4,2.5,1.4,4.2c0,2.6-1.1,4.8-3.4,6.7
		c-2.3,1.9-5.7,2.9-10.2,2.9c-4.3,0-7.6-1.1-10.1-3.2c-2.5-2.1-4.2-5.5-5-10.1l-13.6,1.3C523.9,473.3,526.7,479.2,531.4,483.3
		L531.4,483.3z M605.2,488.1v-30.3h27.4v30.3h14v-69.3h-14v27.3h-27.4v-27.3h-14v69.3H605.2L605.2,488.1z M702,488.1V462h9.1
		c6.3,0,11.2-0.3,14.5-1c2.5-0.5,4.9-1.6,7.3-3.3c2.4-1.7,4.3-3.9,5.9-6.8c1.5-2.9,2.3-6.5,2.3-10.7c0-5.5-1.3-10-4-13.5
		c-2.7-3.5-6-5.7-10-6.8c-2.6-0.7-8.1-1-16.6-1H688v69.3H702L702,488.1z M708.8,430.5c5,0,8.4,0.2,10.1,0.5c2.3,0.4,4.1,1.4,5.6,3.1
		c1.5,1.6,2.2,3.7,2.2,6.2c0,2-0.5,3.8-1.6,5.4c-1.1,1.5-2.5,2.7-4.4,3.4c-1.9,0.7-5.5,1.1-11.1,1.1H702v-19.7H708.8L708.8,430.5z
		 M766.7,488.1v-28.9h2.8c3.2,0,5.6,0.3,7,0.8c1.5,0.5,2.9,1.5,4.2,2.9c1.3,1.4,3.8,4.8,7.4,10.2l10.1,15.1H815l-8.5-13.5
		c-3.3-5.4-6-9.1-8-11.3c-2-2.1-4.5-4.1-7.5-5.8c6.1-0.9,10.7-3,13.7-6.4s4.6-7.7,4.6-12.9c0-4.1-1-7.7-3-10.9
		c-2-3.2-4.7-5.4-8.1-6.6c-3.4-1.2-8.7-1.9-16.2-1.9h-29.5v69.3H766.7L766.7,488.1z M766.7,430.5h10.9c5.7,0,9.1,0.1,10.2,0.2
		c2.3,0.4,4,1.3,5.3,2.7c1.2,1.4,1.9,3.3,1.9,5.7c0,2.1-0.5,3.8-1.4,5.2c-0.9,1.4-2.3,2.4-3.9,2.9c-1.7,0.6-5.9,0.9-12.6,0.9h-10.4
		V430.5L766.7,430.5z M828.9,479.9c6.1,6.3,14.3,9.4,24.6,9.4c10.2,0,18.3-3.2,24.4-9.5c6.1-6.3,9.1-15.1,9.1-26.3
		c0-11.3-3.1-20.1-9.2-26.4c-6.1-6.3-14.3-9.5-24.5-9.5c-5.6,0-10.6,0.9-14.9,2.7c-3.2,1.4-6.2,3.4-9,6.2c-2.7,2.8-4.9,6-6.5,9.5
		c-2.1,4.8-3.2,10.7-3.2,17.8C819.7,464.9,822.8,473.6,828.9,479.9L828.9,479.9z M839.5,435.5c3.5-4,8.2-5.9,14-5.9
		c5.8,0,10.4,2,13.9,5.9c3.5,3.9,5.2,9.8,5.2,17.8c0,8-1.8,14.1-5.4,18.1c-3.6,4-8.2,6-13.7,6s-10.2-2-13.8-6.1
		c-3.6-4.1-5.4-10-5.4-17.9C834.2,445.4,835.9,439.5,839.5,435.5L839.5,435.5z"/>
	<path class="st3" d="M353.4,602.4l15.4-24l15.4,24H401l-23.7-35.7l21.6-33.7h-16.2l-13.6,22.3l-13.9-22.3h-16.4l21.5,33.2
		l-23.7,36.2H353.4L353.4,602.4z M457.4,602.4v-11.7h-34.8v-57.1h-14v68.8H457.4L457.4,602.4z M532.9,588.1
		c-2.7,2.4-5.9,3.5-9.6,3.5c-5,0-9.1-1.9-12.3-5.6c-3.2-3.7-4.7-10-4.7-18.7c0-8.3,1.6-14.2,4.8-17.9c3.2-3.7,7.4-5.5,12.5-5.5
		c3.7,0,6.9,1,9.5,3.1c2.6,2.1,4.3,4.9,5.1,8.5l13.9-3.3c-1.6-5.5-3.9-9.8-7.1-12.8c-5.3-5-12.2-7.5-20.7-7.5
		c-9.7,0-17.5,3.2-23.5,9.6c-6,6.4-8.9,15.3-8.9,26.9c0,10.9,3,19.5,8.9,25.8c5.9,6.3,13.5,9.4,22.7,9.4c7.4,0,13.6-1.8,18.4-5.5
		c4.8-3.7,8.3-9.3,10.4-16.9l-13.6-4.3C537.5,582,535.6,585.7,532.9,588.1L532.9,588.1z M593.9,602.4v-57.6h20.5v-11.7h-55.1v11.7
		h20.6v57.6H593.9L593.9,602.4z"/>
	<path class="st3" d="M662,588.1c-2.7,2.4-5.9,3.5-9.6,3.5c-5,0-9.1-1.9-12.3-5.6c-3.2-3.7-4.7-10-4.7-18.7c0-8.3,1.6-14.2,4.8-17.9
		c3.2-3.7,7.4-5.5,12.5-5.5c3.7,0,6.9,1,9.5,3.1c2.6,2.1,4.3,4.9,5.1,8.5l13.9-3.3c-1.6-5.5-3.9-9.8-7.1-12.8
		c-5.3-5-12.2-7.5-20.7-7.5c-9.7,0-17.5,3.2-23.5,9.6c-6,6.4-8.9,15.3-8.9,26.9c0,10.9,3,19.5,8.9,25.8c5.9,6.3,13.5,9.4,22.7,9.4
		c7.4,0,13.6-1.8,18.4-5.5c4.8-3.7,8.3-9.3,10.4-16.9l-13.6-4.3C666.6,582,664.7,585.7,662,588.1L662,588.1z"/>
</g>
</svg>
