<?xml version="1.0" encoding="UTF-8"?>
<svg id="ELP_Manet_8f_with_Barn_Door_-_Thumbnail" data-name="ELP Manet 8f with Barn Door - Thumbnail" xmlns="http://www.w3.org/2000/svg" viewBox="0 0 1024 1024">
  <defs>
    <style>
      .cls-1 {
        fill: #fff;
      }

      .cls-2 {
        stroke: #000;
      }

      .cls-2, .cls-3 {
        fill: none;
        stroke-linecap: round;
        stroke-linejoin: round;
      }

      .cls-4 {
        fill: #ccc;
      }

      .cls-3 {
        stroke: red;
      }
    </style>
  </defs>
  <rect class="cls-1" x="428.963" y="916.778" width="166.074" height="83.036"/>
  <rect class="cls-3" x="428.963" y="916.778" width="166.074" height="83.036"/>
  <path class="cls-4" d="M245.043,531.491v-28.079l43.804-6.331v-238.856h24.935v19.34h166.728v-21.06h62.98v21.06h166.728v-19.34h24.935v238.856l43.804,6.331v28.079l18.097-7.868,7.474-84.698h14.586l-6.282,125.385-33.874-4.957v24.056l-43.804,3.281v55.882l-11.672,11.671v18.392l-17.176,9.917v197.64l-29.894,26.572c-13.494,2.799-27.073,5.179-40.715,7.136-13.643,1.958-27.342,3.494-41.079,4.604-13.737,1.109-27.506,1.794-41.285,2.052-13.779.258-27.564.089-41.332-.505-13.769.594-27.554.763-41.333.505-13.779-.257-27.548-.942-41.284-2.052-13.738-1.11-27.438-2.646-41.079-4.604-13.643-1.957-27.22-4.337-40.716-7.136l-29.893-26.572v-197.64l-17.177-9.917v-18.392l-11.671-11.671v-55.882l-43.804-3.281v-24.056l-33.874,4.957-6.282-125.385h14.586l7.474,84.698,18.097,7.868"/>
  <path class="cls-2" d="M245.043,531.491v-28.079l43.804-6.331v-238.856h24.935v19.34h166.728v-21.06h62.98v21.06h166.728v-19.34h24.935v238.856l43.804,6.331v28.079l18.097-7.868,7.474-84.698h14.586l-6.282,125.385-33.874-4.957v24.056l-43.804,3.281v55.882l-11.672,11.671v18.392l-17.176,9.917v197.64l-29.894,26.572c-13.494,2.799-27.073,5.179-40.715,7.136-13.643,1.958-27.342,3.494-41.079,4.604-13.737,1.109-27.506,1.794-41.285,2.052-13.779.258-27.564.089-41.332-.505-13.769.594-27.554.763-41.333.505-13.779-.257-27.548-.942-41.284-2.052-13.738-1.11-27.438-2.646-41.079-4.604-13.643-1.957-27.22-4.337-40.716-7.136l-29.893-26.572v-197.64l-17.177-9.917v-18.392l-11.671-11.671v-55.882l-43.804-3.281v-24.056l-33.874,4.957-6.282-125.385h14.586l7.474,84.698,18.097,7.868M778.958,559.353v-27.862M735.154,586.689v-89.609M735.154,268.297h-24.935M512,361.689h223.153M512,351.623h223.153M723.482,672.633h-211.482M735.154,642.571h-223.153M245.043,559.353v-27.862M288.847,586.689v-89.609M288.847,268.297h24.935M512,361.689h-223.153M512,351.623h-223.153M300.518,672.633h211.483M288.847,642.571h223.153"/>
  <rect class="cls-1" x="345.927" y="714.921" width="332.146" height="123.659"/>
  <rect class="cls-2" x="345.927" y="714.921" width="332.146" height="123.659"/>
  <polyline class="cls-1" points="368.583 752.496 655.416 752.496 655.416 801.006 368.583 801.006 368.583 752.496"/>
  <path d="M397.148,790.461v-3.529h-18.445v-10.252h16.596v-3.529h-16.596v-9.244h17.731v-3.529h-21.722v30.084h22.437ZM421.377,790.461v-3.529h-14.79v-26.554h-3.992v30.084h18.781ZM430.21,790.461v-12.269h7.731c4.244,0,7.185-.882,8.823-2.647s2.437-3.95,2.437-6.471c0-1.513-.294-2.857-.924-4.118-.588-1.218-1.387-2.185-2.395-2.899-1.008-.672-2.227-1.134-3.739-1.387-1.05-.21-2.563-.294-4.58-.294h-11.344v30.084h3.992ZM430.21,763.906h7.689c1.807,0,3.067.084,3.697.252,1.05.294,1.891.882,2.521,1.807.63.882.966,1.975.966,3.235,0,1.723-.546,3.067-1.639,4.034-1.05.966-2.899,1.429-5.462,1.429h-7.773v-10.756ZM469.822,790.461v-25.63l8.697,25.63h3.571l8.781-25.168v25.168h3.823v-30.084h-5.336l-7.227,20.924c-.756,2.143-1.26,3.739-1.597,4.832-.336-1.008-.798-2.479-1.471-4.454l-7.101-21.302h-5.966v30.084h3.823ZM502.146,790.461l3.277-9.118h12.647l3.487,9.118h4.538l-12.269-30.084h-4.37l-11.554,30.084h4.244ZM509.877,769.284c.672-1.891,1.26-3.823,1.681-5.798.462,1.639,1.176,3.739,2.143,6.302l3.151,8.319h-10.252l3.277-8.823ZM533.139,790.461v-23.613l15.798,23.613h4.076v-30.084h-3.823v23.613l-15.798-23.613h-4.076v30.084h3.823ZM582.335,790.461v-3.529h-18.445v-10.252h16.596v-3.529h-16.596v-9.244h17.731v-3.529h-21.722v30.084h22.437ZM599.59,790.461v-26.554h9.916v-3.529h-23.823v3.529h9.916v26.554h3.992ZM625.41,776.847c-.966,1.303-1.471,2.941-1.471,4.916,0,2.605.924,4.79,2.731,6.555s4.202,2.647,7.185,2.647c2.941,0,5.336-.882,7.143-2.605,1.807-1.765,2.731-3.95,2.731-6.513,0-1.849-.462-3.445-1.429-4.79s-2.353-2.311-4.202-2.899c1.471-.588,2.605-1.387,3.319-2.395.714-1.05,1.092-2.269,1.092-3.655,0-2.185-.798-4.034-2.395-5.588-1.597-1.513-3.697-2.269-6.344-2.269-2.605,0-4.706.756-6.26,2.227-1.555,1.513-2.353,3.361-2.353,5.546,0,1.429.378,2.689,1.092,3.739.756,1.008,1.891,1.807,3.445,2.395-1.849.462-3.277,1.387-4.286,2.689h0ZM630.326,764.62c.924-.882,2.101-1.345,3.529-1.345,1.387,0,2.563.462,3.487,1.387s1.387,2.059,1.387,3.403c0,1.303-.462,2.437-1.345,3.319-.924.882-2.059,1.345-3.529,1.345s-2.647-.462-3.571-1.345c-.882-.924-1.345-2.101-1.345-3.487,0-1.26.462-2.353,1.387-3.277h0ZM629.402,777.477c1.134-1.134,2.605-1.723,4.328-1.723,1.807,0,3.277.588,4.454,1.723,1.176,1.176,1.765,2.647,1.765,4.412s-.588,3.193-1.723,4.328-2.605,1.723-4.37,1.723c-1.134,0-2.185-.252-3.193-.798-.966-.546-1.723-1.303-2.185-2.311-.504-.966-.756-1.975-.756-3.025,0-1.723.546-3.193,1.681-4.328h0ZM653.025,790.461v-18.949h4.202v-2.857h-4.244v-2.017c0-1.303.21-2.185.714-2.647.462-.462,1.218-.714,2.353-.714.672,0,1.429.084,2.185.21l.546-3.235c-1.26-.252-2.395-.378-3.445-.378-1.597,0-2.857.294-3.739.882-.924.588-1.513,1.387-1.891,2.311-.252.714-.378,1.807-.378,3.277v2.311h-3.277v2.857h3.277v18.949h3.697Z"/>
  <polyline class="cls-4" points="148.797 17.876 155.988 13.725 297.15 258.224 289.959 262.377 148.797 17.876"/>
  <polygon class="cls-2" points="148.797 17.876 155.988 13.725 297.15 258.224 289.959 262.377 148.797 17.876 148.797 17.876"/>
  <polyline class="cls-4" points="734.041 262.377 726.849 258.224 868.011 13.725 875.203 17.876 734.041 262.377"/>
  <polygon class="cls-2" points="734.041 262.377 726.849 258.224 868.011 13.725 875.203 17.876 734.041 262.377 734.041 262.377"/>
  <polyline class="cls-4" points="512 13.75 862.84 13.75 792.763 135.127 722.685 256.504 512 256.504 301.314 256.504 231.237 135.127 161.16 13.75 512 13.75"/>
  <polyline class="cls-2" points="512 13.75 862.84 13.75 792.763 135.127 722.685 256.504 512 256.504 301.314 256.504 231.237 135.127 161.16 13.75 512 13.75"/>
  <rect class="cls-4" x="266.945" y="517.048" width="490.111" height="55.199"/>
  <rect class="cls-2" x="266.945" y="517.048" width="490.111" height="55.199"/>
</svg>