<?xml version="1.0" encoding="utf-8"?>
<!-- Generator: Adobe Illustrator 26.2.0, SVG Export Plug-In . SVG Version: 6.00 Build 0)  -->
<svg version="1.1" id="ELP_PAR_-_Thumbnail" xmlns="http://www.w3.org/2000/svg" xmlns:xlink="http://www.w3.org/1999/xlink"
	 x="0px" y="0px" viewBox="0 0 1024 1024" style="enable-background:new 0 0 1024 1024;" xml:space="preserve">
<style type="text/css">
	.st0{fill-rule:evenodd;clip-rule:evenodd;fill:#CCCCCC;stroke:#1D1D1B;stroke-miterlimit:10;}
	.st1{fill:none;stroke:#1D1D1B;stroke-linecap:round;stroke-linejoin:round;stroke-miterlimit:10;}
	.st2{fill-rule:evenodd;clip-rule:evenodd;fill:#FFFFFF;stroke:#1D1D1B;stroke-miterlimit:10;}
	.st3{stroke:#1D1D1B;stroke-miterlimit:10;}
</style>
<g>
	<polyline class="st0" points="811.7,894.5 764.5,1015.7 259.2,1015.7 212.1,894.5 202,800.1 175,793.4 161.5,635.1 141.3,614.9 
		141.3,392.5 175,8.5 848.7,8.5 882.4,392.5 882.4,614.9 862.2,635.1 848.7,793.4 821.8,800.1 811.7,894.5 	"/>
	<path class="st1" d="M811.7,894.5l-47.2,121.3H259.2l-47.2-121.3L202,800.1l-26.9-6.7l-13.5-158.3l-20.2-20.2V392.5L175,8.5h673.7
		l33.7,384v222.3l-20.2,20.2l-13.5,158.3l-26.9,6.7L811.7,894.5L811.7,894.5z M882.4,392.5H141.3 M821.8,800.1H202 M811.7,894.5
		H212.1 M854.8,675.5H167.7"/>
	<polyline class="st0" points="612.9,8.5 633.1,331.9 842,328.5 815,8.5 	"/>
	<polyline class="st1" points="612.9,8.5 633.1,331.9 842,328.5 815,8.5 	"/>
	<polyline class="st0" points="410.8,8.5 390.6,331.9 181.7,328.5 208.7,8.5 	"/>
	<polyline class="st1" points="410.8,8.5 390.6,331.9 181.7,328.5 208.7,8.5 	"/>
	<rect x="107.6" y="453.5" class="st0" width="808.5" height="158.3"/>
	<rect x="107.6" y="453.5" class="st1" width="808.5" height="158.3"/>
	<polyline class="st0" points="973,485.3 983.1,485.3 983.1,508.9 990.5,509.2 990.5,744.7 960.2,744.7 946.1,572.9 916.1,565.2 
		916,509.2 916,508.6 973,485.3 	"/>
	<polygon class="st1" points="973,485.3 983.1,485.3 983.1,508.9 990.5,509.2 990.5,744.7 960.2,744.7 946.1,572.9 916.1,565.2 
		916,509.2 916,508.6 973,485.3 	"/>
	<polyline class="st0" points="50.7,485.3 40.6,485.3 40.6,508.9 33.2,509.2 33.2,744.7 63.5,744.7 77.7,572.9 107.6,565.2 
		107.7,509.2 107.7,508.6 50.7,485.3 	"/>
	<polygon class="st1" points="50.7,485.3 40.6,485.3 40.6,508.9 33.2,509.2 33.2,744.7 63.5,744.7 77.7,572.9 107.6,565.2 
		107.7,509.2 107.7,508.6 50.7,485.3 	"/>
	<rect x="285.2" y="425.5" class="st2" width="453.5" height="211.1"/>
	<rect x="285.2" y="425.5" class="st1" width="453.5" height="211.1"/>
	<polyline class="st2" points="309.2,475.8 714.7,475.8 714.7,586.2 309.2,586.2 309.2,475.8 	"/>
	<path class="st3" d="M368.2,562.2v-8.1H326v-23.4h38v-8.1h-38v-21h40.6v-8.1h-49.7v68.7H368.2L368.2,562.2z M423.3,562.2v-8.1
		h-33.8v-60.6h-9.1v68.7H423.3L423.3,562.2z M443.2,562.2v-27.9h17.6c9.7,0,16.4-2,20.2-6.1c3.7-4,5.6-9,5.6-14.8
		c0-3.4-0.7-6.5-2.1-9.4c-1.4-2.8-3.2-5.1-5.5-6.6c-2.3-1.6-5.1-2.6-8.5-3.2c-2.4-0.4-5.9-0.7-10.5-0.7h-25.9v68.7H443.2
		L443.2,562.2z M443.2,501.6h17.6c4.1,0,7,0.2,8.5,0.6c2.4,0.7,4.3,2,5.7,4.1c1.5,2,2.2,4.5,2.2,7.4c0,4-1.2,7-3.7,9.2
		c-2.5,2.2-6.6,3.3-12.5,3.3h-17.8V501.6L443.2,501.6z M533.9,562.2v-27.9h17.6c9.7,0,16.4-2,20.2-6.1c3.7-4,5.6-9,5.6-14.8
		c0-3.4-0.7-6.5-2.1-9.4c-1.4-2.8-3.2-5.1-5.5-6.6c-2.3-1.6-5.1-2.6-8.5-3.2c-2.4-0.4-5.9-0.7-10.5-0.7h-25.9v68.7H533.9
		L533.9,562.2z M533.9,501.6h17.6c4.1,0,7,0.2,8.5,0.6c2.4,0.7,4.3,2,5.7,4.1c1.5,2,2.2,4.5,2.2,7.4c0,4-1.2,7-3.7,9.2
		c-2.5,2.2-6.6,3.3-12.5,3.3h-17.8V501.6L533.9,501.6z M591,562.2l7.5-20.8h28.7l8,20.8h10.4l-28.1-68.7h-9.8l-26.4,68.7H591
		L591,562.2z M608.7,513.8c1.6-4.3,2.8-8.7,3.7-13.1c1.1,3.7,2.7,8.5,4.9,14.2l7.2,19h-23.3L608.7,513.8L608.7,513.8z M662.1,562.2
		v-30.5h10.5c2.3,0,4,0.1,5.1,0.3c1.4,0.3,2.8,1,4.1,1.8c1.4,0.9,2.9,2.4,4.6,4.6c1.7,2.2,3.9,5.3,6.6,9.5l9.1,14.3h11.4l-12-18.7
		c-2.4-3.7-4.9-6.7-7.5-9.1c-1.3-1.1-3.1-2.3-5.5-3.4c6.6-0.9,11.5-3,14.6-6.4c3.2-3.3,4.7-7.5,4.7-12.3c0-3.8-1-7.2-2.9-10.4
		c-1.9-3.1-4.5-5.3-7.6-6.5c-3.2-1.2-7.8-1.9-14-1.9H653v68.7H662.1L662.1,562.2z M662.1,501.1h21.8c5.1,0,8.8,1,11.2,3.1
		c2.4,2.1,3.5,4.8,3.5,8c0,2.2-0.6,4.3-1.8,6.2c-1.2,1.9-3,3.3-5.3,4.1c-2.3,0.9-5.6,1.3-9.8,1.3h-19.5V501.1L662.1,501.1z"/>
</g>
</svg>
