<?xml version="1.0" encoding="UTF-8"?>
<svg id="EXT_Linear_Pro_Cove_CTC_-_Thumbnail" data-name="EXT Linear Pro Cove CTC - Thumbnail" xmlns="http://www.w3.org/2000/svg" viewBox="0 0 1024 1024">
  <defs>
    <style>
      .cls-1, .cls-2 {
        fill: #fff;
      }

      .cls-2, .cls-3 {
        fill-rule: evenodd;
      }

      .cls-4, .cls-5 {
        fill: none;
        stroke: #000;
        stroke-linecap: round;
        stroke-linejoin: round;
      }

      .cls-6, .cls-3 {
        fill: #ccc;
      }

      .cls-5 {
        stroke-width: .04px;
      }
    </style>
  </defs>
  <g id="_4FT" data-name="4FT">
    <rect class="cls-6" x="17.74" y="495.88" width="988.66" height="32.24"/>
    <rect class="cls-4" x="17.74" y="495.88" width="988.66" height="32.24"/>
    <path class="cls-3" d="M988.63,512c0-5-4.11-9.11-9.11-9.11s-9.11,4.11-9.11,9.11,4.11,9.11,9.11,9.11,9.11-4.11,9.11-9.11"/>
    <path class="cls-5" d="M988.63,512c0-5-4.11-9.11-9.11-9.11s-9.11,4.11-9.11,9.11,4.11,9.11,9.11,9.11,9.11-4.11,9.11-9.11"/>
    <path class="cls-3" d="M968.73,512c0-5-4.11-9.11-9.11-9.11s-9.11,4.11-9.11,9.11,4.11,9.11,9.11,9.11,9.11-4.11,9.11-9.11"/>
    <path class="cls-5" d="M968.73,512c0-5-4.11-9.11-9.11-9.11s-9.11,4.11-9.11,9.11,4.11,9.11,9.11,9.11,9.11-4.11,9.11-9.11"/>
    <path class="cls-3" d="M948.84,512c0-5-4.11-9.11-9.11-9.11s-9.11,4.11-9.11,9.11,4.11,9.11,9.11,9.11,9.11-4.11,9.11-9.11"/>
    <path class="cls-5" d="M948.84,512c0-5-4.11-9.11-9.11-9.11s-9.11,4.11-9.11,9.11,4.11,9.11,9.11,9.11,9.11-4.11,9.11-9.11"/>
    <path class="cls-3" d="M928.95,512c0-5-4.11-9.11-9.11-9.11s-9.11,4.11-9.11,9.11,4.11,9.11,9.11,9.11,9.11-4.11,9.11-9.11"/>
    <path class="cls-5" d="M928.95,512c0-5-4.11-9.11-9.11-9.11s-9.11,4.11-9.11,9.11,4.11,9.11,9.11,9.11,9.11-4.11,9.11-9.11"/>
    <path class="cls-3" d="M909.06,512c0-5-4.11-9.11-9.11-9.11s-9.11,4.11-9.11,9.11,4.11,9.11,9.11,9.11,9.11-4.11,9.11-9.11"/>
    <path class="cls-5" d="M909.06,512c0-5-4.11-9.11-9.11-9.11s-9.11,4.11-9.11,9.11,4.11,9.11,9.11,9.11,9.11-4.11,9.11-9.11"/>
    <path class="cls-3" d="M889.17,512c0-5-4.11-9.11-9.11-9.11s-9.11,4.11-9.11,9.11,4.11,9.11,9.11,9.11,9.11-4.11,9.11-9.11"/>
    <path class="cls-5" d="M889.17,512c0-5-4.11-9.11-9.11-9.11s-9.11,4.11-9.11,9.11,4.11,9.11,9.11,9.11,9.11-4.11,9.11-9.11"/>
    <path class="cls-3" d="M869.28,512c0-5-4.11-9.11-9.11-9.11s-9.11,4.11-9.11,9.11,4.11,9.11,9.11,9.11,9.11-4.11,9.11-9.11"/>
    <path class="cls-5" d="M869.28,512c0-5-4.11-9.11-9.11-9.11s-9.11,4.11-9.11,9.11,4.11,9.11,9.11,9.11,9.11-4.11,9.11-9.11"/>
    <path class="cls-3" d="M849.39,512c0-5-4.11-9.11-9.11-9.11s-9.11,4.11-9.11,9.11,4.11,9.11,9.11,9.11,9.11-4.11,9.11-9.11"/>
    <path class="cls-5" d="M849.39,512c0-5-4.11-9.11-9.11-9.11s-9.11,4.11-9.11,9.11,4.11,9.11,9.11,9.11,9.11-4.11,9.11-9.11"/>
    <path class="cls-3" d="M829.49,512c0-5-4.11-9.11-9.11-9.11s-9.11,4.11-9.11,9.11,4.11,9.11,9.11,9.11,9.11-4.11,9.11-9.11"/>
    <path class="cls-5" d="M829.49,512c0-5-4.11-9.11-9.11-9.11s-9.11,4.11-9.11,9.11,4.11,9.11,9.11,9.11,9.11-4.11,9.11-9.11"/>
    <path class="cls-3" d="M809.61,512c0-5-4.11-9.11-9.11-9.11s-9.11,4.11-9.11,9.11,4.11,9.11,9.11,9.11,9.11-4.11,9.11-9.11"/>
    <path class="cls-5" d="M809.61,512c0-5-4.11-9.11-9.11-9.11s-9.11,4.11-9.11,9.11,4.11,9.11,9.11,9.11,9.11-4.11,9.11-9.11"/>
    <path class="cls-3" d="M789.71,512c0-5-4.11-9.11-9.11-9.11s-9.11,4.11-9.11,9.11,4.11,9.11,9.11,9.11,9.11-4.11,9.11-9.11"/>
    <path class="cls-5" d="M789.71,512c0-5-4.11-9.11-9.11-9.11s-9.11,4.11-9.11,9.11,4.11,9.11,9.11,9.11,9.11-4.11,9.11-9.11"/>
    <path class="cls-3" d="M769.82,512c0-5-4.11-9.11-9.11-9.11s-9.11,4.11-9.11,9.11,4.11,9.11,9.11,9.11,9.11-4.11,9.11-9.11"/>
    <path class="cls-5" d="M769.82,512c0-5-4.11-9.11-9.11-9.11s-9.11,4.11-9.11,9.11,4.11,9.11,9.11,9.11,9.11-4.11,9.11-9.11"/>
    <path class="cls-3" d="M749.93,512c0-5-4.11-9.11-9.11-9.11s-9.11,4.11-9.11,9.11,4.11,9.11,9.11,9.11,9.11-4.11,9.11-9.11"/>
    <path class="cls-5" d="M749.93,512c0-5-4.11-9.11-9.11-9.11s-9.11,4.11-9.11,9.11,4.11,9.11,9.11,9.11,9.11-4.11,9.11-9.11"/>
    <path class="cls-3" d="M730.04,512c0-5-4.11-9.11-9.11-9.11s-9.11,4.11-9.11,9.11,4.11,9.11,9.11,9.11,9.11-4.11,9.11-9.11"/>
    <path class="cls-5" d="M730.04,512c0-5-4.11-9.11-9.11-9.11s-9.11,4.11-9.11,9.11,4.11,9.11,9.11,9.11,9.11-4.11,9.11-9.11"/>
    <path class="cls-3" d="M710.15,512c0-5-4.11-9.11-9.11-9.11s-9.11,4.11-9.11,9.11,4.11,9.11,9.11,9.11,9.11-4.11,9.11-9.11"/>
    <path class="cls-5" d="M710.15,512c0-5-4.11-9.11-9.11-9.11s-9.11,4.11-9.11,9.11,4.11,9.11,9.11,9.11,9.11-4.11,9.11-9.11"/>
    <path class="cls-3" d="M690.26,512c0-5-4.11-9.11-9.11-9.11s-9.11,4.11-9.11,9.11,4.11,9.11,9.11,9.11,9.11-4.11,9.11-9.11"/>
    <path class="cls-5" d="M690.26,512c0-5-4.11-9.11-9.11-9.11s-9.11,4.11-9.11,9.11,4.11,9.11,9.11,9.11,9.11-4.11,9.11-9.11"/>
    <path class="cls-3" d="M670.37,512c0-5-4.11-9.11-9.11-9.11s-9.11,4.11-9.11,9.11,4.11,9.11,9.11,9.11,9.11-4.11,9.11-9.11"/>
    <path class="cls-5" d="M670.37,512c0-5-4.11-9.11-9.11-9.11s-9.11,4.11-9.11,9.11,4.11,9.11,9.11,9.11,9.11-4.11,9.11-9.11"/>
    <path class="cls-3" d="M650.48,512c0-5-4.11-9.11-9.11-9.11s-9.11,4.11-9.11,9.11,4.11,9.11,9.11,9.11,9.11-4.11,9.11-9.11"/>
    <path class="cls-5" d="M650.48,512c0-5-4.11-9.11-9.11-9.11s-9.11,4.11-9.11,9.11,4.11,9.11,9.11,9.11,9.11-4.11,9.11-9.11"/>
    <path class="cls-3" d="M630.58,512c0-5-4.11-9.11-9.11-9.11s-9.11,4.11-9.11,9.11,4.11,9.11,9.11,9.11,9.11-4.11,9.11-9.11"/>
    <path class="cls-5" d="M630.58,512c0-5-4.11-9.11-9.11-9.11s-9.11,4.11-9.11,9.11,4.11,9.11,9.11,9.11,9.11-4.11,9.11-9.11"/>
    <path class="cls-3" d="M610.69,512c0-5-4.11-9.11-9.11-9.11s-9.11,4.11-9.11,9.11,4.11,9.11,9.11,9.11,9.11-4.11,9.11-9.11"/>
    <path class="cls-5" d="M610.69,512c0-5-4.11-9.11-9.11-9.11s-9.11,4.11-9.11,9.11,4.11,9.11,9.11,9.11,9.11-4.11,9.11-9.11"/>
    <path class="cls-3" d="M590.8,512c0-5-4.11-9.11-9.11-9.11s-9.11,4.11-9.11,9.11,4.11,9.11,9.11,9.11,9.11-4.11,9.11-9.11"/>
    <path class="cls-5" d="M590.8,512c0-5-4.11-9.11-9.11-9.11s-9.11,4.11-9.11,9.11,4.11,9.11,9.11,9.11,9.11-4.11,9.11-9.11"/>
    <path class="cls-3" d="M570.91,512c0-5-4.11-9.11-9.11-9.11s-9.11,4.11-9.11,9.11,4.11,9.11,9.11,9.11,9.11-4.11,9.11-9.11"/>
    <path class="cls-5" d="M570.91,512c0-5-4.11-9.11-9.11-9.11s-9.11,4.11-9.11,9.11,4.11,9.11,9.11,9.11,9.11-4.11,9.11-9.11"/>
    <path class="cls-3" d="M551.02,512c0-5-4.11-9.11-9.11-9.11s-9.11,4.11-9.11,9.11,4.11,9.11,9.11,9.11,9.11-4.11,9.11-9.11"/>
    <path class="cls-5" d="M551.02,512c0-5-4.11-9.11-9.11-9.11s-9.11,4.11-9.11,9.11,4.11,9.11,9.11,9.11,9.11-4.11,9.11-9.11"/>
    <path class="cls-3" d="M531.13,512c0-5-4.11-9.11-9.11-9.11s-9.11,4.11-9.11,9.11,4.11,9.11,9.11,9.11,9.11-4.11,9.11-9.11"/>
    <path class="cls-5" d="M531.13,512c0-5-4.11-9.11-9.11-9.11s-9.11,4.11-9.11,9.11,4.11,9.11,9.11,9.11,9.11-4.11,9.11-9.11"/>
    <path class="cls-3" d="M511.24,512c0-5-4.11-9.11-9.11-9.11s-9.11,4.11-9.11,9.11,4.11,9.11,9.11,9.11,9.11-4.11,9.11-9.11"/>
    <path class="cls-5" d="M511.24,512c0-5-4.11-9.11-9.11-9.11s-9.11,4.11-9.11,9.11,4.11,9.11,9.11,9.11,9.11-4.11,9.11-9.11"/>
    <path class="cls-3" d="M491.35,512c0-5-4.11-9.11-9.11-9.11s-9.11,4.11-9.11,9.11,4.11,9.11,9.11,9.11,9.11-4.11,9.11-9.11"/>
    <path class="cls-5" d="M491.35,512c0-5-4.11-9.11-9.11-9.11s-9.11,4.11-9.11,9.11,4.11,9.11,9.11,9.11,9.11-4.11,9.11-9.11"/>
    <path class="cls-3" d="M471.46,512c0-5-4.11-9.11-9.11-9.11s-9.11,4.11-9.11,9.11,4.11,9.11,9.11,9.11,9.11-4.11,9.11-9.11"/>
    <path class="cls-5" d="M471.46,512c0-5-4.11-9.11-9.11-9.11s-9.11,4.11-9.11,9.11,4.11,9.11,9.11,9.11,9.11-4.11,9.11-9.11"/>
    <path class="cls-3" d="M451.56,512c0-5-4.11-9.11-9.11-9.11s-9.11,4.11-9.11,9.11,4.11,9.11,9.11,9.11,9.11-4.11,9.11-9.11"/>
    <path class="cls-5" d="M451.56,512c0-5-4.11-9.11-9.11-9.11s-9.11,4.11-9.11,9.11,4.11,9.11,9.11,9.11,9.11-4.11,9.11-9.11"/>
    <path class="cls-3" d="M431.67,512c0-5-4.11-9.11-9.11-9.11s-9.11,4.11-9.11,9.11,4.11,9.11,9.11,9.11,9.11-4.11,9.11-9.11"/>
    <path class="cls-5" d="M431.67,512c0-5-4.11-9.11-9.11-9.11s-9.11,4.11-9.11,9.11,4.11,9.11,9.11,9.11,9.11-4.11,9.11-9.11"/>
    <path class="cls-3" d="M411.78,512c0-5-4.11-9.11-9.11-9.11s-9.11,4.11-9.11,9.11,4.11,9.11,9.11,9.11,9.11-4.11,9.11-9.11"/>
    <path class="cls-5" d="M411.78,512c0-5-4.11-9.11-9.11-9.11s-9.11,4.11-9.11,9.11,4.11,9.11,9.11,9.11,9.11-4.11,9.11-9.11"/>
    <path class="cls-3" d="M391.89,512c0-5-4.11-9.11-9.11-9.11s-9.11,4.11-9.11,9.11,4.11,9.11,9.11,9.11,9.11-4.11,9.11-9.11"/>
    <path class="cls-5" d="M391.89,512c0-5-4.11-9.11-9.11-9.11s-9.11,4.11-9.11,9.11,4.11,9.11,9.11,9.11,9.11-4.11,9.11-9.11"/>
    <path class="cls-3" d="M372,512c0-5-4.11-9.11-9.11-9.11s-9.11,4.11-9.11,9.11,4.11,9.11,9.11,9.11,9.11-4.11,9.11-9.11"/>
    <path class="cls-5" d="M372,512c0-5-4.11-9.11-9.11-9.11s-9.11,4.11-9.11,9.11,4.11,9.11,9.11,9.11,9.11-4.11,9.11-9.11"/>
    <path class="cls-3" d="M352.11,512c0-5-4.11-9.11-9.11-9.11s-9.11,4.11-9.11,9.11,4.11,9.11,9.11,9.11,9.11-4.11,9.11-9.11"/>
    <path class="cls-5" d="M352.11,512c0-5-4.11-9.11-9.11-9.11s-9.11,4.11-9.11,9.11,4.11,9.11,9.11,9.11,9.11-4.11,9.11-9.11"/>
    <path class="cls-3" d="M332.22,512c0-5-4.11-9.11-9.11-9.11s-9.11,4.11-9.11,9.11,4.11,9.11,9.11,9.11,9.11-4.11,9.11-9.11"/>
    <path class="cls-5" d="M332.22,512c0-5-4.11-9.11-9.11-9.11s-9.11,4.11-9.11,9.11,4.11,9.11,9.11,9.11,9.11-4.11,9.11-9.11"/>
    <path class="cls-3" d="M312.33,512c0-5-4.11-9.11-9.11-9.11s-9.11,4.11-9.11,9.11,4.11,9.11,9.11,9.11,9.11-4.11,9.11-9.11"/>
    <path class="cls-5" d="M312.33,512c0-5-4.11-9.11-9.11-9.11s-9.11,4.11-9.11,9.11,4.11,9.11,9.11,9.11,9.11-4.11,9.11-9.11"/>
    <path class="cls-3" d="M292.44,512c0-5-4.11-9.11-9.11-9.11s-9.11,4.11-9.11,9.11,4.11,9.11,9.11,9.11,9.11-4.11,9.11-9.11"/>
    <path class="cls-5" d="M292.44,512c0-5-4.11-9.11-9.11-9.11s-9.11,4.11-9.11,9.11,4.11,9.11,9.11,9.11,9.11-4.11,9.11-9.11"/>
    <path class="cls-3" d="M272.54,512c0-5-4.11-9.11-9.11-9.11s-9.11,4.11-9.11,9.11,4.11,9.11,9.11,9.11,9.11-4.11,9.11-9.11"/>
    <path class="cls-5" d="M272.54,512c0-5-4.11-9.11-9.11-9.11s-9.11,4.11-9.11,9.11,4.11,9.11,9.11,9.11,9.11-4.11,9.11-9.11"/>
    <path class="cls-3" d="M252.65,512c0-5-4.11-9.11-9.11-9.11s-9.11,4.11-9.11,9.11,4.11,9.11,9.11,9.11,9.11-4.11,9.11-9.11"/>
    <path class="cls-5" d="M252.65,512c0-5-4.11-9.11-9.11-9.11s-9.11,4.11-9.11,9.11,4.11,9.11,9.11,9.11,9.11-4.11,9.11-9.11"/>
    <path class="cls-3" d="M232.76,512c0-5-4.11-9.11-9.11-9.11s-9.11,4.11-9.11,9.11,4.11,9.11,9.11,9.11,9.11-4.11,9.11-9.11"/>
    <path class="cls-5" d="M232.76,512c0-5-4.11-9.11-9.11-9.11s-9.11,4.11-9.11,9.11,4.11,9.11,9.11,9.11,9.11-4.11,9.11-9.11"/>
    <path class="cls-3" d="M212.87,512c0-5-4.11-9.11-9.11-9.11s-9.11,4.11-9.11,9.11,4.11,9.11,9.11,9.11,9.11-4.11,9.11-9.11"/>
    <path class="cls-5" d="M212.87,512c0-5-4.11-9.11-9.11-9.11s-9.11,4.11-9.11,9.11,4.11,9.11,9.11,9.11,9.11-4.11,9.11-9.11"/>
    <path class="cls-3" d="M192.98,512c0-5-4.11-9.11-9.11-9.11s-9.11,4.11-9.11,9.11,4.11,9.11,9.11,9.11,9.11-4.11,9.11-9.11"/>
    <path class="cls-5" d="M192.98,512c0-5-4.11-9.11-9.11-9.11s-9.11,4.11-9.11,9.11,4.11,9.11,9.11,9.11,9.11-4.11,9.11-9.11"/>
    <path class="cls-3" d="M173.09,512c0-5-4.11-9.11-9.11-9.11s-9.11,4.11-9.11,9.11,4.11,9.11,9.11,9.11,9.11-4.11,9.11-9.11"/>
    <path class="cls-5" d="M173.09,512c0-5-4.11-9.11-9.11-9.11s-9.11,4.11-9.11,9.11,4.11,9.11,9.11,9.11,9.11-4.11,9.11-9.11"/>
    <path class="cls-3" d="M153.2,512c0-5-4.11-9.11-9.11-9.11s-9.11,4.11-9.11,9.11,4.11,9.11,9.11,9.11,9.11-4.11,9.11-9.11"/>
    <path class="cls-5" d="M153.2,512c0-5-4.11-9.11-9.11-9.11s-9.11,4.11-9.11,9.11,4.11,9.11,9.11,9.11,9.11-4.11,9.11-9.11"/>
    <path class="cls-3" d="M133.31,512c0-5-4.11-9.11-9.11-9.11s-9.11,4.11-9.11,9.11,4.11,9.11,9.11,9.11,9.11-4.11,9.11-9.11"/>
    <path class="cls-5" d="M133.31,512c0-5-4.11-9.11-9.11-9.11s-9.11,4.11-9.11,9.11,4.11,9.11,9.11,9.11,9.11-4.11,9.11-9.11"/>
    <path class="cls-3" d="M113.42,512c0-5-4.11-9.11-9.11-9.11s-9.11,4.11-9.11,9.11,4.11,9.11,9.11,9.11,9.11-4.11,9.11-9.11"/>
    <path class="cls-5" d="M113.42,512c0-5-4.11-9.11-9.11-9.11s-9.11,4.11-9.11,9.11,4.11,9.11,9.11,9.11,9.11-4.11,9.11-9.11"/>
    <path class="cls-3" d="M93.52,512c0-5-4.11-9.11-9.11-9.11s-9.11,4.11-9.11,9.11,4.11,9.11,9.11,9.11,9.11-4.11,9.11-9.11"/>
    <path class="cls-5" d="M93.52,512c0-5-4.11-9.11-9.11-9.11s-9.11,4.11-9.11,9.11,4.11,9.11,9.11,9.11,9.11-4.11,9.11-9.11"/>
    <path class="cls-3" d="M73.63,512c0-5-4.11-9.11-9.11-9.11s-9.11,4.11-9.11,9.11,4.11,9.11,9.11,9.11,9.11-4.11,9.11-9.11"/>
    <path class="cls-5" d="M73.63,512c0-5-4.11-9.11-9.11-9.11s-9.11,4.11-9.11,9.11,4.11,9.11,9.11,9.11,9.11-4.11,9.11-9.11"/>
    <path class="cls-3" d="M53.74,512c0-5-4.11-9.11-9.11-9.11s-9.11,4.11-9.11,9.11,4.11,9.11,9.11,9.11,9.11-4.11,9.11-9.11"/>
    <path class="cls-5" d="M53.74,512c0-5-4.11-9.11-9.11-9.11s-9.11,4.11-9.11,9.11,4.11,9.11,9.11,9.11,9.11-4.11,9.11-9.11"/>
    <rect class="cls-1" x="431.5" y="499.95" width="161.15" height="24.17"/>
    <rect class="cls-4" x="431.5" y="499.95" width="161.15" height="24.17"/>
    <polyline class="cls-2" points="446.83 507.14 583 507.14 583 516.94 446.83 516.94 446.83 507.14"/>
    <path d="M452.06,514.81v-.72h-3.75v-2.08h3.38v-.72h-3.38v-1.87h3.61v-.72h-4.41v6.1h4.56Zm1.43,0l1.16-1.74,.24,.37,.91,1.37h.92l-1.64-2.34,1.53-2.08h-.9l-.75,1.05c-.1,.14-.22,.3-.34,.49-.08-.13-.18-.3-.31-.5l-.68-1.04h-.94l1.49,2.12-1.62,2.3h.91Zm5.16-.64c-.11,0-.2-.02-.26-.05-.06-.04-.1-.08-.13-.15-.03-.06-.04-.2-.04-.41v-2.59h.75v-.58h-.75v-1.54l-.75,.45v1.1h-.55v.58h.55v2.54c0,.45,.03,.74,.09,.88,.06,.14,.17,.25,.32,.34,.15,.09,.36,.13,.63,.13,.17,0,.36-.02,.57-.07l-.11-.66c-.14,.02-.25,.03-.33,.03h0Zm3.63-.09c-.19,.14-.43,.22-.7,.22-.37,0-.68-.13-.92-.39-.25-.26-.38-.63-.41-1.12h3.3c0-.09,0-.16,0-.2,0-.73-.19-1.3-.56-1.7-.37-.4-.86-.6-1.45-.6s-1.11,.21-1.49,.62c-.38,.41-.57,.99-.57,1.73s.19,1.28,.57,1.68c.38,.4,.89,.6,1.54,.6,.51,0,.94-.12,1.27-.37,.33-.25,.56-.6,.68-1.05l-.77-.1c-.11,.32-.27,.55-.46,.69h0Zm-1.61-2.83c.23-.23,.52-.35,.87-.35,.38,0,.69,.14,.93,.43,.16,.19,.25,.46,.28,.84h-2.47c.02-.39,.15-.69,.39-.92h0Zm4.53,3.56v-2.32c0-.32,.04-.61,.12-.87,.06-.17,.15-.31,.28-.41,.13-.1,.28-.15,.44-.15,.18,0,.37,.05,.55,.16l.26-.7c-.26-.16-.52-.24-.77-.24-.17,0-.34,.05-.48,.15s-.3,.31-.48,.62v-.67h-.67v4.42h.75Zm2.85-5.24v-.86h-.75v.86h.75Zm0,5.24v-4.42h-.75v4.42h.75Zm1.43-.5c.38,.4,.88,.6,1.5,.6,.39,0,.74-.09,1.07-.27,.33-.18,.57-.43,.75-.76,.17-.33,.26-.77,.26-1.34,0-.7-.19-1.25-.58-1.65-.39-.4-.88-.6-1.49-.6-.55,0-1.01,.16-1.39,.49-.46,.39-.68,1-.68,1.82,0,.75,.19,1.32,.57,1.72h0Zm.57-2.99c.25-.28,.56-.42,.93-.42s.68,.14,.93,.42c.25,.28,.37,.7,.37,1.24,0,.58-.12,1.01-.37,1.29-.25,.28-.56,.42-.93,.42s-.69-.14-.93-.42c-.25-.28-.37-.71-.37-1.27s.12-.99,.37-1.27h0Zm4.62,3.48v-2.32c0-.32,.04-.61,.12-.87,.06-.17,.15-.31,.28-.41,.13-.1,.28-.15,.44-.15,.18,0,.37,.05,.55,.16l.26-.7c-.26-.16-.52-.24-.77-.24-.17,0-.34,.05-.48,.15s-.3,.31-.48,.62v-.67h-.67v4.42h.75Zm8.34,0v-.72h-3.01v-5.38h-.81v6.1h3.81Zm1.62-5.24v-.86h-.75v.86h.75Zm0,5.24v-4.42h-.75v4.42h.75Zm1.89,0v-2.42c0-.57,.12-.95,.35-1.15,.23-.2,.51-.3,.83-.3,.2,0,.37,.05,.52,.14,.15,.09,.25,.21,.31,.36,.06,.15,.09,.38,.09,.68v2.69h.75v-2.72c0-.35-.01-.59-.04-.73-.04-.21-.12-.4-.23-.55-.11-.16-.28-.28-.5-.38-.22-.1-.47-.14-.73-.14-.61,0-1.08,.24-1.41,.73v-.63h-.67v4.42h.75Zm6.56-.73c-.19,.14-.43,.22-.7,.22-.37,0-.68-.13-.92-.39-.25-.26-.38-.63-.41-1.12h3.3c0-.09,0-.16,0-.2,0-.73-.19-1.3-.56-1.7-.37-.4-.86-.6-1.45-.6s-1.11,.21-1.49,.62c-.38,.41-.57,.99-.57,1.73s.19,1.28,.57,1.68c.38,.4,.89,.6,1.54,.6,.51,0,.94-.12,1.27-.37,.33-.25,.56-.6,.68-1.05l-.77-.1c-.11,.32-.27,.55-.46,.69h0Zm-1.61-2.83c.23-.23,.52-.35,.87-.35,.38,0,.69,.14,.93,.43,.16,.19,.25,.46,.28,.84h-2.47c.02-.39,.15-.69,.39-.92h0Zm6.82,3.56h.78c-.09-.17-.16-.35-.19-.53-.03-.18-.05-.63-.05-1.32v-1c0-.33-.01-.56-.04-.69-.04-.21-.12-.38-.23-.51-.11-.13-.28-.25-.52-.34-.24-.09-.54-.13-.92-.13s-.71,.05-1,.16c-.29,.1-.51,.25-.66,.45-.15,.19-.26,.45-.33,.76l.73,.1c.08-.31,.2-.53,.37-.66,.17-.12,.43-.19,.78-.19,.38,0,.66,.08,.85,.25,.14,.12,.21,.34,.21,.65,0,.03,0,.09,0,.2-.29,.1-.73,.19-1.34,.26-.3,.04-.52,.07-.67,.11-.2,.06-.38,.14-.54,.25-.16,.11-.29,.25-.39,.43-.1,.18-.15,.38-.15,.59,0,.37,.13,.67,.39,.91,.26,.24,.63,.36,1.12,.36,.29,0,.57-.05,.83-.15,.26-.1,.52-.26,.8-.5,.02,.21,.07,.39,.15,.55h0Zm-.21-1.94c0,.33-.04,.58-.12,.75-.11,.22-.27,.39-.5,.52-.22,.13-.48,.19-.77,.19s-.51-.07-.66-.2c-.15-.13-.23-.3-.23-.5,0-.13,.03-.25,.1-.36,.07-.11,.17-.19,.3-.24,.13-.06,.35-.11,.65-.15,.54-.08,.95-.17,1.22-.28v.27h0Zm2.66,1.94v-2.32c0-.32,.04-.61,.12-.87,.06-.17,.15-.31,.28-.41,.13-.1,.28-.15,.44-.15,.18,0,.37,.05,.55,.16l.26-.7c-.26-.16-.52-.24-.77-.24-.17,0-.34,.05-.48,.15s-.3,.31-.48,.62v-.67h-.67v4.42h.75Zm5.37,0v-2.48h1.57c.86,0,1.46-.18,1.79-.54,.33-.36,.5-.8,.5-1.32,0-.3-.06-.58-.19-.83-.12-.25-.29-.45-.49-.59-.2-.14-.45-.24-.75-.29-.21-.04-.52-.06-.93-.06h-2.3v6.1h.81Zm0-5.38h1.56c.37,0,.62,.02,.75,.05,.21,.06,.38,.18,.51,.36,.13,.18,.19,.4,.19,.66,0,.35-.11,.63-.33,.82-.22,.19-.59,.29-1.11,.29h-1.58v-2.18h0Zm5.53,5.38v-2.32c0-.32,.04-.61,.12-.87,.06-.17,.15-.31,.28-.41,.13-.1,.28-.15,.44-.15,.18,0,.37,.05,.55,.16l.26-.7c-.26-.16-.52-.24-.77-.24-.17,0-.34,.05-.48,.15s-.3,.31-.48,.62v-.67h-.67v4.42h.75Zm2.39-.5c.38,.4,.88,.6,1.5,.6,.39,0,.74-.09,1.07-.27,.33-.18,.57-.43,.75-.76,.17-.33,.26-.77,.26-1.34,0-.7-.19-1.25-.58-1.65-.39-.4-.88-.6-1.49-.6-.55,0-1.01,.16-1.39,.49-.46,.39-.68,1-.68,1.82,0,.75,.19,1.32,.57,1.72h0Zm.57-2.99c.25-.28,.56-.42,.93-.42s.68,.14,.93,.42c.25,.28,.37,.7,.37,1.24,0,.58-.12,1.01-.37,1.29-.25,.28-.56,.42-.93,.42s-.69-.14-.93-.42c-.25-.28-.37-.71-.37-1.27s.12-.99,.37-1.27h0Zm10.06,2.5c-.31,.26-.7,.39-1.15,.39-.37,0-.72-.1-1.04-.29-.32-.19-.55-.48-.71-.87-.15-.39-.23-.84-.23-1.36,0-.4,.06-.79,.19-1.17,.13-.38,.35-.68,.66-.91,.32-.22,.71-.34,1.18-.34,.41,0,.75,.1,1.02,.3,.27,.2,.47,.53,.62,.97l.8-.19c-.16-.56-.45-1-.87-1.31-.42-.31-.93-.47-1.54-.47-.54,0-1.03,.12-1.48,.37-.45,.25-.79,.61-1.04,1.08-.24,.47-.36,1.03-.36,1.66,0,.58,.11,1.13,.32,1.64,.22,.51,.53,.9,.94,1.16,.41,.27,.95,.4,1.61,.4s1.17-.17,1.61-.52c.44-.35,.74-.85,.91-1.52l-.81-.2c-.11,.51-.32,.9-.64,1.16h0Zm2.64,.48c.38,.4,.88,.6,1.5,.6,.39,0,.74-.09,1.07-.27,.33-.18,.57-.43,.75-.76,.17-.33,.26-.77,.26-1.34,0-.7-.19-1.25-.58-1.65-.39-.4-.88-.6-1.49-.6-.55,0-1.01,.16-1.39,.49-.46,.39-.68,1-.68,1.82,0,.75,.19,1.32,.57,1.72h0Zm.57-2.99c.25-.28,.56-.42,.93-.42s.68,.14,.93,.42c.25,.28,.37,.7,.37,1.24,0,.58-.12,1.01-.37,1.29-.25,.28-.56,.42-.93,.42s-.69-.14-.93-.42c-.25-.28-.37-.71-.37-1.27s.12-.99,.37-1.27h0Zm5.81,3.48l1.67-4.42h-.77l-.98,2.7c-.12,.33-.21,.61-.28,.84-.09-.31-.18-.61-.28-.89l-.95-2.65h-.79l1.68,4.42h.7Zm4.9-.73c-.19,.14-.43,.22-.7,.22-.37,0-.68-.13-.92-.39-.25-.26-.38-.63-.41-1.12h3.3c0-.09,0-.16,0-.2,0-.73-.19-1.3-.56-1.7-.37-.4-.86-.6-1.45-.6s-1.11,.21-1.49,.62c-.38,.41-.57,.99-.57,1.73s.19,1.28,.57,1.68c.38,.4,.89,.6,1.54,.6,.51,0,.94-.12,1.27-.37,.33-.25,.56-.6,.68-1.05l-.77-.1c-.11,.32-.27,.55-.46,.69h0Zm-1.61-2.83c.23-.23,.52-.35,.87-.35,.38,0,.69,.14,.93,.43,.16,.19,.25,.46,.28,.84h-2.47c.02-.39,.15-.69,.39-.92h0Zm9.97,2.58c-.31,.26-.7,.39-1.15,.39-.37,0-.72-.1-1.04-.29-.32-.19-.55-.48-.71-.87-.15-.39-.23-.84-.23-1.36,0-.4,.06-.79,.19-1.17,.13-.38,.35-.68,.66-.91,.32-.22,.71-.34,1.18-.34,.41,0,.75,.1,1.02,.3,.27,.2,.47,.53,.62,.97l.8-.19c-.16-.56-.45-1-.87-1.31-.42-.31-.93-.47-1.54-.47-.54,0-1.03,.12-1.48,.37-.45,.25-.79,.61-1.04,1.08-.24,.47-.36,1.03-.36,1.66,0,.58,.11,1.13,.32,1.64,.22,.51,.53,.9,.94,1.16,.41,.27,.95,.4,1.61,.4s1.17-.17,1.61-.52c.44-.35,.74-.85,.91-1.52l-.81-.2c-.11,.51-.32,.9-.64,1.16h0Zm4.8,.98v-5.38h2.02v-.72h-4.84v.72h2.01v5.38h.81Zm6.57-.98c-.31,.26-.7,.39-1.15,.39-.37,0-.72-.1-1.04-.29-.32-.19-.55-.48-.71-.87-.15-.39-.23-.84-.23-1.36,0-.4,.06-.79,.19-1.17,.13-.38,.35-.68,.66-.91,.32-.22,.71-.34,1.18-.34,.41,0,.75,.1,1.02,.3,.27,.2,.47,.53,.62,.97l.8-.19c-.16-.56-.45-1-.87-1.31-.42-.31-.93-.47-1.54-.47-.54,0-1.03,.12-1.48,.37-.45,.25-.79,.61-1.04,1.08-.24,.47-.36,1.03-.36,1.66,0,.58,.11,1.13,.32,1.64,.22,.51,.53,.9,.94,1.16,.41,.27,.95,.4,1.61,.4s1.17-.17,1.61-.52c.44-.35,.74-.85,.91-1.52l-.81-.2c-.11,.51-.32,.9-.64,1.16h0Zm6.72-.85v-.75h-2.3v.75h2.3Zm6.14,1.83v-1.46h.82v-.69h-.82v-3.96h-.61l-2.79,3.96v.69h2.65v1.46h.75Zm-2.66-2.15l1.91-2.75v2.75h-1.91Zm5.4,2.15v-2.77h2.86v-.72h-2.86v-1.89h3.31v-.72h-4.12v6.1h.81Zm6.72,0v-5.38h2.02v-.72h-4.84v.72h2.01v5.38h.81Z"/>
  </g>
</svg>