<?xml version="1.0" encoding="utf-8"?>
<!-- Generator: Adobe Illustrator 25.3.0, SVG Export Plug-In . SVG Version: 6.00 Build 0)  -->
<svg version="1.1" id="MAC_Quantum_Profile_-_Thumbnail"
	 xmlns="http://www.w3.org/2000/svg" xmlns:xlink="http://www.w3.org/1999/xlink" x="0px" y="0px" viewBox="0 0 1024 1024"
	 style="enable-background:new 0 0 1024 1024;" xml:space="preserve">
<style type="text/css">
	.st0{fill-rule:evenodd;clip-rule:evenodd;fill:#CCCCCC;stroke:#1D1D1B;stroke-miterlimit:10;}
	.st1{fill:none;stroke:#1D1D1B;stroke-linecap:round;stroke-linejoin:round;stroke-miterlimit:10;}
	.st2{fill-rule:evenodd;clip-rule:evenodd;fill:#FFFFFF;stroke:#1D1D1B;stroke-miterlimit:10;}
	.st3{stroke:#1D1D1B;stroke-miterlimit:10;}
</style>
<g>
	<path class="st0" d="M88.1,388.1L88.1,388.1c4.5-2.4,9.1-4.7,13.8-6.8c4.7-2,9.5-3.9,14.4-5.5c4.9-1.6,9.8-3.1,14.8-4.3
		c5-1.2,10-2.2,15.1-3h731.5c5.1,0.8,10.1,1.8,15.1,3c5,1.2,9.9,2.6,14.8,4.3c4.9,1.6,9.7,3.5,14.4,5.5c4.7,2.1,9.3,4.3,13.8,6.8
		c10.8,34.5,18.9,69.8,24.4,105.5c5.4,35.7,8.1,71.9,8.1,108c0,36.2-2.8,72.3-8.4,108c-5.5,35.7-13.7,71-24.6,105.5
		c-4.6,2.3-9.3,4.4-14,6.3c-4.7,1.9-9.6,3.7-14.4,5.3c-4.9,1.6-9.8,2.9-14.8,4.1c-5,1.2-10,2.2-15.1,3l-60.1,0.1l-670-0.1
		c-5.1-0.8-10.1-1.8-15.1-3c-5-1.2-9.9-2.6-14.8-4.1c-4.9-1.6-9.7-3.3-14.4-5.3c-4.7-1.9-9.4-4-14-6.3
		C77.7,780.6,69.5,745.4,64,709.6c-5.5-35.7-8.3-71.8-8.4-108c0-36.2,2.7-72.3,8.1-108S77.3,422.6,88.1,388.1"/>
	<path class="st1" d="M88.1,388.1L88.1,388.1c4.5-2.4,9.1-4.7,13.8-6.8c4.7-2,9.5-3.9,14.4-5.5c4.9-1.6,9.8-3.1,14.8-4.3
		c5-1.2,10-2.2,15.1-3h731.5c5.1,0.8,10.1,1.8,15.1,3c5,1.2,9.9,2.6,14.8,4.3c4.9,1.6,9.7,3.5,14.4,5.5c4.7,2.1,9.3,4.3,13.8,6.8
		c10.8,34.5,18.9,69.8,24.4,105.5c5.4,35.7,8.1,71.9,8.1,108c0,36.2-2.8,72.3-8.4,108c-5.5,35.7-13.7,71-24.6,105.5
		c-4.6,2.3-9.3,4.4-14,6.3c-4.7,1.9-9.6,3.7-14.4,5.3c-4.9,1.6-9.8,2.9-14.8,4.1c-5,1.2-10,2.2-15.1,3l-60.1,0.1l-670-0.1
		c-5.1-0.8-10.1-1.8-15.1-3c-5-1.2-9.9-2.6-14.8-4.1c-4.9-1.6-9.7-3.3-14.4-5.3c-4.7-1.9-9.4-4-14-6.3
		C77.7,780.6,69.5,745.4,64,709.6c-5.5-35.7-8.3-71.8-8.4-108c0-36.2,2.7-72.3,8.1-108S77.3,422.6,88.1,388.1"/>
	<path class="st0" d="M150.5,471.9l-5.6-4.6l-28.5-10.2c-2.7-0.8-5.5-1.4-8.4-1.9s-5.7-0.8-8.5-0.9c-2.9-0.1-5.7,0-8.6,0.2
		c-2.9,0.2-5.7,0.7-8.5,1.3c-0.8,0.4-1.6,1-2.3,1.6c-0.7,0.6-1.3,1.4-1.8,2.2c-0.5,0.8-0.9,1.7-1.1,2.6c-0.3,0.9-0.4,1.8-0.4,2.8
		c-4.5,22.4-7.8,45.1-10.1,67.8c-2.2,22.8-3.4,45.6-3.4,68.5c0,22.9,1.1,45.7,3.3,68.5c2.2,22.8,5.5,45.4,10,67.8c0.1,1,0.3,2,0.6,3
		c0.3,1,0.8,1.8,1.5,2.7c0.6,0.8,1.3,1.5,2.2,2.1c0.8,0.6,1.7,1.1,2.7,1.4c2.8,0.5,5.7,0.9,8.6,1.1c2.9,0.2,5.8,0.2,8.6,0.1
		c2.9-0.2,5.7-0.5,8.6-1c2.8-0.5,5.6-1.1,8.4-2L145,735l5.3-4.2"/>
	<path class="st1" d="M150.5,471.9l-5.6-4.6l-28.5-10.2c-2.7-0.8-5.5-1.4-8.4-1.9s-5.7-0.8-8.5-0.9c-2.9-0.1-5.7,0-8.6,0.2
		c-2.9,0.2-5.7,0.7-8.5,1.3c-0.8,0.4-1.6,1-2.3,1.6c-0.7,0.6-1.3,1.4-1.8,2.2c-0.5,0.8-0.9,1.7-1.1,2.6c-0.3,0.9-0.4,1.8-0.4,2.8
		c-4.5,22.4-7.8,45.1-10.1,67.8c-2.2,22.8-3.4,45.6-3.4,68.5c0,22.9,1.1,45.7,3.3,68.5c2.2,22.8,5.5,45.4,10,67.8c0.1,1,0.3,2,0.6,3
		c0.3,1,0.8,1.8,1.5,2.7c0.6,0.8,1.3,1.5,2.2,2.1c0.8,0.6,1.7,1.1,2.7,1.4c2.8,0.5,5.7,0.9,8.6,1.1c2.9,0.2,5.8,0.2,8.6,0.1
		c2.9-0.2,5.7-0.5,8.6-1c2.8-0.5,5.6-1.1,8.4-2L145,735l5.3-4.2"/>
	<polyline class="st0" points="208,471.9 124.5,471.9 86.5,488.9 82.1,497.7 76.6,601.1 82.5,705.9 87.4,714.1 124.9,730.4 
		208,730.2 208,471.9 	"/>
	<polyline class="st1" points="208,471.9 124.5,471.9 86.5,488.9 82.1,497.7 76.6,601.1 82.5,705.9 87.4,714.1 124.9,730.4 
		208,730.2 208,471.9 	"/>
	<path class="st1" d="M117.7,457.7L117.7,457.7l17.5-65.3c3.5-1,7.1-2,10.7-2.7c3.6-0.8,7.2-1.4,10.9-1.9c3.7-0.5,7.3-0.9,11-1.1
		c3.7-0.2,7.4-0.3,11.1-0.3l555.9,0.8l110.5-0.8c3.7-0.1,7.4,0,11.1,0.3c3.7,0.2,7.4,0.6,11,1.1c3.7,0.5,7.3,1.1,10.9,1.9
		c3.6,0.8,7.2,1.7,10.7,2.7l17.4,65.2l0,0.1"/>
	<path class="st0" d="M126,472.9L126,472.9c9.3,20.1,16.4,41.2,21.1,62.9c4.7,21.7,7,43.8,6.9,66c-0.1,22.2-2.7,44.3-7.7,65.9
		c-5,21.6-12.3,42.6-21.9,62.6l0.2,0.1"/>
	<path class="st1" d="M126,472.9L126,472.9c9.3,20.1,16.4,41.2,21.1,62.9c4.7,21.7,7,43.8,6.9,66c-0.1,22.2-2.7,44.3-7.7,65.9
		c-5,21.6-12.3,42.6-21.9,62.6l0.2,0.1"/>
	<path class="st1" d="M906.3,744.5L906.3,744.5l-17.5,65.3c-3.5,1-7.1,2-10.7,2.7c-3.6,0.8-7.2,1.4-10.9,1.9
		c-3.7,0.5-7.3,0.9-11,1.1c-3.7,0.2-7.4,0.3-11.1,0.3l-24-0.2l-642.4,0.2c-3.7,0.1-7.4,0-11.1-0.3c-3.7-0.2-7.4-0.6-11-1.1
		c-3.7-0.5-7.3-1.1-10.9-1.9c-3.6-0.8-7.2-1.7-10.7-2.7l-17.4-65.2l0-0.1"/>
	<polyline class="st0" points="381.7,10.8 205.4,426.9 210.6,849.4 353.9,1013.8 672.9,1013.2 813.4,849.1 818.6,426.6 646.1,10.2 
		381.7,10.8 	"/>
	<polygon class="st1" points="381.7,10.8 205.4,426.9 210.6,849.4 353.9,1013.8 672.9,1013.2 813.4,849.1 818.6,426.6 646.1,10.2 
		381.7,10.8 	"/>
	<path class="st0" d="M873.5,471.9l5.6-4.6l28.5-10.2c2.7-0.8,5.5-1.4,8.4-1.9c2.8-0.5,5.7-0.8,8.5-0.9c2.9-0.1,5.7,0,8.6,0.2
		c2.9,0.2,5.7,0.7,8.5,1.3c0.8,0.4,1.6,1,2.3,1.6c0.7,0.6,1.3,1.4,1.8,2.2c0.5,0.8,0.9,1.7,1.1,2.6c0.3,0.9,0.4,1.8,0.4,2.8
		c4.5,22.4,7.8,45.1,10.1,67.8c2.2,22.8,3.4,45.6,3.4,68.5c0,22.9-1.1,45.7-3.3,68.5c-2.2,22.8-5.5,45.4-10,67.8c-0.1,1-0.3,2-0.6,3
		c-0.3,1-0.8,1.8-1.4,2.7c-0.6,0.8-1.3,1.5-2.2,2.1c-0.8,0.6-1.7,1.1-2.7,1.4c-2.8,0.5-5.7,0.9-8.6,1.1c-2.9,0.2-5.8,0.2-8.6,0.1
		c-2.9-0.2-5.7-0.5-8.6-1c-2.8-0.5-5.6-1.1-8.4-2L879,735l-5.3-4.2"/>
	<path class="st1" d="M873.5,471.9l5.6-4.6l28.5-10.2c2.7-0.8,5.5-1.4,8.4-1.9c2.8-0.5,5.7-0.8,8.5-0.9c2.9-0.1,5.7,0,8.6,0.2
		c2.9,0.2,5.7,0.7,8.5,1.3c0.8,0.4,1.6,1,2.3,1.6c0.7,0.6,1.3,1.4,1.8,2.2c0.5,0.8,0.9,1.7,1.1,2.6c0.3,0.9,0.4,1.8,0.4,2.8
		c4.5,22.4,7.8,45.1,10.1,67.8c2.2,22.8,3.4,45.6,3.4,68.5c0,22.9-1.1,45.7-3.3,68.5c-2.2,22.8-5.5,45.4-10,67.8c-0.1,1-0.3,2-0.6,3
		c-0.3,1-0.8,1.8-1.4,2.7c-0.6,0.8-1.3,1.5-2.2,2.1c-0.8,0.6-1.7,1.1-2.7,1.4c-2.8,0.5-5.7,0.9-8.6,1.1c-2.9,0.2-5.8,0.2-8.6,0.1
		c-2.9-0.2-5.7-0.5-8.6-1c-2.8-0.5-5.6-1.1-8.4-2L879,735l-5.3-4.2"/>
	<polyline class="st0" points="816,471.9 899.5,471.9 937.5,488.9 941.9,497.7 947.4,601.1 941.5,705.9 936.6,714.1 899.1,730.4 
		816,730.2 816,471.9 	"/>
	<polyline class="st1" points="816,471.9 899.5,471.9 937.5,488.9 941.9,497.7 947.4,601.1 941.5,705.9 936.6,714.1 899.1,730.4 
		816,730.2 816,471.9 	"/>
	<path class="st0" d="M898.1,472.9L898.1,472.9c-9.3,20.1-16.4,41.2-21.1,62.9c-4.7,21.7-7,43.8-6.9,66c0.1,22.2,2.7,44.3,7.7,65.9
		c5,21.6,12.3,42.6,21.9,62.6l-0.2,0.1"/>
	<path class="st1" d="M898.1,472.9L898.1,472.9c-9.3,20.1-16.4,41.2-21.1,62.9c-4.7,21.7-7,43.8-6.9,66c0.1,22.2,2.7,44.3,7.7,65.9
		c5,21.6,12.3,42.6,21.9,62.6l-0.2,0.1 M272.5,426.9L412.7,83 M279.7,343.7l78.9-202.8 M353.9,930.4h318.9 M755,426.9L614.9,83
		 M747.8,343.7l-78.9-202.8"/>
	<rect x="281.7" y="520" class="st2" width="464.2" height="249.5"/>
	<path class="st3" d="M299.1,627.6V586l14.2,41.7h5.8l14.2-41v41h6.2v-48.9h-8.7l-11.7,34c-1.2,3.4-2,6.1-2.6,7.8
		c-0.5-1.6-1.3-4-2.3-7.2l-11.6-34.6h-9.7v48.9H299.1L299.1,627.6z M351.5,627.6l5.4-14.8h20.5l5.7,14.8h7.4l-20-48.9h-7l-18.8,48.9
		H351.5L351.5,627.6z M364.1,593.2c1.1-3.1,2-6.2,2.6-9.3c0.8,2.6,1.9,6,3.5,10.1l5.1,13.6h-16.6L364.1,593.2L364.1,593.2z
		 M425.4,619.8c-2.5,2.1-5.6,3.1-9.2,3.1c-3,0-5.8-0.8-8.3-2.3c-2.6-1.5-4.4-3.9-5.7-7c-1.2-3.1-1.8-6.7-1.8-10.9
		c0-3.2,0.5-6.4,1.5-9.4c1-3,2.8-5.5,5.3-7.3c2.5-1.8,5.7-2.7,9.4-2.7c3.3,0,6,0.8,8.1,2.4c2.2,1.6,3.8,4.2,4.9,7.8l6.4-1.5
		c-1.3-4.5-3.6-8-7-10.5c-3.3-2.5-7.5-3.7-12.3-3.7c-4.3,0-8.3,1-11.9,3c-3.6,2-6.4,4.9-8.3,8.6c-1.9,3.8-2.9,8.2-2.9,13.3
		c0,4.7,0.9,9,2.6,13.1c1.7,4.1,4.2,7.2,7.5,9.3c3.3,2.1,7.6,3.2,12.9,3.2c5.1,0,9.4-1.4,12.9-4.2c3.5-2.8,6-6.8,7.3-12.2l-6.5-1.6
		C429.6,614.6,427.9,617.7,425.4,619.8L425.4,619.8z M439.7,627.6L439.7,627.6L439.7,627.6z M506.5,614c1.2-3.2,1.8-6.8,1.8-10.9
		c0-4.9-1-9.2-2.9-13.1c-1.9-3.9-4.7-6.9-8.3-9c-3.6-2.1-7.7-3.2-12.2-3.2c-4.5,0-8.5,1-12.1,3.1c-3.6,2.1-6.4,5.1-8.4,9
		c-2,4-2.9,8.4-2.9,13.2c0,4.9,1,9.2,2.9,13.1c1.9,3.9,4.7,6.9,8.3,9c3.6,2.1,7.6,3.2,12,3.2c4.4,0,8.4-1,12-3c3.5,2.7,7,4.7,10.5,6
		l1.9-4.5c-2.5-1-5.3-2.5-8.3-4.5C503.5,620,505.3,617.2,506.5,614L506.5,614z M485.2,618.8c2.2,0.6,4.4,1.5,6.4,2.8
		c-2,0.9-4.2,1.3-6.5,1.3c-4.9,0-8.9-1.7-12.1-5.1c-3.1-3.4-4.7-8.3-4.7-14.7c0-6.6,1.6-11.5,4.8-14.8c3.2-3.3,7.2-5,12-5
		c3.2,0,6.1,0.8,8.7,2.5c2.6,1.6,4.6,3.9,5.9,6.9c1.3,3,2,6.4,2,10.4c0,7-1.9,12.2-5.7,15.7c-2.4-2.1-5.5-3.6-9.2-4.7L485.2,618.8
		L485.2,618.8z M544.9,627.6v-35.4h-6v19c0,3-0.3,5.3-1,6.9c-0.7,1.6-1.8,2.8-3.4,3.8c-1.6,0.9-3.3,1.4-5.1,1.4s-3.3-0.5-4.5-1.4
		c-1.2-0.9-2-2.1-2.4-3.7c-0.2-1.1-0.4-3.2-0.4-6.3v-19.7h-6v22c0,2.6,0.1,4.4,0.4,5.6c0.4,1.8,1,3.2,1.9,4.5c0.9,1.2,2.2,2.2,4,3
		c1.8,0.8,3.8,1.2,5.9,1.2c4.7,0,8.5-2,11.2-6v5.2H544.9L544.9,627.6z M578.7,627.6h6.3c-0.8-1.4-1.3-2.8-1.5-4.3
		c-0.3-1.5-0.4-5-0.4-10.6v-8c0-2.7-0.1-4.5-0.3-5.5c-0.4-1.6-1-3-1.9-4.1c-0.9-1.1-2.3-2-4.2-2.7c-1.9-0.7-4.4-1.1-7.4-1.1
		c-3,0-5.7,0.4-8,1.3c-2.3,0.8-4.1,2-5.3,3.6c-1.2,1.5-2.1,3.6-2.6,6.1l5.9,0.8c0.6-2.5,1.6-4.3,3-5.3c1.3-1,3.4-1.5,6.3-1.5
		c3,0,5.3,0.7,6.8,2c1.1,1,1.7,2.7,1.7,5.2c0,0.2,0,0.7,0,1.6c-2.3,0.8-5.9,1.5-10.7,2.1c-2.4,0.3-4.2,0.6-5.3,0.9
		c-1.6,0.4-3,1.1-4.3,2c-1.3,0.9-2.3,2-3.1,3.5c-0.8,1.4-1.2,3-1.2,4.8c0,3,1,5.4,3.1,7.3c2.1,1.9,5.1,2.9,9,2.9
		c2.4,0,4.6-0.4,6.6-1.2c2.1-0.8,4.2-2.1,6.4-4C577.6,624.9,578,626.4,578.7,627.6L578.7,627.6L578.7,627.6z M577,612
		c0,2.6-0.3,4.7-1,6c-0.8,1.8-2.2,3.1-4,4.2c-1.8,1-3.9,1.5-6.2,1.5c-2.3,0-4.1-0.5-5.3-1.6c-1.2-1.1-1.8-2.4-1.8-4
		c0-1,0.3-2,0.8-2.9c0.6-0.9,1.3-1.5,2.4-2c1-0.4,2.8-0.8,5.2-1.2c4.4-0.6,7.6-1.4,9.8-2.3V612L577,612z M598.4,627.6v-19.4
		c0-4.5,0.9-7.6,2.8-9.2c1.9-1.6,4.1-2.4,6.6-2.4c1.6,0,3,0.4,4.2,1.1c1.2,0.7,2,1.7,2.5,2.9c0.5,1.2,0.7,3,0.7,5.5v21.6h6v-21.8
		c0-2.8-0.1-4.7-0.3-5.8c-0.4-1.7-1-3.2-1.9-4.4c-0.9-1.2-2.2-2.3-4-3c-1.8-0.8-3.8-1.2-5.9-1.2c-4.9,0-8.7,1.9-11.3,5.8v-5h-5.4
		v35.4H598.4L598.4,627.6z M640.8,622.5c-0.9,0-1.6-0.1-2.1-0.4c-0.5-0.3-0.8-0.7-1-1.2c-0.2-0.5-0.3-1.6-0.3-3.3v-20.7h6v-4.7h-6
		v-12.4l-6,3.6v8.8h-4.4v4.7h4.4v20.4c0,3.6,0.2,6,0.7,7.1c0.5,1.1,1.3,2,2.5,2.7c1.2,0.7,2.9,1,5.1,1c1.3,0,2.8-0.2,4.5-0.5
		l-0.9-5.3C642.4,622.4,641.5,622.5,640.8,622.5L640.8,622.5L640.8,622.5z M678,627.6v-35.4h-6v19c0,3-0.3,5.3-1,6.9
		c-0.7,1.6-1.8,2.8-3.4,3.8c-1.6,0.9-3.3,1.4-5.1,1.4c-1.8,0-3.3-0.5-4.5-1.4c-1.2-0.9-2-2.1-2.4-3.7c-0.2-1.1-0.4-3.2-0.4-6.3
		v-19.7h-6v22c0,2.6,0.1,4.4,0.4,5.6c0.4,1.8,1,3.2,1.9,4.5c0.9,1.2,2.2,2.2,4,3c1.8,0.8,3.8,1.2,5.9,1.2c4.7,0,8.5-2,11.2-6v5.2
		H678L678,627.6z M693.4,627.6v-18.4c0-3.2,0.3-5.7,1-7.4c0.6-1.7,1.7-3,3.1-3.9c1.4-0.9,3-1.3,4.7-1.3c2.2,0,3.8,0.7,4.8,2
		c1,1.3,1.5,3.3,1.5,6v23h6V607c0-3.6,0.8-6.3,2.5-8c1.6-1.7,3.7-2.5,6.2-2.5c1.4,0,2.6,0.3,3.6,1c1,0.6,1.7,1.5,2.1,2.6
		c0.4,1.1,0.6,2.8,0.6,5.2v22.3h6v-24.3c0-4-0.9-7-2.8-9c-1.9-1.9-4.6-2.9-8.1-2.9c-4.5,0-8.1,2.1-10.9,6.2c-0.7-2-1.9-3.5-3.6-4.6
		c-1.7-1.1-3.8-1.6-6.5-1.6c-2.4,0-4.5,0.5-6.3,1.6c-1.8,1.1-3.3,2.5-4.4,4.2v-5h-5.4v35.4H693.4L693.4,627.6z"/>
	<path class="st3" d="M379.3,706.2v-19.9h12.5c6.9,0,11.7-1.4,14.4-4.3c2.6-2.9,4-6.4,4-10.6c0-2.4-0.5-4.7-1.5-6.7
		c-1-2-2.3-3.6-3.9-4.7c-1.6-1.1-3.6-1.9-6-2.3c-1.7-0.3-4.2-0.5-7.4-0.5h-18.5v48.9H379.3L379.3,706.2z M379.3,663.1h12.5
		c2.9,0,5,0.1,6,0.4c1.7,0.5,3.1,1.4,4.1,2.9c1,1.5,1.6,3.2,1.6,5.3c0,2.8-0.9,5-2.6,6.6c-1.8,1.6-4.7,2.3-8.9,2.3h-12.6V663.1
		L379.3,663.1z M425,706.2v-21.7h7.5c1.7,0,2.9,0.1,3.6,0.2c1,0.2,2,0.7,3,1.3c1,0.6,2.1,1.7,3.3,3.3c1.2,1.6,2.8,3.8,4.7,6.7
		l6.5,10.2h8.1l-8.5-13.3c-1.7-2.6-3.5-4.8-5.4-6.5c-0.9-0.8-2.2-1.6-3.9-2.4c4.7-0.6,8.2-2.2,10.4-4.5c2.2-2.4,3.4-5.3,3.4-8.8
		c0-2.7-0.7-5.2-2-7.4c-1.4-2.2-3.2-3.8-5.4-4.7c-2.3-0.9-5.6-1.3-9.9-1.3h-21.7v48.9H425L425,706.2z M425,662.7h15.5
		c3.6,0,6.3,0.7,8,2.2c1.7,1.5,2.5,3.4,2.5,5.7c0,1.6-0.4,3-1.3,4.4c-0.9,1.3-2.1,2.3-3.8,2.9c-1.7,0.6-4,0.9-6.9,0.9H425V662.7
		L425,662.7z M468.6,694.6c1.9,3.8,4.6,6.9,8.2,9.1c3.6,2.2,7.7,3.3,12.3,3.3c4.2,0,8.2-1,11.9-3c3.7-2,6.5-5,8.5-8.9
		c2-3.9,3-8.4,3-13.3c0-4.9-1-9.3-2.9-13.1c-1.9-3.9-4.7-6.9-8.3-9c-3.6-2.2-7.7-3.2-12.2-3.2c-6.9,0-12.5,2.3-16.9,6.9
		c-4.4,4.6-6.5,11-6.5,19.1C465.8,686.7,466.8,690.7,468.6,694.6L468.6,694.6z M477.5,666.7c3.3-3.1,7.2-4.7,11.8-4.7
		c3.2,0,6.1,0.8,8.7,2.5c2.6,1.6,4.6,3.9,5.9,6.9c1.3,3,2,6.4,2,10.4c0,6.3-1.6,11.2-4.7,14.6c-3.1,3.4-7.2,5.1-12,5.1
		c-4.8,0-8.8-1.7-11.9-5.1c-3.2-3.4-4.8-8-4.8-13.9C472.5,675.1,474.2,669.9,477.5,666.7L477.5,666.7z M527.8,706.2V684h23v-5.8h-23
		v-15.2h26.5v-5.8h-33v48.9H527.8L527.8,706.2z M570.3,706.2v-48.9h-6.5v48.9H570.3L570.3,706.2z M612,706.2v-5.8h-24.1v-43.2h-6.5
		v48.9H612L612,706.2z M656.4,706.2v-5.8h-30v-16.7h27.1V678h-27.1v-15h28.9v-5.8h-35.4v48.9H656.4L656.4,706.2z"/>
</g>
</svg>
