<?xml version="1.0" encoding="UTF-8"?>
<svg id="EXT_Dot-x_Pro_-_Thumbnail" xmlns="http://www.w3.org/2000/svg" viewBox="0 0 1024 1024">
  <defs>
    <style>
      .cls-1 {
        fill: none;
        stroke-linecap: round;
        stroke-linejoin: round;
      }

      .cls-1, .cls-2, .cls-3 {
        stroke: #1d1d1b;
      }

      .cls-2 {
        fill: #ccc;
        fill-rule: evenodd;
      }

      .cls-2, .cls-3 {
        stroke-miterlimit: 10;
      }

      .cls-3 {
        fill: #fff;
      }
    </style>
  </defs>
  <g id="Exterior_Dot-4_Pro">
    <path class="cls-2" d="M6.03,272.27v476.9c0,14.18,11.64,25.83,25.83,25.83h960.79c14.12,0,25.76-11.65,25.76-25.83v-476.9c0-14.11-11.64-25.76-25.76-25.76H31.86c-14.19,0-25.83,11.65-25.83,25.76"/>
    <rect class="cls-1" x="129.93" y="264.79" width="764.61" height="490.08"/>
    <path class="cls-1" d="M679.73,510.77c0-91.89-75.66-167.48-167.48-167.48s-167.47,75.59-167.47,167.48,75.58,167.4,167.47,167.4,167.48-75.58,167.48-167.4"/>
    <rect class="cls-3" x="237.24" y="459.17" width="549.95" height="103.12"/>
    <path d="M338.6,530.47v-6.14h-31.97v-17.73h28.81v-6.11h-28.81v-15.95h30.76v-6.14h-37.65v52.07h38.86ZM342.71,530.47l9.91-14.88,2.06,3.16,7.74,11.72h7.85l-14.03-19.96,13.04-17.76h-7.64l-6.35,8.92c-.88,1.21-1.84,2.59-2.88,4.16-.67-1.14-1.54-2.55-2.63-4.23l-5.79-8.85h-7.99l12.76,18.12-13.78,19.61h7.74ZM380.65,525.01c-.95,0-1.67-.15-2.18-.46-.51-.31-.88-.72-1.11-1.24-.22-.52-.34-1.69-.34-3.52v-22.06h6.43v-4.98h-6.43v-13.18l-6.36,3.83v9.34h-4.69v4.98h4.69v21.7c0,3.83.26,6.36.78,7.55.52,1.2,1.42,2.16,2.7,2.9,1.28.73,3.08,1.1,5.4,1.1,1.42,0,3.03-.19,4.83-.56l-.92-5.65c-1.16.17-2.1.25-2.81.25h0ZM408.24,524.22c-1.66,1.23-3.66,1.85-6,1.85-3.15,0-5.78-1.1-7.89-3.3-2.1-2.2-3.28-5.37-3.52-9.52h28.14c.02-.76.03-1.33.03-1.71,0-6.23-1.6-11.06-4.8-14.49-3.2-3.44-7.32-5.15-12.36-5.15s-9.45,1.75-12.72,5.26c-3.27,3.5-4.9,8.43-4.9,14.78s1.61,10.9,4.85,14.3c3.23,3.4,7.61,5.09,13.13,5.09,4.38,0,7.98-1.06,10.8-3.19,2.82-2.13,4.75-5.13,5.79-8.99l-6.61-.82c-.97,2.7-2.29,4.67-3.95,5.9h0ZM394.52,500.1c2-1.97,4.47-2.95,7.41-2.95,3.25,0,5.88,1.23,7.92,3.69,1.32,1.59,2.13,3.97,2.41,7.14h-21.06c.21-3.29,1.32-5.92,3.32-7.89h0ZM426.38,530.47v-19.75c0-2.7.36-5.19,1.07-7.46.47-1.49,1.27-2.66,2.38-3.5,1.11-.84,2.37-1.26,3.77-1.26,1.56,0,3.13.46,4.69,1.39l2.2-5.93c-2.22-1.37-4.42-2.06-6.57-2.06-1.49,0-2.86.43-4.11,1.28-1.24.86-2.59,2.62-4.07,5.3v-5.72h-5.75v37.73h6.39ZM446.71,485.75v-7.35h-6.39v7.35h6.39ZM446.71,530.47v-37.73h-6.39v37.73h6.39ZM456.25,526.25c3.26,3.39,7.53,5.07,12.8,5.07,3.29,0,6.33-.77,9.11-2.3,2.78-1.54,4.9-3.7,6.36-6.49,1.46-2.78,2.18-6.6,2.18-11.46,0-5.99-1.65-10.69-4.94-14.08-3.29-3.4-7.53-5.1-12.72-5.1-4.66,0-8.62,1.4-11.86,4.19-3.88,3.36-5.82,8.54-5.82,15.52,0,6.37,1.63,11.25,4.88,14.64h0ZM461.1,500.78c2.11-2.39,4.76-3.59,7.96-3.59s5.79,1.2,7.91,3.61,3.18,5.94,3.18,10.6c0,4.95-1.05,8.64-3.16,11.05s-4.75,3.62-7.92,3.62-5.85-1.2-7.96-3.6c-2.11-2.41-3.16-6.02-3.16-10.86s1.05-8.44,3.16-10.83h0ZM493.76,530.47v-19.75c0-2.7.36-5.19,1.07-7.46.47-1.49,1.27-2.66,2.38-3.5,1.11-.84,2.37-1.26,3.77-1.26,1.56,0,3.13.46,4.69,1.39l2.2-5.93c-2.22-1.37-4.42-2.06-6.57-2.06-1.49,0-2.86.43-4.11,1.28-1.24.86-2.59,2.62-4.07,5.3v-5.72h-5.75v37.73h6.39ZM544.06,530.47c3.15,0,5.93-.29,8.36-.89,2.43-.59,4.5-1.46,6.22-2.61,1.72-1.15,3.3-2.72,4.75-4.72,1.44-2,2.63-4.53,3.55-7.59.92-3.06,1.38-6.56,1.38-10.51,0-4.64-.68-8.77-2.04-12.38-1.36-3.61-3.42-6.58-6.17-8.9-2.11-1.8-4.65-3.04-7.64-3.73-2.13-.5-5.22-.74-9.27-.74h-17.94v52.07h18.79ZM532.16,484.54h10.94c4.1,0,7.07.36,8.92,1.07,2.56.99,4.73,2.95,6.52,5.88,1.79,2.92,2.68,7.11,2.68,12.56,0,3.93-.46,7.28-1.37,10.03-.91,2.76-2.18,4.96-3.82,6.59-1.16,1.16-2.72,2.06-4.67,2.7-1.95.64-4.65.96-8.08.96h-11.12v-39.79h0ZM570.77,526.25c3.26,3.39,7.53,5.07,12.8,5.07,3.29,0,6.33-.77,9.11-2.3,2.78-1.54,4.9-3.7,6.36-6.49,1.46-2.78,2.18-6.6,2.18-11.46,0-5.99-1.65-10.69-4.94-14.08-3.29-3.4-7.53-5.1-12.72-5.1-4.66,0-8.62,1.4-11.86,4.19-3.88,3.36-5.82,8.54-5.82,15.52,0,6.37,1.63,11.25,4.88,14.64h0ZM575.62,500.78c2.11-2.39,4.76-3.59,7.96-3.59s5.79,1.2,7.91,3.61,3.18,5.94,3.18,10.6c0,4.95-1.05,8.64-3.16,11.05-2.11,2.41-4.75,3.62-7.92,3.62s-5.85-1.2-7.96-3.6c-2.11-2.41-3.16-6.02-3.16-10.86s1.05-8.44,3.16-10.83h0ZM613.19,525.01c-.95,0-1.67-.15-2.18-.46-.51-.31-.88-.72-1.11-1.24-.22-.52-.34-1.69-.34-3.52v-22.06h6.43v-4.98h-6.43v-13.18l-6.36,3.83v9.34h-4.69v4.98h4.69v21.7c0,3.83.26,6.36.78,7.55.52,1.2,1.42,2.16,2.7,2.9,1.28.73,3.08,1.1,5.4,1.1,1.42,0,3.03-.19,4.83-.56l-.92-5.65c-1.16.17-2.1.25-2.81.25h0ZM635.98,514.84v-6.43h-19.64v6.43h19.64ZM664.16,530.47v-12.47h7.04v-5.86h-7.04v-33.75h-5.22l-23.77,33.75v5.86h22.6v12.47h6.39ZM641.46,512.15l16.31-23.48v23.48h-16.31ZM697.31,530.47v-21.17h13.36c7.36,0,12.46-1.53,15.27-4.6s4.23-6.82,4.23-11.24c0-2.58-.53-4.95-1.58-7.1-1.05-2.16-2.45-3.83-4.17-5.03-1.73-1.19-3.87-2.01-6.43-2.43-1.83-.33-4.47-.49-7.92-.49h-19.64v52.07h6.89ZM697.31,484.54h13.32c3.13,0,5.27.16,6.43.46,1.8.5,3.25,1.52,4.35,3.07,1.1,1.55,1.65,3.42,1.65,5.6,0,3.01-.93,5.34-2.81,7-1.87,1.66-5.03,2.49-9.48,2.49h-13.47v-18.62h0ZM736.39,530.47v-19.75c0-2.7.36-5.19,1.07-7.46.47-1.49,1.27-2.66,2.38-3.5,1.11-.84,2.37-1.26,3.77-1.26,1.56,0,3.13.46,4.69,1.39l2.2-5.93c-2.22-1.37-4.42-2.06-6.57-2.06-1.49,0-2.86.43-4.11,1.28-1.24.86-2.59,2.62-4.07,5.3v-5.72h-5.75v37.73h6.39ZM752.72,526.25c3.26,3.39,7.53,5.07,12.8,5.07,3.29,0,6.33-.77,9.11-2.3,2.78-1.54,4.9-3.7,6.36-6.49,1.46-2.78,2.18-6.6,2.18-11.46,0-5.99-1.65-10.69-4.94-14.08-3.29-3.4-7.53-5.1-12.72-5.1-4.66,0-8.62,1.4-11.86,4.19-3.88,3.36-5.82,8.54-5.82,15.52,0,6.37,1.63,11.25,4.88,14.64h0ZM757.57,500.78c2.11-2.39,4.76-3.59,7.96-3.59s5.79,1.2,7.91,3.61,3.18,5.94,3.18,10.6c0,4.95-1.05,8.64-3.16,11.05-2.11,2.41-4.75,3.62-7.92,3.62s-5.85-1.2-7.96-3.6c-2.11-2.41-3.16-6.02-3.16-10.86s1.05-8.44,3.16-10.83h0Z"/>
  </g>
</svg>