<?xml version="1.0" encoding="utf-8"?>
<!-- Generator: Adobe Illustrator 25.0.1, SVG Export Plug-In . SVG Version: 6.00 Build 0)  -->
<svg version="1.1" id="Layer_1" xmlns="http://www.w3.org/2000/svg" xmlns:xlink="http://www.w3.org/1999/xlink" x="0px" y="0px"
	 viewBox="0 0 1024 1024" style="enable-background:new 0 0 1024 1024;" xml:space="preserve">
<style type="text/css">
	.st0{fill-rule:evenodd;clip-rule:evenodd;fill:#CCCCCC;stroke:#1D1D1B;stroke-miterlimit:10;}
	.st1{fill:none;stroke:#1D1D1B;stroke-linecap:round;stroke-linejoin:round;stroke-miterlimit:10;}
	.st2{fill-rule:evenodd;clip-rule:evenodd;fill:#FFFFFF;stroke:#1D1D1B;stroke-miterlimit:10;}
	.st3{stroke:#1D1D1B;stroke-miterlimit:10;}
</style>
<g id="MAC_Ultra_Wash_-_Thumbnail">
	<g>
		<path class="st0" d="M872,603.1l-2.9,59.2c-0.3,14.1-0.8,28.2-1.7,42.3s-2.1,28.2-3.6,42.2s-3.3,28-5.4,42
			c-2.1,14-4.6,27.9-7.3,41.7c-4.1,1.6-8.3,3-12.5,4.2s-8.5,2.3-12.8,3.1c-4.3,0.9-8.7,1.5-13,2c-4.4,0.5-8.8,0.8-13.2,0.9
			l-14.8-0.4L512,838.6l-272.8,1.7l-14.8,0.4c-4.4-0.1-8.8-0.4-13.2-0.9s-8.7-1.2-13-2c-4.3-0.9-8.6-1.9-12.8-3.1
			c-4.2-1.2-8.4-2.6-12.5-4.2c-2.7-13.8-5.2-27.8-7.3-41.7c-2.1-14-3.9-28-5.4-42s-2.7-28.1-3.6-42.2c-0.9-14.1-1.4-28.2-1.7-42.3
			l-2.9-59.2l2.9-59.2c0.3-14.1,0.8-28.2,1.7-42.3c0.9-14.1,2.1-28.2,3.6-42.2s3.3-28,5.4-42c2.1-14,4.6-27.9,7.3-41.7
			c4.1-1.6,8.3-3,12.5-4.2s8.5-2.3,12.8-3.1c4.3-0.9,8.7-1.5,13-2c4.4-0.5,8.8-0.8,13.2-0.9l14.8,0.4l272.8,1.7l272.8-1.7l14.8-0.4
			c4.4,0.1,8.8,0.4,13.2,0.9s8.7,1.2,13,2c4.3,0.9,8.6,1.9,12.8,3.1s8.4,2.6,12.5,4.2c2.7,13.8,5.2,27.8,7.3,41.7
			c2.1,14,3.9,28,5.4,42s2.7,28.1,3.6,42.2c0.9,14.1,1.4,28.2,1.7,42.3L872,603.1 M181.2,603.1l3.5,91.4c0.2,2.1,0.6,4.2,1.2,6.2
			c0.6,2,1.5,3.9,2.5,5.7c1.1,1.8,2.3,3.5,3.8,5c1.4,1.5,3,2.9,4.8,4.1c1.7,1.2,3.6,2.1,5.6,2.9c2,0.7,4,1.3,6.1,1.5
			c2.1,0.3,4.2,0.3,6.3,0.1s4.2-0.6,6.1-1.3l9.4-18.6V603v-97.1l-9.4-18.6c-2-0.7-4.1-1.1-6.1-1.3c-2.1-0.2-4.2-0.1-6.3,0.1
			c-2.1,0.3-4.1,0.8-6.1,1.5s-3.8,1.7-5.6,2.9c-1.7,1.2-3.4,2.5-4.8,4.1c-1.4,1.5-2.7,3.2-3.8,5s-1.9,3.7-2.5,5.7s-1,4.1-1.2,6.2
			L181.2,603.1 M793.6,700.2l9.4,18.6c2,0.7,4.1,1.1,6.1,1.3c2.1,0.2,4.2,0.1,6.3-0.1c2.1-0.3,4.1-0.8,6.1-1.5s3.8-1.7,5.6-2.9
			c1.7-1.2,3.4-2.5,4.8-4.1c1.4-1.5,2.7-3.2,3.8-5s1.9-3.7,2.5-5.7s1-4.1,1.2-6.2l3.5-91.4l-3.5-91.4c-0.2-2.1-0.5-4.2-1.2-6.2
			c-0.6-2-1.5-3.9-2.5-5.7c-1.1-1.8-2.3-3.5-3.8-5c-1.4-1.5-3-2.9-4.8-4.1c-1.7-1.2-3.6-2.1-5.6-2.9c-2-0.7-4-1.3-6.1-1.5
			c-2.1-0.3-4.2-0.3-6.3-0.1c-2.1,0.2-4.2,0.6-6.1,1.3l-9.4,18.6v97.1V700.2"/>
		<path class="st1" d="M872,603.1l-2.9,59.2c-0.3,14.1-0.8,28.2-1.7,42.3s-2.1,28.2-3.6,42.2s-3.3,28-5.4,42
			c-2.1,14-4.6,27.9-7.3,41.7c-4.1,1.6-8.3,3-12.5,4.2s-8.5,2.3-12.8,3.1c-4.3,0.9-8.7,1.5-13,2c-4.4,0.5-8.8,0.8-13.2,0.9
			l-14.8-0.4L512,838.6l-272.8,1.7l-14.8,0.4c-4.4-0.1-8.8-0.4-13.2-0.9s-8.7-1.2-13-2c-4.3-0.9-8.6-1.9-12.8-3.1
			c-4.2-1.2-8.4-2.6-12.5-4.2c-2.7-13.8-5.2-27.8-7.3-41.7c-2.1-14-3.9-28-5.4-42s-2.7-28.1-3.6-42.2c-0.9-14.1-1.4-28.2-1.7-42.3
			l-2.9-59.2l2.9-59.2c0.3-14.1,0.8-28.2,1.7-42.3c0.9-14.1,2.1-28.2,3.6-42.2s3.3-28,5.4-42c2.1-14,4.6-27.9,7.3-41.7
			c4.1-1.6,8.3-3,12.5-4.2s8.5-2.3,12.8-3.1c4.3-0.9,8.7-1.5,13-2c4.4-0.5,8.8-0.8,13.2-0.9l14.8,0.4l272.8,1.7l272.8-1.7l14.8-0.4
			c4.4,0.1,8.8,0.4,13.2,0.9s8.7,1.2,13,2c4.3,0.9,8.6,1.9,12.8,3.1s8.4,2.6,12.5,4.2c2.7,13.8,5.2,27.8,7.3,41.7
			c2.1,14,3.9,28,5.4,42s2.7,28.1,3.6,42.2c0.9,14.1,1.4,28.2,1.7,42.3L872,603.1 M181.2,603.1l3.5,91.4c0.2,2.1,0.6,4.2,1.2,6.2
			c0.6,2,1.5,3.9,2.5,5.7c1.1,1.8,2.3,3.5,3.8,5c1.4,1.5,3,2.9,4.8,4.1c1.7,1.2,3.6,2.1,5.6,2.9c2,0.7,4,1.3,6.1,1.5
			c2.1,0.3,4.2,0.3,6.3,0.1s4.2-0.6,6.1-1.3l9.4-18.6V603v-97.1l-9.4-18.6c-2-0.7-4.1-1.1-6.1-1.3c-2.1-0.2-4.2-0.1-6.3,0.1
			c-2.1,0.3-4.1,0.8-6.1,1.5s-3.8,1.7-5.6,2.9c-1.7,1.2-3.4,2.5-4.8,4.1c-1.4,1.5-2.7,3.2-3.8,5s-1.9,3.7-2.5,5.7s-1,4.1-1.2,6.2
			L181.2,603.1 M793.6,700.2l9.4,18.6c2,0.7,4.1,1.1,6.1,1.3c2.1,0.2,4.2,0.1,6.3-0.1c2.1-0.3,4.1-0.8,6.1-1.5s3.8-1.7,5.6-2.9
			c1.7-1.2,3.4-2.5,4.8-4.1c1.4-1.5,2.7-3.2,3.8-5s1.9-3.7,2.5-5.7s1-4.1,1.2-6.2l3.5-91.4l-3.5-91.4c-0.2-2.1-0.5-4.2-1.2-6.2
			c-0.6-2-1.5-3.9-2.5-5.7c-1.1-1.8-2.3-3.5-3.8-5c-1.4-1.5-3-2.9-4.8-4.1c-1.7-1.2-3.6-2.1-5.6-2.9c-2-0.7-4-1.3-6.1-1.5
			c-2.1-0.3-4.2-0.3-6.3-0.1c-2.1,0.2-4.2,0.6-6.1,1.3l-9.4,18.6v97.1V700.2"/>
		<polyline class="st0" points="912.1,603.1 512,603.1 912.1,603.1 897.5,692.3 886.5,701.4 794.3,727.5 229.7,727.5 137.5,701.4 
			126.5,692.3 111.9,603.1 512,603.1 111.9,603.1 126.5,513.9 137.5,504.8 229.7,478.7 794.3,478.7 886.5,504.8 897.5,513.9 
			912.1,603.1 		"/>
		<polygon class="st1" points="912.1,603.1 512,603.1 912.1,603.1 897.5,692.3 886.5,701.4 794.3,727.5 229.7,727.5 137.5,701.4 
			126.5,692.3 111.9,603.1 512,603.1 111.9,603.1 126.5,513.9 137.5,504.8 229.7,478.7 794.3,478.7 886.5,504.8 897.5,513.9 		"/>
		<path class="st0" d="M140,505.4L140,505.4c5.3,6.9,9.8,14.2,13.5,22c3.7,7.8,6.6,15.9,8.7,24.3c2,8.4,3.2,17,3.4,25.6
			c0.3,8.6-0.4,17.3-1.9,25.8H112"/>
		<path class="st1" d="M140,505.4L140,505.4c5.3,6.9,9.8,14.2,13.5,22c3.7,7.8,6.6,15.9,8.7,24.3c2,8.4,3.2,17,3.4,25.6
			c0.3,8.6-0.4,17.3-1.9,25.8H112 M126.2,603.1l35-51.2"/>
		<path class="st0" d="M180.4,505.6v195.7c0,6.3,5.2,11.6,11.6,11.6h8.6c6.3,0,11.6-5.2,11.6-11.6V505.6c0-6.3-5.2-11.6-11.6-11.6
			H192C185.6,494,180.4,499.3,180.4,505.6"/>
		<path class="st1" d="M180.4,505.6v195.7c0,6.3,5.2,11.6,11.6,11.6h8.6c6.3,0,11.6-5.2,11.6-11.6V505.6c0-6.3-5.2-11.6-11.6-11.6
			H192C185.6,494,180.4,499.3,180.4,505.6"/>
		<path class="st0" d="M184.7,560.4v84.7c0,6.3,5.2,11.6,11.6,11.6c6.3,0,11.6-5.2,11.6-11.6v-84.7c0-6.3-5.2-11.6-11.6-11.6
			C189.9,548.9,184.7,554.1,184.7,560.4"/>
		<path class="st1" d="M184.7,560.4v84.7c0,6.3,5.2,11.6,11.6,11.6c6.3,0,11.6-5.2,11.6-11.6v-84.7c0-6.3-5.2-11.6-11.6-11.6
			C189.9,548.9,184.7,554.1,184.7,560.4"/>
		<path class="st0" d="M140,700.8L140,700.8c5.3-6.9,9.8-14.2,13.5-22s6.6-15.9,8.7-24.3c2-8.4,3.2-17,3.4-25.6
			c0.3-8.6-0.4-17.3-1.9-25.8H112"/>
		<path class="st1" d="M140,700.8L140,700.8c5.3-6.9,9.8-14.2,13.5-22s6.6-15.9,8.7-24.3c2-8.4,3.2-17,3.4-25.6
			c0.3-8.6-0.4-17.3-1.9-25.8H112 M126.2,603.1l35,51.2 M229.7,478.7v248.8"/>
		<path class="st0" d="M884,505.4L884,505.4c-5.3,6.9-9.8,14.2-13.5,22c-3.7,7.8-6.6,15.9-8.7,24.3c-2,8.4-3.2,17-3.4,25.6
			c-0.3,8.6,0.4,17.3,1.9,25.8H912"/>
		<path class="st1" d="M884,505.4L884,505.4c-5.3,6.9-9.8,14.2-13.5,22c-3.7,7.8-6.6,15.9-8.7,24.3c-2,8.4-3.2,17-3.4,25.6
			c-0.3,8.6,0.4,17.3,1.9,25.8H912 M897.8,603.1l-35-51.2"/>
		<path class="st0" d="M811.9,505.6v195.7c0,6.3,5.2,11.6,11.6,11.6h8.6c6.3,0,11.6-5.2,11.6-11.6V505.6c0-6.3-5.2-11.6-11.6-11.6
			h-8.6C817.1,494,811.9,499.3,811.9,505.6"/>
		<path class="st1" d="M811.9,505.6v195.7c0,6.3,5.2,11.6,11.6,11.6h8.6c6.3,0,11.6-5.2,11.6-11.6V505.6c0-6.3-5.2-11.6-11.6-11.6
			h-8.6C817.1,494,811.9,499.3,811.9,505.6"/>
		<path class="st0" d="M816.2,560.4v84.7c0,6.3,5.2,11.6,11.6,11.6c6.3,0,11.6-5.2,11.6-11.6v-84.7c0-6.3-5.2-11.6-11.6-11.6
			C821.4,548.9,816.2,554.1,816.2,560.4"/>
		<path class="st1" d="M816.2,560.4v84.7c0,6.3,5.2,11.6,11.6,11.6c6.3,0,11.6-5.2,11.6-11.6v-84.7c0-6.3-5.2-11.6-11.6-11.6
			C821.4,548.9,816.2,554.1,816.2,560.4"/>
		<path class="st0" d="M884,700.8L884,700.8c-5.3-6.9-9.8-14.2-13.5-22s-6.6-15.9-8.7-24.3c-2-8.4-3.2-17-3.4-25.6
			c-0.3-8.6,0.4-17.3,1.9-25.8H912"/>
		<path class="st1" d="M884,700.8L884,700.8c-5.3-6.9-9.8-14.2-13.5-22s-6.6-15.9-8.7-24.3c-2-8.4-3.2-17-3.4-25.6
			c-0.3-8.6,0.4-17.3,1.9-25.8H912 M897.8,603.1l-35,51.2 M794.3,478.7v248.8"/>
		<path class="st0" d="M658,1005.7L658,1005.7c-12.1,1.9-24.3,3.6-36.5,5.3s-24.3,3.2-36.5,4.7s-24.4,2.9-36.6,4.2
			c-12.2,1.3-24.4,2.5-36.7,3.6l0,0c-12.2-1.1-24.5-2.3-36.7-3.6s-24.4-2.7-36.6-4.2s-24.4-3.1-36.5-4.7
			c-12.2-1.7-24.3-3.4-36.5-5.3c-5.1-1.4-9.8-3.7-14-6.8s-7.8-7-10.5-11.5c-2.8-4.4-4.7-9.4-5.6-14.5c-1-5.2-0.9-10.4,0.1-15.6
			c-8.2-5.3-16.1-10.9-23.9-16.8c-7.7-5.9-15.2-12.2-22.3-18.8c-7.2-6.6-14.1-13.5-20.6-20.6c-6.6-7.2-12.9-14.6-18.8-22.3
			l-10.6-73.9l-0.3-73.8l-6.4-3.6V478.7h7.5l12.1-57.2l13.7-24.2l23.3-294.8l28.4-36.9l6.9-0.6l0.9-10.3l3.8-0.3l1.5-17.8H693
			l1.5,17.8l3.8,0.3l0.9,10.3l6.9,0.6l28.4,36.9l23.3,294.8l13.7,24.2l12.1,57.2h7.5v248.9l-6.4,3.6l-0.3,73.8l-10.6,73.9
			c-5.9,7.7-12.2,15.1-18.8,22.3s-13.5,14-20.6,20.6c-7.2,6.6-14.6,12.8-22.3,18.8c-7.7,5.9-15.7,11.5-23.9,16.8
			c1,5.1,1,10.4,0.1,15.6c-1,5.1-2.9,10.1-5.6,14.5c-2.8,4.4-6.3,8.3-10.5,11.5C667.8,1002.1,663,1004.4,658,1005.7"/>
		<path class="st1" d="M658,1005.7L658,1005.7c-12.1,1.9-24.3,3.6-36.5,5.3s-24.3,3.2-36.5,4.7s-24.4,2.9-36.6,4.2
			c-12.2,1.3-24.4,2.5-36.7,3.6l0,0c-12.2-1.1-24.5-2.3-36.7-3.6s-24.4-2.7-36.6-4.2s-24.4-3.1-36.5-4.7
			c-12.2-1.7-24.3-3.4-36.5-5.3c-5.1-1.4-9.8-3.7-14-6.8s-7.8-7-10.5-11.5c-2.8-4.4-4.7-9.4-5.6-14.5c-1-5.2-0.9-10.4,0.1-15.6
			c-8.2-5.3-16.1-10.9-23.9-16.8c-7.7-5.9-15.2-12.2-22.3-18.8c-7.2-6.6-14.1-13.5-20.6-20.6c-6.6-7.2-12.9-14.6-18.8-22.3
			l-10.6-73.9l-0.3-73.8l-6.4-3.6V478.7h7.5l12.1-57.2l13.7-24.2l23.3-294.8l28.4-36.9l6.9-0.6l0.9-10.3l3.8-0.3l1.5-17.8H693
			l1.5,17.8l3.8,0.3l0.9,10.3l6.9,0.6l28.4,36.9l23.3,294.8l13.7,24.2l12.1,57.2h7.5v248.9l-6.4,3.6l-0.3,73.8l-10.6,73.9
			c-5.9,7.7-12.2,15.1-18.8,22.3s-13.5,14-20.6,20.6c-7.2,6.6-14.6,12.8-22.3,18.8c-7.7,5.9-15.7,11.5-23.9,16.8
			c1,5.1,1,10.4,0.1,15.6c-1,5.1-2.9,10.1-5.6,14.5c-2.8,4.4-6.3,8.3-10.5,11.5C667.8,1002.1,663,1004.4,658,1005.7 M330.6,53.6
			l363.9,0.7 M349.1,55.1l-13,389.6 M415.9,55.1l-18.7,464 M336.6,445.1l60.6,73.9"/>
		<polyline class="st0" points="337,444.6 311.1,448.1 268.8,489.8 264.4,526.3 233.6,528.2 		"/>
		<polyline class="st1" points="337,444.6 311.1,448.1 268.8,489.8 264.4,526.3 233.6,528.2 		"/>
		<polyline class="st0" points="264.4,526.3 269.8,572.4 256.7,676.8 237.9,729.3 		"/>
		<path class="st1" d="M264.4,526.3l5.4,46l-13.1,104.5l-18.8,52.4 M610.1,55.1l14,304.5 M676,53.6l9,273.3 M358.6,804.8L358,981.6
			 M669.1,804.9l-6.6,178.8 M352.8,627.2l159.3,6.4 M672.9,630.7l-160.8,3"/>
		<polyline class="st0" points="329,446 365.8,542.2 373.2,621.6 354.5,630.4 295.1,804.9 294.5,847.5 257.5,839.5 253.5,761.8 
			261.3,747.3 279.8,524.7 		"/>
		<polyline class="st1" points="329,446 365.8,542.2 373.2,621.6 354.5,630.4 295.1,804.9 294.5,847.5 257.5,839.5 253.5,761.8 
			261.3,747.3 279.8,524.7 		"/>
		<polyline class="st0" points="365.8,542.2 382.2,555.4 561.3,558.8 526,527.2 527.7,361.4 621.4,359 685,327.1 695.5,330.9 
			700.2,446 712.5,447.8 755.7,490.6 759.1,526.3 789.9,528 		"/>
		<polyline class="st1" points="365.8,542.2 382.2,555.4 561.3,558.8 526,527.2 527.7,361.4 621.4,359 685,327.1 695.5,330.9 
			700.2,446 712.5,447.8 755.7,490.6 759.1,526.3 789.9,528 		"/>
		<polyline class="st0" points="572.4,393.4 571.8,616.4 647.8,619.3 641.1,391.9 		"/>
		<polyline class="st1" points="572.4,393.4 571.8,616.4 647.8,619.3 641.1,391.9 		"/>
		<polyline class="st0" points="526.6,379.1 572.4,406.9 645.6,405.6 694.8,346.4 		"/>
		<polyline class="st1" points="526.6,379.1 572.4,406.9 645.6,405.6 694.8,346.4 		"/>
		<polyline class="st0" points="700.2,446 662.1,542.2 654.8,621.6 673.4,630.4 732.8,804.9 733.4,847.5 770.4,839.5 774.4,761.8 
			766.6,747.3 748.1,524.7 		"/>
		<path class="st1" d="M700.2,446l-38.1,96.2l-7.4,79.4l18.6,8.8l59.4,174.5l0.6,42.6l37-7.9l4.1-77.7l-7.8-14.5l-18.5-222.6
			 M358.1,981.6l304.4,2.2"/>
		<rect x="287.5" y="493.3" class="st2" width="449.1" height="219.6"/>
		<rect x="287.5" y="493.3" class="st1" width="449.1" height="219.6"/>
		<polyline class="st2" points="361.2,543.1 662.8,543.1 662.8,663.1 361.2,663.1 361.2,543.1 		"/>
		<path class="st3" d="M369.9,590v-31.8l10.8,31.8h4.5l10.9-31.3V590h4.8v-37.4h-6.6l-8.9,26c-0.9,2.6-1.6,4.6-2,6
			c-0.4-1.2-1-3.1-1.8-5.5l-8.8-26.4h-7.4V590H369.9L369.9,590z M409.9,590l4.1-11.3h15.6L434,590h5.6l-15.3-37.4H419L404.7,590
			H409.9L409.9,590z M419.5,563.7c0.9-2.4,1.5-4.7,2-7.1c0.6,2,1.5,4.6,2.6,7.7l3.9,10.3h-12.7L419.5,563.7L419.5,563.7z
			 M466.3,584.1c-1.9,1.6-4.3,2.4-7,2.4c-2.3,0-4.4-0.6-6.3-1.8c-2-1.2-3.4-2.9-4.3-5.3c-0.9-2.4-1.4-5.1-1.4-8.3
			c0-2.5,0.4-4.9,1.2-7.2c0.8-2.3,2.1-4.2,4.1-5.5c1.9-1.4,4.3-2.1,7.2-2.1c2.5,0,4.6,0.6,6.2,1.9c1.6,1.2,2.9,3.2,3.8,5.9l4.9-1.1
			c-1-3.4-2.8-6.1-5.3-8s-5.7-2.9-9.4-2.9c-3.3,0-6.3,0.8-9.1,2.3c-2.7,1.5-4.9,3.7-6.3,6.6c-1.5,2.9-2.2,6.3-2.2,10.2
			c0,3.6,0.7,6.9,2,10s3.2,5.5,5.8,7.1c2.5,1.6,5.8,2.5,9.8,2.5c3.9,0,7.2-1.1,9.9-3.2c2.7-2.1,4.6-5.2,5.6-9.3l-4.9-1.2
			C469.5,580.1,468.2,582.5,466.3,584.1L466.3,584.1z M520.3,574.2c0,4.7-0.8,7.9-2.3,9.5s-4.1,2.5-7.8,2.5c-2.1,0-3.9-0.4-5.4-1.2
			s-2.5-2-3.1-3.6c-0.6-1.5-0.9-3.9-0.9-7.2v-21.6h-4.9v21.6c0,4,0.5,7.1,1.4,9.4c1,2.3,2.5,4,4.8,5.2c2.2,1.2,5.1,1.8,8.6,1.8
			c3.6,0,6.5-0.7,8.7-2.1c2.2-1.4,3.7-3.2,4.6-5.4c0.8-2.2,1.3-5.2,1.3-8.9v-21.6h-4.9L520.3,574.2L520.3,574.2z M556.6,590v-4.4
			h-18.4v-32.9h-4.9V590H556.6L556.6,590z M576.9,590v-32.9h12.4v-4.4h-29.6v4.4H572V590H576.9L576.9,590z M599.3,590v-16.6h5.7
			c1.3,0,2.2,0.1,2.8,0.2c0.8,0.2,1.5,0.5,2.3,1c0.7,0.5,1.6,1.3,2.5,2.5s2.1,2.9,3.6,5.1l4.9,7.8h6.2l-6.5-10.2
			c-1.3-2-2.7-3.6-4.1-5c-0.7-0.6-1.7-1.2-3-1.9c3.6-0.5,6.2-1.6,7.9-3.5c1.7-1.8,2.6-4.1,2.6-6.7c0-2.1-0.5-3.9-1.6-5.6
			c-1-1.7-2.4-2.9-4.2-3.6c-1.7-0.7-4.3-1-7.6-1h-16.6V590H599.3L599.3,590z M599.3,556.8h11.8c2.8,0,4.8,0.6,6.1,1.7
			c1.3,1.1,1.9,2.6,1.9,4.4c0,1.2-0.3,2.3-1,3.4c-0.7,1-1.6,1.8-2.9,2.2c-1.3,0.5-3,0.7-5.3,0.7h-10.6V556.8L599.3,556.8z
			 M633.1,590l4.1-11.3h15.6l4.4,11.3h5.6l-15.3-37.4h-5.3L627.9,590H633.1L633.1,590z M642.8,563.7c0.9-2.4,1.5-4.7,2-7.1
			c0.6,2,1.5,4.6,2.6,7.7l3.9,10.3h-12.7L642.8,563.7L642.8,563.7z"/>
		<path class="st3" d="M449.3,650l7.9-28.5c0.3-1.2,0.7-2.7,1.1-4.4c0.1,0.5,0.5,2,1.2,4.4l7.9,28.5h4.8l10.2-37.4h-5l-5.9,24
			c-0.8,3.1-1.4,5.8-1.9,8.1c-0.6-4.1-1.6-8.5-2.9-13.2l-5.4-18.9h-6l-7.1,25.2c-0.2,0.6-0.7,2.9-1.7,6.9c-0.4-2.5-1-5.1-1.6-7.6
			l-5.7-24.5h-5.1L444,650H449.3L449.3,650z M488.2,650l4.1-11.3h15.6l4.4,11.3h5.6l-15.3-37.4h-5.3L482.9,650H488.2L488.2,650z
			 M497.8,623.8c0.9-2.4,1.5-4.7,2-7.1c0.6,2,1.5,4.6,2.6,7.7l3.9,10.3h-12.7L497.8,623.8L497.8,623.8z M522.2,644.8
			c1.3,2,3.1,3.5,5.4,4.4c2.3,1,5.1,1.5,8.5,1.5c2.7,0,5.1-0.5,7.2-1.5c2.1-1,3.8-2.3,4.9-4.1c1.1-1.8,1.7-3.6,1.7-5.6
			s-0.5-3.8-1.6-5.3c-1-1.5-2.6-2.8-4.8-3.8c-1.5-0.7-4.3-1.5-8.3-2.4s-6.5-1.8-7.5-2.7s-1.5-2-1.5-3.3c0-1.5,0.7-2.9,2.1-4
			c1.4-1.1,3.5-1.6,6.5-1.6c2.9,0,5,0.6,6.5,1.8s2.3,3,2.6,5.4l4.7-0.4c-0.1-2.2-0.7-4.2-1.8-5.9s-2.8-3-4.9-3.9
			c-2.1-0.9-4.6-1.3-7.3-1.3c-2.5,0-4.8,0.4-6.9,1.3c-2.1,0.8-3.6,2.1-4.7,3.7c-1.1,1.6-1.6,3.4-1.6,5.3c0,1.7,0.4,3.3,1.3,4.6
			c0.9,1.4,2.2,2.5,4,3.5c1.4,0.7,3.8,1.5,7.2,2.3s5.6,1.4,6.6,1.8c1.6,0.6,2.7,1.3,3.4,2.2s1,1.9,1,3.1c0,1.2-0.4,2.2-1.1,3.2
			c-0.7,1-1.8,1.7-3.2,2.3s-3.1,0.8-5,0.8c-2.1,0-4-0.4-5.7-1.1c-1.7-0.7-3-1.7-3.8-2.9s-1.3-2.7-1.5-4.6l-4.7,0.4
			C520.2,640.5,520.9,642.8,522.2,644.8L522.2,644.8z M561.7,650v-17.6h19.4V650h4.9v-37.4h-4.9V628h-19.4v-15.3h-4.9V650H561.7
			L561.7,650z"/>
	</g>
</g>
</svg>
