<?xml version="1.0" encoding="utf-8"?>
<!-- Generator: Adobe Illustrator 25.0.1, SVG Export Plug-In . SVG Version: 6.00 Build 0)  -->
<svg version="1.1" id="Layer_1" xmlns="http://www.w3.org/2000/svg" xmlns:xlink="http://www.w3.org/1999/xlink" x="0px" y="0px"
	 viewBox="0 0 1024 1024" style="enable-background:new 0 0 1024 1024;" xml:space="preserve">
<style type="text/css">
	.st0{fill-rule:evenodd;clip-rule:evenodd;fill:#CCCCCC;stroke:#000000;stroke-miterlimit:10;}
	.st1{fill:none;stroke:#000000;stroke-linecap:round;stroke-linejoin:round;stroke-miterlimit:10;}
	.st2{fill-rule:evenodd;clip-rule:evenodd;fill:#FFFFFF;stroke:#000000;stroke-miterlimit:10;}
</style>
<g id="ERA_800_Profile_-_Thumbnail">
	<g>
		<path class="st0" d="M369,994.5L369,994.5c11.5,2.7,23,5.1,34.6,7.2c11.6,2.1,23.3,3.8,35,5.2s23.4,2.4,35.2,3.2
			c11.8,0.7,23.5,1.1,35.3,1.1h5.8c11.8,0,23.6-0.4,35.3-1.1c11.8-0.7,23.5-1.8,35.2-3.2s23.4-3.1,35-5.2
			c11.6-2.1,23.1-4.5,34.6-7.2l83.7-86.6l11.2-59.6l10.7-37.4c1.7-0.1,3.5-0.2,5.2-0.3s3.5-0.2,5.2-0.3s3.4-0.2,5.2-0.3
			c1.7-0.1,3.4-0.2,5.2-0.3l21.2-20.1l18.8-92.8l-8.8,52.7l13.9-6.4c5.7-3.4,11.1-7.2,16.3-11.3c5.1-4.2,10-8.7,14.4-13.6
			c4.5-4.9,8.6-10.1,12.3-15.5c3.7-5.5,7-11.2,9.9-17.2c5.9-22.2,10.3-44.7,13.3-67.5s4.4-45.7,4.4-68.6c0-22.9-1.5-45.9-4.4-68.6
			c-3-22.7-7.4-45.3-13.3-67.5c-3.3-6-6.9-11.8-10.9-17.3s-8.4-10.8-13-15.8c-4.7-5-9.7-9.7-14.9-14c-5.3-4.4-10.8-8.4-16.6-12
			l-11.4-5.3l10.4,55.2L802.5,308l-21.2-20c-2.3-0.1-4.6-0.3-6.9-0.4c-2.3-0.1-4.6-0.3-6.9-0.4c-2.3-0.1-4.6-0.3-6.9-0.4
			c-2.3-0.1-4.6-0.2-6.9-0.4l-2.5-99.7l-3.7-19.8l-48.6-83.3h-11.4L670.8,13H353.1l-16.5,70.7h-11.4L276.6,167l-3.7,19.8l-2.5,99.7
			c-2.3,0.1-4.7,0.2-7,0.4c-2.3,0.1-4.7,0.3-7,0.4c-2.3,0.1-4.7,0.3-7,0.4s-4.7,0.3-7,0.4l-21.2,20.1l-19.6,96.7l9.8-55.8l-11.4,5.3
			c-5.8,3.7-11.3,7.7-16.6,12c-5.3,4.4-10.2,9-14.9,14s-9,10.3-13,15.8s-7.7,11.3-10.9,17.3c-5.9,22.2-10.3,44.7-13.3,67.5
			s-4.4,45.7-4.4,68.6c0,22.9,1.5,45.9,4.4,68.6c3,22.8,7.4,45.3,13.3,67.5c2.9,6,6.2,11.7,9.9,17.2s7.8,10.7,12.3,15.5
			c4.5,4.9,9.3,9.4,14.4,13.6c5.1,4.2,10.6,8,16.3,11.3l13.9,6.4l-10.2-51l20.1,91.1l21.2,20.1c1.7,0.1,3.5,0.2,5.2,0.3
			s3.5,0.2,5.2,0.3s3.5,0.2,5.2,0.3s3.5,0.2,5.2,0.3l10.7,37.4l11.2,59.6L369,994.5 M848.9,660.5L848.9,660.5
			c-0.9,3.7-2.4,7.2-4.4,10.5c-2,3.2-4.6,6.1-7.6,8.4c-3,2.4-6.4,4.2-10,5.4s-7.4,1.8-11.2,1.8l-21.4-6.1l-10.6-13.8v-11.3H850
			c-0.1,0.4-0.2,0.9-0.3,1.3c-0.1,0.4-0.2,0.9-0.3,1.3c-0.1,0.4-0.2,0.9-0.3,1.3C849.1,659.6,849,660.1,848.9,660.5 M174.9,438.6
			L174.9,438.6c0.7-3.1,1.9-6.1,3.5-8.8c1.6-2.8,3.5-5.3,5.8-7.5s4.8-4.1,7.6-5.6s5.8-2.6,8.9-3.3l10.5-0.7l-1.1-0.9l19.4,5.5
			l10.6,13.8v11.3h-66c0.1-0.3,0.1-0.6,0.2-1c0.1-0.3,0.1-0.6,0.2-1c0.1-0.3,0.1-0.6,0.2-1C174.8,439.2,174.9,438.9,174.9,438.6
			 M208.1,686.6L208.1,686.6c-3.8,0-7.6-0.6-11.2-1.8c-3.6-1.2-6.9-3.1-9.9-5.4c-3-2.4-5.5-5.2-7.6-8.4c-2-3.2-3.5-6.7-4.4-10.4
			c-0.1-0.4-0.2-0.9-0.3-1.3c-0.1-0.4-0.2-0.9-0.3-1.3c-0.1-0.4-0.2-0.9-0.3-1.3c-0.1-0.4-0.2-0.9-0.3-1.3H240v11.3l-10.6,13.8
			L208.1,686.6 M849,438.6L849,438.6c0.1,0.3,0.1,0.6,0.2,1c0.1,0.3,0.1,0.6,0.2,1c0.1,0.3,0.1,0.6,0.2,1c0.1,0.3,0.1,0.6,0.2,1
			h-66.2v-11.3l10.6-13.8l19.7-5.6l-1.2,1l10.5,0.7c3.1,0.7,6.1,1.8,8.9,3.3c2.8,1.5,5.4,3.4,7.6,5.6c2.3,2.2,4.2,4.7,5.8,7.5
			C847.1,432.5,848.2,435.5,849,438.6"/>
		<path class="st1" d="M369,994.5L369,994.5c11.5,2.7,23,5.1,34.6,7.2c11.6,2.1,23.3,3.8,35,5.2s23.4,2.4,35.2,3.2
			c11.8,0.7,23.5,1.1,35.3,1.1h5.8c11.8,0,23.6-0.4,35.3-1.1c11.8-0.7,23.5-1.8,35.2-3.2s23.4-3.1,35-5.2
			c11.6-2.1,23.1-4.5,34.6-7.2l83.7-86.6l11.2-59.6l10.7-37.4c1.7-0.1,3.5-0.2,5.2-0.3s3.5-0.2,5.2-0.3s3.4-0.2,5.2-0.3
			c1.7-0.1,3.4-0.2,5.2-0.3l21.2-20.1l18.8-92.8l-8.8,52.7l13.9-6.4c5.7-3.4,11.1-7.2,16.3-11.3c5.1-4.2,10-8.7,14.4-13.6
			c4.5-4.9,8.6-10.1,12.3-15.5c3.7-5.5,7-11.2,9.9-17.2c5.9-22.2,10.3-44.7,13.3-67.5s4.4-45.7,4.4-68.6c0-22.9-1.5-45.9-4.4-68.6
			c-3-22.7-7.4-45.3-13.3-67.5c-3.3-6-6.9-11.8-10.9-17.3s-8.4-10.8-13-15.8c-4.7-5-9.7-9.7-14.9-14c-5.3-4.4-10.8-8.4-16.6-12
			l-11.4-5.3l10.4,55.2L802.5,308l-21.2-20c-2.3-0.1-4.6-0.3-6.9-0.4c-2.3-0.1-4.6-0.3-6.9-0.4c-2.3-0.1-4.6-0.3-6.9-0.4
			c-2.3-0.1-4.6-0.2-6.9-0.4l-2.5-99.7l-3.7-19.8l-48.6-83.3h-11.4L670.8,13H353.1l-16.5,70.7h-11.4L276.6,167l-3.7,19.8l-2.5,99.7
			c-2.3,0.1-4.7,0.2-7,0.4c-2.3,0.1-4.7,0.3-7,0.4c-2.3,0.1-4.7,0.3-7,0.4s-4.7,0.3-7,0.4l-21.2,20.1l-19.6,96.7l9.8-55.8l-11.4,5.3
			c-5.8,3.7-11.3,7.7-16.6,12c-5.3,4.4-10.2,9-14.9,14s-9,10.3-13,15.8s-7.7,11.3-10.9,17.3c-5.9,22.2-10.3,44.7-13.3,67.5
			s-4.4,45.7-4.4,68.6c0,22.9,1.5,45.9,4.4,68.6c3,22.8,7.4,45.3,13.3,67.5c2.9,6,6.2,11.7,9.9,17.2s7.8,10.7,12.3,15.5
			c4.5,4.9,9.3,9.4,14.4,13.6c5.1,4.2,10.6,8,16.3,11.3l13.9,6.4l-10.2-51l20.1,91.1l21.2,20.1c1.7,0.1,3.5,0.2,5.2,0.3
			s3.5,0.2,5.2,0.3s3.5,0.2,5.2,0.3s3.5,0.2,5.2,0.3l10.7,37.4l11.2,59.6L369,994.5 M848.9,660.5L848.9,660.5
			c-0.9,3.7-2.4,7.2-4.4,10.5c-2,3.2-4.6,6.1-7.6,8.4c-3,2.4-6.4,4.2-10,5.4s-7.4,1.8-11.2,1.8l-21.4-6.1l-10.6-13.8v-11.3H850
			c-0.1,0.4-0.2,0.9-0.3,1.3c-0.1,0.4-0.2,0.9-0.3,1.3c-0.1,0.4-0.2,0.9-0.3,1.3C849.1,659.6,849,660.1,848.9,660.5 M174.9,438.6
			L174.9,438.6c0.7-3.1,1.9-6.1,3.5-8.8c1.6-2.8,3.5-5.3,5.8-7.5s4.8-4.1,7.6-5.6s5.8-2.6,8.9-3.3l10.5-0.7l-1.1-0.9l19.4,5.5
			l10.6,13.8v11.3h-66c0.1-0.3,0.1-0.6,0.2-1c0.1-0.3,0.1-0.6,0.2-1c0.1-0.3,0.1-0.6,0.2-1C174.8,439.2,174.9,438.9,174.9,438.6
			 M208.1,686.6L208.1,686.6c-3.8,0-7.6-0.6-11.2-1.8c-3.6-1.2-6.9-3.1-9.9-5.4c-3-2.4-5.5-5.2-7.6-8.4c-2-3.2-3.5-6.7-4.4-10.4
			c-0.1-0.4-0.2-0.9-0.3-1.3c-0.1-0.4-0.2-0.9-0.3-1.3c-0.1-0.4-0.2-0.9-0.3-1.3c-0.1-0.4-0.2-0.9-0.3-1.3H240v11.3l-10.6,13.8
			L208.1,686.6 M849,438.6L849,438.6c0.1,0.3,0.1,0.6,0.2,1c0.1,0.3,0.1,0.6,0.2,1c0.1,0.3,0.1,0.6,0.2,1c0.1,0.3,0.1,0.6,0.2,1
			h-66.2v-11.3l10.6-13.8l19.7-5.6l-1.2,1l10.5,0.7c3.1,0.7,6.1,1.8,8.9,3.3c2.8,1.5,5.4,3.4,7.6,5.6c2.3,2.2,4.2,4.7,5.8,7.5
			C847.1,432.5,848.2,435.5,849,438.6"/>
		<path class="st1" d="M151.4,461c0,29.3,0,58.6,0,87.9c0,29.3,0,58.6,0,87.9 M751,186.8c2.3,91.9,4.6,184.7,6.9,278.3
			c2.3,93.6,4.7,187.1,7,280.5 M258.9,745.5c2.3-93.4,4.7-186.9,7-280.5s4.7-186.4,6.9-278.3 M765.4,762.1l-0.4-16.6 M258.9,745.5
			l-0.4,16.6 M766.1,790.9l-0.7-28.8 M258.5,762.1l-0.7,28.8 M257.8,791.4l5.6,19.5 M257.8,790.9v0.5 M766.1,791.4v-0.5
			 M760.6,810.9l5.6-19.5 M687.3,83.7c0,0.1-1.6,0.2-5,0.3s-11.5,0.3-24.4,0.4s-29,0.3-48.3,0.4S569.2,85,546.3,85
			c-22.8,0-45.7,0-68.5,0s-43.9-0.1-63.3-0.2s-35.5-0.2-48.4-0.4c-12.9-0.1-21.1-0.3-24.5-0.4s-5.1-0.2-5-0.3 M353.1,13l-16.5,70.7
			 M683.8,964.7H340.2 M233.1,644.8h-20.8 M212.2,644.8c-0.8,0.4-1.6,0.7-2.4,0.9c-0.8,0.2-1.6,0.3-2.4,0.3 M207.5,451.8
			c0.8,0,1.6,0.1,2.4,0.3c0.8,0.2,1.6,0.5,2.4,0.9 M212.2,453H233 M229.2,488.5h-19 M208.3,487.5c-0.1-0.1-0.3-0.1-0.4-0.1
			c-0.1,0-0.3,0-0.4,0 M207.5,487.4c-0.1,0-0.3,0-0.4,0c-0.1,0-0.3,0.1-0.4,0.1 M206.7,487.5c-0.7,0.4-1.4,1.2-1.9,2.6
			c-0.5,1.3-0.8,2.8-0.7,4.4 M204.1,494.5v0.2 M204.1,494.7v54.2 M204.1,548.9v54.2 M204.1,603.1v0.2 M204.1,603.3
			c0,1.6,0.2,3,0.7,4.4c0.5,1.3,1.1,2.2,1.9,2.6 M206.7,610.2c0.1,0.1,0.3,0.1,0.4,0.1c0.1,0,0.3,0,0.4,0 M845.4,451.8h-32.5
			 M865.9,494.9c0-2.8-0.2-6.3-0.5-10.5c-0.4-4.2-1.3-8.6-2.8-13.4s-3.4-8.7-5.7-11.9c-2.3-3.2-4.4-5.2-6.4-6s-3.7-1.3-5-1.3
			 M154.6,494.9c0-2.8,0.2-6.3,0.5-10.5c0.4-4.2,1.3-8.6,2.8-13.4s3.4-8.7,5.7-11.9c2.3-3.2,4.4-5.2,6.4-6s3.7-1.3,5-1.3
			 M207.5,451.8H175 M187,494.9c0-2.8,0.2-6.3,0.5-10.5c0.4-4.2,1.3-8.6,2.8-13.4s3.4-8.7,5.7-11.9c2.3-3.2,4.4-5.2,6.4-6
			s3.7-1.3,5-1.3 M813.7,610.2c-0.1,0.1-0.3,0.1-0.4,0.1c-0.1,0-0.3,0-0.4,0 M816.3,603.3c0,1.6-0.2,3-0.7,4.4
			c-0.5,1.3-1.1,2.2-1.9,2.6 M816.3,603.1v0.2 M816.3,548.9v54.2 M816.3,494.7v54.2 M816.3,494.5v0.2 M813.7,487.5
			c0.7,0.4,1.4,1.2,1.9,2.6c0.5,1.3,0.8,2.8,0.7,4.4 M812.9,487.4c0.1,0,0.3,0,0.4,0c0.1,0,0.3,0.1,0.4,0.1 M791.9,488.5h18.3
			 M808.2,453h-20.1 M812.9,451.8c-0.8,0-1.6,0.1-2.4,0.3c-0.8,0.2-1.6,0.5-2.4,0.9 M833.4,494.9c0-2.8-0.2-6.3-0.5-10.5
			c-0.4-4.2-1.3-8.6-2.8-13.4s-3.4-8.7-5.7-11.9c-2.3-3.2-4.4-5.2-6.4-6s-3.7-1.3-5-1.3 M808.2,644.8c0.8,0.4,1.6,0.7,2.4,0.9
			c0.8,0.2,1.6,0.3,2.4,0.3 M788,644.8h20.1 M810.2,609.3h-18.3 M845.4,645.9c1.4,0,3-0.4,5-1.3c2-0.8,4.1-2.8,6.4-6
			c2.3-3.2,4.2-7.1,5.7-11.9c1.5-4.8,2.4-9.2,2.8-13.4c0.4-4.2,0.6-7.7,0.5-10.5 M812.9,645.9h32.5 M812.9,645.9c1.3,0,3-0.4,5-1.3
			c2-0.8,4.1-2.8,6.4-6c2.3-3.2,4.2-7.1,5.7-11.9c1.5-4.8,2.4-9.2,2.8-13.4c0.4-4.2,0.6-7.7,0.5-10.5 M207.5,645.9
			c-1.4,0-3-0.4-5-1.3c-2-0.8-4.1-2.8-6.4-6c-2.3-3.2-4.2-7.1-5.7-11.9c-1.5-4.8-2.4-9.2-2.8-13.4c-0.4-4.2-0.6-7.7-0.5-10.5
			 M175.1,645.9h32.5 M175.1,645.9c-1.4,0-3-0.4-5-1.3c-2-0.8-4.1-2.8-6.4-6c-2.3-3.2-4.2-7.1-5.7-11.9c-1.5-4.8-2.4-9.2-2.8-13.4
			c-0.4-4.2-0.6-7.7-0.5-10.5 M833.4,602.9v-54 M865.9,602.9v-54 M833.4,548.9v-54 M865.9,548.9v-54 M187,548.9v-54 M154.6,548.9
			v-54 M187,602.9v-54 M154.6,602.9v-54 M812.9,610.4c-0.1,0-0.3,0-0.4,0c-0.1,0-0.3-0.1-0.4-0.1 M813.7,610.2
			c-0.1,0.1-0.3,0.1-0.4,0.1c-0.1,0-0.3,0-0.4,0.1 M207.5,610.4c0.1,0,0.3,0,0.4,0c0.1,0,0.3-0.1,0.4-0.1 M206.7,610.2
			c0.1,0.1,0.3,0.1,0.4,0.1c0.1,0,0.3,0,0.4,0.1 M812.1,487.5c0.1-0.1,0.3-0.1,0.4-0.1c0.1,0,0.3,0,0.4,0 M812.9,487.4
			c0.1,0,0.3,0,0.4,0c0.1,0,0.3,0.1,0.4,0.1 M208.3,610.2l2-1 M205.6,609.3c0.2,0.2,0.3,0.4,0.5,0.6c0.2,0.2,0.4,0.3,0.6,0.4
			 M812.1,610.2l-1.9-1 M810.2,609.3h4.6 M814.8,609.3c-0.2,0.2-0.3,0.4-0.5,0.6c-0.2,0.2-0.4,0.3-0.6,0.4 M210.2,488.5l-2-1
			 M210.2,488.5h-4.6 M206.7,487.5c-0.2,0.1-0.4,0.2-0.6,0.4c-0.2,0.2-0.4,0.4-0.5,0.6 M208.3,487.5h-1.6 M810.2,488.5h4.6
			 M810.2,488.5l1.9-1 M813.7,487.5c0.2,0.1,0.4,0.2,0.6,0.4c0.2,0.2,0.4,0.4,0.5,0.6 M210.2,609.3h-4.6 M210.2,609.3h19 M634.4,999
			h-245 M794.3,655.3h1.9 M233.1,644.8l-3.9-8 M227.8,655.3h-20.9 M200.6,645.9c1.2,0,2.3,0,3.5,0s2.3,0,3.5,0 M212.2,644.8
			c-0.8,0.4-1.6,0.7-2.4,0.9c-0.8,0.2-1.6,0.3-2.4,0.3 M212.2,644.8H233 M812.9,645.9c1.7,0,3.5,0,5.2,0s3.5,0,5.2,0 M796.1,655.3
			H817 M791.9,636.8l-3.9,8 M788,644.8h20.1 M808.2,644.8c0.8,0.4,1.6,0.7,2.3,0.9c0.8,0.2,1.6,0.3,2.4,0.3 M229.6,655.3h-1.9
			 M204.1,494.7c0,9,0,18.1,0,27.1s0,18.1,0,27.1 M205.6,488.5c-0.5,0.7-0.9,1.6-1.2,2.6s-0.4,2.1-0.4,3.4 M205.6,488.5h23.6
			 M229.2,488.5V461 M229.2,636.8v-27.5 M229.2,609.3h-23.6 M204.1,603.3c0,1.3,0.1,2.4,0.4,3.4s0.6,1.8,1.2,2.6 M204.1,548.9
			c0,9,0,18.1,0,27.1s0,18.1,0,27.1 M816.3,548.9c0,9,0,18.1,0,27.1s0,18.1,0,27.1 M816.3,603.3c0,1.3-0.1,2.4-0.4,3.4
			c-0.3,1-0.6,1.8-1.2,2.6 M814.8,609.3h-22.9 M791.9,609.3v27.5 M791.9,461v27.5 M791.9,488.5h22.9 M814.8,488.5
			c0.5,0.7,0.9,1.6,1.2,2.6s0.4,2.1,0.4,3.4 M816.3,494.7c0,9,0,18.1,0,27.1s0,18.1,0,27.1 M227.8,442.4h1.9 M796.1,442.4h-1.9
			 M812.9,451.8c-0.8,0-1.6,0.1-2.4,0.3c-0.8,0.2-1.6,0.5-2.4,0.9 M788,453h20.1 M791.9,461l-3.8-8 M817,442.4h-20.9 M823.3,451.8
			c-1.7,0-3.5,0-5.2,0s-3.5,0-5.2,0 M206.9,442.4h20.9 M233.1,453l-3.8,8 M212.2,453H233 M207.5,451.8c0.8,0,1.6,0.1,2.4,0.3
			c0.8,0.2,1.6,0.5,2.4,0.9 M207.5,451.8c-1.2,0-2.3,0-3.5,0s-2.3,0-3.5,0 M845.4,451.8c-3,0-6.4,0-10,0c-3.7,0-7.7,0-12,0
			 M853.8,442.4c-2.2,0-6.3,0-12.6,0c-6.2,0-14.3,0-24.2,0 M872.5,461c-3.1-3.1-6.2-6.2-9.4-9.3c-3.1-3.1-6.2-6.2-9.4-9.3 M858,461
			c-1.1-1.7-2.2-3.2-3.3-4.4c-1.2-1.2-2.3-2.2-3.4-2.8c-1.1-0.7-2.1-1.1-3-1.4s-1.9-0.4-2.9-0.4 M872.5,461c-1.1,0-2.9,0-5.3,0
			c-2.4,0-5.5,0-9.1,0 M872.5,461v175.9 M858,636.8c1.2-2,2.3-4.1,3.2-6.4c0.9-2.3,1.7-4.9,2.5-7.9c0.7-3,1.3-6.1,1.7-9.5
			s0.5-6.7,0.5-10.1 M865.9,602.9c0-9,0-18,0-27s0-18,0-27 M865.9,548.9c0-9,0-18,0-27s0-18,0-27 M865.9,494.9
			c0-3.4-0.2-6.7-0.5-10.1c-0.4-3.4-0.9-6.5-1.7-9.5s-1.6-5.6-2.5-7.9s-1.9-4.4-3.2-6.4 M154.6,602.9c0-9,0-18,0-27s0-18,0-27
			 M162.4,636.8c-1.2-1.9-2.2-4-3.1-6.3c-0.9-2.2-1.7-4.8-2.5-7.9c-0.8-3-1.4-6.3-1.7-9.7c-0.4-3.4-0.5-6.8-0.5-10.1 M151.4,548.9
			v87.9 M154.6,494.9c0-3.3,0.2-6.7,0.5-10.1c0.4-3.4,0.9-6.7,1.7-9.7s1.6-5.6,2.5-7.9c0.9-2.2,1.9-4.3,3.1-6.3 M154.6,548.9
			c0-9,0-18,0-27s0-18,0-27 M170.2,655.3c2.1,0,6.3,0,12.6,0s14.3,0,24.2,0 M170.2,655.3c-3.1-3.1-6.2-6.2-9.4-9.3
			c-3.1-3.1-6.2-6.2-9.4-9.3 M151.4,636.8c0.9,0,2.3,0,4.2,0s4.1,0,6.8,0 M175.1,645.9c-1,0-1.9-0.1-2.8-0.4c-0.9-0.3-1.9-0.7-3-1.3
			s-2.2-1.6-3.5-2.8c-1.2-1.3-2.4-2.8-3.4-4.6 M175.1,645.9c3.3,0,7.1,0,11.3,0c4.3,0,9,0,14.2,0 M845.4,645.9c1,0,2-0.1,2.9-0.4
			c0.9-0.3,1.9-0.7,3-1.4s2.2-1.6,3.4-2.8s2.3-2.7,3.3-4.5 M872.5,636.8c-1.1,0-2.9,0-5.3,0c-2.4,0-5.5,0-9.1,0 M853.8,655.3
			c3.1-3.1,6.2-6.2,9.4-9.3c3.1-3.1,6.2-6.2,9.4-9.3 M853.8,655.3c-2.2,0-6.3,0-12.6,0c-6.2,0-14.3,0-24.2,0 M823.3,645.9
			c4.3,0,8.3,0,12,0s7,0,10,0 M151.4,461c3.1-3.1,6.2-6.2,9.4-9.3c3.1-3.1,6.2-6.2,9.4-9.3 M170.2,442.4c2.1,0,6.3,0,12.6,0
			s14.3,0,24.2,0 M200.6,451.8c-5.2,0-9.9,0-14.2,0s-8,0-11.3,0 M162.4,461c1.1-1.8,2.2-3.3,3.5-4.6c1.2-1.3,2.4-2.2,3.5-2.8
			c1.1-0.6,2.1-1.1,3-1.3c0.9-0.3,1.8-0.4,2.8-0.4 M151.4,461c0.9,0,2.3,0,4.2,0c1.8,0,4.1,0,6.8,0 M242.3,655.3h-12.7 M229.6,442.4
			h12.7 M794.3,442.4h-12.7 M781.6,655.3h12.7 M261.2,655.3c-5.9,0-10.5,0-13.7,0s-4.9,0-5.2,0 M261.6,636.8c0,1.1-0.1,3.2-0.2,6.3
			s-0.2,7.2-0.3,12.2 M762.3,636.8c-0.4-16.8-1-39.9-1.7-69.2s-1.6-64.9-2.7-106.7 M261.6,636.8c-0.4,0-0.6,0-0.7,0s-0.2,0-0.1,0
			 M266,461c-1,41.8-1.9,77.4-2.7,106.7c-0.7,29.3-1.3,52.4-1.7,69.2 M762.3,636.8c0.4,0,0.6,0,0.7,0s0.2,0,0.1,0 M762.7,655.3
			c5.9,0,10.5,0,13.7,0s4.9,0,5.2,0 M762.7,655.3c-0.1-5.1-0.2-9.1-0.3-12.2c-0.1-3.1-0.1-5.2-0.2-6.3 M262.1,442.4
			c-6.2,0-11,0-14.4,0s-5.2,0-5.5,0 M266.3,448.5c-0.1,2.7-0.1,5.1-0.2,7.2s-0.1,3.9-0.1,5.3 M761.8,442.4c6.2,0,11,0,14.4,0
			s5.2,0,5.5,0 M757.9,461c0-1.5-0.1-3.2-0.1-5.3c-0.1-2.1-0.1-4.5-0.2-7.1 M761.8,442.4h-4.3 M757.6,448.5c0-1-0.1-2-0.1-3
			s-0.1-2-0.1-3 M262.1,442.4h4.3 M266.5,442.4c0,1-0.1,2-0.1,3s-0.1,2-0.1,3 M229.5,680.5l10.6-13.8 M822.1,692.8l-1.3-2.8
			 M753.8,297.6c0-1.9-0.1-3.7-0.1-5.6s-0.1-3.7-0.1-5.6 M760.6,810.9c0.5-1.9,1.1-3.8,1.6-5.6c0.5-1.9,1.1-3.8,1.6-5.6
			 M240.1,666.7v-11.3 M242.3,655.3c-0.4,0-0.7,0-1.1,0c-0.4,0-0.7,0-1.1,0 M251.2,655.3c-1.5,0-3,0-4.4,0c-1.5,0-3,0-4.4,0
			 M794.2,680.5l25.5,7.2 M820.8,690l-1.1-2.3 M240.1,442.4c0.4,0,0.7,0,1.1,0c0.4,0,0.7,0,1.1,0 M240.1,442.4v-11.3 M783.6,666.7
			l10.6,13.8 M240.1,431.1l-10.6-13.8 M783.7,655.3v11.3 M772.5,655.3c1.5,0,3,0,4.5,0s3,0,4.5,0 M781.6,655.3c0.3,0,0.7,0,1,0
			s0.7,0,1,0 M229.5,417.3l-25.5-7.2 M203,407.8l1.1,2.3 M783.6,431.1v11.3 M783.7,442.4c-0.3,0-0.7,0-1,0s-0.7,0-1,0 M781.6,442.4
			c-1.5,0-3,0-4.5,0s-3,0-4.5,0 M201.6,405l1.3,2.8 M794.2,417.3l-10.6,13.8 M819.7,410.1l1.1-2.3 M819.7,410.1l-25.5,7.2
			 M270.4,286.5c0,1.9-0.1,3.7-0.1,5.6s-0.1,3.7-0.1,5.6 M820.8,407.8l1.3-2.8"/>
		<path class="st1" d="M204,687.7l-1,2.3 M204,687.7l25.5-7.2 M221.3,789.7l-19.7-96.9 M203,690l-1.3,2.8 M260.1,799.6
			c0.5,1.9,1.1,3.8,1.6,5.6c0.5,1.9,1.1,3.8,1.6,5.6 M258.9,745.5c-0.1,2.8-0.1,5.5-0.2,8.3s-0.1,5.5-0.2,8.3 M258.5,762.1
			c-0.1,4.8-0.2,9.6-0.4,14.4c-0.1,4.8-0.2,9.6-0.4,14.4 M257.8,791.4c0.4,1.4,0.8,2.7,1.2,4.1c0.4,1.4,0.8,2.7,1.2,4.1
			 M261.2,655.3c-0.4,15-0.8,30.1-1.1,45.1c-0.4,15-0.8,30.1-1.1,45.1 M262.1,442.4c0.7,0,1.4,0,2.2,0c0.7,0,1.4,0,2.2,0
			 M270.1,297.6c-0.6,24.1-1.2,48.3-1.8,72.4c-0.6,24.1-1.2,48.3-1.8,72.4 M772.5,442.4c-1.8,0-3.6,0-5.4,0c-1.8,0-3.6,0-5.4,0
			 M761.8,442.4c-0.7,0-1.4,0-2.2,0s-1.4,0-2.2,0 M757.4,442.4c-0.6-24.1-1.2-48.3-1.8-72.4s-1.2-48.3-1.8-72.4 M762.7,655.3
			c1.6,0,3.3,0,4.9,0c1.6,0,3.3,0,4.9,0 M763.8,799.6c0.4-1.4,0.8-2.7,1.2-4.1c0.4-1.4,0.8-2.7,1.2-4.1 M766.1,790.9
			c-0.1-4.8-0.2-9.6-0.4-14.4c-0.1-4.8-0.2-9.6-0.4-14.4 M765.4,762.1c-0.1-2.8-0.1-5.5-0.2-8.3c-0.1-2.8-0.1-5.5-0.2-8.3
			 M765,745.5c-0.4-15-0.8-30.1-1.1-45.1c-0.4-15-0.8-30.1-1.1-45.1 M849,438.6L849,438.6c0.1,0.3,0.1,0.6,0.2,1
			c0.1,0.3,0.1,0.6,0.2,1c0.1,0.3,0.1,0.6,0.2,1c0.1,0.3,0.1,0.6,0.2,1 M823.2,413.4L823.2,413.4c3.1,0.7,6.1,1.8,8.9,3.3
			c2.8,1.5,5.4,3.4,7.6,5.6c2.3,2.2,4.2,4.7,5.8,7.5s2.7,5.7,3.5,8.8 M812.7,412.7l10.5,0.7 M813.9,411.7l-1.2,1 M819.7,410.1
			l-5.8,1.6 M822.1,405l-2.4,5 M822.1,404.9v0.1 M822.9,404.2l-0.8,0.7 M822.1,692.8l-0.8,4.1 M819.7,687.7l2.4,5 M815.7,686.6
			l4,1.1 M848.9,660.5L848.9,660.5c-0.9,3.7-2.4,7.2-4.4,10.5c-2,3.2-4.6,6.1-7.6,8.4c-3,2.4-6.4,4.2-10,5.4s-7.4,1.8-11.2,1.8
			 M850,655.3L850,655.3c-0.1,0.4-0.2,0.9-0.3,1.3c-0.1,0.4-0.2,0.9-0.3,1.3c-0.1,0.4-0.2,0.9-0.3,1.3c-0.1,0.4-0.2,0.9-0.3,1.3
			 M850,655.3c0.6,0,1.3,0,1.9,0s1.3,0,1.9,0 M872.5,636.8c-3.1,3.1-6.2,6.2-9.4,9.3c-3.1,3.1-6.2,6.2-9.4,9.3 M872.5,461
			c0,29.3,0,58.6,0,87.9c0,29.3,0,58.6,0,87.9 M853.8,442.4c3.1,3.1,6.2,6.2,9.4,9.3c3.1,3.1,6.2,6.2,9.4,9.3 M853.8,442.4
			c-0.7,0-1.3,0-2,0s-1.3,0-2,0 M151.4,636.8c3.1,3.1,6.2,6.2,9.4,9.3c3.1,3.1,6.2,6.2,9.4,9.3 M173.9,655.3c-0.6,0-1.3,0-1.9,0
			c-0.6,0-1.3,0-1.9,0 M173.9,655.3L173.9,655.3c0.1,0.4,0.2,0.9,0.3,1.3c0.1,0.4,0.2,0.9,0.3,1.3c0.1,0.4,0.2,0.9,0.3,1.3
			c0.1,0.4,0.2,0.9,0.3,1.3 M175.1,660.5L175.1,660.5c0.9,3.7,2.3,7.2,4.4,10.4c2,3.2,4.6,6,7.6,8.4s6.3,4.2,9.9,5.4
			c3.6,1.2,7.4,1.9,11.2,1.8 M204,687.7l4-1.1 M201.6,692.8l2.4-5 M202.5,697l-0.9-4.3 M202.5,697l-1.3,1.6 M211.4,349L201,404.2
			 M201,404.2l0.7,0.5 M201.6,405v-0.2 M204,410.1l-2.4-5 M210.1,411.8l-6.1-1.7 M210.1,411.8l1.1,0.9 M211.2,412.7l-10.5,0.7
			 M200.7,413.4L200.7,413.4c-3.1,0.7-6.1,1.8-8.9,3.3c-2.8,1.5-5.4,3.4-7.6,5.6c-2.3,2.2-4.2,4.7-5.8,7.5s-2.7,5.7-3.5,8.8
			 M174.9,438.6L174.9,438.6c-0.1,0.3-0.1,0.6-0.2,1c-0.1,0.3-0.1,0.6-0.2,1c-0.1,0.3-0.1,0.6-0.2,1c-0.1,0.3-0.1,0.6-0.2,1
			 M170.2,442.4c0.7,0,1.3,0,2,0s1.3,0,2,0 M170.2,442.4c-3.1,3.1-6.2,6.2-9.4,9.3c-3.1,3.1-6.2,6.2-9.4,9.3"/>
		<rect x="320.5" y="416.6" class="st2" width="388.8" height="263.9"/>
		<rect x="320.5" y="416.6" class="st1" width="388.8" height="263.9"/>
		<polyline class="st2" points="380.8,476.4 649,476.4 649,620.6 380.8,620.6 380.8,476.4 		"/>
		<path d="M427.9,532.9v-5.3h-27.6v-15.3h24.8V507h-24.8v-13.7h26.5V488h-32.4v44.9H427.9L427.9,532.9z M442.2,532.9V513h6.9
			c1.5,0,2.6,0.1,3.3,0.2c0.9,0.2,1.8,0.6,2.7,1.2c0.9,0.6,1.9,1.6,3,3s2.6,3.5,4.3,6.2l5.9,9.3h7.5l-7.8-12.2
			c-1.6-2.4-3.2-4.4-4.9-6c-0.8-0.7-2-1.5-3.6-2.2c4.3-0.6,7.5-2,9.6-4.2s3.1-4.9,3.1-8.1c0-2.5-0.6-4.7-1.9-6.8
			c-1.2-2-2.9-3.5-5-4.3s-5.1-1.2-9.1-1.2h-19.9v44.9h5.9V532.9z M442.2,493h14.2c3.3,0,5.8,0.7,7.3,2.1s2.3,3.1,2.3,5.2
			c0,1.4-0.4,2.8-1.2,4c-0.8,1.2-2,2.1-3.5,2.7s-3.7,0.8-6.4,0.8h-12.8V493H442.2z M482.8,532.9l4.9-13.6h18.8l5.2,13.6h6.8
			L500.1,488h-6.4l-17.2,44.9H482.8L482.8,532.9z M494.4,501.3c1-2.8,1.8-5.7,2.4-8.6c0.7,2.4,1.8,5.5,3.2,9.3l4.7,12.4h-15.2
			L494.4,501.3L494.4,501.3z M540.6,512.6c-1.5,2-2.2,4.4-2.2,7.3c0,3.9,1.4,7.2,4.1,9.8c2.7,2.6,6.3,3.9,10.7,3.9s8-1.3,10.7-3.9
			c2.7-2.6,4.1-5.8,4.1-9.7c0-2.8-0.7-5.2-2.2-7.2c-1.4-2-3.5-3.4-6.3-4.3c2.2-0.8,3.9-2,5-3.6c1.1-1.5,1.6-3.4,1.6-5.4
			c0-3.3-1.2-6-3.6-8.3c-2.4-2.3-5.5-3.4-9.5-3.4c-3.9,0-7,1.1-9.4,3.3c-2.3,2.2-3.5,5-3.5,8.2c0,2.2,0.6,4,1.7,5.6
			c1.1,1.6,2.8,2.7,5.1,3.6C544.2,509.2,542.1,510.6,540.6,512.6L540.6,512.6z M547.9,494.4c1.4-1.3,3.1-2,5.2-2
			c2.1,0,3.8,0.7,5.2,2.1s2.1,3.1,2.1,5.1c0,1.9-0.7,3.6-2,4.9c-1.4,1.3-3.1,2-5.2,2c-2.2,0-4-0.7-5.3-2c-1.4-1.3-2.1-3.1-2.1-5.2
			C545.8,497.3,546.5,495.7,547.9,494.4L547.9,494.4z M546.6,513.5c1.7-1.7,3.9-2.6,6.4-2.6c2.7,0,4.9,0.9,6.6,2.6
			c1.8,1.7,2.6,3.9,2.6,6.6c0,2.6-0.9,4.8-2.6,6.5c-1.7,1.7-3.9,2.5-6.5,2.5c-1.7,0-3.3-0.4-4.7-1.2c-1.5-0.8-2.6-1.9-3.3-3.4
			s-1.1-3-1.1-4.6C544,517.4,544.9,515.2,546.6,513.5L546.6,513.5z M577.7,529c2.5,3.1,5.9,4.7,10.2,4.7c3.3,0,6-0.9,8.2-2.6
			c2.2-1.8,3.8-4.3,4.9-7.5c1.1-3.2,1.6-7.5,1.6-12.8c0-4.4-0.3-8-1-10.6s-1.6-4.8-2.8-6.7c-1.2-1.8-2.7-3.2-4.5-4.2
			s-3.9-1.5-6.3-1.5c-3.3,0-6,0.9-8.1,2.6c-2.2,1.8-3.8,4.3-4.9,7.5c-1.1,3.2-1.6,7.5-1.6,12.8C573.3,519.2,574.8,525.2,577.7,529
			L577.7,529L577.7,529z M581.8,495.6c1.5-2.1,3.5-3.2,6.1-3.2s4.7,1.2,6.4,3.6s2.6,7.3,2.6,14.7c0,7.3-0.9,12.2-2.6,14.7
			c-1.7,2.4-3.9,3.7-6.4,3.7s-4.7-1.2-6.4-3.7c-1.7-2.4-2.6-7.3-2.6-14.7C579,503.4,579.9,498.3,581.8,495.6L581.8,495.6
			L581.8,495.6z M612.6,529c2.5,3.1,5.9,4.7,10.2,4.7c3.3,0,6-0.9,8.2-2.6c2.2-1.8,3.8-4.3,4.9-7.5c1.1-3.2,1.6-7.5,1.6-12.8
			c0-4.4-0.3-8-1-10.6s-1.6-4.8-2.8-6.7c-1.2-1.8-2.7-3.2-4.5-4.2s-3.9-1.5-6.3-1.5c-3.3,0-6,0.9-8.1,2.6c-2.2,1.8-3.8,4.3-4.9,7.5
			c-1.1,3.2-1.6,7.5-1.6,12.8C608.2,519.2,609.6,525.2,612.6,529L612.6,529L612.6,529z M616.7,495.6c1.5-2.1,3.5-3.2,6.1-3.2
			s4.7,1.2,6.4,3.6s2.6,7.3,2.6,14.7c0,7.3-0.9,12.2-2.6,14.7c-1.7,2.4-3.9,3.7-6.4,3.7s-4.7-1.2-6.4-3.7c-1.7-2.4-2.6-7.3-2.6-14.7
			C613.8,503.4,614.8,498.3,616.7,495.6L616.7,495.6L616.7,495.6z"/>
		<path d="M391.6,605v-18.2h11.5c6.3,0,10.7-1.3,13.2-4c2.4-2.6,3.6-5.9,3.6-9.7c0-2.2-0.5-4.3-1.4-6.1c-0.9-1.9-2.1-3.3-3.6-4.3
			s-3.3-1.7-5.5-2.1c-1.6-0.3-3.8-0.4-6.8-0.4h-16.9V605H391.6L391.6,605z M391.6,565.4h11.5c2.7,0,4.5,0.1,5.5,0.4
			c1.6,0.4,2.8,1.3,3.8,2.6c0.9,1.3,1.4,2.9,1.4,4.8c0,2.6-0.8,4.6-2.4,6s-4.3,2.1-8.2,2.1h-11.6L391.6,565.4L391.6,565.4z
			 M433.5,605v-20h6.9c1.5,0,2.6,0.1,3.3,0.2c0.9,0.2,1.8,0.6,2.7,1.2c0.9,0.6,1.9,1.6,3,3s2.6,3.5,4.3,6.2l5.9,9.3h7.5l-7.8-12.2
			c-1.6-2.4-3.2-4.4-4.9-6c-0.8-0.7-2-1.5-3.6-2.2c4.3-0.6,7.5-2,9.6-4.2s3.1-4.9,3.1-8.1c0-2.5-0.6-4.7-1.9-6.8
			c-1.2-2-2.9-3.5-5-4.3s-5.1-1.2-9.1-1.2h-19.9V605H433.5L433.5,605z M433.5,565.1h14.2c3.3,0,5.8,0.7,7.3,2.1
			c1.5,1.4,2.3,3.1,2.3,5.2c0,1.4-0.4,2.8-1.2,4c-0.8,1.2-2,2.1-3.5,2.7c-1.5,0.6-3.7,0.8-6.4,0.8h-12.8v-14.8H433.5z M473.5,594.3
			c1.7,3.5,4.2,6.3,7.6,8.4c3.3,2,7.1,3.1,11.3,3.1c3.9,0,7.5-0.9,10.9-2.8c3.4-1.8,6-4.6,7.8-8.2c1.8-3.6,2.8-7.7,2.8-12.2
			s-0.9-8.5-2.6-12c-1.7-3.5-4.3-6.3-7.6-8.3c-3.3-2-7.1-3-11.2-3c-6.3,0-11.5,2.1-15.5,6.3s-6,10-6,17.5
			C470.9,587.1,471.8,590.8,473.5,594.3L473.5,594.3z M481.6,568.7c3-2.9,6.6-4.3,10.9-4.3c3,0,5.6,0.8,8,2.2
			c2.4,1.5,4.2,3.6,5.4,6.3c1.2,2.7,1.9,5.9,1.9,9.6c0,5.8-1.4,10.2-4.3,13.4c-2.9,3.1-6.6,4.7-11,4.7s-8-1.6-10.9-4.7
			c-2.9-3.1-4.4-7.4-4.4-12.8C477,576.4,478.6,571.6,481.6,568.7L481.6,568.7z M527.7,605v-20.4h21.1v-5.3h-21.1v-13.9H552v-5.3
			h-30.3V605H527.7L527.7,605z M566.7,605v-44.9h-5.9V605H566.7L566.7,605z M605,605v-5.3h-22.1v-39.6H577V605H605L605,605z
			 M645.7,605v-5.3h-27.6v-15.3H643v-5.3h-24.8v-13.7h26.5v-5.3h-32.4V605H645.7L645.7,605z"/>
	</g>
</g>
</svg>
