<?xml version="1.0" encoding="UTF-8"?>
<svg id="EXT_Linear_Pro_DV_QUAD_-_Thumbnail" data-name="EXT Linear Pro DV QUAD - Thumbnail" xmlns="http://www.w3.org/2000/svg" viewBox="0 0 1024 1024">
  <defs>
    <style>
      .cls-1, .cls-2 {
        fill: #fff;
      }

      .cls-2, .cls-3 {
        fill-rule: evenodd;
      }

      .cls-4, .cls-5 {
        fill: none;
        stroke: #000;
        stroke-linecap: round;
        stroke-linejoin: round;
      }

      .cls-5 {
        stroke-width: .15px;
      }

      .cls-6, .cls-3 {
        fill: #ccc;
      }
    </style>
  </defs>
  <g id="_1FT" data-name="1FT">
    <rect class="cls-6" x="36.87" y="451.31" width="949.96" height="121.84"/>
    <rect class="cls-4" x="36.87" y="451.31" width="949.96" height="121.84"/>
    <path class="cls-3" d="M836.25,512.24c0-18.88-15.54-34.42-34.42-34.42s-34.42,15.54-34.42,34.42,15.54,34.42,34.42,34.42,34.42-15.54,34.42-34.42"/>
    <path class="cls-5" d="M836.25,512.24c0-18.88-15.54-34.42-34.42-34.42s-34.42,15.54-34.42,34.42,15.54,34.42,34.42,34.42,34.42-15.54,34.42-34.42"/>
    <path class="cls-3" d="M720.26,512.23c0-18.88-15.54-34.42-34.42-34.42s-34.42,15.54-34.42,34.42,15.54,34.42,34.42,34.42,34.42-15.54,34.42-34.42"/>
    <path class="cls-5" d="M720.26,512.23c0-18.88-15.54-34.42-34.42-34.42s-34.42,15.54-34.42,34.42,15.54,34.42,34.42,34.42,34.42-15.54,34.42-34.42"/>
    <path class="cls-3" d="M604.26,512.23c0-18.88-15.54-34.42-34.42-34.42s-34.42,15.54-34.42,34.42,15.54,34.42,34.42,34.42,34.42-15.54,34.42-34.42"/>
    <path class="cls-5" d="M604.26,512.23c0-18.88-15.54-34.42-34.42-34.42s-34.42,15.54-34.42,34.42,15.54,34.42,34.42,34.42,34.42-15.54,34.42-34.42"/>
    <path class="cls-3" d="M488.27,512.23c0-18.88-15.54-34.42-34.42-34.42s-34.42,15.54-34.42,34.42,15.54,34.42,34.42,34.42,34.42-15.54,34.42-34.42"/>
    <path class="cls-5" d="M488.27,512.23c0-18.88-15.54-34.42-34.42-34.42s-34.42,15.54-34.42,34.42,15.54,34.42,34.42,34.42,34.42-15.54,34.42-34.42"/>
    <path class="cls-3" d="M372.28,512.23c0-18.88-15.54-34.42-34.42-34.42s-34.42,15.54-34.42,34.42,15.54,34.42,34.42,34.42,34.42-15.54,34.42-34.42"/>
    <path class="cls-5" d="M372.28,512.23c0-18.88-15.54-34.42-34.42-34.42s-34.42,15.54-34.42,34.42,15.54,34.42,34.42,34.42,34.42-15.54,34.42-34.42"/>
    <path class="cls-3" d="M256.29,512.22c0-18.88-15.54-34.42-34.42-34.42s-34.42,15.54-34.42,34.42,15.54,34.42,34.42,34.42,34.42-15.54,34.42-34.42"/>
    <path class="cls-5" d="M256.29,512.22c0-18.88-15.54-34.42-34.42-34.42s-34.42,15.54-34.42,34.42,15.54,34.42,34.42,34.42,34.42-15.54,34.42-34.42"/>
    <path class="cls-3" d="M140.29,512.22c0-18.88-15.54-34.42-34.42-34.42s-34.42,15.54-34.42,34.42,15.54,34.42,34.42,34.42,34.42-15.54,34.42-34.42"/>
    <path class="cls-5" d="M140.29,512.22c0-18.88-15.54-34.42-34.42-34.42s-34.42,15.54-34.42,34.42,15.54,34.42,34.42,34.42,34.42-15.54,34.42-34.42"/>
    <path class="cls-3" d="M952.62,512.24c0-18.88-15.54-34.42-34.42-34.42s-34.42,15.54-34.42,34.42,15.54,34.42,34.42,34.42,34.42-15.54,34.42-34.42"/>
    <path class="cls-4" d="M952.62,512.24c0-18.88-15.54-34.42-34.42-34.42s-34.42,15.54-34.42,34.42,15.54,34.42,34.42,34.42,34.42-15.54,34.42-34.42M36.87,469.46H986.83M36.87,554.98l949.96,.05"/>
    <rect class="cls-1" x="207.37" y="466.56" width="608.95" height="91.34"/>
    <rect class="cls-4" x="207.37" y="466.56" width="608.95" height="91.34"/>
    <polyline class="cls-2" points="256.36 493.7 767.34 493.7 767.34 530.76 256.36 530.76 256.36 493.7"/>
    <path d="M276.12,522.7v-2.72h-14.16v-7.85h12.76v-2.71h-12.76v-7.06h13.63v-2.72h-16.68v23.07h17.21Zm5.4,0l4.39-6.59,.91,1.4,3.43,5.19h3.48l-6.21-8.84,5.77-7.87h-3.38l-2.82,3.95c-.39,.53-.81,1.15-1.27,1.84-.29-.5-.68-1.13-1.16-1.87l-2.56-3.92h-3.54l5.65,8.02-6.1,8.69h3.43Zm19.51-2.42c-.42,0-.74-.07-.97-.2-.23-.14-.39-.32-.49-.55-.1-.23-.15-.75-.15-1.56v-9.77h2.85v-2.2h-2.85v-5.84l-2.82,1.7v4.14h-2.08v2.2h2.08v9.61c0,1.7,.12,2.81,.35,3.34,.23,.53,.63,.96,1.2,1.28,.57,.32,1.36,.49,2.39,.49,.63,0,1.34-.08,2.14-.25l-.41-2.5c-.51,.07-.93,.11-1.24,.11h0Zm13.7-.35c-.73,.55-1.62,.82-2.66,.82-1.4,0-2.56-.49-3.49-1.46-.93-.98-1.45-2.38-1.56-4.22h12.46c.01-.34,.02-.59,.02-.76,0-2.76-.71-4.9-2.12-6.42-1.42-1.52-3.24-2.28-5.48-2.28s-4.19,.78-5.63,2.33c-1.45,1.55-2.17,3.73-2.17,6.55s.72,4.83,2.15,6.33c1.43,1.51,3.37,2.26,5.81,2.26,1.94,0,3.53-.47,4.78-1.42,1.25-.94,2.1-2.27,2.56-3.98l-2.93-.36c-.43,1.2-1.01,2.07-1.75,2.61h0Zm-6.08-10.68c.89-.87,1.98-1.31,3.28-1.31,1.44,0,2.61,.55,3.51,1.64,.59,.7,.94,1.76,1.07,3.16h-9.33c.09-1.46,.58-2.62,1.47-3.49h0Zm17.11,13.45v-8.75c0-1.2,.16-2.3,.47-3.3,.21-.66,.56-1.18,1.05-1.55,.49-.37,1.05-.56,1.67-.56,.69,0,1.38,.2,2.08,.61l.98-2.63c-.99-.61-1.96-.91-2.91-.91-.66,0-1.27,.19-1.82,.57s-1.15,1.16-1.8,2.34v-2.53h-2.55v16.71h2.83Zm10.78-19.81v-3.26h-2.83v3.26h2.83Zm0,19.81v-16.71h-2.83v16.71h2.83Zm5.42-1.87c1.44,1.5,3.33,2.25,5.67,2.25,1.46,0,2.8-.34,4.04-1.02,1.23-.68,2.17-1.64,2.82-2.87,.65-1.23,.97-2.92,.97-5.07,0-2.65-.73-4.73-2.19-6.24-1.46-1.51-3.34-2.26-5.63-2.26-2.07,0-3.82,.62-5.26,1.86-1.72,1.49-2.58,3.78-2.58,6.88,0,2.82,.72,4.98,2.16,6.48h0Zm2.15-11.28c.93-1.06,2.11-1.59,3.52-1.59s2.56,.53,3.5,1.6c.94,1.06,1.41,2.63,1.41,4.7,0,2.19-.47,3.82-1.4,4.89-.93,1.07-2.1,1.6-3.51,1.6s-2.59-.53-3.52-1.6c-.93-1.06-1.4-2.67-1.4-4.81s.47-3.74,1.4-4.8h0Zm17.46,13.15v-8.75c0-1.2,.16-2.3,.47-3.3,.21-.66,.56-1.18,1.05-1.55,.49-.37,1.05-.56,1.67-.56,.69,0,1.38,.2,2.08,.61l.98-2.63c-.99-.61-1.96-.91-2.91-.91-.66,0-1.27,.19-1.82,.57s-1.15,1.16-1.8,2.34v-2.53h-2.55v16.71h2.83Zm31.53,0v-2.72h-11.36v-20.34h-3.05v23.07h14.41Zm6.12-19.81v-3.26h-2.83v3.26h2.83Zm0,19.81v-16.71h-2.83v16.71h2.83Zm7.14,0v-9.13c0-2.14,.44-3.59,1.31-4.36,.88-.77,1.92-1.15,3.12-1.15,.76,0,1.41,.17,1.97,.51,.56,.34,.95,.8,1.17,1.37,.22,.57,.33,1.43,.33,2.59v10.16h2.83v-10.27c0-1.31-.05-2.23-.16-2.75-.17-.81-.46-1.51-.88-2.09-.42-.59-1.05-1.06-1.9-1.42-.84-.36-1.77-.54-2.78-.54-2.32,0-4.09,.92-5.32,2.75v-2.38h-2.55v16.71h2.83Zm24.78-2.77c-.73,.55-1.62,.82-2.66,.82-1.4,0-2.56-.49-3.49-1.46-.93-.98-1.45-2.38-1.56-4.22h12.46c.01-.34,.02-.59,.02-.76,0-2.76-.71-4.9-2.12-6.42-1.42-1.52-3.24-2.28-5.48-2.28s-4.19,.78-5.63,2.33c-1.45,1.55-2.17,3.73-2.17,6.55s.72,4.83,2.15,6.33c1.43,1.51,3.37,2.26,5.81,2.26,1.94,0,3.53-.47,4.78-1.42,1.25-.94,2.1-2.27,2.56-3.98l-2.93-.36c-.43,1.2-1.01,2.07-1.75,2.61h0Zm-6.08-10.68c.89-.87,1.98-1.31,3.28-1.31,1.44,0,2.61,.55,3.51,1.64,.59,.7,.94,1.76,1.07,3.16h-9.33c.09-1.46,.58-2.62,1.47-3.49h0Zm25.78,13.45h2.96c-.36-.64-.6-1.31-.72-2.01-.12-.7-.18-2.36-.18-5v-3.78c0-1.26-.05-2.13-.14-2.61-.17-.78-.46-1.42-.88-1.93-.42-.51-1.08-.93-1.97-1.27-.89-.34-2.05-.5-3.48-.5s-2.7,.2-3.79,.59c-1.09,.39-1.93,.95-2.5,1.68-.58,.73-.99,1.69-1.24,2.87l2.77,.38c.3-1.19,.77-2.01,1.41-2.48,.63-.47,1.62-.7,2.95-.7,1.43,0,2.5,.32,3.23,.96,.53,.47,.8,1.29,.8,2.44,0,.1,0,.35-.02,.74-1.08,.38-2.76,.7-5.05,.98-1.12,.14-1.96,.28-2.52,.42-.76,.21-1.43,.52-2.04,.93-.6,.41-1.09,.95-1.46,1.63-.37,.68-.56,1.42-.56,2.24,0,1.4,.49,2.54,1.48,3.44,.99,.9,2.4,1.35,4.23,1.35,1.11,0,2.15-.18,3.12-.55,.97-.37,1.98-1,3.03-1.89,.08,.79,.27,1.47,.57,2.06h0Zm-.8-7.35c0,1.25-.15,2.19-.46,2.83-.4,.83-1.02,1.48-1.87,1.96-.85,.48-1.82,.72-2.91,.72s-1.94-.25-2.51-.76c-.57-.5-.86-1.13-.86-1.89,0-.49,.13-.94,.39-1.35,.26-.4,.63-.71,1.12-.92,.48-.21,1.31-.4,2.47-.57,2.06-.29,3.6-.65,4.63-1.07v1.04h0Zm10.05,7.35v-8.75c0-1.2,.16-2.3,.47-3.3,.21-.66,.56-1.18,1.05-1.55,.49-.37,1.05-.56,1.67-.56,.69,0,1.38,.2,2.08,.61l.98-2.63c-.99-.61-1.96-.91-2.91-.91-.66,0-1.27,.19-1.82,.57s-1.15,1.16-1.8,2.34v-2.53h-2.55v16.71h2.83Zm20.3,0v-9.38h5.92c3.26,0,5.52-.68,6.77-2.04,1.25-1.36,1.87-3.02,1.87-4.98,0-1.14-.23-2.19-.7-3.15-.47-.95-1.08-1.7-1.85-2.23-.77-.53-1.72-.89-2.85-1.08-.81-.15-1.98-.22-3.51-.22h-8.7v23.07h3.05Zm0-20.34h5.9c1.38,0,2.33,.07,2.85,.2,.8,.22,1.44,.67,1.93,1.36,.49,.69,.73,1.51,.73,2.48,0,1.33-.41,2.37-1.24,3.1-.83,.73-2.23,1.1-4.2,1.1h-5.96v-8.24h0Zm20.88,20.34v-8.75c0-1.2,.16-2.3,.47-3.3,.21-.66,.56-1.18,1.05-1.55,.49-.37,1.05-.56,1.67-.56,.69,0,1.38,.2,2.08,.61l.98-2.63c-.99-.61-1.96-.91-2.91-.91-.66,0-1.27,.19-1.82,.57s-1.15,1.16-1.8,2.34v-2.53h-2.55v16.71h2.83Zm9.04-1.87c1.44,1.5,3.33,2.25,5.67,2.25,1.46,0,2.8-.34,4.04-1.02,1.23-.68,2.17-1.64,2.82-2.87,.65-1.23,.97-2.92,.97-5.07,0-2.65-.73-4.73-2.19-6.24-1.46-1.51-3.34-2.26-5.63-2.26-2.07,0-3.82,.62-5.26,1.86-1.72,1.49-2.58,3.78-2.58,6.88,0,2.82,.72,4.98,2.16,6.48h0Zm2.15-11.28c.93-1.06,2.11-1.59,3.52-1.59s2.56,.53,3.5,1.6c.94,1.06,1.41,2.63,1.41,4.7,0,2.19-.47,3.82-1.4,4.89-.93,1.07-2.1,1.6-3.51,1.6s-2.59-.53-3.52-1.6c-.93-1.06-1.4-2.67-1.4-4.81s.47-3.74,1.4-4.8h0Zm32.3,13.15c1.39,0,2.63-.13,3.71-.39,1.08-.26,1.99-.65,2.75-1.16,.76-.51,1.46-1.21,2.1-2.09,.64-.89,1.16-2.01,1.57-3.36s.61-2.91,.61-4.66c0-2.06-.3-3.88-.9-5.48-.6-1.6-1.51-2.91-2.73-3.94-.93-.8-2.06-1.35-3.38-1.65-.94-.22-2.31-.33-4.11-.33h-7.95v23.07h8.32Zm-5.27-20.34h4.85c1.81,0,3.13,.16,3.95,.47,1.13,.44,2.1,1.31,2.89,2.6,.79,1.3,1.19,3.15,1.19,5.56,0,1.74-.2,3.22-.61,4.44-.4,1.22-.97,2.19-1.69,2.92-.51,.51-1.2,.91-2.07,1.2s-2.06,.42-3.58,.42h-4.92v-17.62h0Zm29.94,20.34l9.03-23.07h-3.12l-6.23,16.76c-.47,1.26-.89,2.52-1.24,3.78-.33-1.17-.73-2.43-1.21-3.78l-5.99-16.76h-3.3l8.94,23.07h3.13Zm40.81-6.43c.58-1.52,.87-3.22,.87-5.12,0-2.29-.45-4.34-1.35-6.16-.9-1.82-2.2-3.24-3.91-4.25-1.71-1.01-3.63-1.52-5.76-1.52s-4.01,.49-5.72,1.46c-1.7,.98-3.02,2.4-3.94,4.26-.92,1.87-1.38,3.94-1.38,6.21s.46,4.34,1.38,6.17c.92,1.83,2.23,3.24,3.93,4.25s3.59,1.51,5.68,1.51,3.95-.48,5.66-1.43c1.65,1.29,3.3,2.23,4.96,2.83l.9-2.12c-1.2-.45-2.5-1.16-3.92-2.14,1.16-1.12,2.03-2.44,2.61-3.96h0Zm-10.07,2.27c1.06,.26,2.07,.7,3.02,1.32-.97,.41-1.99,.61-3.08,.61-2.31,0-4.2-.8-5.69-2.41-1.48-1.6-2.23-3.91-2.23-6.91s.75-5.42,2.25-6.98c1.5-1.56,3.39-2.34,5.66-2.34,1.52,0,2.89,.39,4.11,1.16,1.22,.77,2.15,1.85,2.78,3.25,.63,1.4,.95,3.03,.95,4.89,0,3.28-.9,5.74-2.69,7.38-1.14-.98-2.6-1.71-4.36-2.2l-.74,2.22h0Zm30.18-5.6c0,2.9-.48,4.85-1.43,5.87-.95,1.02-2.55,1.53-4.8,1.53-1.31,0-2.42-.26-3.33-.77-.91-.51-1.55-1.25-1.92-2.19-.37-.95-.56-2.43-.56-4.43v-13.31h-3.05v13.33c0,2.44,.29,4.37,.88,5.78,.59,1.41,1.57,2.49,2.94,3.23,1.37,.74,3.14,1.12,5.3,1.12s4.02-.43,5.39-1.28c1.37-.85,2.32-1.96,2.84-3.33,.52-1.36,.79-3.2,.79-5.52v-13.33h-3.05v13.31h0Zm8.84,9.76l2.53-6.99h9.64l2.69,6.99h3.48l-9.44-23.07h-3.29l-8.86,23.07h3.24Zm5.95-16.24c.53-1.46,.95-2.93,1.24-4.41,.36,1.25,.9,2.84,1.64,4.78l2.41,6.39h-7.82l2.53-6.77h0Zm23.16,16.24c1.39,0,2.63-.13,3.71-.39,1.08-.26,1.99-.65,2.75-1.16,.76-.51,1.46-1.21,2.1-2.09,.64-.89,1.16-2.01,1.57-3.36s.61-2.91,.61-4.66c0-2.06-.3-3.88-.9-5.48-.6-1.6-1.51-2.91-2.73-3.94-.93-.8-2.06-1.35-3.38-1.65-.94-.22-2.31-.33-4.11-.33h-7.95v23.07h8.32Zm-5.27-20.34h4.85c1.81,0,3.13,.16,3.95,.47,1.13,.44,2.1,1.31,2.89,2.6,.79,1.3,1.19,3.15,1.19,5.56,0,1.74-.2,3.22-.61,4.44-.4,1.22-.97,2.19-1.69,2.92-.51,.51-1.2,.91-2.07,1.2s-2.06,.42-3.58,.42h-4.92v-17.62h0Zm36.41,13.42v-2.85h-8.7v2.85h8.7Zm21.96-16.24h-1.83c-.49,1-1.33,2.02-2.52,3.08-1.19,1.06-2.57,1.96-4.15,2.71v2.74c.88-.33,1.87-.81,2.98-1.46,1.11-.65,2-1.3,2.68-1.95v18.05h2.83v-23.16h0Zm11.61,23.16v-10.48h10.83v-2.72h-10.83v-7.14h12.51v-2.72h-15.56v23.07h3.05Zm25.39,0v-20.34h7.63v-2.72h-18.28v2.72h7.6v20.34h3.05Z"/>
  </g>
</svg>