<svg id="ERA_800" data-name="ERA 800" xmlns="http://www.w3.org/2000/svg" viewBox="0 0 1024 1024"><defs><style>.cls-1{fill:#ccc;}.cls-1,.cls-2,.cls-3,.cls-4,.cls-5{stroke:#000;stroke-width:1.66px;}.cls-1,.cls-3,.cls-4,.cls-5{stroke-miterlimit:10;}.cls-1,.cls-4{fill-rule:evenodd;}.cls-2{fill:none;stroke-linecap:round;stroke-linejoin:round;}.cls-3,.cls-4{fill:#fff;}</style></defs><path class="cls-1" d="M791.09,707h0a144.8,144.8,0,0,0,49.61-52.9c.19-.71.37-1.42.56-2.13l.54-2.13c.19-.72.37-1.43.54-2.14s.36-1.42.53-2.14h8.86l8.38-8.28,8.38-8.28V436.84l-8.38-8.28-8.38-8.28h-8.57l-.6-2.43c-.2-.81-.4-1.62-.61-2.43s-.41-1.61-.62-2.42l-.63-2.42A121.51,121.51,0,0,0,793.34,359l-12.44-5.7,9.16,45.62-18-81.49-19-18h-.61l-.21,0-4.18-107.16L744,169.07,696.14,86.12l-62.78-.28h57.06L661.85,9.64H362.15l-28.57,76.2h55l-60.73.28L280,169.07l-4.11,23.2-4.19,107.17-.65,0-18.95,18-16.85,83.06,7.88-47.19L230.66,359a121.71,121.71,0,0,0-47.36,51.56l-.63,2.42c-.21.81-.42,1.61-.62,2.42s-.41,1.62-.61,2.43l-.6,2.43h-8.56l-8.39,8.28-8.38,8.28V629l8.38,8.28,8.39,8.28h8.85c.17.72.35,1.43.53,2.14s.35,1.42.54,2.14l.54,2.13c.19.71.37,1.42.56,2.13A144.75,144.75,0,0,0,232.91,707l10.18,4.77-9.33-49.41,18.31,86,7.74,7.34.92,53.77L273.3,855l14.43,74,63.8,64.68q19.29,5.11,38.87,9t39.37,6.47q19.78,2.59,39.7,3.92t39.87,1.37h5.32q20,0,39.87-1.37t39.7-3.92q19.78-2.61,39.37-6.47t38.87-9l63.81-64.68,14.42-74,12.57-45.46.91-53.61,7.91-7.5,17.56-86.53-8.74,49.91L791.09,707m-7.17-297.27h0a30.25,30.25,0,0,1,18.31,6.08,30.59,30.59,0,0,1,4.76,4.48H760.8l3.92-5.12,19.2-5.44M217,420.28h0a30.19,30.19,0,0,1,23.24-10.56l19.19,5.44,3.92,5.12H217M806,645.55h0a30.09,30.09,0,0,1-7.09,5.47,29.38,29.38,0,0,1-4.07,1.88,30.46,30.46,0,0,1-4.31,1.27l-9.35.63,1,.79L766,651l0-1.37-.16-4.1H806m-547.8,0-.16,4.1,0,1.42-16.21,4.59,1-.86-9.35-.63a30.46,30.46,0,0,1-4.31-1.27,29.38,29.38,0,0,1-4.07-1.88,30,30,0,0,1-3.75-2.47,30.68,30.68,0,0,1-3.34-3h40.12"/><path class="cls-2" d="M791.09,707h0a144.8,144.8,0,0,0,49.61-52.9c.19-.71.37-1.42.56-2.13l.54-2.13c.19-.72.37-1.43.54-2.14s.36-1.42.53-2.14h8.86l8.38-8.28,8.38-8.28V436.84l-8.38-8.28-8.38-8.28h-8.57l-.6-2.43c-.2-.81-.4-1.62-.61-2.43s-.41-1.61-.62-2.42l-.63-2.42A121.51,121.51,0,0,0,793.34,359l-12.44-5.7,9.16,45.62-18-81.49-19-18h-.61l-.21,0-4.18-107.16L744,169.07,696.14,86.12l-62.78-.28h57.06L661.85,9.64H362.15l-28.57,76.2h55l-60.73.28L280,169.07l-4.11,23.2-4.19,107.17-.65,0-18.95,18-16.85,83.06,7.88-47.19L230.66,359a121.71,121.71,0,0,0-47.36,51.56l-.63,2.42c-.21.81-.42,1.61-.62,2.42s-.41,1.62-.61,2.43l-.6,2.43h-8.56l-8.39,8.28-8.38,8.28V629l8.38,8.28,8.39,8.28h8.85c.17.72.35,1.43.53,2.14s.35,1.42.54,2.14l.54,2.13c.19.71.37,1.42.56,2.13A144.75,144.75,0,0,0,232.91,707l10.18,4.77-9.33-49.41,18.31,86,7.74,7.34.92,53.77L273.3,855l14.43,74,63.8,64.68q19.29,5.11,38.87,9t39.37,6.47q19.78,2.59,39.7,3.92t39.87,1.37h5.32q20,0,39.87-1.37t39.7-3.92q19.78-2.61,39.37-6.47t38.87-9l63.81-64.68,14.42-74,12.57-45.46.91-53.61,7.91-7.5,17.56-86.53-8.74,49.91L791.09,707m-7.17-297.27h0a30.25,30.25,0,0,1,18.31,6.08,30.59,30.59,0,0,1,4.76,4.48H760.8l3.92-5.12,19.2-5.44M217,420.28h0a30.19,30.19,0,0,1,23.24-10.56l19.19,5.44,3.92,5.12H217M806,645.55h0a30.09,30.09,0,0,1-7.09,5.47,29.38,29.38,0,0,1-4.07,1.88,30.46,30.46,0,0,1-4.31,1.27l-9.35.63,1,.79L766,651l0-1.37-.16-4.1H806m-547.8,0-.16,4.1,0,1.42-16.21,4.59,1-.86-9.35-.63a30.46,30.46,0,0,1-4.31-1.27,29.38,29.38,0,0,1-4.07-1.88,30,30,0,0,1-3.75-2.47,30.68,30.68,0,0,1-3.34-3h40.12"/><path class="cls-2" d="M763.3,580.5l-1.2-30.79m-500.2,0-1.2,30.79M258,649.65l1.86,108.74m.84-177.89L258,649.65m508,0-2.7-69.15m.84,177.89L766,649.65M327.86,86.12l92.07-.41L512,85.29m236.14,107,7,178.2q3.49,89.47,7,179.24M512,85.29l41.49.19,46.22.21,33.65.15m-242.72,0,33.65-.15,46.22-.21L512,85.29M204.34,464.68l27.17,0m-28.12,4.45a10.62,10.62,0,0,1,.22-2.47,6.72,6.72,0,0,1,.73-2m-.94,5.17v-.68m0,63.75V469.85m0,63.07V596m0,0v.68m0,0a10.62,10.62,0,0,0,.22,2.47,6.72,6.72,0,0,0,.73,2m0,0,27.17,0m0,31.93-30.17,0m30.17-200.3-30.17,0m613.33,168.4-26.56,0m27.51-4.46a10.62,10.62,0,0,1-.23,2.47,7,7,0,0,1-.72,2m.94-5.17v.68m0-63.74V596m0-63.06V469.85m0,0v-.68m0,0a10.62,10.62,0,0,0-.23-2.47,7,7,0,0,0-.72-2m-26.56-31.89,29.55,0m-29.55,200.3,29.55,0m29,0q2.94-1.67,6.8-7.22T858.76,611A97.73,97.73,0,0,0,860,595.3M846.7,633.09h-29m0,0q2.94-1.67,6.81-7.22T829.72,611A95.46,95.46,0,0,0,831,595.3M172.31,432.75q-2.94,1.65-6.81,7.21t-5.25,14.91A95.46,95.46,0,0,0,159,470.53m13.32-37.78h29m0,0q-2.94,1.65-6.8,7.21t-5.26,14.91A97.73,97.73,0,0,0,188,470.53M172.31,633.09h29m-29,0q-2.94-1.67-6.81-7.22T160.25,611A95.46,95.46,0,0,1,159,595.3m42.35,37.79q-2.94-1.67-6.8-7.22T189.28,611A97.73,97.73,0,0,1,188,595.3M846.7,432.75h-29m29,0q2.94,1.65,6.8,7.21t5.26,14.91A97.73,97.73,0,0,1,860,470.53m-42.36-37.78q2.94,1.65,6.81,7.21t5.25,14.91A95.46,95.46,0,0,1,831,470.53M860,595.3H831m0,0V532.92m29,62.38V532.92M159,470.53v62.39m0-62.39h29m0,0v62.39m672-62.39H831m29,0v62.39m-29-62.39v62.39M188,595.3V532.92M159,595.3h29m-29,0V532.92m655.68-68.24-26.56,0M234,645.55h1.26m0-225.27H234M815.6,532.92V501.38q0-15.76,0-31.53m0,63.07v31.53q0,15.76,0,31.53m0,0v.34c0,.12,0,.23,0,.34m0,0a10.81,10.81,0,0,1-.21,2.49,7,7,0,0,1-.74,2m0,0H788.11m0,31.93V601.12m0,31.93h28.32M790,645.55h6.94M790,420.28h6.94m19.51,12.5H788.11m0,31.93V432.79m0,31.93h26.56m1,4.46a10.81,10.81,0,0,0-.21-2.49,7.09,7.09,0,0,0-.74-2m.94,5.17v-.34c0-.11,0-.23,0-.34M203.4,532.92V596m0-63.06V469.85m0,0c0-.11,0-.23,0-.34v-.34m0,0a10.81,10.81,0,0,1,.21-2.49,6.52,6.52,0,0,1,.74-2m0,0h27.17m0-31.93v31.93m0-31.93H207.57M234,420.28h-6.94M234,645.55h-6.94m-19.51-12.5h23.94m0-31.93v31.93m0-31.93H204.34m-1-4.46a10.81,10.81,0,0,0,.21,2.49,6.43,6.43,0,0,0,.74,2M203.4,596c0,.11,0,.23,0,.34v.34m47.18-159.82h1.25M790,645.55h-1.26M772.18,629h1.25m0-192.15h-1.25m16.54-16.56H790M172.31,432.75h29m-29,0a11.19,11.19,0,0,0-1.21.77,14.59,14.59,0,0,0-1.17.94c-.39.35-.77.71-1.14,1.11s-.74.82-1.1,1.27m4.59-16.56h54.8m-25.35,12.51h5.84m-5.81,0h-.41m616.34,0h1.83m-3.09,0h1.26m-1.26,0q-4.83-3.21-9.71-6.34t-9.8-6.16m54.81,0H796.92m49.78,12.47a11.63,11.63,0,0,1,1.23.79c.41.3.8.61,1.18.95s.76.71,1.11,1.09.71.79,1.06,1.22m-4.58-4.05H819.5M172.28,645.55h54.8m-54.77-12.46a11.29,11.29,0,0,1-1.21-.78,14.59,14.59,0,0,1-1.17-.94,14.83,14.83,0,0,1-1.14-1.11c-.37-.39-.74-.82-1.1-1.27m4.62,4.1h29m.42,0h-.41m6.22,0h-5.84m650,12.5H796.92m0,0q4.94-3,9.8-6.16t9.71-6.34m1.26,0h-1.26m3.09,0h-1.83m29,0H819.5m27.2,0a11.74,11.74,0,0,0,1.23-.8,13.25,13.25,0,0,0,1.18-.95,14.27,14.27,0,0,0,1.11-1.09c.36-.38.71-.79,1.06-1.22M159,470.53v62.38m0,62.39V532.92m8.7,96.07a29.16,29.16,0,0,1-3.48-5.64,53.49,53.49,0,0,1-2.82-7.7,57.45,57.45,0,0,1-1.92-9.83A80.77,80.77,0,0,1,159,595.3M155.51,629h12.18M155.51,436.84h12.18m0,0a29.47,29.47,0,0,0-3.48,5.64,53.94,53.94,0,0,0-2.82,7.7,57.64,57.64,0,0,0-1.92,9.83,80.77,80.77,0,0,0-.48,10.52M860,595.3V532.92m0-62.39v62.39m-8.71-96.08a28.92,28.92,0,0,1,3.58,5.85,51.24,51.24,0,0,1,2.8,7.78,59,59,0,0,1,1.85,9.64,78.31,78.31,0,0,1,.48,10.42m8.47-33.69H851.32M868.49,629H851.32m0,0a28.64,28.64,0,0,0,3.58-5.85,51.09,51.09,0,0,0,2.8-7.77,59.46,59.46,0,0,0,1.85-9.64A78.46,78.46,0,0,0,860,595.3m-84.34-175h13M260.7,580.5q-.46,12.12-.94,24.25T258.81,629m4.5-115.35q-.35,9-.7,18t-.71,18m0,0-.6,15.4-.6,15.39M248.32,420.28h-13M788.72,645.55h-13m-10.29-11.36c0-.87-.06-1.73-.1-2.6s-.07-1.73-.1-2.6m-3.09-79.28q-.36-9-.71-18t-.7-18M765.19,629q-.47-12.12-1-24.24t-.94-24.25m-528,65h13M258.81,629c0,.87-.07,1.73-.1,2.6s-.07,1.73-.1,2.6M760.69,513.64l-1.5-38.4-1.5-38.4M757,420.28h18.64m-18,16.56q-.16-4.14-.32-8.28l-.33-8.28M266.31,436.84l-1.5,38.4-1.5,38.4m-15,131.91h9.84m.45-11.36c-.08,1.89-.15,3.79-.23,5.68s-.14,3.79-.22,5.68m517.52,0h-9.84m0,0c-.08-1.89-.15-3.78-.22-5.68s-.15-3.79-.23-5.68M267,420.28H248.32m18.64,0-.33,8.28q-.15,4.14-.32,8.28m-6.87-21.68-22.79-6.46m-1-2,1,2M267,420.28h-3.6m0,0-3.92-5.12m0,0,5.88-8.66m2.07,2.7c-.07,1.84-.14,3.69-.22,5.54l-.21,5.54M766,651l21.55,6.11m1,2-1-2M765.8,661.3l.09-5.14c0-1.71.05-3.42.08-5.14m-1.25-235.86-3.92,5.12m-3.76,0h3.76m-3.76,0-.21-5.44-.21-5.44m-520.94-2.71,9.62-5.87m-10.83,3.37,1.21,2.5m528.5,349.19c0-2,.07-3.92.1-5.89s.07-3.92.11-5.88m-527.74-87-1,2m1-2L258,651.07m0,0c0,1.71.06,3.43.08,5.14l.09,5.14m-6.13,87-17.6-86.74m1.21-2.5-1.21,2.5m25,73.14c0,1.57.05,3.14.08,4.71s0,3.14.08,4.71m530.07-82.56-1.2-2.5m-24.1,85c0-1.41,0-2.81.07-4.22s0-2.81.07-4.21M756.62,409.4l2.22-2.9m-2.22,2.9-1.89-48.25q-.93-24.12-1.88-48.25m11.68,422.78.63-37.19q.33-18.59.64-37.19m-507.6.05.63,36.72.63,36.71m5.86-328.28,2.07,2.7m-22.09-8.38,20,5.68m-4.13-84L245.3,400.82m25.84-87.75q-.93,24-1.87,48.06t-1.88,48.07m504.7-91.75,17.6,86.74m-1.2,2.5,1.2-2.5m-10.82-3.37L763,322.5m9.11-5.05L763,322.5m0,0-10.13-9.6m0,0q-.11-2.92-.23-5.85t-.23-5.84m-492.77,443,.09,5.76c0,1.92.07,3.84.1,5.76m527.71-347,1-2m-1,2-22.8,6.46m0,0-5.88-8.66m0,0,20-5.68m9.62,5.87-9.62-5.87M271.14,313.07l-9.95,9.43m-9.12-5.05,9.12,5.05m10.43-21.64-.24,6.1-.24,6.11m-35.92,87.44-1.28-1.57m.53,5.25.75-3.68m1.43,8.19-2.18-4.51m5.78,5.53-3.6-1M217,420.28h0a30.19,30.19,0,0,1,23.24-10.56M217,420.28H180.84m52.67,233.89h0a30.46,30.46,0,0,1-4.31-1.27,29.38,29.38,0,0,1-4.07-1.88,30,30,0,0,1-3.75-2.47,30.68,30.68,0,0,1-3.34-3m24.82,9.25-9.35-.63m8.31,1.49,1-.86m-6.21,2.33,5.17-1.47"/><path class="cls-2" d="M234.47,661.64l2.18-4.51m-2.16,4.61,0-.1m-.71.71.73-.61m-53.36-16.19H218M787.52,408.7l-3.6,1m5.77-5.53-2.17,4.51m1.39-8.35.78,3.84m-.78-3.84,1.15-1.41M807,420.28h36.17m-36.17,0h0a30,30,0,0,0-10.37-7.82,30.23,30.23,0,0,0-12.7-2.74m-3,302,9.33-49.41m0,0-.59-.5m0-.21,0,.21m-2.13-4.72,2.17,4.51m-7.59-6,5.42,1.54m-5.42-1.54-1-.79m0,0,9.35-.63m0,0h0a30.46,30.46,0,0,0,4.31-1.27,29.38,29.38,0,0,0,4.07-1.88,30.09,30.09,0,0,0,7.09-5.47m36.91,0H806"/><rect class="cls-3" x="270.61" y="419.03" width="482.78" height="236.11"/><rect class="cls-2" x="270.61" y="419.03" width="482.78" height="236.11"/><polyline class="cls-4" points="293.82 473.13 730.17 473.13 730.17 601.03 293.82 601.03 293.82 473.13"/><path class="cls-5" d="M405.65,523.62V483.43h28.27v4.74H410.81v12.31h21.66v4.73H410.81v13.68h24v4.73Zm36.37,0V483.43h17.31a22.18,22.18,0,0,1,7.93,1.09,8.73,8.73,0,0,1,4.35,3.82,11.7,11.7,0,0,1,1.62,6.06,10.28,10.28,0,0,1-2.69,7.21q-2.69,2.94-8.31,3.73a13.71,13.71,0,0,1,3.12,2,27.56,27.56,0,0,1,4.28,5.35l6.76,10.93h-6.46l-5.17-8.36q-2.26-3.61-3.73-5.53a11.78,11.78,0,0,0-2.62-2.69,7.88,7.88,0,0,0-2.36-1.07,15.72,15.72,0,0,0-2.87-.19h-6v17.84Zm5.16-22.44h11.11a16.29,16.29,0,0,0,5.54-.75,5.93,5.93,0,0,0,3-2.42,6.62,6.62,0,0,0,1-3.61,6.09,6.09,0,0,0-2-4.7c-1.34-1.23-3.45-1.84-6.35-1.84H447.18v13.32Zm29.87,22.44L492,483.43h5.67l15.94,40.19H507.7l-4.54-12.18h-16.4l-4.26,12.18Zm11.22-16.52h13.27L497.48,496q-1.87-5.07-2.8-8.4a59,59,0,0,1-2.13,7.75l-4.28,11.75Z"/><path class="cls-5" d="M539.15,501.85a9.33,9.33,0,0,1-4.58-3.21,8.36,8.36,0,0,1-1.49-5,9.74,9.74,0,0,1,3.15-7.37,13.25,13.25,0,0,1,16.85.07,9.88,9.88,0,0,1,3.2,7.43,8.19,8.19,0,0,1-1.47,4.87,9.35,9.35,0,0,1-4.46,3.19,10.84,10.84,0,0,1,5.66,3.88,10.65,10.65,0,0,1,1.94,6.4,11.5,11.5,0,0,1-3.65,8.64,14.87,14.87,0,0,1-19.2,0,11.66,11.66,0,0,1-3.64-8.77,10.51,10.51,0,0,1,2-6.55,10,10,0,0,1,5.69-3.59Zm-1-8.35a6.26,6.26,0,0,0,1.81,4.65,6.46,6.46,0,0,0,4.75,1.8,6.29,6.29,0,0,0,4.66-1.79,5.94,5.94,0,0,0,1.8-4.39,6.19,6.19,0,0,0-1.85-4.55,6.34,6.34,0,0,0-4.66-1.84,6.4,6.4,0,0,0-4.67,1.8,5.82,5.82,0,0,0-1.84,4.32ZM536.54,512a9,9,0,0,0,1,4.07,7,7,0,0,0,3,3,8.71,8.71,0,0,0,4.24,1.08,8,8,0,0,0,5.84-2.27,7.78,7.78,0,0,0,2.28-5.76,7.87,7.87,0,0,0-2.35-5.86,8.1,8.1,0,0,0-5.93-2.33,7.83,7.83,0,0,0-8,8Zm26.15-8.21a37,37,0,0,1,1.46-11.46,14.25,14.25,0,0,1,4.37-6.7,11.2,11.2,0,0,1,7.28-2.34,11.91,11.91,0,0,1,5.69,1.3,10.72,10.72,0,0,1,4,3.75,19.94,19.94,0,0,1,2.49,6,39.69,39.69,0,0,1,.91,9.48,36.79,36.79,0,0,1-1.46,11.41,14.19,14.19,0,0,1-4.35,6.71,11.2,11.2,0,0,1-7.31,2.36,11.05,11.05,0,0,1-9.13-4.14q-4-5-4-16.34Zm5.09,0q0,9.9,2.31,13.15a6.63,6.63,0,0,0,11.42,0q2.32-3.27,2.32-13.14t-2.31-13.16a6.86,6.86,0,0,0-5.77-3.25,6.34,6.34,0,0,0-5.44,2.87q-2.53,3.66-2.53,13.54Zm26.09,0a36.67,36.67,0,0,1,1.47-11.46,14.24,14.24,0,0,1,4.36-6.7A11.22,11.22,0,0,1,607,483.3a12,12,0,0,1,5.69,1.3,10.79,10.79,0,0,1,4,3.75,20.47,20.47,0,0,1,2.49,6,39.76,39.76,0,0,1,.9,9.48,36.83,36.83,0,0,1-1.45,11.41,14.19,14.19,0,0,1-4.35,6.71,11.22,11.22,0,0,1-7.31,2.36,11.07,11.07,0,0,1-9.14-4.14q-4-5-4-16.34Zm5.09,0q0,9.9,2.32,13.15a6.63,6.63,0,0,0,11.42,0q2.31-3.27,2.31-13.14t-2.31-13.16a6.86,6.86,0,0,0-5.77-3.25,6.33,6.33,0,0,0-5.43,2.87Q599,493.91,599,503.79Z"/><path class="cls-5" d="M298.19,587.57V547.38h15.13a36,36,0,0,1,6.11.39,12,12,0,0,1,4.95,1.88,9.75,9.75,0,0,1,3.22,3.87,13.09,13.09,0,0,1-2,14.16q-3.26,3.54-11.77,3.55h-10.3v16.34Zm5.3-21.08h10.38q5.14,0,7.31-1.92a6.85,6.85,0,0,0,2.16-5.4,7.28,7.28,0,0,0-1.27-4.32,5.93,5.93,0,0,0-3.36-2.37,22.35,22.35,0,0,0-4.95-.36H303.49v14.37Zm32.17,21.08V547.38h29.06v4.74H341v12.31h22.26v4.73H341v13.68h24.67v4.73Zm37.39,0V547.38h17.79a23.67,23.67,0,0,1,8.16,1.09,8.88,8.88,0,0,1,4.46,3.82,11.38,11.38,0,0,1,1.67,6.06,10.14,10.14,0,0,1-2.76,7.22q-2.78,2.92-8.54,3.73a13.93,13.93,0,0,1,3.2,2,27.51,27.51,0,0,1,4.4,5.35l6.95,10.93h-6.64l-5.31-8.36q-2.32-3.62-3.84-5.53A12.25,12.25,0,0,0,389.9,571a8.07,8.07,0,0,0-2.43-1.06,15.47,15.47,0,0,0-3-.2h-6.16v17.84Zm5.31-22.44h11.41a17.21,17.21,0,0,0,5.7-.75,6.07,6.07,0,0,0,3.12-2.42,6.57,6.57,0,0,0,1.07-3.61,6,6,0,0,0-2.07-4.7c-1.38-1.23-3.55-1.84-6.53-1.84h-12.7v13.32Zm35.34,22.44V547.38h27.09v4.74H419v12.44h18.84v4.74H419v18.27ZM446.07,568q0-10,5.36-15.65a18.26,18.26,0,0,1,13.86-5.66,19.25,19.25,0,0,1,10,2.66,17.35,17.35,0,0,1,6.8,7.41,24.07,24.07,0,0,1,2.34,10.77A23.67,23.67,0,0,1,482,578.45a16.83,16.83,0,0,1-7,7.3,20,20,0,0,1-9.75,2.48,18.92,18.92,0,0,1-10.13-2.74,17.68,17.68,0,0,1-6.77-7.48,22.71,22.71,0,0,1-2.3-10Zm5.47.07q0,7.26,3.9,11.43a13.6,13.6,0,0,0,19.66,0q3.87-4.22,3.88-12a20.65,20.65,0,0,0-1.66-8.56,12.78,12.78,0,0,0-4.85-5.67,13.13,13.13,0,0,0-7.16-2,13.54,13.54,0,0,0-9.7,3.88q-4.07,3.87-4.07,12.94Zm39.85,19.51V547.38h17.79a23.67,23.67,0,0,1,8.16,1.09,8.88,8.88,0,0,1,4.46,3.82,11.47,11.47,0,0,1,1.67,6.06,10.11,10.11,0,0,1-2.77,7.22q-2.76,2.92-8.54,3.73a13.81,13.81,0,0,1,3.21,2,27.88,27.88,0,0,1,4.4,5.35l6.94,10.93h-6.63l-5.32-8.36c-1.55-2.41-2.82-4.25-3.83-5.53a12,12,0,0,0-2.7-2.69,7.91,7.91,0,0,0-2.42-1.06,15.6,15.6,0,0,0-3-.2h-6.16v17.84Zm5.3-22.44h11.42a17.11,17.11,0,0,0,5.69-.75,6.14,6.14,0,0,0,3.13-2.42,6.56,6.56,0,0,0,1.06-3.61,6,6,0,0,0-2.06-4.7q-2.07-1.85-6.53-1.84H496.7v13.32Zm34.91,22.44V547.38h8l9.53,28.43c.87,2.65,1.52,4.63,1.92,6q.69-2.19,2.15-6.44l9.69-27.94H570v40.19h-5.13V553.91l-11.72,33.66h-4.79l-11.62-34.23v34.23Zm42.5,0,15.35-40.19h5.82l16.39,40.19h-6l-4.67-12.18H584.08l-4.37,12.18Zm11.53-16.52h13.65L595.11,560q-1.93-5.07-2.89-8.4A57.25,57.25,0,0,1,590,559.3l-4.41,11.75Zm30.19,16.52V547.38h5.44l21.08,31.55V547.38h5.08v40.19H642L620.91,556v31.55ZM685,573.45l5.3,1.35a17.94,17.94,0,0,1-6,10,16.55,16.55,0,0,1-10.6,3.44q-6.49,0-10.55-2.65a16.42,16.42,0,0,1-6.18-7.66,27.23,27.23,0,0,1-2.12-10.77,23.74,23.74,0,0,1,2.39-10.94,16.41,16.41,0,0,1,6.81-7.1,19.8,19.8,0,0,1,9.72-2.43,16.47,16.47,0,0,1,10.12,3.07,16,16,0,0,1,5.71,8.64l-5.21,1.23a12.39,12.39,0,0,0-4.05-6.38,10.79,10.79,0,0,0-6.67-2,13,13,0,0,0-7.73,2.22,11.79,11.79,0,0,0-4.36,6,24,24,0,0,0-1.25,7.71,24.41,24.41,0,0,0,1.49,8.94,11.11,11.11,0,0,0,4.63,5.71,13,13,0,0,0,6.81,1.89,11.42,11.42,0,0,0,7.55-2.57,13.22,13.22,0,0,0,4.19-7.64Zm11.94,14.12V547.38H726v4.74H702.21v12.31h22.26v4.73H702.21v13.68h24.67v4.73Z"/></svg>