<?xml version="1.0" encoding="utf-8"?>
<!-- Generator: Adobe Illustrator 25.0.1, SVG Export Plug-In . SVG Version: 6.00 Build 0)  -->
<svg version="1.1" id="Layer_1" xmlns="http://www.w3.org/2000/svg" xmlns:xlink="http://www.w3.org/1999/xlink" x="0px" y="0px"
	 viewBox="0 0 1024 1024" style="enable-background:new 0 0 1024 1024;" xml:space="preserve">
<style type="text/css">
	.st0{fill-rule:evenodd;clip-rule:evenodd;fill:#CCCCCC;}
	.st1{fill:none;stroke:#000000;stroke-linecap:round;stroke-linejoin:round;stroke-miterlimit:10;}
	.st2{fill-rule:evenodd;clip-rule:evenodd;fill:#FFFFFF;}
</style>
<g id="MAC_Ultra_Performance_-_Thumbnail">
	<g>
		<path class="st0" d="M872.9,603.1l-2.9,59.3c-0.3,14.1-0.8,28.3-1.7,42.4c-0.9,14.1-2.1,28.2-3.6,42.3s-3.3,28.1-5.5,42.1
			c-2.1,14-4.6,27.9-7.3,41.8c-4.1,1.6-8.3,3-12.5,4.2s-8.5,2.3-12.9,3.1c-4.3,0.9-8.7,1.5-13.1,2c-4.4,0.5-8.8,0.8-13.2,0.9
			l-14.9-0.4L512,839.2l-273.4,1.7l-14.9,0.4c-4.4-0.1-8.8-0.4-13.2-0.9s-8.7-1.2-13.1-2c-4.3-0.9-8.6-1.9-12.9-3.1
			c-4.2-1.2-8.4-2.6-12.5-4.2c-2.7-13.9-5.2-27.8-7.3-41.8s-3.9-28-5.5-42.1c-1.5-14.1-2.7-28.2-3.6-42.3
			c-0.9-14.1-1.4-28.3-1.7-42.4l-2.9-59.3l2.9-59.3c0.3-14.1,0.8-28.3,1.7-42.4s2.1-28.2,3.6-42.3c1.5-14.1,3.3-28.1,5.5-42.1
			c2.1-14,4.6-27.9,7.3-41.8c4.1-1.6,8.3-3,12.5-4.2s8.5-2.3,12.9-3.1c4.3-0.9,8.7-1.5,13.1-2c4.4-0.5,8.8-0.8,13.2-0.9l14.9,0.4
			L512,367l273.4-1.7l14.9-0.4c4.4,0.1,8.8,0.4,13.2,0.9s8.7,1.2,13.1,2c4.3,0.9,8.6,1.9,12.9,3.1c4.2,1.2,8.4,2.6,12.5,4.2
			c2.7,13.9,5.2,27.8,7.3,41.8s3.9,28,5.5,42.1c1.5,14.1,2.7,28.2,3.6,42.3c0.9,14.1,1.4,28.3,1.7,42.4L872.9,603.1 M180.5,603.1
			l3.5,91.6c0.2,2.1,0.6,4.2,1.2,6.2c0.6,2,1.5,3.9,2.5,5.8c1.1,1.8,2.3,3.5,3.8,5c1.4,1.5,3.1,2.9,4.8,4.1c1.7,1.2,3.6,2.1,5.6,2.9
			c2,0.7,4,1.3,6.1,1.6s4.2,0.3,6.3,0.1s4.2-0.6,6.2-1.3l9.4-18.6v-97.3v-97.3l-9.4-18.6c-2-0.7-4.1-1.1-6.2-1.3
			c-2.1-0.2-4.2-0.1-6.3,0.1c-2.1,0.3-4.1,0.8-6.1,1.6c-2,0.7-3.8,1.7-5.6,2.9c-1.7,1.2-3.4,2.5-4.8,4.1c-1.4,1.5-2.7,3.2-3.8,5
			s-1.9,3.7-2.5,5.8c-0.6,2-1,4.1-1.2,6.2L180.5,603.1 M794.2,700.4l9.4,18.6c2,0.7,4.1,1.1,6.2,1.3c2.1,0.2,4.2,0.1,6.3-0.1
			c2.1-0.3,4.1-0.8,6.1-1.6c2-0.7,3.8-1.7,5.6-2.9c1.7-1.2,3.4-2.5,4.8-4.1c1.4-1.5,2.7-3.2,3.8-5s1.9-3.7,2.5-5.8
			c0.6-2,1-4.1,1.2-6.2l3.5-91.6l-3.5-91.6c-0.2-2.1-0.6-4.2-1.2-6.2c-0.6-2-1.5-3.9-2.5-5.8c-1.1-1.8-2.3-3.5-3.8-5
			c-1.4-1.5-3.1-2.9-4.8-4.1s-3.6-2.1-5.6-2.9c-2-0.7-4-1.3-6.1-1.6c-2.1-0.3-4.2-0.3-6.3-0.1c-2.1,0.2-4.2,0.6-6.2,1.3l-9.4,18.6
			v97.3V700.4"/>
		<path class="st1" d="M872.9,603.1l-2.9,59.3c-0.3,14.1-0.8,28.3-1.7,42.4c-0.9,14.1-2.1,28.2-3.6,42.3s-3.3,28.1-5.5,42.1
			c-2.1,14-4.6,27.9-7.3,41.8c-4.1,1.6-8.3,3-12.5,4.2s-8.5,2.3-12.9,3.1c-4.3,0.9-8.7,1.5-13.1,2c-4.4,0.5-8.8,0.8-13.2,0.9
			l-14.9-0.4L512,839.2l-273.4,1.7l-14.9,0.4c-4.4-0.1-8.8-0.4-13.2-0.9s-8.7-1.2-13.1-2c-4.3-0.9-8.6-1.9-12.9-3.1
			c-4.2-1.2-8.4-2.6-12.5-4.2c-2.7-13.9-5.2-27.8-7.3-41.8s-3.9-28-5.5-42.1c-1.5-14.1-2.7-28.2-3.6-42.3
			c-0.9-14.1-1.4-28.3-1.7-42.4l-2.9-59.3l2.9-59.3c0.3-14.1,0.8-28.3,1.7-42.4s2.1-28.2,3.6-42.3c1.5-14.1,3.3-28.1,5.5-42.1
			c2.1-14,4.6-27.9,7.3-41.8c4.1-1.6,8.3-3,12.5-4.2s8.5-2.3,12.9-3.1c4.3-0.9,8.7-1.5,13.1-2c4.4-0.5,8.8-0.8,13.2-0.9l14.9,0.4
			L512,367l273.4-1.7l14.9-0.4c4.4,0.1,8.8,0.4,13.2,0.9s8.7,1.2,13.1,2c4.3,0.9,8.6,1.9,12.9,3.1c4.2,1.2,8.4,2.6,12.5,4.2
			c2.7,13.9,5.2,27.8,7.3,41.8s3.9,28,5.5,42.1c1.5,14.1,2.7,28.2,3.6,42.3c0.9,14.1,1.4,28.3,1.7,42.4L872.9,603.1 M180.5,603.1
			l3.5,91.6c0.2,2.1,0.6,4.2,1.2,6.2c0.6,2,1.5,3.9,2.5,5.8c1.1,1.8,2.3,3.5,3.8,5c1.4,1.5,3.1,2.9,4.8,4.1c1.7,1.2,3.6,2.1,5.6,2.9
			c2,0.7,4,1.3,6.1,1.6s4.2,0.3,6.3,0.1s4.2-0.6,6.2-1.3l9.4-18.6v-97.3v-97.3l-9.4-18.6c-2-0.7-4.1-1.1-6.2-1.3
			c-2.1-0.2-4.2-0.1-6.3,0.1c-2.1,0.3-4.1,0.8-6.1,1.6c-2,0.7-3.8,1.7-5.6,2.9c-1.7,1.2-3.4,2.5-4.8,4.1c-1.4,1.5-2.7,3.2-3.8,5
			s-1.9,3.7-2.5,5.8c-0.6,2-1,4.1-1.2,6.2L180.5,603.1 M794.2,700.4l9.4,18.6c2,0.7,4.1,1.1,6.2,1.3c2.1,0.2,4.2,0.1,6.3-0.1
			c2.1-0.3,4.1-0.8,6.1-1.6c2-0.7,3.8-1.7,5.6-2.9c1.7-1.2,3.4-2.5,4.8-4.1c1.4-1.5,2.7-3.2,3.8-5s1.9-3.7,2.5-5.8
			c0.6-2,1-4.1,1.2-6.2l3.5-91.6l-3.5-91.6c-0.2-2.1-0.6-4.2-1.2-6.2c-0.6-2-1.5-3.9-2.5-5.8c-1.1-1.8-2.3-3.5-3.8-5
			c-1.4-1.5-3.1-2.9-4.8-4.1s-3.6-2.1-5.6-2.9c-2-0.7-4-1.3-6.1-1.6c-2.1-0.3-4.2-0.3-6.3-0.1c-2.1,0.2-4.2,0.6-6.2,1.3l-9.4,18.6
			v97.3V700.4"/>
		<polyline class="st0" points="913,603.1 512,603.1 913,603.1 898.4,692.5 887.3,701.7 795,727.8 229,727.8 136.7,701.7 
			125.6,692.5 111,603.1 512,603.1 111,603.1 125.6,513.7 136.7,504.5 229,478.4 795,478.4 887.3,504.5 898.4,513.7 913,603.1 		"/>
		<polygon class="st1" points="913,603.1 512,603.1 913,603.1 898.4,692.5 887.3,701.7 795,727.8 229,727.8 136.7,701.7 
			125.6,692.5 111,603.1 512,603.1 111,603.1 125.6,513.7 136.7,504.5 229,478.4 795,478.4 887.3,504.5 898.4,513.7 		"/>
		<path class="st0" d="M139.1,505.1L139.1,505.1c5.3,6.9,9.8,14.3,13.5,22.1s6.6,16,8.7,24.4c2,8.4,3.2,17,3.4,25.7
			c0.3,8.7-0.4,17.3-1.9,25.8H111"/>
		<path class="st1" d="M139.1,505.1L139.1,505.1c5.3,6.9,9.8,14.3,13.5,22.1s6.6,16,8.7,24.4c2,8.4,3.2,17,3.4,25.7
			c0.3,8.7-0.4,17.3-1.9,25.8H111 M125.3,603.1l35.1-51.3"/>
		<path class="st0" d="M179.6,505.4v196.1c0,6.4,5.2,11.6,11.6,11.6h8.7c6.4,0,11.6-5.2,11.6-11.6V505.4c0-6.4-5.2-11.6-11.6-11.6
			h-8.7C184.9,493.8,179.6,499,179.6,505.4"/>
		<path class="st1" d="M179.6,505.4v196.1c0,6.4,5.2,11.6,11.6,11.6h8.7c6.4,0,11.6-5.2,11.6-11.6V505.4c0-6.4-5.2-11.6-11.6-11.6
			h-8.7C184.9,493.8,179.6,499,179.6,505.4"/>
		<path class="st0" d="M184,560.4v84.9c0,6.4,5.2,11.6,11.6,11.6c6.4,0,11.6-5.2,11.6-11.6v-84.9c0-6.4-5.2-11.6-11.6-11.6
			C189.2,548.8,184,554,184,560.4"/>
		<path class="st1" d="M184,560.4v84.9c0,6.4,5.2,11.6,11.6,11.6c6.4,0,11.6-5.2,11.6-11.6v-84.9c0-6.4-5.2-11.6-11.6-11.6
			C189.2,548.8,184,554,184,560.4"/>
		<path class="st0" d="M139.1,701L139.1,701c5.3-6.9,9.8-14.3,13.5-22.1s6.6-16,8.7-24.4c2-8.4,3.2-17,3.4-25.7
			c0.3-8.7-0.4-17.3-1.9-25.8H111"/>
		<path class="st1" d="M139.1,701L139.1,701c5.3-6.9,9.8-14.3,13.5-22.1s6.6-16,8.7-24.4c2-8.4,3.2-17,3.4-25.7
			c0.3-8.7-0.4-17.3-1.9-25.8H111 M125.3,603.1l35.1,51.3 M229,478.4v249.4"/>
		<path class="st0" d="M884.9,505.1L884.9,505.1c-5.3,6.9-9.8,14.3-13.5,22.1s-6.6,16-8.7,24.4c-2,8.4-3.2,17-3.4,25.7
			c-0.3,8.7,0.4,17.3,1.9,25.8H913"/>
		<path class="st1" d="M884.9,505.1L884.9,505.1c-5.3,6.9-9.8,14.3-13.5,22.1s-6.6,16-8.7,24.4c-2,8.4-3.2,17-3.4,25.7
			c-0.3,8.7,0.4,17.3,1.9,25.8H913 M898.7,603.1l-35.1-51.3"/>
		<path class="st0" d="M812.5,505.4v196.1c0,6.4,5.2,11.6,11.6,11.6h8.7c6.4,0,11.6-5.2,11.6-11.6V505.4c0-6.4-5.2-11.6-11.6-11.6
			h-8.7C817.8,493.8,812.5,499,812.5,505.4"/>
		<path class="st1" d="M812.5,505.4v196.1c0,6.4,5.2,11.6,11.6,11.6h8.7c6.4,0,11.6-5.2,11.6-11.6V505.4c0-6.4-5.2-11.6-11.6-11.6
			h-8.7C817.8,493.8,812.5,499,812.5,505.4"/>
		<path class="st0" d="M816.9,560.4v84.9c0,6.4,5.2,11.6,11.6,11.6c6.4,0,11.6-5.2,11.6-11.6v-84.9c0-6.4-5.2-11.6-11.6-11.6
			C822.1,548.8,816.9,554,816.9,560.4"/>
		<path class="st1" d="M816.9,560.4v84.9c0,6.4,5.2,11.6,11.6,11.6c6.4,0,11.6-5.2,11.6-11.6v-84.9c0-6.4-5.2-11.6-11.6-11.6
			C822.1,548.8,816.9,554,816.9,560.4"/>
		<path class="st0" d="M884.9,701L884.9,701c-5.3-6.9-9.8-14.3-13.5-22.1s-6.6-16-8.7-24.4c-2-8.4-3.2-17-3.4-25.7
			c-0.3-8.7,0.4-17.3,1.9-25.8H913"/>
		<path class="st1" d="M884.9,701L884.9,701c-5.3-6.9-9.8-14.3-13.5-22.1s-6.6-16-8.7-24.4c-2-8.4-3.2-17-3.4-25.7
			c-0.3-8.7,0.4-17.3,1.9-25.8H913 M898.7,603.1l-35.1,51.3 M795,478.4v249.4"/>
		<path class="st0" d="M665.7,1001L665.7,1001c-12.7,3.2-25.5,6.1-38.3,8.5c-12.9,2.4-25.8,4.5-38.8,6.1s-26,2.9-39.1,3.7
			s-26.2,1.3-39.3,1.3c-13.1,0-26.2-0.5-39.3-1.3c-13.1-0.8-26.1-2.1-39.1-3.7c-13-1.6-25.9-3.7-38.8-6.1
			c-12.9-2.4-25.7-5.3-38.3-8.5c-4.3-2.1-8.3-5-11.7-8.4c-3.4-3.4-6.2-7.4-8.3-11.7c-2.1-4.3-3.5-9-4.2-13.7
			c-0.6-4.8-0.5-9.6,0.5-14.4l-87.5-81.1l-7.2-70.4v-69.1l-4.6-4.2V476.1l5.5-2.7l10.6-56.7l55.4-95.1l18.1-169.1l35.2-64.3
			l2.4-57.9l3.8-27h294.8l3.8,27l2.4,57.9l35.2,64.3L717,321.6l55.4,95.1l10.6,56.7l5.5,2.7v251.8l-4.6,4.2v69.1l-7.2,70.4
			l-87.5,81.1c0.9,4.7,1.1,9.6,0.5,14.4c-0.6,4.8-2,9.4-4.2,13.7c-2.1,4.3-4.9,8.3-8.3,11.7C674,996,670,998.8,665.7,1001"/>
		<path class="st1" d="M665.7,1001L665.7,1001c-12.7,3.2-25.5,6.1-38.3,8.5c-12.9,2.4-25.8,4.5-38.8,6.1s-26,2.9-39.1,3.7
			s-26.2,1.3-39.3,1.3c-13.1,0-26.2-0.5-39.3-1.3c-13.1-0.8-26.1-2.1-39.1-3.7c-13-1.6-25.9-3.7-38.8-6.1
			c-12.9-2.4-25.7-5.3-38.3-8.5c-4.3-2.1-8.3-5-11.7-8.4c-3.4-3.4-6.2-7.4-8.3-11.7c-2.1-4.3-3.5-9-4.2-13.7
			c-0.6-4.8-0.5-9.6,0.5-14.4l-87.5-81.1l-7.2-70.4v-69.1l-4.6-4.2V476.1l5.5-2.7l10.6-56.7l55.4-95.1l18.1-169.1l35.2-64.3
			l2.4-57.9l3.8-27h294.8l3.8,27l2.4,57.9l35.2,64.3L717,321.6l55.4,95.1l10.6,56.7l5.5,2.7v251.8l-4.6,4.2v69.1l-7.2,70.4
			l-87.5,81.1c0.9,4.7,1.1,9.6,0.5,14.4c-0.6,4.8-2,9.4-4.2,13.7c-2.1,4.3-4.9,8.3-8.3,11.7C674,996,670,998.8,665.7,1001 M356,88.2
			h308.4 M436.9,279.5l148.3,0.2 M585.2,279.7l7.1,225.3 M436.7,279.7l-7.4,225.5 M436.9,279.7h148.3 M429.3,505.2l163.1-0.2
			 M436.9,279.7L390.1,94.2 M585.2,279.7l44.6-186.4 M373.3,105.7l-11.4,225.7 M358.5,439.7l3.4-108.3 M358.5,439.7l-48,4.4
			 M310.6,444.1l-45.2,41.8 M265.3,485.9l12.7,33.3 M278.1,519.2l61.4,8.3 M339.5,527.5l-28.9-83.4 M339.5,527.5l42.8,25.1
			 M382.3,552.6l257.8,0.3 M382.3,552.6L356,681.3 M356.6,681.7l307.6-0.3 M356.2,681.4l-44,44.6 M312.2,726l-22.6,74.7
			 M289.6,800.7l0.4,45.2 M240,801.3h544 M661.9,439.7l-2.3-73.1 M659.6,366.6l-11.7-259.2 M661.9,439.7l48,4.4 M709.9,444.1
			l45.2,41.8 M755.1,485.9l-12.7,33.3 M742.4,519.2l-61.4,8.3 M681,527.5l28.9-83.4 M681,527.5l-40.9,25.4 M640.1,552.9l24.4,128.4
			 M664.3,681.4l44,44.6 M708.3,726l22.6,74.7 M730.8,800.7l-0.4,45.2 M355.7,801.3l6.5,178.8 M510.2,1002.5l-148-22.3 M664.7,801.3
			l-6.5,178.8 M510.2,1002.5l148-22.3"/>
		<rect x="287" y="493" class="st2" width="450.1" height="220.1"/>
		<rect x="287" y="493" class="st1" width="450.1" height="220.1"/>
		<polyline class="st2" points="308.6,542.9 715.4,542.9 715.4,663.2 308.6,663.2 308.6,542.9 		"/>
		<path d="M369.6,590v-31.9l10.8,31.9h4.5l10.9-31.3V590h4.8v-37.4h-6.7l-9,26c-0.9,2.6-1.6,4.6-2,6c-0.4-1.2-1-3.1-1.8-5.5
			l-8.9-26.5h-7.5V590H369.6L369.6,590z M409.7,590l4.1-11.3h15.7l4.4,11.3h5.6l-15.3-37.4h-5.3L404.4,590H409.7L409.7,590z
			 M419.3,563.7c0.9-2.4,1.5-4.8,2-7.2c0.6,2,1.5,4.6,2.7,7.8l3.9,10.4h-12.7L419.3,563.7L419.3,563.7z M466.2,584
			c-1.9,1.6-4.3,2.4-7,2.4c-2.3,0-4.4-0.6-6.4-1.8s-3.4-2.9-4.3-5.3c-0.9-2.4-1.4-5.2-1.4-8.3c0-2.5,0.4-4.9,1.2-7.2
			c0.8-2.3,2.1-4.2,4.1-5.6c1.9-1.4,4.3-2.1,7.2-2.1c2.5,0,4.6,0.6,6.2,1.9c1.7,1.2,2.9,3.2,3.8,6l4.9-1.1c-1-3.5-2.8-6.1-5.3-8
			c-2.6-1.9-5.7-2.9-9.4-2.9c-3.3,0-6.3,0.8-9.1,2.3c-2.7,1.5-4.9,3.7-6.4,6.6c-1.5,2.9-2.2,6.3-2.2,10.2c0,3.6,0.7,6.9,2,10
			s3.2,5.5,5.8,7.1c2.5,1.6,5.8,2.5,9.8,2.5c3.9,0,7.2-1.1,9.9-3.2c2.7-2.1,4.6-5.2,5.6-9.3l-5-1.3C469.4,580,468.1,582.4,466.2,584
			L466.2,584z M520.3,574.2c0,4.7-0.8,7.9-2.3,9.5c-1.5,1.7-4.1,2.5-7.8,2.5c-2.1,0-3.9-0.4-5.4-1.3c-1.5-0.8-2.5-2-3.1-3.6
			c-0.6-1.5-0.9-3.9-0.9-7.2v-21.6h-5v21.6c0,4,0.5,7.1,1.4,9.4c1,2.3,2.5,4,4.8,5.2c2.2,1.2,5.1,1.8,8.6,1.8c3.6,0,6.5-0.7,8.7-2.1
			c2.2-1.4,3.8-3.2,4.6-5.4c0.9-2.2,1.3-5.2,1.3-9v-21.6h-5v21.8H520.3z M556.7,590v-4.4h-18.4v-33h-5V590H556.7L556.7,590z
			 M577,590v-33h12.4v-4.4h-29.7v4.4H572v33H577L577,590z M599.5,590v-16.6h5.7c1.3,0,2.2,0.1,2.8,0.2c0.8,0.2,1.5,0.5,2.3,1
			c0.7,0.5,1.6,1.3,2.5,2.5s2.1,2.9,3.6,5.2l5,7.8h6.2l-6.5-10.2c-1.3-2-2.7-3.7-4.1-5c-0.7-0.6-1.7-1.2-3-1.9
			c3.6-0.5,6.2-1.7,8-3.5c1.7-1.8,2.6-4.1,2.6-6.7c0-2.1-0.5-3.9-1.6-5.6c-1-1.7-2.4-2.9-4.2-3.6c-1.7-0.7-4.3-1-7.6-1h-16.6V590
			H599.5L599.5,590z M599.5,556.7h11.8c2.8,0,4.8,0.6,6.1,1.7c1.3,1.1,1.9,2.6,1.9,4.4c0,1.2-0.3,2.3-1,3.4c-0.7,1-1.6,1.8-2.9,2.2
			c-1.3,0.5-3,0.7-5.3,0.7h-10.6V556.7L599.5,556.7z M633.4,590l4.1-11.3h15.7l4.4,11.3h5.6l-15.3-37.4h-5.3L628.2,590H633.4
			L633.4,590z M643.1,563.7c0.9-2.4,1.5-4.8,2-7.2c0.6,2,1.5,4.6,2.7,7.8l3.9,10.4H639L643.1,563.7L643.1,563.7z"/>
		<path d="M317.6,650.2V635h9.6c5.3,0,9-1.1,11-3.3s3-4.9,3-8.1c0-1.9-0.4-3.6-1.1-5.1c-0.8-1.5-1.8-2.8-3-3.6
			c-1.2-0.9-2.8-1.4-4.6-1.7c-1.3-0.2-3.2-0.4-5.7-0.4h-14.1v37.4L317.6,650.2L317.6,650.2z M317.6,617.1h9.6c2.2,0,3.8,0.1,4.6,0.3
			c1.3,0.4,2.3,1.1,3.1,2.2c0.8,1.1,1.2,2.5,1.2,4c0,2.2-0.7,3.8-2,5s-3.6,1.8-6.8,1.8h-9.7L317.6,617.1L317.6,617.1z M375.6,650.2
			v-4.4h-23V633h20.7v-4.4h-20.7v-11.5h22.1v-4.4h-27.1v37.4h28V650.2z M387.5,650.2v-16.6h5.7c1.3,0,2.2,0.1,2.8,0.2
			c0.8,0.2,1.5,0.5,2.3,1c0.7,0.5,1.6,1.3,2.5,2.5s2.1,2.9,3.6,5.2l5,7.8h6.2L409,640c-1.3-2-2.7-3.7-4.1-5c-0.7-0.6-1.7-1.2-3-1.9
			c3.6-0.5,6.2-1.7,8-3.5c1.7-1.8,2.6-4.1,2.6-6.7c0-2.1-0.5-3.9-1.6-5.6c-1-1.7-2.4-2.9-4.2-3.6c-1.7-0.7-4.3-1-7.6-1h-16.6v37.4
			L387.5,650.2L387.5,650.2z M387.5,616.9h11.8c2.8,0,4.8,0.6,6.1,1.7c1.3,1.1,1.9,2.6,1.9,4.4c0,1.2-0.3,2.3-1,3.4
			c-0.7,1-1.6,1.8-2.9,2.2c-1.3,0.5-3,0.7-5.3,0.7h-10.6V616.9L387.5,616.9z M425.4,650.2v-17H443v-4.4h-17.6v-11.6h20.3v-4.4h-25.3
			v37.4H425.4L425.4,650.2z M452.8,641.3c1.4,2.9,3.5,5.3,6.3,7s5.9,2.6,9.4,2.6c3.3,0,6.3-0.8,9.1-2.3c2.8-1.5,5-3.8,6.5-6.8
			s2.3-6.4,2.3-10.2c0-3.7-0.7-7.1-2.2-10c-1.5-3-3.6-5.3-6.3-6.9c-2.8-1.7-5.9-2.5-9.3-2.5c-5.3,0-9.6,1.8-12.9,5.3s-5,8.4-5,14.6
			C450.6,635.2,451.3,638.3,452.8,641.3L452.8,641.3z M459.5,619.9c2.5-2.4,5.5-3.6,9.1-3.6c2.5,0,4.7,0.6,6.7,1.9
			c2,1.3,3.5,3,4.5,5.3s1.5,4.9,1.5,8c0,4.8-1.2,8.5-3.6,11.2c-2.4,2.6-5.5,3.9-9.2,3.9s-6.7-1.3-9.1-3.9c-2.4-2.6-3.6-6.2-3.6-10.7
			C455.7,626.4,457,622.4,459.5,619.9L459.5,619.9z M497.8,650.2v-16.6h5.7c1.3,0,2.2,0.1,2.8,0.2c0.8,0.2,1.5,0.5,2.3,1
			c0.7,0.5,1.6,1.3,2.5,2.5s2.1,2.9,3.6,5.2l5,7.8h6.2l-6.5-10.2c-1.3-2-2.7-3.7-4.1-5c-0.7-0.6-1.7-1.2-3-1.9
			c3.6-0.5,6.2-1.7,8-3.5c1.7-1.8,2.6-4.1,2.6-6.7c0-2.1-0.5-3.9-1.6-5.6c-1-1.7-2.4-2.9-4.2-3.6c-1.7-0.7-4.3-1-7.6-1h-16.6v37.4
			L497.8,650.2L497.8,650.2z M497.8,616.9h11.8c2.8,0,4.8,0.6,6.1,1.7c1.3,1.1,1.9,2.6,1.9,4.4c0,1.2-0.3,2.3-1,3.4
			c-0.7,1-1.6,1.8-2.9,2.2c-1.3,0.5-3,0.7-5.3,0.7h-10.6L497.8,616.9L497.8,616.9z M535.2,650.2v-31.9l10.8,31.9h4.5l10.9-31.3v31.3
			h4.8v-37.4h-6.7l-9,26c-0.9,2.6-1.6,4.6-2,6c-0.4-1.2-1-3.1-1.8-5.5l-8.9-26.5h-7.5v37.4H535.2L535.2,650.2z M575.3,650.2
			l4.1-11.3h15.7l4.4,11.3h5.6l-15.3-37.4h-5.3L570,650.2H575.3L575.3,650.2z M585,623.8c0.9-2.4,1.5-4.8,2-7.2
			c0.6,2,1.5,4.6,2.7,7.8l3.9,10.4h-12.7L585,623.8L585,623.8z M613.7,650.2v-29.4l19.7,29.4h5.1v-37.4h-4.7v29.4l-19.7-29.4H609
			v37.4H613.7L613.7,650.2z M669.6,644.2c-1.9,1.6-4.3,2.4-7,2.4c-2.3,0-4.4-0.6-6.4-1.8s-3.4-2.9-4.3-5.3c-0.9-2.4-1.4-5.2-1.4-8.3
			c0-2.5,0.4-4.9,1.2-7.2s2.1-4.2,4.1-5.6c1.9-1.4,4.3-2.1,7.2-2.1c2.5,0,4.6,0.6,6.2,1.9c1.7,1.2,2.9,3.2,3.8,6l4.9-1.1
			c-1-3.5-2.8-6.1-5.3-8c-2.6-1.9-5.7-2.9-9.4-2.9c-3.3,0-6.3,0.8-9.1,2.3c-2.7,1.5-4.9,3.7-6.4,6.6c-1.5,2.9-2.2,6.3-2.2,10.2
			c0,3.6,0.7,6.9,2,10s3.2,5.5,5.8,7.1c2.5,1.6,5.8,2.5,9.8,2.5c3.9,0,7.2-1.1,9.9-3.2c2.7-2.1,4.6-5.2,5.6-9.3l-5-1.3
			C672.8,640.2,671.5,642.6,669.6,644.2L669.6,644.2z M712.6,650.2v-4.4h-23V633h20.7v-4.4h-20.7v-11.5h22.1v-4.4h-27.1v37.4h28
			V650.2z"/>
	</g>
</g>
</svg>
