<svg id="ERA_400_CLD" data-name="ERA 400 CLD" xmlns="http://www.w3.org/2000/svg" viewBox="0 0 1024 1024"><defs><style>.cls-1{fill:#ccc;}.cls-1,.cls-4{fill-rule:evenodd;}.cls-2{fill:none;stroke:#000;stroke-linecap:round;stroke-linejoin:round;stroke-width:2.86px;}.cls-3,.cls-4{fill:#fff;}</style></defs><path class="cls-1" d="M197.59,376.13h0a44.77,44.77,0,0,0-6.77,4.67A44.88,44.88,0,0,0,177,400.91c-.69,1.94-1.37,3.87-2,5.82s-1.31,3.9-1.94,5.85-1.25,3.92-1.85,5.89-1.19,3.92-1.77,5.9H98.9l-23,23V663.25l23,23h73.64l1.08,3.35,1.11,3.33,1.14,3.33c.39,1.11.78,2.22,1.17,3.31a45,45,0,0,0,8,14.3,46.21,46.21,0,0,0,5.8,5.82,45.51,45.51,0,0,0,6.77,4.67L219.22,737V907.18l8.86,18.15,110.68,86.26h344.4l110.67-86.26,8.86-18.15V736.74l21.13-12.42a45.51,45.51,0,0,0,6.77-4.67,46.21,46.21,0,0,0,5.8-5.82A45.56,45.56,0,0,0,841,707a44.59,44.59,0,0,0,3.33-7.51c.4-1.09.78-2.2,1.17-3.31l1.14-3.33,1.11-3.33,1.08-3.35h74.23l23-23V447.33l-23-23H852c-.59-2-1.17-3.94-1.78-5.9s-1.22-3.93-1.85-5.89-1.28-3.9-1.94-5.85-1.34-3.88-2-5.82A44.94,44.94,0,0,0,841,393.4a45.09,45.09,0,0,0-10.45-12.6,44.77,44.77,0,0,0-6.77-4.67L802.65,363.7l-47-114.61L715.26,125.44l-32-28.86L658,96.43V11.59H363.88V96.43l-25.2.15-32,28.86L266.2,249.09l-47,110.36v4l-21.65,12.72m608,48.24h-2.94V422.7l.39.18.38.18.38.19.37.2.37.22.35.22.36.23.34.25m-586.36,0H215.8l.4-.28.41-.27.42-.26.43-.23.42-.24.45-.2.45-.2.46-.18v1.86"/><path class="cls-2" d="M197.59,376.13h0a44.77,44.77,0,0,0-6.77,4.67A44.88,44.88,0,0,0,177,400.91c-.69,1.94-1.37,3.87-2,5.82s-1.31,3.9-1.94,5.85-1.25,3.92-1.85,5.89-1.19,3.92-1.77,5.9H98.9l-23,23V663.25l23,23h73.64l1.08,3.35,1.11,3.33,1.14,3.33c.39,1.11.78,2.22,1.17,3.31a45,45,0,0,0,8,14.3,46.21,46.21,0,0,0,5.8,5.82,45.51,45.51,0,0,0,6.77,4.67L219.22,737V907.18l8.86,18.15,110.68,86.26h344.4l110.67-86.26,8.86-18.15V736.74l21.13-12.42a45.51,45.51,0,0,0,6.77-4.67,46.21,46.21,0,0,0,5.8-5.82A45.56,45.56,0,0,0,841,707a44.59,44.59,0,0,0,3.33-7.51c.4-1.09.78-2.2,1.17-3.31l1.14-3.33,1.11-3.33,1.08-3.35h74.23l23-23V447.33l-23-23H852c-.59-2-1.17-3.94-1.78-5.9s-1.22-3.93-1.85-5.89-1.28-3.9-1.94-5.85-1.34-3.88-2-5.82A44.94,44.94,0,0,0,841,393.4a45.09,45.09,0,0,0-10.45-12.6,44.77,44.77,0,0,0-6.77-4.67L802.65,363.7l-47-114.61L715.26,125.44l-32-28.86L658,96.43V11.59H363.88V96.43l-25.2.15-32,28.86L266.2,249.09l-47,110.36v4l-21.65,12.72m608,48.24h-2.94V422.7l.39.18.38.18.38.19.37.2.37.22.35.22.36.23.34.25m-586.36,0H215.8l.4-.28.41-.27.42-.26.43-.23.42-.24.45-.2.45-.2.46-.18v1.86"/><path class="cls-2" d="M264.86,580.63q.08-53.79-3.26-107.5T251.55,366m518.8,0q-6.72,53.35-10.07,107.09T757,580.63m7.5,171.27L757,580.63m-492.17,0-7.5,171.27m520,37.86L764.53,751.9m-507.17,0-12.8,37.86M755.68,249.09l47,110.36M742.2,254.16q6,27.81,13,55.79T770.35,366m-518.8,0q8.1-28.11,15.15-56.09t13-55.79M793.79,914.08,777.34,789.76m-532.78,0L228.09,914.08M735.5,187.35q1.29,16.62,3,33.33t3.73,33.48m-462.5,0q2-16.78,3.72-33.48t3-33.33M751.11,954.07l42.68-40m-565.7,0,42.7,40m0,0H751.11M304.16,133H717.72M510.94,95.58l-147.06.85m294.11,0-147-.85m-172.27,1H683.22m-172.28-1,35.89.21,45.78.26,40.58.24q16.24.08,24.8.14m-294.11,0q8.56-.06,24.81-.14l40.58-.24,45.78-.26,35.89-.21M140.59,493.28v124M122.27,424.37l1,0a4.91,4.91,0,0,1,2.35,1.47,18.8,18.8,0,0,1,3.19,3.95,36.18,36.18,0,0,1,3.1,6.43q1.49,3.89,3.58,11.14a136,136,0,0,1,3.62,20.54,214.65,214.65,0,0,1,1.5,25.34m0,124a215.3,215.3,0,0,1-1.51,25.39,134.72,134.72,0,0,1-3.62,20.52q-2.09,7.24-3.57,11.11a35.72,35.72,0,0,1-3.1,6.42,19.76,19.76,0,0,1-3.18,4,5,5,0,0,1-2.34,1.46l-1,0M881.46,493.28q0-7.26.66-17.56a158.85,158.85,0,0,1,3-21.49,107,107,0,0,1,5.33-18.67q3.06-7.47,5.44-9.41c1.58-1.31,2.88-1.9,3.87-1.78m0,261.84c-1,.11-2.28-.48-3.87-1.79s-3.39-4.42-5.43-9.38a105.64,105.64,0,0,1-5.33-18.61,160.15,160.15,0,0,1-3-21.5q-.69-10.32-.67-17.62m0-124v124m-761.74-124v124m-19.19,45.94q3.24.21,6.46-3a35.27,35.27,0,0,0,6.33-10.08,70.84,70.84,0,0,0,4.77-15.06,88.11,88.11,0,0,0,1.63-17.75m0-124a87.08,87.08,0,0,0-1.62-17.71,70.44,70.44,0,0,0-4.78-15.08q-3.1-6.86-6.33-10.12t-6.46-3m801.8,170a112.17,112.17,0,0,0,.7,11.75,70.23,70.23,0,0,0,3.13,14.33,53.14,53.14,0,0,0,5.6,12.41c2.13,3.3,4,5.39,5.69,6.26a8.33,8.33,0,0,0,4,1.19m-19.16-170v124m19.16-170a8.25,8.25,0,0,0-4,1.19c-1.67.87-3.56,3-5.69,6.28a53.41,53.41,0,0,0-5.6,12.44A69.81,69.81,0,0,0,903,481.57a108.82,108.82,0,0,0-.7,11.71m-826.45,170h24.65m21.74,23L111.4,674.73l-10.87-11.48m21.74-238.88-21.74,23m-24.65,0h24.65M946.1,663.25H921.49m0,0-21.74,23M946.1,447.33H921.49m0,0-10.87-11.48-10.87-11.48M219.22,686.21v-23m0-215.92v-23m0,238.88q0-54,0-108t0-108m0,238.88V737m0-314.51-.46.18-.45.2-.45.2-.42.24-.43.23-.42.26-.41.27-.4.28m3.44-61v59.1"/><path class="cls-2" d="M172.54,686.21h46.68M169.45,424.37h49.79M802.68,736.74l0-373m46.21,322.51H802.67M852,424.37h-49.3"/><rect class="cls-3" x="175.36" y="386.14" width="669.44" height="327.41"/><rect class="cls-2" x="175.36" y="386.14" width="669.44" height="327.41"/><polyline class="cls-4" points="207.56 416.82 812.62 416.82 812.62 682.86 207.56 682.86 207.56 416.82"/><path d="M365.52,486.83V431h40.35v6.57h-33v17.1H403.8v6.57H372.88v19h34.26v6.57Zm51.84,0V431h24.7q7.45,0,11.33,1.5a12.37,12.37,0,0,1,6.2,5.31,15.86,15.86,0,0,1,2.32,8.42,14.07,14.07,0,0,1-3.84,10q-3.84,4.07-11.86,5.17a19.47,19.47,0,0,1,4.45,2.78,38.23,38.23,0,0,1,6.11,7.42l9.65,15.18H457.2l-7.38-11.6q-3.22-5-5.32-7.69a16.84,16.84,0,0,0-3.75-3.73,11,11,0,0,0-3.36-1.48,21.93,21.93,0,0,0-4.11-.27h-8.55v24.77h-7.37Zm7.37-31.16h15.85a23.7,23.7,0,0,0,7.91-1.05,8.35,8.35,0,0,0,4.33-3.35,9.09,9.09,0,0,0,1.48-5,8.32,8.32,0,0,0-2.87-6.52q-2.87-2.57-9.06-2.56H424.73v18.5Zm42.55,31.16L488.6,431h8.09l22.75,55.8H511l-6.48-16.92H481.14l-6.07,16.92Zm16-22.94h18.95l-5.8-15.42q-2.67-7-4-11.66a78.64,78.64,0,0,1-3,10.76l-6.11,16.32Z"/><path d="M562.94,486.83V473.5H538.15v-6.26l26.1-36.15H570v36.15h7.73v6.26H570v13.33Zm0-19.59V442.13L545,467.24Zm22-7.93q0-9.87,2.09-15.92a19.68,19.68,0,0,1,6.19-9.29,16.19,16.19,0,0,1,10.35-3.26,17.34,17.34,0,0,1,8.08,1.81,15,15,0,0,1,5.73,5.21,27.86,27.86,0,0,1,3.54,8.28,54.2,54.2,0,0,1,1.28,13.17q0,9.81-2.06,15.85a19.66,19.66,0,0,1-6.18,9.31,16.16,16.16,0,0,1-10.39,3.27q-8.26,0-13-5.74-5.64-7-5.65-22.69Zm7.23,0q0,13.74,3.29,18.26t8.11,4.53q4.83,0,8.12-4.55T615,459.3q0-13.76-3.29-18.27c-2.18-3-4.92-4.52-8.19-4.52a9.1,9.1,0,0,0-7.73,4q-3.6,5.1-3.6,18.81Zm37.18,0q0-9.87,2.09-15.92a19.68,19.68,0,0,1,6.19-9.29A16.18,16.18,0,0,1,648,430.84a17.34,17.34,0,0,1,8.08,1.81,15,15,0,0,1,5.73,5.21,27.6,27.6,0,0,1,3.53,8.28,53.63,53.63,0,0,1,1.29,13.17q0,9.81-2.06,15.85a19.66,19.66,0,0,1-6.18,9.31A16.16,16.16,0,0,1,648,487.74q-8.26,0-13-5.74-5.64-7-5.65-22.69Zm7.23,0q0,13.74,3.29,18.26t8.11,4.53q4.83,0,8.12-4.55t3.28-18.24q0-13.76-3.28-18.27a9.78,9.78,0,0,0-8.2-4.52,9.1,9.1,0,0,0-7.72,4q-3.6,5.1-3.6,18.81Z"/><path d="M214.68,575.51v-55.8h21a50.27,50.27,0,0,1,8.48.53,16.83,16.83,0,0,1,6.88,2.61,13.67,13.67,0,0,1,4.47,5.38,18.18,18.18,0,0,1-2.84,19.66q-4.51,4.92-16.35,4.92H222.05v22.7Zm7.37-29.27h14.41q7.14,0,10.15-2.66a9.52,9.52,0,0,0,3-7.51,10.09,10.09,0,0,0-1.77-6,8.27,8.27,0,0,0-4.65-3.29,31.49,31.49,0,0,0-6.89-.5H222v20Zm44.6,29.27v-55.8H307v6.57H274v17.1h30.92V550H274v19h34.26v6.57Zm51.84,0v-55.8h24.7q7.46,0,11.33,1.5a12.37,12.37,0,0,1,6.2,5.31,15.86,15.86,0,0,1,2.32,8.42,14,14,0,0,1-3.84,10q-3.84,4.08-11.86,5.18a19.47,19.47,0,0,1,4.45,2.78,38.23,38.23,0,0,1,6.11,7.42l9.65,15.18h-9.22L351,563.91q-3.22-5-5.32-7.69a16.84,16.84,0,0,0-3.75-3.73,11,11,0,0,0-3.36-1.48,21.93,21.93,0,0,0-4.11-.27h-8.55v24.77h-7.37Zm7.37-31.16h15.85a23.7,23.7,0,0,0,7.91-1.05A8.4,8.4,0,0,0,354,540a9.09,9.09,0,0,0,1.48-5,8.34,8.34,0,0,0-2.86-6.52q-2.88-2.56-9.07-2.56H325.86v18.5Zm49,31.16v-55.8h37.61v6.57H382.22v17.28h26.17v6.58H382.22v25.37Zm44.87-27.19q0-13.87,7.46-21.73t19.24-7.86a26.67,26.67,0,0,1,13.91,3.69,24.13,24.13,0,0,1,9.45,10.29,33.39,33.39,0,0,1,3.25,15,32.87,32.87,0,0,1-3.42,15.18,23.36,23.36,0,0,1-9.7,10.13,27.61,27.61,0,0,1-13.53,3.44,26.3,26.3,0,0,1-14.07-3.8,24.45,24.45,0,0,1-9.4-10.38,31.62,31.62,0,0,1-3.19-13.92Zm7.61.1q0,10.07,5.41,15.87a18.91,18.91,0,0,0,27.3,0q5.38-5.87,5.38-16.62a28.63,28.63,0,0,0-2.3-11.89,17.62,17.62,0,0,0-6.73-7.87,18.19,18.19,0,0,0-9.94-2.8A18.85,18.85,0,0,0,433,530.44q-5.64,5.38-5.64,18Zm55.25,27.09v-55.8h24.7q7.44,0,11.33,1.5a12.35,12.35,0,0,1,6.19,5.31,15.86,15.86,0,0,1,2.32,8.42,14,14,0,0,1-3.84,10q-3.84,4.08-11.86,5.18a19.25,19.25,0,0,1,4.45,2.78,38.23,38.23,0,0,1,6.11,7.42l9.65,15.18h-9.22L515,563.91q-3.22-5-5.32-7.69a16.63,16.63,0,0,0-3.75-3.73,11,11,0,0,0-3.36-1.48,21.86,21.86,0,0,0-4.11-.27H490v24.77ZM490,544.35H505.8a23.66,23.66,0,0,0,7.91-1.05A8.36,8.36,0,0,0,518,540a9.1,9.1,0,0,0,1.49-5,8.35,8.35,0,0,0-2.87-6.52q-2.88-2.56-9.07-2.56H490v18.5Zm48.39,31.16v-55.8h11.09l13.23,39.48q1.83,5.5,2.67,8.25,1-3,3-8.94l13.46-38.79h9.87v55.8h-7.12V528.77l-16.28,46.74H561.6L545.46,528v47.53Zm58.92,0,21.31-55.8h8.09l22.76,55.8H641l-6.48-16.92H611.12l-6.07,16.92Zm16-22.94h19l-5.8-15.42q-2.67-7-4-11.66a78.64,78.64,0,0,1-3,10.76l-6.11,16.32Zm41.85,22.94v-55.8h7.55L692,563.52V519.71H699v55.8h-7.56L662.19,531.7v43.81Zm95.92-19.6,7.36,1.86q-2.31,9.11-8.33,13.88a23,23,0,0,1-14.72,4.77q-9,0-14.65-3.67a22.91,22.91,0,0,1-8.58-10.63,37.92,37.92,0,0,1-3-15,32.84,32.84,0,0,1,3.33-15.2A22.75,22.75,0,0,1,722,522.1a27.65,27.65,0,0,1,13.5-3.37,22.75,22.75,0,0,1,14,4.27,22.11,22.11,0,0,1,7.94,12l-7.24,1.71q-1.94-6.08-5.62-8.86a14.94,14.94,0,0,0-9.26-2.77,17.93,17.93,0,0,0-10.73,3.08,16.23,16.23,0,0,0-6.05,8.27,33.19,33.19,0,0,0-1.75,10.7,34,34,0,0,0,2.07,12.42,15.44,15.44,0,0,0,6.44,7.93,18,18,0,0,0,9.46,2.63,15.81,15.81,0,0,0,10.48-3.58q4.29-3.57,5.81-10.61Zm16.51,19.6v-55.8H807.9v6.57h-33v17.1h30.92V550H774.92v19h34.26v6.57Z"/><path d="M478.06,644.59l7.36,1.86q-2.31,9.09-8.33,13.87a22.93,22.93,0,0,1-14.72,4.78q-9,0-14.65-3.67a22.88,22.88,0,0,1-8.58-10.64,37.84,37.84,0,0,1-2.95-14.95,33,33,0,0,1,3.32-15.2,22.78,22.78,0,0,1,9.46-9.86,27.65,27.65,0,0,1,13.5-3.37,22.69,22.69,0,0,1,14,4.27,22.11,22.11,0,0,1,7.94,12l-7.24,1.71q-1.93-6.09-5.62-8.86a14.94,14.94,0,0,0-9.26-2.78,18,18,0,0,0-10.73,3.08,16.37,16.37,0,0,0-6.06,8.28,33.46,33.46,0,0,0-1.74,10.7,34.09,34.09,0,0,0,2.07,12.42,15.44,15.44,0,0,0,6.44,7.93,18,18,0,0,0,9.46,2.63,15.86,15.86,0,0,0,10.48-3.58q4.29-3.57,5.81-10.61Zm16.08,19.6V608.38h7.36v49.24H529v6.57Zm43.52,0V608.38h19.19a46.69,46.69,0,0,1,9.92.8,18.88,18.88,0,0,1,8.17,4,22.77,22.77,0,0,1,6.6,9.54A37.62,37.62,0,0,1,583.72,636a39,39,0,0,1-1.48,11.27,27.67,27.67,0,0,1-3.8,8.13,20.29,20.29,0,0,1-5.08,5.06,20.7,20.7,0,0,1-6.65,2.8,38.1,38.1,0,0,1-9,1Zm7.36-6.57h11.9a29,29,0,0,0,8.65-1,12.42,12.42,0,0,0,5-2.9,17.67,17.67,0,0,0,4.08-7.06,34.49,34.49,0,0,0,1.47-10.76q0-8.76-2.88-13.47a14.41,14.41,0,0,0-7-6.3q-3-1.14-9.54-1.14H545v42.66Z"/></svg>