<?xml version="1.0" encoding="utf-8"?>
<!-- Generator: Adobe Illustrator 27.9.0, SVG Export Plug-In . SVG Version: 6.00 Build 0)  -->
<svg version="1.1" id="EXT_Wash_Pro_-_Thumbnail" xmlns="http://www.w3.org/2000/svg" xmlns:xlink="http://www.w3.org/1999/xlink"
	 x="0px" y="0px" viewBox="0 0 1024 1024" style="enable-background:new 0 0 1024 1024;" xml:space="preserve">
<style type="text/css">
	.st0{fill-rule:evenodd;clip-rule:evenodd;fill:#BBBBBB;stroke:#1D1D1B;stroke-miterlimit:10;}
	.st1{fill:none;stroke:#1D1D1B;stroke-linecap:round;stroke-linejoin:round;stroke-miterlimit:10;}
	.st2{fill-rule:evenodd;clip-rule:evenodd;fill:#FFFFFF;stroke:#1D1D1B;stroke-miterlimit:10;}
	.st3{stroke:#1D1D1B;stroke-miterlimit:10;}
</style>
<g id="Ext_Washo_Pro_XL_QUAD">
	<path class="st0" d="M68.1,180.3v667.6c0,62.8,51.6,114.4,114.4,114.4h678.6c62.8,0,114.4-51.6,114.4-114.4V180.3
		c0-62.8-51.6-114.4-114.4-114.4H182.5C119.8,65.9,68.1,117.5,68.1,180.3"/>
	<path class="st1" d="M68.1,180.3v667.6c0,62.8,51.6,114.4,114.4,114.4h678.6c62.8,0,114.4-51.6,114.4-114.4V180.3
		c0-62.8-51.6-114.4-114.4-114.4H182.5C119.8,65.9,68.1,117.5,68.1,180.3"/>
	<path class="st0" d="M222.2,335.5c0-33.7-27.7-61.4-61.4-61.4c-33.7,0-61.4,27.7-61.4,61.4c0,33.7,27.7,61.4,61.4,61.4
		C194.5,397,222.2,369.2,222.2,335.5"/>
	<path class="st1" d="M222.2,335.5c0-33.7-27.7-61.4-61.4-61.4c-33.7,0-61.4,27.7-61.4,61.4c0,33.7,27.7,61.4,61.4,61.4
		C194.5,397,222.2,369.2,222.2,335.5"/>
	<path class="st0" d="M222.2,514.1c0-33.7-27.7-61.4-61.4-61.4c-33.7,0-61.4,27.7-61.4,61.4c0,33.7,27.7,61.4,61.4,61.4
		C194.5,575.5,222.2,547.8,222.2,514.1"/>
	<path class="st1" d="M222.2,514.1c0-33.7-27.7-61.4-61.4-61.4c-33.7,0-61.4,27.7-61.4,61.4c0,33.7,27.7,61.4,61.4,61.4
		C194.5,575.5,222.2,547.8,222.2,514.1"/>
	<path class="st0" d="M222.2,692.6c0-33.7-27.7-61.4-61.4-61.4c-33.7,0-61.4,27.7-61.4,61.4c0,33.7,27.7,61.4,61.4,61.4
		C194.5,754,222.2,726.3,222.2,692.6"/>
	<path class="st1" d="M222.2,692.6c0-33.7-27.7-61.4-61.4-61.4c-33.7,0-61.4,27.7-61.4,61.4c0,33.7,27.7,61.4,61.4,61.4
		C194.5,754,222.2,726.3,222.2,692.6"/>
	<path class="st0" d="M222.2,871.1c0-33.7-27.7-61.4-61.4-61.4c-33.7,0-61.4,27.7-61.4,61.4c0,33.7,27.7,61.4,61.4,61.4
		C194.5,932.6,222.2,904.8,222.2,871.1"/>
	<path class="st1" d="M222.2,871.1c0-33.7-27.7-61.4-61.4-61.4c-33.7,0-61.4,27.7-61.4,61.4c0,33.7,27.7,61.4,61.4,61.4
		C194.5,932.6,222.2,904.8,222.2,871.1"/>
	<path class="st0" d="M222.2,157c0-33.7-27.7-61.4-61.4-61.4c-33.7,0-61.4,27.7-61.4,61.4c0,33.7,27.7,61.4,61.4,61.4
		C194.5,218.4,222.2,190.7,222.2,157"/>
	<path class="st1" d="M222.2,157c0-33.7-27.7-61.4-61.4-61.4c-33.7,0-61.4,27.7-61.4,61.4c0,33.7,27.7,61.4,61.4,61.4
		C194.5,218.4,222.2,190.7,222.2,157"/>
	<path class="st0" d="M400.5,335.5c0-33.7-27.7-61.4-61.4-61.4c-33.7,0-61.4,27.7-61.4,61.4c0,33.7,27.7,61.4,61.4,61.4
		C372.8,397,400.5,369.2,400.5,335.5"/>
	<path class="st1" d="M400.5,335.5c0-33.7-27.7-61.4-61.4-61.4c-33.7,0-61.4,27.7-61.4,61.4c0,33.7,27.7,61.4,61.4,61.4
		C372.8,397,400.5,369.2,400.5,335.5"/>
	<path class="st0" d="M400.5,514.1c0-33.7-27.7-61.4-61.4-61.4c-33.7,0-61.4,27.7-61.4,61.4c0,33.7,27.7,61.4,61.4,61.4
		C372.8,575.5,400.5,547.8,400.5,514.1"/>
	<path class="st1" d="M400.5,514.1c0-33.7-27.7-61.4-61.4-61.4c-33.7,0-61.4,27.7-61.4,61.4c0,33.7,27.7,61.4,61.4,61.4
		C372.8,575.5,400.5,547.8,400.5,514.1"/>
	<path class="st0" d="M400.5,692.6c0-33.7-27.7-61.4-61.4-61.4c-33.7,0-61.4,27.7-61.4,61.4c0,33.7,27.7,61.4,61.4,61.4
		C372.8,754,400.5,726.3,400.5,692.6"/>
	<path class="st1" d="M400.5,692.6c0-33.7-27.7-61.4-61.4-61.4c-33.7,0-61.4,27.7-61.4,61.4c0,33.7,27.7,61.4,61.4,61.4
		C372.8,754,400.5,726.3,400.5,692.6"/>
	<path class="st0" d="M400.5,871.1c0-33.7-27.7-61.4-61.4-61.4c-33.7,0-61.4,27.7-61.4,61.4c0,33.7,27.7,61.4,61.4,61.4
		C372.8,932.6,400.5,904.8,400.5,871.1"/>
	<path class="st1" d="M400.5,871.1c0-33.7-27.7-61.4-61.4-61.4c-33.7,0-61.4,27.7-61.4,61.4c0,33.7,27.7,61.4,61.4,61.4
		C372.8,932.6,400.5,904.8,400.5,871.1"/>
	<path class="st0" d="M400.5,157c0-33.7-27.7-61.4-61.4-61.4c-33.7,0-61.4,27.7-61.4,61.4c0,33.7,27.7,61.4,61.4,61.4
		C372.8,218.4,400.5,190.7,400.5,157"/>
	<path class="st1" d="M400.5,157c0-33.7-27.7-61.4-61.4-61.4c-33.7,0-61.4,27.7-61.4,61.4c0,33.7,27.7,61.4,61.4,61.4
		C372.8,218.4,400.5,190.7,400.5,157"/>
	<path class="st0" d="M578.8,335.5c0-33.7-27.7-61.4-61.4-61.4c-33.7,0-61.4,27.7-61.4,61.4c0,33.7,27.7,61.4,61.4,61.4
		C551,397,578.8,369.2,578.8,335.5"/>
	<path class="st1" d="M578.8,335.5c0-33.7-27.7-61.4-61.4-61.4c-33.7,0-61.4,27.7-61.4,61.4c0,33.7,27.7,61.4,61.4,61.4
		C551,397,578.8,369.2,578.8,335.5"/>
	<path class="st0" d="M578.8,514.1c0-33.7-27.7-61.4-61.4-61.4c-33.7,0-61.4,27.7-61.4,61.4c0,33.7,27.7,61.4,61.4,61.4
		C551,575.5,578.8,547.8,578.8,514.1"/>
	<path class="st1" d="M578.8,514.1c0-33.7-27.7-61.4-61.4-61.4c-33.7,0-61.4,27.7-61.4,61.4c0,33.7,27.7,61.4,61.4,61.4
		C551,575.5,578.8,547.8,578.8,514.1"/>
	<path class="st0" d="M578.8,692.6c0-33.7-27.7-61.4-61.4-61.4c-33.7,0-61.4,27.7-61.4,61.4c0,33.7,27.7,61.4,61.4,61.4
		C551,754,578.8,726.3,578.8,692.6"/>
	<path class="st1" d="M578.8,692.6c0-33.7-27.7-61.4-61.4-61.4c-33.7,0-61.4,27.7-61.4,61.4c0,33.7,27.7,61.4,61.4,61.4
		C551,754,578.8,726.3,578.8,692.6"/>
	<path class="st0" d="M578.8,871.1c0-33.7-27.7-61.4-61.4-61.4c-33.7,0-61.4,27.7-61.4,61.4c0,33.7,27.7,61.4,61.4,61.4
		C551,932.6,578.8,904.8,578.8,871.1"/>
	<path class="st1" d="M578.8,871.1c0-33.7-27.7-61.4-61.4-61.4c-33.7,0-61.4,27.7-61.4,61.4c0,33.7,27.7,61.4,61.4,61.4
		C551,932.6,578.8,904.8,578.8,871.1"/>
	<path class="st0" d="M578.8,157c0-33.7-27.7-61.4-61.4-61.4c-33.7,0-61.4,27.7-61.4,61.4c0,33.7,27.7,61.4,61.4,61.4
		C551,218.4,578.8,190.7,578.8,157"/>
	<path class="st1" d="M578.8,157c0-33.7-27.7-61.4-61.4-61.4c-33.7,0-61.4,27.7-61.4,61.4c0,33.7,27.7,61.4,61.4,61.4
		C551,218.4,578.8,190.7,578.8,157"/>
	<path class="st0" d="M757,335.5c0-33.7-27.7-61.4-61.4-61.4c-33.7,0-61.4,27.7-61.4,61.4c0,33.7,27.7,61.4,61.4,61.4
		C729.3,397,757,369.2,757,335.5"/>
	<path class="st1" d="M757,335.5c0-33.7-27.7-61.4-61.4-61.4c-33.7,0-61.4,27.7-61.4,61.4c0,33.7,27.7,61.4,61.4,61.4
		C729.3,397,757,369.2,757,335.5"/>
	<path class="st0" d="M757,514.1c0-33.7-27.7-61.4-61.4-61.4c-33.7,0-61.4,27.7-61.4,61.4c0,33.7,27.7,61.4,61.4,61.4
		C729.3,575.5,757,547.8,757,514.1"/>
	<path class="st1" d="M757,514.1c0-33.7-27.7-61.4-61.4-61.4c-33.7,0-61.4,27.7-61.4,61.4c0,33.7,27.7,61.4,61.4,61.4
		C729.3,575.5,757,547.8,757,514.1"/>
	<path class="st0" d="M757,692.6c0-33.7-27.7-61.4-61.4-61.4c-33.7,0-61.4,27.7-61.4,61.4c0,33.7,27.7,61.4,61.4,61.4
		C729.3,754,757,726.3,757,692.6"/>
	<path class="st1" d="M757,692.6c0-33.7-27.7-61.4-61.4-61.4c-33.7,0-61.4,27.7-61.4,61.4c0,33.7,27.7,61.4,61.4,61.4
		C729.3,754,757,726.3,757,692.6"/>
	<path class="st0" d="M757,871.1c0-33.7-27.7-61.4-61.4-61.4c-33.7,0-61.4,27.7-61.4,61.4c0,33.7,27.7,61.4,61.4,61.4
		C729.3,932.6,757,904.8,757,871.1"/>
	<path class="st1" d="M757,871.1c0-33.7-27.7-61.4-61.4-61.4c-33.7,0-61.4,27.7-61.4,61.4c0,33.7,27.7,61.4,61.4,61.4
		C729.3,932.6,757,904.8,757,871.1"/>
	<path class="st0" d="M757,157c0-33.7-27.7-61.4-61.4-61.4c-33.7,0-61.4,27.7-61.4,61.4c0,33.7,27.7,61.4,61.4,61.4
		C729.3,218.4,757,190.7,757,157"/>
	<path class="st1" d="M757,157c0-33.7-27.7-61.4-61.4-61.4c-33.7,0-61.4,27.7-61.4,61.4c0,33.7,27.7,61.4,61.4,61.4
		C729.3,218.4,757,190.7,757,157"/>
	<path class="st0" d="M935.3,335.5c0-33.7-27.7-61.4-61.4-61.4c-33.7,0-61.4,27.7-61.4,61.4c0,33.7,27.7,61.4,61.4,61.4
		C907.6,397,935.3,369.2,935.3,335.5"/>
	<path class="st1" d="M935.3,335.5c0-33.7-27.7-61.4-61.4-61.4c-33.7,0-61.4,27.7-61.4,61.4c0,33.7,27.7,61.4,61.4,61.4
		C907.6,397,935.3,369.2,935.3,335.5"/>
	<path class="st0" d="M935.3,514.1c0-33.7-27.7-61.4-61.4-61.4c-33.7,0-61.4,27.7-61.4,61.4c0,33.7,27.7,61.4,61.4,61.4
		C907.6,575.5,935.3,547.8,935.3,514.1"/>
	<path class="st1" d="M935.3,514.1c0-33.7-27.7-61.4-61.4-61.4c-33.7,0-61.4,27.7-61.4,61.4c0,33.7,27.7,61.4,61.4,61.4
		C907.6,575.5,935.3,547.8,935.3,514.1"/>
	<path class="st0" d="M935.3,692.6c0-33.7-27.7-61.4-61.4-61.4c-33.7,0-61.4,27.7-61.4,61.4c0,33.7,27.7,61.4,61.4,61.4
		C907.6,754,935.3,726.3,935.3,692.6"/>
	<path class="st1" d="M935.3,692.6c0-33.7-27.7-61.4-61.4-61.4c-33.7,0-61.4,27.7-61.4,61.4c0,33.7,27.7,61.4,61.4,61.4
		C907.6,754,935.3,726.3,935.3,692.6"/>
	<path class="st0" d="M935.3,871.1c0-33.7-27.7-61.4-61.4-61.4c-33.7,0-61.4,27.7-61.4,61.4c0,33.7,27.7,61.4,61.4,61.4
		C907.6,932.6,935.3,904.8,935.3,871.1"/>
	<path class="st1" d="M935.3,871.1c0-33.7-27.7-61.4-61.4-61.4c-33.7,0-61.4,27.7-61.4,61.4c0,33.7,27.7,61.4,61.4,61.4
		C907.6,932.6,935.3,904.8,935.3,871.1"/>
	<path class="st0" d="M935.3,157c0-33.7-27.7-61.4-61.4-61.4c-33.7,0-61.4,27.7-61.4,61.4c0,33.7,27.7,61.4,61.4,61.4
		C907.6,218.4,935.3,190.7,935.3,157"/>
	<path class="st1" d="M935.3,157c0-33.7-27.7-61.4-61.4-61.4c-33.7,0-61.4,27.7-61.4,61.4c0,33.7,27.7,61.4,61.4,61.4
		C907.6,218.4,935.3,190.7,935.3,157"/>
	<path class="st0" d="M9.5,177.8v668.4c0,91.7,75.6,167.1,167.5,167.1h670c91.9,0,167.5-75.4,167.5-167.1V177.8
		c0-91.7-75.6-167.1-167.5-167.1H177C85.1,10.7,9.5,86.1,9.5,177.8"/>
	<path class="st1" d="M9.5,177.8v668.4c0,91.7,75.6,167.1,167.5,167.1h670c91.9,0,167.5-75.4,167.5-167.1V177.8
		c0-91.7-75.6-167.1-167.5-167.1H177C85.1,10.7,9.5,86.1,9.5,177.8"/>
	<path class="st0" d="M62.8,178.2v667.6c0,62.8,51.6,114.4,114.4,114.4h678.6c62.8,0,114.4-51.6,114.4-114.4V178.2
		c0-62.8-51.6-114.4-114.4-114.4H177.2C114.4,63.8,62.8,115.4,62.8,178.2"/>
	<path class="st1" d="M62.8,178.2v667.6c0,62.8,51.6,114.4,114.4,114.4h678.6c62.8,0,114.4-51.6,114.4-114.4V178.2
		c0-62.8-51.6-114.4-114.4-114.4H177.2C114.4,63.8,62.8,115.4,62.8,178.2"/>
	<path class="st0" d="M216.9,333.5c0-33.7-27.7-61.4-61.4-61.4c-33.7,0-61.4,27.7-61.4,61.4c0,33.7,27.7,61.4,61.4,61.4
		C189.2,394.9,216.9,367.2,216.9,333.5"/>
	<path class="st1" d="M216.9,333.5c0-33.7-27.7-61.4-61.4-61.4c-33.7,0-61.4,27.7-61.4,61.4c0,33.7,27.7,61.4,61.4,61.4
		C189.2,394.9,216.9,367.2,216.9,333.5"/>
	<path class="st0" d="M216.9,512c0-33.7-27.7-61.4-61.4-61.4c-33.7,0-61.4,27.7-61.4,61.4s27.7,61.4,61.4,61.4
		C189.2,573.4,216.9,545.7,216.9,512"/>
	<path class="st1" d="M216.9,512c0-33.7-27.7-61.4-61.4-61.4c-33.7,0-61.4,27.7-61.4,61.4s27.7,61.4,61.4,61.4
		C189.2,573.4,216.9,545.7,216.9,512"/>
	<path class="st0" d="M216.9,690.5c0-33.7-27.7-61.4-61.4-61.4c-33.7,0-61.4,27.7-61.4,61.4c0,33.7,27.7,61.4,61.4,61.4
		C189.2,752,216.9,724.2,216.9,690.5"/>
	<path class="st1" d="M216.9,690.5c0-33.7-27.7-61.4-61.4-61.4c-33.7,0-61.4,27.7-61.4,61.4c0,33.7,27.7,61.4,61.4,61.4
		C189.2,752,216.9,724.2,216.9,690.5"/>
	<path class="st0" d="M216.9,869.1c0-33.7-27.7-61.4-61.4-61.4c-33.7,0-61.4,27.7-61.4,61.4c0,33.7,27.7,61.4,61.4,61.4
		C189.2,930.5,216.9,902.8,216.9,869.1"/>
	<path class="st1" d="M216.9,869.1c0-33.7-27.7-61.4-61.4-61.4c-33.7,0-61.4,27.7-61.4,61.4c0,33.7,27.7,61.4,61.4,61.4
		C189.2,930.5,216.9,902.8,216.9,869.1"/>
	<path class="st0" d="M216.9,154.9c0-33.7-27.7-61.4-61.4-61.4c-33.7,0-61.4,27.7-61.4,61.4c0,33.7,27.7,61.4,61.4,61.4
		C189.2,216.3,216.9,188.6,216.9,154.9"/>
	<path class="st1" d="M216.9,154.9c0-33.7-27.7-61.4-61.4-61.4c-33.7,0-61.4,27.7-61.4,61.4c0,33.7,27.7,61.4,61.4,61.4
		C189.2,216.3,216.9,188.6,216.9,154.9"/>
	<path class="st0" d="M395.2,333.5c0-33.7-27.7-61.4-61.4-61.4c-33.7,0-61.4,27.7-61.4,61.4c0,33.7,27.7,61.4,61.4,61.4
		C367.4,394.9,395.2,367.2,395.2,333.5"/>
	<path class="st1" d="M395.2,333.5c0-33.7-27.7-61.4-61.4-61.4c-33.7,0-61.4,27.7-61.4,61.4c0,33.7,27.7,61.4,61.4,61.4
		C367.4,394.9,395.2,367.2,395.2,333.5"/>
	<path class="st0" d="M395.2,512c0-33.7-27.7-61.4-61.4-61.4c-33.7,0-61.4,27.7-61.4,61.4s27.7,61.4,61.4,61.4
		C367.4,573.4,395.2,545.7,395.2,512"/>
	<path class="st1" d="M395.2,512c0-33.7-27.7-61.4-61.4-61.4c-33.7,0-61.4,27.7-61.4,61.4s27.7,61.4,61.4,61.4
		C367.4,573.4,395.2,545.7,395.2,512"/>
	<path class="st0" d="M395.2,690.5c0-33.7-27.7-61.4-61.4-61.4c-33.7,0-61.4,27.7-61.4,61.4c0,33.7,27.7,61.4,61.4,61.4
		C367.4,752,395.2,724.2,395.2,690.5"/>
	<path class="st1" d="M395.2,690.5c0-33.7-27.7-61.4-61.4-61.4c-33.7,0-61.4,27.7-61.4,61.4c0,33.7,27.7,61.4,61.4,61.4
		C367.4,752,395.2,724.2,395.2,690.5"/>
	<path class="st0" d="M395.2,869.1c0-33.7-27.7-61.4-61.4-61.4c-33.7,0-61.4,27.7-61.4,61.4c0,33.7,27.7,61.4,61.4,61.4
		C367.4,930.5,395.2,902.8,395.2,869.1"/>
	<path class="st1" d="M395.2,869.1c0-33.7-27.7-61.4-61.4-61.4c-33.7,0-61.4,27.7-61.4,61.4c0,33.7,27.7,61.4,61.4,61.4
		C367.4,930.5,395.2,902.8,395.2,869.1"/>
	<path class="st0" d="M395.2,154.9c0-33.7-27.7-61.4-61.4-61.4c-33.7,0-61.4,27.7-61.4,61.4c0,33.7,27.7,61.4,61.4,61.4
		C367.4,216.3,395.2,188.6,395.2,154.9"/>
	<path class="st1" d="M395.2,154.9c0-33.7-27.7-61.4-61.4-61.4c-33.7,0-61.4,27.7-61.4,61.4c0,33.7,27.7,61.4,61.4,61.4
		C367.4,216.3,395.2,188.6,395.2,154.9"/>
	<path class="st0" d="M573.4,333.5c0-33.7-27.7-61.4-61.4-61.4c-33.7,0-61.4,27.7-61.4,61.4c0,33.7,27.7,61.4,61.4,61.4
		C545.7,394.9,573.4,367.2,573.4,333.5"/>
	<path class="st1" d="M573.4,333.5c0-33.7-27.7-61.4-61.4-61.4c-33.7,0-61.4,27.7-61.4,61.4c0,33.7,27.7,61.4,61.4,61.4
		C545.7,394.9,573.4,367.2,573.4,333.5"/>
	<path class="st0" d="M573.4,512c0-33.7-27.7-61.4-61.4-61.4c-33.7,0-61.4,27.7-61.4,61.4s27.7,61.4,61.4,61.4
		C545.7,573.4,573.4,545.7,573.4,512"/>
	<path class="st1" d="M573.4,512c0-33.7-27.7-61.4-61.4-61.4c-33.7,0-61.4,27.7-61.4,61.4s27.7,61.4,61.4,61.4
		C545.7,573.4,573.4,545.7,573.4,512"/>
	<path class="st0" d="M573.4,690.5c0-33.7-27.7-61.4-61.4-61.4c-33.7,0-61.4,27.7-61.4,61.4c0,33.7,27.7,61.4,61.4,61.4
		C545.7,752,573.4,724.2,573.4,690.5"/>
	<path class="st1" d="M573.4,690.5c0-33.7-27.7-61.4-61.4-61.4c-33.7,0-61.4,27.7-61.4,61.4c0,33.7,27.7,61.4,61.4,61.4
		C545.7,752,573.4,724.2,573.4,690.5"/>
	<path class="st0" d="M573.4,869.1c0-33.7-27.7-61.4-61.4-61.4c-33.7,0-61.4,27.7-61.4,61.4c0,33.7,27.7,61.4,61.4,61.4
		C545.7,930.5,573.4,902.8,573.4,869.1"/>
	<path class="st1" d="M573.4,869.1c0-33.7-27.7-61.4-61.4-61.4c-33.7,0-61.4,27.7-61.4,61.4c0,33.7,27.7,61.4,61.4,61.4
		C545.7,930.5,573.4,902.8,573.4,869.1"/>
	<path class="st0" d="M573.4,154.9c0-33.7-27.7-61.4-61.4-61.4c-33.7,0-61.4,27.7-61.4,61.4c0,33.7,27.7,61.4,61.4,61.4
		C545.7,216.3,573.4,188.6,573.4,154.9"/>
	<path class="st1" d="M573.4,154.9c0-33.7-27.7-61.4-61.4-61.4c-33.7,0-61.4,27.7-61.4,61.4c0,33.7,27.7,61.4,61.4,61.4
		C545.7,216.3,573.4,188.6,573.4,154.9"/>
	<path class="st0" d="M751.7,333.5c0-33.7-27.7-61.4-61.4-61.4c-33.7,0-61.4,27.7-61.4,61.4c0,33.7,27.7,61.4,61.4,61.4
		C724,394.9,751.7,367.2,751.7,333.5"/>
	<path class="st1" d="M751.7,333.5c0-33.7-27.7-61.4-61.4-61.4c-33.7,0-61.4,27.7-61.4,61.4c0,33.7,27.7,61.4,61.4,61.4
		C724,394.9,751.7,367.2,751.7,333.5"/>
	<path class="st0" d="M751.7,512c0-33.7-27.7-61.4-61.4-61.4c-33.7,0-61.4,27.7-61.4,61.4s27.7,61.4,61.4,61.4
		C724,573.4,751.7,545.7,751.7,512"/>
	<path class="st1" d="M751.7,512c0-33.7-27.7-61.4-61.4-61.4c-33.7,0-61.4,27.7-61.4,61.4s27.7,61.4,61.4,61.4
		C724,573.4,751.7,545.7,751.7,512"/>
	<path class="st0" d="M751.7,690.5c0-33.7-27.7-61.4-61.4-61.4c-33.7,0-61.4,27.7-61.4,61.4c0,33.7,27.7,61.4,61.4,61.4
		C724,752,751.7,724.2,751.7,690.5"/>
	<path class="st1" d="M751.7,690.5c0-33.7-27.7-61.4-61.4-61.4c-33.7,0-61.4,27.7-61.4,61.4c0,33.7,27.7,61.4,61.4,61.4
		C724,752,751.7,724.2,751.7,690.5"/>
	<path class="st0" d="M751.7,869.1c0-33.7-27.7-61.4-61.4-61.4c-33.7,0-61.4,27.7-61.4,61.4c0,33.7,27.7,61.4,61.4,61.4
		C724,930.5,751.7,902.8,751.7,869.1"/>
	<path class="st1" d="M751.7,869.1c0-33.7-27.7-61.4-61.4-61.4c-33.7,0-61.4,27.7-61.4,61.4c0,33.7,27.7,61.4,61.4,61.4
		C724,930.5,751.7,902.8,751.7,869.1"/>
	<path class="st0" d="M751.7,154.9c0-33.7-27.7-61.4-61.4-61.4c-33.7,0-61.4,27.7-61.4,61.4c0,33.7,27.7,61.4,61.4,61.4
		C724,216.3,751.7,188.6,751.7,154.9"/>
	<path class="st1" d="M751.7,154.9c0-33.7-27.7-61.4-61.4-61.4c-33.7,0-61.4,27.7-61.4,61.4c0,33.7,27.7,61.4,61.4,61.4
		C724,216.3,751.7,188.6,751.7,154.9"/>
	<path class="st0" d="M930,333.5c0-33.7-27.7-61.4-61.4-61.4c-33.7,0-61.4,27.7-61.4,61.4c0,33.7,27.7,61.4,61.4,61.4
		C902.2,394.9,930,367.2,930,333.5"/>
	<path class="st1" d="M930,333.5c0-33.7-27.7-61.4-61.4-61.4c-33.7,0-61.4,27.7-61.4,61.4c0,33.7,27.7,61.4,61.4,61.4
		C902.2,394.9,930,367.2,930,333.5"/>
	<path class="st0" d="M930,512c0-33.7-27.7-61.4-61.4-61.4c-33.7,0-61.4,27.7-61.4,61.4s27.7,61.4,61.4,61.4
		C902.2,573.4,930,545.7,930,512"/>
	<path class="st1" d="M930,512c0-33.7-27.7-61.4-61.4-61.4c-33.7,0-61.4,27.7-61.4,61.4s27.7,61.4,61.4,61.4
		C902.2,573.4,930,545.7,930,512"/>
	<path class="st0" d="M930,690.5c0-33.7-27.7-61.4-61.4-61.4c-33.7,0-61.4,27.7-61.4,61.4c0,33.7,27.7,61.4,61.4,61.4
		C902.2,752,930,724.2,930,690.5"/>
	<path class="st1" d="M930,690.5c0-33.7-27.7-61.4-61.4-61.4c-33.7,0-61.4,27.7-61.4,61.4c0,33.7,27.7,61.4,61.4,61.4
		C902.2,752,930,724.2,930,690.5"/>
	<path class="st0" d="M930,869.1c0-33.7-27.7-61.4-61.4-61.4c-33.7,0-61.4,27.7-61.4,61.4c0,33.7,27.7,61.4,61.4,61.4
		C902.2,930.5,930,902.8,930,869.1"/>
	<path class="st1" d="M930,869.1c0-33.7-27.7-61.4-61.4-61.4c-33.7,0-61.4,27.7-61.4,61.4c0,33.7,27.7,61.4,61.4,61.4
		C902.2,930.5,930,902.8,930,869.1"/>
	<path class="st0" d="M930,154.9c0-33.7-27.7-61.4-61.4-61.4c-33.7,0-61.4,27.7-61.4,61.4c0,33.7,27.7,61.4,61.4,61.4
		C902.2,216.3,930,188.6,930,154.9"/>
	<path class="st1" d="M930,154.9c0-33.7-27.7-61.4-61.4-61.4c-33.7,0-61.4,27.7-61.4,61.4c0,33.7,27.7,61.4,61.4,61.4
		C902.2,216.3,930,188.6,930,154.9"/>
	<rect x="114.1" y="371.1" class="st2" width="806.5" height="286"/>
	<path class="st3" d="M207.9,489.8v-11.7h-38.7v-18.9h34.8v-11.7h-34.8v-15.4h37.4v-11.7h-51.4v69.3H207.9L207.9,489.8z
		 M229.5,489.8l15.4-24l15.4,24h16.9l-23.7-35.7l21.6-33.7h-16.2l-13.6,22.3l-13.9-22.3h-16.4l21.5,33.2l-23.7,36.2H229.5
		L229.5,489.8z M313.9,489.8v-57.6h20.5v-11.7h-55.1v11.7h20.6v57.6H313.9L313.9,489.8z M395.4,489.8l13.8-51.8l13.8,51.8h14.9
		l16.8-69.3h-14.1l-10.6,48.4l-12.2-48.4h-16.6l-12.7,47.6L378,420.5h-14.3l16.6,69.3H395.4L395.4,489.8z M496.6,420.5h-14.8
		l-27,69.3h14.9l5.7-15.7h27.7l6.1,15.7h15.2L496.6,420.5L496.6,420.5z M479.7,462.4l9.4-25.7l9.6,25.7H479.7L479.7,462.4z
		 M536.6,485c4.7,4.1,11.4,6.1,20.2,6.1c6,0,11.1-0.8,15.1-2.5c4-1.7,7.2-4.3,9.4-7.7c2.2-3.5,3.3-7.2,3.3-11.2
		c0-4.4-0.9-8.1-2.8-11c-1.8-3-4.4-5.3-7.7-7c-3.3-1.7-8.3-3.4-15.1-5c-6.8-1.6-11.1-3.2-12.9-4.6c-1.4-1.2-2.1-2.6-2.1-4.2
		c0-1.8,0.7-3.2,2.2-4.3c2.3-1.7,5.5-2.5,9.6-2.5c3.9,0,6.9,0.8,8.9,2.3c2,1.6,3.3,4.1,3.9,7.7l14-0.6c-0.2-6.4-2.5-11.5-6.9-15.3
		c-4.4-3.8-10.9-5.7-19.7-5.7c-5.3,0-9.9,0.8-13.6,2.4c-3.8,1.6-6.7,3.9-8.7,7c-2,3.1-3,6.4-3,9.9c0,5.5,2.1,10.1,6.4,14
		c3,2.7,8.3,5,15.8,6.9c5.8,1.5,9.6,2.5,11.2,3c2.4,0.9,4.1,1.9,5,3c1,1.2,1.4,2.5,1.4,4.2c0,2.6-1.1,4.8-3.4,6.7
		c-2.3,1.9-5.7,2.9-10.2,2.9c-4.3,0-7.6-1.1-10.1-3.2c-2.5-2.1-4.2-5.5-5-10.1l-13.6,1.3C529.1,475,531.9,480.9,536.6,485L536.6,485
		z M610.4,489.8v-30.3h27.4v30.3h14v-69.3h-14v27.3h-27.4v-27.3h-14v69.3H610.4L610.4,489.8z M707.2,489.8v-26.2h9.1
		c6.3,0,11.2-0.3,14.5-1c2.5-0.5,4.9-1.6,7.3-3.3c2.4-1.7,4.3-3.9,5.9-6.8c1.5-2.9,2.3-6.5,2.3-10.7c0-5.5-1.3-10-4-13.5
		c-2.7-3.5-6-5.7-10-6.8c-2.6-0.7-8.1-1-16.6-1h-22.5v69.3H707.2L707.2,489.8z M714,432.2c5,0,8.4,0.2,10.1,0.5
		c2.3,0.4,4.1,1.4,5.6,3.1c1.5,1.6,2.2,3.7,2.2,6.2c0,2-0.5,3.8-1.6,5.4c-1.1,1.5-2.5,2.7-4.4,3.4c-1.9,0.7-5.5,1.1-11.1,1.1h-7.7
		v-19.7H714L714,432.2z M771.9,489.8v-28.9h2.8c3.2,0,5.6,0.3,7,0.8c1.5,0.5,2.9,1.5,4.2,2.9c1.3,1.4,3.8,4.8,7.4,10.2l10.1,15.1
		h16.7l-8.5-13.5c-3.3-5.4-6-9.1-8-11.3c-2-2.1-4.5-4.1-7.5-5.8c6.1-0.9,10.7-3,13.7-6.4c3.1-3.4,4.6-7.7,4.6-12.9
		c0-4.1-1-7.7-3-10.9c-2-3.2-4.7-5.4-8.1-6.6c-3.4-1.2-8.7-1.9-16.2-1.9h-29.5v69.3H771.9L771.9,489.8z M771.9,432.2h10.9
		c5.7,0,9.1,0.1,10.2,0.2c2.3,0.4,4,1.3,5.3,2.7c1.2,1.4,1.9,3.3,1.9,5.7c0,2.1-0.5,3.8-1.4,5.2c-0.9,1.4-2.3,2.4-3.9,2.9
		c-1.7,0.6-5.9,0.9-12.6,0.9h-10.4V432.2L771.9,432.2z M834.1,481.6c6.1,6.3,14.3,9.4,24.6,9.4c10.2,0,18.3-3.2,24.4-9.5
		c6.1-6.3,9.1-15.1,9.1-26.3c0-11.3-3.1-20.1-9.2-26.4c-6.1-6.3-14.3-9.5-24.5-9.5c-5.6,0-10.6,0.9-14.9,2.7c-3.2,1.4-6.2,3.4-9,6.2
		c-2.7,2.8-4.9,6-6.5,9.5c-2.1,4.8-3.2,10.7-3.2,17.8C824.9,466.6,828,475.3,834.1,481.6L834.1,481.6z M844.7,437.2
		c3.5-4,8.2-5.9,14-5.9s10.4,2,13.9,5.9c3.5,3.9,5.2,9.8,5.2,17.8c0,8-1.8,14.1-5.4,18.1c-3.6,4-8.2,6-13.7,6s-10.2-2-13.8-6.1
		c-3.6-4.1-5.4-10-5.4-17.9C839.4,447.1,841.1,441.2,844.7,437.2L844.7,437.2z"/>
	<path class="st3" d="M316.2,604.1l15.4-24l15.4,24h16.9l-23.7-35.7l21.6-33.7h-16.2l-13.6,22.3L318,534.8h-16.4l21.5,33.2
		l-23.7,36.2H316.2L316.2,604.1z M420.3,604.1v-11.7h-34.8v-57.1h-14v68.8H420.3L420.3,604.1z M519,585.3c1.7-4.5,2.5-9.8,2.5-15.8
		c0-11.3-3-20.1-9-26.4c-6-6.3-14.2-9.4-24.5-9.4c-10.4,0-18.6,3.1-24.6,9.4c-6.1,6.3-9.1,15.1-9.1,26.4c0,11.4,3,20.2,9.1,26.4
		c6,6.3,14.4,9.4,25,9.4c5.5,0,10.5-1,15.1-3c5.8,3.9,8.9,5.9,9.3,6.1c2,1.1,4.1,2,6.2,2.6l5.2-9.9c-4-1.4-7.8-3.4-11.2-5.9
		C515.7,592.1,517.7,588.7,519,585.3L519,585.3L519,585.3z M488.5,580.3l-3.9,8c2.9,1,5.8,2.5,8.7,4.4c-1.8,0.7-3.7,1-5.7,1
		c-5.4,0-9.9-2-13.5-6c-3.5-4-5.3-10.1-5.3-18.2c0-8,1.8-14,5.3-17.9c3.5-4,8.2-6,13.9-6c5.7,0,10.3,2,13.9,5.9
		c3.5,4,5.3,9.9,5.3,17.9c0,3.9-0.4,7.3-1.3,10.3c-0.9,3-2.2,5.5-4,7.7C497.5,584.3,493.1,581.9,488.5,580.3L488.5,580.3
		L488.5,580.3z M532.4,571.8c0,7.8,0.5,13.6,1.4,17.6c0.6,2.7,1.9,5.2,3.9,7.7c2,2.4,4.7,4.4,8.1,6c3.4,1.5,8.4,2.3,15.1,2.3
		c5.5,0,9.9-0.7,13.3-2.1c3.4-1.4,6.1-3.3,8.2-5.7c2-2.4,3.4-5.3,4.2-8.7c0.8-3.4,1.1-9.3,1.1-17.6v-36.4h-14v38.4
		c0,5.5-0.2,9.4-0.6,11.8c-0.4,2.4-1.6,4.4-3.6,6c-2,1.6-5,2.4-9,2.4c-3.9,0-7-0.9-9.2-2.6c-2.3-1.7-3.7-4-4.3-6.8
		c-0.3-1.8-0.5-5.6-0.5-11.6v-37.6h-14V571.8L532.4,571.8z M637.2,534.8h-14.8l-27,69.3h14.9l5.7-15.7h27.7l6.1,15.7H665
		L637.2,534.8L637.2,534.8z M620.3,576.7l9.4-25.7l9.6,25.7H620.3L620.3,576.7z M672.3,604.1h26.3c5.2,0,9.3-0.5,12.4-1.5
		c4.1-1.3,7.4-3.2,9.8-5.5c3.2-3.1,5.7-7.2,7.4-12.2c1.4-4.1,2.1-9,2.1-14.8c0-6.5-0.8-12-2.3-16.4c-1.5-4.4-3.7-8.2-6.6-11.2
		c-2.9-3.1-6.4-5.2-10.5-6.4c-3-0.9-7.4-1.3-13.2-1.3h-25.6V604.1L672.3,604.1z M692.6,546.5c5.7,0,9.5,0.2,11.5,0.7
		c2.6,0.6,4.8,1.7,6.5,3.3c1.7,1.6,3,3.8,4,6.7c0.9,2.9,1.4,7,1.4,12.3c0,5.4-0.5,9.6-1.4,12.7c-0.9,3.1-2.2,5.3-3.7,6.7
		c-1.5,1.4-3.4,2.3-5.7,2.9c-1.7,0.4-4.6,0.7-8.5,0.7h-10.5v-45.9H692.6L692.6,546.5z"/>
</g>
</svg>
