<svg id="MAC_Allure" data-name="MAC Allure" xmlns="http://www.w3.org/2000/svg" viewBox="0 0 1024 1024"><defs><style>.cls-1{fill:#ccc;fill-rule:evenodd;}.cls-1,.cls-2,.cls-3,.cls-4{stroke:#000;stroke-width:2.46px;}.cls-1,.cls-3,.cls-4{stroke-miterlimit:10;}.cls-2{fill:none;stroke-linecap:round;stroke-linejoin:round;}.cls-3{fill:#fff;}</style></defs><path class="cls-1" d="M987.37,512.12h0q-.93,33.81-4.58,67.48t-10,66.89q-6.33,33.22-15.31,65.87T937,776.8l-60.77,8.25H147.79L87,776.8Q75.44,745,66.46,712.36T51.17,646.47q-6.31-33.24-9.93-66.91t-4.51-67.49q.89-33.84,4.5-67.52t9.92-66.95q6.32-33.25,15.3-65.92T87,247.2L147.79,239H876.2L937,247.2q11.58,31.83,20.56,64.5t15.31,65.93q6.33,33.27,10,66.95t4.56,67.54M94.83,333.59h0q-5.73,21.81-10,44T77.6,422.09q-2.88,22.38-4.3,44.9t-1.41,45.08q0,22.54,1.41,45T77.61,602q2.88,22.37,7.19,44.5t10,43.93a49.29,49.29,0,0,0,39,3.92l10.89-3.48,5.65-47.32L153.87,512,150.4,380.47l-5.65-47.31-10.89-3.48a49.29,49.29,0,0,0-39,3.91M873.6,643.53l5.64,47.32,10.89,3.48a49.29,49.29,0,0,0,39-3.92q5.72-21.79,10-43.93t7.2-44.48q2.89-22.35,4.35-44.84t1.48-45q0-22.56-1.47-45.09t-4.34-44.91q-2.89-22.38-7.21-44.54t-10-44a49.29,49.29,0,0,0-39-3.91l-10.89,3.48-5.64,47.31L870.12,512l3.48,131.53"/><path class="cls-2" d="M987.37,512.12h0q-.93,33.81-4.58,67.48t-10,66.89q-6.33,33.22-15.31,65.87T937,776.8l-60.77,8.25H147.79L87,776.8Q75.44,745,66.46,712.36T51.17,646.47q-6.31-33.24-9.93-66.91t-4.51-67.49q.89-33.84,4.5-67.52t9.92-66.95q6.32-33.25,15.3-65.92T87,247.2L147.79,239H876.2L937,247.2q11.58,31.83,20.56,64.5t15.31,65.93q6.33,33.27,10,66.95t4.56,67.54M94.83,333.59h0q-5.73,21.81-10,44T77.6,422.09q-2.88,22.38-4.3,44.9t-1.41,45.08q0,22.54,1.41,45T77.61,602q2.88,22.37,7.19,44.5t10,43.93a49.29,49.29,0,0,0,39,3.92l10.89-3.48,5.65-47.32L153.87,512,150.4,380.47l-5.65-47.31-10.89-3.48a49.29,49.29,0,0,0-39,3.91M873.6,643.53l5.64,47.32,10.89,3.48a49.29,49.29,0,0,0,39-3.92q5.72-21.79,10-43.93t7.2-44.48q2.89-22.35,4.35-44.84t1.48-45q0-22.56-1.47-45.09t-4.34-44.91q-2.89-22.38-7.21-44.54t-10-44a49.29,49.29,0,0,0-39-3.91l-10.89,3.48-5.64,47.31L870.12,512l3.48,131.53"/><polyline class="cls-1" points="166.9 360.07 169.93 512 166.9 663.93 42.74 653.08 29.72 645.27 7.58 512 29.72 378.73 42.74 370.92 166.9 360.07"/><path class="cls-2" d="M166.9,360.07l3,151.93-3,151.94L42.74,653.08l-13-7.81L7.58,512,29.72,378.73l13-7.81L166.9,360.07Zm-124.16,293h0a246.34,246.34,0,0,0,3-280.86"/><polyline class="cls-1" points="857.11 360.07 854.07 512 857.11 663.93 981.26 653.08 994.28 645.27 1016.42 512 994.28 378.73 981.26 370.92 857.11 360.07"/><path class="cls-2" d="M857.11,360.07l-3,151.93,3,151.94,124.15-10.86,13-7.81L1016.42,512,994.28,378.73l-13-7.81L857.11,360.07Zm121.11,12.15h0a246.32,246.32,0,0,0,3,280.86"/><polyline class="cls-1" points="166.9 360.07 857.11 360.07 854.07 512 857.11 663.93 166.9 663.93 169.93 512 166.9 360.07"/><polygon class="cls-2" points="166.9 360.07 857.11 360.07 854.07 512 857.11 663.93 166.9 663.93 169.93 512 166.9 360.07 166.9 360.07"/><path class="cls-1" d="M877.05,512c0-200.26-164.79-365-365-365S147,311.74,147,512,311.74,877,512,877s365-164.78,365-365"/><path class="cls-2" d="M877.05,512c0-200.26-164.79-365-365-365S147,311.74,147,512,311.74,877,512,877s365-164.78,365-365"/><path class="cls-1" d="M832,512c0-175.52-144.44-320-320-320S192,336.48,192,512,336.47,832,512,832,832,687.53,832,512"/><path class="cls-2" d="M832,512c0-175.52-144.44-320-320-320S192,336.48,192,512,336.47,832,512,832,832,687.53,832,512"/><path class="cls-1" d="M555.32,463.68h0a66.27,66.27,0,0,1-6.52-2.42,62.2,62.2,0,0,1-6.22-3.11,65.38,65.38,0,0,1-5.86-3.75A64.6,64.6,0,0,1,531.3,450a65.2,65.2,0,0,0-9.77-2.23,65.2,65.2,0,0,0-20,.14,65.24,65.24,0,0,0-9.74,2.37,63,63,0,0,1-5.35,4.44,67.66,67.66,0,0,1-5.8,3.84,66.84,66.84,0,0,1-6.18,3.19,69.08,69.08,0,0,1-6.49,2.52A64.42,64.42,0,0,0,455.57,480,64.13,64.13,0,0,0,451.3,489a65.31,65.31,0,0,0-2.81,9.61,64.15,64.15,0,0,1,1.59,13.81,65.86,65.86,0,0,1-1.39,13.82,64.87,64.87,0,0,0,13.07,26.81,64,64,0,0,0,6.92,7.24,66.27,66.27,0,0,1,6.52,2.42,64.41,64.41,0,0,1,6.22,3.11,66.19,66.19,0,0,1,5.86,3.75A68.89,68.89,0,0,1,492.7,574a65,65,0,0,0,39.49-.28,63.43,63.43,0,0,1,5.36-4.44,62.49,62.49,0,0,1,5.8-3.83,65.52,65.52,0,0,1,6.17-3.2A66.36,66.36,0,0,1,556,559.7,65.18,65.18,0,0,0,572.7,535a65.79,65.79,0,0,0,2.81-9.62,65.88,65.88,0,0,1-1.59-13.8,67.23,67.23,0,0,1,.33-6.95,63.67,63.67,0,0,1,1.06-6.87,63.9,63.9,0,0,0-2.95-9.58,64.82,64.82,0,0,0-10.12-17.24,64,64,0,0,0-6.92-7.24"/><path class="cls-2" d="M555.32,463.68h0a66.27,66.27,0,0,1-6.52-2.42,62.2,62.2,0,0,1-6.22-3.11,65.38,65.38,0,0,1-5.86-3.75A64.6,64.6,0,0,1,531.3,450a65.2,65.2,0,0,0-9.77-2.23,65.2,65.2,0,0,0-20,.14,65.24,65.24,0,0,0-9.74,2.37,63,63,0,0,1-5.35,4.44,67.66,67.66,0,0,1-5.8,3.84,66.84,66.84,0,0,1-6.18,3.19,69.08,69.08,0,0,1-6.49,2.52A64.42,64.42,0,0,0,455.57,480,64.13,64.13,0,0,0,451.3,489a65.31,65.31,0,0,0-2.81,9.61,64.15,64.15,0,0,1,1.59,13.81,65.86,65.86,0,0,1-1.39,13.82,64.87,64.87,0,0,0,13.07,26.81,64,64,0,0,0,6.92,7.24,66.27,66.27,0,0,1,6.52,2.42,64.41,64.41,0,0,1,6.22,3.11,66.19,66.19,0,0,1,5.86,3.75A68.89,68.89,0,0,1,492.7,574a65,65,0,0,0,39.49-.28,63.43,63.43,0,0,1,5.36-4.44,62.49,62.49,0,0,1,5.8-3.83,65.52,65.52,0,0,1,6.17-3.2A66.36,66.36,0,0,1,556,559.7,65.18,65.18,0,0,0,572.7,535a65.79,65.79,0,0,0,2.81-9.62,65.88,65.88,0,0,1-1.59-13.8,67.23,67.23,0,0,1,.33-6.95,63.67,63.67,0,0,1,1.06-6.87,63.9,63.9,0,0,0-2.95-9.58,64.82,64.82,0,0,0-10.12-17.24,64,64,0,0,0-6.92-7.24"/><path class="cls-1" d="M511.31,416h0a64.2,64.2,0,0,1-1.16-6.86,62.17,62.17,0,0,1-.42-6.95,64.35,64.35,0,0,1,.32-6.94,66.44,66.44,0,0,1,1.06-6.88,64.89,64.89,0,0,0-44.32-47.79,64.55,64.55,0,0,1-9.23,2,64.68,64.68,0,0,1-28-2.2,63.59,63.59,0,0,0-7.09,2.53,64.94,64.94,0,0,0-6.74,3.34,62.64,62.64,0,0,0-6.32,4.1,64.77,64.77,0,0,0-5.8,4.8,63.43,63.43,0,0,1-2.81,9.43,64.91,64.91,0,0,1-16.39,24.3A64.9,64.9,0,0,0,404.48,451a65.33,65.33,0,0,1,6.52,2.42,64.85,64.85,0,0,1,17.5,11.22,64.91,64.91,0,0,0,78.68-35.77A64.22,64.22,0,0,0,511.31,416"/><path class="cls-2" d="M511.31,416h0a64.2,64.2,0,0,1-1.16-6.86,62.17,62.17,0,0,1-.42-6.95,64.35,64.35,0,0,1,.32-6.94,66.44,66.44,0,0,1,1.06-6.88,64.89,64.89,0,0,0-44.32-47.79,64.55,64.55,0,0,1-9.23,2,64.68,64.68,0,0,1-28-2.2,63.59,63.59,0,0,0-7.09,2.53,64.94,64.94,0,0,0-6.74,3.34,62.64,62.64,0,0,0-6.32,4.1,64.77,64.77,0,0,0-5.8,4.8,63.43,63.43,0,0,1-2.81,9.43,64.91,64.91,0,0,1-16.39,24.3A64.9,64.9,0,0,0,404.48,451a65.33,65.33,0,0,1,6.52,2.42,64.85,64.85,0,0,1,17.5,11.22,64.91,64.91,0,0,0,78.68-35.77A64.22,64.22,0,0,0,511.31,416"/><path class="cls-1" d="M511.9,292.21h0a64.59,64.59,0,0,1-1.13-6.91,63,63,0,0,1-.38-7,65.17,65.17,0,0,1,1.51-13.92,64.9,64.9,0,1,0-126,30.9,65.67,65.67,0,0,1,5.63,6.38,64.89,64.89,0,0,1,11.29,22.71,64.9,64.9,0,0,0,109.1-32.16"/><path class="cls-2" d="M511.9,292.21h0a64.59,64.59,0,0,1-1.13-6.91,63,63,0,0,1-.38-7,65.17,65.17,0,0,1,1.51-13.92,64.9,64.9,0,1,0-126,30.9,65.67,65.67,0,0,1,5.63,6.38,64.89,64.89,0,0,1,11.29,22.71,64.9,64.9,0,0,0,109.1-32.16"/><path class="cls-1" d="M294.41,387.38h0a64.32,64.32,0,0,1,15.71,6.44,64.88,64.88,0,0,1,13.49,10.29,64.93,64.93,0,1,0-29.2-16.73"/><path class="cls-2" d="M294.41,387.38h0a64.32,64.32,0,0,1,15.71,6.44,64.88,64.88,0,0,1,13.49,10.29,64.93,64.93,0,1,0-29.2-16.73"/><path class="cls-1" d="M322.11,497.61h0a65.17,65.17,0,0,1,7.05-17.47,64.92,64.92,0,0,1,11.77-14.7,64.91,64.91,0,1,0-79.67,47.43,64.73,64.73,0,0,1,25.3-1.75,66.2,66.2,0,0,1,8.35,1.63,64.79,64.79,0,0,0,27.2-15.14"/><path class="cls-2" d="M322.11,497.61h0a65.17,65.17,0,0,1,7.05-17.47,64.92,64.92,0,0,1,11.77-14.7,64.91,64.91,0,1,0-79.67,47.43,64.73,64.73,0,0,1,25.3-1.75,66.2,66.2,0,0,1,8.35,1.63,64.79,64.79,0,0,0,27.2-15.14"/><path class="cls-1" d="M341.55,561h0a64.42,64.42,0,0,1-6.77-7.15,65,65,0,0,1-12.85-26.35,64.89,64.89,0,1,0-26.64,110.68,63.24,63.24,0,0,1,6.37-5.64,64.32,64.32,0,0,1,7-4.74,63.45,63.45,0,0,1,7.61-3.79,65.31,65.31,0,0,1,8.05-2.76A65,65,0,0,0,341.55,561"/><path class="cls-2" d="M341.55,561h0a64.42,64.42,0,0,1-6.77-7.15,65,65,0,0,1-12.85-26.35,64.89,64.89,0,1,0-26.64,110.68,63.24,63.24,0,0,1,6.37-5.64,64.32,64.32,0,0,1,7-4.74,63.45,63.45,0,0,1,7.61-3.79,65.31,65.31,0,0,1,8.05-2.76A65,65,0,0,0,341.55,561"/><path class="cls-1" d="M404.59,669.25h0a64.6,64.6,0,0,1-6.34-7,65.52,65.52,0,0,1-5.26-7.85,65.29,65.29,0,0,1-6.85-17.54,64.9,64.9,0,1,0,1.24,92.72,64.32,64.32,0,0,1,6.44-15.71,64.36,64.36,0,0,1,4.7-7.08,63,63,0,0,1,5.59-6.41,67.41,67.41,0,0,0,1.54-7.71,66.22,66.22,0,0,0,.59-7.83,64.35,64.35,0,0,0-.35-7.85,65.27,65.27,0,0,0-1.3-7.75"/><path class="cls-2" d="M404.59,669.25h0a64.6,64.6,0,0,1-6.34-7,65.52,65.52,0,0,1-5.26-7.85,65.29,65.29,0,0,1-6.85-17.54,64.9,64.9,0,1,0,1.24,92.72,64.32,64.32,0,0,1,6.44-15.71,64.36,64.36,0,0,1,4.7-7.08,63,63,0,0,1,5.59-6.41,67.41,67.41,0,0,0,1.54-7.71,66.22,66.22,0,0,0,.59-7.83,64.35,64.35,0,0,0-.35-7.85,65.27,65.27,0,0,0-1.3-7.75"/><path class="cls-1" d="M469.16,684.09h0a62.84,62.84,0,0,1-9.57,2.28,65,65,0,0,1-29.24-2,64.9,64.9,0,1,0,82.52,78.42,65.89,65.89,0,0,1-1.69-8.34,64.93,64.93,0,0,1,1.57-25.31,64.85,64.85,0,0,0-43.59-45"/><path class="cls-2" d="M469.16,684.09h0a62.84,62.84,0,0,1-9.57,2.28,65,65,0,0,1-29.24-2,64.9,64.9,0,1,0,82.52,78.42,65.89,65.89,0,0,1-1.69-8.34,64.93,64.93,0,0,1,1.57-25.31,64.85,64.85,0,0,0-43.59-45"/><path class="cls-1" d="M594.48,683.64h0a64.85,64.85,0,0,1-28.06,1.89,63,63,0,0,1-9.21-2.1,64.89,64.89,0,1,0,80.92,45.29,64.88,64.88,0,0,1-16.93-29.09,66,66,0,0,0-5.9-5.18,65.24,65.24,0,0,0-6.49-4.44,64.72,64.72,0,0,0-14.33-6.37"/><path class="cls-2" d="M594.48,683.64h0a64.85,64.85,0,0,1-28.06,1.89,63,63,0,0,1-9.21-2.1,64.89,64.89,0,1,0,80.92,45.29,64.88,64.88,0,0,1-16.93-29.09,66,66,0,0,0-5.9-5.18,65.24,65.24,0,0,0-6.49-4.44,64.72,64.72,0,0,0-14.33-6.37"/><path class="cls-1" d="M639.62,635.15h0a64.72,64.72,0,0,1-7,18.33,65.47,65.47,0,0,1-12.18,15.4,64.9,64.9,0,1,0,109.17-32.26,65.31,65.31,0,0,1-8.07-2.7,66.63,66.63,0,0,1-7.64-3.74,65.3,65.3,0,0,1-13.49-10.28,64.84,64.84,0,0,0-32.35-.2,64.71,64.71,0,0,0-28.42,15.45"/><path class="cls-2" d="M639.62,635.15h0a64.72,64.72,0,0,1-7,18.33,65.47,65.47,0,0,1-12.18,15.4,64.9,64.9,0,1,0,109.17-32.26,65.31,65.31,0,0,1-8.07-2.7,66.63,66.63,0,0,1-7.64-3.74,65.3,65.3,0,0,1-13.49-10.28,64.84,64.84,0,0,0-32.35-.2,64.71,64.71,0,0,0-28.42,15.45"/><path class="cls-1" d="M701.89,526.4h0a65.68,65.68,0,0,1-2.89,9,64.6,64.6,0,0,1-9.51,16.26,63.7,63.7,0,0,1-6.42,6.92,64.91,64.91,0,1,0,79.67-47.43,63.69,63.69,0,0,1-8.33,1.69,64.56,64.56,0,0,1-17,.06,65.7,65.7,0,0,1-8.34-1.63,65.26,65.26,0,0,0-7.45,2.52,64.89,64.89,0,0,0-19.76,12.63"/><path class="cls-2" d="M701.89,526.4h0a65.68,65.68,0,0,1-2.89,9,64.6,64.6,0,0,1-9.51,16.26,63.7,63.7,0,0,1-6.42,6.92,64.91,64.91,0,1,0,79.67-47.43,63.69,63.69,0,0,1-8.33,1.69,64.56,64.56,0,0,1-17,.06,65.7,65.7,0,0,1-8.34-1.63,65.26,65.26,0,0,0-7.45,2.52,64.89,64.89,0,0,0-19.76,12.63"/><path class="cls-1" d="M682.46,463.06h0a63.51,63.51,0,0,1,6.76,7.15,65.09,65.09,0,0,1,9.92,16.94,65.59,65.59,0,0,1,2.93,9.4,64.9,64.9,0,1,0,26.65-110.68,64.47,64.47,0,0,1-6.38,5.64,65.86,65.86,0,0,1-7.05,4.75,64.91,64.91,0,0,1-7.61,3.78,63.69,63.69,0,0,1-8,2.76,64.91,64.91,0,0,0-17.17,60.26"/><path class="cls-2" d="M682.46,463.06h0a63.51,63.51,0,0,1,6.76,7.15,65.09,65.09,0,0,1,9.92,16.94,65.59,65.59,0,0,1,2.93,9.4,64.9,64.9,0,1,0,26.65-110.68,64.47,64.47,0,0,1-6.38,5.64,65.86,65.86,0,0,1-7.05,4.75,64.91,64.91,0,0,1-7.61,3.78,63.69,63.69,0,0,1-8,2.76,64.91,64.91,0,0,0-17.17,60.26"/><path class="cls-1" d="M638.61,292.49h0A64.85,64.85,0,0,1,626,318.8a66.64,66.64,0,0,1-6.68,7.17,64,64,0,0,0-1.19,7.16,64.92,64.92,0,0,0,0,14.48,63.78,63.78,0,0,0,1.23,7.14,65.66,65.66,0,0,1,6.34,7,64.62,64.62,0,0,1,5.26,7.84,63.91,63.91,0,0,1,4.06,8.52,64.86,64.86,0,0,1,2.79,9,64.89,64.89,0,1,0,.75-94.64"/><path class="cls-2" d="M638.61,292.49h0A64.85,64.85,0,0,1,626,318.8a66.64,66.64,0,0,1-6.68,7.17,64,64,0,0,0-1.19,7.16,64.92,64.92,0,0,0,0,14.48,63.78,63.78,0,0,0,1.23,7.14,65.66,65.66,0,0,1,6.34,7,64.62,64.62,0,0,1,5.26,7.84,63.91,63.91,0,0,1,4.06,8.52,64.86,64.86,0,0,1,2.79,9,64.89,64.89,0,1,0,.75-94.64"/><path class="cls-1" d="M405.37,574.59h0a65.4,65.4,0,0,1,5.36-4.44,63.85,63.85,0,0,1,5.8-3.83,62.28,62.28,0,0,1,6.18-3.2,65.22,65.22,0,0,1,6.48-2.51,64.9,64.9,0,1,0-23.82,14"/><path class="cls-2" d="M405.37,574.59h0a65.4,65.4,0,0,1,5.36-4.44,63.85,63.85,0,0,1,5.8-3.83,62.28,62.28,0,0,1,6.18-3.2,65.22,65.22,0,0,1,6.48-2.51,64.9,64.9,0,1,0-23.82,14"/><path class="cls-1" d="M512.89,635.64h0a63.36,63.36,0,0,1-1.16-6.86,63.65,63.65,0,0,1-.1-13.89,63.67,63.67,0,0,1,1.06-6.87,64.91,64.91,0,1,0,.2,27.62"/><path class="cls-2" d="M512.89,635.64h0a63.36,63.36,0,0,1-1.16-6.86,63.65,63.65,0,0,1-.1-13.89,63.67,63.67,0,0,1,1.06-6.87,64.91,64.91,0,1,0,.2,27.62"/><path class="cls-1" d="M619.52,573.05h0a64.17,64.17,0,0,1-18.6-9.28,64.6,64.6,0,0,1-5.42-4.36,64.89,64.89,0,1,0,24,13.64"/><path class="cls-2" d="M619.52,573.05h0a64.17,64.17,0,0,1-18.6-9.28,64.6,64.6,0,0,1-5.42-4.36,64.89,64.89,0,1,0,24,13.64"/><path class="cls-1" d="M618.63,449.41h0a61.57,61.57,0,0,1-5.36,4.44,66.13,66.13,0,0,1-5.8,3.84,64.4,64.4,0,0,1-6.18,3.19,65.29,65.29,0,0,1-6.48,2.52,64.86,64.86,0,1,0,23.82-14"/><path class="cls-2" d="M618.63,449.41h0a61.57,61.57,0,0,1-5.36,4.44,66.13,66.13,0,0,1-5.8,3.84,64.4,64.4,0,0,1-6.18,3.19,65.29,65.29,0,0,1-6.48,2.52,64.86,64.86,0,1,0,23.82-14"/><path class="cls-1" d="M595,340.12h0a65.08,65.08,0,0,1-20.1,3.08,64.92,64.92,0,0,1-20.07-3.3,64.93,64.93,0,1,0,40.17.22"/><path class="cls-2" d="M595,340.12h0a65.08,65.08,0,0,1-20.1,3.08,64.92,64.92,0,0,1-20.07-3.3,64.93,64.93,0,1,0,40.17.22"/><path class="cls-1" d="M640.18,278.3a64.9,64.9,0,1,0-64.89,64.9,65.21,65.21,0,0,0,64.89-64.9"/><path class="cls-2" d="M640.18,278.3a64.9,64.9,0,1,0-64.89,64.9,65.21,65.21,0,0,0,64.89-64.9"/><rect class="cls-3" x="321.45" y="356.31" width="381.11" height="311.39"/><rect class="cls-2" x="321.45" y="356.31" width="381.11" height="311.39"/><path class="cls-4" d="M423.08,444.48V384.76h18.07l10.77,40.73,10.71-40.73H480.7v59.72H469.55l0-47-11.86,47H446l-11.78-47,0,47Zm123.26,0H533.23L528,430.93H504.18l-4.94,13.55H486.45l23.24-59.72h12.77l23.88,59.72Zm-22.11-23.64-8.29-22.15-8.08,22.15Zm66.66,1.69,11.66,3.65q-2.68,9.81-8.93,14.57t-15.84,4.77q-11.88,0-19.53-8.13t-7.64-22.21q0-14.91,7.68-23.15t20.2-8.25q10.95,0,17.77,6.47,4.07,3.83,6.1,11l-11.93,2.87a12.29,12.29,0,0,0-12.53-10,13.51,13.51,0,0,0-10.73,4.77q-4.11,4.77-4.11,15.44,0,11.33,4.06,16.14a13.2,13.2,0,0,0,10.56,4.81,12,12,0,0,0,8.25-3.06q3.45-3.07,5-9.64Z"/><path class="cls-4" d="M452.34,539.51H439.39L434.28,526H410.72l-4.88,13.54H393.22l22.94-59.72h12.61l23.57,59.72Zm-21.83-23.64-8.18-22.14-8,22.14Zm28-36.08h11.9v32.37a67.41,67.41,0,0,0,.44,10,9.7,9.7,0,0,0,3.63,5.89q2.87,2.22,7.85,2.22t7.62-2.1a8.32,8.32,0,0,0,3.09-5.15,68.19,68.19,0,0,0,.52-10.16V479.79h11.9v31.38q0,10.76-1,15.2a16.9,16.9,0,0,1-3.56,7.5,17.84,17.84,0,0,1-6.93,4.87,29.69,29.69,0,0,1-11.32,1.81q-8.44,0-12.8-2a18.38,18.38,0,0,1-6.89-5.14,16.64,16.64,0,0,1-3.33-6.62q-1.17-5.13-1.16-15.16V479.79Zm59.53,59.72V479.79h25q9.43,0,13.72,1.61a13.56,13.56,0,0,1,6.85,5.72,17.41,17.41,0,0,1,2.57,9.41,16.11,16.11,0,0,1-3.89,11.1q-3.9,4.38-11.65,5.52a27.65,27.65,0,0,1,6.36,5,67.69,67.69,0,0,1,6.75,9.7L571,539.51H556.8l-8.56-13a85.51,85.51,0,0,0-6.27-8.78,9.18,9.18,0,0,0-3.58-2.49,19.37,19.37,0,0,0-6-.67H530v24.94ZM530,505.06h8.79c5.7,0,9.25-.24,10.67-.73a6.43,6.43,0,0,0,3.33-2.53,7.93,7.93,0,0,0,1.21-4.49,6.75,6.75,0,0,0-6.06-7.22c-1-.14-3.85-.2-8.67-.2H530v15.17Zm100.58,34.45H617.62L612.5,526H588.94l-4.87,13.54H571.44l22.94-59.72H607l23.57,59.72Zm-21.83-23.64-8.18-22.14-8,22.14Z"/><path class="cls-4" d="M437.15,634.55V574.83h19.31q11,0,14.31.89a15.63,15.63,0,0,1,8.58,5.85q3.45,4.5,3.46,11.63a19.48,19.48,0,0,1-2,9.24,16.36,16.36,0,0,1-5.05,5.89,17.55,17.55,0,0,1-6.24,2.83A68.63,68.63,0,0,1,457,612H449.2v22.54Zm12.05-49.63v17h6.57q7.1,0,9.49-.94A8,8,0,0,0,469,598a8.16,8.16,0,0,0,1.36-4.66,7.76,7.76,0,0,0-1.91-5.39,8.25,8.25,0,0,0-4.83-2.66,57.44,57.44,0,0,0-8.63-.41Zm37.43,49.63,20.65-31.08-18.76-28.64H502.6l11.83,17.87,11.87-17.87h14l-18.77,28.59,20.59,31.13H527.64L514.38,614.3l-13.3,20.25Zm61.91,0v-59.2h12.05v49.1h29.95v10.1Z"/></svg>