<?xml version="1.0" encoding="UTF-8" standalone="no"?>
<svg
   id="svg2"
   version="1.1"
   viewBox="0 0 720.79322 720.79319"
   height="720.79321mm"
   width="720.79321mm"
   sodipodi:docname="thumbnail.svg"
   inkscape:version="1.2.1 (9c6d41e410, 2022-07-14)"
   xml:space="preserve"
   xmlns:inkscape="http://www.inkscape.org/namespaces/inkscape"
   xmlns:sodipodi="http://sodipodi.sourceforge.net/DTD/sodipodi-0.dtd"
   xmlns:xlink="http://www.w3.org/1999/xlink"
   xmlns="http://www.w3.org/2000/svg"
   xmlns:svg="http://www.w3.org/2000/svg"
   xmlns:rdf="http://www.w3.org/1999/02/22-rdf-syntax-ns#"
   xmlns:cc="http://creativecommons.org/ns#"
   xmlns:dc="http://purl.org/dc/elements/1.1/"><sodipodi:namedview
     id="namedview13647"
     pagecolor="#ffffff"
     bordercolor="#666666"
     borderopacity="1.0"
     inkscape:showpageshadow="2"
     inkscape:pageopacity="0.0"
     inkscape:pagecheckerboard="0"
     inkscape:deskcolor="#d1d1d1"
     inkscape:document-units="mm"
     showgrid="false"
     inkscape:zoom="0.20731649"
     inkscape:cx="308.70675"
     inkscape:cy="1198.6504"
     inkscape:window-width="1920"
     inkscape:window-height="1051"
     inkscape:window-x="-9"
     inkscape:window-y="131"
     inkscape:window-maximized="1"
     inkscape:current-layer="svg2"
     showguides="true" /><!-- Working space 10 10 410 287 --><!-- Title block 220 227 410 287 --><metadata
     id="metadata849"><rdf:RDF><cc:Work
         rdf:about=""><dc:format>image/svg+xml</dc:format><dc:type
           rdf:resource="http://purl.org/dc/dcmitype/StillImage" /></cc:Work></rdf:RDF></metadata><defs
     id="defs847"><linearGradient
       gradientUnits="userSpaceOnUse"
       id="defitem29"
       y2="485.909"
       x2="655.35199"
       y1="807.466"
       x1="649.42902"><stop
         id="stop92"
         offset="0.0000000"
         style="stop-color:#ffffff;stop-opacity:1.0000000;" /><stop
         id="stop93"
         offset="1.0000000"
         style="stop-color:#ffffff;stop-opacity:0.13756600;" /></linearGradient><linearGradient
       xlink:href="#defitem29"
       id="linearGradient3448"
       gradientUnits="userSpaceOnUse"
       x1="649.42902"
       y1="807.466"
       x2="655.35199"
       y2="485.909" /><radialGradient
       gradientUnits="userSpaceOnUse"
       id="defitem28"
       fy="345.56"
       fx="1049.72"
       r="1202.15"
       cy="345.56"
       cx="1049.72"><stop
         id="stop89"
         offset="0.0000000"
         style="stop-color:#ffffff;stop-opacity:1.0000000;" /><stop
         id="stop90"
         offset="1.0000000"
         style="stop-color:#a8a8a8;stop-opacity:1.0000000;" /></radialGradient><radialGradient
       xlink:href="#defitem28"
       id="radialGradient3446"
       gradientUnits="userSpaceOnUse"
       cx="1092.7045"
       cy="64.845284"
       fx="1089.4004"
       fy="64.844765"
       r="1202.15" /><linearGradient
       gradientUnits="userSpaceOnUse"
       id="defitem30"
       y2="636.70697"
       x2="980"
       y1="636.70697"
       x1="287.5"><stop
         id="stop95"
         offset="0.0000000"
         style="stop-color:#464646;stop-opacity:1.0000000;" /><stop
         id="stop96"
         offset="1.0000000"
         style="stop-color:#c2c2c2;stop-opacity:1.0000000;" /></linearGradient><linearGradient
       xlink:href="#defitem30"
       id="linearGradient3444"
       gradientUnits="userSpaceOnUse"
       gradientTransform="matrix(1,0,0,1.016038,0,-11.73855)"
       x1="287.5"
       y1="636.70697"
       x2="980"
       y2="636.70697" /><linearGradient
       gradientUnits="userSpaceOnUse"
       id="defitem27"
       y2="317.44699"
       x2="985.98199"
       y1="403.18799"
       x1="921.091"><stop
         id="stop86"
         offset="0.0000000"
         style="stop-color:#7e7e7e;stop-opacity:1.0000000;" /><stop
         id="stop87"
         offset="1.0000000"
         style="stop-color:#e5e5e5;stop-opacity:1.0000000;" /></linearGradient><linearGradient
       xlink:href="#defitem27"
       id="linearGradient3442"
       gradientUnits="userSpaceOnUse"
       x1="921.091"
       y1="403.18799"
       x2="985.98199"
       y2="317.44699" /><linearGradient
       gradientUnits="userSpaceOnUse"
       id="defitem26"
       y2="360.27499"
       x2="293.37"
       y1="346.30399"
       x1="530.76099"><stop
         id="stop83"
         offset="0.0000000"
         style="stop-color:#5f5f5f;stop-opacity:1.0000000;" /><stop
         id="stop84"
         offset="1.0000000"
         style="stop-color:#e5e5e5;stop-opacity:1.0000000;" /></linearGradient><linearGradient
       xlink:href="#defitem26"
       id="linearGradient3440"
       gradientUnits="userSpaceOnUse"
       x1="530.76099"
       y1="346.30399"
       x2="293.37"
       y2="360.27499" /><linearGradient
       gradientUnits="userSpaceOnUse"
       id="defitem25"
       y2="337.60999"
       x2="308.75"
       y1="412.91901"
       x1="164.013"><stop
         id="stop80"
         offset="0.0000000"
         style="stop-color:#ffffff;stop-opacity:1.0000000;" /><stop
         id="stop81"
         offset="1.0000000"
         style="stop-color:#bfbfbf;stop-opacity:1.0000000;" /></linearGradient><linearGradient
       xlink:href="#defitem25"
       id="linearGradient3438"
       gradientUnits="userSpaceOnUse"
       x1="164.013"
       y1="412.91901"
       x2="308.75"
       y2="337.60999" /><linearGradient
       gradientUnits="userSpaceOnUse"
       id="defitem24"
       y2="380.47198"
       x2="992.48901"
       y1="270.854"
       x1="1094.25"><stop
         id="stop77"
         offset="0.0000000"
         style="stop-color:#6a6a6a;stop-opacity:1.0000000;" /><stop
         id="stop78"
         offset="1.0000000"
         style="stop-color:#e6e6e6;stop-opacity:1.0000000;" /></linearGradient><linearGradient
       xlink:href="#defitem24"
       id="linearGradient3436"
       gradientUnits="userSpaceOnUse"
       x1="1094.25"
       y1="270.854"
       x2="992.48901"
       y2="380.47198" /><linearGradient
       gradientUnits="userSpaceOnUse"
       id="defitem23"
       y2="549.37799"
       x2="1049.84"
       y1="476.465"
       x1="1170.91"><stop
         id="stop74"
         offset="0.0000000"
         style="stop-color:#5f5f5f;stop-opacity:1.0000000;" /><stop
         id="stop75"
         offset="1.0000000"
         style="stop-color:#ebebeb;stop-opacity:1.0000000;" /></linearGradient><linearGradient
       xlink:href="#defitem23"
       id="linearGradient3434"
       gradientUnits="userSpaceOnUse"
       x1="1170.91"
       y1="476.465"
       x2="1049.84"
       y2="549.37799" /><linearGradient
       gradientUnits="userSpaceOnUse"
       id="defitem22"
       y2="313.276"
       x2="576.14899"
       y1="105.486"
       x1="783.716"><stop
         id="stop71"
         offset="0.0000000"
         style="stop-color:#5a5a5a;stop-opacity:1.0000000;" /><stop
         id="stop72"
         offset="1.0000000"
         style="stop-color:#c7c7c7;stop-opacity:1.0000000;" /></linearGradient><linearGradient
       xlink:href="#defitem22"
       id="linearGradient3432"
       gradientUnits="userSpaceOnUse"
       x1="783.716"
       y1="105.486"
       x2="576.14899"
       y2="313.276" /><linearGradient
       gradientUnits="userSpaceOnUse"
       id="defitem21"
       y2="484.716"
       x2="128.05499"
       y1="418.698"
       x1="280.04401"><stop
         id="stop68"
         offset="0.0000000"
         style="stop-color:#666666;stop-opacity:1.0000000;" /><stop
         id="stop69"
         offset="1.0000000"
         style="stop-color:#d8d8d8;stop-opacity:1.0000000;" /></linearGradient><linearGradient
       xlink:href="#defitem21"
       id="linearGradient3430"
       gradientUnits="userSpaceOnUse"
       x1="280.04401"
       y1="418.698"
       x2="128.05499"
       y2="484.716" /><linearGradient
       gradientUnits="userSpaceOnUse"
       id="defitem20"
       y2="584.40997"
       x2="220"
       y1="636.95398"
       x1="129.687"><stop
         id="stop65"
         offset="0.0000000"
         style="stop-color:#ffffff;stop-opacity:1.0000000;" /><stop
         id="stop66"
         offset="1.0000000"
         style="stop-color:#bbbbbb;stop-opacity:1.0000000;" /></linearGradient><linearGradient
       xlink:href="#defitem20"
       id="linearGradient3428"
       gradientUnits="userSpaceOnUse"
       x1="129.687"
       y1="636.95398"
       x2="220"
       y2="584.40997" /><linearGradient
       gradientUnits="userSpaceOnUse"
       id="defitem19"
       y2="583.75299"
       x2="1127.98"
       y1="629.02802"
       x1="1048.72"><stop
         id="stop62"
         offset="0.0000000"
         style="stop-color:#5e5e5e;stop-opacity:1.0000000;" /><stop
         id="stop63"
         offset="1.0000000"
         style="stop-color:#ededed;stop-opacity:1.0000000;" /></linearGradient><linearGradient
       xlink:href="#defitem19"
       id="linearGradient3426"
       gradientUnits="userSpaceOnUse"
       x1="1048.72"
       y1="629.02802"
       x2="1127.98"
       y2="583.75299" /><linearGradient
       gradientUnits="userSpaceOnUse"
       id="defitem18"
       y2="291.97699"
       x2="581.32397"
       y1="387.27301"
       x1="370.022"><stop
         id="stop59"
         offset="0.0000000"
         style="stop-color:#636363;stop-opacity:1.0000000;" /><stop
         id="stop60"
         offset="1.0000000"
         style="stop-color:#d6d6d6;stop-opacity:1.0000000;" /></linearGradient><linearGradient
       xlink:href="#defitem18"
       id="linearGradient3424"
       gradientUnits="userSpaceOnUse"
       x1="370.022"
       y1="387.27301"
       x2="581.32397"
       y2="291.97699" /><linearGradient
       gradientUnits="userSpaceOnUse"
       id="defitem17"
       y2="351.939"
       x2="909.59399"
       y1="351.939"
       x1="732.15601"><stop
         id="stop56"
         offset="0.0000000"
         style="stop-color:#676767;stop-opacity:1.0000000;" /><stop
         id="stop57"
         offset="1.0000000"
         style="stop-color:#d3d3d3;stop-opacity:1.0000000;" /></linearGradient><linearGradient
       xlink:href="#defitem17"
       id="linearGradient3422"
       gradientUnits="userSpaceOnUse"
       x1="732.15601"
       y1="351.939"
       x2="909.59399"
       y2="351.939" /><linearGradient
       gradientUnits="userSpaceOnUse"
       id="defitem16"
       y2="494.71301"
       x2="1073.01"
       y1="494.71301"
       x1="1014.43"><stop
         id="stop53"
         offset="0.0000000"
         style="stop-color:#666666;stop-opacity:1.0000000;" /><stop
         id="stop54"
         offset="1.0000000"
         style="stop-color:#dcdcdc;stop-opacity:1.0000000;" /></linearGradient><linearGradient
       xlink:href="#defitem16"
       id="linearGradient3420"
       gradientUnits="userSpaceOnUse"
       x1="1014.43"
       y1="494.71301"
       x2="1073.01"
       y2="494.71301" /><linearGradient
       gradientUnits="userSpaceOnUse"
       id="defitem15"
       y2="516.37"
       x2="193.27699"
       y1="452.388"
       x1="272.59201"><stop
         id="stop50"
         offset="0.0000000"
         style="stop-color:#6e6e6e;stop-opacity:1.0000000;" /><stop
         id="stop51"
         offset="1.0000000"
         style="stop-color:#d8d8d8;stop-opacity:1.0000000;" /></linearGradient><linearGradient
       xlink:href="#defitem15"
       id="linearGradient3418"
       gradientUnits="userSpaceOnUse"
       x1="272.59201"
       y1="452.388"
       x2="193.27699"
       y2="516.37" /><radialGradient
       gradientUnits="userSpaceOnUse"
       id="defitem14"
       fy="211.088"
       fx="1037.22"
       r="1164.28"
       cy="211.088"
       cx="1037.22"><stop
         id="stop47"
         offset="0.0000000"
         style="stop-color:#ffffff;stop-opacity:1.0000000;" /><stop
         id="stop48"
         offset="1.0000000"
         style="stop-color:#aaaaaa;stop-opacity:1.0000000;" /></radialGradient><radialGradient
       xlink:href="#defitem14"
       id="radialGradient3416"
       gradientUnits="userSpaceOnUse"
       cx="1037.22"
       cy="211.088"
       fx="1037.22"
       fy="211.088"
       r="1164.28" /><linearGradient
       gradientUnits="userSpaceOnUse"
       id="defitem13"
       y2="686.83002"
       x2="379.241"
       y1="732.12903"
       x1="342.64999"><stop
         id="stop44"
         offset="0.0000000"
         style="stop-color:#ffffff;stop-opacity:1.0000000;" /><stop
         id="stop45"
         offset="1.0000000"
         style="stop-color:#989898;stop-opacity:1.0000000;" /></linearGradient><linearGradient
       xlink:href="#defitem13"
       id="linearGradient3414"
       gradientUnits="userSpaceOnUse"
       x1="342.64999"
       y1="732.12903"
       x2="379.241"
       y2="686.83002" /><radialGradient
       gradientUnits="userSpaceOnUse"
       id="defitem12"
       fy="484.409"
       fx="632.78101"
       r="540.27899"
       cy="484.409"
       cx="632.78101"><stop
         id="stop41"
         offset="0.0000000"
         style="stop-color:#ffffff;stop-opacity:1.0000000;" /><stop
         id="stop42"
         offset="1.0000000"
         style="stop-color:#ededed;stop-opacity:1.0000000;" /></radialGradient><radialGradient
       xlink:href="#defitem12"
       id="radialGradient3412"
       gradientUnits="userSpaceOnUse"
       cx="632.78101"
       cy="484.409"
       fx="632.78101"
       fy="484.409"
       r="540.27899" /><radialGradient
       xlink:href="#linearGradient3682"
       id="radialGradient3817"
       gradientUnits="userSpaceOnUse"
       gradientTransform="matrix(1.1149219,0.2722306,-0.7507171,3.0745639,-471.08629,-148.32863)"
       cx="270.58316"
       cy="33.899986"
       fx="270.58316"
       fy="33.899986"
       r="19.571428" /><linearGradient
       id="linearGradient3682"><stop
         style="stop-color:#ff6d0f;stop-opacity:1;"
         offset="0"
         id="stop3684" /><stop
         style="stop-color:#ff1000;stop-opacity:1;"
         offset="1"
         id="stop3686" /></linearGradient><radialGradient
       xlink:href="#linearGradient3864"
       id="radialGradient3661"
       gradientUnits="userSpaceOnUse"
       gradientTransform="matrix(0.6186598,0.9666542,-1.0332462,0.6612786,-327.27568,-255.84136)"
       cx="282.64584"
       cy="29.149046"
       fx="282.64584"
       fy="29.149046"
       r="19.571428" /><linearGradient
       id="linearGradient3864"><stop
         id="stop3866"
         offset="0"
         style="stop-color:#71b2f8;stop-opacity:1;" /><stop
         id="stop3868"
         offset="1"
         style="stop-color:#002795;stop-opacity:1;" /></linearGradient><radialGradient
       gradientUnits="userSpaceOnUse"
       id="defitem28-9"
       fy="345.56"
       fx="1049.72"
       r="1202.15"
       cy="345.56"
       cx="1049.72"><stop
         id="stop89-8"
         offset="0.0000000"
         style="stop-color:#ffffff;stop-opacity:1.0000000;" /><stop
         id="stop90-8"
         offset="1.0000000"
         style="stop-color:#a8a8a8;stop-opacity:1.0000000;" /></radialGradient><radialGradient
       xlink:href="#defitem28-9"
       id="radialGradient3446-3"
       gradientUnits="userSpaceOnUse"
       cx="1092.7045"
       cy="64.845284"
       fx="1089.4004"
       fy="64.844765"
       r="1202.15" /><radialGradient
       gradientUnits="userSpaceOnUse"
       id="defitem14-4"
       fy="211.088"
       fx="1037.22"
       r="1164.28"
       cy="211.088"
       cx="1037.22"><stop
         id="stop47-5"
         offset="0.0000000"
         style="stop-color:#ffffff;stop-opacity:1.0000000;" /><stop
         id="stop48-5"
         offset="1.0000000"
         style="stop-color:#aaaaaa;stop-opacity:1.0000000;" /></radialGradient><radialGradient
       xlink:href="#defitem14-4"
       id="radialGradient3416-9"
       gradientUnits="userSpaceOnUse"
       cx="1037.22"
       cy="211.088"
       fx="1037.22"
       fy="211.088"
       r="1164.28" /><radialGradient
       gradientUnits="userSpaceOnUse"
       id="defitem12-1"
       fy="484.409"
       fx="632.78101"
       r="540.27899"
       cy="484.409"
       cx="632.78101"><stop
         id="stop41-3"
         offset="0.0000000"
         style="stop-color:#ffffff;stop-opacity:1.0000000;" /><stop
         id="stop42-8"
         offset="1.0000000"
         style="stop-color:#ededed;stop-opacity:1.0000000;" /></radialGradient><radialGradient
       xlink:href="#defitem12-1"
       id="radialGradient3412-3"
       gradientUnits="userSpaceOnUse"
       cx="632.78101"
       cy="484.409"
       fx="632.78101"
       fy="484.409"
       r="540.27899" /><radialGradient
       xlink:href="#linearGradient3682"
       id="radialGradient3817-0"
       gradientUnits="userSpaceOnUse"
       gradientTransform="matrix(1.1149219,0.2722306,-0.7507171,3.0745639,-471.08629,-148.32863)"
       cx="270.58316"
       cy="33.899986"
       fx="270.58316"
       fy="33.899986"
       r="19.571428" /><radialGradient
       xlink:href="#linearGradient3864"
       id="radialGradient3661-4"
       gradientUnits="userSpaceOnUse"
       gradientTransform="matrix(0.6186598,0.9666542,-1.0332462,0.6612786,-327.27568,-255.84136)"
       cx="282.64584"
       cy="29.149046"
       fx="282.64584"
       fy="29.149046"
       r="19.571428" /></defs><circle
     style="fill:#ff0000;fill-opacity:0;stroke:#ff0000;stroke-width:1;stroke-linejoin:bevel;stroke-opacity:0"
     id="path6829"
     cx="360.39661"
     cy="360.39661"
     r="359.89661"
     inkscape:label="circle" /><path
     id="path14607"
     style="color:#000000;fill:#c8c8c8;fill-opacity:1;stroke:#000000;stroke-width:1.00525;stroke-opacity:1"
     d="m 233.44741,187.05817 -5.90842,4.13961 -0.19978,-0.28052 0.0242,0.34343 -58.79267,4.09629 c -1.17586,1.78131 -2.3301,3.57581 -3.46615,5.38232 -1.62626,2.58764 -3.21099,5.20117 -4.75408,7.83886 -5.56183,9.5059 -10.6069,19.36697 -15.10819,29.6074 -1.56777,3.56685 -2.98317,6.99048 -4.21469,10.11081 -1.23258,3.12028 -2.28329,5.93971 -3.06761,8.11523 -22.71708,63.0124 -22.7431,131.91952 -0.10553,194.95259 l 0.3168,-0.11236 0.118,0.33107 c 0.78324,2.17228 1.83336,4.99038 3.06346,8.10698 1.23111,3.11661 2.64477,6.53297 4.21057,10.09534 l 0.14084,0.31969 -0.30127,0.13311 c 4.46512,10.12458 9.44455,19.89444 14.94767,29.30009 1.54309,2.6373 3.12782,5.24637 4.75408,7.8337 1.07077,1.70287 2.1573,3.39411 3.26333,5.075 l 58.53388,4.07772 -0.0283,0.34651 0.20393,-0.28462 6.37013,4.46652 h 253.89525 l 6.37125,-4.46652 0.20291,0.28462 -0.0273,-0.34651 58.52971,-4.07772 c 1.10593,-1.68091 2.19671,-3.37213 3.26738,-5.075 1.62626,-2.58733 3.21098,-5.1964 4.75408,-7.8337 5.5618,-9.50592 10.60692,-19.37215 15.10816,-29.61255 1.56775,-3.56685 2.9821,-6.99049 4.21365,-10.1108 1.23255,-3.11928 2.27917,-5.93989 3.06345,-8.11525 22.75713,-63.12304 22.75713,-132.16471 0,-195.28777 -0.78428,-2.17456 -1.83181,-4.99695 -3.06345,-8.11834 -1.23256,-3.12033 -2.6459,-6.54083 -4.21365,-10.1077 -4.50124,-10.24043 -9.54636,-20.1015 -15.10816,-29.6074 -1.5431,-2.63769 -3.12782,-5.25122 -4.75408,-7.83887 -1.13605,-1.80652 -2.29544,-3.60099 -3.47141,-5.38231 l -58.7875,-4.09629 0.0232,-0.35065 -0.20291,0.28774 -5.90529,-4.13962 z m -62.9949,82.85204 v 168.29571 l -10.39652,-0.36713 c -3.59318,-0.12492 -7.18292,-0.24837 -10.77232,-0.37332 -1.42648,-3.36112 -2.77392,-6.76579 -4.03456,-10.21704 -1.60008,-4.38335 -3.01226,-8.70638 -4.23335,-12.84681 -0.61002,-2.07019 -1.1723,-4.09454 -1.68236,-6.02996 -0.50903,-1.93519 -0.96541,-3.78262 -1.36245,-5.46895 -7.55525,-32.13018 -7.55525,-65.56428 0,-97.69443 0.39706,-1.68565 0.8566,-3.53213 1.3666,-5.46792 0.50903,-1.93586 1.07134,-3.95998 1.68236,-6.02995 1.22005,-4.13993 2.63009,-8.46478 4.2292,-12.84786 1.26064,-3.45124 2.60808,-6.8549 4.03456,-10.21599 3.5894,-0.12494 7.17904,-0.24941 10.77232,-0.37435 z m 379.88513,0 10.39228,0.362 c 3.59196,0.12492 7.18423,0.24955 10.77235,0.37435 1.42647,3.36109 2.77393,6.76475 4.03457,10.21599 1.60009,4.38338 3.01323,8.70743 4.23436,12.84786 0.61007,2.07017 1.17233,4.09455 1.68235,6.02995 0.50901,1.93519 0.96436,3.78159 1.3614,5.46792 7.55529,32.13017 7.55529,65.56423 0,97.69443 -0.39704,1.68569 -0.85138,3.53318 -1.3614,5.46895 -0.50901,1.93588 -1.07137,3.95997 -1.68235,6.02996 -1.22002,4.13991 -2.63528,8.46375 -4.23436,12.84681 -1.26064,3.45125 -2.6081,6.85592 -4.03457,10.21704 -3.58812,0.12493 -7.18039,0.24842 -10.77235,0.37332 l -10.39228,0.36713 z" /><path
     style="color:#000000;fill:#c8c8c8;fill-opacity:1;stroke-width:1.00525"
     d="m 131.89486,286.13993 v 0.23308 h -0.23337 v 135.3651 h 0.23337 v 0.23307 h 0.0944 0.2832 0.46937 0.65818 0.84696 1.03314 1.22457 1.40812 1.59692 1.78571 1.97188 2.15807 2.34686 2.53042 49.99208 44.50387 33.67419 6.15952 151.5286 6.15953 33.67419 44.50121 49.99471 2.53042 2.34686 2.15806 1.97189 1.78571 1.59693 1.4081 1.22457 1.03314 0.84696 0.65819 0.46937 0.2832 0.0944 v -0.23307 h 0.23337 v -135.3651 h -0.23337 v -0.23308 h -0.0944 -0.2832 -0.46937 -0.65819 -0.84696 -1.03314 -1.22457 -1.4081 -1.59693 -1.78571 -1.97189 -2.15806 -2.34686 -2.53042 -49.99471 -44.50121 -33.67419 -6.15953 -151.5286 -6.15952 -33.67419 -44.50387 -49.99208 -2.53042 -2.34686 -2.15807 -1.97188 -1.78571 -1.59692 -1.40812 -1.22457 -1.03314 -0.84696 -0.65818 -0.46937 -0.2832 z"
     id="57" /><g
     id="g12752"
     transform="matrix(1.3425622,0,0,1.3259919,59.024168,145.1897)"
     style="stroke-width:0.753417"><path
       style="color:#000000;fill:none;stroke:#000000;stroke-width:0.753417;stroke-opacity:1"
       d="m 381.07031,106.64844 h 1.77735 1.74804 1.60742 1.46875 1.33008 1.18946 1.04882 0.91211 0.76953 0.63086 0.49024 0.34961 0.10547 v 101.73633 h -0.10547 -0.34961 -0.49024 -0.63086 -0.76953 -0.91211 -1.04882 -1.18946 -1.33008 -1.46875 -1.60742 -1.74804 -1.77735 c -0.0931,-0.18164 -0.1861,-0.36113 -0.27734,-0.54883 -0.10787,-0.22023 -0.21653,-0.45678 -0.32422,-0.71094 -0.21447,-0.50841 -0.42686,-1.08489 -0.63867,-1.72852 -0.21175,-0.64249 -0.42232,-1.35236 -0.63086,-2.13086 -0.20852,-0.78039 -0.41245,-1.62734 -0.61524,-2.53906 -0.4048,-1.82385 -0.7895,-3.87889 -1.14453,-6.12695 -0.3565,-2.24947 -0.68462,-4.71204 -0.98437,-7.38867 l -0.17188,0.0195 0.13867,-0.10547 c -1.56451,-2.08209 -2.98771,-4.29876 -4.2539,-6.66992 -1.26542,-2.37118 -2.3729,-4.8962 -3.2832,-7.61133 l -0.16602,0.0547 0.0508,-0.16602 c -2.44266,-0.73438 -4.86644,-1.51894 -7.25976,-2.38281 -2.3928,-0.86448 -4.76225,-1.80646 -7.07032,-2.89063 -1.15244,-0.54235 -2.28827,-1.11975 -3.39258,-1.75195 -1.10362,-0.63222 -2.17674,-1.31794 -3.17578,-2.08789 -0.49964,-0.38213 -0.97819,-0.79288 -1.43554,-1.23047 -0.45461,-0.43856 -0.88472,-0.90956 -1.25977,-1.41797 -0.37541,-0.5089 -0.69709,-1.05482 -0.92187,-1.63672 -0.22483,-0.58202 -0.35352,-1.20261 -0.35352,-1.81836 0,-0.61878 0.1292,-1.24122 0.35547,-1.82617 0.227,-0.58496 0.55231,-1.13425 0.92773,-1.64258 0.75123,-1.01428 1.70176,-1.87484 2.71289,-2.65429 1.00954,-0.77588 2.07537,-1.45348 3.17383,-2.08008 1.09771,-0.62658 2.22636,-1.20204 3.375,-1.74219 2.30054,-1.07989 4.67359,-2.02193 7.06641,-2.88672 2.39408,-0.86431 4.81664,-1.64836 7.25781,-2.38281 l -0.0508,-0.16992 0.16602,0.0566 c 0.90953,-2.71545 2.01777,-5.2384 3.2832,-7.60938 1.2654,-2.37091 2.69008,-4.58956 4.2539,-6.67187 l -0.13867,-0.10352 0.17188,0.0176 c 0.29824,-2.67101 0.62591,-5.13139 0.98242,-7.38281 0.17751,-1.12592 0.36375,-2.20193 0.55469,-3.22656 0.19167,-1.02487 0.39051,-1.99974 0.59179,-2.90821 0.40408,-1.81586 0.81791,-3.36832 1.24219,-4.65625 0.21179,-0.64483 0.42536,-1.22292 0.64063,-1.73437 0.10758,-0.25546 0.2162,-0.49312 0.32422,-0.71484 0.0927,-0.18899 0.18614,-0.36667 0.27929,-0.54883 z"
       id="path11619" /><path
       style="color:#000000;fill:none;stroke:#000000;stroke-width:0.753417;stroke-opacity:1"
       d="m 68.273437,106.64844 h 36.951173 33.14844 25.08203 4.58789 112.86523 4.58789 25.08203 33.14649 36.95312 c -0.0666,0.12977 -0.13322,0.25601 -0.20117,0.39453 -0.11099,0.22784 -0.22211,0.47338 -0.33203,0.73437 -0.21973,0.52205 -0.43618,1.10756 -0.65039,1.75977 -0.42921,1.30288 -0.84603,2.86528 -1.25195,4.68945 v 0.002 c -0.20222,0.91269 -0.40143,1.88963 -0.59375,2.91796 v 0.002 c -0.19156,1.02796 -0.37865,2.10536 -0.55664,3.23437 -0.3556,2.24563 -0.68103,4.7021 -0.97852,7.36133 -1.56132,2.08342 -2.98865,4.29732 -4.25391,6.66797 -1.25978,2.36041 -2.35941,4.8784 -3.26953,7.57812 -2.41923,0.72904 -4.82161,1.50562 -7.19726,2.36329 -2.39968,0.86726 -4.78225,1.81444 -7.09571,2.90039 h -0.002 c -1.15535,0.5433 -2.29115,1.12185 -3.39844,1.7539 -1.10803,0.63206 -2.18888,1.31893 -3.21484,2.10742 -1.02587,0.79081 -2.00052,1.67118 -2.7793,2.72266 v 0.002 c -0.38958,0.5275 -0.73165,1.10162 -0.97265,1.72266 -0.24024,0.62105 -0.37891,1.28563 -0.37891,1.95312 0,0.66468 0.13828,1.32746 0.37695,1.94532 0.23872,0.61796 0.57721,1.18866 0.9668,1.71679 0.38966,0.52821 0.83283,1.01343 1.29883,1.46289 v 0.002 c 0.46665,0.44649 0.95499,0.86397 1.46484,1.2539 1.01547,0.78261 2.10147,1.47547 3.21485,2.11329 1.11419,0.63785 2.25891,1.22016 3.41797,1.76562 2.32093,1.09021 4.6999,2.03537 7.0996,2.90234 2.37493,0.85723 4.77851,1.63432 7.19922,2.36329 0.91081,2.69929 2.00974,5.21748 3.26953,7.57812 1.26597,2.37073 2.69182,4.58656 4.25391,6.66992 0.29895,2.66463 0.62486,5.1214 0.98047,7.36524 0.35597,2.25403 0.74174,4.31603 1.14844,6.14843 0.20371,0.91588 0.40915,1.76684 0.61914,2.55274 0.20995,0.78376 0.42247,1.50033 0.63672,2.15039 0.21419,0.65086 0.4294,1.23663 0.64843,1.75586 0.10981,0.25914 0.2209,0.5016 0.33204,0.72851 0.0671,0.13804 0.13272,0.26503 0.19921,0.39454 H 343.72461 310.57812 285.49609 280.9082 168.04297 163.45508 138.37305 105.22461 68.273437 c 0.0665,-0.12951 0.132125,-0.2565 0.199219,-0.39454 0.111136,-0.22691 0.222226,-0.46937 0.332031,-0.72851 0.219031,-0.51923 0.434248,-1.105 0.648438,-1.75586 0.214247,-0.65006 0.426764,-1.36663 0.636719,-2.15039 0.209984,-0.7859 0.415428,-1.63686 0.61914,-2.55274 0.406699,-1.8324 0.792467,-3.8944 1.148438,-6.14843 0.355608,-2.24384 0.681517,-4.70061 0.980469,-7.36524 1.562094,-2.08336 2.987943,-4.29919 4.253906,-6.66992 1.260068,-2.36116 2.358612,-4.88011 3.269531,-7.58008 2.419925,-0.72876 4.825064,-1.50437 7.199219,-2.36133 2.399704,-0.86697 4.778676,-1.81213 7.099609,-2.90234 1.159054,-0.54546 2.30378,-1.12777 3.417969,-1.76562 1.113376,-0.63782 2.199375,-1.33068 3.214845,-2.11329 0.50985,-0.38993 0.99819,-0.8074 1.46484,-1.2539 v -0.002 c 0.466,-0.44945 0.90917,-0.93467 1.29883,-1.46289 0.38959,-0.52812 0.72808,-1.09883 0.9668,-1.71679 0.23867,-0.61785 0.37695,-1.28064 0.37695,-1.94532 0,-0.6675 -0.13867,-1.33206 -0.37891,-1.95312 -0.241,-0.62104 -0.58307,-1.19516 -0.97265,-1.72266 v -0.002 c -0.77877,-1.05147 -1.75343,-1.93185 -2.7793,-2.72266 -1.02596,-0.78849 -2.106804,-1.47536 -3.214843,-2.10742 -1.107289,-0.63205 -2.245037,-1.2106 -3.40039,-1.7539 -2.313454,-1.08595 -4.696024,-2.03313 -7.095703,-2.90039 -2.374882,-0.85739 -4.778823,-1.6325 -7.197266,-2.36133 -0.910225,-2.70039 -2.009473,-5.21916 -3.269531,-7.58008 -1.265257,-2.37065 -2.692585,-4.58455 -4.253906,-6.66797 -0.297492,-2.65923 -0.624874,-5.1157 -0.980469,-7.36133 h 0.002 c -0.177993,-1.12901 -0.36508,-2.20641 -0.556641,-3.23437 v -0.002 c -0.192323,-1.02833 -0.391532,-2.00527 -0.59375,-2.91796 v -0.002 c -0.405923,-1.82417 -0.82274,-3.38657 -1.251953,-4.68945 -0.214211,-0.65221 -0.430661,-1.23772 -0.65039,-1.75977 -0.109916,-0.26099 -0.221043,-0.50653 -0.332032,-0.73437 -0.06794,-0.13852 -0.134545,-0.26476 -0.201172,-0.39453 z"
       id="path11617" /><path
       style="color:#000000;fill:none;stroke:#000000;stroke-width:0.753417;stroke-opacity:1"
       d="m 54.453125,106.64844 h 0.105469 0.349609 0.490234 0.63086 0.769531 0.912109 1.048829 1.189453 1.330078 1.46875 1.607422 1.748047 1.777343 c 0.09315,0.18216 0.186599,0.35984 0.279297,0.54883 0.108011,0.22172 0.216635,0.45938 0.324219,0.71484 0.21527,0.51145 0.428836,1.08954 0.640625,1.73437 0.424286,1.28793 0.838112,2.84039 1.242187,4.65625 0.201283,0.90847 0.400121,1.88334 0.591797,2.90821 0.19094,1.02463 0.375228,2.10064 0.552735,3.22656 h 0.002 c 0.356513,2.25142 0.684177,4.7118 0.982422,7.38281 l 0.171875,-0.0176 -0.138672,0.10352 c 1.563824,2.08231 2.988508,4.30096 4.253906,6.67187 1.265425,2.37098 2.373669,4.89393 3.283203,7.60938 l 0.166016,-0.0547 -0.05078,0.16797 c 2.441169,0.73445 4.863727,1.5185 7.257812,2.38281 2.392816,0.86479 4.765865,1.80683 7.066406,2.88672 1.148645,0.54015 2.277292,1.11561 3.375,1.74219 1.098459,0.6266 2.164293,1.3042 3.173833,2.08008 1.01113,0.77945 1.96166,1.64002 2.71289,2.65429 0.37542,0.50833 0.70073,1.05762 0.92773,1.64258 0.22627,0.58496 0.35547,1.20738 0.35547,1.82617 0,0.61575 -0.12869,1.23635 -0.35351,1.81836 -0.22479,0.5819 -0.54647,1.12783 -0.92188,1.63672 -0.37505,0.50842 -0.80516,0.97942 -1.25976,1.41797 -0.45735,0.4376 -0.93591,0.84834 -1.43555,1.23047 -0.99904,0.76995 -2.074116,1.45567 -3.177738,2.08789 -1.103835,0.63187 -2.238705,1.20985 -3.390625,1.75195 -2.308063,1.08417 -4.677521,2.02615 -7.070313,2.89063 -2.393327,0.86387 -4.817103,1.64843 -7.259765,2.38281 l 0.04883,0.16602 -0.164063,-0.0547 c -0.9103,2.71513 -2.017788,5.24015 -3.283203,7.61133 -1.266189,2.37116 -2.68939,4.58783 -4.253906,6.66992 l 0.138672,0.10547 -0.171875,-0.0195 c -0.299753,2.67663 -0.627874,5.1392 -0.984375,7.38867 -0.355029,2.24806 -0.739731,4.3031 -1.144532,6.12695 -0.202787,0.91172 -0.406719,1.75867 -0.615234,2.53906 -0.208544,0.7785 -0.419107,1.48837 -0.630859,2.13086 -0.21181,0.64363 -0.424203,1.22011 -0.638672,1.72852 -0.107694,0.25416 -0.216355,0.49071 -0.324219,0.71094 -0.09124,0.1877 -0.184287,0.36719 -0.277344,0.54883 h -1.777343 -1.748047 -1.607422 -1.46875 -1.330078 -1.189453 -1.048829 -0.912109 -0.769531 -0.63086 -0.490234 -0.349609 -0.105469 z"
       id="path11615" /></g><path
     style="color:#000000;fill:#c8c8c8;fill-opacity:1;stroke:#000000;stroke-width:1.99041;stroke-opacity:1"
     d="m 360.39477,78.068966 c -35.53245,0 -71.06457,0.5476 -106.58434,1.64442 -0.004,1.2e-4 -0.008,-1.2e-4 -0.0119,0 -0.38889,0.0119 -0.77734,0.0293 -1.17014,0.0506 -19.82242,1.07979 -37.11955,13.819577 -44.03013,32.429744 l 0.32655,0.12042 -0.346,-0.004 -1.98263,190.71816 -3.94195,1.17793 0.10111,0.33433 h -0.34991 v 25.07061 h -10.39914 v 0.34988 h -0.34599 v 0.15545 0.46651 0.77362 1.06907 1.34898 1.61331 1.85825 2.07983 2.27808 2.44137 2.57742 2.6824 2.74848 2.78736 2.78347 2.75237 2.67852 2.57742 2.44527 2.27418 2.07985 1.85823 1.61721 1.34896 1.06519 0.7737 0.46651 0.15943 h 0.34599 v 0.34597 h 10.39914 v 25.07074 h 0.34987 l -0.0583,0.34599 6.2667,1.08462 1.64054,21.71185 0.34599,-0.0273 -0.12818,0.32266 3.69315,1.47725 c 0.50238,66.31722 4.24675,132.56921 11.22329,198.52043 l 0.3732,-0.0388 -0.3732,0.0621 5.80797,34.33464 0.33431,-0.0583 -0.3071,0.14391 5.53584,11.9658 0.31876,-0.14768 v 0.34599 h 5.06934 l 8.96075,24.61582 0.32655,-0.11663 v 0.34599 h 0.6842 2.04097 3.37047 4.66115 5.89349 7.0442 8.11716 9.08127 9.93264 10.65957 11.2544 11.70534 12.00469 12.16019 12.16017 12.00857 11.70534 11.25051 10.65961 9.9365 9.08126 8.11327 7.04809 5.8935 4.66113 3.37048 2.04095 0.68033 v -0.34988 l 0.33045,0.12062 8.96074,-24.61582 h 5.06934 v -0.34599 l 0.31877,0.14768 5.53584,-11.96581 -0.30713,-0.1439 0.33433,0.0583 5.80797,-34.33464 -0.3732,-0.0621 0.3732,0.0388 c 6.97654,-65.95122 10.72091,-132.20321 11.22329,-198.52043 l 3.69315,-1.47725 -0.12818,-0.32266 0.34599,0.0273 1.64054,-21.71185 6.26668,-1.08462 -0.0621,-0.34599 h 0.34989 v -25.07076 h 10.40302 v -0.34599 h 0.34599 v -0.15943 -0.4665 -0.77361 -1.06519 -1.34896 -1.61721 -1.85825 -2.07983 -2.2742 -2.44525 -2.57744 -2.6785 -2.75237 -2.78347 -2.78736 -2.74848 -2.6824 -2.57743 -2.44136 -2.27809 -2.07984 -1.85823 -1.61333 -1.34896 -1.06907 -0.77362 -0.46651 -0.15545 h -0.34599 v -0.34988 h -10.40302 v -25.07065 h -0.34599 l 0.0971,-0.33431 -3.93807,-1.17793 -1.98263,-190.71817 -0.346,0.004 0.32655,-0.12062 c -6.91055,-18.610167 -24.20768,-31.349964 -44.03009,-32.429744 -0.39281,-0.0213 -0.78126,-0.0386 -1.17014,-0.0505 -0.004,-1.2e-4 -0.008,1.2e-4 -0.0119,0 -35.51979,-1.09684 -71.0558,-1.64443 -106.58825,-1.64443 z"
     id="path1440-7" /><rect
     style="fill:#00ff00;fill-opacity:0;stroke:#00ff00;stroke-width:1;stroke-linejoin:bevel;stroke-opacity:0"
     id="rect13470"
     width="169.73846"
     height="44.668018"
     x="275.52737"
     y="174.84338"
     inkscape:label="pigtail" /></svg>
