<?xml version="1.0" encoding="UTF-8" standalone="no"?>
<svg
   id="svg2"
   version="1.1"
   viewBox="0 0 573.25628 573.25628"
   height="573.25629mm"
   width="573.25629mm"
   sodipodi:docname="thumbnail.svg"
   inkscape:version="1.2.1 (9c6d41e410, 2022-07-14)"
   xmlns:inkscape="http://www.inkscape.org/namespaces/inkscape"
   xmlns:sodipodi="http://sodipodi.sourceforge.net/DTD/sodipodi-0.dtd"
   xmlns:xlink="http://www.w3.org/1999/xlink"
   xmlns="http://www.w3.org/2000/svg"
   xmlns:svg="http://www.w3.org/2000/svg"
   xmlns:rdf="http://www.w3.org/1999/02/22-rdf-syntax-ns#"
   xmlns:cc="http://creativecommons.org/ns#"
   xmlns:dc="http://purl.org/dc/elements/1.1/">
  <sodipodi:namedview
     id="namedview500"
     pagecolor="#ffffff"
     bordercolor="#000000"
     borderopacity="0.25"
     inkscape:showpageshadow="2"
     inkscape:pageopacity="0.0"
     inkscape:pagecheckerboard="0"
     inkscape:deskcolor="#d1d1d1"
     inkscape:document-units="mm"
     showgrid="false"
     inkscape:zoom="0.28850711"
     inkscape:cx="454.0616"
     inkscape:cy="1391.6468"
     inkscape:window-width="2400"
     inkscape:window-height="1471"
     inkscape:window-x="2391"
     inkscape:window-y="-9"
     inkscape:window-maximized="1"
     inkscape:current-layer="svg2" />
  <circle
     style="fill:#ff0000;fill-opacity:0;stroke:#ff0000;stroke-width:1;stroke-linecap:round;stroke-linejoin:bevel;stroke-dasharray:none;stroke-opacity:0;paint-order:fill markers stroke"
     id="path12960"
     cx="286.62814"
     cy="286.62814"
     r="286.12814"
     inkscape:label="circle" />
  <!-- Working space 10 10 410 287 -->
  <!-- Title block 220 227 410 287 -->
  <metadata
     id="metadata849">
    <rdf:RDF>
      <cc:Work
         rdf:about="">
        <dc:format>image/svg+xml</dc:format>
        <dc:type
           rdf:resource="http://purl.org/dc/dcmitype/StillImage" />
      </cc:Work>
    </rdf:RDF>
  </metadata>
  <defs
     id="defs847">
    <linearGradient
       gradientUnits="userSpaceOnUse"
       id="defitem29"
       y2="485.909"
       x2="655.35199"
       y1="807.466"
       x1="649.42902">
      <stop
         id="stop92"
         offset="0.0000000"
         style="stop-color:#ffffff;stop-opacity:1.0000000;" />
      <stop
         id="stop93"
         offset="1.0000000"
         style="stop-color:#ffffff;stop-opacity:0.13756600;" />
    </linearGradient>
    <linearGradient
       xlink:href="#defitem29"
       id="linearGradient3448"
       gradientUnits="userSpaceOnUse"
       x1="649.42902"
       y1="807.466"
       x2="655.35199"
       y2="485.909" />
    <radialGradient
       gradientUnits="userSpaceOnUse"
       id="defitem28"
       fy="345.56"
       fx="1049.72"
       r="1202.15"
       cy="345.56"
       cx="1049.72">
      <stop
         id="stop89"
         offset="0.0000000"
         style="stop-color:#ffffff;stop-opacity:1.0000000;" />
      <stop
         id="stop90"
         offset="1.0000000"
         style="stop-color:#a8a8a8;stop-opacity:1.0000000;" />
    </radialGradient>
    <radialGradient
       xlink:href="#defitem28"
       id="radialGradient3446"
       gradientUnits="userSpaceOnUse"
       cx="1092.7045"
       cy="64.845284"
       fx="1089.4004"
       fy="64.844765"
       r="1202.15" />
    <linearGradient
       gradientUnits="userSpaceOnUse"
       id="defitem30"
       y2="636.70697"
       x2="980"
       y1="636.70697"
       x1="287.5">
      <stop
         id="stop95"
         offset="0.0000000"
         style="stop-color:#464646;stop-opacity:1.0000000;" />
      <stop
         id="stop96"
         offset="1.0000000"
         style="stop-color:#c2c2c2;stop-opacity:1.0000000;" />
    </linearGradient>
    <linearGradient
       xlink:href="#defitem30"
       id="linearGradient3444"
       gradientUnits="userSpaceOnUse"
       gradientTransform="matrix(1,0,0,1.016038,0,-11.73855)"
       x1="287.5"
       y1="636.70697"
       x2="980"
       y2="636.70697" />
    <linearGradient
       gradientUnits="userSpaceOnUse"
       id="defitem27"
       y2="317.44699"
       x2="985.98199"
       y1="403.18799"
       x1="921.091">
      <stop
         id="stop86"
         offset="0.0000000"
         style="stop-color:#7e7e7e;stop-opacity:1.0000000;" />
      <stop
         id="stop87"
         offset="1.0000000"
         style="stop-color:#e5e5e5;stop-opacity:1.0000000;" />
    </linearGradient>
    <linearGradient
       xlink:href="#defitem27"
       id="linearGradient3442"
       gradientUnits="userSpaceOnUse"
       x1="921.091"
       y1="403.18799"
       x2="985.98199"
       y2="317.44699" />
    <linearGradient
       gradientUnits="userSpaceOnUse"
       id="defitem26"
       y2="360.27499"
       x2="293.37"
       y1="346.30399"
       x1="530.76099">
      <stop
         id="stop83"
         offset="0.0000000"
         style="stop-color:#5f5f5f;stop-opacity:1.0000000;" />
      <stop
         id="stop84"
         offset="1.0000000"
         style="stop-color:#e5e5e5;stop-opacity:1.0000000;" />
    </linearGradient>
    <linearGradient
       xlink:href="#defitem26"
       id="linearGradient3440"
       gradientUnits="userSpaceOnUse"
       x1="530.76099"
       y1="346.30399"
       x2="293.37"
       y2="360.27499" />
    <linearGradient
       gradientUnits="userSpaceOnUse"
       id="defitem25"
       y2="337.60999"
       x2="308.75"
       y1="412.91901"
       x1="164.013">
      <stop
         id="stop80"
         offset="0.0000000"
         style="stop-color:#ffffff;stop-opacity:1.0000000;" />
      <stop
         id="stop81"
         offset="1.0000000"
         style="stop-color:#bfbfbf;stop-opacity:1.0000000;" />
    </linearGradient>
    <linearGradient
       xlink:href="#defitem25"
       id="linearGradient3438"
       gradientUnits="userSpaceOnUse"
       x1="164.013"
       y1="412.91901"
       x2="308.75"
       y2="337.60999" />
    <linearGradient
       gradientUnits="userSpaceOnUse"
       id="defitem24"
       y2="380.47198"
       x2="992.48901"
       y1="270.854"
       x1="1094.25">
      <stop
         id="stop77"
         offset="0.0000000"
         style="stop-color:#6a6a6a;stop-opacity:1.0000000;" />
      <stop
         id="stop78"
         offset="1.0000000"
         style="stop-color:#e6e6e6;stop-opacity:1.0000000;" />
    </linearGradient>
    <linearGradient
       xlink:href="#defitem24"
       id="linearGradient3436"
       gradientUnits="userSpaceOnUse"
       x1="1094.25"
       y1="270.854"
       x2="992.48901"
       y2="380.47198" />
    <linearGradient
       gradientUnits="userSpaceOnUse"
       id="defitem23"
       y2="549.37799"
       x2="1049.84"
       y1="476.465"
       x1="1170.91">
      <stop
         id="stop74"
         offset="0.0000000"
         style="stop-color:#5f5f5f;stop-opacity:1.0000000;" />
      <stop
         id="stop75"
         offset="1.0000000"
         style="stop-color:#ebebeb;stop-opacity:1.0000000;" />
    </linearGradient>
    <linearGradient
       xlink:href="#defitem23"
       id="linearGradient3434"
       gradientUnits="userSpaceOnUse"
       x1="1170.91"
       y1="476.465"
       x2="1049.84"
       y2="549.37799" />
    <linearGradient
       gradientUnits="userSpaceOnUse"
       id="defitem22"
       y2="313.276"
       x2="576.14899"
       y1="105.486"
       x1="783.716">
      <stop
         id="stop71"
         offset="0.0000000"
         style="stop-color:#5a5a5a;stop-opacity:1.0000000;" />
      <stop
         id="stop72"
         offset="1.0000000"
         style="stop-color:#c7c7c7;stop-opacity:1.0000000;" />
    </linearGradient>
    <linearGradient
       xlink:href="#defitem22"
       id="linearGradient3432"
       gradientUnits="userSpaceOnUse"
       x1="783.716"
       y1="105.486"
       x2="576.14899"
       y2="313.276" />
    <linearGradient
       gradientUnits="userSpaceOnUse"
       id="defitem21"
       y2="484.716"
       x2="128.05499"
       y1="418.698"
       x1="280.04401">
      <stop
         id="stop68"
         offset="0.0000000"
         style="stop-color:#666666;stop-opacity:1.0000000;" />
      <stop
         id="stop69"
         offset="1.0000000"
         style="stop-color:#d8d8d8;stop-opacity:1.0000000;" />
    </linearGradient>
    <linearGradient
       xlink:href="#defitem21"
       id="linearGradient3430"
       gradientUnits="userSpaceOnUse"
       x1="280.04401"
       y1="418.698"
       x2="128.05499"
       y2="484.716" />
    <linearGradient
       gradientUnits="userSpaceOnUse"
       id="defitem20"
       y2="584.40997"
       x2="220"
       y1="636.95398"
       x1="129.687">
      <stop
         id="stop65"
         offset="0.0000000"
         style="stop-color:#ffffff;stop-opacity:1.0000000;" />
      <stop
         id="stop66"
         offset="1.0000000"
         style="stop-color:#bbbbbb;stop-opacity:1.0000000;" />
    </linearGradient>
    <linearGradient
       xlink:href="#defitem20"
       id="linearGradient3428"
       gradientUnits="userSpaceOnUse"
       x1="129.687"
       y1="636.95398"
       x2="220"
       y2="584.40997" />
    <linearGradient
       gradientUnits="userSpaceOnUse"
       id="defitem19"
       y2="583.75299"
       x2="1127.98"
       y1="629.02802"
       x1="1048.72">
      <stop
         id="stop62"
         offset="0.0000000"
         style="stop-color:#5e5e5e;stop-opacity:1.0000000;" />
      <stop
         id="stop63"
         offset="1.0000000"
         style="stop-color:#ededed;stop-opacity:1.0000000;" />
    </linearGradient>
    <linearGradient
       xlink:href="#defitem19"
       id="linearGradient3426"
       gradientUnits="userSpaceOnUse"
       x1="1048.72"
       y1="629.02802"
       x2="1127.98"
       y2="583.75299" />
    <linearGradient
       gradientUnits="userSpaceOnUse"
       id="defitem18"
       y2="291.97699"
       x2="581.32397"
       y1="387.27301"
       x1="370.022">
      <stop
         id="stop59"
         offset="0.0000000"
         style="stop-color:#636363;stop-opacity:1.0000000;" />
      <stop
         id="stop60"
         offset="1.0000000"
         style="stop-color:#d6d6d6;stop-opacity:1.0000000;" />
    </linearGradient>
    <linearGradient
       xlink:href="#defitem18"
       id="linearGradient3424"
       gradientUnits="userSpaceOnUse"
       x1="370.022"
       y1="387.27301"
       x2="581.32397"
       y2="291.97699" />
    <linearGradient
       gradientUnits="userSpaceOnUse"
       id="defitem17"
       y2="351.939"
       x2="909.59399"
       y1="351.939"
       x1="732.15601">
      <stop
         id="stop56"
         offset="0.0000000"
         style="stop-color:#676767;stop-opacity:1.0000000;" />
      <stop
         id="stop57"
         offset="1.0000000"
         style="stop-color:#d3d3d3;stop-opacity:1.0000000;" />
    </linearGradient>
    <linearGradient
       xlink:href="#defitem17"
       id="linearGradient3422"
       gradientUnits="userSpaceOnUse"
       x1="732.15601"
       y1="351.939"
       x2="909.59399"
       y2="351.939" />
    <linearGradient
       gradientUnits="userSpaceOnUse"
       id="defitem16"
       y2="494.71301"
       x2="1073.01"
       y1="494.71301"
       x1="1014.43">
      <stop
         id="stop53"
         offset="0.0000000"
         style="stop-color:#666666;stop-opacity:1.0000000;" />
      <stop
         id="stop54"
         offset="1.0000000"
         style="stop-color:#dcdcdc;stop-opacity:1.0000000;" />
    </linearGradient>
    <linearGradient
       xlink:href="#defitem16"
       id="linearGradient3420"
       gradientUnits="userSpaceOnUse"
       x1="1014.43"
       y1="494.71301"
       x2="1073.01"
       y2="494.71301" />
    <linearGradient
       gradientUnits="userSpaceOnUse"
       id="defitem15"
       y2="516.37"
       x2="193.27699"
       y1="452.388"
       x1="272.59201">
      <stop
         id="stop50"
         offset="0.0000000"
         style="stop-color:#6e6e6e;stop-opacity:1.0000000;" />
      <stop
         id="stop51"
         offset="1.0000000"
         style="stop-color:#d8d8d8;stop-opacity:1.0000000;" />
    </linearGradient>
    <linearGradient
       xlink:href="#defitem15"
       id="linearGradient3418"
       gradientUnits="userSpaceOnUse"
       x1="272.59201"
       y1="452.388"
       x2="193.27699"
       y2="516.37" />
    <radialGradient
       gradientUnits="userSpaceOnUse"
       id="defitem14"
       fy="211.088"
       fx="1037.22"
       r="1164.28"
       cy="211.088"
       cx="1037.22">
      <stop
         id="stop47"
         offset="0.0000000"
         style="stop-color:#ffffff;stop-opacity:1.0000000;" />
      <stop
         id="stop48"
         offset="1.0000000"
         style="stop-color:#aaaaaa;stop-opacity:1.0000000;" />
    </radialGradient>
    <radialGradient
       xlink:href="#defitem14"
       id="radialGradient3416"
       gradientUnits="userSpaceOnUse"
       cx="1037.22"
       cy="211.088"
       fx="1037.22"
       fy="211.088"
       r="1164.28" />
    <linearGradient
       gradientUnits="userSpaceOnUse"
       id="defitem13"
       y2="686.83002"
       x2="379.241"
       y1="732.12903"
       x1="342.64999">
      <stop
         id="stop44"
         offset="0.0000000"
         style="stop-color:#ffffff;stop-opacity:1.0000000;" />
      <stop
         id="stop45"
         offset="1.0000000"
         style="stop-color:#989898;stop-opacity:1.0000000;" />
    </linearGradient>
    <linearGradient
       xlink:href="#defitem13"
       id="linearGradient3414"
       gradientUnits="userSpaceOnUse"
       x1="342.64999"
       y1="732.12903"
       x2="379.241"
       y2="686.83002" />
    <radialGradient
       gradientUnits="userSpaceOnUse"
       id="defitem12"
       fy="484.409"
       fx="632.78101"
       r="540.27899"
       cy="484.409"
       cx="632.78101">
      <stop
         id="stop41"
         offset="0.0000000"
         style="stop-color:#ffffff;stop-opacity:1.0000000;" />
      <stop
         id="stop42"
         offset="1.0000000"
         style="stop-color:#ededed;stop-opacity:1.0000000;" />
    </radialGradient>
    <radialGradient
       xlink:href="#defitem12"
       id="radialGradient3412"
       gradientUnits="userSpaceOnUse"
       cx="632.78101"
       cy="484.409"
       fx="632.78101"
       fy="484.409"
       r="540.27899" />
    <radialGradient
       xlink:href="#linearGradient3682"
       id="radialGradient3817"
       gradientUnits="userSpaceOnUse"
       gradientTransform="matrix(1.1149219,0.2722306,-0.7507171,3.0745639,-471.08629,-148.32863)"
       cx="270.58316"
       cy="33.899986"
       fx="270.58316"
       fy="33.899986"
       r="19.571428" />
    <linearGradient
       id="linearGradient3682">
      <stop
         style="stop-color:#ff6d0f;stop-opacity:1;"
         offset="0"
         id="stop3684" />
      <stop
         style="stop-color:#ff1000;stop-opacity:1;"
         offset="1"
         id="stop3686" />
    </linearGradient>
    <radialGradient
       xlink:href="#linearGradient3864"
       id="radialGradient3661"
       gradientUnits="userSpaceOnUse"
       gradientTransform="matrix(0.6186598,0.9666542,-1.0332462,0.6612786,-327.27568,-255.84136)"
       cx="282.64584"
       cy="29.149046"
       fx="282.64584"
       fy="29.149046"
       r="19.571428" />
    <linearGradient
       id="linearGradient3864">
      <stop
         id="stop3866"
         offset="0"
         style="stop-color:#71b2f8;stop-opacity:1;" />
      <stop
         id="stop3868"
         offset="1"
         style="stop-color:#002795;stop-opacity:1;" />
    </linearGradient>
    <inkscape:path-effect
       effect="fill_between_many"
       method="originald"
       linkedpaths="#path260-7,0,1|#path262-7,0,1|#path264-3,0,1|#path266-6,0,1|#path268-6,0,1|#path270-6,0,1|#11-5,0,1|#12-7,0,1|#19-4,0,1|#path316-7,0,1|#26-4,0,1|#path319-0,0,1|#28-2,0,1|#path336-8,0,1|#40-7,0,1|#41-9,0,1|#path346-0,0,1|#45-1,0,1|#path366-4,0,1|#59-2,0,1|#61-2,0,1|#path376-5,0,1"
       id="path-effect2680"
       is_visible="true"
       lpeversion="0"
       join="true"
       close="true"
       autoreverse="true" />
    <inkscape:path-effect
       effect="fill_between_many"
       method="originald"
       linkedpaths="#g4613,0,1"
       id="path-effect4615"
       is_visible="true"
       lpeversion="0"
       join="true"
       close="true"
       autoreverse="true" />
  </defs>
  <g
     id="g7544"
     transform="translate(125.22703,175.2849)">
    <path
       id="path5274"
       style="color:#000000;fill:#c8c8c8;fill-opacity:1;stroke:#000000;stroke-width:1;stroke-dasharray:none;stroke-opacity:1"
       d="m 251.95442,0.60114433 -181.10264,0.002 v 0.3514 L 70.6058,0.70856433 66.51199,4.8023743 H 50.39101 49.42983 44.01569 43.53923 41.69542 v 0.7028 h 2.32027 1.1684 c -0.75116,0.23026 -1.50813,0.46137 -2.21123,0.80873 -0.94832,0.468 -1.82865,1.03917 -2.64067,1.71463 -0.75698,0.63136 -1.42773,1.37793 -2.00401,2.1993497 -2.00762,-0.0562 -3.48016,-0.0969 -4.55838,-0.12506 -0.24208,-0.006 -0.19325,-0.006 -0.39067,-0.0119 -0.3239,-0.008 -0.50425,-0.0141 -0.73019,-0.0202 1.00366,-1.2762997 2.16133,-2.4572497 3.5972,-3.2147897 1.66866,-0.88478 3.55872,-1.35328 5.44566,-1.35134 v -0.69918 c -2.00306,-0.002 -4.00246,0.49428 -5.77381,1.4335 v -0.004 c -1.77228,0.93508 -3.3067,2.30813 -4.43332,3.9651297 -9.01165,13.22742 -16.242,27.66842 -21.41419,42.81599 C 3.74898,71.530164 0.5,91.089074 0.5,110.65282 c 0,19.5638 3.24898,39.12261 9.57048,57.6368 5.17219,15.1476 12.40254,29.58904 21.41419,42.8165 1.12662,1.657 2.66104,3.03004 4.43332,3.96514 1.20799,0.6405 2.58897,0.76592 3.93775,0.97668 0.002,0.20328 0.008,0.42945 0.008,0.42943 l 0.004,-0.004 c 0.004,-1.2e-4 0.0102,2.2e-4 0.0202,0 0.018,-4.4e-4 0.0488,8.6e-4 0.0858,0 0.074,-0.002 0.18444,-0.004 0.33228,-0.008 0.25026,-0.006 0.66144,-0.016 1.12086,-0.0274 0.0922,0.002 0.17338,0.0663 0.26562,0.0661 v -0.0703 c 1.2391,-0.0288 3.08778,-0.0739 5.58984,-0.13694 v -0.0351 c 0.59242,0.0886 1.17586,0.22303 1.78128,0.23823 v -0.004 c 0.1226,0.004 0.24484,0.008 0.36742,0.008 h 17.07803 l 4.09794,4.09795 0.24598,-0.2465 v 0.34778 H 251.9546 v -0.34778 l 0.24598,0.2465 4.09794,-4.09795 h 16.11323 0.96066 5.39502 0.51935 1.81643 v -0.70331 h -1.81643 -0.51935 -1.13326 c 0.74678,-0.22964 1.49659,-0.45922 2.19573,-0.8046 0.94832,-0.468 1.83226,-1.03917 2.64428,-1.71463 0.75634,-0.63078 1.42804,-1.37885 2.00402,-2.19935 2.18066,0.061 3.87577,0.10775 4.96455,0.13695 0.47488,0.012 0.45025,0.008 0.71107,0.016 -1.00366,1.27624 -2.15775,2.46086 -3.59358,3.2184 -1.66866,0.88478 -3.55821,1.3538 -5.44515,1.35186 v 0.69918 c 2.00178,0.002 3.99867,-0.49544 5.76916,-1.4335 1.77234,-0.9351 3.31084,-2.30814 4.43746,-3.96514 9.01165,-13.22756 16.23838,-27.6689 21.41057,-42.8165 6.3215,-18.51409 9.56996,-38.07306 9.56996,-57.6368 0,-19.563726 -3.24846,-39.122756 -9.56996,-57.636786 -5.17219,-15.14767 -12.39892,-29.58837 -21.41057,-42.81599 -1.12558,-1.6554597 -2.66309,-3.0259797 -4.43333,-3.9609997 -1.57833,-0.8369 -3.36274,-1.18324 -5.14438,-1.27744 l -0.004,-0.18345 c 0,0 -0.524,0.0139 -1.5782,0.0429 -1.12306,0.03 -2.83693,0.0766 -5.12113,0.14056 v 0.0233 c -0.43352,-0.05 -0.85674,-0.1645 -1.29708,-0.1757 -10e-4,-4e-5 -0.002,4e-5 -0.004,0 -0.122,-0.004 -0.24548,-0.004 -0.36742,-0.004 v -0.004 h -17.07802 l -4.09381,-4.09328997 -0.24598,0.24598 z M 60.50099,15.229714 c 5.15965,0 9.34982,4.19016 9.34982,9.34981 0,5.15972 -4.19017,9.3493 -9.34982,9.3493 -5.15971,0 -9.34982,-4.18958 -9.34982,-9.3493 0,-5.15965 4.19011,-9.34981 9.34982,-9.34981 z m 202.42847,0.0543 c 5.15966,0 9.34982,4.19015 9.34982,9.34981 0,5.15971 -4.19016,9.3493 -9.34982,9.3493 -5.15966,0 -9.3493,-4.18959 -9.3493,-9.3493 0,-5.15966 4.18964,-9.34981 9.3493,-9.34981 z m 35.65726,36.56521 c 18.39315,36.90426 18.41879,80.275756 0.10748,117.208856 l -20.8163,-1.57613 V 53.681144 l 18.18545,-1.59215 0.25425,-0.0232 -0.002,-0.0196 z m -274.46852,0.22634 20.80648,1.60145 V 167.48195 l -20.80855,1.5937 C 5.83301,132.21298 5.83264,88.937394 24.11813,52.075564 Z M 261.898,186.92056 c 5.15967,0 9.34982,4.19013 9.34982,9.34981 0,5.15971 -4.19015,9.34982 -9.34982,9.34982 -5.15971,0 -9.34982,-4.19011 -9.34982,-9.34982 0,-5.15968 4.19011,-9.34981 9.34982,-9.34981 z m -202.84602,0.45888 c 5.15971,0 9.34982,4.18962 9.34982,9.3493 0,5.15972 -4.19011,9.34982 -9.34982,9.34982 -5.15968,0 -9.34981,-4.19011 -9.34981,-9.34982 0,-5.15968 4.19013,-9.3493 9.34981,-9.3493 z" />
    <ellipse
       style="fill:#c8c8c8;fill-opacity:1;stroke:#000000;stroke-width:1;stroke-linecap:round;stroke-linejoin:bevel;stroke-dasharray:none;stroke-opacity:0;paint-order:fill markers stroke"
       id="path7507"
       cx="42.55595"
       cy="12.239902"
       rx="6.4847159"
       ry="5.1067138" />
    <ellipse
       style="fill:#c8c8c8;fill-opacity:1;stroke:#000000;stroke-width:1.13644;stroke-linecap:round;stroke-linejoin:bevel;stroke-dasharray:none;stroke-opacity:0;paint-order:fill markers stroke"
       id="path7511"
       cx="43.204418"
       cy="13.415257"
       rx="11.928506"
       ry="8.1592655" />
    <ellipse
       style="fill:#c8c8c8;fill-opacity:1;stroke:#000000;stroke-width:1.13644;stroke-linecap:round;stroke-linejoin:bevel;stroke-dasharray:none;stroke-opacity:0;paint-order:fill markers stroke"
       id="path7511-2"
       cx="279.72925"
       cy="208.02161"
       rx="11.928506"
       ry="8.1592655" />
  </g>
  <path
     style="color:#000000;fill:#c8c8c8;fill-opacity:1;stroke:#000000;stroke-opacity:1;-inkscape-stroke:none"
     d="m 120.21409,234.59025 h 0.041 0.084 0.0957 0.10937 0.12305 0.13476 0.14844 0.16211 0.17383 58.80079 213.08203 58.80078 0.17383 0.1621 0.14649 0.13476 0.12305 0.11133 0.0957 0.084 0.041 c 5.42568,7.77611 9.61083,16.41675 12.33594,25.49805 2.42248,8.05405 3.70328,16.44952 3.79492,24.85938 0.10061,8.9534 -1.1503,17.92117 -3.69531,26.50585 -2.7235,9.20476 -6.94287,17.96342 -12.43555,25.83594 h -0.041 -0.084 -0.0957 -0.11133 -0.12305 -0.13476 -0.14649 -0.1621 -0.17383 -58.80078 -213.08203 -58.80079 -0.17383 -0.16211 -0.14843 -0.13477 -0.12305 -0.10937 -0.0957 -0.084 -0.041 c -5.42613,-7.77646 -9.61067,-16.41624 -12.33594,-25.49805 -2.42248,-8.05406 -3.70328,-16.45146 -3.79492,-24.86133 -0.10061,-8.9534 1.14836,-17.92118 3.69336,-26.50586 2.72335,-9.20425 6.94527,-17.9618 12.4375,-25.83398 z"
     id="path8600" />
  <path
     style="color:#000000;fill:#c8c8c8;fill-opacity:1;stroke:#000000;stroke-width:1;stroke-dasharray:none;stroke-opacity:1"
     d="m 218.86478,91.790665 h 135.52685 l 5.9531,4.16796 9.89451,6.929655 19.63275,13.74604 c 2.74195,1.91932 5.48398,3.83983 8.22261,5.75781 3.50664,2.45531 7.00799,4.90621 10.49996,7.35153 0.61064,0.42731 1.12124,0.78427 1.53515,1.07422 0.41726,0.29195 0.73482,0.51358 0.94922,0.66406 l 2.19921,1.53905 v 147.41744 6.55076 6.46873 6.30076 6.06248 5.74216 5.35154 4.8906 4.37109 3.79686 3.17187 2.51171 1.8164 1.09765 0.02 h -4.52732 v 0.35156 l -0.35156,-0.0274 c -0.52794,7.18114 -1.08022,14.35987 -1.66015,21.53899 -0.58196,7.17851 -1.1791,14.35467 -1.78906,21.53118 -0.79099,9.36083 -1.58757,18.72098 -2.34765,28.08584 -0.78908,9.72399 -1.53563,19.45393 -2.21873,29.1874 -0.6851,9.75737 -1.30792,19.51577 -1.87499,29.28114 -0.34206,5.84794 -0.66274,11.70128 -0.96876,17.55071 -0.3066,5.80438 -0.61138,11.60574 -0.91796,17.4101 l -10.81246,10.25387 0.23828,0.25 -0.34376,-0.043 -5.07028,41.32797 h -1.0547 -4.04686 -6.61716 -8.99215 -11.11324 -12.90621 -14.32807 -15.34371 -15.90618 -16.01167 -15.6562 -14.85151 -13.61323 -11.98041 -3.41797 -3.20701 -2.98826 -2.75392 -2.51951 -2.27733 -2.02343 -1.76561 -1.5 -1.23438 -0.96483 -0.69142 -0.24608 l -5.0664,-41.25765 -0.34374,0.043 0.23828,-0.2539 -10.86324,-10.32419 c -0.23362,-4.59812 -0.4656,-9.19774 -0.69922,-13.79683 -0.014,-0.2591 -0.0258,-0.51824 -0.039,-0.77734 -0.22274,-4.38776 -0.44452,-8.77232 -0.6797,-13.16011 -0.004,-0.0638 -0.008,-0.1276 -0.012,-0.1914 -0.0244,-0.45324 -0.0456,-0.90614 -0.0702,-1.35937 -0.29128,-5.39286 -0.66869,-10.78103 -0.99609,-16.17183 -0.36186,-5.95728 -0.67856,-11.91677 -1.08984,-17.87101 -0.0218,-0.31396 -0.0484,-0.62748 -0.0704,-0.94142 -0.014,-0.20306 -0.0248,-0.4063 -0.039,-0.60938 -0.6842,-9.79684 -1.44747,-19.59103 -2.24999,-29.37879 -0.016,-0.1874 -0.0276,-0.3751 -0.043,-0.5625 -6.4e-4,-0.008 6.4e-4,-0.016 0,-0.0234 -0.014,-0.1614 -0.0258,-0.32296 -0.039,-0.48436 -0.24574,-2.98401 -0.50612,-5.96586 -0.75782,-8.94919 -0.76608,-9.08405 -1.53175,-18.16718 -2.29687,-27.2499 -0.9277,-11.01608 -1.82985,-22.03331 -2.65233,-33.05459 l -0.34766,0.0234 v -0.34766 h -4.52732 v -0.02 -1.09765 -1.8164 -2.51171 -3.17187 -3.79686 -4.37109 -4.8906 -5.35154 -5.74216 -6.06248 -6.30076 -6.46873 -6.55076 -147.41743 l 2.19941,-1.539 c 0.21548,-0.15076 0.5286,-0.37204 0.94532,-0.66406 0.41477,-0.29008 0.92899,-0.64685 1.53905,-1.07422 3.49197,-2.44532 6.98942,-4.89622 10.49604,-7.35153 2.73865,-1.91798 5.48,-3.83782 8.22263,-5.75781 l 19.63275,-13.74604 9.89449,-6.929655 z"
     id="path12024" />
  <rect
     style="fill:#00ff00;fill-opacity:0;stroke:#00ff00;stroke-width:1;stroke-linecap:round;stroke-linejoin:bevel;stroke-dasharray:none;stroke-opacity:0;paint-order:fill markers stroke"
     id="rect13014"
     width="106.38097"
     height="30.263552"
     x="233.30258"
     y="163.23976"
     inkscape:label="pigtail" />
</svg>
