<?xml version="1.0" encoding="UTF-8" standalone="no"?>
<svg
   id="svg2"
   version="1.1"
   viewBox="0 0 474.99927 334.99999"
   height="335mm"
   width="474.99927mm"
   sodipodi:docname="thumbnail.svg"
   inkscape:version="1.2.1 (9c6d41e410, 2022-07-14)"
   xmlns:inkscape="http://www.inkscape.org/namespaces/inkscape"
   xmlns:sodipodi="http://sodipodi.sourceforge.net/DTD/sodipodi-0.dtd"
   xmlns:xlink="http://www.w3.org/1999/xlink"
   xmlns="http://www.w3.org/2000/svg"
   xmlns:svg="http://www.w3.org/2000/svg"
   xmlns:rdf="http://www.w3.org/1999/02/22-rdf-syntax-ns#"
   xmlns:cc="http://creativecommons.org/ns#"
   xmlns:dc="http://purl.org/dc/elements/1.1/">
  <sodipodi:namedview
     id="namedview13647"
     pagecolor="#ffffff"
     bordercolor="#666666"
     borderopacity="1.0"
     inkscape:showpageshadow="2"
     inkscape:pageopacity="0.0"
     inkscape:pagecheckerboard="0"
     inkscape:deskcolor="#d1d1d1"
     inkscape:document-units="mm"
     showgrid="false"
     inkscape:zoom="0.4204826"
     inkscape:cx="853.78087"
     inkscape:cy="764.59763"
     inkscape:window-width="1920"
     inkscape:window-height="1035"
     inkscape:window-x="0"
     inkscape:window-y="45"
     inkscape:window-maximized="1"
     inkscape:current-layer="svg2"
     showguides="true">
    <sodipodi:guide
       position="257.67267,202.54555"
       orientation="1,0"
       id="guide1338"
       inkscape:locked="false" />
    <sodipodi:guide
       position="261.76271,284.66101"
       orientation="0,-1"
       id="guide1340"
       inkscape:locked="false" />
    <sodipodi:guide
       position="258.93988,67.855739"
       orientation="0,-1"
       id="guide1342"
       inkscape:locked="false" />
  </sodipodi:namedview>
  <!-- Working space 10 10 410 287 -->
  <!-- Title block 220 227 410 287 -->
  <path
     id="path14607"
     style="color:#000000;fill:#c8c8c8;fill-opacity:1;stroke:#000000;stroke-width:0.999998;stroke-opacity:1;-inkscape-stroke:none"
     d="m 111.87438,0.49999907 -5.8468,4.13967003 -0.1977,-0.28052 0.024,0.34343 -58.179504,4.09636 c -1.1636,1.7813299 -2.3058,3.5758599 -3.43,5.3823999 -1.6093,2.58768 -3.1775,5.20125 -4.7045,7.83898 -5.50382,9.50605 -10.49628,19.36728 -14.95062,29.60787 -1.55142,3.566904 -2.95206,6.990594 -4.17074,10.110974 -1.21972,3.12033 -2.259479,5.9398 -3.035619,8.11536 C -5.0973136,132.86791 -5.1230636,201.77611 17.278417,264.81017 l 0.3135,-0.11236 0.11677,0.33107 c 0.775069,2.17232 1.814239,4.99046 3.031509,8.10711 1.21827,3.11666 2.61719,6.53307 4.16666,10.0955 l 0.13937,0.31969 -0.29813,0.13312 c 4.41855,10.12473 9.34605,19.89475 14.79178,29.30055 1.527,2.63734 3.0952,5.24645 4.7045,7.83382 1.0596,1.7029 2.1348,3.39416 3.2293,5.07508 l 57.923404,4.07778 -0.028,0.34652 0.2018,-0.28463 6.3037,4.46659 h 251.24735 l 6.3048,-4.46659 0.2008,0.28463 -0.027,-0.34652 57.9193,-4.07778 c 1.0944,-1.68094 2.1738,-3.37218 3.2333,-5.07508 1.6093,-2.58737 3.1775,-5.19648 4.7045,-7.83382 5.5038,-9.50607 10.4963,-19.37246 14.9506,-29.61302 1.5514,-3.56691 2.951,-6.9906 4.1697,-10.11096 1.2197,-3.11933 2.2554,-5.93998 3.0315,-8.11538 22.5198,-63.12403 22.5198,-132.16678 0,-195.290827 -0.7761,-2.1746 -1.8127,-4.99703 -3.0315,-8.11847 -1.2197,-3.12038 -2.6183,-6.54094 -4.1697,-10.107864 -4.4543,-10.24059 -9.4468,-20.10182 -14.9506,-29.60787 -1.527,-2.63773 -3.0952,-5.2513 -4.7045,-7.83899 -1.1242,-1.80655 -2.2715,-3.60105 -3.4352,-5.3823899 l -58.1744,-4.09636 0.023,-0.35065 -0.2008,0.28774 -5.8437,-4.13968003 z M 49.536476,83.353343 V 251.65169 l -10.2881,-0.36713 c -3.5557,-0.12493 -7.10801,-0.24838 -10.65997,-0.37333 -1.4116,-3.36117 -2.74499,-6.7659 -3.99248,-10.2172 -1.5834,-4.38342 -2.98085,-8.70652 -4.1892,-12.84701 -0.60366,-2.07022 -1.16008,-4.09461 -1.66482,-6.03006 -0.503719,-1.93522 -0.955339,-3.78268 -1.348239,-5.46903 -7.4764606,-32.13069 -7.4764606,-65.56531 0,-97.69597 0.39292,-1.68567 0.84767,-3.53218 1.352349,-5.468 0.50372,-1.93589 1.06016,-3.96005 1.66481,-6.03005 1.20733,-4.13999 2.60266,-8.464907 4.1851,-12.848057 1.24749,-3.45129 2.58088,-6.85501 3.99248,-10.21615 3.55196,-0.12494 7.10417,-0.24941 10.65997,-0.37436 z m 375.923254,0 10.2839,0.362 c 3.5545,0.12493 7.1093,0.24956 10.66,0.37436 1.4116,3.36114 2.745,6.76486 3.9925,10.21615 1.5834,4.38345 2.9818,8.707567 4.1902,12.848057 0.6037,2.0702 1.1601,4.09462 1.6648,6.03005 0.5037,1.93522 0.9543,3.78165 1.3472,5.468 7.4765,32.13068 7.4765,65.56526 0,97.69597 -0.3929,1.68571 -0.8425,3.53323 -1.3472,5.46903 -0.5037,1.93591 -1.0602,3.96004 -1.6648,6.03006 -1.2073,4.13997 -2.6078,8.46388 -4.1902,12.84701 -1.2475,3.4513 -2.5809,6.85603 -3.9925,10.2172 -3.5507,0.12493 -7.1055,0.24842 -10.66,0.37333 l -10.2839,0.36713 z" />
  <metadata
     id="metadata849">
    <rdf:RDF>
      <cc:Work
         rdf:about="">
        <dc:format>image/svg+xml</dc:format>
        <dc:type
           rdf:resource="http://purl.org/dc/dcmitype/StillImage" />
      </cc:Work>
    </rdf:RDF>
  </metadata>
  <defs
     id="defs847">
    <linearGradient
       gradientUnits="userSpaceOnUse"
       id="defitem29"
       y2="485.909"
       x2="655.35199"
       y1="807.466"
       x1="649.42902">
      <stop
         id="stop92"
         offset="0.0000000"
         style="stop-color:#ffffff;stop-opacity:1.0000000;" />
      <stop
         id="stop93"
         offset="1.0000000"
         style="stop-color:#ffffff;stop-opacity:0.13756600;" />
    </linearGradient>
    <linearGradient
       xlink:href="#defitem29"
       id="linearGradient3448"
       gradientUnits="userSpaceOnUse"
       x1="649.42902"
       y1="807.466"
       x2="655.35199"
       y2="485.909" />
    <radialGradient
       gradientUnits="userSpaceOnUse"
       id="defitem28"
       fy="345.56"
       fx="1049.72"
       r="1202.15"
       cy="345.56"
       cx="1049.72">
      <stop
         id="stop89"
         offset="0.0000000"
         style="stop-color:#ffffff;stop-opacity:1.0000000;" />
      <stop
         id="stop90"
         offset="1.0000000"
         style="stop-color:#a8a8a8;stop-opacity:1.0000000;" />
    </radialGradient>
    <radialGradient
       xlink:href="#defitem28"
       id="radialGradient3446"
       gradientUnits="userSpaceOnUse"
       cx="1092.7045"
       cy="64.845284"
       fx="1089.4004"
       fy="64.844765"
       r="1202.15" />
    <linearGradient
       gradientUnits="userSpaceOnUse"
       id="defitem30"
       y2="636.70697"
       x2="980"
       y1="636.70697"
       x1="287.5">
      <stop
         id="stop95"
         offset="0.0000000"
         style="stop-color:#464646;stop-opacity:1.0000000;" />
      <stop
         id="stop96"
         offset="1.0000000"
         style="stop-color:#c2c2c2;stop-opacity:1.0000000;" />
    </linearGradient>
    <linearGradient
       xlink:href="#defitem30"
       id="linearGradient3444"
       gradientUnits="userSpaceOnUse"
       gradientTransform="matrix(1,0,0,1.016038,0,-11.73855)"
       x1="287.5"
       y1="636.70697"
       x2="980"
       y2="636.70697" />
    <linearGradient
       gradientUnits="userSpaceOnUse"
       id="defitem27"
       y2="317.44699"
       x2="985.98199"
       y1="403.18799"
       x1="921.091">
      <stop
         id="stop86"
         offset="0.0000000"
         style="stop-color:#7e7e7e;stop-opacity:1.0000000;" />
      <stop
         id="stop87"
         offset="1.0000000"
         style="stop-color:#e5e5e5;stop-opacity:1.0000000;" />
    </linearGradient>
    <linearGradient
       xlink:href="#defitem27"
       id="linearGradient3442"
       gradientUnits="userSpaceOnUse"
       x1="921.091"
       y1="403.18799"
       x2="985.98199"
       y2="317.44699" />
    <linearGradient
       gradientUnits="userSpaceOnUse"
       id="defitem26"
       y2="360.27499"
       x2="293.37"
       y1="346.30399"
       x1="530.76099">
      <stop
         id="stop83"
         offset="0.0000000"
         style="stop-color:#5f5f5f;stop-opacity:1.0000000;" />
      <stop
         id="stop84"
         offset="1.0000000"
         style="stop-color:#e5e5e5;stop-opacity:1.0000000;" />
    </linearGradient>
    <linearGradient
       xlink:href="#defitem26"
       id="linearGradient3440"
       gradientUnits="userSpaceOnUse"
       x1="530.76099"
       y1="346.30399"
       x2="293.37"
       y2="360.27499" />
    <linearGradient
       gradientUnits="userSpaceOnUse"
       id="defitem25"
       y2="337.60999"
       x2="308.75"
       y1="412.91901"
       x1="164.013">
      <stop
         id="stop80"
         offset="0.0000000"
         style="stop-color:#ffffff;stop-opacity:1.0000000;" />
      <stop
         id="stop81"
         offset="1.0000000"
         style="stop-color:#bfbfbf;stop-opacity:1.0000000;" />
    </linearGradient>
    <linearGradient
       xlink:href="#defitem25"
       id="linearGradient3438"
       gradientUnits="userSpaceOnUse"
       x1="164.013"
       y1="412.91901"
       x2="308.75"
       y2="337.60999" />
    <linearGradient
       gradientUnits="userSpaceOnUse"
       id="defitem24"
       y2="380.47198"
       x2="992.48901"
       y1="270.854"
       x1="1094.25">
      <stop
         id="stop77"
         offset="0.0000000"
         style="stop-color:#6a6a6a;stop-opacity:1.0000000;" />
      <stop
         id="stop78"
         offset="1.0000000"
         style="stop-color:#e6e6e6;stop-opacity:1.0000000;" />
    </linearGradient>
    <linearGradient
       xlink:href="#defitem24"
       id="linearGradient3436"
       gradientUnits="userSpaceOnUse"
       x1="1094.25"
       y1="270.854"
       x2="992.48901"
       y2="380.47198" />
    <linearGradient
       gradientUnits="userSpaceOnUse"
       id="defitem23"
       y2="549.37799"
       x2="1049.84"
       y1="476.465"
       x1="1170.91">
      <stop
         id="stop74"
         offset="0.0000000"
         style="stop-color:#5f5f5f;stop-opacity:1.0000000;" />
      <stop
         id="stop75"
         offset="1.0000000"
         style="stop-color:#ebebeb;stop-opacity:1.0000000;" />
    </linearGradient>
    <linearGradient
       xlink:href="#defitem23"
       id="linearGradient3434"
       gradientUnits="userSpaceOnUse"
       x1="1170.91"
       y1="476.465"
       x2="1049.84"
       y2="549.37799" />
    <linearGradient
       gradientUnits="userSpaceOnUse"
       id="defitem22"
       y2="313.276"
       x2="576.14899"
       y1="105.486"
       x1="783.716">
      <stop
         id="stop71"
         offset="0.0000000"
         style="stop-color:#5a5a5a;stop-opacity:1.0000000;" />
      <stop
         id="stop72"
         offset="1.0000000"
         style="stop-color:#c7c7c7;stop-opacity:1.0000000;" />
    </linearGradient>
    <linearGradient
       xlink:href="#defitem22"
       id="linearGradient3432"
       gradientUnits="userSpaceOnUse"
       x1="783.716"
       y1="105.486"
       x2="576.14899"
       y2="313.276" />
    <linearGradient
       gradientUnits="userSpaceOnUse"
       id="defitem21"
       y2="484.716"
       x2="128.05499"
       y1="418.698"
       x1="280.04401">
      <stop
         id="stop68"
         offset="0.0000000"
         style="stop-color:#666666;stop-opacity:1.0000000;" />
      <stop
         id="stop69"
         offset="1.0000000"
         style="stop-color:#d8d8d8;stop-opacity:1.0000000;" />
    </linearGradient>
    <linearGradient
       xlink:href="#defitem21"
       id="linearGradient3430"
       gradientUnits="userSpaceOnUse"
       x1="280.04401"
       y1="418.698"
       x2="128.05499"
       y2="484.716" />
    <linearGradient
       gradientUnits="userSpaceOnUse"
       id="defitem20"
       y2="584.40997"
       x2="220"
       y1="636.95398"
       x1="129.687">
      <stop
         id="stop65"
         offset="0.0000000"
         style="stop-color:#ffffff;stop-opacity:1.0000000;" />
      <stop
         id="stop66"
         offset="1.0000000"
         style="stop-color:#bbbbbb;stop-opacity:1.0000000;" />
    </linearGradient>
    <linearGradient
       xlink:href="#defitem20"
       id="linearGradient3428"
       gradientUnits="userSpaceOnUse"
       x1="129.687"
       y1="636.95398"
       x2="220"
       y2="584.40997" />
    <linearGradient
       gradientUnits="userSpaceOnUse"
       id="defitem19"
       y2="583.75299"
       x2="1127.98"
       y1="629.02802"
       x1="1048.72">
      <stop
         id="stop62"
         offset="0.0000000"
         style="stop-color:#5e5e5e;stop-opacity:1.0000000;" />
      <stop
         id="stop63"
         offset="1.0000000"
         style="stop-color:#ededed;stop-opacity:1.0000000;" />
    </linearGradient>
    <linearGradient
       xlink:href="#defitem19"
       id="linearGradient3426"
       gradientUnits="userSpaceOnUse"
       x1="1048.72"
       y1="629.02802"
       x2="1127.98"
       y2="583.75299" />
    <linearGradient
       gradientUnits="userSpaceOnUse"
       id="defitem18"
       y2="291.97699"
       x2="581.32397"
       y1="387.27301"
       x1="370.022">
      <stop
         id="stop59"
         offset="0.0000000"
         style="stop-color:#636363;stop-opacity:1.0000000;" />
      <stop
         id="stop60"
         offset="1.0000000"
         style="stop-color:#d6d6d6;stop-opacity:1.0000000;" />
    </linearGradient>
    <linearGradient
       xlink:href="#defitem18"
       id="linearGradient3424"
       gradientUnits="userSpaceOnUse"
       x1="370.022"
       y1="387.27301"
       x2="581.32397"
       y2="291.97699" />
    <linearGradient
       gradientUnits="userSpaceOnUse"
       id="defitem17"
       y2="351.939"
       x2="909.59399"
       y1="351.939"
       x1="732.15601">
      <stop
         id="stop56"
         offset="0.0000000"
         style="stop-color:#676767;stop-opacity:1.0000000;" />
      <stop
         id="stop57"
         offset="1.0000000"
         style="stop-color:#d3d3d3;stop-opacity:1.0000000;" />
    </linearGradient>
    <linearGradient
       xlink:href="#defitem17"
       id="linearGradient3422"
       gradientUnits="userSpaceOnUse"
       x1="732.15601"
       y1="351.939"
       x2="909.59399"
       y2="351.939" />
    <linearGradient
       gradientUnits="userSpaceOnUse"
       id="defitem16"
       y2="494.71301"
       x2="1073.01"
       y1="494.71301"
       x1="1014.43">
      <stop
         id="stop53"
         offset="0.0000000"
         style="stop-color:#666666;stop-opacity:1.0000000;" />
      <stop
         id="stop54"
         offset="1.0000000"
         style="stop-color:#dcdcdc;stop-opacity:1.0000000;" />
    </linearGradient>
    <linearGradient
       xlink:href="#defitem16"
       id="linearGradient3420"
       gradientUnits="userSpaceOnUse"
       x1="1014.43"
       y1="494.71301"
       x2="1073.01"
       y2="494.71301" />
    <linearGradient
       gradientUnits="userSpaceOnUse"
       id="defitem15"
       y2="516.37"
       x2="193.27699"
       y1="452.388"
       x1="272.59201">
      <stop
         id="stop50"
         offset="0.0000000"
         style="stop-color:#6e6e6e;stop-opacity:1.0000000;" />
      <stop
         id="stop51"
         offset="1.0000000"
         style="stop-color:#d8d8d8;stop-opacity:1.0000000;" />
    </linearGradient>
    <linearGradient
       xlink:href="#defitem15"
       id="linearGradient3418"
       gradientUnits="userSpaceOnUse"
       x1="272.59201"
       y1="452.388"
       x2="193.27699"
       y2="516.37" />
    <radialGradient
       gradientUnits="userSpaceOnUse"
       id="defitem14"
       fy="211.088"
       fx="1037.22"
       r="1164.28"
       cy="211.088"
       cx="1037.22">
      <stop
         id="stop47"
         offset="0.0000000"
         style="stop-color:#ffffff;stop-opacity:1.0000000;" />
      <stop
         id="stop48"
         offset="1.0000000"
         style="stop-color:#aaaaaa;stop-opacity:1.0000000;" />
    </radialGradient>
    <radialGradient
       xlink:href="#defitem14"
       id="radialGradient3416"
       gradientUnits="userSpaceOnUse"
       cx="1037.22"
       cy="211.088"
       fx="1037.22"
       fy="211.088"
       r="1164.28" />
    <linearGradient
       gradientUnits="userSpaceOnUse"
       id="defitem13"
       y2="686.83002"
       x2="379.241"
       y1="732.12903"
       x1="342.64999">
      <stop
         id="stop44"
         offset="0.0000000"
         style="stop-color:#ffffff;stop-opacity:1.0000000;" />
      <stop
         id="stop45"
         offset="1.0000000"
         style="stop-color:#989898;stop-opacity:1.0000000;" />
    </linearGradient>
    <linearGradient
       xlink:href="#defitem13"
       id="linearGradient3414"
       gradientUnits="userSpaceOnUse"
       x1="342.64999"
       y1="732.12903"
       x2="379.241"
       y2="686.83002" />
    <radialGradient
       gradientUnits="userSpaceOnUse"
       id="defitem12"
       fy="484.409"
       fx="632.78101"
       r="540.27899"
       cy="484.409"
       cx="632.78101">
      <stop
         id="stop41"
         offset="0.0000000"
         style="stop-color:#ffffff;stop-opacity:1.0000000;" />
      <stop
         id="stop42"
         offset="1.0000000"
         style="stop-color:#ededed;stop-opacity:1.0000000;" />
    </radialGradient>
    <radialGradient
       xlink:href="#defitem12"
       id="radialGradient3412"
       gradientUnits="userSpaceOnUse"
       cx="632.78101"
       cy="484.409"
       fx="632.78101"
       fy="484.409"
       r="540.27899" />
    <radialGradient
       xlink:href="#linearGradient3682"
       id="radialGradient3817"
       gradientUnits="userSpaceOnUse"
       gradientTransform="matrix(1.1149219,0.2722306,-0.7507171,3.0745639,-471.08629,-148.32863)"
       cx="270.58316"
       cy="33.899986"
       fx="270.58316"
       fy="33.899986"
       r="19.571428" />
    <linearGradient
       id="linearGradient3682">
      <stop
         style="stop-color:#ff6d0f;stop-opacity:1;"
         offset="0"
         id="stop3684" />
      <stop
         style="stop-color:#ff1000;stop-opacity:1;"
         offset="1"
         id="stop3686" />
    </linearGradient>
    <radialGradient
       xlink:href="#linearGradient3864"
       id="radialGradient3661"
       gradientUnits="userSpaceOnUse"
       gradientTransform="matrix(0.6186598,0.9666542,-1.0332462,0.6612786,-327.27568,-255.84136)"
       cx="282.64584"
       cy="29.149046"
       fx="282.64584"
       fy="29.149046"
       r="19.571428" />
    <linearGradient
       id="linearGradient3864">
      <stop
         id="stop3866"
         offset="0"
         style="stop-color:#71b2f8;stop-opacity:1;" />
      <stop
         id="stop3868"
         offset="1"
         style="stop-color:#002795;stop-opacity:1;" />
    </linearGradient>
  </defs>
  <path
     style="color:#000000;fill:#000000;-inkscape-stroke:none"
     d="m 235.74375,163.09085 c 6e-5,1.8e-4 0.002,-1.8e-4 0.002,0 0.38649,1.07238 0.88005,2.40785 1.4707,3.91015 0.59633,1.51551 1.28532,3.18043 2.03906,4.90821 -0.75378,-1.72775 -1.44467,-3.39267 -2.04101,-4.90821 -0.591,-1.50319 -1.08426,-2.83751 -1.4707,-3.91015 z"
     id="path14609" />
  <g
     id="g520"
     transform="translate(-3.575256e-4)">
    <path
       style="color:#000000;fill:#c8c8c8;fill-opacity:1;stroke-width:1;-inkscape-stroke:none"
       d="m 11.381334,99.583301 v 0.23309 h -0.23094 V 235.18362 h 0.23094 v 0.23308 h 0.0934 0.28024 0.46448 0.65131 0.83813 1.02237 1.21179 1.39344 1.58026 1.76709 1.95132 2.13556 2.32238 2.50403 49.47071 44.039726 33.323 6.09528 149.94829 6.09529 33.323 44.03711 49.47331 2.50403 2.32238 2.13555 1.95133 1.76709 1.58027 1.39342 1.21179 1.02237 0.83813 0.65132 0.46448 0.28024 0.0934 v -0.23308 h 0.23094 V 99.816391 h -0.23094 v -0.23309 h -0.0934 -0.28024 -0.46448 -0.65132 -0.83813 -1.02237 -1.21179 -1.39342 -1.58027 -1.76709 -1.95133 -2.13555 -2.32238 -2.50403 -49.47331 -44.03711 -33.323 -6.09529 -149.94829 -6.09528 -33.323 -44.039726 -49.47071 -2.50403 -2.32238 -2.13556 -1.95132 -1.76709 -1.58026 -1.39344 -1.21179 -1.02237 -0.83813 -0.65131 -0.46448 -0.28024 z"
       id="57" />
    <g
       id="g12752"
       transform="matrix(1.3285605,0,0,1.3260127,-60.729407,-41.369131)"
       style="stroke-width:0.753417">
      <path
         style="color:#000000;fill:none;stroke:#000000;stroke-width:0.753417;stroke-opacity:1;-inkscape-stroke:none"
         d="m 381.07031,106.64844 h 1.77735 1.74804 1.60742 1.46875 1.33008 1.18946 1.04882 0.91211 0.76953 0.63086 0.49024 0.34961 0.10547 v 101.73633 h -0.10547 -0.34961 -0.49024 -0.63086 -0.76953 -0.91211 -1.04882 -1.18946 -1.33008 -1.46875 -1.60742 -1.74804 -1.77735 c -0.0931,-0.18164 -0.1861,-0.36113 -0.27734,-0.54883 -0.10787,-0.22023 -0.21653,-0.45678 -0.32422,-0.71094 -0.21447,-0.50841 -0.42686,-1.08489 -0.63867,-1.72852 -0.21175,-0.64249 -0.42232,-1.35236 -0.63086,-2.13086 -0.20852,-0.78039 -0.41245,-1.62734 -0.61524,-2.53906 -0.4048,-1.82385 -0.7895,-3.87889 -1.14453,-6.12695 -0.3565,-2.24947 -0.68462,-4.71204 -0.98437,-7.38867 l -0.17188,0.0195 0.13867,-0.10547 c -1.56451,-2.08209 -2.98771,-4.29876 -4.2539,-6.66992 -1.26542,-2.37118 -2.3729,-4.8962 -3.2832,-7.61133 l -0.16602,0.0547 0.0508,-0.16602 c -2.44266,-0.73438 -4.86644,-1.51894 -7.25976,-2.38281 -2.3928,-0.86448 -4.76225,-1.80646 -7.07032,-2.89063 -1.15244,-0.54235 -2.28827,-1.11975 -3.39258,-1.75195 -1.10362,-0.63222 -2.17674,-1.31794 -3.17578,-2.08789 -0.49964,-0.38213 -0.97819,-0.79288 -1.43554,-1.23047 -0.45461,-0.43856 -0.88472,-0.90956 -1.25977,-1.41797 -0.37541,-0.5089 -0.69709,-1.05482 -0.92187,-1.63672 -0.22483,-0.58202 -0.35352,-1.20261 -0.35352,-1.81836 0,-0.61878 0.1292,-1.24122 0.35547,-1.82617 0.227,-0.58496 0.55231,-1.13425 0.92773,-1.64258 0.75123,-1.01428 1.70176,-1.87484 2.71289,-2.65429 1.00954,-0.77588 2.07537,-1.45348 3.17383,-2.08008 1.09771,-0.62658 2.22636,-1.20204 3.375,-1.74219 2.30054,-1.07989 4.67359,-2.02193 7.06641,-2.88672 2.39408,-0.86431 4.81664,-1.64836 7.25781,-2.38281 l -0.0508,-0.16992 0.16602,0.0566 c 0.90953,-2.71545 2.01777,-5.2384 3.2832,-7.60938 1.2654,-2.37091 2.69008,-4.58956 4.2539,-6.67187 l -0.13867,-0.10352 0.17188,0.0176 c 0.29824,-2.67101 0.62591,-5.13139 0.98242,-7.38281 0.17751,-1.12592 0.36375,-2.20193 0.55469,-3.22656 0.19167,-1.02487 0.39051,-1.99974 0.59179,-2.90821 0.40408,-1.81586 0.81791,-3.36832 1.24219,-4.65625 0.21179,-0.64483 0.42536,-1.22292 0.64063,-1.73437 0.10758,-0.25546 0.2162,-0.49312 0.32422,-0.71484 0.0927,-0.18899 0.18614,-0.36667 0.27929,-0.54883 z"
         id="path11619" />
      <path
         style="color:#000000;fill:none;stroke:#000000;stroke-width:0.753417;stroke-opacity:1;-inkscape-stroke:none"
         d="m 68.273437,106.64844 h 36.951173 33.14844 25.08203 4.58789 112.86523 4.58789 25.08203 33.14649 36.95312 c -0.0666,0.12977 -0.13322,0.25601 -0.20117,0.39453 -0.11099,0.22784 -0.22211,0.47338 -0.33203,0.73437 -0.21973,0.52205 -0.43618,1.10756 -0.65039,1.75977 -0.42921,1.30288 -0.84603,2.86528 -1.25195,4.68945 v 0.002 c -0.20222,0.91269 -0.40143,1.88963 -0.59375,2.91796 v 0.002 c -0.19156,1.02796 -0.37865,2.10536 -0.55664,3.23437 -0.3556,2.24563 -0.68103,4.7021 -0.97852,7.36133 -1.56132,2.08342 -2.98865,4.29732 -4.25391,6.66797 -1.25978,2.36041 -2.35941,4.8784 -3.26953,7.57812 -2.41923,0.72904 -4.82161,1.50562 -7.19726,2.36329 -2.39968,0.86726 -4.78225,1.81444 -7.09571,2.90039 h -0.002 c -1.15535,0.5433 -2.29115,1.12185 -3.39844,1.7539 -1.10803,0.63206 -2.18888,1.31893 -3.21484,2.10742 -1.02587,0.79081 -2.00052,1.67118 -2.7793,2.72266 v 0.002 c -0.38958,0.5275 -0.73165,1.10162 -0.97265,1.72266 -0.24024,0.62105 -0.37891,1.28563 -0.37891,1.95312 0,0.66468 0.13828,1.32746 0.37695,1.94532 0.23872,0.61796 0.57721,1.18866 0.9668,1.71679 0.38966,0.52821 0.83283,1.01343 1.29883,1.46289 v 0.002 c 0.46665,0.44649 0.95499,0.86397 1.46484,1.2539 1.01547,0.78261 2.10147,1.47547 3.21485,2.11329 1.11419,0.63785 2.25891,1.22016 3.41797,1.76562 2.32093,1.09021 4.6999,2.03537 7.0996,2.90234 2.37493,0.85723 4.77851,1.63432 7.19922,2.36329 0.91081,2.69929 2.00974,5.21748 3.26953,7.57812 1.26597,2.37073 2.69182,4.58656 4.25391,6.66992 0.29895,2.66463 0.62486,5.1214 0.98047,7.36524 0.35597,2.25403 0.74174,4.31603 1.14844,6.14843 0.20371,0.91588 0.40915,1.76684 0.61914,2.55274 0.20995,0.78376 0.42247,1.50033 0.63672,2.15039 0.21419,0.65086 0.4294,1.23663 0.64843,1.75586 0.10981,0.25914 0.2209,0.5016 0.33204,0.72851 0.0671,0.13804 0.13272,0.26503 0.19921,0.39454 H 343.72461 310.57812 285.49609 280.9082 168.04297 163.45508 138.37305 105.22461 68.273437 c 0.0665,-0.12951 0.132125,-0.2565 0.199219,-0.39454 0.111136,-0.22691 0.222226,-0.46937 0.332031,-0.72851 0.219031,-0.51923 0.434248,-1.105 0.648438,-1.75586 0.214247,-0.65006 0.426764,-1.36663 0.636719,-2.15039 0.209984,-0.7859 0.415428,-1.63686 0.61914,-2.55274 0.406699,-1.8324 0.792467,-3.8944 1.148438,-6.14843 0.355608,-2.24384 0.681517,-4.70061 0.980469,-7.36524 1.562094,-2.08336 2.987943,-4.29919 4.253906,-6.66992 1.260068,-2.36116 2.358612,-4.88011 3.269531,-7.58008 2.419925,-0.72876 4.825064,-1.50437 7.199219,-2.36133 2.399704,-0.86697 4.778676,-1.81213 7.099609,-2.90234 1.159054,-0.54546 2.30378,-1.12777 3.417969,-1.76562 1.113376,-0.63782 2.199375,-1.33068 3.214845,-2.11329 0.50985,-0.38993 0.99819,-0.8074 1.46484,-1.2539 v -0.002 c 0.466,-0.44945 0.90917,-0.93467 1.29883,-1.46289 0.38959,-0.52812 0.72808,-1.09883 0.9668,-1.71679 0.23867,-0.61785 0.37695,-1.28064 0.37695,-1.94532 0,-0.6675 -0.13867,-1.33206 -0.37891,-1.95312 -0.241,-0.62104 -0.58307,-1.19516 -0.97265,-1.72266 v -0.002 c -0.77877,-1.05147 -1.75343,-1.93185 -2.7793,-2.72266 -1.02596,-0.78849 -2.106804,-1.47536 -3.214843,-2.10742 -1.107289,-0.63205 -2.245037,-1.2106 -3.40039,-1.7539 -2.313454,-1.08595 -4.696024,-2.03313 -7.095703,-2.90039 -2.374882,-0.85739 -4.778823,-1.6325 -7.197266,-2.36133 -0.910225,-2.70039 -2.009473,-5.21916 -3.269531,-7.58008 -1.265257,-2.37065 -2.692585,-4.58455 -4.253906,-6.66797 -0.297492,-2.65923 -0.624874,-5.1157 -0.980469,-7.36133 h 0.002 c -0.177993,-1.12901 -0.36508,-2.20641 -0.556641,-3.23437 v -0.002 c -0.192323,-1.02833 -0.391532,-2.00527 -0.59375,-2.91796 v -0.002 c -0.405923,-1.82417 -0.82274,-3.38657 -1.251953,-4.68945 -0.214211,-0.65221 -0.430661,-1.23772 -0.65039,-1.75977 -0.109916,-0.26099 -0.221043,-0.50653 -0.332032,-0.73437 -0.06794,-0.13852 -0.134545,-0.26476 -0.201172,-0.39453 z"
         id="path11617" />
      <path
         style="color:#000000;fill:none;stroke:#000000;stroke-width:0.753417;stroke-opacity:1;-inkscape-stroke:none"
         d="m 54.453125,106.64844 h 0.105469 0.349609 0.490234 0.63086 0.769531 0.912109 1.048829 1.189453 1.330078 1.46875 1.607422 1.748047 1.777343 c 0.09315,0.18216 0.186599,0.35984 0.279297,0.54883 0.108011,0.22172 0.216635,0.45938 0.324219,0.71484 0.21527,0.51145 0.428836,1.08954 0.640625,1.73437 0.424286,1.28793 0.838112,2.84039 1.242187,4.65625 0.201283,0.90847 0.400121,1.88334 0.591797,2.90821 0.19094,1.02463 0.375228,2.10064 0.552735,3.22656 h 0.002 c 0.356513,2.25142 0.684177,4.7118 0.982422,7.38281 l 0.171875,-0.0176 -0.138672,0.10352 c 1.563824,2.08231 2.988508,4.30096 4.253906,6.67187 1.265425,2.37098 2.373669,4.89393 3.283203,7.60938 l 0.166016,-0.0547 -0.05078,0.16797 c 2.441169,0.73445 4.863727,1.5185 7.257812,2.38281 2.392816,0.86479 4.765865,1.80683 7.066406,2.88672 1.148645,0.54015 2.277292,1.11561 3.375,1.74219 1.098459,0.6266 2.164293,1.3042 3.173833,2.08008 1.01113,0.77945 1.96166,1.64002 2.71289,2.65429 0.37542,0.50833 0.70073,1.05762 0.92773,1.64258 0.22627,0.58496 0.35547,1.20738 0.35547,1.82617 0,0.61575 -0.12869,1.23635 -0.35351,1.81836 -0.22479,0.5819 -0.54647,1.12783 -0.92188,1.63672 -0.37505,0.50842 -0.80516,0.97942 -1.25976,1.41797 -0.45735,0.4376 -0.93591,0.84834 -1.43555,1.23047 -0.99904,0.76995 -2.074116,1.45567 -3.177738,2.08789 -1.103835,0.63187 -2.238705,1.20985 -3.390625,1.75195 -2.308063,1.08417 -4.677521,2.02615 -7.070313,2.89063 -2.393327,0.86387 -4.817103,1.64843 -7.259765,2.38281 l 0.04883,0.16602 -0.164063,-0.0547 c -0.9103,2.71513 -2.017788,5.24015 -3.283203,7.61133 -1.266189,2.37116 -2.68939,4.58783 -4.253906,6.66992 l 0.138672,0.10547 -0.171875,-0.0195 c -0.299753,2.67663 -0.627874,5.1392 -0.984375,7.38867 -0.355029,2.24806 -0.739731,4.3031 -1.144532,6.12695 -0.202787,0.91172 -0.406719,1.75867 -0.615234,2.53906 -0.208544,0.7785 -0.419107,1.48837 -0.630859,2.13086 -0.21181,0.64363 -0.424203,1.22011 -0.638672,1.72852 -0.107694,0.25416 -0.216355,0.49071 -0.324219,0.71094 -0.09124,0.1877 -0.184287,0.36719 -0.277344,0.54883 h -1.777343 -1.748047 -1.607422 -1.46875 -1.330078 -1.189453 -1.048829 -0.912109 -0.769531 -0.63086 -0.490234 -0.349609 -0.105469 z"
         id="path11615" />
    </g>
  </g>
  <g
     id="g1336"
     transform="matrix(0.94026898,0,0,1.0000265,-362.69396,-350.02203)"
     style="stroke-width:1.03127">
    <path
       style="color:#000000;fill:#c8c8c8;fill-opacity:1;stroke:#000000;stroke-width:1.03127;stroke-opacity:1;-inkscape-stroke:none"
       d="m 631.42775,376.65113 c 24.99931,-0.76308 50.09675,1.94081 74.29522,8.49577 h 0.004 0.004 c 22.51717,5.7675 44.20357,14.21773 64.56999,24.81275 0.006,0.003 0.0106,0.005 0.017,0.008 l 0.0128,0.008 0.33693,0.23128 0.16228,-0.20815 -0.14141,0.21972 c 0.74078,0.41306 4.11911,2.2716 5.0789,2.79466 l 0.14567,-0.23128 -0.14141,0.23128 c 0.50283,0.26706 2.56305,1.36559 3.13222,1.66909 l 0.0292,0.0231 c 3.60577,4.35172 7.22576,8.69259 10.85248,13.02891 l 0.0332,0.0655 c 0.017,0.0573 0.17762,0.57254 0.25789,0.83261 l 0.18721,-0.0501 -0.1789,0.0694 1.30612,2.90645 0.35356,-0.13491 -0.0213,0.0154 -0.32862,0.1272 c 1.75375,3.85345 3.67618,7.70647 6.38505,11.12081 l 0.30365,-0.20429 -0.27869,0.23129 0.25789,0.26598 0.63642,2.03529 0.31197,-0.0849 -0.31197,0.0886 1.10231,3.32664 0.20382,-0.0578 v 0.30068 h 0.15398 6.46405 v 137.4627 h -6.61797 v 0.27368 l -0.10393,-0.0308 c -0.78449,2.36219 -1.56612,4.72652 -2.35018,7.08881 h -0.009 c -0.006,0.0282 -0.0128,0.0566 -0.0213,0.0849 -0.24034,0.9331 -0.48347,1.86541 -0.72379,2.79852 -3e-4,10e-4 3e-4,0.002 0,0.004 -0.002,0.006 -0.002,0.0138 -0.004,0.0197 l -0.009,0.0347 c -0.13523,0.56521 -0.27254,1.13098 -0.40763,1.69608 l -0.38684,0.87887 -0.004,0.008 c -1.65286,2.35485 -3.09729,4.82269 -4.41336,7.34321 -0.002,0.004 -0.006,0.004 -0.009,0.008 l -0.31196,0.42016 -0.32029,0.30066 h -0.004 l -0.0128,0.0158 -0.004,0.004 c -2.31136,2.09483 -4.55516,4.25301 -6.74693,6.45278 l -0.004,-0.004 c -0.006,0.008 -0.0106,0.0158 -0.017,0.0231 -1.67387,1.99852 -3.35003,3.99713 -5.0207,5.99794 l -0.3494,0.28524 c -2.39067,1.2354 -4.79573,2.44274 -7.21281,3.635 -2.83638,1.42706 -5.70048,2.81725 -8.51893,4.29799 l -0.0128,-0.0158 -0.1248,0.0886 h -0.004 l -0.22462,0.15809 -0.0249,0.0158 -0.5782,0.34307 -0.0213,0.0118 c -56.59071,28.5441 -124.64873,38.51249 -187.22925,22.71578 h -0.004 c -27.03501,-6.48305 -52.81976,-17.05442 -76.74939,-30.3481 l -0.0458,-0.0347 c -3.62763,-4.43778 -7.28036,-8.85635 -10.94399,-13.26788 -0.80783,-2.61634 -1.61723,-5.23571 -2.42506,-7.85205 -5.7e-4,-0.002 6e-4,-0.006 0,-0.008 h -0.004 c -0.0811,-0.27578 -0.27013,-0.92549 -0.28702,-0.98294 l -0.35773,0.0886 0.34525,-0.1271 c -1.24673,-2.86947 -2.63555,-5.73173 -4.4009,-8.40714 0.55865,0.22294 1.12818,0.5025 1.63058,0.66686 l 0.24959,-0.65145 c -1.82648,-0.59761 -4.08662,-1.43398 -4.742,-3.15313 -6.6e-4,-0.002 -0.004,-0.002 -0.004,-0.004 l -0.19551,-0.6206 -0.24956,0.0655 v -0.31607 h -6.61796 V 448.58901 h 6.61796 v -0.27755 l 0.1165,0.0347 c 0.77575,-2.3327 1.55366,-4.66358 2.32939,-6.9963 h 0.004 c 0.006,-0.0231 0.0106,-0.0464 0.017,-0.0695 0.1495,-0.58119 0.30372,-1.16104 0.4534,-1.74233 6.1e-4,-0.002 -6.2e-4,-0.006 0,-0.008 l 0.004,-0.0118 0.009,-0.0385 c 0.18487,-0.77454 0.37247,-1.54977 0.5574,-2.32438 l 0.33277,-0.74782 c 1.84948,-2.53606 3.42887,-5.22609 4.85012,-7.97537 h 0.004 l 0.009,-0.0231 0.004,-0.004 0.0956,-0.18118 0.24956,-0.31994 c 1.94877,-1.76563 3.84653,-3.58049 5.70287,-5.42743 h 0.004 c 0.004,-0.005 0.009,-0.0107 0.0128,-0.0154 2.04395,-2.44338 4.08524,-4.88767 6.12298,-7.33551 l 0.28285,-0.22742 c 2.35174,-1.22557 4.71572,-2.42968 7.08803,-3.62343 l 0.009,-0.004 c 0.0106,-0.005 0.0224,-0.01 0.0332,-0.0154 2.12122,-1.08823 4.25101,-2.17388 6.3476,-3.3189 l 0.009,0.0116 0.29533,-0.21201 0.0213,-0.0116 0.26206,-0.15805 c 0.002,-8.3e-4 0.002,-0.003 0.004,-0.004 l 0.017,-0.008 c 36.50104,-18.73757 77.88557,-29.63178 119.54302,-30.90334 z"
       id="path9203" />
    <path
       id="path579-1"
       style="fill:none;stroke:#010000;stroke-width:1.03127;stroke-linecap:butt;stroke-linejoin:miter;stroke-dasharray:none;stroke-opacity:1"
       d="m 638.32117,625.74589 a 116.98725,108.41137 0 0 1 0,-216.82274 m 0,0 a 116.98725,108.41137 0 0 1 0,216.82274 M 469.64638,586.41086 V 448.25818 M 638.32115,633.9946 A 125.88847,116.66008 0 0 0 764.20963,517.33452 125.88847,116.66008 0 0 0 638.32115,400.67444 125.88847,116.66008 0 0 0 512.43267,517.33452 125.88847,116.66008 0 0 0 638.32115,633.9946 Z m 168.6748,-47.58374 V 448.25818 m -322.00378,-19.98872 -0.0149,0.029 m -4.84727,7.96501 q -0.2577,0.35555 -0.36312,0.80908 m -0.56225,2.35551 -0.0106,0.0488 m 319.86021,5.45688 v 0 m -0.66128,-2.11542 v -5.9e-4 m -0.312,-0.3214 v 0 m -6.34767,-11.05518 0.004,0.004 m 5.41084,164.96609 0.0128,-0.0541 m -0.82848,2.6941 q 0.28325,-0.40725 0.40571,-0.92572 m -5.20187,8.79095 q 0.20765,-0.194 0.34182,-0.45403 M 484.2958,599.60425 v -10e-5 m -7.5638,-12.55137 c 0.45896,1.46975 2.71222,2.79966 4.97399,3.36639 m 2.30011,8.19709 -10e-4,-8.9e-4 m 7.8843,-12.20451 c -1.4972,0 -2.99546,0 -4.49586,0 -1.62286,0 -3.23826,0 -4.79722,0 m 10.92552,0 q 2.26817,0 4.76102,0 m -28.63638,0 h 6.99191 m 0,0 h 1.7762 m 0,0 h 4.18173 m 0,0 h 0.16612 0.27367 0.37909 0.48664 0.59207 0.69855 0.80504 0.91153 1.01801 1.12343 1.22992 1.33641 1.44183 1.54831 m 0,0 h 6.21136 m 0,0 h 5.92598 m 0,0 h 25.12115 M 500.8182,448.25818 h 5.92598 m -12.13734,0 h 6.21136 m -18.22198,0 h 0.16612 0.27367 0.37909 0.48664 0.59207 0.69855 0.80504 0.91153 1.01801 1.12343 1.22992 1.33641 1.44183 1.54831 m -16.19235,0 h 4.18173 m -5.95793,0 h 1.7762 m -8.76811,0 h 6.99191 m 7.059,0 c -0.8881,0 -1.70379,0 -2.48753,0 m 25.53442,0 h 25.36138 m 237.79259,138.15268 h 5.92598 m 0,0 h 6.21136 m 0,0 h 1.54832 1.44183 1.3364 1.22992 1.12344 1.01801 0.91153 0.80503 0.69856 0.59206 0.48665 0.37909 0.27367 0.16612 m 0,0 h 4.18173 m 0,0 h 1.77619 m 0,0 h 6.99191 m -15.05401,0 c -1.10533,0 -2.32567,0 -3.68763,0 m -43.78718,0 h 25.43102 m -6.87584,-138.15268 c -1.17668,0 -2.42576,0 -3.8218,0 -1.39604,0 -2.9369,0 -4.62259,0 m 45.5784,0 q -0.002,0 -0.15228,0 m 0,0 h 6.99191 m -8.7681,0 h 1.77619 m -5.95792,0 h 4.18173 m -16.19236,0 h 1.54832 1.44183 1.3364 1.22992 1.12344 1.01801 0.91153 0.80503 0.69856 0.59206 0.48665 0.37909 0.27367 0.16612 m -18.22199,0 h 6.21136 m -12.13734,0 h 5.92598 m -31.12209,0 h 25.19611 m -223.19763,-16.44934 0.3349,-0.26782 m 0,0 c 6.38515,-5.36822 13.21648,-10.09571 20.46737,-14.20733 3.62299,-2.05452 7.35748,-3.95314 11.20335,-5.69682 3.84821,-1.7427 7.81462,-3.32948 11.82629,-4.73074 8.02345,-2.79858 16.22792,-4.86199 24.61821,-6.21293 4.19547,-0.67497 8.43662,-1.16541 12.72339,-1.47231 2.14657,-0.15296 4.29447,-0.25854 6.44376,-0.31677 2.1454,-0.0572 4.28406,-0.0681 6.41594,-0.0316 8.5316,0.14604 16.97748,1.03417 25.33764,2.66437 2.08948,0.40656 4.17374,0.86148 6.25289,1.36376 2.08235,0.50229 4.15074,1.05095 6.20508,1.64501 4.10101,1.18614 8.11279,2.54201 12.03512,4.06662 7.84529,3.05022 15.35973,6.76554 22.51414,11.15741 3.57603,2.19653 7.05953,4.56368 10.40523,7.07056 3.34379,2.5053 6.555,5.15497 9.63342,7.949 M 511.68197,407.28111 q -0.15973,0.0799 -0.30456,0.18157 m 221.73984,27.3266 0.27772,0.24019 m 37.13358,-25.33069 c 0.65276,0.44703 -2.1276,3.06798 -4.72694,5.19454 -5.33924,4.36898 -9.91603,6.65334 -19.437,12.13889 -3.82979,2.2061 -8.45876,4.92998 -13.24736,7.75707 m 37.38255,-25.10727 0.0288,0.0158 m -37.13363,25.33166 q 1.77034,1.5257 3.47892,3.11071 m 0,0 q 0.89374,1.05252 1.76799,2.11896 m 37.3111,-27.52988 0.002,0.002 m 14.14474,14.83027 q 0.0458,0.0553 0.0671,0.12394 m -45.28983,20.57271 h -0.17506 m -6.06005,-7.99904 q 3.16116,3.91446 6.06016,7.99904 m 34.41679,-33.84346 q 0.0575,0.0306 0.0937,0.075 m -36.52181,174.56785 q -1.83264,2.45132 -3.76218,4.83811 m 0,0 q -1.993,2.42882 -4.08589,4.78442 m 44.15052,21.36897 q 0.23214,-0.12138 0.40039,-0.32367 m -44.55091,-21.0453 q -3.22047,2.85858 -6.64178,5.50914 m 43.52885,19.52186 0.0106,-0.004 m -43.53945,-19.51786 -0.52242,0.40508 m 0,0 c -6.64019,5.39052 -13.73582,10.09867 -21.26176,14.15217 -3.76153,2.02591 -7.63604,3.88603 -11.62365,5.5784 -3.9892,1.69237 -8.09628,3.21797 -12.24244,4.54523 -4.145,1.32528 -8.33258,2.45813 -12.56308,3.39855 -4.23252,0.9424 -8.50913,1.69533 -12.82983,2.25781 -2.15923,0.28124 -4.33113,0.51512 -6.51559,0.69965 -2.1879,0.18552 -4.38239,0.32071 -6.58347,0.40854 -4.39671,0.17269 -8.78685,0.14802 -13.1458,-0.072 -8.71703,-0.44308 -17.31338,-1.64895 -25.82272,-3.63835 -4.25414,-0.99569 -8.4856,-2.1917 -12.61462,-3.56434 -4.12731,-1.37265 -8.15687,-2.91996 -12.08878,-4.64193 -3.93234,-1.72 -7.7748,-3.61664 -11.52707,-5.68992 -3.75333,-2.07357 -7.41956,-4.32694 -10.96131,-6.74363 -3.54163,-2.41668 -6.95879,-4.99668 -10.22835,-7.71957 -3.26872,-2.72151 -6.39271,-5.59045 -9.372,-8.60682 m 224.57844,33.26368 c 2.32674,-1.65685 3.52045,-5.70275 2.92519,-8.44607 -1.32043,-6.08858 -11.45157,-5.76304 -23.26764,-9.39369 -4.75207,-1.46007 -9.77664,-3.56009 -14.85552,-5.78771 m 34.57396,23.99851 q 0.32479,-0.15789 0.62401,-0.37104 M 485.39256,427.69051 q -0.17145,0.15571 -0.28326,0.36314 m 46.99626,20.20453 q 0.54351,-0.83365 1.09756,-1.66138 m 0,0 q 2.20875,-3.01064 4.56061,-5.92675 m 0,0 q 1.98939,-2.4303 4.07781,-4.78827 m -44.26585,-21.24897 q -0.19274,0.10164 -0.32904,0.26545 m 13.8113,-7.21256 c -1.83476,1.26114 -1.74851,5.18862 -0.48664,7.83523 2.63767,5.53114 10.41013,5.46335 21.52712,9.67858 4.47084,1.69524 9.48254,4.08321 14.60209,6.60933 m -4.85898,4.07294 q 2.37476,-2.09252 4.85898,-4.07294 m -41.94338,-20.84497 -0.0106,0.004 m -18.0048,196.55815 0.001,3e-4 m 51.55514,-12.56825 q -3.36413,-4.17833 -6.43265,-8.54721 M 497.845,620.94903 c 1.03505,0.57433 8.30276,-0.0839 12.9477,-1.28482 9.23026,-2.38806 8.09831,-6.91888 15.5151,-14.49014 2.98376,-3.04489 7.34886,-6.5814 11.99008,-10.216 m -40.54339,25.9209 q 0.0319,0.0375 0.0905,0.0701 m 293.33014,-13.69412 0.0192,-0.0178 m -46.72731,-20.82629 q -0.87469,1.3311 -1.77641,2.64671 m -257.69855,-160.78811 0.11713,-0.21581 m -4.97931,8.20982 c 1.56535,-2.14107 3.17649,-4.72946 4.84727,-7.96509 m -5.78435,11.17833 q 0.28645,-1.19986 0.57396,-2.40416 m -1.04037,4.21169 0.47173,-1.83201 m -2.79847,8.80595 2.35016,-7.0669 m 321.4064,7.0669 -1.10214,-3.32444 m -0.66128,-2.11542 0.66128,2.11542 m -0.97328,-2.43741 q 0.15866,0.16756 0.312,0.3214 m -6.65648,-11.37164 c 1.03718,2.30981 2.00195,4.21948 2.87727,5.7884 1.37474,2.46435 2.52906,4.10254 3.46721,5.26184 m -7.65213,-13.96359 q 0.66873,1.55965 1.30446,2.90841 m -1.29914,-2.88916 -0.26728,-0.86661 m 7.70963,165.89719 q 1.18946,-3.58368 2.38104,-7.17171 m -2.35442,7.06681 -0.7486,2.90663 m 0.006,-0.0272 -0.42275,1.76845 m -0.40571,0.92572 c -1.44077,2.04555 -2.92413,4.47339 -4.45434,7.4112 m -0.34182,0.45403 -0.34182,0.32032 m -304.45267,0.28923 -2.446,-7.92177 m 0,-10e-5 -0.2907,-0.98878 m -2.12228,-8.15071 c 0,-10e-5 -0.0458,-0.0118 -0.17677,-0.0456 m 0.11927,0.0293 q 0.0564,0.0158 0.0575,0.0158 m -5.15076,-3.4114 -0.20019,-0.64192 m 7.47429,12.2049 c -0.86041,-2.03153 -1.63989,-3.68571 -2.31502,-4.99866 -1.11065,-2.1609 -1.93486,-3.41118 -2.46729,-4.14329 M 511.05784,407.6857 q 0.16719,-0.11447 0.31946,-0.22302 m 0.30456,-0.18157 c 4.56082,-2.27557 9.33781,-4.52943 14.24151,-6.68659 4.90584,-2.15913 9.93893,-4.22056 15.06638,-6.15766 7.59952,-2.87062 15.36623,-5.45506 23.43174,-7.75431 8.06987,-2.2963 16.43865,-4.30642 25.35978,-5.97708 5.31134,-0.99273 10.81084,-1.85914 16.48551,-2.55977 5.67233,-0.70063 11.51983,-1.23647 17.4621,-1.571 7.4763,-0.42334 15.11275,-0.523 22.66008,-0.29209 7.54953,0.22992 15.00988,0.79142 22.19378,1.62132 7.14579,0.82398 13.97222,1.90256 20.53797,3.17159 6.56682,1.26903 12.87647,2.7295 19.01872,4.35773 6.14172,1.62823 12.11935,3.42619 18.00806,5.39486 5.88402,1.96671 11.68967,4.10906 17.41695,6.42706 4.65612,1.88283 9.25208,3.87617 13.75647,5.95833 4.50332,2.08216 8.91506,4.25313 13.17878,6.46851 m 0.0288,0.0168 q 0.17783,0.12237 0.35993,0.24473 m -0.009,-0.006 c 1.27997,0.72728 2.91028,1.62132 5.07515,2.79364 m -10e-4,-9.8e-4 q 1.46739,0.7776 3.16479,1.68447 m 0.0937,0.075 c 3.54281,4.27593 7.19424,8.65645 10.88719,13.07181 m -5.64592,186.11298 q -2.54716,3.04113 -5.06024,6.05089 m -0.40039,0.32367 c -2.54077,1.31344 -5.01339,2.55286 -7.25813,3.66006 m 0.004,-0.002 c -0.66234,0.33157 -1.29168,0.64537 -1.888,0.94339 -1.0489,0.52202 -1.98278,0.98779 -2.8006,1.39732 -0.81569,0.40853 -1.52063,0.76378 -2.11483,1.06673 -0.77096,0.39374 -1.37261,0.70655 -1.8518,0.96115 m 0.16825,-0.11546 q -0.21404,0.14605 -0.3759,0.26151 m -0.62401,0.37104 c -5.80458,2.8114 -11.86793,5.57051 -18.25361,8.22896 -6.38473,2.65747 -13.09072,5.21428 -20.16292,7.59741 -8.23035,2.77292 -16.96449,5.31395 -26.15886,7.4563 -9.18852,2.14334 -18.83738,3.88702 -28.73999,5.08106 -6.64519,0.80622 -13.40571,1.36179 -20.18997,1.65487 -6.78494,0.29209 -13.59365,0.3217 -20.35391,0.0898 -6.76099,-0.2319 -13.47347,-0.72333 -20.08459,-1.45751 -6.61175,-0.73418 -13.12213,-1.70915 -19.49748,-2.89035 -9.54152,-1.7723 -18.78637,-4.01729 -27.70942,-6.64219 -8.92421,-2.6249 -17.52663,-5.62972 -25.813,-8.93058 -13.29773,-5.29618 -25.79073,-11.36701 -37.44356,-17.83157 M 491.1193,422.24127 q -2.93371,2.91986 -5.72685,5.44924 m 5.69384,-5.41036 q 3.1126,-3.72085 6.16025,-7.38189 m 0.32904,-0.26545 c 2.60892,-1.35982 5.07408,-2.60911 7.17613,-3.66697 m -0.004,0.002 c 1.29807,-0.66412 2.40979,-1.23548 3.33622,-1.71605 1.34493,-0.69866 2.31928,-1.2187 3.06362,-1.62823 m -13.39307,213.25541 c -3.50767,-4.29161 -7.21873,-8.78572 -11.01178,-13.35265 m 297.67479,6.19151 q 3.46827,-3.48234 6.75764,-6.46288" />
  </g>
</svg>
