<?xml version="1.0" encoding="UTF-8" standalone="no"?>
<svg
   width="357.00006mm"
   height="226mm"
   version="1.1"
   viewBox="0 0 357.00006 226"
   id="svg21313"
   sodipodi:docname="thumbnail.svg"
   inkscape:version="1.2.1 (9c6d41e410, 2022-07-14)"
   xmlns:inkscape="http://www.inkscape.org/namespaces/inkscape"
   xmlns:sodipodi="http://sodipodi.sourceforge.net/DTD/sodipodi-0.dtd"
   xmlns="http://www.w3.org/2000/svg"
   xmlns:svg="http://www.w3.org/2000/svg"
   xmlns:rdf="http://www.w3.org/1999/02/22-rdf-syntax-ns#"
   xmlns:cc="http://creativecommons.org/ns#"
   xmlns:dc="http://purl.org/dc/elements/1.1/">
  <defs
     id="defs21317" />
  <sodipodi:namedview
     id="namedview21315"
     pagecolor="#ffffff"
     bordercolor="#666666"
     borderopacity="1.0"
     inkscape:pageshadow="2"
     inkscape:pageopacity="0.0"
     inkscape:pagecheckerboard="0"
     inkscape:document-units="mm"
     showgrid="false"
     inkscape:zoom="0.35355339"
     inkscape:cx="842.87128"
     inkscape:cy="343.6539"
     inkscape:window-width="1920"
     inkscape:window-height="1035"
     inkscape:window-x="0"
     inkscape:window-y="45"
     inkscape:window-maximized="1"
     inkscape:current-layer="svg21313"
     inkscape:showpageshadow="2"
     inkscape:deskcolor="#d1d1d1" />
  <g
     id="g5188"
     style="fill:#c8c8c8;fill-opacity:1;stroke:#000000;stroke-width:1;stroke-miterlimit:4;stroke-dasharray:none;stroke-opacity:1"
     transform="matrix(1.9840906,0,0,1.9814686,-196.50401,-166.88043)">
    <path
       id="path21382"
       style="fill:#c8c8c8;fill-opacity:1;stroke:#000000;stroke-width:3.77953;stroke-miterlimit:4;stroke-dasharray:none;stroke-opacity:1"
       d="m 464.05664,329.54688 -0.002,0.004 -0.19922,0.25586 c -1.37337,1.75586 -2.73029,3.52425 -4.06836,5.30664 l -1.68359,2.25977 -1.66797,2.27343 -1.63867,2.29297 -1.62305,2.30469 -1.60938,2.31641 -1.58007,2.33398 -1.56446,2.33985 -1.55078,2.36132 -1.52148,2.3711 -1.50586,2.38281 -1.48242,2.40039 -1.4629,2.40625 -1.44726,2.42187 -1.41602,2.43555 h -0.008 l -0.45117,0.78125 -0.44922,0.7832 0.0488,0.0313 C 379.0114,472.0279 379.10639,596.59627 437.12305,698.125 l 0.90625,-0.51758 -0.90235,0.52149 0.90039,1.55859 0.70899,-0.40625 -0.71289,0.41211 c 3.48907,6.0263 7.17062,11.9375 11.02929,17.73242 3.70496,5.55954 7.56989,11.00122 11.60352,16.32813 1.054,1.39109 2.11981,2.77382 3.19531,4.14843 l 0.51758,-0.40625 v 0.66602 h 499.88477 v -0.66602 l 0.51757,0.40625 c 1.07551,-1.37469 2.14121,-2.75745 3.19532,-4.14843 4.03317,-5.32702 7.90472,-10.76818 11.60937,-16.32813 3.85894,-5.79564 7.53294,-11.70649 11.02149,-17.73242 l -0.92578,-0.53711 0.92382,0.53125 0.90039,-1.55859 -0.32226,-0.18555 0.32226,0.18359 c 58.16631,-101.78876 58.16631,-226.75816 0,-328.54687 l -0.90234,-1.56446 -1.42383,-2.43554 -1.43945,-2.42188 -1.46875,-2.40625 -1.48438,-2.40039 -1.50586,-2.38281 -1.52148,-2.37109 -1.54297,-2.36133 -1.57226,-2.33985 -1.57813,-2.33398 -1.60937,-2.31641 -1.625,-2.30468 -1.63868,-2.29493 -1.66797,-2.27343 -1.67578,-2.25977 h -0.008 c -1.33806,-1.78239 -2.693,-3.55086 -4.06641,-5.30664 l -0.51757,0.40625 v -0.66406 z m -28.5293,98.4121 2.06641,0.46485 0.90039,0.19922 14.82422,3.29883 v 203.86523 l -14.82422,3.30078 -0.90039,0.19922 -2.06641,0.46484 c -31.73004,-67.03699 -31.73004,-144.75598 0,-211.79297 z m 557.65039,0.008 c 31.72627,67.03351 31.72627,144.74383 0,211.77734 l -2.0664,-0.45703 -0.90235,-0.19922 -14.81445,-3.29883 V 431.92188 l 14.81445,-3.29883 0.90235,-0.19922 z"
       transform="scale(0.26458333)" />
  </g>
  <!-- Working space 10 10 410 287 -->
  <!-- Title block 220 227 410 287 -->
  <metadata
     id="metadata21309">
    <rdf:RDF>
      <cc:Work
         rdf:about="">
        <dc:format>image/svg+xml</dc:format>
        <dc:type
           rdf:resource="http://purl.org/dc/dcmitype/StillImage" />
      </cc:Work>
    </rdf:RDF>
  </metadata>
  <path
     id="path3159"
     style="color:#000000;fill:#c8c8c8;fill-opacity:1;stroke:#000000;stroke-width:1.98831;stroke-miterlimit:4;stroke-dasharray:none;stroke-opacity:1"
     d="m 6.686055,49.002355 c 0.28234,0 0.72973,0.27794 1.24809,1.05503 0.51827,0.77697 1.08567,2.00448 1.65631,3.63828 0.5707,1.63387 1.14867,3.67804 1.70299,6.04314 0.5553,2.36518 1.08707,5.052906 1.57077,7.920456 0.32637,1.93447 0.64966,4.04234 0.95259,6.29523 v 78.106859 c -0.30293,2.25279 -0.62622,4.36076 -0.95259,6.29525 -0.4837,2.86753 -1.01547,5.55528 -1.57077,7.92044 -0.55432,2.3651 -1.13229,4.40919 -1.70299,6.04314 -0.57064,1.63372 -1.13804,2.86133 -1.65631,3.63828 -0.51836,0.77709 -0.95752,0.99754 -1.23986,0.99754 -0.205,0 -0.29473,-0.25415 -0.73529,-0.43123 l -0.26782,0.0945 -0.008,-0.23415 h -0.69208 -0.64152 -0.591 -0.54043 -0.48991 -0.43546 -0.38492 -0.33438 -0.28382 -0.2294 -0.0661 V 49.630745 h 0.0661 0.2294 0.28382 0.33438 0.38492 0.43546 0.48991 0.54043 0.591 0.64152 0.69208 l -0.008,-0.27358 0.25543,0.0757 c 0.34252,-0.1559 0.55122,-0.43054 0.75622,-0.43054 z m 0.92926,0 h 52.08849 v 0.0582 1.21018 1.99369 2.76168 3.49092 4.17355 4.805786 5.37985 5.88409 6.31466 6.66372 6.93526 7.109789 4.50323 l -0.0428,-0.10873 -0.90202,-1.37697 -1.24809,-1.35756 -1.5902,-1.34594 -1.92848,-1.3343 -2.26676,-1.32265 -2.60889,-1.31879 -2.94327,-1.31103 -3.28154,-1.307139 -3.61979,-1.29551 -3.95415,-1.29165 -4.29243,-1.28385 -4.44409,-1.22569 -0.51322,-1.43516 -0.62209,-1.59029 -0.66875,-1.57866 -0.71928,-1.56315 -0.76208,-1.54762 -0.8126,-1.52436 -0.85538,-1.50884 -0.89814,-1.48946 -0.9448,-1.47005 -0.98756,-1.44679 -1.03034,-1.42352 -1.07311,-1.39634 -1.112,-1.37697 -1.08865,-1.27612 c -0.3003,-2.22603 -0.61759,-4.3169 -0.94092,-6.23317 -0.48552,-2.87841 -1.01935,-5.580966 -1.57856,-7.963136 v -0.004 c -0.55818,-2.38128 -1.14472,-4.44795 -1.72628,-6.11294 -0.58198,-1.66622 -1.15949,-2.93202 -1.7341,-3.79344 -0.28237,-0.42332 0.29672,0.23293 0,0 z m 289.680715,0 h 52.08847 c -0.29669,0.23293 -0.61576,0.24772 -0.89814,0.67104 -0.57461,0.86141 -1.15211,2.12722 -1.73408,3.79344 -0.58192,1.66599 -1.1678,3.73376 -1.7263,6.11681 -0.55921,2.38217 -1.09303,5.084726 -1.57856,7.963136 -0.32331,1.91627 -0.6406,4.00714 -0.9409,6.23317 l -1.08867,1.27612 -1.11198,1.37697 -1.07313,1.39634 -1.03032,1.42352 -0.98758,1.44679 -0.9448,1.47005 -0.89814,1.48946 -0.85538,1.50884 -0.8126,1.52436 -0.76206,1.54762 -0.7193,1.56315 -0.66874,1.57866 -0.6221,1.59029 -0.51322,1.43516 -4.44406,1.22569 -4.29244,1.28385 -3.95417,1.29165 -3.61979,1.29551 -3.28154,1.307139 -2.94325,1.31103 -2.60891,1.31879 -2.26674,1.32265 -1.92848,1.3343 -1.59022,1.34594 -1.24807,1.35756 -0.90204,1.37697 -0.0428,0.10853 v -4.50323 -7.109789 -6.93526 -6.66372 -6.31466 -5.88409 -5.37985 -4.805786 -4.17355 -3.49092 -2.76168 -1.99369 -1.21018 z m 53.01773,0 c 0.205,0 0.44288,0.11453 0.72708,0.48872 l 0.25136,-0.0903 c 0.004,0.44853 0.0617,0.13851 0.0247,0.23007 h 0.69206 0.64154 0.59098 0.54045 0.48989 0.43546 0.38492 0.33438 0.28383 0.22939 0.0661 V 176.38526 h -0.0661 -0.22939 -0.28383 -0.33438 -0.38492 -0.43546 -0.48989 -0.54045 -0.59098 -0.64154 l -0.84336,0.012 0.012,0.17489 -0.13635,-0.0468 c -0.45878,0.26966 -0.52209,0.48872 -0.72708,0.48872 -0.28232,0 -0.72971,-0.27794 -1.24807,-1.05503 -0.51827,-0.77697 -1.08567,-2.00456 -1.65631,-3.63828 -0.5707,-1.63395 -1.14869,-3.67804 -1.70299,-6.04314 -0.5553,-2.36516 -1.08707,-5.05291 -1.57077,-7.92044 -0.32639,-1.93449 -0.64966,-4.04246 -0.95259,-6.29525 V 73.955071 c 0.30293,-2.25289 0.6262,-4.36076 0.95259,-6.29525 0.4837,-2.86753 1.01547,-5.555256 1.57077,-7.920436 0.5543,-2.3651 1.13229,-4.40929 1.70299,-6.04314 0.57062,-1.6338 1.13804,-2.86131 1.65631,-3.63828 0.51836,-0.77709 0.96575,-1.05503 1.24807,-1.05503 z m -289.910105,0.62837 h 63.515535 13.71321 81.73502 13.71324 63.51552 v 0.64 1.99369 2.76168 3.49092 4.17355 4.805786 5.37985 5.88409 6.31466 6.66372 6.93526 7.109789 7.20675 0.0388 7.20289 7.11367 6.93136 6.66374 6.31464 5.88411 5.37983 4.80582 4.17357 3.49087 2.76171 1.99754 0.63614 H 233.08066 219.36742 137.6324 123.91919 60.403655 v -0.63614 -1.99754 -2.76171 -3.49087 -4.17357 -4.80582 -5.37983 -5.88411 -6.31464 -6.66374 -6.93136 -7.11367 -7.20289 -0.0388 -7.20675 -7.109789 -6.93526 -6.66372 -6.31466 -5.88409 -5.37985 -4.805786 -4.17355 -3.49092 -2.76168 -1.99369 z m -45.89091,25.250796 0.53267,0.62061 1.10034,1.35757 1.06143,1.38473 1.01868,1.40799 0.97979,1.43128 0.93315,1.45066 0.89035,1.47391 0.84372,1.49335 0.80093,1.50883 0.7543,1.52823 0.71151,1.54377 0.66097,1.55925 0.61433,1.57478 0.55209,1.53989 v 36.506979 l -0.55209,1.53601 -0.61433,1.57478 -0.66097,1.55927 -0.71151,1.54375 -0.7543,1.52823 -0.80093,1.51272 -0.84372,1.48946 -0.89035,1.47393 -0.93315,1.45066 -0.97979,1.43126 -1.01868,1.40799 -1.06143,1.38473 -1.10034,1.35757 -0.53267,0.62451 z m 327.974325,0 v 76.256699 l -0.53267,-0.62451 -1.10032,-1.35757 -1.06145,-1.38473 -1.01866,-1.40799 -0.97979,-1.43126 -0.93315,-1.45066 -0.89037,-1.47393 -0.84372,-1.48946 -0.80093,-1.51272 -0.7543,-1.52823 -0.71151,-1.54375 -0.66097,-1.55927 -0.61431,-1.57478 -0.55211,-1.53601 V 94.756371 l 0.55211,-1.53989 0.61431,-1.57478 0.66097,-1.55925 0.71151,-1.54377 0.7543,-1.52823 0.80093,-1.50883 0.84372,-1.49335 0.89037,-1.47391 0.93315,-1.45066 0.97979,-1.43128 1.01866,-1.40799 1.06145,-1.38473 1.10032,-1.35757 z m -315.824095,20.27047 4.17189,1.14814 4.27301,1.27998 3.93471,1.28387 3.60035,1.291629 3.25821,1.29553 2.91606,1.29936 2.57389,1.2994 2.22398,1.29939 1.88183,1.29938 1.52801,1.29553 1.18197,1.28385 0.83594,1.27226 0.49379,1.25284 0.16721,1.25283 v 0.004 0.004 l -0.16721,1.24897 -0.49379,1.25284 -0.83594,1.27224 -1.18197,1.28387 -1.52801,1.29551 -1.88183,1.2994 -2.22398,1.29937 -2.57389,1.30328 -2.91606,1.29551 -3.25821,1.2955 -3.60035,1.29163 -3.93471,1.28389 -4.27301,1.28 -4.17189,1.1481 z m 303.673865,0 v 35.711859 l -4.17189,-1.1481 -4.27298,-1.28 -3.93474,-1.28389 -3.60035,-1.29163 -3.2582,-1.2955 -2.91605,-1.29551 -2.57391,-1.30328 -2.22398,-1.29937 -1.88183,-1.2994 -1.52801,-1.29551 -1.18197,-1.28387 -0.83593,-1.27222 -0.4938,-1.25286 -0.16721,-1.24897 v -0.008 l 0.16721,-1.25283 0.4938,-1.25284 0.83593,-1.27226 1.18197,-1.28385 1.52801,-1.29553 1.88183,-1.29936 2.22398,-1.29941 2.57391,-1.2994 2.91605,-1.29936 3.2582,-1.29553 3.60035,-1.291629 3.93474,-1.28387 4.27298,-1.27998 z M 59.703805,115.72889 v 4.50325 7.11367 6.93136 6.66374 6.31464 5.88411 5.37983 4.80582 4.17357 3.49087 2.76171 1.99754 1.20632 0.0582 H 7.615315 c 0.29672,-0.23291 0.61577,-0.2477 0.89814,-0.67102 0.57461,-0.86143 1.15213,-2.12734 1.7341,-3.79344 0.5819,-1.66608 1.1678,-3.7299 1.72628,-6.11295 0.55949,-2.38297 1.09282,-5.0834 1.57856,-7.96312 0.32371,-1.91861 0.64028,-4.01195 0.94092,-6.24095 l 1.08865,-1.27224 1.112,-1.37307 1.07311,-1.40024 1.03034,-1.42352 0.98756,-1.44677 0.9448,-1.47007 0.89814,-1.48558 0.85538,-1.50883 0.8126,-1.52823 0.76208,-1.54764 0.71928,-1.56315 0.66875,-1.57864 0.62209,-1.59029 0.51322,-1.43516 4.44409,-1.22571 4.29243,-1.28385 3.95415,-1.29163 3.61979,-1.29551 3.28154,-1.30716 2.94327,-1.31101 2.60889,-1.31492 2.26676,-1.32652 1.92848,-1.33432 1.5902,-1.34592 1.24809,-1.35756 0.90202,-1.37697 z m 237.592225,0 0.0428,0.10853 0.90204,1.37697 1.24807,1.35756 1.59022,1.34592 1.92848,1.33432 2.26674,1.32652 2.60891,1.31492 2.94325,1.31101 3.28154,1.30716 3.61979,1.29551 3.95417,1.29163 4.29244,1.28385 4.44406,1.22571 0.51322,1.43516 0.6221,1.59029 0.66874,1.57864 0.7193,1.56315 0.76206,1.54764 0.8126,1.52823 0.85538,1.50883 0.89814,1.48558 0.9448,1.47007 0.98758,1.44677 1.03032,1.42352 1.07313,1.40024 1.11198,1.37307 1.08867,1.27224 c 0.30062,2.229 0.61719,4.32234 0.9409,6.24095 0.48576,2.87972 1.01907,5.58015 1.57856,7.96312 0.5585,2.38305 1.14438,4.44687 1.7263,6.11295 0.58197,1.6661 1.15947,2.93201 1.73408,3.79344 0.28238,0.42332 0.60145,0.43811 0.89814,0.67102 h -52.08847 v -0.0582 -1.20632 -1.99754 -2.76171 -3.49087 -4.17357 -4.80582 -5.37983 -5.88411 -6.31464 -6.66374 -6.93136 -7.11367 z" />
  <path
     id="path1841"
     style="color:#000000;fill:#c8c8c8;fill-opacity:1;stroke:#000000;stroke-width:1.98944;stroke-miterlimit:4;stroke-dasharray:none;stroke-opacity:1"
     d="m 178.50198,0.99471998 c 41.97192,0 78.49417,23.14468902 97.65533,57.34163902 0.44853,0.79878 0.90749,1.64615 1.39842,2.57695 1.05458,2.00377 2.01775,4.060112 2.95218,6.133342 0.4266,0.9446 0.85868,1.76459 1.27412,2.7596 0.39468,0.9448 0.77686,2.15309 1.17309,3.18329 0.75152,1.96274 1.52502,3.91322 2.16754,5.92732 0.80254,2.51425 1.49377,5.29848 2.16365,8.09228 0.21106,0.8873 0.48995,1.74765 0.67976,2.643 0.65815,3.09129 1.14071,6.33618 1.54604,9.59647 0.0813,0.66306 0.22945,1.303949 0.29909,1.970569 0.41517,3.93259 0.62927,7.90927 0.62927,11.78083 0,3.87029 -0.21437,7.84561 -0.62927,11.77693 -0.0718,0.68755 -0.22655,1.34903 -0.31076,2.03281 -0.40455,3.23979 -0.88024,6.46576 -1.53437,9.53814 -0.18814,0.8873 -0.46302,1.74028 -0.67201,2.61967 -0.67255,2.80772 -1.36876,5.6017 -2.1753,8.12728 -0.57998,1.81744 -1.28885,3.57242 -1.95775,5.3482 -0.46552,1.22939 -0.91449,2.63497 -1.37898,3.74684 -0.42405,1.01565 -0.86575,1.85493 -1.30131,2.81791 -0.92715,2.05412 -1.87983,4.09308 -2.92499,6.07893 -0.49093,0.9308 -0.94989,1.77815 -1.39842,2.57693 -19.16116,34.19695 -55.68341,57.34163 -97.65533,57.34163 -41.99004,0 -78.528153,-23.16309 -97.682523,-57.38437 -0.44073,-0.78568 -0.88985,-1.61388 -1.37123,-2.5264 -1.02169,-1.941 -1.94993,-3.93667 -2.85896,-5.9429 -0.45802,-1.00885 -0.92165,-1.89431 -1.36734,-2.96173 -0.65491,-1.56769 -1.29547,-3.48492 -1.9461,-5.28212 -0.45425,-1.2619 -0.97308,-2.49161 -1.38286,-3.77405 -0.81885,-2.5611 -1.52569,-5.39642 -2.20638,-8.24776 -0.20157,-0.85112 -0.47054,-1.67563 -0.65258,-2.53416 -0.65608,-3.08101 -1.12937,-6.31619 -1.53437,-9.56537 -0.0831,-0.67599 -0.23586,-1.3298 -0.30688,-2.00948 -0.41489,-3.93132 -0.629272,-7.90664 -0.629272,-11.77693 0,-3.87284 0.213842,-7.85087 0.629272,-11.78471 0.0686,-0.65747 0.21519,-1.289369 0.29521,-1.943389 0.40579,-3.26969 0.88594,-6.52376 1.54604,-9.62367 0.18376,-0.86656 0.45669,-1.69846 0.66035,-2.55749 0.67802,-2.8374 1.37986,-5.66293 2.19471,-8.21276 0.47206,-1.47788 1.06163,-2.89882 1.59263,-4.34931 0.58394,-1.58626 1.15472,-3.32081 1.74023,-4.72243 0.43707,-1.0468 0.89107,-1.91277 1.34014,-2.90343 0.91634,-2.02531 1.85507,-4.038432 2.88616,-5.997302 0.48138,-0.91252 0.9305,-1.74072 1.37123,-2.5264 C 99.973847,24.157819 136.51194,0.99471998 178.50198,0.99471998 Z M 63.494755,52.074779 h 20.249692 c -0.12689,0.19594 -0.14021,0.21357 -0.41563,0.64908 -0.5056,0.79932 -1.25711,2.01276 -2.17529,3.59138 -0.0674,0.11584 -0.16011,0.30385 -0.2292,0.42367 -0.16786,0.29012 -0.23789,0.37822 -0.41563,0.69186 l 0.031,0.016 c -0.10282,0.18115 -0.22428,0.41751 -0.33016,0.60634 -0.46052,0.82284 -0.91148,1.6482 -1.35179,2.48363 -0.29432,0.55725 -0.53524,0.94656 -0.83906,1.54695 -0.72205,1.426972 -1.457,3.121572 -2.19083,4.749652 -0.89301,1.98469 -1.70265,4.00793 -2.48218,6.0517 -0.70578,1.84219 -1.4216,3.59068 -2.08984,5.67468 -0.014,0.0435 -0.0248,0.0963 -0.0388,0.14001 -0.84041,2.63311 -1.50377,5.33621 -2.15199,8.0495 -0.20728,0.86093 -0.47802,1.61354 -0.66813,2.4953 -0.0199,0.0901 -0.0274,0.18974 -0.0466,0.27986 -0.68701,3.24217 -1.18698,6.54943 -1.58874,9.88797 -0.0652,0.53528 -0.194912,1.036779 -0.252512,1.574149 -0.004,0.0427 -0.004,0.0853 -0.008,0.12823 -0.40947,3.90711 -0.63316,7.8702 -0.63316,11.88574 0,4.01557 0.22369,7.97477 0.63316,11.8819 0.004,0.0427 0.004,0.0853 0.008,0.12822 0.0581,0.54127 0.19053,1.04662 0.256392,1.58581 0.40148,3.33303 0.89907,6.63544 1.58486,9.8724 0.0198,0.0927 0.0266,0.19513 0.0466,0.28763 0.19491,0.90363 0.47084,1.67575 0.68367,2.55749 0.6446,2.69104 1.30274,5.37523 2.13645,7.98733 0.014,0.0435 0.0248,0.0965 0.0388,0.14001 0.66824,2.08402 1.38406,3.83251 2.08984,5.6747 0.77953,2.04377 1.58917,4.06701 2.48218,6.0517 0.73383,1.62806 1.46878,3.32268 2.19083,4.74965 0.30382,0.60039 0.54474,0.9897 0.83906,1.54695 0.43953,0.83399 0.88823,1.65829 1.34789,2.47976 0.30411,0.54234 0.67052,1.26445 0.94783,1.74128 0.91818,1.5786 1.66969,2.78819 2.17529,3.58748 0.18437,0.29153 0.29769,0.46935 0.41563,0.65298 H 63.494735 v -1.18935 -4.53198 -7.29938 -9.70138 -11.61759 -12.95073 -13.63484 -13.634809 -12.95073 -11.61759 -9.7014 -7.299362 -4.53198 z m 209.764755,0 h 20.24581 v 1.18935 4.53198 7.299362 9.7014 11.61759 12.95073 13.634819 13.63483 12.95073 11.61759 9.7014 7.29936 4.53198 1.18935 h -20.24581 c 0.12689,-0.19594 0.13961,-0.21667 0.41565,-0.65298 0.5056,-0.79929 1.25709,-2.00888 2.17529,-3.58748 0.27731,-0.47683 0.64369,-1.19894 0.9478,-1.74128 0.45967,-0.82147 0.90837,-1.64577 1.3479,-2.47976 0.29431,-0.55725 0.53524,-0.94656 0.83906,-1.54695 0.72205,-1.42697 1.457,-3.12159 2.19083,-4.74965 0.82085,-1.82431 1.57063,-3.67983 2.29573,-5.5542 0.76866,-1.97916 1.54936,-3.90509 2.27629,-6.1722 0.0179,-0.0543 0.0292,-0.12064 0.0465,-0.17496 0.84604,-2.65379 1.51673,-5.38048 2.16752,-8.11559 0.19829,-0.827 0.45852,-1.54815 0.64095,-2.39426 0.0179,-0.0813 0.0214,-0.17137 0.0388,-0.25264 0.66837,-3.14963 1.15055,-6.3634 1.54989,-9.60423 0.0801,-0.6415 0.23386,-1.24438 0.303,-1.88897 0.006,-0.0557 0.002,-0.11125 0.008,-0.16717 0.40679,-3.89449 0.63316,-7.84086 0.63316,-11.84302 0,-4.00215 -0.22637,-7.95242 -0.63316,-11.84688 -0.006,-0.0557 -0.002,-0.11145 -0.008,-0.16718 -0.0688,-0.64093 -0.22339,-1.239439 -0.303,-1.877319 -0.3998,-3.2474 -0.87999,-6.46782 -1.54989,-9.62366 -0.0159,-0.0775 -0.022,-0.16358 -0.0388,-0.241 -0.17701,-0.82131 -0.42949,-1.52094 -0.62152,-2.32427 -0.65482,-2.76026 -1.33335,-5.50806 -2.18695,-8.18558 -0.0179,-0.0543 -0.0292,-0.12063 -0.0465,-0.17496 -0.72693,-2.26709 -1.50763,-4.19302 -2.27629,-6.17218 -0.7251,-1.87436 -1.47488,-3.72989 -2.29573,-5.5542 -0.73383,-1.62806 -1.46878,-3.32268 -2.19083,-4.749652 -0.30382,-0.60039 -0.54475,-0.9897 -0.83906,-1.54695 -0.44029,-0.83543 -0.89128,-1.66079 -1.35177,-2.48363 -0.30326,-0.54073 -0.66735,-1.26183 -0.94393,-1.73741 -0.9182,-1.57862 -1.66969,-2.79206 -2.17529,-3.59138 -0.27548,-0.43551 -0.28876,-0.453 -0.41565,-0.64908 z" />
</svg>
