<?xml version="1.0" encoding="UTF-8" standalone="no"?>
<svg
   width="383.00116mm"
   height="240.64932mm"
   viewBox="0 0 383.00115 240.64932"
   version="1.1"
   id="svg2"
   sodipodi:version="0.32"
   inkscape:version="1.2.1 (9c6d41e410, 2022-07-14)"
   sodipodi:docname="thumbnail.svg"
   inkscape:output_extension="org.inkscape.output.svg.inkscape"
   xmlns:inkscape="http://www.inkscape.org/namespaces/inkscape"
   xmlns:sodipodi="http://sodipodi.sourceforge.net/DTD/sodipodi-0.dtd"
   xmlns:xlink="http://www.w3.org/1999/xlink"
   xmlns="http://www.w3.org/2000/svg"
   xmlns:svg="http://www.w3.org/2000/svg"
   xmlns:rdf="http://www.w3.org/1999/02/22-rdf-syntax-ns#"
   xmlns:cc="http://creativecommons.org/ns#"
   xmlns:dc="http://purl.org/dc/elements/1.1/">
  <!-- Working space 10 10 410 287 -->
  <!-- Title block 220 227 410 287 -->
  <metadata
     id="metadata849">
    <rdf:RDF>
      <cc:Work
         rdf:about="">
        <dc:format>image/svg+xml</dc:format>
        <dc:type
           rdf:resource="http://purl.org/dc/dcmitype/StillImage" />
      </cc:Work>
    </rdf:RDF>
  </metadata>
  <defs
     id="defs847">
    <linearGradient
       x1="649.42902"
       y1="807.466"
       x2="655.35199"
       y2="485.909"
       id="defitem29"
       gradientUnits="userSpaceOnUse">
      <stop
         style="stop-color:#ffffff;stop-opacity:1.0000000;"
         offset="0.0000000"
         id="stop92" />
      <stop
         style="stop-color:#ffffff;stop-opacity:0.13756600;"
         offset="1.0000000"
         id="stop93" />
    </linearGradient>
    <linearGradient
       y2="485.909"
       x2="655.35199"
       y1="807.466"
       x1="649.42902"
       gradientUnits="userSpaceOnUse"
       id="linearGradient3448"
       xlink:href="#defitem29"
       inkscape:collect="always" />
    <radialGradient
       cx="1049.72"
       cy="345.56"
       r="1202.15"
       fx="1049.72"
       fy="345.56"
       id="defitem28"
       gradientUnits="userSpaceOnUse">
      <stop
         style="stop-color:#ffffff;stop-opacity:1.0000000;"
         offset="0.0000000"
         id="stop89" />
      <stop
         style="stop-color:#a8a8a8;stop-opacity:1.0000000;"
         offset="1.0000000"
         id="stop90" />
    </radialGradient>
    <radialGradient
       r="1202.15"
       fy="64.844765"
       fx="1089.4004"
       cy="64.845284"
       cx="1092.7045"
       gradientUnits="userSpaceOnUse"
       id="radialGradient3446"
       xlink:href="#defitem28"
       inkscape:collect="always" />
    <linearGradient
       x1="287.5"
       y1="636.70697"
       x2="980"
       y2="636.70697"
       id="defitem30"
       gradientUnits="userSpaceOnUse">
      <stop
         style="stop-color:#464646;stop-opacity:1.0000000;"
         offset="0.0000000"
         id="stop95" />
      <stop
         style="stop-color:#c2c2c2;stop-opacity:1.0000000;"
         offset="1.0000000"
         id="stop96" />
    </linearGradient>
    <linearGradient
       y2="636.70697"
       x2="980"
       y1="636.70697"
       x1="287.5"
       gradientTransform="matrix(1,0,0,1.016038,0,-11.73855)"
       gradientUnits="userSpaceOnUse"
       id="linearGradient3444"
       xlink:href="#defitem30"
       inkscape:collect="always" />
    <linearGradient
       x1="921.091"
       y1="403.18799"
       x2="985.98199"
       y2="317.44699"
       id="defitem27"
       gradientUnits="userSpaceOnUse">
      <stop
         style="stop-color:#7e7e7e;stop-opacity:1.0000000;"
         offset="0.0000000"
         id="stop86" />
      <stop
         style="stop-color:#e5e5e5;stop-opacity:1.0000000;"
         offset="1.0000000"
         id="stop87" />
    </linearGradient>
    <linearGradient
       y2="317.44699"
       x2="985.98199"
       y1="403.18799"
       x1="921.091"
       gradientUnits="userSpaceOnUse"
       id="linearGradient3442"
       xlink:href="#defitem27"
       inkscape:collect="always" />
    <linearGradient
       x1="530.76099"
       y1="346.30399"
       x2="293.37"
       y2="360.27499"
       id="defitem26"
       gradientUnits="userSpaceOnUse">
      <stop
         style="stop-color:#5f5f5f;stop-opacity:1.0000000;"
         offset="0.0000000"
         id="stop83" />
      <stop
         style="stop-color:#e5e5e5;stop-opacity:1.0000000;"
         offset="1.0000000"
         id="stop84" />
    </linearGradient>
    <linearGradient
       y2="360.27499"
       x2="293.37"
       y1="346.30399"
       x1="530.76099"
       gradientUnits="userSpaceOnUse"
       id="linearGradient3440"
       xlink:href="#defitem26"
       inkscape:collect="always" />
    <linearGradient
       x1="164.013"
       y1="412.91901"
       x2="308.75"
       y2="337.60999"
       id="defitem25"
       gradientUnits="userSpaceOnUse">
      <stop
         style="stop-color:#ffffff;stop-opacity:1.0000000;"
         offset="0.0000000"
         id="stop80" />
      <stop
         style="stop-color:#bfbfbf;stop-opacity:1.0000000;"
         offset="1.0000000"
         id="stop81" />
    </linearGradient>
    <linearGradient
       y2="337.60999"
       x2="308.75"
       y1="412.91901"
       x1="164.013"
       gradientUnits="userSpaceOnUse"
       id="linearGradient3438"
       xlink:href="#defitem25"
       inkscape:collect="always" />
    <linearGradient
       x1="1094.25"
       y1="270.854"
       x2="992.48901"
       y2="380.47198"
       id="defitem24"
       gradientUnits="userSpaceOnUse">
      <stop
         style="stop-color:#6a6a6a;stop-opacity:1.0000000;"
         offset="0.0000000"
         id="stop77" />
      <stop
         style="stop-color:#e6e6e6;stop-opacity:1.0000000;"
         offset="1.0000000"
         id="stop78" />
    </linearGradient>
    <linearGradient
       y2="380.47198"
       x2="992.48901"
       y1="270.854"
       x1="1094.25"
       gradientUnits="userSpaceOnUse"
       id="linearGradient3436"
       xlink:href="#defitem24"
       inkscape:collect="always" />
    <linearGradient
       x1="1170.91"
       y1="476.465"
       x2="1049.84"
       y2="549.37799"
       id="defitem23"
       gradientUnits="userSpaceOnUse">
      <stop
         style="stop-color:#5f5f5f;stop-opacity:1.0000000;"
         offset="0.0000000"
         id="stop74" />
      <stop
         style="stop-color:#ebebeb;stop-opacity:1.0000000;"
         offset="1.0000000"
         id="stop75" />
    </linearGradient>
    <linearGradient
       y2="549.37799"
       x2="1049.84"
       y1="476.465"
       x1="1170.91"
       gradientUnits="userSpaceOnUse"
       id="linearGradient3434"
       xlink:href="#defitem23"
       inkscape:collect="always" />
    <linearGradient
       x1="783.716"
       y1="105.486"
       x2="576.14899"
       y2="313.276"
       id="defitem22"
       gradientUnits="userSpaceOnUse">
      <stop
         style="stop-color:#5a5a5a;stop-opacity:1.0000000;"
         offset="0.0000000"
         id="stop71" />
      <stop
         style="stop-color:#c7c7c7;stop-opacity:1.0000000;"
         offset="1.0000000"
         id="stop72" />
    </linearGradient>
    <linearGradient
       y2="313.276"
       x2="576.14899"
       y1="105.486"
       x1="783.716"
       gradientUnits="userSpaceOnUse"
       id="linearGradient3432"
       xlink:href="#defitem22"
       inkscape:collect="always" />
    <linearGradient
       x1="280.04401"
       y1="418.698"
       x2="128.05499"
       y2="484.716"
       id="defitem21"
       gradientUnits="userSpaceOnUse">
      <stop
         style="stop-color:#666666;stop-opacity:1.0000000;"
         offset="0.0000000"
         id="stop68" />
      <stop
         style="stop-color:#d8d8d8;stop-opacity:1.0000000;"
         offset="1.0000000"
         id="stop69" />
    </linearGradient>
    <linearGradient
       y2="484.716"
       x2="128.05499"
       y1="418.698"
       x1="280.04401"
       gradientUnits="userSpaceOnUse"
       id="linearGradient3430"
       xlink:href="#defitem21"
       inkscape:collect="always" />
    <linearGradient
       x1="129.687"
       y1="636.95398"
       x2="220"
       y2="584.40997"
       id="defitem20"
       gradientUnits="userSpaceOnUse">
      <stop
         style="stop-color:#ffffff;stop-opacity:1.0000000;"
         offset="0.0000000"
         id="stop65" />
      <stop
         style="stop-color:#bbbbbb;stop-opacity:1.0000000;"
         offset="1.0000000"
         id="stop66" />
    </linearGradient>
    <linearGradient
       y2="584.40997"
       x2="220"
       y1="636.95398"
       x1="129.687"
       gradientUnits="userSpaceOnUse"
       id="linearGradient3428"
       xlink:href="#defitem20"
       inkscape:collect="always" />
    <linearGradient
       x1="1048.72"
       y1="629.02802"
       x2="1127.98"
       y2="583.75299"
       id="defitem19"
       gradientUnits="userSpaceOnUse">
      <stop
         style="stop-color:#5e5e5e;stop-opacity:1.0000000;"
         offset="0.0000000"
         id="stop62" />
      <stop
         style="stop-color:#ededed;stop-opacity:1.0000000;"
         offset="1.0000000"
         id="stop63" />
    </linearGradient>
    <linearGradient
       y2="583.75299"
       x2="1127.98"
       y1="629.02802"
       x1="1048.72"
       gradientUnits="userSpaceOnUse"
       id="linearGradient3426"
       xlink:href="#defitem19"
       inkscape:collect="always" />
    <linearGradient
       x1="370.022"
       y1="387.27301"
       x2="581.32397"
       y2="291.97699"
       id="defitem18"
       gradientUnits="userSpaceOnUse">
      <stop
         style="stop-color:#636363;stop-opacity:1.0000000;"
         offset="0.0000000"
         id="stop59" />
      <stop
         style="stop-color:#d6d6d6;stop-opacity:1.0000000;"
         offset="1.0000000"
         id="stop60" />
    </linearGradient>
    <linearGradient
       y2="291.97699"
       x2="581.32397"
       y1="387.27301"
       x1="370.022"
       gradientUnits="userSpaceOnUse"
       id="linearGradient3424"
       xlink:href="#defitem18"
       inkscape:collect="always" />
    <linearGradient
       x1="732.15601"
       y1="351.939"
       x2="909.59399"
       y2="351.939"
       id="defitem17"
       gradientUnits="userSpaceOnUse">
      <stop
         style="stop-color:#676767;stop-opacity:1.0000000;"
         offset="0.0000000"
         id="stop56" />
      <stop
         style="stop-color:#d3d3d3;stop-opacity:1.0000000;"
         offset="1.0000000"
         id="stop57" />
    </linearGradient>
    <linearGradient
       y2="351.939"
       x2="909.59399"
       y1="351.939"
       x1="732.15601"
       gradientUnits="userSpaceOnUse"
       id="linearGradient3422"
       xlink:href="#defitem17"
       inkscape:collect="always" />
    <linearGradient
       x1="1014.43"
       y1="494.71301"
       x2="1073.01"
       y2="494.71301"
       id="defitem16"
       gradientUnits="userSpaceOnUse">
      <stop
         style="stop-color:#666666;stop-opacity:1.0000000;"
         offset="0.0000000"
         id="stop53" />
      <stop
         style="stop-color:#dcdcdc;stop-opacity:1.0000000;"
         offset="1.0000000"
         id="stop54" />
    </linearGradient>
    <linearGradient
       y2="494.71301"
       x2="1073.01"
       y1="494.71301"
       x1="1014.43"
       gradientUnits="userSpaceOnUse"
       id="linearGradient3420"
       xlink:href="#defitem16"
       inkscape:collect="always" />
    <linearGradient
       x1="272.59201"
       y1="452.388"
       x2="193.27699"
       y2="516.37"
       id="defitem15"
       gradientUnits="userSpaceOnUse">
      <stop
         style="stop-color:#6e6e6e;stop-opacity:1.0000000;"
         offset="0.0000000"
         id="stop50" />
      <stop
         style="stop-color:#d8d8d8;stop-opacity:1.0000000;"
         offset="1.0000000"
         id="stop51" />
    </linearGradient>
    <linearGradient
       y2="516.37"
       x2="193.27699"
       y1="452.388"
       x1="272.59201"
       gradientUnits="userSpaceOnUse"
       id="linearGradient3418"
       xlink:href="#defitem15"
       inkscape:collect="always" />
    <radialGradient
       cx="1037.22"
       cy="211.088"
       r="1164.28"
       fx="1037.22"
       fy="211.088"
       id="defitem14"
       gradientUnits="userSpaceOnUse">
      <stop
         style="stop-color:#ffffff;stop-opacity:1.0000000;"
         offset="0.0000000"
         id="stop47" />
      <stop
         style="stop-color:#aaaaaa;stop-opacity:1.0000000;"
         offset="1.0000000"
         id="stop48" />
    </radialGradient>
    <radialGradient
       r="1164.28"
       fy="211.088"
       fx="1037.22"
       cy="211.088"
       cx="1037.22"
       gradientUnits="userSpaceOnUse"
       id="radialGradient3416"
       xlink:href="#defitem14"
       inkscape:collect="always" />
    <linearGradient
       x1="342.64999"
       y1="732.12903"
       x2="379.241"
       y2="686.83002"
       id="defitem13"
       gradientUnits="userSpaceOnUse">
      <stop
         style="stop-color:#ffffff;stop-opacity:1.0000000;"
         offset="0.0000000"
         id="stop44" />
      <stop
         style="stop-color:#989898;stop-opacity:1.0000000;"
         offset="1.0000000"
         id="stop45" />
    </linearGradient>
    <linearGradient
       y2="686.83002"
       x2="379.241"
       y1="732.12903"
       x1="342.64999"
       gradientUnits="userSpaceOnUse"
       id="linearGradient3414"
       xlink:href="#defitem13"
       inkscape:collect="always" />
    <radialGradient
       cx="632.78101"
       cy="484.409"
       r="540.27899"
       fx="632.78101"
       fy="484.409"
       id="defitem12"
       gradientUnits="userSpaceOnUse">
      <stop
         style="stop-color:#ffffff;stop-opacity:1.0000000;"
         offset="0.0000000"
         id="stop41" />
      <stop
         style="stop-color:#ededed;stop-opacity:1.0000000;"
         offset="1.0000000"
         id="stop42" />
    </radialGradient>
    <radialGradient
       r="540.27899"
       fy="484.409"
       fx="632.78101"
       cy="484.409"
       cx="632.78101"
       gradientUnits="userSpaceOnUse"
       id="radialGradient3412"
       xlink:href="#defitem12"
       inkscape:collect="always" />
    <inkscape:perspective
       id="perspective3148"
       inkscape:persp3d-origin="31.999999 : -35.017345 : 1"
       inkscape:vp_z="63.999998 : -24.350676 : 1"
       inkscape:vp_y="0 : 1000 : 0"
       inkscape:vp_x="0 : -24.350676 : 1"
       sodipodi:type="inkscape:persp3d" />
    <linearGradient
       id="linearGradient3682">
      <stop
         id="stop3684"
         offset="0"
         style="stop-color:#ff6d0f;stop-opacity:1;" />
      <stop
         id="stop3686"
         offset="1"
         style="stop-color:#ff1000;stop-opacity:1;" />
    </linearGradient>
    <linearGradient
       id="linearGradient3864">
      <stop
         style="stop-color:#71b2f8;stop-opacity:1;"
         offset="0"
         id="stop3866" />
      <stop
         style="stop-color:#002795;stop-opacity:1;"
         offset="1"
         id="stop3868" />
    </linearGradient>
  </defs>
  <sodipodi:namedview
     inkscape:window-height="1013"
     inkscape:window-width="1920"
     inkscape:pageshadow="2"
     inkscape:pageopacity="0.0"
     guidetolerance="10.0"
     gridtolerance="10.0"
     objecttolerance="10.0"
     borderopacity="1.0"
     bordercolor="#666666"
     pagecolor="#ffffff"
     id="base"
     inkscape:window-x="-9"
     inkscape:window-y="135"
     inkscape:current-layer="svg2"
     inkscape:document-units="mm"
     showgrid="false"
     inkscape:window-maximized="1"
     inkscape:pagecheckerboard="0"
     inkscape:zoom="0.3535534"
     inkscape:cx="-394.56557"
     inkscape:cy="278.60006"
     inkscape:showpageshadow="2"
     inkscape:deskcolor="#d1d1d1" />
  <path
     id="path4936"
     style="color:#000000;fill:#c8c8c8;fill-opacity:1;stroke:#000000;stroke-width:1.12887;stroke-miterlimit:4;stroke-dasharray:none;stroke-opacity:1"
     d="m 83.811324,3.3913343 -5.200176,4.445996 v 0.058628 H 51.792784 c -5.82109,-6.41e-5 -11.255446,2.5325037 -14.566895,6.7535787 -1.899039,2.476962 -3.738136,4.990756 -5.507662,7.543026 -0.01361,0.01922 -0.02768,0.03941 -0.042,0.05862 l -0.634744,0.927667 -0.853312,1.274864 -0.849615,1.278186 -0.836021,1.287039 -0.826153,1.291449 -0.816272,1.295869 -0.80268,1.303602 -0.79404,1.308033 -0.779232,1.312455 -0.77058,1.320208 -0.755757,1.324617 -0.747108,1.32904 -0.732309,1.333471 -0.723646,1.341213 -0.042,-0.01708 -0.238344,0.454468 -0.722417,1.413062 -0.710066,1.416383 -0.700184,1.425236 -0.685377,1.425247 -0.673024,1.432978 -0.661904,1.434078 -0.649552,1.441821 -0.634743,1.445142 -0.624863,1.450683 -0.616222,1.453974 -0.597691,1.458426 -0.587808,1.462827 -0.579171,1.467247 h -0.0048 l -1.259594,3.342509 -1.4942374,4.313324 -1.3806208,4.345367 -1.2657749,4.376327 -1.1435184,4.396242 -1.0262024,4.424979 -0.9101154,4.445996 -0.7841716,4.463692 -0.6668435,4.475833 -0.5470574,4.492423 -0.4248128,4.5046 -0.30254447,4.50904 -0.18277011,4.51344 -0.0653944,4.37521 h 0.004774 l 0.0605017,4.52672 0.18277012,4.52117 0.30748486,4.51344 0.4297412,4.50901 0.5507685,4.49685 0.6680847,4.48359 0.7927994,4.46811 0.9150677,4.45041 1.0311428,4.42941 1.1533991,4.40508 1.2694862,4.37966 1.3904896,4.3498 1.5078167,4.31661 1.544859,4.07891 0.0048,-0.004 0.540888,1.36665 0.555696,1.3622 0.56929,1.35448 0.579169,1.35448 0.587821,1.34894 0.60139,1.34562 0.612511,1.34231 0.624862,1.33678 0.639684,1.33348 0.643383,1.32461 0.658192,1.32463 0.673025,1.32019 0.680435,1.31246 0.579171,1.09905 h 0.0048 l 0.708837,1.31689 0.718719,1.30803 0.733526,1.30362 0.742178,1.2992 0.750819,1.29144 0.765639,1.28702 0.774291,1.2826 0.789099,1.2793 0.798982,1.27044 0.806391,1.266 0.822441,1.26272 0.829852,1.25275 0.840974,1.25054 0.718719,1.04818 c 0.0048,0.006 0.0036,0.0128 0.0084,0.0171 1.704801,2.46791 3.476177,4.89797 5.3076,7.29204 3.29466,4.35044 8.729911,6.94936 14.538506,6.9493 v 0.009 h 27.070276 0.0568 v 0.0499 l 4.988995,4.45151 H 299.33934 l 4.96187,-4.46811 v -0.0332 h 0.037 27.08885 c 5.76477,8e-5 11.15993,-2.5434 14.42238,-6.7989 1.87076,-2.45069 3.68758,-4.93811 5.42866,-7.46455 l 0.008,0.004 0.75695,-1.10679 0.83973,-1.24613 0.82618,-1.24942 0.81626,-1.25718 0.8076,-1.26271 0.79406,-1.26601 0.78415,-1.27486 0.76934,-1.27819 0.76075,-1.28701 0.75201,-1.28704 0.74218,-1.29588 0.72736,-1.29918 0.71502,-1.30473 0.64341,-1.18639 0.0654,-0.12495 0.62115,-1.17867 0.68164,-1.30803 0.66685,-1.31689 0.65327,-1.31578 0.64466,-1.3213 0.62974,-1.3246 0.62122,-1.33239 0.61126,-1.33344 0.59769,-1.34121 0.58783,-1.34231 0.57423,-1.34564 0.5643,-1.35335 0.55575,-1.35449 0.54085,-1.35778 0.0101,0.004 1.53995,-4.07006 1.50785,-4.32103 1.38556,-4.35091 1.26946,-4.37965 1.15339,-4.40398 1.0361,-4.4305 0.91009,-4.45043 0.79407,-4.46698 0.67178,-4.4847 0.54585,-4.49686 0.42975,-4.509 0.30747,-4.51678 0.18272,-4.52226 0.0556,-4.27904 -0.0556,-4.29562 -0.18272,-4.54328 -0.30255,-4.53336 -0.42482,-4.53003 -0.54703,-4.517853 -0.66685,-4.501281 -0.78421,-4.487997 -0.9101,-4.471434 -1.02742,-4.445996 -1.14354,-4.42609 -1.26453,-4.400663 -1.38062,-4.370805 -1.49918,-4.33764 -1.61032,-4.308867 h 0.004 l -0.43836,-1.107908 -0.5557,-1.36554 -0.56435,-1.358897 -0.57916,-1.357799 -0.59276,-1.354454 -0.59768,-1.345624 -0.61502,-1.345646 -0.62114,-1.33677 -0.63966,-1.337893 -0.64467,-1.329049 -0.65692,-1.327929 -0.67306,-1.321307 -0.68166,-1.315776 -0.55942,-1.065886 -0.004,0.0043 -0.71377,-1.321298 -0.71871,-1.311365 -0.72862,-1.308034 -0.74216,-1.304712 -0.75575,-1.294759 -0.76068,-1.291449 -0.77556,-1.287039 -0.78786,-1.282596 -0.79894,-1.274864 -0.80638,-1.270454 -0.81753,-1.266011 -0.83112,-1.258281 -0.83972,-1.253858 -0.73723,-1.078039 -0.0147,0.0085 c -1.73774,-2.529791 -3.54686,-5.018243 -5.41382,-7.472266 -3.32643,-4.356304 -8.81068,-6.9626531 -14.67928,-6.9625676 v -0.00855 H 304.38813 V 7.8148083 L 299.35722,3.3887179 Z M 27.917203,58.658308 h 18.763089 v 0.0043 h 6.090531 V 181.9927 h -5.227337 -0.0095 -0.802693 -18.889056 l -4.107292,-7.92672 -3.696059,-8.59676 -3.047736,-8.78804 -2.384591,-8.93511 -1.709109,-9.05121 -1.026202,-9.13081 -0.345767,-9.16508 0.345767,-9.16841 1.026202,-9.1275 1.709109,-9.051207 2.384591,-8.939525 3.047736,-8.783632 3.696059,-8.596759 z m 302.317537,0 h 5.24214 0.0136 0.89156 18.73965 l 4.22831,8.199813 3.67386,8.579085 3.0292,8.771458 2.37101,8.918518 1.69923,9.034618 1.02124,9.10981 0.34086,9.15293 -0.34086,9.1474 -1.02124,9.1098 -1.69923,9.03573 -2.37101,8.92184 -3.0292,8.76703 -3.67386,8.58017 -4.12581,8.00633 h -18.57539 -1.17685 -0.008 -5.22735 z" />
  <path
     id="path7386"
     style="color:#000000;fill:#c8c8c8;fill-opacity:1;stroke:#000000;stroke-width:1.21639;stroke-miterlimit:4;stroke-dasharray:none;stroke-opacity:1"
     d="m 16.267193,52.052672 h 1.368661 5.478991 c 0.568416,1.605381 1.147345,3.980064 1.722836,7.293339 0.297406,1.718449 0.591005,3.664487 0.874525,5.793151 0.283477,2.126437 0.554085,4.44433 0.813319,6.950759 V 168.5645 c -0.520723,5.01644 -1.081079,9.24183 -1.679117,12.6764 -0.297429,1.71801 -0.602826,3.24203 -0.905131,4.52138 -0.275194,1.16354 -0.545712,2.06888 -0.813317,2.83427 h -5.492106 -1.368661 z m 7.652209,0 h 42.935472 v 1.463865 2.522815 3.099046 3.649267 4.168364 4.640727 5.081993 5.476473 5.813912 6.104632 6.343384 6.51987 6.6393 1.81683 l -0.690901,-1.91546 -1.12378,-2.23732 -1.438611,-2.21655 -1.744711,-2.201 -2.050789,-2.175 -2.356888,-2.15944 -2.654206,-2.13871 -2.955952,-2.117936 -3.248905,-2.091969 -3.546244,-2.065999 -3.834855,-2.040071 -3.974773,-1.946622 -0.489739,-1.271799 -0.585948,-1.42753 -0.612179,-1.417134 -0.638419,-1.391189 -0.664636,-1.380799 -0.686513,-1.360053 -0.712753,-1.339249 -0.73462,-1.31853 -0.756472,-1.297744 -0.787087,-1.276984 -0.804557,-1.256211 -0.830828,-1.235477 -0.848286,-1.204298 -0.79584,-1.079723 c -0.255205,-2.455153 -0.520945,-4.741811 -0.80019,-6.83655 -0.28514,-2.140489 -0.578583,-4.09931 -0.878913,-5.834658 -0.552388,-3.180312 -1.11319,-5.404504 -1.687877,-7.106473 z m 43.718185,0 h 5.653894 V 188.59655 h -5.653894 v -1.45867 -2.52279 -3.09905 -3.65445 -4.1632 -4.64592 -5.08198 -5.47132 -5.81392 -6.10977 -6.33822 -6.51987 -6.63929 -6.66005 -0.0415 -0.0986 -0.0415 -6.66005 -6.6393 -6.51987 -6.343385 -6.104632 -5.813911 -5.476475 -5.081991 -4.640727 -4.168364 -3.649269 -3.099047 -2.522813 z m 6.436606,0 h 22.300701 23.472586 20.82713 101.65194 20.82276 23.47696 22.30073 V 188.59655 H 286.62627 263.14931 242.32655 140.67461 119.84748 96.374894 74.074193 Z m 235.635527,0 h 5.65387 v 1.463865 2.522815 3.099046 3.649267 4.168364 4.640727 5.081993 5.476473 5.813912 6.104632 6.343384 6.51987 6.6393 6.66005 0.0415 0.0987 0.0415 6.66005 6.6393 6.51987 6.33822 6.10977 5.81392 5.47131 5.08199 4.64592 4.16319 3.65445 3.09904 2.5228 1.45868 h -5.65387 z m 6.43659,0 h 42.93544 c -0.57469,1.701969 -1.13548,3.926161 -1.68787,7.106473 -0.30032,1.735348 -0.59817,3.694169 -0.88327,5.834658 -0.27925,2.094739 -0.54063,4.381397 -0.79583,6.83655 l -0.79583,1.079723 -0.85266,1.204298 -0.82648,1.235477 -0.8089,1.256211 -0.78272,1.276984 -0.76085,1.297744 -0.73462,1.31853 -0.71275,1.339249 -0.68651,1.360053 -0.66027,1.380799 -0.63842,1.391189 -0.61218,1.417134 -0.58596,1.42753 -0.48973,1.271799 -3.97914,1.946622 -3.83485,2.040071 -3.54188,2.065999 -3.25329,2.091969 -2.95156,2.117936 -2.6586,2.13871 -2.35251,2.15944 -2.05078,2.175 -1.74908,2.201 -1.43425,2.21655 -1.12813,2.23732 -0.68652,1.91028 v -1.81165 -6.6393 -6.51987 -6.343384 -6.104632 -5.813912 -5.476473 -5.081993 -4.640727 -4.168364 -3.649267 -3.099046 -2.522815 z m 43.74,0 h 5.47899 1.36867 V 188.59655 h -1.36867 -5.49207 c -0.26765,-0.76542 -0.5425,-1.67068 -0.81771,-2.83427 -0.30231,-1.27935 -0.60771,-2.80337 -0.90515,-4.52138 -0.59657,-3.42612 -1.15508,-7.64504 -1.67474,-12.64525 v -96.542092 -0.02122 c 0.25731,-2.482884 0.52778,-4.784551 0.80896,-6.893636 0.28353,-2.128663 0.58149,-4.074702 0.87888,-5.79315 0.57551,-3.313276 1.15442,-5.687958 1.72284,-7.293339 z m -4.19339,21.215576 v 94.117902 l -0.17932,-0.24399 -0.83957,-1.19393 -0.81768,-1.21989 -0.79583,-1.23546 -0.77398,-1.26139 -0.74771,-1.28219 -0.72588,-1.30295 -0.70399,-1.32368 -0.67779,-1.33929 -0.6559,-1.36005 -0.62967,-1.3808 -0.60342,-1.39119 -0.5772,-1.41194 -0.51598,-1.32891 V 90.543849 l 0.51598,-1.328897 0.5772,-1.411951 0.60342,-1.396376 0.62967,-1.375588 0.6559,-1.360049 0.67779,-1.344461 0.70399,-1.323715 0.72588,-1.297745 0.74771,-1.282179 0.77398,-1.261408 0.79583,-1.24066 0.81768,-1.21469 0.83957,-1.193931 z m -328.384684,0.0053 0.174854,0.238662 0.839558,1.19393 0.822068,1.214693 0.795815,1.240659 0.769588,1.261406 0.752109,1.282181 0.725868,1.297745 0.704003,1.323713 0.677775,1.344461 0.651519,1.36005 0.629671,1.375588 0.60345,1.396375 0.581551,1.411951 0.515979,1.339291 v 59.545887 l -0.515979,1.33925 -0.581551,1.41196 -0.60345,1.39118 -0.629671,1.38079 -0.651519,1.36007 -0.677775,1.33929 -0.704003,1.32368 -0.725868,1.30295 -0.752109,1.28219 -0.769588,1.26139 -0.795815,1.23546 -0.822068,1.21988 -0.839558,1.19394 -0.174854,0.23867 z m 10.026587,17.872593 3.568121,1.738955 3.808613,2.029704 3.515628,2.055619 3.222699,2.07121 2.920939,2.091971 2.61926,2.10754 2.313146,2.12312 2.007048,2.12831 1.696628,2.13349 1.38614,2.13869 1.0713,2.13349 0.769588,2.13351 0.459134,2.12313 0.161873,2.16464 v 0.0159 l -0.161873,2.15947 -0.459134,2.12829 -0.769588,2.1283 -1.0713,2.13871 -1.38614,2.13349 -1.696628,2.13868 -2.007048,2.12831 -2.313146,2.12313 -2.61926,2.10753 -2.920939,2.09198 -3.222699,2.07121 -3.515628,2.05043 -3.808613,2.02968 -3.568121,1.73899 z m 308.327147,0 v 58.357129 l -3.56376,-1.73898 -3.8086,-2.02969 -3.52003,-2.05043 -3.22268,-2.07121 -2.92094,-2.09197 -2.61924,-2.10754 -2.31315,-2.12313 -2.00269,-2.12829 -1.6966,-2.1387 -1.38616,-2.13348 -1.07567,-2.1387 -0.76523,-2.12831 -0.46351,-2.1283 -0.15738,-2.15946 v -0.0159 l 0.15738,-2.16465 0.46351,-2.12312 0.76523,-2.13352 1.07567,-2.13348 1.38616,-2.13868 1.6966,-2.13349 2.00269,-2.12832 2.31315,-2.12313 2.61924,-2.10753 2.92094,-2.091971 3.22268,-2.071211 3.52003,-2.05562 3.8086,-2.029703 z M 66.854874,125.25615 v 1.82205 6.63929 6.51987 6.33822 6.10977 5.81392 5.47131 5.08199 4.6459 4.16322 3.65446 3.09902 2.52281 1.45866 H 23.954402 c 0.249045,-0.75401 0.496861,-1.54297 0.743349,-2.58509 0.30889,-1.30724 0.617939,-2.84893 0.918255,-4.58366 0.597066,-3.42902 1.148718,-7.64273 1.665991,-12.59854 l 0.800225,-1.08492 0.848286,-1.2095 0.830828,-1.23026 0.804557,-1.25623 0.787087,-1.27697 0.756472,-1.29777 0.73462,-1.3237 0.712753,-1.33927 0.686513,-1.36006 0.664636,-1.3756 0.638419,-1.39637 0.612179,-1.41196 0.585948,-1.4327 0.489739,-1.27178 3.974773,-1.94145 3.834855,-2.04006 3.546244,-2.0712 3.248905,-2.09197 2.955952,-2.11274 2.654206,-2.13869 2.356888,-2.15946 2.050789,-2.18021 1.744711,-2.19579 1.438611,-2.21655 1.12378,-2.23732 z m 249.291436,0.005 0.68652,1.91548 1.12813,2.23732 1.43425,2.21656 1.74908,2.1958 2.05078,2.1802 2.35251,2.15944 2.6586,2.13871 2.95156,2.11274 3.25329,2.09196 3.54188,2.0712 3.83485,2.04006 3.97914,1.94145 0.48973,1.27179 0.58596,1.4327 0.61218,1.41195 0.63842,1.39637 0.66027,1.37561 0.68651,1.36005 0.71275,1.33928 0.73462,1.32369 0.76085,1.29777 0.78272,1.27697 0.8089,1.25623 0.82648,1.23027 0.85266,1.2095 0.80022,1.08492 c 0.51726,4.9558 1.06891,9.16952 1.66597,12.59854 0.30036,1.73474 0.60937,3.27642 0.91828,4.58365 0.24647,1.04212 0.49429,1.83107 0.74335,2.58509 h -42.90046 v -1.45866 -2.5228 -3.09904 -3.65446 -4.16319 -4.64591 -5.08199 -5.47132 -5.8139 -6.10979 -6.33823 -6.51987 -6.63929 z" />
  <path
     id="path9109"
     style="color:#000000;fill:#c8c8c8;fill-opacity:1;stroke:#000000;stroke-width:1.10389;stroke-miterlimit:4;stroke-dasharray:none;stroke-opacity:1"
     d="m 191.49839,0.55200015 c 66.12494,8.79e-6 119.72548,53.60291185 119.74438,119.74024985 0,0.0246 0,0.0488 0,0.0735 -0.001,4.0613 -0.21392,8.07435 -0.60986,12.03156 -0.22201,2.20252 -0.62125,4.25226 -0.95156,6.35975 -1.41099,9.11593 -3.78406,17.89909 -7.128,26.21331 -0.50555,1.25373 -1.00237,2.47207 -1.49654,3.59088 -1.21913,2.76624 -2.50542,5.49475 -3.92298,8.14652 -0.29001,0.54146 -0.53317,0.98666 -0.76559,1.40603 -20.39106,36.94352 -59.69259,61.98354 -104.86985,61.98357 -66.12346,0 -119.71878,-53.59626 -119.740019,-119.73162 0,-0.0133 0,-0.0259 0,-0.039 0,-4.06305 0.215038,-8.0769 0.609859,-12.0359 0.209498,-2.08638 0.588023,-4.02566 0.895337,-6.02657 2.06604,-13.628432 6.314186,-26.531873 12.564832,-38.244907 0.313164,-0.58576 0.580693,-1.080349 0.826112,-1.52288 C 107.05181,25.574589 146.33718,0.5519427 191.49839,0.55194497 Z m 0,9.73860285 c -60.75024,0 -110.003876,49.270518 -110.003876,110.036257 0,60.76574 49.253636,110.03194 110.003876,110.03194 60.75029,0 110.00826,-49.2662 110.00826,-110.03194 0,-60.765739 -49.25797,-110.036257 -110.00826,-110.036257 z m 0,0.774416 c 60.3314,0 109.23405,48.915087 109.23405,109.261841 0,60.34676 -48.90265,109.2575 -109.23405,109.2575 -60.33137,0 -109.229659,-48.91074 -109.229659,-109.2575 0,-60.346754 48.898289,-109.261839 109.229659,-109.261841 z M 71.637262,60.493527 h 15.337334 c -0.120248,0.209762 -0.257285,0.408188 -0.376318,0.618645 l -0.0563,-0.03036 c -0.14461,0.256159 -0.42829,0.797674 -0.614174,1.133501 -0.246655,0.447322 -0.489854,0.894742 -0.730978,1.345496 -0.202178,0.377246 -0.312558,0.5576 -0.540656,0.995062 l 0.04758,0.02594 C 79.451772,74.626539 75.548075,85.479184 73.293754,96.938553 l -0.02219,-0.0045 c -0.332614,1.678618 -0.508079,3.487967 -0.774217,5.221907 -0.28421,1.87481 -0.663939,3.71783 -0.860741,5.61992 v -0.81767 -6.49385 -6.242921 -5.91845 -5.507427 -5.040213 -4.503708 -3.911016 -3.270723 -2.582818 -1.873301 z m 224.484438,0 h 15.23784 v 1.120519 1.873302 2.582818 3.270734 3.911005 4.503708 5.040213 5.507425 5.918451 6.242918 6.49385 0.81767 C 309.61897,90.952625 304.36476,75.197257 296.42881,61.151118 l 0.0517,-0.03036 c -0.19953,-0.352871 -0.24566,-0.42893 -0.359,-0.627312 z M 64.55253,95.835411 h 6.310515 v 4.629209 6.49385 6.66256 6.74477 6.74911 6.66257 6.49382 4.62918 H 64.55253 v -0.23793 -0.77443 -1.06861 -1.35412 -1.61371 -1.86467 -2.08096 -2.28 -2.44438 -2.58283 -2.68666 -2.75588 -2.7905 -2.79047 -2.75157 -2.68665 -2.58285 -2.44437 -2.28 -2.08531 -1.86031 -1.618061 -1.349811 -1.068616 -0.774404 z m 247.58557,0 h 6.31053 v 0.237967 0.774404 1.068616 1.349811 1.618061 1.86031 2.08531 2.27999 2.44437 2.58286 2.68664 2.75157 2.79047 2.79051 2.75588 2.68665 2.58283 2.44438 2.28 2.08096 1.86467 1.61371 1.35413 1.06861 0.77443 0.23793 h -6.31053 v -4.62918 -6.49383 -6.66257 -6.74911 -6.74477 -6.66256 -6.49384 z M 71.637262,132.87761 c 1.743914,16.8555 7.021177,32.63668 14.982652,46.70288 l -0.0563,0.0345 c 0.200634,0.35403 0.245231,0.42854 0.358998,0.6273 H 71.637186 v -1.12483 -1.86898 -2.58716 -3.26641 -3.91101 -4.50373 -5.04018 -5.51177 -5.91411 -6.24292 -6.49383 z m 239.722278,0 v 0.89987 6.49382 6.24293 5.91412 5.51175 5.04019 4.50375 3.911 3.26638 2.58716 1.86899 1.12484 h -15.28109 c 0.0982,-0.17123 0.19312,-0.33761 0.33738,-0.59272 0.006,-0.011 0.0236,-0.0399 0.0304,-0.0517 0.0154,-0.0276 0.0487,-0.0926 0.0649,-0.12117 0.1652,-0.29372 0.42062,-0.76771 0.63146,-1.1508 0.18558,-0.33743 0.37121,-0.67296 0.55364,-1.01236 0.0382,-0.0711 0.0605,-0.10432 0.0994,-0.17743 l -0.009,-0.004 c 0.009,-0.0154 0.0133,-0.0323 0.0222,-0.0476 0.18711,-0.34925 0.28445,-0.50913 0.49309,-0.90854 l -0.0432,-0.0222 c 0.97609,-1.86337 1.86233,-3.77862 2.7422,-5.6978 l 0.0866,0.039 c 0.22639,-0.49446 0.47014,-1.15168 0.7007,-1.67428 0.51028,-1.15912 0.98741,-2.33077 1.46191,-3.50867 0.31251,-0.7738 0.61641,-1.39247 0.92996,-2.21941 l -0.0994,-0.039 c 2.3565,-6.20601 4.30173,-12.6092 5.61417,-19.25656 l 0.0178,0.004 c 0.36241,-1.8231 0.56392,-3.78302 0.84776,-5.67185 0.2603,-1.75371 0.61626,-3.47464 0.80016,-5.25216 z" />
</svg>
