<?xml version="1.0" encoding="UTF-8" standalone="no"?>
<!-- Created with Inkscape (http://www.inkscape.org/) -->

<svg
   width="692mm"
   height="550mm"
   viewBox="0 0 692 550"
   version="1.1"
   id="svg5"
   inkscape:version="1.2.1 (9c6d41e410, 2022-07-14)"
   sodipodi:docname="thumbnail.svg"
   xmlns:inkscape="http://www.inkscape.org/namespaces/inkscape"
   xmlns:sodipodi="http://sodipodi.sourceforge.net/DTD/sodipodi-0.dtd"
   xmlns="http://www.w3.org/2000/svg"
   xmlns:svg="http://www.w3.org/2000/svg">
  <sodipodi:namedview
     id="namedview7"
     pagecolor="#ffffff"
     bordercolor="#000000"
     borderopacity="0.25"
     inkscape:showpageshadow="2"
     inkscape:pageopacity="0.0"
     inkscape:pagecheckerboard="0"
     inkscape:deskcolor="#d1d1d1"
     inkscape:document-units="mm"
     showgrid="false"
     inkscape:zoom="0.26016034"
     inkscape:cx="1823.8752"
     inkscape:cy="1218.4794"
     inkscape:window-width="2400"
     inkscape:window-height="1434"
     inkscape:window-x="2391"
     inkscape:window-y="-9"
     inkscape:window-maximized="1"
     inkscape:current-layer="layer1" />
  <defs
     id="defs2">
    <pattern
       id="EMFhbasepattern"
       patternUnits="userSpaceOnUse"
       width="6"
       height="6"
       x="0"
       y="0" />
  </defs>
  <g
     inkscape:label="Layer 1"
     inkscape:groupmode="layer"
     id="layer1"
     transform="translate(-17.989588,-75.439353)">
    <g
       id="g1870"
       transform="matrix(3.9933716,0,0,4.0212728,114.14764,-112.25043)">
      <g
         id="g1663">
        <g
           id="g1457">
          <g
             id="g1252">
            <g
               id="g1048">
              <path
                 style="fill:#c8c8c8;fill-opacity:1;fill-rule:evenodd;stroke:none;stroke-width:0.264583"
                 d="m 1.3363006,126.80695 h -7.611763 v -23.04451 h 15.213563 v 23.04451 z"
                 id="path135" />
              <path
                 style="fill:#000000;fill-opacity:1;fill-rule:evenodd;stroke:none;stroke-width:0.264583"
                 d="m 1.3363006,126.62762 v 0.17933 0.17934 h -7.611763 v -0.17934 -0.17933 z"
                 id="path137" />
              <path
                 style="fill:#000000;fill-opacity:1;fill-rule:evenodd;stroke:none;stroke-width:0.264583"
                 d="m -6.2754624,126.98629 c -0.02989,0 -0.05978,-0.01 -0.08967,-0.0199 -0.02989,-0.0199 -0.04982,-0.0399 -0.06974,-0.0697 -0.01,-0.0299 -0.01993,-0.0598 -0.01993,-0.0897 h 0.179335 z"
                 id="path139" />
              <path
                 style="fill:#000000;fill-opacity:1;fill-rule:evenodd;stroke:none;stroke-width:0.264583"
                 d="m -6.0961274,126.80695 h -0.179335 -0.179335 v -23.04451 h 0.179335 0.179335 z"
                 id="path141" />
              <path
                 style="fill:#000000;fill-opacity:1;fill-rule:evenodd;stroke:none;stroke-width:0.264583"
                 d="m -6.4547974,103.76244 c 0,-0.0299 0.01,-0.0598 0.01993,-0.0897 0.01993,-0.0299 0.03985,-0.0498 0.06974,-0.0697 0.02989,-0.01 0.05978,-0.0199 0.08967,-0.0199 v 0.17934 z"
                 id="path143" />
              <path
                 style="fill:#000000;fill-opacity:1;fill-rule:evenodd;stroke:none;stroke-width:0.264583"
                 d="m -6.2754624,103.94178 v -0.17934 -0.17933 h 15.213563 v 0.17933 0.17934 z"
                 id="path145" />
              <path
                 style="fill:#000000;fill-opacity:1;fill-rule:evenodd;stroke:none;stroke-width:0.264583"
                 d="m 8.9381006,103.58311 c 0.02989,0 0.05978,0.01 0.08967,0.0199 0.02989,0.0199 0.04982,0.0399 0.06974,0.0697 0.01,0.0299 0.01993,0.0598 0.01993,0.0897 v 0 h -0.179334 z"
                 id="path147" />
              <path
                 style="fill:#000000;fill-opacity:1;fill-rule:evenodd;stroke:none;stroke-width:0.264583"
                 d="m 8.7587656,103.76244 h 0.179335 0.179334 v 23.04451 h -0.179334 -0.179335 z"
                 id="path149" />
              <path
                 style="fill:#000000;fill-opacity:1;fill-rule:evenodd;stroke:none;stroke-width:0.264583"
                 d="m 9.1174346,126.80695 c 0,0.0299 -0.01,0.0598 -0.01993,0.0897 -0.01993,0.0299 -0.03985,0.0498 -0.06974,0.0697 -0.02989,0.01 -0.05978,0.0199 -0.08967,0.0199 v -0.17933 z"
                 id="path151" />
              <path
                 style="fill:#000000;fill-opacity:1;fill-rule:evenodd;stroke:none;stroke-width:0.264583"
                 d="m 8.9381006,126.62762 v 0.17933 0.17934 h -7.6018 v -0.17934 -0.17933 z"
                 id="path153" />
              <path
                 style="fill:#c8c8c8;fill-opacity:1;fill-rule:evenodd;stroke:none;stroke-width:0.264583"
                 d="m 128.20565,126.30881 h -7.61176 v -23.04452 h 15.21356 v 23.04452 z"
                 id="path155" />
              <path
                 style="fill:#000000;fill-opacity:1;fill-rule:evenodd;stroke:none;stroke-width:0.264583"
                 d="m 128.20565,126.12947 v 0.17934 0.17933 h -7.61176 v -0.17933 -0.17934 z"
                 id="path157" />
              <path
                 style="fill:#000000;fill-opacity:1;fill-rule:evenodd;stroke:none;stroke-width:0.264583"
                 d="m 120.59389,126.48814 c -0.0299,0 -0.0598,-0.01 -0.0897,-0.0199 -0.0299,-0.0199 -0.0498,-0.0399 -0.0697,-0.0697 -0.01,-0.0299 -0.0199,-0.0598 -0.0199,-0.0897 h 0.17934 z"
                 id="path159" />
              <path
                 style="fill:#000000;fill-opacity:1;fill-rule:evenodd;stroke:none;stroke-width:0.264583"
                 d="m 120.77322,126.30881 h -0.17933 -0.17934 v -23.04452 h 0.17934 0.17933 z"
                 id="path161" />
              <path
                 style="fill:#000000;fill-opacity:1;fill-rule:evenodd;stroke:none;stroke-width:0.264583"
                 d="m 120.41455,103.26429 c 0,-0.0299 0.01,-0.0598 0.0199,-0.0897 0.0199,-0.0299 0.0399,-0.0498 0.0697,-0.0697 0.0299,-0.01 0.0598,-0.0199 0.0897,-0.0199 v 0.17934 z"
                 id="path163" />
              <path
                 style="fill:#000000;fill-opacity:1;fill-rule:evenodd;stroke:none;stroke-width:0.264583"
                 d="m 120.59389,103.44363 v -0.17934 -0.17933 h 15.21356 v 0.17933 0.17934 z"
                 id="path165" />
              <path
                 style="fill:#000000;fill-opacity:1;fill-rule:evenodd;stroke:none;stroke-width:0.264583"
                 d="m 135.80745,103.08496 c 0.0299,0 0.0598,0.01 0.0897,0.0199 0.0299,0.0199 0.0498,0.0399 0.0697,0.0697 0.01,0.0299 0.0199,0.0598 0.0199,0.0897 v 0 h -0.17934 z"
                 id="path167" />
              <path
                 style="fill:#000000;fill-opacity:1;fill-rule:evenodd;stroke:none;stroke-width:0.264583"
                 d="m 135.62812,103.26429 h 0.17933 0.17934 v 23.04452 h -0.17934 -0.17933 z"
                 id="path169" />
              <path
                 style="fill:#000000;fill-opacity:1;fill-rule:evenodd;stroke:none;stroke-width:0.264583"
                 d="m 135.98679,126.30881 c 0,0.0299 -0.01,0.0598 -0.0199,0.0897 -0.0199,0.0299 -0.0399,0.0498 -0.0697,0.0697 -0.0299,0.01 -0.0598,0.0199 -0.0897,0.0199 v -0.17934 z"
                 id="path171" />
              <path
                 style="fill:#000000;fill-opacity:1;fill-rule:evenodd;stroke:none;stroke-width:0.264583"
                 d="m 135.80745,126.12947 v 0.17934 0.17933 h -7.6018 v -0.17933 -0.17934 z"
                 id="path173" />
              <path
                 style="fill:#c8c8c8;fill-opacity:1;fill-rule:evenodd;stroke:none;stroke-width:0.264583"
                 d="m 64.860646,183.2675 c -12.553432,0 -23.233809,-2.85939 -34.103488,-9.1361 -10.869676,-6.27672 -18.690664,-14.09771 -24.9673774,-24.96738 -6.27671595,-10.86968 -9.136109,-21.55006 -9.136109,-34.10349 0,-12.55343 2.85939305,-23.233809 9.136109,-34.103485 C 12.066494,70.087368 19.887482,62.266381 30.757158,55.989665 41.626837,49.71295 52.307214,46.853557 64.860646,46.853557 c 12.553429,0 23.233809,2.859393 34.103489,9.136108 10.869665,6.276716 18.690655,14.097703 24.967375,24.96738 6.27671,10.869676 9.13611,21.550055 9.13611,34.103485 0,12.55343 -2.8594,23.23381 -9.13611,34.10349 -6.27672,10.86967 -14.09771,18.69066 -24.967375,24.96738 -10.86968,6.27671 -21.55006,9.1361 -34.103489,9.1361 z"
                 id="path175" />
              <path
                 style="fill:#000000;fill-opacity:1;fill-rule:evenodd;stroke:none;stroke-width:0.264583"
                 d="m 64.860646,183.2675 v 0.17934 c -6.296642,0 -12.115057,-0.71734 -17.734212,-2.22176 l 0.04982,-0.16937 0.04982,-0.17934 c 5.5793,1.49446 11.37779,2.2118 17.63458,2.2118 z"
                 id="path177" />
              <path
                 style="fill:#000000;fill-opacity:1;fill-rule:evenodd;stroke:none;stroke-width:0.264583"
                 d="m 47.17625,181.05571 -0.04982,0.16937 c -5.60919,-1.50442 -11.009159,-3.79592 -16.458943,-6.93428 l 0.08967,-0.1594 0.08967,-0.15941 c 5.419894,3.13836 10.789972,5.40993 16.37924,6.90438 z"
                 id="path179" />
              <path
                 style="fill:#000000;fill-opacity:1;fill-rule:evenodd;stroke:none;stroke-width:0.264583"
                 d="m 30.757158,174.1314 -0.08967,0.1594 c -5.449782,-3.14832 -10.132412,-6.6852 -14.247146,-10.78997 l 0.129519,-0.12952 0.129519,-0.12952 c 4.084846,4.08485 8.747548,7.6018 14.167443,10.7302 z"
                 id="path181" />
              <path
                 style="fill:#000000;fill-opacity:1;fill-rule:evenodd;stroke:none;stroke-width:0.264583"
                 d="m 16.549864,163.37131 -0.129519,0.12952 C 12.31557,159.3861 8.7786916,154.70347 5.6303716,149.25368 l 0.159409,-0.0897 0.159406,-0.0897 c 3.128397,5.41989 6.6453494,10.0826 10.7301964,14.16744 z"
                 id="path183" />
              <path
                 style="fill:#000000;fill-opacity:1;fill-rule:evenodd;stroke:none;stroke-width:0.264583"
                 d="m 5.7897806,149.16402 -0.159409,0.0897 c -3.138358,-5.44982 -5.42985795,-10.84978 -6.934277,-16.45898 l 0.169372,-0.0498 0.17933505,-0.0498 c 1.494456,5.58927 3.76602995,10.95935 6.90438495,16.37924 z"
                 id="path185" />
              <path
                 style="fill:#000000;fill-opacity:1;fill-rule:evenodd;stroke:none;stroke-width:0.264583"
                 d="m -1.1345334,132.74493 -0.169372,0.0498 c -1.504419,-5.61915 -2.221758,-11.43757 -2.221758,-17.73421 h 0.179335 0.179335 c 0,6.25679 0.717339,12.05528 2.21179505,17.63458 z"
                 id="path187" />
              <path
                 style="fill:#000000;fill-opacity:1;fill-rule:evenodd;stroke:none;stroke-width:0.264583"
                 d="m -3.3463284,115.06053 h -0.179335 c 0,-6.29664 0.717339,-12.11505 2.221758,-17.734209 l 0.169372,0.04981 0.17933505,0.04982 C -2.4496544,103.00525 -3.1669934,108.80374 -3.1669934,115.06053 Z"
                 id="path189" />
              <path
                 style="fill:#000000;fill-opacity:1;fill-rule:evenodd;stroke:none;stroke-width:0.264583"
                 d="m -1.1345334,97.376134 -0.169372,-0.04981 c 1.50441905,-5.609193 3.795919,-11.009162 6.934277,-16.458943 l 0.159409,0.08967 0.159406,0.08967 c -3.138355,5.419894 -5.40992895,10.789973 -6.90438495,16.379238 z"
                 id="path191" />
              <path
                 style="fill:#000000;fill-opacity:1;fill-rule:evenodd;stroke:none;stroke-width:0.264583"
                 d="m 5.7897806,80.957045 -0.159409,-0.08967 C 8.7786916,75.417593 12.31557,70.734965 16.420345,66.62023 l 0.129519,0.129519 0.129519,0.12952 C 12.594536,70.964115 9.0775836,75.626818 5.9491866,81.046712 Z"
                 id="path193" />
              <path
                 style="fill:#000000;fill-opacity:1;fill-rule:evenodd;stroke:none;stroke-width:0.264583"
                 d="M 16.549864,66.749749 16.420345,66.62023 c 4.114734,-4.104773 8.797364,-7.641652 14.247146,-10.789973 l 0.08967,0.159408 0.08967,0.159409 c -5.4199,3.128395 -10.082602,6.645348 -14.167448,10.730195 z"
                 id="path195" />
              <path
                 style="fill:#000000;fill-opacity:1;fill-rule:evenodd;stroke:none;stroke-width:0.264583"
                 d="m 30.757158,55.989665 -0.08967,-0.159408 C 36.117275,52.691899 41.517244,50.4004 47.126434,48.895981 l 0.04982,0.169371 0.04982,0.179335 c -5.589268,1.494456 -10.959346,3.766029 -16.37924,6.904387 z"
                 id="path197" />
              <path
                 style="fill:#000000;fill-opacity:1;fill-rule:evenodd;stroke:none;stroke-width:0.264583"
                 d="M 47.17625,49.065352 47.12643,48.895981 C 52.745585,47.391562 58.564,46.674223 64.860642,46.674223 v 0.179334 0.179335 c -6.25679,0 -12.05528,0.717339 -17.63458,2.211795 z"
                 id="path199" />
              <path
                 style="fill:#000000;fill-opacity:1;fill-rule:evenodd;stroke:none;stroke-width:0.264583"
                 d="m 64.860646,46.853557 v -0.179334 c 6.296641,0 12.115059,0.717339 17.734209,2.221758 l -0.0498,0.169371 -0.0498,0.179335 c -5.57933,-1.494456 -11.37782,-2.211795 -17.634609,-2.211795 z"
                 id="path201" />
              <path
                 style="fill:#000000;fill-opacity:1;fill-rule:evenodd;stroke:none;stroke-width:0.264583"
                 d="m 82.545045,49.065352 0.0498,-0.169371 c 5.60919,1.504419 11.00916,3.795918 16.45895,6.934276 l -0.0897,0.159408 -0.0897,0.159409 c -5.41982,-3.138358 -10.7899,-5.409931 -16.37917,-6.904387 z"
                 id="path203" />
              <path
                 style="fill:#000000;fill-opacity:1;fill-rule:evenodd;stroke:none;stroke-width:0.264583"
                 d="m 98.964135,55.989665 0.0897,-0.159408 c 5.449775,3.148321 10.132405,6.6852 14.247135,10.789973 l -0.12952,0.129519 -0.12952,0.12952 c -4.08484,-4.084847 -8.74755,-7.6018 -14.167435,-10.730195 z"
                 id="path205" />
              <path
                 style="fill:#000000;fill-opacity:1;fill-rule:evenodd;stroke:none;stroke-width:0.264583"
                 d="m 113.17142,66.749749 0.12952,-0.129519 c 4.10478,4.114735 7.64165,8.797363 10.78998,14.247148 l -0.15941,0.08967 -0.15941,0.08967 c -3.12839,-5.419894 -6.64535,-10.082597 -10.7302,-14.167443 z"
                 id="path207" />
              <path
                 style="fill:#000000;fill-opacity:1;fill-rule:evenodd;stroke:none;stroke-width:0.264583"
                 d="m 123.93151,80.957045 0.15941,-0.08967 c 3.13835,5.449781 5.42985,10.84975 6.93427,16.458943 l -0.16937,0.04981 -0.17933,0.04982 C 129.18203,91.836683 126.91046,86.466604 123.7721,81.04671 Z"
                 id="path209" />
              <path
                 style="fill:#000000;fill-opacity:1;fill-rule:evenodd;stroke:none;stroke-width:0.264583"
                 d="m 130.85582,97.376134 0.16937,-0.04981 c 1.50442,5.619156 2.22176,11.437566 2.22176,17.734206 h -0.17933 -0.17934 c 0,-6.25679 -0.71734,-12.05527 -2.21179,-17.634577 z"
                 id="path211" />
              <path
                 style="fill:#000000;fill-opacity:1;fill-rule:evenodd;stroke:none;stroke-width:0.264583"
                 d="m 133.06762,115.06053 h 0.17933 c 0,6.29664 -0.71734,12.11506 -2.22176,17.73421 l -0.16937,-0.0498 -0.17933,-0.0498 c 1.49445,-5.5793 2.21179,-11.37779 2.21179,-17.63458 z"
                 id="path213" />
              <path
                 style="fill:#000000;fill-opacity:1;fill-rule:evenodd;stroke:none;stroke-width:0.264583"
                 d="m 130.85582,132.74493 0.16937,0.0498 c -1.50442,5.60919 -3.79592,11.00916 -6.93427,16.45893 l -0.15941,-0.0897 -0.15941,-0.0897 c 3.13836,-5.4199 5.40993,-10.78998 6.90439,-16.37924 z"
                 id="path215" />
              <path
                 style="fill:#000000;fill-opacity:1;fill-rule:evenodd;stroke:none;stroke-width:0.264583"
                 d="m 123.93151,149.16402 0.15941,0.0897 c -3.14833,5.44979 -6.6852,10.13242 -10.78998,14.24715 l -0.12952,-0.12952 -0.12952,-0.12952 c 4.08485,-4.08484 7.60181,-8.74755 10.7302,-14.16744 z"
                 id="path217" />
              <path
                 style="fill:#000000;fill-opacity:1;fill-rule:evenodd;stroke:none;stroke-width:0.264583"
                 d="m 113.17142,163.37131 0.12952,0.12952 c -4.11473,4.10477 -8.79736,7.64165 -14.247135,10.78997 l -0.0897,-0.1594 -0.0897,-0.15941 c 5.419885,-3.1284 10.082595,-6.64535 14.167435,-10.7302 z"
                 id="path219" />
              <path
                 style="fill:#000000;fill-opacity:1;fill-rule:evenodd;stroke:none;stroke-width:0.264583"
                 d="m 98.964135,174.1314 0.0897,0.1594 c -5.44979,3.13836 -10.84976,5.42986 -16.45895,6.93428 l -0.0498,-0.16937 -0.0498,-0.17934 c 5.58927,-1.49445 10.95935,-3.76602 16.37924,-6.90438 z"
                 id="path221" />
              <path
                 style="fill:#000000;fill-opacity:1;fill-rule:evenodd;stroke:none;stroke-width:0.264583"
                 d="m 82.545045,181.05571 0.0498,0.16937 c -5.61915,1.50442 -11.437568,2.22176 -17.734209,2.22176 v -0.17934 -0.17933 c 6.256789,0 12.055279,-0.71734 17.634579,-2.2118 z"
                 id="path223" />
              <path
                 style="fill:#c8c8c8;fill-opacity:1;fill-rule:evenodd;stroke:none;stroke-width:0.264583"
                 d="m 64.910461,175.21737 c -11.148642,0 -20.613531,-2.54058 -30.267717,-8.10992 -9.654185,-5.56934 -16.588462,-12.50361 -22.157801,-22.1578 -5.5693394,-9.65418 -8.1099154,-19.11907 -8.1099154,-30.26771 0,-11.14865 2.540576,-20.613534 8.1099154,-30.26772 5.569339,-9.654185 12.503616,-16.588462 22.157801,-22.157802 9.654186,-5.56934 19.119075,-8.109915 30.267717,-8.109915 11.148644,0 20.613534,2.540575 30.267714,8.109915 9.654185,5.56934 16.588465,12.503617 22.157795,22.157802 5.56934,9.654186 8.10992,19.11907 8.10992,30.26772 0,11.14864 -2.54058,20.61353 -8.10992,30.26771 -5.56933,9.65419 -12.50361,16.58846 -22.157795,22.1578 -9.65418,5.56934 -19.11907,8.10992 -30.267714,8.10992 z"
                 id="path225" />
              <path
                 style="fill:#000000;fill-opacity:1;fill-rule:evenodd;stroke:none;stroke-width:0.264583"
                 d="m 64.910461,175.21737 v 0.17933 c -5.589264,0 -10.760083,-0.63763 -15.741605,-1.97268 l 0.04982,-0.16937 0.03985,-0.17934 c 4.951632,1.32509 10.09256,1.96272 15.651937,1.96272 z"
                 id="path227" />
              <path
                 style="fill:#000000;fill-opacity:1;fill-rule:evenodd;stroke:none;stroke-width:0.264583"
                 d="m 49.218672,173.25465 -0.04982,0.16937 c -4.981519,-1.33505 -9.77374,-3.36751 -14.615779,-6.15716 l 0.08967,-0.15941 0.08967,-0.15941 c 4.812149,2.77969 9.574482,4.80219 14.526112,6.12727 z"
                 id="path229" />
              <path
                 style="fill:#000000;fill-opacity:1;fill-rule:evenodd;stroke:none;stroke-width:0.264583"
                 d="m 34.642744,167.10745 -0.08967,0.15941 c -4.842036,-2.79961 -8.996624,-5.92801 -12.643099,-9.58445 l 0.119558,-0.11955 0.129519,-0.12952 c 3.626548,3.62655 7.761208,6.74498 12.573357,9.5147 z"
                 id="path231" />
              <path
                 style="fill:#000000;fill-opacity:1;fill-rule:evenodd;stroke:none;stroke-width:0.264583"
                 d="m 22.029536,157.56286 -0.119558,0.11955 c -3.656435,-3.64647 -6.784829,-7.80106 -9.584443,-12.64309 l 0.159408,-0.0897 0.159409,-0.0897 c 2.769725,4.81214 5.888157,8.9468 9.514703,12.57335 z"
                 id="path233" />
              <path
                 style="fill:#000000;fill-opacity:1;fill-rule:evenodd;stroke:none;stroke-width:0.264583"
                 d="m 12.484943,144.94965 -0.159408,0.0897 C 9.5358836,140.19728 7.5034236,135.40506 6.1683756,130.42354 l 0.16937,-0.0498 0.179335,-0.0399 c 1.325086,4.95163 3.347582,9.71397 6.1272714,14.52611 z"
                 id="path235" />
              <path
                 style="fill:#000000;fill-opacity:1;fill-rule:evenodd;stroke:none;stroke-width:0.264583"
                 d="m 6.3377456,130.37372 -0.16937,0.0498 c -1.335048,-4.98152 -1.972683,-10.15234 -1.972683,-15.7416 h 0.179335 0.179334 c 0,5.55937 0.637635,10.7003 1.962719,15.65193 z"
                 id="path237" />
              <path
                 style="fill:#000000;fill-opacity:1;fill-rule:evenodd;stroke:none;stroke-width:0.264583"
                 d="m 4.3750276,114.68194 h -0.179335 c 0,-5.58927 0.637635,-10.76009 1.972683,-15.741608 l 0.16937,0.04982 0.179335,0.03985 c -1.325084,4.951628 -1.962719,10.092558 -1.962719,15.651938 z"
                 id="path239" />
              <path
                 style="fill:#000000;fill-opacity:1;fill-rule:evenodd;stroke:none;stroke-width:0.264583"
                 d="m 6.3377456,98.990148 -0.16937,-0.04982 c 1.335048,-4.981515 3.367508,-9.773739 6.1571594,-14.615775 l 0.159408,0.08967 0.159409,0.08967 C 9.8646626,89.316042 7.8421666,94.078375 6.5170806,99.030004 Z"
                 id="path241" />
              <path
                 style="fill:#000000;fill-opacity:1;fill-rule:evenodd;stroke:none;stroke-width:0.264583"
                 d="m 12.484943,84.41422 -0.159408,-0.08967 c 2.799614,-4.842039 5.928008,-8.996627 9.584443,-12.643099 l 0.119558,0.119557 0.129519,0.129519 c -3.626546,3.626546 -6.744978,7.761209 -9.514703,12.573358 z"
                 id="path243" />
              <path
                 style="fill:#000000;fill-opacity:1;fill-rule:evenodd;stroke:none;stroke-width:0.264583"
                 d="m 22.029536,71.801011 -0.119558,-0.119557 c 3.646475,-3.656436 7.801063,-6.78483 12.643099,-9.584445 l 0.08967,0.159409 0.08967,0.159409 c -4.812149,2.769725 -8.946809,5.888157 -12.573357,9.514703 z"
                 id="path245" />
              <path
                 style="fill:#000000;fill-opacity:1;fill-rule:evenodd;stroke:none;stroke-width:0.264583"
                 d="m 34.642744,62.256418 -0.08967,-0.159409 c 4.842039,-2.789651 9.63426,-4.822111 14.615779,-6.157159 l 0.04982,0.169372 0.03985,0.179335 c -4.95163,1.325084 -9.713963,3.347582 -14.526112,6.12727 z"
                 id="path247" />
              <path
                 style="fill:#000000;fill-opacity:1;fill-rule:evenodd;stroke:none;stroke-width:0.264583"
                 d="m 49.218672,56.109222 -0.04982,-0.169372 c 4.981522,-1.335047 10.152341,-1.972682 15.741605,-1.972682 v 0.179335 0.179335 c -5.559377,0 -10.700305,0.637634 -15.651937,1.962719 z"
                 id="path249" />
              <path
                 style="fill:#000000;fill-opacity:1;fill-rule:evenodd;stroke:none;stroke-width:0.264583"
                 d="m 64.910461,54.146503 v -0.179335 c 5.589265,0 10.760083,0.637635 15.741604,1.972682 l -0.0498,0.169372 -0.0399,0.179335 C 75.610767,54.963472 70.469839,54.325838 64.910461,54.325838 Z"
                 id="path251" />
              <path
                 style="fill:#000000;fill-opacity:1;fill-rule:evenodd;stroke:none;stroke-width:0.264583"
                 d="m 80.602255,56.109222 0.0498,-0.169372 c 4.98152,1.335048 9.77374,3.367508 14.61578,6.157159 l -0.0897,0.159409 -0.0897,0.159409 c -4.81215,-2.779688 -9.57449,-4.802186 -14.52612,-6.12727 z"
                 id="path253" />
              <path
                 style="fill:#000000;fill-opacity:1;fill-rule:evenodd;stroke:none;stroke-width:0.264583"
                 d="m 95.178175,62.256418 0.0897,-0.159409 c 4.842035,2.799615 8.996615,5.928009 12.643095,9.584445 l -0.11956,0.119557 -0.12952,0.129519 c -3.62655,-3.626546 -7.761205,-6.744978 -12.573345,-9.514703 z"
                 id="path255" />
              <path
                 style="fill:#000000;fill-opacity:1;fill-rule:evenodd;stroke:none;stroke-width:0.264583"
                 d="m 107.79138,71.801011 0.11956,-0.119557 c 3.65643,3.646472 6.78483,7.80106 9.58444,12.643099 l -0.15941,0.08967 -0.1594,0.08967 c -2.76973,-4.812149 -5.88816,-8.946812 -9.51471,-12.573358 z"
                 id="path257" />
              <path
                 style="fill:#000000;fill-opacity:1;fill-rule:evenodd;stroke:none;stroke-width:0.264583"
                 d="m 117.33597,84.41422 0.15941,-0.08967 c 2.78965,4.842036 4.82211,9.63426 6.15716,14.615779 l -0.16937,0.04982 -0.17933,0.03985 c -1.32509,-4.951629 -3.34759,-9.713962 -6.12727,-14.526111 z"
                 id="path259" />
              <path
                 style="fill:#000000;fill-opacity:1;fill-rule:evenodd;stroke:none;stroke-width:0.264583"
                 d="m 123.48317,98.990148 0.16937,-0.04982 c 1.33505,4.981522 1.97268,10.152342 1.97268,15.741602 h -0.17933 -0.17933 c 0,-5.55937 -0.63764,-10.7003 -1.96272,-15.651935 z"
                 id="path261" />
              <path
                 style="fill:#000000;fill-opacity:1;fill-rule:evenodd;stroke:none;stroke-width:0.264583"
                 d="m 125.44589,114.68194 h 0.17933 c 0,5.58926 -0.63763,10.76008 -1.97268,15.7416 l -0.16937,-0.0498 -0.17933,-0.0399 c 1.32508,-4.95163 1.96272,-10.09256 1.96272,-15.65194 z"
                 id="path263" />
              <path
                 style="fill:#000000;fill-opacity:1;fill-rule:evenodd;stroke:none;stroke-width:0.264583"
                 d="m 123.48317,130.37372 0.16937,0.0498 c -1.33505,4.98152 -3.36751,9.77375 -6.15716,14.61578 l -0.15941,-0.0897 -0.1594,-0.0897 c 2.77968,-4.81214 4.80218,-9.57448 6.12727,-14.52611 z"
                 id="path265" />
              <path
                 style="fill:#000000;fill-opacity:1;fill-rule:evenodd;stroke:none;stroke-width:0.264583"
                 d="m 117.33597,144.94965 0.15941,0.0897 c -2.79961,4.84203 -5.92801,8.99662 -9.58444,12.64309 l -0.11956,-0.11955 -0.12952,-0.12952 c 3.62655,-3.62655 6.74498,-7.76121 9.51471,-12.57335 z"
                 id="path267" />
              <path
                 style="fill:#000000;fill-opacity:1;fill-rule:evenodd;stroke:none;stroke-width:0.264583"
                 d="m 107.79138,157.56286 0.11956,0.11955 c -3.64648,3.65644 -7.80106,6.78484 -12.643095,9.58445 l -0.0897,-0.15941 -0.0897,-0.15941 c 4.81214,-2.76972 8.946795,-5.88815 12.573345,-9.5147 z"
                 id="path269" />
              <path
                 style="fill:#000000;fill-opacity:1;fill-rule:evenodd;stroke:none;stroke-width:0.264583"
                 d="m 95.178175,167.10745 0.0897,0.15941 c -4.84204,2.78965 -9.63426,4.82211 -14.61578,6.15716 l -0.0498,-0.16937 -0.0399,-0.17934 c 4.95163,-1.32508 9.71397,-3.34758 14.52612,-6.12727 z"
                 id="path271" />
              <path
                 style="fill:#000000;fill-opacity:1;fill-rule:evenodd;stroke:none;stroke-width:0.264583"
                 d="m 80.602255,173.25465 0.0498,0.16937 c -4.981521,1.33505 -10.152339,1.97268 -15.741604,1.97268 v -0.17933 -0.17934 c 5.559378,0 10.700306,-0.63763 15.651934,-1.96272 z"
                 id="path273" />
              <path
                 style="fill:#c8c8c8;fill-opacity:1;fill-rule:evenodd;stroke:none;stroke-width:0.264583"
                 d="m 116.00093,89.445556 c 17.56484,34.691304 -6.21694,79.485134 -48.300818,82.802824 -0.976376,-0.269 -1.165675,-0.50812 -1.653863,-2.27157 0.03985,-16.58846 0.04981,-33.41604 0.08967,-50.0045 2.749799,-0.48819 4.16455,-2.76972 3.656436,-6.33649 13.44014,-7.56195 29.62011,-17.246026 43.887185,-25.365903 2.16198,-0.288928 2.06235,0.777118 2.32139,1.175639 z"
                 id="path275" />
              <path
                 style="fill:#000000;fill-opacity:1;fill-rule:evenodd;stroke:none;stroke-width:0.264583"
                 d="m 116.15037,89.345924 c 0,0 0,0.01 0.01,0.01 0,0 0,0.01 0,0.01 l -0.15941,0.07971 z"
                 id="path277" />
              <path
                 style="fill:#000000;fill-opacity:1;fill-rule:evenodd;stroke:none;stroke-width:0.264583"
                 d="m 116.00093,89.445556 0.15941,-0.07971 c 2.00257,3.945366 3.46713,8.020248 4.42359,12.154914 l -0.16938,0.0399 -0.17933,0.0399 c -0.95645,-4.104777 -2.41106,-8.149772 -4.3937,-12.075209 z"
                 id="path279" />
              <path
                 style="fill:#000000;fill-opacity:1;fill-rule:evenodd;stroke:none;stroke-width:0.264583"
                 d="m 120.41455,101.56061 0.16938,-0.0399 c 0.96641,4.1247 1.43467,8.30918 1.43467,12.48369 h -0.17933 -0.17934 c 0,-4.14462 -0.4583,-8.29921 -1.42471,-12.40398 z"
                 id="path281" />
              <path
                 style="fill:#000000;fill-opacity:1;fill-rule:evenodd;stroke:none;stroke-width:0.264583"
                 d="m 121.83927,114.00445 h 0.17933 c 0,7.09368 -1.35497,14.13755 -3.89555,20.74305 l -0.16937,-0.0598 -0.15941,-0.0697 c 2.52065,-6.56564 3.86566,-13.5597 3.86566,-20.61353 z"
                 id="path283" />
              <path
                 style="fill:#000000;fill-opacity:1;fill-rule:evenodd;stroke:none;stroke-width:0.264583"
                 d="m 117.95368,134.68772 0.16937,0.0598 c -2.54057,6.61546 -6.26675,12.78258 -11.01912,18.15266 l -0.12952,-0.11956 -0.13948,-0.11956 c 4.72248,-5.33022 8.42873,-11.46745 10.95934,-18.04306 z"
                 id="path285" />
              <path
                 style="fill:#000000;fill-opacity:1;fill-rule:evenodd;stroke:none;stroke-width:0.264583"
                 d="m 106.97441,152.7806 0.12952,0.11956 c -4.7424,5.37007 -10.511005,9.92319 -17.136425,13.31062 l -0.0797,-0.15941 -0.0797,-0.15941 c 6.57561,-3.36751 12.314315,-7.89073 17.026835,-13.23092 z"
                 id="path287" />
              <path
                 style="fill:#000000;fill-opacity:1;fill-rule:evenodd;stroke:none;stroke-width:0.264583"
                 d="m 89.887805,166.05137 0.0797,0.15941 c -6.61546,3.37747 -14.0977,5.56934 -22.257429,6.21693 l -0.01,-0.17933 -0.01,-0.17933 c 8.109913,-0.63764 15.532389,-2.81954 22.117949,-6.17709 z"
                 id="path289" />
              <path
                 style="fill:#000000;fill-opacity:1;fill-rule:evenodd;stroke:none;stroke-width:0.264583"
                 d="m 67.710076,172.42771 c 0,0 -0.01,0 -0.01,0 -0.01993,0 -0.02989,0 -0.04981,-0.01 l 0.04981,-0.16937 z"
                 id="path291" />
              <path
                 style="fill:#000000;fill-opacity:1;fill-rule:evenodd;stroke:none;stroke-width:0.264583"
                 d="m 67.700112,172.24838 -0.04981,0.16937 c -0.25904,-0.0697 -0.468264,-0.13948 -0.637635,-0.22915 l 0.08967,-0.15941 0.0797,-0.1594 c 0.149447,0.0797 0.338743,0.13948 0.567893,0.20922 z"
                 id="path293" />
              <path
                 style="fill:#000000;fill-opacity:1;fill-rule:evenodd;stroke:none;stroke-width:0.264583"
                 d="m 67.10233,172.02919 -0.08967,0.15941 c -0.08967,-0.0498 -0.179334,-0.10959 -0.249076,-0.17933 l 0.109593,-0.12952 0.119557,-0.13949 c 0.05978,0.0498 0.119555,0.0897 0.189297,0.12953 z"
                 id="path295" />
              <path
                 style="fill:#000000;fill-opacity:1;fill-rule:evenodd;stroke:none;stroke-width:0.264583"
                 d="m 66.87318,171.87975 -0.109593,0.12952 c -0.07971,-0.0598 -0.149447,-0.13948 -0.219186,-0.22915 l 0.149445,-0.10959 0.139483,-0.0996 c 0.04981,0.0598 0.09963,0.11956 0.159408,0.16937 z"
                 id="path297" />
              <path
                 style="fill:#000000;fill-opacity:1;fill-rule:evenodd;stroke:none;stroke-width:0.264583"
                 d="m 66.693846,171.67053 -0.149445,0.10959 c -0.05978,-0.0897 -0.119557,-0.1893 -0.179335,-0.29889 l 0.159407,-0.0797 0.159408,-0.0797 c 0.04982,0.0897 0.09963,0.16937 0.149448,0.24907 z"
                 id="path299" />
              <path
                 style="fill:#000000;fill-opacity:1;fill-rule:evenodd;stroke:none;stroke-width:0.264583"
                 d="m 66.524473,171.40152 -0.159407,0.0797 c -0.04981,-0.1096 -0.109595,-0.23912 -0.159408,-0.3786 l 0.16937,-0.0598 0.169373,-0.0697 c 0.04981,0.12952 0.08967,0.24908 0.13948,0.34871 z"
                 id="path301" />
              <path
                 style="fill:#000000;fill-opacity:1;fill-rule:evenodd;stroke:none;stroke-width:0.264583"
                 d="m 66.375028,171.04285 -0.16937,0.0598 c -0.04982,-0.13948 -0.109596,-0.29889 -0.159409,-0.47823 l 0.16937,-0.0498 0.169373,-0.0598 c 0.05978,0.17934 0.109593,0.32878 0.159409,0.4583 z"
                 id="path303" />
              <path
                 style="fill:#000000;fill-opacity:1;fill-rule:evenodd;stroke:none;stroke-width:0.264583"
                 d="m 66.215619,170.57459 -0.16937,0.0498 c -0.04982,-0.17933 -0.109593,-0.37859 -0.169373,-0.59778 l 0.169373,-0.0498 0.16937,-0.0498 c 0.05978,0.21919 0.119557,0.41845 0.169373,0.58782 z"
                 id="path305" />
              <path
                 style="fill:#000000;fill-opacity:1;fill-rule:evenodd;stroke:none;stroke-width:0.264583"
                 d="m 65.876876,170.02662 c -0.01,-0.0199 -0.01,-0.0299 -0.01,-0.0498 0,0 0,0 0,0 h 0.179335 z"
                 id="path307" />
              <path
                 style="fill:#000000;fill-opacity:1;fill-rule:evenodd;stroke:none;stroke-width:0.264583"
                 d="m 66.046249,169.97681 h -0.179335 c 0.03985,-16.58846 0.04981,-33.41604 0.08967,-50.0045 h 0.179335 0.179335 c -0.03985,16.58846 -0.04982,33.41604 -0.08967,50.0045 z"
                 id="path309" />
              <path
                 style="fill:#000000;fill-opacity:1;fill-rule:evenodd;stroke:none;stroke-width:0.264583"
                 d="m 65.956581,119.97231 c 0,-0.0299 0.01,-0.0598 0.01993,-0.0897 0.01993,-0.0299 0.03985,-0.0498 0.06974,-0.0697 0.01993,-0.01 0.03985,-0.01 0.05978,-0.0199 l 0.02989,0.17933 z"
                 id="path311" />
              <path
                 style="fill:#000000;fill-opacity:1;fill-rule:evenodd;stroke:none;stroke-width:0.264583"
                 d="m 66.135916,119.97231 -0.02989,-0.17934 c 0.567894,-0.0996 1.085972,-0.27896 1.534308,-0.538 l 0.08967,0.14945 0.08967,0.1594 c -0.488188,0.27897 -1.036156,0.47823 -1.653866,0.58782 z"
                 id="path313" />
              <path
                 style="fill:#000000;fill-opacity:1;fill-rule:evenodd;stroke:none;stroke-width:0.264583"
                 d="m 67.730002,119.40442 -0.08967,-0.14945 c 0.438375,-0.25904 0.81697,-0.58782 1.125823,-0.98634 l 0.139484,0.10959 0.139483,0.0996 c -0.328782,0.44834 -0.747229,0.80701 -1.225455,1.08598 z"
                 id="path315" />
              <path
                 style="fill:#000000;fill-opacity:1;fill-rule:evenodd;stroke:none;stroke-width:0.264583"
                 d="m 68.905641,118.37822 -0.139484,-0.10959 c 0.308854,-0.40848 0.547968,-0.88671 0.707377,-1.42471 l 0.169371,0.0498 0.169373,0.0498 c -0.169373,0.58782 -0.428411,1.10589 -0.767154,1.5343 z"
                 id="path317" />
              <path
                 style="fill:#000000;fill-opacity:1;fill-rule:evenodd;stroke:none;stroke-width:0.264583"
                 d="m 69.642905,116.89373 -0.169371,-0.0498 c 0.159409,-0.54797 0.239112,-1.15571 0.239112,-1.8332 h 0.179335 0.179334 c 0,0.70738 -0.08967,1.35498 -0.259037,1.93283 z"
                 id="path319" />
              <path
                 style="fill:#000000;fill-opacity:1;fill-rule:evenodd;stroke:none;stroke-width:0.264583"
                 d="m 69.891981,115.01072 h -0.179335 c 0,-0.42841 -0.02989,-0.87675 -0.09963,-1.34501 l 0.179335,-0.0299 0.179334,-0.0299 c 0.06974,0.49815 0.09963,0.95645 0.09963,1.40479 z"
                 id="path321" />
              <path
                 style="fill:#000000;fill-opacity:1;fill-rule:evenodd;stroke:none;stroke-width:0.264583"
                 d="m 69.613017,113.66571 c 0,-0.01 0,-0.0199 0,-0.0299 0,-0.0299 0.01,-0.0598 0.01993,-0.0897 0.01993,-0.0299 0.03985,-0.0498 0.06974,-0.0697 0,0 0,0 0,0 l 0.08967,0.15941 z"
                 id="path323" />
              <path
                 style="fill:#000000;fill-opacity:1;fill-rule:evenodd;stroke:none;stroke-width:0.264583"
                 d="m 69.792352,113.63582 -0.08967,-0.15941 c 13.44014,-7.56195 29.62012,-17.246025 43.887188,-25.365902 l 0.0897,0.159409 0.0897,0.159408 C 99.502135,96.549203 83.322155,106.23328 69.882019,113.79523 Z"
                 id="path325" />
              <path
                 style="fill:#000000;fill-opacity:1;fill-rule:evenodd;stroke:none;stroke-width:0.264583"
                 d="m 113.58987,88.110508 c 0.0199,-0.01 0.0399,-0.01993 0.0697,-0.01993 l 0.0199,0.179335 z"
                 id="path327" />
              <path
                 style="fill:#000000;fill-opacity:1;fill-rule:evenodd;stroke:none;stroke-width:0.264583"
                 d="m 113.67954,88.269917 -0.0199,-0.179335 c 0.25904,-0.02989 0.48819,-0.04982 0.68745,-0.04982 v 0.179335 0.179334 c -0.1893,0 -0.39852,0.01993 -0.6476,0.04982 z"
                 id="path329" />
              <path
                 style="fill:#000000;fill-opacity:1;fill-rule:evenodd;stroke:none;stroke-width:0.264583"
                 d="m 114.34706,88.220101 v -0.179335 c 0.19926,0 0.36863,0.01993 0.51808,0.03985 l -0.0299,0.179334 -0.0299,0.179335 c -0.12952,-0.02989 -0.28893,-0.03985 -0.4583,-0.03985 z"
                 id="path331" />
              <path
                 style="fill:#000000;fill-opacity:1;fill-rule:evenodd;stroke:none;stroke-width:0.264583"
                 d="m 114.83525,88.259952 0.0299,-0.179334 c 0.15941,0.02989 0.28893,0.06974 0.39852,0.119557 l -0.0697,0.159409 -0.0697,0.16937 c -0.0897,-0.03985 -0.19926,-0.06974 -0.31882,-0.08967 z"
                 id="path333" />
              <path
                 style="fill:#000000;fill-opacity:1;fill-rule:evenodd;stroke:none;stroke-width:0.264583"
                 d="m 115.19392,88.359584 0.0697,-0.159409 c 0.11956,0.04982 0.21919,0.109593 0.30886,0.169373 l -0.1096,0.149445 -0.10959,0.139483 c -0.0697,-0.04982 -0.13948,-0.08967 -0.22915,-0.129522 z"
                 id="path335" />
              <path
                 style="fill:#000000;fill-opacity:1;fill-rule:evenodd;stroke:none;stroke-width:0.264583"
                 d="m 115.46292,88.518993 0.1096,-0.149445 c 0.0797,0.06974 0.14944,0.149445 0.20922,0.219186 l -0.13948,0.109593 -0.13949,0.109593 c -0.0399,-0.04981 -0.0897,-0.09963 -0.14944,-0.149444 z"
                 id="path337" />
              <path
                 style="fill:#000000;fill-opacity:1;fill-rule:evenodd;stroke:none;stroke-width:0.264583"
                 d="m 115.64226,88.698327 0.13948,-0.109593 c 0.20922,0.269002 0.24908,0.577855 0.36863,0.75719 l -0.14944,0.09963 -0.14945,0.09963 c -0.10959,-0.179334 -0.15941,-0.478223 -0.34871,-0.737264 z"
                 id="path339" />
              <path
                 style="fill:#c8c8c8;fill-opacity:1;fill-rule:evenodd;stroke:none;stroke-width:0.264583"
                 d="M 61.313803,172.11886 C 19.738038,168.34287 -4.1832244,125.72099 13.969436,88.758105 c 0.717338,-0.707375 1.026194,-0.747229 2.789653,-0.288928 14.326851,8.368953 28.872889,16.827573 43.19974,25.196533 -0.438372,3.02876 0.448339,4.55311 3.646474,6.34645 -0.219186,15.41283 0.02989,34.27286 -0.109593,50.68199 -0.836895,2.02249 -1.713642,1.39482 -2.181907,1.42471 z"
                 id="path341" />
              <path
                 style="fill:#000000;fill-opacity:1;fill-rule:evenodd;stroke:none;stroke-width:0.264583"
                 d="m 61.323767,172.2982 c 0,0 -0.01,0 -0.01,0 -0.01,0 -0.01,0 -0.01993,0 l 0.01993,-0.17934 z"
                 id="path343" />
              <path
                 style="fill:#000000;fill-opacity:1;fill-rule:evenodd;stroke:none;stroke-width:0.264583"
                 d="m 61.313803,172.11886 -0.01993,0.17934 c -8.010284,-0.72731 -15.372972,-2.89925 -21.898761,-6.18705 l 0.0797,-0.15941 0.0797,-0.15941 c 6.495905,3.26788 13.808777,5.41989 21.779207,6.1472 z"
                 id="path345" />
              <path
                 style="fill:#000000;fill-opacity:1;fill-rule:evenodd;stroke:none;stroke-width:0.264583"
                 d="m 39.474819,165.95174 -0.0797,0.15941 c -6.535756,-3.2878 -12.244578,-7.70143 -16.947134,-12.92207 l 0.139483,-0.11955 0.129522,-0.11956 c 4.672663,5.19075 10.341634,9.57448 16.837535,12.84236 z"
                 id="path347" />
              <path
                 style="fill:#000000;fill-opacity:1;fill-rule:evenodd;stroke:none;stroke-width:0.264583"
                 d="m 22.587465,153.06953 -0.139483,0.11955 c -4.702553,-5.21067 -8.398841,-11.2383 -10.929453,-17.74417 l 0.16937,-0.0697 0.169373,-0.0598 c 2.510684,6.46602 6.187049,12.4538 10.859715,17.63458 z"
                 id="path349" />
              <path
                 style="fill:#000000;fill-opacity:1;fill-rule:evenodd;stroke:none;stroke-width:0.264583"
                 d="m 11.687899,135.37517 -0.16937,0.0697 C 8.9978776,128.92908 7.6429036,121.92507 7.6429036,114.76164 h 0.179335 0.179337 c 0,7.12358 1.345009,14.07778 3.8556964,20.55375 z"
                 id="path351" />
              <path
                 style="fill:#000000;fill-opacity:1;fill-rule:evenodd;stroke:none;stroke-width:0.264583"
                 d="m 7.8222386,114.76164 h -0.179335 c 0,-4.314 0.488191,-8.69773 1.504421,-13.06155 l 0.179335,0.0399 0.16937,0.0399 c -1.006266,4.34389 -1.494454,8.68778 -1.494454,12.98185 z"
                 id="path353" />
              <path
                 style="fill:#000000;fill-opacity:1;fill-rule:evenodd;stroke:none;stroke-width:0.264583"
                 d="m 9.3266596,101.73995 -0.179335,-0.0398 C 10.163555,97.326323 11.707825,92.96251 13.810027,88.678403 l 0.159409,0.0797 0.159409,0.0797 c -2.092238,4.264181 -3.626546,8.598104 -4.6328154,12.941987 z"
                 id="path355" />
              <path
                 style="fill:#000000;fill-opacity:1;fill-rule:evenodd;stroke:none;stroke-width:0.264583"
                 d="m 13.810027,88.678401 c 0,0 0,-0.01 0,-0.01 0.01,-0.01 0.01993,-0.02989 0.02989,-0.03985 l 0.129519,0.129519 z"
                 id="path357" />
              <path
                 style="fill:#000000;fill-opacity:1;fill-rule:evenodd;stroke:none;stroke-width:0.264583"
                 d="m 13.969436,88.758105 -0.129519,-0.129519 c 0.109593,-0.09963 0.209224,-0.199261 0.308853,-0.269002 l 0.109593,0.139483 0.109593,0.139483 c -0.08967,0.06974 -0.179334,0.149444 -0.269001,0.249076 z"
                 id="path359" />
              <path
                 style="fill:#000000;fill-opacity:1;fill-rule:evenodd;stroke:none;stroke-width:0.264583"
                 d="M 14.258363,88.499067 14.14877,88.359584 c 0.09963,-0.08967 0.189299,-0.149445 0.298892,-0.209225 l 0.0797,0.159409 0.08967,0.159409 c -0.08967,0.03985 -0.169371,0.09963 -0.249077,0.169373 z"
                 id="path361" />
              <path
                 style="fill:#000000;fill-opacity:1;fill-rule:evenodd;stroke:none;stroke-width:0.264583"
                 d="m 14.527365,88.309768 -0.0797,-0.159409 c 0.09963,-0.04982 0.209225,-0.08967 0.328779,-0.119554 l 0.03985,0.16937 0.03985,0.179335 c -0.08967,0.01993 -0.169373,0.04982 -0.239114,0.08967 z"
                 id="path363" />
              <path
                 style="fill:#000000;fill-opacity:1;fill-rule:evenodd;stroke:none;stroke-width:0.264583"
                 d="m 14.816296,88.200175 -0.03985,-0.16937 c 0.109593,-0.02989 0.229151,-0.03986 0.368634,-0.03986 v 0.179335 0.179335 c -0.109593,0 -0.199261,0.01 -0.288928,0.02989 z"
                 id="path365" />
              <path
                 style="fill:#000000;fill-opacity:1;fill-rule:evenodd;stroke:none;stroke-width:0.264583"
                 d="M 15.145075,88.170285 V 87.99095 c 0.09963,0 0.209224,0 0.318817,0.01993 l -0.01993,0.179335 -0.01993,0.179337 c -0.09963,-0.01993 -0.189299,-0.01993 -0.278966,-0.01993 z"
                 id="path367" />
              <path
                 style="fill:#000000;fill-opacity:1;fill-rule:evenodd;stroke:none;stroke-width:0.264583"
                 d="m 15.443967,88.190211 0.01993,-0.179335 c 0.119558,0.01 0.239112,0.02989 0.378595,0.05978 l -0.03985,0.169371 -0.02989,0.179334 c -0.129519,-0.01993 -0.239112,-0.03985 -0.348705,-0.04981 z"
                 id="path369" />
              <path
                 style="fill:#000000;fill-opacity:1;fill-rule:evenodd;stroke:none;stroke-width:0.264583"
                 d="m 15.802636,88.240027 0.03985,-0.169371 c 0.269002,0.04982 0.577858,0.129519 0.966415,0.22915 l -0.04981,0.169371 -0.04982,0.169373 c -0.368633,-0.08967 -0.677487,-0.169373 -0.936527,-0.219189 z"
                 id="path371" />
              <path
                 style="fill:#000000;fill-opacity:1;fill-rule:evenodd;stroke:none;stroke-width:0.264583"
                 d="m 16.808902,88.299806 c 0.01,0 0.02989,0.01 0.03985,0.01 0,0 0,0 0,0 l -0.08967,0.159409 z"
                 id="path373" />
              <path
                 style="fill:#000000;fill-opacity:1;fill-rule:evenodd;stroke:none;stroke-width:0.264583"
                 d="m 16.759089,88.469177 0.08967,-0.159409 c 14.326851,8.368953 28.872889,16.827572 43.19974,25.196532 l -0.08967,0.15941 -0.08967,0.15941 C 45.54231,105.45616 30.996273,96.997539 16.669419,88.628586 Z"
                 id="path375" />
              <path
                 style="fill:#000000;fill-opacity:1;fill-rule:evenodd;stroke:none;stroke-width:0.264583"
                 d="m 60.048496,113.5063 c 0.02989,0.0199 0.04982,0.0399 0.06974,0.0697 0.01,0.0299 0.01993,0.0598 0.01993,0.0897 0,0.01 0,0.0199 0,0.0299 l -0.179335,-0.0299 z"
                 id="path377" />
              <path
                 style="fill:#000000;fill-opacity:1;fill-rule:evenodd;stroke:none;stroke-width:0.264583"
                 d="m 59.958829,113.66571 0.179335,0.0299 c -0.06974,0.4583 -0.109593,0.88671 -0.109593,1.28523 h -0.179335 -0.179334 c 0,-0.40848 0.03985,-0.85682 0.109593,-1.34501 z"
                 id="path379" />
              <path
                 style="fill:#000000;fill-opacity:1;fill-rule:evenodd;stroke:none;stroke-width:0.264583"
                 d="m 59.849236,114.98083 h 0.179335 c 0,0.52804 0.06974,1.00626 0.19926,1.44464 l -0.16937,0.0598 -0.169373,0.0498 c -0.149445,-0.46827 -0.219186,-0.98635 -0.219186,-1.55424 z"
                 id="path381" />
              <path
                 style="fill:#000000;fill-opacity:1;fill-rule:evenodd;stroke:none;stroke-width:0.264583"
                 d="m 60.058461,116.48525 0.16937,-0.0598 c 0.139483,0.43837 0.348708,0.83689 0.637635,1.21549 l -0.149444,0.10959 -0.139483,0.1096 c -0.318818,-0.40849 -0.538004,-0.84686 -0.687451,-1.32509 z"
                 id="path383" />
              <path
                 style="fill:#000000;fill-opacity:1;fill-rule:evenodd;stroke:none;stroke-width:0.264583"
                 d="m 60.716022,117.75055 0.149444,-0.10959 c 0.288928,0.38856 0.657561,0.75719 1.125824,1.11586 l -0.109593,0.13948 -0.109594,0.13949 c -0.488188,-0.3786 -0.886711,-0.76716 -1.195564,-1.17564 z"
                 id="path385" />
              <path
                 style="fill:#000000;fill-opacity:1;fill-rule:evenodd;stroke:none;stroke-width:0.264583"
                 d="m 61.881697,118.8963 0.109593,-0.13948 c 0.468264,0.36863 1.036156,0.7273 1.703681,1.09593 l -0.08967,0.15941 -0.08967,0.15941 c -0.677487,-0.38856 -1.265306,-0.75719 -1.743533,-1.13578 z"
                 id="path387" />
              <path
                 style="fill:#000000;fill-opacity:1;fill-rule:evenodd;stroke:none;stroke-width:0.264583"
                 d="m 63.694971,119.85275 c 0,0 0,0 0,0 0.02989,0.0199 0.04982,0.0399 0.06974,0.0697 0.01,0.0299 0.01993,0.0598 0.01993,0.0897 0,0 0,0 0,0 h -0.179335 z"
                 id="path389" />
              <path
                 style="fill:#000000;fill-opacity:1;fill-rule:evenodd;stroke:none;stroke-width:0.264583"
                 d="m 63.605303,120.01216 h 0.179335 c -0.06974,5.2306 -0.09963,10.85972 -0.09963,16.6582 h -0.179335 -0.179335 c 0,-5.79848 0.02989,-11.4276 0.09963,-16.6582 z"
                 id="path391" />
              <path
                 style="fill:#000000;fill-opacity:1;fill-rule:evenodd;stroke:none;stroke-width:0.264583"
                 d="m 63.505672,136.67036 h 0.179335 c 0,7.07376 0.03985,14.38663 0.03985,21.53013 H 63.54552 63.366185 c 0,-7.1435 -0.03985,-14.45637 -0.03985,-21.53013 z"
                 id="path393" />
              <path
                 style="fill:#000000;fill-opacity:1;fill-rule:evenodd;stroke:none;stroke-width:0.264583"
                 d="m 63.545524,158.20049 h 0.179337 c 0,4.25422 -0.01993,8.44866 -0.04982,12.49366 h -0.179335 -0.179334 c 0.02989,-4.045 0.04981,-8.23944 0.04981,-12.49366 z"
                 id="path395" />
              <path
                 style="fill:#000000;fill-opacity:1;fill-rule:evenodd;stroke:none;stroke-width:0.264583"
                 d="m 63.675045,170.69415 c 0,0.0299 0,0.0498 -0.01,0.0697 l -0.169371,-0.0697 z"
                 id="path397" />
              <path
                 style="fill:#000000;fill-opacity:1;fill-rule:evenodd;stroke:none;stroke-width:0.264583"
                 d="m 63.49571,170.69415 0.169371,0.0697 c -0.139483,0.32878 -0.278964,0.58782 -0.418447,0.79704 l -0.149447,-0.0996 -0.149445,-0.0996 c 0.129519,-0.1893 0.259038,-0.42841 0.378595,-0.73727 z"
                 id="path399" />
              <path
                 style="fill:#000000;fill-opacity:1;fill-rule:evenodd;stroke:none;stroke-width:0.264583"
                 d="m 63.097187,171.4613 0.149447,0.0996 c -0.139483,0.21919 -0.278966,0.3786 -0.418449,0.48819 l -0.119554,-0.12952 -0.109596,-0.13948 c 0.109596,-0.0996 0.22915,-0.23912 0.348707,-0.41845 z"
                 id="path401" />
              <path
                 style="fill:#000000;fill-opacity:1;fill-rule:evenodd;stroke:none;stroke-width:0.264583"
                 d="m 62.708631,171.9196 0.119554,0.12952 c -0.149444,0.12952 -0.298892,0.20922 -0.438372,0.24908 l -0.04982,-0.16938 -0.05978,-0.16937 c 0.09963,-0.0299 0.209222,-0.0897 0.318815,-0.17933 z"
                 id="path403" />
              <path
                 style="fill:#000000;fill-opacity:1;fill-rule:evenodd;stroke:none;stroke-width:0.264583"
                 d="m 62.339997,172.12882 0.04982,0.16938 c -0.139483,0.0498 -0.278966,0.0697 -0.408485,0.0697 v -0.17934 -0.17933 c 0.09963,0 0.19926,-0.01 0.298892,-0.0498 z"
                 id="path405" />
              <path
                 style="fill:#000000;fill-opacity:1;fill-rule:evenodd;stroke:none;stroke-width:0.264583"
                 d="m 61.981328,172.1886 v 0.17934 c -0.239115,0 -0.458301,-0.0697 -0.637635,-0.0697 v -0.17934 -0.17933 c 0.179334,0 0.39852,0.0697 0.637635,0.0697 z"
                 id="path407" />
              <path
                 style="fill:#000000;fill-opacity:1;fill-rule:evenodd;stroke:none;stroke-width:0.264583"
                 d="m 61.343693,172.11886 v 0.17934 c 0,0 -0.01,0 -0.01993,0 l -0.01,-0.17934 -0.01,-0.17933 c 0.01,0 0.02989,0 0.03985,0 z"
                 id="path409" />
              <path
                 style="fill:#c8c8c8;fill-opacity:1;fill-rule:evenodd;stroke:none;stroke-width:0.264583"
                 d="m 17.307054,83.079173 c 23.283627,-33.794634 71.464891,-34.452194 95.854406,0.577855 0.25904,0.976378 0.13948,1.265306 -1.14575,2.560502 -14.396585,8.239435 -28.982475,16.61835 -43.389036,24.85778 -2.401091,-1.89297 -4.772294,-2.22175 -7.312871,-0.01 C 48.062959,103.18459 31.594054,93.988703 17.446537,85.669562 16.111489,83.945958 17.087868,83.497619 17.307054,83.079173 Z"
                 id="path411" />
              <path
                 style="fill:#000000;fill-opacity:1;fill-rule:evenodd;stroke:none;stroke-width:0.264583"
                 d="m 17.147645,82.999467 c 0,-0.01 0,-0.01 0,-0.01 0.01,0 0.01,-0.01 0.01,-0.01 l 0.149445,0.09963 z"
                 id="path413" />
              <path
                 style="fill:#000000;fill-opacity:1;fill-rule:evenodd;stroke:none;stroke-width:0.264583"
                 d="m 17.307054,83.079173 -0.149445,-0.09963 c 2.919172,-4.244255 6.236862,-7.960468 9.843485,-11.158604 l 0.119554,0.139482 0.119557,0.12952 c -3.586694,3.17821 -6.88446,6.874497 -9.783704,11.088865 z"
                 id="path415" />
              <path
                 style="fill:#000000;fill-opacity:1;fill-rule:evenodd;stroke:none;stroke-width:0.264583"
                 d="m 27.120648,71.960419 -0.119554,-0.139482 c 3.60662,-3.188173 7.502167,-5.858268 11.60694,-8.000321 l 0.0797,0.159408 0.08967,0.159409 c -4.074885,2.122127 -7.960469,4.782259 -11.537202,7.950506 z"
                 id="path417" />
              <path
                 style="fill:#000000;fill-opacity:1;fill-rule:evenodd;stroke:none;stroke-width:0.264583"
                 d="m 38.687739,63.980024 -0.0797,-0.159408 c 4.104775,-2.142054 8.408807,-3.746104 12.812471,-4.822112 l 0.03985,0.169372 0.03985,0.179334 c -4.373775,1.066046 -8.64792,2.660132 -12.722802,4.792223 z"
                 id="path419" />
              <path
                 style="fill:#000000;fill-opacity:1;fill-rule:evenodd;stroke:none;stroke-width:0.264583"
                 d="m 51.460357,59.167876 -0.03985,-0.169372 c 4.403665,-1.076008 8.916922,-1.623976 13.430179,-1.623976 v 0.179335 0.179335 c -4.493331,0 -8.966737,0.538004 -13.350475,1.614012 z"
                 id="path421" />
              <path
                 style="fill:#000000;fill-opacity:1;fill-rule:evenodd;stroke:none;stroke-width:0.264583"
                 d="m 64.850684,57.553863 v -0.179335 c 4.513257,0 9.036476,0.547968 13.470031,1.623976 l -0.0399,0.179335 -0.0498,0.169371 C 73.827383,58.271202 69.334051,57.733198 64.850684,57.733198 Z"
                 id="path423" />
              <path
                 style="fill:#000000;fill-opacity:1;fill-rule:evenodd;stroke:none;stroke-width:0.264583"
                 d="m 78.280865,59.177839 0.0399,-0.179335 c 4.43355,1.085971 8.77744,2.709947 12.94199,4.88189 l -0.0797,0.159408 -0.0797,0.159409 c -4.14463,-2.16198 -8.45862,-3.775992 -12.87225,-4.852001 z"
                 id="path425" />
              <path
                 style="fill:#000000;fill-opacity:1;fill-rule:evenodd;stroke:none;stroke-width:0.264583"
                 d="m 91.182995,64.039802 0.0797,-0.159408 c 4.16455,2.181905 8.14976,4.901815 11.856015,8.179656 l -0.11956,0.129519 -0.11956,0.139483 C 99.203235,69.071138 95.237945,66.361191 91.103285,64.199211 Z"
                 id="path427" />
              <path
                 style="fill:#000000;fill-opacity:1;fill-rule:evenodd;stroke:none;stroke-width:0.264583"
                 d="m 102.99916,72.189569 0.11956,-0.129519 c 3.70625,3.27784 7.13353,7.103646 10.19219,11.497349 l -0.14945,0.09963 -0.14944,0.09963 c -3.03873,-4.363812 -6.44609,-8.169693 -10.13242,-11.427607 z"
                 id="path429" />
              <path
                 style="fill:#000000;fill-opacity:1;fill-rule:evenodd;stroke:none;stroke-width:0.264583"
                 d="m 113.31091,83.557399 c 0,0 0,0.01 0.01,0.01 0,0.01 0.01,0.02989 0.01,0.03985 l -0.16937,0.04981 z"
                 id="path431" />
              <path
                 style="fill:#000000;fill-opacity:1;fill-rule:evenodd;stroke:none;stroke-width:0.264583"
                 d="m 113.16146,83.657028 0.16937,-0.04981 c 0.0797,0.278963 0.11956,0.508113 0.11956,0.717338 h -0.17934 -0.17933 c 0,-0.179335 -0.0399,-0.378595 -0.0996,-0.617709 z"
                 id="path433" />
              <path
                 style="fill:#000000;fill-opacity:1;fill-rule:evenodd;stroke:none;stroke-width:0.264583"
                 d="m 113.27105,84.324553 h 0.17934 c 0,0.159409 -0.0199,0.298892 -0.0697,0.448336 l -0.16937,-0.05978 -0.16938,-0.05978 c 0.0399,-0.109593 0.0498,-0.209224 0.0498,-0.328779 z"
                 id="path435" />
              <path
                 style="fill:#000000;fill-opacity:1;fill-rule:evenodd;stroke:none;stroke-width:0.264583"
                 d="m 113.21128,84.713112 0.16937,0.05978 c -0.0498,0.139484 -0.12952,0.288928 -0.23912,0.448337 l -0.13948,-0.109593 -0.14944,-0.09963 c 0.0897,-0.129518 0.14944,-0.239112 0.18929,-0.358669 z"
                 id="path437" />
              <path
                 style="fill:#000000;fill-opacity:1;fill-rule:evenodd;stroke:none;stroke-width:0.264583"
                 d="m 113.00205,85.111633 0.13948,0.109593 c -0.0996,0.149445 -0.22915,0.308853 -0.39852,0.498152 l -0.12952,-0.119557 -0.13948,-0.119555 c 0.15941,-0.179334 0.27897,-0.328782 0.3786,-0.468265 z"
                 id="path439" />
              <path
                 style="fill:#000000;fill-opacity:1;fill-rule:evenodd;stroke:none;stroke-width:0.264583"
                 d="m 112.61349,85.599821 0.12952,0.119557 c -0.1594,0.179335 -0.35867,0.388559 -0.59778,0.627671 l -0.12952,-0.129519 -0.12952,-0.129518 c 0.23911,-0.229151 0.42841,-0.428411 0.58782,-0.607746 z"
                 id="path441" />
              <path
                 style="fill:#000000;fill-opacity:1;fill-rule:evenodd;stroke:none;stroke-width:0.264583"
                 d="m 112.14523,86.347049 c -0.01,0.01 -0.0299,0.01993 -0.0399,0.02989 0,0 0,0 0,0 l -0.0897,-0.159409 z"
                 id="path443" />
              <path
                 style="fill:#000000;fill-opacity:1;fill-rule:evenodd;stroke:none;stroke-width:0.264583"
                 d="m 112.01571,86.21753 0.0897,0.159409 C 97.708795,94.616374 83.122895,102.99529 68.716342,111.23472 l -0.08967,-0.15941 -0.08967,-0.1594 C 82.943565,102.67647 97.529455,94.297556 111.92604,86.058122 Z"
                 id="path445" />
              <path
                 style="fill:#000000;fill-opacity:1;fill-rule:evenodd;stroke:none;stroke-width:0.264583"
                 d="m 68.716342,111.23472 c -0.02989,0.01 -0.05978,0.0199 -0.08967,0.0199 -0.02989,0 -0.05978,-0.01 -0.08967,-0.0199 -0.01,-0.01 -0.01,-0.01 -0.01993,-0.0199 l 0.109593,-0.13948 z"
                 id="path447" />
              <path
                 style="fill:#000000;fill-opacity:1;fill-rule:evenodd;stroke:none;stroke-width:0.264583"
                 d="m 68.626674,111.07531 -0.109593,0.13949 c -0.607745,-0.47823 -1.225454,-0.85682 -1.8332,-1.11586 l 0.06974,-0.16938 0.06974,-0.1594 c 0.637636,0.269 1.275271,0.65756 1.912904,1.16567 z"
                 id="path449" />
              <path
                 style="fill:#000000;fill-opacity:1;fill-rule:evenodd;stroke:none;stroke-width:0.264583"
                 d="m 66.753623,109.92956 -0.06974,0.16938 c -0.597781,-0.25904 -1.205526,-0.38856 -1.813271,-0.38856 v -0.17934 -0.17933 c 0.657561,0 1.305158,0.13948 1.952754,0.41845 z"
                 id="path451" />
              <path
                 style="fill:#000000;fill-opacity:1;fill-rule:evenodd;stroke:none;stroke-width:0.264583"
                 d="m 64.87061,109.53104 v 0.17934 c -0.557932,0 -1.115862,0.10959 -1.683756,0.35867 l -0.06974,-0.16937 -0.06974,-0.16938 c 0.617707,-0.25903 1.225452,-0.37859 1.823236,-0.37859 z"
                 id="path453" />
              <path
                 style="fill:#000000;fill-opacity:1;fill-rule:evenodd;stroke:none;stroke-width:0.264583"
                 d="m 63.117113,109.89968 0.06974,0.16937 c -0.577855,0.23911 -1.165674,0.61771 -1.753494,1.13579 l -0.119556,-0.13949 -0.119555,-0.13948 c 0.627671,-0.538 1.245378,-0.93653 1.853126,-1.19557 z"
                 id="path455" />
              <path
                 style="fill:#000000;fill-opacity:1;fill-rule:evenodd;stroke:none;stroke-width:0.264583"
                 d="m 61.43336,111.20484 c -0.01,0 -0.01993,0.01 -0.02989,0.0199 -0.02989,0.01 -0.05978,0.0199 -0.08967,0.0199 -0.02989,0 -0.05978,-0.01 -0.08967,-0.0199 0,0 0,0 0,-0.01 l 0.08967,-0.14945 z"
                 id="path457" />
              <path
                 style="fill:#000000;fill-opacity:1;fill-rule:evenodd;stroke:none;stroke-width:0.264583"
                 d="m 61.313803,111.06535 -0.08967,0.14945 C 47.973292,103.33403 31.504387,94.148109 17.35687,85.828971 l 0.08967,-0.159409 0.08967,-0.159408 c 14.147517,8.31914 30.616422,17.524986 43.867266,25.405756 z"
                 id="path459" />
              <path
                 style="fill:#000000;fill-opacity:1;fill-rule:evenodd;stroke:none;stroke-width:0.264583"
                 d="m 17.35687,85.828971 c -0.01993,-0.01993 -0.03985,-0.02989 -0.04982,-0.04982 l 0.139483,-0.109593 z"
                 id="path461" />
              <path
                 style="fill:#000000;fill-opacity:1;fill-rule:evenodd;stroke:none;stroke-width:0.264583"
                 d="m 17.446537,85.669562 -0.139483,0.109593 c -0.139483,-0.16937 -0.249076,-0.338743 -0.338743,-0.488188 l 0.149447,-0.08967 0.159409,-0.08967 c 0.0797,0.139483 0.189296,0.288928 0.308853,0.448336 z"
                 id="path463" />
              <path
                 style="fill:#000000;fill-opacity:1;fill-rule:evenodd;stroke:none;stroke-width:0.264583"
                 d="m 17.117758,85.2013 -0.149447,0.08967 C 16.868681,85.141523 16.79894,85.00204 16.73916,84.872518 l 0.169373,-0.06974 0.159409,-0.07971 c 0.04982,0.119557 0.119557,0.249076 0.209225,0.388559 z"
                 id="path465" />
              <path
                 style="fill:#000000;fill-opacity:1;fill-rule:evenodd;stroke:none;stroke-width:0.264583"
                 d="m 16.908533,84.802779 -0.169373,0.06974 c -0.05978,-0.13948 -0.09963,-0.259037 -0.119554,-0.378595 l 0.16937,-0.03985 0.179335,-0.03985 c 0.01993,0.09963 0.04982,0.199261 0.09963,0.308854 z"
                 id="path467" />
              <path
                 style="fill:#000000;fill-opacity:1;fill-rule:evenodd;stroke:none;stroke-width:0.264583"
                 d="m 16.788976,84.454072 -0.16937,0.03985 c -0.02989,-0.119554 -0.03986,-0.22915 -0.03986,-0.328779 h 0.179338 0.179334 c 0,0.06974 0.01,0.159409 0.02989,0.249076 z"
                 id="path469" />
              <path
                 style="fill:#000000;fill-opacity:1;fill-rule:evenodd;stroke:none;stroke-width:0.264583"
                 d="m 16.759089,84.165144 h -0.179338 c 0,-0.169373 0.02989,-0.308853 0.07971,-0.438375 l 0.169371,0.06974 0.159408,0.05978 c -0.02989,0.08967 -0.04981,0.189296 -0.04981,0.308853 z"
                 id="path471" />
              <path
                 style="fill:#000000;fill-opacity:1;fill-rule:evenodd;stroke:none;stroke-width:0.264583"
                 d="m 16.828828,83.796511 -0.169371,-0.06974 c 0.03985,-0.119554 0.109593,-0.22915 0.179335,-0.328779 l 0.139483,0.109593 0.149444,0.09963 c -0.04982,0.0797 -0.09963,0.159406 -0.139483,0.249076 z"
                 id="path473" />
              <path
                 style="fill:#000000;fill-opacity:1;fill-rule:evenodd;stroke:none;stroke-width:0.264583"
                 d="M 16.978275,83.507583 16.838792,83.39799 c 0.109593,-0.159409 0.249076,-0.278966 0.308853,-0.398523 l 0.159409,0.07971 0.159409,0.0797 c -0.06974,0.139483 -0.209225,0.278966 -0.338744,0.448339 z"
                 id="path475" />
              <path
                 style="fill:#c8c8c8;fill-opacity:1;fill-rule:evenodd;stroke:none;stroke-width:0.264583"
                 d="m -23.900081,117.72066 c 0,-1.87305 0,-3.7461 0,-5.61915 1.47453,-0.0598 2.899245,-0.0697 4.353849,-0.0996 3.118432,-2.07231 6.246827,-4.09481 9.365258,-6.13723 1.2553426,-0.01 2.5206486,-0.0199 3.7759926,-0.0299 0,6.12727 0,12.2645 0,18.39177 -1.195565,-0.01 -2.381167,-0.01 -3.576732,-0.0199 -3.2479506,-2.05238 -6.4062346,-4.23429 -9.6143336,-6.34645 -1.434678,-0.0498 -2.909208,-0.0299 -4.304034,-0.13949 z"
                 id="path477" />
              <path
                 style="fill:#000000;fill-opacity:1;fill-rule:evenodd;stroke:none;stroke-width:0.264583"
                 d="m -23.910044,117.9 c -0.02989,0 -0.05978,-0.01 -0.0797,-0.0199 -0.02989,-0.0199 -0.04982,-0.0399 -0.06974,-0.0697 -0.01,-0.0299 -0.01993,-0.0598 -0.01993,-0.0897 h 0.179334 z"
                 id="path479" />
              <path
                 style="fill:#000000;fill-opacity:1;fill-rule:evenodd;stroke:none;stroke-width:0.264583"
                 d="m -23.720746,117.72066 h -0.179335 -0.179334 v -5.61915 h 0.179334 0.179335 z"
                 id="path481" />
              <path
                 style="fill:#000000;fill-opacity:1;fill-rule:evenodd;stroke:none;stroke-width:0.264583"
                 d="m -24.079415,112.10151 c 0,-0.0299 0.01,-0.0598 0.01993,-0.0897 0.01993,-0.0299 0.03985,-0.0498 0.06974,-0.0697 0.02989,-0.01 0.04981,-0.0199 0.0797,-0.0199 l 0.01,0.17933 z"
                 id="path483" />
              <path
                 style="fill:#000000;fill-opacity:1;fill-rule:evenodd;stroke:none;stroke-width:0.264583"
                 d="m -23.900081,112.10151 -0.01,-0.17934 c 1.47453,-0.0598 2.909208,-0.0697 4.363812,-0.0996 v 0.17934 0.17933 c -1.454604,0.0299 -2.869356,0.0399 -4.343886,0.0996 z"
                 id="path485" />
              <path
                 style="fill:#000000;fill-opacity:1;fill-rule:evenodd;stroke:none;stroke-width:0.264583"
                 d="m -19.446602,112.15132 c 0,0 -0.01,0 -0.01,0.01 -0.02989,0.01 -0.04981,0.0199 -0.08967,0.0199 v -0.17933 z"
                 id="path487" />
              <path
                 style="fill:#000000;fill-opacity:1;fill-rule:evenodd;stroke:none;stroke-width:0.264583"
                 d="m -19.546232,112.00188 -0.09963,-0.14945 c 3.118431,-2.07231 6.246826,-4.09481 9.365258,-6.13723 l 0.09963,0.14944 0.09963,0.14945 c -3.118431,2.04242 -6.246826,4.06492 -9.365258,6.13723 z"
                 id="path489" />
              <path
                 style="fill:#000000;fill-opacity:1;fill-rule:evenodd;stroke:none;stroke-width:0.264583"
                 d="m -10.280604,105.7152 c 0,0 0.01,0 0.01,-0.01 0.02989,-0.01 0.05978,-0.0199 0.08967,-0.0199 v 0.17933 z"
                 id="path491" />
              <path
                 style="fill:#000000;fill-opacity:1;fill-rule:evenodd;stroke:none;stroke-width:0.264583"
                 d="m -10.180974,105.86464 v -0.17933 c 1.2553426,-0.01 2.5206486,-0.0199 3.7759926,-0.0299 v 0.17933 0.17934 c -1.255344,0.01 -2.52065,0.0199 -3.7759926,0.0299 z"
                 id="path493" />
              <path
                 style="fill:#000000;fill-opacity:1;fill-rule:evenodd;stroke:none;stroke-width:0.264583"
                 d="m -6.4049814,105.65542 c 0,0 0,0 0,0 0.02989,0 0.05978,0.01 0.08967,0.0199 0.02989,0.0199 0.04981,0.0399 0.06974,0.0697 0.01,0.0299 0.01993,0.0598 0.01993,0.0897 v 0 h -0.179334 z"
                 id="path495" />
              <path
                 style="fill:#000000;fill-opacity:1;fill-rule:evenodd;stroke:none;stroke-width:0.264583"
                 d="m -6.5843164,105.83476 h 0.179335 0.179334 v 18.39177 h -0.179334 -0.179335 z"
                 id="path497" />
              <path
                 style="fill:#000000;fill-opacity:1;fill-rule:evenodd;stroke:none;stroke-width:0.264583"
                 d="m -6.2256474,124.22653 c 0,0.0299 -0.01,0.0598 -0.01993,0.0897 -0.01993,0.0299 -0.03985,0.0498 -0.06974,0.0697 -0.02989,0.01 -0.05978,0.0199 -0.08967,0.0199 0,0 0,0 0,0 v -0.17933 z"
                 id="path499" />
              <path
                 style="fill:#000000;fill-opacity:1;fill-rule:evenodd;stroke:none;stroke-width:0.264583"
                 d="m -6.4049814,124.22653 v 0.17933 c -1.195565,-0.01 -2.381167,-0.01 -3.576732,-0.0199 v -0.17933 -0.17934 c 1.195565,0.01 2.381167,0.01 3.576732,0.0199 z"
                 id="path501" />
              <path
                 style="fill:#000000;fill-opacity:1;fill-rule:evenodd;stroke:none;stroke-width:0.264583"
                 d="m -9.9817134,124.38594 c -0.02989,0 -0.05978,-0.01 -0.08967,-0.0199 0,-0.01 0,-0.01 -0.01,-0.01 l 0.09963,-0.14945 z"
                 id="path503" />
              <path
                 style="fill:#000000;fill-opacity:1;fill-rule:evenodd;stroke:none;stroke-width:0.264583"
                 d="m -9.9817134,124.2066 -0.09963,0.14945 c -3.247951,-2.05239 -6.406236,-4.23429 -9.614335,-6.34646 l 0.09963,-0.14944 0.09963,-0.14945 c 3.2081,2.11216 6.366383,4.29407 9.6143312,6.34646 z"
                 id="path505" />
              <path
                 style="fill:#000000;fill-opacity:1;fill-rule:evenodd;stroke:none;stroke-width:0.264583"
                 d="m -19.586084,117.68081 c 0.02989,0 0.04981,0.01 0.0797,0.0199 0,0.01 0.01,0.01 0.01,0.01 l -0.09963,0.14945 z"
                 id="path507" />
              <path
                 style="fill:#000000;fill-opacity:1;fill-rule:evenodd;stroke:none;stroke-width:0.264583"
                 d="m -19.596047,117.86015 -0.01,0.17933 c -1.434681,-0.0498 -2.909211,-0.0299 -4.304037,-0.13948 l 0.01,-0.17934 0.01,-0.17933 c 1.394826,0.10959 2.869356,0.0897 4.304034,0.13948 z"
                 id="path509" />
              <path
                 style="fill:#c8c8c8;fill-opacity:1;fill-rule:evenodd;stroke:none;stroke-width:0.264583"
                 d="m 148.97859,117.75055 c -3.11843,2.04242 -6.24683,4.09481 -9.36526,6.13724 -1.25534,0.01 -2.52065,0.0199 -3.77599,0.0299 0,-6.12727 0,-12.26451 0,-18.39178 1.19556,0.01 2.38117,0.01 3.57673,0.0199 3.24795,2.05239 6.40624,4.2343 9.61434,6.34646 -0.0199,1.95276 -0.0299,3.90551 -0.0498,5.85827 z"
                 id="path511" />
              <path
                 style="fill:#000000;fill-opacity:1;fill-rule:evenodd;stroke:none;stroke-width:0.264583"
                 d="m 149.15793,117.75055 c 0,0.0299 -0.01,0.0598 -0.0199,0.0897 -0.0199,0.0299 -0.0399,0.0399 -0.0598,0.0598 l -0.0996,-0.14944 z"
                 id="path513" />
              <path
                 style="fill:#000000;fill-opacity:1;fill-rule:evenodd;stroke:none;stroke-width:0.264583"
                 d="m 148.97859,117.75055 0.0996,0.14945 c -3.11843,2.04242 -6.24683,4.09481 -9.36526,6.13723 l -0.0996,-0.14944 -0.0996,-0.14945 c 3.11843,-2.04242 6.24683,-4.09481 9.36526,-6.13723 z"
                 id="path515" />
              <path
                 style="fill:#000000;fill-opacity:1;fill-rule:evenodd;stroke:none;stroke-width:0.264583"
                 d="m 139.71296,124.03723 c 0,0 -0.01,0 -0.01,0.01 -0.0299,0.01 -0.0598,0.0199 -0.0897,0.0199 v -0.17933 z"
                 id="path517" />
              <path
                 style="fill:#000000;fill-opacity:1;fill-rule:evenodd;stroke:none;stroke-width:0.264583"
                 d="m 139.61333,123.88779 v 0.17933 c -1.25534,0.01 -2.52065,0.0199 -3.77599,0.0299 v -0.17934 -0.17933 c 1.25534,-0.01 2.52065,-0.0199 3.77599,-0.0299 z"
                 id="path519" />
              <path
                 style="fill:#000000;fill-opacity:1;fill-rule:evenodd;stroke:none;stroke-width:0.264583"
                 d="m 135.83734,124.09701 c 0,0 0,0 0,0 -0.0299,0 -0.0598,-0.01 -0.0897,-0.0199 -0.0299,-0.0199 -0.0498,-0.0399 -0.0697,-0.0697 -0.01,-0.0299 -0.0199,-0.0598 -0.0199,-0.0897 h 0.17934 z"
                 id="path521" />
              <path
                 style="fill:#000000;fill-opacity:1;fill-rule:evenodd;stroke:none;stroke-width:0.264583"
                 d="M 136.01667,123.91767 H 135.83734 135.658 V 105.5259 h 0.17934 0.17933 z"
                 id="path523" />
              <path
                 style="fill:#000000;fill-opacity:1;fill-rule:evenodd;stroke:none;stroke-width:0.264583"
                 d="m 135.658,105.5259 c 0,-0.0299 0.01,-0.0598 0.0199,-0.0897 0.0199,-0.0299 0.0399,-0.0498 0.0697,-0.0697 0.0299,-0.01 0.0598,-0.0199 0.0897,-0.0199 0,0 0,0 0,0 v 0.17933 z"
                 id="path525" />
              <path
                 style="fill:#000000;fill-opacity:1;fill-rule:evenodd;stroke:none;stroke-width:0.264583"
                 d="m 135.83734,105.5259 v -0.17933 c 1.19556,0.01 2.38117,0.01 3.57673,0.0199 v 0.17933 0.17934 c -1.19556,-0.01 -2.38117,-0.01 -3.57673,-0.0199 z"
                 id="path527" />
              <path
                 style="fill:#000000;fill-opacity:1;fill-rule:evenodd;stroke:none;stroke-width:0.264583"
                 d="m 139.41407,105.36649 c 0.0299,0 0.0598,0.01 0.0897,0.0199 0,0.01 0,0.01 0.01,0.01 l -0.0996,0.14945 z"
                 id="path529" />
              <path
                 style="fill:#000000;fill-opacity:1;fill-rule:evenodd;stroke:none;stroke-width:0.264583"
                 d="m 139.41407,105.54583 0.0996,-0.14945 c 3.24795,2.05239 6.40624,4.23429 9.61434,6.34646 l -0.0996,0.14944 -0.0996,0.14945 c -3.20809,-2.11217 -6.36638,-4.29407 -9.61433,-6.34646 z"
                 id="path531" />
              <path
                 style="fill:#000000;fill-opacity:1;fill-rule:evenodd;stroke:none;stroke-width:0.264583"
                 d="m 149.12804,111.74284 c 0.0199,0.0199 0.0399,0.0299 0.0598,0.0598 0.01,0.0299 0.0199,0.0598 0.0199,0.0897 0,0 0,0 0,0 h -0.17933 z"
                 id="path533" />
              <path
                 style="fill:#000000;fill-opacity:1;fill-rule:evenodd;stroke:none;stroke-width:0.264583"
                 d="m 149.02841,111.89228 h 0.17933 c -0.0199,1.95276 -0.0299,3.90552 -0.0498,5.85827 h -0.17934 -0.17933 c 0.0199,-1.95275 0.0299,-3.90551 0.0498,-5.85827 z"
                 id="path535" />
            </g>
          </g>
        </g>
      </g>
    </g>
  </g>
</svg>
