<?xml version="1.0" encoding="UTF-8" standalone="no"?>
<svg
   id="svg2"
   version="1.1"
   viewBox="0 0 509.69922 146.59685"
   height="146.59685mm"
   width="509.69922mm"
   sodipodi:docname="thumbnail.svg"
   inkscape:version="1.2.1 (9c6d41e410, 2022-07-14)"
   xmlns:inkscape="http://www.inkscape.org/namespaces/inkscape"
   xmlns:sodipodi="http://sodipodi.sourceforge.net/DTD/sodipodi-0.dtd"
   xmlns:xlink="http://www.w3.org/1999/xlink"
   xmlns="http://www.w3.org/2000/svg"
   xmlns:svg="http://www.w3.org/2000/svg"
   xmlns:rdf="http://www.w3.org/1999/02/22-rdf-syntax-ns#"
   xmlns:cc="http://creativecommons.org/ns#"
   xmlns:dc="http://purl.org/dc/elements/1.1/">
  <sodipodi:namedview
     id="namedview335"
     pagecolor="#ffffff"
     bordercolor="#000000"
     borderopacity="0.25"
     inkscape:showpageshadow="2"
     inkscape:pageopacity="0.0"
     inkscape:pagecheckerboard="0"
     inkscape:deskcolor="#d1d1d1"
     inkscape:document-units="mm"
     showgrid="false"
     inkscape:zoom="0.39108446"
     inkscape:cx="1962.4917"
     inkscape:cy="629.02014"
     inkscape:window-width="2400"
     inkscape:window-height="1434"
     inkscape:window-x="2391"
     inkscape:window-y="-9"
     inkscape:window-maximized="1"
     inkscape:current-layer="svg2" />
  <!-- Working space 10 10 410 287 -->
  <!-- Title block 220 227 410 287 -->
  <metadata
     id="metadata849">
    <rdf:RDF>
      <cc:Work
         rdf:about="">
        <dc:format>image/svg+xml</dc:format>
        <dc:type
           rdf:resource="http://purl.org/dc/dcmitype/StillImage" />
      </cc:Work>
    </rdf:RDF>
  </metadata>
  <defs
     id="defs847">
    <linearGradient
       gradientUnits="userSpaceOnUse"
       id="defitem29"
       y2="485.909"
       x2="655.35199"
       y1="807.466"
       x1="649.42902">
      <stop
         id="stop92"
         offset="0.0000000"
         style="stop-color:#ffffff;stop-opacity:1.0000000;" />
      <stop
         id="stop93"
         offset="1.0000000"
         style="stop-color:#ffffff;stop-opacity:0.13756600;" />
    </linearGradient>
    <linearGradient
       xlink:href="#defitem29"
       id="linearGradient3448"
       gradientUnits="userSpaceOnUse"
       x1="649.42902"
       y1="807.466"
       x2="655.35199"
       y2="485.909" />
    <radialGradient
       gradientUnits="userSpaceOnUse"
       id="defitem28"
       fy="345.56"
       fx="1049.72"
       r="1202.15"
       cy="345.56"
       cx="1049.72">
      <stop
         id="stop89"
         offset="0.0000000"
         style="stop-color:#ffffff;stop-opacity:1.0000000;" />
      <stop
         id="stop90"
         offset="1.0000000"
         style="stop-color:#a8a8a8;stop-opacity:1.0000000;" />
    </radialGradient>
    <radialGradient
       xlink:href="#defitem28"
       id="radialGradient3446"
       gradientUnits="userSpaceOnUse"
       cx="1092.7045"
       cy="64.845284"
       fx="1089.4004"
       fy="64.844765"
       r="1202.15" />
    <linearGradient
       gradientUnits="userSpaceOnUse"
       id="defitem30"
       y2="636.70697"
       x2="980"
       y1="636.70697"
       x1="287.5">
      <stop
         id="stop95"
         offset="0.0000000"
         style="stop-color:#464646;stop-opacity:1.0000000;" />
      <stop
         id="stop96"
         offset="1.0000000"
         style="stop-color:#c2c2c2;stop-opacity:1.0000000;" />
    </linearGradient>
    <linearGradient
       xlink:href="#defitem30"
       id="linearGradient3444"
       gradientUnits="userSpaceOnUse"
       gradientTransform="matrix(1,0,0,1.016038,0,-11.73855)"
       x1="287.5"
       y1="636.70697"
       x2="980"
       y2="636.70697" />
    <linearGradient
       gradientUnits="userSpaceOnUse"
       id="defitem27"
       y2="317.44699"
       x2="985.98199"
       y1="403.18799"
       x1="921.091">
      <stop
         id="stop86"
         offset="0.0000000"
         style="stop-color:#7e7e7e;stop-opacity:1.0000000;" />
      <stop
         id="stop87"
         offset="1.0000000"
         style="stop-color:#e5e5e5;stop-opacity:1.0000000;" />
    </linearGradient>
    <linearGradient
       xlink:href="#defitem27"
       id="linearGradient3442"
       gradientUnits="userSpaceOnUse"
       x1="921.091"
       y1="403.18799"
       x2="985.98199"
       y2="317.44699" />
    <linearGradient
       gradientUnits="userSpaceOnUse"
       id="defitem26"
       y2="360.27499"
       x2="293.37"
       y1="346.30399"
       x1="530.76099">
      <stop
         id="stop83"
         offset="0.0000000"
         style="stop-color:#5f5f5f;stop-opacity:1.0000000;" />
      <stop
         id="stop84"
         offset="1.0000000"
         style="stop-color:#e5e5e5;stop-opacity:1.0000000;" />
    </linearGradient>
    <linearGradient
       xlink:href="#defitem26"
       id="linearGradient3440"
       gradientUnits="userSpaceOnUse"
       x1="530.76099"
       y1="346.30399"
       x2="293.37"
       y2="360.27499" />
    <linearGradient
       gradientUnits="userSpaceOnUse"
       id="defitem25"
       y2="337.60999"
       x2="308.75"
       y1="412.91901"
       x1="164.013">
      <stop
         id="stop80"
         offset="0.0000000"
         style="stop-color:#ffffff;stop-opacity:1.0000000;" />
      <stop
         id="stop81"
         offset="1.0000000"
         style="stop-color:#bfbfbf;stop-opacity:1.0000000;" />
    </linearGradient>
    <linearGradient
       xlink:href="#defitem25"
       id="linearGradient3438"
       gradientUnits="userSpaceOnUse"
       x1="164.013"
       y1="412.91901"
       x2="308.75"
       y2="337.60999" />
    <linearGradient
       gradientUnits="userSpaceOnUse"
       id="defitem24"
       y2="380.47198"
       x2="992.48901"
       y1="270.854"
       x1="1094.25">
      <stop
         id="stop77"
         offset="0.0000000"
         style="stop-color:#6a6a6a;stop-opacity:1.0000000;" />
      <stop
         id="stop78"
         offset="1.0000000"
         style="stop-color:#e6e6e6;stop-opacity:1.0000000;" />
    </linearGradient>
    <linearGradient
       xlink:href="#defitem24"
       id="linearGradient3436"
       gradientUnits="userSpaceOnUse"
       x1="1094.25"
       y1="270.854"
       x2="992.48901"
       y2="380.47198" />
    <linearGradient
       gradientUnits="userSpaceOnUse"
       id="defitem23"
       y2="549.37799"
       x2="1049.84"
       y1="476.465"
       x1="1170.91">
      <stop
         id="stop74"
         offset="0.0000000"
         style="stop-color:#5f5f5f;stop-opacity:1.0000000;" />
      <stop
         id="stop75"
         offset="1.0000000"
         style="stop-color:#ebebeb;stop-opacity:1.0000000;" />
    </linearGradient>
    <linearGradient
       xlink:href="#defitem23"
       id="linearGradient3434"
       gradientUnits="userSpaceOnUse"
       x1="1170.91"
       y1="476.465"
       x2="1049.84"
       y2="549.37799" />
    <linearGradient
       gradientUnits="userSpaceOnUse"
       id="defitem22"
       y2="313.276"
       x2="576.14899"
       y1="105.486"
       x1="783.716">
      <stop
         id="stop71"
         offset="0.0000000"
         style="stop-color:#5a5a5a;stop-opacity:1.0000000;" />
      <stop
         id="stop72"
         offset="1.0000000"
         style="stop-color:#c7c7c7;stop-opacity:1.0000000;" />
    </linearGradient>
    <linearGradient
       xlink:href="#defitem22"
       id="linearGradient3432"
       gradientUnits="userSpaceOnUse"
       x1="783.716"
       y1="105.486"
       x2="576.14899"
       y2="313.276" />
    <linearGradient
       gradientUnits="userSpaceOnUse"
       id="defitem21"
       y2="484.716"
       x2="128.05499"
       y1="418.698"
       x1="280.04401">
      <stop
         id="stop68"
         offset="0.0000000"
         style="stop-color:#666666;stop-opacity:1.0000000;" />
      <stop
         id="stop69"
         offset="1.0000000"
         style="stop-color:#d8d8d8;stop-opacity:1.0000000;" />
    </linearGradient>
    <linearGradient
       xlink:href="#defitem21"
       id="linearGradient3430"
       gradientUnits="userSpaceOnUse"
       x1="280.04401"
       y1="418.698"
       x2="128.05499"
       y2="484.716" />
    <linearGradient
       gradientUnits="userSpaceOnUse"
       id="defitem20"
       y2="584.40997"
       x2="220"
       y1="636.95398"
       x1="129.687">
      <stop
         id="stop65"
         offset="0.0000000"
         style="stop-color:#ffffff;stop-opacity:1.0000000;" />
      <stop
         id="stop66"
         offset="1.0000000"
         style="stop-color:#bbbbbb;stop-opacity:1.0000000;" />
    </linearGradient>
    <linearGradient
       xlink:href="#defitem20"
       id="linearGradient3428"
       gradientUnits="userSpaceOnUse"
       x1="129.687"
       y1="636.95398"
       x2="220"
       y2="584.40997" />
    <linearGradient
       gradientUnits="userSpaceOnUse"
       id="defitem19"
       y2="583.75299"
       x2="1127.98"
       y1="629.02802"
       x1="1048.72">
      <stop
         id="stop62"
         offset="0.0000000"
         style="stop-color:#5e5e5e;stop-opacity:1.0000000;" />
      <stop
         id="stop63"
         offset="1.0000000"
         style="stop-color:#ededed;stop-opacity:1.0000000;" />
    </linearGradient>
    <linearGradient
       xlink:href="#defitem19"
       id="linearGradient3426"
       gradientUnits="userSpaceOnUse"
       x1="1048.72"
       y1="629.02802"
       x2="1127.98"
       y2="583.75299" />
    <linearGradient
       gradientUnits="userSpaceOnUse"
       id="defitem18"
       y2="291.97699"
       x2="581.32397"
       y1="387.27301"
       x1="370.022">
      <stop
         id="stop59"
         offset="0.0000000"
         style="stop-color:#636363;stop-opacity:1.0000000;" />
      <stop
         id="stop60"
         offset="1.0000000"
         style="stop-color:#d6d6d6;stop-opacity:1.0000000;" />
    </linearGradient>
    <linearGradient
       xlink:href="#defitem18"
       id="linearGradient3424"
       gradientUnits="userSpaceOnUse"
       x1="370.022"
       y1="387.27301"
       x2="581.32397"
       y2="291.97699" />
    <linearGradient
       gradientUnits="userSpaceOnUse"
       id="defitem17"
       y2="351.939"
       x2="909.59399"
       y1="351.939"
       x1="732.15601">
      <stop
         id="stop56"
         offset="0.0000000"
         style="stop-color:#676767;stop-opacity:1.0000000;" />
      <stop
         id="stop57"
         offset="1.0000000"
         style="stop-color:#d3d3d3;stop-opacity:1.0000000;" />
    </linearGradient>
    <linearGradient
       xlink:href="#defitem17"
       id="linearGradient3422"
       gradientUnits="userSpaceOnUse"
       x1="732.15601"
       y1="351.939"
       x2="909.59399"
       y2="351.939" />
    <linearGradient
       gradientUnits="userSpaceOnUse"
       id="defitem16"
       y2="494.71301"
       x2="1073.01"
       y1="494.71301"
       x1="1014.43">
      <stop
         id="stop53"
         offset="0.0000000"
         style="stop-color:#666666;stop-opacity:1.0000000;" />
      <stop
         id="stop54"
         offset="1.0000000"
         style="stop-color:#dcdcdc;stop-opacity:1.0000000;" />
    </linearGradient>
    <linearGradient
       xlink:href="#defitem16"
       id="linearGradient3420"
       gradientUnits="userSpaceOnUse"
       x1="1014.43"
       y1="494.71301"
       x2="1073.01"
       y2="494.71301" />
    <linearGradient
       gradientUnits="userSpaceOnUse"
       id="defitem15"
       y2="516.37"
       x2="193.27699"
       y1="452.388"
       x1="272.59201">
      <stop
         id="stop50"
         offset="0.0000000"
         style="stop-color:#6e6e6e;stop-opacity:1.0000000;" />
      <stop
         id="stop51"
         offset="1.0000000"
         style="stop-color:#d8d8d8;stop-opacity:1.0000000;" />
    </linearGradient>
    <linearGradient
       xlink:href="#defitem15"
       id="linearGradient3418"
       gradientUnits="userSpaceOnUse"
       x1="272.59201"
       y1="452.388"
       x2="193.27699"
       y2="516.37" />
    <radialGradient
       gradientUnits="userSpaceOnUse"
       id="defitem14"
       fy="211.088"
       fx="1037.22"
       r="1164.28"
       cy="211.088"
       cx="1037.22">
      <stop
         id="stop47"
         offset="0.0000000"
         style="stop-color:#ffffff;stop-opacity:1.0000000;" />
      <stop
         id="stop48"
         offset="1.0000000"
         style="stop-color:#aaaaaa;stop-opacity:1.0000000;" />
    </radialGradient>
    <radialGradient
       xlink:href="#defitem14"
       id="radialGradient3416"
       gradientUnits="userSpaceOnUse"
       cx="1037.22"
       cy="211.088"
       fx="1037.22"
       fy="211.088"
       r="1164.28" />
    <linearGradient
       gradientUnits="userSpaceOnUse"
       id="defitem13"
       y2="686.83002"
       x2="379.241"
       y1="732.12903"
       x1="342.64999">
      <stop
         id="stop44"
         offset="0.0000000"
         style="stop-color:#ffffff;stop-opacity:1.0000000;" />
      <stop
         id="stop45"
         offset="1.0000000"
         style="stop-color:#989898;stop-opacity:1.0000000;" />
    </linearGradient>
    <linearGradient
       xlink:href="#defitem13"
       id="linearGradient3414"
       gradientUnits="userSpaceOnUse"
       x1="342.64999"
       y1="732.12903"
       x2="379.241"
       y2="686.83002" />
    <radialGradient
       gradientUnits="userSpaceOnUse"
       id="defitem12"
       fy="484.409"
       fx="632.78101"
       r="540.27899"
       cy="484.409"
       cx="632.78101">
      <stop
         id="stop41"
         offset="0.0000000"
         style="stop-color:#ffffff;stop-opacity:1.0000000;" />
      <stop
         id="stop42"
         offset="1.0000000"
         style="stop-color:#ededed;stop-opacity:1.0000000;" />
    </radialGradient>
    <radialGradient
       xlink:href="#defitem12"
       id="radialGradient3412"
       gradientUnits="userSpaceOnUse"
       cx="632.78101"
       cy="484.409"
       fx="632.78101"
       fy="484.409"
       r="540.27899" />
    <radialGradient
       xlink:href="#linearGradient3682"
       id="radialGradient3817"
       gradientUnits="userSpaceOnUse"
       gradientTransform="matrix(1.1149219,0.2722306,-0.7507171,3.0745639,-471.08629,-148.32863)"
       cx="270.58316"
       cy="33.899986"
       fx="270.58316"
       fy="33.899986"
       r="19.571428" />
    <linearGradient
       id="linearGradient3682">
      <stop
         style="stop-color:#ff6d0f;stop-opacity:1;"
         offset="0"
         id="stop3684" />
      <stop
         style="stop-color:#ff1000;stop-opacity:1;"
         offset="1"
         id="stop3686" />
    </linearGradient>
    <radialGradient
       xlink:href="#linearGradient3864"
       id="radialGradient3661"
       gradientUnits="userSpaceOnUse"
       gradientTransform="matrix(0.6186598,0.9666542,-1.0332462,0.6612786,-327.27568,-255.84136)"
       cx="282.64584"
       cy="29.149046"
       fx="282.64584"
       fy="29.149046"
       r="19.571428" />
    <linearGradient
       id="linearGradient3864">
      <stop
         id="stop3866"
         offset="0"
         style="stop-color:#71b2f8;stop-opacity:1;" />
      <stop
         id="stop3868"
         offset="1"
         style="stop-color:#002795;stop-opacity:1;" />
    </linearGradient>
  </defs>
  <path
     style="color:#000000;fill:#c8c8c8;fill-opacity:1;stroke:#000000;stroke-opacity:1;-inkscape-stroke:none"
     d="m 192.82616,0.63454957 v 0.34961 l -0.1582,-0.3125 L 112.99218,40.94705 H 0.84961 v 0.349609 H 0.5 v 12.5 0.939451 2.77344 4.46875 5.937499 7.10938 7.92773 8.34375 8.343752 7.925779 7.11133 5.9375 4.46875 2.77344 0.93945 12.5 h 0.34961 v 0.34961 H 3.75 v 2.34961 h 0.34961 v 0.35156 h 56.027343 v -0.35156 h 0.349609 v -2.34961 H 452.2246 v 2.34961 h 0.34961 v 0.35156 h 56.27539 v -0.35156 h 0.34961 v -2.69922 -12.5 -0.93945 -2.77344 -4.46875 -5.9375 -7.11133 -7.925779 -8.343751 -8.34375 -7.92773 -7.10938 -5.9375 -4.46875 -2.77344 -0.93945 -12.5 h -0.34961 v -0.34961 h -74.01758 l -80.47266,-40.27539043 -0.15625,0.3125 v -0.34961 z"
     id="path294" />
  <g
     id="g4939"
     transform="translate(3.91796,40.34841)">
    <path
       style="color:#000000;fill:#c8c8c8;fill-opacity:1;stroke:#000000;stroke-opacity:1;-inkscape-stroke:none"
       d="m 13.63477,0.50004004 v 0.34961 h -0.34961 v 0.0137 0.0391 0.0664 0.0937 0.11914 0.14843 0.17383 0.19922 0.22656 0.25391 0.2793 0.30859 0.33203 0.01 H 0.85156 V 3.46317 H 0.5 v 0.30859 0.32422 0.3418 0.35742 0.37695 0.39258 0.41016 0.42578 0.44336 0.46094 0.47851 0.49414 0.51172 0.52927 13.699206 0.17383 3.50586 56.691405 3.18946 0.0273 13.699219 0.4082 0.39258 0.37305 0.35742 0.34179 0.32227 0.30664 0.28906 0.27149 0.25586 0.23828 0.2207 0.20313 0.18554 h 0.35156 v 0.35157 h 12.4336 v 0.004 0.0977 0.0898 0.0801 0.0723 0.0605 0.0527 0.043 0.0332 0.0234 0.0137 0.004 h 0.34961 v 0.35157 h 474.59375 v -0.34961 h 0.3496 v -0.006 -0.0137 -0.0234 -0.0332 -0.043 -0.0527 -0.0605 -0.0703 -0.0801 -0.0899 -0.0996 -0.004 h 12.43556 v -0.35157 h 0.34961 v -0.18554 -0.20313 -0.2207 -0.23828 -0.25586 -0.27149 -0.28906 -0.30664 -0.32227 -0.34179 -0.35742 -0.37305 -0.39258 -0.4082 -13.699219 -0.0273 -3.18946 -56.691365 -3.50586 -0.17383 V 9.31861 8.78931 8.27759 7.78345 7.30493 6.844 6.40064 5.97486 5.5647 5.17212 4.79517 4.43775 4.09595 3.77173 3.46314 h -0.34961 V 3.11353 H 488.57812 V 3.10353 2.7715 2.4629 2.18361 1.9297 1.70314 1.50392 1.33009 1.18165 1.06251 0.96881 0.90241 0.86331 0.84961 h -0.3496 V 0.5 Z"
       id="114" />
    <g
       id="g4252"
       transform="translate(17.8084,-54.368915)">
      <path
         id="77"
         d="m 483.20424,79.37962 h -500.162"
         style="fill:none;stroke:#000000;stroke-width:0.7;stroke-linecap:butt;stroke-linejoin:miter" />
      <path
         id="79"
         d="m 483.20424,136.07112 h -500.162"
         style="fill:none;stroke:#000000;stroke-width:0.7;stroke-linecap:butt;stroke-linejoin:miter" />
      <path
         id="85"
         d="m 483.20424,152.98635 h -500.162"
         style="fill:none;stroke:#000000;stroke-width:0.7;stroke-linecap:butt;stroke-linejoin:miter" />
      <path
         id="103"
         d="m 483.20424,61.99992 h -500.162"
         style="fill:none;stroke:#000000;stroke-width:0.7;stroke-linecap:butt;stroke-linejoin:miter" />
    </g>
    <g
       id="g4237"
       transform="translate(140.65601,218.1994)">
      <path
         id="path722"
         d="m -28.87437,-180.82742 v 31.5046"
         style="fill:none;stroke:#000000;stroke-width:0.7;stroke-linecap:butt;stroke-linejoin:miter" />
      <path
         d="m -28.87437,-149.32282 -0.069,1.3073 -0.206,1.2774 -0.341,1.2338 -0.472,1.1767 -0.598,1.107 -0.718,1.0253 -0.83,0.9326 -0.933,0.8296 -1.025,0.7178 -1.107,0.5982 -1.177,0.4721 -1.234,0.3409 -1.278,0.206 -1.307,0.0689"
         id="path724"
         style="fill:none;stroke:#000000;stroke-width:0.7;stroke-linecap:butt;stroke-linejoin:miter" />
      <path
         id="3"
         d="m -40.16937,-138.02922 h -31.51"
         style="fill:none;stroke:#000000;stroke-width:0.7;stroke-linecap:butt;stroke-linejoin:miter" />
      <path
         d="m -71.67937,-138.02922 -1.307,-0.0689 -1.278,-0.206 -1.234,-0.3409 -1.177,-0.4721 -1.107,-0.5982 -1.025,-0.7178 -0.933,-0.8296 -0.83,-0.9326 -0.718,-1.0253 -0.598,-1.107 -0.472,-1.1767 -0.341,-1.2338 -0.206,-1.2774 -0.069,-1.3073"
         id="path727"
         style="fill:none;stroke:#000000;stroke-width:0.7;stroke-linecap:butt;stroke-linejoin:miter" />
      <path
         id="5"
         d="m -82.97437,-149.32282 v -31.5046"
         style="fill:none;stroke:#000000;stroke-width:0.7;stroke-linecap:butt;stroke-linejoin:miter" />
      <path
         d="m -82.97437,-180.82742 0.069,-1.3073 0.206,-1.2775 0.341,-1.2337 0.472,-1.1768 0.598,-1.107 0.718,-1.0253 0.83,-0.9325 0.933,-0.8297 1.025,-0.7178 1.107,-0.5982 1.177,-0.472 1.234,-0.3409 1.278,-0.2061 1.307,-0.0689"
         id="path730"
         style="fill:none;stroke:#000000;stroke-width:0.7;stroke-linecap:butt;stroke-linejoin:miter" />
      <path
         id="7"
         d="m -71.67937,-192.12112 h 31.51"
         style="fill:none;stroke:#000000;stroke-width:0.7;stroke-linecap:butt;stroke-linejoin:miter" />
      <path
         d="m -40.16937,-192.12112 1.307,0.0689 1.278,0.2061 1.234,0.3409 1.177,0.472 1.107,0.5982 1.025,0.7178 0.933,0.8297 0.83,0.9325 0.718,1.0253 0.598,1.107 0.472,1.1768 0.341,1.2337 0.206,1.2775 0.069,1.3073"
         id="path733"
         style="fill:none;stroke:#000000;stroke-width:0.7;stroke-linecap:butt;stroke-linejoin:miter" />
      <path
         d="m 81.92563,-149.32282 -0.0689,1.3073 -0.2061,1.2774 -0.3409,1.2338 -0.4722,1.1767 -0.5983,1.107 -0.7179,1.0253 -0.8297,0.9326 -0.9327,0.8296 -1.0255,0.7178 -1.1072,0.5982 -1.1769,0.4721 -1.2339,0.3409 -1.2777,0.206 -1.3074,0.0689"
         id="path735"
         style="fill:none;stroke:#000000;stroke-width:0.7;stroke-linecap:butt;stroke-linejoin:miter" />
      <path
         id="10"
         d="M 70.63033,-138.02922 H 39.12093"
         style="fill:none;stroke:#000000;stroke-width:0.7;stroke-linecap:butt;stroke-linejoin:miter" />
      <path
         d="m 39.12093,-138.02922 -1.3074,-0.0689 -1.2777,-0.206 -1.2339,-0.3409 -1.1769,-0.4721 -1.1072,-0.5982 -1.0255,-0.7178 -0.9327,-0.8296 -0.8297,-0.9326 -0.7179,-1.0253 -0.5983,-1.107 -0.4722,-1.1767 -0.3409,-1.2338 -0.2061,-1.2774 -0.0689,-1.3073"
         id="path738"
         style="fill:none;stroke:#000000;stroke-width:0.7;stroke-linecap:butt;stroke-linejoin:miter" />
      <path
         id="12"
         d="m 27.82563,-149.32282 v -31.5046"
         style="fill:none;stroke:#000000;stroke-width:0.7;stroke-linecap:butt;stroke-linejoin:miter" />
      <path
         d="m 27.82563,-180.82742 0.0689,-1.3073 0.2061,-1.2775 0.3409,-1.2337 0.4722,-1.1768 0.5983,-1.107 0.7179,-1.0253 0.8297,-0.9325 0.9327,-0.8297 1.0255,-0.7178 1.1072,-0.5982 1.1769,-0.472 1.2339,-0.3409 1.2777,-0.2061 1.3074,-0.0689"
         id="path741"
         style="fill:none;stroke:#000000;stroke-width:0.7;stroke-linecap:butt;stroke-linejoin:miter" />
      <path
         id="14"
         d="m 39.12093,-192.12112 h 31.5094"
         style="fill:none;stroke:#000000;stroke-width:0.7;stroke-linecap:butt;stroke-linejoin:miter" />
      <path
         d="m 70.63033,-192.12112 1.3074,0.0689 1.2777,0.2061 1.2339,0.3409 1.1769,0.472 1.1072,0.5982 1.0255,0.7178 0.9327,0.8297 0.8297,0.9325 0.7179,1.0253 0.5983,1.107 0.4722,1.1768 0.3409,1.2337 0.2061,1.2775 0.0689,1.3073"
         id="path744"
         style="fill:none;stroke:#000000;stroke-width:0.7;stroke-linecap:butt;stroke-linejoin:miter" />
      <path
         id="16"
         d="m 81.92563,-180.82742 v 31.5046"
         style="fill:none;stroke:#000000;stroke-width:0.7;stroke-linecap:butt;stroke-linejoin:miter" />
      <path
         d="m 192.72563,-149.32282 -0.0689,1.3073 -0.2061,1.2774 -0.3409,1.2338 -0.4722,1.1767 -0.5983,1.107 -0.7179,1.0253 -0.8297,0.9326 -0.9327,0.8296 -1.0255,0.7178 -1.1072,0.5982 -1.1769,0.4721 -1.2339,0.3409 -1.2777,0.206 -1.3074,0.0689"
         id="path747"
         style="fill:none;stroke:#000000;stroke-width:0.7;stroke-linecap:butt;stroke-linejoin:miter" />
      <path
         id="18"
         d="m 181.43033,-138.02922 h -31.5094"
         style="fill:none;stroke:#000000;stroke-width:0.7;stroke-linecap:butt;stroke-linejoin:miter" />
      <path
         d="m 149.92093,-138.02922 -1.3074,-0.0689 -1.2777,-0.206 -1.2339,-0.3409 -1.1769,-0.4721 -1.1072,-0.5982 -1.0255,-0.7178 -0.9327,-0.8296 -0.8297,-0.9326 -0.7179,-1.0253 -0.5983,-1.107 -0.4722,-1.1767 -0.3409,-1.2338 -0.2061,-1.2774 -0.0689,-1.3073"
         id="path750"
         style="fill:none;stroke:#000000;stroke-width:0.7;stroke-linecap:butt;stroke-linejoin:miter" />
      <path
         id="20"
         d="m 138.62563,-149.32282 v -31.5046"
         style="fill:none;stroke:#000000;stroke-width:0.7;stroke-linecap:butt;stroke-linejoin:miter" />
      <path
         d="m 138.62563,-180.82742 0.0689,-1.3073 0.2061,-1.2775 0.3409,-1.2337 0.4722,-1.1768 0.5983,-1.107 0.7179,-1.0253 0.8297,-0.9325 0.9327,-0.8297 1.0255,-0.7178 1.1072,-0.5982 1.1769,-0.472 1.2339,-0.3409 1.2777,-0.2061 1.3074,-0.0689"
         id="path753"
         style="fill:none;stroke:#000000;stroke-width:0.7;stroke-linecap:butt;stroke-linejoin:miter" />
      <path
         id="22"
         d="m 149.92093,-192.12112 h 31.5094"
         style="fill:none;stroke:#000000;stroke-width:0.7;stroke-linecap:butt;stroke-linejoin:miter" />
      <path
         d="m 181.43033,-192.12112 1.3074,0.0689 1.2777,0.2061 1.2339,0.3409 1.1769,0.472 1.1072,0.5982 1.0255,0.7178 0.9327,0.8297 0.8297,0.9325 0.7179,1.0253 0.5983,1.107 0.4722,1.1768 0.3409,1.2337 0.2061,1.2775 0.0689,1.3073"
         id="path756"
         style="fill:none;stroke:#000000;stroke-width:0.7;stroke-linecap:butt;stroke-linejoin:miter" />
      <path
         id="24"
         d="m 192.72563,-180.82742 v 31.5046"
         style="fill:none;stroke:#000000;stroke-width:0.7;stroke-linecap:butt;stroke-linejoin:miter" />
      <path
         d="m 303.52563,-149.32282 -0.069,1.3073 -0.206,1.2774 -0.341,1.2338 -0.472,1.1767 -0.598,1.107 -0.718,1.0253 -0.83,0.9326 -0.933,0.8296 -1.025,0.7178 -1.107,0.5982 -1.177,0.4721 -1.234,0.3409 -1.278,0.206 -1.307,0.0689"
         id="path759"
         style="fill:none;stroke:#000000;stroke-width:0.7;stroke-linecap:butt;stroke-linejoin:miter" />
      <path
         id="26"
         d="m 292.23063,-138.02922 h -31.51"
         style="fill:none;stroke:#000000;stroke-width:0.7;stroke-linecap:butt;stroke-linejoin:miter" />
      <path
         d="m 260.72063,-138.02922 -1.307,-0.0689 -1.278,-0.206 -1.234,-0.3409 -1.177,-0.4721 -1.107,-0.5982 -1.025,-0.7178 -0.933,-0.8296 -0.83,-0.9326 -0.718,-1.0253 -0.598,-1.107 -0.472,-1.1767 -0.341,-1.2338 -0.206,-1.2774 -0.069,-1.3073"
         id="path762"
         style="fill:none;stroke:#000000;stroke-width:0.7;stroke-linecap:butt;stroke-linejoin:miter" />
      <path
         id="28"
         d="m 249.42563,-149.32282 v -31.5046"
         style="fill:none;stroke:#000000;stroke-width:0.7;stroke-linecap:butt;stroke-linejoin:miter" />
      <path
         d="m 249.42563,-180.82742 0.069,-1.3073 0.206,-1.2775 0.341,-1.2337 0.472,-1.1768 0.598,-1.107 0.718,-1.0253 0.83,-0.9325 0.933,-0.8297 1.025,-0.7178 1.107,-0.5982 1.177,-0.472 1.234,-0.3409 1.278,-0.2061 1.307,-0.0689"
         id="path765"
         style="fill:none;stroke:#000000;stroke-width:0.7;stroke-linecap:butt;stroke-linejoin:miter" />
      <path
         id="30"
         d="m 260.72063,-192.12112 h 31.51"
         style="fill:none;stroke:#000000;stroke-width:0.7;stroke-linecap:butt;stroke-linejoin:miter" />
      <path
         d="m 292.23063,-192.12112 1.307,0.0689 1.278,0.2061 1.234,0.3409 1.177,0.472 1.107,0.5982 1.025,0.7178 0.933,0.8297 0.83,0.9325 0.718,1.0253 0.598,1.107 0.472,1.1768 0.341,1.2337 0.206,1.2775 0.069,1.3073"
         id="path768"
         style="fill:none;stroke:#000000;stroke-width:0.7;stroke-linecap:butt;stroke-linejoin:miter" />
      <path
         id="32"
         d="m 303.52563,-180.82742 v 31.5046"
         style="fill:none;stroke:#000000;stroke-width:0.7;stroke-linecap:butt;stroke-linejoin:miter" />
      <path
         id="33"
         d="m 356.77563,-175.22412 v 20.2979"
         style="fill:none;stroke:#000000;stroke-width:0.7;stroke-linecap:butt;stroke-linejoin:miter" />
      <path
         d="m 356.77563,-154.92622 a 16.8995,16.897 0 0 1 -4.732,11.726"
         id="path772"
         style="fill:none;stroke:#000000;stroke-width:0.7;stroke-linecap:butt;stroke-linejoin:miter" />
      <path
         d="m 352.04363,-143.20022 a 15.8409,15.8386 0 0 1 -11.709,5.171"
         id="path774"
         style="fill:none;stroke:#000000;stroke-width:0.7;stroke-linecap:butt;stroke-linejoin:miter" />
      <path
         id="36"
         d="m 340.33463,-138.02922 h -24.214"
         style="fill:none;stroke:#000000;stroke-width:0.7;stroke-linecap:butt;stroke-linejoin:miter" />
      <path
         d="m 316.12063,-138.02922 -1.307,-0.0689 -1.278,-0.206 -1.234,-0.3409 -1.177,-0.4721 -1.107,-0.5982 -1.025,-0.7178 -0.933,-0.8296 -0.83,-0.9326 -0.718,-1.0253 -0.598,-1.107 -0.472,-1.1767 -0.341,-1.2338 -0.206,-1.2774 -0.069,-1.3073"
         id="path777"
         style="fill:none;stroke:#000000;stroke-width:0.7;stroke-linecap:butt;stroke-linejoin:miter" />
      <path
         id="38"
         d="m 304.82563,-149.32282 v -31.5046"
         style="fill:none;stroke:#000000;stroke-width:0.7;stroke-linecap:butt;stroke-linejoin:miter" />
      <path
         d="m 304.82563,-180.82742 0.069,-1.3073 0.206,-1.2775 0.341,-1.2337 0.472,-1.1768 0.598,-1.107 0.718,-1.0253 0.83,-0.9325 0.933,-0.8297 1.025,-0.7178 1.107,-0.5982 1.177,-0.472 1.234,-0.3409 1.278,-0.2061 1.307,-0.0689"
         id="path780"
         style="fill:none;stroke:#000000;stroke-width:0.7;stroke-linecap:butt;stroke-linejoin:miter" />
      <path
         id="40"
         d="m 316.12063,-192.12112 h 24.214"
         style="fill:none;stroke:#000000;stroke-width:0.7;stroke-linecap:butt;stroke-linejoin:miter" />
      <path
         d="m 340.33463,-192.12112 a 15.8409,15.8386 0 0 1 11.709,5.171"
         id="path783"
         style="fill:none;stroke:#000000;stroke-width:0.7;stroke-linecap:butt;stroke-linejoin:miter" />
      <path
         d="m 352.04363,-186.95012 a 16.8995,16.897 0 0 1 4.732,11.726"
         id="path785"
         style="fill:none;stroke:#000000;stroke-width:0.7;stroke-linecap:butt;stroke-linejoin:miter" />
      <path
         d="m 248.12563,-149.32282 -0.069,1.3073 -0.206,1.2774 -0.341,1.2338 -0.472,1.1767 -0.598,1.107 -0.718,1.0253 -0.83,0.9326 -0.933,0.8296 -1.025,0.7178 -1.107,0.5982 -1.177,0.4721 -1.234,0.3409 -1.278,0.206 -1.307,0.0689"
         id="path787"
         style="fill:none;stroke:#000000;stroke-width:0.7;stroke-linecap:butt;stroke-linejoin:miter" />
      <path
         id="44"
         d="m 236.83063,-138.02922 h -31.5097"
         style="fill:none;stroke:#000000;stroke-width:0.7;stroke-linecap:butt;stroke-linejoin:miter" />
      <path
         d="m 205.32093,-138.02922 -1.3074,-0.0689 -1.2777,-0.206 -1.2339,-0.3409 -1.1769,-0.4721 -1.1072,-0.5982 -1.0255,-0.7178 -0.9327,-0.8296 -0.8297,-0.9326 -0.7179,-1.0253 -0.5983,-1.107 -0.4722,-1.1767 -0.3409,-1.2338 -0.2061,-1.2774 -0.0689,-1.3073"
         id="path790"
         style="fill:none;stroke:#000000;stroke-width:0.7;stroke-linecap:butt;stroke-linejoin:miter" />
      <path
         id="46"
         d="m 194.02563,-149.32282 v -31.5046"
         style="fill:none;stroke:#000000;stroke-width:0.7;stroke-linecap:butt;stroke-linejoin:miter" />
      <path
         d="m 194.02563,-180.82742 0.0689,-1.3073 0.2061,-1.2775 0.3409,-1.2337 0.4722,-1.1768 0.5983,-1.107 0.7179,-1.0253 0.8297,-0.9325 0.9327,-0.8297 1.0255,-0.7178 1.1072,-0.5982 1.1769,-0.472 1.2339,-0.3409 1.2777,-0.2061 1.3074,-0.0689"
         id="path793"
         style="fill:none;stroke:#000000;stroke-width:0.7;stroke-linecap:butt;stroke-linejoin:miter" />
      <path
         id="48"
         d="m 205.32093,-192.12112 h 31.5097"
         style="fill:none;stroke:#000000;stroke-width:0.7;stroke-linecap:butt;stroke-linejoin:miter" />
      <path
         d="m 236.83063,-192.12112 1.307,0.0689 1.278,0.2061 1.234,0.3409 1.177,0.472 1.107,0.5982 1.025,0.7178 0.933,0.8297 0.83,0.9325 0.718,1.0253 0.598,1.107 0.472,1.1768 0.341,1.2337 0.206,1.2775 0.069,1.3073"
         id="path796"
         style="fill:none;stroke:#000000;stroke-width:0.7;stroke-linecap:butt;stroke-linejoin:miter" />
      <path
         id="50"
         d="m 248.12563,-180.82742 v 31.5046"
         style="fill:none;stroke:#000000;stroke-width:0.7;stroke-linecap:butt;stroke-linejoin:miter" />
      <path
         d="m 137.32563,-149.32282 -0.0689,1.3073 -0.2061,1.2774 -0.3409,1.2338 -0.4722,1.1767 -0.5983,1.107 -0.7179,1.0253 -0.8297,0.9326 -0.9327,0.8296 -1.0255,0.7178 -1.1072,0.5982 -1.1769,0.4721 -1.2339,0.3409 -1.2777,0.206 -1.3074,0.0689"
         id="path799"
         style="fill:none;stroke:#000000;stroke-width:0.7;stroke-linecap:butt;stroke-linejoin:miter" />
      <path
         id="52"
         d="M 126.03033,-138.02922 H 94.52093"
         style="fill:none;stroke:#000000;stroke-width:0.7;stroke-linecap:butt;stroke-linejoin:miter" />
      <path
         d="m 94.52093,-138.02922 -1.3074,-0.0689 -1.2777,-0.206 -1.2339,-0.3409 -1.1769,-0.4721 -1.1072,-0.5982 -1.0255,-0.7178 -0.9327,-0.8296 -0.8297,-0.9326 -0.7179,-1.0253 -0.5983,-1.107 -0.4722,-1.1767 -0.3409,-1.2338 -0.2061,-1.2774 -0.0689,-1.3073"
         id="path802"
         style="fill:none;stroke:#000000;stroke-width:0.7;stroke-linecap:butt;stroke-linejoin:miter" />
      <path
         id="54"
         d="m 83.22563,-149.32282 v -31.5046"
         style="fill:none;stroke:#000000;stroke-width:0.7;stroke-linecap:butt;stroke-linejoin:miter" />
      <path
         d="m 83.22563,-180.82742 0.0689,-1.3073 0.2061,-1.2775 0.3409,-1.2337 0.4722,-1.1768 0.5983,-1.107 0.7179,-1.0253 0.8297,-0.9325 0.9327,-0.8297 1.0255,-0.7178 1.1072,-0.5982 1.1769,-0.472 1.2339,-0.3409 1.2777,-0.2061 1.3074,-0.0689"
         id="path805"
         style="fill:none;stroke:#000000;stroke-width:0.7;stroke-linecap:butt;stroke-linejoin:miter" />
      <path
         id="56"
         d="m 94.52093,-192.12112 h 31.5094"
         style="fill:none;stroke:#000000;stroke-width:0.7;stroke-linecap:butt;stroke-linejoin:miter" />
      <path
         d="m 126.03033,-192.12112 1.3074,0.0689 1.2777,0.2061 1.2339,0.3409 1.1769,0.472 1.1072,0.5982 1.0255,0.7178 0.9327,0.8297 0.8297,0.9325 0.7179,1.0253 0.5983,1.107 0.4722,1.1768 0.3409,1.2337 0.2061,1.2775 0.0689,1.3073"
         id="path808"
         style="fill:none;stroke:#000000;stroke-width:0.7;stroke-linecap:butt;stroke-linejoin:miter" />
      <path
         id="58"
         d="m 137.32563,-180.82742 v 31.5046"
         style="fill:none;stroke:#000000;stroke-width:0.7;stroke-linecap:butt;stroke-linejoin:miter" />
      <path
         d="m 26.52563,-149.32282 -0.0689,1.3073 -0.2061,1.2774 -0.3409,1.2338 -0.4722,1.1767 -0.5983,1.107 -0.7179,1.0253 -0.8297,0.9326 -0.9327,0.8296 -1.0255,0.7178 -1.1072,0.5982 -1.1769,0.4721 -1.2339,0.3409 -1.2777,0.206 -1.3074,0.0689"
         id="path811"
         style="fill:none;stroke:#000000;stroke-width:0.7;stroke-linecap:butt;stroke-linejoin:miter" />
      <path
         id="60"
         d="m 15.23033,-138.02922 h -31.5097"
         style="fill:none;stroke:#000000;stroke-width:0.7;stroke-linecap:butt;stroke-linejoin:miter" />
      <path
         d="m -16.27937,-138.02922 -1.307,-0.0689 -1.278,-0.206 -1.234,-0.3409 -1.177,-0.4721 -1.107,-0.5982 -1.025,-0.7178 -0.933,-0.8296 -0.83,-0.9326 -0.718,-1.0253 -0.598,-1.107 -0.472,-1.1767 -0.341,-1.2338 -0.206,-1.2774 -0.069,-1.3073"
         id="path814"
         style="fill:none;stroke:#000000;stroke-width:0.7;stroke-linecap:butt;stroke-linejoin:miter" />
      <path
         id="62"
         d="m -27.57437,-149.32282 v -31.5046"
         style="fill:none;stroke:#000000;stroke-width:0.7;stroke-linecap:butt;stroke-linejoin:miter" />
      <path
         d="m -27.57437,-180.82742 0.069,-1.3073 0.206,-1.2775 0.341,-1.2337 0.472,-1.1768 0.598,-1.107 0.718,-1.0253 0.83,-0.9325 0.933,-0.8297 1.025,-0.7178 1.107,-0.5982 1.177,-0.472 1.234,-0.3409 1.278,-0.2061 1.307,-0.0689"
         id="path817"
         style="fill:none;stroke:#000000;stroke-width:0.7;stroke-linecap:butt;stroke-linejoin:miter" />
      <path
         id="64"
         d="m -16.27937,-192.12112 h 31.5097"
         style="fill:none;stroke:#000000;stroke-width:0.7;stroke-linecap:butt;stroke-linejoin:miter" />
      <path
         d="m 15.23033,-192.12112 1.3074,0.0689 1.2777,0.2061 1.2339,0.3409 1.1769,0.472 1.1072,0.5982 1.0255,0.7178 0.9327,0.8297 0.8297,0.9325 0.7179,1.0253 0.5983,1.107 0.4722,1.1768 0.3409,1.2337 0.2061,1.2775 0.0689,1.3073"
         id="path820"
         style="fill:none;stroke:#000000;stroke-width:0.7;stroke-linecap:butt;stroke-linejoin:miter" />
      <path
         id="66"
         d="m 26.52563,-180.82742 v 31.5046"
         style="fill:none;stroke:#000000;stroke-width:0.7;stroke-linecap:butt;stroke-linejoin:miter" />
      <path
         d="m -131.49237,-186.95012 a 15.8409,15.8386 0 0 1 11.709,-5.171"
         id="path823"
         style="fill:none;stroke:#000000;stroke-width:0.7;stroke-linecap:butt;stroke-linejoin:miter" />
      <path
         id="68"
         d="m -119.78337,-192.12112 h 24.214"
         style="fill:none;stroke:#000000;stroke-width:0.7;stroke-linecap:butt;stroke-linejoin:miter" />
      <path
         d="m -95.56937,-192.12112 1.307,0.0689 1.278,0.2061 1.234,0.3409 1.177,0.472 1.107,0.5982 1.025,0.7178 0.933,0.8297 0.83,0.9325 0.718,1.0253 0.598,1.107 0.472,1.1768 0.341,1.2337 0.206,1.2775 0.069,1.3073"
         id="path826"
         style="fill:none;stroke:#000000;stroke-width:0.7;stroke-linecap:butt;stroke-linejoin:miter" />
      <path
         id="70"
         d="m -84.27437,-180.82742 v 31.5046"
         style="fill:none;stroke:#000000;stroke-width:0.7;stroke-linecap:butt;stroke-linejoin:miter" />
      <path
         d="m -84.27437,-149.32282 -0.069,1.3073 -0.206,1.2774 -0.341,1.2338 -0.472,1.1767 -0.598,1.107 -0.718,1.0253 -0.83,0.9326 -0.933,0.8296 -1.025,0.7178 -1.107,0.5982 -1.177,0.4721 -1.234,0.3409 -1.278,0.206 -1.307,0.0689"
         id="path829"
         style="fill:none;stroke:#000000;stroke-width:0.7;stroke-linecap:butt;stroke-linejoin:miter" />
      <path
         id="72"
         d="m -95.56937,-138.02922 h -24.214"
         style="fill:none;stroke:#000000;stroke-width:0.7;stroke-linecap:butt;stroke-linejoin:miter" />
      <path
         d="m -119.78337,-138.02922 a 15.8409,15.8386 0 0 1 -11.709,-5.171"
         id="path832"
         style="fill:none;stroke:#000000;stroke-width:0.7;stroke-linecap:butt;stroke-linejoin:miter" />
      <path
         d="m -131.49237,-143.20022 a 16.8995,16.897 0 0 1 -4.732,-11.726"
         id="path834"
         style="fill:none;stroke:#000000;stroke-width:0.7;stroke-linecap:butt;stroke-linejoin:miter" />
      <path
         id="75"
         d="m -136.22437,-154.92622 v -20.2979"
         style="fill:none;stroke:#000000;stroke-width:0.7;stroke-linecap:butt;stroke-linejoin:miter" />
      <path
         d="m -136.22437,-175.22412 a 16.8995,16.897 0 0 1 4.732,-11.726"
         id="path837"
         style="fill:none;stroke:#000000;stroke-width:0.7;stroke-linecap:butt;stroke-linejoin:miter" />
      <path
         d="m 352.04363,-143.26932 a 15.8409,15.8386 0 0 1 -11.709,5.171"
         id="path862"
         style="fill:none;stroke:#000000;stroke-width:0.7;stroke-linecap:butt;stroke-linejoin:miter" />
      <path
         id="97"
         d="m 352.04363,-143.26932 v 0.0691"
         style="fill:none;stroke:#000000;stroke-width:0.7;stroke-linecap:butt;stroke-linejoin:miter" />
      <path
         d="m -131.49237,-143.26932 a 16.8995,16.897 0 0 1 -4.732,-11.726"
         id="path865"
         style="fill:none;stroke:#000000;stroke-width:0.7;stroke-linecap:butt;stroke-linejoin:miter" />
      <path
         id="99"
         d="m -131.49237,-143.26932 v 0.0691"
         style="fill:none;stroke:#000000;stroke-width:0.7;stroke-linecap:butt;stroke-linejoin:miter" />
      <path
         id="115"
         d="m 340.33463,-138.09832 h -24.214"
         style="fill:none;stroke:#000000;stroke-width:0.7;stroke-linecap:butt;stroke-linejoin:miter" />
      <path
         d="m 316.12063,-138.09832 -1.307,-0.0689 -1.278,-0.2061 -1.234,-0.3409 -1.177,-0.4721 -1.107,-0.5981 -1.025,-0.7178 -0.933,-0.8297 -0.83,-0.9325 -0.718,-1.0253 -0.598,-1.107 -0.472,-1.1768 -0.341,-1.2337 -0.206,-1.2775 -0.069,-1.3073"
         id="path888"
         style="fill:none;stroke:#000000;stroke-width:0.7;stroke-linecap:butt;stroke-linejoin:miter" />
      <path
         id="117"
         d="m 304.82563,-149.39202 v -31.4355"
         style="fill:none;stroke:#000000;stroke-width:0.7;stroke-linecap:butt;stroke-linejoin:miter" />
      <path
         d="m 356.77563,-154.99532 a 16.8995,16.897 0 0 1 -4.732,11.726"
         id="path891"
         style="fill:none;stroke:#000000;stroke-width:0.7;stroke-linecap:butt;stroke-linejoin:miter" />
      <path
         d="m 303.52563,-149.39202 -0.069,1.3073 -0.206,1.2775 -0.341,1.2337 -0.472,1.1768 -0.598,1.107 -0.718,1.0253 -0.83,0.9325 -0.933,0.8297 -1.025,0.7178 -1.107,0.5981 -1.177,0.4721 -1.234,0.3409 -1.278,0.2061 -1.307,0.0689"
         id="path893"
         style="fill:none;stroke:#000000;stroke-width:0.7;stroke-linecap:butt;stroke-linejoin:miter" />
      <path
         id="120"
         d="m 292.23063,-138.09832 h -31.51"
         style="fill:none;stroke:#000000;stroke-width:0.7;stroke-linecap:butt;stroke-linejoin:miter" />
      <path
         d="m 260.72063,-138.09832 -1.307,-0.0689 -1.278,-0.2061 -1.234,-0.3409 -1.177,-0.4721 -1.107,-0.5981 -1.025,-0.7178 -0.933,-0.8297 -0.83,-0.9325 -0.718,-1.0253 -0.598,-1.107 -0.472,-1.1768 -0.341,-1.2337 -0.206,-1.2775 -0.069,-1.3073"
         id="path896"
         style="fill:none;stroke:#000000;stroke-width:0.7;stroke-linecap:butt;stroke-linejoin:miter" />
      <path
         id="122"
         d="m 249.42563,-149.39202 v -31.4355"
         style="fill:none;stroke:#000000;stroke-width:0.7;stroke-linecap:butt;stroke-linejoin:miter" />
      <path
         d="m 248.12563,-149.39202 -0.069,1.3073 -0.206,1.2775 -0.341,1.2337 -0.472,1.1768 -0.598,1.107 -0.718,1.0253 -0.83,0.9325 -0.933,0.8297 -1.025,0.7178 -1.107,0.5981 -1.177,0.4721 -1.234,0.3409 -1.278,0.2061 -1.307,0.0689"
         id="path899"
         style="fill:none;stroke:#000000;stroke-width:0.7;stroke-linecap:butt;stroke-linejoin:miter" />
      <path
         id="124"
         d="m 236.83063,-138.09832 h -31.5097"
         style="fill:none;stroke:#000000;stroke-width:0.7;stroke-linecap:butt;stroke-linejoin:miter" />
      <path
         d="m 205.32093,-138.09832 -1.3074,-0.0689 -1.2777,-0.2061 -1.2339,-0.3409 -1.1769,-0.4721 -1.1072,-0.5981 -1.0255,-0.7178 -0.9327,-0.8297 -0.8297,-0.9325 -0.7179,-1.0253 -0.5983,-1.107 -0.4722,-1.1768 -0.3409,-1.2337 -0.2061,-1.2775 -0.0689,-1.3073"
         id="path902"
         style="fill:none;stroke:#000000;stroke-width:0.7;stroke-linecap:butt;stroke-linejoin:miter" />
      <path
         d="m 192.72563,-149.39202 -0.0689,1.3073 -0.2061,1.2775 -0.3409,1.2337 -0.4722,1.1768 -0.5983,1.107 -0.7179,1.0253 -0.8297,0.9325 -0.9327,0.8297 -1.0255,0.7178 -1.1072,0.5981 -1.1769,0.4721 -1.2339,0.3409 -1.2777,0.2061 -1.3074,0.0689"
         id="path904"
         style="fill:none;stroke:#000000;stroke-width:0.7;stroke-linecap:butt;stroke-linejoin:miter" />
      <path
         id="127"
         d="m 181.43033,-138.09832 h -31.5094"
         style="fill:none;stroke:#000000;stroke-width:0.7;stroke-linecap:butt;stroke-linejoin:miter" />
      <path
         d="m 149.92093,-138.09832 -1.3074,-0.0689 -1.2777,-0.2061 -1.2339,-0.3409 -1.1769,-0.4721 -1.1072,-0.5981 -1.0255,-0.7178 -0.9327,-0.8297 -0.8297,-0.9325 -0.7179,-1.0253 -0.5983,-1.107 -0.4722,-1.1768 -0.3409,-1.2337 -0.2061,-1.2775 -0.0689,-1.3073"
         id="path907"
         style="fill:none;stroke:#000000;stroke-width:0.7;stroke-linecap:butt;stroke-linejoin:miter" />
      <path
         d="m 137.32563,-149.39202 -0.0689,1.3073 -0.2061,1.2775 -0.3409,1.2337 -0.4722,1.1768 -0.5983,1.107 -0.7179,1.0253 -0.8297,0.9325 -0.9327,0.8297 -1.0255,0.7178 -1.1072,0.5981 -1.1769,0.4721 -1.2339,0.3409 -1.2777,0.2061 -1.3074,0.0689"
         id="path909"
         style="fill:none;stroke:#000000;stroke-width:0.7;stroke-linecap:butt;stroke-linejoin:miter" />
      <path
         id="130"
         d="M 126.03033,-138.09832 H 94.52093"
         style="fill:none;stroke:#000000;stroke-width:0.7;stroke-linecap:butt;stroke-linejoin:miter" />
      <path
         d="m 94.52093,-138.09832 -1.3074,-0.0689 -1.2777,-0.2061 -1.2339,-0.3409 -1.1769,-0.4721 -1.1072,-0.5981 -1.0255,-0.7178 -0.9327,-0.8297 -0.8297,-0.9325 -0.7179,-1.0253 -0.5983,-1.107 -0.4722,-1.1768 -0.3409,-1.2337 -0.2061,-1.2775 -0.0689,-1.3073"
         id="path912"
         style="fill:none;stroke:#000000;stroke-width:0.7;stroke-linecap:butt;stroke-linejoin:miter" />
      <path
         d="m 81.92563,-149.39202 -0.0689,1.3073 -0.2061,1.2775 -0.3409,1.2337 -0.4722,1.1768 -0.5983,1.107 -0.7179,1.0253 -0.8297,0.9325 -0.9327,0.8297 -1.0255,0.7178 -1.1072,0.5981 -1.1769,0.4721 -1.2339,0.3409 -1.2777,0.2061 -1.3074,0.0689"
         id="path914"
         style="fill:none;stroke:#000000;stroke-width:0.7;stroke-linecap:butt;stroke-linejoin:miter" />
      <path
         id="133"
         d="M 70.63033,-138.09832 H 39.12093"
         style="fill:none;stroke:#000000;stroke-width:0.7;stroke-linecap:butt;stroke-linejoin:miter" />
      <path
         d="m 39.12093,-138.09832 -1.3074,-0.0689 -1.2777,-0.2061 -1.2339,-0.3409 -1.1769,-0.4721 -1.1072,-0.5981 -1.0255,-0.7178 -0.9327,-0.8297 -0.8297,-0.9325 -0.7179,-1.0253 -0.5983,-1.107 -0.4722,-1.1768 -0.3409,-1.2337 -0.2061,-1.2775 -0.0689,-1.3073"
         id="path917"
         style="fill:none;stroke:#000000;stroke-width:0.7;stroke-linecap:butt;stroke-linejoin:miter" />
      <path
         id="135"
         d="m 27.82563,-149.39202 v -31.4355"
         style="fill:none;stroke:#000000;stroke-width:0.7;stroke-linecap:butt;stroke-linejoin:miter" />
      <path
         d="m 26.52563,-149.39202 -0.0689,1.3073 -0.2061,1.2775 -0.3409,1.2337 -0.4722,1.1768 -0.5983,1.107 -0.7179,1.0253 -0.8297,0.9325 -0.9327,0.8297 -1.0255,0.7178 -1.1072,0.5981 -1.1769,0.4721 -1.2339,0.3409 -1.2777,0.2061 -1.3074,0.0689"
         id="path920"
         style="fill:none;stroke:#000000;stroke-width:0.7;stroke-linecap:butt;stroke-linejoin:miter" />
      <path
         id="137"
         d="m 15.23033,-138.09832 h -31.5097"
         style="fill:none;stroke:#000000;stroke-width:0.7;stroke-linecap:butt;stroke-linejoin:miter" />
      <path
         d="m -16.27937,-138.09832 -1.307,-0.0689 -1.278,-0.2061 -1.234,-0.3409 -1.177,-0.4721 -1.107,-0.5981 -1.025,-0.7178 -0.933,-0.8297 -0.83,-0.9325 -0.718,-1.0253 -0.598,-1.107 -0.472,-1.1768 -0.341,-1.2337 -0.206,-1.2775 -0.069,-1.3073"
         id="path923"
         style="fill:none;stroke:#000000;stroke-width:0.7;stroke-linecap:butt;stroke-linejoin:miter" />
      <path
         d="m -28.87437,-149.39202 -0.069,1.3073 -0.206,1.2775 -0.341,1.2337 -0.472,1.1768 -0.598,1.107 -0.718,1.0253 -0.83,0.9325 -0.933,0.8297 -1.025,0.7178 -1.107,0.5981 -1.177,0.4721 -1.234,0.3409 -1.278,0.2061 -1.307,0.0689"
         id="path925"
         style="fill:none;stroke:#000000;stroke-width:0.7;stroke-linecap:butt;stroke-linejoin:miter" />
      <path
         id="140"
         d="m -40.16937,-138.09832 h -31.51"
         style="fill:none;stroke:#000000;stroke-width:0.7;stroke-linecap:butt;stroke-linejoin:miter" />
      <path
         d="m -71.67937,-138.09832 -1.307,-0.0689 -1.278,-0.2061 -1.234,-0.3409 -1.177,-0.4721 -1.107,-0.5981 -1.025,-0.7178 -0.933,-0.8297 -0.83,-0.9325 -0.718,-1.0253 -0.598,-1.107 -0.472,-1.1768 -0.341,-1.2337 -0.206,-1.2775 -0.069,-1.3073"
         id="path928"
         style="fill:none;stroke:#000000;stroke-width:0.7;stroke-linecap:butt;stroke-linejoin:miter" />
      <path
         d="m -84.27437,-149.39202 -0.069,1.3073 -0.206,1.2775 -0.341,1.2337 -0.472,1.1768 -0.598,1.107 -0.718,1.0253 -0.83,0.9325 -0.933,0.8297 -1.025,0.7178 -1.107,0.5981 -1.177,0.4721 -1.234,0.3409 -1.278,0.2061 -1.307,0.0689"
         id="path930"
         style="fill:none;stroke:#000000;stroke-width:0.7;stroke-linecap:butt;stroke-linejoin:miter" />
      <path
         id="143"
         d="m -95.56937,-138.09832 h -24.214"
         style="fill:none;stroke:#000000;stroke-width:0.7;stroke-linecap:butt;stroke-linejoin:miter" />
      <path
         d="m -119.78337,-138.09832 a 15.8409,15.8386 0 0 1 -11.709,-5.171"
         id="path933"
         style="fill:none;stroke:#000000;stroke-width:0.7;stroke-linecap:butt;stroke-linejoin:miter" />
    </g>
  </g>
</svg>
