<?xml version="1.0" encoding="UTF-8" standalone="no"?>
<svg
   width="426.00058mm"
   height="390mm"
   viewBox="0 0 426.00058 390"
   version="1.1"
   id="svg2"
   sodipodi:version="0.32"
   inkscape:version="1.2.1 (9c6d41e410, 2022-07-14)"
   sodipodi:docname="thumbnail.svg"
   inkscape:output_extension="org.inkscape.output.svg.inkscape"
   xmlns:inkscape="http://www.inkscape.org/namespaces/inkscape"
   xmlns:sodipodi="http://sodipodi.sourceforge.net/DTD/sodipodi-0.dtd"
   xmlns:xlink="http://www.w3.org/1999/xlink"
   xmlns="http://www.w3.org/2000/svg"
   xmlns:svg="http://www.w3.org/2000/svg"
   xmlns:rdf="http://www.w3.org/1999/02/22-rdf-syntax-ns#"
   xmlns:cc="http://creativecommons.org/ns#"
   xmlns:dc="http://purl.org/dc/elements/1.1/">
  <!-- Working space 10 10 410 287 -->
  <!-- Title block 220 227 410 287 -->
  <metadata
     id="metadata849">
    <rdf:RDF>
      <cc:Work
         rdf:about="">
        <dc:format>image/svg+xml</dc:format>
        <dc:type
           rdf:resource="http://purl.org/dc/dcmitype/StillImage" />
      </cc:Work>
    </rdf:RDF>
  </metadata>
  <defs
     id="defs847">
    <linearGradient
       x1="649.42902"
       y1="807.466"
       x2="655.35199"
       y2="485.909"
       id="defitem29"
       gradientUnits="userSpaceOnUse">
      <stop
         style="stop-color:#ffffff;stop-opacity:1.0000000;"
         offset="0.0000000"
         id="stop92" />
      <stop
         style="stop-color:#ffffff;stop-opacity:0.13756600;"
         offset="1.0000000"
         id="stop93" />
    </linearGradient>
    <linearGradient
       y2="485.909"
       x2="655.35199"
       y1="807.466"
       x1="649.42902"
       gradientUnits="userSpaceOnUse"
       id="linearGradient3448"
       xlink:href="#defitem29"
       inkscape:collect="always" />
    <radialGradient
       cx="1049.72"
       cy="345.56"
       r="1202.15"
       fx="1049.72"
       fy="345.56"
       id="defitem28"
       gradientUnits="userSpaceOnUse">
      <stop
         style="stop-color:#ffffff;stop-opacity:1.0000000;"
         offset="0.0000000"
         id="stop89" />
      <stop
         style="stop-color:#a8a8a8;stop-opacity:1.0000000;"
         offset="1.0000000"
         id="stop90" />
    </radialGradient>
    <radialGradient
       r="1202.15"
       fy="64.844765"
       fx="1089.4004"
       cy="64.845284"
       cx="1092.7045"
       gradientUnits="userSpaceOnUse"
       id="radialGradient3446"
       xlink:href="#defitem28"
       inkscape:collect="always" />
    <linearGradient
       x1="287.5"
       y1="636.70697"
       x2="980"
       y2="636.70697"
       id="defitem30"
       gradientUnits="userSpaceOnUse">
      <stop
         style="stop-color:#464646;stop-opacity:1.0000000;"
         offset="0.0000000"
         id="stop95" />
      <stop
         style="stop-color:#c2c2c2;stop-opacity:1.0000000;"
         offset="1.0000000"
         id="stop96" />
    </linearGradient>
    <linearGradient
       y2="636.70697"
       x2="980"
       y1="636.70697"
       x1="287.5"
       gradientTransform="matrix(1,0,0,1.016038,0,-11.73855)"
       gradientUnits="userSpaceOnUse"
       id="linearGradient3444"
       xlink:href="#defitem30"
       inkscape:collect="always" />
    <linearGradient
       x1="921.091"
       y1="403.18799"
       x2="985.98199"
       y2="317.44699"
       id="defitem27"
       gradientUnits="userSpaceOnUse">
      <stop
         style="stop-color:#7e7e7e;stop-opacity:1.0000000;"
         offset="0.0000000"
         id="stop86" />
      <stop
         style="stop-color:#e5e5e5;stop-opacity:1.0000000;"
         offset="1.0000000"
         id="stop87" />
    </linearGradient>
    <linearGradient
       y2="317.44699"
       x2="985.98199"
       y1="403.18799"
       x1="921.091"
       gradientUnits="userSpaceOnUse"
       id="linearGradient3442"
       xlink:href="#defitem27"
       inkscape:collect="always" />
    <linearGradient
       x1="530.76099"
       y1="346.30399"
       x2="293.37"
       y2="360.27499"
       id="defitem26"
       gradientUnits="userSpaceOnUse">
      <stop
         style="stop-color:#5f5f5f;stop-opacity:1.0000000;"
         offset="0.0000000"
         id="stop83" />
      <stop
         style="stop-color:#e5e5e5;stop-opacity:1.0000000;"
         offset="1.0000000"
         id="stop84" />
    </linearGradient>
    <linearGradient
       y2="360.27499"
       x2="293.37"
       y1="346.30399"
       x1="530.76099"
       gradientUnits="userSpaceOnUse"
       id="linearGradient3440"
       xlink:href="#defitem26"
       inkscape:collect="always" />
    <linearGradient
       x1="164.013"
       y1="412.91901"
       x2="308.75"
       y2="337.60999"
       id="defitem25"
       gradientUnits="userSpaceOnUse">
      <stop
         style="stop-color:#ffffff;stop-opacity:1.0000000;"
         offset="0.0000000"
         id="stop80" />
      <stop
         style="stop-color:#bfbfbf;stop-opacity:1.0000000;"
         offset="1.0000000"
         id="stop81" />
    </linearGradient>
    <linearGradient
       y2="337.60999"
       x2="308.75"
       y1="412.91901"
       x1="164.013"
       gradientUnits="userSpaceOnUse"
       id="linearGradient3438"
       xlink:href="#defitem25"
       inkscape:collect="always" />
    <linearGradient
       x1="1094.25"
       y1="270.854"
       x2="992.48901"
       y2="380.47198"
       id="defitem24"
       gradientUnits="userSpaceOnUse">
      <stop
         style="stop-color:#6a6a6a;stop-opacity:1.0000000;"
         offset="0.0000000"
         id="stop77" />
      <stop
         style="stop-color:#e6e6e6;stop-opacity:1.0000000;"
         offset="1.0000000"
         id="stop78" />
    </linearGradient>
    <linearGradient
       y2="380.47198"
       x2="992.48901"
       y1="270.854"
       x1="1094.25"
       gradientUnits="userSpaceOnUse"
       id="linearGradient3436"
       xlink:href="#defitem24"
       inkscape:collect="always" />
    <linearGradient
       x1="1170.91"
       y1="476.465"
       x2="1049.84"
       y2="549.37799"
       id="defitem23"
       gradientUnits="userSpaceOnUse">
      <stop
         style="stop-color:#5f5f5f;stop-opacity:1.0000000;"
         offset="0.0000000"
         id="stop74" />
      <stop
         style="stop-color:#ebebeb;stop-opacity:1.0000000;"
         offset="1.0000000"
         id="stop75" />
    </linearGradient>
    <linearGradient
       y2="549.37799"
       x2="1049.84"
       y1="476.465"
       x1="1170.91"
       gradientUnits="userSpaceOnUse"
       id="linearGradient3434"
       xlink:href="#defitem23"
       inkscape:collect="always" />
    <linearGradient
       x1="783.716"
       y1="105.486"
       x2="576.14899"
       y2="313.276"
       id="defitem22"
       gradientUnits="userSpaceOnUse">
      <stop
         style="stop-color:#5a5a5a;stop-opacity:1.0000000;"
         offset="0.0000000"
         id="stop71" />
      <stop
         style="stop-color:#c7c7c7;stop-opacity:1.0000000;"
         offset="1.0000000"
         id="stop72" />
    </linearGradient>
    <linearGradient
       y2="313.276"
       x2="576.14899"
       y1="105.486"
       x1="783.716"
       gradientUnits="userSpaceOnUse"
       id="linearGradient3432"
       xlink:href="#defitem22"
       inkscape:collect="always" />
    <linearGradient
       x1="280.04401"
       y1="418.698"
       x2="128.05499"
       y2="484.716"
       id="defitem21"
       gradientUnits="userSpaceOnUse">
      <stop
         style="stop-color:#666666;stop-opacity:1.0000000;"
         offset="0.0000000"
         id="stop68" />
      <stop
         style="stop-color:#d8d8d8;stop-opacity:1.0000000;"
         offset="1.0000000"
         id="stop69" />
    </linearGradient>
    <linearGradient
       y2="484.716"
       x2="128.05499"
       y1="418.698"
       x1="280.04401"
       gradientUnits="userSpaceOnUse"
       id="linearGradient3430"
       xlink:href="#defitem21"
       inkscape:collect="always" />
    <linearGradient
       x1="129.687"
       y1="636.95398"
       x2="220"
       y2="584.40997"
       id="defitem20"
       gradientUnits="userSpaceOnUse">
      <stop
         style="stop-color:#ffffff;stop-opacity:1.0000000;"
         offset="0.0000000"
         id="stop65" />
      <stop
         style="stop-color:#bbbbbb;stop-opacity:1.0000000;"
         offset="1.0000000"
         id="stop66" />
    </linearGradient>
    <linearGradient
       y2="584.40997"
       x2="220"
       y1="636.95398"
       x1="129.687"
       gradientUnits="userSpaceOnUse"
       id="linearGradient3428"
       xlink:href="#defitem20"
       inkscape:collect="always" />
    <linearGradient
       x1="1048.72"
       y1="629.02802"
       x2="1127.98"
       y2="583.75299"
       id="defitem19"
       gradientUnits="userSpaceOnUse">
      <stop
         style="stop-color:#5e5e5e;stop-opacity:1.0000000;"
         offset="0.0000000"
         id="stop62" />
      <stop
         style="stop-color:#ededed;stop-opacity:1.0000000;"
         offset="1.0000000"
         id="stop63" />
    </linearGradient>
    <linearGradient
       y2="583.75299"
       x2="1127.98"
       y1="629.02802"
       x1="1048.72"
       gradientUnits="userSpaceOnUse"
       id="linearGradient3426"
       xlink:href="#defitem19"
       inkscape:collect="always" />
    <linearGradient
       x1="370.022"
       y1="387.27301"
       x2="581.32397"
       y2="291.97699"
       id="defitem18"
       gradientUnits="userSpaceOnUse">
      <stop
         style="stop-color:#636363;stop-opacity:1.0000000;"
         offset="0.0000000"
         id="stop59" />
      <stop
         style="stop-color:#d6d6d6;stop-opacity:1.0000000;"
         offset="1.0000000"
         id="stop60" />
    </linearGradient>
    <linearGradient
       y2="291.97699"
       x2="581.32397"
       y1="387.27301"
       x1="370.022"
       gradientUnits="userSpaceOnUse"
       id="linearGradient3424"
       xlink:href="#defitem18"
       inkscape:collect="always" />
    <linearGradient
       x1="732.15601"
       y1="351.939"
       x2="909.59399"
       y2="351.939"
       id="defitem17"
       gradientUnits="userSpaceOnUse">
      <stop
         style="stop-color:#676767;stop-opacity:1.0000000;"
         offset="0.0000000"
         id="stop56" />
      <stop
         style="stop-color:#d3d3d3;stop-opacity:1.0000000;"
         offset="1.0000000"
         id="stop57" />
    </linearGradient>
    <linearGradient
       y2="351.939"
       x2="909.59399"
       y1="351.939"
       x1="732.15601"
       gradientUnits="userSpaceOnUse"
       id="linearGradient3422"
       xlink:href="#defitem17"
       inkscape:collect="always" />
    <linearGradient
       x1="1014.43"
       y1="494.71301"
       x2="1073.01"
       y2="494.71301"
       id="defitem16"
       gradientUnits="userSpaceOnUse">
      <stop
         style="stop-color:#666666;stop-opacity:1.0000000;"
         offset="0.0000000"
         id="stop53" />
      <stop
         style="stop-color:#dcdcdc;stop-opacity:1.0000000;"
         offset="1.0000000"
         id="stop54" />
    </linearGradient>
    <linearGradient
       y2="494.71301"
       x2="1073.01"
       y1="494.71301"
       x1="1014.43"
       gradientUnits="userSpaceOnUse"
       id="linearGradient3420"
       xlink:href="#defitem16"
       inkscape:collect="always" />
    <linearGradient
       x1="272.59201"
       y1="452.388"
       x2="193.27699"
       y2="516.37"
       id="defitem15"
       gradientUnits="userSpaceOnUse">
      <stop
         style="stop-color:#6e6e6e;stop-opacity:1.0000000;"
         offset="0.0000000"
         id="stop50" />
      <stop
         style="stop-color:#d8d8d8;stop-opacity:1.0000000;"
         offset="1.0000000"
         id="stop51" />
    </linearGradient>
    <linearGradient
       y2="516.37"
       x2="193.27699"
       y1="452.388"
       x1="272.59201"
       gradientUnits="userSpaceOnUse"
       id="linearGradient3418"
       xlink:href="#defitem15"
       inkscape:collect="always" />
    <radialGradient
       cx="1037.22"
       cy="211.088"
       r="1164.28"
       fx="1037.22"
       fy="211.088"
       id="defitem14"
       gradientUnits="userSpaceOnUse">
      <stop
         style="stop-color:#ffffff;stop-opacity:1.0000000;"
         offset="0.0000000"
         id="stop47" />
      <stop
         style="stop-color:#aaaaaa;stop-opacity:1.0000000;"
         offset="1.0000000"
         id="stop48" />
    </radialGradient>
    <radialGradient
       r="1164.28"
       fy="211.088"
       fx="1037.22"
       cy="211.088"
       cx="1037.22"
       gradientUnits="userSpaceOnUse"
       id="radialGradient3416"
       xlink:href="#defitem14"
       inkscape:collect="always" />
    <linearGradient
       x1="342.64999"
       y1="732.12903"
       x2="379.241"
       y2="686.83002"
       id="defitem13"
       gradientUnits="userSpaceOnUse">
      <stop
         style="stop-color:#ffffff;stop-opacity:1.0000000;"
         offset="0.0000000"
         id="stop44" />
      <stop
         style="stop-color:#989898;stop-opacity:1.0000000;"
         offset="1.0000000"
         id="stop45" />
    </linearGradient>
    <linearGradient
       y2="686.83002"
       x2="379.241"
       y1="732.12903"
       x1="342.64999"
       gradientUnits="userSpaceOnUse"
       id="linearGradient3414"
       xlink:href="#defitem13"
       inkscape:collect="always" />
    <radialGradient
       cx="632.78101"
       cy="484.409"
       r="540.27899"
       fx="632.78101"
       fy="484.409"
       id="defitem12"
       gradientUnits="userSpaceOnUse">
      <stop
         style="stop-color:#ffffff;stop-opacity:1.0000000;"
         offset="0.0000000"
         id="stop41" />
      <stop
         style="stop-color:#ededed;stop-opacity:1.0000000;"
         offset="1.0000000"
         id="stop42" />
    </radialGradient>
    <radialGradient
       r="540.27899"
       fy="484.409"
       fx="632.78101"
       cy="484.409"
       cx="632.78101"
       gradientUnits="userSpaceOnUse"
       id="radialGradient3412"
       xlink:href="#defitem12"
       inkscape:collect="always" />
    <inkscape:perspective
       id="perspective3148"
       inkscape:persp3d-origin="32.000001 : 114.33333 : 1"
       inkscape:vp_z="64.000001 : 125 : 1"
       inkscape:vp_y="0 : 999.99997 : 0"
       inkscape:vp_x="0 : 125 : 1"
       sodipodi:type="inkscape:persp3d" />
    <linearGradient
       id="linearGradient3682">
      <stop
         id="stop3684"
         offset="0"
         style="stop-color:#ff6d0f;stop-opacity:1;" />
      <stop
         id="stop3686"
         offset="1"
         style="stop-color:#ff1000;stop-opacity:1;" />
    </linearGradient>
    <linearGradient
       id="linearGradient3864">
      <stop
         style="stop-color:#71b2f8;stop-opacity:1;"
         offset="0"
         id="stop3866" />
      <stop
         style="stop-color:#002795;stop-opacity:1;"
         offset="1"
         id="stop3868" />
    </linearGradient>
  </defs>
  <sodipodi:namedview
     inkscape:window-height="1035"
     inkscape:window-width="1920"
     inkscape:pageshadow="2"
     inkscape:pageopacity="0.0"
     guidetolerance="10.0"
     gridtolerance="10.0"
     objecttolerance="10.0"
     borderopacity="1.0"
     bordercolor="#666666"
     pagecolor="#ffffff"
     id="base"
     inkscape:window-x="0"
     inkscape:window-y="45"
     inkscape:current-layer="svg2"
     inkscape:document-units="mm"
     showgrid="false"
     inkscape:window-maximized="1"
     inkscape:pagecheckerboard="0"
     inkscape:zoom="0.36884176"
     inkscape:cx="1030.2521"
     inkscape:cy="752.35516"
     inkscape:showpageshadow="2"
     inkscape:deskcolor="#d1d1d1" />
  <path
     id="path7575"
     style="color:#000000;fill:#c8c8c8;fill-opacity:1;stroke:#000000;stroke-width:1.99322;stroke-miterlimit:4;stroke-dasharray:none;stroke-opacity:1"
     d="m 39.365044,61.996586 c -0.6216,0.0253 -1.2356,0.0508 -1.8453,0.0782 -3.3419,5.31931 -6.3855,10.67174 -9.1431,16.05037 -1.3927,2.71548 -2.714,5.43565 -3.9564,8.14101 -1.2435,2.70556 -2.4088,5.394376 -3.4969,8.060706 -2.1785,5.33127 -4.0642,10.583028 -5.6163,15.613768 -0.7756,2.51465 -1.4645,4.97141 -2.0287,7.21942 -0.2821,1.12399 -0.5317,2.19806 -0.7439,3.19524 -0.2122,0.99718 -0.3888,1.91701 -0.51,2.71641 l -0.3545,-0.0536 0.3472,0.10094 -2.9096006,10.0213 -2.4687,10.13046 -2.0245,10.2283 -1.5816,10.30551 -1.1292,10.3642 -0.6811,10.40643 -0.22560006,10.4229 0.22560006,10.426 0.6811,10.40333 1.1292,10.36832 1.5816,10.30553 2.0245,10.22724 2.4687,10.13149 2.9096006,10.0213 -0.3194,0.0937 0.3267,-0.0516 c 0.2412,1.58862 0.6939,3.68842 1.2621,5.95492 0.5692,2.26562 1.2543,4.6984 2.0328,7.21941 0.7796,2.52102 1.6537,5.12928 2.6016,7.76416 0.9488,2.63757 1.9699,5.2941 3.0642,7.96699 2.1874,5.34007 4.6568,10.71543 7.4183,16.0967 2.7359,5.32934 5.7652,10.66351 9.1163,15.99579 0.5172,0.027 1.038,0.056 1.5651,0.0813 0.01,2.6e-4 0.011,-2.4e-4 0.017,0 h 347.797006 0.02 c 0.5258,-0.0254 1.046,-0.0546 1.5619,-0.0813 3.342,-5.31931 6.3856,-10.66761 9.1432,-16.04624 1.3927,-2.71547 2.714,-5.43764 3.9564,-8.14205 1.2435,-2.70662 2.4088,-5.39337 3.4969,-8.05969 2.1784,-5.33175 4.0631,-10.58398 5.6153,-15.61478 0.7755,-2.51469 1.4645,-4.97555 2.0287,-7.22354 0.2821,-1.12401 0.5358,-2.19394 0.748,-3.19112 0.2122,-0.99707 0.3847,-1.92113 0.5059,-2.72055 l 0.3348,0.0516 -0.3224,-0.0937 2.9045,-10.0213 2.4686,-10.13149 2.0287,-10.22724 1.5774,-10.30553 1.1334,-10.36832 0.6779,-10.40333 0.2257,-10.426 -0.2257,-10.4229 -0.6779,-10.40643 -1.1334,-10.3642 -1.5774,-10.30551 -2.0287,-10.2283 -2.4686,-10.13046 -2.9045,-10.0213 0.3503,-0.10094 -0.3627,0.0536 c -0.2413,-1.58863 -0.6929,-3.68419 -1.2611,-5.95079 -0.5693,-2.26562 -1.2543,-4.6984 -2.0329,-7.21942 -0.7795,-2.52101 -1.6537,-5.12936 -2.6015,-7.76415 -0.9489,-2.637668 -1.97,-5.292548 -3.0642,-7.965968 -2.1874,-5.340046 -4.6568,-10.718516 -7.4183,-16.100806 -2.7359,-5.32932 -5.7652,-10.66252 -9.1164,-15.99579 -0.5157,-0.0267 -1.0362,-0.0536 -1.5619,-0.0782 h -0.02 -347.532206 z m -24.1435,58.439074 v 149.12925 l -2.6902,-8.49216 -2.8623006,-10.78846 -2.3522,-10.90893 -1.834,-11.00675 -1.3126,-11.07987 -0.7903,-11.13033 -0.2648,-11.15812 0.2648,-11.154 0.7903,-11.13136 1.3126,-11.08398 1.834,-11.00574 2.3522,-10.90892 2.8623006,-10.78435 z m 395.555506,0 2.6913,8.49628 2.8622,10.78435 2.3522,10.90892 1.834,11.00574 1.3116,11.08398 0.7913,11.13136 0.2648,11.154 -0.2648,11.15812 -0.7913,11.13033 -1.3116,11.07987 -1.834,11.00675 -2.3522,10.90893 -2.8622,10.78846 -2.6913,8.49216 z" />
  <path
     id="path12477"
     style="color:#000000;fill:#c8c8c8;fill-opacity:1;stroke:#000000;stroke-width:1.98416;stroke-miterlimit:4;stroke-dasharray:none;stroke-opacity:1"
     d="M 278.5082,0.99207997 V 1.18995 v 0.42707 0.5474 0.66777 0.7881 0.91232 1.03271 1.14914 1.2734 1.39374 1.51412 1.63055 c 0,10e-4 0,0.002 0,0.004 -9e-4,0.57393 -0.2154,1.18719 -0.6808,1.85187 -0.4661,0.66581 -1.1815,1.3737 -2.1237,2.08478 -0.9407,0.71199 -2.1146,1.43276 -3.5202,2.16245 -1.4072,0.72862 -3.0509,1.46419 -4.8856,2.17796 -1.8348,0.71472 -3.8607,1.4084 -6.0772,2.07703 -1.1072,0.33373 -2.2636,0.66212 -3.4698,0.98223 -1.2098,0.3201 -2.4618,0.63037 -3.7562,0.93174 -5.1671,1.19857 -10.8595,2.20135 -17.1134,2.95831 h -47.762 c -6.2539,-0.75696 -11.9463,-1.75974 -17.1134,-2.95831 -1.2944,-0.30137 -2.5464,-0.61164 -3.7562,-0.93174 -1.2061,-0.32011 -2.3626,-0.6485 -3.4698,-0.98223 -2.2164,-0.66863 -4.2424,-1.36231 -6.0772,-2.07703 -1.8347,-0.71377 -3.4784,-1.44934 -4.8856,-2.17796 -1.4056,-0.72969 -2.5795,-1.45046 -3.5202,-2.16245 -0.9422,-0.71108 -1.6576,-1.41897 -2.1237,-2.08478 -0.4654,-0.66468 -0.6799,-1.27794 -0.6808,-1.85187 0,-10e-4 0,-0.002 0,-0.004 V 10.89572 9.3816 7.98786 6.71446 5.56532 4.53261 3.62029 2.83219 2.16442 1.61702 1.18995 0.99207997 Z m 0,13.47545003 v 41.6376 h -1.3036 -4.8702 -7.8488 -10.4251 -12.4869 -13.9182 -14.657 -14.6532 -13.9182 -12.4869 -10.4251 -7.8488 -4.8702 -1.3036 v -41.6376 c 0.064,0.105 0.039,0.20984 0.112,0.31446 0.5247,0.74947 1.2915,1.49815 2.2746,2.24009 0.9816,0.74302 2.1891,1.4852 3.6207,2.22844 1.4337,0.74231 3.0971,1.48374 4.9514,2.20515 1.8545,0.72238 3.8963,1.42334 6.1274,2.09642 1.1152,0.33614 2.2801,0.66418 3.4931,0.98612 1.2167,0.32192 2.4786,0.63272 3.7794,0.93563 5.1381,1.19185 10.8027,2.18589 17.0012,2.94277 l 3.2184,5.9399 3.3655,5.19838 3.4234,4.28217 3.4738,3.35431 3.5201,2.4148 3.5589,1.45972 3.5859,0.48918 3.5898,-0.48918 3.5588,-1.45972 3.5202,-2.4148 3.4737,-3.35431 3.4235,-4.28217 3.3654,-5.19838 3.2185,-5.9399 c 6.1985,-0.75688 11.863,-1.75092 17.0012,-2.94277 1.3008,-0.30291 2.5627,-0.61371 3.7793,-0.93563 1.2131,-0.32194 2.3741,-0.64998 3.4893,-0.98612 2.2311,-0.67308 4.2767,-1.37404 6.1312,-2.09642 1.8543,-0.72141 3.5178,-1.46284 4.9515,-2.20515 1.4316,-0.74324 2.639,-1.48542 3.6207,-2.22844 0.9831,-0.74194 1.7499,-1.49062 2.2746,-2.24009 0.073,-0.1046 0.049,-0.20962 0.1122,-0.31446 z m 0,42.33641 v 67.75765 140.87675 67.75766 h -1.3036 -4.8702 -7.8488 -10.4251 -12.4869 -13.9182 -14.657 -14.6532 -13.9182 -12.4869 -10.4251 -7.8488 -4.8702 -1.3036 V 265.43834 124.56159 56.80394 h 1.3036 4.8702 7.8488 10.4251 12.4869 13.9182 14.6532 14.657 13.9182 12.4869 10.4251 7.8488 4.8702 z m 0,277.08701 v 41.6337 c -0.06,-0.0978 -0.036,-0.19748 -0.1044,-0.29507 -0.5134,-0.74072 -1.2662,-1.48066 -2.2514,-2.22844 -0.9881,-0.75019 -2.2117,-1.50447 -3.6362,-2.24396 -1.423,-0.74167 -3.0568,-1.4684 -4.905,-2.1896 -1.851,-0.72136 -3.923,-1.43581 -6.1622,-2.11198 -2.2404,-0.67623 -4.646,-1.31418 -7.2144,-1.91397 -1.2831,-0.29892 -2.6079,-0.58783 -3.9766,-0.86576 -1.3716,-0.27793 -2.7825,-0.54291 -4.232,-0.79586 -2.8411,-0.49606 -5.8056,-0.92824 -8.8816,-1.30446 l -3.2146,-5.93603 -3.3654,-5.1945 -3.4235,-4.28217 -3.4737,-3.35431 -3.5202,-2.41477 -3.5588,-1.45973 -3.5898,-0.48919 -3.586,0.48919 -3.5588,1.45973 -3.5202,2.41477 -3.4737,3.35431 -3.4235,4.28217 -3.3654,5.1945 -3.2146,5.93603 c -3.076,0.37622 -6.0404,0.8084 -8.8816,1.30446 -1.4495,0.25295 -2.8604,0.51793 -4.2319,0.79586 -1.3688,0.27793 -2.6936,0.56684 -3.9767,0.86576 -2.5684,0.59979 -4.9739,1.23774 -7.2144,1.91397 -2.2392,0.67617 -4.3111,1.39062 -6.1622,2.11198 -1.8481,0.7212 -3.4859,1.44793 -4.9089,2.1896 -1.423,0.73896 -2.6449,1.49434 -3.6323,2.24396 -0.9852,0.74778 -1.738,1.48772 -2.2514,2.22844 -0.068,0.0977 -0.045,0.19728 -0.1044,0.29507 v -41.6337 h 1.3036 4.8702 7.8488 10.4251 12.487 13.9181 14.6532 14.657 13.9182 12.4869 10.4251 7.8488 4.8702 z m 0,43.57872 v 1.63443 1.51024 1.39373 1.27339 1.15303 1.0327 0.90844 0.792 0.66777 0.54739 0.42705 0.19808 H 147.4924 v -0.19808 -0.42705 -0.54739 -0.66777 -0.792 -0.90844 -1.0327 -1.15303 -1.27339 -1.39373 -1.51024 -1.63443 c 0,-0.57741 0.2143,-1.18359 0.6731,-1.84021 v -0.004 c 0.4551,-0.65667 1.1556,-1.35208 2.1005,-2.06928 0.9466,-0.7187 2.1381,-1.45249 3.5356,-2.17796 1.3954,-0.72726 3.0097,-1.44851 4.8393,-2.16243 1.8316,-0.7138 3.8843,-1.42106 6.108,-2.09254 2.2246,-0.67146 4.6161,-1.30552 7.1719,-1.90232 1.2764,-0.29742 2.5948,-0.58523 3.9573,-0.86189 1.3652,-0.27666 2.769,-0.54006 4.2125,-0.792 v 0 c 2.8767,-0.50223 5.8763,-0.94465 8.9977,-1.32385 h 47.8161 c 3.1214,0.3792 6.121,0.82162 8.9977,1.32385 1.4435,0.25194 2.8513,0.51534 4.2165,0.792 1.3625,0.27666 2.6808,0.56447 3.9573,0.86189 2.5557,0.5968 4.9434,1.23086 7.1679,1.90232 2.2238,0.67148 4.2803,1.37874 6.112,2.09254 1.8295,0.71392 3.4439,1.43517 4.8392,2.16243 1.3975,0.72547 2.589,1.45926 3.5357,2.17796 0.9449,0.7172 1.6453,1.41261 2.1005,2.06928 v 0.004 c 0.4586,0.65656 0.671,1.26252 0.6731,1.84021 z m -42.1684,-349.01812 -3.0057,5.55168 -3.3306,5.14404 -3.3732,4.22003 -3.4003,3.28055 -3.4118,2.34103 -3.4119,1.39762 -3.4079,0.46588 -3.4041,-0.46588 -3.4119,-1.39762 -3.4118,-2.34103 -3.4003,-3.28055 -3.3731,-4.22003 -3.3307,-5.14404 -3.0057,-5.55168 z m 0,333.09684 h -46.679 l 3.0057,-5.55168 3.3307,-5.14405 3.3731,-4.22005 3.4003,-3.28442 3.4118,-2.33714 3.4119,-1.40152 3.4041,-0.46198 3.4079,0.46198 3.4119,1.40152 3.4118,2.33714 3.4003,3.28442 3.3732,4.22005 3.3306,5.14405 z" />
  <path
     id="path15403"
     style="color:#000000;fill:#c8c8c8;fill-opacity:1;stroke:#000000;stroke-width:2.02294;stroke-opacity:1;-inkscape-stroke:none"
     d="m 275.367,54.011725 h -10.2681 l 1.8563,0.30823 2.6675,0.57642 2.6323,0.70053 2.5934,0.8206 2.5426,0.94471 2.492,1.06878 2.4335,1.18087 2.3672,1.30098 2.3047,1.40904 2.2268,1.52513 2.1449,1.62119 -0.2067,0.28822 0.234,-0.2682 c 2.7748,2.55136 5.4426,5.55991 7.8581,9.01868 1.211,1.72911 2.3501,3.57276 3.4162,5.5321 1.0637,1.96111 2.0485,4.03827 2.9209,6.20859 0.8724,2.1703 1.6345,4.4339 2.2658,6.752997 0.6326,2.32011 1.1283,4.69095 1.4936,7.117248 0.366,2.42786 0.5894,4.90147 0.6708,7.4175 v 0 c 0.04,1.25815 0.039,2.52205 0,3.79482 -0.018,0.63529 -0.041,1.27521 -0.078,1.91741 -0.037,0.64633 -0.085,1.28879 -0.1404,1.92544 l -0.698,-0.064 c 0.055,-0.62934 0.1036,-1.26227 0.1403,-1.90141 0.036,-0.63486 0.061,-1.26939 0.078,-1.89741 0.034,-1.25838 0.032,-2.50727 -0.01,-3.75078 -0.081,-2.48805 -0.3013,-4.93065 -0.6629,-7.32942 -0.3611,-2.398658 -0.8531,-4.745088 -1.4781,-7.037208 -0.6238,-2.29152 -1.3767,-4.525017 -2.2384,-6.668937 -0.8619,-2.14392 -1.8314,-4.19949 -2.882,-6.13654 -1.0538,-1.93679 -2.1785,-3.75815 -3.3733,-5.46405 -2.3778,-3.40474 -5.0088,-6.35846 -7.7372,-8.87056 l -0.9086,-0.43233 -0.9828,-0.4283 -0.9905,-0.3963 -1.0062,-0.36026 -1.0139,-0.32825 -1.0257,-0.29622 -1.0334,-0.25619 -1.0452,-0.22817 -1.049,-0.18814 -1.0607,-0.16007 -1.0608,-0.1201 -1.0724,-0.0881 -1.0725,-0.0521 -1.0802,-0.0164 v 0 h -127.0708 -0.01 l -1.0764,0.0164 -1.0724,0.0521 -1.0725,0.0881 -1.0646,0.1201 -1.0569,0.16007 -1.049,0.18814 -1.0451,0.22817 -1.0335,0.25619 -1.0256,0.29622 -1.014,0.32825 -1.0061,0.36026 -0.9906,0.3963 -0.9827,0.4283 -0.9087,0.43233 c -2.7284,2.5121 -5.3594,5.46582 -7.7372,8.87056 -1.1947,1.7059 -2.3195,3.52726 -3.3733,5.46405 -1.0506,1.93705 -2.0201,3.99262 -2.8819,6.13654 -0.8618,2.14392 -1.6147,4.377417 -2.2385,6.668937 -0.6249,2.29212 -1.1169,4.63855 -1.478,7.037208 -0.3616,2.39877 -0.5825,4.84137 -0.663,7.32942 -0.04,1.24351 -0.046,2.49232 -0.012,3.75078 0.018,0.62853 0.045,1.26285 0.082,1.89741 0.037,0.63922 0.082,1.27209 0.1366,1.90141 l -0.6942,0.064 c -0.056,-0.63669 -0.103,-1.27919 -0.1404,-1.92544 -0.037,-0.64248 -0.064,-1.28261 -0.082,-1.91741 -0.034,-1.27269 -0.032,-2.53667 0.01,-3.79482 0.082,-2.51603 0.3048,-4.98964 0.6708,-7.4175 0.3653,-2.426298 0.8649,-4.797138 1.4975,-7.117248 0.6313,-2.319097 1.3934,-4.582697 2.2658,-6.752997 0.8725,-2.17032 1.8573,-4.24748 2.9209,-6.20859 1.0661,-1.95934 2.2052,-3.80299 3.4162,-5.5321 2.4155,-3.45877 5.0834,-6.46732 7.8581,-9.01868 l 0.234,0.2682 -0.2067,-0.28822 2.1449,-1.62119 2.2268,-1.52513 2.3048,-1.40904 2.3672,-1.30098 2.4334,-1.18087 2.492,-1.06878 2.5427,-0.94471 2.5933,-0.8206 2.6324,-0.70053 2.6674,-0.57642 1.8563,-0.30823 h -10.2681 c -3.6582,0 -7.2415,0.35824 -10.7439,1.04878 -1.7506,0.34422 -3.4818,0.77363 -5.1946,1.28894 -1.7129,0.51527 -3.408,1.11812 -5.0541,1.79333 -3.292,1.35137 -6.3844,2.99615 -9.2932,4.91565 -2.9068,1.91599 -5.636,4.12555 -8.0804,6.52082 -2.4441,2.39267 -4.5972,4.95406 -6.4814,7.66167 -0.9405,1.35418 -1.8195,2.74404 -2.609,4.13908 -0.7895,1.39994 -1.4955,2.79412 -2.1176,4.18308 -0.6226,1.39013 -1.161006,2.76074 -1.618406,4.10705 -0.4575,1.344787 -0.8344,2.661787 -1.1231,3.882867 -0.5774,2.44237 -0.8073,4.50599 -0.8073,6.05649 v 15.531488 159.71828 15.5315 c 0,0.77343 0.059,1.67393 0.1871,2.69801 0.131,1.02143 0.3373,2.16174 0.6279,3.38649 0.2896,1.2247 0.6627,2.53518 1.1192,3.87489 0.4563,1.34018 0.998606,2.70674 1.622306,4.09903 0.6254,1.39059 1.3353,2.80406 2.1254,4.19911 0.7911,1.39717 1.6581,2.77318 2.5973,4.12305 1.8762,2.69241 4.0354,5.259 6.4853,7.65765 1.2255,1.19925 2.5208,2.35413 3.8686,3.44258 1.3477,1.0884 2.7479,2.1112 4.1962,3.06628 1.4474,0.95599 2.9462,1.84604 4.5004,2.66996 1.5548,0.82281 3.1663,1.58154 4.8123,2.25766 1.6486,0.6772 3.3246,1.26805 5.0307,1.78133 1.7035,0.51226 3.4299,0.94266 5.1789,1.28896 1.7489,0.34624 3.525,0.60733 5.3233,0.78457 1.7985,0.17617 3.6204,0.2682 5.448,0.2682 h 10.2681 l -1.8563,-0.30822 -2.6674,-0.57644 -2.6324,-0.69651 -2.5933,-0.82461 -2.5427,-0.94469 -2.492,-1.06481 -2.4334,-1.18485 -2.3672,-1.30099 -2.3048,-1.40904 -2.2268,-1.52111 -2.1449,-1.6252 0.2067,-0.28823 -0.234,0.2682 c -2.7741,-2.55073 -5.443,-5.55699 -7.8581,-9.01469 v -0.004 c -1.2103,-1.72834 -2.3506,-3.57377 -3.4162,-5.5321 -1.0636,-1.96112 -2.0484,-4.03829 -2.9209,-6.20858 -0.8724,-2.17033 -1.6345,-4.42994 -2.2658,-6.749 -0.6326,-2.32013 -1.1322,-4.69498 -1.4975,-7.12128 -0.366,-2.42775 -0.5893,-4.90145 -0.6708,-7.41749 -0.04,-1.25814 -0.042,-2.52212 -0.01,-3.79482 0.018,-0.63479 0.045,-1.27491 0.082,-1.91742 0.037,-0.64624 0.085,-1.28864 0.1404,-1.92543 l 0.6942,0.0639 c -0.055,0.62943 -0.1,1.2662 -0.1366,1.90541 -0.037,0.63455 -0.064,1.26489 -0.082,1.89341 -0.034,1.25845 -0.028,2.51127 0.012,3.75477 0.081,2.48668 0.3016,4.93207 0.663,7.32943 0.3611,2.39867 0.8531,4.74109 1.478,7.0332 0.6238,2.29153 1.3767,4.52902 2.2385,6.67296 0.8618,2.14393 1.8313,4.19546 2.8819,6.13254 1.0538,1.93678 2.1786,3.75818 3.3733,5.46405 2.3784,3.40559 5.0081,6.36208 7.7372,8.87456 l 0.9087,0.43233 0.9827,0.42832 0.9906,0.39227 1.0061,0.36028 1.014,0.32825 1.0256,0.2962 1.0335,0.26019 1.0451,0.22417 1.049,0.192 1.0569,0.15624 1.0646,0.12416 1.0725,0.0841 1.0724,0.052 1.0764,0.0206 h 0.01 127.0708 v 0 l 1.0802,-0.0206 1.0725,-0.052 1.0724,-0.0841 1.0608,-0.12416 1.0607,-0.15624 1.049,-0.192 1.0452,-0.22417 1.0334,-0.26019 1.0257,-0.2962 1.0139,-0.32825 1.0062,-0.36028 0.9905,-0.39227 0.9828,-0.42832 0.9086,-0.43233 c 2.7292,-2.51248 5.3588,-5.46897 7.7372,-8.87456 1.1948,-1.70587 2.3195,-3.52727 3.3733,-5.46405 1.0506,-1.93708 2.0201,-3.98861 2.882,-6.13254 0.8617,-2.14394 1.6146,-4.38143 2.2384,-6.67296 0.625,-2.29211 1.117,-4.63453 1.4781,-7.0332 0.3614,-2.39736 0.5823,-4.84275 0.6629,-7.32943 v -0.004 c 0.039,-1.24221 0.042,-2.49373 0.01,-3.75078 -0.018,-0.62801 -0.042,-1.25855 -0.078,-1.89341 -0.037,-0.63913 -0.086,-1.27594 -0.1403,-1.90541 l 0.698,-0.0639 c 0.056,0.63675 0.1033,1.27911 0.1404,1.92544 0.037,0.6422 0.06,1.28213 0.078,1.91742 0.035,1.27276 0.036,2.53668 0,3.79482 v 0 c -0.082,2.51603 -0.3048,4.98974 -0.6708,7.41748 -0.3653,2.42631 -0.861,4.80116 -1.4936,7.12129 -0.6313,2.31906 -1.3934,4.57867 -2.2658,6.749 -0.8724,2.17029 -1.8572,4.24746 -2.9209,6.20858 -1.0661,1.95934 -2.2052,3.80701 -3.4162,5.53608 -2.4151,3.45771 -5.084,6.46396 -7.8581,9.0147 l -0.234,-0.26821 0.2067,0.28823 -2.1449,1.6252 -2.2268,1.52111 -2.3047,1.40905 -2.3672,1.30098 -2.4335,1.18486 -2.492,1.0648 -2.5426,0.94469 -2.5934,0.82462 -2.6323,0.6965 -2.6675,0.57644 -1.8563,0.30823 h 10.2681 c 3.6582,0 7.2415,-0.35823 10.744,-1.04879 1.7505,-0.34421 3.4817,-0.77362 5.1945,-1.28894 1.713,-0.51528 3.408,-1.1181 5.0541,-1.79332 3.2921,-1.35138 6.3844,-2.99616 9.2932,-4.91565 2.9069,-1.91598 5.6361,-4.12556 8.0804,-6.52082 2.4441,-2.39268 4.5973,-4.95005 6.4815,-7.65768 0.9412,-1.35504 1.8189,-2.74707 2.6089,-4.14307 v 0 c 0.7896,-1.39996 1.4994,-2.79414 2.1215,-4.18309 0.6226,-1.39014 1.1611,-2.75673 1.6184,-4.10304 0.4575,-1.34477 0.8345,-2.66218 1.1232,-3.88286 0.5774,-2.44238 0.8072,-4.51001 0.8072,-6.06051 V 274.859 115.14073 99.609242 c 0,-0.77276 -0.059,-1.6737 -0.1871,-2.69801 -0.131,-1.02144 -0.3372,-2.16173 -0.6278,-3.3865 -0.2897,-1.22506 -0.6628,-2.53515 -1.1193,-3.874877 -0.4563,-1.34018 -0.9986,-2.70674 -1.6223,-4.09903 -0.6254,-1.3906 -1.3392,-2.80407 -2.1293,-4.19911 -0.7911,-1.39715 -1.6541,-2.76916 -2.5933,-4.11904 -1.8763,-2.69241 -4.0355,-5.26299 -6.4854,-7.66167 -1.2254,-1.19923 -2.5246,-2.35411 -3.8725,-3.44255 -1.3477,-1.08842 -2.744,-2.11123 -4.1923,-3.06627 -1.4474,-0.95601 -2.9501,-1.84608 -4.5042,-2.66998 -1.5548,-0.82282 -3.1625,-1.57754 -4.8085,-2.25367 -1.6485,-0.67721 -3.3284,-1.27204 -5.0346,-1.78532 -1.7034,-0.51226 -3.4259,-0.94265 -5.175,-1.28896 -1.7488,-0.34625 -3.525,-0.60733 -5.3233,-0.78458 -1.7985,-0.17625 -3.6204,-0.2682 -5.448,-0.2682 z m -19.3468,0 h -0.01 -86.0216 -0.01 l -2.7299,0.064 -2.7142,0.19204 -2.6948,0.31624 -2.6674,0.44432 -2.6363,0.56441 -2.6012,0.69252 -2.5621,0.81261 -2.5115,0.93669 -2.4608,1.04878 -2.4022,1.16886 -2.3399,1.28494 -2.2736,1.39304 -1.8329,1.24894 0.1444,-0.056 1.0256,-0.36826 1.0373,-0.33626 1.0491,-0.30022 1.0529,-0.2642 1.0686,-0.23217 1.0724,-0.19204 1.0803,-0.16417 1.0841,-0.124 1.092,-0.0881 1.0958,-0.0521 1.0958,-0.0206 v 0.24018 -0.24018 h 127.0826 v 0.48037 l 0.01,-0.48037 1.0958,0.0206 1.0959,0.0521 1.0919,0.0881 1.0841,0.124 1.0803,0.16417 1.0724,0.19204 1.0647,0.23217 1.0568,0.2642 1.0491,0.30022 1.0373,0.33626 1.0256,0.36826 0.1444,0.056 -1.8329,-1.24894 -2.2736,-1.39304 -2.3399,-1.28494 -2.4022,-1.16886 -2.4608,-1.04878 -2.5115,-0.93669 -2.5621,-0.81261 -2.6012,-0.69252 -2.6362,-0.56441 -2.6714,-0.44432 -2.6909,-0.31624 -2.7142,-0.19204 z m 3.346,40.393887 2.5115,0.10001 2.488,0.30423 2.4452,0.50437 2.3945,0.70053 2.332,0.90066 2.2619,1.09282 2.18,1.27693 2.0903,1.465098 1.9928,1.64121 1.8914,1.80934 1.7744,1.97346 1.6574,2.12957 1.5326,2.27369 1.3962,2.40579 c 5.7018,7.33487 8.8057,16.52702 8.8057,26.07931 v 111.87886 c 0,9.55226 -3.1039,18.74043 -8.8057,26.0753 l -1.3962,2.40577 -1.5326,2.2777 -1.6574,2.12558 -1.7744,1.97744 -1.8914,1.80936 -1.9928,1.64122 -2.0903,1.46107 -2.18,1.28096 -2.2619,1.0888 -2.332,0.90067 -2.3945,0.70451 -2.4452,0.50438 -2.488,0.30023 -2.5115,0.0999 -0.012,-0.30823 v 0.31222 h -92.7059 v -0.41229 l -0.016,0.4083 -2.5075,-0.0999 -2.4881,-0.30023 -2.4452,-0.50438 -2.3944,-0.70451 -2.3321,-0.90067 -2.2619,-1.0888 -2.18,-1.28096 -2.0903,-1.46107 -1.9928,-1.64122 -1.8913,-1.80936 -1.7745,-1.97744 -1.6574,-2.12558 -1.5326,-2.2777 -1.3961,-2.40577 c -5.7018,-7.33487 -8.8057,-16.52304 -8.8058,-26.0753 V 139.06264 c 1e-4,-9.55229 3.104,-18.74444 8.8058,-26.07932 l 1.3961,-2.40179 1.5326,-2.27769 1.6574,-2.12957 1.7745,-1.97346 1.8913,-1.80933 1.9928,-1.64122 2.0903,-1.465088 2.18,-1.27694 2.2619,-1.09282 2.3321,-0.90066 2.3944,-0.70052 2.4452,-0.50437 2.4881,-0.30423 2.5075,-0.10001 0.016,0.4083 v -0.4083 h 92.706 v 0.30823 z m -0.012,0.71654 h -0.016 -92.6786 -0.012 l -2.4685,0.1 -2.4335,0.29622 -2.3906,0.49238 -2.3398,0.68849 -2.2775,0.87666 -2.2112,1.06879 -2.1332,1.24893 -2.0435,1.433058 -1.9538,1.60519 -1.8485,1.7733 -1.7432,1.93745 -1.6262,2.08955 -1.5053,2.23364 -1.0686,1.84137 h 148.793 l -1.0685,-1.84137 -1.5053,-2.23364 -1.6262,-2.08955 -1.7432,-1.93745 -1.8485,-1.7733 -1.9538,-1.60519 -2.0435,-1.433058 -2.1332,-1.24893 -2.2112,-1.06879 -2.2775,-0.87666 -2.3399,-0.68849 -2.3905,-0.49238 -2.4335,-0.29622 z m 28.4763,18.405628 H 138.1721 c -5.5562,7.19055 -8.5913,16.1818 -8.5913,25.53492 v 111.87885 c 0,9.355 3.0368,18.34362 8.5952,25.53491 h 149.6507 c 5.5583,-7.19129 8.5951,-16.17991 8.5951,-25.53491 V 139.0627 c 0,-9.35312 -3.035,-18.34437 -8.5912,-25.53492 z m -74.8292,0.24418 c 43.7002,0 79.1346,36.37184 79.1346,81.22817 0,32.85228 -19.284,62.47225 -48.8527,75.04355 -29.5687,12.5713 -63.6049,5.62094 -86.2361,-17.60904 -22.6313,-23.22994 -29.4025,-58.16658 -17.1552,-88.51754 12.2473,-30.35102 41.1039,-50.14514 73.1094,-50.14514 z m 0,0.72055 c -31.7249,0 -60.326,19.61193 -72.4659,49.69678 -12.1399,30.08479 -5.4259,64.71069 17.007,87.737 22.4328,23.02627 56.1662,29.91795 85.4756,17.4569 29.3094,-12.46107 48.4198,-41.81887 48.4198,-74.38306 0,-44.46866 -35.114,-80.50762 -78.4365,-80.50762 z m 0,8.19405 c 38.9052,0 70.4497,32.37904 70.4497,72.31357 0,39.9345 -31.5445,72.31753 -70.4497,72.31753 -38.9052,0 -70.4537,-32.38303 -70.4537,-72.31753 0,-39.93453 31.5485,-72.31357 70.4537,-72.31357 z m 0,0.71653 c -38.5276,0 -69.7517,32.05019 -69.7517,71.59704 0,39.54684 31.2241,71.59701 69.7517,71.59701 38.5276,0 69.7517,-32.05019 69.7517,-71.59701 0,-39.54685 -31.2241,-71.59704 -69.7517,-71.59704 z m 74.3963,153.7899 H 138.605 l 1.0685,1.84135 1.5053,2.23768 1.6262,2.08954 1.7432,1.93344 1.8485,1.77329 1.9538,1.60518 2.0435,1.43306 2.1332,1.25294 2.2112,1.06479 2.2775,0.88065 2.3398,0.6845 2.3906,0.49238 2.4335,0.30021 2.4686,0.0962 h 0.012 92.6785 0.016 l 2.4686,-0.0962 2.4335,-0.30021 2.3905,-0.49238 2.3399,-0.6845 2.2775,-0.88065 2.2112,-1.06479 2.1331,-1.25294 2.0435,-1.43306 1.9538,-1.60518 1.8485,-1.77329 1.7433,-1.93344 1.6262,-2.08954 1.5053,-2.23768 z m 1.0452,48.62799 -0.1404,0.0561 -1.0256,0.36826 -1.0374,0.33627 -1.049,0.30021 -1.0569,0.2642 -1.0646,0.23216 -1.0724,0.19612 -1.0803,0.16014 -1.0841,0.12395 -1.092,0.0882 -1.0958,0.052 -1.0959,0.0206 -0.01,-0.47635 v 0.47635 H 149.4559 v -0.24017 0.24017 l -1.0958,-0.0206 -1.0959,-0.052 -1.0919,-0.0882 -1.0842,-0.12395 -1.0802,-0.16014 -1.0725,-0.19612 -1.0685,-0.23216 -1.0529,-0.2642 -1.0491,-0.30021 -1.0373,-0.33627 -1.0257,-0.36826 -0.1403,-0.0561 1.829,1.24893 2.2735,1.39304 2.3399,1.28495 2.4023,1.16886 2.4608,1.05278 2.5114,0.9327 2.5622,0.81261 2.6012,0.6925 2.6362,0.56842 2.6675,0.44033 2.6947,0.32023 2.7143,0.1881 2.7298,0.0639 h 0.01 86.0216 0.01 l 2.7299,-0.0639 2.7142,-0.1881 2.6909,-0.32023 2.6714,-0.44033 2.6362,-0.56842 2.6012,-0.6925 2.5621,-0.81261 2.5115,-0.9327 2.4608,-1.05278 2.4022,-1.16886 2.3399,-1.28495 2.2736,-1.39304 z" />
</svg>
