<?xml version="1.0" encoding="UTF-8" standalone="no"?>
<svg
   id="svg2"
   version="1.1"
   viewBox="0 0 457.99783 288.99966"
   height="288.99966mm"
   width="457.99783mm"
   sodipodi:docname="thumbnail.svg"
   inkscape:version="1.2.1 (9c6d41e410, 2022-07-14)"
   xml:space="preserve"
   xmlns:inkscape="http://www.inkscape.org/namespaces/inkscape"
   xmlns:sodipodi="http://sodipodi.sourceforge.net/DTD/sodipodi-0.dtd"
   xmlns:xlink="http://www.w3.org/1999/xlink"
   xmlns="http://www.w3.org/2000/svg"
   xmlns:svg="http://www.w3.org/2000/svg"
   xmlns:rdf="http://www.w3.org/1999/02/22-rdf-syntax-ns#"
   xmlns:cc="http://creativecommons.org/ns#"
   xmlns:dc="http://purl.org/dc/elements/1.1/"><sodipodi:namedview
     id="namedview863"
     pagecolor="#ffffff"
     bordercolor="#000000"
     borderopacity="0.25"
     inkscape:showpageshadow="2"
     inkscape:pageopacity="0.0"
     inkscape:pagecheckerboard="0"
     inkscape:deskcolor="#d1d1d1"
     inkscape:document-units="mm"
     showgrid="false"
     inkscape:zoom="0.18396114"
     inkscape:cx="-312.56601"
     inkscape:cy="198.41147"
     inkscape:window-width="1920"
     inkscape:window-height="1013"
     inkscape:window-x="-9"
     inkscape:window-y="135"
     inkscape:window-maximized="1"
     inkscape:current-layer="svg2" /><!-- Working space 10 10 410 287 --><!-- Title block 220 227 410 287 --><path
     id="path2650"
     style="color:#000000;fill:#c8c8c8;fill-opacity:1;stroke:#000000;stroke-width:1.9921;stroke-opacity:1;-inkscape-stroke:none"
     d="m 102.22602,0.9960512 -0.51028,0.4040057 -0.63195,0.4584712 -0.65464,0.427658 -0.670069,0.3968035 -0.689687,0.3649355 -0.705119,0.3382002 -0.720613,0.2991495 -0.732973,0.2713986 -0.743281,0.2374612 -0.752566,0.2055932 -0.7639,0.1675787 -0.766984,0.135689 -0.775255,0.1007359 -0.772148,0.062722 -0.02681,-0.3423379 0.01956,0.3423379 -40.357863,2.4630603 C 48.833289,7.5212215 45.70908,7.9189405 42.624231,8.5219936 l -0.242263,0.074024 -0.252577,0.089434 -0.253614,0.093532 -0.245357,0.1048562 -0.245354,0.1079381 -0.242244,0.1213074 -0.232987,0.1233559 -0.234024,0.1367244 -0.225766,0.1439243 -0.222673,0.1469887 -0.217526,0.1552448 -0.214435,0.1634399 -0.207213,0.1706407 -0.202045,0.182996 -0.0041,-0.0041 -0.225765,0.217947 -0.222674,0.229226 -0.213396,0.236447 -0.207213,0.244663 -0.194844,0.248782 -0.182476,0.261093 -0.176271,0.267281 -0.162886,0.272434 -0.152572,0.279615 -0.144332,0.28783 -0.131964,0.286816 -0.117521,0.296067 -0.108245,0.302212 -0.09792,0.303268 v 0.0082 h -0.0041 l -4.686493,15.886634 -5.536988,18.754736 -0.260816,0.882016 -0.257723,0.870716 -0.253615,0.854263 -0.248448,0.842951 -0.246374,0.83165 -0.241225,0.816229 -0.237117,0.803885 -0.234024,0.792583 -0.225766,0.777173 -0.229894,0.765851 -0.218544,0.753517 -0.218545,0.738108 -0.214433,0.722676 -0.210305,0.715484 -0.335047,-0.101768 0.304125,0.17476 c -1.977826,3.456315 -3.494765,6.39159 -4.418475,8.2332 -24.0993573,48.036795 -24.0993573,104.587505 0,152.624295 0.92371,1.84161 2.440649,4.77585 4.418475,8.23218 l -0.304125,0.17586 0.335047,-0.10188 0.210305,0.71137 0.214433,0.72678 0.218545,0.73812 0.218544,0.74941 0.229894,0.76586 0.225766,0.77714 0.234024,0.7926 0.237117,0.8039 0.241225,0.81622 0.246374,0.83164 0.248448,0.84296 0.253615,0.85837 0.257723,0.8707 0.260816,0.88204 5.536988,18.75061 4.686493,15.89073 h 0.0041 v 0.008 l 0.09792,0.30325 0.108245,0.29916 0.117521,0.29606 0.131964,0.29093 0.144332,0.28371 0.152572,0.27961 0.162886,0.27552 0.176271,0.26419 0.182476,0.26111 0.194844,0.25187 0.207213,0.24465 0.213396,0.23746 0.222674,0.22513 0.229895,0.21795 0.0082,0.008 0.193808,0.17168 0.207212,0.17067 0.214434,0.16352 0.217526,0.15517 0.222673,0.15119 0.225766,0.13984 0.234024,0.13667 0.232987,0.12432 0.242244,0.12036 0.245356,0.112 0.245355,0.10166 0.253615,0.0967 0.252577,0.0854 0.226783,0.0699 c 3.089975,0.60477 6.219211,1.00869 9.362691,1.2007 l 40.357873,2.45999 -0.0237,0.34541 0.03198,-0.34541 0.771114,0.0659 0.775244,0.10064 0.76803,0.13269 0.762855,0.17069 0.752565,0.20148 0.744306,0.23746 0.731959,0.27241 0.721628,0.30225 0.705139,0.3341 0.689666,0.36904 0.670097,0.3968 0.65463,0.42764 0.63091,0.45438 0.50617,0.40401 h 253.55002 l 0.51029,-0.40401 0.63195,-0.45438 0.65464,-0.42764 0.67006,-0.3968 0.6897,-0.36904 0.70514,-0.3341 0.71648,-0.30225 0.73708,-0.27241 0.74019,-0.23746 0.75567,-0.20148 0.76389,-0.17069 0.76699,-0.13269 0.77524,-0.10064 0.76803,-0.0659 0.031,0.34541 -0.0228,-0.34541 40.35786,-2.45999 c 3.18225,-0.19456 6.35743,-0.53927 9.50701,-1.02902 l 0.2258,-0.0822 0.24947,-0.10062 0.24535,-0.10902 0.24536,-0.11618 0.23814,-0.12433 0.2371,-0.13269 0.23404,-0.13566 0.22576,-0.14801 0.22267,-0.15119 0.21752,-0.15934 0.21032,-0.16352 0.21131,-0.17486 0.19791,-0.17884 0.20308,-0.19017 0.21855,-0.21691 0.2134,-0.23335 0.20722,-0.24157 0.1949,-0.24775 0.18653,-0.257 0.17933,-0.26007 0.16698,-0.26833 0.15979,-0.27241 0.14843,-0.27961 0.13605,-0.28373 0.12887,-0.29093 0.11752,-0.29092 0.10512,-0.29915 0.097,-0.30016 v -0.008 h 0.004 l 4.68755,-15.88766 5.53593,-18.7537 0.26187,-0.88202 0.25668,-0.87072 0.24949,-0.85836 0.24947,-0.84296 0.24537,-0.83164 0.24122,-0.81623 0.23814,-0.80389 0.23402,-0.79259 0.2299,-0.77716 0.22577,-0.76585 0.22163,-0.74941 0.21856,-0.73811 0.21442,-0.72678 0.2103,-0.71138 0.33504,0.10187 -0.30412,-0.17585 c 1.97783,-3.45624 3.49476,-6.39057 4.41848,-8.23218 24.09947,-48.03689 24.09947,-104.5874 0,-152.624291 -0.92372,-1.841609 -2.44065,-4.776987 -4.41848,-8.23321 l 0.30412,-0.17476 -0.33504,0.101767 -0.2103,-0.715482 -0.21442,-0.722687 -0.21856,-0.738098 -0.22163,-0.753517 -0.22577,-0.765861 -0.2299,-0.777163 -0.23402,-0.792583 -0.23814,-0.803895 -0.24122,-0.816219 -0.24537,-0.83165 -0.24947,-0.842961 -0.24949,-0.854263 -0.25668,-0.870705 -0.26187,-0.882018 -5.53593,-18.754739 -4.69168,-15.890732 v -0.0041 l -0.097,-0.302234 -0.10512,-0.296065 -0.11751,-0.295033 -0.12887,-0.290913 -0.13605,-0.283732 -0.14743,-0.279616 -0.16079,-0.272413 -0.16698,-0.268316 -0.17933,-0.260079 -0.18653,-0.255962 -0.1949,-0.245698 -0.20722,-0.240545 -0.2134,-0.233364 -0.21855,-0.22101 -0.008,-0.0082 -0.19492,-0.181941 -0.19889,-0.1788775 -0.2103,-0.1716753 -0.21031,-0.1665435 -0.21752,-0.1593423 -0.22268,-0.1521412 -0.22576,-0.1469888 -0.23403,-0.1367232 -0.23711,-0.1315925 -0.23815,-0.1243903 -0.24534,-0.1161538 -0.24536,-0.1089734 -0.24947,-0.1017681 -0.22579,-0.081197 c -3.1496,-0.4897438 -6.32477,-0.831385 -9.50701,-1.0259375 l -40.35889,-2.4630797 0.0206,-0.3423174 -0.0277,0.3423174 -0.76699,-0.061691 L 364.11415,4.7028388 363.34717,4.5671499 362.58326,4.3995917 361.82761,4.193978 361.08742,3.957551 360.35034,3.6851378 359.63385,3.3859882 358.92872,3.0477694 358.23902,2.682834 357.56896,2.2860295 356.91431,1.8594067 356.2834,1.4009344 355.76899,0.99692979 Z M 55.449753,87.040217 V 201.95664 l -12.935797,-0.33718 -5.536988,-0.14801 c -0.902384,-0.0234 -1.719504,-0.0457 -2.485514,-0.0659 -1.087412,-2.16005 -2.057124,-4.22576 -2.872089,-6.08471 -0.84148,-1.9171 -1.534236,-3.62928 -2.049445,-4.95391 -11.481958,-29.50582 -11.481958,-62.22726 0,-91.733081 0.515209,-1.324636 1.207965,-3.039902 2.049445,-4.957002 0.815584,-1.860343 1.787789,-3.922858 2.876219,-6.084697 0.765013,-0.01992 1.580397,-0.04242 2.481384,-0.06585 l 5.536988,-0.147996 z m 347.467517,0 12.93994,0.342316 5.53594,0.144024 c 0.90229,0.02354 1.71651,0.04573 2.48244,0.06585 1.0884,2.161818 2.05652,4.224354 2.8721,6.084707 0.84147,1.917099 1.53424,3.632366 2.04942,4.956991 11.48196,29.505845 11.48196,62.227245 0,91.733085 -0.51518,1.32462 -1.20795,3.03681 -2.04942,4.9539 -0.81496,1.85894 -1.78058,3.92468 -2.86797,6.08471 -0.76691,0.0199 -1.58286,0.0463 -2.48657,0.0699 l -5.53594,0.14382 -12.93994,0.33719 z" /><metadata
     id="metadata849"><rdf:RDF><cc:Work
         rdf:about=""><dc:format>image/svg+xml</dc:format><dc:type
           rdf:resource="http://purl.org/dc/dcmitype/StillImage" /></cc:Work></rdf:RDF></metadata><defs
     id="defs847"><linearGradient
       gradientUnits="userSpaceOnUse"
       id="defitem29"
       y2="485.909"
       x2="655.35199"
       y1="807.466"
       x1="649.42902"><stop
         id="stop92"
         offset="0.0000000"
         style="stop-color:#ffffff;stop-opacity:1.0000000;" /><stop
         id="stop93"
         offset="1.0000000"
         style="stop-color:#ffffff;stop-opacity:0.13756600;" /></linearGradient><linearGradient
       xlink:href="#defitem29"
       id="linearGradient3448"
       gradientUnits="userSpaceOnUse"
       x1="649.42902"
       y1="807.466"
       x2="655.35199"
       y2="485.909" /><radialGradient
       gradientUnits="userSpaceOnUse"
       id="defitem28"
       fy="345.56"
       fx="1049.72"
       r="1202.15"
       cy="345.56"
       cx="1049.72"><stop
         id="stop89"
         offset="0.0000000"
         style="stop-color:#ffffff;stop-opacity:1.0000000;" /><stop
         id="stop90"
         offset="1.0000000"
         style="stop-color:#a8a8a8;stop-opacity:1.0000000;" /></radialGradient><radialGradient
       xlink:href="#defitem28"
       id="radialGradient3446"
       gradientUnits="userSpaceOnUse"
       cx="1092.7045"
       cy="64.845284"
       fx="1089.4004"
       fy="64.844765"
       r="1202.15" /><linearGradient
       gradientUnits="userSpaceOnUse"
       id="defitem30"
       y2="636.70697"
       x2="980"
       y1="636.70697"
       x1="287.5"><stop
         id="stop95"
         offset="0.0000000"
         style="stop-color:#464646;stop-opacity:1.0000000;" /><stop
         id="stop96"
         offset="1.0000000"
         style="stop-color:#c2c2c2;stop-opacity:1.0000000;" /></linearGradient><linearGradient
       xlink:href="#defitem30"
       id="linearGradient3444"
       gradientUnits="userSpaceOnUse"
       gradientTransform="matrix(1,0,0,1.016038,0,-11.73855)"
       x1="287.5"
       y1="636.70697"
       x2="980"
       y2="636.70697" /><linearGradient
       gradientUnits="userSpaceOnUse"
       id="defitem27"
       y2="317.44699"
       x2="985.98199"
       y1="403.18799"
       x1="921.091"><stop
         id="stop86"
         offset="0.0000000"
         style="stop-color:#7e7e7e;stop-opacity:1.0000000;" /><stop
         id="stop87"
         offset="1.0000000"
         style="stop-color:#e5e5e5;stop-opacity:1.0000000;" /></linearGradient><linearGradient
       xlink:href="#defitem27"
       id="linearGradient3442"
       gradientUnits="userSpaceOnUse"
       x1="921.091"
       y1="403.18799"
       x2="985.98199"
       y2="317.44699" /><linearGradient
       gradientUnits="userSpaceOnUse"
       id="defitem26"
       y2="360.27499"
       x2="293.37"
       y1="346.30399"
       x1="530.76099"><stop
         id="stop83"
         offset="0.0000000"
         style="stop-color:#5f5f5f;stop-opacity:1.0000000;" /><stop
         id="stop84"
         offset="1.0000000"
         style="stop-color:#e5e5e5;stop-opacity:1.0000000;" /></linearGradient><linearGradient
       xlink:href="#defitem26"
       id="linearGradient3440"
       gradientUnits="userSpaceOnUse"
       x1="530.76099"
       y1="346.30399"
       x2="293.37"
       y2="360.27499" /><linearGradient
       gradientUnits="userSpaceOnUse"
       id="defitem25"
       y2="337.60999"
       x2="308.75"
       y1="412.91901"
       x1="164.013"><stop
         id="stop80"
         offset="0.0000000"
         style="stop-color:#ffffff;stop-opacity:1.0000000;" /><stop
         id="stop81"
         offset="1.0000000"
         style="stop-color:#bfbfbf;stop-opacity:1.0000000;" /></linearGradient><linearGradient
       xlink:href="#defitem25"
       id="linearGradient3438"
       gradientUnits="userSpaceOnUse"
       x1="164.013"
       y1="412.91901"
       x2="308.75"
       y2="337.60999" /><linearGradient
       gradientUnits="userSpaceOnUse"
       id="defitem24"
       y2="380.47198"
       x2="992.48901"
       y1="270.854"
       x1="1094.25"><stop
         id="stop77"
         offset="0.0000000"
         style="stop-color:#6a6a6a;stop-opacity:1.0000000;" /><stop
         id="stop78"
         offset="1.0000000"
         style="stop-color:#e6e6e6;stop-opacity:1.0000000;" /></linearGradient><linearGradient
       xlink:href="#defitem24"
       id="linearGradient3436"
       gradientUnits="userSpaceOnUse"
       x1="1094.25"
       y1="270.854"
       x2="992.48901"
       y2="380.47198" /><linearGradient
       gradientUnits="userSpaceOnUse"
       id="defitem23"
       y2="549.37799"
       x2="1049.84"
       y1="476.465"
       x1="1170.91"><stop
         id="stop74"
         offset="0.0000000"
         style="stop-color:#5f5f5f;stop-opacity:1.0000000;" /><stop
         id="stop75"
         offset="1.0000000"
         style="stop-color:#ebebeb;stop-opacity:1.0000000;" /></linearGradient><linearGradient
       xlink:href="#defitem23"
       id="linearGradient3434"
       gradientUnits="userSpaceOnUse"
       x1="1170.91"
       y1="476.465"
       x2="1049.84"
       y2="549.37799" /><linearGradient
       gradientUnits="userSpaceOnUse"
       id="defitem22"
       y2="313.276"
       x2="576.14899"
       y1="105.486"
       x1="783.716"><stop
         id="stop71"
         offset="0.0000000"
         style="stop-color:#5a5a5a;stop-opacity:1.0000000;" /><stop
         id="stop72"
         offset="1.0000000"
         style="stop-color:#c7c7c7;stop-opacity:1.0000000;" /></linearGradient><linearGradient
       xlink:href="#defitem22"
       id="linearGradient3432"
       gradientUnits="userSpaceOnUse"
       x1="783.716"
       y1="105.486"
       x2="576.14899"
       y2="313.276" /><linearGradient
       gradientUnits="userSpaceOnUse"
       id="defitem21"
       y2="484.716"
       x2="128.05499"
       y1="418.698"
       x1="280.04401"><stop
         id="stop68"
         offset="0.0000000"
         style="stop-color:#666666;stop-opacity:1.0000000;" /><stop
         id="stop69"
         offset="1.0000000"
         style="stop-color:#d8d8d8;stop-opacity:1.0000000;" /></linearGradient><linearGradient
       xlink:href="#defitem21"
       id="linearGradient3430"
       gradientUnits="userSpaceOnUse"
       x1="280.04401"
       y1="418.698"
       x2="128.05499"
       y2="484.716" /><linearGradient
       gradientUnits="userSpaceOnUse"
       id="defitem20"
       y2="584.40997"
       x2="220"
       y1="636.95398"
       x1="129.687"><stop
         id="stop65"
         offset="0.0000000"
         style="stop-color:#ffffff;stop-opacity:1.0000000;" /><stop
         id="stop66"
         offset="1.0000000"
         style="stop-color:#bbbbbb;stop-opacity:1.0000000;" /></linearGradient><linearGradient
       xlink:href="#defitem20"
       id="linearGradient3428"
       gradientUnits="userSpaceOnUse"
       x1="129.687"
       y1="636.95398"
       x2="220"
       y2="584.40997" /><linearGradient
       gradientUnits="userSpaceOnUse"
       id="defitem19"
       y2="583.75299"
       x2="1127.98"
       y1="629.02802"
       x1="1048.72"><stop
         id="stop62"
         offset="0.0000000"
         style="stop-color:#5e5e5e;stop-opacity:1.0000000;" /><stop
         id="stop63"
         offset="1.0000000"
         style="stop-color:#ededed;stop-opacity:1.0000000;" /></linearGradient><linearGradient
       xlink:href="#defitem19"
       id="linearGradient3426"
       gradientUnits="userSpaceOnUse"
       x1="1048.72"
       y1="629.02802"
       x2="1127.98"
       y2="583.75299" /><linearGradient
       gradientUnits="userSpaceOnUse"
       id="defitem18"
       y2="291.97699"
       x2="581.32397"
       y1="387.27301"
       x1="370.022"><stop
         id="stop59"
         offset="0.0000000"
         style="stop-color:#636363;stop-opacity:1.0000000;" /><stop
         id="stop60"
         offset="1.0000000"
         style="stop-color:#d6d6d6;stop-opacity:1.0000000;" /></linearGradient><linearGradient
       xlink:href="#defitem18"
       id="linearGradient3424"
       gradientUnits="userSpaceOnUse"
       x1="370.022"
       y1="387.27301"
       x2="581.32397"
       y2="291.97699" /><linearGradient
       gradientUnits="userSpaceOnUse"
       id="defitem17"
       y2="351.939"
       x2="909.59399"
       y1="351.939"
       x1="732.15601"><stop
         id="stop56"
         offset="0.0000000"
         style="stop-color:#676767;stop-opacity:1.0000000;" /><stop
         id="stop57"
         offset="1.0000000"
         style="stop-color:#d3d3d3;stop-opacity:1.0000000;" /></linearGradient><linearGradient
       xlink:href="#defitem17"
       id="linearGradient3422"
       gradientUnits="userSpaceOnUse"
       x1="732.15601"
       y1="351.939"
       x2="909.59399"
       y2="351.939" /><linearGradient
       gradientUnits="userSpaceOnUse"
       id="defitem16"
       y2="494.71301"
       x2="1073.01"
       y1="494.71301"
       x1="1014.43"><stop
         id="stop53"
         offset="0.0000000"
         style="stop-color:#666666;stop-opacity:1.0000000;" /><stop
         id="stop54"
         offset="1.0000000"
         style="stop-color:#dcdcdc;stop-opacity:1.0000000;" /></linearGradient><linearGradient
       xlink:href="#defitem16"
       id="linearGradient3420"
       gradientUnits="userSpaceOnUse"
       x1="1014.43"
       y1="494.71301"
       x2="1073.01"
       y2="494.71301" /><linearGradient
       gradientUnits="userSpaceOnUse"
       id="defitem15"
       y2="516.37"
       x2="193.27699"
       y1="452.388"
       x1="272.59201"><stop
         id="stop50"
         offset="0.0000000"
         style="stop-color:#6e6e6e;stop-opacity:1.0000000;" /><stop
         id="stop51"
         offset="1.0000000"
         style="stop-color:#d8d8d8;stop-opacity:1.0000000;" /></linearGradient><linearGradient
       xlink:href="#defitem15"
       id="linearGradient3418"
       gradientUnits="userSpaceOnUse"
       x1="272.59201"
       y1="452.388"
       x2="193.27699"
       y2="516.37" /><radialGradient
       gradientUnits="userSpaceOnUse"
       id="defitem14"
       fy="211.088"
       fx="1037.22"
       r="1164.28"
       cy="211.088"
       cx="1037.22"><stop
         id="stop47"
         offset="0.0000000"
         style="stop-color:#ffffff;stop-opacity:1.0000000;" /><stop
         id="stop48"
         offset="1.0000000"
         style="stop-color:#aaaaaa;stop-opacity:1.0000000;" /></radialGradient><radialGradient
       xlink:href="#defitem14"
       id="radialGradient3416"
       gradientUnits="userSpaceOnUse"
       cx="1037.22"
       cy="211.088"
       fx="1037.22"
       fy="211.088"
       r="1164.28" /><linearGradient
       gradientUnits="userSpaceOnUse"
       id="defitem13"
       y2="686.83002"
       x2="379.241"
       y1="732.12903"
       x1="342.64999"><stop
         id="stop44"
         offset="0.0000000"
         style="stop-color:#ffffff;stop-opacity:1.0000000;" /><stop
         id="stop45"
         offset="1.0000000"
         style="stop-color:#989898;stop-opacity:1.0000000;" /></linearGradient><linearGradient
       xlink:href="#defitem13"
       id="linearGradient3414"
       gradientUnits="userSpaceOnUse"
       x1="342.64999"
       y1="732.12903"
       x2="379.241"
       y2="686.83002" /><radialGradient
       gradientUnits="userSpaceOnUse"
       id="defitem12"
       fy="484.409"
       fx="632.78101"
       r="540.27899"
       cy="484.409"
       cx="632.78101"><stop
         id="stop41"
         offset="0.0000000"
         style="stop-color:#ffffff;stop-opacity:1.0000000;" /><stop
         id="stop42"
         offset="1.0000000"
         style="stop-color:#ededed;stop-opacity:1.0000000;" /></radialGradient><radialGradient
       xlink:href="#defitem12"
       id="radialGradient3412"
       gradientUnits="userSpaceOnUse"
       cx="632.78101"
       cy="484.409"
       fx="632.78101"
       fy="484.409"
       r="540.27899" /><radialGradient
       xlink:href="#linearGradient3682"
       id="radialGradient3817"
       gradientUnits="userSpaceOnUse"
       gradientTransform="matrix(1.1149219,0.2722306,-0.7507171,3.0745639,-471.08629,-148.32863)"
       cx="270.58316"
       cy="33.899986"
       fx="270.58316"
       fy="33.899986"
       r="19.571428" /><linearGradient
       id="linearGradient3682"><stop
         style="stop-color:#ff6d0f;stop-opacity:1;"
         offset="0"
         id="stop3684" /><stop
         style="stop-color:#ff1000;stop-opacity:1;"
         offset="1"
         id="stop3686" /></linearGradient><radialGradient
       xlink:href="#linearGradient3864"
       id="radialGradient3661"
       gradientUnits="userSpaceOnUse"
       gradientTransform="matrix(0.6186598,0.9666542,-1.0332462,0.6612786,-327.27568,-255.84136)"
       cx="282.64584"
       cy="29.149046"
       fx="282.64584"
       fy="29.149046"
       r="19.571428" /><linearGradient
       id="linearGradient3864"><stop
         id="stop3866"
         offset="0"
         style="stop-color:#71b2f8;stop-opacity:1;" /><stop
         id="stop3868"
         offset="1"
         style="stop-color:#002795;stop-opacity:1;" /></linearGradient><radialGradient
       gradientUnits="userSpaceOnUse"
       id="defitem28-5"
       fy="345.56"
       fx="1049.72"
       r="1202.15"
       cy="345.56"
       cx="1049.72"><stop
         id="stop89-8"
         offset="0.0000000"
         style="stop-color:#ffffff;stop-opacity:1.0000000;" /><stop
         id="stop90-2"
         offset="1.0000000"
         style="stop-color:#a8a8a8;stop-opacity:1.0000000;" /></radialGradient><radialGradient
       xlink:href="#defitem28-5"
       id="radialGradient3446-6"
       gradientUnits="userSpaceOnUse"
       cx="1092.7045"
       cy="64.845284"
       fx="1089.4004"
       fy="64.844765"
       r="1202.15" /><radialGradient
       gradientUnits="userSpaceOnUse"
       id="defitem14-6"
       fy="211.088"
       fx="1037.22"
       r="1164.28"
       cy="211.088"
       cx="1037.22"><stop
         id="stop47-5"
         offset="0.0000000"
         style="stop-color:#ffffff;stop-opacity:1.0000000;" /><stop
         id="stop48-0"
         offset="1.0000000"
         style="stop-color:#aaaaaa;stop-opacity:1.0000000;" /></radialGradient><radialGradient
       xlink:href="#defitem14-6"
       id="radialGradient3416-5"
       gradientUnits="userSpaceOnUse"
       cx="1037.22"
       cy="211.088"
       fx="1037.22"
       fy="211.088"
       r="1164.28" /><radialGradient
       gradientUnits="userSpaceOnUse"
       id="defitem12-7"
       fy="484.409"
       fx="632.78101"
       r="540.27899"
       cy="484.409"
       cx="632.78101"><stop
         id="stop41-3"
         offset="0.0000000"
         style="stop-color:#ffffff;stop-opacity:1.0000000;" /><stop
         id="stop42-3"
         offset="1.0000000"
         style="stop-color:#ededed;stop-opacity:1.0000000;" /></radialGradient><radialGradient
       xlink:href="#defitem12-7"
       id="radialGradient3412-8"
       gradientUnits="userSpaceOnUse"
       cx="632.78101"
       cy="484.409"
       fx="632.78101"
       fy="484.409"
       r="540.27899" /><radialGradient
       xlink:href="#linearGradient3682"
       id="radialGradient3817-0"
       gradientUnits="userSpaceOnUse"
       gradientTransform="matrix(1.1149219,0.2722306,-0.7507171,3.0745639,-471.08629,-148.32863)"
       cx="270.58316"
       cy="33.899986"
       fx="270.58316"
       fy="33.899986"
       r="19.571428" /><radialGradient
       xlink:href="#linearGradient3864"
       id="radialGradient3661-0"
       gradientUnits="userSpaceOnUse"
       gradientTransform="matrix(0.6186598,0.9666542,-1.0332462,0.6612786,-327.27568,-255.84136)"
       cx="282.64584"
       cy="29.149046"
       fx="282.64584"
       fy="29.149046"
       r="19.571428" /></defs><g
     id="g6381"
     transform="matrix(2.0782797,0,0,2.4503181,20.805626,73.641598)"><path
       style="color:#000000;fill:#c8c8c8;fill-opacity:1;stroke:#000000;stroke-width:1;stroke-dasharray:none;stroke-opacity:1"
       d="m 0.5,0.5 h 0.15039 0.25195 0.32422 0.39649 0.46875 0.54101 0.61133 0.68555 0.75586 0.82812 0.89844 0.9707 21.32617 1.63672 34.93164 69.79688 34.93359 1.63477 21.32617 0.9707 0.90039 0.82813 0.75586 0.68359 0.61328 0.54102 0.46679 0.39649 0.32422 0.2539 0.14844 v 56.835945 h -0.14844 -0.2539 -0.32422 -0.39649 -0.46679 -0.54102 -0.61328 -0.68359 -0.75586 -0.82813 -0.90039 -0.9707 -21.32617 -1.63477 H 135.07422 65.27734 30.3457 28.70898 7.38281 6.41211 5.51367 4.68555 3.92969 3.24414 2.63281 2.0918 1.62305 1.22656 0.90234 0.65039 0.5 Z"
       id="path3846" /><g
       id="g3474"
       style="stroke-width:1;stroke-dasharray:none"
       transform="translate(-36.865179,-15.57583)"><path
         d="m 208.50785,73.0872 v -1.82465 -2.7939 -3.662 -4.3975 -4.97375 -5.36995 -5.57165 -5.57165 -5.36995 -4.97375 -4.3975 -3.662 -2.7939 -1.82465"
         id="path268"
         style="fill:none;stroke:#000000;stroke-width:1;stroke-linecap:butt;stroke-linejoin:miter;stroke-dasharray:none" /><path
         d="m 229.83385,73.0872 c -0.3505,-0.6872 -0.6935,-1.77065 -1.024,-3.24245 -0.1655,-0.73665 -0.327,-1.57225 -0.481,-2.4874 -0.154,-0.9141 -0.3,-1.9108 -0.438,-2.9902"
         id="path272"
         style="fill:none;stroke:#000000;stroke-width:1;stroke-linecap:butt;stroke-linejoin:miter;stroke-dasharray:none" /><path
         d="m 222.61335,55.44185 0.273,0.6992 0.2905,0.6915 0.307,0.68325 0.323,0.6747 0.3395,0.66555 0.3555,0.65605 0.371,0.64615 0.387,0.6357 0.402,0.6249 0.417,0.6137 0.4315,0.6021 0.446,0.59005 0.4605,0.57765 0.474,0.5648"
         id="path274"
         style="fill:none;stroke:#000000;stroke-width:1;stroke-linecap:butt;stroke-linejoin:miter;stroke-dasharray:none" /><path
         d="m 222.61335,33.54575 -3.416,1.5029 -2.9075,1.531 -2.3905,1.55445 -1.867,1.57335 -1.3375,1.58753 -0.804,1.59703 -0.268,1.60179 0.268,1.60179 0.804,1.59702 1.3375,1.58754 1.867,1.57335 2.3905,1.55445 2.9075,1.531 3.416,1.5029"
         id="path276"
         style="fill:none;stroke:#000000;stroke-width:1;stroke-linecap:butt;stroke-linejoin:miter;stroke-dasharray:none" /><path
         d="m 222.61335,33.54575 0.273,-0.6992 0.2905,-0.6915 0.307,-0.68325 0.323,-0.6747 0.3395,-0.66555 0.3555,-0.65605 0.371,-0.64615 0.387,-0.6357 0.402,-0.6249 0.417,-0.6137 0.4315,-0.6021 0.446,-0.59005 0.4605,-0.57765 0.474,-0.5648"
         id="path278"
         style="fill:none;stroke:#000000;stroke-width:1;stroke-linecap:butt;stroke-linejoin:miter;stroke-dasharray:none" /><path
         d="m 229.83385,15.9004 c -0.3505,0.6872 -0.6935,1.77065 -1.024,3.24245 -0.1655,0.73665 -0.327,1.57225 -0.481,2.4874 -0.154,0.9141 -0.3,1.9108 -0.438,2.9902"
         id="path280"
         style="fill:none;stroke:#000000;stroke-width:1;stroke-linecap:butt;stroke-linejoin:miter;stroke-dasharray:none" /><path
         d="m 46.190852,24.62045 c -0.138,-1.0796 -0.2835,-2.07345 -0.4365,-2.9815 -0.1525,-0.9096 -0.3115,-1.73365 -0.477,-2.4721 -0.1655,-0.73765 -0.3365,-1.3875 -0.5085,-1.934 -0.172,-0.546 -0.346,-0.99015 -0.521,-1.33245"
         id="path282"
         style="fill:none;stroke:#000000;stroke-width:1;stroke-linecap:butt;stroke-linejoin:miter;stroke-dasharray:none" /><path
         d="m 46.190852,24.62045 0.474,0.5648 0.4605,0.57765 0.446,0.59005 0.4315,0.6021 0.417,0.6137 0.402,0.6249 0.387,0.6357 0.371,0.64615 0.3555,0.65605 0.3395,0.66555 0.323,0.6747 0.307,0.68325 0.2905,0.6915 0.273,0.6992"
         id="path284"
         style="fill:none;stroke:#000000;stroke-width:1;stroke-linecap:butt;stroke-linejoin:miter;stroke-dasharray:none" /><path
         d="m 51.468352,55.44185 3.416,-1.5029 2.9075,-1.531 2.3905,-1.55445 1.867,-1.57335 1.3375,-1.58754 0.804,-1.59702 0.268,-1.60179 -0.268,-1.60179 -0.804,-1.59703 -1.3375,-1.58753 -1.867,-1.57335 -2.3905,-1.55445 -2.9075,-1.531 -3.416,-1.5029"
         id="path286"
         style="fill:none;stroke:#000000;stroke-width:1;stroke-linecap:butt;stroke-linejoin:miter;stroke-dasharray:none" /><path
         d="m 46.190852,64.36715 0.474,-0.5648 0.4605,-0.57765 0.446,-0.59005 0.4315,-0.6021 0.417,-0.6137 0.402,-0.6249 0.387,-0.6357 0.371,-0.64615 0.3555,-0.65605 0.3395,-0.66555 0.323,-0.6747 0.307,-0.68325 0.2905,-0.6915 0.273,-0.6992"
         id="path288"
         style="fill:none;stroke:#000000;stroke-width:1;stroke-linecap:butt;stroke-linejoin:miter;stroke-dasharray:none" /><path
         d="m 46.190852,64.36715 c -0.138,1.0796 -0.2835,2.07345 -0.4365,2.9815 -0.1525,0.9096 -0.3115,1.73365 -0.477,2.4721 -0.1655,0.73765 -0.3365,1.3875 -0.5085,1.934 -0.172,0.546 -0.346,0.99015 -0.521,1.33245"
         id="path290"
         style="fill:none;stroke:#000000;stroke-width:1;stroke-linecap:butt;stroke-linejoin:miter;stroke-dasharray:none" /><path
         d="m 65.573852,15.9004 v 1.82465 2.7939 3.662 4.3975 4.97375 5.36995 5.57165 5.57165 5.36995 4.97375 4.3975 3.662 2.7939 1.82465"
         id="path293"
         style="fill:none;stroke:#000000;stroke-width:1;stroke-linecap:butt;stroke-linejoin:miter;stroke-dasharray:none" /><path
         id="31"
         d="M 222.61335,55.44185 V 33.54575"
         style="fill:none;stroke:#000000;stroke-width:1;stroke-linecap:butt;stroke-linejoin:miter;stroke-dasharray:none" /><path
         id="32"
         d="M 227.89085,64.36715 V 24.62045"
         style="fill:none;stroke:#000000;stroke-width:1;stroke-linecap:butt;stroke-linejoin:miter;stroke-dasharray:none" /><path
         id="33"
         d="M 46.190852,64.36715 V 24.62045"
         style="fill:none;stroke:#000000;stroke-width:1;stroke-linecap:butt;stroke-linejoin:miter;stroke-dasharray:none" /><path
         id="34"
         d="M 51.468352,55.44185 V 33.54575"
         style="fill:none;stroke:#000000;stroke-width:1;stroke-linecap:butt;stroke-linejoin:miter;stroke-dasharray:none" /></g></g><g
     id="g7511"
     transform="matrix(1.9529725,0,0,1.9566765,55.208598,-97.278126)"
     style="stroke-width:1;stroke-dasharray:none"><g
       id="g6892"
       transform="translate(19.226906,57.187104)"
       style="stroke-width:1;stroke-dasharray:none"><g
         id="g5865"
         style="stroke-width:1;stroke-dasharray:none"><path
           style="color:#000000;fill:#c8c8c8;fill-opacity:1;stroke:#000000;stroke-width:1;stroke-dasharray:none;stroke-opacity:1"
           d="m 69.75971,0.50023917 c 19.01467,-0.03942 37.98322,4.79618103 54.74411,13.74617783 1.53763,3.069673 3.2041,6.724136 4.66794,9.425784 2.05361,0.962995 5.25579,0.685145 6.52947,2.490718 0.96451,3.448972 3.06984,6.694921 3.32014,10.270997 0,20.388017 0,40.776027 0,61.164047 -1.19531,3.250647 -2.39063,6.501297 -3.58594,9.751947 -2.06428,0.81763 -5.17818,0.99354 -6.54204,2.20746 -1.47271,2.99741 -2.92134,6.02019 -4.40907,9.00178 -31.1394,16.88909 -70.05688,18.27057 -102.27824,3.51832 -3.06502,-1.80193 -7.64986,-2.26727 -8.54072,-6.2997 -1.08393,-2.14861 -2.30537,-4.87568 -3.31575,-6.65647 C 8.29508,108.15738 5.09308,108.43243 3.81822,106.62666 2.85446,103.17898 0.74958,99.934353 0.5,96.359593 c 0,-20.38802 0,-40.77604 0,-61.164055 1.19466,-3.251302 2.38933,-6.502604 3.58399,-9.753906 2.06513,-0.817393 5.18542,-0.992197 6.54408,-2.207475 1.47272,-2.996659 2.92124,-6.019 4.40904,-8.99964 C 31.79935,5.2995932 50.75202,0.46451317 69.75971,0.50023917 Z"
           id="path5467" /><g
           id="g5458"
           transform="translate(-231.01474,-26.38903)"
           style="stroke-width:1;stroke-dasharray:none"><path
             d="m 289.20762,143.43905 q 11.56781,-0.056 23.1356,0"
             id="path1473"
             style="fill:none;stroke:#000000;stroke-width:1;stroke-linecap:butt;stroke-linejoin:miter;stroke-dasharray:none" /><path
             d="m 312.34322,42.096055 q -5.7839,0.028 -11.56779,0.028"
             id="path1481"
             style="fill:none;stroke:#000000;stroke-width:1;stroke-linecap:butt;stroke-linejoin:miter;stroke-dasharray:none" /><path
             d="m 300.77543,42.124055 q -5.78391,0 -11.56781,-0.028"
             id="path1483"
             style="fill:none;stroke:#000000;stroke-width:1;stroke-linecap:butt;stroke-linejoin:miter;stroke-dasharray:none" /><path
             d="m 289.20762,143.43905 a 51.9755,51.9755 0 0 1 0,-101.342995"
             id="path1492"
             style="fill:none;stroke:#000000;stroke-width:1;stroke-linecap:butt;stroke-linejoin:miter;stroke-dasharray:none" /><path
             d="m 312.34322,42.096055 a 51.9755,51.9755 0 0 1 0,101.342995"
             id="path1494"
             style="fill:none;stroke:#000000;stroke-width:1;stroke-linecap:butt;stroke-linejoin:miter;stroke-dasharray:none" /><circle
             cx="92.767555"
             cy="300.77542"
             r="50.570499"
             id="circle1496"
             transform="matrix(0,1,1,0,0,0)"
             style="fill:none;stroke:#000000;stroke-width:1;stroke-linecap:butt;stroke-linejoin:miter;stroke-dasharray:none" /><path
             d="m 302.89151,43.264055 q -1.05741,-0.0522 -2.11608,-0.0523"
             id="path1510"
             style="fill:none;stroke:#000000;stroke-width:1;stroke-linecap:butt;stroke-linejoin:miter;stroke-dasharray:none" /><path
             d="m 302.89151,43.264055 a 49.5487,49.5487 0 0 1 0,99.006995"
             id="path1512"
             style="fill:none;stroke:#000000;stroke-width:1;stroke-linecap:butt;stroke-linejoin:miter;stroke-dasharray:none" /><path
             d="m 298.65933,142.27105 q 2.1161,0.1042 4.23218,0"
             id="path1514"
             style="fill:none;stroke:#000000;stroke-width:1;stroke-linecap:butt;stroke-linejoin:miter;stroke-dasharray:none" /><path
             d="m 298.65933,142.27105 a 49.5487,49.5487 0 0 1 0,-99.006995"
             id="path1516"
             style="fill:none;stroke:#000000;stroke-width:1;stroke-linecap:butt;stroke-linejoin:miter;stroke-dasharray:none" /><path
             d="m 300.77543,43.211755 q -1.05868,1e-4 -2.1161,0.0523"
             id="path1518"
             style="fill:none;stroke:#000000;stroke-width:1;stroke-linecap:butt;stroke-linejoin:miter;stroke-dasharray:none" /><path
             d="m 303.55387,43.467605 q -0.32992,-0.11545 -0.66236,-0.20355"
             id="path1520"
             style="fill:none;stroke:#000000;stroke-width:1;stroke-linecap:butt;stroke-linejoin:miter;stroke-dasharray:none" /><path
             d="m 303.55387,43.467605 q -0.56134,0.0067 -1.12436,0.01065"
             id="path1522"
             style="fill:none;stroke:#000000;stroke-width:1;stroke-linecap:butt;stroke-linejoin:miter;stroke-dasharray:none" /><path
             d="m 302.42951,43.478255 a 49.31705,49.31705 0 0 1 0,98.578595"
             id="path1524"
             style="fill:none;stroke:#000000;stroke-width:1;stroke-linecap:butt;stroke-linejoin:miter;stroke-dasharray:none" /><path
             d="m 302.42951,142.05685 q 0.56302,0.004 1.12436,0.0106"
             id="path1526"
             style="fill:none;stroke:#000000;stroke-width:1;stroke-linecap:butt;stroke-linejoin:miter;stroke-dasharray:none" /><path
             d="m 302.89151,142.27105 q 0.33244,-0.0881 0.66236,-0.20355"
             id="path1528"
             style="fill:none;stroke:#000000;stroke-width:1;stroke-linecap:butt;stroke-linejoin:miter;stroke-dasharray:none" /><path
             d="m 298.65933,43.264055 q -0.33243,0.0881 -0.66235,0.20355"
             id="path1530"
             style="fill:none;stroke:#000000;stroke-width:1;stroke-linecap:butt;stroke-linejoin:miter;stroke-dasharray:none" /><path
             d="m 297.99698,142.0675 q 0.32992,0.11545 0.66235,0.20355"
             id="path1532"
             style="fill:none;stroke:#000000;stroke-width:1;stroke-linecap:butt;stroke-linejoin:miter;stroke-dasharray:none" /><path
             d="m 297.99698,142.0675 q 0.56134,-0.007 1.12436,-0.0106"
             id="path1534"
             style="fill:none;stroke:#000000;stroke-width:1;stroke-linecap:butt;stroke-linejoin:miter;stroke-dasharray:none" /><path
             d="m 299.12134,142.05685 a 49.31705,49.31705 0 0 1 0,-98.578595"
             id="path1536"
             style="fill:none;stroke:#000000;stroke-width:1;stroke-linecap:butt;stroke-linejoin:miter;stroke-dasharray:none" /><path
             d="m 299.12134,43.478255 q -0.56302,-0.004 -1.12436,-0.01065"
             id="path1538"
             style="fill:none;stroke:#000000;stroke-width:1;stroke-linecap:butt;stroke-linejoin:miter;stroke-dasharray:none" /><path
             d="m 299.12134,142.05685 c 0.17212,-0.0537 0.36183,-0.10659 0.6067,-0.15605 0.1228,-0.0247 0.26025,-0.0485 0.42998,-0.0685 0.0842,-0.0103 0.17847,-0.0189 0.28275,-0.0258 0.10492,-0.007 0.22184,-0.0109 0.33894,-0.0108 0.11711,1.1e-4 0.2344,0.005 0.33912,0.0113 0.10394,0.007 0.19761,0.0157 0.28102,0.0261 0.16838,0.0202 0.305,0.0439 0.42689,0.0685 0.24287,0.0492 0.43116,0.10175 0.60277,0.15525"
             id="path1540"
             style="fill:none;stroke:#000000;stroke-width:1;stroke-linecap:butt;stroke-linejoin:miter;stroke-dasharray:none" /><path
             d="m 307.76437,44.582755 c -1.7716,-0.28795 -3.56068,-0.46655 -5.35399,-0.5345"
             id="path1542"
             style="fill:none;stroke:#000000;stroke-width:1;stroke-linecap:butt;stroke-linejoin:miter;stroke-dasharray:none" /><path
             d="m 307.76437,140.95235 a 48.689,48.689 0 0 0 0,-96.369595"
             id="path1544"
             style="fill:none;stroke:#000000;stroke-width:1;stroke-linecap:butt;stroke-linejoin:miter;stroke-dasharray:none" /><path
             d="m 293.78647,140.95235 0.9916,0.1497 0.99473,0.12685 0.99736,0.10385 0.99948,0.0808 1.00105,0.0577 1.0021,0.0347 1.00264,0.0115 1.00263,-0.0115 1.0021,-0.0347 1.00105,-0.0577 0.99947,-0.0808 0.99739,-0.10385 0.9947,-0.12685 0.9916,-0.1497"
             id="path1546"
             style="fill:none;stroke:#000000;stroke-width:1;stroke-linecap:butt;stroke-linejoin:miter;stroke-dasharray:none" /><path
             d="m 293.78647,44.582755 a 48.689,48.689 0 0 0 0,96.369595"
             id="path1548"
             style="fill:none;stroke:#000000;stroke-width:1;stroke-linecap:butt;stroke-linejoin:miter;stroke-dasharray:none" /><path
             d="m 302.41038,44.048255 -0.61788,-0.01885 -0.61808,-0.01005 -0.61816,-0.0013 -0.61812,0.0075 -0.61796,0.0163 -0.61766,0.0251 -0.61725,0.03385 -0.61671,0.0426 -0.61605,0.0514 -0.61526,0.06015 -0.61438,0.0689 -0.6133,0.0776 -0.6122,0.0863 -0.6109,0.095"
             id="path1550"
             style="fill:none;stroke:#000000;stroke-width:1;stroke-linecap:butt;stroke-linejoin:miter;stroke-dasharray:none" /><path
             d="m 302.42951,43.478255 c -0.17212,0.0537 -0.36183,0.1066 -0.6067,0.15605 -0.12281,0.0247 -0.26025,0.04845 -0.42999,0.0685 -0.0842,0.0103 -0.17846,0.0189 -0.28273,0.0258 -0.10493,0.0066 -0.22184,0.01085 -0.33895,0.01075 -0.1171,-1e-4 -0.2344,-0.0045 -0.33912,-0.0113 -0.10393,-0.007 -0.19761,-0.01575 -0.28103,-0.0261 -0.16837,-0.02015 -0.30499,-0.04385 -0.42688,-0.06845 -0.24287,-0.0492 -0.43116,-0.10175 -0.60277,-0.15525"
             id="path1552"
             style="fill:none;stroke:#000000;stroke-width:1;stroke-linecap:butt;stroke-linejoin:miter;stroke-dasharray:none" /><path
             id="151"
             d="m 297.99698,43.467605 h 5.55689"
             style="fill:none;stroke:#000000;stroke-width:1;stroke-linecap:butt;stroke-linejoin:miter;stroke-dasharray:none" /><path
             id="152"
             d="m 297.99698,142.0675 h 5.55689"
             style="fill:none;stroke:#000000;stroke-width:1;stroke-linecap:butt;stroke-linejoin:miter;stroke-dasharray:none" /><path
             id="153"
             d="m 293.78647,140.95235 h 13.9779"
             style="fill:none;stroke:#000000;stroke-width:1;stroke-linecap:butt;stroke-linejoin:miter;stroke-dasharray:none" /></g></g></g></g><g
     id="g452"
     fill="none"
     stroke-linejoin="miter"
     stroke-linecap="butt"
     stroke-width="0.13"
     stroke="#000000"
     transform="translate(-568.87357,-39.23027)" /></svg>
