<?xml version="1.0" encoding="UTF-8" standalone="no"?>
<svg
   id="svg2"
   version="1.1"
   viewBox="0 0 245 162.0049"
   height="162.0049mm"
   width="245.00002mm"
   sodipodi:docname="thumbnail.svg"
   inkscape:version="1.2.1 (9c6d41e410, 2022-07-14)"
   xmlns:inkscape="http://www.inkscape.org/namespaces/inkscape"
   xmlns:sodipodi="http://sodipodi.sourceforge.net/DTD/sodipodi-0.dtd"
   xmlns:xlink="http://www.w3.org/1999/xlink"
   xmlns="http://www.w3.org/2000/svg"
   xmlns:svg="http://www.w3.org/2000/svg"
   xmlns:rdf="http://www.w3.org/1999/02/22-rdf-syntax-ns#"
   xmlns:cc="http://creativecommons.org/ns#"
   xmlns:dc="http://purl.org/dc/elements/1.1/">
  <sodipodi:namedview
     id="namedview8774"
     pagecolor="#ffffff"
     bordercolor="#000000"
     borderopacity="0.25"
     inkscape:showpageshadow="2"
     inkscape:pageopacity="0.0"
     inkscape:pagecheckerboard="0"
     inkscape:deskcolor="#d1d1d1"
     inkscape:document-units="mm"
     showgrid="false"
     inkscape:zoom="0.52032068"
     inkscape:cx="458.37118"
     inkscape:cy="272.90862"
     inkscape:window-width="2400"
     inkscape:window-height="1434"
     inkscape:window-x="2391"
     inkscape:window-y="-9"
     inkscape:window-maximized="1"
     inkscape:current-layer="svg2" />
  <!-- Working space 10 10 410 287 -->
  <!-- Title block 220 227 410 287 -->
  <g
     id="g13368"
     transform="matrix(0.99019607,0,0,0.98783451,12.336814,6.4915595)">
    <path
       style="color:#000000;fill:#c8c8c8;fill-opacity:1;stroke:#000000;stroke-opacity:1;-inkscape-stroke:none"
       d="m 1.1152492,0.50478716 c -0.11415,0.0011 -0.22680995,0.04751 -0.31054995,0.125 -0.0837,0.07749 -0.14041,0.179211 -0.18359,0.298828 -0.0862,0.23876204 -0.12198,0.55841404 -0.12109,0.97460904 0,8.22e-4 -1e-5,0.0011 0,0.002 v 147.0468858 0.002 c -8.9e-4,0.41623 0.0349,0.73584 0.12109,0.97461 0.0432,0.11962 0.0999,0.22134 0.18359,0.29883 0.0838,0.0775 0.19638995,0.12397 0.31054995,0.125 l 0.002,-0.17383 v 0.17383 H 26.627019 v -0.17383 h 0.17578 v -0.0156 -0.0449 -0.0762 -0.10742 -0.13477 -0.16797 -0.19531 -0.22656 -0.25781 -0.28711 -0.31641 -0.3457 -0.37696 -0.23046 H 195.96877 v 0.23046 0.37696 0.3457 0.31641 0.28711 0.25781 0.22656 0.19531 0.16797 0.13477 0.10742 0.0762 0.0449 0.0156 h 0.17383 v 0.17383 h 25.25 c 0.11413,-0.001 0.22878,-0.0475 0.3125,-0.125 0.0837,-0.0775 0.14041,-0.17926 0.18359,-0.29883 0.0862,-0.23868 0.12003,-0.55867 0.11914,-0.97461 0,-8.2e-4 10e-6,-10e-4 0,-0.002 V 1.9051772 c 10e-6,-8.22e-4 0,-0.0011 0,-0.002 8.9e-4,-0.415936 -0.0329,-0.73593 -0.11914,-0.97460904 -0.0432,-0.119576 -0.0999,-0.221354 -0.18359,-0.298828 -0.0837,-0.07748 -0.19837,-0.123872 -0.3125,-0.125 H 1.1171992 v 0.173828 z"
       id="path298" />
  </g>
  <metadata
     id="metadata849">
    <rdf:RDF>
      <cc:Work
         rdf:about="">
        <dc:format>image/svg+xml</dc:format>
        <dc:type
           rdf:resource="http://purl.org/dc/dcmitype/StillImage" />
      </cc:Work>
    </rdf:RDF>
  </metadata>
  <defs
     id="defs847">
    <linearGradient
       gradientUnits="userSpaceOnUse"
       id="defitem29"
       y2="485.909"
       x2="655.35199"
       y1="807.466"
       x1="649.42902">
      <stop
         id="stop92"
         offset="0.0000000"
         style="stop-color:#ffffff;stop-opacity:1.0000000;" />
      <stop
         id="stop93"
         offset="1.0000000"
         style="stop-color:#ffffff;stop-opacity:0.13756600;" />
    </linearGradient>
    <linearGradient
       xlink:href="#defitem29"
       id="linearGradient3448"
       gradientUnits="userSpaceOnUse"
       x1="649.42902"
       y1="807.466"
       x2="655.35199"
       y2="485.909" />
    <radialGradient
       gradientUnits="userSpaceOnUse"
       id="defitem28"
       fy="345.56"
       fx="1049.72"
       r="1202.15"
       cy="345.56"
       cx="1049.72">
      <stop
         id="stop89"
         offset="0.0000000"
         style="stop-color:#ffffff;stop-opacity:1.0000000;" />
      <stop
         id="stop90"
         offset="1.0000000"
         style="stop-color:#a8a8a8;stop-opacity:1.0000000;" />
    </radialGradient>
    <radialGradient
       xlink:href="#defitem28"
       id="radialGradient3446"
       gradientUnits="userSpaceOnUse"
       cx="1092.7045"
       cy="64.845284"
       fx="1089.4004"
       fy="64.844765"
       r="1202.15" />
    <linearGradient
       gradientUnits="userSpaceOnUse"
       id="defitem30"
       y2="636.70697"
       x2="980"
       y1="636.70697"
       x1="287.5">
      <stop
         id="stop95"
         offset="0.0000000"
         style="stop-color:#464646;stop-opacity:1.0000000;" />
      <stop
         id="stop96"
         offset="1.0000000"
         style="stop-color:#c2c2c2;stop-opacity:1.0000000;" />
    </linearGradient>
    <linearGradient
       xlink:href="#defitem30"
       id="linearGradient3444"
       gradientUnits="userSpaceOnUse"
       gradientTransform="matrix(1,0,0,1.016038,0,-11.73855)"
       x1="287.5"
       y1="636.70697"
       x2="980"
       y2="636.70697" />
    <linearGradient
       gradientUnits="userSpaceOnUse"
       id="defitem27"
       y2="317.44699"
       x2="985.98199"
       y1="403.18799"
       x1="921.091">
      <stop
         id="stop86"
         offset="0.0000000"
         style="stop-color:#7e7e7e;stop-opacity:1.0000000;" />
      <stop
         id="stop87"
         offset="1.0000000"
         style="stop-color:#e5e5e5;stop-opacity:1.0000000;" />
    </linearGradient>
    <linearGradient
       xlink:href="#defitem27"
       id="linearGradient3442"
       gradientUnits="userSpaceOnUse"
       x1="921.091"
       y1="403.18799"
       x2="985.98199"
       y2="317.44699" />
    <linearGradient
       gradientUnits="userSpaceOnUse"
       id="defitem26"
       y2="360.27499"
       x2="293.37"
       y1="346.30399"
       x1="530.76099">
      <stop
         id="stop83"
         offset="0.0000000"
         style="stop-color:#5f5f5f;stop-opacity:1.0000000;" />
      <stop
         id="stop84"
         offset="1.0000000"
         style="stop-color:#e5e5e5;stop-opacity:1.0000000;" />
    </linearGradient>
    <linearGradient
       xlink:href="#defitem26"
       id="linearGradient3440"
       gradientUnits="userSpaceOnUse"
       x1="530.76099"
       y1="346.30399"
       x2="293.37"
       y2="360.27499" />
    <linearGradient
       gradientUnits="userSpaceOnUse"
       id="defitem25"
       y2="337.60999"
       x2="308.75"
       y1="412.91901"
       x1="164.013">
      <stop
         id="stop80"
         offset="0.0000000"
         style="stop-color:#ffffff;stop-opacity:1.0000000;" />
      <stop
         id="stop81"
         offset="1.0000000"
         style="stop-color:#bfbfbf;stop-opacity:1.0000000;" />
    </linearGradient>
    <linearGradient
       xlink:href="#defitem25"
       id="linearGradient3438"
       gradientUnits="userSpaceOnUse"
       x1="164.013"
       y1="412.91901"
       x2="308.75"
       y2="337.60999" />
    <linearGradient
       gradientUnits="userSpaceOnUse"
       id="defitem24"
       y2="380.47198"
       x2="992.48901"
       y1="270.854"
       x1="1094.25">
      <stop
         id="stop77"
         offset="0.0000000"
         style="stop-color:#6a6a6a;stop-opacity:1.0000000;" />
      <stop
         id="stop78"
         offset="1.0000000"
         style="stop-color:#e6e6e6;stop-opacity:1.0000000;" />
    </linearGradient>
    <linearGradient
       xlink:href="#defitem24"
       id="linearGradient3436"
       gradientUnits="userSpaceOnUse"
       x1="1094.25"
       y1="270.854"
       x2="992.48901"
       y2="380.47198" />
    <linearGradient
       gradientUnits="userSpaceOnUse"
       id="defitem23"
       y2="549.37799"
       x2="1049.84"
       y1="476.465"
       x1="1170.91">
      <stop
         id="stop74"
         offset="0.0000000"
         style="stop-color:#5f5f5f;stop-opacity:1.0000000;" />
      <stop
         id="stop75"
         offset="1.0000000"
         style="stop-color:#ebebeb;stop-opacity:1.0000000;" />
    </linearGradient>
    <linearGradient
       xlink:href="#defitem23"
       id="linearGradient3434"
       gradientUnits="userSpaceOnUse"
       x1="1170.91"
       y1="476.465"
       x2="1049.84"
       y2="549.37799" />
    <linearGradient
       gradientUnits="userSpaceOnUse"
       id="defitem22"
       y2="313.276"
       x2="576.14899"
       y1="105.486"
       x1="783.716">
      <stop
         id="stop71"
         offset="0.0000000"
         style="stop-color:#5a5a5a;stop-opacity:1.0000000;" />
      <stop
         id="stop72"
         offset="1.0000000"
         style="stop-color:#c7c7c7;stop-opacity:1.0000000;" />
    </linearGradient>
    <linearGradient
       xlink:href="#defitem22"
       id="linearGradient3432"
       gradientUnits="userSpaceOnUse"
       x1="783.716"
       y1="105.486"
       x2="576.14899"
       y2="313.276" />
    <linearGradient
       gradientUnits="userSpaceOnUse"
       id="defitem21"
       y2="484.716"
       x2="128.05499"
       y1="418.698"
       x1="280.04401">
      <stop
         id="stop68"
         offset="0.0000000"
         style="stop-color:#666666;stop-opacity:1.0000000;" />
      <stop
         id="stop69"
         offset="1.0000000"
         style="stop-color:#d8d8d8;stop-opacity:1.0000000;" />
    </linearGradient>
    <linearGradient
       xlink:href="#defitem21"
       id="linearGradient3430"
       gradientUnits="userSpaceOnUse"
       x1="280.04401"
       y1="418.698"
       x2="128.05499"
       y2="484.716" />
    <linearGradient
       gradientUnits="userSpaceOnUse"
       id="defitem20"
       y2="584.40997"
       x2="220"
       y1="636.95398"
       x1="129.687">
      <stop
         id="stop65"
         offset="0.0000000"
         style="stop-color:#ffffff;stop-opacity:1.0000000;" />
      <stop
         id="stop66"
         offset="1.0000000"
         style="stop-color:#bbbbbb;stop-opacity:1.0000000;" />
    </linearGradient>
    <linearGradient
       xlink:href="#defitem20"
       id="linearGradient3428"
       gradientUnits="userSpaceOnUse"
       x1="129.687"
       y1="636.95398"
       x2="220"
       y2="584.40997" />
    <linearGradient
       gradientUnits="userSpaceOnUse"
       id="defitem19"
       y2="583.75299"
       x2="1127.98"
       y1="629.02802"
       x1="1048.72">
      <stop
         id="stop62"
         offset="0.0000000"
         style="stop-color:#5e5e5e;stop-opacity:1.0000000;" />
      <stop
         id="stop63"
         offset="1.0000000"
         style="stop-color:#ededed;stop-opacity:1.0000000;" />
    </linearGradient>
    <linearGradient
       xlink:href="#defitem19"
       id="linearGradient3426"
       gradientUnits="userSpaceOnUse"
       x1="1048.72"
       y1="629.02802"
       x2="1127.98"
       y2="583.75299" />
    <linearGradient
       gradientUnits="userSpaceOnUse"
       id="defitem18"
       y2="291.97699"
       x2="581.32397"
       y1="387.27301"
       x1="370.022">
      <stop
         id="stop59"
         offset="0.0000000"
         style="stop-color:#636363;stop-opacity:1.0000000;" />
      <stop
         id="stop60"
         offset="1.0000000"
         style="stop-color:#d6d6d6;stop-opacity:1.0000000;" />
    </linearGradient>
    <linearGradient
       xlink:href="#defitem18"
       id="linearGradient3424"
       gradientUnits="userSpaceOnUse"
       x1="370.022"
       y1="387.27301"
       x2="581.32397"
       y2="291.97699" />
    <linearGradient
       gradientUnits="userSpaceOnUse"
       id="defitem17"
       y2="351.939"
       x2="909.59399"
       y1="351.939"
       x1="732.15601">
      <stop
         id="stop56"
         offset="0.0000000"
         style="stop-color:#676767;stop-opacity:1.0000000;" />
      <stop
         id="stop57"
         offset="1.0000000"
         style="stop-color:#d3d3d3;stop-opacity:1.0000000;" />
    </linearGradient>
    <linearGradient
       xlink:href="#defitem17"
       id="linearGradient3422"
       gradientUnits="userSpaceOnUse"
       x1="732.15601"
       y1="351.939"
       x2="909.59399"
       y2="351.939" />
    <linearGradient
       gradientUnits="userSpaceOnUse"
       id="defitem16"
       y2="494.71301"
       x2="1073.01"
       y1="494.71301"
       x1="1014.43">
      <stop
         id="stop53"
         offset="0.0000000"
         style="stop-color:#666666;stop-opacity:1.0000000;" />
      <stop
         id="stop54"
         offset="1.0000000"
         style="stop-color:#dcdcdc;stop-opacity:1.0000000;" />
    </linearGradient>
    <linearGradient
       xlink:href="#defitem16"
       id="linearGradient3420"
       gradientUnits="userSpaceOnUse"
       x1="1014.43"
       y1="494.71301"
       x2="1073.01"
       y2="494.71301" />
    <linearGradient
       gradientUnits="userSpaceOnUse"
       id="defitem15"
       y2="516.37"
       x2="193.27699"
       y1="452.388"
       x1="272.59201">
      <stop
         id="stop50"
         offset="0.0000000"
         style="stop-color:#6e6e6e;stop-opacity:1.0000000;" />
      <stop
         id="stop51"
         offset="1.0000000"
         style="stop-color:#d8d8d8;stop-opacity:1.0000000;" />
    </linearGradient>
    <linearGradient
       xlink:href="#defitem15"
       id="linearGradient3418"
       gradientUnits="userSpaceOnUse"
       x1="272.59201"
       y1="452.388"
       x2="193.27699"
       y2="516.37" />
    <radialGradient
       gradientUnits="userSpaceOnUse"
       id="defitem14"
       fy="211.088"
       fx="1037.22"
       r="1164.28"
       cy="211.088"
       cx="1037.22">
      <stop
         id="stop47"
         offset="0.0000000"
         style="stop-color:#ffffff;stop-opacity:1.0000000;" />
      <stop
         id="stop48"
         offset="1.0000000"
         style="stop-color:#aaaaaa;stop-opacity:1.0000000;" />
    </radialGradient>
    <radialGradient
       xlink:href="#defitem14"
       id="radialGradient3416"
       gradientUnits="userSpaceOnUse"
       cx="1037.22"
       cy="211.088"
       fx="1037.22"
       fy="211.088"
       r="1164.28" />
    <linearGradient
       gradientUnits="userSpaceOnUse"
       id="defitem13"
       y2="686.83002"
       x2="379.241"
       y1="732.12903"
       x1="342.64999">
      <stop
         id="stop44"
         offset="0.0000000"
         style="stop-color:#ffffff;stop-opacity:1.0000000;" />
      <stop
         id="stop45"
         offset="1.0000000"
         style="stop-color:#989898;stop-opacity:1.0000000;" />
    </linearGradient>
    <linearGradient
       xlink:href="#defitem13"
       id="linearGradient3414"
       gradientUnits="userSpaceOnUse"
       x1="342.64999"
       y1="732.12903"
       x2="379.241"
       y2="686.83002" />
    <radialGradient
       gradientUnits="userSpaceOnUse"
       id="defitem12"
       fy="484.409"
       fx="632.78101"
       r="540.27899"
       cy="484.409"
       cx="632.78101">
      <stop
         id="stop41"
         offset="0.0000000"
         style="stop-color:#ffffff;stop-opacity:1.0000000;" />
      <stop
         id="stop42"
         offset="1.0000000"
         style="stop-color:#ededed;stop-opacity:1.0000000;" />
    </radialGradient>
    <radialGradient
       xlink:href="#defitem12"
       id="radialGradient3412"
       gradientUnits="userSpaceOnUse"
       cx="632.78101"
       cy="484.409"
       fx="632.78101"
       fy="484.409"
       r="540.27899" />
    <radialGradient
       xlink:href="#linearGradient3682"
       id="radialGradient3817"
       gradientUnits="userSpaceOnUse"
       gradientTransform="matrix(1.1149219,0.2722306,-0.7507171,3.0745639,-471.08629,-148.32863)"
       cx="270.58316"
       cy="33.899986"
       fx="270.58316"
       fy="33.899986"
       r="19.571428" />
    <linearGradient
       id="linearGradient3682">
      <stop
         style="stop-color:#ff6d0f;stop-opacity:1;"
         offset="0"
         id="stop3684" />
      <stop
         style="stop-color:#ff1000;stop-opacity:1;"
         offset="1"
         id="stop3686" />
    </linearGradient>
    <radialGradient
       xlink:href="#linearGradient3864"
       id="radialGradient3661"
       gradientUnits="userSpaceOnUse"
       gradientTransform="matrix(0.6186598,0.9666542,-1.0332462,0.6612786,-327.27568,-255.84136)"
       cx="282.64584"
       cy="29.149046"
       fx="282.64584"
       fy="29.149046"
       r="19.571428" />
    <linearGradient
       id="linearGradient3864">
      <stop
         id="stop3866"
         offset="0"
         style="stop-color:#71b2f8;stop-opacity:1;" />
      <stop
         id="stop3868"
         offset="1"
         style="stop-color:#002795;stop-opacity:1;" />
    </linearGradient>
  </defs>
  <g
     id="g12102"
     transform="matrix(0.99019607,0,0,0.98783451,-97.554695,-0.76070272)">
    <path
       style="color:#000000;fill:#c8c8c8;fill-opacity:1;stroke:#000000;stroke-opacity:1;-inkscape-stroke:none"
       d="m 99.520584,38.747632 v 0.5 h -0.5 v 87.044918 h 0.5 v 0.5 h 0.0156 0.0449 0.0723 0.10351 0.13281 0.162106 0.19141 0.2207 0.25196 0.27929 0.3086 0.33984 0.36719 0.39844 34.82422 5.19922 9.21289 10.19531 11.03711 11.72461 12.24804 12.60352 12.7793 12.77929 12.60352 12.24805 11.72461 11.03711 10.19531 9.21289 5.19922 34.82422 0.39843 0.36719 0.33984 0.3086 0.2793 0.25195 0.2207 0.19141 0.16211 0.13281 0.10352 0.0723 0.0449 0.0156 v -0.5 h 0.5 V 39.247632 h -0.5 v -0.5 h -0.0156 -0.0352 -0.082 -0.0664 -0.16992 -0.0781 -0.27539 -0.0723 -0.40039 -0.0469 -0.54102 -0.004 -0.33594 -0.30859 -0.45703 -6.8125 -28.01172 -5.19922 -9.21289 -10.19531 -11.03711 -11.72461 -12.24805 -12.60352 -12.77929 -12.7793 -12.60352 -12.24804 -11.72461 -11.03711 -10.19531 -9.21289 -5.19922 -28.01172 -6.5254 -0.2871 -0.39844 -0.0586 -0.3086 -0.33593 -0.3125 -0.23243 -0.29882 -0.14844 -0.26367 -0.084 -0.21094 -0.0371 -0.13867 -0.01 z"
       id="28" />
    <g
       id="g12080"
       transform="translate(10.091046,-61.055567)">
      <path
         id="3"
         d="m 127.14286,162.74146 h 170"
         style="fill:none;stroke:#000000;stroke-width:1;stroke-linecap:butt;stroke-linejoin:miter;stroke-dasharray:none" />
      <path
         id="4"
         d="m 127.14286,124.90986 h 170"
         style="fill:none;stroke:#000000;stroke-width:1;stroke-linecap:butt;stroke-linejoin:miter;stroke-dasharray:none" />
      <path
         d="m 297.14286,134.53432 v -4.06726 -3.9421 -3.7801 -3.5825 -3.3514 -3.089 -2.7975 -2.4799 -2.1391 -1.7781 -1.4006 -1.0099 -0.6097 -0.2039"
         id="path8693"
         style="fill:none;stroke:#000000;stroke-width:1;stroke-linecap:butt;stroke-linejoin:miter;stroke-dasharray:none" />
      <path
         id="path8695"
         d="m 297.14286,134.53432 h 28.011"
         style="fill:none;stroke:#000000;stroke-width:1;stroke-linecap:butt;stroke-linejoin:miter;stroke-dasharray:none" />
      <path
         d="m 325.15386,134.53432 c 0.113,-2.43986 0.263,-4.79746 0.452,-7.07276 0.187,-2.2715 0.413,-4.4801 0.669,-6.5877 0.256,-2.1059 0.539,-4.0816 0.84,-5.9095 0.3,-1.8269 0.623,-3.5316 0.958,-5.0788 0.335,-1.5459 0.674,-2.9117 1.015,-4.0972 0.34,-1.1836 0.685,-2.1984 1.022,-3.0184 0.673,-1.6331 1.299,-2.4637 1.857,-2.4667"
         id="path8697"
         style="fill:none;stroke:#000000;stroke-width:1;stroke-linecap:butt;stroke-linejoin:miter;stroke-dasharray:none" />
      <path
         id="5"
         d="m 99.13186,134.53432 h 28.011"
         style="fill:none;stroke:#000000;stroke-width:1;stroke-linecap:butt;stroke-linejoin:miter;stroke-dasharray:none" />
      <path
         d="m 127.14286,100.30326 v 0.2039 0.6097 1.0099 1.4006 1.7781 2.1391 2.4799 2.7975 3.089 3.3514 3.5825 3.7801 3.9421 4.06726"
         id="path8700"
         style="fill:none;stroke:#000000;stroke-width:1;stroke-linecap:butt;stroke-linejoin:miter;stroke-dasharray:none" />
      <path
         d="m 92.31886,100.30326 c 0.28,0.002 0.575,0.2094 0.885,0.6231 0.311,0.4114 0.636,1.0272 0.974,1.8476 0.337,0.8205 0.68,1.8331 1.02,3.0172 0.34,1.1837 0.682,2.5543 1.017,4.1004 0.334,1.547 0.656,3.2484 0.957,5.0748 0.3,1.8268 0.583,3.8018 0.839,5.9076 0.256,2.1076 0.482,4.3162 0.669,6.5877 0.189,2.2753 0.339,4.6328 0.452,7.07266"
         id="path8703"
         style="fill:none;stroke:#000000;stroke-width:1;stroke-linecap:butt;stroke-linejoin:miter;stroke-dasharray:none" />
      <path
         d="m 297.14286,153.117 v 4.06726 3.9421 3.7801 3.5825 3.3514 3.089 2.7975 2.4799 2.1391 1.7781 1.4006 1.0099 0.6097 0.2039"
         id="path8717"
         style="fill:none;stroke:#000000;stroke-width:1;stroke-linecap:butt;stroke-linejoin:miter;stroke-dasharray:none" />
      <path
         d="m 325.15386,153.117 c 0.113,2.43986 0.263,4.79746 0.452,7.07276 0.187,2.2715 0.413,4.4801 0.669,6.5877 0.256,2.1059 0.539,4.0816 0.84,5.9095 0.3,1.8269 0.623,3.5316 0.958,5.0788 0.335,1.5459 0.674,2.9117 1.015,4.0972 0.34,1.1836 0.685,2.1984 1.022,3.0184 0.673,1.6331 1.299,2.4637 1.857,2.4667"
         id="path8720"
         style="fill:none;stroke:#000000;stroke-width:1;stroke-linecap:butt;stroke-linejoin:miter;stroke-dasharray:none" />
      <path
         id="19"
         d="m 297.14286,153.117 h 28.011"
         style="fill:none;stroke:#000000;stroke-width:1;stroke-linecap:butt;stroke-linejoin:miter;stroke-dasharray:none" />
      <path
         d="m 127.14286,187.34806 v -0.2039 -0.6097 -1.0099 -1.4006 -1.7781 -2.1391 -2.4799 -2.7975 -3.089 -3.3514 -3.5825 -3.7801 -3.9421 -4.06726"
         id="path8723"
         style="fill:none;stroke:#000000;stroke-width:1;stroke-linecap:butt;stroke-linejoin:miter;stroke-dasharray:none" />
      <path
         id="21"
         d="m 99.13186,153.117 h 28.011"
         style="fill:none;stroke:#000000;stroke-width:1;stroke-linecap:butt;stroke-linejoin:miter;stroke-dasharray:none" />
      <path
         d="m 92.31886,187.34806 c 0.28,-0.002 0.575,-0.2094 0.885,-0.6231 0.311,-0.4114 0.636,-1.0272 0.974,-1.8476 0.337,-0.8205 0.68,-1.8331 1.02,-3.0172 0.34,-1.1837 0.682,-2.5543 1.017,-4.1004 0.334,-1.547 0.656,-3.2484 0.957,-5.0748 0.3,-1.8268 0.583,-3.8018 0.839,-5.9076 0.256,-2.1076 0.482,-4.3162 0.669,-6.5877 0.189,-2.2753 0.339,-4.6328 0.452,-7.07266"
         id="path8726"
         style="fill:none;stroke:#000000;stroke-width:1;stroke-linecap:butt;stroke-linejoin:miter;stroke-dasharray:none" />
      <path
         id="29"
         d="M 325.15386,153.117 V 134.53432"
         style="fill:none;stroke:#000000;stroke-width:1;stroke-linecap:butt;stroke-linejoin:miter;stroke-dasharray:none" />
      <path
         id="30"
         d="M 297.14286,153.117 V 134.53432"
         style="fill:none;stroke:#000000;stroke-width:1;stroke-linecap:butt;stroke-linejoin:miter;stroke-dasharray:none" />
      <path
         id="31"
         d="M 127.14286,153.117 V 134.53432"
         style="fill:none;stroke:#000000;stroke-width:1;stroke-linecap:butt;stroke-linejoin:miter;stroke-dasharray:none" />
      <path
         id="32"
         d="M 99.13186,153.117 V 134.53432"
         style="fill:none;stroke:#000000;stroke-width:1;stroke-linecap:butt;stroke-linejoin:miter;stroke-dasharray:none" />
    </g>
  </g>
  <g
     id="g14656"
     transform="matrix(0.99019607,0,0,0.98783451,41.303898,0)">
    <path
       style="color:#000000;fill:#c8c8c8;fill-opacity:1;stroke:#000000;stroke-opacity:1;-inkscape-stroke:none"
       d="m 82.000048,0.500003 c -38.27175,0 -70.298928,26.426579 -79.0527378,62 h -0.94727 v 0.5 h -0.5 v 0.0332 0.103516 0.169922 0.236328 0.304687 0.369141 0.43164 0.496094 0.554688 0.615234 0.669922 0.724609 0.777344 0.824219 h 0.0859 C 0.9359502,73.455833 0.5,77.672455 0.5,82 c 0,4.327238 0.4360402,8.542492 1.0859402,12.6875 h -0.0859 v 0.82422 0.77734 0.72461 0.66992 0.61524 0.55664 0.49414 0.43359 0.36914 0.30274 0.23828 0.16992 0.10156 0.0352 h 0.5 v 0.5 h 0.94727 c 8.7544598,35.5725 40.7816478,62 79.0527378,62 38.271072,0 70.298262,-26.4275 79.052732,-62 h 0.94727 v -0.5 h 0.5 v -0.0352 -0.10156 -0.16992 -0.23828 -0.30274 -0.36914 -0.43359 -0.49414 -0.55664 -0.61524 -0.66992 -0.72461 -0.77734 -0.82422 h -0.0859 c 0.64989,-4.145008 1.08593,-8.360262 1.08593,-12.6875 0,-4.327545 -0.43595,-8.544167 -1.08593,-12.689453 h 0.0859 v -0.824219 -0.777344 -0.724609 -0.669922 -0.615234 -0.554688 -0.496093 -0.431641 -0.369141 -0.304687 -0.236328 -0.169922 -0.103516 -0.0332 h -0.5 V 62.5 h -0.94727 c -8.75381,-35.573421 -40.781,-62 -79.052732,-62 z"
       id="path7831" />
    <g
       id="g14644"
       transform="translate(-122.59197,-40.251809)">
      <circle
         cx="-122.25181"
         cy="-204.59201"
         r="71.5"
         id="circle7785"
         transform="matrix(0,-1,-1,0,0,0)"
         style="fill:none;stroke:#000000;stroke-width:1;stroke-linecap:butt;stroke-linejoin:miter;stroke-dasharray:none" />
      <circle
         cx="-122.25181"
         cy="-204.59201"
         r="72.199997"
         id="circle7787"
         transform="matrix(0,-1,-1,0,0,0)"
         style="fill:none;stroke:#000000;stroke-width:1;stroke-linecap:butt;stroke-linejoin:miter;stroke-dasharray:none" />
      <circle
         cx="-122.25181"
         cy="-204.59201"
         r="79"
         id="circle7789"
         transform="matrix(0,-1,-1,0,0,0)"
         style="fill:none;stroke:#000000;stroke-width:1;stroke-linecap:butt;stroke-linejoin:miter;stroke-dasharray:none" />
      <circle
         cx="-122.25181"
         cy="-204.59201"
         r="69.453003"
         id="circle7833"
         transform="matrix(0,-1,-1,0,0,0)"
         style="fill:none;stroke:#000000;stroke-width:1;stroke-linecap:butt;stroke-linejoin:miter;stroke-dasharray:none" />
    </g>
    <path
       style="color:#000000;fill:#000000;-inkscape-stroke:none"
       d="m 82.064493,81.716799 v 0.21875 0.302734 0.04492 h -0.128907 c 0.03481,-0.148203 0.08331,-0.364304 0.128907,-0.566406 z"
       id="path14638" />
    <path
       style="color:#000000;fill:#000000;-inkscape-stroke:none"
       d="m 81.935584,81.716797 c 0.0456,0.202275 0.0941,0.418109 0.12891,0.566406 h -0.12891 v -0.04492 -0.302734 z"
       id="path14636" />
    <path
       style="color:#000000;fill:#000000;-inkscape-stroke:none"
       d="m 81.935586,81.716796 h 0.128907 v 0.04297 0.304688 0.21875 c -0.04557,-0.202043 -0.09412,-0.418184 -0.128907,-0.566408 z"
       id="path14634" />
    <path
       style="color:#000000;fill:#000000;-inkscape-stroke:none"
       d="m 81.935584,81.716796 h 0.12891 c -0.0348,0.148203 -0.0833,0.364305 -0.12891,0.566407 v -0.21875 -0.304688 z"
       id="path14632" />
  </g>
</svg>
