<?xml version="1.0" encoding="UTF-8" standalone="no"?>
<svg
   id="svg2"
   version="1.1"
   viewBox="0 0 445.70999 265.51376"
   height="265.51376mm"
   width="445.70999mm"
   sodipodi:docname="thumbnail.svg"
   inkscape:version="1.2.1 (9c6d41e410, 2022-07-14)"
   xmlns:inkscape="http://www.inkscape.org/namespaces/inkscape"
   xmlns:sodipodi="http://sodipodi.sourceforge.net/DTD/sodipodi-0.dtd"
   xmlns:xlink="http://www.w3.org/1999/xlink"
   xmlns="http://www.w3.org/2000/svg"
   xmlns:svg="http://www.w3.org/2000/svg"
   xmlns:rdf="http://www.w3.org/1999/02/22-rdf-syntax-ns#"
   xmlns:cc="http://creativecommons.org/ns#"
   xmlns:dc="http://purl.org/dc/elements/1.1/">
  <sodipodi:namedview
     id="namedview863"
     pagecolor="#ffffff"
     bordercolor="#000000"
     borderopacity="0.25"
     inkscape:showpageshadow="2"
     inkscape:pageopacity="0.0"
     inkscape:pagecheckerboard="0"
     inkscape:deskcolor="#d1d1d1"
     inkscape:document-units="mm"
     showgrid="false"
     inkscape:zoom="0.52032068"
     inkscape:cx="64.383372"
     inkscape:cy="270.02579"
     inkscape:window-width="1920"
     inkscape:window-height="1013"
     inkscape:window-x="-9"
     inkscape:window-y="135"
     inkscape:window-maximized="1"
     inkscape:current-layer="svg2" />
  <!-- Working space 10 10 410 287 -->
  <!-- Title block 220 227 410 287 -->
  <metadata
     id="metadata849">
    <rdf:RDF>
      <cc:Work
         rdf:about="">
        <dc:format>image/svg+xml</dc:format>
        <dc:type
           rdf:resource="http://purl.org/dc/dcmitype/StillImage" />
      </cc:Work>
    </rdf:RDF>
  </metadata>
  <defs
     id="defs847">
    <linearGradient
       gradientUnits="userSpaceOnUse"
       id="defitem29"
       y2="485.909"
       x2="655.35199"
       y1="807.466"
       x1="649.42902">
      <stop
         id="stop92"
         offset="0.0000000"
         style="stop-color:#ffffff;stop-opacity:1.0000000;" />
      <stop
         id="stop93"
         offset="1.0000000"
         style="stop-color:#ffffff;stop-opacity:0.13756600;" />
    </linearGradient>
    <linearGradient
       xlink:href="#defitem29"
       id="linearGradient3448"
       gradientUnits="userSpaceOnUse"
       x1="649.42902"
       y1="807.466"
       x2="655.35199"
       y2="485.909" />
    <radialGradient
       gradientUnits="userSpaceOnUse"
       id="defitem28"
       fy="345.56"
       fx="1049.72"
       r="1202.15"
       cy="345.56"
       cx="1049.72">
      <stop
         id="stop89"
         offset="0.0000000"
         style="stop-color:#ffffff;stop-opacity:1.0000000;" />
      <stop
         id="stop90"
         offset="1.0000000"
         style="stop-color:#a8a8a8;stop-opacity:1.0000000;" />
    </radialGradient>
    <radialGradient
       xlink:href="#defitem28"
       id="radialGradient3446"
       gradientUnits="userSpaceOnUse"
       cx="1092.7045"
       cy="64.845284"
       fx="1089.4004"
       fy="64.844765"
       r="1202.15" />
    <linearGradient
       gradientUnits="userSpaceOnUse"
       id="defitem30"
       y2="636.70697"
       x2="980"
       y1="636.70697"
       x1="287.5">
      <stop
         id="stop95"
         offset="0.0000000"
         style="stop-color:#464646;stop-opacity:1.0000000;" />
      <stop
         id="stop96"
         offset="1.0000000"
         style="stop-color:#c2c2c2;stop-opacity:1.0000000;" />
    </linearGradient>
    <linearGradient
       xlink:href="#defitem30"
       id="linearGradient3444"
       gradientUnits="userSpaceOnUse"
       gradientTransform="matrix(1,0,0,1.016038,0,-11.73855)"
       x1="287.5"
       y1="636.70697"
       x2="980"
       y2="636.70697" />
    <linearGradient
       gradientUnits="userSpaceOnUse"
       id="defitem27"
       y2="317.44699"
       x2="985.98199"
       y1="403.18799"
       x1="921.091">
      <stop
         id="stop86"
         offset="0.0000000"
         style="stop-color:#7e7e7e;stop-opacity:1.0000000;" />
      <stop
         id="stop87"
         offset="1.0000000"
         style="stop-color:#e5e5e5;stop-opacity:1.0000000;" />
    </linearGradient>
    <linearGradient
       xlink:href="#defitem27"
       id="linearGradient3442"
       gradientUnits="userSpaceOnUse"
       x1="921.091"
       y1="403.18799"
       x2="985.98199"
       y2="317.44699" />
    <linearGradient
       gradientUnits="userSpaceOnUse"
       id="defitem26"
       y2="360.27499"
       x2="293.37"
       y1="346.30399"
       x1="530.76099">
      <stop
         id="stop83"
         offset="0.0000000"
         style="stop-color:#5f5f5f;stop-opacity:1.0000000;" />
      <stop
         id="stop84"
         offset="1.0000000"
         style="stop-color:#e5e5e5;stop-opacity:1.0000000;" />
    </linearGradient>
    <linearGradient
       xlink:href="#defitem26"
       id="linearGradient3440"
       gradientUnits="userSpaceOnUse"
       x1="530.76099"
       y1="346.30399"
       x2="293.37"
       y2="360.27499" />
    <linearGradient
       gradientUnits="userSpaceOnUse"
       id="defitem25"
       y2="337.60999"
       x2="308.75"
       y1="412.91901"
       x1="164.013">
      <stop
         id="stop80"
         offset="0.0000000"
         style="stop-color:#ffffff;stop-opacity:1.0000000;" />
      <stop
         id="stop81"
         offset="1.0000000"
         style="stop-color:#bfbfbf;stop-opacity:1.0000000;" />
    </linearGradient>
    <linearGradient
       xlink:href="#defitem25"
       id="linearGradient3438"
       gradientUnits="userSpaceOnUse"
       x1="164.013"
       y1="412.91901"
       x2="308.75"
       y2="337.60999" />
    <linearGradient
       gradientUnits="userSpaceOnUse"
       id="defitem24"
       y2="380.47198"
       x2="992.48901"
       y1="270.854"
       x1="1094.25">
      <stop
         id="stop77"
         offset="0.0000000"
         style="stop-color:#6a6a6a;stop-opacity:1.0000000;" />
      <stop
         id="stop78"
         offset="1.0000000"
         style="stop-color:#e6e6e6;stop-opacity:1.0000000;" />
    </linearGradient>
    <linearGradient
       xlink:href="#defitem24"
       id="linearGradient3436"
       gradientUnits="userSpaceOnUse"
       x1="1094.25"
       y1="270.854"
       x2="992.48901"
       y2="380.47198" />
    <linearGradient
       gradientUnits="userSpaceOnUse"
       id="defitem23"
       y2="549.37799"
       x2="1049.84"
       y1="476.465"
       x1="1170.91">
      <stop
         id="stop74"
         offset="0.0000000"
         style="stop-color:#5f5f5f;stop-opacity:1.0000000;" />
      <stop
         id="stop75"
         offset="1.0000000"
         style="stop-color:#ebebeb;stop-opacity:1.0000000;" />
    </linearGradient>
    <linearGradient
       xlink:href="#defitem23"
       id="linearGradient3434"
       gradientUnits="userSpaceOnUse"
       x1="1170.91"
       y1="476.465"
       x2="1049.84"
       y2="549.37799" />
    <linearGradient
       gradientUnits="userSpaceOnUse"
       id="defitem22"
       y2="313.276"
       x2="576.14899"
       y1="105.486"
       x1="783.716">
      <stop
         id="stop71"
         offset="0.0000000"
         style="stop-color:#5a5a5a;stop-opacity:1.0000000;" />
      <stop
         id="stop72"
         offset="1.0000000"
         style="stop-color:#c7c7c7;stop-opacity:1.0000000;" />
    </linearGradient>
    <linearGradient
       xlink:href="#defitem22"
       id="linearGradient3432"
       gradientUnits="userSpaceOnUse"
       x1="783.716"
       y1="105.486"
       x2="576.14899"
       y2="313.276" />
    <linearGradient
       gradientUnits="userSpaceOnUse"
       id="defitem21"
       y2="484.716"
       x2="128.05499"
       y1="418.698"
       x1="280.04401">
      <stop
         id="stop68"
         offset="0.0000000"
         style="stop-color:#666666;stop-opacity:1.0000000;" />
      <stop
         id="stop69"
         offset="1.0000000"
         style="stop-color:#d8d8d8;stop-opacity:1.0000000;" />
    </linearGradient>
    <linearGradient
       xlink:href="#defitem21"
       id="linearGradient3430"
       gradientUnits="userSpaceOnUse"
       x1="280.04401"
       y1="418.698"
       x2="128.05499"
       y2="484.716" />
    <linearGradient
       gradientUnits="userSpaceOnUse"
       id="defitem20"
       y2="584.40997"
       x2="220"
       y1="636.95398"
       x1="129.687">
      <stop
         id="stop65"
         offset="0.0000000"
         style="stop-color:#ffffff;stop-opacity:1.0000000;" />
      <stop
         id="stop66"
         offset="1.0000000"
         style="stop-color:#bbbbbb;stop-opacity:1.0000000;" />
    </linearGradient>
    <linearGradient
       xlink:href="#defitem20"
       id="linearGradient3428"
       gradientUnits="userSpaceOnUse"
       x1="129.687"
       y1="636.95398"
       x2="220"
       y2="584.40997" />
    <linearGradient
       gradientUnits="userSpaceOnUse"
       id="defitem19"
       y2="583.75299"
       x2="1127.98"
       y1="629.02802"
       x1="1048.72">
      <stop
         id="stop62"
         offset="0.0000000"
         style="stop-color:#5e5e5e;stop-opacity:1.0000000;" />
      <stop
         id="stop63"
         offset="1.0000000"
         style="stop-color:#ededed;stop-opacity:1.0000000;" />
    </linearGradient>
    <linearGradient
       xlink:href="#defitem19"
       id="linearGradient3426"
       gradientUnits="userSpaceOnUse"
       x1="1048.72"
       y1="629.02802"
       x2="1127.98"
       y2="583.75299" />
    <linearGradient
       gradientUnits="userSpaceOnUse"
       id="defitem18"
       y2="291.97699"
       x2="581.32397"
       y1="387.27301"
       x1="370.022">
      <stop
         id="stop59"
         offset="0.0000000"
         style="stop-color:#636363;stop-opacity:1.0000000;" />
      <stop
         id="stop60"
         offset="1.0000000"
         style="stop-color:#d6d6d6;stop-opacity:1.0000000;" />
    </linearGradient>
    <linearGradient
       xlink:href="#defitem18"
       id="linearGradient3424"
       gradientUnits="userSpaceOnUse"
       x1="370.022"
       y1="387.27301"
       x2="581.32397"
       y2="291.97699" />
    <linearGradient
       gradientUnits="userSpaceOnUse"
       id="defitem17"
       y2="351.939"
       x2="909.59399"
       y1="351.939"
       x1="732.15601">
      <stop
         id="stop56"
         offset="0.0000000"
         style="stop-color:#676767;stop-opacity:1.0000000;" />
      <stop
         id="stop57"
         offset="1.0000000"
         style="stop-color:#d3d3d3;stop-opacity:1.0000000;" />
    </linearGradient>
    <linearGradient
       xlink:href="#defitem17"
       id="linearGradient3422"
       gradientUnits="userSpaceOnUse"
       x1="732.15601"
       y1="351.939"
       x2="909.59399"
       y2="351.939" />
    <linearGradient
       gradientUnits="userSpaceOnUse"
       id="defitem16"
       y2="494.71301"
       x2="1073.01"
       y1="494.71301"
       x1="1014.43">
      <stop
         id="stop53"
         offset="0.0000000"
         style="stop-color:#666666;stop-opacity:1.0000000;" />
      <stop
         id="stop54"
         offset="1.0000000"
         style="stop-color:#dcdcdc;stop-opacity:1.0000000;" />
    </linearGradient>
    <linearGradient
       xlink:href="#defitem16"
       id="linearGradient3420"
       gradientUnits="userSpaceOnUse"
       x1="1014.43"
       y1="494.71301"
       x2="1073.01"
       y2="494.71301" />
    <linearGradient
       gradientUnits="userSpaceOnUse"
       id="defitem15"
       y2="516.37"
       x2="193.27699"
       y1="452.388"
       x1="272.59201">
      <stop
         id="stop50"
         offset="0.0000000"
         style="stop-color:#6e6e6e;stop-opacity:1.0000000;" />
      <stop
         id="stop51"
         offset="1.0000000"
         style="stop-color:#d8d8d8;stop-opacity:1.0000000;" />
    </linearGradient>
    <linearGradient
       xlink:href="#defitem15"
       id="linearGradient3418"
       gradientUnits="userSpaceOnUse"
       x1="272.59201"
       y1="452.388"
       x2="193.27699"
       y2="516.37" />
    <radialGradient
       gradientUnits="userSpaceOnUse"
       id="defitem14"
       fy="211.088"
       fx="1037.22"
       r="1164.28"
       cy="211.088"
       cx="1037.22">
      <stop
         id="stop47"
         offset="0.0000000"
         style="stop-color:#ffffff;stop-opacity:1.0000000;" />
      <stop
         id="stop48"
         offset="1.0000000"
         style="stop-color:#aaaaaa;stop-opacity:1.0000000;" />
    </radialGradient>
    <radialGradient
       xlink:href="#defitem14"
       id="radialGradient3416"
       gradientUnits="userSpaceOnUse"
       cx="1037.22"
       cy="211.088"
       fx="1037.22"
       fy="211.088"
       r="1164.28" />
    <linearGradient
       gradientUnits="userSpaceOnUse"
       id="defitem13"
       y2="686.83002"
       x2="379.241"
       y1="732.12903"
       x1="342.64999">
      <stop
         id="stop44"
         offset="0.0000000"
         style="stop-color:#ffffff;stop-opacity:1.0000000;" />
      <stop
         id="stop45"
         offset="1.0000000"
         style="stop-color:#989898;stop-opacity:1.0000000;" />
    </linearGradient>
    <linearGradient
       xlink:href="#defitem13"
       id="linearGradient3414"
       gradientUnits="userSpaceOnUse"
       x1="342.64999"
       y1="732.12903"
       x2="379.241"
       y2="686.83002" />
    <radialGradient
       gradientUnits="userSpaceOnUse"
       id="defitem12"
       fy="484.409"
       fx="632.78101"
       r="540.27899"
       cy="484.409"
       cx="632.78101">
      <stop
         id="stop41"
         offset="0.0000000"
         style="stop-color:#ffffff;stop-opacity:1.0000000;" />
      <stop
         id="stop42"
         offset="1.0000000"
         style="stop-color:#ededed;stop-opacity:1.0000000;" />
    </radialGradient>
    <radialGradient
       xlink:href="#defitem12"
       id="radialGradient3412"
       gradientUnits="userSpaceOnUse"
       cx="632.78101"
       cy="484.409"
       fx="632.78101"
       fy="484.409"
       r="540.27899" />
    <radialGradient
       xlink:href="#linearGradient3682"
       id="radialGradient3817"
       gradientUnits="userSpaceOnUse"
       gradientTransform="matrix(1.1149219,0.2722306,-0.7507171,3.0745639,-471.08629,-148.32863)"
       cx="270.58316"
       cy="33.899986"
       fx="270.58316"
       fy="33.899986"
       r="19.571428" />
    <linearGradient
       id="linearGradient3682">
      <stop
         style="stop-color:#ff6d0f;stop-opacity:1;"
         offset="0"
         id="stop3684" />
      <stop
         style="stop-color:#ff1000;stop-opacity:1;"
         offset="1"
         id="stop3686" />
    </linearGradient>
    <radialGradient
       xlink:href="#linearGradient3864"
       id="radialGradient3661"
       gradientUnits="userSpaceOnUse"
       gradientTransform="matrix(0.6186598,0.9666542,-1.0332462,0.6612786,-327.27568,-255.84136)"
       cx="282.64584"
       cy="29.149046"
       fx="282.64584"
       fy="29.149046"
       r="19.571428" />
    <linearGradient
       id="linearGradient3864">
      <stop
         id="stop3866"
         offset="0"
         style="stop-color:#71b2f8;stop-opacity:1;" />
      <stop
         id="stop3868"
         offset="1"
         style="stop-color:#002795;stop-opacity:1;" />
    </linearGradient>
  </defs>
  <path
     id="path2333"
     style="color:#000000;fill:#c8c8c8;fill-opacity:1;stroke:#000000;stroke-width:2;stroke-opacity:1;-inkscape-stroke:none"
     d="M 135.84338,3.771118 65.500463,13.821125 c -7.026652,1.003999 -14.034703,2.006478 -21.024014,3.004476 -2.164258,0.30936 -4.318915,0.6151 -6.464713,0.921899 -1.072038,1.492438 -2.125677,3.004377 -3.163636,4.539255 C 22.077156,41.171572 12.67775,62.127526 7.0668918,84.223979 5.0464302,92.191229 3.5295621,100.22308 2.5193713,108.32171 c -0.5051054,4.04864 -0.8854288,8.11795 -1.1399805,12.20699 -0.1267799,2.04339 -0.2213738,4.09679 -0.2852537,6.16397 -0.03196,1.03256 -0.05528,2.0756 -0.07028,3.12848 -0.016,1.05477 -0.02478,2.12813 -0.02378,3.18739 0.003,2.12146 0.03854,4.17968 0.1054199,6.21873 0.06688,2.042 0.1668398,4.07707 0.2966236,6.10609 0.2595417,4.05703 0.6421492,8.09223 1.1482486,12.10466 1.0111927,8.02621 2.5180289,15.97864 4.5165145,23.85589 5.6108583,22.09642 15.0102643,43.0524 27.7812083,61.93723 1.037959,1.53486 2.091598,3.04684 3.163636,4.53926 2.145798,0.30682 4.300455,0.61254 6.464713,0.9219 6.989311,0.99799 13.997362,1.99943 21.024014,3.00343 l 70.342915,10.04691 h 174.02325 l 70.18375,-9.77717 c 7.01934,-0.97798 14.02175,-1.95322 21.0044,-2.92591 2.1304,-0.2969 4.24979,-0.5924 6.36239,-0.88676 1.1671,-1.61688 2.31858,-3.2552 3.44578,-4.92166 12.77096,-18.88483 22.17037,-39.84081 27.7812,-61.93723 2.02046,-7.96727 3.5363,-15.99914 4.5465,-24.09773 0.5051,-4.04863 0.88646,-8.11791 1.14102,-12.207 0.1268,-2.04336 0.22146,-4.10091 0.28526,-6.16807 0.0318,-1.03253 0.0562,-2.07565 0.0702,-3.12849 0.016,-1.05478 0.0238,-2.12504 0.0228,-3.1843 -0.002,-2.12124 -0.0386,-4.17955 -0.1054,-6.21873 -0.0668,-2.04194 -0.1668,-4.0802 -0.29662,-6.10919 -0.25954,-4.057 -0.64214,-8.08911 -1.14824,-12.10157 -1.0112,-8.02619 -2.517,-15.977581 -4.5155,-23.854851 -5.61083,-22.096453 -15.01024,-43.052407 -27.7812,-61.937224 -1.1272,-1.666438 -2.27868,-3.305796 -3.44578,-4.922694 -2.1126,-0.29436 -4.23303,-0.59296 -6.36343,-0.889859 -6.98265,-0.972679 -13.98402,-1.947918 -21.00336,-2.925917 L 309.86664,3.771118 Z M 24.360913,75.40903 l 15.762321,2.023637 5.125254,0.660439 V 187.42065 l -5.125254,0.6563 -15.762321,2.02777 c -0.627899,-1.2669 -1.237238,-2.54421 -1.824178,-3.83231 -1.725237,-3.78686 -3.323657,-7.78855 -4.741835,-11.95689 -1.418158,-4.16825 -2.656257,-8.50261 -3.683485,-13.0431 -1.029167,-4.5438 -1.838546,-9.27817 -2.375047,-14.0508 -0.538548,-4.77513 -0.819479,-9.61236 -0.816487,-14.52314 9.96e-4,-2.45454 0.07438,-4.92841 0.214973,-7.36387 0.13962,-2.43396 0.345772,-4.83761 0.617018,-7.21093 0.542533,-4.74825 1.339722,-9.40627 2.370911,-13.94848 0.515581,-2.27 1.08906,-4.50904 1.70738,-6.687957 0.619419,-2.177258 1.282538,-4.297075 1.988517,-6.366532 1.412178,-4.143895 2.995698,-8.101191 4.718055,-11.883486 0.5869,-1.288038 1.196319,-2.561377 1.824178,-3.828195 z m 396.992347,0 c 0.62786,1.266818 1.23728,2.540157 1.82418,3.828195 1.72238,3.782315 3.30588,7.739591 4.71806,11.883486 0.70598,2.069457 1.36493,4.189274 1.98435,6.366532 0.61832,2.178917 1.19182,4.417957 1.7074,6.687957 1.0312,4.54221 1.8325,9.20021 2.37504,13.94848 0.27126,2.37332 0.47738,4.77697 0.61702,7.21093 0.1406,2.43546 0.20984,4.90933 0.21084,7.36387 0.004,4.9107 -0.27382,9.74795 -0.81236,14.52314 -0.53652,4.77265 -1.34588,9.507 -2.37504,14.0508 -1.02724,4.54051 -2.26534,8.87485 -3.68349,13.0431 -1.41818,4.16834 -3.01656,8.17003 -4.74182,11.95689 -0.58692,1.2881 -1.19628,2.56541 -1.82418,3.83231 l -15.76234,-2.02777 -5.12421,-0.6563 V 78.093106 l 5.12421,-0.660439 z" />
  <g
     id="g6381"
     transform="matrix(1.9999976,0,0,1.9999976,22.503683,74.921004)">
    <path
       style="color:#000000;fill:#c8c8c8;fill-opacity:1;stroke:#000000;stroke-width:1;stroke-dasharray:none;stroke-opacity:1"
       d="m 0.5,0.5 h 0.15039 0.25195 0.32422 0.39649 0.46875 0.54101 0.61133 0.68555 0.75586 0.82812 0.89844 0.9707 21.32617 1.63672 34.93164 69.79688 34.93359 1.63477 21.32617 0.9707 0.90039 0.82813 0.75586 0.68359 0.61328 0.54102 0.46679 0.39649 0.32422 0.2539 0.14844 v 56.835945 h -0.14844 -0.2539 -0.32422 -0.39649 -0.46679 -0.54102 -0.61328 -0.68359 -0.75586 -0.82813 -0.90039 -0.9707 -21.32617 -1.63477 H 135.07422 65.27734 30.3457 28.70898 7.38281 6.41211 5.51367 4.68555 3.92969 3.24414 2.63281 2.0918 1.62305 1.22656 0.90234 0.65039 0.5 Z"
       id="path3846" />
    <g
       id="g3474"
       style="stroke-width:1;stroke-dasharray:none"
       transform="translate(-36.865179,-15.57583)">
      <path
         d="m 208.50785,73.0872 v -1.82465 -2.7939 -3.662 -4.3975 -4.97375 -5.36995 -5.57165 -5.57165 -5.36995 -4.97375 -4.3975 -3.662 -2.7939 -1.82465"
         id="path268"
         style="fill:none;stroke:#000000;stroke-width:1;stroke-linecap:butt;stroke-linejoin:miter;stroke-dasharray:none" />
      <path
         d="m 229.83385,73.0872 c -0.3505,-0.6872 -0.6935,-1.77065 -1.024,-3.24245 -0.1655,-0.73665 -0.327,-1.57225 -0.481,-2.4874 -0.154,-0.9141 -0.3,-1.9108 -0.438,-2.9902"
         id="path272"
         style="fill:none;stroke:#000000;stroke-width:1;stroke-linecap:butt;stroke-linejoin:miter;stroke-dasharray:none" />
      <path
         d="m 222.61335,55.44185 0.273,0.6992 0.2905,0.6915 0.307,0.68325 0.323,0.6747 0.3395,0.66555 0.3555,0.65605 0.371,0.64615 0.387,0.6357 0.402,0.6249 0.417,0.6137 0.4315,0.6021 0.446,0.59005 0.4605,0.57765 0.474,0.5648"
         id="path274"
         style="fill:none;stroke:#000000;stroke-width:1;stroke-linecap:butt;stroke-linejoin:miter;stroke-dasharray:none" />
      <path
         d="m 222.61335,33.54575 -3.416,1.5029 -2.9075,1.531 -2.3905,1.55445 -1.867,1.57335 -1.3375,1.58753 -0.804,1.59703 -0.268,1.60179 0.268,1.60179 0.804,1.59702 1.3375,1.58754 1.867,1.57335 2.3905,1.55445 2.9075,1.531 3.416,1.5029"
         id="path276"
         style="fill:none;stroke:#000000;stroke-width:1;stroke-linecap:butt;stroke-linejoin:miter;stroke-dasharray:none" />
      <path
         d="m 222.61335,33.54575 0.273,-0.6992 0.2905,-0.6915 0.307,-0.68325 0.323,-0.6747 0.3395,-0.66555 0.3555,-0.65605 0.371,-0.64615 0.387,-0.6357 0.402,-0.6249 0.417,-0.6137 0.4315,-0.6021 0.446,-0.59005 0.4605,-0.57765 0.474,-0.5648"
         id="path278"
         style="fill:none;stroke:#000000;stroke-width:1;stroke-linecap:butt;stroke-linejoin:miter;stroke-dasharray:none" />
      <path
         d="m 229.83385,15.9004 c -0.3505,0.6872 -0.6935,1.77065 -1.024,3.24245 -0.1655,0.73665 -0.327,1.57225 -0.481,2.4874 -0.154,0.9141 -0.3,1.9108 -0.438,2.9902"
         id="path280"
         style="fill:none;stroke:#000000;stroke-width:1;stroke-linecap:butt;stroke-linejoin:miter;stroke-dasharray:none" />
      <path
         d="m 46.190852,24.62045 c -0.138,-1.0796 -0.2835,-2.07345 -0.4365,-2.9815 -0.1525,-0.9096 -0.3115,-1.73365 -0.477,-2.4721 -0.1655,-0.73765 -0.3365,-1.3875 -0.5085,-1.934 -0.172,-0.546 -0.346,-0.99015 -0.521,-1.33245"
         id="path282"
         style="fill:none;stroke:#000000;stroke-width:1;stroke-linecap:butt;stroke-linejoin:miter;stroke-dasharray:none" />
      <path
         d="m 46.190852,24.62045 0.474,0.5648 0.4605,0.57765 0.446,0.59005 0.4315,0.6021 0.417,0.6137 0.402,0.6249 0.387,0.6357 0.371,0.64615 0.3555,0.65605 0.3395,0.66555 0.323,0.6747 0.307,0.68325 0.2905,0.6915 0.273,0.6992"
         id="path284"
         style="fill:none;stroke:#000000;stroke-width:1;stroke-linecap:butt;stroke-linejoin:miter;stroke-dasharray:none" />
      <path
         d="m 51.468352,55.44185 3.416,-1.5029 2.9075,-1.531 2.3905,-1.55445 1.867,-1.57335 1.3375,-1.58754 0.804,-1.59702 0.268,-1.60179 -0.268,-1.60179 -0.804,-1.59703 -1.3375,-1.58753 -1.867,-1.57335 -2.3905,-1.55445 -2.9075,-1.531 -3.416,-1.5029"
         id="path286"
         style="fill:none;stroke:#000000;stroke-width:1;stroke-linecap:butt;stroke-linejoin:miter;stroke-dasharray:none" />
      <path
         d="m 46.190852,64.36715 0.474,-0.5648 0.4605,-0.57765 0.446,-0.59005 0.4315,-0.6021 0.417,-0.6137 0.402,-0.6249 0.387,-0.6357 0.371,-0.64615 0.3555,-0.65605 0.3395,-0.66555 0.323,-0.6747 0.307,-0.68325 0.2905,-0.6915 0.273,-0.6992"
         id="path288"
         style="fill:none;stroke:#000000;stroke-width:1;stroke-linecap:butt;stroke-linejoin:miter;stroke-dasharray:none" />
      <path
         d="m 46.190852,64.36715 c -0.138,1.0796 -0.2835,2.07345 -0.4365,2.9815 -0.1525,0.9096 -0.3115,1.73365 -0.477,2.4721 -0.1655,0.73765 -0.3365,1.3875 -0.5085,1.934 -0.172,0.546 -0.346,0.99015 -0.521,1.33245"
         id="path290"
         style="fill:none;stroke:#000000;stroke-width:1;stroke-linecap:butt;stroke-linejoin:miter;stroke-dasharray:none" />
      <path
         d="m 65.573852,15.9004 v 1.82465 2.7939 3.662 4.3975 4.97375 5.36995 5.57165 5.57165 5.36995 4.97375 4.3975 3.662 2.7939 1.82465"
         id="path293"
         style="fill:none;stroke:#000000;stroke-width:1;stroke-linecap:butt;stroke-linejoin:miter;stroke-dasharray:none" />
      <path
         id="31"
         d="M 222.61335,55.44185 V 33.54575"
         style="fill:none;stroke:#000000;stroke-width:1;stroke-linecap:butt;stroke-linejoin:miter;stroke-dasharray:none" />
      <path
         id="32"
         d="M 227.89085,64.36715 V 24.62045"
         style="fill:none;stroke:#000000;stroke-width:1;stroke-linecap:butt;stroke-linejoin:miter;stroke-dasharray:none" />
      <path
         id="33"
         d="M 46.190852,64.36715 V 24.62045"
         style="fill:none;stroke:#000000;stroke-width:1;stroke-linecap:butt;stroke-linejoin:miter;stroke-dasharray:none" />
      <path
         id="34"
         d="M 51.468352,55.44185 V 33.54575"
         style="fill:none;stroke:#000000;stroke-width:1;stroke-linecap:butt;stroke-linejoin:miter;stroke-dasharray:none" />
    </g>
  </g>
  <g
     id="g7511"
     transform="matrix(1.9999976,0,0,1.9999976,44.880034,-114.37407)">
    <g
       id="g6892"
       transform="translate(19.226906,57.187104)">
      <g
         id="g5865">
        <path
           style="color:#000000;fill:#c8c8c8;fill-opacity:1;stroke:#000000;stroke-width:1;stroke-dasharray:none;stroke-opacity:1"
           d="m 69.75971,0.50023917 c 19.01467,-0.03942 37.98322,4.79618103 54.74411,13.74617783 1.53763,3.069673 3.2041,6.724136 4.66794,9.425784 2.05361,0.962995 5.25579,0.685145 6.52947,2.490718 0.96451,3.448972 3.06984,6.694921 3.32014,10.270997 0,20.388017 0,40.776027 0,61.164047 -1.19531,3.250647 -2.39063,6.501297 -3.58594,9.751947 -2.06428,0.81763 -5.17818,0.99354 -6.54204,2.20746 -1.47271,2.99741 -2.92134,6.02019 -4.40907,9.00178 -31.1394,16.88909 -70.05688,18.27057 -102.27824,3.51832 -3.06502,-1.80193 -7.64986,-2.26727 -8.54072,-6.2997 -1.08393,-2.14861 -2.30537,-4.87568 -3.31575,-6.65647 C 8.29508,108.15738 5.09308,108.43243 3.81822,106.62666 2.85446,103.17898 0.74958,99.934353 0.5,96.359593 c 0,-20.38802 0,-40.77604 0,-61.164055 1.19466,-3.251302 2.38933,-6.502604 3.58399,-9.753906 2.06513,-0.817393 5.18542,-0.992197 6.54408,-2.207475 1.47272,-2.996659 2.92124,-6.019 4.40904,-8.99964 C 31.79935,5.2995932 50.75202,0.46451317 69.75971,0.50023917 Z"
           id="path5467" />
        <g
           id="g5458"
           transform="translate(-231.01474,-26.38903)"
           style="stroke-width:0.8;stroke-dasharray:none">
          <path
             d="m 289.20762,143.43905 q 11.56781,-0.056 23.1356,0"
             id="path1473"
             style="fill:none;stroke:#000000;stroke-width:0.8;stroke-linecap:butt;stroke-linejoin:miter;stroke-dasharray:none" />
          <path
             d="m 312.34322,42.096055 q -5.7839,0.028 -11.56779,0.028"
             id="path1481"
             style="fill:none;stroke:#000000;stroke-width:0.8;stroke-linecap:butt;stroke-linejoin:miter;stroke-dasharray:none" />
          <path
             d="m 300.77543,42.124055 q -5.78391,0 -11.56781,-0.028"
             id="path1483"
             style="fill:none;stroke:#000000;stroke-width:0.8;stroke-linecap:butt;stroke-linejoin:miter;stroke-dasharray:none" />
          <path
             d="m 289.20762,143.43905 a 51.9755,51.9755 0 0 1 0,-101.342995"
             id="path1492"
             style="fill:none;stroke:#000000;stroke-width:0.8;stroke-linecap:butt;stroke-linejoin:miter;stroke-dasharray:none" />
          <path
             d="m 312.34322,42.096055 a 51.9755,51.9755 0 0 1 0,101.342995"
             id="path1494"
             style="fill:none;stroke:#000000;stroke-width:0.8;stroke-linecap:butt;stroke-linejoin:miter;stroke-dasharray:none" />
          <circle
             cx="92.767555"
             cy="300.77542"
             r="50.570499"
             id="circle1496"
             transform="matrix(0,1,1,0,0,0)"
             style="fill:none;stroke:#000000;stroke-width:0.8;stroke-linecap:butt;stroke-linejoin:miter;stroke-dasharray:none" />
          <path
             d="m 302.89151,43.264055 q -1.05741,-0.0522 -2.11608,-0.0523"
             id="path1510"
             style="fill:none;stroke:#000000;stroke-width:0.8;stroke-linecap:butt;stroke-linejoin:miter;stroke-dasharray:none" />
          <path
             d="m 302.89151,43.264055 a 49.5487,49.5487 0 0 1 0,99.006995"
             id="path1512"
             style="fill:none;stroke:#000000;stroke-width:0.8;stroke-linecap:butt;stroke-linejoin:miter;stroke-dasharray:none" />
          <path
             d="m 298.65933,142.27105 q 2.1161,0.1042 4.23218,0"
             id="path1514"
             style="fill:none;stroke:#000000;stroke-width:0.8;stroke-linecap:butt;stroke-linejoin:miter;stroke-dasharray:none" />
          <path
             d="m 298.65933,142.27105 a 49.5487,49.5487 0 0 1 0,-99.006995"
             id="path1516"
             style="fill:none;stroke:#000000;stroke-width:0.8;stroke-linecap:butt;stroke-linejoin:miter;stroke-dasharray:none" />
          <path
             d="m 300.77543,43.211755 q -1.05868,1e-4 -2.1161,0.0523"
             id="path1518"
             style="fill:none;stroke:#000000;stroke-width:0.8;stroke-linecap:butt;stroke-linejoin:miter;stroke-dasharray:none" />
          <path
             d="m 303.55387,43.467605 q -0.32992,-0.11545 -0.66236,-0.20355"
             id="path1520"
             style="fill:none;stroke:#000000;stroke-width:0.8;stroke-linecap:butt;stroke-linejoin:miter;stroke-dasharray:none" />
          <path
             d="m 303.55387,43.467605 q -0.56134,0.0067 -1.12436,0.01065"
             id="path1522"
             style="fill:none;stroke:#000000;stroke-width:0.8;stroke-linecap:butt;stroke-linejoin:miter;stroke-dasharray:none" />
          <path
             d="m 302.42951,43.478255 a 49.31705,49.31705 0 0 1 0,98.578595"
             id="path1524"
             style="fill:none;stroke:#000000;stroke-width:0.8;stroke-linecap:butt;stroke-linejoin:miter;stroke-dasharray:none" />
          <path
             d="m 302.42951,142.05685 q 0.56302,0.004 1.12436,0.0106"
             id="path1526"
             style="fill:none;stroke:#000000;stroke-width:0.8;stroke-linecap:butt;stroke-linejoin:miter;stroke-dasharray:none" />
          <path
             d="m 302.89151,142.27105 q 0.33244,-0.0881 0.66236,-0.20355"
             id="path1528"
             style="fill:none;stroke:#000000;stroke-width:0.8;stroke-linecap:butt;stroke-linejoin:miter;stroke-dasharray:none" />
          <path
             d="m 298.65933,43.264055 q -0.33243,0.0881 -0.66235,0.20355"
             id="path1530"
             style="fill:none;stroke:#000000;stroke-width:0.8;stroke-linecap:butt;stroke-linejoin:miter;stroke-dasharray:none" />
          <path
             d="m 297.99698,142.0675 q 0.32992,0.11545 0.66235,0.20355"
             id="path1532"
             style="fill:none;stroke:#000000;stroke-width:0.8;stroke-linecap:butt;stroke-linejoin:miter;stroke-dasharray:none" />
          <path
             d="m 297.99698,142.0675 q 0.56134,-0.007 1.12436,-0.0106"
             id="path1534"
             style="fill:none;stroke:#000000;stroke-width:0.8;stroke-linecap:butt;stroke-linejoin:miter;stroke-dasharray:none" />
          <path
             d="m 299.12134,142.05685 a 49.31705,49.31705 0 0 1 0,-98.578595"
             id="path1536"
             style="fill:none;stroke:#000000;stroke-width:0.8;stroke-linecap:butt;stroke-linejoin:miter;stroke-dasharray:none" />
          <path
             d="m 299.12134,43.478255 q -0.56302,-0.004 -1.12436,-0.01065"
             id="path1538"
             style="fill:none;stroke:#000000;stroke-width:0.8;stroke-linecap:butt;stroke-linejoin:miter;stroke-dasharray:none" />
          <path
             d="m 299.12134,142.05685 c 0.17212,-0.0537 0.36183,-0.10659 0.6067,-0.15605 0.1228,-0.0247 0.26025,-0.0485 0.42998,-0.0685 0.0842,-0.0103 0.17847,-0.0189 0.28275,-0.0258 0.10492,-0.007 0.22184,-0.0109 0.33894,-0.0108 0.11711,1.1e-4 0.2344,0.005 0.33912,0.0113 0.10394,0.007 0.19761,0.0157 0.28102,0.0261 0.16838,0.0202 0.305,0.0439 0.42689,0.0685 0.24287,0.0492 0.43116,0.10175 0.60277,0.15525"
             id="path1540"
             style="fill:none;stroke:#000000;stroke-width:0.8;stroke-linecap:butt;stroke-linejoin:miter;stroke-dasharray:none" />
          <path
             d="m 307.76437,44.582755 c -1.7716,-0.28795 -3.56068,-0.46655 -5.35399,-0.5345"
             id="path1542"
             style="fill:none;stroke:#000000;stroke-width:0.8;stroke-linecap:butt;stroke-linejoin:miter;stroke-dasharray:none" />
          <path
             d="m 307.76437,140.95235 a 48.689,48.689 0 0 0 0,-96.369595"
             id="path1544"
             style="fill:none;stroke:#000000;stroke-width:0.8;stroke-linecap:butt;stroke-linejoin:miter;stroke-dasharray:none" />
          <path
             d="m 293.78647,140.95235 0.9916,0.1497 0.99473,0.12685 0.99736,0.10385 0.99948,0.0808 1.00105,0.0577 1.0021,0.0347 1.00264,0.0115 1.00263,-0.0115 1.0021,-0.0347 1.00105,-0.0577 0.99947,-0.0808 0.99739,-0.10385 0.9947,-0.12685 0.9916,-0.1497"
             id="path1546"
             style="fill:none;stroke:#000000;stroke-width:0.8;stroke-linecap:butt;stroke-linejoin:miter;stroke-dasharray:none" />
          <path
             d="m 293.78647,44.582755 a 48.689,48.689 0 0 0 0,96.369595"
             id="path1548"
             style="fill:none;stroke:#000000;stroke-width:0.8;stroke-linecap:butt;stroke-linejoin:miter;stroke-dasharray:none" />
          <path
             d="m 302.41038,44.048255 -0.61788,-0.01885 -0.61808,-0.01005 -0.61816,-0.0013 -0.61812,0.0075 -0.61796,0.0163 -0.61766,0.0251 -0.61725,0.03385 -0.61671,0.0426 -0.61605,0.0514 -0.61526,0.06015 -0.61438,0.0689 -0.6133,0.0776 -0.6122,0.0863 -0.6109,0.095"
             id="path1550"
             style="fill:none;stroke:#000000;stroke-width:0.8;stroke-linecap:butt;stroke-linejoin:miter;stroke-dasharray:none" />
          <path
             d="m 302.42951,43.478255 c -0.17212,0.0537 -0.36183,0.1066 -0.6067,0.15605 -0.12281,0.0247 -0.26025,0.04845 -0.42999,0.0685 -0.0842,0.0103 -0.17846,0.0189 -0.28273,0.0258 -0.10493,0.0066 -0.22184,0.01085 -0.33895,0.01075 -0.1171,-1e-4 -0.2344,-0.0045 -0.33912,-0.0113 -0.10393,-0.007 -0.19761,-0.01575 -0.28103,-0.0261 -0.16837,-0.02015 -0.30499,-0.04385 -0.42688,-0.06845 -0.24287,-0.0492 -0.43116,-0.10175 -0.60277,-0.15525"
             id="path1552"
             style="fill:none;stroke:#000000;stroke-width:0.8;stroke-linecap:butt;stroke-linejoin:miter;stroke-dasharray:none" />
          <path
             id="151"
             d="m 297.99698,43.467605 h 5.55689"
             style="fill:none;stroke:#000000;stroke-width:0.8;stroke-linecap:butt;stroke-linejoin:miter;stroke-dasharray:none" />
          <path
             id="152"
             d="m 297.99698,142.0675 h 5.55689"
             style="fill:none;stroke:#000000;stroke-width:0.8;stroke-linecap:butt;stroke-linejoin:miter;stroke-dasharray:none" />
          <path
             id="153"
             d="m 293.78647,140.95235 h 13.9779"
             style="fill:none;stroke:#000000;stroke-width:0.8;stroke-linecap:butt;stroke-linejoin:miter;stroke-dasharray:none" />
        </g>
      </g>
    </g>
  </g>
  <g
     id="g1043"
     transform="translate(-40.548264,-4.2081718)">
    <path
       style="color:#000000;fill:#c8c8c8;fill-opacity:1;stroke:#000000;stroke-width:1.37668;stroke-opacity:1"
       d="m 45.86407,169.67334 h 72.00902 v -61.7054 H 45.86407 Z"
       id="path24590" />
    <path
       style="color:#000000;fill:#c8c8c8;fill-opacity:1;stroke:#000000;stroke-width:1.3387;stroke-opacity:1"
       d="m 80.865421,165.11128 c 14.561084,0 26.350509,-11.78942 26.350509,-26.3505 0,-14.56108 -11.789425,-26.3505 -26.350509,-26.35052 -14.561086,0 -26.350506,11.78944 -26.350506,26.35052 0,14.56108 11.78942,26.3505 26.350506,26.3505 z"
       id="path24594" />
  </g>
</svg>
