<?xml version="1.0" encoding="UTF-8" standalone="no"?>
<svg
   id="svg2"
   version="1.1"
   viewBox="0 0 512.52197 387.6912"
   height="387.69119mm"
   width="512.52197mm"
   sodipodi:docname="thumbnail.svg"
   inkscape:version="1.2.1 (9c6d41e410, 2022-07-14)"
   xmlns:inkscape="http://www.inkscape.org/namespaces/inkscape"
   xmlns:sodipodi="http://sodipodi.sourceforge.net/DTD/sodipodi-0.dtd"
   xmlns:xlink="http://www.w3.org/1999/xlink"
   xmlns="http://www.w3.org/2000/svg"
   xmlns:svg="http://www.w3.org/2000/svg"
   xmlns:rdf="http://www.w3.org/1999/02/22-rdf-syntax-ns#"
   xmlns:cc="http://creativecommons.org/ns#"
   xmlns:dc="http://purl.org/dc/elements/1.1/">
  <sodipodi:namedview
     id="namedview385"
     pagecolor="#ffffff"
     bordercolor="#000000"
     borderopacity="0.25"
     inkscape:showpageshadow="2"
     inkscape:pageopacity="0.0"
     inkscape:pagecheckerboard="0"
     inkscape:deskcolor="#d1d1d1"
     inkscape:document-units="mm"
     showgrid="false"
     inkscape:zoom="0.39108446"
     inkscape:cx="1215.8499"
     inkscape:cy="887.27638"
     inkscape:window-width="2400"
     inkscape:window-height="1434"
     inkscape:window-x="2391"
     inkscape:window-y="-9"
     inkscape:window-maximized="1"
     inkscape:current-layer="svg2" />
  <!-- Working space 10 10 410 287 -->
  <!-- Title block 220 227 410 287 -->
  <metadata
     id="metadata849">
    <rdf:RDF>
      <cc:Work
         rdf:about="">
        <dc:format>image/svg+xml</dc:format>
        <dc:type
           rdf:resource="http://purl.org/dc/dcmitype/StillImage" />
      </cc:Work>
    </rdf:RDF>
  </metadata>
  <defs
     id="defs847">
    <linearGradient
       gradientUnits="userSpaceOnUse"
       id="defitem29"
       y2="485.909"
       x2="655.35199"
       y1="807.466"
       x1="649.42902">
      <stop
         id="stop92"
         offset="0.0000000"
         style="stop-color:#ffffff;stop-opacity:1.0000000;" />
      <stop
         id="stop93"
         offset="1.0000000"
         style="stop-color:#ffffff;stop-opacity:0.13756600;" />
    </linearGradient>
    <linearGradient
       xlink:href="#defitem29"
       id="linearGradient3448"
       gradientUnits="userSpaceOnUse"
       x1="649.42902"
       y1="807.466"
       x2="655.35199"
       y2="485.909" />
    <radialGradient
       gradientUnits="userSpaceOnUse"
       id="defitem28"
       fy="345.56"
       fx="1049.72"
       r="1202.15"
       cy="345.56"
       cx="1049.72">
      <stop
         id="stop89"
         offset="0.0000000"
         style="stop-color:#ffffff;stop-opacity:1.0000000;" />
      <stop
         id="stop90"
         offset="1.0000000"
         style="stop-color:#a8a8a8;stop-opacity:1.0000000;" />
    </radialGradient>
    <radialGradient
       xlink:href="#defitem28"
       id="radialGradient3446"
       gradientUnits="userSpaceOnUse"
       cx="1092.7045"
       cy="64.845284"
       fx="1089.4004"
       fy="64.844765"
       r="1202.15" />
    <linearGradient
       gradientUnits="userSpaceOnUse"
       id="defitem30"
       y2="636.70697"
       x2="980"
       y1="636.70697"
       x1="287.5">
      <stop
         id="stop95"
         offset="0.0000000"
         style="stop-color:#464646;stop-opacity:1.0000000;" />
      <stop
         id="stop96"
         offset="1.0000000"
         style="stop-color:#c2c2c2;stop-opacity:1.0000000;" />
    </linearGradient>
    <linearGradient
       xlink:href="#defitem30"
       id="linearGradient3444"
       gradientUnits="userSpaceOnUse"
       gradientTransform="matrix(1,0,0,1.016038,0,-11.73855)"
       x1="287.5"
       y1="636.70697"
       x2="980"
       y2="636.70697" />
    <linearGradient
       gradientUnits="userSpaceOnUse"
       id="defitem27"
       y2="317.44699"
       x2="985.98199"
       y1="403.18799"
       x1="921.091">
      <stop
         id="stop86"
         offset="0.0000000"
         style="stop-color:#7e7e7e;stop-opacity:1.0000000;" />
      <stop
         id="stop87"
         offset="1.0000000"
         style="stop-color:#e5e5e5;stop-opacity:1.0000000;" />
    </linearGradient>
    <linearGradient
       xlink:href="#defitem27"
       id="linearGradient3442"
       gradientUnits="userSpaceOnUse"
       x1="921.091"
       y1="403.18799"
       x2="985.98199"
       y2="317.44699" />
    <linearGradient
       gradientUnits="userSpaceOnUse"
       id="defitem26"
       y2="360.27499"
       x2="293.37"
       y1="346.30399"
       x1="530.76099">
      <stop
         id="stop83"
         offset="0.0000000"
         style="stop-color:#5f5f5f;stop-opacity:1.0000000;" />
      <stop
         id="stop84"
         offset="1.0000000"
         style="stop-color:#e5e5e5;stop-opacity:1.0000000;" />
    </linearGradient>
    <linearGradient
       xlink:href="#defitem26"
       id="linearGradient3440"
       gradientUnits="userSpaceOnUse"
       x1="530.76099"
       y1="346.30399"
       x2="293.37"
       y2="360.27499" />
    <linearGradient
       gradientUnits="userSpaceOnUse"
       id="defitem25"
       y2="337.60999"
       x2="308.75"
       y1="412.91901"
       x1="164.013">
      <stop
         id="stop80"
         offset="0.0000000"
         style="stop-color:#ffffff;stop-opacity:1.0000000;" />
      <stop
         id="stop81"
         offset="1.0000000"
         style="stop-color:#bfbfbf;stop-opacity:1.0000000;" />
    </linearGradient>
    <linearGradient
       xlink:href="#defitem25"
       id="linearGradient3438"
       gradientUnits="userSpaceOnUse"
       x1="164.013"
       y1="412.91901"
       x2="308.75"
       y2="337.60999" />
    <linearGradient
       gradientUnits="userSpaceOnUse"
       id="defitem24"
       y2="380.47198"
       x2="992.48901"
       y1="270.854"
       x1="1094.25">
      <stop
         id="stop77"
         offset="0.0000000"
         style="stop-color:#6a6a6a;stop-opacity:1.0000000;" />
      <stop
         id="stop78"
         offset="1.0000000"
         style="stop-color:#e6e6e6;stop-opacity:1.0000000;" />
    </linearGradient>
    <linearGradient
       xlink:href="#defitem24"
       id="linearGradient3436"
       gradientUnits="userSpaceOnUse"
       x1="1094.25"
       y1="270.854"
       x2="992.48901"
       y2="380.47198" />
    <linearGradient
       gradientUnits="userSpaceOnUse"
       id="defitem23"
       y2="549.37799"
       x2="1049.84"
       y1="476.465"
       x1="1170.91">
      <stop
         id="stop74"
         offset="0.0000000"
         style="stop-color:#5f5f5f;stop-opacity:1.0000000;" />
      <stop
         id="stop75"
         offset="1.0000000"
         style="stop-color:#ebebeb;stop-opacity:1.0000000;" />
    </linearGradient>
    <linearGradient
       xlink:href="#defitem23"
       id="linearGradient3434"
       gradientUnits="userSpaceOnUse"
       x1="1170.91"
       y1="476.465"
       x2="1049.84"
       y2="549.37799" />
    <linearGradient
       gradientUnits="userSpaceOnUse"
       id="defitem22"
       y2="313.276"
       x2="576.14899"
       y1="105.486"
       x1="783.716">
      <stop
         id="stop71"
         offset="0.0000000"
         style="stop-color:#5a5a5a;stop-opacity:1.0000000;" />
      <stop
         id="stop72"
         offset="1.0000000"
         style="stop-color:#c7c7c7;stop-opacity:1.0000000;" />
    </linearGradient>
    <linearGradient
       xlink:href="#defitem22"
       id="linearGradient3432"
       gradientUnits="userSpaceOnUse"
       x1="783.716"
       y1="105.486"
       x2="576.14899"
       y2="313.276" />
    <linearGradient
       gradientUnits="userSpaceOnUse"
       id="defitem21"
       y2="484.716"
       x2="128.05499"
       y1="418.698"
       x1="280.04401">
      <stop
         id="stop68"
         offset="0.0000000"
         style="stop-color:#666666;stop-opacity:1.0000000;" />
      <stop
         id="stop69"
         offset="1.0000000"
         style="stop-color:#d8d8d8;stop-opacity:1.0000000;" />
    </linearGradient>
    <linearGradient
       xlink:href="#defitem21"
       id="linearGradient3430"
       gradientUnits="userSpaceOnUse"
       x1="280.04401"
       y1="418.698"
       x2="128.05499"
       y2="484.716" />
    <linearGradient
       gradientUnits="userSpaceOnUse"
       id="defitem20"
       y2="584.40997"
       x2="220"
       y1="636.95398"
       x1="129.687">
      <stop
         id="stop65"
         offset="0.0000000"
         style="stop-color:#ffffff;stop-opacity:1.0000000;" />
      <stop
         id="stop66"
         offset="1.0000000"
         style="stop-color:#bbbbbb;stop-opacity:1.0000000;" />
    </linearGradient>
    <linearGradient
       xlink:href="#defitem20"
       id="linearGradient3428"
       gradientUnits="userSpaceOnUse"
       x1="129.687"
       y1="636.95398"
       x2="220"
       y2="584.40997" />
    <linearGradient
       gradientUnits="userSpaceOnUse"
       id="defitem19"
       y2="583.75299"
       x2="1127.98"
       y1="629.02802"
       x1="1048.72">
      <stop
         id="stop62"
         offset="0.0000000"
         style="stop-color:#5e5e5e;stop-opacity:1.0000000;" />
      <stop
         id="stop63"
         offset="1.0000000"
         style="stop-color:#ededed;stop-opacity:1.0000000;" />
    </linearGradient>
    <linearGradient
       xlink:href="#defitem19"
       id="linearGradient3426"
       gradientUnits="userSpaceOnUse"
       x1="1048.72"
       y1="629.02802"
       x2="1127.98"
       y2="583.75299" />
    <linearGradient
       gradientUnits="userSpaceOnUse"
       id="defitem18"
       y2="291.97699"
       x2="581.32397"
       y1="387.27301"
       x1="370.022">
      <stop
         id="stop59"
         offset="0.0000000"
         style="stop-color:#636363;stop-opacity:1.0000000;" />
      <stop
         id="stop60"
         offset="1.0000000"
         style="stop-color:#d6d6d6;stop-opacity:1.0000000;" />
    </linearGradient>
    <linearGradient
       xlink:href="#defitem18"
       id="linearGradient3424"
       gradientUnits="userSpaceOnUse"
       x1="370.022"
       y1="387.27301"
       x2="581.32397"
       y2="291.97699" />
    <linearGradient
       gradientUnits="userSpaceOnUse"
       id="defitem17"
       y2="351.939"
       x2="909.59399"
       y1="351.939"
       x1="732.15601">
      <stop
         id="stop56"
         offset="0.0000000"
         style="stop-color:#676767;stop-opacity:1.0000000;" />
      <stop
         id="stop57"
         offset="1.0000000"
         style="stop-color:#d3d3d3;stop-opacity:1.0000000;" />
    </linearGradient>
    <linearGradient
       xlink:href="#defitem17"
       id="linearGradient3422"
       gradientUnits="userSpaceOnUse"
       x1="732.15601"
       y1="351.939"
       x2="909.59399"
       y2="351.939" />
    <linearGradient
       gradientUnits="userSpaceOnUse"
       id="defitem16"
       y2="494.71301"
       x2="1073.01"
       y1="494.71301"
       x1="1014.43">
      <stop
         id="stop53"
         offset="0.0000000"
         style="stop-color:#666666;stop-opacity:1.0000000;" />
      <stop
         id="stop54"
         offset="1.0000000"
         style="stop-color:#dcdcdc;stop-opacity:1.0000000;" />
    </linearGradient>
    <linearGradient
       xlink:href="#defitem16"
       id="linearGradient3420"
       gradientUnits="userSpaceOnUse"
       x1="1014.43"
       y1="494.71301"
       x2="1073.01"
       y2="494.71301" />
    <linearGradient
       gradientUnits="userSpaceOnUse"
       id="defitem15"
       y2="516.37"
       x2="193.27699"
       y1="452.388"
       x1="272.59201">
      <stop
         id="stop50"
         offset="0.0000000"
         style="stop-color:#6e6e6e;stop-opacity:1.0000000;" />
      <stop
         id="stop51"
         offset="1.0000000"
         style="stop-color:#d8d8d8;stop-opacity:1.0000000;" />
    </linearGradient>
    <linearGradient
       xlink:href="#defitem15"
       id="linearGradient3418"
       gradientUnits="userSpaceOnUse"
       x1="272.59201"
       y1="452.388"
       x2="193.27699"
       y2="516.37" />
    <radialGradient
       gradientUnits="userSpaceOnUse"
       id="defitem14"
       fy="211.088"
       fx="1037.22"
       r="1164.28"
       cy="211.088"
       cx="1037.22">
      <stop
         id="stop47"
         offset="0.0000000"
         style="stop-color:#ffffff;stop-opacity:1.0000000;" />
      <stop
         id="stop48"
         offset="1.0000000"
         style="stop-color:#aaaaaa;stop-opacity:1.0000000;" />
    </radialGradient>
    <radialGradient
       xlink:href="#defitem14"
       id="radialGradient3416"
       gradientUnits="userSpaceOnUse"
       cx="1037.22"
       cy="211.088"
       fx="1037.22"
       fy="211.088"
       r="1164.28" />
    <linearGradient
       gradientUnits="userSpaceOnUse"
       id="defitem13"
       y2="686.83002"
       x2="379.241"
       y1="732.12903"
       x1="342.64999">
      <stop
         id="stop44"
         offset="0.0000000"
         style="stop-color:#ffffff;stop-opacity:1.0000000;" />
      <stop
         id="stop45"
         offset="1.0000000"
         style="stop-color:#989898;stop-opacity:1.0000000;" />
    </linearGradient>
    <linearGradient
       xlink:href="#defitem13"
       id="linearGradient3414"
       gradientUnits="userSpaceOnUse"
       x1="342.64999"
       y1="732.12903"
       x2="379.241"
       y2="686.83002" />
    <radialGradient
       gradientUnits="userSpaceOnUse"
       id="defitem12"
       fy="484.409"
       fx="632.78101"
       r="540.27899"
       cy="484.409"
       cx="632.78101">
      <stop
         id="stop41"
         offset="0.0000000"
         style="stop-color:#ffffff;stop-opacity:1.0000000;" />
      <stop
         id="stop42"
         offset="1.0000000"
         style="stop-color:#ededed;stop-opacity:1.0000000;" />
    </radialGradient>
    <radialGradient
       xlink:href="#defitem12"
       id="radialGradient3412"
       gradientUnits="userSpaceOnUse"
       cx="632.78101"
       cy="484.409"
       fx="632.78101"
       fy="484.409"
       r="540.27899" />
    <radialGradient
       xlink:href="#linearGradient3682"
       id="radialGradient3817"
       gradientUnits="userSpaceOnUse"
       gradientTransform="matrix(1.1149219,0.2722306,-0.7507171,3.0745639,-471.08629,-148.32863)"
       cx="270.58316"
       cy="33.899986"
       fx="270.58316"
       fy="33.899986"
       r="19.571428" />
    <linearGradient
       id="linearGradient3682">
      <stop
         style="stop-color:#ff6d0f;stop-opacity:1;"
         offset="0"
         id="stop3684" />
      <stop
         style="stop-color:#ff1000;stop-opacity:1;"
         offset="1"
         id="stop3686" />
    </linearGradient>
    <radialGradient
       xlink:href="#linearGradient3864"
       id="radialGradient3661"
       gradientUnits="userSpaceOnUse"
       gradientTransform="matrix(0.6186598,0.9666542,-1.0332462,0.6612786,-327.27568,-255.84136)"
       cx="282.64584"
       cy="29.149046"
       fx="282.64584"
       fy="29.149046"
       r="19.571428" />
    <linearGradient
       id="linearGradient3864">
      <stop
         id="stop3866"
         offset="0"
         style="stop-color:#71b2f8;stop-opacity:1;" />
      <stop
         id="stop3868"
         offset="1"
         style="stop-color:#002795;stop-opacity:1;" />
    </linearGradient>
  </defs>
  <path
     id="path314"
     style="color:#000000;fill:#c8c8c8;fill-opacity:1;stroke:#000000;stroke-opacity:1;-inkscape-stroke:none"
     d="m 169.22675,64.159816 v 0.34985 l -0.0486,-0.34571 -70.369336,10.052609 c -7.02664,1.004 -14.03576,2.00389 -21.02508,3.00189 -2.215312,0.31666 -4.419102,0.63323 -6.615102,0.94723 l 0.0486,0.34571 -0.28525,-0.20515 c -1.10466,1.53544 -2.19123,3.09401 -3.25975,4.67413 -12.81632,18.951885 -22.24814,39.983085 -27.87892,62.157965 -2.02753,7.99511 -3.54872,16.05602 -4.56252,24.18354 -0.50689,4.06297 -0.88918,8.1464 -1.14463,12.2499 -0.12722,2.0506 -0.22269,4.11329 -0.2868,6.18773 -0.0321,1.03631 -0.0553,2.08347 -0.0703,3.14038 -0.016,1.05823 -0.0248,2.13352 -0.0238,3.19567 0.003,2.12872 0.0404,4.19571 0.10748,6.242 0.0671,2.04931 0.16485,4.09265 0.29508,6.12882 0.26045,4.07135 0.64655,8.11982 1.15445,12.14655 1.0148,8.05477 2.52549,16.03474 4.53099,23.93962 5.63078,22.17491 15.0626,43.20606 27.87892,62.15797 1.06852,1.58009 2.15509,3.1387 3.25975,4.67413 l 0.28525,-0.20516 -0.0486,0.34572 c 2.196,0.314 4.39979,0.63056 6.615103,0.94723 6.98932,0.99799 13.99844,1.99788 21.02508,3.00188 l 70.369335,10.05262 0.0486,-0.34572 v 0.34985 h 174.0685 v -0.34985 l 0.0491,0.34779 70.2107,-9.78132 c 7.0193,-0.978 14.02124,-1.95325 21.00389,-2.92592 2.18131,-0.30399 4.35322,-0.60662 6.51588,-0.90795 l -0.0491,-0.34779 0.28319,0.20516 c 1.20082,-1.66098 2.38063,-3.3477 3.53932,-5.06067 12.81632,-18.95191 22.25019,-39.98306 27.88099,-62.15797 2.0275,-7.99509 3.5487,-16.05601 4.56251,-24.18353 0.50689,-4.06296 0.88866,-8.14642 1.14411,-12.2499 0.12722,-2.0506 0.2232,-4.11327 0.28732,-6.18774 0.032,-1.03566 0.0553,-2.08259 0.0703,-3.13883 v -0.002 c 0.016,-1.05823 0.0243,-2.13301 0.0233,-3.19516 -0.003,-2.1287 -0.0404,-4.19569 -0.10749,-6.24199 -0.0671,-2.0493 -0.16639,-4.09265 -0.29662,-6.12883 -0.26046,-4.07133 -0.64449,-8.11983 -1.15239,-12.14654 -1.01478,-8.05476 -2.5255,-16.03472 -4.53098,-23.93963 -5.6308,-22.17488 -15.06467,-43.20608 -27.88099,-62.157965 -1.15869,-1.71299 -2.3385,-3.39969 -3.53932,-5.06067 l -0.28319,0.20515 0.0491,-0.34778 c -2.16266,-0.30133 -4.33457,-0.60447 -6.51588,-0.90847 -6.98265,-0.97267 -13.98459,-1.94741 -21.00389,-2.9254 l -70.2107,-9.779249 -0.0491,0.34571 v -0.34985 z m -111.462448,72.338224 15.76132,2.0252 5.125262,0.65836 v 109.32821 l -5.125262,0.65784 -15.76132,2.02572 c -0.62776,-1.26663 -1.23738,-2.54243 -1.82417,-3.83026 -1.72524,-3.78684 -3.32418,-7.79062 -4.74235,-11.95896 -1.41817,-4.16823 -2.65627,-8.50054 -3.6835,-13.04106 v -0.002 c -1.02917,-4.5438 -1.83855,-9.27817 -2.37505,-14.05082 -0.53854,-4.77515 -0.81586,-9.61235 -0.81287,-14.52315 10e-4,-2.45452 0.0723,-4.92585 0.21291,-7.3613 0.13962,-2.43396 0.34629,-4.83763 0.61753,-7.21093 0.54254,-4.74829 1.33973,-9.40731 2.37092,-13.94954 0.51559,-2.27 1.08854,-4.50854 1.70687,-6.68745 0.61942,-2.17723 1.28254,-4.29966 1.98851,-6.36912 1.41218,-4.14388 2.99467,-8.0986 4.71703,-11.88093 0.58679,-1.28781 1.19641,-2.56312 1.82417,-3.82974 z m 396.993858,0 c 0.62777,1.26662 1.23738,2.54192 1.82418,3.82974 1.72237,3.78233 3.30483,7.73704 4.71702,11.88093 0.70597,2.06946 1.36701,4.19188 1.98644,6.36912 0.61832,2.17891 1.19335,4.41745 1.70894,6.68745 1.03119,4.54223 1.82839,9.20125 2.37092,13.94954 0.27125,2.37331 0.4774,4.77697 0.61702,7.21093 0.1406,2.43546 0.21191,4.90677 0.2129,7.3613 0.003,4.9108 -0.2738,9.748 -0.81235,14.52315 -0.5365,4.77266 -1.34588,9.50702 -2.37505,14.05082 v 0.002 c -1.02722,4.54053 -2.26533,8.87282 -3.6835,13.04106 -1.41817,4.16834 -3.0171,8.17211 -4.74234,11.95896 -0.5868,1.28783 -1.19641,2.56363 -1.82418,3.83026 l -15.76183,-2.02572 -5.12475,-0.65784 V 139.1816 l 5.12475,-0.65836 z" />
  <path
     style="color:#000000;fill:#c8c8c8;fill-opacity:1;stroke:#000000;stroke-opacity:1;-inkscape-stroke:none"
     d="m 1.1164019,136.16647 v 0.34765 H 0.76679191 l -0.26562,113.46094 h 0.34765 v 0.34961 0.002 h 0.0762 0.0351 0.0215 0.17186999 0.16211 0.0449 0.17382 l 0.38086,0.002 h 0.14844 0.3125 l 0.37109,0.002 h 0.0977 l 0.73829,0.002 h 0.37109 l 0.61523,0.002 0.73633,0.002 1.5957,0.004 h 0.0957 l 1.74414,0.004 2.0800801,0.006 0.95117,0.002 1.3711,0.004 2.5664,0.006 41.36524,0.0957 73.521478,0.17383 251.05861,0.58789 73.52148,0.17188 41.36719,0.0977 2.04297,0.006 1.89257,0.004 0.95118,0.002 0.79296,0.002 1.5918,0.004 1.43945,0.004 h 0.0957 l 1.19531,0.002 0.40039,0.002 0.73633,0.002 0.98633,0.002 0.83593,0.002 0.76563,0.002 h 0.0684 0.38086 0.17187 l 0.20703,0.002 h 0.16993 0.0586 0.0742 0.002 l 0.002,-0.34961 h 0.3496 l 0.26563,-113.45993 h -0.34961 v -0.34961 -0.002 h -0.0762 -0.0352 -0.0215 -0.17188 -0.16211 l -0.21679,-0.002 h -0.44727 l -0.76758,-0.002 -0.83398,-0.002 -0.37305,-0.002 h -0.61523 l -0.73633,-0.002 -0.40039,-0.002 -1.19531,-0.002 -1.53516,-0.004 h -0.30273 l -1.28907,-0.004 -0.79297,-0.002 -0.95117,-0.002 -1.37109,-0.004 -2.56445,-0.006 -41.36719,-0.0977 -73.52149,-0.17188 -251.0586,-0.58789 -73.521478,-0.17382 -41.36524,-0.0957 v -0.002 l -2.04492,-0.004 -0.52148,-0.002 -1.3711,-0.002 -1.74218,-0.004 -1.2890701,-0.004 h -0.30468 l -1.10157,-0.004 h -0.33789 l -1.28906,-0.002 -0.40234,-0.002 -0.73633,-0.002 -0.98633,-0.002 -0.73633,-0.002 h -0.0977 l -0.37305,-0.002 h -0.3125 -0.082 -0.0664 l -0.5996,-0.002 h -0.16211 -0.16992 -0.0234 -0.0352 -0.0742 z"
     id="path2089" />
  <g
     id="g2830"
     transform="translate(48.211312,61.834069)"
     style="stroke-width:1;stroke-dasharray:none">
    <path
       id="1"
       d="m 406.99571,155.43019 -397.999,-0.9336"
       style="fill:none;stroke:#000000;stroke-width:1;stroke-linecap:butt;stroke-linejoin:miter;stroke-dasharray:none" />
    <path
       d="m 407.10271,109.52639 -397.999,-0.9336"
       id="path2017"
       style="fill:none;stroke:#000000;stroke-width:1;stroke-linecap:butt;stroke-linejoin:miter;stroke-dasharray:none" />
    <path
       d="m 8.86571,188.27469 0.003,-1.4766 0.005,-1.9922 0.006,-2.4892 0.007,-2.9629 0.008,-3.4091 0.009,-3.8234 0.01,-4.202 0.01,-4.5414 0.012,-4.8384 0.012,-5.0904 0.012,-5.2947 0.013,-5.4498 0.013,-5.55386 0.013,-5.60619"
       id="path2021"
       style="fill:none;stroke:#000000;stroke-width:1;stroke-linecap:butt;stroke-linejoin:miter;stroke-dasharray:none" />
    <path
       d="m 8.99871,131.54454 -0.134,1.6273 -0.393,1.62541 -0.653,1.62226 -0.911,1.61781 -1.17,1.61211 -1.427,1.60514 -1.682,1.59692 -1.938,1.5874 -2.191,1.5767 -2.442,1.5648 -2.692,1.5515 -2.94,1.5371 -3.184,1.5215 -3.428,1.5047"
       id="path2023"
       style="fill:none;stroke:#000000;stroke-width:1;stroke-linecap:butt;stroke-linejoin:miter;stroke-dasharray:none" />
    <path
       d="m -16.18629,153.69519 -0.609,1.2866 -0.643,1.2729 -0.677,1.2584 -0.71,1.2432 -0.742,1.2272 -0.775,1.2106 -0.807,1.1933 -0.839,1.1752 -0.869,1.1564 -0.9,1.1371 -0.93,1.117 -0.959,1.0963 -0.987,1.075 -1.016,1.0529"
       id="path2025"
       style="fill:none;stroke:#000000;stroke-width:1;stroke-linecap:butt;stroke-linejoin:miter;stroke-dasharray:none" />
    <path
       d="m -32.50029,188.17769 c 0.433,-0.6574 0.862,-1.5327 1.287,-2.626 0.426,-1.0903 0.846,-2.3978 1.261,-3.9225 0.416,-1.5293 0.822,-3.2651 1.205,-5.1674 0.385,-1.9046 0.751,-3.9928 1.098,-6.2645"
       id="path2027"
       style="fill:none;stroke:#000000;stroke-width:1;stroke-linecap:butt;stroke-linejoin:miter;stroke-dasharray:none" />
    <path
       d="m 8.99871,131.54454 -0.126,-1.62791 -0.386,-1.62724 -0.645,-1.6253 -0.904,-1.62207 -1.162,-1.61758 -1.419,-1.61185 -1.675,-1.6048 -1.93,-1.5965 -2.184,-1.5869 -2.435,-1.5762 -2.685,-1.5641 -2.932,-1.5509 -3.177,-1.5365 -3.42,-1.5207"
       id="path2030"
       style="fill:none;stroke:#000000;stroke-width:1;stroke-linecap:butt;stroke-linejoin:miter;stroke-dasharray:none" />
    <path
       d="m 9.13171,74.81439 -0.003,1.4766 -0.005,1.9922 -0.006,2.4892 -0.007,2.9629 -0.008,3.4091 -0.009,3.8234 -0.01,4.202 -0.01,4.5414 -0.012,4.8384 -0.011,5.0904 -0.013,5.2947 -0.013,5.4498 -0.013,5.55386 -0.013,5.60619"
       id="path2032"
       style="fill:none;stroke:#000000;stroke-width:1;stroke-linecap:butt;stroke-linejoin:miter;stroke-dasharray:none" />
    <path
       d="m -32.23429,74.71729 c 0.43,0.6595 0.855,1.5368 1.275,2.632 0.42,1.0923 0.835,2.4017 1.243,3.9284 0.408,1.5312 0.806,3.2689 1.18,5.173 0.376,1.9064 0.732,3.9962 1.068,6.2695"
       id="path2035"
       style="fill:none;stroke:#000000;stroke-width:1;stroke-linecap:butt;stroke-linejoin:miter;stroke-dasharray:none" />
    <path
       d="m -16.08129,109.27599 -0.604,-1.2895 -0.637,-1.2759 -0.671,-1.2615 -0.704,-1.2465 -0.737,-1.2307 -0.769,-1.2143 -0.801,-1.197 -0.833,-1.1791 -0.864,-1.1605 -0.895,-1.1413 -0.924,-1.1214 -0.954,-1.1008 -0.983,-1.0795 -1.011,-1.0578"
       id="path2037"
       style="fill:none;stroke:#000000;stroke-width:1;stroke-linecap:butt;stroke-linejoin:miter;stroke-dasharray:none" />
    <path
       d="m 443.74871,93.82569 -1.016,1.0529 -0.987,1.075 -0.959,1.0963 -0.93,1.117 -0.9,1.1371 -0.869,1.1564 -0.839,1.1752 -0.807,1.1933 -0.775,1.2106 -0.742,1.2272 -0.71,1.2432 -0.677,1.2584 -0.643,1.2729 -0.609,1.2866"
       id="path2039"
       style="fill:none;stroke:#000000;stroke-width:1;stroke-linecap:butt;stroke-linejoin:miter;stroke-dasharray:none" />
    <path
       d="m 443.74871,93.82569 c 0.347,-2.271 0.712,-4.3549 1.095,-6.252 0.384,-1.8998 0.783,-3.6142 1.198,-5.1434 0.415,-1.5316 0.842,-2.8583 1.268,-3.9518 0.427,-1.0983 0.857,-1.9761 1.29,-2.6332"
       id="path2041"
       style="fill:none;stroke:#000000;stroke-width:1;stroke-linecap:butt;stroke-linejoin:miter;stroke-dasharray:none" />
    <path
       d="m 407.10071,132.47844 0.013,-5.60619 0.013,-5.55386 0.013,-5.4498 0.012,-5.2947 0.012,-5.0904 0.012,-4.8384 0.01,-4.5414 0.01,-4.202 0.009,-3.8234 0.008,-3.4091 0.007,-2.9629 0.006,-2.4892 0.005,-1.9922 0.003,-1.4766"
       id="path2044"
       style="fill:none;stroke:#000000;stroke-width:1;stroke-linecap:butt;stroke-linejoin:miter;stroke-dasharray:none" />
    <path
       d="m 432.28571,110.32779 -3.428,1.5047 -3.184,1.5215 -2.94,1.5371 -2.692,1.5515 -2.442,1.5648 -2.191,1.5767 -1.938,1.5874 -1.682,1.59692 -1.427,1.60514 -1.17,1.61211 -0.911,1.61781 -0.653,1.62226 -0.393,1.62541 -0.134,1.6273"
       id="path2046"
       style="fill:none;stroke:#000000;stroke-width:1;stroke-linecap:butt;stroke-linejoin:miter;stroke-dasharray:none" />
    <path
       d="m 443.56771,171.30279 c 0.336,2.2725 0.691,4.3581 1.065,6.257 0.375,1.9015 0.766,3.6178 1.174,5.149 0.408,1.5335 0.828,2.8621 1.249,3.9577 0.422,1.1003 0.848,1.98 1.278,2.6392"
       id="path2048"
       style="fill:none;stroke:#000000;stroke-width:1;stroke-linecap:butt;stroke-linejoin:miter;stroke-dasharray:none" />
    <path
       d="m 443.56771,171.30279 -1.011,-1.0578 -0.983,-1.0795 -0.954,-1.1008 -0.924,-1.1214 -0.895,-1.1413 -0.864,-1.1605 -0.833,-1.1791 -0.801,-1.197 -0.769,-1.2143 -0.737,-1.2307 -0.704,-1.2465 -0.671,-1.2615 -0.637,-1.2759 -0.604,-1.2895"
       id="path2050"
       style="fill:none;stroke:#000000;stroke-width:1;stroke-linecap:butt;stroke-linejoin:miter;stroke-dasharray:none" />
    <path
       d="m 432.18071,154.74699 -3.42,-1.5207 -3.177,-1.5365 -2.932,-1.5509 -2.685,-1.5641 -2.435,-1.5762 -2.184,-1.5869 -1.93,-1.5965 -1.675,-1.6048 -1.419,-1.61185 -1.162,-1.61758 -0.904,-1.62207 -0.645,-1.6253 -0.386,-1.62724 -0.126,-1.62791"
       id="path2052"
       style="fill:none;stroke:#000000;stroke-width:1;stroke-linecap:butt;stroke-linejoin:miter;stroke-dasharray:none" />
    <path
       d="m 407.10071,132.47844 -0.013,5.60619 -0.013,5.55386 -0.013,5.4498 -0.013,5.2947 -0.011,5.0904 -0.012,4.8384 -0.01,4.5414 -0.01,4.202 -0.009,3.8234 -0.008,3.4091 -0.007,2.9629 -0.006,2.4892 -0.005,1.9922 -0.003,1.4766"
       id="path2054"
       style="fill:none;stroke:#000000;stroke-width:1;stroke-linecap:butt;stroke-linejoin:miter;stroke-dasharray:none" />
    <path
       id="34"
       d="m -16.08129,109.27599 -0.105,44.4192"
       style="fill:none;stroke:#000000;stroke-width:1;stroke-linecap:butt;stroke-linejoin:miter;stroke-dasharray:none" />
    <path
       id="35"
       d="m -27.46829,92.72019 -0.181,77.4771"
       style="fill:none;stroke:#000000;stroke-width:1;stroke-linecap:butt;stroke-linejoin:miter;stroke-dasharray:none" />
    <path
       id="36"
       d="m 443.74871,93.82569 -0.181,77.4771"
       style="fill:none;stroke:#000000;stroke-width:1;stroke-linecap:butt;stroke-linejoin:miter;stroke-dasharray:none" />
    <path
       id="37"
       d="m 432.28571,110.32779 -0.105,44.4192"
       style="fill:none;stroke:#000000;stroke-width:1;stroke-linecap:butt;stroke-linejoin:miter;stroke-dasharray:none" />
    <path
       d="m 407.10271,109.52639 -0.005,2.273 -0.015,6.3686 -0.022,9.20305 -0.024,10.21456 -0.021,9.20299 -0.015,6.3687 -0.005,2.2729 0.005,-2.2729 0.015,-6.3687 0.021,-9.20299 0.024,-10.21456 0.022,-9.20305 0.015,-6.3686 0.005,-2.273"
       id="path2079"
       style="fill:none;stroke:#000000;stroke-width:1;stroke-linecap:butt;stroke-linejoin:miter;stroke-dasharray:none" />
    <path
       d="m 9.10371,108.59279 -0.005,2.2729 -0.015,6.3687 -0.021,9.20299 -0.024,10.21456 -0.022,9.20305 -0.015,6.3686 -0.005,2.273 0.005,-2.273 0.015,-6.3686 0.022,-9.20305 0.024,-10.21456 0.021,-9.20299 0.015,-6.3687 0.005,-2.2729"
       id="path2081"
       style="fill:none;stroke:#000000;stroke-width:1;stroke-linecap:butt;stroke-linejoin:miter;stroke-dasharray:none" />
  </g>
  <path
     style="color:#000000;fill:#c8c8c8;fill-opacity:1;stroke:#000000;stroke-opacity:1;-inkscape-stroke:none"
     d="M 256.7148,0.50127436 C 166.65414,0.29000436 88.370795,62.29361 67.951132,150.00911 l 0.30664,0.0703 -0.30664,-0.0684 -0.33203,1.47461 -0.32032,1.47656 -0.30859,1.48047 -0.29883,1.48242 -0.28516,1.48437 -0.27539,1.48633 -0.26367,1.48828 -0.25195,1.49219 -0.24024,1.49219 -0.23046,1.49414 -0.2168,1.49609 -0.20508,1.49805 -0.19531,1.49805 -0.14453,1.1914 -7.06641,-0.0156 -0.002,0.34961 h -0.34961 l -0.002,0.5625 -0.004,1.66406 -0.006,2.68164 -0.008,3.5625 -0.01,4.26562 -0.0117,4.75586 -0.0117,5.00586 -0.0117,5.00782 -0.0117,4.75585 -0.01,4.26563 -0.008,3.5625 -0.006,2.68164 -0.004,1.66406 -0.002,0.5625 0.35156,0.002 -0.002,0.34961 7.06641,0.0156 0.14062,1.19336 0.18555,1.5 0.20117,1.49805 0.20898,1.49804 0.22266,1.49414 0.23242,1.49414 0.2461,1.49219 0.25585,1.49024 0.26758,1.48632 0.2793,1.48633 0.29102,1.48438 0.30273,1.48046 0.3125,1.48047 0.32617,1.4746 0.22852,-0.0508 -0.22852,0.0527 c 20.007893,87.81032 97.999888,150.17935 188.060548,150.39062 90.06066,0.21128 168.34401,-61.79037 188.76367,-149.50586 l -0.32227,-0.0762 0.32227,0.0723 0.33203,-1.47266 0.32031,-1.47851 0.3086,-1.47852 0.29687,-1.48241 0.28711,-1.48438 0.27539,-1.48633 0.26367,-1.49023 0.25196,-1.49023 0.24023,-1.49219 0.22852,-1.49414 0.21679,-1.4961 0.20704,-1.49804 0.19336,-1.5 0.14648,-1.18946 7.06641,0.0156 0.002,-0.34961 h 0.34766 l 0.004,-0.56445 0.004,-1.66407 0.006,-2.67968 0.008,-3.5625 0.01,-4.26563 0.0117,-4.75586 0.0117,-5.00781 0.0117,-5.00586 0.01,-4.75586 0.0117,-4.26562 0.008,-3.5625 0.006,-2.68164 0.004,-1.66407 0.002,-0.56445 h -0.34961 v -0.34961 l -7.06836,-0.0176 -0.13867,-1.1914 -0.1875,-1.5 -0.19922,-1.49805 -0.20899,-1.49805 -0.22265,-1.49609 -0.23438,-1.49219 -0.24414,-1.49219 -0.25586,-1.49023 -0.26953,-1.48828 -0.2793,-1.48633 -0.28906,-1.48242 -0.30273,-1.48242 -0.31446,-1.47852 -0.32421,-1.47461 -0.3418,0.0742 0.3418,-0.0762 C 424.76745,63.08344 346.77546,0.71245436 256.7148,0.50117436 Z"
     id="path3960" />
  <g
     id="g4374"
     transform="translate(41.119702,-10.677836)">
    <path
       d="M 215.58819,14.22327 A 190.298,190.298 0 0 0 29.59999,246.79667"
       id="path3940"
       style="fill:none;stroke:#000000;stroke-width:0.7;stroke-linecap:butt;stroke-linejoin:miter" />
    <path
       d="M 29.59999,246.79667 A 190.298,190.298 0 1 0 215.58819,14.22327"
       id="path3942"
       style="fill:none;stroke:#000000;stroke-width:0.7;stroke-linecap:butt;stroke-linejoin:miter" />
    <circle
       cx="-204.51994"
       cy="-215.14178"
       r="182.735"
       id="circle3956"
       transform="matrix(0,-1,-1,0,0,0)"
       style="fill:none;stroke:#000000;stroke-width:0.7;stroke-linecap:butt;stroke-linejoin:miter" />
  </g>
  <path
     style="color:#000000;fill:#000000;-inkscape-stroke:none"
     d="m 256.25514,193.68443 c 0.004,-1.5e-4 0.007,0.004 0.0117,0.004 v 0.31835 z"
     id="path4369" />
  <path
     style="color:#000000;fill:#000000;-inkscape-stroke:none"
     d="m 256.26499,193.63568 -0.008,0.41993 0.002,-0.41602 c 0.003,-5e-5 0.002,-0.004 0.006,-0.004 z"
     id="path4367" />
  <path
     style="color:#000000;fill:#000000;-inkscape-stroke:none"
     d="m 256.26499,193.66977 -0.002,0.34766 c -0.003,4e-5 -0.002,0.004 -0.006,0.004 z"
     id="path4363" />
  <path
     style="color:#000000;fill:#000000;-inkscape-stroke:none"
     d="m 256.25414,193.6708 0.0137,0.34961 c -0.005,1.9e-4 -0.009,-0.004 -0.0137,-0.004 z"
     id="path4359" />
</svg>
