<?xml version="1.0" encoding="UTF-8" standalone="no"?>
<svg
   id="svg2"
   version="1.1"
   viewBox="0 0 366.46399 260.33509"
   height="260.33508mm"
   width="366.46399mm"
   sodipodi:docname="thumbnail.svg"
   inkscape:version="1.2.1 (9c6d41e410, 2022-07-14)"
   xmlns:inkscape="http://www.inkscape.org/namespaces/inkscape"
   xmlns:sodipodi="http://sodipodi.sourceforge.net/DTD/sodipodi-0.dtd"
   xmlns:xlink="http://www.w3.org/1999/xlink"
   xmlns="http://www.w3.org/2000/svg"
   xmlns:svg="http://www.w3.org/2000/svg"
   xmlns:rdf="http://www.w3.org/1999/02/22-rdf-syntax-ns#"
   xmlns:cc="http://creativecommons.org/ns#"
   xmlns:dc="http://purl.org/dc/elements/1.1/">
  <sodipodi:namedview
     id="namedview421"
     pagecolor="#ffffff"
     bordercolor="#000000"
     borderopacity="0.25"
     inkscape:showpageshadow="2"
     inkscape:pageopacity="0.0"
     inkscape:pagecheckerboard="0"
     inkscape:deskcolor="#d1d1d1"
     inkscape:document-units="mm"
     showgrid="false"
     inkscape:zoom="0.26016034"
     inkscape:cx="1885.3758"
     inkscape:cy="-7.6875669"
     inkscape:window-width="2400"
     inkscape:window-height="1434"
     inkscape:window-x="2391"
     inkscape:window-y="-9"
     inkscape:window-maximized="1"
     inkscape:current-layer="svg2" />
  <!-- Working space 10 10 410 287 -->
  <!-- Title block 220 227 410 287 -->
  <path
     id="path2484"
     style="color:#000000;fill:#c8c8c8;fill-opacity:1;stroke:#000000;stroke-width:1;stroke-dasharray:none;stroke-opacity:1"
     d="m 43.202302,0.5 -6.561872,14.960327 -1.336354,3.046842 -1.297078,2.961059 -1.260904,2.875278 -1.222664,2.78536 -1.18029,2.694408 -1.139982,2.598292 -1.098642,2.50424 -1.054198,2.40192 -1.007692,2.300634 -0.965316,2.203484 -0.917772,2.093928 -0.874366,1.987476 -0.824756,1.878956 -0.77308,1.7663 L 3.655363,90.675373 0.5,97.870799 v 64.593471 l 3.155363,7.19129 18.031973,41.1179 0.77308,1.7694 0.824756,1.87896 0.874366,1.98748 0.917772,2.09392 0.965316,2.19936 1.007692,2.30064 1.054198,2.40604 1.098642,2.50012 1.139982,2.60138 1.18029,2.69234 1.222664,2.78434 1.260904,2.87526 1.297078,2.96106 1.336354,3.04684 6.566006,14.96448 H 323.25756 l 6.566,-14.96448 1.33636,-3.04684 1.29708,-2.96106 1.2609,-2.87526 1.22266,-2.78434 1.1803,-2.69234 1.13998,-2.60138 1.0976,-2.50012 1.05524,-2.40604 1.00768,-2.30064 0.96532,-2.19936 0.91778,-2.09392 0.87126,-1.98748 0.82372,-1.87896 0.77722,-1.7694 18.03198,-41.1179 3.15536,-7.19129 V 97.870799 l -3.15536,-7.195426 -18.03198,-41.116869 -0.77722,-1.7663 -0.82372,-1.878956 -0.87126,-1.987476 -0.91778,-2.093928 -0.96532,-2.203484 -1.00768,-2.300634 -1.05524,-2.40192 -1.0976,-2.50424 -1.13998,-2.598292 -1.1803,-2.694408 -1.22266,-2.78536 -1.2609,-2.875278 -1.29708,-2.961059 -1.33636,-3.046842 L 323.2617,0.5 Z M 38.765364,75.101129 V 186.49588 c -2.440136,-0.40118 -4.747874,-0.78251 -6.85953,-1.12965 -2.126096,-2.96355 -4.024602,-5.96591 -5.711278,-8.9917 -1.706556,-3.06075 -3.206058,-6.1471 -4.504118,-9.22631 l -0.0031,-0.0124 -1.929598,-4.97644 -1.648477,-5.07773 -1.351856,-5.16867 -1.058333,-5.23379 -0.75861,-5.28547 -0.45682,-5.3206 -0.151928,-5.33508 0.151928,-5.34024 0.45682,-5.32061 0.75861,-5.28546 1.058333,-5.23379 1.351856,-5.16454 1.648477,-5.081861 1.929598,-4.97644 c 0.0011,-0.002 0.0019,-0.0063 0.0031,-0.0083 1.298366,-3.080332 2.796982,-6.168528 4.504118,-9.230444 1.686676,-3.025672 3.585182,-6.02413 5.711278,-8.987564 2.112876,-0.310944 4.417914,-0.648418 6.85953,-1.007692 z m 288.933256,0 c 2.44026,0.359074 4.7435,0.696892 6.8554,1.007692 2.1261,2.963446 4.02874,5.962902 5.71542,8.988598 1.70716,3.061916 3.20472,6.150108 4.50308,9.230444 0.001,0.002 0.002,0.0063 0.004,0.0083 l 1.9296,4.97644 1.64848,5.081857 1.35184,5.16351 1.05834,5.23482 0.75862,5.28547 0.45682,5.31957 0.15192,5.34024 -0.15192,5.33611 -0.45682,5.3206 -0.75862,5.28444 -1.05834,5.23482 -1.35184,5.16764 -1.64848,5.07773 -1.9296,4.97747 -0.004,0.0114 c -1.29806,3.07922 -2.79652,6.16555 -4.50308,9.22631 -1.6872,3.02674 -3.5885,6.03241 -5.71542,8.99687 -2.11052,0.34696 -4.41682,0.72356 -6.8554,1.12448 z" />
  <metadata
     id="metadata849">
    <rdf:RDF>
      <cc:Work
         rdf:about="">
        <dc:format>image/svg+xml</dc:format>
        <dc:type
           rdf:resource="http://purl.org/dc/dcmitype/StillImage" />
      </cc:Work>
    </rdf:RDF>
  </metadata>
  <defs
     id="defs847">
    <linearGradient
       gradientUnits="userSpaceOnUse"
       id="defitem29"
       y2="485.909"
       x2="655.35199"
       y1="807.466"
       x1="649.42902">
      <stop
         id="stop92"
         offset="0.0000000"
         style="stop-color:#ffffff;stop-opacity:1.0000000;" />
      <stop
         id="stop93"
         offset="1.0000000"
         style="stop-color:#ffffff;stop-opacity:0.13756600;" />
    </linearGradient>
    <linearGradient
       xlink:href="#defitem29"
       id="linearGradient3448"
       gradientUnits="userSpaceOnUse"
       x1="649.42902"
       y1="807.466"
       x2="655.35199"
       y2="485.909" />
    <radialGradient
       gradientUnits="userSpaceOnUse"
       id="defitem28"
       fy="345.56"
       fx="1049.72"
       r="1202.15"
       cy="345.56"
       cx="1049.72">
      <stop
         id="stop89"
         offset="0.0000000"
         style="stop-color:#ffffff;stop-opacity:1.0000000;" />
      <stop
         id="stop90"
         offset="1.0000000"
         style="stop-color:#a8a8a8;stop-opacity:1.0000000;" />
    </radialGradient>
    <radialGradient
       xlink:href="#defitem28"
       id="radialGradient3446"
       gradientUnits="userSpaceOnUse"
       cx="1092.7045"
       cy="64.845284"
       fx="1089.4004"
       fy="64.844765"
       r="1202.15" />
    <linearGradient
       gradientUnits="userSpaceOnUse"
       id="defitem30"
       y2="636.70697"
       x2="980"
       y1="636.70697"
       x1="287.5">
      <stop
         id="stop95"
         offset="0.0000000"
         style="stop-color:#464646;stop-opacity:1.0000000;" />
      <stop
         id="stop96"
         offset="1.0000000"
         style="stop-color:#c2c2c2;stop-opacity:1.0000000;" />
    </linearGradient>
    <linearGradient
       xlink:href="#defitem30"
       id="linearGradient3444"
       gradientUnits="userSpaceOnUse"
       gradientTransform="matrix(1,0,0,1.016038,0,-11.73855)"
       x1="287.5"
       y1="636.70697"
       x2="980"
       y2="636.70697" />
    <linearGradient
       gradientUnits="userSpaceOnUse"
       id="defitem27"
       y2="317.44699"
       x2="985.98199"
       y1="403.18799"
       x1="921.091">
      <stop
         id="stop86"
         offset="0.0000000"
         style="stop-color:#7e7e7e;stop-opacity:1.0000000;" />
      <stop
         id="stop87"
         offset="1.0000000"
         style="stop-color:#e5e5e5;stop-opacity:1.0000000;" />
    </linearGradient>
    <linearGradient
       xlink:href="#defitem27"
       id="linearGradient3442"
       gradientUnits="userSpaceOnUse"
       x1="921.091"
       y1="403.18799"
       x2="985.98199"
       y2="317.44699" />
    <linearGradient
       gradientUnits="userSpaceOnUse"
       id="defitem26"
       y2="360.27499"
       x2="293.37"
       y1="346.30399"
       x1="530.76099">
      <stop
         id="stop83"
         offset="0.0000000"
         style="stop-color:#5f5f5f;stop-opacity:1.0000000;" />
      <stop
         id="stop84"
         offset="1.0000000"
         style="stop-color:#e5e5e5;stop-opacity:1.0000000;" />
    </linearGradient>
    <linearGradient
       xlink:href="#defitem26"
       id="linearGradient3440"
       gradientUnits="userSpaceOnUse"
       x1="530.76099"
       y1="346.30399"
       x2="293.37"
       y2="360.27499" />
    <linearGradient
       gradientUnits="userSpaceOnUse"
       id="defitem25"
       y2="337.60999"
       x2="308.75"
       y1="412.91901"
       x1="164.013">
      <stop
         id="stop80"
         offset="0.0000000"
         style="stop-color:#ffffff;stop-opacity:1.0000000;" />
      <stop
         id="stop81"
         offset="1.0000000"
         style="stop-color:#bfbfbf;stop-opacity:1.0000000;" />
    </linearGradient>
    <linearGradient
       xlink:href="#defitem25"
       id="linearGradient3438"
       gradientUnits="userSpaceOnUse"
       x1="164.013"
       y1="412.91901"
       x2="308.75"
       y2="337.60999" />
    <linearGradient
       gradientUnits="userSpaceOnUse"
       id="defitem24"
       y2="380.47198"
       x2="992.48901"
       y1="270.854"
       x1="1094.25">
      <stop
         id="stop77"
         offset="0.0000000"
         style="stop-color:#6a6a6a;stop-opacity:1.0000000;" />
      <stop
         id="stop78"
         offset="1.0000000"
         style="stop-color:#e6e6e6;stop-opacity:1.0000000;" />
    </linearGradient>
    <linearGradient
       xlink:href="#defitem24"
       id="linearGradient3436"
       gradientUnits="userSpaceOnUse"
       x1="1094.25"
       y1="270.854"
       x2="992.48901"
       y2="380.47198" />
    <linearGradient
       gradientUnits="userSpaceOnUse"
       id="defitem23"
       y2="549.37799"
       x2="1049.84"
       y1="476.465"
       x1="1170.91">
      <stop
         id="stop74"
         offset="0.0000000"
         style="stop-color:#5f5f5f;stop-opacity:1.0000000;" />
      <stop
         id="stop75"
         offset="1.0000000"
         style="stop-color:#ebebeb;stop-opacity:1.0000000;" />
    </linearGradient>
    <linearGradient
       xlink:href="#defitem23"
       id="linearGradient3434"
       gradientUnits="userSpaceOnUse"
       x1="1170.91"
       y1="476.465"
       x2="1049.84"
       y2="549.37799" />
    <linearGradient
       gradientUnits="userSpaceOnUse"
       id="defitem22"
       y2="313.276"
       x2="576.14899"
       y1="105.486"
       x1="783.716">
      <stop
         id="stop71"
         offset="0.0000000"
         style="stop-color:#5a5a5a;stop-opacity:1.0000000;" />
      <stop
         id="stop72"
         offset="1.0000000"
         style="stop-color:#c7c7c7;stop-opacity:1.0000000;" />
    </linearGradient>
    <linearGradient
       xlink:href="#defitem22"
       id="linearGradient3432"
       gradientUnits="userSpaceOnUse"
       x1="783.716"
       y1="105.486"
       x2="576.14899"
       y2="313.276" />
    <linearGradient
       gradientUnits="userSpaceOnUse"
       id="defitem21"
       y2="484.716"
       x2="128.05499"
       y1="418.698"
       x1="280.04401">
      <stop
         id="stop68"
         offset="0.0000000"
         style="stop-color:#666666;stop-opacity:1.0000000;" />
      <stop
         id="stop69"
         offset="1.0000000"
         style="stop-color:#d8d8d8;stop-opacity:1.0000000;" />
    </linearGradient>
    <linearGradient
       xlink:href="#defitem21"
       id="linearGradient3430"
       gradientUnits="userSpaceOnUse"
       x1="280.04401"
       y1="418.698"
       x2="128.05499"
       y2="484.716" />
    <linearGradient
       gradientUnits="userSpaceOnUse"
       id="defitem20"
       y2="584.40997"
       x2="220"
       y1="636.95398"
       x1="129.687">
      <stop
         id="stop65"
         offset="0.0000000"
         style="stop-color:#ffffff;stop-opacity:1.0000000;" />
      <stop
         id="stop66"
         offset="1.0000000"
         style="stop-color:#bbbbbb;stop-opacity:1.0000000;" />
    </linearGradient>
    <linearGradient
       xlink:href="#defitem20"
       id="linearGradient3428"
       gradientUnits="userSpaceOnUse"
       x1="129.687"
       y1="636.95398"
       x2="220"
       y2="584.40997" />
    <linearGradient
       gradientUnits="userSpaceOnUse"
       id="defitem19"
       y2="583.75299"
       x2="1127.98"
       y1="629.02802"
       x1="1048.72">
      <stop
         id="stop62"
         offset="0.0000000"
         style="stop-color:#5e5e5e;stop-opacity:1.0000000;" />
      <stop
         id="stop63"
         offset="1.0000000"
         style="stop-color:#ededed;stop-opacity:1.0000000;" />
    </linearGradient>
    <linearGradient
       xlink:href="#defitem19"
       id="linearGradient3426"
       gradientUnits="userSpaceOnUse"
       x1="1048.72"
       y1="629.02802"
       x2="1127.98"
       y2="583.75299" />
    <linearGradient
       gradientUnits="userSpaceOnUse"
       id="defitem18"
       y2="291.97699"
       x2="581.32397"
       y1="387.27301"
       x1="370.022">
      <stop
         id="stop59"
         offset="0.0000000"
         style="stop-color:#636363;stop-opacity:1.0000000;" />
      <stop
         id="stop60"
         offset="1.0000000"
         style="stop-color:#d6d6d6;stop-opacity:1.0000000;" />
    </linearGradient>
    <linearGradient
       xlink:href="#defitem18"
       id="linearGradient3424"
       gradientUnits="userSpaceOnUse"
       x1="370.022"
       y1="387.27301"
       x2="581.32397"
       y2="291.97699" />
    <linearGradient
       gradientUnits="userSpaceOnUse"
       id="defitem17"
       y2="351.939"
       x2="909.59399"
       y1="351.939"
       x1="732.15601">
      <stop
         id="stop56"
         offset="0.0000000"
         style="stop-color:#676767;stop-opacity:1.0000000;" />
      <stop
         id="stop57"
         offset="1.0000000"
         style="stop-color:#d3d3d3;stop-opacity:1.0000000;" />
    </linearGradient>
    <linearGradient
       xlink:href="#defitem17"
       id="linearGradient3422"
       gradientUnits="userSpaceOnUse"
       x1="732.15601"
       y1="351.939"
       x2="909.59399"
       y2="351.939" />
    <linearGradient
       gradientUnits="userSpaceOnUse"
       id="defitem16"
       y2="494.71301"
       x2="1073.01"
       y1="494.71301"
       x1="1014.43">
      <stop
         id="stop53"
         offset="0.0000000"
         style="stop-color:#666666;stop-opacity:1.0000000;" />
      <stop
         id="stop54"
         offset="1.0000000"
         style="stop-color:#dcdcdc;stop-opacity:1.0000000;" />
    </linearGradient>
    <linearGradient
       xlink:href="#defitem16"
       id="linearGradient3420"
       gradientUnits="userSpaceOnUse"
       x1="1014.43"
       y1="494.71301"
       x2="1073.01"
       y2="494.71301" />
    <linearGradient
       gradientUnits="userSpaceOnUse"
       id="defitem15"
       y2="516.37"
       x2="193.27699"
       y1="452.388"
       x1="272.59201">
      <stop
         id="stop50"
         offset="0.0000000"
         style="stop-color:#6e6e6e;stop-opacity:1.0000000;" />
      <stop
         id="stop51"
         offset="1.0000000"
         style="stop-color:#d8d8d8;stop-opacity:1.0000000;" />
    </linearGradient>
    <linearGradient
       xlink:href="#defitem15"
       id="linearGradient3418"
       gradientUnits="userSpaceOnUse"
       x1="272.59201"
       y1="452.388"
       x2="193.27699"
       y2="516.37" />
    <radialGradient
       gradientUnits="userSpaceOnUse"
       id="defitem14"
       fy="211.088"
       fx="1037.22"
       r="1164.28"
       cy="211.088"
       cx="1037.22">
      <stop
         id="stop47"
         offset="0.0000000"
         style="stop-color:#ffffff;stop-opacity:1.0000000;" />
      <stop
         id="stop48"
         offset="1.0000000"
         style="stop-color:#aaaaaa;stop-opacity:1.0000000;" />
    </radialGradient>
    <radialGradient
       xlink:href="#defitem14"
       id="radialGradient3416"
       gradientUnits="userSpaceOnUse"
       cx="1037.22"
       cy="211.088"
       fx="1037.22"
       fy="211.088"
       r="1164.28" />
    <linearGradient
       gradientUnits="userSpaceOnUse"
       id="defitem13"
       y2="686.83002"
       x2="379.241"
       y1="732.12903"
       x1="342.64999">
      <stop
         id="stop44"
         offset="0.0000000"
         style="stop-color:#ffffff;stop-opacity:1.0000000;" />
      <stop
         id="stop45"
         offset="1.0000000"
         style="stop-color:#989898;stop-opacity:1.0000000;" />
    </linearGradient>
    <linearGradient
       xlink:href="#defitem13"
       id="linearGradient3414"
       gradientUnits="userSpaceOnUse"
       x1="342.64999"
       y1="732.12903"
       x2="379.241"
       y2="686.83002" />
    <radialGradient
       gradientUnits="userSpaceOnUse"
       id="defitem12"
       fy="484.409"
       fx="632.78101"
       r="540.27899"
       cy="484.409"
       cx="632.78101">
      <stop
         id="stop41"
         offset="0.0000000"
         style="stop-color:#ffffff;stop-opacity:1.0000000;" />
      <stop
         id="stop42"
         offset="1.0000000"
         style="stop-color:#ededed;stop-opacity:1.0000000;" />
    </radialGradient>
    <radialGradient
       xlink:href="#defitem12"
       id="radialGradient3412"
       gradientUnits="userSpaceOnUse"
       cx="632.78101"
       cy="484.409"
       fx="632.78101"
       fy="484.409"
       r="540.27899" />
    <radialGradient
       xlink:href="#linearGradient3682"
       id="radialGradient3817"
       gradientUnits="userSpaceOnUse"
       gradientTransform="matrix(1.1149219,0.2722306,-0.7507171,3.0745639,-471.08629,-148.32863)"
       cx="270.58316"
       cy="33.899986"
       fx="270.58316"
       fy="33.899986"
       r="19.571428" />
    <linearGradient
       id="linearGradient3682">
      <stop
         style="stop-color:#ff6d0f;stop-opacity:1;"
         offset="0"
         id="stop3684" />
      <stop
         style="stop-color:#ff1000;stop-opacity:1;"
         offset="1"
         id="stop3686" />
    </linearGradient>
    <radialGradient
       xlink:href="#linearGradient3864"
       id="radialGradient3661"
       gradientUnits="userSpaceOnUse"
       gradientTransform="matrix(0.6186598,0.9666542,-1.0332462,0.6612786,-327.27568,-255.84136)"
       cx="282.64584"
       cy="29.149046"
       fx="282.64584"
       fy="29.149046"
       r="19.571428" />
    <linearGradient
       id="linearGradient3864">
      <stop
         id="stop3866"
         offset="0"
         style="stop-color:#71b2f8;stop-opacity:1;" />
      <stop
         id="stop3868"
         offset="1"
         style="stop-color:#002795;stop-opacity:1;" />
    </linearGradient>
  </defs>
  <g
     id="g4403"
     transform="translate(20.99,82.474243)">
    <path
       style="color:#000000;fill:#c8c8c8;fill-opacity:1;stroke:#000000;stroke-width:1;stroke-dasharray:none;stroke-opacity:1"
       d="m 0.5,0.5 h 11.34765 28.19528 41.25775 14.33203 29.20698 74.80462 29.20698 14.33203 41.25775 28.19528 11.34765 V 94.886595 H 312.63635 284.44107 243.18332 228.85129 199.64431 124.83969 95.63271 81.30068 40.04293 11.84765 0.5 Z"
       id="path4022" />
    <g
       id="g4013"
       transform="matrix(1.9999977,0,0,1.9999977,-194.72495,-75.329968)"
       style="stroke-width:0.500001;stroke-dasharray:none">
      <g
         id="g3997"
         transform="translate(-7.881758,-57.714809)"
         style="stroke-width:0.500001;stroke-dasharray:none">
        <path
           id="7"
           d="m 247.46544,119.05452 v 0.3777"
           style="fill:none;stroke:#000000;stroke-width:0.500001;stroke-linecap:butt;stroke-linejoin:miter;stroke-dasharray:none" />
        <path
           id="10"
           d="m 125.26544,119.05452 v 0.3777"
           style="fill:none;stroke:#000000;stroke-width:0.500001;stroke-linecap:butt;stroke-linejoin:miter;stroke-dasharray:none" />
      </g>
      <g
         id="g3993"
         transform="translate(-7.881758,-57.731664)"
         style="stroke-width:0.500001;stroke-dasharray:none">
        <path
           d="m 260.34894,105.96512 -1.721,0.8666 -1.604,0.88155 -1.485,0.89535 -1.364,0.90815 -1.2415,0.9198 -1.118,0.9304 -0.992,0.9398 -0.866,0.9482 -0.7385,0.95535 -0.61,0.96138 -0.4805,0.96627 -0.3515,0.97001 -0.221,0.97257 -0.0905,0.97397"
           id="path825"
           style="fill:none;stroke:#000000;stroke-width:0.500001;stroke-linecap:butt;stroke-linejoin:miter;stroke-dasharray:none" />
        <path
           d="m 247.46544,119.43222 0.0905,0.97397 0.221,0.97257 0.3515,0.97001 0.4805,0.96627 0.61,0.96138 0.7385,0.95535 0.866,0.9482 0.992,0.9398 1.118,0.9304 1.2415,0.9198 1.364,0.90815 1.485,0.89535 1.604,0.88155 1.721,0.8666"
           id="path827"
           style="fill:none;stroke:#000000;stroke-width:0.500001;stroke-linecap:butt;stroke-linejoin:miter;stroke-dasharray:none" />
        <path
           id="14"
           d="m 260.34894,105.96512 v 26.5565"
           style="fill:none;stroke:#000000;stroke-width:0.500001;stroke-linecap:butt;stroke-linejoin:miter;stroke-dasharray:none" />
        <path
           d="m 261.56194,95.47147 -0.1075,0.56905 -0.105,0.6005 -0.1015,0.63115 -0.099,0.66095 -0.096,0.6898 -0.0925,0.7178 -0.0895,0.74475 -0.086,0.7707 -0.082,0.79565 -0.079,0.8195 -0.0745,0.84225 -0.071,0.8638 -0.067,0.88425 -0.0625,0.9035"
           id="path835"
           style="fill:none;stroke:#000000;stroke-width:0.500001;stroke-linecap:butt;stroke-linejoin:miter;stroke-dasharray:none" />
        <path
           d="m 260.34894,132.52162 0.0625,0.9035 0.067,0.88425 0.071,0.8638 0.0745,0.84225 0.079,0.8195 0.082,0.79565 0.086,0.7707 0.0895,0.74475 0.0925,0.7178 0.096,0.6898 0.099,0.66095 0.1015,0.63115 0.105,0.6005 0.1075,0.56905"
           id="path837"
           style="fill:none;stroke:#000000;stroke-width:0.500001;stroke-linecap:butt;stroke-linejoin:miter;stroke-dasharray:none" />
        <path
           d="m 111.16894,143.01527 0.1075,-0.56905 0.105,-0.6005 0.1015,-0.63115 0.099,-0.66095 0.096,-0.6898 0.0925,-0.7178 0.0895,-0.74475 0.086,-0.7707 0.082,-0.79565 0.079,-0.8195 0.0745,-0.84225 0.071,-0.8638 0.067,-0.88425 0.0625,-0.9035"
           id="path841"
           style="fill:none;stroke:#000000;stroke-width:0.500001;stroke-linecap:butt;stroke-linejoin:miter;stroke-dasharray:none" />
        <path
           id="25"
           d="m 112.38194,105.96512 v 26.5565"
           style="fill:none;stroke:#000000;stroke-width:0.500001;stroke-linecap:butt;stroke-linejoin:miter;stroke-dasharray:none" />
        <path
           d="m 112.38194,105.96512 -0.0625,-0.9035 -0.067,-0.88425 -0.071,-0.8638 -0.0745,-0.84225 -0.079,-0.8195 -0.082,-0.79565 -0.086,-0.7707 -0.0895,-0.74475 -0.0925,-0.7178 -0.096,-0.6898 -0.099,-0.66095 -0.1015,-0.63115 -0.105,-0.6005 -0.1075,-0.56905"
           id="path844"
           style="fill:none;stroke:#000000;stroke-width:0.500001;stroke-linecap:butt;stroke-linejoin:miter;stroke-dasharray:none" />
        <path
           d="m 125.26544,119.05452 -0.0905,-0.97397 -0.221,-0.97257 -0.3515,-0.97001 -0.4805,-0.96627 -0.61,-0.96138 -0.7385,-0.95535 -0.866,-0.9482 -0.992,-0.9398 -1.118,-0.9304 -1.2415,-0.9198 -1.364,-0.90815 -1.485,-0.89535 -1.604,-0.88155 -1.721,-0.8666"
           id="path847"
           style="fill:none;stroke:#000000;stroke-width:0.500001;stroke-linecap:butt;stroke-linejoin:miter;stroke-dasharray:none" />
        <path
           d="m 112.38194,132.52162 1.721,-0.8666 1.604,-0.88155 1.485,-0.89535 1.364,-0.90815 1.2415,-0.9198 1.118,-0.9304 0.992,-0.9398 0.866,-0.9482 0.7385,-0.95535 0.61,-0.96138 0.4805,-0.96627 0.3515,-0.97001 0.221,-0.97257 0.0905,-0.97397"
           id="path849"
           style="fill:none;stroke:#000000;stroke-width:0.500001;stroke-linecap:butt;stroke-linejoin:miter;stroke-dasharray:none" />
      </g>
    </g>
  </g>
  <path
     style="color:#000000;fill:#c8c8c8;fill-opacity:1;stroke:#000000;stroke-opacity:1;-inkscape-stroke:none"
     d="m 160.04648,29.552311 c 22.99874,0.141076 46.0888,-0.882218 68.94337,2.337786 16.20329,1.919291 32.29075,4.811537 48.15049,8.644635 3.8651,7.731189 7.73002,15.462467 11.5957,23.193363 3.17468,0.952946 8.87863,1.564991 13.0767,2.350929 0.48189,15.715075 0.0688,32.190468 0.20649,48.197916 0,26.64908 0,53.29816 0,79.94724 -4.30566,0.7025 -8.61072,1.4086 -12.91602,2.11328 -1.80554,2.65986 -4.02922,7.79911 -5.97859,11.49274 -1.99476,3.99005 -3.98952,7.9801 -5.98428,11.97015 -31.75476,7.57584 -64.42209,11.89541 -97.10525,10.98242 -30.00307,0.81023 -59.98051,-2.97902 -89.242655,-9.44726 -4.121846,-8.24279 -8.243928,-16.48546 -12.36523,-24.72852 -3.171309,-0.95189 -8.878812,-1.56591 -13.076902,-2.34993 -2.106964,-2.06005 -0.307022,-7.43992 -0.905538,-10.78174 0,-39.08306 0,-78.16612 0,-117.249185 4.538554,-0.741933 9.076847,-1.485471 13.61522,-2.22851 1.803711,-2.656612 4.029593,-7.799398 5.978653,-11.492736 2.250616,-4.501771 4.501231,-9.003542 6.751847,-13.505313 22.760855,-5.110672 45.958125,-8.271713 69.255995,-9.447265 z"
     id="path11898" />
  <path
     d="m 218.79005,66.98604 a 72.5,72.5 0 0 1 26.2885,25.35"
     id="path1321"
     style="fill:none;stroke:#000000;stroke-width:0.7;stroke-linecap:butt;stroke-linejoin:miter" />
  <path
     d="m 121.38545,92.33604 a 72.5,72.5 0 0 1 26.2885,-25.35"
     id="path1403"
     style="fill:none;stroke:#000000;stroke-width:0.7;stroke-linecap:butt;stroke-linejoin:miter" />
  <ellipse
     style="fill:#c8c8c8;stroke:#000000;stroke-width:1;stroke-dasharray:none"
     id="path9158"
     cx="183.29483"
     cy="129.55038"
     rx="72.174522"
     ry="72.683022" />
</svg>
