<?xml version='1.0' encoding='ascii'?>
<svg xmlns="http://www.w3.org/2000/svg" version="1.1" width="1024" height="1024">
    <g id="ViewLayer_LineSet" xmlns:inkscape="http://www.inkscape.org/namespaces/inkscape" inkscape:groupmode="lineset" inkscape:label="ViewLayer_LineSet">
        <g xmlns:inkscape="http://www.inkscape.org/namespaces/inkscape" inkscape:groupmode="layer" id="strokes" inkscape:label="strokes">
            <path fill="none" stroke-width="3.0" stroke-linecap="butt" stroke-opacity="1.0" stroke="rgb(0, 0, 0)" stroke-linejoin="round" d=" M 468.913, 439.528 458.913, 439.528 448.913, 439.528 438.913, 439.528 428.913, 439.528 418.913, 439.528 408.913, 439.528 398.913, 439.528 388.913, 439.528 378.913, 439.528 368.913, 439.528 358.913, 439.528 348.913, 439.528 345.617, 439.528 345.617, 439.528 345.617, 449.528 345.617, 456.512 345.617, 466.512 345.617, 476.512 345.617, 478.768 345.617, 480.797 345.617, 480.936 345.617, 482.126 345.617, 492.126 345.617, 502.126 345.617, 512.126 345.617, 512.658 345.617, 513.452 345.617, 518.244 345.617, 518.316 345.617, 525.996 345.617, 531.526 345.617, 541.526 345.617, 551.526 345.617, 554.227 355.424, 556.178 365.232, 558.129 375.040, 560.080 384.848, 562.031 394.656, 563.982 404.464, 565.933 414.271, 567.884 424.079, 569.835 429.367, 570.886 439.367, 570.886 449.367, 570.886 459.367, 570.886 469.367, 570.886 479.367, 570.886 489.367, 570.886 499.367, 570.886 509.367, 570.886 519.367, 570.886 529.367, 570.886 539.367, 570.886 549.367, 570.886 559.367, 570.886 569.367, 570.886 579.367, 570.886 589.367, 570.886 594.633, 570.886 604.440, 568.935 614.248, 566.985 624.056, 565.034 633.864, 563.083 643.672, 561.132 653.480, 559.181 663.288, 557.230 673.095, 555.279 678.383, 554.227 678.383, 544.227 678.383, 534.227 678.383, 531.526 678.383, 525.996 678.383, 518.316 678.383, 518.244 678.383, 513.452 678.383, 512.658 678.383, 502.658 678.383, 492.658 678.383, 482.658 678.383, 482.127 678.383, 480.936 678.383, 480.797 678.383, 478.768 678.383, 468.768 678.383, 458.768 678.383, 448.768 678.383, 439.528 678.383, 439.528 668.383, 439.528 658.383, 439.528 648.383, 439.528 638.383, 439.528 628.383, 439.528 618.383, 439.528 608.383, 439.528 598.383, 439.528 588.383, 439.528 578.383, 439.528 568.383, 439.528 558.383, 439.528 555.087, 439.528 " />
            <path fill="none" stroke-width="3.0" stroke-linecap="butt" stroke-opacity="1.0" stroke="rgb(0, 0, 0)" stroke-linejoin="round" d=" M 555.087, 439.528 549.935, 439.528 539.935, 439.528 529.935, 439.528 519.935, 439.528 509.935, 439.528 499.935, 439.528 489.935, 439.528 479.935, 439.528 474.064, 439.528 468.913, 439.528 473.341, 430.562 477.769, 421.595 477.925, 421.279 487.925, 421.279 497.925, 421.279 507.925, 421.279 517.925, 421.279 527.925, 421.279 537.925, 421.279 546.075, 421.279 550.503, 430.245 554.931, 439.211 555.087, 439.528 " />
            <path fill="none" stroke-width="3.0" stroke-linecap="butt" stroke-opacity="1.0" stroke="rgb(0, 0, 0)" stroke-linejoin="round" d=" M 345.617, 439.528 345.617, 439.528 342.393, 442.979 338.991, 446.912 336.736, 450.121 336.229, 451.743 336.229, 461.743 336.229, 471.743 336.229, 481.743 336.229, 491.743 336.229, 501.743 336.229, 511.743 336.229, 521.743 336.229, 531.058 336.736, 531.292 338.991, 531.463 342.393, 531.526 345.617, 531.526 345.617, 531.526 " />
            <path fill="none" stroke-width="3.0" stroke-linecap="butt" stroke-opacity="1.0" stroke="rgb(0, 0, 0)" stroke-linejoin="round" d=" M 345.617, 439.528 345.617, 449.528 345.617, 456.512 345.617, 466.512 345.617, 476.512 345.617, 478.768 345.617, 480.797 345.617, 482.126 345.617, 492.126 345.617, 502.126 345.617, 512.126 345.617, 512.658 345.617, 513.452 345.617, 518.316 345.617, 528.316 345.617, 531.526 " />
            <path fill="none" stroke-width="3.0" stroke-linecap="butt" stroke-opacity="1.0" stroke="rgb(0, 0, 0)" stroke-linejoin="round" d=" M 678.383, 531.526 678.383, 531.526 681.607, 531.526 685.009, 531.463 687.264, 531.292 687.771, 531.058 687.771, 521.058 687.771, 511.058 687.771, 501.058 687.771, 491.058 687.771, 481.058 687.771, 471.058 687.771, 461.058 687.771, 451.743 687.264, 450.121 685.009, 446.912 681.607, 442.979 678.383, 439.528 678.383, 439.528 " />
            <path fill="none" stroke-width="3.0" stroke-linecap="butt" stroke-opacity="1.0" stroke="rgb(0, 0, 0)" stroke-linejoin="round" d=" M 678.383, 531.526 678.383, 521.526 678.383, 518.316 678.383, 513.452 678.383, 512.658 678.383, 502.658 678.383, 492.658 678.383, 482.658 678.383, 482.127 678.383, 480.797 678.383, 478.768 678.383, 468.768 678.383, 458.768 678.383, 448.768 678.383, 439.528 " />
        </g>
    </g>
</svg>
