<?xml version='1.0' encoding='ascii'?>
<svg xmlns="http://www.w3.org/2000/svg" version="1.1" width="1024" height="1024">
    <g id="ViewLayer_LineSet" xmlns:inkscape="http://www.inkscape.org/namespaces/inkscape" inkscape:groupmode="lineset" inkscape:label="ViewLayer_LineSet">
        <g xmlns:inkscape="http://www.inkscape.org/namespaces/inkscape" inkscape:groupmode="layer" id="strokes" inkscape:label="strokes">
            <path fill="none" stroke-width="3.0" stroke-linecap="butt" stroke-opacity="1.0" stroke="rgb(0, 0, 0)" stroke-linejoin="round" d=" M 576.861, 490.721 576.843, 490.580 575.552, 480.663 574.260, 470.747 572.969, 460.831 571.678, 450.914 570.387, 440.998 569.960, 437.721 564.301, 432.649 563.398, 432.077 560.476, 431.523 555.612, 431.008 548.968, 430.554 540.790, 430.183 531.401, 429.909 522.372, 429.765 522.189, 429.762 521.189, 429.746 511.189, 429.704 510.584, 429.702 501.810, 429.765 501.628, 429.767 500.040, 429.778 490.006, 429.971 480.903, 430.272 473.104, 430.668 466.912, 431.139 462.553, 431.667 460.164, 432.229 454.522, 437.284 454.163, 437.879 452.874, 447.795 451.586, 457.712 450.298, 467.629 449.010, 477.545 447.722, 487.462 447.314, 490.603 " />
            <path fill="none" stroke-width="3.0" stroke-linecap="butt" stroke-opacity="1.0" stroke="rgb(0, 0, 0)" stroke-linejoin="round" d=" M 579.475, 541.634 580.359, 541.555 580.502, 541.516 581.396, 541.274 580.515, 534.258 579.771, 533.453 579.769, 533.420 579.761, 533.273 " />
            <path fill="none" stroke-width="3.0" stroke-linecap="butt" stroke-opacity="1.0" stroke="rgb(0, 0, 0)" stroke-linejoin="round" d=" M 444.399, 533.361 444.397, 533.399 443.656, 534.203 442.779, 541.200 443.101, 541.481 443.672, 541.533 446.124, 541.757 446.981, 541.834 " />
            <path fill="none" stroke-width="3.0" stroke-linecap="butt" stroke-opacity="1.0" stroke="rgb(0, 0, 0)" stroke-linejoin="round" d=" M 447.356, 490.603 447.415, 490.949 447.364, 492.113 447.242, 493.611 447.376, 494.053 447.770, 496.698 447.828, 497.752 448.121, 499.951 448.363, 503.606 448.368, 503.687 448.420, 507.758 448.289, 511.530 448.273, 512.000 447.933, 516.241 447.414, 520.308 446.737, 524.040 445.932, 527.287 445.030, 529.923 444.916, 530.150 444.737, 531.858 444.570, 533.017 444.444, 533.362 " />
            <path fill="none" stroke-width="3.0" stroke-linecap="butt" stroke-opacity="1.0" stroke="rgb(0, 0, 0)" stroke-linejoin="round" d=" M 579.761, 533.273 579.561, 533.071 579.180, 531.905 578.779, 529.961 578.408, 527.541 578.313, 527.310 577.352, 524.052 576.559, 520.313 575.967, 516.242 575.707, 513.235 575.600, 512.000 575.473, 507.758 575.591, 503.687 " />
            <path fill="none" stroke-width="3.0" stroke-linecap="butt" stroke-opacity="1.0" stroke="rgb(0, 0, 0)" stroke-linejoin="round" d=" M 575.949, 499.949 576.341, 497.752 576.447, 496.690 576.569, 496.126 576.498, 494.039 576.534, 492.095 576.695, 490.929 576.861, 490.721 " />
            <path fill="none" stroke-width="3.0" stroke-linecap="butt" stroke-opacity="1.0" stroke="rgb(0, 0, 0)" stroke-linejoin="round" d=" M 575.591, 503.687 575.636, 503.289 575.949, 499.949 575.591, 503.687 " />
            <path fill="none" stroke-width="3.0" stroke-linecap="butt" stroke-opacity="1.0" stroke="rgb(0, 0, 0)" stroke-linejoin="round" d=" M 443.672, 541.533 444.009, 551.527 444.345, 561.522 444.645, 570.443 445.587, 580.398 446.529, 590.354 447.471, 600.310 447.515, 600.774 447.856, 601.568 450.710, 602.349 456.026, 603.086 463.645, 603.747 473.295, 604.302 483.288, 604.676 484.599, 604.726 494.597, 604.943 497.091, 604.998 507.091, 605.080 510.234, 605.105 520.234, 605.058 523.455, 605.043 533.453, 604.862 536.174, 604.813 546.169, 604.484 547.844, 604.428 557.830, 603.913 557.974, 603.906 566.164, 603.271 572.112, 602.551 575.629, 601.778 576.638, 600.984 577.582, 591.029 578.527, 581.074 579.471, 571.118 579.521, 570.588 579.858, 560.594 580.196, 550.599 580.502, 541.516 " />
            <path fill="none" stroke-width="3.0" stroke-linecap="butt" stroke-opacity="1.0" stroke="rgb(0, 0, 0)" stroke-linejoin="round" d=" M 579.475, 541.634 575.778, 541.905 569.495, 542.157 560.823, 542.380 550.824, 542.551 550.078, 542.564 540.078, 542.673 537.688, 542.699 527.688, 542.759 524.174, 542.780 514.174, 542.795 510.123, 542.802 500.124, 542.774 496.156, 542.764 486.156, 542.692 482.886, 542.668 472.887, 542.544 470.886, 542.519 460.887, 542.329 460.654, 542.324 452.591, 542.093 446.981, 541.834 " />
            <path fill="none" stroke-width="3.0" stroke-linecap="butt" stroke-opacity="1.0" stroke="rgb(0, 0, 0)" stroke-linejoin="round" d=" M 446.124, 541.757 446.149, 541.758 451.801, 542.018 459.966, 542.252 469.964, 542.442 470.331, 542.449 480.330, 542.573 482.491, 542.600 492.491, 542.672 495.940, 542.697 505.940, 542.724 510.098, 542.735 520.098, 542.719 524.340, 542.713 534.339, 542.653 538.036, 542.631 548.036, 542.522 550.592, 542.494 560.591, 542.324 561.478, 542.309 570.262, 542.083 576.621, 541.828 579.550, 541.614 580.359, 541.555 " />
            <path fill="none" stroke-width="3.0" stroke-linecap="butt" stroke-opacity="1.0" stroke="rgb(0, 0, 0)" stroke-linejoin="round" d=" M 447.356, 490.603 447.314, 490.603 440.075, 490.721 439.111, 490.737 438.898, 491.084 438.692, 492.242 438.501, 494.172 438.333, 496.804 " />
            <path fill="none" stroke-width="3.0" stroke-linecap="butt" stroke-opacity="1.0" stroke="rgb(0, 0, 0)" stroke-linejoin="round" d=" M 438.199, 499.927 438.198, 499.933 438.194, 500.038 438.116, 502.830 438.116, 502.830 438.091, 503.749 438.027, 507.790 438.005, 512.000 438.027, 516.210 438.091, 520.251 438.194, 523.962 438.333, 527.196 438.501, 529.828 438.692, 531.758 438.898, 532.916 439.099, 533.243 439.111, 533.263 444.399, 533.361 444.444, 533.362 " />
            <path fill="none" stroke-width="3.0" stroke-linecap="butt" stroke-opacity="1.0" stroke="rgb(0, 0, 0)" stroke-linejoin="round" d=" M 579.769, 533.420 584.889, 533.420 584.998, 533.243 585.104, 533.071 585.312, 531.905 585.504, 529.961 585.674, 527.310 585.814, 524.052 585.918, 520.313 585.982, 516.242 586.004, 512.000 585.982, 507.758 585.918, 503.687 585.894, 502.830 585.894, 502.829 585.814, 499.949 585.807, 499.786 585.674, 496.690 585.504, 494.039 585.312, 492.095 585.104, 490.929 584.889, 490.580 583.925, 490.580 576.843, 490.580 " />
            <path fill="none" stroke-width="3.0" stroke-linecap="butt" stroke-opacity="1.0" stroke="rgb(0, 0, 0)" stroke-linejoin="round" d=" M 508.382, 425.496 508.452, 424.792 508.658, 424.116 508.992, 423.493 509.442, 422.946 509.990, 422.498 510.616, 422.165 511.294, 421.960 512.000, 421.891 512.705, 421.960 513.384, 422.165 514.009, 422.498 514.558, 422.946 515.008, 423.493 515.342, 424.116 515.548, 424.792 515.617, 425.496 515.591, 425.769 515.548, 426.199 515.342, 426.876 515.008, 427.499 514.558, 428.046 514.010, 428.494 513.384, 428.827 512.706, 429.033 512.000, 429.102 511.294, 429.033 510.615, 428.827 509.990, 428.494 509.441, 428.046 508.992, 427.499 508.657, 426.876 508.452, 426.199 508.409, 425.769 508.382, 425.496 " />
            <path fill="none" stroke-width="3.0" stroke-linecap="butt" stroke-opacity="1.0" stroke="rgb(0, 0, 0)" stroke-linejoin="round" d=" M 522.372, 429.765 519.304, 420.744 518.670, 419.532 517.763, 418.645 516.825, 418.320 507.176, 418.320 506.238, 418.645 505.330, 419.532 504.696, 420.744 501.628, 429.767 " />
            <path fill="none" stroke-width="3.0" stroke-linecap="butt" stroke-opacity="1.0" stroke="rgb(0, 0, 0)" stroke-linejoin="round" d=" M 508.409, 425.769 508.467, 425.175 508.672, 424.497 509.005, 423.872 509.453, 423.324 509.999, 422.875 510.621, 422.541 511.297, 422.335 512.000, 422.266 512.703, 422.335 513.378, 422.541 514.001, 422.875 514.547, 423.324 514.995, 423.872 515.327, 424.497 515.532, 425.175 515.591, 425.769 " />
            <path fill="none" stroke-width="3.0" stroke-linecap="butt" stroke-opacity="1.0" stroke="rgb(0, 0, 0)" stroke-linejoin="round" d=" M 440.075, 490.721 440.075, 480.721 440.075, 470.721 440.075, 460.721 440.075, 450.721 440.075, 440.721 440.075, 430.721 440.075, 420.721 440.075, 410.721 440.075, 400.721 440.075, 390.721 440.075, 380.721 440.075, 374.133 441.195, 369.954 443.984, 367.165 448.164, 366.045 451.619, 366.104 461.590, 366.872 465.227, 367.152 475.194, 367.962 478.654, 368.244 488.654, 368.244 495.327, 368.244 505.327, 368.244 512.000, 368.244 522.000, 368.244 528.674, 368.244 538.674, 368.244 545.347, 368.244 555.314, 367.434 558.774, 367.152 568.744, 366.384 572.381, 366.104 575.837, 366.045 580.017, 367.165 582.806, 369.954 583.925, 374.133 583.925, 384.133 583.925, 394.133 583.925, 404.133 583.925, 414.133 583.925, 424.133 583.925, 434.133 583.925, 444.133 583.925, 454.133 583.925, 464.133 583.925, 474.133 583.925, 484.133 583.925, 490.580 " />
            <path fill="none" stroke-width="3.0" stroke-linecap="butt" stroke-opacity="1.0" stroke="rgb(0, 0, 0)" stroke-linejoin="round" d=" M 585.807, 499.786 585.861, 489.786 585.915, 479.786 585.969, 469.786 586.023, 459.786 586.078, 449.787 586.132, 439.787 586.186, 429.787 586.240, 419.787 586.294, 409.787 586.349, 399.787 586.403, 389.787 586.457, 379.788 586.515, 369.170 585.384, 364.781 582.514, 361.846 578.188, 360.669 574.715, 360.464 564.731, 359.905 561.178, 359.706 551.187, 359.293 547.459, 359.140 537.462, 358.892 529.780, 358.701 519.781, 358.616 512.000, 358.549 502.001, 358.635 494.220, 358.701 484.223, 358.949 476.542, 359.140 466.551, 359.552 462.822, 359.706 452.838, 360.265 449.285, 360.464 445.812, 360.669 441.487, 361.846 438.617, 364.781 437.486, 369.170 " />
            <path fill="none" stroke-width="3.0" stroke-linecap="butt" stroke-opacity="1.0" stroke="rgb(0, 0, 0)" stroke-linejoin="round" d=" M 438.199, 499.919 438.145, 489.920 438.090, 479.920 438.035, 469.920 437.981, 459.920 437.926, 449.920 437.872, 439.920 437.817, 429.920 437.763, 419.921 437.708, 409.921 437.654, 399.921 437.599, 389.921 437.545, 379.921 437.506, 372.876 437.486, 369.170 437.506, 372.876 437.561, 382.876 437.615, 392.876 437.670, 402.876 437.724, 412.875 437.779, 422.875 437.833, 432.875 437.888, 442.875 437.942, 452.875 437.997, 462.875 438.051, 472.875 438.106, 482.874 438.160, 492.874 438.199, 499.927 " />
            <path fill="none" stroke-width="3.0" stroke-linecap="butt" stroke-opacity="1.0" stroke="rgb(0, 0, 0)" stroke-linejoin="round" d=" M 588.682, 499.954 588.734, 490.757 588.790, 480.757 588.847, 470.757 588.903, 460.757 588.960, 450.757 589.016, 440.758 589.073, 430.758 589.129, 420.758 589.186, 410.758 589.242, 400.758 589.298, 390.758 589.355, 380.759 589.411, 370.759 589.423, 368.787 587.992, 363.275 584.020, 359.237 578.572, 357.759 575.078, 357.550 565.094, 356.983 561.463, 356.777 551.472, 356.359 547.664, 356.200 537.667, 355.949 529.883, 355.753 519.884, 355.667 512.000, 355.598 502.001, 355.685 494.117, 355.753 484.121, 356.004 476.337, 356.200 466.346, 356.618 462.538, 356.777 452.554, 357.344 448.922, 357.550 445.429, 357.759 439.980, 359.237 436.009, 363.275 434.578, 368.787 434.635, 378.787 434.691, 388.787 434.748, 398.787 434.804, 408.787 434.860, 418.786 434.917, 428.786 434.973, 438.786 435.030, 448.786 435.086, 458.786 435.143, 468.786 435.199, 478.785 435.256, 488.785 435.267, 490.757 435.319, 499.954 " />
            <path fill="none" stroke-width="3.0" stroke-linecap="butt" stroke-opacity="1.0" stroke="rgb(0, 0, 0)" stroke-linejoin="round" d=" M 437.486, 369.170 437.540, 379.170 437.595, 389.170 437.649, 399.170 437.704, 409.169 437.758, 419.169 437.813, 429.169 437.867, 439.169 437.922, 449.169 437.976, 459.169 438.031, 469.169 438.085, 479.168 438.140, 489.168 438.198, 499.933 " />
            <path fill="none" stroke-width="3.0" stroke-linecap="butt" stroke-opacity="1.0" stroke="rgb(0, 0, 0)" stroke-linejoin="round" d=" M 592.543, 532.766 601.620, 531.937 603.225, 522.066 604.861, 512.000 603.257, 502.130 601.620, 492.063 592.543, 491.235 " />
            <path fill="none" stroke-width="3.0" stroke-linecap="butt" stroke-opacity="1.0" stroke="rgb(0, 0, 0)" stroke-linejoin="round" d=" M 431.457, 491.235 422.380, 492.063 420.775, 501.934 419.138, 512.000 420.743, 521.870 422.380, 531.937 431.457, 532.766 " />
            <path fill="none" stroke-width="3.0" stroke-linecap="butt" stroke-opacity="1.0" stroke="rgb(0, 0, 0)" stroke-linejoin="round" d=" M 593.440, 518.286 597.522, 518.286 597.522, 508.286 597.522, 505.714 593.440, 505.714 " />
            <path fill="none" stroke-width="3.0" stroke-linecap="butt" stroke-opacity="1.0" stroke="rgb(0, 0, 0)" stroke-linejoin="round" d=" M 430.560, 505.714 426.477, 505.714 426.477, 515.714 426.477, 518.286 430.560, 518.286 " />
            <path fill="none" stroke-width="3.0" stroke-linecap="butt" stroke-opacity="1.0" stroke="rgb(0, 0, 0)" stroke-linejoin="round" d=" M 584.998, 533.243 592.282, 533.243 592.517, 532.896 592.543, 532.766 592.560, 532.679 592.744, 531.739 592.954, 529.811 593.139, 527.182 593.292, 523.951 593.406, 520.243 593.440, 518.286 593.440, 518.279 593.440, 518.250 593.441, 518.243 593.476, 516.206 593.500, 512.000 593.476, 507.794 593.441, 505.758 593.440, 505.750 593.440, 505.721 593.440, 505.714 593.406, 503.757 593.292, 500.050 593.139, 496.818 592.954, 494.189 592.744, 492.261 592.560, 491.321 592.543, 491.235 592.517, 491.104 592.282, 490.757 588.734, 490.757 " />
            <path fill="none" stroke-width="3.0" stroke-linecap="butt" stroke-opacity="1.0" stroke="rgb(0, 0, 0)" stroke-linejoin="round" d=" M 435.267, 490.757 431.717, 490.757 431.482, 491.104 431.457, 491.235 431.440, 491.321 431.256, 492.261 431.045, 494.189 430.860, 496.818 430.707, 500.050 430.594, 503.757 430.560, 505.714 430.560, 505.721 430.559, 505.750 430.559, 505.758 430.523, 507.794 430.500, 512.000 430.523, 516.206 430.559, 518.243 430.559, 518.250 430.560, 518.279 430.560, 518.286 430.594, 520.243 430.707, 523.951 430.860, 527.182 431.045, 529.811 431.256, 531.739 431.440, 532.679 431.457, 532.766 431.482, 532.896 431.717, 533.243 439.099, 533.243 " />
        </g>
    </g>
</svg>
